<?xml version="1.0" encoding="UTF-8" standalone="no"?>
<svg
   xmlns:dc="http://purl.org/dc/elements/1.1/"
   xmlns:cc="http://creativecommons.org/ns#"
   xmlns:rdf="http://www.w3.org/1999/02/22-rdf-syntax-ns#"
   xmlns:svg="http://www.w3.org/2000/svg"
   xmlns="http://www.w3.org/2000/svg"
   xmlns:sodipodi="http://sodipodi.sourceforge.net/DTD/sodipodi-0.dtd"
   xmlns:inkscape="http://www.inkscape.org/namespaces/inkscape"
   width="430.42511"
   height="219.22826"
   id="svg2"
   version="1.1"
   inkscape:version="0.91 r13725"
   sodipodi:docname="house-2015053135-clean.svg">
  <metadata
     id="metadata130">
    <rdf:RDF>
      <cc:Work
         rdf:about="">
        <dc:format>image/svg+xml</dc:format>
        <dc:type
           rdf:resource="http://purl.org/dc/dcmitype/StillImage" />
        <dc:title />
      </cc:Work>
    </rdf:RDF>
  </metadata>
  <defs
     id="defs128" />
  <sodipodi:namedview
     pagecolor="#ffffff"
     bordercolor="#666666"
     borderopacity="1"
     objecttolerance="10"
     gridtolerance="10"
     guidetolerance="10"
     inkscape:pageopacity="0"
     inkscape:pageshadow="2"
     inkscape:window-width="1280"
     inkscape:window-height="751"
     id="namedview126"
     showgrid="false"
     fit-margin-top="0"
     fit-margin-left="0"
     fit-margin-right="0"
     fit-margin-bottom="0"
     inkscape:zoom="1.0775253"
     inkscape:cx="133.80239"
     inkscape:cy="50.687149"
     inkscape:window-x="-7"
     inkscape:window-y="118"
     inkscape:window-maximized="0"
     inkscape:current-layer="svg2"
     showguides="true" />
  <path
     style="fill:#0577b5;stroke:none"
     d="m 299.51367,0.00976563 c -1.91823,0.0438 -3.83425,0.24589 -5.5625,0.90624999 C 274.43195,8.3720752 279.55319,35.723306 272.10742,50.541016 c -3.57281,10.400205 -2.5196,22.189255 -15.3457,30.546875 21.50912,29.279549 43.35598,54.065889 77.85742,72.499999 l -0.16211,0.30469 c 0.224,0.0548 0.42912,0.13214 0.6543,0.18554 l -0.57813,2.43165 c -39.32123,-9.3285 -68.46314,-39.80279 -85.89648,-71.722661 -36.93761,9.275846 -49.70208,20.418461 -115.78125,5.804688 -24.25195,-4.51453 -39.039979,-5.441618 -71.222658,22.359373 -3.707537,3.20275 -6.613854,6.51202 -8.863281,9.89453 -9.318065,9.8749 -18.966588,21.19892 -26.669922,30.34375 -15.118247,17.94726 -42.611919,52.92849 -12.798828,58.82032 11.782731,2.32857 62.183483,-11.90537 36.902344,-22.25 0,0 -40.5003204,8.04717 -18.855469,-3.73438 9.680322,-5.26911 15.779009,-10.78163 20.001953,-15.94531 3.736049,10.67885 8.406752,20.60664 10.00586,28.7168 1.062232,10.81976 16.196042,11.78394 26.554687,12.91015 -4.037348,-4.96238 -7.965597,-11.46603 -11.96289,-17.25391 -9.520962,-19.33983 -9.765917,-34.65571 -4.759766,-45.80664 5.006151,-11.15092 15.170064,-17.99221 25.996094,-20.65625 2.706499,-0.66601 5.459236,-1.0745 8.191406,-1.22656 8.19651,-0.45617 16.21041,1.40697 22.25586,5.63086 7.68053,5.3663 11.95176,14.71243 9.03823,27.25462 -0.18595,1.51047 0.0204,2.81612 0.14483,3.31339 3.49083,16.35295 10.12309,24.79459 21.46537,29.66637 11.66095,5.00866 28.2425,5.44214 50.47851,3.77539 l 0.0469,-0.002 0.0449,0 c 2.40439,0 5.81498,-0.39939 9.17578,-0.30859 3.3608,0.0908 6.7952,0.64424 9.16406,2.94141 2.42374,2.34978 2.97851,6.09359 2.39453,9.52148 -0.32165,1.88799 -1.01078,3.72864 -2.05664,5.23633 17.87496,0.30828 35.73315,-0.72893 55.27539,-5.2832 -5.4746,-3.35047 -10.22677,-19.61144 -13.82226,-41.55274 2.93852,11.45033 8.24383,37.40461 22.18945,41.55274 26.86235,6.42396 60.88364,5.68746 97.625,2.23242 6.78864,-0.63839 29.61149,-0.36396 35.9375,-3.16992 2.71796,-1.20568 4.44013,-4.07141 4.75781,-7.04297 l 0,1.44726 0.93555,0 -0.93555,-3.73828 0,0.36133 c -0.18292,-1.72269 -0.87053,-3.36702 -2.16406,-4.62109 -3.98366,-3.86309 -12.39991,-2.28125 -17.46875,-2.28125 -44.59313,3.34259 -66.96596,-1.51602 -73.84375,-36.46875 10.27042,3.47426 19.64144,8.52508 30.84375,7.40625 3.96404,-0.39538 10.40428,-3.25833 9.75,-8.21875 -0.60101,-4.56317 -9.25835,-6.86055 -11.625,-11.3125 15.56547,0 26.1415,-1.95874 34.96875,-15.90625 1.68829,-2.66804 3.90523,-6.54084 4.43164,-10.27735 l 0.80469,0 -0.93359,-4.67383 0,1.03907 c -0.12996,-0.53277 -0.30146,-1.05571 -0.55274,-1.55664 -1.49551,-2.9798 -8.63638,-4.25149 -11.59375,-5.375 -9.90963,-3.76588 -20.81168,-7.640213 -29.90625,-13.125004 -9.13757,-5.51002 -6.5312,-16.35994 -12.65625,-23.9375 -8.35243,-10.33024 -24.04111,-13.74433 -29.40625,-27.15625 -2.55265,-6.38303 -1.02343,-16.79061 0.4375,-23.34375 1.17865,-5.28476 6.50408,-7.06124 7.96875,-12.1562504 -13.54653,-5.518438 -20.85654,-0.0761 -29.90625,10.2812504 l 6.53125,-16.84375038 c -1.81518,0 -3.73802,-0.10631 -5.65625,-0.06249999 z M 345.34961,67.595703 c 1.37737,-0.01556 2.5267,0.232918 3.10937,1.554688 3.75826,9.33591 -11.71694,6.877102 -7.29492,14.710937 0.68602,1.216143 10.77513,-4.891254 12.20508,-3.701172 1.93679,1.611924 1.7099,6.538745 -3.58203,7.986328 -14.52601,1.497513 -19.21065,-0.347938 -20.85938,-7.251953 -1.42222,-2.36676 4.20565,-13.095805 14.98047,-13.224609 0.49716,-0.03373 0.98228,-0.06903 1.44141,-0.07422 z m -90.73242,14.785156 c -1.08242,0.60247 -2.2461,1.183808 -3.50586,1.742188 16.00767,28.976513 42.6082,56.233803 75.33203,67.423833 -29.93201,-18.27754 -51.69093,-42.0025 -71.82617,-69.166021 z M 108.38672,129.2168 c -0.95464,-0.016 -1.91589,7.7e-4 -2.88086,0.0527 -2.57322,0.13865 -5.17052,0.51994 -7.72461,1.14844 -10.21634,2.51401 -19.667741,8.90796 -24.3125,19.25391 -4.442928,9.89638 -4.565091,23.54608 3.571122,41.24524 4.865209,7.92599 10.302752,16.05846 14.176925,22.80944 0.633863,1.11188 2.621492,1.91625 5.183594,2.68946 2.635068,0.79522 6.054259,1.41059 10.041019,1.85351 7.97351,0.8858 18.22169,1.09163 29.27343,0.88281 22.10347,-0.41763 47.43743,-2.4839 64.62305,-3.96484 3.59867,-0.31011 7.85277,0.17229 11.97852,0.35938 4.12575,0.18708 8.08959,0.0524 10.90234,-1.19532 1.8777,-0.83289 3.41775,-3.37042 3.90234,-6.21484 0.48458,-2.84442 -0.11192,-5.79427 -1.67187,-7.30664 -1.61479,-1.56592 -4.37979,-2.15233 -7.49024,-2.23633 -3.07843,-0.0832 -6.36508,0.29669 -9.01562,0.30469 -0.0139,10e-4 -0.0253,9e-4 -0.0391,0.002 -22.33652,1.67232 -39.22581,1.34528 -51.61133,-3.97461 -12.3932,-5.32317 -20.02538,-15.78442 -23.51172,-33.50195 -0.0512,-0.28134 0.0156,-0.38797 0.0234,-0.58203 3.5981,-12.72878 -0.31141,-21.30214 -7.60547,-26.39844 -4.78673,-3.34444 -11.12997,-5.11462 -17.8125,-5.22656 z m 271.2539,13.25 0.62305,0.3125 z m -24.30273,19.6289 0.62305,0.3125 z"
     id="path4236"
     inkscape:connector-curvature="0"
     sodipodi:nodetypes="scccccccccscsscsccccssssccsccsscsccccsccccccccccccccccccccccccccssccscccscsccscsscccsssscsccccscccscccccccc" />
</svg>
