<?xml version="1.0" encoding="utf-8"?>
<!-- Generator: Adobe Illustrator 24.0.1, SVG Export Plug-In . SVG Version: 6.00 Build 0)  -->
<svg version="1.1" id="Layer_1" xmlns="http://www.w3.org/2000/svg" xmlns:xlink="http://www.w3.org/1999/xlink" x="0px" y="0px"
	 viewBox="0 0 990 781.2" style="enable-background:new 0 0 990 781.2;" xml:space="preserve">
<style type="text/css">
	.st0{fill:#E4706A;}
	.st1{fill:#FEA360;}
	.st2{fill:#FFFFFF;}
	.st3{fill:#535358;}
	.st4{fill:#C4703B;}
</style>
<g>
	<path d="M197.4,734.5c-0.8,1.7-0.9,3.1-1.2,4.5c-0.6,3.6-2.9,6.4-5,9.1c-1.2,1.6-3.1,1.6-4.9,1.1c-5.4-1.5-10.2-4-14.1-8.2
		c-4-4.4-7.9-8.8-11-13.9c-0.8-1.3-1.9-2.4-3.2-3.1c-7.5-4.1-12.5-10.6-16.9-17.6c-0.4-0.7-0.8-1.4-1.1-2.1
		c-3-7.8-5.2-15.8-4.8-24.3c0.5-8.1,1.5-16.1,4.1-23.8c2-5.8,5-10.9,9.4-15.1c1.8-1.7,3.6-3.5,5.5-5c5.7-4.5,11.4-9.1,17.2-13.4
		c12.5-9.2,26.5-14.6,41.9-16.7c13.6-1.9,27.1-0.8,40.5,1.8c7.5,1.4,14.8,3.3,21.9,6c0.5,0.2,1,0.6,1.6,0.3c0.1-0.2,0.2-0.3,0.2-0.4
		c-0.9-4.8,1.3-8.2,5.2-10.6c2.2-1.3,4-2.9,5.3-5.1c1.4-2.4,1.4-2.5-0.4-4.6c-0.9-1.1-1.8-2.3-2.4-3.6c-1.8-3.6-2.2-7.3-0.6-11.1
		c0.9-2,1.2-4.1,1.1-6.3c-0.1-3.7-0.2-7.4,0.4-11c0.4-2.1,1-4,2.4-5.7c0.6-0.7,0.7-1.4,0.7-2.4c0-2.7-0.6-5.1-1.8-7.6
		c-2.1-4.4-2.5-9.2-2-14.1c0.4-4.1,1.1-8.2,2.4-12.2c0.6-1.9,0.4-2.1-1.2-3.4c-3.4-2.5-5.4-5.7-5-10c0.4-4.5,3.2-7.4,7.2-9.1
		c2.1-0.9,4.4-1.3,6.7-1.8c6.1-1.5,9.6-7.1,8.2-13.2c-0.4-1.9-1.1-3.7-1.6-5.5c-1.2-3.8-1.5-7.5,0.8-11.1c0.7-1,0.6-2.3,0.6-3.5
		c-0.1-3.8,0.9-7.4,2.4-10.9c1.7-3.8,4.3-6.9,8.2-8.7c1.6-0.7,1.6-0.8,0.7-2.2c-3.3-4.9-3-10.8,0.8-15.3c1.6-1.9,2.7-3.9,3.5-6.2
		c2.2-6.6,3.5-13.5,5.1-20.2c0.4-1.7,0.3-3.5,0.4-5.3c0.4-9.2,2.5-18,5.8-26.6c0.8-2,1.8-3.9,3-5.7c1-1.5,0.9-2.2-0.2-3.4
		c-1.3-1.3-2.7-1.6-4.1-0.7c-0.8,0.5-1.3,1.2-1.8,1.9c-2.4,3.1-5,6-8.1,8.5c-4.2,3.3-8.8,5.8-14.3,6.2c-4,0.3-8-0.3-11.9-1.1
		c-2.4-0.5-4.3-2-5.8-4c-4.2-5.8-7-12-6.9-19.3c0.1-3.5-0.2-7-0.2-10.5c-0.1-4.3-1.3-8.4-3.7-12c-3.5-5.3-5.2-11.1-5-17.4
		c0-1-0.1-2.1-0.1-3.1c0-4.5-1-8.6-3.5-12.5c-2.2-3.4-3.8-7-5.7-10.5c-1.1-2.1-2.5-3.9-4.3-5.4c-4.4-3.7-7.9-8.1-10.9-13
		c-6.2-10.2-10.6-21.1-12.3-33c-1.1-7.3-1-14.7,0-22c1.1-7.5,1.9-15.1,2.7-22.6c0.3-3.3,0.9-6.5,2-9.6c1.2-3.4,2.8-6.4,5.7-8.7
		c0.9-0.7,1.4-1.5,1.3-2.7c-0.5-3.7,0.9-6.8,2.9-9.6s2.4-5.8,1.8-9.1c-0.9-4.7-2.1-9.4-2.7-14.1c-0.4-2.7-0.1-5.4,0.7-8.1
		c2-6.6,8.5-9.4,14.7-6.5c1.6,0.7,3,1.8,4.4,3c1.8,1.6,3.7,3,5.7,4.3c1.4,1,2.9,1.2,4.6,0.8c4.2-1.2,8.3-2.5,12.3-4
		c1.1-0.4,1.9-1.2,2.6-2c1.6-1.9,3.3-3.7,5.1-5.4c3.8-3.6,8.4-5.5,13.5-6.1c1.7-0.2,3.3,0.1,5,0.3c1.8,0.3,2.3,0.1,3-1.6
		c1.6-3.4,3.6-6.4,6.6-8.7c1.3-1,1.4-2.5,1.5-3.9c0.3-3.5,0.7-7,1.5-10.4c0.6-2.5,1.5-4.9,2.9-7.1c3.5-5.5,8.8-7.6,15.1-5.9
		c2.1,0.6,4.1,1.4,6,2.3c3,1.4,6.2,2.2,9.4,2.7c2.2,0.3,2.6,0,3.5-2c2.4-5.5,6.4-9.7,11.5-12.8c4.4-2.7,9-4.9,13.9-6.3
		c2.3-0.7,3.8-1.9,4.6-4.1c0.7-1.9,1.6-3.7,2.6-5.4c3.4-5.5,8.9-7.8,15.2-6.5c4,0.9,7.8,2.4,11.3,4.5c3.1,1.9,6.5,3.5,9.8,5.1
		c4.6,2.2,9.4,2.4,14.2,0.8c2.1-0.7,4.2-1.5,6.5-1.8c2.3-0.4,4.6-0.4,6.9,0.1c0.7,0.1,1.4,0.3,2.1,0.4c3.9,0.7,4.1,0.5,4.5-3.4
		c0.8-7.4,6-13,13.6-14.6c5.5-1.2,10.5-0.3,15.1,3.3c3.8,3,7.3,6.2,10.7,9.6c2.3,2.4,5,4,8.5,3.7c1-0.1,1.9,0.3,2.8,0.6
		c4.3,1.9,8.9,2.5,13.5,2.8c5.6,0.4,11.2,0.9,16.6,2.4c2.1,0.6,4.2,1.1,6,2.4c1.2,0.9,2.3,0.4,3.4-0.1c4.4-2.3,8.9-4.3,13.5-6.2
		c6.1-2.7,12.6-4,19.2-5.2c1.5-0.3,3-0.3,4.5-0.2c4.3,0.3,8.6,0.5,12.9,1c2.5,0.3,4.9,0,7.4-0.6c1.5-0.4,3-0.7,4.5-0.9
		c4.9-0.8,9.1,1.5,11.1,6c0.9,2.1,1.3,4.3,1.4,6.5c0.1,1.8,0.2,3.5,0.2,5.3c0,1.4,0.6,2.5,2,2.9c5.3,1.8,9.6,5,13.5,9
		c0.9,0.9,1.9,1.7,2.9,2.5c4.1,3.1,7.7,6.7,10.9,10.7c4.1,5.1,9.4,8.4,15.8,9.8c2.3,0.5,4.6,0.5,6.9,0.1c2.9-0.5,5.8-1,8.7-1.5
		c1.7-0.3,3.5-0.5,5.3-0.2c4.1,0.6,6.8,3.5,6.8,7.6c0,2.1,0.4,3.9,1.6,5.7c1.3,2,1.7,4.3,1.8,6.6c0.1,2.4,0.4,2.7,2.7,2.6
		c4.9-0.1,9.5,1.1,13.9,3.1c3.6,1.6,7.1,3.3,10.4,5.5c5.7,3.9,9.2,9.2,10.2,16.1c0.4,2.9,0.1,5.8-1,8.5c-0.6,1.5-0.5,2.7,0.7,3.9
		c3.3,3.2,4.2,7.1,3.3,11.4c-0.5,2.2,0,4.1,1.3,5.8c2.7,3.4,4.5,7.3,5.6,11.6c2.2,8.6,4.6,17.1,6.8,25.7c2.3,8.8,2.2,17.7,0,26.6
		c-2.6,10.1-6.2,19.8-11.6,28.8c-3.1,5.2-7,9.8-11.7,13.5c-1.3,1-2.5,2.3-3.4,3.7c-1.6,2.4-3.2,4.8-4.9,7.1c-1.1,1.5-1.8,3.2-2.1,5
		c-0.3,1.7-0.7,3.5-1.3,5.1c-2.8,7.9-4.1,16.1-5.4,24.3c-1,6.3-1.4,12.5-0.6,18.9c0.4,3.2-0.1,6.4-1.5,9.4
		c-3,6.6-7.2,12.2-13.3,16.3c-3.8,2.5-7.8,4.3-12.4,4.6c-3.5,0.2-6.8-0.6-9.9-2.3c-4-2.3-7.7-5.1-10.6-8.8c-0.2-0.3-0.5-0.6-0.8-0.9
		c-0.6-0.7-1.1-0.5-1.4,0.3c-1.2,3.4-1.7,3.3,1.2,6c2.3,2.2,5.1,3.9,8,5.3c4.7,2.3,7.5,6.2,9.3,10.8c1.2,3,0.2,6-1.9,8
		c-4.8,4.6-5.8,10.5-6.8,16.5c-0.2,1.1-0.3,2.2-0.4,3.3c-0.4,4.3-0.2,8.5,1.6,12.5c0.7,1.5,1.2,3.1,1.8,4.7c1.3,3.3,3.2,6.3,5.9,8.6
		c1.9,1.6,3.4,3.6,4.6,5.8c0.8,1.4,1.7,2.4,3.3,3c1.7,0.6,3.1,1.7,4.5,2.8c5.3,4.3,9.4,9.5,12.3,15.7c3.1,6.5,3.5,13.2,1.3,20.1
		c-1.8,5.5-4.2,10.7-7.5,15.5c-2.3,3.4-2.9,7-3,10.9c0,1.2,0.6,1.9,1.6,2.5c2.5,1.6,5.1,2.9,7.9,4.1c5.3,2.2,9.6,5.6,13.3,10
		c3.2,3.8,4.8,8.2,5,13.2c0.2,6.4-1.2,12.4-4.2,18c-1.4,2.5-1.6,5.2-2.1,7.8c-0.1,0.8,0.3,1.4,0.9,1.8c4.1,3.4,5.6,8,5.8,13.2
		c0.1,2.2,0,4.3,0.1,6.5c0.1,9.1,5.7,14,11.8,16.4c2.2,0.8,4.4,1.4,6.4,2.6c0.8,0.5,1.7,0.4,2.6,0.3c16.3-1.4,32,1,47.2,6.9
		c9.8,3.8,18.6,9.2,27.2,15.1c10.2,7.1,7,3.9,14.8,14.4c3.2,4.2,6.1,8.6,8.7,13.2c1.2,2.2,2.3,4.4,3.4,6.6
		c2.8,5.5,3.5,11.3,2.4,17.5c-1.5,8.5-3.9,16.6-7,24.6c-0.9,2.3-2.4,4.4-3.8,6.4c-3.6,5.2-7.7,10-13.4,13.2
		c-2.1,1.2-3.7,2.7-4.9,4.8c-2.9,5.1-7,9.3-11,13.6c-3.7,4-8.4,6.3-13.6,7.6c-2.5,0.7-3.9-0.3-5.6-2.2c-3-3.6-4.3-7.7-4.9-12.2
		c-1.1-0.1-1.4,0.6-1.9,1.1c-1.8,1.7-3.6,3.4-5.4,5.1c-1,0.9-2.1,1.7-3.2,2.5c-3.5,2.2-7.1,1.4-9.2-2.2c-1.6-2.6-2.3-5.6-2.8-8.6
		c-0.3-1.9-0.4-3.8-0.2-5.7c0.2-1.6-0.5-2.7-1.8-3.6c-1.5-1-3-1.9-4.6-2.6c-4.1-1.7-6.8-4.7-8.1-8.9c-0.7-2.2-1.4-2.3-3-0.6
		c-1.8,1.8-2.9,4-3.6,6.4c-1.2,4.2-3.4,7.9-6.3,11.2c-1.2,1.3-2.5,2.4-3.9,3.6c-3.6,3.1-8.4,1.1-10.3-1.6c-1.6-2.3-2.7-4.9-3.2-7.7
		c-0.2-1.1-0.4-2.2-0.5-3.3c-0.1-1.9-1-3.2-2.7-4c-5.1-2.5-8.8-6.6-12.7-10.4c-1.3-1.2-2.4-2.6-3-4.3c-0.4-1-1-1.3-2-1.2
		c-0.5,0-1,0-1.4,0c-139.6,0-279.3,0-418.9,0c-0.6,0-1.3,0-1.9,0c-0.7,0-1.2,0.2-1.4,1c-0.9,2.2-2.5,3.9-4.2,5.5
		c-3.6,3.5-7.1,7.1-11.7,9.4c-1.7,0.8-2.5,2.2-2.7,4.2c-0.4,3.5-1.2,6.9-3.1,10c-1.1,1.7-2.4,3-4.3,3.6c-2.2,0.7-4.2,0.6-6.1-0.8
		c-5-3.7-8.4-8.5-10.3-14.3c-0.8-2.3-1.5-4.6-3.1-6.4c-0.4-0.4-0.7-0.9-1.2-1.2c-1.2-0.9-2-1.3-2.5,0.8c-1.2,4.6-4.2,7.6-8.6,9.4
		c-1.4,0.6-2.7,1.4-4,2.2c-1.6,1-2.2,2.3-2.1,4.2c0.4,4.2-0.5,8.3-2.1,12.2c-0.5,1.2-1.1,2.3-2,3.2c-2.2,2.2-4.9,2.6-7.7,1
		c-2.3-1.3-4.1-3-5.9-4.8C200.6,737.6,199.1,736.2,197.4,734.5z"/>
</g>
<g>
	<path class="st0" d="M559.4,567.7c-2.9-5.9-4.1-12.2-4.7-18.6c-0.4-4.5-1-9-1.8-13.4c-0.2-1-0.5-1.7-1.6-2
		c-2.8-0.8-4.8-2.6-5.6-5.8c-1.6,0.7-2.8,1.5-4.1,1.9c-1.4,0.4-2.8,0.6-4.2,0.7c-5.3,0.2-10.5-0.5-15.6-2.2c-2.5-0.8-5-1.8-7.5-2.7
		c-1-0.4-1.4-0.1-1.4,0.9c0.1,4.8-1.2,9.4-2.6,14c-1.3,4.4-2.1,9-2.2,13.6c-0.3,9-1.2,18-1.2,27.1c0,0.4,0,0.9-0.5,1
		s-0.7-0.3-0.9-0.7c-0.6-1.3-0.7-2.7-0.8-4.2c-0.2-2.9-0.4-5.8-0.6-8.8c-0.4-5.2-0.7-10.4-2-15.4c-1-4.2-2.9-8-4.4-12
		c-1.9-5-3.2-10-3.4-15.4c0-0.4,0-0.8-0.3-1.2c-15.6,7.3-15.9,6.8-29.7,6.8c-0.1,7-0.4,7.9-3.8,15c-0.3,0.7-0.7,1.4-1,2
		c-1,2.1-1.8,4.3-2.3,6.6c-1.9,8.2-2.8,16.5-2.2,24.9c0.7,9.6,4.6,17.7,11.3,24.5c1.9,2,4,3.9,5.9,5.8c2.6,2.6,5.7,4.7,9,6.3
		c5.7,2.7,11.6,4.7,17.9,5.6c7.7,1.1,15.3,2.7,23.1,3.6c8.2,1,15.3-1,22.1-5.5c8.3-5.6,13.8-13,16.2-22.7c1-4,1.5-8.1,1.9-12.1
		C563,579.1,562.1,573.3,559.4,567.7z"/>
</g>
<g>
	<path class="st1" d="M696.6,539.3c-0.3-0.2-0.6-0.4-1-0.6c-0.4-0.2-0.8-0.3-1.2-0.5c-0.6-0.2-1.3-0.2-1.9-0.2c-4.2,0.4-7.9,5-7.1,9
		c0.5,2.2,0.7,4.4,0.9,6.6c0.2,2.1,0.4,4.1,0.4,6.2c0,1.1,0.4,2.1,0.8,3.1c0.4,0.8,0.7,2,1.8,1.7c0.9-0.3,0.4-1.4,0.2-2.2
		c-0.6-2.3-0.5-4.7,1.2-6.4c2.6-2.6,4.6-5.7,7.1-8.3c0.2-0.3,0.5-0.5,0.7-0.8c0.6-0.8,0.9-1.7,0.9-2.8
		C699.4,542.3,698.3,540.5,696.6,539.3z"/>
	<path class="st1" d="M527,301.8c-0.5-1.4-1.5-2.4-2.8-3.1c-2.7-1.5-5.6-2.2-8.6-2.3c-1.9-0.1-3.8,0-5.6,0.5c-0.4-0.8,0-1.3,0.3-1.8
		c1.3-2.6,2.9-5.1,4.5-7.5c2.2-3.2,2.3-6.5,0.4-9.9c-1.1-1.9-0.5-4.5,1.3-5.6c2.4-1.5,2.8-3.9,1-6.1c-1.2-1.4-2.7-2.2-4.4-2.7
		c-1.4-0.4-2.9-0.3-4.5-0.8c0.8-1.9,1-3.8,0.5-5.7c-0.2-0.9,0-1.8,0.3-2.7c0.8-2.2,0.8-4.6,0.7-6.9c-0.2-4.3-3.5-7.5-7.8-7.5
		c-1.1,0-2.2,0-3.3,0c-4.1-0.1-7.3,3-7.6,7.1c-0.2,2.6,0.7,4.8,2.7,6.4c1.2,1,1.9,2,2,3.7c0.1,2.3,1.1,4.5,2.6,6.4
		c0.3,0.4,0.8,0.7,0.4,1.3c-0.5,0.3-1.1,0.2-1.7,0.2c-3.4,0.1-6.4,1.2-9.1,3.1c-2.6,1.8-3.2,5.5-1.4,8c1.2,1.5,2.8,2,4.6,2
		c2,0,3.9,0.1,5.6,1.2c-0.3,0.8-0.8,1.1-1.4,1.2c-3,0.8-5.8,2.1-8.4,3.8c-1.3,0.9-2.8,1-4.3,0.6c-2.6-0.7-5.2-1.3-7.7-2.1
		c-2.1-0.6-4.3-0.9-6.4-0.7c-4.9,0.4-8,3.5-7.6,8.4c0.3,4.1,2.7,7,6.4,8.5c2.2,0.9,4.3,1.9,6.3,3c1,0.5,2.1,1,2.9,2.4
		c-2.5,0.6-4.6,1.9-7.1,1.8c-1.4-0.1-2.8-0.1-4.2,0.3c-6.5,1.6-11.1,5.6-14.5,11.1c-1.1,1.9-2.5,2.5-4.4,2.6c-1.2,0-2.3,0-3.5-0.3
		c-2-0.5-3.8,0-5.5,1.1c-1.9,1.2-2.1,2.4-0.9,4.2c1,1.5,2,2.9,2.7,4.5c3.7,9.1,4.1,18.5,1.8,28c-0.3,1.4-0.7,2.9-1.1,4.2
		c0.5,0.3,0.8,0.1,1.1-0.1c3.6-2.3,6-5.5,7.5-9.4c1-2.7,1.4-5.5,2.3-8.2c3.3-10,9.6-17.6,18.6-23.1c2.9-1.8,6-2.8,9.5-2.4
		c0.6,0.1,1.4,0.2,1.7-0.1c1.4-1.3,2.4-0.3,3.5,0.4c1,0.6,2,1.2,2.9,1.9c2.8,2.1,5,4.9,7.2,7.6c1.4,1.7,2.3,3.6,2.6,5.9
		c0.2,1.9,0.6,3.8,0.8,5.7c0.1,1.2,0.7,1.4,1.7,0.9c1-0.4,1.9-1,2.7-1.8c3.9-3.5,8.3-6.5,13.1-8.7c2.1-1,4.4-1.5,6.6-2.2
		c1.4-0.4,2.4-1.2,2.5-2.7c0.2-1.6-0.7-2.6-1.9-3.3c-1.7-1-3.4-1.7-5.4-1.6c-1.7,0.1-3.5-0.2-5.2,0.4c-0.3,0.1-0.7,0.1-0.9-0.3
		c-0.2-0.3-0.1-0.7,0.1-0.9c0.6-0.7,1.2-1.4,1.7-2.1c1.9-2.6,4.3-4.7,7.5-5.5c1.2-0.3,2.4-0.9,3.5-1.3c2.5-1,3.3-3.4,4.4-5.5
		c0.7-1.3-0.9-1.8-1.2-2.8C527.1,302.2,527.1,302,527,301.8z"/>
	<path class="st1" d="M397.8,430.2c2.1-1.8,1.4-5.8-0.9-6.8c-1.2-0.5-2.4-1.2-3.7-1.5c-1.8-0.4-2.1-1-1.2-2.7c1.1-2.1,2.3-4.1,3.6-6
		c3.9-5.6,9.3-8.5,16.1-8.8c1.8-0.1,3.5,0.1,5.3-0.2c3.2-0.5,6.3-0.7,9.4,0.2c1.8,0.5,3.7,0.6,5.5,0.4c3.8-0.4,6.7-2.2,8.1-5.9
		c1.2-3.4,0.2-6.5-2.3-9c-3.9-3.8-8.7-4.8-13.9-4c-5.1,0.8-9.9,2.4-14.5,4.5c-4.3,2-8.7,4-12.4,7.1c-2.6,2.2-5.2,4.5-8.2,6.1
		c-2.6,1.4-4.9,3.2-7.2,4.9c-0.8,0.6-1.6,1.1-2.9,2.1c0-1.4,0.1-2.2,0-2.9c-0.2-1.7-1.9-2.9-3.5-2.4c-3.8,1.4-7.1,3.5-8.5,7.6
		c-0.6,1.7-1.3,3.2-2.1,4.8c-0.5,1.1-1.1,2.3-1.4,3.5c-1.2,5.1-1.9,10.3-1.6,15.6c0.2,3,1.5,5.5,4,7.2c3,2.1,7,1.3,8.3-1.8
		c0.5-1.3,1.6-1.9,2.8-2.3c2.4-0.8,4.7-1.8,6.9-3.1c2.8-1.7,5.8-2.9,8.9-4C394.2,432.3,396.1,431.6,397.8,430.2z M377.4,411.8
		c0-0.1-0.1-0.1-0.1-0.2c0,0,0.1-0.1,0.2-0.1s0.1,0.1,0.2,0.1C377.5,411.7,377.5,411.8,377.4,411.8z"/>
	<path class="st1" d="M617.3,466.7c-2.7-3.8-6.3-6.7-9.5-10c-0.7-0.7-1.6-1.2-2.5-1.7c-0.9-0.6-1.9-0.6-2.8,0.2
		c-0.9,0.8-1.3,1.7-1,2.9c0.2,0.6,0.5,1.1,0.7,1.6c1.1,2.2,2.1,4.6,3.4,6.7c2.2,3.8,2.2,8,2.7,12.1c0.2,1.2-0.4,2.3-1,3.3
		c-0.5,0.9-1.2,1.1-2.1,0.5c-1.3-0.9-2.5-1.9-3.9-2.7c-2.1-1.2-4.2-2.5-6.7-2.4c-2.4,0.1-3.6,1.4-3.2,3.7c0,0.2,0.2,0.5,0.2,0.7
		c0.2,1-0.2,1.2-1.1,1c-0.4-0.1-0.8-0.3-1.2-0.5c-4.7-1.7-9-4.7-14.4-4.7c-1,0-1.9-0.5-2.9-0.6c-1.8-0.2-3.7-0.2-5.4,0.6
		c-2.4,1.1-2.8,4.3-0.9,6.1c0.4,0.3,0.8,0.6,1.2,0.8c3,1.9,5.6,4.2,7.3,7.4c0.5,1,1,1.9,1.5,2.9c2,3.5,4.6,6.6,8.4,8.3
		c3.7,1.6,7.4-0.4,8-4.4c0.1-0.4,0-0.8,0.1-1.2c0.1-0.4,0.5-0.9,0.8-0.8c1.8,0.6,4,0.3,5.4,2.2c2.3,3,5.4,3.3,8.1,0.6
		c0.8-0.8,1.6-1.7,2.3-2.7c0.8-1.1,1.9-2,3.4-1.4c0.6,0.2,1.1-0.1,1.7-0.1c2-0.2,3.2-1.8,4.8-2.5c3.8-1.7,5.4-4.7,5.5-8.7
		c-0.1-1.1-0.1-2.2-0.4-3.2C622.8,475.4,620.3,471,617.3,466.7z"/>
	<path class="st1" d="M423,454.3c3.3-1.2,4.2-4.8,2.1-8c-1.7-2.8-2.3-5.7-2-8.5c0-1.4,0-2.5,0-3.6c-0.1-2.9-2.1-4.7-5-4.7
		c-1,0-2,0.6-2.9,0.5c-4.1-0.2-6.9,3.2-7,7.5c0,1.4-0.5,2.4-1.3,3.4s-1.6,2-2.6,2.7c-3.6,2.6-7,5.4-9.8,8.8
		c-0.6,0.7-1.4,1.2-2.2,1.6c-1.7,0.8-3.2,1.9-4.6,2.9c-0.7,0.5-2.1,1.2-1.2,2.3c0.7,0.9,1.4-0.3,2.1-0.6c1.6-0.7,3.1-2.1,4.9-1.4
		c1.8,0.6,3.3,0.2,4.8-0.4c2.2-0.8,4.4-1.6,6.4-2.8c1-0.6,2.2-0.8,3.3-1.2c1.4-0.4,1.8,0.6,2.4,1.4c0.5,0.8-0.3,1.2-0.7,1.6
		c-4,3.6-6.3,8.2-8.1,13.1c-1,2.5-2.2,4.8-4.4,6.6c-1,0.8-1.9,1.9-2.6,3.1c-2.2,4-4,8.1-3.2,12.8c0.1,0.3,0,0.7,0,1
		c-0.5,2.2-0.2,4.3,1.2,5.9c1.3,1.6,2.5,3.3,4.2,4.6c0.8,0.6,1.9,0.7,2.4-0.3c0.7-1.5,2-2.4,3.1-3.5c1-1,1.3-2.3,1.4-3.6
		c0.1-0.9,0.1-1.8,0-2.8c-0.1-1.3,0.4-2.3,1.5-2.9c0.5-0.3,1-0.7,1.4-1c2.5-1.8,3.6-4.5,2.8-7.4c-0.2-0.7-0.2-1.5-0.3-2.2
		c-0.1-4.4,0.9-8.5,2.8-12.3C414.4,461.6,416.9,456.5,423,454.3z"/>
	<path class="st1" d="M533.2,173.8c0.3-3.1,0.4-6.4,2.4-9.1c1.5-2.1,2.3-4.4,2.2-7c0-0.7,0.1-1.3,0.2-2c0.4-1.6,0-2.4-1.5-3
		c-1.2-0.5-2.2-1.1-3.3-1.7c-0.9-0.5-1.8-0.7-2.9-0.8c-3.2-0.3-5.7,1.1-7.9,3.1c-3.7,3.2-6,7.4-7.2,12.1c-0.6,2.6-2.2,4.5-4.1,6.1
		c-1.5,1.2-2,1-2.5-0.8c-0.3-1.1-0.8-2.2-1.5-3.2c-1.2-1.8-3-2.8-5.1-2.5c-3.2,0.4-5.5,3.2-5.4,6.5c0,0.2,0,0.3,0,0.5
		c1.1,4.6,2.4,9.1,4.7,13.2c1.7,3.1,4.3,3.7,7.7,2.1c0.5-0.2,1-0.6,1.4-1c1.8-1.8,4.1-2.9,6.4-3.9c2.2-1,4.2-0.7,5.8,1.3
		c3.1,3.8,7.5,2,8.8-1.8C532.3,179.2,533,176.6,533.2,173.8z"/>
	<path class="st1" d="M584.5,391.4c0.7,0,1.4,0,2.2,0.5c3.4,2,7.2,2.5,10.9,3.5c0.5,0.1,1.2,0.1,1.8,0c3.1-0.2,4.8-2.2,4.7-5.3
		c-0.1-2.2-1.1-3.8-2.8-5.1c-2.4-1.7-4.8-3.4-7.2-5c-6.2-4.3-13.1-6.4-20.6-6.7c-4-0.3-7.6,0.9-11.1,2.6c-4.9,2.4-8.7,6.2-12.3,10.2
		c-1.2,1.3-2,2.9-2.4,4.6c-0.1,0.6-0.3,1.1-0.2,1.7c0.8,4.6,5.4,7,9.2,4.5c0.7-0.5,1.4-1,2.3-0.9c1.5,0.1,2.8-0.6,4-1.3
		c4-2.4,8.3-3.3,12.9-3.3C578.6,391.4,581.5,391.3,584.5,391.4z"/>
	<path class="st1" d="M543.7,100.4c0.7,3.4,2.3,6.4,3.7,9.6c1.6,3.7,7.8,5.4,10.9,1.5c1-1.3,1.7-2.7,2.3-4.1
		c2.8-6.4,5.7-12.8,9.2-18.9c1.3-2.3,2.8-4.6,3.6-7.1c0.7-2,0.6-3.8-0.9-5.3c-1.5-1.6-3.5-1.4-5.1-0.7c-3.8,1.7-7.8,2.6-11.6,4.1
		c-1.6,0.7-2.8,0.5-4.3-0.6c-3.4-2.6-7.5-1.7-9.7,1.9c-0.4,0.7-0.9,1.1-1.5,1.6c-1.8,1.3-2.7,3.1-2.7,6c0.2,2.7,1.1,5.7,3.5,8
		C542.3,97.4,543.3,98.7,543.7,100.4z"/>
	<path class="st1" d="M436.5,150.9c3.6,0.9,7,2.3,10.5,3.4c1.7,0.5,3.3,1.1,4.6,2.5c0.7,0.7,1.7,1.2,2.6,1.4
		c1.6,0.4,2.5,1.3,3.3,2.8c1,2.1,2.6,3.7,5.3,3.4c1.2,0.1,2.3-0.1,3.3-0.8c3-2,4.4-5.9,3.3-9.4c-0.8-2.6-2.4-4.4-4.7-5.6
		c-1.9-1-2.7-2.6-2.9-4.7c-0.3-4.7-2-8.8-4.8-12.4c-2.4-3.2-5.8-5.1-9.7-5.7c-4.2-0.6-7.8,2.3-7.7,6.6c0,1,0,2,0.3,3
		c0.4,1.7,0.3,1.8-1.5,1.9c-3,0.1-5.2,1.7-6.9,4c-1.5,2.1-2.1,4.4,0.2,7.1C433.1,149.8,434.8,150.5,436.5,150.9z"/>
	<path class="st1" d="M593.8,86.4c0.4,1.5,0.9,3.1,1.1,4.6c0.1,1.8,0.7,3.4,1.7,4.6c2,2.4,2.8,5.3,3.9,8c1.2,3.1,2.7,6.1,5.2,8.4
		c2.7,2.5,6.1,2.2,8.2-0.8c0.7-0.9,1.2-2,1.8-3c1-1.7,2.2-3.3,3.8-4.6c2.8-2.3,6.2-3.6,9.4-5.3c2.3-1.2,3.6-3.5,3.2-6
		c-0.3-2.1-2.4-4.1-4.9-4.4c-2.6-0.4-5.3-0.7-7.9-1.1c-3.6-0.5-7-1.6-10.1-3.5c-1.8-1.1-3.4-2.4-5.2-3.5c-1.9-1.2-2-1.2-1.3-3.4
		c0.3-1,0.4-1.8-0.4-2.5c-0.8-0.8-1.8-0.7-2.8-0.3c-0.3,0.1-0.6,0.3-0.9,0.5c-0.8,0.6-1.5,1.2-2.1,1.9c-0.4,0.4-0.7,0.9-1.1,1.3
		c-0.3,0.5-0.6,1-0.9,1.5c-0.7,1.4-1.1,3-1.1,4.8c0,0.7,0,1.4,0.2,2C593.6,85.9,593.7,86.2,593.8,86.4z"/>
	<path class="st1" d="M371.7,119.4c1.3-0.4,2.4-1.1,3.6-1.8c2.8-1.6,4.1-5.4,3-8.2c-0.9-2.2-2.7-3.3-4.9-3.9c-1.9-0.5-4-0.5-5.8-1.4
		c-1.6-0.7-3.3-1.2-5-1.7c-4.2-1.2-7.8,0.8-8.7,5.1c-0.2,1.1-0.6,1.5-1.7,1.6c-3.1,0.4-4.8,2.5-4.9,5.6c0,1.5,0.6,2.8,0.5,4.9
		c-0.4,1.8-0.3,4.3-1,6.7c-0.6,2.1-1.4,4.3-0.4,6.6c1.2,3,3.8,3.6,6.1,1.4c0.8-0.7,1.5-1.2,2.6-1.3c2.2-0.3,3.8-1.7,5.1-3.4
		c0.7-0.9,1.2-1.8,1.9-2.6C364.7,123.9,367.5,120.8,371.7,119.4z"/>
	<path class="st1" d="M623.1,277.7c-1.7,0.9-3.1,2.2-4.2,3.9c-1.4,2.3-2.9,4.5-4.4,6.7c-1.8,2.6-3.8,4.7-7.4,4.2
		c-1.6-0.2-3.1,0.6-4.5,1.4c-3.6,2-4.4,5.8-1.7,8.8c2.6,2.9,5,6,8.3,8.3c2.9,2.1,5.9,3.5,9.5,2.5c2.2-0.6,3.3-2.1,3.3-4.4
		c0-1.6-0.6-2.9-1.6-4.1c-1.2-1.5-1-1.6-0.1-3.3c1.2-2,3.2-2.8,5-4.1c4.3-3.2,6.6-7.4,7.3-11.9c0.1-2.8-0.7-4.7-1.9-6.4
		C629,277,625.6,276.3,623.1,277.7z"/>
	<path class="st1" d="M549.6,349.8c2.1,1.2,3.4,2.9,4.1,5.2c0.3,1,0.9,0.9,1.5,0.4c1.4-1.1,2.5-2.5,3.2-4.1c1.1-2.5,2.7-4.8,4.4-6.9
		c2.7-3.4,2.4-6.7-0.5-9.9c-1.1-1.1-2.3-2.1-3.2-3.5c-2.8-4.1-5.3-8.3-7.3-12.8c-1.5-3.5-6.1-5.3-9.4-3.2c-1.6,1-3.4,1.7-5.3,2.3
		c-1,0.3-2,0.8-2.9,1.4c-1.8,1.2-3.1,2.8-3.1,5.5c0,1.7,0,1.7,2.1,1.5s4.1,0.1,6,1.3c1.6,1,2.9,2.3,3.9,3.8
		c3.3,5.1,5.1,10.6,5.5,16.7C548.8,348.2,548.7,349.2,549.6,349.8z"/>
	<path class="st1" d="M447.3,489.7c-1.6-0.5-3.1-1.1-4.9-0.9c-1.6-0.3-3.1,0.1-4.7,0.5c-7.4,1.9-13.4,5.9-17.2,12.7
		c-1.4,2.5-2.9,5-5,7.2c-0.8,0.9-1.3,1.9-1.8,3c-0.8,1.8-0.6,3.1,0.7,4.3c1.3,1.2,3,1.3,4.6,0.2c1-0.7,1.8-1.4,2.8-2.2
		c5.7-4.5,11.9-7.9,19.2-9.2c3.3-0.6,6.4-1.8,8.9-4.3C453.4,497.5,451.5,490.9,447.3,489.7z"/>
	<path class="st1" d="M617.7,419.1c1,0.2,1.7,0.1,2.1-0.8c0.4-0.9-0.4-1.3-0.9-1.8c-0.8-0.8-1.9-1-2.9-1.4
		c-5.6-1.9-11.4-2.6-17.2-0.7c-4,1.3-8,2.3-12.1,3.1c-1.7,0.3-3.4,0.9-5,1.5c-3.4,1.3-4.6,7-1.6,9.5c1,0.8,1.9,1.6,3.2,1.9
		c4.2,0.9,8.2,2.3,12.3,3.4c0.9,0.3,1.8,0.3,2.7,0.2c3.4-0.6,6.5-1.9,8.9-4.7c1-1.2,1.5-2.5,1.5-4.1c0-1.4-0.8-2.5-1.6-3.9
		C610.4,419.3,613.9,418.5,617.7,419.1z"/>
	<path class="st1" d="M444.5,82.8c1.7-0.4,3.4-0.8,5.1-1.2c0.9-0.2,1.8-0.3,2.6,0.5c1.3,1.3,2.9,1.7,4.7,2.1
		c1.5,0.3,3.2,0.3,4.4,1.6c1.3,1.3,2.6,2.5,3.3,4.3c0.4,1,0.9,2,1.5,2.9c1.7,2.5,4.7,2.8,6.9,0.7c3.2-3.1,4.4-7,2.9-11.2
		c-1.8-5.2-5.4-8.5-10.9-9.6c-2.2-0.5-4.3-0.3-6.5-0.4c-5.5-0.7-10.4,1-14.9,4c-1.1,0.7-2,1.6-2.3,2.9
		C440.6,81.8,442.1,83.4,444.5,82.8z"/>
	<path class="st1" d="M404.3,157.2c1.3,1.1,2.9,0.8,3.6-0.7c0.5-1.1,1.3-2.1,1.8-3.3c1.2-3.2,3.4-4.8,6.9-5.1s7.3-4.3,5.8-9.1
		c-0.6-1.9-1.5-3.7-2.7-5.3c-2.2-3-5.1-4.7-9.3-4.7c-1.1-0.1-2.7,0.1-3.9,1c-4,2.9-5.3,7.3-5.2,11.9c0,2.1,0,4.1-0.5,6.1
		C400,151.9,401.5,154.8,404.3,157.2z"/>
	<path class="st1" d="M470.3,209.5c0.3-2-0.2-4-0.8-5.9c-0.9-2.4-3.2-4.1-5.5-4.1c-1.1-0.1-2.1,0.3-2.9,1.1
		c-0.8,0.7-1.3,1.5-1.9,2.3c-2.8,3.9-0.5,11.6,1.3,14.5c0.6,1,1.3,1.9,1.8,3c1.1,2.7,3,4.2,6.1,4.3c2.3,0.1,4.4,1,5.5,3.3
		c1,2,2.8,2.8,4.9,3.1c2.1,0.4,4.9-1.2,5.9-3.1c1-2,0.5-4.4-1.2-6.2c-1.8-1.9-4.1-3.2-6.5-4.1c-1.8-0.6-3.2-1.8-4.5-3.1
		C470.9,213.3,470,211.6,470.3,209.5z"/>
	<path class="st1" d="M391.4,300.3c1.1,2,2,4,1.1,6.4c-0.1,0.3,0,0.7,0,0.8c-0.2,2.2,0.4,3.8,2.4,4.6c1.9,0.8,3.8,0.5,5.3-1.1
		c2-2.2,4.2-4,6.7-5.6c2.6-1.6,3.8-3.9,3.7-6.9c0-1,0.2-1.6,1.1-2c1-0.4,1.6-1.1,2.3-1.9c0.7-0.8,0.8-1.7,0.4-2.6
		c-0.3-0.8-1-1.3-2-1.3c-1.4,0-2.9-0.2-4.2,0.1c-2.6,0.6-4.9,0.1-7.3-0.9c-1.3-0.5-2.6-1.1-4-1.5c-4.2-1.2-8.4,3-7.2,7.2
		C390.2,297.4,390.7,298.9,391.4,300.3z"/>
	<path class="st1" d="M493.6,80.9c-0.1,1.1,0.5,2.3,0.9,3.4c0.8,2.3,2.3,4,4.4,5.2c1.9,1.1,3.1,0.7,4.2-1.1c1.1-1.9,1.5-3.9,1.4-6
		c-0.1-2.8,0.2-5.5,1.3-8.1c0.8-1.9,0.9-4,0.2-6.1c-1.1-3.6-4.4-6.3-7.9-6.2c-5.7,0.3-10.3,6-6.7,12.6
		C492.5,76.5,493.8,78.3,493.6,80.9z"/>
	<path class="st1" d="M398.6,191.3c1.3-0.9,2.5-0.5,3.8-0.3c0.9,0.1,1.9,0.1,2.7-0.1c1.5-0.5,2.9-0.3,4.4,0.1
		c1.1,0.3,2.3,0.8,3.4,0.4c1.6-0.5,3.3-0.3,5-0.4c2.2-0.2,4.3,0.6,6.5,0.5c0.8,0,1.5-0.3,1.9-1c0.5-0.8,0-1.5-0.4-2.1
		c-1.1-1.5-2.7-2.4-4.5-3c-1-0.3-1.6-0.9-1.9-2c-1.2-4.5-4-6.5-8.6-6.5c-0.8,0-1.7,0-2.6,0.2c-5,0.9-8.3,4.1-11,8
		c-1,1.3-1.3,2.9-1.1,4.5C396.3,190.9,397.6,191.9,398.6,191.3z"/>
	<path class="st1" d="M554.7,216.9c-8.2,3.4-11.9,9-12.5,17.4c0,2.1,0,2.1,2,4s3,1.8,4.3-0.7c0.9-1.8,1.8-3.6,2.8-5.3
		c1.6-2.7,4.1-4.6,6.3-6.8c0.9-1,1.8-2,2.3-3.2c0.7-1.7,0.4-3.5-0.8-4.6C557.8,216.5,556.3,216.2,554.7,216.9z"/>
</g>
<g>
	<path class="st2" d="M397.1,233.7l-6.1,11l8.4,5.6C396.2,247.2,395.1,240.6,397.1,233.7z"/>
	<path class="st2" d="M427.4,250.2l8-8.5l-6.5-8.3C430.8,236.9,430.4,243.5,427.4,250.2z"/>
	<path class="st2" d="M571.8,231l-6.1,11l8.4,5.6C570.9,244.5,569.7,238,571.8,231z"/>
	<path class="st2" d="M610.2,239l-6.5-8.3c1.8,3.5,1.4,10.2-1.5,16.8L610.2,239z"/>
	<ellipse class="st2" cx="419.3" cy="233.6" rx="4.9" ry="5.4"/>
	<ellipse class="st2" cx="595.2" cy="231.3" rx="4.9" ry="5.4"/>
</g>
<g>
	<g>
		<path class="st3" d="M748.9,213.5c-0.7-11.6-1.6-23.2-6.7-34c-0.9-1.8-1.8-3.2-3.6-4.2c-3.5-2-4.6-4.8-3.5-8.7
			c0.1-0.4,0.3-0.8,0.4-1.2c0.9-3.8-0.9-8.1-4.2-10.1c-1.1-0.7-2.2-1.3-3-2.2c-1.9-2.1-1.6-3.1,1-3.9c0.8-0.2,1.6-0.3,2-1.3
			c1.1-2.9,0.8-3.7-1.6-5.6c-0.7-0.6-1.4-1.1-2.1-1.7c-2.3-1.9-4.9-3.2-7.7-4c-4.2-1.2-8.3-1.7-12.7-1.4c-3.9,0.3-7.3-0.9-9.8-4.1
			c-1.3-1.7-2.9-2.4-5-2.4c-1.4,0-2.8-0.2-4.2-0.7c-4.7-1.5-6.8-6.1-4.7-10.6c0.9-1.9,2.2-3.4,3.8-4.7c1.2-1,2.6-1.9,3.8-2.9
			c0.9-0.7,1.9-1.3,2.3-2.5c-0.2-0.1-0.4-0.2-0.5-0.2c-0.9,0.2-1.8,0.4-2.7,0.6c-10.4,2.5-19.9,0.7-28.7-5.3
			c-3.8-2.6-7.2-5.7-10.1-9.3c-1.2-1.5-2.5-2.8-3.8-4.1c0.3,2.8,0.9,5.5,2.1,8.2c1.8,4,4.6,7.3,7.1,10.9c2.2,3.2,4.9,5.6,8.6,7
			c1.8,0.6,2.1,1.4,1.8,3.3c-0.3,2.4-1.2,4.7-2.4,6.8c-1.4,2.5-2.2,5.3-2.4,8.1c-0.2,3.8-1,7.3-3.3,10.5c-2.6,3.7-1,7.7,3.2,9.3
			c1.6,0.6,3.4,0.9,5.1,1c2.8,0.3,5.4,1.3,7.6,3c2.1,1.6,4.1,3.4,5.9,5.4c1.5,1.6,2.8,3.3,3.5,5.4c1.7,5.2,2.7,10.5,3.4,16.1
			c-1-0.6-1.2-1.6-1.7-2.3c-1.9-2.5-5.4-2.9-7.5-0.7c-1.2,1.2-1.9,2.7-2.3,4.4c-0.8,3.7-0.5,7.3,0.3,10.9c1.4,6.6,4.2,12.5,8.3,17.8
			c1.4,1.8,2.5,3.7,3.7,5.7s1.7,4.2,1.1,6.5c-0.7,2.5-2.1,4.7-3.3,7c-0.4,0.8-1,0.8-1.6,0.2c-1.2-1.3-2.7-2.2-4.2-3.2
			c-2.4-1.6-4.5-3.5-5.1-6.5c-0.1-0.3-0.3-0.6-0.4-0.9c-1-2-2.7-3-4.8-3c-1.6,0-3.1,1.1-3.9,2.5c0.3,0.9,0.6,1.9,0.7,2.9
			c0.9,7.4,1.1,14.7-1.2,21.9c-1.5,4.8-2.9,9.6-4.7,14.3c-2.5,6.6-2.9,13.3-2.1,20.3c0.9,8.4,2.9,16.6,5.1,24.8
			c4.2,15.7,12.4,29.2,23.7,40.8c1.7,1.8,3.6,3.3,5.5,4.7c0.8,0.6,1.7,1.1,2.6,1.4c3.3,1,5.7-0.5,6.1-3.8c0.4-2.6,0.3-5.2,0.2-7.8
			c-0.3-11.4,1.1-22.5,3.6-33.6c3.4-15.2,10.4-28.3,21.6-39.2c1.7-1.6,3.3-3.3,4.9-5c2-2.1,3.8-4.5,5.3-7
			C745.6,243.8,749.9,229.3,748.9,213.5z M728.6,220.7c-0.5,3.5-1.3,4.3-4.8,4.8c-0.7,0.1-0.9,0.4-0.8,0.9c0,0.4,0,0.8,0.1,1.3
			c0.9,6.5,0.5,13-0.2,19.5c-0.2,2.1-0.4,4.2,0,6.3c0.2,1.4-0.2,2.6-1.3,3.6c-0.9,0.8-1.7,1.6-2.5,2.4c-3.3,3.5-6.9,6.6-11.4,8.4
			c-3.1,1.3-4.8,3.8-5.7,6.9c-0.8,2.8-1.3,5.7-1.3,8.7c0,1.8,0,3.5-0.1,5.3c-0.2,2.1-1.6,2.7-3.3,1.6c-1.6-1.1-2.8-2.6-3.8-4.3
			c-1.2-2.1-2.1-4.4-2.9-6.7c-0.2-0.5-0.2-1.2-1-1.6c-1.1,5.1-2.4,10.1-2.2,15.3c0,0.8,0.1,1.7,0.2,2.5c0.1,4.6,1.3,8.9,4,12.8
			c2.2,3.2,2.9,6.7,2.2,10.5c-0.6,3.1-2.6,4.3-5.5,3c-2.8-1.2-5.4-2.7-7.2-5.3c-5-7.3-8.6-15.1-10.3-23.8c-0.5-2.6-0.5-5.2,0.2-7.7
			c1.4-5.2,3.7-9.9,7.5-13.7c2-2,2.2-3.5,0.3-5.5c-1.8-1.9-2.9-4-3.6-6.5c-1.2-4.5-0.5-8.8,0.7-13.1c0.5-1.8,2.1-2.7,3.6-2.4
			s2.4,1.4,2.5,3.3c0.1,1.9,0.4,3.8,1,5.7c0.2,0.5,0.4,1.1,0.8,1.5c0.4,0.5,1,0.6,1.6,0.4c0.6-0.3,0.3-0.9,0.2-1.3
			c-0.8-4-0.6-7.8,1.3-11.5c1.5-2.7,3.2-3.5,6.2-2.6c1.7,0.5,3.2,1.4,5,2.4c1-4.6,1.9-9,1.6-13.6c-0.1-1.2-0.2-2.3-0.3-3.5
			c-0.2-2.1-0.6-4.1-2-5.8c-0.5-0.6-0.9-1.3-1-2c-0.4-2.5-2-4.4-3.5-6.3c-2.5-3.2-4.4-6.7-4.9-10.9c-0.2-1.7-0.3-3.3,0.2-5
			c0.9-3.2,2.9-5.2,6.3-5.7c0.4-0.1,0.8,0,1.3-0.5c-0.5-1.4-1.3-2.8-2.1-4.1c-1.8-2.8-2.3-5.8-1.6-8.9c0.4-1.8,0.1-3.5-0.5-5.2
			c-1.6-4.7-4-8.8-7.5-12.3c-1.3-1.3-2.5-2.7-3.7-4.1c-0.9-1.1-1.5-2.3-0.9-3.7c0.5-1.1-0.1-1.5-0.9-1.9c-1.6-0.8-3.3-1.1-5.1-1.1
			c-0.6,0-1.2,0.1-1.8,0.1c-0.9,0-1.7-0.2-2.1-1.1c-0.4-0.9-0.1-1.7,0.5-2.3c1.6-1.9,3.8-2.9,6.2-2.8c1.6,0.1,3.1,0.1,4.6-0.6
			c1-0.5,2.1-0.3,3.2-0.1c2.9,0.6,5.3,2.1,7.2,4.3c2.7,3,5.2,6.1,7,9.7c1.7,3.2,4.3,5.8,6.4,8.7c0.7,0.9,1.7,1.3,2.7,1.7
			c1.6,0.6,3.1,1.2,4.6,1.9c3.7,1.9,5.9,4.9,6.4,9c0.2,1.3,0.4,2.7,0.5,4c0.1,1.6-0.4,2.8-1.9,3.5c-1.4,0.6-2.8,0.3-3.9-0.8
			c-0.8-0.8-1.6-1.7-2.4-2.5c-1.6-1.4-2.4-1.7-4.7-1.4c1.9,3.8,2.7,8,5.8,11c1.5,1.4,3,2.6,5,3.2c6.9,2.4,10.7,7.4,11.6,14.6
			C729.1,211.9,729.2,216.3,728.6,220.7z"/>
		<path class="st3" d="M339.7,282.3c0.6-4.5,0.6-9-0.2-13.4c-0.2,0.1-0.3,0.2-0.5,0.3c-0.4,0.3-0.7,0.7-1.2,0.9
			c-1.9,1-2.5,0.8-3-1.3c-0.7-3.3-1.7-6.5-2.6-9.7c-1.3-4.5-3.3-8.7-6.2-12.5c-1.1-1.4-2.2-2.7-3-4.3c-1.1-2.3-2.6-4.5-4.3-6.5
			c-1.6-1.9-3-3.9-3.8-6.4c-0.1-0.4-0.2-0.8-0.3-1.3c0,0,0,0,0,0.1c-3.7,3.8-4.1,9.2-6.3,13.8c-1.3,2.6-1,5.7-0.3,8.6
			c0.5,2.1,1.5,4.1,2.3,6.4c1.1-2,1.4-3.8,1.8-5.7c0.2-0.9,0.4-1.8,0.7-2.7c0.6-1.5,1.7-2.5,3.4-2.6c1.7-0.1,2.9,0.9,3.5,2.4
			c0.8,1.9,1.2,3.8,1.5,5.8c0.8,5.4-0.1,10.7-0.7,16c-0.3,2.5-0.2,4.9,0.6,7.4c1.1,3.4,2.1,6.8,3.6,10.1c2,4.6,2.1,9.5,1.4,14.3
			c-0.7,4.9-2.2,9.6-4.4,14.1c-1.7,3.5-4,6.5-7.5,8.6c-1.6,0.9-3.1,2-4.7,2.9c-0.8,0.5-1.6,0.9-2.5,1.2c-1.5,0.6-2.6,0.3-3.1-0.6
			c-0.7-1.2,0-2.1,0.7-2.9c1.4-1.5,2.9-3.1,4.3-4.6c1.5-1.6,2.6-3.5,3.3-5.5c-0.1-0.2-0.2-0.5-0.3-0.5c-2.8-0.3-4.4-2.1-5.6-4.4
			c-2.1-3.9-2.2-8-1.5-12.2c0.4-2.1,0.9-4.3,1.2-6.4c0.2-1.1,0.1-2.3,0.2-3.4c-0.9-0.5-1.2,0.2-1.6,0.5c-1.1,0.8-2.2,1.5-3.5,2
			c-3.4,1.2-6.6-0.5-7.2-4.1c-0.6-3.7,0.2-7.2,2.1-10.4c1-1.6,1-2.9,0.4-4.6c-1.2-4-1.5-8.2-1.5-12.4c0-3.4,0.5-6.8,0.7-10.2
			c-0.7-0.6-1,0-1.4,0.3c-2.3,1.5-5,2-7.6,2.5c-2.3,0.4-3.5-1.3-2.6-3.4c0.6-1.4,1.5-2.8,2.4-4.1c1.5-2.2,1.5-4.7,1.5-7.3
			c0-0.9-0.5-1.5-1.1-2.1c-4.1-4.2-8-8.5-11.2-13.5c-0.6-1-1.3-1.9-2.4-2.6c-2.2,2-3.3,4.5-4.3,7c-0.5,1.3-1.2,2.1-2.6,2.3
			c-1.6,0.2-2.2-0.1-2.4-1.7c-0.3-1.7-0.1-3.4,0.1-5c0.5-3.3,1-6.6,1.6-9.9c0.6-3.2,0.6-6.5,1.3-9.7c1.6-6.9,3.5-13.8,5.7-20.5
			c1.4-4.3,3.8-8.2,6.6-11.8c2.7-3.5,6.3-5.7,10.6-6.6c5.3-1.1,10.6-2.3,15.5-5c1.4-0.8,2.8-1.5,3.9-2.8c-0.3-0.8-1-0.4-1.5-0.4
			c-1.7,0.1-3.3,0.4-5,0.2c-2-0.2-3.2-1.4-3.3-3.2c0-1.7,1.1-3,3.2-3.2c6.3-0.7,12.6-1.8,18.8-3.2c2.1-0.5,4.4-0.3,5.7,1.7
			c1.4,2.2,2.1,4.7,1,7.4c-0.5,1.3-1.4,2.5-2.4,3.5c-0.9,1.1-1.9,2.1-2.8,3.2c-3.1,3.7-4.9,7.9-5.2,12.8c-0.1,1.5-0.3,3-0.4,4.5
			c-0.1,1-0.3,2-0.7,2.9c-1.3,3-4.5,4-7.3,2.2c-1-0.6-1.7-1.6-2.6-2.3c-0.8,0.4-0.5,1.1-0.5,1.6c0,2,0.1,4,0.1,6
			c0,1.6,0.5,3.1,1.7,4.4c4.7,5,5.4,10.7,3.3,17c-1.1,3.4-2,6.9-1.7,10.6c0.1,0.6-0.1,1.2,0.4,1.7c0.6,0.3,1.1-0.2,1.7-0.2
			c0.9-0.1,1.7,0.1,2.3,0.5c-0.4-4.2-0.2-8.3,0.2-12.5c0.2-2.1,0.6-4.1,0.7-6.2c0.2-4.2-0.6-8.2-1.7-12.1c-0.4-1.5,0-2.2,1.3-2.7
			c1.7-0.7,3.2-1.7,4.6-3.1c3.7-3.7,6.3-8.1,7.4-13.2c1.5-6.8,3.4-13.4,7.4-19.3c1.4-2,2.4-4.2,3.2-6.5c0.6-1.8,1-3.6,0.8-5.6
			c-0.4-3.1-1.8-5.5-3.9-7.6c-1-1-1.5-2.1-1.4-3.6c0-0.3,0-0.6,0.1-0.9c-3.1,2.1-6.8,2.8-10.9,2c-1.7-0.3-3.3-0.6-4.8-1.3
			c-1.5-0.6-2.9-0.6-4.3,0.1c-2.2,1.1-4.6,1.5-7.1,1c-0.5-0.1-1-0.3-1.4,0.1c-1.8,1.5-3.9,2.5-5.3,4.5c-3.7,5.3-9.2,7.3-15.5,7.3
			c-2.7,0-5.2-1-7.4-2.7c-0.5-0.4-0.9-0.9-1.4-1c-2.4-0.4-4.6-1.1-6.9-2.1c0.4,2.7,1.6,6,2.9,7.3c1.4,1.5,1.9,3.2,2.5,5.1
			c1.7,5.3-2,9.1-6.7,8.1c-0.1,0-0.2,0-0.2,0c-0.9-0.2-1.4,0.1-1.7,1c-0.7,2.3-1.2,4.5-0.4,6.9c1.3,4.4,0.3,7.1-3.6,9.3
			c-2.2,1.2-3.5,2.9-4.4,5.2c-1.6,4.3-2.5,8.8-3.4,13.4c-1.8,9.6-2.8,19.2-2.2,29c0.1,2.4,0.4,4.8,1.1,7.2c0.2,0.7,0.4,1.3,1.2,1.8
			c2.3,1.2,2.5,1.6,1.9,4.2c-0.3,1.2-0.1,2.3,0.4,3.4c2.2,5.3,4.8,10.3,8.1,15c0.4,0.6,0.9,1.2,1.3,1.9s0.7,1.6,0,2.1
			c-1.8,1.3-0.6,2.2,0.2,3.2c2.6,3.2,5.6,6,8.4,8.9c8.8,9,15.2,19.5,18.6,31.7c3.7,13.4,6.1,26.9,5.4,40.9c-0.1,1.8,0,3.5,0,5.3
			c0,0.7,0.1,1.5,0.2,2.2c0.3,1.9,1.5,2.9,3.3,3.2c1.5,0.3,2.9,0,4.1-0.8s2.4-1.6,3.4-2.5c7.8-7,14.3-15.1,19.2-24.3
			C334.2,312.6,337.6,297.6,339.7,282.3z"/>
		<path class="st3" d="M684.9,603.5c0.3-1.3,0.1-2.3-1-3.1c-0.1,0-0.1-0.1-0.2-0.2c-3.2-2.7-3.1-4.5,0.4-6.7c-0.4-1-1.4-1.4-2.1-2.1
			c-2-1.8-2.8-4-2.1-6.6c0.7-2.4,2.4-3.7,4.7-4.2c-0.7-0.2-1.4-0.3-2.1-0.4c-0.8-0.1-1.4-0.3-1.6-1.2c-1.2-4.9-4.3-8.2-8.5-10.6
			c-0.5-0.3-1.1-0.5-0.8-1.3c1.1-3,1.5-6.1,3.3-8.9c6.8-10.3,10-21.8,10.4-34.1c0.1-3.7,0-7.5-0.3-11.3c-0.5-5.6-1.8-10.9-4.1-15.9
			c-0.6-1.3-0.6-2.4,0.1-3.5c0.9-1.5,2-2.9,2.7-4.5c1.4-3.1,3.7-4,6.9-3.8c1.5,0.1,2.7,0.8,3.9,1.5c1.7,1,3.4,2,5.2,2.8
			c-0.2-3.5-0.8-6.9-1.5-10.3c-0.3-1.2-0.8-2.2-1.9-2.8c-3.4-2.1-5.9-5.1-7.8-8.7c-0.5-0.9-1.2-1.6-2.2-1.9c-7-2.6-10.4-7.9-11-15.1
			c-0.3-4-1.1-7.7-2.8-11.3c-1.4-2.9-3.4-5.4-4.9-8.3c-0.4-0.8-1.2-1.5-1.9-1.9c-2-1.3-3.3-3.1-4.4-5c-0.4-0.7-0.7-1.7-1.7-2
			c-0.7,0.5-0.7,1.3-0.6,1.9c0.3,5-0.2,10.1,1.5,14.9c0.3,0.8,0.4,1.6,0.6,2.4c1,3.6,0.9,7.3,0.3,11c-0.2,1.3-0.6,2.5-1.9,3.3
			c-1,0.6-1.5,2-2.5,2.7c-0.4,0.3-0.3,0.7-0.1,1.1c0.4,0.8,0.7,1.5,1,2.3c1.5,4.1,2.1,8.3-0.2,12.1c-1.6,2.7-1,5.1-0.5,7.7
			c0.2,0.8,0.6,1.1,1.5,0.9c2.2-0.6,4.1-1.6,4.5-4.1c0.2-1.1,0.7-1.9,1.9-2.1c1.3-0.2,2.3,0.2,3.1,1.3c0.8,1.2,0.9,2.5,0.8,3.9
			c-0.1,1.1-0.3,2.2-0.6,3.2c-0.2,0.8,0,1.3,0.8,1.5c1.9,0.7,2.7,2.2,3,4c1,5.5,0.1,10.5-4.3,14.4c-0.9,0.8-1.2,1.5-1,2.6
			c0.4,2.8,0.1,5.6-1.1,8.1c-1.2,2.5-1.7,4.7,0.3,7c0.1,0.1,0.1,0.3,0.2,0.5c2.6,6.8,0.4,15.8-5.3,20.4c-1.3,1.1-1.7,2.1-1.7,3.8
			c0.1,5.8-2.6,9.9-7.6,12.5c-0.4,0.2-0.8,0.4-1.1,0.5c-1,0.3-1.5,1-1.4,2.1c0.2,2.6,0.3,5.2,0.4,7.8c0.1,2.1,1,3.6,2.7,4.8
			c4.2,3,6.3,7.3,6.9,12.3c0.2,1.6,0.6,3.1,1.1,4.6c2.1,6.3,2,12.5-1.7,18.3c-0.9,1.4-1.2,2.7-0.9,4.4c2,12.9-2.9,22.3-16.1,26.9
			c-2.8,1-4.7,2-6.1,4.8c-1.8,3.8-5.1,6.3-9.1,7.9c-2.4,1-2.3,0.7-2.2,3.5c0.2,3.1-0.6,6-2.3,8.6c-1.6,2.3-3.6,4.2-6,5.7
			c-3.3,2.1-6.9,3.4-10.6,4.4c-2.5,0.7-3.8,0.9-4.7,1.4h47.5c0.2-0.1,0.4-0.3,0.6-0.4c0.3-0.2,0.6-0.4,0.9-0.6
			c0.8-4.1,3.3-7,8.1-9.4h0.1c0.5-0.7,1-1.4,1.4-2.1c0.5-0.7,1-1.5,1.5-2.2c0.2-0.3,0.3-0.6,0.5-0.8c0.5-0.8,1.1-1.5,1.6-2.3
			c0-0.1,0.1-0.1,0.1-0.2c2.3-3.3,4.7-6.7,7.3-9.9c0.1-0.1,0.2-0.2,0.2-0.3c-0.5-2.3-1.3-4.5-2.7-6.6c-0.8-1.2-1.6-2.5-2.4-3.8
			c-2.4-3.7-1.3-7.7,2.6-9.7c1.4-0.7,2.8-1,4.3-1.1c0.2-1-0.6-1.4-1-2c-2.7-4.1-1.4-9.1,3.1-11.2c1.3-0.6,2.3-1.3,3.1-2.4
			c1.2-1.6,2.9-2.8,4.5-4C683.4,607,684.4,605.4,684.9,603.5z"/>
		<path class="st3" d="M602.9,652.7c1.4,1.8,1.6,1.7,3,0.1c0.9-0.9,1.4-2,1.8-3.2c0.6-1.9,0.8-3.7,0.7-5.7c-0.3-6.1,2.8-10,8.8-11.2
			c1.4-0.3,2.8-0.3,4.2-0.5c3.7-0.3,7-1.7,9.4-4.6c3.6-4.4,6.5-9.1,8.7-14.3c0.8-2,1.6-4.1,0.2-6.2c-0.3-0.4-0.2-1.1-0.1-1.7
			c0.1-1.4-0.1-2.8-0.5-4.2c-0.7-2.3-1.5-4.6-2.2-6.9c-1.6-5.1-5-8.8-9.2-11.9c-0.9-0.6-1.6-0.6-2.5,0c-1.2,0.9-2.6,1.6-4.1,1.9
			c-1.8,0.4-2.6,1.5-3,3.2c-0.7,2.9-1.8,5.6-3.7,7.9c-4.5,5.4-11.6,5.7-16.5,0.6c-0.8-0.8-1.4-1.7-1.7-2.7c0-0.1,0-0.2-0.1-0.3
			c-1.6,1.9-2.8,4-3.5,6.7c-1.1,4.5-3.8,8.3-6.3,12.1c-0.8,1.1-1.6,2.1-2.7,3c-0.7,0.5-1.3,1-2,1.6c2.2,1.8,2.9,4.3,2.1,7.4
			c-0.2,0.6-0.5,1.2-0.2,1.9c0.8,2.2,4,4.6,6.3,4.3c2.9-0.4,5.8,0.4,8.7-0.3c2.5-0.6,4.6,2,4.2,4.6c-0.2,1-0.6,1.9-1.2,2.7
			c-1.3,1.8-2.9,3.3-5,4.1c-0.6,0.2-1.5,0.4-1.3,1.3c0.3,1.5,0.6,2.9,0.6,4.5c0,0.6,0.5,0.8,1,1
			C599.4,648.9,601.2,650.6,602.9,652.7z"/>
		<path class="st3" d="M584.9,537.2c1.6-0.2,3.2-0.3,4.8-0.2c3.5,0.4,6.4,1.6,8.1,5.1c1.2,2.6,2.2,5.2,2.8,8
			c0.8,3.8,1.6,7.5,2.5,11.2c0.5,2,1.3,3.9,2.5,5.5c1.6-1.3,3.7-2.3,6.2-2.8c1.5-0.3,2.5-1,3.3-2.3c1.7-2.9,4.3-4.6,7.6-5.2
			c0.7-0.1,1.5-0.1,2.1-0.7c-0.2-1.2-0.9-2.1-1.4-3.2c-1.1-2.4-1.9-4.8-1.8-7.5c0.1-4.5,3.1-7.9,7.5-8.7c1.8-0.3,3.5-0.2,5.2,0.2
			c0.9,0.2,1.2,0,1.3-0.9c0.5-3.7,2.6-5.9,6.2-6.6c0.7-0.1,1.3-0.4,1.6-1c1.3-2.7,2.6-5.3,2-8.4c-0.6-3.4-0.4-6.8,0.3-10.2
			c0.4-1.7,0.1-3.3-0.2-5c-0.2-0.9-0.6-1.7-1.5-1.8c-0.8-0.2-1,0.7-1.4,1.2c-3.2,4.4-6.9,8.4-10.9,12.2c-5.1,4.9-11.3,7.7-18.2,9
			c-3,0.6-5.6-0.2-7.7-2.6c-0.2-0.2-0.5-0.4-0.8-0.7c-1.3,1-2.6,2-3.9,2.8c-1.1,0.7-1.4,1.3-0.6,2.6c1.5,2.3,1.6,4.9,1.3,7.5
			c-0.1,1.1-0.8,1.8-1.9,2c-1,0.1-1.8-0.3-2.3-1.2c-0.3-0.5-0.5-1-0.7-1.6c-0.6-1.9-2-2.8-3.9-3.2c-2.6-0.5-5,0-7.3,1
			c-0.9,0.4-1.5,1.1-1.8,2c-0.3,1.2-1,2.2-2,2.9c-0.1,0.1-0.3,0.2-0.4,0.3C582.8,537.2,583.9,537.3,584.9,537.2z"/>
		<path class="st3" d="M389.6,539.8c1.5,3.2,1.1,6.2-1.1,8.9c-0.4,0.5-1,0.9-1.2,1.8c2.1,1,1.9,2.7,1.4,4.7
			c-0.3,1.2-0.4,2.5-0.5,3.7c-0.1,1,0.5,1.5,1.5,1.4c2.2-0.2,4.5-0.4,6.5-1.2c0.2-2.1,0.4-4.1,0.9-6.2c0.9-4.2,2.3-8,6.4-10.5
			c2.3-1.4,3.8-3.5,4.4-5.9c-0.8-0.2-1.6-0.4-2.4-0.6c-5.3-1.1-10-3.4-13.8-7.2c-1.5-1.5-3.2-1.8-5.2-1.8c-0.4,3.3-0.1,6.3,1.3,9.2
			C388.4,537.4,389.1,538.6,389.6,539.8z"/>
		<path class="st3" d="M584.3,657.3c-3.5-0.4-5.8-2.3-7.4-5.3c-1.2-2.4-1.5-4.9-1.2-7.6c0.2-2.2,0.2-2.2-1.8-3
			c-4-1.5-6.7-4.6-7.6-8.4c-1.7,0.8-3,2.2-3.9,4.2c-0.6,1.3-1.1,2.6-1.6,4c-1.3,3.6-3.1,7-5.7,9.9c-5,5.4-11.3,8.5-18.6,9.4
			c-1.9,0.2-2.3,0-2.3-1.9c0-1.8-0.1-3.7-0.6-5.5c-0.5-2-1.3-3.8-3-5.1c-3.3-2.5-6.6-2.5-10-0.4c-1.2,0.8-2.5,1.5-3.8,1.8
			c-4.1,1-8.3,1.8-12.6,1.7c-2.6-0.1-4.9-0.9-6.9-2.6c-1.5-1.3-2.9-2.6-4.3-3.8c-2.7-2.3-5.8-3.3-9.3-2c-1.7,0.6-3.4,0.9-5.1,0.8
			c-0.8,0-1.7-0.1-2.5,0c-4.9,0.7-9.8,0.6-14.7-0.1c-2.7-0.4-5.6-0.6-8-2.1c-6.2-3.8-12.3-7.7-16.7-13.8c-1.2-1.7-2.6-3.3-4.2-4.8
			c-0.2,0.1-0.5,0.2-0.8,0.2c-2.1,0.1-4.1-0.5-6.1-1.3c-0.7-0.3-1.4-0.6-2.6-1.1c0.5,1.7,1.3,2.9,1,4.2c-1,4.4-2.5,8.6-6.5,11.2
			c-2.2,1.4-3,3.2-3,5.6c0,0.7-0.1,1.5-0.2,2.3s0,1.5,0.8,1.9c1.7,1,2.7,2.7,3.6,4.4c1.6,3,3.3,6,5.3,8.8c0.9,1.2,2,2,3.5,2.1
			c1.5,0,2.3-0.6,2.6-2.1c0.1-0.3,0-0.7,0.1-1c0.1-0.9,0.6-1.6,1.5-1.8s1.6,0.2,2.2,0.9c0.8,1.2,1.2,2.6,1,4.1
			c-0.3,3.7-2.4,6.1-5.7,7.2c-5.3,1.9-10.2,1.1-14.7-2.3c-2.5-1.9-4.4-4.3-5.8-7.1c-0.7-1.3-1.5-1.9-3-2.1c-5.6-0.6-10.4-3-14.4-7
			c-3.3-3.2-5.7-7-7.1-11.4c-0.4-1.3-1-2.1-2.3-2.7c-5.4-2.4-9-6.5-11-12c-0.2-0.5-0.3-1.1-0.6-1.7c-0.4-0.8-1.4-1-2-0.4
			c-0.3,0.4-0.5,0.9-0.7,1.3c-3.4,6.4-8.8,9.7-15.9,10.2c-6.8,0.5-9.3-5.6-7.2-9.7c0.5-0.9,0.3-1.5-0.5-2.1
			c-4.6-3.8-6.9-8.8-7.8-14.5c-0.5-3.5-0.8-7-0.4-10.5c0.2-1.5-0.1-2.6-1.3-3.5c-0.3-0.2-0.6-0.6-0.8-0.9c-0.7-1.2-1.6-1.7-2.9-2.1
			c-1.9-0.5-3.5-1.6-4.9-3c-2.5-2.5-2.5-5.7-0.2-8.3c1.5-1.6,3.3-2.9,5.5-3.4c2.8-0.6,4.6-2.2,6.1-4.5c0.8-1.2,1.6-2.4,2.5-3.4
			c1.6-1.7,1.6-3.5,0.6-5.5c-1.1-2.3-2.1-4.7-3.1-7.1c-0.5-1.1-0.5-2.1,0.3-3.1c0.9-1,2.1-1.2,3.2-0.7c2,1,4,1.7,6.4,1.3
			c1.3-0.2,2.5,0.7,3.7,1.5c2.7,1.9,4.8,4.4,6.2,7.4c3,6.4,3.9,12.9,1.3,19.7c-0.6,1.6-0.6,1.7,1.1,2.6c1.8,1,2.8,2.5,3.2,4.5
			c0.3,1.3,0.1,2.7,0.1,4c-0.1,4.3,0.6,8.4,3,12c1.6,2.4,3.4,2.6,5.6,0.6c3.8-3.6,8.2-4.7,13.2-2.9c1.2,0.4,1.8,0.4,2.2-1
			c0.3-1.3,0.8-2.6,1.4-3.7c0.6-1.2,0.3-1.7-0.8-2.3c-6.7-3.7-8.8-15.7-4.6-21.1c1.3-1.7,1.2-2.1-0.9-2.7c-4-1.3-6.5-4-7.7-7.9
			c-0.7-2.2-1-4.4-0.9-6.7c0-2.3,0-2.3-2.1-2.8c-5-1.2-8.3-4.3-9.5-9.3c-0.3-1.4-1-1.9-2.3-2.2c-3-0.7-5.9-2-8.4-3.8
			c-8.4-6-11.3-17.4-6.6-26.7c1.7-3.4,4.2-5.8,8.2-6.2c0.4,0,0.8-0.2,1.2-0.3c3.2-1.1,4.4-0.6,5.7,2.4c0.8,1.8,1.6,3.5,2.4,5.2
			c0.6,1.1,1.4,2.1,2.5,2.7c0.8,0.4,1.7,0.7,2.3,0c0.6-0.6-0.1-1.2-0.4-1.8c-1.4-3.1-1.9-6.2-1.2-9.5c0.2-1.1,0.1-2.1-0.5-3.1
			c-0.8-1.7-1.5-3.4-1.5-5.3c0-1.6-0.9-2.4-2.2-3c-0.8-0.3-1.6-0.5-2.4-0.7c-4.3-1-8.3-2.7-11.6-5.7c-0.3-0.3-0.6-0.6-1.1-0.4
			c-0.7,1.7-1.4,3.3-2.2,5c-0.3,0.7-0.8,0.9-1.3,0.3c-1.2-1.3-2.4-2.5-1.9-4.6c0.4-1.6-0.1-3.2-0.7-4.7c-0.4-1-0.8-2-1.3-3
			c-1.1-2.1-1.4-4.2-1-6.6c0.5-3.2,1.1-6.4,1.9-9.6c0.5-2.1,0.4-9.3-0.2-11.3c-0.8,0.6-1.1,1.4-1.6,2.2c-0.4,0.8-0.8,1.1-1.8,0.8
			c-0.8-0.2-1.6-0.3-2.4-0.3c-1,0.9-2,1.9-2.9,2.9c-3.6,3.9-6,8.4-7.5,13.4c-1.3,4.5-1.5,9-1.5,13.6c0,2.7,0.4,5.3,1.4,7.8
			c1.3,3.2,2.6,6.5,4.5,9.5c2.2,3.4,2.5,7,0.9,10.7c-1.8,4.2-4.2,8-6.9,11.6c-2.4,3.3-4.1,6.9-5.3,10.8c-1.9,6.3-2.6,12.7-2.7,19.3
			c-0.1,5.9,0.5,11.5,2.7,16.9c2.1,5,2,10.2-0.1,15.1c-3.1,7.2-3.7,14.9-3.9,22.6c-0.1,5,0.7,10,1.5,14.9c1.1,6.6,3.1,13,6.7,18.7
			c0.7,1.1,1.2,2.2,1.7,3.3c0,0.1,0.1,0.2,0.1,0.3c1.4-0.8,2.8-1.2,4.4-0.4c1.8,0.8,2.6,2.3,2.7,4.2c0,0.7,0,1.3,0,2
			c-0.1,1.4-0.2,2.7-0.3,4.1c0.8,1.2,1.7,2.3,2.5,3.5c0,0.1,0.1,0.1,0.1,0.2c0.6,0.7,1.1,1.5,1.6,2.3c0.2,0.3,0.3,0.6,0.5,0.8
			c0.5,0.7,1,1.5,1.5,2.2c0.6,0.8,1.2,1.7,1.7,2.5c0.8,0.8,1.6,1.6,2,2.7v0.1c0.6,0.8,1.1,1.6,1.7,2.3c0.2,0.3,0.4,0.6,0.6,0.8
			l0.1,0.1c0.5,0.5,1,0.9,1.5,1.4c0.9,0.8,1.8,1.5,2.8,2.2c0.2,0.1,0.4,0.3,0.6,0.4h32.5h17.3H504c-0.3-0.3-0.6-0.5-0.8-0.8
			c-0.5-0.7-1.2-0.8-2-0.8c-2.3,0-4.4-0.8-6.3-2.1c-2.4-1.5-4.6-3.3-6.5-5.5c-2.3-2.7-3.6-5.8-3.7-9.4c-0.1-2.1,0.6-3.4,2.1-3.8
			c1.4-0.4,2.6,0.2,3.5,2.1c1.3,2.9,3.5,4.9,6.3,6.2c1.6,0.8,3.1,1,4.9,0.6c1.5-0.4,3.1-0.5,4.7-0.3c2.8,0.3,5-1,6.7-3.1
			c0.5-0.6,0.8-1.3,1.3-1.8c1.4-1.7,3.2-2.4,5.4-1.8c2,0.6,3.1,2.1,3.5,4.2c0.2,1.4,0.1,2.7-0.3,4c-0.5,1.5-0.4,2.7,1.1,3.6
			c0.6,0.3,1,0.9,1.4,1.5c1.6,2.4,4,3.8,6.7,4.7c2.5,0.8,5.1,1.7,7.5,2.7h6.7c0.8-0.4,1.5-0.8,2.2-1.4c0.9-0.7,1.6-1.7,2.4-2.5
			c0.5-0.5,0.8-1,1.3-1.5c0.9-0.9,2-1.1,3.2-0.6c1.1,0.5,1.7,1.8,1.5,3.2c-0.1,0.7-0.4,1.5-0.6,2.2c-0.1,0.2-0.2,0.4-0.2,0.6h28.6
			c0.2-3.1,0.9-6.2,2.1-9.2c0.7-1.7,1.4-3.4,1.7-5.2C588.8,659.1,589.3,657.9,584.3,657.3z"/>
		<path class="st3" d="M449.4,456.9c0.2,0.7,0.7,1.2,1.2,1.5c1.7,1.2,3.7,2.2,5.8,2c4-0.4,7.8,0.2,11.7,1c1,0.2,2.1,0.5,3.2,0.1
			c0.2-1.6-0.5-2.5-2.1-3c-2.3-0.8-4-2.4-5.5-4.2c-1-1.2-1.4-2.7-1-4.2c1-4.3,4.2-6.6,8.7-6.3c0.9,0.1,1.6,0.2,2.4-0.4
			c3.3-2.7,11.3-0.8,14.4,3c5.8,7,1.7,18-4,21.1c-4.1,2.2-8.3,3.5-12.9,3.6c-4.1,0.1-8,1.2-12.2,1.4c2.6,2.8,6,4.2,9,6.2
			c3.1,2,6.2,4,9.3,6c3.1,2.1,6.1,4.4,9.6,5.8c3.4,1.3,5.7,4.5,9.1,6c0-2.2,0-4,0-5.8c0.1-5.3,0.8-10.5,1.6-15.7
			c0.9-6.2,2.1-12.4,2.2-18.7c0-0.6,0-1.2,0.2-1.7c0.3-0.9,0.2-2.4,1.5-2.2c1.1,0.2,0.6,1.6,0.6,2.4c-0.2,7.4,0.1,14.8,1.7,22
			c1.5,7,2.2,14.2,4.4,21.1c0.5,1.4,0.7,1.7,2.1,1.1c0.4-0.2,0.7-0.4,1.1-0.6c4.9-2.8,9.1-6.5,13.4-10c3.7-3,7.2-6.2,11.1-9.1
			c2.9-2.1,5.5-4.7,8.1-7.1c0.8-0.8,1.7-1.6,1.8-3c-5.3-0.4-10.6-1.1-15.7,0.9c-1.2,0.4-2.4,0.6-3.7,0.9c-3.1,0.6-6,0-8.6-1.7
			c-5.3-3.5-7.9-8.6-8.2-14.8c-0.2-4.5,2.3-7.7,6.6-9c1.1-0.3,2-0.8,3-1.3c2.8-1.3,5.7-1.9,8.7-0.7c0.7,0.3,1.2,0.2,1.9,0
			c3.5-1,6.2,0.4,7.5,3.9c1.8,4.8,0.3,10.2-3.8,13.2c-1,0.7-2.1,1.3-2.7,2.8c2.1,0.1,4.1,0.4,6.1,0.3c6-0.2,11.7-1.6,16.9-5
			c1.3-0.9,2.4-1.9,2.7-3.5c0.4-2.4,0.9-4.8,1.5-7.1c0.2-0.8,0.2-2-0.1-2.7c-0.6-1.2-0.3-2.3-0.3-3.4c0.2-4.9,0-9.8-1.6-14.6
			c-0.8,0.2-0.9,0.8-1.2,1.3c-2,3-4.8,4.8-8.3,5.5c-1.2,0.2-2.3,0.5-3.5,0.6c-6.6,0.9-13.2,1.2-19.3-2.3c-1.8-1-3.8-1.3-5.8-1.2
			c-0.4,0-0.8,0-1.3,0s-1.1,0-1.1-0.7c0-0.5,0.6-0.5,1-0.5s0.8,0,1.3,0c2.9,0,5.8,0.3,8.7,1c2,0.5,4,0.4,5.9-0.4
			c3.8-1.5,7.6-3,11.5-4.3c2.3-0.7,3.8-2.3,4.9-4.4c0.9-1.7,0.9-3.6,1-5.4c0.1-1.3-1.6-2.2-2.7-3.1c-3.7-2.9-7.6-5.5-11.5-8
			c-2.7-1.7-5.4-3.3-8.3-4.6c-3.8-1.7-7.8-3.4-12-3.2c-7.6,0.4-15.2,0.9-22.6,2.8c-15.1,3.9-29.3,9.8-43,17.1c-1,0.6-1.6,1.3-2,2.4
			c-1.2,3.7,0.1,7,3.5,8.9c0.9,0.5,2,1,3,1.3c3.5,1.4,7.2,2,11,2.1c1.4,0,2.8,0.2,4.3,0.3c1.3,0.1,2.6,0.1,3.9,0.2
			c-0.4,0.4-0.9,0.4-1.3,0.4c-6.5,0-12.9,0-19.1,2.3c-2.3,0.8-4.6,0.3-6.7-1.1c-0.6-0.4-1-1.1-1.9-1.1c-0.5,0.7-0.3,1.5-0.3,2.2
			C444.3,443.3,447.1,450,449.4,456.9z"/>
	</g>
</g>
<g>
	<path class="st4" d="M324.6,459.2c-5,3.9-7.9,9.2-9,15.2c-1.7,9.2,0.5,18,4.7,26.2c1.2,2.4,1.3,4.3,0.4,6.6c-0.4,1-0.9,2-1.6,2.8
		c-1.8,2.1-3.5,4.2-5.4,6.3c-2.8,3.2-5.3,6.7-6.8,10.8c-2.6,6.8-3.9,13.8-4,21.1c0,2.5,0.5,4.8,1.4,7.1c1.2,3.2,2.7,6.3,4.4,9.3
		c1.9,3.5,2.5,7.2,2.8,11.1c0.2,3.4-0.5,6.4-2.6,9.2c-1.5,1.9-2.9,3.9-4.1,6c-1.9,3.2-2.6,6.7-1.5,10.4c0.2,0.6,0.3,1.3,0.3,2
		c0.5,3.7,1.9,7.1,3.3,10.5c0.6,1.4,0.7,2.4,0.2,3.8c-1.2,3.4-1.6,7-1.4,10.6c0.1,0.9,0.1,1.8,0.2,2.7l1.4,1.2
		c0.6,0.5,1.2,1.1,1.8,1.6l0.9,0.8l0.4,0.4l0.4,0.4c1.1,1.1,2.3,2.2,3.4,3.4c0.6,0.6,1.1,1.1,1.7,1.7l1.6,1.8
		c0.3,0.3,0.5,0.6,0.8,0.9l0.8,0.9l1.6,1.8c0.2,0.2,0.3,0.4,0.5,0.6l0,0c0.2-0.1,0.3-0.2,0.5-0.4c0-0.1-0.1-0.2-0.1-0.3
		c-0.5-1.1-1-2.3-1.7-3.3c-3.7-5.7-5.6-12.1-6.7-18.7c-0.8-4.9-1.6-9.9-1.5-14.9c0.2-7.7,0.8-15.3,3.9-22.6c2.1-5,2.2-10.1,0.1-15.1
		c-2.2-5.4-2.8-11.1-2.7-16.9c0.1-6.6,0.8-13,2.7-19.3c1.2-3.9,2.9-7.5,5.3-10.8c2.6-3.7,5.1-7.4,6.9-11.6c1.6-3.8,1.3-7.3-0.9-10.7
		c-1.9-3-3.1-6.3-4.5-9.5c-1-2.5-1.4-5.1-1.4-7.8c0-4.6,0.2-9.2,1.5-13.6c1.5-5.1,4-9.6,7.5-13.4c0.9-1,1.9-2,2.9-2.9
		c-1.9,0.1-3.7,0.9-5.3,2.3C326.7,457.3,325.7,458.4,324.6,459.2z"/>
	<path class="st4" d="M640,451.1c0.2-3.3-1.2-6-3.4-8.4c-3.9-4.4-7.7-8.8-12.2-12.6c-0.6-0.5-1.3-1.1-1.7-1.8
		c-1.2-1.9-0.1-4,2.1-4.2c0.5,0,1,0.1,1.5,0.2c3.4,0.5,6.6,2,9.6,3.7c0.8,0.4,1.4,1.1,2.4,1.2c0.2-0.8-0.3-1.4-0.5-1.9
		c-2.3-4.7-5.3-8.9-8.7-12.8c-2.9-3.3-2.9-3.4-0.6-6.9c1.1-1.7,1.2-3.3,0.4-5.2c-1.1-2.6-2.4-5.2-3.7-7.7c-1.1-2.2-2.6-4.1-4.7-5.4
		c-2.5-1.7-4.7-3.7-6.8-6c-2.3-2.5-4.8-4.7-7.8-6.3c-5.3-2.8-10.7-5.4-16.2-8.1c-3.2-1.6-6.7-2.1-10.2-2.1c-6.1,0-12,1.2-17.9,2.5
		c-0.5,0.1-1.1,0.7-1.6,0c-0.4-0.6-0.1-1.3,0.2-1.9c0.7-1.2,1.8-1.7,3-2.2c1.3-0.6,2.8-0.7,4-1.5c3.3-2.5,7-3.9,11-4.6
		c2.4-0.4,4.8-0.7,7.3-1.1c-0.5-1.7-0.8-3.3-2.4-4.3c-0.6-0.4-0.9-1.1-0.7-1.8c0.6-2-0.7-2.7-2-3.5c-0.7-0.4-1.5-0.7-2.3-1
		c-5.1-2.5-6.4-7.8-2.9-12.4c0.9-1.2,2-2.2,3.3-3.1c0.7-0.4,1.2-0.9,1-1.8c-0.6-3.8-1.2-7.6-3.1-11c-0.6-1-1.2-1.5-2.3-1.7
		c-2.5-0.4-5-0.5-7.5-0.8c-5.1-0.6-7.2-5-4.5-9.3c1.8-2.9,4.2-5.2,7-7.1c0.5-0.4,1.3-0.5,1.6-1.5c-2.6-2.2-5.4-4.3-8.8-5.3
		c-1-0.3-1.9-0.2-2.9,0.2c-1.5,0.7-2.4-0.1-2.2-1.7c0.2-1.1,0.8-1.8,1.6-2.4c1.1-0.7,2.3-1.1,3.6-1.1c1.1,0,2.2,0.1,3.2,0.2
		c0.6,0.1,1.1,0,1.1-0.6c0.4-3,1.1-5.8,3.2-8.2c-1.4-0.8-2.7-1.2-3.5-2.1c-2.2-2.5-5.1-2.5-8-2.3c-0.3,0-0.7,0.1-1,0.1
		c-2.8-0.1-5.4-0.7-7.4-3c-1.6-1.7-2.5-3.7-3.2-5.9c-0.2-0.6-0.2-1.1-0.8-1.4c-3.8-1.7-7.6-3.5-12-2.5c-2.1,0.5-3.6-0.6-4-2.8
		c-0.1-0.6-0.1-1.2-0.1-1.7c-0.1-1.9-0.9-3-2.8-3.5c-1.8-0.5-3.2-1.4-4.1-3.1c-1.4-2.7-0.3-4.6,2.7-4.8c0.5,0,1.1,0.1,1.3-0.5
		c0.5-1.6,1.6-3,1.1-4.8c-0.4-1.6-0.5-3.1-0.4-4.7c0.1-1.1,0-2.1-1.1-2.9c-1.4-1.1-2-2.7-2.1-4.4c-0.3-5.6,1.5-10.2,6.5-13.2
		c0.7-0.4,1.3-0.7,1.4-1.6c0.4-3,2.1-5.2,4.3-7.1c1.3-1.1,1.4-3,0.3-4.4c-1.9-2.5-2-5,0.1-7.3c1.6-1.8,3.5-3.3,5.7-4.5
		c0.5-0.3,1.1-0.4,1.7-0.5c5.6-1.5,9.8,1.2,14.3,4.6c-4.2,0.8-7.5,2.4-9.2,6c-1.7,3.5-1.8,7,0.1,10.6c-1.2,0-2,0-2.9,0
		c-2.4,0.1-4.7,0.6-6.7,1.8c-1.6,0.9-2.4,2.3-2.2,4.2c0.2,1.7,1.6,3.1,3.5,3.5c0.4,0.1,0.8,0.1,1.2,0.2c1.1,0.2,1.4,0.8,1,1.8
		c-0.2,0.7-0.7,1.1-1.3,1.5c-4.3,3.2-6.4,7.8-7.5,12.9c-0.3,1.3-0.3,2.7-0.1,4c0.6,4.4,5.2,7.4,9.4,6.1c4.2-1.2,8.1,1.3,8.9,5.7
		c0.2,0.9,0.1,1.8,0.2,2.7c0.3,1.6,1.4,2.1,2.6,1c0.9-0.8,2-1,2.9-1.8c-1.2-1.8-1.9-3.7-2.4-5.6c-0.5-1.6-1-3.3-1.9-4.6
		c-0.8-1.2-0.8-2.1-0.3-3.2c1.1-2.4,1.9-4.8,2.8-7.3c0.5-1.3,0.9-2.8,1.9-3.8c3.9-4.2,6.5-9.7,12.1-12.3c1.8-0.8,3.2-2.4,4.9-3.5
		c2.1-1.5,4.2-3.1,6.8-3.7c6.3-1.2,12.7-2,19.2-1.3c2.7,0.3,5.2,1,7.1,3.3c0.5,0.6,1.1,1,1.7,1.5c3.4,2.5,5.7,5.8,7.4,9.7
		c1.4,3.1,2.7,6.3,4.1,9.5c0.3,0.6,0.4,1.2,1.2,1.5c2.7,0.9,3.8,3.1,4.4,5.7c0.1,0.6,0.1,1.3,0.6,1.6c1.9,1.2,3.3,3,5.3,4
		c0.3-0.5,0.1-0.9,0-1.3c-0.9-4.9,0.4-7.8,4.9-10c1-0.5,1-1.1,0.9-2c-0.4-3.2,0.8-5.7,3.3-7.7c1.3-1,2.7-2,4.2-2.7
		c0.9-0.5,1.7-1.1,2.2-2c0.8-1.7,1.4-3.6,1.8-5.5c0.2-1.1-0.1-1.8-1.1-2.2c-0.9-0.4-1.7-1-2.4-1.7c-1.3-1.4-1.9-3-1.6-4.8
		c0.2-1.3,1.1-2.2,2.2-1.9c2.6,0.8,4.2-0.1,5.1-2.5c0.1-0.1,0.2-0.3,0.3-0.4c1.1-0.9,1.1-1.9,0.6-3.1c-0.6-1.6-1.2-3.2-0.7-4.9
		c0.9-3.2,1.3-6.5,0.9-9.9c-0.2-1.9-0.8-3.1-2.3-4c-1.8-1.1-3.6-2.1-5.5-3c-4.5-2.2-7.2-5.9-8.3-10.7c-0.3-1.2-0.9-2-1.9-2.7
		c-5.6-3.9-7.2-7.8-5.4-15.6c0.4-1.9,0.1-3-1-4.2c-0.9-1-1.9-1.5-3.2-1.9c-1.8-0.6-3.7-1.1-5.5-1.9c-4.9-2-6.7-5.3-5.3-10.4
		c1-3.8,1.7-7.6,3-11.4c1.7-5,6.3-7.5,11.3-6c1.5,0.4,2.5,1.3,2.9,2.8c0.4,1.4-0.2,2.3-1.5,3.1c-0.9,0.5-0.8,1.3,0.2,1.9
		c0.9,0.5,1.8,1,2.4,1.8c0.6,0.9,1.4,1,2.4,1c6-0.1,10.6,2.8,14.7,6.7c2,1.9,3.5,4.2,1.4,7.1c-0.2,0.2-0.1,0.7-0.2,1
		c-0.4,1.4-1.3,1.7-2.4,0.7c-0.6-0.5-1-0.8-1.7-0.5c-2.3,1.2-4.8,1.8-7.4,2.3c0.5,1.4,1.2,2.3,2.1,3.1c1,1,1.8,2.2,2.5,3.4
		c1.4,2.3,2.2,4.9,3,7.4c1.7,5.6,3.6,11.2,8.1,15.3c0.9,0.8,1.6,1.8,1.8,3c0.4,2.2,1.4,4.1,2.3,6.1c0.9,2.1,1.7,4.2,2.2,6.4
		c0.4,1.6,0.7,3.3,0.3,5c-1.1,4.9-1.3,10-0.7,15c0.6,5.5,1.5,11.1,3.7,16.3c0.2,0.4,0.3,0.8,0.5,1.2c0.9-1.5,2.4-2.5,3.9-2.5
		c2.2,0,3.8,1,4.8,3c0.1,0.3,0.4,0.6,0.4,0.9c0.6,3.1,2.7,4.9,5.1,6.5c1.4,1,2.9,1.9,4.2,3.2c0.6,0.6,1.2,0.6,1.6-0.2
		c1.2-2.3,2.6-4.5,3.3-7c0.7-2.3,0.1-4.5-1.1-6.5c-1.1-1.9-2.3-3.9-3.7-5.7c-4.1-5.3-6.9-11.2-8.3-17.8c-0.8-3.6-1.1-7.3-0.3-10.9
		c0.4-1.7,1.1-3.2,2.3-4.4c2-2.2,5.5-1.8,7.5,0.7c0.5,0.7,0.7,1.7,1.7,2.3c-0.7-5.6-1.7-10.9-3.4-16.1c-0.7-2.1-2-3.8-3.5-5.4
		c-1.8-2-3.8-3.8-5.9-5.4c-2.2-1.7-4.8-2.7-7.6-3c-1.7-0.2-3.5-0.4-5.1-1c-4.2-1.6-5.8-5.6-3.2-9.3c2.3-3.3,3.1-6.7,3.3-10.5
		c0.1-2.8,0.9-5.6,2.4-8.1c1.2-2.1,2.1-4.4,2.4-6.8c0.3-1.9-0.1-2.7-1.8-3.3c-3.7-1.3-6.4-3.8-8.6-7c-2.4-3.6-5.3-6.9-7.1-10.9
		c-1.2-2.6-1.8-5.4-2.1-8.2c-2.7-2.5-5.7-4.5-9.3-5.8c-1.9-0.7-3.7-0.9-5.6,0.1c-0.7,0.4-1.6,0.5-2.4,0.7
		c-7.1,1.4-13.1-4.4-11.9-11.5c0.4-2.5,1.6-4.6,2.9-6.6c1.3-2,0.8-3.4-1.6-4c-1.2-0.3-2.5-0.2-3.7,0.1c-2.6,0.7-5.2,1.3-7.8,2
		c-5.2,1.4-10.2,1-15.1-1.6c-4.8-2.6-9.8-2.2-14.9-1.2c-0.5,0.1-1,0.3-1.3,0.7c-1.6,2.6-4.3,3.9-6.9,5.2c-3.3,1.7-6.8,2.4-10.3,0.5
		c-1.1-0.6-1.9-0.5-2.6,0.8c-1.1,1.9-3,2.2-4.3,0.5c-1.2-1.5-2.4-1.6-4-1.2c-0.8,0.2-1.7,0.2-2.5,0.3c-2.9,0.6-5.5-0.1-7.6-2.3
		c-1.2-1.3-2.5-1.5-4.1-1.2c-1.7,0.3-3.5,0.6-5.2,0.8c-5.6,0.6-10.4-0.9-14.3-5.1c-0.7-0.7-1.5-1.3-2.5-1.6
		c-3.8-0.9-7.1-2.9-10.1-5.3c-1.1-0.8-2.1-1.7-3.4-2.2c-2.7-1.1-5.4-2.2-8.1-3.4c-2.9-1.3-6.8-0.9-7.9,3.5c-0.6,2.4-0.7,4.8,0.2,7.1
		c0.9,2.1,1.5,4.2,3.2,5.9c1.2,1.2,0.5,3-1.1,3.5c-0.9,0.3-1.9,0.2-2.7-0.2c-3.2-1.6-6.8-2.6-9-5.7c-0.5-0.6-0.9-0.9-1.6-0.2
		c-2.5,2.3-5.6,3-8.8,3.1c-4.1,0.1-7.9,1.3-11.4,3.3c-1.7,1-3.5,2.1-5.2,3.1c-1.1,0.6-2.2,1.2-3.5,1.4c-1.6,0.3-3.2-0.1-4-1.5
		c-0.8-1.3-1.8-1.6-3.1-1.8c-4.1-0.6-7.7-2.1-11.1-4.3c-2.2-1.4-4.5-2.7-6.6-4.1c-1.5-1-2.9-1.4-4.7-0.6c-0.9,0.4-1.9,0.7-2.9,0.6
		c-1.5-0.1-2.3,0.3-2.5,1.9c-0.2,1.5-1.1,2.9-2.4,3.7c-4,2.4-8,5-12.7,5.7c-2.8,0.4-4.5,2-5.8,4.3c-0.7,1.2-1.1,2.6-1.3,4
		c-0.4,2.6-0.4,5.2-0.2,7.8c0.2,2.5-0.2,4.9-2.1,6.7c-3.2,3.1-7,4.9-11.6,4.3c-2.7-0.3-5.5-0.6-8.2-0.9c-2.4-0.3-4.7-1-6.8-2.3
		c-2.6-1.4-5.6-1.8-8.5-1.7c-2.7,0.1-3.6,2.5-2.1,4.6c2.7,3.6,2.4,7-1.1,9.9c-1.9,1.6-3.1,3.6-3.5,5.9c-0.9,4.4-3.2,8.1-5.9,11.5
		c-1.1,1.5-2.4,2.6-3.7,3.6c0,0.3,0,0.6-0.1,0.9c-0.1,1.5,0.3,2.5,1.4,3.6c2.1,2.1,3.5,4.6,3.9,7.6c0.3,2-0.2,3.8-0.8,5.6
		c-0.7,2.3-1.8,4.5-3.2,6.5c-4,5.9-5.9,12.4-7.4,19.3c-1.1,5.1-3.6,9.5-7.4,13.2c-1.3,1.3-2.9,2.3-4.6,3.1c-1.3,0.6-1.7,1.3-1.3,2.7
		c1.1,3.9,1.9,7.9,1.7,12.1c-0.1,2.1-0.5,4.1-0.7,6.2c-0.4,4.2-0.7,8.4-0.2,12.5c1.4,0.8,2.1,2.6,1.2,4.5c-0.1,0.2-0.2,0.4-0.3,0.6
		c0.1,0.4,0.2,0.8,0.3,1.3c0.8,2.5,2.2,4.5,3.8,6.4c1.7,2,3.1,4.1,4.3,6.5c0.8,1.6,1.9,2.9,3,4.3c2.9,3.8,4.9,7.9,6.2,12.5
		c0.9,3.2,1.9,6.4,2.6,9.7c0.5,2,1.1,2.3,3,1.3c0.4-0.2,0.8-0.6,1.2-0.9c0.2-0.1,0.3-0.2,0.5-0.3c-0.5-2.8-1.3-5.6-2.3-8.3
		c-1.4-3.5-2.3-7.2-3.6-10.7c-2.8-7.5-2.8-15.2-2.1-23c0.2-1.8,0.6-3.5,1.2-5.1c3-8.2,4.6-16.6,3.9-25.3c-0.1-1-0.1-2-0.2-3
		c-0.3-4.8,0.4-9.3,2.4-13.7c1.7-3.7,3.6-7.3,6.1-10.7c0.6-0.8,1.1-1.6,1.1-2.7c0.1-2,1.1-3.6,2.5-5c1-0.9,2-1.8,2.8-2.9
		c1.5-2.3,3.3-4.4,5.2-6.4c0.4-0.5,1-0.9,1-1.7c-0.4-0.3-0.8-0.6-1.2-0.9c-3.8-3-3.6-7.8,0.6-10.4c2.5-1.5,5.2-1.8,8-1.1
		c3.4,0.9,6.4,2.5,8.8,5.1c0.9,1,1.9,1.8,3.2,2.4c1.8,0.9,3.5,2.1,4.7,3.6c1.2,1.4,1.8,3,1.4,4.9c-0.4,2.1-2.2,2.8-3.7,1.4
		c-1.5-1.4-2.7-1.1-4.3-0.3c-2.6,1.3-4.2,3.5-6,5.6c-6.9,8.3-8,20.4-2.8,29.8c2,3.6,4.7,6.4,8.6,8.1c2.5,1.1,5,2.3,8,2.9
		c-1.3,1.5-2.7,1.8-4.1,2c-2.4,0.3-4.8,0.3-7.3,0c-1.2-0.2-2.5-0.5-3.5-1.3c-1.9-1.4-3.8-1.1-5.7-0.3c-1.5,0.7-3,1.6-4.4,2.4
		c-1.2,0.7-2.2,1.8-3,3c-3.7,6-5.6,12.5-6,19.5c-0.1,1.3,0.1,2.7,0.4,4c0.9,4,3.8,6.5,7.5,6.7c2.9,0.1,5.1-1.3,7-3.4
		c2.2-2.5,3.7-5.6,5.3-8.5c0.4-0.7,0.6-1.6,1.5-1.9c1.8-0.6,3.6-0.7,5.4-0.1c0.7,0.3,1.1,0.7,0.9,1.5c-0.8,2.4-1,5-2.5,7.1
		c-2.3,3.3-2.6,7.1-2.5,11c0.1,1.9,1.5,2.5,2.4,3.4c0.8,0.8,1.6-0.4,2.4-0.7c1-0.4,1.9-1.1,2.9-1.5c1.1-0.4,1.4-1.1,1.5-2.3
		c0.2-5,0.5-10,1-15c0.6-7.2,3.1-13.6,8.1-19.1c0.9-1,1.8-2,2.6-3.1c3.5-4.3,8.1-6.6,13.7-6.9c0.9-0.1,1.9,0.1,2.7-0.4
		c2.5-1.3,5.2-1.1,7.9-0.8c6.4,0.7,12.7,1.9,18.9,3.7c4.1,1.2,5,0.5,6.5-3.5c0.6-1.5,0.3-2.8-0.7-3.7c-1.4-1.2-2.4-2.6-3.3-4.1
		c-1.4-2.4-3-4.2-6.1-4.4c-2.2-0.2-3.7-1.8-4.1-4.2s0.6-4.3,2.6-5.6c0.7-0.5,1.5-0.8,2.2-1.2c0.5-0.3,0.8-0.6,0.4-1.2
		c-0.7-1-1-2.1-1.3-3.2c-0.7-2.1-2.7-3.1-4.8-2.5c-1.4,0.4-2.8,1-4,2c-0.7,0.6-1.5,1.1-2.3,1.6c-1,0.6-2.1,0.7-3-0.1
		s-0.9-1.8-0.6-2.8c0.9-2.4,1.8-4.9,3.1-7.1c1.2-2,3.1-3.3,5.2-4.1c2.2-0.8,4.4-0.8,6.7-0.3c3.3,0.7,6.1,2.3,8.4,4.7
		c2,2,3.2,4.5,3.2,7.4c0,0.9,0.6,1,1.3,1.2c1.9,0.6,1.9,0.6,1.7,2.6c-0.3,2.8-0.6,5.7-0.2,8.5c0.1,0.8-0.1,1.7,0.9,2.5
		c2.2-3.5,5.7-4.4,9.5-4.7c0.9-0.1,1.7-0.5,2.5-0.7c-0.3-1.1-1-1.5-1.6-2.1c-0.5-0.5-1.1-0.9-0.7-1.7c0.5-0.9,1.3-0.5,2-0.3
		c0.6,0.2,1.2,0.5,1.8,0.8c1.6,0.9,3,2.1,4.4,3.4c5.2,5,4.4,13.4-1.8,17.3c-1,0.6-1.9,1.3-2.6,2.3c-0.9,1.2-2,2.4-3.6,2.6
		c-1.7,0.3-2.6,1.3-3.6,2.5c-0.5,0.7-1.2,1.2-1.8,1.8c-1,1-1.6,2.1-1.9,3.5c-1,4.1-0.6,8,1.6,11.6c1.6,2.7,3.5,5.1,5.8,7.2
		c0.5,0.5,1,0.9,1.4,1.5c0.7,1.2-0.1,2.4-1.5,2.4c-0.4,0-0.9-0.1-1.2-0.3c-2.7-1.9-5.6-2-8.7-1.3c-1.9,0.4-2,0.2-2.7-1.6
		c-2.4-5.9-6.4-10.5-12.1-13.6c-1.6-0.9-3.2-1.8-4.6-3c-1.7-1.5-3.8-2.5-6-3c-4.3-0.9-8.5-0.1-12.6,0.9c-5.2,1.3-9.6,4.3-13.9,7.3
		c-3.9,2.6-5.7,6.4-6.1,11.2c1.1-0.7,1.4-1.7,1.8-2.5c1.9-4.1,4.8-7.4,8.8-9.7c2.8-1.7,5.9-2.4,9-3.1c5.1-1.1,9.7-0.1,13.8,2.8
		c4,2.8,7.8,5.8,9.9,10.4c0.2,0.5,0.6,1,1,1.4c3.3,3.2,5.7,7,7.6,11.1c0.7,1.6,1.7,2.4,3.5,2.6c1.3,0.1,2.4,0.2,3.6-0.2
		c1.3-0.4,2.6-0.5,3.9-0.6c0.9-0.1,1.6,0.3,2.2,1c0.7,0.8,1.3,1.6,1.9,2.4c1.5,2,3.2,3.8,5.3,5.3c1.4,1,2.7,1.6,4.2,0.2
		c0.3-0.3,0.8-0.3,1.1-0.5c2.1-0.8,2.5-1.5,1.8-3.6c-0.5-1.5-1-3-1.1-4.6c-0.2-2.1,0.1-4,1.4-5.7c1-1.3,2.1-1.4,3.2-0.4
		c1.7,1.6,3.5,3.1,5.1,4.8c0.8,0.9,1.1,1.7,1.2,2.9c0.3,4.6,1.2,9.1,4.3,12.8c1.2,1.4,0.9,2.4-0.6,3.5c-0.5,0.4-1.2,0.6-1.6,1.1
		c-2.6,3.1-3.8,3.4-7.6,2c-0.5-0.2-1.1-0.6-1.6,0c-1.4,1.8-3.3,2.7-5.3,3.6c0.7,1,1.4,1.9,1.9,2.8c0.9,1.7,0.7,3.4-0.5,4.4
		c-1.3,1.1-2.6,0.8-3.9,0.1c-2.8-1.4-5.6-2.9-8.3-5.1c-0.5,2.4-2,3.7-4,4c-3,0.4-5.9,0.9-8.9,1.4c-2.7,0.4-4.4-1.6-4-4.3
		c0-0.3,0.5-0.6-0.2-1.2c-0.1,1.7-0.7,3.1-1,4.5c-2.4,9.1-11.6,15.7-22,16c-0.5,0-1,0-1.5-0.1c-1.4-0.3-2.5-1.3-2.6-2.4
		c-0.1-1.6,1.1-1.8,2.2-2.2c3-1,5.5-2.7,7.5-5.9c-4,1.3-7.7,1.2-11.3,0.3c-3.7-0.9-7.4-1.3-11.1-1.8c-1.6-0.2-3.1-0.7-4.5-1.4
		c-2.2-1.1-3.4-3-4-5.2c-0.6-2.1,1-3.7,3.1-3.1c0.6,0.2,1.1,0.5,1.6,0.7c5.2,2.1,10.6,3.8,16.3,3.5c3.3-0.2,6.5-0.5,9.4-2.3
		c3.6-2.2,6.7-4.9,9.4-8.2c0.4-0.5,0.9-0.9,1-1.7c-1.1,0.4-1.7,1.1-2.4,1.7c-4.3,3.9-9.4,5.9-15.1,6.6c-9.3,1.2-16.9-1.2-22.1-9.4
		c-0.6-1-1.3-1.4-2.5-1c-1,0.3-2.1,0.6-3.2,0.6c-1.6,0-2.2,0.8-2.4,2.3c-0.5,2.3-0.2,4.7-0.2,7c0,3.1-0.7,5.9-2.5,8.5
		c-2,2.8-1.9,3.8,0.1,6.5c1.5,2.1,2.6,4.3,2.8,6.9c0.1,0.9,0.4,1.3,1.1,1.8c2.3,1.7,3.4,4.1,4,6.8c0.9,3.8-0.7,6.8-4.2,8.4
		c-1.2,0.6-2.5,1-3.7,1.5c-2,0.8-3.5,2.2-4.3,4.3c-1.5,3.6-2.5,7.3-1.2,11.2c0.1,0.4,0.2,0.8,0.2,1.2c0.1,2.4-1.6,4.2-4,4.1
		c-1.8,0-3.2-1-4.2-2.4c-1-1.3-1.5-2.8-1.7-4.4c-0.2-1-0.2-2-0.8-2.9c-3.1-4.6-3.2-9.7-2.3-14.8c0.6-3.1,0.5-6-0.5-9
		c-1.3-4-0.7-7.9,1.8-11.5c0.3-0.5,0.7-0.9,0.7-1.6c-0.1-2.1,0.4-4.1,1.2-6.1c-0.7,0.1-0.8,0.5-0.9,0.9c-0.9,1.6-2.1,1.8-3.3,0.4
		c-0.8-1-1-2.1-0.8-3.3c0.1-0.7,0.3-1.4,0-2.2c-1.6-4.2-0.9-8,2.2-11.4c0.5-0.5,0.8-1,0.7-1.8c-0.7-4.2-5.8-6.7-9.5-4.6
		c-0.5,0.3-1.2,0.6-1.3,1.1c-0.6,2.8-2.2,5.4-1.3,8.5c1.5,5.3,2.1,10.7,1.4,16.2c-0.6,5-1.3,10-2.4,14.9c-0.2,1-0.3,1.9,0.4,2.8
		c0.7,1,0.8,2.2,0.6,3.4c-0.2,1.2-0.4,2.5-0.6,3.7c-0.4,2.4-0.1,4.6,1.2,6.7c1.2,1.9,2.3,3.9,3.2,6c0.9,2,1.7,4.1,1.3,6.3
		c-0.6,3.1-0.1,6.4-1,9.5c-0.2,0.8-0.2,1.4,0.6,1.9c2.6,1.8,3.3,4.5,3.3,7.5c-0.1,2.1-0.2,4.2-0.7,6.2c-0.2,1-0.4,1.9-0.1,3
		c0.6,2.8-0.2,5.3-2,7.5c-0.7,0.8-1.4,1.7-2,2.6c-0.7,0.8-0.6,1.5,0.4,2c1.7,1,3.3,2,4.9,3c5.3,3.5,6.3,8.9,2.6,14.1
		c-1.2,1.7-2.6,3.2-4.1,4.7c-2.8,2.8-4.9,6.2-6.8,9.6c-0.2,0.4-0.7,0.9,0,1.6c2.1-1.6,4.2-3.3,6.3-4.9c0.6-0.4,0.9-1,1.1-1.7
		c0.8-2.8,2.7-4.6,5-6c1.8-1.1,3.8-1.7,5.9-2c1.2-0.2,2.5-0.3,3.5-1.1c2.3-1.8,5-3.1,7.6-4.3c2.5-1.1,4.5-2.9,5.9-5.3
		c1.9-3.3,2.5-7.1,3.6-10.7c0.2-0.6,0-1-0.6-1.1c-3.1-0.3-6.2-0.3-8.6,2.2c-0.6,0.7-1.2,1.4-1.8,2.1c-1.1,1.1-2.3,1.3-3.4,0.6
		c-1-0.6-1.4-1.7-1-3.1c0.1-0.3,0.2-0.6,0.3-1c1.6-4.7,5-7.6,9.7-8.9c2.5-0.7,5-0.8,7.5-0.6c1.1,0.1,2.2,0.2,2.9-0.9
		c0.2-0.3,0.6-0.5,1-0.7c0.8-0.3,1.5-0.6,1.2-1.8c-0.3-1-0.4-1.9-1.7-2.1c-4.2-0.7-7.8,0.3-11,3.1c-0.4,0.4-0.8,0.8-1.3,1.2
		c-1.5,1.1-3,0.5-3.3-1.4c-0.2-1.4,0-2.7,0.5-3.9c0.5-1.2,0.8-2.4,0.9-3.6c0.4-4.2,2.3-7.7,5.4-10.4c3-2.6,6.2-4.8,9.8-6.5
		c4.1-1.9,8.4-2.7,13-1.6c1.1,0.3,1.7-0.1,2.1-1.1c1.8-3.6,4.3-6.8,7-9.7c0.4-0.4,0.8-0.8,1-1.4c0.6-3.4,3-4.8,6-5.7
		c1-0.3,2-0.3,2.9-0.7c1.7-0.6,2-1.5,1.4-3.2c-1.1-3.3,0-6.3,3.3-7.6c4.5-1.8,9.2-2.5,14-1.7c1.5,0.3,2.9,0.9,4,2
		c0.8,0.8,1.2,1.8,0.8,3c-0.4,1.3-1.5,1.5-2.6,1.5c-0.8,0-1.5,0-2.3,0c-1.6,0.1-3.1,0.3-4.6,1.2c0.2,0.8,0.8,1.1,1.2,1.6
		c1.3,1.5,2.8,2.9,4,4.5c2.4,3.2,1,6.6-2.9,7.4c-0.7,0.1-1.5,0.3-2.2,0.4c-10.1,1.7-17,7.7-22.2,16.1c-0.4,0.6-0.7,1.3-1.5,1.6
		c-0.4,0.1-0.7,0.5-0.6,1c0.1,0.6,0.6,0.5,1,0.5c3.1,0.1,6.1,1.2,9.1,1.8c4.5,0.8,6.5,5.4,4.4,9.5c-0.5,1-1.2,1.8-2.1,2.5
		c-0.6,0.5-1.3,1-2,1.5c-3.7,2.7-3.4,2.1-1.5,6.2c0.5,1.1,1.1,2.3,1.4,3.5c0.2,0.9,0.2,1.9-0.6,2.3c-1.5,0.8-1.3,2-1.2,3.2
		c0.1,1.6,0.5,3.1,1.1,4.6c0.5,1.2,0.8,2.5,0.2,3.7c-0.7,1.3-0.6,2.2,0.7,3.1c1,0.7,1.3,1.9,0.7,3.2c-0.5,1.1-1.7,1.6-3.2,1.4
		c-0.7-0.1-1.3-0.3-2-0.5c-1.1-0.3-2.2-0.4-3.2-0.2c-5.2,0.7-9.9,2.4-13.6,6.3c-1.8,1.9-3.6,3.8-5.4,5.6c-1.6,1.6-3.4,3-5.6,3.7
		c-4.7,1.4-8.2,4.4-11.1,8.2c-0.3,0.4-0.6,0.8-0.9,1.2c-0.9,1-2,1.5-3.4,1.1s-1.9-1.5-2.1-2.9c-0.2-1.8,0.2-3.5,0.9-5.1
		c1.2-2.9,3-5.4,4.9-7.9c0.4-0.6,1.1-1,1.2-2.1c-1.6,0.3-3,1.1-4.4,1.8c-3.4,2-6.4,4.5-9.3,7.3c-8.7,8.3-14.1,18.4-16.2,30.2
		c-0.2,1.4-0.8,2.2-2.1,2.8c-4.7,2.2-4.3,1.7-3,6.8c0,0.2,0.1,0.3,0.1,0.5c0.3,1.2,0.9,1.8,2.3,1.7c1.2-0.1,2.5,0.2,3,1.4
		c0.7,1.9,2.1,3.6,2.4,5.5c1,5.7,1.8,11.5-1.5,16.8c-0.1,0.2-0.2,0.4,0.1,0.8c1.9-0.2,3.5-0.8,4.7-2.6c1.6-2.3,3.7-4.2,6.1-5.5
		c6-3.2,12.1-6,18.7-8c1.5-0.4,2.9-0.6,4.4-0.8c0.7-0.1,1.5-0.1,2.3,0c0.7,0.1,1.2,0.6,1.3,1.3c0.1,0.8-0.3,1.3-0.9,1.6
		c-0.4,0.2-0.8,0.3-1.2,0.5c-5.4,1.6-10.1,4.5-14.7,7.6c-3.6,2.4-6.7,5.3-8.5,9.3c-1.1,2.3-2.8,4-5.3,4.6c-1.3,0.4-1.6,1.1-1.6,2.4
		c0,4.9,2.6,8.7,5.2,12.4c0.6-0.3,0.8-0.7,1-1c2.4-4.7,6-8.3,10.6-10.7c4.9-2.6,9.9-5,14.9-7.2c0.8-0.4,1.6-0.6,2.3,0.1
		c0.8,0.8,0.5,1.7-0.2,2.5c-0.4,0.5-0.8,1-1.4,1.5c-1.5,1.2-2.9,2.5-4.5,3.6c-2.5,1.8-4,4.2-4.7,7.2c-0.8,3.2-1.8,6.3-2.8,9.4
		c-0.3,0.9-0.7,1.8-0.5,2.7c0.7,3.7,0.8,7.5,2.3,11c1.2,3,2.9,5.8,4.6,8.6c0.7,1.1,1.4,1.4,2.7,1.1c3.8-1,7,0.3,9.4,3.3
		c1.4,1.7,2.6,3.7,3.9,5.5c1.7,2.6,3.5,5.1,5.7,7.3s2.2,2.1,4.2-0.1c0.4-0.4,0.8-0.9,1.2-1.3c4-4.4,9-7.2,14.6-8.9
		c1.6-0.5,3.3-0.6,4.3,1c0.8,1.3,1.8,1.5,3.1,1.7c3.2,0.5,6.3,0.4,9.5,0.7c1.6,0.1,3-0.1,4.3-1c1.7-1.2,3.7-1.5,5.7-1.4
		c6.4,0.6,12.9,0.5,19.3,0.1c6.5-0.4,11.3-3.8,15.4-8.4c0.6-0.6,1.1-1.4,1.1-2.3c-4-2.3-8.1-3.5-12.6-3.1c-0.7,0.1-1.4,0-2-0.1
		c-3.9-0.7-7.5,0.6-11.1,1.3c-1.3,0.3-2.1,1.3-2.9,2.3c-0.3,0.4-0.5,0.9-0.8,1.3c-0.3,0.5-0.8,0.9-1.5,0.7c-0.8-0.2-1.1-0.8-1-1.5
		c0-1.4,0.3-2.7,1.2-3.8c2.3-2.9,3.9-6.5,6.8-9c0.4-0.3,0.8-0.6,0.9-1.2c-0.1-0.1-0.2-0.3-0.3-0.4c-5.4-3.1-10.3-6.9-14.7-11.3
		c-0.6-0.6-1.2-0.8-2-0.8c-2.6,0-5.2-0.4-7.8-0.7c-1.8-0.2-3.6-0.5-5.5-0.3c-5.4,0.6-9.9,2.9-13.9,6.4c-0.5,0.4-1,0.8-1.6,1.2
		c-4.6,2.7-8.8,5.8-10.8,11c-0.3,0.7-0.4,1.7-1.4,1.5s-0.7-1.2-0.7-1.9c0-0.4,0.1-0.8,0.2-1.2c0.6-3.1,1.8-5.9,3.1-8.7
		c1.7-3.7,4-6.7,7.3-9.1c0.6-0.5,1.2-0.9,1.7-1.5c2.5-3.4,5.4-6.4,8.4-9.3c0.2-0.2,0.5-0.4,0.4-0.9c-0.3-0.4-0.7-0.2-1.1-0.2
		c-4.7,0-8.7,2-12.6,4.5c-0.6,0.4-1.1,0.8-1.7,1.1c-0.4,0.3-0.9,0.5-1.3,0s-0.2-1,0.1-1.4c0.5-0.7,1-1.3,1.7-1.9
		c4.8-4,9.5-8,15-10.9c0.8-0.4,1.6-1,2.2-1.6c0.8-0.7,1.1-1.4,0.5-2.4s-1-2.1-1.2-3.3c-1.2-6.9-2.1-13.9-0.9-21
		c0.4-2.7,0.4-2.8-2-4.2c-0.5-0.3-1-0.6-1.6-0.8c-3.3-1.1-6.6-2.3-10-3.4c-2.2-0.7-4.5-1.2-6.9-1.2c-2.6,0-5.2-0.3-7.7-0.9
		c-1.5-0.4-1.8-1-0.9-2.2c0.6-0.7,1.2-1.4,2-1.9c2.1-1.6,4.5-2.6,6.7-3.9c4.1-2.4,8.6-3.1,13.3-2.5c3.6,0.5,7.1,1.1,10.4,2.8
		c1.8,1,1.9,0.9,3.1-0.9c3.3-5.1,7.8-8.6,13.5-10.8c5.4-2.1,10.8-4.1,16-6.5c3.2-1.5,6.4-2.9,9.8-3.8c0.3-0.1,0.6-0.2,0.7-0.8
		c-1.8-1.3-3.2-3-4.7-4.7c-1.2-1.4-2.6-2.3-4.5-2.5c-3.3-0.2-6.4-1.2-9.5-2.2c-0.8-0.2-1.6-0.6-2.3-1c-1.7-1.1-2.4-2.9-2-4.8
		c0.4-1.8,1.9-3.1,3.9-3.3c1.3-0.2,2.7,0.1,4,0.4c0.6,0.2,1.3,0.4,1.9-0.2c0.9-1,2.1-1.2,3.4-1c-0.6-4.3-0.4-3.4-3.9-3.9
		c-0.4-0.1-0.8,0-1.3-0.1c-3-0.3-4.9-2-5-4.6c-0.1-2.4,1.6-4.4,4.4-5.1c2.2-0.5,4.5-0.4,6.7,0.2c0.5,0.1,1.1,0.6,1.6,0.1
		c0-0.9-0.8-1.2-1.3-1.7c-1.3-1.2-2.4-2.6-3.1-4.2c-1.6-3.5-0.8-6.6,2-9c0.6-0.5,1.2-1,1.7-1.4c3.1-2.7,6.7-2.7,9.7,0
		c0.9,0.8,1.9,1.6,3,2.2c3,1.8,4.9,4.5,5.5,8c0.4,2.2,0.3,4.3,0.1,6.5c-0.3,2.2-0.6,4.5-0.8,6.7c-0.1,1.3-0.1,2.5,0.5,3.7
		c0.9,1.9,1.7,2.2,3.5,1.1c2.1-1.3,4.2-2.1,6.6-0.9c0.6,0.3,1.1,0.2,1.5-0.3c2.3-2.7,5.1-4.8,8.1-6.7c0.6-0.4,0.9-0.9,0.7-1.7
		c-0.7-3.5,0.6-6.6,2.1-9.6c1.2-2.5,3.2-4.1,5.8-4.8c1.3-0.4,2.5-0.9,3.8-1.4c3.7-1.4,7.4-1.9,11.3-0.4c0.9,0.4,1.8,1.1,2.8,0.9
		c1.5-0.2,1.5,0.6,1.2,1.6c-0.1,0.4-0.4,0.7-0.2,1.2c0.8,0.3,1.9-0.7,2.6,0.3c-0.4,0.8-1.1,0.9-1.7,1.1c-4.2,1.6-8.1,3.6-11.9,5.9
		c-0.6,0.3-1.2,0.7-1.6,1.2c-0.7,0.8-0.9,1.6,0.1,2.4c2.3,1.9,3.3,4.2,2.4,7.1c-0.3,1,0.3,1.4,1.2,1.5c0.5,0,1-0.1,1.5-0.2
		c3.2-0.9,6.6-1.2,9.8-1.9c1.7-0.4,3.5-0.3,5.3-0.1c1.4,0.1,2.7,0.5,3.2,2c0.5,1.6-0.4,2.7-1.6,3.6c-1.3,1-2.7,1.9-4.1,2.9
		c-7.4,4.9-14.8,9.7-22.2,14.6c-0.9,0.6-2,1.1-2.6,2.3c2.4,0.9,4.7,1.5,7,1.8c8.8,1.2,16.8,4.5,23.8,9.9c2.5,1.9,5.1,3.8,7.6,5.8
		c0.6,0.5,1.1,0.5,1.8,0.1c1.3-0.6,2.6-1.2,3.9-1.8c3.5-1.6,7.1-2.4,11-2.3c1.9,0,3.6-0.2,5.4-0.7c4.1-1.1,8.2-1.1,12.3,0.4
		c2.1,0.8,4.3,1.3,6.5,1.8c1.9,0.5,3.8,0.8,5.6,1.3c0.9,0.2,2,0.3,1.9,1.6c-0.2,1.2-1.3,1.1-2.2,1.2c-1.2,0.1-2.4,0.3-3.5,0.1
		c-3.2-0.6-6.1,1.4-9.2,0.7c-0.2,0-0.5,0.1-0.7,0.2c-6.5,2.4-12.8,5.4-18.4,9.6c-0.3,0.2-0.9,0.5-0.8,0.9c0.5,2-0.7,3.8-0.1,5.9
		c1,3.5,2.1,6.9,3.7,10.1c1.7,3.3,4.1,5.1,8,4.7c1.2-0.1,2.5-0.1,3.8,0c2,0.1,3.8,0.8,5.4,1.8c0.8,0.5,1.4,1.1,1.6,2.1
		c0.3,1.7-0.3,2.5-2,1.9c-2.7-0.9-5.3-0.5-7.8,0.5c-2.3,0.9-4.5,1.8-6.7,2.8c-0.5,0.2-1.2,0.3-1.1,1.2c0.4,0.1,0.8,0.3,1.2,0.4
		c12.1,3,20.8,10.6,27.7,20.7c0.5,0.8,1,1.6,1.4,2.4c0.3,0.5,0.4,1.2-0.2,1.6c-0.6,0.5-1.1,0.1-1.5-0.4c-0.3-0.3-0.6-0.6-0.8-0.9
		c-3.8-4.7-8.9-6.8-14.8-7.6c-2.1-0.3-4.2-0.5-6.2-0.7c-5.3-0.6-10.3,0.1-15.1,2.5c-3.9,1.9-7.5,4.4-11.2,6.7
		c-1.7,1-3.2,2.1-4.4,3.6c-2.3,2.8-5.1,5.1-8.2,6.9c-3.9,2.2-7.1,5.3-10.7,7.9c-0.3,0.2-0.7,0.5-0.5,1c0.1,0,0.1,0.1,0.2,0.1
		c1.7,0.4,3.3,1.7,5.2,0.4c0.5-0.3,1.1,0.2,1.4,0.8c0.6,1.5,1.5,2.8,2.4,4.1c0.6,0.8,0.5,1.8-0.1,2.6c-0.7,0.9-1.6,1.2-2.7,0.8
		c-1-0.3-2-0.9-2.8-1.6c-1.7-1.7-3.8-2.5-6.1-3.3c-1.6-0.6-2.7-0.5-3.7,0.9c-1.7,2.2-4,3.6-6.4,4.7c-0.8,0.4-1.6,0.8-2.5,1.2
		c-0.8,0.3-0.8,0.8-0.6,1.6c0.9,2.6,3,3.8,5.4,4.8c6.4,2.7,13.1,4.5,19.7,6.7c0.8,0.3,1.7,0.6,2.3-0.2c0.6-0.7-0.2-1.2-0.4-1.8
		c-0.1-0.2-0.1-0.3-0.2-0.5c-1.6-4.1,1.3-8,5.8-7.4c1.4,0.2,2.6,0.7,3.7,1.4c1.4,1,2.7,2,4,3c1.8,1.4,3.6,3,5.8,4.1
		c1.1-2.7,2.4-5,2.6-7.9c0.3-5.1,4.4-7.6,9.2-6c1.7,0.6,3.2,1.5,4.7,2.4c2.1,1.4,4.1,2.9,5.9,4.7c0.5,0.5,0.9,0.7,1.7,0.1
		c3-2.5,5.3-2.5,8.3-0.3c1.2,0.8,2.1,1.9,3.1,2.9c1.2,1.3,1.2,1.3,2.5,0.1c2-1.8,3.7-3.9,4.9-6.3c1.8-3.8,6-4.6,9.3-1.9
		c1,0.8,1.7,1.8,2.3,2.9c0.4,0.6,0.4,1.5,1.3,2c1.8-1,3.3-2.3,4.7-3.9c2.1-2.4,4.1-4.8,6.2-7.2c2-2.4,3.5-5.1,4.8-7.9
		c0.5-1.1,0.6-2-0.4-2.9c-1.1-1-1.3-2.5-1.6-3.9c-0.4-2.1-0.7-4.3-0.4-6.5c0.4-3.2-0.5-6-2.3-8.5c-2.3-3.2-4.1-6.7-5.2-10.5
		c-0.3-1.2-1-2.2-1.9-2.9c-3-2.2-5.6-4.7-8.8-6.6c-1.4-0.9-2.9-1.7-4.7-1.3c-1,0.2-1.8-0.2-2.2-1.2s-0.1-1.8,0.6-2.5
		c1.1-1.2,2.5-1.8,4.2-1.9c2.4-0.1,4.6,0.5,6.8,1.4c4.4,1.7,8.9,3.5,13.3,5.3c3.5,1.5,6.6,3.6,9,6.6c0.3,0.4,0.4,0.9,1.3,0.7
		C640.5,454.8,639.9,453,640,451.1z M414,294.8c-0.7,0.7-1.4,1.5-2.3,1.9s-1.2,1-1.1,2c0.1,3-1.1,5.2-3.7,6.9
		c-2.5,1.6-4.7,3.4-6.7,5.6c-1.5,1.6-3.3,1.9-5.3,1.1s-2.6-2.5-2.4-4.6c0-0.2-0.1-0.6,0-0.8c0.9-2.4,0-4.4-1.1-6.4
		c-0.8-1.4-1.3-2.9-1.7-4.4c-1.1-4.2,3-8.3,7.2-7.2c1.4,0.4,2.7,0.9,4,1.5c2.3,1,4.7,1.5,7.3,0.9c1.3-0.3,2.8-0.1,4.2-0.1
		c0.9,0,1.6,0.5,2,1.3C414.8,293.1,414.8,294,414,294.8z M413.7,512.1c0.5-1,1-2.1,1.8-3c2-2.1,3.5-4.6,5-7.2
		c3.8-6.8,9.8-10.7,17.2-12.7c1.5-0.4,3.1-0.8,4.7-0.5c1.8-0.2,3.3,0.4,4.9,0.9c4.2,1.2,6.1,7.8,2.5,11.3c-2.5,2.5-5.6,3.7-8.9,4.3
		c-7.3,1.3-13.5,4.7-19.2,9.2c-0.9,0.7-1.8,1.5-2.8,2.2c-1.6,1.1-3.3,0.9-4.6-0.2C413.1,515.3,412.9,513.9,413.7,512.1z
		 M520.1,212.9c-1.6,1.3-1.9,2.7-2.2,4.7c-0.4,3.1-1.2,6.2-1.5,9.3c-0.1,1.2-0.8,2.2-1.7,3c-1.3,1.3-2.7,2.4-3.9,3.8
		c-0.8,0.9-1.4,0.8-1.7-0.4c-0.3-1.1-0.4-2.3-0.6-3.5c-0.8-6.3-6-12.5-11.8-13.9c-3.2-0.8-6.4-0.7-9.3,0.6c-1.5,0.6-2.6,0.3-3.7-0.5
		c-5.3-3.5-7.5-11.4-4.7-17.2c1-2,2.1-4,4-5.4c0.9-0.7,1.8-1.3,2.9-1.3c1,0,1.8,0.4,2.2,1.3c0.4,0.9,0,1.6-0.8,2.1
		c-0.8,0.4-1.1,1.2-1.2,2c3.7,0.7,7.2,0.6,10.6,1c1.2,0.1,2.2,0.7,2.7,2c0.2,0.6,0.7,1.2,1.3,1.5c1.6,0.7,2.8,1.7,3.4,3.4
		c0.4-0.2,0.6-0.3,0.7-0.5c1.6-2.6,4-4.1,6.8-4.8c2.3-0.6,3.1-2,3.3-4.1c0.1-1.3,0-2.7-0.2-4c-0.1-1.1,0.1-2.1,1.3-2.4
		c1.1-0.4,2,0.2,2.6,1c0.3,0.5,0.6,1,0.9,1.5c1.1,2.4,1.9,4.8,2.7,7.3c0.4,1.2,0.5,2.5,0.3,3.7c-0.1,0.8-0.1,1.5,0.1,2.2
		C523.6,208.4,522.5,211,520.1,212.9z M537.9,155.7c-0.1,0.7-0.3,1.3-0.2,2c0.2,2.6-0.7,4.9-2.2,7c-2,2.7-2.1,5.9-2.4,9.1
		c-0.2,2.8-0.9,5.4-1.8,8c-1.3,3.8-5.7,5.6-8.8,1.8c-1.7-2-3.6-2.2-5.8-1.3c-2.3,1-4.5,2.1-6.4,3.9c-0.4,0.4-0.9,0.7-1.4,1
		c-3.5,1.6-6,1-7.7-2.1c-2.2-4.1-3.6-8.6-4.7-13.2c0-0.2,0-0.3,0-0.5c-0.1-3.3,2.2-6.1,5.4-6.5c2.1-0.2,3.9,0.8,5.1,2.5
		c0.7,1,1.1,2,1.5,3.2c0.5,1.8,1.1,2.1,2.5,0.8c1.9-1.6,3.5-3.5,4.1-6.1c1.2-4.7,3.5-8.9,7.2-12.1c2.2-2,4.8-3.3,7.9-3.1
		c1,0.1,2,0.3,2.9,0.8c1.1,0.6,2.1,1.2,3.3,1.7C538,153.4,538.3,154.1,537.9,155.7z M559.9,222.3c-0.5,1.3-1.4,2.3-2.3,3.2
		c-2.1,2.2-4.7,4.1-6.3,6.8c-1,1.7-1.9,3.5-2.8,5.3c-1.4,2.5-2.3,2.7-4.3,0.7c-2-1.9-2-1.9-2-4c0.6-8.4,4.3-14,12.5-17.4
		c1.6-0.7,3.1-0.4,4.4,0.8C560.3,218.8,560.6,220.6,559.9,222.3z M558.9,176.5c-3.3,2.1-6.5,4.4-9.5,6.9c-0.6,0.5-1.3,1.1-2,1.5
		c-1.7,0.9-3,0.2-3.1-1.8c-0.1-1.6,0.4-3.1,1-4.6c0.8-2.1,2-3.8,3.6-5.4c2.6-2.8,5.4-5.2,8.7-7.2c0.8-0.5,1.4-0.9,1.4-2.1
		c0-3.4,0.7-6.6,1.3-9.9c0.6-3.4,2.5-5.8,5.8-6.9c0.9-0.3,1.4-0.8,1.8-1.6c0.5-1,1.4-1.5,2.5-1.2c1.3,0.3,1.6,1.3,1.6,2.5
		c0,0.8,0,1.5,0.5,2.1c1.3,1.5,1.8,3.2,1.8,5.1c0,1.2,0.6,2,1.7,2.6c1.4,0.7,2.8,1.5,4.3,2.1s2.3,2.4,3.8,2.7c1.4,0.3,3-0.1,4.5,0.3
		c1.5,0.3,2.9,0.9,4,1.9c0.9,0.8,1.4,1.8,1.1,3.1c-0.4,1.2-1.3,2-2.9,2c-1.3,0-2.5,0.2-3.7,0.7c-1.8,0.8-3.2,1.9-4.1,3.8
		c-1.1,2.7-3.3,4.1-6.3,4.3c-1.8,0-3.4-0.5-4.6-1.7c-2.5-2.3-5.3-2.2-8.2-1.5C562.1,174.7,560.5,175.6,558.9,176.5z M624,178.2
		c1.3,0.5,1.2,1.7,1.1,2.8c-0.1,2.9-1.7,5-3.7,6.9c-1.4,1.3-3.2,2.1-4.9,3.4c2,1.8,3.3,3.9,3.7,6.4c0.2,1.1,0.2,2.1,0.2,3.2
		c-0.1,2.5,1.1,3.8,3.6,4s5,0.4,7.4,1.2c1.4,0.4,2.6,1.1,3.8,1.9c0.7,0.6,1.4,1.1,2.5,1.1c1,0,1.7,0.7,1.9,1.7c0.7,3,0.9,6-1.9,8.3
		c-0.9,0.7-1.3,1.8-1.8,2.7c-1.6,2.8-4,4.2-7.2,4c-3.4-0.2-6.1-1.7-7.7-4.8c-0.3-0.5-0.5-1.1-0.6-1.6c-0.5-2.2-1.1-4.4-2.6-6.2
		c-0.3-0.4-0.5-0.9-0.6-1.4c-0.1-1.6-1.1-2.6-2.1-3.6c-2.1-1.9-4.3-3.6-7.1-4.5c-1.9-0.6-3.7-1.5-5.3-2.7c-3.1-2.3-6.8-3.1-10.6-3.3
		c-3.3-0.2-6.5,0.4-9.5,1.8c-2.7,1.2-5.3,2.5-8.1,3.4c-0.5,0.1-1,0.4-1.3,0.7c-2.4,2.4-5.6,2.8-8.6,4.3c0.7-2.7,0.7-2.7,2.8-3.4
		c0.7-0.2,1.4-0.7,1.9-1.1c2.3-1.9,4.5-4,6.1-6.6c1.6-2.7,3.9-4.6,6.7-5.9c1.5-0.7,2.3-1.7,2.9-3.1c2.7-6.3,9.6-9.8,15.8-8.2
		c1.7,0.4,3.3,1,3.3,3.2c0,0.9,0.7,1,1.2,0.9c2-0.2,3.8,0.5,5.7,0.8c5,0.8,8.6-0.4,10.7-4.5C622,178.9,622.6,177.7,624,178.2z
		 M616.5,145.9c4,1.9,6,5.4,6.5,9.8c0.1,0.7,0,1.3,0,2c0.1,1.3,0.2,2.5-0.4,3.7c-1.1,1.9-3,2.1-4.1,0.2c-0.9-1.4-1.8-2.4-3.6-1.9
		c-0.1,0-0.2,0-0.2,0c-2.7-0.9-5.1-1-7.3,1.6c-1.3,1.4-3.7,0.7-4.7-1.1c-0.8-1.5-1.7-2.7-3.4-3.3c-1.3-0.5-1.8-1.9-1.9-3.3
		c-0.2-2.9,0.9-5.2,3.3-6.6C605.7,144.1,611.1,143.3,616.5,145.9z M594.5,78.9c0.3-0.5,0.5-1,0.9-1.5c0.3-0.5,0.7-0.9,1.1-1.3
		c0.6-0.7,1.4-1.3,2.1-1.9c0.3-0.2,0.6-0.3,0.9-0.5c1-0.4,1.9-0.5,2.8,0.3c0.8,0.7,0.7,1.6,0.4,2.5c-0.7,2.2-0.6,2.2,1.3,3.4
		c1.8,1.1,3.4,2.4,5.2,3.5c3.1,1.9,6.5,3,10.1,3.5c2.6,0.4,5.3,0.7,7.9,1.1c2.5,0.4,4.6,2.3,4.9,4.4c0.4,2.4-0.9,4.7-3.2,6
		c-3.2,1.7-6.5,3-9.4,5.3c-1.6,1.3-2.8,2.9-3.8,4.6c-0.6,1-1.1,2.1-1.8,3c-2.1,3-5.5,3.3-8.2,0.8c-2.5-2.3-4-5.3-5.2-8.4
		c-1.1-2.8-1.8-5.7-3.9-8c-1-1.2-1.6-2.8-1.7-4.6c-0.1-1.6-0.6-3.1-1.1-4.6c-0.1-0.2-0.1-0.5-0.2-0.7c-0.1-0.7-0.2-1.3-0.2-2
		C593.4,81.9,593.8,80.3,594.5,78.9z M575.6,95.6c0.8-1.5,1.7-2.9,3-4c2.2-1.9,4.4-2.1,6.9-0.6c3.3,2,3.2,2,1.2,5.3
		c-0.5,0.8-1,1.7-1.4,2.7c-0.8,2-0.6,3.9,0.9,5.6c0.4,0.4,0.8,0.9,1.1,1.4c1,2.1,2.7,3,5,2.6c1.2-0.1,2.5-0.2,3.7-0.3
		c3.2-0.2,5.5,1.8,5.6,5c0,0.7,0,1.4-0.1,2c-0.5,2,0.2,3.6,1.5,5c0.5,0.5,1,1,1.3,1.5c0.9,1.5,2.3,2.1,4,2c1.2,0,2.7-0.1,3.1,1.5
		c0.4,1.6-0.9,2.4-2.1,3.1c-1.7,1-3.5,1.8-5.1,3.1c-1.4,1.2-3.3,1.1-5.1,0.8c-4-0.7-7.4-2.6-9.7-6.1c-0.9-1.3-1.7-1.7-3.3-1.4
		c-3.5,0.6-6.8-0.4-9.7-2.5c-0.4-0.3-0.8-0.6-1.2-0.9c-0.8-0.5-1.4-0.2-1.5,0.8c0,0.7,0.4,1.3,0.6,1.9c0.6,1.6,0.7,3.2-0.7,4.4
		c-1.3,1.2-2.9,1-4.4,0.3c-0.5-0.3-1-0.5-1.5-0.9c-6.2-3.8-6.6-11-0.7-15.3c1.8-1.3,2.7-2.7,3.3-4.7
		C571.7,103.6,573.5,99.6,575.6,95.6z M540.3,82.2c0.6-0.5,1.1-0.9,1.5-1.6c2.2-3.6,6.3-4.5,9.7-1.9c1.5,1.2,2.7,1.3,4.3,0.6
		c3.8-1.6,7.8-2.5,11.6-4.1c1.6-0.7,3.6-0.9,5.1,0.7s1.6,3.4,0.9,5.3c-0.9,2.6-2.3,4.8-3.6,7.1c-3.5,6.1-6.4,12.5-9.2,18.9
		c-0.6,1.4-1.3,2.8-2.3,4.1c-3.1,3.9-9.3,2.2-10.9-1.5c-1.4-3.1-3-6.1-3.7-9.6c-0.3-1.7-1.3-3-2.6-4.2c-2.4-2.4-3.3-5.3-3.5-8
		C537.6,85.4,538.5,83.5,540.3,82.2z M507.5,108.8c-0.6-5.3,1.2-10.1,3.4-14.7c1.9-3.9,4.6-7.2,7.7-10.1c1.2-1.2,2.6-2.1,4.2-2.7
		c0.8-0.3,1.7-0.5,2.2,0.4c0.4,0.8-0.1,1.4-0.7,1.9c-2.8,2.5-4.8,5.5-6.3,9c-0.5,1.1-1,2.3-0.8,4c1.4-0.8,2.6-1.7,4-1.9
		c1.8-0.3,2.4,0.1,2.6,2c0.1,0.8,0.3,1,1,1c0.5,0,1,0,1.5,0c4.9,0,8.4,2.1,10.3,6.6c1.9,4.6,1.8,9.3-1.9,12.8
		c-2.3,2.2-1.9,5-3.1,7.4c-0.3,0.6,0.3,0.9,0.8,1c2.5,0.4,4.8,1.4,7.4,0.9c1.7-0.3,3.5-0.2,5.2,0.6c1.1,0.6,2.2,0.6,3.4,0.5
		c3.1-0.3,5.5,1,7.4,3.4c1.9,2.5,1.8,5.7-0.7,7.6c-2.6,1.9-2.5,4.1-1.7,6.6c0.4,1.2,1,2.3,1.5,3.4c0.7,1.6,0.5,2.8-0.5,3.7
		s-3.4,1-4.5,0.3c-0.6-0.4-0.7-1.1-0.8-1.7c-0.3-1.5-0.6-3-1.1-4.4c-1.9-5.5-6.4-8.5-12.1-8.2c-5,0.2-9,2.4-12.1,6.3
		c-0.9,1.1-1.8,1.9-3,2.5c-2.6,1.2-4.7,3.2-6.4,5.5c-0.5,0.7-0.8,1.5-1.8,2c0-2.2,0.8-4.1,1.5-6c0.8-2.2,1.5-4.4,1.7-6.8
		c0.7-6.5-1.5-12-5.5-17.2c-3.1-4-5.6-8.4-3.1-13.8C507.6,110,507.6,109.4,507.5,108.8z M498.1,61.9c3.5-0.1,6.8,2.6,7.9,6.2
		c0.6,2.1,0.6,4.2-0.2,6.1c-1.1,2.6-1.4,5.3-1.3,8.1c0.1,2.1-0.3,4.2-1.4,6c-1.1,1.9-2.3,2.2-4.2,1.1c-2.1-1.2-3.6-2.9-4.4-5.2
		c-0.4-1.1-0.9-2.3-0.9-3.4c0.1-2.5-1.1-4.3-2.2-6.4C487.8,67.9,492.5,62.2,498.1,61.9z M486.3,90.4c0.5-0.7,1-1.3,1.8-1.7
		c1.5-0.9,2.8-0.5,3.4,1.2c0.3,0.9,0.4,1.9,0.6,2.9c0.4,2.2,1.3,3.6,3.8,3.9c3.1,0.4,4.9,2.4,5.3,5.5c0.3,2.2,0.9,3.8,2.9,5.2
		c2.3,1.6,2.1,4.5-0.1,6.5s-6,2.5-8.9,1.1s-4.6-3.8-5.4-6.9c-0.3-1.3-0.9-2.2-1.9-3.1c-2.4-2.1-3.5-4.8-3.5-6.8
		C484.3,94.6,484.9,92.4,486.3,90.4z M480.1,124.1c2.1,0.6,3.8,1.8,5.2,3.4c1.8,2,3.7,3.7,6.3,4.8c2.3,0.9,3.8,2.9,4.8,5.2
		c0.4,0.8,0.7,1.7,0.9,2.6c0.7,3.3,1.1,6.6,2.5,9.9c1.7,4.1-0.2,8.8-3.8,11.6c-0.6,0.5-1.2,0.9-1.9,1.3c-2,1.3-4.3,2.3-4.9,5
		c0,0.2-0.4,0.3-0.8,0.6c-1.7-5-3.4-9.9-6.7-14c-3.3-4.1-7.6-6.8-12.7-8.6c1.1-2.1,2.9-2.7,4.8-2.7c2.8,0,5.7-0.2,8.5,0.6
		c0.2,0.1,0.5,0.2,0.8-0.2c-0.1-1.1-1.2-1.4-2-1.8c-3.3-1.6-5.6-4.2-7.7-7c-0.6-0.9-1.1-1.9-1.4-2.9
		C470.9,126.9,475.2,122.7,480.1,124.1z M441.3,79.4c0.4-1.2,1.3-2.1,2.3-2.9c4.5-3.1,9.4-4.7,14.9-4c2.1,0.1,4.3-0.1,6.5,0.4
		c5.5,1.1,9.1,4.5,10.9,9.6c1.5,4.3,0.3,8.1-2.9,11.2c-2.2,2.1-5.2,1.8-6.9-0.7c-0.6-0.9-1.1-1.9-1.5-2.9c-0.7-1.8-2-3-3.3-4.3
		c-1.2-1.3-2.9-1.3-4.4-1.6c-1.8-0.3-3.4-0.8-4.7-2.1c-0.8-0.7-1.7-0.7-2.6-0.5c-1.7,0.4-3.4,0.8-5.1,1.2
		C442.1,83.4,440.6,81.8,441.3,79.4z M371.7,119.4c-4.2,1.3-7,4.4-9.7,7.6c-0.7,0.8-1.2,1.8-1.9,2.6c-1.3,1.7-2.9,3.1-5.1,3.4
		c-1.1,0.2-1.8,0.6-2.6,1.3c-2.3,2.2-4.9,1.6-6.1-1.4c-1-2.3-0.2-4.5,0.4-6.6c0.7-2.4,0.6-5,1-6.7c0.2-2.1-0.5-3.4-0.5-4.9
		c0.1-3.1,1.8-5.3,4.9-5.6c1.1-0.1,1.5-0.4,1.7-1.6c0.9-4.3,4.5-6.3,8.7-5.1c1.7,0.5,3.4,1,5,1.7c1.9,0.8,3.9,0.8,5.8,1.4
		c2.2,0.6,4,1.6,4.9,3.9c1.1,2.8-0.2,6.6-3,8.2C374.2,118.3,373,119,371.7,119.4z M391.4,186.1c-4.3,0.2-7.9-3.9-7.2-8.3
		c0.3-1.7,0.1-3.2-0.5-4.8c-2.1-5.8,1.8-12.9,7.9-14.3c3.1-0.8,5.6,0.6,7.8,2.4c1.2,1,1.1,2.5,0.9,4.6c0,1.6,0.4,3.8,0.5,6.1
		c0.1,1.9-0.5,3.3-2,4.2c-1.9,1.2-2.7,2.6-2.4,5C396.7,183.8,394.3,186,391.4,186.1z M419.5,183.4c0.3,1.1,0.8,1.7,1.9,2
		c1.8,0.6,3.4,1.5,4.5,3c0.4,0.6,0.9,1.3,0.4,2.1c-0.4,0.7-1.1,1-1.9,1c-2.2,0-4.3-0.7-6.5-0.5c-1.7,0.1-3.3-0.1-5,0.4
		c-1.2,0.4-2.3-0.1-3.4-0.4c-1.5-0.4-2.9-0.6-4.4-0.1c-0.8,0.3-1.8,0.2-2.7,0.1c-1.3-0.1-2.5-0.6-3.8,0.3c-1,0.7-2.3-0.3-2.5-1.7
		c-0.2-1.6,0.1-3.2,1.1-4.5c2.8-3.9,6.1-7.1,11-8c0.9-0.2,1.8-0.2,2.6-0.2C415.5,176.9,418.3,178.9,419.5,183.4z M416.5,148.2
		c-3.5,0.3-5.7,1.9-6.9,5.1c-0.4,1.2-1.2,2.2-1.8,3.3c-0.7,1.5-2.3,1.8-3.6,0.7c-2.7-2.4-4.2-5.3-3.4-9.1c0.4-2,0.5-4,0.5-6.1
		c-0.1-4.6,1.2-8.9,5.2-11.9c1.2-0.9,2.8-1.1,3.9-1c4.2-0.1,7.1,1.7,9.3,4.7c1.2,1.6,2.1,3.4,2.7,5.3
		C423.8,143.9,420.1,147.9,416.5,148.2z M426.2,126.8c-1.5-3.3-3.4-6.3-5.9-9c-1.4-1.4-2.8-2.7-4.8-3.1c-4.4-0.8-8.7-0.7-12.4,2.2
		c-1.1,0.8-2.1,1.7-3,2.7c-4.9,5.4-8.2,11.6-9.2,18.9c-0.4,2.8-1.7,5.4-1.5,8.4c0.1,0.7-0.7,0.9-1.3,0.9c-2.4,0.1-4.4-0.8-6-2.6
		c-1.1-1.3-1.8-2.8-2.2-4.5c-0.4-1.5-0.6-2.9-1-4.4c-0.4-1.9-1.2-3.6-2.7-5c-1-0.9-1.7-1.9-1.2-3.3c0.5-1.4,1.7-2,3.1-2.3
		c2-0.4,3.8,0.1,5.5,1.2c0.9,0.6,1.8,1.3,2.9,2.1c0.8-1.8,1.9-3.2,3.2-4.4c0.6-0.6,0.8-1.2,0.2-2c-1.4-2-2.6-4.1-4-6.1
		c-1.1-1.6-0.9-3.1,0.7-4.1c3.2-2,6.1-2.7,9.8-0.1c0.5,0.3,1,0.7,1.4,1.1c0.6,0.6,1.1,0.5,1.7-0.1c1.5-1.4,3.2-2.7,5-3.7
		c0.8-0.5,1.2-1.1,1.3-2c0.2-1.8,0.9-3.4,2-4.8c0.6-0.8,0.8-1.4,0.2-2.2c-0.3-0.4-0.5-0.9-0.7-1.3c-3.5-6-3.2-12.3-1.2-18.7
		c0.5-1.7,1.4-3.2,2.8-4.4c0.5-0.4,1.1-0.8,1.8-0.7c1,0.1,1.6,1.1,1.3,2.3c-0.3,1.1-1.1,2.1-0.9,3.3c2.3,0.3,2.3,0.3,3.3,2.7
		c0.3,0.7,0.7,1.3,1,2c0.9,1.6,2.1,2.5,4.1,2.1c0.9-0.2,1.8-0.1,2.8-0.1c5.2,0.3,8.5,3.2,9.7,8.2c0.4,1.8,0.4,1.8,2.2,1.4
		c2.1-0.4,4.1-0.8,6.2-0.5c1.5,0.2,2.5-0.3,3.5-1.3c4.5-4.4,11.2-5,16.4-1.7c4.9,3.1,6.6,8.5,4.2,13.8c-0.7,1.6-1.4,3.2-1.6,5
		c-0.1,1.1-0.5,2.1-0.9,3.1c-0.5,1.3-1.5,2.2-2.9,2.5c-1.5,0.4-2.6-0.3-3.1-1.7c-0.2-0.5-0.1-1-0.5-1.4c-0.5-0.5-1-1.2-1.9-0.5
		c-0.8,0.7-1.5,0.3-2.2-0.3c-1.4-1.2-2.9-2.3-4.2-3.5c-1.1-1-2.3-1.4-3.9-1c-1.8,0.4-3.8,0.6-5.6,0.8c-0.4,0.8,0.1,1.3,0.3,1.8
		c1.5,4,0.8,7.7-1.7,11.1c-0.6,0.8-1.3,1.5-1.9,2.3c-1.1,1.5-1.7,3.1-1.3,4.9c0.1,0.6,0.2,1.2,0.1,1.7c-0.1,0.9-0.5,1.2-1.4,0.6
		C429.5,131.8,427.5,129.7,426.2,126.8z M466.1,163.6c-1.1,0.7-2.1,0.9-3.3,0.8c-2.7,0.3-4.2-1.3-5.3-3.4c-0.7-1.5-1.7-2.4-3.3-2.8
		c-0.9-0.3-1.9-0.7-2.6-1.4c-1.3-1.3-2.9-1.9-4.6-2.5c-3.5-1.1-6.9-2.5-10.5-3.4c-1.8-0.4-3.4-1.2-4.7-2.6c-2.3-2.7-1.7-5-0.2-7.1
		c1.6-2.3,3.9-3.9,6.9-4c1.8-0.1,1.9-0.2,1.5-1.9c-0.2-1-0.2-2-0.3-3c-0.1-4.2,3.5-7.1,7.7-6.6c3.9,0.5,7.3,2.5,9.7,5.7
		c2.7,3.7,4.5,7.8,4.8,12.4c0.1,2.1,0.9,3.6,2.9,4.7c2.3,1.2,3.9,3.1,4.7,5.6C470.5,157.6,469.1,161.5,466.1,163.6z M478.7,231
		c-2-0.3-3.9-1.1-4.9-3.1c-1.1-2.3-3.2-3.2-5.5-3.3c-3.1-0.1-5-1.6-6.1-4.3c-0.5-1.1-1.2-2-1.8-3c-1.9-2.9-4.1-10.6-1.3-14.5
		c0.6-0.8,1.2-1.6,1.9-2.3c0.8-0.7,1.8-1.1,2.9-1.1c2.3,0,4.6,1.7,5.5,4.1c0.7,1.9,1.1,3.9,0.8,5.9c-0.3,2.2,0.6,3.8,2,5.1
		c1.3,1.2,2.7,2.4,4.5,3.1c2.5,0.8,4.7,2.2,6.5,4.1c1.7,1.8,2.2,4.2,1.2,6.2C483.6,229.8,480.8,231.4,478.7,231z M406.9,440.9
		c0.8-1,1.3-2,1.3-3.4c0.1-4.3,2.9-7.7,7-7.5c1,0,1.9-0.5,2.9-0.5c3,0,4.9,1.8,5,4.7c0,1.1,0,2.2,0,3.6c-0.3,2.8,0.3,5.7,2,8.5
		c2,3.3,1.1,6.9-2.1,8c-6.1,2.2-8.7,7.3-11.2,12.5c-1.8,3.9-2.9,8-2.8,12.3c0,0.8,0.1,1.5,0.3,2.2c0.7,2.9-0.4,5.7-2.8,7.4
		c-0.5,0.3-0.9,0.7-1.4,1c-1.1,0.7-1.6,1.6-1.5,2.9c0.1,0.9,0.1,1.8,0,2.8c-0.1,1.4-0.4,2.6-1.4,3.6c-1.1,1.1-2.4,2-3.1,3.5
		c-0.5,1-1.6,0.9-2.4,0.3c-1.7-1.2-2.9-3-4.2-4.6c-1.4-1.6-1.7-3.8-1.2-5.9c0.1-0.3,0.1-0.7,0-1c-0.8-4.8,1-8.8,3.2-12.8
		c0.7-1.2,1.5-2.2,2.6-3.1c2.2-1.7,3.4-4,4.4-6.6c1.9-4.9,4.1-9.5,8.1-13.1c0.5-0.4,1.3-0.9,0.7-1.6c-0.5-0.7-1-1.8-2.4-1.4
		c-1.1,0.3-2.2,0.6-3.3,1.2c-2.1,1.1-4.2,2-6.4,2.8c-1.6,0.6-3.1,1-4.8,0.4c-1.8-0.6-3.3,0.7-4.9,1.4c-0.7,0.3-1.4,1.5-2.1,0.6
		c-0.8-1.1,0.5-1.8,1.2-2.3c1.5-1.1,3-2.2,4.6-2.9c0.8-0.4,1.6-0.9,2.2-1.6c2.8-3.4,6.2-6.2,9.8-8.8
		C405.2,442.9,406.1,441.9,406.9,440.9z M439.8,399c-1.3,3.7-4.3,5.5-8.1,5.9c-1.8,0.2-3.6,0.1-5.5-0.4c-3.1-0.9-6.3-0.8-9.4-0.2
		c-1.7,0.3-3.5,0.1-5.3,0.2c-6.8,0.3-12.2,3.1-16.1,8.8c-1.3,1.9-2.5,3.9-3.6,6c-0.9,1.7-0.6,2.3,1.2,2.7c1.3,0.3,2.5,1,3.7,1.5
		c2.4,1,3,5,0.9,6.8c-1.7,1.4-3.6,2.1-5.5,2.8c-3,1.2-6.1,2.3-8.9,4c-2.1,1.3-4.5,2.2-6.9,3.1c-1.2,0.4-2.3,1.1-2.8,2.3
		c-1.3,3.1-5.4,3.9-8.3,1.8c-2.5-1.7-3.8-4.2-4-7.2c-0.3-5.3,0.5-10.5,1.6-15.6c0.3-1.2,0.8-2.4,1.4-3.5c0.8-1.6,1.5-3.2,2.1-4.8
		c1.4-4.1,4.7-6.1,8.5-7.6c1.5-0.6,3.2,0.7,3.5,2.4c0.1,0.7,0,1.5,0,2.9c1.3-0.9,2.1-1.5,2.9-2.1c2.3-1.7,4.6-3.6,7.2-4.9
		c3-1.6,5.6-3.9,8.2-6.1c3.7-3.1,8-5.1,12.4-7.1c4.6-2.2,9.5-3.7,14.5-4.5c5.2-0.8,10,0.2,13.9,4C440.1,392.5,441.1,395.6,439.8,399
		z M528.4,305.2c-1.1,2.1-1.9,4.5-4.4,5.5c-1.2,0.4-2.3,1-3.5,1.3c-3.3,0.8-5.6,2.9-7.5,5.5c-0.5,0.7-1.2,1.4-1.7,2.1
		c-0.2,0.3-0.3,0.6-0.1,0.9c0.2,0.3,0.6,0.4,0.9,0.3c1.7-0.7,3.5-0.3,5.2-0.4c2-0.1,3.8,0.7,5.4,1.6c1.2,0.7,2.1,1.7,1.9,3.3
		c-0.2,1.6-1.2,2.3-2.5,2.7c-2.2,0.7-4.5,1.2-6.6,2.2c-4.8,2.2-9.1,5.2-13.1,8.7c-0.8,0.7-1.7,1.3-2.7,1.8c-1,0.4-1.6,0.3-1.7-0.9
		c-0.2-1.9-0.6-3.8-0.8-5.7c-0.2-2.3-1.1-4.2-2.6-5.9c-2.3-2.7-4.4-5.5-7.2-7.6c-0.9-0.7-2-1.3-2.9-1.9c-1.1-0.7-2.1-1.7-3.5-0.4
		c-0.3,0.3-1.1,0.2-1.7,0.1c-3.5-0.4-6.6,0.6-9.5,2.4c-8.9,5.5-15.2,13.1-18.6,23.1c-0.9,2.7-1.2,5.5-2.3,8.2
		c-1.5,3.9-3.9,7.1-7.5,9.4c-0.3,0.2-0.6,0.3-1.1,0.1c0.4-1.4,0.7-2.8,1.1-4.2c2.3-9.5,2-18.8-1.8-28c-0.7-1.6-1.7-3.1-2.7-4.5
		c-1.2-1.8-1-3,0.9-4.2c1.7-1.1,3.6-1.6,5.5-1.1c1.2,0.3,2.3,0.3,3.5,0.3c1.9-0.1,3.2-0.8,4.4-2.6c3.4-5.5,8-9.6,14.5-11.1
		c1.4-0.3,2.8-0.3,4.2-0.3c2.5,0.1,4.6-1.2,7.1-1.8c-0.9-1.3-1.9-1.8-2.9-2.4c-2.1-1.1-4.2-2.1-6.3-3c-3.7-1.6-6.1-4.4-6.4-8.5
		c-0.4-4.9,2.7-8,7.6-8.4c2.2-0.2,4.3,0.1,6.4,0.7c2.6,0.8,5.2,1.4,7.7,2.1c1.5,0.4,3,0.3,4.3-0.6c2.6-1.7,5.4-3,8.4-3.8
		c0.6-0.2,1.1-0.5,1.4-1.2c-1.7-1.1-3.7-1.2-5.6-1.2s-3.5-0.5-4.6-2c-1.9-2.4-1.2-6.1,1.4-8c2.7-1.9,5.7-3,9.1-3.1
		c0.6,0,1.2,0.1,1.7-0.2c0.4-0.6-0.1-0.9-0.4-1.3c-1.5-1.9-2.5-4-2.6-6.4c-0.1-1.7-0.8-2.7-2-3.7c-2-1.7-2.9-3.8-2.7-6.4
		c0.3-4.1,3.5-7.1,7.6-7.1c1.1,0,2.2,0,3.3,0c4.2,0,7.6,3.2,7.8,7.5c0.1,2.3,0.1,4.7-0.7,6.9c-0.3,0.9-0.5,1.8-0.3,2.7
		c0.5,1.9,0.3,3.8-0.5,5.7c1.6,0.5,3.1,0.3,4.5,0.8c1.7,0.5,3.2,1.4,4.4,2.7c1.8,2.2,1.4,4.6-1,6.1c-1.8,1.1-2.4,3.7-1.3,5.6
		c1.9,3.4,1.8,6.6-0.4,9.9c-1.6,2.4-3.3,4.9-4.5,7.5c-0.2,0.5-0.7,1-0.3,1.8c1.8-0.5,3.7-0.5,5.6-0.5c3,0.1,5.9,0.8,8.6,2.3
		c1.3,0.7,2.3,1.7,2.8,3.1c0.1,0.2,0.2,0.5,0.2,0.7C527.5,303.5,529.1,303.9,528.4,305.2z M529.2,286.9c-0.9-1-1.2-2.3-1.1-3.7
		c0.4-4.6,3.9-8.4,8.5-9.1c0.6-0.1,1.1-0.4,1.6-0.7c0.6-0.4,1.3-0.8,2-0.9c2.6-0.4,5.3-0.4,6.6,3.3c-6.5,1.1-8.2,8.7-4.8,13.2
		c1,1.4,2.1,2.5,3.5,3.5c1,0.7,2.1,1.1,3.3,0.8c0.7-0.2,1.3-0.3,1.7,0.6c0.3,0.8,0.2,1.5-0.4,2.1c-0.9,0.8-1.9,1.4-3.1,1.4
		c-3,0.1-6,0.2-9,0.1c-4.8-0.3-7.6-3.2-7.8-8C530.1,288.2,529.8,287.5,529.2,286.9z M548.7,347.3c-0.4-6-2.2-11.6-5.5-16.7
		c-1-1.5-2.3-2.8-3.9-3.8c-1.9-1.2-3.9-1.5-6-1.3c-2.2,0.2-2.2,0.2-2.1-1.5c-0.1-2.8,1.3-4.3,3.1-5.5c0.9-0.6,1.9-1.1,2.9-1.4
		c1.9-0.5,3.7-1.2,5.3-2.3c3.4-2.1,7.9-0.3,9.4,3.2c2,4.5,4.5,8.7,7.3,12.8c0.9,1.3,2.1,2.3,3.2,3.5c3,3.1,3.2,6.5,0.5,9.9
		c-1.7,2.2-3.3,4.4-4.4,6.9c-0.7,1.6-1.8,3-3.2,4.1c-0.6,0.5-1.3,0.6-1.5-0.4c-0.7-2.3-2-4-4.1-5.2
		C548.7,349.2,548.8,348.2,548.7,347.3z M599.3,395.3c-0.6,0-1.2,0.1-1.8,0c-3.7-1-7.5-1.5-10.9-3.5c-0.7-0.4-1.4-0.5-2.2-0.5
		c-2.9,0-5.9,0-8.8,0c-4.6-0.1-8.9,0.8-12.9,3.3c-1.2,0.7-2.5,1.4-4,1.3c-0.9,0-1.6,0.5-2.3,0.9c-3.8,2.5-8.4,0-9.2-4.5
		c-0.1-0.6,0.1-1.1,0.2-1.7c0.4-1.8,1.3-3.3,2.4-4.6c3.6-4,7.4-7.8,12.3-10.2c3.5-1.7,7.1-2.9,11.1-2.6c7.5,0.3,14.5,2.5,20.6,6.7
		c2.4,1.7,4.8,3.3,7.2,5c1.7,1.2,2.7,2.9,2.8,5.1C604.1,393.1,602.4,395.1,599.3,395.3z M607.8,456.8c3.2,3.2,6.8,6.2,9.5,10
		c3,4.2,5.6,8.7,7,13.8c0.3,1.1,0.3,2.1,0.4,3.2c0,4-1.7,7.1-5.5,8.7c-1.7,0.7-2.9,2.3-4.8,2.5c-0.6,0-1.1,0.3-1.7,0.1
		c-1.5-0.5-2.6,0.3-3.4,1.4c-0.7,1-1.4,1.8-2.3,2.7c-2.7,2.7-5.8,2.4-8.1-0.6c-1.4-1.8-3.5-1.5-5.4-2.2c-0.4-0.1-0.7,0.4-0.8,0.8
		s-0.1,0.8-0.1,1.2c-0.5,4-4.2,6.1-8,4.4s-6.4-4.7-8.4-8.3c-0.5-0.9-1-1.9-1.5-2.9c-1.7-3.2-4.2-5.5-7.3-7.4
		c-0.4-0.3-0.9-0.5-1.2-0.8c-2-1.7-1.5-5,0.9-6.1c1.7-0.8,3.6-0.9,5.4-0.6c1,0.1,2,0.6,2.9,0.6c5.3,0,9.6,3,14.4,4.7
		c0.4,0.1,0.8,0.4,1.2,0.5c0.9,0.3,1.3,0,1.1-1c-0.1-0.2-0.2-0.5-0.2-0.7c-0.4-2.3,0.8-3.6,3.2-3.7c2.6-0.1,4.7,1.2,6.7,2.4
		c1.4,0.8,2.6,1.8,3.9,2.7c0.9,0.6,1.6,0.4,2.1-0.5c0.6-1,1.1-2.2,1-3.3c-0.5-4.1-0.5-8.3-2.7-12.1c-1.3-2.2-2.3-4.5-3.4-6.7
		c-0.3-0.5-0.6-1-0.7-1.6c-0.3-1.2,0.1-2.1,1-2.9s1.8-0.8,2.8-0.2C606.2,455.6,607.1,456.1,607.8,456.8z M619.7,418.4
		c-0.4,0.9-1.1,1-2.1,0.8c-3.7-0.6-7.3,0.1-10.7,2.2c0.8,1.4,1.6,2.4,1.6,3.9c0,1.6-0.5,2.9-1.5,4.1c-2.3,2.8-5.4,4.1-8.9,4.7
		c-0.9,0.2-1.8,0.1-2.7-0.2c-4.1-1.2-8.1-2.6-12.3-3.4c-1.3-0.3-2.2-1.1-3.2-1.9c-3-2.5-1.8-8.1,1.6-9.5c1.6-0.6,3.3-1.2,5-1.5
		c4.1-0.8,8.1-1.8,12.1-3.1c5.8-1.9,11.5-1.2,17.2,0.7c1,0.3,2.1,0.6,2.9,1.4C619.3,417,620.2,417.4,619.7,418.4z"/>
	<path class="st4" d="M600.5,550.1c-0.6-2.8-1.5-5.4-2.8-8c-1.6-3.5-4.6-4.7-8.1-5.1c-1.6-0.2-3.2,0-4.8,0.2c-1,0.1-2.1,0-3.1-0.2
		c-0.7,0.6-0.3,1.2,0.2,2c1.4,1.9,2.1,4,2.5,6.2c0.9,5.9,0.5,11.8-0.1,17.7c-0.1,1-0.5,1.9-1,2.8c-0.4,0.7-0.8,1.3-1.4,1.7
		c-1,0.7-2.1,1.2-3.3,0.6c-1.2-0.6-1.2-1.6-1.2-2.8c0-2.6-0.8-4.9-2.9-6.6c-3.1-2.5-6.7-4.3-10-7.3c0.3,3.5,1.3,6.3,2.5,9
		c1.1,2.4,2.4,4.8,3.7,7.1c2.6,4.8,3.8,10,3.7,15.4c-0.1,4.3-0.9,8.5-1.6,12.7c-3.4,17.9-13.3,30.9-29.2,39.6
		c-3,1.6-6.1,2.7-9.5,3.2c-5.4,0.9-10.9,0.9-16.3,0.1c-10-1.4-19.9-3.7-29.6-6.6c-8.2-2.4-15.6-6.4-21.9-12.4
		c-4.3-4.1-8.2-8.6-11.9-13.3c-4.8-6.2-8-13.1-9.4-20.8c-1.2-7.2-1.3-14.5-0.6-21.8c0.2-1.9,0.4-3.9,0.6-5.8c-1.2,1.5-2,3.2-3.4,4.4
		c-0.8,0.7-1.1,1.6-1.3,2.6c-0.6,4.3-1.1,8.5,0.9,12.5c0.5,0.9,0.3,1.8-0.5,2.5s-1.7,0.7-2.6,0.2c-0.4-0.2-0.9-0.6-1.4-0.4
		c-2.8,1.1-5.2-0.2-7.7-1.1c-3.4-1.3-5.6-3.7-6.6-7.1c-1.6-5.3-0.4-10.1,3-14.3c1.8-2.2,1.8-2.4-0.1-4.6c-0.3-0.4-0.7-0.7-1-1.1
		c-2.8-2.9-5-6.1-5.7-10.1c-0.2-1-0.6-1.5-1.7-1.3c-1.6,0.2-3-0.4-4.1-1.6c-0.6-0.6-1.4-0.9-2.2-1.1c-1-0.2-2-0.5-3-0.8
		c-0.6,2.4-2,4.5-4.4,5.9c-4.2,2.5-5.5,6.3-6.4,10.5c-0.4,2-0.7,4.1-0.9,6.2c0.7-0.3,1.3-0.6,1.9-1.1c2.1-1.6,3.4-1.5,5.6-0.1
		c2.3,1.4,3.7,3,3.7,5.7c0,0.8,0.1,1.5,0.1,2.3c0,4,1.4,7.4,3.9,10.3c0.8,0.9,1.7,1.9,2.5,2.8c1,1.1,1.9,2.1,2.4,3.5
		c0.4,1.2,1.1,2,2.3,2.4c0.9,0.3,1.7,0.8,2.5,1.2c1.6,0.9,3.1,1.1,5,0.4c5-1.9,9.7,1,10.6,6.3c0.2,1,0.2,2,0.2,3
		c0.2,5,2.6,8.8,6.8,11.3c3.4,2,6.9,3.8,10.9,4c0.7,0,1.3,0.4,1.6,1.1c0.3,0.8,0.1,1.5-0.5,2.1c-0.9,0.9-2,1.3-3.2,1.4
		c-1.5,0.1-3,0.1-4.5-0.2c-3.6-0.7-7.2-1.4-10.8-2.1c-5.9-1-10-4.4-13-9.4c-1-1.7-1-3.9-2.2-5.3c-1.2-1.5-3.5-1.9-5-3.2
		c-1-0.9-1.9-1.7-3.2-2.8c-0.4,2.7,0.3,4.9,1.1,7.1c1.7,4.7,4.3,8.9,7.5,12.7c0.5,0.6,1.1,1.3,1.7,1.9c1.4,1.4,3,2.7,4.7,3.6
		c0.8,0.4,1.7,0.8,2.6,1.2c0.3,0.1,0.6,0.2,0.9,0.4c0.7,0.4,1.1,1,1,1.9c-0.1,0.6-0.5,1-1,1.3c1.5,1.5,2.9,3.1,4.2,4.8
		c4.4,6.1,10.5,10,16.7,13.8c2.4,1.5,5.2,1.7,8,2.1c4.9,0.7,9.8,0.8,14.7,0.1c0.8-0.1,1.7-0.1,2.5,0c1.8,0.1,3.5-0.2,5.1-0.8
		c3.5-1.4,6.5-0.4,9.3,2c1.5,1.2,2.9,2.6,4.3,3.8c2,1.7,4.3,2.5,6.9,2.6c4.3,0.2,8.5-0.7,12.6-1.7c1.4-0.3,2.6-1,3.8-1.8
		c3.4-2.1,6.8-2.1,10,0.4c1.7,1.3,2.5,3.1,3,5.1c0.5,1.8,0.6,3.6,0.6,5.5s0.5,2.1,2.3,1.9c7.3-0.9,13.6-3.9,18.6-9.4
		c2.7-2.9,4.4-6.3,5.7-9.9c0.5-1.3,1-2.7,1.6-4c0.9-2,2.2-3.4,3.9-4.2c-0.3-1.2-0.4-2.4-0.3-3.7c0.2-2.6,0.9-5.1,2.4-7.3
		c1.3-1.9,2.5-3.9,3.2-6.2c0.1-0.4,0.3-0.8,0.5-1.1c1.2-2.1,4-3.3,6-0.8c0.5,0.6,1.2,0.9,1.8,1.3c0.6,0.3,1.2,0.7,1.7,1.1
		c0.7-0.5,1.3-1,2-1.6c1.1-0.8,1.9-1.8,2.7-3c2.6-3.8,5.3-7.6,6.3-12.1c0.6-2.6,1.9-4.7,3.5-6.7c-0.4-2,0.8-3.8,2.9-4.1
		c0.3,0,0.7,0,1,0s0.7,0.1,1,0.1c2,0.3,2.1,0.3,2-1.8V587c-0.1-1-0.3-1.9-0.4-2.9c-0.4-1.9-0.8-3.8-1.1-5.7c-0.7-5,0.8-9.1,4-11.7
		c-1.2-1.6-2-3.4-2.5-5.5C602.1,557.6,601.3,553.9,600.5,550.1z"/>
	<path class="st4" d="M659.8,375.7c-1.4-1-2.7-2.3-3.8-3.7c-5.1-6.4-7.3-13.2-2.7-20.8c0.3-0.6,0.5-1.1-0.1-1.5
		c-1.8-1.3-2.2-3.3-2.4-5.3c-0.1-1.2-0.6-2.3-1.6-3c-1.8-1.1-3.6-2.1-5.9-1.8c-2.5,0.2-4.8-0.6-7.2-0.9c-0.6-0.1-1.1-0.5-1.2-1.1
		c-0.1-0.8,0.4-1.3,1-1.6c0.9-0.4,1.9-0.7,2.9-0.8c1.8-0.3,3.6-0.7,5.1-1.8c1.5-1.1,3.4-1.2,5.3-1.2c0.8,0,1.6,0.4,2.6,0
		c-0.4-1.8-1-3.3-2.9-4.1c-1.9-0.7-2.8-2.1-3.4-4c-0.9-2.8-0.7-5.3,1.5-7.4c0.1-0.1,0.1-0.3,0.1-0.5c-0.6-0.8-1.5-0.7-2.3-0.8
		c-1.1-0.1-2.2-0.2-3.2-0.5c-2-0.6-3.5-1.7-4.3-3.9c-1-2.8-2.7-3.3-5.1-1.7c-0.8,0.5-1.5,0.8-2.3,0.2c-0.8-0.5-1-1.3-0.9-2.2
		c0.1-1.3,0.8-2.4,1.8-3.2c1.9-1.7,4.2-2.4,6.7-2.3c1.1,0,2.1-0.1,3.2-0.6c1.1-0.5,2.2-0.6,3.4-0.7c1.7-0.2,2-0.5,1.3-2
		c-1.6-3.4-2.4-7.2-4.3-10.4c-0.6-1-0.9-2,0-3c1-1.1,2.1-0.8,3.2-0.2c1,0.5,2,1.2,3.2,2c-0.5-3.4-0.9-6.4-1.3-9.5
		c0-0.3-0.1-0.8-0.3-0.9c-1-0.8-0.9-1.9-1.1-3c-0.2-1.1-0.4-2.1-0.7-3.2c-1.5-4.9-2.6-5.7-7.6-6c-1.7-0.1-3.4,0-5-0.5
		c-2.4-0.7-3.7-2.2-3.8-4.7c-0.1-1,0-2,0-3c0-0.9-0.3-1.6-1.2-2s-1.8-1-2.7-1.4c-3.3-1.4-4.2-3-3.2-6.4c0.5-1.5,0.9-3,1-4.6
		c0.1-2.2-0.9-4-2.3-5.3c-0.9-0.9-1.7-1.8-2.4-2.8c-1.4-2.2-2.1-4.7-3.2-7.1c-1.5-3.2-4.2-4.7-8.1-5.3c1.7,2.7,2.6,5.4,4.9,7.3
		c3.3,2.7,5.4,6.3,7,10.2c0.8,1.9,0.8,3.7-0.9,5.2c-3.4,2.9-6,6.5-8.4,10.3c-1,1.6-2.2,3.2-3.5,4.6c-2.9,3.2-6.5,5.3-10.8,5.9
		c-8.8,1.1-16.8-0.4-23.7-6.4c-0.7-0.6-1.2-1.3-2.5-1.7c0.4,0.7,0.5,1,0.7,1.3c1.6,2.1,3.6,4,5.7,5.7c2.3,1.9,4.8,3.8,7.8,4.4
		c3.9,0.8,7.8,1.1,11.7,0.4s7.6-1.9,11.2-3.6c1.1-0.5,2.3-0.6,3.2,0.4c0.9,0.9,0.7,1.9,0.4,3c-1,3-3.1,4.7-6,5.5
		c-2,0.6-4.1,0.8-6.2,1.1c-1.3,0.2-1.8,1.2-0.7,2c1.7,1.2,3.5,2.7,5.9,2.4c2.7-0.3,5.3-0.9,7.7-2.2c0.6-0.3,1.1-0.7,1.7-1
		c1.4-0.7,2.6-0.6,3.5,0.4c0.8,0.9,0.9,2.1,0,3.5c-0.6,1-1.4,1.9-2.2,2.7c-4.3,3.8-9.3,6.5-14.8,8.1c-0.8,0.2-1.6,0.3-2.2,1.1
		c-1.2,1.7-2.5,3.4-3.6,5.1c-0.9,1.4-0.8,2.8-0.6,4.5c0.5,3.4,2,5.9,4.8,7.6c0.1,0.1,0.2,0.2,0.4,0.3c1.3,1,1.6,3,2.8,3.7
		c1.3,0.8,3.3,0.4,4.8,1.2c4.7,2.4,9.2,5.2,12.9,9c1.2,1.3,2.1,2.8,2.6,4.5c0.2,0.9,0.1,1.7-0.7,2.2c-0.9,0.5-1.6,0.2-2.3-0.4
		c-0.3-0.3-0.6-0.6-0.9-0.9c-2.1-2.2-4.7-3.5-7.5-4.3c-2.3-0.7-4.5-0.1-6.6,0.7c-0.9,0.3-1.4,0.8-1.2,1.9c0.8,3.1-0.4,5.6-2.8,7.5
		c-0.1,0.1,0,0.3,0,0.6c3,1.4,6.1,2.5,9.3,3.4c0.8,0.2,1.7,0.3,2.1-0.8c0.5-1.2,1.3-1.7,2.6-1.2c0.6,0.3,0.9-0.3,1.3-0.5
		c1.5-0.8,2.5-0.5,3.1,1.2s0.6,3.4,0.3,5.2c-0.4,2.3-1.1,4.5-1.8,6.8c-1,3.8-3.5,6.2-7.1,7.5c-0.9,0.3-2,0.4-2.8,1.1
		c0.2,0.6,0.8,0.8,1.4,1c2.8,1.2,2.8,1.2,3.3,4.1c2.5-0.5,4.9-0.7,7.4-0.3c7.6,1.1,18,9.4,20.4,16.6c1,3,2.3,5.6,3.7,8.4
		c2.8,5.8,3.6,12,2.3,18.3c-0.2,0.8-0.6,1.6-0.1,2.4c0.8,1.1,1.5,2.4,2.6,3.4c2.7-3.7,4.3-8.2,4.2-12.2c-0.1-3.5-0.2-7.1,1.8-10.2
		c0.4-0.6,0.1-1.1-0.2-1.6c-1.7-2.6-2.7-5.6-4-8.4c-1.6-3.5-2.7-7.2-3-11.1c-0.1-1.2-0.1-2.3,0.2-3.5c0.1-0.4,0.4-0.7,0.9-0.8
		c0.5,0,0.8,0.3,0.9,0.7c0.1,0.5,0.2,1,0.3,1.5c0.6,3.8,1.9,7.3,4,10.5c1.2,1.9,2.7,3.4,4.7,4.3c2.3,1.1,4.2,2.7,5.8,4.7
		c0.6,0.7,1,1.5,2.4,1.7c0.2-2.2-0.1-4.1-0.2-6.1C662.8,378.9,661.8,377.1,659.8,375.7z M625.3,297.6c-1.7,1.3-3.8,2.1-5,4.1
		c-0.9,1.7-1.1,1.8,0.1,3.3c1,1.2,1.6,2.5,1.6,4.1c0,2.3-1.1,3.8-3.3,4.4c-3.7,1-6.7-0.4-9.5-2.5c-3.2-2.3-5.7-5.4-8.3-8.3
		c-2.7-3.1-1.9-6.9,1.7-8.8c1.4-0.8,2.9-1.6,4.5-1.4c3.6,0.5,5.6-1.6,7.4-4.2c1.5-2.2,2.9-4.5,4.4-6.7c1.1-1.7,2.5-3,4.2-3.9
		c2.5-1.4,6-0.7,7.6,1.7c1.2,1.7,1.9,3.5,1.9,6.4C631.9,290.2,629.6,294.4,625.3,297.6z"/>
	<path class="st4" d="M683.7,489c-0.7,1.6-1.8,3-2.7,4.5c-0.7,1.2-0.7,2.2-0.1,3.5c2.3,5.1,3.6,10.4,4.1,15.9
		c0.4,3.8,0.5,7.5,0.3,11.3c-0.5,12.3-3.7,23.7-10.4,34.1c-1.8,2.7-2.2,5.9-3.3,8.9c-0.3,0.8,0.3,1,0.8,1.3
		c4.2,2.4,7.4,5.7,8.5,10.6c0.2,0.9,0.8,1.1,1.6,1.2c0.7,0.1,1.4,0.2,2.1,0.4c0.2-0.1,0.4-0.1,0.6-0.1c1.7-0.3,3.3,0,5,0.4
		c8.4,2.2,13.4,9.9,12.1,18.5c-0.2,1.2-0.5,2.5-0.7,3.7c-0.2,1.3-0.3,2.6,0.2,3.9c0.2,0.6,0.3,1.3,0.2,2c-0.3,2.3-2.2,4.6-4.5,5.1
		c-1.3,0.3-1.8,0.8-2,2c-0.3,1.6-13.1,15.6-13.1,15.6c-0.1,1,0.7,1.3,1.3,1.7c0.3,0.2,0.6,0.3,0.8,0.5l0.3-0.2
		c0.6-0.5,1.2-1.1,1.8-1.6l1.8-1.5l0.9-0.8c0.3-0.3,0.6-0.5,0.9-0.7l1.9-1.5l0.5-0.4l0.5-0.4l1-0.7l2-1.4l2-1.3
		c2.4-1.5,4.9-2.9,7.4-4.3c3.2-1.7,6.4-3.2,9.7-4.6c0.4-0.2,0.7-0.3,1.1-0.5l1.1-0.4l2.3-0.8c0.4-0.1,0.8-0.3,1.1-0.4l1.1-0.4
		l2.3-0.7l0.3-0.1c-0.6-0.7-1.1-1.4-1.6-2.1c-0.7-1-1.3-1.9-2-2.9c-4.4-6-5.8-12.7-4.7-20c0.5-3.1,1.2-6.2,1.9-9.4
		c0.6-3.1-0.1-3.9-3.1-4.1c-5.2-0.4-9.7-2.4-13.1-6.5c-2.8-3.4-2.2-8.3,1.3-10.6c1.7-1.1,3.2-0.9,4.3,0.8c0.2,0.3,0.3,0.8,0.8,1
		c1.7-1.2,3.4-2.4,4.2-4.4c1.6-3.6,3.1-7.2,4.7-10.8c0.5-1.2,0.9-2.5,0.8-3.9c0-1.7-0.1-1.9-1.8-1.9c-0.3,0-0.7,0-1,0
		c-9.1-0.5-16.2-4.4-20.8-12.4c-1.7-3-2.4-6.2-1.7-9.7c0.2-0.8,0.2-1.5-0.3-2.2c-1.1-1.5-0.6-3,0.3-4.4c1.4-2.1,2.8-4.2,4-6.4
		c1.4-2.7,3-5.5,3-8.7c0-1,0-2.1-0.1-3.1c-1.8-0.8-3.5-1.8-5.2-2.8c-1.2-0.7-2.4-1.4-3.9-1.5C687.4,485,685.1,485.9,683.7,489z
		 M692.5,538.1c0.6-0.1,1.3,0,1.9,0.2c0.4,0.1,0.8,0.3,1.2,0.5c2.1,1,3.7,3.3,3.7,5.6c0.1,1.1-0.3,2-0.9,2.8
		c-0.2,0.3-0.4,0.5-0.7,0.8c-2.5,2.7-4.5,5.7-7.1,8.3c-1.6,1.6-1.7,4.1-1.2,6.4c0.2,0.8,0.7,1.9-0.2,2.2c-1,0.4-1.4-0.9-1.8-1.7
		c-0.4-1-0.8-2-0.8-3.1c0-2.1-0.1-4.1-0.4-6.2c-0.3-2.2-0.4-4.4-0.9-6.6C684.6,543.1,688.3,538.5,692.5,538.1z"/>
	<path class="st4" d="M377.3,411.7c0,0,0.1,0.1,0.1,0.2c0.1-0.1,0.2-0.1,0.2-0.2c-0.1,0-0.1-0.1-0.2-0.1
		C377.4,411.6,377.3,411.6,377.3,411.7z"/>
	<path class="st4" d="M843.9,657.1c-1.8-3.6-4.1-7.1-6.6-10.2c-2.6-3.1-5.5-6-8.7-8.6c-3.2-2.5-6.6-4.7-10.3-6.5l0,0l-5.4-2.4
		c-0.6-0.5-1.1-1-1.7-1.5c-1.4-1.2-2.8-2.2-4.3-3.1c-6.4-3.6-13.5-5.6-20.7-6.7c-3.6-0.6-7.2-1-10.8-1.2c-2.4-0.1-4.8,0-7.2-0.4
		c-2.6-0.4-5-1.6-7.7-1.8c-1-0.1-2,0-3,0.1c-8.3,0.9-16.6,2.1-24.6,4.5c-4,1.2-8,2.7-11.7,4.6c-3.6,1.8-6.8,4.4-10.6,5.9
		c-0.9,0.4-1.8,0.7-2.7,1.1c-19.2,8.2-36.4,24.4-43,44.5l0,0c1.7-0.4,3.8,0.3,5.2-0.8c0.6-0.5,0.9-1.1,1.2-1.8
		c3.1-6.7,6.1-13.6,11.3-18.8c6.4-6.3,16.5-8.9,24.1-3c0,0,0,0,0-0.1l0.1,0.1c0.4,0.3,0.9,0.7,1.3,1.1c0,0,0,0,0.1,0.1
		s0.3,0.2,0.4,0.4c0.5,0.5,1,1,1.4,1.5c0.1,0.1,0.1,0.2,0.2,0.3c-0.6,0-1.3,0-1.9,0.1c-1.4,0.1-2.7,0.5-4,1c-2.6,1-5,2.4-7.3,3.9
		c-0.6,0.4-1.1,0.8-1.7,1.2l-0.8,0.6l-1.5,1.1l-0.8,0.6c0,0,0.8-0.2,0.9-0.2c4-1.1,8-1.1,11.7,0.7c0.3,0.2,0.6,0.3,0.9,0.5
		c0.3,0.2,0.6,0.3,0.9,0.5c0.6,0.4,1.1,0.8,1.6,1.2c1,0.9,1.9,1.9,2.7,3c0.9,1.2,1.6,2.5,2.3,3.9l0,0c-0.1,0.4-0.2,0.8-0.3,1.2
		c-0.1,0.2-0.1,0.5-0.2,0.7v0.1c-0.1,0.4-0.1,0.9-0.2,1.3c0,0.1,0,0.2,0,0.3s0,0.2,0.1,0.3c0,0.2,0.1,0.4,0.1,0.6v-0.1v0.1
		c0,0,0,0,0,0.1c0,0,0,0,0-0.1c0.1,0.7,0.3,1.5,0.4,2.2c0.2,0.9,0.4,1.7,0.6,2.6c1.1,1.8,2.2,3.6,2.9,5.6c0.1,0.2,0.1,0.4,0.2,0.6
		c0,0.1,0,0.1,0,0.2c0.1,0.2,0.1,0.4,0.1,0.5l0,0c0,0.2,0.1,0.4,0.1,0.6c0,0.1,0,0.1,0,0.2c0,0.2,0.1,0.3,0.1,0.5v0.1
		c0,0.2,0.1,0.4,0.1,0.5s0,0.1,0,0.2c0,0.1,0,0.3,0,0.4c0,0.1,0,0.2,0,0.3s0,0.3,0,0.4c0,0.1,0,0.2,0,0.3s0,0.2,0,0.3
		c0,0.2,0,0.4,0,0.6v0.1c0,0.1,0,0.3,0,0.4l0,0c0,0.3,0,0.6,0,0.9c0.1,0.1,0.2,0.3,0.3,0.4c0.6,0.7,1.1,1.4,1.7,2.1
		c0.3,0.3,0.6,0.6,0.9,0.9c2.5,2.1,5,4.1,8.2,4.8c5.1,1.2,10.4-0.5,15.5-0.1c1,0.1,2.1,0.2,3-0.1c1.8-0.7,2.9-3.6,3.8-5.2
		c1.4-2.4,2.6-5,3.6-7.6c1.9-5,3-10.3,3.4-15.6c0.6-8.4-0.9-17-4.3-24.7c-1.7-3.9-3.8-7.6-6.3-11s-5.3-6.6-8.4-9.4
		c-0.4-0.4-0.8-0.7-1.2-1l-2-1.8l0,0l0,0h0.1h0.2l0.4,0.1l0.8,0.2l1.2,0.3l0.4,0.1l0.4,0.1l0.8,0.2c2,0.6,4,1.4,5.9,2.4
		c17.5,9.2,25.1,27.6,26.2,46.4c0,0.1,0,0.2,0,0.4c0,0.6,0,1.1,0,1.7c0,0.5,0,1.1-0.1,1.6c0,0.5-0.1,1-0.1,1.5c0,0.1,0,0.1,0,0.2
		c-0.1,0.3-0.1,0.7-0.2,1c0,0.3-0.1,0.7-0.2,1c0,0.2-0.1,0.5-0.1,0.7c-0.5,3.1-1.5,6.2-2.5,9.2c-1.1,3.2-2.9,6.2-1.6,9.6
		c2.8,7.1,9,9.3,15.9,10.4c0.9,0.1,1.8,0.3,2.7,0.4c1.1,0.2,2.3,0.3,3.4,0.4c1.3,0.1,2.7,0.3,4,0.4c0.3,0,0.5,0,0.8,0.1
		c0.2,0,0.5,0,0.7,0.1c0.5,0,0.9,0,1.4,0v-0.1c0.6-2.7,2-5,3.2-7.4c5.8-11.2,8-24.7,6.2-37.5c-1.7-11.9-8.4-22.9-16.7-31.3
		c-0.8-0.8-1.7-1.9-1.5-3c2.9,0.8,6.1,3.2,8.7,4.8c3.2,2,6.2,4.1,9.1,6.4c5.2,4.3,10.1,9.9,11.1,16.8c2,13.2,5.7,14,3.9,27.3
		c-0.5,3.5-2.6,6.8-3.3,10.3c-1,4.9-1.3,9.5-3.1,14.3c-0.1,0.3-0.3,0.6-0.3,0.9c-0.1,0.3-0.3,2.8-0.9,2.6c2.4,0.8,13.9,3,14.4-1.1
		l0.3-2.3l2.9-15.9c2.8-15.7,3.2-31.3-3.9-45.9c-1.5-3.1-4.2-9.1-6.2-10.9c0.2,0.2,0.5,0.4,0.7,0.7c3.9,3.7,7.5,7.2,10.4,11.8
		c3.4,5.3,6.3,11.3,8.5,17.2c0.2,0.5,0.3,1,0.5,1.4c0.6,1.9,1.1,3.9,1.6,5.8c0.8,3.9,1.2,7.9,1.2,11.8c-0.1,4-0.5,7.9-1.4,11.7
		c-0.3,1.2-0.6,2.3-0.9,3.5c0.4-0.1,0.7-0.2,1-0.3c1-0.4,1.8-1.1,2.5-1.9c0.7-0.8,1.3-1.6,1.8-2.6c0.5-0.9,0.9-1.9,1.2-2.8
		c0.2-0.5,0.3-1,0.4-1.5C851.3,684,850.1,669.4,843.9,657.1z M715.4,627.3L715.4,627.3C715.5,627.3,715.5,627.2,715.4,627.3
		C715.5,627.3,715.4,627.3,715.4,627.3z"/>
	<path class="st4" d="M286.2,631c-0.9-0.4-1.8-0.8-2.7-1.1c-3.8-1.5-7-4.1-10.6-5.9c-3.8-1.9-7.7-3.4-11.7-4.6
		c-8-2.4-16.3-3.7-24.6-4.5c-1-0.1-2-0.2-3-0.1c-2.6,0.2-5.1,1.4-7.7,1.8c-2.4,0.4-4.8,0.3-7.2,0.4c-3.6,0.2-7.3,0.6-10.8,1.2
		c-7.2,1.2-14.3,3.2-20.7,6.7c-1.6,0.9-3,1.9-4.3,3.1c-0.6,0.5-1.2,1-1.7,1.5l-5.4,2.4l0,0c-3.6,1.8-7.1,4-10.3,6.5
		s-6.1,5.4-8.7,8.6c-2.6,3.2-4.8,6.6-6.6,10.2c-6.2,12.3-7.5,26.9-3.9,40.2c0.1,0.5,0.3,1,0.4,1.5c0.3,1,0.7,1.9,1.2,2.8
		c0.5,0.9,1.1,1.8,1.8,2.6s1.5,1.5,2.5,1.9c0.3,0.1,0.7,0.2,1,0.3c-0.4-1.1-0.7-2.3-0.9-3.5c-0.9-3.8-1.3-7.8-1.4-11.7
		c0-3.9,0.4-7.9,1.2-11.8c0.4-2,0.9-3.9,1.6-5.8c0.2-0.5,0.3-1,0.5-1.4c2.2-5.9,5.2-11.9,8.5-17.2c2.9-4.6,6.5-8.1,10.4-11.8
		c0.2-0.2,0.5-0.4,0.7-0.7c-2,1.8-4.6,7.8-6.2,10.9c-7.1,14.7-6.7,30.3-3.9,45.9l2.9,15.9l0.3,2.3c0.6,4.1,12.1,1.9,14.4,1.1
		c-0.6,0.2-0.8-2.3-0.9-2.6c-0.1-0.3-0.2-0.6-0.3-0.9c-1.9-4.7-2.2-9.3-3.1-14.3c-0.7-3.5-2.9-6.7-3.3-10.3
		c-1.7-13.3,1.9-14.1,3.9-27.3c1.1-6.9,6-12.5,11.1-16.8c2.9-2.4,5.9-4.5,9.1-6.4c2.6-1.6,5.7-4.1,8.7-4.8c0.2,1.1-0.8,2.2-1.5,3
		c-8.3,8.4-15,19.5-16.7,31.3c-1.8,12.8,0.4,26.2,6.2,37.5c1.2,2.4,2.6,4.7,3.2,7.4v0.1c0.5,0,0.9,0,1.4,0c0.2,0,0.5,0,0.7-0.1
		c0.3,0,0.5,0,0.8-0.1c1.3-0.1,2.7-0.3,4-0.4c1.1-0.1,2.3-0.2,3.4-0.4c0.9-0.1,1.8-0.2,2.7-0.4c6.9-1.1,13.1-3.3,15.9-10.4
		c1.3-3.4-0.5-6.4-1.6-9.6c-1-3-2.1-6.1-2.5-9.2c0-0.2-0.1-0.5-0.1-0.7c-0.1-0.3-0.2-0.7-0.2-1c-0.1-0.3-0.1-0.7-0.2-1
		c0-0.1,0-0.1,0-0.2c0-0.5-0.1-1-0.1-1.5s0-1.1-0.1-1.6c0-0.6,0-1.1,0-1.7c0-0.1,0-0.2,0-0.4c1.1-18.8,8.7-37.2,26.2-46.4
		c1.9-1,3.9-1.8,5.9-2.4l0.8-0.2l0.4-0.1l0.4-0.1l1.2-0.3l0.8-0.2l0.4-0.1h0.2h0.1l0,0l0,0l-2,1.8c-0.4,0.3-0.8,0.7-1.2,1
		c-3.1,2.8-5.9,6-8.4,9.4s-4.6,7.1-6.3,11c-3.4,7.7-4.9,16.3-4.3,24.7c0.4,5.3,1.5,10.6,3.4,15.6c1,2.6,2.2,5.2,3.6,7.6
		c0.9,1.6,2,4.4,3.8,5.2c0.9,0.4,2,0.2,3,0.1c5.2-0.4,10.5,1.2,15.5,0.1c3.2-0.7,5.8-2.7,8.2-4.8c0.3-0.3,0.6-0.6,0.9-0.9
		c0.6-0.7,1.2-1.4,1.7-2.1c0.1-0.1,0.2-0.3,0.3-0.4c0-0.3,0-0.6,0-0.9l0,0c0-0.1,0-0.3,0-0.4V693c0-0.2,0-0.4,0-0.6
		c0-0.1,0-0.2,0-0.3s0-0.2,0-0.3s0-0.3,0-0.4c0-0.1,0-0.2,0-0.3s0-0.3,0-0.4c0-0.1,0-0.1,0-0.2c0-0.2,0-0.4,0.1-0.5v-0.1
		c0-0.2,0.1-0.3,0.1-0.5c0-0.1,0-0.1,0-0.2c0-0.2,0.1-0.4,0.1-0.6l0,0c0-0.2,0.1-0.4,0.1-0.5s0-0.1,0-0.2c0.1-0.2,0.1-0.4,0.2-0.6
		c0.7-2,1.8-3.8,2.9-5.6c0.2-0.9,0.4-1.7,0.6-2.6c0.2-0.7,0.3-1.5,0.4-2.2c0,0,0,0,0,0.1c0,0,0,0,0-0.1v-0.1v0.1
		c0-0.2,0.1-0.4,0.1-0.6c0-0.1,0-0.2,0.1-0.3c0-0.1,0-0.2,0-0.3c0-0.4-0.1-0.9-0.2-1.3v-0.1c0-0.2-0.1-0.5-0.2-0.7
		c-0.1-0.4-0.2-0.8-0.3-1.2l0,0c0.7-1.4,1.4-2.7,2.3-3.9c0.8-1.1,1.7-2.1,2.7-3c0.5-0.4,1-0.9,1.6-1.2c0.3-0.2,0.6-0.3,0.9-0.5
		s0.6-0.3,0.9-0.5c3.8-1.8,7.8-1.7,11.7-0.7c0.1,0,0.9,0.2,0.9,0.2l-0.8-0.6l-1.5-1.1l-0.8-0.6c-0.6-0.4-1.1-0.8-1.7-1.2
		c-2.3-1.6-4.7-3-7.3-3.9c-1.3-0.5-2.7-0.8-4-1c-0.6-0.1-1.3-0.1-1.9-0.1c0.1-0.1,0.1-0.2,0.2-0.3c0.4-0.5,0.9-1,1.4-1.5
		c0.1-0.1,0.3-0.2,0.4-0.4c0,0,0,0,0.1-0.1c0.4-0.4,0.8-0.8,1.3-1.1l0.1-0.1v0.1c7.6-5.8,17.7-3.3,24.1,3
		c5.2,5.2,8.2,12.1,11.3,18.8c0.3,0.7,0.6,1.3,1.2,1.8c1.4,1.1,3.4,0.5,5.2,0.8l0,0C322.6,655.4,305.4,639.2,286.2,631z
		 M278.4,627.2l0.1,0.1l0,0C278.5,627.3,278.5,627.3,278.4,627.2z"/>
</g>
</svg>
