<?xml version="1.0" encoding="utf-8"?>
<!-- Generator: Adobe Illustrator 24.0.1, SVG Export Plug-In . SVG Version: 6.00 Build 0)  -->
<svg version="1.1" id="Layer_1" xmlns="http://www.w3.org/2000/svg" xmlns:xlink="http://www.w3.org/1999/xlink" x="0px" y="0px"
	 viewBox="0 0 990 781.2" style="enable-background:new 0 0 990 781.2;" xml:space="preserve">
<style type="text/css">
	.st0{fill:#FCFEFE;}
	.st1{fill:#DC8912;}
	.st2{fill:#535459;}
	.st3{fill:#ACACAB;}
	.st4{fill:#865015;}
</style>
<g>
	<path d="M769.7,739.6c-1.2,0.8-2.2,1.9-3.3,3c-1.8,1.8-3.6,3.6-5.8,5c-3.7,2.4-7.2,1.5-9.2-2.5c-1.8-3.6-3-7.5-2.5-11.6
		c0.4-2.9-0.8-4.6-3.2-5.7c-0.9-0.4-1.7-0.9-2.6-1.3c-3.8-1.4-6.1-4.2-7.4-8c-0.8-2.2-1.4-2.3-3.1-0.8c-1.7,1.6-2.6,3.6-3.3,5.8
		c-0.9,3.1-2.4,5.9-4.3,8.5c-1.4,1.9-3,3.5-4.9,4.9c-3.7,2.8-8,1.9-10.4-2.1c-1.4-2.4-2.4-5.1-2.5-7.9c-0.1-3-1.4-5-4.1-6.1
		c-1.9-0.8-3.4-2.1-4.9-3.5c-2.1-2-4.2-4-6.2-6c-0.5-0.4-1-0.9-1.2-1.5c-0.9-2.7-2.9-2.9-5.4-2.9c-128.1,0.1-256.2,0.1-384.4,0.1
		c-0.6,0-1.1,0.1-1.7,0c-1.5-0.2-2.4,0.3-2.9,1.8c-0.1,0.4-0.4,0.9-0.8,1.2c-3.6,4-7.3,8-12.1,10.8c-0.7,0.4-1.4,0.8-2.1,1.2
		c-1,0.7-1.6,1.6-1.8,2.9c-0.4,3.1-0.7,6.2-2.3,9c-1.2,2.1-2.6,3.8-5.1,4.5c-1.8,0.5-3.4,0.3-5-0.8c-4.9-3.4-8-8.2-9.9-13.8
		c-0.7-2.1-1.5-4.1-3-5.7c-0.4-0.5-0.9-0.9-1.5-1.2c-0.8-0.4-1.4-0.4-1.7,0.5c0,0.1-0.1,0.1-0.1,0.2c-1.2,4.8-4.4,7.7-8.9,9.3
		c-0.6,0.2-1.1,0.6-1.7,0.9c-2.3,1.1-3.1,2.7-2.8,5.4c0.5,4.2-0.8,8.3-2.8,12c-2,3.7-5.4,4.4-8.9,2.1c-2.3-1.5-4.2-3.5-6.1-5.4
		c-1-0.9-1.9-1.8-3.2-3c-0.3,1.4-0.6,2.5-0.8,3.5c-0.5,3.6-2.4,6.4-4.6,9.1c-1.3,1.6-3.1,1.7-4.8,1.2c-4.9-1.4-9.4-3.6-12.9-7.5
		c-3.5-3.9-7.2-7.8-9.8-12.4c-1-1.7-2.4-2.9-4.1-3.9c-9-5.8-15.1-13.7-18.3-24.1c-2.4-7.9-2.4-15.9-1.5-24
		c0.6-5.2,1.8-10.4,3.6-15.4c1.7-4.8,4.4-9.1,8-12.7c1.2-1.2,2.5-2.5,3.8-3.6c6.5-5.3,13-10.6,19.9-15.5
		c9.2-6.4,19.4-10.3,30.3-12.7c0.5-0.1,0.9-0.2,1.4-0.3c0.1,0,0.3-0.2,0.4-0.3c0.2-0.7-0.4-1.1-0.8-1.6c-3.2-4.6-6.6-9.1-9.1-14.1
		c-2.7-5.4-4.6-11-4.5-17.2c0.1-2.7,0.3-5.3,1.2-7.8c3.7-10.8,6.2-21.8,9-32.8c3.9-15.4,9.7-30.1,16.3-44.5
		c4.5-10,8.2-20.3,10.8-30.9c2.9-11.8,5.4-23.7,7-35.7c0.6-4.7-0.2-9.4-0.8-14.1c-0.7-4.9-1.9-9.7-2.4-14.7
		c-0.2-1.8-0.3-3.7-0.2-5.5c0.2-7.1,0.5-14.2,0.8-21.3c0.4-9.9,2.1-19.7,3.7-29.5c1.8-10.6,3.3-21.2,4.6-31.8
		c0.7-5.9,1.6-11.7,2.1-17.6c0.4-5.8,0.9-11.6,0.8-17.5c-0.1-6.7,0.8-13.2,2.5-19.7c2.3-8.9,5.3-17.6,9.1-26
		c3.9-8.7,9.6-16,16.5-22.4c6.2-5.7,12.9-10.7,19-16.6c1.1-1.1,1.7-2.1,1.7-3.7c0-7.6,0.9-15,2.8-22.3c2.5-9.4,7.2-17.7,12.4-25.8
		c2.8-4.4,6-8.7,10-12.2c2.3-2.1,4.1-4.7,5.6-7.5c2.8-5.3,5.5-10.7,8.3-15.9c4.3-8,9.6-15.1,16.2-21.3c9.4-8.9,18.9-17.7,29-25.9
		c2.2-1.8,4.5-3.6,6.9-5.2c17.8-12.4,19.8-13.1,43.8-20.3c7.7-2.3,15.4-4.1,23-6.7c4.7-1.6,9.6-2.3,14.6-2.8
		c6.9-0.8,13.9-0.8,20.8-0.1c3.7,0.4,7.3,1,10.8,1.9c8.4,2.2,17,4,25,7.3c16.3,6.8,32.5,13.9,47.6,23.2c8.4,5.1,17,10,24.7,16.1
		c13.5,10.6,25.1,23,34.7,37.2c4.2,6.2,8.8,12.2,12.4,18.8c4.4,8.2,8.7,16.4,11,25.4c0.3,1.1,0.5,2.2,0.8,3.3
		c0.3,1.2,0.6,2.3,1.4,3.3c1.4,1.8,2.8,3.5,3.3,5.8c0.2,0.8,1,1.2,1.6,1.7c3.1,2.2,5.9,4.7,7.7,8.1c0.2,0.3,0.4,0.7,0.7,0.9
		c3.3,3,5.4,6.7,7.2,10.6c1.9,4,4.7,7.2,8,10c6.6,5.7,12.6,12,16.8,19.8c2.1,3.9,4.8,7.3,7.6,10.8c10.5,13.1,16.9,28,19.3,44.6
		c0.7,5.1,0.9,10.2,1.1,15.3c0.8,20.5,0.5,40.9,0.3,61.4c-0.2,16.1-1,32.1-1.5,48.2c-0.5,19.7,1.7,38.9,8.1,57.6
		c2.7,7.7,4.8,15.6,5.8,23.7c1.5,12.4,0.4,24.6-4,36.3c-2.4,6.4-4.9,12.7-7.6,18.9c-1.2,2.8-1.7,5.6-1.7,8.6
		c0.1,10.2,2.3,20,5.6,29.5c2.2,6.2,4.6,12.3,6.2,18.6c1.9,7.4,3.3,14.8,2.8,22.5c-0.1,2.1-0.1,2.2,1.8,2.7
		c13.7,3.5,25.7,10.2,37.3,18.2c4.8,3.3,8.9,7.1,12.2,12c2.8,4.2,5.8,8.3,8.3,12.6c1,1.8,1.9,3.7,2.9,5.5c3.2,6,3.9,12.2,2.6,18.8
		c-1.4,7.5-3.5,14.8-6.3,21.8c-0.9,2.2-2.2,4.1-3.5,6c-3.4,4.7-7,9.2-12.2,12c-2.2,1.2-3.8,2.9-5.1,5c-2.6,4.5-6.2,8.3-9.8,12.1
		c-3.4,3.7-7.8,5.8-12.6,7.1c-2.5,0.7-3.8-0.2-5.5-2.2c-2.4-2.9-3.5-6.2-4.1-9.8C770.2,740.6,770.3,740,769.7,739.6z"/>
</g>
<g>
	<path class="st0" d="M567.4,666.3c-1.4-2.7-2.9-5.4-4.7-7.9c-0.6-0.8-1.2-1.6-1.8-2.5c0,0.1,0,0.3-0.1,0.4c-0.2,1.7-0.4,3.4-0.7,5
		c-0.4,1.7-0.9,3.7-1.9,5.5c-0.8,1.6-2.1,2.6-3.8,3.2c-1.9,0.6-3.8,0.2-5-1.3c-1.6-1.9-2.4-3.8-2.4-5.8c0-0.7,0-1.5,0-2.2
		c0-1.5,0.1-3,0-4.4c-0.3-4.4-1.4-8.7-3.6-13.7c-1.4-3.2-4.2-5-7.1-6.9l-0.7-0.5c-1.9-1.1-3.6-2.1-5.4-2.9c-5.3-2.6-9.4-6-12.6-10.5
		c-0.9-1.2-1.9-2.5-2.9-3.7c-1.7-2-3.4-4.1-4.8-6.5c-2.6-4.3-4.2-9.1-5.1-14.8c-0.7-4.4-0.7-8.7-0.1-12.7c0-0.2,0-0.3,0-0.3
		c0,0-0.1-0.1-0.5-0.2c-2.5-0.6-4.5-1.6-6-2.8c-0.3-0.3-0.5-0.3-0.5-0.3c0,0-0.1,0.1-0.4,0.5c-1.9,2.5-3.2,5.5-4.5,8.4l-0.6,1.4
		c-2.3,5.3-4.6,10.3-5.6,15.9c-1.1,5.7-1.8,10.8-2.3,15.8c-0.4,5.1-0.5,10.6-0.3,17.4c0.1,3.9,0.6,7.8,1.1,11.6
		c0.7,5.6,1.4,11.5,2.2,17.6l0.2,1.5c0.3,2.9,0.7,5.9,1.4,8.8c0.2,0.8-0.1,2-0.6,3.5c-0.1,0.4-0.3,1-0.4,1.3
		c0.1,0.3,0.2,0.5,0.2,0.8c0.1,0.3,0.1,0.5,0.2,0.8l0,0h91.8c-4.2-5.2-7.7-10.4-10.7-15.9C568.7,668.7,568,667.5,567.4,666.3z"/>
	<path class="st0" d="M606.5,477c0-0.3-0.1-0.6-0.2-0.9c-1.2-4.1-2.1-8.3-3-12.4l-2.1-4.8c-2.1-4.6-4.3-8-7-10.7
		c-3.1-3.2-6.3-6.5-8.5-10.8c-0.1-0.2-0.2-0.3-0.2-0.5c-0.4-0.8-0.8-1.7-0.7-2.8l0.1-0.9c0.2-2.8,0.4-5.6,1.3-8.3
		c1.7-4.8,2.1-9.7,2.1-14.3c0.2-8.5-0.8-16.3-2.9-23.4c-0.5-1.5-1-2.9-1.7-4.2c-0.4-0.7-0.8-1.4-1.2-2c-0.4-0.7-0.9-1.4-1.3-2.1
		c-0.1-0.2-0.2-0.4-0.3-0.6c0,0-0.1-0.1-0.1-0.2c-0.3,0.3-0.6,0.5-0.9,0.7c-0.5,0.3-1,0.6-1.5,0.1c-0.6-0.5-0.2-1,0.1-1.5
		c0.9-1.3,1.5-2.7,2-4.1c-0.2-1.7,0.1-3.4,0.9-5.1c0.1-0.2,0.1-0.3,0.2-0.4c0.1-0.7,0.1-1.5,0.1-2.3c0-3.8-1.5-6.8-4.5-9.1
		c-0.6-0.4-1.1-0.8-1.7-1.3c-3.2-2.6-4.5-6.1-4.1-10.2c0.3-2.9,0.7-5.9,1-8.8c0.3-2.5,0.3-5.1-0.3-7.6c-1.4-6.4-3.6-12.6-7.1-18.2
		c-1.9-3.1-3.6-6.2-5.1-9.5s-3.2-6.5-5-9.7c-1.4-0.9-2.3-2.4-2.9-4.4c-0.1-0.4-0.1-0.7-0.2-1c-2.5-4.7-3.9-9.7-4.2-15
		c0-0.8-0.1-1.6,0.2-2.4c0.2-0.5,0.6-0.8,1.1-0.8c0.4,0.1,0.7,0.4,0.8,0.8c0.3,1.2,0.7,2.3,0.9,3.5c0.3,1.4,0.7,2.8,1.1,4.2
		c0.8-3,1.1-6.1,1.4-9.1c0.2-2.5,0.5-5.1,1-7.7c0.9-4.2,0.9-8.8-0.1-14.3c-0.5-2.9-1.4-5.3-2.8-7.5c-2.8-4.2-5.4-7.2-8.3-9.4
		c-1.3-1-2.9-1.6-4.4-2c-0.9-0.3-1.9-0.4-2.9-0.5c-0.4,0-0.7-0.1-1.1-0.1c0.7,1.2,0.9,2.7,0.9,4.8c-0.1,1.5,0.2,3.2,0.7,4.8
		c0.1,0.5,0.3,0.9,0.5,1.4c1.3,3.7,0.9,5.1-2.2,7.5c-2.5,2-6.1,1.8-8.5-0.2c-3.2-2.6-4.5-7.3-2.9-11.3c0.6-1.6,0.4-2.6-0.8-3.7
		c-3.6-3.4-5.8-7.5-5.9-12.5c0-1.9-0.3-3.8-0.7-5.7c-0.5-1.8-0.5-3.7-0.2-5.5c0.1-0.5,0.1-0.9,0.2-1.4c0-0.9,0-1.9,0.2-2.9
		c0.1-0.5,0.1-0.9,0.2-1.4c0.3-3.7,0.3-7.5,0.2-11.3c0-1,0.1-2,0.2-3.1l-0.6-1.3c-0.1-0.3-0.2-0.5-0.4-0.8c-0.3-0.7-0.7-1.4-0.9-2.2
		c-0.9-5.4-1.4-11.1,0.8-16.9c0.9-2.4,2.2-5.1,4.6-7.2c0.6-0.6,0.7-1,0.5-2.1c-1.2-7.5-2.3-16.4-0.8-25.6c0.6-4,2.1-7.4,4.3-10.3
		c0.7-0.8,1.2-1.8,1.7-2.6c-0.8-0.6-1.2-1.5-1-2.6c0.3-2.6,0.9-5.3,2.3-7.5c2.4-3.9,5-7.7,8.1-11c0.8-0.8,1.5-1.7,2.2-2.5
		c2.8-3.2,6.2-5.4,10.3-5.7c0.8,0,1.4,0.1,2.1,0.2c-0.5-1.1-1-2.2-1.4-3.3c-0.2-0.5-0.4-1-0.6-1.5c-2.1-5-4.7-8.1-8.2-9.9
		c-3.8-1.9-7.4-3.2-11-3.9c-3.8-0.8-7.8-1.6-11.7-2.1c-6.9-0.9-14-2.8-22.1-6.1c-2.1-0.8-4.3-1.5-6.4-2.1c-0.7-0.2-1.5-0.4-2.2-0.7
		c-2.8-0.8-5.1-1-7.4-0.8c-13.7,1.5-24.6,6.4-33.2,15.1c-2.7,2.7-5.5,4.8-8.6,6.5c-2,1-3.8,2.3-5.6,3.8c-6.7,5.8-10,11.9-10.3,19.2
		c0,0.6,0,1.3,0,1.9c0,1.6-0.1,3.2-0.3,4.8c2.2-0.9,4.3-2,5.9-3.9c1-1.2,2.3-2.1,3.8-2.7l0.1,0c0-0.9,0.1-1.7,0.5-2.4
		c1-2.3,1.9-4.6,2.9-6.9c0.7-1.7,1.9-2.8,3.7-3.1c1.1-0.2,2.2-0.4,3.3-0.6c0.8-0.1,1.5,0,2.1,0.4c0.4,0.2,0.8,0.6,0.8,1.1
		c0,0.6-0.4,1-0.9,1c-1.7,0.2-1.8,1.1-1.5,2.5c0.3,1.2-0.1,2.5-0.1,3.8c0,2.4,0.1,2.5,2.5,2.6c7.4,0.2,13,3.7,17.1,9.8
		c2.6,3.8,3.2,8,2.6,12.4c-0.1,0.9-0.4,1.8-0.8,2.7c-1.5,2.9-4.5,4-7.5,2.5c-1.4-0.7-2.4-1.7-3.3-3c-0.4-0.7-0.8-1.3-1.2-2
		c0,0.3-0.1,0.6-0.1,0.9c-0.3,1.9-0.4,3.9-0.6,5.8c-0.1,1.5-0.2,3-0.4,4.5c-0.1,0.6,0,1.1,0.4,1.7c2.7,5,3.8,10.6,4.6,15.4
		c0.7,4.2,0.3,8-1.3,11.7c-0.2,0.7-0.3,1.3,0,1.8c0.5,1.2,1,2.4,1.6,3.5c2.2,4,3.5,8.2,3.8,12.1c0.8,6.7-1,13.3-5.3,19.4
		c-1.2,1.7-2.7,3-4.3,3.8c-0.6,0.4-0.7,0.7-0.7,1.2c0,0.5,0,0.9-0.1,1.4c-0.1,1.8-0.1,3.7-0.5,5.5c-0.1,0.8,0.4,1.5,0.9,2.3l0.1,0.1
		c3.1,4.4,3.1,9.3,2.8,13c-0.3,3.6-1.9,6.8-3.2,9.2c-1.9,3.5-3.9,7-6.3,10.1c-1.6,2.1-2.4,4.6-3.4,7.2c-0.2,0.5-0.3,1-0.5,1.4
		c-0.2,0.4-0.1,1,0,1.5c0.1,0.3,0.1,0.5,0.1,0.8c0.6,3.9,1.2,8,1.4,12.2c0.2,2.7,0,5.3-0.3,7.3l-0.1,0.9h-0.5c0,0.4,0,0.8,0,1.2
		c-0.2,3.2-0.9,6.3-2.4,9.2c-0.8,1.5-1.5,3.1-2.3,4.7c-2.4,4.6-3.4,9.4-3.3,14.4c0.1,6.7-1.7,12.7-5,18.3c-2.7,4.7-4.7,9.7-6.3,14.9
		l0.4,2.5c0.2,1.3,0.5,2.6,0.7,3.8c0.2,1.1,0.4,2.1,0.6,3.2c0.4,2.4,1.1,4.2,2.3,5.8c1.3,1.7,2.3,3.8,3.2,5.7c0.2,0.5,0.5,1,0.7,1.5
		c0.9,2,1.2,4,1.4,5.9c0.5,6-0.1,10.8-2,15.1c-0.5,1.2-0.9,2.5-1.3,3.8c-0.4,1.4-0.9,2.8-1.3,4.2c-1.3,4-2.7,8.1-3.3,12.3
		c-0.1,0.4-0.1,0.8-0.2,1.2c-0.2,1.8-0.5,3.6-1,5.3c-0.5,1.6-1.6,2.9-2.6,4.2c-0.5,0.6-1,1.2-1.4,1.8c-0.9,1.4-1.7,2.7-2.3,4l-1,2.1
		c-0.1,3.5-0.1,6.9-0.1,10.4c0.1,6.7-0.8,13.2-2.7,19.6c-2.2,7.5-3.1,15.1-2.1,23c1.1,8.4,3.3,16.5,6.8,24.2
		c2.9,6.2,7.1,11.2,13.3,14.3c0.5,0.2,1.1,0.5,1.4,0.9c0.8,1.3,2,1.3,3.3,1.2c1.5-0.1,3-0.4,4.5-0.8c8.4-2.2,14.8-7.6,20.8-13.6
		c0.7-0.8,1.5-1.6,2.3-2.5l0.1-1.7c0.3-3.5,0.1-6.6-0.8-9.8c-0.4-1.8-1.1-3.9-2.5-5.4c-1-1.3-1.2-2.6-0.5-4c0.4-1,0.9-2,1.4-3
		c0.4-0.9,0.9-2.1,1.1-3.3c0.1-0.9-0.3-1.8-0.6-2.8c-0.1-0.4-0.2-0.4-1-0.3c-0.3,0-0.7,0.1-1,0c-0.3,0-0.6,0-0.9,0
		c-1.1,0-2.2-0.1-3.2-0.5c-2.4-1.1-4.8-0.4-7.3,0.3c-0.3,0.1-0.7,0.2-1,0.3c-0.6,0.2-1.2,0.4-1.9,0.5c-1.4,0.1-2.5-0.3-3.1-1.3
		c-0.6-0.9-0.6-2.2,0-3.3c1-1.8,2.4-3.1,3.8-4.4l0.4-0.4c0.4-0.4,0.8-0.7,1.2-1.1c0.2-0.2,0.4-0.3,0.6-0.5c1.8-1.7,4-2.6,6.4-2.7
		c0.8,0,1.5-0.1,2.3-0.2c0.4,0,0.8-0.1,1.2-0.1c1.8-0.2,2.8-0.9,3.4-2.6c1.2-3,2.3-5.4,3.5-7.5c0.7-1.3,0.7-2.3,0.2-3.4
		c-1.8-3.6-2.1-7.3-1.1-11.2c0.1-0.5,0.1-0.8,0-1.3l0-0.3c-0.1-0.6-0.2-1.2-0.2-1.9v-0.8c-2.4-1.8-4.6-3.9-6.8-6.2
		c-2.9-3.1-5.2-6.4-6.7-10.2c-2-5.3-3.4-10.7-3.8-16.3c-0.2-4-0.6-8-1.3-11.9c-0.4-2.3-0.6-4.6-0.6-6.9c0-1.6,0.1-3.2,0.4-4.7
		l-1.6-1.1c-0.4-0.4-0.8-1.1-1-1.5l0,0c-0.7-1.6-1.5-3.3-2.3-4.9c-1.4-2.8-2.8-5.7-3.9-8.8c-1.1-3.5-1.3-6.6-0.7-9.5
		c0.5-2.6,0.9-5.2,1.2-7.8c0.1-0.8,0.2-1.7,0.4-2.5c0.9-5.4,3.2-10.5,7-15.6c0.7-0.9,1.3-1.8,2-2.7c1.3-1.7,2.7-3.5,3.9-5.4
		c3.6-5.3,6-11.3,7.1-17.9c0.1-1.1,0.4-2.2,0.9-3.4l0.3-0.6h0.7c0.8,0,1.2,0.4,1.4,0.7c0.3,0.4,0.3,0.8,0.3,1c0,0,0,0.1,0,0.1
		c0.2,1.1,0.4,2.1,0.5,3.1c0.8,4.5,1.5,8.8,3.3,12.9c1.4,3.2,2.8,6,4.5,8.5c2.8,4.2,6.4,6.2,10.9,6c2.3-0.2,4.5-1.1,6.4-2.6
		c1.2-1,2.5-1.4,4.1-1.4c3.2,0,6.4,0.3,9.7,0.9c3.5,0.6,7.5,1.4,11.4,1.4c6.8,0,11.7-1.6,15.5-5.1c3.6-3.3,4.8-7.8,5.5-11.8
		c0.9-5,0-9.9-1.1-14c-0.1-0.3-0.2-0.7-0.3-1.1c-0.3-1.3,0.3-2.6,1.4-3.3c1.2-0.7,2.5-0.7,3.6,0.1c0.8,0.7,1.4,1.5,1.9,2.5
		c0.8,1.7,1.4,3.4,2,5.4c0.3,1.3,0.6,1.8,1.3,2c0.9,0.3,1.6,1.1,2.1,1.9c1.6,2.1,3.5,4.7,4.9,7.6c1.2,2.4,2.8,4.4,4.5,6.6l0.9,1.1
		c4.9,5.9,8.2,12.9,9.6,20.6c0.7,4,0.9,8.3,0.4,13.4c-0.6,6-2.2,11.9-3.7,17.3c-0.5,1.6-1.4,3.6-3.3,4.8c3.1,6.4,3.7,13,2.3,20.2
		c-1,4.9-2.4,9.8-3.4,14.7c-1.1,5.1-3,9.9-5.1,14.7c-0.8,1.6-1.9,3.1-3,4.6c-1.2,1.5-2.3,2.8-3.6,4c2,1.3,3.2,3.5,3.3,6.1
		c0.1,2.9-0.5,5.5-1.1,7.4c-0.7,2.4,0.4,4.9,2.6,6c1.5,0.8,3.1,1.8,4.3,3.4c0.2,0.3,0.3,0.4,0.4,0.5c0.5,0.2,1.2,0.5,1.5,1.3
		c0.3,0.7,0,1.5-0.3,1.9c-0.1,0.1-0.1,0.4-0.1,0.7c0,4-2,6.7-6.3,8.1c-1.6,0.6-3.5,0.9-5.4,0.8c-0.1,0-0.1,0-0.2,0
		c0,0.1,0,0.2,0,0.3c0.5,3.6,0.9,7.3,1.3,10.7c0.2,1.5,0.6,2.6,1.3,3.3c2.3,2.6,3.7,5.9,4.2,10.5l0,0.1c0,0.7,0,1.5-0.1,2.2
		c-0.9,4.5-0.4,9.3,1.4,14.3c0.2,0.5,0.5,1.2,0.8,1.8l1.5,3c1.2,1.2,2.5,2.4,3.9,3.5c2.1,1.6,4.4,3,6.9,3.8
		c5.4,1.7,10.8,3.3,16.4,4.4c3.3,0.6,6.6,0.7,10,0.1c2.1-0.3,3.9-1.2,5.5-2.6c3.6-3.2,5.9-7.1,7.4-11.6c2-6,4.1-12.1,6.3-18.1
		c0.3-0.9,0.5-1.7,0.7-2.6c0-2.1-0.1-4.1-0.1-6.2C606.5,477.6,606.5,477.3,606.5,477z M469.7,229.8c-1.1,3.4-2.1,6.9-3.2,10.3
		c-0.6,2.2-1.5,4.2-2.9,6c-1.3,1.6-3,2.6-4.9,2.7c-3.5-0.1-5.3-3.2-3.8-6.2c0.8-1.7,2.1-3.1,3.6-4.1c5.1-3.3,4.3-8,3.4-12.8
		c-0.3-1.3-1-2.5-1.5-3.8c-1.4-3.5-2.2-7.1-0.8-10.9c0.7-2.1,0.9-4.4,1.2-6.6c0.2-2,1.9-2.8,3.1-4c0.6-0.5,1.4,0.1,1.3,1
		c-0.1,0.5-0.4,0.9-0.5,1.4c-0.8,2.9-0.6,5.8,0.3,8.7c0.3,1,0.9,1.8,1.8,2.4c0.6,0.5,1.3,0.9,2,1.3c2,1.2,2.8,2.9,2.9,5.3
		C471.4,223.7,470.6,226.7,469.7,229.8z"/>
	<polygon class="st0" points="549.9,448.2 549.9,448.2 549.9,448.2 	"/>
	<path class="st0" d="M422.3,650.6c-0.5,0.4-0.9,1-1.3,1.6c-0.2,0.3-0.4,0.6-0.6,0.9c-5.2,7.1-12.1,10.9-20.3,11.4l-0.9,0
		c-1.6,0.1-3,0.1-4.3,0.5c-6.6,1.8-10.8,4.7-13.5,9.2c-0.6,1-1.2,2-1.9,3.1c-0.3,0.4-0.6,0.9-0.9,1.4c-1.5,2.3-3,4.7-5.6,6.4
		c-0.3,0.2-0.6,0.5-0.8,0.9h43.4l0.2-0.3c2.7-4,4.7-7.2,6.5-10.2l0.7-1.2c2-3.7,4.2-7.5,5-11.8c1-4.5-0.2-8.4-3.6-11.8
		C423.3,649.7,423.3,649.7,422.3,650.6z"/>
	<path class="st0" d="M591.3,209.6c2.9,2.1,5.9,1.2,7-2.2c1.4-4-0.7-8.8-4.6-10.7c-1.3-0.6-2-0.6-3.2,0.5c-1.6,1.5-2.3,3.4-2.4,5.5
		C588.1,205.5,589.3,208.1,591.3,209.6z"/>
	<path class="st0" d="M603.2,222.7c-3.2,4.2-7.5,6.3-12.4,7.6c-5.4,1.4-12.5-1.1-15.5-5.4c-3.8-5.5-5.6-11.6-5.1-18.3
		c0-0.4,0.3-1-0.4-1.6c-2.1,3.8-3.7,7.6-5.4,11.4c-0.3,0.6-0.2,1.1,0.3,1.5c2.3,1.7,3.6,4.3,5.1,6.6c1.4,2.1,3.1,4.1,4.9,5.9
		c2.3,2.2,4.9,3.4,8.1,3.8c7.2,1,13.9,0.1,19.2-5.5c3.4-3.6,6.8-7.4,11.1-10.3c-1.7-1.8-2.6-4-4-6.4
		C608.1,216.5,605.6,219.6,603.2,222.7z"/>
	<path class="st0" d="M390.1,233.2c3.1,3.1,7,4.9,11.4,5.6c4.5,0.8,8.8-0.1,13-1.4c3.2-0.9,6.4-1.9,8.9-4.4c2.1-2.1,4.1-4.3,6.2-6.4
		c0.7-0.8,1.3-1.7,1.9-2.7c0.3-0.5,0.5-0.9,0.5-1.6c-0.7-1.8-1.4-3.7-2.1-5.5c-0.1,0-0.3,0.1-0.5,0.1c-0.2,0.6-0.4,1.1-0.6,1.6
		c-1.6,5.1-4.4,9.4-8,13.2c-5,5.3-11.3,6.8-18.2,5.7c-8.1-1.3-15.2-8.8-16.7-17.2c-0.3-1.4-0.5-2.9-0.7-4.3c-1,2.4-1.6,4.7-2.6,7
		c-0.2,0.6,0.2,1.1,0.5,1.5C385.4,227.4,387.4,230.5,390.1,233.2z"/>
	<path class="st0" d="M410.5,213.6c3.7-0.2,6.3-2,6.5-5.9c0.1-1.8-0.9-3.3-2.1-4.6c-1.5-1.7-3.5-2.8-5.2-4.2c-0.5-0.4-1-0.3-1.5,0
		c-2.9,1.9-4.6,4.4-4.9,7.5c0,1,0,1.7,0.3,2.4C404.6,211.3,407.9,213.8,410.5,213.6z"/>
	<path class="st0" d="M814.5,667.1c-1.8-3.4-3.8-6.6-6.2-9.5c-2.4-3-5.1-5.6-8-8c-2.9-2.3-6.1-4.3-9.5-6l-5-2.2
		c-0.5-0.5-1.1-0.9-1.6-1.4c-1.2-1.1-2.6-2.1-4-2.9c-5.9-3.3-12.6-5.2-19.2-6.3c-3.4-0.5-6.7-0.9-10.1-1.1c-2.2-0.2-4.4-0.1-6.6-0.4
		c-2.4-0.3-4.7-1.4-7.1-1.6c-0.9-0.1-1.9,0-2.8,0.1c-7.8,0.8-15.5,1.9-22.9,4.2c-3.7,1.1-7.4,2.5-10.9,4.3c-3.3,1.7-6.3,4.1-9.8,5.5
		c-0.8,0.3-1.7,0.6-2.5,1c-17.8,7.7-33.7,22.7-39.9,41.3c1.6-0.4,3.5,0.3,4.8-0.8c0.5-0.5,0.8-1.1,1.1-1.7
		c2.9-6.2,5.7-12.6,10.5-17.4c5.9-5.9,15.3-8.2,22.3-2.8v-0.1l0.1,0.1c0.4,0.3,0.8,0.6,1.2,1c0.1,0.1,0.3,0.2,0.4,0.3
		c0.5,0.4,0.9,0.9,1.3,1.4c0.1,0.1,0.1,0.2,0.2,0.3c-0.6,0-1.2,0-1.8,0.1c-1.2,0.2-2.5,0.5-3.7,0.9c-2.4,0.9-4.6,2.3-6.7,3.7
		c-0.6,0.4-1.1,0.7-1.6,1.1l-0.8,0.6l-1.4,1.1l-0.7,0.6c0,0,0.7-0.2,0.8-0.2c3.7-1,7.4-1,10.9,0.6c0.2,0.1,0.5,0.2,0.8,0.4
		s0.5,0.3,0.8,0.5c0.5,0.3,1,0.7,1.5,1.1c0.9,0.9,1.8,1.8,2.5,2.8c0.8,1.1,1.5,2.3,2.1,3.6c-0.1,0.4-0.2,0.7-0.3,1.1
		c-0.1,0.3-0.2,0.5-0.2,0.7v0.1c-0.1,0.4-0.2,0.8-0.2,1.2c0,0.1,0,0.2,0,0.3c0.1,0.1,0.1,0.2,0.1,0.3c0,0.2,0.1,0.4,0.1,0.6
		c0,0.1,0,0.1,0,0.1c0.1,0.7,0.3,1.3,0.4,2c0.1,0.8,0.3,1.6,0.5,2.4c1,1.7,2.1,3.4,2.7,5.2c0.1,0.1,0.1,0.3,0.2,0.5v0.1
		c0,0.2,0.1,0.3,0.1,0.5c0,0.1,0.1,0.3,0.1,0.5c0,0.1,0,0.1,0,0.2c0,0.2,0.1,0.3,0.1,0.5v0.1c0.1,0.2,0.1,0.3,0.1,0.5
		c0,0.1,0,0.1,0,0.2c0,0.1,0,0.3,0,0.4s0,0.2,0,0.3c0,0.1,0,0.3,0,0.4s0,0.2,0,0.3s0,0.2,0,0.3c0,0.2,0,0.4,0,0.6v0.1
		c0,0.1,0,0.3,0,0.4c0,0.2,0,0.5,0,0.8c0.1,0.1,0.2,0.3,0.3,0.4c0.5,0.7,1.1,1.4,1.6,2c0.3,0.2,0.5,0.5,0.8,0.8
		c2.2,2,4.6,3.8,7.6,4.5c4.7,1,9.6-0.5,14.4-0.1c1,0.1,1.9,0.3,2.8-0.1c1.6-0.7,2.6-3.3,3.5-4.8c1.3-2.3,2.4-4.7,3.3-7.1
		c1.8-4.6,2.8-9.5,3.2-14.5c0.6-7.8-0.8-15.7-3.9-22.9c-1.6-3.6-3.5-7-5.8-10.2c-2.3-3.1-4.9-6.1-7.8-8.7c-0.4-0.4-0.7-0.7-1.1-1
		l-1.9-1.6h0.1h0.2l0.4,0.1l0.7,0.2l1.1,0.3l0.4,0.1l0.4,0.1l0.7,0.2c1.9,0.5,3.7,1.3,5.5,2.2c16.2,8.4,23.3,25.6,24.3,43
		c0,0.1,0,0.2,0,0.3c0,0.6,0,1.1,0,1.6c-0.1,0.5-0.1,1-0.1,1.5s-0.1,0.9-0.1,1.4c0,0.1,0,0.1,0,0.2c0,0.3-0.1,0.6-0.1,0.9
		c-0.1,0.3-0.1,0.7-0.2,0.9c0,0.2-0.1,0.4-0.1,0.6c-0.4,2.9-1.4,5.7-2.3,8.5c-0.9,3-2.6,5.8-1.4,8.9c2.6,6.5,8.4,8.6,14.8,9.6
		c0.8,0.1,1.7,0.2,2.5,0.3c1.1,0.2,2.1,0.3,3.2,0.4c1.2,0.1,2.5,0.3,3.7,0.4c0.2,0.1,0.5,0.1,0.7,0.1c0.2,0,0.4,0,0.6,0
		c0.4,0,0.9,0,1.3,0v-0.1c0.6-2.5,1.9-4.7,3-6.9c5.4-10.5,7.5-22.9,5.8-34.8c-1.6-11.1-7.8-21.3-15.5-29.1c-0.7-0.7-1.6-1.7-1.4-2.8
		c2.7,0.7,5.6,3,8,4.5c2.9,1.8,5.8,3.8,8.4,6c4.8,4,9.3,9.2,10.3,15.6c1.9,12.3,5.3,13,3.7,25.3c-0.5,3.3-2.4,6.2-3.1,9.5
		c-0.9,4.5-1.2,8.8-2.9,13.2c-0.1,0.2-0.3,0.5-0.3,0.8c0,0.3-0.2,2.6-0.8,2.4c2.2,0.8,12.9,2.8,13.4-1l0.3-2.1l2.6-14.8
		c2.6-14.5,3-29-3.6-42.6c-1.4-2.9-3.9-8.4-5.7-10.1c0.3,0.2,0.5,0.4,0.7,0.6c3.6,3.4,7,6.6,9.7,10.9c3.1,5,5.8,10.5,7.9,16
		c0.2,0.4,0.3,0.9,0.5,1.3c0.5,1.8,1,3.6,1.4,5.4c0.7,3.7,1.1,7.3,1.1,11c-0.1,3.7-0.5,7.4-1.3,10.9c-0.3,1.1-0.6,2.1-0.9,3.2
		c0.4-0.1,0.7-0.2,1-0.3c0.9-0.4,1.7-1,2.3-1.7s1.2-1.6,1.6-2.4c0.4-0.8,0.8-1.7,1.1-2.6c0.2-0.5,0.3-0.9,0.4-1.4
		C821.1,692,819.9,678.5,814.5,667.1z"/>
	<path class="st0" d="M299.3,642.8c-0.8-0.3-1.7-0.7-2.5-1c-3.5-1.4-6.4-3.8-9.8-5.5c-3.5-1.8-7.2-3.2-10.9-4.3
		c-7.5-2.3-15.2-3.4-22.9-4.2c-0.9-0.1-1.9-0.2-2.8-0.1c-2.4,0.1-4.7,1.2-7.1,1.6c-2.2,0.4-4.4,0.3-6.6,0.4
		c-3.4,0.2-6.8,0.5-10.1,1.1c-6.7,1.1-13.3,3-19.2,6.3c-1.4,0.8-2.7,1.8-4,2.9c-0.5,0.4-1.1,0.9-1.6,1.4l-5,2.2
		c-3.4,1.6-6.5,3.7-9.5,6c-2.9,2.4-5.6,5.1-8,8c-2.4,2.9-4.5,6.1-6.2,9.5c-5.8,11.5-6.9,25-3.6,37.3c0.1,0.5,0.2,0.9,0.4,1.4
		c0.3,0.9,0.7,1.8,1.1,2.6c0.4,0.9,1,1.7,1.6,2.4c0.6,0.7,1.4,1.3,2.3,1.7c0.4,0.1,0.7,0.2,1,0.3c-0.4-1-0.6-2.1-0.9-3.2
		c-0.8-3.6-1.2-7.2-1.3-10.9c0-3.7,0.4-7.4,1.1-11c0.3-1.8,0.8-3.6,1.4-5.4c0.2-0.4,0.3-0.9,0.5-1.3c2.1-5.5,4.8-11,7.9-16
		c2.7-4.3,6.1-7.5,9.7-10.9c0.3-0.2,0.5-0.4,0.7-0.6c-1.8,1.7-4.3,7.2-5.7,10.1c-6.6,13.6-6.2,28-3.6,42.6l2.6,14.8l0.3,2.1
		c0.5,3.6,10.3,1.9,13.1,1.1c0.1,0,0.3-0.1,0.3-0.1c-0.2,0.1-0.4-0.4-0.5-1c-0.1-0.6-0.2-1.3-0.3-1.4c0-0.3-0.2-0.5-0.3-0.8
		c-1.7-4.4-2-8.6-2.9-13.2c-0.7-3.2-2.7-6.2-3.1-9.5c-1.6-12.3,1.8-13,3.7-25.3c0.9-6.4,5.5-11.6,10.3-15.6c2.6-2.2,5.5-4.2,8.4-6
		c2.4-1.5,5.3-3.8,8-4.5c0.2,1-0.7,2.1-1.4,2.8c-7.7,7.9-13.9,18.1-15.5,29.1c-1.6,11.9,0.4,24.4,5.8,34.8c1.1,2.3,2.4,4.4,3,6.9
		v0.1c0.4,0,0.9,0,1.3,0c0.2,0,0.4,0,0.6,0c0.2-0.1,0.5-0.1,0.7-0.1c1.2-0.2,2.5-0.3,3.7-0.4c1.1-0.1,2.1-0.3,3.2-0.4
		c0.8-0.1,1.7-0.2,2.5-0.3c6.4-1,12.2-3,14.8-9.6c1.3-3.1-0.4-5.9-1.4-8.9c-0.9-2.8-1.9-5.6-2.3-8.5c0-0.2-0.1-0.4-0.1-0.6
		c-0.1-0.3-0.2-0.7-0.2-0.9c0-0.3-0.1-0.6-0.1-0.9c0-0.1,0-0.1,0-0.2c0-0.5-0.1-0.9-0.1-1.4c-0.1-0.5-0.1-1-0.1-1.5
		c0-0.6,0-1.1,0-1.6c0-0.1,0-0.2,0-0.3c1-17.4,8-34.5,24.3-43c1.8-0.9,3.6-1.6,5.5-2.2l0.7-0.2l0.4-0.1l0.4-0.1l1.1-0.3l0.7-0.2
		l0.4-0.1h0.2h0.1l-1.9,1.6c-0.4,0.3-0.8,0.7-1.1,1c-2.9,2.6-5.5,5.5-7.8,8.7c-2.3,3.2-4.2,6.6-5.8,10.2c-3.1,7.1-4.5,15.1-3.9,22.9
		c0.4,4.9,1.4,9.8,3.2,14.5c0.9,2.5,2,4.8,3.3,7.1c0.8,1.5,1.8,4.1,3.5,4.8c0.9,0.3,1.9,0.2,2.8,0.1c4.8-0.4,9.7,1.2,14.4,0.1
		c3-0.7,5.3-2.5,7.6-4.5c0.3-0.2,0.5-0.5,0.8-0.8c0.5-0.7,1.1-1.3,1.6-2c0.1-0.1,0.2-0.3,0.3-0.4c0-0.2,0-0.5,0-0.8
		c0-0.1,0-0.3,0-0.4v-0.1c0-0.2,0-0.4,0-0.6c0-0.1,0-0.2,0-0.3s0-0.2,0-0.3c0-0.1,0-0.3,0-0.4s0-0.2,0-0.3c0-0.1,0-0.3,0-0.4
		c0-0.1,0-0.1,0-0.2c0.1-0.2,0.1-0.3,0.1-0.5v-0.1c0-0.2,0.1-0.3,0.1-0.5c0-0.1,0-0.1,0-0.2s0.1-0.3,0.1-0.5s0.1-0.3,0.1-0.5v-0.1
		c0.1-0.1,0.1-0.3,0.2-0.5c0.7-1.9,1.7-3.5,2.7-5.2c0.2-0.8,0.3-1.6,0.5-2.4c0.1-0.7,0.3-1.3,0.4-2c0-0.1,0-0.1,0-0.1
		c0-0.2,0.1-0.4,0.1-0.6c0.1-0.1,0.1-0.2,0.1-0.3s0-0.2,0-0.3c-0.1-0.4-0.1-0.8-0.2-1.2v-0.1c-0.1-0.3-0.1-0.5-0.2-0.7
		c-0.1-0.4-0.2-0.7-0.3-1.1c0.6-1.2,1.3-2.5,2.1-3.6c0.7-1,1.6-2,2.5-2.8c0.5-0.4,1-0.8,1.5-1.1c0.3-0.2,0.5-0.3,0.8-0.5
		c0.2-0.1,0.5-0.3,0.8-0.4c3.5-1.6,7.2-1.6,10.9-0.6l0.8,0.2l-0.7-0.6l-1.4-1.1l-0.8-0.6c-0.6-0.4-1.1-0.7-1.6-1.1
		c-2.1-1.5-4.3-2.8-6.7-3.7c-1.2-0.4-2.4-0.8-3.7-0.9c-0.6-0.1-1.2-0.1-1.8-0.1c0.1-0.1,0.1-0.2,0.2-0.3c0.4-0.5,0.8-1,1.3-1.4
		c0.1-0.1,0.3-0.2,0.4-0.3c0.4-0.3,0.8-0.7,1.2-1l0.1-0.1c0,0.1,0,0.1,0,0.1c7-5.4,16.4-3.1,22.3,2.8c4.8,4.8,7.6,11.2,10.5,17.4
		c0.3,0.7,0.6,1.3,1.1,1.7c1.3,1.1,3.2,0.4,4.8,0.8C332.6,665.5,316.7,650.5,299.3,642.8z M291.7,639.4
		C291.7,639.4,291.8,639.4,291.7,639.4L291.7,639.4z"/>
</g>
<g>
	<path class="st1" d="M625.8,638.1c-3.9-4.3-7-9.4-9.4-13.8c-1.1-1.9-2.1-3.8-3.2-5.7c-2.7-4.8-5.5-9.8-8.2-14.8
		c-2.1-4-3.8-8.2-5.3-12.2c-2.1-5.6-3.7-11.4-5.2-17c-0.6-2.2-1.2-4.5-1.9-6.7c-0.9-3-1.6-6.1-2.2-9.3c-0.1,5-0.2,10.1-0.4,15.1
		c-0.3,12,0.5,23.9,2.1,35.7c1.5,11.4,5.5,22,12.4,31.3c8.5,11.4,18.7,21.2,31.1,28.5c2.5,1.5,5,2.9,7.6,4.2
		c0.3-0.5,0.6-0.9,0.9-1.3c0.2-0.3,0.3-0.5,0.5-0.8c0.4-0.7,1-1.4,1.5-2.1c0,0,0-0.1,0.2-0.4c2.1-3.1,4.3-6.2,6.7-9.2
		c0.4-0.5,0.8-1.1,1.2-1.6c-2.3-0.9-4.4-1.9-6.3-2.9C638.8,650.1,631.5,644.5,625.8,638.1z"/>
	<path class="st1" d="M310.2,380.2c-0.2-0.4-0.4-0.8-0.6-1.2c-3.4-6.2-6.8-12.7-9.6-19.4c-3-7.4-5.3-13.6-6.8-20.4
		c-1.5-7.1-2-13.4-1.6-19.3c0-0.4,0.1-0.8,0.1-1.2c0.2-1.6,0.4-3.1,0-4.6l-2.1-8.2l0.5,1c-0.6-3.1-0.7-6.3-0.4-9.6
		c0.8-9,2.1-17.9,4.5-26.5c2.7-9.8,5-19.6,7.2-29.4c1-4.4,1.6-8.8,2-13.2c-0.5-0.2-0.9,0.1-1.2,0.3c-2.9,1.8-5.6,3.9-7.8,6.6
		c-5,5.9-8.6,12.7-11.1,20c-3.2,9.4-5,19-5.6,28.9c-0.5,8-0.7,16-0.9,24c-0.1,4.6-0.5,9.1-1.3,13.6c-1,5.8-2.2,11.5-3,17.3
		c-2.7,19.4-3.5,38.9-3.6,58.4c-0.1,7.7,0.6,15.2,2.6,22.6c2.8,10.1,4.7,20.3,6,30.6c0.5,3.8,1,7.7,0.3,11.5
		c-0.1,0.6-0.2,1.2-0.5,1.8c-0.5,0.8-1.2,1.3-2.2,1.2c-0.9,0-1.5-0.5-1.8-1.3c-0.2-0.5-0.3-1.1-0.4-1.6c-1.1-6.7-3.2-13.1-5.1-19.6
		c-0.9,2.6-1.8,5.1-2.9,7.6c-0.1,0.2-0.1,0.6-0.1,0.9c-0.3,3.5-0.6,7-1,10.5c-1.3,10.7-3.3,21.3-7.1,31.5
		c-2.8,7.3-5.6,14.6-8.5,21.9c-2.9,7.5-6,14.8-8.6,22.4c-5,15-8.4,30.4-12.8,45.5c-1,3.6-0.7,7.2,0.6,10.8c1.4,3.9,3.5,7.4,5.9,10.7
		c3.6,5,7.6,9.6,11.5,14.3c4.3,0,8.5,0.2,12.7,0.7c1.9,0.2,3.8,0.5,5.8,0.8c-0.7-0.9-1.3-1.8-1.8-2.7c-4-6.5-6.5-13.8-7.7-22.6
		c-0.9-5.8-1.7-12-1.9-18.2c-0.2-4.5,0.4-8.9,0.9-13.2l0.2-1.4c0.4-3.1,0.9-6.7,0.9-10.4l0-2.7c0.1-4.3,0.2-8.3-0.5-12.4
		c-0.5-3.1-0.5-6.6,0.1-10.8c0.6-4.3,1.5-9.3,4-13.8c0.9-1.7,2-3.1,3-4.3c1.9-2.2,5-3.3,7.9-2.9c3,0.5,5.4,2.5,6.7,5.6
		c0.7,1.6,1.2,3.4,1.7,5.1c0.2,1.1,0.6,1.3,1.5,1.4c2.5,0.2,5,1.2,7.6,2.9c2,1.3,4.1,1.9,6.4,1.8c1.1-0.1,2.2-0.1,3.4,0
		c2,0,4,0.1,5.9-0.4c0.4-0.1,0.7-0.2,1.1-0.2c0.9-0.2,1.8-0.3,2.5-0.8c1.5-0.9,2.4-2.5,2.4-4.1c0-0.7,0-1.5,0.1-2.2
		c0.1-3.5,0.2-7.1-0.3-10.6c-0.3-1.4-0.3-2.8-0.4-4.1c0-0.8-0.1-1.6-0.1-2.3c-0.6-5.7-1.7-11.9-3.5-19.6c-1.4-6.3-3.1-12.9-5.7-19.3
		c-1.1-2.6-2.2-5.1-3.3-7.7l-1.1-2.4c-2.2-5.1-3.6-10.9-4.3-17.2c-0.2-2.5-0.4-5.1-0.4-7.7c0-2.7,0.7-5.1,2-7.3
		c1.7-2.7,4.2-4.1,7.5-4c3.7,0.1,5.4,2.6,6.4,4.4c1,1.7,1.4,3.5,1.8,5.2c0.9,3.6,1.8,6.6,2.9,9.3c0.2,0.5,0.4,0.9,0.6,1.3
		c0.1,0.1,0.1,0.2,0.2,0.3c0.1-0.1,0.1-0.2,0.2-0.3c1-1.8,1.8-3.7,2.3-5.7c1.8-7.1,2.7-12.6,3-17.9c0.1-1.4,0.2-2.8,0.3-4.1
		c0.3-3,0.5-6.2,0.5-9.2c0-4.3-1.1-7.7-3.4-10.5C311.7,383.2,310.9,381.7,310.2,380.2z"/>
	<path class="st1" d="M728.1,516.4c1.1-0.1,1.9,0.7,2.4,2.6c0.6,2.3,1.1,4.7,1.6,7c1.2,6,2.2,12,3.9,17.8c0.2,0.9,0.2,1.9,1.1,2.6
		c0.1-0.3,0.3-0.6,0.4-0.9c1.9-6.4,4.3-12.7,6.6-19c2.3-6.5,4-13.1,4.9-20c1.2-8.9,0.9-17.7-1.5-26.4c-1.6-5.7-3.3-11.3-4.8-16.9
		c-2-7.5-4.3-14.8-5-22.5c-1.2-12.9-2.1-25.9-1.9-39c0.2-10.8,0.6-21.6,0.4-32.4c-0.3-19.7-0.4-39.3-1.4-59
		c-0.4-8.4-0.7-16.8-1.8-25.1c-2.1-15.2-7.5-29-17.5-40.9c-2.1-2.4-4-4.8-6-7.2c-2-2.5-4.3-4.8-6.8-6.8c-3.4-2.7-6.1-6-8.6-9.6
		c-3.8-5.6-6.2-11.9-9-18c-0.5-1.2-1-2.4-1.8-3.4c-1.5-2.1-2.5-4.3-2.9-6.8c-0.3-2-1.3-3.4-2.8-4.6c-3.9-3.1-7.7-6.3-11.5-9.5
		c-1-0.8-2-1.7-2.9-2.8c-1.1-1.4-1.7-2.9-1.3-4.7c0.1-0.5,0.3-0.9,0.1-1.4c-0.8-2.6-1.1-5.5-2.1-8.1c-2.6-7.1-6.1-13.9-9.4-20.7
		c-1.4-2.9-2.9-5.8-4.7-8.4c-6.3-9.2-12.1-18.6-19-27.4c-5.1-6.4-10.7-12.3-17.1-17.4c-4.2-3.3-8.8-6.1-13.1-9.3
		c-7.9-5.9-16.4-10.5-25.1-15s-17.8-8.1-26.5-12.5c-1.8-0.9-3.8-1.6-5.7-2.4c-7.8-3.3-15.9-5.8-23.9-8.7c-4.4-1.6-8.8-3-13.4-3.6
		c-7.2-1-14.3-1.7-21.5,0.6c-11.4,3.5-22.9,6.7-34.2,10.4s-22,8.5-31.7,15.6c-6.9,5.1-13.3,10.7-19.3,16.8
		c-7,7.1-13.3,14.8-19.5,22.5c-2.8,3.6-5.5,7.3-7.7,11.3c-3.6,6.6-7.4,12.9-11.4,19.2c-2.5,3.8-5,7.6-8.5,10.6
		c-3.7,3.1-6.8,6.8-9.4,10.8c-5.4,8.4-9.6,17.3-11,27.4c-1,7.3-1.3,14.6-1.3,22c0,6.9,0.2,13.7,0.7,20.6c0.2,1.9-0.3,2.7-1.3,2.9
		c-1.1,0.2-1.7-0.4-2.3-2.3c-1-3.1-1.9-6.1-2.8-9.2c-0.2-0.7-0.3-1.4-0.8-1.9c-0.3,0.2-0.5,0.3-0.5,0.4c-0.2,0.6-0.4,1.2-0.6,1.8
		c-2.1,6.1-3.2,12.4-4.1,18.7c-1.5,10.6-3.6,21.2-4.7,32c-0.7,6.1-1.8,12.2-4,18c-1.1,3-1.8,6.1-2.4,9.3c-1.2,7.1-0.8,14.1,2.4,20.8
		c1.8,3.7,3.2,7.5,5.2,11.1c0.5,0.8,0.9,1.7,1,2.7c0,0,0,0.1,0,0.1l0.4,0.4c1.3,1.4,2.6,2.8,4,4.1c0.5,0.5,0.9,0.9,1.4,1.4
		c0.7,0.7,1.6,1.3,2.7,1.8c0,0,0.1,0,0.1,0c0,0,0,0,0,0c-0.1-1.3-0.2-2.5-0.4-3.8c-0.1-0.6-0.2-1.3-0.2-1.9c-0.5-4.3-0.5-8.7,0-13.1
		c0-0.2,0-0.4,0.1-0.5c0-0.1,0-0.2,0-0.3c0-2.3,0.2-4.5,0.3-6.7c0.2-3.7,0.5-7.6,0.2-11.4c-0.5-6.4,0.4-12.9,2.8-20.6
		c1.1-3.6,2-7.2,3-10.8c1.3-5,2.6-10.1,4.3-15.1c0.4-1.4,1-2.9,1.6-4.3c0.4-0.9,1-1.7,1.7-2.3c0.3-0.3,0.8-0.7,1.6-0.7h0.3
		c0.1-0.2,0.1-0.4,0.2-0.6c0.3-0.8,0.7-1.5,1.7-1.4c0.9,0.1,1.1,0.8,1.2,1.6c0.3,2.3,0.8,4.4,1.4,6.6c1.1,3.9,2.2,7.9,3.2,11.8
		c3.6,13.6,6.1,27.3,7.1,41.3c0.5,6.8,0.5,13.7,0.3,20.6c-0.3,13.7,4.5,25.5,12.5,36.3c0.3,0.4,0.4,1.1,1.2,1
		c-0.5-2.8-1-5.5-1.3-8.3c-1.1-10.1-1.8-20.2-3.9-30.2c-0.8-4-0.4-7.9,0.9-11.8c1-3,2.2-5.8,3.9-8.5c0.4-0.6,0.8-1.2,0.9-1.9
		c0.3-3.5,1.1-7,0.5-10.5c-0.4-2.6-0.8-5.2-1.2-7.8c-0.2-0.8-0.2-1.7,0.7-2.1c0.9-0.4,1.4,0.3,2,0.9c2,1.9,2.9,4.4,3.8,6.9
		c2.4,6.3,3.1,12.8,1.3,19.5c-0.7,2.4-1.4,4.9-1.3,7.5c0.3,7.5,2,14.4,7.9,19.7c2.8,2.4,5,5.4,6.5,8.8c0.2,0.6,0.6,1.1,1,1.6
		c2.1,2.2,2.8,4.9,3,7.9c0.3,4.4-0.4,8.6-1.7,12.8c-0.4,1.2-0.8,2.4-0.7,3.7c0.3,7.3-0.2,14.6-1.9,21.7c-0.8,3.7-1.8,7.5-2.2,11.3
		c-0.3,4-0.6,8.1,0.8,11.9c1.9,5,4.1,9.9,7.4,14.2c2.6,3.5,5.2,7,7.7,10.5c0.7,1,1.3,2,1.9,2.9c0.7-0.2,0.7-0.6,0.9-1
		c1.2-2.8,2.2-5.6,3-8.6c0.5-2.1,1.4-4.2,1.7-6.4c0.8-6.5,1.5-13,2.3-19.5c0-0.7,0.1-1.3,0.3-1.9c0.2-0.6,0.7-1,1.4-1
		c0.8,0.1,1.3,0.5,1.4,1.2c0.1,0.7,0.2,1.4,0.2,2.1c0.2,4,0.2,8,0.2,12c0,0.8,0,1.6,0,2.4l1-2.1c0.7-1.3,1.4-2.6,2.3-4
		c0.4-0.6,0.9-1.2,1.4-1.8c1.1-1.3,2.2-2.6,2.6-4.2c0.5-1.7,0.7-3.5,1-5.3c0.1-0.4,0.1-0.8,0.2-1.2c0.7-4.2,2-8.3,3.3-12.3
		c0.5-1.4,0.9-2.8,1.3-4.2c0.4-1.3,0.8-2.6,1.3-3.8c1.8-4.3,2.5-9.1,2-15.1c-0.2-1.9-0.5-3.9-1.4-5.9c-0.2-0.5-0.5-1-0.7-1.5
		c-1-2-1.9-4-3.2-5.7c-1.2-1.6-1.9-3.4-2.3-5.8c-0.2-1.1-0.4-2.1-0.6-3.2c-0.2-1.3-0.5-2.5-0.7-3.8l-0.4-2.5
		c-0.3,0.9-0.5,1.8-0.8,2.6v0.1c-1.4,5.1-1.2,10.3,0,15.5c0.3,1.7,0.8,3.3,1.2,4.9c0.1,0.6,0.2,1.2-0.4,1.5
		c-0.7,0.4-1.2-0.1-1.5-0.7c-0.3-0.6-0.6-1.2-0.8-1.8c-2.5-6.3-4-12.8-4.7-19.5c-0.4-3.2-0.4-6.3-0.2-9.3l-0.6-4
		c-0.8-5-1.6-10.9-1.4-17c0.2-5.1-0.4-9.6-1.8-13.7c-1.4-4.1-3.6-8-6.7-11.9c-1.1-1.3-2-2.8-3-4.9c-0.8-2-0.9-4-0.9-5.6
		c-0.1-2-0.1-2-1.9-2.7c-3.8-1.3-6.8-3.6-8.8-6.9c-1.1-1.8-2.4-3.2-3.8-4.5c-4.6-4.1-7.3-9-8.1-14.8c-0.3-2.4-1.4-4.7-3.4-7.2
		c-4.3-5.2-5.7-11.5-4-18.2c0.9-3.6,1.7-7.3,2.5-10.8c0.4-1.6,0.7-3.3,1.1-4.9c1.9-8.5,6.2-15.7,12.7-21.6c4.1-3.7,8.4-6.3,13.1-8.1
		c1.8-0.7,3.6-1,5.4-1.3c0.8-0.1,1.5-0.2,2.2-0.4c0.2-0.1,0.5-0.1,0.7-0.1c0.1,0,0.1,0,0.2,0c0.5-0.5,1-0.9,1.6-1.4
		c1.9-1.6,3.7-3.2,4.3-5.6c0.3-1.2,0.2-2.1-0.1-2.6c-0.3-0.4-0.9-0.7-1.9-0.9c-1.6-0.3-2.7-1.3-3.6-2.2l-0.1-0.2
		c0,0-0.1-0.1-0.1-0.1c0-0.1-0.1-0.1-0.1-0.2c-2.5,1.2-5,2.4-7.4,3.9c-1.2,0.7-2.6,1.1-4.1,1.1c-0.8,0-1.6-0.1-2.2-0.7
		c-0.4-0.4-0.7-0.8-0.5-1.3c0.2-0.6,0.7-0.3,1.2-0.2c1.2,0.2,2.1-0.5,3.1-1c3.7-2.1,7-4.6,10.1-7.6l0.3-1.7c0.1-0.5,0.1-1,0.2-1.5
		c0.1-0.8,0.2-1.6,0.4-2.4c0.1-0.4-0.2-0.7-0.7-1.3c-0.2-0.2-0.3-0.4-0.4-0.5c-1.6-2.3-3.4-4.1-5.2-5.7c-3.4-3-3-6.8-2.4-9.5
		c0.7-2.9,2.4-5.2,4.1-7.5l0.3-0.4c4.4-6,9.6-11,15.6-15.1c0.1-0.1,0.3-0.3,0.4-0.4c0.1-0.1,0.3-0.2,0.4-0.3l0.1-0.1l0.5-0.2
		c0.5-0.2,1-0.4,1.5-0.6c0.2-1.6,0.2-3.2,0.3-4.8c0-0.6,0-1.3,0-1.9c0.3-7.3,3.6-13.4,10.3-19.2c1.8-1.5,3.7-2.8,5.6-3.8
		c3.1-1.6,5.9-3.8,8.6-6.5c8.6-8.7,19.5-13.6,33.2-15.1c2.3-0.3,4.6,0,7.4,0.8c0.7,0.2,1.5,0.4,2.2,0.7c2.1,0.6,4.3,1.3,6.4,2.1
		c8.2,3.2,15.2,5.1,22.1,6.1c4,0.5,7.9,1.3,11.7,2.1c3.6,0.7,7.2,2,11,3.9c3.6,1.8,6.1,4.8,8.2,9.9c0.2,0.5,0.4,1,0.6,1.5
		c0.4,1.1,0.9,2.2,1.4,3.3c0.3,0.1,0.6,0.1,0.8,0.2c2.2,0.6,3.9,1.8,5,4.1c1.4,2.9,0.3,7.1-2.2,9.7c-0.3,0.3-0.6,0.5-0.9,0.8
		c0.2,0.2,0.4,0.5,0.5,0.8c0.2,0.3,0.5,0.4,1.2,0.6c3.4,0.9,6.6,2.7,9.5,4.5c5,2.9,7.7,7.7,8.2,14.3c0.1,1.4,0,2.8,0,4.2
		c0,0.7,0,1.4,0,2.1c-0.1,0.8,0.1,1.5,0.7,2.2c2.8,3.5,3.8,7.7,4.5,11.7c0.1,1,0,1.9-0.1,2.7l-0.1,0.8c1.7,0.5,3.4,1.4,4.8,2.8
		c0.7,0.8,1.1,1.7,1.3,2.8c0.5,2.7-1.3,4.7-4,4.7c-2.3,0-4.5-0.5-6.2-2.1c-2.4-2.3-4.7-2.1-7.6-0.7c-4.4,2.1-6.3,5.4-6.1,10.1
		c0,1,0,2.1,0,3.1c0.3,3,0.2,6-0.8,8.9l0.4,0.9c0.8,1.9,2.4,3.2,4.3,3.6c0.2,0.1,0.3,0.1,0.6-0.3c3.3-4,7.6-7.3,13.4-9.9
		c6.5-3.1,13.3-3,20,0.1c2.6,1.2,5.7,2.6,8.6,4.5c6.2,4,10.5,9.6,12.8,16.7c0.6,1.8,1.5,3.1,2.8,4.1c5.1,3.8,8.1,9.2,9,16.1
		c0.2,1.9-0.2,3.6-0.8,5c-0.8,2.3-1.3,4.6-1.8,6.9l-0.3,1.4c-1.3,6-3.8,11.1-7.6,15.5c-1.4,1.7-3.3,3.6-5.8,4.9
		c0.2,0.1,0.3,0.1,0.5,0.2c2,1.1,2.8,3,2.7,5.3c-0.1,3.3-1.1,6.3-2.9,9c-1.7,2.6-3.8,4.8-6.1,6.8c-3.3,2.8-7,4-9.9,4.2l-0.2,0.4
		c-1.5,3-3.7,6.5-7.2,8.2c-0.5,0.4-0.8,0.9-1.1,1.5c-3.8,7.4-6,14-6.8,20.6l-0.2,1.3c-0.3,2.1-0.5,4.3-0.4,6.5
		c0.1,2.3-0.3,4.6-0.6,6.8l-0.2,1c-0.2,0.9-0.3,1.6-0.4,2.3l-0.3,2.6c0.1,0.3,0.2,0.6,0.3,0.8c2.9,7.9,4.1,16.2,4.7,24.6
		c0.2,2.6,0.5,5.1,0,7.8c0.1,2.2,0.1,4.4,0.3,6.7c0.4,5.6-1.4,10.6-4.1,15.3c-0.1,0.3-0.3,0.5-0.5,0.8c-0.2,0.3-0.5,0.6-0.8,0.9
		c0,0.1,0.1,0.1,0.1,0.2c0.1,0.2,0.2,0.3,0.3,0.6c0.4,0.7,0.8,1.4,1.3,2.1c0.4,0.7,0.8,1.3,1.2,2c0.8,1.3,1.2,2.7,1.7,4.2
		c2.1,7.1,3.1,14.9,2.9,23.4c-0.1,4.6-0.4,9.5-2.1,14.3c-0.9,2.7-1.1,5.6-1.3,8.3l-0.1,0.9c-0.1,1.1,0.3,2,0.7,2.8
		c0.1,0.1,0.1,0.3,0.2,0.5c2.2,4.2,5.4,7.5,8.5,10.8c2.7,2.7,4.9,6.1,7,10.7l2.1,4.8c-0.1-0.5-0.2-1-0.3-1.6
		c-0.3-1.3-0.5-2.5-0.8-3.7c-1-4.9-1.8-9.9-1.8-15c0-2.3-0.5-4.5-1.3-6.6c-0.9-2.6-1.3-5.2-1.1-8c0.5-5.3,1-10.7,1.5-16
		c0.1-0.7,0.3-1.4,0.5-2.1c0.2-0.6,0.7-0.9,1.3-0.9c0.6,0,1.1,0.4,1.3,0.9c0.2,0.5,0.3,1,0.4,1.6c0.2,2.1,0.6,4.1,0.7,6.2
		c0.5,6.7,2.3,13.2,4.3,19.6c0.4,1.3,1.2,2.3,2.4,3.2c0.1-0.4,0.2-0.6,0.2-0.8c-0.2-3.5,0.2-7,0.7-10.5c0.7-5.1,0.8-10.2,0.1-15.3
		c-1-6.7-2.8-13.2-5.3-19.6c-2-5.2-3.6-10.6-3.4-16.3c0.1-4.8,0.6-9.5,1.5-14.1c1.4-6.8,3.9-13.2,8.4-18.6c1.6-1.9,2.4-3.9,2.6-6.2
		c0.1-1.6,0.2-3.2,0.2-4.8c0-5-0.1-9.9-0.1-14.9c0-3.3,0.6-6.7,1.5-9.9c0.6-2,1.7-3.8,3.5-5c2.5-1.7,5-1.5,7.1,0.7
		c1.3,1.3,2.2,2.8,2.8,4.5c1.5,3.9,3.2,7.7,3.8,11.9c0,0.2,0.1,0.5,0.6,0.5c0.7-1.3,0.9-2.9,1.2-4.4c0.9-4.8,0.8-9.6,0.8-14.4
		c-0.1-13.8,0.6-27.5,2.5-41.2c0.9-6.4,2.2-12.8,4.3-18.9c0.5-1.5,1.1-3,2.2-4.2c0.6-0.7,1.3-1.3,2.3-0.9c1,0.3,0.7,1.1,0.6,1.8
		c1.7-0.1,3.4,0.4,5,1.7c1.3,1,2.3,2.3,3.3,3.6c0.3,0.4,0.6,0.9,1,1.3c1.4,1.7,2.6,3.5,3.9,5.2c0.9,1.2,1.7,2.5,2.6,3.7
		c2.5,3.4,5.7,6.5,9.3,9.2c0.8,0.6,1.6,0.8,2.5,0.7c8.1-0.9,13.1,4.2,16.6,8.7c2.4,3.1,4.4,6.4,5.9,10c0.1-1.2,0.1-2.3,0.4-3.4
		c0.4-1.7,1-2.9,2-3.9c0.9-1,2.3-1.5,3.7-1.3c1.3,0.1,2.4,0.9,3,2l0.2,0.4c0.9,1.8,1.9,3.6,2.4,5.8c1.2,4.7,0.7,9.2,0,13.4
		c-0.9,5.6-2.2,11.3-3.5,16.9c-0.5,2.4-1.5,4.6-2.3,6.8c-0.6,1.5-1.2,3-1.7,4.5c-2.6,8.1-5.2,16.4-6.8,24.8l0,0.2
		c-0.6,3.5-1.1,6.8-1.1,10.3v9.8c0,0.1,0,0.3,0,0.4c0,0.6,0,1.2-0.2,1.7c-1.1,2-0.6,4-0.1,6.2c0.2,0.7,0.4,1.5,0.5,2.2l0.1,0.4
		c0.7,4.3,1.3,8.3,1.5,12.5c0.2,4.6-0.6,9.1-1.5,13.6c0.1-0.1,0.2-0.2,0.2-0.4c0.4-0.6,0.8-1.3,1.3-1.9c0.6-0.8,1.3-1.6,2-2.4
		c1.7-2,4.5-3,7.3-2.7c3,0.3,5.5,2,7,4.6c1.8,3.1,1.7,6.4,1.3,9.2c-0.6,4.4-2.3,8.5-3.9,11.9c-2.5,5.6-5.7,11.3-9.5,16.8
		c-3.2,4.7-5.8,10-8,16.3c-2.6,7.5-4.6,14.4-6.1,21c-1.7,7.4,0.6,14,2.8,18.9c0.2,0.4,0.3,0.6,0.4,0.7c0.2-0.1,0.4-0.2,0.8-0.4
		l0.6-0.4c2-1.2,4.2-2.5,6.6-3.1c3.1-0.7,6.5-0.2,9.2,1.5c2.8,1.8,4.7,4.6,5.4,8c0.8,3.5,0.1,6.7-0.6,9.8l-0.2,1.2
		c-1.5,7.7-2.2,14-2.2,20c0,6.6,1.4,13.5,4.3,21.6c2.5,6.7,5.4,13.4,8.1,19.9c1.9,4.4,3.8,9,5.7,13.5c2.4,5.9,3.8,11.5,4.3,17.2l0,0
		c0.2,3.7,0.2,7-0.1,10.1l0,0.4c4.5-0.4,9-0.5,13.4-0.4c-1.2-3.8-2.5-7.5-4.1-11.2c-4-9.2-7.2-18.6-9.1-28.5
		c-0.7-4-1.5-7.9-2.3-11.8c-1.6-8.2-2.7-16.4-2.6-24.8c0-2.4-0.2-4.8-0.3-7.2c-0.2-5.4-0.4-10.7-0.6-16.1
		C726.4,517.4,726.9,516.5,728.1,516.4z M368.7,176.5c-1.7,2.2-3.7,4.3-4.9,6.8c-2.3,4.6-3.6,9.5-4,14.7c-0.2,2.4,0.4,4.7,0.7,7.1
		c0.4,3.2,0.3,6.3-0.1,9.5c-0.6,4.1-0.7,8.3,0.1,12.4c1.1,5.2,1.8,10.5,2.1,15.9c0.1,1.5,0.2,3-0.1,5.1c-0.5-1.2-0.9-2-1.1-2.8
		c-1.4-6-4.2-11.3-7.3-16.6c-1.1-1.8-2.1-3.8-3.2-5.6c-1.6-2.7-2.3-5.7-3-8.6c-0.4-1.4-0.4-2.8-0.1-4.2l-0.5-0.5c-1-1-1.8-2-2.4-3.1
		c-3.7-6.3-5.9-12.3-6.6-18.3l0,0c-0.1-1.3-0.1-2.7,0-3.9c0-0.6,0-1.2,0-1.9c-0.4-6.3,1-13,4.3-20.3c2.4-5.3,6.1-9.4,11.1-12.4
		c0.9-0.4,1.5-1,2.2-1.8c1.2-1.2,2.5-2.1,4.2-2.8c1.9-0.8,3.9-0.7,5.6,0.4c1.7,1,2.8,2.8,3,4.8c0.3,3.8-0.2,7.4-1.7,10.8
		c-1.8,4.3-3.6,8.8-5.6,13c-1.9,3.9-2.9,8.1-3.6,12.3c0.5-0.7,1-1.4,1.5-2.1c3-3.9,6.8-7.1,10.6-10.2
		C370,175.3,369.2,175.9,368.7,176.5z M652,181.6c-2.4,2.4-5.5,2.9-8.5,1.3c-0.6-0.4-1.2-0.7-1.9-1c-4.5-2-7.1-5.6-7.6-10.5
		c-0.6-5.5-0.4-11-0.5-16.5c0-1.2,0-2.5,0-3.8c-0.1-3.7-1.1-7.1-3.3-10.1c-0.5-0.7-1.3-1.3-0.4-2.3c0.5-0.5-0.2-1-0.5-1.4
		c-1.4-1.8-3-3.6-4.6-5.2c-2.9-2.9-6-5.6-9.1-8.2c-0.4-0.3-0.8-0.6-1.1-0.9c-0.3-0.3-0.4-0.7-0.2-1.1c0.2-0.4,0.6-0.4,1-0.4
		c1,0.1,1.9,0.5,2.7,1c0.6,0.4,1.1,0.7,1.6,1.1c0.8-1.9,2.8-2.3,3.5-2.4c1.4-0.3,2.8-0.3,4.4,0.1c7.6,1.9,13,6.1,16.6,12.9
		c3.4,6.4,5.7,11.4,7.6,16.2c1.6,4.2,2.5,8.7,2.9,14.2l0,0.1l0,0.1c-0.2,1.1-0.4,2.2-0.5,3.3l-0.1,1.4c0.6,1.6,1,3.2,1,5
		C654.8,177.3,654,179.8,652,181.6z"/>
	<path class="st1" d="M396.2,572.3l-0.5-0.1c-1.3-0.2-2.5-0.8-3.5-1.7c-2-1.7-3.3-4-4.4-6.2l-0.2-0.3c-0.9-1.7-1.8-3.4-2.8-5.1
		c-0.8-1.5-1.7-3.1-2.5-4.6c-0.1,0.4-0.2,0.9-0.3,1.3c-1,5.3-2.7,10.4-4.4,15.3c-0.4,1.1-0.7,2.1-1.1,3.2c-0.8,2.3-1.5,4.7-2.3,7
		c-1.2,3.6-2.3,7.4-3.6,11c-2.7,7.7-6.2,16.6-11.9,24.7c-3.8,5.4-8.7,11.6-15.4,16.2c-6.7,4.5-14.6,7.5-23.3,8.9
		c-0.9,0.2-1.9,0.3-3,0.4l0.1,0.1l1.7,1.4c0.6,0.5,1.1,1,1.7,1.5l0.8,0.7l0.4,0.4l0.4,0.4c1.1,1,2.2,2,3.2,3.1
		c0.5,0.5,1,1.1,1.5,1.6l1.5,1.6c0.2,0.3,0.5,0.5,0.7,0.8l0.7,0.8l1.4,1.7c1,1.1,1.9,2.2,2.8,3.4c0.1,0.1,0.2,0.3,0.3,0.4
		c1.5-0.4,3-0.8,4.5-1.3c2.4-0.8,4.8-1.9,7-3.1c3.3-1.8,6.6-3.5,9.8-5.5c8.1-5.1,15.1-11.5,21.6-18.5c1.2-1.3,2.1-2.7,3-4.1
		c2.3-3.4,4.6-7,6.9-10.4c2.9-4.2,5-8.9,6.5-13.8c1-3.3,1.8-6.6,2.6-10c0.7-3.3,1.1-6.7,0.8-10.2
		C396.7,579.6,396.5,575.9,396.2,572.3z"/>
</g>
<g>
	<path class="st2" d="M456,410.4c4.2,4.3,8.4,8.6,14.1,11c2.2,0.9,4.4,1.9,6.7,2.6c3.1,1,6,2.3,8.6,4.2c2.1,1.4,4.2,2.9,6.3,4.4
		c0.9,0.7,1.7,1.5,3,1.9c0.2-1.3,0.1-2.3,0.4-3.3c1.1-3.9,1.5-7.9,2.2-11.8c1.5-8.4,2.1-16.8,1.6-25.3c0-0.6,0-1.2,0.1-1.7
		c0.1-0.4,0.4-0.6,0.9-0.6c0.3,0,0.6,0.2,0.7,0.5c0.1,0.4,0.2,0.8,0.2,1.2c0.2,3.4,0.4,6.7,0.6,10.1c0.3,4.9,0.6,9.9,2,14.7
		c1.4,4.8,2.3,9.6,1.3,14.5c-0.1,1.1,0.1,2.1,0.7,3.2c1.6-0.8,3-1.6,4.2-2.7c1.9-1.6,4-2.9,6.1-4.2c5.5-3.4,11.5-6.1,17.1-9.3
		c5.9-3.3,9.1-8.4,11.2-14.6c1.9-5.7,2.6-11.5,4-17.3c0.8-3.6,0.9-7.3,0.5-11c-0.5-4.8-3.3-8.5-5.9-12.4c-3.2-4.8-7.7-7.5-13-9.4
		c-6.1-2.1-12.3-3-18.6-3.5c-8.6-0.7-17.3-0.7-25.9-0.6c-4.9,0.1-9.7,0.8-14.3,2.6c-3,1.2-6,2.5-9.1,3.7c-1.4,0.6-2.5,1.5-3.3,2.7
		c-2.5,3.6-4.2,7.7-5.2,12c-2.3,10.3-2.2,20.7-0.4,31C453.3,405.7,454,408.4,456,410.4z M534.5,396.9c-1.2,1-2.6,1.6-4.1,2
		c-0.7,0.2-1.6,0.2-2.1,0.9c2,2.8,3.3,3.2,7.4,2.3c0.4,0.6,0,1.1-0.4,1.6c-3.6,3.8-7.9,4.9-12.9,3.5c-0.7-0.2-1.3-0.4-1.9-0.5
		c-5.6-0.9-9.2-6.2-7.8-11.8c0.9-3.4,2.7-6.3,5.5-8.5c3-2.3,6.4-3,10.1-1.4c0.6,0.3,1.3,0.5,2,0.7c2.7,0.7,4.4,2.4,5.7,4.8
		C537.1,392.9,536.6,395.1,534.5,396.9z M464.4,365c2.1-1.3,4.1-1,5.6,1.2c1,1.4,2.2,2.5,3.7,3.3c3.7,2,7.4,2.4,11.6,1.8
		c6-0.9,12-1.6,18.1-1.8c5.4-0.2,10.9-0.7,16.3-0.6c3.1,0,6.1-0.6,8.8-2.1c0.3-0.2,0.7-0.4,1.1-0.5c1.8-0.5,2.1-0.8,2.9-2.5
		c0.4-0.8,1-0.8,1.7-0.1c1.7,1.8,2,5.1,0.6,7.4c-2.7,4.7-7,6.6-12.2,6.8c-3.6,0.2-7.3,0-11.1-0.5c-7.6-1.2-15.2-2-20-1.5
		c-8.9,0.4-14.8,0-20.8-0.7c-1.5-0.2-2.9-0.5-4.2-1.1c-1.6-0.7-2.8-1.8-3.6-3.4C461.9,368.6,462.5,366.2,464.4,365z M460.6,406.7
		c0.4-0.8,1-0.2,1.5-0.1c2.7,0.8,5.4,0.6,8.1,0c0.6-0.1,1.2-0.3,1.2-1s-0.5-0.9-1.1-1.1c-0.9-0.3-1.8-0.6-2.7-1
		c-5.9-2.8-6.2-10.9-3.2-14.4c0.7-0.8,1.4-1.6,2.5-1.8c0.9-0.2,1.5-0.8,2.3-1.2c3.4-1.9,6.9-2.8,10.8-1.9c5.7,1.3,9.5,7.6,7.9,13.3
		c-0.2,0.8-0.2,1.6-0.2,2.4c-0.2,5.8-4.2,10.2-10.1,10.9c-1.2,0.2-2.4,0.3-3.7,0.5c-3.5-0.7-7.3-0.8-10.8-2.4
		c-0.6-0.2-1.2-0.5-1.7-0.9C460.9,407.7,460.3,407.4,460.6,406.7z"/>
	<path class="st2" d="M520.8,487.2c-1.2-3.4-3.8-5.6-6-8.6c-0.4,0.6-0.6,1-0.8,1.3c-0.4,0.6-0.8,1.2-1.2,1.8
		c-0.4,0.5-0.9,1.1-1.4,1.5c-0.2,0.2-0.5,0.4-0.8,0.7c-1,0.8-2.2,1.5-3.4,1.9c-0.3,0.1-0.6,0.2-0.9,0.3c-1.9,0.5-4,0.5-6.2,0.1
		c-2.2-0.5-4.3-1.2-6.1-2.4c-0.7-0.5-1.2-0.4-1.9,0.1c-3.2,2.4-6.5,4.7-9.7,7.1c-1.3,1-2.6,2.2-3.7,3.4c-0.6,0.7-0.5,1.2,0.2,1.8
		c1,0.9,2.3,1.2,3.7,1.4c2.6,0.3,5.1,0,7.6-0.7c4.2-1.2,8.3-1.1,12.5,0.2c2.2,0.7,4.5,1.2,6.7,1.8c2.5,0.7,5.1,0.3,7.6,0
		c1-0.1,1.7-0.8,2.4-1.5c1-1.1,2-2.2,3.1-3.3c1.6-1.6,1.5-1.6,0.7-3.7C522.7,488.9,521.2,488.4,520.8,487.2z"/>
	<path class="st2" d="M551.4,449.5c-0.3-0.7-1-1.1-1.5-1.3c0,0-0.2-0.1-0.4-0.5c-1.2-1.6-2.7-2.6-4.3-3.4c-2.2-1.1-3.2-3.6-2.6-6
		c0.6-1.9,1.3-4.6,1.1-7.4c-0.1-2.7-1.3-4.8-3.3-6.1c-0.3,0.3-0.5,0.5-0.8,0.8c-5.3,4.9-11.7,8.2-18.5,10.9
		c-3.7,1.5-7.2,3.2-10.5,5.3c-1,0.6-1.5,1.3-1.6,2.5c-0.2,2.8-0.5,5.6-1.1,8.3c-0.1,0.6-0.4,1.3,0.1,1.8c1.3,1.3,2.1,3.1,3.8,4.2
		c5.3,3.5,9.5,8,13,13.3c2.7,4.1,5.3,8.2,7.8,12.4c3.1,5.3,6.4,10.5,10.1,15.4c1.3,1.8,2.8,3.6,4.3,5.2c0.8,0.8,1.6,1.6,2.4,2.4
		l-1.5-3c-0.3-0.6-0.6-1.2-0.8-1.8c-1.8-5-2.2-9.8-1.4-14.3c0.1-0.8,0.1-1.5,0.1-2.2l0-0.1c-0.5-4.5-1.8-7.9-4.2-10.5
		c-0.7-0.8-1.1-1.8-1.3-3.3c-0.4-3.4-0.8-7.1-1.3-10.7c0-0.1,0-0.2,0-0.3c0,0,0.1,0,0.2,0c1.9,0.1,3.8-0.1,5.4-0.8
		c4.2-1.5,6.3-4.2,6.3-8.1c0-0.4,0-0.6,0.1-0.7C551.3,450.9,551.7,450.2,551.4,449.5z M549.9,448.2
		C549.9,448.2,549.9,448.2,549.9,448.2L549.9,448.2L549.9,448.2z"/>
	<path class="st2" d="M482.3,475.7c1.1-0.7,2.2-1.4,3.3-2c2.3-1.3,3.8-3.1,4.5-5.8c1.1-4.3,2.6-8.4,5.9-11.6
		c0.6-0.5,0.7-1.1,0.5-1.9c-0.6-2.7-1.2-5.5-1.7-8.2c-0.3-1.1-0.8-2-1.9-2.6c-4.3-2.5-8.5-5.2-12.5-8.1c-2-1.5-4.3-2.5-6.7-3.1
		c-2.9-0.7-5.7-2-8.4-3.4c-1.3-0.7-2.6-1.5-3.8-2.3c-0.4-0.3-0.7-0.5-1.1-0.8v0.8c0,0.7,0.1,1.3,0.2,1.9l0,0.3
		c0.1,0.5,0.1,0.9,0,1.3c-1.1,3.9-0.7,7.6,1.1,11.2c0.5,1.1,0.5,2.1-0.2,3.4c-1.2,2.2-2.3,4.5-3.5,7.5c-0.6,1.6-1.6,2.4-3.4,2.6
		c-0.4,0-0.8,0.1-1.2,0.1c-0.8,0.1-1.5,0.2-2.3,0.2c-2.4,0.1-4.6,1-6.4,2.7c-0.2,0.2-0.4,0.3-0.6,0.5c-0.4,0.3-0.9,0.7-1.2,1.1
		l-0.4,0.4c-1.4,1.3-2.8,2.6-3.8,4.4c-0.6,1.1-0.6,2.4,0,3.3c0.6,0.9,1.7,1.4,3.1,1.3c0.7-0.1,1.3-0.3,1.9-0.5
		c0.3-0.1,0.7-0.2,1-0.3c2.5-0.7,4.9-1.4,7.3-0.3c1,0.5,2.1,0.5,3.2,0.5c0.3,0,0.6,0,0.9,0c0.4,0,0.7,0,1,0c0.9-0.1,0.9,0,1,0.3
		c0.4,0.9,0.7,1.9,0.6,2.8c-0.2,1.2-0.7,2.4-1.1,3.3c-0.5,1-1,2-1.4,3c-0.7,1.4-0.6,2.7,0.5,4c1.4,1.5,2,3.5,2.5,5.4
		c0.8,3.1,1.1,6.3,0.8,9.8l-0.1,1.7c0.5-0.5,0.9-1.1,1.3-1.6c2-2.5,3.9-5.2,5.7-7.8c3-4.4,6.8-8,11.4-10.8c1.1-0.7,2.3-1.4,3.4-2.1
		C481.9,476,482.1,475.8,482.3,475.7z"/>
</g>
<g>
	<path class="st3" d="M627.6,680.8c-6.9-3.8-13.1-8.5-18.8-14c-7.1-6.8-13.5-14.3-18.3-23c-0.8-1.4-1.5-2.8-2.2-4.2
		c-0.3-0.2-0.6-0.6-0.8-1.1c-0.4-1-0.7-2.1-1.1-3.2c-3.8-9.2-5.9-19-6.6-29.2c-0.9-12.5-0.1-25.1,0.8-37.6c0.7-10.2,2-20.4,3-30.6
		c0.5-4.6,0.5-4.5-4.1-4.2c-0.8,0.1-1.2,0.3-1.3,1.1c-0.4,3.5-2.1,6.5-4.1,9.3c-3.6,5-4.9,10.6-4.1,16.6c0.2,1.6,0.4,3.2,0.6,4.8
		c0,0.5,0.4,1.3,0,1.6c-1.2,1-1.1,2.4-1.1,3.7c0,0.4-0.2,0.8-0.7,0.8c-0.4,0-0.7-0.3-0.8-0.7c-0.3-0.8-0.5-1.6-0.7-2.5
		c-1.5-6.2-3.4-12.2-5.9-18c-1.9-4.3-4.3-8.4-6.6-12.5c-1.8-3.2-3.2-6.4-3.5-10.1c-0.1-1.1-0.6-1.7-1.5-2.3
		c-5.3-3.3-9.5-7.7-13.4-12.6c-0.5-0.6-0.8-1.4-1.8-1.8c-2.4,3.8-5.9,6.6-8.9,9.9c-1.7,1.8-2.4,4.2-2.6,6.8
		c-0.3,5.4-0.2,10.7,0.2,16.1c0.1,1.7,0.5,3.3,1.1,4.9c2,5,4.5,9.7,7.8,14c1.6,2.2,3.3,4.3,4.9,6.5c1.6,2.1,3,4.2,3.7,6.7
		c0.3,0.9,0.9,1.4,1.5,2.1c3.7,4.1,6.9,8.4,9.2,13.4c3.3,7.2,1.4,13.9-2.1,20.4c-0.8,1.5-2.1,2.4-3.8,2.7c-0.7,0.2-1.4,0.1-1.9-0.6
		c-0.6-0.7-0.4-1.5,0.1-2.2c2.6-3.5,2.3-7.2,1.2-11c-0.3-1.1-0.9-1.9-2.2-1.7c-0.7,0.1-1.4-0.3-2-0.7c-0.9-0.5-1.9-0.9-2.9-1.2
		c-5.3-1.4-7.8-4.7-7.9-10.2c0-2,0.2-4,0.5-6c0.2-1.3-0.2-2-1.4-2.6c-8.6-4.6-13.8-11.7-16-21.1c-1.1-4.2-1.7-8.6-2-13
		c-0.1-1.5-0.3-2.7-1.4-3.9c-1.4-1.4-2.1-3.2-2.9-5c-1.4-3.2-2.3-6.6-3.2-10c-0.6-2.4-1.1-4.7-1.8-7c-0.6-2.1-1.7-3.8-3.7-4.8
		c-1.2-0.6-1.6-0.3-1.9,0.9c-0.4,2-1,3.9-1.9,5.7c-1.5,3-3.1,5.8-5,8.5c-3,4.4-5.4,9.1-6.9,14.2c-0.5,1.9-0.9,3.7-1.3,5.6
		c-1.1,5.6-3.4,10.5-8,14.1c-2,1.6-2.8,3.7-3.1,6.2c-0.6,5.5-2.7,10.3-6.9,14.1c-2.5,2.2-4.2,5-5.2,8.2c-0.9,2.8-1.3,5.6-1.3,8.5
		c0,2.4,0.1,4.8-0.1,7.2c-0.2,3.1-2.3,4-4.8,2.2c-1.8-1.3-3.2-3-3.7-5.2c-1.8-7.5-3-15-2.4-22.8c0.1-1.2,0.4-2.2,1-3.2
		c2-3.1,4.6-5.7,7.8-7.6c1.8-1,3.6-2.1,5.4-3.1c5.4-2.8,8-7.7,9.2-13.3c0.8-3.7,1.1-7.5,2.8-10.9c0.4-0.7,0.7-1.5,1-2.2
		c0-0.1,0.1-0.2,0.1-0.3c2.6-6.6,2.1-13.3,0.4-20.2c-0.5-2.1-1.7-4-3.1-5.6c-1.4-1.5-3.2-2.6-4-4.5c-0.9,0.3-1.2,0.9-1.7,1.3
		c-5.2,4.6-10.3,9.3-16.9,12c-0.8,0.3-1.1,0.9-1.4,1.6c-1.8,3.3-3.6,6.6-6,9.5c-2.5,3-3.8,6.4-4.5,10.2c-0.9,4.4-2.1,8.6-4.4,12.4
		c-1.7,2.7-3.2,5.4-5.2,7.8c-3.3,4-4.5,8.6-4.8,13.6c-0.1,0.9,0.4,2.5-0.5,2.5c-1.4,0-0.9-1.7-1.2-2.7c0-0.2,0-0.3,0-0.5
		c0-1.3-0.4-2.4-1-3.6c-0.9-1.7-1.3-3.6-0.5-5.7c0.9-2.2,1.6-4.4,2.9-6.3c1.1-1.7,1.4-3.5,1.5-5.5c0.1-3.7-0.7-7.2-1.8-10.6
		c-1.2-3.6-1.6-7.3-1.4-11.1c0.1-3,0.2-5.9,0.4-8.9c0-0.8,0.1-1.5-0.8-1.8c-2-0.7-4-1.6-6.1-2.4c-0.7,2.4-1.4,4.7-2.1,7
		c-1.6,5.6-2.4,11.3-2.1,17.1c0.3,6.2,1,12.3,2,18.4c1.4,8.3,2.1,16.7,1.6,25.1c-0.6,9.3-2.5,18.2-6.4,26.7
		c-5.2,11.4-12,21.7-20.8,30.6c-2.3,2.3-4.7,4.6-6.9,7c-4.4,4.7-9.3,8.8-14.6,12.4c-1.6,1-3.2,2.1-4.8,3.2c-1,0.8-1.1,1.2,0,2
		c1.2,0.9,2.4,1.9,3.3,3.1c2.5,3.4,4.1,7.3,5.5,11.2v0.1h3.3h1.2c0.3-0.4,0.5-0.7,0.8-0.9c2.6-1.7,4.1-4.1,5.6-6.4
		c0.3-0.5,0.6-0.9,0.9-1.4c0.7-1,1.3-2.1,1.9-3.1c2.7-4.4,7-7.3,13.5-9.2c1.3-0.4,2.8-0.4,4.3-0.5l0.9,0c8.2-0.5,15.1-4.3,20.3-11.4
		c0.2-0.3,0.4-0.6,0.6-0.9c0.4-0.6,0.8-1.1,1.3-1.6c1-0.8,1-0.8,1.7-0.1c3.4,3.4,4.6,7.3,3.6,11.8c-0.9,4.3-3,8.1-5,11.8l-0.7,1.2
		c-1.7,3.1-3.7,6.2-6.5,10.2l-0.2,0.3h0.9h70.9h1.1l0,0c-0.1-0.3-0.2-0.5-0.2-0.8c-0.1-0.3-0.1-0.5-0.2-0.8c0-0.3,0.2-0.8,0.4-1.3
		c0.5-1.5,0.8-2.6,0.6-3.5c-0.8-2.8-1.1-5.9-1.4-8.8l-0.2-1.5c-0.8-6.1-1.5-12-2.2-17.6c-0.5-3.8-1-7.7-1.1-11.6
		c-0.2-6.8-0.1-12.3,0.3-17.4c0.5-5,1.2-10.1,2.3-15.8c1.1-5.6,3.3-10.6,5.6-15.9l0.6-1.4c1.3-2.9,2.5-5.9,4.5-8.4
		c0.3-0.4,0.4-0.5,0.4-0.5c0,0,0.1,0,0.5,0.3c1.5,1.2,3.5,2.2,6,2.8c0.4,0.1,0.5,0.2,0.5,0.2c0,0,0,0.1,0,0.3
		c-0.6,4-0.5,8.3,0.1,12.7c0.9,5.7,2.6,10.5,5.1,14.8c1.4,2.4,3.1,4.5,4.8,6.5c1,1.2,2,2.4,2.9,3.7c3.2,4.5,7.3,7.9,12.6,10.5
		c1.7,0.8,3.5,1.8,5.4,2.9l0.7,0.5c3,1.9,5.8,3.7,7.1,6.9c2.2,4.9,3.3,9.3,3.6,13.7c0.1,1.4,0.1,2.9,0,4.4c0,0.8,0,1.5,0,2.2
		c0,2,0.8,4,2.4,5.8c1.2,1.5,3,2,5,1.3c1.7-0.6,2.9-1.6,3.8-3.2c1-1.8,1.5-3.8,1.9-5.5c0.3-1.7,0.5-3.3,0.7-5c0-0.1,0-0.3,0.1-0.4
		c0.6,0.8,1.2,1.6,1.8,2.5c1.8,2.4,3.3,5.2,4.7,7.9c0.6,1.2,1.3,2.4,1.9,3.6c3.1,5.5,6.6,10.7,10.7,15.9h1.3h51.1
		c0.2-0.1,0.4-0.3,0.6-0.4c0.3-0.2,0.7-0.5,1.1-0.9C632,683.3,629.8,682,627.6,680.8z"/>
	<g>
		<path class="st4" d="M732.1,609L732.1,609c-0.5-5.7-1.9-11.4-4.3-17.2c-1.8-4.5-3.8-9.1-5.7-13.5c-2.8-6.5-5.6-13.2-8.1-19.9
			c-3-8.1-4.3-14.9-4.3-21.6c0-6,0.7-12.3,2.2-20l0.2-1.2c0.6-3.1,1.3-6.4,0.6-9.8c-0.7-3.4-2.7-6.3-5.4-8c-2.7-1.7-6.1-2.3-9.2-1.5
			c-2.4,0.6-4.5,1.8-6.6,3.1l-0.6,0.4c-0.4,0.2-0.6,0.4-0.8,0.4c-0.1-0.1-0.2-0.3-0.4-0.7c-2.2-4.9-4.5-11.5-2.8-18.9
			c1.5-6.6,3.5-13.5,6.1-21c2.2-6.3,4.8-11.6,8-16.3c3.8-5.5,7-11.2,9.5-16.8c1.6-3.4,3.2-7.4,3.9-11.9c0.4-2.8,0.5-6.1-1.3-9.2
			c-1.5-2.6-4.1-4.3-7-4.6c-2.8-0.3-5.6,0.7-7.3,2.7c-0.7,0.8-1.4,1.6-2,2.4c-0.5,0.6-0.9,1.2-1.3,1.9c-0.1,0.1-0.2,0.2-0.2,0.4
			c0.9-4.5,1.7-9,1.5-13.6c-0.2-4.2-0.9-8.2-1.5-12.5l-0.1-0.4c-0.1-0.8-0.3-1.5-0.5-2.2c-0.5-2.2-1-4.1,0.1-6.2
			c0.3-0.5,0.2-1.1,0.2-1.7c0-0.1,0-0.3,0-0.4v-9.8c0-3.4,0.6-6.7,1.1-10.3l0-0.2c1.6-8.4,4.2-16.7,6.8-24.8
			c0.5-1.5,1.1-3.1,1.7-4.5c0.9-2.2,1.8-4.5,2.3-6.8c1.3-5.5,2.6-11.2,3.5-16.9c0.7-4.2,1.2-8.7,0-13.4c-0.5-2.2-1.5-4-2.4-5.8
			l-0.2-0.4c-0.6-1.1-1.7-1.8-3-2c-1.4-0.2-2.8,0.4-3.7,1.3c-0.9,0.9-1.6,2.2-2,3.9c-0.3,1.1-0.3,2.3-0.4,3.4
			c-1.5-3.5-3.5-6.9-5.9-10c-3.5-4.5-8.5-9.6-16.6-8.7c-0.9,0.1-1.7-0.1-2.5-0.7c-3.6-2.7-6.8-5.8-9.3-9.2c-0.9-1.2-1.8-2.5-2.6-3.7
			c-1.2-1.8-2.5-3.6-3.9-5.2c-0.3-0.4-0.7-0.8-1-1.3c-0.9-1.3-1.9-2.6-3.3-3.6c-1.6-1.3-3.3-1.9-5-1.7c0,0.1,0,0.2,0,0.3
			c-0.1,0.3-0.1,0.6-0.1,0.9c-0.4,6.8-1.2,13.6-1.2,20.4c0,9.6,0.7,19.1,1.7,28.7c0.7,7.3,1.3,14.6,1.4,22c0.1,6-0.5,12.1-3,17.6
			c-4,8.6-8.4,17-16.1,23c-0.6,0.4-1,0.9-1.2,1.7c-0.8,3.2-1.8,6.4-2.5,9.7c-2.1,10-3.8,20.1-5.2,30.2c-0.6,4.6-0.7,9.2,0.4,13.8
			c1,4.5,1.4,9,0.6,13.6c-0.5,3-1.3,6-2.1,8.9c-1.8,6.6-2.9,13.3-1.3,20.1c0.2,0.6,0.2,1.3,0.2,1.9c-0.2,3.9,1,7.5,2.1,11.2
			c3.4,11.4,3.7,22.7-0.6,34.1c-3.1,8.2-8,15-14.2,21.1c-0.5,0.5-1.1,1-1.7,1.3c-1.6,0.9-2.7,2.2-3.9,3.5c-2.7,3.2-6,5.6-9.9,7
			c-1,0.3-1.5,0.5-1.6,1c0,0.4,0,0.8,0,1.2c0,0.2,0,0.3,0,0.4c0.6,5,0.5,9.9,0.4,14.9c0,1.4-0.1,2.7-0.1,4c-0.1,1.8-0.1,3.6-0.1,5.4
			c0.6,3.1,1.3,6.2,2.2,9.3c0.6,2.2,1.3,4.5,1.9,6.7c1.5,5.6,3.1,11.4,5.2,17c1.5,4,3.1,8.2,5.3,12.2c2.7,5,5.5,10,8.2,14.8
			c1.1,1.9,2.2,3.8,3.2,5.7c2.5,4.4,5.5,9.4,9.4,13.8c5.7,6.5,12.9,12.1,22.2,17c1.9,1,4,2,6.3,2.9c0.2-0.3,0.4-0.5,0.7-0.8
			c0.2-0.3,0.5-0.7,0.8-1l1.4-1.7l0.7-0.8c0.2-0.3,0.5-0.5,0.7-0.8l1.5-1.6c0.5-0.5,1-1.1,1.5-1.6c1.1-1.1,2.1-2.1,3.2-3.1l0,0
			l0.4-0.4l0,0l0.4-0.4l0.8-0.7c0.6-0.5,1.1-1,1.7-1.5l1.7-1.4l0.9-0.7c0.3-0.2,0.6-0.5,0.9-0.7l1.8-1.4l0.4-0.3l0.5-0.3l0.9-0.6
			l1.8-1.3l1.9-1.2c5.1-3.2,10.4-6,15.9-8.2c0.3-0.1,0.6-0.3,1-0.4l1-0.4l1.8-0.2c0.3-0.1,0.6-0.3,1-0.4l1.1-0.3l2.1-0.7l1.1-0.3
			c0.4-0.1,0.7-0.2,1.1-0.3l2.2-0.6l1.1-0.3l0.5-0.1l0.5-0.1l2.2-0.5c5.7-1.3,11.6-2.4,17.5-3c0.6-0.1,1.1-0.1,1.7-0.2
			c0.4,0,0.8-0.1,1.3-0.1l0-0.4C732.3,616,732.3,612.7,732.1,609z M683.7,385.4c-2,11.5-6.1,22-12.5,31.7
			c-5.4,8.3-10.7,16.7-16.1,25c-6.5,10-8.7,20.9-8.3,32.6c-1-1.3-1.1-2.8-1.2-4.3c-0.5-12.2-1.1-24.4,1-36.6
			c0.6-3.1,0.9-6.2,1.3-9.3c1.1-7.5,3.6-14.4,8.6-20.2c2.8-3.2,4.4-6.9,5.5-11c1.1-4.4,2.1-8.9,3.1-13.3c1-4.2,2.4-8.1,4.4-11.9
			c0.8-1.5,1.7-2.9,2.9-4.1c2.9-2.8,6.4-2.5,8.9,0.7c1.1,1.4,1.7,3.1,2.1,4.8C684.7,374.7,684.6,380.1,683.7,385.4z"/>
		<path class="st4" d="M399.5,510.8c-8.3-10.1-12.1-21.7-10.5-34.8c0.8-6.9,2.6-13.5,5.5-19.8c0.4-0.9,0.9-1.7-0.1-2.6
			c-1.8-1.6-2.7-3.8-3.4-6c-0.3-1.1-0.9-2.2-1.4-3.3c-0.5-1.3-1.5-2.1-2.7-2.6c-6.8-2.8-11-8.1-13.7-14.7
			c-3.7-8.9-3.8-17.9-1.6-27.1c0.9-4.1,1.2-8.2,2.1-12.3c0.2-0.9,0.1-1.5-0.9-1.9c-3.2-1.4-5.9-3.6-8.1-6.3
			c-1.7-2.1-3.7-3.9-5.9-5.3c-8.7-5.6-14.8-13.5-20.4-22c-1.8-2.7-3.1-5.8-4.1-8.9c-2-6.4-2.5-13-2.2-19.7c0.2-3.6,0.5-7.3,0.1-11
			c-0.7-6-0.8-12-0.4-18c0-0.5,0.1-1.1,0.1-1.7c0-0.2,0-0.4,0-0.6c0-0.1,0-0.1,0-0.2c0.4-5.5,0.9-11,1.5-16.5c0.5-4,1-8,2.2-11.8
			c0.4-1.1,0.6-2.3,0.6-3.5c0-3.6,0.2-7.2-0.3-10.8c-0.2-1.3-0.2-2.7,0.1-4c0.1-0.3,0.1-0.6,0.2-0.9h-0.3c-0.8,0-1.4,0.5-1.6,0.7
			c-0.7,0.6-1.3,1.4-1.7,2.3c-0.6,1.4-1.2,2.9-1.6,4.3c-1.7,5-3,10.1-4.3,15.1c-0.9,3.5-1.9,7.2-3,10.8c-2.5,7.7-3.4,14.2-2.8,20.6
			c0.3,3.8,0.1,7.7-0.2,11.4c-0.1,2.2-0.3,4.4-0.3,6.7c0,0.1,0,0.2,0,0.3c0,0.2-0.1,0.4-0.1,0.5c-0.5,4.3-0.5,8.7,0,13.1
			c0.1,0.6,0.1,1.3,0.2,1.9c0.2,1.2,0.3,2.5,0.4,3.8c0,0,0,0,0,0c0,0-0.1,0-0.1,0c-1.2-0.5-2-1.1-2.7-1.8c-0.4-0.5-0.9-0.9-1.4-1.4
			c-1.3-1.3-2.7-2.7-4-4.1l-0.4-0.4c0,0.6-0.1,1.1-0.4,1.5c-0.4,0.7-1.3,1.1-2.3,0.9s-1.8-0.6-2.6-1.2c-3.3-2.6-6.6-5.1-9.5-8.1
			c-2.1-2.2-3.7-4.5-4.9-6.9c-1.2-2.3-2-4.8-2.5-7.4l-0.5-1l2.1,8.2c0.4,1.4,0.2,3,0,4.6c0,0.4-0.1,0.8-0.1,1.2
			c-0.4,5.9,0.2,12.2,1.6,19.3c1.4,6.7,3.7,13,6.8,20.4c2.8,6.7,6.3,13.2,9.6,19.4c0.2,0.4,0.4,0.8,0.6,1.2c0.8,1.5,1.6,3,2.7,4.3
			c2.3,2.8,3.4,6.2,3.4,10.5c0.1,3-0.2,6.2-0.5,9.2c-0.1,1.4-0.2,2.7-0.3,4.1c-0.3,5.3-1.2,10.8-3,17.9c-0.5,2-1.2,3.9-2.3,5.7
			c-0.1,0.1-0.1,0.2-0.2,0.3c-0.1-0.1-0.1-0.2-0.2-0.3c-0.3-0.4-0.4-0.9-0.6-1.3c-1-2.7-2-5.6-2.9-9.3c-0.4-1.7-0.8-3.5-1.8-5.2
			c-1-1.8-2.8-4.3-6.4-4.4c-3.3-0.1-5.8,1.2-7.5,4c-1.4,2.2-2,4.7-2,7.3c0,2.6,0.2,5.2,0.4,7.7c0.6,6.3,2.1,12.1,4.3,17.2l1.1,2.4
			c1.2,2.6,2.3,5.1,3.3,7.7c2.6,6.4,4.3,13.1,5.7,19.3c1.8,7.7,2.9,13.9,3.5,19.6c0.1,0.8,0.1,1.6,0.1,2.3c0.1,1.4,0.1,2.8,0.4,4.1
			c0.6,3.5,0.5,7.1,0.3,10.6c0,0.7,0,1.4-0.1,2.2c0,1.6-0.9,3.2-2.4,4.1c-0.6,0.4-1.5,0.6-2.5,0.8c-0.4,0.1-0.7,0.1-1.1,0.2
			c-1.9,0.5-3.9,0.5-5.9,0.4c-1.1,0-2.3,0-3.4,0c-2.3,0.1-4.4-0.5-6.4-1.8c-2.6-1.7-5.1-2.7-7.6-2.9c-1-0.1-1.3-0.3-1.5-1.4
			c-0.5-1.7-1-3.5-1.7-5.1c-1.3-3.1-3.7-5.1-6.7-5.6c-2.9-0.5-5.9,0.6-7.9,2.9c-1,1.2-2.1,2.6-3,4.3c-2.5,4.5-3.4,9.5-4,13.8
			c-0.6,4.2-0.6,7.7-0.1,10.8c0.7,4.1,0.6,8.1,0.5,12.4l0,2.7c0,3.6-0.4,7.3-0.9,10.4l-0.2,1.4c-0.5,4.3-1.1,8.7-0.9,13.2
			c0.2,6.2,1.1,12.4,1.9,18.2c1.2,8.7,3.7,16.1,7.7,22.6c0.5,0.9,1.2,1.8,1.8,2.7c0.5,0.1,1,0.1,1.4,0.2c3.5,0.5,7,1.2,10.4,2
			l2.2,0.5l0.5,0.1l0.5,0.1l1.1,0.3l2.2,0.6c0.4,0.1,0.7,0.2,1.1,0.3l1.1,0.3l2.1,0.7l1.1,0.3c0.3,0.1,0.7,0.3,1,0.4l2.1,0.8l1,0.4
			c0.3,0.1,0.7,0.3,1,0.4c5.6,2.2,10.9,5,15.9,8.2l1.9,1.2l1.8,1.3l0.9,0.6l0.5,0.3l0.4,0.3l1.8,1.4c0.3,0.2,0.6,0.5,0.9,0.7
			l0.3,0.2l0.5,0.4c1-0.1,2.1-0.3,3-0.4c8.7-1.4,16.6-4.4,23.3-8.9c6.7-4.5,11.5-10.7,15.4-16.2c5.7-8.1,9.2-17.1,11.9-24.7
			c1.3-3.6,2.5-7.4,3.6-11c0.7-2.3,1.5-4.7,2.3-7c0.3-1.1,0.7-2.1,1.1-3.2c1.7-5,3.4-10.1,4.4-15.3c0.1-0.4,0.2-0.8,0.3-1.3
			c0.8,1.6,1.7,3.1,2.5,4.6c0.9,1.7,1.9,3.4,2.8,5.1l0.2,0.3c1.2,2.2,2.4,4.4,4.4,6.2c1,0.9,2.2,1.5,3.5,1.7l0.5,0.1
			c0-0.2,0-0.4-0.1-0.6c-0.1-1.4-0.3-2.9-0.5-4.3c-1.3-9.4-1.9-18.7-0.8-28.2c0.4-3.7,0.9-7.4,2.2-11c0.7-1.7,1.2-3.5,1.5-5.3
			c0.5-3,1-6,2.5-8.7c0.4-0.8,0.2-1.5-0.4-2.1C400.2,511.7,399.9,511.2,399.5,510.8z"/>
		<path class="st4" d="M590.9,278.8c3.5-1.7,5.7-5.3,7.2-8.2l0.2-0.4c-0.3,0-0.6,0-0.9,0c-0.1,0-0.2,0-0.3,0
			c-8.3-0.1-14-2.5-18.7-7.4c-1.9-2-3.9-3.9-5.8-5.8c-1.2-1.2-2.3-2.5-3.2-3.9c-1.2-1.9-2.4-3.9-4-5.6c-0.1-0.1-0.2-0.3-0.3-0.4
			c-1.1-1.5-1.2-2.6-0.5-3.5c0.8-1,2.5-1.1,4-0.3c0.2,0.1,0.5,0.2,0.6,0.4c2.3,2.9,5.9,4.1,8.5,6.6c3.1,2.9,7.2,3.7,11.4,3.7
			c2.4,0,4.9-0.1,7.4-0.2c2.4-0.1,4.6-0.8,6.5-2.6c1.9-1.9,4.1-3.6,6.2-5.3c1-0.9,2.2-1.5,3.4-1.5c0.5,0,0.9,0.1,1.4,0.3
			c2.5-1.4,4.3-3.3,5.8-4.9c3.9-4.5,6.4-9.6,7.6-15.5l0.3-1.4c0.5-2.3,1-4.6,1.8-6.9c0.5-1.4,1-3.1,0.8-5c-0.9-6.9-3.9-12.3-9-16.1
			c-1.4-1-2.3-2.3-2.8-4.1c-2.3-7.1-6.6-12.8-12.8-16.7c-2.9-1.8-6-3.3-8.6-4.5c-6.8-3.1-13.5-3.2-20-0.1
			c-5.7,2.6-10.1,5.9-13.4,9.9c-0.3,0.4-0.4,0.4-0.6,0.3c-1.9-0.4-3.5-1.7-4.3-3.6l-0.4-0.9c-0.2,0.5-0.3,0.9-0.5,1.4
			c0,0.1-0.1,0.2-0.1,0.3c-0.1,0.6-0.1,1.2-0.2,1.8c-0.2,1.2-0.6,2.3-1.6,3.1c-2.2,1.7-3.6,4-5.1,6.3c-1.5,2.2-3.3,3.8-6.1,4.5
			c-4.2,0.7-7.3-1.9-7.3-6.1c0-2,0.6-3.8,1.3-5.6c0.7-1.7,1.2-3.5,1.5-5.3c0.1-0.7,0.2-1.4,0.3-2.1c0.1-0.1,0.1-0.3,0.1-0.5
			c0.1-1,0-2-0.2-3c0,0-0.1-0.1-0.1-0.1c0-0.1,0-0.1,0-0.2c-1.7-6.1-0.7-11.7,2.9-16.9c1.9-2.6,4.3-4.3,7.3-5.2
			c2.3-0.7,4.6-1.4,7-1.4c0.2,0,0.3,0,0.5,0c0.6-0.2,1.1-0.4,1.6-0.5c2.6-1.8,5.5-1.9,8.5-1.2c1.4,0.3,2.7,0.1,4,0.2
			c1.3,0.1,2.6,0.3,3.8,0.6c0.3,0.1,0.7,0.2,1,0.3l0.1-0.8c0.1-0.8,0.2-1.7,0.1-2.7c-0.7-4-1.7-8.2-4.5-11.7
			c-0.6-0.7-0.8-1.4-0.7-2.2c0-0.7,0-1.4,0-2.1c0-1.4,0-2.8,0-4.2c-0.5-6.6-3.2-11.4-8.2-14.3c-2.9-1.8-6-3.6-9.5-4.5
			c-0.6-0.2-1-0.3-1.2-0.6c-0.2-0.3-0.3-0.5-0.5-0.8c-0.4,0.3-0.9,0.6-1.4,0.9c-1.3,0.7-2.7,1.1-4.1,1.4c-1.4,0.2-2.9,0.4-4.3,0.5
			c-3.6,0.2-6.3,2-8.5,4.7c-1,1.2-1.7,2.6-2.5,4c-0.4,0.7-0.9,1.5-1.4,2.2c-1,1.2-2.3,1.6-3.6,1.1c-0.3-0.1-0.6-0.3-0.9-0.5
			c-0.5,0.8-1.1,1.8-1.7,2.6c-2.2,2.9-3.6,6.3-4.3,10.3c-1.5,9.2-0.4,18.1,0.8,25.6c0.2,1.1,0.1,1.5-0.5,2.1
			c-2.3,2.1-3.6,4.8-4.6,7.2c-2.2,5.7-1.7,11.5-0.8,16.9c0.2,0.8,0.5,1.6,0.9,2.2c0.1,0.3,0.3,0.5,0.4,0.8l0.6,1.3
			c0-0.4,0.1-0.8,0.1-1.1c0-0.4,0.1-0.7,0.2-1.1c0.2-0.5,0.3-1,0.9-1c0.6,0.1,0.7,0.6,0.7,1.1c0.1,5.4,0.8,10.7,1.7,16
			c0.7,3.8,0.9,7.7,1,11.5c0.1,2.8,0.7,5.5,1.8,8.1c0.9,2,2.4,3.3,4.6,3.7c0.7,0.2,1.4,0.2,2.1,0.4c2.3,0.6,3.8,1.3,4.7,2.5
			c0.1,0.1,0.2,0.3,0.3,0.4c0.4,0,0.7,0.1,1.1,0.1c1,0.1,1.9,0.2,2.9,0.5c1.5,0.4,3,1,4.4,2c2.9,2.3,5.5,5.3,8.3,9.4
			c1.4,2.2,2.3,4.6,2.8,7.5c1,5.5,1.1,10.1,0.1,14.3c-0.5,2.5-0.8,5.1-1,7.7c-0.3,3-0.6,6.1-1.4,9.1c0.2,0.6,0.4,1.2,0.6,1.7
			c1.1,2.8,2.6,5.4,4.5,7.9c5.4,7,10.4,14.4,16.2,21.1c3.1,3.6,5.2,7.9,7,12.3c0.3,0.7,0.6,1.4,0.9,2.2l0.3-2.6
			c0.1-0.7,0.2-1.4,0.4-2.3l0.2-1c0.4-2.2,0.7-4.4,0.6-6.8c-0.1-2.2,0.2-4.4,0.4-6.5l0.2-1.3c0.8-6.6,3-13.2,6.8-20.6
			C590.1,279.7,590.4,279.1,590.9,278.8z M559.5,222.7c-2.5-1.3-3.5-3.5-2.4-6c1.9-4.3,3-8.9,4.6-13.3c1.1-3.2,2.6-6.2,4.5-9
			c5.2-7.5,12.4-11.1,22.3-11.4c8.9,0.8,16.8,4.7,21.8,13.3c1.6,2.8,3,5.8,3.9,9c1.1,4,2.9,7.7,5.9,10.9c1.7,2.2,1.3,5-1,6.8
			c-2.4,1.8-4.8,3.5-6.9,5.6c-1.3,1.3-2.7,2.7-3.9,4.2c-2.7,3.3-6.2,5.8-10,7.7c-3.3,1.7-6.8,2.1-10.5,1.8
			c-8-0.7-14.3-4.2-19.4-10.3c-2.2-2.6-4.4-5-6.6-7.6C561.1,223.6,560.4,223.2,559.5,222.7z"/>
		<path class="st4" d="M454.7,167.2c-0.6-1.1-1.1-2.2-1.6-3.5c-0.2-0.5-0.2-1,0-1.8c1.5-3.6,1.9-7.4,1.3-11.7
			c-0.8-4.8-2-10.4-4.6-15.4c-0.3-0.6-0.4-1.1-0.4-1.7c0.2-1.5,0.3-3,0.4-4.5c0.2-1.9,0.3-3.9,0.6-5.8c0.1-0.3,0.1-0.6,0.1-0.9
			c-0.1-0.2-0.2-0.4-0.3-0.7c-0.2-0.5-0.5-1.1-0.7-1.6c-1.5-3.2-3.6-6-5.9-8.8c-1.4-1.8-3.1-3.3-5-4.5c-1.5-0.9-3.1-1.2-4.8-1.3
			c-2.2-0.1-3.1-0.8-3.5-2.5c0-0.3,0-0.6,0-1c0-0.1,0-0.2,0-0.4l-0.1,0c-1.5,0.6-2.9,1.5-3.8,2.7c-1.6,1.9-3.7,3-5.9,3.9
			c-0.5,0.2-1,0.4-1.5,0.6l-0.5,0.2l-0.1,0.1c-0.1,0.1-0.3,0.2-0.4,0.3c-0.1,0.1-0.3,0.2-0.4,0.4c-5.9,4.1-11.2,9.1-15.6,15.1
			l-0.3,0.4c-1.6,2.2-3.4,4.5-4.1,7.5c-0.6,2.6-1,6.4,2.4,9.5c1.8,1.6,3.6,3.4,5.2,5.7c0.1,0.2,0.3,0.4,0.4,0.5
			c0.5,0.6,0.8,1,0.7,1.3c-0.2,0.8-0.3,1.6-0.4,2.4c0,0.5-0.1,1-0.2,1.5l-0.3,1.7c0.2-0.2,0.5-0.5,0.7-0.7c0.2-0.2,0.3-0.3,0.5-0.5
			c5.7-5.6,12.6-8,20.5-7.7c6.2,0.2,11.5,2.6,16,6.8c3,2.8,4.7,6.1,5.1,10.1c0.1,1.7,0.6,3.1,1.3,4.6c1.7,3.4,2.7,7.1,3.7,10.9
			c0.7,3.5-0.1,6.8-1.5,10c-1.1,2.3-3.2,3.4-5.1,4.6c-0.8,0.5-1.5,1.5-2.5,1.2c-1.5-0.5-3-0.8-4-2.1c-1.3-1.6-2.3-3.3-2.5-5.4
			c-0.1-0.7,0-1.4-0.7-1.9c-4-3.1-5.1-7.6-5.6-12.3c-0.1-0.8-0.1-1.6-0.1-2.4c-0.1-2.1,0.3-4.2,0.8-6.2c1.5-6.5,0-7-4.8-9.2
			c-2.6-1.2-5.5-0.9-8.3-0.4c-2.4,0.4-4.6,1.3-6.7,2.6c-2,1.3-4,2.3-6.1,3.4c-0.3,0.2-0.6,0.3-0.9,0.4c0,0.1,0.1,0.1,0.1,0.2
			c0,0.1,0.1,0.1,0.1,0.1l0.1,0.2c0.9,1,1.9,2,3.6,2.2c1,0.2,1.6,0.4,1.9,0.9c0.3,0.5,0.4,1.4,0.1,2.6c-0.6,2.4-2.4,4-4.3,5.6
			c-0.5,0.5-1.1,0.9-1.6,1.4c-0.1,0-0.1,0-0.2,0c-0.2,0-0.5,0-0.7,0.1c-0.7,0.1-1.5,0.3-2.2,0.4c-1.8,0.3-3.6,0.6-5.4,1.3
			c-4.7,1.8-9,4.4-13.1,8.1c-6.5,5.9-10.8,13.1-12.7,21.6c-0.4,1.6-0.7,3.3-1.1,4.9c-0.8,3.6-1.6,7.3-2.5,10.8
			c-1.7,6.7-0.3,13,4,18.2c2,2.5,3.1,4.8,3.4,7.2c0.8,5.8,3.5,10.8,8.1,14.8c1.4,1.2,2.7,2.7,3.8,4.5c2.1,3.3,5,5.6,8.8,6.9
			c1.8,0.6,1.8,0.6,1.9,2.7c0,1.7,0.1,3.6,0.9,5.6c1,2.1,1.9,3.6,3,4.9c3.2,3.9,5.4,7.8,6.7,11.9c1.5,4.2,2.1,8.7,1.8,13.7
			c-0.2,6.1,0.6,12,1.4,17l0.6,4c0.1-1.3,0.2-2.6,0.4-3.8c0.8-4.7,2.4-9.3,5.3-13.6c3-4.6,5.1-9.6,6.7-14.8c1.3-4.1,3.3-7.8,6-11.1
			c0.8-1,1.6-2,2.4-3c2.1-2.5,3.6-5.4,4.2-8.7c0.1-0.6,0.1-1.4,1-1.9c0.1,0.1,0.2,0.2,0.3,0.1c0.2,0.3,0.2,0.5,0.2,0.8h0.5l0.1-0.9
			c0.3-2,0.5-4.6,0.3-7.3c-0.2-4.1-0.8-8.2-1.4-12.2c0-0.3-0.1-0.5-0.1-0.8c-0.1-0.6-0.2-1.1,0-1.5c0.2-0.5,0.3-1,0.5-1.4
			c0.9-2.6,1.8-5.1,3.4-7.2c2.4-3.1,4.4-6.6,6.3-10.1c1.3-2.4,2.9-5.6,3.2-9.2c0.3-3.8,0.3-8.7-2.8-13l-0.1-0.1
			c-0.5-0.8-1-1.5-0.9-2.3c0.3-1.8,0.4-3.7,0.5-5.5c0-0.5,0-0.9,0.1-1.4c0-0.5,0.1-0.9,0.7-1.2c1.6-0.8,3-2.1,4.3-3.8
			c4.3-6.2,6.1-12.7,5.3-19.4C458.2,175.4,456.9,171.2,454.7,167.2z M440.3,226.6c-0.1,1.7-1.1,3-2.3,4.1c-2.5,2.4-5,4.9-7.3,7.6
			c-0.6,0.7-1.3,1.3-1.5,2.2c0.9-0.6,1.9-1.1,3-1.5c3-0.9,5,0.5,5.3,3.6c0.2,1.6-0.1,3-0.7,4.4c-0.9,2.1-1.7,4.2-2.6,6.2
			c-1.7,3.8-4.6,6.3-8.5,7.6c-1.7,0.5-3.2,1.3-4.6,2.4c-2.3,1.7-4.8,3.3-7.5,4.3c-7.2,2.8-14.2,2.8-20.9-1.6
			c-6.8-4.5-11.4-10.6-14.5-18c-0.5-1.2-0.9-2.4-1.5-3.9c1.1,0.4,1.3,1.1,1.7,1.7c1.6,2.2,3.2,4.4,4.9,6.5c2.1,2.6,4.5,4.8,7.5,6.3
			c7.2,3.7,14.3,3.1,21.2-0.9c1.5-0.8,2.8-1.8,4-3c2-2,4.3-3.5,7.2-4c1.3-0.2,1.9-0.9,2-2.2c0.1-1.1,0.4-2.2,0.8-3.2
			c0.6-1.6,1.3-3.1,2.8-4.1c-3.1,1.7-6.3,3.4-9.6,4.7c-5.9,2.3-11.9,3-18.1,1.9c-5.9-1.1-11-3.7-15.1-8.2c-2.2-2.4-4.1-5-5.9-7.6
			c-1.3-1.8-2.5-3.7-3.9-5.5c-1.3-1.8-1.4-3.6-0.1-5.5c0.1-0.1,0.1-0.2,0.2-0.3c0.1-0.4,0.3-0.7,0.5-1c0.3-0.5,0.5-0.9,0.8-1.4
			c0.6-1.3,1.2-2.6,1.6-3.9c2.5-7.3,6.6-13.5,12.4-18.5c7.8-6.8,16.7-7.7,26.2-4c1.2,0.5,2.2,1.2,3.2,2.1c3.9,3.4,7.4,7.2,9.9,11.9
			c2.4,4.4,4.5,9,7.6,12.8C440.4,220.9,440.5,223.8,440.3,226.6z"/>
		<path class="st4" d="M338.3,188.3L338.3,188.3c0.8,6,2.9,12,6.6,18.3c0.6,1.1,1.4,2.1,2.4,3.1l0.5,0.5c0.1-0.4,0.1-0.8,0.2-1.2
			v-0.1c0.2-1.2,0.5-2.4,0.9-3.5c2.1-5.7,4.3-11.5,7.4-16.7c0.5-0.8,0.9-1.5,1.4-2.2c0.7-4.1,1.7-8.4,3.6-12.3c2-4.2,3.8-8.7,5.6-13
			c1.4-3.4,2-7,1.7-10.8c-0.2-2-1.2-3.7-3-4.8c-1.7-1-3.8-1.2-5.6-0.4c-1.7,0.7-3,1.6-4.2,2.8c-0.7,0.8-1.3,1.4-2.2,1.8
			c-5,2.9-8.7,7.1-11.1,12.4c-3.2,7.3-4.7,14-4.3,20.3c0,0.6,0,1.2,0,1.9C338.2,185.6,338.2,187,338.3,188.3z"/>
		<path class="st4" d="M632.9,135.2c4.6,5.9,8.4,12.3,11.8,18.9c2.1,4.2,4.3,8.4,7.3,12.1c0.4,0.6,0.8,1.1,1.1,1.7
			c0.3,0.5,0.5,1.1,0.8,1.6l0.1-1.4c0.1-1.2,0.3-2.2,0.5-3.3l0-0.1l0-0.1c-0.3-5.5-1.2-10-2.9-14.2c-1.8-4.8-4.2-9.8-7.6-16.2
			c-3.6-6.8-9-11-16.6-12.9c-1.6-0.4-3-0.4-4.4-0.1c-0.7,0.1-2.7,0.6-3.5,2.4c0.3,0.2,0.6,0.4,1,0.6
			C625.2,127.3,629.4,130.8,632.9,135.2z"/>
	</g>
	<path class="st3" d="M436.7,362.2c0.8,1.6,1.6,3.3,2.3,4.9l0,0c0.2,0.4,0.5,1,1,1.5l1.6,1.1c0.1-0.4,0.1-0.8,0.2-1.2
		c1.8-8.2,7.2-15.6,16.2-18.7c3.5-1.3,7.1-2.5,10.5-4.1c5.2-2.4,10.7-3.4,16.3-3.4c3,0,6,0.1,9,0.1c1.9-0.1,3.9-0.2,5.8-0.3
		c2.5-0.1,4.9,0.4,7.4,0.4c2.8-0.1,5.5,0.5,8.1,1.2c7.7,1,15.2,2.9,22.3,6c3.7,1.6,6.9,4,9.6,7c1.7,1.9,2.9,4.1,4.3,6.3
		c0.6,0.9,1.1,1.8,1.6,2.7c0.1,0.3,0.3,0.5,0.4,0.8c1.9-1.2,2.8-3.2,3.3-4.8c1.6-5.4,3.1-11.2,3.7-17.3c0.5-5,0.3-9.4-0.4-13.4
		c-1.5-7.8-4.7-14.7-9.6-20.6l-0.9-1.1c-1.7-2.1-3.4-4.2-4.5-6.6c-1.4-2.9-3.3-5.5-4.9-7.6c-0.5-0.8-1.1-1.6-2.1-1.9
		c-0.8-0.2-1-0.8-1.3-2c-0.5-2-1.2-3.7-2-5.4c-0.5-1-1.1-1.8-1.9-2.5c-1.1-0.8-2.5-0.9-3.6-0.1c-1.2,0.7-1.7,2-1.4,3.3
		c0.1,0.4,0.2,0.9,0.3,1.1c1,4.1,2,9,1.1,14c-0.7,4-1.9,8.5-5.5,11.8c-3.8,3.5-8.8,5.1-15.5,5.1c-3.9,0-7.9-0.7-11.4-1.4
		c-3.3-0.6-6.5-0.9-9.7-0.9c-1.7,0-2.9,0.4-4.1,1.4c-1.9,1.5-4.1,2.4-6.4,2.6c-4.5,0.3-8.1-1.7-10.9-6c-1.7-2.5-3.2-5.3-4.5-8.5
		c-1.8-4.1-2.5-8.4-3.3-12.9c-0.2-1-0.3-2.1-0.5-3.1c0,0,0-0.1,0-0.1c0-0.2,0-0.6-0.3-1c-0.2-0.3-0.6-0.7-1.4-0.7h-0.7l-0.3,0.6
		c-0.5,1.2-0.8,2.4-0.9,3.4c-1.1,6.6-3.5,12.6-7.1,17.9c-1.3,1.8-2.6,3.6-3.9,5.4c-0.7,0.9-1.4,1.8-2,2.7c-3.8,5.1-6.1,10.2-7,15.6
		c-0.1,0.8-0.2,1.7-0.4,2.5c-0.4,2.6-0.7,5.2-1.2,7.8c-0.6,3-0.3,6.1,0.7,9.5C433.9,356.5,435.3,359.4,436.7,362.2z"/>
</g>
</svg>
