<?xml version="1.0" encoding="utf-8"?>
<!-- Generator: Adobe Illustrator 24.0.1, SVG Export Plug-In . SVG Version: 6.00 Build 0)  -->
<svg version="1.1" id="New_group_1_" xmlns="http://www.w3.org/2000/svg" xmlns:xlink="http://www.w3.org/1999/xlink" x="0px"
	 y="0px" viewBox="0 0 990 781.2" style="enable-background:new 0 0 990 781.2;" xml:space="preserve">
<style type="text/css">
	.st0{fill:#EAA228;}
	.st1{fill:#E4706A;}
	.st2{fill:#535459;}
	.st3{fill:#A36B0B;}
	.st4{fill:#FFFFFF;}
</style>
<g>
	<path d="M250.7,538c-1.3,0.8-1.9,1.9-2.7,2.9c-4.6,5.5-10,9.9-16,13.6c-6.8,4.2-13.8,8.1-20.7,12c-4.3,2.4-9,4-13.9,4
		c-8.8-0.1-17.7-0.8-25.1-6.4c-4.7-3.6-8.6-8-11.5-13.1c-4.4-7.7-7.9-15.7-9.6-24.5c-1.1-5.7-1.2-11.4-0.9-17.2
		c0.4-8.4,1.7-16.7,2.5-25c0.3-3.5,0-7-0.4-10.5c-0.7-7.5-1.5-15-2.9-22.4c-0.8-4.1-2.4-8-4.6-11.5c-4.4-6.7-8-13.9-11.2-21.2
		c-2.9-6.5-4.2-13.4-5.2-20.4c-1.1-7.5-1.6-15.1-1.3-22.7c0.2-5.8,0.5-11.5,1.1-17.2c0.6-6,1.1-11.9,1.6-17.9
		c0.5-6.7,1.5-13.3,3.2-19.9c2.4-9.1,4.6-18.3,8.2-27.1c3.8-9.2,9.1-17.6,15.7-25.1c7.8-8.8,15-18.1,21.8-27.7
		c11.8-16.6,22.1-34.1,31.6-52c5.6-10.5,11.5-20.9,17.7-31.1c1.1-1.8,2.1-3.6,3-5.5c3.3-6.4,8.1-11.7,12.4-17.3
		c5.9-7.6,13-13.8,20.8-19.3c7.9-5.6,16.2-10.3,25.2-13.8c4.5-1.8,8.1-4.7,11-8.6c7-9.5,15.1-17.9,24-25.7
		c4.8-4.3,10.6-6.6,16.6-8.9c6.3-2.4,12.8-4,19.4-5.2c7.6-1.4,14.7-4.4,21.1-8.7c5.5-3.7,11.1-7.3,17-10.3c8.4-4.2,17.2-7.3,26.5-9
		c7.3-1.3,14.6-3,22-3.8c6.2-0.7,12.4-1.2,18.6-1.8c6.7-0.6,13.4-1.1,20.1-1.7c2.6-0.2,5.3-0.3,7.9-0.5c4.1-0.3,8.3-0.5,12.5-0.5
		c11.8-0.1,23.2,1.9,34.6,4.8c12.5,3.1,24.4,7.7,36.2,12.5c7.6,3,14.8,6.9,21.9,10.8c9.4,5,18.7,10.1,28.1,15.2
		c4.4,2.4,8.7,5,13,7.8c4.2,2.8,8.8,4.9,13.7,6.3c7.9,2.2,15.3,5.7,22.4,9.6c6.4,3.5,11.5,8.4,14.4,15.2c1.3,3.1,3.4,5.5,6,7.6
		c2.2,1.8,4.3,3.8,6.4,5.8c3,2.9,6.3,5.1,10.2,6.6c2.9,1.1,5.8,2.4,8.7,3.5c7.5,2.9,14.1,7.2,20.4,12c4.8,3.7,8.7,8.3,10.6,14.2
		c0.5,1.5,1.3,2.8,2.1,4c5.1,7.4,9,15.4,11.9,24c3.8,11.4,9.4,21.9,14.9,32.4c7,13.4,15.9,25.5,25.5,37.1c3.7,4.5,8.2,8.3,12.4,12.3
		c6.5,6.3,13.6,11.8,20.6,17.6c3.3,2.7,6.1,5.9,8.5,9.4c6.7,10,12.3,20.4,15.9,31.9c1.7,5.3,2.6,10.7,2.9,16.2c0.1,1,0,2.1-0.1,3.1
		c-0.3,3-0.5,6.1-0.1,9.1c1.1,8,0,15.8-1.3,23.6c-2.3,13.8-7.3,26.7-14.5,38.6c-5.5,9.1-10.8,18.3-15.7,27.8
		c-0.7,1.4-1.5,2.8-2.5,4.1c-4.3,5.8-6.7,12.3-8.5,19.2c-2.4,9.2-4,18.6-5.7,28c-2.2,12-4.2,24-7.7,35.6c-2.7,8.9-6.2,17.5-11,25.5
		c-5,8.4-12.4,12.7-22.2,12.8c-3.5,0-6.8-1-10-2.4c-6.7-2.9-13.2-6.1-18.9-10.8c-0.4-0.3-0.9-0.9-1.5-0.4c-0.4,0.4-0.2,0.9-0.1,1.3
		c2.8,9.1,3.4,18.5,4.5,27.9c0.3,2.8,0.6,5.6,1.1,8.3c0.5,2.9,1.5,5.6,3.1,8c0.5,0.7,1,1.5,1.5,2.2c3.2,4.3,3.2,4.3,8.6,4
		c17.7-1.1,34.6,2,51.2,8.3c13.3,5,24.8,12.7,36.6,20.3c6.7,4.3,11.5,10,15.9,16.3c4.6,6.5,9,13.1,12.6,20.1
		c2.5,4.8,4.8,9.8,5.3,15.3c0.3,3.5-0.2,7-0.8,10.5c-1.5,9.8-4.5,19.3-8,28.6c-1.8,4.7-4.9,8.8-8,12.7c-4,5-8.5,9.3-14.2,12.4
		c-2.9,1.6-4.5,4.3-6.1,7c-3.7,5.9-8.4,10.9-13.3,15.7c-4.3,4.2-9.8,6.6-15.6,8c-2.8,0.7-4.9-0.3-6.5-2.8c-0.3-0.4-0.5-0.8-0.8-1.2
		c-2.7-2.9-4-6.5-4.8-10.3c-0.2-1,0-2.5-0.9-2.8c-1.1-0.4-1.8,1.1-2.5,1.8c-2.1,2.1-4.3,4.1-6.5,6c-1,0.8-2,1.6-3.1,2.2
		c-4.5,2.7-9,1.5-11.6-3.1c-2.3-4.2-3.3-8.8-3.6-13.6c-0.1-1.3-0.1-2.6,0-3.8c0.2-1.7-0.6-2.9-1.9-3.9c-1.7-1.2-3.5-2.3-5.4-3.1
		c-5-2-8.3-5.5-10-10.6c-0.9-2.6-1.6-2.7-3.5-0.8c-2,2.1-3.1,4.6-4,7.3c-1.3,4.3-3.2,8.3-6.1,11.9c-1.9,2.4-4,4.5-6.5,6.4
		c-4,2.9-9.2,2.2-12.3-1.7c-2.5-3.2-3.9-6.8-4.5-10.7c-0.2-1.2-0.4-2.4-0.5-3.6c-0.2-1.9-1.1-3.4-2.8-4.2
		c-6.5-3.2-11.3-8.5-16.4-13.5c-1.3-1.3-2.4-2.8-3.1-4.5c-0.4-0.9-1-1.4-2-1.3c-0.6,0-1.3,0-1.9,0c-145,0-290,0-435,0
		c-0.5,0-1,0-1.4,0c-1.4-0.1-2.2,0.5-2.7,1.8c-0.8,1.8-2.1,3.4-3.5,4.8c-2.6,2.7-5.4,5.2-8.2,7.7c-1.7,1.5-3.5,2.8-5.5,3.8
		c-1,0.5-1.9,1.1-2.9,1.8c-1.1,0.8-1.8,1.8-1.9,3.2c-0.2,1.7-0.6,3.3-0.9,5c-0.6,3.2-1.9,6.1-3.6,8.8c-1.8,2.9-4.6,4.3-8,4.6
		c-1.9,0.1-3.4-0.7-4.9-1.8c-4.3-3.1-7.6-7.1-10-11.8c-1.3-2.5-2.3-5.1-3.1-7.8s-2.1-5-4.3-6.8c-1.4-1.2-1.9-1.1-2.6,0.7
		c-0.2,0.6-0.4,1.2-0.7,1.8c-1.4,4-4.1,6.8-7.8,8.7c-2.2,1.1-4.5,2.2-6.6,3.4c-1.8,1.1-2.5,2.5-2.4,4.5c0.2,4.9-0.6,9.7-2.4,14.3
		c-0.9,2.4-2.1,4.7-4.4,6.1c-2.6,1.7-5.2,1.8-7.9,0.3c-2.4-1.4-4.5-3.1-6.4-5c-1.6-1.6-3.3-3.3-5-4.9c-1.3-1.2-1.7-1.1-2.1,0.7
		c-0.2,0.7-0.3,1.4-0.4,2.1c-0.8,4.7-3.4,8.4-6.3,12c-1.4,1.7-3.4,2.2-5.4,1.7c-7.2-1.7-13.4-5-18.4-10.6c-1.4-1.6-2.8-3.1-4.2-4.6
		c-3.3-3.5-5.8-7.4-8.4-11.4c-1.1-1.7-2.4-3-4.1-4c-1.6-0.9-3.1-2-4.6-3c-5-3.3-8.6-7.9-12.1-12.5c-4.1-5.3-6.5-11.3-8.4-17.7
		c-1.8-6-2.8-12.2-2.7-18.4c0.3-11.4,1.8-22.6,6-33.3c2.9-7.4,7.6-13.4,13.5-18.7c4.2-3.8,8.7-7,13.1-10.5c4.9-4,9.8-7.9,15.1-11.5
		c15.2-10.3,32-16.2,50.2-18.3c10-1.2,20.1-0.9,30.1,0.2c10,1.1,19.9,3,29.7,5.6c2.2,0.6,2.6,0.4,3.8-1.8c2.8-5.5,4.6-11.4,5.5-17.5
		c0.7-5,0.6-10,0.6-15.1c0-2.6,0-5.3-0.1-7.9c-0.2-7.7,0.3-15.3,1.5-22.9C250.9,539.8,251.3,539,250.7,538z"/>
</g>
<g>
	<path class="st0" d="M213.9,288.2c-0.9-5.1-1.7-10.1-1.6-15.3c0.1-3.6,0-7,0-10.6c0-1.7-0.3-3.3-1.2-4.7c-1.1-1.9-3.3-2-4.6-0.2
		c-0.1,0.1-0.3,0.4-0.4,0.6c-2.3,4.6-5.4,8.7-8.1,13.1c-1.5,2.5-3,5-4.8,7.4c-3.6,4.8-7,9.7-10.5,14.5c-1,1.4-1.7,3-2.9,4.4
		c-2.4,3-4.9,6-7,9.3c-4.2,6.6-7.6,13.5-9.3,21.2c-0.7,3.2-1.2,6.4-2.5,9.4c-1,2.4-1.6,5-0.9,7.6c1.3,5,1.1,10.2,1.8,15.3
		c0.3,2.4,0.4,4.9,0.9,7.3c1.1,5.3,2.9,10.1,7,13.9c1.2,1.2,2.6,2,4.2,2.5c6,1.5,11.6,0.6,16.7-3.1c1.5-1.1,2.9-2.2,4.5-3.4
		c0.1-0.1,0.2-0.2,0.3-0.3c0,0.1,0,0.1-0.1,0.2s-0.1,0.1-0.2,0.1c0.1,0.6,0.1,1.2-0.1,1.9c-0.2,1-0.7,1.9-1,2.9
		c-0.4,1.2-0.9,2.4-1.4,3.6c-0.6,1.7-0.5,3.5-0.4,5.3c0.1,1.3,1.2,2.4,2.5,2.5c1.2,0.1,2.3,0.1,3.4-0.5c1.4-0.9,2.6-1.9,3.6-3.3
		c2.9-4.1,4.6-8.7,6-13.5c1.7-5.7,3.1-11.5,3.8-17.5c0.5-4.6,1.4-9.3,1.3-14c0-0.6-0.1-1.2,0.1-1.8c0.6-2.1,0.5-4.2,0.5-6.3
		c0-1.9,0-3.8,0-5.6c0-1.5,0.1-3,0.5-4.5c0.9-3.4,1.6-6.9,1.6-10.4c-0.1-6.6,0.5-13.1-0.5-19.6C214.7,293.8,214.3,291,213.9,288.2z"
		/>
	<path class="st0" d="M832.5,356.3c-0.1-0.7-0.3-1.4-0.3-2.1c0.1-3.3-0.7-6.5-1.5-9.7c-1.1-4.3-2-8.7-4-12.7c-1.3-2.6-2.5-5.3-3.6-8
		c-2.2-5.1-4.4-10.1-7.7-14.5c-1.7-2.2-3.6-4.3-5.3-6.5c-0.9-1.2-1.8-2.5-2.9-3.5c-3.6-2.6-6.3-5.9-8.9-9.4
		c-1.2-1.7-2.9-2.7-4.6-3.6c-1.6-0.9-3.2-0.6-4.5,0.7c-1,1-1.9,2.1-2.5,3.4c-0.5,1.2-1.1,2.4-2.1,3.2c-1.4,1.2-2,2.9-2.3,4.6
		c-0.2,1.3-0.8,2.4-1.5,3.6c-3,4.8-5.7,9.8-7.6,15.1c-3.3,9-5.2,18.5-5.1,28.2c0,2.1-0.2,4.2,0.2,6.3c0.8,4.4,1.8,8.7,3.4,12.8
		c1.9,4.7,4,9.3,6.9,13.5c2.7,3.9,6,7.3,8.4,11.3c0.8,1.2,1.9,2.1,3.3,2.5c0.9,0.3,1.6,0.1,2.2-0.7c0.3-0.5,0.5-1,0.8-1.5
		c1.4-2.2,2.8-4.3,4.9-6c3.9-3.1,7.9-5.9,12.5-7.9c2.2-0.9,4.4-1.5,6.7-1.9c1-0.2,1.7,0.5,1.4,1.5c-1.5,4.2-2.1,8.7-4.9,12.4
		c-0.2,0.4-0.5,0.7-0.5,1.1c-0.1,0.4-0.1,0.8-0.1,1.2c1.2,0,1.9-0.9,2.6-1.6c1.8-1.7,3.6-3.3,5.5-4.9c3.6-3,6.8-6.4,8.7-10.8
		c1.9-4.5,2.2-9.3,2.8-14.1C832.8,357.5,832.6,356.9,832.5,356.3z"/>
	<path class="st0" d="M813.1,389.4L813.1,389.4L813.1,389.4L813.1,389.4L813.1,389.4z"/>
	<path class="st0" d="M670.6,246.2c-3-0.3-5.6,0.9-7.5,3c-2.2,2.5-4.8,4.5-7.7,6.2c-1.7,1-3.6,1.9-5.3,2.9c-3.1,1.8-6.6,1.5-9.9,1.9
		c-0.3,0.1-0.7-0.1-1-0.1c-3.9-0.4-7.7-1.1-11.5-1.1c-5.7,0-11.2-0.8-16.6-2.2c-1-0.3-2-0.6-3-1c-0.5-0.1-0.6-0.7-0.5-1.2
		c0.3-0.9,0.9-1.6,1.5-2.3c1.6-1.6,3.1-3.2,4.8-4.7c2.5-2.2,4.3-4.9,6.1-7.7c0.8-1.3,1.4-2.7,1.2-4.2c0.3-3.3-2.2-6.1-4.6-6.9
		c-1.6-0.5-3.2-0.5-4.9,0c-2.3,0.7-4.6,1.5-6.8,2.8c-2.2,1.5-4.9,2.5-7.6,2.6c-8.1,0.3-16.2,0.1-23.9-2.8c-0.5-0.2-1.1-0.5-1.7-0.5
		c-2.2-0.4-4.1,0.5-5,2.4c-0.8,1.7-0.5,3.6,1.2,5.1c0.3,0.3,0.8,0.5,1.1,0.9c2.3,1.6,4.6,3.2,6.9,4.9c3,2.2,6,4.4,8.1,7.7
		c1.5,2.2,3.1,4.4,4.7,6.6c2.2,2.8,4.4,5.5,7.7,7c1,0.5,1.6,1.3,2.2,2.2c1.1,1.7,2.2,3.3,3.6,4.7c5.9,5.9,12.7,10.4,20.3,13.6
		c1,0.4,2,0.8,2.9,1.4c3.2,2.2,6.9,3.6,10.5,4.8c2.5,0.8,4.8,1.9,6.8,3.6c1.5,1.2,3,2.2,4.8,2.9c2.5,1.1,4.8,0.7,6.8-1.2
		c1.5-1.4,2.5-3.2,2.7-5.2s0.6-4,0.7-5.9c0.2-4.7,1.6-9.2,3-13.7c0.8-2.5,1.7-4.9,3.1-7.1c1.8-2.9,3.3-5.9,4.6-9.1
		c0.4-1.1,1.1-1.8,2-2.3c0.6-0.3,1.2-0.6,1.9-1c1.9-1.2,2.4-3.2,1.2-5.2C672.9,246.8,671.8,246.4,670.6,246.2z"/>
	<path class="st0" d="M429.8,96.7c0.2-0.3,0.4-0.6,0.5-0.9c0.1-0.2,0.1-0.3,0.2-0.5c0.1-0.4,0.1-0.7,0.2-1.1c0-0.2,0-0.4,0-0.6
		c0-0.4,0-0.8-0.1-1.2c-0.1-0.5-0.2-1.2-0.4-1.7c-0.1-0.5-0.3-1.2-0.5-1.7c-0.1-0.3-0.2-0.5-0.3-0.8c-1.3-4.3-0.9-8.7-0.4-13.1
		c0.1-1.4,0.4-2.8,0.6-4.2c0.1-0.9,0.3-1.9,0.4-2.8s0.1-1.9,0.1-2.8c0-0.5,0-0.9-0.1-1.4c0-0.8,0-1.6,0-2.5s0-1.6,0-2.5
		c0-1-0.1-1.9-0.5-2.6c-0.1-0.2-0.2-0.5-0.4-0.8c-0.5-0.7-1-1.3-1.9-1.8c-0.2-0.2-0.5-0.3-0.9-0.4c-0.3-0.2-0.5-0.2-0.9-0.3
		c-1.7-0.5-3.2-0.1-4.6,0.9c-0.2,0.2-0.5,0.4-0.7,0.5c-0.7,0.6-1.3,1.2-1.9,1.8s-1.2,1.3-1.6,2.1c-0.7,1.2-1.7,1.9-2.8,2.6
		c-1.2,0.8-2.4,1.7-3.6,2.5c-0.6,0.5-1.2,0.8-1.8,1.3c-2.9,2.2-5.6,4.6-8.1,7.3c-0.1,0.2-0.4,0.4-0.5,0.5c-0.5,0.5-1.2,1.1-1.7,1.7
		c-0.5,0.4-0.9,0.8-1.4,1c-0.5,0.3-1.1,0.5-1.6,0.7c-0.7,0.2-1.4,0.4-2.1,0.5c-2.1,0.4-4.2,0.5-6.3,0.1c-1.8-0.3-3.5-0.3-5.2-0.2
		c-0.5,0.1-1.2,0.2-1.8,0.2c-1.9,0.3-3.8,0.7-5.6,1.3c-0.6,0.2-1.2,0.4-1.8,0.6c-2.3,0.9-4.6,2-6.7,3.3c-4.4,2.7-7.9,6.2-11,10.1
		c-1,1.3-2,2.7-2.9,4.1c-0.5,0.7-0.8,1.5-1.2,2.2c-0.5,1-0.3,1.9,0.3,2.6c0.7,0.9,1.8,1.3,2.8,0.8c1.5-0.8,3.1-1.1,4.8-0.9
		c3.3,0.4,6.3,1.6,9,3.6c2.9,2.2,5.8,4.3,9,6.1c3,1.6,5.6,3.8,7.5,6.8c1.1,1.8,2.3,3.5,3.5,5.3c0.8,1.2,1.7,2.2,2.8,3.1
		c1.9,1.5,4,1.6,5.9,0.4c2.5-1.6,5.6-5.2,4.6-9.6c-0.8-3.2-0.6-6.6-0.5-9.8c0.1-1.9,0.6-3.9,1-5.9c0.2-1.1,0.9-1.8,2.1-2.2
		c3-1,6.1-1.7,9.3-1.3c1.9,0.2,3.7,0.5,5.5,0.9c2.5,0.7,4.9,0.5,7.4,0.4C427.5,98.7,428.9,97.9,429.8,96.7z"/>
	<path class="st0" d="M574.2,101.6c0.8-0.2,2.1-0.5,3.2-1c2.5-1.2,5-2.6,7.5-3.9c3.4-1.9,6.7-3.9,10.5-4.7c0.5-0.1,1-0.2,1.5-0.3
		c1.5-0.2,3.1-0.5,4.6-0.7c1.7-0.3,3.5-0.5,5.2-1c1.6-0.5,2.5-1.6,2.5-2.9c0-0.2,0-0.2,0-0.4c-0.1-0.4-0.2-0.8-0.4-1.2
		c-0.2-0.2-0.3-0.5-0.5-0.8c-0.3-0.4-0.7-0.8-1.1-1.2c-0.4-0.4-0.8-0.7-1.2-1c-0.5-0.4-1.1-0.8-1.5-1.2c-1-0.8-1.9-1.7-2.8-2.6
		c-0.5-0.5-0.9-0.9-1.4-1.4c-1.2-1.2-2.3-2.3-3.5-3.5c-0.3-0.3-0.6-0.6-0.9-0.9c-1-0.9-2-1.7-3.1-2.5c-0.7-0.5-1.5-0.9-2.2-1.4
		c-0.8-0.4-1.5-0.8-2.4-1.1c-0.2-0.1-0.5-0.2-0.6-0.3c-0.2-0.1-0.4-0.2-0.6-0.4c-0.4-0.2-0.8-0.5-1.2-0.8c-0.7-0.5-1.5-1.2-2.2-1.7
		c-1-0.8-2-1.5-3.1-2c-0.3-0.2-0.5-0.2-0.8-0.4c-1.5-0.5-3-1.2-4.6-1.7s-3.1-1-4.6-1.5c-1.1-0.3-2.1-0.5-3.2-0.7
		c-1.2-0.2-2.4-0.5-3.6-0.8c-1.8-0.4-3.5-0.9-5.1-1.5c-1.1-0.4-2.2-0.9-3.2-1.5c-0.5-0.2-1.1-0.5-1.6-0.8c-1.7-1-3.5-1.5-5.3-1.9
		c-0.8-0.1-1.5-0.2-2.2-0.2c-0.4,0-0.8,0-1.2,0c-0.5,0-1.1,0.1-1.6,0.2c-0.5,0.1-1,0.2-1.5,0.5c-1.5,0.5-2.7,1.5-3.8,2.5
		c-0.5,0.5-0.9,1.2-1.3,1.9c-0.2,0.5-0.5,0.9-0.6,1.5c-0.1,0.2-0.2,0.5-0.2,0.8c-0.5,1.8-0.9,3.6-1.4,5.4c-0.1,0.4-0.2,0.8-0.3,1.2
		s-0.2,0.8-0.4,1.2c-0.2,0.8-0.6,1.6-1,2.2c-0.3,0.6-0.6,1.2-0.9,1.8c-0.6,1.2-1.2,2.5-1.6,3.7c-0.7,1.9-1.3,3.8-1.8,5.7
		c-0.3,1.3-0.5,2.6-0.7,4c-0.1,0.8-0.2,1.6-0.1,2.4c0,0.4,0.1,0.8,0.1,1.2c0.2,1.9,0.8,3.7,1.9,5.5c0.3,0.6,0.8,1.2,1.4,1.6
		c2.7,1.7,5.5,3.2,8.9,1.9c1-0.4,2.1-0.5,3-0.8c2.2-0.9,4.5-1.9,6.8-2.9c2.4-1,4.8-1.9,7.2-2.9c0.3-0.2,0.5-0.2,0.8-0.2
		c0.4-0.1,0.8,0,1.1,0.1c0.2,0.1,0.5,0.2,0.7,0.3c0.2,0.1,0.2,0.2,0.4,0.2c0.4,0.2,0.8,0.5,1.1,0.8s0.6,0.7,0.9,1.1
		c0.4,0.5,0.8,1.2,1.2,1.7s0.8,1.2,1.2,1.7c2,3.1,5.3,3.9,8.6,5C573.3,101.6,573.5,101.6,574.2,101.6z"/>
	<path class="st0" d="M302.5,142.6c2.4-4,4.8-8.1,7.7-11.8c0.7-0.9,1.2-2,1.8-3c0.4-0.8,0.5-1.6,0.4-2.4c-0.2-2-2.1-2.9-3.9-1.9
		c-2.1,1.2-3.6,2.9-5.3,4.6c-2.5,2.5-5.3,4.6-8.5,6.1c-3.4,1.6-6.8,3.1-10.4,4.2c-3.3,1.1-6.7,2.2-10,3.3c-4.5,1.6-8.4,4-11.8,7.4
		c-4.1,3.9-7,8.8-9.8,13.7c-1.5,2.4-2.6,4.9-3.6,7.6c-1.7,4.5-3.2,9.1-4.6,13.7c-0.9,3-1.9,6-1.9,9.3c0,0.7,0,1.4,0,2.1
		c0,0.5,0.1,1,0.7,1c0.2,0,0.6-0.3,0.8-0.6c0.4-0.7,0.6-1.6,0.9-2.2c0.3-0.8,0.7-1.6,1.7-0.6c0.1,0.1,0.7,0,0.9-0.1
		c3.1-2.1,6.2-4.2,8.6-7.1c0.6-0.7,1.3-1.3,2-2c1-1,2.2-1.9,3.5-2.3c5-1.9,9.8-3.9,15.3-3.6c2.9,0.1,5.6-0.3,8.4-0.9
		c5-0.9,8.6-3.6,10.5-8.4c1.8-4.5,2.7-9.2,3.2-14C299.4,150.4,300.3,146.3,302.5,142.6z"/>
	<path class="st0" d="M688.2,147.4c-1.1-0.8-2.1-1.6-3.1-2.3c-5.9-4.3-6.6-5.3-9.5-11.8c-0.3-0.6-0.5-1.3-0.8-1.9
		c-2.1-4.9-4.9-9.4-8.9-12.9c-2.9-2.6-6.2-4.7-9.6-6.5c-2.1-1.1-4.4-1.6-6.7-1.8c-2.2-0.2-4,1-4.1,2.9c-0.2,1.9-0.4,3.9,0.5,5.9
		c0.8,1.9,1.5,3.6,2.7,5.3c1.6,2.2,3.2,4.6,5.2,6.6c0.8,0.8,1.5,1.6,1.4,2.7c-0.2,2.5,0.5,4.9,0.8,7.4c0.5,3.9,1.5,7.9,3.8,11.2
		c1.6,2.4,2.5,4.8,2.5,7.8c-0.1,3.7,3.8,6,7.2,4.6c1.4-0.6,2.8-1.2,4-2.1c3.6-2.5,7.6-2.9,11.8-1.9c1.7,0.4,3.4,1.1,5,0.9
		c0.5,0,0.7,0,0.9,0c2.3-0.1,3.4-1.2,3.6-3.5c0.1-1.2-0.1-2.3-0.6-3.4C692.5,151.9,690.8,149.3,688.2,147.4z"/>
	<path class="st0" d="M344.8,273.8c-1.7-0.2-3.2,0-4.7,1c-0.7,0.5-1.4,0.9-2,1.4c-4.2,3.3-9,2.8-13.9,2.4c-0.3,0-0.7-0.2-1-0.4
		c-2.5-1.4-5.3-2.6-7.4-4.7c-2.2-2.1-4.3-4.3-6.4-6.5c-1.5-1.5-2.5-3.4-2.7-5.6c-0.1-1.4-0.6-2.7-1.2-4c-0.3-0.8-0.8-1.4-1.5-1.9
		c-2.2-1.3-5.2-0.5-6.3,1.9c-0.5,1.2-0.9,2.6-0.9,4.1c0.1,2.9,0.1,5.8,0.5,8.7c0.5,3.3,1.2,6.4,2.2,9.5c1.3,3.7,3.2,7.2,6.3,9.6
		c4.3,3.6,9.4,5.6,15.2,5.6c1.8,0,3.6,0.1,5.3,0.1c1.2,0,2.2,0.4,3.2,1.2c1.8,1.8,4,2.9,6,4.2c0.8,0.5,1.7,0.7,2.6,1.1
		s1.6,0.1,2.3-0.2c1.6-0.8,2.5-2.2,2.8-3.9c1.2-5.7,2.6-11.4,4.1-17c0.1-0.7,0.2-1.4,0.1-1.4c0-1.3,0.1-1.9,0-2.5
		C347.4,275.1,346.3,273.9,344.8,273.8z"/>
	<path class="st0" d="M548.1,141.9c-1.1-0.6-2.2-1-3.3-0.5c-1.5,0.5-2.9,0.9-4.2,1.9c-1.9,1.5-4,2.9-5.9,4.5c-2.5,2-5,3.9-8.5,3.4
		c-0.5-0.1-1-0.1-1.4,0.1c-1.7,0.6-3.3,0.3-5.1,0c-5.8-1-9,0.8-10.4,7c-0.1,0.5-0.1,1.2-0.1,1.8c-0.1,3.9,0.5,7.7,1.2,11.4
		c0.3,1.7,0.8,3.4,1,5.2c0.2,1.9,0.5,3.8,1.7,5.3c0.9,1.2,1.7,2.4,1.9,4c0.1,1.4,1.3,2.2,2.7,2.3c0.8,0.1,1.6,0,2.5,0l0,0
		c0.5,0,0.9,0,1.4,0c2.9,0.1,4.9-1.5,6.2-3.9c0.3-0.6,0.5-1.3,0.7-2c1.1-3.6,2.6-7,4.4-10.3c1.3-2.4,2.8-4.6,4-7
		c1.8-3.3,4.1-6.3,6.8-8.9c2.2-2.2,3.7-4.8,5.1-7.6c0.8-1.6,0.7-3.2,0.6-4.8C549.3,143,548.8,142.4,548.1,141.9z"/>
	<path class="st0" d="M447.6,159.5c-0.4-1.9-0.9-3.9-1.9-5.6c-1.3-2.1-3.4-2.6-5.4-1.1c-0.9,0.7-1.8,1.6-2.3,2.6
		c-0.4,0.7-0.9,1.4-1.2,2.2c-1.1,2.8-2.7,5.2-5,7c-1.5,1.2-2.5,2.8-3.2,4.6c-2.2,4.9-3.5,9.9-3.2,15.3c0,1.2-0.1,2.3,0,3.5
		c0.1,2.7,0.8,5.3,1.9,7.8c1.6,3.5,5.3,4.1,8,1.4c0.5-0.5,1-1.2,1.5-1.9c0.5-0.8,0.9-1.6,1.2-2.5c1.2-2.7,2.9-4.9,5.4-6.7
		c2.6-1.9,4.7-4.3,5.6-7.4c0.9-3,1.2-6.2,0.5-9.4C448.7,165.9,448.3,162.7,447.6,159.5z"/>
	<path class="st0" d="M812.9,389.6c-0.1,0-0.1,0.1-0.1,0.1c0.1-0.1,0.2-0.1,0.2-0.2L812.9,389.6C813,389.5,812.9,389.5,812.9,389.6z
		"/>
	<path class="st0" d="M813.1,389.5L813.1,389.5C813.1,389.5,813.1,389.4,813.1,389.5C813.1,389.4,813.1,389.5,813.1,389.5
		L813.1,389.5z"/>
</g>
<g>
	<path class="st1" d="M418.3,446.4c-1.9,0.3-3.7,0.5-5.6,0.5c-3,0.1-3.2-0.1-3.8,3.3c-0.4,2.2-0.9,4.4-1.1,6.6
		c-0.9,8-1.1,16.2-1,24.3c0.1,10.6,1,21.1,2.4,31.6c1.2,9.2,3,18.3,6.3,27.1c0.5,1.5,1.1,2.9,1.9,4.2c4.6,7.3,10.8,12.7,18.2,16.9
		c7.7,4.3,16.2,6.4,24.7,8c4,0.8,8.2,1,12.2,1.6c2.9,0.5,5.9,0.5,8.8,0.5c7.7-0.1,15.5-0.5,23.2-1.6c5.7-0.8,11.3-1.8,16.6-4.5
		c4.6-2.3,7.8-5.9,11-9.7c1-1.2,1.5-2.6,1.6-4.2c0.2-2.2,0.8-4.4,1.5-6.5c0.8-2.7,1.6-5.4,2.3-8.1c1-3.6,1.5-7.1,1.6-10.8
		c0.2-6.3-0.2-12.7-0.4-19c0-4.2,0-8.4,0-12.7c0-8.7-1.3-17.1-3.4-25.5c-1.5-6-2.9-11.9-4.2-17.9c-0.4-1.8-1.2-2.9-2.9-3.5
		c-6.7-2.3-12.4-6.3-17.6-10.9c-0.5-0.4-0.9-0.8-1.3-1.2c-0.9-1.2-2.1-1.3-3.5-0.9c-3.5,1.2-7,2.2-10.4,3.3
		c-2.7,0.9-5.2,2.1-7.6,3.6s-4.8,3-7.5,3.9c-1.6,0.5-2.2,1.5-2.5,2.9c-1.3,4.9-2.3,9.8-2.9,14.9c-0.9,7.4-1.7,14.9-2.8,22.4
		c-0.7,5.3-1.6,10.4-1.8,15.8c0,0.8-0.2,1.6-0.5,2.4c-0.1,0.5-0.5,0.1-0.8,0.1c-1.4-0.2-1.5-0.1-1.5-0.9c-0.1-1.4-0.3-2.8-0.4-4.2
		c-0.2-3.6-0.6-7.3-1.3-10.8c-0.4-1.9-0.6-3.7-0.8-5.6c-0.5-3.9-1.1-7.7-1.9-11.5c-1.5-6.8-4.2-13.2-6.6-19.7
		c-1.1-3-2.6-5.7-5.2-7.8c-0.5-0.4-0.9-0.8-1.2-1.3c-1.8-2.8-4.5-3.1-7.4-3.2c-0.7,0-1.4,0.1-2.1,0.2c-0.9,0.1-1.6,0.1-2.5-0.1
		c-1.9-0.6-3.3-0.1-4.9,1.2C429,443.3,423.9,445.4,418.3,446.4z"/>
</g>
<g>
	<path class="st2" d="M391.1,451.9c-3.7-0.5-6.9-2.3-9.9-4.4c-3.4-2.4-6.3-5.3-8.7-8.6c-6-8-10-17-13.1-26.5c-1-3-3.2-4.3-5.7-5.7
		c-0.8,1.8-0.8,3.4-0.8,5c0,4.6,0.8,9.1,1.9,13.6c1.4,5.8,3.6,11.1,7.5,15.8c1.8,2.2,3.4,4.5,5.3,6.6c3.6,4.1,6.5,8.7,8.7,13.7
		c1.4,3.2,2.9,6.4,4.3,9.7c1.9,4.3,4.7,8.1,8,11.5c0.5,0.5,1,1.3,1.9,1.2c0.5-0.3,0.5-0.8,0.5-1.2c0.1-2.3,0.3-4.7,0.4-7
		c0.1-5,0.1-9.9,0.9-14.8c0.4-2.4,0.1-5,0.1-7.4C392.4,452.5,392,452,391.1,451.9z"/>
	<path class="st2" d="M479.9,336c1.6,1,3.3,1.8,4.6,3.3c0.3,0.4,0.9,0.5,1.3,0.2c0.9-0.3,1.8-0.7,2.6-1.1c8.2-3.8,15.3-9.1,22-15.1
		c0.6-0.5,1.2-1.2,1.7-1.8c2.2-2.3,4.3-4.6,6.4-7c0.5-0.6,1.3-1,1.2-2.1c-5,0.9-9.9,1.9-14.8,2.7c-1.5,0.2-3,0.4-4.6,0.5
		c-1.3,0.1-2.5-0.1-3.8-0.5c-3.8-1.4-7.2-3.4-10.3-6c-1.1-0.9-2-2-2.7-3.2c-4.5-7.8-4-15.5,0.6-23c1.5-2.5,3.8-4.2,6.6-5.1
		c4.5-1.4,10.3-0.5,13.1,4.8c2.3,4.3,0.6,8-2.6,9.7c-0.9,0.4-1.7,0.9-2.5,1.4c-0.9,0.5-1.8,1.1-2.6,1.8c-0.9,0.7-1.9,1.5-1.5,2.9
		c0.3,1.1,1.5,1,2.3,1.4c0.3,0.1,0.7,0.2,1,0.3c6.4,1.5,12.9,2.5,19.6,2.2c2.5-0.1,5.1-0.7,7.7-1.2c1.9-0.5,3.2-1.7,4-3.7
		c1.4-3.8,1.3-7.6,0.5-11.5c-0.5-2.3-1.1-4.6-0.9-7c0.1-1.6-0.5-2.9-1.5-4.2c-2.7-3.6-5.7-6.8-9.1-9.8c-4.7-4-9.7-7.9-14.8-11.5
		c-2.2-1.6-4.6-2.9-7.1-3.9c-8.2-2.9-16.6-3.9-25.3-3.2c-1.1,0.1-2.1,0.4-3.1,0.5c-1.6,0.3-3.2,0.7-4.9,0.8
		c-5.9,0.3-11.8,0.4-17.6-0.4c-2.1-0.3-4.2-0.4-6.3,0c-9.4,1.6-17,6-22.4,14c-3.2,4.7-5.7,9.8-7.7,15.1c-1.8,5-2.6,10-2.6,15.2
		c0,4.2,0.5,8.4,0.7,12.7c0.1,1,0.4,1.8,1.3,2.3c3.6,2,7.4,3.2,11.5,2.2c4.4-1.1,8.8-2.3,13.3-3.5c0.8-0.2,1.2-0.7,1.4-1.4
		c0.5-1.9,0.8-3.7,0.5-5.6c-0.3-3.1-0.4-3.2-3.4-2.9c-0.6,0.1-1.2,0.1-1.8,0.1c-3.9-0.1-7-1.7-9.4-4.7c-2.1-2.7-2.1-7.7,1.8-9.8
		c1.3-0.8,2.7-1.5,4.2-1.8c2.3-0.5,4.6-0.6,7-0.4c3.6,0.4,6.6,2.1,9.8,3.9c4,2.3,6.1,5.7,6.7,10.2c0.2,1.5,0.3,3,0.5,4.6
		c0.5,3.9-0.5,7.5-2.4,10.8c-1.9,3.4-4.8,5.7-8.7,6.7c-1,0.2-2,0.7-2.9,1.2c-2,0.9-4.2,1.7-6.3,2.1c-2.8,0.5-5.6,1.1-8.4,1.1
		c-0.6,0-1.5-0.1-1.9,0.8c0.5,1,1.5,1.7,2.5,2.4c2.3,1.6,4.7,3.2,7,4.8c5.4,3.8,11.3,6.7,17.5,9.1c2.1,0.8,4.2,1.5,6.3,2.2
		c0.9,0.3,1.3,0,1.6-0.9c0.5-1.5,1.2-2.8,2.2-4c2.2-2.7,3.3-5.9,3.9-9.4c0.5-4,0.9-8,0.9-11.9c0.1-6.1,0.6-12.2,1.2-18.3
		c0.1-0.8-0.1-1.7,0.8-2.2c0.5-0.3,1.1,0.4,1.5,2c0.1,0.5,0.2,0.9,0.3,1.4c1.5,6.6,2.9,13.1,4,19.7c0.7,4,1.7,7.8,3.1,11.5
		C473.8,330.5,476.2,333.8,479.9,336z M447,270.2c-5-0.2-9.8,0.2-14.6,1.7c-1.2,0.4-2.5,0.8-3.8,0.9c-3.2,0.5-5.5-2.3-4.5-5.3
		c0.5-1.5,1.5-2.6,2.5-3.7c2-1.9,4.4-3.1,7-4c5.3-1.8,10.4-3.5,15.9-4.5c6.1-1.2,12.1-2.8,18.3-3.6c5.7-0.7,11.5-0.6,17.2,0.5
		c2.2,0.4,4.3,1.1,6.3,2.2c2.2,1.2,4,2.9,5.3,5c2.5,4.4,1.2,9.3-3.2,11.9c-1.4,0.9-2.9,1.4-4.6,1.8c-2.1,0.5-4.2,0.8-6.3,0.8
		c-2.9-0.3-5.8-0.6-8.7-1C465.1,271.8,456.1,270.7,447,270.2z"/>
	<path class="st2" d="M542,399.3c-1.5-0.5-3-0.7-4.5-0.4c-1.4,0.2-2.7,0.7-4.1,1c-1.6,0.4-3.2,0.8-4.8,1.1c-1.9,0.4-3.7-0.1-5.3-1.2
		c-3.2-2-5.5-4.7-7-8.2c-0.7-1.6-1.3-3.2-1.9-5c-1.6-4.2-4.2-7.9-7.7-10.8c-0.5-0.5-1.1-0.9-1.6-1.4c-0.9-0.9-0.9-1.5-0.5-2.5
		c0.5-1.2,1.5-2.1,2.4-3c3.2-3.3,5.7-7.2,7-11.7c1.1-3.6,1.6-7.4,1.3-11.1c-0.1-1.2,0.2-2,1.2-2.7c2.2-1.8,4.1-3.9,5.6-6.3
		c1.4-2.2,2.2-4.6,2-7.4c0-0.5-0.1-0.9-0.2-1.4c-1.9,2.1-4,4-6.3,5.9c-8.2,7-17.3,12.5-27.4,16.5c-3.5,1.4-7,2.8-10.8,2.9
		c-0.4,0-0.7,0.1-1,0.1c-0.8,0.1-1.3,0.5-1.3,1.4c0,2.9-0.5,5.9-0.9,8.7c-0.2,1.8,0,3.6,0.2,5.3c0.3,2.7,0.8,5.3,1.1,8
		c0.2,2.5,0.9,4.8,1.6,7.2c1.2,4.2,4,6.8,7.9,8.4c1.9,0.8,4,1.5,6,2.2c4.1,1.4,7.6,3.7,10.5,6.9c1.6,1.7,3.1,3.6,4.4,5.5
		c2.2,3.2,4.3,6.5,6.1,10c4.6,2.8,9.7,3.9,15.2,3.5c10.4-0.8,14.6-7.3,16.6-15.2c0.1-0.5,0.1-0.9,0.1-1.4
		C545.8,402.1,544.4,400.2,542,399.3z"/>
	<path class="st2" d="M458,356.5c-0.6-2.3-1.6-4.2-4.2-5.1c-3.3-1.1-6.6-2.5-9.8-4c-3.5-1.5-7-2.9-10.2-4.7c-4.2-2.4-8.4-5-12.3-7.8
		c-2.2-0.1-3.6,0.9-4,3.2c-0.2,1.5-0.1,3,0.5,4.5c0.7,1.6,1.8,3,3,4.2c0.9,0.9,1.9,1.7,2.8,2.7c2.3,2.4,3.1,5.2,1.8,8.4
		c-0.4,0.9-0.7,1.8-1,2.6c-1.5,4.1-1.8,8.2-0.9,12.5c0.9,4.5,2.5,8.5,5.5,12.1c1.3,1.5,1.5,3.1,0.2,4.8c-2.9,3.8-4.9,8-6.9,12.3
		c-0.5,1.2-1.2,2.3-2.1,3.2c-0.6,0.6-1.2,1.1-2.1,1.2c-1.6,0.1-3.3,0.2-4.9-0.5c-1.7-0.8-3.6-1.2-5.1-2.4c-1.4-1-2.9-1.3-4.6-1.3
		c-1.1-0.1-1.9,0.2-2.4,1.1c-0.9,1.4-1.6,2.9-2.5,4.2c-1.7,2.7-1.3,5.3,0.2,8c0.8,1.3,1.9,2.5,3.1,3.3c2.9,2,5.9,3.3,9.4,3.8
		c4.9,0.6,9.6,0.1,14.4-0.6c2-0.3,3.9-0.9,5.4-1.6c0.2-0.5,0.5-0.9,0.6-1.4s0.4-0.9,0.6-1.3c1.6-3.6,3.2-7.1,4.8-10.6
		c2.2-5,5.3-9.1,10.2-11.8c1.5-0.8,2.8-1.7,4.2-2.7c3.9-2.8,6.4-6.3,7.3-11.1c1.2-6.5,1.2-12.8,0.1-19.3
		C458.7,360.3,458.5,358.3,458,356.5z"/>
	<path class="st2" d="M608.9,423.9c-0.1-1.5-0.1-3-1.1-4.8c-3.1,2.4-6.1,4.5-9.4,6.1c-1.6,0.8-2.5,1.9-3,3.6
		c-3.7,11.1-10.6,20.1-19.7,27.4c-6.8,5.5-14.2,10.1-22.1,13.7c-0.9,0.4-1.2,0.9-1.2,1.9c0,5.9,0.4,11.8,1.7,17.5
		c0.3,1.4,1.1,2.2,2.1,2.5c0.7,0.1,1.4,0,2.2-0.3c0.2-0.1,0.4-0.1,0.5-0.3c2.5-1.5,4.8-3.4,7-5.4c2.5-2.3,5.4-4.2,8.5-5.6
		c3.2-1.4,6.3-3.2,9.4-4.9c6-3.2,10.8-7.7,15-13.1c2.5-3.2,4.5-6.7,6-10.4c0.6-1.9,1.2-3.8,1.7-5.7c0.1-0.3,0.2-0.6,0.3-0.9
		c0.1-0.2,0.1-0.5,0.2-0.7c0.2-0.7,0.3-1.4,0.4-2.1C608.5,436.4,609.2,430.2,608.9,423.9z"/>
</g>
<g>
	<path class="st3" d="M465.5,156.9c-0.9-2.8-2.3-5.4-4.2-7.7c-4-4.5-4.9-9.8-4.8-15.4c0-1.3,0.2-2.6,0.3-3.9
		c0.2-2.6-0.1-5.1-0.7-7.7c-1.6-6.5-3.5-12.9-4.7-19.5c-0.3-1.5-0.6-2.9-1-4.4c-1.2-4.3-2.9-8.5-5.2-12.4c-1.1-1.9-1.9-3.9-2.4-5.9
		s-0.9-4.1-1.2-6.2c-0.1-0.8-0.2-1.8-0.3-2.6s-0.1-1.8-0.1-2.6c0-0.2,0-0.5-0.1-0.7c0-0.5-0.1-0.9-0.1-1.4c0-0.2,0-0.5,0-0.7
		c0.2-2.9,0.4-5.9,0.4-8.7c0-1.8-0.1-3.5-0.3-5.3c-0.2-2.3-0.1-4.6,0.6-6.7c0.2-0.8,0.6-1.7,1-2.5c0.2-0.4,0.5-0.8,0.7-1.2
		c0.4-0.6,0.8-1.2,1.2-1.7c0.2-0.2,0.4-0.5,0.6-0.6l0,0c-0.6,0.1-1.2,0.2-1.9,0.2c-2.8,0.4-5.6,0.8-8.4,1.2
		c-4.8,0.7-9.6,1.3-14.2,2.5c-9.2,2.3-17.8,6.1-25.8,11.1c-6.6,4.2-13.5,8.1-20.4,12.1c-5.3,3.1-10.9,5.4-16.9,6.9
		c-4.6,1.2-9.3,2.7-13.7,4.6c-2.2,1-4.5,2.1-6.4,3.7C330.6,87,324.2,93,318.7,100c-1.8,2.2-3.5,4.5-5.3,6.6c-5.1,6-11,11-18.3,14.1
		c-2.8,1.2-5.7,2.1-8.2,3.9c-0.9,0.6-1.9,0.9-2.9,1.3c-2.2,0.9-4.3,1.9-6.5,2.8c-1.9,0.8-3.6,1.6-5.3,2.9
		c-4.8,3.8-9.6,7.7-13.5,12.5c-5.1,6.3-9.9,12.8-13.8,20c-3.5,6.3-7.1,12.5-11,18.5c-6.9,10.8-12.8,22.2-17.3,34.2
		c-0.8,2.1-1.6,4.2-2.4,6.3c-3.6,10.4-8.8,19.7-15.9,28.1c-0.5,0.5-0.9,1.1-1.3,1.6c-3.2,4-6.3,7.9-9.2,12.1
		c-2.8,4.1-6.1,7.7-9.7,11.2c-5.3,5.1-10.4,10.3-15.5,15.5c-1.6,1.6-3,3.3-4.5,5s-2.5,3.4-3.2,5.4c-4.2,11.7-7,23.7-7.8,36.1
		c-0.8,11.1-0.8,22.1-0.7,33.2c0,2.5,0.1,5.2,0.4,7.7c0.5,6.4,1.2,12.8,1.9,19.3c0.8,8.4,2.3,16.6,5.4,24.4c0.6,1.5,1,3.1,1.4,4.7
		c0.5,2.3,1.4,4.5,2.5,6.6c3.2,6.2,5.6,12.8,7,19.5c1.6,7.7,3.4,15.4,4.2,23.2c1.1,10,1.2,20,0,29.9c-0.8,6.3-1.2,12.6-1.1,19
		c0.1,6,2.1,11.2,5.7,16c4.2,5.6,9.9,8.5,16.9,9c12,0.9,22.4-3.2,31.6-10.7c2.2-1.9,4.4-3.9,6.6-5.8c7-6,12.3-13.5,17.9-20.8
		c0.5-0.5,0.8-1.2,1.1-1.8c3.2-5.6,6.4-11.2,9-17.2c5.6-13.3,11-26.8,14.5-40.9c2.9-11.8,6.1-23.4,8.7-35.3c1.5-6.9,2.6-13.9,2.1-21
		c-0.3-4.2,0.1-8.5,1.1-12.6c0.7-2.9,1.2-6,1.6-9c0.9-6.1,0.8-12.1,0.1-18.3c-0.5-5.4-1.2-10.8-1.5-16.2c-0.3-6.9-1.3-13.5-3-20.2
		c-0.4-1.6-0.9-3.2-1.2-4.8c-1.9-8.8-4.6-17.2-8.4-25.4c-2.8-6-4.6-12.3-5.6-18.9c-0.5-2.6-0.9-5.3-1.3-8c-0.9-6-1.9-12.1-2.3-18.2
		c-0.9-12.5,0.1-24.9,3.1-37.1c0.3-1.4,0.5-2.8,0.3-4.2c-0.2-2-0.1-4,0.1-6c0.1-1.6,0.5-3,1.3-4.3c2.3-4.1,7.5-4.3,10.1-0.3
		c0.7,1.1,1.2,2.3,1.4,3.6c0.9,4.3,0.5,8.7-0.5,12.9c-0.9,3.3-0.6,6.5-0.1,9.8c1.7,11.5,4.6,22.8,7.9,34c1.2,4,1.9,8,1.9,12.2
		c-0.1,2.3,0.1,4.7,0.5,7c0.8,4.5,1.4,9,2.2,13.6c0.5,3.5,1.5,6.9,2.8,10.2c0.7,2.1,2,3.6,3.9,4.8c3.5,2.3,7.3,3.2,11.5,2.6
		c2.6-0.4,5.2-0.1,7.7,0.4c5,1.1,8.3,4.7,8.8,9.8c0.5,4.7-0.4,9.1-3,13.1c-0.9,1.4-1.9,2.7-2.9,4c-2.2,2.9-4,6-5.6,9.4
		c-1.9,4-3.4,8-4.7,12.1c-0.5,1.7-0.9,3.5-1.6,5c-1.5,3.1-2.2,6.4-3.4,9.7c-2.1,6-2.1,12-0.9,18.1c1.5,7.8,4.6,15.1,8.5,21.9
		c1.5,2.6,3.4,5.1,5.7,7.1c0.6,0.5,1.2,1.1,1.8,1.7c1.5,1.5,2.2,3.3,2.1,5.4c-0.1,0.9-0.1,1.9,0,2.8c0.8,7.3,2.2,14.4,4.7,21.3
		c0.5,1.5,1.1,2.9,1.7,4.2c2.2-4.1,4.7-8,7.2-12.1c0.9-1.6,2.2-3,3.5-4.4c1.2-1.3,2.5-2.5,3.7-3.9l0,0c-0.9-6.3-1.7-12.5-1.4-18.9
		c0.1-3.4,0.2-6.7-0.1-10.1c-0.4-3.8-1-7.4-2-11.1c-0.1-0.7-0.2-1.4-1.1-1.8c-0.6,0.3-1.2,0.6-1.9,0.9c-3.9,1.9-6.7-0.7-7.6-3.3
		c-0.5-1.5-0.6-2.9-0.3-4.5c0.6-3.2,2.2-6,4.5-8.3c2.5-2.6,4.5-5.7,6.4-8.8c1.1-1.7,2.1-3.4,3.2-5.1c0.5-0.9,1.1-1.6,1.7-2.4
		c0.1-1.2,0.2-2.5,0.5-3.8c0.1-0.8,0.2-1.6,0.1-2.5c-0.2-6.6,1.9-12.8,4.6-18.6c1-2.2,2.2-4.4,3.4-6.6c0.1-0.1,0.2-0.4,0.3-0.5
		c-2.1-0.5-3.6-2.4-3.6-4.6c0-0.2,0-0.5,0.1-0.7c1.2-2.2,0.9-4.6,1.4-6.8c0.5-2.5,1.5-4.9,2.9-7.1c2.3-3.9,5.2-7.3,8.6-10.2
		c1.2-1,1.9-1.9,1.6-3.6c-0.4-3.8,0.6-7.5,1.5-11.1c1.5-6.3,3.6-12.4,7.3-17.9c1.6-2.4,3.5-4.5,6-5.8c1-0.5,2.1-1,3.2-1.4
		c3.2-1,6.2,0.2,8,2.6c4.9-8.1,10.1-15.8,16.6-22.6c7.6-8,16.2-14.7,25.5-20.4c0.7-0.4,1.4-0.9,2.1-1.3c5.5-4.2,10.9-8.5,15.9-13.4
		c2-2,3.9-4.1,5.7-6.3c1.9-2.1,3.3-4.5,4-7.4c0.5-1.9,1.2-3.8,1.9-5.6c0.4-1.2,1.1-2.1,1.8-3c1.8-2.3,3.6-4.7,5.3-7
		c0.8-1,1.1-2.1,0.8-3.3C467.3,164.1,466.6,160.4,465.5,156.9z M351,98.5c0.4-0.7,0.7-1.5,1.2-2.2c0.9-1.4,1.9-2.8,2.9-4.1
		c3.1-3.9,6.6-7.4,11-10.1c2.2-1.3,4.4-2.5,6.7-3.3c0.6-0.2,1.2-0.5,1.8-0.6c1.8-0.5,3.6-1,5.6-1.3c0.6-0.1,1.2-0.2,1.8-0.2
		c1.7-0.2,3.4-0.2,5.2,0.2c2.1,0.4,4.2,0.3,6.3-0.1c0.7-0.2,1.4-0.3,2.1-0.5c0.5-0.2,1.1-0.4,1.6-0.7s1-0.6,1.4-1
		c0.5-0.5,1.2-1.1,1.7-1.7c0.1-0.2,0.4-0.4,0.5-0.5c2.5-2.7,5.3-5.1,8.1-7.3c0.6-0.5,1.2-0.8,1.8-1.3c1.2-0.8,2.4-1.7,3.6-2.5
		c1.1-0.8,2.1-1.5,2.8-2.6c0.5-0.8,1-1.5,1.6-2.1s1.3-1.2,1.9-1.8c0.2-0.2,0.5-0.4,0.7-0.5c1.4-1,3-1.4,4.6-0.9
		c0.3,0.1,0.5,0.2,0.9,0.3c0.3,0.2,0.6,0.2,0.9,0.4c0.8,0.5,1.4,1.1,1.9,1.8c0.1,0.2,0.2,0.5,0.4,0.8c0.3,0.8,0.5,1.7,0.5,2.6
		c0,0.8,0,1.6,0,2.5s0,1.6,0,2.5c0,0.5,0.1,0.9,0.1,1.4c0,0.9-0.1,1.9-0.1,2.8c-0.1,0.9-0.2,1.9-0.4,2.8c-0.2,1.4-0.5,2.8-0.6,4.2
		c-0.5,4.3-0.9,8.7,0.4,13.1c0.1,0.3,0.1,0.5,0.3,0.8c0.2,0.5,0.4,1.1,0.5,1.7c0.1,0.5,0.3,1.2,0.4,1.7c0.1,0.4,0.1,0.8,0.1,1.2
		c0,0.2,0,0.4,0,0.6c-0.1,0.4-0.1,0.8-0.2,1.1c-0.1,0.2-0.1,0.4-0.2,0.5c-0.1,0.3-0.3,0.6-0.5,0.9c-0.9,1.2-2.2,1.9-4,2.1
		c-2.5,0.2-4.9,0.3-7.4-0.4c-1.8-0.5-3.6-0.8-5.5-0.9c-3.2-0.3-6.3,0.4-9.3,1.3c-1.2,0.4-1.9,1.1-2.1,2.2c-0.4,1.9-0.9,3.9-1,5.9
		c-0.1,3.2-0.3,6.5,0.5,9.8c1,4.4-2.1,8-4.6,9.6c-1.9,1.2-4,1.1-5.9-0.4c-1.1-0.8-2.1-1.9-2.8-3.1c-1.1-1.8-2.4-3.5-3.5-5.3
		c-1.9-3-4.5-5.2-7.5-6.8c-3.2-1.8-6.1-3.9-9-6.1c-2.6-2.1-5.6-3.2-9-3.6c-1.7-0.2-3.2,0.2-4.8,0.9c-1,0.5-2.1,0.1-2.8-0.8
		C350.7,100.3,350.4,99.5,351,98.5z M313.4,160.8c1.9-9.9,6-18.8,13-26.1c0.9-0.9,1.3-1.9,1.2-3.1c-0.1-1.3,0.2-2.6,0.8-3.8
		c2-4.1,4.7-7.6,8.6-10.1c2.4-1.6,5-2.6,7.7-3.4c4.4-1.2,8.6-0.5,12.8,1.2c1.9,0.8,2.8,2.8,5,3.8c-2.2,1.9-4.1,3.2-6.3,4.1
		c-3,1.1-5.2,3.2-6.3,6.3c-0.9,2.8-2.8,4.5-5.6,5.4c-2.1,0.7-4.2,1.6-6.3,2.4c-3.3,1.3-6.2,3.3-8.7,5.9
		c-6.4,6.3-10.9,13.8-13.6,22.4c-0.2,0.7-0.3,1.4-0.6,2c-0.1,0.3-0.5,0.7-0.7,0.7c-0.5,0.1-0.8-0.5-0.9-0.9
		C312.8,165.2,313,163,313.4,160.8z M337,235.9c0.6,0.4,1.3,0.5,1.9,0.8c3,0.9,4.6,3.1,5.3,6c0.5,2.1,0.6,4.2,0.5,6.3
		c-0.1,3.8-0.6,7.5-1.3,11.2c-1.3,7.1-8.4,9.9-14.2,5.6c-1.4-1-2.6-2.3-3.8-3.6c-3.6-4-7.1-8.1-10.7-12.2c-1.3-1.6-2.5-3.1-3.5-4.9
		c-2.5-4.6-4.9-9.4-7.1-14.2c-0.9-1.9-1.6-3.9-2.5-5.8c-3.1-6.5-3.1-13.1-1.2-20c0.3-1,0.7-2,1.4-2.8c0.9-1,1.9-1.3,3.2-0.9
		c1.1,0.3,2,1.2,2,2.2c-0.1,3.5,2.2,5.8,4,8.4c2.9,4.1,6.3,7.9,9.8,11.6C325.4,228.7,331.1,232.3,337,235.9z M174.1,383.9
		c-1.6-0.4-2.9-1.3-4.2-2.5c-4.1-3.7-6-8.7-7-13.9c-0.5-2.4-0.5-4.9-0.9-7.3c-0.7-5.1-0.5-10.3-1.8-15.3c-0.7-2.5-0.1-5.2,0.9-7.6
		c1.3-3.1,1.8-6.3,2.5-9.4c1.7-7.7,5.1-14.6,9.3-21.2c2.1-3.2,4.5-6.3,7-9.3c1.2-1.4,1.9-3,2.9-4.4c3.5-4.9,6.9-9.8,10.5-14.5
		c1.8-2.3,3.2-4.9,4.8-7.4c2.6-4.4,5.7-8.6,8.1-13.1c0.1-0.2,0.2-0.4,0.4-0.6c1.3-1.7,3.6-1.6,4.6,0.2c0.8,1.5,1.2,3,1.2,4.7
		c0,3.6,0.1,7,0,10.6c-0.1,5.2,0.8,10.3,1.6,15.3c0.5,2.8,0.9,5.6,1.2,8.3c1,6.6,0.5,13.1,0.5,19.6c0,3.5-0.7,7-1.6,10.4
		c-0.4,1.5-0.5,3-0.5,4.5c0,1.9,0,3.8,0,5.6c0,2.1,0.1,4.2-0.5,6.3c-0.1,0.5-0.1,1.2-0.1,1.8c0.1,4.7-0.8,9.3-1.3,14
		c-0.7,6-2.1,11.8-3.8,17.5c-1.4,4.7-3.1,9.4-6,13.5c-1,1.4-2.2,2.4-3.6,3.3c-1.1,0.7-2.2,0.7-3.4,0.5c-1.3-0.1-2.4-1.2-2.5-2.5
		c-0.1-1.8-0.2-3.6,0.4-5.3c0.5-1.2,1-2.4,1.4-3.6c0.3-0.9,0.8-1.9,1-2.9c0.1-0.6,0.1-1.2,0.1-1.9c0.1,0,0.1-0.1,0.2-0.1
		s0-0.1,0.1-0.2c-0.1,0.1-0.2,0.2-0.3,0.3c-1.5,1.2-2.9,2.3-4.5,3.4C185.8,384.5,180.1,385.5,174.1,383.9z M265.5,356.4
		c0.6,2.2,1.4,4.2,2.3,6.3c3.2,7,4,14.5,3.4,22c-0.5,7.9-2.2,15.5-4,23.3c-4.6,20-12,38.8-21.2,57c-1.2,2.4-2.6,4.7-3.9,7.1
		c-4,7.1-9,13.5-14.9,19.1c-3.8,3.6-7.4,7.3-11.4,10.6c-4.2,3.6-7.7,7.9-10.5,12.8c-1.7,2.9-3.5,5.9-5.3,8.7
		c-1.2,1.9-2.6,3.6-4.3,5.1c-1.4,1.2-3,2.2-4.9,2.7c-3.4,0.8-6.7-0.7-8.2-3.9c-0.5-1.2-0.9-2.4-0.9-3.7c-0.2-2.9-0.1-5.7,0.3-8.4
		c1.3-7.4,3.1-14.7,6.7-21.4c0.9-1.5,0.9-3,0.5-4.7c-2.4-9.4-4.7-19-8-28.2c-2.4-6.8-4.2-13.7-4.8-20.9c-0.1-2.2-0.9-4.3-1.4-6.6
		c-0.5-2.5-0.5-4.9,0.1-7.4c1-3.5,2.3-4.6,6-5c3.2-0.3,6.3,0.1,9.2,1.7c2.2,1.2,4.5,2.5,6.7,3.9c0.7,0.4,1.4,0.9,2.1,1.3
		c1.2,0.6,2.3,2,3.8,1.4c1.9-0.8,3.9-1.7,4.9-3.9c1.8-3.7,3.6-7.4,5.5-11.1c2.3-4.5,4.9-8.8,8.1-12.8c5.6-7.2,8.9-15.5,10.2-24.5
		c0.8-5.3,1.2-10.5,1.1-16.4c0.1-4.8-0.6-10.2-1.1-15.5c-0.1-0.9-0.3-1.9-0.8-2.7c-3-5.5-3.9-11.5-4.8-17.6c-0.5-4-0.7-8-0.9-12
		c-0.1-5.2-0.5-10.3-0.5-15.5c-0.1-12.9,1.9-25.5,6.1-37.8c1.2-3.6,2.5-7.4,3.8-11c0.9-2.3,1.9-4.6,3.6-6.4c0.3-0.4,0.8-0.5,1.2-0.4
		c0.5,0.1,0.8,0.5,0.8,1.1c0,0.9-0.1,1.9-0.1,2.8c-0.4,3.5-0.8,7-1.1,10.5c-0.1,2.5-0.1,5-0.1,7.4c0,3.3,0.1,6.6,0.1,9.9
		c0,4.2,0.7,8.4,1.4,12.6c1.1,6.3,2.4,12.5,3.6,18.7c0.1,0.8,0.4,1.6,0.7,2.4c2.3,5.3,4.4,10.7,7.3,15.6c2.7,4.7,4.9,9.7,6.7,14.8
		C261.2,343.7,263.6,350,265.5,356.4z M295.8,168.6c-1.9,4.7-5.6,7.5-10.5,8.4c-2.7,0.5-5.5,1-8.4,0.9c-5.4-0.4-10.4,1.6-15.3,3.6
		c-1.3,0.5-2.5,1.3-3.5,2.3c-0.6,0.7-1.4,1.3-2,2c-2.4,2.9-5.5,5-8.6,7.1c-0.2,0.1-0.8,0.3-0.9,0.1c-1-1-1.3-0.2-1.7,0.6
		c-0.3,0.8-0.5,1.6-0.9,2.2c-0.1,0.3-0.5,0.6-0.8,0.6c-0.5,0-0.7-0.5-0.7-1c0-0.7,0-1.4,0-2.1c-0.1-3.2,1-6.3,1.9-9.3
		c1.4-4.6,2.9-9.2,4.6-13.7c1-2.6,2.2-5.2,3.6-7.6c2.9-4.8,5.7-9.7,9.8-13.7c3.4-3.3,7.4-5.8,11.8-7.4c3.3-1.2,6.6-2.2,10-3.3
		c3.6-1.2,7-2.6,10.4-4.2c3.2-1.6,6-3.6,8.5-6.1c1.7-1.6,3.2-3.4,5.3-4.6c1.7-1,3.6-0.1,3.9,1.9c0.1,0.8,0.1,1.6-0.4,2.4
		c-0.5,1-1,2.2-1.8,3c-2.9,3.7-5.3,7.7-7.7,11.8c-2.2,3.7-3.2,7.8-3.6,12C298.5,159.4,297.6,164.1,295.8,168.6z M347.6,279
		c0,0,0,0.7-0.1,1.4c-1.5,5.6-2.9,11.3-4.1,17c-0.3,1.7-1.2,3.1-2.8,3.9c-0.8,0.4-1.5,0.6-2.3,0.2c-0.9-0.4-1.9-0.5-2.6-1.1
		c-2-1.4-4.2-2.5-6-4.2c-0.9-0.9-1.9-1.3-3.2-1.2c-1.8,0.1-3.6-0.1-5.3-0.1c-5.8,0.1-10.9-2-15.2-5.6c-3-2.5-5-6-6.3-9.6
		c-1.2-3.1-1.9-6.3-2.2-9.5c-0.4-2.9-0.5-5.8-0.5-8.7c0-1.5,0.3-2.8,0.9-4.1c1.1-2.3,4.1-3.2,6.3-1.9c0.8,0.5,1.2,1.1,1.5,1.9
		c0.5,1.3,1,2.6,1.2,4c0.2,2.2,1.2,4,2.7,5.6c2.2,2.2,4.2,4.4,6.4,6.5s4.8,3.3,7.4,4.7c0.3,0.1,0.6,0.3,1,0.4
		c4.8,0.4,9.7,0.9,13.9-2.4c0.6-0.5,1.4-0.9,2-1.4c1.4-1,3-1.2,4.7-1c1.5,0.1,2.5,1.2,2.8,2.8C347.7,277.1,347.6,277.7,347.6,279z
		 M412,205.2c-0.9,1.1-1.9,2.2-2.6,3.3c-7.1,10.1-16.9,16.6-28.2,20.7c-2,0.8-4.1,1.1-6.3,0.9c-5.4-0.3-10.8-0.9-16-2.2
		c-1.4-0.3-2.8-0.7-4-1.4c-3.2-1.8-6.3-3.7-9.3-5.7c-1.5-1-2.9-2.3-4.4-3.5c-0.4-0.3-0.7-0.6-0.9-1c-0.1-0.1-0.1-0.5-0.1-0.7
		c0.1-0.1,0.4-0.3,0.5-0.3c1.5,0.1,2.9,0.9,4.2,1.5c1.9,0.9,3.8,1.9,5.7,2.8c1.3,0.6,2.7,0.9,4.1,0.9c7.8,0.4,15.5-0.2,23-2.6
		c6-1.9,11.6-4.4,16.4-8.6c2.6-2.3,5.6-4.3,8-6.9c1.2-1.2,1.7-2.5,1.4-4.1c-0.1-0.7-0.6-1-1.2-0.6c-2.2,1.6-4.4,3.2-6.5,4.8
		c-6.3,4.9-13.5,8.1-21.3,9.8c-2.5,0.6-5.1,0.8-7.7,0.9c-3.5,0.1-7,0-10.6-0.1c-2.4-0.1-4.6-0.7-6.7-1.8c-7-3.6-13.5-7.7-18.6-13.6
		c-1.5-1.7-2.9-3.4-4-5.3c-1.2-2-1.4-4.1-0.4-6.4c0.8-1.7,1.1-3.6,1.7-5.3c2.2-5.9,5.5-11.1,9.8-15.7c1.9-2,3.9-4.1,5.8-6.1
		c5.6-5.8,12.5-9.1,20.1-11c2.6-0.7,5.3-1,7-0.9c11.5-0.1,19.8,4.3,26.5,12.1c3.2,3.6,6.1,7.5,8.8,11.4c0.7,0.9,1.5,1.9,1.9,2.9
		c0.9,1.9,2.2,3.2,3.4,4.8C418.3,186.3,419.3,196.6,412,205.2z M419.3,128.2c-1.7-1.3-3.1-2.9-4-4.9c-1.5-3.1-1.1-6,1.2-8.4
		c2.8-3,6.3-3.9,10.3-3.2c2.5,0.5,5,1.5,7,3.1c3.2,2.3,5,5.5,5.6,9.4c0.2,1.6,0.3,3.2,0.4,4.3c-0.1,1-0.1,1.5-0.1,1.9
		c-0.2,1.4,0,2.4,1.2,3.3c1.8,1.5,1.8,3.4,0.9,5.4c-1.7,4-6.6,6.8-10.9,6.3c-1.7-0.2-3.6-2.2-4.1-4.4c-0.2-1-0.2-2.1-0.2-3.2
		c0.1-1.6-0.5-2.7-1.5-3.9C423.4,132.1,421.6,129.9,419.3,128.2z M449,178.4c-1,3.1-3.1,5.6-5.6,7.4c-2.5,1.8-4.2,3.9-5.4,6.7
		c-0.4,0.9-0.8,1.7-1.2,2.5c-0.4,0.7-0.9,1.4-1.5,1.9c-2.7,2.7-6.4,2.2-8-1.4c-1.2-2.5-1.8-5.1-1.9-7.8c-0.1-1.2,0-2.3,0-3.5
		c-0.2-5.4,1-10.4,3.2-15.3c0.8-1.7,1.8-3.3,3.2-4.6c2.3-1.9,4-4.3,5-7c0.3-0.8,0.8-1.5,1.2-2.2c0.5-1.1,1.4-1.9,2.3-2.6
		c2-1.5,4-1,5.4,1.1c1.1,1.7,1.5,3.6,1.9,5.6c0.7,3.2,1.2,6.4,1.9,9.6C450.2,172.3,450,175.4,449,178.4z"/>
	<path class="st3" d="M717.5,522.4c-0.4-2.1-0.8-4.2-1.2-6.3c-0.3-2.4-1.5-4.2-3.2-5.7c-3.1-2.7-6.3-5.3-9.8-7.6
		c-5.2-3.3-10.1-6.8-15.2-10.3c-4-2.7-7-6.3-9.1-10.5c-2.2-4.2-4-8.5-4.6-13.2c-0.2-1.1-0.5-2.1-1.5-2.7c-1.9-1.2-3.4-2.8-4.4-5
		c-0.5,0.5-0.9,0.8-1.2,1.1c-4.2,5.2-8.9,10.1-12.8,15.5c-1.9,2.8-4.1,5.3-6.6,7.6c0.3,3.1,1,6.1,2.1,9c2.6,7.1,7.9,11.1,15.1,13
		c1.9,0.5,3.9,0.9,5.8,1.4c3.8,1,7.3,2.5,10.6,4.6c3.3,2,6.7,3.8,10.2,5.4c5.7,2.6,11.3,5.3,16,9.4c2.4,2.2,4.6,4.3,5.7,7.4
		c0.5,1.3,1.3,2.2,2.5,2.9c2.2,1.4,4.3,2.9,6.7,3.8c0.2,0.1,0.2,0.1,0.4,0.2c-0.7-2.2-1.5-4.5-2.3-6.7
		C719.3,531.4,718.3,526.9,717.5,522.4z"/>
	<path class="st3" d="M728.3,565.3c0,0.5,0,0.9,0.2,1.3c-0.1-0.5-0.2-1.1-0.2-1.5C728.4,565.2,728.4,565.3,728.3,565.3z"/>
	<path class="st3" d="M844.8,326.1c-1.2-3.5-2.4-6.9-3.5-10.4c-2.9-9.4-8.4-17.1-16.2-23c-9.4-7.3-18.1-15.4-26.5-23.8
		c-5.8-5.9-10.8-12.4-15-19.5c-1.1-1.9-2.4-3.5-3.8-5c-1.2-1.4-2.6-2.8-3.6-4.3c-6.6-10.1-12.8-20.3-17.4-31.4
		c-1.4-3.4-2.8-6.7-4.2-10.1c-1.8-4.1-3.3-8.3-4.4-12.6c-3-12.1-9.7-22.1-17.3-31.6c-1.7-2.1-3.7-3.5-6.2-4.5c-4-1.6-8-3.2-12.1-4.9
		c-4.8-1.9-9.5-4.1-13.8-7.1c-4.8-3.4-9.4-7.1-13.8-11c-3-2.7-5.4-5.9-7.1-9.6c-1.1-2.5-2.2-4.9-3.2-7.4c-1.4-3.9-4-7-7.5-9.1
		c-5.6-3.5-11.4-6.7-17.7-8.6c-8.4-2.5-16.1-6.5-23.4-11.4c-2.5-1.7-5.2-3.2-7.8-4.7c-9.5-5.4-19-10.8-28.5-16.2
		c-6.4-3.7-12.9-7.3-19.9-9.9c-4.4-1.7-8.7-3.4-13.2-5c-3.6-1.4-7.3-2.5-11.1-3.4c-3.6-0.8-7-1.9-10.6-2.8
		c-4.2-1.2-8.5-1.9-12.8-2.5c-2.2-0.2-4.2-0.5-6.4-0.6c0.9,1.7,1.5,3.6,1.9,5.7c0.2,1.2,0.4,2.3,0.5,3.5c0,1.2,0.1,2.3,0.1,3.6
		c0,3.6-0.1,7-0.4,10.5c-0.4,4.6-1.1,9.3-2.2,13.9c-1.2,5.3-2.9,10.4-4.3,15.6c-0.3,1.2-0.7,2.2-1,3.4c-0.9,3.1-2.3,5.9-4.4,8.4
		c-2.5,3-4.3,6.3-5.4,10.2c-0.8,2.6-1.9,5.1-4.3,6.7c-4.6,3.1-6.7,7.8-8,12.9c-1.3,5.5-1.7,11.1-1.5,16.8c0.1,2.5,0.9,4.9,1.9,7.1
		c1,2.2,2,4.5,3.2,6.6c2,3.6,3,7.4,3.1,11.4c0.1,3.5,0.5,6.8,1.9,10c0.3,0.8,0.5,1.6,0.7,2.3c0.9,2.8,0.9,5.5,0.2,8.4
		c-0.1,0.7-0.3,1.4-0.6,2c-1.1,2.3-0.1,4,1.4,5.7c1.3,1.4,2.9,2.4,4.7,3c3.9,1.2,7.7,2.9,11.7,3.8c2.6,0.5,5,1.9,7.3,3.5
		c4,2.9,8.4,5.2,12.8,7.4c3.1,1.5,5.4,3.6,7,6.6c0.8,1.5,1.5,2.9,2.3,4.3c2.4,4.5,3.9,9.4,4.2,14.5c0.2,4,1.3,7.9,2.5,11.7
		c0.4,1.2,0.9,2,2.3,2.2c2.8,0.4,4.7,2.2,6,4.6c0.7,1.4,1.6,2.5,2.8,3.5c0-0.2-0.1-0.5-0.1-0.7c-0.3-2.9,1.7-5,4.7-4.7
		c1.5,0.1,2.8,0.6,4,1.3c3.7,2,6.6,5,8,9c0.7,1.9,1.5,3.6,2.5,5.4c1.9,3.4,3.8,6.8,5.1,10.4c0.4,1,0.9,1.8,1.9,2.4
		c5.7,3.6,9,8.3,10.6,14c3.7,4.6,6.3,9.7,7,15.6c0.5,3.5,1.4,6.9,1.5,10.4c0,1.9,0.1,3.9-0.2,5.8c3.1-2.3,6.6-4.1,10.5-4.9
		c2.9-0.5,5.9-0.2,8.7,0.9c2.3,1,4.7,1.3,7.2,1.1c1.2-0.1,2.3,0,3.5,0.1c4.6,0.8,8.4,3.1,10.8,7.2c3.7,6.3,4.6,13,2,20
		c-0.9,2.5-1.8,5.1-2.7,7.6c-0.2,0.8-0.3,1.6-1.5,2.2c0-1.2-0.1-2.2,0-3.1c0.3-4.2-0.5-8.4-1.4-12.5c-0.4-1.8-1.2-3.3-2.3-4.6
		c-1.7-1.9-3.8-3-6.3-2.5c-3.5,0.8-6.7,0.4-9.8-0.9c2.8,5.3,4.6,10.8,5,17.2s0.1,12.9-1.4,19.1c1.7,1.3,3.3,2.8,4.7,4.4
		c2.5,2.9,3.7,6.3,4,10c0.1,1.8-0.2,3.5-1.2,5.1c-0.2,0.2-0.2,0.5-0.4,0.6c3.7,5.8,6.1,12.5,7.2,19.6c0.9,6.5,0.9,12.8-1.2,19.1
		c-1.9,5.4-4.8,10.3-7.7,15.2c0.8,0.5,1.5,1.1,2.1,1.9c1,1.5,1.5,3.2,1.8,5c0.1,0.5-0.1,1.2,0.7,1.4c3-1.9,7.6-6,10.1-9.2
		c3.7-4.7,7.2-9.6,10.2-14.8c3.3-5.8,6.3-11.8,8.3-18.3c2.2-7,2.7-14.3,3.2-21.6c0.1-0.5,0-1.2-0.2-1.8c-0.4-2-0.4-4-0.2-6
		c0.5-6.7,0-13.4-0.8-20c-0.2-1.3-0.2-2.6-0.5-3.8c-0.6-2-1-4.1-1.1-6.3c-0.3-5.6-1.3-11-2.5-16.4c-2.1-9.4-6-17.8-13.5-24.2
		c-1.4-1.2-2.7-2.2-4.3-2.9c-1.1-0.5-2.2-1-3.1-1.7c-1.5-1.2-2.3-2.7-1.9-4.6c0.5-2.2,1.9-3.5,4-4c1.2-0.2,2.5-0.4,3.5,0.1
		c2.9,1.2,5.9,1.3,9,0.6c0.3-0.1,0.7,0,1.1,0c6.7-0.1,13,1.5,19.1,4.4c0.5,0.2,1.1,0.9,1.9,0.5c-0.2-0.3-0.2-0.7-0.4-0.9
		c-2.9-4.5-3.4-9.2-2-14.5c1.9-7.1,3.9-14.3,4.4-21.7c0-0.4-0.1-1,0.8-0.9c0.2,0.5,0.5,1.2,0.8,1.8c1.9,4.4,4.1,8.7,6.7,12.8
		c1.8,2.9,3.6,5.8,5.4,8.7c0.5,0.8,1.1,1.5,1.7,2.2s2,0.2,2.2-0.7c0.1-0.3,0.2-0.7,0.2-1c-0.2-3.6,0.2-7.3-0.5-10.9
		c-0.5-2.1-0.5-4.2-0.2-6.3c0.5-3.7,0.8-7.5,1.2-11.2c0.8-8.6,0.5-17.2-0.8-25.7c-1.2-7.6-3.3-14.9-5-22.4c-0.2-1.2-0.6-2.2-1.1-3.3
		c-2.5-6.3-5-12.7-8.4-18.6c-3.1-5.4-5-11.1-5.9-17.2c-0.5-3.7-0.4-4,3.3-4.6c0.2,0,0.5-0.1,0.7-0.1c1.2-0.1,2,0.1,2.6,1.2
		c2.1,3.9,4.9,7.2,7.4,10.8c1.6,2.2,3.2,4.6,4.7,7c2.9,4.7,5.7,9.5,8.5,14.2c6.7,11.4,10.3,24,11.8,37.1c1.3,11.6,1.3,23.2,0.1,34.9
		c-0.2,1.8-0.5,3.5-0.5,5.3c-0.3,4.8-1.1,9.6-2.4,14.2c-0.9,3.2-1.5,6.4-1.8,9.7c-1,9-3.2,17.8-7.1,26.1c-0.8,1.7-1.5,3.4-2.4,5.1
		c-5.4,10.6-9.1,21.9-12.8,33.2c-1.4,4.4-2.2,8.9-2.3,13.5c-0.1,6.7,0.5,13.4,1.6,20c2.3,13.6,6.3,26.8,10.8,39.8
		c1.4,4,2.9,8,4.2,12c1.2,3.6,2.6,7,4.4,10.4c1.9,3.4,3.6,6.9,5.4,10.3c1,1.9,1.9,3.8,3.1,5.5c5.9,8.5,12,16.9,19.3,24.2
		c3,3,6,6,8.8,9.1c4.6,4.8,9.7,9,14.9,12.9c1.2,0.9,2.5,1.7,3.9,2.5c3.1,1.8,6.4,2.2,9.9,2c2.5-0.1,4.5-1.3,5.9-3.3
		c1.2-1.6,1.9-3.5,2.6-5.3c1.8-4.9,2.5-10,2.9-15.2c0.4-6.1,0.8-12.2,1.3-18.3c0.7-8.6,2.5-16.9,5.4-25.1
		c5-14.2,11.8-27.4,20.5-39.7c2-2.8,4-5.6,5.6-8.6c2.3-4.5,5-8.8,7.6-13.1c1.8-2.9,3.5-5.9,5.3-8.7c1.5-2.5,2.4-5.1,2.9-7.9
		c1.1-6,2.2-12,3.3-18c1.5-8.6,3.2-17.1,3.5-25.8c0.2-3.6,0.2-7,0.5-10.6C846.8,335.2,846.3,330.5,844.8,326.1z M673.3,228.7
		c0.5,5.4-2.3,9-7.7,9.9c-1.6,0.2-3.2,0.4-5,0.4c-4.1,0.1-7.8,1.4-11.4,3.4c-2.5,1.4-4.9,2.9-7.3,4.2c-2.8,1.6-5.7,2.9-8.9,3.3
		c-2.1,0.3-4.2,0.2-6.3,0.3c-0.6,0-1.3,0.2-1.6-0.4c-0.5-0.9,0.5-1.2,1-1.5c1.9-1.3,3.4-2.9,4.6-4.8c0.8-1.2,1.7-2.2,2.7-3.2
		c1.5-1.6,2.4-3.5,2.9-5.6c0.3-1.6,0.5-3.2,1-4.9c1.5-6,4.7-10.7,10.4-13.5c2.5-1.2,4.2-1.6,8.2-1.7c0.6-0.5,0.4-1.3,0.7-1.9
		c0.9-1.9,2.4-2.8,4.6-2.6c1.5,0.1,2.9,0.8,4.2,1.6c5.3,3,8.3,7.5,7.9,13.9C673.2,226.6,673.2,227.7,673.3,228.7z M633.1,117.9
		c5.7,5.8,7.8,13,6.3,21c-0.2,1.2-0.5,2.3-0.8,3.4c-0.2,0.8-0.5,1.6-0.9,2.2c-1.7,2.9-5.3,3.1-7.4,0.5c-0.6-0.8-1.1-1.8-1.5-2.8
		c-0.6-1.4-1-2.9-1.6-4.2c-2.7-6.7-7.3-11.7-14.2-14.4c-2.9-1.2-5.7-2.2-8.6-3.2c-3.5-1.2-7-1.7-10.5-1.1c-6.3-0.3-6,1.2-4-5.3
		c0.2-0.5,0.4-0.8,0.5-1.3c1.1-2.6,2.7-4.6,5.8-5c1.2-0.2,2.5-0.6,3.7-1c5.7-1.9,11.5-1.2,16.9,0.6
		C623,109.7,628.5,113.2,633.1,117.9z M527.9,85c0.2-1.4,0.4-2.7,0.7-4c0.5-1.9,1-3.9,1.8-5.7c0.5-1.2,1-2.5,1.6-3.7
		c0.3-0.6,0.6-1.2,0.9-1.8c0.4-0.7,0.7-1.5,1-2.2c0.2-0.4,0.2-0.8,0.4-1.2s0.2-0.8,0.3-1.2c0.5-1.9,0.8-3.6,1.4-5.4
		c0.1-0.3,0.2-0.5,0.2-0.8c0.2-0.5,0.4-1,0.6-1.5c0.4-0.7,0.8-1.3,1.3-1.9c1-1.2,2.3-2,3.8-2.5c0.5-0.2,1-0.3,1.5-0.5
		c0.5-0.1,1.1-0.2,1.6-0.2c0.4,0,0.8,0,1.2,0c0.8,0,1.5,0.1,2.2,0.2c1.9,0.2,3.6,0.8,5.3,1.9c0.5,0.3,1.1,0.6,1.6,0.8
		c1.1,0.5,2.2,1,3.2,1.5c1.7,0.6,3.4,1.2,5.1,1.5c1.2,0.3,2.3,0.5,3.6,0.8c1.1,0.2,2.1,0.5,3.2,0.7c1.5,0.4,3.1,0.9,4.6,1.5
		s3.1,1.1,4.6,1.7c0.3,0.1,0.6,0.2,0.8,0.4c1.1,0.5,2.1,1.2,3.1,2c0.7,0.5,1.5,1.2,2.2,1.7c0.4,0.3,0.8,0.6,1.2,0.8
		c0.2,0.2,0.4,0.2,0.6,0.4c0.2,0.1,0.4,0.2,0.6,0.3c0.8,0.3,1.6,0.7,2.4,1.1s1.5,0.8,2.2,1.4c1.1,0.8,2.1,1.6,3.1,2.5
		c0.3,0.3,0.6,0.6,0.9,0.9c1.2,1.2,2.3,2.3,3.5,3.5c0.5,0.5,0.9,0.9,1.4,1.4c0.9,0.9,1.9,1.9,2.8,2.6c0.5,0.4,1,0.8,1.5,1.2
		c0.5,0.3,0.8,0.6,1.2,1s0.8,0.8,1.1,1.2c0.2,0.2,0.4,0.5,0.5,0.8c0.2,0.4,0.4,0.8,0.4,1.2c0,0.2,0,0.2,0,0.4c0,1.3-0.8,2.4-2.5,2.9
		s-3.4,0.7-5.2,1c-1.5,0.2-3.1,0.5-4.6,0.7c-0.5,0.1-1,0.2-1.5,0.3c-3.9,0.8-7.2,2.9-10.5,4.7c-2.5,1.3-5,2.7-7.5,3.9
		c-1.2,0.5-2.4,0.8-3.2,1c-0.8,0-1,0-1.2-0.1c-3.2-1.1-6.6-2-8.6-5c-0.4-0.6-0.8-1.2-1.2-1.7s-0.8-1.2-1.2-1.7
		c-0.3-0.4-0.5-0.8-0.9-1.1c-0.3-0.3-0.7-0.6-1.1-0.8c-0.2-0.1-0.2-0.2-0.4-0.2c-0.2-0.2-0.5-0.2-0.7-0.3c-0.4-0.1-0.7-0.2-1.1-0.1
		c-0.2,0-0.5,0.1-0.8,0.2c-2.4,1-4.8,1.9-7.2,2.9c-2.2,0.9-4.5,2-6.8,2.9c-1,0.4-2,0.5-3,0.8c-3.4,1.3-6.2-0.2-8.9-1.9
		c-0.5-0.4-1.1-0.9-1.4-1.6c-1-1.8-1.6-3.6-1.9-5.5c-0.1-0.4-0.1-0.8-0.1-1.2C527.7,86.6,527.8,85.8,527.9,85z M517.3,118.3
		c1.6-3.6,4.2-5.9,8.3-6.1c1.5-0.1,2.7-0.5,3.8-1.6c2-1.8,4.4-2.7,7-3c3.7-0.5,6.7,0.8,8.8,3.9c2.1,3,2.1,6.1,0.4,9.3
		c-1,1.9-2.4,3.5-4,4.9c-3.9,3.8-7.3,8-10.6,12.3c-0.5,0.8-1.2,1.5-1.8,2.2c-3.7,3.7-9,2.9-11.5-1.8c-1.4-2.6-2.1-5.5-2.2-8.4
		c0-0.9,0-1.6,0-2.5C515.6,124.4,516,121.3,517.3,118.3z M536.8,165.2c-1.2,2.4-2.8,4.6-4,7c-1.8,3.3-3.3,6.7-4.4,10.3
		c-0.2,0.7-0.4,1.4-0.7,2c-1.3,2.5-3.2,3.9-6.2,3.9c-0.5,0-0.9,0-1.4,0l0,0c-0.8,0-1.6,0.1-2.5,0c-1.4-0.1-2.5-0.9-2.7-2.3
		c-0.2-1.6-0.8-2.9-1.9-4c-1.2-1.6-1.5-3.5-1.7-5.3s-0.7-3.5-1-5.2c-0.7-3.8-1.4-7.6-1.2-11.4c0-0.6,0-1.2,0.1-1.8
		c1.4-6.3,4.6-8.1,10.4-7c1.8,0.3,3.4,0.6,5.1,0c0.4-0.1,0.9-0.1,1.4-0.1c3.5,0.5,6-1.3,8.5-3.4c1.9-1.6,4-2.9,5.9-4.5
		c1.2-0.9,2.7-1.3,4.2-1.9c1.2-0.5,2.3-0.1,3.3,0.5c0.8,0.5,1.2,1.1,1.2,2c0.1,1.6,0.2,3.2-0.6,4.8c-1.4,2.7-2.9,5.4-5.1,7.6
		C540.9,159,538.6,161.8,536.8,165.2z M564.4,221.4c-7.4-4.1-13.2-10.1-17.8-17.2c-1.3-2.1-1.9-4.6-2.5-7c-0.3-1.7-1-3.1-2.2-4.3
		c-0.5-0.5-0.8-1.1-1.3-1.7c-1.9-2.9-1.9-4.7,0.2-7.4c0.7-0.9,1.5-1.8,2.3-2.6c1.5-1.5,2.7-3.2,3.7-5.1c5.1-9.8,12.2-18,21.3-24.5
		c3.1-2.2,6.5-3.8,10.1-5.1c1.6-0.6,3.4-0.9,5.2-0.9c3.3,0,6.6,0,9.9-0.1c8-0.1,15.2,2.6,21.9,6.7c3.4,2.2,6,5.3,8,8.7
		c3.3,5.4,7.1,10.5,11.1,15.4c0.7,0.9,1.3,1.7,1.9,2.5c0.4,0.5,0.7,0.9,1,1.5c1.9,2.7,1.9,5.5,0,8.2c-2.7,4-6,7.5-10,10.4
		c-2.1,1.6-4.2,3.2-6.5,4.1c-4.8,1.9-9.2,4.6-14,6.5c-5.4,2.1-11,2.5-16.6,1.9c-10-0.9-18.6-4.6-25.7-11.8c-2.4-2.4-5-4.6-7.6-6.9
		c-0.2-0.1-0.5-0.1-0.6-0.1c-0.2,0.1-0.3,0.3-0.4,0.5c-0.2,2.2-0.2,4.4,1.4,6.3c1.1,1.4,2,2.9,3.1,4.2c1.4,1.7,2.9,3.5,3.9,5.5
		c0.9,1.9,2.4,3.2,4.2,4.1c8,3.9,15.9,8.1,24.7,10.1c1.5,0.4,3,0.6,4.6,0.5c1.2-0.1,2.3-0.1,3.8-0.3c-0.2,0.4-0.3,0.5-0.4,0.6
		c-4.3,1.8-8.7,3.5-13.5,3.9c-2.7,0.2-5.4-0.1-8-0.9C574.5,226,569.3,224.1,564.4,221.4z M672.4,253c-0.6,0.4-1.2,0.7-1.9,1
		c-0.9,0.5-1.6,1.2-2,2.3c-1.2,3.2-2.8,6.2-4.6,9.1c-1.4,2.2-2.3,4.6-3.1,7.1c-1.4,4.5-2.8,8.9-3,13.7c-0.1,1.9-0.5,4-0.7,5.9
		c-0.2,2-1.2,3.8-2.7,5.2c-2,1.9-4.2,2.3-6.8,1.2c-1.8-0.7-3.3-1.8-4.8-2.9c-2-1.7-4.3-2.8-6.8-3.6c-3.7-1.2-7.3-2.5-10.5-4.8
		c-0.8-0.6-1.9-1-2.9-1.4c-7.6-3.2-14.5-7.7-20.3-13.6c-1.4-1.4-2.5-3.1-3.6-4.7c-0.6-0.9-1.2-1.8-2.2-2.2c-3.3-1.5-5.5-4.3-7.7-7
		c-1.7-2.1-3.2-4.3-4.7-6.6c-2.1-3.2-5.2-5.4-8.1-7.7c-2.2-1.7-4.6-3.2-6.9-4.9c-0.4-0.2-0.8-0.5-1.1-0.9c-1.5-1.6-2-3.3-1.2-5.1
		c0.9-1.9,2.9-2.8,5-2.4c0.5,0.1,1.2,0.3,1.7,0.5c7.7,2.9,15.8,3.1,23.9,2.8c2.7-0.1,5.3-1.1,7.6-2.6c2.2-1.4,4.5-2.1,6.8-2.8
		c1.5-0.5,3.2-0.5,4.9,0c2.4,0.8,5,3.6,4.6,6.9c0.2,1.5-0.3,2.9-1.2,4.2c-1.8,2.8-3.6,5.4-6.1,7.7c-1.6,1.5-3.2,3.1-4.8,4.7
		c-0.7,0.7-1.2,1.4-1.5,2.3c-0.2,0.5,0,1,0.5,1.2c1,0.4,2,0.7,3,1c5.4,1.5,11,2.2,16.6,2.2c3.9,0,7.7,0.7,11.5,1.1
		c0.4,0,0.7,0.1,1,0.1c3.3-0.5,6.8-0.2,9.9-1.9c1.7-1,3.6-1.9,5.3-2.9c2.8-1.7,5.4-3.6,7.7-6.2c1.9-2.2,4.5-3.3,7.5-3
		c1.2,0.1,2.2,0.6,2.9,1.7C674.8,249.8,674.3,251.8,672.4,253z M694.7,158.2c-0.1,2.3-1.2,3.4-3.6,3.5c-0.2,0-0.5,0-0.9,0
		c-1.5,0.1-3.2-0.5-5-0.9c-4.2-1-8.1-0.7-11.8,1.9c-1.2,0.9-2.6,1.6-4,2.1c-3.4,1.4-7.3-0.9-7.2-4.6c0.1-3-0.8-5.3-2.5-7.8
		c-2.2-3.3-3.2-7.3-3.8-11.2c-0.3-2.4-1.1-4.8-0.8-7.4c0.2-1.2-0.7-1.9-1.4-2.7c-2-2-3.6-4.4-5.2-6.7c-1.2-1.6-1.9-3.5-2.7-5.3
		c-0.8-1.9-0.7-3.9-0.5-5.9c0.2-1.9,1.9-3.1,4.1-2.9c2.3,0.2,4.7,0.7,6.7,1.8c3.4,1.8,6.7,3.9,9.6,6.5c4,3.6,6.9,8,8.9,12.9
		c0.3,0.6,0.5,1.3,0.8,1.9c2.9,6.6,3.6,7.5,9.5,11.8c1,0.8,2.1,1.6,3.1,2.3c2.7,1.9,4.3,4.6,5.9,7.4
		C694.6,155.9,694.7,157,694.7,158.2z M808.7,423c-0.1,0.3-0.2,0.7-0.2,1c-1.7,5.3-3.4,10.8-5.1,16.1c-1.7,5.3-3.8,10.4-6.2,15.4
		c-5.8,12-9,24.7-11.1,37.8c-0.6,4.1-1.3,8.1-2,12.1c-0.3,2-1,3.9-2.1,5.6c-2.5,4.2-6.9,5.7-11.6,4c-1.9-0.7-3.6-1.9-5-3.2
		c-2.7-2.4-4.6-5.3-6.1-8.6c-1.2-2.7-2-5.5-2.8-8.4c-1.1-3.6-2.1-7.2-3.2-10.8c-2.6-8.4-6.9-16-12.5-22.7
		c-6.7-7.9-9.4-17.1-10.4-27.1c-1.2-12.4-0.2-24.7,1.3-37c0.9-8,2.5-16,4.1-24c0.4-2.1,0.7-4.2,0.9-6.3c0.2-1.4,0.2-2.8,0.2-5
		c-4,3.3-6.6,6.6-8.8,10.2c-3.6,5.8-6.9,11.8-9.6,18c-1.9,4.6-3.9,9.1-5.8,13.6c-0.2,0.4-0.4,0.9-0.6,1.2c-0.7-0.2-0.4-0.8-0.4-1.2
		c0-0.6,0.1-1.2,0.2-1.8c0.1-0.5,0.1-0.9,0.1-1.4c0.6-5.5,0.9-11,2.3-16.4c1.2-4.9,2.6-9.8,4.5-14.5c2.6-6.8,5.4-13.5,8.1-20.3
		c2.5-6.5,5.9-12.5,10-18.2c0.8-1.1,1.5-2.2,2.2-3.2c0.8-1.1,1.2-2.2,1.3-3.6c0.7-7.7,2.2-15.1,3.7-22.6c0.8-3.8,1.2-7.7,1.7-11.5
		c0.5-4.3,1.1-8.7,1.6-12.9c0.7-5.5,0.8-11,1-16.6c0.1-3.2-0.3-6.3-0.9-9.4c-0.8-4.2-1.6-8.5-3.4-12.5c-0.4-0.9-0.7-1.8-1.2-2.6
		c-1.7-2.9-3-5.9-4.2-9c-0.8-2-1.8-3.8-3.2-5.5c-2.2-2.7-3.7-5.7-5-8.9c-0.6-1.4-0.9-2.9-1.3-4.4c-0.2-0.7-0.3-1.5,0.5-1.9
		c0.7-0.3,1.4-0.1,2,0.3c0.5,0.3,0.9,0.8,1.2,1.2c0.9,1.6,2.2,2.7,3.6,3.8c7.4,6.1,13.7,13.2,19.3,20.9c3.2,4.2,6.4,8.4,9.3,12.8
		c2.9,4.5,5.3,9.1,7.4,14c0.5,1.3,1,2.6,2.2,3.6c0.8,0.7,1,1.9,1.2,2.9c1.9,7.6,1.5,14.9-1.9,22c-1.4,3-3,5.9-5.3,8.4
		c-2.7,2.9-4.2,6.5-5.1,10.3c-2.9,13.1-5.3,26.3-6.4,39.7c-1.2,14.1,1,27.7,6,40.9c1.9,5.1,5,9.6,9.1,13.2c1.6,1.4,3.2,2.8,4.7,4.2
		c1.6,1.5,3.5,2.8,5.4,4c2.5,1.5,5,3.1,7.6,4.5c2.8,1.6,5.8,2.5,9.1,2.2c1.3-0.1,2.5-0.2,3.9-0.1C807.2,416,809.5,419,808.7,423z
		 M832.8,358.1c-0.5,4.7-0.8,9.5-2.8,14.1c-1.9,4.5-5.1,7.9-8.7,10.8c-1.9,1.5-3.7,3.2-5.5,4.9c-0.8,0.7-1.4,1.6-2.6,1.6l0,0l0,0
		l0,0c0,0,0,0-0.1,0c-0.1,0.1-0.2,0.1-0.2,0.2c0-0.1,0-0.1,0.1-0.1c0,0,0.1-0.1,0.2-0.1h0.1l0,0l0,0l0,0l0,0c-0.1-0.4,0-0.9,0.1-1.2
		c0.1-0.4,0.2-0.8,0.5-1.1c2.7-3.7,3.3-8.2,4.9-12.4c0.3-0.9-0.4-1.6-1.4-1.5c-2.3,0.5-4.6,1-6.7,1.9c-4.6,2-8.6,4.8-12.5,7.9
		c-2,1.6-3.4,3.8-4.9,6c-0.3,0.5-0.5,1-0.8,1.5c-0.5,0.8-1.2,1-2.2,0.7c-1.4-0.5-2.5-1.3-3.3-2.5c-2.5-4-5.7-7.4-8.4-11.3
		c-2.9-4.2-5-8.7-6.9-13.5c-1.7-4.2-2.6-8.5-3.4-12.8c-0.4-2.1-0.2-4.2-0.2-6.3c-0.1-9.8,1.8-19.1,5.1-28.2
		c1.9-5.3,4.6-10.3,7.6-15.1c0.7-1.1,1.2-2.2,1.5-3.6c0.3-1.7,0.9-3.4,2.3-4.6c1-0.9,1.5-2.1,2.1-3.2c0.6-1.3,1.5-2.4,2.5-3.4
		c1.4-1.3,2.9-1.5,4.5-0.7c1.8,0.9,3.5,1.9,4.6,3.6c2.5,3.6,5.3,6.8,8.9,9.4c1.2,0.9,2,2.3,2.9,3.5c1.8,2.2,3.6,4.2,5.3,6.5
		c3.3,4.5,5.7,9.4,7.7,14.5c1.2,2.7,2.3,5.4,3.6,8c2.1,4,3,8.4,4,12.7c0.8,3.2,1.5,6.3,1.5,9.7c0,0.7,0.2,1.4,0.3,2.1
		C832.6,356.9,832.8,357.5,832.8,358.1z"/>
	<path class="st3" d="M312.7,465.4c-1.9-2.5-4.9-4.1-6.5-6.9c-0.8-1.3-1.8-2.5-2.7-3.7c-0.8-0.9-1.6-1.6-2.5-2.4
		c-0.2-0.2-0.7-0.4-0.9,0.1c-0.1,0.1-0.1,0.5,0,0.6c2.5,2.3,3,5.5,3.4,8.7c0.6,5.6,1.3,11.2,1.9,16.9c0.4,3.6,0.2,7.3-0.4,10.9
		c-1,5.8-2.5,11.5-4.8,16.9c-2.4,5.6-5.3,11-9.3,15.7c-2.5,3-4.6,6.5-7,9.8c-0.6,0.8-0.6,1.6-0.1,2.5c2.8,5.1,3.5,10.7,3.6,16.4
		c0.3,8.7-3,15.8-9.2,21.7c-1.2,1.2-2.5,2.5-3.7,3.7c-2.2,2.4-4.9,4.1-8,4.7c-0.2,0.1-0.5,0.1-0.7,0.2c-1.3,0.4-1.5,0.5-1.5,1.9
		c-0.1,0.6-0.1,1.2-0.1,1.8c-0.2,9.5-2.2,18.6-6,27.4l0,0c0.4,0.2,0.9,0.4,1.2,0.5c2.9-2.3,6-4.4,9.3-6.2c1.1-0.5,1.9-1.3,2.8-2.1
		s1.7-1.7,2.7-2.2c4.8-2.7,9.4-5.8,14.5-7.8c2.9-1.2,6-2.1,9.2-2.1c2.2,0,4-0.8,5.6-2.3c3.3-3.2,6.5-6.4,9.2-10.1
		c0.4-0.5,0.7-1,1-1.5c-2.4-5.7-4-11.7-6-17.6c-0.9-2.9-1.9-5.8-2.9-8.7c-1.6-4.2-2.6-8.5-3.1-13c-0.3-2.9,0-5.7,0.2-8.4
		c0.1-0.5,0.1-0.9,0.3-1.4c0.5-1.3,1.5-2.2,2.8-2.5c-0.5-1.5-0.6-3-0.7-4.6c-0.1-6.7,1.3-13.1,4.6-19c2.1-3.8,4.2-7.6,6.3-11.4
		c0.9-1.5,1.3-2.9,1.5-4.6c0.7-6,1.2-11.9,2.3-17.9c-1.4-1.3-3-2.4-4.9-3.1C313.7,466,313,465.9,312.7,465.4z"/>
</g>
<g>
	<path class="st4" d="M631.7,402.9c-0.9-0.5-1.7-1.2-2.5-1.9c-0.5-0.3-0.8-1.1-1.6-0.9c0.4,2,0.8,4,1.2,6c1,5,0.8,10.1,0.8,15.1
		c0,2.4-0.2,4.7-1.2,6.9c-0.4,0.9-0.5,1.8-0.5,2.8c0,5.3-1.2,10.2-3.2,15.1c-4.3,10.4-10.1,19.9-18.3,27.7
		c-5.5,5.3-11.5,10.1-17.3,15c-5.4,4.5-10.8,9.1-16,13.9c-5.8,5.2-10.1,11.4-13.7,18.3c-1.2,2.2-2,4.5-2.3,7
		c-0.7,5.7-2.4,11-4.9,16.2c-0.7,1.5-1.2,3-1.9,4.6c-0.2,0.4-0.5,0.9,0.1,1.2c0.2,0.2,0.7,0,1-0.2c3.2-1.6,6.7-2.8,10.1-4.1
		c4.3-1.7,8.3-4,11.8-6.9c4-3.2,7.5-6.7,10.8-10.6c2.4-2.8,4.7-5.6,7.2-8.2c3-3.3,6-6.7,8.7-10.2c1.8-2.3,3.7-4.6,5.8-6.6
		c0.9-0.9,1.7-1.9,2.3-3.1c2-3.6,4.3-7,6-10.8c0.5-1.2,1.2-2.2,2-3.3c2.2-3.3,4-7,5.4-10.7c1.2-3.3,2.3-6.6,3.6-10
		c0.8-2,1.6-4,2.5-5.8c0.7-1.4,1.7-2.5,2.9-3.5c0.2-0.1,0.4-0.3,0.5-0.5c1.9-1.2,3.9-1.3,5.6-0.4c2.9-4.9,5.8-9.8,7.7-15.2
		c2.2-6.3,2.2-12.6,1.2-19.1c-1-7.1-3.4-13.7-7.2-19.6c-1.5,2-3.8,2.8-6.2,2C632.2,403,631.9,403,631.7,402.9z"/>
	<path class="st4" d="M624.7,674.2c-6,2.2-12,4.2-18,6c-4.2,1.3-8.4,2-12.8,1c-1.6-0.4-3.2-0.8-4.6-1.7c-4.3-2.6-4.7-7.7-0.9-10.9
		c0.4-0.3,0.7-0.6,1.2-0.8c5.1-3.3,10.3-6.7,15.4-9.9c1.4-0.8,2.8-1.7,4-2.9c1.1-1.1,2.3-2,3.5-2.9c5.2-4,9.2-9,12.4-14.8
		c4.2-7.5,7.4-15.5,9.8-23.8c0.7-2.4,1.3-4.7,2-7.1c1.7-6.2,4.7-11.5,9.5-15.8c10.1-9.1,16.6-20.6,21.2-33.3
		c0.3-0.8,0.5-1.5,0.8-2.3c2.5-9,2.6-10.5-0.2-19.6c-0.5-1.5-0.8-3.2-1.2-4.8c-0.3-1.5,0.1-3,0.8-4.4c1-1.9,2.9-2.4,4.4-2.1
		c8.7,1.3,13.1,7.2,15.6,14.8c1.1,3.3,1.2,7,1.3,10.5c-0.2,5.8-1.3,11.6-3,17.2c-2.2,7.7-5.3,15.1-10.1,21.7
		c-0.5,0.8-1.1,1.5-1.5,2.3c-2.9,4.5-3,9.3-1.2,14.2c0.3,1,0.8,1.9,1.3,2.9c0.8,1.9,1.5,3.6,2.2,5.6c2.5,6.6,2.7,12.8,0.8,19
		l2.1-1.7l1.1-0.9c0.4-0.3,0.8-0.6,1.2-0.9l2.3-1.8l0.5-0.5l0.6-0.4l1.2-0.8l2.4-1.7l2.4-1.6c6.6-4.2,13.5-7.7,20.7-10.7
		c0.5-0.2,0.9-0.4,1.3-0.5l1.4-0.5l2.7-1c0.5-0.2,0.9-0.3,1.4-0.5l1.4-0.5l2.8-0.8l1.4-0.5c0.5-0.2,0.9-0.2,1.4-0.4l2.8-0.8l1.4-0.4
		l0.7-0.2l0.7-0.2l2.8-0.7c0.7-0.2,1.5-0.3,2.2-0.5c-2.1-3.7-3.5-7.6-4.2-11.8c-0.9-5.1-1.6-10.2-2-15.4c-0.3-3.3-0.6-6.7-1.1-9.9
		c-0.2-0.4-0.2-0.8-0.2-1.3c0-0.1,0-0.2,0-0.3c-1.1-7.7-2.7-15.2-5-22.7c-0.2-0.1-0.2-0.1-0.4-0.2c-2.4-0.9-4.6-2.4-6.7-3.8
		c-1.2-0.7-2-1.6-2.5-2.9c-1.1-3.1-3.3-5.3-5.7-7.4c-4.7-4.2-10.4-6.8-16-9.4c-3.6-1.6-7-3.4-10.2-5.4c-3.3-2.1-6.9-3.6-10.6-4.6
		c-1.9-0.5-3.9-0.9-5.8-1.4c-7.1-1.9-12.5-6-15.1-13c-1.1-2.9-1.8-5.9-2.1-9c-2.2,2.1-4.5,4-7,5.6c-3.3,2.2-6.8,4.2-9.9,6.8
		c-1.3,1.1-3.2,1.2-4.1,2.6c-0.9,1.3-1.5,2.9-2.4,4.3c-2.5,4.4-5.3,8.7-7.7,13.1c-6,11.2-13.6,21.1-22.2,30.4
		c-8.3,9-18.3,15-30.3,17.6c-1.2,0.3-2.5,0.5-3.8,0.9c-7.2,2.4-14.6,3.6-22.2,3.2c-1.2-0.1-2.2,0.4-3.2,1.2
		c-5.2,4.8-11.5,7.8-18.2,9.6c-3.4,0.9-6.9,1.6-10.4,1.9c-2,0.2-4,0.5-6,0.8c-8.8,1.8-17.7,2.2-26.7,1.9
		c-11.3-0.4-22.4-2.2-33.5-4.8c-7-1.6-13.9-3.3-20.5-6.4c-0.9-0.4-1.8-0.5-2.8-0.5c-2.4,0-4.6-0.5-6.9-1.2
		c-4.4-1.4-8.6-3.2-12.4-5.8c-1.2-0.8-2.5-1.6-4-2.4c-3.5-2-6.6-4.5-9.4-7.3c-2.9-2.9-5.6-5.7-8.6-8.4c-6.2-5.7-11.8-11.8-17.3-18.1
		c-5-5.9-10.1-11.8-15.3-17.6c-2.5-2.7-4.6-5.6-5.9-9c-0.8-1.9-1.9-3.8-2.3-5.9c-2.2-10.9-8.1-19.6-15.3-27.8
		c-0.3-0.3-0.5-0.6-0.9-0.9c-1.1,5.9-1.6,11.9-2.3,17.9c-0.2,1.7-0.7,3.2-1.5,4.6c-2.2,3.8-4.2,7.6-6.3,11.4
		c-3.2,5.9-4.6,12.3-4.6,18.9c0,1.6,0.2,3.2,0.7,4.6c0.2-0.1,0.4-0.1,0.6-0.1c1.5-0.2,2.7,0.5,3.6,1.8c0.7,1,0.9,2.2,1.2,3.2
		c0.3,1.2,0.7,2.4,1.1,3.6c1.7,5.3,3.8,10.4,6.3,15.3c0.5,0.9,1,1.9,1.5,2.9c1.6,2.9,3.6,5.5,6,7.8c4.9,5,10.1,9.5,15.8,13.5
		c4.7,3.2,9.3,6.8,13.9,10.2c1.7,1.2,3.5,2.4,5.4,3.3c5.4,2.6,8.8,6.9,10.4,12.6c0.9,3.2,1.9,6.3,2.7,9.5c1.6,5.7,4.4,10.6,8.3,15
		c1.8,2,3.6,4,5.4,6c1.5,1.6,2.9,3.3,4.2,5.3c2.1,3.2,3.1,6.8,2.6,10.8c-0.3,2.9-0.8,5.8-1.1,8.7c-0.4,4.2-0.7,8.4-1,12.7
		c-0.2,3.4,0.3,6.8,1.6,10c0.7,1.8,1.1,3.6,0.5,5.5c-0.3,0.9-0.1,1.9,0.1,2.8v0.1h235.8c0.2-0.2,0.5-0.3,0.8-0.5
		c1.2-0.8,2.2-1.7,3.3-2.6c0.6-0.5,1.2-1.2,1.9-1.7l0.1-0.1c0.2-0.3,0.5-0.7,0.8-1c2.3-3,4.4-6.2,6.6-9.3c0.6-0.9,1.2-1.8,1.9-2.7
		c0.2-0.3,0.4-0.7,0.6-1c0.6-0.9,1.2-1.9,2-2.8l0.1-0.1c-2.2,1.3-4.4,2.3-6.9,3C635.7,670.1,630.2,672.2,624.7,674.2z M569.7,627.8
		c-5.3,7.5-11.6,14.2-18.2,20.6c-3.4,3.3-7.3,5.9-11.9,7.3c-1.5,0.5-3.1,1.2-4.6,1.7c-1.9,0.6-3.9,1.1-5.9,1.2
		c-2.7-0.4-5.3-0.7-8-1.1c-0.8-0.2-1.6-0.3-2.4,0.1c-0.6,0.3-1.2,0.8-1.9,0.8c-0.9,0-0.6-1.1-0.8-1.7c-0.2-0.5-0.6-0.6-1.1-0.8
		c-0.6-0.3-1.3-0.5-1.9-0.9c-0.6-0.4-0.6-1.3-0.2-1.9c0.7-0.8,1.6-1.3,2.6-1.7c1.1-0.4,2.1-0.9,2.9-1.9c4.2-5,8.4-9.8,12.5-14.8
		c1.2-1.3,2.2-2.8,3.4-4.1c3.5-3.9,5.3-8.5,6.3-13.5c0.2-1.4,0.5-2.8,0.8-4.2c1-5,3.5-7.3,8.5-8c2.8-0.4,5.6-0.7,8.4-1.2
		c3.6-0.5,7-2.1,10.2-3.7c2.2-1.1,3.8-2.8,5.2-4.7c1.6-2.2,3.2-4.3,5-6.3c0.7-0.8,1.2-1.7,1.7-2.6c1.5-2.5,3.8-4.1,6.6-5
		c4.2-1.3,7.9,1.4,7.8,5.9c0,1.8-0.5,3.5-1.1,5.2c-2.4,7.3-6.5,13.8-11.5,19.7C577.8,617.2,573.5,622.4,569.7,627.8z"/>
	<path class="st4" d="M359.6,678.9c-7.7-4.8-13.2-11.6-16.9-19.9c-3.2-7.1-5.4-14.5-7-22.1c-0.9-4.2-1.1-8.7-1.2-13s0.1-8.7,0.9-13
		c0.3-1.7,0.1-3.2-0.9-4.7c-1.7-2.7-3.4-5.3-5.2-8c-0.6-0.8-1.5-1.5-2.2-2.2c-1.2-1.1-2.5-2.2-3.7-3.2c-4.2-4-7.4-8.5-9.6-13.8
		c-0.1-0.2-0.1-0.3-0.1-0.5c-0.3,0.5-0.6,1-1,1.5c-2.7,3.7-5.9,7-9.2,10.1c-1.6,1.5-3.4,2.4-5.6,2.3c-3.2,0-6.3,0.9-9.2,2.1
		c-5.2,2.1-9.8,5.1-14.5,7.8c-1,0.5-1.9,1.5-2.7,2.2s-1.8,1.5-2.8,2.1c-3.3,1.8-6.3,3.9-9.3,6.2c5.8,2.5,11.5,5.6,16.8,9l2.4,1.6
		l2.4,1.7l1.2,0.8l0.6,0.4l0.5,0.5l2.3,1.8c0.4,0.3,0.8,0.6,1.2,0.9l1.1,0.9l2.2,1.9c0.8,0.6,1.5,1.3,2.2,1.9l1.1,1l0.5,0.5l0.5,0.5
		c1.4,1.3,2.8,2.7,4.1,4.1c0.7,0.7,1.3,1.4,2,2.1l1.9,2.2c0.3,0.4,0.6,0.7,1,1.1l0.9,1.1l1.9,2.2c1.2,1.5,2.5,2.9,3.6,4.5
		c3.1,3.9,6,7.9,8.8,12c0.1,0.1,0.1,0.2,0.1,0.2c0.7,0.9,1.4,1.8,2,2.8c0.2,0.3,0.4,0.7,0.6,1c0.6,0.9,1.2,1.8,1.9,2.7
		c2.2,3.2,4.3,6.3,6.6,9.3c0.2,0.3,0.5,0.7,0.8,1l0.1,0.1c0.6,0.5,1.2,1.2,1.9,1.7c1.1,0.9,2.2,1.8,3.3,2.6c0.2,0.2,0.5,0.3,0.8,0.5
		h34.7c-1-0.7-1.9-1.4-2.9-2.2C365.4,682.8,362.6,680.8,359.6,678.9z"/>
	<path class="st4" d="M399.8,543.2c0.1-0.1,0.1-0.2,0.1-0.2h-0.1C399.9,543.1,399.8,543.1,399.8,543.2L399.8,543.2z"/>
	<path class="st4" d="M342.9,471.8c2.9,3.2,4.9,6.9,6.3,11c1.2,3.5,2.5,6.9,3.5,10.4c1.7,5.6,4,11.1,6.9,16.2
		c0.8,1.3,1.3,2.7,2.2,3.9c5.2,6.7,11.2,12.3,18.5,16.7c1.7,1,3.4,2.1,5,3.3c4.6,3.6,9.4,7.1,14.5,10c0.5-0.8,0.1-1.5-0.3-2.2
		c-1.5-2.9-2.8-6-3.8-9.1c-1.8-5.7-3.6-11.5-4.6-17.4c-0.2-1.3-0.5-2.5-1.5-3.5c-2.2-2.2-3.6-4.9-5.1-7.6c-0.9-1.8-1.9-3.5-2.9-5.2
		c-0.4-0.7-0.9-1.5-1.5-1.9c-2.1-1.3-3.2-3.3-4.6-5.3c-2.8-4-5.9-7.7-9.8-10.5c-1.9-1.4-3.5-3.2-5-5c-1.2-1.5-2.3-2.9-3.6-4.4
		c-4.2-4.7-7.2-10.1-9.4-16c-3-7.8-5-15.9-6.2-24.2c-0.1-0.3-0.1-0.5-0.1-0.9c-1.2,1.2-2.5,2.5-3.7,3.9c-1.3,1.4-2.5,2.8-3.5,4.4
		c-2.4,4-4.9,8-7.2,12.1c2.3,5.2,5.3,9.9,9.3,14.1C338.6,466.8,340.7,469.3,342.9,471.8z"/>
	<path class="st4" d="M351.6,324.8c-0.1,0.1-0.2,0.4-0.3,0.5c-1.2,2.2-2.4,4.3-3.4,6.6c-2.6,6-4.8,12-4.6,18.6c0,0.9,0,1.6-0.1,2.5
		c-0.2,1.2-0.4,2.5-0.5,3.8c0.9-1.1,1.8-2.1,2.8-3c1.7-1.5,3.5-2.8,5.6-3.5c0.9-0.3,2.1-0.9,2.9,0.1c1,1.1,1.7,2.3,1.3,3.9
		c-0.2,0.9-0.7,1.8-1.2,2.5c-0.4,0.7-0.9,1.4-1.5,2c-2,2.2-2.9,4.8-3.1,7.7c-0.1,1.5-0.2,3-0.1,4.6c0.3,2.9,0.6,5.9,0.9,8.7
		c0.5,3.7,1.9,7,4.3,9.8c2.2,2.6,4.8,4.8,7.5,7c4.8,3.8,8.4,8.5,10.8,14.2c0.5,1.3,1.1,2.6,1.7,3.9c0.6,1.2,1.2,2.5,2,3.7
		c3.2,4.6,7.1,8.4,11.6,11.8c2.2,1.6,4.7,2.4,7.6,2.5c6.3,0.2,12.7-0.5,19-0.4c0.9,0,1.9-0.1,2.8-0.5c5.8-2.2,10.7-5.5,13.5-11.1
		c-1.6,0.8-3.4,1.4-5.4,1.6c-4.8,0.7-9.5,1.2-14.4,0.6c-3.5-0.5-6.6-1.8-9.4-3.8c-1.2-0.9-2.3-2-3.1-3.3c-1.6-2.6-2-5.3-0.2-8
		c0.9-1.4,1.6-2.9,2.5-4.2c0.5-0.9,1.3-1.2,2.4-1.1c1.7,0.1,3.2,0.4,4.6,1.3c1.5,1.2,3.4,1.6,5.1,2.4c1.5,0.7,3.2,0.5,4.9,0.5
		c0.9-0.1,1.5-0.5,2.1-1.2c0.9-0.9,1.5-2.1,2.1-3.2c2-4.2,4-8.5,6.9-12.3c1.3-1.7,1-3.2-0.2-4.8c-2.9-3.6-4.6-7.6-5.5-12.1
		c-0.9-4.2-0.5-8.4,0.9-12.5c0.3-0.9,0.7-1.8,1-2.6c1.3-3.2,0.5-6-1.8-8.4c-0.9-0.9-1.9-1.8-2.8-2.7c-1.3-1.2-2.3-2.6-3-4.2
		c-0.6-1.5-0.8-2.9-0.5-4.5c0.4-2.2,1.8-3.3,4-3.2c-5.7-4.2-11.1-8.8-15.9-14.2c-3.5-3.9-6.1-8.3-8.6-12.8c-0.5-0.9-0.9-1.9-1-3
		c-0.9-5-1.2-10.1-0.5-15.1c1.2-8.3,3.6-16.2,7.6-23.8c3.4-6.4,7.4-12.2,13.3-16.6c1.5-1.2,2.9-2.4,4.3-3.6c5.7-4.7,12.2-8,19.3-9.8
		c7.9-2,15.9-3.1,24.1-2.6c1.8,0.1,3.6,0.1,5.3,0.1c3.1-0.1,6.1,0.2,9.1,0.7c1.1,0.1,2.1,0.3,3.2,0.5c4.6,0.7,9,1.8,13.2,3.6
		c1.9,0.9,3.9,1.6,6,2.2c5.1,1.6,9.9,3.8,14.1,7.1c4.6,3.6,9.1,7.4,13.6,11.1c3.1,2.5,5.3,5.6,7.1,9c2.1,4,3.6,8.2,4.2,12.7
		c0.2,1.2,0.4,2.3,0.8,3.4c1.7,4.7,1.5,9.4,0.2,14.2c-1.2,5-3.2,9.5-5.4,14.1c-3,6.2-7,11.6-11.7,16.6c0.1,0.4,0.2,0.9,0.2,1.4
		c0.2,2.7-0.6,5.1-2,7.4c-1.5,2.4-3.3,4.6-5.6,6.3c-0.9,0.7-1.3,1.5-1.2,2.7c0.3,3.8-0.2,7.5-1.3,11.1c-1.3,4.5-3.7,8.4-7,11.7
		c-0.9,0.9-1.9,1.8-2.4,3c-0.5,1.1-0.4,1.7,0.5,2.5c0.5,0.5,1.1,0.9,1.6,1.4c3.6,2.9,6,6.5,7.7,10.8c0.6,1.6,1.2,3.3,1.9,5
		c1.5,3.5,3.8,6.2,7,8.2c1.6,1,3.4,1.5,5.3,1.2c1.6-0.3,3.2-0.7,4.8-1.1c1.4-0.3,2.7-0.8,4.1-1c1.5-0.3,3-0.1,4.5,0.4
		c2.4,0.9,3.8,2.8,3.9,5.3c0,0.5,0,0.9-0.1,1.4c-1.9,7.9-6.1,14.4-16.6,15.2c-5.5,0.4-10.6-0.7-15.2-3.5c0.3,0.6,0.6,1.2,0.9,1.9
		c1.2,2.5,2.9,4.9,4.7,7c1.9,2,3.9,3.8,5.9,5.6c3.6,3,7.7,4.5,12.2,5c8.4,0.9,16.1-1.4,23.6-4.5c3.1-1.3,5.7-3.4,7.7-6
		c1.9-2.5,4-5,6-7.4c2.8-3.6,6.2-6,10.5-7.4c0.9-0.2,1.8-0.5,2.7-0.9c2.1-0.8,4.1-1.8,5.9-3.1c7.8-5.6,13.1-13.1,16.2-22.1
		c1-2.9,1.9-5.8,2.9-8.7c0.6-1.7,0.9-3.3,0.8-5.2c-0.2-1.9-0.2-3.8-0.3-5.6c-0.1-1.3-0.1-2.5,0.4-3.8c0.3-0.8,0.7-1.5,1.5-1.9
		c1.6-0.9,4.6-0.5,6,0.8c2.1,1.9,3.4,4.2,4,6.9c0.4,1.9,0.8,3.6,1,5.5l0,0c0.3,3,1.8,5.3,4.2,7c0.2,0.1,0.3,0.2,0.5,0.3
		c1.5-6.2,1.8-12.6,1.4-19.1c-0.3-6.3-2.1-11.9-5-17.2c-1.5-0.6-2.9-1.4-4.2-2.3c-1.4-1-2.9-1.5-4.5-1.5c-0.8,0-1.7,0.1-2.5,0.3
		c-1,0.2-2.1,0.5-3.1,0.7c-1.6,0.4-3.2,0.9-4.4,2c-0.5,0.4-0.9,0.8-1.4,1.1c-2.2,1.2-4.2,0-4-2.5c0.1-2.5,1.2-4.6,2.9-6.3
		c0.8-0.8,1.7-1.5,2.6-2.2c0.2-1.9,0.2-3.9,0.2-5.8c-0.1-3.6-1-7-1.5-10.4c-0.8-6-3.4-11.1-7-15.6c0.7,2.5,0.9,5.2,0.9,8
		c-0.1,3.4-0.2,6.8-1.3,10.1c-0.4,1.2-0.8,2.5-1.7,3.5c-1.6,2.1-4.2,2.3-6.2,0.6c-0.2-0.1-0.4-0.3-0.5-0.5c-2.2-2.9-5.1-5.2-8.1-7.3
		c-4-2.9-6.4-6.8-7.1-11.7c-0.2-0.9-0.4-1.9-0.4-2.8c-0.5-8.4-3-16.2-5.9-23.8c-1-2.6-2.6-5-4.2-7.3c-1.3-1.8-1.9-3.8-2.2-5.9
		c-1.1-1-2-2.1-2.8-3.5c-1.2-2.4-3.2-4.1-6-4.6c-1.4-0.2-1.9-1-2.3-2.2c-1.1-3.9-2.2-7.7-2.5-11.7c-0.3-5.1-1.8-9.9-4.2-14.5
		c-0.8-1.5-1.5-2.9-2.3-4.3c-1.6-3-4-5.1-7-6.6c-4.4-2.2-8.8-4.4-12.8-7.4c-2.2-1.6-4.6-2.9-7.3-3.5c-4-0.9-7.8-2.6-11.7-3.8
		c-1.8-0.6-3.4-1.6-4.7-3c-1.5-1.6-2.4-3.4-1.4-5.7c0.3-0.6,0.4-1.3,0.6-2c0.8-2.8,0.8-5.6-0.2-8.4c-0.2-0.8-0.5-1.6-0.7-2.3
		c-1.2-3.2-1.8-6.5-1.9-10c-0.1-4-1.1-7.9-3.1-11.4c-1.2-2.2-2.2-4.4-3.2-6.6c-1.1-2.2-1.8-4.6-1.9-7.1c-0.2-5.6,0.1-11.3,1.5-16.8
		c1.2-5.1,3.4-9.8,8-12.9c2.3-1.6,3.6-4,4.3-6.7c1.1-3.8,2.9-7.2,5.4-10.2c2.1-2.5,3.5-5.3,4.4-8.4c0.4-1.1,0.7-2.2,1-3.4
		c1.5-5.2,3-10.4,4.3-15.6c1.1-4.6,1.8-9.2,2.2-13.9c0.3-3.5,0.4-7,0.4-10.5c0-1.2,0-2.3-0.1-3.6c0-1.2-0.2-2.3-0.5-3.5
		c-0.3-2-0.9-3.9-1.9-5.7c-10.2-0.8-20.4-0.7-30.6,0.3c-4.4,0.5-8.9,0.6-13.4,0.8c-6.4,0.4-12.9,0.7-19.3,1.2
		c-3.2,0.2-6.3,0.6-9.4,1c-0.2,0.2-0.5,0.4-0.6,0.6c-0.5,0.5-0.9,1.1-1.2,1.7c-0.2,0.4-0.5,0.8-0.7,1.2c-0.4,0.8-0.8,1.7-1,2.5
		c-0.6,2.2-0.9,4.4-0.6,6.7c0.2,1.8,0.3,3.6,0.3,5.3c0,2.9-0.1,5.9-0.4,8.7c0,0.2,0,0.5,0,0.7c0,0.5,0,0.9,0.1,1.4
		c0,0.2,0,0.5,0.1,0.7c0.1,0.8,0.1,1.8,0.1,2.6s0.1,1.8,0.3,2.6c0.3,2.1,0.6,4.2,1.2,6.2s1.2,4,2.4,5.9c2.3,3.9,4,8.1,5.2,12.4
		c0.4,1.5,0.7,2.9,1,4.4c1.2,6.6,3.1,13,4.7,19.5c0.6,2.6,0.9,5,0.7,7.7c-0.1,1.3-0.3,2.6-0.3,3.9c0,5.6,0.9,11,4.8,15.4
		c1.9,2.2,3.4,4.9,4.2,7.7c1.2,3.6,1.8,7.3,2.6,10.9c0.3,1.2,0,2.3-0.8,3.3c-1.8,2.3-3.6,4.7-5.3,7c-0.7,0.9-1.4,1.9-1.8,3
		c-0.6,1.9-1.5,3.7-1.9,5.6c-0.6,2.9-2,5.3-4,7.4c-1.9,2.1-3.7,4.2-5.7,6.3c-5,4.9-10.4,9.2-15.9,13.4c-0.6,0.5-1.4,0.9-2.1,1.3
		c-9.4,5.6-18,12.4-25.5,20.4c-6.6,6.9-11.8,14.6-16.6,22.6c1.2,1.6,1.7,3.6,1.4,5.9c-0.3,2.1-1.3,4-2.4,5.9
		c-1.9,3.4-3.6,6.9-5,10.5c-1.9,5-2.4,10.3-2.9,15.5c-0.5,5.3-1.1,10.5-1.6,15.8c-0.2,1.9-0.5,3.7-1.4,5.4c-0.5,0.9-1.2,1.2-2,0.8
		c-2.3-1.3-5-1.3-7.5-1.9c-1.2-0.3-2.2,0.1-3.2,1c-2.2,2.1-4.6,4-6.9,6c-1.2,1.1-2.6,1.9-4.4,1.9C352.3,324.9,352,324.8,351.6,324.8
		z"/>
	<path class="st4" d="M577.2,170.2c1.2,3.9,2.9,7.4,7.3,8.7c1,0.3,1.8,0.3,2.6-0.4c0.9-0.9,1.9-1.7,2.9-2.6c2.1-1.9,2.9-4.2,3-7
		c-0.4-1.9-0.3-4.1-1-6.1c-1.5-4.2-6.2-6.3-10.3-4.4c-1.9,0.9-3.3,2.2-4.6,3.8c-1,1.4-1.5,2.8-0.8,4.6
		C576.9,167.9,576.9,169.1,577.2,170.2z"/>
	<path class="st4" d="M576.9,195.9L576.9,195.9c-0.1,0-0.2,0.1-0.2,0.1C576.8,196,576.8,195.9,576.9,195.9z"/>
	<path class="st4" d="M558.6,184.5c3.8,2.9,7.7,5.8,11.5,8.7c1.5,1.2,3.2,2,4.9,2.8c0.7,0.3,1.3,0.3,1.9-0.1
		c-3.2-2.8-5.4-6.3-7-10.2c-1.3-3.2-2.4-6.3-3.5-9.6c-0.3-0.9-0.4-1.9-0.6-2.7c-0.1-0.5-0.1-0.9-0.8-1.1c-2.9,3-5.1,6.5-6.8,10.4
		C557.8,183.4,557.9,183.9,558.6,184.5z"/>
	<path class="st4" d="M615.6,195.8c1,0,1.8-0.5,2.5-1.1c1.3-0.9,2.7-1.9,4-2.9c1.6-1.4,3.1-2.9,4.6-4.4c0.9-0.9,1.4-2.2,1.3-3.9
		c0-0.1-0.1-0.6-0.2-1.1c-0.9-2.7-2.1-5.3-3.8-7.5c-0.5-0.8-1.2-1.4-2-1.9c-0.6-0.5-1.5-0.9-2.2-0.3c-0.6,0.5-0.2,1.3-0.2,2
		c0,0.2,0.2,0.5,0.2,0.7c0.8,7-0.1,13.6-5.2,19c-0.3,0.3-0.7,0.8-0.3,1.2C614.6,195.8,615.1,195.8,615.6,195.8z"/>
	<path class="st4" d="M366.9,175.1c2.1,2.6,4.6,4.3,7.7,4.2c2.1,0.1,3.8-0.1,4.7-1.8c1-1.9,1.9-3.8,2.2-5.9c0.3-2.2-0.3-4.2-1.7-5.9
		c-1.8-2.1-4.3-2.7-6.8-3.3c-0.4-0.1-0.9,0.1-1.3,0.3c-3.9,1.6-6.2,5.3-5.8,9.4C365.9,173.3,366.2,174.3,366.9,175.1z"/>
	<path class="st4" d="M380.3,201.6c0,0,0.1,0.1,0.2,0.1c0.3,0,0.5-0.1,0.5-0.5C380.7,201.1,380.4,201.3,380.3,201.6z"/>
	<path class="st4" d="M341.4,192.6c1.2,0.8,2.1,1.9,3,2.9c3,3.4,6.8,5.3,11.1,6.4c0.4,0.1,1,0.7,1.4-0.1c-0.3-0.2-0.5-0.5-0.9-0.7
		c-5-3.9-8.5-9.1-10-15.3c-1.2-5.1-1.4-10.2-1.1-15.5c-2,2.3-3.6,4.9-5,7.5c-1,1.9-1.9,3.8-2.7,5.7c-0.4,0.9-0.4,1.7,0,2.7
		C338.1,188.7,339.1,191.1,341.4,192.6z"/>
	<path class="st4" d="M382.9,200.9c5-2.4,9-6,12.4-10.2c1.5-1.9,2.7-4.1,2.7-6.7c0-1.7,0.5-3.2,1.3-4.7c0.3-0.5,0.4-1.1,0-1.6
		c-1.3-1.9-2.6-3.9-4-5.8c-0.1-0.1-0.4-0.1-0.6-0.1s-0.4,0.1-0.4,0.5s0,0.7,0,1.1c0.1,4.6-0.9,8.9-3.2,12.8c-2,3.6-4.2,7.1-6.3,10.5
		c-0.8,1.2-2,2.3-3,3.4c-0.4,0.4-0.9,0.7-0.9,1.3C381.7,201.5,382.3,201.2,382.9,200.9z"/>
	<path class="st4" d="M867.4,662.7c-2.2-4.4-5-8.6-8-12.4s-6.7-7.3-10.5-10.4c-3.9-3-8-5.7-12.5-7.8l0,0l-6.5-2.9
		c-0.7-0.6-1.4-1.2-2.1-1.9c-1.6-1.4-3.3-2.7-5.3-3.8c-7.7-4.3-16.3-6.7-25-8.2c-4.3-0.7-8.7-1.2-13.2-1.5c-2.9-0.2-5.8,0-8.7-0.5
		c-3.2-0.5-6.1-1.9-9.3-2.2c-1.2-0.1-2.5,0-3.7,0.2c-10.1,1-20.1,2.5-29.9,5.5c-4.9,1.5-9.7,3.3-14.2,5.7c-4.4,2.2-8.3,5.3-12.8,7.1
		c-1.1,0.5-2.2,0.9-3.2,1.4c-23.2,10-44,29.5-52.1,53.8l0,0c2.1-0.5,4.6,0.4,6.3-1c0.7-0.5,1.1-1.4,1.4-2.2
		c3.8-8,7.4-16.5,13.7-22.7c7.7-7.7,20-10.8,29.2-3.6v-0.1c0.1,0.1,0.1,0.2,0.2,0.2c0.5,0.4,1.1,0.8,1.5,1.4l0.1,0.1
		c0.2,0.2,0.3,0.3,0.5,0.5c0.6,0.5,1.2,1.2,1.6,1.8c0.1,0.2,0.2,0.2,0.2,0.4c-0.8,0-1.5,0-2.3,0.2c-1.7,0.2-3.3,0.6-4.9,1.2
		c-3.2,1.2-6,2.9-8.8,4.8c-0.7,0.5-1.4,0.9-2,1.5l-1,0.8l-1.9,1.4l-0.9,0.7c0,0,1-0.2,1.1-0.3c4.8-1.2,9.7-1.3,14.2,0.8
		c0.4,0.2,0.7,0.4,1.1,0.5c0.3,0.2,0.7,0.4,1,0.6c0.7,0.5,1.3,1,1.9,1.5c1.2,1.1,2.3,2.3,3.3,3.6c1.1,1.5,1.9,3.1,2.8,4.7l0,0
		c-0.2,0.5-0.2,0.9-0.4,1.4c-0.1,0.3-0.2,0.5-0.2,0.8c0,0.1,0,0.1,0,0.2c-0.1,0.5-0.2,1.1-0.2,1.6c0,0.2,0,0.2,0,0.4
		s0.1,0.2,0.1,0.4c0.1,0.2,0.1,0.5,0.2,0.7c0-0.1,0-0.1,0-0.2c0,0.1,0,0.1,0,0.2v0.1V687c0.2,0.8,0.4,1.8,0.5,2.6
		c0.2,1.1,0.5,2.1,0.7,3.2c1.3,2.2,2.6,4.3,3.5,6.7c0.1,0.2,0.2,0.5,0.2,0.7c0,0.1,0,0.2,0.1,0.2c0.1,0.2,0.2,0.5,0.2,0.7
		c0,0,0,0,0,0.1c0.1,0.2,0.1,0.5,0.2,0.7c0,0.1,0,0.2,0.1,0.2c0.1,0.2,0.1,0.4,0.1,0.6c0,0.1,0,0.1,0,0.2c0,0.2,0.1,0.5,0.1,0.7
		c0,0.1,0,0.2,0,0.2c0,0.2,0,0.3,0.1,0.5c0,0.1,0,0.2,0,0.3c0,0.2,0,0.3,0.1,0.5c0,0.2,0,0.2,0,0.4c0,0.1,0,0.2,0,0.3
		c0,0.2,0,0.5,0,0.8c0,0.1,0,0.1,0,0.2c0,0.2,0,0.3,0,0.5c0,0,0,0,0,0.1c0,0.4,0,0.7,0,1.1c0.2,0.2,0.3,0.3,0.4,0.5
		c0.7,0.8,1.4,1.7,2.1,2.5c0.4,0.4,0.7,0.7,1.1,1.1c2.9,2.5,6,5,10,5.9c6.1,1.4,12.5-0.6,18.8-0.1c1.2,0.1,2.5,0.3,3.6-0.2
		c2.2-0.9,3.5-4.3,4.6-6.3c1.7-2.9,3.2-6,4.3-9.3c2.3-6,3.6-12.5,4.2-19c0.8-10.2-1.1-20.6-5.2-29.9c-2-4.7-4.6-9.1-7.6-13.3
		c-3-4.1-6.4-8-10.2-11.4c-0.5-0.5-0.9-0.8-1.5-1.2l-2.5-2.2l-0.1-0.1c0,0-0.1,0,0,0h0.2l0.2,0.1l0.5,0.1l0.9,0.2l1.4,0.3l0.5,0.1
		l0.5,0.2l0.9,0.3c2.5,0.8,4.9,1.8,7.2,2.9c21.2,11.1,30.4,33.5,31.8,56.2c0,0.2,0,0.3,0,0.5c0,0.7,0.1,1.4,0,2c0,0.6,0,1.2-0.1,1.9
		c-0.1,0.6-0.1,1.2-0.2,1.8c0,0.1,0,0.2,0,0.2c-0.1,0.4-0.2,0.8-0.2,1.2c-0.1,0.3-0.2,0.8-0.2,1.2c0,0.3-0.1,0.5-0.1,0.8
		c-0.5,3.8-1.9,7.5-3.1,11.1c-1.2,3.9-3.5,7.6-1.9,11.6c3.3,8.6,10.9,11.2,19.3,12.6c1.1,0.2,2.2,0.3,3.3,0.5
		c1.4,0.2,2.8,0.3,4.2,0.5c1.6,0.2,3.2,0.3,4.8,0.5c0.3,0,0.6,0.1,0.9,0.1s0.5,0.1,0.8,0.1c0.5,0,1.2,0,1.7,0c0-0.1,0-0.2,0-0.2
		c0.7-3.2,2.4-6,4-9c7-13.6,9.8-29.9,7.5-45.3c-2-14.4-10.1-27.7-20.2-37.9c-0.9-1-2.1-2.3-1.9-3.7c3.6,0.9,7.3,4,10.5,5.9
		c3.8,2.4,7.6,5,11,7.8c6.3,5.3,12.2,12,13.5,20.3c2.5,16,6.9,16.9,4.8,33c-0.5,4.2-3.2,8.2-4,12.5c-1.2,6-1.5,11.5-3.8,17.2
		c-0.2,0.4-0.4,0.7-0.4,1.1c-0.1,0.4-0.3,3.4-1.1,3.2c2.9,0.9,16.8,3.7,17.5-1.3l0.4-2.8l3.5-19.3c3.3-19,3.9-37.9-4.7-55.6
		c-1.9-3.8-5-11-7.4-13.2c0.3,0.2,0.5,0.5,0.8,0.8c4.7,4.5,9.1,8.7,12.6,14.2c4.1,6.5,7.6,13.7,10.3,20.9c0.2,0.5,0.4,1.2,0.6,1.7
		c0.8,2.3,1.4,4.6,1.9,7c0.9,4.7,1.5,9.5,1.5,14.3c-0.1,4.8-0.6,9.5-1.7,14.2c-0.3,1.4-0.7,2.9-1.2,4.2c0.5-0.1,0.8-0.2,1.2-0.4
		c1.2-0.5,2.2-1.3,3.1-2.2c0.8-0.9,1.5-2,2.2-3.1s1.1-2.2,1.5-3.4c0.2-0.6,0.4-1.2,0.5-1.8C876.4,695.3,874.9,677.7,867.4,662.7z
		 M711.8,626.8C711.9,626.8,711.9,626.8,711.8,626.8c0.1-0.1,0.2-0.1,0.2-0.2C712,626.7,711.9,626.7,711.8,626.8z"/>
	<path class="st4" d="M264.1,631.2c-1.1-0.5-2.2-0.9-3.2-1.4c-4.6-1.8-8.4-5-12.8-7.1c-4.6-2.3-9.4-4.1-14.2-5.7
		c-9.7-2.9-19.8-4.4-29.9-5.5c-1.2-0.2-2.5-0.2-3.7-0.2c-3.2,0.2-6.1,1.6-9.3,2.2c-2.9,0.5-5.8,0.3-8.7,0.5
		c-4.4,0.2-8.8,0.7-13.1,1.5c-8.7,1.5-17.3,3.9-25,8.2c-1.9,1.1-3.6,2.3-5.3,3.8c-0.7,0.6-1.4,1.2-2.1,1.9l-6.5,2.9l0,0
		c-4.4,2.2-8.6,4.8-12.5,7.8c-3.9,3.1-7.3,6.6-10.5,10.4c-3.1,3.8-5.8,8-8.1,12.4c-7.5,14.9-9.1,32.6-4.6,48.7
		c0.2,0.6,0.3,1.2,0.5,1.8c0.4,1.2,0.8,2.3,1.5,3.4s1.3,2.2,2.2,3.1c0.8,0.9,1.9,1.8,3.1,2.2c0.4,0.2,0.8,0.3,1.2,0.4
		c-0.5-1.4-0.8-2.8-1.2-4.2c-1.1-4.6-1.6-9.4-1.7-14.2c0.1-4.8,0.5-9.6,1.5-14.3c0.5-2.4,1.1-4.7,1.9-7c0.2-0.5,0.4-1.2,0.6-1.7
		c2.7-7.1,6.3-14.4,10.3-20.9c3.5-5.6,7.9-9.8,12.6-14.2c0.3-0.3,0.5-0.5,0.8-0.8c-2.4,2.2-5.7,9.4-7.4,13.2
		c-8.6,17.7-8.1,36.6-4.7,55.6l3.5,19.3l0.4,2.8c0.7,5,14.6,2.3,17.5,1.3c-0.7,0.2-1-2.7-1.1-3.2c-0.1-0.4-0.3-0.7-0.4-1.1
		c-2.2-5.7-2.6-11.3-3.8-17.2c-0.9-4.2-3.5-8.1-4-12.5c-2.1-16,2.3-17,4.8-33c1.3-8.4,7.2-15.2,13.5-20.3c3.5-2.9,7.2-5.4,11-7.8
		c3.1-1.9,7-5,10.5-5.9c0.2,1.4-0.9,2.7-1.9,3.7c-10.1,10.2-18.2,23.5-20.2,37.9c-2.2,15.5,0.5,31.8,7.5,45.3c1.5,2.9,3.2,5.7,3.9,9
		c0,0.1,0,0.2,0,0.2c0.5,0,1.2,0,1.7,0c0.3,0,0.5-0.1,0.9-0.1s0.6-0.1,0.9-0.1c1.6-0.2,3.2-0.4,4.8-0.5c1.4-0.1,2.8-0.3,4.2-0.5
		c1.1-0.2,2.2-0.3,3.3-0.5c8.3-1.3,15.9-4,19.3-12.6c1.6-4.1-0.6-7.7-1.9-11.6c-1.2-3.6-2.5-7.3-3.1-11.1c-0.1-0.3-0.1-0.5-0.1-0.8
		c-0.1-0.3-0.1-0.8-0.2-1.2c-0.1-0.4-0.1-0.8-0.1-1.2c0-0.1,0-0.2,0-0.2c-0.1-0.6-0.1-1.2-0.1-1.8c-0.1-0.6-0.1-1.2-0.1-1.9
		s0-1.4,0-2c0-0.2,0-0.3,0-0.5c1.4-22.7,10.5-45.1,31.8-56.2c2.3-1.2,4.7-2.2,7.2-2.9l0.9-0.3l0.5-0.2l0.5-0.1l1.4-0.3l0.9-0.2
		l0.5-0.1l0.2-0.1h0.1l0,0l-0.1,0.1l-2.5,2.2c-0.5,0.4-1,0.8-1.5,1.2c-3.8,3.5-7.2,7.3-10.2,11.4c-3,4.2-5.5,8.6-7.6,13.3
		c-4.1,9.4-6,19.7-5.2,29.9c0.5,6.5,1.9,12.8,4.2,19c1.2,3.2,2.6,6.3,4.3,9.3c1.2,1.9,2.5,5.3,4.6,6.3c1.2,0.5,2.4,0.3,3.6,0.2
		c6.3-0.5,12.7,1.5,18.8,0.1c3.9-0.9,7-3.2,10-5.9c0.4-0.4,0.7-0.7,1.1-1.1c0.7-0.8,1.4-1.7,2.1-2.5c0.1-0.2,0.3-0.3,0.4-0.5
		c0-0.4,0-0.7,0-1.1c0,0,0,0,0-0.1c0-0.2,0-0.3,0-0.5c0-0.1,0-0.1,0-0.2c0-0.2,0-0.5,0-0.8c0-0.1,0-0.2,0-0.3c0-0.2,0-0.2,0-0.4
		s0-0.3,0.1-0.5c0-0.1,0-0.2,0-0.3c0-0.2,0-0.3,0.1-0.5c0-0.1,0-0.2,0-0.2c0-0.2,0.1-0.5,0.1-0.7c0-0.1,0-0.1,0-0.2
		c0-0.2,0.1-0.4,0.1-0.6c0-0.1,0-0.2,0.1-0.2c0.1-0.2,0.1-0.5,0.1-0.7c0,0,0,0,0-0.1c0.1-0.2,0.1-0.5,0.1-0.7c0-0.1,0-0.2,0.1-0.2
		c0.1-0.2,0.1-0.5,0.2-0.7c0.9-2.4,2.2-4.6,3.5-6.7c0.2-1.1,0.5-2.1,0.7-3.2c0.1-0.8,0.4-1.8,0.5-2.6v0.1V687c0-0.1,0-0.1,0-0.2
		c0,0.1,0,0.1,0,0.2c0.1-0.2,0.1-0.5,0.1-0.7s0.1-0.2,0.1-0.4s0-0.2,0-0.4c-0.1-0.5-0.1-1.1-0.2-1.6c0-0.1,0-0.1,0-0.2
		c-0.1-0.3-0.1-0.5-0.2-0.8c-0.1-0.5-0.2-0.9-0.4-1.4l0,0c0.8-1.6,1.7-3.2,2.8-4.7c1-1.3,2.1-2.5,3.3-3.6c0.6-0.5,1.2-1,1.9-1.5
		c0.3-0.2,0.7-0.4,1-0.6c0.4-0.2,0.7-0.4,1.1-0.5c4.6-2.2,9.4-2.1,14.2-0.8c0.1,0,1.1,0.3,1.1,0.3l-0.9-0.7l-1.9-1.4l-1-0.8
		c-0.7-0.5-1.3-1-2-1.5c-2.7-1.9-5.6-3.6-8.8-4.8c-1.5-0.5-3.2-1-4.9-1.2c-0.8-0.1-1.5-0.2-2.3-0.2c0.1-0.2,0.1-0.2,0.2-0.4
		c0.5-0.6,1.1-1.2,1.6-1.8c0.1-0.2,0.3-0.3,0.5-0.5l0.1-0.1c0.5-0.5,1-0.9,1.5-1.4c0.1-0.1,0.1-0.2,0.1-0.2l0,0
		c9.2-7,21.4-4,29.2,3.6c6.3,6.3,10,14.6,13.7,22.7c0.4,0.8,0.8,1.6,1.4,2.2c1.7,1.4,4.2,0.5,6.3,1l0,0
		C308.2,660.7,287.4,641.2,264.1,631.2z M254.7,626.6c0.1,0,0.1,0.1,0.1,0.1l0,0C254.9,626.7,254.8,626.7,254.7,626.6z"/>
</g>
</svg>
