<?xml version="1.0" encoding="utf-8"?>
<!-- Generator: Adobe Illustrator 24.0.1, SVG Export Plug-In . SVG Version: 6.00 Build 0)  -->
<svg version="1.1" id="Layer_4_xA0_Image_1_" xmlns="http://www.w3.org/2000/svg" xmlns:xlink="http://www.w3.org/1999/xlink"
	 x="0px" y="0px" viewBox="0 0 990 781.2" style="enable-background:new 0 0 990 781.2;" xml:space="preserve">
<style type="text/css">
	.st0{fill:#D9792F;}
	.st1{fill:#FFFFFF;}
	.st2{fill:#545459;}
	.st3{fill:#FF584F;}
</style>
<g>
	<path class="st0" d="M796.2,451.1c-1.1-0.5-2.2-1-3.5-1.5c-4.9-2.2-9-5.5-11.4-10.5c-0.2-0.3-0.4-0.6-0.6-1c-0.4-0.6-1-0.8-1.7-0.6
		c-1.4,0.2-2.7,0.6-4.2,0.9c-6.8,0.9-13.6,1-20.3-0.8c-4.9-1.3-9.3-3.5-13.9-5.6c-7.6-3.5-14.1-8.5-20-14.2
		c-3.3-3.1-6.1-6.6-8.4-10.5c-4.8-8.1-9.1-16.4-11.5-25.6c-0.6-2.2-1.4-4.4-2.2-6.6c-1.5-4.3-2.5-8.7-3-13.1
		c-1-7.2-1.8-14.5-1.5-21.9c0-0.2,0-0.5,0-0.8c0.1-0.9-0.2-1.5-1-1.9c-0.6-0.2-1.1-0.6-1.8-0.8c-4.7-2.1-8.4-5.3-11.6-9.3
		c-1.4-1.7-2.7-3.4-4.2-5.1c-1.4-1.6-2.9-2.9-4.7-3.9c-3.3-1.7-6.7-3.4-9.9-5.2c-2.6-1.5-5.3-1.9-8.2-1.6c-3.9,0.3-7.6,1.3-10.5,4.1
		c-1.9,1.9-4.4,2.8-7,2.9c-4.4,0.1-8.7-0.7-12.8-2.6c-1.5-0.6-2.7-1.6-3.6-2.8c-1.6-2-3-4.1-4.6-6.2c-0.4-0.6-0.3-1.2,0.3-1.6
		c3.4-2.2,3.8-6.3,6-9.2c0.1-0.2,0.1-0.6,0-0.7c-0.2-0.2-0.7-0.4-1-0.4c-1.5,0.2-2.9,1-4.5,0.7c-4.7-0.9-9.4-1.6-14.1-2.6
		c-3.7-0.7-6.6-2.8-8.4-6.2c-0.4-0.6-0.7-1.4-1.1-2c-3.3-6.4-7.3-12.4-11.9-18c-3-3.8-6.7-7.1-10.9-9.6c3.9,5.5,7.2,11.3,9.7,17.6
		c0.6,1.3,1,2.6,1.2,4c0.6,3.4,1.1,6.8,0.9,10.4c-0.4,5.6,1,10.7,4.2,15.3c1,1.5,1.6,3.1,1.9,5c0.8,4,1.8,8,3.7,11.7
		c2.7,5.3,4.9,10.8,7.6,16c2.4,4.9,4.2,9.9,5.4,15.2c2,8.8,3.5,17.6,4.1,26.6c0.7,12.7,0.2,25.4-2.2,37.9
		c-1.1,5.9-3.2,11.1-8.5,14.5c-1.6,1-3,2.5-3.9,4.2c-2.9,5-6.9,8.9-11.2,12.5c-0.2,0.2-0.4,0.3-0.6,0.5c2.2-0.2,4.5-0.6,6.8-1.1
		c3.9-0.9,7.6-2.2,11.2-3.9c1.9-0.9,3.6-2,5.2-3.2c1.9-1.5,3.8-3,5.5-4.7c2.7-2.7,5.2-5.7,7.3-9c0.5-0.7,1-1.5,1.5-2.2
		c3.5-5,5.5-10.6,6.8-16.6c2.4-10.4,4.6-20.8,8.2-30.9c1.5-4.1,3.2-8.1,5.6-11.8c3.1-4.7,7.6-7.6,13.2-8.5c4.5-0.7,8.9,2,10.1,6.4
		c0.7,2.6,0.6,5.4-0.4,8c-1,2.7-4.2,4.8-7.2,2.9c-1.8-1.2-3-0.6-4.4,0.6c-1.8,1.6-3,3.5-3.6,5.8c-1.4,5.6-2.7,11.2-4,16.9
		c-1.2,5.1-2,10.4-4,15.3c-2.1,5.1-2.9,10.3-3.6,15.7c-1,6.8-2,13.5-3.4,20.2c-2.1,10.2-6,19.6-11.8,28.3c-1.2,1.8-2.4,3.6-3.5,5.5
		c-3,5.3-7,9.8-11.6,13.9c-0.1,0.1-0.2,0.2-0.3,0.2c3.7-0.6,7.4-1,10.8-2.8c1.7-0.9,3.5-1.8,5.1-2.6c6.9-3.5,11.9-8.8,15-15.9
		c1-2.1,1.6-4.3,2.4-6.5c0.5-1.4,0.8-1.6,2.2-1.5c2.5,0.1,4.8,0.5,7.1,1.5c1.8,0.9,3.7,1.8,5.6,2.4c7.7,2.4,14.1,6.7,19.5,12.6
		c0.3,0.4,0.7,0.7,1.1,1c3,2.7,5.4,5.9,6.9,9.6c0.8,2.1,2,3.9,3.2,5.8c-0.2-2.1,0.5-4.1,2-6c2.3-2.7,5.4-3.2,8.8-2.2
		c1.8,0.6,3.5,1.6,5.1,2.7c2.2,1.6,4.7,2.5,7.5,3c5.3,0.9,10.5,2.2,15.8,3.7c6.8,2,13.9,2.4,21,2.1c0.9,0,1.8,0.1,2.6-0.5
		c0.2-0.8-0.4-1.2-0.8-1.6c-3.5-3.8-6.3-8.1-8.5-12.8c-2.3-4.7-3.9-9.8-6.8-14.3c-0.1-0.1-0.1-0.2-0.2-0.3c-1.3-3.3-0.2-6.8,2.8-8.8
		c1.5-1,3-1.4,4.7-1.5c2.7-0.2,5.4,0,8,0.4c6.3,1,12.8,1.3,19.2,1.5c3.6,0.1,7.2-0.5,10.5-1.9c6.9-2.9,13.6-6.2,19.8-10.4
		C795.5,452.5,796.4,452.2,796.2,451.1z M688.7,391.1c-1.4,6-5.2,10.2-10.9,12.6c-3,1.3-6.3,1.5-9.4,0.2c-5.1-1.9-6.7-7.7-3.2-12
		c1-1.3,2.5-2.2,3.9-3c1.1-0.6,2.3-1.1,3.4-1.9c3-2,5.1-4.7,6.2-8.2c2.2-6.6,2.5-13.3,0.6-20.1c-0.5-1.8-1.2-3.4-2.2-4.9
		c-0.3-0.6-0.7-1.1-1-1.7c-0.3-0.8,0.2-1.9,1-2.2c1.3-0.5,2.5-0.2,3.6,0.6c1.3,0.9,2.2,2.1,3.1,3.4c3.9,5.6,5.7,12,6.3,18.7
		c0.1,1.3,0,2.6,0,3.7C690.9,381.5,689.8,386.3,688.7,391.1z"/>
	<path class="st0" d="M425.6,447c-1-1.4-1.9-2.8-2.8-4.1s-1.5-2.6-0.9-4.3c0.5-1.4,0.6-2.7,0.3-4.2c-0.5-3.2-1.1-6.3-2.5-9.2
		c-1.1-2.5-2.5-4.7-3.9-7.1c-3.5-5.4-6.4-11.1-8-17.4c-1-4.1-1.4-8,0.7-12c1.2-2.2,1.1-4.7,0.2-7.1c-0.4-1-0.9-2.2-1.2-3.2
		c-2.9-7.9-4.7-16-4.3-24.5c0.3-5.6,1-11.2,1.9-16.8c1.2-7.6,3.4-15,5.2-22.5c0.3-1.4,0.9-2.6,1.9-3.7c1.7-1.9,2.7-4.1,3-6.5
		c0.5-3.2,0.3-6.5-0.6-9.6c-0.6,2.6-1.5,5.1-2.3,7.6c-0.6,1.6-1.7,2.9-3.1,3.7c-1,0.6-2,1.2-3,1.6c-4,1.7-8,3.5-12.1,5.1
		c-2.7,1.1-5.6,1.7-8.6,1.9c-5,0.4-10,0.4-15-0.1c-1.8-0.2-3.2-0.6-4.7-1.6c-1.1-0.8-2.3-1.6-3.5-2.3c-0.2-0.1-0.6-0.2-0.7-0.1
		c-0.4,0.2-0.4,0.6-0.2,1c1,2.2,2.2,4.3,3.1,6.6c1,2.7,2.4,5.1,4.7,6.8c0.2,0.1,0.1,0.5,0.2,0.7c-0.6,0-1.3,0.1-1.9,0
		c-6.9-0.6-13.9-0.4-20.8,0.3c-3,0.3-6.1,1-8.8,2.6c-1.5,0.9-3,1.4-4.7,1.7c-1.1,0.2-1.9,0.7-2.2,1.9c-0.9,3-2,6.1-2.7,9.2
		c-1.4,6-2.2,12.1-0.2,18.2c0.6,1.9,1.3,3.6,1.9,5.5c1.7,4.6,3.5,9.1,5.1,13.8c2.5,7.1,4.8,14.4,5.5,22c0.3,3.7,1,7.4,1.6,11.1
		c0.9,5.7,1.5,11.5,0.6,17.3c-1.6,10.4-4.9,20.3-10.2,29.3c-3.5,6-7.9,11.4-13.4,15.8c-6.4,5-13.4,8.5-20.9,11.5
		c-2.2,0.9-4.4,1.5-6.7,1.9c-5.7,1-11.2,0.9-16.6-1.7c-6.4-3-12.1-6.8-17-11.8c-0.7-0.7-1.4-1.5-2.2-2.5c-2.2,2.8-4.7,4.7-6.4,7.6
		c-1.1,1.9-2.6,3.5-4.3,4.9c-3.7,3-7.7,5.5-12.3,7.1c-0.8,0.2-1.8,0.3-2.3,1c0.1,0.2,0.1,0.3,0.2,0.4c5.7,3.6,11.7,6.4,18.4,7.6
		c6.6,1.2,13.3,1.6,19.9,1.5c3.2-0.1,6.4-0.6,9.4-1.9c2.3-1,4.7-2.2,7-3.2c5.1-2.4,10.4,1.4,10,7.2c-0.1,1.7-0.6,3.3-1.4,4.8
		c-1.1,2.6-2.3,5.1-3.5,7.7c-2,4.3-3.5,8.8-4.7,13.4c-1.7,6.8-2.2,13.7-2.3,20.7c0,0.9,0,1.8,0.2,2.7c0.1,0.8-0.2,1.8,0.7,2.4
		c1.1-0.5,1.4-1.5,1.9-2.3c2.4-3.8,4.9-7.6,7.9-10.9c5.1-5.6,10-11.4,15.3-16.8c4.8-4.8,9.6-9.7,14.1-14.7c0.1-0.1,0.2-0.2,0.2-0.2
		c1.5-1.2,2.2-2.7,2.6-4.5c1.3-4.9,3.5-9.4,6.1-13.7c0.9-1.5,1.9-2.8,3.3-3.7c0.8-0.5,1.7-0.6,2.5-0.1c0.2,0.2,0.3,0.3,0.4,0.5
		c0.1-0.2,0.2-0.4,0.3-0.6c0.1-0.1,0.1-0.2,0.2-0.3c0.3-0.2,0.7-0.4,1-0.3c1,0.4,1.9,0.9,2.7,1.4c2.6,1.5,5.3,3,8,4.6
		c4.2,2.4,8.7,3,13.4,2.4c1.9-0.2,3.8-0.7,5.6-1.2c2.6-0.6,4.9-1.7,6.6-3.7c1.3-1.5,2.5-1.4,4.1-0.7c2.3,1,4.7,1.9,7.1,2.7
		c4.1,1.5,8.2,1.1,11.9-1.1c2.1-1.2,4.2-1.9,6.5-2c1.1-0.1,2.2-0.3,3.3-0.6c-0.8-1.1-1.6-2.2-2.3-3.3c-0.8-1.1-1.7-1.7-3-2.1
		c-3-0.9-6.1-1.9-9.2-3c-3-1-5.6-2.5-8.2-4.3c-9.2-6.5-16.6-14.5-21.4-24.8c-3.2-7-6.3-14.1-9.1-21.3c-2.2-5.6-3.1-11.7-4-17.6
		c-1.3-8.3-1.9-16.6-1.5-25c0.1-1.1-0.1-2.3-0.2-3.5c0-0.4-0.9-0.7-1.2-0.4c-0.6,0.5-1.2,1-1.8,1.5c-0.6,0.6-1,1.5-1.7,2.2
		c-0.2,0.2-0.5,0.2-0.6,0.2c-0.2-0.1-0.5-0.3-0.5-0.5c-0.5-2.8,2.1-10.6,4-12.5c1.9-1.8,4.1-2.6,6.6-2.7c7-0.5,12.9,1.9,17.8,6.7
		c2,2,3.7,4.3,5.3,6.6c1.1,1.7,2.2,3.5,3.3,5.2c4.9,8.4,9.7,17,14.5,25.4c1.7,2.9,3.5,5.7,5.5,8.4c2.2,3,4.5,6,6.8,8.9
		c2.8,3.7,6,7.1,9.2,10.3c1.5,1.5,3.2,2.6,5,3.6c1.6,1,3.2,1.9,4.9,2.6c-0.7-0.7-1.3-1.5-1.9-2.2C426,447.6,425.8,447.3,425.6,447z"
		/>
	<path class="st0" d="M471.4,148.6c-1.9-3.6-2.7-7.5-2.2-11.6c0-1.8,0.1-3.6,0-5.4c-0.2-3.4-1.4-6.5-3.4-9.3
		c-3.7-5.1-7.7-10-12.9-13.7c-2.1-1.5-4.3-2.7-6.9-3.3c-5.7-1.5-11.2-0.5-16.7,0.9c-2.7,0.6-4.4,2.2-5.1,5.1
		c-0.8,3.5-2.7,4.6-6.2,4.1c-0.5-0.1-1-0.2-1.5-0.3c-1.5-0.4-2.8-0.2-4.2,0.2c-2.1,0.6-2.7,1.4-2.6,3.6c0.1,5.5,1.6,10.4,6,14.1
		c1.5,1.2,3,2.4,4.5,3.6c1.8,1.4,3.7,2.2,6,2.6c2.3,0.4,4.3,1.5,6.4,2.6c2.2,1,4.8,0.2,7.1,1.4c0.9,0.5,1.9,0.9,2.8,1.3
		c2.2,1.1,4.6,2.3,6.8,3.5c2.7,1.4,5.5,2.9,7.9,4.8c2.8,2.3,6.2,2.9,9.6,3.4c1.1,0.2,2.3,0,3.4-0.5c1.8-0.8,2.6-2.1,2.3-3.9
		C472.1,150.8,471.8,149.7,471.4,148.6z"/>
	<path class="st0" d="M576.2,136.2c0.4-1.6,0.6-3.3,0.8-4.9c0.2-3.1,1.3-5.7,3.2-8.1c1.8-2.3,3.3-4.9,4.9-7.4
		c2.3-3.7,1.8-7.3,0.1-11c-0.8-1.7-2.1-3-3.9-3.5c-1.6-0.5-3.2-0.9-4.8-1.4c-2.2-0.7-4.3-0.4-6.3,0.4c-5.1,2.1-9.9,4.9-14.2,8.5
		c-1.6,1.4-3,2.9-3.9,4.7c-1.4,3.1-3.5,5-7,5.9c-4.3,1.2-7.4,4.3-8.1,8.9c-0.4,2.6-1,5-1.8,7.4c-1.2,3.3-1.8,6.7-2,9.5
		c0,5.3,1.5,9.1,4.7,12.5c3.7,3.9,7.9,5,12.9,3.2c4.9-1.8,9.2-4.5,13-8c2.7-2.4,5.1-5.1,7.6-7.6C574,142.8,575.4,139.7,576.2,136.2z
		"/>
</g>
<g>
	<path class="st1" d="M410.5,275.3C410.5,275.3,410.5,275.4,410.5,275.3C410.5,275.4,410.5,275.4,410.5,275.3
		C410.6,275.3,410.6,275.3,410.5,275.3L410.5,275.3z"/>
	<path class="st1" d="M410.6,275.4C410.7,275.5,410.7,275.3,410.6,275.4C410.6,275.3,410.6,275.3,410.6,275.4L410.6,275.4z"/>
	<path class="st1" d="M682.2,632.2l0.3-0.3c0-0.7,0-1.5-0.1-2.2c-0.2-2.4-0.4-4.9-0.5-7.3c-0.1-1.8-0.2-3.6,0.1-5.4
		c0.7-7.2,5.5-12.4,12.5-14c1.6-0.4,3.3-0.5,5-0.7c5.2-0.7,10.5-0.5,15.8-1.5c1.8-0.3,3.5-0.6,5.1-1c5.2-3,10.6-5.5,16.2-7.8
		c0.5-0.2,1-0.4,1.5-0.6l1.5-0.6l2.9-1c0.5-0.2,1-0.3,1.4-0.5c2.2-1.7,4.6-3.6,7.3-6c-0.6-1.2-1.9-1.7-3-2.4
		c-10-6.9-17.9-15.8-23.2-26.8c-1.8-3.9-3.5-7.7-4.7-11.8c-0.6-2.3-2-3.8-4.2-4.7s-4.5-1.8-6.7-3c-0.6-0.4-1.2-1-2.2-0.7
		c-1,2.5-2,5.1-3.2,7.7c-1.3,2.7-2.8,5.2-4.1,7.9c-3.8,8-9.4,14.7-15.1,21.4c-0.3,0.3-0.6,0.6-0.9,1c0.2,1,0.6,1.9,1,2.8
		c1.4,3,2,6.1,2.3,9.3c0.1,0.6,0.2,1.3,0.2,1.9c0.1,3.5-1.5,6.3-4.4,7.5c-3,1.3-6.4,0.6-8.8-2.1c-3.1-3.7-6.8-7.1-9.2-11.4
		c-0.1-0.2-0.3-0.3-0.8-0.7c-1.2,2-2.2,3.8-3.3,5.5c-4.7,7.5-10.8,13.8-18.5,18.2c-1.5,0.9-3,1.9-4.3,3.1
		c-6.4,5.6-14.2,8.2-22.3,9.7c-1.8,0.3-3.6,0.2-5.3-0.6c-2.7-1.3-4.2-3.4-4.4-6.3c-0.2-1.9,0.2-3.9,0.9-5.6c2.8-7.8,3.9-15.9,5.5-24
		c0.1-0.5,0-1,0-1.5c-0.9-0.2-1.1,0.5-1.5,0.9c-2.5,3.5-4.9,7.2-7.5,10.8c-8.8,11.8-19.2,22.1-32,29.7c-5,3-10,5.9-15,8.7
		c-3.1,1.8-6.3,3.4-9.7,4.6c-0.9,0.3-1.7,0.6-2.6,0.9c-6,1.8-10.8-3.6-9.1-9c0.4-1.2,0.8-2.4,1.4-3.6c0.6-1.4,1.4-2.7,2.2-4
		c3.5-5.5,4.3-11.4,3.6-17.8c-0.2-2-0.3-4-0.6-6c-2.2,3-4.9,5.2-8.1,7.1c-2.2,1.2-4.5,2.4-6.8,3.5c-3.3,1.5-6.8,2.5-10.3,3
		c-5.2,0.9-10.5,0.6-15.8,0.5c-2.6-0.1-5.1-0.6-7.6-1.3c-1.3-0.4-2.5-0.8-3.8-1.2c-0.6,0.2-1.4,0.4-2,0.5c-3.8,0.7-7.6,1.5-11.4,1.7
		c-1.3,0.1-1.6,0.3-1.6,1.6c-0.1,3.5,0,6.9,0.7,10.4c1.3,6.1,3.2,11.9,6.2,17.4c1.7,3,3.7,5.5,6.8,7.2c0.5,0.2,0.9,0.5,1.3,0.9
		c1.3,1.2,1,3.6-0.6,4.2c-2.8,1-5.6,1.9-8.5,2.2c-3,0.3-6.1,0.6-9.2,1.2c-5.5,1-11,0.6-16.2-1.7c-2.5-1-5-2.1-7.3-3.5
		c-2.3-1.5-4.7-2.6-7.2-3.6c-13.5-5.9-25.4-14-35-25.2c-0.6-0.6-1.2-1.4-1.8-2c-0.3-0.4-1-0.2-1.2,0.3c-0.6,2.2-1,4.5-1,6.8
		c0,3.4,0,6.7-0.1,10c0,1.1,0,2.3-0.4,3.5c-0.7,1.9-2.2,3.1-4,3c-1.9,0-3.1-0.9-3.9-2.6c-0.2-0.3-0.3-0.7-0.4-1
		c-0.8-4.1-2.6-7.7-4.1-11.6c-1.8-4.7-3.3-9.4-4.1-14.4c-0.6-4.3-0.7-8.4-0.1-12.6c0.2-0.7,0.2-1.5,0.2-2.3c0.1-0.7-0.2-1.2-1-1.5
		c-4.9-1.6-9.5-4-14.1-6c-3-1.3-6.2-1.5-9.4-2.2c-1.4-0.2-2.8-0.4-4.2-0.6c-3.4-0.5-6.7,0-9.8,1.1c-2.9,1-5.2,2.7-7.1,5.1
		c-3.5,4.6-6.8,9.3-9.8,14.3c-1.1,1.8-2,3.9-3,5.9c-1.3,2.7-3,5.1-5.2,7.1c-5.1,4.5-11.2,12.1-16.2,7.6c-2.5-2.2-7.3-7.4-8.8-10.5
		c-2.6-5.2-4.3-13.7-5.4-19.4c-0.5-2.5-1-5.9-2-8.8c-2,3.5-3.5,7.4-4.1,11.7c-0.1,0.4-0.2,0.7-0.3,1.1c-0.8,2-0.6,3.9,0.2,6
		c1.5,3.4,2.9,6.8,4.4,10.1c0.3,0.3,0.6,0.6,1,0.9l1.1,1l0.6,0.5l0.6,0.6c1.5,1.5,3,2.8,4.4,4.3c0.7,0.7,1.5,1.5,2.2,2.2l2.1,2.2
		c0.3,0.4,0.7,0.7,1,1.1l1,1.1l2,2.3c1.3,1.6,2.6,3.1,3.9,4.7c2.3,3,4.6,6,6.8,9c1.1,0.6,2.2,1.2,3.4,1.7c2.8,1.3,5.6,2.6,8.3,4.1
		c5.8,3.1,8.3,8.3,7.4,14.8c-0.2,1.3-0.5,2.6-0.9,3.9c0.9,0.7,1.8,1.5,2.7,2.1c0.2,0.2,0.6,0.3,0.8,0.5h212.2
		c2.2-1.5,4.6-2.9,6.8-4.4c4.2-2.7,8.1-5.7,11.7-9.4c4.3-4.5,9.3-8.4,15-11.3c2.4-1.3,4.9-2.2,7.6-2.9c4-0.9,7.9-2.1,11.7-3.6
		c2-0.8,4.2-1.1,6.3-1.7c2.8-0.7,5.7-1.4,8.4-2.7c2.8-1.3,5.3-3,7.6-5.1c0.6-0.6,1.3-1.2,2.2-1.5c1.9-0.6,3.7,0.6,3.7,2.7
		c0,0.9-0.2,1.8-0.4,2.7c-0.7,2.7-1.8,5.1-3,7.5c-2.2,3.9-4.6,7.5-7.3,10.8c-5.1,6.3-10.2,12.5-15,19h23.2c0.8-3.9,1.8-7.9,3-11.7
		c2-6.3,6.1-9.2,12.8-8.8c1.3,0.1,2.6,0.2,3.9,0.4c4.1,0.5,8.1,1.1,12.3,1.3c2.7,0.1,5.1-0.3,7.6-1.2c0,0,0,0,0-0.1
		c0.6-1,1.4-2,2.1-3c0.1-0.1,0.1-0.2,0.2-0.2c3-4.3,6.1-8.6,9.4-12.8C679.5,635.3,680.9,633.8,682.2,632.2z"/>
	<path class="st1" d="M340.2,526.8c2.7,4.7,5.9,9.1,9.5,13.1c2.7,3.1,6,5.7,9.6,7.7c3.7,2.1,7.5,4,11.2,6c3.9,2.1,8,3.5,12.2,4.7
		c0.6,0.2,1.2,0.6,1.9,0c0.1-1-0.5-1.9-0.8-2.9c-1.9-5.7-4.1-11.3-5.5-17.2c-0.6-2.4-1.1-4.7-1.9-7.1c-2.1-6.2-2.8-12.5-3-19
		c0-0.6,0-1.3,0.1-1.9c0.2-1.3,1-2.1,2.1-2.5c1-0.4,2.1-0.1,2.8,0.7c0.8,0.8,1.5,1.8,2.1,2.7c1.5,2.7,3.5,5.1,5.5,7.5
		c2.1,2.3,3.9,4.8,5.3,7.6c2.6,4.9,6,9.3,9.6,13.5c4.3,5,8.7,9.8,13.1,14.6c2.3,2.6,4.7,5.1,7.2,7.5c1.4,1.4,2.9,2.6,4.3,3.8
		c0.6,0.6,1.1,0.3,1.5-0.5c0.1-0.2,0.1-0.2,0.1-0.4c0.9-5.7,3.8-10.6,6.4-15.7c0.6-1.3,1.5-2.4,2.4-3.5c2.1-2.4,4.7-2.7,7.1-0.7
		c1,0.8,1.9,1.8,2.7,2.7c1.2,1.5,2.1,3.2,2.8,5.1c1.5,3.5,3.5,6.5,6.9,8.5c2.6,1.6,5.1,3.5,7.6,5.2c6.6,4.3,13.4,8,20.7,11.2
		c6.1,2.7,12.5,3.7,19.1,4.2c8.1,0.6,16.2,0.2,24.1-1.6c4-0.9,7.4-2.7,10.4-5.5c4.4-4.2,8.4-8.8,11.7-13.8c2.6-3.9,5.5-7.5,8.9-10.6
		c1.5-1.3,2.9-2.6,4-4.1c1.2-1.7,2.7-3,4.3-4.3c0.8-0.6,1.7-1.2,2.7-1.6c2.5-1,5.4-0.5,6.6,1.6c1.6,2.9,3.1,5.9,1.5,9.4
		c-1.5,3.2-2.7,6.7-3.9,10c-2.1,5.3-3.2,10.8-4.3,16.4c-0.2,0.7,0.5,1.1,1.2,0.9c1.3-0.5,2.7-1,3.9-1.7c1.8-1,3.5-2.1,5.3-3.2
		c3-1.8,5.4-4.3,7.4-7.2c5.7-8.5,10.8-17.5,15.6-26.6c1-2,2-4.3,3.6-5.9c2-2.1,3.4-4.6,4.3-7.2c2.7-7.8,8.2-13.6,13.3-19.6
		c0.9-1,2.2-1.9,3.4-2.6c2.2-1.3,4.7-1.8,7.4-1.4c2.3,0.4,4.5,1.1,6.5,2.3c4.1,2.4,7.4,5.6,9.6,9.8c0.9,1.7,2.1,2.8,3.7,3.7
		c2.7,1.5,5.4,3,8,4.7c7.6,5.1,14,11.2,18,19.7c0.2,0.5,0.4,1,1,1.1c0.6-0.1,0.8-0.6,1-1c2.7-5.3,4.8-10.8,5.6-16.7
		c1.2-8.4,1.5-16.6-3-24.4c-0.5-0.9-0.8-1.8-1-2.7c-1.2-1.9-2.3-3.8-3.2-5.8c-1.5-3.8-3.9-6.9-6.9-9.6c-0.4-0.3-0.7-0.7-1.1-1
		c-5.4-6-11.8-10.2-19.5-12.6c-1.9-0.6-3.8-1.5-5.6-2.4c-2.2-1-4.7-1.5-7.1-1.5c-1.5,0-1.8,0.2-2.2,1.5c-0.8,2.2-1.5,4.3-2.4,6.5
		c-3.1,7.1-8.1,12.4-15,15.9c-1.7,0.9-3.5,1.7-5.1,2.6c-3.4,1.9-7.2,2.2-10.8,2.8c-3.5,3.1-7.1,6.3-10.7,9.4c-1,1-2.1,1.9-3.3,2.6
		c-6.5,4.1-12.7,8.8-19.8,11.8c-2,0.9-3.7,2.5-5.7,3.2c-3.5,1.1-5.9,3.3-8,6.1c-2.7,3.5-6.3,6-10.1,8.2c-1.8,1.1-3.7,2.2-5.5,3.5
		c-3.6,2.4-7.6,3.7-11.7,4.8c-13.4,3.8-26.9,3.9-40.4,0.8c-5.1-1.1-10-3.1-14.8-5.5c-4.3-2.2-7.7-5.6-10.8-9.2
		c-3.5-4.1-6.9-8.3-9.2-13.3c-0.5-1-1.1-1.6-2.3-1.7c-4.3-0.2-8.3-1.8-12.2-3.2c-10.6-3.9-19.4-10.5-26.3-19.5
		c-1.2-1.6-2.4-3.2-3.5-4.8c-1,0.4-2.2,0.6-3.3,0.6c-2.3,0.2-4.4,0.8-6.5,2c-3.7,2.2-7.8,2.6-11.9,1.1c-2.4-0.8-4.8-1.8-7.1-2.7
		c-1.6-0.6-2.8-0.7-4.1,0.7c-1.8,2-4.1,3-6.6,3.7c-1.9,0.5-3.8,1-5.6,1.2c-4.7,0.7-9.2,0-13.4-2.4c-2.6-1.5-5.3-3.1-8-4.6
		c-0.9-0.5-1.8-1-2.7-1.4c-0.2-0.1-0.6,0.2-1,0.3c-0.1,0-0.2,0.2-0.2,0.3c-0.1,0.2-0.2,0.4-0.3,0.6c0.2,0.5,0.3,1,0.2,1.6
		c-0.6,3.5-1.2,7.1-1.9,10.6c-0.9,4.4-1,8.9-0.6,13.4C336.9,519,338,523.1,340.2,526.8z"/>
	<path class="st1" d="M600.8,203.5c2.3,1.5,7.2,0.1,8.4-2.5c0.1-0.2,0.2-0.5,0.2-0.7c0.2-1.9,0.1-3.9-1.2-5.5
		c-1.8-2.2-3.9-4.1-6.3-5.5c-0.8-0.5-1.5-0.4-2,0.3c-1.8,2-2.7,4.3-2.6,6.8C597.2,199.5,598.5,202,600.8,203.5z"/>
	<path class="st1" d="M412,272.3c-0.7,0.9-1.5,1.7-1.5,3c0,0,0,0,0.1,0c0.9-0.8,1.9-1.5,2.7-2.3c3.5-3,7.1-5.4,11.7-6.5
		c1.6-0.4,3.1-1.1,4.7-1.6c0.5-0.2,1-0.7,1.6,0.1c-2.2,2.3-4.3,4.7-6.6,7.1c-4.1,4.3-6.7,9.4-8.2,15.1c-0.6,2.2-1,4.5-1.6,6.8
		c-0.1,0.3-0.2,0.6-0.2,0.9c0.9,3,1,6.4,0.6,9.6c-0.4,2.4-1.4,4.7-3,6.5c-1,1.1-1.6,2.3-1.9,3.7c-1.9,7.5-4,14.9-5.2,22.5
		c-0.9,5.5-1.6,11.2-1.9,16.8c-0.5,8.5,1.4,16.6,4.3,24.5c0.4,1,0.8,2.2,1.2,3.2c0.9,2.4,1,4.9-0.2,7.1c-2.1,3.9-1.7,7.9-0.7,12
		c1.5,6.4,4.4,12.1,8,17.4c1.5,2.2,2.8,4.6,3.9,7.1c1.4,3,2,6.1,2.5,9.2c0.2,1.5,0.1,2.8-0.3,4.2c-0.6,1.7-0.1,3,0.9,4.3
		c1,1.4,1.9,2.8,2.8,4.1c0.2,0.3,0.4,0.6,0.6,0.9c0.6,0.8,1.2,1.5,1.9,2.2c1.7,0.8,3.4,1.5,5.1,2.2c0.4-0.2,0.7-0.3,1-0.6
		c0.2-0.2,0.5-0.4,0.7-0.7c1-1.2,2.2-2.1,3.3-3.2c1.9-2,3.1-4.3,3.5-7.1c0.4-3.5,1.8-6.7,3.9-9.5c0.3-0.4,0.9-0.6,1.3,0
		s0.7,1.4,1.1,2c1,1.5,2.2,2.9,3.6,3.9c2.2,1.6,4.5,2.2,7.2,1.5c1.6-0.5,3.2-0.7,4.9-1.1c1.1-0.2,1.5-1.3,0.6-1.9
		c-1.6-1.2-2.5-2.8-3-4.7c-0.4-1.5-1.4-2.7-2.1-4.1c-1-2-1.1-4.2-0.6-6.4c0.2-0.9,0.7-1.3,1.7-1.2c0.4,0.1,0.8,0.1,1.1,0.2
		c5.1,0.6,9.2-1.5,12.8-5.1c2.7-2.7,3.9-6.1,2.9-9.9c-0.5-2.1-1.2-4.2-1.9-6.3c-3.5-3-7.3-5.6-11.3-7.8c-5.5-3-10.5-6.9-15-11.4
		c-4.3-4.4-7.2-9.5-8.9-15.1c-1.2-1.4-2.2-2.9-3.4-4.3c-3.5-4.9-5.1-10.5-5.9-16.6c-0.8-7.1-0.9-14.4-0.4-21.5
		c0.2-2.3,0.2-4.7-0.2-6.9c-0.1-0.5-0.1-1-0.2-1.5c-0.9-3.4-0.9-3.4-0.3-5.5c0.3-1.2,0.6-2.5,0.9-3.8c1.1-5.9,4.2-10.7,8.4-14.8
		c10.5-10.3,22.8-17,36.8-20.7c6-1.5,12.1-2.6,18.2-2.4c1.3,0.1,2.6,0,3.9-0.2c3.6-0.5,7.1-0.2,10.8,0.2c8.3,1,16.6,2,24.8,3.2
		c5.2,0.7,10.1,2.7,15,4.7c2.2,0.9,3.9,2.4,5.6,4c2.6,2.5,5.1,5,7.7,7.5c3.2,3,5.7,6.6,7.7,10.5c1.5,2.9,3,5.7,4.4,8.5
		c3.5,7.2,5.4,15,6.3,22.9c1.3,12.1-0.6,23.8-4.2,35.3c-1.8,5.9-5.4,10.8-9.3,15.4c-1.9,2.2-4.6,3.8-7.7,3.9c-0.6,0-1,0.1-1.6,0.1
		c-0.8,1.3-1.7,2.5-2.7,3.7c-1.3,1.8-2.7,3.5-4.1,5.1c-3.5,3.9-7.3,7.4-11.7,10.1c0.1,1.2,0.5,2.3,1.2,3.4c2,2.6,1.7,5.5,1.2,8.4
		c-0.2,1.4-0.5,2.8-0.5,4.2c-0.1,4.4,1.7,8,5.5,10.4c0.6,0.3,1.2,0.5,1.5,1.4c-0.9,1.8-2.3,3.5-2.7,5.6c1.5,1.4,3,2.6,4.6,4.1
		c1.2,1.1,2.5,1.2,3.9,0.5c1.2-0.6,2.2-1.3,3-2.2c0.7-0.7,1.4-1.5,2-2.2c1-0.2,1.4,0.7,1.8,1.2c2.3,2.4,5.1,4.4,8,5.9
		c3.2,1.6,4.8,4,5.5,7.4c0,0.1,0,0.1,0,0.2c1.4,0,2.7-0.1,4-0.2c0.8,0,1.6-0.1,2.4-0.2c0.2-0.2,0.5-0.3,0.6-0.5
		c4.3-3.6,8.4-7.6,11.2-12.5c1-1.7,2.2-3.2,3.9-4.2c5.3-3.4,7.4-8.6,8.5-14.5c2.4-12.5,3-25.2,2.2-37.9c-0.6-9-2-17.8-4.1-26.6
		c-1.2-5.3-3-10.3-5.4-15.2c-2.7-5.3-4.9-10.8-7.6-16c-1.8-3.7-2.9-7.7-3.7-11.7c-0.3-1.8-0.9-3.5-1.9-5c-3.1-4.7-4.6-9.7-4.2-15.3
		c0.2-3.5-0.3-6.9-0.9-10.4c-0.2-1.4-0.6-2.7-1.2-4c-2.5-6.3-5.8-12.1-9.7-17.6c-0.5-0.2-0.9-0.5-1.4-0.7c-2.4-1.2-4.8-2.5-7.2-3.9
		c-2.7-1.5-5.5-2.2-8.4-2.1c-2.2,0.1-4.3,0-6.6,0.1c-2.9,0.1-5.5-0.5-8.3-1.4c-3.5-1.1-6.6-2.8-9.4-5.1c-1.6-1.3-3.2-2.6-4.8-3.9
		c-2.2-1.8-4-3.9-5.4-6.5c-2-3.6-3.4-7.5-3.7-11.7c-0.5-6.9-1-13.8-1.4-20.7c-0.2-2.3-0.2-4.6-0.6-6.9c-1-6.5-1.5-13-0.4-19.6
		c0.5-3.1,0.7-6.4,1-9.6c1-10.3,0.8-20.6-0.4-30.8c-0.4-3.7-0.5-7.5-1.3-11.1c-1.5-6.7-1.9-13.5-2.2-20.3
		c-0.2-5.8-0.4-11.6-0.6-17.4c-0.1-3-0.2-5.9-0.6-8.8c-0.5-2.8-0.2-5.6,0.1-8.4c0.1-0.9,0.3-1.8,0.3-2.7c0.2-8.5,2.2-16.8,4.3-25
		c0.5-2,1.1-3.9,1.5-6c0.6-3.2-1.1-5.1-4.4-5.1c-3,0-6,0-8.8,0c-6,0-12.1,0.1-18.1,0.1c-0.9,0-1.8,0.1-2.6,0.2
		c-0.3,0.1-0.8,0.4-0.8,0.6c-0.2,2.2-0.8,4.3,0.4,6.3c3.5,6.2,5,12.9,5.7,19.9c0.7,6.3,0.5,12.6,0.4,18.9c0,2,0.2,3.8,1.1,5.6
		c1.5,2.7,2.2,5.8,2.3,8.8c0.1,2.6,0.1,5.1,0.1,7.7c-0.1,2.7-0.2,5.4-0.2,8.1c-0.1,1.6,0.2,3.1,1,4.4c1.7,2.7,2.8,5.8,4,8.8
		c3.2,8,4.6,16.2,4,24.9c-0.6,10.2-2.1,20.2-5.1,30c-2.2,7.1-3.8,14.5-6.4,21.4s-4.3,14-5.8,21.1c-0.9,4.7-1.3,9.4-1,14.2
		c0.2,2.5,0.7,4.8,2.3,6.8c1.4,1.7,1.3,1.7,0.2,3.3c-1.1,1.8-2.5,3.3-4.1,4.5c-3.9,3-8.3,4-13,3.8c-3.5-0.2-6.9-0.3-10.4-0.4
		c-3.6-0.2-7.2,0.1-10.7,1s-7.1,1.4-10.3,3.2c-5.2,3-10,6.8-14.2,11.1C416.4,266.5,414.3,269.5,412,272.3z"/>
	<path class="st1" d="M581.3,208.8c3,6.5,7.2,11.8,14.3,14.2c3.9,1.3,7.6,1.3,11.3,0.1c2.2-0.6,4.4-1.6,6-3.2
		c2.2-2.2,4.3-4.8,5.7-7.7c0.7-1.4,1.5-2.7,1.5-4.3c-0.1-1.4-1.7-1.9-2.2-3.1c-0.3-0.6-0.6-1.1-1.5-1.3c-1,2.2-1.8,4.5-2.9,6.7
		c-1.8,3.9-5,6.1-9.3,6.4c-2.3,0.2-4.7,0.3-6.9-0.2c-5.9-1.5-10.6-4.5-12.2-10.9c-0.7-2.9-1.5-5.7-1.1-8.8c0.1-0.5,0.1-1-0.1-1.5
		c-0.1-0.3-0.4-0.6-0.6-0.8c-0.5-0.2-1-0.1-1.4,0.3c-0.4,0.5-0.7,1-0.9,1.7c-0.5,1.5-1.1,2.9-2.2,4c-0.9,1-0.7,1.9-0.2,2.8
		C579.9,204.9,580.4,206.9,581.3,208.8z"/>
	<path class="st1" d="M406.1,199.3c2.8,0.6,5.1,0,6.5-2.7c0.2-0.5,0.6-0.9,0.9-1.3c0.6-0.7,0.6-1.4-0.1-2c-1.6-1.5-2.9-3.3-3.8-5.3
		c-0.4-0.9-1.1-1.4-2.1-1.4c-0.8-0.1-1.5-0.2-2-0.2c-2.7,0-3.8,0.8-4.6,3.1c-0.6,1.8-0.5,3.5,0,5.3
		C401.7,197.4,403.4,198.8,406.1,199.3z"/>
	<path class="st1" d="M410.4,275.5L410.4,275.5C410.5,275.4,410.5,275.4,410.4,275.5L410.4,275.5z"/>
	<path class="st1" d="M384.6,212.7c1.6,3.5,3.5,6.4,6.8,8.6c3.3,2.3,6.8,3.6,9.8,3.8c4,0,6.4-0.8,9-3.1c6-5.1,9.6-11.7,10.8-19.4
		c0.2-1.1,0.1-2.3-0.1-3.5c-0.1-0.5-0.5-0.9-1-1s-1,0.2-1.3,0.6c-0.3,0.7-0.5,1.4-0.7,2.2c-0.7,2.7-1.5,5.5-3,7.9
		c-3.9,6.2-8.9,10.5-17,9.3c-1.9-0.3-3.5-1-4.9-2c-1.5-1.2-2.7-2.6-3.6-4.4c-1-1.9-1.8-3.9-2.3-6.1c-0.3-1.2-0.8-2.4-1.3-3.6
		c-0.3-0.8-1.2-0.9-1.9-0.3c-0.2,0.2-0.4,0.3-0.6,0.5c-1.1,0.9-1.5,1.8-1,3.3C383,207.9,383.6,210.3,384.6,212.7z"/>
	<path class="st1" d="M902.4,646.9c-2.4-4.7-5.2-9.2-8.5-13.2c-3.3-4.1-7.1-7.8-11.2-11.1c-4.1-3.2-8.5-6-13.3-8.4l0,0l-7-3.1
		c-0.7-0.6-1.5-1.3-2.2-2c-1.8-1.5-3.5-2.9-5.5-4c-8.2-4.6-17.4-7.2-26.7-8.7c-4.7-0.8-9.3-1.3-14-1.5c-3-0.2-6.2,0-9.2-0.5
		c-3.4-0.6-6.5-2-9.9-2.2c-1.3-0.1-2.7,0-3.9,0.2c-10.7,1.1-21.5,2.7-31.8,5.9c-5.2,1.6-10.3,3.5-15.2,6c-4.7,2.3-8.8,5.7-13.7,7.6
		c-1.2,0.5-2.3,1-3.5,1.5c-24.8,10.6-46.9,31.5-55.5,57.4l0,0c2.2-0.5,4.9,0.4,6.7-1.1c0.7-0.6,1.1-1.5,1.5-2.3
		c4-8.6,7.9-17.5,14.6-24.2c8.3-8.2,21.3-11.4,31.1-3.9V639c0.1,0.1,0.1,0.2,0.2,0.2c0.6,0.5,1.1,1,1.6,1.5l0.1,0.1
		c0.2,0.2,0.3,0.3,0.6,0.5c0.6,0.6,1.3,1.2,1.8,1.9c0.1,0.2,0.2,0.2,0.3,0.4c-0.8,0-1.7,0-2.5,0.2c-1.8,0.2-3.5,0.6-5.2,1.2
		c-3.4,1.2-6.4,3-9.3,5.1c-0.7,0.5-1.5,1-2.2,1.5l-1,0.8l-1.9,1.5l-1,0.8c0,0,1-0.2,1.2-0.3c5.1-1.4,10.3-1.4,15.1,0.9
		c0.4,0.2,0.8,0.4,1.1,0.6c0.4,0.2,0.7,0.4,1.1,0.6c0.7,0.5,1.4,1,2.1,1.6c1.3,1.1,2.5,2.5,3.5,3.9c1.1,1.6,2.1,3.3,3,5l0,0
		c-0.2,0.5-0.3,1-0.4,1.5c-0.1,0.3-0.2,0.6-0.2,0.9c0,0.1,0,0.1,0,0.2c-0.1,0.6-0.2,1.1-0.2,1.7c0,0.2,0,0.2,0,0.4s0.1,0.2,0.1,0.4
		c0.1,0.2,0.1,0.5,0.2,0.8c0-0.1,0-0.1,0-0.2c0,0.1,0,0.1,0,0.2v0.1v-0.1c0.2,1,0.4,1.8,0.6,2.8c0.2,1.1,0.5,2.2,0.7,3.4
		c1.4,2.3,2.8,4.6,3.7,7.2c0.1,0.2,0.2,0.5,0.2,0.7c0,0.1,0,0.2,0.1,0.2c0.1,0.2,0.2,0.5,0.2,0.7c0,0,0,0,0,0.1
		c0.1,0.2,0.1,0.5,0.2,0.7c0,0.1,0,0.2,0.1,0.2c0.1,0.2,0.1,0.4,0.1,0.6c0,0.1,0,0.1,0,0.2c0,0.2,0.1,0.5,0.1,0.7c0,0.1,0,0.2,0,0.2
		c0,0.2,0.1,0.3,0.1,0.6c0,0.1,0,0.2,0,0.3c0,0.2,0,0.4,0.1,0.6c0,0.2,0,0.2,0,0.4s0,0.2,0,0.4s0,0.6,0,0.8c0,0.1,0,0.1,0,0.2
		c0,0.2,0,0.4,0,0.6c0,0,0,0,0,0.1c0,0.4,0,0.8,0,1.1c0.2,0.2,0.3,0.4,0.4,0.6c0.7,0.9,1.5,1.8,2.2,2.7c0.4,0.4,0.8,0.8,1.1,1.1
		c3.1,2.7,6.4,5.3,10.6,6.3c6.5,1.5,13.3-0.6,20-0.1c1.3,0.1,2.7,0.3,3.9-0.2c2.3-1,3.7-4.6,4.9-6.7c1.8-3.1,3.4-6.4,4.7-9.9
		c2.4-6.4,3.9-13.3,4.4-20.2c0.8-10.8-1.1-21.9-5.5-31.9c-2.2-5-4.9-9.7-8-14.2c-3.2-4.4-6.8-8.5-10.8-12.1c-0.5-0.5-1-0.9-1.5-1.4
		l-2.7-2.2l-0.1-0.1c0,0-0.1,0,0,0h0.2l0.2,0.1l0.5,0.1l1,0.2l1.5,0.3l0.5,0.2l0.5,0.2l1,0.3c2.7,0.8,5.2,1.8,7.6,3.1
		c22.7,11.8,32.4,35.7,33.8,59.9c0,0.2,0,0.3,0,0.5c0,0.7,0.1,1.5,0,2.2c0,0.6,0,1.4-0.1,2s-0.1,1.3-0.2,1.9c0,0.1,0,0.2,0,0.2
		c-0.1,0.4-0.2,0.9-0.2,1.3c-0.1,0.3-0.2,0.9-0.2,1.2c-0.1,0.3-0.1,0.6-0.2,0.9c-0.6,4-2,8-3.3,11.8c-1.4,4.1-3.7,8-2,12.4
		c3.5,9.2,11.7,12,20.5,13.4c1.2,0.2,2.3,0.3,3.5,0.5c1.5,0.2,3,0.4,4.4,0.5c1.7,0.2,3.5,0.3,5.1,0.6c0.3,0,0.6,0.1,1,0.1
		s0.6,0.1,0.9,0.1c0.6,0,1.2,0,1.8,0c0-0.1,0-0.2,0-0.2c0.8-3.5,2.6-6.4,4.2-9.6c7.5-14.5,10.4-31.8,8-48.3
		c-2.2-15.3-10.8-29.5-21.5-40.4c-1-1-2.2-2.4-2-3.9c3.8,1,7.9,4.2,11.2,6.3c4.1,2.5,8,5.2,11.7,8.3c6.7,5.6,13,12.8,14.4,21.7
		c2.7,17,7.3,18.1,5.1,35.2c-0.6,4.6-3.4,8.7-4.3,13.3c-1.3,6.3-1.7,12.3-4,18.4c-0.2,0.4-0.4,0.7-0.5,1.1c-0.1,0.5-0.3,3.6-1.1,3.4
		c3,1,17.8,3.9,18.7-1.5l0.4-3l3.7-20.5c3.6-20.3,4.1-40.3-5.1-59.3c-1.9-4-5.4-11.7-8-14.1c0.3,0.3,0.6,0.6,0.9,0.9
		c5,4.7,9.7,9.2,13.4,15.2c4.3,6.9,8.1,14.6,11,22.3c0.2,0.6,0.4,1.2,0.6,1.8c0.8,2.5,1.5,5,2,7.5c1,5.1,1.5,10.1,1.6,15.3
		c-0.1,5.1-0.6,10.1-1.8,15.1c-0.3,1.5-0.7,3-1.2,4.5c0.5-0.1,0.9-0.2,1.3-0.4c1.3-0.6,2.3-1.5,3.3-2.4c0.9-1,1.6-2.1,2.2-3.3
		c0.6-1.2,1.1-2.4,1.5-3.7c0.2-0.6,0.4-1.3,0.6-1.9C912,681.6,910.4,662.8,902.4,646.9z M736.7,608.6L736.7,608.6
		c0.1-0.1,0.2-0.1,0.2-0.2C736.8,608.5,736.7,608.5,736.7,608.6z"/>
	<path class="st1" d="M259.4,613.2c-1.1-0.5-2.3-1-3.5-1.5c-4.8-1.9-9-5.3-13.7-7.6c-4.8-2.4-10-4.4-15.2-6
		c-10.4-3.1-21.1-4.7-31.8-5.9c-1.3-0.2-2.6-0.2-3.9-0.2c-3.4,0.2-6.5,1.8-9.9,2.2c-3.1,0.5-6.2,0.3-9.2,0.5
		c-4.7,0.2-9.3,0.8-14,1.5c-9.2,1.5-18.5,4.1-26.7,8.7c-2,1.1-3.9,2.5-5.6,4c-0.7,0.6-1.5,1.3-2.2,2l-7,3.1l0,0
		c-4.7,2.3-9.2,5.1-13.3,8.4c-4.1,3.3-7.9,7-11.2,11.1c-3.3,4.1-6.2,8.5-8.5,13.2c-8,15.9-9.7,34.7-5,51.8c0.2,0.6,0.3,1.3,0.6,1.9
		c0.4,1.3,1,2.5,1.5,3.7c0.6,1.2,1.4,2.3,2.2,3.3c0.9,1,2,1.8,3.3,2.4c0.4,0.2,0.9,0.3,1.3,0.4c-0.5-1.5-0.9-3-1.2-4.5
		c-1.1-4.9-1.7-10-1.8-15.1c0.1-5.1,0.6-10.2,1.6-15.3c0.6-2.5,1.2-5,2-7.5c0.2-0.6,0.4-1.2,0.6-1.8c2.9-7.6,6.7-15.3,11-22.3
		c3.7-6,8.4-10.4,13.4-15.2c0.3-0.3,0.6-0.6,0.9-0.9c-2.6,2.4-6,10-8,14.1c-9.2,18.9-8.6,39.1-5.1,59.3l3.7,20.5l0.4,3
		c0.7,5.4,15.6,2.4,18.7,1.5c-0.8,0.2-1-2.9-1.1-3.4c-0.1-0.4-0.3-0.8-0.5-1.1c-2.4-6.1-2.8-12.1-4-18.4c-0.9-4.5-3.7-8.7-4.3-13.3
		c-2.2-17.1,2.5-18.2,5.1-35.2c1.4-8.9,7.7-16.2,14.4-21.7c3.7-3,7.6-5.8,11.7-8.3c3.3-2.1,7.4-5.2,11.2-6.3c0.2,1.5-1,2.9-2,3.9
		c-10.7,10.9-19.4,25.1-21.5,40.4c-2.3,16.5,0.6,33.8,8,48.3c1.6,3,3.4,6.1,4.2,9.6c0,0.1,0,0.2,0,0.2c0.6,0,1.2,0,1.9,0
		c0.3,0,0.6-0.1,0.9-0.1s0.6-0.1,1-0.1c1.7-0.2,3.5-0.4,5.1-0.6c1.4-0.2,3-0.3,4.4-0.5c1.2-0.2,2.3-0.3,3.5-0.5
		c8.8-1.5,17-4.3,20.5-13.4c1.7-4.3-0.6-8.3-2-12.4c-1.3-3.9-2.6-7.8-3.3-11.8c-0.1-0.3-0.1-0.6-0.2-0.9s-0.2-0.9-0.2-1.2
		c-0.1-0.4-0.2-0.9-0.2-1.3c0-0.1,0-0.2,0-0.2c-0.1-0.6-0.1-1.3-0.2-1.9s-0.1-1.4-0.1-2c0-0.7,0-1.5,0-2.2c0-0.2,0-0.3,0-0.5
		c1.4-24.2,11.2-48.1,33.8-59.9c2.4-1.3,5-2.3,7.6-3.1l1-0.3l0.5-0.2l0.5-0.2l1.5-0.3l1-0.2l0.5-0.1l0.2-0.1h0.2l0,0l-0.1,0.1
		l-2.6,2.2c-0.5,0.5-1,0.9-1.5,1.4c-4,3.7-7.6,7.7-10.9,12.1c-3.2,4.4-5.9,9.2-8,14.2c-4.3,10-6.4,21.1-5.5,31.9
		c0.6,6.9,2,13.8,4.4,20.2c1.3,3.4,2.8,6.8,4.7,9.9c1.2,2.1,2.6,5.7,4.9,6.7c1.2,0.5,2.6,0.3,3.9,0.2c6.7-0.6,13.5,1.6,20,0.1
		c4.2-1,7.5-3.5,10.6-6.3c0.4-0.4,0.8-0.8,1.1-1.1c0.7-0.9,1.5-1.8,2.2-2.7c0.2-0.2,0.3-0.4,0.4-0.6c0-0.4,0-0.8,0-1.1
		c0,0,0,0,0-0.1c0-0.2,0-0.4,0-0.6c0-0.1,0-0.1,0-0.2c0-0.2,0-0.6,0-0.8s0-0.2,0-0.4s0-0.2,0-0.4s0-0.4,0.1-0.6c0-0.1,0-0.2,0-0.3
		c0-0.2,0-0.3,0.1-0.6c0-0.1,0-0.2,0-0.2c0-0.2,0.1-0.5,0.1-0.7c0-0.1,0-0.1,0-0.2c0-0.2,0.1-0.4,0.1-0.6c0-0.1,0-0.2,0.1-0.2
		c0.1-0.2,0.1-0.5,0.2-0.7c0,0,0,0,0-0.1c0.1-0.2,0.2-0.5,0.2-0.7c0-0.1,0-0.2,0.1-0.2c0.1-0.2,0.2-0.5,0.2-0.7
		c0.9-2.6,2.3-4.8,3.7-7.2c0.2-1.1,0.5-2.2,0.7-3.4c0.2-1,0.4-1.8,0.6-2.8v0.1v-0.1c0-0.1,0-0.1,0-0.2c0,0.1,0,0.1,0,0.2
		c0.1-0.2,0.1-0.5,0.2-0.8c0-0.2,0.1-0.2,0.1-0.4s0-0.2,0-0.4c-0.1-0.6-0.2-1.1-0.2-1.7c0-0.1,0-0.1,0-0.2c-0.1-0.3-0.2-0.6-0.2-0.9
		c-0.2-0.5-0.2-1-0.4-1.5l0,0c0.9-1.8,1.9-3.5,3-5c1-1.5,2.2-2.7,3.5-3.9c0.7-0.6,1.4-1.1,2.1-1.6c0.3-0.2,0.7-0.5,1.1-0.6
		c0.4-0.2,0.8-0.4,1.1-0.6c4.9-2.3,10-2.2,15.1-0.9c0.1,0,1.2,0.3,1.2,0.3l-1-0.8l-1.9-1.5l-1-0.8c-0.7-0.6-1.5-1-2.2-1.5
		c-2.9-2-6-3.9-9.3-5.1c-1.7-0.6-3.5-1-5.2-1.2c-0.8-0.1-1.7-0.2-2.5-0.2c0.1-0.2,0.2-0.2,0.3-0.4c0.5-0.7,1.1-1.4,1.8-1.9
		c0.2-0.2,0.3-0.3,0.6-0.5l0.1-0.1c0.5-0.5,1-1,1.6-1.5c0.1-0.1,0.1-0.2,0.2-0.2v0.1c9.8-7.6,22.8-4.3,31.1,3.9
		c6.8,6.7,10.6,15.6,14.6,24.2c0.4,0.8,0.8,1.7,1.5,2.3c1.8,1.5,4.4,0.6,6.7,1.1l0,0C306.3,644.8,284.1,623.9,259.4,613.2z
		 M249.4,608.4c0.1,0,0.1,0.1,0.2,0.1l0,0C249.5,608.5,249.4,608.5,249.4,608.4z"/>
</g>
<g>
	<path class="st2" d="M764.7,238.6L764.7,238.6C764.7,238.5,764.7,238.5,764.7,238.6C764.7,238.5,764.7,238.5,764.7,238.6z"/>
	<path class="st2" d="M784.7,415.5c0.6-0.3,1-0.7,1.5-1.2c2.8-2.9,5.4-6,7.2-9.5c0.6-1.3,1.1-2.6,1.6-3.9c0.2-0.6-0.2-1-0.7-1.1
		c-0.7-0.1-1.5,0-2.3,0c-4.2,0-8.1-1-11.8-3c-6.5-3.7-11.7-8.7-15.2-15.4c-1.6-3.1-2.8-6.4-3.9-9.6c-1.4-4.7-1.7-9.3-1-14.1
		c0.1-0.6,0.2-1.3,0.3-1.9s-0.2-1-0.7-1.2c-0.3-0.2-0.7-0.2-1.1-0.3c-7.2-0.8-13.3-3.9-18.4-8.8c-0.4-0.3-0.7-0.7-1.5-0.4
		c0.3,1.3,0.6,2.6,0.9,4c0.8,3.6,1.6,7.3,2.3,10.9c0.4,1.8,0.2,3.6-0.5,5.3s-2.3,2.5-4.1,2c-0.6-0.2-1.2-0.5-1.8-0.7
		c-4.3-2-7.2-5.4-9.1-9.6c-1.8-4-3.2-8.1-4.2-12.4c-2.7-11.6-3.6-23.3-2.7-35.2c0.3-4.5,0.6-9,0.5-13.5
		c-0.3-16.1,2.3-31.5,10.2-45.7c1.1-2,2.2-4.1,2.9-6.3c1.6-4.6,1-8.8-2.2-12.6c-1.1-1.3-2.2-2.6-3.1-3.9c-2.7-4-3.7-8.4-2.7-13.2
		c0.6-2.9,1.6-5.7,2.5-8.5c0.2-0.8,1-1.6,0.4-2.6c-1.4,0.2-2.2,1.2-3.2,1.9c-2.3,1.6-4.7,3.2-7.2,4.3c-1,0.5-2.2,0.9-3.3,0.9
		c-2.8-0.1-4-2.5-2.8-4.5c0.2-0.5,0.6-0.9,0.8-1.3c1.9-3.4,4.2-6.5,6.8-9.3c4.5-5,8.1-10.6,11.8-16.2c2.7-3.9,3.3-8,1.6-12.8
		c-3-8.5-6.8-16.6-12-24c-2-2.8-4-5.7-6.1-8.4c-5.9-7.9-13.3-13.8-22.3-18c-13.1-6-26.8-9.4-41.2-10.3c-0.1,0.6,0.2,0.9,0.6,1.1
		c1.5,1,3.2,1.5,5,2.1c4.1,1.3,7.9,3.1,11.4,5.6c11.8,8,21.2,18.1,28,30.7c5.9,10.9,7.3,22.4,5.8,34.3c-0.9,6.9-3,13.6-5.9,19.9
		c-1.8,4-1.8,7.7,0.2,11.7c4.5,8.6,7,17.9,8.6,27.5c0.7,4.4,1.1,8.9,1.8,13.3c1.6,11.5,2.3,23,2.2,34.6c-0.1,6.4-0.5,12.9-0.7,19.3
		c-0.5,11.7-0.2,23.4,1.9,35c1.8,10,4,19.9,7.7,29.4c4.4,11.5,10.2,22.1,18,31.8c3.6,4.5,7.7,8.6,12.2,12.2c4.8,3.9,10.3,6.4,16.5,7
		C771.5,421.4,778.3,419.2,784.7,415.5z"/>
	<path class="st2" d="M624.3,94.3c0.3,0.3,0.6,0.8,1.3,0.2c0-0.3,0-0.7-0.2-1c-1.5-4.7-0.6-9.2,1.1-13.5c0.4-0.9,0.9-1.1,1.8-0.8
		c3.7,1.4,7.5,1.8,11.3,0.8c2-0.6,3.9-1.3,5.8-2c6-2.2,11.9-4.7,18.3-5.6c1.9-0.2,3.8-0.6,5.6-1.2c1.8-0.5,3.5-0.6,5.3-0.6
		c2.3,0.1,4.5,0.6,6.8,1c0.1-1-0.9-1.2-1.5-1.4c-2-0.8-4.2-1.3-6.2-2.2c-4.7-2.2-9.7-2.6-14.7-1.8c-5,0.7-10,0.6-15,0.7
		c-3,0.1-5.8-0.8-8.4-2.5c-2.4-1.5-4.8-3-7.2-4.4c-1.5-0.9-2.9-1.6-4.6-1.8c-1.8-0.3-3.3,0.1-4.7,1.2c-2.7,2.2-4.5,5-5.2,8.4
		c-1.2,6.4-0.1,12.5,3.4,18.1C619.5,88.9,621.8,91.6,624.3,94.3z"/>
	<path class="st2" d="M681.9,71.5l-0.2,0.2h0.1L681.9,71.5z"/>
	<path class="st2" d="M755.9,166.6c0.3,3.2,1.1,6.3,2.2,9.3c0.8,2.2,2,4.2,3.7,5.8c4.1,3.9,6.3,8.7,7.4,14.1
		c1.7,8.3,1.8,16.6,1.2,24.9c-0.3,5.5-1.6,10.7-5,15.1c-0.6,0.7-0.9,1.5-0.6,2.4c0.4-0.4,0.7-0.9,1.2-1.2c3.5-3,7.1-5.9,10.9-8.5
		c3-2,5.2-4.6,6.7-7.8c1-1.9,1.7-4,2.5-6c0.4-1,0.7-2.2,1.1-3.3c1,0.4,1,1.2,1.3,1.9c3.3,12.1,3.8,24.6,3,37.1c-0.1,2-0.6,4.1-1,6.1
		c-0.4,2.1-1.4,3.9-2.9,5.3c-0.9,0.9-1.8,1.9-2.6,2.8c-0.8,1-1.4,2.2-2,3.2c-0.1,0.2,0,0.6,0.2,0.6c0.2,0.2,0.5,0.2,0.6,0.2
		c6-1.5,10.8-4.8,14.5-9.6c4.4-5.6,7.9-11.7,10.4-18.4c0.4-1,0.9-2.2,1.5-3.1c3.4-6.6,4.5-13.6,3.5-21c-0.5-3.1-0.4-6.2-0.1-9.2
		c0.5-4.1,0.6-8.2,0.6-12.3c-0.1-1.4,0-2.8,0.5-4.2c0.9-2.9,0.3-5.6-1.2-8.1c-1.2-2-2.7-3.7-4.6-5.1c-2.2-1.8-4.7-3.2-7.2-4.5
		c-2.4-1.2-4.9-2.3-7.3-3.5c-2-1-3.9-2-5.5-3.5c-5.9-5.1-11.2-10.6-15.3-17.2c-1.8-2.7-3.5-5.4-5.3-8c-1.7-2.4-3.1-5.1-4.2-7.8
		c-1.7-4.3-3.2-8.7-4.4-13.2c-0.3-1.1-0.6-2.2-1.3-3.2c-0.1-0.2-0.4-0.3-0.6-0.3s-0.5,0.2-0.6,0.4c-0.2,0.6-0.5,1.2-0.5,1.8
		c-0.2,2.3-0.3,4.6-0.3,6.9c0,2.1-0.2,4.1-1,6c-1,2.4-1.4,4.9-1.5,7.6c-0.6,6.4,0,12.5,1.1,18.8
		C755.3,161.1,755.7,163.8,755.9,166.6z"/>
	<path class="st2" d="M255.5,523.5c-1.6-0.7-3.1-0.2-3.7,1.5c-0.3,0.8-0.6,1.7-0.9,2.6c-3.2,8.4-7.3,16.4-12.9,23.5
		c-3.1,3.9-5.9,7.7-8.9,11.6c-3.7,4.8-7.8,9.2-12.5,13c-1.9,1.5-3.9,3-5.6,4.7c-0.4,0.3-0.7,0.6-1.1,1c5.6,0.8,11.1,1.9,16.6,3.1
		l3,0.7l0.7,0.2l0.7,0.2l1.5,0.4l2.8,0.7c0.6-0.9,1.2-1.8,1.8-2.7c5.2-8.4,9.2-17.5,12-27.1c2.8-9.9,5.1-19.9,7.1-30
		c0.2-0.9,0.2-1.8,0.2-2.7C256.2,524.2,255.9,523.7,255.5,523.5z"/>
	<path class="st2" d="M852.6,543.7c-5.5-0.9-10.8-2.3-15.8-4.7c-10.5-5-19.8-11.5-27.4-20.3c-6.8-7.9-12.9-16.3-18.1-25.4
		c-0.8-1.5-1.7-2.9-2.8-4.2c-1.8-2.1-3.8-4.2-5.6-6.4c-1.2-1.5-2.4-1.9-4.3-1.4c-5.1,1.6-10.3,2.2-15.6,2.1c-1,0-2-0.3-3,0.2
		c-0.3,0.7,0,1.3,0.3,1.9c1.3,2.1,2.4,4.3,3.9,6.2c8.1,11.3,17.1,21.9,28.1,30.5c0.9,0.7,1.8,1.5,2.7,2.2
		c8.7,7.7,17.8,14.8,27.7,20.8c0.2,0.2,0.4,0.2,0.6,0.4c1.5,1.1,1.9,2.7,1.3,4.4c-0.2,0.7-0.6,1.4-1.1,2c-3.5,4.5-6.1,9.5-9.2,14.2
		c-2.7,4.1-4.8,8.4-6.4,13c0.5,0,1,0,1.5,0.1c4.2,0.3,8.3,0.6,12.4,1.3c2,0.2,3.9,0.6,6,1c0.6-1.1,1.5-2.2,2.6-3.4
		c1.8-1.9,3.7-3.5,5.7-5.1c2.6-2,4.9-4.1,7-6.7c4.1-5.1,7.9-10.5,11.1-16.2c1-1.8,2-3.6,2.5-5.7C855.1,544,853.8,543.9,852.6,543.7z
		"/>
	<path class="st2" d="M611.5,150.5c0.6,0.5,1.3,0.9,2,1.1c2.2,0.8,4.1,2.1,6,3.5c2.7,1.9,5.5,3.9,8.3,5.7c2.5,1.6,4.7,3.5,6.8,5.7
		c2.1,2.3,4.3,4.4,6.5,6.5c3.3,3.1,6,6.7,7.2,11.2c0.6,2.3,2.5,3.5,5,3.3c1.3-0.2,2.5-0.6,3.5-1.4c2-1.3,3.3-3.2,4.3-5.3
		c0.8-1.7,1.5-3.5,3.1-4.7c0.8-0.6,1.1-1.7,1.1-2.7c0-1.4,0-2.8-0.7-4.3c-1.5,0.6-3,0.6-4.6,0.6c-1.3,0-2.2-0.6-2.7-1.9
		c-0.3-1.1-0.6-2.2-0.8-3.4c-0.6-3.7-1.7-7.2-3-10.7c-2.2-5.7-6.1-10.1-11.1-13.5c-3.7-2.6-8-3.4-12.1-1.6c-3.5,1.4-6.6,1.8-10,0.7
		c-0.2-0.1-0.5-0.1-0.7-0.2c-4-0.5-8.4,2.2-9.7,6.1C609.3,147.3,609.8,149.2,611.5,150.5z"/>
	<path class="st2" d="M578.8,227.6c1.8,1.7,3.2,3.6,4.5,5.7c2.5,4.1,5.6,7.6,9,11c5.6,5.8,12.6,9.3,20.3,11.2
		c7.2,1.8,14.1,0.7,19.8-4.5c3.5-3.1,6.3-6.8,8.8-10.6c0.3-0.6,0.5-1.1,0.4-1.7c0,0,0,0-0.1,0c-2.2,2.3-5.1,3.6-7.6,5.3
		c-4.2,2.8-8.8,3.5-13.6,3c-1-0.1-2-0.2-3-0.4c-4.7-0.5-9.1-1.7-13.3-3.4c-0.5-0.2-1.3-0.2-1.1-1.2c0.4-0.1,0.7-0.1,1.1-0.2
		c15-1.3,23.4-9.4,27.2-20.8c0.9-2.5,1.1-5.1-0.2-7.5c-1-2.1-1.8-4.2-2.1-6.6c0-0.5-0.4-0.9-0.7-1.3c-0.2-0.2-0.4-0.3-0.6-0.3
		c-0.2,0-0.5,0.2-0.6,0.4c-0.2,1.4-0.5,2.8-0.6,4.2c-0.2,2.2-0.2,4.3-0.7,6.5c-1,5.5-3.8,9.7-8.7,12.5c-0.9,0.5-1.8,1-2.7,1.6
		c-2.8,2-6,2.8-9.4,2.9c-4.3,0.2-8.5-0.2-12.5-1.5c-5-1.6-9.3-4.4-12.3-8.8c-2.5-3.7-4.8-7.6-7.2-11.3c-0.5-0.7-0.7-1.7-1.8-1.9
		c-0.1,0.2-0.2,0.5-0.2,0.7c0.7,7.7,1.8,10.4,7,16.2C578.3,227,578.5,227.3,578.8,227.6z"/>
	<path class="st2" d="M641.8,238.6L641.8,238.6L641.8,238.6L641.8,238.6z"/>
	<path class="st2" d="M580.1,182.9c1.8-1.4,3.5-3.1,5.4-4.4c4.5-3.2,9.7-3.9,15-3.9c0.6,0,1.3,0.2,1.9,0.3c6,1.9,11.3,4.9,14.5,10.6
		c1.2,2.2,2.8,4,4.5,5.8c1.4,1.4,2.8,2.9,4.7,3.8c0.2-0.3,0.3-0.5,0.3-0.6c-1.2-5-2.2-10.1-4-14.9c-1.2-3.4-3.1-6.2-6-8.3
		c-3.5-2.5-7.1-4.7-11.1-6.2c-3-1.1-6-1.4-9.1-0.7c-5.2,1.3-9.9,3.6-13.3,8c-0.7,0.9-1.4,1.9-2.1,2.7c-2.4,2.5-2.5,5.7-2.8,8.8
		C579.1,184.2,579.5,183.4,580.1,182.9z"/>
	<path class="st2" d="M641.6,238.7C641.5,238.7,641.5,238.7,641.6,238.7L641.6,238.7L641.6,238.7z"/>
	<path class="st2" d="M487.8,643.1c-3-1.7-5.1-4.3-6.8-7.2c-3-5.5-5-11.2-6.2-17.4c-0.7-3.5-0.8-6.9-0.7-10.4c0-1.3,0.3-1.6,1.6-1.6
		c3.9-0.2,7.6-1,11.4-1.7c0.6-0.2,1.4-0.3,2-0.5c-11.1-3.6-21.9-8.1-31.5-14.9c-0.5-0.3-1-0.9-1.7-0.4c-0.6,0.8-0.5,1.8-0.5,2.7
		c-0.2,3.1,0.2,6.2,0.5,9.2c1,10.5,3.9,20.2,10.1,28.8c0.2,0.3,0.5,0.6,0.6,1c1.2,2.1,1.2,4.3-0.1,5.8c-1.4,1.6-3.6,2-6,1
		c-0.5-0.2-0.9-0.5-1.4-0.7c-0.8-0.4-1.6-0.8-2.4-1.2c-8.9-4.1-16.6-9.8-22.8-17.4c-5.9-7.2-11.2-14.7-13.7-24
		c-0.2-1-0.8-1.8-1.9-2.2c-3.4-1-6.4-2.8-9.4-4.5c-4.3-2.3-8.6-4.7-13.6-5.2c-0.5-0.1-1-0.2-1.5-0.4c-4.6-1.3-9.2-2.4-13.8-3.8
		c-11.7-3.5-22.7-8.4-32.5-15.8c-0.8-0.6-1.5-1.4-2.7-1.6c-0.4,0.3-1,0.6-1.5,1c-8.6,7.2-15.4,15.9-20.5,25.8
		c-2.9,5.6-5.1,11.5-6.3,17.8c-0.2,1.4-0.6,2.7-1.3,4c-1.2,2.5-3.2,3.9-6.1,4c-2.8,0.1-5-1.3-6.3-3.8c-1.8-3.5-3.5-6.8-5.1-10.4
		c-3-6.8-4.3-13.7-3-21.1c0-0.2-0.2-0.4-0.2-0.6c-0.5-0.1-0.7,0.2-1,0.5c-2.2,2.8-4.3,5.7-6,8.8c0.9,2.9,1.5,6.3,2,8.8
		c1,5.7,2.7,14.2,5.4,19.4c1.5,3,6.4,8.1,8.8,10.5c5,4.6,11.2-3,16.2-7.6c2.2-2,3.9-4.3,5.2-7.1c1-2,1.9-4,3-5.9
		c3-4.9,6.4-9.7,9.8-14.3c1.9-2.5,4.2-4.1,7.1-5.1c3.2-1.1,6.4-1.6,9.8-1.1c1.4,0.2,2.8,0.3,4.2,0.6c3.1,0.6,6.4,0.9,9.4,2.2
		c4.7,2,9.2,4.4,14.1,6c0.7,0.2,1,0.7,1,1.5c-0.1,0.8-0.2,1.5-0.2,2.3c-0.7,4.3-0.6,8.4,0.1,12.6c0.8,5,2.3,9.7,4.1,14.4
		c1.5,3.9,3.3,7.6,4.1,11.6c0.1,0.4,0.2,0.7,0.4,1c0.8,1.7,2.1,2.6,3.9,2.6s3.3-1.1,4-3c0.4-1.1,0.4-2.2,0.4-3.5
		c0-3.4,0.1-6.7,0.1-10c0-2.3,0.4-4.6,1-6.8c0.2-0.5,0.9-0.7,1.2-0.3c0.6,0.6,1.2,1.4,1.8,2c9.6,11.2,21.6,19.3,35,25.2
		c2.5,1,4.9,2.2,7.2,3.6c2.3,1.5,4.8,2.4,7.3,3.5c5.2,2.2,10.6,2.6,16.2,1.7c3-0.5,6.1-0.9,9.2-1.2c2.9-0.2,5.7-1.3,8.5-2.2
		c1.7-0.6,1.9-3,0.6-4.2C488.6,643.7,488.1,643.4,487.8,643.1z"/>
	<path class="st2" d="M684.6,574.7c-0.4-1-0.8-1.8-1-2.8c-1,1-2.2,1.9-3.7,2.6c-3.5,1.7-7.1,1-10-1.7c-1.5-1.5-2.4-3.3-3.3-5.1
		c-1.3-2.8-2.6-5.6-3.9-8.4c-0.3-0.7-0.6-1.5-1.4-1.8c-0.2,0.2-0.4,0.4-0.5,0.6c-0.2,0.9-0.4,1.8-0.6,2.7
		c-1.4,5.8-3.1,11.4-6.3,16.5c-4.8,7.5-10.6,14.2-17.5,19.9c-1,0.8-2.1,1.5-3.2,2.2c-2.1,1.1-4.3,1-6.1-0.6
		c-1.8-1.5-1.9-3.5-1.2-5.6c0.5-1.5,1.1-2.9,1.8-4.3c2.4-4.7,3.6-9.9,5.1-15c2.6-9.4,2.1-18.6-1.1-27.7c-0.2-0.5-0.3-1-0.6-1.5
		c-0.1-0.2-0.3-0.3-0.5-0.5c-0.6,0-0.9,0.5-1.2,0.9c-1.7,2.1-3.4,4.3-5,6.3c-7.4,9.8-15.6,18.7-24.9,26.8c-0.8,0.6-1.5,1.4-2.2,2.2
		c-4.7,5.9-10.7,10-17.4,13.2c-7.7,3.6-15.8,5.4-24.4,3.2c-2.7-0.6-4.3-2.1-5.1-4.7c-0.2-1-0.4-2-0.6-3c-0.2-1.4-0.5-2.7-0.8-4.5
		c-2.6,1.8-4.7,3.6-6.1,6.1c-0.5,0.8-1,1.5-1.5,2.2c0.2,2,0.4,4,0.6,6c0.6,6.3-0.1,12.3-3.6,17.8c-0.8,1.3-1.5,2.7-2.2,4
		c-0.6,1.1-1,2.3-1.4,3.6c-1.7,5.4,3.1,10.8,9.1,9c0.9-0.2,1.7-0.6,2.6-0.9c3.4-1.2,6.6-2.8,9.7-4.6c5-2.9,10-5.8,15-8.7
		c12.8-7.6,23.2-17.8,32-29.7c2.7-3.5,5-7.2,7.5-10.8c0.3-0.5,0.6-1.2,1.5-0.9c0,0.5,0.1,1,0,1.5c-1.5,8-2.7,16.2-5.5,24
		c-0.6,1.8-1,3.7-0.9,5.6c0.2,3,1.8,5.1,4.4,6.3c1.7,0.8,3.5,0.9,5.3,0.6c8.2-1.5,15.9-4.1,22.3-9.7c1.4-1.2,2.8-2.2,4.3-3.1
		c7.7-4.5,13.8-10.7,18.5-18.2c1.1-1.8,2.1-3.5,3.3-5.5c0.4,0.4,0.6,0.6,0.8,0.7c2.4,4.3,6,7.6,9.2,11.4c2.3,2.7,5.7,3.4,8.8,2.1
		c2.9-1.2,4.5-3.9,4.4-7.5c0-0.6-0.1-1.3-0.2-1.9C686.7,580.8,686,577.6,684.6,574.7z"/>
	<path class="st2" d="M435.3,475.6c-3.3-2-6.6-3.9-9.7-6.3c-7.8-5.6-15.4-11.7-23.4-17c-1.7-1.1-3.3-2.4-4.7-3.9
		c-2.5-2.6-4.7-5.4-7.3-7.9c-5.3-5.1-8.5-11.6-11.9-17.9c-1.1-2.2-2.1-4.4-2.9-6.8c-2.2-6.9-5-13.8-6.8-20.9c-0.9-3.4-3.3-5.6-6.6-8
		c0,1.9-0.1,3,0,4.1c0.4,3.9,1,7.6,1.9,11.4c2.4,11.2,6.4,21.9,10.5,32.6c2.9,7.5,7.2,14.1,12.5,20.3c1.6,1.9,3.4,3.5,5.2,5.1
		c4.4,3.9,9.4,6.8,14.7,9.1c4.4,1.9,7.7,4.9,10.5,8.8c4.8,6.7,11,11.8,18.2,15.8c1,0.6,2,1,3.1,1.5c0.5,0.2,1.1,0.6,1.7,0.1
		c0-0.3,0.2-0.6,0.1-0.8c-1.5-5.1-2.2-10.3-2.6-15.6C437.6,477.6,436.8,476.6,435.3,475.6z"/>
	<path class="st2" d="M566.4,502.9c3.2-1.2,6.5-2.2,9.7-3.6c5.7-2.4,11.2-5,16.2-8.8c3.9-3.1,7.6-6.5,10.7-10.5c2.4-3,4.5-6.2,6-9.8
		c1.9-4.2,4-8.4,6-12.5c1.9-4,3.7-8.2,4.9-12.5c0.2-0.6,0.4-1.2-0.1-1.9c-0.2,0.1-0.6,0.1-0.7,0.2c-3.9,3.3-7.7,6.8-10.6,11.1
		c-1.4,2.1-3,3.9-4.9,5.5c-2.7,2.2-5.4,4.3-8.2,6.4c-2.4,1.8-5,3.1-7.8,4.2c-3.7,1.5-7.5,2.6-11.4,3.5c-2.2,0.5-4.5,0.9-6.8,1.5
		c-1.7,0.4-2.7,1.6-2.9,3.2c-0.2,1-0.1,2-0.1,3c0.1,4.3-0.1,8.8-0.5,13.1c-0.2,2.3-0.6,4.6-0.9,6.8
		C565.2,502.8,565.6,503.2,566.4,502.9z"/>
	<path class="st2" d="M341.4,161.2c-0.7,2.7-1.2,5.6-1,8.4c0.2,3.9,0.6,8,0.9,11.9c0.1,1.3,0.3,2.6,1.1,3.6c0.6,0.9,1.5,1.4,2.4,1.5
		s2-0.2,2.7-1c0.2-0.2,0.2-0.3,0.4-0.5c0.6-1,1.1-2,1.5-3.1c1.1-4.5,3.9-8,6.6-11.7c2.8-3.8,6.3-6.4,10.7-7.9c4-1.3,8-2.6,12.1-3.9
		c3.5-1,6.8-2.2,10-3.9c3.5-1.8,6-4.4,7.5-8c1.5-3.2,0.6-6.1-2.1-8.2c-1.5-1.2-3.3-2-5.2-2.2c-3.9-0.4-7.7-0.3-11.3,1.3
		c-6.2,2.7-11.7,6.3-16.1,11.6c-1.9,2.4-3.8,4.9-5.6,7.3c-0.8,1-1.4,2.2-2.9,2.4c-0.1-0.4-0.2-0.7-0.2-1.1c-0.8-3.4-3.1-4.6-6.3-3.2
		C343.4,155.9,342.1,158.4,341.4,161.2z"/>
	<path class="st2" d="M410.5,234.3c-4.3,1.2-8.7,1-13,0.6c-2.3-0.2-4.6-0.9-6.5-2.3c-2.9-2.1-5.7-4.3-8-7.1s-4.2-5.9-6.3-8.8
		c-2-2.7-3.4-5.8-3.5-9.2c0-0.3-0.1-0.7-0.6-0.6c-2.2,3.9-2.6,6.1-1.7,9.8c1.6,6.3,5.1,11.4,8.9,16.5c2.3,3.1,5.2,5.3,8.8,6.6
		c1.9,0.7,3.9,1.2,5.9,1.9c0.2,0.1,0.4,0.4,0.3,0.6c0,0.2-0.2,0.4-0.5,0.5c-0.3,0.2-0.7,0.2-1.1,0.2c-8.9,1.4-17.4,0-25.5-4
		c-1.1-0.6-2.2-1.4-3-2.3c-3.8-3.5-7.4-7.1-9.5-12.1c-0.3-0.7-0.6-1.7-1.6-1.9c0.5,4,1.6,7.5,3.6,10.9c1.2,1.9,2.6,3.9,3.9,5.8
		c4.3,6.4,10.4,10.1,17.7,12.1c3.5,1,7.1,1.3,10.6,1.7c4,0.4,8,0,11.8-1.1c4.2-1.2,8.2-2.9,12.2-4.7c5.6-2.6,9.4-7,12.1-12.5
		c1-2.1,2-4.2,3-6.2c0.6-1,0.7-2.2,0.8-3.3c0.6-4.6-1.1-8.8-1.7-13.3c0-0.2-0.4-0.3-0.6-0.3s-0.4,0.2-0.5,0.5
		c-0.3,1.1-0.6,2.2-0.9,3.4c-0.6,2.7-1.5,5.5-2.7,8C420.6,229,416.5,232.7,410.5,234.3z"/>
	<path class="st2" d="M346.7,107.1c0-0.7-0.6-1.1-1.4-0.9c-0.7,0.2-1.5,0.6-2.2,0.9c-5.6,2.3-10.6,5.8-15.6,9.2
		c-1.8,1.2-3.5,2.6-4.7,4.5c-0.7,1.2-1.9,2.1-2.9,3.1c-8.2,7.3-15,15.8-21.5,24.7c-1.9,2.6-3.8,5.2-5.7,7.8c-1,1.2-2,2.4-3.5,3.1
		c-2.4,1.1-4.7,0.2-5.5-2.3c-0.6-1.8-0.6-3.5-0.3-5.3c0.6-5.1,2.3-10,5.1-14.5c2.9-4.7,6.1-9.2,9.9-13.3c0.6-0.6,1.5-1,1.2-2.2
		c-0.6,0.1-1,0-1.5,0.2c-3.8,1.1-7,3.1-9.6,6.2C283,135,278,142,274,149.7c-2.5,4.9-5,9.9-7.2,14.9c-8.3,18.7-13.6,38.2-14.1,58.8
		c-0.3,10.4,0.5,20.8,3.2,30.9c3.3,12.4,8.5,23.7,18.3,32.4c3.4,3,4.3,6.6,2.6,10.9c-0.6,1.7-1.1,3.4-1.4,5.2
		c-1,8.3,0.5,16.1,3.6,23.7c0.4,1,1,1.6,2,2.2c3.5,2.2,6.7,4.8,9.6,7.6c1.4,1.4,2.6,2.8,3.6,4.5c4.4,7.6,8,15.5,9.1,24.4
		c0.3,2.4,0.8,4.8,1.2,7.2c0.9,5.6,1.4,11.2,0.7,16.9c-0.5,4.3-0.6,8.7-0.4,13.1c0.2,3.7,0,7.5-0.5,11.2c-0.8,6-2.5,11.8-4.6,17.5
		c-2.2,6.3-5.8,11.7-11.2,15.8c-1.6,1.3-3.3,2.4-5.2,3.3c-4.8,2.2-9.2,0.6-13.6-1.7c-2.9-3.5-6.4-6.4-7.9-10.9
		c-0.6-1.6-1.5-3-2.5-4.3c-0.3-0.4-0.8-0.6-1.3-0.5c1,5.2,2.2,10.3,4.2,15.2c2.1,4.9,5.5,8.6,10.5,10.9c6.4,2.9,12.9,2.7,19.2,0.6
		c2.9-1,5.6-2.1,8.2-3.5c3.9-2.2,7.4-4.9,10.5-8.4c0.2-0.3,0.8-1,0.8-1l0,0c0,0,1.6-1.9,2.3-2.9c1.2-1.6,2.3-3.3,3.4-5
		c3.6-6,6.2-12.6,7.6-19.9c2.2-11.7,0.5-22.8-4.7-33.4c-1.5-3.1-2.8-6.4-3.5-9.7c-0.6-2.5-1.4-5-2.2-7.4c-2.1-6-4.3-12.1-5.3-18.5
		c-1-6.6-1.9-13.3-0.6-19.9c0.2-1.4,0.2-2.8,0.5-4.2c0.3-1.8-0.2-3.2-1.4-4.6c-1.9-2.1-3.8-4.3-5.1-6.8c-4.4-8-7.9-16.4-10-25.4
		c-0.3-1.3-0.5-2.5-0.6-3.8c-1.1-8-1.8-16.1-1.9-24.2c-0.2-9.8,0.1-19.5,1.7-29.2c1.5-8.4,3.2-16.6,5.1-24.9
		c2.7-11.8,6.1-23.4,11.2-34.4c6.1-13.4,13.1-26.2,24-36.5c1.5-1.4,2.6-3.2,3.4-5.1c1.3-3.8,3.5-6.8,6.1-9.7
		c1.9-2.2,3.3-4.6,4.5-7.2C346.6,111.8,346.8,109.5,346.7,107.1z"/>
	<path class="st2" d="M374.1,99.9c5.3-10.4,13-18.7,22.4-25.4c7.6-5.5,15.7-10.3,24.4-13.8c0.5-0.2,1-0.4,1.4-0.7
		c0.3-0.2,0.6-0.5,0.6-0.8c0.2-0.5-0.3-0.6-0.7-0.7c-1.6-0.5-3.3-0.8-4.9-0.6c-1.7,0.2-3.3,0.1-5-0.2c-5.5-1-10.7,0-15.8,2.3
		c-4.3,1.9-8.2,4.3-12.2,6.6c-3.7,2.2-6.8,5-9.5,8.3c-2.9,3.6-4.7,7.6-5,12.3c-0.4,6-0.2,12.1-1.7,18.7
		C371.1,104,372.9,102.3,374.1,99.9z"/>
	<path class="st2" d="M382.9,190.3c0.2-0.5,0.5-1,0.7-1.4s0.5-0.9,0.7-1.3c3.5-5.3,7.9-8.8,13.6-10.1c1.5-0.3,3.2-0.5,5-0.5
		c0.1,0,0.2,0,0.2,0c2.3,0,4.6,0.3,6.8,1.2c3.1,1.1,6.1,2.6,8.9,4.4c0.6,0.4,1,1,2,0.9c0.2-0.6,0-1.2-0.2-1.9
		c-0.6-1.7-1.4-3.4-1.8-5.1c-0.6-2.6-2.2-4.3-4.4-5.6c-1.6-1-3.4-1.8-5.2-2.4c-1.7-0.6-3.5-0.8-5.3-0.4c-2.2,0.5-4.6,0.8-6.8,1
		c-4.7,0.6-8.4,2.8-12,5.7c-1.8,1.4-3.5,3.1-4.6,5.1c-2.5,4.9-4.2,10.1-6,15.3c0.4,0.2,0.6,0.4,0.9,0.3c1.5-0.3,2.7-0.8,3.9-1.5
		C380.8,193.4,382.1,192.1,382.9,190.3z"/>
	<path class="st2" d="M430.2,312.9c0.2,0.5,0.2,1,0.2,1.5c0.3,2.3,0.4,4.6,0.2,6.9c-0.6,7.2-0.4,14.4,0.4,21.5
		c0.6,6,2.3,11.6,5.9,16.6c1,1.5,2.2,3,3.4,4.3c-0.7-2.4-1.2-5-1.5-7.6c-0.9-8.6,0.1-17.2,0.5-25.8c0.4-7.5,1.9-14.8,2.9-22.2
		c0.5-3.4,1.8-6.4,3.9-9.1c1.9-2.4,3.9-4.8,6-7.1c3.9-4.3,8.8-7.1,14.5-8.2c5.1-1,10.1-1.8,15.3-1.5c3.9,0.2,7.7,0,11.6,0l0,0
		c4.7,0,9.6-0.2,14.3,0.1c7.6,0.5,15.2,0.6,22.6,2.2c5.2,1,10,3,14.5,5.9c1.9,1.2,3.9,2.5,6,3.5c5.3,2.9,9.4,7.1,12.6,12.1
		c0.8,1.3,1.5,2.7,1.9,4.2c1.6,5.1,3.4,10,4.4,15.2c1.5,7.6,1.9,15.3,0.5,23c-1,5.2-2.5,10.2-4.4,15.1c-0.6,1.7-1.4,3.4-1.8,5.1
		c-1.4,4.8-3.6,9.2-6.3,13.2c0.6-0.1,1-0.1,1.6-0.1c3.1-0.1,5.8-1.6,7.7-3.9c3.9-4.6,7.5-9.5,9.3-15.4c3.5-11.5,5.5-23.2,4.2-35.3
		c-0.9-8-2.7-15.7-6.3-22.9c-1.5-2.9-3-5.7-4.4-8.5c-2-3.9-4.6-7.5-7.7-10.5c-2.6-2.5-5.1-5-7.7-7.5c-1.7-1.6-3.5-3.1-5.6-4
		c-4.8-2-9.7-4-15-4.7c-8.3-1.1-16.6-2.2-24.8-3.2c-3.5-0.4-7.1-0.7-10.8-0.2c-1.3,0.2-2.6,0.2-3.9,0.2c-6.2-0.2-12.3,0.9-18.2,2.4
		c-14.1,3.6-26.5,10.4-36.8,20.7c-4.3,4.2-7.3,8.9-8.4,14.8c-0.2,1.3-0.6,2.5-0.9,3.8C429.3,309.5,429.3,309.5,430.2,312.9z"/>
	<path class="st2" d="M465.4,455.8c2-0.4,4-1,5.9-1.8c4.7-2.1,9.4-4.5,13.8-7.4c0.8-0.6,1.6-1.1,2.3-1.7c0.4-0.3,0.7-0.6,1.1-1
		c4.3-3.5,7.3-7.9,8.9-13.3c0.2-0.6,0.4-1.2,0.6-1.9c1-3.9,1.7-3-0.8-6.8c-0.9-1.3-1.5-2.7-2.1-4.1c-0.7-1.7-1.6-3.2-2.9-4.5
		c-4.2-4.5-8.4-9-13.5-12.6c-1.1-0.8-2.2-1.8-3.3-2.6l-0.1-0.1c0.7,2.1,1.4,4.1,1.9,6.3c0.9,3.8-0.2,7.1-2.9,9.9
		c-3.5,3.5-7.6,5.7-12.8,5.1c-0.4-0.1-0.8-0.1-1.1-0.2c-0.9-0.1-1.5,0.3-1.7,1.2c-0.6,2.2-0.5,4.3,0.6,6.4c0.7,1.4,1.6,2.6,2.1,4.1
		c0.6,1.9,1.5,3.5,3,4.7c0.9,0.6,0.5,1.7-0.6,1.9c-1.6,0.4-3.3,0.6-4.9,1.1c-2.7,0.9-5.1,0.2-7.2-1.5c-1.5-1-2.6-2.4-3.6-3.9
		c-0.4-0.6-0.7-1.4-1.1-2s-1-0.4-1.3,0c-2.2,2.8-3.6,6-3.9,9.5c-0.3,2.8-1.6,5.1-3.5,7.1c-1,1.1-2.3,2-3.3,3.2
		c-0.2,0.3-0.5,0.5-0.7,0.7c-0.3,0.2-0.6,0.4-1,0.6c4.3,1.7,8.8,2.9,13.4,3.6C452.9,457,459.2,457.1,465.4,455.8z"/>
	<path class="st2" d="M527.9,442.6c6.6,2.6,13.4,4.4,20.5,5.2c8.6,1,17.3,1.3,26,1.1c0-0.1,0-0.1,0-0.2c-0.6-3.3-2.2-5.8-5.5-7.4
		c-3-1.5-5.7-3.5-8-5.9c-0.5-0.5-0.8-1.3-1.8-1.2c-0.6,0.7-1.3,1.5-2,2.2c-0.9,1-1.9,1.7-3,2.2c-1.5,0.6-2.7,0.6-3.9-0.5
		c-1.5-1.4-3-2.7-4.6-4.1c0.4-2.2,1.8-3.9,2.7-5.6c-0.3-0.9-1-1-1.5-1.4c-3.8-2.4-5.5-6-5.5-10.4c0-1.4,0.2-2.8,0.5-4.2
		c0.5-3,0.8-5.7-1.2-8.4c-0.7-1-1.1-2.2-1.2-3.4c-0.6,0.4-1.2,0.7-1.8,1c-5.2,2.8-10.2,6-15.8,8.1c-3.4,1.4-5.1,4.2-6.1,7.6
		c-1,3.5-1.2,7.1-1.6,10.7c-0.2,1.5,0.4,2.7,1.3,3.9C518.6,436.6,522.5,440.4,527.9,442.6z"/>
	<path class="st2" d="M626.2,630.4c-0.9,0.2-1.5,0.9-2.2,1.5c-2.3,2.1-4.8,3.8-7.6,5.1c-2.7,1.3-5.6,1.8-8.4,2.7
		c-2.1,0.6-4.3,0.9-6.3,1.7c-3.9,1.5-7.7,2.8-11.7,3.6c-2.7,0.6-5.1,1.6-7.6,2.9c-5.6,3-10.6,6.8-15,11.3c-3.5,3.6-7.5,6.7-11.7,9.4
		c-2.2,1.5-4.6,3-6.8,4.4h55.3c4.7-6.5,9.9-12.8,15-19c2.7-3.4,5.2-7,7.3-10.8c1.3-2.3,2.4-4.8,3-7.5c0.2-0.9,0.4-1.8,0.4-2.7
		C629.9,631,628.2,629.8,626.2,630.4z"/>
	<path class="st2" d="M213,321.6c0-4.7,0.2-9.2,0.2-13.9c-0.2-8.5,0.6-17,2.2-25.3c0.4-1.9,0.6-3.8,0.6-5.7
		c-0.1-2.5,0.5-4.8,1.4-7.1c0.6-1.5,1.1-3.1,1.5-4.7c0.2-1,0.5-2-0.5-2.9c-0.6-0.5-1.3-0.2-2.5,1.2c-0.5,0.6-1,1.2-1.4,1.9
		c-1.9,2.6-3.7,5.2-5.5,7.9c-2.2,3.4-4.8,6.4-7.8,9c-1.4,1.3-2.9,2.5-4.8,3c-1-0.9-1.1-2.1-1.4-3.2c-1.1-3.9-1.9-7.7-2.4-11.7
		c-0.2-1.3-0.2-2.6-0.1-3.9c0.3-4.3,0.8-8.4,1.7-12.6c0.3-1.6,0.6-3.2,1-4.9c-2.8,3.9-4,8.4-5.4,12.9c-1.4,4.7-2.6,9.3-4.7,13.9
		c-1-1.1-1.1-2.2-1.4-3.4c-0.4-2.6-0.9-5.1-1.1-7.6c-0.8-8.6-1-17.2,0.6-25.7c0.4-2.3,0.9-4.6,1.4-6.9c0.2-1.1,0.5-2.2,0.8-3.4
		c0.4-1.9,0.8-3.7,1.2-5.6c0.6-2.6,1.4-5.2,2.2-7.7c1.8-4.8,3.9-9.5,6.1-14.1c0.3-0.7,1.1-1.4,0.6-2.6c-1.3,0.5-2,1.6-2.7,2.6
		c-1.9,2.6-3.8,5.2-5.6,7.9c-2.7,4.2-5.5,8.4-8.6,12.3c-2.2,2.7-3.9,5.8-5.2,9c-0.6,1.3-1.1,2.6-1.9,3.8c-5.1,8.5-7.7,17.9-9.5,27.6
		c-0.6,3-0.5,6.2-1,9.2c-1.1,6.4-0.6,12.5,0.7,18.7c1.2,6.1,3.9,11.7,6.3,17.4c3.7,8.8,9.8,15.9,16.9,22.2c3.9,3.5,8.6,5.2,13.7,5.8
		c0.1,0,0.2,0,0.3,0.1c3.7,0.3,6.8-0.8,9.3-3.3c0.5-0.5,1-1,1.4-1.6c0.6-0.7,0.9-1.6,1.4-2.2C212.5,326.2,213,324,213,321.6z"/>
	<path class="st2" d="M560.5,330.3c-0.2-0.9-0.2-1.8-0.3-2.6c-0.3-4-1.3-7.9-3.2-11.4c-2.6-5-6.2-9.2-10.5-12.6
		c-3-2.3-6-4.3-9.8-5.1c-4-0.9-8.1-1.3-12.2-0.9c-3,0.3-6.2,0.5-9.2,1c-7.5,1.3-14.9,0.9-22.3,0.1c-5.7-0.6-11.2-0.6-16.9,0.3
		c-4,0.6-7.6,2.1-11,4.3c-4.9,3.3-8.5,7.7-11.7,12.6c-1.8,2.7-3,5.7-3.5,8.9c-1.2,9.1-1.3,18.2-0.9,27.3c0.1,1.9,0.6,3.9,1.5,5.5
		c0.8,1.5,2.1,1.8,3.5,0.6c2.5-2.1,5.3-3,8.5-3.1c2.4-0.2,4.8-0.5,7.3-0.8c0.5-0.1,1-0.2,1.3-0.6c0-0.7-0.6-1-1.1-1.4
		c-2.7-2-4.2-4.7-5-8c-1-3.9,0.3-7.1,2.9-9.9c0.8-0.9,1.8-1.7,2.9-1.9c3.2-0.5,6.4-0.9,9.4,0.8c4.3,2.4,7.5,5.9,8.8,10.8
		c0.6,2.5,1,5.1,0.7,7.6c-0.5,5.5-2.4,9.6-8.9,11.7c-3,1-6,1.5-9.1,1.5c-1.7,0-3.4,0.1-5,0.2c-0.6,0.1-1.5,0.2-1.8,0.5
		c-1.7,1.7-3.6,3.3-4.8,5.5c-0.5,0.8-0.3,1.5,0.2,2.1c1.3,1.6,2.8,3,4.6,4.1c2.4,1.5,4.8,2.9,7.2,4.3c7.3,4.3,14.8,8.3,21.1,14.1
		c1.1,1,2.5,1.8,3.8,2.6c0.1,0,0.2,0.1,0.2,0.2l0,0c0.2,0.2,0.5,0.2,0.7,0.2c1,0.4,2.3,0.7,2.9,0.1c1.2-1.2-2.6-3.7-3.2-4.1
		s-11.9-8.9-13.4-10.9c-1-1.4-7.6-6.1-11.7-9l0,0c0.4-0.1,0.7-0.2,1.1-0.3c3.7-0.6,7.1-2.1,10.5-3.5c1.8-0.7,3.5-1.8,4.7-3.2
		c2-2.2,4.2-4.2,5.8-6.7c0.2-0.4,0.6-0.9,1.3-0.6c0.1,0.5,0.2,1,0.2,1.5c0.2,3.9,0.4,7.7,0.5,11.6c0.2,4.3,0.9,8.4,1.7,12.6
		c0.5,2.7,1.7,3.4,4.4,3c1.7-0.2,2.9-1,3.9-2.2c1-1.3,1.5-2.7,1.8-4.3c0.9-3.9,0.8-7.9,0.9-11.9c0-1.7,0-3.3-0.7-4.9
		c-0.5-1-0.6-2.2-0.3-3.4c0.2-0.5,0.8-0.8,1.2-0.5c0.2,0.2,0.4,0.3,0.6,0.6c4,5,9.5,7.7,15.4,9.6c1.7,0.6,3.5,0.8,5.3,0.8
		c1.1,0,2.2,0,4.2,0.1c-4.3,5.3-7.9,10-12.5,13.8c-3,2.5-5.5,5.5-8.1,8.2c-0.4,0.4-0.4,0.9,0,1.4c0.4,0.6,0.9,0.5,1.4,0.2
		c2.7-1.5,5.4-3,8-4.7c6.3-4,12.9-7.5,18.5-12.5c4.7-4.3,9.1-8.8,11.7-14.6c0.6-1.3,1.8-2.2,1.6-3.8c-1.5-1.2-3.1-0.6-4.7-0.6
		c-0.9,0-1.8,0.2-2.7,0.5c-5.3,1.8-10.8,2.2-16.4,1.8c-6.7-0.5-12.5-3-16.3-8.8c-2.5-3.9-3-7.8-1-12.1c1.4-2.8,3.1-5.3,5.1-7.7
		c0.9-1.1,2-2,3.4-2.5c5.6-2.2,11,1,11,6.7c0,2.4,0.6,4.8,0,7.3c-0.2,0.9,0.2,1.8,0.5,2.6c1.8,4,3.9,5.1,8.2,4.7
		c0.8-0.1,1.5-0.2,2.2-0.4c2.2-0.5,4.5-0.9,6.8-1.5c0.9-0.2,1.8-0.5,2.5-1c2.7-1.7,4.7-3.9,6.1-6.8c0.2-0.6,0.6-1.2,0.6-1.8
		C560.7,338,561.5,334.1,560.5,330.3z M550,333c-0.5,0.8-1.1,1-1.9,0.8c-1.8-0.4-3.3-1.3-4.6-2.6c-1.1-1.2-2.2-2.5-3.3-3.8
		c-2.5-2.9-5.6-4.3-9.5-4.3c-3.9,0.1-7.6,0.8-11.3,2.1c-1.7,0.6-2.9,1.6-3.2,3.5c-0.2,1.2-0.8,2.4-1.2,3.6c-1.3,3.9-4,6.6-7.6,8.4
		c-3,1.5-6.2,1.6-9.3,0.3c-2.4-1-4.1-2.6-4.9-5.1c-2.3-6.9-7.8-9.4-14.4-10.5c-4-0.6-7.9-0.2-11.8,0.8c-1.8,0.5-3,1.4-3.9,2.9
		c-0.6,1-1,2.1-1.6,3c-0.5,0.9-1,1.9-1.6,2.6c-1.4,1.6-2.4,1.3-3.1-0.6c-3-8.4,0-15,5.7-21c2-2.2,4.6-3.7,7.2-5.1s5.2-2,8.1-2
		c3.5,0,6.9,0.4,10.4,1c5.2,1,10.5,0.7,15.8,0.3c3.7-0.2,7.4-0.6,11.1-1c2.3-0.2,4.7-0.3,6.9-0.7c3.9-0.7,7.7-0.2,11.4,0.8
		c4.1,1.1,8.1,2.5,11.2,5.7c3.4,3.5,5.6,7.6,6.8,12.3c0.2,0.9,0.2,1.8,0.2,1.8C551.7,329.2,551.1,331.1,550,333z"/>
</g>
<g>
	<path class="st3" d="M546.9,520.6c1.2-1.4,2.2-2.8,3-4.4c3.5-6.8,4.5-14.2,4.7-21.7c0.2-8.1-0.2-16.2-1-24.3
		c-0.2-2.6-0.6-5.1-1-7.6c-0.3-2.5-0.2-2.7-3-3s-5.6-0.8-8.4-1.4c-8.4-1.9-16.7-4.2-24-9.1c-0.2-0.2-0.5-0.1-0.8-0.2
		c-0.2,0.2-0.6,0.5-0.7,0.8c-0.4,0.6-0.7,1.4-1,2.1c-5.3,13.9-6,28-1.3,42.3c0.7,2.2,1.5,4.4,2.1,6.6c0.4,1.4,0.6,2.7,0.8,4.2
		c0.2,2.1-0.6,3.8-2.5,4.8c-0.6,0.3-1.1,0.6-1.7,1c-2.6,1.4-5.3,1-7.3-1.2c-1.1-1.3-1.8-2.8-2.1-4.5c-0.6-2.6-0.5-5.4-0.2-8
		c0.6-8.1,0.5-16.2-0.6-24.3c-0.4-3.5-1-7.1-2.1-10.6c-0.3-1-0.6-1.9-1.5-2.6c-1.9-1.8-3.8-3.5-5.7-5.2c-0.7-0.6-1.4-0.5-2.1,0
		c-2.2,1.4-4.4,2.6-6.6,4c-8.8,5.8-18.2,9.6-28.7,10.4c-0.5,0-1,0.1-1.5,0.2c-0.4,0.1-0.6,0.4-0.6,0.8c0.1,0.6,0.1,1.3,0.2,1.9
		c1,5.5,2.1,11.1,3.3,16.6c1.8,8.5,4.7,16.5,9.2,24c2.6,4.5,6.2,8.2,10.5,11.1c5.4,3.5,11.1,6.5,17.2,8.6c7.7,2.6,15.5,3.5,23.6,2
		c1.9-0.4,3.9-0.6,5.7-0.9c4.6-0.9,9-2.2,13.3-4C540.6,527.1,543.8,523.9,546.9,520.6z"/>
</g>
<g>
	<path d="M668.4,403.9c3.1,1.1,6.3,1,9.4-0.2c5.7-2.4,9.6-6.7,10.9-12.6c1-4.7,2.2-9.6,1.7-14.6c0-1.1,0.1-2.4,0-3.7
		c-0.6-6.8-2.3-13.1-6.3-18.7c-0.9-1.3-1.8-2.5-3.1-3.4c-1.1-0.7-2.3-1-3.6-0.6c-0.9,0.3-1.4,1.4-1,2.2c0.2,0.6,0.6,1.1,1,1.7
		c1,1.5,1.7,3.1,2.2,4.9c1.8,6.8,1.5,13.5-0.6,20.1c-1.1,3.4-3.2,6.1-6.2,8.2c-1,0.7-2.2,1.3-3.4,1.9c-1.5,0.8-2.9,1.7-3.9,3
		C661.7,396.2,663.2,402.1,668.4,403.9z"/>
	<path d="M493,335.7c0.8,2.4,2.5,4.1,4.9,5.1c3.1,1.3,6.4,1.2,9.3-0.3c3.5-1.8,6.3-4.4,7.6-8.4c0.4-1.2,1-2.4,1.2-3.6
		c0.4-1.9,1.6-2.9,3.2-3.5c3.7-1.3,7.4-2,11.3-2.1c3.9-0.1,7,1.3,9.5,4.3c1,1.3,2.2,2.6,3.3,3.8c1.2,1.4,2.7,2.3,4.6,2.6
		c0.8,0.2,1.5,0,1.9-0.8c1.1-1.8,1.7-3.8,1.5-6.8c0,0,0-1-0.2-1.8c-1.3-4.7-3.5-8.8-6.8-12.3c-3-3.2-7.1-4.6-11.2-5.7
		c-3.7-1-7.6-1.5-11.4-0.8c-2.2,0.4-4.6,0.5-6.9,0.7c-3.7,0.3-7.4,0.7-11.1,1c-5.2,0.4-10.5,0.6-15.8-0.3c-3.4-0.6-6.8-1-10.4-1
		c-2.9,0-5.6,0.6-8.1,2c-2.6,1.4-5.1,3-7.2,5.1c-5.7,6-8.8,12.6-5.7,21c0.7,1.9,1.8,2.2,3.1,0.6c0.6-0.7,1.1-1.7,1.6-2.6
		c0.6-1,1-2.1,1.6-3c0.9-1.5,2.1-2.4,3.9-2.9c3.9-1,7.8-1.5,11.8-0.8C485.3,326.4,490.7,328.9,493,335.7z"/>
	<path d="M736.7,608.6c0.1-0.1,0.2-0.1,0.2-0.2C736.8,608.5,736.8,608.5,736.7,608.6L736.7,608.6z"/>
	<path d="M896.9,616c0,0-29.9-22.3-44.8-26.5c-0.3-0.2-0.6-0.2-1-0.4c-0.1-0.5,0.2-0.9,1.1-1.7c0.4-0.3,0.8-0.7,1.1-1
		c7.7-7,13.5-15.4,18.1-24.8c1.3-2.7,2.2-5.5,3-8.4c1.2-4.7,1.9-9.3,1.4-14.2c-0.6-5.4-5-8.9-10-8.6c-1.4,0.1-2.9,0.2-4.3-0.1
		c-7.4-1.3-14.5-3.2-21.1-7c-3.5-2-6.8-4.1-10.2-6.3c-3.7-2.3-7-5.2-10-8.5c-1.7-1.9-3.4-3.9-5.1-5.8c-1.5-1.6-2.6-3.5-3.6-5.5
		c-4-7.6-6.8-15.5-9-23.7c-0.4-1.5-0.2-1.9,1-2.5c4.7-2.3,9.2-5.1,13.7-7.9c6.1-3.8,10.4-9.2,13.7-15.4c3-5.5,1.4-10.7-4-13.9
		c-1.5-0.9-3.2-1.6-4.9-2.2c-3.9-1.2-7.7-2.9-11.5-4.4c-1.8-0.7-3.5-1.6-5-2.9c-1.4-1.2-2.9-2.1-4.7-2.5c-0.5-0.1-1-0.3-1.2-0.9
		c0.1-0.2,0.2-0.5,0.3-0.7c0.6-0.8,1.2-1.7,1.8-2.5c5.6-7,8.6-15.2,10.1-23.9c0.7-4.1,0.7-8.2,0-12.3c-0.9-5.5-2.7-10.7-5.1-15.7
		c-0.7-1.4-1.4-2.8-1.9-4.2c-0.2-0.3-0.1-0.8,0.1-1c0.2-0.4,0.6-0.2,1-0.1c1.8,0.9,3.7,1.8,5.6,2.6c1.8,0.8,3.6,1.4,5.5,1.6
		c3.4,0.4,6.4-0.4,8.7-3.1c2.2-2.6,2.3-5.6,1.1-8.7c-0.8-2-1.7-4-2.6-6c-2.7-6.2-3.3-12.6-2.4-19.3c1.2-9.1,3.2-17.9,7.1-26.4
		c0.8-1.8,1.5-3.5,2.2-5.3c2.2-5.6,4.6-11.2,6.3-17c2.7-9.5,4.4-19,2.7-28.9c-0.2-1.5-0.5-3.1-0.7-4.6c-1.3-7.5-2.5-14.9-5.2-22.1
		c-0.2-0.5-0.2-1-0.2-1.5c0.6-0.2,1-0.3,1.5-0.4c2.9-0.6,5.8-1.1,8.7-1.9c10.8-2.7,20.7-7.6,30.4-13.1c1-0.6,1.9-1.3,2.7-2.2
		c4.1-4.4,2.4-11.2-3.4-13.1c-1.5-0.5-3-0.7-4.6-0.3c-4.2,1-8.2,0.2-12.1-1.3c-11.2-4.2-20.1-11.4-26.9-21.1
		c-4.8-6.8-8.9-14.1-11.8-22c-3-8.1-7-15.7-11-23.3c-5.9-11.1-13.9-19.8-24.4-26.7c-9.8-6.3-20.3-10.3-31.9-11.7
		c-3.2-0.4-6.3-0.5-10.4-0.7c1.2-1.3,1.9-2,2.7-2.7c1.8-1.9,3.1-4.1,4-6.5c1.8-4.9-1.6-9.2-6.8-8.8c-0.8,0.1-1.5,0.2-2.2,0.4
		c-3.5,0.8-6.8,0.7-10.4,0.2c-3.4-0.5-6.5-1.5-9.6-3c-7.2-3.3-13.6-7.8-19.5-12.9c-3.9-3.5-8.2-6.6-12.5-9.6
		C680,36.8,673,34,665.6,32c-10.2-2.6-20.3-2.6-30.4,0.6c-5.8,1.8-11.4,3.9-17,6.4c-1.7,0.8-3,0.8-4.6-0.3c-3.4-2.5-7.2-4-11.2-5.1
		c-3.6-1-7.2-1.7-10.9-2.3c-3.5-0.6-7.2-0.8-10.8-0.1c-2.8,0.6-5.3-0.1-7.7-1.6c-2.8-1.8-5.7-3.5-8.6-5.2c-3-1.8-6.2-3.2-9.6-4.1
		c-7.1-1.9-14.2-3.5-21.5-4.3c-8.8-1-17.7-1.3-26.6-1c-12.5,0.3-24.9,1.2-37.3,2.2S445,21,433.2,24.3c-6.7,1.9-12.9,5.1-19.2,8
		c-5.1,2.4-10.2,4.8-15,8c-6.1,4.1-12.5,7.7-18.8,11.4c-5.3,3.1-10.9,5.9-16.7,8c-3.4,1.2-6.7,1.5-10.2,0.6c-4.4-1-8.8-1.5-13.4-0.7
		c-1,0.2-2.1,0.2-3,0.2c-6.7,0.7-13.3,1.5-19.8,3c-8.3,1.9-16.4,4.2-23.8,8.6c-2.2,1.3-4.7,2.1-7.1,3.1c-6.5,2.7-13.4,3.3-20.3,3.9
		c-2.4,0.2-4.9,0.2-7.3,0c-2.7-0.2-5-1.2-6.6-3.5c-1-1.4-2.2-2.8-3.4-4.3c-0.5-0.6-1-1.2-1.6-1.6c-1.4-1-3.1-0.8-4.1,0.6
		c-0.5,0.6-0.8,1.4-1,2.1c-0.4,2-0.6,4-0.9,6.1c-1,8.2,1.3,15.5,5.9,22.2c0.4,0.6,1.1,1.1,0.8,2.1c-2.9,0.9-5.9,1.7-8.8,2.6
		c-4.4,1.4-8.8,3-12.7,5.6c-3.5,2.3-7.1,4.7-10.6,7.1c-2.9,1.9-5.6,4.2-7.6,7.1c-4.5,6.4-8.8,12.9-11.8,20.3
		c-2.7,6.8-5.3,13.7-7.4,20.7c-2.8,9.6-7.9,17.8-14.5,25.2c-3.3,3.7-7.2,6.5-11.4,9.2c-1.5,1-3.2,1.7-4.9,2.2
		c-5,1.4-10.1,2.2-15.2,0.6c-1.8-0.5-3.5-0.8-5.3-0.6c-3.1,0.2-5.2,2.4-5.2,5.6c0,1,0.2,2.1,0.3,3.1c0.6,2.6,1.7,5.1,3.1,7.4
		c3.4,5.4,7.6,10.1,13,13.4c0.7,0.5,1.7,0.7,2,2c-4.4,3.7-7.1,8.8-10.1,13.8c-4.7,7.6-7.7,16-9.6,24.7c-1.3,6.2-2.1,12.5-2.2,18.7
		c-0.2,9.8,1.6,19.2,7.1,27.6c1.4,2.2,2.6,4.4,4.1,6.5c2.6,3.9,5.7,7.3,9.6,10c3,2,6.2,3.2,9.8,2.7c1.5-0.2,2.3,0.2,3.1,1.6
		c2.6,4.4,4.7,9.2,7.3,13.5c4.7,7.9,10.4,15,16.6,21.7c1.4,1.5,2.5,2.9,3.5,4.6c3.3,5.7,5.5,11.9,7.1,18.2c0.3,1.4,0.6,2.7,1.2,4.1
		c1.7,4.1,5.8,6.1,10.1,4.9c1.8-0.5,3.4-1.3,4.8-2.3c1.4-1,2.7-1.9,4.1-2.9c0.8-0.6,1.6-0.7,2.5-0.2c1.3,0.6,2.6,1.1,3.8,1.9
		c1,0.6,1.8,1.5,1.9,2.7c0.3,3.7,1.4,7.3,2.4,10.9c2.2,8.3,3.1,16.6,3.3,25.2c0.1,5.2-1,10.2-2.8,15c-1,2.6-2.4,4.8-4.7,6.4
		c-1.2,0.8-2.1,1.9-3.1,2.9c-3,3.5-6.8,5.3-11.4,5.5c-1.1,0.1-2.3,0-3.5,0.2c-1.9,0.4-3.5,1.3-3.9,3.3c-0.6,3-1.2,6-0.5,9.2
		c1,3.9,2.6,7.5,4.9,10.9c4.3,6.2,8.9,12,15.2,16.2c0.3,0.2,0.7,0.4,0.9,0.7c0.3,0.4,0.6,0.9,0.6,1.4c0,2.6,0.6,5.1,0,7.7
		c-1,4-2.1,8-4.1,11.6c-3.8,6.9-7.9,13.5-12.3,20c-2.4,3.5-5.1,6.8-8.4,9.4c-5.3,4.3-10.7,8.5-16,12.7c-3.4,2.7-7.1,4.5-11.1,5.7
		c-2.2,0.2-4.4,0.5-6.7,0.8c-2.1,0.2-4.1,0.7-6.2,1c-1,0.2-2,0.4-3.1,0.6c-0.5,0.1-1,0.2-1.5,0.3l-1.5,0.4l-1.5,0.4l-0.7,0.2
		l-0.7,0.2l-3,0.9c-2,0.6-3.9,1.3-5.9,2c-3.9,1.5-7.8,3-11.5,4.9c-3.7,1.8-7.4,3.9-10.8,6.2l-1.3,0.8l-1.3,0.9
		c-0.9,0.6-1.7,1.2-2.6,1.8c-1.7,1.2-3.4,2.4-5,3.7c-1.6,1.2-3.3,2.5-4.8,3.9c-1.2,1-2.5,2.1-3.7,3.1c-10.1,7.1-20.6,16-25.3,25.1
		c-7.4,14.2-9.5,33.9-8.8,46.8c0,0.3,0,0.6,0,1c0,1,0.2,1.8,0.3,2.8c0.4,3.4,1,6,1.7,7.6c0.3,1.4,0.7,2.7,1.1,4.2
		c0.4,1.2,0.7,2.5,1.1,3.7c0.5,1.4,1,2.7,1.5,4.1c0.8,1.9,1.9,3.5,3.1,5.3c0.8,1.1,1.5,2.3,2.2,3.5c1.5,2.3,3.5,4.3,5.2,6.4
		c0.7,0.8,1.4,1.6,2.1,2.4c1.5,1.8,3.3,3.2,5.2,4.5c1.7,1.2,3.5,2.3,5.4,3.5c1,0.6,1.8,1.3,2.8,1.9c0.2,0.2,0.2,0.4,0.4,0.6
		c1.2,1.8,2.4,3.5,3.5,5.2c0.6,1,1.2,1.8,1.8,2.8c0.5,0.8,1.1,1.5,1.7,2.2c1.4,1.7,2.8,3.4,4.3,5c1.4,1.5,2.7,3,4,4.4
		c0.3,0.4,0.6,0.8,1,1.1c0.4,0.4,0.8,0.8,1.2,1.2s1,0.8,1.4,1.2c0.4,0.3,0.7,0.6,1.1,0.9c1.6,1.2,3.3,2.4,5.1,3.3
		c1.5,0.7,3.1,1.3,4.8,1.8c1.8,0.7,3.7,1.5,5.6,1.5c0,0,0,0,0.1,0c1.4,0,3-0.5,3.9-1.5c0.5-0.5,0.9-1,1.2-1.6c0.2-0.3,0.3-0.6,0.5-1
		c0.3-0.3,0.6-0.7,1-1s0.6-0.6,0.9-1c0.6-0.7,1-1.5,1.4-2.4c0.9-1.8,1.4-3.8,1.9-5.7c0.4-1.8,0.7-3.5,1-5.4c0.4,0.3,0.7,0.6,1.1,0.9
		c2,1.8,3.9,3.9,5.9,5.8c1,1,2.2,2,3.3,3c1,0.9,2.2,1.6,3.3,2.3c1.3,0.8,2.8,1.5,4.3,1.5c1.9,0.1,3.5-0.7,4.9-1.7
		c2.4-1.7,3.6-4.5,4.6-7.2c0.5-1.4,0.9-2.8,1.2-4.2c0.4-1.5,0.7-3.1,0.8-4.7c0.1-1.2,0.1-2.5,0.1-3.7c0-1.1-0.1-2.2-0.1-3.3
		c0-0.2,0-0.3,0.1-0.4c0-0.1,0-0.1,0-0.1c0-0.1,0-0.1,0.1-0.2c0.1-0.1,0.1-0.2,0.2-0.3c0.2-0.3,0.5-0.6,0.7-1
		c0.1-0.1,0.2-0.2,0.2-0.2c0.6-0.5,1.2-0.9,1.9-1.3c0.6-0.4,1.2-0.7,1.9-1.1c0.8-0.4,1.5-0.8,2.3-1.2c0.7-0.3,1.4-0.6,2.2-1
		c1-0.5,1.9-1,2.8-1.6c1-0.6,1.9-1.6,2.7-2.5c1.4-1.6,2.5-3.5,3.2-5.5c0.3-1,0.6-1.9,1-2.8c0.2-0.3,0.2-0.6,0.4-1h0.1
		c0.5,0.2,1,0.4,1.4,0.6c0.2,0.1,0.3,0.2,0.5,0.3s0.3,0.2,0.4,0.3c0.4,0.4,0.7,0.7,1.1,1.1c0.6,0.7,1.2,1.5,1.8,2.2
		c0.3,0.5,0.6,1,0.9,1.5c0.4,1,0.8,1.8,1.1,2.8c0.4,1.3,0.7,2.6,1.2,3.9c0.6,1.5,1.2,2.8,1.9,4.2c0.6,1.3,1.5,2.5,2.3,3.7
		c0.9,1.3,1.8,2.5,2.8,3.6c1.9,2.2,4.3,4.3,6.8,5.9c0.8,0.5,1.8,0.8,2.6,0.9c0.8,0.1,1.6,0,2.4-0.1c1.9-0.2,3.5-1,5-2.2
		c1.1-1,2-2.1,2.7-3.4c0.5-0.8,0.9-1.6,1.3-2.5c0.8-1.6,1.3-3.4,1.7-5.1c0.2-0.9,0.3-1.7,0.5-2.6c0.2-1.6,0.5-3.1,0.7-4.7
		c0-0.2,0.1-0.2,0.1-0.4c0-0.1,0.1-0.1,0.1-0.2s0.1-0.1,0.1-0.2c0.1-0.2,0.2-0.2,0.3-0.4c0.3-0.3,0.6-0.6,1-1c0.3-0.2,0.7-0.6,1-0.8
		c1-0.6,2-1.2,3.1-1.7c1.1-0.6,2.3-1.3,3.3-2.2c2.1-1.8,4.2-3.6,6.2-5.5c0.8-0.8,1.6-1.6,2.5-2.4c0.9-0.9,1.8-1.7,2.6-2.6
		c1.3-1.5,2.5-3,3.2-4.7c0.2-0.5,0.4-1,0.5-1.6h471.8c0.2,0.6,0.2,1,0.5,1.6c0.8,1.8,1.9,3.3,3.2,4.7c0.8,0.9,1.7,1.8,2.6,2.6
		c0.8,0.8,1.6,1.6,2.5,2.4c1.9,1.9,4,3.8,6.2,5.5c1,0.8,2.2,1.5,3.3,2.2c1,0.6,2,1.1,3,1.7c0.4,0.2,0.7,0.5,1,0.8s0.6,0.6,1,1
		c0.1,0.2,0.2,0.2,0.3,0.4c0,0.1,0.1,0.1,0.1,0.2s0.1,0.1,0.1,0.2c0,0.2,0.1,0.2,0.1,0.4c0.3,1.5,0.5,3.1,0.7,4.7
		c0.2,0.9,0.2,1.8,0.5,2.6c0.4,1.8,0.9,3.5,1.7,5.1c0.4,0.8,0.9,1.7,1.3,2.5c0.7,1.3,1.6,2.4,2.7,3.4c1.5,1.1,3.1,1.9,5,2.2
		c0.8,0.1,1.6,0.2,2.4,0.1c1-0.1,1.8-0.4,2.7-0.9c2.5-1.6,4.8-3.6,6.8-5.9c1-1.2,1.9-2.3,2.8-3.6c0.8-1.2,1.6-2.4,2.3-3.7
		c0.7-1.4,1.4-2.7,1.9-4.2c0.5-1.2,0.9-2.6,1.2-3.9c0.3-1,0.7-1.9,1.1-2.8c0.2-0.6,0.6-1,0.9-1.5c0.6-0.8,1.1-1.5,1.8-2.2
		c0.3-0.4,0.7-0.8,1.1-1.1c0.2-0.1,0.2-0.2,0.4-0.3s0.3-0.2,0.5-0.3c0.5-0.2,1-0.4,1.4-0.6h0.1c0.2,0.3,0.2,0.6,0.4,1
		c0.3,1,0.6,1.9,1,2.8c0.7,2.1,1.8,3.9,3.2,5.5c0.8,0.9,1.7,1.8,2.7,2.5c0.9,0.6,1.8,1.1,2.8,1.6c0.7,0.3,1.5,0.6,2.2,1
		c0.8,0.4,1.6,0.8,2.3,1.2c0.6,0.3,1.2,0.7,1.8,1.1c0.6,0.4,1.2,0.9,1.8,1.3c0.1,0.1,0.2,0.2,0.2,0.2c0.2,0.3,0.5,0.6,0.7,1
		c0.1,0.1,0.2,0.2,0.2,0.3s0.1,0.1,0.1,0.2s0,0.1,0,0.1c0,0.2,0.1,0.3,0.1,0.4c0,1.1-0.1,2.2-0.1,3.3c0,1.2,0,2.5,0.1,3.7
		c0.1,1.6,0.4,3.1,0.8,4.7c0.3,1.5,0.7,2.8,1.2,4.2c1,2.7,2.2,5.5,4.6,7.2c1.5,1,3,1.8,4.9,1.7c1.5-0.1,3-0.7,4.3-1.5
		c1.1-0.7,2.3-1.5,3.3-2.3c1.1-1,2.2-2,3.3-3c2-1.9,3.9-3.9,6-5.8c0.3-0.3,0.7-0.6,1.1-0.9c0.2,1.8,0.6,3.6,1,5.4
		c0.4,1.9,1,3.9,1.8,5.7c0.4,0.8,0.8,1.7,1.4,2.4c0.2,0.3,0.6,0.6,0.9,1s0.6,0.7,1,1c0.2,0.3,0.3,0.6,0.5,1c0.3,0.6,0.7,1.1,1.2,1.6
		c1,1,2.6,1.5,3.9,1.5c0,0,0,0,0.1,0c2,0,3.9-0.8,5.6-1.5c1.6-0.6,3.2-1.1,4.8-1.8c1.8-0.9,3.5-2.1,5.1-3.3c0.4-0.2,0.8-0.6,1.1-0.9
		c0.5-0.4,1-0.8,1.5-1.2c0.4-0.4,0.8-0.8,1.2-1.2c0.4-0.3,0.7-0.8,1-1.1c1.4-1.5,2.7-3,4-4.4c1.5-1.6,3-3.2,4.3-5
		c0.6-0.7,1.1-1.5,1.7-2.2c0.6-0.9,1.2-1.8,1.8-2.8c1.1-1.8,2.3-3.5,3.5-5.2c0.2-0.2,0.2-0.4,0.4-0.6c1-0.6,1.8-1.3,2.8-1.9
		c1.8-1.1,3.6-2.2,5.4-3.5c1.8-1.4,3.6-2.8,5.2-4.5c0.7-0.8,1.4-1.6,2.1-2.4c1.8-2.1,3.8-4.1,5.2-6.4c0.7-1.1,1.5-2.3,2.2-3.5
		c1.1-1.7,2.2-3.4,3-5.3c0.6-1.4,1-2.7,1.5-4.1c0,0,7.8-19.8,8.4-36.4C925.7,650.4,896.9,616,896.9,616z M218.9,264.8
		c-0.4,1.6-1,3.2-1.5,4.7c-0.9,2.3-1.4,4.7-1.4,7.1c0.1,1.9-0.2,3.9-0.6,5.7c-1.6,8.4-2.4,16.8-2.2,25.3c0.1,4.6-0.2,9.2-0.2,13.9
		c0,2.4-0.5,4.6-2.2,6.4c-0.6,0.6-1,1.5-1.4,2.2c-0.4,0.6-0.9,1.1-1.4,1.6c-2.5,2.5-5.6,3.6-9.3,3.3c-0.1,0-0.2,0-0.3-0.1
		c-5.1-0.6-9.8-2.3-13.7-5.8c-7.1-6.3-13.1-13.4-16.9-22.2c-2.4-5.7-5-11.2-6.3-17.4c-1.3-6.2-1.9-12.5-0.7-18.7
		c0.6-3,0.5-6.2,1-9.2c1.8-9.7,4.4-19,9.5-27.6c0.7-1.2,1.4-2.5,1.9-3.8c1.3-3.2,3.1-6.3,5.2-9c3.1-3.9,5.8-8.1,8.6-12.3
		c1.8-2.6,3.6-5.3,5.6-7.9c0.7-1,1.4-2.1,2.7-2.6c0.6,1.1-0.2,1.9-0.6,2.6c-2.2,4.7-4.3,9.3-6.1,14.1c-1,2.5-1.7,5.1-2.2,7.7
		c-0.4,1.9-0.8,3.7-1.2,5.6c-0.2,1.1-0.5,2.2-0.8,3.4c-0.5,2.2-1,4.6-1.4,6.9c-1.6,8.5-1.4,17.1-0.6,25.7c0.2,2.6,0.7,5.1,1.1,7.6
		c0.2,1.1,0.4,2.2,1.4,3.4c2-4.7,3.3-9.3,4.7-13.9c1.4-4.5,2.6-9.1,5.4-12.9c-0.3,1.6-0.6,3.3-1,4.9c-0.9,4.2-1.4,8.4-1.7,12.6
		c-0.1,1.3-0.1,2.6,0.1,3.9c0.6,3.9,1.3,7.9,2.4,11.7c0.3,1.1,0.6,2.2,1.4,3.2c1.9-0.5,3.4-1.7,4.8-3c3-2.7,5.6-5.7,7.8-9
		c1.8-2.6,3.6-5.3,5.5-7.9c0.5-0.6,1-1.2,1.4-1.9c1.2-1.4,1.9-1.7,2.5-1.2C219.4,262.8,219.1,263.8,218.9,264.8z M809.3,518.8
		c7.6,8.8,17,15.3,27.4,20.3c5,2.4,10.4,3.8,15.8,4.7c1.2,0.2,2.6,0.2,3.7,1c-0.5,2.1-1.5,3.9-2.5,5.7c-3.1,5.8-6.9,11.1-11.1,16.2
		c-2,2.5-4.4,4.7-7,6.7c-2,1.6-3.9,3.3-5.7,5.1c-1,1.1-1.8,2.2-2.6,3.4c-2-0.3-3.9-0.7-6-1c-4.1-0.6-8.3-1-12.4-1.3
		c-0.5,0-1,0-1.5-0.1c1.6-4.6,3.6-8.9,6.4-13c3.1-4.7,5.8-9.7,9.2-14.2c0.5-0.6,0.9-1.3,1.1-2c0.6-1.8,0.2-3.3-1.3-4.4
		c-0.2-0.2-0.4-0.3-0.6-0.4c-9.9-6-19-13.2-27.7-20.8c-0.9-0.8-1.8-1.5-2.7-2.2c-11-8.7-20-19.2-28.1-30.5c-1.5-2-2.6-4.1-3.9-6.2
		c-0.3-0.6-0.6-1.1-0.3-1.9c1-0.5,2-0.2,3-0.2c5.3,0.2,10.5-0.5,15.6-2.1c1.9-0.6,3.1-0.2,4.3,1.4c1.8,2.2,3.7,4.3,5.6,6.4
		c1.1,1.3,2,2.6,2.8,4.2C796.3,502.5,802.4,510.9,809.3,518.8z M753.7,139.5c0.2-2.6,0.6-5.1,1.5-7.6c0.8-1.9,1-3.9,1-6
		c0-2.3,0.2-4.6,0.3-6.9c0.1-0.6,0.3-1.3,0.5-1.8c0.1-0.2,0.4-0.4,0.6-0.4c0.2,0,0.5,0.2,0.6,0.3c0.6,1,1,2.1,1.3,3.2
		c1.2,4.5,2.7,8.8,4.4,13.2c1.1,2.7,2.5,5.4,4.2,7.8c1.8,2.6,3.6,5.3,5.3,8c4.3,6.5,9.5,12.1,15.3,17.2c1.7,1.4,3.5,2.5,5.5,3.5
		c2.4,1.2,4.9,2.3,7.3,3.5c2.6,1.3,5,2.7,7.2,4.5c1.8,1.4,3.4,3.1,4.6,5.1c1.5,2.6,2.1,5.3,1.2,8.1c-0.4,1.4-0.5,2.7-0.5,4.2
		c0.2,4.1,0,8.2-0.6,12.3c-0.4,3.1-0.4,6.1,0.1,9.2c1.1,7.3-0.1,14.3-3.5,21c-0.6,1-1,2.1-1.5,3.1c-2.5,6.7-6,12.8-10.4,18.4
		c-3.8,4.7-8.5,8.1-14.5,9.6c-0.2,0.1-0.6-0.1-0.6-0.2c-0.2-0.2-0.2-0.5-0.2-0.6c0.6-1.1,1.3-2.2,2-3.2c0.8-1,1.7-1.9,2.6-2.8
		c1.5-1.5,2.5-3.3,2.9-5.3c0.4-2,0.9-4,1-6.1c0.7-12.5,0.2-24.9-3-37.1c-0.2-0.7-0.3-1.5-1.3-1.9c-0.4,1.1-0.7,2.2-1.1,3.3
		c-0.8,2-1.5,4.1-2.5,6c-1.5,3.2-3.7,5.8-6.7,7.8c-3.9,2.6-7.4,5.6-10.9,8.5c-0.4,0.3-0.8,0.8-1.2,1.2c-0.2-0.9,0.2-1.7,0.6-2.4
		c3.4-4.5,4.7-9.6,5-15.1c0.6-8.4,0.5-16.7-1.2-24.9c-1.1-5.4-3.3-10.2-7.4-14.1c-1.7-1.6-2.9-3.5-3.7-5.8c-1.1-3.1-1.9-6.1-2.2-9.3
		c-0.2-2.8-0.6-5.6-1.2-8.4C753.7,152.1,753.2,145.8,753.7,139.5z M764.7,238.4L764.7,238.4C764.7,238.5,764.7,238.5,764.7,238.4
		L764.7,238.4z M692,115.4c8.9,4.1,16.4,10.1,22.3,18c2.1,2.8,4.1,5.6,6.1,8.4c5.1,7.4,9,15.5,12,24c1.7,4.7,1,8.8-1.6,12.8
		c-3.7,5.6-7.3,11.2-11.8,16.2c-2.6,2.9-4.8,5.9-6.8,9.3c-0.2,0.5-0.6,0.9-0.8,1.3c-1.1,2,0.1,4.4,2.8,4.5c1.1,0,2.2-0.4,3.3-0.9
		c2.6-1.1,4.9-2.7,7.2-4.3c1-0.7,1.8-1.8,3.2-1.9c0.6,1-0.1,1.8-0.4,2.6c-0.9,2.8-1.8,5.6-2.5,8.5c-1,4.8,0,9.2,2.7,13.2
		c0.9,1.4,2,2.6,3.1,3.9c3.2,3.8,3.8,8,2.2,12.6c-0.7,2.2-1.8,4.3-2.9,6.3c-7.9,14.2-10.5,29.7-10.2,45.7c0.1,4.5-0.2,9-0.5,13.5
		c-0.9,11.9,0.1,23.6,2.7,35.2c1,4.3,2.3,8.4,4.2,12.4c1.9,4.2,4.8,7.6,9.1,9.6c0.6,0.2,1.1,0.6,1.8,0.7c1.8,0.5,3.4-0.3,4.1-2
		s0.9-3.5,0.5-5.3c-0.7-3.6-1.5-7.3-2.3-10.9c-0.3-1.4-0.6-2.7-0.9-4c0.8-0.3,1.2,0.1,1.5,0.4c5.2,4.9,11.2,8,18.4,8.8
		c0.4,0.1,0.8,0.2,1.1,0.3c0.5,0.2,0.8,0.6,0.7,1.2s-0.2,1.3-0.3,1.9c-0.6,4.7-0.4,9.5,1,14.1c1,3.3,2.2,6.6,3.9,9.6
		c3.5,6.8,8.7,11.7,15.2,15.4c3.6,2.1,7.6,3.1,11.8,3c0.8,0,1.5-0.1,2.3,0c0.6,0.1,1,0.5,0.7,1.1c-0.5,1.3-1,2.6-1.6,3.9
		c-1.8,3.6-4.4,6.6-7.2,9.5c-0.5,0.5-1,0.9-1.5,1.2c-6.3,3.7-13.2,6-20.6,5.3c-6.2-0.5-11.7-3-16.5-7c-4.5-3.6-8.6-7.7-12.2-12.2
		c-7.7-9.6-13.6-20.3-18-31.8c-3.6-9.6-5.9-19.5-7.7-29.4c-2.1-11.6-2.5-23.2-1.9-35c0.2-6.4,0.6-12.9,0.7-19.3
		c0.2-11.6-0.6-23.1-2.2-34.6c-0.6-4.4-1-8.9-1.8-13.3c-1.6-9.6-4.1-18.9-8.6-27.5c-2.1-4-2.2-7.7-0.2-11.7c2.9-6.4,5-12.9,5.9-19.9
		c1.5-12.1,0.1-23.5-5.8-34.3c-6.8-12.6-16.2-22.8-28-30.7c-3.5-2.4-7.3-4.3-11.4-5.6c-1.7-0.6-3.4-1.1-5-2.1
		c-0.5-0.3-0.7-0.6-0.6-1.1C665.2,106,678.9,109.4,692,115.4z M681.9,71.5l-0.2,0.2h-0.1L681.9,71.5z M614.3,67.8
		c0.6-3.4,2.5-6.1,5.2-8.4c1.4-1.1,2.9-1.5,4.7-1.2c1.7,0.3,3.1,1,4.6,1.8c2.4,1.5,4.8,2.9,7.2,4.4c2.6,1.6,5.3,2.5,8.4,2.5
		c5-0.1,10,0,15-0.7c5.1-0.7,10-0.3,14.7,1.8c2,0.9,4.1,1.4,6.2,2.2c0.6,0.2,1.5,0.4,1.5,1.4c-2.2-0.6-4.4-1-6.8-1
		c-1.8-0.1-3.5,0.1-5.3,0.6s-3.8,0.9-5.6,1.2c-6.4,0.9-12.3,3.5-18.3,5.6c-1.9,0.7-3.9,1.4-5.8,2c-3.9,1-7.6,0.6-11.3-0.8
		c-1-0.4-1.5-0.2-1.8,0.8c-1.8,4.4-2.6,8.8-1.1,13.5c0.1,0.3,0.1,0.7,0.2,1c-0.6,0.6-1,0.1-1.3-0.2c-2.5-2.7-4.8-5.3-6.8-8.4
		C614.2,80.3,613,74.2,614.3,67.8z M609.9,145.2c1.2-3.9,5.6-6.6,9.7-6.1c0.2,0,0.5,0.1,0.7,0.2c3.5,1,6.6,0.7,10-0.7
		c4.1-1.8,8.4-1,12.1,1.6c5,3.5,8.8,7.8,11.1,13.5c1.4,3.5,2.5,7,3,10.7c0.2,1.1,0.5,2.2,0.8,3.4c0.4,1.2,1.3,1.9,2.7,1.9
		c1.5,0,3-0.2,4.6-0.6c0.6,1.4,0.7,2.9,0.7,4.3c0,1-0.3,2.1-1.1,2.7c-1.6,1.3-2.2,3.1-3.1,4.7c-1,2.1-2.3,4-4.3,5.3
		c-1.1,0.7-2.2,1.2-3.5,1.4c-2.5,0.2-4.3-0.9-5-3.3c-1.2-4.5-3.9-8-7.2-11.2c-2.2-2.1-4.5-4.3-6.5-6.5s-4.3-4.1-6.8-5.7
		c-2.8-1.8-5.5-3.8-8.3-5.7c-1.9-1.4-3.8-2.6-6-3.5c-0.7-0.2-1.4-0.6-2-1.1C609.8,149.2,609.3,147.3,609.9,145.2z M641.2,240.5
		c-2.6,3.9-5.4,7.5-8.8,10.6c-5.8,5.2-12.5,6.3-19.8,4.5c-7.7-1.9-14.6-5.5-20.3-11.2c-3.3-3.4-6.5-6.9-9-11
		c-1.3-2.1-2.7-4.1-4.5-5.7c-0.3-0.2-0.6-0.6-0.8-0.9c-5.1-5.8-6.3-8.4-7-16.2c0-0.2,0.2-0.5,0.2-0.7c1,0.2,1.3,1.2,1.8,1.9
		c2.4,3.8,4.7,7.6,7.2,11.3c3,4.4,7.3,7.2,12.3,8.8c4,1.3,8.3,1.7,12.5,1.5c3.4-0.2,6.6-0.9,9.4-2.9c0.8-0.6,1.8-1,2.7-1.6
		c4.9-2.8,7.6-7.1,8.7-12.5c0.4-2.2,0.5-4.3,0.7-6.5c0.1-1.4,0.3-2.8,0.6-4.2c0-0.2,0.3-0.4,0.6-0.4s0.6,0.2,0.6,0.3
		c0.3,0.4,0.6,0.9,0.7,1.3c0.2,2.3,1,4.5,2.1,6.6c1.3,2.4,1,5,0.2,7.5c-3.9,11.4-12.3,19.5-27.2,20.8c-0.4,0-0.7,0.1-1.1,0.2
		c-0.2,1,0.6,1,1.1,1.2c4.3,1.8,8.8,3,13.3,3.4c1,0.1,2,0.2,3,0.4c4.8,0.5,9.4-0.2,13.6-3c2.6-1.7,5.5-3,7.6-5.3
		c-0.1,0-0.1-0.1,0-0.1l0,0l0,0c0,0,0,0,0.1,0h-0.1C641.8,239.4,641.6,239.9,641.2,240.5z M585.3,205.4c1.6,6.4,6.3,9.4,12.2,10.9
		c2.2,0.6,4.6,0.5,6.9,0.2c4.3-0.4,7.5-2.6,9.3-6.4c1-2.2,1.9-4.5,2.9-6.7c0.8,0.2,1.1,0.7,1.5,1.3c0.6,1.1,2.2,1.6,2.2,3.1
		c0.1,1.6-0.8,3-1.5,4.3c-1.5,2.9-3.5,5.5-5.7,7.7c-1.6,1.6-3.9,2.6-6,3.2c-3.8,1.1-7.5,1.2-11.3-0.1c-7.2-2.4-11.3-7.7-14.3-14.2
		c-0.9-1.9-1.5-3.9-2.5-5.6c-0.6-1-0.7-1.9,0.2-2.8c1-1.1,1.7-2.5,2.2-4c0.2-0.6,0.5-1.2,0.9-1.7c0.3-0.4,0.9-0.6,1.4-0.3
		c0.3,0.2,0.6,0.5,0.6,0.8c0.2,0.5,0.2,1,0.1,1.5C583.9,199.6,584.6,202.5,585.3,205.4z M597.2,196.5c-0.1-2.5,0.8-4.8,2.6-6.8
		c0.6-0.6,1.2-0.7,2-0.3c2.5,1.4,4.6,3.3,6.3,5.5c1.3,1.6,1.4,3.5,1.2,5.5c0,0.2-0.2,0.5-0.2,0.7c-1,2.6-6,4-8.4,2.5
		C598.5,202,597.2,199.5,597.2,196.5z M641.7,238.7L641.7,238.7C641.8,238.6,641.8,238.7,641.7,238.7
		C641.8,238.7,641.7,238.7,641.7,238.7z M596.2,164.6c3.1-0.7,6.1-0.4,9.1,0.7c4,1.5,7.6,3.6,11.1,6.2c2.9,2.1,4.8,4.9,6,8.3
		c1.7,4.8,2.8,9.9,4,14.9c0,0.1-0.1,0.2-0.3,0.6c-1.8-0.9-3.3-2.3-4.7-3.8c-1.7-1.8-3.3-3.6-4.5-5.8c-3.2-5.7-8.5-8.8-14.5-10.6
		c-0.6-0.2-1.3-0.3-1.9-0.3c-5.3,0-10.5,0.6-15,3.9c-1.8,1.4-3.5,3-5.4,4.4c-0.6,0.5-1,1.3-2.1,1.2c0.3-3.1,0.4-6.4,2.8-8.8
		c0.8-0.8,1.5-1.9,2.1-2.7C586.3,168.2,591,165.8,596.2,164.6z M535.2,135.8c0.9-2.4,1.5-4.9,1.8-7.4c0.7-4.6,3.9-7.7,8.1-8.9
		c3.5-1,5.6-2.8,7-5.9c0.8-1.9,2.2-3.5,3.9-4.7c4.3-3.6,8.9-6.4,14.2-8.5c2.1-0.8,4.2-1.1,6.3-0.4c1.6,0.5,3.2,1,4.8,1.4
		c1.8,0.6,3,1.8,3.9,3.5c1.8,3.7,2.2,7.3-0.1,11c-1.6,2.5-3,5.1-4.9,7.4c-1.9,2.4-2.9,5.1-3.2,8.1c-0.2,1.7-0.4,3.3-0.8,4.9
		c-0.8,3.5-2.2,6.6-4.7,9.1c-2.5,2.6-5,5.2-7.6,7.6c-3.8,3.5-8.2,6.2-13,8c-5,1.9-9.2,0.8-12.9-3.2c-3.1-3.4-4.7-7.2-4.7-12.5
		C533.4,142.5,534,139.1,535.2,135.8z M429.1,106.3c5.5-1.4,11.1-2.4,16.7-0.9c2.5,0.6,4.7,1.8,6.9,3.3c5.1,3.8,9.2,8.5,12.9,13.7
		c2,2.8,3.1,5.9,3.4,9.3c0.2,1.8,0,3.6,0,5.4c-0.5,4.1,0.3,7.9,2.2,11.6c0.6,1,0.8,2.2,1,3.3c0.2,1.9-0.6,3.1-2.3,3.9
		c-1.1,0.5-2.2,0.6-3.4,0.5c-3.5-0.5-6.8-1.1-9.6-3.4c-2.4-1.9-5.1-3.4-7.9-4.8c-2.2-1.2-4.6-2.3-6.8-3.5c-0.9-0.5-1.9-0.9-2.8-1.3
		c-2.2-1.1-5-0.3-7.1-1.4c-2.1-1-4-2.2-6.4-2.6c-2.2-0.3-4.2-1.3-6-2.6c-1.5-1.2-3-2.3-4.5-3.6c-4.3-3.7-5.9-8.6-6-14.1
		c0-2.2,0.6-3,2.6-3.6c1.4-0.4,2.7-0.7,4.2-0.2c0.5,0.2,1,0.2,1.5,0.3c3.5,0.5,5.5-0.5,6.2-4.1C424.8,108.4,426.5,107,429.1,106.3z
		 M401.3,252c-3.9,1.1-7.8,1.5-11.8,1.1c-3.6-0.4-7.1-0.7-10.6-1.7c-7.3-2-13.4-5.7-17.7-12.1c-1.3-1.9-2.6-3.8-3.9-5.8
		c-2.1-3.3-3.2-6.8-3.6-10.9c1.1,0.1,1.4,1.1,1.6,1.9c2.1,4.9,5.7,8.5,9.5,12.1c1,0.9,1.9,1.8,3,2.3c8,4,16.6,5.4,25.5,4
		c0.4-0.1,0.8-0.1,1.1-0.2c0.2-0.1,0.5-0.3,0.5-0.5s-0.2-0.6-0.3-0.6c-1.9-0.6-3.9-1.2-5.9-1.9c-3.5-1.4-6.5-3.5-8.8-6.6
		c-3.8-5.1-7.3-10.2-8.9-16.5c-1-3.7-0.6-5.9,1.7-9.8c0.6-0.1,0.6,0.3,0.6,0.6c0.2,3.5,1.5,6.4,3.5,9.2c2.1,2.9,4,5.9,6.3,8.8
		c2.3,2.8,5.1,5.1,8,7.1c1.9,1.4,4.2,2.1,6.5,2.3c4.3,0.4,8.7,0.6,13-0.6c6-1.7,10.2-5.3,12.7-10.9c1.2-2.6,2.1-5.2,2.7-8
		c0.2-1.1,0.6-2.2,0.9-3.4c0.1-0.2,0.3-0.4,0.5-0.5c0.2,0,0.6,0.2,0.6,0.3c0.6,4.4,2.2,8.7,1.7,13.3c-0.2,1.2-0.3,2.2-0.8,3.3
		c-1,2.1-2,4.2-3,6.2c-2.7,5.5-6.4,9.8-12.1,12.5C409.5,249,405.5,250.8,401.3,252z M410.4,275.4
		C410.4,275.4,410.5,275.4,410.4,275.4C410.4,275.4,410.4,275.5,410.4,275.4C410.4,275.5,410.4,275.4,410.4,275.4z M414.9,208.8
		c1.5-2.4,2.3-5.1,3-7.9c0.2-0.7,0.4-1.4,0.7-2.2c0.2-0.5,0.7-0.7,1.3-0.6s1,0.5,1,1c0.1,1.1,0.2,2.3,0.1,3.5
		c-1.2,7.8-4.9,14.3-10.8,19.4c-2.6,2.2-5,3-9,3.1c-3.1-0.1-6.5-1.4-9.8-3.8c-3.2-2.2-5.1-5.1-6.8-8.6c-1.1-2.3-1.7-4.8-2.4-7.3
		c-0.5-1.5-0.1-2.4,1-3.3c0.2-0.2,0.4-0.3,0.6-0.5c0.7-0.6,1.6-0.5,1.9,0.3c0.5,1.2,1,2.4,1.3,3.6c0.5,2.2,1.3,4.2,2.3,6.1
		c0.9,1.8,2.1,3.2,3.6,4.4c1.5,1.1,3,1.7,4.9,2C406.1,219.4,411,215,414.9,208.8z M400.9,189.4c0.8-2.3,1.9-3.1,4.6-3.1
		c0.5,0.1,1.2,0.1,2,0.2c1,0.1,1.7,0.5,2.1,1.4c0.9,2,2.2,3.8,3.8,5.3c0.7,0.6,0.6,1.4,0.1,2c-0.3,0.4-0.6,0.8-0.9,1.3
		c-1.4,2.7-3.7,3.3-6.5,2.7c-2.6-0.6-4.4-1.9-5.1-4.6C400.5,192.9,400.2,191.1,400.9,189.4z M421,183.7c-0.9,0.2-1.4-0.5-2-0.9
		c-2.8-1.9-5.8-3.3-8.9-4.4c-2.2-0.8-4.4-1.1-6.8-1.2c-0.1,0-0.2,0-0.2,0c-1.8,0-3.5,0.2-5,0.5c-5.7,1.3-10.1,4.7-13.6,10.1
		c-0.2,0.4-0.5,0.8-0.7,1.3s-0.5,1-0.7,1.4c-0.9,1.8-2.1,3-3.6,3.9c-1.1,0.7-2.5,1.2-3.9,1.5c-0.2,0.1-0.5-0.2-0.9-0.3
		c1.9-5.1,3.5-10.4,6-15.3c1-2.1,2.8-3.7,4.6-5.1c3.5-2.8,7.3-5.1,12-5.7c2.2-0.2,4.6-0.6,6.8-1c1.9-0.4,3.5-0.1,5.3,0.4
		c1.9,0.6,3.6,1.4,5.2,2.4c2.2,1.3,3.8,3,4.4,5.6c0.4,1.8,1.2,3.4,1.8,5.1C421,182.4,421.3,183,421,183.7z M369.9,87.1
		c0.3-4.7,2.1-8.7,5-12.3c2.6-3.3,5.8-6.2,9.5-8.3c4-2.3,8-4.7,12.2-6.6c5.1-2.2,10.2-3.4,15.8-2.3c1.6,0.3,3.3,0.5,5,0.2
		c1.7-0.2,3.3,0.2,4.9,0.6c0.3,0.1,0.9,0.2,0.7,0.7c-0.1,0.3-0.4,0.6-0.6,0.8c-0.4,0.3-0.9,0.5-1.4,0.7c-8.8,3.5-16.7,8.4-24.4,13.8
		c-9.5,6.8-17.2,15-22.4,25.4c-1.2,2.3-3,4.1-5.9,5.8C369.7,99.1,369.5,93.1,369.9,87.1z M352.5,157.9c0.1,0.4,0.2,0.7,0.2,1.1
		c1.5-0.2,2.1-1.4,2.9-2.4c1.9-2.4,3.7-4.9,5.6-7.3c4.3-5.3,9.9-8.9,16.1-11.6c3.6-1.6,7.5-1.7,11.3-1.3c1.9,0.2,3.7,1,5.2,2.2
		c2.7,2.2,3.5,5,2.1,8.2c-1.5,3.5-4.1,6.2-7.5,8c-3.2,1.6-6.6,2.8-10,3.9c-4,1.2-8,2.6-12.1,3.9c-4.4,1.4-7.9,4.1-10.7,7.9
		c-2.7,3.6-5.5,7.1-6.6,11.7c-0.3,1.1-0.8,2.2-1.5,3.1c-0.1,0.2-0.2,0.3-0.4,0.5c-0.7,0.7-1.8,1-2.7,1c-1-0.1-1.9-0.6-2.4-1.5
		c-0.7-1.1-1-2.4-1.1-3.6c-0.3-3.9-0.6-8-0.9-11.9c-0.2-2.8,0.3-5.6,1-8.4s2-5.2,4.9-6.5C349.3,153.3,351.7,154.5,352.5,157.9z
		 M252.6,223.1c0.6-20.7,5.9-40.1,14.1-58.8c2.2-5.1,4.7-10,7.2-14.9c3.9-7.7,9-14.6,14.5-21.4c2.5-3.1,5.8-5.1,9.6-6.2
		c0.5-0.2,1-0.1,1.5-0.2c0.2,1.2-0.7,1.7-1.2,2.2c-3.8,4.1-7,8.6-9.9,13.3c-2.7,4.4-4.3,9.2-5.1,14.5c-0.2,1.8-0.2,3.6,0.3,5.3
		c0.9,2.5,3.2,3.5,5.5,2.3c1.5-0.7,2.5-1.9,3.5-3.1c1.9-2.6,3.8-5.1,5.7-7.8c6.5-8.8,13.3-17.4,21.5-24.7c1-1,2.2-1.8,2.9-3.1
		c1.2-1.9,2.9-3.2,4.7-4.5c5-3.5,10-6.8,15.6-9.2c0.7-0.3,1.5-0.6,2.2-0.9c0.7-0.2,1.3,0.2,1.4,0.9c0.1,2.3-0.2,4.7-1.1,6.8
		c-1.2,2.6-2.6,5.1-4.5,7.2c-2.6,2.9-4.8,6-6.1,9.7c-0.6,1.9-1.9,3.7-3.4,5.1c-10.9,10.3-17.8,23.1-24,36.5
		c-5.1,11-8.4,22.6-11.2,34.4c-1.9,8.3-3.7,16.6-5.1,24.9c-1.6,9.6-1.9,19.4-1.7,29.2c0.2,8.1,0.8,16.2,1.9,24.2
		c0.2,1.3,0.4,2.6,0.6,3.8c2,8.9,5.5,17.4,10,25.4c1.4,2.5,3.2,4.7,5.1,6.8c1.3,1.4,1.7,2.7,1.4,4.6c-0.2,1.4-0.2,2.8-0.5,4.2
		c-1.2,6.7-0.5,13.3,0.6,19.9c1,6.4,3.2,12.5,5.3,18.5c0.9,2.4,1.6,4.9,2.2,7.4c0.8,3.4,2,6.6,3.5,9.7c5.1,10.6,6.9,21.6,4.7,33.4
		c-1.4,7.2-3.9,13.8-7.6,19.9c-1,1.7-2.2,3.4-3.4,5c-0.7,1-2.3,2.9-2.3,2.9l0,0c0,0-0.6,0.6-0.8,1c-3,3.5-6.6,6.2-10.5,8.4
		c-2.6,1.5-5.3,2.6-8.2,3.5c-6.4,2.1-12.9,2.2-19.2-0.6c-5-2.2-8.4-5.9-10.5-10.9c-2-4.9-3.2-10-4.2-15.2c0.5-0.1,0.9,0,1.3,0.5
		c1,1.3,1.9,2.7,2.5,4.3c1.5,4.4,5,7.4,7.9,10.9c4.3,2.3,8.7,3.9,13.6,1.7c1.9-0.9,3.5-2,5.2-3.3c5.4-4.1,8.9-9.6,11.2-15.8
		c2.1-5.7,3.8-11.5,4.6-17.5c0.5-3.7,0.7-7.4,0.5-11.2c-0.2-4.3-0.1-8.8,0.4-13.1c0.6-5.6,0.2-11.3-0.7-16.9
		c-0.4-2.4-0.9-4.8-1.2-7.2c-1-8.8-4.7-16.8-9.1-24.4c-1-1.7-2.2-3.1-3.6-4.5c-3-2.9-6.1-5.5-9.6-7.6c-1-0.6-1.6-1.2-2-2.2
		c-3-7.6-4.7-15.5-3.6-23.7c0.2-1.8,0.7-3.5,1.4-5.2c1.6-4.2,0.7-7.9-2.6-10.9c-9.9-8.7-15-20-18.3-32.4
		C253.1,244,252.3,233.6,252.6,223.1z M232.9,491.3c4.6-1.5,8.6-4,12.3-7.1c1.7-1.4,3.2-3,4.3-4.9c1.6-2.8,4.3-4.7,6.4-7.6
		c0.8,1,1.5,1.8,2.2,2.5c5,5,10.7,8.8,17,11.8c5.3,2.5,10.9,2.6,16.6,1.7c2.2-0.4,4.5-1,6.7-1.9c7.4-3,14.5-6.5,20.9-11.5
		c5.5-4.3,9.9-9.7,13.4-15.8c5.3-9.1,8.6-18.9,10.2-29.3c0.9-5.8,0.3-11.6-0.6-17.3c-0.6-3.7-1.3-7.3-1.6-11.1
		c-0.6-7.6-3-14.9-5.5-22c-1.6-4.6-3.5-9.2-5.1-13.8c-0.6-1.8-1.3-3.6-1.9-5.5c-2.1-6.1-1.1-12.2,0.2-18.2c0.7-3.1,1.9-6.1,2.7-9.2
		c0.3-1.1,1-1.7,2.2-1.9c1.7-0.3,3.2-0.8,4.7-1.7c2.7-1.6,5.7-2.2,8.8-2.6c6.9-0.8,13.8-1,20.8-0.3c0.6,0.1,1.3,0,1.9,0
		c-0.1-0.3,0-0.6-0.2-0.7c-2.3-1.8-3.8-4.1-4.7-6.8c-0.8-2.2-2.1-4.4-3.1-6.6c-0.2-0.3-0.2-0.8,0.2-1c0.2-0.1,0.6-0.1,0.7,0.1
		c1.2,0.7,2.4,1.5,3.5,2.3c1.5,1,2.9,1.5,4.7,1.6c5,0.5,10,0.5,15,0.1c3-0.2,5.9-0.8,8.6-1.9c4.1-1.6,8.1-3.3,12.1-5.1
		c1-0.5,2-1,3-1.6c1.5-0.9,2.6-2.1,3.1-3.7c1-2.5,1.7-5,2.3-7.6c0.1-0.3,0.2-0.6,0.2-0.9c0.5-2.2,1-4.5,1.6-6.8
		c1.5-5.7,4.1-10.8,8.2-15.1c2.2-2.3,4.3-4.7,6.6-7.1c-0.6-0.7-1.1-0.2-1.6-0.1c-1.6,0.6-3.1,1.2-4.7,1.6c-4.5,1.1-8.3,3.5-11.7,6.5
		c-0.9,0.8-1.8,1.5-2.7,2.3c0.1,0,0.1,0.2-0.1,0.1l0,0l0,0c0,0,0,0-0.1,0h0.1c0-1.2,0.8-2.1,1.5-3c2.2-2.8,4.3-5.8,6.8-8.4
		c4.3-4.3,9-8.1,14.2-11.1c3.1-1.8,6.8-2.3,10.3-3.2s7.1-1,10.7-1c3.5,0.2,6.9,0.2,10.4,0.4c4.7,0.2,9.2-0.8,13-3.8
		c1.6-1.3,3-2.7,4.1-4.5c1-1.6,1-1.6-0.2-3.3c-1.6-2-2.2-4.3-2.3-6.8c-0.2-4.7,0.1-9.5,1-14.2c1.5-7.1,3.1-14.3,5.8-21.1
		c2.6-7,4.2-14.3,6.4-21.4c3-9.7,4.5-19.8,5.1-30c0.6-8.6-0.8-16.9-4-24.9c-1.2-3-2.2-6-4-8.8c-0.9-1.4-1.1-2.8-1-4.4
		c0.1-2.7,0.2-5.4,0.2-8.1c0-2.6,0-5.1-0.1-7.7c-0.1-3.1-0.8-6.1-2.3-8.8c-1-1.8-1.2-3.5-1.1-5.6c0.1-6.3,0.3-12.6-0.4-18.9
		c-0.8-7-2.3-13.7-5.7-19.8c-1.2-2.1-0.6-4.3-0.4-6.4c0-0.2,0.5-0.6,0.8-0.6c0.9-0.2,1.8-0.2,2.6-0.2c6-0.1,12.1-0.1,18.1-0.1
		c3,0,6,0,8.8,0c3.3,0,5,1.9,4.4,5.1c-0.4,2-1,3.9-1.5,6c-2.1,8.2-4.1,16.5-4.3,25c0,0.9-0.2,1.8-0.3,2.7c-0.3,2.8-0.6,5.6-0.1,8.4
		c0.5,3,0.6,5.9,0.6,8.8c0.2,5.8,0.4,11.6,0.6,17.4c0.3,6.8,0.8,13.6,2.2,20.3c0.8,3.7,0.9,7.4,1.3,11.1c1.2,10.3,1.4,20.5,0.4,30.8
		c-0.3,3.2-0.5,6.4-1,9.6c-1,6.6-0.6,13.1,0.4,19.6c0.3,2.3,0.5,4.6,0.6,6.9c0.4,6.9,0.9,13.8,1.4,20.7c0.3,4.2,1.6,8,3.7,11.7
		c1.4,2.5,3.1,4.7,5.4,6.5c1.6,1.3,3.2,2.6,4.8,3.9c2.8,2.3,6,3.9,9.4,5.1c2.7,0.9,5.5,1.4,8.3,1.4c2.2-0.1,4.3,0,6.6-0.1
		c3-0.1,5.9,0.6,8.4,2.1c2.3,1.4,4.7,2.6,7.2,3.9c0.5,0.2,1,0.5,1.4,0.7c4.3,2.4,7.9,5.7,10.9,9.6c4.5,5.6,8.6,11.6,11.9,18
		c0.3,0.7,0.7,1.4,1.1,2c1.8,3.4,4.7,5.5,8.4,6.2c4.7,1,9.3,1.7,14.1,2.6c1.6,0.3,3-0.4,4.5-0.7c0.3-0.1,0.7,0.2,1,0.4
		c0.2,0.1,0.2,0.6,0,0.7c-2.2,3-2.7,7.1-6,9.2c-0.6,0.4-0.7,1-0.3,1.6c1.5,2.1,3,4.2,4.6,6.2c1,1.2,2.2,2.2,3.6,2.8
		c4,1.9,8.4,2.6,12.8,2.6c2.6,0,5.1-1,7-2.9c3-2.8,6.6-3.8,10.5-4.1c2.9-0.2,5.6,0.2,8.2,1.6c3.3,1.8,6.6,3.5,9.9,5.2
		c1.8,1,3.5,2.2,4.7,3.9c1.5,1.7,2.8,3.3,4.2,5.1c3.1,4,6.9,7.2,11.6,9.3c0.6,0.2,1.1,0.6,1.8,0.8c0.8,0.4,1.1,1,1,1.9
		c0,0.2,0,0.5,0,0.8c-0.4,7.4,0.5,14.6,1.5,21.9c0.6,4.5,1.6,8.8,3,13.1c0.7,2.2,1.5,4.3,2.2,6.6c2.4,9.2,6.7,17.5,11.5,25.6
		c2.3,3.9,5.1,7.4,8.4,10.5c6,5.8,12.4,10.8,20,14.2c4.6,2.1,9,4.3,13.9,5.6c6.8,1.8,13.5,1.7,20.3,0.8c1.4-0.2,2.7-0.6,4.2-0.9
		c0.7-0.2,1.3,0,1.7,0.6c0.2,0.3,0.4,0.6,0.6,1c2.4,5,6.5,8.2,11.4,10.5c1.1,0.6,2.3,1,3.5,1.5c0.2,1.1-0.7,1.4-1.3,1.8
		c-6.2,4.2-12.9,7.6-19.8,10.4c-3.4,1.4-6.9,1.9-10.5,1.9c-6.4-0.2-12.9-0.5-19.2-1.5c-2.7-0.4-5.4-0.6-8-0.4
		c-1.7,0.1-3.3,0.6-4.7,1.5c-3,2-4.1,5.5-2.8,8.8c0.1,0.1,0.1,0.2,0.2,0.3c2.9,4.5,4.4,9.6,6.8,14.3c2.2,4.7,5,9,8.5,12.8
		c0.4,0.5,1,0.9,0.8,1.6c-0.8,0.6-1.7,0.5-2.6,0.5c-7.1,0.3-14.2-0.1-21-2.1c-5.2-1.5-10.5-2.8-15.8-3.7c-2.7-0.5-5.2-1.4-7.5-3
		c-1.6-1.1-3.2-2.2-5.1-2.7c-3.4-1-6.4-0.5-8.8,2.2c-1.5,1.8-2.2,3.9-2,6c0.1,0.9,0.4,1.9,1,2.7c4.5,7.7,4.2,16,3,24.4
		c-0.9,5.9-3,11.4-5.6,16.7c-0.2,0.4-0.4,0.9-1,1c-0.6-0.2-0.8-0.6-1-1.1c-4-8.4-10.5-14.5-18-19.7c-2.6-1.7-5.2-3.3-8-4.7
		c-1.7-0.9-2.8-2-3.7-3.7c-2.2-4.2-5.5-7.4-9.6-9.8c-2-1.2-4.2-1.9-6.5-2.3c-2.7-0.5-5.1,0-7.4,1.4c-1.2,0.7-2.4,1.5-3.4,2.6
		c-5.2,6-10.7,11.8-13.3,19.6c-0.9,2.7-2.2,5.1-4.3,7.2c-1.6,1.7-2.6,3.9-3.6,5.9c-4.8,9.1-9.9,18-15.6,26.6c-1.9,3-4.3,5.4-7.4,7.2
		c-1.8,1-3.5,2.2-5.3,3.2c-1.2,0.6-2.6,1.1-3.9,1.7c-0.8,0.3-1.4-0.2-1.2-0.9c1-5.5,2.2-11.1,4.3-16.4c1.4-3.4,2.4-6.8,3.9-10
		c1.7-3.6,0.2-6.5-1.5-9.4c-1.1-2.1-4.1-2.7-6.6-1.6c-1,0.4-1.8,1-2.7,1.6c-1.6,1.3-3.1,2.7-4.3,4.3c-1.1,1.5-2.6,2.8-4,4.1
		c-3.5,3.1-6.3,6.7-8.9,10.6c-3.3,5.1-7.2,9.7-11.7,13.8c-3,2.8-6.3,4.7-10.4,5.5c-8,1.8-16,2.2-24.1,1.6c-6.6-0.5-13-1.5-19.1-4.2
		c-7.2-3.1-14.1-6.9-20.7-11.2c-2.6-1.7-5-3.6-7.6-5.2c-3.4-2-5.5-5-6.9-8.5c-0.7-1.8-1.5-3.5-2.8-5.1c-0.8-1-1.7-1.9-2.7-2.7
		c-2.6-1.9-5.1-1.7-7.1,0.7c-0.9,1-1.8,2.2-2.4,3.5c-2.5,5.1-5.5,10-6.4,15.7c0,0.2-0.1,0.2-0.1,0.4c-0.2,0.8-0.8,1-1.5,0.5
		c-1.5-1.2-3-2.5-4.3-3.8c-2.5-2.4-4.9-4.9-7.2-7.5c-4.4-4.8-8.8-9.7-13.1-14.6c-3.6-4.2-7-8.6-9.6-13.5c-1.5-2.7-3.3-5.2-5.3-7.6
		c-2.1-2.3-3.9-4.7-5.5-7.5c-0.6-1-1.3-1.9-2.1-2.7c-0.7-0.8-1.8-1.1-2.8-0.7c-1.1,0.4-1.9,1.2-2.1,2.5c-0.1,0.6-0.1,1.3-0.1,1.9
		c0.2,6.4,1,12.8,3,19c0.8,2.3,1.4,4.7,1.9,7.1c1.4,5.9,3.6,11.5,5.5,17.2c0.3,1,0.9,1.8,0.8,2.9c-0.6,0.6-1.2,0.2-1.9,0
		c-4.3-1.1-8.4-2.6-12.2-4.7c-3.7-2-7.5-3.9-11.2-6c-3.6-2-6.8-4.7-9.6-7.7c-3.6-4-6.7-8.4-9.5-13.1c-2.2-3.7-3.4-7.8-3.7-12.1
		c-0.3-4.5-0.2-9,0.6-13.4c0.6-3.5,1.2-7.1,1.9-10.6c0.1-0.6,0.1-1.1-0.2-1.6c-0.1-0.2-0.2-0.3-0.4-0.5c-0.8-0.6-1.7-0.5-2.5,0.1
		c-1.5,0.9-2.4,2.3-3.3,3.7c-2.6,4.3-4.8,8.8-6.1,13.7c-0.5,1.9-1.3,3.4-2.6,4.5c-0.1,0.1-0.2,0.2-0.2,0.2
		c-4.6,5.1-9.4,9.9-14.1,14.7c-5.3,5.4-10.3,11.2-15.3,16.8c-3,3.4-5.5,7.1-7.9,10.9c-0.5,0.8-0.8,1.9-1.9,2.3
		c-0.9-0.6-0.6-1.6-0.7-2.4c-0.2-0.9-0.2-1.8-0.2-2.7c0.2-6.9,0.6-13.8,2.3-20.7c1.1-4.7,2.6-9.2,4.7-13.4c1.2-2.6,2.3-5.1,3.5-7.7
		c0.7-1.5,1.2-3.1,1.4-4.8c0.4-5.8-4.8-9.6-10-7.2c-2.3,1.1-4.7,2.2-7,3.2c-3,1.4-6.1,1.9-9.4,1.9c-6.7,0.2-13.3-0.3-19.9-1.5
		c-6.7-1.2-12.7-4-18.4-7.6c-0.1-0.1-0.1-0.2-0.2-0.4C231.1,491.6,232.1,491.6,232.9,491.3z M210.8,580.4c1.8-1.7,3.7-3.2,5.6-4.7
		c4.7-3.8,8.9-8.2,12.5-13c3-3.9,5.9-7.8,8.9-11.6c5.6-7.2,9.8-15,12.9-23.5c0.3-0.8,0.6-1.7,0.9-2.6c0.6-1.6,2.1-2.2,3.7-1.5
		c0.2,0.2,0.6,0.6,0.6,0.9c0,0.9-0.1,1.8-0.2,2.7c-2,10-4.3,20.1-7.1,30c-2.7,9.6-6.8,18.6-12,27.1c-0.6,1-1.2,1.8-1.8,2.7l-2.8-0.7
		l-1.5-0.4l-0.7-0.2l-0.7-0.2l-3-0.7c-5.5-1.3-11-2.3-16.6-3.1C210.1,581.1,210.5,580.8,210.8,580.4z M314.9,670.7
		c-2.2-0.5-4.9,0.4-6.7-1.1c-0.7-0.6-1.1-1.5-1.5-2.3c-4-8.6-7.9-17.5-14.6-24.2c-8.3-8.2-21.3-11.4-31.1-3.9V639
		c-0.1,0.1-0.1,0.2-0.2,0.2c-0.6,0.5-1.1,1-1.6,1.5l-0.1,0.1c-0.2,0.2-0.3,0.3-0.6,0.5c-0.6,0.6-1.3,1.2-1.8,1.9
		c-0.1,0.2-0.2,0.2-0.3,0.4c0.8,0,1.7,0,2.5,0.2c1.8,0.2,3.5,0.6,5.2,1.2c3.4,1.2,6.4,3,9.3,5.1c0.7,0.5,1.5,1,2.2,1.5l1,0.8
		l1.9,1.5l1,0.8c0,0-1-0.2-1.2-0.3c-5.1-1.4-10.3-1.4-15.1,0.9c-0.4,0.2-0.8,0.4-1.1,0.6c-0.4,0.2-0.7,0.4-1.1,0.6
		c-0.7,0.5-1.4,1-2.1,1.6c-1.3,1.1-2.5,2.5-3.5,3.9c-1.1,1.6-2.1,3.3-3,5l0,0c0.2,0.5,0.3,1,0.4,1.5c0.1,0.3,0.2,0.6,0.2,0.9
		c0,0.1,0,0.1,0,0.2c0.1,0.6,0.2,1.1,0.2,1.7c0,0.2,0,0.2,0,0.4s-0.1,0.2-0.1,0.4c-0.1,0.2-0.1,0.5-0.2,0.8c0-0.1,0-0.1,0-0.2
		c0,0.1,0,0.1,0,0.2v0.1v-0.1c-0.2,1-0.4,1.8-0.6,2.8c-0.2,1.1-0.5,2.2-0.7,3.4c-1.4,2.3-2.8,4.6-3.7,7.2c-0.1,0.2-0.2,0.5-0.2,0.7
		c0,0.1,0,0.2-0.1,0.2c-0.1,0.2-0.2,0.5-0.2,0.7c0,0,0,0,0,0.1c-0.1,0.2-0.1,0.5-0.2,0.7c0,0.1,0,0.2-0.1,0.2
		c-0.1,0.2-0.1,0.4-0.1,0.6c0,0.1,0,0.1,0,0.2c0,0.2-0.1,0.5-0.1,0.7c0,0.1,0,0.2,0,0.2c0,0.2-0.1,0.3-0.1,0.6c0,0.1,0,0.2,0,0.3
		c0,0.2,0,0.4-0.1,0.6c0,0.2,0,0.2,0,0.4s0,0.2,0,0.4s0,0.6,0,0.8c0,0.1,0,0.1,0,0.2c0,0.2,0,0.4,0,0.6c0,0,0,0,0,0.1
		c0,0.4,0,0.8,0,1.1c-0.2,0.2-0.3,0.4-0.4,0.6c-0.7,0.9-1.4,1.8-2.2,2.7c-0.4,0.4-0.8,0.8-1.1,1.1c-3.1,2.7-6.4,5.3-10.6,6.3
		c-6.5,1.5-13.3-0.6-20-0.1c-1.3,0.1-2.6,0.3-3.9-0.2c-2.3-1-3.7-4.6-4.9-6.7c-1.9-3.1-3.4-6.4-4.7-9.9c-2.4-6.4-3.9-13.3-4.4-20.2
		c-0.8-10.8,1.1-21.9,5.5-31.9c2.2-5,4.9-9.7,8-14.2c3.2-4.4,6.8-8.5,10.9-12.1c0.5-0.5,1-0.9,1.5-1.4l2.6-2.2l0.1-0.1
		c0,0,0.1,0,0,0h-0.2l-0.2,0.1l-0.5,0.1l-1,0.2l-1.5,0.3l-0.5,0.2l-0.5,0.2l-1,0.3c-2.6,0.8-5.2,1.8-7.6,3.1
		c-22.7,11.8-32.4,35.7-33.8,59.9c0,0.2,0,0.3,0,0.5c0,0.7-0.1,1.5,0,2.2c0,0.6,0,1.4,0.1,2s0.1,1.3,0.2,1.9c0,0.1,0,0.2,0,0.2
		c0.1,0.4,0.2,0.9,0.2,1.3c0.1,0.3,0.2,0.9,0.2,1.2s0.1,0.6,0.2,0.9c0.6,4,2,8,3.3,11.8c1.4,4.1,3.7,8,2,12.4
		c-3.5,9.2-11.7,12-20.5,13.4c-1.2,0.2-2.3,0.3-3.5,0.5c-1.4,0.2-3,0.4-4.4,0.5c-1.7,0.2-3.5,0.3-5.1,0.6c-0.3,0-0.6,0.1-1,0.1
		s-0.6,0.1-0.9,0.1c-0.6,0-1.2,0-1.9,0c0-0.1,0-0.2,0-0.2c-0.8-3.5-2.6-6.4-4.2-9.6c-7.5-14.5-10.4-31.8-8-48.3
		c2.2-15.3,10.9-29.5,21.5-40.4c1-1,2.2-2.4,2-3.9c-3.8,1-7.9,4.2-11.2,6.3c-4.1,2.5-8,5.2-11.7,8.3c-6.7,5.6-13,12.8-14.4,21.7
		c-2.7,17-7.3,18.1-5.1,35.2c0.6,4.6,3.4,8.7,4.3,13.3c1.3,6.3,1.7,12.3,4,18.4c0.2,0.4,0.4,0.7,0.5,1.1c0.1,0.5,0.3,3.6,1.1,3.4
		c-3.1,1-17.8,3.9-18.7-1.5l-0.4-3l-3.7-20.5c-3.6-20.3-4.1-40.3,5.1-59.3c1.9-4,5.4-11.7,8-14.1c-0.3,0.3-0.6,0.6-0.9,0.9
		c-5,4.7-9.7,9.2-13.4,15.2c-4.3,6.9-8.1,14.6-11,22.3c-0.2,0.6-0.4,1.2-0.6,1.8c-0.8,2.5-1.4,5-2,7.5c-1,5.1-1.5,10.1-1.6,15.3
		c0.1,5.1,0.6,10.1,1.8,15.1c0.3,1.5,0.7,3,1.2,4.5c-0.5-0.1-0.9-0.2-1.3-0.4c-1.3-0.6-2.3-1.5-3.3-2.4c-0.9-1-1.6-2.1-2.2-3.3
		s-1.1-2.4-1.5-3.7c-0.2-0.6-0.4-1.3-0.6-1.9c-4.7-17.1-3.1-35.9,5-51.8c2.4-4.7,5.2-9.2,8.5-13.2c3.3-4.1,7.1-7.8,11.2-11.1
		c4.1-3.2,8.5-6,13.3-8.4l0,0l7-3.1c0.7-0.6,1.4-1.3,2.2-2c1.8-1.5,3.5-2.9,5.6-4c8.2-4.6,17.4-7.2,26.7-8.7c4.7-0.8,9.3-1.3,14-1.5
		c3.1-0.2,6.2,0,9.2-0.5c3.4-0.6,6.5-2,9.9-2.2c1.3-0.1,2.6,0,3.9,0.2c10.7,1.1,21.5,2.7,31.8,5.9c5.2,1.6,10.3,3.5,15.2,6
		c4.7,2.3,8.8,5.7,13.7,7.6c1.2,0.5,2.3,1,3.5,1.5C284.1,623.9,306.3,644.8,314.9,670.7L314.9,670.7z M668.8,649.9
		c-0.7,1-1.5,1.9-2.1,3c0,0,0,0,0,0.1c-2.4,0.9-4.9,1.3-7.6,1.2c-4.1-0.2-8.2-0.8-12.3-1.3c-1.3-0.2-2.6-0.3-3.9-0.4
		c-6.7-0.3-10.7,2.5-12.8,8.8c-1.2,3.9-2.2,7.8-3,11.7h-23.2h-55.2H336.5c-0.2-0.2-0.6-0.3-0.8-0.5c-1-0.6-1.9-1.4-2.7-2.1
		c0.4-1.2,0.7-2.5,0.9-3.9c0.9-6.5-1.6-11.7-7.4-14.8c-2.7-1.5-5.5-2.8-8.3-4.1c-1.1-0.6-2.2-1.1-3.4-1.7c-2.2-3-4.4-6.1-6.8-9
		c-1.3-1.6-2.6-3.2-3.9-4.7l-2-2.3l-1-1.1c-0.3-0.4-0.7-0.7-1-1.1l-2.1-2.2c-0.7-0.7-1.5-1.5-2.2-2.2c-1.5-1.5-2.9-2.9-4.4-4.3
		l-0.6-0.6l-0.6-0.5l-1.1-1c-0.3-0.3-0.6-0.6-1-0.9c-1.5-3.4-2.9-6.8-4.4-10.1c-0.9-2-1-3.9-0.2-6c0.2-0.3,0.2-0.7,0.3-1.1
		c0.6-4.3,2.1-8.1,4.1-11.7c1.8-3,3.9-6,6-8.8c0.2-0.3,0.5-0.6,1-0.5c0.1,0.2,0.2,0.5,0.2,0.6c-1.3,7.4,0.1,14.3,3,21.1
		c1.5,3.5,3.3,6.9,5.1,10.4c1.3,2.5,3.4,3.9,6.3,3.8c2.8-0.1,4.9-1.5,6.1-4c0.6-1.3,1-2.7,1.3-4c1.2-6.3,3.4-12.1,6.3-17.8
		c5.1-9.9,11.9-18.6,20.5-25.8c0.5-0.4,1-0.7,1.5-1c1.2,0.2,1.9,1,2.7,1.6c9.8,7.3,20.8,12.2,32.5,15.8c4.6,1.4,9.2,2.5,13.8,3.8
		c0.5,0.2,1,0.3,1.5,0.4c5,0.5,9.2,2.9,13.6,5.2c3,1.7,6,3.5,9.4,4.5c1.1,0.3,1.6,1.1,1.9,2.2c2.4,9.2,7.7,16.7,13.7,24
		c6.2,7.6,13.8,13.3,22.8,17.4c0.8,0.4,1.6,0.8,2.4,1.2c0.5,0.2,0.9,0.6,1.4,0.7c2.3,1,4.7,0.7,6-1c1.3-1.5,1.3-3.6,0.1-5.8
		c-0.2-0.3-0.4-0.6-0.6-1c-6.2-8.6-9.2-18.3-10.1-28.8c-0.3-3-0.7-6.1-0.5-9.2c0.1-0.9,0-1.8,0.5-2.7c0.6-0.5,1.2,0.1,1.7,0.4
		c9.6,6.8,20.4,11.2,31.5,14.9c1.3,0.4,2.5,0.8,3.8,1.2c2.5,0.8,5,1.2,7.6,1.3c5.3,0.2,10.5,0.3,15.7-0.5c3.6-0.6,7-1.5,10.3-3
		c2.3-1.1,4.6-2.2,6.8-3.5c3.2-1.8,6-4.1,8.1-7.1c0.5-0.7,1-1.5,1.5-2.2c1.5-2.5,3.5-4.3,6.1-6.1c0.3,1.8,0.6,3.1,0.8,4.5
		c0.2,1,0.3,2,0.6,3c0.7,2.6,2.3,4,5.1,4.7c8.6,2.1,16.6,0.4,24.4-3.2c6.7-3.1,12.7-7.4,17.4-13.2c0.6-0.8,1.4-1.5,2.2-2.2
		c9.3-8,17.6-17,24.9-26.8c1.6-2.2,3.3-4.3,5-6.3c0.3-0.4,0.6-0.8,1.2-0.9c0.2,0.2,0.4,0.2,0.5,0.5c0.2,0.5,0.4,1,0.6,1.5
		c3.2,9.1,3.8,18.2,1.1,27.7c-1.5,5.1-2.7,10.2-5.1,15c-0.7,1.4-1.3,2.8-1.8,4.3c-0.7,2.1-0.5,4.1,1.2,5.6c1.8,1.6,3.9,1.7,6.1,0.6
		c1.1-0.6,2.2-1.4,3.2-2.2c6.8-5.7,12.6-12.5,17.5-19.9c3.3-5.1,5-10.7,6.3-16.5c0.2-0.9,0.4-1.8,0.6-2.7c0.1-0.2,0.3-0.4,0.5-0.6
		c0.8,0.3,1,1.1,1.4,1.8c1.3,2.8,2.7,5.5,3.9,8.4c0.9,1.8,1.8,3.7,3.3,5.1c2.8,2.7,6.3,3.4,10,1.7c1.4-0.6,2.6-1.5,3.7-2.6
		c0.3-0.3,0.6-0.6,0.9-1c5.7-6.7,11.2-13.3,15.1-21.4c1.3-2.7,2.8-5.2,4.1-7.9c1.2-2.6,2.2-5.2,3.2-7.7c1-0.3,1.6,0.3,2.2,0.7
		c2.1,1.2,4.3,2.2,6.7,3c2.2,0.9,3.5,2.4,4.2,4.7c1.1,4.1,2.8,8,4.7,11.8c5.3,11,13.2,19.8,23.2,26.8c1,0.7,2.3,1.1,3,2.4
		c-2.7,2.2-5.1,4.3-7.3,6c-0.5,0.2-1,0.3-1.4,0.5l-2.9,1l-1.5,0.6c-0.5,0.2-1,0.4-1.5,0.6c-5.5,2.2-10.9,4.9-16.2,7.8
		c-1.6,0.3-3.3,0.6-5.1,1c-5.2,1-10.5,0.7-15.8,1.5c-1.7,0.2-3.3,0.3-5,0.7c-7,1.6-11.7,6.8-12.5,14c-0.2,1.8-0.2,3.6-0.1,5.4
		c0.1,2.4,0.3,4.9,0.5,7.3c0.1,0.7,0.1,1.5,0.1,2.2l-0.3,0.3c-1.3,1.6-2.7,3.1-3.9,4.7c-3.3,4.2-6.3,8.4-9.4,12.8
		C668.8,649.8,668.8,649.9,668.8,649.9z M907.4,698.8c-0.2,0.6-0.3,1.3-0.6,1.9c-0.4,1.3-1,2.5-1.5,3.7c-0.6,1.2-1.4,2.3-2.2,3.3
		c-0.9,1-2,1.8-3.3,2.4c-0.4,0.2-0.9,0.3-1.3,0.4c0.5-1.5,0.9-3,1.2-4.5c1.1-4.9,1.7-10,1.8-15.1c-0.1-5.1-0.6-10.2-1.6-15.3
		c-0.6-2.5-1.2-5-2-7.5c-0.2-0.6-0.4-1.2-0.6-1.8c-2.9-7.6-6.7-15.3-11-22.3c-3.7-6-8.4-10.4-13.4-15.2c-0.3-0.3-0.6-0.6-0.9-0.9
		c2.6,2.4,6,10,8,14.1c9.2,18.9,8.6,39.1,5.1,59.3l-3.7,20.5l-0.4,3c-0.7,5.4-15.6,2.4-18.7,1.5c0.8,0.2,1-2.9,1.1-3.4
		c0.1-0.4,0.3-0.8,0.5-1.1c2.4-6.1,2.8-12.1,4-18.4c0.9-4.5,3.7-8.7,4.3-13.3c2.2-17.1-2.5-18.2-5.1-35.2
		c-1.4-8.9-7.7-16.2-14.4-21.7c-3.7-3-7.6-5.8-11.7-8.3c-3.3-2.1-7.4-5.2-11.2-6.3c-0.2,1.5,1,2.9,2,3.9
		c10.7,10.9,19.4,25.1,21.5,40.4c2.3,16.5-0.6,33.8-8,48.3c-1.6,3-3.4,6.1-4.2,9.6c0,0.1,0,0.2,0,0.2c-0.6,0-1.2,0-1.8,0
		c-0.3,0-0.6-0.1-0.9-0.1s-0.6-0.1-1-0.1c-1.7-0.2-3.5-0.4-5.1-0.6c-1.5-0.2-3-0.3-4.4-0.5c-1.2-0.2-2.3-0.3-3.5-0.5
		c-8.8-1.5-17-4.3-20.5-13.4c-1.7-4.3,0.6-8.3,2-12.4c1.3-3.9,2.7-7.8,3.3-11.8c0.1-0.3,0.1-0.6,0.2-0.9s0.2-0.9,0.2-1.2
		c0.1-0.4,0.2-0.9,0.2-1.3c0-0.1,0-0.2,0-0.2c0.1-0.6,0.1-1.3,0.2-1.9s0.1-1.4,0.1-2c0-0.7,0-1.5,0-2.2c0-0.2,0-0.3,0-0.5
		c-1.5-24.2-11.2-48.1-33.8-59.9c-2.4-1.3-5-2.3-7.6-3.1l-1-0.3l-0.5-0.2l-0.5-0.2l-1.5-0.3l-1-0.2l-0.5-0.1l-0.2-0.1h-0.2l0,0
		l0.1,0.1l2.7,2.2c0.5,0.5,1,0.9,1.5,1.4c4,3.7,7.6,7.7,10.8,12.1c3.2,4.4,5.9,9.2,8,14.2c4.3,10,6.3,21.1,5.5,31.9
		c-0.6,6.9-2,13.8-4.4,20.2c-1.3,3.4-2.8,6.8-4.7,9.9c-1.2,2.1-2.6,5.7-4.9,6.7c-1.2,0.5-2.6,0.3-3.9,0.2c-6.7-0.6-13.5,1.6-20,0.1
		c-4.2-1-7.5-3.5-10.6-6.3c-0.4-0.4-0.8-0.8-1.1-1.1c-0.7-0.9-1.5-1.8-2.2-2.7c-0.2-0.2-0.3-0.4-0.4-0.6c0-0.4,0-0.8,0-1.1
		c0,0,0,0,0-0.1c0-0.2,0-0.4,0-0.6c0-0.1,0-0.1,0-0.2c0-0.2,0-0.6,0-0.8s0-0.2,0-0.4s0-0.2,0-0.4s0-0.4-0.1-0.6c0-0.1,0-0.2,0-0.3
		c0-0.2,0-0.3-0.1-0.6c0-0.1,0-0.2,0-0.2c0-0.2-0.1-0.5-0.1-0.7c0-0.1,0-0.1,0-0.2c0-0.2-0.1-0.4-0.1-0.6c0-0.1,0-0.2-0.1-0.2
		c-0.1-0.2-0.1-0.5-0.2-0.7c0,0,0,0,0-0.1c-0.1-0.2-0.2-0.5-0.2-0.7c0-0.1,0-0.2-0.1-0.2c-0.1-0.2-0.2-0.5-0.2-0.7
		c-0.9-2.6-2.3-4.8-3.7-7.2c-0.2-1.1-0.5-2.2-0.7-3.4c-0.2-1-0.4-1.8-0.6-2.8v0.1v-0.1c0-0.1,0-0.1,0-0.2c0,0.1,0,0.1,0,0.2
		c-0.1-0.2-0.1-0.5-0.2-0.8c0-0.2-0.1-0.2-0.1-0.4s0-0.2,0-0.4c0.1-0.6,0.2-1.1,0.2-1.7c0-0.1,0-0.1,0-0.2c0.1-0.3,0.2-0.6,0.2-0.9
		c0.2-0.5,0.2-1,0.4-1.5l0,0c-0.9-1.8-1.8-3.5-3-5c-1-1.5-2.2-2.7-3.5-3.9c-0.7-0.6-1.4-1.1-2.1-1.6c-0.3-0.2-0.7-0.5-1.1-0.6
		c-0.4-0.2-0.8-0.4-1.1-0.6c-4.9-2.3-10-2.2-15.1-0.9c-0.1,0-1.2,0.3-1.2,0.3l1-0.8l1.9-1.5l1-0.8c0.7-0.6,1.5-1,2.2-1.5
		c2.9-2,6-3.9,9.3-5.1c1.7-0.6,3.5-1,5.2-1.2c0.8-0.1,1.7-0.2,2.5-0.2c-0.1-0.2-0.2-0.2-0.3-0.4c-0.5-0.7-1.1-1.4-1.8-1.9
		c-0.2-0.2-0.3-0.3-0.6-0.5l-0.1-0.1c-0.5-0.5-1-1-1.6-1.5c-0.1-0.1-0.1-0.2-0.2-0.2v0.1c-9.8-7.6-22.8-4.3-31.1,3.9
		c-6.8,6.7-10.6,15.6-14.6,24.2c-0.4,0.8-0.8,1.7-1.5,2.3c-1.8,1.5-4.4,0.6-6.7,1.1l0,0c8.6-25.9,30.8-46.8,55.5-57.4
		c1.1-0.5,2.3-1,3.5-1.5c4.8-1.9,9-5.3,13.7-7.6c4.8-2.4,10-4.4,15.2-6c10.4-3.1,21.1-4.7,31.8-5.9c1.3-0.2,2.7-0.2,3.9-0.2
		c3.4,0.2,6.5,1.8,9.9,2.2c3,0.5,6.2,0.3,9.2,0.5c4.7,0.2,9.3,0.8,14,1.5c9.2,1.5,18.5,4.1,26.7,8.7c2,1.1,3.9,2.5,5.5,4
		c0.7,0.6,1.5,1.3,2.2,2l7,3.1l0,0c4.7,2.3,9.2,5.1,13.3,8.4c4.1,3.3,7.9,7,11.2,11.1s6.2,8.5,8.5,13.2
		C910.4,662.8,912,681.6,907.4,698.8z"/>
	<path d="M249.4,608.4c0.1,0.1,0.2,0.1,0.2,0.2l0,0C249.5,608.5,249.4,608.5,249.4,608.4z"/>
	<path d="M345.5,388.1c0.2,0.1,0.6-0.1,0.6-0.2c0.6-0.7,1-1.5,1.7-2.2c0.5-0.6,1.1-1,1.8-1.5c0.4-0.3,1.2,0,1.2,0.4
		c0.1,1.1,0.2,2.3,0.2,3.5c-0.3,8.4,0.2,16.7,1.5,25c1,6,1.9,12,4,17.6c2.8,7.1,5.9,14.2,9.1,21.3c4.7,10.4,12.3,18.2,21.4,24.8
		c2.5,1.8,5.2,3.3,8.2,4.3s6.1,2.1,9.2,3c1.4,0.4,2.2,1,3,2.1s1.5,2.2,2.3,3.3c1.1,1.6,2.3,3.2,3.5,4.8c6.9,9,15.7,15.5,26.3,19.4
		c3.9,1.5,8,3,12.2,3.2c1.2,0.1,1.9,0.6,2.3,1.7c2.2,5,5.6,9.2,9.2,13.3c3,3.6,6.5,7,10.8,9.2c4.7,2.4,9.6,4.3,14.8,5.5
		c13.5,3,27,3,40.4-0.8c4.1-1.1,8.1-2.4,11.7-4.8c1.8-1.2,3.7-2.3,5.5-3.5c3.8-2.2,7.4-4.7,10.1-8.2c2.2-2.8,4.6-5,8-6.1
		c2-0.6,3.7-2.3,5.7-3.2c7.2-3,13.3-7.8,19.8-11.8c1.2-0.7,2.2-1.7,3.3-2.6c3.5-3.1,7.2-6.3,10.7-9.4c0.1-0.1,0.2-0.2,0.3-0.2
		c4.5-4,8.4-8.6,11.6-13.9c1.1-1.9,2.3-3.7,3.5-5.5c5.9-8.6,9.8-18.1,11.8-28.3c1.4-6.7,2.4-13.4,3.4-20.2
		c0.7-5.4,1.5-10.6,3.6-15.7c2-4.8,2.8-10.1,4-15.3c1.3-5.6,2.7-11.2,4-16.9c0.6-2.3,1.8-4.2,3.6-5.8c1.4-1.2,2.6-1.9,4.4-0.6
		c3,1.9,6.1-0.2,7.2-2.9c1-2.6,1.1-5.3,0.4-8c-1.2-4.4-5.6-7.1-10.1-6.4c-5.6,0.9-10,3.7-13.2,8.5c-2.4,3.7-4.2,7.7-5.6,11.8
		c-3.6,10-5.8,20.5-8.2,30.9c-1.4,6-3.3,11.6-6.8,16.6c-0.5,0.7-1,1.5-1.5,2.2c-2.1,3.3-4.6,6.4-7.3,9c-1.7,1.7-3.5,3.3-5.5,4.7
		c-1.6,1.3-3.3,2.4-5.2,3.2c-3.7,1.6-7.4,3-11.2,3.9c-2.2,0.5-4.4,0.9-6.8,1.1c-0.8,0.1-1.6,0.2-2.4,0.2c-1.4,0.1-2.7,0.1-4,0.2
		c-8.7,0.2-17.4-0.2-26-1.1c-7-0.8-13.9-2.6-20.5-5.2c-5.3-2.2-9.2-6-12.6-10.4c-0.9-1.1-1.5-2.4-1.3-3.9c0.4-3.5,0.6-7.1,1.6-10.7
		c1-3.3,2.7-6.2,6.1-7.6c5.5-2.2,10.5-5.3,15.8-8.1c0.6-0.3,1.2-0.7,1.8-1c4.5-2.7,8.3-6.2,11.7-10.1c1.5-1.6,2.8-3.4,4.1-5.1
		c0.9-1.2,1.8-2.5,2.7-3.7c2.7-4.1,5-8.4,6.3-13.2c0.5-1.7,1.1-3.4,1.8-5.1c1.9-4.9,3.5-10,4.4-15.1c1.5-7.7,1-15.4-0.5-23
		c-1-5.1-2.9-10.1-4.4-15.2c-0.5-1.5-1.1-2.9-1.9-4.2c-3.2-5.1-7.3-9.2-12.6-12.1c-2-1.1-3.9-2.3-6-3.5c-4.5-2.8-9.3-4.8-14.5-5.9
		c-7.5-1.5-15-1.7-22.6-2.2c-4.7-0.3-9.5-0.1-14.3-0.1l0,0c-3.9,0-7.7,0.2-11.6,0c-5.2-0.2-10.3,0.5-15.3,1.5
		c-5.7,1.2-10.5,4-14.5,8.2c-2.1,2.2-4,4.7-6,7.1c-2.2,2.6-3.5,5.7-3.9,9.1c-1,7.4-2.6,14.7-2.9,22.2c-0.4,8.6-1.4,17.2-0.5,25.8
		c0.2,2.6,0.8,5.1,1.5,7.6c1.7,5.6,4.5,10.7,8.9,15.1c4.5,4.5,9.4,8.4,15,11.4c4,2.2,7.8,4.8,11.3,7.8l0.1,0.1
		c1,0.9,2.2,1.9,3.3,2.6c5.1,3.6,9.3,8.1,13.5,12.6c1.2,1.4,2.1,2.9,2.9,4.5c0.6,1.4,1.2,2.9,2.1,4.1c2.5,3.6,1.9,2.8,0.8,6.8
		c-0.2,0.6-0.4,1.2-0.6,1.9c-1.6,5.4-4.7,9.7-8.9,13.3c-0.4,0.3-0.7,0.6-1.1,1c-0.8,0.6-1.5,1.1-2.3,1.7c-4.3,3-8.9,5.3-13.8,7.4
		c-1.9,0.8-3.9,1.4-5.9,1.8c-6.3,1.3-12.5,1.2-18.8,0.2c-4.7-0.7-9.2-2-13.4-3.6c-1.7-0.6-3.5-1.4-5.1-2.2c-1.7-0.8-3.3-1.7-4.9-2.6
		c-1.8-1-3.5-2.2-5-3.6c-3.3-3.3-6.5-6.6-9.2-10.3c-2.2-3-4.5-6-6.8-8.9c-2.1-2.6-3.9-5.5-5.5-8.4c-4.8-8.5-9.7-17-14.5-25.4
		c-1-1.8-2.2-3.5-3.3-5.2c-1.6-2.3-3.3-4.7-5.3-6.6c-4.9-4.9-10.9-7.1-17.8-6.7c-2.5,0.2-4.8,1-6.6,2.7c-2,1.9-4.5,9.7-4,12.5
		C345.1,387.9,345.4,388.1,345.5,388.1z M565.2,502c0.3-2.3,0.6-4.6,0.9-6.8c0.4-4.3,0.6-8.7,0.5-13.1c0-1-0.1-2.1,0.1-3
		c0.2-1.6,1.2-2.8,2.9-3.2c2.2-0.6,4.5-1,6.8-1.5c3.9-0.8,7.7-2,11.4-3.5c2.7-1.1,5.4-2.4,7.8-4.2c2.8-2.1,5.5-4.3,8.2-6.4
		c1.9-1.5,3.5-3.4,4.9-5.5c2.8-4.3,6.7-7.8,10.6-11.1c0.2-0.2,0.5-0.2,0.7-0.2c0.4,0.6,0.2,1.2,0.1,1.9c-1.1,4.3-2.9,8.5-4.9,12.5
		c-2,4.2-4.1,8.3-6,12.5c-1.6,3.5-3.7,6.7-6,9.8c-3.1,4-6.8,7.3-10.7,10.5c-4.9,3.9-10.5,6.4-16.2,8.8c-3.2,1.4-6.5,2.4-9.7,3.6
		C565.6,503.2,565.2,502.8,565.2,502z M498,399c-0.2,0-0.5-0.2-0.7-0.2l0,0c-0.1-0.1-0.2-0.1-0.2-0.2c-1.3-0.8-2.6-1.6-3.8-2.6
		c-6.4-5.7-13.8-9.7-21.1-14.1c-2.4-1.5-4.9-2.9-7.2-4.3c-1.8-1.1-3.2-2.5-4.6-4.1c-0.6-0.6-0.6-1.4-0.2-2.1
		c1.2-2.2,3.1-3.7,4.8-5.5c0.4-0.4,1.2-0.5,1.8-0.5c1.7-0.2,3.3-0.2,5-0.2c3.1,0,6.1-0.6,9.1-1.5c6.5-2.2,8.4-6.2,8.9-11.7
		c0.2-2.6-0.1-5.1-0.7-7.6c-1.3-4.9-4.5-8.4-8.8-10.8c-3-1.7-6.2-1.3-9.4-0.8c-1.1,0.2-2.1,1-2.9,1.9c-2.6,2.8-3.9,6-2.9,9.9
		c0.8,3.2,2.2,6,5,8c0.5,0.3,1.1,0.6,1.1,1.4c-0.3,0.5-0.8,0.6-1.3,0.6c-2.4,0.2-4.8,0.6-7.3,0.8c-3.2,0.2-6,1-8.5,3.1
		c-1.4,1.1-2.6,0.8-3.5-0.6c-1-1.7-1.4-3.6-1.5-5.5c-0.5-9.2-0.3-18.2,0.9-27.3c0.4-3.2,1.6-6.2,3.5-8.9c3.1-4.9,6.8-9.4,11.7-12.6
		c3.4-2.2,7-3.7,11-4.3c5.6-1,11.2-0.9,16.9-0.3c7.4,0.8,14.9,1.2,22.3-0.1c3-0.5,6.1-0.7,9.2-1c4.1-0.4,8.2,0,12.2,0.9
		c3.8,0.8,6.9,2.8,9.8,5.1c4.4,3.5,8,7.6,10.5,12.6c1.8,3.5,2.9,7.4,3.2,11.4c0.1,0.9,0.1,1.9,0.3,2.6c1,3.8,0.2,7.7,0.4,11.5
		c0,0.6-0.2,1.3-0.6,1.8c-1.4,2.8-3.5,5.1-6.1,6.8c-0.7,0.5-1.6,0.7-2.5,1c-2.2,0.6-4.5,1-6.8,1.5c-0.7,0.2-1.5,0.3-2.2,0.4
		c-4.3,0.4-6.3-0.8-8.2-4.7c-0.4-0.8-0.7-1.7-0.5-2.6c0.6-2.4,0-4.9,0-7.3c-0.1-5.7-5.5-8.9-11-6.7c-1.4,0.6-2.5,1.4-3.4,2.5
		c-1.9,2.4-3.7,4.9-5.1,7.7c-2,4.3-1.5,8.2,1,12.1c3.9,5.9,9.7,8.4,16.3,8.8c5.5,0.4,11,0,16.4-1.8c0.8-0.3,1.8-0.5,2.7-0.5
		c1.6,0,3.3-0.6,4.7,0.6c0.1,1.5-1,2.6-1.6,3.8c-2.7,5.9-7,10.4-11.7,14.6c-5.6,5.1-12.2,8.5-18.5,12.5c-2.6,1.7-5.3,3.1-8,4.7
		c-0.5,0.2-1,0.3-1.4-0.2c-0.3-0.5-0.4-1,0-1.4c2.7-2.7,5.1-5.7,8.1-8.2c4.6-3.8,8.2-8.4,12.5-13.8c-1.9,0-3-0.1-4.2-0.1
		c-1.8,0-3.6-0.2-5.3-0.8c-6-1.9-11.4-4.7-15.4-9.6c-0.2-0.2-0.3-0.4-0.6-0.6c-0.4-0.3-1,0-1.2,0.5c-0.3,1.2-0.2,2.3,0.3,3.4
		c0.7,1.6,0.7,3.2,0.7,4.9c-0.1,4-0.1,8-0.9,11.9c-0.3,1.5-0.7,3-1.8,4.3c-1,1.3-2.2,2.1-3.9,2.2c-2.7,0.2-3.9-0.4-4.4-3
		c-0.7-4.2-1.5-8.4-1.7-12.6c-0.2-3.9-0.3-7.7-0.5-11.6c0-0.5-0.2-1-0.2-1.5c-0.7-0.2-1,0.2-1.3,0.6c-1.6,2.6-3.8,4.5-5.8,6.7
		c-1.3,1.5-3,2.4-4.7,3.2c-3.5,1.5-6.8,3-10.5,3.5c-0.4,0.1-0.7,0.2-1.1,0.3l0,0c4.2,2.9,10.8,7.6,11.7,9c1.5,2,12.8,10.5,13.4,10.9
		s4.3,3,3.2,4.1C500.3,399.7,499.1,399.4,498,399z M454.1,468.7c0.5-0.2,1-0.2,1.5-0.2c10.5-0.7,19.9-4.6,28.7-10.4
		c2.2-1.5,4.4-2.6,6.6-4c0.7-0.5,1.4-0.6,2.1,0c1.9,1.8,3.8,3.5,5.7,5.2c0.8,0.7,1.1,1.7,1.5,2.6c1,3.5,1.6,7,2.1,10.6
		c1,8,1.2,16.2,0.6,24.3c-0.2,2.7-0.2,5.4,0.2,8c0.3,1.7,1,3.2,2.1,4.5c2,2.2,4.7,2.7,7.3,1.2c0.6-0.3,1.1-0.6,1.7-1
		c1.9-1,2.7-2.7,2.5-4.8c-0.1-1.4-0.4-2.8-0.8-4.2c-0.6-2.2-1.4-4.4-2.1-6.6c-4.7-14.2-4-28.3,1.3-42.3c0.2-0.7,0.6-1.5,1-2.1
		c0.2-0.3,0.5-0.6,0.7-0.8c0.3,0.1,0.6,0,0.8,0.2c7.3,4.8,15.6,7.1,24,9.1c2.7,0.6,5.5,1,8.4,1.4c2.7,0.3,2.7,0.6,3,3
		c0.3,2.6,0.7,5.1,1,7.6c0.8,8,1.3,16.2,1,24.3c-0.2,7.5-1.3,14.9-4.7,21.7c-0.8,1.6-1.8,3.1-3,4.4c-3,3.3-6.3,6.4-10.5,8.2
		c-4.3,1.8-8.7,3.1-13.3,4c-1.9,0.4-3.9,0.6-5.7,0.9c-8,1.5-15.8,0.6-23.5-2c-6.1-2.1-11.8-5.1-17.2-8.6c-4.3-2.9-7.9-6.6-10.5-11.1
		c-4.5-7.5-7.5-15.5-9.2-24c-1.1-5.5-2.2-11.1-3.3-16.6c-0.2-0.6-0.2-1.3-0.2-1.9C453.4,469.1,453.7,468.8,454.1,468.7z
		 M361.9,387.1c3.4,2.3,5.8,4.6,6.6,8c1.9,7.1,4.5,13.9,6.8,20.9c0.7,2.3,1.8,4.6,2.9,6.8c3.4,6.4,6.5,12.8,11.9,17.9
		c2.6,2.5,4.9,5.3,7.3,7.9c1.5,1.5,3,2.8,4.7,3.9c8,5.3,15.6,11.2,23.4,17c3.1,2.2,6.4,4.2,9.7,6.3c1.5,1,2.3,2,2.4,3.9
		c0.3,5.2,1,10.5,2.6,15.6c0.1,0.2-0.1,0.5-0.1,0.8c-0.6,0.6-1.2,0.1-1.7-0.1c-1-0.4-2.1-1-3.1-1.5c-7.1-4-13.3-9.2-18.2-15.8
		c-2.8-3.8-6.1-6.8-10.5-8.8c-5.3-2.3-10.3-5.2-14.7-9.1c-1.9-1.6-3.6-3.2-5.2-5.1c-5.2-6.1-9.6-12.8-12.5-20.3
		c-4.2-10.6-8.1-21.4-10.5-32.6c-0.8-3.8-1.5-7.6-1.9-11.4C361.8,390.1,361.9,388.9,361.9,387.1z"/>
</g>
</svg>
