<?xml version="1.0" encoding="utf-8"?>
<!-- Generator: Adobe Illustrator 24.0.1, SVG Export Plug-In . SVG Version: 6.00 Build 0)  -->
<svg version="1.1" id="New_group_copy" xmlns="http://www.w3.org/2000/svg" xmlns:xlink="http://www.w3.org/1999/xlink" x="0px"
	 y="0px" viewBox="0 0 990 781.2" style="enable-background:new 0 0 990 781.2;" xml:space="preserve">
<style type="text/css">
	.st0{fill:#F6F6F6;}
	.st1{fill:#F1B858;}
	.st2{fill:#E4706A;}
	.st3{fill:#525358;}
	.st4{fill:#BF7E0F;}
</style>
<g>
	<path d="M769,718.5c-2.6,0.6-3.8,2.4-4.7,4.2c-0.9,1.7-1.5,3.5-2.2,5.3c-2.2,6.1-5.8,11.3-10.8,15.6c-4.6,4-10.5,2.2-13.2-2.2
		c-2-3.2-3.2-6.7-3.5-10.3c-0.3-3.5-2-5.5-4.8-7.1c-6.7-3.8-13.5-10.6-17.7-17.2c-3.8-0.5-444.5-0.7-452.8-0.2
		c-2.8,5.5-7.6,9.5-12.3,13.6c-1.8,1.6-3.8,2.9-5.9,4c-2.6,1.4-4.1,3.5-4.3,6.4s-1,5.7-2.2,8.3c-0.6,1.3-1.4,2.6-2.3,3.7
		c-3,3.7-7.6,4.3-11.5,1.4c-5.3-3.9-8.9-9.1-11.2-15.2c-0.6-1.6-1.1-3.3-1.9-4.9c-1.1-2.3-2.4-4.5-5.3-5.5c-0.4,0.8-1,1.6-1.3,2.4
		c-1.5,4.5-4.4,7.7-8.7,9.6c-1.7,0.8-3.4,1.8-5.1,2.7c-2,1.1-2.8,2.7-2.8,5.1c0,3-0.3,6.1-0.9,9c-0.5,2.3-1.3,4.6-2.4,6.7
		c-2.4,4.5-6.6,5.7-10.9,2.9c-2.1-1.4-4-3.2-5.9-4.8s-3.4-3.7-6-5.2c-0.5,2.2-1,4-1.4,5.8c-0.8,3.9-3.3,6.9-5.8,9.8
		c-1.3,1.6-3.3,1.8-5.3,1.2c-5.9-1.7-11.4-4.3-15.6-8.9c-4.4-4.8-9-9.5-12.4-15.2c-1.6-2.7-3.7-4.7-6.4-6.2
		c-6.2-3.4-10.7-8.6-14.7-14.2c-6.8-9.5-9.9-20.3-10.1-31.9c-0.1-9.8,1.2-19.4,4-28.8c2.4-8,6.4-15,12.5-20.7c2-1.8,3.9-3.8,6.1-5.4
		c6.7-5.2,13.3-10.5,20.1-15.5c14.2-10.4,30.2-16.4,47.6-18.8c14.7-2,29.3-1.1,43.9,1.5c3.5,0.6,6.9,1.5,10.3,2.1
		c1.2,0.2,2.5,0.3,3.9,0.5c0.6-1.2,1.1-2.1,1.5-3.1c3-6.7,6.6-13.2,10.7-19.3c4-6,8.1-11.9,12.1-17.9c6-8.8,13-16.6,21.4-23.1
		c1.7-1.3,2.2-3.1,2.5-5c0.4-2.7,0.8-5.4,1-8.1c1.1-12.3,4.2-24.2,7.4-36.1c3.5-12.9,9-24.9,15.9-36.3c2.4-4,3.6-8.1,3.7-12.7
		c0-0.8,0-1.6,0.1-2.4c0.5-3.6-0.2-6.7-1.9-10.1c-3.1-6.1-4.5-12.9-5.8-19.7c-1.1-5.7-1.1-11.4-0.4-17.2c0.4-2.9,0.4-5.7,0.6-8.6
		c0.3-3.3-0.6-6.3-2.6-9c-1-1.4-2-2.9-3-4.4c-6.7-9.8-11.1-20.5-13.2-32.1c-0.3-1.5-0.6-3.1-1-4.9c-1.1,0.4-2,0.5-2.8,0.9
		c-3.3,1.8-6.7,3-10.4,3.6c-10.7,1.6-20.2-1.7-26.4-11.6c-2.4-3.8-4-8-5.1-12.4c-0.7-3-1.4-5.9-2.3-8.8c-1.2-3.9-1.9-7.8-1.7-11.8
		c0.1-1.6,0.3-3.2,0.8-4.7c1.3-3.8,1.9-7.7,2.5-11.7c1.7-11.3,2-22.6,1.7-34c-0.4-16.1-3.5-31.7-9.2-46.8
		c-1.9-5.1-3.5-10.3-5.4-15.4c-3.6-9.2-4.8-18.9-5.4-28.6c-0.5-9.3-0.3-18.5,0.5-27.8c0.4-4.5,1.5-8.8,3.3-12.9
		c1.6-3.8,3.4-7.6,5.1-11.4c8.1-17.5,21.5-29.5,39.1-37c9.8-4.2,20-6.5,30.7-6.7c4-0.1,8-0.1,12,0.1c2.8,0.2,5-0.6,6.8-2.7
		c1.4-1.5,3-2.9,4.3-4.5c7-8.2,15.6-14.1,25.4-18.3c5.4-2.4,10.8-5,16.7-5.9c11.1-1.7,21.6-0.4,31.3,5.7c1.4,0.9,2.8,1.6,4.1,2.5
		c2.2,1.6,4.6,2,7.3,1.4c6.9-1.4,13.8-2.6,20.7-4.1c11.1-2.4,22.1-5.1,33.2-7.5c6.2-1.4,12.6-2.2,19-2.5c7.2-0.4,14.3-1,21.5-1.5
		c8.7-0.6,17.2,0.6,25.6,2.6c3.4,0.9,6.6,2.5,9.5,4.5c1.3,0.9,2.7,1.8,4.1,2.4c2.3,1,4.7,1.2,7,0.1c6.6-3.3,13.8-3.6,21-4.1
		c6.5-0.5,12.7,0.8,18.7,3.2c4.3,1.7,8.8,3,13.1,4.5c1.2,0.4,2.5,0.8,3.5,1.5c2.6,1.9,5.4,1.6,8.3,0.9c3.9-0.9,7.8-1.7,11.7-2.6
		c4.1-1,8.2-1.1,12.4-0.8c3.7,0.2,7.3,0.5,11,1c5.1,0.8,9.8,2.9,14,5.9c4.8,3.5,9.5,7.1,14.2,10.6c1.9,1.4,3.8,2.9,5.8,4.3
		c12.7,8.9,26.8,13.9,42.3,15.5c4.9,0.5,9.8,1.6,14.6,2.7c4.2,0.9,8.4,1.9,12.5,3.1c3.4,0.9,6.8,2,10,3.3c5.1,2.2,9.5,5.3,12.2,10.3
		c0.8,1.4,1.8,2.7,2.9,3.8c8.2,8.3,12.3,18.5,14.3,29.8c0.5,2.8,1.1,5.6,1.8,8.4c1.7,6.5,2.7,13.1,3.4,19.8
		c0.9,7.8,1.6,15.6,1.7,23.4c0.1,10.2-1.6,20-4.4,29.8c-6,20.8-13.7,40.9-22.2,60.7c-2.8,6.5-5.2,13.1-7.9,19.6
		c-1.5,3.7-1.7,7.4-1,11.3c1.6,9.4,1.2,18.8-1,28.1c-0.5,2-1.1,4-1.9,5.9c-1.8,4.2-3.8,8.5-5.8,12.6c-0.8,1.7-2,3.3-3.2,4.8
		s-2.8,2.6-4.8,3c-2.7,0.5-5.3,1.2-8,1.5c-3.8,0.5-7.3-0.4-10.6-2.1c-4.5-2.3-8.2-5.5-11.3-9.4c-2.6-3.2-5.1-6.5-7.7-9.8
		c-1-1.2-2-2.4-3.3-3.9c-0.7,0.9-1.3,1.4-1.6,2c-2.5,4.8-4.9,9.7-7.3,14.5c-1.6,3.1-2,6.4-2,9.8c-0.1,15.2-3.3,29.8-9.5,43.7
		c-1,2.2-2,4.4-3.3,6.3c-1.5,2.2-1.7,4.4-1.1,6.8c1.3,5.6,2.9,11.1,5.1,16.5c1.8,4.4,3.7,8.8,5.7,13.2c3.2,7.1,6.6,14.2,9.9,21.3
		c4.8,10.2,7.8,21,10.5,31.8c3.1,12.1,5.8,24.2,7.2,36.6c0.3,2.8,1.1,5.2,3.1,7.3c8.4,9.1,15.2,19.3,21.6,29.9
		c6.3,10.6,12.7,21.1,19,31.6c0.4,0.7,0.9,1.3,1.4,1.9c4.7-0.2,9.3-0.4,13.9-0.5c10.6-0.3,21.1,0.9,31.3,3.7
		c10,2.7,19.8,6.3,28.8,11.5c8.5,4.8,16.6,10.3,24.5,16c1.3,0.9,2.5,2,3.5,3.3c6.2,7.8,12,15.8,16.8,24.5c1.5,2.7,2.8,5.4,4.1,8.1
		c2.6,5.4,3.2,11,2.3,16.8c-1.5,10.5-4.5,20.6-8.5,30.4c-0.9,2.2-2.3,4.2-3.6,6.2c-4.4,6.4-9.2,12.3-16.2,16.1c-2.6,1.4-4.5,3.5-6,6
		c-3.4,5.8-8.2,10.6-12.7,15.6c-4.2,4.5-9.5,6.9-15.3,8.6c-2.6,0.8-4.6-0.1-6.3-2.2c-2.6-3.3-4.6-6.9-5.3-11.1
		c-0.2-1.1-0.6-2.1-1-3.3c-2,0.9-3.1,2.5-4.5,3.8c-2.3,2-4.4,4.2-6.9,5.9c-4.5,3.2-8.9,2-11.5-3c-1.8-3.6-2.9-7.4-3-11.5
		c0-1.6,0-3.2,0-4.8c0-1.4-0.6-2.5-1.7-3.2c-1.8-1.1-3.5-2.3-5.3-3.2c-5-2.1-8.4-5.6-10-10.9C769.8,719.6,769.4,719.2,769,718.5z"/>
</g>
<g>
	<path class="st0" d="M361.7,518.2c2,1.7,4.3,3.2,6.5,4.7c1.6,1,3.3,1.9,5.1,2.5c1.1,0.3,2.1,0.7,3.3,0.8s1.1-1.3,2-1.5
		c0.2,0,0.2-0.1,0.4-0.1c3-1,4.7-3.2,6.1-5.9c1.7-3.2,3-6.7,4-10.3c1.5-5.8,3.1-11.5,4.3-17.3c1.6-7.1,4.2-13.7,7.6-20.1
		c1.5-2.8,3.2-5.3,5-7.7c-1.5-1-2.5-2.6-2.8-4.7c-0.2-1.5,0-3,0.4-4.5c0.4-1.4,0.9-2.8,1.4-4.1c-0.1,0.1-0.2,0.2-0.3,0.2
		c-0.2,0.2-0.4,0.3-0.5,0.5c-7.2,6.3-13,13.8-16.6,22.7c-0.9,2.2-1.7,4.4-2.7,6.6c-0.3,0.7-0.5,1.4-1,2c-0.7,0.8-0.9,1.7-1,2.8
		c-0.5,3.2-1,6.5-1.5,9.7c-0.4,2.1-0.9,4.2-1.9,6.1c-0.2,0.4-0.4,0.7-0.6,1.1c-0.1,0.1-0.2,0.2-0.2,0.3c-0.2,0.2-0.3,0.5-0.5,0.6
		c-0.1,0.1-0.2,0.2-0.3,0.3c-0.2,0.2-0.3,0.3-0.5,0.5c-0.2,0.1-0.2,0.2-0.4,0.3c-0.2,0.2-0.3,0.2-0.5,0.4c-0.2,0.1-0.3,0.2-0.5,0.2
		c-0.2,0.1-0.4,0.2-0.5,0.3c-0.2,0.1-0.3,0.1-0.5,0.2s-0.4,0.2-0.6,0.2c-0.2,0.1-0.4,0.1-0.5,0.1c-0.2,0-0.4,0.1-0.6,0.1
		s-0.4,0-0.6,0s-0.4,0-0.6,0c-0.1,0-0.2,0-0.2,0l0,0c-1,0-1.8-0.1-2.8,0.1c-0.2,0-0.2,0-0.4,0c-0.2,0-0.3,0-0.5,0s-0.3,0-0.5,0
		s-0.3,0-0.5,0s-0.3,0-0.5,0s-0.3,0-0.5,0s-0.3,0-0.5-0.1c-0.2,0-0.3,0-0.5-0.1c-0.2,0-0.3-0.1-0.5-0.1s-0.3-0.1-0.5-0.1
		s-0.3-0.1-0.5-0.1s-0.3-0.1-0.5-0.1c-0.2-0.1-0.3-0.1-0.5-0.2s-0.3-0.1-0.4-0.2c-0.2-0.1-0.3-0.1-0.5-0.2s-0.3-0.1-0.4-0.2
		c-0.2-0.1-0.3-0.2-0.5-0.2c-0.2-0.1-0.2-0.1-0.4-0.2c-0.2-0.1-0.3-0.2-0.5-0.2s-0.2-0.2-0.4-0.2c-0.2-0.1-0.3-0.2-0.5-0.2
		s-0.2-0.2-0.4-0.2c-0.2-0.1-0.3-0.2-0.5-0.3c-0.2-0.1-0.2-0.2-0.4-0.2c-0.2-0.1-0.3-0.2-0.5-0.3c-0.1-0.1-0.2-0.2-0.3-0.2
		c-0.2-0.2-0.3-0.2-0.5-0.4c-0.1-0.1-0.2-0.2-0.3-0.2c-0.2-0.2-0.3-0.3-0.5-0.5c-0.1-0.1-0.2-0.2-0.2-0.2c-0.2-0.2-0.5-0.5-0.8-0.7
		c-1.2-1.1-2.4-2.2-3.7-3.2c-3.8-2.8-5.8-6.5-6.5-11.1c-0.5-3.4,0.4-6.5,2.8-9.1c1.2-1.2,2.5-2.1,4.3-1.7c0.8,0.2,1.7-0.2,2.6-0.2
		c1.4-0.1,2.8-0.2,4.1,0.3c2.9,1.3,5.1,0.2,7-2c1-1.3,2-2.7,3.4-3.5c2.5-1.7,4.1-4,5.7-6.5c2.4-3.7,5-7.3,8.2-10.4
		c3.9-3.6,7.8-7.2,11.5-11c1-1,2.1-1.8,3.2-2.7c1.3-1,2.4-2,3.5-3.1c-0.8-0.8-1.3-1.7-1.7-2.9c-0.4-1.3-0.5-2.8-0.1-4.1
		c1.3-5,0.7-10-0.2-15c-0.7-3.9-1.1-7.7-1-11.7c0.1-1.9-0.4-3.4-1.5-4.9c-4.7-6.9-7-14.5-6.3-22.9c0.1-1.1,0.1-2.3,0.4-3.4
		c1-3.8,1.4-7.7,1.7-11.5c0.5-6.5,2.6-12.5,7-17.6c0.6-0.7,0.8-1.6,1.1-2.4c2.9-6.9,6.8-13.3,12.1-18.6c1.9-2,4-3.9,6.1-5.7
		c1.7-1.5,3.6-2.3,5.9-2.2c2.8-4.3,5.7-8.3,9.4-11.8c2-1.9,4-3.8,6.1-5.7c1-1,2-1.9,3.1-2.8s2-1.9,3.1-2.8l0,0l0,0
		c0.2-0.2,0.3-0.3,0.5-0.4c0.1-0.1,0.2-0.2,0.3-0.3c0.1-0.1,0.2-0.2,0.3-0.2c0.8-0.6,1.6-1.2,2.5-1.7l0,0l0,0c0.5-0.3,1-0.5,1.5-0.9
		c0.3-0.2,0.6-0.4,1-0.5c0.5-0.3,1.2-0.6,1.7-1c0.2-0.2,0.5-0.2,0.7-0.4c0.5-0.3,1.1-0.5,1.6-0.9c0.3-0.2,0.5-0.3,0.9-0.5
		c0.9-0.5,1.7-0.9,2.5-1.3c4.8-2.4,10-3.7,15.3-4c8-0.3,15.9-0.1,23.8,0.8c6,0.6,11.7,2.3,16.6,5.9c4,3,8,6.2,11.9,9.3
		c1.3,1,2.5,2.2,3.8,3.2c1.8,1.3,3.3,2.8,4.5,4.4c0.3,0.2,0.5,0.5,0.8,0.7c4,4.1,8.1,8,11.7,12.4c3.3,4.1,7.2,7.8,10.4,11.9
		c2.3,2.9,4.1,6,5.6,9.4c3.7,8.4,5.9,17.1,6.8,26.3c0.5,5-0.2,10.1-0.7,15.1c-0.5,4.7-1.6,9.2-2.7,13.7c-1.9,7.9-1.6,15.8,0.7,23.5
		c1.9,6.4,3.4,13,4.2,19.6c0.2,1.7,0.4,3.2,0.5,4.9c0.2,1.2,0.2,2.5,0.5,3.6c0.6,1.3,1.3,2.8,1.8,4.2c2.1,5.5,4.5,11,7,16.3
		c2.8,6,6.7,11,12.5,14.4c2,1.1,3.8,2.5,5.5,4c1.8,1.4,3.2,3.2,4.1,5.4c1.5,4.2,1.7,8.4,0.5,12.6c-1.6,5.7-9.2,9-13.6,7.6
		c-4.2-1.3-7.6-3.5-9.6-7.4c-0.2-0.5-0.5-1-0.8-1.5c0-0.1-0.1-0.1-0.1-0.2c-0.2-0.5-0.5-0.9-0.7-1.3c-0.2-0.3-0.3-0.5-0.4-0.9
		c-0.1-0.2-0.2-0.4-0.3-0.6s-0.2-0.5-0.3-0.6c-0.2-0.3-0.2-0.5-0.4-0.9c-0.1-0.2-0.2-0.4-0.2-0.6c-0.2-0.3-0.3-0.6-0.4-1
		c-0.1-0.2-0.2-0.5-0.2-0.6c-0.2-0.3-0.2-0.5-0.4-0.9c-0.1-0.2-0.2-0.4-0.2-0.6c-0.1-0.3-0.2-0.6-0.3-1c-0.1-0.2-0.2-0.5-0.2-0.7
		c-0.1-0.3-0.2-0.5-0.3-0.9c-0.1-0.2-0.2-0.5-0.2-0.8c-0.1-0.2-0.1-0.2-0.2-0.4c-0.1-0.2-0.2-0.4-0.2-0.6c-0.1-0.2-0.2-0.3-0.2-0.5
		c0-0.1-0.1-0.2-0.1-0.2c-1-2.2-2.2-4.2-3.8-6c-0.2-0.2-0.3-0.4-0.5-0.6s-0.3-0.3-0.4-0.5c-0.2-0.2-0.3-0.5-0.5-0.7
		c-0.1-0.2-0.2-0.3-0.3-0.5c-0.2-0.3-0.3-0.5-0.5-0.9c-0.1-0.2-0.2-0.3-0.2-0.4c-0.2-0.5-0.5-0.9-0.6-1.3c-0.7,1.5-1.4,2.9-2.2,4.4
		c-0.2,0.5-0.5,1-1,1.5c0.5,0.7,0.8,1.5,1,2.4c0.1,0.2,0.2,0.4,0.2,0.6c0,0.1,0,0.2,0,0.2c0,0.2,0.1,0.3,0.1,0.5c0,0.1,0,0.2,0,0.3
		c0,0.1,0,0.1,0,0.2c0.1,0.4,0.1,0.7,0.1,1.1c0,0.3,0.1,0.6,0.1,1c0,0.5,0.1,1,0.1,1.4c0,0.3,0,0.6,0.1,0.9c0,0.5,0,1,0,1.6
		c0,0.2,0,0.5,0,0.8c0,0.8,0,1.6,0,2.4c-0.1,1.3-0.2,2.8,0.5,4.1c1.5,2.7,3.2,5.1,5.8,6.9c1.3,0.8,2.5,1.7,3.8,2.5
		c9.7,6.2,14.4,17.2,12.1,28.4c-0.5,2.4-0.1,4.5,1.3,6.5c2.1,3.2,5,4.9,8.8,5.4c2.4,0.3,4.8,0.3,7.2,0.4c3.5,0.2,6-1.3,7.6-4.6
		c2.9-5.9,7.5-10.4,12.6-14.4c2.8-2.2,5.4-4.6,7.7-7.3c0.3-0.4,0.6-0.8,1-1.2c0.1-0.2,0.2-0.3,0.3-0.5c0.2-0.2,0.4-0.5,0.5-0.8
		c0.4-0.5,0.7-1.1,1-1.7c0.1-0.2,0.2-0.2,0.2-0.4c0.2-0.5,0.5-1,0.8-1.5c0.2-0.3,0.3-0.6,0.4-1c0.1-0.2,0.2-0.3,0.2-0.5
		c0.2-0.6,0.5-1.3,0.7-1.9c0.1-0.2,0.2-0.4,0.2-0.5c0.2-0.5,0.3-1,0.5-1.5c0.1-0.2,0.2-0.5,0.2-0.6c0.2-0.6,0.3-1.3,0.5-1.9
		c0.3-1.3,0.2-1.5-1.2-1.8c-2.8-0.5-4.8-2.1-6.3-4.4c-1-1.6-2-3.2-2.6-5c-0.3-0.9-0.5-1.7-1-2.5c-0.6-1.3-1.7-2.3-3.2-2.1
		c-1.2,0.1-2.3-0.1-3.2-0.8c-3.4-2.6-5.7-5.8-5.1-10.3c0.2-1.9,0.5-3.7,1.2-5.5c0.4-1,0.5-2,0.3-2.9c-0.2-0.8-0.4-1.5-0.6-2.3
		c0,0,0,0,0-0.1c-0.1-0.2-0.2-0.5-0.2-0.7c0-0.1-0.1-0.2-0.1-0.2c-0.1-0.2-0.1-0.3-0.2-0.5c0-0.1-0.1-0.2-0.1-0.3
		c-0.1-0.2-0.1-0.3-0.2-0.5c0-0.1-0.1-0.2-0.1-0.3c-0.1-0.2-0.1-0.3-0.2-0.5c0-0.1-0.1-0.2-0.1-0.3c-0.1-0.2-0.1-0.3-0.2-0.4
		c-0.1-0.1-0.1-0.2-0.2-0.3c-0.1-0.2-0.1-0.2-0.2-0.4c-0.1-0.1-0.1-0.2-0.2-0.3c-0.1-0.2-0.2-0.2-0.2-0.4c-0.1-0.1-0.2-0.2-0.2-0.3
		c-0.1-0.2-0.2-0.2-0.2-0.4c-0.1-0.1-0.2-0.2-0.2-0.3s-0.2-0.2-0.2-0.4c-0.1-0.1-0.2-0.2-0.2-0.3c-0.1-0.1-0.2-0.2-0.2-0.3
		c-0.1-0.1-0.2-0.2-0.2-0.2s-0.2-0.2-0.3-0.3c-0.1-0.1-0.2-0.2-0.3-0.2s-0.2-0.2-0.3-0.3c-0.1-0.1-0.2-0.2-0.3-0.2
		c-0.2-0.1-0.2-0.2-0.4-0.3c-0.1-0.1-0.2-0.2-0.2-0.2l0,0c-0.1-0.1-0.2-0.2-0.2-0.3c-0.1-0.1-0.1-0.2-0.2-0.2
		c-0.1-0.1-0.2-0.2-0.2-0.3c-0.1-0.1-0.2-0.2-0.2-0.2c-0.1-0.1-0.2-0.2-0.2-0.2c-0.1-0.1-0.2-0.2-0.2-0.2c-0.1-0.1-0.2-0.1-0.2-0.2
		c-0.1-0.1-0.2-0.1-0.2-0.2c-0.1,0-0.2-0.1-0.2-0.1c-0.2-0.2-0.5-0.2-0.9-0.3c-0.1,0-0.1,0-0.2-0.1l0,0c-0.4-0.1-0.7-0.2-1.2-0.2
		c-2.5-0.1-4.7-1.1-6.2-3.2c-3.5-4.6-5-9.6-3-15.2c0.8-2.3,1.7-4.5,2.8-6.6c3.5-7.3,4.7-15.2,5-23.1c0-0.8,0-1.6,0-2.4
		c-0.2-5.5-1.3-10.7-2.7-15.9l0,0c-0.2-0.5-0.3-1.1-0.5-1.6l0,0c-0.5-1.6-1.3-3-2.3-4.4c-0.2-0.3-0.5-0.6-0.7-1
		c-0.2-0.3-0.4-0.5-0.6-0.9c-0.2-0.4-0.5-0.7-0.8-1.1c-0.2-0.2-0.4-0.5-0.5-0.8c-0.3-0.4-0.6-0.8-1-1.2c-0.2-0.2-0.3-0.4-0.5-0.6
		c-0.5-0.5-1-1.2-1.6-1.7c-1.6-1.7-3.2-3.3-4.8-4.8c-2-1.9-3.2-4.2-3.5-7c-0.2-1.1-0.2-2.3-0.3-3.4c-0.5-5.9-1.1-11.8-2.2-17.7
		c-1.5-8.1-3.9-15.9-7.7-23.3c-1.1-2.1-2.2-4.2-3.4-6.3c-1-1.9-2.1-3.9-3.2-5.8c-0.1-0.1-0.1-0.2-0.2-0.2c-0.2-0.4-0.5-0.8-0.7-1.2
		c-0.2-0.2-0.3-0.5-0.5-0.7s-0.3-0.5-0.5-0.7c-1-1.6-2.2-3.1-3.5-4.5c-0.1-0.1-0.2-0.2-0.3-0.3c-0.9-1-1.7-1.8-2.5-2.8
		c-0.9-1-1.7-1.9-2.6-2.8c-0.1-0.1-0.1-0.1-0.2-0.2c-0.9-1-1.8-1.9-2.7-2.8l-0.1-0.1c-1-1-1.9-1.8-2.8-2.8c-0.5-0.5-1-1-1.5-1.4
		c-0.2-0.2-0.2-0.2-0.4-0.4c-0.4-0.3-0.7-0.7-1.1-1c-0.2-0.2-0.4-0.4-0.5-0.5c-0.3-0.3-0.6-0.5-1-0.9c-0.2-0.2-0.4-0.4-0.5-0.6
		c-0.3-0.3-0.5-0.5-0.9-0.9c-0.2-0.2-0.4-0.5-0.5-0.6c-0.2-0.3-0.5-0.5-0.8-0.9c-0.2-0.2-0.4-0.5-0.5-0.7c-0.2-0.3-0.5-0.6-0.7-0.9
		c-0.2-0.2-0.3-0.5-0.5-0.8s-0.4-0.6-0.6-1c-0.2-0.2-0.3-0.5-0.5-0.9c-0.2-0.3-0.4-0.6-0.5-1c0-0.1-0.1-0.2-0.1-0.2
		c-0.1-0.1-0.1-0.2-0.2-0.2l0,0c-3.4-4.3-6.8-8.5-10.6-12.4c-1-1-1.9-1.9-2.8-2.8c-2-1.9-4-3.6-6.2-5.3c-1.1-0.8-2.2-1.6-3.4-2.4
		s-1.3-1.3-0.5-2.5c1-1.7,2.5-2.4,4.3-2.5c1.4-0.1,2.8,0.2,4.1,0.6c1,0.3,1.9,0.6,2.9,0.9c0.2,0.1,0.5-0.1,0.6-0.2
		c0.2-0.2,0.2-0.5,0.1-0.7c-0.4-1.3-1.3-2.1-2.1-3.1c-2.5-3.1-5-6.1-7.3-9.2c-1.8-2.4-2.8-5.1-2.7-8.1c0.1-1.3,0.1-2.5,0.4-3.8
		c0.8-2.7,0-5-1.3-7.3c-2-3.4-3.7-6.9-6-10.1c-2.5-3.6-3.5-7.5-3.3-11.8c0.1-0.9,0.1-1.9,0.2-2.8c0-0.2,0-0.3,0-0.4
		c0-0.9,0.1-1.9,0.1-2.8c0-0.2,0-0.3,0-0.5c0-0.9,0-1.9,0-2.8c0-0.2,0-0.3,0-0.5c0-0.9,0-1.9-0.1-2.8c0-0.2,0-0.6,0-0.8
		c-0.2-1.9-0.5-4.6-0.9-6.2c0-0.2-0.1-0.2-0.1-0.4c0-0.1-0.1-0.2-0.1-0.3c-0.1-0.3-0.1-0.7-0.2-1c-0.3-3.9,2.5-7.8,6.8-7
		c1.7,0.3,2.3-0.6,2.8-1.8c2-4.6,5.2-8.1,9.3-10.7c3.1-2,5.8-4.5,8.5-7c4.3-4.2,7-9.2,8.1-15.1c0.2-1,0.5-2,0.7-2.9
		c0.4-1.6,1.1-3.1,2-4.4c1.4-2,3.3-3.2,5.5-3.8c-2-3.6-4.7-6.9-7.5-9.9c-2-2.1-4.3-3.7-7-4.3c-2.8-0.6-4.7-2.2-6.6-4.1
		c-0.8-0.8-1.7-1.6-2.5-2.3l0,0c-0.2,0.3-0.5,0.6-0.8,0.9c-2,1.7-4.3,2.8-6.9,2.9c-1,0.1-2,0-2.8,0c-1.6-0.1-2.9-0.1-4.3-0.3
		c-2.5-0.3-4.6-1.3-5.8-3.7c-1.4-2.5-3.5-4.3-6.1-5.5c-1.5-0.8-3.1-1.1-4.7-0.5c-1.9,0.6-3.9,1.2-5.8,1.9c-4.9,1.7-9.8,3.3-14.7,5.1
		c-0.2,0.1-0.5,0.2-0.7,0.2c-4.8,1.2-7.6-0.6-7.7-4.9c-2.2,0-4.3,0.9-6.3,1.6c-2.5,0.8-4.8,1.7-7.1,2.8c-0.3,0.7-0.6,1.5-1,2.2
		c-1.8,3.6-4.1,6.6-7.3,9.1c-2.2,1.7-4.3,3.6-6.7,5c-1.3,0.8-2.4,1.9-3.2,3.2c-2.8,5.1-3.9,10.3-1.4,15.9c0.2,0.3,0.3,0.7,0.5,1
		c0.6,1.5,1,3.2,2,4.5c1,1.2,2.6,1.9,4,2.8c0.4,0.2,0.7,0.5,1,0.7c0.1,0.1,0.2,0.2,0.3,0.2c0.2,0.2,0.5,0.3,0.7,0.5
		c0.2,0.1,0.2,0.2,0.3,0.3c0.2,0.2,0.4,0.3,0.5,0.5c0.1,0.1,0.2,0.2,0.3,0.3c0.2,0.2,0.4,0.4,0.5,0.6c0.1,0.1,0.2,0.2,0.3,0.3
		c0.2,0.2,0.4,0.5,0.6,0.7c0.1,0.1,0.1,0.2,0.2,0.2c0.2,0.3,0.5,0.6,0.7,0.9c0.1,0.1,0.2,0.2,0.2,0.2c0.2,0.2,0.3,0.5,0.5,0.7
		c0.1,0.1,0.2,0.2,0.2,0.3c0.2,0.2,0.2,0.4,0.4,0.6c0.1,0.2,0.2,0.2,0.2,0.4c0.2,0.2,0.2,0.5,0.4,0.6c0.1,0.2,0.2,0.2,0.2,0.4
		c0.2,0.2,0.2,0.5,0.4,0.8c0.1,0.1,0.1,0.2,0.2,0.3c0.2,0.4,0.3,0.7,0.5,1.1c0,0.1,0,0.1,0.1,0.2c0.2,0.3,0.2,0.6,0.4,1
		c0.1,0.2,0.1,0.2,0.2,0.4s0.2,0.6,0.2,0.8c0.1,0.2,0.1,0.3,0.2,0.5c0,0.2,0.1,0.2,0.1,0.4c0.5,2.1,1.1,4.2,1.7,6.2l0,0
		c0,0.1,0.1,0.2,0.1,0.2s0,0.2,0.1,0.2c0,0.1,0.1,0.2,0.1,0.3v0.1c0.1,0.2,0.1,0.2,0.2,0.4c0,0,0,0,0,0.1c0.1,0.1,0.1,0.2,0.2,0.3
		l0.1,0.1c0.1,0.1,0.1,0.2,0.2,0.2l0.1,0.1c0.1,0.1,0.2,0.2,0.3,0.2c0.5-0.2,1.2-0.4,1.7-0.6c0.2-0.1,0.4-0.1,0.6-0.2
		c0.1,0,0.2,0,0.2-0.1c0.2,0,0.2-0.1,0.4-0.1c0.1,0,0.2,0,0.2,0s0.2,0,0.3-0.1c0.1,0,0.2,0,0.2,0s0.2,0,0.3,0c0.1,0,0.2,0,0.2,0h0.2
		h0.2h0.2h0.2c0.1,0,0.2,0,0.2,0.1c0.1,0,0.2,0,0.2,0.1c0.1,0,0.2,0.1,0.2,0.1l0.2,0.1c0.1,0,0.2,0.1,0.2,0.1s0.1,0.1,0.2,0.1
		c0.1,0.1,0.2,0.1,0.2,0.2c0.1,0,0.1,0.1,0.2,0.1c0.1,0.1,0.2,0.1,0.2,0.2s0.1,0.1,0.2,0.2s0.2,0.2,0.2,0.2s0.1,0.1,0.2,0.2
		c0.1,0.1,0.2,0.2,0.2,0.2s0.1,0.1,0.2,0.2c0.1,0.1,0.2,0.2,0.2,0.3s0.1,0.1,0.1,0.2c0.1,0.2,0.2,0.3,0.3,0.5
		c0.2,0.2,0.4,0.6,0.5,0.9c0.1,0.2,0.2,0.2,0.2,0.4c0.2,0.2,0.3,0.5,0.5,0.6c0.2,0.2,0.3,0.4,0.5,0.6c0.2,0.2,0.3,0.4,0.5,0.6
		c0.2,0.2,0.3,0.5,0.5,0.7s0.3,0.4,0.5,0.6c0.2,0.2,0.3,0.5,0.5,0.7s0.3,0.5,0.5,0.6c0.2,0.2,0.3,0.5,0.5,0.7s0.3,0.5,0.4,0.6
		c0.2,0.2,0.2,0.5,0.4,0.7c0.2,0.2,0.2,0.5,0.4,0.7c0.2,0.2,0.2,0.5,0.4,0.7c0.1,0.2,0.2,0.5,0.3,0.7c0.2,0.2,0.2,0.5,0.3,0.8
		c0.1,0.2,0.2,0.5,0.3,0.7c0.1,0.2,0.2,0.6,0.3,0.8c0.1,0.2,0.2,0.5,0.2,0.7s0.2,0.6,0.2,0.8c0.1,0.2,0.2,0.5,0.2,0.7
		s0.2,0.6,0.2,0.8c0.1,0.2,0.2,0.5,0.2,0.7c0.1,0.3,0.2,0.6,0.2,0.9c0.1,0.2,0.2,0.5,0.2,0.7c0.1,0.3,0.1,0.6,0.2,0.9
		c0.1,0.2,0.1,0.5,0.2,0.7c0.1,0.3,0.1,0.6,0.2,0.9c0,0.2,0.1,0.5,0.1,0.7c0,0.3,0.1,0.6,0.1,0.9c0,0.2,0.1,0.5,0.1,0.7
		c0,0.3,0,0.7,0.1,1.1c0,0.2,0,0.4,0,0.6c0,0.6,0,1.1,0,1.7c0,1.2-0.1,2.4-0.1,3.5c-0.2,3.5-0.4,7-0.6,10.5l0,0c0,0.2,0,0.4-0.1,0.6
		c0,0.2-0.1,0.4-0.2,0.6c0,0.1,0,0.1-0.1,0.2c0,0.1,0,0.1,0,0.2s-0.1,0.2-0.1,0.2s0,0,0,0.1c-0.2,0.7-0.5,1.5-0.8,2.2
		c-0.2,0.4-0.3,0.9-0.4,1.3c-0.4,1.2-0.9,2.4-1.3,3.6c-0.7,2.1-2,3.7-3.8,5.1c-2,1.7-4.1,3.2-6.8,4.5c1.6,2.1,2.4,4.1,2.2,6.5
		c-0.2,2.8-1,5.2-2.7,7.3c-2.2,2.8-4.8,5.1-8.3,6.3c-3.3,1.2-6.5,2.8-9.6,4.5c-1.7,0.9-3.1,2.2-3.5,4.3c-0.1,0.5,0.3,1,0.9,1
		c0.5-0.1,1-0.2,1.4-0.3c1.6-0.3,3.2-0.7,4.8-0.9c2.1-0.2,4.1,0.2,5.3,2.1c1.3,2,0.6,3.9-0.4,5.8c-1.1,2-2.8,3.5-4.8,4.7
		c-0.9,0.5-1.8,1-2.8,1.4c-0.1,0.1-0.2,0.1-0.3,0.2c-0.9,0.4-1.8,0.9-2.7,1.3c-0.1,0-0.1,0-0.2,0.1c-2.1,1-4.3,2-6.5,2.8
		c-0.2,0.1-0.3,0.2-0.5,0.2c-0.5,0.2-0.9,0.4-1.3,0.6c-0.1,0-0.2,0.1-0.2,0.1c-0.4,0.2-0.8,0.5-1.2,0.8c-0.1,0-0.1,0.1-0.2,0.1
		c-0.4,0.3-0.7,0.6-1.1,1l-0.1,0.1c-0.4,0.4-0.7,0.7-1,1.1c-0.6,0.7-1.3,1.5-1.9,2.2c-0.2,0.2-0.4,0.5-0.6,0.7
		c-0.4,0.5-0.9,1-1.3,1.5c-0.2,0.3-0.5,0.5-0.8,0.9c-0.4,0.4-0.8,0.9-1.2,1.3c-0.2,0.3-0.5,0.6-0.8,0.9c-0.4,0.4-0.7,0.8-1.1,1.2
		c-0.3,0.3-0.5,0.6-0.9,1s-0.7,0.8-1.1,1.2c-0.3,0.3-0.6,0.6-1,1s-0.7,0.8-1.1,1.1c-0.3,0.3-0.6,0.6-1,1s-0.8,0.7-1.1,1.1
		c-0.3,0.3-0.6,0.6-1,0.9s-0.5,0.5-0.8,0.8c-6.7,6-13.1,12.3-19.3,18.9c-2.8,3.1-5.6,6.2-8.1,9.5c-5,6.5-8.4,13.8-9.4,22
		c-0.7,5.9-1,11.8-1.1,17.8c-0.1,4.9,0,9.9-0.1,14.8c-0.1,3.5-0.4,7.1-1.5,10.4c-1.8,5.5-2.7,11.3-3.1,17c-0.2,2.6-0.4,5.3-1.3,7.8
		c-0.3,1-0.4,2-0.4,3c-0.1,4.3-0.6,8.5-1.6,12.7c-0.6,2.8-1.9,5.2-4,7.1c-3.3,3.2-7,3.3-10.6,0.6c-2-1.4-3.4-3.4-4.4-5.5
		c-0.7-1.5-1.3-3-1.9-4.5c-0.1-0.2-0.4-0.3-0.5-0.3c-0.2,0-0.5,0.2-0.5,0.4c-0.2,0.3-0.3,0.7-0.4,1c-0.2,0.6-0.5,1.3-0.6,1.8
		c-0.1,0.2-0.2,0.5-0.2,0.6c-0.2,0.4-0.3,0.8-0.5,1.1c-0.1,0.2-0.2,0.5-0.3,0.8c-0.2,0.3-0.2,0.6-0.4,1c-0.2,0.2-0.2,0.5-0.4,0.8
		c-0.2,0.3-0.3,0.6-0.5,1c-0.2,0.2-0.2,0.5-0.4,0.8c-0.2,0.3-0.3,0.6-0.5,1c-0.2,0.2-0.2,0.5-0.4,0.8c-0.2,0.3-0.3,0.6-0.5,1
		c-0.2,0.2-0.3,0.5-0.4,0.8c-0.2,0.3-0.3,0.6-0.5,1c-0.2,0.2-0.3,0.5-0.5,0.8s-0.3,0.6-0.5,0.9c0,0.1-0.1,0.1-0.1,0.2
		c-0.1,0.2-0.2,0.4-0.3,0.5c0,0,0,0,0,0.1c-0.4,0.7-0.6,1.4-0.9,2.1c-0.1,0.4-0.2,0.7-0.3,1.1c-0.1,0.3-0.2,0.7-0.2,1
		c-0.1,0.4-0.2,0.8-0.2,1.2c-0.1,0.3-0.2,0.6-0.2,1c-0.1,0.4-0.2,0.8-0.2,1.2c-0.1,0.3-0.2,0.6-0.2,1c-0.1,0.4-0.1,0.8-0.2,1.2
		c-0.1,0.3-0.1,0.6-0.2,1s-0.1,0.8-0.1,1.3c0,0.3-0.1,0.6-0.1,1c0,0.5,0,0.9-0.1,1.3c0,0.3,0,0.5,0,0.9c0,0.5,0,1,0,1.5
		c0,0.2,0,0.5,0,0.7c0,0.7,0.1,1.5,0.2,2.2c0.1,0.9,0.2,1.7,0.6,2.5c0.7,1.3,1,2.7,1,4.1c0,0.9-0.1,1.7-0.2,2.5l0,0
		c-0.1,0.5-0.2,1-0.2,1.5c0,0.1,0,0.2,0,0.2c0,0.5,0,0.9,0,1.3c0,0.2,0,0.3,0,0.5c0,0.4,0.1,0.7,0.1,1.1c0,0.2,0.1,0.5,0.1,0.6
		c0.1,0.4,0.1,0.8,0.2,1.2c0,0.1,0.1,0.2,0.1,0.3c0.1,0.5,0.2,1.1,0.4,1.7c0.1,0.5,0.2,1,0.3,1.3c0.2,0.5,0.3,1,0.5,1.6
		c0.2,0.5,0.2,0.9,0.4,1.3c0.2,0.5,0.3,1,0.5,1.5c0.2,0.4,0.3,0.9,0.5,1.3c0.2,0.5,0.4,1,0.6,1.5c0.2,0.4,0.3,0.8,0.5,1.2
		c0.2,0.5,0.5,1,0.7,1.5c0.2,0.4,0.4,0.8,0.5,1.1c0.2,0.5,0.5,1,0.9,1.6c0.2,0.3,0.4,0.7,0.5,1c0.3,0.5,0.7,1.1,1.1,1.7
		c0.2,0.2,0.3,0.5,0.5,0.9c0.5,0.8,1.2,1.7,1.7,2.4C349.7,507,355.3,512.9,361.7,518.2z"/>
	<path class="st0" d="M656.3,658.1c-3.9-1.3-7.3-3.5-10.4-6c-5-4-8.4-9-10-15.2c-0.8-3.1-1.3-6.2-1.7-9.3
		c-0.7-6.2-1.5-12.2-0.4-18.5l0,0c-4.3-0.5-7.4-4.3-6-8.8c0.6-2,1.3-4.1,2-6.1c1.1-2.7,2-5.4,2.6-8.3c1.5-8.4,2.3-16.8,1-25.3
		c-1-6.4-2.5-12.6-6.4-18c-1.3,0.5-1.7,1.9-2.3,2.9c-1.5,2.4-3,4.7-4.8,6.8c-1.5,1.7-3.2,3.3-5.1,4.4c-6.4,3.3-13.2,4.6-20.2,2.8
		c-9.8-2.5-15.8-9-18.5-18.7c-0.5-2-0.8-4-1.2-5.9c-0.2-0.6-0.1-1.5-1.2-1.8c-2.7,3-6.1,5.2-9.7,7c-3.9,1.8-7.2,4.2-10.2,7.2
		c-1.9,1.9-3.8,3.7-5.6,5.7c-2.3,2.5-4.9,4.3-7.9,5.8c-9.1,4.4-18.6,6.2-28.7,4.7c-5.6-0.9-11.2-1.8-16.7-2.9
		c-6.5-1.3-13-2.8-19.8-3.2c-9.9-0.5-19.6,0.2-29.4,2.3c-3.3,0.7-6.6,1.4-10,2c-5.3,1.1-10.6,0.5-15.9,0.7c-3.1,0.1-6-0.8-8.6-2.5
		c-2.2-1.4-4.4-2.9-6.5-4.6c-5.8-4.5-10.3-10-12.9-17c-0.2-0.6-0.5-1.2-0.7-1.7s-0.4-1.3-1.2-1.3c-1.4,1.1-2.8,2.2-4.2,3.2
		c-4.1,3-8.7,4-13.7,2.8c-1.7-0.4-3.5-0.8-5.1-1.4c-1.3-0.5-2.2-0.1-3,0.9c-1.3,1.5-2.5,3.2-3.4,5c-5.2,10.3-7.9,21-6.8,32.5
		c0.4,4,1.3,8,2.4,11.8c1.4,5,1.7,10,0.7,15c-0.4,2.2-1,4.4-1.4,6.6c-0.5,2.4-1,4.7-1,7.1c-0.2,6.1,0.2,12.1,1.9,18
		c0.5,1.6,0.6,3.2,1,4.8c0,0.2-0.1,0.5-0.2,1.2c-0.2,0.9-0.5,2-0.8,2.9c-0.1,0.3-0.2,0.5-0.2,0.8c-0.1,0.2-0.2,0.3-0.2,0.5
		c4.8,11,8.1,22.3,9.8,34.3h275.5c0.2-0.2,0.5-0.3,0.7-0.5c1.1-0.8,2.2-1.6,3.2-2.5c0.5-0.5,1.2-1.1,1.7-1.7l0.1-0.1
		c0.2-0.3,0.5-0.6,0.7-1c2.2-2.9,4.3-5.9,6.3-8.9c0.5-0.9,1.2-1.7,1.7-2.5c0.2-0.3,0.4-0.6,0.6-1c0.5-1,1.2-1.8,1.9-2.7
		c0.1-0.1,0.1-0.2,0.2-0.2c0.2-0.4,0.5-0.8,0.8-1.1C658.3,658.9,657.3,658.5,656.3,658.1z"/>
	<path class="st0" d="M491.4,521.7c-1.3,2.8-4,4.1-7.2,3.7c-1.8-0.2-3.4-0.9-5-1.8c-1.7-1-3.5-2.1-5-3.4c-3.6-2.9-8-4.1-12.1-6.2
		c-0.5-0.2-1.3-0.2-1.9-0.2c-1.1-0.1-2.3,0.1-3.4-0.2c-2.3-0.5-4.2,0.3-6.2,1.3c-1.5,0.7-2.7,1.6-3.2,3.5c-0.5,2.3-2.4,3.6-4.7,3.8
		c-2.2,0.2-3.9-1-5-2.8c-0.5-0.7-0.9-1.5-1.3-2.4c-0.3-0.7-0.5-1.4-0.8-2.1c-0.3-1-0.9-1.5-1.8-1.8c-1.8-0.6-3.5-1.4-5-2.5
		c-4.2-3.2-9.2-4.8-13.8-7c-1.2-0.5-2.5-0.5-3.7-0.2c-2.4,0.7-4.3,2.1-6.2,3.5c-1,0.6-1.3,1.4-1.4,2.5c-0.2,2.1-0.4,4.3-0.6,6.4
		c-0.4,3.2-0.7,6.5-2.3,9.5c-0.5,1-0.3,2,0.2,2.8c1.3,2.5,2.8,5,4.3,7.6c2.9,5,7.1,8.8,12.1,11.8c8,4.7,16.3,5.6,24.9,1.8
		c2.8-1.3,5.7-2,8.8-2.4c5.4-0.6,10.8-1,16.3-0.7c5.8,0.4,11.5,1.4,17.4,1.1c0.6,0,1.3,0.2,1.9,0.2c4.8,0.5,9.4,1.7,14,2.9
		c7.5,2,15.1,3,22.8,2.5c7.5-0.5,13.5-3.8,18.5-9.2c3-3.2,5.8-6.6,8.6-10.1c3-3.7,6.2-7.3,10.3-10c1.2-0.8,1.7-1.8,1.5-3.2
		c-0.1-1-0.2-2-0.5-3c-1-3.6-2.5-7.1-4-10.6c-0.8-1.7-1.4-2-3.2-1.9c-2.1,0.2-3.9,1.2-5.3,2.7c-1.7,1.8-3.3,3.8-5,5.8
		c-2.2,2.7-4.9,4.3-8.3,4.8c-2,0.3-4,0.6-5.8,1.4c-1.3,0.5-2.5,0.4-3.6-0.2c-2.9-1.4-5.9-2.9-8.5-5c-2.6-2.2-4.5-5-5-8.7
		c1.8-0.6,3.5-0.2,5,0.1c2.9,0.4,5.5-0.5,7.8-2.1c1.3-0.8,2.5-1.7,3.8-2.5c2.1-1.1,3.5-2.8,4.7-4.8c1.4-2.6,2.3-5.3,3.1-8.1
		c1.2-4.1,2.2-8.3,4.7-11.8c0.3-0.4,0.5-1,0.3-1.4c-1-2-2-3.9-4.2-5.2c-0.4,1-0.6,1.7-1,2.4c-3.8,9-10.3,15.1-19.4,18.5
		c-1.2,0.5-2.5,0.7-3.5,1.3c-5.1,2.8-10.6,3.1-16.2,2.3c-4.5-0.6-9-1.1-13.5-1.6c-2.7-0.2-5.3-0.6-7.9-1.2c-6.7-1.4-13.5-2-20.3-1.4
		c-2.5,0.2-5,0.3-7.5-0.3c-9.2-2.6-16.1-7.7-19.2-17.1c-1.3-4.2-3.1-8.3-4-12.9c-3.6,1.7-6.6,3.7-9.4,6.2c-1.5,1.3-2.3,3-2.5,4.9
		c-0.1,1.1-0.2,2.3-0.1,3.4c0.5,3.4,0.6,6.8,0.7,10.2c0,1.7,0.4,3.3,1.7,4.5c3.5,3.2,7,6.5,11.1,9c4.8,2.8,9.9,4.5,15.5,3.5
		c0.2-0.1,0.5,0,0.8-0.1c3-0.5,6.1-0.2,9.1,0.3c6.5,1.3,13.3,1.7,19.9,2.2c5.5,0.3,10.8,0.8,16.3,1.3c1.4,0.1,2.8,0.3,4,0.9
		c3.2,1.4,4.2,3.8,2.7,7C494.3,516.1,492.7,518.8,491.4,521.7z"/>
	<path class="st0" d="M565.9,254.6c2.8,2.7,5.3,5.8,8,8.6c3.2,3.3,6.7,6.2,11.5,6.9c1,0.2,2,0.5,2.9,0.8c3.9,1.1,7.7,1,11.6,0.6
		c6.5-0.7,11.4-3.8,14.4-9.7c2-4.2,4.5-8.2,7-12.1c1.5-2.3,2-4.6,1-7.1c-0.2-0.6-0.3-1.2-0.5-1.8c-1.4-3.9-1.5-3.9-6-3.6
		c-0.5,0.9-0.2,2-0.2,2.9c0.2,4.3-0.5,8.5-2,12.6c-1.8,5.1-5,9-9.7,11.7c-3.5,2-7.3,2.8-11.3,2.1c-4.1-0.6-7.7-2.3-10.9-4.9
		c-3.9-3.1-7-6.8-9.5-11.1s-2-4.9-5.8-0.3c-0.4,0.5-0.8,0.9-1.2,1.5c-0.5,0.6-0.4,1.2,0,1.7C565.3,253.8,565.5,254.3,565.9,254.6z"
		/>
	<path class="st0" d="M583,242.3c1.2,1.1,2.5,2.1,4,2.8c1.9,1,3.9,1.1,5.8,0.3c2.8-1.2,5.3-3,6.9-5.8c1.9-3.2,1.9-6.5-0.1-9.7
		c-2.2-3.6-7.4-5.8-11.5-4.9c-2,0.4-3.4,1.4-4.3,3.2c-1.6,3-2.2,6.2-2.5,9.9C581,239.7,581.7,241.1,583,242.3z"/>
	<path class="st0" d="M360.6,256.5c2.1,3.5,4.9,6.4,8.3,8.7c2,1.4,4.3,2.2,6.7,2.5c4.5,0.5,8.8-0.1,13-1.9c2.8-1.2,5.5-2.6,8-4.3
		c0.6-0.4,1.3-0.9,1.8-1.3l0.1-0.1c0.3-0.4,0.6-0.8,1-1.2c1.3-1.6,2.6-2.8,4.2-3.7c0.4-0.5,0.8-1,1.1-1.6c1.5-2.4,2.8-4.8,4.2-7.2
		c0.4-0.6,0.6-1.3,1-2.1c0.5-1.1,0-2-0.8-2.7c-1.1-1-2.1-0.8-2.6,0.5c-1.7,4.9-5.4,8.5-8.8,12.2c-1.2,1.3-2.8,2.1-4.4,2.8
		c-1.9,0.7-3.8,1.5-5.7,2c-7.8,1.9-15.1,0.4-21.5-4.5c-4.6-3.6-7.5-8.4-10.1-13.8c-1,1.1-1,2.3-0.5,3.6
		C356.6,248.6,358.3,252.7,360.6,256.5z"/>
	<path class="st0" d="M379.6,235.8c2.9-2.8,5.5-5.8,8.6-8.4c2-1.7,2.8-4.1,1.4-6.8c-0.4-0.8-0.6-1.7-1-2.4c-0.3-0.7-0.9-1.2-1.7-1.3
		c-0.6,0-1.3-0.1-1.7-0.1c-3.8,0-7.1,1.2-10.4,2.4c-0.5,0.2-1.1,0.6-1.4,1.2c-1.7,2.4-3,5-3.5,7.9c-0.5,2.8,0.2,5.2,2.3,7.3
		C374.4,237.5,377,238.3,379.6,235.8z"/>
</g>
<g>
	<path class="st1" d="M315.9,637c0-0.5,0-1-0.2-1.5c-0.7-2-0.5-4-0.5-6c0-3,0.2-6.1-0.1-9.1c-0.3-4.7,1-9.2,0.9-13.9
		c0.9-2.3,0.5-4.7,1-7.1c0.6-3.9,1.4-7.7,1.3-11.6c-0.1-1.7-0.1-3.3,0-4.9c0.2-3.9-0.9-7.5-1.7-11.1c-0.2-1.2-0.9-2.4-1.6-3.4
		c-1.4-1.9-2.9-4-5.4-4.6c-3.8-1-7.5-0.7-10.7,2c-1,0.9-2,1.9-2.9,3c-5.1,6.9-9.9,14-12.6,22.3c-0.2,0.5-0.5,1.2-0.8,1.7
		c-2.9,4.7-5.9,9.3-8.8,14c-2,3.2-3.9,6.4-5.8,9.6c1.3,0.8,2.6,1.6,4,2.4l2.3,1.5l2.3,1.7l1.1,0.8l0.5,0.4l0.5,0.4l2.2,1.7
		c0.4,0.3,0.7,0.5,1.1,0.9l1,0.9l2.1,1.8c0.7,0.6,1.3,1.3,2,1.8l1,1l0.5,0.5l0.5,0.5c1.3,1.3,2.7,2.5,4,3.9c0.6,0.6,1.3,1.3,1.9,2
		l1.9,2c0.3,0.3,0.6,0.7,1,1l0.9,1l1.8,2.1c1.2,1.4,2.4,2.8,3.5,4.3c2.9,3.7,5.7,7.6,8.5,11.5c0.1,0.1,0.1,0.2,0.2,0.2
		c0.6,0.9,1.3,1.7,1.9,2.7c0.2,0.3,0.4,0.6,0.6,1c0.5,0.9,1.2,1.7,1.7,2.5c2,3,4.1,6,6.3,8.9c0.2,0.3,0.5,0.6,0.7,1l0.1,0.1
		c0.5,0.5,1.2,1.1,1.7,1.7c0.6,0.5,1.3,1.1,2,1.7c-2.6-7.9-5.8-15.5-8.4-23.4C317.5,650.2,316,643.7,315.9,637z"/>
	<path class="st1" d="M715.8,595.9c-5.4-5.7-11-11.1-16.5-16.7c-4-4-8.6-7.4-12.9-11c-1.4-1.2-2.9-2.4-4.5-3.6
		c-1,3.4-2.1,6.5-2.8,9.6c-1,4.4-1.8,8.8-1.9,13.3c-0.2,5.1,0.7,10.3,1.4,15.3c1,7.3,3.5,14.1,7.6,20.4c0.8,1.2,1.5,2.4,2.3,3.5
		l0.7-0.6c0.4-0.3,0.7-0.5,1.1-0.9l2.2-1.7l0.5-0.4l0.5-0.4l1.1-0.8l2.3-1.7l2.3-1.5c6.2-4,12.9-7.4,19.8-10.2
		c0.4-0.2,0.9-0.4,1.3-0.5l1.3-0.5l2.6-1c0.2-0.1,0.3-0.1,0.5-0.2C721.8,602.8,718.9,599.2,715.8,595.9z"/>
	<path class="st1" d="M650.8,160.7c2.4-0.1,4.1-1.9,4.3-4.3c0.2-4.1-0.3-8-2.3-11.7c-5-9.3-10.3-18.4-16.8-26.8
		c-1.2-1.5-1.7-3.3-3.1-4.7c-3.9-3.9-7-8.5-9.5-13.5c-0.2-0.5-0.5-0.9-0.8-1.3c-2.5-4.2-5.5-8.1-8-12.3c-3.7-6-7.9-11.6-12-17.4
		c-2.5-3.6-5.8-6.7-9.5-9.2c-4.3-2.9-9.2-4.5-14.3-5.6c-2-0.4-3.9-1-5.8-0.7c-1,0-1.9-0.1-2.8,0c-3.3,0.3-6.5,4.1-4.4,7.7
		c1.5,2.6,3.3,4.7,5.9,6.2c3.3,1.9,7,2.8,10.6,4c5.4,1.8,10,4.7,13.8,8.8c1.7,1.9,2.8,4.2,4.2,6.2c3.2,4.8,4,10.2,4.2,15.8
		c0.1,1.4-0.5,2.1-1.7,2.9c-2.5,1.7-5,2.1-7.8,2.1c-2-0.1-4-0.6-5.8-1.3c-1.2-0.5-2.3-1-3.5-1.3c-2-0.6-3.8-0.6-5.8,0.4
		c-2.2,1-4.3,1.9-5.9,3.7c-0.6,0.7-1.7,1.1-2.6,1.5c-1.7,0.7-3.6,0.9-5.5,0.9c-2.9,0.1-4.3,2.2-3.3,4.9c0.5,1.3,1.3,2.4,2,3.6
		c0.5,0.9,1.2,1.7,1.8,2.4c2.8,3.2,5.5,6.3,9.2,8.4c4,2.2,8,4.1,12.2,6.1c1.6,0.7,3.3,1.2,5.1,1.1c0.7-0.1,1.6-0.1,2.2,0.2
		c4.3,1.4,8.7,1.3,13.1,1.3c2.3,0,4.5-0.1,6.7-0.6s4.4-0.2,6.5,0.9c2.8,1.5,5.3,3.4,7.7,5.3c5.1,4,10.4,7.9,14.8,12.8
		c0.9,0.9,1.9,1.6,2.9,2.4C647.9,160.7,649.3,160.7,650.8,160.7z"/>
	<path class="st1" d="M401,112.3c-2.8-0.4-5.5-0.1-7.7,2.2c-2.6,2.8-5,5.7-6.5,9.2c-0.7,1.7-1.9,2.5-3.6,2.8c-2.2,0.4-4.4,1-6.6,1.4
		c-5.8,1-11.5,2.8-16.7,5.5c-0.8,0.4-1.4,0.4-2-0.2c-1.3-1.1-2.1-2.4-2.7-4c-0.4-1.2-0.9-2.4-1.5-3.5c-1-1.8-3.2-2.8-5.1-2.3
		c-2.1,0.6-4.2,1.7-4.5,4c-0.3,1.9-0.8,3.7-1,5.5c-0.2,2.5-0.7,5-1,7.4c-0.5,3.9-0.8,8-1.2,12c-0.1,0.5-0.1,1,0.1,1.5
		c0.8,2.4,0.5,5,0.6,7.5c0,1.3-0.2,2.8,0.8,4c0.5,0.6,0.2,1.2,0,1.9c0,1.7,0.6,3.3,1.1,5c0.2,0.5,0.9,0.6,1.3,0.2
		c0.3-0.2,0.6-0.5,0.8-0.8c2.6-4,6.2-7.3,9.1-11.1c0.6-0.8,1.3-1.6,2.2-2.1c1.7-1,2.8-2.4,4.3-3.7c3.2-3,6.5-5.8,10.3-8.3
		c4.7-3.2,9.7-5.8,14.2-9.2c0.2-0.2,0.4-0.3,0.6-0.4c2.3-1,4.3-2.5,7-2.4c0.8,0,1.7-0.4,2.5-0.9c1.8-1.3,3.6-2.8,4.7-4.8
		c1.4-2.4,2.5-4.9,3.7-7.4c0.4-0.9,0.7-1.9,0.9-2.9C405.6,116.1,403.5,112.7,401,112.3z"/>
	<path class="st1" d="M494.7,44.3c-3.4-1-6.8-1.3-10.4-0.5c-3.5,0.7-7.1,1.7-10.6,2.7c-4.1,1.1-8.2,2.3-12.3,3.5
		c-5,1.6-8.8,4.7-11.3,9.4c-0.4,0.8-0.9,1.6-1.4,2.2c-1.1,1.3-1.6,2.8-2,4.3s-0.2,2.7,0.6,3.9c0.8,1.1,1.9,1.4,3.2,1.6
		c4.5,0.4,9,0.9,13.2,2.7c0.5,0.2,1,0.3,1.4,0.4c3.5,1.1,6.3,0.2,8.5-3c1.1-1.7,2.2-3.4,3.2-5.1c2.8-4.5,5.8-8.5,11.2-10.1
		c0.4-0.1,0.7-0.3,1-0.5c1.3-0.7,2.8-1.1,4.3-1.3c2.9-0.2,5.8-1,7.5-4.1c-0.5-0.8-0.8-1.6-1.3-2.3C498.4,46.4,496.9,44.9,494.7,44.3
		z"/>
	<path class="st1" d="M679.3,538.3c0-0.8,0-1.5,0-2.3c0-6.4,0-12.9,0-19.3l0,0c0-5.5-0.2-10.8,0.1-16.3c0.2-5.4-1.1-10.4-2-15.6
		c-0.7-4.5-2.6-8.6-4.3-12.9c-0.4-1-1-1.7-1.8-2.4c-1.5-1.4-3.1-0.5-4.6,0c-1.3,0.4-1.1,1.5-1.1,2.5c-0.1,2,0.1,4-0.2,6
		c-0.9,4.8-2.1,9.5-3.6,14.2c-0.8,2.4-1.3,4.8-2,7.3c-0.2,0.9-0.2,1.8-0.1,2.6c0.6,2.3,1.1,4.7,2,6.9c2.5,5.8,5,11.5,7,17.4
		c1.3,4,3,7.7,4.6,11.5c0.2,0.5,0.4,1,0.7,1.3c0.7,1.2,2.1,1.7,3.6,1.2C678.9,540.3,679.3,539.4,679.3,538.3z"/>
	<path class="st1" d="M662.6,327.8c0.5-0.5,0.9-1.3,1.2-1.9c2.1-4.4,5-8.4,7.4-12.7c1.5-2.8,3.2-5.5,4-8.5c0.9-3,0.5-5.7-1.9-8
		c-0.6-0.6-1.3-1.2-1.8-1.9c-2.1-2.5-3.5-5.1-3.5-8.5c0.1-2.6-0.5-5.3-1-7.8c-0.8-5.4-1.4-10.7-1.3-16.1c0-1.3,0-2.5,0-3.8
		c-0.2,0-0.4-0.1-0.5-0.1c-0.2,0.7-0.6,1.3-0.7,2c-0.4,2.4-0.6,4.7-1,7.1c-0.3,2.2-0.5,4.5-1,6.7c-0.2,1.2-0.6,2.4-1.4,3.5
		c-0.9,1.3-1.5,2.6-2.2,4c-1.2,2.2-2.4,4.4-3.5,6.6c-3.4,6.1-5.9,12.5-5.6,19.6c0.2,4,0.8,7.7,2.8,11.2c0.9,1.5,1.7,3.1,2,4.9
		c0.2,1.1,0.9,2,1.3,3.1C657.1,329.9,660.3,330.6,662.6,327.8z"/>
	<path class="st1" d="M532.8,47.1c-0.9-0.2-1.8,0.1-2.5-0.5c-2.4-1.8-5-2-8-1.8c-2.3-0.2-4.7,0-7,1c-2.5,1.1-4.5,2.8-5.4,5.5
		c-1.3,4.1-1.4,8.1,1.3,11.8c0.3,0.4,0.5,0.8,0.9,1.3c1.9,2.8,4.3,5.3,6.2,8c2.8,3.7,6.5,6.2,10.3,8.8c0.9,0.6,2,0.9,3.2,1.2
		c2.3,0.6,4.3-0.8,4.4-3.2c0.2-2.2-0.6-4.2-1.5-6.2c-0.7-1.7-1.5-3.2-1.5-5.1c-0.1-2.5-0.2-5,0.1-7.6c0.3-2.7,0.4-5.6,3.6-7
		c0.3-0.2,0.5-0.5,0.9-0.8c0.9-1,0.9-1.9,0-3C536.4,48.1,534.6,47.6,532.8,47.1z"/>
</g>
<g>
	<path class="st2" d="M438.7,453.4c-2.1,1.5-1.9,1.7-1,4.1c0.2,0.3,0.3,0.7,0.4,1c1.3,3.2,3.2,6.3,4.1,9.8c0.2,1,1,1.4,1.7,1.9
		c2.9,1.8,6.1,3,9.6,2.8c3-0.2,6.1-0.1,9.1-0.4c5.8-0.5,11.4,0.1,16.9,1.4c1.9,0.5,3.7,0.6,5.6,0.5c4.8-0.1,9.5,0.4,14.3,1.2
		c3.3,0.6,6.6,0.9,9.8-0.5c0.5-0.2,1.2-0.4,1.8-0.5c4-0.5,7.6-2.3,11.1-4.2c2.6-1.4,4-3.4,4.4-6.2c0.5-3.4,1-6.7,1.4-10.1
		c0.1-0.6,0.1-1.2,0.2-1.8c0-1.2-0.1-2.3-0.2-3.5c-0.3-2.2-1-4.3-2.2-6.3c-0.4-0.6-0.6-1.3-0.9-2c-0.5-1.7-1.7-2.8-3.2-3.5
		c-5-2.5-10-4.7-15.5-5.9c-5.4-1.3-10.7-2.7-15.4-6.5c-0.9-0.7-2.1-0.3-2.5,0.7l0,0c-1.4,4.6-1.9,9.3-2.8,14
		c-1,4.7-0.8,9.5-0.1,14.3c0.2,1.2,0.2,2.3-0.1,3.5c-0.5,2.4-2,4-3.8,4.2s-3.7-0.9-4.8-3.1c-1-1.9-1.4-4-1.6-6.2
		c-0.2-3-0.2-6.1,0.1-9.1c0.1-1.1,0.2-2.3,0-3.4c-0.5-3.9-1.2-7.7-1.8-11.6c-0.2-1.1-0.6-1.5-1.8-1.4c-3,0.2-6.1,0.4-9.1,0.6
		c-2.8,0.2-5.4,1.3-7.6,3c-2.6,2-4.3,4.6-5.6,7.5c-1.7,3.7-3.8,7.1-6.1,10.5C442,450.4,440.6,452.1,438.7,453.4z"/>
</g>
<g>
	<path class="st3" d="M773.3,120.2l-0.1,0.2h0.2C773.3,120.3,773.3,120.2,773.3,120.2z"/>
	<path class="st3" d="M771.7,117.4c-2.4-4.6-4.9-9.2-8-13.3c-6-7.8-13.4-13.6-23.2-16c-8.3-2.1-16.7-4.2-25.2-5.4
		c-5.5-0.8-11-1.9-16.2-3.7c-4.7-1.6-9.3-3.2-14-4.8c-3.7-1.3-7.4-2.7-10.7-4.8c-3-2-6.3-3.1-9.8-3.9c-1.3-0.3-2.5-0.6-3.7-0.9
		c-5.5-1.1-10.3-3.5-14.4-7.3c-2-1.8-4.1-3.7-6.2-5.6c-1.1-1-2.2-1.4-3.7-1.4c-4.3-0.1-8.5-0.3-12.8,0.3c-1.3,1.5-2.2,3.5-2.4,5.8
		c-0.1,2,0,3.9,0.4,5.7c1.6,0.3,3.2,0.9,4.7,1.9c0.7,0.5,1.5,0.9,2.2,1.4c1.4,0.9,2.8,1.9,4.1,2.9c1,0.8,2,1.6,3.1,2.4
		c0.2,0.2,0.5,0.4,0.7,0.6c0.2,0.1,0.2,0.2,0.4,0.3c0.4,0.3,0.8,0.7,1.2,1.1c0.2,0.2,0.2,0.2,0.4,0.4c0.4,0.4,0.7,0.7,1.1,1.1
		c1,1,2,2.1,3.1,3c0.3,0.3,0.6,0.6,1,0.9c0.2,0.2,0.5,0.5,0.7,0.7c0.3,0.3,0.6,0.7,1,1c0.2,0.2,0.4,0.5,0.6,0.7
		c0.3,0.4,0.6,0.8,1,1.2c0.2,0.2,0.3,0.4,0.5,0.6c0.5,0.6,1,1.3,1.3,1.9c0.4,0.6,0.7,1.1,1.1,1.7c0.2,0.2,0.2,0.4,0.4,0.6
		c0.2,0.4,0.5,0.7,0.7,1.1c0.2,0.2,0.2,0.4,0.4,0.6c0.2,0.3,0.5,0.7,0.7,1c0.2,0.2,0.3,0.5,0.4,0.7c0.2,0.3,0.4,0.6,0.6,0.9
		c0.2,0.2,0.3,0.5,0.4,0.7c0.2,0.3,0.4,0.6,0.5,0.9c0.2,0.2,0.3,0.5,0.4,0.8c0.2,0.3,0.4,0.6,0.5,0.9c0.2,0.2,0.3,0.6,0.4,0.8
		c0.2,0.3,0.3,0.6,0.5,0.9c0.2,0.2,0.2,0.6,0.4,0.8c0.2,0.3,0.3,0.6,0.5,0.9c0.8,1.7,1.8,3.2,3,4.6l0,0c0.9,1,1.7,2.1,2.6,3.2l0,0
		c0.8,1,1.6,2.1,2.4,3.3c0,0.1,0.1,0.2,0.1,0.2c1.4,2.2,2.7,4.5,3.8,6.9c4,9.6,8.2,19.3,11.5,29.2c2.1,6.5,4,13,4.7,19.8
		c0.2,1.3,0.5,2.4,1.1,3.6c4.7,9.9,7.7,20.2,10,30.9c0.6,3.2,1,6.5,1.4,9.7c0.2,1.5-0.2,3.1,0.2,4.5c0.9,3.5,0.7,7,0.4,10.6
		c-1,13.4-0.5,26.8,1.3,40c1.3,9.5,4.3,18.5,9.3,26.6c4.3,7,8.3,14.1,12.2,21.4c0.5,1.1,1.2,2.3,2,3.2c3.6,3.5,7.4,6.9,11.6,9.7
		c1.2,0.8,2.5,1.3,3.8,1.6c0.6,0.2,1.3,0,1.7-0.4c1.7-1.6,2-3.9,1-5.9c-0.7-1.3-1.7-2.5-2.5-3.8c-2.5-3.2-4.8-6.6-7-10.1
		c-0.6-1-1.3-2.1-2-3.2c-0.1-0.1-0.2-0.2-0.2-0.3c-0.7-1.2-1.4-2.5-2-3.6c-0.2-0.4-0.4-0.8-0.6-1.1l0,0l0,0c-0.4-0.6-0.7-1.3-1-2
		c-1.8-4.6-4-9-5.4-13.7c-0.2-0.7-0.5-1.4-0.9-2c-1.3-1.8-1.8-3.9-2.3-6c-1.3-6-2.8-12.1-3.4-18.2c-0.5-5.8-0.7-11.6-0.2-17.4
		c0.2-3,0.2-6.1,0.2-9.1c-0.2-4.6-0.6-9-2-13.4c-0.4-1.2-0.8-2.4-1.1-3.6c-0.2-0.5-0.3-0.9-0.4-1.5c-0.2-0.7-0.5-1.5-0.6-2.2
		c-0.3-1.2-0.6-2.3-1-3.5c-0.2-0.5-0.2-0.9-0.4-1.4c-0.2-0.9-0.5-1.7-0.7-2.5c-1.3-4.7-2.2-9.5-2.5-14.3c-0.2-2.7-0.3-5.3-0.4-8
		c-0.1-2.4-0.2-4.7-0.4-7c0-0.4-0.1-0.8-0.1-1.2c-0.4-5.8-1.1-11.4-2.3-17.1c0-0.2-0.1-0.2-0.1-0.4c-0.2-0.8-0.3-1.5-0.5-2.3
		c-0.2-0.5-0.2-1-0.4-1.5c-0.1-0.4-0.2-0.9-0.3-1.3c-0.2-0.7-0.4-1.4-0.6-2.2c-0.1-0.4-0.2-0.8-0.4-1.2c-0.2-0.7-0.4-1.4-0.6-2.1
		c-0.3-0.9-0.5-1.7-0.9-2.5c-0.2-0.6-0.4-1.3-0.6-1.8c-0.3-0.9-0.6-1.8-1-2.7c-0.2-0.6-0.4-1.1-0.6-1.7c-0.4-0.9-0.7-2-1.1-2.9
		c-0.2-0.5-0.3-0.9-0.5-1.4c-0.5-1.4-1.1-2.9-1.7-4.3c-3.8-9.5-8.8-18.2-15.7-25.7c-2.5-2.6-4.3-5.5-5.8-8.8c-0.5-1.2-1-2.4-1-3.6
		c0-0.7,0.5-1.2,1.3-0.9c3.2,1.3,6.1,3.1,8.7,5.3c6.9,6,13.1,12.6,18.3,20.1c3.4,4.9,7,9.6,10.9,14.1c3.1,3.5,6.1,7.1,8,11.4
		c0.5,1.1,1.3,2.1,2,3.2c1.9,2.4,4.2,4.4,7,5.6c5.2,2.3,10.3,0,12.1-5.4c0.7-2.1,0.9-4.3,0.5-6.4c-0.5-3.2-0.5-6.3-0.5-9.5
		c0-1.6-0.2-2.9-1.6-4c-1.4-1.2-2-3-2-4.7c-0.4-6.7,5.3-13.3,12.2-12.3c5.8,0.8,11.3,2.6,15.2,7.4c0.5,0.6,1.3,1.1,2,1.7
		c1.4,1.2,2.9,2.4,4.3,3.6c1.2,1.1,2.4,2.3,3.5,3.5c0.5,0.4,0.9,0.3,1.3,0C772.5,119.4,772.2,118.3,771.7,117.4z"/>
	<path class="st3" d="M355.7,82.2c0.9-0.7,1.8-1.5,2.4-2.4c2.9-4.6,7-8,10.9-11.5c2.3-2.1,4.8-3.9,7.5-5.4c1.6-1,3.2-1.8,4.9-2.6
		c1-0.5,1.9-0.9,2.9-1.1h0.1c0.2-0.1,0.4-0.2,0.6-0.2c0.1,0,0.1,0,0.2,0h0.1c0.2,0,0.2-0.1,0.4-0.1c0.2,0,0.3-0.1,0.5-0.1
		s0.3-0.1,0.5-0.1s0.3-0.1,0.5-0.1s0.3,0,0.5-0.1c0.2,0,0.3,0,0.5,0s0.3,0,0.5,0s0.3,0,0.4,0c0.2,0,0.4,0,0.5,0c0.2,0,0.2,0,0.4,0
		c0.2,0,0.4,0.1,0.5,0.1c0.2,0,0.2,0,0.4,0.1c0.2,0,0.4,0.1,0.6,0.2c0.1,0,0.2,0.1,0.3,0.1c0.3,0.1,0.6,0.2,1,0.3
		c1.9,0.7,3.2,2,4,3.5l0,0c4.7-2.3,7.2-6.2,8.1-11.1c0.2-0.8,0.2-1.6,0.1-2.4c-0.2-0.2-0.5-0.4-0.8-0.6l-0.1-0.1
		c-0.6-0.5-1.4-1-2.2-1.1c-0.8-0.2-1.6-0.4-2.3-0.6c-0.5-0.2-1.1-0.3-1.7-0.5c-0.9-0.2-1.7-0.5-2.6-0.7c-0.5-0.2-1-0.2-1.4-0.4
		c-1-0.2-2.1-0.5-3.2-0.8c-0.3-0.1-0.5-0.2-0.9-0.2c-1.3-0.3-2.7-0.5-4.1-0.9c-4-0.8-8-0.2-12.1-0.1c-10.3,0.4-19.2,4.2-27.1,10.4
		c-8.8,7-15.7,15.6-21.3,25.3c-0.5,0.9-1,1.8-1.7,2.5c-0.3,0.3-0.5,0.6-0.9,0.9c-0.1,0.1-0.2,0.2-0.2,0.3c-0.2,0.2-0.3,0.4-0.5,0.6
		c-0.1,0.2-0.2,0.2-0.3,0.4c-0.2,0.2-0.3,0.4-0.4,0.6s-0.2,0.3-0.3,0.5c-0.2,0.2-0.2,0.4-0.4,0.6c-0.1,0.2-0.2,0.3-0.2,0.5
		c-0.1,0.2-0.2,0.4-0.3,0.6c-0.1,0.2-0.2,0.3-0.2,0.5c-0.1,0.2-0.2,0.4-0.3,0.6c-0.1,0.2-0.2,0.3-0.2,0.6c-0.1,0.2-0.2,0.4-0.3,0.6
		c-0.1,0.2-0.2,0.4-0.2,0.6c-0.2,0.3-0.2,0.6-0.4,0.9c-0.5,1.2-1.1,2.3-1.7,3.5c-0.1,0.2-0.2,0.3-0.2,0.5c0,0.1-0.1,0.1-0.1,0.2l0,0
		v0.1c-0.1,0.2-0.2,0.3-0.3,0.5c-0.1,0.2-0.2,0.3-0.2,0.4c-0.2,0.3-0.4,0.6-0.6,0.9c-2,2.4-5.3,2.3-7.2-0.2c-1-1.2-1.4-2.7-1.6-4.2
		c-0.2-1.9-0.2-3.8,0.3-5.6c1-3.9,2.5-7.4,4.7-10.7c0.6-0.9,1.6-1.7,1.7-3.2c-0.6,0-1.3-0.2-1.8-0.1c-1.3,0.2-2.8,0.4-4.1,0.6
		c-8.7,0.9-17.3,2.3-25.8,3.9c-9,1.7-17,5.5-24.4,10.8c-0.9,0.6-2.1,1.1-2.2,2.4c0.2,0.2,0.4,0.3,0.6,0.4c5.1,0.7,8.1,4.9,8.5,10.1
		c0.2,2.9,0.1,5.8-0.2,8.7c-0.3,2.8-0.6,5.5-1,8.3c-0.4,3.2-0.4,6.6-0.2,9.9c0.2,2.3,0.8,4.5,2,6.5c0.1,0.2,0.2,0.2,0.2,0.3l0.1,0.1
		c0.1,0.1,0.1,0.2,0.2,0.2l0.1,0.1c0.1,0.1,0.1,0.1,0.2,0.2c0,0,0.1,0.1,0.2,0.1s0.1,0.1,0.2,0.1s0.1,0.1,0.2,0.1s0.1,0.1,0.2,0.1
		s0.1,0,0.2,0.1c0.1,0,0.2,0,0.2,0.1c0.1,0,0.1,0,0.2,0s0.2,0,0.2,0h0.2c0.1,0,0.2,0,0.2,0c1.3-0.1,2.6-0.1,4,0c0.3,0,0.7,0,1,0
		c0.2,0,0.2,0,0.4,0c0.2,0,0.5,0,0.7,0s0.2,0,0.4,0c0.2,0,0.5-0.1,0.7-0.1c0.1,0,0.2,0,0.3-0.1c0.3-0.1,0.7-0.2,1-0.2
		c4.1-1,7.3-3.2,9.8-6.6s4.9-6.8,7.1-10.3c2-3.2,5.3-5.4,7.6-8.4c0.2-0.3,0.5-0.5,0.9-0.7c1.5-0.9,3.1-1.2,4.7-0.2
		c1.5,1,2.1,2.5,1.8,4.3c-0.2,1.3-0.6,2.4-1.2,3.6c-1.4,2.8-2.3,5.8-3.1,8.9c-5,18.5-6.8,37.2-4.6,56.3c0.5,4.4,0.9,8.8,1.3,13.2
		c0.5,5.1,0.3,10.1-1,15c-0.4,1.5-0.6,3-1,4.4c-1.1,3.8-1.4,7.7-1.2,11.6c0.3,4.3,0.6,8.5,1,12.9c0.4,5.4,0.6,10.8,0.4,16.3
		c-0.3,5.9-1.4,11.8-3.5,17.4c-0.2,0.6-0.5,1.3-0.7,1.8c-0.1,0.2-0.2,0.4-0.2,0.6c-0.2,0.4-0.3,0.8-0.5,1.2
		c-0.1,0.2-0.2,0.5-0.3,0.7c-0.2,0.3-0.3,0.7-0.5,1c-0.2,0.2-0.2,0.5-0.4,0.8c-0.2,0.3-0.3,0.6-0.5,1c-0.2,0.2-0.3,0.5-0.4,0.8
		c-0.2,0.3-0.3,0.6-0.5,1c-0.2,0.3-0.3,0.5-0.5,0.9c-0.2,0.3-0.3,0.6-0.5,0.9s-0.3,0.6-0.5,0.9s-0.3,0.6-0.5,1
		c-0.3,0.5-0.6,1.2-1,1.7c-1.9,3.3-4.2,6.3-7,8.9l0,0c-1.2,1.1-2.4,2.2-3.5,3.3c-1.7,1.5-3.4,3-5.1,4.3c-0.4,0.3-0.8,0.6-1.2,0.9
		c-1.4,1.1-2.8,2.1-4.3,3.2c-1.7,1.1-3.5,2.1-5.4,3.1c-0.6,0.3-0.6,1,0.1,1.5c3.2,1.9,6.5,2,9.9,0.6c4.7-2,9.3-4.5,13-8.3
		c2.8-2.9,5-6.4,7.2-9.7c5.5-8.2,8.9-17.2,10.6-26.9c0.5-3.1,0.9-6.2,1.3-9.4c1.1-8.1,1-16.1,0.2-24.2c-0.8-8.4-0.6-16.6,1.7-24.8
		c1.9-6.6,4.1-13,6.9-19.3c3.6-8.1,5.5-16.5,6.1-25.3c0.1-1.1,0-2.3-0.2-3.4c-2.1-9.4-1.3-18.6,2-27.6c3.2-8.8,7.7-17,13.2-24.6
		c3.3-4.7,7.2-8.8,10.6-13.3C346.7,90.6,351,86.2,355.7,82.2z"/>
	<path class="st3" d="M604.1,203.4c1.9,0.6,3.9,1.2,5.7,2c4.5,2.1,8.6,4.7,11.7,8.7c1.3,1.7,3,3.3,4.9,4.7c0.3-0.6,0.7-1.1,0.8-1.5
		c0.4-1.6,1-3.1,1.8-4.5c1.8-3.2,1.8-6.6,0.4-9.9c-1.7-3.9-4.2-7.5-7.8-10c-5.5-3.8-11.4-6.5-17.9-7.8c-2.9-0.6-5.9-1.1-8.9-1.7
		c-5-1.2-9.8-0.6-14.4,1.6c-0.7,0.3-1.4,1-2.3,0.9v0.1l-0.1-0.1l0.1,0.1l-0.1,0.1v-0.2c0.1,0,0.1,0,0.2,0c0.2-1,0.6-2.1,0.8-3.2
		c0.2-1.9-1.1-3.1-3-2.8c-1,0.2-1.7,0.6-2.4,1.1c-1.7,1.2-3.2,2.4-4.3,4.2c-1.7,2.6-3.5,5.2-5.2,7.9c-0.5,0.7-0.9,1.6-1.2,2.4
		c-1.7,4.8-2.5,9.7-2.2,14.8c0.1,2,0.7,3.7,1.7,5.4c0.9,1.6,2.2,2.3,4,2.4c2.1,0.1,4-0.6,5.5-2c2.3-2,4.7-3.9,7-5.8
		c2.2-1.9,4.8-3.2,7.5-4.3c2.7-1,5.5-1.8,8.4-2.2C597.9,203,601,202.2,604.1,203.4z"/>
	<path class="st3" d="M401.2,191.4c-2-0.5-4.1-1.2-6.2-1.8c-4.7-1.3-9.5-2.3-14.5-3c-3.2-0.5-6.3,0.3-9.3,1.1
		c-2.8,0.7-5.2,2.4-7.4,4.3c-4.4,4-7.1,9.2-9.3,14.5c-0.6,1.6-1,3.3-0.4,5.1c0,0,0,0,0.1,0c1.8-1.8,3.5-3.8,5.4-5.5
		c6.5-5.8,14.3-8,22.7-7.4c7.5,0.6,14.6,2.8,21.1,6.8c1.4,0.9,2.9,1.5,4.6,1.6s3.2,0.2,4.9,0.5c2.3,0.5,4-0.6,4.7-2.8
		c1.3-3.9,1.7-7.9,0.2-11.9c-1.1-3.2-2.8-5.9-5.5-8c-1.4-1-1.9-0.9-3.2,0.4c-1,0.9-1.3,2.1-2,3.2
		C405.6,191.4,404.1,192.1,401.2,191.4z"/>
	<path class="st3" d="M354,212L354,212C354.1,211.9,354.1,211.9,354,212C354.1,211.9,354.1,211.9,354,212z"/>
	<path class="st3" d="M354.1,211.8C354.2,211.8,354.2,211.8,354.1,211.8C354.2,211.8,354.2,211.8,354.1,211.8
		C354.2,211.8,354.2,211.7,354.1,211.8C354.2,211.7,354.2,211.7,354.1,211.8z"/>
	<path class="st3" d="M354.2,211.8C354.3,211.9,354.2,211.7,354.2,211.8C354.2,211.7,354.2,211.8,354.2,211.8L354.2,211.8z"/>
	<path class="st3" d="M400.3,281.5c2.3-2.7,4.3-5.6,6.2-8.5c1.3-2,1.9-4.3,2-6.8c0-1.2-0.4-1.6-1.6-1.6c-2-0.1-3.3,0.9-4.7,2
		c-6.6,5.8-14.5,8.6-23.1,8.9c-6.1,0.2-11.8-1-17-4c-2.9-1.7-5.2-3.8-6.5-7c-1-2.5-2.4-4.7-3.6-7c-0.6-1.2-1.5-2.4-2.6-3.2
		c-1-0.9-2.6-0.4-2.9,1c-0.2,0.9-0.2,1.7,0.1,2.6c0.3,1.1,0.6,2.2,1,3.2c1.7,4,3.2,7.9,4.5,12c0.5,1.7,1.3,3.3,2.5,4.7
		c1.9,2.4,3.8,4.7,5.7,7.1c1,1.3,2.4,2.3,3.9,3c4,1.8,8,2.8,11.8,2.8c5.2-0.1,9.6-1,14-2.4C393.7,287,397.4,284.8,400.3,281.5z"/>
	<path class="st3" d="M625,259.2c-0.7,0.7-1.3,1.5-1.8,2.4c-2,3.8-4.9,7-7.9,10.1c-4.7,4.7-10.2,8.2-17,8.8c-1.2,0.1-2.2,0.4-3.2,1
		c-2.5,1.3-2.8,4-0.6,5.8c1.3,1,2.8,1.2,4.3,1.2c3.4-0.4,6.7-0.8,10.1-1.2c7.8-0.9,14-4.7,19-10.5c2.3-2.6,3.7-5.7,4.5-9
		c0.8-3.2-0.5-6-2.5-8.4C628.5,257.5,626.6,257.6,625,259.2z"/>
	<path class="st3" d="M410.3,421c0.8-2.5,1.4-5.1,2-7.7s0.9-5.2,0.2-7.9c-0.1-0.2,0.2-0.4,0.3-0.6c0.2,0,0.3-0.1,0.4,0
		c5,2.5,9.6,0.6,14-2c3.2-2,3.1-6.1,0.1-8.3c-0.8-0.6-1.7-1-2.8-1.2c-1.1-0.2-2.2-0.4-3.4-0.5c-3.2-0.4-6.2-1.3-9.2-2.2
		c-3.1-1-5.7-2.8-7.7-5.2c-2.5-3-4.4-6.5-5.7-10.2c-0.3-1-0.5-1.9-0.4-3c0.6-3,1-6,2.2-8.8c1-2.3,1.3-4.5,1.3-7
		c-0.1-6.2,1.6-12,5.3-17c0.3-0.5,0.6-1.1,1.7-1c0,0.8,0.1,1.7,0.1,2.5c-0.1,3.2,1,6.2,2.8,8.8c0.8,1.1,1.7,2.2,2.5,3.3
		c2.1,2.6,4.4,5.1,6.5,7.9c0.5,0.7,1,1.3,1.6,2c0.2,0.2,0.3,0.4,0.5,0.6c0.4,0.5,0.7,0.9,1.1,1.3c0.2,0.2,0.5,0.5,0.7,0.7
		c0.3,0.4,0.7,0.7,1,1.1c0.2,0.2,0.5,0.5,0.8,0.7c0.3,0.3,0.7,0.6,1,1c0.3,0.2,0.5,0.5,0.9,0.7c0.3,0.3,0.7,0.6,1,0.9
		s0.6,0.5,0.9,0.6c0.4,0.2,0.7,0.5,1.1,0.8c0.3,0.2,0.6,0.4,1,0.6s0.8,0.5,1.2,0.7c0.3,0.2,0.7,0.4,1,0.5c0.4,0.2,0.8,0.5,1.3,0.7
		c0.2,0.1,0.4,0.2,0.5,0.3c0.2,0.1,0.4,0.2,0.5,0.3c0.2,0.2,0.4,0.2,0.6,0.4c0.2,0.1,0.3,0.2,0.5,0.3c0.2,0.2,0.5,0.3,0.7,0.4
		s0.4,0.2,0.5,0.3c0.2,0.2,0.5,0.2,0.7,0.4c0.2,0.1,0.4,0.2,0.5,0.3c0.2,0.1,0.5,0.2,0.7,0.3c0.2,0.1,0.4,0.2,0.5,0.2
		c0.2,0.1,0.5,0.2,0.8,0.3c0.2,0.1,0.4,0.2,0.5,0.2c0.2,0.1,0.5,0.2,0.8,0.3c0.2,0.1,0.3,0.2,0.5,0.2c0.3,0.1,0.6,0.2,0.9,0.3
		c0.2,0.1,0.3,0.1,0.5,0.2c0.3,0.1,0.7,0.2,1,0.3c0.1,0,0.2,0.1,0.3,0.1c0.5,0.2,1,0.2,1.3,0.4c1.6,0.5,3.2,0.7,4.9,0.6
		c0.2,0,0.5-0.2,0.5-0.4c0.1-0.2,0.1-0.5-0.1-0.7c-1.2-1.7-2.8-2.9-4.7-3.8c-2-1-4.1-2-5.8-3.5c-4.3-3.6-9-6.9-13.2-10.7
		c-2.8-2.6-5.1-5.6-6.6-9.1c-2.1-5-4-10.1-5.1-15.4c-0.5-2.4-0.5-4.7,0.1-7.1c0.7-3.2,1.7-6.3,2.5-9.5c0.4-1.5,0.9-2.9,1.7-4.2
		c0.7-1.1,1.3-2.1,2-3.2c-2.3-0.1-4.3,0.7-5.9,2.2c-2,1.8-4.2,3.7-6.1,5.7c-5.2,5.5-9.1,11.8-12.1,18.6c-0.3,0.8-0.5,1.7-1.1,2.4
		c-4.4,5-6.5,11-7,17.6c-0.3,4-0.7,7.7-1.7,11.5c-0.3,1.1-0.3,2.2-0.4,3.4c-0.6,8.4,1.6,16,6.3,22.9c1,1.6,1.6,3.1,1.5,4.9
		c-0.2,4,0.2,7.8,1,11.7c1,5,1.6,10,0.2,15c-0.4,1.3-0.2,2.8,0.1,4.1c0.3,1.2,0.9,2.1,1.7,2.9c2.9-2.9,5.4-6.2,7.6-9.8
		C409.2,424.4,409.8,422.7,410.3,421z"/>
	<path class="st3" d="M475.6,404.6c0-0.1,0-0.2,0-0.2c-0.2-1.2-1.3-2-2.5-2c-0.6,0-1.2,0-1.8,0c-1.4,0-2.8,0-4.2,0.2
		c-0.7,0.1-1.4,0.1-2.1,0.2c-2,0.2-4.1,0.6-6.1,1.3c-6.2,2-12,4.7-16.5,9.5c-1,1.1-2.2,2.1-3.2,3.2c-3.2,3.2-6.6,6.2-8.6,10.5
		c-0.2,0.3-0.5,0.6-0.7,0.9c-3.1,3.7-6.2,7.3-10.1,10.2c-1,0.7-2,1.5-3.1,2.3c-0.3,0.2-0.6,0.5-1,0.7c-0.9,0.6-1.7,1.3-2.5,2
		c-0.4,0.3-0.7,0.6-1.1,0.9c-0.8,0.6-1.6,1.3-2.5,1.9c-0.6,0.5-1.2,1-1.8,1.4c-0.2,0.2-0.5,0.3-0.6,0.5c-0.8,0.6-1.6,1.3-2.4,2
		c-0.5,1.3-1,2.7-1.4,4.1c-0.4,1.5-0.6,3-0.4,4.5c0.2,2,1.3,3.6,2.8,4.7c2.8-3.6,6.2-6.8,10.1-9.5c3.5-2.4,6.9-4.8,10.3-7.2
		c0.5-0.4,1.1-0.8,1.7-1.2c0.1-0.1,0.1-0.1,0.2-0.2c4.4-3.1,7.9-7,10.2-12c0.2-0.3,0.3-0.7,0.5-1c0.1-0.2,0.2-0.2,0.2-0.4
		c0.1-0.2,0.2-0.4,0.3-0.6c0.1-0.2,0.2-0.4,0.3-0.5c0.1-0.2,0.2-0.4,0.3-0.6c0.2-0.3,0.3-0.5,0.5-0.9c2-3.5,4.7-6.2,8.4-8l0,0l0,0
		c0.4-0.2,0.9-0.4,1.3-0.6s0.9-0.4,1.3-0.6c0.6-0.2,1.3-0.5,1.9-0.7c0.5-0.2,1-0.3,1.5-0.5c1.8-0.6,3.6-1.2,5.5-1.7
		c1.4-0.4,2.8-0.7,4.3-1c2-0.4,4-1,5.8-1.6c1.3-0.4,2.3-1,3.2-2c0.2-0.3,0.4-0.5,0.6-0.9c0.1-0.1,0.2-0.2,0.2-0.3
		c0.2-0.2,0.2-0.4,0.3-0.6c0.1-0.2,0.1-0.2,0.2-0.4c0.1-0.2,0.2-0.4,0.2-0.5c0.1-0.2,0.1-0.2,0.2-0.4c0.1-0.2,0.2-0.4,0.2-0.5
		c0.1-0.2,0.1-0.3,0.1-0.5c0.1-0.2,0.1-0.4,0.2-0.5c0-0.2,0-0.3,0.1-0.5c0-0.2,0.1-0.4,0.1-0.5c0-0.2,0-0.3,0-0.5s0-0.4,0-0.5
		c0-0.2,0-0.3-0.1-0.5C475.6,405,475.6,404.7,475.6,404.6z"/>
	<path class="st3" d="M486.3,362.9c-1-3.8-1.9-7.6-1.8-11.5c0.1-3.6-0.5-7-3.2-9.8c-1.7,2.8-3.2,5.5-2.9,8.8
		c0.2,2.5-0.1,4.7-0.6,7.1c-1.3,5.7-2.2,11.4-3,17.1c-0.4,2.5-0.3,5,0.5,7.5c0.5,1.5,1.3,2.8,2.5,3.8c3.1,2.6,7.3,2.1,9.5-1.3
		c1-1.5,1.6-3.2,1.7-4.9c0.3-2.5,0.2-5-0.3-7.5C487.9,369,487.1,366,486.3,362.9z"/>
	<path class="st3" d="M516,342.2c-3.8-0.4-6.9-1.9-9.7-4.5c-2.5-2.2-3.7-4.7-3.6-7.9c0-1.1,0-2.3-0.3-3.4c-0.7-3-3.4-3.8-5.8-1.8
		c-1.8,1.5-2.6,3.4-2.3,5.7c0.2,1.3,0.5,2.8,0.6,4.1c0.7,6.3,4.1,10.5,10.1,12.3c4.4,1.3,9.1,2.4,13.7,1.8c3.2-0.4,6.5-0.5,9.8-0.1
		c3.4,0.5,5.8-1.2,7.3-4.3c0.4-0.8,0.7-1.7,1-2.5c1-2.5,0.2-4.3-2-6.3c-1,1.9-1.7,3.3-2.5,4.7c-0.4,0.7-1,1.1-1.8,1.1
		c-1.4,0-2.8,0-4.1,0.5C523,342.9,519.5,342.5,516,342.2z"/>
	<path class="st3" d="M572.2,433.8c-0.8-6.6-2.3-13.2-4.2-19.6c-2.3-7.8-2.6-15.6-0.7-23.5c1.1-4.5,2.3-9.1,2.7-13.7
		c0.5-5,1.2-10,0.7-15.1c-0.8-9.2-3-17.8-6.8-26.3c-1.5-3.4-3.3-6.5-5.6-9.4c-3.3-4.2-7.1-7.8-10.4-11.9c-3.5-4.4-7.7-8.3-11.7-12.4
		c-0.2-0.2-0.5-0.5-0.8-0.7c1.7,2.2,2.8,4.7,3.5,7.6s1.7,5.8,2.9,8.6c0.9,2,1.8,3.9,1.5,6.2c-0.1,0.6,0.1,1.3,0.3,1.8
		c1.6,3.4,1.3,7,1,10.4c-0.1,0.7-0.1,1.4-0.2,2.1c0,0.2-0.1,0.5-0.1,0.7c-0.1,0.5-0.2,1-0.2,1.3c-0.1,0.2-0.2,0.5-0.2,0.8
		c-0.1,0.4-0.2,0.8-0.3,1.2c-0.1,0.3-0.2,0.5-0.2,0.9c-0.2,0.4-0.2,0.8-0.4,1.1c-0.1,0.3-0.2,0.5-0.3,0.9c-0.2,0.4-0.3,0.7-0.5,1.1
		c-0.2,0.3-0.3,0.5-0.4,0.9c-0.2,0.3-0.3,0.7-0.5,1s-0.3,0.5-0.5,0.9c-0.2,0.3-0.4,0.6-0.5,1s-0.4,0.5-0.5,0.8
		c-0.2,0.2-0.4,0.5-0.5,0.8c-0.1,0.2-0.2,0.2-0.3,0.4c-0.8,1.1-1.5,2.2-2.3,3.3c0,0.1-0.1,0.1-0.1,0.2c-0.2,0.2-0.3,0.4-0.4,0.6
		c-0.2,0.4-0.5,0.7-0.8,1.1c-0.2,0.2-0.3,0.5-0.5,0.6c-0.2,0.3-0.5,0.6-0.7,1c-0.2,0.2-0.3,0.5-0.5,0.7c-0.2,0.3-0.5,0.6-0.8,1
		c-0.2,0.2-0.4,0.5-0.5,0.6c-0.2,0.3-0.5,0.6-0.8,0.9c-0.2,0.2-0.4,0.4-0.5,0.6c-0.3,0.3-0.5,0.5-0.9,0.9c-0.2,0.2-0.4,0.4-0.5,0.5
		c-0.3,0.3-0.7,0.6-1,1c-0.2,0.2-0.3,0.3-0.5,0.5c-0.5,0.5-1.1,0.9-1.7,1.3c-0.4,0.3-0.8,0.5-1.2,0.9c-0.2,0.1-0.3,0.2-0.5,0.4
		c-0.2,0.2-0.5,0.4-0.7,0.5c-0.2,0.2-0.4,0.3-0.6,0.5c-0.2,0.2-0.5,0.4-0.8,0.6s-0.6,0.5-1,0.7c-0.2,0.1-0.3,0.2-0.4,0.3
		c-0.2,0.2-0.5,0.4-0.7,0.5c-0.2,0.2-0.3,0.2-0.5,0.4c-0.2,0.2-0.5,0.3-0.6,0.5c-0.2,0.2-0.3,0.2-0.5,0.4c-0.2,0.2-0.5,0.3-0.6,0.5
		c-0.2,0.2-0.4,0.2-0.5,0.4c-0.2,0.2-0.4,0.2-0.6,0.4c-0.2,0.2-0.5,0.3-0.8,0.5c-0.1,0.1-0.2,0.2-0.3,0.2s-0.2,0.2-0.2,0.2
		c-0.3,0.2-0.5,0.5-0.8,0.7c-0.2,0.2-0.3,0.3-0.5,0.5s-0.4,0.3-0.5,0.5c-0.2,0.2-0.5,0.5-0.9,0.7c-0.2,0.2-0.4,0.3-0.5,0.5
		c-0.3,0.2-0.6,0.5-1,0.7c-0.2,0.1-0.3,0.2-0.5,0.3c-0.5,0.3-1,0.7-1.5,1c-0.4,0.2-0.8,0.5-1.1,0.8c0,0,0,0-0.1,0
		c-1.7,1.3-0.3,4,1.6,3.3c0.1,0,0.2-0.1,0.2-0.1c0.3-0.2,0.9-0.2,1.1-0.1c0.1,0,0.1,0.1,0.2,0.1c1.6-0.1,4.3-0.2,5.6-0.7
		c7.7-3.3,14.2-8.4,19.9-14.2c5.5-5.8,10-12.4,13.2-19.7c2-4.6,3.5-9.2,3.3-14.3c0-0.3,0-0.7,0.8-1c4,2,6.5,5.4,7.7,9.9
		c0.1,0.3,0.2,0.7,0.2,1c0,0.2,0.1,0.2,0.1,0.4c0.1,0.2,0.1,0.5,0.2,0.6c0,0.2,0.1,0.3,0.1,0.5s0.1,0.4,0.1,0.5
		c0.1,0.3,0.1,0.6,0.2,1c0,0.2,0.1,0.2,0.1,0.4c0,0.2,0.1,0.4,0.1,0.6s0.1,0.3,0.1,0.5s0.1,0.4,0.2,0.6c0,0.2,0.1,0.3,0.1,0.5
		c0.1,0.2,0.1,0.4,0.2,0.5c0,0.2,0.1,0.3,0.2,0.5c0.1,0.2,0.2,0.5,0.2,0.7c1,3,1.4,6.1,1.4,9.2c0,0.2,0,0.5,0,0.6s0,0.2,0,0.4
		c-0.1,1.8-0.2,3.7-0.6,5.6c-0.1,0.2-0.1,0.5-0.2,0.7c-0.1,0.2-0.1,0.4-0.2,0.6c-0.1,0.2-0.1,0.5-0.1,0.7s-0.1,0.4-0.1,0.6
		s-0.1,0.5-0.1,0.7s-0.1,0.4-0.1,0.6s-0.1,0.5-0.1,0.7s-0.1,0.4-0.1,0.5c0,0.2,0,0.5-0.1,0.7c0,0.2,0,0.4,0,0.5c0,0.2,0,0.5,0,0.8
		c0,0.2,0,0.4,0,0.5c0,0.3,0,0.6,0,0.9c0,0.2,0,0.3,0,0.4c0,0.5,0.1,0.9,0.1,1.3c0.1,0.7,0.2,1.6-0.1,2.3c-1,2.3-1,4.7-1.3,7
		c-0.3,2.4-1.5,4.3-3.4,5.7c-1.5,1.2-3.2,2.1-4.8,2.9c-1.8,0.9-3.1,2.2-3.8,4c-1.3,3.2,0.3,6.2,3.8,6.8c0.9,0.2,1.7,0.1,2.6,0.1
		c0.8,0,1.5-0.2,2.3-0.3c1.1-0.2,1.4,0.2,1.4,1.1c0,0.2-0.1,0.5-0.1,0.8c-1,8.8,1.1,16.7,6.9,23.7c2.7,3.2,4.9,6.8,6.6,10.6
		c-0.2-1.2-0.3-2.4-0.5-3.6C572.6,437,572.3,435.4,572.2,433.8z"/>
	<path class="st3" d="M565.6,465.8c-0.3-1.2-0.6-2.5-1.4-3.5c-2.9-4-5-8.5-7.1-13c-1.7-3.7-3.9-7.1-6.4-10.3
		c-2.1-2.7-4.5-5.1-6.8-7.7c-0.5-0.5-1-1-1.4-1.5c-0.2-0.2-0.3-0.3-0.5-0.5c-0.3-0.3-0.6-0.6-1-1c-0.2-0.2-0.4-0.3-0.6-0.5
		c-0.3-0.2-0.6-0.5-1-0.8c-0.2-0.2-0.5-0.3-0.6-0.5c-0.3-0.2-0.6-0.5-1-0.7c-0.2-0.2-0.5-0.3-0.7-0.5c-0.3-0.2-0.6-0.5-1-0.6
		c-0.2-0.2-0.5-0.3-0.7-0.5c-0.3-0.2-0.6-0.4-1-0.6c-0.2-0.2-0.5-0.3-0.8-0.5s-0.6-0.4-1-0.5c-0.2-0.2-0.5-0.3-0.8-0.4
		c-0.5-0.2-1-0.5-1.6-0.8c-1.6-0.8-3.2-1.5-4.7-2.4c-1.1-0.5-2.1-1.1-3.2-1.7c-0.5-0.2-0.9-0.5-1.3-0.8c-0.3-0.2-0.6-0.3-1-0.5
		s-0.8-0.4-1.1-0.6s-0.6-0.3-1-0.5s-0.8-0.4-1.2-0.5c-0.3-0.2-0.6-0.3-1-0.5s-0.8-0.4-1.2-0.5c-0.3-0.2-0.6-0.3-1-0.4
		c-0.4-0.2-0.8-0.4-1.3-0.5c-0.3-0.2-0.6-0.2-0.9-0.4c-0.4-0.2-0.9-0.3-1.3-0.5c-0.3-0.1-0.5-0.2-0.9-0.3c-0.5-0.2-1-0.4-1.4-0.5
		c-0.2-0.1-0.5-0.2-0.7-0.2c-0.7-0.2-1.5-0.5-2.2-0.8c-2.5-0.9-4.9-2-6.9-3.9c-1.3-1.3-3.1-2-4.3-3.5c-0.7-0.9-2.1-0.9-2.4,1
		c-0.2,0.9-0.3,1.7-0.5,2.6c-0.6,3.4,0.3,6.2,2.8,8.5c2.4,2.2,5.1,3.6,8,4.8c0.4,0.2,0.8,0.3,1.3,0.5c0.1,0,0.2,0.1,0.3,0.1
		c0.2,0.1,0.3,0.2,0.5,0.2c0.2,0.1,0.3,0.1,0.4,0.2c0.1,0,0.2,0.1,0.2,0.1c0.4,0.2,0.8,0.3,1.2,0.4h0.1c0.4,0.2,0.8,0.3,1.2,0.5
		c0.1,0,0.1,0.1,0.2,0.1c3.8,1.7,7.7,3.2,11.7,4.5l0,0c0.5,0.2,1.2,0.4,1.7,0.6c0.2,0.1,0.3,0.1,0.5,0.2c0.5,0.2,1,0.4,1.4,0.6
		c0.1,0.1,0.2,0.1,0.3,0.2c0.5,0.2,1.1,0.5,1.7,0.8c0.2,0.1,0.2,0.2,0.4,0.2c0.5,0.2,0.9,0.5,1.3,0.8c0.1,0.1,0.2,0.1,0.2,0.2
		c0.1,0.1,0.2,0.2,0.3,0.2c1.3,0.9,2.7,1.8,4.1,2.6c0.2,0.1,0.3,0.2,0.5,0.2c0.2,0.1,0.4,0.2,0.5,0.3c0.2,0.2,0.4,0.2,0.5,0.4
		c0.2,0.1,0.3,0.2,0.5,0.3c0.2,0.2,0.4,0.2,0.5,0.4c0.2,0.2,0.3,0.2,0.5,0.4c0.2,0.2,0.3,0.3,0.5,0.4c0.2,0.2,0.3,0.2,0.5,0.4
		c0.2,0.2,0.3,0.3,0.5,0.5s0.3,0.2,0.5,0.4s0.3,0.3,0.5,0.5s0.3,0.3,0.4,0.4c0.2,0.2,0.3,0.3,0.5,0.5s0.2,0.3,0.4,0.5
		s0.3,0.3,0.4,0.5c0.2,0.2,0.2,0.3,0.4,0.5s0.2,0.3,0.4,0.5c0.1,0.2,0.2,0.3,0.3,0.5c0.2,0.2,0.2,0.4,0.4,0.5
		c0.1,0.2,0.2,0.3,0.3,0.5c0.2,0.2,0.2,0.4,0.4,0.5c0.1,0.2,0.2,0.3,0.3,0.5c0.2,0.2,0.2,0.4,0.3,0.6s0.2,0.3,0.2,0.5
		c0.1,0.2,0.2,0.5,0.3,0.6s0.2,0.3,0.2,0.5c0.1,0.2,0.2,0.5,0.3,0.7s0.2,0.3,0.2,0.5c0.1,0.2,0.2,0.5,0.3,0.8
		c0.1,0.2,0.1,0.2,0.2,0.4c0.2,0.4,0.3,0.8,0.5,1.3c1.3,3.8,2.8,7.6,4.2,11.4c1.5,4.2,4,7.6,7.7,10c4.1,2.7,6.9,6.6,9.6,10.6
		c0,0,0,0,0,0.1l0,0l0,0c0.3-0.5,0.6-1,1-1.5c0.7-1.4,1.5-2.9,2.2-4.4c-0.2-0.5-0.4-1-0.5-1.5C566.8,469.9,566.3,467.9,565.6,465.8z
		"/>
	<path class="st3" d="M432.2,346.9c1.3,0.6,2.6,1,4,1.1c2.4,0.3,4.7,0.6,7.1,1c1.3,0.2,2.5,0.2,3.8,0.1c4.4-0.4,8.8-0.7,13.2,0.5
		c2.3,0.6,4.2-0.1,5.9-1.6c1.5-1.3,2.5-2.8,3-4.7c0.5-2,0.7-4,0.7-6c0-1.5,0.1-3,0.5-4.5c0.7-2.5,0.6-5,0.4-7.5
		c-0.1-1.3-0.5-2.5-1.3-3.5c-1.1-1.3-2.5-1.7-4.1-1c-1.4,0.5-1.7,1-1.7,3.1c0,0.2,0,0.2,0,0.9c-0.2,2.1-0.5,4.8-1,7.4
		c-0.4,2.5-1.7,4.2-4,5.1c-3.1,1.2-6.2,2.3-9.5,2.4c-2.4,0.1-4.8,0-7.2,0.1c-2.3,0.1-3.8-0.3-4.9-2.9c-1.4-3.4-6.1-3.3-8-0.2
		C426.9,340.4,428.4,345,432.2,346.9z"/>
	<path class="st3" d="M449.1,311.6c1.1,0.1,2.3-0.1,3.4-0.4c6-1.9,12.3-2.8,18.5-3.8c4.1-0.7,8.3-1.3,12.4-1
		c7,0.5,13.9,0.5,20.6,2.3c1.6,0.4,3.2,0.5,4.8,1c3.4,0.9,6.5-0.1,9.5-1.4c3.4-1.6,4.3-4.8,2-7.8c-2.4-3.1-5.1-5.9-8.7-7.7
		c-5.3-2.8-10.7-5-16.9-4.8c-1.4,0-2.8,0-4.2,0c-3-0.2-6.1-0.6-9.1-0.2s-6,0.8-9,1.3c-5.5,0.8-10.5,2.6-15.1,5.7
		c-4.2,2.8-7.5,6.3-10.6,10.2c-0.7,0.9-1.2,2-1.7,2.9c-0.4,0.8-0.2,1.5,0.3,2.1C446.5,310.9,447.6,311.5,449.1,311.6z"/>
</g>
<g>
	<path class="st4" d="M670.4,644.7l1.8-2.1l0.9-1c0.3-0.3,0.6-0.7,1-1l1.9-2c0.6-0.7,1.3-1.3,1.9-2c1.3-1.3,2.6-2.6,4-3.9l0.5-0.5
		l0.5-0.5l1-1c0.7-0.6,1.3-1.3,2-1.8l2.1-1.8l0.3-0.3c-0.7-1.2-1.5-2.4-2.3-3.5c-4-6.2-6.5-13-7.6-20.4c-0.7-5.1-1.6-10.2-1.4-15.3
		c0.1-4.5,0.9-9,1.9-13.3c0.7-3.2,1.8-6.2,2.8-9.6c1.7,1.3,3.1,2.5,4.5,3.6c4.3,3.6,8.9,7,12.9,11c5.5,5.6,11.1,11,16.5,16.7
		c3.2,3.3,6.1,6.9,8.8,10.6c0.2-0.1,0.5-0.2,0.8-0.3l1.3-0.4l2.7-0.9l1.3-0.4c0.5-0.2,0.9-0.2,1.3-0.4l2.7-0.7l1.3-0.4l0.7-0.2
		l0.7-0.2l2.5-0.5c-5.9-8-11.8-15.9-18.2-23.4c-1.4-1.7-2.6-3.4-3.8-5.2c-1.7-2.6-3.1-5.5-4-8.5c-0.5-1.7-1-3.4-0.8-5.2
		c0.2-1.1-0.2-1.9-0.9-2.8c-4.3-4.8-7.8-10.3-11.3-15.6c-1.8-2.8-3.5-5.5-5.5-8.2c-0.8-1.1-1.1-2.2-1.3-3.5
		c-0.8-10.6-2.5-21.1-4.7-31.4c-3.3-16.4-8.1-32.3-15.3-47.4c-3.1-6.5-5.5-13.3-7.5-20.2c-0.2-0.7-0.5-1.4-0.6-2.1
		c-0.1-0.3-0.2-0.7-0.7-0.5c-0.2,0.1-0.4,0.3-0.4,0.5c-0.2,1.1-0.2,2.3-0.3,3.4c-0.4,5.3-1.4,10.5-3.2,15.5s-4.4,9.6-7,14.2
		c-1.2,2-2,4-2.4,6.3c-0.5,4.7-1,9.5-1.5,14.3c-0.1,0.5,0,1,0.1,1.5c0.5,3.9,0.9,7.7,1.5,11.6c0.5,3.5,0.5,7,0,10.6
		c-0.5,3.5-1.3,6.9-2.3,10.3c-0.7,2.5-0.5,4.9,1.4,7c2.5,2.7,3.6,6,4.3,9.5c1.2,6.7,2.5,13.4,3.7,20.1c1,5.5,1.5,11,0.6,16.6
		c-1.2,7.7-3.4,15.3-6.8,22.4c-1.9,4-4.3,7.7-7.3,11c-1.3,1.3-2.8,2.6-4.2,3.8c-1.6,1.3-3.5,2-5.5,2.5c-0.7,0.2-1.5,0.2-2.2,0.1l0,0
		c-1.1,6.2-0.3,12.3,0.4,18.5c0.3,3.2,0.9,6.2,1.7,9.3c1.7,6.2,5,11.3,10,15.2c3.2,2.5,6.6,4.7,10.4,6c1,0.3,2,0.7,2.9,1.1
		c2.5-3.5,5-7,7.6-10.3C668,647.5,669.2,646.1,670.4,644.7z M659.8,502.2c-0.2-0.8-0.2-1.7,0.1-2.6c0.5-2.5,1.2-4.9,2-7.3
		c1.5-4.7,2.7-9.4,3.6-14.2c0.4-2,0.2-4,0.2-6c0-1-0.2-2,1.1-2.5c1.5-0.5,3.1-1.4,4.6,0c0.7,0.7,1.4,1.4,1.8,2.4
		c1.7,4.2,3.5,8.4,4.3,12.9c0.8,5.2,2.2,10.3,2,15.6c-0.2,5.5-0.1,10.8-0.1,16.3l0,0c0,6.4,0,12.9,0,19.3c0,0.8,0,1.5,0,2.3
		c0,1.1-0.4,2-1.5,2.4c-1.5,0.5-2.9,0-3.6-1.2c-0.2-0.4-0.5-0.9-0.7-1.3c-1.6-3.9-3.2-7.7-4.6-11.5c-2-5.9-4.6-11.7-7-17.4
		C661,506.9,660.4,504.5,659.8,502.2z"/>
	<path class="st4" d="M641.2,174.3c1,1.4,2,2.9,2.8,4.5c1,2.1,2.1,4,3.5,5.8c4,5.5,6.4,11.7,7.9,18.3c1.3,6.2,2.4,12.4,1.7,18.8
		c-0.2,1.6,0,3.3,0.2,4.9c0.5,3.5,0.2,6.8-0.6,10.1c-0.6,2.3-1.2,4.7-1.9,6.9c-0.7,2.6-0.8,5.2-0.5,7.9c0.1,0.3,0.1,0.7,0.1,1
		c0.1,0.4,0.1,0.9,0.2,1.3c0.1,0.5,0.1,0.9,0.1,1.3c0,0.4,0.1,0.9,0.1,1.3c0,0.5,0,0.9,0,1.3s0,0.9,0,1.3c0,0.5,0,0.9,0,1.3
		s0,0.8,0,1.2c0,0.5-0.1,0.9-0.1,1.3s-0.1,0.8-0.1,1.2c-0.1,0.5-0.1,0.9-0.2,1.3c-0.1,0.4-0.1,0.8-0.2,1.2c-0.1,0.5-0.2,0.9-0.2,1.3
		s-0.2,0.8-0.2,1.2c-0.1,0.4-0.2,0.9-0.3,1.3s-0.2,0.8-0.2,1.1c-0.1,0.4-0.2,0.9-0.4,1.3c-0.1,0.4-0.2,0.7-0.3,1.1
		c-0.2,0.4-0.3,0.9-0.4,1.3c-0.2,0.4-0.2,0.7-0.4,1.1s-0.3,0.9-0.5,1.3c-0.2,0.3-0.3,0.7-0.4,1c-0.2,0.4-0.4,0.9-0.5,1.3
		c-0.2,0.3-0.3,0.7-0.5,1c-0.2,0.4-0.5,0.9-0.7,1.3c-0.2,0.3-0.3,0.6-0.5,1c-0.2,0.5-0.5,0.9-0.8,1.3c-0.2,0.3-0.3,0.6-0.5,0.9
		c-0.3,0.5-0.6,1-1,1.4c-0.2,0.2-0.3,0.5-0.5,0.8c-0.5,0.7-1,1.4-1.6,2.1c-0.8,1-1.6,2-2.4,3.1c-0.5,0.5-1,1.2-1.3,1.7
		c-0.2,0.2-0.3,0.4-0.5,0.6c-2.8,4-4.7,8.7-5.4,13.6c-0.2,1-0.2,2-0.2,3c0,0.2,0,0.2,0,0.4c0,0.1,0,0.2,0,0.2c0,0.3,0,0.6,0,0.9
		s0,0.6,0.1,1c0,0.1,0,0.1,0,0.2c0,0.3,0.1,0.5,0.1,0.9c0,0.1,0,0.2,0,0.2c0.1,0.5,0.2,1.2,0.3,1.7c0,0.2,0.1,0.2,0.1,0.4
		c0.2,0.5,0.3,1,0.5,1.6c0.2,0.5,0.4,1,0.6,1.5c0.2,0.3,0.3,0.6,0.5,1l0,0c0.1,0.2,0.2,0.2,0.2,0.4c0.2,0.2,0.3,0.5,0.5,0.8
		c0.3,0.5,0.7,1,1.1,1.5c0.3,0.3,0.5,0.7,0.9,1s0.6,0.7,0.9,1c0.1,0.2,0.2,0.2,0.3,0.4c0.2,0.2,0.3,0.4,0.5,0.6c0,0,0,0,0.1,0.1
		l0.1,0.1c0.2,0.2,0.2,0.3,0.3,0.5c4.3,5.8,7.1,12.2,8.1,19.3c0.1,0.3,0.1,0.5,0.2,0.9c0,0.1,0,0.2,0,0.2c0.1,0.5,0.2,1,0.2,1.3
		c0.1,0.5,0.2,1,0.2,1.6c0.1,0.6,0.2,1.3,0.2,2c0.1,0.5,0.2,1,0.2,1.6c0.1,0.6,0.2,1.3,0.2,2c0.1,0.5,0.1,1,0.2,1.5
		c0.1,0.7,0.2,1.3,0.2,2c0.1,0.5,0.1,1,0.2,1.4c0.1,0.8,0.2,1.5,0.2,2.3c0,0.4,0.1,0.9,0.1,1.3c0.1,1,0.2,2,0.2,3.2
		c0.1,0.8,0.2,1.6,0.2,2.4c0.1,0.5,0.1,1,0.2,1.4c0.1,1.2,0.2,2.4,0.3,3.5c0.5,4.8,1.3,9.5,3.5,13.8c1.2,2.2,2,4.7,3,7
		c0.2,0.5,0.2,1.3,1.2,1.1c3.2-6.6,6.5-13.3,9.7-20c0.1-0.2,0.2-0.5,0.3-0.7c0-0.1,0.1-0.2,0.1-0.2c0.1-0.2,0.2-0.3,0.2-0.5
		c0-0.1,0.1-0.2,0.1-0.3c0.1-0.2,0.1-0.3,0.2-0.5c0.1-0.2,0.1-0.2,0.2-0.4c0.1-0.2,0.1-0.3,0.2-0.5c0.9-2.8,1.7-5.5,2.5-8.4
		c0.1-0.2,0.2-0.5,0.2-0.7c0.1-0.3,0.2-0.7,0.3-1c0.2-0.5,0.2-1,0.4-1.5c0-0.1,0.1-0.2,0.1-0.3c0.1-0.4,0.2-0.8,0.2-1.2
		c0-0.2,0.1-0.3,0.1-0.4c0.1-0.5,0.2-1,0.2-1.5c0.5-5.1,0.9-10.3,1.3-15.5c0.2-2,0.2-4,0.4-6.1c0.2-2.5,1-4.7,2.5-6.6
		c0.5-0.6,0.9-1.3,1.3-1.9c0.1-0.1,0.1-0.2,0.2-0.2c0.4-0.5,0.8-1.1,1.1-1.7c0.2-0.2,0.2-0.5,0.4-0.6c0.2-0.4,0.5-0.9,0.8-1.3
		c0.2-0.2,0.3-0.5,0.5-0.8c0.2-0.4,0.5-0.8,0.6-1.2c0.2-0.3,0.3-0.6,0.5-1s0.4-0.7,0.5-1.1c0.2-0.3,0.3-0.6,0.5-1s0.3-0.7,0.5-1.1
		c0.2-0.3,0.2-0.6,0.3-0.9c0.2-0.4,0.3-0.8,0.5-1.3c0.1-0.3,0.2-0.5,0.3-0.9c0.2-0.4,0.3-0.9,0.4-1.3c0.1-0.2,0.2-0.4,0.2-0.6
		c0.1-0.2,0.1-0.3,0.2-0.5c0.2-0.4,0.3-0.7,0.5-1c0.1-0.2,0.2-0.3,0.2-0.5c0.1-0.2,0.2-0.5,0.3-0.7s0.1-0.3,0.2-0.5
		c0.1-0.2,0.2-0.5,0.2-0.7c0.1-0.2,0.1-0.4,0.1-0.5c0.1-0.2,0.1-0.5,0.2-0.7c0-0.2,0.1-0.4,0.1-0.5c0-0.2,0.1-0.5,0.1-0.7
		s0-0.5,0-0.8c0-0.2,0-0.3,0-0.5s0-0.4,0-0.5c0-0.4,0-0.7-0.1-1.1c-0.1-0.7-0.2-1.4-0.3-2.2c-1.2-7-2.9-13.8-5-20.6
		c-1.3-4.6-2.7-9.2-3.2-14c-1-8.7-1.2-17.4-0.8-26.1c0-0.9,0.1-1.7,0.2-2.7c0-0.2,0.1-0.6,0.1-0.8c0.1-0.6,0.1-1.2,0.2-1.8
		c0-0.3,0.1-0.6,0.1-1c0.1-0.6,0.1-1.1,0.2-1.7c0-0.3,0.1-0.7,0.2-1c0.1-0.6,0.2-1,0.2-1.6c0.1-0.4,0.1-0.7,0.2-1.1
		c0.1-0.5,0.2-1,0.2-1.5c0.1-0.4,0.2-0.8,0.2-1.2c0.1-0.5,0.2-0.9,0.2-1.4c0.1-0.4,0.2-0.8,0.2-1.2c0.1-0.5,0.2-0.9,0.2-1.4
		c0.1-0.4,0.2-0.8,0.2-1.2c0.1-0.5,0.2-0.9,0.3-1.3c0.2-0.9,0.4-2,0.4-3l0,0c0-1.7,0.2-3.4,0.5-5.1c0.1-0.6,0.2-1.1,0.4-1.7
		c0.6-2.3,0.4-4.5-0.6-6.6c-0.2-0.5-0.4-0.9-0.6-1.3c-0.1-0.2-0.2-0.3-0.2-0.4c-0.2-0.3-0.3-0.6-0.4-0.9c-0.1-0.2-0.2-0.3-0.2-0.6
		c-0.2-0.2-0.2-0.6-0.4-0.8c-0.1-0.2-0.2-0.4-0.3-0.6c-0.2-0.2-0.2-0.5-0.4-0.8c-0.1-0.2-0.2-0.4-0.3-0.6c-0.2-0.2-0.2-0.5-0.4-0.7
		c-0.1-0.2-0.2-0.4-0.3-0.6c-0.2-0.2-0.3-0.5-0.5-0.7s-0.2-0.4-0.4-0.6c-0.2-0.2-0.3-0.5-0.5-0.6c-0.2-0.2-0.2-0.4-0.4-0.6
		c-0.2-0.3-0.4-0.6-0.6-0.9c-0.7-0.9-1.3-1.7-1.9-2.7c-0.4-0.6-0.8-1.2-1.1-1.8c-0.1-0.2-0.2-0.4-0.3-0.6c-0.2-0.3-0.3-0.6-0.5-0.9
		c0-0.1-0.1-0.1-0.1-0.2c-0.5-0.9-0.9-1.8-1.3-2.7c0-0.1,0-0.1-0.1-0.2c-0.3-0.8-0.6-1.5-1-2.3c-0.1-0.2-0.2-0.3-0.2-0.5
		c-0.3-0.8-0.6-1.6-0.9-2.4c0-0.1,0-0.1-0.1-0.2c-0.2-0.8-0.5-1.5-0.7-2.3c-0.1-0.2-0.1-0.3-0.2-0.4c-0.2-0.8-0.5-1.6-0.6-2.4
		c-0.1-0.2-0.1-0.3-0.2-0.5c-0.2-0.8-0.4-1.7-0.5-2.4v-0.1c-0.2-0.8-0.3-1.6-0.5-2.4c0-0.2-0.1-0.3-0.1-0.5
		c-0.2-0.8-0.3-1.6-0.4-2.4c0-0.2-0.1-0.3-0.1-0.5c-0.2-0.9-0.2-1.7-0.3-2.5c-0.1-0.7-0.2-1.5-0.2-2.2c0-0.2-0.1-0.4-0.1-0.6
		c-0.1-0.6-0.2-1.1-0.2-1.7c0-0.3-0.1-0.6-0.1-0.9c-0.1-0.5-0.2-0.9-0.2-1.4c-0.1-0.3-0.1-0.6-0.2-0.9c-0.1-0.5-0.2-0.9-0.2-1.3
		c-0.1-0.3-0.1-0.6-0.2-0.9c-0.1-0.5-0.2-0.9-0.2-1.3c-0.1-0.3-0.2-0.6-0.2-0.9c-0.1-0.5-0.2-0.9-0.3-1.3c-0.1-0.3-0.2-0.6-0.2-0.9
		c-0.2-0.5-0.2-0.9-0.4-1.3c-0.1-0.3-0.2-0.6-0.3-0.9c-0.2-0.7-0.5-1.4-0.8-2.1c-2.1-5.3-3.5-10.7-4.7-16.3
		c-0.2-1.1-0.5-2.2-0.8-3.3c0-0.1,0-0.1-0.1-0.2c-0.2-0.5-0.2-0.9-0.4-1.3c-0.1-0.2-0.1-0.3-0.2-0.5c-0.1-0.3-0.2-0.7-0.3-1
		c-0.1-0.2-0.2-0.4-0.2-0.6c-0.1-0.3-0.2-0.6-0.4-0.9c-0.1-0.2-0.2-0.4-0.2-0.6c-0.2-0.3-0.2-0.6-0.4-0.9c-0.1-0.2-0.2-0.4-0.2-0.6
		c-0.2-0.3-0.3-0.6-0.5-0.9c-0.1-0.2-0.2-0.3-0.2-0.5c-0.2-0.5-0.5-0.9-0.8-1.4c-3.6-6.1-7.3-12.2-12.5-17c-1.3-1.3-2.5-2.4-4.3-3.1
		c-0.5-0.2-1-0.4-1.5-0.6c-0.2-0.1-0.3-0.2-0.5-0.2c-0.3-0.2-0.6-0.3-1-0.5c-0.2-0.1-0.4-0.2-0.5-0.3c-0.3-0.2-0.5-0.3-0.9-0.5
		c-0.2-0.1-0.4-0.2-0.5-0.3c-0.2-0.2-0.5-0.3-0.8-0.5c-0.2-0.2-0.4-0.2-0.5-0.4c-0.2-0.2-0.5-0.4-0.8-0.6c-0.2-0.2-0.4-0.2-0.5-0.4
		c-0.2-0.2-0.5-0.4-0.8-0.6c-0.2-0.2-0.3-0.2-0.5-0.4c-0.2-0.2-0.5-0.5-0.8-0.7c-0.2-0.2-0.2-0.2-0.4-0.4l-0.1-0.1
		c-1.3-1.2-3.5-3.2-4.8-4.3c-0.5-0.4-1-0.9-1.3-1.3c-0.3-0.3-0.6-0.6-1-0.9c-0.5-0.5-1-0.9-1.4-1.3c-0.3-0.3-0.5-0.6-0.9-0.8
		c-0.5-0.5-1-0.9-1.4-1.4c-0.2-0.2-0.5-0.6-0.8-0.8c-0.7-0.8-1.4-1.5-2.1-2.3c-0.9-0.9-1.6-2-2.3-3c-2.6-4.3-1.4-8.2,3.2-10.1
		c2.7-1.1,5.5-1.5,8-1c-0.4-1.8-0.5-3.7-0.4-5.7c0.2-2.3,1-4.3,2.4-5.8c-0.4,0.1-0.8,0.2-1.2,0.2c-1,0.2-2,0.2-3,0.2
		c-0.5,0-1,0-1.4,0c-0.2,0-0.3,0-0.5,0c-0.3,0-0.6,0.1-1,0.1c-0.2,0-0.3,0.1-0.5,0.1c-0.3,0-0.6,0.1-0.9,0.1c-0.2,0-0.4,0.1-0.5,0.1
		c-0.3,0.1-0.5,0.1-0.9,0.2c-0.2,0.1-0.4,0.1-0.6,0.2c-0.2,0.1-0.5,0.1-0.8,0.2c-0.2,0.1-0.4,0.1-0.6,0.2c-0.2,0.1-0.5,0.2-0.7,0.2
		c-0.2,0.1-0.4,0.2-0.6,0.2c-0.2,0.1-0.5,0.2-0.8,0.2c-0.2,0.1-0.4,0.2-0.6,0.2s-0.5,0.2-0.7,0.2c-0.5,0.2-1.2,0.4-1.7,0.5
		c-0.2,0-0.3,0-0.5,0c-0.1,0-0.2,0-0.2,0c-0.3,0-0.5,0-0.9,0s-0.7,0.1-1,0.1c-0.4,0-0.8,0-1.2,0c-0.3,0-0.6,0-1,0s-0.8-0.1-1.2-0.1
		c-0.3,0-0.6-0.1-1-0.1c-0.4-0.1-0.8-0.2-1.2-0.2c-0.3-0.1-0.6-0.1-1-0.2c-0.4-0.1-0.8-0.2-1.2-0.3c-0.3-0.1-0.6-0.2-0.9-0.2
		c-0.4-0.1-0.8-0.2-1.3-0.4c-0.2-0.1-0.5-0.2-0.8-0.2c-0.5-0.2-0.9-0.4-1.3-0.5c-0.2-0.1-0.5-0.2-0.7-0.3c-0.6-0.3-1.3-0.6-2-1
		c-1.7-1-3.5-2-5.3-2.9c-1.4-0.9-2.9-1.3-4.7-1.6c-7.2-0.9-14.3-1.7-21.5-1.3c-3.4,0.2-6.9,0-10.1-1.3c-6.4-2.5-13-3.8-19.7-5.6
		c-8.8-2.4-17.7-2.5-26.7-1.2c-5.4,0.8-10.7,1.7-16.1,2.4c-11.9,1.4-23.7,3.5-35.4,5.8c-6.7,1.3-13.4,2.6-20.2,3
		c-2,0.1-4,0.3-6.1,0.4c-3.5,0.2-7,0.6-10.3,1.9c-3.1,1.3-6.1,1.3-8.8-0.6c0.1,0.8,0.1,1.6-0.1,2.4c-1,5-3.5,8.8-8.1,11.1l0,0
		c0.9,1.9,0.6,4.3-0.9,6.3c-0.6,0.9-1.5,1.7-2.5,2.4c-1.9,1.4-4.1,2.4-6.3,3.3c-4,1.5-7.7,3.4-10.7,6.3c-1.3,1.3-2.5,2.5-3.9,3.8
		c-0.5,0.5-1,0.9-1.5,1.4c-0.8,0.8-1.7,1.6-2.5,2.3s-1.6,1.5-2.4,2.2c-1,0.9-1.8,1.7-2.8,2.5c-0.9,0.8-1.7,1.6-2.5,2.4
		c-2.3,2.2-4.5,4.5-6.6,6.9c-0.1,0.1-0.2,0.2-0.2,0.2c-0.6,0.7-1.2,1.5-1.8,2.2c-0.1,0.1-0.2,0.2-0.2,0.3c-0.7,0.9-1.3,1.8-2,2.7
		c-0.5,0.6-0.9,1.2-1.3,1.7c-0.7,0.9-1.4,2-2.1,2.9c-0.4,0.6-0.8,1-1.1,1.6c-0.8,1.1-1.6,2.2-2.4,3.4c-0.3,0.4-0.5,0.8-0.9,1.2
		c-1,1.5-2.1,3.1-3.2,4.6c-0.5,0.7-1,1.5-1.4,2.2c-0.2,0.2-0.3,0.5-0.5,0.7c-0.3,0.5-0.6,1-1,1.5c-0.2,0.3-0.3,0.5-0.5,0.9
		c-0.2,0.5-0.5,0.9-0.8,1.4c-0.2,0.3-0.3,0.7-0.5,1c-0.2,0.5-0.5,0.9-0.7,1.3c-0.2,0.3-0.3,0.7-0.5,1c-0.2,0.5-0.4,0.9-0.6,1.3
		c-0.2,0.4-0.3,0.7-0.5,1.1c-0.2,0.5-0.4,0.9-0.5,1.3c-0.2,0.4-0.3,0.8-0.5,1.2s-0.3,0.9-0.5,1.3c-0.2,0.4-0.3,0.8-0.4,1.2
		c-0.2,0.4-0.3,0.9-0.5,1.3c-1.4,4.1-2.1,8.4-2.3,12.7c-0.2,5.9-0.6,11.8-1,17.8c-0.3,7-1.6,13.7-4.2,20.3
		c-1.8,4.4-3.5,8.9-5.2,13.4c-1.4,3.6-2.8,7-3.7,10.7c-0.5,2.4-1,4.7-0.9,7.1c0.2,3,0.3,6.1,0.7,9.1c1.2,9.9,0.8,19.9-0.6,29.8
		c-0.3,2.1-0.2,4.2,0.2,6.4c0.7,5.8,2.4,11,5.5,15.9c1.5,2.3,1.8,5,1.7,7.7c-0.1,2.3-0.6,4.5-1.3,6.7c-1.5,4.7-1.3,9.2,0.2,13.7
		c0.2,0.5,0.3,1,0.4,1.6c0.1,0.2,0.1,0.4,0.2,0.6c0.1,0.3,0.2,0.7,0.2,1c0.1,0.2,0.1,0.5,0.2,0.8c0.1,0.4,0.2,0.8,0.2,1.1
		c0.1,0.5,0.2,1,0.2,1.5c0.2,1.1,0.2,2.1-0.1,3.2v0.1c0,0.1,0,0.1,0,0.2s0,0.2-0.1,0.3c0,0.1-0.1,0.2-0.1,0.2c0,0.2-0.1,0.2-0.1,0.4
		c-0.1,0.2-0.1,0.2-0.2,0.4c-0.1,0.1-0.1,0.2-0.2,0.3c-0.1,0.1-0.2,0.2-0.2,0.3c-0.1,0.1-0.1,0.2-0.2,0.2s-0.2,0.2-0.2,0.2l-0.2,0.2
		c-0.1,0.1-0.2,0.2-0.3,0.2c-0.1,0-0.2,0.1-0.2,0.1c-0.2,0.1-0.2,0.1-0.4,0.1c-0.1,0-0.2,0.1-0.2,0.1c-0.2,0-0.3,0-0.5,0
		c-0.1,0-0.2,0-0.2,0c-0.2,0-0.5-0.1-0.9-0.1c-1.7-0.3-3-1.3-4.3-2.2c-2.8-2.2-5.7-4.2-8.1-6.8c-0.4-0.4-0.8-1-1.6-0.5
		c0,0.5-0.1,1,0,1.5c1.7,11.8,4.8,23.2,9.7,34.1c1.7,3.8,3.3,7.7,4.8,11.5c1.6,3.9,2.4,8,2.8,12.2c0.1,1.2,0.2,2.4,0.2,3.5
		c0,0.4,0,0.9,0.1,1.3c0,0.8,0.1,1.6,0.1,2.4c0,0.5,0,1,0,1.5c0,0.7,0,1.4,0,2.1c0,0.5,0,1.1,0,1.7c0,0.5,0,1,0,1.5
		c0,5.7,0,11.3,0.2,17c0,0.2,0,0.4,0,0.5c0,0.2,0,0.3,0,0.5c0,0.1,0,0.1,0,0.2s0,0.2,0,0.3c0,0.1,0,0.1,0,0.2s0,0.2,0,0.2
		s0,0.1,0,0.2s0,0.2,0,0.2c0,0.1,0,0.1,0,0.2s0,0.1,0,0.2s0,0.1,0,0.2s0,0.1,0,0.2v0.1c0,0.1,0,0.1,0,0.2v0.1c0,0.1,0,0.1,0.1,0.2
		v0.1c0,0.1,0,0.1,0.1,0.2c0,0,0,0.1,0.1,0.1c0,0.1,0.1,0.1,0.1,0.2c0,0,0,0.1,0.1,0.1c0,0.1,0.1,0.1,0.1,0.2c0,0,0,0.1,0.1,0.1
		c0,0.1,0.1,0.1,0.1,0.2l0.1,0.1c0,0.1,0.1,0.2,0.1,0.2l0.1,0.1c0.1,0.1,0.1,0.2,0.2,0.2c0.1,0.2,0.2,0.3,0.3,0.5
		c0.2-0.2,0.5-0.2,0.5-0.5c1-2.6,2.5-5,4.7-6.7c0.4-0.3,0.8-0.7,1-1.2c1.4-3.4,2.9-6.5,1.9-10.5c-1.3-5.2-1-10.5,0.1-15.8
		c0.2-1,0.4-2,0.6-2.9c0.1-0.3,0.2-0.6,0.2-1c0.2-0.6,0.3-1.3,0.5-1.9c0.1-0.4,0.2-0.8,0.3-1.2c0.2-0.5,0.3-1.1,0.5-1.7
		c0.1-0.4,0.2-0.8,0.4-1.3c0.2-0.5,0.3-1.1,0.5-1.6c0.2-0.4,0.2-0.9,0.4-1.3c0.2-0.5,0.3-1,0.5-1.6c0.2-0.4,0.3-0.9,0.5-1.3
		c0.2-0.5,0.3-1,0.5-1.5c0.2-0.4,0.3-0.9,0.5-1.3c0.2-0.5,0.4-1,0.5-1.5c0.2-0.4,0.3-0.9,0.5-1.3c0.2-0.5,0.3-0.9,0.5-1.3
		c1-2.5,2-4.9,2.8-7.3c2-5.5,3.5-11,4.8-16.7c0.1-0.3,0.2-0.6,0.2-0.9c0.1-0.4,0.2-0.9,0.3-1.3c0.1-0.4,0.2-0.7,0.2-1.1
		c0.1-0.3,0.2-0.6,0.2-1s0.2-0.5,0.2-0.9c0.1-0.3,0.2-0.6,0.2-1c0.1-0.3,0.1-0.5,0.2-0.9c0.1-0.3,0.1-0.7,0.2-1
		c0.1-0.2,0.1-0.5,0.2-0.8c0.1-0.4,0.1-0.7,0.2-1.1c0-0.2,0.1-0.5,0.1-0.8c0-0.4,0.1-0.8,0.1-1.2c0-0.2,0-0.4,0.1-0.6
		c0-0.6,0-1.3,0-1.9c-0.2-5-0.7-9.8-1.7-14.6c-0.9-4.3-2.8-8.1-4.7-11.9c-2.9-5.8-5.4-11.7-7.1-17.9c-1.7-6-2.7-12.1-1.3-18.3
		c0.4-1.7,0.8-3.5,1.3-5.1c0.4-1.5,0.5-2.9,0.1-4.5c-1.3-5.2-1.5-10.4-1-15.8c0.6-5.6,2.2-10.9,4.3-16c0.3-0.7,0.5-1.5,0.9-2.2
		c0-0.1,0.1-0.2,0.1-0.2c0.1-0.3,0.2-0.6,0.3-0.9c0.1-0.2,0.1-0.3,0.2-0.5s0.2-0.4,0.2-0.6c0.1-0.2,0.1-0.3,0.2-0.5s0.2-0.4,0.2-0.6
		c0.1-0.2,0.1-0.3,0.2-0.5s0.2-0.4,0.2-0.6c0.1-0.2,0.1-0.3,0.2-0.5s0.1-0.4,0.2-0.6c0.1-0.2,0.1-0.3,0.1-0.6
		c0.1-0.2,0.1-0.4,0.2-0.6c0-0.2,0.1-0.2,0.1-0.4c0-0.1,0.1-0.2,0.1-0.3s0.1-0.2,0.1-0.3c0.1-0.2,0.1-0.3,0.2-0.5v-0.1
		c0.1-0.2,0.2-0.4,0.2-0.6l0,0c0.1-0.2,0.2-0.4,0.2-0.6c0,0,0-0.1,0.1-0.1l0,0c0.1-0.2,0.2-0.3,0.2-0.5c0.1-0.2,0.2-0.4,0.3-0.6
		c0.1-0.2,0.2-0.4,0.3-0.6c0.1-0.2,0.2-0.4,0.3-0.6c0.1-0.2,0.2-0.4,0.3-0.6c0.1-0.2,0.2-0.3,0.3-0.6c0.1-0.2,0.2-0.4,0.3-0.6
		s0.2-0.3,0.3-0.6c0.1-0.2,0.2-0.4,0.3-0.6s0.2-0.3,0.3-0.6c0.1-0.2,0.2-0.4,0.4-0.6c0.1-0.2,0.2-0.3,0.3-0.5
		c0.2-0.2,0.2-0.3,0.4-0.6c0.1-0.2,0.2-0.3,0.3-0.5c0.2-0.2,0.2-0.3,0.4-0.6c0.2-0.2,0.2-0.3,0.4-0.5c0.2-0.2,0.2-0.3,0.4-0.5
		c0.2-0.2,0.2-0.3,0.4-0.5c0.2-0.2,0.3-0.3,0.4-0.5c0.2-0.2,0.2-0.3,0.4-0.5c0.2-0.2,0.3-0.3,0.5-0.5s0.2-0.3,0.4-0.4
		c0.2-0.2,0.3-0.3,0.5-0.5s0.2-0.2,0.4-0.4c0.2-0.2,0.3-0.3,0.5-0.5s0.2-0.2,0.4-0.4c0.2-0.2,0.4-0.3,0.5-0.5
		c0.2-0.1,0.2-0.2,0.4-0.3c0.2-0.2,0.5-0.3,0.7-0.6c0.1-0.1,0.2-0.2,0.3-0.2c0.3-0.2,0.7-0.5,1-0.7c1.1-0.7,1.8-1.7,2.4-2.8
		c1.6-3.6,3.6-6.9,5.8-10.2c3.5-5.4,8-9.6,12.5-14.1c5.2-5.1,11.2-9,17.9-11.8c3.2-1.4,6.6-2.5,10-3.5c2.3-0.6,4.7-1.2,7-1.7
		c0.9-0.2,1.3-0.6,1.6-1.4c2.5-6,6.1-11.3,10.7-15.9c2.5-2.4,5.3-4.7,7.8-7.2c1.9-1.9,4-3.5,6.4-4.7c1.7-0.9,3.2-1.9,4.7-3.2
		c2.8-2.8,4.2-5.9,3.2-9.9c-0.1-0.4-0.2-0.7-0.2-1.1c0-0.2,0-0.2-0.1-0.4c-0.1-0.2-0.1-0.6-0.1-0.8c0-0.2,0-0.3-0.1-0.4
		c0-0.2,0-0.5-0.1-0.7c0-0.2,0-0.3,0-0.4s0-0.2,0-0.2s0-0.2,0-0.3c0-0.2,0-0.3,0-0.5c0.2-2.7,1.4-4.8,3.6-6.2
		c0.1-0.1,0.2-0.1,0.2-0.2c0,0,0.1,0,0.1-0.1c0,0,0.1,0,0.1-0.1c0.1-0.1,0.2-0.1,0.2-0.2s0.2-0.2,0.3-0.2c0.1-0.1,0.2-0.1,0.3-0.2
		c0.1-0.1,0.2-0.1,0.3-0.2s0.2-0.1,0.3-0.2c0.1,0,0.2-0.1,0.3-0.1s0.2-0.1,0.3-0.1s0.2-0.1,0.3-0.1s0.2,0,0.3-0.1c0.1,0,0.2,0,0.3,0
		s0.2,0,0.3,0s0.2,0,0.3,0s0.2,0,0.3,0s0.2,0,0.3,0s0.2,0.1,0.3,0.1s0.2,0,0.3,0.1c0.1,0,0.2,0.1,0.3,0.1s0.2,0.1,0.3,0.1
		c0.1,0.1,0.2,0.1,0.3,0.2s0.2,0.1,0.2,0.2s0.2,0.2,0.3,0.2c0.1,0.1,0.2,0.1,0.2,0.2s0.2,0.2,0.3,0.2c0.1,0.1,0.2,0.1,0.2,0.2
		s0.2,0.2,0.3,0.2c0.1,0.1,0.2,0.2,0.2,0.2c0.1,0.1,0.2,0.2,0.3,0.3c0.1,0.1,0.2,0.2,0.2,0.2c0.1,0.2,0.2,0.2,0.3,0.4
		c0.1,0.1,0.1,0.2,0.2,0.2c0.2,0.2,0.2,0.4,0.4,0.6c0.5,0.9,0.8,1.9,1,2.8c0.7,3.2,0.3,6.2-0.8,9.2c2.3-1,4.7-2,7.1-2.8
		c2-0.7,4.1-1.6,6.3-1.6c0-0.5,0-0.9,0.1-1.5c0.4-3.8,2.1-7,5-9.4c4.5-3.6,9.4-6.9,14.5-9.5c1.2-0.6,2.6-1,3.9-1.4
		c1.7-0.6,3-1.4,3.6-3.5c1-3.2,3.5-3.9,6.2-2.1c1.8,1.2,3.5,2.5,4.7,4.3c3,4.1,6.5,7.7,10.6,10.7c2.2,1.7,4.3,3.4,7,4.3
		c2.8,0.9,4.5,3.2,5.6,5.8c1,2.1,0.4,4.6-1.1,6.4l0,0c0.9,0.7,1.7,1.5,2.5,2.3c1.9,1.8,3.9,3.4,6.6,4.1c2.7,0.6,5,2.3,7,4.3
		c2.9,3,5.5,6.2,7.5,9.9c4.1-1.1,8.8,0.2,11,3.9c1.3,2.1,2.6,4.3,3.1,6.9c0.2,1,0.5,2.1,0.9,2.9c0,0.1,0.1,0.1,0.1,0.2
		c0.2,0.4,0.3,0.8,0.5,1.2c0.1,0.2,0.2,0.3,0.3,0.5c0.2,0.2,0.3,0.6,0.5,0.8s0.3,0.4,0.4,0.6c0.2,0.2,0.3,0.4,0.4,0.6
		c0.1,0.2,0.2,0.3,0.3,0.4c0.2,0.2,0.4,0.5,0.6,0.7c0.2,0.2,0.3,0.3,0.5,0.5s0.4,0.4,0.5,0.6c0.2,0.2,0.4,0.4,0.6,0.6
		c0.2,0.2,0.3,0.3,0.5,0.5c0.7,0.6,1.3,1.2,2,1.8c0.2,0.2,0.3,0.2,0.4,0.4c0.2,0.2,0.2,0.2,0.4,0.4s0.3,0.2,0.4,0.4
		c0.2,0.1,0.2,0.2,0.4,0.3s0.3,0.2,0.5,0.3s0.3,0.2,0.4,0.3c0.2,0.1,0.3,0.2,0.5,0.3s0.3,0.2,0.5,0.3s0.3,0.2,0.5,0.2
		c0.2,0.1,0.3,0.2,0.5,0.2c0.2,0.1,0.3,0.2,0.5,0.2c0.2,0.1,0.3,0.2,0.5,0.2c0.2,0.1,0.2,0.1,0.4,0.2c0.5,0.2,1.1,0.5,1.7,0.6
		c5.6,2,11.1,4.1,16.7,6.1c4.3,1.5,8.6,2.9,12.6,5.1c0.1,0.1,0.2,0.1,0.3,0.2h0.1c0.1,0,0.2,0.1,0.2,0.1s0.1,0,0.2,0
		c0.1,0,0.2,0,0.2,0c0.1,0,0.1,0,0.2,0c0.1,0,0.1,0,0.2,0c0.1,0,0.1,0,0.2,0s0.1,0,0.2-0.1c0.1,0,0.1-0.1,0.1-0.1
		c0.1,0,0.1-0.1,0.2-0.1l0.1-0.1c0.1-0.1,0.1-0.1,0.2-0.2c0-0.1,0.1-0.1,0.1-0.2c0.1-0.1,0.1-0.2,0.2-0.2c0.2-0.4,0.5-0.7,0.9-1.1
		l0.1-0.1l0,0l0,0c0.1-0.1,0.2-0.2,0.2-0.2l0.2-0.2l0.2-0.2l0.2-0.2c0.1-0.1,0.2-0.2,0.2-0.2c0.1-0.1,0.2-0.1,0.2-0.2
		s0.2-0.1,0.2-0.2s0.2-0.1,0.2-0.2s0.2-0.1,0.2-0.2s0.2-0.1,0.2-0.2s0.2-0.1,0.3-0.1s0.2-0.1,0.2-0.1s0.2-0.1,0.3-0.1
		s0.2-0.1,0.2-0.1s0.2-0.1,0.3-0.1s0.2-0.1,0.2-0.1s0.2,0,0.3-0.1c0.1,0,0.2,0,0.2,0s0.2,0,0.3,0s0.2,0,0.2,0s0.2,0,0.3,0
		s0.2,0,0.2,0s0.2,0,0.3,0s0.2,0,0.2,0c0.2,0,0.2,0.1,0.4,0.1c0.1,0,0.2,0,0.2,0s0.2,0.1,0.3,0.1s0.2,0,0.2,0.1
		c0.1,0,0.2,0.1,0.3,0.1s0.2,0.1,0.2,0.1c0.2,0.1,0.4,0.2,0.5,0.2c1.3,0.6,2.5,1.3,3.5,2.2C632.6,164.4,637.2,168.9,641.2,174.3z
		 M658.9,281.7c0.7-1.3,1.3-2.8,2.2-4c0.8-1.1,1.1-2.3,1.4-3.5c0.5-2.2,0.6-4.5,1-6.7c0.3-2.4,0.5-4.7,1-7.1c0.1-0.7,0.5-1.3,0.7-2
		c0.2,0,0.4,0.1,0.5,0.1c0,1.3,0,2.5,0,3.8c-0.2,5.5,0.5,10.7,1.3,16.1c0.4,2.6,1,5.2,1,7.8c-0.1,3.4,1.3,6.1,3.5,8.5
		c0.5,0.6,1.2,1.3,1.8,1.9c2.5,2.2,2.8,5,1.9,8c-0.9,3.1-2.5,5.8-4,8.5c-2.3,4.3-5.3,8.3-7.4,12.7c-0.3,0.7-0.7,1.3-1.2,1.9
		c-2.2,2.8-5.5,2.2-6.7-0.5c-0.5-1-1.2-2-1.3-3.1c-0.2-1.8-1.1-3.3-2-4.9c-2-3.5-2.6-7.3-2.8-11.2c-0.4-7.3,2.1-13.6,5.6-19.6
		C656.6,286.2,657.7,284,658.9,281.7z M405.1,118.8c-0.2,0.9-0.5,2-0.9,2.9c-1.2,2.5-2.4,5.1-3.7,7.4c-1.2,2-2.9,3.5-4.7,4.8
		c-0.7,0.5-1.7,0.9-2.5,0.9c-2.7-0.2-4.8,1.3-7,2.4c-0.2,0.1-0.5,0.2-0.6,0.4c-4.5,3.5-9.5,6.2-14.2,9.2c-3.7,2.4-7,5.3-10.3,8.3
		c-1.4,1.3-2.6,2.7-4.3,3.7c-0.9,0.6-1.6,1.3-2.2,2.1c-2.8,3.8-6.4,7.1-9.1,11.1c-0.2,0.3-0.5,0.6-0.8,0.8c-0.4,0.3-1.1,0.2-1.3-0.2
		c-0.5-1.7-1.2-3.3-1.1-5c0.2-0.7,0.5-1.3,0-1.9c-1-1.2-0.8-2.6-0.8-4c-0.1-2.5,0.2-5.1-0.6-7.5c-0.2-0.5-0.2-1-0.1-1.5
		c0.4-4,0.7-8,1.2-12c0.3-2.5,0.8-5,1-7.4c0.2-1.9,0.6-3.7,1-5.5c0.3-2.3,2.4-3.5,4.5-4c1.9-0.6,4.1,0.5,5.1,2.3
		c0.6,1.1,1.1,2.3,1.5,3.5c0.5,1.6,1.3,3,2.7,4c0.6,0.6,1.3,0.6,2,0.2c5.3-2.7,10.9-4.5,16.7-5.5c2.2-0.4,4.4-1,6.6-1.4
		c1.8-0.3,2.9-1.2,3.6-2.8c1.5-3.6,3.9-6.5,6.5-9.2c2.1-2.3,4.8-2.7,7.7-2.2C403.5,112.7,405.6,116.1,405.1,118.8z M435.2,77.1
		c-0.5,0.7-1.2,1.3-1.7,2c-3.8,4.3-6,9.2-6.3,15c-0.1,1.5-0.2,3-0.3,4.5c-0.2,2.3-1,4.4-1.8,6.5c-1.5,3.4-4.2,4.9-8.7,4.8
		c-1.6-0.1-3.9-0.8-5.8-2.2c-1.1-0.8-2.3-1.7-3.5-2.4c-2-1.2-4.2-1.7-6.5-0.9c-3.3,1.1-6.8,2-9.5,4.5c-1,0.9-1.8,1.7-2.4,2.9
		c-0.9,1.8-1.9,3.6-2.8,5.4c-0.9,1.7-2.3,2.3-4,2.3c-3.6,0-6.6-2.2-6.5-6.2c0.1-2.1,0.4-4,1.2-5.9c2.7-6.9,7.1-12.7,13.2-17.1
		c3.8-2.8,8-4.3,12.8-3.6c2,0.3,3.3-0.3,4.7-1.7c1.7-1.8,3.6-3.5,5.5-5.3c2.5-2.4,5.1-4.4,8-6.2c2.6-1.6,5.5-2.4,8.5-2.8
		c2.3-0.4,4.2,0.5,5.8,2.1C436.2,74,436.3,75.6,435.2,77.1z M493.5,54.6c-1.6,0.1-2.9,0.5-4.3,1.3c-0.3,0.2-0.6,0.4-1,0.5
		c-5.4,1.6-8.5,5.6-11.2,10.1c-1,1.7-2.1,3.4-3.2,5.1c-2.1,3.2-4.9,4-8.5,3c-0.5-0.2-1-0.2-1.4-0.4c-4.2-1.9-8.7-2.3-13.2-2.7
		c-1.3-0.2-2.5-0.5-3.2-1.6c-0.9-1.2-1-2.4-0.6-3.9c0.4-1.7,0.9-3.1,2-4.3c0.5-0.6,1-1.4,1.4-2.2c2.5-4.7,6.2-7.8,11.3-9.4
		c4.1-1.3,8.1-2.5,12.3-3.5c3.5-1,7-1.9,10.6-2.7s7-0.5,10.4,0.5c2.1,0.6,3.6,2.2,4.9,4c0.5,0.7,0.9,1.5,1.3,2.3
		C499.2,53.7,496.4,54.4,493.5,54.6z M537.7,52.7c-0.2,0.2-0.5,0.6-0.9,0.8c-3.2,1.3-3.3,4.3-3.6,7c-0.3,2.5-0.1,5-0.1,7.6
		c0.1,1.8,0.9,3.4,1.5,5.1c0.8,2,1.7,3.9,1.5,6.2c-0.2,2.4-2,3.9-4.4,3.2c-1.1-0.3-2.2-0.6-3.2-1.2c-3.7-2.5-7.5-5-10.3-8.8
		c-2-2.7-4.4-5.1-6.2-8c-0.2-0.4-0.5-0.9-0.9-1.3c-2.8-3.6-2.6-7.7-1.3-11.8c0.9-2.7,2.8-4.4,5.4-5.5c2.2-1,4.6-1.2,7-1
		c2.9-0.2,5.6,0.1,8,1.8c0.7,0.5,1.7,0.3,2.5,0.5c1.8,0.5,3.6,1,4.9,2.5C538.5,50.8,538.6,51.8,537.7,52.7z M555.4,94.6
		c-0.2-0.6-0.6-1.1-1-1.5c-2.8-2.9-4.7-6.5-6.8-9.9c-2-3.5-2.8-7.3-2.8-11.9c0.1-0.4,0-1.6,0.3-2.7c1-3.4,2.8-5.9,6.6-6.3
		c0.4-0.1,0.7-0.2,1.1-0.2c2.8-0.5,4.3,0.2,5.7,2.4c0.2,0.2,0.2,0.5,0.3,0.7c1.1,4.7,5.1,7,8.3,10c1.2,1.2,2.9,1.4,4.5,1.7
		c4.7,0.8,9.1,2.3,13.1,4.7c4.9,2.9,8.8,6.8,10.5,12.4c0.8,2.7,0.1,4.4-2.5,5.4c-1.9,0.8-3.9,1.2-5.9,0.5c-1.9-0.6-3.8-1.3-5.7-2
		c-0.8-0.3-1.6-0.7-2.5-1c-1.9-0.7-2.8-0.4-3.7,1.3c-0.3,0.6-0.5,1.1-0.9,1.7c-1,2-2.8,2.9-4.9,3.1c-3.1,0.2-6-0.2-8.5-2.4
		C558.5,98.8,556.5,97.1,555.4,94.6z M621,139c-2.1-1.1-4.3-1.5-6.5-0.9c-2.3,0.6-4.5,0.6-6.7,0.6c-4.4,0.1-8.8,0.1-13.1-1.3
		c-0.7-0.2-1.5-0.2-2.2-0.2c-1.8,0.1-3.5-0.3-5.1-1.1c-4.1-1.9-8.2-3.9-12.2-6.1c-3.7-2.1-6.4-5.3-9.2-8.4c-0.6-0.8-1.3-1.6-1.8-2.4
		c-0.7-1.2-1.5-2.4-2-3.6c-1-2.8,0.4-4.8,3.3-4.9c1.9-0.1,3.8-0.2,5.5-0.9c1-0.4,2-0.8,2.6-1.5c1.7-1.9,3.7-2.8,5.9-3.7
		c2-0.9,3.9-0.9,5.8-0.4c1.2,0.3,2.4,0.9,3.5,1.3c1.9,0.8,3.8,1.3,5.8,1.3c2.8,0.1,5.4-0.4,7.8-2.1c1.2-0.9,1.8-1.5,1.7-2.9
		c-0.2-5.6-1-11-4.2-15.8c-1.4-2.1-2.5-4.3-4.2-6.2c-3.8-4.2-8.5-7.1-13.8-8.8c-3.5-1.2-7.3-2.1-10.6-4c-2.6-1.5-4.4-3.6-5.9-6.2
		c-2-3.6,1.1-7.4,4.4-7.7c0.9-0.1,1.7,0,2.8,0c1.9-0.3,3.9,0.3,5.8,0.7c5,1.1,10,2.7,14.3,5.6c3.7,2.5,6.9,5.6,9.5,9.2
		c4.1,5.7,8.3,11.4,12,17.4c2.6,4.1,5.5,8.1,8,12.3c0.2,0.4,0.5,0.9,0.8,1.3c2.5,5,5.6,9.6,9.5,13.5c1.3,1.3,2,3.2,3.1,4.7
		c6.4,8.4,11.8,17.5,16.8,26.8c2,3.6,2.5,7.6,2.3,11.7c-0.2,2.4-1.9,4.3-4.3,4.3c-1.5,0.1-2.9-0.1-4.3-1.1c-1-0.8-2-1.4-2.9-2.4
		c-4.4-4.9-9.7-8.8-14.8-12.8C626.3,142.4,623.9,140.5,621,139z"/>
	<path class="st4" d="M356,647c-0.5-0.9-0.9-1.7-1.2-2.5c-0.4-0.8-0.7-1.7-1.1-2.4c-0.9-1.7-1.9-3.2-3.2-4.7c-1.7-1.7-2.7-4-3.5-6.2
		c-1.6-4-2.8-8-4-12.2c-0.3-1.2-0.5-2.5-1.2-3.6c-2.7-5.3-4.5-11-6.9-16.4c-1.7-4-2.6-8.1-3.1-12.5c-0.2-1.7-0.4-3.2-0.6-4.9
		c-1.3-8.9-1.5-17.8,0.7-26.7c0.6-2.6,0.9-5.2,0.5-7.9c-0.2-2-0.2-4-0.3-6.1c-0.1-7.2,1.2-14,5.5-20.1c0.1-0.1,0.2-0.2,0.2-0.3
		c1.2-1.3,1-2-0.2-3.2c-4-4.4-6.5-9.5-8.6-15c-1.1-2.9-2.1-5.9-3.2-8.8c-2.1-5.4-3.2-10.9-3.2-16.7c0-0.5,0.2-1.3-0.4-1.7
		c-1,0.1-1.1,1-1.4,1.6c-1.9,3.5-4,7-5.7,10.7c-6.6,14.5-11.4,29.4-14.1,45c-0.3,1.7-0.4,3.5-0.3,5.3c0.1,2.1-0.1,4.3-0.1,6.4
		c0,1.8-1.3,3.3-1.3,5c-0.2,2.8-1.7,5-3.7,6.8c-6.2,5.8-11.8,12.1-17.4,18.4c-4,4.4-7.5,9.2-10.6,14.3c-4.3,7-8.4,14-12.2,21.3
		c4.3,1.9,8.4,4,12.4,6.3c1.9-3.2,3.8-6.4,5.8-9.6c2.8-4.7,5.8-9.4,8.8-14c0.3-0.5,0.6-1.1,0.8-1.7c2.8-8.2,7.5-15.3,12.6-22.3
		c0.8-1.1,1.9-2,2.9-3c3.2-2.7,7-3,10.7-2c2.4,0.6,4,2.7,5.4,4.6c0.7,1,1.3,2.2,1.6,3.4c0.8,3.6,1.9,7.3,1.7,11.1
		c-0.1,1.7-0.1,3.3,0,4.9c0.2,4-0.6,7.7-1.3,11.6c-0.4,2.4-0.1,4.8-1,7.1c0.2,4.7-1.1,9.2-0.9,13.9c0.2,3,0,6.1,0.1,9.1
		c0,2-0.2,4,0.5,6c0.2,0.5,0.2,1,0.2,1.5c0.2,6.7,1.7,13.2,3.6,19.6c2.5,7.9,5.7,15.5,8.4,23.4c0.4,0.3,0.8,0.5,1.1,0.9
		c0.2,0.2,0.5,0.3,0.7,0.5h36.1C364.2,669.4,361,658,356,647L356,647z"/>
	<path class="st4" d="M867.9,657.9c-2.1-4.2-4.7-8.2-7.7-11.8s-6.3-7-10-10c-3.7-2.9-7.7-5.5-11.8-7.5l0,0l-6.2-2.8
		c-0.6-0.6-1.3-1.2-2-1.7c-1.6-1.3-3.2-2.6-5-3.5c-7.3-4.1-15.6-6.5-23.9-7.8c-4.2-0.7-8.4-1.1-12.5-1.4c-2.8-0.2-5.5,0-8.3-0.5
		c-3-0.5-5.8-1.8-8.8-2c-1.2-0.1-2.4,0-3.5,0.2c-9.6,1-19.3,2.5-28.5,5.2c-4.7,1.4-9.2,3.2-13.6,5.4c-4.2,2.1-7.9,5.1-12.2,6.9
		c-1,0.4-2,0.9-3.2,1.3c-22.2,9.5-42.1,28.3-49.8,51.5l0,0c2-0.5,4.4,0.3,6-1c0.6-0.5,1-1.3,1.3-2c3.5-7.7,7.1-15.7,13.1-21.7
		c7.4-7.3,19.1-10.3,27.9-3.5V651c0,0.1,0.1,0.1,0.1,0.2c0.5,0.4,1,0.9,1.5,1.3c0,0,0,0.1,0.1,0.1c0.2,0.2,0.3,0.3,0.5,0.4
		c0.5,0.5,1.1,1.1,1.6,1.7c0.1,0.1,0.2,0.2,0.2,0.3c-0.7,0-1.5,0-2.2,0.1c-1.6,0.2-3.2,0.5-4.7,1.1c-3,1.1-5.8,2.8-8.4,4.6
		c-0.6,0.5-1.3,1-2,1.4l-1,0.7l-1.7,1.3l-1,0.7c0,0,1-0.2,1-0.3c4.6-1.2,9.2-1.3,13.6,0.8c0.3,0.2,0.7,0.3,1,0.5s0.7,0.4,1,0.6
		c0.6,0.4,1.3,1,1.9,1.4c1.2,1,2.2,2.2,3.2,3.5c1,1.4,1.9,2.9,2.7,4.5l0,0c-0.2,0.5-0.2,0.9-0.4,1.3c-0.1,0.2-0.2,0.5-0.2,0.8
		c0,0.1,0,0.1,0,0.2c-0.1,0.5-0.2,1-0.2,1.5c0,0.2,0,0.2,0,0.4s0.1,0.2,0.1,0.4s0.1,0.5,0.2,0.7c0-0.1,0-0.1,0-0.2
		c0,0.1,0,0.1,0,0.2v0.1v-0.1c0.2,0.9,0.3,1.7,0.5,2.5c0.2,1,0.4,2,0.6,3c1.3,2,2.5,4.1,3.3,6.4c0.1,0.2,0.2,0.5,0.2,0.6
		s0,0.2,0.1,0.2c0.1,0.2,0.1,0.4,0.2,0.6c0,0,0,0,0,0.1c0.1,0.2,0.1,0.5,0.2,0.6c0,0.1,0,0.2,0.1,0.2c0,0.2,0.1,0.4,0.1,0.5
		s0,0.1,0,0.2c0,0.2,0.1,0.4,0.1,0.6c0,0.1,0,0.2,0,0.2c0,0.2,0,0.3,0.1,0.5c0,0.1,0,0.2,0,0.3c0,0.2,0,0.3,0,0.5c0,0.1,0,0.2,0,0.3
		s0,0.2,0,0.3c0,0.2,0,0.5,0,0.7c0,0.1,0,0.1,0,0.2c0,0.2,0,0.3,0,0.5c0,0,0,0,0,0.1c0,0.3,0,0.7,0,1c0.2,0.2,0.2,0.3,0.4,0.5
		c0.6,0.8,1.3,1.7,2,2.5c0.3,0.3,0.7,0.7,1,1c2.8,2.5,5.8,4.7,9.5,5.6c5.8,1.3,12-0.5,18-0.1c1.2,0.1,2.4,0.2,3.5-0.2
		c2-0.9,3.3-4.1,4.4-6c1.7-2.8,3-5.8,4.2-8.8c2.2-5.8,3.5-11.9,4-18.1c0.7-9.8-1-19.7-4.9-28.6c-2-4.5-4.3-8.8-7.3-12.7
		c-2.8-4-6.2-7.6-9.8-10.9c-0.5-0.4-1-0.8-1.3-1.2l-2.4-2h-0.1c0,0-0.1,0,0,0h0.1l0.2,0.1l0.5,0.1l0.9,0.2l1.3,0.3l0.5,0.1l0.5,0.2
		l0.9,0.2c2.4,0.7,4.7,1.7,6.9,2.8c20.3,10.6,29,32,30.4,53.7c0,0.2,0,0.3,0,0.4c0,0.6,0.1,1.3,0,2c0,0.6,0,1.2-0.1,1.8
		c-0.1,0.5-0.1,1.1-0.2,1.7c0,0.1,0,0.2,0,0.2c-0.1,0.4-0.2,0.8-0.2,1.2c-0.1,0.3-0.2,0.8-0.2,1.1c0,0.2-0.1,0.5-0.1,0.8
		c-0.5,3.6-1.8,7.2-2.9,10.7c-1.2,3.7-3.3,7.3-1.8,11.1c3.2,8.2,10.4,10.7,18.4,12c1,0.2,2.1,0.3,3.2,0.4c1.3,0.2,2.6,0.3,4,0.5
		c1.5,0.2,3.1,0.3,4.6,0.5c0.3,0,0.5,0.1,0.9,0.1c0.2,0,0.5,0,0.8,0.1c0.5,0,1.1,0,1.7,0c0-0.1,0-0.1,0-0.2c0.7-3.1,2.3-5.8,3.7-8.5
		c6.7-13,9.3-28.6,7.2-43.3c-2-13.7-9.7-26.5-19.3-36.2c-1-1-2-2.2-1.8-3.5c3.4,0.9,7,3.7,10,5.6c3.6,2.3,7.2,4.7,10.5,7.4
		c6,5,11.7,11.5,12.9,19.5c2.4,15.3,6.5,16.2,4.6,31.6c-0.5,4.1-3,7.8-3.9,11.9c-1.1,5.7-1.5,11-3.6,16.5c-0.2,0.3-0.3,0.6-0.4,1
		c-0.1,0.4-0.3,3.2-1,3c2.8,1,16,3.5,16.7-1.3l0.4-2.7l3.3-18.4c3.2-18.2,3.7-36.2-4.5-53.2c-1.7-3.6-4.8-10.5-7.1-12.6
		c0.3,0.2,0.5,0.5,0.8,0.8c4.5,4.3,8.7,8.3,12.1,13.6c3.9,6.2,7.3,13.1,9.9,20c0.2,0.5,0.4,1.1,0.5,1.7c0.7,2.2,1.3,4.4,1.8,6.7
		c1,4.5,1.4,9.1,1.4,13.7c-0.1,4.6-0.5,9.2-1.6,13.6c-0.3,1.3-0.7,2.7-1.1,4c0.4-0.1,0.8-0.2,1.2-0.3c1.2-0.5,2.1-1.3,2.9-2.1
		s1.5-1.9,2-3c0.5-1,1-2.1,1.4-3.3c0.2-0.5,0.3-1.1,0.5-1.7C876.5,689,875.1,672.2,867.9,657.9z M719.2,623.5L719.2,623.5
		c0.1-0.1,0.2-0.1,0.2-0.2C719.3,623.4,719.3,623.5,719.2,623.5z"/>
	<path class="st4" d="M304.8,666.6c-2.2-4-4.8-7.8-7.7-11.5c-1-1.2-2-2.4-3-3.5c-0.5-0.5-1-1.1-1.6-1.7c-1.6-1.7-3.2-3.3-5-4.9
		c-1.1-1-2.3-2-3.5-3.1c-0.9-0.7-1.7-1.4-2.6-2c-1.7-1.3-3.5-2.6-5.4-3.9c-0.8-0.5-1.7-1.1-2.5-1.6l0,0c-0.2-0.2-0.5-0.3-0.7-0.5
		l0,0c-0.3-0.2-0.7-0.4-1-0.6c-0.3-0.2-0.5-0.3-0.9-0.5l0,0l0,0l0,0l0,0c-0.2-0.2-0.5-0.3-0.8-0.5l0,0l0,0c-0.9-0.5-1.7-1-2.5-1.4
		c-1.9-1-3.9-2-5.8-2.8c-0.5-0.2-0.9-0.4-1.3-0.6c-1-0.5-2-0.9-3.2-1.3c-1.7-0.6-3.2-1.5-4.7-2.4c-0.5-0.3-1-0.6-1.5-1
		c-0.6-0.4-1.2-0.8-1.8-1.1c-0.4-0.2-0.8-0.5-1.2-0.7c-1-0.6-2.1-1.2-3.1-1.7c-4.3-2.2-8.9-4-13.6-5.4c-1.2-0.3-2.3-0.7-3.5-1
		c-2.4-0.6-4.7-1.2-7.1-1.7c-2.4-0.5-4.7-0.9-7.2-1.3c-3.6-0.5-7.2-1-10.8-1.3c-0.9-0.1-1.7-0.2-2.6-0.2c-0.3,0-0.6,0-0.9,0
		c-3,0.2-5.8,1.6-8.8,2c-0.3,0.1-0.7,0.1-1,0.2c-0.7,0.1-1.3,0.2-2.1,0.2c-0.3,0-0.7,0-1,0c-1.4,0.1-2.8,0.1-4.2,0.2
		c-4.2,0.2-8.4,0.7-12.6,1.4c-8.3,1.3-16.6,3.7-23.9,7.8c-0.9,0.5-1.7,1.1-2.6,1.7c-0.9,0.6-1.7,1.3-2.4,1.9c-0.7,0.5-1.3,1.2-2,1.7
		l-6.2,2.8l0,0c-2.1,1-4.2,2.2-6.2,3.5s-3.9,2.6-5.8,4.1c-0.9,0.7-1.8,1.5-2.7,2.3c-1.7,1.6-3.4,3.2-5.1,5c-0.8,0.9-1.6,1.7-2.3,2.7
		c-2.2,2.8-4.3,5.7-6,8.8c-0.6,1-1.2,2-1.7,3.1c-1.8,3.5-3.2,7.3-4.3,11.1c-0.2,1-0.6,1.9-0.7,2.9c-0.5,2-0.8,3.9-1.1,5.8
		c-1.3,8.8-0.6,18,1.7,26.6c0.1,0.3,0.2,0.5,0.2,0.9c0.1,0.3,0.2,0.5,0.2,0.9c0.4,1.1,0.9,2.2,1.4,3.3c0.6,1,1.3,2,2.1,3
		c0.2,0.2,0.4,0.5,0.6,0.6c0.6,0.6,1.4,1.2,2.3,1.5c0.2,0.1,0.4,0.2,0.6,0.2c0.2,0.1,0.4,0.1,0.6,0.2c-0.4-1.3-0.8-2.7-1.1-4
		c-0.2-1-0.4-1.9-0.6-2.8c-0.1-0.2-0.1-0.5-0.2-0.7c-0.2-1-0.3-1.9-0.4-2.8c-0.1-0.7-0.2-1.4-0.2-2.1c-0.2-1.7-0.2-3.4-0.2-5.1
		c0.1-4.6,0.5-9.2,1.4-13.7c0.2-0.5,0.2-1.1,0.4-1.7c0.4-1.7,0.9-3.4,1.4-5c0.1-0.2,0.2-0.5,0.3-0.8c0.2-0.2,0.2-0.5,0.3-0.8
		c1.7-4.3,3.6-8.6,5.7-12.7c1.3-2.5,2.7-4.9,4.2-7.3c3.3-5.3,7.6-9.3,12.1-13.6c0.2-0.2,0.6-0.5,0.8-0.8c-1.3,1.2-2.8,3.9-4.3,6.7
		c-0.6,1.3-1.3,2.5-1.7,3.6c-0.4,0.9-0.8,1.7-1.1,2.3c-3.9,8-5.8,16.1-6.4,24.5c-0.2,2.2-0.2,4.4-0.2,6.7c0,0.5,0,1.1,0,1.7
		c0,1.1,0.1,2.2,0.1,3.4c0.3,5.6,1,11.3,2.1,17l3.3,18.4l0.4,2.7c0.5,3.3,6.9,3.1,11.8,2.4c0.5-0.1,0.9-0.2,1.3-0.2
		c0.2,0,0.4-0.1,0.6-0.1c0.6-0.1,1.1-0.2,1.6-0.3c0.3-0.1,0.6-0.2,0.9-0.2c0.2,0,0.2-0.1,0.3-0.1s0.2-0.1,0.3-0.1
		c-0.1,0-0.1,0-0.2,0s-0.1,0-0.2-0.1c0,0-0.1-0.1-0.1-0.2v-0.1c0,0-0.1-0.1-0.1-0.2v-0.1c0-0.1,0-0.1-0.1-0.2v-0.1
		c0-0.1,0-0.1-0.1-0.2V728c0-0.1,0-0.1-0.1-0.2v-0.1c0-0.1,0-0.2-0.1-0.2v-0.1c0-0.1,0-0.2-0.1-0.3c-0.1-0.2-0.1-0.5-0.1-0.7
		c0-0.1,0-0.2,0-0.2c0-0.1,0-0.2,0-0.2c0-0.1-0.1-0.2-0.1-0.2c-0.1-0.2-0.2-0.5-0.3-0.8c-1.9-4.8-2.4-9.5-3.2-14.4
		c-0.2-0.7-0.2-1.4-0.4-2.1c-0.1-0.5-0.2-1-0.4-1.5s-0.3-1-0.5-1.5c-1.1-2.9-2.6-5.8-3-8.9c-0.6-4.8-0.6-8.2-0.3-11
		c0.1-0.5,0.2-1.1,0.2-1.7c0.2-1.3,0.6-2.6,0.9-3.9c0.2-0.5,0.3-1,0.5-1.6s0.3-1,0.5-1.6s0.3-1.1,0.5-1.7c0.2-0.9,0.6-1.8,0.8-2.8
		c0.3-1.3,0.7-2.8,1-4.6c0.2-0.9,0.3-1.7,0.5-2.7c1.3-8,6.9-14.5,12.9-19.5c1.7-1.3,3.4-2.7,5.1-4c1.7-1.3,3.6-2.5,5.4-3.5
		c0.4-0.2,0.8-0.5,1.2-0.7s0.8-0.5,1.2-0.8c0.6-0.4,1.3-0.8,1.9-1.3c0.2-0.2,0.4-0.2,0.6-0.4c0.6-0.4,1.3-0.8,2-1.1
		c0.9-0.5,1.7-0.9,2.6-1.1c0.2-0.1,0.4-0.2,0.6-0.2c0.1,0.5,0,1-0.2,1.4c-0.3,0.8-0.9,1.5-1.6,2c-1.2,1.2-2.4,2.5-3.5,3.8
		s-2.2,2.7-3.3,4c-3.2,4.2-5.9,8.7-8.1,13.5s-3.7,9.8-4.4,14.9c-1.6,11.1-0.5,22.7,2.9,33.2c0.3,0.9,0.6,1.7,0.9,2.6
		c0.9,2.6,2.1,5.1,3.3,7.6c0.4,0.7,0.7,1.3,1.1,2c0.4,0.7,0.7,1.4,1,2c0.6,1.4,1.3,2.8,1.6,4.4c0,0.1,0,0.1,0,0.2c0.6,0,1.1,0,1.7,0
		c0.2,0,0.6,0,0.8-0.1c0.3,0,0.6-0.1,0.9-0.1c0.8-0.1,1.5-0.2,2.3-0.2s1.5-0.2,2.3-0.2c1.3-0.1,2.7-0.2,3.9-0.5
		c1-0.2,2.1-0.2,3.2-0.4c1-0.2,2-0.3,2.9-0.5c0.5-0.1,0.9-0.2,1.4-0.3c0.9-0.2,1.9-0.5,2.8-0.8s1.7-0.6,2.6-1.1
		c0.9-0.4,1.7-0.9,2.4-1.3s1.5-1.1,2.1-1.7s1.3-1.3,1.9-2.1s1.1-1.7,1.6-2.6c0.2-0.5,0.5-1,0.6-1.5c0.5-1.2,0.6-2.4,0.5-3.5
		c0-0.5-0.1-1-0.2-1.4c-0.1-0.5-0.2-1-0.4-1.3c-0.5-1.6-1.2-3.2-1.7-4.8c-0.7-2.1-1.5-4.3-2.1-6.5c-0.2-0.9-0.5-1.8-0.6-2.7
		c-0.1-0.5-0.2-0.9-0.2-1.3c-0.1-0.2-0.1-0.5-0.1-0.8c-0.1-0.3-0.2-0.8-0.2-1.1c-0.1-0.4-0.2-0.8-0.2-1.2c0-0.1,0-0.2,0-0.2
		c-0.1-0.5-0.1-1.1-0.2-1.7s-0.1-1.2-0.1-1.8c0-0.3,0-0.6,0-1s0-0.6,0-1c0-0.2,0-0.3,0-0.4c1.3-21.7,10.1-43.1,30.4-53.7
		c2.2-1.1,4.5-2,6.9-2.8l0.9-0.2l0.5-0.2l0.5-0.1l1.3-0.3l0.9-0.2l0.5-0.1l0.2-0.1h0.1l0,0h-0.1l-2.4,2c-0.5,0.4-0.9,0.8-1.3,1.2
		c-3.6,3.3-6.9,7-9.8,10.9c-1.4,2-2.8,4-3.9,6.2c-1.2,2.1-2.3,4.3-3.3,6.5c-0.5,1.1-0.9,2.3-1.3,3.4c-1.5,4-2.5,8.2-3.2,12.4
		c-0.2,1.8-0.5,3.6-0.6,5.5c-0.1,1.2-0.1,2.5-0.1,3.6s0.1,2.5,0.2,3.6c0.5,6.2,1.8,12.3,3.9,18.1c0.3,0.8,0.6,1.5,0.9,2.3
		c0.6,1.5,1.3,3,2.1,4.4c0.4,0.7,0.8,1.4,1.2,2.1c0.2,0.5,0.6,1,0.9,1.6c0.2,0.3,0.3,0.5,0.5,0.9c0.3,0.6,0.7,1.2,1.1,1.7
		c0.5,0.6,1,1.3,1.7,1.6c0.2,0.1,0.2,0.2,0.4,0.2c0.6,0.2,1.1,0.3,1.7,0.3c0.2,0,0.3,0,0.5,0c0.5,0,0.9-0.1,1.3-0.1
		c1.1-0.1,2.3-0.1,3.4-0.1c0.8,0,1.5,0.1,2.3,0.2c0.4,0,0.8,0.1,1.1,0.1c2.3,0.2,4.5,0.4,6.8,0.4c0.7,0,1.5-0.1,2.2-0.2
		c0.7-0.1,1.5-0.2,2.2-0.4c0.9-0.2,1.8-0.5,2.7-0.9c2.5-1.1,4.7-2.8,6.9-4.7c0.3-0.3,0.7-0.7,1-1c0.7-0.8,1.3-1.6,2-2.5
		c0.2-0.2,0.2-0.3,0.4-0.5c0-0.3,0-0.7,0-1c0,0,0,0,0-0.1c0-0.2,0-0.3,0-0.5c0-0.1,0-0.1,0-0.2c0-0.2,0-0.5,0-0.7c0-0.1,0-0.2,0-0.3
		s0-0.2,0-0.3c0-0.2,0-0.3,0-0.5c0-0.1,0-0.2,0-0.3c0-0.2,0-0.3,0.1-0.5c0-0.1,0-0.2,0-0.2c0-0.2,0.1-0.4,0.1-0.6c0-0.1,0-0.1,0-0.2
		c0-0.2,0.1-0.4,0.1-0.5s0-0.2,0.1-0.2c0.1-0.2,0.1-0.5,0.2-0.6c0,0,0,0,0-0.1c0.1-0.2,0.1-0.4,0.2-0.6c0-0.1,0-0.2,0.1-0.2
		c0.1-0.2,0.2-0.5,0.2-0.6c0.1-0.3,0.2-0.5,0.3-0.9c0.8-2,1.9-3.8,3-5.6c0.2-1,0.5-2,0.6-3c0.2-0.9,0.3-1.7,0.6-2.5l0,0l0,0
		c0-0.1,0-0.1,0-0.2c0,0.1,0,0.1,0,0.2c0.1-0.2,0.1-0.5,0.2-0.7c0-0.2,0-0.2,0.1-0.4c0-0.2,0-0.2,0-0.4c-0.1-0.5-0.2-1-0.2-1.5
		c0-0.1,0-0.1,0-0.2c-0.1-0.2-0.2-0.5-0.2-0.8c-0.1-0.5-0.2-0.9-0.4-1.3l0,0c0.8-1.6,1.7-3.1,2.7-4.5c1-1.3,2-2.5,3.2-3.5
		c0.6-0.5,1.2-1,1.9-1.4c0.3-0.2,0.6-0.4,1-0.6c0.3-0.2,0.7-0.4,1-0.5c4.3-2,9-2,13.6-0.8c0,0,0.1,0,0.2,0.1
		c0.3,0.1,0.9,0.2,0.9,0.2l-1-0.7l-1.7-1.3l-1-0.7c-0.6-0.5-1.3-1-2-1.4c-1-0.7-2-1.3-3-2c-0.3-0.2-0.7-0.4-1-0.6
		c-0.7-0.4-1.4-0.8-2.1-1.1s-1.5-0.6-2.2-1c-0.8-0.2-1.5-0.5-2.3-0.7s-1.6-0.3-2.4-0.4c-0.4-0.1-0.7-0.1-1.1-0.1s-0.7,0-1.1,0
		c0.1-0.1,0.2-0.2,0.2-0.3c0.5-0.6,1-1.2,1.6-1.7c0.2-0.2,0.3-0.3,0.5-0.4c0,0,0-0.1,0.1-0.1c0.5-0.5,1-0.9,1.5-1.3
		c0-0.1,0.1-0.1,0.1-0.2l0,0l0,0v0.1l0,0l0,0l0,0c0.4-0.3,0.7-0.5,1.1-0.8l0,0l0,0l0,0l0,0l0,0l0,0c0.1-0.1,0.2-0.2,0.3-0.2l0,0l0,0
		l0,0l0,0l0,0c0.4-0.2,0.8-0.5,1.1-0.7c0.3-0.2,0.5-0.3,0.9-0.5c1.5-0.7,3-1.2,4.5-1.4c0.3-0.1,0.6-0.1,1-0.2
		c0.6-0.1,1.3-0.2,1.9-0.2c6.2-0.2,12.5,2.7,17.1,7.3c3.4,3.4,6,7.3,8.2,11.6c0.8,1.4,1.5,2.8,2.1,4.3c1,1.9,1.8,3.9,2.7,5.8
		c0.2,0.5,0.5,1.1,1,1.7c0.2,0.2,0.2,0.3,0.5,0.5c0.8,0.6,1.8,0.8,2.8,0.8c0.2,0,0.5,0,0.8,0c0.2,0,0.2,0,0.4,0c0.6,0,1.3,0,2,0.2
		l0,0c-1-2.9-2.1-5.8-3.5-8.5C306.3,669.3,305.6,668,304.8,666.6z M251.6,623.4c0.1,0,0.1,0.1,0.2,0.1l0,0
		C251.7,623.5,251.7,623.4,251.6,623.4z"/>
	<path class="st4" d="M262,650.9L262,650.9L262,650.9z"/>
</g>
</svg>
