<?xml version="1.0" encoding="utf-8"?>
<!-- Generator: Adobe Illustrator 24.0.1, SVG Export Plug-In . SVG Version: 6.00 Build 0)  -->
<svg version="1.1" id="Layer_1" xmlns="http://www.w3.org/2000/svg" xmlns:xlink="http://www.w3.org/1999/xlink" x="0px" y="0px"
	 viewBox="0 0 990 781.2" style="enable-background:new 0 0 990 781.2;" xml:space="preserve">
<style type="text/css">
	.st0{fill:#FFFFFF;}
	.st1{fill:#CC9A19;}
	.st2{fill:#ACACAB;}
	.st3{fill:#535459;}
</style>
<g>
	<path d="M186.4,731c-0.5,1-0.6,2-0.8,2.9c-0.8,3.5-1.6,7-4.4,9.7c-0.2,0.2-0.4,0.5-0.5,0.8c-1.7,2.8-3.3,3.4-6.5,2.5
		c-6.3-1.8-11.6-5.1-16-10.1c-4.1-4.6-7.8-9.3-11.1-14.4c-0.6-1-1.4-1.8-2.4-2.3c-0.5-0.3-0.9-0.7-1.4-0.9
		c-6.2-3.3-10.5-8.6-14.5-14.1c-6.3-8.7-8.9-18.7-9.2-29.3c-0.3-10.1,1.2-19.9,4.5-29.5c2.1-6.1,5.3-11.4,9.9-15.9
		c1.2-1.2,2.4-2.4,3.7-3.5c7.7-6.3,15.3-12.6,23.4-18.3c8-5.6,16.7-9.7,26-12.7c14.3-4.5,29-5.5,43.9-4.1c6.3,0.6,12.5,1.5,18.7,2.8
		c1.2,0.3,1.7,0,2.2-1.1c2.5-6.3,4.1-12.7,4.4-19.5c0.3-8.2,0.6-16.5,1.5-24.7c1.3-11.3,4.4-22.1,8.8-32.5
		c2.2-5.2,4.5-10.4,6.9-15.5c5.5-11.8,10.1-24,13.8-36.5c1.1-3.6,2.2-7.2,3.7-10.6c0.6-1.5,0.7-3,0.3-4.7
		c-2.4-9.5-3.7-19.1-3.9-28.9c-0.1-11.7,1.4-23.1,4.6-34.3c0.8-2.8,1.4-5.7,0.9-8.7c-1,0-1.2,0.8-1.7,1.3
		c-7.3,7.9-14.7,15.6-23.5,21.9c-2.1,1.5-4.3,3.1-6.6,4.4c-6,3.7-12.3,4.2-18.9,1.8c-6.2-2.3-11.3-6.2-14.9-11.9
		c-0.3-0.5-0.6-1-0.9-1.4c-5.3-6-7.6-13.2-9.2-20.8c-0.7-3.4-1.4-6.9-2.1-10.3c-1.1-5.7-3.2-11-4.9-16.5
		c-3.8-12.8-9.3-24.8-16.5-36.1c-2.9-4.6-5.6-9.3-8.2-14.1c-2.2-3.9-4.5-7.8-7.1-11.4c-2.8-3.9-5.1-8.1-7-12.5
		c-2.7-6.1-5.5-12.2-8.5-18.2c-4-8-6-16.6-7.3-25.5c-1.5-10.2-0.8-20.4,0.3-30.6c1.3-11.4,4-22.5,7.2-33.5
		c3.5-12.1,10.5-21.6,20.8-28.7c2-1.4,4.1-2.8,6-4.4c2.9-2.3,5.4-4.9,7.7-7.8c5.7-7.2,12.5-13.3,20.3-18.1
		c10.3-6.4,20.7-12.7,32.2-16.9c3-1.1,6-2.1,9.1-3.1c6.1-2,11.9-4.7,17.2-8.4c2.6-1.8,5.2-3.5,7.8-5.1c5.6-3.6,10.9-7.5,15.9-11.9
		c4.1-3.6,8.5-6.8,13.2-9.5c4.2-2.4,8.5-4.9,12.8-7c12.1-6,24.8-8.6,38.3-7.2c14.1,1.5,27.9,4.5,41.3,9.1c6,2,11.6,1.9,17.3-0.4
		c1.6-0.7,3.3-1.3,4.9-2c10.8-4.8,22-6.3,33.7-5.3c6.7,0.6,13.4,0.2,20-1.6c9-2.5,18.2-3.7,27.5-3.9c8.6-0.2,17.1-0.8,25.7-0.9
		c10.9-0.2,21.7,0.7,32.4,2.8c3.9,0.7,7.6,1.9,11.2,3.5c3.2,1.5,6.5,2.6,9.8,3.9c5.7,2.2,11.7,2.5,17.7,2c6.6-0.6,13.2-1.7,19.7-2.4
		c12.2-1.3,24.3-1.1,36.1,2.6c4.4,1.4,8.7,3.3,12.7,5.7c7.8,4.7,15.5,9.6,22.7,15.3c10.2,8.1,21.8,12.9,34.4,15.6
		c7.3,1.5,14.4,3.5,21.2,6.7c7.6,3.5,14.2,8.3,19.6,14.7c2.3,2.8,4.7,5.5,7.1,8.2c4.6,5.2,8.3,11,11.1,17.3c2,4.6,4.9,8.3,8.9,11.4
		c3.3,2.5,6.4,5.3,9.5,8.1c4.3,3.9,7.3,8.7,9.4,14c1.2,3.2,2.2,6.5,3.2,9.8c0.1,0.5,0.2,0.9,0.3,1.4c0.4,8.1-0.1,16-3.6,23.4
		c-1.4,3-2.7,6-4.1,8.9c-1.2,2.5-1.8,5.1-2,7.8c-0.4,4.6-0.5,9.3-0.4,13.9c0.4,16.3-1.7,32.3-5.7,48.2c-2.9,11.6-7.3,22.2-14.1,32
		c-5.6,8.1-11.5,15.9-18.1,23.3c-3,3.4-6.2,6.7-9.7,9.6c-8,6.7-14.4,14.8-20.7,23c-0.9,1.2-1.3,2.5-1.7,3.9
		c-1.2,5-2.5,10.1-3.7,15.1c-1.5,6.1-3.9,11.8-7.7,16.9c-0.7,0.9-1.1,1.9-1.6,3c-3.6,8.7-9.6,15.2-18.1,19.3
		c-0.9,0.5-1.9,0.8-2.9,1.2c-2.6,0.9-2.6,0.9-2.5,3.7c0.2,3.4,0.4,6.7,0,10.1c-0.4,3.5,0.3,6.6,1.6,9.8c3.6,8.7,7.5,17.3,12.2,25.5
		c7.8,13.9,12.5,28.8,15.1,44.5c1.2,7.5,1.1,15,0.8,22.5c-0.3,6.5-0.9,12.9-1.1,19.4c-0.2,8.2,0.8,16.3,5.1,23.6
		c2.2,3.7,4.1,7.6,6.2,11.4c1.2,2.1,1.2,2.2,3.5,1.8c7.2-1,14.5-1.5,21.8-1.4c13,0.2,25.4,3,37.6,7.5c14.2,5.3,26.4,13.9,38.6,22.5
		c0.6,0.4,1.1,0.9,1.5,1.5c6.1,7.7,11.9,15.7,16.6,24.3c1.4,2.5,2.5,5,3.6,7.6c2,4.7,2.4,9.6,1.8,14.6c-1.3,9.9-4.1,19.4-7.8,28.6
		c-1.1,2.8-2.9,5.2-4.6,7.5c-3.8,5.2-7.8,10.1-13.6,13.3c-2.3,1.2-4.1,3-5.4,5.3c-2.8,5-6.7,9.1-10.5,13.4
		c-4.1,4.7-9.4,7.7-15.3,9.4c-3.1,0.9-4.5,0.1-6.6-2.4c-3.1-3.6-4.5-7.8-5.3-12.4c-0.1-0.3-0.2-0.6-0.3-0.9
		c-1.1,0.1-1.5,0.9-2.1,1.5c-1.7,1.6-3.4,3.3-5.2,5c-1.2,1.2-2.5,2.2-4,3.1c-3.7,2.3-7.4,1.5-9.7-2.2c-1.1-1.7-1.8-3.6-2.3-5.5
		c-0.9-3.2-1.4-6.4-1-9.7c0.3-2.2-0.6-3.7-2.4-4.7c-1.3-0.7-2.6-1.7-4-2.2c-4.5-1.9-7.4-5.2-9-9.7c-0.9-2.5-1.4-2.6-3.3-0.7
		c-2,1.9-3.2,4.3-4,7c-1.3,4.5-3.7,8.5-6.7,12.1c-1.1,1.3-2.3,2.4-3.7,3.4c-4.1,3.1-9.1,2.4-12-2c-1.8-2.6-2.9-5.5-3.4-8.6
		c-0.1-0.7-0.4-1.4-0.3-2.1c0.1-2.5-1.4-3.8-3.3-4.8c-5.7-2.9-9.8-7.6-14.2-12c-1.1-1.1-1.9-2.4-2.5-3.8c-0.3-0.9-0.9-1.2-1.8-1.2
		c-0.6,0-1.3,0-1.9,0c-140.2,0-280.4,0-420.6,0c-0.6,0-1.1,0.1-1.7,0c-1.2-0.1-1.9,0.4-2.3,1.5c-0.6,1.5-1.6,2.8-2.7,3.9
		c-4.4,4.4-8.6,9-14.4,11.9c-1.7,0.8-2.6,2.2-2.8,4.2c-0.3,3.4-1.2,6.8-2.9,9.8c-1.4,2.6-3.3,4.4-6.3,5.1c-2,0.4-3.8,0.1-5.4-1.1
		c-5.7-4.1-9.3-9.6-11.4-16.2c-0.8-2.3-1.7-4.5-3.3-6.3c-0.3-0.4-0.6-0.7-1-1c-1.7-1.5-2.3-1.4-3,0.7c-1.6,4.8-4.5,8.2-9.2,10.1
		c-1.5,0.6-2.8,1.6-4.1,2.4c-1.6,0.9-2.3,2.2-2.1,4.1c0.5,4.5-0.3,8.8-2,12.9c-0.3,0.7-0.6,1.5-1,2.2c-2.4,4.1-6.4,5.1-10.4,2.5
		c-2.7-1.8-4.9-4.1-7.2-6.3C188.9,733.2,187.9,732,186.4,731z"/>
</g>
<g>
	<path class="st0" d="M394.9,212.5c-1.1-0.5-2-1.2-3.1-1.4c-1.4-0.3-2.5-0.2-3.7,0.5c-2.5,1.8-3.6,7.6,0.5,9.9
		c1.5,0.8,3.1,1,4.6,0.1c2.1-1.2,3.3-3,3.3-6.1C396.5,214.8,396.4,213.4,394.9,212.5z"/>
	<path class="st0" d="M415.3,218.9c-0.2-0.4-0.2-1-1-1.2c-0.5,5.5-3.1,10-6.6,14.2c0.5,0.1,0.9,0.1,1.4,0.1c1.3,0.1,2.5,0.3,3.6,0.5
		c1.4,0.3,2.7,0.3,4,0.3c3.1,0,4.4-1.8,3.1-4.6C418.3,225.2,416.8,222.1,415.3,218.9z"/>
	<path class="st0" d="M368.2,217c-0.3,0.2-0.5,0.2-0.6,0.3c-1.5,2.4-2.9,4.8-5.1,6.6c-0.2,0.2-0.4,0.4-0.4,0.6
		c0.2,0.5,0.4,1,0.6,1.5c3,4.7,7.1,7.9,12.2,9.9c0.4,0.1,0.8,0.4,1.9-0.1C370.2,231.1,369.1,224.1,368.2,217z"/>
	<path class="st0" d="M579,224.8c-0.5-1.5-1-3-1.5-4.8c-2.3,2.8-3.5,5.6-4.5,8.7c-0.3,1.1,0.2,1.4,1.2,1.5c2.2,0.1,4.2,1.1,6.2,2.2
		c1.4,0.8,2.8,1.7,4.2,2.5c0.4,0.3,0.8,0.7,1.6,0.2c-1-1.2-1.6-2.7-2.9-3.7C581.2,229.6,579.8,227.4,579,224.8z"/>
	<path class="st0" d="M600.3,207.8c-2.5-0.1-5.7,1.5-6.8,3.4c-1.4,2.4-1,4.8,0.4,7c0.3,0.6,0.6,1.2,1,1.7c0.6,1.3,1.7,1.8,3.1,2
		c4.9,0.5,9.3-4.7,8.1-9.3C605.4,209.9,603.1,208,600.3,207.8z"/>
	<path class="st0" d="M627.7,223.3c-0.7-4-4.1-6.1-6.4-9c0,0.7,0,1.3,0,2c0.1,2.6,0.1,5.3-0.2,7.8c-0.2,1.9-0.5,3.9-1.1,5.8
		c1.1-0.1,1.5-0.7,2-1.2c1.4-1.1,2.8-2.1,4.4-2.9C628.2,225,628.1,225,627.7,223.3z"/>
</g>
<g>
	<path class="st1" d="M398.8,227.8c-0.6,0.2-1.3,0.4-1.8,0.7c-4.6,2.4-9.2,1.9-14,1.2c-1.3-0.1-2.3-0.8-3.4-1.6
		c-0.6-0.4-1.3-1-2.3-1.7c2.4,6.4,9.2,9.3,15.5,8.8c6.6-0.5,11.6-5.2,12.4-11.3C402.7,226.6,402.7,226.6,398.8,227.8z"/>
	<path class="st1" d="M616,216.8c-0.4-0.6-0.8-1.4-1.8-1.4c-0.8,0.1-1.3,0.8-1.6,1.6c-0.5,1.2-0.7,2.4-1.5,3.5
		c-3,4.2-6.8,7.2-11.8,8.4c-3.1,1-6.2,0.6-9-0.8c-0.7-0.3-1.6-0.7-2.3-1.1c0.8,1.7,2,2.9,3.6,3.5c7.5,3,14.7,2.5,21.1-2.8
		c1-0.8,1.7-1.7,2.2-2.7c0.8-1.3,1.3-2.8,1.5-4.4c0.1-0.6,0.1-1.3,0.1-1.9C616.5,218.2,616.4,217.4,616,216.8z"/>
</g>
<g>
	<path class="st2" d="M196.1,281.5c3.9,5.4,7.9,10.8,11.5,16.5c2.1,3.1,3.8,6.5,5.1,10c0.4,1.4,1.2,2.4,1.9,3.6
		c6.7,10.2,12,21,14,33.3c0.7,4.5,1.5,8.9,1.7,13.5c0.3,7,2.3,13.3,6.2,19.1c2.7,3.9,5.9,6.7,10.4,8c1.3,0.4,2.7,0.7,3.7,1.7
		c2,1.8,4.2,1.9,6.6,0.6c2.9-1.6,5.6-3.2,8.3-5.2c2.6-2,5.1-4,7.4-6.2c0.6-0.6,1.2-1.2,1.8-1.8c3.1-3.2,5.9-6.8,8-10.8
		c1.6-3,3.5-5.8,5.4-8.7c2.4-3.7,4.5-7.8,5.8-12c0.5-1.8,1.2-3.5,1.8-5.2c4.6-11.5,7.1-23.5,7.9-35.8c0.4-5.7,0.6-11.5-0.3-17.2
		c-0.6-3.5-1.2-6.9-1.6-10.4c-0.7-5.6-1.7-11.2-1.3-16.9c0.1-2.2,0-4.5-0.2-6.7c-0.4-4.4-0.8-8.8-0.6-13.2
		c0.5-10.4,1.2-20.8,3.2-31.1c0.4-2.2,0.9-4.4,1.3-6.6l-1.3-3.2c-0.8-2-1.6-4.2-2.3-6.7c-1.3-3.9-2-7.1-2.4-10.2
		c-0.2-1.2-0.4-2.5-0.6-3.7c-0.3-1.7-0.7-3.5-0.8-5.3c-0.1-1.2-0.2-2.3-0.3-3.5c-0.1-1.3-0.3-2.7-0.4-4.1l0-0.4l0.1-0.4
		c0.1-0.3,0.2-0.6,0.2-0.9c-0.7,1.1-1.4,2.3-2.1,3.5l-0.5,1c-2.5,4.3-4.8,8.8-6.8,13c-0.8,1.3-1.1,2.6-1.1,4.4v1.1v3.2
		c0,1,0,2.1,0.1,3.1c0.1,3.1,0.1,6.2,0.4,9.4l0,0.4l-0.1,0.4c-0.4,1.4-0.4,2.8,0.1,4l0.1,0.4v0.9v3.4c0,2.1,0,4.2,0.4,6.2l0.1,0.5
		l-0.2,0.5c-0.3,1-0.4,1.8-0.2,2.6l2.7,10.6l-2.4-3.3c0,0.1,0,0.2,0,0.3c0.5,7.1,1.3,14.2,2,21.2c0.7,6.4,1.2,12.9,2.2,19.2
		c2.5,15.3,4.2,30.6,3.1,46.2c-0.7,9.1-2.5,17.8-5.4,26.5c-0.5,1.5-1.2,3-2.3,4.1c-0.7,0.7-1.4,1.1-2.2,1.3l-0.3,0.8
		c-0.8,2.1-1.8,4.1-2.7,6.1c-3.4,6.6-7.1,11.4-11.6,15c-2,1.6-3.9,2.5-6.1,2.9c-1.4,0.2-2.8,0.4-4,0.4c-1.5,0-2.8-0.2-4.1-0.5
		l-3.3-0.9c-1.1,0-2.2-0.3-3.4-1c-5.6-3.1-9.3-7.9-10.7-14c-0.8-3.8-1.5-7.8-1.5-11.8c0-2.4-1.3-4.6-1.5-7c0-0.3-0.4-0.6-0.7-0.8
		c-3.2-2.3-4.8-5.5-5.5-9.2c-0.3-1.5-0.8-2.9-1.6-4.2c-2-3.6-3.8-7.3-4.4-11.4c-0.3-2-1.1-3.6-2.3-5.1c-0.7-0.9-1.4-1.8-2.1-2.7
		l2.7,6.2L209,291c-3.9-5.5-7.5-11.2-10.6-17c-3.6-6.7-6.7-13.7-9.7-20.5c-0.6-1.5-1.3-3-2-4.4c-2.8-6.2-4-13.4-3.8-21.2l0.2-5.7
		c-0.6-3.3-0.3-6.6,0.2-10c1.6-9.7,4.6-18.9,9-27.6c1.6-3.2,2.8-6.5,3.3-10.1c0.5-3.7,1.7-7.1,3.5-10.4c1.5-2.9,3.8-4.7,7-5.3
		c1.6-0.3,3-0.1,4.2,0.5c0.1-0.2,0.2-0.4,0.3-0.6c0.4-0.6,0.7-1.2,1-1.8c3.7-7.5,8.5-14.9,14.6-22.6c0.7-0.9,1.5-1.7,2.2-2.4
		c0.8-0.8,1.5-1.5,2.1-2.2c1.1-1.5,2.5-3.3,4.2-4.8c2.1-1.9,4.2-3.7,6.3-5.4c0.6-0.5,1.3-1.1,2-1.7c1-0.9,2.1-1.7,3.1-2.7
		c0.5-0.5,1-0.9,1.5-1.4c1.3-1.1,2.6-2.3,4-3.4c0.3-0.2,0.5-0.3,0.7-0.4c0.5-0.3,0.9-0.6,1.2-0.9c0.5-0.4,1-0.8,1.2-1.2l0.3-0.6
		l0.4-0.2c0.2-0.2,0.4-0.4,0.7-0.5l0.3-0.2l0.4,0c0.3,0,0.5-0.3,1-0.8c0.4-0.4,0.8-0.8,1.4-1.2c0.4-0.3,0.8-0.5,1.1-0.6
		c0.1,0,0.2-0.1,0.3-0.1l0.2-0.1c0.1-0.1,0.2-0.1,0.2-0.1l0.3-0.7l0.5-0.3c0.2-0.2,0.4-0.4,0.7-0.5l0.4-0.2h0.2
		c0-0.1,0.1-0.1,0.1-0.2c0,0,0,0,0,0c-2.7,0.8-5.3,1.6-8,2.3c-12.9,3.5-23.6,10.4-33.8,18.5c-6.2,4.9-10.9,11.2-14.9,18
		c-3.9,6.8-9.1,12.4-15.7,16.8c-4.4,2.8-7.2,6.7-9,11.5c-3.9,10.6-6.3,21.5-6.8,32.7c-0.6,13.2,0.7,26.1,3,39.1
		C180.9,255.4,187,269.1,196.1,281.5z"/>
	<path class="st2" d="M550.6,517.6c-0.2-1.3-1-2.1-2-2.8c-1.8-1.1-3.7-1.9-5.4-3.1c-0.1,0-0.1-0.1-0.2-0.1l-0.6,0.3
		c-0.6,0.3-1.3,0.3-1.6,0.3c-2.1,0.1-3.9-0.2-5.7-0.9c-4.8-1.9-10-2.7-15.5-2.3c-4.7,0.3-9.3,1.1-13.3,1.9l-3.6,0.6l-0.1,0.1l-1,0.1
		c-2.6,0.3-5.2,1.1-7.7,1.8l-1.4,0.4c-1,0.3-2.1,0.6-3.2,0.9c-1,0.3-2.1,0.6-3.1,0.9l-0.1,0l-0.1,0.3h-1.3c-0.6,0-1.3,0-1.8,0.1
		l-0.7,0.2l-0.7-0.3c-0.3-0.1-0.6-0.1-0.9,0l-0.6,0.2l-0.9-0.2c-0.2-0.1-0.4-0.1-0.4-0.1l-0.2,0c-1.9-0.2-3.5-0.6-4.8-1.3
		c0.1,0.1,0.2,0.3,0.3,0.4c2.3,2.3,4.1,5,6.8,7c0.6,0.5,1.2,1.1,2,1.2c2.4,0.2,4.8,0.8,7.3,0c4.6-1.5,8.8-0.4,12.5,2.7
		c2.9,2.4,6.1,3.9,9.6,5.1c0,0,0,0,0,0c0.2-0.1,0.4-0.1,0.7-0.1h0.5l0.4,0.2c0.5,0.2,1.3,0.3,2.2,0.3l0.2,0h2.1l0.1,0.1l0.2-0.2
		l1.8,0l0.1,0c0.4,0.1,0.7,0,1.2-0.2l0.5-0.1l0.1-0.1h1.7c0.1-0.5,0.4-0.9,0.8-1.4c0.7-0.7,1.5-0.5,2.3-0.1c1.6,0.6,3,0,4.1-1.1
		c0.8-0.6,1.6-1.6,2.3-2.3c2-2,4.4-3.1,7.2-3.2c2.2-0.1,4.5,0,6.7,0.3c1,0.1,2,0.2,3.1,0.1c1,0,1.5-0.3,1.1-1.5
		C551.3,520.3,550.8,518.9,550.6,517.6z"/>
	<path class="st2" d="M478.5,206.3C478.5,206.3,478.5,206.3,478.5,206.3l-0.7,2c0,0,0.1,0,0.1,0L478.5,206.3z"/>
	<path class="st2" d="M634.3,355.1c-1.6-4.9-3.1-9.8-3.9-14.8c-0.8-4.1-3.3-7.1-6.5-9.5c-2.3-1.8-4.7-3.3-7.3-4.6
		c-2.4-1.2-4.6-2.9-5.5-5.4c-1.2-3.3-2.8-6.4-3.3-9.8c-0.7-4.9-3.4-7.8-8.1-9.2c-3.1-1-5.8-2.7-8.5-4.5c-4.4-3.1-7-7.2-7.9-12.4
		c-0.4-2.1-1.1-4-1.9-5.9c-1.5-3.5-3-6.9-4-10.5c-0.8-2.8-1.4-5.7-4.8-6.7c-0.8-1.4-2.1-1.1-3.4-1c-1.4,0-2.7,0.2-4,0.2
		c-7.5-0.1-13-4.7-14.4-12.1c-0.2-1.2-0.3-2.4-0.4-3.6c-0.1-2-1.9-3.8-3.9-3.9c-1.1-0.1-2.3-0.2-3.1-1.1c-1.9-1.9-4.2-3.2-6.1-5.1
		c-0.8-0.8-1.6-1.8-2.1-2.9c-0.8-1.6-1-3.2-0.6-4.7l-0.7-1.1c-0.4-0.7-0.8-1.6-0.9-2.6c-0.2-1.5-0.3-2.9-0.3-4.4
		c0-0.6,0-1.4,0.1-2.2c0-0.1,0-0.3,0-0.4c-1-0.3-1.9-0.7-2.6-1l-0.3-0.2c-2.5-1.3-4.7-1.2-7.3,0.4c-4.5,2.6-7.2,5.5-8.5,9
		c-0.2,0.6-0.5,1.2-0.4,1.5l0.1,0.8l-0.4,0.7c-0.2,0.2-0.2,0.3,0,0.5l0.4,0.5v0.6c0,0.2,0.1,0.4,0.1,0.7c0,0.2,0.1,0.5,0.2,0.7
		c0.1,0.4,0.3,1,0.4,1.6l0.2,0.1l0.1,1.1c0.1,2.9-0.6,5.4-2.1,7.4c-2.3,3.1-7.1,4.7-10.8,3.6c-2.7-0.8-5.5-4.3-5.7-7.2l0-0.7
		c0-0.4,0-0.8,0-1.1c0-1.1,0.1-2.1-0.2-3l-0.1-0.4l-0.3-0.2l0.1-1.2c0.1-1-0.1-1.7-0.7-2.5c-2.5-3.5-4.5-7.3-6.3-10.8l-0.1-0.1
		c-0.4-0.9-0.6-1.8-0.6-2.9c-0.1-0.5-0.2-0.9-0.9-1.4c-3.1-1.7-6.1-3.5-9-5.3l0,0c0,0-0.1,0-0.2,0.1c-2.7,1.7-4.8,3.3-6.7,5.1
		l-0.9,0.9c-1.3,1.3-2.7,2.7-4.2,4l-0.1,0.1c-0.1,0.1-0.1,0.1-0.2,0.1c0,0,0,0.1,0.1,0.4c0.1,0.4,0.2,1,0.3,1.5
		c0.1,0.5,0.2,1,0.3,1.4l0.1,0.5c0,0.3,0,0.5-0.1,0.7v1c0.1,0,0.1,0.1,0.2,0.1c3.8,1.5,6.4,4.5,8.5,7.8c0.6,1.1,0.8,2.2,0.1,3.2
		c-0.7,1-1.8,0.6-2.9,0.3c-1.9-0.6-3.8-1-5.8-1.3c-1.6-0.2-1.9,0-2.2,1.5c-0.8,3.6-3.1,6.1-6.2,7.9c-4.1,2.4-8.8,3.8-13,6.5
		c-9.9,3.3-18.1,9.5-25.7,16.3c-3.1,2.7-5.6,5.8-7.6,9.5c-0.8,1.7-1.1,3,0,4.7c1.7,2.7,2.5,5.5,2.4,8.8c-0.2,9-3.1,17.2-7.9,24.8
		c-1.1,1.7-2.1,3.4-3,5.2c-3.2,6.9-9,11.2-15,15.3c-0.4,0.3-1,0.5-1.5,0.7c-1.4,0.6-3,0.8-4.5,0.6c-3-0.3-4.8-2.2-5.1-5.1
		c0-0.5,0.2-1.1-0.2-1.6c-0.5,0-0.7,0.3-1,0.6c-3,3.6-6.1,7.2-8.9,10.9c-3,4-5.6,8-7.1,12.6l0.4,0.3c0.9,0.8,1.7,1.8,2.1,3
		c0.1,0.3,0.2,0.6,0.3,0.9c0.1,0.3,0.2,0.7,0.3,0.9l0.1,0.1c0.2,0.5,0.7,0.7,0.9,0.7c0.1,0,0.5,0.1,0.7-0.1
		c2.9-2.8,6.9-4.3,12.2-4.6c1.6-0.1,3.1-0.5,4.7-1.5c1-0.7,2-1.3,2.9-1.6c3.2-1,5.3-3.5,7.1-6c0.3-0.6,0.7-1,1.1-1.3l6.9-6.9
		l-0.8,2.1c0.2,0,0.4,0,0.6,0.1c1.1,0.4,0.7,1.4,0.5,2.2c-0.1,0.3-0.2,0.6-0.3,1c-1.7,6.6-3,13.2-1.6,20.1c0.3,1.4,0.4,2.9,0.7,4.2
		c0.6,3.2,1.2,6.5,1.6,9.7c0.4,3.5,0,7.2-1.9,10.6c-2.3,4.1-4.8,8.3-6.3,12.9c-3.1,9.5-4.8,19-3.8,29c0.8,9.5,3.8,18.1,10.5,25.1
		c0.7,0.7,1.4,1.5,1.9,2.2c3.1,4,4,8.5,2,13.3c-3.1,7.6-2.7,15.1,1.3,22.2h0.3l0.5,1.3c0.3,0.9,0.8,1.7,1.4,2.6l0.1,0.1
		c0.6,1,1.3,2,2,3.1c1-0.5,2-1,3.2-1.4c2.5-0.8,5-1.3,7.6-1.5l0.1-0.2c0.2-0.3,0.5-1,1.3-1.4c2.4-1.5,3.2-4.1,4.1-7.1l0.3-0.9
		c0.1-0.4-0.2-1.5-0.4-2.2c-0.1-0.3-0.1-0.5-0.2-0.8c-0.3-1.2-0.4-2.4-0.2-3.6c-3.8,2.4-7.5,1.4-9.6-2.4c-0.4-0.8-1-1.6-1.8-2.1
		c-1.9-1.3-3-3.3-3.5-5.5c-0.6-2.8,0.7-5.3,3.5-6.3c1.5-0.6,3-0.7,4.4-0.4c0.4-0.7,0.9-1.4,1.4-2c2-2.1,2.6-3.8,2.3-5.8
		c-0.2-1.4,0-2.6,0.3-3.7c0.1-0.5,0.2-1,0.2-1.5c0-1.2,0.1-2.4,0.2-3.4l0.1-0.6c-0.4,0-0.8,0-1.2,0c-1.1,0-1.9,0.2-2.9,0.4
		c-5.2,1.1-10.9-2.9-11.7-8.1c-0.5-3.7,0.3-7.1,2.7-10.1c1.5-1.9,3.5-2.6,5.6-2c0.4-0.2,0.8-0.5,1.2-0.7l0.1,0
		c1.6-0.7,3.3-1.1,4.9-1.4l0.7-0.2c0.5-0.2,0.8-0.5,1-1.3c0.9-4.4,1.6-8.7,1.9-13.2c0.1-1.2,0.2-2.4,0.3-3.5
		c0.1-1.1,0.2-2.2,0.3-3.4c0-1.5,0.8-3.1,2.4-4.5l0.3-0.3c-2.3,0.2-4.4,0.5-6.6,0.1c-0.4,0-1,0.2-1.4,0.3c-0.6,0.2-1.2,0.4-1.8,0.5
		c-1.4,0.3-2.5,0.2-3.5-1c-1-1.2-1-2.5-0.2-3.8c0.4-0.8,1.1-1.8,1.7-2.5c1.5-1.6,2.4-3.4,3.1-5.4c0.3-1.1,0.7-2.1,1.6-2.9
		c1.5-1.2,1.8-2.7,2.1-4.4c0.2-1.4,0.8-2.8,1.6-4l0.2-2.1c0.3-3.5,1.2-7,2.9-11.3c1.4-3.5,2.8-7,4.3-10.6c0.4-1.1,0.7-2.2,1-3.5
		c0.1-0.6,0.3-1.2,0.4-1.8c0-0.1,0-0.2,0.1-0.3v-0.2l3.1-6.1c0-0.2,0-0.5,0-0.7c0.1-3.2,0.7-6.3,2.1-9.2c1.6-3.6,3.4-7.2,5.2-10.7
		c2.4-4.5,5.5-8.6,10.8-10.2c0.4-0.2,0.8-0.4,1.3-0.7c8.5-5.9,18.2-9.1,28.4-10.7c2.8-0.4,5.5-0.5,8.3-1c8.9-1.3,18-1.5,27-1.4
		c3.5,0,7,0.4,10.4,1.2c1.9,0.4,3.8,0.8,5.8,1.1c6.7,0.8,13.2,2.5,19.1,5.7c0.3,0.2,0.7,0.4,1.1,0.4c1.2-0.2,1.9,0.5,2.7,1.3
		c3.9,3.6,7.9,7.3,12.2,10.4c6.3,4.4,9.2,10.6,10.2,18c0.5,3.2,0.3,6.4-0.1,9.5v9.2c0,0.7,0.2,1.3,0.4,2c0.4,1,0.2,2.1,0.1,3
		c-0.8,4.1,0.2,8.1,3,12.3c2,2.9,3.5,6,4.5,9.2c0.1,0.3,0.2,0.5,0.3,0.8c0.1,0.2,0.1,0.4,0.2,0.6l0.1,0.3c2.5,0.9,4.5,2.7,6.1,5
		c5.2,7.3,3.9,17,0.9,22.7l1.2-0.6l-2.8,5.7c-0.5,0.9-1,1.8-1.6,2.7l-0.1,0.1c-1.8,2.4-2.5,4.9-2.3,8c0.2,2.4,0.1,4.8,0.1,7.2
		c0,0.8,0,1.5,0,2.3c0,1.4,0.5,2.6,1.5,4.1c1.6,2.3,3.5,4,5.6,5.9c0.3,0.2,0.5,0.4,0.8,0.7c0.2,0.2,0.4,0.4,0.7,0.6l0.2,0.2
		c0,0,0,0,0,0c3.3-1.7,7.3-0.1,9.2,3.1c0.3-0.2,0.5-0.4,0.8-0.5c1.4-0.8,2.4-2.1,3.6-3.4c0.5-0.6,1-1.2,1.6-1.8
		c0.6-0.6,1.2-1.2,1.9-1.8l2.2-1.8c0.2-1.6,0.4-3.1,0.7-4.6c0.7-4.1-0.2-7.5-3.4-10.4c-1.5-1.3-2.7-3-3.7-4.7
		c-2.9-4.4-4.7-9.2-4.8-14.6c-0.1-7.1,0.4-14.1,2.4-21c0.3-1.1,0.6-2.1,0.6-3.3c-0.1-2.8,0.3-5.5,0.8-8.3c0.5-2.9,0.5-5.7,0-8.6
		c-1.1-5.6-3.4-10.6-6.2-15.5c-0.2-0.4-0.5-1-0.8-1.4c-0.3-0.4-0.3-0.7,0.1-1.1c0.3-0.2,0.6,0,0.8,0.2c1.5,1.3,2.5,2.9,3.5,4.6
		c2.9,4.9,5,10.2,7.6,15.2c2.5,4.8,4.2,9.7,5.1,14.9c0.6,3.7,2.7,6.3,6.2,7.6c2.2,0.8,4.4,2,6.3,3.4c0.4,0.3,0.7,0.8,1.6,0.5
		c-0.1-4.8,1.2-9.6,1.8-14.3c0.3-1.6,0.4-3.2,0.3-4.8C636.8,365.8,636,360.4,634.3,355.1z M491.3,267.4c-1.1,4.5-3.1,8.5-6.3,11.9
		c-2.2,2.4-4.5,4.8-6.3,7.5c-1.5,2.3-3.9,3.4-6.5,4.1c-3.6,1.1-7.4,1.6-11.3,1.9c-1.8,0.1-3.4,0.6-4.9,1.7c-2.2,1.6-4.8,2.7-7.4,3.3
		c-3,0.6-5.7,1.9-8.5,3.2c-1.4,0.6-2.4,1.7-3.4,2.9c-3.2,3.7-6.3,7.4-8.4,11.9c-0.7,1.7-1.8,3.3-2.8,4.8c-0.5,1-1.5,1.5-2.7,1.2
		c-1.2-0.3-2-1.1-2.3-2.1c-0.4-3.3-0.7-6.5-1.2-9.8c0.1-1.3,0.2-2.5,0.4-3.8c0.8-4.8,1.7-9.6,2.9-14.4l-1.1-1.1
		c-0.8-0.8-1.1-1.7-1.4-2.4l-0.4-1.2l0.2-0.2c-0.2-2.9,0.3-5.9,1.5-8.5c0.2-0.4,0.3-1,0.5-1.6c0.4-1.4,0.9-3,2-4.3
		c0.8-1,1.6-2.1,2.5-3.4c0.8-1.2,1.8-2.5,3-3.7c0.6-0.6,1.4-1.4,2.2-2.1c1.2-1,2.2-1.9,3.2-2.9c0.3-0.3,0.6-0.6,1-0.8
		c7.2-4.2,14.9-6.4,20.9-8c2-0.5,4-1.4,5.7-2.1c3.3-1.5,6.6-2.8,10.4-2.8c5.1,0,9.3,1.6,12.9,5c3.6,3.4,4.8,7.4,3.6,12.5
		c0,0.1,0,0.2,0,0.2c0.3,0,0.5,0.1,0.8,0.2C491.8,265,491.5,266.3,491.3,267.4z M582.1,315.4c-1.5,0.7-2.9,0.3-4-0.6
		c-0.7-0.6-1.5-1.3-2.1-2c-2.8-3.3-5.8-6.2-9.1-8.8c-2.3-1.9-4.5-3.9-6.3-6.3c-0.5-0.7-1.2-1.3-2-1.6c-5.6-2.2-11.3-4.5-17.2-5.6
		c-3-0.6-6.1-1.5-9-2.2c-1.9-0.5-3.6-1.4-4.8-3c-1.9-2.8-4.7-4.5-6.9-6.9c-1.7-1.9-2.1-4.1-2.2-6.4c-0.1-2.1,1.9-3.3,4-2.7
		c-0.2-1.6,0-2.9,0.2-4c0.2-1,0.1-1.2-0.2-1.8c-2.3-3.4-2.1-7.3-1.7-9.9c0.5-3.2,3.8-5.5,6.8-5.9c2.9-0.5,5.6,0.4,8,1.4
		c5,2.2,9.8,5.1,15.8,9.4c1.4,1,2.8,2.1,4.2,3.1c2.6,1.9,5,3.8,7.7,5.4c2.1,1.2,3.8,3.1,4.9,5.4l7.1,15l-3-3.7
		c0.3,0.9,0.6,1.7,0.9,2.6c1.3,4.6,3.1,8.7,5.6,12.6c1.1,1.8,2.1,3.6,3.1,5.4c1.3,2.3,1.9,4.9,2,7.5
		C583.7,313.3,583.6,314.6,582.1,315.4z"/>
	<path class="st2" d="M448.7,601.7c-1.9-1.3-3.6-2.7-5.2-4.2c-1.7-1.8-3.1-3.8-4.1-6.1c-0.5-1.2-1.2-1.4-2.2-0.8
		c-1.7,0.7-3.6,1.3-5.5,1.5c-3.1,0.4-6.2,1-9.2,1.4c-10.2,1.4-18.8-1.7-25.3-9.8c-1.5-1.8-2.9-2.9-5.3-2.4c-1.2,0.2-2.4,0-3.6-0.2
		c-4.2-0.6-8.4-1.5-12.4-2.5c-0.7-0.2-1.5-0.7-2.4-0.3c1.6,2.9,3.4,5.5,5.7,7.9c5.2,5.3,11,9.8,17.2,13.9c3.8,2.7,7.9,4.4,12.4,5
		c0.7,0.1,1.6,0.3,2.3,0.4c7.1,1.2,14.2,1.9,21.5,1.2c5.4-0.5,10.7-1.5,16-2.4c0.6-0.1,1.3-0.1,1.9-0.7
		C450.2,602.3,449.4,602.1,448.7,601.7z"/>
	<path class="st2" d="M358.5,576.8c-0.7-1.8-1.5-3.7-1.7-5.7c-0.2-1.7-1.1-2.8-2.3-3.7c-3.7-2.8-7.2-5.7-10-9.6
		c-4.8-6.6-8.6-13.7-11.4-21.5c-0.5-1.4-0.9-2.8-0.7-4.2c0.1-3.1,2-5.5,4.8-6.3c0,0-0.1-0.1-0.1-0.1l-0.2-0.3
		c-4.2-6.5-7.9-13.8-11.3-22.4c-0.6-1.6-1.3-3.1-1.9-4.7c-1.4-3.5-2.9-7-4.1-10.6c-0.1-0.2-0.3-0.5-0.6-0.7l-0.2-0.2c0,0,0,0-0.1,0
		l-0.8-0.4l-0.3-0.8c0-0.1-0.1-0.2-0.1-0.2c0.1,3.3-0.2,6.7-1,10.1c-0.2,1.1-0.3,2-0.2,3.1c0.7,6.1,1.5,12.2,2.1,18.3
		c1.9,17.4,7.5,33.5,17.3,48.1c1.8,2.8,3.9,5.2,6.3,7.5c2.8,2.5,5.4,5.3,8,8c0.7,0.7,1.5,1.3,2.7,1.2c2.1-0.2,3.8,0.7,5.2,2.3
		c0.8,0.8,1.5,1.8,2.1,2.9c1.7,2.7,3.8,4.9,5.8,7.2c0.3-0.3,0.1-0.5,0.1-0.6C363,588.1,360.9,582.5,358.5,576.8z"/>
	<path class="st2" d="M493,573.3c-1.5-2.5-1.6-5.1-0.3-7.5l-0.7-0.4c-0.6-0.4-1.3-0.9-1.8-1.4c-3.4-3-7.3-5.3-11.4-6.8
		c-2-0.7-4.4-1.6-6.7-3.1c-0.2,0.1-0.3,0.1-0.5,0.2c-1.2,0.5-2.4,0.9-3.3,1.6c-2.7,2.1-5.5,3.8-8.3,5.4c1.7,0.2,3.3,0.6,4.9,1.5
		c1.1,0.6,1.7,1.6,1.5,2.9c-0.2,1.2-1,2-2.1,2.3c-0.6,0.2-1.3,0.2-1.9,0.4c-3.6,1.1-7.1,2.4-8.8,6.3c-0.3,0.8-1,1.5-1.4,2.2
		c-1.2,1.8-1.2,1.8,0.4,3.1c4.4,3.4,8.8,6.6,13.6,9.3c1.2,0.6,2.3,1.4,3.8,1.2c0.7-0.1,1.5,0.2,2,0.7c1.4,1.3,3.1,1.5,4.9,1.7
		c3.3,0.3,6.7,0.1,10-0.3c4.7-0.5,9.3-1,14,0.1c0.2,0,0.5-0.1,0.7-0.1c0-0.2,0.1-0.4,0-0.5C498.1,586.2,496.5,579.4,493,573.3z"/>
	<path class="st2" d="M713.3,601.4c0.3-0.2,0.7-0.4,1.2-0.5l1.2-0.4l2.4-0.8c0.3-0.1,0.7-0.3,1.2-0.4l1.3-0.4l2.4-0.7l1.3-0.4
		c0.4-0.1,0.8-0.2,1.3-0.3l1.6-0.4c-2.4-5.3-4.7-10.8-6.9-16.3c-0.8-2-1.4-4-1.8-6.1c-1.4,4.1-2.9,8.3-4.5,12.4
		c-0.2,0.8-0.5,1.4-0.8,2.1c-0.2,0.3-0.3,0.7-0.5,1.1l-1.9,4.9c0,0.4-0.1,0.9-0.1,1.3c-0.1,1.3-0.2,2.5,0.2,3.8
		c-0.2,0.4-0.1,0.7,0.3,1c0.1,0.3,0.1,0.6,0.2,1c-0.1,0.1-0.1,0.2-0.1,0.3C711.8,602,712.5,601.7,713.3,601.4z"/>
	<path class="st2" d="M375.2,511.9c7.6,8.5,16.5,15.7,25.4,22.8c0.7,0.6,1.6,1.2,2.3,1.7c1.6,1.3,3.4,1.9,5.4,2.3
		c3.4,0.6,6.9,1.4,10.4,1.3c0.4-0.1,0.8-0.1,1.2,0.1c1.7,1.2,3.2,0.4,4.7-0.4c3-1.6,5.8-3.3,8.7-5c1.1-0.6,2-1.5,2.9-2.4
		c4.4-4.7,8.6-9.5,12.4-14.6c2.4-3.1,4.5-6.5,5.9-10.1c2-4.8,4.8-9.1,7.6-13.5c3.4-5.2,6.8-10.5,10.1-15.7
		c4.1-6.5,8.8-12.6,14.2-18.3c0.6-0.6,1.1-1.2,1.3-2c1-3.4,2.2-6.6,4.5-9.5c1.5-1.9,2.7-4.1,3.9-6.3c1.1-1.7,1.8-3.5,1.9-5.5
		c-0.2-0.1-0.3-0.1-0.3-0.1c-1.4,1-2.7,2-4,3c-6.8,5-13.4,10.1-18.2,17.2c-0.2,0.4-0.5,0.7-0.8,1.2c-5.7,7.2-11.6,14.4-15.9,22.6
		c-0.7,1.3-1.5,2.5-2.2,3.7c-1.9,3-3.9,5.8-6.7,8.1c-1.1,0.8-1.6,1.8-2,3.1c-1.3,4.1-2.9,8.1-4.7,12c-1.5,3.1-3.1,5.9-5.2,8.6
		c-1.7,2.2-3.8,4-6.3,5.1l-2.6,3.5c-0.3,0.5-0.7,0.8-1,1.1c-0.1,0.1-0.2,0.2-0.3,0.2c-0.4,0.4-0.8,0.7-1.3,1
		c-0.2,0.1-0.3,0.3-0.5,0.4l-0.2,0.1c-1.9,1.2-5.7,2.2-6.4,2.4c-0.2,0.1-0.6,0.2-1.2,0.3l-0.2,0l-7.9-0.1l-3.2-0.7
		c0,0-2.5-0.9-3.8-1.4c-1.4-0.6-2.5-1.4-3.5-2.2c-0.3-0.2-0.5-0.4-0.8-0.6c-4.3-3.4-7.8-6.9-10.5-10.9c-2-3-4.7-5.4-8.1-7.4
		c-2-1.1-3.6-2.5-5.3-3.9c-0.5-0.4-1-0.9-1.6-1.3c-0.7-0.6-1.3-1.2-1.9-1.8c-0.9-0.9-1.6-1.7-2.6-2.1l-0.1-0.1
		c-0.1,0-0.2-0.1-0.2-0.1c0.7,2,1.5,4,2.4,6.1l0.4,1.1l-1.2,0.6C371.8,507.8,373.4,510,375.2,511.9z"/>
	<path class="st2" d="M297.3,119.2c0.6-0.5,1.1-0.9,1.6-1.3c1.7-1.4,3.4-2.7,5-4.2l1-0.9c1.3-1.1,2.6-2.3,4.1-3.3l0.3-0.1
		c0.2-0.1,0.4-0.3,0.6-0.5l2.3-2.3c1-5.2,2.4-10.2,4.8-15.1c7.9-15.7,18.7-29,32.5-39.9c0.3-0.2,0.7-0.3,0.7-1
		c-0.7-0.2-1.5,0.1-2.2,0.3c-7.5,2.3-14.6,5.7-20.7,10.7c-6.6,5.5-13.1,11.2-19.7,16.8c-0.5,0.5-0.8,1.1-1,1.8
		c-0.4,6.1-2.7,11.6-5.5,16.9c-0.1,0.2-0.3,0.5-0.4,0.7l-3.7,9.8c-1,2.8-2,5.4-2.7,7.7l-1.3,4.1c-0.5,1.8-1,3.7-1.4,5.7
		C293.4,123.1,295.2,121,297.3,119.2z"/>
	<path class="st2" d="M626,494.2c-0.5,0.4-0.9,0.8-1.3,1.2c-0.2,0.2-0.3,0.4-0.5,0.6c-0.2,0.2-0.3,0.3-0.4,0.5l-0.5,0.7l-0.3,0
		l0,0.2l-0.9,0.7c-0.3,0.3-0.8,0.6-1.2,0.9c-0.1,0.1-0.1,0.1-0.2,0.2c-0.2,0.2-0.5,0.5-0.6,0.6l-0.5,0.9l-0.8,0.1l-0.2,0.8l-0.9,0.4
		l0,0c-0.1,0.1-0.2,0.2-0.4,0.2c-0.2,0.2-0.5,0.5-0.6,0.7l-0.2,0.8l-0.4,0.2l0.1,0.5l-0.1,0.5c0,0.1,0,0.3-0.1,0.4
		c0,0.3-0.1,0.7-0.2,1l0,0.2c1.8,1.4,3,3.6,3.5,6.3c0.3,2,0.2,3.8-0.3,5.7c-1.1,3.7-2.5,7.2-4.7,10.4c-0.8,1.1-1.7,2.1-2.7,3.1
		c-3.9,3.6-8.9,4.4-13.7,1.9c-2.5-1.3-4.7-3.1-6.4-5.3c-0.8-1.2-1.6-2.3-2.3-3.6c-1.3-2.3-3.1-4.1-5.4-5.3c-1.9-1-3.6-2.1-5.2-3.4
		c-3.1-2.3-5.2-5.3-6.2-9.1c-0.5-1.9-1.1-3.9-1.4-5.8c-1-4.8-2.4-9.2-4.6-13.6c-1-1.9-1.8-3.8-2.4-5.7c-1.8-5.5-4.9-10.2-8.8-14.3
		c-5.9-6.3-11.4-13-18-18.6c-3-2.7-5.8-5.4-9.2-7.5c-0.7-0.4-1.7-1-2.2-1.7c-1.7-2.2-4.1-2.7-6.9-3.4c0.5,3,1.3,5.7,3,8.1
		c4.4,6.2,8.3,12.5,13.3,18.2c1.5,1.6,2.8,3.5,3.8,5.4c1.2,2.1,2.4,3.9,3.8,5.8c8.7,12.2,16.5,24.9,21,39.3
		c2.1,6.5,5.2,12.6,8.7,18.6c6.1,10.1,15.2,15.1,26.6,16.8c1.1,0.1,2,0,2.9-0.7c2.1-1.8,4.5-3.1,7-4.1c4.9-2.1,8.6-5.5,11.6-9.8
		c2.7-3.7,4.9-7.5,7-11.5c3.1-5.6,4.8-11.6,5.5-18c0.5-3.9,0.8-7.8,1-11.7c0.1-3.4,0.7-6.6,1.5-9.8c-2,2.8-4.3,5.6-7.3,8.9
		C627.7,492.8,626.8,493.5,626,494.2z"/>
	<path class="st2" d="M674.5,80.5c4.3,1.8,8.3,4.3,11.8,7.5c2.1,1.9,4.1,3.9,6.1,6l4.1,4.3c8.6,2.7,15.6,7.9,20.8,15.5
		c0.3,0.3,0.5,0.6,0.7,1c0.1,0,0.1,0.1,0.3,0.2c0.7-0.4,0.7-1.2,1.1-1.7c1.6-2.8,4.5-4,7.5-3.4c2,0.4,3.8,1.2,5.3,2.4l-1.8-3.3
		l11.2,11.3c0.8,0.8,1.7,1.6,2.5,2.5c0.4,0.4,0.8,0.8,1.2,1.2c0.8,0.8,1.5,1.5,2.4,2c0.6,0.4,1.9,1.2,2.7,2.6c1.1,1.8,3,3,4.9,4.3
		c6.2,4.1,11.5,9.2,15.8,15.2c0.6,0.9,1.1,1.6,1.5,2.3l-2.5,1.6c0.1,0.2,0.3,0.4,0.4,0.5c0.3,0.4,0.6,1,1,1.4c0.8,1.4,2,2.5,3.3,3.7
		c6.9,6.2,11.9,13.6,15.4,22c2.8,6.5,2.8,13.5,2.4,20.5c-0.5,8.7-3.9,16.6-7.8,24.2c-1.2,2.2-2.4,4.5-3.7,6.7
		c-0.5,1-0.7,1.7-0.6,2.8c0.7,5.1,0.1,10-1.4,14.9c-1.8,5.8-3.8,11.6-6.3,17.1c-0.4,1.1-0.6,2.1-0.6,3.3c0.2,9.7-2.5,18.6-7.9,26.7
		c-3.3,5.1-6.4,10.3-10.7,14.7c-0.4,0.3-0.6,0.6-1,1.1c-5.9,8.5-13.6,15.2-21.4,21.9c-4.7,4-8.6,8.8-11.8,14.1
		c-3.7,6.4-6.8,13.1-10.1,19.5c-0.4,1-1,1.8-1.6,2.7c-0.8,1.2-2,1.9-3.5,2.2c-1.4,0.3-2.5,0.1-3.5-1c-1-1.1-2-2.1-3.3-2.8
		c-1.1-0.5-1.8-1.5-2.1-2.5c-1.4-5.2-4.1-9.9-5.3-15.1c-2-8.8-2.2-17.7-1.5-26.7c0.6-8.1,1.8-16,3.5-23.9c1-4.1,2-8.2,3.7-11.9
		c1.8-3.8,2.5-7.9,2.9-12c0.3-3.5,0.4-7.1,0.6-10.7c0.1-2.8-0.2-5.5-1.3-8.2c-3.4-8.6-3.3-17.3-2.3-26.2c0.2-2.1,0.4-4.2,0.6-6.4
		c0.2-1.7,0.7-3.2,2.4-3.8c1.8-0.6,3.2-0.1,4.5,1.1V197c0-0.7,0-1.3-0.1-1.8l-0.1-0.3l-0.2-0.1v-1.1c0-0.4-0.1-0.9-0.2-1.4l0,0
		l-0.2-1c-0.2-1.1-0.4-2.3-0.6-3.4c-0.2-1.1-0.4-2.1-0.6-3.2l-0.3-0.1v-0.7c-1.2,0.4-2.5,0.4-3.8,0c-2-0.6-3.6-1.9-5.1-3.4
		c-4.6-4.7-6.7-10.4-7.3-16.8c0-0.2,0-0.5,0-0.7l-0.9-0.5c-0.3-0.2-0.6-0.4-0.7-0.5l0,0l-0.2-0.2c-2-1.8-3.4-3.8-4.8-5.8
		c-0.7-1-1.4-1.9-2.1-2.8c-2.5-3.2-4.7-6.6-6.3-9.2c-0.9-1.5-2.3-2.8-4.4-4.1c-0.2-0.1-0.4-0.3-0.6-0.4c0,0,0,0,0,0
		c2,3.7,3.7,7.5,4.9,11.6c1.4,4.7,2.2,9.5,1.9,14.3c-0.1,1.1,0.1,2.1,0.4,3.1c3,8.1,5.1,16.3,6.4,24.8c1.6,11,2.2,22.2,2.9,33.4
		c0.4,7.2,0.6,14.3,0.5,21.6c-0.1,5.6-0.4,11.2-0.6,16.8c-0.5,16.3-0.8,32.5-1.7,48.8c-0.8,16.1-0.6,32.2,1.7,48.2
		c1.4,9.1,4.1,17.6,9.2,25.4c4.2,6.3,10.2,8.9,17.7,8.1c1.3-0.1,2-0.6,2.5-1.8c1.6-3.5,2.9-7,3.6-10.8c1-4.6,2.1-9.1,3.3-13.7
		c3.2-13,10-23.8,19.7-33c8-7.6,16.3-14.8,24.4-22.2c5.2-4.8,10-9.9,14.3-15.4c8.7-11,15-23.4,18.9-36.9c1.9-6.6,2.7-13.3,1.9-20.1
		c-0.3-3.2-0.4-6.5-0.1-9.8c0.4-5,1.2-10.1,1.6-15.2c0.6-7.5,3-14.9,4.8-22.2c1.5-5.8,3.5-11.6,5.3-17.4c0.3-1.3,0.8-2.5,0.7-3.9
		c-0.6-7.3-2.8-13.9-8.6-18.9c-2-1.6-3.9-3.3-5.8-5c-8.7-7.6-16.9-15.7-24.1-24.6c-4.9-5.9-10.3-11.5-15.8-16.9
		c-5.3-5.2-11.5-8.7-18.9-10.1c-1.6-0.3-3.3-0.6-4.9-1c-5.6-1.2-11.4-1.8-16.9-3.5c-11.2-3.4-21.2-8.8-30.6-15.6
		c-7-5.1-14.1-10.2-21.5-14.9c-4.9-3.1-10.1-5.5-15.6-7.1c-10.9-3.2-22.2-3.4-33.5-2.1c-10.1,1.2-19.9,1.6-29.4-2.5
		c-0.5-0.2-1.2-0.4-1.8-0.3c-4.1,1-8.1,0-11.9-1.6c-8.6-3.7-17.6-4.9-26.9-4.9c-9.7,0-19.1,1.2-28.5,3.6c-9,2.2-18.1,3.4-27.3,3
		c-8.1-0.3-16-1.2-24.1-1.3c-2,0-3.9,0-5.9,0.2c-10.9,1.5-21.6,4.4-32.2,7.3c-6.1,1.7-12.1,2.4-18.4,0.8c-1.4-0.3-3-0.4-4.5-0.5
		c-3.5-0.2-7-0.5-10.5-1.1c-2.2-0.3-4.4-0.7-6.6-1.1c-1.5-0.3-1.6-0.2-1.5,1.2c0.3,3.8-0.7,7.3-2.9,10.4
		c-5.7,8.2-12.2,15.5-21.1,20.2c-3.9,2-7.8,4.2-11.7,6.3l-1.1,2.6c-2,4.7-4.9,9.4-8.8,14.4c-1,1.3-2.1,2.6-3.1,3.8
		c-2.1,2.5-4.1,4.8-5.7,7.5c-1.4,2.1-2.1,4-2.2,5.9c-0.2,2.5-0.7,5-1.1,7.4c-0.1,0.7-0.3,1.3-0.4,2c0.6-1.1,1.3-2.2,1.9-3.2
		c1-1.6,2-3.2,3.8-3.8c1.1-0.3,1.6-1,2.1-1.8c0.7-1.3,1.6-2.5,2.7-3.6c0.5-0.5,1.1-0.8,1.7-0.3c0.6,0.4,0.3,1,0.1,1.5
		c-0.7,1.4-1.5,2.8-2.1,4.2c-6.5,14-9.3,28.8-9.3,44.2c-0.1,1.3-0.1,2.5,0.3,3.8c3.8-1.8,4.2-2.2,5.7-5.6c2.8-5.9,5.1-12,7.6-18.1
		c3.4-8.1,7.6-15.8,11.7-23.6c2.5-5,6.2-9.5,10.2-13.5c2.9-2.8,5.5-5.7,8.1-8.8c3.1-3.7,6.5-7.1,10.2-10.1c1.3-1,2.3-2.1,3.3-3.4
		c8.3-11,19-19,31.8-24.2c5.4-2.2,11-3.4,16.8-4.7c1-0.2,2-0.3,3.1-0.3c1.4,0,2.1,0.5,2.1,1.8c0,1.4,0.7,2,1.6,2.8
		c3.7,3.2,5.6,7.1,5.3,12c0,0.5-0.3,1.2,0.4,1.7c2-1.1,4-2.3,5.9-3.7c3.7-2.7,7.6-4.9,11.9-6.7c1.3-0.4,2.4-1.1,3.7-1
		c1.7,0,3.3,0,5-0.4c1.5-0.3,3.2-0.1,3.9,1.5c0.6,1.5,1.6,1.5,2.9,1.2c0.7-0.2,1.6-0.4,2.3-0.5c1.1-0.2,1.7-0.6,1.9-1.8
		c0.1-1,0.6-1.9,1.3-2.8c2.9-4.1,7.8-3.8,10.1,0.7c2.2,4.7,1.4,10.3-2.2,14c-1.6,1.7-3.5,2.8-5.6,3.6c-3.1,1.2-6.2,2-9.5,2.4
		c-3.3,0.4-6.6,0.3-10,0.2c-1.6-0.1-2.7,0.3-3.8,1.5c-5.4,5.7-11.7,10.3-18.9,13.6c-7.3,3.3-14.7,6.6-20.9,11.9
		c-1.8,1.6-4,2.7-6.5,3.4c-1.6,0.4-3.2,0.5-4.8,0.2c-1.8-0.4-3.3-1.9-3.4-3.5c0-0.5,0-1,0.2-1.3c-1.3,0.3-2.6,0.8-3.9,1.3l-0.9,0.4
		c-2.7,1.1-5.4,2.3-8,3.5c-1.8,0.8-3.6,1.7-5.4,2.4c-3,1.3-5.5,3.4-8.2,5.6c-0.8,0.7-1.6,1.3-2.4,1.9c-0.8,0.7-1.7,1.3-2.5,2
		c-1.5,1.2-3.1,2.4-4.7,3.6c-2.9,2.2-5.2,5-7.7,7.9l-0.6,0.7c-3.3,3.9-6.2,7.4-7.8,11.6c-0.7,1.8-2.1,3-4.1,3.5l-0.5,0.1
		c-0.2,0.9-0.4,1.9-0.6,2.8c-0.5,3.7,0.5,6.6,3,9.1c0.3,0.2,0.6,0.5,0.8,0.8c2.7,3.2,3.1,6.2,1.2,9.8c-1,1.9-2.3,3.7-3.7,5.3
		c-3.8,4.4-6.2,9.5-8,14.9c-0.3,0.7-0.4,1.5-0.3,2.3c0.5,3.4,0.3,6.7-0.5,10c-0.4,1.5-0.8,2.9-1.2,4.4c0.2-0.2,0.4-0.4,0.6-0.6
		c1.3-1.2,3-1.7,5-1.6l0.3,0c0.4-0.8,0.9-1.6,1.4-2.3c3.2-4.2,5.7-8.9,7.8-13.9c0.6-1.6,1.3-3.1,2.1-4.6l-0.4-0.8l-0.7-0.4l-0.1-1.3
		c-0.1-2.4,0.1-5.9,2.4-8.7c0.3-0.4,0.6-0.8,0.9-1.2c0.8-1.1,1.6-2.2,2.7-3.3c1-1.1,1.8-2.4,2.8-4.4c0.8-1.6,1.8-3.2,3.1-5.3
		l3.1-4.6c0.5-1.4,1-2.7,1.7-4.1c0.2-0.3,0.5-0.6,0.8-0.8c3-2.2,5.9-4.6,9.1-6.6c3.7-2.3,7.6-4.2,12-5.1c0.2,0,0.4-0.1,0.6-0.1
		l2.4-3.3c0.6-0.8,1.3-1.6,2.3-2.4l0.1-0.1c0.1-0.1,0.4-0.5,0.6-0.8c0.3-0.5,0.6-1,1-1.5c4.4-4.9,10-7.8,17.3-8.8l0.1,0
		c0.8-0.1,1.1-0.2,1.3-0.5c1.8-2,4-2.7,5.8-3.4c2.3-0.9,4.4-1.5,6.3-1.8c2.4-0.4,4.6-1.7,6.9-3.2c2.1-1.3,4.2-2.7,6.3-4
		c2.1-1.3,4.2-2.7,6.2-4c1-0.7,2-1.1,2.9-1.4l9.2-3.4l-1,1c2-1,4.1-1.7,6.4-2.1c1.7-0.3,3.2-0.8,4.8-1.5c2-0.8,4.1-1.6,6.4-1.8
		c2.8-0.2,5.2,0.5,7,2.2l0.5-0.3c1.6-0.9,3.2-1.6,4.8-2c0.7-0.2,1.5-0.4,2.2-0.5c0.3-0.1,0.7-0.1,1-0.2c2.8-0.6,4.7-2.1,5.8-4.4
		c1.1-2.2,2.2-4.4,3.5-6.5c1-1.4,2.2-2.5,3.1-3.3c1.2-1,2.8-1.3,4.5-0.8c3.6,0.9,6.1,3.4,7.7,7.6c1.4,3.6,2,7.5,1.9,11.9
		c3.7-2.6,8.2-2.4,11.8,0.8c0.8,0.8,1.7,1.8,2.5,2.8c3.2,3.9,6.9,7.2,11,10.1c2.4,1.7,5,3.4,7.4,5.2c5.5,4,9.3,9.1,11.2,15.7
		c0.4,1.7,1.3,2.7,3,2.9c1,0.1,1.8,0.3,2.8,0.6c2.1,0.6,3.7,0.6,5.1-1.6c1.1-1.8,3.2-2.3,5.3-2c1.4,0.2,2.7,0.6,3.8,1.3
		c2.7,1.5,3.6,3.4,3.1,6.4c-0.2,1-0.3,1.9,0,2.9c0.3,1.3,1,2.1,2.1,2.8c2.7,1.4,5,3.1,6.7,5.6c0.5,0.7,1.2,1,1.9,1.4l1.3-1.1
		c0.6-0.5,0.9-0.8,1.2-1.2l0.1-0.1c1.8-2.3,4.1-3.6,6.3-4.6c1.9-0.8,2.9-2,3.2-3.7l0.3-2c-2.9-2.1-5.4-4.7-7-8.1
		c-1.8-3.7-0.9-6.8,1.9-8.6c0-0.1-0.1-0.1-0.1-0.2c-0.1-0.2-0.2-0.4-0.4-0.7c-0.6-1-1.1-1.4-2.3-1.9c-2.7-0.9-5.5-1.4-8.5-1.8
		c-2-0.3-4.1-0.6-6.2-1.1c-1.8-0.4-3.6-0.4-5.5-0.3c-0.7,0-1.4,0-2.1,0c-4,0-7.7-1.3-11.1-3.8l0,0c-5.4-4.1-9.9-9.2-14-16.2
		c-0.4-0.7-0.7-1.3-0.8-2c-5.5-1.1-10.9-2.7-15.9-5.5c-2.7-1.5-5.1-3-6.3-5.9c-0.2-0.5-0.5-0.7-1-1.1c-5.4-3.7-7.8-9.2-8.9-15.5
		c-0.2-1.2-0.2-2.2-0.3-3.1c0-2.3,0.1-4.4,0.8-6.4c1.8-4.8,6.6-5.7,10.1-2.1c1.1,1.2,2,2.4,3,3.7c1.2,1.5,2.3,3,3.8,4.2
		c1.6,1.4,3.3,2.2,5.4,2.2c0.7,0,1.6,0.1,2.3,0.2c6.1,0.4,10.7,3,14.5,7l1.8-0.4c1.2-0.3,2.6-0.2,4.2,0.2l0.1,0
		c1.1,0.4,1.9,0.8,2.6,1.3l0.2,0.2c1.5,1.5,3.3,2.6,5.2,3.7c1.7,1,3.5,2,5.1,3.4c0.5,0.4,0.9,0.8,1.4,1.2c0.9,0.7,1.8,1.5,2.7,2.3
		c0.1,0.1,0.1,0.1,0.1,0.1c1.6-0.5,3.1-0.5,4.6-0.5c3.1-0.1,5.2-1.3,6.8-3.9c0.8-1.4,2.2-2.5,4-3.1l0.4-0.2
		c-0.7-0.9-1.5-1.7-2.5-2.4c-1.2-0.8-2.2-1.6-3.4-2.3c-6.1-3.8-12.2-7.5-18.4-11.3c-2.9-1.7-5.9-2.8-9.3-1.8
		c-1.1,0.3-2.2-0.1-2.9-1.2c-0.6-1.1-0.4-2.2,0.2-3.2c0.6-1.1,1.7-1.7,2.8-2.2c2-1,4.1-1.4,6.3-1.4c1.8,0,3.6-0.3,5.4-0.7
		c5.9-1.5,11.8-2,17.8-1.3c3.5,0.4,6.8,1.7,9.5,4.1c4.4,4,7.6,8.8,8.8,14.8c0.3,2,1.1,3.5,2.7,4.9c5.6,4.9,10.2,10.5,14,16.6
		c0.1-2.1,0.4-4.4,0.8-6.8c0.4-2.3,0.8-4.5,0.8-6.7c0-2.2-0.2-4.1-1-6.1l-0.1-0.3c-1.3-2.9-2.7-6.2-2.7-10l0-1.4
		c0.1-1.5,0.5-2.9,1.2-4.2l1.4-2.9l1.1,1.3c2.8-1.5,5.6-0.7,7.9,0.3c2,0.8,3.8,2.1,5.5,3.3c3.9,3,8.5,5.2,14.5,7.1
		C668.6,78.2,671.7,79.3,674.5,80.5z"/>
	<path class="st2" d="M852.6,648c-1.9-3.9-4.4-7.6-7.1-11c-2.8-3.4-5.9-6.5-9.3-9.2c-3.4-2.8-7.1-5.1-11-7l-5.8-2.5
		c-0.6-0.6-1.3-1.2-1.9-1.7c-1.5-1.2-3-2.3-4.7-3.3c-6.9-3.8-14.6-5.9-22.3-7.2c-3.8-0.6-7.8-1.1-11.7-1.3c-2.7-0.1-5.2,0-7.8-0.4
		c-2.9-0.4-5.4-1.7-8.3-1.9c-1.1-0.1-2.2,0-3.3,0.1c-8.9,1-18,2.2-26.6,4.9c-4.4,1.3-8.6,3-12.6,5c-3.8,2-7.3,4.8-11.4,6.4
		c-1,0.3-1.9,0.7-2.9,1.2c-20.7,8.9-39.2,26.3-46.4,48c1.9-0.4,4.1,0.3,5.6-1c0.6-0.5,1-1.2,1.3-1.9c3.3-7.1,6.6-14.7,12.2-20.2
		c6.9-6.9,17.7-9.6,25.9-3.3v-0.1l0.1,0.1c0.5,0.3,1,0.7,1.4,1.2c0.1,0.1,0.1,0.1,0.1,0.1c0.1,0.1,0.3,0.3,0.4,0.4
		c0.5,0.4,1.1,1.1,1.5,1.6c0.1,0.1,0.1,0.2,0.2,0.3c-0.7,0-1.4,0-2.1,0.1c-1.5,0.2-3,0.5-4.4,1.1c-2.9,1.1-5.4,2.5-7.9,4.2
		c-0.6,0.4-1.2,0.8-1.8,1.3l-0.8,0.6l-1.6,1.3l-0.8,0.6c0,0,0.8-0.2,1-0.2c4.2-1.2,8.6-1.2,12.6,0.7c0.3,0.2,0.6,0.3,1,0.5
		c0.3,0.1,0.6,0.3,1,0.5c0.5,0.3,1.2,0.8,1.7,1.3c1.2,1,2.1,2,3,3.2c1,1.3,1.7,2.7,2.4,4.1c-0.1,0.4-0.2,0.8-0.3,1.3
		c-0.1,0.2-0.1,0.5-0.2,0.7v0.1c-0.1,0.4-0.2,1-0.2,1.4c0,0.1,0,0.2,0,0.3c0.1,0.1,0.1,0.2,0.1,0.3c0,0.2,0.1,0.4,0.1,0.6
		c0.2,0.7,0.3,1.6,0.5,2.3c0.2,0.8,0.4,1.8,0.6,2.8c1.2,1.9,2.3,3.8,3.1,5.9c0.1,0.2,0.1,0.4,0.2,0.6c0,0.1,0,0.1,0,0.2
		c0,0.2,0.1,0.4,0.1,0.6c0,0.2,0.1,0.4,0.1,0.6c0,0.1,0,0.1,0,0.2c0,0.2,0.1,0.3,0.1,0.5v0.1c0.1,0.2,0.1,0.4,0.1,0.6
		c0,0.1,0,0.1,0,0.2c0,0.1,0,0.3,0,0.4c0,0.1,0,0.2,0,0.3c0,0.1,0,0.3,0,0.4c0,0.1,0,0.2,0,0.3s0,0.2,0,0.3c0,0.2,0,0.4,0,0.6v0.1
		c0,0.1,0,0.3,0,0.4c0,0.3,0,0.6,0,1c0.1,0.1,0.2,0.3,0.3,0.4c0.6,0.7,1.3,1.5,1.9,2.2c0.3,0.3,0.6,0.6,1,1c2.7,2.2,5.4,4.4,8.9,5.2
		c5.5,1.2,11.2-0.5,16.8-0.1c1.1,0.1,2.2,0.3,3.2-0.1c2-0.8,3.2-3.9,4.1-5.6c1.6-2.7,2.9-5.4,3.9-8.3c2-5.4,3.3-11.2,3.7-16.9
		c0.7-9.1-1-18.3-4.6-26.7c-1.8-4.1-4-8.1-6.7-11.8c-2.8-3.7-5.7-7.1-9.1-10.2c-0.4-0.4-0.8-0.7-1.3-1.2l-2.2-1.9h0.1h0.2l0.4,0.1
		l0.8,0.2l1.3,0.3l0.4,0.1l0.4,0.1l0.8,0.2c2.2,0.7,4.4,1.6,6.4,2.7c18.9,9.9,27.1,29.9,28.3,50c0,0.1,0,0.3,0,0.4
		c0,0.6,0,1.2,0,1.8c-0.1,0.5-0.1,1.2-0.1,1.7c0,0.5-0.1,1.1-0.1,1.6c0,0.1,0,0.1,0,0.2c-0.1,0.3-0.1,0.7-0.2,1.1
		c0,0.3-0.1,0.7-0.2,1.1c0,0.2-0.1,0.5-0.1,0.7c-0.5,3.4-1.7,6.7-2.8,9.9c-1.2,3.4-3.1,6.7-1.7,10.3c3,7.5,9.7,10,17.1,11.2
		c1,0.2,2,0.3,3,0.4c1.3,0.2,2.4,0.3,3.7,0.4c1.4,0.1,2.9,0.2,4.2,0.4c0.3,0.1,0.5,0.1,0.8,0.1c0.2,0.1,0.5,0.1,0.7,0.1
		c0.4,0,1,0,1.5,0v-0.1c0.6-2.9,2.2-5.4,3.5-8c6.3-12.1,8.6-26.6,6.7-40.4c-1.8-12.9-9-24.6-18-33.8c-0.8-0.8-1.9-2-1.7-3.3
		c3.2,0.8,6.6,3.5,9.3,5.2c3.4,2.1,6.7,4.4,9.8,6.9c5.6,4.7,10.8,10.7,12,18.2c2.2,14.2,6.2,15.1,4.2,29.4c-0.5,3.8-2.9,7.2-3.6,11
		c-1.1,5.3-1.4,10.3-3.4,15.4c-0.2,0.3-0.3,0.6-0.4,1c-0.1,0.3-0.3,3-1,2.8c2.7,0.8,15,3.3,15.6-1.2l0.3-2.4l3.1-17.1
		c3-16.9,3.4-33.7-4.2-49.5c-1.6-3.4-4.5-9.8-6.6-11.8c0.2,0.2,0.5,0.5,0.7,0.7c4.2,3.9,8.2,7.6,11.3,12.6
		c3.7,5.7,6.8,12.2,9.2,18.6c0.2,0.4,0.3,1,0.5,1.5c0.7,2,1.3,4.1,1.7,6.3c1,4.2,1.4,8.5,1.4,12.7c-0.1,4.2-0.5,8.5-1.5,12.6
		c-0.3,1.3-0.6,2.4-1.1,3.7c0.3-0.1,0.7-0.2,1.1-0.3c1.1-0.4,2-1.2,2.8-2s1.4-1.8,1.9-2.8c0.5-1,1-2,1.3-3.1
		c0.1-0.5,0.3-1.1,0.4-1.6C860.1,676.5,858.8,660.8,852.6,648z"/>
	<path class="st2" d="M282.1,618.8c-1-0.3-1.9-0.7-2.9-1.2c-4-1.6-7.4-4.4-11.4-6.4c-4-2-8.3-3.7-12.6-5c-8.6-2.7-17.6-3.9-26.6-4.9
		c-1.1-0.1-2.2-0.2-3.3-0.1c-2.9,0.2-5.5,1.5-8.3,1.9c-2.5,0.4-5.2,0.3-7.8,0.4c-3.9,0.2-7.9,0.6-11.7,1.3
		c-7.8,1.3-15.4,3.4-22.3,7.2c-1.7,0.8-3.2,2-4.7,3.3c-0.6,0.6-1.3,1.2-1.9,1.7l-5.8,2.5c-3.9,1.9-7.6,4.2-11,7
		c-3.4,2.8-6.6,5.8-9.3,9.2c-2.8,3.4-5.1,7.1-7.1,11c-6.7,13.3-8.1,29-4.1,43.3c0.1,0.5,0.2,1.1,0.4,1.6c0.3,1.1,0.7,2.1,1.3,3.1
		c0.5,1,1.2,1.9,1.9,2.8c0.7,0.8,1.7,1.6,2.8,2c0.3,0.1,0.6,0.2,1.1,0.3c-0.4-1.2-0.7-2.4-1.1-3.7c-1-4.1-1.4-8.4-1.5-12.6
		c0.1-4.2,0.5-8.5,1.4-12.7c0.4-2.1,1.1-4.2,1.7-6.3c0.2-0.4,0.3-1,0.5-1.5c2.4-6.4,5.6-12.9,9.2-18.6c3.2-4.9,7.1-8.7,11.3-12.6
		c0.2-0.3,0.5-0.5,0.7-0.7c-2.1,2-5,8.4-6.6,11.8c-7.6,15.7-7.2,32.6-4.2,49.5l3.1,17.1l0.3,2.4c0.6,4.2,11.7,2.3,15.1,1.3
		c0.2-0.1,0.4-0.1,0.5-0.2c-0.5,0.2-0.7-1.2-0.8-2.1c0-0.3-0.1-0.6-0.1-0.7c-0.1-0.3-0.3-0.6-0.4-1c-2-5.1-2.3-10.1-3.4-15.4
		c-0.7-3.7-3.1-7.2-3.6-11c-1.9-14.3,2-15.2,4.2-29.4c1.2-7.4,6.4-13.5,12-18.2c3.1-2.5,6.4-4.8,9.8-6.9c2.8-1.7,6.2-4.4,9.3-5.2
		c0.1,1.3-0.8,2.4-1.7,3.3c-8.9,9.1-16.1,20.9-18,33.8c-1.9,13.8,0.4,28.3,6.7,40.4c1.4,2.5,2.9,5.1,3.5,8v0.1c0.4,0,1,0,1.5,0
		c0.2-0.1,0.5-0.1,0.7-0.1c0.3-0.1,0.5-0.1,0.8-0.1c1.4-0.1,2.9-0.3,4.2-0.4c1.3-0.1,2.4-0.2,3.7-0.4c1-0.1,2-0.3,3-0.4
		c7.3-1.2,14.1-3.5,17.1-11.2c1.4-3.6-0.5-6.9-1.7-10.3c-1.1-3.2-2.2-6.5-2.8-9.9c0-0.2-0.1-0.5-0.1-0.7c-0.1-0.3-0.2-0.7-0.2-1.1
		c-0.1-0.3-0.1-0.7-0.2-1.1c0-0.1,0-0.1,0-0.2c0-0.5-0.1-1.1-0.1-1.6c-0.1-0.5-0.1-1.2-0.1-1.7c0-0.6,0-1.2,0-1.8c0-0.1,0-0.3,0-0.4
		c1.2-20.2,9.3-40.2,28.3-50c2-1.1,4.1-2,6.4-2.7l0.8-0.2l0.4-0.1l0.4-0.1l1.3-0.3l0.8-0.2l0.4-0.1h0.2h0.1l-2.2,1.9
		c-0.4,0.4-0.8,0.7-1.3,1.2c-3.4,3.1-6.5,6.5-9.1,10.2c-2.7,3.6-4.9,7.6-6.7,11.8c-3.6,8.4-5.2,17.5-4.6,26.7
		c0.4,5.7,1.7,11.5,3.7,16.9c1.1,2.9,2.4,5.6,3.9,8.3c1.1,1.8,2.2,4.9,4.1,5.6c1,0.3,2.1,0.2,3.2,0.1c5.6-0.4,11.4,1.4,16.8,0.1
		c3.5-0.7,6.3-2.9,8.9-5.2c0.3-0.3,0.6-0.6,1-1c0.6-0.7,1.3-1.5,1.9-2.2c0.1-0.1,0.2-0.3,0.3-0.4c0-0.3,0-0.6,0-1c0-0.1,0-0.3,0-0.4
		v-0.1c0-0.2,0-0.4,0-0.6c0-0.1,0-0.2,0-0.3s0-0.2,0-0.3c0-0.1,0-0.3,0-0.4s0-0.2,0-0.3s0-0.3,0-0.4s0-0.1,0-0.2
		c0-0.2,0.1-0.4,0.1-0.6v-0.1c0-0.2,0.1-0.3,0.1-0.5c0-0.1,0-0.1,0-0.2c0-0.2,0.1-0.4,0.1-0.6s0-0.4,0.1-0.6c0-0.1,0-0.1,0-0.2
		c0.1-0.2,0.1-0.4,0.2-0.6c0.7-2.1,1.9-4,3.1-5.9c0.2-0.8,0.4-1.8,0.6-2.8c0.2-0.5,0.3-1.1,0.4-1.7c0,0,0,0,0,0
		c0-0.2,0.1-0.4,0.1-0.6c0-0.2,0.1-0.4,0.1-0.6c0.1-0.1,0.1-0.2,0.1-0.3s0-0.2,0-0.3c-0.1-0.4-0.1-1-0.2-1.4v-0.1
		c-0.1-0.2-0.1-0.5-0.2-0.7c-0.1-0.4-0.2-0.8-0.3-1.3c0.6-1.4,1.5-2.9,2.4-4.1c1-1.2,1.9-2.2,3-3.2c0.5-0.4,1.1-0.8,1.7-1.3
		c0.3-0.2,0.6-0.3,1-0.5c0.3-0.2,0.6-0.3,1-0.5c4-1.9,8.4-1.9,12.6-0.7c0.1,0,1,0.2,1,0.2l-0.8-0.6l-1.6-1.3l-0.8-0.6
		c-0.6-0.4-1.2-0.8-1.8-1.3c-2.4-1.7-5.1-3.2-7.9-4.2c-1.4-0.5-2.9-0.8-4.4-1.1c-0.7-0.1-1.4-0.1-2.1-0.1c0-0.1,0.1-0.2,0.2-0.3
		c0.4-0.5,1-1.1,1.5-1.6c0.1-0.2,0.3-0.3,0.4-0.4c0.1-0.1,0.1-0.1,0.1-0.1c0.4-0.4,0.8-0.7,1.4-1.2l0.1-0.1v0.1
		c8.1-6.3,19-3.5,25.9,3.3c5.6,5.5,8.9,13,12.2,20.2c0.3,0.7,0.6,1.4,1.3,1.9c1.5,1.3,3.7,0.5,5.6,1
		C320.9,645.7,302.4,628.3,282.1,618.8z M273.3,615.3c0.1,0,0.1,0,0.1,0.1L273.3,615.3z"/>
</g>
<g>
	<path class="st3" d="M347.6,218.1c0-0.1,0.1-0.1,0.1-0.2l-0.3,0c-1.9-0.1-3.6,0.4-5,1.6c-0.2,0.2-0.4,0.4-0.6,0.6
		c-0.1,0.6-0.3,1.1-0.4,1.7c-0.2,0.7-0.5,1.4-0.2,2.1c0.5,1.2,1,2.3,1.2,3.6c0.3,1.6,0.5,3.3,1,4.9c0.5,1.8,1.5,3.3,3.5,3.8
		c0.8,0.2,1.7,0.6,2.3,1.3c1,1,2.1,1.5,3.4,2c3.4,1.3,5.6,3.7,6.8,7c0.3,1.1,0.6,2,1.1,3c1.6,3.9,3.2,8,6.1,11
		c3.8,4.1,8.5,7.4,13.3,10.5c1.8,1.3,3.7,1.3,5.6-0.3c2.4-2,4.5-4.5,7.8-6.1c-1.1-0.6-1.7-1-2.3-1.4c-1.3-0.8-2.4-1.8-3-3.3
		c-0.4-1.3-0.2-2.4,0.6-3.4c0.8-0.8,1.8-0.8,2.9-0.4c0.5,0.2,1.1,0.3,1.6,0.4c4.8,1.1,9.7,1.9,14.7,0.7c2.2-0.5,4.5-1.5,6.7-1.7
		c2.2-0.2,3.9-1.1,5.5-2.4c1.9-1.6,3.9-3,5.9-4.5c4.7-3.6,8.8-7.9,12.4-12.5c2.4-3.1,3.2-6.7,2.4-10.6c-0.4-1.9-0.8-3.7-1.5-5.5
		c-0.5-1.5-0.8-3-0.8-4.5c-0.1-2.2,0.7-3.2,3-3.1c1.8,0.1,3.5,0.3,5.2,0.8c2.2,0.5,3.7,1.8,4.2,4c0.3,1.7,1.3,2.7,3,2.9
		c3.4,0.3,6.5,1.6,9.6,2.9c0.4,0.1,0.9,0.3,1.3,0.4c0.2,0.1,0.5,0.1,0.7,0.2c0.3,0.1,0.6,0.2,1,0.3v-1c0.1-0.2,0.1-0.4,0.1-0.7
		l-0.1-0.5c-0.1-0.5-0.2-1-0.3-1.4c-0.1-0.5-0.2-1-0.3-1.5c0-0.2-0.1-0.4-0.1-0.4c0,0,0.1-0.1,0.2-0.1l0.1-0.1
		c1.5-1.3,2.9-2.6,4.2-4l0.9-0.9c1.8-1.8,4-3.4,6.7-5.1c0.1-0.1,0.2-0.1,0.2-0.1l0,0c2.9,1.8,5.9,3.6,9,5.3c0.7,0.4,0.8,0.8,0.9,1.4
		c0,1,0.2,1.9,0.6,2.9l0.1,0.1c1.8,3.6,3.8,7.3,6.3,10.8c0.6,0.8,0.8,1.5,0.7,2.5l-0.1,1.2l0.3,0.2l0.1,0.4c0.3,0.9,0.3,1.9,0.2,3
		c0,0.4,0,0.8,0,1.1l0,0.7c0.2,3,2.9,6.5,5.7,7.2c3.7,1.1,8.5-0.5,10.8-3.6c1.6-2.1,2.3-4.5,2.1-7.4l-0.1-1.1l-0.2-0.1
		c-0.1-0.6-0.3-1.1-0.4-1.6c-0.1-0.3-0.2-0.5-0.2-0.7c0-0.3-0.1-0.5-0.1-0.7v-0.6l-0.4-0.5c-0.2-0.2-0.2-0.3,0-0.5l0.4-0.7l-0.1-0.8
		c0-0.3,0.2-1,0.4-1.5c1.3-3.5,4-6.4,8.5-9c2.6-1.6,4.8-1.7,7.3-0.4l0.3,0.2c0.7,0.4,1.6,0.8,2.6,1c0,0.1,0,0.3,0,0.4
		c-0.1,0.8-0.1,1.5-0.1,2.2c0,1.5,0.1,2.8,0.3,4.4c0.2,0.9,0.5,1.8,0.9,2.6l0.7,1.1c0.2-1.1,0.7-2.1,1.5-3c0.1-0.1,0.2-0.3,0.3-0.4
		c1.1-1.2,2.5-1.9,3.8-2.9c3-2.3,6.6-3.8,8.3-7.6c1-2,3.4-1.9,4.8-0.2c0.8,1,1.2,2.2,1.3,3.5c0.1,1,0.2,2,0.2,3.1
		c0.1,2.1,0.6,4.2,1.7,6.2c0.4,0.8,0.8,1.7,1.9,2c1,0.3,1.6,1.1,1.9,2c0.7,1.7,1.6,3.3,1.6,5.2c-0.1,1.4,0.5,2.7,1.2,3.8
		c1.7,3.3,4.7,5.5,7.3,8.1c0.2,0.1,0.4,0.3,0.6,0.3c1.6-0.4,3.1,0.6,4.5,0.5c2-0.1,3.7,0.7,5.4,1.5c3.4,1.5,6.6,3.1,10.4,3.4
		c2.9,0.2,5.2,3,5.5,5.8c0.3,3.2-0.8,5.7-3.5,7.6c-0.5,0.4-1.5,0.5-1.8,1.4c0.3,0.8,1.2,1,1.7,1.3c1.8,1.2,3.7,2.1,4.8,4.1
		c1.2,2.2,3.3,3.3,5.8,3.6c3.5,0.5,7.1,1.2,10.6,1.7c3.4,0.5,6.7,0.3,10-0.6c0.7-0.2,1.3-0.5,1.8-1.1c2.5-2.9,5.3-5.3,8.3-7.6
		c1.5-1.3,2.7-2.7,3.5-4.5c1.2-2.4,2.3-4.9,3.5-7.3c1-2,1.7-4,2.2-6.3c1.3-5.4,2.1-10.9,3-16.5c0.1-0.5-0.1-1.2,0.7-1.3
		c0.3,1,0.2,1.9,0.2,2.9c-0.1,2.9-0.2,5.6-0.5,8.4c-0.5,5.4-0.5,10.9-1.4,16.3c-0.7,4.9-1.3,9.9-4,14.1c-1.4,2.2-1.4,4.5-0.8,6.8
		c0.2,1.2,0.5,2.3,0.3,3.5c-0.6,3.5-0.1,7,0.2,10.5c0.3,3.4,0.5,6.9,0,10.3c-0.5,3.8-2,7.3-3.8,10.7c-1.5,2.7-2.2,5.4-1.3,8.5
		c0.3,1.1,0.4,2.1,0,3.1c-0.5,1.2-0.1,2.1,0.5,3.1c2.4,3.6,4.2,7.5,5.5,11.7c2.2,7.1,4,14.2,5,21.7c0.5,4.4,1.8,8.3,4.6,11.7
		c1.2,1.5,2.1,3.2,3.2,4.8c0.3,0.4,0.4,1.2,1.2,1.4c0.5-0.6,0.5-1.4,0.7-2c1.2-4.8,2.1-9.6,2.8-14.3c0.6-5,1-10.1,1-15.1
		c0.1-4.4,0-8.7,1.1-12.9c1.1-4.6,1.3-9.1,1.4-13.7c0-0.2,0-0.4,0-0.5c0.5-6.8,0.2-13.6-0.5-20.3c-0.6-6.3-1.5-12.5-1.5-18.8
		c-0.1-1.9,0.1-3.9,0.7-5.8c1.7-4.8,3.4-9.6,5.1-14.2c1.8-5.1,1.8-10.3-0.3-15.4c-0.5-1.2-1.3-2.2-1.9-3.3c-0.5-0.8-1.1-1.7-0.3-2.7
		c0.5-0.6,0.1-1.1-0.1-1.7c-1-2.5-0.3-4.9,1.2-7c0.2-0.4,0.6-0.7,1.2-0.6c1.2,0.3,1.2-0.5,1.4-1.2c0.3-1,0.2-1.9,0.2-2.9
		c-0.2-4.1-0.4-8.3-0.5-12.4c0-1.1-0.3-2.1-0.7-3.2c-1.4-3.4-2.9-6.9-4.1-10.4c-1.7-4.7-3.9-9-6.8-13.1c-0.3-0.3-0.4-1.1-1.2-1
		c-0.4,0.6-0.2,1.3-0.3,1.9c-0.5,2.8-1.7,5.3-3.6,7.4c-3.3,3.5-7.9,2.4-9.5-2c-0.5-1.6-0.7-3.2-1-4.9c-0.3-2.8-1.3-5.2-3-7.4
		c-1.9-2.5-3.8-5-5.4-7.6c-1.4-2.2-2.7-4.6-3-7.2c0-0.7-0.3-1.4-0.7-2c-1.3-2-2.3-4.1-3.2-6.4c-0.5-1.3-1.4-2.1-2.4-2.9
		c-2.1-1.4-4.4-3-6.5-4.5c-0.6-0.4-1.3-1-1.9-1.4c-0.1,0-0.1-0.1-0.2-0.1l-0.3,2c-0.3,1.8-1.3,2.9-3.2,3.7c-2.2,1-4.5,2.2-6.3,4.6
		l-0.1,0.1c-0.3,0.4-0.6,0.8-1.2,1.2l-1.3,1.1c0.4,0.2,0.9,0.3,1.3,0.5c0.4,0.1,0.7,0.3,1.1,0.5c2,1.3,3.5,3,4.2,5.3
		c0.1,0.4,0.2,0.7,0.3,1.2c0.1,0.6,0.3,1.5-0.4,1.9c-1,0.5-1.1-0.5-1.5-1.1c-0.7-1-1.6-1.4-2.8-1.7c-5.3-1.4-10.1,0.3-14.8,2.4
		c-1,0.5-1.7,1.4-2.5,2.1c-2.2,2.1-4.5,4.2-6.8,6.4c-0.4,0.4-0.7,1.4-1.7,0.5c-0.2-0.2-0.6,0.2-1,0.5c-1,1-1.9,1.9-2.9,2.9
		c-1.8,1.9-3.6,3.6-5.8,5c-1.5,1-2.7,2.1-3.6,3.7c-2.5,4.6-6.3,7.8-11,9.9c-2.4,1.2-5.1,1.8-7.9,1.7c-1.5,0-3-0.1-4.4,0
		c-4.6,0.3-8.5-0.8-12.3-3.2c-3.3-2-6.7-4.1-9.2-7.1c-0.6-0.6-1.3-1.1-2.2-1.3c-1.4-0.2-2.7-0.5-3.8-1.3c-1-0.6-1.7-0.3-2.2,0.5
		c-0.7,1.3-1.5,2.5-2.2,3.7c-1.5,2.4-3.5,4.1-6.3,5c-3.3,1.1-6.5,0.7-9.3-1.3c-2.5-1.8-4.7-3.8-6.8-6.1c-1.2-1.3-2.3-1.6-4-1.1
		c-2.2,0.6-4.5,1.2-6.1,2.5c-3.1,2.8-6.9,3.4-10.8,3.9c-1.5,0.1-2.9,0.4-4.2,0.7c-3.7,0.8-7.4,1.8-11.3,0.6c-3-0.8-5.4-2.3-7.5-4.5
		c-3.1-3.3-5.6-6.9-8.2-10.6c-0.5-0.7-1.1-1.6-1.6-2.3c-0.8-1-1.2-2.1-0.5-3.3c0.3-0.5,0.4-1-0.2-1.4c-6.4-4.1-12.5-8.6-20.2-10.2
		c-3.2-0.6-6.4-0.8-9.6-0.4c-2.1,0.2-4.1,0-6.2-0.2c-1-0.1-1.9-0.2-2.9-0.3c-10-1.4-11-0.2-20.6,3.9c-0.5,0.2-1,0.5-1.9,1
		c0-0.6,0-1.4,0.1-2c0.2-2.2,0.8-4.2,1.4-6.1l-3.1,4.6c-1.4,2-2.3,3.7-3.1,5.3c-0.9,2-1.8,3.3-2.8,4.4c-1.1,1.1-1.9,2.2-2.7,3.3
		c-0.3,0.4-0.6,0.9-0.9,1.2c-2.4,2.8-2.5,6.3-2.4,8.7l0.1,1.3l0.7,0.4l0.4,0.8c0.2-0.3,0.4-0.7,0.6-1c0.1-0.2,0.3-0.5,0.4-0.7
		c1.3-1.9,2.7-3.7,4.2-5.4c3.6-3.8,7.8-6.8,12.7-8.6c1.3-0.4,2.5-1.1,3.9-1.6c3-1.2,5.9-1.2,8.9,0c1.4,0.5,2.5,1.4,3.3,2.7
		c0.2,0.4,0.3,0.8,0,1.2c-0.3,0.4-0.7,0.3-1.1,0.1c-3.4-2.2-6.5-0.4-9.6,0.7c-1.8,0.7-3.5,1.8-5.3,2.8c-0.8,0.4-1.7,1.1-2.4,1.8
		c-3.7,4.2-7,8.7-9.2,13.9c-0.1,0.3-0.4,0.6-0.1,1.2c0.8-0.2,1.4-1,2-1.5c3.6-3.1,7.4-5.7,11.8-7.6c8.3-3.7,16.7-4.5,25.4-1.5
		c4.4,1.5,8.1,4.1,11,7.6c2.2,2.7,4.1,5.6,5.9,8.6c1.2,1.9,1.8,3.9,2.2,6.1c0.7,3.7,1.8,7.1,4.4,10c1.4,1.5,2.7,3.2,2.4,5.5
		c0,0,0,0.1,0,0.1c0,0,0-0.1,0-0.1c0.1,0.1,0,0.1,0,0.1c0.7,2.4,0.7,2.6-1.6,3.7c-0.3,0.1-0.6,0.3-1.1,0.4c-3.4,1.1-6.7,2.2-9.8,3.9
		c-1.7,1-3.6,1-5.5,1.3c-2.7,0.4-5.2,1.1-7.6,2c-4.5,1.9-9.3,2.4-14.1,3.5c-3.9,1-7.9,0.5-11.8-0.2c-8.5-1.6-14.9-6.3-19.5-13.4
		c-1.1-1.7-2.3-3.2-3.9-4.5c-0.8-0.6-1.6-1.1-2.8-1.1c-4.4-0.2-6.8-3.4-5.9-7.2C347.1,219.3,347.3,218.7,347.6,218.1z M562.5,229.1
		c0.5-2.7,1.6-5.1,3-7.3c0.5-1,1-1.8,1.2-2.9c1.6-6.7,4.9-12.4,9.5-17.5c4.4-4.8,9.1-8.9,15.2-11.4c6.5-2.5,13-3.3,19.8-1.5
		c6.5,1.9,11.2,6.2,14.7,11.7c1.3,1.9,2.2,4,3.9,5.7c-0.7-4.9-1.3-9.8-3.2-14.4c-1-2.2-2.1-4.1-3.9-5.6c-1.1-0.8-2.2-1.8-3.3-2.8
		c-1.7-1.4-3.6-2.3-5.8-2.5c-0.3,0-0.7,0-1.1-0.3c1.5-0.5,3.2-0.6,4.9-0.1c0.6,0.2,1.4,0.4,2,0.7c3.3,1.5,6.2,3.8,9.1,5.7
		c1.4,0.7,2.1,2.1,3,3.4c5,7.9,8,16.5,9.1,25.7c0.1,1,0.1,1.8,0.3,2.7c0.8,3.3-0.1,6.3-1.9,9c-0.7,1.2-1.8,1.9-3,2.3
		c-3.5,1.2-5.9,3.6-8.5,6.1c-1.8,1.7-3.6,3.4-5.4,5.1c-4.1,4-9.1,6.3-14.9,7c-4.4,0.5-8.5,0.5-12.5-1.1c-1.8-0.6-3.5-1.5-5-2.8
		c-0.8-0.6-1.8-1.1-2.7-1.6c-4.2-2.4-8.8-3.4-13.7-3.6c-1.6,0-3.2-0.3-4.8-0.6C563.9,237.2,561.7,233.7,562.5,229.1z M478.5,206.3
		C478.5,206.3,478.5,206.3,478.5,206.3l-0.6,2c0,0-0.1,0-0.1,0L478.5,206.3z"/>
	<path class="st3" d="M286.4,219.1c-0.2-0.8-0.2-1.7,0.2-2.6l0.2-0.5l-0.1-0.5c-0.4-2-0.4-4.1-0.4-6.2v-3.4v-0.9l-0.1-0.4
		c-0.5-1.2-0.5-2.5-0.1-4l0.1-0.4l0-0.4c-0.2-3.1-0.3-6.3-0.4-9.4c0-1.1,0-2.1-0.1-3.1v-3.2v-1.1c0-1.7,0.3-3,1.1-4.4
		c2.1-4.2,4.4-8.7,6.8-13l0.5-1c0.7-1.2,1.4-2.4,2.1-3.5c0,0.3-0.1,0.6-0.2,0.9l-0.1,0.4l0,0.4c0.1,1.4,0.3,2.7,0.4,4.1
		c0.1,1.2,0.2,2.3,0.3,3.5c0.2,1.8,0.5,3.6,0.8,5.3c0.2,1.2,0.5,2.5,0.6,3.7c0.4,3.1,1.1,6.3,2.4,10.2c0.7,2.5,1.5,4.7,2.3,6.7
		l1.3,3.2c0.2-1.1,0.4-2.2,0.7-3.3c1-4.5,2.3-8.8,4.4-13.1c0.5-1.1,0.7-2.3,0.8-3.5c1.2-10.8,3.8-21.2,8.5-31.2
		c1.2-2.5,2.4-5,3.8-7.4c0.9-1.6,1.8-3.2,2.7-4.8c0.1-0.6,0.2-1.3,0.4-2c0.5-2.4,0.9-4.9,1.1-7.4c0.2-1.9,0.9-3.8,2.2-5.9
		c1.6-2.6,3.6-5,5.7-7.5c1-1.2,2.1-2.5,3.1-3.8c3.9-5,6.8-9.7,8.8-14.4l1.1-2.6c-1,0.5-1.9,1-2.9,1.5c-1.1,0.5-2.2,1.1-3.3,1.6
		c-6.4,3.1-11.8,7.2-16.6,12.4c-2.1,2.3-4,4.8-5.9,7.2c-1.4,1.7-3.3,2.2-5.1,1.5c-1.7-0.7-2.8-2.5-2.4-4.8c0.1-0.7,0.2-1.5,0.3-2.2
		c0.2-1.2,0.4-2.3,0.6-3.5l-2.3,2.3c-0.2,0.2-0.4,0.4-0.6,0.5l-0.3,0.1c-1.5,1-2.8,2.2-4.1,3.3l-1,0.9c-1.6,1.4-3.3,2.8-5,4.2
		c-0.5,0.4-1.1,0.9-1.6,1.3c-2.1,1.8-3.9,3.8-5.6,5.9c0.4-2,0.9-3.9,1.4-5.7l1.3-4.1c0.8-2.3,1.7-4.9,2.7-7.7l3.7-9.8
		c-1.6,3-3.5,6-5.5,8.8c-0.3,0.4-0.6,1-1,1.4c-1.3,1.7-1.9,3.7-2.2,5.7c-0.2,1.4-0.6,2.4-1.3,3.5c-4.5,7.1-8.3,14.6-10.8,22.6
		c-6.1,19.3-10.4,39.1-12.3,59.4c-1.1,11.9-0.5,23.7,2.8,35.2c0.1,0.6,0.1,1.3,0.8,1.7c0.5-2.4,1-4.7,1.5-6.9c0.7-3,1.4-6.1,2.9-8.8
		c1.1-2.1,2.8-3.4,5.2-3.2c1.7,0.2,2.8,1,3.6,2.1c0.2,0.2,0.3,0.4,0.4,0.6c0.2,0.3,0.4,0.7,0.5,1.1c0.7,1.7,1,3.5,1.1,5.3l2.4,3.3
		L286.4,219.1z"/>
	<path class="st3" d="M282.3,345.3c-0.5-0.2-1.1-0.4-1.6-0.8c-1.5-1.3-2.2-2.9-1.9-4.9c0.7-4.4,1.3-8.8,1.6-13.3
		c0.5-7,1-14.1,0.2-21.2c-1.1-8.8-3.1-17.2-8.2-24.5c-0.3-0.4-0.3-1.1-1.3-1.1c0.4,1.9,0.6,3.8,1.1,5.6c2.1,9.6,3.2,19.2,2.8,29
		c-0.3,6.8-1.5,13.5-2.2,20.2c-1.4,11.4-5.9,21.4-13.1,30.2c-0.7,1.1-1.6,2-2.7,2.8c-0.2,0.2-0.5,0.4-0.7,0.5
		c-1.4,0.8-2.8,1.2-4.2,1.1l3.3,0.9c1.2,0.4,2.6,0.5,4.1,0.5c1.2,0,2.6-0.1,4-0.4c2.1-0.4,4.1-1.3,6.1-2.9c4.6-3.6,8.3-8.3,11.6-15
		c1-1.9,2-3.9,2.7-6.1l0.3-0.8C283.5,345.5,282.9,345.5,282.3,345.3z"/>
	<path class="st3" d="M224.9,272.6c0-1.3,0-2.5-0.3-3.8c-0.2-1-0.6-1.7-1.7-2c-2.7-0.8-4.8-2.4-6.7-4.5c-0.8-0.7-1.7-1.4-2.7-2
		c-7.2-4.9-12.3-11.3-14.7-19.8c-1-3.5-1.9-7.1-2.9-10.6c-0.1-0.5,0-1.3-0.7-1.7c-0.3,0.2-0.5,0.4-0.7,0.6c-3.1,2.8-6.5,2.4-8.9-0.8
		l-0.1-0.1c-1.3-1.7-1.9-3.5-2.2-5.5c0-0.1,0-0.2,0-0.2l-0.2,5.7c-0.2,7.8,1,15,3.8,21.2c0.7,1.5,1.3,3,2,4.4
		c3,6.8,6.1,13.8,9.7,20.5c3.1,5.9,6.6,11.6,10.6,17l12,16.7l-2.7-6.2c-2.8-3.7-5.3-7.7-7.1-11.9c-0.8-1.9-1.6-3.9-2.2-5.9
		c-0.3-1.2-0.7-2.4-0.7-3.7c0-1.4,0.6-2.4,1.9-3.1c1.3-0.6,2.4-0.3,3.5,0.6c0.5,0.5,1.1,1.2,1.5,1.8c2.5,3.7,5.8,6.8,9.1,9.8
		c0.3,0.2,0.5,0.4,1.1,0.1c0.5-3.2,0.7-6.5,0.1-9.8C224.9,277.2,224.8,274.9,224.9,272.6z"/>
	<path class="st3" d="M262.1,134.3c1.2-0.6,2.2-1.4,3.3-2c2.2-1.4,2.7-3.7,3.4-6.3c-2.2,1-3.8,1.9-5.6,2.5c-1.9,0.6-3.7,0.5-5.1-1
		c-1.4-1.4-1.6-3.2-1.1-5.1c0.5-1.8,1.7-3.2,3-4.6c2.2-2.4,4.8-4.5,7.4-6.4c3.7-2.5,7.3-5.1,11-7.6c2.1-1.4,4.1-2.9,6.4-3.8
		c2-0.8,3.4-2.1,4.6-3.7c1.4-1.7,2.4-3.6,3.4-5.5c0.2-0.4,0.7-1,0.2-1.6c-0.7,0.3-1.6,0.6-2.3,1.1c-6.3,3.3-12.6,5.9-19.2,8.3
		c-2.6,1-5.3,1.8-7.9,2.6c0,0,0,0,0,0c0,0.1-0.1,0.1-0.1,0.2h-0.2l-0.4,0.2c-0.3,0.2-0.6,0.4-0.7,0.5l-0.5,0.3l-0.3,0.7
		c0,0,0,0-0.2,0.1l-0.2,0.1c-0.1,0.1-0.2,0.1-0.3,0.1c-0.3,0.1-0.7,0.3-1.1,0.6c-0.6,0.4-1,0.8-1.4,1.2c-0.5,0.5-0.8,0.8-1,0.8
		l-0.4,0l-0.3,0.2c-0.3,0.2-0.6,0.4-0.7,0.5l-0.4,0.2l-0.3,0.6c-0.2,0.4-0.7,0.8-1.2,1.2c-0.4,0.3-0.8,0.6-1.2,0.9
		c-0.2,0.1-0.4,0.3-0.7,0.4c-1.5,1-2.7,2.2-4,3.4c-0.5,0.4-1,0.9-1.5,1.4c-1,0.9-2,1.8-3.1,2.7c-0.7,0.6-1.4,1.2-2,1.7
		c-2.1,1.7-4.2,3.5-6.3,5.4c-1.7,1.5-3.1,3.3-4.2,4.8c-0.6,0.8-1.3,1.5-2.1,2.2c-0.7,0.7-1.5,1.5-2.2,2.4
		c-6.1,7.7-10.9,15-14.6,22.6c-0.3,0.6-0.6,1.2-1,1.8c-0.1,0.2-0.2,0.4-0.3,0.6c0.7,0.4,1.4,0.9,1.9,1.5c0.7,0.8,1.3,2.1,1.4,3.5
		c0.1,0.8,0,1.8-0.1,2.7c-0.4,2.4-1,4.9-1.4,7.3c-0.3,1.6-0.4,3.2-0.1,4.8c1,4.8,3.7,8.5,6.7,12.4c3.3-3,6.3-5.9,8.6-9.3
		c2-2.9,3.8-6.1,5.6-9.1c4.2-7.5,8.5-15.2,12.7-22.7C249.7,143.4,255.3,138.3,262.1,134.3z"/>
	<path class="st3" d="M427.8,526.2c0.1-0.1,0.2-0.2,0.3-0.2c0.3-0.3,0.7-0.6,1-1.1l2.6-3.5c-1.1,0.5-2.2,0.8-3.4,1.1
		c-0.2,0-0.5,0-0.8,0.1c-3.7,0.6-7.3,1.1-11,1c-5.8-0.1-10.3-2.9-13.3-8c-2.8-4.6-2.2-9.3,1.3-13.5c0.8-1.1,1.8-1.9,2.9-2.5
		c0.4-0.2,0.8-0.5,1.2-0.7c-0.7-1-1.4-2.1-2-3.1l-0.1-0.1c-0.6-0.9-1-1.7-1.4-2.6l-0.5-1.3h-0.3c0.1,0.1,0.1,0.2,0.2,0.3
		c0.4,0.7,0.4,1.4,0,2c-0.3,0.5-0.8,0.7-1.4,0.8c-0.2,0-0.3,0-0.5,0c-1-0.1-1.7-0.6-2.2-1.3c-4-4.8-7.3-9.9-7.1-16.5
		c0.1-2.9,0.2-5.8,0.4-8.8c0.2-2.8-0.3-5.2-2.3-7.2c-1.8-1.8-3.1-3.9-4.4-6.1c-0.2-0.4-0.3-1.2-1.2-1.2c-0.2,1.3,0,2.4,0.2,3.7
		c0.5,3.3,0.1,6.4-1.6,9.2c-1.1,1.9-2.2,3.8-3.1,5.9c-1.4,3.4-2.4,6.9-1.1,10.6c0.2,0.5,0.4,1.3-0.3,1.7c-0.7,0.5-1.3-0.1-1.8-0.6
		c-1.4-1.4-1.9-3.1-2.4-4.9c-1-3.3-1.8-6.6-2.8-9.9c-1.9-6.3-1.6-12.5,0.6-18.6c1-2.8,1.7-5.5,2.3-8.3c0.4-1.7,0.2-3.2-0.6-4.8
		c-2.8-4.9-4.6-10-3.9-15.7c0.1-0.6,0-1.3-0.5-1.7c-1.8-1.6-3.7-3.1-5.9-4c-1.1-0.5-1.5-0.2-1.7,0.8c-0.4,1.8,0.2,3.4,0.7,5.1
		c1.7,5.3,1.8,10.7,1,16.1c-0.7,4.1-1.3,8.2-1.9,12.3c-1.6,11.2-1.9,22.4-0.7,33.7c0.8,8.2,3.3,15.6,7.8,20.1
		c0.2,0.3,0.4,0.6,0.6,0.9l1.2-0.6l-0.4-1.1c-0.8-2.1-1.7-4.1-2.4-6.1c0.1,0,0.2,0.1,0.2,0.1l0.1,0.1c1,0.5,1.7,1.2,2.6,2.1
		c0.6,0.6,1.2,1.2,1.9,1.8c0.5,0.4,1,0.9,1.6,1.3c1.6,1.4,3.3,2.8,5.3,3.9c3.5,2,6.1,4.5,8.1,7.4c2.7,4,6.1,7.5,10.5,10.9
		c0.3,0.2,0.5,0.4,0.8,0.6c1,0.8,2.1,1.6,3.5,2.2c1.2,0.4,3.7,1.3,3.8,1.4l3.2,0.7l7.9,0.1l0.2,0c0.6-0.1,1-0.2,1.2-0.3
		c0.7-0.2,4.5-1.2,6.4-2.4l0.2-0.1c0.2-0.1,0.3-0.3,0.5-0.4C427,526.9,427.4,526.6,427.8,526.2z"/>
	<path class="st3" d="M343.1,505.9c-1-3.9-2-7.9-2.4-11.9c-0.4-3.5-2.2-5.7-5.2-7.2c-2.5-1.3-4.7-3-6.6-5.1c-4.4-5-8-10.4-10.5-16.5
		c-3.6-8.5-6.5-17.3-7.2-26.7c-0.5-7.6-1.7-15.3-1.8-22.9c-0.1-8,0.6-15.7,3.8-23.2c0.2-0.6,0.4-1.4,0.6-2c0.1-0.5,0-1.1-0.4-1.5
		c-1.5-1.7-3.1-3.3-4.6-4.9c-0.2,0.1-0.4,0.2-0.4,0.3c-0.2,0.6-0.5,1.4-0.7,2c-2.5,7.5-4.1,15.2-5.3,23.1
		c-0.8,5.8-1.7,11.6-1.2,17.4c0.7,8.7,2.8,17,5.6,25.2c2.2,6.5,5,12.7,7.6,19.1c1.6,3.9,2.7,8,3,12.1c0.1,0.7,0.1,1.4,0.1,2.1
		c0,0.1,0.1,0.1,0.1,0.2l0.3,0.8l0.8,0.4c0,0,0.1,0,0.1,0l0.2,0.2c0.3,0.3,0.5,0.5,0.6,0.7c1.2,3.6,2.7,7.2,4.1,10.6
		c0.6,1.5,1.3,3.1,1.9,4.7c3.5,8.6,7.2,15.9,11.3,22.4l0.2,0.3c0,0.1,0.1,0.1,0.1,0.1c0.6-0.2,1.3-0.3,2-0.3h0.1
		c1.6,0,3.1,0.5,4.5,1.2c0.8,0.3,1.5,1,2.7,1.2c0-1.6,0-2.9,0-4.2c0-0.8,0-1.8,0.6-2.4c1.7-1.7,1.3-3.4,0.2-5.2
		C345.4,512.9,344,509.5,343.1,505.9z"/>
	<path class="st3" d="M364,307.4c-2.7-2.3-4.5-5.2-4.2-8.9c0.1-1-0.4-1.3-1.4-1.5c-7.8-1.7-12.4-6.9-13.5-14.8
		c-0.2-1.4-0.2-2.7-0.4-4c-0.3-2.4-2.3-3.6-4.7-2.7c-1.4,0.6-2.8,1.4-4.2,1.7c-4.4,1.1-8,3.3-11.2,6.3c-1.3,1.3-2.8,2.1-4.6,2.4
		c-1.6,0.3-1.6,0.3-1.4,2c1.2,7.6,0.7,15.2-0.8,22c-1.8,10-5.1,19.4-9.3,28.6c-0.3,0.7-0.8,1.5-0.7,2.4c0.2,2.1,0.3,4.2,1.2,6.3
		c2.3,5.5,4.4,11.3,6.4,17c1.5,4.1,3.3,8.1,5.9,11.5c1,1.2,1.8,2.5,3.2,3.2c2.1,1,3.8,2.5,5.6,4c6.5,5.5,10.3,12.5,12,20.7
		c0.7,3.9,1.4,7.9,1.6,11.9c0.4,8.4,2.5,16.4,6.6,23.8c0.6,1.2,1.2,2.4,2.2,3.4c0.5-1.1,0.3-1.9,0.2-2.8c-0.3-3.3-0.6-6.6-0.4-10
		c0.3-4.6-0.7-8.7-2.1-13.1c-3.4-10.6-5.8-21.5-6.2-32.6c-0.1-1.6-0.1-3.1-0.4-4.6c-1.4-5.9-3-11.9-5.2-17.6c-0.4-1-0.8-1.9-1.5-2.8
		c-3.1-4.2-5.8-8.7-8.1-13.5c-3.6-7.5-4.8-15.3-1.5-23.4c0.6-1.5,1.2-3.1,1.8-4.7c1.8-4.5,3.4-9.1,4.6-13.8c0.4-1.7,1-3.5,1.4-5.2
		c0.1,0.1,0.3,0.1,0.4,0.1c0.2,1.6,0.4,3.2,0.5,4.8c0.6,7.2,2.4,14.1,6.1,20.5c1.5,2.4,3.1,4.7,5.3,6.5c1.3,1,2.7,1.8,4.2,2
		c1.7,0.2,2.1,0.1,2.8-1.5c1.2-2.5,2.4-4.9,3.8-7.2c2.4-4.4,4.8-8.8,6.6-13.5C365,309.3,365.1,308.4,364,307.4z"/>
	<path class="st3" d="M670.9,470c-0.8,0.7-0.8,1.6-1.1,2.2c-1.2,3.6-2.2,7.3-3.4,10.9c-4.1,12.5-8.9,24.9-12.7,37.6
		c-2.4,8.3-6.7,15.8-11.8,22.8c-4,5.4-9.2,8.9-16,9.9c-1.9,0.2-3.5,0.8-5.1,1.9c-4.8,3.1-10,5.4-15.8,5.6c-1.7,0.1-3.5,0.2-5.2,0.5
		c-4.1,0.8-8,0.1-11.7-1.6c-1.9-0.8-3.8-1.6-5.7-2.3c-8.7-3.4-15.7-8.7-20.7-16.7c-1-1.5-1.8-3-2.8-4.5c-0.3-0.5-0.7-1-1.5-1
		c-3,0.2-5.6-0.7-8.3-1.9c-3.7-1.7-7.4-1.9-10.9,0.5c-1.6,1.2-3.3,1.9-5.2,2.3c-2,0.4-3.9,0.4-5.8-0.5c-1.1-0.5-1.9-1.3-2.4-2.2
		c-0.2-0.4-0.4-0.8-0.5-1.4c-0.1-0.5-0.1-1,0.1-1.5h-1.7l-0.1,0.1l-0.5,0.1c-0.6,0.2-0.9,0.2-1.2,0.2l-0.1,0l-1.8,0l-0.2,0.2
		l-0.1-0.1h-2.1l-0.2,0c-0.9,0.1-1.7,0-2.2-0.3l-0.4-0.2h-0.5c-0.3,0-0.5,0.1-0.7,0.1c0,0,0,0,0,0c0.1,0,0.2,0.1,0.3,0.1
		c0.5,0.2,1.1,0.3,1.5,0.6c0.8,0.5,0.7,1.6-0.1,2.1c-0.2,0.1-0.5,0.2-0.7,0.3c-0.1,0.1-0.3,0.1-0.4,0.1c-1.9-0.1-3.6,0.4-5.2,1.4
		c-0.4,0.3-1.1,0.3-1.6,0.3c-2.8,0.2-5.5-0.1-7.9-1.6c-1.6-1.1-3-1.2-4.6-0.1c-0.3,0.3-0.8,0.4-1.3,0.6c-5.3,2.4-10.5,2.3-15.6-0.6
		c-3.9-2.3-8.1-4.1-11-8.3c-2,3.3-4.5,5.8-6.1,8.9c-3.2,6.1-7.3,11.5-12.1,16.3c-2.7,2.7-5.5,4.8-8.8,6.6c-3.5,1.9-7.1,3.6-10.9,4.9
		c-0.5,0.1-1.3,0-1.3,1c2.2,1.1,4.1,2.8,5.5,5c0.5,0.6,1,1,1.8,0.5c0.6-0.3,1.4-0.6,2.1-1c2.5-1.3,5.2-2.5,8-3.3
		c3.4-0.8,6.8-1.8,10.2-2.8c1.4-0.4,2.8-0.7,4.2-0.8c0.4,0,1,0,1.4,0c0.2,0,0.4,0,0.5,0.1c2.8-1.6,5.6-3.3,8.3-5.4
		c0.9-0.7,2-1.1,3.3-1.6c0.2-0.1,0.3-0.1,0.5-0.2c2.3,1.5,4.7,2.4,6.7,3.1c4.1,1.5,7.9,3.7,11.4,6.8c0.6,0.5,1.2,1.1,1.8,1.4
		l0.7,0.4c0.2-0.4,0.4-0.7,0.6-1c0.1-0.1,0.1-0.2,0.2-0.3c2-2.7,4.9-3.5,8.1-3.1c2,0.3,3.9,1,5.7,1.7c2.3,1,4.8,2,7.2,3.1
		c4.2,1.8,8.6,2.8,13.3,2.7c2.2-0.1,4.5,0,6.7,0.1c6.5,0.3,12.4,2.2,17.4,6.5c0.5,0.5,1.1,1.1,1.8,1.1c2.4,0,4.9,0,7.8,0
		c-2.4-1.8-4.5-3.2-6.5-4.8c-3.4-2.7-6.8-5.2-10.9-6.7c-0.2-0.1-0.4-0.2-0.6-0.3c-0.7-0.4-1.2-1.1-1.1-1.9c0.1-0.8,0.7-1.4,1.6-1.6
		c1.1-0.3,2.1-0.2,3.3-0.1c3.9,0.4,7.4,2,10.8,3.7c3.8,1.9,7.6,3.6,11.7,5c3.6,1.3,7.1,2.7,10.7,4c6.8,2.5,13.9,3.8,21,5.5
		c0.3,0.1,0.6,0.1,1,0.1c8.3,0,16.1-1.3,23.2-6.2c2.2-1.6,4.6-3.1,6.7-4.7c3.3-2.4,6.9-4.7,9.7-7.8c0.6-0.7,1.5-1.2,2.5-0.8
		c1.1,0.4,1.6,1.3,1.8,2.3c0.2,1.4-0.2,2.8-0.6,4c-1.2,3.4-2.3,6.8-3.5,10.2c-0.2,0.5-0.6,1.1-0.2,1.8c1.3-1.1,2.2-2.3,3-3.7
		c1.1-1.9,2.2-3.8,3.2-5.8c2-3.8,4.7-7.2,7.4-11.4c2.9-5.3,5.5-10.6,8.3-15.9c3.1-6.1,5.6-12.3,6.6-19.1c0.2-1.5,0.5-2.9,0.8-4.2
		c2.2-10.3,3.6-20.7,3-31.3C674.1,481.1,672.8,475.6,670.9,470z"/>
	<path class="st3" d="M556.2,374.6c0.2-0.4,0.6-0.8,0.3-1.5c-4-0.6-8.1-1-12,0.6c-1.9,0.8-3.9,1.4-5.9,1.9c-3.4,1-6.8,1.1-9.8-1.3
		c-0.2-0.2-0.5-0.3-0.8-0.4c-2.7-0.6-4.1-2.5-5.2-4.9c-2-4.5-2.9-9.1-2.3-14c0.3-3.4,1.1-6.8,1.8-10.1c1-4.4,3.9-6.9,8.3-7.5
		c5.7-1,9.9,2.4,13.8,5.8c0,0.1,0.1,0.1,0.1,0.2c0.3,0.5,0.6,1.1,0.2,1.6c-0.5,0.7-1.2,0.3-1.7,0c-1.2-0.8-2.5-1.4-3.9-1.6
		c-0.1,0.6,0.3,0.8,0.5,1.2c2.8,2.8,4,6.2,4.4,9.9c0.2,1.9,0.1,3.8-0.2,5.7c-0.2,1.2,0.2,1.6,1.3,1.9c2.2,0.5,4.6,1.3,7,1.2
		c4.4-0.1,7.6-2.3,10.1-5.8c1.3-1.8,2-3.9,1.9-6.3c-0.1-0.6,0.1-1.3,0.2-1.9c0.2-2.2,0.5-4.5,0.4-6.7c-0.1-1.6-0.1-1.7-1.8-1.6
		c-2.5,0.2-4.9-0.5-7-1.8c-1.5-1-2.8-2-3.9-3.2c-1.1-1.1-2.1-1.6-3.6-1.7c-1-0.1-2.1-0.2-2.9-1c-1.3-1.4-2.8-2-4.6-2.2
		c-1.2-0.1-2-1-2.2-2.2c-0.2-1.3,0.3-2.3,1.4-3.1c0.7-0.5,1.6-0.7,2.4-0.7c1.4,0,2.9,0,4.2,0.4c1.6,0.4,3.2,1,4.8,1.4
		c2.3,0.6,4.6,0.8,6.8-0.3c1.6-0.8,1.6-1.4,0.2-2.5c-3.6-3.1-7.5-5.6-11.7-7.9c-7.4-3.9-15.4-6.4-23.7-7c-6.1-0.4-12.1-0.1-18.2,0.4
		c-7,0.5-14,1.4-21,0.5c-5.1-0.5-9.8,0.2-14.3,2.5c-1,0.4-1.8,0.7-2.7,1.2c-3.5,1.8-6.8,4-9.6,6.8c-2.4,2.3-4.1,5.3-6.2,8.6
		c2.3-0.6,3.9-1.3,5.3-2.3c1.4-1,2.9-2,4.6-2.5c3.2-1.1,6.4-2,9.6-3.1c0.4-0.1,0.7-0.2,1.2-0.2c0.4,0,0.7,0.1,1,0.5
		c0.2,0.4,0.1,0.8-0.2,1.1c-0.6,0.6-1.4,1.2-2.1,1.6c-3.2,1.8-5.7,4.2-7.9,7.2c-1.2,1.6-2.4,3.2-3.8,4.6c-2.5,2.4-3.8,5.4-4.7,8.7
		c-0.3,1.5-0.5,3-0.7,4.5c-0.3,1.7-0.7,3.3-1.9,4.6c-0.2,0.3-0.6,0.6-0.6,1.2c-0.1,1.6,1.3,3.9,2.9,4.6c2,0.8,4,1.4,6.3,1.2
		c2-0.1,4.1-0.5,6.2-0.5c1.9,0,2.9-1,3.6-2.5c2.1-4.5,3-9.5,6.3-13.8c-5.4-0.4-10,0.8-14.4,3.7c0.2-1.6,1.1-2.5,2.1-3.3
		c1.7-1.4,3.4-2.7,5.4-3.5c3.7-1.7,7.6-2.5,11.7-2.2c3.9,0.3,6.9,2,8.7,5.7c1,1.9,2,3.9,3,5.9c2.4,5.1,2.4,10.2,0.7,15.4
		c-1.9,5.8-5.9,9.2-11.9,10.5c-3.2,0.6-6.2,0.2-8.7-1.7c-1.2-0.8-2.3-1.1-3.6-1.1c-0.6,0-1.1,0.1-1.3,0.8c-0.3,1.3-1.4,2.1-2.4,2.8
		c-0.7,0.4-1.1,1.1-1.2,1.9c-0.1,0.7-0.2,1.6-0.4,2.3c-0.2,1.2,0.1,2,1.2,2.7c3.9,2.2,7.6,5,11.8,6.8c6.9,3,13.7,6.1,19.8,10.6
		c1.8,1.4,4,2.1,6.5,2.8c-0.3-4,0-7.8,1-11.4c1.1-4.5,1.8-8.9,1.8-13.5c0-5.8,0.8-11.7,0.1-17.6c0-0.6,0-1.3,0.1-1.9
		c0-0.5,0.4-0.8,1-0.8c0.4,0,0.7,0.2,1,0.6c0.4,0.7,0.4,1.6,0.4,2.3c0.3,5.4,0.6,10.8,1,16.3c0.2,3,0.4,6.1,1.8,8.6
		c2.3,4.2,3.2,8.8,3.3,13.6c0.1,1.2,0.1,2.2,0.5,3.5c-0.1,0.7,0.3,1,1,0.8c1.7-0.2,3.4-0.6,4.8-1.9c2.3-2.2,5-3.7,7.8-5.2
		c4.9-2.5,9.7-5.5,14.2-8.7c3.3-2.3,6.3-5.1,9.2-8C553.6,378.9,555.1,376.8,556.2,374.6z"/>
	<path class="st3" d="M454.2,395.2c1.2-1.4,2.3-2.4,3.9-2.9c1.6-0.4,3.2,0.1,4.9,0c-0.3-0.8-0.9-1.1-1.3-1.4
		c-4.4-3.8-8.5-7.9-11.8-12.7c-2-3-4.1-5.8-6.2-8.8c-0.3-0.5-0.5-1.1-1.1-1.3c-1-0.5-1.4-1.4-1.6-2.3c-0.2-1.1-0.7-2-1.3-2.9
		c-1.2-2.1-2-4.4-2.5-6.7c-0.8-4-1.4-8.1-1.6-12.1c-0.1-1.7-0.1-3.3,0-5l-3.1,6.1v0.2c0,0.1,0,0.2-0.1,0.3c-0.2,0.6-0.3,1.2-0.4,1.8
		c-0.3,1.2-0.6,2.4-1,3.5c-1.5,3.5-2.9,7.1-4.3,10.6c-1.7,4.3-2.6,7.8-2.9,11.3l-0.2,2.1c0.8-1.1,1.7-2,2.8-2.8
		c1.2-0.8,2.5-1.4,3.9-1.6c0.6,0,1.2-0.1,1.8-0.4c0.2-0.1,0.3-0.2,0.4-0.2c0-0.2,0.2-0.5,0.5-0.7c0.2,0.2,0.2,0.3,0.3,0.5
		c1.5-0.3,2.9,0.2,4.1,1.3c1.3,1.1,2.3,2.2,3.3,3.5c0.6,0.7,1.2,1.5,2,2c1.3,0.8,2.2,2,3.2,3.2c3.4,3.9,5.4,8.6,7,13.5
		C453.4,393.8,453.5,394.5,454.2,395.2z"/>
	<path class="st3" d="M769.1,172.3c-0.7-3.3-1.8-6.5-3.4-9.5c-1.6-3.1-2.1-6.5-3.2-9.8c-0.5-1.6,0.2-3.2,1.5-3.9
		c1.5-0.8,2.8-0.3,3.9,0.6c0.8,0.6,1.6,1.4,2.2,2.2l2.5-1.6c-0.4-0.7-0.9-1.4-1.5-2.3c-4.2-6-9.5-11.1-15.8-15.2
		c-2-1.3-3.8-2.5-4.9-4.3c-0.8-1.4-2-2.2-2.7-2.6c-0.8-0.5-1.6-1.2-2.4-2c-0.4-0.4-0.8-0.8-1.2-1.2c-0.8-0.8-1.7-1.7-2.5-2.5
		L730.4,109l1.8,3.3c0.5,0.4,1,0.9,1.4,1.4c2.3,3,4.6,6.1,6.4,9.2c3,5.1,4.9,10.6,5.3,16.9c0.1,1.5,0,3-0.1,4.4c0,1,0.1,1.7,0.7,2.4
		c6.5,7.4,9.5,16.4,11.2,25.8c2.4,14.2,2,28.4-2.1,42.4c-2.3,8-4.9,15.9-7.8,23.7c-2.3,6.4-4.7,12.7-7,19.1
		c-2.4,6.9-5.7,13.5-9.8,19.7c-3.1,4.8-6.3,9.7-9.3,14.4c-0.4,0.6-0.7,1.2-1.2,1.9c1,0.3,1.5-0.3,2-0.6c5.8-4.1,12.1-7.6,18.5-11
		c1.1-0.6,1.9-1.5,2.5-2.4c2.8-4.1,5.5-8.2,8.3-12.3c1.9-2.9,3.9-5.6,6.3-8.2c3-3.4,5-7.1,5.9-11.6c0.4-2,1.4-3.9,1.6-5.9
		c0.2-2.2-1.7-3.7-2.4-5.6c-1.7-4.2-2-8.5-1.1-13c0.6-3.1,1.6-6.1,2.8-8.9c1.4-3.7,2.9-7.4,4.4-11.2c2.5-6.5,3.2-13.2,2.2-20
		C770.4,179.3,769.9,175.8,769.1,172.3z"/>
	<path class="st3" d="M682.9,161.8l0.2,0.2l0,0c0.2,0.1,0.4,0.4,0.7,0.5l0.9,0.5c0-0.4-0.1-0.9-0.1-1.3c-0.2-2.5-0.2-5.2-0.1-7.8
		c0.2-6.8,0.2-13.6-0.7-20.3c-0.1-1.3-0.4-2.4-0.7-3.7c-0.4-1.8-1.3-3.3-2.7-4.5c-4.8-4.2-9-8.9-12.4-14.4c-0.8-1.4-2-2.7-3.1-3.9
		c-1.8-2.1-3.3-4.4-4.5-6.8c-0.6-1.5-1.6-2.8-2.8-3.8c-2.2-2.1-4.5-4.4-6.3-6.9c-0.9-1.2-1.5-2.3-1.7-3.4c-0.4-3,2.1-5.2,5.1-4.2
		c1.3,0.4,2.2,1.3,3.2,2.1c3.4,3,6.9,5.7,10.8,7.9c2.2,1.2,4.5,2,7,2.2c5,0.4,10,1.4,14.9,2.7c1.2,0.3,2.4,0.6,3.6,1
		c0.7,0.2,1.4,0.4,2.1,0.6l-4.1-4.3c-1.9-2.1-4-4-6.1-6c-3.5-3.2-7.5-5.7-11.8-7.5c-2.8-1.2-5.9-2.3-9.4-3.4
		c-6-1.9-10.6-4.1-14.5-7.1c-1.7-1.2-3.5-2.5-5.5-3.3c-2.3-1-5-1.8-7.9-0.3l-1.1-1.3l-1.4,2.9c-0.6,1.3-1,2.7-1.2,4.2l0,1.4
		c0,3.7,1.4,7,2.7,10l0.1,0.3c0.8,2.1,1,3.9,1,6.1c0,2.3-0.4,4.4-0.8,6.7c-0.4,2.4-0.7,4.6-0.8,6.8c1.1,1.7,2.1,3.5,3,5.3
		c1,2,2,4.1,2.9,6.3c0.5,1.2,1.4,1.8,2.4,2.4c3.8,2.1,7.3,4.8,10.4,8c1.7,1.8,3.3,3.7,4.8,5.6c2,2.7,3.8,5.4,5.4,8.3c0,0,0,0,0,0
		c0.2,0.1,0.4,0.2,0.6,0.4c2.1,1.3,3.5,2.6,4.4,4.1c1.6,2.6,3.8,6,6.3,9.2c0.7,0.9,1.4,1.8,2.1,2.8
		C679.4,157.9,680.9,160,682.9,161.8z"/>
	<path class="st3" d="M591.5,406.8c0.7-2.3,0.8-5.1,0.1-7c-0.3,0.4-0.2,1-0.3,1.4c-0.6,3.7-2.8,6.4-6.2,8c-2.5,1.2-5.1,1.5-7.8,0.8
		c-1.9-0.5-3.5,0-5.1,1.1c-0.6,0.4-1.4,0.7-2,1.3c-4,3-8.1,5.7-13,7.1c-0.1,0-0.1,0.1-0.2,0.3c1,1.7,2.1,3,4.4,3
		c2.4,0.1,4.9,0.7,7.2,1.5c4.8,1.5,8.1,4.7,9.9,9.3c0.4,1.2,0.8,2.4,1.3,3.6c0.8,2.2,2.9,3.3,4.7,4.6c1.3,0.8,2.4,0.2,3.7,0
		c2.5-0.5,5-0.3,7,1.5c1,0.8,1.7,1.2,2.7,1c0.3-0.1,0.6-0.2,1-0.4l-0.2-0.2c-0.2-0.2-0.4-0.4-0.7-0.6c-0.3-0.2-0.5-0.4-0.8-0.7
		c-2.1-1.9-4-3.6-5.6-5.9c-1-1.4-1.5-2.7-1.5-4.1c0-0.8,0-1.5,0-2.3c0-2.4,0-4.8-0.1-7.2c-0.2-3.1,0.5-5.5,2.3-8l0.1-0.1
		c0.5-0.9,1.1-1.8,1.6-2.7l2.8-5.7l-1.2,0.6c-0.1,0.2-0.2,0.4-0.3,0.6c-0.4,0.8-1.1,1.6-1.8,2.2c-0.2,0.1-0.3,0.2-0.5,0.3
		c-0.5,0.2-1,0.2-1.5-0.1c-0.7-0.5-0.8-1.2-0.5-1.9C591.2,407.6,591.4,407.2,591.5,406.8z"/>
	<path class="st3" d="M579.2,347.6c-0.2,0.8-0.3,1.7-0.5,2.5c-3.3,14.8-9.3,28.2-19.4,39.6c-0.4,0.5-0.8,1.1-1.4,1.6
		c-0.7,0.7-0.8,1.4-0.3,2.3c0.8,1.6,1.1,3.3,1.1,5.1c0,0.4-0.2,1,0.4,1.2c0.5,0,0.8-0.2,1.1-0.5c2.9-3.4,6.3-6.1,9.9-8.6
		c1.6-1.1,2.5-2.7,3.3-4.4c0.5-1.3,1.1-2.5,1.7-3.7c1-1.7,2.3-2.9,4.2-3.2c1.4-0.2,2.8-0.4,4-0.7c1.4-0.3,2.7-0.3,4,0
		c0.5,0.1,1,0.3,1.4,0.4l-0.1-0.3c-0.1-0.2-0.2-0.4-0.2-0.6c-0.1-0.3-0.2-0.5-0.3-0.8c-1-3.1-2.5-6.3-4.5-9.2
		c-2.8-4.2-3.7-8.2-3-12.3c0.2-0.9,0.3-2-0.1-3c-0.2-0.7-0.4-1.4-0.4-2v-9.2C579.9,343.8,579.6,345.7,579.2,347.6z"/>
	<path class="st3" d="M618.7,500.7l0.8-0.1l0.5-0.9c0.1-0.1,0.4-0.4,0.6-0.6c0.1-0.1,0.1-0.1,0.2-0.2c0.4-0.3,0.9-0.6,1.2-0.9
		l0.9-0.7l0-0.2l0.3,0l0.5-0.7c0.1-0.2,0.3-0.3,0.4-0.5c0.2-0.2,0.4-0.4,0.5-0.6c0.4-0.4,0.9-0.8,1.3-1.2c0.8-0.7,1.7-1.4,2.4-2.2
		c3-3.3,5.3-6.2,7.3-8.9c0.7-2.7,1.4-5.3,2.1-8c0.1-0.3,0.1-0.6,0.2-1c0.1-0.2,0.1-0.5,0.2-0.7c1.4-5.7,2-11.3,1.5-17.1
		c-0.4-4.7-0.5-9.5-0.8-14.1c-0.1-1.6,0.4-3,0.2-4.6c-0.5-3.2-1.3-6.4-3-9.2c-1.8-3.1-3.7-6.2-6.1-9.3c-0.3,1.6,0,2.7,0.1,3.7
		c0.5,3.6,1.2,7.1,0.4,10.7c-0.7,3.6-1.7,7.1-3,10.6c-0.6,1.6-1.4,3.2-2.5,4.6c-1,1.3-2.2,2-3.9,1.7c-1.7-0.3-2.4-1.6-2.9-3.2
		c-0.6-2.2-0.6-4.5-0.4-6.8c0.1-0.5,0.1-1,0.2-1.5c0.1-0.4,0.1-0.9,0.2-1.3l-2.2,1.8c-0.7,0.6-1.3,1.2-1.9,1.8
		c-0.6,0.6-1.1,1.2-1.6,1.8c-1.1,1.4-2.2,2.6-3.6,3.4c-0.3,0.2-0.5,0.3-0.8,0.5c0.1,0.1,0.1,0.2,0.2,0.3c0.2,0.4,0.4,0.7,0.5,1.2
		c1.3,3.3,0.3,6.9-2.4,8.9c-1.1,0.8-2.1,1.7-3.1,2.7c-1.5,1.6-3.3,2.2-5.4,1.9c-1.4-0.2-1.7,0.1-1.4,1.5c0.1,0.6,0.4,1.3,0.7,1.8
		c1.4,2.4,3,4.7,5.1,6.6c0.7,0.6,1.6,1.3,2.2,2.1c1.1,1.4,2.2,2.4,3.7,3.3c1.5,0.8,2.7,2.3,3.2,4c1.5,4.5-1.6,8.9-6.6,9.7
		c-2.8,0.4-4.2-0.4-5.1-3.1c-0.2-0.8-0.6-1.4-1.4-1.8c-0.7-0.4-1.5-0.8-2.2-1.4c-9.1-5.9-14.3-14-14.3-25.2c0-1,0.1-1.9-0.4-2.8
		c-1.6-2.5-3.3-4.9-6.6-5.4c-2.8-0.4-5-1.9-6.7-4.2c-1.4-1.9-2.9-3.8-3.9-5.9c-0.8-1.8-2-2.9-3.9-3.3c-0.5-0.1-1.1-0.4-1.6-0.6
		c-1-0.4-1.9-0.3-2.8,0.2c-2.5,1.5-5.3,2-8.3,1.7c-0.3,0-0.6,0-0.8,0.5c0.4,1.2,1.5,2,2.5,2.9c2.5,2,5.1,4.1,7.6,6.2
		c1.8,1.5,3.5,3.1,4.8,5c4.5,6.5,8.5,13.2,10.4,20.9c1.4,5.4,3.9,10.1,7.8,14.1c4.8,5.1,9.7,10.1,14.6,15.2c1.1,1.2,2.3,2.1,3.7,3
		c1.3,0.7,2.7,1,4,0.1c1.5-0.8,3.1-1.5,4.7-1.9c2.7-0.7,5-0.5,7,0.3c0.2,0.1,0.4,0.2,0.6,0.3c0.5,0.3,0.9,0.6,1.3,0.9l0-0.2
		c0.1-0.3,0.1-0.6,0.2-1c0-0.1,0-0.3,0.1-0.4l0.1-0.5l-0.1-0.5l0.4-0.2l0.2-0.8c0.1-0.2,0.3-0.4,0.6-0.7c0.1-0.1,0.2-0.2,0.4-0.2
		l0,0l0.9-0.4L618.7,500.7z"/>
	<path class="st3" d="M304.1,533.8c-3.3-7.3-5.9-14.9-8.2-22.5c-0.2-0.7-0.2-1.7-1.1-2.3c-0.3,0.6-0.5,1.1-0.6,1.5
		c-4.9,13.7-7.1,27.9-7,42.6c0.1,7.1,1.1,14.2,1.8,21.2c0.8,7.8,1.6,15.5,0.1,23.2c-0.6,2.8-0.9,5.6-1,8.4c0,0.6,0,1.1,0,1.7
		c0,0.4,0,0.8,0,1.2c1.4,0.8,2.8,1.6,4,2.4l2.1,1.4l2.1,1.5l1.1,0.7l0.5,0.4l0.3,0.2c-0.5-2.3-1.1-4.8-1.4-7.1
		c-1.4-10-0.7-19.9,1.1-29.7c0.4-2.2,1.2-4.5,2-6.6c1.7-4.2,4.1-8.1,7.4-11.4c1.5-1.5,2.8-3.2,2.7-5.4c-0.1-5.5-0.5-10.9-3.4-15.9
		C305.7,537.4,305,535.6,304.1,533.8z"/>
	<path class="st3" d="M490.1,504.2c-2.4-0.7-4.4-2.3-5.6-4.6c-0.3-0.6-0.6-1.3-1-1.9c-0.6,0.2-0.8,0.6-1.1,1.1
		c-1.6,2.7-3.1,5.4-4.7,8.1c-1.3,2.1-2.5,4.2-3.8,6.4c-0.3,0.5-0.5,1-0.3,1.5c1.4,0.7,3,1.1,4.8,1.3l0.2,0c0.1,0,0.2,0,0.4,0.1
		l0.9,0.2l0.6-0.2c0.2-0.1,0.6-0.2,0.9,0l0.7,0.3l0.7-0.2c0.5-0.1,1.1-0.1,1.8-0.1h1.3l0.1-0.3l0.1,0c1-0.3,2.1-0.6,3.1-0.9
		c1.1-0.3,2.2-0.6,3.2-0.9l1.4-0.4c2.5-0.7,5.1-1.4,7.7-1.8l1-0.1l0.1-0.1l3.6-0.6c3.9-0.7,8.5-1.6,13.3-1.9
		c5.5-0.4,10.8,0.4,15.5,2.3c1.8,0.7,3.7,1,5.7,0.9c0.4,0,1,0,1.6-0.3l0.6-0.3c-0.4-0.2-0.7-0.5-1.1-0.8
		c-6.6-4.7-11.2-10.6-10.9-19.4c0.1-1.7,0-3.5-0.5-5.2c-0.3-1.2-0.6-2.3-1.8-3c-3.6-2-7.3-3.5-11.6-3.2c-4.4,0.3-8.6,1-12.7,2
		c-1.3,0.3-2.1,0.6-2.2,2.2c-0.1,1.1-1.1,1.9-1.9,2.7c-1.1,0.9-2.1,1.8-3.2,2.5c-1.7,1.2-2.2,2.7-2,4.6c0.1,1,0.3,1.9,0.4,2.9
		c0.1,1.1,0.3,2,0.3,3.1C495.6,503.1,492.9,505,490.1,504.2z"/>
	<path class="st3" d="M572.9,126.9L572.9,126.9c3.4,2.5,7.2,3.8,11.2,3.8c0.7,0,1.4,0,2.1,0c1.9-0.1,3.7-0.1,5.5,0.3
		c2.1,0.5,4.1,0.8,6.2,1.1c3,0.4,5.8,0.9,8.5,1.8c1.1,0.4,1.7,0.9,2.3,1.9c0.1,0.2,0.3,0.5,0.4,0.7c0,0.1,0.1,0.1,0.1,0.2
		c0.8-0.5,1.7-0.9,2.7-1.1c0.1,0,0.1,0,0.2,0c2.9-0.7,5.5-0.2,8.3,0.6c0.8,0.3,1.6,1,2.7,0.7c-0.1-0.2-0.1-0.2-0.1-0.3
		c-0.2-0.2-0.3-0.5-0.5-0.7c-5.6-7-8.7-15.2-10.1-24c-0.4-3-0.8-5.8-2-8.6c-1.3-3.2-2.5-6.4-3.8-9.6c-0.2-0.4-0.4-0.8-0.6-1.3
		c-0.3-0.5-0.7-1-1-1.5l-0.4,0.2c-1.7,0.6-3.1,1.7-4,3.1c-1.6,2.6-3.7,3.8-6.8,3.9c-1.4,0-2.9,0-4.6,0.5c0,0-0.1-0.1-0.1-0.1
		c-0.9-0.8-1.8-1.5-2.7-2.3c-0.5-0.4-1-0.8-1.4-1.2c-1.6-1.4-3.4-2.4-5.1-3.4c-1.9-1.1-3.7-2.2-5.2-3.7l-0.2-0.2
		c-0.7-0.5-1.5-1-2.6-1.3l-0.1,0c-1.6-0.4-3-0.5-4.2-0.2l-1.8,0.4c0.8,0.9,1.5,1.8,2.2,2.7c0.5,0.8,1.1,1.6,1.6,2.4
		c1.4,2.3,2.1,4.7,1.6,7.3c-0.2,1.1,0.2,1.9,0.3,2.9c0.6,4.8-2.9,8.7-7.6,7.9c-1.2-0.2-2.4-0.4-3.6-0.6c-0.7-0.1-1.3-0.3-2-0.4
		c0.2,0.7,0.4,1.4,0.8,2C563.1,117.7,567.5,122.8,572.9,126.9z"/>
	<path class="st3" d="M715.3,186c-3-9.5-6.3-18.9-10-28.2c-0.7-1.8-1.7-3.4-3.3-4.8c-0.3,1.1,0,1.9,0.1,2.8c1,5.1,1.9,10.1,2.9,15.1
		c0.3,1.7,0.5,3.3,0.6,5c0.2,1.6-0.1,3.1-0.7,4.5c-0.4,1.1-1.3,2-2.1,2.7c-0.5,0.4-1.1,0.6-1.7,0.8v0.7l0.3,0.1
		c0.2,1.1,0.4,2.1,0.6,3.2c0.2,1.1,0.4,2.3,0.6,3.4l0.2,1l0,0c0.1,0.5,0.2,1,0.2,1.4v1.1l0.2,0.1l0.1,0.3c0.1,0.5,0.1,1,0.1,1.8
		v24.8c0.1,0.1,0.2,0.2,0.3,0.3c0.6,0.6,1.1,1.3,1.5,1.9c0.8,1.2,1.5,2.4,2,3.8c2.7,6.2,4.2,12.6,5.2,19.3c0.1,0.7,0,1.6,0.6,2.2
		c0.6-0.5,0.7-1.4,1-2.1c2.3-7.8,3.4-15.6,4.1-23.6c0.5-5.1,0.7-10.2,0.6-15.3C718.6,200.7,717.5,193.3,715.3,186z"/>
	<path class="st3" d="M371.3,394.7c4.7-3.6,8.8-7.8,13-12c2.9-2.9,4.8-6.6,4.6-11.2c-0.2-4,0.1-8.2,1.3-12.1
		c1.3-4.4,2.7-8.8,4.2-13.1c0.4-1.2,0.8-2.2,1.4-3.4c0.3-0.8,1-1.8,1.5-2.7c0.4-0.6,0.9-1.1,1.6-1.2l0.8-2.1l-6.9,6.9
		c-0.3,0.3-0.7,0.7-1.1,1.3c-1.8,2.5-3.9,5-7.1,6c-0.9,0.3-1.8,0.8-2.9,1.6c-1.6,0.9-3.1,1.4-4.7,1.5c-5.3,0.3-9.3,1.8-12.2,4.6
		c-0.2,0.2-0.6,0.2-0.7,0.1c-0.1,0-0.6-0.2-0.9-0.7l-0.1-0.1c-0.1-0.2-0.2-0.5-0.3-0.9c-0.1-0.3-0.2-0.6-0.3-0.9
		c-0.4-1.2-1.2-2.2-2.1-3l-0.4-0.3c-0.3,1-0.6,1.9-0.8,2.9c-0.2,1-0.4,2.1-0.5,3.2c-0.2,2.9-0.2,5.7,0.6,8.5
		c0.6,1.9,1.3,3.9,1.8,5.9c1.4,4.7,1.6,9.3,0.3,14.1c-1,3.7-1.5,7.4-1.7,11.2c0,0.8-0.2,1.8,0.2,2.7c0.7-0.2,1.1-0.6,1.4-1.1
		c1.4-1.5,3.1-2.5,5-3.2C368.1,396.9,369.8,395.9,371.3,394.7z"/>
	<path class="st3" d="M355.7,156.9c1.6-4.2,4.5-7.7,7.8-11.6l0.6-0.7c2.4-2.9,4.7-5.7,7.7-7.9c1.6-1.2,3.2-2.4,4.7-3.6
		c0.8-0.7,1.7-1.3,2.5-2c0.8-0.6,1.6-1.3,2.4-1.9c2.7-2.2,5.2-4.3,8.2-5.6c1.8-0.8,3.7-1.6,5.4-2.4c2.6-1.2,5.3-2.4,8-3.5l0.9-0.4
		c1.3-0.6,2.6-1.1,3.9-1.3c0.3-0.7,0.9-1.1,1.7-1.1c0.1,0,0.2,0,0.3,0c0.2,0,0.3,0.1,0.4,0.1c1.2,0.4,2,0.1,3-0.3
		c0.3-0.2,0.6-0.3,1-0.5c1.5-0.8,2.9-1.9,4.1-3.1c2.1-1.9,4.2-3.9,6.5-5.7c3-2.4,3-2.7-0.3-4.7c-0.7-0.5-1.6-0.8-2.3-1.3
		c-1.2-0.5-2.4-1.1-3.5-2c-0.8-0.7-1.6-0.5-2.3,0.1c-3,2.3-6.3,3.9-9.7,5.3c-5.1,2.1-9.8,5-13.9,8.7c-1.1,0.8-2.1,1.7-3.2,2.5
		c-2.2,1.6-4.7,2.4-7.4,1.8c-1-0.2-1.5,0-2.1,0.6c-3.9,4.2-8.1,8.3-11.4,13c-5,7.1-10.2,14.2-14.2,22.1c-1.3,2.5-2.2,5.1-3,7.8
		c-0.1,0.4-0.2,0.9-0.3,1.3l0.5-0.1C353.6,159.9,355.1,158.7,355.7,156.9z"/>
	<path class="st3" d="M420.4,288.1c0.3,0.8,0.6,1.7,1.4,2.4l1.1,1.1c0.1-0.5,0.2-0.9,0.4-1.4c0.3-1.4,0.7-2.9,1.3-4.2
		c1.7-4.9,5.2-8.1,9.1-10.9c1.7-1.3,3.7-1.2,5.1,0.6c1,1.3,1.8,1.1,3,0.5c3.5-1.4,7.2-1.7,10.7-2.5c2.4-0.5,4.9-0.7,7.3-1.1
		c8.2-1.1,16.4-1.7,24-5.1c1.3-0.6,2.5-1.2,3.6-2.1c0.1-0.1,0.2-0.1,0.3-0.2c0.6-0.6,1.2-1,2-1c0-0.1,0-0.1,0-0.2
		c1.1-5.1,0-9.1-3.6-12.5c-3.6-3.4-7.9-5-12.9-5c-3.8,0-7.1,1.3-10.4,2.8c-1.7,0.8-3.7,1.6-5.7,2.1c-6,1.5-13.8,3.8-20.9,8
		c-0.4,0.2-0.7,0.5-1,0.8c-1,1-2,1.9-3.2,2.9c-0.8,0.7-1.6,1.5-2.2,2.1c-1.2,1.2-2.2,2.5-3,3.7c-0.9,1.3-1.7,2.4-2.5,3.4
		c-1.1,1.3-1.6,2.9-2,4.3c-0.2,0.6-0.3,1.2-0.5,1.6c-1.2,2.6-1.7,5.6-1.5,8.5l-0.2,0.2L420.4,288.1z"/>
	<path class="st3" d="M421.7,495.8c4.5-0.2,8.5-1.5,10.9-5.7c0.3-0.5,0.7-1,1.1-1.4c1.6-1.7,3.2-3.4,5.7-3.5c0.7,0,1-0.5,1.2-1.1
		c2-5.2,4.9-9.9,6.8-15.1c1.2-3.2,1.3-3.2-2-3.6c-0.4,0-1-0.1-1.4-0.2c-2.3-0.6-4.5,0-6.2,1.6c-2.7,2.5-5.3,5.2-7.9,8
		c-1.1,1.1-2.1,2.2-3.3,3.2c-0.7,0.6-1.6,1.3-2.4,1.8c-0.1,0-0.1,0.1-0.2,0.1c-0.1,1.2-0.1,2.3,0.2,3.6c0.1,0.3,0.1,0.5,0.2,0.8
		c0.2,0.8,0.5,1.9,0.4,2.2l-0.3,0.9c-0.9,3-1.7,5.5-4.1,7.1c-0.8,0.4-1.1,1.1-1.3,1.4l-0.1,0.2c0.7-0.1,1.3-0.1,2-0.2
		C421.3,495.8,421.5,495.8,421.7,495.8z"/>
	<path class="st3" d="M420.9,465.2c0.4,0.3,0.6,1,1.4,1.1c3.1-2.7,6.3-5.3,9.3-8.1c3.8-3.4,8.1-6.2,12.9-8.2
		c1.3-0.5,2.4-1.3,3.3-2.5c-3.9-1.3-6.1-4.4-8-7.5c-1-1.6-1.5-1.8-3.3-1.2c-1.8,0.6-3.2,1.9-4.6,3.1c-2.3,2-4.9,3.3-7.6,3.9
		c-0.9,0.2-1.8,0.3-2.7,0.4l-0.1,0.6c-0.1,1.1-0.2,2.3-0.2,3.4c0,0.5-0.1,1-0.2,1.5c-0.2,1.1-0.4,2.3-0.3,3.7c0.3,2-0.3,3.7-2.3,5.8
		c-0.5,0.6-1,1.3-1.4,2c0.7,0.1,1.3,0.4,1.9,0.7C419.7,464.2,420.4,464.7,420.9,465.2z"/>
	<path class="st3" d="M491.5,113.4c0.6,1.6,0.8,3.2,1,4.9c0.2,3.7,1.1,7.1,2.7,10.4c1,2,1.9,4.1,2.9,6.3c1.6,3.4,4.4,5,8.1,4.8
		c2.1-0.1,4.2-0.2,6.3-1.2c2-1,4-1.3,6.5,0.1c-0.3-1.7-0.6-3.1-0.8-4.5c-0.7-4.2-1.3-8.6-0.2-12.9c0.7-3.1,2-5.8,4.1-8.2
		c0.2-0.2,0.4-0.5,0.6-0.7c0.5-0.4,0.9-0.8,1.4-1.1c0.1-4.4-0.5-8.3-1.9-11.9c-1.6-4.1-4.1-6.6-7.7-7.6c-1.6-0.5-3.2-0.3-4.5,0.8
		c-0.9,0.8-2.2,1.9-3.1,3.3c-1.3,2.1-2.4,4.3-3.5,6.5c-1.1,2.3-3,3.7-5.8,4.4c-0.3,0.1-0.7,0.1-1,0.2c-0.7,0.1-1.4,0.3-2.2,0.5
		c-1.6,0.4-3.2,1.1-4.8,2l-0.5,0.3c0.7,0.6,1.3,1.4,1.8,2.3C491.1,112.5,491.3,112.9,491.5,113.4z"/>
	<path class="st3" d="M563.1,266.9c-2.7-1.6-5.1-3.4-7.7-5.4c-1.4-1-2.8-2.1-4.2-3.1c-6-4.3-10.8-7.2-15.8-9.4c-2.4-1-5.1-1.9-8-1.4
		c-2.9,0.4-6.3,2.7-6.8,5.9c-0.4,2.6-0.6,6.5,1.7,9.9c0.4,0.6,0.4,0.8,0.2,1.8c-0.2,1-0.4,2.4-0.2,4c0.2,0.1,0.4,0.1,0.6,0.2
		c0.5,0.2,1.1,0.4,1.5,0.7c1.1,0.6,2,1.3,3.1,1.9c1.2,0.7,2.3,1.3,3.8,1.7c3,0.6,5.7,1.7,8.4,3.3c2,1.2,4.1,1.9,6.6,1.8
		c2,0,3.8,0.4,5.6,1.2c1,0.3,1.4,0.1,1.7-0.8c0.6-1.6,1.4-3.1,2.1-4.6c2-3.8,5-4.5,8.5-2c0.6,0.5,1.3,1.1,1.8,1.6
		c1.2,1.2,2.2,2.4,3.1,3.9c1.1,1.8,2,3.6,2.8,5.5l3,3.7l-7.1-15C566.9,270,565.2,268.2,563.1,266.9z"/>
	<path class="st3" d="M420.7,133.6L420.7,133.6c-7.3,1-12.9,3.9-17.3,8.8c-0.5,0.5-0.8,1-1,1.5c-0.2,0.3-0.4,0.7-0.6,0.8l-0.1,0.1
		c-1,0.8-1.7,1.6-2.3,2.4l-2.4,3.3c1.1-0.2,2.2-0.5,3.2-0.8c0.3-0.1,0.7-0.2,1.1-0.3c5.6-1.7,11.4-1.8,17.1-1.2
		c2.9,0.3,5.7,0.5,8.6,0.8c1.2,0.1,1.9-0.2,2.9-0.8c4.6-3.1,8.3-7,11.8-11.2c3.7-4.5,7.3-8.9,10.9-13.4c1.4-1.8,2.9-3.5,4.4-5.1
		c0.1-0.1,0.2-0.2,0.3-0.3c2.2-2.3,4.6-4.1,7.3-5.4l1-1l-9.2,3.4c-0.9,0.3-1.9,0.7-2.9,1.4c-2.1,1.3-4.1,2.7-6.2,4
		c-2.1,1.4-4.2,2.7-6.3,4c-2.3,1.5-4.5,2.8-6.9,3.2c-1.9,0.3-4,0.9-6.3,1.8c-1.8,0.6-3.9,1.4-5.8,3.4
		C421.8,133.4,421.5,133.5,420.7,133.6z"/>
	<path class="st3" d="M415.3,425.8c-0.4,0.2-0.8,0.4-1.2,0.7c0.4,0.1,0.8,0.3,1.2,0.5c0.1,0,0.2,0.1,0.3,0.2
		c1.2,0.7,1.9,1.7,2.5,2.9c0.7,1.6,0.8,1.7,2.4,0.8c3-1.7,6.3-2.4,9.6-3c1.3-0.2,2.7-0.4,3.8-1.2c2.9-1.8,5.1-4.1,7.1-6.7
		c0.5-0.7,1.1-1.4,1.6-2.1c1-1.2,0.7-2.7,0.6-4.1c0-0.8-0.1-1.7,0-2.4c0.1-0.3,0-0.7,0-1.2c-0.1-0.7-0.3-1.4-0.8-1.9
		c-3.2-3-5.7-6.9-9.8-9c-1.1-0.5-2.1-1-3.3-1.2c-0.5-0.1-1-0.1-1.5-0.1c-0.3,0-0.6,0-0.8,0l-0.3,0.3c-1.5,1.4-2.4,3-2.4,4.5
		c-0.1,1.1-0.2,2.2-0.3,3.4c-0.1,1.1-0.2,2.3-0.3,3.5c-0.3,4.5-0.9,8.8-1.9,13.2c-0.2,0.8-0.4,1.1-1,1.3l-0.7,0.2
		C418.7,424.7,417,425,415.3,425.8L415.3,425.8z"/>
	<path class="st3" d="M717.6,569.4c-0.4-8-1.1-15.9-0.4-23.9c0.2-1.9,0.2-3.8,0.2-5.7c0-8.4,0.3-16.8-1.4-25.1
		c-2.5-12.4-5.7-24.9-10.7-36.7c-2-4.9-4-9.8-5.5-15.1c-0.1-0.5-0.1-1.2-0.8-1.5c-0.8,1.6-1.5,3.3-1.5,5.2c-0.1,7-0.6,14-0.4,21
		c0.1,8.2,0.7,16.4,2.7,24.4c1.2,5,1,10-0.7,14.9c-0.8,2.5-1.6,5.1-3,7.3c-2.9,4.7-4.5,9.7-6.1,14.8c-2.3,7.2-5.9,13.9-10.3,20.2
		c-0.5,0.8-1.4,1.5-0.6,2.8c3.1,5.3,3.9,11.2,4.5,17.2c0,0.3-0.2,0.8,0.5,1c0.4-0.7,0.7-1.6,1.2-2.3c2.2-4.7,4.8-9.1,7.9-13.4
		c2.9-3.8,6.6-6.2,11.5-6.4c0.8,0,1.5,0.1,1.9,0.7c2,2.7,3.6,5.4,3.9,8.8c0.3,4.1,0.4,8.3,0.2,12.3c-0.1,1.3-0.2,2.7-0.3,3.9
		c0,0.1,0,0.1,0.1,0.2c0.2,0.2,0.2,0.5,0.2,0.8l1.9-4.9c0.1-0.4,0.3-0.7,0.5-1.1c0.3-0.7,0.6-1.3,0.8-2.1c1.6-4.1,3.1-8.3,4.5-12.4
		c-0.3-1.2-0.5-2.5-0.6-3.8C717.7,570.3,717.6,569.8,717.6,569.4z"/>
</g>
</svg>
