<?xml version="1.0" encoding="utf-8"?>
<!-- Generator: Adobe Illustrator 24.0.1, SVG Export Plug-In . SVG Version: 6.00 Build 0)  -->
<svg version="1.1" id="Layer_1" xmlns="http://www.w3.org/2000/svg" xmlns:xlink="http://www.w3.org/1999/xlink" x="0px" y="0px"
	 viewBox="0 0 990 781.2" style="enable-background:new 0 0 990 781.2;" xml:space="preserve">
<style type="text/css">
	.st0{fill:#935A08;}
	.st1{fill:#E4706A;}
	.st2{fill:#ACACAB;}
	.st3{fill:#535459;}
	.st4{fill:#FFFFFF;}
	.st5{fill:#D28413;}
</style>
<g>
	<path d="M188.4,731.1c-0.6,1.4-0.8,2.9-1,4.4c-0.7,3.8-3,6.7-5.2,9.6c-1.3,1.7-3.2,1.7-5.1,1.2c-5.6-1.5-10.6-4.1-14.6-8.4
		c-4.2-4.6-8.4-9.2-11.6-14.6c-0.9-1.5-2-2.7-3.5-3.5c-7.9-4.4-13.2-11.2-17.8-18.7c-0.4-0.6-0.7-1.2-1-1.9c-2.8-7.4-5.2-14.9-5-23
		c0.2-9.6,1.4-19,4.6-28c2-5.8,5.2-10.8,9.5-15.1c2.2-2.1,4.4-4.2,6.8-6.1c5.1-4.1,10.3-8.2,15.5-12.1c14.4-11,30.7-17.2,48.7-19
		c14.7-1.5,29.2,0.1,43.6,3.2c7,1.5,13.9,3.5,20.6,6.2c1.7,0.6,1.7,0.6,2.4-1.1c7.2-16.1,15.3-31.7,23.9-47c2.1-3.8,4-7.7,5.3-11.8
		c2.7-8.6,5.4-17.2,6.9-26.2c0.8-5.3,1.2-10.6,1.5-16c0.5-8.1,1-16.1,2.1-24.1c0.4-2.7,0.1-5.4-0.2-8.1c-0.6-4.6-0.3-9.3,0.4-13.9
		c0.3-2,0.2-4-0.5-5.9c-1.9-6.1-4-12.2-6.2-18.1c-3.4-8.9-5-18.1-5.2-27.6c-0.2-11.5-1.3-22.9-5.1-34c-2.6-7.7-4.6-15.6-6.4-23.6
		c-2.8-12.2-4.7-24.5-6.6-36.8c-1.2-7.5-2-15.1-1.8-22.7c0.1-4.5,0.4-8.9,0.6-13.4c0-0.8,0.1-1.6-0.4-2.3c-1.3-2-3.1-2.1-4.7-0.3
		c-3.1,3.5-5.7,7.3-7.9,11.4c-3.1,5.7-7.1,10.7-12,14.8c-3.5,2.9-7.4,5.4-11.9,6.6c-5.9,1.5-11.6,0.8-17.2-1.3
		c-12-4.4-21-12.5-26.7-23.9c-5.2-10.4-9.8-21-13.3-32.1c-1.7-5.3-3.9-10.3-5.6-15.5c-3.8-11.7-6.6-23.6-7.8-35.8
		c-0.7-6.5-0.2-13.1,0-19.7c0.3-7.2,0.5-14.4,1.3-21.5c2.4-22.3,8.4-43.6,19.6-63.2c4.4-7.7,10-14.5,15.6-21.2
		c1.9-2.3,4.5-3.9,7.4-4.7c6-1.8,12.1-3.2,18.4-2.8c3.1,0.2,6.2,0.7,9.3,1c2.5,0.3,5.1,0.5,7.6,0.8c2.2,0.3,4.3-0.2,6.4-0.6
		c14.9-3.3,27.8-10.7,40.3-19c2.1-1.4,4.3-2.8,6.5-4.1c6.8-3.6,14-4.9,21.6-3.3c2.4,0.5,4.7,0.5,7.1,0.2c6.7-0.6,13.4-0.8,20.1,0.1
		c1.3,0.2,2.5,0.2,3.8-0.1c7.6-1.7,14.3,0.3,20.3,4.9c2.4,1.9,4.6,4,6.9,6c2.2,1.9,4.4,3.7,6.7,5.4c1,0.7,1.8,0.9,2.8,0.1
		c11.3-9.2,24.7-13.6,38.6-16.5c8.8-1.8,17.5-3.7,26.4-4.8c5.6-0.7,11.3-1.1,17-0.9c8.1,0.4,16.1,0.7,24.2,1.5
		c13.5,1.3,26.7,3.8,39.8,7.1c11.6,2.9,23.1,2.9,34.4-1.7c7.7-3.1,15.4-2.2,23-0.1c3.5,1,7,2.1,10.7,2.5c5.7,0.7,11.2-0.1,16.6-1.6
		c10-2.8,19.8-2.5,29.4,1.2c2.4,0.9,4.9,0.9,7.3,1.2c4.6,0.5,9.1,1.6,13.5,3.3c3.6,1.4,7.2,2.7,10.9,3.6c4.8,1.2,9.4,3.3,14.2,4.4
		c8,1.9,16,3.2,24.1,3.8s16,2,23.8,4.4c4.7,1.4,9.5,2.8,14.3,4.1c4,1.1,7.9,2.7,11.6,4.6c7.2,3.8,12.9,9.1,16.9,16.2
		c5.5,9.8,10.3,19.9,13,30.8c2.6,10.4,2.7,20.9-0.2,31.3c-2.9,10.4-4.8,21-6.9,31.6c-3,14.6-7.8,28.7-13,42.6
		c-4.1,10.8-8.3,21.6-12.2,32.5c-1.4,3.9-3.1,7.7-5,11.4c-5.7,11-11.8,21.8-18.6,32.2c-5.1,7.8-11.9,13.7-19.9,18.4
		c-5,3-10.6,3.8-16.4,3.9c-5,0.1-9.5-1.2-13.4-4.3c-1.2-1-2.6-1.7-4.2-2.8c-0.4,2.7-0.7,5.1-1,7.4c-0.7,4.9-1.9,9.7-3.2,14.5
		c-2.3,8.5-3.6,17.2-4.7,25.9c-0.3,2.8-1,5.5-1.5,8.3c-0.9,5.5-0.6,11,0.1,16.5c0.6,5.2,1.1,10.5,1.1,15.8
		c0.1,9.9,1.4,19.8,1.8,29.7c0.4,9.2,2.1,18.1,3.9,27c2.1,10,3.3,20.2,5,30.3c1.5,9.1,2.7,18.3,4,27.5c1.4,10.6,4.7,20.7,8.1,30.8
		c3.7,11,7.3,22,10.6,33.1c1.8,6.1,4.8,11.7,8,17.1c0.6,1,1.2,1.2,2.3,1c5.6-1.4,11.2-2.5,16.9-3.3c18.3-2.6,36.3-1.8,53.9,4.5
		c9.5,3.4,18.6,7.7,27,13.4c2,1.3,4,2.6,6,4c11.2,7.9,7.7,4.3,16.3,15.9c3.9,5.2,7.4,10.6,10.4,16.4c5.9,11.4,5.9,14.3,3.7,26.3
		c-1.3,7.3-3.7,14.4-6.4,21.3c-1,2.6-2.6,4.8-4.1,7c-3.8,5.5-8.1,10.5-14.1,13.8c-2.2,1.2-3.8,2.8-5.1,4.9
		c-3.1,5.4-7.4,9.8-11.6,14.3c-3.9,4.2-8.8,6.5-14.3,7.9c-2.6,0.7-4-0.3-5.7-2.3c-2.9-3.5-4.4-7.4-5-11.7c0-0.2-0.1-0.5-0.2-0.7
		c-0.1-0.1-0.2-0.3-0.3-0.4c-0.9,0.1-1.3,0.8-1.9,1.3c-1.7,1.6-3.4,3.3-5.2,5c-1.1,1.1-2.3,2-3.6,2.8c-3.8,2.4-7.5,1.5-9.8-2.4
		c-1.5-2.6-2.2-5.5-2.8-8.4c-0.4-2.2-0.5-4.5-0.3-6.7c0.1-1.6-0.5-2.8-1.8-3.6c-1.7-1.1-3.4-2.1-5.2-2.9c-4.1-1.7-6.7-4.8-8-9
		c-0.8-2.5-1.5-2.6-3.3-0.7c-1.9,1.9-3,4.3-3.8,6.9c-1.2,4.1-3.3,7.8-6.1,11.1c-1.3,1.6-2.8,2.8-4.3,4.1c-3.7,3.2-9,1.4-11.1-1.8
		c-1.9-2.8-3-5.8-3.5-9.1c-0.1-0.7-0.3-1.4-0.3-2.1c0-2.3-1.3-3.6-3.1-4.5c-5.5-2.8-9.6-7.4-13.9-11.7c-1-1-1.8-2.1-2.2-3.4
		c-0.4-1.2-1.2-1.6-2.4-1.5c-0.6,0.1-1.1,0-1.7,0c-141,0-282,0-423,0c-0.6,0-1.3,0.1-1.9,0c-1.2-0.1-1.9,0.3-2.3,1.5
		c-0.6,1.5-1.6,2.8-2.7,3.9c-2.2,2.1-4.4,4.2-6.6,6.3c-1.9,1.8-4.1,3.3-6.5,4.5c-2,1.1-3.3,2.4-3.5,5c-0.3,3.5-1.2,6.9-3.1,10
		c-0.9,1.4-1.8,2.7-3.3,3.4c-2.7,1.4-5.3,1.6-7.9-0.3c-5.3-3.8-8.8-9-10.8-15.2c-0.8-2.3-1.5-4.6-3.1-6.4c-0.3-0.4-0.6-0.7-1-1.1
		c-1.7-1.6-2.4-1.5-3,0.8c-1.4,4.4-4.1,7.5-8.4,9.3c-1.6,0.7-3.1,1.6-4.6,2.5c-1.6,1-2.3,2.2-2.2,4.2c0.4,4.5-0.5,8.9-2.3,13.1
		c-0.6,1.3-1.3,2.6-2.4,3.6c-2.5,2.2-5,2.4-7.9,0.7c-1.9-1.1-3.5-2.5-5.1-4c-1.5-1.4-3-2.9-4.5-4.4
		C189.5,731.7,189.2,731.1,188.4,731.1z"/>
</g>
<g>
	<path class="st0" d="M367.1,320.8c-0.9-0.4-1.8-0.3-2.7,0c-1,0.3-1.9,0.6-2.9,0.8c-2.6,0.6-5.4,0.2-7.9,1.3
		c-0.5,0.2-1.1,0.3-1.5-0.1c-1.8-1.7-4.2-2.1-6.2-3.3c-4.6-2.8-7.6-6.6-7.8-12.2c-0.1-2.8-0.6-5.5-1-8.3c-0.2-1.6-1-3-1.1-4.7
		c-0.4-7.5-7-10-12.4-8.6c-1.7,0.4-3.3,0.7-5,0.7c-1.4,0-2.7,0-4.1,0c-1.8-0.1-3.1,0.7-4.1,2.1c-0.6,0.9-1.2,1.8-1.6,2.9
		c-1.4,4.2-1.9,8.5-1.8,13.1c-0.2,5.9,0.9,11.6,3.3,17.1c1.2,2.7,2,5.6,1.8,8.6c-0.1,1.6,0.3,3,0.8,4.5c1.3,4,2.6,8,4,12
		c1.2,3.4,2.8,6.7,4.8,9.7c0.9,1.4,1.6,2.8,2.1,4.3c1,2.9,2.5,5.6,4.9,7.6c3.3,2.7,7.1,4.1,11.3,2.3c2.4-1,4-3.1,5.3-5.3
		c2.3-3.9,5.4-6.4,10-7.2c6.5-1.2,10.6-8.3,9.4-14.7c-0.4-2.1-1.2-4.3-0.6-6.5c0.9-4,1.9-8.1,3.5-11.9c0.2-0.5,0.4-1.1,0.6-1.7
		C368.7,322.1,368.2,321.3,367.1,320.8z"/>
	<path class="st0" d="M668.3,308.2c-0.1-3.7-1-7.4-4.2-10c-1.4-1.1-2.2-2.8-3.3-4.2c-1.1-1.4-1.3-2.8-0.9-4.5
		c0.5-2.2,0.8-4.4,0.4-6.7c-0.4-2.4-1.7-4.4-3.4-5.8s-3.9-2.2-6.2-2.2c-1.4-0.1-2.6,0.4-3.7,1.1c-0.4,0.3-0.7,0.5-1,0.8
		c-1.5,1.4-2.7,3-3.9,4.6c-3.2,4.5-6.3,9.2-9.5,13.7c-2.8,4-6.3,7.2-11.2,8.7c-1.8,0.6-3.6,1.5-5.4,2.3c-1.2,0.5-1.9,1.6-2.4,2.8
		c-0.9,2.2-0.4,4.1,0.8,6c1.7,2.9,4.5,4.5,7.3,6.1c2,1.1,3.7,2.3,5.2,3.9s1.3,2.3-0.8,2.8c-1.4,0.4-2.7,1-3.7,2.1
		c-0.8,0.9-1.7,1.7-2.5,2.5c-0.9,1-1.9,1.5-3.3,1.5c-2.4-0.1-4.9,0.2-7.3,0.4c-3.9,0.3-6.8,2.4-9.8,4.4c-1.4,1-1.8,2.6-1.6,4.3
		c0.1,0.6,0.3,1.3,0.9,1.4c2.1,0.5,3.3,2.3,5.1,3.1c3.8,1.7,7.5,3.5,10.3,6.8c0.7,0.8,1.8,1.3,2.6,2c1.4,1.1,2.7,2.3,3.7,3.8
		c0.9,1.4,1.9,2.8,2.8,4.2c0.4,0.6,0.8,1.1,1.3,1.6c1,0.9,2,0.5,2.2-0.8c0.1-0.9,0.1-1.9,0.1-2.8c-0.1-1.6,0.3-2.7,1.5-3.8
		c4.1-3.6,6.4-8.2,7.6-13.4c0.3-1.1,0.7-2.1,1.6-2.8c1.9-1.6,2.9-3.7,3.6-6c0.5-1.6,1-3.2,1.4-4.9c0.2-0.6,0.2-1.3,0.9-1.4
		c0.8-0.1,1.6,0.3,1.9,1c0.4,0.7,0.6,1.6,0.8,2.4c0.2,1.4,0.5,2.8,1,4.2c1.4,3.7,5.1,5.7,8.9,3c1.1-0.8,2.2-1.6,3-2.7
		C665.7,329.1,668.7,319.1,668.3,308.2z"/>
	<path class="st0" d="M443.3,238.2c-2.4,0.1-4.4,1.2-6.1,2.8c-2.3,2.2-4.4,4.4-6.7,6.6c-0.6,0.6-1.1,1.3-2.1,1.3
		c-1.8-0.1-3.6,0.5-5.3,0.4c-3.1-0.1-5.3,1.3-7.3,3.4c-1.4,1.4-2.8,2.7-4.5,3.6c-3.6,2-6.9,4.3-9.6,7.4c-1.8,2-3.3,4.2-4.9,6.4
		c-3.7,5.1-6.6,10.3-7.2,17c-0.5,6-0.6,12.1-1.2,18.2c-0.4,3.4-0.6,6.9-1.4,10.3c-0.3,1.1-0.3,2.2-0.2,3.3c0.2,2,1.1,3.5,3.1,4.3
		c2.6,1.1,5.7,0.6,7.7-1.4c1.2-1.2,2.1-2.6,2.9-4.1c1.9-3.7,3.8-7.4,5.8-11c3-5.5,7.2-9.6,13.5-11.1c2.2-0.5,4.5-0.9,6.7-1.3
		c6.1-1.2,9.2-5.7,7.9-11.4c-0.6-2.6-0.7-5.4-1.7-7.9c-0.3-0.8-0.2-1.6,0.4-2.4c2-2.6,4.2-5.1,6.8-7.1c6.5-5,9.7-11.5,9.9-19.1
		c0-1,0-1.5,0-2C449.6,240.2,447.3,238.1,443.3,238.2z"/>
	<path class="st0" d="M583.4,297.8c-2.1-3.1-4.8-5.4-8-7.3c-2.4-1.4-4.3-3.2-5.6-5.7s-2.5-5-3.5-7.6c-1.3-3.4-2.2-7.1-5-9.8
		c-0.5-0.4-0.5-1.1-0.6-1.6c-0.7-2.3-1.4-4.6-3.2-6.3c-3.1-3-5.4-6.4-7.2-10.3c-1.4-2.9-3.2-5.6-5.7-7.7c-4.1-3.4-8.4-3.1-11.3,1.6
		c-2.2,3.5-1.5,7.1,0.6,10.2c1.6,2.4,1.8,4.6,1,7.1c-0.5,1.5-1.1,3-1.9,4.4c-1,2-1.7,4-2.2,6.2c-0.7,2.9,0.1,5.2,2.3,7
		c2.1,1.8,4.6,1.6,6.9,0.6c2.8-1.1,2.8-1.2,4.2,1.3c0.3,0.6,0.7,1.2,1.1,1.7c0.8,1.1,0.9,2.2,0.5,3.6c-0.7,2.7-1.7,5.3-1.7,8.6
		c0,2.2,0.8,4.5,2.2,6.7c1.3,2.1,3.4,3.2,5.3,4.7c2.7,2.2,5.8,2.5,9,2.1s6.4-0.5,9.2,1.7c0.8,0.6,1.7,1.1,2.8,1.2
		c1.8,0.1,3.1,1.1,4.5,2.2c1.9,1.5,3.6,3.4,6.3,3.5c0.5,0,0.8,0.3,1,0.7c0.4,0.5,0.8,0.9,1.5,0.7c0.8-0.3,1-0.9,0.9-1.6
		c-0.1-1.5,0.2-2.8,0.9-4.2c0.2-0.5,0.2-1.2,0.2-1.7C587.6,305.4,585.8,301.5,583.4,297.8z"/>
</g>
<g>
	<path class="st1" d="M545.2,473.4c-0.1-2.4-1-3.6-3-4.6c-3.3-1.6-6.6-3.2-9.4-5.5c-6.6-5.5-14.1-9.6-21.9-13.2c-4.4-2-8.5-4.6-12-8
		c-0.5-0.4-0.8-1.1-1.6-1c-0.3,0.4-0.3,0.8-0.3,1.2c-1.1,13.6-1.6,27.2-1.7,40.8c0,4.7-0.1,9.5,0.8,14.2c0.2,1.2,0.3,2.5,0.4,3.8
		c0.1,2.2-0.3,4.2-1.6,6c-1.6,2.1-4.1,2.2-5.8,0.2c-0.9-1.1-1.4-2.3-1.6-3.7c-0.5-2.4-0.4-4.9-0.2-7.3c0.4-6.8,1-13.5,1.2-20.3
		c0.4-11.4,0-22.9-1.3-34.2c-0.1-0.5,0.1-1.2-0.6-1.6c-3.1,0.9-6.1,2.3-9,3.7c-7.6,3.8-14.2,9.1-20.3,15.1c-1.8,1.8-3.6,3.6-5.6,5.2
		c-3.4,2.7-7,5-11.1,6.6c-2.4,0.9-2.4,0.9-1.9,3.3c0.8,4.4,0.8,8.9,0.3,13.4c-0.3,3.4-0.6,6.8-0.6,10.1c-0.1,5,0.7,9.8,3.1,14.2
		c5.9,11,14.5,19.1,26.3,23.5c2.9,1.1,5.9,2.1,8.8,3.2c8.4,3.3,17.1,3.3,25.8,1.5c9.7-2,18.8-5.5,26.9-11.4c1-0.7,1.9-1.4,3-2
		c5.5-3,8.5-7.6,9.8-13.8C544.7,499.9,545.9,486.7,545.2,473.4z"/>
</g>
<g>
	<path class="st2" d="M381.8,647.4c-0.1,0-0.1-0.1-0.2-0.1c-0.3-0.2-0.5-0.5-0.6-0.8c-0.1-0.4-0.3-0.9-0.5-1.3
		c-2.6-4.7-5-9.4-7.1-14.3c-0.1-0.2-0.2-0.5-0.4-0.8c-0.9-1.8-1.5-3.8-3-5.2c-0.5-0.5-0.9-1.1-1.7-0.7c-0.7,0.4-0.6,1.1-0.4,1.8
		c0.8,2.1,1.2,4.4,1.5,6.7c0.7,4.1,0.7,8.1-1.6,11.8c-1.3,2.1-4.2,3.7-6.2,3.1c-4.3-1.3-8.6-2.7-12.7-4.5c-1.1-0.5-2.1-1-2.9-2
		c-2.3-2.7-4.5-5.5-6.8-8.2c-4.2-4.7-7.3-10-9.7-15.7c-4.1-5.1-7.3-10.7-9.7-16.9c-4.1-10.4-6.9-21.2-9.5-32.1
		c-0.1-0.5,0-1.2-0.9-1.5c-1,2.3-2,4.6-3.1,6.9c-3.9,8.5-7.8,17.1-11.8,25.6c-0.7,1.6-0.7,2.8,0.4,4.2c3.1,3.8,4.4,8.3,4.8,13.2
		c0.1,1.5,0.1,2.9,0,4.3l0,0l1,0.8l1.9,1.6c0.6,0.5,1.2,1.1,1.9,1.7l0.9,0.8l0.5,0.4l0.5,0.4c1.2,1.2,2.4,2.3,3.6,3.5
		c0.6,0.6,1.2,1.2,1.7,1.8l1.7,1.8c0.3,0.3,0.6,0.6,0.8,0.9l0.8,0.9l1.6,1.9c1.1,1.3,2.1,2.6,3.1,3.9c2.7,3.4,5.2,6.8,7.6,10.3
		c0,0.1,0.1,0.1,0.1,0.2c0.6,0.8,1.2,1.6,1.7,2.4c0.2,0.3,0.4,0.6,0.5,0.9c0.5,0.8,1.1,1.5,1.6,2.3c1.9,2.7,3.7,5.4,5.7,8.1
		c0.2,0.3,0.4,0.6,0.7,0.9l0.1,0.1c0.5,0.5,1,1,1.6,1.5c0.9,0.8,1.9,1.6,2.9,2.3c0.2,0.1,0.3,0.2,0.5,0.3c0.1,0,0.1,0.1,0.2,0.1H398
		c-4.6-5.2-8.7-10.8-12.4-16.8C384.3,651.7,383,649.6,381.8,647.4z"/>
	<path class="st2" d="M430.4,510.7c-1.2-1-2.5-1.8-3.8-2.4c-3.5-1.7-3.9-1.6-5.9,1.8c-0.6,1.1-0.9,2.1-0.3,3.3
		c0,0.1,0.1,0.1,0.1,0.2c0.8,1.4,1.5,2.9,2.2,4.4c0.6,1.2,1.3,2.3,2,3.4c4.3,6.5,8.5,13.1,12.3,19.9c1.6,2.8,3.4,5.2,5.6,7.4
		c0.6-0.4,0.9-1.2,0.8-2.1c-0.1-0.8-0.5-1.4-0.9-2.1c-2.7-3.9-3.9-8.4-4.6-13c-0.2-1.2-0.1-2.5,0.1-3.7c-4.1-2.2-6.5-7.2-5.6-11.7
		C432.8,513.9,432.1,512.1,430.4,510.7z"/>
	<path class="st2" d="M612.4,496.9c0.6-0.8,1.1-1.8,2-2.3c1.8-1,3.1-2.4,4.3-3.9c4-4.8,8.6-8.9,13.5-12.7c1.9-1.5,2.3-1.4,3.4,0.7
		c1.7,3.3,2.8,6.9,4.1,10.4c0.1,0.2,0.1,0.3,0.2,0.5c1.4-4.1,2.2-8.4,2.6-12.8c1.6-17.7,9-33.2,19.4-47.4c1.8-2.4,3.7-4.7,6.5-6
		c0.7-0.3,1-0.9,1.2-1.5c0.8-2.9,2.4-5.4,4.5-7.6c1.1-1.1,1-2.1,0.5-3.4c-1.5-3.8-3.6-7.3-6.1-10.5c-2.8-3.6-2.8-3.5-7.4-2.8
		c-3.6,0.5-5.7,2.4-7,5.8c-3,8.4-6,16.9-8.6,25.5c-4.6,15.9-11.2,31-20.1,45.1c-4.7,7.5-10.3,14.3-15.3,21.6
		c-5.1,7.4-11,13.9-18,19.5c-4.8,3.8-8.6,8.3-11.5,13.7c-1.8,3.4-3.8,6.8-6.1,10c-2.9,4-5.6,8.1-8.2,12.2c-1.7,2.7-3.7,5.2-5.8,7.7
		c-9,10.6-21.1,16.4-33.3,22.3c-0.5,0.2-0.9,0.4-1.4,0.5c-24,7.9-46.7,5-68.3-7.9c-0.6-0.3-7.8-4.2-9.6-4.9c-3.9-1.6-7.3-4-10.2-6.9
		c-2.9-2.9-5.5-6-7.7-9.4c-2.8-4.2-5.8-8.3-9.4-11.9c-1.4-1.4-2.7-3.1-3.9-4.7c-3.2-4.3-6.3-8.6-9.4-12.9c-2.3-3.2-4.4-6.4-5.6-10.2
		c-0.3-1-1-1.6-2-2.1c-5.7-2.9-10.6-6.9-14.8-11.8c-1.1-1.3-2.1-2.5-3.2-3.8c0.4,1,1,2,1.7,3c2.5,3.9,5,7.8,7,12
		c1,2,1.6,4.1,1.6,6.3c0.2,9.4,1.7,18.6,3.4,27.9c0.9,5.1,1.7,10.3,1.8,15.6c0,1.3-0.2,2.3-1.3,3.1c-0.8,0.6-1.4,1.4-1.8,2.4
		c1.6,7.2,4,14.2,7.7,20.7c4.4,7.6,3.5,15.3-0.1,22.9c-1.6,3.5-4.3,5.9-8.4,6c-0.8,0-1.5-0.1-2.2-0.2c-0.1,5.8,0.3,11.6,0.9,17.4
		c0.9,8.9,2.8,17.5,6,25.8c0.1,0.4,0.3,0.8,0.5,1.2c0.1,0.1,0.3,0.2,0.5,0.3c3,1.4,5.6,3.5,8.1,5.7c2.4,2.1,4.9,3.9,7.5,5.7h121.5
		c-1.5-2.9-3.9-5.1-7.6-6.2c-1.3-0.4-1.9-1.1-2.2-2.5c-0.8-3.6-1.8-7.2-3.1-10.7c-1.2-3.2-1.6-6.6-1.3-10c0.2-2.6,0.7-5.2,1.2-7.8
		c1.5-7.7,3.2-15.4,4.6-23.1c0.5-2.8,1.3-5.7,0.5-8.5c-0.4-1.3,0.1-1.9,1.2-2.2c6.4-1.9,12-5.4,17.1-9.6c4.8-3.9,9.4-8,13.7-12.5
		c2.5-2.6,4.8-5.4,7.3-8.1c3.9-4.3,7.7-8.7,10.8-13.7c3.8-6.1,7.4-12.3,10.9-18.6c3.2-5.8,6.7-11.6,9.8-17.5
		C602.8,511.8,607.5,504.3,612.4,496.9z"/>
	<path class="st2" d="M672.9,546.7c-4-3.7-7.3-8-10.1-12.7c-0.2-0.3-0.3-0.6-0.8-0.5c0,0.1-0.1,0.1-0.1,0.2c-0.1,0.7-0.1,1.3-0.2,2
		c-0.4,7.6-1.5,15-5.5,21.7c-1.6,2.7-1.4,5.7-0.5,8.6c2,5.9,1.4,11.5-1.6,16.9c-1,1.8-1.9,3.6-2.4,5.6c-1,4-1.9,8.1-2.7,12.1
		c-0.6,3-1.9,5.6-3.9,7.9c-2.2,2.6-5.1,3.3-8.3,2.4c-3.2-0.9-5.3-3.1-5.6-6.5c0-0.1,0-0.2,0-0.3c-1.9,4.9-3.8,9.9-5.2,15
		c-0.1,0.5-0.3,1-0.6,1.4c-2.7,4.7-5.4,9.4-8.6,13.8c-1.7,2.3-3.2,4.8-5.5,6.6c-2.5,1.9-4.6,4.2-6.5,6.7c-0.3,1.4-0.6,2.9-1,4.3
		c-1.7,6.4-3.6,12.7-5.8,18.9h46.3c0.8-1,1.6-2.1,2.4-3.1c3.4-4.3,5.8-9.1,7.4-14.3c1.2-4,1.9-8,2.5-12.1c0.3-2.4,0.5-4.9,1.8-7.1
		c2.9-4.8,4.8-10,6.3-15.4c0.6-2.3,1.3-4.5,2.6-6.5c1.1-1.7,2.1-3.5,3-5.3c3-6.3,5.1-12.9,6.7-19.6c1.5-6.6,2.6-13.2,3.2-20
		c0.1-1.3,0.2-2.6,0.2-3.9C680,556.9,677.8,551.2,672.9,546.7z"/>
	<path class="st2" d="M300.1,214c0.3-0.7,0.2-1.1-0.6-1.3c-2.6-0.8-4.3-2.7-5.6-4.9c-2.4-4.3-4.5-8.8-5.8-13.5
		c-1.3-4.5-0.3-8.8,3.2-12.1c0.8-0.8,1.1-1.6,1.2-2.7c0.3-7.9,0.6-15.7,0.9-23.6c0.3-7.2,0-14.4,0-21.6c0-0.4,0.2-0.9-0.4-1.1
		c-0.2,0.2-0.4,0.3-0.5,0.5c-2.2,4.7-5.1,9-8.7,12.7c-0.8,0.8-0.6,1.4,0,2.2c2,2.7,2.5,5.9,2.2,9.2c-0.4,4.7-2.1,8.9-4.7,12.7
		c-1,1.4-2.2,2.6-3.6,3.5c-4.2,2.5-9.1,0.9-11-3.6c-0.8-1.7-1.1-3.6-1.1-5.4c0-1.1,0-2.2,0-3.2c-0.2,0-0.4-0.1-0.6-0.1
		c-1.1,2.4-1.7,4.9-2.3,7.5c-1.7,8.2-0.4,15.8,4.4,22.7c1,1.5,2,2.9,3,4.4c2.1,3.4,4.1,6.8,5.5,10.6c2.7,7.6,3.1,15.4,0.7,23.2
		c-0.5,1.6-2.1,2.7-2,4.2c0.1,1.6,1,3.2,1.3,4.9c0.8,4.4,0.4,8.8-0.3,13.1c-0.1,0.5-0.5,1.1,0.1,1.6c0.8-0.3,1.1-1,1.6-1.6
		c8.8-11,16-23.1,22.2-35.7C299.3,215.7,299.7,214.9,300.1,214z"/>
	<path class="st2" d="M255.9,234.9c-1.4,1.2-2,2.3-2.7,3.3c-2.1,2.7-4.5,5.1-7.5,6.7c-1.2,0.7-2.7,1.1-4.3,1.3
		c-0.1,0.3-0.1,0.5-0.2,0.8c-1.3,5.9-2.9,11.8-5.2,17.4c0.7,0.4,1.4,0.8,2,1.3c1.7,1.2,3.5,2.4,5.2,3.6c1.6,1.1,1.7,1.1,2.7-0.5
		c3.3-5.6,6.4-11.4,8.7-17.5c1.1-3,1.8-6.2,2.3-9.3c0.1-0.8,0.3-1.5-0.1-2.2C256.1,238.5,255.8,237,255.9,234.9z"/>
	<path class="st2" d="M732.1,282c-3.6-1.8-6.1-6.8-6.7-11.7c-0.1,0.1-0.3,0.1-0.4,0.2c-1.5,0.8-2.8,0.9-4.3,0.4
		c-4.4-1.4-7.2-4.6-9.3-8.4c-0.4-0.8-0.4-1.5,0.3-2c3-2.3,3.9-5.6,4.6-9c0.3-1.4,0.5-2.8,0.7-4.3c-3.3,0.3-6.4-1.3-8.2-4.6
		c-0.8-1.5-1.4-3.1-1.7-4.8c-0.9-4.3-1.1-8.6-0.7-12.9c0.2-1.6,0-3.1-0.7-4.6c-2.3-5.1,0.9-10,6.5-10c0.6,0,1.1,0,1.6,0.1
		c0.1-0.4,0.3-0.8,0.5-1.1c2.1-3.9,2.3-7.9-0.1-11.8c-1.8-2.9-4.3-5-7.7-5.8c-1.4-0.4-2.5-0.8-2.8-2.4c-0.3-1.9-0.8-3.8-1.2-5.7
		c-0.8-0.7-1.5-1.6-1.9-2.6c-0.6-1.2-1.2-2.5-1.5-3.8c-1.6-5.5-2.6-11-2.2-16.8c0.1-2,0.2-4.1,0.3-6.1c0.4-9.5-1.5-18.5-6.4-26.8
		c-1-1.6-2-3.2-3.1-4.7c0.8,1.7,1.4,3.4,1.8,5.4c0.6,3.4,0.3,6.8-0.3,10.1c-0.5,3.3-1,6.7-1.3,10c-0.3,2.9-1.2,5.6-2.7,8.1
		c-1.1,2-1.9,4.1-2.6,6.3c-0.7,2.1-1.4,4.3-2.1,6.4c-0.6,4.2-0.6,8.4,0.4,12.5c0.2,1.1,0.2,2.2-0.1,3.3c-0.8,3.5-1.7,6.9-2.4,10.4
		c-0.7,3.3-1.3,6.6-1.5,10c-0.1,1.1,0.2,1.5,1.4,1.3c5.5-1,9.5,1.3,12.6,5.7c2,2.8,3,6,3.4,9.5c0.1,1,0.3,1.7,1.2,2.3
		c4.3,2.7,4.5,7.8,0.7,11.1c-2.1,1.8-4.7,2-7,0.3c-0.5-0.3-0.8-1-1.4-1c-1.8,0-3.6-0.6-5.5-1.1c0.6,2.2,1,4.1,1.5,6
		c2.7,11.3,5.3,22.6,9,33.6c2.4,7.1,5.2,14,8.6,20.6c2.4,4.8,6.1,8.5,9.9,12.2c0.8,0.8,1.5,1,2.2-0.1c0.4-0.5,0.9-1,1.4-1.5
		c0.5-0.4,0.8-0.9,0.6-1.6c-1-3.6,0.4-7,0.9-10.5c0.2-1.6,1-3,2-4.4c2.4-3.5,6.7-4,9.9-1.2c0.6,0.5,0.9,1.4,2,1.6
		c0.4-0.5,0.8-1,1.2-1.6c0.5-0.7,0.9-1.4,1.4-2.1C733.6,283.2,733.3,282.6,732.1,282z"/>
	<path class="st2" d="M560.1,221.5c2.5,2.5,5.1,4.8,7.9,6.7c0.9-3.4,4.4-4.8,7.9-2.9c2.3,1.3,4.6,2.9,6.9,4.2
		c2.9,1.6,5.8,3.1,8.6,4.8c0.7,0.4,1.6,0.6,2.4,0.6c1.5,0,3-0.1,4.4-0.3c0.6-0.1,1.2-0.3,1.8-0.4c1.1-0.2,2.2-0.5,3.2-0.9
		c3.2-1.3,6-3.4,8.1-7c1.3-2.2,2.7-4.3,4.2-6.4c2.2-3,4.9-5.4,8.3-6.9c3.4-1.6,7.1-2.2,10.6-0.6c2.7,1.2,5.4,2.7,8.1,3.9
		c2,0.9,3.3,2.4,4.1,4.3c0.1-0.1,0.1-0.2,0.2-0.3c3.7-7.1,6.1-14.6,8.7-22.1c1.1-3.2,1.2-6.5,0.5-9.8c-1.8-7.8-6.4-13.4-13.6-17
		c-3.2-1.6-6.5-1-9,1.5c-0.9,0.9-2.1,1.7-2.1,3.3c0.1,2.9-0.3,5.7,0.5,8.5c0.3,0.9,0.4,2-0.7,2.5c-1.5,0.6-2.9,1.3-4.3,2
		c-0.7,0.3-1.2,0.2-1.6-0.7c-0.5-1.3-0.6-2.6-1.1-3.9c-1.6-4.1-4.2-7.7-5.9-11.7c-0.7-1.7-1.8-3.3-3-4.7c-0.1,0.1-0.2,0.3-0.4,0.4
		c-1,0.9-2.1,0.4-3.1-0.1c-3.9-2.1-8.1-3.3-12.5-4.1c-4.6-0.8-8.9,0-13.1,2c-4.1,2-7.6,4.7-10.6,8.1c-4.1,4.6-7.8,9.5-11.6,14.5
		c-0.3,0.4-0.8,0.7-0.5,1.3c0.6,0.1,0.9-0.4,1.2-0.8c2.6-2.6,5.3-5.2,7.8-8c9.5-10.8,23.3-10.8,33.4-6.1c1.5,0.7,8.4,6,8.8,6.6
		c2.9,4.2,5.7,8.4,8.5,12.6c0.9,1.4,1.1,3,0.9,4.6c-0.6,4.8-2.3,9.2-5.6,12.8c-2.9,3.1-6,5.9-9.6,8.3c-4.9,3.3-10.3,4.5-16.1,4.3
		c-6.5-0.2-12.7-1.7-18.4-5c-2.1-1.3-4.1-2.7-6-4.3c-1.7-1.5-3.4-2.7-5.6-3.3c-0.7-0.2-1.5-0.5-2.1-0.9c-1.3-0.8-2.2-1.4-3.4,0.3
		c-0.7,1-2,1-3.2,0.5c0,0.1,0.1,0.2,0.1,0.3C556,215.5,557.5,218.9,560.1,221.5z"/>
	<path class="st2" d="M360.5,233.1c3,1.9,6.1,3.2,9.7,3.7c2.9,0.4,5.7,1,8.4,2c2.9,1.1,5.4,2.7,7.4,5.2c0.6,0.7,1.1,1.5,1.4,2.3l0,0
		c2.7-1.6,5.6-2.8,8-4.8c5.8-4.9,12.2-9,18.5-13.2c2.4-1.6,4.7-3.2,7.1-4.7c0.1-1.5,0.6-2.9,1.5-4.3c2.4-3.8,4.5-7.7,6.4-11.8
		c0-0.1,0.1-0.1,0.1-0.2c0.8-1,0.9-2.1,0.9-3.3c0.1-4.7-2.4-8.4-4.7-12.1c-0.4-0.7-1.1-1-1.9-0.9c-0.9,0.1-1.6-0.4-2.2-1.1
		c-1.4-1.8-3.2-3.3-4.3-5.4c-2.2-4.3-5.4-8-8.4-11.8c-0.5-0.6-1-1.1-1.7-1.4c-4.3-1.4-8.5-3.2-12.9-4.5c-4.3-1.3-8.6-2-13-1.4
		c-4.6,0.6-8.7,2.6-12.7,4.9c-3.7,2.1-5.9,5.6-8.2,9.4c1.2-0.4,1.8-1.1,2.4-1.6c2.9-2.9,6.5-4.7,10.4-6.2c8-3.1,15.6-1.5,23.2,1.5
		c0.5,0.2,0.9,0.5,1.3,0.8c2.2,2.1,4.6,4.1,6.5,6.4c5.9,7.1,10.6,14.9,13.7,23.6c0.9,2.5,0.2,4.1-2,5.6c-2,1.3-4.2,2.1-6.1,3.5
		c-3.6,2.6-7.1,5.5-10.7,8.1c-4.9,3.5-10.1,6.1-16.1,7.1c-2,0.4-3.9,0.4-5.8-0.1c-5.3-1.4-10.6-2.8-15.7-4.9c-6-2.5-10.8-6.2-14-12
		c-0.8-1.4-1.9-2-3.5-2c-0.1,1.1,0.2,2,0.6,2.8C347.2,221.2,352.6,228.2,360.5,233.1z"/>
	<path class="st2" d="M242.9,148.5c-5.1,2.3-5.4,2.3-10.5,1.5c-5.9-1-8.8-5.1-7.5-10.9c0.5-2.4,1.2-4.8,2-7.1c1.3-4,3.5-7.3,7.7-8.9
		c1-0.4,1-0.9,0.6-1.7c-2.3-3.9-2.5-8.2-1.7-12.5c0.1-0.6,0.5-1.3,0.2-2c-0.8,0.2-1.3,0.8-1.8,1.3c-1.5,1.3-3.2,2.6-5,3.5
		s-3.6,1.4-5.6,1.3c-0.3,5.6-0.4,11.2,1.1,16.7c0.5,1.8,0.1,3.1-1,4.4c-3.2,3.7-5.6,7.8-7.6,12.2c-0.9,1.8-1.6,3.8-2.7,5.4
		c-3.1,4.8-4.4,10.1-5.2,15.6c1.5,0.4,2.6,1.7,3.3,3.7c0.3,1.1,0.9,2,1.6,2.8c3,3.5,5.3,7.2,4.7,12.1c0,0,0.1,0.1,0.2,0.2
		c0.4,0.1,0.8-0.1,1.2-0.3c3.1-1.7,6-3.8,8.3-6.5c1.8-2.2,3.6-4.5,5.5-6.7c5.5-6.6,9.3-14.1,12.2-22.1
		C242.9,149.8,243.4,149.2,242.9,148.5z"/>
	<path class="st2" d="M476.1,105.5c1,0.1,1.9,0.7,2.8,1.2c3.7,2.4,7.5,2.2,11.4,0.6c2.2-0.9,4.4-1.7,6.7-2.3
		c6.2-1.5,11.9,1,13.8,6.6c1.2-0.7,2.4-1.6,3.5-2.7c1.9-1.9,3.9-3.8,5.7-5.8c1.1-1.2,2.5-1.8,4-2c3.8-0.3,7.6,0,11,1.8
		c1.6,0.8,3.1,1.8,4.7,2.4c0.1,0,0.2,0.1,0.3,0.1c2.1-3.5,5-6.3,8.6-8.5c0.4-0.3,0.9-0.4,1.3-0.7c1.2-0.9,1.3-1.6,0.3-2.7
		c-1.1-1.3-2.3-2.5-3.5-3.7c-2-1.9-3.2-3.9-2.4-6.8c0.4-1.6-0.7-2.9-1.2-4.3c-0.4-1.1-1.7-1-2.6-1.3c-2.3-0.7-4.6-1.1-6.8-1.9
		c-2.9-1.1-4.9,0.1-6.5,2.4c-0.7,1-1.2,2-1.7,3.1c-1.2,2.4-2.2,4.7-3.4,7.1c-0.9,1.9-2.1,3.7-3.6,5.2c-3.4,3.4-7.9,4-12,1.4
		c-1-0.7-1.9-0.8-3.1-0.5c-2.1,0.5-4,0.1-6-0.7c-0.3,0.2-0.6,0.5-1,0.7c0-0.4,0.1-0.7,0.1-1.1c-2.7-1.2-4.9-3.1-7.1-5
		c-2.4-2-4-4.4-4.9-7.3c-0.8-2.5-1.1-5.1-1-7.8c0.1-0.9-0.1-1.6-0.8-2c0,0.1-0.1,0.1-0.1,0.2c-1.2,3.5-3,6.7-5.4,9.6
		c-1.5,1.7-3.1,3.4-4.3,5.2c-1.9,2.8-2.5,5.9-2.6,9.1c1,2,1.9,4.2,2.6,6.5C473.3,104,474,105.2,476.1,105.5z"/>
	<path class="st2" d="M429.8,117c0.6,1.6,1.2,3.4,2.4,4.4c2.5,2.1,4,5.3,7.5,6.2c0.4,0.1,0.9,0.6,1.1,1c1.7,2.7,4.2,4.6,6.3,6.9
		c1.4,1.4,3.4,2.3,5.4,2.6c2.8,0.5,5.6,0.7,8.4,0.5c0.5-1.9,1.3-3.7,2.6-5.4c1.3-1.7,1.2-4.2-0.2-5.8c-1.3-1.6-2.5-3.2-3.2-5.2
		c-0.3-0.9-0.9-1.3-1.8-1.5c-9.7-1.5-15.9-7.6-20.3-15.7c-3.4-6.3-5.5-12.9-5.7-20c-0.9,0.6-1.4,1.6-1.5,3.1c-0.2,3.6-1.7,7-2,10.6
		c-0.2,3-0.9,6-0.7,9.5C427.6,111,428.7,114.1,429.8,117z"/>
	<path class="st2" d="M504.4,428.3c-1.1-0.4-2.1-0.3-2.8,0.6c-0.7,0.9,0.3,1.5,0.7,2.2c1.3,1.7,2.7,3.3,3.9,5c0.3,0.4,0.6,0.8,1,1.2
		c0.6,0.6,1.2,1.1,2,1.4c0.5,0.2,1,0.5,1.6,0.7c2.7,1.2,5.3,2.4,7.9,3.6c6.1,2.8,12.1,5.7,17.6,9.6c3.4,2.4,6.9,4.6,10.6,6.5
		c5,2.7,10.4,4,16.1,4.2c5,0.2,9.5-1.7,12.9-5c6-5.9,11.1-12.5,13.9-20.7c-1.6,1.6-3.3,3-5.8,3.4c-0.8,0.1-1.6,0.4-2.3-0.4
		c-0.5-0.6-1.4-0.8-2,0c-0.9,1.2-2,0.8-3,0.4c-0.3-0.1-0.5-0.2-0.8-0.3c-1.8,2.1-4.1,3.7-7.2,4.4c-2.8,0.7-5.6,1.4-8.2,2.7
		c-1.5,0.7-3.1,0.8-4.7,0.8c-3.6,0-7.1-0.8-10.6-1.2c-2.7-0.3-5.4-0.6-7.8-2c-0.5-0.3-1.1-0.3-1.7-0.3c-4.5,0-8.4-1.5-12.1-4
		c-4.4-2.9-8.6-6.1-12.7-9.3C508.9,430.2,506.7,429.1,504.4,428.3z"/>
	<path class="st2" d="M518.3,421.1c-0.4-0.2-0.8,0-1.2,0.3c-0.4,0.4-0.2,0.8,0,1.2c2.7,4.9,6.6,8.1,12.3,8.7
		c2.5,0.3,5.1,0.4,7.6,0.4c4.6,0,9.1,0.8,13.4,2.5c2.1,0.8,4.2,1.2,6.5,1.1c0.9,0,1.8-0.1,2.7-0.2c-0.5-0.9-1.1-1.8-1.6-2.7
		c-1.7-2.7-1.6-3.1,0.6-5.4c1.2-1.3,2.5-2.4,3.8-3.4c-0.5,0.1-1,0.2-1.5,0.2c-3.4,0.4-6.9,0.8-10.1,2.3c-4.1,2-8.4,2.2-12.9,1
		c-3.1-0.8-6.2-1.6-9.4-2.1c-3.1-0.5-5.9-1.4-8.5-3C519.5,421.7,518.9,421.4,518.3,421.1z"/>
	<path class="st2" d="M530.5,411.9c-0.8,0-1.7,0.1-2.5,0.2c-0.5,0.1-1.2,0.1-1.4,0.8c0.4,0.8,1.2,1,1.9,1.2c3,0.9,5.9,2.3,9,2.7
		c6.7,0.8,13.3,2.6,20.1,3c4.1,0.2,8.1-0.1,12-1.4c1.2-0.4,2.3-0.8,3.5-1.3c0.6-1.8-0.4-3.4-2.5-3.4c-3.4-0.1-6.5-1.2-9.7-1.8
		c-3.2-0.6-6-2.2-8.7-4c-0.6-0.4-0.7-0.8-0.4-1.3C545,409.6,538,411.9,530.5,411.9z"/>
	<path class="st2" d="M544.3,396.7c-3-0.9-4.3-2.8-3.6-5.9c0.4-1.8,0-3.2-1.5-4.2c-0.2-0.1-0.4-0.2-0.6-0.3
		c-3.2,3.4-6.5,6.7-10.1,9.8c-0.7,0.6-1.4,1.1-1.8,2.1c-0.9,1.9-2.5,3.2-4.2,4.2c-0.6,0.4-1.5,0.5-1.9,1.4c0.3,0,0.3,0.1,0.4,0.1
		c0.3-0.1,0.7-0.1,1-0.2c6.4-1.9,12.8-2.2,19.2,0c2.5,0.9,5,1,7.5,0.4c1.6-0.4,3.3-0.8,4.9-1.3c0.6-0.1,1.1-0.3,1.7-0.4
		c0.3,0,0.6,0,0.9,0.2c0.4-0.5,0.8-1,1.2-1.6c0.8-1.1,0.6-2.7-0.4-2.8c-1.8-0.3-3.3-1.4-5.4-1C549.2,397.5,546.7,397.4,544.3,396.7z
		"/>
	<path class="st2" d="M453,396.7c-5.9-3.3-11.2-7.4-15.2-12.6c-0.5,0.6-0.8,1.4-1.1,2.5c-0.8,3.2-0.6,6.4-0.3,9.6
		c0.4,4.7-0.8,8.7-4.7,11.6c-1.6,1.2-3.1,2.4-4.6,3.6c0,0,0,0-0.1,0.1c1.8-0.1,3.6-0.2,5.4-0.3c6.9-0.6,13.6-2.8,20.6-3.1
		c3.6-0.1,7.1-0.2,10.4,1.4c0.7,0.3,1.4,0.6,2.2,0.5c1.9-0.4,3.8-0.7,5.7-1.1c0.5-0.1,1.1-0.1,1.5-0.8c-1.6-0.7-2.8-1.6-4-2.5
		c-3.7-2.5-7.3-5.1-11.5-6.8C455.8,398.2,454.4,397.5,453,396.7z"/>
	<path class="st2" d="M472.6,438.9c3.7-1.7,6.1-4.7,8.1-8.2c0.3-0.5,0.7-1.2,0.3-2c-1.3-0.1-2.7-0.3-3.9-0.8c-0.5-0.2-1-0.2-1.5,0
		c-2.4,1.2-4.9,2.2-6.8,4.3c-2.2,2.4-4.7,4.4-7.2,6.4c-6.5,5.1-13.5,9.7-19.9,14.9c-3.9,3.2-8.5,4.8-13.5,5.6
		c-3.4,0.5-6.8,1.1-10.1,2.3c-2.8,1-5.6,1.2-8.5,0.7c-5.2-0.9-8.3-5.4-7.4-10.6c0.4-2.1,2-3.7,4.1-4c1-0.1,1.9,0.3,1.9,1.2
		c0.1,1.6,1.1,1.7,2.2,2c1.8,0.5,3.6,1,5.4,1.5c1.3,0.3,2.5,0.1,3.7-0.2c10.2-2.8,19.1-8.3,28.2-13.3c2.1-1.2,4.2-2.6,5.7-4.6
		c-2.5,1.3-5.1,1.9-7.9,1.8c-1.9,0-3.7-0.3-5.5-0.7c-1.7-0.4-3.3-0.3-5,0.4c-5.3,2.3-10.2,1.3-14.8-0.7c-0.1,0.3-0.1,0.6-0.2,0.9
		c-0.1,1.7,0.3,3.1,1.5,4.4c1,1.1,0.8,1.6-0.7,2c-2.2,0.6-4.3,1.5-6.4,2.5c-1.1,0.6-2.3,1.3-3.6,1c-3-0.8-6.1-1.5-8.3-4
		c-0.9-1-1.9-2-3.1-2.6c-4.7-2.4-8.6-2.1-11.7,1.5c-0.3,0.3-0.5,0.7-0.7,1.1c2.5,3.2,4.6,6.6,5.8,10.6c0.7,2.2,1.7,4.3,3.3,6
		c5.4,5.9,12.1,8.8,20.1,8.6c2.4-0.1,4.8-0.3,7.1-0.8c6.7-1.4,12.9-4.3,19.1-7.5c0,0,0.1,0,0.1-0.1l0,0c2.5-1.3,4.9-2.8,7.1-4.7
		C456.2,447.8,464,442.8,472.6,438.9z"/>
	<path class="st2" d="M428.7,431.7c2.2-0.1,4.3-0.6,6.4-1.6c2-0.9,4.1-1.7,6.2-2.2c1.9-0.4,3.2-1.5,4.3-3.1c-0.6-0.9-1.5-1-2.3-1.2
		c-5.1-1.2-10.2-2.4-15.4-3.4c-2.4-0.5-4.9-0.3-7.3,0.5c-1.1,0.4-2.3,0.7-3.4,1.1c1.6,1.9,3.7,3.2,6.1,3.8c2.4,0.6,4.9,1.3,7.5,0.6
		c0.5-0.1,1.3-0.2,1.2,0.8C431.8,429.1,430.5,430.9,428.7,431.7z"/>
</g>
<g>
	<path class="st3" d="M422,480.4c-0.6-0.6-0.9-1.4-1.4-2.1c-0.9-1.6-1-1.6-2.2-0.2c-3.7,4.7-9.8,4.9-13.8,0.3
		c-1.2-1.4-2.1-2.8-4.2-2.7c-0.3,0-0.7-0.2-0.9-0.4c-1.3-1.8-3.1-1.7-5-1.7c-1.1,0-2.2-0.3-3.2-0.5c-7.9-1.9-10.9-5.8-10.7-13.9
		c0-1.1,0.2-2.3-0.1-3.3c-0.8-2.8-1-5.7-1.2-8.5c-0.1-1.5-0.6-2.8-1.5-3.9c-2.4-3-3.9-6.5-4.8-10.3c-0.4-1.8-0.7-3.7-1.1-5.5
		c-1.2-5.7-4.8-9.2-10.5-11.2c-0.2,1.5,0,2.6,0.1,3.7c0.4,3.7,2.1,7.2,1.9,11c0,0.5,0.3,1,0.5,1.4c1,2,1.8,4.2,2.4,6.4
		c2,7.3,4,14.7,6,22c0.4,1.4,1,2.7,1.8,3.9c6.6,9.2,14.9,16.6,23.1,24.2c1.5,1.4,3.2,2.6,4.8,3.8c0.5,0.4,0.9,0.9,1.5,1
		c3.4,0.7,6.8,1.2,10.3,0.3c2.4-0.7,4.7-1.5,7.2-1.6c1.3,0,2.4-0.6,3.6-1.1c1-0.4,1.1-1,0.9-2C424.9,486.2,424.6,482.9,422,480.4z"
		/>
	<path class="st3" d="M546.2,340.8c-3-5.8-6.7-11.1-10.4-16.5c-8.7-12.8-20.6-20.5-35.8-23.3c-7.5-1.4-15.1-1.8-22.7-0.1
		c-5.7,1.2-10.9,3.7-16,6.4c-7.7,4.1-13.9,9.8-19.4,16.5c-0.9,1-1.5,2.3-2.1,3.5c-5.3,10.1-6.5,20.9-5.5,32.1
		c0.2,2.3,1.5,4.1,2.9,5.8c1,1.2,2.1,1.8,3.8,1.4c3.8-0.8,7.7-0.7,11.6-0.9c1.7-0.1,3.2-0.3,4.5-1.7c1.8-2,2-1.9,1-4.4
		c-1.7-4.3-1-8.3,1.6-12c2.6-3.6,7.6-5.3,11.2-3.6c3.3,1.6,6.3,3.7,8.5,6.7c3,4.2,4.3,8.9,2.8,13.9c-1.9,6.5-8.1,10.3-15,9.4
		c-6-0.8-12-2.2-18.1-2.6c-1.6-0.1-3.2-0.3-4.8,0.3c-2,0.8-4,1.3-6.6,1.6c1.2,1.4,2.1,2.4,3,3.4c1.3,1.4,2.8,2.7,4.5,3.8
		c4.8,3.2,9.4,6.6,13.8,10.4c2.4,2,5,3.8,8,4.9c4.7,1.8,9.3,3.5,14,5.2c1.4,0.5,2.8,0.9,4.2,1.2c3.3,0.7,5.1-0.5,5.4-3.8
		s0.4-6.6,0.5-9.9c0.1-7.9,0-15.7,0.1-23.6c0-0.6,0.1-1.2,0.2-1.8c0.1-0.6,0.3-1.3,1-1.2c0.7,0.1,0.8,0.8,0.9,1.3
		c0.2,1.9,0.5,3.9,0.6,5.8c0.6,8,2.1,16,2.1,24c0,2.2,0.4,4.4,0.8,6.5c0.2,0.8,0.3,1.5,1.2,1.8c3,1,5.9,2,9.1,2.2
		c0.8,0,1.5-0.2,2.2-0.5c5.1-3,10.5-5.6,14.7-9.9c7.1-7.1,13.9-14.4,20-22.3c0.1-0.1,0.2-0.2,0.3-0.4c0.1-0.2,0.3-0.4,0.3-0.6
		s0.1-0.4,0-0.6c-2.4,0.6-4.7,1.1-7.1,1c-2.1-0.1-4.2,0-6.3,0.5c-2.3,0.5-4.6,1-7,1.4c-6.1,1.2-12,1.6-17.6-2.1
		c-1.7-1.1-2.8-2.2-3.4-4.1c-1.4-4.3-1-8.7-0.1-13c0.7-3.6,2.6-6.4,5.3-8.7c1.4-1.3,3.1-2.2,5-2.3c5.9-0.3,11.1,1.4,15.3,5.6
		s2.7,10.4-2.9,12.1c-2.7,0.9-3.7,2.6-4.2,5.1c4.2,0.8,8.4,0.8,12.5,0.5c3.5-0.2,7.1-0.6,10.4-2c2-0.8,3.5-2.1,4.4-3.9
		c0.2-0.9,0.3-1.7,0.7-2.5c0.7-4.8,0.6-9.6-2.3-13.9C546.7,341.9,546.4,341.3,546.2,340.8z M536.3,343.4c-0.8-1-2.1-1.3-3.3-1.7
		c-2.2-0.7-4.3-1.6-6.2-2.9c-4.4-3.1-9.3-4.3-14.5-4.8c-8.3-0.7-16.7-1.6-25.1-0.6c-7.9,1-15.8,1.5-23.6,3.1
		c-4,0.8-7.7,2.6-11.1,4.8c-2.2,1.4-3.6,3.5-4.7,5.9c-0.9,2-1.9,4-3.3,5.7c-0.7,0.9-1.4,1.7-2.4,2.2c-1.9,1.1-3.7,0.4-4.5-1.7
		c-0.4-1.2-0.3-2.3-0.1-3.5c1-5.5,3.4-10.4,6.2-15.2c0.9-1.5,1.9-3,2.8-4.5c3-5.2,7.3-9.3,12.3-12.6c2.4-1.6,4.7-3.2,7-5
		c5.1-3.9,11,0.2,11.5,5.3c0,0.4,0.1,0.8,0.1,1.3c0.1,0.8,0.5,1.2,1.2,1.4c4.2,0.8,8.4,1.5,12.6,1c3.6-0.5,7.2-0.9,10.9-0.9
		c1.9,0,2-0.2,1.6-2.1c-0.2-0.9-0.5-1.8-0.6-2.7c-0.4-3.2,1.2-5.1,4.3-6c4.2-1.3,7.2,0.1,10,3c1.7,1.9,3.4,3.8,4.7,5.9
		c1.7,2.7,3.7,5,6.3,6.9c2.9,2.1,4.9,4.8,6.8,7.8c0.8,1.2,1.5,2.5,2.4,3.6c2,2.4,3.2,5.2,4.1,8.1
		C539.4,345.9,537.7,345.1,536.3,343.4z"/>
	<path class="st3" d="M622.7,422.5c-0.4-2.9-1.3-5.6-2.2-8.3c-1.2-3.4-1.8-6.9-1.9-10.4c-0.1-4.5-0.3-9-0.5-13.5
		c-0.1-3.1-0.9-6.1-2.4-9.2c-0.7,0.9-1.2,1.8-1.9,2.2c-2,1.1-1.7,2.5-1.1,4.2c0.4,1,0.6,2.1,0.9,3.2c1.8,6.1,1.7,12.2-0.7,18.2
		c-0.7,1.8-0.6,3,0.7,4.5c2.6,3.2,2.4,7-0.3,10.1c-0.6,0.7-1.1,1.5-1.3,2.4c-0.3,2-0.7,4-0.3,6.1c0.7,4.5-0.4,8.4-3.3,11.8
		c-0.8,1-1.5,2-2,3.2c-4.3,12.3-13.6,19.4-25.5,23.5c-1.2,0.4-2.1,0.8-2.9,1.8c-2.3,3-5.4,4.5-9.1,5c-0.8,0.1-1.7,0.2-2.5,0.3
		c-1.9,0.1-3.4,1.1-4.2,2.8c-1.1,2.4-2.9,4.4-3.6,7c-0.3,0.9-0.9,1.8-1.7,2.1c-2.4,0.8-2.4,2.7-2.7,4.6c-0.4,3.4-0.8,6.9-1.3,10.3
		c2.3-2.2,5.1-3.7,8.1-4.4c-0.2-0.1-0.5-0.3-0.7-0.4c-1.1-0.8-2.2-1.7-1.9-3.3c0.2-1.2,1.2-1.6,3.3-1.5c3.6,0.1,7.3,0.2,10.9,0.3
		c3.6,0.1,6.6-1.1,9-3.8c1.8-1.9,3.4-4,4.9-6.2c2.9-4.1,6.3-7.7,10.5-10.6c2.5-1.7,4.6-3.7,6.6-5.9c8.6-9.5,14.2-20.6,17.9-32.7
		C622.9,431.7,623.4,427.1,622.7,422.5z"/>
</g>
<g>
	<path class="st4" d="M391.9,632c-0.6-5.8-0.9-11.6-0.9-17.4c-3.2-0.6-5.6-2.4-7.2-5.6c-3.2-6.5-5-13.3-5.3-20.5
		c-0.2-6,0.6-11.8,3.1-17.3c2.1-4.7,3.1-9.7,2.7-14.5c0.1-3.6,0-6.8-0.9-9.9c-0.2-0.7-0.2-1.3-0.1-2c0.2-1,0.8-1.7,1.8-2
		c1.1-0.4,2,0,2.8,0.7c0.7,0.7,1,1.6,1.4,2.4c1.9,4.3,2.7,8.9,3.5,13.5c0.3,2,0.7,3.9,1.2,5.9c0.4-0.9,1-1.7,1.8-2.4
		c1.1-0.8,1.3-1.8,1.3-3.1c-0.1-5.3-0.8-10.4-1.8-15.6c-1.7-9.2-3.2-18.5-3.4-27.9c0-2.2-0.6-4.3-1.6-6.3c-2-4.2-4.6-8.1-7-12
		c-0.6-1-1.2-2-1.7-3c-3.9-4.8-7.5-9.7-11.2-14.6c-8.4-11-14.5-23.2-19.9-35.9c-0.3-0.7-0.7-1.4-1.3-1.8c-6.6-4.5-10.6-11-14-18.1
		c-0.2-0.4-0.2-0.8-0.9-0.7c0.2,3.6,0.5,7.2,1.1,10.8c1.4,8.4,4.1,16.4,6.8,24.4c2.7,8.3,7,15.8,12.9,22.2c5.9,6.4,9.4,13.8,11,22.2
		c0.1,0.7,0.3,1.3,0.5,2c0.2,0.8,0.6,1.1,1.5,1c2.4-0.3,4.5,0.6,6.7,1.3c3.8,1.2,5.6,4,6.2,7.6c1.6,9.8-1.5,18-8.3,25
		c-1.7,1.8-3.9,3-6.2,3.8c-2,0.6-3.9,0.9-6,0.5c-3.4-0.7-5.2-2.7-5.1-6.2c0-1-0.2-1.5-1.2-1.8c-3.8-1.2-6.2-3.9-8-7.4
		c-1.3-2.7-2.1-5.5-2.4-8.5c-0.4-3.1-0.3-6.3,0-9.4c0.2-2.2,0.2-2.2-2.1-2.9c-0.1,0-0.2,0-0.2-0.1c-1.9-0.5-1.9-0.5-2.5,1.3
		c-0.7,2.3-1.4,4.5-2.8,6.5c-2.2,3.4-5.2,5.6-9.5,5.4c-1.3-0.1-1.8,0.4-1.9,1.7c-0.2,3.3-0.6,6.6-0.7,9.9
		c-0.4,8.5-1.1,16.9-0.4,25.4c0.9,10.8,3.6,21.2,6.6,31.5c3.5,12,8.8,23.3,15.1,34.1c0.6,1,1.5,2,1.5,3.2c0,1,1.2,2.2,0.1,3.1
		c-1.2,0.9-2.3-0.1-3.2-0.7c-3.7-2.4-7.2-5-10.3-8.2c-1.4-1.5-2.8-3-4-4.6c2.4,5.7,5.5,11,9.7,15.7c2.4,2.7,4.6,5.4,6.8,8.2
		c0.8,1,1.8,1.5,2.9,2c4.1,1.9,8.4,3.2,12.7,4.5c1.9,0.6,4.8-1,6.2-3.1c2.3-3.7,2.3-7.7,1.6-11.8c-0.4-2.2-0.7-4.5-1.5-6.7
		c-0.3-0.7-0.4-1.4,0.4-1.8c0.8-0.4,1.2,0.2,1.7,0.7c1.5,1.5,2.1,3.4,3,5.2c0.1,0.3,0.2,0.5,0.4,0.8c-2.2-4.9-4-10-5.4-15.3
		c-2.4-8.9-4.1-18-4.7-27.2c-0.1-1.1-0.1-2.2-0.1-3.3c0-0.7,0.1-1.6,0.7-1.8c1.8-0.7,5.7,20.8,11.1,33.8c6,14.3,13.8,27.5,22.1,40.5
		c0.4,0.6,0.8,1.1,1.3,1.5c-0.2-0.4-0.3-0.8-0.5-1.2C394.7,649.5,392.8,640.9,391.9,632z"/>
	<path class="st4" d="M646.4,249.1c1.5-1.2,3.2-2.2,5.1-2.5c1-0.2,1.7-0.6,2.1-1.6c1.1-3.2,3.2-5.7,6-7.6c1.1-0.8,1.4-1.6,1.1-2.9
		c-1-4.3-1.4-8.7-1.6-13.1c-0.2-3.7,0.1-7.4,0.6-11.1c0.5-3.5,1.5-6.6,3.4-9.5c0.5-0.7,0.7-1.7,0.9-2.5c0.5-1.9,1.8-3.3,2.9-4.9
		c0.1-0.1,0.1-0.2,0.2-0.2c0.8-5.1,1.8-10.2,3-15.2c0.3-1.3,0.6-2.5,0.3-3.8c-0.5-2.3-0.9-4.6-1.5-7c-0.2-1.1-0.6-2.1-1.4-3
		c-2.2-2.5-4.5-4.8-7.5-6.3c-0.6-0.3-1.1-0.7-2-0.5c0.5,0.8,0.9,1.4,1.3,2c0.9,1.4,1.6,3,1.8,4.7c0.4,3.1-1.4,6.3-4.1,7.5
		c-2.7,1.1-5.5,0.2-7.6-2.5c-1.2-1.6-1.9-3.4-2.7-5.2c-1-2.6-2.2-5.1-3.7-7.5c-1.5-2.2-1.4-2.2-3.8-1.2c-0.2,0.1-0.5,0.2-0.7,0.3
		c-1.5,0.2-2,0.9-1.9,2.6c0.2,2.9-0.9,5.3-3.7,6.7s-5.8,0.2-6.5-2.7c-0.4-1.8-1.4-3.2-2.3-4.7c-0.9-1.3-1.7-2.7-2.4-4.2
		c-2.4-5.8-1-11,4-14.8c0.6-0.5,0.9-0.9,0.8-1.7c-0.8-3.9-2.5-7.2-5.5-9.7c-0.5-0.5-1.1-0.7-1.8-0.9c-2.5-0.4-4.9-1.2-7.2-2.4
		c-1.6-0.8-2.8-0.7-4.5,0.1c-4.7,2.2-9.9-0.5-11-5.6c-0.3-1.2-0.3-2.4-0.1-3.5c0.1-0.7,0.1-1.4-0.7-1.7c-2.3-0.8-4.4-2.5-7.2-2.1
		c-1.7,0.2-3.3-0.4-4.9-1c-4.1-1.6-7.4-4.4-10-8c-1.3-1.8-2.4-3.7-3.3-5.7c-0.4-1-1-1.1-1.7-0.3c-1.7,1.8-3.3,3.6-5,5.4
		c-0.5,0.5-0.5,1.1-0.5,1.7c0.1,3.5-1.5,6.3-3.8,8.9c-3.2,3.6-7.3,5.8-11.6,7.5c-5.4,2.1-10.7-2.2-10.1-8c0.1-1.4,0.6-2.6,1.2-3.9
		c0.3-0.7,0.7-1.3,1.1-2c-0.1,0-0.2-0.1-0.3-0.1c-1.7-0.6-3.2-1.6-4.7-2.4c-3.5-1.8-7.2-2.2-11-1.8c-1.4,0.1-2.9,0.8-4,2
		c-1.9,2-3.8,3.9-5.7,5.8c-1.1,1.1-2.2,2-3.5,2.7c0.7,2.1,0.9,4.7,0.4,7.6c-0.6,3-2.1,5.7-3.5,8.4c-1,1.9-2.1,3.7-2.8,5.7
		c-0.8,2.3-0.4,4.9-2.1,7c-0.4,0.5,0,1.2,0.3,1.7c0.6,1.2,1.2,2.4,1.9,3.6c1.9,3.7,1.5,7.5-1.3,10.3c-2.7,2.8-6.8,3.6-10.5,1.9
		c-1.7-0.8-3.1-2-4.6-3.2c-2-1.7-2.6-1.7-4.6,0c-0.6,0.6-1.2,1.3-2,1.5c-1.1,0.4-1.8,1.2-2.4,2.1c-0.8,1.2-1.8,2.2-3,3.1
		c-4.2,3-9.6,2-12.4-2.3c-0.8-1.3-1.4-2.7-1.9-4.1c-1.2-3.7-1.8-7.6-2-11.2c0-1.8,0.2-3.5,0.5-5.1c-2.8,0.1-5.6,0-8.4-0.5
		c-2-0.4-4-1.2-5.4-2.6c-2.1-2.3-4.6-4.2-6.3-6.9c-0.3-0.4-0.7-0.8-1.1-1c-3.5-0.9-5-4.1-7.5-6.2c-1.2-1-1.8-2.8-2.4-4.4
		c-1.1-3-2.2-6-1.8-8.9c-0.2-3.5,0.5-6.4,0.7-9.5c0.3-3.6,1.8-6.9,2-10.6c0.1-1.4,0.6-2.4,1.5-3.1c0-1.3,0-2.6,0-3.9
		c0-0.7-0.1-1.3-0.4-1.9c-1.4-2.9-0.8-5.4,1.9-7.2c2.9-2,6.1-2,9.2-0.9c4.3,1.5,7.6,4.4,10.5,7.7c0.7,0.8,1.3,1.5,2.3,2
		c6.5,3.6,11.2,8.6,14.3,14.8c0.1-3.2,0.7-6.3,2.6-9.1c1.3-1.9,2.9-3.5,4.3-5.2c2.4-2.9,4.1-6.1,5.4-9.6c0-0.1,0.1-0.1,0.1-0.2
		c-0.2-0.1-0.3-0.2-0.6-0.2c-2.6-0.6-4.4-2.1-4.5-5c0-0.2-0.1-0.5-0.2-0.7c-1.1-3.6-0.3-5.2,3-7c4.7-2.5,9.7-3.4,14.9-3.3
		c2.4,0,4.7,0,7.1-0.5c2-0.4,4-0.4,6.1,0c1.1,0.2,2.2,0.5,3.3,0.2c4-1.1,7.9-0.4,11.8,0.8c6,1.8,11.9,4,17.6,6.6
		c2.3,1.1,4.4,1.5,7,1c4.2-0.8,8.4-0.3,11.8,2.6c2.1,1.8,4.4,2.8,6.9,3.5c1.1,0.3,2.3,0.7,3.4,1.2c9.5,3.5,18.1,8.4,25,16
		c3.3,3.6,6.9,7,9.5,11.2c0.4,0.6,0.8,1,1.7,0.6c3-1.4,5.4-0.2,7.7,1.6c0.6,0.5,1.1,1.3,2.2,1.3c0-1.1,0-2.1,0-3.1
		c0-2-0.4-4.1,0.4-6c0.8-2,0.3-3.4-1-4.8c-0.6-0.7-1.1-1.5-1.8-2.2c-1.3-1.2-2.8-2.3-4.7-1.9c-3.2,0.7-6.3,0.2-9.3-0.6
		c-5.9-1.7-9.4-5.7-10.9-11.6c-0.4-1.6-0.4-3.2-0.1-4.8c0.5-2.6,2.6-4.8,5.5-3.8c0.6,0.2,1.2,0.1,1.7,0c3.6-1,7.1-0.4,10.5,0.8
		c2.7,1,5.4,2.1,8,3.3c2,0.9,3.8,1.9,5.5,3.1c0.7-6.8,8.7-12.1,14.1-11.4c1.4,0.2,2.7,0.6,3.9,1.1c0.8-2,2.7-3.4,5.4-3.8
		c2.7-0.4,5.2,0.3,7.1,2c2.3,2,4.5,3.6,7.7,3.5c0.4,0,0.8,0.2,1.2,0.3s0.8,0,1.2-0.3c1.1-1.1,2.2-2.2,3.5-3.6
		c-4-1.6-7.3-3.7-10.9-5.4c-2.5-1.1-5.1-1.6-7.9-1.6c-4.6,0.1-8.9,1.3-13.1,2.7c-4.9,1.7-9.7,3.4-14.6,5.1c-3.2,1.1-6.5,1.2-9.8,0.4
		c-1.9-0.5-3.8-0.9-5.7-1.3c-5.6-1.4-11.2-1.4-16.8,0c-3.7,0.9-7.4,1.7-11.2,2.5c-1.6,0.3-3.3,0.4-4.7,1.6c-0.7,0.7-1.9,0.7-2.9,0.6
		c-2-0.1-4.1-0.3-6-1.1c-5.5-2.3-11.2-3.7-16.9-5.5c-6.2-1.9-12.6-3.3-19.1-4c-4.9-0.6-9.8-0.8-14.7-1.3c-7.9-0.7-15.9-1.5-23.8-1.6
		c-12.1-0.1-24,1.5-35.8,3.7c-6.2,1.1-12.2,2.7-18.5,3c-5.4,0.2-10.2,2.2-14.6,5.2c-3.4,2.3-7,4.4-10.5,6.7
		c-3.4,2.3-7.2,3.7-11.5,1.1c-0.2,3.1-0.9,5.8-1.9,8.6c2.3-0.7,4.5-0.5,6.7-0.3c2.1,0.2,2.2,0,3.1-2.1c1.9-4.4,5.6-6.8,10.4-6.8
		c8.1,0.1,14,7.6,12.1,15.5c-0.5,2-1.1,3.9-2.3,5.6c-0.7,0.9-0.8,1.8-0.5,2.8c0.6,1.8,0.6,3.7,0.4,5.5c-0.1,1.9-0.8,3.6-2.1,5.1
		c-2.5,3-6.6,3.4-9.7,1.1c-1.4-1-2.9-2-4.4-3c-2.8-1.8-10-1.8-12.2,0.8c-0.9,1.1-2.2,1.9-3.5,2.5c-3.7,1.8-7.4,1-10.1-2.1
		c-0.4-0.4-0.5-1.1-1.2-1.2c-0.4,0.1-0.5,0.5-0.6,0.8c-4.8,10.7-12.5,18.8-23.1,24.1c-3.9,1.9-7.6,4.1-11.2,6.5
		c-2.5,1.6-4.6,3.6-6.3,6.2c0.5,0.2,0.7,0.4,1.1,0.4c3.1,0.8,4.8,4.1,3.9,7.5c-0.3,0.9-0.5,1.8-1,2.6c-1.8,3.4-2,7-1.8,10.6
		c0.1,2.3,1.1,4.5,2.1,6.7c0.9-0.7,1.2-1.5,1.6-2.2c1.8-2.9,3.7-5.7,5.8-8.3c5.7-7,13.3-9.8,22-9.6c3,0.1,5.3-1.1,7.9-2.2
		c-2.7-3.1-3.3-3.9-3.6-6.2c-0.6-4.8,0.3-9.5,3.7-13c3.2-3.2,6.7-6.2,11.1-7.8c1-0.4,2.1-0.8,3.1-1c2.2-0.4,4.1,1.1,4.4,3.2
		c0.1,1.1-0.2,2.2-0.9,3.1c-0.6,0.9-0.7,1.7-0.3,2.8c0.2,0.6,0.3,1.1,0.4,1.7c0.3,0,0.6,0.1,0.9,0.1c3.2,0.6,6.4-0.1,9.6-0.1
		c3.6,0.1,7.2,0,10.9,0.2c2.9,0.2,5.7,0.4,8.5,1.3c5.5,1.8,10,5.3,14.2,9.1c7.1,6.4,10.8,14.5,12.5,23.7c0.5,2.5,0.7,5,1.1,7.5
		c0.6,4.6,0.4,9.1-0.5,13.6c-0.5,2.3-0.1,2.2,1.4,2.9c2.4,1.1,4.1,2.9,5.7,5c0.7,1,1.6,1.7,2.7,2.2c0.5,0.2,0.9,0.4,1.3,0.7
		c0.1-1.3,0.3-2.6,0.6-3.9c1.1-5.3,7-7.4,11.7-4.6c2.6,1.5,4.2,3.9,5.2,6.7c0.5,1.6,1.3,2.9,2.4,4.1c1.1,1.2,1.9,2.6,2.6,4
		c0.8,1.8,2.2,2.9,3.7,4.1c0.7,0.5,1.1,0.5,1.7-0.1c1.1-1.1,2.3-1.9,3.8-2.5c0.8-0.3,1.1-1,1.4-1.7c1.9-5.4,5.2-9.8,9.9-13.1
		l0.1-0.1c-0.1-2.7,0-5.5,0.2-8.2c0.5-5,1.6-9.9,2.4-14.8c0.7-4.4,2.9-8.1,4.3-12.1c0.2-0.6,0.6-1.2,0.7-1.9
		c1.3-5.8,5.1-10,9.3-13.8c1.9-1.7,3.8-3.3,5.9-4.8c3.8-2.6,8-3.6,12.5-2.8c3.6,0.6,7.2,0.8,10.9,0.9c2.7,0.1,5.4,0.3,8.1,0.9
		c4.1,1,7.4,3.3,9.7,6.8c0.9,1.4,2,2,3.5,2.6c3.3,1.5,6.4,2,10,1.3c4.2-0.8,7.8,1.2,10.6,4.3c1.8,2,1.8,4.3,0.5,6.2
		c2.7,0.5,5.5,1.3,8.2,2.5c4.1,1.7,7,4.7,8.3,9.1c0.4,1.1,1,2.1,1.2,3.3c0.1,1,0.1,1.9-0.5,2.6c1.2,1.4,2.2,3,3,4.7
		c1.7,4,4.4,7.6,5.9,11.7c0.5,1.3,0.6,2.6,1.1,3.9c0.3,0.9,0.9,1.1,1.6,0.7c1.4-0.7,2.9-1.4,4.3-2c1-0.4,0.9-1.6,0.7-2.5
		c-0.8-2.8-0.4-5.7-0.5-8.5c0-1.6,1.2-2.4,2.1-3.3c2.6-2.6,5.8-3.1,9-1.5c7.1,3.5,11.8,9.2,13.6,17c0.8,3.2,0.6,6.6-0.5,9.8
		c-2.6,7.5-5,15-8.7,22.1c-0.1,0.1-0.1,0.2-0.2,0.3c0.5,1.2,0.8,2.6,0.9,4c0.3,4.3-1.3,8-3.9,11.2c-1.1,1.4-1.7,2.7-1.8,4.5
		c-0.3,4.2-2,7.6-6.1,9.9c1,1,1.8,1.7,2.5,2.4c1,1.2,1.7,2.4,2.2,3.7c0.2-0.2,0.4-0.5,0.5-0.8C642.5,253.3,644.1,250.9,646.4,249.1z
		"/>
	<path class="st4" d="M745,233c-0.6-0.8-1.2-0.1-1.8,0.2c-1.7,0.9-3.5,1-5.4,0.6c-1.7-0.4-3.4-1.2-4.8-2.2c-0.7-0.5-1.4-0.6-2.1-0.1
		c-0.6,0.4-1.2,0.7-1.8,0.9c-1,0.4-1.4,1.1-1.5,2.1c0,0.5-0.1,1-0.3,1.5c-1,3.9-2.7,7.3-6.1,9.6c-1.3,0.9-2.8,1.4-4.2,1.5
		c-0.1,1.4-0.4,2.8-0.7,4.3c-0.7,3.4-1.6,6.8-4.6,9c-0.7,0.6-0.8,1.3-0.3,2c2.2,3.9,5,7,9.3,8.4c1.5,0.5,2.8,0.4,4.3-0.4
		c0.1-0.1,0.3-0.1,0.4-0.2c-0.3-2.6-0.1-5.2,0.8-7.2c1.8-4.1,5.6-6.3,10-5.6c1.1,0.2,2.1,0.5,3.2,0.9c2,0.8,2.1,0.8,2.8-1.3
		c1.8-5.4,2.9-11,4-16.5c0.3-1.6,0.4-3.2,0.7-4.8C747.2,234.1,745.7,233.8,745,233z"/>
	<path class="st4" d="M696.8,560.4c-0.3-0.8-0.3-1.8-1.3-2.3c0,1.1,0,1.9,0,2.8c0.2,3.6,0.3,7.1,0.6,10.6c0.2,2.7,0.2,5.4-0.3,8.1
		c-0.4,2.1-1.3,4-3,5.4c-3.7,3-8.3,2.1-9.5-2.8c-0.4-1.6-0.6-3.3-1.4-4.9c-1-1.8-1.3-3.8-1.3-5.9c0-2.3,0.1-4.6,0-6.9
		c0-0.5,0-0.9-0.1-1.4c0,1.3,0,2.6-0.2,3.9c-0.6,6.8-1.7,13.4-3.2,20c-1.6,6.8-3.7,13.3-6.7,19.6c-0.9,1.8-1.9,3.6-3,5.3
		c-1.3,2-2,4.3-2.6,6.5c-1.5,5.4-3.4,10.6-6.3,15.4c-1.3,2.2-1.5,4.7-1.8,7.1c-0.5,4.1-1.3,8.2-2.5,12.1c-1.6,5.2-3.9,10.1-7.4,14.3
		c-0.8,1-1.6,2.1-2.4,3.1h0.2c0.2-0.1,0.4-0.3,0.6-0.4c1-0.7,2-1.4,2.9-2.3c0.5-0.5,1.1-1,1.6-1.5l0.1-0.1c0.2-0.3,0.4-0.6,0.7-0.9
		c2-2.6,3.8-5.3,5.7-8.1c0.5-0.8,1.1-1.5,1.6-2.3c0.2-0.3,0.4-0.6,0.5-0.9c0.5-0.8,1.1-1.6,1.7-2.4c0-0.1,0.1-0.1,0.1-0.2
		c2.4-3.5,5-7,7.6-10.3c0.9-1.1,1.8-2.3,2.7-3.4c0-0.7,0.1-1.5,0.2-2.3c0.5-3.8,1.8-7.4,3.3-10.9c2.1-4.7,4.4-9.3,7.9-13.2
		c0.6-0.6,0.8-1.3,0.7-2.1c-0.1-0.3-0.1-0.7-0.1-1c0-3.4,1.6-6.2,4.5-7.3c3.2-1.3,6.1-0.6,8.4,1.8c2.4,2.5,4.8,5,6.8,8
		c4.1-2.3,8.3-4.4,12.7-6.1c0.2-0.1,0.4-0.2,0.7-0.3c-1.9-3.5-3.7-7.1-5.4-10.7C705,583,700.8,571.8,696.8,560.4z"/>
	<path class="st4" d="M791.4,141.9c0-0.9,0.1-1.8-0.3-2.7c-1.5,0.2-1.9,1.2-2.1,2.3c-0.6,2.6-1.7,4.9-3.2,7.1
		c-1.1,1.8-2,3.7-2.5,5.8c-1.4,5.4-3.4,7.2-9,7.9c-0.8,0.1-1.2,0.4-1.3,1.2c-0.2,1.4-0.4,2.8-0.7,4.3c-0.2,0.9,0.1,1.4,1,1.7
		c3.7,1.5,5.4,4.5,6.1,8.2c1.3,7.1-1.3,12.9-6.2,18c-0.5,0.5-1.1,0.8-1.7,1.2c-3.7,2.1-7.8,0.6-9.4-3.4c-0.8-2-0.9-4.1-0.8-6.2
		c0-0.9,0.4-1.8-0.2-3c-4.7,2-9.4,0.9-14.1-0.4c-2-0.6-4.1-0.9-6.2-1.4c-0.4-0.1-0.8-0.2-1.2-0.2c-0.6-0.1-1,0.2-0.9,0.9
		c0.1,1,0.3,2,0.3,3c0.2,5.6-4.3,9.3-9.7,8c-1.8-0.4-3.5-1.3-4.9-2.5c-2.6-2-4.7-4.4-6.5-7.1c-1.9-3-3.6-6.1-4.9-9.5
		c-1-2.8-3.1-4.9-4.6-7.3c0.1,2.7,0.5,5.3,1,7.9c0.3,1.5,0.6,3,0.8,4.5c0.2,1.8-0.3,3.4-2,4.3c-1.8,1-3.4,0.4-5-0.7
		c-0.2-0.2-0.4-0.3-0.6-0.5c0.5,1.9,0.9,3.8,1.2,5.7c0.3,1.6,1.4,2.1,2.8,2.4c3.4,0.8,5.9,2.9,7.7,5.8c2.5,3.9,2.2,8,0.1,11.8
		c-0.2,0.4-0.4,0.8-0.5,1.1c2.6,0.3,4.9,1.6,6.8,3.4c2.8,2.6,4.5,5.9,5.7,9.5c0.2,0.6,0.4,1.3,0.7,1.9c0.2,0.4,0.6,0.6,1.1,0.5
		s0.7-0.4,0.7-0.9c0-0.8,0-1.5,0.1-2.3c0.6-2.7,2.1-4.6,4.8-5.3c2.6-0.7,4.8,0.3,6.6,2.3c0.8,1,1.3,2.1,1.8,3.4
		c0.2,0.6,0.2,1.3,1,1.7c0.8-4.3,2.9-7.8,6.2-10.6c7.2-6,16.3-4.7,21.5,3.2c0.8,1.1,1.3,2.4,1.8,3.6c0.2,0.5,0.2,1.2,0.9,1.5
		c0.6-0.5,0.7-1.3,0.9-2c3.2-9.5,6.3-19.2,8.7-28.9s4.2-19.5,6.2-29.3C790.8,155.4,791.6,148.7,791.4,141.9z"/>
	<path class="st4" d="M636.4,497.2c0.6-0.5,0.9-1.2,1.2-1.9c0.9-1.9,1.6-3.7,2.3-5.7c-0.1-0.2-0.1-0.3-0.2-0.5
		c-1.3-3.5-2.4-7-4.1-10.4c-1.1-2.1-1.5-2.2-3.4-0.7c-4.9,3.8-9.5,7.9-13.5,12.7c-1.2,1.5-2.5,2.9-4.3,3.9c-0.9,0.5-1.5,1.4-2,2.3
		c-4.9,7.4-9.6,14.9-13.7,22.8c-3.1,5.9-6.5,11.6-9.8,17.5c-3.5,6.3-7.1,12.5-10.9,18.6c-3.1,5-7,9.3-10.8,13.7
		c-2.4,2.7-4.8,5.5-7.3,8.1c-4.2,4.5-8.9,8.6-13.7,12.5c-5.2,4.2-10.7,7.7-17.1,9.6c-1.2,0.4-1.6,0.9-1.2,2.2c0.8,2.9,0,5.7-0.5,8.5
		c-1.4,7.7-3.1,15.4-4.6,23.1c-0.5,2.6-1,5.2-1.2,7.8c-0.3,3.4,0.1,6.8,1.3,10c1.3,3.5,2.3,7.1,3.1,10.7c0.3,1.3,0.8,2.1,2.2,2.5
		c3.8,1.1,6.2,3.3,7.6,6.2h35.1c3.7-5,7-10.4,9.9-16c5-9.6,9.9-19.3,14.3-29.2c2.8-6.4,5.1-12.9,7.1-19.6c1-3.5,2.2-6.9,3.5-10.3
		c2.3-5.8,3.9-11.7,5-17.8c1.7-9.9,4.1-19.7,6-29.6c0.3-1.6,0.5-3.2,0.7-4.8c0.3-1.8,1-2.6,2.2-2.6s2,0.8,2.3,2.6
		c0.3,1.9,0.6,3.9,0.5,5.8c-0.5,12.3-1.3,24.5-4.3,36.5c-1.9,7.7-4.2,15.3-6.6,22.9c-1.9,6-2.8,12.2-3.7,18.4
		c-1,6.8-1.7,13.7-3.1,20.5c1.9-2.4,4.1-4.7,6.5-6.7c2.3-1.8,3.8-4.3,5.5-6.6c3.2-4.4,5.9-9,8.6-13.8c0.2-0.4,0.5-0.9,0.6-1.4
		c1.4-5.1,3.3-10,5.2-15c-0.5-5.4-1.8-10.7-2.9-15.9c-0.8-4-0.7-7.9,0.3-11.8c1.1-4.5,2.5-8.9,4.6-13.1c2.2-4.3,3.5-8.8,2.3-13.7
		c-0.5-1.9-0.3-4-0.2-6.1c0.1-2.7,1.2-5.1,1.7-7.7c0.7-3.7,1.2-7.3-0.9-10.8c-0.6-1-0.9-2.2-1.2-3.3c-1.5-5.8-1.8-11.7-1.4-17.6
		C633.6,501.4,634.5,499,636.4,497.2z M577.4,614.2c-0.7,0.9-1,1.9-1.2,3c-0.5,3.4-1.6,6.6-3.2,9.6c-2,3.7-4.8,6.5-9.1,7.4
		c-0.6,0.1-1.1,0.4-1.7,0.6c-5.5,2.1-11.3-0.3-13.6-5.8c-0.9-2.1-1.2-4.4-1.2-6.7c0.1-3.7,0.7-7.2,2.3-10.6c1.6-3.4,4.2-5.7,8.2-5.8
		c1.1,0,1.6-0.5,2-1.5c1.6-3.7,4.7-6,8.1-7.6c4-1.9,8.6-0.1,10.3,4.1C580.3,605.4,580.5,610,577.4,614.2z M588,574.1
		c-4.2,0-7.7-3.3-7.8-7.4c-0.1-4.1,4.1-8.4,8-8.3c3.5,0,7.4,4.3,7.5,8.1C595.8,570.7,592.3,574.1,588,574.1z M606.4,544.4
		c-3.9,2.8-9.2,1.6-11.5-2.6c-3.1-5.6,0.5-12.9,6.8-13.9c2.9-0.5,5.3,0.6,7.1,3c1.2,1.6,1.7,3.5,1.7,5.7
		C610.3,539.7,609.1,542.5,606.4,544.4z"/>
	<path class="st4" d="M593.1,183.6c-1.9,0.3-3.7,1.2-5.4,2.1c-1.1,0.6-2.1,1.2-2.1,2.6c0,0.6-0.4,0.8-0.9,1.1
		c-1.9,1.2-2,1.9-0.5,3.5c1.9,1.8,4.3,2.2,6.4,2.5c4.3-0.1,7.7-3,8.1-6.6C599.2,185,597.1,182.9,593.1,183.6z"/>
	<path class="st4" d="M228.2,239c-0.3-0.6-0.6-1.2-0.8-1.9c-0.4-1.1-1.1-1.6-2.4-1.2c-1.1,0.4-2.3,0.6-3.4,0.9
		c-5.6,1.5-10.3,0-14.2-4.3c-1.8-2-3.4-4.2-4.8-6.6c-0.4-0.6-0.7-1.4-1.4-1.7c-2.4-1-4.7-2-7.7-3.2c7,18.2,14,35.8,24.5,52.3
		c0.4-1.4,0.6-2.3,0.8-3.1c1.9-6.7,8.2-9.7,14.6-7.1c0.9,0.4,1.8,0.8,2.6,1.3c2.3-5.6,3.9-11.4,5.2-17.4c0.1-0.3,0.1-0.5,0.2-0.8
		C236.5,246.9,230.7,245,228.2,239z"/>
	<path class="st4" d="M564.6,204.2c-0.2,0.8,0.1,1.3,0.8,1.7c2.8,1.8,5.5,3.5,8.2,5.3c0.1-0.1,0.3-0.2,0.4-0.3
		c-3-5.4-4.2-11.1-3.2-17.7C567.5,196.6,565.5,200,564.6,204.2z"/>
	<path class="st4" d="M577.5,260c-1-1.2-1.9-2.6-2.6-4c-0.2,1.8-0.5,3.6-1.1,5.4c-0.4,1.5-0.1,2.6,0.9,3.7c1.3,1.3,2.6,2.7,3.9,4
		c3.7,4,5.9,8.8,7.4,13.9c1.9,6.4,6,10.8,12.3,13.1c1.8,0.6,3.6,0.9,5.5,1c2.1,0,3.9-0.8,5.3-2.1c-0.1-0.1-0.2-0.2-0.3-0.2
		c-4.6-4.6-6-11.9-3.3-17.9c1.2-2.6,2.8-4.7,5.9-5c0.8-0.1,1-0.5,1-1.2s0-1.4,0-2c0.1-2.9,0.9-5.5,2.6-7.8c0.3-0.4,0.8-0.7,0.7-1.3
		c-0.5-0.4-0.8,0-1.1,0.2c-5.3,3.1-10.9,3.5-16.7,2.1c-3.2-0.8-6.3-1.9-9.3-3.3c-1.1-0.6-1.8-0.8-2.5,0.7
		C584.1,263.1,580.4,263.3,577.5,260z"/>
	<path class="st4" d="M615.7,199.6c-0.9-1-1.7-2-2.9-3.4c-0.9,4.7-0.5,9.1-2.5,13.7c2.8-2.1,4.4-4.4,5.8-6.8
		C617,201.6,616.9,201,615.7,199.6z"/>
	<path class="st4" d="M554.2,212.3c-0.1-0.1-0.1-0.2-0.1-0.3c-0.1,0-0.2-0.1-0.3-0.1c-1.3-0.6-2.2-1.4-2.8-2.5
		c-0.8,1.4-2,2.5-3.7,2.9c-0.6,0.1-1.2,0.2-1.7,0.3v0.1c1.2,3,1.2,6.1,0.1,8.7c0.1,0.1,0.2,0.1,0.3,0.2c1.8,1.9,3.9,3.5,5.4,5.7
		c1.7,2.4,3.8,4.3,6.4,5.7c3.5,1.8,6.8,4.1,10.1,6.4c2.8,1.9,4.7,4.2,6,6.8c0.5-0.5,0.4-0.9,0.1-1.5c-1.1-1.7-1.8-3.6-3-5.3
		c-2-2.8-2.9-6.1-2.9-9.5c0-0.6,0.1-1.2,0.2-1.8c-2.8-2-5.4-4.3-7.9-6.7C557.5,218.9,556,215.5,554.2,212.3z"/>
	<path class="st4" d="M254.3,76.4c-3.8,0.5-7.6,0.7-11.4,0.3c-4.3-0.4-8.5-1.3-12.7-2.2c-1.9-0.4-3.5-0.1-5.1,0.8
		c-2.5,1.4-4.9,3.1-6.7,5.3c-3.5,4.2-7,8.2-9.7,13c-3.6,6.3-6.8,12.9-9.2,19.7c-2.2,6.3-4,12.7-6.1,19.1c-2.2,6.9-3,14.1-4.4,21.1
		c-0.1,0.7-0.1,1.3,0.5,1.8c1.8,1.5,2.6,3.7,3.5,5.8c0.7,1.6,1.3,3.3,2.3,4.8c1.6,2.5,3.8,3.1,6.5,1.7c1.5-0.8,2.9-0.9,4.1-0.6
		c0.9-5.5,2.1-10.8,5.2-15.6c1.1-1.7,1.9-3.6,2.7-5.4c2.1-4.4,4.4-8.6,7.6-12.2c1.1-1.3,1.5-2.6,1-4.4c-1.5-5.5-1.5-11.1-1.1-16.7
		c-0.1,0-0.2,0-0.3,0c-4.5-0.4-7.5-4.1-7-8.6c0.1-1.1,0.4-2.2,0.9-3.2c2.5-5.1,5.9-9.3,10.6-12.3c5.7-3.6,12.3-2.1,16,3.6
		c5.6-5.9,11.3-11.6,19.2-15.5C258.1,76.2,256.2,76.2,254.3,76.4z"/>
	<path class="st4" d="M358.6,191.3c-0.8,0.7-1,1.6-1.2,2.3c-0.8,2.7-1.4,5.4-2,8.1c-0.3,1.2-0.1,2.1,1,2.8c0.8,0.5,1.3,1.3,1.8,2.1
		c1.2,1.8,2.4,3.7,3.7,5.5c1.4,1.9,3.1,3.5,5.6,4.1c-0.1-0.9-0.8-1.2-1.3-1.7c-2.6-2.9-4.9-6-6-9.8c-1-3.7-1.6-7.4-1.3-11.2
		C359,192.8,359.2,192,358.6,191.3z"/>
	<path class="st4" d="M399,207c-1.2,2.4-3,4.4-4.5,6.7c3.4-1.1,6.6-2.4,9.7-3.7c0.8-0.4,1.6-0.9,2.4-1.4c1.5-0.9,2.2-2.3,2.9-3.7
		c0.5-0.9-0.4-2.1-0.8-3.1c-0.9-2.4-1.9-4.7-3.1-6.9c-0.8-1.4-1.6-2.7-3.1-3.8c0.5,2.9-0.1,5.6-0.7,8.3
		C401.2,202.1,400.3,204.6,399,207z"/>
	<path class="st4" d="M385.5,196.4c2.6-0.1,5.1-0.6,7.3-1.9c1.6-1,1.9-1.9,1.2-3.6c-0.3-0.7-0.6-1.4-1.1-2c-1.1-1.3-2.3-2.4-3.5-3.7
		c-0.4-0.4-0.8-0.8-1.3-0.5c-1.2,0.5-1.9-0.1-2.7-0.7c-0.7-0.6-1.4-1-2.3-0.5c-1.2,0.7-2.4,1.2-3.5,2c-1.4,1-1.5,1.7-0.9,3.3
		c0.9,2.5,2.4,4.6,4.2,6.6C383.6,196.2,384.4,196.6,385.5,196.4z"/>
	<path class="st4" d="M539.2,386.6c1.5,1,1.9,2.4,1.5,4.2c-0.7,3.1,0.6,5,3.6,5.9c2.4,0.7,4.9,0.8,7.3,0.3c2-0.4,3.6,0.7,5.4,1
		c1,0.2,1.2,1.7,0.4,2.8c-0.4,0.5-0.8,1.1-1.2,1.6c0.1,0.1,0.2,0.2,0.2,0.3c0.3,0.5,0.2,1-0.2,1.4c-0.8,0.8-1.8,1.3-2.8,1.8
		c-0.6,0.3-1.1,0.5-1.7,0.8c-0.3,0.4-0.2,0.9,0.4,1.3c2.7,1.7,5.5,3.4,8.7,4s6.3,1.8,9.7,1.8c2.1,0,3.1,1.7,2.5,3.4
		c2.5-1,4.9-2,7.2-3.3c0.4-0.2,0.9-0.7,1.3-0.2c0.5,0.7-0.3,1-0.6,1.4c-0.2,0.2-0.4,0.4-0.6,0.5c-5.5,3.7-11.3,6.9-17.9,8.1
		c-1.4,1-2.6,2.2-3.8,3.4c-2.3,2.4-2.3,2.7-0.6,5.4c0.6,0.9,1.1,1.8,1.6,2.7c6-0.7,11.2-3.5,16.4-6.7c1.4-0.9,1.4-1,2,0.7
		c0.1,0.4,0.5,0.7,0.8,0.9c1.4,1.4,1.5,3,0.8,4.7c-1,2.2-2.2,4.2-3.7,5.8c0.3,0.1,0.5,0.2,0.8,0.3c1,0.5,2.1,0.8,3-0.4
		c0.6-0.8,1.5-0.6,2,0c0.7,0.9,1.5,0.5,2.3,0.4c2.5-0.4,4.2-1.7,5.8-3.4c0-0.1,0.1-0.1,0.1-0.2c2.7-8,5.9-15.9,10-23.3
		c1-1.8,1.4-3.8,2.2-5.7c2.6-5.4,2.3-10.8,1.1-16.5c-1.4,3.7-3.6,6.9-6.6,9.4c-6.1,5.2-14.4,1.8-15.5-4.9c-0.1-0.7-0.4-1.3-0.8-1.8
		c-2.4-3-3.2-6.5-3.3-10.2c0-1.7-0.5-2.5-2.2-3.1c-5.3-1.8-9.6-6.5-9.2-13.7c0.1-1.9,0-3.7-0.3-5.6s-1-3.3-2.9-4.1
		c-2.3-0.9-4-2.2-5.5-3.9c0.3,2,0.4,4,0.4,6.1c0,1-0.2,2-0.8,2.9c-5.4,8.3-11.3,16.1-18,23.2C538.8,386.4,539,386.5,539.2,386.6z"/>
	<path class="st4" d="M479.1,253.3c-0.2,0-0.4-0.1-0.6-0.1c-0.6-0.2-1.2-0.2-1.5,0.5c-1.8,3.4-5,5.4-7.9,7.7c-1.2,1-2.6,1.9-3.8,3
		c-3.2,3-3.9,7.5-1.9,11.4c0.3,0.6,0.6,1.2,0.9,1.8c2.6,5.8,2.2,10.8-1.1,15.4c2-0.9,4-1.6,6.1-2.1c8.7-2.1,17.6-2.3,26.5-2.2
		c0.5,0,1,0.1,1.5,0.2c5.2,0.6,10.2,2.2,15.2,3.9c1.9,0.7,3.7,1.5,5.4,2.4c-0.9-1.7-1.3-3.6-0.7-5.8c0.2-0.6,0.1-1.2-0.1-1.8
		c-0.7-3.5,0-6.8,1.9-9.7c1.1-1.7,1.6-3.4,1.7-5.4c0.1-1.2-0.2-1.8-1.2-2.5c-2.5-1.5-3.8-3.8-4.3-6.6c-0.3-1.7-0.3-3.4-0.4-5.1
		c0-1.5-0.2-2.9-0.7-4.2c-1-2.9-1.3-3.1-4.4-3.1c-2.7,0-5.3-0.2-7.9-0.5c1.6,2.3,1.7,5.5-0.3,7.8c-3.7,4.3-8.2,7.5-14,8.5
		c-4.2,0.7-7.4-1.4-9.9-4.4c-1.7-2-1.5-4.4-0.4-6.7C477.8,254.8,478.4,254,479.1,253.3z"/>
	<path class="st4" d="M433.3,377.1c0,0.1,0,0.1,0,0.2c0.1,2-0.7,3.6-2,5.1c-2.5,2.8-5.8,3.5-9.5,2.1c-2-0.7-2.2-0.7-3.1,1.2
		c-0.5,1-0.9,2-1.2,3.1c-1.4,5.3-4.8,8.4-10,9.7c-2.1,0.5-4,1.3-6,2.2c-2.2,0.9-4.3,2.1-6.6,2.6c-2.9,0.6-4.1,2.4-4.8,4.9
		c-0.2,0.8-0.5,1.6-0.6,2.5c-0.9,4.5-1.8,8.9-2.1,13.5c-0.3,4.6-3.4,7.1-8,6.8c-0.2,0-0.3,0-0.5,0l0,0c0.8,1.9,1.9,3.8,3.3,5.5
		c1.2,1.4,2.3,2.9,3.6,4.3c0.4,0.5,0.8,0.9,1.2,1.4c0.2-0.4,0.4-0.7,0.7-1.1c3.1-3.6,7-3.9,11.7-1.5c1.2,0.6,2.2,1.6,3.1,2.6
		c2.2,2.5,5.3,3.2,8.3,4c1.3,0.3,2.5-0.4,3.6-1c2.1-1,4.2-1.9,6.4-2.5c1.5-0.4,1.7-0.9,0.7-2c-1.2-1.3-1.6-2.7-1.5-4.4
		c0-0.3,0.1-0.6,0.2-0.9c-1.5-0.6-3-1.4-4.5-2.2c-0.7-0.4-1.2-0.9-1.5-1.7c-0.2-0.6-0.2-1.2,0.3-1.7s1-0.5,1.6-0.2
		c2.5,1.4,5.3,1.6,8.1,2.1c1.5,0.3,3,0.4,4.5,0.3c1.8-0.9,3.2-2.6,3.4-4.7c0.1-1-0.6-0.9-1.2-0.8c-2.6,0.7-5,0-7.5-0.6
		c-2.4-0.6-4.4-1.9-6.1-3.8c-1,0.3-1.9,0.6-2.9,0.8c-5.4,1.4-11-0.8-14-5.3c-2.3-3.5-1.3-7.3,2.5-9.1c3.3-1.6,6.7-1.6,10,0
		c0.7,0.4,1.4,1,2.3,0.8c1.5-0.4,2.9,0.2,4.1,1c1.8,1.1,3.7,1.6,5.8,1.5c0.6,0,1.3-0.1,1.9-0.1c0,0,0,0,0.1-0.1
		c1.6-1.1,3.1-2.4,4.6-3.6c3.9-2.9,5.1-6.9,4.7-11.6c-0.3-3.2-0.6-6.4,0.3-9.6c0.3-1.1,0.6-1.9,1.1-2.5c-1.5-1.9-2.8-3.9-3.9-6.1
		C433.7,377.7,433.5,377.4,433.3,377.1z"/>
	<path class="st4" d="M525.4,559.1c1-0.4,2-0.7,2.9-1.1c1.9-0.8,3.7-1.7,5.5-2.7c4.8-2.7,9.2-6.1,13.5-9.7
		c6.1-5.2,10.4-11.8,13.2-19.3c1.9-5,3.6-10,6.6-14.5c0.5-0.7,0.7-1.5,0.4-2.4c-0.7-1.9-0.1-3.6,1.1-5.2c0.3-0.4,1-0.7,0.6-1.5
		c-1.2-0.3-2.4-0.5-3.7-0.8c-1.6-0.4-3.3-0.8-4.7-1.7c-3.1,0.7-5.9,2.2-8.1,4.4c-0.4,2.4-0.8,4.7-1.3,7c-2.2,9.8-6.5,18.5-14.2,25.2
		c-4.4,3.8-9.3,6.7-14.7,8.9c-17.7,7-35.7,7.8-53.9,1.9c-9.5-3.1-17.9-8-24.7-15.4c-1.6-1.7-3.3-3.1-5.4-4.1
		c-0.2-0.1-0.3-0.2-0.5-0.3c-0.2,1.2-0.3,2.5-0.1,3.7c0.7,4.6,1.9,9.1,4.6,13c0.4,0.6,0.8,1.3,0.9,2.1c0.1,0.9-0.3,1.7-0.8,2.1
		c2.7,2.7,5.8,4.9,9.3,6.7c1.6,0.8,3.2,1.6,4.8,2.4c9.3,4.7,19.1,7.8,29.6,8.5c0.5,0,15.4-1.3,27-3.6c4.8-1,9-2.1,11.4-3.3
		C524.8,559.3,525.1,559.2,525.4,559.1z"/>
</g>
<g>
	<path class="st5" d="M513.7,180.1c0.6-2.2,1.6-4.3,2.9-6.2c1-1.5,2.2-2.6,4.2-2.3c1.9,0.3,2.8,1.7,3.4,3.4c0.6,1.5,0.7,3.2,0.6,4.8
		c-0.2,5.3,1.5,10.2,3.1,15.1c0.2,0.7,0.7,1.1,1.3,1.5c5.4,3.2,9.5,7.8,13.7,12.4c1.1,1.2,1.9,2.5,2.5,4c0.6-0.1,1.2-0.2,1.7-0.3
		c1.7-0.4,2.9-1.5,3.7-2.9c-0.4-0.7-0.8-1.5-1-2.3c-1.5-4.8-1.2-9.5,0.5-14.2c1-2.9,2.6-5.5,4.5-7.9c0.9-1.1,1.6-2.4,2.2-3.7
		c1.2-2.6,2.5-5.2,3.8-7.7c3.9-7.5,9.7-13.4,16.6-18.2c6.6-4.6,13.4-5.9,20.5-4.7c1.4-1.9,1.3-4.2-0.5-6.2
		c-2.8-3.1-6.4-5.1-10.6-4.3c-3.6,0.7-6.7,0.1-10-1.3c-1.5-0.6-2.6-1.3-3.5-2.6c-2.3-3.6-5.6-5.8-9.7-6.8c-2.6-0.7-5.3-0.9-8.1-0.9
		c-3.6-0.1-7.3-0.3-10.9-0.9c-4.5-0.7-8.7,0.2-12.5,2.8c-2.1,1.4-4.1,3-5.9,4.8c-4.2,3.9-8,8-9.3,13.8c-0.1,0.6-0.5,1.2-0.7,1.9
		c-1.4,4-3.6,7.7-4.3,12.1c-0.8,4.9-1.9,9.8-2.4,14.8c-0.3,2.8-0.3,5.5-0.2,8.2C511.6,184.5,513,182.6,513.7,180.1z"/>
	<path class="st5" d="M664,364.9c0.9-1.9,1.7-3.9,2.5-5.8c2.1-5.3,3.4-10.8,5.3-16.2c2-5.5,3.2-11,3.6-16.8
		c0.6-9.9,1.9-19.7,1.7-29.7c-0.1-4.2-0.2-8.5-1.6-12.5c-0.5-1.3-0.7-2.8-1-4.2c-0.3-2-1.3-3.7-2.8-5c-2.8-2.5-3.5-5.6-2.2-9
		c1.8-4.7,3.5-9.4,6.5-13.4c0.7-0.9,0.8-1.7,0.5-2.8c-2-7-3.7-14-6-20.9c-0.6-0.3-0.7-0.8-1-2.3c0-0.2-0.1-0.4-0.1-0.6
		c-0.2-0.6-0.4-1.1-0.7-1.7c-2.6-6.5-3.5-13.2-3-20.2c0.3-3.6,0.7-7.2,1.3-10.8c-0.1,0.1-0.2,0.1-0.2,0.2c-1,1.6-2.4,3-2.9,4.9
		c-0.2,0.9-0.4,1.8-0.9,2.5c-1.9,2.9-3,6-3.4,9.5c-0.5,3.7-0.8,7.4-0.6,11.1c0.2,4.4,0.6,8.8,1.6,13.1c0.3,1.3,0.1,2.1-1.1,2.9
		c-2.8,1.9-4.9,4.4-6,7.6c-0.3,1-1,1.5-2.1,1.6c-2,0.3-3.6,1.2-5.1,2.5c-2.3,1.9-3.9,4.2-5.5,6.6c-0.2,0.3-0.4,0.5-0.5,0.8
		c0.7,1.9,0.7,4-0.1,6.2c-0.9,2.8-2.2,5.5-3.9,8c-1.4,2-3.1,3.6-5.6,4.1c-1.4,0.3-1.7,1.1-1.7,2.3c0,3.2-0.2,6.4-0.9,9.6
		s-2.1,6.1-4.6,8.3c-4.4,4.1-10.2,4-14.5,0c-1.5,1.3-3.2,2.2-5.3,2.1c-1.9,0-3.7-0.3-5.5-1c-6.3-2.3-10.4-6.7-12.3-13.1
		c-1.5-5.1-3.7-9.9-7.4-13.9c-1.3-1.4-2.6-2.7-3.9-4c-1.1-1.1-1.4-2.2-0.9-3.7c0.5-1.8,0.9-3.6,1.1-5.4c-1-2.1-1.7-4.4-2.1-6.8
		c-0.2-1-0.2-2.1,0.7-2.8l0.1-0.1c-1.2-2.6-3.2-4.9-6-6.8c-3.3-2.3-6.5-4.5-10.1-6.4c-2.6-1.4-4.7-3.2-6.4-5.7
		c-1.5-2.2-3.6-3.8-5.4-5.7c-0.1-0.1-0.2-0.1-0.3-0.2c-0.7,1.8-2,3.4-3.7,4.6c-4.1,2.9-9.7,2.7-13.6-1c-1.9-1.8-3.4-2.5-5.9-1.5
		c-2,0.8-4.2,0.2-6.2-0.7c-1-0.5-1.9-0.5-2.8,0.2c-1.5,1.1-3.2,1.4-5,1.5c-2.5,0-4.9,0.3-7.3,1c-1.9,0.6-3.5,1.6-4.7,3.2
		c-0.7,0.9-1.3,1.8-2,2.6c-0.7,0.9-1.4,1.8-2.5,2.1c-2.4,0.6-4.2,2.2-6.2,3.3c-2.7,1.5-5.7,1.8-8.6,1.7s-5-1.9-6.5-4.3
		c-1.6-2.7-2.4-5.6-2.5-9c0.4-3.5,1.3-7.2,2.8-10.7c0.7-1.7,0.7-2.8-0.4-4.3c-3.8-5.3-4.9-11.2-4.3-17.2c-0.4-0.2-0.9-0.5-1.3-0.7
		c-1.1-0.5-2-1.2-2.7-2.2c-1.5-2-3.3-3.9-5.7-5c-1.5-0.7-1.9-0.6-1.4-2.9c0.9-4.5,1.1-9.1,0.5-13.6c-0.3-2.5-0.6-5.1-1.1-7.5
		c-1.8-9.2-5.5-17.4-12.5-23.7c-4.2-3.8-8.7-7.3-14.2-9.1c-2.8-0.9-5.6-1.1-8.5-1.3c-3.6-0.2-7.2-0.1-10.9-0.2
		c-3.2-0.1-6.3,0.7-9.6,0.1c-0.3-0.1-0.6-0.1-0.9-0.1c0.6,4.1-1.9,8.1-6.2,9.2c-0.6,0.2-1.2,0.2-1.7,0.3c-0.4,0.1-0.9,0.3-0.7,0.8
		c0.5,1.2-0.1,2.7,0.6,3.7c0.6,0.8,2,0.6,3.1,0.9c0.2,0,0.3,0.1,0.5,0.1c7.3,1.4,12.9,5.6,16.7,11.8c1.8,2.8,3.7,5.4,6,7.8
		c1,1,2,2.1,2.8,3.3c5.6,7.7,11.4,15.1,16.5,23.2c0.7,1.1,1.3,1.5,2.6,1.2c5.9-1.2,10.8,1,13.7,6.2c2.8,4.9,3.3,10.1,1.6,15.4
		c-1,3-2.5,5.8-4.6,8.2c-1.3,1.5-2.3,3.1-2.6,5.1c-0.3,1.8-1,3.6-1.9,5.2c-1.8,3.3-4.3,5.9-8.2,6c-4.6,0.1-9.4,0.1-12.9-3.9
		c-0.3-0.3-0.5-0.7-0.8-1c-1.3-2.1-1.9-4.4-1.7-6.6c-2.4,1.5-4.7,3.2-7.1,4.7c-6.3,4.2-12.7,8.3-18.5,13.2c-2.4,2-5.3,3.2-8,4.8l0,0
		c0.7,1.6,1,3.4,0.7,5.3c-0.4,3-1.5,5.7-3.1,8.3c-1.2,1.9-2.4,3.7-3.6,5.5c-0.8,1.2-1.3,2.5-1.4,4c-0.1,2.5-0.3,4.9-0.3,7.4
		c-0.2,5.3-0.9,10.6-2.2,15.8c-1.5,6.1-5.5,10-11.4,11.9c-3.7,1.2-7.2,0.7-10.4-1.5c-7.1-5-9.3-17.1-1.9-23.8
		c0.4-0.3,0.9-0.6,0.9-1.4c-2.8-2.3-5.1-5.4-6.8-8.8c-2.3-4.8-4.6-9.6-6-14.8c-0.3-1.1-0.7-1.4-1.9-1.1c-1.9,0.5-3.5,2-5.3,2.3
		c-2,0.3-2.4,1.5-2.5,3.1c-0.3,2.5-0.7,5-1.7,7.4c-1.3,3.4-3.6,5.9-7,7.3c-2.7,1.1-5.3,1-7.8-0.6c-2.4-1.6-3.7-3.9-4.1-6.7
		c-0.4-2.8,0-5.6,0.8-8.3c0.6-2.1,1.4-4.2,2.1-6.2c-1-0.7-1.6-0.3-2.1,0.5c-1,1.5-2.1,2.9-3.4,4.1c-2.9,2.7-5.7,3.1-9.3,1.3
		c-0.3-0.2-0.6-0.3-1.1-0.1c-0.2,2.4-0.6,4.8-0.4,7.2c0.6,9.2,0.3,18.5,0.4,27.7c0,2.4,0,4.7,0.2,7.1c1,11.6,2.2,23.1,4.4,34.5
		c2.1,11.3,5.6,21.9,11.9,31.7c2.1,3.2,4.1,6.4,6.7,9.2c6.7,7.4,12,15.7,15.2,25.3c0.4,1.2,0.9,2.4,1.4,3.6
		c1.7,4.3,3.5,8.4,5.6,12.5c1.4,2.6,3.1,5,5.6,7.5c0.6-5.1,3-9.1,3.8-13.7c0.4-2.3,0.2-4.5-0.4-6.8c-0.2-0.9-0.6-1.6-1.5-1.9
		c-3-1-4.8-3.3-6.8-5.6c-1.5-1.7-2.2-3.9-2.1-6.1c0.2-3.2,0.5-6.4,1.4-9.5c0.6-1.9,1.4-3.8,3.3-4.7c2.5-1.1,4.3-3,6.3-4.6
		c0.9-0.7,1.7-1.5,2.8-1.8c1.4-0.3,2.3-0.9,3-2.1c0.5-0.8,1.3-1.2,2.2-0.8c1,0.5,1,1.4,0.7,2.4c-0.4,1.3-0.8,2.6-1.2,3.9
		c-2.8,8.8-1.7,17.2,3.1,25.1c1.5,2.5,3.1,4.8,5,7s4,4.3,7.1,5.1c0.5,0.1,1,0.5,1,1c-0.1,1.9,1.1,3.9,0.3,5.7c-0.9,2-1,3.8-0.3,5.8
		c0.2,0.5,0.1,1,0.1,1.5c0.1,2.6,0.6,5,1.6,7.3c0.2,0,0.3,0,0.5,0c4.7,0.3,7.7-2.2,8-6.8c0.3-4.6,1.3-9,2.1-13.5
		c0.2-0.8,0.4-1.7,0.6-2.5c0.7-2.5,1.9-4.3,4.8-4.9c2.3-0.5,4.4-1.6,6.6-2.6c1.9-0.8,3.9-1.7,6-2.2c5.2-1.3,8.7-4.4,10-9.7
		c0.3-1.1,0.7-2.1,1.2-3.1c0.9-1.8,1.2-1.9,3.1-1.2c3.7,1.4,7,0.6,9.5-2.1c1.3-1.4,2.1-3.1,2-5.1c0-0.1,0-0.1,0-0.2
		c-0.5-0.8-1-1.5-1.7-2.2c-2.1-2.3-3.4-5-4.1-8c-0.9-3.4-1.1-6.8-0.8-10.3c0.1-0.9,0.2-1.9,0.1-2.8c-0.5-5.6-0.2-11.2,0.4-16.7
		c1-9.6,4.7-18.1,10.7-25.6c4.6-5.8,10.5-10,16.8-13.8c2.8-1.7,5.6-3.3,8.6-4.7c3.4-4.6,3.7-9.6,1.1-15.4c-0.3-0.6-0.6-1.2-0.9-1.8
		c-2-3.9-1.2-8.4,1.9-11.4c1.2-1.1,2.5-2,3.8-3c2.9-2.3,6.1-4.3,7.9-7.7c0.4-0.7,0.9-0.6,1.5-0.5c0.2,0.1,0.4,0.1,0.6,0.1
		c0.4-0.4,0.8-0.7,1.3-1c3.7-2.4,7.8-4,12.1-5c0.7-0.2,1.5-0.2,2-0.2c1.8,0,3.3,0.2,4.7,0.9c1.2,0.6,2.1,1.5,2.8,2.4
		c2.6,0.3,5.2,0.5,7.9,0.5c3,0,3.4,0.3,4.4,3.1c0.5,1.4,0.7,2.8,0.7,4.2c0,1.7,0.1,3.4,0.4,5.1c0.5,2.8,1.8,5.1,4.3,6.6
		c1,0.6,1.3,1.3,1.2,2.5c-0.1,2-0.6,3.7-1.7,5.4c-1.9,2.9-2.6,6.2-1.9,9.7c0.1,0.6,0.2,1.2,0.1,1.8c-0.6,2.2-0.2,4.1,0.7,5.8
		c4.4,2.3,8.3,5.4,12,8.7c2.1,1.8,4,3.9,5.5,6.3c4.8,8.1,9.6,16.1,14.4,24.2c3,5.1,5,10.7,6.5,16.5c0.3,1.1,0.5,2.2,0.6,3.3
		c1.4,1.6,3.2,3,5.5,3.9c1.9,0.8,2.6,2.2,2.9,4.1c0.3,1.9,0.4,3.7,0.3,5.6c-0.4,7.2,3.9,11.8,9.2,13.7c1.7,0.6,2.2,1.4,2.2,3.1
		c0.1,3.7,0.8,7.2,3.3,10.2c0.4,0.5,0.7,1.1,0.8,1.8c1,6.7,9.4,10.1,15.5,4.9c3-2.6,5.3-5.8,6.6-9.4l0,0c-1.4-6.6-2.4-13.4-1.4-20.2
		c0.4-2.3,0.2-4.5-0.3-6.8c-0.5-2.2,0.3-3.8,1.9-5.2c2.1-1.9,4.6-2.2,7.2-1.4c5.3,1.7,9.3,5.2,11.4,10.4c1.7,4.2,3.7,8.4,3.9,13.1
		c0.1,1.7,0.8,3.3-0.4,4.8c-0.4,0.5-0.1,1.1-0.1,1.7c0.1,2.3,0.2,4.6,0.2,6.9c0.2,6.2,1.1,12.3,3.7,18c0.8,1.8,1.4,3.7,1.7,5.6
		c0.4,2.1,0.7,4.3,1.1,6.7c0.9-0.7,1.2-1.6,1.6-2.4c3-5.7,4.8-11.7,5.8-18.1c1-6.6,2.5-13,5.7-18.8c0.4-0.7,0.6-1.6,1-2.3
		c0.5-1.1,0.3-2.1-0.4-3.1c-1.5-2.1-2.5-4.4-2.8-7c-0.1-0.9-0.4-1.7-0.9-2.3c-3.2-4.6-3.4-9.8-3-15.1c0.3-3.4,3-5.7,6.3-5.1
		c3.9,0.7,7.2,2.4,9.5,5.8c1.5,2.2,2.6,4.6,3,7.2c0.2,1.3,0.9,2.4,2.4,2.6C661.9,367,663.2,366.4,664,364.9z M368.3,323.3
		c-0.2,0.6-0.4,1.1-0.6,1.7c-1.6,3.8-2.6,7.9-3.5,11.9c-0.5,2.2,0.2,4.4,0.6,6.5c1.2,6.4-2.9,13.5-9.4,14.7c-4.7,0.9-7.7,3.3-10,7.2
		c-1.3,2.2-2.9,4.2-5.3,5.3c-4.2,1.8-7.9,0.5-11.3-2.3c-2.4-2-4-4.6-4.9-7.6c-0.5-1.5-1.2-3-2.1-4.3c-2-3-3.6-6.3-4.8-9.7
		c-1.4-4-2.7-8-4-12c-0.5-1.4-0.9-2.9-0.8-4.5c0.3-3-0.6-5.9-1.8-8.6c-2.4-5.5-3.5-11.2-3.3-17.1c-0.1-4.6,0.4-8.9,1.8-13.1
		c0.4-1.1,0.9-2,1.6-2.9c1-1.4,2.3-2.2,4.1-2.1c1.4,0.1,2.7,0.1,4.1,0c1.7,0,3.3-0.3,5-0.7c5.4-1.3,12,1.1,12.4,8.6
		c0.1,1.7,0.8,3.1,1.1,4.7c0.4,2.7,0.9,5.5,1,8.3c0.2,5.7,3.2,9.4,7.8,12.2c2,1.2,4.5,1.6,6.2,3.3c0.4,0.4,1,0.3,1.5,0.1
		c2.5-1.1,5.3-0.7,7.9-1.3c1-0.2,2-0.5,2.9-0.8s1.8-0.4,2.7,0C368.2,321.3,368.7,322.1,368.3,323.3z M403.3,242.9
		c1.5-0.7,2.2-1.8,2.3-3.4c0.1-1.1,0.2-2.2,0.9-3.1c1.3-1.9,3.6-2.7,5.8-2.1c2.3,0.7,3.8,2.7,3.8,5.1c0,1.3-0.3,2.5-1.1,3.6
		c-1.6,2.2-3.4,4.2-5.5,5.9c-1.3,1-2.8,1.6-4.4,1.5c-2.1-0.1-3.8-1.5-4.2-3.4C400.4,245.3,401.2,243.9,403.3,242.9z M423.3,315.3
		c-0.3,0.5-0.7,1-1.1,1.4c-5.3,5.3-8.4,11.8-11.1,18.6c-1.3,3.4-1.2,7-0.8,10.5c0.1,0.5,0.2,1,0.6,1.4c3.3,4,1.7,10.8-1.6,13.9
		c-0.2,0.2-0.3,0.4-0.5,0.5c-4.8,3.8-6.6,9-7.1,14.9c-0.2,2-0.3,4.1-0.6,6.1c-0.3,2.7-3.8,9.3-5.1,9.5c-1.2,0.2-1.7-0.9-2.7-1.2
		c-2.7-0.8-4.1-2.9-4.9-5.4c-0.7-2.3-1-4.6-1-7.3c0-0.4-0.1-1.1,0.1-1.7c0.9-2.9,0.2-5.5-0.8-8.3c-1.9-5.8-1.5-11.5,1.2-17
		c1.6-3.3,4-5.9,7.2-7.6c1.4-0.8,3-1.3,4.6-1.3c1,0,1.6-0.4,2.2-1.3c3.9-6.8,8.1-13.5,12.7-19.9c1.7-2.4,3.7-4.4,6-6.1
		c0.5-0.4,1-0.7,1.5-0.9c0.3-0.2,0.7,0,0.9,0.2C423.5,314.4,423.6,314.9,423.3,315.3z M449.9,246.2c-0.2,7.6-3.4,14.2-9.9,19.1
		c-2.6,2-4.8,4.5-6.8,7.1c-0.6,0.8-0.7,1.6-0.4,2.4c1,2.5,1.1,5.3,1.7,7.9c1.3,5.7-1.8,10.2-7.9,11.4c-2.2,0.4-4.5,0.8-6.7,1.3
		c-6.3,1.5-10.5,5.6-13.5,11.1c-2,3.7-3.8,7.3-5.8,11c-0.8,1.5-1.7,2.9-2.9,4.1c-2,2-5,2.6-7.7,1.4c-1.9-0.8-2.8-2.3-3.1-4.3
		c-0.1-1.1-0.1-2.2,0.2-3.3c0.8-3.4,1-6.8,1.4-10.3c0.6-6,0.7-12.1,1.2-18.2c0.6-6.6,3.4-11.9,7.2-17c1.6-2.2,3.2-4.4,4.9-6.4
		c2.7-3.1,6-5.5,9.6-7.4c1.8-1,3.2-2.2,4.5-3.6c2-2.1,4.2-3.5,7.3-3.4c1.7,0.1,3.5-0.5,5.3-0.4c1,0.1,1.5-0.7,2.1-1.3
		c2.2-2.2,4.4-4.5,6.7-6.6c1.7-1.6,3.6-2.8,6.1-2.8c4-0.1,6.3,2,6.6,6C449.9,244.8,449.9,245.3,449.9,246.2z M585.2,355.5
		c-0.7,3.4-3.4,5.8-5.5,8.4c-1.1,1.3-2.7,0.8-3.4-0.8c-0.4-1-0.2-2,0-3c0.2-0.9,0-1.4-1-1.5c-4.4-0.8-6.9-3.7-8.4-7.6
		c-1.1-3-1.6-6.1-1.6-9.2c0-5.7-1.5-11-3.7-16.2c-0.4-1-0.8-2-0.9-3.1c-0.4-4.5,3.5-7.8,7.7-6.2c3.9,1.4,7.2,3.8,10,6.8
		c0.2,0.2,0.3,0.4,0.5,0.6c0.5,1,1.2,2,0.2,3s-1.9,0.2-2.7-0.4c-2.1-1.6-4.5-2.7-7-3.6c-0.5-0.2-1.1-0.5-2-0.2
		c1.7,1.2,2.2,3.5,4.7,3.5c6.2,3.8,11.9,8.1,13.6,15.8c0.1,0.3,0.2,0.7,0.2,1C586.5,347,586.1,351.3,585.2,355.5z M587.4,311.6
		c-0.7,1.3-1,2.7-0.9,4.2c0.1,0.7-0.1,1.4-0.9,1.6c-0.7,0.2-1.1-0.2-1.5-0.7c-0.2-0.4-0.5-0.7-1-0.7c-2.7-0.1-4.4-2-6.3-3.5
		c-1.3-1.1-2.7-2-4.5-2.2c-1-0.1-2-0.6-2.8-1.2c-2.8-2.1-6-2.1-9.2-1.7c-3.3,0.4-6.3,0.1-9-2.1c-1.8-1.5-3.9-2.6-5.3-4.7
		c-1.4-2.2-2.2-4.5-2.2-6.7c0-3.2,1-5.9,1.7-8.6c0.4-1.4,0.3-2.5-0.5-3.6c-0.4-0.6-0.7-1.1-1.1-1.7c-1.5-2.5-1.4-2.4-4.2-1.3
		c-2.4,0.9-4.8,1.1-6.9-0.6c-2.2-1.8-3-4.2-2.3-7c0.5-2.1,1.2-4.2,2.2-6.2c0.7-1.4,1.4-2.9,1.9-4.4c0.8-2.5,0.6-4.7-1-7.1
		c-2.1-3.1-2.7-6.7-0.6-10.2c2.9-4.7,7.3-5,11.3-1.6c2.5,2.1,4.3,4.8,5.7,7.7c1.8,3.9,4.1,7.4,7.2,10.3c1.8,1.7,2.5,4,3.2,6.3
		c0.2,0.6,0.2,1.2,0.6,1.6c2.9,2.7,3.7,6.4,5,9.8c1,2.6,2.2,5.1,3.5,7.6c1.3,2.4,3.2,4.3,5.6,5.7c3.2,1.9,5.9,4.2,8,7.3
		c2.4,3.6,4.2,7.5,4.2,12C587.6,310.4,587.7,311.1,587.4,311.6z M659,337.7c-0.8,1.1-1.9,1.9-3,2.7c-3.8,2.7-7.5,0.8-8.9-3
		c-0.5-1.3-0.8-2.8-1-4.2c-0.1-0.8-0.4-1.7-0.8-2.4c-0.4-0.7-1.1-1.1-1.9-1c-0.7,0.1-0.7,0.8-0.9,1.4c-0.4,1.6-0.9,3.3-1.4,4.9
		c-0.7,2.3-1.8,4.4-3.6,6c-0.9,0.7-1.3,1.7-1.6,2.8c-1.2,5.2-3.5,9.9-7.6,13.4c-1.2,1.1-1.7,2.2-1.5,3.8c0.1,0.9,0.1,1.9-0.1,2.8
		c-0.2,1.3-1.2,1.6-2.2,0.8c-0.5-0.4-0.9-1-1.3-1.6c-1-1.4-1.9-2.8-2.8-4.2c-1-1.5-2.3-2.7-3.7-3.8c-0.9-0.7-1.9-1.2-2.6-2
		c-2.8-3.3-6.5-5-10.3-6.8c-1.8-0.8-3.1-2.6-5.1-3.1c-0.6-0.1-0.8-0.8-0.9-1.4c-0.2-1.7,0.2-3.3,1.6-4.3c3-2,5.9-4.1,9.8-4.4
		c2.4-0.2,4.9-0.4,7.3-0.4c1.4,0,2.4-0.4,3.3-1.5c0.8-0.9,1.7-1.7,2.5-2.5c1-1.1,2.3-1.7,3.7-2.1c2.1-0.5,2.3-1.2,0.8-2.8
		c-1.5-1.6-3.3-2.9-5.2-3.9c-2.8-1.5-5.6-3.2-7.3-6.1c-1.1-1.9-1.7-3.8-0.8-6c0.5-1.2,1.2-2.2,2.4-2.8c1.8-0.8,3.5-1.7,5.4-2.3
		c4.9-1.5,8.3-4.7,11.2-8.7c3.2-4.6,6.3-9.2,9.5-13.7c1.2-1.6,2.4-3.3,3.9-4.6c0.3-0.3,0.7-0.6,1-0.8c1.1-0.8,2.3-1.2,3.7-1.1
		c2.3,0,4.5,0.8,6.2,2.2c1.7,1.4,3,3.4,3.4,5.8s0.1,4.5-0.4,6.7c-0.4,1.7-0.2,3.1,0.9,4.5c1.1,1.4,1.9,3,3.3,4.2
		c3.2,2.6,4.1,6.3,4.2,10C668.7,319.1,665.7,329.1,659,337.7z"/>
	<path class="st5" d="M303.2,153.2c0.5-0.4,1.1-0.8,1.6-1.1c3.4-2,7.1-0.8,8.6,2.9c0.5,1.2,0.7,2.4,0.9,3.7c0.2,1.7,0.6,3.3,1.2,5.1
		c0.9-1.8,0.9-3.6,1.3-5.3c3.5-16.9,8.9-33,18.9-47.3c4-5.7,8.9-10.4,15.1-13.6c1.3-0.7,2.7-1.3,4-2.4c-1.7-1.7-3.8-2-5.9-1.7
		c-1.7,0.2-3.4,0.7-5,0.4c-2.7-0.6-4.6,0.5-6.3,2.3c-0.2,0.2-0.5,0.5-0.8,0.7c-0.2,0.2-0.4,0.3-0.6,0.5c-1.4,1-3,1.3-4.5,0.5
		c-1.7-0.9-2.2-2.5-2-4.3c0.3-2.4,1.4-4.5,2.7-6.5c3.6-5.5,7.7-10.5,13.1-14.4c0.4-0.3,1.1-0.4,1-1.4c-1.3,0.3-2.5,0.6-3.7,0.9
		c-1.3,0.3-2.8,0.6-3.9-0.3c-1.3-1.1-2.5-0.8-3.7,0c-5.4,3.2-10.5,6.8-14.6,11.6c-11,12.9-16.9,27.7-17.3,44.8
		c-0.2,7.9-0.2,15.7-0.3,23.6C302.7,152.1,302.5,152.8,303.2,153.2z"/>
	<path class="st5" d="M623.4,73.3c0.7,1,1.2,0.7,2,0.1c2.2-1.7,4.4-1.9,6.3-0.6c1.1,0.7,1.8,1.7,2.5,2.9c0.7,1.4,1.6,2.6,3,3.4
		c1.4,0.7,1.8,1.8,1.9,3.3c0.2,3.9,0.3,7.8,0.9,11.6c1.1,6.8,2.7,13.5,6.6,19.3c1.9,2.8,3.9,5.5,5.9,8.3c2.1,2.9,4.7,5,7.8,6.7
		c3.9,2.1,8,4.1,12.3,5.5c3.1,1,6,2.4,8.5,4.5c1.6,1.4,2.5,2.9,2.5,5c0,2.5,0.2,5.1,0.3,7.6s-0.2,4.9-0.9,7.3
		c-0.9,3-1.6,6.1-2.2,9.1c-0.1,0.6-0.2,1.2-0.3,1.8c0.7-2.1,1.4-4.2,2.1-6.4c0.7-2.2,1.4-4.3,2.6-6.3c1.4-2.5,2.4-5.2,2.7-8.1
		c0.3-3.4,0.8-6.7,1.3-10s0.9-6.7,0.3-10.1c-0.4-1.9-1-3.6-1.8-5.4c-2.1-2.6-4.6-4.9-7.8-6.4c-4.3-2-8.7-3.9-13-5.8
		c-0.5-0.2-1-0.7-1.7-0.2c0.1,0.3,0.2,0.6,0.2,0.9c0.5,3.2-1.3,5.4-4.6,5.6c-1.7,0.1-3.2-0.5-4.5-1.5c-4.3-3.2-7.6-7.2-9.1-12.5
		c-2.1-7.4-1.7-14.7,1.7-21.8c0.4-0.8,1-1.6,1.1-2.5c-0.1-0.1-0.2-0.2-0.2-0.2c-0.5,0-1,0-1.5,0c-3.3,0.1-5.7-1.4-7.3-4.3
		c-0.8-1.3-1.3-2.8-1.4-4.3c-0.1-1.9-0.7-3.6-1.5-5.3c-0.9-1.9-0.9-3.7-0.3-5.2c-1.2-0.5-2.5-0.9-3.9-1.1
		c-5.4-0.7-13.3,4.6-14.1,11.4C621.1,70.8,622.4,71.9,623.4,73.3z"/>
	<path class="st5" d="M580.3,203.2c2.6,4.9,9.7,9.7,15,10.2c0.6,0.1,1.2,0,1.7-0.4c2.2-1.4,4.4-2.8,6.2-4.8c0.6-0.6,1.2-1.3,1.4-2.1
		c0.6-2.9,0.5-5.7-0.6-8.7c-2,4.8-5.6,7.7-10.3,9.2C588.5,208.5,584.3,206.3,580.3,203.2z"/>
	<path class="st5" d="M382.2,213.4c5.1,0,12-4.2,14.9-11.5c-1.1,0.8-1.7,1.4-2.5,1.7c-3.7,1.5-7.3,3-10.7,5c-2.5,1.4-5.4,1-8.2,0.4
		c-3.1-0.7-6.1-1.5-8.9-3C370.2,211.8,375.9,213.4,382.2,213.4z"/>
	<path class="st5" d="M849.7,649.5c-1.9-3.8-4.3-7.4-6.9-10.7c-2.7-3.3-5.7-6.3-9.1-9c-3.3-2.6-6.9-4.9-10.7-6.8l0,0l-5.6-2.5
		c-0.6-0.5-1.2-1.1-1.8-1.6c-1.4-1.2-2.9-2.3-4.5-3.2c-6.7-3.7-14.1-5.8-21.6-7.1c-3.8-0.6-7.6-1-11.4-1.3c-2.5-0.1-5,0-7.5-0.4
		c-2.7-0.4-5.3-1.7-8-1.8c-1.1-0.1-2.1,0-3.2,0.1c-8.7,0.9-17.4,2.2-25.8,4.7c-4.2,1.3-8.4,2.9-12.3,4.9c-3.8,1.9-7.1,4.6-11.1,6.2
		c-1,0.4-1.9,0.8-2.8,1.2c-20.1,8.6-38.1,25.6-45.1,46.6l0,0c1.8-0.4,4,0.3,5.4-0.9c0.6-0.5,0.9-1.2,1.2-1.9
		c3.2-7,6.4-14.2,11.9-19.6c6.7-6.6,17.3-9.3,25.2-3.2v-0.1c0,0.1,0.1,0.1,0.1,0.2c0.5,0.4,0.9,0.8,1.3,1.2c0,0,0,0,0.1,0.1
		s0.3,0.3,0.4,0.4c0.5,0.5,1,1,1.4,1.6c0.1,0.1,0.2,0.2,0.2,0.3c-0.7,0-1.3,0-2,0.1c-1.4,0.2-2.9,0.5-4.2,1c-2.7,1-5.2,2.5-7.6,4.1
		c-0.6,0.4-1.2,0.8-1.8,1.3L693,654l-1.6,1.2l-0.8,0.6c0,0,0.9-0.2,1-0.3c4.2-1.1,8.3-1.1,12.3,0.7c0.3,0.2,0.6,0.3,0.9,0.5
		c0.3,0.2,0.6,0.3,0.9,0.6c0.6,0.4,1.1,0.8,1.7,1.3c1.1,0.9,2,2,2.9,3.1c0.9,1.3,1.7,2.7,2.4,4.1l0,0c-0.1,0.4-0.2,0.8-0.3,1.2
		c-0.1,0.2-0.1,0.5-0.2,0.7v0.1c-0.1,0.5-0.1,0.9-0.2,1.4c0,0.1,0,0.2,0,0.3s0,0.2,0.1,0.3c0,0.2,0.1,0.4,0.1,0.6v-0.1v0.1
		c0,0,0,0,0,0.1c0,0,0,0,0-0.1c0.2,0.8,0.3,1.5,0.5,2.3c0.2,0.9,0.4,1.8,0.6,2.7c1.1,1.9,2.3,3.7,3,5.8c0.1,0.2,0.1,0.4,0.2,0.6
		c0,0.1,0,0.1,0,0.2c0.1,0.2,0.1,0.4,0.2,0.6l0,0c0,0.2,0.1,0.4,0.1,0.6c0,0.1,0,0.1,0,0.2c0,0.2,0.1,0.3,0.1,0.5v0.1
		c0,0.2,0.1,0.4,0.1,0.6c0,0.1,0,0.2,0,0.2c0,0.1,0,0.3,0,0.4c0,0.1,0,0.2,0,0.3s0,0.3,0,0.4c0,0.1,0,0.2,0,0.3s0,0.2,0,0.3
		c0,0.2,0,0.4,0,0.6v0.1c0,0.1,0,0.3,0,0.4l0,0c0,0.3,0,0.6,0,0.9c0.1,0.1,0.2,0.3,0.4,0.4c0.6,0.7,1.2,1.5,1.8,2.2
		c0.3,0.3,0.6,0.6,0.9,0.9c2.6,2.2,5.2,4.3,8.6,5.1c5.3,1.2,10.8-0.5,16.3-0.1c1.1,0.1,2.2,0.2,3.1-0.1c1.9-0.8,3-3.7,4-5.4
		c1.5-2.5,2.7-5.2,3.8-8c2-5.3,3.2-10.8,3.6-16.4c0.7-8.8-0.9-17.8-4.5-25.9c-1.8-4.1-4-7.9-6.6-11.5s-5.6-6.9-8.8-9.9
		c-0.4-0.4-0.8-0.7-1.2-1.1l-2.1-1.8l0,0l0,0h0.1h0.2l0.4,0.1l0.8,0.2l1.2,0.3l0.4,0.1l0.4,0.1l0.8,0.2c2.1,0.7,4.2,1.5,6.2,2.5
		c18.4,9.6,26.3,29,27.5,48.6c0,0.1,0,0.3,0,0.4c0,0.6,0,1.2,0,1.8c0,0.5,0,1.1-0.1,1.6c0,0.5-0.1,1-0.1,1.5c0,0.1,0,0.1,0,0.2
		c-0.1,0.4-0.1,0.7-0.2,1.1c0,0.3-0.1,0.7-0.2,1c0,0.2-0.1,0.5-0.1,0.7c-0.5,3.3-1.6,6.5-2.6,9.6c-1.1,3.3-3,6.5-1.6,10.1
		c2.9,7.4,9.5,9.7,16.7,10.9c1,0.2,1.9,0.3,2.9,0.4c1.2,0.2,2.4,0.3,3.6,0.4c1.4,0.1,2.8,0.3,4.2,0.4c0.3,0,0.5,0,0.8,0.1
		c0.2,0,0.5,0,0.7,0.1c0.5,0,1,0,1.5,0c0-0.1,0-0.1,0-0.2c0.6-2.8,2.1-5.2,3.4-7.7c6.1-11.8,8.4-25.8,6.5-39.2
		c-1.8-12.4-8.8-24-17.5-32.8c-0.8-0.8-1.8-2-1.6-3.2c3.1,0.8,6.4,3.4,9.1,5.1c3.3,2,6.5,4.3,9.5,6.7c5.4,4.5,10.6,10.4,11.7,17.6
		c2.1,13.8,6,14.7,4.1,28.6c-0.5,3.7-2.7,7.1-3.5,10.8c-1,5.2-1.3,10-3.3,14.9c-0.1,0.3-0.3,0.6-0.4,0.9c-0.1,0.4-0.3,2.9-0.9,2.7
		c2.5,0.8,14.5,3.2,15.1-1.2l0.3-2.4l3-16.7c2.9-16.4,3.3-32.8-4.1-48.1c-1.6-3.3-4.4-9.5-6.4-11.4c0.3,0.2,0.5,0.5,0.7,0.7
		c4.1,3.9,7.9,7.5,10.9,12.3c3.5,5.6,6.6,11.9,8.9,18c0.2,0.5,0.3,1,0.5,1.5c0.7,2,1.2,4,1.6,6.1c0.8,4.1,1.3,8.2,1.3,12.4
		c-0.1,4.1-0.5,8.3-1.4,12.3c-0.3,1.2-0.6,2.4-1,3.6c0.4-0.1,0.7-0.2,1.1-0.3c1-0.4,1.9-1.1,2.6-2c0.7-0.8,1.3-1.7,1.8-2.7
		s0.9-2,1.3-3c0.2-0.5,0.3-1,0.4-1.5C857.5,677.6,856.2,662.4,849.7,649.5z M715.1,618.3L715.1,618.3
		C715.2,618.3,715.2,618.2,715.1,618.3C715.2,618.2,715.2,618.3,715.1,618.3z"/>
	<path class="st5" d="M280.4,622.1c-0.9-0.4-1.9-0.8-2.8-1.2c-3.9-1.5-7.3-4.3-11.1-6.2c-3.9-2-8.1-3.6-12.3-4.9
		c-8.4-2.5-17.1-3.8-25.8-4.7c-1.1-0.1-2.1-0.2-3.2-0.1c-2.7,0.2-5.3,1.4-8,1.8c-2.5,0.4-5,0.3-7.5,0.4c-3.8,0.2-7.6,0.6-11.4,1.3
		c-7.5,1.2-15,3.3-21.6,7.1c-1.6,0.9-3.1,2-4.5,3.2c-0.6,0.5-1.2,1.1-1.8,1.6l-5.6,2.5l0,0c-3.8,1.9-7.4,4.2-10.7,6.8
		c-3.3,2.7-6.4,5.7-9.1,9c-2.7,3.3-5,6.9-6.9,10.7c-6.5,12.9-7.8,28.2-4,42.1c0.1,0.5,0.3,1,0.4,1.5c0.3,1,0.8,2,1.3,3
		s1.1,1.9,1.8,2.7s1.6,1.5,2.6,2c0.3,0.1,0.7,0.2,1.1,0.3c-0.4-1.2-0.7-2.4-1-3.6c-0.9-4-1.4-8.1-1.4-12.3c0-4.1,0.5-8.3,1.3-12.4
		c0.4-2,1-4.1,1.6-6.1c0.2-0.5,0.3-1,0.5-1.5c2.3-6.2,5.4-12.5,8.9-18c3-4.8,6.8-8.4,10.9-12.3c0.2-0.2,0.5-0.5,0.7-0.7
		c-2.1,1.9-4.9,8.2-6.4,11.4c-7.4,15.3-7,31.7-4.1,48.1l3,16.7l0.3,2.4c0.6,4.3,12.6,2,15.1,1.2c-0.6,0.2-0.9-2.4-0.9-2.7
		c-0.1-0.3-0.2-0.6-0.4-0.9c-1.9-4.9-2.3-9.8-3.3-14.9c-0.7-3.7-3-7.1-3.5-10.8c-1.8-13.9,2-14.7,4.1-28.6
		c1.1-7.2,6.2-13.1,11.7-17.6c3-2.5,6.2-4.7,9.5-6.7c2.7-1.7,6-4.3,9.1-5.1c0.2,1.2-0.8,2.3-1.6,3.2c-8.7,8.8-15.7,20.4-17.5,32.8
		c-1.9,13.4,0.4,27.5,6.5,39.2c1.3,2.5,2.8,4.9,3.4,7.7c0,0.1,0,0.1,0,0.2c0.5,0,1,0,1.5,0c0.2,0,0.5,0,0.7-0.1c0.3,0,0.5,0,0.8-0.1
		c1.4-0.2,2.8-0.3,4.2-0.4c1.2-0.1,2.4-0.2,3.6-0.4c1-0.1,1.9-0.2,2.9-0.4c7.2-1.1,13.8-3.5,16.7-10.9c1.4-3.5-0.5-6.7-1.6-10.1
		c-1-3.1-2.2-6.3-2.6-9.6c0-0.2-0.1-0.5-0.1-0.7c-0.1-0.3-0.2-0.7-0.2-1c-0.1-0.4-0.1-0.7-0.2-1.1c0-0.1,0-0.1,0-0.2
		c0-0.5-0.1-1-0.1-1.5s0-1.1-0.1-1.6c0-0.6,0-1.2,0-1.8c0-0.1,0-0.3,0-0.4c1.2-19.6,9.1-39,27.5-48.6c2-1,4.1-1.9,6.2-2.5l0.8-0.2
		l0.4-0.1l0.4-0.1l1.2-0.3l0.8-0.2l0.4-0.1h0.2h0.1l0,0l0,0l-2.1,1.8c-0.4,0.4-0.8,0.7-1.2,1.1c-3.3,3-6.2,6.3-8.8,9.9
		c-2.6,3.6-4.8,7.5-6.6,11.5c-3.5,8.1-5.1,17.1-4.5,25.9c0.4,5.6,1.6,11.1,3.6,16.4c1,2.8,2.3,5.5,3.8,8c1,1.7,2.1,4.7,4,5.4
		c1,0.4,2.1,0.2,3.1,0.1c5.4-0.4,11,1.3,16.3,0.1c3.4-0.8,6.1-2.8,8.6-5.1c0.3-0.3,0.6-0.6,0.9-0.9c0.6-0.7,1.2-1.5,1.8-2.2
		c0.1-0.1,0.2-0.3,0.4-0.4c0-0.3,0-0.6,0-0.9l0,0c0-0.1,0-0.3,0-0.4v-0.1c0-0.2,0-0.4,0-0.6c0-0.1,0-0.2,0-0.3s0-0.2,0-0.3
		s0-0.3,0-0.4c0-0.1,0-0.2,0-0.3s0-0.3,0-0.4c0-0.1,0-0.2,0-0.2c0-0.2,0.1-0.4,0.1-0.6v-0.1c0-0.2,0.1-0.4,0.1-0.5s0-0.1,0-0.2
		c0-0.2,0.1-0.4,0.1-0.6l0,0c0-0.2,0.1-0.4,0.2-0.6c0-0.1,0-0.1,0-0.2c0.1-0.2,0.1-0.4,0.2-0.6c0.7-2.1,1.9-3.9,3-5.8
		c0.2-0.9,0.4-1.8,0.6-2.7c0.2-0.8,0.3-1.5,0.5-2.3c0,0,0,0,0,0.1c0,0,0,0,0-0.1v-0.1v0.1c0-0.2,0.1-0.4,0.1-0.6
		c0-0.1,0-0.2,0.1-0.3c0-0.1,0-0.2,0-0.3c0-0.5-0.1-0.9-0.2-1.4v-0.1c-0.1-0.2-0.1-0.5-0.2-0.7c-0.1-0.4-0.2-0.8-0.3-1.2l0,0
		c0.7-1.4,1.5-2.8,2.4-4.1c0.8-1.1,1.8-2.2,2.9-3.1c0.6-0.4,1.1-0.9,1.7-1.3c0.3-0.2,0.6-0.4,0.9-0.6c0.3-0.2,0.6-0.3,0.9-0.5
		c4-1.9,8.1-1.8,12.3-0.7c0.1,0,1,0.3,1,0.3l-0.8-0.6l-1.6-1.2l-0.9-0.6c-0.6-0.4-1.2-0.8-1.8-1.3c-2.4-1.6-4.9-3.1-7.6-4.1
		c-1.4-0.5-2.8-0.8-4.2-1c-0.7-0.1-1.3-0.1-2-0.1c0.1-0.1,0.2-0.2,0.2-0.3c0.4-0.6,0.9-1.1,1.4-1.6c0.1-0.1,0.3-0.3,0.4-0.4
		c0,0,0,0,0.1-0.1c0.4-0.4,0.9-0.8,1.3-1.2c0-0.1,0.1-0.1,0.1-0.2v0.1c7.9-6.1,18.5-3.5,25.2,3.2c5.5,5.4,8.6,12.7,11.9,19.6
		c0.3,0.7,0.7,1.4,1.2,1.9c1.4,1.2,3.6,0.5,5.4,0.9l0,0C318.5,647.7,300.5,630.8,280.4,622.1z M272.3,618.2l0.1,0.1l0,0L272.3,618.2
		z"/>
</g>
</svg>
