<?xml version="1.0" encoding="utf-8"?>
<!-- Generator: Adobe Illustrator 24.0.1, SVG Export Plug-In . SVG Version: 6.00 Build 0)  -->
<svg version="1.1" id="Layer_1" xmlns="http://www.w3.org/2000/svg" xmlns:xlink="http://www.w3.org/1999/xlink" x="0px" y="0px"
	 viewBox="0 0 990 781.2" style="enable-background:new 0 0 990 781.2;" xml:space="preserve">
<style type="text/css">
	.st0{fill:#E4706A;}
	.st1{fill:#535358;}
	.st2{fill:#FEFDFC;}
	.st3{fill:#F5BD66;}
	.st4{fill:#B36615;}
</style>
<g>
	<path d="M204.4,725.8c-0.9,1.4-0.9,2.7-1.1,4c-0.6,3.7-2.8,6.6-5,9.4c-1.1,1.4-2.7,1.6-4.4,1.2c-5.4-1.4-10.2-3.8-14-7.9
		c-4-4.3-7.9-8.6-10.9-13.7c-0.9-1.5-2-2.7-3.5-3.5c-7.5-4.1-12.4-10.7-16.8-17.8c-0.3-0.5-0.6-1.1-0.9-1.7
		c-2.7-7.3-5-14.7-4.6-22.6c0.4-8.4,1.4-16.7,4.2-24.7c1.9-5.6,5-10.5,9.2-14.7c1.5-1.4,3-2.9,4.6-4.2c6-4.8,12-9.6,18.2-14.2
		c8.2-6.1,17.4-10.4,27.2-13.2c1.4-0.4,2.3-1.1,3-2.4c3.6-7.3,6.4-15,9-22.7c0.6-1.7,0.4-3.5,0.1-5.2c-1.1-6.3-1.4-12.6,0.3-18.8
		c0.3-1.2,0.7-2.4,1.1-3.7c1.2-4.4,0.7-8.5-1.9-12.4c-4.1-6.3-7.2-13.2-9.6-20.3c-3.1-9.4-3-18.9-0.9-28.4
		c3.1-13.6,8.1-26.6,14.3-39.1c3.3-6.6,6.8-13.1,10.1-19.6c0.6-1.1,1.1-2.3,1.7-3.5c0.8-1.7,0.7-3.2-0.4-4.7
		c-2.7-4.1-5.1-8.3-7.4-12.6c-5.5-9.9-8.6-20.6-10.4-31.7c-1.9-11.3-2.6-22.7-1.9-34.2c1.1-18.9,5.1-37.2,13.9-54.2
		c3.7-7.1,8.2-13.5,13.3-19.6c0.5-0.6,0.9-1.1,1.3-1.7c0.1-0.1,0-0.3,0-0.6c-3.7,0.3-7.3,0.9-10.7,2.4c-0.5,0.2-1,0.5-1.5,0.7
		c-2.1,0.8-4.1,0.3-5.4-1.2c-1.3-1.6-1.4-4-0.1-5.8c0.3-0.4,0.6-0.8,0.9-1.1c2.8-2.2,4.8-5.1,6.8-8c3.2-4.8,7.1-9.1,11.3-13
		c3.4-3.2,6.8-6.5,10.2-9.8c1.7-1.7,1.7-1.7-0.1-3.3c-1.3-1.2-2.6-2.4-3.7-3.8c-1.5-1.8-2.6-3.8-3.1-6.2c-1-4.7,0.4-8.5,4-11.6
		c2.1-1.8,4.6-2.9,7.2-3.7c0.8-0.2,1.5-0.4,2.3-0.7s1.2-0.7,0.7-1.6c-0.3-0.5-0.6-1-0.8-1.4c-8.6-14.1-14.2-29.3-16.9-45.6
		c-0.9-5.5-0.6-11,0-16.5c0.5-4.1,0.8-8.2,0.5-12.2c-0.9-10.4,0.6-20.6,2.9-30.7c1.3-5.6,2.5-11.2,4-16.8c1.8-7,4.6-13.6,8-20
		c2.1-4,5.2-6.5,9.5-8.3c3.6-1.5,6.9-2.2,10.6-1.4c0.8,0.2,1.8,0.1,2.6,0c10.7-1.2,21.4-0.4,32.1,0.4c18.2,1.3,35.4,5.9,51.4,14.9
		c2.3,1.3,4.4,2.9,6.4,4.6c1.2,1,2.3,1.5,3.9,0.5c1.1-0.7,2.4-0.7,3.7-0.3c2.4,0.6,4.5,1.6,6.4,3.2c3,2.6,5.7,5.6,7.5,9.2
		c1.8,3.5,4.2,6.6,6.9,9.5c1.5,1.6,3,2.1,5.1,1.5c3.3-1,6.7-1.6,10.1-2.2c3.7-0.6,7.2-0.3,10.5,1.5c1.4,0.7,2.5,0.7,3.7-0.4
		c3.8-3.6,8.5-4.9,13.6-5.2c3.8-0.2,7.7-0.2,11.5-0.5c3.6-0.4,7,0.5,10.2,2c2,0.9,3.9,1.1,6,0.5c3.2-1,6.5-1,9.8-0.5
		c5.8,0.8,11.5,0.4,17.1-1c4-1,8.2-1.2,12.3-2.2c2.9-0.8,5.9-1.6,8.7-2.7c6.5-2.5,13.2-3.1,20-2.5c6.5,0.6,12.8,1.9,18.7,4.7
		c0.9,0.4,1.9,0.9,2.7,1.5c1.8,1.4,3.9,1.8,6.1,2c1,0.1,1.9-0.2,2.8-0.7c4-2.3,8.3-4.1,12.6-5.8c2.3-1,4.3-2.3,5.9-4.3
		c1.3-1.6,2.7-3,4-4.5c3.1-3.3,6.5-6.1,10.4-8.5c17.2-10.4,35.7-17.2,55.7-19.3c8.7-0.9,17.4-1.8,26.1-0.8
		c6.3,0.7,12.6,1.4,18.8,2.5c6,1.1,11,3.8,13.8,9.6c0.6,1.2,1.5,2.3,2.2,3.4c2.2,3.3,4.3,6.5,6.5,9.8c4.7,6.9,6.9,14.7,8.1,22.8
		c1.3,9.1,0.5,18-1.6,26.9c-0.7,3-1.3,6.1-2,9.1c-0.4,1.8-0.4,3.5,0.1,5.2c3.5,13.9,3.3,28,2.4,42.2c-0.2,2.5-0.8,5-1.3,7.6
		c-0.3,2-0.3,2,1.7,2.4c3.8,0.6,5.4,3,4.2,6.7c-0.7,2.1-0.3,2.4,1.8,2.8c1,0.2,2.1,0.3,3,0.7c2.5,1,3.7,3.3,3.2,6
		c-0.4,1.8-1.3,3.4-2.1,5.1c-1.4,3-1.4,3.5,0.9,5.9c1.2,1.4,2.5,2.7,3.7,4.1c3.9,4.2,6.5,9.1,7.9,14.6c1,4,1.9,7.9,2.9,11.9
		c0.1,0.4,0.2,0.8,0.3,1.2c2.1,5.2,6.8,16.9,10.8,20.6c5.5,5.2,9,11.8,12,18.6c2.2,5.1,2.8,10.3,2.1,15.7c-0.4,3.3-1,6.6-1.6,9.9
		c-0.3,1.7-0.1,3.1,0.9,4.5c2,2.8,3,6,3.4,9.4c0.1,0.8,0.2,1.6,0.5,2.3c1.2,2.9,1.5,5.9,1.3,8.9c-0.3,4.3-0.4,8.6-1.6,12.8
		c-0.2,0.7-0.3,1.4-0.2,2.1c0.2,12.3-1.9,24.4-5.3,36.2c-1.7,5.8-2.4,11.7-3.6,17.6c-1.5,7.2-2.9,14.4-4.3,21.6
		c-0.2,0.9-0.2,1.9-0.3,2.9c-0.5,3.6,0.3,6.7,2.6,9.6c3.2,3.9,5.3,8.4,5.6,13.5c0.1,3.3,0,6.6-0.2,9.8c-0.2,2.6-0.3,5.1-0.4,7.7
		c-0.1,2.7,0.3,5.2,1,7.8c2.2,7.4,3.5,15.1,5.3,22.6c1.8,7.4,4,14.6,7.3,21.5c2.6,5.6,4,11.5,4.1,17.6c0.1,4.9,0.7,9.7,1.3,14.6
		c0.7,6,1.4,11.9,2.2,17.8c0.5,3.6,1.8,7,2.7,10.4c3.6,12.9,7.3,25.7,10.4,38.7c0.3,1.1,0.7,2.1,1.8,2.7c0.2,0.1,0.4,0.3,0.6,0.4
		c8.9,6.1,8.9,6.1,15.3,14.9c3.2,4.5,6.3,9.1,8.9,13.9c0.9,1.7,1.7,3.4,2.6,5.1c2.8,5.5,3.4,11.2,2.3,17.3
		c-1.4,8.2-3.8,16.2-6.8,23.9c-0.9,2.5-2.5,4.6-4.1,6.8c-3.5,4.9-7.4,9.5-12.8,12.5c-2.1,1.1-3.7,2.7-4.9,4.7
		c-2.9,5-6.9,9.2-10.8,13.4c-3.7,4-8.5,6.2-13.7,7.5c-2.1,0.5-3.6-0.3-5-2c-2.7-3.3-4.3-7.1-4.8-11.3c0-0.2-0.1-0.5-0.2-0.7
		c-0.1-0.1-0.2-0.2-0.4-0.4c-1.5,1.1-2.7,2.5-4,3.7c-1.8,1.7-3.5,3.5-5.6,4.8c-3.7,2.4-7.4,1.6-9.5-2.3c-1.9-3.6-2.8-7.5-2.9-11.5
		c0-0.2,0-0.3,0-0.5c0.8-3.5-1-5.4-3.9-6.7c-0.9-0.4-1.8-1-2.8-1.4c-3.7-1.6-6.1-4.3-7.3-8.1c-0.9-2.6-1.5-2.7-3.4-0.8
		c-1.8,1.9-2.7,4.1-3.4,6.5c-1.2,4-3.3,7.4-6,10.6c-1.1,1.3-2.4,2.4-3.7,3.4c-3.6,2.7-7.8,2-10.4-1.7c-1.4-2-2.3-4.2-2.9-6.6
		c-0.2-1-0.5-2-0.5-3.1c-0.1-2.6-1.4-4.3-3.6-5.4c-5.2-2.7-9-7.1-13-11.2c-0.6-0.6-1.2-1.4-1.4-2.2c-0.5-1.5-1.5-1.9-2.9-1.7
		c-0.6,0.1-1.1,0-1.7,0c-133.1,0-266.2,0-399.2,0c-0.4,0-0.8,0-1.2,0c-1.7-0.3-3,0.2-3.5,2c-0.1,0.4-0.4,0.9-0.7,1.2
		c-3.8,4.3-7.6,8.4-12.6,11.4c-0.3,0.2-0.5,0.3-0.8,0.5c-2.4,1.1-3.6,2.9-3.8,5.6c-0.2,3.2-1.2,6.3-3,9c-0.9,1.5-2.1,2.7-3.7,3.3
		c-2.3,0.9-4.5,0.9-6.6-0.7c-5-3.6-8.2-8.4-10.2-14.2c-0.7-2.1-1.4-4.3-2.9-6c-0.4-0.4-0.7-0.9-1.1-1.2c-1.5-1.3-2-1.1-2.6,0.7
		c-0.4,1.1-0.8,2.3-1.4,3.3c-1.3,2.3-3.2,4-5.6,5.1c-1.8,0.8-3.6,1.7-5.3,2.8c-1.6,1-2.3,2.3-2.1,4.2c0.4,4.1-0.5,8.1-2.1,11.9
		c-0.4,1-1,2-1.7,2.9c-2.3,2.5-5,3-8,1.2c-2.4-1.4-4.3-3.3-6.2-5.2C207.1,728.4,205.8,727.2,204.4,725.8z"/>
</g>
<g>
	<path class="st0" d="M441.1,499c0.3,4,1.3,7.6,3.7,10.9c5.1,7.2,11.4,13.1,19.1,17.5c1.8,1,3.7,1.8,5.7,2.3
		c9.2,2.4,18.6,3.3,28.1,2.2c2.9-0.3,5.9-0.6,8.8-0.6c1.2,0,2.4-0.1,3.5-0.2c10.2-1.5,19.9-4.7,29.3-9.1c1.2-0.6,2.3-1.4,3.3-2.2
		c2-1.4,3.8-3,5.8-4.4c1.5-1.1,2.4-2.5,2.7-4.4c0.4-2.6,0.7-5.3,0.4-7.9c-0.4-3.3-0.8-6.6-1.3-9.9c-1.2-7.5-3.6-14.5-9.3-19.9
		c-0.1-0.1-12.2-7.6-16.3-11.8c-2.3-2.4-4.3-5.1-6.1-7.9c-1.1-1.6-2.3-3-4-4.1c-2.1-1.4-3.9-3.2-5.3-5.3c-1-1.5-2-2.9-3-4.4
		c-0.3-0.4-0.4-1-1.1-1c-0.4,0.5-0.3,1.1-0.4,1.6c-0.9,5.6-0.8,11.3-1.5,17c-0.5,4.6-0.1,9,1.2,13.3c1.2,4,2.1,8.1,2.8,12.3
		c0.7,4.9,0.8,9.8-0.7,14.7c-0.4,1.3-0.9,2.5-1.6,3.6c-2,3-5.2,3.7-8.3,2c-2.8-1.6-4.2-4.1-4.7-7.1c-0.6-3.7-1.1-7.5-0.6-11.2
		c0.8-6.8,3.3-25.4,3.3-25.9c0-6.3,0-12.5,0-18.9c-0.4,0-0.5,0.4-0.7,0.7c-2.6,4.7-5.6,9-8.9,13.2c-1.8,2.3-3.9,4.4-6.3,6.2
		c-8.4,6.1-17.8,9.9-28,11.6c-1.2,0.2-2.3,0.3-3.5,0.3c-0.8,0.1-1.2,0.4-1.4,1.2c-0.9,2.9-2,5.7-2.9,8.6
		C441.3,487.7,440.7,493.3,441.1,499z"/>
</g>
<g>
	<path class="st1" d="M432.1,424.1c1.5-0.4,3-0.9,4.3-1.8c0.8-0.6,1.7-0.8,2.7-0.8c5.3,0.1,10.2-1.4,14.5-4.5
		c2.1-1.5,4.4-2.8,6.6-4.1c1.4-0.8,2.9-1.4,4.4-0.5c1.8,1,3.5,2.3,4.3,4.3c0.1,0.4,0.1,0.9,0,1.3c-0.7,3.9-2.7,6.7-6.5,7.9
		c-2,0.7-3.8,1.5-5.7,2.5c-1.5,0.8-3.1,1.3-4.8,1.2c-1.5,0-2.9,0.2-4.4,0.4c-1.9,0.4-3.8,0.9-5.1,2.5c-0.7,0.9-1.4,1-2.5,0.7
		c-4.1-1-7.9,2.2-7.8,6.4c0,2,0.8,3.7,2.6,4.5c2.1,1,4.4,1.5,6.8,0.9c1-0.3,2-0.6,3-0.4c2.9,0.6,5.6-1.1,6.1-4
		c0.1-0.5,0.1-1.1,0.7-1.3c1.6-0.5,3.3-1.2,5-0.4c1.9,0.9,3.9,0.8,5.8,0.4c0.9-0.2,1.8-0.3,2.6-0.1c1.5,0.3,2.1,1.3,1.4,2.6
		c-1.7,3-2.5,6.3-3.5,9.5c-1,3-3.4,4.9-5.7,6.8c-0.5,0.4-1.2,0.5-1.9,0.5c-0.7-0.1-1.4,0.1-1.7,0.8c-0.7,1.5-2,1.8-3.4,2
		c-0.7,0.1-1.3,0.4-1.7,0.8c1.2-0.1,2.3-0.2,3.5-0.3c8.7-0.9,16.3-4.6,23.1-9.9c4.3-3.3,7.2-7.8,9.9-12.4c1.4-2.4,2.7-4.7,4.3-7
		c0.5-0.8,1.1-1.7,1.9-2.2c1.7-1.1,2.2-2.7,2.5-4.4c0.6-3,1.3-5.9,2.4-8.7c0.4-0.9,0.2-1.7-0.6-2.4c-2.7-2.2-4.8-5-7.3-7.4
		c-0.6-0.6-1.3-1.2-2.1-1.6c-2.2-1-4.1-2.4-5.9-4c-3.7-3.2-7.4-6.4-11.1-9.6c-1.4-1.2-2.9-2.2-4.5-3.2c-1.4-0.9-2.7-1.8-3.9-2.8
		c-3.1,1.6-4.9,4.4-5.7,7.9c-0.7,2.7-1.5,5.4-2.4,8s-2.8,4-5.6,4.4c-1.8,0.3-3.7,0.5-5.4,1c-2,0.6-4,0.9-6,1.2
		c-2.8,0.4-5.6,0.6-8.2,1.7c-5,2.1-6.3,7.8-2.4,11.3C426.7,424.2,429.3,424.8,432.1,424.1z"/>
	<path class="st1" d="M533,394.6c-3.6,2.5-7,5.3-10.3,8.4c-4,3.7-8.4,6.9-13,10c-1,0.7-2,1.3-3.1,1.6c-0.8,0.3-1.2,0.7-1,1.6
		c1,6.4,2.1,12.7,6.3,18c0.4,0.5,0.7,0.9,1,1.5c2,3.4,4.7,6,8.3,7.7c2.6,1.3,4.4,3.4,6.2,5.6c2.7,3.5,5.8,6.4,9.3,8.5
		c0-1.3-0.7-2.3-1.4-3.4c-1.8-2.6-3.3-5.5-3.7-8.6c-0.7-4.6,1-8.2,4.4-11.1c0.7-0.6,1.3-0.7,2.2-0.2c3.9,2.1,7.8,1.6,11.7,0
		c0.7-0.3,1.3-0.7,2-1c2.1-0.7,4.1-0.7,5.7,1.1c0.5,0.6,1.1,1.2,1.8,1.2c1.4,0,2,0.9,2.8,1.8c1.8,2.2,4.1,2.6,6.7,1.4
		c0.6-0.3,1.2-0.6,1.8-0.9c2.2-1.2,3.8-3.9,1.5-6.9c-1-1.3-1.5-2.8-1.9-4.3c-0.8-3.3-3.9-5.2-7.3-4.4c-1.1,0.2-2.2,0.4-3.2,0.9
		c-1.3,0.6-2.4,0.5-3.6,0.1c-1.1-0.4-2.2-0.8-3.3-1.3c-1.3-0.5-2.2-1.4-2.8-2.7c-1-2.3-2.7-4.2-4.6-5.9c-0.4-0.3-0.9-0.5-0.8-1.3
		c2.8-1.6,5.5-3.3,9-2.9c0.7,0.1,1.5,0,2.2-0.2c1.9-0.5,3.6-0.3,5.4,0.4c2,0.7,3.9,1.4,5.9,1.8c3,0.6,6.1,1.2,7.8-2.5
		c0.1-0.1,0.2-0.2,0.3-0.3c1.1-0.7,1.5-1.7,1.1-2.8c-0.3-1.3-1.4-1.9-2.6-2.1c-1-0.1-1.8-0.5-2.7-0.9c-1.3-0.6-2.7-1.1-4.2-1.4
		c-3.5-0.9-7.1-0.9-10.7-1.7c-2.9-0.6-5.9-0.5-8.7-1.3c-2-0.6-3.7-1.4-5-3c-0.9-1-1.5-2.1-1.8-3.5c-0.2-1.1-0.7-1.9-1.3-2.4
		C537.6,391,535.5,392.9,533,394.6z"/>
	<path class="st1" d="M454.1,362.5c0.1,0.8,0.5,0.8,1.1,0.4c0.8-0.6,1.3-1.4,1.7-2.3c3.1-6.1,7.9-10.6,13.4-14.5
		c1.4-1,3-1.6,4.8-1.5c0.9,0,1.8-0.2,2.6-0.3c2.6-0.3,5.2-0.4,7.6,0.6c1.7,0.7,2.4,1.8,2.3,3.2c-0.1,1.3-1.1,2.5-2.6,2.9
		c-0.5,0.1-1,0.2-1.5,0.2c-2.5,0-5,0-7.5-0.1c-0.9,0-1.8,0.1-2.6,0.2c-5,0.8-10.6,8.7-10.9,12.7c0,0.1,0,0.3,0,0.4
		c0.2,2.6,0.1,5.1-0.4,7.9c3,0,5.7,0.1,8.5-0.6c2-0.5,2.8-1.8,2.6-3.9c0-0.5-0.2-1-0.3-1.5c-0.4-6.1,2.8-8.4,7.5-8.6
		c4.4-0.1,8.7,1.3,11.6,5c3.3,4.1,4.2,9,3.6,14.2c-0.3,2.3-3.2,5.6-6.2,5.7c-1,0-2.1,0.1-3.1,0c-2.2-0.1-4.4-0.7-6.5-1.1
		s-4.2-0.8-6.4-0.7c-1.6,0-2.9,0.8-3.9,1.7c-1.7,1.4-1.6,2.4,0.1,3.7c5.7,4.3,11.7,8.3,18,11.7c2.1,1.1,4.4,1.8,6.8,1.9
		c2.7,0.1,4-0.8,4.7-3.4c0.6-2.5,1.2-5,1.6-7.6c0.1-0.7,0.3-1.5,0.4-2.2c0.1-0.5,0.4-1,1-1s0.9,0.4,1.1,0.9c0.3,0.9,0.6,1.8,0.8,2.8
		c0.5,1.9,1,3.7,1.7,5.5c0.6,1.6,1.8,2.4,3.5,2.7c1.4,0.2,2.6,0.1,3.8-0.7c1.5-0.9,3.1-1.8,4.3-3.1c4.3-4.6,9.5-7.7,15.3-9.9
		c2.6-1,4.8-2.6,6.7-4.6c0.5-0.6,1.2-1.1,1.3-2c-0.5-0.5-1-0.2-1.5-0.1c-3.4,0.6-6.7,1-10.1,1c-2.4,0-4.6,0.7-6.8,1.9
		c-0.7,0.4-1.4,0.8-2.1,1.2c-3.2,1.5-6.3,0.7-8.5-2.1c-2.4-3.1-3.3-6.7-2.7-10.6c0.4-2.6,1.3-5,1.9-7.5c0.7-2.5,2.3-3.9,4.8-4.3
		c1.2-0.2,2.3-0.5,3.4-0.9c2.8-1.1,6.2,0.1,7.6,2.8c1.3,2.5,2.7,5,1.8,8c-0.1,0.3,0,0.8,0.1,0.8c1.7-0.2,1.5,1.5,2.3,2.2
		c0.5,0.5,1,0.8,1.7,0.7c1.6-0.2,3.2-0.4,4.8-0.6c1.3-0.2,1.7-1,1.8-2.1c0.1-1.7-0.1-3.4-0.8-5c-2.4-5.3-5.6-9.9-11.1-12.4
		c-2.8-1.3-5.4-2.7-8.6-2.5c-0.5,0-1.1,0.1-1.3-0.5s0-1.2,0.4-1.6c0.3-0.3,0.6-0.5,0.9-0.7c4.5-2.1,9-3.4,13.8-1.2
		c0.9,0.4,1.9,0.9,2.8,1.3c0.4,0.2,0.8,0.8,1.5,0.3c-0.7-1.2-1.6-2.3-2.4-3.4c-2.2-2.7-5.1-4.7-7.8-6.8c-2.8-2.3-6.2-3.6-9.8-4.4
		c-4.8-1-9.6-1.8-14.5-1.4c-5.1,0.4-10.1,1.1-15.1,2.2c-4.9,1.1-9.8,2.6-14.1,5.1c-9.2,5.1-15.3,12.8-18,23.1
		C454.2,360.5,454,361.5,454.1,362.5z"/>
	<path class="st1" d="M438.3,521.8c-1.7-1.5-3.3-3.2-4.7-5c-3.6-4.5-5.4-9.6-5.5-15.3c0-1.8,0.1-3.5-2.1-4.1c-0.2,0-0.4-0.3-0.5-0.4
		c-4.1-4-7.2-8.6-8.2-14.3c-0.5-3.1-0.8-6.2-0.2-9.2c0.2-1.1-0.1-1.7-1-2.4c-1.9-1.3-4-2.1-6.6-2.7c0.5,3.9-1,6.9-2.6,9.9
		c-0.1,0.2-0.2,0.4-0.3,0.6c-2.2,3.7-3.6,7.7-4.6,11.9c-2.2,9.5,0.1,18.1,5.3,26.1c0.2,0.1,0.3,0.2,0.5,0.4c1.2,0.5,4.3,0.8,5.5,0.7
		c4.2-0.5,8,0.5,11.7,2.6c2.7,1.5,5.6,2.5,8.7,3.3c2.1,0.5,4.2,0.1,6.4-0.3C439.4,522.5,438.8,522.2,438.3,521.8z"/>
	<path class="st1" d="M558,534.1c-2.4-1.5-4.9-3-7.3-4.6c-2.5-1.6-5.2-1.4-7.5-0.6c-2.6,0.9-5.3,1.9-7.8,3.1
		c-6,2.8-12.3,5.1-18.8,6.6c-14.5,3.4-29.1,3.6-43.7,1c-4.1-0.7-8.2-1.4-11.9-3.3c-3.7-1.9-7.4-3.7-10.9-6c-1.1-0.7-2-1.2-3,0
		c-0.4,0.5-1.2,0.6-1.8,0.9c-2.4,1-4.3,2.6-5.9,4.6c-0.8,1-1.7,2.3-1,3.4c1,1.6,1.7,3.5,3.1,4.8c2.7,2.5,5.7,4.5,9,5.9
		c3.6,1.5,7.4,2,11.3,1.2c9.8-1.9,19.7-2.7,29.7-1.5c6.6,0.8,13.2,1.5,19.7,2.8c4.1,0.8,8.2,1.1,12.3,1.2c6.3,0.4,12.3-1.1,18.3-2.6
		c8.4-2,13.1-7.9,16.5-15.4C558.9,535.1,558.7,534.6,558,534.1z"/>
	<path class="st1" d="M583.4,478.4c-1.2-2-2.1-4.1-2.2-6.4c0-1.1-0.5-1.3-1.4-0.9c-3.6,1.4-7.3,2.2-11.1,3.1c-1.5,0.3-2.5,1-2.7,2.6
		c-0.1,0.8-0.6,1.7-0.9,2.5c-0.8,2.1-1,4.2-0.3,6.5c1.5,4.5,1.9,9.1,1,13.7c-0.7,3.9-1.5,7.9-3.9,11.2c-2.3,3.2-3.7,6.9-6.6,9.8
		c3,0.4,5.5,1.6,8.1,2.5c3.4,1.1,6.9,1.7,10.4,2.1c4.1,0.4,7.4-2.1,8-6.2c0.6-4.2,1-8.5,1.2-12.8c0.1-1.7,0-3.4,0.5-5
		c1.2-3.9,1.4-8,1.9-12C586,485.2,585.4,481.6,583.4,478.4z"/>
</g>
<g>
	<path class="st2" d="M392.1,282.5c-0.6,2-1.1,3.9-1.5,5.8c-0.1,0.4,0.3,3.1,0.7,4c0.4,1,1.7,1.9,2.4,2.8c1,1.4,7.6,1.6,8.1,1
		C397.4,292.4,394.5,287.7,392.1,282.5z"/>
	<path class="st2" d="M421.4,269.9c-2,0.1-3.7,0.4-5.3,1.3c-2.1,1.2-2.8,3.6-1.8,5.7c1.3,2.6,3.6,3.8,6.4,3.3
		c0.6-0.1,1.2-0.1,1.8-0.1c3.6-0.2,5.6-3.5,4-6.8C425.5,271.1,423.6,270,421.4,269.9z"/>
	<path class="st2" d="M434,266.8c-0.9-0.1-1.7-0.6-3-1.1c2.7,7,2.6,13.8,1,20.9c2.8-1.4,3.9-3.6,4.4-6.1c0.8-4,0.6-7.9-0.2-11.8
		C435.9,266.9,435.8,266.9,434,266.8z"/>
	<path class="st2" d="M601.8,288.6c-0.3-2.1-0.8-4.1-1.5-6c-1.2,2.6-2.6,5.1-4.1,7.4c-1.6,2.3-3.4,4.4-5.8,6.4
		c0.7,0.2,10,0.3,10.6-0.2C601.7,295.4,601.8,288.8,601.8,288.6z"/>
	<path class="st2" d="M556,271.5c-0.9,3.9-0.7,4.7-0.2,8.6c0.2,1.6,0.8,3.2,1.8,4.5c0.7,0.8,1.4,1.6,2.8,2.1
		c-1.8-7.1,0.8-15.5,3.5-22.7C562.5,264.7,556.2,270.5,556,271.5z"/>
	<path class="st2" d="M589.6,275.4c-0.7-1.3-1.8-1.9-3.3-1.7c-1.4,0.2-2.3,1-2.8,2.2c-0.4,1.2-0.9,2.5-1.1,3.8
		c-0.5,2.7,2,5.1,4.5,4.5c2-0.5,3.8-2.7,3.9-4.8C590.8,278,590.3,276.7,589.6,275.4z"/>
</g>
<g>
	<path class="st3" d="M639.5,652.2L639.5,652.2c-0.2,0-0.3,0-0.4,0.1c-0.1,0.2,0,0.4,0.3,0.4c0.1,0,0.2-0.2,0.2-0.3l0,0l0,0
		C639.6,652.4,639.6,652.3,639.5,652.2z"/>
	<path class="st3" d="M539.4,221.8c0.3,0.1,0.6,0.1,0.9,0.1c2-0.2,4.1-0.5,6,0.4c0.3,0.1,0.7,0,1.1-0.1c2-0.6,4-1,5.9-1.7
		c3.6-1.4,7.3-2.7,11.2-3.3c3.2-0.5,6.4,0.1,7.9,4c0.5,1.2,1.2,2.4,1.7,3.6c0.2,0.4,0.7,0.8,0.2,1.4c-0.3,0-0.5-0.1-0.7-0.3
		c-0.2-0.1-0.4-0.3-0.5-0.5c-0.2-0.2-0.4-0.4-0.6-0.6c0,0-0.1,0-0.1-0.1c-0.1-0.1-0.3-0.2-0.4-0.2l0,0l0,0l0,0v-0.1h-0.1
		c0.1,0,0.1,0.1,0.2,0.1l0,0l0,0l0,0c0.1,4.2,1.9,8,3.1,11.9c0,0.1,0.1,0.1,0.1,0.2c2,2.3,3.5,4.9,5.1,7.4c0.7,1.1,1.8,1.8,3.2,1.7
		c2.2-0.1,4.4,0.1,6.6,0.5c3.5,0.6,7.1,0.6,10.4,1.6c4.9,1.5,9.9,2.8,14.4,5.4c1,0.6,2.2,0.9,3.2,1.4c3.5,1.6,6.9,3.4,9.6,6.2
		c1,1.1,2.3,1.8,3.6,2.5c2.7,1.4,5.5,2.5,8.3,3.6c0.5,0.2,1.2,0.2,1.2,1.2c-3,1.4-6.2-0.3-9.5,0.3c0.5,1.8,0.9,3.4,1.5,5
		c2.6,6.3,5.8,12.2,11,16.9c0.8,0.7,1.7,1.4,2.2,2.5c0.8,1.9,2.4,2.7,4.1,3.4c1.1,0.4,2.3,0.5,3.3,1.3c-0.5,1.2-1.5,1.6-2.5,1.8
		c-2.7,0.6-5.4,1.2-7.9,2.6c-1.5,0.9-3.3,0.7-5,0.5c-0.4,0-0.8-0.5-1.3,0.2c0.4,0.7,0.7,1.5,1.2,2.2c1.7,2.3,3.3,4.7,5.1,6.9
		c2.6,3.4,5.9,5.3,10.4,4.9c5.2-0.4,10.4,0.4,15.6,0.8c0.6,0,1.2,0.1,1.5,0.7c1.8,3,5,4.4,7.9,5.8c4.3,2.1,8.9,3.3,13.7,3.9
		c4.4,0.6,8.3-0.2,12.1-2.4c1-0.6,1.7-1.4,2.4-2.2c0.3-0.4,0.3-0.8,0-1.2c-0.3-0.4-0.7-0.5-1.2-0.2c-0.4,0.2-0.8,0.4-1.2,0.6
		c-2.7,1.5-5.5,0.9-8.5,0.1c1.1-1,2.2-1.4,3.3-1.8c0.9-0.4,1.8-0.8,2.2-1.7c0.5-0.9,0.2-1.6-0.8-1.8c-0.6-0.1-1.2-0.1-1.8-0.1
		c-2.3,0-4.6,0-6.9,0c-1,0-1.6-0.4-1.8-1.5c-0.9-4.2-1.4-8.6-2.2-12.8c-1.1-5.8-2-11.6-3.9-17.2c-1.4-4.2-3.5-8.1-4.9-12.3
		c-1.4-4.3-3.7-8-6.3-11.6c-2-2.8-4.1-3.3-7.2-1.5c-0.1,0.1-0.3,0-0.4,0.1c-0.4-0.3-0.6-0.8-0.7-1.3c-0.5-1.4-1.5-2.3-2.9-2.4
		c-1.8-0.1-2.9-1-3.8-2.5c-0.5-0.8-0.5-1.3,0.1-1.9c0.8-0.8,1.4-1.7,1.8-2.7c1.1-2.6,0.2-4.8-2.3-6c-0.7-0.3-1.4-0.6-2.1-0.6
		c-3.6-0.3-7.2,0-10.5,1.7c-2.3,1.2-4.4,2.6-6.5,4.2c-2.9,2.1-5.9,3.8-9.5,4.4c-0.6,0.1-1,0.1-1.4-0.3c-1.1-1.2-2.5-2.2-3.1-3.7
		c-1.4-3.2-4-5.4-6.6-7.6c-3.7-3.1-8.2-4.9-12.8-6.4c-4.7-1.5-8.9-3.8-12.6-7.1c-2.8-2.5-6.1-4.4-10.1-4.3c-0.9,0-1.3-0.3-1.5-1.2
		c-0.3-1.8-1.1-3.5-2.8-4.3c-1.1-0.5-1.2-1.2-1.1-2.1c0.1-1.4-0.1-2.8-0.8-4.1c-1.1-1.9-2.2-3.8-4.1-5.1c-1-0.7-1.9-1.6-2.7-2.5
		c-1.9-2.3-4.3-4-7.1-5c-2.9-1-5.9-1.8-8.9-2.4c-1.6-0.3-3.2,0-4.8-0.5c0-0.3,0-0.5,0-0.7c1-4,0.5-5.4-3-7.8c-0.5-0.4-0.8-0.8-1-1.4
		c-0.5-1.4-1.5-1.9-2.9-1.9c-2.2,0-4.2,0.7-6,1.8c-6.7,4.2-11.4,10.1-14.5,17.4c-0.3,0.7-0.6,1.4-1,2c-4,6.3-5.9,13.3-6,20.7
		c0,1.4-0.1,2.7-0.8,4.1c-0.5,1-0.8,2.2-1,3.4c-0.8,4.3-0.2,8.5,0.8,12.7c1.1,4.5,3.8,7.9,7.9,10.1c2,1.1,2.3,1.4,1.8,3.6
		c-0.4,1.4-0.2,2.8,0.1,4.1c0.4,1.7,1.2,3.3,1.4,5.1c0.2,1.5,2,2.5,3.6,2.2c0.9-0.1,1.7-0.3,2.6-0.4c1.5-0.1,2-0.6,2.1-2
		c0.1-1.6,0.6-3,1.3-4.4c1-2,2.2-3.8,3.5-5.6c1.7-2.5,3.6-4.8,4.5-7.8c0.5-1.8-0.1-3.5-1.8-4.5c-0.4-0.2-0.8-0.3-1.2-0.5
		c-2.1-1-4.1-2.1-5.5-4c-2.6-3.5-4-7.6-4.2-11.9c-0.2-4.8,1-9.2,4-13c1.5-1.9,3.6-2.9,6-3.6c-0.7,1.6-1,3.4-1.5,5
		C537.2,220.8,537.7,221.5,539.4,221.8z"/>
	<path class="st3" d="M541.1,607.1c0-3.7-0.6-7.3-1.2-10.9c-0.4-2.5-1.2-5-1.4-7.6c-0.3-4.3-4.6-6.5-8.2-4.3
		c-1.8,1.1-3.7,2.1-5.8,2.8c-0.9,0.3-1.5,0.3-2.2-0.4c-1-1.2-2.3-1.5-3.8-1.4c-2.7,0-5.3,0.3-7.9,0.6c-3.3,0.3-6.6,0.8-9.9,0.8
		c-4.8,0-8.9-1.5-12.5-4.7c-0.6-0.5-1.3-1-2-1.4c-3-1.7-6.2-2.7-9.7-1.9c-3.3,0.8-3.7,3.9-1.8,5.7c2.3,2.3,3.8,5.2,5.9,7.8
		c0.3,0.4,0.7,0.8,0.5,1.4c-0.4,0.3-0.8,0.3-1.3,0.1c-4.6-1.4-9.2-2.7-13.5-4.7c-1.5-0.7-3-1.6-4.6-2.1c-2.2-0.6-4-1.8-5.8-3.1
		c-0.9-0.7-1.8-1.5-2.9-2.1c-2.5-1.4-4.8-0.6-5.9,2.1c-0.5,1.1-0.7,2.2-0.8,3.4c-0.1,4.3-0.6,8.7-0.5,13c0,2.7-0.6,5.3-1.5,8
		c-1.6,4.5-2.4,9.1,1.2,13.3c1.5,1.7,3.2,2.8,5.5,2.8c4,0,8,0,12,0c1.4,0,1.7-0.3,1.4-1.7c-0.3-1.1-0.5-2.2,0-3.5
		c1.3,0.6,2,1.7,2.9,2.5c1.1,1.1,2.3,2.2,3.8,2.7c5.3,1.8,10.4,4.1,15.4,6.6c0.4,0.2,0.8,0.7,1.4,0.2c-1.1-5.2-3.3-10.2-3.3-15.8
		c1.3,0.3,1.4,1.1,1.7,1.7c1.4,2.8,2.6,5.7,4.3,8.5c3.2,5.3,6.5,10.5,11.2,14.7c1.4,1.2,2.7,2.6,3.8,4c2.5,3.1,5.7,5.6,8.1,8.8
		c0.4,0.5,0.9,0.8,1.5,0.6c3.8-1.1,8.4-4,8.3-9.4c-0.1-2.9,0.3-5.7-0.4-8.6c-0.2-0.7-0.1-1.5,0-2.2c0-0.7,0.1-1.4,0.8-1.7
		c0.8-0.4,1.2,0.3,1.7,0.8c0.3,0.2,0.5,0.5,0.8,0.8c2.2,1.8,4.2,3.9,7.1,4.7c0.9,0.2,1.7,0.3,2.6,0c2.8-0.7,4.2-2.7,4.6-5.3
		c0.3-2.1,0.6-4.2,0.6-6.4C541.1,619.6,541,613.4,541.1,607.1z"/>
	<path class="st3" d="M761.1,515.3c0.9-3.3,1.7-6.5,1.5-10c-0.1-1.7-0.8-3.2-0.9-4.8c0-3.4-1.3-6.5-2.7-9.5c-1.1-2.6-2.2-5.2-4.5-7
		c-2.6-2.1-5.3-4.2-8.6-5.3c-2-0.7-3.9-1.4-5.8-2.2c-2.4-0.9-4.8-1.9-7.1-3.1c-1.4-0.7-3-0.5-3.9,0.5c-1,1-1,2.3-0.2,3.9
		c0.5,1,1.3,1.8,2.1,2.6c0.6,0.6,1.4,1.3,1.1,2c-0.5,1.4,0.3,2.5,0.9,3.5c1.5,2.6,2.7,5.2,4.4,7.7c2.3,3.3,4.2,6.9,4.9,11
		c0.4,2.2,0.9,4.3,0.5,6.6c-0.5,3.8-1.9,7.4-3.4,10.9c-1.1,2.4-2.6,4.4-5.2,5.4c-1.7,0.7-3.2,1.8-4.4,3.2c-3.9,4.6-6.3,9.9-6.9,16
		c-0.2,1.8,0,3.5,0,5.3c0,0.8-0.1,1.5-1.1,1.6c-1.8,0.3-3.6,0.8-5.5,0.3c-1.3-0.4-2.3,0.1-3.2,0.9c-1.2,1-1.8,2.3-1.7,3.9
		c0.3,4.5-10.8,14.2-11.3,13.9c-2.5-1.3-5.1-1.8-7.9-1.7c-5.5,0.1-9.9,4.5-10.1,10c-0.2,5,0.5,9.8,1.2,14.7c0.5,3.2-0.8,6.7-4,8
		c-2.9,1.2-5.7,2.4-8.7,3.3c-3.9,1.2-8,1.8-12,3c-2.5,0.8-4.5,2-6,4.2c-2.3,3.5-3.8,7.3-4.7,11.4c-1,4.7-1.6,9.6-3.1,14.2
		c-1.2,3.6-2.2,7.4-4.5,10.5c-0.2,0.2-0.3,0.5,0,0.8c0.2,0,0.4,0,0.6-0.2c2.4-2.4,4.9-4.7,7.1-7.2c2.9-3.4,6.1-6.4,9.7-8.9
		c1.9-1.3,3.7-2.6,5.5-4c5-3.9,10-7.8,15.8-10.4c1.2-0.5,2.4-1.1,3.6-1.7l0.4-0.3l2-1.3c5.3-3.4,10.9-6.3,16.8-8.7
		c0.4-0.1,0.7-0.3,1.1-0.4l1.1-0.4l1.7-0.6c0.4-0.3,0.8-0.6,1.1-0.9c2.7-2.5,5.7-4.6,7.9-7.7c0.7-1,1.7-1.9,2.7-2.6
		c1.1-0.7,1.9-1.6,2.6-2.7c2-3.2,2.2-6.8,2-10.4c-0.1-1.2-0.3-2.5-0.3-3.7s-0.2-2.3-0.3-3.5c-0.3-2.1-0.9-4.2-0.5-6.4
		c0.3-1.6,0.4-3.2,0-4.8c-0.3-1.6-0.3-3.1,1.5-4c0.4-0.2,0.7-0.7,1-1.2c0.6-1,1.4-1.7,2.5-2.1c0.9-0.4,1.7-0.8,2.4-1.6
		c2.2-2.5,5.5-2.9,8.2-4.5c0.3-0.2,0.7-0.2,1.1-0.1c1.4,0.6,2.7,0,3.8-0.7c2.9-1.9,6-3.4,8-6.5c0.6-1,1.4-1.9,2.3-2.7
		c1.9-1.7,3.2-3.8,3.9-6.3c0.3-1.2,0.8-2.2,1.6-3.1c0.8-0.9,1.4-1.9,1.9-3c1.2-2.6,2.3-5.3,1.4-8.3
		C760.3,518.6,760.6,517,761.1,515.3z"/>
	<path class="st3" d="M529.2,145.5c1.3,1.6,1.9,3.5,2.1,5.5c0.1,1.2,0.3,2.5,0.5,3.7c0.7,4.6,2.3,8.8,4.9,12.7
		c3.2,4.8,8.1,6.1,13.6,4.1c4.3-1.6,7.8-4.4,11.4-7.1c3.3-2.5,6.6-4.9,10.6-6.4c2.5-0.9,5-1.8,7.2-3.3c1.6-1.1,3.2-2.1,4.8-3.2
		c3.2-2.1,6.7-3.4,10.6-3.2c1.9,0.1,3.8,0,5.8,0c1.9,0,3.6-0.5,5.3-1.4c1.8-1,1.9-1,3.4,0.3c0.5,0.4,0.9,0.8,1.4,1.1
		c0.8,0.5,0.9,1,0.2,1.8c-1.6,1.9-2.7,4-3.2,6.5c-0.8,3.8,1.5,7.2,5.1,7.7c1.3,0.2,2.6-0.1,3.9-0.6c0.6-0.2,1.3-0.5,1.9,0
		c1.5,1.5,3.1,2.7,4.8,3.9c0.3,0.2,0.4,0.6,0.5,0.9c0.4,1.2,1.2,2.2,1.9,3.2c1,1.4,1.2,1.6,0,2.8c-2.9,3.2-3.2,7.2-3.2,11.2
		c0,2.3,0.9,4,3.3,4.9c4.4,1.6,8.4,4.2,12.6,6.4c1.1,0.6,1.9,1.6,3.4,1.7c0.3-2.4,0.4-4.7,0.5-6.9c0.3-5.1,0.5-10.1,0.9-15.2
		c0.3-4-0.3-7.9-0.5-11.9c-0.1-1.2-0.4-2.3-0.7-3.4c-0.8-2.6-2.5-4.4-5-5.5c-2.7-1.3-5.6-1.6-8.5-2c-1-0.1-1.1-0.5-0.9-1.5
		c0.7-5.1-0.3-9.6-4.1-13.4c-2.5-2.5-5.3-4.4-8.2-6.4c-5.2-3.6-10.7-6.9-17.1-7.8c-4.9-0.8-9.9-1.7-14.9-1.5
		c-3.3,0.2-6.6,0.2-9.9,0.4c-1.9,0.1-3.5,0.8-4.9,2.3c-2.2,2.4-4.3,4.9-6.9,6.8c-3.2,2.3-5.8,5-7,8.8c-0.2,0.7-0.6,1.4-1.4,1.6
		c-0.9,0.3-1.3,1.1-1.7,1.9c-0.3,0.6-0.5,1.6-1.4,1.4c-1-0.2-0.5-1.2-0.6-1.9c-0.2-1.2,0.5-2.3,0.1-3.5c-0.9-2.6-1.3-5.1-0.6-7.8
		c0.1-0.6,0-1.2,0.1-1.8c0.1-1-0.3-1.7-1.1-2.4c-5-4.1-8.3-9.3-9.8-15.6c-0.5-2-0.8-4.1-1.2-6.2c-1.6,0.9-1.7,0.9-2.8,2.8
		c-0.6,1.1-1.4,2-2.4,2.8c-2.3,1.7-3.8,3.9-3.9,6.9c0,0.7-0.3,1.3-0.6,1.9c-1.3,3.2-2,6.5-2.1,9.9c0,1.5,0.3,2.9,0.5,4.4
		C526,139.4,526.8,142.8,529.2,145.5z"/>
	<path class="st3" d="M299.1,233.2c2.6-1.2,5.3-2.2,8.1-2.9c4.9-1.3,10-1.8,15.1-1.8c3.2,0,4.6-1.4,4.8-4.5c0.1-1.4,0.5-2.6,1.1-3.8
		c2.1-3.7,4-7.5,7.2-10.5c1.8-1.6,3.2-3.6,4.7-5.6c2.7-3.6,4.5-7.5,4.4-12.2c0-2.9,0.6-5.9,1.8-8.6c1.6-3.6,4-6.6,7.7-8.2
		c3-1.3,6.2-1.9,9.5-1.2c1,0.2,1.6,0.1,2-1c0.9-2.9,2-5.7,2.8-8.6c0.7-2.5,1.4-5.2,0.9-7.8c-0.6-3.5-1-7-1.6-10.4
		c-0.2-0.8,0-2-1-2.2s-1.7,0.8-2.3,1.5c-0.1,0.2-0.2,0.4-0.4,0.6c-1,1.5-1,1.5-2.6,0.8c-2.6-1.2-5.2-0.9-7.7,0.1
		c-2.3,0.9-4.6,2-6.9,2.9c-3.7,1.5-6.8,3.8-9.5,6.6c-2.4,2.4-4.2,5.1-6,7.9c-4,6-6,12.8-6.6,19.9c-0.3,4.2-0.8,8.3-1.7,12.4
		c-0.6,2.6-1.9,4.4-4,5.9c-2.9,2.1-5.9,4.2-8.7,6.4c-3,2.4-5.6,5.1-6.6,9.1c-0.6,2.5,0,4.6,1.6,6.6c1.3,1.6,1.3,1.6-0.5,2.5
		c-0.5,0.2-0.9,0.5-1.4,0.6c-1.9,0.7-3.5,1.9-4.9,3.4c-0.7,0.8-1.2,1.6-1.1,2.7C298,234.1,298.5,233.5,299.1,233.2z"/>
	<path class="st3" d="M642.4,537.2c0.5-1.6,1.7-2.6,2.8-3.6c2.1-1.8,4.6-2.9,7.1-3.9c0.6-0.3,1.1-0.1,1.7,0.1c1.8,0.8,3.4,0.4,5-0.5
		c0.9-0.5,1.7-1.1,2.6-1.6c3.9-2.4,6.9-5.7,8.7-10c0.3-0.8,0.7-1.5,1-2.2c0.4-0.9,1-1.7,2-1.9c1.1-0.2,1.6-1,1.7-2
		c0.1-1.3,0.8-2.2,1.7-3c1.6-1.5,3.6-2,5.6-2.2c1-0.1,2.1-0.3,2.9-1c1.7-1.6,3.3-3.2,4.2-5.4c1.6-3.9,2.9-7.9,2.7-12.2
		c-0.1-2.8-0.7-5.5-0.6-8.4c0.1-2.2,0.9-3.8,2.7-5c1-0.7,2.3-1,3.6-1.6c-0.2-0.4-0.3-0.6-0.4-0.7c-5.1-3.9-10.6-6.9-16.5-9.4
		c-0.8-0.3-1.3-0.1-1.6,0.6c-0.6,1.2-1.4,2.3-2.2,3.3c-2.4,3.1-4.9,6.1-6.9,9.4c-0.5,0.9-1,1.8-1.1,2.8c-0.5,3.4-0.9,6.8-1.4,10.3
		c-0.4,2.8-1.4,5.3-3.2,7.4c-1,1.2-1.9,2.5-2.6,3.8c-1.4,2.5-2.8,5-4.2,7.5c-0.3,0.5-0.5,1.4-1.2,0.9c-0.9-0.6-1,0.1-1.2,0.5
		c-1.1,1.7-2.1,3.5-3.6,5c-3.9,4-8.1,7.8-12.6,11.1c-4.1,3.1-8.8,5-14.1,5.3c-5.5,0.3-11,0-16.5-1.2c-1.6-0.3-1.8-0.2-2.2,1.3
		c-0.1,0.4-0.1,0.9-0.2,1.3c-0.7,4.3-1.6,8.5-1.9,12.8c-0.3,3.3-0.3,6.7-1.1,10c0,0,0.1,0.1,0.2,0.3c1.8-1.1,1.8-3.2,2.6-4.8
		c0.2,0,0.2,0,0.3,0.1c0.2,0.1,0.3,0.3,0.5,0.4c1.7,1.7,3.7,2.2,6.1,1.5c1.5-0.4,2.7-1.3,3.7-2.3c0.9-0.8,1.8-1.5,2.9-2
		c3.5-1.8,7.2-2.9,10.9-4.2c3.1-1.1,6.1-2.1,9-3.7C640.7,539.5,641.9,538.6,642.4,537.2z"/>
	<path class="st3" d="M434,348c2-3.3,3.7-6.7,6.3-9.6c2.7-2.9,5.4-5.8,8.2-8.7c1.8-1.9,2.5-4.1,2.2-6.7c-0.4-3.3-3.8-5.6-6.8-4.3
		c-5.5,2.3-10.2,5.5-13.5,10.7c-2.5,3.9-4.7,7.9-8.4,10.9c-5,4-8.1,9.7-11.2,15.2c-4.1,7.5-7,15.4-9.5,23.5c-0.6,1.9-1,3.9-1.6,6
		c1.1,0.1,1.9-0.5,2.8,0c1.3,0.8,2.7,1.3,3.9,2c1.7,1,2.9,2.4,2.6,4.7c-0.1,0.7-0.1,1.5-0.3,2.2c-0.5,1.5-0.9,3.1-1.4,4.8
		c3,1.1,5.8,2.3,9,2c2.3-0.3,4.7-0.7,7-1.1c5.8-1.1,10.2-4.5,13.9-8.8c0.9-1.1,2.2-2,2.9-3.5c-3.4-0.6-6.4-1.6-8.8-3.7
		c-2.3-2-4.9-4-6.3-6.9c1-0.6,1.5,0,2.1,0.2c1.8,0.8,3.6,1,5.6,0.5c1.4-0.4,2.9-0.7,4.4-0.7c1.3,0,1.4-0.3,0.9-1.5
		c-0.8-1.8-1.6-3.6-2.5-5.4c-2.1-4.5-3.5-9.2-4.2-14.1c-0.3-2-0.2-4,1.3-5.6C433.1,349.6,433.5,348.7,434,348z"/>
	<path class="st3" d="M303.7,539.5c-3.5-0.2-6.9,0.1-10.3,0.8c-3.2,0.6-6.2,1.8-9.1,3.2c-3.4,1.7-6.5,3.8-8.1,7.5
		c-1.6,3.9,0.5,7.9,4,9c1.2,0.4,2.5,0.2,3.9,0.6c-0.2,0.6-0.3,1.1-0.4,1.5c-1.5,4.4-2.5,8.9-2.2,13.6c0.1,1-0.1,1.9-0.4,2.8
		c-2.2,8.4-1.9,16.7-0.1,25.1c0.3,1.3,0.6,2.7,1,4l0.9,0.3c0.4,0.1,0.7,0.3,1.1,0.4c2.3,0.9,4.5,2,6.7,3c1.1-4.8,2.1-9.6,3.5-14.3
		c2.8-10,7.4-19.1,13.5-27.4c1.7-2.3,3.3-4.7,3.9-7.6c0.3-1.8,0.6-3.6,1-5.4c1.2-5.3-0.5-9.9-3.5-14.1
		C307.8,540.8,306,539.6,303.7,539.5z"/>
	<path class="st3" d="M445.6,217.7c-2.6,0.9-3.3,3.4-3.7,5.9c-0.2,1.2,0.2,2,1.4,2.7c2.2,1.2,4.3,2.6,5.8,4.6
		c5.3,6.9,7.9,14.7,8.2,23.4c0.2,5.6-0.2,11.2-1.5,16.7c-0.1,0.4-0.4,0.9,0,1.2c0.5,0.5,1,0.1,1.4-0.2c2.7-1.5,4.6-3.9,6.9-5.8
		c0.5-1.9,2-2.3,3.7-2.4c0.4,0,0.9-0.2,1.3-0.3c4.5-0.9,7.8-3.1,9.1-7.9c1.2-4.5,2.3-9,2.1-14.1c0.4-2.8-0.3-6-1.3-9.1
		c-1.2-3.6-3.5-6.1-7.2-7.1c-1.1-0.3-2.1-0.6-3.2-0.8c-1.1-0.1-1.5-0.7-1.5-1.7s0-1.9-0.2-2.9c-0.6-3.9-1.7-7.6-3-11.3
		c-1.9-5.5-5.1-10.1-9.3-14c-1.6-1.5-3.5-2.8-5.9-2.4c-2.4,0.3-3.8,1.7-3.8,4c0,1.7,0.8,3,1.6,4.2c2.2,3.4,2.8,7.2,2.8,11.2
		C449.3,214.4,448.6,216.6,445.6,217.7z"/>
	<path class="st3" d="M699.4,214c-1.1,1.4-0.9,4.1,0.6,5.7c1.1,1.2,1.6,2.4,1.5,4c-0.1,1.2,0,2.4,0,3.5c0,3.8,0.6,7.5,2.5,10.8
		c0.4,0.7,0.6,1.5,0.6,2.3c0.1,3.5,1.7,6.2,4.5,8.2c1.8,1.3,3.8,2.2,5.7,3.4c2,1.2,4,2.2,6.4,1.9c0.7-0.1,1.4-0.1,1.8,0.5
		c1.1,1.5,2.6,2.8,3.1,4.8c1.2,4.9,3.1,9.5,4.6,14.3s4.3,8.6,8.4,11.6c4.5,3.4,9.6,5.8,14.6,8.3c1,0.5,2,0.8,3.2,0.6
		c1.9-0.5,3.5-1.4,4-3.4c0.5-2.2-0.2-4.1-2.2-5.4c-2.9-2-4.9-4.6-6.7-7.5c-2-3.2-3.4-6.7-4.9-10.1c-2.8-6.5-6.6-12.3-12.4-16.7
		c-1.4-1.1-2.6-2.4-3.7-3.8c-2.8-3.5-5.3-7.3-8.1-10.7c-1.7-2.1-2.9-4-1.9-6.7c0.1-0.3,0-0.6,0-1.3c-0.1-3.6-2-6.8-5.6-8
		c-0.8-0.3-1.2-0.7-1.7-1.3c-2.2-2.8-5.1-4.9-8.3-6.4C703.1,211.6,700.8,212.1,699.4,214z"/>
	<path class="st3" d="M364.3,243.5c0-0.8,0-1.6,0-2.4c0-0.8-0.5-1-1.2-0.8c-1.1,0.4-1.9,1.2-2.5,2.1c-2.4,3.7-4.7,7.5-5.7,11.9
		c-0.3,1.4-0.9,2.8-1.5,4.1c-1.3,2.7-1.9,5.7-2.5,8.7c-0.6,2.8-0.3,5.7-0.7,8.6c-0.8,5.6-2.8,10.6-6.2,15.1c-1.8,2.3-3.7,4.4-6,6.1
		c-3.3,2.4-6.5,4.8-9.8,7.2c-1.5,1.1-2.8,2.4-3.9,3.9c-3.1,4.1-5.4,8.8-7.6,13.4c-0.4,0.9-0.7,1.8-0.6,2.8c-0.1,1,0.2,1.9,0.6,2.7
		c0.9,1.6,1.3,1.8,2.6,0.5c1.3-1.3,2.7-2.5,4.1-3.6c7.9-6.2,16.9-9.7,26.9-10.6c4.2-0.4,4.7-0.8,5.9-4.8c0.1-0.2,0.1-0.4,0.1-0.7
		c1.6-5.4,1.8-11,1.8-16.6c0-3.5,0.7-6.9,1.9-10.1c0.5-1.2,1.3-2.3,0.8-3.8c-0.2-0.5,0.3-0.9,0.7-1.3c1.5-1.6,2.9-3.3,4.5-4.9
		c2.7-2.8,5.7-5.1,8.8-7.3c1.1-0.8,1.1-0.8,0.1-1.7c-2-1.9-4.2-3.6-6-5.8C366,252.3,364.3,248.2,364.3,243.5z"/>
	<path class="st3" d="M388.9,537.6c-1.7-1.9-3.8-3.2-6-4.5c-1.9-1.2-3.5-2.7-4-5c-0.3-1.2-1-2.3-1.7-3.4c-2.9-4.4-7.2-7-12-9
		c-0.9-0.4-1.7-0.8-2.5-1.4c-4.1-3.1-7.7-6.6-11.5-9.9c-1.2-1-2.4-1.7-4-1.6c-1,0.1-1.7-0.2-2.4-1.1c-1.5-1.8-3.7-1.7-5.4,0
		c-0.8,0.9-1.3,1.9-1.7,3.1c-1.5,4.5,1.1,10.4,4.7,12.9c1.2,0.8,2.1,1.8,2.8,3.1c0.3,0.5,0.7,1,1.1,1.4c2.2,2.5,5,4.1,8,5.3
		c1.4,0.6,2.6,1.4,3.9,2.1c1.2,0.8,1.9,1.9,1.8,3.5c-0.2,1.6,0,3.2,0,4.9c0,0,0,0-0.1,0c0,1,0,2.1,0,3.1c-0.2,5.5,1.6,10.4,4.9,14.8
		c3.3,4.3,8.8,4.9,12.6,0.9c1.2-1.3,1.9-2.8,2.5-4.4c0.9-2.3,0.9-2.3,3.3-2.3c0.6,0,1.2,0,1.8,0c3.7-0.2,7.1-4.5,6.3-8.1
		C390.8,540.4,390.1,538.9,388.9,537.6z"/>
	<path class="st3" d="M252.1,328.1c4.9-4,10.2-6.9,16.7-7.5c0.9-0.1,1.9,0,2.6-0.9c2.5-3.4,4.7-6.9,4.3-11.3c-0.3-2.8,0.7-5,2.4-7.1
		c2.7-3.3,5.5-6.6,8.1-9.9c2.2-2.8,4.2-5.8,3.7-9.6c-0.1-1,0.3-1.7,1.2-2.2c0.6-0.3,1-0.8,1.4-1.4c2-2.8,1.7-5.6,0.2-8.5
		c-1-1.9-0.9-1.9,0.9-3.1c3.1-1.9,3.3-7.3,1-9.3c-3-2.5-6.5-3.2-10.3-3.3c-0.6,0-1.3,0.3-1.9,0.6c-3.2,1.7-6.2,3.8-7.6,7.4
		c-0.6,1.4-1.4,2.5-2.5,3.5c-1.6,1.5-3.2,3.1-3.8,5.3c-0.6,2.1-1,4.2-0.7,6.3c0.4,3.3,0.6,6.6,1.8,9.7c0.7,1.7,0.3,2.8-0.6,4.2
		c-2.8,4.2-5.3,8.5-6.4,13.5c-0.4,1.7-0.8,3.3-1,5c-0.4,2.8-1.6,5-4,6.8c-3.9,2.9-6.5,6.8-7.7,11.5c-0.2,0.6-0.4,1.3,0,2
		C250.7,329.4,251.4,328.7,252.1,328.1z"/>
	<path class="st3" d="M273,371.4c0.8-0.6,1-1.3,1-2.3c0-2-0.2-4,0.2-6c0.6-2.6,0.2-3.5-2-4.8c-1.9-1.1-3.6-2.3-5-4
		c-2.8-3.3-6.5-3.8-10.4-3.5c-1,0.1-2,0.2-3.1,0.3c-3.5,0.4-6.9,1.2-9.7,3.4c-3.1,2.5-4.2,5.9-4,9.8c0.1,2.8,1,5.5,1.2,8.3
		s0.6,5.5,1.2,8.3c0.9,3.8,2.5,7.4,3.3,11.2c0.9,4.1,2.7,7.7,5.4,11.2c0.3-0.4,0.4-0.6,0.5-0.8c1.6-5.6,4.1-10.8,7.2-15.6
		C262.8,381.2,267.1,375.6,273,371.4z"/>
	<path class="st3" d="M598.3,402.1c-1.5,0.1-2.9,0.2-4.3,0.6c-2.3,0.8-4.6,1.4-7,2.1c-1.2,0.3-2.2,1-2.7,2.1
		c-1.2,2.8-2.7,5.6-2.9,8.8c-0.1,1.1-0.5,1.6-1.4,2c-0.3,0.1-0.7,0.3-1,0.5c-1.6,1.1-2.9,2.5-2.9,4.5c0.1,2.1,1.2,3.8,3.2,4.7
		c0.7,0.3,1.3,0.7,2,0.9c0.9,0.3,1,0.8,0.5,1.5c-0.9,1.3-1.1,2.7-1,4.2s-0.4,2.5-2,3c-1.5,0.5-1.9,1.8-1.4,3.2
		c0.2,0.7,0.7,1.3,1.2,1.8c1.2,1.4,1.1,1.9-0.7,2.3c-2.1,0.5-4.3,0.9-6.5,1.2c-1,0.2-2.1,0.1-3.1-0.1c-2.1-0.4-4.1-0.3-6.1,0
		s-3.8,0.3-5.7-1c-2.6-1.8-6.6-1.3-9.1,0.6c-1,0.8-1.9,1.8-1.9,3.1c-0.1,3.1,0.5,6.3,4.2,7.7c2.5,0.9,5.1,1.3,7.8,1.2
		c1,0,1.9,0.1,2.9,0c1.4-0.3,2.9-0.5,4.2-1.2c3.8-1.8,7.8-3.2,10.8-6.3c1.9-1.9,4.5-3,6.6-4.8c0.2-0.2,0.5-0.3,0.8-0.3
		c2,0.2,3.5-1.1,5.1-1.8c2.5-1.1,4.3-3,5.9-5.2c1.8-2.4,2.5-5.3,3.2-8.2c0.3-1.4,0.4-2.8-0.3-4.1c-0.5-0.8-0.4-1.3,0.4-1.8
		c3.1-1.8,4.4-4.9,5.3-8.1c0.3-1.2,0.7-2.2,1.3-3.2C607,406.9,602.7,401.8,598.3,402.1z"/>
	<path class="st3" d="M283.9,503.7c3.5-4.5,5.4-9.8,8-14.7c0.5-0.9,0.1-1.5-0.7-2c-0.8-0.5-1.6-1.1-2.3-1.8c-3.8-3.8-6-8.5-7.4-13.6
		c-0.9-3.1-1.2-6.4-1.2-9.6c0-3,0.6-6,1.3-8.9c0.4-1.7-0.2-2.8-1.3-3.9c-1.6-1.6-3.4-3-5.2-4.4c-5.7-4.4-8.8-10.2-8.8-17.5
		c0-0.9,0.1-1.7-0.2-2.8c-2,1.4-4.1,4.5-4.5,6.6c-0.9,4.1-0.4,8.1,1.6,11.7c0.8,1.5,1,2.8,0.7,4.4c-0.4,2.7-1.1,5.3-0.1,8
		c1.9,4.8,3.2,9.8,5.6,14.4c2.5,4.8,4.3,9.8,5.6,15.1c0.8,3.4,0.9,6.9,0.5,10.3c-0.8,5.3-2.3,10.3-4.1,15.3c-1,2.9-1.7,5.9-2.3,9
		c-0.1,0.5-0.2,1,0.1,1.4c0.5-0.2,0.8-0.5,0.9-0.8c1.5-2.5,3.6-4.5,5.5-6.6C278.6,510.2,281.4,507,283.9,503.7z"/>
	<path class="st3" d="M395.4,143.9c2.1-0.5,4.2-0.2,6.3,0c5.2,0.6,10,2.3,14.4,5.1s8.2,6.2,11.7,10c1.3,1.3,1.8,1.3,3.1,0.1
		c1.2-1.1,2-2.4,2.4-3.9c0.5-1.5,1.4-2.4,3.1-2.3c0.8,0,1.4-0.3,2.1-0.5c1.2-0.3,1.5-1,1.4-2.1c-0.1-1.2-0.5-2.4-0.4-3.7
		c0.1-2.8,0-5.6,0-8.4c0.1-3.4,0.6-6.7,1.6-10c0.7-2.2,1.5-4.4,2.7-6.4c-0.3-0.3-0.7-0.5-0.9-0.4c-2.4,1.1-5,1.5-6.9,3.6
		c-1.7,1.9-3.9,3.4-6.7,3.8c-2.6,0.4-5,1.3-7,3c-3.6,3-8,4.2-12.5,4.5c-4,0.2-7.9,0.6-11.9,0.6c-2.9,0-5.7,0.8-8.2,2.2
		c-1.2,0.7-1.2,1-0.1,1.9c1,0.8,2,1.5,3,2.2C393.5,143.8,394.4,144.1,395.4,143.9z"/>
	<path class="st3" d="M719.7,423.5c-0.5,3.2,1.9,5.7,4.8,5.3c1.4-0.2,2.3-1.1,3.1-2.3c4.3-6.4,7.9-13.1,11.3-20
		c2.2-4.4,3.4-8.9,3.3-14c0.3-2.3-0.5-4.9-0.5-7.4c0-3-0.8-6-1.9-8.8c-0.8-2.2-3.1-2.8-5.1-1.5c-0.8,0.5-1.1,1.3-1.4,2.2
		c-1.1,2.9-2.1,5.8-3.5,8.6c-1.2,2.4-2.7,4.2-5.4,5.2c-3.8,1.4-6.2,4.3-7.1,8.4c-0.6,2.7-0.4,5.2,0.4,7.8c0.5,1.9,1.4,3.6,2.2,5.3
		c0.9,2,1.3,4,0.8,6.2C720.3,420,720,421.8,719.7,423.5z"/>
	<path class="st3" d="M480.7,123.4c1.7,1.3,3.2,2.9,4.6,4.5c1.5,1.7,3.2,3.4,4,5.5c1.2,3.2,2.5,6.5,3.1,9.9c0.4,2.3,0.8,4.6,0.9,7
		c0,0.7,0.2,1.3,1,1.5c0.6,0.2,1.3,0.1,1.5-0.6c0.4-1.5,1.2-1.6,2.5-1.2c0.2,0.1,0.6-0.1,0.9-0.1c1.7-0.4,2.8-1.6,3.6-3
		c1.8-3.1,3.8-5.9,7-7.7c1.7-0.9,2.7-2.7,3-4.7c0.2-1,0.3-2,0.5-3c0.8-5.7,3.2-10.8,6.5-15.5c1.7-2.4,0.5-6-2.2-6.5
		c-1.5-0.3-3.1-0.3-4.5,0.5c-1.8,0.9-3.5,1.9-4.9,3.4c-1.6,1.8-3.6,3.3-4.9,5.4c-0.2,0.3-0.5,0.6-0.8,0.7c-1.1,0.3-1.7,1.3-2.5,2
		c-2.7,2.6-5.2,4.3-8.9,1c-1.6-1.4-3.2-2.8-5-4c-1-0.6-2.1-1.1-2.9-1.1c-1.7,0-2.2,0.2-2.9,1.1C478.7,120,478.9,122,480.7,123.4z"/>
	<path class="st3" d="M559.3,375.8c-1.5,4.1-3.6,7.9-7,10.8c-1.1,1-1.2,1.2-0.1,2.1c2.1,1.7,4.6,2.4,7.2,2.3c2.5-0.1,5,0.3,7.3,1.2
		c0.4,0.2,0.8,0.3,1.3,0.4c2.1,0.5,4.1,1.1,6.2,0c0.8-0.4,1.6-0.2,2.4,0c1.6,0.5,3.2,1,4.6,2c0.8,0.6,1.7,0.6,2.5,0s0.9-1.5,0.6-2.4
		c-0.3-0.8-0.7-1.5-1.1-2.2c-0.9-1.6-2.3-2.7-3.8-3.7c-0.9-0.6-1.2-1.3-1.2-2.4c0-1.4,0.1-2.8-0.2-4.2c-1.2-4.8-2.2-9.6-3.4-14.4
		c-0.9-3.7-2.6-7-5.6-9.5c-1.7-1.4-3.6-2.6-5.1-4.2c-0.4-0.5-1-0.9-2-0.8c0.4,1,0.4,2,0.4,3c0,2.9,0,5.9-0.4,8.8
		C561.4,367.3,560.8,371.6,559.3,375.8z"/>
	<path class="st3" d="M425.3,430.3c-0.8-0.5-1.7-0.9-2.6-1.1c-1.8-0.4-3.6-0.7-5.3-1.3c-1.8-0.7-3.9-1.5-4.6-3.5
		c-1.3-3.5-2.6-7.1-1.6-11c0.2-0.8-0.2-1.2-1-1.4c-1.6-0.4-2.4,0-3.2,1.5c-0.5,0.8-0.7,1.7-2,1.6c-2.8-0.2-4.7,1.3-6.4,3.3
		c-3.2,3.7-4.6,8.2-5.3,12.9c-0.4,2.4-0.1,4.9,1.2,7.1c1.5,2.6,3.9,3.7,6.7,3.6c3.2-0.2,6.4-0.9,9.5-2c1.7-0.6,3.5-1.2,4.9-0.9
		c1.2,0,1.9,0.1,2.7,0c2.9-0.4,5.7-1,7.8-3.2C427.4,434.1,427.1,431.6,425.3,430.3z"/>
	<path class="st3" d="M343.5,396.5c-2.7,0.5-5.3,0.4-7.9-0.1c-4.8-0.8-9-2.7-12.5-6c-2.6-2.4-4.8-5.2-6.3-8.5
		c-0.3-0.5-0.4-1.3-1.4-1.3c-0.1,1.9-0.6,3.5-0.4,5.4c0.5,3.9,1.7,7.8,1.5,11.8c0,0.7,0.2,1.3,0.6,1.9c1.1,1.5,2.1,3,3.7,4.1
		c1.1,0.8,2.1,1.7,2.9,2.7c1.5,1.9,2.9,4,3,6.5c0.2,2.7,0.4,5.3,1,7.9c0.6,2.9,1.3,5.8,2.8,8.3c0.4,0.7,0.7,1.4,1.8,1.6
		c0.9-13.1,6.4-24.2,15-34.4C345.6,396.5,344.5,396.3,343.5,396.5z"/>
	<path class="st3" d="M263.7,118.1c1.6,1.1,3.4,1.4,5.3,0.5c1.2-0.5,1.9-1.3,1.9-2.7c0.2-4.9,0.5-9.7,1.3-14.5
		c0.9-5.6,2.6-10.9,5.5-15.8c2-3.3,3.4-6.9,4.9-10.4c0.2-0.5,0.4-1,0.1-1.5c-0.4-0.5-0.9-0.3-1.4-0.2c-4.5,0.9-7.9,3.4-10.7,6.9
		c-4.2,5.1-6.7,11-8.4,17.4c-1.1,4.3-2,8.7-2.3,13.2C259.5,114.4,261.3,116.5,263.7,118.1z"/>
	<path class="st3" d="M680.1,410.4c-2.4-0.3-4.6,0.4-6,2.4c-1.5,2-2.4,4.4-2.3,7.2c-0.1,1.2,0.2,2.6,0.7,3.9c1,2.8,2.4,5.4,4.2,7.7
		c1.5,1.8,3.1,3.4,5.5,4.2c5.6,1.9,11.7-2.2,10.6-9.6c-0.4-2.8-1.5-5.4-2.6-7.9C688.2,413.9,685,411.1,680.1,410.4z"/>
	<path class="st3" d="M748.7,363.8c0.6,0.5,1.2,0.2,1.8-0.2c0.9-0.8,1.7-1.8,2.3-2.9c2.4-4.7,4.6-9.4,6.8-14.2
		c0.6-1.4,1.3-2.8,1.5-4.4c0.3-2.3,0.8-4.7-1.4-6.4c-3.6-2.9-7.7-4.6-12.3-4.9c-3.2-0.2-5.8,2.9-4.3,6.1c0.5,1.1,1,2.3,0.9,3.6
		c-0.2,2.8,0.2,5.4,1.1,8c0.8,2.2,1,4.5,0.5,6.7c-0.7,3.6,0,4.8,3.5,5.9c0.1,0.5-0.1,0.7-0.3,1C748.4,362.8,748.2,363.4,748.7,363.8
		z"/>
	<path class="st3" d="M694.3,79c0.5,2.8,0.8,5.7,1.4,8.5c0.5,2.7,1.6,5.2,3.7,7.1c3.1,2.8,7.1,1.5,8.4-2.1c0.7-2,0.8-4,0.8-5.9
		c0.1-3.2-0.4-6.3-0.9-9.3c-1-6.3-5.2-9.6-10.8-11.6c-1.4-0.5-2.7-0.1-3.9,0.9c-1.8,1.7-2.2,3.5-0.8,6
		C693.3,74.6,693.9,76.8,694.3,79z"/>
</g>
<g>
	<path class="st4" d="M661,639l1.5-1.8l0.8-0.9c0.3-0.3,0.5-0.6,0.8-0.9l1.6-1.7c0.5-0.6,1.1-1.1,1.6-1.7c1.1-1.1,2.2-2.2,3.3-3.3
		l0.4-0.4l0.4-0.4l0.9-0.8c0.6-0.5,1.2-1.1,1.8-1.6l1.8-1.5l0.9-0.8c0.3-0.2,0.6-0.5,0.9-0.7l1.9-1.5l0.5-0.4l0.5-0.3l1-0.7l1.6-1.1
		c-1.2,0.6-2.4,1.1-3.6,1.7c-5.9,2.6-10.8,6.5-15.8,10.4c-1.8,1.4-3.7,2.7-5.5,4c-3.7,2.5-6.8,5.5-9.7,8.9c-2.2,2.6-4.7,4.9-7.1,7.2
		c-0.1,0.1-0.4,0.1-0.6,0.2c-0.3-0.3-0.2-0.6,0-0.8c2.4-3.1,3.3-6.9,4.5-10.5c1.6-4.6,2.1-9.5,3.1-14.2c0.9-4.1,2.4-7.9,4.7-11.4
		c1.4-2.2,3.5-3.5,6-4.2c3.9-1.2,8-1.7,12-3c3-0.9,5.8-2.1,8.7-3.3c3.2-1.4,4.4-4.9,4-8c-0.7-4.9-1.4-9.8-1.2-14.7
		c0.2-5.5,4.6-9.8,10.1-10c2.8-0.1,5.4,0.5,7.9,1.7c0.5,0.2,11.5-9.4,11.3-13.9c-0.1-1.6,0.5-2.9,1.7-3.9c0.9-0.8,2-1.3,3.2-0.9
		c1.9,0.5,3.7,0,5.5-0.3c0.9-0.1,1.1-0.8,1.1-1.6c0-1.8-0.2-3.5,0-5.3c0.5-6.1,3-11.3,6.9-16c1.2-1.4,2.7-2.6,4.4-3.2
		c2.6-1,4.2-3,5.2-5.4c1.5-3.5,2.9-7.1,3.4-10.9c0.3-2.2-0.2-4.4-0.5-6.6c-0.7-4.1-2.5-7.7-4.9-11c-1.7-2.4-3-5.1-4.4-7.7
		c-0.6-1-1.3-2.1-0.9-3.5c0.2-0.8-0.6-1.4-1.1-2c-0.8-0.8-1.6-1.5-2.1-2.6c-0.8-1.6-0.7-2.9,0.2-3.9c0.9-0.9,2.5-1.2,3.9-0.5
		c2.3,1.2,4.7,2.2,7.1,3.1c1.9,0.7,3.8,1.5,5.8,2.2c3.3,1.1,6,3.2,8.6,5.3c2.3,1.8,3.3,4.5,4.5,7c1.3,3,2.6,6.1,2.7,9.5
		c0,1.6,0.8,3.1,0.9,4.8c0.2,3.5-0.6,6.7-1.5,10c-0.5,1.7-0.7,3.3-0.2,5c0.9,3-0.2,5.7-1.4,8.3c-0.5,1.1-1.1,2.1-1.9,3
		c-0.8,0.9-1.3,2-1.6,3.1c-0.7,2.5-2,4.6-3.9,6.3c-0.9,0.8-1.7,1.6-2.3,2.7c-1.9,3-5.1,4.6-8,6.5c-1.1,0.7-2.4,1.2-3.8,0.7
		c-0.4-0.1-0.7-0.1-1.1,0.1c-2.6,1.7-6,2-8.2,4.5c-0.6,0.7-1.5,1.2-2.4,1.6c-1,0.5-1.9,1.2-2.5,2.1c-0.3,0.4-0.6,0.9-1,1.2
		c-1.8,0.9-1.8,2.4-1.5,4c0.4,1.6,0.3,3.2,0,4.8c-0.4,2.1,0.2,4.3,0.5,6.4c0.2,1.2,0.3,2.3,0.3,3.5s0.2,2.5,0.3,3.7
		c0.2,3.6,0,7.2-2,10.4c-0.7,1.1-1.5,2-2.6,2.7s-2,1.6-2.7,2.6c-2.2,3-5.2,5.2-7.9,7.7c-0.4,0.3-0.7,0.6-1.1,0.9l0.5-0.2
		c0.4-0.1,0.7-0.3,1.1-0.4l1.1-0.4l2.3-0.7l1.1-0.4c0.4-0.1,0.8-0.2,1.1-0.3l2.3-0.6l1.1-0.3l0.6-0.2l0.6-0.1l2.3-0.5
		c5.4-1.2,10.8-2.2,16.3-2.9c1.2-1.7,2.4-3.4,3.5-5.1c0.5-0.8,0.6-1.6,0.4-2.5c-0.4-1.4-0.9-2.8-1.5-4.2s-1.3-2.8-1.9-4.2
		c-1.9-4.4-3.1-8.9-3.3-13.7c-0.2-4.7,3-8,7.7-8.1c1.9,0,3.7,0.4,5.4,1.1c2.5,1,4.9,2.3,6.9,4.2c0.6-0.3,0.7-0.7,0.9-1.1
		c1.8-4.3,3.3-8.7,4.5-13.2c0.5-2,0.7-4,2.3-5.5c2.7-6.3,6.6-11.9,11.3-16.9c0.7-0.7,1-1.5,1.1-2.6c0.3-6.8,0-13.6-0.2-20.4
		c-0.1-1.8-0.4-3.5-0.9-5.2c-1.7-6-2.7-12.1-3.2-18.3c-0.2-2.4-0.9-4.6-1.9-6.8c-1.7-3.4-3.4-6.9-5.4-10.2c-2.8-4.6-4.5-9.6-4.9-15
		c-0.3-3.3-0.5-6.6-0.8-9.9c-0.1-1.1-0.1-2.2-1-3.1c-0.3,0.2-0.5,0.3-0.6,0.4c-2.6,3.3-5.3,6.5-9.2,8.5c-0.6,0.3-0.6,0.7-0.4,1.3
		c1.4,3.1,1.2,6.7,2.2,9.9c0.3,0.8-0.1,1.6-0.8,2.2c-0.7,0.5-1.5,0.6-2.3,0.2s-1.5-1-2-1.7c-1.8-2.4-7.4-15.9-7.4-18
		c0-2.3,0.7-4.5,1.7-6.6c1.2-2.6,2.7-4.9,4.4-7.2c2.1-2.9,4.3-5.8,6.5-8.7c5.8-7.7,10.2-16.2,14-25.1c0.4-1,0.5-2,0.3-3
		c-0.6-3-1.6-5.8-3.3-8.4c-0.9-1.4-1.9-2.8-2.6-4.4c-1.4-3.2-0.3-6.4,2.7-8.2c1.1-0.7,2.4-1.2,3.7-1.3c2.1-0.1,3.1-1.3,3.7-3.2
		c0.9-3,1.7-6,2.9-8.8c1.8-4.1,2.6-8.4,3.1-12.8c0.2-1.8,0.5-3.6,0-5.3c-1.2-4-2.7-8-5.3-11.4c-1.9-2.5-4.1-4.6-6.5-6.6
		c-2.7-2.3-5-4.8-6.4-8.1c-1.9-4.6,0-8.1,4.8-9c1.9-0.4,3.7-0.3,5.5,0.2c0.7,0.2,1.2,0.2,1.3-0.7c0.6-3.3,1.2-6.5,0.1-9.9
		c-1.1-3.5-2.2-7.1-3.2-10.6c-1.2-4.1-2.8-8.1-4.9-11.9c-2-3.6-3.7-7.2-5.3-11c-2.6-6.1-5.8-12-9-17.8
		c-6.2-11.1-12.8-21.9-18.6-33.3c-0.9-1.8-2.1-3.5-3.2-5.3c-0.5-0.9-1.2-1.3-2.3-1.4c-3.3-0.2-6.5-1.3-9.9-1.2
		c-1.9,0.1-3.4-0.9-4.2-2.7c-0.7-1.8-0.2-3.3,0.9-4.7c1.5-1.9,3-3.8,4.7-5.6c0.6-0.7,1.1-1.3,1.2-2.3c0.3-2.3,1.1-4.4,1.9-6.6
		c1.1-2.9,2.1-5.9,2.4-9c0.9-12.2,1.3-24.3-1.8-36.3c-0.9-3.5-1-7-0.5-10.6c0.6-4.2,1.4-8.5,2.2-12.6c0.7-3.3,1.4-6.7,1.4-10.1
		c0-5.8,0-11.6-0.9-17.2c-1.3-8.5-4.8-16.2-8.7-23.8c-0.5-1-1.3-1.6-2.3-1.9c-2.7-1-5.4-1.8-8.3-2.3c-9.6-1.6-19.2-0.9-28.7-0.2
		c-6.3,0.5-12.6,1.4-18.9,2c-11.7,1.2-22.9,4.1-33.4,9.6c-1.8,1-3.7,1.9-5.5,2.8c-4.8,2.4-9.1,5.5-12.9,9.2
		c-4.2,4.1-8.8,7.9-13.3,11.7c-4.6,4-8.4,8.7-9.9,14.9c-0.9,3.6-4.3,5.7-8,4.9c-2.9-0.6-4.8-2.4-5.9-5.2c-0.5-1.2-0.6-2.4-0.7-3.7
		c-0.2-2-0.1-2-2-2.3c-2.7-0.4-5.3-1.3-7.7-2.7c-1.8-1.1-3.6-2.1-5.3-3.3c-5.1-3.4-10.7-4.8-16.7-5.1c-3.7-0.2-7,0.4-10.2,2.6
		c-4.3,2.9-8.6,5.7-12,9.7c-0.9,1-1.7,1.9-1.7,3.4c0,1.1-0.5,2.4-1.8,2.5c-1.2,0.1-2,0.8-2.8,1.5c-1.7,1.4-3.6,1.6-5.6,0.9
		c-0.8-0.3-1.7-0.7-2.4-1.2c-3-2.1-6.2-4.1-9.1-6.4c-2.6-2.1-1.8-2-4.8-0.7c-3.8,1.6-7.7,1.9-11.7,1c-2.6-0.6-5.1-1.5-7.6-2.5
		c-3.9-1.6-7.8-1.8-11.9-0.8c-6.4,1.5-12.4,3.8-18.2,6.9c-1.2,0.6-2.3,1.3-3,2.5s-1.7,2-2.8,2.8c-1.8,1.2-3.1,0.8-3.6-1.3
		c-0.5-2.1-0.4-4.1,0.3-6.1c0.3-0.7,0.8-1.4,0.7-2.4c-2.7-0.2-5.1,0.7-7.4,1.9c-2.9,1.5-5.6,3.3-8.3,5.1c-1.8,1.2-3.6,2.3-5.7,2.9
		c-4.1,1-7.6,0.3-10.4-3.1c-1.3-1.6-3.2-2.6-4.8-4.1c-0.5,0.9-0.4,1.7-0.4,2.5c-0.1,2.1-0.4,4.1-0.8,6.1c-0.2,0.9-0.6,1.5-1.6,1.6
		c-1,0-1.5-0.6-1.7-1.5s-0.3-1.9-0.5-2.8c-0.6-3-1-6-2.4-8.7c-1.1-2.2-2.2-4.3-3.3-6.5c-0.3-0.7-0.7-1.3-1.3-1.8
		c-5.8-4.7-11.1-9.9-16.3-15.3c-1.3-1.4-2.9-2.2-4.7-2.8c-5-1.7-9.9-3.6-14.9-5.1c-7.7-2.4-15.5-4.8-23.7-5.4
		c-6.1-0.5-12.2-1.4-18.2-2.2c-4.8-0.6-9.6-0.7-14.4-0.5c-2,0.1-3.7,0.7-5.4,1.8c-3.7,2.5-6.3,6-8.3,9.9c-1.9,3.7-3.3,7.6-4.5,11.5
		c-6.2,21-7.3,42.3-3.4,64c2.8,15.6,8.2,30.1,16.9,43.5c3.1,4.8,6.6,9.3,8.8,14.6c0.5,1.3,6.9,3.7,7.6,4.2c0.6,0.5,1.3,1,1.8,1.6
		c2,2.2,2,4.7,0.1,7c-1.6,1.9-3.6,3.1-6,3.5c-4.4,0.6-8.8,0.8-13.2,0c-2-0.3-3.9-1.3-5.7-2.1c-0.1,0.2-0.1,0.3-0.1,0.3
		c0.1,0.3,0.2,0.5,0.4,0.8c1.7,2.4,2.8,4.9,2,7.9c-0.2,0.8,0.3,1.2,0.8,1.6c2.7,2.5,2.9,6,0.6,8.9c-0.8,1-1.8,1.7-2.8,2.5
		c-3.9,3-8.3,5.1-12.8,6.9c-1.1,0.4-2.1,0.9-3.4,1.9c0.8,0.1,1.1,0.2,1.4,0.2c2.2,0.2,4.4,0.4,6.5,1.3c3.9,1.8,5.2,5.7,3.1,9.4
		c-1.8,3.1-3.6,6.3-5.6,9.3c-3,4.9-5.9,9.9-8.1,15.2c-0.7,1.6-0.7,1.6,0.6,2.7c4.2,3.5,4.9,8.8,1.6,13.2c-1.1,1.6-2.5,2.9-4,4.2
		c-1.9,1.7-3.9,3.4-5.7,5.2c-5.6,5.7-9.6,12.3-10.3,20.5c-0.1,1.5-0.3,2.9-0.4,4.4c-1,12.7-1.4,25.4,0.6,38c0.3,1.8,1,6.6,1.4,8.3
		c1.1,5.6,3,10.9,5.4,16.1c4,9,7.7,18.2,11.2,27.5c1.1,2.8,1.4,5.7,0.6,8.7c-0.8,2.8-0.8,5.7-0.5,8.6c1.3,9.8,3.8,19.3,6.3,28.7
		c0.2,0.9,0.7,1.6,1.4,2.2c2.6,2.4,4.4,5.3,5.1,8.7c1.3,6.5,0.7,12.9-0.7,19.3c-0.2,1.1-0.9,2-1.7,2.8c-0.7,0.6-1.5,0.9-2.4,0.4
		c-0.8-0.4-1.1-1.2-1-2.1c0.5-3.5-0.5-6.9-1.4-10.2c-0.7-2.5-2-4.6-4.3-5.9c-2.6-1.6-4.4-3.9-5.8-6.5c-1.3-2.5-2.4-5.1-3.3-7.7
		c-0.6-2-1.6-3.5-3.3-4.8c-2.5-1.8-4.2-4.3-5.1-7.4c-0.1-0.4,0-1-0.7-0.9c-0.1,0.1-0.2,0.2-0.3,0.4c-3.2,8.7-6.1,17.5-7.8,26.7
		c-1.5,8.3-1.4,16.4,0.9,24.6c0.9,3.3,1.7,6.6,2.5,9.9c1,4.4,2.1,8.8,2.1,13.3c0,3,0.6,5.8,1.4,8.7c1.3,5.2,3.2,10.1,6.6,14.3
		c2.4,3.1,2.8,6.7,1.6,10.5c-0.6,1.8-1.2,3.7-1.7,5.5c-0.8,3-1.3,6-0.6,9.2c0.2,1,0.4,2.1,0.4,3.1c-0.1,3.5,0.6,6.8,1.7,10
		c0.3,0.9,0.5,1.8,0.8,2.7c2,0.1,4.1,0.3,6.1,0.5s4,0.5,6,0.8c-0.3-3-0.8-6.1-1-9.1c-0.1-3.3,0-6.5,0.3-9.7c0.1-1.1,0-14.4,0.4-17.7
		c0.3-2.2,0.3-4.4,0.8-6.6c0.3-1.2,0.6-2.5,1.4-3.5c0.7-0.9,1.5-1.5,2.7-1.2s1.5,1.3,1.6,2.4c0.1,4.4,1.5,8.5,3.1,12.6
		c0.4,1.1,1.1,1.9,2,2.6c5.9,4.5,8.5,10.6,8.5,17.9c0,2.6,0,5.2,0,7.6c-0.2,3-0.2,6-0.1,9c0.3,0.1,0.6,0.2,0.9,0.2l1.1,0.4l2.3,0.7
		l1.1,0.4c0.4,0.1,0.7,0.3,1.1,0.4l2.2,0.8l0.2,0.1c-0.4-1.3-0.8-2.6-1-4c-1.7-8.4-2.1-16.8,0.1-25.1c0.2-0.9,0.4-1.9,0.4-2.8
		c-0.3-4.7,0.6-9.2,2.2-13.6c0.1-0.4,0.2-0.8,0.4-1.5c-1.4-0.4-2.7-0.2-3.9-0.6c-3.5-1.1-5.6-5.1-4-9c1.5-3.7,4.6-5.8,8.1-7.5
		c2.9-1.4,5.9-2.6,9.1-3.2c3.4-0.7,6.8-1,10.3-0.8c2.3,0.1,4.1,1.3,5.4,3.1c2.9,4.2,4.7,8.8,3.5,14.1c-0.4,1.8-0.6,3.6-1,5.4
		c-0.5,2.9-2.1,5.2-3.9,7.6c-6.1,8.3-10.7,17.4-13.5,27.4c-1.3,4.7-2.4,9.5-3.5,14.3c3.5,1.7,6.8,3.6,10.1,5.6l2,1.3l1.9,1.4l1,0.7
		l0.5,0.3l0.5,0.4l1.9,1.5c0.3,0.2,0.6,0.5,0.9,0.7l0.9,0.8l1.8,1.5c0.6,0.5,1.2,1,1.8,1.6l0.9,0.8l0.4,0.4l0.4,0.4
		c1.1,1.1,2.3,2.2,3.3,3.3c0.5,0.6,1.1,1.1,1.6,1.7l1.6,1.7c0.3,0.3,0.5,0.6,0.8,0.9l0.8,0.9l1.5,1.8c1,1.2,2,2.4,2.9,3.6
		c2.5,3.2,4.9,6.4,7.1,9.7c0,0.1,0.1,0.1,0.1,0.2c0.6,0.7,1.1,1.5,1.6,2.3c0.2,0.3,0.3,0.6,0.5,0.8c0.5,0.7,1,1.5,1.5,2.2
		c1.8,2.6,3.5,5.1,5.4,7.6c0.2,0.3,0.4,0.5,0.6,0.8c0,0,0,0,0.1,0.1c0.5,0.5,1,0.9,1.5,1.4c0.9,0.8,1.8,1.5,2.7,2.1
		c0.2,0.1,0.4,0.3,0.6,0.4h30c-1.1-1.2-2-2.6-2.8-4.2c-2.1-4.1-4.3-8.2-5.9-12.6c-1.8-4.9-4.7-9.2-7.9-13.2
		c-0.5-0.6-0.9-1.3-1.8-0.9c-2.9,1.2-6.1,1.1-9.1,1.6c-1.9,0.4-3.5,1-5,2.2c-1,0.8-2,1.7-3.1,2.5c-5.4,3.9-11.4,2.3-14-3.8
		c-3.1-7.2-3.8-14.7-2.6-22.3c0.6-3.5,1.1-7,1.3-10.5c0.1-1,0.1-2.1-0.2-3.1c-0.8-2.7-1.4-5.4-1.8-8.2c-0.1-0.7-0.4-1.2-1-1.6
		c-1.8-0.9-3.5-1.5-5.5-0.4c-0.6,0.3-1.2,0.5-1.9,0.7c-3.3,0.6-5.8-2.1-4.9-5.3c0.4-1.4,1.2-2.5,2.1-3.6c1.9-2.4,3.8-4.7,5.8-7
		c1.4-1.7,2.6-3.6,3.3-5.7c0.2-0.4,0.3-0.8,0.5-1.2c1.5-3,4.9-3.3,6.4-0.3c2.7,5.3,6.4,9.9,9.2,15.1c3.2,5.9,7.6,10.8,12.7,15.2
		c2.4,2.1,5,3.8,7.6,5.7c2.7,2,5.1,4.3,6.7,7.3c0.2,0.4,0.4,0.8,0.9,0.9c1.6,0.4,2.7,1.5,3.9,2.5c1.5,1.2,3.2,2,5.2,2.2
		c1.5,0.2,2.9,0.5,4.4,0.8c5.8,1.1,10.1,4.3,13.5,8.9c1.1,1.5,2.2,3.1,3.5,4.6c1.4,1.6,3,3.1,5,4c0.9,0.4,1.7,1,2.4,1.6
		c3.6,2.8,7.7,4.5,12.3,5c2.8,0.3,5.4,1.6,8,2.5c1.3,0.4,2.4,0.4,3.6-0.2c1.4-0.7,2.7-1.5,4-2.4c2-1.4,4.2-1.9,6.4-0.7
		c2.3,1.3,3.1,3.5,3,6c-0.1,1.9-0.6,3.8-1.1,5.6c-1.3,4.1-2.3,8.3-3.1,12.5h29.5c-0.2-1.1-0.3-2.3-0.4-3.4c-0.2-1.8-0.3-3.7-1.1-5.4
		c-0.2-0.5-0.3-1-0.3-1.5c0.1-1-0.3-1.8-0.8-2.7c-0.7-1-1.1-2.1-1.1-3.3c0.1-2,1.9-3.1,3.7-2.4c0.8,0.3,1.5,0.6,2.2,1.1
		c2.4,1.6,5,2.1,7.8,2c1.8-0.1,3.7-0.2,5.5-0.2c1.5,0,2.9,0.1,4.4,0.3c4.9,0.7,8.6,3.2,11.2,7.4c1.1,1.8,2.2,3.7,3.5,5.4
		c0.8,1.1,1.6,2,2.5,2.8h55.2c2.4-1.5,4.8-3.1,7.1-4.9c1.3-1.1,2.7-2,4.2-2.8c4.1-2.2,7.8-5,11.1-8.3c2.7-2.7,5.4-5.3,8.2-7.7
		c3-2.6,5.4-5.7,7.2-9.2c1.6-3.1,3.3-6.3,4.8-9.5c2.2-4.5,5.2-8.6,8.1-12.7c1.4-1.9,3.2-3,5.5-3.4c2.2-0.4,4.2-1.2,6.3-2.1
		c1-0.4,1.5-1,1.5-2.1c0.1-4.4,0.9-8.7,1.8-12.9c0.4-2,0.6-4.1,0.5-6.2c-0.1-1.9-0.7-3.4-2.1-4.7c-6.9,4.8-14.1,8.4-22.3,9.6
		c-1.5,0.2-3,0.6-4.5,1c-3,0.8-5.6,2.2-7.3,5c-0.9,1.4-2.2,2.6-3.9,3.2c-0.9,0.3-1.5,0.9-2.1,1.6c-1.5,1.7-3.2,3.3-5.1,4.6
		c-3.9,2.7-6.3,2.4-9.5-1c-0.8,0.3-1.1,1.2-1.5,1.8c-2.5,3.7-5,7.5-7.7,11.1c-0.6,0.8-1.2,1.5-2,2.1c-2.6,1.8-5.9,0.5-6.6-2.6
		c-0.2-1-0.5-2-0.9-2.9c-0.9-2.1-1.1-4.3-0.7-6.5c0.2-1.3,0.6-2.6,0.9-3.9c0.3-1.2,0.4-2.5,0-3.7c-0.6-2.4-0.8-4.8-0.5-7.3
		c0.1-0.8,0-1.6,0-2.4c-0.1-2.4,0.8-4.4,3-5.5s4.3-0.8,6.3,0.5c1.1,0.8,1.9,1.8,2.6,3c0.3,0.7,0.6,1.3,1,2c0.8,0,0.8-0.6,1-1.1
		c0.7-2,1.4-4,2-6.1c0.8-2.7,1.8-5.3,3.2-7.8c1.6-2.9,3.8-5.3,6.5-7.1c4-2.6,8.2-2.5,12.3-0.1c1,0.5,1.8,1.3,2.7,2
		c1.6,1.3,2.9,1.4,4.6,0.3c0.4-0.2,0.7-0.5,1.1-0.8c7.3-5.2,15.3-9.2,23.9-11.9c9.4-2.9,18.5-6.5,27.7-9.9c3.3-1.2,6.3-2.8,9.2-4.8
		c4.3-3,8.7-5.9,13.2-8.5c2.6-1.5,4.6-3.4,6.2-5.9c3.3-5.2,7.3-9.8,11.2-14.6c1.6-2,3.5-3.7,5.5-5.1c7.6-5.1,11.7-12.3,13.6-21
		c1.1-4.9,1.5-9.9,1.7-14.9c0.2-5.7,0.4-11.4-0.3-17c0-0.3-0.1-0.6-0.1-0.9c0-0.8,0.1-1.5,1-1.7c0.9-0.1,1.3,0.5,1.6,1.2
		c0.3,1,0.7,2,0.9,3c0.3,1.4,0.6,2.7,1.4,3.9c0.7,1.2,0.7,2.7,0.9,4.1c0.5,3.5,1.1,7,1.8,10.5c0.5,2.3,1.4,4.5,2.7,6.5
		c2.8,4.4,5.6,8.8,8.2,13.4c1.4,2.6,2.8,5.2,4,7.9c2.2,4.9,0.5,10.6-4.1,13.5c-1.1,0.7-2.2,1.2-3.4,1.6c-3.7,1.1-6.2,3.6-8.1,6.8
		c-0.4,0.7-0.8,1.4-1.1,2.2c-1.7,3.8-4.7,6.1-8.8,6.6c-3,0.4-5.7,1.5-8.5,2.4c-1,0.3-1.6,0.9-2,1.8c-1.4,3.2-2.2,6.6-1.8,10.1
		c0.1,0.4,0.1,0.9,0.1,1.3c0,3.1-2.4,5.1-5.5,4.5c-2.2-0.4-3.8-1.7-4.9-3.5c-1-1.6-2.2-1.8-3.7-1.4c-4.3,1.2-8.2,3.3-11.8,6
		c-0.3,0.2-0.7,0.5-0.7,0.8c-0.4,2.1-1.6,3.8-2.7,5.5c-0.1,0.2-0.2,0.6-0.2,0.8c-0.2,4.1-0.1,8.1,1.5,11.9c0.5,1.2,1.2,2.3,1.9,3.5
		c0.3,0.6,0.7,1.2,0.9,1.8c0.9,2.1,0.6,4.1-0.9,5.5c-1.5,1.5-3.4,1.7-5.3,1c-4.6-1.7-9-3.7-12.9-6.8c-0.3-0.2-0.6-0.4-0.9-0.7
		c-0.6-0.5-1-0.4-1.4,0.2c-1.2,1.9-2.4,3.7-3.6,5.6c-0.9,1.4-1.2,3-0.9,4.7c0.6,3.9,0.4,7.8-0.2,11.7c-1.3,8.6-3.2,16.9-7,24.8
		c-2.6,5.3-5.9,10-11,13.3c-1.9,1.2-3.3,2.9-4.7,4.6c-6,7.2-10.9,15.1-16.2,22.8h31.4c0.2-0.1,0.4-0.3,0.6-0.4
		c0.9-0.7,1.8-1.4,2.7-2.1c0.5-0.5,1-0.9,1.5-1.4c0,0,0,0,0.1-0.1c0.2-0.3,0.4-0.5,0.6-0.8c1.9-2.5,3.6-5,5.4-7.6
		c0.5-0.7,1-1.5,1.5-2.2c0.2-0.3,0.3-0.6,0.5-0.8c0.5-0.8,1-1.5,1.6-2.3c0-0.1,0.1-0.1,0.1-0.2c2.3-3.3,4.6-6.6,7.1-9.7
		C659,641.4,660,640.2,661,639z M759.7,335.8c2.1,1.7,1.6,4.1,1.4,6.4c-0.2,1.5-0.9,3-1.5,4.4c-2.2,4.8-4.4,9.5-6.8,14.2
		c-0.6,1.1-1.4,2.1-2.3,2.9c-0.5,0.5-1.2,0.8-1.8,0.2c-0.5-0.5-0.3-1.1,0.1-1.6c0.2-0.2,0.4-0.5,0.3-1c-3.5-1-4.2-2.3-3.5-5.9
		c0.5-2.3,0.2-4.6-0.5-6.7c-0.9-2.6-1.3-5.3-1.1-8c0.1-1.3-0.4-2.5-0.9-3.6c-1.5-3.2,1.2-6.3,4.3-6.1
		C752,331.2,756.1,332.9,759.7,335.8z M705.3,212.6c3.3,1.5,6.1,3.6,8.3,6.4c0.5,0.6,0.9,1,1.7,1.3c3.6,1.2,5.5,4.4,5.6,8
		c0,0.7,0.1,1,0,1.3c-1.1,2.7,0.2,4.7,1.9,6.7c2.9,3.5,5.4,7.2,8.1,10.7c1.1,1.4,2.3,2.7,3.7,3.8c5.7,4.4,9.5,10.2,12.4,16.7
		c1.5,3.4,2.9,6.9,4.9,10.1c1.8,2.9,3.9,5.5,6.7,7.5c1.9,1.3,2.7,3.2,2.2,5.4c-0.5,2-2,3-4,3.4c-1.2,0.3-2.2-0.1-3.2-0.6
		c-5-2.5-10.1-4.9-14.6-8.3c-4-3-6.8-6.8-8.4-11.6c-1.5-4.8-3.4-9.4-4.6-14.3c-0.5-2-2-3.2-3.1-4.8c-0.4-0.6-1.2-0.6-1.8-0.5
		c-2.4,0.3-4.4-0.7-6.4-1.9c-1.9-1.2-3.9-2.1-5.7-3.4c-2.8-2-4.4-4.7-4.5-8.2c0-0.8-0.2-1.6-0.6-2.3c-1.9-3.4-2.5-7-2.5-10.8
		c0-1.2-0.1-2.4,0-3.5c0.1-1.6-0.4-2.8-1.5-4c-1.5-1.5-1.7-4.3-0.6-5.7C700.8,212.1,703.1,211.6,705.3,212.6z M693,66.7
		c1.1-1,2.5-1.4,3.9-0.9c5.6,2,9.8,5.3,10.8,11.6c0.5,3,1,6.1,0.9,9.3c0.1,1.9-0.1,3.9-0.8,5.9c-1.3,3.5-5.3,4.8-8.4,2.1
		c-2.1-1.9-3.1-4.4-3.7-7.1c-0.5-2.8-0.9-5.6-1.4-8.5c-0.4-2.2-1-4.4-2.2-6.4C690.8,70.2,691.1,68.3,693,66.7z M589.4,102.5
		c1.2-2.3,3-4,5.4-4.7c6.1-1.9,11.5-5.4,17.8-6.6c4.9-1,8.9-3.4,12.5-6.7c1.8-1.6,3.9-3,5.8-4.4c0.4-0.3,0.9-0.6,1.3-0.8
		c1.3-0.7,2.6-1,3.9-0.1c1.1,0.8,1.4,2.2,0.8,4c-0.3,0.9-0.6,1.8-1.1,3.1c1.9-0.6,3.3-1.2,4.5-2.3c2.1-1.9,4-3.9,5.5-6.3
		c1.9-3.4,4.3-4.3,8-3.2c0.8,0.2,1.2,0.1,1.8-0.4c0.7-0.7,1.5-1.4,2.3-2c4.5-3.4,9.6-4.4,15.1-3.3c3.3,0.7,5.7,2.7,8.1,5
		c6.4,6.3,9.6,14.2,12,22.6c1.6,5.5,2.6,11,2.8,16.8c0.1,2,0.3,4,0.6,5.9c1,6.2-0.3,12.2-2.4,18c-0.8,2.4-1.8,4.7-2.8,7
		c-1.1,2.5-1.1,2.5,1.4,3.5c0.5,0.2,1,0.4,1.4,0.6c1.7,0.7,3.1,1.7,4.4,2.9c3.6,3.4,3.4,7.5-0.7,10.5c-1.8,1.3-3.7,2.6-5.7,4.1
		c0.6,0.8,1.5,0.9,2.1,1.3c0.8,0.5,1.3,1.2,1.1,2.2c-0.2,0.9-0.8,1.4-1.7,1.6c-0.8,0.2-1.6,0.2-2.4,0.2c-5,0-9.9,0.5-14.6,2
		c-1.1,0.4-2.3,0.6-3.5,0.6c-3,0-5.2-1.8-5.8-4.7c-0.4-1.6-0.3-3.2,0-4.8s0.2-1.7-1.3-1.8c-4.6-0.1-8.7-2.1-13-3.5
		c-1.7-0.6-2.9-1.8-3.4-3.5c-0.3-0.9-0.7-1.6-1.2-2.3c-2.4-2.9-3.8-6.3-4.9-9.9c-1.4-5-2.5-10-3.5-15.1c-0.3-1.6-1.1-2.8-2.4-3.8
		c-1.1-0.9-2.3-1.6-3.6-2.2c-2.8-1.3-4.3-3.5-4.7-6.5c-0.3-2-0.4-4.1-0.6-6.2c-0.1-2-0.1-2.1-2-1.8c-8.1,1.1-16.1,0.3-24-1.2
		c-1.6-0.3-3.2-0.5-4.8-0.4c-3.2,0.3-4.1,1.4-4.1,4.5c0,0.5,0.2,1-0.1,1.6c-1-0.7-1.9-1.4-2.8-2.1
		C588.5,107.8,588,105.3,589.4,102.5z M658,254.1c0.9,1.5,1.9,2.3,3.8,2.5c1.4,0.1,2.4,1,2.9,2.4c0.2,0.5,0.3,1,0.7,1.3
		c0.1,0,0.3,0,0.4-0.1c3.1-1.7,5.2-1.3,7.2,1.5c2.6,3.6,4.9,7.3,6.3,11.6c1.4,4.2,3.5,8.1,4.9,12.3c1.9,5.6,2.8,11.4,3.9,17.2
		c0.8,4.3,1.3,8.6,2.2,12.8c0.2,1.1,0.7,1.5,1.8,1.5c2.3,0,4.6,0,6.9,0c0.6,0,1.2,0,1.8,0.1c1,0.2,1.3,0.9,0.8,1.8s-1.3,1.3-2.2,1.7
		c-1.1,0.4-2.2,0.8-3.3,1.8c3,0.8,5.8,1.4,8.5-0.1c0.4-0.2,0.8-0.4,1.2-0.6c0.5-0.2,0.9-0.2,1.2,0.2c0.3,0.4,0.3,0.9,0,1.2
		c-0.7,0.9-1.4,1.7-2.4,2.2c-3.8,2.2-7.6,3-12.1,2.4c-4.8-0.6-9.4-1.8-13.7-3.9c-3-1.4-6.1-2.8-7.9-5.8c-0.4-0.6-0.9-0.7-1.5-0.7
		c-5.2-0.4-10.4-1.3-15.6-0.8c-4.6,0.4-7.8-1.6-10.4-4.9c-1.8-2.3-3.4-4.6-5.1-6.9c-0.5-0.7-0.8-1.5-1.2-2.2
		c0.5-0.7,0.9-0.2,1.3-0.2c1.7,0.1,3.5,0.3,5-0.5c2.5-1.4,5.2-2,7.9-2.6c1-0.2,2-0.6,2.5-1.8c-1-0.7-2.2-0.9-3.3-1.3
		c-1.8-0.6-3.4-1.5-4.1-3.4c-0.4-1.1-1.3-1.8-2.2-2.5c-5.2-4.6-8.4-10.6-11-16.9c-0.6-1.5-1-3.2-1.5-5c3.3-0.5,6.4,1.2,9.5-0.3
		c0-0.9-0.7-1-1.2-1.2c-2.8-1.1-5.7-2.1-8.3-3.6c-1.3-0.7-2.6-1.5-3.6-2.5c-2.7-2.8-6.1-4.6-9.6-6.2c-1.1-0.5-2.2-0.9-3.2-1.4
		c-4.5-2.6-9.5-3.9-14.4-5.4c-3.4-1-7-1-10.4-1.6c-2.2-0.4-4.4-0.5-6.6-0.5c-1.4,0-2.5-0.6-3.2-1.7c-1.7-2.5-3.1-5.2-5.1-7.4
		c0-0.1-0.1-0.1-0.1-0.2c-1.2-3.9-3-7.7-3.1-11.9l0,0l0,0l0,0c-0.1,0-0.1-0.1-0.2-0.1h0.1v0.1l0,0l0,0c0.5,0.1,0.8,0.5,1.1,0.8
		c0.2,0.2,0.3,0.3,0.5,0.5c0.2,0.1,0.4,0.2,0.7,0.3c0.5-0.6,0-1-0.2-1.4c-0.5-1.2-1.3-2.3-1.7-3.6c-1.5-3.9-4.7-4.5-7.9-4
		c-3.9,0.6-7.6,1.9-11.2,3.3c-1.9,0.8-4,1.2-5.9,1.7c-0.3,0.1-0.8,0.2-1.1,0.1c-2-0.9-4-0.6-6-0.4c-0.3,0-0.6,0-0.9-0.1
		c-1.7-0.3-2.2-1-1.7-2.6c0.5-1.7,0.7-3.4,1.5-5c-2.4,0.7-4.5,1.7-6,3.6c-3,3.8-4.2,8.2-4,13c0.2,4.4,1.6,8.4,4.2,11.9
		c1.4,1.9,3.4,3,5.5,4c0.4,0.2,0.8,0.3,1.2,0.5c1.7,0.9,2.3,2.6,1.8,4.5c-0.9,3-2.8,5.3-4.5,7.8c-1.3,1.8-2.5,3.6-3.5,5.6
		c-0.7,1.4-1.2,2.8-1.3,4.4c-0.1,1.5-0.6,2-2.1,2c-0.9,0.1-1.7,0.2-2.6,0.4c-1.6,0.3-3.3-0.7-3.6-2.2c-0.3-1.8-1-3.4-1.4-5.1
		c-0.3-1.4-0.5-2.7-0.1-4.1c0.5-2.2,0.3-2.6-1.8-3.6c-4.2-2.2-6.8-5.6-7.9-10.1c-1-4.2-1.6-8.4-0.8-12.7c0.2-1.2,0.5-2.3,1-3.4
		c0.6-1.3,0.7-2.7,0.8-4.1c0.1-7.5,2-14.4,6-20.7c0.4-0.6,0.7-1.3,1-2c3.1-7.2,7.7-13.2,14.5-17.4c1.8-1.2,3.8-1.9,6-1.8
		c1.4,0,2.4,0.6,2.9,1.9c0.2,0.6,0.4,1,1,1.4c3.5,2.3,4,3.8,3,7.8c-0.1,0.2,0,0.4,0,0.7c1.6,0.4,3.2,0.2,4.8,0.5
		c3.1,0.5,6,1.4,8.9,2.4s5.2,2.7,7.1,5c0.8,1,1.7,1.9,2.7,2.5c2,1.2,3,3.2,4.1,5.1c0.7,1.2,0.9,2.6,0.8,4.1c-0.1,0.9,0,1.6,1.1,2.1
		c1.7,0.8,2.4,2.5,2.8,4.3c0.2,0.9,0.6,1.3,1.5,1.2c4-0.1,7.3,1.8,10.1,4.3c3.7,3.3,7.9,5.6,12.6,7.1c4.6,1.5,9.1,3.2,12.8,6.4
		c2.6,2.2,5.2,4.4,6.6,7.6c0.7,1.5,2.1,2.5,3.1,3.7c0.4,0.4,0.8,0.4,1.4,0.3c3.6-0.6,6.7-2.3,9.5-4.4c2.1-1.5,4.2-3,6.5-4.2
		c3.3-1.8,6.9-2,10.5-1.7c0.7,0.1,1.4,0.3,2.1,0.6c2.6,1.2,3.4,3.4,2.3,6c-0.4,1-1,2-1.8,2.7C657.5,252.8,657.6,253.3,658,254.1z
		 M670.6,395.2c-1.4,2-3.1,3.6-5.6,3.9c-1,0.1-1.3,0.5-1.1,1.4c0.5,2.2,0.2,4.4-0.4,6.6c-1.6,6.1-1.3,12.2,0.9,18.1
		c1.6,4.2-0.6,7.5-5.6,6.6c-3.6-0.7-6.6-2.4-9.6-4.3c-1.4-0.9-2.2-2.4-2.7-4c-0.9-2.9-1.5-5.8-1.5-9.3c0-2.6,0.5-5.4,1.2-8.2
		c1-3.6,0.9-7.1,0.2-10.7c-0.2-0.9-0.6-1.5-1.1-2.1c-2.5-2.7-4.1-5.9-5.6-9.2c-0.8-1.8-1.2-3.6-1.2-5.6c-0.1-2.6,0.3-5.2,0.7-7.7
		c1-6.2-0.3-11.9-4-17c-2-2.8-4.3-5.5-6.8-7.8c-1-1-2-2-3-3c-1.6-1.6-3.2-3.1-5.3-4.2c-3.9-2-6.2-7.3-5.3-11.7
		c0.3-1.3,0.1-2.4-0.5-3.6c-1.7-3.4,0.4-6.8,4.2-7.2c2.2-0.2,4.3,0.3,6.2,1.3c4.1,2.3,8.6,3.6,13,5c1.2,0.4,2.4,0.9,3.5,1.4
		c3.1,1.6,4.7,4.2,4.6,7.7c0,1.6-0.3,3.1-0.7,4.6c-0.5,1.6-0.3,2.9,0.8,4.3c2.1,2.6,3.7,5.7,5.3,8.7c1.7,3.2,2.6,6.7,2.5,10.4
		c0,0.1,0,0.3,0,0.4c1.1,4.1,0.9,8.4,1.9,12.4c1.1,4.3,4.2,7.4,7.7,9.9c2.1,1.5,4.3,2.9,6.3,4.5
		C672.5,389.4,672.8,391.9,670.6,395.2z M674.1,412.8c1.4-2,3.6-2.7,6-2.4c4.9,0.7,8.1,3.5,10.1,7.9c1.1,2.6,2.2,5.1,2.6,7.9
		c1,7.4-5.1,11.4-10.6,9.6c-2.4-0.8-4.1-2.4-5.5-4.2c-1.8-2.3-3.3-4.9-4.2-7.7c-0.5-1.3-0.8-2.7-0.7-3.9
		C671.6,417.1,672.6,414.8,674.1,412.8z M609.3,281.8c0,1.5,0,3,0.1,4.4c0.5,5.4-1.5,10-4.9,14c-0.9,1-1.2,1.8-0.4,3
		c0.9,1.5,1.5,3.2,2.1,5.3c-1.5-0.6-2.5-1.1-3.6-1.5c-6.3-2.2-12.6-4.1-19.2-5.1c-2.2-0.4-4.4-0.3-6.6-0.1c-1.8,0.2-3.7,0.3-5.5,0.5
		c-1.6,0.1-3.1,0-4.5-0.9c-1.1-0.7-2.3-0.9-3.6-0.7c-2.5,0.5-5-0.4-7.4-0.6s-3.6-2.5-3.1-5.4c0.3-1.6-0.1-2.8-0.9-4.1
		c-3.8-5.9-4.1-12.3-2.5-18.9c0.7-2.9,1.8-5.6,3.5-8.1c0.3-0.5,0.7-1,0.8-1.6c0.4-2.2,1.1-4.3,2-6.3c0.3-0.7,0.3-1.1-0.4-1.7
		c-5.9-4.1-6.7-11.5-1.8-16.7c0.9-1,1.9-1.9,2.8-2.8c0.3-0.3,0.6-0.4,1-0.5c3.5-0.4,6.4,1.8,6.9,5.4c0.1,0.4,0.1,0.9,0.1,1.3
		c0,3.3,1,6.2,2.4,9.1c0.5,1,1.2,1.8,2.3,2.3c4.9,2.5,9.9,4.5,15.3,5.7c2.7,0.6,5.5,1.2,8.2,1.8c4.3,0.9,8,3,11.1,6.1
		c1.8,1.8,3.6,3.7,5.1,5.8c2.9,4.1,5.8,8.2,8,12.7c0.8,1.6,1.5,3.2,1.7,5c0.1,0.6,0.2,1.3-0.5,1.5c-0.8,0.3-1.2-0.3-1.5-0.9
		c-1.7-3.5-4-6.5-6.4-9.5C609,280.7,609.3,281.3,609.3,281.8z M606.1,387.3c-0.3,1.1-0.7,2.3-1.4,3.2c-1.6,2.1-4.3,2-5.8-0.1
		c-0.6-0.9-1-2-1.1-3.1c-0.9-7.1-4.9-12.2-10.7-16c-2.3-1.5-3.4-3.4-3.6-6.2c-0.5-5-1-10-2.8-14.7c-0.5-1.3-1.1-2.2-2.6-2.7
		c-2.5-0.7-4.3-2.6-5.5-4.8c-2.3-4.1-4.5-8.3-6.8-12.4c-0.8-1.5-1.4-3.1-1.8-4.7c-0.2-0.7-0.2-1.5-0.3-2.2c0-0.8,0.3-1.4,1.1-1.8
		s1.6-0.2,2.2,0.5c0.5,0.6,1,1.3,1.4,2c2.1,3.2,4.5,6.2,7.1,9c2.1,2.3,4.6,3.5,7.8,3.7c5,0.4,8.9,2.9,11.9,6.9
		c1.5,1.9,2.2,4.2,2.4,6.6c0.1,0.9,0.2,1.7,1.1,2.2c6.5,3.9,8.2,10.4,9.3,17.3c0.2,1.4,0,2.8,0,4.2
		C608.1,378.5,607.4,383,606.1,387.3z M596.8,425.1c0.8,1.3,0.6,2.7,0.3,4.1c-0.7,2.9-1.3,5.7-3.2,8.2c-1.6,2.1-3.4,4.1-5.9,5.2
		c-1.7,0.7-3.1,2-5.1,1.8c-0.3,0-0.6,0.1-0.8,0.3c-2,1.8-4.6,2.9-6.6,4.8c-3.1,3.1-7.1,4.5-10.8,6.3c-1.3,0.7-2.8,0.9-4.2,1.2
		c-0.9,0.2-1.9,0-2.9,0c-2.7,0.1-5.3-0.3-7.8-1.2c-3.7-1.3-4.3-4.5-4.2-7.7c0-1.3,0.9-2.3,1.9-3.1c2.5-2,6.5-2.4,9.1-0.6
		c1.9,1.3,3.7,1.3,5.7,1c2.1-0.3,4.1-0.4,6.1,0c1,0.2,2.1,0.2,3.1,0.1c2.2-0.3,4.3-0.8,6.5-1.2c1.8-0.4,1.9-1,0.7-2.3
		c-0.5-0.6-1-1.1-1.2-1.8c-0.5-1.4,0-2.7,1.4-3.2c1.5-0.5,2.1-1.4,2-3c-0.1-1.5,0.1-2.9,1-4.2c0.5-0.7,0.4-1.2-0.5-1.5
		c-0.7-0.2-1.3-0.6-2-0.9c-2-0.9-3.2-2.6-3.2-4.7c-0.1-2,1.3-3.4,2.9-4.5c0.3-0.2,0.6-0.4,1-0.5c0.9-0.4,1.3-0.9,1.4-2
		c0.2-3.1,1.6-5.9,2.9-8.8c0.5-1.2,1.5-1.8,2.7-2.1c2.3-0.7,4.7-1.3,7-2.1c1.4-0.5,2.9-0.5,4.3-0.6c4.4-0.3,8.8,4.7,5.6,9.8
		c-0.6,1-1,2.1-1.3,3.2c-0.9,3.3-2.2,6.3-5.3,8.1C596.4,423.8,596.3,424.3,596.8,425.1z M561.9,351.1c1-0.1,1.6,0.3,2,0.8
		c1.5,1.6,3.4,2.8,5.1,4.2c3,2.5,4.7,5.8,5.6,9.5c1.2,4.8,2.2,9.6,3.4,14.4c0.3,1.4,0.3,2.8,0.2,4.2c0,1,0.3,1.8,1.2,2.4
		c1.4,1,2.9,2,3.8,3.7c0.4,0.7,0.8,1.4,1.1,2.2c0.3,0.9,0.2,1.8-0.6,2.4s-1.7,0.6-2.5,0c-1.4-1-3-1.5-4.6-2c-0.8-0.3-1.6-0.4-2.4,0
		c-2.1,1.1-4.2,0.4-6.2,0c-0.4-0.1-0.9-0.2-1.3-0.4c-2.4-0.9-4.8-1.2-7.3-1.2c-2.6,0.1-5.1-0.6-7.2-2.3c-1.2-0.9-1.1-1.2,0.1-2.1
		c3.3-2.9,5.4-6.7,7-10.8c1.5-4.2,2.2-8.5,2.7-12.9c0.3-2.9,0.4-5.9,0.4-8.8C562.3,353.1,562.4,352,561.9,351.1z M538.5,300.6
		c-0.6,1.5-2,1.8-2.9,0.5c-1.9-2.8-4.7-4-7.6-5.1c-0.6-0.2-1.1-0.3-1.7-0.1c-0.6,0.2-1.1,0.2-1.7,0.3c-1-0.2-1.9-0.3-2.8-0.6
		c-2-0.6-4.1-0.7-6.1-0.4c-1.2,0.2-2.5,0.3-3.7,0.3c-2.4,0.1-4.7-0.2-6.7-1.8c-0.4-0.3-0.8-0.6-1.4-0.5c-1.8,0.3-3.6,0.3-5.4,1.1
		c-3,1.5-6.2,1.8-9.5,1.3c-1.1-0.2-1.9,0-2.8,0.7c-4.7,3.5-10.1,4.8-15.9,4.4c-3.8-0.3-7.3-3.8-7.6-7.5c0-0.5,0-1,0.5-1.4
		c0.6-0.4,1.2-0.3,1.6,0.2c1,1.3,1.8,0.7,2.8,0c2.9-2.2,5.5-4.7,8.8-6.2c0.7-0.3,0.9-0.9,0.9-1.6c0-1,0-2.1,0-3.1
		c0.1-2.6,1.3-4.4,3.7-5.3c3.5-1.3,3.9-2.4,7.3,1.3c0.7,0.7,1.4,1.3,2.1,1.9c3.2,2.9,7,3.6,11.1,3.1c2.4-0.3,4.4-1.6,6.4-2.9
		c2.1-1.4,4.2-2.6,5.9-4.6s3.9-1.6,5.3,0.7c0.6,1.1,0.8,2.4,1.2,3.6c0.5,1.7,1.5,2.8,3.3,3.2c4.8,0.9,8.1,3.8,10.7,7.7
		c1.6,2.4,2.8,5,3.9,7.7C538.6,298.4,538.9,299.5,538.5,300.6z M623.4,211.6c1-0.1,2-0.3,3.1-0.3c4.7-0.3,7.6,2.5,7.5,7.1
		c0,1.4,0,1.5,1.5,1.3c1.2-0.1,1.9,0,2.4,1.3c0.4,1.2,1.5,1.8,2.5,2.3c1.9,1,3.8,2,5.4,3.5c0.5,0.5,1.2,0.9,1.4,1.8
		c-2.1,0.3-4,0.5-6,0.8c-4,0.6-7.8,1.7-11.2,4c-0.9,0.6-1.9,0.8-2.9,0.7c-2.1-0.2-4.3-0.5-6.2-1.5c-3.2-1.7-5.2-4.1-4.9-7.9
		c0.1-1.1-0.3-1.4-1.3-1.5c-1.2-0.1-2.5-0.2-3.7-0.2c-1.4,0-2.8-0.1-4.1-0.7c-2.7-1.2-4.3-3.9-3.6-6.7c0.5-1.9,0.6-3.7,0.4-5.7
		c-0.1-0.8,0-1.6,0-2.8c-3.2,0.5-6,1.4-8.2,3.6c-0.6,0.6-1.2,1.3-1.8,2c-0.7,0.7-1.4,1.1-2.4,0.5c-0.9-0.6-0.9-1.5-0.4-2.4
		c1.4-2.5,2.9-4.8,5.3-6.4c0.9-0.6,1.7-1.1,2.7-1.5c5-2.2,10.2-3.8,15.8-3.6c0.8,0,1.6-0.1,2.4-0.1c1.3-0.1,2.7,0,3.9,0.4
		c3.4,1,4.7,3.9,3.2,7.1c-0.6,1.2-1.3,2.3-1.9,3.5C621.8,211.4,622,211.7,623.4,211.6z M612.3,177.8c-0.3,0.7-1.1,0.7-1.7,0.6
		c-1.1-0.1-2.2-0.2-3.3-0.3c-4.5-0.3-9,0.6-13.4,1.4c-5.3,1-10.5,2.5-15.5,4.4c-3.9,1.5-7.9,2.3-11.8,3.6c-0.1,0-0.3,0.1-0.4,0.1
		c-1.8,0.3-3.4,0.3-4.6-1.3c-1-1.3-1-3.3,0.4-4.9c4.4-5.4,9.3-10.2,16.7-11.1c6.3-0.8,12.6-1.2,19-0.3c3.3,0.5,6.5,1.4,9.6,2.7
		c1.8,0.7,3.4,1.8,4.7,3.3C612.2,176.5,612.6,177.1,612.3,177.8z M527.2,121.7c0.2-0.6,0.6-1.2,0.6-1.9c0.1-2.9,1.6-5.2,3.9-6.9
		c1-0.8,1.8-1.6,2.4-2.8c1-1.9,1.2-2,2.8-2.8c0.4,2.1,0.7,4.2,1.2,6.2c1.5,6.3,4.8,11.5,9.8,15.6c0.9,0.7,1.2,1.4,1.1,2.4
		c-0.1,0.6,0.1,1.2-0.1,1.8c-0.7,2.7-0.3,5.2,0.6,7.8c0.4,1.1-0.3,2.3-0.1,3.5c0.1,0.7-0.4,1.7,0.6,1.9c0.9,0.2,1.1-0.8,1.4-1.4
		c0.4-0.8,0.8-1.6,1.7-1.9c0.8-0.3,1.2-0.9,1.4-1.6c1.2-3.8,3.7-6.5,7-8.8c2.6-1.9,4.7-4.4,6.9-6.8c1.4-1.5,3-2.2,4.9-2.3
		c3.3-0.2,6.6-0.2,9.9-0.4c5-0.3,10,0.7,14.9,1.5c6.5,1,11.9,4.2,17.1,7.8c2.9,2,5.7,3.9,8.2,6.4c3.8,3.8,4.8,8.3,4.1,13.4
		c-0.1,1-0.1,1.3,0.9,1.5c2.9,0.4,5.8,0.8,8.5,2c2.5,1.2,4.2,2.9,5,5.5c0.3,1.1,0.7,2.3,0.7,3.4c0.2,4,0.8,7.9,0.5,11.9
		c-0.4,5.1-0.7,10.1-0.9,15.2c-0.1,2.2-0.2,4.5-0.5,6.9c-1.5-0.2-2.4-1.1-3.4-1.7c-4.1-2.2-8.1-4.8-12.6-6.4
		c-2.4-0.9-3.3-2.6-3.3-4.9c0-4,0.3-7.9,3.2-11.2c1.1-1.3,1-1.5,0-2.8c-0.8-1-1.5-2-1.9-3.2c-0.1-0.3-0.3-0.7-0.5-0.9
		c-1.7-1.2-3.3-2.4-4.8-3.9c-0.5-0.5-1.3-0.2-1.9,0c-1.3,0.5-2.6,0.7-3.9,0.6c-3.6-0.5-5.9-3.9-5.1-7.7c0.5-2.4,1.6-4.6,3.2-6.5
		c0.7-0.8,0.6-1.2-0.2-1.8c-0.5-0.3-0.9-0.7-1.4-1.1c-1.5-1.3-1.7-1.3-3.4-0.3c-1.6,0.9-3.4,1.4-5.3,1.4c-1.9,0-3.8,0.1-5.8,0
		c-3.9-0.2-7.4,1.1-10.6,3.2c-1.6,1-3.2,2.1-4.8,3.2c-2.2,1.5-4.7,2.4-7.2,3.3c-3.9,1.5-7.3,3.9-10.6,6.4c-3.6,2.7-7.1,5.5-11.4,7.1
		c-5.5,2-10.4,0.7-13.6-4.1c-2.6-3.8-4.2-8.1-4.9-12.7c-0.2-1.2-0.3-2.5-0.5-3.7c-0.2-2-0.8-3.9-2.1-5.5c-2.3-2.8-3.1-6.1-3.5-9.6
		c-0.2-1.5-0.5-2.9-0.5-4.4C525.2,128.1,525.9,124.8,527.2,121.7z M480,118.4c0.8-0.9,1.2-1.1,2.9-1.1c0.8,0,1.8,0.5,2.9,1.1
		c1.8,1.1,3.4,2.6,5,4c3.8,3.3,6.3,1.6,8.9-1c0.8-0.8,1.4-1.7,2.5-2c0.3-0.1,0.6-0.4,0.8-0.7c1.4-2,3.3-3.6,4.9-5.4
		c1.4-1.5,3.1-2.5,4.9-3.4c1.5-0.8,3-0.8,4.5-0.5c2.8,0.5,3.9,4.1,2.2,6.5c-3.4,4.7-5.7,9.8-6.5,15.5c-0.1,1-0.3,2-0.5,3
		c-0.4,2-1.3,3.7-3,4.7c-3.3,1.8-5.2,4.7-7,7.7c-0.8,1.4-1.9,2.6-3.6,3c-0.3,0.1-0.6,0.2-0.9,0.1c-1.2-0.4-2.1-0.3-2.5,1.2
		c-0.2,0.6-0.9,0.7-1.5,0.6c-0.8-0.2-0.9-0.8-1-1.5c-0.1-2.4-0.4-4.7-0.9-7c-0.6-3.4-1.9-6.7-3.1-9.9c-0.8-2.2-2.4-3.9-4-5.5
		c-1.4-1.6-2.9-3.1-4.6-4.5C478.9,122,478.7,120,480,118.4z M456.6,171.7c0.8-0.7,1.4-1.5,1.7-2.5c0.3-1.2,1.1-2.3,1.8-3.3
		c1.4-2.2,2.9-4.3,4.2-6.5c2.2-3.7,3.5-7.6,4.2-11.8c0.4-2.4,1.1-4.7,2.2-6.9c0.8-1.5,1.8-2.9,3.2-3.9c2.8-2,6-1,7,2.3
		c0.1,0.4,0.3,0.9,0.3,1.3c0.5,6.8,0.6,13.5-2.6,19.7c-1.3,2.6-2,5.4-2.4,8.2c-0.2,1.2-0.1,2.4,0.4,3.5c0.4,0.8,0.7,1.7,1.2,2.4
		c3.1,4.7,7.3,8.2,12.3,10.9c0.1,0.1,0.3,0.1,0.4,0.1s0.3,0,0.5-0.1c-0.2-1.3-0.3-2.6-0.5-3.9c-0.2-1.8-0.1-3.5,0.1-5.3
		c0.2-1,0.5-2,1-2.9c1.9-3.2,5.9-3.6,8.4-0.9c1.1,1.2,1.7,2.8,2.2,4.3c0.6,1.8,1,3.7,1.9,5.4c0.3,0.6,0.5,1.5,1.5,1.2
		c0.9-0.3,0.9-1,1-1.8c0.1-1.6,0.1-3.1-0.3-4.6c-1-4.1-1-8.3-1-12.6c0-2.2,0.5-4.3,1.8-6c2.7-3.7,7.4-4,10.6-0.7
		c1,1,1.7,2.2,2.3,3.5c1.6,3.6,2.9,7.3,3.8,11.1c0.4,1.6,1.4,2.5,2.3,3.7c0.4,0.5,0.9,0.4,1.4,0.3c0.9-0.2,1.9-0.3,2.9-0.2
		c1.1,0.1,2,0.5,2.7,1.3c0.9,1.1,0.8,2.6-0.5,3.2c-1,0.5-1.3,1.2-1.7,2.1c-0.9,2.2-2.7,3.5-4.8,4.3c-1.2,0.5-2.2,0.9-2.5,2.4
		c-0.3,1.2-1.4,1.9-2.6,2.2c-0.7,0.2-1.4,0.3-2.2,0.5c-1.3,0.3-2.3,0.8-2.7,2.3c-0.5,1.8-1.8,3-3.1,4.3c-2.7,2.7-5.3,5.5-7.9,8.4
		c-2,2.2-3,4.8-3.5,7.7c-0.8,4.7-1.1,9.4-1.6,14.1c-0.3,2.8-0.1,5.5,0.6,8.1c1.5,5.8,2.3,11.7,3.2,17.6c0.5,3.2,0,6.2-1.8,8.9
		c-1.1,1.7-1.9,3.5-2.8,5.3c-0.4,0.9-0.8,1.7-1.6,2.4c-1.6,1.4-3.5,0.9-4.2-1.1c-0.2-0.7-0.3-1.5-0.2-2.2c0.1-1.3,0.2-2.5,0.3-3.8
		c0.2-2-0.1-3.8-1.4-5.6c-2.1-2.7-2.2-5.9-1-9.1c0.7-2,1.6-4,2.4-5.9c1.7-4,2.2-8.1,1.3-12.3c-0.2-0.9-0.2-1.9-1-2.6
		c-0.6-0.6-0.6-1.5-0.7-2.3c-0.2-1.8-0.4-3.5-0.8-5.2c-0.8-2.9-2.2-5.3-4.9-6.9c-1.2-0.7-2.3-1.6-3.4-2.4c-3.1-2.3-5.3-5.3-6.3-9.1
		c-0.6-2.2-1.5-4.2-2.6-6.1c-1.5-2.5-2.4-5.2-2.8-8.1c-0.3-2.6-2.2-4-4.4-5.1c-0.6-0.3-1.3,0.1-2,0.2c-2.4,0.4-4.7,0.4-7-0.3
		C453.7,181.2,452.5,175.5,456.6,171.7z M446.5,200.5c-0.8-1.3-1.7-2.5-1.6-4.2c0-2.4,1.4-3.7,3.8-4s4.3,0.9,5.9,2.4
		c4.2,3.9,7.5,8.5,9.3,14c1.3,3.7,2.4,7.4,3,11.3c0.1,0.9,0.2,1.9,0.2,2.9c0,1.1,0.4,1.6,1.5,1.7c1.1,0.1,2.1,0.5,3.2,0.8
		c3.8,1,6.1,3.5,7.2,7.1c1,3.1,1.7,6.3,1.3,9.1c0.2,5.2-1,9.6-2.1,14.1c-1.2,4.8-4.6,7-9.1,7.9c-0.4,0.1-0.9,0.2-1.3,0.3
		c-1.7,0.1-3.2,0.5-3.7,2.4c-2.4,1.8-4.3,4.3-6.9,5.8c-0.4,0.2-0.9,0.6-1.4,0.2c-0.4-0.4-0.1-0.8,0-1.2c1.3-5.5,1.7-11,1.5-16.7
		c-0.4-8.6-3-16.5-8.2-23.4c-1.5-2-3.6-3.5-5.8-4.6c-1.2-0.6-1.6-1.5-1.4-2.7c0.4-2.5,1.1-5,3.7-5.9c3-1.1,3.7-3.3,3.8-6
		C449.3,207.7,448.7,203.9,446.5,200.5z M431.3,355.9c0.7,4.9,2.1,9.6,4.2,14.1c0.8,1.8,1.7,3.6,2.5,5.4c0.5,1.2,0.4,1.5-0.9,1.5
		c-1.5,0-2.9,0.3-4.4,0.7c-2,0.5-3.8,0.3-5.6-0.5c-0.6-0.2-1.1-0.8-2.1-0.2c1.4,2.9,4,4.8,6.3,6.9c2.4,2.1,5.4,3.1,8.8,3.7
		c-0.7,1.5-2,2.4-2.9,3.5c-3.7,4.3-8.2,7.7-13.9,8.8c-2.3,0.5-4.6,0.8-7,1.1c-3.1,0.4-5.9-0.9-9-2c0.5-1.7,0.9-3.3,1.4-4.8
		c0.2-0.7,0.2-1.5,0.3-2.2c0.3-2.3-0.9-3.6-2.6-4.7c-1.3-0.8-2.7-1.3-3.9-2c-0.9-0.5-1.7,0.1-2.8,0c0.6-2.1,1-4.1,1.6-6
		c2.6-8.1,5.5-16,9.5-23.5c3-5.6,6.1-11.2,11.2-15.2c3.8-3,6-7,8.4-10.9c3.3-5.2,8-8.4,13.5-10.7c3-1.3,6.4,1,6.8,4.3
		c0.3,2.6-0.4,4.8-2.2,6.7c-2.8,2.9-5.5,5.8-8.2,8.7c-2.6,2.8-4.4,6.3-6.3,9.6c-0.5,0.8-0.8,1.6-1.4,2.3
		C431.1,351.9,431,353.9,431.3,355.9z M382.6,397.5c0.3,0.4,0.5,0.8,0.7,1.1c2.1,2.6,3.2,5.5,2.8,8.8l0,0c-0.1,1.2-0.8,2.2-1.9,2.5
		c-0.2,0-0.4,0.1-0.6,0.1c-1.2,0.3-2.2-0.3-2.9-1.2c-1.1-1.5-2.7-2.8-3.6-4.4c-0.5-0.9-1.2-1.6-2-2.1c-1.5-1-2.4-2.3-2.6-4.2
		c-0.1-0.4-0.1-0.9-0.3-1.3c-3.2-7.3-2.6-14.7-0.5-22.1c1.4-4.9,3.5-9.4,6.6-13.5c2.5-3.4,4-7.2,4.3-11.4c0.2-2.1,0.5-4.2,1.3-6.3
		c1.1-2.7,2.9-4.7,5.5-6.1c3.3-1.7,6.7-3.1,10.2-4.3c1.9-0.6,3.7-1.4,5.1-2.9c0.3-0.3,0.5-0.6,0.9-0.7c1.4-0.4,1.8-1.3,1.9-2.8
		s1.2-2.5,2.6-3.1c1.8-0.9,3.8-1.3,5.7-1.5c1.6-0.1,2.9,0.4,3.8,1.8c0.8,1.4,0.7,2.8-0.2,4.2c-0.6,1-1.4,1.7-2.3,2.3
		c-0.7,0.5-1.3,1-2,1.3c-2.2,1.1-3.8,2.7-4,5.3c-0.1,0.8-0.6,1.3-1.2,1.8c-2.4,2-4.3,4.4-5.9,7.1c-5.8,9.5-10.9,19.3-15.8,29.2
		c-2.3,4.7-3.6,9.8-4.5,15c-0.2,1.4-0.7,2.8-1.2,4.1C381.8,395.5,381.9,396.5,382.6,397.5z M366.5,325.6c0.6,0.3,0.4,1.1,0.1,1.6
		c-0.4,0.6-0.8,1.1-1.2,1.6c-4.9,6.1-7.3,13-6.8,20.9c0.1,2,0.1,4,0.2,6c0.1,2.7-1.1,4.8-2.8,6.8c-0.9,1.1-2,1.9-3.1,2.8
		c2,2.2,2.1,3.2-0.1,4.9c-2.1,1.6-3.6,3.6-5,5.8c-0.7,1.1-1.4,2.3-2.3,3.2c-3.6,3.9-8.9,3.6-11.9-0.8c-1.9-2.6-2.5-5.6-2.1-8.8
		c0.4-3.4,1.6-6.6,3.3-9.6c2.2-3.8,3.5-7.9,4.8-12.1c0.4-1.3,0.2-2.2-0.9-3.1c-1-0.8-1.8-1.7-2.5-2.8c-1.4-2.6-1-5.5,1.4-7.1
		c3.5-2.3,7.2-4.4,11.7-4.1c1.2,0.1,1.9-0.3,2.5-1.3c1.7-2.5,3.5-5,5.5-7.2c2.1-2.2,4.3-4.2,7.2-5.4c0.7-0.3,1.5-0.6,2.3-0.7
		c1.5-0.3,2.6,0.3,3.2,1.4c0.5,1.1,0.2,2.2-0.8,3.2c-0.9,0.8-1.8,1.5-2.6,2.4C365.8,324,364.8,324.8,366.5,325.6z M316.7,321.3
		c2.2-4.7,4.5-9.3,7.6-13.4c1.1-1.5,2.5-2.8,3.9-3.9c3.2-2.4,6.5-4.9,9.8-7.2c2.4-1.7,4.3-3.8,6-6.1c3.5-4.5,5.5-9.5,6.2-15.1
		c0.4-2.9,0.2-5.7,0.7-8.6c0.6-3,1.2-5.9,2.5-8.7c0.6-1.3,1.2-2.7,1.5-4.1c1-4.4,3.3-8.2,5.7-11.9c0.6-0.9,1.4-1.7,2.5-2.1
		c0.7-0.2,1.2,0,1.2,0.8s0,1.6,0,2.4c0,4.8,1.7,8.9,4.6,12.6c1.8,2.2,4,3.9,6,5.8c1,0.9,1,0.9-0.1,1.7c-3.1,2.2-6.1,4.6-8.8,7.3
		c-1.5,1.6-3,3.2-4.5,4.9c-0.3,0.4-0.9,0.8-0.7,1.3c0.5,1.4-0.3,2.6-0.8,3.8c-1.3,3.3-2,6.6-1.9,10.1c0.1,5.6-0.2,11.2-1.8,16.6
		c-0.1,0.2-0.1,0.4-0.1,0.7c-1.2,4-1.7,4.5-5.9,4.8c-10,0.9-19,4.4-26.9,10.6c-1.4,1.1-2.8,2.3-4.1,3.6c-1.3,1.3-1.7,1.1-2.6-0.5
		c-0.5-0.9-0.7-1.8-0.6-2.7C315.9,323.1,316.3,322.2,316.7,321.3z M431.5,238.2c-0.3-2,0.5-3.5,2.2-4.4s3.9-0.7,5.4,0.6
		c0.4,0.4,0.9,0.8,1.1,1.3c2.9,5.4,3.9,10.8,0.1,16.3c-0.8,1.1-1.5,2.2-2.4,3.2c-0.6,0.7-0.7,1.4-0.4,2.2c0.6,1.4,1,2.8,1.2,4.2
		c0.1,0.9,0.7,1.6,1.2,2.4c3.5,5.9,4.9,12.3,3.7,19.1c-0.4,2.7-1.5,5.1-3,7.3c-0.6,1-0.9,2.3-1.6,3c-0.7,0.8-2.1,0.9-3.2,1.5
		c-2.1,1.1-4.2,2.2-6.3,3.1c-3.1,1.3-6.2,2.4-9.5,2.8c-2.3,0.3-4.5,0.8-6.7,1.4c-3.2,0.9-6.4,1.6-9.7,2c-3.4,0.4-6.4,1.8-9.2,3.6
		c-1.8,1.2-3.8,2-5.5,3.5c-0.2-2.3-0.4-4.4-1-6.5c-0.3-0.9,0.1-1.6,0.6-2.3c0.5-0.7,0.5-1.3-0.1-1.9c-2.9-3-4.1-6.8-5.1-10.6
		c-0.6-2.5-0.2-5.1-0.2-7.7c0-0.7,0.1-1.3,0.1-2c-0.8,0-1.1,0.6-1.4,1c-2.1,2.5-4,5.1-5.4,8.1c-0.2,0.3-0.3,0.7-0.6,0.9
		c-0.2,0.3-0.6,0.4-1,0.3s-0.6-0.4-0.6-0.8c0-0.5,0.1-1,0.2-1.5c0.3-1.3,0.7-2.6,1.3-3.7c3.5-6.8,7.6-13.1,12.9-18.7
		c3.3-3.4,7.2-5.6,11.8-6.6c5.5-1.2,11-2.1,16.2-4.3c2.4-1,4.8-2,7-3.2c1.7-0.9,3.2-2.1,4.5-3.5c1.2-1.4,2.3-2.8,2.3-4.9
		c0-1.2,0.4-2.3,0.8-3.4C431.6,239.5,431.7,238.9,431.5,238.2z M428.7,205.9c-0.1,0.7-0.2,1.3-0.4,1.9c-0.3,0.8-0.8,1.4-1.7,1.5
		c-0.9,0.1-1.5-0.4-2-1.2c-0.4-0.7-0.6-1.5-1.5-2c-0.3,0.7-0.1,1.3-0.1,1.9c-0.1,3.9-3.2,6.3-7,5.2c-0.8-0.2-1.5-0.6-2.2-1
		c-0.5-0.3-1.1-0.6-1.6-0.1c-0.1,0.1-0.3,0.2-0.4,0.2c-2.8-0.1-4.9,1.8-7.5,2.3c-0.9,0.2-1.6,0.7-2.1,1.5c-1.8,2.3-3.3,4.7-4.5,7.3
		c-0.9,2-2,3.8-3.7,5.2c-2.5,2.1-5.5,3.1-8.7,3.4c-2.3,0.2-4.3,0.9-5.9,2.7c-0.9,1-1.4,2.2-1.8,3.5c-0.2,0.8-0.5,1.7-0.8,2.5
		c-0.2,0.5-0.6,0.8-1.2,0.8s-0.9-0.4-1.1-0.9c-0.3-0.7-0.4-1.4-0.4-2.2c-0.1-2.3-0.1-4.6-0.1-6.9c0-3.5,1.4-6.5,3.6-9.1
		c1.2-1.4,2-3,2.4-4.9c0.6-3.3,2.6-5.7,5.2-7.7c1.6-1.2,3-2.6,4.2-4.2c1.8-2.4,4.2-3.8,7.2-3.6c1,0.1,1.4-0.3,1.7-1.2
		c1.2-3.5,3.9-5.1,7.4-5.3c2.4-0.2,4.7,0.3,7,0.9c1,0.3,1.7,0.2,2.6-0.5c4.5-3.5,9.7-2.1,12,3.1C428.2,201.4,429,203.6,428.7,205.9z
		 M316.8,382c1.5,3.3,3.7,6,6.3,8.5c3.6,3.3,7.8,5.2,12.5,6c2.6,0.4,5.2,0.6,7.9,0.1c1-0.2,2.2,0,3.8,0c-8.6,10.2-14.1,21.3-15,34.4
		c-1.1-0.2-1.4-0.9-1.8-1.6c-1.6-2.6-2.2-5.4-2.8-8.3c-0.5-2.6-0.8-5.2-1-7.9c-0.1-2.5-1.5-4.6-3-6.5c-0.8-1-1.8-1.9-2.9-2.7
		c-1.5-1.1-2.6-2.6-3.7-4.1c-0.4-0.5-0.6-1.2-0.6-1.9c0.1-4-1.1-7.8-1.5-11.8c-0.2-1.9,0.3-3.6,0.4-5.4
		C316.3,380.7,316.5,381.4,316.8,382z M393.2,431.3c0.7-4.7,2.1-9.2,5.3-12.9c1.7-2,3.6-3.5,6.4-3.3c1.3,0.1,1.6-0.8,2-1.6
		c0.8-1.5,1.7-1.9,3.2-1.5c0.8,0.2,1.2,0.7,1,1.4c-1,3.9,0.2,7.4,1.6,11c0.8,2,2.8,2.8,4.6,3.5c1.7,0.6,3.5,1,5.3,1.3
		c1,0.2,1.8,0.6,2.6,1.1c1.8,1.2,2.1,3.8,0.6,5.4c-2.1,2.3-4.9,2.9-7.8,3.2c-0.7,0.1-1.5,0-2.7,0c-1.4-0.3-3.2,0.3-4.9,0.9
		c-3.1,1.1-6.2,1.9-9.5,2c-2.8,0.1-5.2-1-6.7-3.6C393.1,436.2,392.8,433.7,393.2,431.3z M389.8,139.2c2.5-1.5,5.3-2.2,8.2-2.2
		c4,0,7.9-0.4,11.9-0.6c4.5-0.3,8.8-1.4,12.5-4.5c2-1.7,4.5-2.6,7-3c2.8-0.4,5-1.9,6.7-3.8c1.9-2.2,4.6-2.6,6.9-3.6
		c0.3-0.1,0.6,0,0.9,0.4c-1.2,2-2,4.2-2.7,6.4c-1,3.2-1.6,6.6-1.6,10c0,2.8,0,5.6,0,8.4c0,1.3,0.3,2.5,0.4,3.7
		c0.1,1.1-0.2,1.9-1.4,2.1c-0.7,0.2-1.4,0.5-2.1,0.5c-1.6,0-2.6,0.8-3.1,2.3s-1.2,2.8-2.4,3.9c-1.4,1.2-1.9,1.3-3.1-0.1
		c-3.6-3.8-7.4-7.2-11.7-10c-4.4-2.8-9.2-4.5-14.4-5.1c-2.1-0.2-4.2-0.5-6.3,0c-1,0.2-1.9,0-2.7-0.6c-1-0.7-2-1.4-3-2.2
		C388.5,140.2,388.6,139.9,389.8,139.2z M378.1,186.8c1.8-1.1,2.7-2.7,3.2-4.6c0.4-1.4,0.4-2.8,0.4-4.2c0-1.2,0-2.4,0-3.5
		c0.2-3.4,1.9-5.4,5.2-6.2c1.9-0.5,3.8-0.4,5.7,0.1c1.6,0.5,3.2,1.1,4.8,1.8c3.2,1.4,6.5,2.4,10,2.7c5.3,0.6,9.9,2.7,14.1,6
		c1,0.8,2,1.5,3,2.3c0.3,0.2,0.6,0.5,0.3,0.9c-0.2,0.3-0.5,0.3-0.8,0.3c-1.2,0-2.4,0-3.5-0.1c-13.8-1.2-25.7,3.6-36.4,11.7
		c-6.4,4.9-12,10.7-16.8,17.2c-2.1,2.9-4.1,5.8-6.1,8.7c-4.3,6.5-6.7,13.8-8.8,21.2c-0.6,2.2-1.1,4.4-1.6,6.7
		c-1.1,4.7-2.7,9.2-4.7,13.6c-1.3,2.9-3,5.6-5.4,7.8c-1.5,1.4-2.8,3-3.9,4.8c-2.5,4-5.7,7.5-9.3,10.6c-0.8,0.6-1.4,1.2-1.6,2.3
		c-0.8,3.7-2.8,6.8-5.1,9.7c-2.4,2.9-4.8,5.8-7.2,8.7c-0.9,1.1-1.7,2.2-2.6,3.3c-4.9,6-7.3,13.1-8.3,20.7c-0.3,2.2-0.1,4.4,0.4,6.6
		c0.3,1.2,0.6,2.3,1.8,2.9c0.4,0.2,0.7,0.6,0.9,1c2.2,3.5,5.3,5.8,8.8,7.8c1.9,1.1,2.6,3.3,1.7,5.6c-0.6,1.5-1.7,2.8-2.7,4
		c-1.9,2.4-3.8,4.9-5.1,7.8c-3.9,8.7-4.8,17.7-2.3,27c1,3.8,2.4,7.6,3,11.6c0.1,0.7,0.6,1.2,1.1,1.6c2.8,2.2,5,5,6.5,8.3
		c0.4,0.8,0.9,1.5,1.5,2.2c3.6,3.7,4,12.9-0.5,17.3c-2.3,2.3-4.3,4.8-6.6,7.2c-2.3,2.5-4.4,5.1-6.2,8.1c-0.4,0.7-6,12.4-8,12.9
		c-1.5,0.4-2.9-0.3-3.6-1.8c-0.4-0.9-0.6-1.8-0.7-2.8c-1.2-6.9-1.6-13.9-0.8-20.9c0-0.4,0.1-0.7,0.1-1.1c0.2-2.8,0.2-2.8-2.6-2.7
		c-1.1,0-2.2-0.1-3.2-0.6c-1.8-0.8-2.4-2-1.9-4c0.3-1.2,1-2.3,1.7-3.3c2-2.7,3.6-5.7,5.8-8.3c0.5-0.7,0.6-1.1-0.2-1.6
		c-0.6-0.3-1.1-0.7-1.7-1c-4-2.3-7.1-5.5-9.4-9.5c-0.3-0.5-0.5-1.1-1-1.5c-0.9,0.2-1.4,1-2.1,1.5c-0.9,0.7-1.8,1.5-3,1.9
		c-1.8,0.6-3.5,0.5-5-0.8s-1.9-2.9-1.5-4.8c0.3-1.5,1.1-2.9,2.1-4.1c2.2-2.8,4.4-5.5,6.7-8.2c1.5-1.8,3.5-3.1,5.5-4.4
		c0.7-0.4,1.3-0.9,2-1.3c1.9-1.1,2.8-2.5,2.7-4.9c-0.1-3.9,0.9-7.8,0.9-11.7c0.1-5.5,0-10.9-1.1-16.3c-0.5-2.3-1.2-4.6-2.6-6.5
		c-1.1-1.6-2.5-2.4-4.5-2.2c-1,0.1-2.1,0.2-3.1,0.2c-2.3,0.1-4.2-0.7-5.4-2.8c-1.1-2.1-0.9-4.2,0.4-6.1c2.2-3.1,5.2-5.3,8.9-6.1
		c1.7-0.4,3.4-1,4.9-2c0.9-0.5,1.5-1.2,1.7-2.2c0.6-2.7,1.6-5.4,2.1-8.1c1.2-6.1,4.2-11.3,7.7-16.3c0.9-1.2,1.7-2.4,2.7-3.5
		c5-5.6,9.8-11.4,15.9-16c1.8-1.4,3.5-2.9,5-4.8c-0.6-0.7-1.5-0.7-2.2-0.9c-1.3-0.4-2.7-0.6-4-1.3c-2.1-1-3.2-3-3-5
		c0.2-2.1,1.6-3.8,3.8-4.4c1.1-0.3,2.2-0.4,3.3-0.5c2.7-0.2,5.1-1.3,7.3-2.8c-0.1-0.9-0.9-1-1.4-1.4c-1.1-0.8-2.4-1.5-3.3-2.6
		c-2.9-3.3-1.6-8.1,2.6-9.4c1.3-0.4,2.8-0.5,4.2-0.5c1.5,0,3.1,0,4.6-0.2c3-0.5,5.1-1.8,5.9-5.1c1.9-7.9,5.4-15.2,10.4-21.6
		c6.3-8,12.6-16,20.3-22.7C371.9,191.2,374.9,188.8,378.1,186.8z M363.9,145.8c0.1-0.2,0.2-0.4,0.4-0.6c0.6-0.7,1.3-1.7,2.3-1.5
		s0.8,1.4,1,2.2c0.6,3.5,1,7,1.6,10.4c0.5,2.6-0.2,5.3-0.9,7.8c-0.8,2.9-1.9,5.7-2.8,8.6c-0.4,1.1-0.9,1.2-2,1
		c-3.3-0.6-6.5-0.1-9.5,1.2c-3.7,1.6-6.1,4.6-7.7,8.2c-1.2,2.7-1.8,5.7-1.8,8.6c0.1,4.7-1.7,8.6-4.4,12.2c-1.5,1.9-2.9,3.9-4.7,5.6
		c-3.2,3-5.2,6.8-7.2,10.5c-0.6,1.2-1,2.4-1.1,3.8c-0.2,3.1-1.6,4.5-4.8,4.5c-5.1,0.1-10.1,0.6-15.1,1.8c-2.8,0.7-5.5,1.7-8.1,2.9
		c-0.6,0.3-1.1,0.8-1.9,0.4c-0.1-1.1,0.4-1.9,1.1-2.7c1.4-1.5,2.9-2.7,4.9-3.4c0.5-0.2,0.9-0.4,1.4-0.6c1.9-0.9,1.8-0.9,0.5-2.5
		c-1.6-1.9-2.2-4-1.6-6.6c1-4,3.6-6.7,6.6-9.1c2.8-2.2,5.8-4.3,8.7-6.4c2-1.5,3.4-3.3,4-5.9c0.9-4.1,1.4-8.2,1.7-12.4
		c0.5-7.1,2.6-13.9,6.6-19.9c1.8-2.8,3.7-5.5,6-7.9c2.8-2.8,5.8-5.1,9.5-6.6c2.3-0.9,4.6-2,6.9-2.9c2.5-1,5.1-1.3,7.7-0.1
		C362.8,147.3,362.9,147.3,363.9,145.8z M272.2,101.5c-0.8,4.8-1.1,9.6-1.3,14.5c0,1.4-0.8,2.2-1.9,2.7c-1.9,0.8-3.7,0.6-5.3-0.5
		c-2.4-1.7-4.2-3.8-3.9-7c0.3-4.5,1.2-8.9,2.3-13.2c1.6-6.3,4.2-12.2,8.4-17.4c2.8-3.5,6.2-6,10.7-6.9c0.5-0.1,1.1-0.3,1.4,0.2
		s0.1,1-0.1,1.5c-1.5,3.5-2.9,7.1-4.9,10.4C274.8,90.6,273.1,95.9,272.2,101.5z M294.1,194.5c-0.6-0.3-1.2-0.6-1.7-1
		c-2.8-2.2-5.3-4.7-7.8-7.2c-0.5-0.5-0.8-1-1.1-1.6c-2.4-4.5,0.2-9.1,5.3-9.2c0.8,0,1.9,0.6,2.5-0.2c0.5-0.7,0-1.7,0-2.6
		c0-4-1-7.9-2.4-11.6c-1.6-4.1-2.9-8.3-4.5-12.5c-2-5.3-3.4-10.7-4-16.3c-0.5-5.9-1.3-11.9-0.8-17.9c0.3-3.1,1-6.1,2-9.1
		c2.8-8.4,8.7-12.7,17.3-13.6c5-0.5,9.8,0.2,14.6,1.8c4.9,1.7,9.9,2.7,14.5,5.1c0.5-0.8,0-1.2-0.3-1.6c-0.5-1.1-1.1-2.1-1.3-3.3
		c-0.8-4,1.7-7.7,5.7-8.2c1.3-0.2,2.6-0.1,3.9,0.3c4.4,1.2,7.7,3.9,10.1,7.8c3.4,5.4,5.6,11.2,5.8,17.7c0,1.5,0.5,2.3,2,2.7
		c1.1,0.3,2.2,0.8,3.3,1.4c2.5,1.4,2.8,3.9,0.7,5.8c-0.7,0.6-1.5,1-2.4,1.6c0.6,0.9,1.3,1.5,2,2.1c0.5,0.4,1,0.9,1.4,1.4
		c1.1,1.5,1.4,3.1,0.5,4.8c-0.8,1.6-2.5,2.6-4.4,2.3c-0.8-0.1-1.6-0.4-2.3-0.6c-2.7-0.8-5.4-1.4-8.3-1.5c-2.8-0.1-5.4,0.4-7.5,2.6
		c-1.2,1.2-2.8,2-4.4,2.5c-3.8,1.3-5.4,4.1-6,7.8c-0.3,2.5-0.5,5-0.8,7.5c-0.7,5.5-3.2,10.1-7.3,13.8c-3.7,3.3-8,4.5-12.9,3.6
		c-1.6-0.3-1.8-0.1-2,1.7c-0.3,3.8-0.4,7.7-0.9,11.5c-0.3,2-0.6,4-1.8,5.6c-0.4,0.6-0.3,1.2-0.2,1.9c0.3,1.8-0.2,3.4-1.7,4.5
		C297.6,195.3,295.8,195.3,294.1,194.5z M249.8,327.7c1.3-4.7,3.8-8.7,7.7-11.5c2.4-1.8,3.6-3.9,4-6.8c0.2-1.7,0.7-3.3,1-5
		c1.1-5,3.6-9.3,6.4-13.5c0.9-1.4,1.3-2.5,0.6-4.2c-1.2-3.1-1.4-6.4-1.8-9.7c-0.3-2.1,0.2-4.2,0.7-6.3c0.6-2.3,2.1-3.8,3.8-5.3
		c1.1-1,2-2.1,2.5-3.5c1.4-3.6,4.3-5.7,7.6-7.4c0.6-0.3,1.3-0.6,1.9-0.6c3.7,0.2,7.2,0.8,10.3,3.3c2.4,2,2.1,7.4-1,9.3
		c-1.8,1.1-1.8,1.2-0.9,3.1c1.5,2.9,1.8,5.7-0.2,8.5c-0.4,0.6-0.8,1-1.4,1.4c-0.9,0.5-1.3,1.2-1.2,2.2c0.4,3.9-1.5,6.8-3.7,9.6
		c-2.6,3.4-5.4,6.6-8.1,9.9c-1.7,2.1-2.7,4.3-2.4,7.1c0.4,4.4-1.8,7.9-4.3,11.3c-0.7,0.9-1.7,0.9-2.6,0.9
		c-6.4,0.6-11.8,3.6-16.7,7.5c-0.7,0.6-1.4,1.2-2.3,1.6C249.4,329,249.7,328.4,249.8,327.7z M258.9,387.1c-3.2,4.8-5.7,10-7.2,15.6
		c-0.1,0.2-0.2,0.4-0.5,0.8c-2.7-3.5-4.5-7.1-5.4-11.2c-0.8-3.8-2.4-7.4-3.3-11.2c-0.7-2.7-1-5.5-1.2-8.3s-1.1-5.5-1.2-8.3
		c-0.2-3.9,0.9-7.3,4-9.8c2.8-2.2,6.2-3,9.7-3.4c1-0.1,2-0.3,3.1-0.3c3.9-0.3,7.7,0.2,10.4,3.5c1.4,1.6,3.1,2.9,5,4
		c2.2,1.3,2.6,2.2,2,4.8c-0.4,2-0.2,4-0.2,6c0,1-0.2,1.7-1,2.3C267.1,375.6,262.8,381.2,258.9,387.1z M283.9,503.7
		c-2.6,3.3-5.3,6.5-8.2,9.5c-1.9,2.1-4,4.1-5.5,6.6c-0.2,0.3-0.4,0.6-0.9,0.8c-0.3-0.4-0.2-0.9-0.1-1.4c0.6-3,1.3-6,2.3-9
		c1.8-5,3.3-10.1,4.1-15.3c0.5-3.4,0.4-6.9-0.5-10.3c-1.2-5.3-3.1-10.3-5.6-15.1c-2.4-4.6-3.8-9.6-5.6-14.4c-1-2.7-0.3-5.4,0.1-8
		c0.2-1.6,0.1-2.9-0.7-4.4c-2-3.7-2.6-7.6-1.6-11.7c0.5-2,2.6-5.2,4.5-6.6c0.4,1.1,0.2,2,0.2,2.8c0,7.3,3.1,13.1,8.8,17.5
		c1.8,1.4,3.6,2.8,5.2,4.4c1.1,1.1,1.6,2.2,1.3,3.9c-0.6,2.9-1.3,5.9-1.3,8.9c0,3.2,0.3,6.5,1.2,9.6c1.5,5.1,3.6,9.8,7.4,13.6
		c0.7,0.7,1.5,1.2,2.3,1.8c0.8,0.5,1.2,1.1,0.7,2C289.4,493.9,287.4,499.2,283.9,503.7z M434,598.7c-0.6,2.1-1.2,4.1-1.9,6.1
		c-1.8,5-1.9,9.9-0.7,15c0.3,1.4,0.7,2.9,0.7,4.4c0.2,4.5-3.2,7.4-7.5,6c-5.8-1.8-11.5-3.9-15.4-9c-0.6-0.8-1.4-1.2-2.5-0.9
		c-1.6,0.4-3.1-0.2-4.4-1c-1-0.6-1.9-1.4-2.7-2.3c-2.7-3.2-5.8-6.2-8-9.7c-4.2-6.6-9.6-12.1-16.4-16.2c-7.3-4.4-13.3-10.2-18.5-17
		c-2.7-3.6-5.9-6.8-8.5-10.5c-4.6-6.3-8.8-12.9-11.8-20.2c-1.6-4-4-7.4-7.1-10.3c-1.6-1.5-3.2-3.1-4.7-4.7c-2.4-2.6-4.2-5.7-5.7-8.9
		c-0.7-1.6-0.7-1.6-2.3-1.1c-1.4,0.5-2.8,0.5-4.2,0.2c-2.3-0.5-4.4-0.3-6.2,1.4c-0.7,0.7-1.6,1-2.6,1.2c-2.2,0.4-3.6,1.7-4.5,3.5
		c-1.4,2.5-2.7,5.1-4.6,7.3c-0.5,0.6-0.8,1.6-1.8,1.5c-1.1-0.1-1.5-1.1-1.8-2c-1.5-4.6-1.4-9.1,1.4-13.2c2.5-3.7,4.7-7.7,8-10.9
		c0.8-0.7,1.1-1.7,1.4-2.7c1.1-3.7,1.8-7.5,2.1-11.3c0.3-3,0.7-6,1.1-9c0.2-1.4,0.6-2.7,1.5-3.9c0.2-0.3,0.6-0.7,0.5-0.9
		c-0.6-1.9,0.8-1.9,1.9-2.1c2.2-0.5,3.9,0.3,5.3,2c0.8,1,1.4,2.1,1.9,3.2c1.5,3.2,2.6,6.6,3.5,10c1.6,6.1,4.1,11.8,7,17.4
		c1.8,3.4,4.1,6.3,7.1,8.7c2.7,2.2,5.3,4.5,7.8,6.9c3.8,3.8,6.5,8.2,7.8,13.4c0.6,2.4,1.2,4.7,1.7,7.1c0.6,2.6,1.4,5.1,2.3,7.6
		c0.5,1.2,0.8,2.5,2.3,3.1c0.6,0.3,0.8,1,1.1,1.6c2.5,5.3,6.1,9.7,10.1,13.9c1.5,1.6,3.4,2.6,5.3,3.6c2.9,1.5,5.9,2.7,9,3.7
		c0.8,0.2,1.5,0.6,2.6,0.3c-0.6-2.8-1.3-5.4-0.8-8.2c0.2-1.1,0.5-2.2,1-3.2c2.2-4.5,7.6-5.5,11.3-2.1c0.8,0.7,1.4,1.5,2,2.4
		c0.6,1,1.2,2,1.8,3.1c4,6.9,10.2,9.9,18.1,8.4c2-0.4,4-0.9,6.1-1.3c6.7-1.2,11.5,2.6,12,9.4C435.3,592.1,435,595.4,434,598.7z
		 M359.9,538.1L359.9,538.1c0.1-1.6-0.1-3.3,0.1-4.9c0.2-1.6-0.5-2.7-1.8-3.5c-1.2-0.8-2.5-1.6-3.9-2.1c-3-1.2-5.8-2.8-8-5.3
		c-0.4-0.4-0.8-0.9-1.1-1.4c-0.6-1.3-1.6-2.2-2.8-3.1c-3.6-2.5-6.2-8.4-4.7-12.9c0.4-1.1,0.8-2.2,1.7-3.1c1.7-1.7,3.9-1.8,5.4,0
		c0.7,0.9,1.4,1.1,2.4,1.1c1.6-0.1,2.8,0.6,4,1.6c3.8,3.3,7.5,6.9,11.5,9.9c0.8,0.6,1.6,1,2.5,1.4c4.7,2,9.1,4.6,12,9
		c0.7,1,1.4,2.1,1.7,3.4c0.6,2.3,2.1,3.8,4,5c2.1,1.3,4.3,2.6,6,4.5c1.2,1.3,2,2.8,2.3,4.4c0.8,3.6-2.5,8-6.3,8.1
		c-0.6,0-1.2,0-1.8,0c-2.4-0.1-2.4-0.1-3.3,2.3c-0.6,1.6-1.3,3.1-2.5,4.4c-3.8,4-9.3,3.4-12.6-0.9c-3.3-4.4-5.1-9.2-4.9-14.8
		C359.9,540.1,359.9,539.1,359.9,538.1z M540.5,632.3c-0.4,2.6-1.8,4.6-4.6,5.3c-0.9,0.2-1.7,0.2-2.6,0c-2.9-0.8-4.9-2.9-7.1-4.7
		c-0.3-0.2-0.5-0.5-0.8-0.8c-0.5-0.4-0.9-1.2-1.7-0.8c-0.6,0.3-0.8,1.1-0.8,1.7c0,0.7-0.1,1.5,0,2.2c0.6,2.9,0.3,5.7,0.4,8.6
		c0.1,5.4-4.5,8.3-8.3,9.4c-0.7,0.2-1.2-0.1-1.5-0.6c-2.4-3.2-5.6-5.6-8.1-8.8c-1.1-1.4-2.4-2.8-3.8-4c-4.7-4.2-8-9.4-11.2-14.7
		c-1.7-2.7-2.9-5.6-4.3-8.5c-0.3-0.6-0.4-1.5-1.7-1.7c0,5.6,2.2,10.6,3.3,15.8c-0.6,0.5-1,0-1.4-0.2c-5-2.5-10.1-4.9-15.4-6.6
		c-1.5-0.5-2.6-1.6-3.8-2.7c-0.9-0.8-1.5-1.9-2.9-2.5c-0.5,1.3-0.2,2.4,0,3.5c0.3,1.4,0,1.7-1.4,1.7c-4,0-8,0-12,0
		c-2.3,0-4-1.1-5.5-2.8c-3.6-4.2-2.8-8.8-1.2-13.3c0.9-2.6,1.5-5.2,1.5-8c-0.1-4.4,0.5-8.7,0.5-13c0-1.2,0.3-2.3,0.8-3.4
		c1.1-2.7,3.4-3.5,5.9-2.1c1,0.6,1.9,1.3,2.9,2.1c1.7,1.4,3.6,2.5,5.8,3.1c1.6,0.5,3.1,1.3,4.6,2.1c4.3,2.1,9,3.3,13.5,4.7
		c0.4,0.1,0.9,0.2,1.3-0.1c0.2-0.6-0.2-1-0.5-1.4c-2-2.5-3.5-5.4-5.9-7.8c-1.8-1.8-1.5-4.9,1.8-5.7c3.5-0.8,6.7,0.2,9.7,1.9
		c0.7,0.4,1.4,0.9,2,1.4c3.6,3.2,7.7,4.7,12.5,4.7c3.3,0,6.6-0.5,9.9-0.8c2.6-0.2,5.3-0.6,7.9-0.6c1.4,0,2.8,0.3,3.8,1.4
		c0.6,0.7,1.3,0.8,2.2,0.4c2-0.7,4-1.7,5.8-2.8c3.6-2.2,7.9,0,8.2,4.3c0.2,2.5,1,5,1.4,7.6c0.6,3.6,1.2,7.2,1.2,10.9
		c-0.1,6.3-0.1,12.5,0,18.8C541.1,628.1,540.8,630.2,540.5,632.3z M597.3,516.5c-0.1,0.6-5.4,8.5-6.2,12.7c-0.3,1.5-0.5,3.1-0.9,4.6
		c-0.7,2.7-2.4,4.3-5.2,4.7c-2.3,0.3-4.6,0.1-6.8-0.7c-1.4-0.5-2.7-0.6-4.1-0.2c-1.7,0.4-3.5,0.4-5.3,0.4c-1,0-1.5,0.3-1.8,1.2
		c-0.1,0.3-0.3,0.5-0.4,0.8c-2.2,5.6-6.2,9.6-11.1,12.9c-1.2,0.8-2.2,1.8-3.2,2.7c-8.4,7.1-17.6,11.7-29.1,10.5
		c-5.4-0.6-10.6-1.7-16-2.2c-5.7-0.5-11.3-1.1-17-1.4c-5.9-0.3-11.8,0.7-17.6,1.4c-3.9,0.5-7.7,1.4-11.6,1.6
		c-5.1,0.2-9.7-1.2-13.6-4.4c-7.1-5.7-13.3-12.2-17.2-20.5c-1.5-3.2-3.7-5-7.2-5.5c-3.2-0.5-6.4-1.3-9.6-1.5c-2.9-0.3-5.6-1.3-8-3.1
		c-1.1-0.8-2-1.7-3.1-2.5c-0.9-0.7-13.8-14-15.2-15.2c-5.4-4.5-11.7-7.1-18.6-8.3c-3.6-0.6-5.8-2.3-6.4-5.9
		c-0.6-3.2-2.8-5.1-5.3-6.8c-0.4-0.3-1-0.3-1.5-0.4c-5.3-0.8-9.8-3.2-13.7-6.8c-1.5-1.4-2.9-2.8-4.1-4.3c-4.9-5.7-7.2-12.2-6.6-19.8
		c0.3-3.6,0.7-7.2,1.3-10.8c0.1-0.4,0.1-0.9,0.3-1.3c0.6-1.8,2.3-2.2,3.6-0.8c0.8,0.9,1.2,2,1.6,3.1c0.9,2.7,1.9,5.4,2.6,8.2
		c1.8,6.6,6.2,11.5,11.2,15.8c1.6,1.4,3.6,2.4,5.5,3.2c3.9,1.7,7.3,3.9,10.4,6.9c2,1.9,4.2,3.8,6.9,5.1c3.4,1.7,6.9,2,10.5,1.6
		c2.6-0.3,3.3-1,3.4-3.7c0.3-5.1,1.3-10.1,2.4-15.1c0.7-3.6,0-6.6-2.4-9.4c-3.6-4.1-7.8-7.7-11.7-11.5c-0.7-0.7-1.6-1.1-2.4-1.5
		c-3.4-1.7-6.7-3.7-9.7-6.1c-5.6-4.3-9.5-9.9-11.4-16.7c-0.2-0.8-0.4-1.6-0.8-2.3c-2.7-4.7-1.8-9.4,0.5-13.8c2-3.8,4.8-7.1,8.1-9.9
		c1.4-1.2,1.6-1.1,2.9,0.1c0.7,0.6,0.8,1.2,0.3,1.9c-0.8,1.2-1,2.6-1,4c0,2.4,0.1,4.9,0.2,7.3c0,1.2,0.5,2.3,1.2,3.2
		c2.8,3.7,5.6,7.4,8.9,10.8c0.4,0.4,0.9,0.8,1.4,1c1.9,0.7,1.9,0.7,2.7-1.1c0.8-1.7,1.5-2.3,2.3-1.8c1.3,0.6,0.7,1.8,0.6,2.7
		c-0.7,4.6,0.7,8.6,3.3,12.2c4.8,6.7,11.6,9.6,19.5,10.3c4.1,0.4,8.3,0.5,12.4-0.1c3.7-0.5,6.8,0.6,9.6,3.1c1.4,1.2,2.8,2.3,4.4,3.3
		c5.9,3.7,12.2,4.3,18.8,4c0.4-0.4,1-0.7,1.7-0.8c1.4-0.3,2.7-0.6,3.4-2c0.3-0.6,1-0.8,1.7-0.8s1.4,0,1.9-0.5
		c2.3-1.9,4.7-3.8,5.7-6.8c1-3.2,1.8-6.5,3.5-9.5c0.7-1.3,0.1-2.3-1.4-2.6c-0.9-0.2-1.8,0-2.6,0.1c-2,0.3-3.9,0.5-5.8-0.4
		c-1.6-0.8-3.3,0-5,0.4c-0.6,0.2-0.6,0.7-0.7,1.3c-0.5,2.9-3.2,4.6-6.1,4c-1.1-0.2-2.1,0.2-3,0.4c-2.4,0.6-4.7,0.1-6.8-0.9
		c-1.8-0.8-2.6-2.5-2.6-4.5c0-4.2,3.7-7.4,7.8-6.4c1.1,0.3,1.7,0.1,2.5-0.7c1.3-1.5,3.2-2.1,5.1-2.5c1.4-0.3,2.9-0.5,4.4-0.4
		c1.8,0,3.3-0.4,4.8-1.2c1.8-1,3.7-1.9,5.7-2.5c3.8-1.3,5.9-4,6.5-7.9c0.1-0.4,0.2-0.9,0-1.3c-0.8-2-2.5-3.3-4.3-4.3
		c-1.5-0.8-3-0.3-4.4,0.5c-2.2,1.3-4.4,2.6-6.6,4.1c-4.3,3.1-9.2,4.6-14.5,4.5c-1,0-1.9,0.2-2.7,0.8c-1.3,0.9-2.8,1.4-4.3,1.8
		c-2.8,0.7-5.3,0.1-7.4-1.8c-3.9-3.4-2.6-9.2,2.4-11.3c2.6-1.1,5.4-1.3,8.2-1.7c2-0.3,4.1-0.6,6-1.2c1.7-0.5,3.6-0.7,5.4-1
		c2.7-0.4,4.6-1.8,5.6-4.4c0.9-2.6,1.8-5.3,2.4-8c0.8-3.5,2.6-6.2,5.7-7.9c-4.4-3.4-8.3-7.3-10.7-12.7c-3.7-8.1-3.1-15.8,1.4-23.1
		c0.2-0.3,0.4-0.7,0.6-1c1.8-2.8,3.6-5.6,5.6-8.2c1.4-1.9,3-3.7,4.6-5.4c2.9-2.9,6.3-5.3,10-7.2c3.7-1.8,7.4-3.7,11.6-4.3
		c0.3,0,0.5-0.1,0.8-0.1c2.9-0.4,5.8-0.8,8.8-1.2c1.1-0.2,2.3-0.3,3.4-0.5c4.5-0.6,9-0.8,13.5-0.6c3.7,0.2,7.3,0.7,11,1.2
		c2.6,0.4,4.9,1.7,7.1,3c4.5,2.9,8.7,6.4,11.8,10.9c0.8,1.2,1.6,2.4,1.9,3.7c1.5,5.6,4,10.8,5.3,16.4c1.1,4.3,1.6,8.7,1.5,13.2
		c-0.1,3.3-1.3,6.2-2.7,9c-1.7,3.3-3.8,6.3-6.3,9c0.6,0.6,1.1,1.4,1.3,2.4c0.3,1.4,0.9,2.4,1.8,3.5c1.4,1.6,3,2.4,5,3
		c2.9,0.8,5.9,0.6,8.7,1.3c3.5,0.8,7.2,0.8,10.7,1.7c1.4,0.4,2.8,0.8,4.2,1.4c0.9,0.4,1.7,0.8,2.7,0.9c1.3,0.1,2.3,0.8,2.6,2.1
		c0.3,1.2-0.1,2.2-1.1,2.8c-0.1,0.1-0.3,0.2-0.3,0.3c-1.7,3.6-4.9,3-7.8,2.5c-2-0.4-4-1.1-5.9-1.8c-1.8-0.6-3.6-0.9-5.4-0.4
		c-0.7,0.2-1.5,0.3-2.2,0.2c-3.5-0.4-6.2,1.4-9,2.9c-0.1,0.8,0.4,1,0.8,1.3c1.9,1.7,3.5,3.6,4.6,5.9c0.6,1.3,1.5,2.2,2.8,2.7
		c1.1,0.4,2.2,0.9,3.3,1.3c1.2,0.4,2.4,0.5,3.6-0.1c1-0.5,2.1-0.6,3.2-0.9c3.4-0.7,6.5,1.1,7.3,4.4c0.4,1.6,0.8,3,1.9,4.3
		c2.3,3,0.7,5.6-1.5,6.9c-0.6,0.3-1.2,0.6-1.8,0.9c-2.6,1.2-4.9,0.8-6.7-1.4c-0.8-0.9-1.4-1.8-2.8-1.8c-0.7,0-1.3-0.6-1.8-1.2
		c-1.6-1.7-3.6-1.8-5.7-1.1c-0.7,0.2-1.3,0.7-2,1c-3.9,1.7-7.8,2.2-11.7,0c-0.9-0.5-1.5-0.4-2.2,0.2c-3.5,2.9-5.1,6.6-4.4,11.1
		c0.5,3.2,1.9,6,3.7,8.6c0.7,1,1.4,2,1.4,3.4c3.5,2.2,7.5,3.6,11.9,4.3c4.7,0.7,9.4,0.7,14.1,0.4c2.5-0.2,5-0.5,7.5-1
		c5.1-1,9.6-3.2,13.7-6.4c1.7-1.3,3.4-2.7,5.1-4c2.2-1.7,4.7-2.7,7.5-3.1c6.8-1.1,6.8-1.1,11.8-6.1c1.2-1.2,2.3-2.4,3.7-3.9
		c-0.8-0.4-1.3-0.5-1.7-0.8c-1.2-0.7-1.8-1.7-1.7-3.1c0.1-1.5,0.9-2.4,2.3-3c1.1-0.4,2.2-0.5,3.3-0.4c5,0.3,8.8-2,11.8-5.8
		c2.6-3.2,4-6.9,4.6-10.9c0.4-2.5,0.9-4.9,0.9-7.5c0-0.6,0.1-1.2,0.4-1.7c1-2.5,3.8-2.9,5.5-0.8c0.4,0.5,0.8,1.1,0.9,1.7
		c0.6,2,1.5,4,1.3,6.2c-0.1,0.9,0.3,1.7,0.6,2.6c1.7,5.3,0.6,10.1-2.8,14.3c-0.9,1.1-1.1,2.1-1.1,3.4c0,5.1-0.1,10.2,0.5,15.3
		c0.2,1.4,0.3,2.8,0.6,4.2c1,4.8-3.5,8.3-8.1,6.5c-2.5-1-5-2-7.4-3.4c-3.7-2.3-7.8-2.7-11.9-1.4c-3.4,1.1-6.7,2.4-9.8,4.1
		c-1.5,0.8-3.2,1.4-4.5,2.5c-1.4,1.1-2.5,2.5-3.8,3.7c-0.6,0.6-0.7,0.9,0,1.6c2.3,2.7,3.9,5.7,4.3,9.3c0.3,2.6,0.4,5.2,0.5,7.7
		c0,1.3,0.2,2.3,1.7,2.7c0.3,0.1,0.5,0.2,0.8,0.4c6,3.8,12.6,5.1,19.6,5.1c0.9,0,1.8-0.1,2.7,0c3.4,0.3,6.4-1,9-3
		c4-3.2,7.4-7,10.3-11.2c0.4-0.7,0.5-1.6,1.1-2.1c1.1-1.1,1.3-2.1,1.4-3.7c0.2-2.8,2-4.9,4.7-5.9c2.3-0.8,4.2-2.4,6.3-3.6
		c1.1-0.6,1.6-1.7,2.1-2.8c0.9-2.1,1.6-4.3,2.5-6.4c0.6-1.5,1.2-3,2.2-4.3c2.1-2.5,4.7-2.4,6.6,0.2c1.1,1.5,1.7,3.2,1.7,5.1
		c-0.2,6.1-1.5,11.8-5.6,16.7c-2,2.3-4.2,4.3-7,5.7c-0.9,0.5-1.9,0.9-2.8,1.3c-1.8,0.9-2.8,2.2-3.4,4.3c-2.7,10.9-8.9,19-19.8,22.9
		c-4.5,1.7-9.2,2.7-14,3c-1.4,0.1-2.8,0.3-4.2,0.3C606.2,507.2,597.4,516,597.3,516.5z M694.3,474.4c-1.8,1.2-2.6,2.8-2.7,5
		c-0.1,2.8,0.5,5.6,0.6,8.4c0.1,4.3-1.1,8.3-2.7,12.2c-0.9,2.1-2.5,3.8-4.2,5.4c-0.8,0.7-1.8,0.8-2.9,1c-2.1,0.3-4.1,0.7-5.6,2.2
		c-0.9,0.8-1.5,1.8-1.7,3c-0.1,1-0.6,1.8-1.7,2c-1,0.2-1.6,1-2,1.9c-0.3,0.8-0.7,1.5-1,2.2c-1.7,4.4-4.7,7.6-8.7,10
		c-0.9,0.5-1.7,1.1-2.6,1.6c-1.6,0.9-3.3,1.3-5,0.5c-0.6-0.3-1-0.4-1.7-0.1c-2.5,1-5.1,2.1-7.1,3.9c-1.2,1-2.3,2-2.8,3.6
		c-0.5,1.4-1.7,2.3-3.1,3c-2.9,1.6-5.9,2.7-9,3.7c-3.7,1.3-7.4,2.4-10.9,4.2c-1.1,0.5-2,1.2-2.9,2c-1.1,1-2.3,1.8-3.7,2.3
		c-2.4,0.7-4.3,0.2-6.1-1.5c-0.2-0.2-0.3-0.3-0.5-0.4c-0.1,0-0.1,0-0.3-0.1c-0.9,1.6-0.9,3.7-2.6,4.8c-0.1-0.2-0.2-0.2-0.2-0.3
		c0.8-3.3,0.8-6.7,1.1-10c0.3-4.3,1.2-8.6,1.9-12.8c0.1-0.4,0.1-0.9,0.2-1.3c0.4-1.5,0.6-1.7,2.2-1.3c5.4,1.2,10.9,1.4,16.5,1.2
		c5.2-0.3,9.9-2.2,14.1-5.3c4.5-3.4,8.6-7.1,12.6-11.1c1.4-1.5,2.4-3.3,3.6-5c0.3-0.4,0.3-1.1,1.2-0.5c0.7,0.5,0.9-0.4,1.2-0.9
		c1.4-2.5,2.8-5,4.2-7.5c0.7-1.4,1.6-2.7,2.6-3.8c1.9-2.1,2.9-4.6,3.2-7.4c0.5-3.4,0.9-6.8,1.4-10.3c0.1-1,0.6-1.9,1.1-2.8
		c2-3.3,4.5-6.3,6.9-9.4c0.8-1.1,1.6-2.1,2.2-3.3c0.4-0.7,0.9-0.9,1.6-0.6c5.9,2.5,11.4,5.5,16.5,9.4c0.2,0.1,0.2,0.4,0.4,0.7
		C696.6,473.3,695.3,473.7,694.3,474.4z M714.7,412.7c0.3,0.7,0.6,1.3,0.9,2c-0.4,0.6-1,0.4-1.4,0.2c-2.5-0.6-4.9-1.6-7.3-2.7
		c-0.7-0.3-1.4-0.9-2-1.4c-1.8-1.8-3.4-3.7-4.8-5.8c-1.6-2.3-1.8-4.6-0.7-7.1c0.1-0.3,0.2-0.5,0.4-0.8c1.1-2.2,1.2-4.5,0.2-6.6
		c-2.1-4.3-1.9-8.7-0.9-13.2c0.7-3,0.8-6.1,0.4-9.2c-0.4-3-1.7-5.6-3.6-7.9c-4.3-4.9-9.1-9.3-14.8-12.5c-3.4-2-6.7-4.1-10.1-6
		c-1.3-0.7-1.2-1.2-0.2-2.1c0.8-0.8,1.8-1.3,2.9-1.4c2.4-0.4,4.8-0.6,7.2-0.9c0.8-0.1,1.4,0.2,2.1,0.5c3,1,5.9,2.3,8.8,3.7
		c3.3,1.5,6.6,3,10.2,3.4c1.7,0.2,3.2,1.2,4.7,1.9c0.7,0.3,1.3,1,2.3,0.9c0.1-0.9-0.4-1.5-0.8-2c-2.1-2.5-3.7-5.3-6-7.7
		c-0.7-0.8-0.6-1.4-0.1-2.1c0.9-1.4,2.7-2.1,4.5-1.8c1.4,0.3,2.6,0.9,3.8,1.8c2.8,2,5.6,1.8,8.6,0.4c1.1-0.5,1.4-1.1,1.1-2.2
		c-1-4.9-2.1-9.8-3.8-14.6c-3.1-8.9-7.3-17.3-12-25.4c-2.6-4.4-5.3-8.8-8.2-13.1c-1.8-2.7-3.5-5.5-4.9-8.4c-0.8-1.6-1.8-3-3.4-3.9
		c-1.5-0.8-2.4-2-2.8-3.8c-1-4.2-3.3-7.5-6.4-10.4c-0.6-0.5-1.3-0.9-1.8-1.9c1-0.6,2.1-0.4,3.1-0.7c1.9-0.5,2.1-0.8,1.7-2.7
		c-1.7-7.9-2.6-15.9-4-23.8c-0.7-4.1-1.4-8.1-2.6-12.1c-1.6-5-4.1-9.5-7.5-13.4c-3.1-3.6-6.5-6.8-10.2-9.8c-0.2-0.1-0.4-0.3-0.5-0.4
		c-0.8-0.7-1.8-1.3-1.2-2.5c0.5-1.1,1.6-1,2.5-0.9c0.8,0.1,1.6,0.3,2.4,0.6c10.6,3.8,18.4,10.7,23,21c2.9,6.4,4.7,13.2,6.2,20.1
		c1.4,6.3,2.8,12.7,4.9,18.9c1.3,3.8,2.9,7.4,4.8,10.9c0.6,1.2,1.5,1.9,2.8,2.3c2.8,0.8,5.5,1.6,8.3,2.4c2,0.6,3.2,2.1,3.3,4.2
		c0.1,1-0.2,2-0.5,3c-0.5,1.5-0.1,2.8,1,3.8c1.9,1.8,3.6,3.9,5.3,6c0.8,1,1.8,1.7,2.9,2.4c2.4,1.6,4.7,3.3,6.8,5.3
		c1.5,1.4,2.8,3,3.8,4.9c0.6,1.2,0.8,2.4-0.1,3.5c-0.9,1.1-2.1,1.2-3.4,0.9c-1-0.2-1.9-0.7-2.8-1.2c-0.8-0.4-1.5-1-2.6-1.2
		c0,1,0.6,1.7,0.9,2.4c4.2,8.8,7.8,17.7,9.7,27.3c1.4,7.2,2.4,14.4,1.6,21.8c-0.5,4.9-1.6,9.8-3.8,14.3c-1.3,2.6-3,4.8-5.9,6
		c-5.5,2.2-8.9,6.5-11.3,11.8c-2.6,5.8-4,11.7-4,18C711,401.4,712.5,407.1,714.7,412.7z M724.5,428.8c-3,0.5-5.4-2.1-4.8-5.3
		c0.3-1.7,0.6-3.5,1-5.2c0.5-2.2,0.1-4.2-0.8-6.2c-0.8-1.7-1.7-3.4-2.2-5.3c-0.8-2.6-0.9-5.1-0.4-7.8c0.9-4.1,3.2-7,7.1-8.4
		c2.7-1,4.2-2.8,5.4-5.2c1.4-2.8,2.4-5.7,3.5-8.6c0.3-0.8,0.6-1.6,1.4-2.2c2-1.3,4.2-0.7,5.1,1.5c1.1,2.8,2,5.7,1.9,8.8
		c0,2.6,0.8,5.1,0.5,7.4c0.2,5.1-1.1,9.7-3.3,14c-3.4,6.9-7.1,13.6-11.3,20C726.9,427.6,725.9,428.5,724.5,428.8z"/>
	<path class="st4" d="M765.8,583c0.2,0.4,0.4,0.8,0.5,1.2c2.3,4.9,1.8,9.5-1.3,13.8c-0.4,0.5-0.7,1-1.1,1.5c1.1,0.1,2.2,0.3,3.3,0.4
		c1.6,0.2,3.1,0.5,4.7,0.8c0.8,0.2,1.6,0.3,2.3,0.5c0.4,0.1,0.8,0.2,1.2,0.3l1.2,0.3l1.2,0.3l0.6,0.1l0.6,0.2l2.3,0.7
		c1.5,0.5,3,1,4.5,1.5c1.6,0.6,3.2,1.2,4.8,1.9c1.4,0.4,3,1,4.7,1.8c-3.4-12.2-6.7-24.4-10.1-36.5c-0.6-2.1-0.6-2.1-2.7-1.6
		c-5.4,1.3-10.2,3.8-14.8,6.9C764.8,578.9,764.5,579.8,765.8,583z"/>
	<path class="st4" d="M828.8,650.3c-1.8-3.6-4-7-6.5-10.1s-5.4-5.9-8.5-8.4s-6.5-4.6-10.1-6.4l0,0l-5.3-2.4c-0.6-0.5-1.1-1-1.7-1.5
		c-1.3-1.1-2.7-2.2-4.3-3c-6.3-3.5-13.3-5.5-20.3-6.6c-3.5-0.6-7.1-1-10.7-1.2c-2.4-0.1-4.7,0-7-0.4c-2.5-0.4-4.9-1.6-7.5-1.7
		c-1-0.1-2,0-3,0.1c-8.2,0.8-16.3,2.1-24.2,4.4c-4,1.2-7.8,2.7-11.5,4.6c-3.6,1.8-6.7,4.4-10.4,5.8c-0.9,0.3-1.8,0.7-2.7,1.1
		c-18.9,8.1-35.8,24-42.3,43.8l0,0c1.7-0.4,3.7,0.3,5.1-0.8c0.5-0.4,0.9-1.1,1.2-1.7c3-6.6,6-13.4,11.1-18.4
		c6.3-6.2,16.2-8.7,23.7-3c0,0,0,0,0-0.1l0.1,0.1c0.4,0.3,0.9,0.7,1.3,1.1c0,0,0,0,0,0.1c0.1,0.1,0.3,0.2,0.4,0.4
		c0.5,0.4,1,0.9,1.3,1.5c0.1,0.1,0.1,0.2,0.2,0.3c-0.6,0-1.3,0-1.9,0.1c-1.4,0.1-2.7,0.5-4,0.9c-2.6,0.9-4.9,2.3-7.1,3.9
		c-0.6,0.4-1.1,0.8-1.7,1.2l-0.8,0.6l-1.5,1.1l-0.8,0.6c0,0,0.8-0.2,0.9-0.2c3.9-1,7.8-1.1,11.5,0.7c0.3,0.2,0.6,0.3,0.9,0.5
		c0.3,0.2,0.6,0.3,0.8,0.5c0.6,0.4,1.1,0.8,1.6,1.2c1,0.9,1.9,1.9,2.7,2.9c0.9,1.2,1.6,2.5,2.3,3.8l0,0c-0.1,0.4-0.2,0.8-0.3,1.1
		c-0.1,0.2-0.1,0.5-0.2,0.7v0.1c-0.1,0.4-0.1,0.9-0.2,1.3c0,0.1,0,0.2,0,0.3s0,0.2,0.1,0.3c0,0.2,0.1,0.4,0.1,0.6V670v0.1
		c0,0,0,0,0,0.1c0,0,0,0,0-0.1c0.1,0.7,0.3,1.4,0.4,2.1c0.2,0.9,0.4,1.7,0.6,2.6c1,1.8,2.1,3.5,2.8,5.5c0.1,0.2,0.1,0.4,0.2,0.6
		c0,0.1,0,0.1,0,0.2c0.1,0.2,0.1,0.4,0.1,0.5l0,0c0,0.2,0.1,0.4,0.1,0.6c0,0.1,0,0.1,0,0.2c0,0.2,0.1,0.3,0.1,0.5v0.1
		c0,0.2,0.1,0.4,0.1,0.5s0,0.1,0,0.2c0,0.1,0,0.3,0,0.4c0,0.1,0,0.2,0,0.3s0,0.3,0,0.4c0,0.1,0,0.2,0,0.3s0,0.2,0,0.3
		c0,0.2,0,0.4,0,0.6v0.1c0,0.1,0,0.3,0,0.4l0,0c0,0.3,0,0.6,0,0.9c0.1,0.1,0.2,0.3,0.3,0.4c0.6,0.7,1.1,1.4,1.7,2.1
		c0.3,0.3,0.6,0.6,0.9,0.9c2.4,2.1,4.9,4,8.1,4.8c5,1.1,10.2-0.5,15.3-0.1c1,0.1,2,0.2,2.9-0.1c1.8-0.7,2.8-3.5,3.8-5.1
		c1.4-2.4,2.6-4.9,3.5-7.5c1.9-4.9,3-10.1,3.4-15.4c0.6-8.3-0.9-16.7-4.2-24.3c-1.7-3.8-3.7-7.4-6.2-10.8c-2.4-3.4-5.2-6.5-8.3-9.3
		c-0.4-0.4-0.8-0.7-1.2-1l-2-1.7l0,0l0,0h0.1h0.2l0.4,0.1l0.8,0.2l1.2,0.3l0.4,0.1l0.4,0.1l0.8,0.2c2,0.6,4,1.4,5.8,2.4
		c17.2,9,24.7,27.2,25.8,45.6c0,0.1,0,0.2,0,0.4c0,0.5,0,1.1,0,1.7c0,0.5,0,1-0.1,1.5c0,0.5-0.1,1-0.1,1.4c0,0.1,0,0.1,0,0.2
		c0,0.3-0.1,0.7-0.2,1c0,0.3-0.1,0.7-0.2,0.9c0,0.2-0.1,0.4-0.1,0.7c-0.5,3.1-1.5,6.1-2.5,9c-1,3.1-2.8,6.1-1.5,9.4
		c2.7,7,8.9,9.1,15.6,10.2c0.9,0.1,1.8,0.2,2.7,0.4c1.1,0.1,2.2,0.3,3.4,0.4c1.3,0.1,2.6,0.3,3.9,0.4c0.3,0,0.5,0,0.8,0.1
		c0.2,0,0.5,0,0.7,0c0.5,0,0.9,0,1.4,0v-0.1c0.6-2.6,2-4.9,3.2-7.3c5.7-11,7.9-24.3,6.1-36.8c-1.7-11.7-8.2-22.5-16.4-30.8
		c-0.8-0.8-1.7-1.9-1.5-3c2.9,0.8,6,3.2,8.5,4.8c3.1,1.9,6.1,4,8.9,6.3c5.1,4.3,9.9,9.7,11,16.5c2,13,5.6,13.8,3.9,26.8
		c-0.5,3.5-2.6,6.6-3.3,10.1c-1,4.8-1.3,9.4-3.1,14c-0.1,0.3-0.3,0.6-0.3,0.9c-0.1,0.3-0.3,2.8-0.9,2.6c2.3,0.8,13.6,3,14.2-1.1
		l0.3-2.3l2.8-15.6c2.7-15.4,3.1-30.8-3.8-45.2c-1.5-3.1-4.1-8.9-6.1-10.7c0.2,0.2,0.5,0.4,0.7,0.7c3.8,3.6,7.4,7,10.2,11.6
		c3.3,5.2,6.2,11.2,8.4,16.9c0.2,0.5,0.3,0.9,0.5,1.4c0.6,1.9,1.1,3.8,1.5,5.7c0.8,3.8,1.2,7.7,1.2,11.6c-0.1,3.9-0.5,7.7-1.4,11.5
		c-0.3,1.2-0.6,2.3-0.9,3.4c0.3-0.1,0.7-0.2,1-0.3c1-0.4,1.8-1.1,2.5-1.8c0.7-0.8,1.3-1.6,1.7-2.5c0.5-0.9,0.9-1.8,1.2-2.8
		c0.2-0.5,0.3-1,0.4-1.5C836.2,676.7,834.9,662.4,828.8,650.3z M702.5,621L702.5,621C702.6,621,702.6,620.9,702.5,621
		C702.6,620.9,702.6,621,702.5,621z"/>
	<path class="st4" d="M291.3,624.6c-0.9-0.4-1.8-0.8-2.7-1.1c-3.7-1.4-6.8-4-10.4-5.8c-3.7-1.9-7.6-3.4-11.5-4.6
		c-7.9-2.4-16.1-3.6-24.2-4.4c-1-0.1-2-0.2-3-0.1c-2.6,0.2-5,1.3-7.5,1.7c-2.3,0.4-4.7,0.3-7,0.4c-3.6,0.2-7.1,0.6-10.7,1.2
		c-7,1.2-14.1,3.1-20.3,6.6c-1.5,0.9-2.9,1.9-4.3,3c-0.6,0.5-1.1,1-1.7,1.5l-5.3,2.4l0,0c-3.6,1.8-7,3.9-10.1,6.4s-6,5.3-8.5,8.4
		c-2.5,3.1-4.7,6.5-6.5,10.1c-6.1,12.1-7.3,26.4-3.8,39.5c0.1,0.5,0.3,1,0.4,1.5c0.3,1,0.7,1.9,1.2,2.8c0.5,0.9,1,1.8,1.7,2.5
		c0.7,0.8,1.5,1.4,2.5,1.8c0.3,0.1,0.7,0.2,1,0.3c-0.4-1.1-0.7-2.3-0.9-3.4c-0.9-3.8-1.3-7.6-1.4-11.5c0-3.9,0.4-7.8,1.2-11.6
		c0.4-1.9,0.9-3.8,1.5-5.7c0.2-0.5,0.3-0.9,0.5-1.4c2.2-5.8,5.1-11.7,8.4-16.9c2.8-4.5,6.4-7.9,10.2-11.6c0.2-0.2,0.5-0.4,0.7-0.7
		c-2,1.8-4.6,7.7-6.1,10.7c-7,14.4-6.6,29.8-3.8,45.2l2.8,15.6l0.3,2.3c0.6,4.1,11.9,1.9,14.2,1.1c-0.6,0.2-0.8-2.2-0.9-2.6
		c-0.1-0.3-0.2-0.6-0.3-0.9c-1.8-4.6-2.1-9.2-3.1-14c-0.7-3.5-2.8-6.6-3.3-10.1c-1.7-13,1.9-13.8,3.9-26.8c1-6.8,5.9-12.3,11-16.5
		c2.8-2.3,5.8-4.4,8.9-6.3c2.5-1.6,5.6-4,8.5-4.8c0.2,1.1-0.7,2.2-1.5,3c-8.2,8.3-14.8,19.1-16.4,30.8c-1.8,12.6,0.4,25.8,6.1,36.8
		c1.2,2.3,2.6,4.6,3.2,7.3v0.1c0.5,0,0.9,0,1.4,0c0.2,0,0.5,0,0.7,0c0.3,0,0.5,0,0.8-0.1c1.3-0.1,2.6-0.3,3.9-0.4
		c1.1-0.1,2.2-0.2,3.4-0.4c0.9-0.1,1.8-0.2,2.7-0.4c6.8-1.1,12.9-3.3,15.6-10.2c1.3-3.3-0.5-6.3-1.5-9.4c-1-2.9-2-6-2.5-9
		c0-0.2-0.1-0.4-0.1-0.7c-0.1-0.3-0.1-0.7-0.2-0.9c-0.1-0.3-0.1-0.7-0.2-1c0-0.1,0-0.1,0-0.2c0-0.5-0.1-1-0.1-1.4c0-0.5,0-1-0.1-1.5
		c0-0.5,0-1.1,0-1.7c0-0.1,0-0.2,0-0.4c1.1-18.4,8.6-36.6,25.8-45.6c1.9-1,3.8-1.8,5.8-2.4l0.8-0.2l0.4-0.1l0.4-0.1l1.2-0.3l0.8-0.2
		l0.4-0.1h0.2h0.1l0,0l0,0l-2,1.7c-0.4,0.3-0.8,0.7-1.2,1c-3.1,2.8-5.8,5.9-8.3,9.3c-2.4,3.4-4.5,7-6.2,10.8
		c-3.3,7.6-4.8,16-4.2,24.3c0.4,5.3,1.5,10.5,3.4,15.4c1,2.6,2.1,5.1,3.5,7.5c0.9,1.6,2,4.4,3.8,5.1c0.9,0.4,2,0.2,2.9,0.1
		c5.1-0.4,10.3,1.2,15.3,0.1c3.2-0.7,5.7-2.7,8.1-4.8c0.3-0.3,0.6-0.6,0.9-0.9c0.6-0.7,1.1-1.4,1.7-2.1c0.1-0.1,0.2-0.3,0.3-0.4
		c0-0.3,0-0.6,0-0.9l0,0c0-0.1,0-0.3,0-0.4v-0.1c0-0.2,0-0.4,0-0.6c0-0.1,0-0.2,0-0.3s0-0.2,0-0.3s0-0.3,0-0.4c0-0.1,0-0.2,0-0.3
		s0-0.3,0-0.4c0-0.1,0-0.1,0-0.2c0-0.2,0-0.4,0.1-0.5v-0.1c0-0.2,0.1-0.3,0.1-0.5c0-0.1,0-0.1,0-0.2c0-0.2,0.1-0.4,0.1-0.6l0,0
		c0-0.2,0.1-0.4,0.1-0.5s0-0.1,0-0.2c0.1-0.2,0.1-0.4,0.2-0.6c0.7-2,1.8-3.7,2.8-5.5c0.2-0.9,0.4-1.7,0.6-2.6
		c0.1-0.7,0.3-1.4,0.4-2.1c0,0,0,0,0,0.1c0,0,0,0,0-0.1v-0.1v0.1c0-0.2,0.1-0.4,0.1-0.6c0-0.1,0-0.2,0.1-0.3c0-0.1,0-0.2,0-0.3
		c0-0.4-0.1-0.9-0.2-1.3v-0.1c0-0.2-0.1-0.5-0.2-0.7c-0.1-0.4-0.2-0.8-0.3-1.1l0,0c0.7-1.3,1.4-2.6,2.3-3.8c0.8-1.1,1.7-2.1,2.7-2.9
		c0.5-0.4,1-0.8,1.6-1.2c0.3-0.2,0.6-0.3,0.8-0.5c0.3-0.2,0.6-0.3,0.9-0.5c3.7-1.7,7.6-1.7,11.5-0.7c0.1,0,0.9,0.2,0.9,0.2l-0.8-0.6
		l-1.5-1.1l-0.8-0.6c-0.5-0.4-1.1-0.8-1.7-1.2c-2.2-1.5-4.6-2.9-7.1-3.9c-1.3-0.5-2.6-0.8-4-0.9c-0.6-0.1-1.3-0.1-1.9-0.1
		c0.1-0.1,0.1-0.2,0.2-0.3c0.4-0.5,0.9-1,1.3-1.5c0.1-0.1,0.3-0.2,0.4-0.4c0,0,0,0,0-0.1c0.4-0.4,0.8-0.8,1.3-1.1l0.1-0.1v0.1
		c7.5-5.7,17.4-3.3,23.7,3c5.1,5.1,8.1,11.9,11.1,18.4c0.3,0.6,0.6,1.3,1.2,1.7c1.4,1.1,3.4,0.5,5.1,0.8l0,0
		C327,648.6,310.1,632.7,291.3,624.6z M283.6,620.9l0.1,0.1l0,0C283.7,621,283.7,620.9,283.6,620.9z"/>
</g>
</svg>
