<?xml version="1.0" encoding="utf-8"?>
<!-- Generator: Adobe Illustrator 24.0.1, SVG Export Plug-In . SVG Version: 6.00 Build 0)  -->
<svg version="1.1" id="New_group_1_" xmlns="http://www.w3.org/2000/svg" xmlns:xlink="http://www.w3.org/1999/xlink" x="0px"
	 y="0px" viewBox="0 0 990 781.2" style="enable-background:new 0 0 990 781.2;" xml:space="preserve">
<style type="text/css">
	.st0{fill:#E4706A;}
	.st1{fill:#535458;}
	.st2{fill:#FFFFFF;}
	.st3{fill:#AC700D;}
	.st4{fill:#E3A03D;}
</style>
<g>
	<path d="M518.1,23c9.6-0.2,18.9,1,28.1,2.6c9.2,1.6,18.4,3.5,27.4,6c10.2,2.8,19.3,7.6,28.2,13.1c6.3,3.9,11.8,8.8,17.5,13.4
		c6.5,5.3,12.6,11.1,18.5,17c3.2,3.2,6.6,6,10,9c3.5,3.1,6.8,6.3,9.8,9.8c2.5,2.8,5.2,5.4,8.4,7.5c11.2,7.6,22.7,14.7,34,22.2
		c4.7,3.1,9.5,6.2,13.9,9.8c6.8,5.5,11.1,12.7,13.7,21c2.5,8,3.7,16.2,5.3,24.4c1.7,8.7,3.1,17.5,5.2,26.1c0.9,3.7,2.2,7.2,3.4,10.8
		c0.5,1.6,1.5,2.8,2.8,3.8c2.9,2.5,5.9,4.9,8.9,7.3c12.4,10,22.4,22.1,30.3,35.9c4,7,7.4,14.3,10.6,21.8c3.4,8,6.6,16.1,9.7,24.3
		c4.2,10.9,6.3,22.3,7.9,33.8c1.5,10.6,2.1,21.3,1.8,32c-0.2,5.8,0.1,11.5,0.2,17.2c0.1,3.8,0.4,7.5,0.5,11.3
		c0.1,6.5-0.6,12.9-1.6,19.3c-1.4,8.8-1.3,17.7-0.6,26.5c0.3,3.3,1.3,6.2,2.8,9.1c6,12,12.7,23.7,19.4,35.3
		c6.4,11,11.6,22.6,16.2,34.5c3,7.8,4.4,16,5.6,24.3c1,6.7,1.6,13.5,1.5,20.3c-0.1,4.1-0.6,8.1-1,12.2c-1,10.1-2.9,20.1-6.3,29.7
		c-1.1,3.2-2.3,6.3-3.7,9.4c-0.8,1.7-0.7,3,0.6,4.5c6.5,8.2,12.4,16.9,17.2,26.2c1.1,2.1,1.9,4.4,2.8,6.6c1.7,4.2,1.7,8.6,1.1,13
		c-1.2,9.2-3.6,18-6.9,26.6c-4.1,10.5-10.8,19-20.4,24.9c-2.1,1.3-4,2.9-5.3,5.1c-3.3,5.7-7.8,10.5-12.3,15.3
		c-4.2,4.5-9.4,7.1-15.3,8.6c-2.8,0.7-4.7-0.3-6.5-2.5c-2.9-3.5-4.6-7.5-5.3-11.9c-0.3-1.6-0.6-1.7-2-0.5c-1.9,1.7-3.7,3.5-5.6,5.3
		c-1.4,1.3-2.9,2.5-4.6,3.5c-3.6,2-7.1,1.3-9.6-2c-0.6-0.8-1.1-1.7-1.5-2.7c-1.8-4.4-3-9-2.6-13.8c0.2-2.3-0.6-3.9-2.6-4.9
		c-1.6-0.9-3.2-1.8-4.9-2.6c-4.2-1.8-6.9-5-8.4-9.3c-0.9-2.6-1.5-2.7-3.4-0.7c-1.8,1.9-2.8,4.2-3.6,6.7c-1.3,4.1-3.2,7.8-5.9,11.2
		c-1.6,2.1-3.6,3.9-5.7,5.5c-4.4,3.5-10,1-12.1-2.3c-2.2-3.4-3.4-7.1-3.8-11c-0.2-2.8-1.5-4.5-3.9-5.8c-5.9-3.1-10.3-8-14.8-12.8
		c-0.8-0.8-1.4-2-1.9-3c-0.5-0.9-1.1-1.3-2.1-1.3c-0.6,0-1.3,0-1.9,0c-133.4,0-266.9,0-400.3,0c-0.7,0-1.4,0-2.2,0
		c-0.8,0-1.4,0.3-1.8,1c-2.5,4.9-6.9,8.1-10.8,11.8c-1.8,1.7-3.9,3.1-6.1,4.2c-2.4,1.2-3.7,3-4,5.8c-0.4,3.8-1.5,7.5-3.6,10.8
		c-1.1,1.7-2.5,2.9-4.3,3.7c-2.5,1-5,1-7.3-0.6c-3.9-2.6-6.8-6.1-9.1-10c-1.3-2.3-2.4-4.7-3.1-7.2c-0.7-2.4-1.7-4.7-3.5-6.5
		c-0.4-0.5-0.9-0.9-1.5-1.2c-0.6-0.4-1.2-0.4-1.5,0.5c-0.2,0.6-0.4,1.2-0.6,1.8c-1.4,4-3.9,6.9-7.8,8.7c-1.9,0.9-3.7,1.9-5.5,2.9
		c-1.9,1.1-2.7,2.5-2.5,4.7c0.4,4.6-0.6,9.1-2.3,13.4c-0.3,0.7-0.6,1.3-0.9,1.9c-2.7,4.6-6.9,5.6-11.4,2.7c-2.6-1.7-4.6-3.9-6.8-6
		c-0.9-0.9-1.9-1.7-2.8-2.6c-0.6-0.6-1.1-0.5-1.4,0.4c0,0.2-0.1,0.3-0.1,0.5c-0.7,4.4-2.4,8.4-5.3,11.9c-1.9,2.4-3.7,3.3-6.6,2.5
		c-5.8-1.6-11-4.2-15.2-8.7c-4.5-4.8-9-9.6-12.3-15.3c-1.2-2.1-2.8-3.6-4.9-4.8c-8.5-4.9-14.1-12.4-18.9-20.6
		c-0.7-1.2-1.1-2.6-1.6-4c-1.4-4.2-2.9-8.3-3.6-12.7c-0.9-5.3-0.7-10.7-0.3-16c0.4-7,1.8-13.8,3.8-20.5c2.8-9.2,8.1-16.6,15.5-22.6
		c5.5-4.5,11.1-8.9,16.7-13.3c1.4-1.1,1.8-2.1,1.3-3.9c-2.5-9.5-3.9-19.3-4.6-29.1c-0.8-9.7-0.5-19.5,0.3-29.2
		c1.4-17.1,4.8-33.9,9.9-50.3c3.7-12.1,9.8-22.9,17.6-32.8c5.3-6.7,10.4-13.6,14.4-21.2c2.7-5.1,3.4-10.4,2.6-16
		c-1.3-9.3-2.9-18.6-3.9-28c-2.5-24.6,2-47.6,15-68.8c3.6-5.9,8-11.2,12.6-16.3c1.7-1.9,3.9-3.1,6.2-4c1.9-0.8,2.2-1.2,2.1-3.2
		c-0.1-2.8-0.3-5.6-0.6-8.4c-0.8-7.6,0.2-15.2,1.7-22.6c2.8-14.2,8.6-27.1,17.4-38.6c2.8-3.6,5.4-7.3,8.2-10.9
		c1.6-2.1,2.4-4.4,2.7-7c0.5-5.9,0.9-11.8,0.8-17.7c-0.1-9.3,2.6-17.8,7.1-25.8c2.7-4.8,6.5-8.7,9.9-12.9c3.3-3.9,6.2-8.1,8.6-12.7
		c2.9-5.5,4.5-11.4,5.1-17.6c0.8-7.7,2.9-15.1,6.3-22c2.9-5.9,7.2-10.5,13-13.7c4.3-2.4,8.6-4.6,13.1-6.5c0.8-0.3,1.6-0.7,2.4-1.1
		c2.2-1.1,4-2.5,5-4.9c0.8-1.8,2.3-3.3,3.6-4.8c10.3-12,22.4-21.8,35.6-30.5c13.5-8.9,28.3-14.4,43.7-18.8
		c6.1-1.8,12.3-2.6,18.6-3.8c2.1-0.4,4.2-0.8,6.3-1.3c4.2-1,8.5-1.6,12.8-1.6c2,0,4-0.3,5.9-0.8c7-2,14.1-3,21.3-3.6
		c6.3-0.5,12.6-1.2,18.8-1.9C507.2,23.2,512.8,22.8,518.1,23z"/>
</g>
<g>
	<path class="st0" d="M472.1,444c-1.9,2.9-4,5.7-5.9,8.6c-2.7,4-5.6,7.8-8.8,11.4c-3.5,3.8-7.6,6.6-12.4,8.3c-2.8,1-2.7,0.6-2.6,3.7
		c0.1,6.2,0.2,12.3,0.4,18.5c0,0.8,0.1,1.6,0.3,2.3c2.7,9.1,7,17.1,14.3,23.5c5.4,4.7,11.2,8.6,18,10.8c7.2,2.3,14.5,3.6,22,3.9
		c11.6,0.5,22.4-2.3,32.8-7.1c2.6-1.2,4.8-2.9,6.4-5.3c1.5-2.2,3-4.4,4.5-6.7c1.4-2.2,2.5-4.5,3.2-7c1.3-4.6,2.2-9.3,2.3-14.2
		c0.1-6.6,0.7-13.2,1.7-19.7c0.2-1.2-0.1-2.2-0.6-3.2c-1.2-2.4-2.5-4.8-3-7.4c-0.3-1.3-1-2.1-2.2-2.8c-3.7-2-7.4-4.1-11.1-6.2
		c-0.8-0.5-1.7-0.5-2.6-0.7c-3.8-0.5-7-2.2-9.7-5c-2-2-3.7-4.2-5.1-6.6c-1.1-1.8-2.2-3.6-3.4-5.7c-2.2,1.5-3.7,3.1-4.8,5.1
		c-1.3,2.1-2.3,4.3-4,6.2c-0.4,0.5-0.5,1-0.4,1.6c0.1,0.8,0.2,1.6,0.4,2.3c2.3,9.4,2.9,19,3.3,28.6c0.1,3.4-0.3,6.7-1.6,9.9
		c-0.7,1.7-1.6,3.2-3.1,4.3c-2.2,1.7-4.6,2.2-7.3,1.2c-2.9-1.1-4.8-3.2-5.7-6.2c-0.8-2.5-0.7-5.1-0.4-7.6c1-8.6,2.5-17,4.2-25.5
		c0.6-3,1-6,1.5-8.9c0.3-1.4-0.1-2.7-1.1-3.7c-0.5-0.5-0.9-1-1.4-1.4c-1.9-1.5-3.9-3-5.8-4.5c-0.7-0.5-1.5-1-2.2-1.5
		c-0.4-0.3-0.8-0.3-1.2,0C477.4,439,474.2,440.7,472.1,444z"/>
</g>
<g>
	<path class="st1" d="M466.7,352.9c-2.7,0.4-5.3,0.8-8,1.2c-4.3,0.7-8.6,1.3-12.9,2c-0.3,0-0.7,0-0.7,0.5c0,0.3,0.2,0.7,0.4,0.9
		c0.6,0.5,1.2,1,1.9,1.4c1.8,1.2,3.5,2.3,5.4,3.5c3.1,1.9,5.8,4.2,8,7.1c1,1.3,2.1,2.6,3.2,3.8c1.3,1.5,2.8,2.9,4.6,3.9
		c2.1,1.3,4.2,2.6,6.3,3.9c3.1,1.8,6.5,2.8,10.1,3.6c0.6-1.4,0.2-2.6,0.1-3.8c-0.1-2-0.5-4-0.4-6c0.4-8.8,0.8-17.7,1.5-26.5
		c0.5-6.6,1.1-13.2,1-19.8c0-3.7-0.1-7.3-1.8-10.8c-1.7-3.4-4.1-5.2-7.9-4.8c-4,0.4-8,0.9-12,1.4c-2.6,0.3-5.1,0.6-7.7,0.2
		c-1.7-0.2-3.3-0.4-5-0.2c-1.2,0.2-2.5-0.1-3.6-0.6c-1.9-0.7-3.2-2-4.1-3.8c-0.5-1-0.3-2.1,0.4-2.8c0.7-0.7,1.5-0.9,2.5-0.6
		c0.2,0.1,0.4,0.1,0.6,0.3c1.5,1,3.2,0.8,4.9,0.5c1.2-0.2,2.4-0.4,3.7-0.5c5.7,0,11.1-1.3,16.4-3.1c1.3-0.4,2.6-0.7,3.9-1.1
		c1.2-0.3,2.3-0.6,3.5-0.8c1-0.2,2.1-0.3,3.1-0.3c1.9-0.1,3.8-0.3,5.7-0.4c2.1,0,4.1-0.1,6.2-0.1c5.5-0.1,11,0.2,16.5,1.6
		c2.6,0.7,5.2,1.3,7.9,1.5c2.9,0.2,5.7,1.1,8.6,0.9c0.1,0,0.4,0.2,0.4,0.4c0.1,0.2,0,0.5-0.1,0.6c-3.6,4.4-6.6,5.9-12.4,6.2
		c-1.3,0.1-2.7,0-4,0c-2.1-0.1-4.2-0.3-6.4-0.4c-2.6-0.1-5.1-0.2-7.7-0.2c-2.3,0-3.8,1.6-5.5,2.9c-1.2,0.9-0.8,2.2-0.9,3.4
		c-0.1,0.9,0,1.8,0,2.7c0.1,5.8,0,11.6-0.8,17.4c-0.1,0.8-0.1,1.6,0,2.3c0.8,7.8,1.6,15.6,2.8,23.3c0.4,2.7,1.3,5.2,2.6,7.6
		c1.5,2.9,3.7,5.4,6,7.6c2.6,2.6,3.7,2.5,6-0.2c2.1-2.6,4.2-5.2,6.2-7.9c1.3-1.8,2.8-3.5,4.4-5c2.5-2.4,5.3-4.5,8.2-6.4
		c2.2-1.4,4.2-3,6-4.8c0.2-0.2,0.4-0.6,0.4-0.8c0-0.4-0.5-0.4-0.8-0.4c-1.9,0-3.8,0.4-5.6,0.9c-2.2,0.6-4.4,1.1-6.6,0.8
		c-4.8-0.6-9.1-2.4-12.9-5.4c-1.7-1.3-3.1-2.9-3.9-4.9c-0.7-1.7-1.4-3.3-2-5c-0.7-1.9-1.1-3.9-0.7-5.9c0.3-1.7,0.4-3.3,0.3-5
		c-0.1-1.6,0.1-3.1,0.6-4.6c1.1-3.6,4.3-5.9,8.1-5.8c3.9,0.1,6.8,2.1,8.8,5.3c2.4,3.6,3.9,7.6,3.4,12c0,0.3,0,0.7,0,1
		c-0.1,1.2,0.5,1.9,1.6,2.2c0.9,0.3,1.7,0.6,2.6,0.7c4.8,0.5,9.4,2.1,14.3,1.6c0.7-0.1,1.3,0.1,2,0.2c1.4,0.2,1.6,0.1,2-1.1
		c2.1-6.2,3.1-12.5,2.3-19c-0.1-0.7-0.2-1.4-0.3-2.2c-0.1-0.3-0.1-0.6-0.2-0.9c-1.5-7.1-4.9-13.1-10.6-17.9
		c-2.3-1.9-4.7-3.7-7.2-5.5c-2.9-2.2-6.2-3.6-9.7-4.6c-3.1-0.9-6.4-1.1-9.6-1.3c-7.9-0.2-15.9-0.1-23.8-0.8c-1.7-0.1-3.4,0-5,0.4
		s-3.3,0.7-4.9,1.1c-7.2,1.6-14.3,3.7-21.1,6.7c-5.8,2.6-10.8,6.3-15.2,10.8c-4.4,4.6-6.9,10.1-8,16.3c-1.2,6.4,0.3,12.4,2,18.5
		c0.2,0.9,0.8,1.3,1.7,1.3c0.9,0,1.8,0.1,2.7-0.2c2.7-0.9,5.4-1.2,8.2-1.8c2.6-0.5,5.2-1.1,7.9-1.7c1-0.2,1.6-0.8,1.6-1.8
		c0-0.2,0.1-0.4,0.1-0.7c0.1-4.7,2.4-8.4,5.4-11.6c5.5-6,13-5.1,16.9,2c1.7,3.1,2.5,6.5,2.5,10c0,3.6-1,6.9-3.5,9.5
		C474.5,350.2,471,352.3,466.7,352.9z"/>
</g>
<g>
	<path class="st2" d="M401.5,190.2c-1.5-0.5-2.9-1.2-4.4-1.6c-2.1-0.6-4.2-0.3-5.4,1.5c-1.9,2.7-2.8,5.8-1.3,9.1
		c1,2.3,2.7,3.5,5.4,3.3c2,0,3.8-0.5,5.1-2.3c0.9-1.3,1.3-2.8,2.6-3.8c0.3-0.3,0.4-1,0.4-1.5c0-1.1-0.4-2.2-0.9-3.2
		C402.7,190.9,402.2,190.4,401.5,190.2z"/>
	<path class="st2" d="M606,178.7c-0.9-0.8-1.9-1.5-2.9-2.2c-1.9-1.2-3.8-1.1-5.6,0.2c-1.2,0.9-2.3,1.7-3.6,2.4
		c-2.2,1.3-2.7,3.1-1.5,5.4c0.9,1.8,2.2,3.3,3.9,4.5c3.4,2.5,7.7,1.6,9.8-1.9c0.8-1.4,1.3-2.8,1.1-4.8
		C607.1,181.2,607.2,179.7,606,178.7z"/>
	<path class="st2" d="M372,194.3l-9.1,11.3l9.3,8C372.1,213.7,368.5,201.1,372,194.3z"/>
	<path class="st2" d="M411.7,209.4c-1.8,3.5-3.9,5.5-3.9,5.5s10.5-4.3,10.8-7.5s-5-10.1-5-10.1S413.5,205.9,411.7,209.4z"/>
	<path class="st2" d="M572.8,188.2l-5.2,13.5l14.6,4.4C582.2,206.1,569.6,195.7,572.8,188.2z"/>
	<path class="st2" d="M628.1,193l-10.9-12.6c2.9,6.4,3.1,13.2,0.6,20.4L628.1,193z"/>
</g>
<g>
	<path class="st3" d="M434.7,459.6c3.5-1.3,6.9-2.5,10.4-3.8c3.4-1.2,5.6-3.6,7.3-6.6c0.6-1,1-2,1.5-3c0.7-1.6,1.7-3.2,2.7-4.6
		c3.5-4.8,7.7-8.7,13.3-11c0.3-0.1,0.6-0.3,0.9-0.4l0,0c0.1-0.1,0.2-0.1,0.3-0.2c0.3-0.2,0.6-0.3,0.9-0.5s0.6-0.4,0.9-0.7
		c0.7-0.6,1.4-1.3,2-2.1c0.5-0.7,0.9-1.5,1.3-2.3c0.1-0.1,0.1-0.2,0.1-0.4c0-0.2,0-0.4-0.1-0.5c-0.2-0.4-0.6-0.2-0.9-0.2
		c-0.2,0.1-0.4,0.2-0.6,0.3c-2.8,1.5-5.9,2.1-9.1,2c-0.8,0-1.6-0.1-2.3,0.2c-3,1.3-5.9,0.8-8.8-0.3c-0.1,0-0.2,0-0.3-0.1
		c-1.3-0.6-2.4-0.2-3.5,0.5c-1.7,1.1-3.5,2-5.5,2.3c-1.9,0.3-3.7,0.7-5.6,1c-1.7,0.2-3.3,0.3-5-0.1c-0.2,0-0.4-0.3-0.4-0.5
		s0.2-0.4,0.3-0.5c0.2-0.1,0.4-0.2,0.6-0.3c4.8-1.4,8.1-4.5,10.7-8.7c1.1-1.9,2.7-3.2,4.6-4.3c2.1-1.1,4.3-1.9,6.6-2.4
		c2.3-0.6,4.4-1.5,6.1-3.3c0.9-1,2.1-1.7,3.1-2.5c0.4-0.3,1-0.6,1.1-1.3c-1-0.4-2.1-0.7-3.1-1.2c-2-0.8-3.8-1.9-5.2-3.6
		c-4.1-4.8-2.7-11.6,2.9-14.5c0.5-0.3,1.3-0.2,1.6-1.2c-1.7-1.4-3.3-2.8-4.8-4.5c-1.5-1.8-3.1-3.5-4.6-5.3c-1.7-2.1-3.8-3.7-6.3-4.9
		c-0.9-0.4-1.8-0.9-2.7-1.4c-3.9-1.8-7.3-4.3-10.6-7c-2-1.6-3.8-3.4-5.4-5.3c0.9,2.2,1.8,4.3,2.5,6.6c0.8,2.6,1.9,5,3.5,7.2
		c0.7,0.9,1.3,1.8,2,2.7c0.6,0.8,0.7,1.6,0.2,2.5c-1.6,3.2-3.4,6.3-4.6,9.7c-0.3,0.7-0.9,0.8-1.7,0.5c-1.1-0.5-2.2-1.1-3.3-1.6
		c-5.1-2.1-10.3-3.7-15.9-1.8c-0.1,0-0.2,0.1-0.3,0.1c-0.6,0.2-1.1,0-1.5-0.4c-0.3-0.3-0.6-0.7-1-0.9c-2.2-1.8-5.4-1.3-6.9,1.2
		c-1.9,3.1-1.7,6.4-0.6,9.7c1,2.8,2.8,5.1,4.6,7.4c2.5,3.3,5.7,5.7,9.6,6.8c1.2,0.3,2.3,0.8,3.6,0.8c1,0,2,0.4,2.8,0.9
		c0.6,0.4,0.8,1.1,0.4,1.7c-0.4,0.5-0.9,1-1.3,1.5c-0.9,1-2,1.9-2.8,2.9c-2,2.4-1.8,5,0.4,7.2c0.6,0.6,1.4,1.1,2.2,1.5
		c2.4,1,4.9,1.5,7.5,0.5c0.5-0.2,1-0.5,1.6-0.2c0.4,0.4,0.2,0.9,0.1,1.3c-1.4,4.2-2.9,8.4-4.3,12.7c-0.2,0.5-0.4,1-0.7,1.5
		c-1.5,2.3-3.2,4.4-5.7,5.5c-3.2,1.5-6.6,1.9-10.1,0.8c-4.9-1.4-9.3-3.9-13.4-6.7c0.9,1.7,2,3.3,3.4,4.8c2.3,2.5,4.6,4.9,6.8,7.4
		c2.5,2.9,5.6,4.8,9.2,5.9c2,0.6,4,1.3,6,2.1c2.7,1.1,5.5,1.7,8.4,2.1C431.4,460.3,433.1,460.2,434.7,459.6z"/>
	<path class="st3" d="M560.6,418.8C560.6,418.8,560.6,418.9,560.6,418.8C560.6,418.9,560.6,418.8,560.6,418.8z"/>
	<path class="st3" d="M544.1,428c-2.3,1.4-4.9,1.6-7.5,1.2c-1.4-0.2-2.8-0.6-4.2-1c-2.8-0.8-5.5-1.8-8.5-1.9c-1,0-1.9-0.5-2.9-0.8
		c-0.7-0.2-1.4-0.6-2.2-0.8c-0.2-0.1-0.5,0-0.6,0.2c-0.1,0.1-0.2,0.4-0.1,0.6c1.9,3.3,3.9,6.5,7.2,8.7c3.5,2.3,7.2,4.1,10.9,5.9
		c2.8,1.3,5.6,2.8,8.2,4.6c3.3,2.3,6.8,4.3,10.3,6.3c1.1,0.6,2.2,1,3.5,1.2c5.8,0.6,11.6,0.8,17.4,0.1c3.7-0.5,7.3-1.3,10.5-3.3
		c3.1-2,6-4.3,8.3-7.3l0,0c-1.2,0-2.4,0.1-3.6,0.3c-2.7,0.4-5.5,0.7-8.3,1c-0.2,0-0.4,0-0.7-0.1c-2.5-0.5-5-1-7.4-2
		c-4.3-1.8-8-4.3-10.8-8.2c-1.2-1.6-1.8-3.3-1.7-5.3c0.1-2.5,0-4.9-1.3-7.2c-0.2-0.3-0.1-0.9-0.2-1.3c-0.1-0.1-0.2-0.2-0.3-0.3
		c0.1,0.1,0.2,0.2,0.3,0.3l0,0l0,0c0.7,0,1.3,0.1,2,0c0.3,0,0.8-0.2,0.9-0.3c0.2-1.1,1-1.2,1.8-0.9c1.8,0.6,3.5,0.2,5.3,0
		c2.7-0.3,4.8-1.6,6.7-3.5c2.3-2.3,2.2-7.1-0.9-9.2c-2-1.4-4.1-2.6-6.6-3.1c-1.8-0.4-3.5-0.4-5.3-0.2c-0.4,0-0.9,0.1-1-0.5
		c-0.1-0.5,0.2-0.8,0.5-1.1c0.4-0.4,1-0.5,1.6-0.5c2.8-0.3,5.4-1.2,7.9-2.7c1.5-0.9,3.2-1.5,4.8-2.3c4.7-2.1,8.3-5.4,9.5-10.5
		c0.7-2.8,0.9-5.7-0.5-8.5c-0.6-1.3-1.6-2.2-3.1-2.1c-1.6,0-2.5,1-2.8,2.4c-0.5,2.1-1.8,3.3-3.6,4.1c-0.3,0.1-0.6,0.3-0.9,0.4
		c-1.1,0.5-1.3,0.5-2.3-0.6c-3.5-3.7-7.7-4.9-12.8-4.1c-3.2,0.6-6.2,1.7-9.2,3c-1.5,0.7-3,0.9-4.6,0.6c-3.1-0.7-4-2-3.5-4.6
		c0.3-1.4,0.7-2.8,1-4.2c0.6-3,1.4-6,0.3-9.2c-0.3-1-0.9-1.9-1.5-2.6c-1.2,1.1-2.5,2.1-3.7,3.1c-0.9,0.7-1.7,1.5-2.3,2.5
		c-2.8,4.5-6.3,8.4-10,12.2c-1.5,1.5-2.8,3.1-4.2,4.6c0.7,1.4,1.4,2.6,1.8,3.8c0.6,2,1.7,3.3,3.4,4.3c1.4,0.8,2.6,1.8,3.5,3.1
		c2.3,3.1,1.7,7.2-1.5,9.4c-1.3,0.9-2.8,1.4-4.4,1.6c-1.4,0.1-2.9,0.3-4.3,0.5c-0.5,0.1-0.9,0.3-0.8,0.8c0.1,0.4,0.2,0.9,0.4,1.2
		c0.2,0.2,0.6,0.4,0.9,0.4c4.8,0.9,8.4,4,12.2,6.8c1.2,1,2.3,2.2,3,3.6c1.3,2.5,3.3,3.8,6,4.4c3.3,0.7,6.5,1.5,9.8,2.3
		c0.5,0.1,1.1,0.2,1,1.1C551.2,424.6,547.5,425.9,544.1,428z"/>
	<path class="st3" d="M427.4,475.1c0-0.8-0.4-1.2-1.1-1.4c-2.6-0.5-5.3-1-7.9-1.7c-8-2.2-14.8-6.7-21-12c-0.8-0.7-1.3-1.8-2.8-2
		c0.2,0.8,0.3,1.4,0.4,2.1c0.5,2.7,1.3,5.5,1.4,8.2c0.2,2.9,1.3,5.1,3.2,7.1c1.5,1.5,3.1,2.9,4.8,4.2c1.9,1.4,3.7,2.9,5.6,4.3
		c4.2,3.2,8.4,6.4,12.5,9.5c1.8,1.4,3.7,2.4,5.9,2.9c0.6-1,0.1-1.8-0.1-2.7c-1.4-5.5-2.1-11-1.1-16.6
		C427.4,476.5,427.4,475.8,427.4,475.1z"/>
	<path class="st3" d="M566.4,499.5c3-1.5,6-3.1,9-4.4c8.5-3.7,15.4-9.4,21.1-16.6c0.3-0.4,0.7-0.9,1.1-1.3c1.6-1.5,2.1-3.3,2.3-5.4
		c0.4-3.2,0.8-6.4,1.2-9.6c0.3-2.4,0.5-4.8,0.7-7.5c-1.6,0.6-2.4,1.8-3.3,2.7c-3.3,3.5-7.2,6-11.6,7.8c-4.9,2-10,3.2-15.3,3.2
		c-1.1,0-2.2,0.1-3.3,0.1c-0.7,0-1,0.4-1,1.1c0.2,1.6,0.4,3.1,0.1,4.7c-0.8,4-1,8-1.3,12c-0.1,2.3-0.6,4.6-1,7
		c-0.4,2.3-0.9,4.6-1.4,7.1C565,500.4,565.7,499.9,566.4,499.5z"/>
	<path class="st3" d="M466.2,631c-1.8-2.6-3.8-5-5.6-7.5c-1.2-1.6-2.4-3.3-3.5-4.9c-0.5-0.7-0.8-1.4-0.9-2.2
		c-0.2-0.1-0.3-0.3-0.5-0.4c-4.1-3.5-8.5-6.5-11.8-10.8c-2.7-3.6-5.2-7.3-6.7-11.5c-0.3-0.9-0.7-1.7-1.2-2.5
		c0.6,1.8,1.2,3.5,1.7,5.3c2.7,9,2.8,18,0.8,27.2c-1.7,7.5-4.6,14.5-7.8,21.4c-4.8,10.1-11,19.1-18.8,26.9h64.9
		c0.7-5.1,0.8-10.2-0.1-15.4C475.2,647.2,471.5,638.8,466.2,631z"/>
	<path class="st3" d="M409.8,597.6c-0.2-1.2-0.8-2.3-1.4-3.4c-2.5-4.5-4.9-9-7.4-13.5c-2.1-3.7-3.7-7.6-4.9-11.7
		c-3.4-11.6-5.2-23.6-6.9-35.5c-0.7-5.1-0.7-10.3-0.4-15.4c0-0.6,0.3-1.4-0.8-1.8c-2.2,4.1-5.3,7.4-8.3,10.8
		c-3.3,3.7-5.8,7.9-7.5,12.6c-2,5.5-3.2,11.2-3.4,17c-0.1,3.7,0.4,7.4,2.2,10.7c1.3,2.6,2.7,5.1,4.2,7.7c2.3,4,4.7,7.9,7,11.9
		c2.4,4.1,3.9,8.5,4.6,13.2c0.6,4.2,1.2,8.4,1.6,12.6c0.6,5.4,1.1,10.9,1.1,16.4c0,1.7,0.1,3.3-0.5,5.6c-0.6-1.8-0.8-3.1-1-4.4
		c-0.9-7-2.3-13.9-4.1-20.7c-1.2-4.6-3-8.9-5.3-13c-2.6-4.7-5.7-9.1-9.2-13.2c-3-3.5-5.8-7.1-8.1-11.1c-3.5-6-5-12.4-4.5-19.3
		c0.9-14.2,4.6-27.5,12.1-39.7c1.6-2.6,3.1-5.2,4.2-8c1.4-3.4,3-6.8,4.8-10c2.1-3.8,3.4-7.8,4.1-12c0.7-4.3,0.7-8.7,0.4-13
		c-0.7-9.6-2.6-19-5.1-28.4c-1.6-5.9-3.7-11.5-6.8-16.7c-0.6-1-1-2-1.4-3c-1.6-5.3-3.4-10.7-4.9-16c-2.1-7.2-3.7-14.5-3.4-22.1
		c0.1-2.3-0.9-4.4-3.4-5.3c-1.4-0.5-2.7-1.1-4-1.8c-2.1-1-4.3-1.1-6.5-0.4c-2.7,0.8-5.1,2.3-7.1,4.3c-2,2.1-4.2,4.1-4.2,7.3
		c0,0.4-0.5,0.4-0.8,0.3s-0.6-0.4-0.8-0.6c-3.8-4.6-7.2-9.4-9.6-14.9c-1.1-2.6-1.8-5.3-1.5-8.1c0.3-4,0.6-8,0.9-12
		c0.3-3.7,0.6-7.4,1-11c0.6-5.7-1.1-10.8-3.5-15.8c-0.1-0.2-0.2-0.4-0.3-0.6c-1-1.5-1.7-1.6-2.8-0.2c-1.6,2.3-3.3,4.6-4.7,7
		c-8.8,15.1-12.7,31.4-12.9,48.7c-0.1,4.9,0.7,9.6,2.5,14.1c0.5,1.2,0.8,2.6,1.1,3.9c0,0.2-0.1,0.5-0.2,0.6
		c-0.3,0.1-0.7,0.3-0.9,0.1c-2-1.2-4-2.6-5.4-4.5c-1-1.4-2.1-2.6-3.2-3.7c0.7,3.5,1.6,6.9,2.8,10.3c1.2,3.1,2.6,6.2,3.8,9.3
		c1.3,3.2,2.5,6.4,3.9,9.6c2,4.9,0.5,9.4-1.4,13.9c-0.1,0.3-0.6,0.4-0.8,0.2c-0.5-0.4-1.1-0.8-1.5-1.3c-2.7-2.7-5.3-5.4-7.8-8.3
		c-16.6-32.5-26.6-0.7-26.5,1.8c0.1,3,0,6,0.1,9.1c0,0.9,0.1,1.8,0.2,2.7c0.4,3.1,0.8,6.2,1.1,9.3c0.2,1.7,0.4,3.5,0.7,5.2
		c1.3-4.1,2-8.3,2.1-12.6c0.1-3.4,0-6.7,0.6-10c0.2-1.1,0.5-2.2,1.1-3.1c1-1.4,2.1-1.4,3,0.2c0.4,0.7,1.3,0.3,1.4,1.1
		c0.2,0.8,0.4,1.5,0.7,2.2c1.6,5.5,3.6,10.8,5.9,16c1.7,3.8,3.8,7.4,6.2,10.7c2.5,3.4,5,6.9,7.6,10.3c0.9,1.2,1.7,2.6,3.4,3.1
		c0.6,0.2,1,0.9,1.5,1.3c10.9,11.3,18.3,24.7,23.2,39.6c0.8,2.6,1.5,5.2,2,7.8c0.2,1,0.4,2,0.8,3.7c0.5-1.1,0.8-1.5,0.9-1.9
		c2-6.8,3.6-13.6,4-20.7c0.3-4.2-0.1-8.3-0.7-12.4c-0.8-6.1-2.1-12.1-4-18c-2.2-7-2.7-14.3-2.4-21.6c0.1-2.9,0.8-5.8,1.7-8.5
		c1.2-4,2.4-7.9,3.7-11.9c0.5-1.5,0.8-3,0.8-4.6c0-2,0.2-4,0.2-6c-0.1-3.9,0.6-7.5,2.3-11c0.6-0.3,0.8,0.2,1,0.5
		c1.8,2.7,3.2,5.6,3.8,8.9c1.2,6.6,3.9,12.6,7.7,18.1c3.4,5,7,9.9,10.5,14.8c4.2,6,7.8,12.2,10.3,19.1c0.9,2.5,1.7,5.1,2.1,7.8
		c0.3,2,0.4,4-0.4,6c-1.2,2.8-1.5,5.8-2.1,8.8c-0.1,0.6,0,1.4-0.7,1.8c-0.5,0.2-0.6-0.1-0.7-0.4c-0.3-1-0.7-1.7-2-1.9
		c-1.8-0.2-3-1.5-3.9-2.9c-1.2-1.8-1.9-3.8-2.7-5.8c-1-2.6-1.9-5.2-3-7.8c-1.8-4.2-4.9-7.1-8.9-9.3c-1.2-0.6-1.7-0.4-1.7,0.9
		c0.1,3.4,0.2,6.7,0.4,10.1c0.2,3.1,0.8,6.2,1.7,9.2c1.8,5.7,1.9,11.7,1.3,17.6c-1.5,14.5-6.1,27.9-14.2,40.1
		c-3,4.5-6.2,8.7-10.7,11.8c-0.7-0.3-0.4-0.9-0.5-1.4c-0.3-2-0.3-4-0.8-6c-0.5-2.4-0.6-4.6,0.7-6.8c0.9-1.5,0.8-3.3,0.6-4.9
		c-1.1-10.8-4.2-21-10.3-30.2c-4.3-6.6-9.2-12.7-14.9-18.1c-2.3-2.2-4.3-4.5-6.4-6.8c-0.7-0.8-1.4-0.9-2.4-0.6
		c-5.5,1.8-10,4.7-13.4,9.6c-8.2,11.9-13.7,24.9-15.3,39.3c-0.7,6.5,0.4,12.7,3.5,18.5c1.3,2.5,2.8,4.8,4.2,7.2
		c1.5,2.4,2.8,4.9,3.9,7.4c1.6,3.6,2.2,7.3,1.6,11.1c-0.6,4.5-1.4,9.1-2.1,13.5c-1.1,0.3-1.3-0.5-1.5-1c-2.2-4-4.5-8-6.6-12.1
		c-1.5-3-3.8-5.3-6.4-7.2c-1.6-1.2-3.2-2.5-4.6-3.8c-3-2.9-5.4-6.3-6.8-10.3c-0.1-0.4-0.3-0.8-0.5-1.2c-1,0.2-0.9,1-1,1.5
		c-0.3,2.2-0.5,4.3-0.6,6.5c2.1,3.9,4.4,7.6,6.5,11.5c2.1,3.7,4.3,7.3,5.9,11.3c1.9,4.5,3.2,9.1,4.3,13.8c1.2,0.3,2.4,0.5,3.7,0.8
		l2.6,0.6l0.6,0.2l0.6,0.2l1.3,0.4l2.6,0.7c0.4,0.1,0.9,0.2,1.3,0.4l1.3,0.4l2.5,0.8l1.3,0.4c0.4,0.1,0.8,0.3,1.3,0.5l2.5,0.9
		l0.3,0.1c1.1-2.5,2.2-5.1,3.2-7.6c2.4-6,4.5-12.2,6.6-18.3c1-2.8,2.4-5.3,3.7-7.9c0.2-0.5,0.6-1,1.3-0.7c0.5,0.2,0.5,0.7,0.5,1.1
		c0,0.8-0.1,1.6-0.2,2.3c-0.4,2.5-1,5.1-1,7.6c-0.1,6.9-0.6,13.8,0.5,20.7c0.5,3,1.2,5.9,2.2,8.7c0.3,0.9,0.7,1.8,1.1,2.7
		c1.1,0.6,2.1,1.3,3.2,2l2.2,1.5l2.2,1.6l1.1,0.8l0.5,0.4l0.5,0.4l2.1,1.6c0.3,0.3,0.7,0.5,1.1,0.8l1,0.9l2,1.7
		c0.7,0.6,1.3,1.2,2,1.8l1,0.9l0.5,0.4l0.5,0.5c1.3,1.2,2.6,2.4,3.8,3.7c0.6,0.6,1.2,1.3,1.8,1.9l1.8,2c0.3,0.3,0.6,0.7,0.9,1l0.9,1
		l1.7,2c1.1,1.4,2.3,2.7,3.3,4.1c2.8,3.6,5.5,7.3,8.1,11c0,0.1,0.1,0.1,0.1,0.2c0.6,0.8,1.3,1.7,1.8,2.5c0.2,0.3,0.4,0.6,0.6,0.9
		c0.6,0.8,1.1,1.6,1.7,2.5c1.5,2.2,3,4.3,4.5,6.5c0.3-1.4,0.6-2.9,0.8-4.4c1.6-11.4,1.1-22.5-2.1-33.6c-0.6-1.9-1.2-3.9-1.5-5.9
		c-0.8-5.2,2.9-9,8.1-8.4c2.8,0.3,5.2,1.4,7.2,3.3c2.2,2.1,3.9,4.6,5.1,7.4c1.1,2.6,1.8,5.3,2.3,8.1c0.9,4.7,1.2,9.5,1.6,14.3
		c0.5,6.4,0.1,12.7-1.3,19c-0.5,2.5-1.1,5.1-1.8,7.6H380c2.4-1.7,4.7-3.4,6.9-5.3c1.8-1.5,3.3-3.3,4.2-5.5c1.4-3.5,3.1-7,5.3-10.1
		c4.6-6.7,8-14,11.1-21.4c2.6-6.2,4.1-12.8,3.9-19.6C411.2,605.8,410.5,601.7,409.8,597.6z"/>
	<path class="st3" d="M569.1,557.7c0.7-0.7,1.4-1.4,2.2-2.1c0.9-0.8,1.6-0.5,2,0.6c1.4,3.7,2.2,7.5,2.6,11.4c0.5,4.5-0.1,8.9-1,13.3
		c-0.6,3.2-1.9,6.2-3.3,9.1c-1.6,3.3-3.3,6.6-5.2,9.7c-0.1,2.5-0.5,5-1.3,7.5c-0.3,0.9-0.9,1.8-0.6,2.9c0.7,0.1,1.1-0.3,1.5-0.6
		c2.6-1.8,5.1-3.7,7.3-5.9c4.4-4.5,8.7-9,12.6-13.9c1-1.3,2.1-2.6,3-4.1c0.8-1.3,1-2.5,0.5-4.1c-2.1-6.2-3.4-12.5-3.7-19
		c-0.3-4.8-0.5-9.6-0.7-14.4c-0.5-12.4,1.1-24.6,4.8-36.4c0.2-0.6,0.4-1.3,0.5-1.9c0.1-1.7-1.2-2.7-2.8-2c-8.1,3.6-16.2,7.2-24.9,9
		c-0.7,0.1-1.2,0.6-1.5,1.3c-0.3,0.8-0.6,1.7-0.9,2.5c-1.2,3.3-2.5,6.5-4.2,9.5c-1.5,2.8-3.4,5.3-5.7,7.4
		c-5.6,4.9-11.9,8.2-19.3,9.5c-6.6,1.1-13.2,2.4-19.9,3c-5.1,0.5-10.3,0.9-15.4,0.6c-9.5-0.7-18.6-2.8-27.1-7.1
		c-1.7-0.9-3.5-1.5-5.4-1.8c-2.7-0.4-5.2-1.3-7.6-2.5c-7.2-3.5-13.5-8.4-18.5-14.7c-0.5-0.6-0.9-1.3-1.5-1.8c-0.4-0.4-0.8-0.9-1.3-1
		c-3.1-0.8-6.2-1.9-9.5-1.6c-2,0.2-4,0.3-6,0.6c-3.4,0.6-5.8,2.7-7.7,5.5c-0.3,0.4-0.4,1.1-0.4,1.6c-0.3,2.3-0.5,4.7-0.8,7
		c-0.3,1.8,0.1,3.6,0.9,5.2c1.9,3.9,3.7,7.9,5.7,11.8c1.3,2.5,2.6,4.9,3.9,7.3c0.1-0.7,0.4-1.4,0.9-1.7c1.2-1.1,2.6-1.7,4.3-0.9
		c2.1,1,4.2,2.1,5.7,4c1.1,1.4,2.3,2.7,3.4,4.1c2.2,2.8,4.4,5.6,6.6,8.4c1.7,2.2,3.1,4.7,4.3,7.2c3.2,6.5,6.5,13,9.7,19.5
		c0.6,1.3,1.2,2.7,2,3.9c1.1,1.7,2.3,3.3,4.4,4c3.5,1.2,7.3-0.4,9.2-3.6c2-3.3,2.9-7,3.2-10.8c0.2-1.7,0.8-1.8,2.2-0.9
		c0.6,0.4,1,0.8,1.6,1.3c3.1,2.5,6.2,5.1,9.3,7.7c3.3,2.7,6.3,5.7,9.1,8.9c3.8,4.5,7.7,9,10.9,13.9c0.6,1,1.5,1.7,2.6,2
		c2.7,0.9,6.5,0.7,8.4-3c1.4-2.8,2.2-5.8,3-8.9c1.3-5,3.2-9.8,6.4-13.9c2.5-3.2,5.2-6.4,8-9.4c4-4.2,8.3-8.1,12.5-12.1
		C555.2,571.8,562.1,564.7,569.1,557.7z"/>
	<path class="st3" d="M609.8,619.3c-0.6-1.3-1.5-2.1-2.9-2.6c-1.9-0.7-3.8-1.4-5.7-2.1c-3.7-1.3-7.3-1-10.7,0.7
		c-2.3,1.1-4,2.5-5,5.1c-2.1,5.5-5.8,9.8-10.7,13c-1.3,0.9-2.7,1.7-3.9,2.6c-4.4,3-7.6,6.9-9.6,11.8c-1.9,4.8-3.2,9.8-3.2,15
		c0,0.8-0.1,1.6-0.3,2.3c-0.7,2-2.9,2.6-4.6,1.4c0,0.3,0,0.6,0,0.9c0,1.5,0,3.1,0,4.6h33.1h14.2c0-5.1,0.4-10.1,1.2-15.1
		c0.1-0.5,0.2-1.1,0.3-1.6c0.5-2.9,1.4-5.6,2.7-8.3c1.2-2.4,2.2-4.9,3.4-7.3c1-2.1,2.1-4.2,3.2-6.3c0.4-0.7,0.7-1.4,1.1-2.1
		c0.8-1.4,0.9-2.9,0.4-4.5C611.9,624.2,610.9,621.7,609.8,619.3z"/>
	<path class="st3" d="M719,486.7C719,486.6,719,486.6,719,486.7c0-0.1-0.1-0.1-0.1-0.1L719,486.7z"/>
	<path class="st3" d="M523.6,180.1c0.4,4.6,1.7,9,4,13c0.8,1.4,1.5,2.8,2,4.2c0.1,0.3,0.3,0.7,0.4,1l0,0c2-3.8,6.3-4.9,9.9-2.4
		c2.5,1.7,4.1,4.1,4.9,7c0.6,1.9,0.9,3.9,0.9,6c-0.1,5.7,2.1,10.4,6.1,14.4c0.6,0.6,1.3,1.2,1.9,1.9c0.5,0.6,1.9,1.1,1.2,2
		c-0.5,0.7-1.7-0.1-2.4-0.4c-3.7-1.7-7.4-3.7-11.3-5.2c-2.4-0.9-4.2-2.6-5.4-4.9c-0.7-1.2-1.5-2.1-2.6-2.9c-0.1-0.1-0.3-0.2-0.4-0.3
		c-0.1,0-0.1,0-0.2,0c-1.6,0.3-2.2,1.4-2.5,2.8c-0.1,0.7-0.4,1.3-0.4,2c0,2.8-0.2,5.6,0,8.4c0.2,2.3,0.6,4.7,2.3,6.5
		c1.6,1.7,3.2,3.4,5.3,4.5c3.4,1.9,6.7,4,9.7,6.6c1.8,1.5,3.4,3.2,4.9,5c2.3,2.9,3.9,6.2,5.1,9.7c1.6,4.7,4.1,8.5,8.2,11.5
		c3.8,2.8,7.5,5.7,11,8.9c0.4-1.2,0.9-2.3,1.6-3.5c0.4-0.7,1.2-1.1,2-0.8c0.7,0.2,1,0.8,1.2,1.5c0.2,0.9,0.5,1.7,0.7,2.6
		c0.6,2.5,2.1,4.1,4.4,5.1c1.7,0.8,3.4,1.6,5.2,2.4c4.9,2.4,9.3,5.4,13.1,9.2c2.4,2.4,4.3,5.2,5.4,8.4c1,3,1.8,6,2.1,9.1
		c0.5,6.8,1.7,13.5,1.6,20.4c0,0.6,0.1,1.1,0.1,1.7c0.1,1.1,0.4,1.9,1.5,2.4c3.1,1.7,5.5,4.2,7.6,7c2.6,3.4,4.9,6.9,6.7,10.8
		c0.3,0.6,0.4,1.3,1.2,1.7c0.6-0.6,0.7-1.3,0.8-2c0.7-3.4,1.3-6.8,1.4-10.3c0.3-5.1,0.5-10.3,0.7-15.4c0.1-2.4,0.3-4.7,1.1-6.9
		c0.5-1.4,1.3-2.7,3-2.8c1.6-0.1,2.4,1.1,3,2.3c1.2,2,2.1,4.2,2.7,6.5c2.3,7.9,4.3,15.8,4.4,24c0,0.3,0,0.7,0.2,1
		c0,0.1,0.5,0.2,0.5,0.1c0.3-0.4,0.7-0.9,0.9-1.4c1.3-3.2,1.9-6.7,2.3-10.1c0.5-3.7,0.6-7.4,0.8-11c0.4-8.5,2.5-16.5,6.4-24.1
		c0.7-1.4,1.4-2.9,2.1-4.4c-0.6-3.2-1.2-6.4-1.7-9.6c-0.8-4.9-1.5-9.9-2.3-14.9c-0.5-2.9-1-5.8-1.1-8.7c-0.2,0.7-0.5,1.3-0.8,2
		c-1.5,3.5-2.8,7.1-4.1,10.6c-1.6,4.2-3.5,8.2-5.8,12c-0.3,0.5-0.4,1.1-1.2,1.1c0.4-3,0.9-6,1.3-8.9c0.3-1.9,0.5-3.8,0.7-5.7
		c0.2-3.6,0-7.1-1-10.6c-1.3-4-2.6-8-4.7-11.8c-2.3-4.1-4.6-8.1-6-12.7c-0.8-2.7-2.3-5.1-3.9-7.4c-0.4-0.5-0.8-1.1-1.2-1.6
		c-1.5-2.2-1.7-4.3,0-6.5c2.6-3.4,5.2-6.8,8.4-9.5c1.3-1.1,2.1-2.3,2.6-3.8c0.3-0.9,0.5-1.7,0.9-2.5c0.5-1,1.2-1.8,2-2.3
		c-1-0.2-2.2,0-3,0.8c-0.8,0.7-1.4,1.4-2.1,2.1c-1.6,1.8-3.4,3.2-5.6,4.2c-4,1.9-8,4-12,5.9c-3,1.5-6.2,2.6-9.6,2.9
		c-5,0.4-10,0.3-15-1c-1.3-0.3-2.6-0.6-3.9-1c-1-0.3-1.8-0.8-2.4-1.8c-2.2-3.5-4.8-6.8-7.3-10.1c-1.1-0.5-2.1-1.1-3.2-1.8
		c-1.5-1-3-1.4-4.7-1.1c-1.6,0.3-3.3,0.4-4.9,0.8c-2.8,0.6-5.8,0.8-8.5-0.5c-4.5-2.2-5.8-6.2-3.4-10.6c0.5-1,1.1-2.1,2-2.7
		c2.3-1.5,2.8-3.9,3.5-6.2c0.1-0.2,0.1-0.4,0.2-0.5c-0.1-0.3-0.2-0.6-0.3-0.9c-0.6-2.1-1.2-4.3-1.9-6.4c-0.6-1.9-1-3.7-1.1-5.7
		c0-0.6,0-1.3,0.1-1.9c0-0.3,0.1-0.6,0.1-0.9c0.1-0.6,0.2-1.3,0.3-1.9c0.1-0.3,0.1-0.6,0.2-0.9c-1.7,2-3.4,4.1-4.9,6.3
		c-1,1.4-1.9,2.7-2.9,4.1c-0.5,0.6-1,1.2-1.6,1.7c-1.4,1.1-3.2,0.4-3.6-1.3c-0.2-1.1-0.1-2.2,0.3-3.3c0.6-1.8,1.2-3.6,2-5.3
		c0.4-0.9,0.8-1.7,1.2-2.5s0.9-1.7,1.3-2.5c0.7-1.2,1.4-2.4,2.3-3.5c0.5-0.8,1.1-1.5,1.7-2.2c0.3-0.4,0.6-0.7,0.9-1.1
		c0.6-0.7,1.3-1.4,2-2c0.4-0.4,0.7-0.7,1-1.1c0.2-0.3,0.4-0.5,0.7-0.8c0.6-0.8,1.2-1.6,1.8-2.5l0,0c0.3-0.5,0.6-1,0.9-1.5
		c0.6-1,1.1-2,1.8-2.9c0.3-0.5,0.6-0.9,0.9-1.4c0.6-0.9,1.3-1.8,2-2.7c1.4-1.7,2.9-3.3,4.5-4.8c0.4-0.4,0.8-0.7,1.2-1.1
		c2.5-2.1,5.4-3.9,8.5-5.4c1.2-0.6,2.4-1.1,3.7-1.5c0.4-0.1,0.8-0.3,1.2-0.4c0.8-0.2,1.7-0.4,2.5-0.6c0.8-0.2,1.7-0.3,2.5-0.4
		c0.8-0.1,1.7-0.2,2.5-0.2c1.3,0,2.6,0,3.9,0.1c0.9,0.1,1.7,0.2,2.6,0.4c0.4,0.1,0.9,0.2,1.3,0.3c0.5,0.1,1,0.2,1.5,0.4
		c1,0.3,2,0.6,2.9,1s1.9,0.9,2.7,1.4c0.4,0.3,0.9,0.5,1.3,0.8c0.9,0.6,1.7,1.2,2.5,1.9c0.3,0.3,0.6,0.5,0.9,0.8
		c0.3,0.3,0.6,0.5,0.9,0.8c0.3-0.2,0.6-0.4,0.8-0.7c0.7-0.8,1.2-1.9,1.2-3.2c0-1.1-0.3-1.9-0.9-2.8c-1.1-1.7-1.9-3.4-2.7-5.2
		c-0.3-0.7-0.6-1.4-0.9-2.2c-0.2-0.4-0.3-0.7-0.4-1.1c-1.4-3.4-2.5-6.9-3.7-10.4c-0.1-0.3-0.2-0.7-0.4-1c-0.8-2-1.9-3.7-3.6-5
		c-0.3-0.2-0.6-0.4-0.9-0.6c-2-1.3-4.2-2.3-6.5-2.6c-3.6-0.4-6.3-2-8.5-4.7c-0.6-0.7-1.2-1.3-1.7-2.1c-0.8-1.1-1.5-2.2-2.3-3.3
		s-1.5-2.2-2.3-3.3c-0.3-0.4-0.6-0.8-0.9-1.2c-1-1.2-2.1-2.2-3.3-3c-1-0.7-2-1.3-3-1.8c-0.5-0.3-1-0.5-1.5-0.7c-1-0.4-2-0.8-3-1
		c-0.5-0.1-1-0.2-1.5-0.3c-1-0.2-2.1-0.3-3.1-0.3c-10.2,3.4-17,10.2-20.2,20.7c-0.1,0.4-0.2,0.8-0.3,1.1c-0.2,0.8-0.4,1.5-0.6,2.3
		c-0.1,0.4-0.2,0.8-0.3,1.1c-0.6,1.9-1.2,3.8-2,5.7c-0.9,2.2-2.2,3.9-4.3,5c-0.3,0.1-0.6,0.3-0.9,0.4c-0.5,0.2-0.9,0.4-1.3,0.6
		c-1.2,0.8-2.1,1.8-2.7,3.2c-0.3,0.6-0.5,1.1-0.8,1.5c-1,2-1.5,3-1.5,4c0,0.2,0,0.3,0,0.5s0.1,0.3,0.1,0.5c0.1,0.2,0.1,0.3,0.2,0.5
		c0.2,0.4,0.4,0.8,0.7,1.2c0.1,0.2,0.3,0.5,0.5,0.8s0.3,0.6,0.5,0.9c0.2,0.3,0.4,0.7,0.6,1c0.3,0.5,0.6,0.9,0.9,1.4
		c0.3,0.5,0.6,1.1,0.7,1.6c0.1,0.4,0.2,0.7,0.3,1s0.1,0.7,0.1,1c0,0.2,0,0.3,0,0.5c0,0.3-0.1,0.7-0.2,1c-0.3,1-0.9,1.9-1.7,2.9
		c-0.2,0.2-0.4,0.4-0.6,0.6c-0.6,0.6-1.3,1.1-2,1.5c-0.2,0.1-0.4,0.2-0.6,0.3c-0.4,0.2-0.8,0.3-1.2,0.4c-0.4,0.1-0.8,0.2-1.2,0.2
		s-0.8,0.1-1.2,0c-0.2,0-0.4,0-0.6,0c0,0.1,0,0.3,0,0.4c0,0.1,0,0.3,0,0.4l0,0c0,0.3,0,0.5-0.1,0.8c0,0.3-0.1,0.5-0.1,0.8
		c-0.2,1-0.5,2.1-0.8,3.1c-0.2,0.5-0.3,1-0.4,1.5c0,0.1,0,0.1-0.1,0.2c-0.1,0.2-0.1,0.3-0.2,0.5c-1.4,5.8-2.2,11.6-2.2,17.5
		c0,1.6,0.2,3.2,0.4,4.7C523.5,179,523.5,179.6,523.6,180.1z M568.6,218.5c1.1,0,2.2,0.3,3.3,0.5c1.3,0.2,2.2,0.8,3,1.9
		c1.8,2.6,4.1,4.7,6.7,6.5c3.1,2.2,6.2,4.4,9.3,6.6c3,2.1,6.3,3.4,9.7,4.5c4.5,1.4,8.9,0.5,13.2-0.8c0.8-0.3,1.5-0.9,2.7-0.7
		c-0.4,2.4-0.9,4.8-1.7,7.1c-0.3,0.9-0.9,1.5-1.6,2.1c-3.4,2.9-7.1,5.5-11.1,7.6c-2.9,1.6-6,2.3-9.4,2.3c-1.5,0-2.9,0.1-4.3,0.4
		c-4,0.9-7.7-0.3-10.5-3c-2.9-2.8-5.4-6-7.8-9.1c-3.8-4.9-5.3-10.8-6-16.9c-0.2-1.3-0.3-2.7-0.4-4
		C563.6,220.3,565.5,218.3,568.6,218.5z"/>
	<path class="st3" d="M746.8,432.5c3.5,1.7,7.1,3.2,9.4,6.6c0.4,0.5,0.9,1,1.4,1.5c2.2,2,5.3,1.7,7.1-0.6c1.1-1.4,1.5-3,1-4.7
		c-0.4-1.7-0.9-3.5-1-5.2c-0.3-3.6-0.9-7.1-1.5-10.6c-1.5-8.1-4.8-15.5-9.8-22.2c-2.5-3.3-4.9-6.6-7.4-10
		c-3.1-4.2-6.4-8.3-10.1-12.1c-3.6-3.7-7.3-7.3-10.5-11.3c-1.1-1.3-2-2.7-2.3-4.4c-0.6-3.3-1.6-6.5-2.7-9.7
		c-2.7-8.2-5.4-16.3-8.1-24.5c-0.5-1.6-0.7-3.1-0.3-4.9c1.2-5.1,1.9-10.3,1.7-15.6c-0.1-1.3-0.2-2.7,0.1-4c1-5.2,2-10.5,2.8-15.8
		c0.7-4.9,0.8-9.8,0.2-14.7c-0.5-5-1.7-9.9-3-14.7c-1.8-6.7-3.8-13.3-6.2-19.8c-3-7.9-6.2-15.8-9.9-23.4c-2.4-4.8-4.8-9.6-7.3-14.4
		c-1.2-2.2-1.9-4.5-2.3-7c-0.5-3.3-1.5-6.4-2.9-9.4c-1.3-3-3-5.8-4.9-8.6c-0.6-0.9-1.2-1.7-1.9-2.5c-1.9-2.5-4.1-4.8-6.3-7
		c0.1,0.5,0.2,0.9,0.3,1.4s0.2,0.9,0.2,1.4c0.1,1,0.2,1.9,0.3,2.9c0.1,1.1,0.2,2.1,0.4,3.1s0.5,2,0.8,3c0.2,0.5,0.4,1,0.6,1.4
		c0.6,1.4,1.3,2.8,2.2,4.1c0.4,0.6,1,1.2,0.8,2c-0.9-0.1-1.2-0.9-1.8-1.4c-1.5-1.3-3-2.7-4.5-4c-0.8-0.7-1.8-1.3-2.4-2.2
		c-0.2-0.3-0.4-0.6-0.5-1v-0.1c0-0.1-0.1-0.2-0.1-0.2c-1.5-0.7-2.6-1.9-3.7-3c-0.5-0.4-0.9-0.9-1.4-1.2c-0.3-0.2-0.5-0.3-0.8-0.5
		c-0.7-0.3-1.3-0.7-1.9-1.1c-1.2-0.7-2.4-1.6-3.6-2.5c-0.6-0.4-1.1-0.9-1.7-1.4c-0.6-0.5-1.3-1-1.9-1.4c0.3,0.7,0.6,1.5,0.9,2.2
		c2.1,5.1,3.9,10.4,5.4,15.8c0.7,2.4,1.6,4.6,2.9,6.7c0.3-0.8,1.2-1,2.3-0.7c2.7,0.9,4.8,2.7,6.8,4.7c4.1,4.2,8.3,8.5,12.4,12.8
		c5.9,6.3,10.7,13.2,13.9,21.2c1.3,3.2,2.4,6.5,3.5,9.8c0.8,2.2,1.3,4.5,1.4,6.9c0.1,1.4,0.5,2.6,1.3,3.8c1.1,1.7,2,3.5,2.5,5.5
		c0.4,1.5,1,3,1.8,4.3c1.1,2.1,1.9,4.3,2.3,6.6c0.9,5.9,1.7,11.7,2.6,17.6c0.1,0.9,0.1,1.8,0.1,2.7c0,0.9-0.1,1.9-0.1,2.9
		c-0.9-0.5-0.9-1.2-1-1.9c-0.9-3.7-2-7.3-3.3-10.9c-2.1-5.9-6-10.7-10.2-15.2c-0.6-0.7-1.4-1.2-2.1-1.7c-0.4-0.3-0.8-0.5-1.2-0.6
		c-0.8-0.3-1.5-0.2-2.2,0.4c-0.5,0.5-0.3,1-0.1,1.6c1.6,6,1.9,12.1,1.5,18.3c-0.2,3.3-0.5,6.7-0.9,10c-1.4,11.6-2.2,23.2-2.7,34.8
		c-0.1,2.6,0,5.2,0.2,7.7c0.6,6.4,2.7,11.9,7.9,16.1c2.7,2.2,4.8,5,6.8,7.9c1.4,2.1,2.5,4.3,3,6.7c1,4.3,2.6,8.3,4.4,12.3
		c0.5,1.2,0.9,2.5,1.3,3.8c0.1,0.2,0,0.5-0.1,0.6c-0.3,0.2-0.6,0.1-0.9-0.1c-1.5-1.7-3-3.3-4.4-5c-2.3-2.7-4.9-4.9-8-6.6
		c-1.8-0.9-3.4-2.1-5.1-3.3c-1.7-1.1-3.3-2.4-4.9-3.5c-2.8-1.9-6-3.1-9.3-3.5c-4.7-0.7-8.9,0.5-12.4,3.8c-1.4,1.3-2.7,2.7-3.8,4.2
		c-3.9,5.5-8.3,10.5-13,15.3c-0.2,0.2-0.5,0.5-0.7,0.8c-4.8,5.6-8.2,12-9.7,19.3c-1.3,6.1-2,12.3-2.1,18.6c0,4.4,0.5,8.7,1.8,12.9
		c0.6,2.1,1.5,4,2.6,5.8c1.8,2.8,3.6,5.7,5.3,8.6c5.1,8.9,8.4,18.5,10.4,28.6c1.4,7.6,0.9,14.9-1.6,22.2c-2.6,7.7-6.1,14.9-11,21.4
		c-0.7,1-1.5,2-2.2,3c-3.1,4.5-5.7,9.4-7.7,14.5c-1.5,3.8-2.4,7.7-2.4,11.8c-0.1,3.9,0.2,7.8,0.8,11.7c1.3,9,3.4,17.8,7,26.2
		c0.7,1.5,1.2,3.1,1.9,4.7c0.3,0.7,0.4,1.5,0.3,2.2c0,0.1,0,0.2,0.1,0.3c0-0.1,0.1-0.1,0.1,0v0.1c0.1,0.1,0,0.2,0,0h-0.1v0.1
		l-0.1-0.1c0-0.1,0-0.3,0-0.4c0-0.1,0-0.1-0.1-0.2c-3.8-6-6.6-12.4-9.7-18.8c-4.3-8.9-7.3-18.3-8.5-28.1c-0.9-7.5-1-14.9,0.1-22.4
		c0.9-5.8,2.6-11.3,4.9-16.7c2.8-6.5,5.3-13.1,7.4-19.8c0.4-1.4,0.9-2.8,1.2-4.2c0.6-2.7,0.3-5.2-1.3-7.7c-2.6-4.2-5.8-7.9-9.1-11.6
		c-0.3-0.3-0.5-0.8-1.1-0.4c0.1,0.7,0.2,1.5,0.3,2.2c0.8,6.1-0.1,12-2.5,17.7c-0.8,1.8-1.7,3.7-2.6,5.5c-1.7,3.5-3.6,7-5.3,10.5
		c-3,5.9-5.1,12.2-6.3,18.7c-1.6,8.8-2.7,17.7-3.4,26.6c-0.3,5-0.4,10.1,0.2,15.1c0.7,6.4,3.1,12.3,5.9,18.1
		c1.4,2.8,2.5,5.8,4.5,8.2c1.8,2.2,3.1,4.6,4.2,7.2c1.8,4.2,3.7,8.4,5.9,12.4c1.2,2.2,2.2,4.4,3.1,6.7c2.2,5.5,3.8,11.1,4.1,17.2
		c0.4,9-0.9,17.6-4.5,25.9c-0.3,0.6-0.6,1.2-0.8,1.8c-0.6,1.6-0.6,1.8,1.1,2.5c0.7,0.3,1.5,0.6,2.2,0.8c1.7,0.6,3.3,1.1,5,1.6
		c0.6-0.8,1.1-1.6,1.7-2.5c0.2-0.3,0.4-0.6,0.6-0.9c0.6-0.9,1.2-1.7,1.8-2.5c0-0.1,0.1-0.1,0.1-0.2c2.6-3.7,5.3-7.4,8.1-11
		c1.1-1.4,2.2-2.7,3.3-4.1l1.7-2l0.9-1c0.3-0.3,0.6-0.7,0.9-1l1.8-2c0.6-0.6,1.2-1.3,1.8-1.9c1.2-1.3,2.5-2.5,3.8-3.7l0.5-0.5
		l0.5-0.4l1-0.9c0.7-0.6,1.3-1.2,2-1.8l2-1.7l1-0.9c0.3-0.3,0.7-0.5,1.1-0.8l2.1-1.6l0.5-0.4l0.5-0.4l1.1-0.8l2.2-1.6l2.2-1.5
		c6-3.8,12.4-7.1,19-9.8c0.4-0.2,0.8-0.4,1.2-0.5l1.1-0.4c-0.4-2.7-0.4-5.5-0.8-8.2c-0.8-5.2-0.7-10.5-1-15.7
		c-0.4-6.7-0.1-13.4,0.4-20.1c0.3-3.9,0.5-7.8,1-11.7c0.6-5.1,1.7-10.1,2.6-15.1c0.1-0.6,0.2-1.3,1.1-1.7c0.4,1.1,0.7,2.1,1,3.2
		c1.4,4,3.1,7.9,5.1,11.6c1.2,2.1,2.6,4.2,3.7,6.4c2.2,4.3,4.7,8.3,7.9,12c4.2,4.8,8.6,9.4,13.6,13.4c1.5,1.2,3.1,2.1,4.7,3.2
		c2.8,2,5.5,4.1,7.3,7.3c1.2,2.2,2.9,3.9,4.7,5.6c2.3-0.1,4.6-0.1,6.9,0c0.3-0.3,0.6-0.7,0.8-1.1c0.8-1.3,0.9-2.7,0.5-4.2
		c-0.9-3.8-2.1-7.5-3.3-11.2c-3.8-11.3-7.6-22.6-10.1-34.4c-1.3-6.5-2.8-13-4.4-19.4c-3.8-3.2-7.5-6.7-11-10.3
		c-3.3-3.3-6.2-7.1-7.6-11.7c-0.1-0.2-0.3-0.4-0.5-0.4c-0.4-0.2-0.6,0.1-0.8,0.4s-0.4,0.5-0.6,0.8c-3.6,6.3-8.8,11.3-14.3,15.8
		c-1.2,1-2.5,1.9-3.8,2.7c-2.1,1.2-4.3,1.7-6.7,0.7c-1.1-0.4-1.3-0.3-1.8,0.7c-1.7,3.5-3,7.2-4.1,11c-0.4,1.3-0.7,2.6-1.6,3.6
		c-0.3,0.3-0.5,0.8-0.6,1.2c-1.3,4.8-3.6,9.4-3.9,14.5c0,0.3,0,0.8-0.5,0.7c-0.3,0-0.6-0.2-0.8-0.5c-1-1.2-2-2.5-3.1-3.5
		c-4-3.9-5.6-8.8-6.3-14.1c-0.1-1-0.2-2-0.2-3c0.3-6.5,0.6-13,1.9-19.3c0.6-2.9,1.6-5.8,1.8-8.8c0.1-1.6,0.8-3.2,1.5-4.8
		c2.5-6.4,3.7-13.1,3.8-20c0.1-10.2-0.2-20.3-1.5-30.5c-0.9-6.6-2.6-12.9-4.2-19.3c-0.3-1.3-1-2.2-2-3c-2-1.6-4-3.2-6.1-4.8
		c-7.1-5.5-11.3-12.9-13.4-21.5c-1-4.1-1-8.2-0.3-12.3c0.5-2.7,1.5-5.2,3.5-7.1c0.5-0.4,0.9-1.1,1.6-0.9c0.6,0.2,0.5,0.9,0.6,1.5
		c0.3,1.4,0.5,2.9,0.8,4.3c1.3,6.9,4.4,12.9,9.1,18.1c1.5,1.7,3.2,3.1,5.2,4.2c0.3,0.2,0.6,0.3,0.9,0.5
		c10.9,5.4,19.2,13.8,26.1,23.6c6.5,9.3,10.6,19.6,11.9,31c0.5,3.9,0.6,7.8,0.7,11.7c0,3.8-0.3,7.6-1.1,11.3c-0.2,1-0.6,1.9,0,2.9
		c1.7-2.6,3.4-5.1,5.2-7.7c1.3-2,2.2-4.1,2.7-6.4c0.9-4.2,1.9-8.3,3.4-12.3c0.7-1.8,1.1-3.6,1.1-5.6c0-2.4,1.2-4.5,1.5-7
		c0.9,0.6,1.6,1.4,2.6,1.5c0.1,0,0.3,0.3,0.4,0.5c1.1,2,2.9,3.7,3.7,6c0.7,2,1.5,4,2.1,6c1.9,6.7,3.7,13.4,5.2,20.1
		c0.2,1.1,0.5,2.2,0.8,3.3c2,9.2,6.6,17.1,12.6,24.2c0.2,0.3,0.4,0.5,0.7,0.8c1.7-3.2,1.9-6.7,1.4-10.2c-0.4-2.8-0.4-5.6-0.5-8.3
		c-0.1-1.1,0.1-2.3-0.2-3.3c-0.7-3.2-0.4-6.4-1.1-9.6c-0.5-2.3-0.6-4.6-1-6.9c-1.1-6.3-2.7-12.4-4.7-18.5
		c-2.1-6.4-4.6-12.6-8.2-18.3c-0.5-0.7-1-1.5-0.9-2.4c0.2,0,0.5,0,0.7,0.1C746.6,432.4,746.7,432.4,746.8,432.5z M745.8,432.3
		L745.8,432.3c-0.1-0.1-0.2-0.1-0.2-0.2C745.6,432,745.7,432,745.8,432.3L745.8,432.3L745.8,432.3z"/>
	<path class="st3" d="M339.7,189.8c0.5,0.2,0.8-0.2,1.1-0.5c0.1-0.2,0.2-0.4,0.4-0.6c2.1-3.5,4.6-6.8,7.3-9.9c0.9-1,1.8-2,2.7-3.1
		c2.7-2.9,5.4-5.7,8.3-8.4c0.4-0.4,0.8-0.8,1.2-1.2c0.4-1.1,0.9-2.2,1.3-3.4c0.5-1.4,1.4-2.5,2.6-3.4c2-1.6,4-3.3,5.9-5
		c1.2-1,2.3-2,3.6-2.8c1.2-0.8,2.5-1.6,3.9-2.3c2.7-1.3,5.5-2.3,8.5-3c1.6-0.3,3.1-0.5,4.6-0.5c0.3,0,0.5,0,0.8,0
		c0.5,0,1,0.1,1.5,0.1c0.5,0.1,1,0.1,1.5,0.3c0.5,0.1,1,0.2,1.5,0.4s1,0.4,1.5,0.6c0.2,0.1,0.5,0.2,0.7,0.3c0.7,0.3,1.3,0.7,1.9,1.2
		c0.2,0.1,0.4,0.3,0.6,0.5c0.7,0.6,1.4,1.4,1.8,2.4c0.2,0.5,0.6,1,1,1.4c0.2,0.2,0.4,0.4,0.6,0.5c0.2,0.2,0.4,0.3,0.7,0.5
		c0.6,0.4,1.2,0.9,1.7,1.3c1.1,0.9,2.2,1.9,3.1,3c0.5,0.5,0.9,1.1,1.4,1.7c1.5,2,3,4.1,4.4,6.1c1.5,2,2.9,4.1,4.4,6.1
		c0.3,0.4,0.6,0.8,0.8,1.2c1.3,2.1,2.1,4.4,2.5,6.8c0.2,1,0.3,1.9,0.4,2.9c-0.7,0.1-1-0.4-1.3-0.8c-1.3-1.9-2.7-3.7-4.1-5.6
		c-0.1,0.2-0.1,0.5-0.1,0.7s0,0.5,0.1,0.7c0,0.2,0.1,0.5,0.2,0.7s0.2,0.5,0.4,0.7c0.9,1.5,0.9,3.2,0.5,4.9c-0.2,0.7-0.4,1.6-0.3,2.3
		c0.1,0.4,0.1,0.8,0.2,1.2c1.4,1.8,2.3,4,2.7,6.2c0.5,2.7,1.4,5.1,3.4,7.1c0.7,0.7,1.2,1.6,1.7,2.5c1.7,3.2,1.2,6.3-1.6,8.7
		c-0.5,0.4-1,0.9-1.7,1.1c-2,0.7-3.3,2.1-4.6,3.7c-1.6,2-3.8,3.5-6.1,4.7c-0.5,0.3-1,0.5-1.5,0.8c-0.3,1.1-0.5,2.2-0.6,3.4
		c0,0.8,0.4,1.6,0.8,2.4c0.1-0.1,0.1-0.2,0.2-0.3l0,0c0.1-0.1,0.2-0.2,0.3-0.3c0,0,0.1,0,0.1-0.1c0.1-0.1,0.2-0.2,0.3-0.3l0.1-0.1
		c0.1-0.1,0.2-0.2,0.3-0.2c0.1,0,0.1-0.1,0.2-0.1c0.1-0.1,0.2-0.1,0.3-0.2c0.1-0.1,0.2-0.1,0.3-0.1c0.1,0,0.1-0.1,0.2-0.1
		c0.2-0.1,0.3-0.2,0.5-0.2c2-0.8,3.4,0.1,3.3,2.2c0,0.4-0.1,0.9-0.2,1.3c-1.6,6.4-2.9,12.9-5.1,19.1c-1.6,4.5-4.1,8.4-7.7,11.6
		c-1.8,1.6-3.9,2.6-6.2,3c-0.9,0.2-1.8,0.1-2.6-0.1c-1.7-0.4-2.7-1.4-2.9-3.2c-0.1-0.9-0.1-1.8-0.2-2.7c-0.6-3.4-3.1-4.9-6.4-3.9
		c-0.7,0.2-1.5,0.5-2.1,1c-2.1,1.3-4.2,2.5-6.1,4.1c-4.5,3.7-8.8,7.6-12.7,11.9c-5.2,5.8-8.9,12.5-11.8,19.7
		c-0.3,0.7-0.6,1.5-0.8,2.2c-0.5,1.5-1.1,1.9-2.8,1.2c-2-0.9-3-2.6-3.6-4.6c-0.8-3-1.5-6.1-2-9.2c-0.6,3.7-0.8,7.4-0.6,11.2
		c-0.2,4.9,0.2,9.9,1.2,14.9c0.5,2.5,1,5,1.2,7.6c0.2,2.7,0.7,5.2,1.9,7.6c3.9-9,9.3-17.2,15.7-24.7c1-1.2,2.2-2.3,3.6-3
		c0.7-0.4,1.3-0.1,1.5,0.7c0.3,1.9,0.1,3.8-0.3,5.7c-1.2,5.4-2.9,10.6-4.6,15.8c-1.6,4.8-2.7,9.7-3.5,14.7
		c-0.9,6.5,0.4,12.7,2.6,18.7c0.2,0.6,0.8,0.6,1.2,0c2.7-4.2,5.9-8.2,9-12.1c0.8-1,1.4-2,2.1-3c1.2-1.8,1.9-3.8,2.3-5.9
		c1.4-7.6,3.5-15,5.9-22.4c1.2-3.8,3.1-7.2,5.8-10.1c3.1-3.4,6.5-6.5,9.9-9.5c2.7-2.3,5.9-3.5,9.4-4c1.1-0.2,2.2-0.3,3.3,0.1
		c0.7,0.2,1.3,0.6,1.7,1c1.7-2.4,3-4.9,3.1-8.1c0.2-5.6,1.3-10.9,5.6-14.9c0.2-0.1,0.2-0.4,0.4-0.5c2.7-3.3,5.3-6.6,8.5-9.5
		c1.1-1,2.3-1.8,3.3-2.8c2.2-2.1,4.5-4,7-5.7c4.7-3.4,8.6-7.4,11.4-12.5c1.8-3.4,3-7,3.3-10.8c0.3-3-0.2-6-1.4-8.8
		c-0.3-0.6-0.4-1.1-0.5-1.7c-1,1-1,2.4-0.8,3.9c0.1,0.7,0.2,1.3,0.3,2c0.6,3.9,0,7.6-1.8,11c-0.6,1.1-1,2.2-1.4,3.4
		c-0.6,2-1.8,3.6-3.8,4.4c-2.9,1.2-6,1.9-9.2,2.3c-0.4-0.1-0.8-0.2-1.2-0.4c-0.3-0.2-0.5-0.5-0.3-0.8s0.4-0.5,0.7-0.7
		c0.6-0.5,1.2-1,1.8-1.5c1.8-1.4,2.7-3.2,2.2-5.6c-0.5-2.2-0.7-4.4-1-6.6c-0.9-5.1,0.9-9.2,4.5-12.7c1.2-1.2,2.4-2.3,3.6-3.4
		c1.2-1.1,2.6-1.7,4.2-2c1.5-0.3,3,0.5,3.7,1.7c0.2,0.3,0.3,0.6,0.4,0.9c3.8-6.1,5-12.6,3.7-19.8c-0.4-2.1-0.5-4.3,0.4-6.3
		c0.1-0.3,0.3-0.6,0.4-0.9c0.2-0.3,0.3-0.6,0.5-0.9c0.1-0.3,0.3-0.6,0.4-0.9c0.2-0.5,0.4-0.9,0.5-1.4c0.1-0.2,0.1-0.3,0.2-0.5
		c0.2-0.4,0.3-0.8,0.5-1.2s0.3-0.8,0.5-1.2c0.3-0.8,0.6-1.6,0.8-2.4c0.5-1.6,0.8-3.2,0.9-4.9c0.1-1,0.1-2,0.1-3c0-0.5,0-1,0-1.5
		s0-1,0-1.5c-0.8-0.1-1.5-0.3-2.2-0.6c-0.4-0.1-0.7-0.3-1-0.4c-0.5-0.2-1-0.5-1.4-0.9c-1-0.8-1.9-1.8-2.6-3.2
		c-0.1-0.3-0.3-0.5-0.4-0.7c-0.5-0.6-1.1-0.9-1.8-1.2c-0.4-0.2-0.7-0.4-0.9-0.7c-0.2-0.2-0.3-0.5-0.4-0.8c0-0.1,0-0.3,0-0.4
		c0-0.3,0.2-0.6,0.4-0.9c0.1-0.2,0.2-0.3,0.4-0.5c0.7-0.8,1.4-1.6,2.1-2.5s1.2-1.7,1.7-2.6c0.8-1.4,1.5-2.8,2.3-4.2
		c0.2-0.5,0.5-1,0.7-1.4c0.1-0.2,0.2-0.4,0.2-0.5c0.7-1.6,0.9-3.2,0.2-4.9c-0.3-0.8-0.5-1.7-0.8-2.5l0,0l0,0c-2-5-4-10-6.1-14.9
		c-0.2-0.6-0.5-1.2-0.8-1.7c-0.6-1.1-1.2-2.2-1.8-3.3c-1.7-2.6-3.7-5-6-7.3c-0.3-0.2-0.5-0.5-0.8-0.7c-0.5-0.5-1.1-0.9-1.6-1.3
		c-0.3-0.2-0.6-0.4-0.8-0.5c0.2,0.7,0.3,1.4,0.4,2c0.1,0.7,0.3,1.4,0.4,2c0.4,2,0.6,4.1,0.8,6.2c0.1,1.4,0.2,2.8,0.2,4.1
		c0,0.7,0,1.4,0,2.1c0,0.3,0,0.6,0,0.8c-0.1,1.3-0.3,2.3-0.6,3.1c-0.3,0.6-0.7,1.1-1.3,1.5c-0.1,0.1-0.3,0.2-0.5,0.3
		c-0.3,0.2-0.7,0.3-1.1,0.4c-0.6,0.2-1.4,0.3-2.2,0.5c-0.7,0.1-1.3,0.2-2,0.3c-4.6,0.7-9.3,1.2-14,1.2c-0.6,0-1.3,0-1.9-0.1
		c-1.9-0.1-3.7-0.5-5.4-1c-2.3-0.7-4.6-1.7-6.7-2.9c-0.4-0.3-0.9-0.5-1.3-0.7c-0.9-0.5-1.8-0.9-2.7-1.3c-0.5-0.2-0.9-0.4-1.4-0.5
		c-2.3,2.9-5.5,4.5-9.4,4.7c-1.4,0.1-2.9,0-4.9,0c-2.7-0.4-5.4-0.1-8,0.8c-1.8,0.6-3.5,1.4-5.2,2.4c-0.3,0.2-0.6,0.3-0.8,0.5
		c-1.4,0.9-2.9,1.7-4.3,2.6c-2.1,1.3-4.2,2.6-6.6,3.2c-1.2,0.3-2.2,1-2.9,2.1c-1.1,1.5-2.3,3-3.5,4.5c-0.3,0.4-0.6,0.8-1,1.2
		c-0.2,0.2-0.3,0.4-0.5,0.6c-0.2,0.2-0.4,0.4-0.5,0.5c-1,0.9-2.2,0.7-2.9-0.1c0,0.1-0.1,0.2-0.1,0.3c-0.3,0.7-0.6,1.4-0.8,2.1
		c-0.5,1.4-1.1,2.8-1.6,4.2c-0.3,0.7-0.6,1.4-0.9,2.1c-0.5,1.2-1.1,2.4-1.6,3.6c-1.1,2.4-2.2,4.8-3.3,7.2c-0.5,1.2-1.1,2.4-1.6,3.6
		c-0.2,0.6-0.5,1.1-0.7,1.7c-0.9,2.3-1.7,4.6-2.5,6.9c-0.5,1.8-1,3.5-1.4,5.4c-0.3,1.4-0.4,2.9-0.5,4.3c-0.1,1.4-0.2,2.9-0.5,4.3
		c-0.2,1.1-0.2,2.2,0.4,3.3C339.2,189.4,339.4,189.7,339.7,189.8z"/>
	<path class="st3" d="M273.5,340.4c1.1,6.8,3.5,13.2,6.6,19.3c-0.7-9.2,0.3-18.2,2.8-27c1.8-6.5,4.5-12.7,7.5-18.7
		c3.1-6.1,6.3-12.1,9.8-18c5-8.6,9.2-17.6,12.8-26.9c1.4-3.7,1.8-7.4,1.3-11.2c-0.3-2.4-0.8-4.9-1.1-7.3c-0.2-1.7-0.7-3.2-1.6-4.7
		c-1.8-2.9-3.3-6.1-4.7-9.3c-1-2.4-1.8-4.8-2.3-7.2c-0.5,1.9-1,3.9-1.5,5.8c-2,7.9-5.4,15.1-9.8,21.9c-4.5,6.9-8.6,14.1-12.1,21.6
		c-2.4,5.2-4.5,10.5-5.9,16c-1.2,4.5-2,9.1-2.7,13.8c-0.7,4.3-0.1,8.7-1.2,13c-0.2,1.9,0.6,3.8,0.6,5.7
		C272,331.6,272.7,336,273.5,340.4z"/>
	<path class="st3" d="M451.6,264.7c-2.4,3.1-4.8,6.1-7.7,8.8c-1.4,1.3-2.4,2.9-3.1,4.7c-1.3,3.2-2.6,6.4-3.8,9.7
		c-0.1,0.2-0.1,0.3-0.2,0.5c1.9-1.1,4-2,6.3-2.6c1.3-0.3,2.6-0.7,3.8-1.2c0.6-0.3,1.2-0.6,1.8-0.8c0.3-0.2,0.5-0.3,0.8-0.3
		c4.1-1.6,8.5-2.5,12.9-3.1c2.2-0.3,4.4-0.6,6.5-1.5c1.4-0.6,3-0.8,4.6-1c2.7-0.3,5.3-0.6,8-0.7c8.7,0,17.4-0.5,26.2-0.2
		c7.7,0.3,15.1,1.6,22.4,4c3.1,1.1,6.1,2.3,8.9,3.9c0.1-0.5,0.2-1,0.2-1.5c0.1-1.2-0.2-2.5-0.9-3.7c-1.3-2.2-2.6-4.4-3.8-6.7
		c-2.4-4.2-5.8-7.3-10.1-9.5c-1.1-0.5-2.2-1.2-3.1-2c-3-2.5-6.6-4.1-10.2-5.7c-5.9-2.6-12.1-4.1-18.4-4.6
		c-7.1-0.5-14.2-0.4-21.2,1.6c-5.1,1.5-9.8,3.7-14.1,6.7C455.2,261.1,453.2,262.6,451.6,264.7z"/>
</g>
<g>
	<path class="st4" d="M246.7,592.7c4.4,0.6,8.7,1.4,13,2.3c-1.2-4.7-2.5-9.3-4.3-13.8c-1.6-3.9-3.8-7.6-5.9-11.3
		c-2.1-3.8-4.4-7.6-6.5-11.5c-0.2,4-0.2,7.9,0.1,11.9c0.5,7.2,1.8,14.2,3.4,21.2C246.5,591.9,246.6,592.3,246.7,592.7z"/>
	<path class="st4" d="M296.7,570.2c0.1-0.8,0.2-1.5,0.2-2.3c0-0.4,0-0.9-0.5-1.1c-0.7-0.3-1.1,0.2-1.3,0.7c-1.3,2.6-2.7,5.1-3.7,7.9
		c-2.2,6.1-4.2,12.3-6.6,18.3c-1,2.6-2.1,5.1-3.2,7.6l1,0.4c0.4,0.1,0.8,0.3,1.2,0.5c5.5,2.2,10.7,4.8,15.8,7.8
		c-0.4-0.9-0.8-1.8-1.1-2.7c-1-2.9-1.7-5.7-2.2-8.7c-1.2-6.9-0.7-13.8-0.5-20.7C295.7,575.3,296.3,572.7,296.7,570.2z"/>
	<path class="st4" d="M739.5,575.3c-5-4-9.4-8.5-13.6-13.4c-3.2-3.7-5.7-7.7-7.9-12c-1.1-2.2-2.5-4.2-3.7-6.4
		c-2.1-3.7-3.8-7.6-5.1-11.6c-0.4-1-0.7-2.1-1-3.2c-0.9,0.4-1,1.1-1.1,1.7c-0.9,5-2,10.1-2.6,15.1c-0.5,3.9-0.7,7.8-1,11.7
		c-0.4,6.7-0.8,13.4-0.4,20.1c0.3,5.2,0.2,10.5,1,15.7c0.4,2.7,0.4,5.5,0.8,8.2l0.1-0.1l2.5-0.9c0.4-0.2,0.8-0.3,1.3-0.5l1.3-0.4
		l2.5-0.8l1.3-0.4c0.4-0.1,0.9-0.2,1.3-0.4l2.6-0.7l1.3-0.4l0.6-0.2l0.6-0.2l2.6-0.6c6.9-1.6,13.9-2.8,21-3.6
		c4.1-0.4,8.2-0.7,12.3-0.8c-1.8-1.7-3.5-3.5-4.7-5.6c-1.7-3.2-4.4-5.3-7.3-7.3C742.6,577.4,741,576.4,739.5,575.3z"/>
	<path class="st4" d="M652.9,217.2c1,3,1.9,5.9,2.7,9c1.5,5.9,2.3,11.8,2.7,17.9c0.3,4.8,0.7,9.6,0.1,14.4
		c-0.5,3.9-1.3,7.6-2.6,11.2c0.1,2.9,0.6,5.8,1.1,8.7c0.8,4.9,1.5,9.9,2.3,14.9c0.5,3.2,1.1,6.4,1.7,9.6c2.7-5.8,5-11.9,7.3-17.9
		c0.5-1.2,0.8-2.6,1.2-3.9c2.1-7.4,3.9-14.9,4.1-22.7c0.2-5.9-0.2-11.9-0.6-17.8c-0.5-7.3-1.3-14.5-3.2-21.5
		c-1-3.6-1.9-7.1-2.9-10.7c-1.8-5.9-3.1-11.9-4.3-17.9c-0.1-0.5-0.2-1.1-0.2-1.7c0-0.4,0.1-0.7,0.2-1c-1.2-2.1-2.2-4.3-2.9-6.7
		c-1.5-5.4-3.3-10.6-5.4-15.8c-0.3-0.7-0.6-1.5-0.9-2.2c-0.3-0.2-0.6-0.3-0.8-0.5c-0.3-0.2-0.6-0.3-0.9-0.4
		c-4.1-1.8-7.3-4.5-9.6-8.1c-0.4-0.6-0.7-1.2-1.1-1.9c-0.3-0.6-0.6-1.3-0.9-2c-0.3-0.7-0.6-1.5-0.9-2.2c-0.8-2.2-1.6-4.4-2.2-6.7
		c-2.5-8.8-7.3-16.2-13.7-22.7c-0.2-0.2-0.5-0.5-0.7-0.7c-0.5-0.5-1-1.1-0.5-1.8c0.3-0.5,1-0.6,1.5-0.5c0.6,0.1,1.3,0.3,1.9,0.7
		c0.8,0.4,1.5,0.9,2.2,1.5c5.6,4.9,10.8,10.1,14.2,16.8c0.8,1.6,2,2.6,3.4,3.6c1.9,1.1,3.8,2.2,5.7,3.3c1.9,1,3.9,2,5.8,3
		c2,1,3.9,2.1,5.8,3.3c1.3,0.8,2.4,1.8,3.5,2.8c1.5,1.5,2.8,3.3,3.7,5.2c0.5,1,0.9,2,1.3,3c0.4,1,0.7,2.1,0.9,3.2
		c0.1,0.5,0.2,1.1,0.3,1.6c2.2,2.2,4.3,4.5,6.3,7c0.6,0.8,1.3,1.7,1.9,2.5c1.9,2.7,3.6,5.6,4.9,8.6c1.3,3,2.3,6.1,2.9,9.4
		c0.4,2.4,1.1,4.8,2.3,7c2.5,4.8,4.9,9.6,7.3,14.4c3.7,7.6,6.9,15.5,9.9,23.4c2.5,6.5,4.5,13.1,6.2,19.8c1.3,4.8,2.4,9.8,3,14.7
		c0.5,4.9,0.5,9.8-0.2,14.7c-0.8,5.3-1.7,10.6-2.8,15.8c-0.3,1.3-0.1,2.7-0.1,4c0.2,5.3-0.5,10.5-1.7,15.6c-0.4,1.7-0.3,3.3,0.3,4.9
		c2.7,8.2,5.4,16.3,8.1,24.5c1.1,3.2,2.1,6.4,2.7,9.7c0.3,1.7,1.2,3.1,2.3,4.4c3.3,4,6.9,7.6,10.5,11.3c3.7,3.8,7,7.8,10.1,12.1
		c2.4,3.3,4.9,6.7,7.4,10c5,6.6,8.3,14,9.8,22.2c0.7,3.5,1.2,7,1.5,10.6c0.1,1.8,0.6,3.5,1,5.2c0.4,1.8,0.1,3.3-1,4.7
		c-1.8,2.3-4.9,2.5-7.1,0.6c-0.5-0.4-1-0.9-1.4-1.5c-2.3-3.4-5.9-4.9-9.4-6.6c-0.1,0-0.1-0.1-0.2-0.1c-0.2,0-0.5,0-0.7-0.1
		c-0.1,0.9,0.5,1.7,0.9,2.4c3.5,5.7,6.1,11.9,8.2,18.3c1.9,6.1,3.6,12.2,4.7,18.5c0.4,2.3,0.5,4.7,1,6.9c0.7,3.2,0.4,6.5,1.1,9.6
		c0.2,1.1,0.1,2.2,0.2,3.3c0.1,2.8,0.1,5.6,0.5,8.3c0.5,3.5,0.4,7-1.4,10.2c2.4,2.8,4.6,5.7,6.8,8.7c4.8,6.8,7.9,14.3,9.1,22.5
		c0.2,1.2,0.2,2.4,0.3,3.7c0.1,1.5-0.1,2.9-0.8,4.2c-1.2,2.4-2.3,4.8-3.5,7.3c-0.1,0.2-0.3,0.4-0.5,0.4c-0.4,0-0.4-0.4-0.5-0.7
		c-0.1-1-0.4-1.2-1.1-0.3c-0.2-0.1-0.4-0.2-0.5-0.4c-1-2.4-2.1-4.7-3.1-7c-1.7-4-4-7.8-6-11.6c-0.5-1-1.2-1.9-1.7-2.9
		c-2-3.4-4.6-6.2-7.8-8.6c-1.8-1.3-3.6-2.7-5.3-4.2c1.6,6.5,3.1,12.9,4.4,19.4c2.4,11.7,6.2,23,10.1,34.4c1.3,3.7,2.4,7.4,3.3,11.2
		c0.3,1.5,0.2,2.9-0.5,4.2c-0.2,0.4-0.5,0.8-0.8,1.1c0.7,0,1.5,0,2.2,0.1c3.6,0.3,7.1,0.6,10.7,1.1c1.8,0.2,3.5,0.6,5.3,0.9
		c0.9,0.2,1.8,0.4,2.6,0.6c0.4,0.1,0.9,0.2,1.3,0.3l1.3,0.3l1.3,0.3l0.7,0.2l0.6,0.2l2.6,0.7c1.7,0.5,3.4,1.1,5.1,1.7
		c1.8,0.7,3.7,1.4,5.5,2.2c0.8,0.2,1.6,0.5,2.4,0.8c0.4-2.2,0.8-4.3,1.1-6.5c0.7-4.3,1.6-8.6,1.6-13c0-8.7-1.5-17.1-5-25.2
		c-3-6.9-6.3-13.6-9.8-20.2c-0.2-0.5-0.5-1-1-1.2l0,0l0,0l0,0l0,0c0-0.6,0-1.2,0-1.9c0,0,0-0.1-0.1-0.1h-0.2l0.2-0.1l0,0l0,0
		l0.1,0.1v0.1c0.3,0.6,0.3,1.2,0,1.9l0,0c1.3-0.3,1.7,0.8,2.2,1.6c4.4,7,8.5,14.2,12.4,21.5c3.4,6.2,5.7,12.9,7.3,19.8
		c1.6,7.1,2.4,14.3,2.6,21.6c0.1,2.5,0.2,5,0.4,7.5c1.2,0.7,2.4,1.4,3.7,2.2c1.6-3.5,3.4-6.9,5.4-10.2c1.6-2.6,2.5-5.5,3.1-8.5
		c2.1-10.9,3.4-21.9,2.2-33c-1.1-10.3-3-20.4-7.3-29.9c-2.9-6.5-6-13-9.5-19.3c-4.5-8.1-9.1-16.2-13.7-24.3
		c-0.8-1.4-1.5-2.8-1.9-4.3c-2.7-8.3-5-16.7-5.8-25.5c-0.1-0.6-0.2-1.1-0.3-1.6c0-0.1-0.1-0.2-0.2-0.2c-0.2-0.1-0.5-0.1-0.6,0.2
		c-0.2,0.6-0.5,1.2-0.6,1.9c-1.4,5.6-2.9,11.3-4.3,16.9c-0.5,2.1-0.7,4.2-0.7,6.3c0,4.5,0.5,8.9,1,13.4c0.2,1.3,0.4,2.6,0.2,3.9
		c-0.8-0.2-0.9-0.8-1.1-1.3c-0.7-2.1-1.5-4.2-2.1-6.4c-1.7-6.1-3.3-12.3-5-18.5c-0.6-2.3-1-4.6-1.1-6.9c-0.6-16.1,1-32,5.6-47.5
		c1.6-5.5,2.9-11,4-16.6c0.4-2.2,0.6-4.4,0.6-6.7c-0.1-7.3-0.2-14.5-0.9-21.8c-0.5-5.5-1.1-10.9-1.7-16.4c-1.1-8.8-3-17.4-4.9-26
		c-1.7-7.9-3.8-15.7-6.1-23.4c-0.2-0.5-0.2-1.1-1-1.1c0,0.7,0,1.3,0,2c0.3,4.6,0.2,9.2-0.3,13.7c-0.7,6.5-1.8,12.9-5,18.7
		c-3.4,6.2-6,12.7-8.6,19.3c-0.8,2-1.6,3.9-2.5,5.9c-0.3,0.7-0.7,1.4-1.1,2.1c-0.1,0.1-0.4,0.2-0.6,0.2c-0.2,0-0.4-0.3-0.4-0.4
		c0-0.9,0.1-1.8,0.2-2.7c0.5-2.6,1-5.3,1.5-7.9c1.2-6.3,1.9-12.6,1.6-19c-0.1-2.3-0.1-4.7-0.1-7c0.3-14.2-1.2-28.1-4.7-41.9
		c-0.9-3.4-2-6.6-3.7-9.7c-1.7-3-3.4-6-4.9-9.2c-3.5-7.5-8.2-14.1-13.3-20.5c-0.8-1-1.7-2.1-2.5-3.2c-3.2-4.2-6.2-8.5-8.9-13
		c-3.1-5.1-5.1-10.7-6.1-16.6c-1.1-6-1.6-12-2-18c-0.3-4.9-0.6-9.8-1.2-14.7c-0.3-2.4-1.1-4.5-2.5-6.5c-1.7-2.4-3.2-4.9-4.8-7.4
		c-0.5-0.8-1-1.7-1.5-2.5c-1.4-2.3-2.8-4.5-4.4-6.6c-1.1-1.4-2.2-2.8-3.4-4.1s-2.4-2.5-3.8-3.7c-0.7-0.6-1.4-1.2-2.1-1.7
		c-4.6-3.6-9.1-7.2-13.8-10.7c-6.2-4.7-11.8-10-16.5-16.1c-1.3-1.7-2.9-3.1-4.7-4.3c-3-2-6-3.9-8.8-6.2c-7-5.8-13.8-11.8-20-18.4
		c-8.7-9.3-18.3-17.7-27.9-26.1c-4.4-3.9-9.3-7-14.8-9.1c-5.4-2.1-10.9-4-16.5-5.5c-7.7-2.1-15.4-3.9-23.4-4.5
		c-5.6-0.4-11.2-0.7-16.7-1.2c-12-1.1-23.9-0.5-35.9,0.3c-1,0.1-16.9,1.9-21.8,2.6c-7.6,1.1-15.3,2-23,2.1c-0.7,0-1.3,0.1-2,0.2
		c-8.9,1-17.5,3.8-26,6.5c-0.8,0.3-1.7,0.7-2.5,1.1c-6.3,3.2-12.6,6.3-18.8,9.7c-6.6,3.6-12.7,8-17.9,13.5c-3,3.2-6,6.3-9,9.5
		c-3.2,3.4-6.6,6.7-10.1,9.9c-4,3.5-8.3,6.5-13.1,8.8c-3.7,1.8-7.5,3.6-11.2,5.4c-3.6,1.7-6.7,4-9.4,6.9c-1.6,1.7-3.1,3.5-4.6,5.4
		c-2.8,3.5-4.7,7.4-5.6,11.7c-0.5,2.2-0.9,4.4-1.4,6.6c-0.2,1.1-0.4,2.2-0.7,3.3c-0.2,1.1-0.4,2.2-0.6,3.3c-0.5,2.7-1.1,5.4-1.8,8
		c-1.7,6.1-4,11.9-7.1,17.3c-0.9,1.6-1.8,3.1-2.8,4.6c-2,3-4.2,5.9-6.7,8.6c-1.6,1.8-2.8,3.7-4,5.8c-0.9,1.6-1.5,3.3-1.8,5
		c-0.3,1.8-0.6,3.5-0.8,5.3c-0.4,3-0.9,6-2,8.8c-1.3,3.7-2.6,7.4-4,11c-0.6,1.7-1.2,3.4-1.5,5.1c-1.2,6.6-2.9,13.1-5,19.5
		c-2.4,7.5-5.7,14.6-10,21.2c-5.3,8.3-9.3,17-10.9,26.9c-1,6.6-1.3,13.1,0.8,19.6c0.5,1.5,0.8,3,0.9,4.6c0.4,4.6,1.5,9,3.1,13.3
		c1.1,2.9,2.2,5.9,3.3,8.8c1.3,3.4,2.8,6.8,3.9,10.3c3.1,9.4,5,19,3.8,29c-0.9,7.1-2.1,14.2-4.7,20.9c-0.8,2-1.6,3.9-2.8,5.7
		c-0.2,0.3-0.5,0.8-1.1,0.6c-0.1-0.3-0.2-0.6-0.2-0.9c0.1-3.9-0.4-7.8-1.3-11.7c-0.2-0.8-0.3-1.6-0.2-2.3c0.5-4.4-0.3-8.7-1.2-13
		c-2.2-10.6-5.1-20.9-10.1-30.5c-1.2-2.3-2.4-4.6-3.6-6.9c-1.8-3.5-3.5-7-4.5-10.8c-0.1-0.4-0.3-0.8-0.7-1.1c-0.6,0-1,0.5-1.3,0.9
		c-2.1,2.3-4.1,4.8-5.8,7.4c-5.5,8.3-9.3,17.4-11.7,27c-1.8,6.9-2.2,13.9-1.4,21c0.6,5.9,1.9,11.7,3.5,17.4c0.4,1.5,1,3,1.6,4.4
		c1.6,3.6,3,7.2,4.3,10.9c1.6,4.5,2.4,9.1,2.7,13.8c0.1,1.8,0,3.6-0.6,5.3c-0.4,1.2-0.5,2.4-0.6,3.6c-0.3,4.8-1.2,9.5-2.9,14.1
		c-1.9,5.2-4.5,10-7.4,14.6c-6.8,10.8-13.9,21.4-22.1,31.2c-5.3,6.3-9.2,13.5-11.8,21.3c-4.7,14-7.3,28.3-7.1,43.2
		c0.1,9.9,1.5,19.6,4,29.1c0.5-0.2,1-0.5,1.5-0.7c-0.7-6.5-0.7-13.1,0.1-19.6c0.7-5.1,1.4-10.2,2.3-15.3c1.7-9.9,5.8-18.8,11.9-26.7
		c3.2-4.2,7.1-7.8,11.8-10.3c1.6-0.9,3-1.9,4.5-2.9c0.5-0.4,1-1,1.9-0.7c0.1,2.5-0.3,4.8-1.6,7c-1.4,2.3-2.7,4.6-4.1,6.9
		c-1.2,1.9-2.2,3.9-3.1,6c-3.6,8.4-5.9,17.1-7.3,26.1c-0.8,4.9-1.1,9.8-1,14.7c0.1,3.2,0.3,6.3,0.6,9.5l1.1-0.3
		c0.4-0.1,0.9-0.2,1.3-0.3c0.9-0.2,1.8-0.4,2.6-0.6c1.8-0.3,3.5-0.7,5.3-0.9c3.5-0.6,7.1-0.9,10.7-1.1c2.5-0.1,5.1-0.1,7.6-0.1
		c-0.6-1.5-1-3-1.4-4.6c-1.7-8.1-2.2-16.1-1.6-24.3c0.9-11.3,3.1-22.4,6.4-33.2c1.6-5.1,3.2-10.3,4.7-15.4
		c3.4-11.5,8.5-22.1,15.6-31.8c1.9-2.5,3.7-5.1,5.6-7.6c4.7-6.2,8.1-13.1,10.6-20.5c0.1-0.3,0.2-0.6,0.3-0.9
		c-0.3-1.7-0.6-3.5-0.7-5.2c-0.4-3.1-0.8-6.2-1.1-9.3c-0.1-0.9-0.2-1.8-0.2-2.7c0-3,0-6-0.1-9.1c-0.1-2.5,9.9-34.3,26.5-1.8
		c2.5,2.9,5.1,5.6,7.8,8.3c0.5,0.5,1,0.9,1.5,1.3c0.3,0.2,0.7,0.1,0.8-0.2c1.8-4.5,3.4-9,1.4-13.9c-1.3-3.2-2.6-6.4-3.9-9.6
		c-1.3-3.1-2.7-6.2-3.8-9.3c-1.2-3.4-2.2-6.8-2.8-10.3c-0.9-0.9-1.8-1.7-2.8-2.5c-5.2-4.3-8.2-9.9-9.7-16.4c-0.9-3.9-1.3-7.9-1.6-12
		c0-0.2,0-0.4,0-0.6c-3.1-6.1-5.5-12.5-6.6-19.3c-0.7-4.4-1.5-8.8-1.4-13.3c0-1.9-0.8-3.7-0.6-5.7c1-4.3,0.5-8.6,1.2-13
		c0.7-4.6,1.5-9.2,2.7-13.8c1.4-5.5,3.5-10.8,5.9-16c3.5-7.5,7.6-14.7,12.1-21.6c4.4-6.8,7.8-14,9.8-21.9c0.5-1.9,1-3.9,1.5-5.8
		c-0.6-2.9-0.9-5.8-0.8-8.8c0.3-8.8,1.8-17.4,5.2-25.5c1.6-3.8,3.4-7.6,5.3-11.3c2.6-4.9,5.4-9.6,8.6-14.2c0.8-1.1,1.6-2.3,2.4-3.4
		c1.3-1.8,2.8-3.6,4.3-5.3c0.5-0.6,1-1.1,1.5-1.7c0.5-0.5,1-1,1.5-1.4c1.6-1.3,3.4-2.4,5.3-3.4c0.1,0,0.2,0,0.3,0
		c0.1,0,0.2,0.1,0.3,0.2c0.1,0.1,0.2,0.3,0.2,0.5c0,0.1,0,0.1,0,0.1c-0.5,1-1,1.9-1.5,2.9c-0.2,0.3-0.3,0.7-0.5,1
		c-1.5,3.7-3.1,7.4-4.8,11.1c-2,4.5-4.2,8.9-6.1,13.4c-4.3,9.8-6.9,20-8,30.7c-0.8,7.6,0.8,14.4,5.3,20.6c0.9,1.2,1.7,2.4,2.5,3.6
		c1.4,2,2.9,4,4.3,6c0.9,1.3,1.7,2.6,2.4,4c2.7,5.4,3.6,10.9,1.4,16.8c-1.2,3.1-1.8,6.5-2.6,9.7c-1.8,7.4-2.8,15-1.8,22.6
		c0.1,0.4,0.1,0.9,0.1,1.3c0.1,2.9,0.7,5.8,1.8,8.5c1.2,3,2.6,5.9,3.9,8.9c2,4.3,4.7,8.1,7.8,11.7c0.4,0.5,0.9,1,1.4,1.4
		c0.4,0.3,0.8,0.2,1.1-0.3c0.2-0.4,0.3-0.8,0.4-1.3c0.7-2.2,1.5-4.3,2.5-6.4c-1.2-2.4-1.7-4.9-1.9-7.6c-0.2-2.5-0.7-5.1-1.2-7.6
		c-1-4.9-1.4-9.9-1.2-14.9c-0.2-3.8,0-7.6,0.6-11.2c-0.1-0.5-0.2-1.1-0.3-1.7c-0.4-3.2-0.9-6.4-0.8-9.8c-0.2-4.3,0.7-8.6,1.5-12.9
		c1-5,2-10.1,3-15.1c0.3-1.3,0.1-2.7,0.1-4c-0.1-2.7-0.2-5.4-0.3-8c0-0.7,0-1.3,0.1-2c0.1-0.8,0-1.8,0.7-2.1c1.1-0.5,1.5,0.8,2,1.4
		c2.5,2.7,5.5,4.9,8.3,7.3c1.2,1,2.2,2.2,3.1,3.4c4.3,5.4,9.8,8.4,17,7.1c3.5-0.7,6.9-1.7,10.2-3.3c1-0.5,2-1,3.1-1.4
		c2.1-0.8,4.3-1.2,6.5-0.6c0.1,0,0.3,0.1,0.4,0.1c1,0.2,1.9,0.3,2.9,0.2c1.8-0.2,3.1-0.9,4.1-2.5c1.6-2.4,3.4-4.7,5.1-7.1
		c0.2-0.2,0.3-0.4,0.5-0.6c-0.4-0.8-0.8-1.6-0.8-2.4c0.1-1.2,0.3-2.3,0.6-3.4c-5.7,2.8-11.8,4.2-19.3,3.7c-3.7,0-8.6-0.7-13.5-1.4
		c-2.9-0.4-12.4-4.2-14.8-6c-1.6-1.2-3.1-2.6-4.2-4.2c-0.8-1.1-1.5-2.2-2.2-3.4c-0.5-0.7-0.9-1-1.9-0.9c-2.1,0.3-2.9-0.5-3-2.5
		c-0.1-3.7,1-7.1,2.9-10.2c1.7-2.7,3.1-5.4,4.7-8.1c2.3-3.7,5.1-7.1,8-10.3c1.4-1.6,3-3,4.5-4.5c0.9-0.8,1.7-1.6,2.7-2.3
		c1.2-0.9,2.6-1.8,3.9-2.5c0.3-0.2,0.7-0.4,1-0.6c1.6-0.8,3.2-1.4,4.8-1.8c0.3-0.1,0.6-0.1,1-0.2c0.6-0.1,1.3-0.2,1.9-0.2
		c1.6-0.1,3.3,0,4.9,0.3c1,0.2,2,0.4,3,0.7c1.8,0.6,3.5,1.3,5.1,2.2c2.7,1.4,5.2,3.3,7.5,5.3c1,0.9,2,1.8,2.9,2.7
		c2.7,2.8,5.1,6,7.6,9c0,0.1,0.1,0.1,0.1,0.2c-0.1-0.4-0.1-0.8-0.2-1.2c-0.1-0.7,0.1-1.6,0.3-2.3c0.4-1.7,0.4-3.3-0.5-4.9
		c-0.1-0.2-0.3-0.5-0.4-0.7s-0.2-0.5-0.2-0.7s-0.1-0.5-0.1-0.7s0-0.5,0.1-0.7c-0.7-1-1.5-2.1-2.2-3.1c-1.1-1.6-2.3-3.1-3.5-4.4
		c-2.1-2.3-4.5-4.3-7.2-6c-1-0.6-1.9-1.2-2.9-1.6c-1-0.5-1.9-0.9-2.9-1.3c-1-0.4-2-0.7-3-0.9s-2-0.4-3-0.6c-2-0.3-4.1-0.3-6.2-0.1
		s-4.2,0.7-6.4,1.4c-0.5,0.2-1.1,0.4-1.6,0.5c-1,0.4-2.1,0.8-3.1,1.2c-1.5,0.7-3.1,1.3-4.6,2c-1,0.5-2,0.9-3.1,1.4
		c-0.5,0.2-1,0.5-1.5,0.8c-1.4,0.9-2.6,2.1-3.8,3.2c-1.9,1.9-3.7,3.8-5.5,5.7c-0.1-0.1-0.2-0.2-0.3-0.3c0-0.1-0.1-0.2-0.1-0.3
		c0-0.2,0.1-0.4,0.2-0.6c1-2.5,2-5,2.9-7.6c-0.4,0.4-0.8,0.8-1.2,1.2c-2.8,2.7-5.6,5.5-8.3,8.4c-0.9,1-1.8,2-2.7,3.1
		c-2.7,3.1-5.2,6.3-7.3,9.9c-0.1,0.2-0.2,0.4-0.4,0.6c-0.3,0.3-0.6,0.8-1.1,0.5c-0.3-0.1-0.5-0.4-0.6-0.7c-0.6-1-0.7-2.2-0.4-3.3
		c0.3-1.4,0.4-2.9,0.5-4.3c0.1-1.4,0.2-2.9,0.5-4.3c0.4-1.8,0.8-3.6,1.4-5.4c0.7-2.3,1.5-4.7,2.5-6.9c0.2-0.6,0.5-1.1,0.7-1.7
		c0.5-1.2,1-2.4,1.6-3.6c1.1-2.4,2.2-4.8,3.3-7.2c0.5-1.2,1.1-2.4,1.6-3.6c0.3-0.7,0.6-1.4,0.9-2.1c0.6-1.4,1.1-2.8,1.6-4.2
		c0.3-0.7,0.5-1.4,0.8-2.1c0-0.1,0.1-0.2,0.1-0.3c-0.2-0.2-0.3-0.4-0.4-0.6c-0.6-1.2-0.8-2.6-0.5-3.9c0.3-1.2,0.5-2.4,1-3.6
		c4.3-10.3,10.2-19.3,19-26.3c5.2-4.2,11.1-7.1,17.7-8.4c2.4-0.5,4.9-0.6,7.3-0.4c7.5,0.6,11.9,7.3,9.6,14.4
		c-0.5,1.6-1.3,3.1-2.2,4.5c-0.3,0.4-0.6,0.9-0.9,1.3c0.5,0.2,0.9,0.3,1.4,0.5c0.9,0.4,1.8,0.8,2.7,1.3c0.4,0.2,0.9,0.5,1.3,0.7
		c2.1,1.3,4.4,2.3,6.7,2.9c1.7,0.5,3.5,0.8,5.4,1c0.6,0,1.2,0.1,1.9,0.1c4.7,0,9.3-0.5,14-1.2c0.7-0.1,1.3-0.2,2-0.3
		c0.9-0.1,1.6-0.3,2.2-0.5c0.4-0.1,0.8-0.3,1.1-0.4c0.2-0.1,0.3-0.2,0.5-0.3c0.6-0.4,1-0.9,1.3-1.5c0.4-0.8,0.6-1.8,0.6-3.1
		c0-0.3,0-0.5,0-0.8c0-0.7,0-1.4,0-2.1c0-1.4-0.1-2.8-0.2-4.1c-0.2-2.1-0.4-4.1-0.8-6.2c-0.1-0.7-0.2-1.4-0.4-2
		c-0.1-0.7-0.3-1.4-0.4-2c-1.9-1.1-4-1.6-6.4-1.5c-1,0.1-2,0-3-0.1c-2.3-0.2-4.4-0.8-6.3-2.1c-2.8-2-6.1-3.4-8.7-5.7
		c-1-0.9-2.2-1.1-3.4-1.3c-1.2-0.2-2.4-0.2-3.3-0.2c-0.8,0.1-1.1,0.1-1.4,0.1c-0.6,0-1.4,0.5-1.7-0.5c-0.2-0.7,0.4-1.2,0.9-1.7
		c1.1-1,2.4-1.6,3.7-2.2c2.2-1,4.5-1.9,6.8-2.9c3-1.4,6.1-1.2,9.2-0.5c0.7,0.1,1.3,0.3,1.9,0.6c3.2,1.6,6.7,2.4,10.2,3.3
		c6.3,1.6,11,5.3,14.4,10.7c2.7,4.3,4.8,8.8,5.9,13.8c1.5,6.5,3.1,13,4.6,19.6c0.8,3.4,1.9,6.6,3.5,9.7c0.6,1.1,1.1,2.2,1.6,3.3
		s1,2.3,1.5,3.4c0.5,1.2,0.9,2.4,1,3.6c0,0.4,0.1,0.8,0.1,1.3l0,0c0,1.2-0.2,2.4-0.7,3.4s-1.1,1.9-1.8,2.7c-0.4,0.4-0.8,0.7-1.3,1
		s-1,0.5-1.5,0.7s-1.1,0.3-1.6,0.4c-0.6,0.1-1.2,0.1-1.8,0c-0.4,0-0.8-0.1-1.1-0.2c0,0.5,0,1,0,1.5s0,1,0,1.5c0,1-0.1,2-0.1,3
		c-0.1,1.7-0.5,3.3-0.9,4.9c-0.2,0.8-0.5,1.6-0.8,2.4c-0.1,0.4-0.3,0.8-0.5,1.2s-0.3,0.8-0.5,1.2c-0.1,0.2-0.1,0.3-0.2,0.5
		c-0.2,0.5-0.4,0.9-0.5,1.4c-0.1,0.3-0.3,0.6-0.4,0.9c-0.1,0.3-0.3,0.6-0.5,0.9c-0.2,0.3-0.3,0.6-0.4,0.9c-0.9,2-0.8,4.2-0.4,6.3
		c1.3,7.1,0,13.7-3.7,19.8c0.3,1,0,2.2-0.7,3.2c-0.1,0.2-0.3,0.4-0.4,0.5c-0.3,0.2-0.5,0.4-0.7,0.6c0.1,0.5,0.2,1.1,0.5,1.7
		c1.3,2.8,1.7,5.8,1.4,8.8c-0.4,3.8-1.5,7.4-3.3,10.8c-2.8,5.1-6.7,9.2-11.4,12.5c-2.4,1.8-4.8,3.6-7,5.7c-1.1,1-2.3,1.8-3.3,2.8
		c-3.1,2.9-5.8,6.2-8.5,9.5c-0.1,0.2-0.2,0.4-0.4,0.5c-4.3,4.1-5.4,9.4-5.6,14.9c-0.1,3.2-1.4,5.8-3.1,8.1c0.4,0.4,0.6,0.9,0.7,1.5
		c0.3,1.5-0.2,2.7-1.5,3.5c-0.7,0.5-1.6,0.9-2.4,1.1c-1.1,0.3-2,0.9-2.7,1.9c-2.5,3.3-5.1,6.5-7.5,9.9c-5.3,7.5-8.4,15.7-7.6,25.2
		c0.3,3.3,0.4,6.7,0.7,10c0.3,2.6-0.5,4.6-2.6,6.1c-1.3,0.8-2.1,2-2.8,3.3c-3.9,7-7,14.2-9,22c-1.2,4.7-1.7,9.5-1.1,14.3
		c0.8,7.3,3,14.2,6.5,20.7c1.5,2.7,3.1,5.4,4.7,8.1c3.3,5.6,4.8,11.5,4.5,18c-0.2,3.3,0.5,6.2,1.9,8.9c4.2,2.8,8.5,5.3,13.4,6.7
		c3.5,1,6.9,0.6,10.1-0.8c2.5-1.1,4.2-3.3,5.7-5.5c0.3-0.5,0.6-1,0.7-1.5c1.5-4.2,2.9-8.4,4.3-12.7c0.1-0.4,0.3-0.9-0.1-1.3
		c-0.5-0.3-1.1,0-1.6,0.2c-2.6,1-5,0.5-7.5-0.5c-0.8-0.3-1.6-0.8-2.2-1.5c-2.2-2.2-2.4-4.8-0.4-7.2c0.9-1,1.9-1.9,2.8-2.9
		c0.5-0.5,0.9-1,1.3-1.5c0.4-0.6,0.3-1.3-0.4-1.7c-0.9-0.5-1.8-1-2.8-0.9c-1.3,0-2.4-0.4-3.6-0.8c-4-1.2-7.1-3.6-9.6-6.8
		c-1.8-2.3-3.6-4.6-4.6-7.4c-1.1-3.3-1.3-6.6,0.6-9.7c1.5-2.5,4.7-3,6.9-1.2c0.3,0.3,0.6,0.6,1,0.9c0.4,0.4,0.9,0.6,1.5,0.4
		c0.1,0,0.2-0.1,0.3-0.1c5.6-1.8,10.8-0.3,15.9,1.8c1.1,0.5,2.2,1.1,3.3,1.6c0.8,0.4,1.4,0.2,1.7-0.5c1.3-3.4,3.1-6.5,4.6-9.7
		c0.4-0.9,0.4-1.7-0.2-2.5c-0.7-0.9-1.3-1.8-2-2.7c-1.6-2.2-2.8-4.6-3.5-7.2c-0.7-2.2-1.6-4.4-2.5-6.6c-3.9-4.7-6.5-10.2-8-16.5
		c-2-8.3-1.9-16.4,0.9-24.4c0.7-1.9,1.1-3.9,1.5-5.8c0.8-5,2.8-9.6,5.6-13.9c2.1-3.2,4.7-5.7,7.7-7.6c0.1-0.2,0.1-0.3,0.2-0.5
		c1.2-3.2,2.5-6.4,3.8-9.7c0.7-1.8,1.7-3.4,3.1-4.7c2.9-2.7,5.3-5.7,7.7-8.8c1.6-2,3.7-3.6,5.8-5.1c4.3-3,9-5.2,14.1-6.7
		c7-2,14.1-2.2,21.2-1.6c6.3,0.5,12.5,2,18.4,4.6c3.6,1.6,7.1,3.2,10.2,5.7c0.9,0.8,2,1.4,3.1,2c4.3,2.2,7.7,5.2,10.1,9.5
		c1.2,2.2,2.6,4.4,3.8,6.7c0.7,1.2,1,2.5,0.9,3.7c0,0.5-0.1,1-0.2,1.5c3.7,2.1,7,4.6,9.9,7.9c1.5,1.7,3.1,3.2,4.7,4.8
		c0.9,1,1.9,2,2.6,3.1c4.3,6.8,7.8,13.9,8.7,22c0.5,4.5,0.7,9-1.4,13.2c-3,5.9-6.5,11.5-11.8,15.7c-0.5,0.4-1.1,0.9-1.5,1.4
		c-1.8,2.1-3.8,4-5.8,5.8c0.7,0.7,1.2,1.6,1.5,2.6c1,3.2,0.3,6.2-0.3,9.2c-0.3,1.4-0.7,2.8-1,4.2c-0.5,2.6,0.4,3.9,3.5,4.6
		c1.5,0.3,3.1,0.1,4.6-0.6c2.9-1.3,5.9-2.5,9.2-3c5-0.9,9.3,0.3,12.8,4.1c1,1.1,1.1,1.1,2.3,0.6c0.3-0.1,0.6-0.3,0.9-0.4
		c1.8-0.8,3.2-2,3.6-4.1c0.3-1.4,1.2-2.4,2.8-2.4c1.5,0,2.5,0.8,3.1,2.1c1.3,2.8,1.2,5.7,0.5,8.5c-1.3,5.2-4.9,8.4-9.5,10.5
		c-1.6,0.7-3.3,1.4-4.8,2.3c-2.5,1.4-5.1,2.3-7.9,2.7c-0.6,0.1-1.1,0.1-1.6,0.5c-0.3,0.3-0.6,0.7-0.5,1.1c0.1,0.6,0.6,0.5,1,0.5
		c1.8-0.2,3.5-0.1,5.3,0.2c2.5,0.5,4.6,1.7,6.6,3.1c3.1,2.1,3.2,6.8,0.9,9.2c-1.9,1.9-4,3.2-6.7,3.5c-1.8,0.2-3.5,0.6-5.3,0
		c-0.7-0.2-1.6-0.2-1.8,0.9c0,0.2-0.6,0.3-0.9,0.3c-0.7,0-1.3,0-2,0l0,0v0.1c0,0.4,0,1,0.2,1.3c1.3,2.2,1.4,4.7,1.3,7.2
		c-0.1,2,0.5,3.6,1.7,5.3c2.8,3.9,6.5,6.4,10.8,8.2c2.4,1,4.9,1.5,7.4,2c0.2,0,0.4,0.1,0.7,0.1c2.8-0.3,5.5-0.5,8.3-1
		c1.2-0.2,2.4-0.3,3.6-0.3c1.9-2.5,3.8-5,5.4-7.6c4.1-6.5,7-13.5,7.8-21.2c0.4-3.9,0.9-7.8,0.9-11.7c0-3,0.9-5.7,3.2-7.8
		c1-0.9,1.4-1.9,1.8-3.2c0.3-1.2,0.4-2.4,0.4-3.6c0-3.4-0.6-6.7-1.6-9.9c-1.5-4.9-3-9.8-4.6-14.7c-1.3-4-2.9-7.7-5.3-11.2
		c-1.6-2.4-3.1-4.9-4.6-7.4c-0.9-1.4-1.6-3-1.7-4.7c-0.1-3.6-1-7.1-1.5-10.6c-0.2-1.3-0.4-2.8-0.1-4c0.8-3,0.5-6,1-9
		c0.3-1.5-0.1-2.9-0.9-4.2c-0.6-1-1.3-2.1-2-3.1c-1.6-2.1-3.3-4.2-5-6.3c-1.4-1.8-2.8-3.5-3.8-5.5c-0.8-1.7-1.9-3-3.3-4.2
		c-2.2-1.9-4-4.2-4.7-7.2c-0.4-1.8-0.3-3.5,0.1-5.2c-3.5-3.2-7.2-6.1-11-8.9c-4.1-3-6.6-6.8-8.2-11.5c-1.2-3.5-2.8-6.8-5.1-9.7
		c-1.5-1.8-3.1-3.5-4.9-5c-3-2.6-6.2-4.7-9.7-6.6c-2.1-1.1-3.8-2.8-5.3-4.5c-1.7-1.8-2.1-4.2-2.3-6.5c-0.2-2.8-0.1-5.6,0-8.4
		c0-0.7,0.2-1.3,0.4-2c0.3-1.4,0.9-2.5,2.5-2.8c0.1,0,0.1,0,0.2,0c-2.9-2.3-4.2-5.5-4.3-9.1c0-2.2,0.5-4.1,1.5-5.9
		c-0.1-0.3-0.3-0.6-0.4-1c-0.5-1.5-1.3-2.9-2-4.2c-2.3-4.1-3.6-8.4-4-13c0-0.5-0.1-1.1-0.2-1.6c-0.2-1.6-0.4-3.1-0.4-4.7
		c-0.1-6,0.8-11.8,2.2-17.5c0-0.2,0.1-0.3,0.2-0.5c0-0.1,0-0.1,0.1-0.2c0.1-0.5,0.3-1,0.4-1.5c0.3-1,0.6-2.1,0.8-3.1
		c0-0.3,0.1-0.5,0.1-0.8s0.1-0.5,0.1-0.8l0,0c0-0.1,0-0.3,0-0.4c0-0.1,0-0.3,0-0.4c-1.6-0.2-3-0.9-4.1-1.9c-0.3-0.3-0.6-0.6-0.9-1
		c-0.3-0.4-0.5-0.7-0.7-1.2c-0.3-0.6-0.5-1.3-0.6-2c-0.1-0.5-0.1-1-0.1-1.5c0-1.3,0.3-2.7,0.7-3.9c0.6-1.7,1.2-3.4,1.8-5
		c1.3-3.6,2.2-7.2,3.2-10.9c1.3-4.9,2.1-9.8,3.1-14.7c1.3-6,3.5-11.8,6.2-17.3c3.2-6.7,8.4-11.2,14.8-14.5c3-1.5,6.3-2.2,9.7-2.3
		c2.6,0,5.1,0.3,7.7,0.8c3.8,0.8,7.1,2.8,9.8,5.6c1.1,1.1,2.2,2.2,3.4,3.2c1.1,0.8,2.1,1.6,2.9,3.4c-2.3-0.7-4-1.2-5.7-1.7
		c-2.1-0.6-4.2-0.6-6.2,0.2c-1.2,0.5-2.6,0.8-3.8,1.2c-0.5,0.2-1.1,0.3-1.6,0.5c1,0,2.1,0.1,3.1,0.3c0.5,0.1,1,0.2,1.5,0.3
		c1,0.3,2,0.6,3,1c0.5,0.2,1,0.4,1.5,0.7c1,0.5,2,1.1,3,1.8c1.3,0.9,2.4,1.9,3.3,3c0.3,0.4,0.6,0.8,0.9,1.2c0.8,1.1,1.5,2.2,2.3,3.3
		s1.5,2.2,2.3,3.3c0.5,0.7,1.1,1.4,1.7,2.1c2.2,2.7,5,4.3,8.5,4.7c2.3,0.3,4.5,1.3,6.5,2.6c0.3,0.2,0.6,0.4,0.9,0.6
		c1.7,1.3,2.8,3.1,3.6,5c0.1,0.3,0.3,0.7,0.4,1c1.2,3.5,2.3,7,3.7,10.4c0.1,0.4,0.3,0.7,0.4,1.1c0.3,0.7,0.6,1.4,0.9,2.2
		c0.8,1.8,1.7,3.5,2.7,5.2c0.6,0.9,0.9,1.8,0.9,2.8c0,1.3-0.5,2.4-1.2,3.2c-0.2,0.3-0.5,0.5-0.8,0.7c2,1.9,3.9,3.8,5.7,5.9
		c1.8,2,3.6,4.1,5.3,6.3c0.6,0.8,1.2,1.6,1.6,2.5c0.2,0.4,0.5,0.9,0.7,1.3s0.4,0.9,0.6,1.4c0.3,0.7,0.4,1,0.4,1.5c0,0.2,0,0.4,0,0.7
		c0,0.2,0,0.4-0.1,0.6c0,0.2,0,0.5-0.1,0.8c-0.4,0-0.7-0.1-1-0.3c-0.2-0.2-0.4-0.5-0.5-0.8c-0.8-1.5-1.7-2.8-2.8-4
		c-1.8-2-3.9-3.8-5.8-5.7c-1-0.9-2-1.8-3-2.7s-2.1-1.7-3.1-2.6c-0.4-0.3-0.8-0.6-1.2-0.9c-0.4-0.3-0.8-0.5-1.2-0.8
		c-1.6-1-3.4-1.6-5.2-1.9c-0.9-0.2-1.9-0.3-2.9-0.3c-1.9,0-3.7,0.1-5.5,0.4c-1.2,0.2-2.4,0.5-3.6,0.8c-1.8,0.5-3.5,1.2-5.2,2
		c-1.2,0.6-2.3,1.2-3.5,1.9c-2.3,1.3-4.4,2.8-6.4,4.5c-1,0.8-2,1.7-2.9,2.7c-1.2,1.3-2.4,2.6-3.4,4c-0.6,0.9-1.1,1.8-1.5,2.8
		c-0.7,1.6-1.7,2.9-3,4c-1.4,1.1-2.7,2.2-4,3.5c-0.6,0.6-1.2,1.2-1.8,1.9c-0.6,0.6-1.8,1.9-1.8,1.9l0,0c-0.1,0.3-0.1,0.6-0.2,0.9
		c-0.1,0.6-0.2,1.3-0.3,1.9c0,0.3-0.1,0.6-0.1,0.9c-0.1,0.6-0.1,1.3-0.1,1.9c0,1.9,0.5,3.8,1.1,5.7c0.7,2.1,1.3,4.3,1.9,6.4
		c0.1,0.3,0.2,0.6,0.3,0.9c0.5-1.6,0.7-3.3,1.2-5c0.4-1.5,0.9-2.9,1.4-4.2c1-2.7,2.3-5.3,3.7-7.7c0.7-1.2,1.5-2.4,2.4-3.5
		c1.3-1.7,2.7-3.2,4.2-4.7c2.6-2.4,5.5-4.6,8.8-6.5c3.7-2.1,7.3-3,10.8-3.1c0.6,0,1.3,0,1.9,0c1.6,0.1,3.1,0.3,4.5,0.7
		c1.7,0.4,3.4,1,4.9,1.8c0.3,0.1,0.5,0.2,0.8,0.4c0.7,0.4,1.5,0.8,2.1,1.2c0.9,0.6,1.7,1.2,2.5,1.8c4.2,3.5,7.7,7.5,10.5,12.1
		c0.8,1.2,1.6,2.5,2.4,3.7c2.4,3.6,5,7.1,7.9,10.4c0.3,0.3,0.6,0.7,0.8,1.1c1.6,2.2,2.1,3.8,2.1,7.1c0,0,0,0.6-0.1,1.2
		c-0.3,1.7-1.6,2.8-3.3,2.8c-1,0-2-0.2-3-0.2c-2.8-0.2-5.3,0.5-7.4,2.5c-1.7,1.6-3.4,3.3-5,4.9c-1.8,1.8-3.6,3.7-5.5,5.4
		c-3,2.7-6.6,4.2-10.7,4.3c-6.6,0.2-13-0.8-18.9-3.7c2.5,3.3,5.1,6.6,7.3,10.1c0.6,0.9,1.4,1.4,2.4,1.8c1.3,0.4,2.6,0.7,3.9,1
		c4.9,1.3,9.9,1.4,15,1c3.3-0.3,6.5-1.4,9.6-2.9c4-2,8-4,12-5.9c2.2-1,4-2.4,5.6-4.2c0.7-0.7,1.4-1.5,2.1-2.1c0.9-0.7,2-1,3-0.8
		c2.1-1.4,4.8-1.3,7.1,0.5C651.5,213.9,652.4,215.5,652.9,217.2z"/>
	<path class="st4" d="M573.4,556.2c-0.4-1.1-1.1-1.3-2-0.6c-0.8,0.7-1.5,1.4-2.2,2.1c-7.1,7-14,14.2-21.2,21
		c-4.2,4-8.6,7.9-12.5,12.1c-2.8,3-5.5,6.2-8,9.4c-3.2,4.1-5.1,8.9-6.4,13.9c-0.8,3-1.6,6-3,8.9c-1.8,3.6-5.7,3.8-8.4,3
		c-1.1-0.4-1.9-1.1-2.6-2c-3.3-4.9-7.1-9.5-10.9-13.9c-2.8-3.2-5.8-6.2-9.1-8.9c-3.1-2.6-6.2-5.2-9.3-7.7c-0.5-0.4-1-0.9-1.6-1.3
		c-1.4-0.9-2-0.8-2.2,0.9c-0.3,3.8-1.2,7.5-3.2,10.8c-1.9,3.2-5.7,4.7-9.2,3.6c-2-0.7-3.3-2.3-4.4-4c-0.8-1.2-1.3-2.6-2-3.9
		c-3.2-6.5-6.5-13-9.7-19.5c-1.2-2.5-2.6-4.9-4.3-7.2c-2.2-2.8-4.4-5.6-6.6-8.4c-1.1-1.4-2.3-2.7-3.4-4.1c-1.5-1.9-3.6-2.9-5.7-4
		c-1.7-0.8-3-0.2-4.3,0.9c-0.5,0.4-0.8,1-0.9,1.7c2.9,5.4,5.7,10.7,8.5,16.1c2.7,5.2,5.1,10.5,7.1,16.1c0.4,0.8,0.8,1.7,1.2,2.5
		c1.6,4.2,4,7.9,6.7,11.5c3.3,4.4,7.7,7.4,11.8,10.8c0.2,0.1,0.3,0.3,0.5,0.4c-0.1-0.4-0.1-0.9,0-1.3c0.1-0.8,0.6-1.2,1.4-0.8
		c6.3,3.1,11.7,7.5,16.2,12.8c8.1,9.5,13.1,20.5,15.3,32.8c0.7,4,0.7,8,0.5,12h63.7c0-1.5,0-3.1,0-4.6c0-0.3,0-0.6,0-0.9
		c0,0-0.1,0-0.1-0.1c-0.4-0.3-0.8-0.8-1.1-1.2c-1.2-2-2.5-4-3.6-6c-5-9.2-6.2-18.8-3.5-28.9c1.6-5.9,4-11.4,7.2-16.6
		c1.8-3,3.6-5.9,5.3-9c3.9-7.2,4.2-14.7,1.9-22.4c-0.1-0.4-0.4-0.8,0.1-1.1c2.4,1.7,3.3,2.9,4.5,5.6c1.9,4.3,2.8,8.6,2.7,13.1
		c1.9-3.2,3.6-6.4,5.2-9.7c1.4-2.9,2.6-5.9,3.3-9.1c0.9-4.4,1.5-8.8,1-13.3C575.5,563.7,574.8,559.8,573.4,556.2z"/>
	<path class="st4" d="M560.6,418.8c-0.1-0.1-0.2-0.2-0.3-0.3C560.4,418.7,560.5,418.8,560.6,418.8
		C560.6,418.9,560.6,418.8,560.6,418.8L560.6,418.8z"/>
	<path class="st4" d="M745.5,432.2c0,0,0.1,0.1,0.2,0.1C745.7,432,745.6,432,745.5,432.2z"/>
	<path class="st4" d="M745.8,432.3L745.8,432.3L745.8,432.3L745.8,432.3z"/>
	<path class="st4" d="M845.5,649.4c-2-4-4.5-7.9-7.4-11.4s-6.1-6.7-9.6-9.5s-7.4-5.2-11.4-7.2l0,0l-6-2.7c-0.6-0.6-1.3-1.1-1.9-1.7
		c-1.5-1.3-3.1-2.5-4.8-3.4c-7.1-3.9-15-6.2-23-7.5c-4-0.7-8-1.1-12-1.3c-2.7-0.2-5.3,0-8-0.4c-2.9-0.5-5.6-1.8-8.5-2
		c-1.1-0.1-2.3,0-3.4,0.1c-9.2,1-18.5,2.3-27.4,5c-4.5,1.4-8.9,3-13,5.2c-4,2-7.6,4.9-11.8,6.6c-1,0.4-2,0.8-3,1.3
		c-21.3,9.2-40.4,27.1-47.8,49.4l0,0c1.9-0.4,4.2,0.3,5.8-0.9c0.6-0.5,1-1.3,1.3-2c3.4-7.4,6.8-15.1,12.6-20.8
		c7.1-7.1,18.3-9.9,26.8-3.4v-0.1c0,0.1,0.1,0.1,0.1,0.2c0.5,0.4,1,0.8,1.4,1.2c0,0,0,0,0.1,0.1c0.2,0.1,0.3,0.3,0.5,0.4
		c0.5,0.5,1.1,1.1,1.5,1.7c0.1,0.1,0.2,0.2,0.2,0.3c-0.7,0-1.4,0-2.1,0.1c-1.5,0.2-3,0.5-4.5,1.1c-2.9,1.1-5.5,2.6-8.1,4.4
		c-0.6,0.4-1.3,0.9-1.9,1.3l-0.9,0.7l-1.7,1.3l-0.9,0.7c0,0,0.9-0.2,1-0.3c4.4-1.2,8.8-1.2,13,0.8c0.3,0.2,0.7,0.3,1,0.5
		s0.7,0.4,1,0.6c0.6,0.4,1.2,0.9,1.8,1.4c1.1,1,2.1,2.1,3,3.3c1,1.4,1.8,2.8,2.5,4.3l0,0c-0.1,0.4-0.2,0.8-0.3,1.3
		c-0.1,0.3-0.1,0.5-0.2,0.8v0.1c-0.1,0.5-0.2,1-0.2,1.5c0,0.1,0,0.2,0,0.4c0,0.1,0,0.2,0.1,0.4c0,0.2,0.1,0.4,0.1,0.7v-0.1v0.1
		c0,0,0,0,0,0.1c0,0,0,0,0-0.1c0.2,0.8,0.3,1.6,0.5,2.4c0.2,1,0.4,1.9,0.6,2.9c1.2,2,2.4,4,3.2,6.2c0.1,0.2,0.1,0.4,0.2,0.6
		c0,0.1,0,0.1,0.1,0.2c0.1,0.2,0.1,0.4,0.2,0.6l0,0c0.1,0.2,0.1,0.4,0.1,0.6c0,0.1,0,0.1,0,0.2c0,0.2,0.1,0.4,0.1,0.6v0.1
		c0,0.2,0.1,0.4,0.1,0.6c0,0.1,0,0.2,0,0.2c0,0.2,0,0.3,0.1,0.5c0,0.1,0,0.2,0,0.3c0,0.2,0,0.3,0,0.5c0,0.1,0,0.2,0,0.3s0,0.2,0,0.3
		c0,0.2,0,0.5,0,0.7c0,0.1,0,0.1,0,0.2c0,0.2,0,0.3,0,0.5l0,0c0,0.3,0,0.7,0,1c0.1,0.2,0.3,0.3,0.4,0.5c0.6,0.8,1.3,1.6,1.9,2.3
		c0.3,0.3,0.7,0.7,1,1c2.7,2.4,5.5,4.6,9.2,5.4c5.6,1.3,11.5-0.5,17.3-0.1c1.1,0.1,2.3,0.3,3.3-0.2c2-0.8,3.2-4,4.2-5.8
		c1.6-2.7,2.9-5.6,4-8.5c2.1-5.6,3.4-11.5,3.8-17.4c0.7-9.4-1-18.9-4.7-27.5c-1.9-4.3-4.2-8.4-6.9-12.2c-2.8-3.8-5.9-7.3-9.4-10.5
		c-0.4-0.4-0.9-0.8-1.3-1.2l-2.3-2l0,0l0,0h0.1l0.2,0.1l0.4,0.1l0.9,0.2l1.3,0.3l0.4,0.1l0.4,0.1l0.9,0.3c2.3,0.7,4.5,1.6,6.6,2.7
		c19.5,10.2,27.9,30.7,29.2,51.5c0,0.1,0,0.3,0,0.4c0,0.6,0,1.2,0,1.9c0,0.6,0,1.2-0.1,1.7c0,0.5-0.1,1.1-0.1,1.6c0,0.1,0,0.1,0,0.2
		c-0.1,0.4-0.1,0.7-0.2,1.1c0,0.3-0.1,0.8-0.2,1.1c0,0.3-0.1,0.5-0.1,0.8c-0.5,3.5-1.7,6.9-2.8,10.2c-1.2,3.5-3.2,6.9-1.7,10.7
		c0.2,0.5,0.4,1,0.6,1.4c0.2,0.4,0.4,0.8,0.7,1.2c3.5,5.8,9.7,7.9,16.4,8.9c1,0.2,2,0.3,3,0.4c1.3,0.2,2.5,0.3,3.8,0.4
		c1.5,0.1,3,0.3,4.4,0.5c0.3,0,0.6,0,0.9,0.1c0.3,0,0.5,0,0.8,0.1c0.5,0,1.1,0,1.6,0c0-0.1,0-0.1,0-0.2c0.7-3,2.2-5.6,3.6-8.2
		c1-1.9,1.9-4,2.7-6c0.8-2.1,1.5-4.2,2.1-6.3c0.7-2.6,1.3-5.2,1.8-7.8c0.3-1.8,0.5-3.5,0.7-5.3c0.5-5.4,0.4-10.8-0.4-16.1
		c-1.9-13.2-9.3-25.4-18.5-34.8c-0.9-0.9-1.9-2.1-1.7-3.4c3.2,0.9,6.7,3.6,9.6,5.4c3.5,2.2,6.9,4.5,10.1,7.2
		c5.8,4.8,11.2,11,12.4,18.7c2.3,14.7,6.3,15.6,4.4,30.3c-0.5,3.9-2.9,7.5-3.7,11.4c-0.3,1.4-0.5,2.7-0.7,4c-0.7,4-1.2,7.9-2.8,11.8
		c-0.1,0.3-0.3,0.6-0.4,1c-0.1,0.4-0.3,3.1-1,2.9c2.6,0.9,14.6,3.2,16-0.8c0-0.1,0-0.1,0-0.2c0-0.1,0-0.2,0.1-0.3l0.4-2.6l3.2-17.7
		c3.1-17.4,3.5-34.8-4.3-51c-1.7-3.5-4.6-10.1-6.8-12.1c0.3,0.2,0.5,0.5,0.8,0.7c4.3,4.1,8.4,8,11.6,13.1c3.7,5.9,7,12.6,9.5,19.1
		c0.2,0.5,0.4,1.1,0.5,1.6c0.7,2.1,1.3,4.3,1.7,6.4c0.9,4.3,1.3,8.7,1.4,13.1c-0.1,4.4-0.6,8.8-1.5,13c-0.3,1.3-0.6,2.6-1.1,3.9
		c0.4-0.1,0.8-0.2,1.1-0.3c1.1-0.5,2-1.2,2.8-2.1c0.8-0.9,1.4-1.8,2-2.8c0.5-1,1-2.1,1.3-3.2c0.2-0.5,0.3-1.1,0.5-1.6
		C853.8,679.3,852.4,663.1,845.5,649.4z M702.8,616.4L702.8,616.4c0.1-0.1,0.1-0.1,0.2-0.1C702.9,616.3,702.9,616.3,702.8,616.4z"/>
	<path class="st4" d="M319.4,638.7c-1.1-1-2.2-2-3.3-3c-7.3-6.3-15.6-11.5-24.2-15.2c-1-0.4-2-0.9-3-1.3c-4.2-1.6-7.7-4.5-11.8-6.6
		c-4.2-2.1-8.6-3.8-13-5.2c-8.9-2.7-18.1-4.1-27.4-5c-0.8-0.1-1.7-0.2-2.5-0.2c-0.3,0-0.6,0-0.8,0c-2.9,0.2-5.6,1.5-8.5,2
		c-2.6,0.4-5.3,0.3-8,0.4c-4,0.2-8.1,0.7-12,1.3c-7.9,1.3-15.9,3.6-23,7.5c-1.7,1-3.3,2.2-4.8,3.4c-0.6,0.6-1.3,1.1-1.9,1.7l-6,2.7
		l0,0c-4,2-7.9,4.4-11.4,7.2s-6.8,6-9.6,9.5c-2.9,3.5-5.3,7.3-7.4,11.4c-6.9,13.7-8.3,29.9-4.3,44.6c0.1,0.3,0.1,0.5,0.2,0.8
		c0.1,0.3,0.2,0.5,0.2,0.8c0.4,1.1,0.8,2.1,1.3,3.2c0.5,1,1.2,2,2,2.8c0.2,0.2,0.4,0.4,0.6,0.6c0.6,0.6,1.4,1.1,2.2,1.4
		c0.4,0.2,0.7,0.3,1.1,0.3c-0.4-1.3-0.8-2.6-1.1-3.9c-1-4.2-1.5-8.6-1.5-13c0-2.7,0.2-5.5,0.6-8.2c0.1-0.5,0.1-1.1,0.2-1.6
		c0.2-1.1,0.4-2.2,0.6-3.3c0.1-0.5,0.2-1.1,0.4-1.6c0.1-0.5,0.3-1.1,0.4-1.6c0.3-1.1,0.6-2.1,1-3.2c0.1-0.3,0.2-0.5,0.3-0.8
		s0.2-0.5,0.3-0.8c0.3-0.8,0.6-1.6,1-2.5c2-4.9,4.4-9.9,7.1-14.4c0.5-0.8,0.9-1.5,1.4-2.3c3.2-5.1,7.3-9,11.6-13.1
		c0.3-0.2,0.5-0.5,0.8-0.7l0,0l0,0c-0.1,0.1-0.1,0.1-0.2,0.2c-0.1,0.1-0.2,0.2-0.2,0.2c-0.6,0.6-1.2,1.5-1.8,2.6l0,0
		c-1.7,2.9-3.5,6.7-4.6,9.1c-7.9,16.3-7.4,33.6-4.3,51l3.2,17.7l0.4,2.6c0,0.1,0,0.2,0.1,0.3c0,0.1,0,0.1,0,0.2
		c1.3,4,13.4,1.7,16,0.8c-0.7,0.2-0.9-2.5-1-2.9s-0.3-0.7-0.4-1c-1.5-3.9-2.1-7.8-2.8-11.8c-0.2-1.3-0.4-2.7-0.7-4
		c-0.2-1-0.5-1.9-0.8-2.9c-0.2-0.5-0.4-0.9-0.5-1.4c-0.1-0.2-0.2-0.5-0.3-0.7c-0.4-0.9-0.8-1.9-1.1-2.8c-0.4-1.2-0.8-2.4-0.9-3.6
		c-1.1-8.3-0.3-12.2,1-16.6c0.1-0.5,0.3-1,0.5-1.5c0.3-1,0.6-2.1,1-3.3c0.2-0.6,0.3-1.2,0.5-1.9c0.1-0.3,0.2-0.7,0.2-1
		c0.4-1.7,0.8-3.7,1.2-6c1.2-7.7,6.6-13.9,12.4-18.7c3.2-2.6,6.6-5,10.1-7.2c0.5-0.3,1.1-0.7,1.7-1.1c0.2-0.1,0.4-0.3,0.6-0.4
		c2.3-1.6,4.9-3.3,7.4-3.9l0,0c0.2,1.3-0.8,2.5-1.7,3.4c-9.2,9.4-16.7,21.6-18.5,34.8c-2,14.2,0.5,29.1,6.9,41.6
		c1.4,2.6,2.9,5.2,3.6,8.2c0,0.1,0,0.1,0,0.2c0.5,0,1.1,0,1.6,0c0.3,0,0.5,0,0.8-0.1c0.3,0,0.6,0,0.9-0.1c1.5-0.2,2.9-0.3,4.4-0.5
		c1.3-0.1,2.5-0.3,3.8-0.4c1-0.1,2-0.3,3-0.4c4.9-0.8,9.6-2.1,13.1-5c0.2-0.2,0.5-0.4,0.7-0.6c1.6-1.5,3-3.5,3.9-5.9
		c1.5-3.7-0.6-7.1-1.7-10.7c-1.1-3.3-2.3-6.7-2.8-10.2c0-0.3-0.1-0.5-0.1-0.8c-0.1-0.3-0.2-0.8-0.2-1.1c-0.1-0.4-0.1-0.7-0.2-1.1
		c0-0.1,0-0.1,0-0.2c0-0.5-0.1-1.1-0.1-1.6c-0.1-0.6,0-1.2-0.1-1.7c0-0.6,0-1.2,0-1.9c0-0.1,0-0.3,0-0.4
		c1.3-20.8,9.7-41.4,29.2-51.5c2.1-1.1,4.3-2,6.6-2.7l0.9-0.3l0.4-0.1l0.4-0.1l1.3-0.3l0.9-0.2l0.4-0.1l0.2-0.1h0.1l0,0l0,0l0,0
		l-2.3,2c-0.4,0.4-0.9,0.8-1.3,1.2c-3.5,3.2-6.6,6.7-9.4,10.5c-2.8,3.8-5.1,7.9-6.9,12.2c-3.7,8.6-5.4,18.1-4.7,27.5
		c0.5,5.9,1.7,11.8,3.8,17.4c1.1,2.9,2.4,5.8,4,8.5c1,1.8,2.2,4.9,4.2,5.8c0.4,0.2,0.8,0.2,1.2,0.3c0.1,0,0.3,0,0.4,0
		c0.6,0,1.1-0.1,1.7-0.1c0.7-0.1,1.4-0.1,2.2-0.1c0.9,0,1.8,0,2.7,0.1c2.3,0.2,4.5,0.4,6.8,0.5c0.4,0,0.9,0,1.3,0
		c1.4,0,2.9-0.1,4.3-0.5c3.6-0.8,6.4-3,9.2-5.4c0.3-0.3,0.7-0.7,1-1c0.7-0.8,1.3-1.5,1.9-2.3c0.1-0.2,0.3-0.3,0.4-0.5
		c0-0.3,0-0.7,0-1l0,0c0-0.2,0-0.3,0-0.5c0-0.1,0-0.1,0-0.2c0-0.2,0-0.5,0-0.7c0-0.1,0-0.2,0-0.3s0-0.2,0-0.3c0-0.2,0-0.3,0-0.5
		c0-0.1,0-0.2,0-0.3c0-0.2,0-0.3,0.1-0.5c0-0.1,0-0.2,0-0.2c0-0.2,0.1-0.4,0.1-0.6v-0.1c0-0.2,0.1-0.4,0.1-0.6c0-0.1,0-0.1,0-0.2
		c0-0.2,0.1-0.4,0.1-0.6l0,0c0-0.2,0.1-0.4,0.2-0.6c0-0.1,0-0.1,0.1-0.2c0.1-0.2,0.1-0.4,0.2-0.6c0.8-2.2,2-4.2,3.2-6.2
		c0.2-1,0.4-1.9,0.6-2.9c0.2-0.8,0.3-1.6,0.5-2.4l0,0l0,0l0,0v-0.1v0.1l0,0l0,0c0-0.2,0.1-0.4,0.1-0.7c0-0.1,0-0.2,0.1-0.4
		c0-0.1,0-0.2,0-0.4c0-0.5-0.1-1-0.2-1.5v-0.1c-0.1-0.3-0.1-0.5-0.2-0.8c-0.1-0.4-0.2-0.9-0.3-1.3l0,0c0.7-1.5,1.6-3,2.5-4.3
		c0.9-1.2,1.9-2.3,3-3.3c0.6-0.5,1.2-1,1.8-1.4c0.3-0.2,0.6-0.4,1-0.6c0.3-0.2,0.7-0.3,1-0.5c2.4-1.1,4.8-1.6,7.3-1.6
		c1.9,0,3.8,0.3,5.8,0.8c0,0,0.2,0,0.4,0.1l0,0c0.1,0,0.2,0,0.2,0.1h0.1c0.1,0,0.2,0.1,0.2,0.1l-0.9-0.7l-1.7-1.3l-0.9-0.7
		c-0.6-0.5-1.2-0.9-1.9-1.3c-2.5-1.7-5.2-3.3-8.1-4.4c-1.4-0.5-3-0.9-4.5-1.1c-0.7-0.1-1.4-0.1-2.1-0.1c0.1-0.1,0.2-0.2,0.2-0.3
		c0.4-0.6,1-1.2,1.5-1.7c0.2-0.1,0.3-0.3,0.5-0.4c0,0,0,0,0.1-0.1c0.4-0.4,0.9-0.9,1.4-1.2c0-0.1,0.1-0.1,0.1-0.2l0,0l0,0v0.1
		c3.2-2.4,6.7-3.6,10.3-3.6c0.4,0,0.7,0,1.1,0c5.6,0.2,11.2,2.9,15.4,7c5.8,5.7,9.1,13.4,12.6,20.8c0.3,0.7,0.7,1.5,1.3,2
		c1,0.8,2.2,0.8,3.5,0.8c0.1,0,0.3,0,0.4,0c0.6,0,1.3,0,1.9,0.2l0,0c-3.2-9.8-8.7-18.7-15.6-26.4
		C322.6,641.8,321.1,640.2,319.4,638.7z M283.3,616.3l0.1,0.1l0,0C283.4,616.3,283.3,616.3,283.3,616.3z"/>
</g>
</svg>
