<?xml version="1.0" encoding="utf-8"?>
<!-- Generator: Adobe Illustrator 24.0.1, SVG Export Plug-In . SVG Version: 6.00 Build 0)  -->
<svg version="1.1" id="Layer_1" xmlns="http://www.w3.org/2000/svg" xmlns:xlink="http://www.w3.org/1999/xlink" x="0px" y="0px"
	 viewBox="0 0 990 781.2" style="enable-background:new 0 0 990 781.2;" xml:space="preserve">
<style type="text/css">
	.st0{fill:#FFFFFF;}
	.st1{fill:#FF6C6C;}
	.st2{fill:#686868;}
</style>
<g>
	<path d="M847.1,743c-1.7,1.7-3.2,3.1-4.7,4.6c-2,2-4.3,3.8-6.7,5.2c-3.3,1.9-6.2,1.7-9.1-0.8c-1.7-1.4-2.8-3.2-3.5-5.2
		c-1.4-3.7-2.6-7.5-2.2-11.4c0.5-4.2-1.4-6.9-5.1-8.5c-1.2-0.5-2.4-1.2-3.6-1.8c-3.6-1.8-6.4-4.5-7.9-8.3c-1.5-4.2-3.3-3.1-5.2-0.4
		c-1.3,1.9-2,4-2.7,6.2c-1.9,5.6-4.9,10.6-9.3,14.7c-0.9,0.8-1.8,1.6-2.8,2.3c-3.9,2.7-8,2.4-11.5-0.9c-1.8-1.7-2.9-3.8-3.8-6
		c-1-2.4-1.7-4.9-1.9-7.4c-0.2-2.9-1.7-4.7-4.1-6c-5.4-3.1-9.8-7.4-14.1-11.8c-1.2-1.3-2.3-2.8-3.3-4.3c-0.9-1.4-2.1-2.1-3.7-2
		c-1.2,0-2.4,0-3.6,0c-162.5,0-325.1,0-487.6,0c-0.9,0-1.8,0.1-2.7,0c-2.1-0.1-3.5,0.8-4.8,2.5c-4.4,5.7-9.5,10.8-15.6,14.8
		c-0.5,0.3-1,0.7-1.5,0.9c-2.5,1.3-3.6,3.4-4,6.1c-0.2,1.5-0.5,3-0.9,4.4c-0.7,2.8-1.9,5.4-3.7,7.7c-3.3,4.3-8.2,5.1-12.7,2
		c-5.9-4.1-9.3-10-11.9-16.6c-0.6-1.7-1.2-3.4-1.9-5c-0.5-1.2-1.3-2.3-2.4-3.3c-1.1-1-2.2-0.8-2.9,0.5c-0.3,0.7-0.6,1.4-0.9,2.1
		c-1.6,3.4-4,5.9-7.3,7.7c-1.7,0.9-3.4,1.8-5.2,2.7c-2.7,1.3-4,3.4-3.7,6.5c0.4,4.4-0.8,8.7-2.4,12.7c-0.6,1.4-1.3,2.8-2.2,3.9
		c-2.7,3.5-6.4,4.2-10.4,2.2c-2.6-1.3-4.6-3.4-6.7-5.3c-1.3-1.2-2.6-2.5-4-3.6c-0.6-0.5-1.6-0.2-1.9,0.5c-0.4,1.3-0.8,2.6-1.1,3.9
		c-0.9,3.8-3.4,6.7-5.8,9.6c-0.9,1.1-2.2,1.6-3.6,1.7c-1.5,0.1-3-0.2-4.4-0.6c-5.5-1.7-10.4-4.5-14.5-8.7
		c-4.7-4.9-9.3-9.9-12.7-15.7c-1.5-2.5-3.5-4.4-6-5.9c-9-5.3-14.9-13.4-19.8-22.3c-2.1-3.8-3.1-8.1-4-12.4c-2-9.7-2.2-7.4,0.1-17.3
		c1.1-4.8,2.5-9.6,4.2-14.2c1-2.5,1.7-5.1,1.9-7.8c0.4-4.6,1.8-8.8,4-12.8c4.2-7.7,9.6-14.5,16.1-20.5c7.4-6.8,15.4-12.9,24.1-18
		c11.9-7,24.8-11.5,38.4-13.5c6.7-1,13.4-1.9,20.2-1.6c12,0.5,23.9,1.8,35.7,4.6c4.2,1,8.4,2.2,12.6,3.3c2.2,0.6,2.6,0.4,3.7-1.5
		c5.5-10,8.9-20.7,9.5-32.1c0.1-2.3-0.1-4.5-2.3-6c-1.2-0.9-1.8-2.4-2.3-3.8c-4.6-12.1-9-24.2-11.2-37c-2.1-12.5-2.9-25.1-2.1-37.7
		c0.3-5.4,1.3-10.7,2.4-16c0.2-1,0.7-2,0.4-3.1c-1.3-0.5-1.9,0.5-2.6,1.1c-3.2,2.5-6.7,4.6-10.4,6.4c-1.5,0.7-3.1,1.3-4.6,1.7
		c-2.6,0.7-4.9-0.3-6.3-2.3c-1.5-2.2-1.1-4.3,0.3-6.3c0.6-0.9,1.2-1.7,1.9-2.5c6.4-6.4,10.4-14.3,13.2-22.8
		c2.5-7.6,4.2-15.4,5.4-23.2c1.3-8.3,2.5-16.6,3-25c0.2-3.1,0.6-6.3,0.8-9.4c0.1-0.7-0.1-1.4-0.2-2.1c-1.2-0.1-1.5,0.7-1.9,1.3
		c-7,10-13.1,20.5-18.2,31.6c-1.6,3.6-2.8,7.3-3.8,11c-0.3,1.2-0.6,2.3-1,3.5c-0.4,1.1-1,2.2-1.9,3c-1.9,1.7-4.4,1.4-5.8-0.7
		c-0.3-0.5-0.6-1.1-0.7-1.6c-0.3-1.2-0.6-2.4-0.6-3.5c-0.7-10.5-1.4-21-0.9-31.5c0.9-16.4,3.3-32.6,8.3-48.3
		c3.8-12,8.5-23.8,15.4-34.4c0.6-0.9,1.3-1.7,1.3-2.8c0-0.1-0.1-0.2-0.3-0.6c-3.7,0.7-7.4,1.8-11.1,3c-2.8,0.8-5.6,1.2-8.4,1.6
		c-1.7,0.2-3.3-0.1-4.9-0.6c-3.9-1.3-4.7-5.5-1.5-8.1c1.6-1.3,3.5-2.4,5.3-3.4c7.3-4.1,13.8-9.1,19.3-15.4
		c5.8-6.5,10.8-13.7,15.6-21c0.8-1.2,1.4-2.7,1.9-4.1c1.9-5.9,3.5-11.8,4.6-17.9c0.2-1.2,0.5-2.4,0.1-3.6c-0.2-0.6-0.7-1-1.4-0.7
		c-0.8,0.4-1.6,0.9-2.3,1.4c-8,6-15.2,12.7-20.1,21.6c-0.7,1.3-1.6,2.6-2.7,3.6c-2.5,2.5-6.1,1.3-6.9-2.1c-0.4-1.5-0.1-3,0.3-4.4
		c1.3-4.9,2.4-9.9,3.9-14.8c2.1-7.2,4.7-14.2,7.6-21.2c2.8-6.9,6.8-13,11.8-18.5c4.6-5,9.3-9.8,14.4-14.3c0.4-0.4,1-0.7,1-1.6
		c-2,0.4-4,0.8-6,1.2c-0.3,0.1-0.6,0.1-0.8,0.3c-0.8,0.6-1.7,1.2-2.4,2c-3.4,3.6-7.4,6.6-11.3,9.6c-7.8,5.9-15.5,11.9-23.7,17.2
		c-2.4,1.5-4.8,3-7.3,4.5c-4.2,2.4-8.8,3.9-13.5,4.8c-3.1,0.5-6.3,0.5-9.3-0.7c-4.1-1.6-5.7-4-5-8.4c0.4-2.5,1.1-5,1.9-7.4
		c1.7-5.3,3.2-10.6,3.9-16.2c0.2-1.8,0.5-3.6,0.6-5.4c0.3-8.9,0.6-17.7-0.9-26.5c-0.5-2.7-1-5.3-1.8-7.9c-2.3-7.2-2.4-14.5-1.3-21.8
		c0.8-5.5,1.7-11,3.5-16.3c0.6-1.7,0.3-3.2-0.7-4.7c-3.9-5.5-4.7-11.6-3.3-18c0.2-1,0.5-2.1,1-3c1.1-2.3,3.6-2.5,5.1-0.4
		c0.6,0.8,1.1,1.8,1.5,2.8c0.8,2,2.4,3.1,4.4,3.5c2.1,0.4,4.1,0.9,6.2,1.1c6.6,0.5,13.2,0,19.7-1.1c2.5-0.4,4.9-1.3,7.2-2.6
		c3.3-1.8,6.8-3.2,10.3-4.4c6.9-2.5,13.6-5.5,20.3-8.7c6.1-2.9,12.3-5.6,18.8-7.4c5.8-1.6,11.3-4.1,16.7-6.8
		c3.1-1.6,6.1-3.2,9.2-4.7c13.8-6.4,28-7.5,42.6-3.4c6.7,1.8,12.5,5.2,17.4,10c2.7,2.6,5.2,5.4,7.8,8.1c0.3,0.3,0.8,0.5,1.2,0.4
		c0.5,0,0.7-0.6,0.7-1c0-2.7,0.2-5.4-0.1-8.1c-0.6-6.6-1.3-13.2-2.9-19.6c-0.3-1.2-0.6-2.3-0.5-3.5c0.2-1.8,1.5-3,3.3-3
		c1.4,0,2.7,0.4,3.9,1.1c6.2,3.4,12.4,6.8,18.4,10.4c5.2,3.1,9.7,7.1,13.9,11.4c2.6,2.7,4.8,5.8,6.3,9.2c0.4,0.8,0.7,1.7,1.1,2.4
		c0.5,1,1.5,1,2.1,0.1c0.8-1.1,1.5-2.2,2.2-3.4c1.4-2.2,2.7-4.3,4.1-6.5c0.9-1.4,2-2.6,3.5-3.5c1.4-0.8,2.9-1,4.2,0
		c1.3,0.9,1.6,2.2,1.3,3.6c-0.4,1.9-0.8,3.8-1.3,5.7c-2.1,7.8-2.6,15.7-2.7,23.7c0,3.8,1,7.4,2.5,10.9c0.9,2,1.7,2.4,3.9,1.9
		c5-1.1,10-1.8,15.1-2.6c2.4-0.4,4.8-0.5,7.2-0.4c2.9,0.1,5.6-0.5,8.2-1.9c2.1-1.1,4.3-2.2,6.4-3.3c8.5-4.4,17.5-6.8,27.1-7.8
		c8-0.8,15.9-0.2,23.7,1.4c3.9,0.8,7.5,2.1,10.8,4.3c1.7,1.1,2.2,0.7,2.4-1.4c0.2-2.4,0.4-4.8,0.5-7.2c0.4-6.7,2.4-13,5.1-19
		c1.8-4,3.8-7.8,5.8-11.7c0.5-1.1,1.1-2.1,2.1-2.9c2.6-2.1,6.4-1,7.1,2.3c0.4,1.7,0.3,3.6,0.3,5.4c-0.1,3.2,0.2,6.3,1,9.4
		c0.2,0.7,0.5,1.4,0.8,2.1c0.1,0.2,0.4,0.4,0.7,0.5c0.2,0,0.6-0.2,0.7-0.4c0.4-0.6,0.7-1.3,1-2c5.2-12.8,14-22.7,25-30.7
		c3.9-2.8,8-5.4,12-8c1.1-0.7,2.3-1.4,3.6-1.8c1.7-0.6,3.3-0.3,4.5,1.1s1.5,3,0.7,4.6c-0.6,1.2-1.3,2.4-2.1,3.4
		c-3,4-5.4,8.3-7.5,12.8c-0.3,0.7-0.5,1.4-0.8,2c0.8,1,1.5,0.4,2.1,0.1c10.4-5.9,21.8-9.3,33.2-12.5c4.3-1.2,8.7-2.4,13-3.5
		c1.3-0.3,2.7-0.7,4-0.7c2.1,0,3.8,0.9,4.7,2.9c0.8,1.9,0.4,3.6-0.9,5c-0.8,0.9-1.7,1.7-2.7,2.4c-2.7,2-5.3,3.9-8,5.8
		c-2.2,1.6-4,3.6-5,6.2c-0.1,0.2-0.1,0.6,0.1,0.8c0.1,0.2,0.5,0.4,0.8,0.3c0.9-0.2,1.8-0.4,2.6-0.7c5.8-2.1,11.9-3.2,18-4
		c2.7-0.4,5.4-0.4,8.1,0c5.5,0.8,10.9,1.9,16.3,3.5c3.2,1,6.2,2.3,9,4c13.1,7.7,27.3,12.3,42.3,14.8c6.7,1.1,13.3,2.2,20,3.2
		c1.5,0.2,3,0.3,4.5,0.4c1.3,0.1,2.7,0.2,4,0.3c4.3,0.3,7.1,2.3,9.1,6.3c2.2,4.4,5,8.6,7.5,12.9c2.8,4.9,4.4,10.2,3.9,15.9
		c-0.3,3.7-0.9,7.5-1.2,11.2c-0.7,9.4-1.2,18.9-0.3,28.4c0.8,8.7,3.3,17.1,7.3,25c5.9,11.6,12.4,23,20.8,33.1
		c0.8,0.9,1.5,1.9,2.1,2.9c1.4,2.5,0.4,5.1-2.3,6.3c-1.1,0.5-2.3,0.6-3.5,0.6c-2.5,0-5.1,0-7.7-0.1c-9.2-0.6-18.2-1.8-26.9-5
		c-1.7-0.6-3.4-1.2-5-2c-6.5-3.2-12.9-6.4-19.3-9.7c-3.5-1.8-6.7-4.1-9.6-6.7c-0.6-0.6-1.1-1.4-2.4-1.5c2,3.2,4.1,6,6.5,8.7
		c8.9,10.4,19.7,18,32.2,23.2c1.4,0.6,2.8,1,4.2,1.7c1,0.4,1.9,0.9,2.7,1.6c2.1,1.8,2.2,4.4,0.4,6.4c-0.6,0.7-1.3,1.2-2.1,1.7
		c-3.1,1.9-6.4,3.2-10.1,3.5c-3.3,0.2-6.6,0.5-9.9,0.8c-0.6,0.1-1,0.9-0.6,1.4c0.7,0.8,1.3,1.6,2.1,2.4c7.1,7.4,12.3,15.9,15.2,25.8
		c1.9,6.6,3.8,13.3,5.6,20c0.4,1.4,0.6,3,0.6,4.4c0,1.9-1.1,3.4-2.9,4.2c-1.9,0.8-3.6,0.3-4.9-1.1c-1.2-1.3-2.3-2.8-3.3-4.2
		c-2.7-3.9-6.5-6.6-10.6-8.9c-0.4-0.2-1-0.4-1.2,0.1c-0.2,0.3,0,0.9,0.2,1.2c0.4,0.6,1,1.1,1.5,1.7c6,6.4,10.5,13.9,14,21.9
		c5.4,12.4,8.4,25.3,10.5,38.6c1,6.2,1.8,12.5,1.9,18.8c0.1,2.4,0.5,4.8,0.7,7.2c0.1,1.3,0.1,2.7-0.2,4c-0.2,1.4-1.1,2.5-2.6,2.8
		c-1.2,0.2-2.5-0.5-3.3-1.9c-0.4-0.8-0.7-1.7-1-2.5c-1-3-2.4-5.8-4.3-8.4c-2.2-3-4.5-6-6.9-8.9c-1.9-2.3-4.2-4.3-6.8-5.9
		c-3.6-2.2-7.1-4.4-10.7-6.7c-0.8,1.4,0.2,1.9,0.7,2.5c2.8,3.2,5.6,6.3,8.4,9.4c5.6,6.1,10.4,12.8,15.2,19.6
		c6.8,9.7,10.7,20.5,12.2,32.1c2,14.3,3,28.7,2.8,43.1c-0.1,6.9-0.8,13.8-1.5,20.6c-0.6,6.6-1.5,13.1-1.3,19.8
		c0,2.6-0.4,5.1-0.8,7.6c-0.2,0.9-0.4,1.8-0.8,2.5c-1.7,3-5.6,3.1-7.4,0.1c-0.7-1.1-0.9-2.5-1.3-3.8c-1.8-6-5.1-11.2-9.5-15.6
		c-1.5-1.5-3.3-2.6-5-3.8c-0.6-0.4-1.4-1-2.1-0.5c-0.8,0.5-0.3,1.4,0,2c3.4,9,6.8,18,10.8,26.7C761.1,527,767.9,541,775,555
		c3.2,6.2,6.8,12,11.1,17.5c2.7,3.4,5.1,7,7.7,10.6c1,1.5,2.2,2.9,3.1,4.4c1.2,1.9,2.8,2.3,5,2.2c5.7-0.2,11.4-0.5,17.1-0.2
		c17,1,33.2,5.2,48.1,13.6c11.5,6.4,21.8,14.3,30.9,23.9c4,4.3,7.6,8.9,10.5,14c2.6,4.6,4.6,9.4,5,14.8c0.2,2.2,0.6,4.5,1.5,6.6
		c2.7,6.7,4.3,13.8,6,20.8c0.4,1.8,0.6,3.6,0.3,5.4c-1,5.6-2.3,11.2-4.3,16.5c-1.7,4.4-4.5,8.1-7.3,11.9c-3.7,5-8.1,9.3-13.5,12.4
		c-2.4,1.4-4.3,3.3-5.7,5.7c-3.3,5.6-7.8,10.3-12.1,15.1s-9.7,8-16,9.6c-0.7,0.2-1.5,0.4-2.2,0.5c-2.2,0.3-4.2-0.4-5.6-2.2
		c-2.6-3.1-4.9-6.4-5.7-10.6C848.5,745.6,848.4,744.4,847.1,743z"/>
</g>
<g>
	<path class="st0" d="M446.3,410.4c0-0.1,0-0.2-0.1-0.2c-8.8,2.2-8.8,2.2-15.6,1.3c1.8,2.7,2.2,3.4,3.9,4.1c4.6,2,8.4,5.3,12.3,8.2
		c3.1,2.4,6.5,4.3,10,5.9c3.7,1.6,7.5,3,11.5,3.9c0.2,0,0.4,0.1,0.6,0.1c0.7,0.1,1.3,0.1,2,0c0.1,0,0.1,0,0.1,0
		c0.2,0,0.3-0.1,0.5-0.2c0.6,0,1.7-0.1,2.9-1.1c1.8-1.5,0.7-19-1.6-29.1c-0.2-1.5-0.4-3-0.6-4.5c-0.2-2.2-1.1-4.3-2-6.4
		c-1.5-3.5-3.9-6.4-6.9-8.7c-0.9-0.8-1.9-1.2-2.9-1.6c-1.1-0.4-2.4-0.6-3.8-0.4c-3.9,0.5-7.7,0.9-11.5,2.1c-2.4,0.7-4.5,1.6-6.6,2.9
		c-2.4,1.6-4,3.6-3.8,6.7c0.1,0.6,0.1,1.2,0,1.8c0,0.4-0.2,1-0.4,1.1c-0.4,0.1-0.9,0.2-1.2,0.1c-0.2,0-0.4-0.1-0.5-0.2
		c-2.4-1.9-4.2-4.3-5-7.3c-0.2-0.6,0-1.3-0.6-1.6c-0.1,0-0.2-0.1-0.4-0.1c-0.5,7.5,0.3,8.9,1.8,12.3c1.3,2.9,3.6,4.8,6.5,5.9
		c0.3,0.1,0.5,0.2,0.8,0.3c3.6,1,7-0.7,8.6-4.1c0.5-0.9,0.3-1.7,0-2.6c-0.5-1.4-1.7-1.9-2.9-2.5c-2.1-1.1-2.5-2.7-1.6-4.9
		c0.9-1.9,2.4-2.7,4.2-3c2.5-0.4,5.1-0.5,7.6-0.9c2.4-0.4,4.3,0,6.1,0.9c1.7,0.9,3.1,2.2,4.2,4c3.5,5.5,4.3,11.5,3.4,17.8
		c-0.3,2-1.3,3.6-3,4.8c-2.2,1.7-4.6,2.8-7.2,3.6c-1.9,0.6-3.7,0.4-5.4-0.2c-1.1-0.4-2.2-0.9-3.2-1.4c-1.4-0.9-1.7-2.2-1.5-3.9
		C445.5,412.1,446.5,411.5,446.3,410.4z"/>
	<path class="st0" d="M489.7,371C489.7,371,489.8,371,489.7,371c2.1,0,4.2-0.2,6.2,0h0.1c0.3,0,0.5,0,0.8,0c3.3,0,5.4-2.1,7-4.5
		c1-1.3,0.8-3.3-0.5-4.6c-0.5-0.6-1-1.1-1.6-1.6c-5.3-4.2-10.8-7.1-17.7-7c-0.6,0-1.1,0-1.7,0.1c-10.9,0.9-21.8,2.2-32.4,5.1
		c-3.8,1-5.8,3.5-7.4,6.6c-1.4,2.9,0.1,7.3,2.9,9c2,1.2,4,1.7,6.1,1.7c1.1,0,2.4-0.1,3.5-0.4c3.4-0.7,6.8-1.5,10.1-2.1
		c6.1-1,12.2-2.6,18.4-2.7C485.6,370.5,487.7,370.6,489.7,371z"/>
	<path class="st0" d="M477.3,395c0,0.1,0,0.2,0,0.2c0,0.7,0.1,1.2,0.2,1.9c0,0.2,0,0.3,0.1,0.5c0.1,0.5,0.2,1,0.2,1.5
		c0,0.1,0,0.2,0.1,0.4c0.1,0.6,0.2,1,0.3,1.6c0,0.1,0.1,0.2,0.1,0.3c0.1,0.5,0.2,0.9,0.3,1.3c0,0.2,0.1,0.4,0.2,0.6v0.1
		c1.4,10.3,4.8,31.4,8.3,31.6c0.1,0,0.3,0,0.4,0c0.2,0,0.4,0,0.7,0l0,0c0.2-0.1,0.5-0.1,0.7-0.2c0.5-0.2,0.9-0.4,1.4-0.7l0,0
		c3.3-1.8,6.5-3.8,9.9-5.4l0,0c6.5-3,11-8.2,15.2-13.7c1.9-2.4,2.9-5.3,3.4-8.3c0.2-1,0-1.8-0.8-2.4c-1.5-1.1-2.5-0.9-3.8,0.7l0,0
		c-0.8,0.9-1.4,2-2.2,2.9l0,0c-2.2,2.8-5,5.2-8.4,6.7c-1.7,0.8-3.4,1.3-5.2,1.4c-2.8,0.2-5.5-0.6-7.4-2.5c-1.4-1.5-2.4-3.4-3.7-5.1
		c-0.2-0.3-0.4-0.6-0.7-0.9c-1.7-2.5-2.7-5.2-3-8c0-0.1,0-0.1,0-0.2c0-0.4-0.1-0.8-0.1-1.1c0-0.5,0-0.9,0-1.3c0-0.1,0-0.1,0-0.2
		c0.1-0.6,0.1-1.2,0.3-1.9c0.2-0.8,0.2-1.5,0.3-2.2s0.2-1.5,0.3-2.2c0.3-1.9,1.3-3.3,2.7-4.5c1.2-1,3.1-1.8,5.2-2.2
		c1.2-0.2,2.5-0.4,3.8-0.3c2,0.1,3.9,0.5,5.2,1.2c3.9,2.2,4.4,6.1,1.5,9.3c0,0,0,0-0.1,0.1c-1.1,1.2-2.7,1.9-4.3,2.8l0,0
		c2.2,2.8,4.5,4.4,7.6,3.8c3-0.7,6-1.5,8.8-3.1c0.8-0.4,1.3-0.9,1.8-1.3c1.6-1.4,2.2-3.3,2.4-5.5c0.2-1.9-0.3-3.5-2.1-4.6
		c-2.3-1.4-4.4-3.1-6.3-5.1c-1.7-1.8-3.9-2.6-6.4-2.8c-3.7-0.3-7.2,0.3-10.8,0.4c-5.5,0.2-9.7,2.8-13.3,6.5
		c-0.3,0.3-0.5,0.5-0.7,0.8c-1.4,1.5-2.1,3.3-2.2,5.3c0,0.7,0,1.3,0,1.9c0,0.2,0,0.4,0,0.5C477.2,393.9,477.3,394.5,477.3,395z"/>
	<path class="st0" d="M357.5,422.4c1.4,1.4,1.2,3.9,2.6,5.6c0.7,0.8,1.3,1.6,2.1,2.4c2.6,2.9,6,2.6,9.5,2c0.5-0.1,0.9-0.4,0.9-0.8
		c0.1-0.3,0.1-0.6,0-0.9c-0.5-1.4-1.1-2.7-1.7-4.1c-2.8-6.8-3.4-13.6-1-20.7c1.8-5.2,3.9-10.2,6.9-14.7c0.9-1.4,2.1-2.8,3.3-4.1
		c0.9-1,1.5-2.4,2.9-2.7c1,1.4-0.5,2.4-0.7,3.6c-0.3,1.9-0.6,3.9-0.9,5.7c-1.7,7.3-2,14.8-2.2,22.4c0,2.6,0.1,5.2,0.2,7.7
		c0,1.5,0.2,3,1.4,4.1c4.4,4,6.6,9.2,8.5,14.6c0.7,1.8,1.4,3.7,2.5,5.3c4.6,6.3,9.5,12.4,16.1,16.8c4.8,3.2,9.9,4.9,15.7,4.3
		c4.4-0.4,8.6-1.3,12.8-2.6c4.4-1.4,8.7-3.2,13.1-4.6c5.4-1.6,10-4.6,14.5-8c1.8-1.3,3.4-2.9,4.8-4.7c0.9-1,1.5-2.2,2.1-3.5
		c0.7-1.6,0.4-2.6-1.3-3.2c-4.1-1.5-8-3.5-11.6-5.8c-1.9-1.1-3.8-2-5.7-2.6c-7.8-2.5-15.1-5.9-21.9-10.4
		c-8.5-5.7-13.1-14.6-11.4-25.2c0.6-3.6,0.9-7.1,0.7-10.7c-0.1-2.4,0.3-4.8,1.1-7c0.9-2.6,2-5.1,3.5-7.3c1.1-1.7,2-3.4,2.8-5.2
		c0.9-2.1,2.1-3.9,3.4-5.6c2.1-2.7,4.5-5.1,7.1-7.1c6.1-4.6,13.1-7,20.8-8c2.2-0.3,4.2-0.7,6.3-0.8c6.9-0.3,13.7-1.2,20.7-0.5
		c10.3,1.1,19.4,5.1,27.6,11.2c2.7,2,5,4.4,6.5,7.4c2.2,4.3,4.2,8.6,5.3,13.3c1,4.4,1.8,8.9,0.9,13.4c-0.8,5.1-1.6,10-1.5,15.2
		c0,3-0.5,6.2-2.2,8.8c0,0.1-0.1,0.1-0.1,0.2c-0.2,0.3-0.4,0.6-0.6,0.9c-0.2,0.3-0.4,0.5-0.6,0.8c-0.3,0.3-0.5,0.7-0.8,0.9
		c-0.5,0.6-0.9,1.1-1.3,1.7c-0.1,0.1-0.2,0.3-0.3,0.4c-0.5,0.6-0.9,1-1.3,1.5c-0.3,0.3-0.5,0.6-0.8,0.8c-0.2,0.2-0.4,0.4-0.6,0.6
		c-2.8,2.9-6,5.5-9.9,7.2c-3.1,1.5-6.1,3.2-8.9,5.3c-2.2,1.6-4.7,2.6-7.2,3.7c-3.1,1.3-6.1,2.7-9.3,4.2c-0.1,0-0.2,0.1-0.3,0.1
		c2.2,4,4.9,7.2,7.4,10.5c0.8,0.9,1.8,1.1,2.7,1.5c2.4,0.9,4.8,2,7.1,2.8c3.9,1.5,7.8,2.9,11.8,4.2c5.2,1.7,10.3,1.7,15.6,0.6
		c5.6-1.3,10.8-3.5,15.4-7c2.8-2.2,5.3-4.6,7.1-7.7c0.2-0.4,0.4-0.8,0.6-1c1.4-2.6,2.8-5.4,4-8.1c1.7-3.7,3.6-7.1,6-10.3
		c0-0.1,0.1-0.1,0.1-0.2c1.5-2.1,3.1-4.2,4.3-6.5c0.1-0.1,0.1-0.2,0.2-0.3c4.5-7.9,4.6-16.3,3.4-25c-1.6-3.3-1.6-7-2-10.5
		c-0.5-4.5-1.8-8.8-3.9-12.9c-0.9-1.6-1.9-3.2-3.4-4.2c-0.6-0.4-0.9-0.9-1.8-0.6c-0.1,0-0.1,0.1-0.2,0.1c0.1,2.4,0.6,4.7,0.1,7.7
		c0,0.2,0,0.3-0.1,0.5c-2.2-4.2-5.5-6.8-7.9-10c-0.8-1-1.7-2.1-3.1-2.4c-4.3-1.3-5.8-4.9-6.7-8.8c-0.3-1.7-0.3-3.3-0.3-5
		c0.2-6.8-2.6-12.5-6.3-17.9c-1.3-2-3.2-2.6-5.5-2.4c-0.8,0.1-1.5,0.4-1.9,1c-0.2,0.2-0.3,0.5-0.3,0.9c-0.3,1.4-0.7,2.7-1.5,3.9
		c-0.1,0.1-0.1,0.2-0.2,0.3c-1.8,2.4-4.3,2.5-6.5,0.4c-3.2-3.1-6.4-6.2-9.6-9.4c-0.6-0.6-1-1.1-1.5-1.7c-1.1-1.5-1.3-3.2-0.5-4.4
		c0,0,0-0.1,0.1-0.1c0,0,0-0.1,0.1-0.1l0,0c1-1.3,2.4-1.7,4-1.3c1,0.2,2.1,0.6,3,0.9c1.2,0.6,2.6,0.6,3.9,0.8c1.4,0.2,2-0.6,2.3-1.4
		c0.2-0.5,0.4-0.9,0.7-1.3c0.8-1.2,0-2-0.8-2.7c-5-5.3-10.7-9.7-16.5-13.9c-3.6-2.6-6.4-5.8-8.2-10c-1.4-3.3-3.7-5.7-7.4-6.5
		c0.1-0.1,0.2-0.2,0.4-0.3c0.9-0.6,2.1-0.6,3-0.6c1.9-0.1,3.9-0.1,5.9-0.2c0-0.1-0.1-0.3-0.1-0.4c-0.3-1.8-0.9-3.1-2.1-4.1
		c-0.9-0.9-2-1.9-3-2.7c-4.2-3.6-7.2-8-9.5-13c-0.8-1.8-1.5-3.7-2.5-5.3c-4.2-6.7-5.1-13.7-3.3-21.2c0-0.1,0.1-0.3,0.1-0.4v-0.1
		c0.2-0.9,0.5-1.9,0.8-2.8s0.6-2,0.9-2.8c1.1-3.4,2.9-6.2,5.9-8.3c1-0.8,2.2-1.6,3.2-2.4c0.2-0.2,0.5-0.5,0.5-0.8c0-0.1,0-0.2,0-0.4
		c-0.3-0.7-0.9-0.7-1.5-0.6c-0.9,0.2-1.7,0.6-2.5,0.9c-1,0.5-1.9,1.5-3.7,1.6c0-0.1,0.1-0.3,0.1-0.4s0-0.1,0-0.2
		c0.1-0.3,0.2-0.5,0.2-0.8c0.5-2.7-0.5-5.3-1.3-7.9c-0.6-1.7-0.8-3.3-0.6-4.9c0.3-2.5,1.2-4.9,2.4-7.2c1.2-2.2,3.5-2.6,5.9-1.5
		c0.9,0.4,1.6,1.4,2.9,1.4c1.5-3.6,3.8-6.8,6.8-9.3c1-0.9,1.6-1.8,1.9-2.9c0.2-0.9,0.2-1.7,0-2.6c-0.8-5.5-0.3-10.9,1-16.1
		c0.8-2.9,1.8-5.7,3-8.6c1.6-3.8,3.5-7.3,5.6-10.8c0.5-0.8,1-1.6,1.4-2.4c0-0.1,0-0.2,0-0.3c0-0.2-0.1-0.5-0.2-0.5
		c-0.2-0.2-0.6-0.3-0.9-0.2c-0.6,0.2-1.1,0.5-1.7,0.7c-1.4,0.3-2.2-0.4-2.4-1.9c-0.1-0.9,0.1-1.6,0.3-2.4c0.2-0.7,0.6-1.3,1-1.9
		c1.8-2.4,3.6-4.9,5.5-7.2c1.7-2.1,3.6-4,5.3-6.1c2.3-2.7,4-5.9,5.3-9.3c0.2-0.6,0.4-1.1,0.5-1.6c0.2-1.2,0-2.3-0.6-3.7
		c-1.4-3-2.7-6-5.5-8.2c-0.5-0.4-0.9-0.8-0.8-1.5c0.6-1.6-0.6-2-1.6-2.6c-3.5-2.2-7.2-3.5-11.3-4.3c-6-1.2-11.9-1.1-17.9-0.8
		c-8.1,0.5-15.7,2.4-22.9,6c-2.5,1.2-5.1,2.6-7.6,3.8c-4.9,2.3-10,3.5-15.3,2.4c-2.2-0.4-4.5-0.3-6.8,0.1c-1.7,0.3-2.2,0.4-2.5,1.2
		c-0.1,0.4-0.2,0.8-0.2,1.5c-0.9,10.9,1.8,20.3,10.8,27.1c1.3,0.9,2.5,2.1,3.4,3.6c0.4,0.8,0.5,1.5,0.4,2.2
		c-0.2,1.4-1.4,2.5-3.1,2.6c-0.6,0-1.3-0.7-1.8,0c-0.1,0.1-0.1,0.1-0.2,0.2c0.4,1.5,1.5,2.5,2.4,3.8c2,2.8,3.5,5.7,3.9,9.4
		c0.5,3.9,1.2,8,2.9,11.7c0.5,1,0.8,2.1,0.6,3.1c-0.1,0.8,0,1.6-0.1,2.4c-0.1,0.6-0.3,1-0.9,1.4c-1.6,1-2.7-0.5-3.9-1.2
		c-0.9-0.6-1.6-1.3-2.4-2c-0.8-0.5-1.3-1.2-2.2-1.1c0,0,0,0-0.1,0c-0.2,0.9,0.1,1.9,0,2.7c-0.1,0.4-0.2,0.9-0.7,1.1
		c-0.4,0.3-0.6,0.7-0.7,0.9c-0.3,0.8,0,1.6,0.2,2.4c2.9,12,3.7,24.3,3.5,36.6c0,0.7,0,1.3-0.2,2.1c0,0.1,0,0.2,0,0.2
		c-0.2,1-1.6,1.6-2.5,0.9c-0.5-0.3-1-0.7-1.4-1.1c-2.7-3-6.4-5.1-8.9-8.3c-0.4-0.6-1-1-1.7-1.4c-0.5-0.4-1-0.9-1.6-0.2
		c-0.1,0.1-0.1,0.2-0.2,0.3c0.8,1.3,1.6,2.5,2.2,3.9c1.4,3.2,3.4,5.9,5.5,8.6c5.1,6.6,8.2,13.8,8.1,21.9c0,2.1-0.3,4.1-0.7,6.3
		c-0.2,0.7-0.3,1.3-0.3,2.1c0,0.9,0.1,1.9,0.5,2.8c1.3,3.2,1.8,6.4,1.8,9.7c0,2.7-0.3,5.4-0.7,8.1c-0.8,5-2.2,9.7-6.9,12.7
		c-0.4,0.3-0.9,0.7-0.9,1c-0.3,2.2-1.1,4.4-1.3,6.7c-0.1,1.1,0.1,2.2,0.6,3.5c0.2,0.4,0.3,0.8,0.3,1.1s0,0.7-0.1,1
		c-0.2,0.6-0.3,1.1-0.4,1.6c-0.1,1.4,0.3,2.7,0.5,4.1c0.1,1,0.2,2,0.2,3c0.1,4.6-1.2,8.8-4.3,12.6c-1.2,1.5-2.2,3.2-3,5
		c-1.2,2.9-2.8,5.6-4.9,8.1c-1.5,1.7-3.2,3.2-5.4,4c-1.8,0.8-3.6,0.7-5.1-0.7c-0.9-0.8-1.1-1.7-1-2.7c0-0.5,0.1-0.9,0.2-1.4
		c0.2-0.8,0.5-1.5,0.8-2.2c0.7-1.8,1.5-3.6,2.2-5.4c0.1-0.4,0.2-0.9,0.2-1.4c-0.1-1.3-0.6-2.9-1.2-3.1c-1.5-0.5-2,1-2.7,1.9
		c-0.9,1.1-1.8,2.4-2.6,3.7c-3,4.3-6.5,8.3-10.7,11.5c-0.9,0.8-2,1.4-2.7,2.4c-2.5,2.9-5.6,5-8.8,7c-1,0.6-2.2,1-2.9,2.4
		c-0.1,0.2-0.2,0.3-0.2,0.5c2.5,0.7,4.9,2,7.7,0.9c0.9-0.4,1.8,0.4,2,1.3c0.1,0.4,0.1,0.7-0.1,0.9c-1.9,3.5-4,6.8-8.3,7.7
		c-2.5,0.6-4.8,1.8-7,3.1c-2.1,1.2-4.1,2.5-6.2,3.7c-1.4,0.8-2.2,1.9-2.9,3.3c-1.9,4-3.7,8-5.5,11.9c-0.6,1.4-1,2.8-1.3,4.3
		c-1,5.7-1.9,11.5-3,17.3c-0.2,0.7-0.2,1.4-0.3,2.1c-0.3,3.3,0.5,6.3,1.6,9.4C355,419.2,356,420.8,357.5,422.4z M484.2,285.7
		c0-0.1,0-0.1,0.1-0.2l0,0l0,0c0,0,0-0.1,0.1-0.1c0,0,0,0.1-0.1,0.1l0,0l0,0C484.3,285.6,484.2,285.7,484.2,285.7
		C484.2,285.8,484.2,285.8,484.2,285.7L484.2,285.7z"/>
	<path class="st0" d="M574.3,445.6c0-1-1.1-5.9-1.8-5.1c-1.7,2.2-7.2,8.5-7.4,9.9c-1.2,7.9-2.2,18.4-6.3,25.4
		c-4.2,7.1-5.6,12.5-10,19.4c-3,4.7-3.4,11.5-4.2,17.1c-0.1,0.4-0.1,0.8-0.2,1.1c0,0.2,0,0.4,0,0.6c0,0.6,0.1,1.1,0.1,1.7
		c0,0.2,0.3,0.5,0.5,0.6c0.3,0.1,0.7,0,0.8-0.2c1.2-1.5,2.3-3,3.1-4.9c1.7-4.3,3.8-8.5,5.2-13c2.1-6.4,5.7-10.2,9.4-15.7
		c1-1.5,3.7-3.9,4.8-5.4c5.5-7.2,6-16.1,5.8-24.9c0-0.6,0-1,0-1.6v-0.1C574,449.6,574.4,447.4,574.3,445.6z"/>
	<path class="st0" d="M538.6,269.7c1.1,0.5,2.2,1.2,3,2c2.6,2.4,5.7,3.7,8.9,5c1.7,0.8,3.4,1.1,5.1,1.1c1.6,0,3.3-0.2,5-0.8
		c0.4-0.2,0.8-0.3,1.2-0.5c1.3-0.4,2.5-0.9,3.7-1.5c2-1.1,3.7-2.6,5.1-4.4c1.3-1.8,2.3-3.8,3-5.8c1.1-1.9,1.9-3.9,2.5-6
		c0.2-0.5,0.3-0.9,0.1-1.3c-0.8-1.4-1.6-2.9-2.5-4.2c-0.2-0.2-0.4-0.5-0.6-0.7c0,0-0.1-0.1-0.1-0.2l-1.1-2.7l-0.2-0.4l0.5,3.1
		c-0.1,0-0.2,0-0.4,0.1c0.2,0.5,0.4,0.9,0.6,1.4c0.2,3-0.5,6-1.8,8.6c-1.5,3-3.9,5.6-6.9,7.3c-3.8,2.2-8.4,2.4-12.6,1.2
		c-2.8-0.9-5.5-2.4-7.6-4.4c-0.3-0.3-0.7-0.7-0.9-0.9c-0.2-0.3-0.3-0.6-0.4-0.9c-0.8-2.7-1.5-5.5-1.4-8.4c0-0.2,0-0.5-0.2-0.6
		c-0.1-0.2-0.3-0.3-0.6-0.3c-0.2,0-0.6,0.3-0.7,0.5c-1.9,3-2.2,6.5-2.6,9.9C536.5,267.7,537,268.9,538.6,269.7z"/>
	<path class="st0" d="M554.3,253.8c-0.1,0.6-0.2,1.1-0.2,1.8c0.2,1.6,0.6,3.6,2.5,4.6c1.3,0.7,3.1,0.6,4.7,0
		c1.1-0.5,2.2-1.3,2.7-2.4c0.2-0.4,0.3-0.8,0.4-1.1c0.9-0.1,1.9-0.6,2.5-1.3c1-1.3,1.1-3.3,0.4-4.9c-0.5-0.9-1.1-1.8-2-2.4
		c-0.3-0.2-0.6-0.4-0.9-0.6c-0.3-0.2-0.6-0.3-0.8-0.4c-0.2-0.1-0.4-0.2-0.7-0.2c-1.3-0.4-2.6-0.6-3.9-0.6c-0.1,0-0.1,0-0.2,0
		c0,0,0,0-0.1,0c-0.8,0-1.6,0.1-2.4,0.3c-0.8,0.2-1.7,0.6-2.3,1.2s-1,1.6-1,2.4c0,0.9,0.3,1.8,0.8,2.5
		C553.9,253.2,554.2,253.5,554.3,253.8z"/>
	<path class="st0" d="M244.2,619.7c-1-0.5-2.2-0.9-3.2-1.3c-4.4-1.7-8.2-4.8-12.5-7c-4.5-2.2-9.1-4-13.9-5.5
		c-9.5-2.9-19.2-4.3-29.1-5.3c-1.1-0.2-2.4-0.3-3.6-0.2c-3.1,0.2-5.9,1.6-9,2.1c-2.8,0.5-5.6,0.3-8.4,0.5c-4.3,0.3-8.6,0.7-12.9,1.4
		c-8.4,1.4-16.9,3.8-24.4,8c-1.8,1-3.5,2.2-5.1,3.7c-0.8,0.6-1.4,1.1-2.1,1.8l-6.4,2.8c-4.3,2.2-8.4,4.7-12.1,7.7
		c-3.8,3-7.1,6.4-10.2,10.1c-3.1,3.8-5.7,7.8-7.9,12.1c-7.4,14.6-8.8,31.8-4.6,47.5c0.1,0.7,0.3,1.2,0.5,1.8s0.4,1,0.6,1.6
		c0.2,0.4,0.3,0.7,0.5,1c0.1,0.2,0.2,0.3,0.2,0.5c0.1,0.1,0.1,0.2,0.1,0.3c0.6,1,1.2,2.1,2.1,3c0.8,0.8,1.9,1.7,3,2.2
		c0.4,0.2,0.8,0.3,1.2,0.4c-0.5-1.4-0.8-2.7-1.1-4.1c-1-4.5-1.5-9.1-1.6-13.8c0.1-4.7,0.6-9.4,1.5-14c0.6-2.3,1.1-4.6,1.9-6.9
		c0.2-0.6,0.4-1.1,0.6-1.7c2.6-7,6.1-14.1,10.1-20.4c3.1-5.1,7.1-9,11.4-13c0.3-0.3,0.7-0.7,0.9-0.9c0.3-0.2,0.6-0.5,0.8-0.8
		c-2.3,2.2-5.5,9.2-7.3,12.9c-8.4,17.3-7.9,35.8-4.6,54.3l3.4,18.8l0.4,2.7c0,0.2,0.1,0.4,0.2,0.6c1.8,4,14.2,1.6,16.9,0.8
		c-0.2,0-0.3-0.1-0.5-0.3c0-0.1-0.1-0.1-0.1-0.2c-0.4-0.8-0.5-2.3-0.5-2.6c0-0.4-0.3-0.7-0.4-1c-2.2-5.5-2.6-11-3.8-16.8
		c-0.8-4.1-3.4-7.9-3.9-12.1c-2.1-15.7,2.2-16.6,4.7-32.2c1.2-8.2,7-14.7,13.2-19.9c3.3-2.8,6.9-5.3,10.7-7.6
		c2.9-1.9,6.7-4.7,10.1-5.6c0.1,0,0.1,0,0.2-0.1c0.2,1.3-0.9,2.6-1.9,3.6c-9.8,10-17.8,23-19.7,37.1c-2.1,14.2,0.2,29,6,41.7
		c0.2,0.4,0.4,0.8,0.6,1.2c0.2,0.4,0.4,0.8,0.6,1.1c0,0.1,0.1,0.2,0.1,0.2c0,0.1,0.1,0.1,0.1,0.2c1.4,2.7,2.9,5.3,3.7,8.4
		c0,0.1,0,0.1,0.1,0.2c0,0.1,0,0.1,0,0.2c0.6,0,1.1,0,1.7,0c0.3-0.1,0.6-0.1,0.9-0.1c0.4-0.1,0.7-0.1,0.9-0.1
		c1.6-0.2,3.1-0.4,4.7-0.5c1.3-0.1,2.7-0.3,4-0.5c1.1-0.2,2.2-0.3,3.3-0.5c8.1-1.3,15.5-3.9,18.8-12.3c0.9-2.3,0.5-4.5-0.2-6.7
		c-0.3-0.9-0.7-1.8-0.9-2.7c-0.3-0.7-0.5-1.3-0.7-2c-1.2-3.6-2.4-7.2-3-10.9c0-0.3-0.1-0.6-0.1-0.8c0-0.3-0.1-0.8-0.2-1.1
		c-0.1-0.5-0.1-0.8-0.2-1.2c0-0.1,0-0.1,0-0.2c-0.1-0.7-0.1-1.2-0.2-1.8c-0.1-0.7-0.1-1.2-0.1-1.9s0-1.3,0-2c0-0.2,0-0.3,0-0.5
		c1.3-22.2,10.2-44,31-54.8c2.2-1.1,4.6-2.1,7-2.8l0.9-0.3l0.5-0.1l0.5-0.1l1.4-0.4l0.9-0.2h0.1l0.5-0.1l0.2-0.1h0.1l-2.4,2.1
		c-0.5,0.4-0.9,0.8-1.4,1.2c-3.7,3.4-7,7.1-10,11.2s-5.4,8.4-7.4,13c-4,9.1-5.8,19.2-5.1,29.2c0.5,6.3,1.8,12.6,4,18.5
		c0.9,2.3,1.9,4.6,3,6.8c0.4,0.8,0.9,1.5,1.2,2.2c1.1,1.9,2.4,5.3,4.5,6.1c1.1,0.5,2.4,0.3,3.6,0.2c6.2-0.5,12.4,1.5,18.4,0.1
		c3.9-0.8,6.9-3.2,9.8-5.7c0.4-0.3,0.7-0.7,1-1c0.8-0.8,1.4-1.7,2.1-2.5c0.1-0.1,0.3-0.3,0.4-0.5c0-0.3,0-0.7,0-1c0-0.1,0-0.3,0-0.5
		c0-0.1,0-0.1,0-0.2c0-0.3,0-0.5,0-0.8c0-0.2,0-0.3,0-0.4c0-0.2,0-0.3,0-0.4s0-0.3,0-0.5c0-0.1,0-0.2,0-0.3c0.1-0.1,0.1-0.3,0.1-0.5
		c0-0.1,0-0.2,0-0.3c0-0.2,0.1-0.5,0.1-0.7v-0.1c0-0.2,0.1-0.4,0.1-0.6c0-0.1,0-0.1,0-0.2c0.1-0.2,0.1-0.5,0.2-0.7
		c0-0.1,0-0.1,0-0.1c0.1-0.2,0.1-0.5,0.2-0.7c0.1-0.1,0.1-0.1,0.1-0.2c0-0.2,0.1-0.5,0.2-0.7c0.9-2.3,2.2-4.4,3.4-6.6
		c0.2-1,0.5-2.1,0.7-3.1c0.2-0.8,0.4-1.7,0.6-2.5c0-0.1,0-0.1,0-0.1c0-0.3,0.1-0.5,0.1-0.8c0.1-0.1,0.1-0.3,0.1-0.4
		c0-0.1,0-0.3,0-0.4c0-0.6-0.1-1.1-0.2-1.6c0-0.1,0-0.1,0-0.2c-0.1-0.3-0.1-0.6-0.2-0.8c-0.1-0.4-0.3-0.8-0.4-1.3
		c0.9-1.6,1.7-3.2,2.7-4.6c0.9-1.3,2-2.5,3.2-3.6c0.6-0.5,1.2-0.9,1.9-1.4c0.4-0.3,0.7-0.5,1-0.7s0.7-0.4,1-0.6
		c4.5-2.2,9.2-2.1,13.9-0.8c0.1,0,1,0.3,1,0.3l-0.6-0.5l-0.3-0.3l-1.8-1.3l-0.9-0.8c-0.7-0.5-1.3-0.9-2-1.4
		c-2.6-1.9-5.4-3.6-8.6-4.7c-1.6-0.6-3.2-0.9-4.8-1.1c-0.8-0.1-1.5-0.1-2.2-0.1c0.1-0.1,0.2-0.3,0.3-0.4l0,0c0.5-0.7,1-1.2,1.6-1.8
		c0.1-0.2,0.3-0.3,0.5-0.5c0.1-0.1,0.1-0.1,0.1-0.1c0.5-0.5,0.9-0.9,1.5-1.3c0-0.1,0.1-0.1,0.1-0.2v0.1c8.9-7,20.9-3.9,28.5,3.6
		c4.2,4.1,7.1,9.2,9.8,14.5c1.2,2.5,2.4,5.2,3.7,7.7c0,0.1,0.1,0.2,0.1,0.3c0.4,0.7,0.7,1.3,1.3,1.8c1.6,1.4,4,0.6,6.1,1
		c-1-3-2.2-6-3.7-8.9C281.8,643.5,263.9,627.9,244.2,619.7z"/>
	<path class="st0" d="M650.2,531.6c-1.9-3.8-4-7.4-6.4-10.9c-2-2.9-4-5.9-6-8.9c-2.4-3.6-5.7-6.3-8.9-9.3c-0.2,0.2-0.3,0.4-0.3,0.6
		c-0.1,0.5,0.3,0.9,0.5,1.2c2.3,4.7,4.6,9.4,7,14.1c1.9,3.8,1.9,7.7,2.3,11.9h-0.1c-2.3-0.8-3.8-2.1-5-3.9c-1-1.8-2.2-3.6-3.6-5.2
		c-3.6-4.4-3.8-4.6-9.1-6.7c-3.2-1.2-6.3-2.9-9.8-3.2c-3.2-0.3-6.3-0.9-9.3-1.8c-2.6-0.9-5.3-1.2-8-0.3c-0.9,0.4-1.7,0.2-2.5-0.3
		c-3.6-2-7-4.1-9.3-7.6c-0.5-0.7-0.9-1.2-1.5-1.7c-0.9-0.8-2.6-0.3-3.1,0.9c-0.1,0.1-0.1,0.3-0.1,0.4c-0.2,0.7,0,1.4,0.1,2.2
		c0.7,3.4,1.7,6.7,2.8,9.9c0.6,1.8,1.4,3.3,2.7,4.6c2.2,2.4,4.5,4.9,6.1,7.8c1.1,2,2.5,3.3,4.4,4.4c2.7,1.6,5.3,3.5,7.4,5.8
		c0.3,0.4,0.6,0.7,1.2,0.5h0.1c0.1-2.4-0.9-4.6-2.1-6.7c-0.6-1-1.2-2.1-1.6-3.2c-0.4-1.4-0.1-2.8,0.7-3.8c0.7-0.8,1.6-1.4,2.7-1.5
		c1.4-0.2,2.7,0.3,3.7,1.3c2.4,2.4,5.6,3.4,8.7,4.4c2.8,0.9,5.7,2,8.5,2.8c2.2,0.7,4.1,1.7,5.9,3.1c2.4,1.8,4.8,3.7,7.3,5.3
		c3.2,2.1,6.1,4.3,8.6,7.1c2.2,2.4,4.9,4.4,6.8,7.2c0.5,0.7,1.3,1.2,2.1,1.7c3.7,2.6,7.2,5.5,10.6,8.4c0.5,0.5,0.9,1.2,1.8,0.8l0,0
		c0.3-0.7-0.1-1.2-0.3-1.9C660,551.5,655.2,541.6,650.2,531.6z"/>
	<path class="st0" d="M590.2,587.8c-0.3,0-0.6,0.2-0.8,0.4c-0.1,0.1-0.1,0.2-0.2,0.3c-0.1,0.2-0.2,0.4-0.2,0.6
		c-0.4,1.5-0.8,2.9-1.4,4.3c-0.1,0.3-0.2,0.5-0.3,0.8c-0.2,0.4-0.3,0.7-0.5,1c-1.7,3.6-3.8,7-6.1,10.2c-2,2.8-3.8,5.7-5.6,8.6
		c-2,3-3.6,6.1-4.8,9.3c-2.2,5.6-3.5,11.7-3.9,17.8c-0.2,2.9-0.5,5.7-0.8,8.5c0,0.3-0.1,0.7-0.2,0.9c-0.8,2.3-2.9,3.7-5.3,2.9
		c-1.3-0.4-2.3-1.2-3.2-2.3c-1.4-2-2.7-3.9-4.1-5.9c-0.5-0.7-0.6-1.8-2-1.9c-2,2.6-3.9,5.5-5.9,8.3c-0.7,0.8-1.2,1.7-1.9,2.5
		c-0.2,0.4-0.6,0.7-0.9,0.9c-0.6,0.4-1.2,0.6-1.7,0.1c-0.3-0.3-0.6-0.8-0.5-1.2c0.8-2.8,1.6-5.5,2.2-8.3c1.8-8.2,3.3-16.4,4.5-24.8
		c0.4-2.5,0.9-5.1,1.6-7.5c0.1-0.2,0.1-0.4,0.3-0.7c0.4-0.8,1-1.4,1.9-1.4c1.3-0.1,1.7,1.1,2.1,2.1c0.3,0.7,0.5,1.4,0.6,2.2
		c0.5,3.3,1.1,6.5,1.5,9.8c0.4,3,1.4,5.8,2.4,8.6c0,0.3,0.4,0.4,0.7,0.5c0.4,0.1,0.6-0.1,0.6-0.5v-0.1c0-0.3,0.1-0.6,0.1-0.8
		c0.5-6.4,2-12.3,4.3-18.1c0.7-1.8,1.4-3.5,2.2-5.2c3.2-6.6,7.1-12.6,11.1-18.6c1.8-2.7,3.2-5.6,4.2-8.6c0.3-0.8,0.5-1.6,0.7-2.4
		c0.7-2.6,1-5.3,1.5-8c0.1-0.6,0.6-1.4-0.3-1.9c-1.1,0.2-1.7,1.2-2.4,1.9c-0.8,0.8-1.8,1.5-2.7,2.2c-0.7,0.5-1.4,0.5-2.1-0.1
		s-0.8-1.3-0.6-2.1c0.1-0.3,0.2-0.6,0.3-0.8c0-0.1,0.1-0.2,0.1-0.3c0.4-0.8,0.7-1.5,0.8-2.2c0.8-2.4,1-5,1.3-7.5
		c0.6-3.7-0.2-6.9-2.9-9.5c-2-1.9-3.8-3.8-5.7-5.7c-0.6-0.6-1.1-1.4-2.2-1.2l0,0c-0.8,2-1.4,4-2.2,6c0,0.1-0.1,0.2-0.1,0.3
		c-2.7,6.4-5.5,12.7-8.4,19c-0.2,0.5-0.4,1-0.6,1.5c-0.7,1.7-1.1,3.5-1.4,5.3c-0.4,2.8-1,5.5-2,8c-1.6,4.3-3.9,8.2-7,11.8
		c-1.8,2.1-3.5,4.2-5.2,6.3c-2,2.4-3.7,5.2-5,8s-2.3,5.8-3.1,8.9c-0.7,2.5-0.8,5.1-0.3,7.6c0.2,1,0.3,2.1,0.5,3.1c0,0.2,0,0.3,0,0.4
		c-0.1,1-1.6,0.8-2,1.7c-0.4,0.8-1.2-0.2-1.6-0.8c-2-3.2-4-6.4-5.9-9.6c-1.2-2.1-1.9-4.4-2.2-6.8c-0.3-1.4-0.6-2.9-0.7-4.4
		c-0.2-2.7-0.1-2.7-3.1-3.6c-0.9-0.3-2.1-0.3-3.1-0.4c-6.2-0.7-12.3-0.7-18.5-0.6c-5.2,0.1-10.2-0.1-15.3-0.9
		c-7.5-1.2-14.8-3.4-22.5-4.4c-1.6-0.2-3.2-0.7-4.8-1.1c-10.7-3.2-19.6-8.9-26.6-17.7c-1.5-1.9-2.9-3.8-4.4-5.7
		c-0.5-0.7-0.8-1.7-2.1-1.6c-0.8,0.9-1.5,2.1-2.4,3.1c-1.3,1.6-3,2.5-5.2,2.1s-3.2-2.1-3.8-4c-0.3-1-0.5-2.1-0.7-3.1
		c-0.9-3.8-1.5-7.7-2.5-11.5c-1.9-6.8-2.2-7-8.2-10.4c-2.7-1.6-5.1-2.2-7.6,0.2c-0.4,0.4-1,0.6-1.6,0.8c-1.7,0.6-2.7,1.6-3.3,3
		c-0.3,0.6-0.5,1.2-0.6,2c-0.5,2.8-0.6,2.8,0.2,5.6c1.4-0.9,2.2-2.4,3.3-3.7c3-3.2,6.9-2.8,8.9,1c0.5,0.9,0.9,1.9,1.1,2.9
		c0.5,1.6,0.9,3.2,1.1,4.8c0.8,4.3,2.2,8.5,3.8,12.5c3.6,9,8.5,17.2,13.8,25.3c1.9,2.9,4.1,5.5,6.5,8.1c6.3,6.8,13.3,12.7,20.1,18.8
		c0.7,0.6,1.2,1.3,2.2,1.2c0.1-0.2,0.1-0.3,0.2-0.5c0-0.1,0.1-0.3,0-0.4c-0.9-3.5-2-6.9-3-10.3c-0.2-0.8-0.6-1.7-0.8-2.5
		c-0.1-0.8-0.1-1.5,0.2-2.1c0.3-0.8,0.8-1.3,1.5-1.7c1.3-0.7,2.9-0.2,3.9,1.1c0.3,0.4,0.5,0.8,0.8,1.1c5.7,8.3,12.3,15.6,20.3,21.6
		c6.1,4.7,13,8.1,19.9,11.4c3.2,1.5,6.6,2.9,9.9,4.3c0.7,0.3,1.4,0.5,1.9,1.2c0.1,0.1,0.2,0.3,0.2,0.4c-0.9,0.3-1.8-0.1-2.6-0.3
		c-5.5-1.5-11-3-16.5-4.4c-6.2-1.6-11.8-4.2-17-8c-2.7-1.9-5.2-4-7.8-6.1c-0.4-0.4-0.8-1-1.7-0.8c-0.1,0-0.2,0.1-0.4,0.2
		c0.9,1.6,1.7,3.2,2.5,4.7c0.4,0.7,0.9,1.2,1.2,1.9c0.5,1,0.5,2.2,0.1,3c-0.6,1.3-1.9,2.2-3.7,2.1c-0.9-0.1-2-0.5-2.9-0.9
		c-6.5-3.3-12.8-6.9-18.4-11.4c-5.9-4.7-11.4-9.9-17.5-14.3c-2.2-1.7-4.4-3.6-6.7-5.3c-0.3-0.3-0.8-0.4-1.1-0.6l-0.1,0.1
		c-0.1,0.1-0.2,0.2-0.2,0.3c0,0.5-0.1,0.9,0,1.3c2.8,11.4,5.9,22.6,11.7,33c0.6,0.8,1,1.8,1.3,2.8c0.1,0.4,0.1,0.8,0,1
		c-0.3,0.9-1.1,1.7-2.2,1.8c-1.1,0-2.1-0.4-2.9-1c-1.6-1.4-3.2-2.8-4.8-4.1c-1.1-1-2-2.5-3.7-3.4c-0.1,0-0.1-0.1-0.2-0.1
		c-0.1,1.1,0.3,2,0.7,2.7c0.9,2.1,1.9,4.1,2.9,6.1c2.6,5.3,4.8,10.7,6.6,16.2v0.6h155.3c-0.5-0.2-0.8-0.4-1.2-0.7
		c-0.2-0.1-0.3-0.3-0.4-0.4c-1-1-1.3-2.2-0.9-3.7c0.1-0.4,0.3-0.8,0.5-1.2c0.3-0.6,0.5-1.1,0.8-1.7c1.2-2.4,2.4-4.8,3.5-7.3
		c2.6-6.7,5.6-13.2,8.8-19.7c1-2.2,2-4.3,2.9-6.6c3.6-8.6,6-17.6,7.2-26.9c0.8-6.2,0-12.3-1.5-18.3
		C590.7,588,590.4,587.8,590.2,587.8z"/>
	<path class="st0" d="M401.8,544c1.9,0.9,3.3,2.5,4.6,4.2c0.8,0.9,1.3,1.9,2,2.8c1.6,2.7,2.8,5.7,3.6,8.9c0.5,1.7,0.9,3.4,1.3,5
		c0.1,0,0.2,0,0.3,0c1.2-0.2,1.3-1.2,1.7-1.9c2.2-2.8,3.5-2.8,5.3,0.2c0,0,0,0.1,0.1,0.1c0.6,0.9,1,1.8,1.5,2.6
		c0.1,0.2,0.2,0.3,0.3,0.5c2.7,4.3,5.8,8.4,9.9,11.5c3.2,2.6,6.3,5.2,9.5,7.7c4.1,3.4,8.8,5.7,13.9,7.3c4.4,1.3,8.8,2.8,13.2,4.2
		c3,0.9,6,1.8,9.2,1.9c8.5,0.2,17.1-0.1,25.4-3c1.3-0.4,2.6-0.7,3.9-1c5.7-1.5,11-4,16.2-6.8c2.9-1.6,5.6-3.6,8.4-5.3
		c2.9-1.9,5.3-4.3,7.4-7.1c2.2-3,4.3-5.8,6.6-8.6c2.2-2.7,4.1-5.5,5.6-8.6s3-6.3,4.4-9.4c2-4,2.6-8.3,1.2-12.7
		c-0.4-1.1,0.1-1.7,0.9-2.2c1.9-0.9,3.8-0.9,5.7-0.6c3.1,0.6,6.1,1.6,8.8,3.2c0.8,0.5,1.4,1.2,2.6,0.6c0.1-5.1-0.8-10-1.5-15.1
		c-0.2-0.8-0.4-1.5-0.8-2.2c-0.3-0.5-0.6-0.9-1-1.3c-1.1-1.1-2.2-2.3-3.1-3.6c-1.7-2.3-2.9-5-3.3-8.1c-0.1-0.5-0.2-0.9-0.4-1.2
		c-0.3-0.6-0.6-1-1.1-1.4c-0.4-0.3-0.8-0.7-1.1-0.7c-0.6,0.1-0.8,0.8-0.9,1.3c-0.7,7-0.6,13.8,3.4,19.8c0.1,0.2,0.2,0.4,0.4,0.6
		c0.2,0.2,0.3,0.4,0.4,0.7c0.2,0.4,0.4,0.8,0.7,1.2c-0.8,0.1-1,0.2-1.3,0.2c-7.3-1.2-14.3-0.2-20.7,3.9c-1,0.6-1.7,1.1-1.4,2.4
		c0.7,3.4,0.4,6.9,0.5,10.3c0.1,1.9-0.3,3.6-0.8,5.3c-0.8,3.1-2.4,5.7-4.4,8.3c-3.9,5-8.6,9.2-12.9,13.9c-2,2.1-4.3,3.7-6.9,5
		c-3.8,2.1-8.3,2.8-12.3,4.3c-3.2,1.2-6.7,1.7-10.1,1.8c-2.5,0.1-5.1,0.4-7.6,0.7c-6.2,0.8-12.4,0.1-18.4-1
		c-6.1-1.2-11.5-4.3-16.2-8.4c-1.9-1.6-3.8-2.8-6.2-3.5c-4-1.1-7.7-3.4-11.1-5.8c-2.1-1.5-3.7-3.3-5-5.3c-0.9-1.6-1.7-3.3-2.1-5.3
		c-0.8-3.6-1.6-7-1.6-10.7c0-2.2-0.5-4.4-1.5-6.5c-0.7-1.3-1-2.8-1.4-4.2c-0.2-0.6-0.4-1-0.7-1.5c-0.5-0.8-1.1-1.5-2-2
		c-3.5-2.2-6.3-5-8.5-8.3c-1.5-2.2-2.8-4.6-3.8-7.3c-0.7-1.7-1.4-3.3-2.4-4.7c-1.1-1.7-2.6-3.3-4.3-4.7c-1.3-0.9-2.4-2.2-3.7-3.3
		c-1.5-1.4-3-2.9-4.2-4.6c-0.9-1.2-1.8-2.4-2.4-3.9c-3.1-6.2-5.7-12.7-6.2-19.6c-0.5-5.7-1.5-11.3-1.9-17c0-0.8-0.2-1.4-0.5-2
		c-0.4-0.8-1-1.3-2-1.9c-1.4-0.7-2-0.6-3.1,0.7c-1.6,1.9-2.7,3.9-3.2,6.4c-1.1,5.6-1.6,11.4-0.1,17c1.2,4.5,2.2,9,3.3,13.5
		c0.7,3.3,1.9,6.3,3.8,9c1,1.5,2.2,2.8,3.7,4c3,2.6,5.7,5.7,8.8,8.4c2.6,2.2,4.8,4.6,6.4,7.3c1.4,2.3,2.4,4.8,3,7.6
		c0.2,0.8,0.5,1.4,0.7,2.2c0.6,1.8,1.3,3.4,2.2,4.9c0.8,1.2,1.8,2.3,3,3.3c1.9,1.5,3.2,3.4,4.4,5.5c0.1,0.2,0.2,0.4,0.3,0.6
		c0.7,1.2,0.9,2.4,0.8,3.8c-0.1,1-0.7,1.7-1.7,1.9c-0.8,0.2-1-0.4-1.4-0.8c-3.1-4.6-7.6-7.1-12.6-9c-1.6-0.7-3.2-1.5-4.8-2.3
		c-3.1-1.7-6.3-3.4-9.4-5.3c-3.6-2.2-7.5-3.1-11.5-3.6c-2.2-0.3-4.3-0.3-6.6,0.7c-2.4,0.9-4.9,1.4-7.2,2.4c-1.6,0.7-3.4,0.9-5.2,1.4
		c-0.4,0.1-0.9,0.1-1.3,0c-0.2,0-0.6,0-0.9,0s-0.5-0.2-0.5-0.8c1-1.2,2.7-1.7,4-2.6c7.1-5.1,11-11.7,10.1-20.8
		c0-0.4-0.1-0.6-0.1-0.9c-0.2-0.8-0.6-1-1.8-1.1c-1.5-0.2-3.2-0.3-4.7-0.5c-0.2,0-0.3,0-0.5,0c-0.1-0.4-0.2-0.7-0.1-0.7
		c7.6-5.4,7-3.3,10.3-13.3c0-0.1,0.1-0.3,0.2-0.4c0.4-0.8,0.2-1.4-0.1-2.2c-0.6-1.2-1.1-2.4-1.6-3.7s-1.1-2.4-1.8-3.4
		c-0.9-1.4-2-2.7-3.3-3.9c-2.1-2-4.1-3.9-6.3-5.8c-0.4-0.4-0.9-0.9-1.5-0.5s-0.6,1-0.6,1.6c0,0.9,0,1.8,0.1,2.7
		c0.3,3.3-0.3,6.3-2.4,8.9c-0.3,0.4-0.3,0.9-0.6,1.5c0.2,0,0.5,0.1,0.7,0.1c2.2,0.4,4.2,1,6.4,1.3c1.1,0.1,2,0.8,2.2,1.5
		c0.4,0.9,0.2,2.1-0.7,3.2c-0.8,0.9-1.7,1.7-2.6,2.4c-3.7,3.1-7.2,6.4-10.4,10c-2.8,3-5,6.4-6.9,10.1c-0.4,0.8-0.2,1.3,0.3,1.7
		c0.2,0.1,0.5,0.2,0.8,0.3c0.6,0.1,1.2,0,1.8,0.2c0.9,0.2,1.5,0.8,1.8,1.5c0.3,0.8,0.3,1.6-0.3,2.4c-0.4,0.7-0.9,1.1-1.5,1.7
		c-2.4,2.3-4.6,4.7-7,7C331,536,326,543.9,322.7,553c-0.3,0.8-0.9,1.7-0.2,2.5c0.1,0,0.1,0,0.1,0c0.9-0.2,1.5-0.8,2.2-1.4
		c2.6-2.1,5.4-3.9,8.3-5.5c10.3-5.5,21-9.7,32.4-12.1c3.4-0.8,6.8-1.2,10.2-0.2c1,0.3,2.2,0.1,2.7-0.7c1.8,0.1,3.6,0.4,5.4,0.8
		C390.4,538,396,541.3,401.8,544z"/>
	<path class="st0" d="M902.2,649.8c-2.2-4.3-4.9-8.4-7.9-12.1s-6.5-7.1-10.2-10.1c-3.8-3-7.8-5.6-12.1-7.7l-6.4-2.8
		c-0.7-0.6-1.4-1.2-2.1-1.8c-1.6-1.4-3.2-2.6-5.1-3.7c-7.5-4.2-16-6.6-24.4-8c-4.3-0.7-8.5-1.1-12.9-1.4c-2.8-0.2-5.6,0-8.5-0.5
		c-3-0.5-5.9-1.9-9-2.1c-1.1-0.1-2.3,0.1-3.6,0.2c-9.8,1-19.6,2.4-29.1,5.3c-4.8,1.4-9.5,3.2-13.9,5.5c-4.2,2.2-8.1,5.2-12.5,7
		c-1,0.4-2.2,0.8-3.2,1.3c-22.7,9.7-43,28.8-50.9,52.6l0,0c2.1-0.5,4.5,0.3,6.1-1c0.7-0.5,1-1.3,1.4-2.1c3.7-7.9,7.2-16.1,13.4-22.2
		c7.5-7.5,19.5-10.5,28.5-3.6v-0.1c0,0.1,0.1,0.1,0.1,0.2c0.6,0.4,1,0.8,1.5,1.3c0.1,0.1,0.1,0.1,0.1,0.1c0.2,0.2,0.3,0.3,0.5,0.5
		c0.6,0.6,1.1,1.1,1.6,1.8c0.1,0.1,0.2,0.3,0.3,0.4c-0.1,0-0.3,0-0.4,0c-0.7,0-1.2,0-1.9,0.1c-1.7,0.2-3.3,0.6-4.8,1.1
		c-3,1.1-5.9,2.8-8.5,4.7c-0.7,0.5-1.3,0.9-2,1.4l-0.9,0.8l-1.8,1.3l-0.9,0.8c0,0,0.3-0.1,0.6-0.2c0.2-0.1,0.4-0.1,0.5-0.1
		c4.7-1.2,9.4-1.2,13.9,0.8c0.3,0.2,0.7,0.4,1,0.6c0.4,0.3,0.8,0.5,1,0.7c0.7,0.4,1.2,0.9,1.9,1.4c1.1,1.1,2.2,2.2,3.2,3.6
		c1,1.4,2,3,2.7,4.6c0,0.1-0.1,0.2-0.1,0.4c-0.1,0.3-0.2,0.7-0.3,0.9c0,0.1,0,0.2-0.1,0.3c0,0.2-0.1,0.4-0.1,0.6c0,0.1,0,0.1,0,0.2
		c-0.1,0.6-0.1,1-0.2,1.6c0,0.1,0,0.3,0,0.4c0.1,0.1,0.1,0.3,0.1,0.4c0,0.3,0.1,0.5,0.1,0.8v0.1c0.2,0.8,0.4,1.7,0.6,2.5
		c0.2,1,0.5,2.1,0.7,3.1c1.2,2.2,2.5,4.2,3.4,6.6c0.1,0.2,0.1,0.5,0.2,0.7c0.1,0.1,0.1,0.1,0.1,0.2c0.1,0.2,0.1,0.5,0.2,0.7
		c0,0.1,0,0.1,0,0.1c0.1,0.2,0.2,0.5,0.2,0.7c0,0.1,0,0.1,0,0.2c0,0.2,0.1,0.4,0.1,0.6v0.1c0,0.2,0.1,0.5,0.1,0.7c0,0.1,0,0.2,0,0.3
		c0.1,0.1,0.1,0.3,0.1,0.5c0,0.1,0,0.2,0,0.3s0,0.3,0,0.5s0,0.3,0,0.4c0,0.2,0,0.3,0,0.4c0,0.3,0,0.5,0,0.8c0,0.1,0,0.1,0,0.2
		c0,0.1,0,0.3,0,0.5c0,0.3,0,0.7,0,1c0.1,0.1,0.3,0.3,0.4,0.5c0.7,0.8,1.4,1.7,2.1,2.5c0.4,0.3,0.7,0.7,1,1c2.9,2.5,5.9,4.9,9.8,5.7
		c6,1.3,12.3-0.6,18.4-0.1c1.2,0.1,2.4,0.3,3.6-0.2c2.2-0.8,3.4-4.2,4.5-6.1c1.7-2.8,3.1-5.9,4.2-9c0.8-2.2,1.5-4.4,2.1-6.7
		c1-3.8,1.6-7.9,2-11.8c0.8-10-1.1-20.1-5.1-29.2c-2-4.5-4.5-8.9-7.4-13c-2.9-4-6.3-7.8-10-11.2c-0.5-0.4-0.9-0.8-1.4-1.2l-1.8-1.5
		l-0.7-0.6h0.1l0.2,0.1l0.5,0.1l0.9,0.2l1.4,0.4l0.5,0.1l0.5,0.1l0.9,0.3c2.4,0.8,4.8,1.7,7,2.8c20.7,10.8,29.7,32.7,31,54.8
		c0,0.2,0,0.3,0,0.5c0,0.7,0,1.3,0,2s0,1.2-0.1,1.9s-0.2,1.2-0.2,1.8c0,0.1,0,0.1,0,0.2c-0.1,0.5-0.1,0.8-0.2,1.2
		c0,0.3-0.1,0.8-0.2,1.1c0,0.3-0.1,0.6-0.1,0.8c-0.2,1-0.4,2-0.6,3c-0.7,2.7-1.6,5.3-2.4,7.9c-0.9,2.6-2.2,5.3-2.4,7.9
		c-0.1,1.1,0.1,2.2,0.6,3.5c3.3,8.4,10.7,11,18.8,12.3c1.1,0.2,2.2,0.3,3.3,0.5c1.3,0.2,2.7,0.4,4,0.5c1.6,0.1,3.1,0.3,4.7,0.5
		c0.4,0,0.7,0.1,0.9,0.1c0.3,0.1,0.6,0.1,0.8,0.1c0.6,0,1.1,0,1.7,0l0,0c0-0.1,0-0.1,0-0.2l0,0c0.8-3.2,2.4-5.9,3.8-8.7
		c2.5-5,4.5-10.3,5.9-15.9c2.2-9.2,2.8-19,1.4-28.5c-2-14.1-9.9-27.1-19.7-37.1c-0.8-0.8-1.8-2-1.9-3.2c0-0.1,0-0.3,0-0.4
		c3.5,0.9,7.1,3.8,10.2,5.7c3.7,2.3,7.3,4.8,10.7,7.6c6.1,5.2,11.9,11.7,13.2,19.9c2.4,15.6,6.8,16.5,4.7,32.2
		c-0.1,0.6-0.2,1.1-0.4,1.7c-0.9,3.5-2.9,6.9-3.6,10.4l0,0c-0.1,0.7-0.3,1.2-0.4,1.8c-0.9,5.2-1.5,10-3.4,14.9
		c-0.1,0.3-0.3,0.7-0.4,1l0,0c-0.1,0.3-0.2,1.7-0.5,2.5c-0.2,0.4-0.3,0.7-0.6,0.6c0.1,0,0.2,0.1,0.3,0.1c3.3,0.9,15.2,3.1,16.6-0.9
		c0.1-0.2,0.1-0.3,0.1-0.5l0.4-2.7l3.4-18.8c3.3-18.5,3.8-37-4.6-54.3c-1.5-2.9-3.8-8-5.8-11.1c-0.5-0.8-1-1.4-1.5-1.8
		c0.3,0.2,0.6,0.5,0.8,0.8c4.6,4.4,8.9,8.5,12.3,13.9c3.9,6.3,7.4,13.4,10,20.4c0.2,0.6,0.4,1.1,0.6,1.7c0.8,2.2,1.4,4.5,1.9,6.9
		c0.9,4.6,1.5,9.3,1.5,14c-0.1,4.6-0.6,9.3-1.6,13.8c-0.2,0.8-0.4,1.5-0.6,2.2c-0.2,0.7-0.4,1.2-0.6,1.9l0,0
		c0.5-0.1,0.8-0.2,1.2-0.4c1.2-0.5,2.2-1.2,3-2.2s1.5-2,2.1-3c0.6-1.1,1-2.2,1.4-3.4c0.2-0.7,0.3-1.2,0.5-1.8l0,0
		C911,682,909.5,664.8,902.2,649.8z M750.2,615c0.1-0.1,0.2-0.1,0.2-0.1C750.3,614.9,750.3,615,750.2,615z"/>
	<path class="st0" d="M385.9,269.7c1-0.4,1.9-1,2.6-1.7c1.3-1.2,2.2-2.7,3.2-4.2c0.1-0.3,0.2-0.6,0.2-0.9c0.5-0.5,0.9-1.2,0.9-1.9
		c0.1-1.2-0.6-2.4-1.5-3.3s-2.2-1.3-3.3-1.6c-1.2-0.3-2.4-0.5-3.6-0.6s-2.5,0.2-3.6,0.9c-0.1,0.1-0.2,0.1-0.3,0.2
		c-0.4,0.4-0.8,0.8-0.9,1.3c-0.3,0.7-0.3,1.3-0.2,2c0.1,0.6,0.4,1,0.8,1.4c-0.6,0.9-0.9,2.1-0.9,3.5
		C379.2,268.7,382.4,271.1,385.9,269.7z"/>
	<path class="st0" d="M359.7,270c0.4,0.9,0.4,2.2,0.6,3.3c0.5,2.4,1.4,4.6,3.2,6.3c2.9,2.9,6.2,4.9,10,5.6c1,0.3,2.2,0.5,3.3,0.6
		c2.1,0.1,4.1-0.2,6.2-0.8c1.4-0.5,2.8-1,4.1-1.9c0.5-0.2,0.9-0.5,1.2-0.8c0.7-0.3,1.4-0.7,2.2-1c-0.1-0.1-0.2-0.1-0.3-0.1
		s-0.2,0-0.3,0l0.1-0.1c0.5-0.4,0.9-0.8,1.2-1.2c0.6-0.8,1.2-1.4,1.7-2.2c0.3-0.4,0.5-0.8,0.8-1.1c0.2-0.2,0.3-0.4,0.4-0.6l0.4-0.9
		c0.4-0.7,0.7-1.5,0.9-2.2l0.2-0.6c0-0.1,0.1-0.3,0.1-0.3l-0.1,0.1l-0.2,0.1l-0.9,0.9l-0.9,0.8l-0.5,0.4c-0.1,0.1-0.3,0.2-0.3,0.2
		l-0.1,0.1l-1,0.8c-1.4,0.9-3,1.7-4.6,2.2c-3.3,1.1-6.8,1.4-10.2,0.9c-3.4-0.5-6.8-1.8-9.5-3.9c-2.4-1.9-4.4-4.4-5.1-7.4
		c0-0.1,0-0.1,0-0.2c0-0.8,0.1-1.5,0-2.2l0,0c0-0.1,0-0.2,0-0.4c0-0.3,0-0.5,0-0.8c0-0.4-0.2-0.7-0.7-0.9c-1.7,1.1-2.7,2.4-2.7,4
		c0,0.9,0.2,1.7,0.8,2.7C359.7,269.8,359.7,269.9,359.7,270z"/>
</g>
<g>
	<path class="st1" d="M431.8,519.4c-0.2,2.1-0.1,4.2,0,6.3c0.1,1.8,0.6,3.5,1.6,5.1c1.8,2.5,2.9,5.3,4,8.1c1.6,4.2,3.8,8.2,6.3,11.9
		c1.7,2.5,3.5,5,4.9,7.6c3.5,6.2,8.6,10.5,14.9,13.7c0.8,0.4,1.5,0.7,2.2,0.9c2.4,0.8,5,1,7.4,1.5s5,1.1,7.6,0.8
		c4.8-0.6,9.6,0,14.4,0.7c7.2,0.9,13.6-1.4,19.7-4.9c0.5-0.3,0.9-0.8,1.4-1.1c4.8-4.4,8.8-9.4,12.6-14.7c2.4-3.5,4-7.3,5-11.5
		c1.2-4.3,1.5-8.6,1.1-13c-0.4-4.8-0.6-9.6-0.6-14.4c0-5.3-0.2-10.5-0.4-15.8c-0.1-2.5-0.5-5.1-1.5-7.5c-2-4.8-5.3-8.7-8.4-12.8
		c-0.1-0.2-0.2-0.3-0.4-0.3c-0.5-0.2-1,0-1.4,0.5c-1.2,1.5-2.6,2.9-4.2,4c-1.3,1-2.8,1.9-4.5,1.8c-2.1-0.1-3.9,0.5-5.7,1
		c-3.8,1-7.6,2.1-11.5,2.1s-6,2.1-8,4.9c-0.9,1.3-1.2,2.6-0.9,4.2c1.2,6.9,0.3,13.7-1.3,20.5c-0.6,2.4-1.1,5-1.4,7.5
		c-0.6,4-0.9,8.1-1.3,12.1c-0.1,1,0.1,2.2-1.2,2.8c0-0.1,0-0.1,0-0.2c0,0-0.1,0-0.1,0.1c-0.1-1.3-0.1-2.4-0.3-3.7
		c-0.6-4.6-0.7-9.3-1.9-13.8c-2.2-7.9-3.5-15.8-3.9-24c-0.1-1.8-0.3-3.6-0.7-5.4c-0.3-1.3-0.8-2.6-1.2-3.9c-0.3-0.7-0.7-1.1-1.1-1.4
		c-0.2-0.1-0.3-0.2-0.6-0.3l0,0c-0.3-0.1-0.6-0.2-0.9-0.2c-2.2-0.3-4.5-0.2-6.4-1.6c-0.1-0.1-0.2-0.1-0.3-0.2
		c-0.2-0.1-0.3-0.2-0.5-0.4c-0.6-0.6-1.4-0.5-2.2-0.3c-1.2,0.4-2.6,0.7-3.9,1.1c-3.9,1.4-7.6,2.8-11.4,4.3c-2.5,1-5.2,1.9-7.9,1.5
		s-5,0.6-7.1,2.6c2.4,3.3,1.6,7,1.1,10.7C432.6,511,432.2,515.2,431.8,519.4z"/>
</g>
<g>
	<path class="st2" d="M581.4,264.2C581.3,264.2,581.3,264.3,581.4,264.2l-0.1,0.2c0,0.2,0.3,0.4,0.4,0.6
		C581.6,264.8,581.6,264.5,581.4,264.2C581.4,264.3,581.4,264.2,581.4,264.2z"/>
	<path class="st2" d="M579.9,250c-1.4-1.6-2.9-3.1-3.9-4.9c-2.3-3.9-5.5-6.8-9.3-9c-6-3.7-12.1-4.7-18.8-1.5
		c-4.8,2.4-8.7,5.7-12.2,9.7c-1.8,2-2.7,4.4-2.7,7.2c1.2-1.6,2.5-3.2,3.8-4.8c2.9-3.9,6.7-6.5,11-8.4c2.7-1.2,5.6-1.9,8.7-1.5
		c3.4,0.5,6.8,1.5,10,2.7c2.6,1,5,2.6,6.7,5.1c2.3,3.1,4.9,6,7.4,9c0.8,1,1.8,1.2,2.2,0.7c0.1-0.2,0.2-0.4,0.3-0.5
		c0-0.6-0.5-1-0.9-1.5C581.3,251.5,580.6,250.8,579.9,250z"/>
	<path class="st2" d="M539.6,220.8c0,0,0.1,0.1,0.1,0.2l0,0l0.1,0.1c0,0,0,0,0,0.1c0.4,0.2,0.8,0.6,1.1,0.5c0.8-0.2,1.7-0.6,2.5-0.9
		c6.5-2.8,13.2-3.9,20.2-2.4c2.3,0.5,4.7,1,7,1.9c3.9,1.6,8.2,2.6,11.8,5.1c0.2-0.4,0.2-0.7,0.1-0.9c-0.2-0.2-0.4-0.4-0.6-0.6
		c-1.5-1.5-3-2.9-4.4-4.4c-3.8-4.1-8.5-6.6-13.9-7.7c-1.5-0.3-2.9-0.7-4.3-1.2c-2-0.8-3.4-1.9-4.1-3.3c-1.1-1.8-1.3-4-0.4-6.7
		c0.5-1.3,1.4-2.4,1.5-4.2c-0.6-0.3-1.1-0.7-1.8-0.9c-0.7-0.4-1.5-0.6-2-1c-2.3-2.6-5.3-2.2-8.3-1.8c-2.4,0.3-4.6,1.2-6.9,2.2
		c-2.3,1-4.7,2-7.3,1.6c-1-0.2-1.7,0.4-2.2,1.3c-0.2,0.4-0.5,0.8-0.6,1.2c-0.5,1.6-1,3.1-0.7,4.8c0,0.2,0.1,0.3,0.1,0.4
		c0.5,0.9,1.5,1.2,2.2,1.9c0.4,0.4,0.8,0.9,0.9,1.2c1.1,1.8,0.7,4-1.4,5.4c-0.7,0.4-1.3,0.7-2,1.1c-2.2,1.6-4.2,3.4-5.5,5.9
		c-0.3,0.6-0.5,1.1-0.4,1.6c0.1,0.2,0.2,0.3,0.4,0.5c0.8,0.6,1.8,0.3,2.5-0.3c0.8-0.6,1.7-1.3,2.5-1.9c0.9-0.7,1.9-1.4,3-1.9
		C533.6,215.7,537,216.8,539.6,220.8z"/>
	<path class="st2" d="M513.3,275.6c-2.6-2.5-4.7-5.5-5.5-9.1c-0.4-2.2-1.3-3.6-3.4-3.7c-0.3,0-0.6,0-0.9,0.1c-0.2,0-0.4,0-0.6,0
		c-1.2-0.1-2.2-1-3.2-1.6l-0.1-0.1c-0.5-0.1-1.1,0.4-1,0.9c0.9,4.5,1.7,9.2,4.7,13c0.7,0.9,1.8,1.7,3,2.2c2.7,1.2,6.2,1.7,8.8,0.9
		c0.1,0,0.2-0.2,0.4-0.4C514.8,277,514.2,276.2,513.3,275.6z"/>
	<path class="st2" d="M363.6,324.1c-1.7,1.3-3.1,2.7-4.2,4.6c-2,3.2-4.6,5.9-7.8,8.1c-6.6,4.6-13.7,7.3-21.9,7.1
		c-3.9-0.1-7.8,0.6-11.4,2.4c-2,1-4,2-6.3,2.4c-1.5,0.3-2.8,1-3.9,2.1c-0.5,0.5-0.9,1.2-2,0.7v-0.1l0,0c0.9-4.5,0.5-9.1,3.1-13.4
		c-1.1-0.5-1.7-0.3-2.2,0c-3.7,1.3-7,3.3-10.4,5.3c-3.8,2.2-6.9,4.9-9,8.6c-1.1,1.9-2.6,3.3-4.3,4.5c-3.4,2.4-6,5.5-8.4,8.7
		c-3.3,4.7-5.9,9.8-8.5,14.8c-0.2,0.4-0.2,0.8-0.3,1.1c1.4,0.4,2-0.8,2.7-1.3c2.9-2.1,5.8-4.2,9.2-5.5c1-0.5,2.2-0.9,3.4-1
		c1-0.2,2.1,1,1.9,2.1c0,0.2-0.1,0.4-0.1,0.5c-0.4,0.7-0.8,1.3-1.2,1.9c-1.6,2-3.2,4-4.8,5.9c-4.5,5.3-7.8,11.4-10.9,17.6
		c-0.9,2.1-1.5,4.1-1.6,6.4c0,0.3,0,0.6,0,0.9l0,0c0,0,0,0,0,0.1c0.1,3.3-0.3,6.6-1.1,9.8c-0.7,2.4-1.2,5-1.6,7.5
		c-0.1,0.4-0.1,0.9-0.2,1.2c-1,6.8-2.2,13.4-5.1,19.5c-0.8,1.5-1.5,3-2.4,4.4c-0.3,0.4-0.4,0.8-0.4,1c0,0.6,0.3,1.1,0.7,1.8
		c2.6,4.3,4.1,9,4.7,14c0.2,2,0.4,3.9,0.6,6c0.8,9.9,0.9,19.7-0.2,29.6c-0.3,3-0.7,5.8-1,9.5c0.8-1.1,1.3-1.6,1.6-2.2
		c1.2-2.5,2.4-5.2,3.7-7.7c2.9-6.1,5.3-12.4,7.7-18.7c1.7-4.3,3.7-5.4,8-4.5c1.4,0.3,2.6,0,3.9-0.6c5-2.2,9.6-5.2,13.7-8.6
		c5.4-4.4,10.2-9.2,14.3-14.9c0.5-0.7,0.9-1.2,1.4-1.8c0.4-0.5,0.9-0.9,1.3-1.2c2.2-1.6,5.3-0.8,6.4,1.8c0.6,1.2,0.8,2.5,0.8,3.9
		c0,0.9-0.1,1.6-0.2,2.4c-0.2,1.5-0.4,3-0.6,4.5c-0.2,1.4-0.8,2.7-0.8,4.2c0,0.2,0,0.4,0.1,0.7c2.4-2.9,4-6.9,6.6-16.1
		c0.9-2.9,2.1-5.8,2.2-9.3c0-0.5,0-0.9,0-1.4c-4.8,2.2-9.6,2.2-14.4,2.4c-4.5,0.3-8.6-0.6-12.1-3.9c-0.3-0.3-0.8-0.6-1.4-0.1
		c-1.6,2-2.2,4.5-2.6,7.2c-0.2,1.3-0.4,2.7-0.9,3.9c-1.2,3.3-4.9,3.9-7.2,1.2c-1-1.1-1.7-2.5-1.9-4c-0.3-2.1-0.7-4.1-0.7-6.3v-0.1
		l0,0c-0.1-10.1,1.8-20,6.3-29.2c1.3-2.7,2.7-5.4,3.9-8.1c1.6-3.7,3.7-7,6-10c1.8-2.4,3.7-4.7,5.5-7.1c0.8-0.9,1.4-1.9,1.9-2.9
		c0.4-1,0.5-2.2-0.2-3.6c-0.2-0.4-0.2-0.8-0.2-1.1s0.1-0.9,0.1-1.2c0-0.6-0.1-1.2,0-1.8c0-0.6,0-1,0.1-1.6c0,0,0,0,0-0.1
		c0.6-7.9,4.7-14.6,9.6-20.9c0.8-1,1.9-1.6,3.2-1.1c1.7,0.7,3.2,0.1,4.8-0.5c7.1-2.4,13.9-5.6,20.7-8.9c6.7-3.2,12-7.9,16.5-13.6
		c2.7-3.5,3.8-7.4,4.2-11.5c-0.4-0.3-0.6-0.4-0.7-0.4C367.2,321.4,365.4,322.8,363.6,324.1z"/>
	<path class="st2" d="M391.5,245.6c-2.8-1.7-5.8-3.1-9.1-3.9c-2.1-0.5-4-0.8-6-0.7c-4.4,0-8.5,1.2-12.4,3.9
		c-3.3,2.2-5.9,5.2-8.2,8.4c-0.3,0.4-0.9,0.9,0.1,1.5c2.4-2.2,5.3-3.7,8.1-5.4c6.9-4.3,14-4.6,21.3-2.7c0.6,0.1,1.1,0.3,1.7,0.5
		c3,0.9,5.5,2.4,7.7,4.5c1.1,1.2,2.2,2.4,3.7,3.4c0.3,0.3,0.6,0.3,0.9,0.2C397.7,251.2,395.2,247.9,391.5,245.6z"/>
	<path class="st2" d="M369.4,307.8c-0.4,0-0.8,0.1-1,0.1c-0.8,0-1.5,0.1-2.2,0.3c-0.7,0.2-1.4,0.3-2.1,0.4c-1.1,0-2.2-0.2-3.3-0.7
		c-1-0.4-2.1-0.7-3.2-0.9c-2.7-0.6-5.5-0.8-8.3-0.2c-1.4,0.4-2.9,0.5-4.4,0.8c-3.4,0.7-6.4,0.4-9-0.8c-2.8-1.1-5.3-3.2-7.4-6.1
		s-3.1-6.1-3.8-9.6c-0.2-1.1,0.1-1.7,1.3-1.9c0.3-0.1,0.7-0.1,0.9-0.2c0.9-0.2,1.9-0.5,2.8-0.8c1-0.4,2.2-0.8,3.1-1.2
		c1.5-0.8,2.8-1.6,3.4-3.6c-2.1-0.1-3.9-0.2-5.8-0.3c0.1-0.6,0.1-0.9,0.3-1.1c2.4-2.5,2.9-5.5,1.7-8.7c-1-2.8-0.6-5.6,0-8.5
		c0.1-0.5,0.4-0.9,0.5-1.2c0.3-1-0.3-1.7-1.4-1.8c-0.6,0-1.1,0-1.7,0c-4.5,0.5-8.9,1-13.3,2.2c-3.3,0.9-6.4,2-9.3,3.5
		c-2.2,1.1-4.1,2.4-5.1,4.8c0.9,0.5,1.6,0.2,2.2,0c0.2,0,0.3-0.1,0.5-0.1c0.9-0.2,1.8-0.2,2.6-0.3c1.4,0,2.8,0.2,4.1,0.7
		c2.2,0.8,3,3,1.9,5.1c-0.8,1.3-1.8,2.4-2.9,3.4c-2.4,2.2-4,4.8-5.5,7.6c-0.8,1.5-1.4,3-1.4,4.7c0,1.6,0.9,2.5,2.4,2.6
		c1,0,2-0.1,3.1-0.1l0,0c0,0,0,0,0.1,0c2.9,0,3.8,0.8,4.1,3.6c0.4,2.2,0.5,4.2,0.9,6.3c0.4,2.2,0.4,4.5-0.5,6.7
		c-0.3,0.7-0.7,1.4,0.1,2.2c1-0.3,2.2-0.7,3.3-0.9c0.5-0.2,0.9-0.3,1.4-0.4c0.8-0.2,1.5-0.2,2.2-0.1c4.5,0.6,8.6,2.2,12.8,4
		c0.8,0.3,0.9,1,0.6,1.9c-0.4,1.1-1.3,2.1-0.9,3.5c0.1,0,0.2,0,0.3,0c0.2,0,0.5-0.1,0.7-0.1c0.1,0,0.2-0.1,0.3-0.1
		c0.8-0.6,1.5-0.8,2.2-0.7c0.8,0,1.6,0.2,2.4,0.4c2.4,0.7,4.8,1,7,1c3,0,6-0.8,9-2.4c2.2-1.2,4.1-2.4,5.5-4.5c0.9-1.3,2-2.5,3.3-3.5
		c0.1-0.1,0.3-0.2,0.4-0.3c0.1-0.1,0.3-0.2,0.4-0.3s0.2-0.1,0.3-0.2c0.5-0.2,0.9-0.5,1.5-0.6c0.9-0.2,1.6-0.8,2.4-1.3
		c0.6-0.4,1.4-0.9,1.2-1.7C370.1,308,369.8,307.8,369.4,307.8z"/>
	<path class="st2" d="M292.4,142.9c1.4-1.5,3.1-2.8,4.6-4.3c0.4-0.4,0.9-0.6,0.9-1.1c0-0.2-0.1-0.4-0.2-0.7c-1.5,0.6-3.1,1-4.6,1.6
		c-10,3.9-19.4,8.8-27.6,15.7c-1.6,1.3-3,2.7-4.9,3.7c0.7,0.5,1.2,0.6,2,0.3c1.4-0.6,2.7-1.2,4-2c5.1-2.9,10.3-5.4,16-7
		C286.4,147.9,289.8,145.9,292.4,142.9z"/>
	<path class="st2" d="M277.5,556.4C277.3,556.7,277.6,556.5,277.5,556.4L277.5,556.4z"/>
	<path class="st2" d="M660.2,208.7C660.1,208.7,660.1,208.8,660.2,208.7c-2.3-0.2-5.1-0.5-7.7-0.9c-9.2-1.6-18.2-4.1-25.8-10
		c-5.3-3.9-11.3-5.4-17.6-6.3c-0.3,0-0.7-0.2-0.9-0.1c-0.2,0.1-0.5,0.4-0.7,0.8c1,1,2.2,2.2,3.4,3.3c3.7,3,6.7,6.6,9.1,10.5
		c2.4,3.9,4.8,8,7.2,11.9c1.7,2.7,3,5.5,3.9,8.6c0.8,2.7,1.6,5.4,2.4,8.2c0.8,2.7,2.3,4.8,4.8,6.3c4.3,2.7,8.6,5.4,13,8.2
		c2.8,1.7,5.5,3.6,7.9,5.9c5.5,5.5,11,11.2,16.4,16.7c1.7,1.8,3.4,3.5,5.5,4.7c5.9,3.6,11.8,7.1,17.8,10.6c0.8,0.5,1.7,1.1,2.9,1.2
		c-0.8-1.5-2.1-2.2-3.1-3.3c-6.5-6.1-12.6-12.4-17.7-19.8c-1.9-2.7-3.8-5.5-4.7-8.6c-0.8-3.7-3.2-5.5-6.6-6.7
		c-5.8-2.2-11.3-5.1-16.2-9.1l0,0h-0.1l0.1-0.1c-0.1,0-0.1-0.1-0.2-0.1h-0.1l0.1-0.1l0.1-0.1l0,0c1.4-0.9,2.8-0.2,4.2,0.1
		c2.5,0.5,5.1,0.7,7.6,0c2.1-0.6,3.4-1.8,3.8-3.9c0.2-1,0.2-1.7-0.7-2.4c-2.4-2.2-4.9-4.2-7.9-5.3c-1-0.4-2.1-0.6-3.2-0.7
		c-0.6-0.1-1.2-0.2-1.8-0.3c-1.4-0.3-2.8-0.8-4-1.5c-0.6-0.3-1-0.6-1.1-1.4c3.5-0.9,6.9-1.7,10.3-2.4c1.9-0.5,3.8-1,5.7-1.3
		c1.2-0.3,2.4-0.4,3.6,0.1c0.2,0.1,0.5,0.2,0.7,0.3c4.6,2.5,9.3,4.8,12.2,9.6c0.7,1,1.5,1.9,2.3,2.7c0.4,0.5,0.8,0.7,1.4,0.9
		c0.7,0.1,1.4-0.3,1.6-0.9c0.8-2.8,0.8-5.5-1-8.1c-2.2-3.2-4.2-6.6-6.5-9.8c-1-1.5-2.2-2.8-3.6-4c-2.5-2.4-5.2-4.6-7.7-6.9
		c-3.1-2.8-6.7-4.7-10.6-5.8c-1.3-0.4-2.6-0.7-4-0.9c-0.5-0.1-0.8-0.2-1.3-0.2c-1,0-2.2,0.9-2.3,1.8c-0.2,1,0.5,1.8,1.3,2.2
		c2.8,1.3,5.1,3.2,7.4,5.1c0.4,0.3,1,0.7,0.8,1.5C660.6,208.8,660.4,208.7,660.2,208.7z"/>
	<path class="st2" d="M619.5,100.8c3.8-1.3,7.7-2.5,11.5-3.8c5.3-1.8,10.8-2.3,16.4-1.9c3,0.3,5.9,0.8,8.7,1.7
		c4.7,1.4,9.1,3.6,13.2,6.6c2.3,1.7,4.2,3.8,5.5,6.5c1.9,4,0.8,7.3-3.1,9.5c-0.9,0.5-2,0.8-2.9,1.2c-1.1,0.4-2.2,0.8-3.4,1.1
		c0.6,0.9,1.3,1.3,2.2,1.5c0.3,0.1,0.6,0.2,0.8,0.3c0.1,0,0.1,0,0.2,0.1h0.1c0.5,0.2,0.9,0.4,1.4,0.5c2.9,1,5.8,2,8.6,3.1
		c0.6,0.2,1.1,0.4,1.7,0.7c13.5,5.4,24.4,14.2,31.9,26.6c4.3,7,10,12.7,16.4,17.8c1.3,1,2.6,2,4,2.7c0.1,0.1,0.2,0.1,0.4,0.2
		c0.7,0.4,1.4,0.8,2.1,1.1c0.4,0.2,0.8,0.4,1.1,0.6c0.7,0.3,1.2,0.6,1.9,0.9c0.5,0.2,0.8,0.4,1.3,0.6c0.4,0.2,0.8,0.3,1,0.4
		c0.2,0.1,0.3,0.2,0.5,0.2c0.4,0.1,0.8,0,1.2-0.6c-0.8-1-1.8-2-2.6-3c-8.9-10.1-16.2-21.2-19.9-34.4c-2.2-7.9-5.9-15-10.8-21.6
		c-1.2-1.7-2.4-3.4-4.4-4.2c-0.2-0.1-0.4-0.2-0.7-0.2c-0.1,0-0.2-0.1-0.3-0.1c-0.5-0.1-0.8-0.7-1.4-1.1c1.1-1,2.2-0.8,3.5-0.6
		c4.3,0.9,8.4-0.2,12.3-1.8c0.3-0.1,0.5-0.3,0.6-0.6c0.2-0.5-0.3-0.8-0.7-0.9c-3.6-1.2-7-2.5-10.6-3.8c-3.3-1.1-6.3-2.8-8.9-5.1
		c-3.2-2.8-6.5-5.4-9.6-8.3c-2.2-2-4.4-3.7-7-5c-6.2-3.2-12.6-5.8-19.2-8c-4-1.2-8.1-2.3-12.2-3.1c-2.4-0.5-4.8-0.5-7,0.5
		c-1.1,0.5-2.2,0.8-3.4,1.2c-8.3,3.1-7.4,2.3-12.6,10.1c-2.7,4.1-5.5,8.3-9,11.7c-0.3,0.3-0.4,0.8-0.7,1.1
		C618.4,101.3,619,101,619.5,100.8z"/>
	<path class="st2" d="M614,369.8c-0.3-1.8-0.3-3.6-0.3-5.4c0-4.4,1.5-8.1,5.1-11c3.2-2.5,3.8-3.5,2.2-5.9c-0.4-0.6-0.8-1.1-1.3-1.8
		c-1.4-1.7-2.6-3.5-3.8-5.4c-1.1-1.8-2.1-3.8-2.8-5.7c-0.6-1.7-1.1-3.5-1.3-5.3c-0.4-3.9,0.7-7.4,2.8-10.6c1.1-1.7,2.4-3.4,3.7-5.1
		c-2.7-3.2-5.3-6.3-8.1-9.4c-0.7-0.7-1-2.2-2.2-1.6c-0.8,0.4-0.3,1.6-0.3,2.5s0.1,1.8,0.1,2.7c0.2,6.8,0.1,13.5-2.9,19.8
		c-0.6,1.1-0.6,2.4-0.5,3.6c0.1,1.5,0.2,3,0.2,4.5c0.1,4.8-0.1,9.6-1.9,14.2c-0.6,1.3-0.4,2.6-0.4,4c0,3.2-0.1,6.3-0.8,9.4
		c-1.4,6.9-5.5,12.2-9.4,17.7c-0.6,0.8-0.6,1.2-0.2,2c0.5,0.9,0.8,1.9,1.1,2.9c0.6,2,1.5,3.9,2.3,5.6c0.4,0.7,0.7,1.3,1,2
		c0.8,1.5,1.5,3,2.2,4.6c0.2,0.3,0.4,0.7,0.6,0.9c0.7-3.8,1.1-7.3,1.7-10.9c0.8-5.1,3.4-8.9,8.1-11.3c0.6-0.3,1-0.7,1.6-0.9
		C613.6,375.1,614.5,372.9,614,369.8z"/>
	<path class="st2" d="M565.3,109.3c1.3,0.3,2.6,0.3,4,0.3h0.1c0.2,0,0.5,0,0.7,0.1c0.8,0.2,1.3,0.6,1.8,1.3
		c2.6,4.8,6.9,7.9,11.5,10.5c5.8,3.3,12,5.5,18.5,6.9c1.6,0.4,3.3,0.7,5,1c6.1,1.2,12.3,2.4,18.5,3.5c1.5,0.3,2.9,0.5,4.4,0.8
		c3.3,0.6,6,1.7,8.5,3.8c2,1.6,3.8,3.4,5.7,5.1c1.1,1,1.8,2.4,2.2,3.9c0.8,2.9,1.7,5.7,2.6,8.6c0.7,2.2,1.4,4.3,3,6
		c1.3,1.3,2.3,2.6,3.2,4.3c1.1,2.2,2,2.6,4.5,3.2c-3.8-13.4-5.1-17.6-4.3-25.4c0.6-0.3,1-0.3,1.4-0.1c0.5,0.1,0.8,0.4,1.3,0.6
		c4.2,2.2,8.2,5.1,12,7.9c2.8,2.1,5.2,4.6,6.9,7.7c0.8,1.6,1.9,3,3,4.5c0.5,0.6,1,1.1,1.7,1.5c0.3,0.1,0.6,0.2,0.8,0.2
		c0.1,0,0.2-0.1,0.3-0.1c0.3-0.2,0.6-0.8,0.6-1.1c0.1-1.3-0.7-2.2-1.4-3.2c-2.2-2.5-4.3-5-6.5-7.5c-4.2-5-9.3-8.9-15-12
		c-2.4-1.4-5-2.7-7.4-4.2c-13.2-8-27.5-13.3-42.5-16.6c-4.8-1-9.6-2.2-14.4-3.6c-4.3-1.2-8.4-3.1-12.3-5.3c-2.5-1.5-4.6-3.3-6.5-5.5
		s-2.1-4-0.4-6.5c0.4-0.6,0.8-1.2,1.4-1.7c2.9-2.5,5.3-5.6,8.7-7.6c0.6-0.3,0.5-1.1-0.1-1.4c-0.7-0.4-1.4-0.6-2.2-0.8
		c-0.1,0-0.3,0-0.4-0.1c-0.2,0-0.5-0.1-0.7-0.1c-0.4,0-0.7,0-1,0c-5.1,0.3-9.8,1.9-13.7,5.1c-2.7,2.2-4.6,5.3-3.4,9.1
		c0.5,1.5,0.4,2.3-1,3.4C562.8,106.7,563.4,108.8,565.3,109.3z"/>
	<path class="st2" d="M670.6,474.3c0.9,0.8,1.8,1.6,2.7,2.4c0.6,0.5,1.1,1.1,2,0.7c0.1-0.1,0.2-0.1,0.3-0.2c0.2-0.4,0.1-0.9,0.1-1.2
		c-0.1-2.8-0.2-5.7-0.4-8.5c-0.5-10.2-0.7-20.4-0.4-30.6c0.2-5.8,1.4-11.3,3.8-16.2c1.1-2.2,2.4-4.4,4-6.6c1.5-2,2.7-3.9,3.6-6.1
		c0-0.1,0.1-0.2,0.1-0.3c0.1-0.3,0.3-0.7,0.4-0.9c1.4-3.7,4.4-5.5,8.4-6.1c1.8-0.3,3.6-0.3,5.3-0.1c3.7,0.4,7,1.9,10.1,3.5
		c1.9,0.9,3.8,1.9,5.5,2.8c0.1-0.2,0.2-0.3,0.3-0.4c0-0.5,0-0.9-0.1-1.3c-1.4-7.1-1.7-14.3-1.2-21.5c0.2-3,0.1-6-0.4-9
		c-0.8-5.5-2.8-10.7-5.5-15.7c-2.6-5.1-5.7-9.9-8.8-14.6c-3.8-6-6.9-12.3-8.7-19.2c-0.6-2.1-1.2-4-1.9-6
		c-3.1-9.4-9.7-16.4-16.2-23.5c-0.1-0.1-0.3-0.2-0.4-0.3c-0.3-0.2-0.6-0.4-0.8-0.5c-0.1,0.1-0.3,0.2-0.4,0.4c0.8,1.3,1.8,2.7,2.7,4
		c2.6,3.8,5.2,7.7,7.1,11.9c2.2,4.8,3.7,9.8,2.9,15.2c-0.6,4.7,0.6,8.9,3.1,12.9c2.6,4,5.2,8.2,7.9,12.1c2.6,3.9,5.1,7.8,7.1,12
		c0.6,1,1,2.2,1,3.4c0,1.4-1,2.6-2.3,2.9c-0.3,0.1-0.6,0.1-0.8,0.1c-0.8,0-1.5-0.1-2.2-0.4c-1.2-0.5-2.4-1.1-3.7-1.7
		c-5.9-3-11.3-7-16.7-10.6c-1.4-0.9-2.7-1.9-4.1-2.7c-0.3-0.2-0.6-0.2-0.8-0.2c-0.2,0.1-0.4,0.2-0.5,0.3c3.2,4.4,5.1,9.4,6.6,14.5
		c0.5,1.4,0.6,2.9,0.6,4.4c0,2.7-1,5-3.5,6.4c-0.8,0.5-1.6,0.9-2.2,1.4c-2.6,2.2-4.4,4.8-3.8,8.5c0.3,2,0.6,3.9,0.7,5.8
		c0.3,3.9-0.4,7.6-3.1,10.5c-1.3,1.4-2,3-2.2,4.8c-0.2,1.3-0.4,2.7-0.6,4c-0.8,6.8,0,13.4,0.5,20.2c0.2,2.4,0.4,4.9,0.1,7.2
		c-0.3,1.9-0.5,3.9-1.4,5.6c-1,2.1-2.7,3.3-4.7,3.4c-0.8,0.1-1.9,0-2.8-0.3c-1.5-0.6-2.9-1.5-4.4-2.2c-1.6-0.9-3.1-2.1-5.1-2.6
		c-1.2,3.4-3.5,5-6.4,5.7c-1,0.3-2.2,0.5-3.4,0.5c-0.6,0-1.2,0.2-1.8,0.2c-0.5,0-0.8,0.1-1.3,0.1c-3.2,0.6-6,2-8.8,3.6
		c-1.4,0.8-2.4,1.8-3.2,3.1c-3,5.6-6.3,11.3-8.2,17.5c-0.2,0.6-0.7,1.1,0,1.7c0.8-1.1,1.8-2.2,2.6-3.3c4.2-5.3,9.4-9.2,15.7-11.7
		c1.3-0.5,2.5-0.9,3.8-1.2c8.5-2.4,16.6-1,24.2,4.4C664,469.1,667.3,471.7,670.6,474.3z"/>
	<path class="st2" d="M580.2,265.4c-1.5,2.6-2.9,5.3-4.5,7.8c-3.4,5.5-8.1,9.2-14.5,10.6c-4.8,1-9.5,1-14.2-0.5
		c-0.9-0.3-2-0.9-3-0.2c0.9,0.7,1.8,1.3,2.6,2c0.1,0.1,0.2,0.1,0.3,0.2c0.3,0.2,0.6,0.5,0.9,0.7c0.7,0.5,1.4,0.9,2.1,1.2
		c5.1,2.5,10.2,2.4,15.6-0.3c1.6-0.8,3.1-1.8,4.7-2.6c2.5-1.2,4.2-3.2,5.5-5.6c2.4-4.3,4.7-8.6,5.7-13.4
		C580.9,264.9,580.5,264.8,580.2,265.4z"/>
	<path class="st2" d="M577.7,302.7L577.7,302.7c-0.5-0.2-0.8,0.1-1.2,0.3l0,0c-4.2,2.7-8.9,3.4-13.8,3c-0.3,0-0.6,0-0.8-0.2l0,0
		c-0.4-0.2-0.5-0.6-0.4-0.9c0-0.1,0.1-0.2,0.2-0.3l0,0l0,0c0.7-0.7,1.4-1.1,2.2-1.6l0,0c2.2-1.4,4.3-2.8,6.1-4.6
		c0.1-0.1,0.2-0.2,0.3-0.3s0.2-0.2,0.3-0.4c0.1-0.1,0.1-0.3,0.1-0.4s-0.1-0.3-0.2-0.5c-0.4-0.5-0.9-0.7-1.6-0.8
		c-0.9-0.2-1.8,0.3-2.6,0.7c-0.3,0.1-0.6,0.3-0.8,0.4c-4.2,2-8.5,2.4-13.2,1.9c-3.2-0.4-6.3-1.2-9.2-2.4c-1.1-0.5-2.3-1-3.5-1.6
		c-0.6-0.3-1.1-0.6-1.7-0.9c-0.9-0.5-1.6-1.4-2.7-1.3l0,0c0.8,3.2,2,5.1,4.6,6.6l0,0l0,0c0.8,0.5,1.7,0.8,2.4,1.2l0,0
		c0.3,0.2,0.5,0.3,0.7,0.5c0.6,0.5,0.9,1,1,1.7c0,0.1,0,0.3,0,0.4c0,0.4,0,0.8-0.1,1.1l0,0c-0.6,2.4-0.9,4.7-2.9,6.5
		c0.8,0.9,1.6,1.9,2.2,2.9c1,1.7,1.8,3.5,2.5,5.4c2.1,5,5.8,8.5,10,11.7c0.2-0.5,0.3-0.9,0.3-1.1c-0.1-0.6-0.4-1-0.6-1.6
		c-0.9-2.5-2.1-5.1-2.8-7.6c-0.3-0.9-0.4-1.6-0.4-2.2c0-1,0.4-1.9,1-2.5c0.5-0.5,1-0.9,1.8-1.1c0.4-0.2,0.8-0.3,1.2-0.4
		c1.4-0.4,2.9-0.7,4.4-0.9c6.8-1.5,12.1-5.5,17-10.2l0,0l0,0V303C577.7,302.9,577.7,302.8,577.7,302.7L577.7,302.7z"/>
	<path class="st2" d="M522,191.8c0.3-0.1,0.7-0.1,0.8-0.2c2.2-1.5,4.2-3.1,6.7-4.9c-0.3,0-0.6-0.1-0.8-0.1c-0.4,0-0.7-0.1-0.8-0.1
		s-0.1,0-0.2,0c-6,0.3-8.3-2.4-7-8.3c0.7-3.1,2.2-5.9,3.8-8.6c3.1-5.4,6.9-10.1,10.9-14.8c2-2.2,4.3-4.2,7-5.6
		c4.6-2.4,9.3-4.8,14-7.1c0.4-0.2,0.8-0.3,1.2-0.5c0.5-0.2,0.9-0.3,1.3-0.2c0.8,0,1.5,0.4,2.2,0.9c0.8,0.9,1.2,2.1,0.8,3.3
		c-0.5,1-1,2.2-1.6,3.2c-0.8,1.7-2,3.3-2.3,5.4c0.6,0.2,0.9,0.4,1.3,0.5c4.6,0.6,9.2,1.1,13.8,1.6c7.4,0.8,14.7,1.8,21.2,5.8
		c-1.7-3.5-3.7-6.7-6-9.5c-2.7-3.3-6.1-5.3-10.4-5.3c-2,0-3.8-0.3-5.7-0.9c-4.3-1.3-6.9-4.2-7.3-8.7c-0.2-1.8-0.2-3.6-0.2-5.4
		c0-1.2,0-2.4-0.1-3.6c-0.2-1.9-0.7-2.3-2.4-2.6c-1.5-0.3-3.1-0.1-4.4-0.7c-0.5-0.3-1-0.4-1.5-0.5c-1.7-0.2-3.2,0.4-4.6,1.5
		c-1.8,1.3-3.6,2.7-5.2,4.3c-4.8,4.6-8.7,10-11.8,15.8c-1.9,3.4-3.6,6.9-5.3,10.4c-0.8,1.7-1.7,3.2-3.4,4c-2.2,1.1-3.7,3.1-4.8,5.1
		c-3.1,4.9-5.3,10.1-6.9,15.6c-0.2,0.9-0.4,1.8-0.5,2.6c-0.1,1,0.1,1.9,1.1,2.2c2.3,0.6,3.8,2.2,4.8,4.3c0.4,0.8,0.8,1,1.4,1.1
		C521.4,191.9,521.7,191.9,522,191.8z"/>
	<path class="st2" d="M321.9,512.5c0,0.1,0,0.2-0.1,0.3v0.1c-0.1,0.1-0.1,0.2-0.2,0.3c-0.1,0.2-0.3,0.4-0.5,0.6l0,0
		c-2.2,2-4.6,3.4-7.1,4.7c-4.2,2.2-8.5,4.3-12.8,6.6c-2,1-3.9,2.2-5.7,3.5c-1.3,0.8-2.2,2.1-2.7,3.5c-0.5,1.1-0.9,2.3-1.2,3.5
		c-0.4,1.1-0.8,2.3-1.1,3.6c-2.1,7.1-3.3,14.5-3.9,21.9l0,0c0,0.2,0.3,0.5,0.4,0.7l0,0c0.9-0.7,0.6-2.2,2-2.6l0,0
		c0.2,14.3,0.3,16.1,3.6,26.1l0,0c1.7-3.8,2.5-7.7,3.9-11.3l0,0l0,0c1.3-3.5,2.5-7,3.9-10.5l0,0c0.5-1.2,1-2.5,1.6-3.8
		c1-2.3,2.1-4.7,3-7l0,0l0,0c1.4-3.5,3.5-6.9,5-11.3l0,0c-2.6,1.6-4.2,3.2-5.9,4.5c-1.8,1.4-3.6,3-5.8,3.8v0.1l-0.1-0.1h0.1
		c-0.2-0.9,0.1-1.7,0.6-2.4l0,0c1.5-2.6,2.9-5.3,4.5-7.7l0,0c5.2-8.2,10.4-16.3,17.2-23.4l0,0c0.1-0.1,0.2-0.2,0.4-0.4
		C321.5,514.7,322,513.7,321.9,512.5L321.9,512.5L321.9,512.5z M298.1,549.5L298.1,549.5L298.1,549.5L298.1,549.5z"/>
	<path class="st2" d="M273.7,560c-2.4,1.6-3.9,3.8-5.4,5.9c-1.2,1.9-2.4,3.8-3.7,5.6c-2.4,3.9-4.9,7.9-7.8,11.5
		c-2.7,3.4-4.8,7.2-6.6,11.3c-1.5,3.4-2.9,6.9-4.5,10.1c2.8,1.5,5.6,3,8.4,4.8c3.2-12,7-23.7,13-34.7c2.7-5,5.5-10,8.4-14.9
		c0.5-0.7,0.8-1.4,0.3-2.2C275.6,558.8,274.6,559.3,273.7,560z"/>
	<path class="st2" d="M270.8,306.4c0.6-0.5,1.3-0.9,0.9-2c-0.2,0-0.4,0-0.6,0c-0.8,0-1.5,0.1-2.2,0.1c-0.9,0-2,0-2.8-0.5
		c-0.7-0.4-1.3-0.5-2-0.5c-1,0-2,0.4-2.9,0.9c-2.7,1.7-5.3,3.4-7.9,5.2c-1.9,1.2-3.8,2.4-6,3.1c-0.9,0.3-1.8,0.4-2.5,0.3
		c-2.4-0.1-4.7-1.3-6.2-3.6c-0.4-0.7-0.7-1.4-0.9-2.1s-0.3-1.4-1.2-1.6c-1.7,3-2.7,6.3-2.2,9.9c0.3,2.1-0.3,3.9-1.6,5.5
		c-0.6,0.8-1,1.5-1.5,2.2c-2.2,3.7-4,7.5-5,11.7c3.9-2.6,8.1-4.7,12.5-6c1.4-0.5,2.8-1,4-1.4c3.1-0.9,5.7-2.4,8.3-4.4
		C258,318,264.4,312.3,270.8,306.4z"/>
	<path class="st2" d="M773.7,587.2c0-0.1-0.1-0.2-0.1-0.2c-0.8-0.9-1.6-1.8-2.3-2.7c-12.7-14.6-22.3-30.7-27.3-49.6
		c-2.5-9.6-5.2-19.2-8.5-28.5c-0.8-2.4-1.4-5-2-7.4c-1.9-8.5-5.6-16.1-9.8-23.7c-0.3-0.6-0.6-1.4-1.5-0.9c0.8,5.1,1,10.1,2.1,15.1
		c0.8,4.1,1.5,8.3,2.2,12.4c2,12.5,4.9,24.8,8.6,36.8c1.1,3.8,2.6,7.3,4.5,10.8c2.2,4.3,4.9,8.3,7.5,12.3c1.4,2.2,1.6,3.7,0.5,4.9
		c-1.5,1.6-3.2,1-5,0.5c-3.4-1-6.5-2.2-8.8-4.8c-0.4-0.4-0.8-0.8-1.1-1.3c-0.1-0.1-0.2-0.1-0.3-0.2c-0.1,0-0.2-0.1-0.3-0.1
		c-0.9,2.3-1.2,3.3-0.5,4.1c0.4,0.4,0.8,0.8,1.5,1.2c3.7,2.6,7.7,4.7,11.7,6.6c8.8,4,17.7,8.3,25.8,13.7c0.8,0.6,1.8,0.9,3.2,1.8
		C773.8,587.7,773.7,587.4,773.7,587.2z"/>
	<path class="st2" d="M227.5,145c2.1-3.9,4.5-7.8,7-11.7c4.8-7.6,11-13.9,18.1-19.2c4.3-3.2,8.8-6.2,13.4-9.1
		c5.2-3.4,10.8-5.9,17-6.9c3-0.5,5.9-0.8,8.9-0.9c6.3-0.4,12.6-1,18.9,0.5c0.9,0.2,2,0.7,2.9-0.1c0.2-0.6-0.3-0.8-0.6-1
		c-5.2-4-10.8-7-17.2-8.6c-5.7-1.4-11.4-0.7-16.8,1.3c-7.1,2.5-13.7,6.1-19.9,10.3c-7,4.9-14.3,9.4-21.9,13.3
		c-2.2,1.1-4.1,2.4-6.2,3.7c-6.4,3.7-11.5,8.6-15.4,14.8c-0.5,0.8-1,1.5-1.7,2.1c-1.1,1-3.3,0.3-3.5-1.3c-0.1-0.8,0-1.5,0.1-2.2
		c1.1-6.5,3.2-12.4,6.9-17.7c0.9-1.2,1.8-2.4,2.8-3.6c2-2.2,4-4.5,5.9-6.8c0.2-0.2,0.5-0.5,0.7-0.7c0.1-0.3,0.1-0.7-0.4-1.1
		c-6.3,4-13,6.9-20,9.2c-0.8,0.3-1.3,0.7-1.7,1.3c-0.1,0.2-0.2,0.5-0.2,0.7c-0.1,0.5-0.2,0.9-0.4,1.4c-0.6,1.9-1.7,3.6-2.7,5.3
		c-2.1,3.5-4.1,6.9-6.1,10.5c-0.1,0.1-0.1,0.2-0.2,0.4c-1.7,3.1-3.3,6.3-4.3,9.7c-0.9,2.6-1.6,5.3-2.4,7.9c0,0.1-0.1,0.2-0.1,0.4
		c0,0.1-0.1,0.3-0.1,0.4c-1.6,6.1-2.9,12.2-3.9,18.4c-0.8,5.6-1.1,11.5-1,17.3c0,0.6-0.2,1.2,0.8,1.3c0.1-0.1,0.3-0.2,0.3-0.3
		c0.5-0.9,1-1.8,1.5-2.7c4.8-8.8,11.2-16.3,19.9-21.6c2.5-1.6,5-3.3,7.1-5.5c0.4-0.5,0.9-0.9,1.4-1.1c0.4-0.2,0.9-0.2,1.2,0
		c0.4,0.2,0.8,0.8,0.7,1c-0.1,0.6-0.3,1.1-0.4,1.7c-0.1,0.4-0.2,0.8-0.4,1.1c0,0.1,0,0.1-0.1,0.2c-1.8,3.9-3.6,7.6-5.4,11.5
		c-0.6,1.3-1.7,2.4-1.4,4c0.9,0,1.2-0.7,1.6-1.2c1.3-1.8,2.5-3.8,3.9-5.5c0.5-0.6,0.9-1.2,1.3-1.9c0.4-0.6,0.9-1.1,1.2-1.8
		c0.5-0.7,0.9-1.3,1.4-2c0.8-1,1.4-2.2,2.2-3.2c0.6-0.9,1.1-1.7,1.6-2.6c0.4-0.7,0.8-1.2,1.1-1.9c0.8-1.2,1.5-2.5,2.2-3.8
		c0.4-0.7,0.8-1.3,1.1-2C227,146.1,227.2,145.5,227.5,145z"/>
	<path class="st2" d="M720.1,589.7c-3.2-6.1-6.5-11.9-9.7-17.8c-3.7-6.8-8.5-12.2-15.2-16.1c-4.7-2.7-8.6-6.5-12.2-10.5
		c-2.1-2.3-4.2-4.7-6.3-7c-1.1-1.2-2.2-2.4-3.7-3.3c-4.4-2.6-8.7-5.3-13.2-7.8c-1-0.6-2.1-1.3-3.2-0.8c3.5,3.3,6.3,7,8.8,10.9
		c6.4,9.9,14.1,18.5,23,26c7,5.8,13.5,12.3,19.8,18.9c3.6,3.8,7.3,7.4,11.1,11.1c0.6,0.6,1.1,1.4,2.2,1.2c0.2-1.1-0.2-2.2-0.7-3.1
		C720.7,590.7,720.4,590.2,720.1,589.7z"/>
	<path class="st2" d="M722,594.3L722,594.3L722,594.3c0,0.2,0,0.2-0.2,0.1c0,0.2,0.1,0.3,0.2,0.3h0.1
		C722.2,594.7,722.1,594.5,722,594.3C722.1,594.4,722,594.3,722,594.3z"/>
	<path class="st2" d="M402,291.9C402.1,292.1,402.1,291.9,402,291.9L402,291.9z"/>
	<path class="st2" d="M208.2,173.2c0,0.1,0.3,0.3,0.3,0.3c0.4-0.2,0.6-0.5,0.4-0.9C208.3,172.5,208.2,172.8,208.2,173.2z"/>
	<path class="st2" d="M387.4,289.5c-0.3,0.2-0.5,0.5-0.8,0.6c-0.1,0.1-0.2,0.1-0.3,0.2c-5.1,2.2-10.2,2.1-15.3,0.2
		c-4.3-1.6-8.5-3.7-12-6.8c-0.5-0.4-0.9-1.2-1.8-0.8c0.1,0.3,0.1,0.6,0.2,0.8c0.2,0.5,0.4,0.9,0.7,1.2c3,4.8,7.9,7.1,12.4,10
		c0.5,0.4,1.1,0.5,1.7,0.5c5.7,0.4,11-0.9,15.5-4.6c0.1-0.1,0.2-0.3,0.2-0.4c0.1-0.4-0.2-0.8-0.2-1.1
		C387.6,289.3,387.5,289.4,387.4,289.5z"/>
	<path class="st2" d="M292.6,169.8c-1.4,0.5-2.8,0.9-4.4,1.5c0.4,0.7,0.7,1.2,1,1.7c1.7,1.9,3.5,3.7,5.5,5.2
		c1.2,0.9,2.4,1.7,3.8,2.4c0.9,0.5,1.8,0.9,2.6,1.5c0.1,0,0.2,0.1,0.2,0.1c0.2,0.1,0.4,0.3,0.7,0.4c1.2,0.9,2,1.8,2.2,2.8v0.1
		c0,0.1,0.1,0.2,0.1,0.3c0.4,1.5-0.2,3.1-1.7,4.5c-0.7,0.7-1.4,1.1-2.1,1.7c-5,4-8.8,8.9-11.9,14.6c-4.6,8.6-7.7,17.6-9.5,27.1
		c-0.8,4.1-1.3,8.4,0.1,12.5c1.3,3.8,0.8,7.4-0.9,10.9c-1,2.4-2.2,4.6-3.5,7.1c1.3,0.1,2.1-0.3,2.8-0.8c3-1.8,5.9-3.6,8.8-5.5
		c2.6-1.7,4.9-3.9,6.7-6.6c2.4-3.4,4.7-6.7,7-10.1c2.4-3.5,4.8-6.9,8.2-9.5c1.2-0.9,1.7-2.1,1.8-3.5c0.1-0.8,0.2-1.5,0.2-2.2
		c0.5-10.8,3.6-20.9,8-30.7c2-4.4,4.5-8.6,7.6-12.2c3.4-4,6.9-8,10.2-12c3.9-4.5,8.5-7.6,13.9-9.8c2.8-1.1,5.7-2,8.7-2.2
		c1.2-0.1,2-0.7,2.4-1.8c0.6-1.9,1.1-3.8,1.7-5.6c0.9-2.7,1.7-5.5,3.7-7.7c4.9-5.4,11.2-8.4,18.5-9c3.3-0.3,3.3-0.1,2.2-3
		c-0.7-2-1.4-3.9-2.1-5.8c-1.4-0.2-2.9-0.1-3.9-0.6c-3.9-1.6-8.2-1.8-12.3-2.3c-7-0.9-13,1.3-18.6,5.3c-0.7,0.5-0.9,1.1-0.3,2
		c0.5,0.6,0.9,1.2,1.2,1.9c1.2,2.6,0.4,5.2-2.2,6.4c-1.3,0.6-2.8,0.9-4.3,1.3c-5.1,1.3-10.1,2.6-15.1,4.5c-3.4,1.2-6.6,2.9-9.4,5.3
		c-5.3,4.2-10.8,8.2-15.6,12.9C301.2,166.1,297,168.2,292.6,169.8z"/>
	<path class="st2" d="M419.5,267.7c-1.4,1.1-1.3,2.7-1.6,4.1c-0.3,1.2-0.5,2.4-1.4,3.2c-0.1,0.1-0.2,0.1-0.3,0.2
		c-0.3,0.2-0.7,0.3-1,0.3l0,0c-0.1,0-0.2,0-0.3-0.1c-0.2,0-0.3-0.1-0.4-0.2c-0.3-0.3-0.7-0.7-0.8-1c-0.3-1.3-1-1.6-2.2-1
		c-1.1,0.5-1.9,1.2-2.4,2.4c-1.2,2.5-2.2,5.2-3.3,7.7c-0.9,2.2-2,4.3-3.3,6.3c-0.6,0.8-0.6,1.5-0.4,2.2c2.7-2.8,6.1-4.7,9.7-6.1
		c7.6-2.9,10.4-8,8.4-15.8C420.1,269.1,419.8,268.5,419.5,267.7z"/>
	<path class="st2" d="M361.5,205.4c-0.8,0.2-1.3,0.8-2,1.1s-1.1,0.9-1,1.9c0.9,0.2,1.7,0.3,2.5,0.5s1.8,0.5,2.4,1.1s1.7,0.5,2.1,1.5
		c0.2,0.5-0.9,1.3-2.4,1.6c-0.4,0.1-0.7,0.1-0.9,0.1c-3,0.5-5.7,1.5-8.3,3.3c-1.9,1.4-3.9,2.4-5.7,3.7c-4.1,2.7-8,5.8-11,9.9
		c-1.6,2.1-2.5,4.2-2,7c6.1-1.7,12.1-3.9,18.4-4.9c0,0.1,0,0.1,0,0.2c0.2,0,0.3-0.1,0.5-0.1c0,0.2-0.1,0.5-0.1,0.8
		c-0.1,0.5-0.5,1.1-0.3,1.3c0.1,0.1,0.2,0.2,0.3,0.2c0.3,0,0.6-0.1,0.9-0.3c2.1-1.2,4.1-2.5,6.2-3.7c1.6-0.9,3.3-1.2,5.2-1.1
		c4.5,0,9,0.6,13.5,0.8c1.5,0.1,3,0.3,4.4,0.6c4.1,0.8,8.1,2.2,11.7,4.5c2.6,1.7,5.8,2.4,8.2,4.6l0,0c0.3-0.1,0.5-0.3,0.7-0.6
		c0.4-0.9,0.5-1.7,0-2.6c-0.7-1.2-1.4-2.4-2.1-3.5c-3.3-5.4-7.4-9.8-13.2-12.5c-2.1-0.9-4-1.9-6.1-2.8c-1.1-0.5-2.2-0.9-3-1.9
		c-1.5-1.7-0.9-3.9,1.3-4.6c1.8-0.5,3.6-0.3,5.4,0.1l0,0c0.2,0,0.3,0.1,0.5,0.1c0.4,0.1,0.7,0.3,1,0.4c0.3,0,0.6,0,0.9-0.3
		c0-0.2,0-0.4-0.1-0.5c-2.4-2.4-5.1-4-7.9-5.3C375.3,203.6,368.6,203.7,361.5,205.4z M353.8,232.1
		C353.7,232.1,353.8,232,353.8,232.1L353.8,232.1L353.8,232.1z M353.9,232.3L353.9,232.3c0-0.1,0-0.1-0.1-0.2l0,0L353.9,232.3
		L353.9,232.3h0.2C354,232.3,354,232.3,353.9,232.3z"/>
</g>
</svg>
