<?xml version="1.0" encoding="utf-8"?>
<!-- Generator: Adobe Illustrator 24.0.1, SVG Export Plug-In . SVG Version: 6.00 Build 0)  -->
<svg version="1.1" id="Layer_1" xmlns="http://www.w3.org/2000/svg" xmlns:xlink="http://www.w3.org/1999/xlink" x="0px" y="0px"
	 viewBox="0 0 990 781.2" style="enable-background:new 0 0 990 781.2;" xml:space="preserve">
<style type="text/css">
	.st0{fill:#707070;}
	.st1{fill:#F1AF15;}
	.st2{fill:#FFFFFF;}
</style>
<g>
	<path d="M190.5,722.4c-0.9,0.5-1.1,1.3-1.5,1.9c-2,2.8-4.4,5.1-7.6,6.4c-0.4,0.2-0.7,0.3-1.1,0.5c-4.5,2.1-4.5,2.1-4.6,6.9
		c-0.1,4.5-1.4,8.8-3.4,12.9c-0.6,1.2-1.3,2.2-2.2,3.1c-3.6,3.4-7.7,4.4-12.3,2c-2.4-1.3-4.4-3.1-6.5-4.9c-0.5-0.5-0.9-1.2-1.7-1.2
		c-0.6,0.4-0.7,1.1-0.9,1.6c-1.2,3.1-3.1,5.8-5.2,8.3c-1.8,2.3-4.5,3.2-7.3,2.7c-7-1.2-13-4.4-17.9-9.5c-4.7-4.9-9.3-10-12.8-15.8
		c-0.9-1.4-1.9-2.5-3.3-3.4c-1.3-0.8-2.6-1.6-3.8-2.5c-4.7-3.1-8-7.5-11.5-11.8c-4.9-6.2-7.7-13.4-9-21.2c-0.2-0.9-0.3-1.9-0.6-2.8
		c-1.1-3.5-1-7.1-0.1-10.6c1.5-6.1,3-12.3,5.4-18.1c0.7-1.6,0.9-3.4,1.1-5.2c0.8-7,3.6-13.2,7.6-18.9c6.4-9.3,14.7-16.6,23.6-23.4
		c11.5-8.9,24.3-15.1,38.4-18.6c5.3-1.3,10.7-2,16.1-2.7c5.4-0.6,10.9-0.7,16.3-0.5c11.9,0.5,23.7,2.5,35.2,5.4
		c5.2,1.3,10.4,2.7,15.3,4.8c2.1,0.9,2.2,0.8,3.1-1.4c2.9-7.5,5.8-14.9,8.6-22.4c4.5-11.8,10.7-22.7,18-33
		c4.4-6.1,6.6-12.9,6.7-20.4c0.2-6.6-0.4-13.1-0.6-19.7c0-1.1-0.3-2-1.5-2.5c-7.9-3.1-14.4-8.5-21.4-13.1
		c-11.1-7.3-19.5-16.9-26.5-28c-4.7-7.5-9.1-15.1-12-23.4c-4.2-12-7.7-24.2-10.7-36.6c-2.5-10.6-4.4-21.3-6.1-32
		c-2.7-16.3-6.6-32.3-11.4-48.1c-2.1-6.9-4.2-13.8-6.3-20.7c-2.2-7.1-3.3-14.3-3.4-21.7c-0.1-6.7-0.4-13.4-0.9-20.1
		c-0.5-5.7,0-11.3,1.8-16.8c3.7-11.3,7.1-22.8,11.5-33.8c4.3-10.9,10.5-20.6,18.5-29.2c5.4-5.9,10.8-11.8,15.6-18.3
		c2.3-3.2,5.1-5.9,7.8-8.8c6.6-6.8,12.7-14,18.4-21.5c7.2-9.5,15.1-18.5,22.2-28c10.9-14.5,24-26.8,36.9-39.3
		c3.3-3.2,6.6-6.5,9.9-9.8c5.9-5.9,12.7-10.4,19.9-14.5c1.4-0.8,2.8-1.1,4.4-1c1.7,0.2,3.4-0.1,5-0.6c2.9-0.9,5.8-0.8,8.8-0.2
		c3,0.7,5.9,1.4,8.9,1.8c4.3,0.6,8.5,0.2,12.7-0.4c5.4-0.7,10.7-1.8,16.1-2.4c3.4-0.4,6.8-0.4,10.3-0.4c5.3,0,10.5-0.4,15.7-1.4
		c6.6-1.4,13.3-1.9,20-2.1c6.9-0.2,13.4-1.9,19.9-4c8.7-2.9,17.4-6,25.8-9.8c5.9-2.7,12.1-4,18.5-4.5c5.4-0.5,10.7-0.6,16.1-0.3
		c10.2,0.4,20.2,2,30.2,4c6.8,1.3,13.6,2.7,20.5,4.1c2.9,0.6,5.7,1.6,8.5,2.4c9.7,2.8,19.5,5.2,29.2,7.7c7.9,2,15.4,4.9,22.8,8.2
		c2.5,1.1,4.8,2.6,7.1,4.1c2,1.3,4.1,2.5,6.1,3.8c2.2,1.4,4.4,1.6,6.9,0.7c2.9-1.1,5.8-1.7,8.9-1.8c5.1-0.2,9.8,0.9,14.4,3
		c4.4,2.1,8.5,4.7,12.7,7.3c1.2,0.7,2.2,1.6,3,2.8c1.1,1.7,2.6,3.1,4,4.5c11,10.9,21.5,22.1,30.8,34.5c5.3,7.1,12,12.9,18.9,18.4
		c9,7.2,17.9,14.5,26.8,21.8c2,1.7,4,3.5,5.8,5.3c4.6,4.5,9.6,8.7,14.5,13c4.7,4.1,8.8,8.9,13.1,13.4c5.2,5.4,11,10.2,17,14.8
		c11.2,8.6,18.6,19.7,21.4,33.6c1.3,6.3,0.9,12.6,0.5,18.9c-0.2,3.1-0.5,6.2-0.7,9.3c-0.5,6.3-0.9,12.6-1.3,18.9
		c-0.3,4.6-0.7,9.2-1.1,13.9c-0.7,8.9-1.5,17.8-2.7,26.7c-1.6,12.3-3.4,24.6-4.9,36.9c-1,8.5-1.6,17-2.6,25.5
		c-1.4,12.8-2.3,25.6-4.2,38.4c-1.3,8.5-4,16.6-7.8,24.4c-4.6,9.4-10.4,18.2-15.6,27.3c-6.5,11.2-14.6,21.2-23.1,30.9
		c-1.7,2-3.5,4-5.2,6c-1.9,2.2-3.9,4.3-6.2,6c-4.9,3.6-8.7,8.3-12,13.3c-2.8,4.2-6.7,7-10.9,9.5c-1.4,0.8-3,1.2-4.6,1.2
		c-2.9,0.1-5.7-0.3-8.5-1.2c-1.5-0.4-2.9-0.9-4.4-1.3c-1.4-0.4-1.7-0.1-1.5,1.4c0.6,3.2,1.2,6.4,1.7,9.7c1.6,10.5,2.1,21,2,31.6
		c0,4.7,0.1,9.4-0.5,14.1c-0.2,1.8,0,3.5,0.6,5.2c2.9,8,5.7,16,8.6,23.9c0.1,0.2,0.2,0.5,0.3,0.7c0.7,1.5,0.9,1.6,2.3,0.9
		c1.3-0.7,2.5-1.4,3.8-2.1c11.6-6.7,24.1-10.7,37.1-13.4c9.5-2,19-3.2,28.7-3.6c13.4-0.6,26.3,1.2,39,5.2c10.1,3.2,19.3,8,27.9,14.2
		c6.1,4.3,11.9,9,17.1,14.3c4.8,4.9,9,10.2,12.4,16.1c2.7,4.7,4.4,9.8,5,15.2c0.2,1.4,0.4,2.9,0.9,4.2c2.2,5.7,3.8,11.5,5.3,17.4
		c0.8,3.1,0.8,6.1,0.3,9.3c-1,7.6-3.8,14.7-7,21.6c-0.5,1.1-1.2,2.1-1.9,3.1c-4.4,6.3-9.2,12.1-15.9,16c-2.1,1.2-3.7,2.8-4.9,4.8
		c-3.3,5.6-7.7,10.2-12.1,14.8c-4.6,4.8-10.4,7.7-16.8,9.2c-4.1,1-7.2-0.6-9.6-4.2c-1.6-2.4-3.3-4.7-4.3-7.5c-0.4-1.1-1-0.8-1.6-0.2
		c-1.8,1.8-3.7,3.5-5.9,4.9c-1.6,1-3.4,1.8-5.4,1.9c-4.2,0.2-7.4-1.7-9.7-5.2c-2.4-3.8-3.5-8.1-3.9-12.5c-0.1-1.4-0.1-2.9-0.1-4.3
		c0.1-1.2-0.4-2-1.4-2.5c-1.3-0.7-2.7-1.5-4.1-2.1c-3.6-1.5-6.4-3.9-8.4-7.3c-0.2-0.3-0.4-0.7-0.9-0.9c-0.9,0.7-1,1.9-1.3,2.9
		c-2.3,7.1-6.3,13-12.1,17.7c-5.9,4.7-13.4,2.3-16.8-2.7c-2-3-3.6-6.2-3.8-9.7c-0.2-3.6-1.6-6-5-7.3c-1.6-0.6-2.8-1.8-4-3
		c-3.6-3.4-7.4-6.6-10.3-10.7c-0.5-0.7-1.1-1.1-2-1.1c-0.8,0-1.6,0-2.4,0c-165,0-329.9,0-494.9,0c-0.4,0-0.8,0-1.2,0
		c-1.7-0.2-2.7,0.5-3.8,1.9c-4.4,5.6-9.6,10.5-15.9,14c-1.5,0.8-2.3,1.7-2.5,3.5c-0.4,4.3-1.8,8.3-4.1,11.9
		c-2.7,4.3-8.1,6.5-12.6,5.3c-1.4-0.4-2.6-1.1-3.8-1.9c-6.2-4.4-10-10.4-12.5-17.5C191.6,724.9,191.3,723.7,190.5,722.4z"/>
</g>
<g>
	<path class="st0" d="M605.6,591c-0.5-0.5-1.2-0.7-1.8-0.5l0,0c-0.2,0.1-0.5,0.2-0.7,0.5l0,0c-0.7,0.7-1.1,1.5-1.6,2.3
		c-2.6,5.2-5.2,10.5-7.1,16.1c-2.3,6.9-5.2,13.7-8.2,20.4c-2.9,6.7-7.1,12.5-12.1,17.8c-1.6,1.6-3.2,3.3-4.7,4.9
		c-1,1.1-2.1,2.1-3.3,3.9l0,0c0.7-0.3,1-0.5,1.2-0.7l0,0c3.8-2.6,7.5-5.2,11.1-7.9c0.6-0.4,1.2-0.9,1.8-1.3c0.6-0.5,1.2-1,1.8-1.5
		c0.3-0.2,0.6-0.5,0.9-0.8l0,0l0,0c0.4-0.5,0.8-0.9,1.2-1.4l0,0c4.7-5.8,9.2-11.8,13.7-17.7c2.1-2.8,3.5-6.1,4.4-9.4
		c1.1-4.1,2.2-8.3,3-12.4c0.2-1.1,0.4-2.2,0.6-3.4c0.2-1.9,0.4-3.8,0.6-5.7c0.1-0.9-0.2-1.9-0.5-2.7
		C606,591.3,605.8,591.1,605.6,591z"/>
	<path class="st0" d="M406.1,659.9c-0.4-0.6-0.7-1.1-1.1-1.6c-1.3-1.7-2.5-3.4-3.7-5c-0.1,0-0.1-0.1-0.2-0.2c0-0.1,0-0.1,0-0.1
		c-0.2-0.4-0.6-0.9-0.8-1.3c0-0.2-0.1-0.2-0.2-0.3c-2.7-4.3-4.3-9.2-4.8-14.4c-0.3-2.7-0.7-5.3-1-8c-0.1-0.5-0.1-1-0.2-1.5
		c-0.1-0.7-0.2-1.4-0.2-2c-0.9-8.7-1.8-17.6-2.7-26.3c-0.2-2,0-4,0.9-5.9c1.3-2.7,1.6-5.6,1.2-8.6c-0.2-1.8-0.3-3.7-0.3-5.6
		c0-2.9,0.2-5.9,0.2-8.8c0-0.2,0.1-0.4,0-0.6c-0.1-0.2-0.3-0.2-0.7-0.2c-0.3,1.8-0.7,3.5-1,5.4c-0.9,5.4-2,10.8-4.4,15.8
		c-1,2-1.9,4.1-2.8,6.2c-3.3,7.8-3.9,15.8-2.7,24c1,7.2,3.3,14.1,5.9,20.8c0.5,1.4,1.1,2.6,2,3.8c1.3,2,2.9,3.9,4.8,5.6
		c3.4,3,6.8,6.1,10.1,9.2c1.1,1.1,2.4,2.1,3.4,3.1c0.2-0.2,0.2-0.4,0.2-0.7C407.5,661.8,406.8,660.9,406.1,659.9z"/>
	<path class="st0" d="M283.2,485c2.9-2.4,5.1-5.2,7.1-8.2c3-4.4,6-8.9,8.8-13.4c4.1-6.3,7.6-12.8,10.5-19.8c2-4.7,4.2-9.3,6.2-14
		c3.9-9.1,7.9-18.1,10.8-27.6c2.6-8.6,5.1-17.3,7.5-25.8c1.6-5.3,2.3-10.7,2.2-16.3c-0.1-2.9-0.1-5.9-0.2-8.7c0-1.5,0-2.9-0.1-4.5
		c0-1.5,0-2.9-0.1-4.4c0-0.7,0-1.3-0.1-2c0-0.1,0-0.1,0-0.2c-0.1-1.9-0.2-3.8-0.5-5.6c0-0.2-0.1-0.3-0.1-0.5
		c-0.3-2.5-0.8-5.1-1.4-7.6c-0.4-2-0.9-4-1.3-6c-0.7-3.1-1.3-6.2-1.9-9.3c-0.1-0.4-0.2-0.9-0.2-1.3c-0.1-0.5-0.2-0.9-0.2-1.4
		c-0.3-2.3-0.6-4.6-1.1-6.8c-2.9-15.1-6-30.2-9-45.3c-0.2-0.8-0.3-1.6-0.5-2.4c-0.2-1-0.4-2-0.6-2.9s-0.3-1.8-0.5-2.7
		c-0.1-0.3-0.1-0.6-0.2-0.9c-0.1-0.6-0.2-1.2-0.3-1.8c-0.1-0.3-0.1-0.7-0.2-1.1c-0.1-0.6-0.2-1.1-0.2-1.7c-0.1-0.3-0.1-0.7-0.2-1.1
		c-0.1-0.6-0.2-1.1-0.2-1.6c-0.1-0.4-0.1-0.7-0.1-1.1c-0.1-0.6-0.1-1.1-0.2-1.7c0-0.3-0.1-0.7-0.1-1.1c-0.1-0.7-0.1-1.2-0.2-1.9
		c0-0.3-0.1-0.6-0.1-0.9c-0.1-0.9-0.1-1.8-0.2-2.8c-0.1-1.5-0.1-3-0.2-4.5c0,0,0,0,0-0.1c0-3.1,0.1-6.2,0.3-9.3
		c0.2-1.5,0.3-2.9,0.3-4.4c0-0.2,0-0.5,0-0.8c0-0.2,0-0.6,0-0.8l0,0c0-0.2,0-0.5-0.1-0.7c0-0.2-0.1-0.5-0.1-0.7
		c-0.1-0.2-0.1-0.5-0.2-0.7c-0.3-1.2-0.7-2.5-1-3.7c-1.5-5.5-2.9-11-4.4-16.4c-0.4-1.4-0.7-2.8-1-4.1c-0.2-0.9-0.4-1.9-0.5-2.8
		c-0.2-1.5-0.4-2.9-0.6-4.3c-0.2-1.7-0.2-3.4-0.3-5.2c0-0.7,0-1.2,0-1.9c0.1-3.7,0.4-7.4,1.1-11.1c1.1-5.6,2.6-11.2,4-16.8
		c1.9-7.6,4.8-14.7,9.5-21.1c2.6-3.6,5.1-7.3,7.7-10.8c0.9-1.2,1.6-2.5,1.5-4c0-0.7,0-1.3,0.1-2c0.8-9.2,3.7-17.5,9.6-24.6
		c0.8-0.9,1.6-1.8,2.5-2.9c-0.9-0.6-1.6-1.1-2.3-1.4c-0.7-0.3-1.1-0.5-1.7-0.6c-0.2-0.1-0.5-0.1-0.7-0.1c-0.1,0-0.2,0-0.2,0
		c-0.2,0-0.3,0-0.5,0.1c-0.1,0-0.2,0-0.2,0c-0.5,0.1-0.9,0.3-1.5,0.6c-0.1,0.1-0.2,0.1-0.2,0.2c-0.2,0.1-0.4,0.2-0.6,0.3
		c-0.1,0.1-0.2,0.1-0.2,0.2c-0.3,0.2-0.6,0.4-0.9,0.7c-1,0.7-2,1.4-2.9,2.1c-0.3,0.2-0.6,0.5-0.9,0.7c-0.7,0.5-1.3,1.1-2,1.6
		c-0.3,0.2-0.7,0.5-1,0.8c-0.7,0.5-1.3,1.1-2,1.6c-0.3,0.2-0.6,0.5-0.9,0.7c-0.9,0.8-1.8,1.6-2.7,2.4c-0.7,0.7-1.4,1.3-2,2
		c-0.2,0.2-0.4,0.4-0.6,0.6c-0.5,0.5-1,1-1.5,1.5c-0.2,0.2-0.4,0.4-0.6,0.7c-0.7,0.7-1.3,1.4-2,2.1c-7.4,8.5-14.7,17-22,25.6
		c-7.8,9.3-15.9,18.5-23.1,28.3c-1.1,1.5-2.4,2.9-3.6,4.3c-8.8,10.5-18.4,20.5-26.6,31.7c-1.2,1.7-2.8,3.3-4.1,4.9
		c-4,4.7-7.9,9.4-11.9,14.1c-6.9,7.8-13.7,15.7-20.7,23.5c-1.2,1.4-2,2.8-2.5,4.5c-1.1,4.4-2.3,8.8-3.6,13.2
		c-0.2,0.6-0.3,1.1-0.5,1.7c-0.1,0.2-0.1,0.4-0.2,0.6c-0.1,0.4-0.2,0.8-0.3,1.1c-0.1,0.2-0.1,0.4-0.2,0.7c-0.1,0.3-0.2,0.7-0.2,1.1
		c-0.1,0.2-0.1,0.5-0.2,0.7c-0.1,0.3-0.2,0.7-0.2,1.1c0,0.2-0.1,0.5-0.1,0.7c-0.1,0.3-0.1,0.7-0.2,1.1c0,0.2-0.1,0.5-0.1,0.7
		c-0.1,0.4-0.1,0.8-0.1,1.2c0,0.2,0,0.4-0.1,0.6c0,0.6-0.1,1.2-0.1,1.8c0,0.7,0,1.3,0,2c0.2,8.6,0.3,17.1,0.8,25.7
		c0,0.2,0,0.6,0.1,0.8c0.5,9.1,1.1,18.1,2,27.2c1.4,12.8,3.3,25.5,5.5,38.2c0.2,1.1,0.3,2.1,0.6,3.3c0.9,5.4,1.6,10.8,2.2,16.2
		c1.1,8.9,1.9,17.8,3,26.7c1.5,11.9,4.9,23.3,9.6,34.3c0.2,0.5,0.4,1,0.7,1.5c0,0,0,0.1,0.1,0.1c0.7,1.6,1.6,3,2.5,4.5
		c1.9,3.3,3.8,6.5,5.8,9.6c2.3,3.6,4.6,7.3,7.1,10.7l0,0c1.1,1.4,2.2,2.8,3.4,4.1l0,0l0,0c0.5,0.5,1,0.9,1.5,1.4l0,0
		c3.8,3.4,7.7,6.7,11.7,9.8c3,2.5,6.2,4.7,9.6,6.3c2,1.1,4.3,1.8,6.5,2.4c0.4,0.1,0.8,0.2,1.2,0.4c0.2,0.2,0.3,0.2,0.3,0.1
		c0,0,0-0.1-0.1-0.2l0,0l0,0c0.5,0.2,0.9,0.4,1.4,0.7C276,483.9,279.6,484.3,283.2,485z M269.6,466.2c-0.1,0-0.2,0-0.2,0
		c-0.5,0-1-0.1-1.5-0.1c-0.7-0.1-1.2-0.2-1.9-0.2c-0.1,0-0.2,0-0.2,0c-3.4-0.5-6.6-1.6-9.8-3c-1.2-0.6-2.5-1.2-3.7-2
		c-6.1-3.8-11-8.6-15.1-14.2c-3.4-4.5-6.7-9.1-9.8-13.7c-1.6-2.5-3.1-5.2-4.3-7.9c-0.4-0.9-0.8-1.8-1.2-2.8s-0.7-1.9-1.1-2.8
		c-0.7-1.9-1.4-3.8-2-5.6c-0.3-1-0.7-1.9-1-2.9c0-0.1,0-0.1-0.1-0.2c-2.5-8-3.7-16.3-4.1-24.7c-0.2-5.9-0.7-11.8-1.1-17.7
		c-0.2-4.4,1.3-8.2,4.4-11.7c0.1-0.1,0.1-0.1,0.2-0.2c0-0.1,0.1-0.1,0.1-0.1c0,0.2,0.1,0.4,0.1,0.6l0,0c0.1-0.1,0.1-0.2,0.2-0.2l0,0
		l0,0l0.1-0.1l0,0c0,0,0,0,0.1-0.1l0,0c0,0,0-0.1,0.1-0.1c0.2,1.1,0.4,2,0.4,3.1c0.1,7.4,3.3,13.7,6.5,20c1.6,2.9,4.3,5.1,6.8,7.3
		c1.2,1.1,2.8,1.6,4.7,2c0.6,0.1,1.2,0.2,1.9,0.2c-4.8-3.4-7.4-7.5-9.5-11.9c-0.1-0.2-0.2-0.2-0.2-0.4c-0.2-0.2,0.1-0.7,0.1-1
		c0,0,0,0,0-0.1h0.1l0,0c0,0,0,0,0-0.1c0.2,0.1,0.2,0.2,0.4,0.2v0.2h0.1l0,0c0-0.1,0-0.1,0-0.1c3.4,1.6,6.8,3.2,10.2,4.7
		c1.6,0.7,3.2,1.2,4.9,1.6c1.6,0.2,3.3,0.3,4.9,0.2c0.1,0,0.2,0,0.2,0c0.1,0,0.1,0,0.2,0c3.9-0.4,7.4-2,10.5-4.3l0,0l0,0l0.1-0.1
		c2.3-1.7,4.4-3.7,6.6-5.6c0.3-0.3,0.7-0.7,0.9-1.2c0.2-0.2,0.2-0.4,0.5-0.7c-1.5,0.2-2.4,1-3.5,1.3c-1.5,0.6-3,0.7-4.7,0.5
		c-0.9-0.1-1.8-0.2-2.7-0.3c-6.2-1.1-11.6-4.3-17-7.4c-1.6-0.8-2.9-2-3.7-3.7c0.2-0.3,0.2-0.7,0.5-1c4.8-5.4,8.4-11.4,10.5-18.3
		c1.2-3.9,2.3-7.9,3.2-11.9c0.6-2.5,0.6-5.1,0.8-7.6c0.4-3.6,0.7-7.2,1.1-10.8c0-0.2,0.1-0.5,0.1-0.7c1.1-7.4,4.4-14.1,8.8-20.1
		c1.1-1.6,2.5-3.2,3.8-4.7c2.8-3.2,5.2-6.6,7.6-10.1c1.3-2,2.6-4,3.8-6.1c0.3-0.5,0.7-1.1,0.9-1.6c1.6-2.9,2.9-6,4.3-9.1
		c0.2-0.6,0.5-1.2,0.8-1.8c0.5-1.1,0.7-2.3,0.9-3.5c0,0,0,0,0-0.1c0.8-4.8,1.6-9.7,2.3-14.6c0.5-3.3,0.7-6.6,0.7-10
		c-0.1-10.9,0.8-21.7,2-32.5c0.4-3.6,0.7-7.2,1.1-10.8c0.2-1.2,0.2-2.4,0.4-3.6c0.2-1.7,0.4-3.4,0.7-5.2c1.7-11.2,3.9-22.4,7.9-33.1
		c0-0.1,0.1-0.2,0.1-0.2c2.5-6.5,6-12.4,9.2-18.5c0-0.1,0.1-0.1,0.1-0.2s0.1-0.1,0.2-0.1c0.2-0.2,0.5-0.3,0.9-0.7c0,0.1,0,0.2,0,0.4
		c0.1,0,0.2-0.1,0.2-0.1s0,0,0.1,0c0.1-0.1,0.2-0.1,0.2-0.2c0.1,1.8-0.6,3.1-1.1,4.5c-1.8,5.2-3.7,10.4-5.5,15.5
		c-1.4,4.1-2.4,8.3-3.1,12.5c-0.1,0.3-0.1,0.6-0.2,0.9c-0.7,4.3-1,8.7-1.1,13c-0.2,5.6-0.2,11.1,0.1,16.7c0.2,5.6,0.6,11.1,1,16.7
		c0.3,3.7,0.7,7.4,1,11.1c0.9,10.3,1.7,20.6,1.6,30.9c-0.1,4.4,0,8.8,0.2,13.2c0.1,2.9,0.5,5.8,0.8,8.7c0,0.2,0.1,0.4,0.1,0.7
		c0.7,6.5,1.5,12.9,2.5,19.3c0.1,0.2,0.1,0.2,0.1,0.3c2.2,12.9,4.9,25.8,8.1,38.5c3.3,13.2,5.2,26.7,5.2,40.4c0,0.4,0,0.9,0,1.3
		c-0.1,7.5-0.8,15-2.2,22.3c-0.1,0.6-0.2,1.1-0.3,1.6c-0.4,1.9-0.9,3.8-1.4,5.7c-0.1,0.3-0.2,0.7-0.2,1c-0.2,0.7-0.4,1.3-0.6,2
		c-1.1,4-2.3,7.9-3.4,11.9c-1.7,6-4,11.6-6.7,17.2c-0.2,0.3-0.4,0.7-0.6,1.1c-0.4,0.8-0.8,1.7-1.2,2.5c-0.3,0.7-0.7,1.6-1.1,2.3
		c-2.1,4.5-4.3,9-6.8,13.3c-2.3,3.8-5,7.2-7.9,10.5c-0.9,1-1.8,2-2.7,3l-0.1,0.1l0,0c-2,2.2-4.7,3-7.5,3.3
		C274,466.4,271.7,466.4,269.6,466.2z"/>
	<path class="st0" d="M352.5,369.3c-0.3,2-0.7,4.2-1,6.1s-0.7,4-1,6c-0.2,1-0.3,2-0.5,2.9c-0.5,2.9-0.9,5.9-1.4,8.8
		c-1,6.2-2.5,12.3-4.8,18.2c-0.3,0.9-0.7,1.9-1.1,2.9c-0.3,1-0.7,1.9-1,2.9c-0.7,1.9-1.3,3.8-1.9,5.7c-2.2,6.7-5,13.2-8.1,19.6
		c-1.6,3.1-3.3,6.1-4.8,9.2c-4.5,9.2-10.1,17.6-16.7,25.4c-3.3,4-6,8.3-8.7,12.5c-1,1.6-1.6,3.1-1.6,4.9c0,0.2,0,0.5,0.1,0.8
		c0,0.2,0,0.5,0,0.7c0,0.3,0,0.7-0.1,1.1c0,0.3-0.1,0.7-0.2,1.1c-0.7,4.7-1.4,9.3-2.2,13.9c-0.5,2.9-0.9,5.8-1.6,8.7
		c-2.5,9.8-6.5,19-12.1,27.4c-0.2,0.3-0.4,0.7-0.7,1.1c-0.1,0.1-0.1,0.2-0.2,0.3c-0.2,0.2-0.2,0.5-0.4,0.7c-0.1,0.1-0.1,0.2-0.2,0.3
		c-0.2,0.3-0.3,0.7-0.5,1.1c-0.2,0.4-0.3,0.8-0.4,1.2c-0.4,1.2-0.7,2.5-0.7,3.8c-0.1,0.4-0.1,0.9-0.1,1.3c0,0.2,0.1,0.4,0.2,0.6
		c0.1,0.1,0.1,0.2,0.2,0.3c0.1,0.2,0.2,0.3,0.2,0.5c0,0.1,0.1,0.1,0.1,0.2c4.5-1.3,7.5-4,9.6-8c2.7-5,5.3-9.9,7.1-15.3
		c1.4-4.3,2.5-8.7,3.8-13.1c0.2-0.7,0.1-1.6,1.2-1.6h0.1c0.3,3.9,0.7,7.8,1.1,11.6c1,9.4,2.7,18.6,6.5,27.2c0.3,0.7,0.7,1.4,0.9,2
		c0.7,1.6,1.5,3.3,2.3,4.9c0.7,1.4,1.3,2.9,2,4.3c1.1,2.3,2.2,4.6,3.3,6.9c0,0.1,0.1,0.1,0.1,0.2c0.1,0.2,0.2,0.3,0.3,0.5l0.1,0.1
		c0.2,0.2,0.4,0.4,0.6,0.6l0,0c-3-7.9-4.2-16.4-4.9-24.8l0,0c-0.2-1.5-0.2-3-0.3-4.5c0-0.4-0.1-0.9-0.1-1.3
		c-0.1-1.1-0.1-2.2-0.2-3.4c0-0.4,0-0.9-0.1-1.3c-0.1-1.5-0.1-3-0.1-4.5c0-1.6,0-3.4,0-5c0-4,0.2-8,0.3-12
		c0.6-11.4,0.9-22.7,1.3-34.1c0-0.6,0-1.1,0-1.6c0-0.2,0-0.6,0-0.8s-0.1-0.5-0.2-0.7c-0.3-0.9-1.1-1.6-1.8-2.6l0,0
		c1.6-2.5,3.2-5,4.9-7.4c2.3-3.3,4.3-6.8,6-10.4c2-4.5,3.9-9.1,6-13.6c4.9-10.3,8.7-20.9,11.9-31.9c1.7-6.1,3.9-12.3,5.2-18.6
		c1.6-8.8,2.6-17.7,3.8-26.6c0.2-0.8,0.2-1.6,0.2-2.5c0-0.4,0-0.9,0-1.3S352.6,369.8,352.5,369.3z"/>
	<path class="st0" d="M565.2,345.6C565.1,345.6,565.1,345.6,565.2,345.6L565.2,345.6L565.2,345.6L565.2,345.6z"/>
	<path class="st0" d="M647.3,194.8L647.3,194.8c-0.9-0.8-1.7-1.6-2.4-2.6c-2.5-3.5-4.7-7.1-7.2-10.5c-1.4-1.9-3.1-3.6-4.8-5.3
		c-1.6-1.6-3.4-3.1-4.7-4.9c-2.5-3.3-5.6-6.1-8.9-8.6c-1.9-1.5-3.9-2.8-5.8-4.3c-0.3-0.3-0.8-0.6-0.5-1.1c0-0.2,0-0.4,0.2-0.7h0.1
		l0,0c0,0,0-0.1,0.1-0.1h0.1c0.2,0.1,0.7-0.1,1.2-0.3c0.3-0.2,0.7-0.4,0.8-0.7c0-0.3-0.2-0.7-0.7-1.1c-0.2-0.2-0.5-0.3-0.7-0.4
		c-5-3-10.4-4.8-16.2-5.3c-1.3-0.1-2.5,0-3.8,0.2c-1.1,0.2-2.2,0.7-3.4,1.2c-5.1,2.5-9.3,6.1-14,9.3c-1,0.7-1.9,1.6-2.6,2.5
		c-1,1.1-2,2-3.4,2.7c-0.4,0.2-0.9,0.4-1.3,0.6c-0.3,0.1-0.6,0.2-0.9,0.4c-0.8,0.4-1.7,0.9-2.5,1.3c0,0-0.1,0-0.1,0.1h-0.1
		c-0.3,0.2-0.7,0.3-1.1,0.5c-2.7,1.5-4.8,3.6-6.5,6.1c-4.6,6.5-7.9,13.6-9.6,21.5c-0.3,1.7-0.8,3.4-1.5,5c-0.5,1.3-1.3,2.3-2.5,2.8
		c-0.3,0.2-0.7,0.3-1.1,0.5c-0.5,0.2-1.1,0.2-1.7,0.2c-0.9,0-1.9,0-2.5,0c-1.2-1.1-2.2-2.2-3.4-3.1c-1.2-1-2.6-1.8-4-2.6
		c-1.2-0.8-2.4-1.8-3.8-2.3c-6.2-2.5-12.7-3.2-19-1.3c-0.4,0.1-0.8,0.2-1.2,0.4c-2.9,1-5.7,2.3-8.5,3.5c-1.1,0.5-2.3,1.1-3.4,1.4
		c-0.4,0.1-0.7,0.2-1.1,0.2c-1.9,0.2-3.8,0.7-5.6,1.1c-0.6,0.2-1.1,0.3-1.8,0.6h-0.1c-2.5,0.8-4.7,0.3-6.9-1.1
		c-1.2-0.8-2.3-1.9-3.4-2.8c-0.8-0.7-1.8-1.1-2.8-1.6c-0.6-0.2-1.1-0.3-1.6-0.2c-0.2,0-0.2,0.1-0.4,0.2c-0.2,0.1-0.2,0.2-0.3,0.2
		c-2.7,2.1-5.7,4.1-6.9,7.6c-0.2,0.7-0.5,1.2-0.9,1.8c-0.3,0.5-0.7,0.9-1.2,1.1c-0.2,0.1-0.3,0.2-0.5,0.2c-1,0.3-2.1,0.1-2.9-0.9
		c-0.3-0.4-0.6-0.9-0.8-1.4c-1.4-2.6-3.3-4.5-6.1-5.4c-2-0.7-3.5-1.9-4.3-3.9c-0.2-0.7-0.4-1.6-0.6-2.3c-0.8-4.3-2.1-8.3-4.6-11.9
		c-0.3-0.5-0.5-1.1-1.1-2.4c0.1,0,0.1,0,0.1,0.1l0,0c0.1,0,0.1,0,0.2,0.1c0-0.1,0-0.1-0.1-0.2c0.1,0,0.1,0,0.1,0.1v-0.1
		c0,0,0,0,0.1,0c0-0.1-0.1-0.2-0.2-0.3c0.1,0,0.1,0,0.1,0v-0.1h0.1l0,0c0,0,0,0,0.1,0v-0.1c1.3,0.6,2.2,0.9,3.1,1.4
		c-0.2-0.6-0.2-1-0.3-1.4c-1.3-2.7-3.3-4.9-5.3-7c-5.5-5.7-11.5-10.7-17.8-15.5c-3.3-2.5-5.5-5.3-5.7-9.6c-0.1-0.8-0.1-1.6,0.1-2.3
		c0.2-1.2,0.7-2.4,1.6-3.4c1.8-1.9,3.8-3.4,6-4.5c0.7-0.4,1.6-0.7,2.4-1c1-0.4,2.1-0.6,3.3-0.7c1-0.1,1.9-0.2,2.9-0.5
		c0.7-0.2,1.6-0.6,2.3-0.9c-0.9-0.8-1.6-1.5-2.6-2.3c0.1-0.1,0.2-0.2,0.3-0.2c-0.1-0.1-0.2-0.2-0.2-0.2c0.9-0.8,1.8-1.6,2.7-2
		c0.6-0.3,1.1-0.5,1.8-0.7c0.5-0.2,1.1-0.2,1.6-0.2c3,0,6.2-0.2,9.2,0.6c8,2.1,16.2,2.5,24.3,1.2c7-1.1,13.9-2.7,20.8-4.2
		c0.2-0.1,0.5-0.1,0.7-0.2c0.7-0.2,1.3-0.3,1.9-0.6c1-0.5,1.7-1.1,2.2-2.4c0.2-0.3,0.7-0.5,0.9-0.8c0.8-1,1.9-1.6,2.9-2.2
		c1.1-0.6,2.2-1,3.4-1.5c3.4-1.6,6.6-3.1,10.1-4.2c0.5-0.2,1.1-0.2,1.6-0.4c7.7-1.9,14.6-0.5,20.5,5c2.4,2.2,4.2,4.8,5.4,7.8
		c0.5,1.2,1,2.5,1.5,3.8c0.7,1.9,2,3.5,4,4.3c5.1,1.8,10.1,3.4,15.7,2.1c0.2-0.1,0.5-0.1,0.7-0.2c0.7-0.2,1.2-0.3,1.8-0.6
		c0.9-0.4,1.6-1,2.3-1.9c0.9-1.1,2-2,3.1-2.6c0.7-0.4,1.5-0.7,2.3-0.8c0.3-0.1,0.7-0.1,1-0.2c4.7-0.7,8.4,2.2,9,6.9
		c0.1,0.5,0.2,1,0.2,1.5c0.7,0.1,1.1,0.1,1.6-0.1c0.2-0.1,0.3-0.2,0.5-0.2c0.5-0.2,1-0.7,1.5-0.9c0.6-0.3,1.1-0.7,1.6-0.9
		c1.5-0.8,3-1.4,4.6-1.9c2.1-0.6,4.3-0.9,6.6-0.8c4.5,0.1,8.7,0.9,12.8,2.8c1.8,0.8,3.7,1.5,5.6,2c2.9,0.7,5.8,1.1,8.7,1.6
		c0.5,0.1,0.9,0.1,1.3,0c0.2-0.1,0.5-0.2,0.7-0.3c0.2-0.2,0.4-0.4,0.7-0.7c-2.1-4.7-3.4-9.7-6.6-13.8c-3.4-4.2-6.8-8.1-10.3-12.3
		c0.1-0.1,0.2-0.1,0.3-0.2h0.1c-0.1-0.1-0.2-0.2-0.3-0.3c0.1,0,0.2,0,0.2-0.1l0,0c0.2-0.1,0.4-0.1,0.7-0.2c1.5-0.3,2.8,0.1,4.1,0.7
		c2,1,3.5,2.4,5,4c0.3,0.2,0.7,0.4,1.1,0.7c0-2-0.9-3.4-1.7-4.8c-1.6-2.7-3-5.3-4.7-7.9c-0.8-1.2-1.7-2.4-2.7-3.4
		c-3.4-3.4-7.2-6-11.7-7.6c-2-0.7-4-1.5-6.1-2.3c0.1-0.2,0.1-0.3,0.2-0.5H598c0.3-0.8,0.5-1.4,0.7-2c0.3-1,0.6-2,0.7-2.9
		c1.1-6.8-2.8-12.8-10.1-14.9c-1.6-0.5-3.4-0.8-5.2-1.1c-1.6-0.2-3-0.8-4.3-2c-1-1-2.5-1.6-3.8-2c-2.9-1.1-5.7-1.1-8.6-0.3
		c-0.4,0.1-0.7,0.2-1.1,0.3c-0.7,0.2-1.5,0.5-2.1,0.7c-2.2,0.7-4.5,1.3-6.8,1.8c-5.5,1.1-11,1.9-16.6,3c-8.7,1.9-17.6,3.5-26.6,3.8
		c-6.7,0.2-13.4-0.2-19.9-2.1c-6.7-2-13.5-3.2-20.4-4.7c-9.7-2.1-19.6-2.8-29.5-2.9c-2.7-0.1-5.3,0.2-8,0.7
		c-0.7,0.1-1.2,0.2-1.9,0.3c-1.3,0.3-2.6,0.7-3.8,1.3c-0.4,0.2-0.8,0.5-1.2,0.7c0.7,1.4,2.9,1.4,2.9,3.3c0,0.1-0.1,0.1-0.1,0.1
		c0,0.1,0,0.2,0,0.4c-0.2,0.2-0.5,0.4-0.7,0.6s-0.5,0.2-0.7,0.2c-0.7,0.2-1.5,0.1-2.2,0.1c-2.6-0.1-5.2,0.1-7.7,0.7
		c-0.8,0.2-1.6,0.5-2.5,0.8c-0.3,0.2-0.7,0.2-1,0.3c-1,0.2-2,0.3-2.9,0.7c-3.7,1.2-7.4,2.4-11,3.8c-0.3,0.1-0.6,0.2-0.8,0.4
		c-2.1,1.1-3.8,2.9-5.1,5.2c-1.3,2.5-2.9,4.7-4.5,7.1c-1.4,2.1-2.9,4.2-4.3,6.3c-1.7,2.6-2.8,5.5-3.4,8.4c-0.2,0.9-0.2,1.9-0.3,2.9
		c-0.2,2.6-0.1,5.3,0,8c0.1,2.3,0.7,4.5,1.7,6.5c0.7,1.4,1.8,2.3,3.4,2.3c1.9,0,3.8,0.1,5.6,0c1.3-0.1,2.4,0.2,3.2,1.2
		c0.8,1,1.7,2,2.2,3.3c0.8,1.9,1.3,3.8,1.9,5.7c0.5,1.6,0.5,2.9,0.2,4.2c-0.3,2.2-1.6,4.1-3.4,5.6h-0.1l-0.1,0.1h-0.1
		c-0.1,0-0.2,0-0.2,0c-1.5,0.2-3.7,1.6-5.6,3.4c-1.4,1.4-2.5,2.9-2.9,4.3c-0.1,0.7,0.2,1.4,0.9,1.8c0.5,0.2,0.9,0.4,0.7,1.1
		c0,0.2,0,0.3-0.2,0.7l0,0c0,0,0,0.1-0.1,0.1h-0.1c-0.1,0-0.1,0-0.2,0c-1,0.1-2,0.8-3.1,1.8c-2.2,2.2-4.1,5.5-4.3,5.6
		c0,0,0,0-0.1,0.1l0,0c-4,3.5-8,7.1-12,10.6c-0.6,0.5-1.1,1.1-1.7,1.6c-3.8,3.8-7.1,8-10.5,12.1c-0.6,0.7-1.1,1.6-1.5,2.4
		c-3.9,6.9-6.5,14.4-8.3,22.1c-0.2,0.9-0.1,1.7,0.2,2.6c0.4,2.4,1.7,4.2,3.7,5.5c3.2,2.2,6.4,4.4,9.6,6.5c2.9,2,5.8,4.3,9.1,5.9
		c10.8,5.2,22.1,8,34.2,6.8c0.6-0.1,1.1-0.2,1.6-0.2c0.9-0.2,1.7-0.7,2.5-1.2c0.2-0.2,0.4-0.4,0.7-0.7c0.2-0.3,0.6-0.6,0.8-0.8
		c0.9-0.8,1.9-1.4,3-1.7c0.9-0.2,1.8-0.3,2.8-0.3s2-0.4,3.1-0.6c0.7-0.1,1.3-0.1,2.5-0.2c-0.1,0.2-0.2,0.3-0.2,0.5
		c0.1,0,0.1,0,0.2,0c-1.3,3.2-3,5.7-3.9,8.6c1.7,1.2,2.8,1.6,4,1.2c0.4-0.2,0.8-0.3,1.2-0.7c2.5-1.8,4.9-3.8,7.1-6.1
		c2.2-2.2,4.1-4.7,5.8-7.4c0.8-1.4,1.3-2.9,1.9-4.4c0.2-0.2,0.2-0.5,0.2-0.8s0.1-0.7,0.1-1.1c0.2-1.7-0.4-3.2-2-4
		c-2.8-1.3-4.7-3.4-6.4-6c-0.5,0.4-1,0.7-1.3,1c-0.7,0.7-1.2,1.3-1.9,2c-4.6,4.6-9.9,8.3-14.8,12.5c-1,0.9-2.2,1.6-3.3,2.3
		c-2.5,1.6-5.2,2.8-7.8,3.4c-4.4,1.1-9,0.8-13.7-1.1c-3.5-1.4-7-2.6-10.5-3.9c-7.7-2.9-14.6-7.1-21.2-12.1c-0.7-0.6-1.5-1.1-2.1-1.9
		c-1.7-2-2.7-4-2.2-6c0.2-1.2,0.8-2.5,2.2-3.9c0.5-0.5,0.9-1,1.4-1.5c1.2-1.2,2.1-2.7,2.9-4.3c1.4-2.6,3-5.1,4.7-7.4
		c1.3-1.9,2.9-3.4,4.3-5.3c1-1.5,2-2.7,3.2-3.9c3.4-3.5,7.8-5.7,12.7-7.2c0.4-0.1,0.8-0.2,1.2-0.3c2.7-0.7,5.5-1.1,8.3-0.7
		c2.2,0.4,4.4,0.8,6.7,1.1c6.5,0.9,12.3,3.5,17.6,7.4c1.4,1.1,2.7,2.2,4.1,3.3c0.2,0.2,0.8,0.5,1.7,0.9c0.9-0.2,1.4,0.1,1.9,0.7
		c0.1,0.1,0.1,0.1,0.1,0.1c1.6,0.7,3.4,1.1,4.4,0.7c0.1-2.9-0.3-5.7-2-8.3c-2.2-3.5-4.5-6.9-6.7-10.5c-0.2-0.2-0.2-0.7-0.4-1.6
		c0.1,0,0.1,0.1,0.1,0.1v-0.1l0,0v-0.1c0.1,0,0.1,0.1,0.1,0.1v-0.1l0,0c0-0.1-0.1-0.2-0.1-0.4h0.1v-0.1l0,0l0,0l0,0l0,0
		c0,0,0,0,0.1,0v-0.1c1.1,0.7,1.7,1.1,2.3,1.6c2.5,2.2,5,4.6,7.5,6.7c2.3,2,4.2,4.3,5.4,6.9c0.7,1.5,1.5,2.9,2.3,4.3
		c1.3,2.2,2.3,4.6,2.9,7c0.8,3.1,1.6,6.3,2.2,9.4c0.3,1.6,1,2.7,2.2,3.7c1.9,1.6,3.7,3.2,5.5,4.7c3.3,2.7,4.7,6.1,4,10.3
		c0,0.3-0.1,0.6-0.2,0.9c0,0.2-0.1,0.3-0.1,0.5c-0.2,2,0.1,3.8,0.9,5.6c0.4,1,0.7,2,1,3c0.5,1.6,1.3,2.9,2.4,4.2
		c1.5,1.7,2.9,3.6,3.9,5.6c2.9,5.7,4.3,11.9,3.9,18.2c-0.1,0.7-0.2,1.6-0.3,2.4c-0.2,0.8-0.4,1.6-0.7,2.4c-1.1,2.2-1.7,4.5-2.3,6.8
		c-0.2,0.5-0.6,1-1.1,1.7l0,0c0,0.1-0.1,0.1-0.1,0.1v-0.1l-0.1,0.1c-0.6-2.4-0.6-4.5-1.5-6.2c-1.6-2.9-2.6-5.9-3.8-8.8
		c-0.1-0.2-0.5-0.4-0.8-0.7c-0.2,0.2-0.3,0.3-0.4,0.6c-0.2,0.8-0.3,1.7-0.5,2.5c-1,5.9-1.6,11.8-1.6,17.7c0,9.1-0.3,18.1-1.3,27.2
		c-0.7,6.4-1.6,12.8-2.4,19.1c0,0.2,0,0.6-0.1,0.8c-0.1,0.2-0.1,0.6-0.4,0.8c-0.1,0.1-0.2,0.2-0.3,0.2c-0.1,0-0.2,0.1-0.2,0.1
		c-2.2-1.9-4-4-4.9-6.9c-0.2-0.6-0.2-1.6-1.4-1.6c-0.2,0.7-0.3,1.4-0.5,2.2c-0.1,0.9-0.1,1.7-0.2,2.6c0,0.5-0.1,0.9-0.2,1.3
		c-0.2,0.4-0.2,0.9-0.3,1.3c-0.6,3-0.2,6,0,9c0.2,2,0.4,4.1,0,6c0,0.1,0,0.2-0.1,0.2c0,0.1,0,0.2,0,0.2c-0.8,4.3-2,8.6-3.1,12.8
		c-0.2,0.9-0.7,1.7-1.1,2.5c-0.5,0.8-0.9,1.6-1.3,2.5c-0.1,0.2-0.2,0.4-0.3,0.6c-0.4,0.8-0.8,1.6-1.1,2.4c0.2,0.7,0.5,1.4,0.7,2
		c2,4.7,4.6,7.9,8.1,9.2c0.1,0,0.6,0.2,0.7,0.2l-0.1,0.2l0,0c0.2-0.2,0.2-0.6,0.3-0.7c1.1-2.9,2.7-5.3,4.7-7.4
		c0.7-0.7,1.5-1.3,2.3-1.9c5.7-4.2,11.6-8.2,17.4-12.3c0.1,0,0.1,0,0.1,0c0.6-0.4,1.2-0.6,1.9-0.7c2.3-0.7,4.7-1.3,6.9-1.9
		c12.3-2.9,24.8-4.3,37.4-3.7c2.5,0.1,4.8,0.4,7.1,1.1c6.5,2.1,12.9,4.9,19.2,7.9c5.3,2.6,9.5,6.5,13.4,10.6c2,2.1,3.4,4.4,4.5,6.9
		c1.5-0.2,3.3-0.7,5.6-0.9c2-0.2,4.3-0.2,7.3,0.1c0-0.2,0-0.4,0.1-0.5c0.2-1.4,1.1-2.1,2-2.3h0.1c0.1,0,0.2-0.1,0.2-0.1
		c0.7-0.2,1.6,0,2.5,0.7c0.7,0.6,1.3,1.2,2,1.9c0.1,0.1,0.1,0.1,0.1,0.1c0.5,0.5,1,0.9,1.5,1.4c0.2,0.2,0.7,0.4,1.1,0.6
		c0.1-0.1,0.1-0.2,0.2-0.2c-0.1-0.7-0.2-1.5-0.2-1.6c-2-10.2-3.7-20.5-7-30.5c-1.6-4.6-2.7-9.2-5.3-13.4c-3.1-4.9-5.9-9.9-8.3-15.1
		c-0.2-0.4-0.5-0.9-1-1.6c-0.1,0.4-0.2,0.8-0.3,1.2c-0.2,1.4-0.4,2.7-0.5,4c-0.8,9.6,1.4,18.6,5.2,27.2c-0.1,0-0.2,0-0.2,0
		c0,0.1,0,0.1,0,0.1v0.1c0,0.1-0.1,0.2-0.1,0.3c0.1,0.1,0.1,0.2,0.2,0.3c-0.1,0-0.2,0-0.2,0s0,0,0,0.1v0.1c-0.1,0.2-0.1,0.4-0.2,0.7
		c0-0.2,0.1-0.4,0.1-0.7c-0.1,0-0.2,0-0.2,0l0,0v0.2c-0.1,0.2-0.1,0.4-0.2,0.7c0-0.2,0.1-0.4,0.1-0.7c-1.2,0.1-1.5-0.9-2-1.7
		c-2.6-4.7-5.2-9.4-7.7-14.1c-0.7-1.3-1.3-2.7-1.7-4.1c-2-7.3-3.3-14.6-3.1-22.2c0.2-5.3,0.7-10.6,1.1-16c0.1-1.3,0.2-2.7,0.1-4
		c-0.9-7.1-0.3-14.1,0.4-21.3c0.2-2.1,0.3-4.3,0.3-6.4c0-1.9-0.2-2.5-1.5-4.3c-1.7,3-2.6,6.2-3.4,9.6c-0.2,1.1-0.4,2-0.6,3.1
		c-0.1,0.2-0.1,0.6-0.2,0.8c-0.1-0.1-0.1-0.2-0.2-0.2c0,0.1,0,0.2-0.1,0.3c0,0,0-0.1-0.1-0.1c0,0.1,0,0.1,0,0.2
		c-0.1-0.1-0.1-0.2-0.2-0.2c0,0.1,0,0.2-0.1,0.3c-0.4-0.7-0.7-1.5-0.8-2.2c-0.2-3.5-1.1-6.9-1.6-10.3c-0.6-4.5-0.7-9,0.2-13.5
		c0.2-1.5,0.7-2.9,1.1-4.4c0.3-1.1,0.7-2.3,0.9-3.4c0.7-3.7,0.9-7.4,1-11.1c0-1.1,0.1-2,0.4-3c0.1-0.5,0.2-0.9,0.3-1.3
		c0.4-1,1.1-1.6,1.8-2c0.3-0.2,0.7-0.3,1-0.3c1.2-0.2,2.6,0.2,3.5,1.5c0.5,0.7,0.7,1.4,1.1,2.1c0.4,1.1,0.7,2.3,1.2,3.4
		c1.7,4.1,3.8,7.9,7.5,10.7c3.4,2.5,6.8,4.7,10.7,6.2c8,3,16.3,5.2,24.2,8.5c0.8,0.4,1.8,0.5,2.7,0.7c4.1,0.7,8.2,1.6,12.3,2.2
		c1.9,0.2,3.8,0.2,5.6-0.2s3.5-1.1,5.2-2c0.2-0.2,0.3-0.4,0.4-0.7c-4.5-0.4-8.2-2-11.6-4.3c-2-1.2-3.5-2.9-4.7-4.9
		c-0.8-1.5-1.1-3-0.9-4.7c0-0.2,0.1-0.5,0.2-0.7v-0.1c0.2-1.5,0.8-2.5,1.8-3.3c0,0,0.1,0,0.2,0c0.1-0.1,0.1-0.1,0.2-0.2
		c0,0,0.1,0,0.2,0c0.6-0.1,1.2-0.2,1.8-0.3c0.7-0.2,1.3-0.3,2-0.5c0.1-0.1,0.1-0.1,0.2-0.1c0.2,0,0.3,0,0.5,0c0.7,0,1.2,0,1.8-0.2
		c0.4-0.1,0.8-0.2,1.2-0.5c0.4-0.2,0.9-0.6,1.3-0.8c0.2-0.2,0.4-0.3,0.7-0.5c0.1-0.1,0.2-0.1,0.2-0.2c0,0,0,0,0.1,0
		c0.3-0.2,0.7-0.3,1.1-0.5c4.4-2.2,8.6-4.8,12.4-8c3.8-3.5,7-7.4,9.7-11.7c0.6-1.1,1.2-2.2,1.8-3.4c0.6-1.1,1.1-2.3,1.6-3.4l0.9-2.6
		c0.2-0.2,0.2-0.2,0.3-0.4v-0.2L647.3,194.8C647.3,194.9,647.3,194.9,647.3,194.8z M643.5,200.4c-0.4,0.6-0.7,1.2-1.1,1.8
		c-0.1,0.1-0.2,0.2-0.2,0.2c-0.3,0.4-0.7,0.9-1.1,1.4c-0.1,0.2-0.2,0.2-0.2,0.4c-0.1,0.1-0.1,0.2-0.2,0.2c0,0.1-0.1,0.1-0.1,0.1
		c-1.5,0.8-2.1,2.5-3.1,3.8l-0.1,0.1c-1,1.1-2,2.2-3,3.2c-0.5,0.5-1.1,1-1.6,1.5c-0.6,0.5-1.1,1-1.6,1.5c0,0,0,0-0.1,0
		c-0.3,0.3-0.7,0.6-1,0.9c0,0,0,0-0.1,0c-3,2.3-6.3,4.3-9.7,6c-4.7,2.4-9.9,3.3-15.1,3.8c-0.7,0.1-1.5,0.1-2.1,0.2
		c-1.4,0.1-2.8,0.1-4.1,0.1c-0.7,0-1.4,0-2.1,0.1c-0.7,0-1.3,0-2,0c-4.5-0.2-8.7-1.4-12.8-3.2c-2.5-1.1-4.9-2-7.4-3.1
		c-0.7-0.2-1.4-0.6-2-0.9c-1.9-0.9-3.7-2-5.3-3.5c-0.1-0.2-0.2-0.2-0.3-0.4c-0.2-0.1-0.2-0.2-0.4-0.2l0,0c-0.2-0.1-0.5-0.2-0.7-0.2
		l0,0c-2.5-1.1-2.9-3.4-2.9-6c0-0.3,0.1-0.7,0.2-1c0.2-1,0.6-2,0.9-2.9c2.8-6.5,5.9-12.9,10.5-18.4c3.4-4.1,7.2-7.8,10.9-11.8
		c0.3-0.2,0.7-0.5,1-0.7c6.7-4,13.2-6.4,19.9-6.3c2.7,0,5.4,0.5,8.2,1.4c0.3,0.1,0.7,0.2,1.1,0.3c3.4,1.2,6.8,3.1,10.3,5.8
		c2,1.6,3.7,3.5,5.3,5.4c3,3.4,6,6.9,8.9,10.3c1.2,1.4,2.4,2.9,3.4,4.5C644.8,196.6,644.7,198.5,643.5,200.4z"/>
	<path class="st0" d="M708.7,576.4c-0.1-1-0.2-2-0.3-3c-0.6-4.4-1.2-8.9-2-13.2c-0.7-4.5-1.4-9-2.5-13.4c-2-7.8-3.4-15.9-4.3-24
		c-0.4-3.6-1.3-7-3.4-10.1c-0.3-0.5-0.7-1-0.9-1.5c-0.8-1.5-1.6-3-2.1-4.6c-0.7-2.1-1.1-4.3-1.3-6.7c0-0.1,0-0.1,0-0.2
		c-0.1-1.1-0.3-2-0.7-3c-0.2-0.5-0.3-1-0.5-1.5c-0.8-2-2-4.1-2.9-6.1c-1.3-3.1-2.7-6.1-3.9-9.2c-1.4-3.5-2.5-7.1-3.8-10.6
		c-0.4-1.1-0.7-2.1-1.1-3.2c-1.1-3.7-2.1-7.4-2.7-11.3c-0.1-0.2-0.1-0.5-0.1-0.7c-0.2-1.5-0.4-3-0.5-4.5c0-0.1,0-0.2,0-0.2
		c0-0.2,0-0.3,0-0.5l0,0c-0.2-2.4-0.3-4.7-0.4-7c-0.2-2.4-0.2-4.7-0.3-7.1c-0.1-3.2-0.2-6.4-0.2-9.6s0-6.5,0.2-9.7
		c0.1-1.6,0.2-3.3,0.2-4.9c0.9-15,2.3-30.1,3.4-45.2c0.2-3.7,0.2-7.3,0.2-10.9c0-0.1,0-0.2,0-0.2c0-0.4,0-0.9-0.3-1.3
		c-0.2-0.2-0.3-0.2-0.6-0.3c0,0.2-0.1,0.5-0.1,0.7s-0.1,0.4-0.1,0.7c-0.2,4.4-0.4,8.8-0.8,13.2c-0.4,4.7-1.2,9.3-1.7,13.9
		c-1,8-1.8,15.9-2.7,24c-1.3,11.3-2.2,22.6-2.8,34c-0.1,1.1-0.1,2.3-0.2,3.4c-0.1,1.1-0.1,2.3,0,3.4c0,3.8,0.2,7.4,0.8,11.2
		c0.1,0.7,0.2,1.4,0.3,2s0.2,1.4,0.3,2c0.7,4.1,1.3,8.1,2.7,12c1.1,3,1.9,6.1,3,9.2c0.7,1.8,1.3,3.6,2,5.3c0.4,1.1,0.9,2.2,1.4,3.3
		c0.1,0.2,0.2,0.5,0.3,0.7c2.5,5.5,5.6,10.7,9.2,15.5c1.2,1.6,1.7,3.1,1.6,5c0,0.2,0,0.6-0.1,0.9c-0.7,6.8-1.1,13.6-1.6,20.4
		c0,0.3,0,0.7,0,1c0,1.5,0.2,2.9,0.8,4.3c0.2,0.4,0.3,0.8,0.6,1.2c0.2,0.2,0.3,0.6,0.5,0.8c0.7,1.1,1.4,2.3,2.2,3.4
		c2.9,4.1,5.2,8.4,6.7,13.2l0,0l0,0c1.6,4.8,3.2,9.6,4.3,14.6c2.9,12.9,3.2,25.8-1.8,38.3l0,0c-0.2,0.7-0.4,1.5-0.7,2.2l0,0
		c0.1,0,0.2-0.1,0.2-0.1c2.9-5.2,5.1-10.6,6.1-16.4c0.6-3.2,0.8-6.4,0.9-9.6c0-1.8-0.1-3.6-0.2-5.3
		C709,579.3,708.8,577.8,708.7,576.4z"/>
	<path class="st0" d="M460.5,154c-0.2-0.3-0.6-0.6-0.8-0.8c-0.1-0.1-0.2-0.2-0.2-0.2c-0.2-0.2-0.4-0.3-0.7-0.5
		c-0.1-0.1-0.2-0.2-0.2-0.2c-0.3-0.2-0.6-0.4-0.9-0.5c-0.3-0.2-0.7-0.3-1.1-0.4c-0.2-0.1-0.5-0.1-0.7-0.2c-0.2,0-0.5-0.1-0.8-0.1
		c-0.7,0-1.4,0-2.1,0.2c-1.1,0.2-2.2,0.3-3.4,0.3c-0.4,0-0.7,0-1.1-0.1c-0.1,0-0.2,0-0.3,0c-0.2,0-0.4,0-0.7,0s-0.4,0-0.6,0.1
		c-0.4,0.1-0.7,0.2-1.1,0.3c-0.3,0.2-0.7,0.3-0.9,0.5l0,0c-1.5,1-2.3,2.8-2.3,4.9l0,0c0,1,0.2,1.9,0.5,2.8c0.7,2.2,1.8,4.3,3.5,5.8
		c1.8,1.6,3.3,3.4,4.7,5.4c2.3,3,5.5,4.6,9.1,5.5c0.1,0,0.2,0.1,0.4,0.1c0.3,0.1,0.7,0.1,1,0.1c1,0,1.9-0.2,2.6-0.8
		c0.3-0.2,0.6-0.6,0.8-1c1.1-2,0.5-4.7,2.3-6.6c0.3-0.3,0.2-1,0.2-1.3c0-2.5-1.6-6.6-3.4-8.7C463.2,157,461.8,155.4,460.5,154z"/>
	<path class="st0" d="M815.4,264.3c-0.5-3.8-1-7.5-1.6-11.2c-0.6-3.6-1.2-7.2-2-10.7c-0.1-0.2-0.1-0.6-0.2-0.8
		c0-0.1-0.1-0.2-0.1-0.3c-0.6-2.5-1.1-4.8-1.8-7.3c-0.2-0.6-0.3-1.2-0.6-1.8c-0.7-2.1-1.7-4.2-2.8-6.1c-1.5-2.5-3.1-4.9-4.8-7.3
		c-0.3-0.5-0.7-1-1.1-1.6c-0.8-1.1-1.6-2.2-2.5-3.4c-0.3-0.4-0.7-0.9-1-1.3c-2-2.9-4.3-5.6-6.7-8c-1.5-1.5-3-2.9-4.7-4.2
		c-5.6-4.3-11-8.9-15.9-13.8c-3-2.9-5.9-6-8.7-9.3c-0.3-0.4-0.7-0.8-1.1-1.2c-1.2-1.2-2.5-2.3-3.8-3.4c-9.5-7.7-19-15.3-28.5-23
		c-0.6-0.5-1.3-0.9-2.2-1.5c-0.3,1.3-0.7,2.3-0.8,3.3c-0.7,4.8-1.1,9.6-1.7,14.4c-0.3,2.5-0.1,5.1,0.4,7.6c1.1,5.6,2.1,11,2.9,16.6
		c1.1,8.7,1.1,17.7,1.3,26.5c0,1.2,0,2.5-0.2,3.6c-0.7,7.4-1.4,14.6-2.3,22c-0.8,6.9-1.9,13.8-3.9,20.4c-1.4,4.3-1.7,8.6-0.8,13.1
		c0.2,1.1,0.2,2.1,0.3,3.2c0.2,1.4,0.3,2.7,0.5,4.1c0.2,1.1,0.3,2.2,0.5,3.4c0.2,1.1,0.4,2.2,0.7,3.3c2.3,9.3,4.8,18.6,7.3,28
		c0.7,2.5,1.5,4.7,2.6,6.9c0.4,0.7,0.8,1.4,1.2,2.1s0.8,1.3,1.3,2c1.1,1.6,2.4,3.3,3.5,4.9s2.4,3.1,3.8,4.4c2.3,2.2,5,4,8,5.5
		c2.9,1.4,5.6,3.2,8.2,5.1c0.8,0.6,1.6,1.2,2.3,2c0.7,0.7,1.4,1.5,2,2.2c0.7,0.8,1.1,1.7,1.6,2.6c0.4,0.8,0.8,1.7,1.2,2.7
		c0.7,1.6,1.2,3.3,1.8,4.9c0.3,1,0.7,2,1.1,2.9c0.4,0.9,0.9,1.7,1.5,2.5c0.9,1.4,2,2.7,3.2,3.8c1.2,1.1,2.5,2.2,4,3.2
		c2,1.3,4.2,2.3,6.3,3.4c0.9,0.5,1.8,1,2.9,1.6l0,0c0,0,0.1,0,0.1,0.1v0.1c0,0.1,0.1,0.1,0.1,0.1c-0.2,4.6-0.9,8.9-2.2,13.2
		c-2,6.8-5.8,12.3-12.1,15.9c-1.9,1.1-3.8,2-5.6,3.1c-0.6,0.3-1.1,0.7-1.9,1.1c1.6,0.3,2.7,0.1,3.9-0.2c4.3-1.4,8.3-2.9,12.6-4.2
		c3.7-1.1,6.8-3.2,9.4-6c0.6-0.6,1.1-1.1,1.6-1.7c0.2,0,0.5,0.1,0.7,0.2v0.1h0.1c0,0.1,0,0.1,0,0.2h0.1c-0.2,1.1-0.3,2.4-0.6,3.5
		c-1.2,5.1-3.7,9.7-5.7,14.6c-0.6,1.3-1.6,2.5-2.6,3.5c-2.3,2.2-4.7,4.3-7.2,6.4c-0.5,0.4-0.9,0.8-1.7,1.6c2.5-0.6,4.3-1.6,6-2.5
		c2.9-1.7,5.8-3.4,8.7-5.2c0.6-0.3,1.2-0.7,2,0l0,0c0,0,0.1,0,0.1,0.1v0.1l0.1,0.1c-1.6,4.7-3.8,9.1-6.3,13.3
		c-2.4,3.9-4.5,7.9-6.1,12.2c-1.4,3.4-3.1,6.5-5.3,9.4c-1.4,1.8-2.8,3.6-4.1,5.5c-6.2,9.2-15,15.6-24.2,21.3
		c-5.1,3.2-10.9,4.2-16.6,2c-4.1-1.6-8-3.8-11.1-7l0,0l-0.1-0.1c-1.9-2-3.4-4.4-5.2-6.6c-0.8-1.1-1.5-2.2-2.3-3.1
		c-0.3-0.2-0.6-0.6-1-0.7c-0.7-0.3-1.2-0.7-1.6-1.2c-0.5-0.5-0.8-1-1.2-1.6c-0.2-0.2-0.3-0.5-0.5-0.7c-0.1-0.1-0.2-0.2-0.2-0.3
		c-0.1-0.2-0.2-0.2-0.2-0.4c-0.2-0.2-0.3-0.6-0.4-0.8c-1.7-3-2.9-6.3-3.6-9.8c-2.1-10.8-2.8-21.7-3.1-32.7
		c-0.2-6.1,0.5-12.3,1.2-18.4c1-8.9,2.6-17.7,4.7-26.4c1.7-6.9,2.1-14-0.3-20.9c-0.2-0.7-0.3-1.3-0.5-2c-2.6-10.3-4.3-20.7-4.6-31.3
		c-0.2-7.5,0.7-15,1.5-22.4c1-8.9,1.6-17.8,1.5-26.8c-0.1-8.3,0.9-16.5,2.5-24.7c3.4-16.5,6.5-33.1,8.8-49.8
		c1.2-8.6,2.5-17.3,1.9-26c-0.4-6.8-1.1-13.6-1.7-20.4c-0.2-2.6-0.7-5.3-1.6-7.8c-1-3.4-2.3-6.5-3.6-9.8c-0.8-2.2-1.9-4.3-3-6.1
		c-0.2-0.2-0.3-0.6-0.5-0.8c-1.4-2.2-3.1-4.3-5.1-6.2c-0.6-0.6-1.1-1.1-1.7-1.7c-1-1-1.9-2-2.8-3.1c-0.7-0.7-1.3-1.5-2-2.3
		c-5.6-6.9-10.9-13.9-16.4-20.8c-1.1-1.3-2.2-2.5-3.4-3.8c-0.3-0.3-0.7-0.7-1.1-1.1l0,0c-0.1-0.1-0.1-0.1-0.2-0.2
		c-0.1-0.1-0.2-0.2-0.2-0.2c-0.3-0.3-0.7-0.5-1.2-0.1c0.9,2.7,1.9,5.3,2.7,7.9c0.2,0.9,0.6,1.7,0.9,2.5c0.3,0.6,0.7,1.1,1.1,1.7
		c0.2,0.2,0.2,0.3,0.4,0.5s0.5,0.6,0.8,0.8c0.2,0.2,0.5,0.4,0.7,0.7c0.6,0.6,1.1,1.2,1.7,1.8c0.1,0.1,0.2,0.2,0.2,0.2
		c1.1,1.1,2,2.1,2.9,3.3c1.1,1.3,2,2.6,2.9,4c0.7,0.9,1.2,1.8,1.8,2.8c0.7,1.2,1.4,2.5,2,3.8c1.7,3.6,3.5,7.2,5.3,10.8
		c1.6,3.3,2.9,6.6,3.8,10.1c2.3,8.7,3.8,17.5,4.3,26.5c1,16.1,0.6,32.1-1,48.2c-0.5,5.2-1.2,10.4-2.5,15.5c-0.4,1.6-0.6,3.2-0.8,4.7
		c-1.5,9.8-3.4,19.5-6.3,29c-0.8,2.7-1.6,5.4-2.3,8.1c-3.4,11.9-4.3,24-2.1,36.1c0.5,3,1.1,6.1,1.6,9.1c2,11.5,2.2,23.1,1.4,34.8
		c-0.6,7.5-0.5,15-0.5,22.5c0,5.5-0.1,11-0.4,16.4c-0.5,9.7-1.3,19.5-1.8,29.3c-0.2,5.2-0.2,10.5-0.2,15.7c0.2,10.2,2,20.2,5.5,29.8
		c1.2,3.5,2.6,6.9,4.4,10c0.2,0.3,0.4,0.7,0.7,1.1c0.9,1.4,1.9,2.8,2.9,4c1.1,1.3,2.1,2.9,3.2,4.3c0,0.1,0.1,0.2,0.2,0.2
		c1.9,2.5,3.9,4.7,6.1,6.9c3.7,3.6,7.7,6.8,11.9,9.8c0.1,0.1,0.2,0.1,0.7,0.2c1.1-0.4,2.7-0.9,4.2-1.5c2.6-1.1,5.3-1.7,8.2-1.9
		c4.5-0.2,8.6-1.6,12.5-3.9c6.9-4.1,12.8-9.2,18.6-14.6c5.6-5.4,10.7-11.2,14.8-17.9c2.2-3.7,4.4-7.4,6.3-11.2
		c3.6-7.1,7-14.4,10.5-21.7c0.6-1.1,1-2.5,1.5-3.7c5.2-13,6.9-26.6,7.2-40.5c0.2-10.5-0.4-20.9,0.8-31.3c0.9-8.3,1.6-16.5,2.7-24.8
		c1.7-13,3.7-26,4.3-39.1c0.1-1.3,0.2-2.7,0.3-4C816.2,279.3,816.4,271.9,815.4,264.3z"/>
	<path class="st0" d="M550.9,153.5c-0.2-0.2-0.5-0.5-0.7-0.7c-0.1-0.1-0.1-0.1-0.2-0.2c-0.5-0.4-1-0.7-1.5-1c-0.1,0-0.2-0.1-0.2-0.1
		c-0.2-0.1-0.6-0.2-0.8-0.2c-0.4-0.1-0.9-0.1-1.4-0.1c-0.2,0-0.6,0.1-0.8,0.1l0,0c-0.2,0-0.3,0-0.5,0s-0.3,0-0.6,0
		c-0.1,0-0.2,0-0.3,0s-0.1,0-0.2,0c-0.2,0-0.2,0-0.4,0.1c-0.7,0.2-1.3,0.3-2,0.6c-0.1,0.1-0.2,0.2-0.3,0.2s-0.2,0.1-0.2,0.1
		c-0.2,0.1-0.2,0.2-0.4,0.2l0,0l0,0l0,0l0,0c-0.3,0.3-0.7,0.7-1,1c-0.1,0.1-0.1,0.1-0.2,0.2c-0.2,0.3-0.6,0.6-0.8,0.9
		c-0.1,0.2-0.2,0.2-0.3,0.4c-0.2,0.2-0.4,0.5-0.6,0.7c-0.3,0.4-0.6,0.8-0.8,1.2l-0.1,0.1c-0.2,0.3-0.4,0.7-0.7,1.1
		c-0.7,1.2-1.2,2.5-1.6,4c-0.2,0.9-0.3,1.8-0.3,2.7c0,1.5,0.3,2.9,1.3,4.1c1.1,1.5,2.1,2.9,2.9,4.7c0.6,1.6,2,2.1,3.6,1.7
		c0.5-0.1,1-0.3,1.6-0.5c0.3,0.2,0.7,0.5,1,0.7c1.5,0.8,2.6,1.1,3.6,0.7c0.7-0.3,1.4-1,2-2c0.2-0.4,0.4-0.8,0.7-1.1
		c0.1,0,0.1-0.1,0.1-0.1c0.5-0.8,0.9-1.7,1.3-2.5c1.3-2.6,2.7-5.2,4.8-7.3c0.1-0.2,0.2-0.2,0.2-0.3c0.1-0.2,0.1-0.3,0.1-0.6
		c0-0.7-0.3-1.2-1-1.5c-0.8-0.4-1.7-0.7-2.7-1.1c0-0.1,0-0.1,0-0.2l0,0c0.1-0.3,0.1-0.7,0.1-0.9C553.6,156.4,552.3,155,550.9,153.5z
		"/>
</g>
<g>
	<path class="st1" d="M576,481.7c-0.4,0.3-0.8,0.6-1.2,0.8c-0.2,0.1-0.3,0.2-0.6,0.3c-0.4,0.2-0.8,0.5-1.2,0.7
		c-0.6,0.3-1.1,0.7-1.7,1c-0.5,0.2-0.9,0.5-1.4,0.8c-4.6,2.7-9.6,4-14.6,5.2c-0.9,0.2-1.7,0.4-2.5,0.6c-0.4,0.1-0.7,0.2-1.1,0.2
		c-0.5,0.1-0.9,0.2-1.3,0.3c-0.1,0-0.2,0.1-0.3,0.1c-0.4,0.1-0.8,0.2-1.2,0.2c-0.4,0.1-0.7,0.2-1.1,0.2c-0.1,0-0.2,0-0.2,0.1
		c-0.3,0.1-0.7,0.2-1.1,0.2c-0.5,0.1-1,0.2-1.5,0.2s-1,0.1-1.5,0.2c-0.3,0-0.7,0-1,0.1c-0.1,0-0.2,0-0.2,0c-0.3,0-0.7,0-1.1,0
		c-0.2,0-0.6,0-0.9,0c-1.9,0-4.1-0.2-7-0.3c-0.2,0-0.2,0-0.4,0l0,0c-6.7-0.7-13.2-1.9-19.4-4.7c-1.8-0.8-3.5-1.9-5.3-2.9
		c-0.4,0.3-0.8,0.7-1.2,1c-3.1,2.9-6.9,4.5-11.1,5.2c-1.5,0.2-3,0.4-4.5,0.6c-2.2,0.2-4.4,0.4-6.7,0.4c-2.1,0-4.3-0.1-6.5-0.2
		c-0.1,0-0.2,0-0.2,0c-9.7-1-19.3-2.9-28.5-6.5c-0.7-0.2-1.4-0.5-2-0.8l0,0v-0.1l0,0c-0.3-0.2-0.7-0.2-0.9-0.4l0,0
		c-0.3-0.2-0.7-0.4-1-0.6l-0.1-0.1l-0.1-0.1c-0.8-0.4-1.9-0.4-2.7-0.8l0,0l0,0c-0.2-0.1-0.3-0.2-0.5-0.4l-0.1-0.1
		c-0.2-0.2-0.3-0.4-0.5-0.7c0-0.1-0.1-0.2-0.2-0.2c-0.1-0.1-0.2-0.1-0.2-0.1l0,0c-0.1,0-0.2-0.1-0.2-0.1c-0.2-0.1-0.5-0.2-0.7-0.2
		c-1.5,0-3,0-5,0c1,5.8,2.9,10.9,6.1,15.5c1.5,2,3.1,4,4.5,6.1c0.8,1.3,1.9,2.1,3.3,2.8c10.3,4.7,21.1,7.7,32.3,9.2
		c6.9,0.9,13.8,1.7,20.8,1.7c1,0,1.9,0,2.9,0h0.1c0.1,0,0.2,0,0.2,0c0.7,0,1.2,0.1,2,0.1c5.7-0.1,11.4-0.2,17-0.2
		c0.9-0.1,1.9-0.2,2.8-0.4c9.2-1.7,18.3-3.4,27.2-6.5c4-1.4,7.9-3.1,11.5-5.5c3.6-2.5,6.8-5.2,9.6-8.4c2.9-3.2,5.4-6.6,6.8-10.8
		c0.9-2.7,2-5.3,2.9-7.9c0.2-0.6,0.3-1.1,0.5-2.1c-1,0.7-1.6,1.1-2.2,1.6C580.7,477.9,578.4,479.9,576,481.7z"/>
	<path class="st1" d="M577.5,528.2c-1.9-4.2-4.8-7.1-8-10c-2.8,1.6-5.8,2.4-7.1,5.6c-0.2,0.3-0.4,0.7-0.7,1
		c-4.1,4.3-8.2,8.4-12.3,12.6c-1.7,1.7-3.9,2.9-6.3,3.4c-3,0.7-6,1.5-9.1,2.1c-0.7,0.2-1.5,0.3-2.3,0.5s-1.6,0.3-2.4,0.5
		c-1.6,0.3-3.2,0.2-4.7,0.2c-0.5,0-0.9-0.4-1.6-0.7c0,0,0,0,0.1-0.1c0,0,0,0-0.1,0c0.1-0.1,0.1-0.1,0.2-0.2c-0.1,0-0.2-0.1-0.3-0.2
		l0.1-0.1h-0.1c0.8-0.7,1.4-1.2,2-1.7c2.6-2.2,5.3-4.4,8-6.6c0.2-0.2,0.4-0.5,0.6-0.9c-2,0.1-3.4,0.8-4.8,1.3
		c-6.5,2.1-13.2,3.4-20.1,3.2c-6.3-0.2-12.5-0.9-18.6-2.5c-2.3-0.7-4.7-0.8-7.1-1.1c-0.4-0.1-0.8,0.1-1.6,0.2
		c0.7,0.8,1.2,1.3,1.7,1.9c0.8,1.1,1.7,2,2.3,3.3c0.7,1.4,1.2,2.7,1.8,4.1c0.7,1.7,1.5,3.5,2.2,5.2c0.2,0.3,0.2,0.7,0.4,0.9v0.1l0,0
		l0,0c0.1,0.1,0.1,0.2,0.2,0.3c0.2,0.4,0.2,0.9,0.2,2l0,0v0.1c-1.2-1-2-1.6-2.6-2.2c-2.3-2.4-4.7-4.3-8.1-4.9
		c-0.7-0.2-1.5-0.6-2.2-0.9c-9.8-4.3-18.4-10.4-26.3-17.4c-3.6-3.2-6.6-6.6-8.2-11.1c-0.1-0.2-0.1-0.3-0.2-0.5
		c-0.3-0.8-0.6-1.6-0.7-2.5c0-0.1-0.1-0.2-0.1-0.2c-3.3-0.4-4.7-3.4-7.4-4.7c-0.7,0.7-0.8,1.4-0.9,2.1c0,0.4,0,0.9,0,1.3
		c-0.3,6.9-1.9,13.5-4.8,19.8c-1.3,2.8-2.5,5.6-3.8,8.4c-0.2,0.4-0.4,0.7-0.4,1.1c0.1,0.1,0.1,0.2,0.2,0.2c2.5-0.9,5-1.8,7.5-2.5
		c2.2-0.7,4.4-0.7,6.7,0.1c2.9,1,5.9,1.8,8.8,2.7c0.4,0.2,0.8,0.2,0.9,0.7v0.1l0,0l0,0c0.1,0.1,0.1,0.2,0.2,0.3v0.1l0,0
		c0,0.2,0,0.3,0,0.6c-1.5,0.2-2.9,0.6-4.7,0.9c-0.1,2.5-1.5,4.3-2.8,6.1c-1,1.5-2,2.9-2.9,4.3c-5.1,7.1-8,15.1-9.6,23.6
		c-0.5,2.6-0.7,5.2-1.1,7.8c0.2,0.1,0.5,0.2,0.7,0.2c1.1-1.1,2.3-2.1,3.4-3.2c5.2-4.8,11-7.5,18.3-5.9v0.1l0,0c0,0.1,0,0.2-0.1,0.2
		c0.1,0,0.2,0,0.2,0.1v0.1l0,0c-0.2,0.7-0.4,1.3-0.6,2c0,0.1,0,0.2-0.1,0.3c0,0.1,0,0.2,0,0.3c-0.1,2.5-1.3,4.3-2.9,6
		c-0.7,0.8-1.5,1.6-2.2,2.4c-1.3,1.4-2.3,2.9-2.9,4.7c-2.2,6.5-4,13-5,19.8c0,0.2,0,0.2,0,0.3c0,0.3,0.1,0.7,0.1,1.1
		c2.1-0.7,3.3-2.2,4.6-3.5c1.2-1.2,2.5-2.5,3.5-3.8c1.1-1.5,2-3.1,3-4.7c1-1.6,1.1-3.5,2.7-5.5v0.1l0,0c0,0.2,0,0.3,0,0.5
		c0.1-0.1,0.1-0.1,0.2-0.2c0.1,0.7,0.2,1.2,0.1,1.8c0,0.2,0,0.4,0,0.7c-0.1,3-1,5.8-1.2,9.1c1.1-1.5,1.8-2.4,2.5-3.3
		c0.1,0.2,0.1,0.3,0.1,0.5l0.1-0.1c0.1,0.3,0.1,0.6,0.1,0.9l0,0c0,0,0,0,0,0.1c0,0.9-0.2,1.6-0.3,2.4c-1.7,7.2-3.4,14.3-7.2,20.8
		c0,0.1-0.1,0.2-0.1,0.2l0,0c0,0.1,0,0.2,0.1,0.2v0.1c0.7-0.2,1.3-0.4,2-0.7c4.7-1.8,8.5-4.9,11.9-8.6c5.7-6.1,11.5-12.3,17.3-18.5
		c2-2.1,4.5-2.4,6.8-0.6c1,0.8,1.7,1.7,2.5,2.6c1.6,1.8,3.1,3.7,4.6,5.6c4.7,5.9,9.9,11.3,15.6,16.2c0.6,0.5,1.2,0.9,2.3,1.6
		c-0.1-0.9-0.1-1.4-0.2-1.9c-0.5-2.6-0.8-5.2-1.6-7.8c-0.2-0.9-0.3-1.7-0.4-2.5c0-0.4,0-0.9,0-1.3c0.1-3.1,1.3-6.1,2.1-9.2
		c1.7,0.9,1.9,2.6,3,3.5c2.4,1.9,3.5,4.3,4.7,6.9c2.9,6.6,6.5,12.9,10.9,18.7c0.3,0.5,0.6,1.2,1.6,0.9c-1.5-8.3-2-16.8-2.5-25.3
		v-0.1l0,0c0-0.2,0-0.2,0-0.4c-0.1-0.9-0.1-1.8-0.1-2.7c0-1.5,0.2-2.9,0.5-4.5c0.8-3.4,3.8-5,7.1-3.6c1.3,0.6,2.6,1.4,3.6,2.5
		c1.4,1.5,2.5,3.2,3.7,4.7c0.3,0.4,0.7,0.7,1.2,1.2c1.6-6.7,3-13,4.5-19.4c0.9-3.9,4-5.4,7.6-3.6c0.9,0.5,1.8,1.1,2.6,1.8
		c2.4,2,4.3,4.3,5.7,7.1c1.2,2.4,2.1,4.9,3.2,7.4c0.4,0.8,0.7,1.7,1.1,2.5c2.2-5.1,4.3-9.6,5.3-14.6c0.7-3.7,1.1-7.3,1.1-11
		c0-0.8,0-1.7,0-2.5c-0.1-2.7-0.2-5.5-0.5-8.3c-0.2-2.1-0.9-4.3-1.4-6.3c-0.2-0.7-0.5-1.5-0.7-2.3c-0.1-0.5-0.1-1-0.1-1.4l0,0
		c0-0.1,0-0.1,0-0.2c0.1-3,2.4-5.4,5.6-5.4c1.4,0,2.9,0.5,4.3,0.9c1.3,0.3,2.5,1,3.6,1.5c0.2-0.5,0.5-0.7,0.5-0.8
		c-0.5-6-1.5-11.9-3.2-17.7C579.6,533.1,578.7,530.6,577.5,528.2z"/>
	<path class="st1" d="M448.7,472.6c6.2,1.3,12.6,2.2,19,2.4c2.1,0.1,4.3,0.2,6.4,0.4c4.5,0.4,9.1,0.9,13.6,1.2
		c1.7,0.1,3.4,0.1,5.2,0.1c1.9,0,3.7-0.5,5.4-1.2c0.1-0.1,0.2-0.1,0.2-0.2s0.2-0.2,0.4-0.2c0.1,0,0.2-0.1,0.2-0.2
		c0.2-0.2,0.4-0.7,0.4-1c0-0.4-0.6-1-1-1.1c-2.9-0.3-5.4-1.6-7.9-2.9c-6.5-3.4-12.3-7.4-18.3-11.6c-1.2-0.8-2.3-1.9-3.3-2.9
		c-5.1-5.3-10.1-10.8-15.1-16c-6.2-6.5-9.2-14.3-10.8-22.9c-0.9-5-1.5-10.1-1.6-15.1c0-2.3-0.5-4.5-0.6-6.8
		c-0.1-1.7-0.1-3.5,0.1-5.2c0.6-4.5,2.2-8.6,3.9-12.8c0,0,0.1-0.1,0.2-0.2l0,0l0.1-0.2c-0.2-0.1-0.6-0.2-0.7-0.2
		c-3.5-1.3-6.1-4.6-8.1-9.2c-0.2-0.6-0.5-1.3-0.7-2v0.1l-0.1,0.1l-0.1,0.1c-1.3,3-2.5,6-3.5,9.1c-1.5,4-2.9,8.1-4.5,12
		c-2,4.7-3.4,9.6-3.6,14.7c-0.1,2-0.2,3.9-0.3,6c0,0.4-0.2,0.9-0.2,1.5c-0.1,0-0.1,0-0.1,0l0,0c-0.1,0-0.1,0-0.1,0l0,0
		c0,0.1,0,0.1-0.1,0.2c0,0,0,0-0.1,0l0,0c0,0,0,0-0.1,0c-0.5-0.3-0.7-0.4-0.8-0.6c-4.4-8.7-6.7-17.7-5.6-27.6
		c0.3-2.5,0.7-5.1,1.1-7.5c0.1-0.4,0.4-0.9-0.3-1.3c-1,1.2-1.8,2.8-3.1,3.6c-0.7,0.5-1.4,0.7-2.4,0.7l0,0h-0.1
		c-0.4,0-0.9-0.1-1.4-0.2c-0.3-3.1-0.4-6.1,0.2-9.2c0.7-3.3,1.6-6.5,2.3-9.8c1-4.2,2-8.3,2.7-12.5c0.8-4.9,1.2-9.8-0.2-14.7
		c-0.2-0.7-0.2-1.6-0.2-2.4c-0.3-6.9-2-13.5-4.4-19.9c-1.4-3.5-2.8-6.9-4.1-10.5c-1.1-2.8-2.5-5.3-4.8-7.3
		c-4.2-3.8-8.2-7.7-11.2-12.5c-0.4-0.6-1.2-1.1-2-1.2c-0.5-0.1-0.8-0.1-1.2-0.1c-0.4,0.1-0.7,0.2-1.1,0.3c-0.6,0.4-1.1,1-1.6,1.8
		c-5.2,9.2-9.7,18.8-12.7,29c-1.1,3.8-1.9,7.8-2.5,11.8c-0.2,1.8-0.7,3.4-1.4,4.5c0.2,2.7,1.7,4.8,1.7,7.6c-0.1,0-0.1,0-0.1,0l0,0
		c-0.1,0-0.1,0-0.1,0c-0.1-0.1-0.1-0.1-0.1-0.1c0,0.1,0,0.2,0,0.2s0,0-0.1,0l0,0c0,0,0,0-0.1,0c-1-0.4-1.6-0.5-2.1-0.8
		c-1.2-0.8-2.5-1.7-3.6-2.5c-1.4-1.1-2.8-1.6-4.7-1.7c0.2,0.9,0.2,1.7,0.4,2.5c2.5,9.9,6,19.4,10.6,28.5c3.4,6.9,7.1,13.7,11.7,20
		c3.5,4.8,5.9,10.2,8.3,15.6c0.2,0.7,0,1.6,1.1,2c0.4-0.2,0.7-0.6,1.1-0.8c1.6-1.1,3.3-2.3,5.2-3.2c0.1,0,0.1,0,0.1,0l0,0
		c0.1,0,0.1,0,0.1,0c0.6,3.1,1.2,5.8,1.6,8.6c0.5,2.9,1,5.8,1.1,8.7c0.2,4.7,0.1,9.4,0.4,14.1c0.5,7.5,2.2,14.7,5.9,21.5
		c3.9,7.2,9.7,12.3,16.4,16.6c3,1.9,6.2,3.5,9,5.8C437.1,469.4,442.9,471.3,448.7,472.6z"/>
	<path class="st1" d="M670,298.8c-0.2,0.1-0.4,0.2-0.6,0.3c-0.2,0.1-0.2,0.1-0.4,0c-0.2,0-0.4,0-0.6-0.2c-0.2-0.9,0.9-1.8,0.1-2.7
		l0,0c-0.5,0.7-1.1,1.2-1.6,1.9c-0.7,1-1.5,1.9-2.3,2.9c-4.9,6-10.6,11.3-16.6,16.1c-4.5,3.6-8.8,7.4-12.9,11.4
		c-1.2,1.2-2.4,2.5-3.4,3.9c-1.1,1.6-2.1,3.1-3,4.8c-0.7,1.2-1.3,2.4-2,3.5c-0.2,0.2-0.3,0.5-0.6,0.7c-0.2,0.3-0.5,0.7-0.8,0.8
		c-0.2,0.1-0.3,0.1-0.6,0.1c-0.2,0-0.3,0-0.6-0.1c-1.5-2.8-2.2-5.9-2.8-9c-2-10.2-2.5-20.4-1.9-30.8c0.3-5.1,0.7-10.1,1.1-15.2
		c0.2-1.5,0.2-2.9-0.5-4.5c-0.5,0.3-0.8,0.7-1.2,0.9c-1.6,1.6-3.3,3.2-5,4.7c-1.6,1.5-3.6,2.7-5.8,3.3c-1.1,0.3-2.2,0.5-3.4,0.4
		c-2,0-3.9-0.6-6-1.9c-2.7-1.7-5.2-3.8-7.8-5.6c-0.8-0.7-1.6-1.5-2.5-1.9c-0.5-0.2-1-0.4-1.4-0.4c-0.3,0-0.7,0.1-1,0.2
		s-0.6,0.3-0.8,0.6c-0.2,0.2-0.3,0.6-0.4,0.9c-0.3,1.4-0.6,2.9-0.5,4.3c0.3,6.5,1.3,12.8,3.8,18.8c1.1,2.6,2.5,5,3.8,7.5
		c2.4,4.7,4.4,9.5,5.7,14.6c0.6,2.5,1.3,4.8,2.3,7.2c1.1,2.9,2.3,5.7,2.7,8.8c0.5,4.5,1.1,9.1,1.5,13.6c0.5,7.4,0.2,14.7-1.4,22
		c-1.4,6.5-3.2,12.9-4,19.6c-0.1,1.1-0.7,2.2-1.2,3.7l-0.1-0.1c-0.1,0-0.1,0.1-0.1,0.1l-0.1-0.1c0,0,0,0,0,0.1l0,0
		c-0.1,0.2-0.2,0.4-0.2,0.6l-0.1-0.1c0,0,0,0.1-0.1,0.1c0,0,0,0-0.1-0.1c0,0,0,0,0,0.1l-0.1-0.1c0,0,0,0.1-0.1,0.1
		c-0.7-0.7-1.4-1.1-1.6-1.6c-2-3.4-4.9-6-7.9-8.4c-3.1-2.5-6-5.3-8.9-8.1c-2.9-2.7-4.3-6.1-4.9-9.9c-0.1-0.8-0.2-1.7,0-2.5
		c0,0,0.1-0.2,0.1-0.4c-2.9-0.2-5.4-0.2-7.3-0.1c-2.3,0.2-4.2,0.7-5.6,0.9l0,0v0.2l0,0l0,0c0.8,2,1.5,4,1.8,6.1
		c0.1,0.6,0.2,1.1,0.2,1.6c0.5,3.8,0.7,7.4,0.7,11.2c-0.1,3.8-0.4,7.5-1.2,11.2c-0.7,3.7-1.6,7.4-2.3,11c-0.3,1.6-0.7,3.2-0.7,4.7
		c0.1,4.5-1.3,8.5-3.4,12.3c-3.7,6.5-8.2,12.5-14.1,17.3c-1.6,1.4-3.3,2.8-4.9,4.2c-4,3.6-8.3,6.9-12.8,10l0,0
		c-1.5,1.1-2.9,2-4.5,2.9l0,0c-0.2,0.1-0.4,0.2-0.6,0.3l0,0c-1.2,0.7-2.5,1.5-3.8,2.2l0,0c-0.2,0.2-0.4,0.2-0.7,0.4
		c-0.6,0.4-1,0.9-1.6,1.4c3.2,1.4,11,3.4,14.6,3.4c10.1,0.3,20,0.6,30.1-0.2c3.7-0.2,7.4-1.1,11-2c7.9-2,14.3-7,21.5-10.5l0,0
		c0.1,0,0.1-0.1,0.2-0.1l0,0c3.9-3.2,7.8-6.5,10.8-10.7c1.8-2.5,3.4-5,3.9-8.1c0,0,0,0,0-0.1c0.1-0.4,0.1-0.8,0.1-1.3
		c0-1.2,0.5-2.4,0.7-3.5c2-8.7,2.5-17.5,3.5-26.2c0.3-3.2,0.6-6.4,0.9-9.6c0-0.2,0.3-0.3,0.6-0.6l0,0c0.1-0.1,0.2-0.2,0.2-0.2l0,0
		l0,0l0,0c1.4,2.1,2.9,4.2,4.2,6.3c0.7,1.1,1.1,2.5,1.6,3.8c0.2-0.3,0.3-0.7,0.4-1.1c0.2-0.7,0.2-1.3,0.2-1.9
		c-0.1-3.8,1.4-6.9,3.1-10.2c5.3-10.1,10.5-20.4,15.8-30.7c0.2-0.5,0.5-1,0.7-1.5c3-7.3,6.7-14.3,10.5-21.3c2-3.8,4.2-7.5,6-11.4
		c1.8-3.8,3.5-7.5,4.9-11.4c0.9-2.6,2.1-4.8,4-6.8c0.9-1,1.8-2,2.5-3.1c0.4-0.6,0.7-1.1,1-1.7c1.7-3.8,3.1-7.7,4.7-11.5
		C670.4,299.3,670.1,299.1,670,298.8C670,298.9,670,298.9,670,298.8z"/>
	<path class="st1" d="M288,678.9c-0.1-0.3-0.2-0.7-0.4-1c-0.4-0.7-0.8-1.6-1.2-2.4c-0.3-0.7-0.7-1.6-1.1-2.3
		c-0.2-0.2-0.2-0.4-0.3-0.7c-1.1-2.2-2.4-4.4-3.6-6.5c-1.6-2.4-3.4-4.7-5.2-6.9c-0.8-0.9-1.7-1.9-2.5-2.8c-0.1-0.2-0.2-0.2-0.3-0.4
		c-0.7-0.7-1.5-1.5-2.2-2.2c-0.8-0.8-1.7-1.7-2.5-2.5s-1.7-1.6-2.5-2.5c-1.1-0.9-2.1-1.8-3.3-2.7c-1.1-0.9-2.2-1.7-3.4-2.5
		c-0.5-0.3-1-0.7-1.5-1c-0.4-0.2-0.9-0.6-1.3-0.8c-0.2-0.2-0.4-0.2-0.7-0.4c-0.7-0.5-1.3-1.1-2-1.6c-0.1,0-0.2-0.1-0.2-0.2
		c-1.1-0.9-2.2-1.6-3.4-2.4c-1.6-0.7-3.1-1.3-4.7-2c-0.2,0-0.3-0.1-0.5-0.2c-1-0.5-2-0.9-3-1.3c-0.9-0.4-1.8-0.8-2.7-1.1
		c-1-0.4-2-0.8-2.9-1.2c-0.2-0.1-0.2-0.2-0.4-0.2c-0.2-0.2-0.5-0.2-0.7-0.4c-0.1-0.1-0.2-0.1-0.3-0.2c-0.2-0.2-0.4-0.2-0.7-0.4
		c-0.2-0.2-0.4-0.2-0.6-0.4c-0.1-0.1-0.2-0.1-0.2-0.2c-0.2-0.2-0.4-0.3-0.7-0.5c-0.2-0.1-0.4-0.2-0.6-0.4c-0.7-0.6-1.4-1.1-2.1-1.5
		c-0.1-0.1-0.2-0.1-0.2-0.1c-0.1,0-0.1-0.1-0.2-0.1c-0.1,0-0.1-0.1-0.2-0.1c-0.9-0.5-1.9-1-2.8-1.4c-0.4-0.2-0.9-0.4-1.4-0.6
		c-0.4-0.2-0.9-0.4-1.4-0.6c-0.9-0.3-1.8-0.7-2.7-1.1c-0.2-0.1-0.4-0.2-0.6-0.2c-0.8-0.4-1.6-0.7-2.5-1.1c-0.1-0.1-0.2-0.2-0.3-0.2
		c-0.7-0.2-1.3-0.5-2-0.7c-0.8-0.2-1.6-0.4-2.5-0.7c-1-0.2-2-0.4-2.9-0.7c-0.7-0.2-1.4-0.3-2.1-0.5c-1.1-0.2-2.3-0.5-3.4-0.7
		c-0.9-0.2-1.8-0.3-2.7-0.5s-1.7-0.3-2.6-0.5c-0.9-0.2-1.8-0.2-2.7-0.4c-1-0.2-1.9-0.3-2.9-0.4c-1.1-0.2-2.2-0.2-3.3-0.4
		c-1.1-0.1-2.3-0.2-3.4-0.3c-1-0.1-2-0.2-2.9-0.2c0,0-0.1,0-0.2,0s-0.2,0-0.2,0c-0.2,0-0.2,0.1-0.3,0.1s-0.1,0-0.2,0
		c-1.4-0.1-2.8-0.2-4.2-0.4c-0.2,0-0.4,0-0.8-0.1c-0.8-0.1-7.4,1.2-7.7,1.5c-0.5,0.2-1,0.2-1.5,0.4c-1.7,0.5-3.4,1.1-5.2,1.6
		c-0.3,0.1-0.6,0.2-0.8,0.2s-0.3,0-0.5,0s-0.4,0-0.7,0c-0.1,0-0.2,0-0.2,0c-0.2,0-0.3,0-0.5,0c-0.1,0-0.2,0-0.2,0
		c-0.2,0.1-0.4,0.1-0.6,0.1c-0.1,0-0.1,0-0.2,0c-0.1,0-0.2,0-0.4,0c-0.1,0-0.2,0-0.2,0c-0.2,0.1-0.4,0.1-0.6,0.1
		c-0.2,0-0.4,0.1-0.7,0.1s-0.4,0.1-0.7,0.1s-0.4,0.1-0.6,0.1s-0.2,0.1-0.4,0.1c-0.2,0.1-0.5,0.1-0.7,0.2c-0.2,0-0.3,0.1-0.5,0.1
		c-0.2,0.1-0.4,0.2-0.6,0.2s-0.4,0.1-0.6,0.1c-0.2,0.1-0.5,0.1-0.7,0.2c-0.7,0.2-1.3,0.2-2,0.4c-1.1,0.2-2.2,0.5-3.3,0.7
		c-1,0.2-2,0.7-2.9,1c-2,0.7-4,1.4-6,2.1c-1.9,0.7-3.8,1.6-5.6,2.5c-1.7,0.9-3.3,2.1-4.7,3.4c-0.7,0.5-1.2,1.1-1.9,1.6l-5.9,2.6
		c-4,1.9-7.8,4.3-11.2,7c-1.7,1.4-3.4,2.9-4.9,4.4c-1.6,1.6-3,3.2-4.4,4.8c-2.8,3.5-5.2,7.3-7.2,11.2c-2,4-3.5,8.2-4.6,12.5
		l-0.1,0.4l-0.2,1.2c-0.1,0.6-0.2,1.1-0.3,1.6l-0.2,1.6l-0.2,0.8l-0.3,2.5c-0.1,0.5-0.1,1.1-0.2,1.6c-0.1,1.1-0.1,2.2-0.2,3.4
		c0,0.5,0,1.1,0,1.6c0,0.2,0,0.6,0,0.9L88,692v0.7v0.1l0.1,0.8l0.2,1.6c0.1,0.6,0.2,1.1,0.2,1.6l0.1,0.8l0.1,0.4l0.1,0.4l0.3,1.6
		c0.1,0.6,0.2,1.1,0.3,1.6l0.4,1.6l0.4,1.6c0.2,0.6,0.3,1.1,0.5,1.6c0.3,1.1,0.8,2.1,1.3,3.1s1.1,2,1.9,2.8c0.4,0.4,0.8,0.8,1.2,1.1
		c0.5,0.3,1,0.7,1.5,0.8c0.2,0.1,0.5,0.2,0.8,0.2c-0.3-1-0.6-1.9-0.8-2.9c-0.7-3.3-1.1-6.5-1.4-9.9c0-0.5,0-0.9-0.1-1.4
		c0-0.5-0.1-1-0.1-1.5c0-0.1,0-0.2,0-0.3c0-0.2,0-0.2,0-0.4c0.1-4.3,0.5-8.6,1.4-12.9c0.4-2.1,1-4.3,1.7-6.3
		c0.2-0.5,0.3-1.1,0.5-1.6l0.6-1.6c0.4-1,0.8-2,1.3-3l0.3-0.7c0.1-0.2,0.2-0.4,0.3-0.7l0.7-1.2l0.7-1.2c0.2-0.8,0.5-1.6,0.8-2.4
		c0.2-0.6,0.5-1.2,0.7-1.8s0.5-1.1,0.8-1.6c0.2-0.6,0.6-1.1,0.9-1.6c0.2-0.5,0.6-1,0.9-1.5c0.7-1,1.3-1.8,2-2.7
		c0.6-0.8,1.1-1.6,1.7-2.5c0.4-0.6,0.8-1.2,1.2-1.8c0.2-0.2,0.3-0.4,0.4-0.6c0.2-0.2,0.4-0.5,0.7-0.7c0.1-0.1,0.2-0.2,0.2-0.3
		l0.8-1.5l-0.1,0.2l0.1-0.1l0.1-0.2l-0.1,0.2l0.1-0.1l-0.2,0.7c0.2-0.2,0.6-0.4,0.8-0.7c0.2-0.2,0.3-0.2,0.5-0.4
		c1.5-1.3,2.9-2.7,4.3-4c0.2-0.2,0.5-0.5,0.8-0.7c0.1-0.1,0.2-0.2,0.2-0.2c-0.3,0.5-0.7,1-1,1.5c0,0.1-0.1,0.2-0.2,0.3l0.1-0.1
		c0.3-0.2,0.6-0.5,0.8-0.7c0.1-0.1,0.2-0.2,0.2-0.2c-0.3,0.5-0.7,1-1,1.5c-0.4,0.7-0.8,1.5-1.2,2.3c-0.8,1.1-1.6,2.4-2.3,3.5
		c-0.2,0.5-0.6,1-0.8,1.5c-0.3,0.4-0.5,1-0.7,1.5c-0.4,0.9-0.7,1.7-1.1,2.6c-0.9,1.9-1.7,3.8-2.5,5.8c-0.2,0.6-0.5,1.1-0.7,1.7
		c-0.2,0.7-0.4,1.2-0.6,1.9c-0.4,1.5-0.8,2.9-1.1,4.4c-0.2,0.8-0.3,1.6-0.5,2.5s-0.2,1.9-0.4,2.8c0,0.4-0.1,0.9-0.2,1.3
		c0,0.1,0,0.2,0,0.2c0,0.1,0,0.2,0,0.2c-0.1,0.2-0.1,0.2-0.1,0.4c-0.1,0.3-0.1,0.7-0.2,1.1c-0.1,0.5-0.2,1.1-0.2,1.6
		c-0.1,0.9-0.2,1.8-0.2,2.7c0,0.1,0,0.2,0,0.2c0.2,0.5,0.2,1,0.1,1.6c0,0.2,0.1,0.5,0,0.8c0,0.1-0.1,0.3-0.2,0.5c0,0.5,0,1,0.1,1.5
		c0.4,5.7,1.3,11.4,2.4,17.3l3.1,17.3l0.5,3.7c0.7,0.2,1.4,0.4,2.1,0.7c1.3,0.3,2.6,0.5,3.9,0.7c0.3,0.1,0.7,0,1,0.1h0.5
		c0.2,0,0.3,0,0.5,0c0.3,0,0.7,0,1,0l1-0.1c0.3,0,0.7-0.1,1-0.1s0.7-0.1,0.9-0.1l0.9-0.2l0.9-0.2c0.3-0.1,0.6-0.2,0.9-0.2l0.4-0.2
		h0.1l0,0c-0.1-0.1-0.1-0.1-0.1-0.1c-0.2-0.2-0.2-0.3-0.4-0.5c0-0.1-0.1-0.1-0.1-0.2c-0.1-0.2-0.1-0.5,0-0.7c0,0,0,0,0-0.1
		c-0.2-0.2-0.1-0.5,0.1-0.7c0-0.1,0-0.1-0.1-0.2v0.4c-0.1-0.2-0.2-0.4-0.2-0.6c-0.1-0.1-0.1-0.1-0.1-0.2c-0.2-0.4-0.3-0.7-0.5-1.1
		c-0.1,0-0.1-0.1-0.1-0.1c-0.1-0.2-0.2-0.4-0.2-0.7c-0.2-0.6-0.5-1.1-0.7-1.6c0-0.1-0.1-0.2-0.1-0.3c-0.2-0.6-0.4-1.1-0.7-1.6
		c0-0.1-0.1-0.2-0.1-0.2c-0.1-0.2-0.1-0.4-0.1-0.7v-0.1c0-0.1,0-0.1,0-0.1c0-0.1,0-0.1,0-0.1s0,0,0-0.1s0-0.1,0-0.1
		c0-0.1,0-0.1,0-0.2s0-0.1,0-0.2v-0.1v0.1c0,0,0,0,0-0.1s0-0.1,0-0.1s0,0,0-0.1s0-0.1,0-0.2v-0.1c-0.1-0.4-0.1-0.9-0.1-1.3
		c0-0.1,0-0.1,0-0.1c0-0.1,0-0.1,0-0.2v-0.1c-0.1-0.3-0.2-0.7-0.2-1c-0.2-0.6-0.2-1.1-0.3-1.7c-0.1-0.7-0.2-1.3-0.2-2
		c0-0.4-0.1-0.7-0.1-1.1c-0.1-0.3-0.2-0.7-0.3-1.1c0-0.1,0-0.1,0-0.2c-0.1-0.3-0.2-0.7-0.2-1c0-0.2-0.1-0.2-0.1-0.3
		c-0.1-0.3-0.2-0.7-0.2-1c-0.1-0.1-0.1-0.2-0.1-0.2c-0.1-0.1-0.1-0.2-0.1-0.2c-1.5-3.6-2.5-6.5-2.7-7.6c-0.3-2.8-0.5-5.1-0.5-7
		c-0.1-8.8,3-11.4,4.8-23.3c0.9-5.9,4.3-11,8.9-15.5c6.7-6.5,15.8-11.7,22.9-15.5v0.1l-0.2,0.7c0.1,0,0.1-0.1,0.2-0.1v0.1l-0.4,2
		c-9.3,9.5-17.7,21.9-19.6,35.8c-0.5,3.3-0.7,6.5-0.7,9.9c0.2,10.5,2.7,21.1,7.4,30.2c1.3,2.6,2.9,5.2,3.5,8c0,0.1,0,0.1,0,0.2
		c0.5,0,1,0,1.6,0c0.2,0,0.5,0,0.7-0.1c0.2,0,0.6-0.1,0.8-0.1c1.3-0.2,2.5-0.3,3.8-0.4c1.1-0.1,2.3-0.2,3.4-0.3
		c1.3-0.2,2.5-0.3,3.8-0.5c1.6-0.2,3.2-0.4,4.7-0.7c0.8-0.2,1.6-0.4,2.3-0.7c0.6-0.2,1.1-0.5,1.7-0.7c0.4-0.2,0.9-0.5,1.3-0.7
		c-0.1,0.1-0.2,0.1-0.2,0.2c0.6-0.3,1.1-0.7,1.6-1.1c0.5-0.4,1.1-0.9,1.6-1.3c0.2-0.2,0.6-0.5,0.8-0.8c0.2-0.2,0.5-0.6,0.7-0.8
		c0.4-0.4,0.7-0.9,1.1-1.4c0.2-0.4,0.5-0.8,0.7-1.2c0.2-0.6,0.5-1.1,0.7-1.8s0.5-1.5,0.7-2.3c0.1-0.3,0.1-0.7,0.2-1.1
		c-0.5-1-0.9-2-1.3-2.9c-0.1-0.1-0.2-0.1-0.2-0.1c-0.1,0-0.2,0-0.2,0c-0.3,0-0.6,0-0.9,0c-0.1,0.1-0.2,0.1-0.3,0.1
		c0,0,0-0.1,0.1-0.1c0-0.2,1.1-0.3,1.2-0.3c0.1,0,0.2,0,0.2,0c-0.1-0.2-0.1-0.2-0.2-0.4c-0.1,0-0.1,0-0.2,0c-0.3,0-0.6,0-0.9,0
		c-0.1,0-0.2,0-0.3,0.1c0,0,0.2-0.1,0.5-0.2c0,0,0,0-0.1,0s-0.2,0-0.3,0.1c0-0.1,1.1-0.3,1.2-0.3c-1.6-4-2.7-8.3-3.4-12.6
		c0-0.2-0.1-0.5-0.1-0.7s0-0.2-0.1-0.4s-0.2-0.6-0.2-0.8c-0.1-0.2-0.2-0.6-0.2-0.9c-0.1-0.2-0.1-0.5-0.1-0.7c0-0.3-0.1-0.7-0.1-1
		c-0.1-0.6-0.1-1.1-0.1-1.7c0-0.2,0-0.5,0-0.7c0-0.7,0-1.2,0-1.8c0-0.2,0-0.2,0-0.4c0-6.4,1-12.8,2.9-18.9c0.7-2.2,1.6-4.3,2.5-6.5
		c0.2-0.6,0.5-1.1,0.7-1.6l0.4-0.8l0.4-0.7c0.2-0.5,0.6-1.1,0.8-1.6l0.9-1.5l0.2-0.4l0.2-0.4l0.5-0.7c0.3-0.5,0.7-1,1-1.5l1-1.4
		l1.1-1.4c1.5-1.8,3-3.5,4.7-5.2l0.1-0.1l0,0c0.4-0.4,0.8-0.8,1.2-1.2l1.3-1.1l1.4-1.1c0.4-0.4,0.9-0.7,1.4-1.1
		c1.9-1.4,3.8-2.6,5.9-3.7c2-1.1,4.3-2,6.5-2.6l0.8-0.2l0.4-0.2l0.4-0.1l1.3-0.3l0.8-0.2l0.4-0.1l0.2-0.1h0.1h0.1l-0.1,0.1l0,0
		l-1.1,0.9l0.3-0.1l0.4-0.1l0.2-0.1h0.1h0.1l-0.1,0.1l0,0l-2.2,1.9c-0.5,0.4-0.9,0.7-1.3,1.1c-0.8,0.7-1.6,1.6-2.4,2.4
		c-2.4,2.5-4.7,5.2-6.7,7.8c-2.7,3.8-4.9,7.8-6.8,12c-3.1,7.3-4.7,15.1-4.7,22.9c0.1,1.1,0.1,2.2,0.2,3.4c0.3,4.6,1.2,9.2,2.5,13.6
		c0.3,1.1,0.7,2.2,1.1,3.3l0.2,0.4l0.5,1.2c0.2,0.5,0.4,1.1,0.7,1.6l0.7,1.6l0.4,0.8c0.2,0.2,0.2,0.5,0.4,0.7l0.8,1.6
		c0.2,0.5,0.6,1,0.9,1.5c0.3,0.5,0.6,1,0.9,1.5l0.9,1.5l0.5,0.7l0.5,0.7c0.2,0.2,0.3,0.5,0.4,0.7c0.2,0,0.3,0,0.5,0
		c0.4,0,0.8,0,1.2,0c0.8,0,1.6,0,2.4-0.1c0.2,0,0.6-0.1,0.8-0.1c0.7-0.1,1.4-0.1,2.1-0.2c0.7,0,1.4,0.1,2.1,0.2
		c1.6,0.2,3,0.6,4.6,0.7c0.4,0,0.9,0,1.3,0c0.9-0.1,1.8-0.2,2.7-0.3s1.8-0.2,2.6-0.2c0.4-0.1,0.8-0.1,1.1-0.2
		c0.2-0.1,0.3-0.1,0.5-0.2c0.1,0,0.2-0.1,0.3-0.2c0.1,0,0.2-0.1,0.2-0.1c0.7-0.4,1.4-0.8,2.1-1.3c0.8-0.6,1.7-1.1,2.5-1.8
		c0.7-0.5,1.5-1.1,2.1-1.7c0.3-0.3,0.7-0.7,1.1-1.1c0.7-0.7,1.2-1.5,1.9-2.2c0.1-0.2,0.2-0.3,0.4-0.5c0-0.3,0-0.7,0-1c0,0,0,0,0-0.1
		c0-0.2,0-0.3,0-0.5c0-0.1,0-0.1,0-0.2c0-0.2,0-0.5,0-0.7c0-0.1,0-0.2,0-0.3s0-0.2,0-0.3c0-0.2,0-0.3,0-0.5c0-0.1,0-0.2,0-0.3
		c0-0.2,0-0.3,0.1-0.5c0-0.1,0-0.2,0-0.2c0-0.2,0.1-0.4,0.1-0.6c0-0.1,0-0.1,0-0.2c0-0.2,0.1-0.3,0.1-0.6c0-0.1,0-0.2,0-0.2
		c0-0.2,0.1-0.4,0.2-0.7c0,0,0,0,0-0.1c0.1-0.2,0.1-0.4,0.2-0.6c0-0.1,0-0.1,0.1-0.2c0.1-0.2,0.2-0.4,0.2-0.7c0.7-2.1,2-4,3.1-6
		c0,0,0-0.1,0.1-0.1c0.2-1,0.4-1.9,0.7-2.9c0.2-0.8,0.3-1.6,0.5-2.4c0-0.2,0.1-0.4,0.1-0.7c0-0.1,0-0.1,0-0.2c0-0.1,0-0.1,0-0.2
		c-0.1-0.4-0.1-0.7-0.2-1.1c0-0.1,0-0.1,0-0.2c-0.1-0.2-0.1-0.5-0.2-0.7c-0.1-0.4-0.2-0.8-0.3-1.2c0.1-0.1,0.1-0.2,0.2-0.2
		c-0.1-0.2-0.1-0.3-0.2-0.5c0.1-0.2,0.2-0.3,0.2-0.5c0.7-1.3,1.4-2.6,2.3-3.8c0.9-1.1,1.9-2.3,2.9-3.3c0.6-0.4,1.1-0.9,1.8-1.3
		c0.3-0.2,0.7-0.4,0.9-0.6c0.1,0,0.1-0.1,0.2-0.1l0,0c0.3-0.2,0.7-0.3,1-0.5c2.7-1.2,5.6-1.8,8.6-1.6c0.4,0,0.7,0.1,1.1,0.1
		c0.3,0.1,0.7,0.1,1.1,0.2l0.4,0.1c0.1,0,0.2,0,0.2,0.1l0.3,0.1h0.1l-0.7-0.5l-0.9-0.7c-0.6-0.5-1.1-0.9-1.8-1.3
		c-2.5-1.7-5.1-3.3-7.9-4.3c-1.5-0.5-2.9-0.9-4.4-1.1c-0.7-0.1-1.4-0.1-2.1-0.1c-0.1,0-0.1,0-0.1,0c0.1-0.1,0.2-0.2,0.2-0.3
		c0.1-0.2,0.2-0.2,0.3-0.4c-0.2,0-0.3,0-0.5,0c0,0,0,0-0.1,0c0.1-0.1,0.2-0.2,0.2-0.3c0.4-0.6,1-1.1,1.5-1.6
		c0.2-0.2,0.3-0.2,0.5-0.4c0,0,0,0,0.1-0.1c0.4-0.4,0.9-0.8,1.4-1.2c0-0.1,0.1-0.1,0.1-0.2c0.8-0.7,1.7-1.1,2.6-1.6
		c0.3-0.2,0.7-0.3,1-0.5c1.9-0.8,3.8-1.3,5.8-1.6c1-0.1,2-0.1,3-0.1c0.2,0,0.5,0.1,0.7,0.1c0.2,0,0.5,0,0.7,0.1
		c0.5,0.1,1,0.2,1.5,0.2c0.2,0.1,0.5,0.2,0.7,0.2c0.1,0,0.1,0,0.2,0s0.2,0,0.2,0.1c-0.3-0.2-0.7-0.4-1-0.7c0.2,0.1,0.5,0.2,0.7,0.3
		c-0.2-0.2-0.3-0.2-0.6-0.4c0.2,0.1,0.5,0.2,0.7,0.3c1.6,0.7,3.2,1.4,4.6,2.4c0.9,0.7,1.7,1.4,2.5,2.1c0.4,0.4,0.8,0.7,1.2,1.1
		c0.5,0.4,0.9,0.8,1.3,1.3c0.4,0.4,0.9,0.9,1.3,1.3c0.2,0.2,0.3,0.3,0.5,0.6c0.3,0.4,0.7,0.7,1.1,1.1c0.3,0.3,0.6,0.7,0.9,1.1
		c0.2,0.3,0.6,0.7,0.8,1.1c1.1,1.5,2,3,2.9,4.6c0.1,0.2,0.2,0.3,0.2,0.4c0,0,0.1,0.1,0.1,0.2c0.1,0.2,0.2,0.3,0.2,0.4
		c0,0.1,0.1,0.2,0.1,0.2c0.2,0.5,0.6,1,0.7,1.5c0,0,0,0.1,0.1,0.2c0.1,0.2,0.2,0.4,0.2,0.6c0.1,0.2,0.2,0.4,0.3,0.7
		c0.1,0.2,0.2,0.4,0.2,0.6c0.2,0.5,0.5,1,0.7,1.4c0.2,0.6,0.5,1.1,0.7,1.6c0.2,0.4,0.4,0.8,0.6,1.3c0.2,0.7,0.6,1.4,0.8,2.1
		c0.2,0.3,0.2,0.7,0.3,1.1c0.2,0.1,0.3,0.2,0.4,0.4c0.2,0.2,0.2,0.3,0.3,0.5c0.9,0.1,1.8,0.2,2.7,0.2c0.3,0,0.7,0.1,0.9,0.1
		c0,0,0,0,0.1,0c0.4,0.1,0.9,0.2,1.4,0.2c0,0,0,0,0-0.1c-0.1-0.5-0.3-1-0.5-1.5C288.1,679.2,288.1,679,288,678.9z"/>
	<path class="st1" d="M900.1,683.7c-0.1-0.6-0.1-1.1-0.2-1.6l-0.2-1.6l-0.1-0.8l-0.2-0.8l-0.2-1.6c-0.1-0.6-0.2-1.1-0.3-1.6
		l-0.2-0.8l-0.1-0.4l-0.1-0.4c-1.1-4.3-2.6-8.4-4.5-12.4c-2-3.9-4.4-7.6-7.2-11.1c-2.8-3.4-6-6.5-9.5-9.3c-3.4-2.7-7.2-5.2-11.2-7
		l-5.9-2.6c-0.7-0.6-1.2-1.1-1.9-1.6c-1.5-1.2-3-2.5-4.7-3.4c-1.8-1-3.7-1.8-5.6-2.5c-2-0.7-4-1.4-6-2.1c-1-0.3-2-0.7-2.9-1
		c-1.1-0.2-2.2-0.5-3.3-0.7c-0.7-0.2-1.3-0.2-2-0.4c-0.2-0.1-0.5-0.1-0.7-0.2c-0.2,0-0.4-0.1-0.6-0.1c-0.2,0-0.4-0.1-0.6-0.2
		c-0.2,0-0.3-0.1-0.5-0.1c-0.2-0.1-0.5-0.1-0.7-0.2c-0.2,0-0.2-0.1-0.4-0.1s-0.3-0.1-0.6-0.1c-0.2,0-0.5-0.1-0.7-0.1
		s-0.5-0.1-0.7-0.1s-0.3,0-0.6-0.1c-0.1,0-0.2,0-0.2,0c-0.2,0-0.3,0-0.5,0c-0.1,0-0.1,0-0.2,0c-0.2,0-0.4,0-0.6-0.1
		c-0.1,0-0.2,0-0.2,0c-0.2,0-0.3,0-0.5,0c-0.1,0-0.2,0-0.2,0c-0.2,0-0.4,0-0.7,0c-0.2,0-0.3,0-0.5,0c-0.2-0.1-0.5-0.2-0.7-0.2
		c-0.9-0.2-1.7-0.5-2.6-0.7c-1.3-0.3-2.7-0.6-4.1-0.8c0.1,0.1-3.4-0.5-4.9-0.8c-2.7-0.6-5.5-1.2-8.1-0.6c-0.1,0-0.2-0.1-0.2-0.1
		c-0.1,0-0.2,0-0.2,0h-0.2c-1,0.1-2,0.2-2.9,0.2c-1.1,0.2-2.3,0.2-3.4,0.3c-1.1,0.2-2.2,0.2-3.3,0.4c-1,0.1-1.9,0.2-2.9,0.4
		c-0.9,0.2-1.8,0.2-2.7,0.4s-1.7,0.3-2.6,0.5s-1.8,0.3-2.7,0.5c-1.1,0.2-2.3,0.5-3.4,0.7c-0.7,0.2-1.5,0.3-2.1,0.5
		c-1,0.2-2,0.4-2.9,0.7c-0.8,0.2-1.6,0.4-2.5,0.7c-0.7,0.2-1.3,0.5-2,0.7c-0.1,0.1-0.2,0.1-0.3,0.2c-0.8,0.3-1.6,0.7-2.5,1.1
		c-0.2,0.1-0.4,0.2-0.6,0.2c-0.9,0.4-1.8,0.8-2.7,1.1c-0.5,0.2-0.9,0.4-1.4,0.6s-1,0.4-1.4,0.6c-0.9,0.4-1.9,0.9-2.8,1.4
		c-0.1,0-0.1,0.1-0.2,0.1s-0.1,0.1-0.2,0.1c-0.1,0-0.1,0-0.2,0.1c-0.7,0.4-1.5,0.9-2.1,1.5c-0.2,0.2-0.4,0.3-0.6,0.4
		c-0.2,0.2-0.4,0.3-0.7,0.5c-0.1,0.1-0.2,0.1-0.2,0.2c-0.2,0.2-0.4,0.3-0.6,0.4c-0.2,0.2-0.4,0.2-0.7,0.4c-0.5,0.2-1,0.6-1.5,0.7
		c-1,0.4-2,0.8-2.9,1.2c-0.9,0.3-1.8,0.7-2.7,1.1c-1,0.4-2,0.8-3,1.3c-0.2,0.1-0.3,0.2-0.5,0.2c-1.6,0.7-3.1,1.3-4.7,2
		c-1.2,0.7-2.4,1.5-3.4,2.4c-0.1,0.1-0.2,0.2-0.2,0.2c-0.7,0.5-1.3,1.1-2,1.6c-0.2,0.2-0.5,0.2-0.7,0.4c-0.4,0.2-0.9,0.6-1.3,0.8
		c-0.5,0.3-1,0.7-1.5,1c-1.1,0.8-2.3,1.6-3.4,2.5c-1.1,0.9-2.2,1.8-3.3,2.7c-0.8,0.8-1.7,1.6-2.5,2.5s-1.7,1.7-2.5,2.5
		c-0.9,0.9-1.7,1.7-2.6,2.6c-0.8,0.9-1.7,1.9-2.5,2.8c-1.9,2.2-3.7,4.5-5.2,6.9c-1.2,2.1-2.5,4.3-3.6,6.5c-0.1,0.2-0.2,0.4-0.2,0.7
		c-0.3,0.7-0.7,1.6-1.1,2.3c-0.4,0.8-0.8,1.6-1.2,2.4c-0.2,0.3-0.3,0.7-0.4,1c-0.1,0.1-0.1,0.2-0.2,0.3c-0.2,0.5-0.4,1-0.6,1.5
		c-0.1,0.3-0.2,0.7-0.2,1.1c0.6,0,1.1-0.1,1.7-0.2c0.1,0,0.1,0,0.1,0c0.2,0,0.6-0.1,0.9-0.1c0.9-0.1,1.8-0.2,2.7-0.2
		c0.2-0.3,0.5-0.7,0.8-0.9c0.1-0.4,0.2-0.7,0.3-1.1c0.2-0.7,0.6-1.4,0.8-2.1c0.2-0.5,0.4-0.9,0.6-1.3c0.2-0.6,0.5-1.1,0.7-1.6
		c0.2-0.4,0.4-0.9,0.7-1.4c0.1-0.2,0.2-0.4,0.2-0.6c0.1-0.2,0.2-0.4,0.3-0.7c0.1-0.2,0.2-0.4,0.2-0.6c0.1-0.1,0.1-0.2,0.1-0.2
		c0.2-0.5,0.5-1,0.7-1.5c0,0,0.1-0.1,0.1-0.2c0.1-0.1,0.2-0.2,0.2-0.4c0-0.1,0.1-0.2,0.1-0.2c0.1-0.1,0.2-0.2,0.2-0.4
		c0.9-1.6,1.9-3.1,2.9-4.6c0.2-0.3,0.6-0.7,0.8-1.1c0.8-1,1.6-1.9,2.5-2.8s1.7-1.8,2.6-2.6c0.4-0.4,0.8-0.7,1.2-1.1
		c0.9-0.7,1.7-1.5,2.6-2.1c1.4-1,2.9-1.7,4.6-2.4c0.2-0.1,0.5-0.2,0.7-0.3c-0.3,0.2-0.7,0.4-0.9,0.6c0.1,0,0.2-0.1,0.2-0.1
		c0.2-0.1,0.5-0.2,0.7-0.3c-0.3,0.2-0.6,0.3-0.9,0.6c0.2-0.1,0.3-0.1,0.6-0.2c0.1,0,0.2-0.1,0.2-0.1l-0.1,0.1c0.1,0,0.2-0.1,0.2-0.1
		c0.1-0.1,0.1-0.1,0.2-0.1c0.5-0.1,1-0.2,1.5-0.2c0.2-0.1,0.5-0.1,0.7-0.1s0.5-0.1,0.7-0.1c1,0,2,0,3,0.1c2,0.2,3.9,0.7,5.8,1.6
		c1.2,0.6,2.4,1.2,3.4,2c0,0.1,0.1,0.1,0.1,0.2c0.5,0.4,1,0.8,1.4,1.2c0.1,0.1,0.1,0.1,0.1,0.1c0.2,0.2,0.3,0.2,0.5,0.4
		c0.5,0.5,1.1,1.1,1.5,1.6c0.1,0.1,0.2,0.2,0.2,0.3c0,0,0,0-0.1,0c0,0.1,0.1,0.1,0.1,0.2c-0.1,0-0.1,0-0.1,0c-0.1,0-0.2,0-0.2,0l0,0
		c0.1,0.1,0.2,0.2,0.2,0.3c0,0,0,0-0.1,0c0,0.1,0.1,0.1,0.1,0.2c0,0,0,0-0.1,0c-0.7,0-1.4,0-2.1,0.1c-1.5,0.2-2.9,0.6-4.3,1.1
		c-2.9,1.1-5.5,2.6-7.9,4.3c-0.7,0.4-1.2,0.9-1.8,1.3l-0.9,0.7l-1,0.7h0.1l0.6-0.2c0.1-0.1,0.2-0.1,0.2-0.1l0.4-0.1
		c0.3-0.1,0.7-0.1,1.1-0.2c0.3,0,0.7-0.1,1.1-0.1c2.9-0.2,5.9,0.3,8.6,1.6c0.3,0.2,0.7,0.3,1,0.5s0.7,0.3,1,0.6
		c0.7,0.4,1.2,0.9,1.8,1.3c1.1,1,2,2.1,2.9,3.3s1.6,2.5,2.3,3.8c0.1,0.2,0.2,0.3,0.2,0.5l0,0c0,0.1,0.1,0.1,0.1,0.2
		s-0.1,0.2-0.1,0.3l0,0l0,0c0,0.1,0.1,0.1,0.1,0.2c-0.1,0.4-0.2,0.8-0.3,1.2c-0.1,0.2-0.1,0.5-0.2,0.7c0,0.1,0,0.1,0,0.2
		c-0.1,0.4-0.2,0.8-0.2,1.2c0,0.1,0.1,0.2,0.1,0.2c0,0.1,0,0.1,0,0.2c0,0.2,0.1,0.4,0.1,0.7c0.2,0.8,0.3,1.6,0.5,2.4
		c0.2,0.9,0.4,1.8,0.7,2.7v0.1c0.9,1.5,1.8,2.9,2.5,4.4c0.2,0.6,0.5,1.1,0.7,1.7c0,0.2,0.1,0.3,0.2,0.6v0.1l0,0
		c0.1,0.1,0.1,0.1,0.1,0.2c0.1,0.2,0.1,0.4,0.2,0.6c0,0.1,0,0.1,0,0.1c0.1,0.2,0.2,0.4,0.2,0.7c0,0,0,0.1,0,0.2
		c0,0.2,0.1,0.4,0.1,0.6c0,0.1,0,0.1,0,0.2c0,0.2,0.1,0.4,0.1,0.6c0,0.1,0,0.2,0,0.2c0.1,0.2,0.1,0.3,0.1,0.5s0,0.2,0,0.3
		c0,0.2,0,0.3,0,0.5v0.3c0,0.1,0,0.2,0,0.3c0,0.2,0,0.4,0,0.7c0,0.1,0,0.1,0,0.2c0,0.2,0,0.3,0,0.5v0.1c0,0.3,0,0.6,0,0.9
		c0.1,0.2,0.2,0.2,0.3,0.4c0.7,0.7,1.2,1.5,1.9,2.2c0.4,0.4,0.7,0.7,1.1,1.1c0.7,0.7,1.4,1.2,2.1,1.7c0.8,0.7,1.7,1.2,2.5,1.8
		c0.7,0.5,1.4,0.9,2.1,1.3c0.2,0.2,0.5,0.2,0.7,0.3s0.3,0.1,0.5,0.2c0.3,0.1,0.7,0.1,1.1,0.2c0.8,0,1.7,0.1,2.6,0.2
		c0.9,0.2,1.8,0.2,2.7,0.3c0.4,0,0.9,0,1.3,0c1.6-0.1,3-0.5,4.6-0.7c0.7-0.1,1.4-0.2,2.1-0.2c0.7,0.1,1.4,0.1,2.1,0.2
		c0.2,0,0.6,0.1,0.8,0.1c0.8,0.1,1.6,0.1,2.4,0.1c0.4,0,0.8,0,1.2,0c0.2,0,0.3,0,0.5,0c0.1-0.2,0.2-0.5,0.4-0.7l0.5-0.7l0.5-0.7
		l1-1.5c0.3-0.5,0.6-1,0.9-1.5c0.3-0.5,0.7-1,0.9-1.5l0.8-1.6c0.2-0.2,0.2-0.5,0.4-0.7l0.4-0.8l0.7-1.6c0.2-0.5,0.4-1.1,0.7-1.6
		l0.3-0.8l0.2-0.4l0.2-0.4c0.4-1.1,0.8-2.1,1.1-3.3c1.3-4.4,2.2-9,2.5-13.6c0.1-1.1,0.2-2.2,0.2-3.4c0-7.9-1.6-15.8-4.8-23.1
		c-0.5-1.1-0.9-2-1.5-3c-1.6-3.1-3.3-6-5.2-8.8c-2.7-3.7-5.8-7.2-9.2-10.3c-0.4-0.4-0.8-0.7-1.3-1.1l-2.2-1.9h0.1l0,0l-0.2-0.2h0.1
		h0.1l0.2,0.1l0.2,0.1l-0.6-0.5h0.1l0,0l-0.2-0.2h0.1h0.1l0.2,0.1l1.2,0.3l1.3,0.3l0.4,0.1l0.4,0.2l0.8,0.2c2.2,0.7,4.4,1.6,6.5,2.6
		c2,1.1,4,2.3,5.9,3.7c0.5,0.3,1,0.7,1.4,1.1l1.4,1.1l1.3,1.1c0.4,0.4,0.8,0.8,1.2,1.2c1.6,1.6,3.2,3.4,4.7,5.2l1.1,1.4l1,1.4
		c0.3,0.5,0.7,1,1,1.5l0.5,0.7l0.2,0.4l0.2,0.4l0.9,1.5c0.2,0.5,0.6,1.1,0.8,1.6l0.4,0.7l0.4,0.8l0,0l0.1,0.2c0.2,0.5,0.5,1,0.7,1.6
		c1,2.1,1.8,4.3,2.5,6.5c2,6.1,2.9,12.5,2.9,18.9c0,0.2,0,0.2,0,0.4s0,0.3,0,0.5c0,0.7,0.1,1.2,0,1.8c0,0.6,0,1.1-0.1,1.7
		c0,0.3-0.1,0.7-0.1,1c0,0.2,0,0.5-0.1,0.7c-0.1,0.3-0.1,0.7-0.2,0.9c-0.1,0.2-0.1,0.6-0.2,0.8c-0.1,0.2-0.1,0.2-0.1,0.4
		s-0.1,0.5-0.1,0.7c-0.7,4.3-1.9,8.7-3.4,12.8l0,0c0.1,0,1.2,0.2,1.2,0.3c-0.1,0-0.1,0-0.1,0c-0.1-0.1-0.2-0.1-0.3-0.1s-0.2,0-0.3,0
		c0.3,0.1,0.8,0.2,0.8,0.2c-0.1,0-0.1,0-0.1,0c-0.1-0.1-0.2-0.1-0.3-0.1c-0.3,0-0.6,0-0.9,0c-0.1,0-0.1,0-0.2,0v0.1
		c0.1,0,0.2,0,0.2,0c0.1,0,1.3,0.2,1.2,0.3c0,0,0,0-0.1,0s-0.1,0-0.2,0c0.2,0.1,0.3,0.1,0.3,0.2c0,0,0,0-0.1,0c-0.2,0-0.2,0-0.3-0.1
		c-0.3,0-0.6,0-0.9,0c-0.1,0-0.2,0-0.2,0c-0.1,0-0.2,0-0.2,0.1c-0.4,1-0.8,2-1.3,2.9c0,0.4,0.1,0.8,0.2,1.2c0.2,0.8,0.4,1.6,0.7,2.3
		c0.2,0.7,0.5,1.1,0.7,1.7c0.2,0.4,0.5,0.7,0.7,1.1c0.3,0.5,0.7,1,1.1,1.4c0.5,0.7,1.1,1.1,1.6,1.7c0.5,0.4,1.1,0.9,1.6,1.3
		c0.5,0.4,1.1,0.8,1.6,1.1c-0.1-0.1-0.2-0.1-0.2-0.2c0.4,0.2,0.9,0.5,1.3,0.7c0.6,0.2,1.1,0.5,1.7,0.7c0.7,0.2,1.6,0.5,2.3,0.7
		c1.6,0.2,3.2,0.4,4.7,0.7c1.3,0.2,2.5,0.3,3.8,0.5c1.1,0.2,2.3,0.2,3.4,0.3c1.3,0.1,2.5,0.2,3.8,0.4c0.2,0,0.6,0.1,0.8,0.1
		c0.2,0.1,0.5,0.1,0.7,0.1c0.5,0,1,0,1.5,0c0-0.1,0-0.1,0-0.2c0.7-2.9,2.2-5.4,3.5-8c4.7-9.2,7.3-19.7,7.4-30.2
		c0-3.4-0.2-6.8-0.7-10.1c-0.7-5.2-2.4-10.2-4.6-15c-3.8-7.8-9.2-14.8-15-20.7v-0.1c0,0,0-0.1-0.1-0.1l-0.4-2c0,0,0,0,0.1,0V638
		l-0.1-0.4c0.1,0,0.1,0,0.1,0V637c10.1,5.5,24.2,13.5,29.7,24.5c1.1,2,1.8,4.3,2.1,6.5c1.8,11.9,4.8,14.5,4.8,23.2
		c0,2-0.2,4.3-0.5,6.9c-0.2,1.1-1.2,4-2.7,7.6c0,0.1,0,0.2-0.1,0.2c0,0.1,0,0.2-0.1,0.2c-0.1,0.3-0.2,0.7-0.2,1
		c0,0.1-0.1,0.2-0.1,0.3c-0.1,0.3-0.2,0.7-0.2,1c0,0.1,0,0.1-0.1,0.2c-0.1,0.4-0.2,0.8-0.3,1.1c0,0.3-0.1,0.7-0.1,1.1
		c0,0.2,0,0.3-0.1,0.5c-0.1,0.5-0.1,1-0.2,1.5c-0.1,0.6-0.2,1.1-0.3,1.7c-0.1,0.3-0.2,0.7-0.2,1v0.1c0,0.1,0,0.1,0,0.2v0.1
		c0,0.5-0.1,1.1-0.1,1.6c0,0,0,0,0,0.1s0,0.1,0,0.2s0,0.1,0,0.1s0,0,0,0.1s0,0.1,0,0.1v0.1v0.1c0,0,0,0,0,0.1c0,0,0,0,0,0.1
		s0,0.1,0,0.1s0,0,0,0.1c0,0,0,0,0,0.1v0.1c0,0.2,0,0.4-0.1,0.7c0,0.1-0.1,0.2-0.1,0.2c-0.2,0.6-0.4,1.1-0.7,1.6
		c0,0.1-0.1,0.2-0.1,0.3c-0.2,0.6-0.4,1.1-0.7,1.6c-0.1,0.2-0.2,0.4-0.2,0.7c0,0,0,0.1-0.1,0.1c-0.2,0.4-0.3,0.7-0.5,1.1
		c0,0.1,0,0.1-0.1,0.2c-0.1,0.2-0.2,0.4-0.2,0.6v0.1c0,0.1-0.1,0.2-0.1,0.3c0.1,0.1,0.1,0.2,0.1,0.3c0.1,0.2,0.1,0.4,0,0.6
		c0,0.2,0,0.3,0,0.6c0,0.1-0.1,0.1-0.1,0.2c-0.2,0.2-0.2,0.3-0.4,0.5c0,0,0,0-0.1,0.1l-0.1,0.1l-0.1,0.1v0.1c0.1,0,0.1,0,0.2,0.1
		l0.4,0.2c0.3,0.1,0.6,0.2,0.9,0.2l0.9,0.2l0.9,0.2c0.3,0,0.7,0.1,1,0.1s0.7,0.1,1,0.1l1,0.1c0.3,0,0.7,0,1,0c0.2,0,0.3,0,0.5,0h0.5
		c0.3-0.1,0.7,0,1-0.1c1.3-0.2,2.6-0.3,3.9-0.7c0.7-0.2,1.4-0.4,2.1-0.7l0.5-3.7l3.1-17.3c1.1-5.8,2-11.5,2.4-17.3
		c0.1-0.5,0.1-1.1,0.2-1.6c0,0,0-0.1-0.1-0.1c0-0.1-0.1-0.2-0.1-0.2c-0.1-0.1-0.1-0.2-0.1-0.2c0-0.2,0-0.5,0-0.7
		c-0.1-0.5,0-1,0.2-1.4c0-0.2,0-0.3,0-0.5c0-0.4-0.1-0.9-0.1-1.3c0-0.4-0.1-0.9-0.1-1.3c-0.1-0.5-0.1-1.1-0.2-1.6
		c-0.1-0.3-0.1-0.7-0.2-1.1c0-0.2,0-0.2-0.1-0.4c0-0.1,0-0.2,0-0.2s0-0.2-0.1-0.2c-0.1-0.4-0.2-0.9-0.2-1.3
		c-0.2-0.9-0.2-1.9-0.4-2.8c-0.2-0.9-0.3-1.7-0.5-2.5c-0.2-1.5-0.7-2.9-1.1-4.4c-0.2-0.7-0.4-1.2-0.6-1.9c-0.2-0.6-0.4-1.1-0.7-1.7
		c-0.8-2-1.7-3.9-2.5-5.8c-0.4-0.9-0.7-1.7-1.1-2.6c-0.2-0.3-0.3-0.7-0.4-1c-0.1-0.1-0.2-0.2-0.2-0.3c-0.2-0.5-0.6-1-0.8-1.5
		c-0.7-1.1-1.5-2.4-2.3-3.5c-0.4-0.8-0.8-1.6-1.2-2.3c-0.3-0.5-0.7-1-1-1.5c0.1,0.1,0.1,0.1,0.1,0.1c-0.1-0.1-0.1-0.2-0.2-0.2
		c0.1,0.1,0.1,0.1,0.2,0.2l0,0l0,0c0-0.1-0.1-0.1-0.1-0.2c0.1,0.1,0.2,0.2,0.2,0.2c0.2,0.2,0.2,0.2,0.4,0.4c-0.2-0.3-0.5-0.7-0.7-1
		c0.1,0.1,0.1,0.1,0.1,0.1c-0.1-0.1-0.1-0.2-0.2-0.2c0.1,0.1,0.1,0.1,0.2,0.2l0,0l0,0c0-0.1-0.1-0.1-0.1-0.2
		c0.1,0.1,0.2,0.2,0.2,0.2c0.2,0.2,0.5,0.5,0.7,0.7c1.5,1.3,2.9,2.7,4.3,4c0.2,0.2,0.3,0.2,0.5,0.4s0.4,0.3,0.6,0.5l0,0l0,0l0,0
		l-0.1-0.2l0.1,0.1l0.1,0.2l0.1,0.1l-0.2-0.7l0.1,0.2l-0.1-0.2l0.9,1.5c0.1,0.1,0.2,0.2,0.2,0.3c0.2,0.2,0.4,0.5,0.7,0.7
		c0.1,0.2,0.2,0.4,0.4,0.6c0.4,0.6,0.8,1.2,1.2,1.8c0.6,0.9,1.1,1.7,1.7,2.5c0.7,0.9,1.3,1.7,2,2.7c0.3,0.5,0.7,1,0.9,1.5
		c0.3,0.5,0.7,1,0.9,1.6c0.2,0.2,0.3,0.6,0.5,0.9c0.2,0.3,0.3,0.6,0.4,0.9c0.2,0.6,0.5,1.2,0.7,1.8c0.3,0.7,0.6,1.6,0.8,2.3l0.7,1.1
		l0.7,1.2c0.1,0.2,0.2,0.4,0.3,0.7l0.3,0.7l0,0l0.1,0.2c0.5,1,0.9,2,1.3,3l0.6,1.6c0.2,0.5,0.4,1.1,0.6,1.6c0.7,2,1.2,4.2,1.7,6.3
		c0.9,4.3,1.3,8.6,1.4,12.9c0,0.1,0,0.2,0,0.3s0,0.2,0,0.2c0,0.3,0,0.7,0,1c-0.1,1.8-0.2,3.6-0.4,5.3c-0.2,2.2-0.6,4.3-1.1,6.5
		c-0.2,1.1-0.5,2-0.8,3c0.2-0.1,0.4-0.2,0.6-0.2c0.1-0.1,0.1-0.1,0.2-0.1c1.1-0.5,2-1.2,2.8-2s1.4-1.8,1.9-2.8s1-2,1.3-3.1
		c0.2-0.6,0.3-1.1,0.5-1.6l0.4-1.6l0.3-1.6c0.1-0.6,0.2-1.1,0.3-1.6l0.3-1.6l0.1-0.4l0.1-0.4l0.1-0.8c0.1-0.6,0.2-1.1,0.2-1.6
		l0.2-1.6l0.1-0.8l0.1-0.8v-1.8c0-0.4,0-0.8,0-1.1c0-1.1,0-1.6,0-2.2C900.2,685.9,900.2,684.8,900.1,683.7z"/>
	<path class="st1" d="M812.5,704.8c-0.1,0-0.1,0-0.2,0C812.4,704.8,812.5,704.8,812.5,704.8C812.6,704.8,812.5,704.8,812.5,704.8z"
		/>
</g>
<g>
	<path class="st2" d="M510.5,456.7c-0.2-1.3-0.4-2.6-0.7-3.8c-1.6-6.6-3.1-13.2-3.8-20c-0.1-1-0.2-1.9-0.3-2.9
		c-0.2-1.4-0.4-2.8-0.7-4.2c-0.2-1-0.3-2-0.6-2.9c-0.1-0.3-0.2-0.7-0.2-1.1c-0.1-0.2-0.1-0.3-0.2-0.5c-0.1-0.3-0.2-0.7-0.4-1
		c-0.1-0.2-0.2-0.3-0.3-0.4c-0.1-0.2-0.2-0.2-0.3-0.4c-0.2-0.2-0.2-0.2-0.4-0.4c-0.1,0.3-0.2,0.7-0.3,0.9c-0.1,0.2-0.2,0.5-0.2,0.7
		c-0.2,0.7-0.3,1.1-0.3,1.5c0,0.1,0,0.2,0,0.2c0,0.4,0,0.8,0.1,1.6c0.2,2.7,0.4,5.3,0.4,8l0,0c0,0.9,0,1.9,0,2.8
		c0,2.8,0.1,5.5,0.1,8.3c0,0.8,0,1.6,0,2.5c0,0.2,0,0.5,0,0.7c0,0.6-0.1,1.2-0.1,1.8c0,0.2,0,0.5-0.1,0.7c-0.1,0.8-0.1,1.6-0.2,2.5
		s-0.2,1.8-0.4,2.7c-0.1,0.4-0.1,0.8-0.1,1.2s-0.1,0.7-0.1,1.1s0,0.7,0.1,1c0.2,1.6,0.9,3,2.3,4.3c2.2,0,4.6,0.3,6.9-0.8
		c0.1-0.7,0.2-1.2,0.2-1.8c0-0.2,0-0.4,0-0.6C510.6,457.8,510.6,457.3,510.5,456.7z"/>
	<path class="st2" d="M535.8,436.8c-0.5-0.1-0.9-0.2-1.4-0.2c-0.6-0.1-1.1-0.2-1.6-0.2c-4.3-0.1-7.7-2-10.8-4.7
		c-0.9-0.7-1.3-1.6-1.3-2.6c0-0.2,0-0.3,0-0.5c0.1-0.7,0.2-1.5,0.2-2.2s0-1.2-0.1-1.9c-0.1-0.7-0.2-1.2-0.4-1.9
		c-3.5,1.2-4.5,4.1-4.9,7.2c0,0.3-0.1,0.7,0,1c0,2.1,1,3.8,3,5.1c1.6,0.9,3.1,2,4.7,2.9c2.7,1.6,5.5,3.3,8.3,4.9
		c2-1.1,4.1-2.3,5.6-3.9c0.2-0.2,0.4-0.5,0.6-0.7c0.1-0.1,0.1-0.2,0.2-0.2c0.2-0.2,0.2-0.4,0.4-0.6c0.1-0.1,0.1-0.2,0.2-0.2
		c0.2-0.2,0.3-0.6,0.5-0.8c0.2-0.3,0.3-0.7,0.4-1.1c-0.7,0.2-1.5,0.7-2.2,0.7C536.7,437,536.3,436.9,535.8,436.8z"/>
	<path class="st2" d="M545.4,375.9c-0.2-0.4-0.6-0.7-1.2-1.5c0,0.4-0.1,0.8-0.1,1.1c0,0.4,0,0.7,0,1.1c0,0.8,0.1,1.6,0.1,2.4
		c0,0.4,0,0.7,0.1,1.1c0,0.3,0,0.7,0,1c0,0.1,0,0.2,0,0.2c0,0.3,0,0.7,0,1c0,0.1,0,0.1,0,0.2c0,0.3-0.1,0.6-0.1,0.9
		c0,0.1,0,0.1,0,0.2c-0.1,0.3-0.1,0.7-0.2,1c0,0.1,0,0.2-0.1,0.2c-0.1,0.3-0.2,0.7-0.3,1l0,0c-1.6-0.4-3-0.9-3.1-3
		c-0.1-1.7-0.4-3.5-0.8-5.2c-0.4-1.4-0.9-2.9-1.7-4c-3-4.3-6.9-7.8-12-9.6c-1.8-0.7-3.6-1.1-5.5-1.6c-1.8-0.5-3.7-0.9-5.6-1.2
		c-1.2-0.2-2.5-0.4-3.8-0.5c-2.5-0.2-4.8-0.3-7.3-0.3c-1,0-2,0-3,0c-0.9,0-1.8,0.1-2.7,0.1c-0.2,0-0.6,0-0.8,0.1
		c-0.7,0-1.3,0.1-2,0.2c-0.2,0-0.5,0-0.8,0.1c-0.9,0.1-1.8,0.2-2.7,0.2c-7.1,0.7-13.9,2.5-20.3,5.7c-0.8,0.4-1.8,0.9-2.2,1.6
		c-1.4,2.3-2.8,4.6-3.8,7c-0.9,2.1-1.2,4.4-0.7,6.7c0.2,1.4,0.6,2.8,0.8,4.2l0,0l0,0c-4.7,0.4-6.8-1.6-8.3-8.3
		c-1.1,3.4-0.8,6.2,0.4,8.9c0.3,0.6,0.7,1.1,1.2,1.6c3.2,2.6,6.8,3.8,10.8,2.6c0.5-0.2,1-0.3,1.4-0.5c0.1-0.1,0.2-0.1,0.3-0.2
		c0.5-0.2,1-0.3,1.4-0.6c0.3-0.2,0.7-0.3,1.1-0.5c1.4-0.7,2.7-1.5,3.9-2.5c0.7-0.5,1.4-1,2.1-1.3c0.6-0.2,1.1-0.5,1.7-0.7
		c0.3-0.1,0.7-0.2,1-0.3c0.3-0.1,0.7-0.2,1.1-0.3c7.1-1.6,14.1-3,21.3-2.5c0.6,0,1.1,0,1.6,0c7.9-0.1,15.7,1.1,23.4,3.1
		c4,1.1,7.9,2.4,11.2,5.2c0.4,0.3,0.9,0.6,1.4,0.8c0.2,0.2,0.5,0.2,0.7,0.3h0.1c0.2,0.1,0.5,0.1,0.7,0.2c0.1,0,0.1,0,0.2,0
		c0.2,0,0.5,0,0.7,0h0.1c0.2,0,0.5-0.1,0.7-0.2s0.2-0.1,0.4-0.2c0.6-0.3,1.1-0.9,1.6-1.6c0.8-1.5,1.1-3,0.5-4.7
		C547.3,381.7,546.4,378.9,545.4,375.9z"/>
	<path class="st2" d="M489.1,422.2c-0.6,2.5-0.8,4.3-1.3,6c-0.7,2.5-1.4,5.1-2.3,7.6c-0.3,0.9-1.1,1.9-1.9,2.5
		c-2.5,1.7-5.2,3-8.3,3.2c-0.4,0-0.9,0-1.4,0c-0.2,0-0.4,0-0.7,0c-0.7,0.1-1.4,0.2-2.3,0.3c0.1,1.1-0.2,2,0.2,2.9
		c0.3,0.9,1.1,1.4,2,1.6c0.1,0,0.2,0,0.2,0.1c0.1,0,0.2,0,0.2,0.1c0.8,0.1,1.6,0.2,2.4,0.2c0.2,0,0.5,0,0.8,0
		c6.5-0.6,11.1-4.1,14.4-9.6c1.6-2.5,1.6-5.3,1.4-8.2C492.6,426.3,490.6,424.8,489.1,422.2z"/>
	<path class="st2" d="M624.4,191.7c-0.9,1.6-0.7,3.1-0.7,4.6c-0.2,4-1.9,7.5-4.3,10.6c-0.8,1.1-1.8,2-2.9,2.7
		c-5,3.3-10.6,4.1-16.4,4.3c-0.8,0-1.6-0.2-2.4-0.4c-5.3-2-10.4-4.3-13-9.9c-0.2-0.5-0.7-0.9-0.9-1.2c-0.7,0-1.3-0.1-2-0.1
		c-0.4-2-0.7-3.8-1.1-5.6c-0.1-0.3-0.5-0.7-0.8-0.7s-0.8,0.3-0.9,0.6c-1,3.6-1.1,7.2,0.5,10.5c2.5,5.2,6.4,8.8,11.9,10.6
		c1.4,0.5,2.9,0.5,4.3,0.8c5.2,1.4,10.3,0.8,15.2-1.4c1.5-0.7,2.9-1.2,4.4-1.9c8.5-3.8,8.6-6,11-12.3c0.1-0.2,0.2-0.5,0.2-0.7
		C627.1,198.4,626.7,195,624.4,191.7z"/>
	<path class="st2" d="M611.2,204.6c1.4-0.4,5.9-4.5,6.5-5.8c0.1-0.2,0.2-0.5,0.2-0.7c0.7-3.4-0.9-7.2-3.9-8.9c-1.5-0.8-3-1-4.7-0.4
		c-3,1.1-5.2,4.3-5.1,8.4c0.2,0.9,0.5,2.8,1.1,4.5C606,203.8,609.2,205.1,611.2,204.6z"/>
	<path class="st2" d="M398.6,210c0.5-0.1,1.1-0.2,1.6-0.3c1.5-0.6,2.9-1.2,4.4-1.8c1.2-0.5,2-1.4,2.1-2.7c0.2-1.5,0.4-2.9,0.5-4.3
		c0.1-1.7-0.9-3-2.6-3.7c-1.2-0.5-2.5-1.1-3.7-1.4c-0.8-0.2-1.8-0.1-2.9-0.2c0,3.6,0.1,3.7-2.1,5.6c-1.5,1.3-2,2.7-2,4.6
		C393.8,209,395.4,210.4,398.6,210z"/>
	<path class="st2" d="M417,194.6c-0.4-0.3-0.8-0.7-1.3,0c0.7,1.1,1.5,2.2,2,3.4c0.7,1.7,1.6,3.6,1.6,5.3c-0.2,5-1.5,9.8-5.2,13.5
		c-1.4,1.4-3,2.7-4.6,3.9c-5.6,4.3-11.9,5.2-18.6,3.1c-5.4-1.7-9.3-5.1-11-10.7c-0.9-2.9-2-5.8-3.2-9c-0.8,1.2-1.7,2.1-1.8,3
		c-0.5,3.9-0.1,7.8,2.6,11c4.6,5.2,10.1,9.1,16.8,11.3c1.7,0.6,3.4,0.7,5.2,0.7c3.6-0.1,6.7-1.6,9.9-3c3.4-1.5,5.7-3.8,7.4-7
		c1.6-2.9,3.1-5.9,4.7-8.9c0.9-1.7,1.1-3.5,1.1-5.4C422.3,201.2,420.6,197.5,417,194.6z"/>
</g>
</svg>
