<?xml version="1.0" encoding="utf-8"?>
<!-- Generator: Adobe Illustrator 24.0.1, SVG Export Plug-In . SVG Version: 6.00 Build 0)  -->
<svg version="1.1" id="Layer_1" xmlns="http://www.w3.org/2000/svg" xmlns:xlink="http://www.w3.org/1999/xlink" x="0px" y="0px"
	 viewBox="0 0 990 781.2" style="enable-background:new 0 0 990 781.2;" xml:space="preserve">
<style type="text/css">
	.st0{fill:#DBAC31;}
	.st1{fill:#54555A;}
	.st2{fill:#B5B5B5;}
	.st3{fill:#FFFFFF;}
</style>
<g>
	<path d="M189.4,727.3c-0.4,2-0.7,3.5-1.1,5c-0.6,2.7-1.6,5.2-3.5,7.2c-0.3,0.3-0.6,0.8-0.8,1.2c-1.5,2.3-3.2,3.1-5.9,2.4
		c-5.6-1.5-10.7-4.1-14.7-8.5c-4.3-4.7-8.5-9.4-11.7-14.8c-0.8-1.3-1.8-2.4-3.2-3.2c-7.8-4.3-13.2-11-17.8-18.4
		c-0.5-0.8-1-1.6-1.4-2.5c-3-7.9-5.4-15.9-5-24.5c0.4-8.7,1.4-17.2,4.1-25.5c2.2-6.7,5.7-12.5,10.8-17.3c1.6-1.5,3.1-3,4.8-4.3
		c6.1-4.8,12.1-9.7,18.3-14.3c13.2-9.8,28-15.5,44.3-17.7c12.2-1.7,24.2-1,36.3,0.8c4.2,0.6,8.4,1.4,12.5,2.4c1.3,0.3,2,0,2.7-1.1
		c4.9-7.6,9-15.6,12.4-24.1c4.1-10.3,8.7-20.3,13.4-30.2c3-6.3,6.7-12,11.4-17.1c4.6-5.1,8.5-10.8,12.1-16.7
		c1.5-2.4,2.8-4.9,4.4-7.2c3.9-5.8,5.6-12.3,6.7-19.1c1.3-8.6,2.2-17.3,3.7-25.9c0.2-1,0.2-2.1-0.1-3.1c-2.4-7.4-2.3-14.9-1.9-22.6
		c0.6-9.5,1.4-19,1.2-28.5c-0.1-3.8-0.3-7.7-0.5-11.5c-0.1-1.2-0.4-2.4-0.9-3.4c-2.5-5.1-4.5-10.4-6.4-15.8c-0.3-1-0.5-2-1.5-2.9
		c-0.7,0.7-0.8,1.5-1,2.3c-2.5,9.4-5,18.8-8.6,27.9c-3.1,7.8-6.7,15.4-10.2,23c-2.2,4.8-4.5,9.6-6.7,14.3c-2.7,5.7-6.8,10-12.2,13.2
		c-1,0.6-2.1,1.1-3.2,1.5c-5.3,1.7-10.1-0.4-12.2-5.5c-2-5-3.7-10-5.2-15.2c-1-3.3-0.8-6.7-0.4-10c0.4-3.7,0.6-7.3,0.7-11
		c0.2-5,0.7-9.9,1.4-14.8c0.3-2.3,0.1-4.4-0.8-6.5c-3.3-7.8-5.2-16.1-7.2-24.3c-1.6-6.8-3.9-13.4-7.6-19.3c-1.1-1.7-2.3-3.3-3.7-4.7
		c-2.9-3-5.8-6-8.6-9c-14.8-16.2-25-34.9-30.9-55.9c-2.3-8-4.7-15.9-6-24.2c-1.1-7-1.8-14-0.8-21c1.1-7.9,4.5-14.6,10.7-19.8
		c2.6-2.2,5.2-4.3,7.7-6.5c4.3-3.6,7.8-7.8,10.6-12.6c1.9-3.3,3.8-6.7,5.8-10c7.4-12.3,17.1-22.3,29.3-29.9c7-4.4,14-9,20.5-14.1
		c3.9-3.1,7.6-6.4,11.1-9.8c6-5.9,10.5-12.9,13.2-20.9c2.6-7.5,6.8-13.9,12.3-19.5c5.9-6.1,12.8-10,21.3-11c2.8-0.3,5.5-0.9,8.3-1.2
		c5-0.6,9.6-2.5,13.6-5.5c2.2-1.6,4.3-3.3,6.5-5c10.8-8.5,22.8-14.7,36.3-17.8c5.6-1.3,11.4-1.8,17.1-2c5.4-0.2,10.9-0.6,16.3-0.6
		c4.9,0,9.7-0.8,14.6-1.1c10.1-0.7,20.2-1.9,30.4-1.8c1.5,0,3-0.2,4.5-0.6c12.3-3.3,24.7-3.9,37.3-2.8c7,0.6,13.9,2.2,20.9,2.8
		c4.6,0.4,9,1.1,13.5,2.2c6,1.4,12.1,0.8,18.1,0.3c9.9-0.9,19.7-2,29.7-1.3c12.8,0.9,24.7,4,35.2,11.8c3.3,2.4,6.7,4.6,10.1,6.9
		c1.1,0.7,2.2,1.4,3.1,2.3c2.3,2.2,5.1,3.6,8.1,4.5c5.4,1.8,11,2.6,16.6,3.7c3.7,0.7,7.3,1.8,10.8,3c8.2,3,14.7,8.1,19.6,15.2
		c1.7,2.4,3.2,5,4.7,7.5c4.5,7.6,10.2,14.1,17.1,19.6c8.7,6.9,17.9,12.8,28.1,17.3c7.2,3.2,14.2,6.6,21.5,9.6
		c4.7,2,9.2,4.5,13.6,7.1c13.5,8,22.7,19.4,27.9,34.2c4.1,11.8,6.5,23.9,7,36.3c0.2,5.6,0.4,11.2,0.1,16.8
		c-0.7,11.8-3.5,23-9.2,33.5c-8.7,15.9-18.6,31-30.4,44.8c-4.1,4.8-7.7,10-11.2,15.3c-2.5,3.8-4.1,8.1-5.4,12.5
		c-2.3,8.3-4.2,16.7-5.7,25.2c-1.2,7.1-3.6,13.9-6.9,20.4c-1.7,3.3-2.9,6.7-3.8,10.3c-2,8.6-5.8,16.2-11.4,23
		c-1.4,1.7-3,3.3-4.8,4.6c-4.4,3.1-9.1,3.7-14.1,1.9c-3.7-1.4-6.7-3.6-9.6-6.3c-3.8-3.6-6.8-7.9-9.1-12.5
		c-3.7-7.4-6.9-14.9-9.1-22.9c-1-3.6-2.4-7.1-4.1-10.5c-0.3-0.6-0.5-1.2-1.1-1.5c-0.8,0.3-0.6,0.9-0.6,1.5
		c0.4,6.5,0.1,12.9-0.1,19.4c-0.1,4.3,0.7,8.4,1.1,12.6c0.9,8.8,1.1,17.7,0.9,26.6c-0.1,4.2,0.4,8.2,1.6,12.3
		c2.6,8.7,4.3,17.7,6.6,26.5c2.4,9.4,5,18.7,8.5,27.7c2.7,7,6.3,13.4,10.9,19.3c4.5,5.7,8.7,11.7,12.8,17.6
		c6.8,9.9,11,20.9,13.7,32.5c1.2,5.3,3.1,10.2,6.1,14.7c1.6,2.3,3.2,4.6,4.7,6.9c0.7,1.2,1.6,1.5,3,1.4c6-0.2,12-0.3,18,0.3
		c9.4,1,18.5,3.3,27.4,6.5c14.1,5.1,26.2,13.6,38.3,22.1c0.7,0.5,1.2,1,1.7,1.7c5.6,7,10.8,14.3,15.3,22.1c1.8,3.1,3.3,6.2,4.7,9.5
		c1.9,4.5,2.3,9.1,1.6,13.9c-1.3,9.6-4.1,18.7-7.5,27.7c-1,2.6-2.6,4.8-4.2,7c-3.8,5.4-8,10.4-13.9,13.7c-2.2,1.2-4,2.9-5.3,5.1
		c-3.1,5.4-7.4,9.8-11.6,14.4c-3.9,4.2-8.8,6.5-14.2,8c-2.7,0.7-4.2-0.3-6-2.4c-3-3.6-4.4-7.7-5.1-12.2c0-0.2-0.2-0.4-0.3-0.6
		c-0.8-0.1-1.1,0.5-1.6,0.9c-1.7,1.6-3.4,3.3-5.2,5c-1.3,1.2-2.6,2.3-4.2,3.2c-3.7,2.3-7.4,1.5-9.7-2.3c-1.5-2.5-2.2-5.3-2.9-8.1
		c-0.5-2.4-0.6-4.8-0.4-7.2c0.1-1.7-0.6-2.9-1.9-3.8c-1.6-1.1-3.3-2-5-2.8c-4.2-1.8-6.9-4.8-8.2-9.1c-0.8-2.4-1.5-2.6-3.3-0.7
		c-1.9,1.9-3,4.3-3.8,6.9c-1.9,6.1-5.4,11.1-10.4,15.2c-4,3.3-9.2,1.5-11.5-2c-1.9-3-2.9-6.2-3.4-9.6c-0.1-0.4-0.1-0.8-0.1-1.2
		c-0.1-2.2-1.2-3.8-3.1-4.7c-5.6-2.8-9.6-7.3-13.9-11.6c-1.1-1.1-2-2.3-2.5-3.8c-0.3-0.9-0.9-1.3-1.8-1.2c-0.6,0-1.3,0-1.9,0
		c-138.5,0-277,0-415.6,0c-0.5,0-1,0-1.4,0c-1.2-0.1-1.9,0.2-2.4,1.5c-0.5,1.5-1.6,2.8-2.7,3.9c-2.7,2.7-5.4,5.4-8.4,7.9
		c-1.4,1.2-3,2.1-4.6,3c-2.4,1.2-3.6,2.9-3.8,5.6c-0.2,3.5-1.2,6.7-3.1,9.7c-0.9,1.4-1.9,2.6-3.4,3.3c-2.7,1.3-5.3,1.5-7.9-0.4
		c-5.3-3.9-8.8-9.2-10.9-15.4c-0.7-2.1-1.4-4.2-2.9-6c-0.3-0.4-0.6-0.8-0.9-1.1c-1.8-1.9-2.5-1.7-3.3,0.7c-1.4,4.3-4.1,7.3-8.2,9.1
		c-1.7,0.7-3.3,1.6-4.8,2.6c-1.6,1-2.3,2.3-2.1,4.2c0.4,4.6-0.5,8.9-2.3,13.1c-0.7,1.6-1.5,3-2.9,4c-2.3,1.7-4.6,2-7.2,0.5
		c-2.4-1.4-4.4-3.2-6.3-5.1C193,730.7,191.4,729.2,189.4,727.3z"/>
</g>
<g>
	<path class="st0" d="M403.6,222.4c-0.7,0.3-1,0.9-1.2,1.5c-1.5,3.5-4.2,5.6-7.7,6.9c-3.1,1.2-6.3,2-9.6,2.1
		c-6,0.2-10.9-1.9-14.2-7.2c-0.4-0.6-0.5-1.4-1.4-1.8c0.2,2.4,1.2,4.3,2.4,6.1c3.7,5.4,8.6,8.5,15.4,7.7c6.5-0.7,11.9-3.4,16-8.7
		c1.1-1.5,2.3-2.9,2.9-4.7c0.2-0.7,0.7-1.6,0.1-2.1C405.4,221.6,404.4,222,403.6,222.4z"/>
	<path class="st0" d="M619.3,225.1c-2.5,4.4-6.2,7.1-11.3,7.6c-5.9,0.6-11.4-0.7-16.4-3.8c-1.7-1.1-3-2.7-3.9-4.5
		c-1.2-2.4-1.6-2.6-4.4-2.1c0,1.4,0.4,2.7,1.1,3.8c4.5,7.4,11,11.4,19.7,11.8c1.7,0.1,3.4-0.1,5-0.7c6.2-2.5,10-6.9,11.5-13.8
		C619.7,224,619.5,224.6,619.3,225.1z"/>
</g>
<g>
	<path class="st1" d="M424.3,495c0.8-0.2,1.5-0.4,2.1,0.3c0.1,0.1,0.3,0.3,0.4,0.4c0.4-0.1,0.8-0.3,1.2-0.4
		c8.8-3.3,16.8-7.9,22.9-15.3c0.7-0.9,1.5-1.8,2.4-2.6c1.5-1.3,2.6-3.1,4.5-4c2.1-1,3.9-2.4,5.4-4.2c1.1-1.3,2.5-2.3,4-3
		c2.4-1.1,4.7-2.3,7.2-3.1c1.1-0.3,2.2-0.9,3.1-1.6c1.1-0.9,2.4-1.6,3.7-2.2c3.6-1.7,5.6-5,7.8-8.1c0.6-0.8,0.8-1.9,0.8-2.9
		c0.2-3.4-0.2-6.7-1.4-9.9c-0.2-0.6-0.6-1.2-1-1.7c-1-1.1-2.3-1-3.2,0.2c-0.3,0.5-0.6,1-0.7,1.6c-0.4,2.7-1.1,5.1-2.8,7.5
		c-3.4,4.7-6.6,8.9-13.2,9.2c-5.3,0.2-9.9,2.6-13,7.3c-0.7,1.1-1.5,2.2-2.8,2.8c-1.2-2.6-0.9-4.4,1.5-6.6c1-1,1.5-1.9,1.3-3.3
		c-0.2-2.3,0-4.7,1.4-6.6c2.3-3,1.4-5.2-1-7.6c-2.4-2.3-4-5.2-4.7-8.6c-1.2-5.5,0.7-9.9,5.5-12.7c0.2-0.1,0.4-0.2,0.5-0.8
		c-1.1-0.6-2.2-1.2-3.4-1.8c-5.7-2.6-10.3-6.4-14.3-11c-1.1,0.8-2,2.1-2.6,3.5c-1.5,3.4-1.5,6.9-1,10.4c-0.1,0.1-0.2,0.2-0.2,0.3
		c0,0.1,0,0.1,0,0.2c0,0,0,0,0,0.1c0,0,0,0.1,0.1,0.1c0,0,0,0,0,0.1c0,0.1,0.1,0.1,0.1,0.2c0.1,0.1,0.1,0.1,0.2,0.2
		c0.1,0.6,0.2,1.2,0.3,1.8c0.4,1.8,0.9,3.6,1.8,5.2c0.3,0.5,0.3,1.2,0.2,1.7c-0.2,2.1,0.1,4.2,0.4,6.3c0.1,0.7,0.3,1.4-0.2,2.2
		c-0.9,1.3-1,2.9-0.8,4.4c0.2,1.6-0.5,2.4-1.8,3.1c-2.8,1.5-4.6,3.9-5.7,6.9c-0.7,2-0.4,4.1-0.5,6.2c-0.1,2,1.1,3.6,1.1,5.6
		c0.2,0.6,0.1,1.1-0.5,1.4c-0.8,1.4-2.4,1.5-3.4,2.6c-0.2,0.1-0.4,0.2-0.6,0.3c0,0,0,0,0,0c0,0.1,0,0.2-0.1,0.3
		c-0.2,0.5-0.6,0.7-0.9,1c-0.2,0.1-0.3,0.2-0.4,0.3c-2,1.9-3.9,3.8-4.4,6.7c-0.4,1.5-1,0.4-1.6,0.1c-0.7-0.1-1.5-0.3-2.2-0.3
		c-2.8-0.2-5.2,0.6-7.1,2.8c-0.5,0.6-0.7,1.2-0.9,1.8c-0.1,0.6-0.1,1.3-0.1,1.9c0,0.4,0,0.9,0,1.3c0.1,0.2,0.2,0.3,0.3,0.5
		c0.8,2.5,2.2,4.3,4.3,5.3c0.7,0.3,1.5,0.6,2.4,0.7c0.8,0.1,1.4,0.5,1.9,1.1C418.5,495.1,421.2,495.9,424.3,495z"/>
	<path class="st1" d="M572.9,492.3c-0.2-0.3-0.5-0.6-0.9-0.8c-0.5,0.1-1,0-1.5-0.3c-1.8-0.1-3-1.2-3.4-2.9c-0.5-2.3-1.4-4.3-2.7-6
		c-1.3-1.7-3-3.1-5.1-4.1c-0.3-0.1-0.5-0.4-0.8-0.6c-1.4-1.2-2.2-2.8-2-4.7c0.1-0.9,0.2-1.8,0.4-2.7c0.4-2.1-0.3-3.8-1.6-5.3
		c-0.4-0.5-0.9-1-1.4-1.4c-2.9-2.6-4-5.7-3.1-9.5c0.9-3.6,1.7-7.2,2.6-10.8c-0.2-0.3-0.2-0.7,0.1-1c-0.2-0.9-0.1-1.7,0-2.6
		c-0.2-0.3-0.2-0.6-0.1-1c-0.9-2.9-1.7-5.7-3.5-8.3c-1.2-1.8-0.8-3.7,0.2-5.5c0.3-0.6,0.7-1.1,1.2-1.6c2.4-2.9,3.3-6.2,2.4-9.9
		c-0.3-1.3-0.3-2.5,0-3.8c0.4-1.8,0.8-3.6,1.2-5.4c-0.2-0.8-0.2-1.7,0-2.5c0-0.3-0.1-0.6-0.2-1c-0.1-0.3-0.1-0.6-0.2-0.9
		c-0.2-0.6-0.3-1.2-0.5-1.8c-2,3.8-4.4,7.4-6.9,11c-0.9,1.3-2.2,2.3-3.4,3.4c-1.7,1.5-3.4,3.1-5.1,4.5c-0.9,0.8-0.9,1.4-0.2,2.3
		c2.1,2.7,2.6,5.6,1.2,8.8c-0.4,0.9-0.6,1.9-0.5,3c0.3,2.8-0.1,5.6-1.3,8.2c-0.6,1.3-0.3,1.9,0.8,2.7c4.7,3.6,5.9,10.1,2.7,15.2
		c-0.4,0.6-0.6,1.1-1.6,0.7c-1.2-0.5-2.3-0.1-3.4,0.5c-1.6,0.8-3.3,1.3-5,1.7c-1.1,0.2-2.2,0.4-3.2-0.4c-3.4-2.8-7.5-4.1-11.6-5.5
		c-5.1-1.7-8.7-5-11.2-9.7c-0.8-1.5-1.1-2.9-0.4-4.6c0.7-1.8,0.4-2.8-0.9-3.8c-1.1-1-2.3-0.9-2.9,0.4c-1.4,3.3-2.8,6.5-2.1,10.2
		c0.3,1.7,0.4,3.4,0,5c-0.4,1.7,0.3,2.7,1.5,3.7c2.1,1.7,4.5,3,6.9,4.2c4.6,2.2,9.3,4.3,13.9,6.7c10.7,5.4,20.4,12.2,28.7,21
		c2.6,2.7,5.5,5,8.4,7.3c2.6,2.1,5.4,3.8,8.4,5.1c0.4-0.3,0.7-0.7,0.8-1.2c0.5-2.1,1.7-2.4,3.4-2.3c0.3,0,0.6-0.1,1-0.2
		c0.3-0.1,0.6-0.2,1-0.3c0.3-0.8,0.5-1.5,0.4-2.1C573.2,492.9,573.1,492.6,572.9,492.3z"/>
	<path class="st1" d="M532.6,490c-0.8,0.4-1.6,1.2-2.5,1.3c-2.9,0.3-4.9,2.1-7,3.8c-3.4,2.6-7.2,3.9-11.5,4c-4.2,0-8.2-0.7-12.1-2.3
		c-3.5-1.4-7.1-2.8-10.6-4c-3.7-1.3-7.6-2.3-11.6-2.5c-6.1-0.3-11.8,0.7-16.4,5.1c-0.7,0.7-1.6,1.3-2.5,1.8c-3.1,1.7-6.2,1.9-9-0.4
		c-1.1-0.8-1.6-0.4-2.3,0.2c-6.1,5.3-13.3,8.6-20.7,11.3c-3,1.1-6,1.6-9.1,1.5c0.4,0.1,0.9,0.2,1.4,0.2c5.5,0.2,10.9,1,16.4,0.5
		c4-0.4,8.1-1.2,11.5-3.6c2.7-1.9,5.6-2.9,8.6-4.1c3.2-1.2,5.9-0.7,8.6,0.8c0.7,0.4,1.4,0.9,2.2,1.3c4.2,2.1,8.5,3.6,13.2,4.2
		c3.4,0.4,6.7,0,10.1,0c7.4-0.1,14.8-0.1,22.2-1.1c3.2-0.5,6.5-0.7,9.8-1.2c4.3-0.7,8.2-2.5,11.8-4.9c0.9-0.7,1.8-1.4,2.7-2
		c0.8-1.6,2.1-3,3.7-4.1c0.1-0.1,0.3-0.2,0.4-0.3c0.4-0.3,1.1-0.4,1.4-1.4c-1.3-1.2-2.7-2.5-4.2-3.8
		C535.5,489.1,534.4,489,532.6,490z"/>
	<path class="st1" d="M439.8,381.9c2.7,1.7,5.4,3.3,8.6,4.1c4.2,1,8.5,1.4,12.8,0.6c0.8-0.2,1.7-0.3,2.2-1.2
		c-2.3-2.4-3.2-5.7-5.2-8.3c-0.6-0.8-0.9-1.8-0.6-2.9c1.4-4.5,4.2-7.8,8.8-9c3.5-0.9,7.1-0.3,10.3,1.6c2.2,1.3,4.2,3.1,6,5
		c0.9,0.9,1.9,2.1,1.7,3.3c-0.4,2.3,0.2,4.8-0.6,7c-1.3,3.6-2.4,7.3-4.1,10.7c-2.3,4.8-6.3,8.1-11.7,9.4c-6,1.4-11.9,1.4-17.6-1.2
		c-1.6-0.7-3.3-1-5.1-1.3c0.1,1.1,0.9,1.5,1.5,2.1c3.8,4.2,8.5,7.2,13.6,9.6c4.1,2,8,4.3,11.7,7c1.4,1.1,2.9,2,4.4,3
		c2.6,1.7,5.1,1.4,7.6-0.1c1.1-0.7,2-1.5,3.1-2.2c1-0.6,1.5-1.5,1.6-2.7c1-9.1,2.9-18,3.3-27.1c0-0.4-0.1-1,0.4-1.3
		c0.1,0.3,0.2,0.5,0.3,0.7c1.7,9.5,3.6,18.9,4.6,28.5c0.4,4,1.8,5.5,5.8,6.1c2.5,0.3,5,0.3,7.6,0.4c0.4,0,0.9,0,1.2-0.3
		c2.2-1.7,5-2.4,7-4.4c1.6-1.6,3.5-2.9,5.4-4.2c5.4-3.5,9.9-8.2,15.1-11.9c0.9-0.7,1.8-1.6,2.5-2.4c0.8-1,1.7-2,2-3.6
		c-2,0.8-3.8,1.5-5.6,1.8c-1.8,0.3-3.7,0.5-5.5,0.7c-2.8,0.3-5.6,0.4-8.3,1c-7.3,1.5-12.3-2.4-16.9-7.1c-2.2-2.2-3.4-5.1-4.1-8
		c-1.5-5.8-1.4-11.4,2-16.6c4-6.3,10.5-7.8,16.9-4.1c6.6,3.8,8.1,11.6,3.2,17.5c-1,1.2-2.1,2.2-3.2,3.2c-1.5,1.5-1.4,2.4,0.5,3.4
		c0.5,0.3,1.1,0.4,1.7,0.6c3.5,0.9,7,1.7,10.4,3c3.3,1.3,6.5,0.7,9.6-0.4c0.9-0.3,1.4-0.9,1.6-1.8c0.5-2,1-3.9,1.6-5.9
		c2.8-8.7,4.1-17.7,4.2-26.9c0-1.5-0.3-3-0.8-4.5c-3.7-9.6-11.1-15.9-19.9-20.3c-6.6-3.3-13.8-5.4-21.1-7c-2.9-0.6-5.8-1.2-8.7-1.4
		c-7.3-0.5-14.3,1.4-21.1,3.6c-6,2-12.1,3.6-18.4,4.5c-2,0.3-3.9,0.9-5.7,1.9c-2.7,1.6-2.8,2.9-0.2,4.7c0.6,0.4,1.3,0.7,2.1,0.9
		c2.2,0.6,4.4,0.8,6.7,0.1c4.3-1.2,8.6-2.4,13.1-2.9c4.9-0.6,9.6-1.7,14.6-1.8c9.1-0.1,18,1.3,26.8,3.1c3.3,0.7,6.7,1.6,9.4,4
		c1.2,1,1.4,2.2,1.2,3.6c-0.2,1.2-1,1.9-2.2,2.1c-4.4,0.8-8.7,0.9-12.9-1.1c-2-1-4.2-1.4-6.3-1.6c-3.9-0.4-7.7-0.8-11.6-1.2
		c-2.1-0.2-4.2-0.2-6.3-0.1c-6,0.4-11.9,1.4-17.7,2.8c-1,0.2-2,0.3-3,0.2c-2.2-0.3-4.6-0.2-6.7,0.2c-5.9,0.9-11.6,3-16.8,6.2
		c-8.9,5.5-11.6,17.6-8.8,25.4C438.1,380.2,438.7,381.2,439.8,381.9z"/>
	<path class="st1" d="M352.8,210.1c1.8-2,3.6-4,5.5-6c3.5-3.6,8.1-5.2,12.7-6.4c3.3-0.8,6.5-1.7,9.8-2.4c6-1.3,12.1-1.2,18,0.5
		c2.5,0.7,4.6,2.1,6.5,3.8c2.4,2,4.8,4,7.3,6.1c0.3-0.9-0.1-1.4-0.3-2c-0.4-1.5-0.8-3.1-0.9-4.7c-0.2-3.8,2.7-10.3,3.2-11.4
		c0.1-0.2,0.2-0.4,0.4-0.5c-0.8-0.6-1.7-1.1-2.5-1.6c-2.5-1.7-5.1-3-7.8-4.1c-2.2,2.5-5.3,4.2-9,4.6c-2.5,0.3-5.1,0-7.6-0.3
		c-4.4-0.6-8.8-1.2-13.3-0.2c-3.7,0.8-7.1,2.2-9.9,4.7c-2.7,2.4-5.4,4.8-7.5,7.8c-0.1,0.2-0.3,0.4-0.5,0.6c-1.6,1.8-3.5,2.6-5.8,1.9
		c-1.7,2.9-3.3,5.9-5.5,8.5c-0.4,0.5-0.5,1-0.5,1.6c-0.2,1.6-0.7,3-1.3,4.5c-0.7,2-2.7,3.3-2.9,5.7c-0.2,1.7-0.8,3.3-1.3,4.9
		c-0.7,2.2-0.7,4.4-0.7,6.7c0,0.6,0,1.2,0,1.8c0.2,0.3,0.3,0.6,0.1,1c0.1,0.2,0.2,0.4,0.3,0.6c0.2,0.7,0.3,1.4,0.3,2
		c0.2,1.8,0.9,3.3,2.1,4.4c0.6-1.6,1.9-2.7,4.2-3.2c1.1-0.2,4.7,0.1,5.6,1.3c2.1,3.1,4.3,6.1,6.8,8.8c1.5,1.7,3.4,2.7,5.8,2.8
		c1.2,0,2.4,0.1,3.5,0.2c4.7,0,8.2,2.2,10.6,6.2c0.6,0.9,0.8,2.4,1.8,2.6c0.8,0.2,1.9-0.6,2.8-0.9c1-0.3,1.9-0.7,2.9-1
		c2.3-0.7,2.3-0.7,4-3.6c-6.7,0.4-12.5-1.6-18-4.5c-1-0.6-2.1-1.1-3-1.9c-3.7-3.6-7.4-7.1-9.8-11.8c-1.8-3.6-4.2-6.7-5.8-10.4
		c-1-2.4-1.6-5-3.2-7.1c-0.9-1.2-0.5-2.8-0.2-4.2C350.4,213.4,351.4,211.6,352.8,210.1z"/>
	<path class="st1" d="M650.4,224.4c0-2.9,0-5.7,0-8.6c-0.1-0.2-0.2-0.4-0.2-0.6c-0.1-0.6-0.1-1.2-0.1-1.8c-1.5-2.2-3.4-4.2-5.7-5.9
		c-2.6-2-5.4-3.8-8.3-5.3c-4-2-7.6-4.8-11.3-7.2c-3.2-2-4.5-5.2-4.2-9.1c0.2-2.6,0.7-5.1,1.9-7.3c-4.1-4.7-9.5-6.3-16-5.6
		c-1.5,0.2-2.9,0.4-4.3,0.7c-2.1,0.5-4.2,1.1-6.3,1.8s-4.1,1.5-6.1,2.4c-0.4,0.2-0.7,0.3-1,0.5c-0.3,0.2-0.5,0.3-0.8,0.5
		c0,0-0.1,0.1-0.1,0.1c-0.2,0.2-0.4,0.4-0.6,0.6c0,0,0,0,0,0c-0.2,0.2-0.3,0.4-0.5,0.7c0.3,0.6,0.6,1.2,0.9,1.9
		c1.6,4.3,1.5,8.8,0.4,13.2c-0.3,1.1-0.8,2.2-0.4,3.7c0.5-0.2,0.8-0.3,1.1-0.4c4.5-2.7,9.6-3.6,14.7-4.3c3.9-0.5,7.5,0.9,11.2,1.8
		c6.2,1.5,10.9,5.2,14.6,10.3c2.1,2.9,4.8,4.9,7.6,6.9c0.5,0.4,0.9,0.5,1.5,0.2c1.4-0.7,2.1-0.2,2,1.3c-0.1,3.5-0.4,6.9-1.9,10.1
		c-2.9,6.3-6.5,12-11.1,17.2c-0.6,0.7-1.3,1.3-1.6,2.3c0.7,0.4,1.3-0.1,1.9-0.2c4.2-0.9,7.9,0.7,9.9,4.5c1.3-1,2.4-2.1,3.5-3.3
		c0.3-0.3,0.6-0.7,0.9-1.1c0.4-0.5,0.8-1.1,1.2-1.6c0.4-0.5,0.8-1.1,1.2-1.6c0.1-0.5,0.3-1,0.8-1.2c0.8-2,1.7-3.9,2.6-5.8
		c0.2-0.4,0.3-0.8,0.5-1.2c0.3-0.8,0.6-1.6,0.9-2.4c-0.1-0.4,0-0.7,0.2-1c0-0.2,0-0.4,0-0.5c0-0.2,0.1-0.3,0.2-0.5
		c-0.2-0.5-0.1-1,0.3-1.5c0-0.2,0-0.4,0-0.7c0-0.2,0-0.4,0-0.6C650.1,225.3,650.2,224.8,650.4,224.4z"/>
	<path class="st1" d="M417.4,256.1c3.2-4.3,1.5-12.8-0.3-8.3c-1.9,4.4-17.1,7.1-17.8,7.6c0,0-3.1-0.5-3.8,0.5
		c-0.7,1.1,0.9,3.9,4.8,3.9s6.1-0.5,9.6,0.5C413.3,261.4,414.2,260.4,417.4,256.1z"/>
	<path class="st1" d="M612.9,250.1c-2.5,1.5-19.2,2.1-29.2,0c-10-2.1-13.1-8.1-13.1-8.1s-5,0.2-2.7,3.1s0.4,2.9,2.9,5.6
		c2.5,2.7,4.8,2.1,9.6,2.9c4.8,0.8,4.4,4.6,7.5,6.5c3.1,1.9,4.4,4,7.3,4.4c2.9,0.4,7.1-0.4,11.9-2.1c4.8-1.7,4.4-4,9.8-9.4
		c2.1-2.1,3.3-2.8,3.9-2.9c0-0.1-0.1-0.1-0.1-0.2C619.6,248.2,615.4,248.6,612.9,250.1z"/>
	<path class="st1" d="M620.8,250.1C621.4,250.7,621.7,249.8,620.8,250.1L620.8,250.1z"/>
</g>
<g>
	<path class="st2" d="M342.2,373.8c2.2,1.6,3.9,3.7,5.1,6.2c0.2,0.5,0.5,1.1,0.9,1.5c3.6,4.4,5.4,9.5,6.6,14.9
		c0.7,3.1,1.6,6,3.3,8.7c0.6,0.9,1,1.9,2,2.4c0.5-0.2,0.5-0.6,0.6-0.9c1-7.3,5.3-12.8,9.5-18.5c0.6-0.7,1.3-1.3,2.2-1.7
		c0.5-0.3,1.1-0.5,1.7-0.4c0.8,0.1,1.5,0.4,1.8,1.2c0.3,0.7,0.1,1.3-0.4,1.9c-2.8,3.5-3.9,7.6-3.6,12.1c0.4,4.4,0.8,8.7,1.1,13.1
		c0.2,2.3,0.1,4.6-1.1,6.6c-0.5,0.9-0.2,1.6,0.1,2.4c1.8,4.5,3.3,9.2,4.7,13.9c0.8,2.4,1.4,4.9,1.9,7.4c0.6,3.6,0.1,7.2-0.3,10.8
		c-0.4,3.5-0.8,7-0.2,10.6c1.3,8.3,5.5,14.4,12.7,18.5c1.7,1,3.3,2,5.1,2.9c1.2,0.6,2,1.4,2.9,2.4c1.7,1.9,3,4,5.4,5.3
		c5.8,3.1,11.8,4.4,18.3,2.3c1.5-0.5,3-1,4.5-1.5c-0.1-0.1-0.3-0.3-0.4-0.4c-0.6-0.7-1.4-0.5-2.1-0.3c-3.1,0.9-5.8,0.1-8-2.2
		c-0.5-0.6-1.1-0.9-1.9-1.1c-0.9-0.1-1.7-0.4-2.4-0.7c-2.1-1-3.5-2.8-4.3-5.3c-0.3,0-0.5,0-0.8-0.1c-0.5-0.1-0.9-0.2-1.3-0.4
		c-0.1,0-0.2-0.1-0.4-0.1c0,0,0,0,0,0c-0.4-0.1-0.8-0.3-1.1-0.5c0,0-0.1,0-0.1,0c-0.4-0.2-0.7-0.4-1.1-0.6c-0.4-0.3-0.7-0.6-1.1-0.9
		c-0.8-0.8-1.4-1.8-1.9-3c-0.6-1.5-1.3-2.9-1.9-4.4c-1.7-4.1-2.9-8.4-3.3-12.8c-0.4-0.3-0.5-0.6-0.1-1c-0.6-2-0.5-4.1-0.4-6.1
		c-0.6-0.6-0.6-1.3-0.1-2c-0.1-1.4-0.4-2.8-0.4-4.2c-0.1-4.9,0-9.7,0-14.6c0-1.2,0.1-2.3,0.5-3.5c-0.5-0.5-0.5-1,0.1-1.5
		c-0.2-1.5,0-3,0.2-4.4c0.1-0.9,0.3-1.7,0.5-2.6c0-0.2,0.1-0.4,0.1-0.6c-0.2-0.2-0.4-0.5-0.6-0.7c-2.3-3.2-3.2-6.9-3.3-10.7
		c-0.3-9,1-17.7,6.3-25.3c0.3-0.5,0.6-1,0.7-1.6c0.2-1.6,1-2.9,2.4-3.7c0.9-0.5,1.1-1.3,1.1-2.3c0-2.4,0.5-4.6,2.8-5.8
		c2.5-1.2,4.8-0.2,6.6,1.3c0.1,0.1,0.3,0.3,0.4,0.4c-0.4-0.9-1-1.6-1.7-2.3c-0.6-0.6-1.2-1.2-1.9-1.7c-3.4-2.3-4-5.9-4.3-9.5
		c-0.1,0.5-0.2,0.9-0.4,1.4c-1.2,4.1-3.4,7.7-6.8,10.4c-0.8,0.7-1.4,1.5-1.7,2.4c-0.4,1.3-1,2.5-1.8,3.6c-2.7,3.6-7,4.4-10.7,1.8
		c-2-1.4-3.5-3.2-4.7-5.3c-3-5.5-3.3-11.2-1.5-17.1c0.3-1,0.6-1.9,1.1-2.8c0.8-1.3,0.7-2.5-0.1-3.8c-0.9-1.4-1.4-3.1-1.6-4.8
		c-0.1-0.8-0.4-1.4-1.2-1.8c-5.2-3-7.2-7.8-7.6-13.5c-0.1-1.7-0.1-3.4,0.1-5.1c0.1-1.1-0.2-1.7-1.3-2.1c-5.4-2.1-7-7.9-6.1-12
		c0.6-2.7,1.2-5.3,0.8-8.2c-0.1-0.6-0.1-1.2,0-1.8c-0.6-0.9-1.1-1.8-1.7-2.6c-0.6-0.1-0.9-0.4-0.9-1c-0.8-0.5-1.5-1.1-2.1-1.8
		c-0.2-0.2-0.4-0.5-0.5-0.8c-0.6,0-0.9-0.3-1-0.9c-0.9-0.6-1.8-1.2-2.8-1.8c-0.9-0.6-1.8-1.2-2.8-1.7c-1.3-0.8-2.5-1.5-3.8-2.3
		c0.3,1,0.7,1.8,1.4,2.7c1.8,2.2,2.9,4.9,2.9,7.7c0.1,8.5,3.6,15.9,7.4,23.2c1.8,3.4,2.8,6.9,1.9,10.7c-1.3,5.9-6.2,9.7-13.7,9.7
		c-2,0-5.1-1.2-7.8-3.2c-7.6-5.6-11.4-13.1-11-22.6c0-0.8,0.1-1.7,0.3-2.5c0.7-3.2,0.3-6.3-0.5-9.5c-1.5-5.2-1.1-10.2,2.6-14.6
		c0.8-0.9,0.6-1.9,0.5-2.9c-0.2-2.9,0.1-5.7,1.6-8.3c0.7-1.2,1.5-2.1,2.5-2.8c-2.2-3.8-3.8-7.8-6.1-11.6c-0.1-0.1-0.1-0.2-0.2-0.3
		c-0.5-0.8-0.8-1.7-0.5-2.8c0,0,0,0,0,0c0,0,0,0,0,0c-0.1-0.2-0.2-0.4-0.2-0.6c-4.3,0.4-8.2-1-11.6-4c-0.5-0.4-0.9-1-1.6-1.3
		c-0.1,0.2-0.3,0.3-0.4,0.5c-0.1,0.7,0,1.3,0,2c0.4,10.5,1.1,20.9,0.6,31.4c-0.4,9.1-1,18.2-1.6,27.3c-0.1,1.4-0.1,2.9,0.2,4.3
		c0.6,2.8,1.3,5.6,2.3,8.3c4.7,12.7,10.7,24.6,19.3,35.1C336,368.1,338.8,371.3,342.2,373.8z"/>
	<path class="st2" d="M694.9,561.6c-0.4-1.6-0.5-3.1-0.1-4.7c0.7-3.2,1.4-6.4,2.5-9.5c1-3,1.3-6.2,1.9-9.4c0-1.8,0-3.5,0-5.3
		c0-0.4,0-0.9,0-1.3c0,0,0,0,0-0.1c-6-9.5-10.3-19.7-12.7-30.7c-0.1-0.6-0.1-1.4-1-2c-0.3,6.7-1.5,13.2-0.8,19.8
		c1.2,9.9-0.5,19.1-6.1,27.6c-2.4,3.7-4,7.8-5.7,11.8c-0.4,0.9-0.4,1.5,0.3,2.3c1,1.2,1.4,2.7,1.8,4.2c0.6,2.3,0.9,4.6,1,7
		c0.1,1.4,0.3,2.9,0.8,4.2c0.3,0.8,0.8,1.1,1.6,0.7c0.5-0.3,1.1-0.5,1.6-0.7c7.8-2.9,14.7-1,19.8,5.6c1,1.3,2,2.8,2.8,4.2
		c2.6,4.2,4.9,8.5,6.8,13c0.4,0.9,0.8,1.8,1.1,2.6c0,0,0,0,0.1,0l1-0.4c-4.6-7.6-8.2-15.6-11.5-23.9
		C698.2,571.7,696.3,566.7,694.9,561.6z"/>
	<path class="st2" d="M615.5,342.6c-1-0.6-1.9-1.2-2.9-1.8c-0.3-0.2-0.7-0.4-1-0.6c-1.3-0.7-2.7-1.3-4.3-1.5c-0.1,0-0.1,0-0.2,0
		c0.9,2.2,1.8,4.4,2.6,6.7c1.4,4,2.1,8.2,1.9,11.9c-0.1,4.1-0.4,7.6-1.2,11.1c-0.5,2.3-2,3.6-3.8,4.9c-1.2,0.9-2.7,0.4-3.4-0.9
		c-0.4-0.7-0.6-1.4-0.8-2.1c-0.4-1.1-0.7-2.3-1.1-3.4c-0.1,0.7-0.3,1.4-0.4,2.1c0.3,0.5,0.3,1-0.2,1.5c0,1.1,0,2.2,0,3.3
		c0,0.3,0,0.5,0,0.8c0.4,0.3,0.4,0.6,0.2,1c0.1,0.4,0.2,0.7,0.3,1.1c0,0.1,0,0.2,0,0.4c0,0.7,0,1.3,0.1,2c0.3,2,1.2,3.7,2.4,5.1
		c0.5,0.6,1,1.2,1.3,1.8c1.1,1.9,1.4,3.9,1.5,6.1c0,0.2,0,0.3,0,0.5c0,0.2,0,0.3,0,0.5c0,0.1,0,0.2,0,0.3c0,0.1-0.1,0.1-0.1,0.2
		c-0.1,0.1-0.2,0.2-0.4,0.3c-0.1,0.2-0.3,0.4-0.4,0.5c-0.4,1-0.7,2.1-0.9,3.2c-0.1,0.4-0.1,0.7-0.1,1.1c-0.1,1.5-0.4,2.9-0.7,4.4
		c-0.1,0.5-0.2,1-0.3,1.5c0.4,0.4,0.4,0.7-0.1,1c0,0.6,0,1.2,0,1.9c0.4,0.7,0.9,1.4,1.4,2.1c3.8,5.9,6.8,12,6.9,19.3
		c0,4.8-0.4,9.6-1.3,14.3c0,0.2-0.1,0.3-0.1,0.5c-0.9,3.2-2.6,6.2-2,9.7c-1.6,3.4-1.9,7.1-2.7,10.7c-0.3,1-0.7,2.1-1.3,3
		c-0.2,0.4-0.5,0.7-0.7,1c0,0,0,0.1,0,0.1c0.9,1.8,0.6,3.6,0.1,5.3c0.2,0.4,0.1,0.7-0.3,0.9c-0.1,0.4-0.1,0.8-0.2,1.2
		c-0.4,1.3-0.9,2.5-1.4,3.7c-0.6,1.2-1.2,2.4-1.9,3.5c-0.9,1.5-2,2.9-3.3,4.1c-0.8,0.7-1.7,1.3-2.7,1.7c-0.2,0.1-0.3,0.3-0.5,0.4
		c-0.1,0.2-0.2,0.3-0.4,0.4c0,0,0,0-0.1,0c0,0,0,0-0.1,0c0,0,0,0,0,0c-0.1,0.1-0.3,0.2-0.4,0.3c0,0,0,0,0,0c0,0,0,0-0.1,0
		c0,0,0,0,0,0c-0.1,0.1-0.3,0.1-0.5,0.2c0,0-0.1,0-0.1,0c-0.2,0.1-0.3,0.1-0.5,0.1c-0.2,0.1-0.5,0.1-0.7,0.2c-0.3,0.1-0.7,0.2-1,0.4
		c-1.2,0.7-2.4,1.3-3.6,2c-1.2,0.7-2.4,1.3-3.6,1.9c-2.2,1.2-4.4,1.9-6.9,1.4c-0.3-0.1-0.7-0.2-1.1-0.3c-0.2-0.1-0.5-0.1-0.7-0.1
		c-0.1,0-0.2,0-0.2,0c-0.3,0-0.7,0-1,0c0,0,0,0,0,0c-0.3,0.1-0.6,0.2-1,0.3c-0.3,0.1-0.6,0.2-1,0.2c-1.7,0-2.9,0.2-3.4,2.3
		c-0.1,0.5-0.4,0.9-0.8,1.2c4,1.8,8.3,3,12.8,3.7c3.1,0.5,5.9,0,8.4-1.8c3.6-2.5,7.6-3.5,12-2.9c2.3,0.3,4.3-0.3,6.4-1.2
		c3.7-1.6,6-4.5,7.8-8c2.9-5.6,4.9-11.5,6.2-17.6c0.2-0.8,0.3-1.7,0.2-2.5c-0.1-3.2,0.1-6.4-0.4-9.6c-0.2-1.7,0.1-3.4,0.7-5
		c0.6-1.3,1.2-2.6,1.8-3.9c2.3-4.7,3.9-9.7,4.7-14.9c0.2-1.1,0.4-2.3-0.3-3.4c-1.1-1.5-1.4-3.3-1.5-5c-0.1-2.5-0.6-4.9-1.5-7.2
		c-2-5.5-3.7-11-4.3-16.9c-0.3-2.6-0.8-5.2-0.9-7.8c-0.3-7.9,1.7-15.4,3.3-23c0.2-0.7,0.6-1.4,1-2c0.4-0.6,1-0.9,1.7-0.8
		c0.8,0.2,1.1,0.7,1.1,1.5c0.1,1.4,0.2,2.9,0.3,4.3c0,3.8,0,7.6,1.1,11.3c0.1,0.3,0.2,0.7,0.1,1c-0.9,2.9,0.2,5.7,0.6,8.5
		c0.3,2,0.8,3.9,1.7,5.6c0.3-0.1,0.4-0.1,0.4-0.1c0.4-0.7,0.7-1.3,1-2c3.2-6.8,7.2-13.2,12-19c11-13.4,21.5-27.1,28.5-43.1
		c2.7-6.1,5.3-12.2,7.3-18.6c3.5-11.1,4.5-22.6,4.9-34.2c0-1.3,0-2.6-0.3-3.8c-1.2-4.7-1-9.4-0.6-14.1c0.5-5.7,1-11.4,0.5-17.2
		c-0.5-7.2-1.1-14.3-1.6-21.5c0-0.6-0.1-1.2,0-1.8c0.1-1,0.4-2,1.6-2.4c1.3-0.3,2.1,0.4,2.7,1.4c0.8,1.3,1.2,2.8,1.6,4.3
		c1.3,4.9,2,9.9,2.9,14.9c1.4,8.1,3.1,16.1,2.7,24.4c0,0.5-0.1,1.1,0.5,1.8c0.2-1.4,0.3-2.6,0.4-3.7c0.5-8.3,0.6-16.7,0.1-25
		c-0.6-11.3-1.7-22.5-3.6-33.7c-1.9-10.7-5.8-20.7-10.2-30.4c-5-11-9.8-22.1-14-33.4c-0.8-2.2-2-4.3-3.4-6.2
		c-2.5-3.4-5-6.9-7.4-10.4c0,0,0,0,0,0c0,1.8,0.2,3.6,0.5,5.3c0.1,0.6,0.3,1.2,0.4,1.8c0.5,1.7,0.8,3.4,1,5.2
		c0.1,0.9,0.2,1.8,0.3,2.6c0.1,0.9,0.2,1.8,0.3,2.6c0.1,0.6,0.2,1.2,0.3,1.8c0.1,0.6,0.2,1.2,0.4,1.8c0.3,1.2,0.7,2.3,1.3,3.4
		c0.3,0.6,0.7,1.3,1,2c0.3,0.7,0.6,1.3,1,2c0.7,1.3,1.4,2.6,2.3,3.8c0.1,0.1,0.2,0.2,0.2,0.3c0.2,0.3,0.3,0.7,0.3,1.1
		c-0.1,1.8,0.2,3.6,0.3,5.3c0,0.4,0.1,0.7,0.1,1.1c0,0.7,0,1.4,0,2.1c0.4,0.3,0.5,0.6,0.1,1c0.3,1.3,0.4,2.6,0.4,3.9
		c0,0.4,0,0.9,0,1.3c0.1,4.4,0.4,8.9,0.4,13.3c0,0.4,0,0.7,0,1.1c0,0.7,0.1,1.5,0.2,2.2c0.1,0.7,0.2,1.5,0.3,2.2
		c0.2,1.1,0.3,2.2,0.5,3.3c0.1,1,0.3,1.9,0.5,2.8c0.4,1.8,1.1,3.6,2,5.2c0.4,0.8,0.9,1.6,1.5,2.4c0.4,0.6,0.8,1.2,1.1,1.8
		c0.3,0.6,0.7,1.2,1,1.9c0.2,0.3,0.3,0.7,0.4,1c0.1,0.5,0.1,0.9,0.1,1.4c0,0.3-0.1,0.6-0.3,0.9c-0.1,0.2-0.1,0.3-0.2,0.5
		c-1.2,2.2-2.4,4.4-3.7,6.6c-2.6,4.3-5.5,8.4-8.5,12.4c-1.5,2-3,4-4.6,6c-1.1,1.4-2,2.8-3,4.2c-0.5,0.7-0.9,1.5-1.3,2.2
		c-0.8,1.5-1.5,3-2.2,4.6c-0.3,0.8-0.6,1.6-0.8,2.4c-0.5,1.6-0.9,3.3-1.2,5.1c-0.1,0.7-0.2,1.5-0.2,2.2c1.5-0.6,3.2-0.7,5,0
		c2.5,0.9,4.2,2.7,5.6,4.9c2.7,4.3,3.7,9,3.4,14c-0.2,4-0.5,7.9-1.5,11.7c-0.6,2.2-1.5,4.3-2.9,6.1c-2.8,3.5-6.7,4.8-10.4,3.9
		c0,0,0,0,0,0c-0.1,2.2-0.8,4.2-1.5,6.2c-0.2,0.7-0.5,1.3-0.7,2c-1.6,4.6-3.5,9.1-5.6,13.4c-3.6,7.4-7.3,14.8-11,22.1
		c-0.4,0.8-0.8,1.7-1.2,2.5c-0.2,0.5-0.3,0.8-0.4,1c-0.1,0.2-0.3,0.4-0.4,0.4c-0.1,0-0.2,0-0.2,0c-0.3-0.1-0.6-0.4-1.2-0.9
		c-0.7-0.7-1.5-1.3-2.3-1.9c-1.5-1.2-3.1-2.4-4.8-3.5C617.2,343.7,616.4,343.1,615.5,342.6z M633.8,360.3c0.6-3.1,0.3-6.2,0.1-9.3
		c-0.1-1.2-0.1-2.4-0.1-3.5c-0.1-4.1,1.2-7.6,3.9-10.7c2.2-2.5,4.5-5.1,6.7-7.6c0.2-0.3,0.5-0.5,0.7-0.7c2.3-2.2,4.9-3.4,8-2
		c2.7,1.1,4.3,4,4.1,7.8c0,1.1-0.3,2.5-0.9,3.9c-0.9,2.4-1.8,4.7-2.9,7c-0.9,2.1-2.1,4-2.3,6.4c-0.2,1.5-1.1,2.8-1.9,4.1
		c-1.6,2.3-3,4.7-4.2,7.2c-0.6,1.2-1.3,2.4-2.4,3.2c-1.6,1.4-3.4,1.8-5.4,1.1c-2-0.7-3.1-2.2-3.5-4.3
		C633.7,362,633.6,361.1,633.8,360.3z"/>
	<path class="st2" d="M670.3,598.3c-0.5,0.4-0.5,1-0.7,1.6c-0.8,3-1.4,6.1-1.9,9.2c-0.6,3.7-1.4,7.3-2.6,10.8
		c-0.9,2.7-2.1,5.3-4,7.6c-2.4,2.9-5.3,5.1-9.1,4.8c-5.9-0.4-11.6-1.9-16.3-6c-0.6-0.5-1-1.1-1.5-1.7c-2-2.7-3.1-5.8-3.6-9.1
		c-0.8-4.8-0.3-9.6,0.3-14.4c0.1-1.2,0.4-2.3,0.2-3.5c-0.2-1-0.6-1.9-1.8-2.1c-4.2-0.7-6.2-3.6-7.3-7.5c-1.7-6.1-2.7-12.2-2.6-18.5
		c0.1-6.6-0.3-13.2-0.8-19.7c-0.3-3.6-0.6-7.2-0.7-10.9c-0.1-5.7,4.8-9.1,10.2-7.3c2.2,0.7,4,2.2,5.5,4c1.8,2.1,3.1,4.4,4.2,6.9
		c3.2,7.1,5.5,14.5,6.9,22.2c1,5.5,1,10.9-0.6,16.3c-0.2,0.7-0.9,1.4-0.2,2.1c0.7,0.6,1.6,0.4,2.4,0.1c0.6-0.2,1.1-0.5,1.6-0.7
		c4.7-2.4,8.3-6.1,11.5-10.1c0.5-0.7,0.8-1.5,0.9-2.3c1-6,2.6-11.9,3.9-17.8c1.8-8,2.4-16.1,1.4-24.4c-1.1-9-1.4-18,0.7-27
		c0.6-2.5,0.6-5,0.8-7.5c0.1-1.3-0.4-1.8-1.7-1.8c-0.8,0-1.6,0.1-2.3-0.2c-2.3-0.9-3.7-0.2-5.3,1.8c-3,3.7-7,5.1-11.8,4.4
		c-6.8-1-11.7-8.2-10-14.5c0.5-1.9,1.4-3.5,3.4-4.1c1.1-0.3,1.2-0.9,1.1-1.9c-0.2-2-0.4-4-0.4-6.1c0-11.7,4.9-20.5,15.3-26
		c2.2-1.2,4.2-2.5,6.4-3.6c1.2-0.6,1.5-1.2,1-2.5c-1.6-4.2-1.9-8.5-1.4-13c0.2-2,0.8-4,1.8-5.7c1.7-2.9,4.5-4,7.8-3.3
		c0.5,0.1,1,0.6,1.7,0.2c0.2-3.1-2-37.6-2.6-38.9c-0.3,0.6-0.5,1.1-0.8,1.7c-2.3,5.3-5.3,10.2-9.1,14.5c-5.1,5.7-9.9,11.5-15.4,16.8
		c-0.7,0.7-1.3,1.5-2,2.3c-1,1.1-1.3,2.5-1.2,4c0.3,2.5,0.9,5,1.4,7.5c1.1,4.9,1.3,9.7-0.3,14.5c-1.3,3.9-2.7,7.8-4.2,11.7
		c-1,2.5-2.2,5-4.1,7c-1.4,1.5-1.8,3.1-1.7,5.1c0.4,7.3-0.5,14.5-3.1,21.4c-0.6,1.7-1,3.4-1.6,5.1c-1.7,4.8-3.9,9.3-7.2,13.3
		c-3.2,3.9-7.1,6.9-12,8.6c-5.1,1.9-10.2,3.5-15.8,2.8c-1.6-0.2-3,0.4-4.2,1.4c-2.3,1.9-4.6,3.7-6.6,5.9c-2.7,2.9-5.5,5.7-9,7.7
		c-1,0.6-1.2,1.2-0.8,2.3c1.3,3.3,1.4,6.8,1.1,10.2c-0.2,2.2-0.3,4.4-0.6,6.6c-0.5,3.4-0.2,6.7,1,10c2,5.5,2.7,11.2,1.8,16.9
		c-0.5,3.1-0.5,6.2-0.4,9.3c0.1,4.8-0.4,9.6-1.4,14.3c-0.7,3-1.3,5.9-1.3,9c0,1.8-0.5,3.5-1.2,5.1c-0.5,1.2-1.4,1.9-2.7,1.9
		c-1.4,0-2.4-0.8-3-2c-0.4-0.9-0.4-1.8-0.4-2.7c0-2.7,0-5.4,0-8.1c0-1-0.1-2-0.8-2.9c-1.2-1.6-1.7-3.5-2.1-5.4
		c-0.3-1.3-0.7-2.6-1-3.9c-0.3-1.4-1.1-2.2-2.6-2.3c-2.4-0.3-3.9-1.8-5-3.9c-0.3-0.6-0.6-1.2-0.9-1.8c-1.4-3.4-3.1-6.5-5.2-9.5
		c-2.5-3.6-4.7-7.4-6.6-11.4c-2.6-5.4-3.5-11.1-2.5-17c0.6-3.6,1.1-7.3,2.5-10.8c-0.7-0.5-1.3-0.6-2-0.7c-5-1.1-10.2-1.2-15.2-2.6
		c-6.3-1.8-12.8-1.8-19.3-2.1c-1.8-0.1-3.5,0.1-5.3,0.3c-3.2,0.4-6.4,0.6-9.6,0.7c-4.1,0.1-8.1,0.5-12.6,0.8c2.4,3.8,1.7,7.6,1,11.3
		c-0.4,2-1.1,3.9-1.9,5.8c-1.6,3.8-3.7,7.4-6.2,10.7c-1,1.3-1.7,2.7-2.2,4.3c-1.1,4-2.8,7.8-5.2,11.2c-4.1,5.7-7.3,11.9-10.6,18.1
		c-7,13.1-21.8,21-39.9,12.6c-1-0.5-1.9-1-2.7-1.8c-2.1-2.2-1.3-5.2,1.7-5.8c1.5-0.3,3-0.3,4.5-0.3c2.7,0,5.4,0.1,8.1,0.1
		c2.6,0,5-0.6,7.2-2.2c3-2.1,5.5-4.7,7.7-7.7c0.5-0.7,0.9-1.4,0.8-2.3c-0.4-2.5,0.4-4.8,1.4-7.1c1.4-3.2,2.5-6.4,3.4-9.8
		c1.3-4.7,2.6-9.4,4.2-14.1c0.3-0.8,0.5-1.6,0.5-2.5c0.2-2.4,0.4-4.9,1-7.3c0.3-1.1-0.1-1.9-0.8-2.8c-1.7-2.1-3.1-4.4-3.6-7.2
		c-0.2-1-0.7-1.3-1.6-1c-1.9,0.5-3.8,1-5.6,1.5c-7.9,2.4-15.3,1.4-22.5-2.5c-4.1-2.2-8-4.7-11.8-7.4c-3.8-2.8-7.4-5.9-10.3-9.7
		c-2.8-3.6-5.5-7.2-8.7-10.6c-1.5-1.6-2.9-3.4-3.8-5.4c-2-4.6-5.4-8.1-8.8-11.6c-0.7-0.7-1.4-1.5-2.1-2.2c-3.8-4-6.3-8.7-8-13.9
		c-1.6-4.9-2.1-9.9-2-15c0.1-4.1,0.2-8.1-0.7-12.1c-1-4.3-1.9-8.6-2.9-12.8c-0.3-1.4-0.9-2.4-2.2-3.2c-3.3-2.1-6.1-4.7-8.6-7.8
		c-1.2-1.6-2.8-2.6-4.4-3.8c-1.5-1.2-3-2.6-4.6-3.9c-0.7,0.9-0.4,1.8-0.4,2.6c-0.3,9.4,1.7,18.5,4.1,27.5c1.7,6.2,3.4,12.4,5.3,18.5
		c1.9,6.1,2.7,12.5,4.8,18.6c0.7,2.1,1.3,4.3,1.4,6.4c0.2,3.5,1.5,6.3,3.6,9c0.1,0.1,0.1,0.1,0.1,0.2c1.4,2.4,3.4,4.1,6.1,5.1
		c4.1,1.4,7,4.2,9.3,7.8c1.5,2.3,2.5,4.8,3.8,7.1c1.1,1.9,1.8,3.8,2.1,5.9c0.3,2.4,1,4.6,1.6,6.9c0.3,1.2,0.8,1.8,2.2,1.9
		c5.2,0.4,9.6,4.5,10.6,9.7c0.4,1.8,0.3,3.7-0.7,5.1c-1.4,2-1.5,4-1.4,6.2c0.1,2.8,0,5.6-1.2,8.2c-2.7,5.7-8.7,6.7-12.7,1.8
		c-4.9-6-7.9-12.9-8-20.9c0-1.4,0-2.9,0.8-4.2c0.7-1,0.9-1.9,0-2.9c-0.7-0.8-1.3-1.7-2.7-1.5c-2.3,0.3-4.3-0.6-6.2-1.8
		c-1.5-1.1-2.8-2.4-4.1-3.7c-0.8-0.7-1.3-1.7-2.2-2.2c-0.5,0.2-0.5,0.4-0.5,0.7c0.1,1.2,0.1,2.4,0.2,3.5c0.7,6.4,2.4,12.6,4.6,18.6
		c3.4,9.3,7.5,18.2,11.5,27.3c0.3,0.8,0.7,1.6,0.9,2.4c0.2,0.8-0.1,1.5-0.9,1.9c-0.8,0.4-1.5,0.1-2-0.5c-0.3-0.4-0.6-0.8-0.8-1.3
		c-2.9-4.9-5.9-9.8-8.5-15c-3.9-7.8-7.8-15.5-11.6-23.4c-2.9-6-4.7-12.5-5.5-19.1c-1-7.6-1.2-15.3-1.9-23c-0.4-4-1.1-7.8-2.1-11.6
		c0.1,1.2,0.7,2.3,0.4,3.5c0.2,0.8,0.2,1.5,0.2,2.3c0,0.3-0.1,0.5-0.1,0.8c-0.9,4.1-2.2,8.1-3.9,11.9c-2.3,5.1-3.5,10.5-4.2,16
		c0,2.5,0,5.1,0,7.6c0.1,1.2,0.7,2.3,0.4,3.5c0,0.5,0,1,0.1,1.5c-0.4,2.5-1.7,4.7-3.3,6.4c-5.4,6-7.7,13.3-9.3,20.9
		c-0.5,2.4-1,4.8-1.5,7.1c0,0.4-0.1,0.8-0.1,1.2c1.9-0.5,3.8-1,5.7-1.4c1.1-0.3,1.7-0.9,2.1-1.9c1.1-3,2.4-6,4.6-8.4
		c0.6-0.6,0.5-1.4,0.5-2.1c-0.1-1.7-0.2-3.4-0.1-5.1c0.2-2.9,1.4-5.3,4.2-6.4c2.8-1.1,5.3-0.3,7.6,1.5c2.9,2.4,4.2,5.6,4.8,9.2
		c0.6,3.2,0.6,6.4,0.6,10.2c0.1,4.3-0.5,9-1.2,13.8c-0.3,2.4-0.7,2.8-3.1,3.3c-0.9,0.2-1.2,0.6-1.2,1.3c-0.3,3.7-0.5,7.4-0.8,11.1
		c0,0.7,0.4,1,1,1.3c3.5,1.7,5.6,4.7,6.7,8.2c2.8,8.6,7.5,16.2,12.1,23.9c0.3,0.4,0.5,0.9,0.8,1.3c4.4,7.2,9,14.3,12.3,22.1
		c1.5,3.6,2.8,7.2,3.5,11.1c0.5,2.8,0.4,5.6-0.5,8.3c0,0.1-0.1,0.2-0.1,0.3h8.8h12.4c-23.5-30.3-34.1-57.8-24.7-70.3
		c3-4,9.7-8.7,15.9-7.5c11.7,2.3,11.4,24.4,27.6,30.1c6.1,2.1,12.5,1.7,12.5,1.7c9.1-0.7,12.9-5.2,16.7-3.3c1.4,0.7,3,2.5,4.2,15
		c1.3,13.9,0,19.4,1.7,30.1c0.3,1.6,0.5,3,0.8,4.4h11c-0.8-1.5-1.5-3.1-2-4.9c-0.4-1.4-1-2.6-2.1-3.7c-2.1-2.1-3.2-4.8-3.5-7.7
		c-0.2-1.9-0.2-3.8-0.1-5.7c0.2-2.4,0.8-4.7,1.7-7c2.5-6.4,8.8-8.9,15.2-6.3c0.6,0.3,1.1,0.7,1.9,0.6c0.7-0.6,0.5-1.4,0.6-2.1
		c0.6-7.1,1.9-14,4.3-20.8c0.5-1.4,0.8-2.8,0.8-4.2c0-3,0.1-6.1,0.1-9.1c0-9.2,2-17.9,5.8-26.2c1.3-2.9,2.7-5.8,3.7-8.9
		c0.7-2,1.5-3.9,2.5-5.8c1.1-1.9,2.3-3.8,3.8-5.3c6.8-6.7,15-8.3,23.4-1.8c8.7,6.7,12.6,15.6,11.4,26.6c-0.4,3.3-1.7,6.4-3.4,9.2
		c-1.6,2.7-3.3,5.3-5,7.9c-2.3,3.6-4.2,7.5-5.6,11.6c-3.2,9.2-6.4,18.3-9.7,27.5c0,0.1,0,0.2-0.1,0.2c-2.1,3.3-1.7,7.1-2.2,10.7
		c-0.2,1.2,0.3,2.3,0.7,3.4c1.5,4.7,3.1,9.5,4,14.4c0.4,2.4,0.6,4.8,0.6,7.1h10.1c-1.8-16.8-0.8-30.5,0.7-40.3
		c2.1-14.2,4.2-28.2,11.7-30.1c6.9-1.7,17.3,7.1,18.4,15.9c0.7,6.2-3.9,7.8-5,18.4c-0.2,1.7-0.8,8.5,1.7,16.7
		c1.8,6.1,4.6,10.6,6.7,13.4l3.3,3.5c1.2-0.7,2.5-1.3,3.8-1.9c0.4-0.2,0.9-0.4,1.3-0.6c0.1,0,0.2-0.1,0.3-0.1c2.1-0.9,4.1-1.7,6-3
		c2.1-1.4,3.5-3,2.9-5.8c-0.4-1.7-0.3-3.5-0.3-5.3c-0.1-1.9-0.7-3.6-2-5.1c-0.6-0.6-1.1-1.3-1.6-2c-3.7-5.3-2.4-11.8,3.2-15.1
		c5.1-2.9,10.5-3.5,16.1-1.6c9.9,3.4,17.4,14,17.4,25.2c-0.1,5.6-2.2,11.3-5.7,16.5c-0.3,0.4-0.5,0.8-0.8,1.1h9.9h28.9h2.5
		c0.2-0.1,0.4-0.3,0.6-0.4c0.1,0,0.1-0.1,0.2-0.1c0.2-0.6,0.4-1.1,0.6-1.7c0.4-0.9,1.1-1.5,2.2-1.3c0.2,0,0.4,0.1,0.6,0.2
		c0.3-0.3,0.6-0.6,0.9-0.9c0,0,0.1-0.1,0.1-0.1c0.2-0.3,0.4-0.6,0.7-0.9c2-2.6,3.9-5.4,5.7-8.1c0.5-0.8,1.1-1.6,1.6-2.3
		c0.2-0.3,0.4-0.6,0.5-0.9c0.5-0.8,1.1-1.6,1.7-2.4c0-0.1,0.1-0.1,0.1-0.2c2.5-3.5,5-7,7.7-10.4c1-1.3,2.1-2.6,3.2-3.9l1.6-1.9
		l0.8-1c0.3-0.3,0.6-0.6,0.8-0.9l1.7-1.9c0.6-0.6,1.2-1.2,1.7-1.8c1.2-1.2,2.4-2.4,3.6-3.5l0.5-0.4l0.5-0.4l0.9-0.8
		c0.6-0.5,1.1-1,1.7-1.6c-3.8-6.4-6.9-13.2-8.2-20.6C670.9,598.9,670.9,598.4,670.3,598.3z M400.9,571.3c0,0,1.7-4.2,5.8-15
		c4.2-10.9,4.2-20,4.2-20l25,12.5c0,0-4.2,6.7-5,9.2c-0.8,2.5-5.8,7.5-8.3,10.9C420.1,572.1,400.9,571.3,400.9,571.3z M595.4,588
		c-2.5-5-1.7-7.5-1.7-18.4c0-6.7-4.1-19.1-7.3-27.7c-2-5.3,0.1-11.3,5-14.1l19.8-11.7c0,0-0.8,11.7-3.3,16.7
		c-2.5,5,4.2,68.5,4.2,73.5S597.9,593,595.4,588z"/>
	<path class="st2" d="M455.8,509.3c1.5,0.6,2.8,1.5,4.1,2.5c1.8,1.4,3.6,2.7,5.6,3.9c3,1.7,6.1,2.6,9.6,2.6c5-0.1,9.9-0.4,14.9-0.8
		c6-0.5,12-0.9,17.9,0.1c2.4,0.4,4.9,0.5,7.3,0.4c4.4-0.2,8.8-0.1,13.1,0.7c4.4,0.8,8.8,1.6,13.2,2.5c5.2,1.1,10.2,0,14.6-2.5
		c4.2-2.3,8-5.3,12-8c0.1,0,0.1-0.2,0.2-0.5c-1.5-0.6-3-1.3-4.5-1.9c-1.3-0.5-2.6-1.8-3.9-1.6c-1.4,0.2-2.2,1.7-3.3,2.7
		c-3.2,2.8-6.8,4.3-11,4.6c-4.7,0.3-9.3-2.5-10.7-6.5c-0.5-1.5-0.6-3.2-0.3-4.8c0.2-1,0.6-1.9,1-2.8c-0.9,0.6-1.9,1.3-2.7,2
		c-3.6,2.3-7.5,4.1-11.8,4.9c-3.2,0.5-6.5,0.8-9.8,1.2c-7.4,1-14.8,1-22.2,1.1c-3.4,0.1-6.7,0.4-10.1,0c-4.7-0.5-9-2.1-13.2-4.2
		c-0.8-0.4-1.5-0.8-2.2-1.3c-2.7-1.6-5.4-2-8.6-0.8c-3,1.1-5.9,2.2-8.6,4.1c-3.4,2.4-7.4,3.2-11.5,3.6c-5.5,0.5-10.9-0.4-16.4-0.5
		c-0.5,0-0.9-0.1-1.4-0.2c-1.2,0-2.4-0.2-3.6-0.4c-0.8-0.1-1.5-0.4-2.4-0.1c0.2,0.8,0.8,1,1.3,1.3c3.9,2.7,8.2,4.3,12.5,5.9
		c9.6,3.6,18.9,2.1,27.9-2c0.1-0.7-0.3-1.2-0.6-1.7c-0.5-1.1-0.7-2.1,0.2-3C453.6,508.8,454.7,509,455.8,509.3z"/>
	<path class="st2" d="M389.3,139.8c0.1,0.3,0.3,0.6,0.4,0.9c0.6,2,1.9,2.8,3.9,2.7c1.9,0,3.8-0.3,5.7-0.9c1.5-0.5,2.9-1.4,4.6-1.2
		c0.5-0.5,1-0.5,1.5,0c0.7-0.2,1.3-0.1,1.9,0c1,0.2,1.9,0.7,2.9,0.9c3.8,1,6.3,3.8,9.1,6.3c0.2,0.2,0.3,0.6,0.3,0.9
		c0,1.3,0.5,2.3,1.6,2.9c0.4,0.2,0.5,0.6,0.5,1.1c0.1,1.5,0.6,3,0.3,4.5c0.4,0.3,0.5,0.6,0.2,1c0.3,2.9,1.1,5.6,2.4,8.1
		c0.2,0.4,0.4,0.7,0.6,1.1c0.9,1.4,1.7,2.9,0.6,4.6c-0.2,0.4-0.1,1-0.1,1.5c-0.2,4,1,7.8,2.1,11.5c0.7,2.4,2,4.7,2.7,7.1
		c0.5,1.8,1.3,3.7,1.1,5.6c0.4,0.3,0.5,0.6,0.2,1c0.2,1,0.3,2,0.4,3c2.6,7,1.7,14-1.1,20.9c-0.9,2.2-2.2,4.1-2.2,6.6
		c0,1.5-1,2.9-2.3,3.7c-1.1,0.7-1.3,1.5-1.2,2.8c0.2,1.8,0.1,3.4,1.5,4.9c0.9,0.9,0.9,2.3,0.6,3.6c-0.2,0.7-0.3,1.5-0.7,2.1
		c-1.1,1.8-1.4,3.4-0.1,5.3c0.9,1.3,1,3.1,0.7,4.7c-0.7,4.7-1.2,9.5-2.6,14.2c-1.3,4.2-3.2,8-6,11.3c-2.1,2.6-4.4,5.1-6.9,7.4
		c-0.7,0.6-1.4,1.2-2.2,1.7c2.1,3,4.7,5.4,8.8,5.5c1.9,0,3.9,0,5.8,0c1.2,0,2.5-0.2,3.2-1.2c1.3-1.9,3.1-3.3,4.6-5
		c1.1-1.4,1.9-2.8,2.3-4.6c1.1-4.9,4.2-8.5,8.1-11.5c3.2-2.4,6.6-4.3,10.3-5.4c2.1-0.7,4.2-1.7,6.4-2c0.4-0.8,0.8-1.7,1.2-2.5
		c1.9-3.8,4.3-6.6,7.2-8.7c0.6-0.4,1.2-0.8,1.9-1.1c3.4-1.9,7.3-2.8,11.7-3c2.7,0,5.3,0.4,7.6,1.7c1.3,0.7,2.5,0.8,3.9,0.4
		c1.3-0.3,2.6-0.6,4-0.8c12.1-2.2,22.9,0.5,32.7,7.9c0.5,0.4,0.9,0.7,1.4,1.1c0,0,0.1,0,0.1,0.1c1.4,0,2.8,0,4.1,0
		c0.4-0.6,0.9-0.5,1.5-0.3c1.8-0.6,3.6-0.2,5.3,0.2c0.6,0.1,1.2,0.3,1.8,0.4c0.4-0.3,0.7-0.2,1,0.2c2.6,0.1,5.2,0.6,7.6,1.5
		c1.5,0.5,2.9,1.1,4.3,1.8c4.2,2,8.1,4.4,11.5,7.6c0.1,0.1,0.2,0.2,0.3,0.2c0.3,0.3,0.6,0.5,1,0.5c-1.4-2.1-2.5-4.5-3.1-7.1
		c-0.2-1.1-0.6-2.1-1.5-2.8c-7.9-7.2-11.2-16.4-12-26.8c-0.2-2.5-0.5-5-0.5-7.6c0-3.8,0.4-7.7,0.3-11.5c-0.1-4.5,1.7-8.7,4.2-12.5
		c1-1.5,1.8-3,1.5-4.9c-0.2-1.2,0-2.5,0.4-3.7c1.4-4.4,3-8.7,5.8-12.3c0-0.1-0.1-0.1-0.1-0.2c-0.4-1.2-0.7-2.4-0.8-3.7
		c-0.4-0.2-0.5-0.5-0.3-1c-0.1-0.1-0.1-0.3-0.2-0.4c0-0.1,0-0.1,0-0.2v0c0,0,0-0.1,0-0.1c0-0.1,0-0.1,0-0.2c0-0.2,0-0.4,0-0.6
		c0,0,0,0,0,0c0,0,0,0,0,0c0-0.2,0.1-0.4,0.2-0.6c-0.3-1.2-0.3-2.3,0-3.5c-0.5-1-0.4-1.8,0-2.7c0.1-0.3,0.3-0.6,0.5-0.9
		c1.6-2.4,3.4-4.5,5.4-6.3c1.3-1.2,2.8-2.3,4.3-3.3c0.8-0.5,1.5-0.9,2.3-1.4c1.6-0.9,3.3-1.6,5.1-2.2c0.5-0.2,1-0.4,1.5-0.6
		s1-0.4,1.5-0.6c1-0.4,2-0.6,3.1-0.7c0.2-0.4,0.5-0.5,0.9-0.3c1-0.3,2-0.7,3.1-0.8c0.2,0,0.3,0,0.5,0c0.3-0.4,0.6-0.5,1-0.2
		c2.2-0.5,4.3-0.6,6.5-0.2c0.4,0.1,0.7,0.1,1.1,0.2c1.1-0.6,2.3-0.3,3.5-0.3c0.2-0.1,0.3-0.1,0.5-0.2c-1.2-0.9-2.3-1.9-3.3-3.1
		c-9.2-10.5-4-27.6,9.4-30.7c1.5-0.3,3-0.4,4.9-0.5c2.5,0,5,0.5,7.4,1.3c-1.3-2.6-3.2-4.8-5.6-6.6c-0.6-0.4-1.1-0.8-1.7-1.2
		c-0.6-0.4-1.1-0.7-1.7-1.1c-1.2-0.7-2.4-1.4-3.6-2c-2.4-1.3-4.9-2.4-7.3-3.6c-1.8-0.9-2.9-1.3-3.8-1.8c-0.4-0.2-0.7-0.5-1-0.9
		c-0.5-0.6-0.8-1.6-1.2-3.2c-0.1-0.6-0.3-1.4-0.5-2.2c-0.4-2.3-1.2-4.4-2.2-6.2c-0.7-1.2-1.5-2.4-2.5-3.4c-0.5-0.5-1-1-1.5-1.5
		c-0.4-0.3-0.7-0.6-1.1-0.9c-0.3-0.2-0.6-0.4-0.9-0.6c-0.3-0.2-0.6-0.4-0.9-0.6c0.1,0.1,0.1,0.2,0.2,0.4c3.8,9.4-1.2,18-11.3,19.4
		c-2,0.3-4,0.2-6.1,0.2c-2.2,0.1-4.4,0-6.5-0.3c-2.9,1.5-5.5,3.4-8.1,5.5c-1.4,1.6-3.4,2.2-5.3,2.8c-0.1,0.1-0.3,0.1-0.4,0.2
		c-0.1,0.6-0.4,0.9-1.1,0.9c-0.1,0.1-0.3,0.2-0.4,0.2c-0.2,0.8-0.7,1.4-1.6,1.4c-1.4,0.6-2.3,1.9-3.2,3c-0.3,0.4-0.6,0.8-0.9,1.1
		c0,0.6-0.3,0.9-0.9,1c0,0.2-0.1,0.4-0.2,0.6c-0.1,0.2-0.3,0.3-0.5,0.4c0.1,0.6-0.3,1-0.9,1.1c0,0.2-0.1,0.3-0.2,0.5
		c0,0.3,0,0.5-0.1,0.6c0.1,0,0.2,0,0.3,0c3.1,0.1,6,1,8.4,3.3c4.3,4.2,3,10.8-2.5,13.1c-1.6,0.7-3.4,1.2-5.1,1.2
		c-3.4,0.1-6-1.2-7.5-4.3c-0.1,0.2-0.1,0.4-0.2,0.6c-0.1,0.4-0.3,0.8-0.4,1.2c0.2,0.4,0.1,0.7-0.3,1c-0.1,0.4-0.1,0.7-0.2,1.1
		c0.2,0.4,0.1,0.7-0.3,1c-0.1,0.4-0.1,0.7-0.2,1.1c0,0.1,0,0.2,0.1,0.2c1.6,0.1,3.2,0.4,4.8,0.9c0.9,0.3,1.8,0.5,2.7,0.8
		c5.5,1.8,8.7,6.1,9.1,11.8c0.2,2.8-0.2,5.6-1.2,8.2c-1.9,5.3-2.2,10.9-2.1,16.5c0,2.3,0.4,4.5,1.4,6.6c1,2.3,2.1,4.6,3,7
		c1.4,3.3,1.9,6.8,1.2,10.4c-0.2,1-0.2,2-0.3,3c-0.4,6.9-4.7,11.6-11.5,12.7c-1.2,0.2-2.5,0.2-3.5,0.3c-10.2-0.4-19-3.5-26.1-10.6
		c-0.8-0.8-1.5-1.1-2.6-1.1c-5,0.4-8.9-2.6-10.2-6.7c-0.6,0.1-1.1,0.1-1.7,0.1c-3.4,0.2-6.7,0.6-9.9,1.6c-1.1,0.3-2.3,0.7-3.5,0.5
		c-0.5,0.5-1,0.5-1.5,0c-0.5,0-1,0-1.5-0.2c-0.8-0.2-1.5-0.7-2.2-1.2c-1.2-1-2.2-2.1-3.3-3.2c-0.9-1-0.9-1.3,0.4-1.8
		c1.8-0.6,2.7-1.8,3.5-3.3c1.9-3.8,2.4-7.8,1.8-12c-0.4-2.4-0.8-4.8-1.2-7.2c-0.5-0.5-0.6-1-0.1-1.5c0-0.8,0-1.7,0-2.5
		c-0.4-0.4-0.4-0.7,0.1-1c-0.1-0.4,0-0.8,0.1-1.2c0.1-0.4,0.2-0.8,0.3-1.2c1-3.9,2.2-7.7,2.6-11.7c-0.5-0.7-0.5-1.4,0.1-2
		c0-0.5,0-1,0-1.5c0-0.1,0-0.3,0-0.4c0-0.5,0-0.9,0.1-1.4c0,0,0,0,0,0c0-0.1,0-0.1,0-0.2c0-0.5,0.1-0.9,0.2-1.4
		c0.1-0.5,0.2-1.1,0.3-1.6c0,0,0-0.1,0-0.1c0.1-0.5,0.3-1,0.5-1.5c0.3-0.9,0.7-1.7,1.2-2.5c0.6-1.1,1.4-2.1,2.4-3.1
		c2.3-2.4,3.7-5.4,4.7-8.5c-0.2-0.4-0.1-0.7,0.2-1c-0.1-0.9-0.1-1.8,0.3-2.6c-0.3-1.5-0.5-3.1,0.1-4.6c-0.1-0.4-0.2-0.8-0.2-1.2
		c-0.1-0.4-0.1-0.8-0.1-1.2c-0.1-4.8-1.1-9.5-2.7-14.1c-1.2-3.4-2.3-6.8-3.8-10.1c-1.8-4.2-4.7-7.6-8-10.6c-1.5-1.3-2.8-2.8-3.3-4.7
		c-1-3.8-3.4-6.7-5.6-9.8c-2-2.7-5.3-3.6-8.6-2.7c-3.4,1-5.7,4-5.7,7.1c0,2-0.2,4-0.6,6c-0.1,0.7-0.1,1.5-0.3,2.1
		c0,0.1-0.1,0.3-0.2,0.4c0,0,0,0.1,0,0.1c-0.1,0.1-0.1,0.3-0.2,0.4c-0.1,0.1-0.2,0.2-0.3,0.3c0,0,0,0.1-0.1,0.1
		c-0.1,0.2-0.2,0.3-0.3,0.5c-0.1,1.4-0.9,2.5-1.8,3.5c-0.3,0.3-0.6,0.6-0.9,1c-2.2,2.6-5,4.3-8.2,5.7c-3.9,1.7-7.7,3.7-11.5,5.6
		c-0.2,0.1-0.3,0.3-0.5,0.4c0,0,0,0,0,0c0,0,0,0.1,0,0.1c0.7,0.4,1.4,0.9,2.1,1.6c1.7,2,2.2,4.9,0.6,7.3c-2.7,4-6.2,7.3-10.4,9.7
		c-0.7,0.4-1.6,0.6-2.4,0.5c-0.3,0-0.6,0-0.9-0.1c-0.1,1.7-0.4,1.8-2.8,2c-0.3,0-0.5,0-0.8,0c-3.7,0.6-7.5,1.2-11.1,2.2
		c-3.6,1-6.5,3.3-9.6,5.4c-1.4,1-2.5,2.3-2.6,4.1C389.7,138.1,389.5,139,389.3,139.8z M444.1,142.1c-0.4-2.4-0.5-4.9,0.1-7.3
		c1.7-6.2,7.6-8.9,13.1-5.6c8.3,4.9,14.9,11.6,18.9,20.5c3.1,6.8,3.1,13.7,0,20.6c-0.9,1.9-2,3.7-3.4,5.3c-4.6,5-10.9,6.3-17,3.3
		c-4.3-2.1-7.4-5.5-9.5-9.8c-2.3-4.7-3.2-9.8-3.1-15c0-2.6,0.2-5.2,0.8-7.8C444.4,144.9,444.3,143.6,444.1,142.1z"/>
	<path class="st2" d="M737.9,377.2c-0.7-7.4-1.1-14.8-1-22.2c-2-3.4-4.1-6.8-6.1-10.2c-2.8-4.6-5.4-9.3-7.9-14.2
		c-3.4-6.9-6.2-14.2-7.6-21.9c-0.7-3.9-0.9-7.9-0.3-11.8c0.3-2.2,0.9-4.3,1.7-6.3c-0.9-11,1.7-20.5,2.9-24.8c2.4-8.5,4.1-9,6.7-16.7
		c3.1-9.2,3.8-17.8,3.6-24.7c-0.3-0.2-0.6-0.4-0.9-0.5c-2-1.3-4-2.6-5.8-4.3c-1.8-1.6-3.4-3.6-4.5-5.8c-2.3-4.4-3-9.3-3.3-14
		c-0.1-2.4-0.2-4.7-0.2-7c0-2.3-0.1-4.7,0-7c0.1-4.7,0.3-9.4,1.1-14.1c0-0.2,0.1-0.3,0.1-0.5c-4-10.2-6.8-16.2-11.2-20.5
		c-8.1-8-12.7-5.9-31.2-18.4c-1.9-1.3-3.6-2.5-5.1-3.5c2.9,3.6,5.9,7.2,9.1,10.6c8.4,8.9,13.9,19.4,17.1,31.2
		c2.2,8.1,4,16.4,6.3,24.5c3,10.9,5.2,21.8,6.1,33.1c0,0.1,0,0.2,0,0.3c-0.7,26.1-3.7,49.1-4,51.9c-4,30.3-7.8,48.9-6.5,63.6
		c-0.1-0.1-0.2-0.2-0.3-0.3c0.1,1.3,0.2,2.2,0.3,3.1c0.4,3.4,1.6,6.7,2.1,10.2c0.4,2.5,1,5,2,7.3c3.9,9.4,7,19,10.3,28.6
		c1.7,5.1,4.3,9.7,7.4,14.1c1.4,2,3.1,3.8,5,5.3c1.7,1.3,2.5,1.4,3.9-0.3c4-5,7.3-10.5,9.5-16.6c0.3-0.9,0.4-2,0.6-3
		C738.5,387.2,738.4,382.2,737.9,377.2z"/>
	<path class="st2" d="M295.1,318.9c-0.6-0.3-1.2-0.6-1.7-0.9c-1.8-1-3.5-2.2-4.9-3.7c-2.9-2.9-5.1-6.5-6.6-10.3
		c-1.5-3.8-2.3-7.9-2.7-11.9c-0.3-4.1-0.1-8.1,0.3-12.1c0.2-2,0.5-4,1-6c0.5-2,1.1-4,2.2-5.8c1-1.8,2.4-3.5,4.2-4.7
		c1.7-1.2,3.8-2,5.8-2.3c0.2,0,0.3,0,0.5-0.1c-0.1-0.1-0.2-0.3-0.3-0.4c-2.6-3.1-3.4-2-11.1-8.3c-2.2-1.8-3.9-3.4-5.2-4.7
		c-0.1-3-0.4-5.3-0.3-5.9c0.5-8.4,2.2-23.5-5.6-43.3c-2.4,8-4.5,16.1-5.7,24.4c-0.7,5.4-1,10.8-0.5,16.2c0.4,5.4,1.4,10.8,1.8,16.4
		c0.1,1.4,0.2,2.9,0.2,4.3v0c3.5,11.8,8,27.6,9.3,47.7c0.8,13-0.1,23.3-0.6,27.8c0,0.2-0.1,0.5-0.1,0.7v0c0.8,1.6,1.6,3.3,2.3,5
		c1.1,2.9,2,6,2.5,9c0.5,3.1,0.8,6.2,0.9,9.3c0.1,3.1,0.1,6.1,0,9.2c-0.1,3-0.1,6.2-0.6,9.2c-0.5,3.1-1.4,6.2-3.2,8.9
		c-0.9,1.3-2,2.5-3.3,3.5c-1.2,1-2.5,1.8-3.5,2.8c-2.1,1.9-3,5-4.2,7.8l-0.4,1c-0.5,9.2-0.9,15.6,1.2,17.3c0,0.3,0,0.6,0,0.9
		c0,3.9,2.6,5.8,5.3,7.8c0.6,0.4,1.1,0.4,1.4-0.3c0.3-0.6,0.6-1.2,0.9-1.8c2.9-6.6,6-13,9-19.5c6.1-13.2,10.4-27.1,13.5-41.3
		c3.1-14.2,3.8-28.6,4.6-43.1c-0.8-0.4-1.5-0.7-2.3-1.1C297.6,320.1,296.4,319.5,295.1,318.9z"/>
</g>
<g>
	<path class="st3" d="M730.7,224.8c-0.3-0.2-0.6-0.3-0.9-0.5c0,0,0,0,0,0c0.1,7-0.5,15.5-3.6,24.7c-2.6,7.6-4.3,8.2-6.7,16.7
		c-1.2,4.3-3.8,13.7-2.9,24.8c0.2-0.4,0.4-0.8,0.5-1.3c0,0,0,0,0,0c0.2-0.4,0.4-0.8,0.6-1.2c0-0.1,0.1-0.2,0.1-0.3
		c0.2-0.3,0.3-0.6,0.5-0.9c0.2-0.4,0.5-0.8,0.8-1.2c9.2-13,24.5-20.8,40.1-21.5c3.9-0.1,7.9,0,11.7,1.3c1.9,0.6,3.7,1.6,5.2,3
		c0.2,0.1,0.3,0.3,0.5,0.5c1.3,1.3,2.2,3,2.7,4.7c0.5,1.9,0.7,3.9,0.9,5.8l0.1,1.4c4.8-6.6,9-13.7,12.7-21c-1.2-0.2-2.4-0.4-3.6-0.5
		c-1.3-0.2-2.5-0.4-3.8-0.6c-0.7-0.1-1.4-0.3-2.1-0.4c-2-0.5-4-1.2-5.7-2.6c-1.7-1.3-3-3.2-3.7-5.2c-0.7-2-1.1-4.1-1.2-6.1
		c-0.1-2.1-0.2-4-0.1-6.1c0-1,0.1-2.1,0.4-3.2c0.3-1.1,0.8-2.2,1.5-3.1c1.4-1.8,3.1-2.9,4.7-4.1c1.6-1.2,3.2-2.4,4.9-3.5
		c3.4-2.2,7.1-4.1,11.3-4.7c0.9-0.1,1.8-0.2,2.6-0.2c1.2,0,2.4,0.1,3.6,0.4c1.1,0.2,2.2,0.6,3.2,1c0.5-6.4,0.2-12.9-0.9-19.4
		c-1.3-7.9-3.6-15.6-6.4-23.1c-1.8-4.9-4.8-9-9-12.1c-1,0.6-2.1,1-3.1,1.3c-1.1,0.3-2.1,0.7-3,1.3c0,0-0.1,0-0.1,0.1
		c-0.9,0.6-1.6,1.4-2.1,2.4c-1.1,1.9-1.4,4.2-1.3,6.4c0.2,2.2,0.8,4.4,1.5,6.6c0.7,2.2,1.5,4.5,1.9,6.9c0.4,2.4,0.4,4.8,0.1,7.2
		c-0.6,4.8-2.2,9.3-4,13.7c-0.9,2.1-1.7,4.5-3.5,6.4c-0.9,1-2.1,1.8-3.3,2.2c-1.3,0.4-2.6,0.5-3.9,0.5c-2.5-0.1-4.8-0.8-7-0.9
		c-2.2-0.2-4.1,0.2-6,1.4c-1.9,1.1-3.6,2.6-5.5,4c-1,0.7-2,1.4-3.1,2c-1.1,0.6-2.4,1.1-3.7,1.3c-1.3,0.2-2.7,0.1-4-0.2
		c-1.3-0.3-2.4-0.8-3.5-1.3c-0.5-0.3-1-0.5-1.5-0.8c-0.2-0.1-0.3-0.2-0.5-0.3c-0.3-0.2-0.6-0.4-0.9-0.5c-0.2-0.1-0.4-0.2-0.6-0.4
		C731.3,225.2,731,225,730.7,224.8z"/>
	<path class="st3" d="M661.4,235.4c3-4,5.9-8.1,8.5-12.4c1.3-2.1,2.5-4.3,3.7-6.6c0.1-0.2,0.2-0.3,0.2-0.5c0.1-0.3,0.2-0.6,0.3-0.9
		c0.1-0.5,0.1-0.9-0.1-1.4c-0.1-0.3-0.2-0.6-0.4-1c-0.3-0.6-0.6-1.3-1-1.9c-0.3-0.6-0.7-1.2-1.1-1.8c-0.5-0.8-1-1.6-1.5-2.4
		c-0.9-1.6-1.5-3.4-2-5.2c-0.2-0.9-0.4-1.9-0.5-2.8c-0.1-1.1-0.3-2.2-0.5-3.3c-0.1-0.7-0.2-1.5-0.3-2.2c-0.1-0.7-0.2-1.5-0.2-2.2
		c0-0.4,0-0.7,0-1.1c-0.1-4.4-0.3-8.9-0.4-13.3c0-0.4,0-0.9,0-1.3c-0.1-1.3-0.2-2.6-0.4-3.9c0.4-0.4,0.4-0.7-0.1-1
		c0.1-0.7,0.1-1.4,0-2.1c0-0.4,0-0.7-0.1-1.1c-0.2-1.8-0.4-3.6-0.3-5.3c0-0.4-0.1-0.7-0.3-1.1c-0.1-0.1-0.1-0.2-0.2-0.3
		c-0.9-1.2-1.6-2.5-2.3-3.8c-0.3-0.7-0.6-1.3-1-2c-0.3-0.7-0.6-1.3-1-2c-0.6-1.1-1-2.2-1.3-3.4c-0.2-0.6-0.3-1.2-0.4-1.8
		c-0.1-0.6-0.2-1.2-0.3-1.8c-0.1-0.9-0.2-1.8-0.3-2.6c-0.1-0.9-0.2-1.8-0.3-2.6c-0.2-1.7-0.6-3.5-1-5.2c-0.2-0.6-0.3-1.2-0.4-1.8
		c-0.4-1.8-0.5-3.5-0.5-5.3c0,0,0,0,0,0c-0.7-0.9-1.3-1.9-2-2.8c-2.5-3.6-4.7-7.4-6.4-11.5c-1-2.3-1.7-4.8-1.9-7.3
		c-0.1-1.4,0-2.7,0.4-4c0.2-0.7,0.6-1.2,1.2-1.6c0.3-0.2,0.6-0.3,1-0.3c1.2-0.1,1.9,0.6,2.3,1.6c0.1,0.2,0.2,0.5,0.3,0.7
		c0.9,2.7,2.3,5.1,4,7.3c1.2,1.6,2.4,3.2,3.6,4.7c0.9,1.2,1.8,2.3,2.6,3.5c0.4,0.5,0.7,1,1.1,1.5c0.8,1,1.6,2.1,2.3,3.1
		c0.3,0.4,0.7,0.9,1,1.3c1.1,1.4,2.2,2.8,3.3,4.2c0,0,0,0,0,0c1.5,1.1,3.2,2.3,5.1,3.5c18.5,12.5,23.1,10.4,31.2,18.4
		c4.4,4.3,7.3,10.3,11.2,20.5c0.1-0.6,0.2-1.1,0.3-1.7c0,0,0,0,0,0c0.1-0.5,0.2-1.1,0.3-1.6c0,0,0-0.1,0-0.1c0.1-0.5,0.2-1,0.4-1.5
		c0-0.1,0-0.2,0.1-0.2c0.1-0.5,0.2-0.9,0.4-1.4c0-0.1,0.1-0.3,0.1-0.4c0.1-0.4,0.2-0.8,0.4-1.2c0.1-0.2,0.1-0.4,0.2-0.6
		c0.1-0.3,0.2-0.7,0.4-1c0.1-0.3,0.2-0.6,0.3-0.9c0.1-0.2,0.2-0.5,0.3-0.7c0.2-0.5,0.5-1.1,0.7-1.6c2-4.3,4.8-8.2,8.3-11.4
		c0.8-0.8,1.7-1.5,2.6-2.1c0.2-0.1,0.4-0.3,0.6-0.4c-0.8-0.4-1.5-0.9-2.2-1.3l-18-19c-0.3,0.7-0.7,1.4-1.2,2.1
		c-1.3,1.7-2.9,3.3-4.9,4.3c-1,0.5-2.1,0.8-3.2,1.1c-1.1,0.2-2.3,0.1-3.4-0.1c-2.3-0.5-4.1-1.8-5.7-3.1c-1.6-1.3-3.1-2.6-4.6-3.8
		c-6.1-5.1-12.1-10.3-18.1-15.5c-5.9-5.3-11.8-10.7-17.4-16.4c-2.8-2.8-5.5-6-6.9-9.8c-0.5-1.4-0.8-2.9-0.8-4.3c0-0.6,0-1.1,0-1.7
		c0-0.4,0.1-0.8,0.2-1.1c-0.2-0.2-0.4-0.3-0.6-0.5c-1.7-0.9-3.4-1.9-4.9-3.1c-5.1-4.4-10.9-7.7-16.3-11.5c-3.9-2.7-8.2-4.8-12.9-5.7
		c-8.4-1.6-16.8-2.6-25.4-2c-7.2,0.5-14.3,0.9-21.5,1.3c-4.8,0.3-9.6,0.1-14.4-0.7c-6.1-1.1-12.2-2.1-18.1-3.7
		c-11.1-3-22.4-3.9-33.9-2.7c-4.1,0.4-8.2,0.7-12.4,1.1c-6.1,0.5-12.1,1-18.2,1.5c-1.8,0.2-2,0.3-1.7,1.7c1.2,5.2-0.7,9.5-4.2,13.1
		c-4.9,5.1-10.9,8.4-17.9,9.9c-4,0.8-7.9,0.5-11.5-1.5c-1.4-0.8-2.8-1-4.4-0.8c-0.8,0.1-1.7,0.2-2.5,0.2c-6.8-0.1-10.4-5.7-7.5-11.9
		c0.7-1.5,1.6-2.8,2.7-3.9c1.1-1.2,2.3-2.2,3.6-3.2c0.4-0.3,1.2-0.4,0.9-1.3c-11.1,0.2-22,1.7-32.5,6.8c0.7,0,1.1,0,1.4,0
		c4.6-0.5,8.5,1.1,11.7,4.2c2.7,2.6,4.9,5.6,6.2,9.1c0.6,1.7,1.5,3,3.1,3.9c0.5,0.3,1,0.7,1.4,1c6.8,5.4,7.2,13.2,1,19.3
		c-0.5,0.5-1,0.9-1.5,1.4c-2.4,2-4.8,4-7.2,6c-2,1.6-4,3.2-6.2,4.4c-1.9,1-3.9,1.7-6,1.6c-3.8-0.2-6.7-2.8-7.3-6.5
		c-0.3-2.1,0.1-4,0.9-5.9c0.8-2,2-3.9,3.4-5.6c0.7-0.9,1.1-1.6,0.5-2.7c-1-1.8-0.7-3.8,0.2-5.6c0.3-0.7,1-1.4,0.5-2.4
		c-1.4-0.1-2.9,0.4-4.2-0.2c-1.4-0.7-2.2-0.1-2.9,1c-0.6,0.8-1,1.7-1.1,2.8c-0.3,1.7-0.7,3.3-1.1,4.9c-2.5,8.8-7,16.4-13.7,22.7
		c-1.9,1.8-4,3.4-6.6,4.1c-4.9,1.3-9.5-1.4-10.6-6.3c-0.3-1.4-0.3-2.8-0.2-4.3c0.1-0.5,0.5-1.1-0.2-1.7c-2.7,0.6-5.1,2-7.3,3.8
		c-0.6,0.6-1.3,1.3-2.2,1.1c-1.1-0.2-1.7,0.1-2.2,0.7c-0.4,0.4-0.7,0.9-1,1.5c0,0,0,0,0,0.1c-0.7,1.2-1.2,2.5-1.6,3.9
		c-1.8,7.5-2.5,15.1-3.1,22.8c-0.2,2.7-0.3,5.4-0.5,8.1c-0.6,6.2-3.6,11.3-7.6,16c-3.4,4-6.4,8.3-9,12.8c-4.5,7.9-7.9,16.2-8.4,25.5
		c0,0.7-0.4,1.7,0.2,2.2c1.8,1.2,1.3,2.7,1,4.3c-1.5,8.9,1.4,16.4,7.5,22.9c1.7,1.8,3.4,2.7,6,1.9c2.9-0.9,5.6-0.1,7.5,2.4
		c2,2.6,2.5,5.6,0.8,8.3c-1.6,2.5-1.3,4.9-0.7,7.5c0.3,1.1,0.7,2,1.6,2.8c3.2,2.9,2.2,7.2-1.9,8.5c-1.4,0.5-2.9,0.8-4.4,1.1
		c-0.3,0.1-0.6,0.1-1,0.1c-0.3,0-0.5,0.1-0.8,0.1c0,0.2,0.1,0.4,0.2,0.6c0,0,0,0,0,0c0,0,0,0,0,0c-0.3,1,0.1,2,0.5,2.8
		c0.1,0.1,0.1,0.2,0.2,0.3c2.2,3.8,3.9,7.8,6.1,11.6c0.7-0.5,1.6-0.9,2.5-1.1c3.7-0.7,6.9,1.4,7.9,5.4c0.5,2.2,0.8,4.5,1.1,6.7
		c0.1,0.5,0.2,1,0.3,1.4c1.3,0.8,2.5,1.5,3.8,2.3c0.9,0.6,1.9,1.1,2.8,1.7c0.9,0.6,1.8,1.2,2.8,1.8c0.1,0.6,0.4,0.9,1,0.9
		c0.2,0.3,0.3,0.5,0.5,0.8c0.6,0.7,1.3,1.3,2.1,1.8c0,0.6,0.3,0.9,0.9,1c0.6,0.9,1.1,1.8,1.7,2.6c0,0,0,0,0,0c0.3-1.9,1.5-3.6,3-4.9
		c1.2-1,2.1-2.1,2.8-3.5c0.8-1.5,1.7-2.9,3-4c2.2-1.8,4.8-2.2,6.8-0.8c2,1.4,2.8,3.8,2,6.5c-0.5,1.7-1.2,3.3-2.6,4.5
		c-0.7,0.6-1,1.3-0.6,2.2c0.1,0.1,0.1,0.3,0.1,0.5c0.6,1.9,0.2,3.9,0.6,5.7c0.4,1.8,2.7,2.7,3.5,4.5c0.7,1.5,1.3,3,1.3,4.6
		c0,1.7,0.8,2.7,2.2,3.4c0.3,0.2,0.6,0.4,0.9,0.5c2.9,1.2,5,3.1,5.8,6.6c1.5-1.7,2.7-3,3.9-4.2c1.3-1.3,2.6-2.4,4.2-3.2
		c4.8-2.6,10.3-0.8,12,4.4c2,5.8,2,11.7-1.3,17.1c-1.8,2.8-2.7,5.7-2.9,9c-0.2,1.9-0.4,3.8-0.7,5.7c0,0,0,0,0,0
		c-0.1,0.3-0.1,0.6-0.2,0.9c-0.1,0.4-0.1,0.8-0.2,1.2c0,0,0,0,0,0c-0.1,0.2-0.1,0.5-0.2,0.7c-0.1,0.3-0.2,0.7-0.3,1
		c0.3,3.6,0.9,7.2,4.3,9.5c0.7,0.5,1.3,1.1,1.9,1.7c0.7,0.7,1.3,1.5,1.7,2.3c3.2,2.8,6,6.1,7.8,10c1.4,3,1.4,6.2,0,9.3
		c-1.2,2.8-3.3,4.7-6.4,5.2c-0.4,0.1-0.8,0-1.2,0.4c0,0.9,0.6,1.5,0.9,2.3c2.5,5.9,2.7,11.8-0.3,17.6c-1.1,2.1-2.6,3.9-4.6,5.3
		c-4.4,3-9.5,2.2-12.8-1.7c0,0.2-0.1,0.4-0.1,0.6c-0.1,0.9-0.3,1.7-0.5,2.6c-0.2,1.5-0.4,2.9-0.2,4.4c-0.5,0.5-0.5,1-0.1,1.5
		c-0.3,1.1-0.5,2.3-0.5,3.5c0,4.9,0,9.7,0,14.6c0,1.4,0.3,2.8,0.4,4.2c-0.5,0.7-0.5,1.4,0.1,2c-0.1,2.1-0.2,4.1,0.4,6.1
		c-0.4,0.4-0.4,0.7,0.1,1c0.4,4.5,1.5,8.7,3.3,12.8c0.6,1.5,1.3,2.9,1.9,4.4c0.5,1.2,1.1,2.2,1.9,3c0.3,0.3,0.7,0.6,1.1,0.9
		c0.3,0.2,0.7,0.5,1.1,0.6c0,0,0.1,0,0.1,0c0.4,0.2,0.7,0.3,1.1,0.5c0,0,0,0,0,0c0.1,0,0.2,0.1,0.4,0.1c0.4,0.1,0.9,0.3,1.3,0.4
		c0.3,0,0.5,0,0.8,0.1c-0.1-0.2-0.2-0.3-0.3-0.5c0-0.4,0-0.9,0-1.3c0-0.6,0-1.3,0.1-1.9c0.1-0.6,0.3-1.2,0.9-1.8
		c1.9-2.2,4.3-3,7.1-2.8c0.8,0,1.5,0.2,2.2,0.3c0.5,0.3,1.1,1.4,1.6-0.1c0.4-2.9,2.4-4.8,4.4-6.7c0.1-0.1,0.3-0.2,0.4-0.3
		c0.4-0.3,0.8-0.5,0.9-1c0-0.1,0.1-0.2,0.1-0.3c0,0,0,0,0,0c0.2-0.1,0.4-0.2,0.6-0.3c1-1.1,2.6-1.3,3.4-2.6c0.7-0.3,0.8-0.8,0.5-1.4
		c0-1.9-1.2-3.6-1.1-5.6c0.1-2.1-0.2-4.2,0.5-6.2c1.1-2.9,2.9-5.4,5.7-6.9c1.4-0.7,2-1.5,1.8-3.1c-0.2-1.5-0.1-3.1,0.8-4.4
		c0.5-0.7,0.3-1.4,0.2-2.2c-0.3-2.1-0.6-4.2-0.4-6.3c0.1-0.6,0.1-1.3-0.2-1.7c-0.9-1.7-1.5-3.4-1.8-5.2c-0.1-0.6-0.2-1.2-0.3-1.8
		c-0.1-0.1-0.2-0.1-0.2-0.2c-0.1-0.1-0.1-0.1-0.1-0.2c0,0,0,0,0-0.1c0,0,0-0.1-0.1-0.1c0,0,0,0,0-0.1c0-0.1,0-0.1,0-0.2
		c0-0.1,0.1-0.2,0.2-0.3c-0.5-3.6-0.5-7.1,1-10.4c0.7-1.4,1.5-2.7,2.6-3.5c-0.9-1-1.8-2.1-2.6-3.2c-2.3-3-4.2-6.4-5.1-10.1
		c-2.1-8.1-3.3-16.4-2.2-24.8c0.1-0.7,0.1-1.5,0.1-2.3c-0.2-6.1,1-12,3.2-17.6c2.5-6.4,6.2-12,12.7-15.2c1.8-0.9,3.5-2.1,5-3.4
		c2.7-2.4,5.9-4,9.3-4.9c0.2,0,0.4-0.1,0.6-0.1c1.2-0.3,2.5-0.6,3.8-0.9c5.1-1.2,10.3-2.2,15.4-3.4c4.8-1.1,9.7-1.2,14.5-2
		c0.7-0.1,1.4-0.2,2.1-0.3c1-0.1,2.1-0.2,3.1-0.3c4.7-0.4,9.4-0.2,14,0.7c5.5,1.1,11,1.9,16.3,3.6c2.7,0.9,5.6,1.6,8,3.1
		c6.8,4.4,13.3,9.2,18.1,16c5.9,8.4,8,17.5,6,27.6c-0.2,1.1-0.6,2.2-0.5,3.2c0.2,4.4-0.7,8.7-1.6,13c-0.9,4.6-2.6,8.7-4.7,12.7
		c0.2,0.6,0.3,1.2,0.5,1.8c0.1,0.3,0.2,0.6,0.2,0.9c0.1,0.3,0.1,0.6,0.2,1c-0.2,0.8-0.2,1.7,0,2.5c-0.4,1.8-0.8,3.6-1.2,5.4
		c-0.3,1.2-0.3,2.5,0,3.8c0.9,3.7,0,7-2.4,9.9c-0.4,0.5-0.8,1.1-1.2,1.6c-1,1.8-1.4,3.7-0.2,5.5c1.8,2.5,2.6,5.4,3.5,8.3
		c-0.2,0.3-0.1,0.7,0.1,1c-0.1,0.9-0.1,1.7,0,2.6c-0.2,0.3-0.3,0.6-0.1,1c-0.9,3.6-1.7,7.2-2.6,10.8c-0.9,3.8,0.2,6.9,3.1,9.5
		c0.5,0.4,1,0.9,1.4,1.4c1.3,1.5,2,3.3,1.6,5.3c-0.2,0.9-0.3,1.8-0.4,2.7c-0.2,1.9,0.6,3.4,2,4.7c0.3,0.2,0.5,0.5,0.8,0.6
		c2.1,1.1,3.8,2.4,5.1,4.1c1.3,1.7,2.2,3.7,2.7,6c0.4,1.7,1.6,2.7,3.4,2.9c0.5,0.3,1,0.3,1.5,0.3c0.4,0.2,0.7,0.5,0.9,0.8
		c0.2,0.3,0.3,0.6,0.4,0.9c0.1,0.7-0.1,1.4-0.4,2.1c0,0,0,0,0,0c0.3,0,0.7,0,1,0c0.1,0,0.2,0,0.2,0c0.2,0,0.5,0,0.7,0.1
		c0.4,0.1,0.7,0.2,1.1,0.3c2.4,0.5,4.7-0.2,6.9-1.4c1.2-0.6,2.4-1.3,3.6-1.9c1.2-0.7,2.4-1.3,3.6-2c0.3-0.2,0.6-0.3,1-0.4
		c0.2-0.1,0.5-0.1,0.7-0.2c0.2,0,0.3-0.1,0.5-0.1c0,0,0.1,0,0.1,0c0.2-0.1,0.3-0.1,0.5-0.2c0,0,0,0,0,0c0,0,0,0,0.1,0c0,0,0,0,0,0
		c0.1-0.1,0.3-0.2,0.4-0.3c0,0,0,0,0,0c0,0,0,0,0.1,0c0,0,0,0,0.1,0c0.1-0.1,0.3-0.3,0.4-0.4c0.2-0.1,0.3-0.3,0.5-0.4
		c1-0.5,1.9-1.1,2.7-1.7c1.3-1.1,2.4-2.5,3.3-4.1c0.7-1.1,1.3-2.3,1.9-3.5c0.6-1.2,1.1-2.4,1.4-3.7c0.1-0.4,0.1-0.8,0.2-1.2
		c0.4-0.2,0.5-0.5,0.3-0.9c0.5-1.8,0.8-3.6-0.1-5.3c0,0,0-0.1,0-0.1c-2.5,2.9-6.6,2.4-8.6-1.2c-1.2-2.2-1.3-4.5-0.8-6.9
		c0.6-2.6,1.5-5,2.8-7.3c1-1.6,1-1.6-0.6-3c-1.6-1.4-2.7-3-3.7-4.8c-0.4-0.7-0.8-1.4-1.4-2.5c-0.6,0.9-0.9,1.5-1.3,2
		c-2.6,3.4-7.3,3.3-9.6-0.3c-1.2-1.7-1.6-3.7-1.5-5.8c0.2-4.1,1.2-7.9,4.3-10.8c0.7-0.7,0.9-1.5,1.1-2.5c0.4-1.9,0.8-3.8,2.3-5.2
		c0.1-0.1,0.3-0.3,0.3-0.4c0.2-2.9,1.5-5.7,1-8.7c-0.2-1.2-0.7-2.3-0.7-3.5c0-2.3-1.1-3.8-2.8-5.1c-1.1-0.8-2.1-1.7-2.8-2.9
		c-2.1-3.1-0.7-6.4,3-7c2.5-0.4,4.9,0.1,7.1,1.4c4.9,2.9,9.1,6.5,11,12.1c0.2,0.6,0.5,1.1,0.8,1.6c0,0,0,0,0,0c0-0.6,0-1.2,0-1.9
		c0.4-0.3,0.5-0.6,0.1-1c0.1-0.5,0.2-1,0.3-1.5c0.3-1.5,0.6-2.9,0.7-4.4c0-0.4,0.1-0.7,0.1-1.1c0.2-1.1,0.5-2.1,0.9-3.2
		c0.1-0.2,0.3-0.4,0.4-0.5c0.1-0.1,0.3-0.2,0.4-0.3c0-0.1,0.1-0.1,0.1-0.2c0-0.1,0-0.2,0-0.3c0-0.2,0-0.3,0-0.5c0-0.2,0-0.3,0-0.5
		c-0.1-2.2-0.4-4.2-1.5-6.1c-0.4-0.6-0.8-1.2-1.3-1.8c-1.3-1.4-2.1-3.2-2.4-5.1c-0.1-0.7-0.2-1.3-0.1-2c0-0.1,0-0.2,0-0.4
		c-0.1-0.4-0.2-0.7-0.3-1.1c0.2-0.4,0.2-0.7-0.2-1c0-0.3,0-0.5,0-0.8c0-1.1,0-2.2,0-3.3c0.5-0.4,0.5-0.9,0.2-1.5
		c0.1-0.7,0.3-1.4,0.4-2.1c-0.3-0.9-0.6-1.7-0.9-2.6c-1.5-4.2-3.7-7.9-7-11c-0.2-0.2-0.5-0.5-0.7-0.7c-7.6-7.7-8.9-15.4-4-25.1
		c0.5-1.1,0.6-1.8-0.1-2.8c-1.2-1.7-2.5-3.3-4.2-4.7c-4.7-3.8-8.7-8.2-12.7-12.6c-2-2.1-3-4.8-4-7.5c-0.1-0.4-0.2-0.8-0.2-1.2
		c0-0.2,0.2-0.5,0.3-0.6c0.2-0.2,0.5,0,0.7,0.2c0.2,0.2,0.3,0.4,0.4,0.6c1.5,3.1,3.8,5.3,6.5,7.3c2.6,1.9,5.3,3.7,8,5.3
		c2.2,1.3,4.3,2.6,6.5,3.9c5,3,8.6,7.1,11.5,12.2c2.2,3.7,4.1,7.5,5.8,11.4c0.1,0,0.1,0,0.2,0c1.5,0.2,2.9,0.8,4.3,1.5
		c0.3,0.2,0.7,0.4,1,0.6c1,0.6,1.9,1.2,2.9,1.8c0.8,0.5,1.7,1.1,2.5,1.6c1.6,1.1,3.2,2.3,4.8,3.5c0.8,0.6,1.5,1.3,2.3,1.9
		c0.6,0.5,0.9,0.8,1.2,0.9c0.1,0,0.2,0,0.2,0c0.1,0,0.3-0.2,0.4-0.4c0.1-0.2,0.3-0.6,0.4-1c0.3-0.9,0.8-1.7,1.2-2.5
		c3.7-7.4,7.4-14.7,11-22.1c2.1-4.4,4-8.8,5.6-13.4c0.2-0.7,0.5-1.3,0.7-2c0.7-2,1.4-4,1.5-6.2c0,0,0,0,0,0c0,0,0,0-0.1,0
		c0,0,0,0,0,0c-2.3-0.6-4.5-2.1-6-4.4c-2.6-3.9-3.2-8.3-2.7-12.8c0.6-5.2,2.2-10,4.4-14.7c0.6-1.3,1.1-2.6,1.4-4
		c0.5-2.3,1.9-3.9,3.7-4.7c0.1-0.7,0.1-1.5,0.2-2.2c0.3-1.8,0.7-3.4,1.2-5.1c0.3-0.8,0.5-1.6,0.8-2.4c0.6-1.6,1.3-3.1,2.2-4.6
		c0.4-0.7,0.8-1.5,1.3-2.2c0.9-1.4,1.9-2.8,3-4.2C658.4,239.4,659.9,237.4,661.4,235.4z M654.6,224.7c-0.8-1-1.3-2.2-1.5-3.4
		c-0.4-3-1.5-5.6-3-7.8c-0.1,0.6-0.1,1.2,0.1,1.8c0.1,0.2,0.1,0.4,0.2,0.6c0,2.9,0,5.7,0,8.6c-0.2,0.4-0.3,0.8-0.3,1.3
		c0,0.2,0,0.4,0,0.6c0,0.2,0,0.4,0,0.7c-0.3,0.5-0.4,1-0.3,1.5c-0.1,0.2-0.2,0.3-0.2,0.5c0,0.2,0,0.4,0,0.5c-0.3,0.3-0.4,0.6-0.2,1
		c-0.3,0.8-0.6,1.6-0.9,2.4c-0.2,0.4-0.3,0.8-0.5,1.2c-0.9,1.9-1.9,3.8-2.6,5.8c-0.5,0.3-0.7,0.7-0.8,1.2c-0.4,0.5-0.8,1.1-1.2,1.6
		c-0.4,0.5-0.8,1.1-1.2,1.6c-0.3,0.4-0.6,0.7-0.9,1.1c-1.1,1.2-2.2,2.4-3.5,3.3c0.1,0.1,0.1,0.3,0.2,0.4c2.3,4.6,1.8,9.2-1,13.5
		c-2,3-4.7,5.4-7.9,6.9c-2.9,1.4-4.9,3.4-6.4,6.2c-0.7,1.4-1.7,2.7-2.6,4c-0.7,0.9-0.6,1.6,0.2,2.4c0.8,0.8,1.5,1.6,2.2,2.4
		c2.2,2.6,3.4,5.6,3.8,8.9c0.3,2.7,0.2,5.4-0.1,8.1c-0.4,3.2-1.7,6-3.9,8.4c-1,1.1-1.9,2.3-2.7,3.6c-2.1,3.3-5.4,4.7-8.9,4
		c-3.4-0.8-5.9-3.6-6.2-7.5c-0.2-2.8-1-5.5-1.8-8.1c-0.3-1.2-1-1.8-2.2-2.2c-2.6-0.8-5.1-1.7-7.5-3.1c-2.7-1.6-4.6-3.7-4.4-7.1
		c0.1-1.5-0.9-1.6-1.9-1.9c-5.6-1.9-10.4-5.1-14.5-9.4c-1.2-1.2-2.2-2.5-3.1-3.8c-0.3,0-0.7-0.2-1-0.5c-0.1-0.1-0.2-0.1-0.3-0.2
		c-3.4-3.2-7.3-5.6-11.5-7.6c-1.4-0.7-2.9-1.3-4.3-1.8c-2.4-0.8-5-1.4-7.6-1.5c-0.3-0.4-0.6-0.5-1-0.2c-0.6-0.1-1.2-0.2-1.8-0.4
		c-1.8-0.4-3.5-0.8-5.3-0.2c-0.6-0.2-1.1-0.2-1.5,0.3c-1.4,0-2.8,0-4.1,0c0,0-0.1,0-0.1-0.1c0,0,0.1,0,0.1,0.1c0,0,0,0,0,0
		c3.2,2.9,5.5,6.4,7.3,10.4c1.5,3.2,0.9,6.3-1,9.1c-1.8,2.6-4.4,4.2-7.4,5.1c-1.2,0.4-1.7,0.9-1.6,2.3c0.3,2.6-1,4.6-3.2,5.9
		c-2,1.1-3.7,2.6-5.4,4.2c-1.1,1-2.3,1.9-3.7,2.7c-5.7,3-12.4,0.9-15.4-4.8c-1.2-2.2-1.7-4.6-1.8-7.1c-0.1-3.2-0.8-6.4-1.4-9.5
		c-0.2-1.1-0.6-2.1-1.3-3c-1.7-2.2-3-4.5-3.8-7.1c-0.3-0.9-0.6-1.5-1.7-1.4c-2.3,0-4.5-0.7-6.6-1.7c-1.5-0.7-2.9-0.7-4.4-0.4
		c-3.2,0.7-5.9,2.1-8.1,4.5c-1.7,1.9-3.4,3.8-5.1,5.6c-0.6,0.6-1.2,1.2-1.8,1.8c-2.3,1.9-5.2,1.3-6.5-1.5c-0.9-1.8-0.7-3.6-0.3-5.5
		c0.4-1.6,0.9-3.1,1.6-4.6c-2.3,0.3-4.3,1.4-6.4,2c-3.8,1.1-7.2,3-10.3,5.4c-3.9,3-6.9,6.6-8.1,11.5c-0.4,1.8-1.2,3.3-2.3,4.6
		c-1.4,1.7-3.2,3.2-4.6,5c-0.7,1-1.9,1.3-3.2,1.2c-1.9,0-3.9,0-5.8,0c-4.1,0-6.7-2.4-8.8-5.5c-4,2.8-8.6,4.1-13.6,4.2
		c-4.7,0.1-8.7-1.7-11.7-5.4c-2.1-2.6-3.9-5.5-5.7-8.3c-1.2-1.9-2.5-3.6-4.3-4.9c-1.4-1.1-2.7-2.4-3.7-3.8c-0.7-1-1.5-1.2-2.6-0.9
		c-1.4,0.4-2.7,0.9-4.1,1.2c-2.8,0.7-5.4,0.3-7.6-1.7c-1.4-1.2-2.3-2.8-2.7-4.5c-0.4-1.6-1.2-2.6-2.8-3.3c-2-0.9-3.3-2.6-4.5-4.4
		c-2.8-4.5-4.2-9.6-4.8-14.8c-0.1-1.2,0-2.2,0.2-3.1c-1.2-1.1-1.9-2.5-2.1-4.4c-0.1-0.7-0.1-1.4-0.3-2c-0.1-0.2-0.2-0.4-0.3-0.6
		c0.2-0.3,0.1-0.7-0.1-1c0-0.6,0-1.2,0-1.8c0-2.2,0-4.5,0.7-6.7c0.5-1.6,1.2-3.2,1.3-4.9c0.2-2.3,2.2-3.6,2.9-5.7
		c0.6-1.5,1.1-3,1.3-4.5c0.1-0.6,0.2-1.2,0.5-1.6c2.2-2.6,3.8-5.6,5.5-8.5c0,0-0.1,0-0.1,0c-2.4-0.7-3.5-2.5-3.8-4.9
		c-0.2-1.5,0-3,0.2-4.5c0.1-1.1-0.2-1.5-1.4-1.5c-5.7,0.1-8-1.7-10-6.9c-2.2-5.6-1.4-11.1,0.5-16.5c1.2-3.5,3.3-6.5,5.8-9.1
		c3.8-3.9,9.1-3.3,12,1.2c1.1,1.7,1.6,3.5,1.8,5.5c0,0.7-0.1,1.5,0.3,2.4c1.1-0.5,1.5-1.2,2.1-1.8c2.2-2.1,4.5-4.1,7.1-5.7
		c2.9-1.8,6-3.2,9.4-3.5c3.5-0.3,7.1-0.6,10.6-0.7c9.4-0.2,16.2,4.3,20.6,12.3c2.9,5.1,1.8,10.8-1.6,14.7c2.7,1,5.3,2.4,7.8,4.1
		c0.8,0.6,1.7,1.1,2.5,1.6c0.5-0.4,1.2-0.3,1.8-0.2c2.7,0.4,5.3,1,7.8,2.2c1.8,0.9,3.2,2.3,3.7,4.3c0.8,2.7,2.1,5.1,3.2,7.7
		c0.3,0.6,0.5,1.1,0.7,1.7c0,0,0,0,0,0c-0.1-1-0.2-2-0.4-3c0.3-0.4,0.2-0.7-0.2-1c0.1-2-0.6-3.8-1.1-5.6c-0.7-2.4-2-4.7-2.7-7.1
		c-1.1-3.7-2.3-7.5-2.1-11.5c0-0.5-0.1-1.1,0.1-1.5c1.1-1.7,0.3-3.2-0.6-4.6c-0.2-0.4-0.4-0.7-0.6-1.1c-1.3-2.5-2.1-5.3-2.4-8.1
		c0.3-0.4,0.2-0.7-0.2-1c0.2-1.5-0.2-3-0.3-4.5c0-0.4-0.1-0.8-0.5-1.1c-1.1-0.7-1.6-1.7-1.6-2.9c0-0.3-0.1-0.7-0.3-0.9
		c-2.7-2.5-5.2-5.4-9.1-6.3c-1-0.2-1.9-0.7-2.9-0.9c-0.6-0.1-1.2-0.2-1.9,0c-0.5-0.5-1-0.5-1.5,0c-1.7-0.3-3.1,0.7-4.6,1.2
		c-1.9,0.6-3.7,0.9-5.7,0.9c-2.1,0-3.3-0.8-3.9-2.7c-0.1-0.3-0.3-0.6-0.4-0.9c0.2-0.9,0.4-1.7-0.2-2.5c0.1-1.9,1.1-3.2,2.6-4.1
		c3-2,5.9-4.4,9.6-5.4c3.7-1,7.4-1.6,11.1-2.2c0.2,0,0.5,0,0.8,0c2.4-0.2,2.7-0.3,2.8-2c-3.2-0.4-5.7-3.4-4.8-6.6
		c1.6-5.9,4.8-10.8,11.1-12.7c1.7-0.5,3.3-0.5,4.7,0.1c0,0,0.1,0,0.1,0.1c0,0,0-0.1,0-0.1c0,0,0,0,0,0c0.2-0.1,0.3-0.3,0.5-0.4
		c3.8-1.9,7.6-3.9,11.5-5.6c3.2-1.3,5.9-3.1,8.2-5.7c0.3-0.3,0.6-0.6,0.9-1c0.9-1,1.7-2,1.8-3.5c0.1-0.2,0.2-0.3,0.3-0.5
		c0,0,0-0.1,0.1-0.1c0.1-0.1,0.2-0.2,0.3-0.3c0.1-0.1,0.2-0.2,0.2-0.4c0,0,0-0.1,0-0.1c0.1-0.1,0.1-0.3,0.2-0.4
		c0.2-0.7,0.2-1.5,0.3-2.1c0.4-2,0.6-4,0.6-6c0-3.2,2.3-6.1,5.7-7.1c3.2-1,6.6-0.1,8.6,2.7c2.2,3.1,4.7,6,5.6,9.8
		c0.5,1.9,1.8,3.4,3.3,4.7c3.3,3,6.2,6.4,8,10.6c1.5,3.3,2.6,6.7,3.8,10.1c1.5,4.6,2.6,9.2,2.7,14.1c0,0.4,0.1,0.8,0.1,1.2
		c0.1,0.4,0.2,0.8,0.2,1.2c-0.6,1.5-0.4,3-0.1,4.6c-0.3,0.8-0.3,1.7-0.3,2.6c-0.4,0.2-0.5,0.6-0.2,1c-1,3.2-2.4,6.1-4.7,8.5
		c-0.9,1-1.7,2-2.4,3.1c-0.5,0.8-0.9,1.6-1.2,2.5c-0.2,0.5-0.4,1-0.5,1.5c0,0,0,0.1,0,0.1c-0.1,0.5-0.3,1.1-0.3,1.6
		c-0.1,0.5-0.1,0.9-0.2,1.4c0,0.1,0,0.1,0,0.2c0,0,0,0,0,0c0,0.5-0.1,0.9-0.1,1.4c0,0.1,0,0.3,0,0.4c0,0.5,0,1,0,1.5
		c-0.6,0.6-0.6,1.3-0.1,2c-0.4,4-1.6,7.9-2.6,11.7c-0.1,0.4-0.2,0.8-0.3,1.2c-0.1,0.4-0.1,0.8-0.1,1.2c-0.4,0.3-0.5,0.6-0.1,1
		c0,0.8,0,1.7,0,2.5c-0.5,0.5-0.4,1,0.1,1.5c0.4,2.4,0.8,4.8,1.2,7.2c0.7,4.2,0.2,8.2-1.8,12c-0.8,1.5-1.7,2.8-3.5,3.3
		c-1.3,0.4-1.3,0.8-0.4,1.8c1,1.1,2.1,2.2,3.3,3.2c0.7,0.5,1.4,1,2.2,1.2c0.5,0.1,1,0.2,1.5,0.2c0.5,0.5,1,0.5,1.5,0
		c1.2,0.2,2.3-0.1,3.5-0.5c3.2-1,6.6-1.4,9.9-1.6c0.6,0,1.1-0.1,1.7-0.1c-0.5-1.6-0.6-3.4-0.2-5.4c0.6-2.5,1.8-4.7,2.7-7.1
		c0.3-0.6,0.8-1.3,1.4-1.3c1.8-0.1,1.6-1.3,1.4-2.5c-1.5-9.1,0.1-17.8,4.3-26c2.3-4.5,5.4-8.3,9.7-11.1c2.4-1.6,4.7-3.3,7.3-4.6
		c2.7-1.3,5.5-2,8.3-2c0.1,0,0.3,0,0.4,0c0-0.1,0-0.2-0.1-0.2c0.1-0.4,0.1-0.7,0.2-1.1c0.4-0.2,0.5-0.6,0.3-1
		c0.1-0.4,0.1-0.7,0.2-1.1c0.4-0.2,0.5-0.5,0.3-1c0.1-0.4,0.3-0.8,0.4-1.2c0.1-0.2,0.1-0.4,0.2-0.6c0-0.1-0.1-0.1-0.1-0.2
		c-0.4-0.9-1-1.7-1.6-2.6c-2.4-3.6-1.3-7.7,2.6-9.5c1.5-0.7,3.1-1,4.8-1.1c0.2,0,0.4,0,0.7,0c0.1-0.2,0.2-0.3,0.1-0.6
		c0.1-0.1,0.2-0.3,0.2-0.5c0.6-0.1,0.9-0.4,0.9-1.1c0.2-0.1,0.4-0.2,0.5-0.4c0.1-0.2,0.2-0.4,0.2-0.6c0.6-0.1,0.9-0.4,0.9-1
		c0.3-0.4,0.6-0.7,0.9-1.1c0.9-1.2,1.7-2.4,3.2-3c0.9,0,1.4-0.6,1.6-1.4c0.2,0,0.3-0.1,0.4-0.2c0.6,0.1,0.9-0.3,1.1-0.9
		c0.2,0,0.3-0.1,0.4-0.2c1.9-0.7,3.8-1.3,5.3-2.8c2.6-2.1,5.2-4,8.1-5.5c-5.6-0.7-10.9-2.7-15.9-5.7c-1.7-1-3.5-2.1-5.2-3.2
		c-4.1-2.5-8.6-3.8-13.4-4c-1.9-0.1-3.7-0.1-5.5-0.4c-7.1-1.4-10.5-7.7-7.5-14.4c0.3-0.6,0.6-1.2,0.9-1.8c3.8-6,8.7-11,15-14.4
		c4.4-2.4,9-3.3,13.9-2.1c2.9,0.7,6,0.5,9,1c4.9,0.8,9.4,2.6,13.6,5.3c3.1,2,6.2,4.1,9,6.5c4.4,3.7,7.7,8.2,9.8,13.4c0,0,0,0,0,0
		c0.3,0.2,0.6,0.4,0.9,0.6c0.3,0.2,0.6,0.4,0.9,0.6c0.4,0.3,0.8,0.6,1.1,0.9c0.5,0.5,1,1,1.5,1.5c0.9,1,1.8,2.2,2.5,3.4
		c1,1.8,1.8,3.9,2.2,6.2c0.2,0.9,0.3,1.6,0.5,2.2c0.4,1.6,0.7,2.5,1.2,3.2c0.3,0.4,0.6,0.7,1,0.9c0.8,0.5,2,0.9,3.8,1.8
		c2.4,1.2,4.9,2.4,7.3,3.6c1.2,0.6,2.4,1.3,3.6,2c0.6,0.4,1.2,0.7,1.7,1.1c0.6,0.4,1.1,0.8,1.7,1.2c2.4,1.8,4.3,4,5.6,6.6
		c2.7,0.9,5.4,2.2,7.9,4c6.9,4.8,12.3,11,16.5,18.2c3.4,5.9,4.5,12.5,3.1,19.3c-0.7,3.3-1.1,6.6-1.2,10c-0.1,2.3,0.2,4.5,0.7,6.8
		c0.6,2.5,0.8,5,0.5,7.5c-0.1,0.8-0.2,1.6,0.5,2.4c1.8,2,2.5,4.4,2.6,7c0,0.4,0.1,0.8,0.2,1.3c0.3,2,0.7,2.3,2.6,1.9
		c1.3-0.3,2.5-0.3,3.8-0.2c2.8,0.3,4.7,1.8,5.4,4.5c0.1,0.5,0.3,1,0.5,1.4c2.3,5.2,1.4,10.2-1.3,15c-0.6,0.9-1.1,1.9-1.4,2.9
		c-0.5,1.7-1.6,2.8-3.4,3C657.1,226.9,655.7,226.1,654.6,224.7z"/>
	<path class="st3" d="M411.8,222c-2.3,9.3-7.1,16.1-15.4,20.4c0.6,0.4,1.2,0.3,1.7,0.1c2.8-0.7,5.5-1.6,8-3c0.6-0.4,1.3-0.9,1.7-1.4
		c2.4-2.8,4.7-5.7,7-8.6c0.3-0.4,0.6-0.8,0.3-1.3C413.8,226.3,412.8,224.2,411.8,222z"/>
	<path class="st3" d="M694.8,556.8c-0.3,1.6-0.3,3.1,0.1,4.7c1.4,5.1,3.3,10.1,5.2,15c3.3,8.2,6.8,16.3,11.5,23.9l0.2-0.1l1.6-0.6
		l0.8-0.3c0.4-0.1,0.8-0.3,1.2-0.4l1.2-0.4l2.4-0.8l1.2-0.4c0.4-0.1,0.8-0.2,1.2-0.3l2.4-0.7l1.2-0.3l0.6-0.2l0.6-0.1l2.5-0.6
		c0.1,0,0.3-0.1,0.4-0.1c-4-5.9-7-12.3-8.7-19.4c-2.8-12.1-7.5-23.4-14.5-33.8c-2-2.9-3.8-6-5.8-8.9c-0.4-0.6-0.7-1.2-1.1-1.8
		c0,0,0,0,0,0.1c0,0.4,0,0.9,0,1.3c0,1.8,0,3.5,0,5.3c-0.6,3.1-0.9,6.3-1.9,9.4C696.2,550.4,695.4,553.6,694.8,556.8z"/>
	<path class="st3" d="M362.2,216.4c-0.6,0.3-0.8,0.4-1,0.6c-1.8,1.6-1.6,3.6-1.5,5.8c0.3,3.3,1.8,5.7,4.7,8
		C363.1,225.8,361.8,221.3,362.2,216.4z"/>
	<path class="st3" d="M625.4,230.6c5.3-4.1,6.4-10.6,2.2-14.3C628,221.4,626.7,225.9,625.4,230.6z"/>
	<path class="st3" d="M337.5,483.3c-1.2-4.4-2.9-8.6-5.1-12.7c-0.3-0.5-0.3-1.2-1.2-1.3c-0.1,0.4-0.1,0.8-0.2,1.2
		c-0.3,4.9-0.7,9.8-1,14.6c-0.6,8.4-2.6,16.5-6.2,24.1c-3.8,8.2-8.4,15.8-13.8,23c-4.4,5.9-8,12.3-10.8,19.1
		c-0.8,1.9-1.5,3.7-2.3,5.6c-4.4,10.4-7.7,21.3-12.7,31.5c-0.2,0.5-0.5,0.9-0.3,1.4c0.8,2.8-0.8,4.6-2.6,6.4
		c-1.7,1.7-3.4,3.6-4.9,5.5c5.8,2.4,11.5,5.4,16.8,8.7c-0.7-11.8,2-23,8-33.4c3.2-5.6,8-9.3,14.3-10.9c0.2-0.1,0.4-0.1,0.6-0.2l0,0
		c0-0.4,0.1-0.8,0.1-1.2c0.5-2.4,1-4.8,1.5-7.1c1.6-7.6,3.9-14.9,9.3-20.9c1.6-1.8,2.8-3.9,3.3-6.4c0-0.5,0-1-0.1-1.5
		c0.3-1.2-0.3-2.4-0.4-3.5c0-2.5,0-5.1,0-7.6c0.7-5.5,1.9-10.9,4.2-16c1.7-3.8,3-7.8,3.9-11.9c0.1-0.3,0.1-0.5,0.1-0.8
		c0.1-0.8,0-1.5-0.2-2.3C338.1,485.6,337.6,484.5,337.5,483.3z"/>
	<path class="st3" d="M583.5,233.9c-2.5-3.6-5.1-7.1-5.3-11.9c-1.1,2-2.1,4-3.4,5.8c-0.6,0.8-0.2,1.3,0.3,2c2,2.5,4,5,6.1,7.5
		c3.1,3.8,7.4,4.7,11.9,5.3c0,0,0.1-0.1,0.4-0.4C589.2,240.5,586.1,237.6,583.5,233.9z"/>
	<path class="st3" d="M625,173.9c-2.3-2.1-3.7-4.8-4.9-7.6c-0.8-1.8-2.1-3.2-3.8-4.3c-2.3-1.5-4.6-2.7-7-4c-1.9-1-3.7-2.1-5.3-3.4
		c0,0,0,0,0,0c-0.2,0-0.3,0.1-0.5,0.2c-1.2-0.1-2.4-0.4-3.5,0.3c-0.4-0.1-0.7-0.2-1.1-0.2c-2.2-0.4-4.3-0.3-6.5,0.2
		c-0.4-0.3-0.7-0.2-1,0.2c-0.2,0-0.3,0-0.5,0c-1.1,0-2.1,0.5-3.1,0.8c-0.4-0.2-0.7-0.1-0.9,0.3c-1.1,0.1-2.1,0.4-3.1,0.7
		c-0.5,0.2-1,0.4-1.5,0.6s-1,0.4-1.5,0.6c-1.8,0.6-3.5,1.4-5.1,2.2c-0.8,0.4-1.6,0.9-2.3,1.4c-1.5,1-2.9,2.1-4.3,3.3
		c-2,1.8-3.8,3.9-5.4,6.3c-0.2,0.3-0.3,0.6-0.5,0.9c-0.4,0.9-0.5,1.7,0,2.7c-0.3,1.2-0.3,2.3,0,3.5c-0.1,0.2-0.1,0.4-0.2,0.6
		c0,0,0,0,0,0c0,0,0,0,0,0c0,0.2,0,0.4,0,0.6c0,0.1,0,0.1,0,0.2c0,0,0,0.1,0,0.1v0c0,0.1,0,0.1,0,0.2c0,0.1,0.1,0.3,0.2,0.4
		c-0.2,0.4-0.1,0.7,0.3,1c0.2,1.3,0.4,2.5,0.8,3.7c0,0.1,0.1,0.1,0.1,0.2c0.5-0.7,1-1.3,1.6-1.9c0.7-0.7,1-1.5,1.3-2.4
		c1.1-3.1,3.4-4.9,6.6-5.7c5.2-1.3,10.4,0.9,13,5.4c0,0,0,0,0,0c0.1-0.2,0.3-0.5,0.5-0.7c0,0,0,0,0,0c0.2-0.2,0.4-0.4,0.6-0.6
		c0,0,0.1-0.1,0.1-0.1c0.2-0.2,0.5-0.4,0.8-0.5c0.3-0.2,0.7-0.4,1-0.5c2-0.9,4-1.7,6.1-2.4s4.2-1.4,6.3-1.8c1.4-0.3,2.9-0.6,4.3-0.7
		c6.4-0.8,11.9,0.9,16,5.6c0.6-1.1,1.4-2.2,2.5-3.2C625.6,175,625.6,174.5,625,173.9z"/>
	<path class="st3" d="M845,646.2c-1.9-3.8-4.3-7.5-7-10.8c-2.7-3.3-5.8-6.4-9.1-9c-3.4-2.6-7-4.9-10.8-6.8c0,0,0,0,0,0l-5.7-2.5
		c-0.6-0.5-1.2-1.1-1.8-1.6c-1.4-1.2-2.9-2.3-4.6-3.3c-6.7-3.7-14.2-5.9-21.8-7.1c-3.8-0.6-7.6-1-11.4-1.3c-2.5-0.1-5,0-7.5-0.4
		c-2.7-0.4-5.3-1.7-8.1-1.9c-1.1-0.1-2.1,0-3.2,0.1c-8.8,0.9-17.5,2.2-26,4.8c-4.2,1.3-8.4,2.9-12.4,4.9c-3.8,1.9-7.2,4.7-11.1,6.2
		c-1,0.4-1.9,0.8-2.8,1.2c-20.2,8.7-38.3,25.7-45.3,46.9c0,0,0,0,0,0c1.8-0.4,4,0.3,5.5-0.9c0.6-0.5,0.9-1.2,1.2-1.9
		c3.3-7,6.4-14.3,11.9-19.8c6.8-6.7,17.4-9.3,25.4-3.2c0,0,0-0.1,0-0.1c0,0.1,0.1,0.1,0.1,0.2c0.5,0.4,0.9,0.8,1.3,1.2
		c0,0,0,0,0.1,0.1c0.1,0.1,0.3,0.3,0.4,0.4c0.5,0.5,1,1,1.4,1.6c0.1,0.1,0.2,0.2,0.2,0.3c-0.7,0-1.4,0-2,0.1c-1.5,0.2-2.9,0.5-4.3,1
		c-2.7,1-5.3,2.5-7.6,4.2c-0.6,0.4-1.2,0.8-1.8,1.3l-0.9,0.6l-1.6,1.2l-0.8,0.6c0,0,0.9-0.2,1-0.3c4.2-1.1,8.4-1.1,12.4,0.7
		c0.3,0.2,0.6,0.3,0.9,0.5c0.3,0.2,0.6,0.3,0.9,0.6c0.6,0.4,1.1,0.8,1.7,1.3c1.1,0.9,2,2,2.9,3.2c0.9,1.3,1.7,2.7,2.4,4.1
		c0,0,0,0,0,0c-0.1,0.4-0.2,0.8-0.3,1.2c-0.1,0.2-0.1,0.5-0.2,0.7c0,0,0,0.1,0,0.1c-0.1,0.5-0.1,0.9-0.2,1.4c0,0.1,0,0.2,0,0.3
		c0,0.1,0,0.2,0.1,0.3c0,0.2,0.1,0.4,0.1,0.6c0,0,0-0.1,0-0.1c0,0,0,0.1,0,0.1c0,0,0,0,0,0.1c0,0,0,0,0-0.1c0.2,0.8,0.3,1.5,0.5,2.3
		c0.2,0.9,0.4,1.8,0.6,2.7c1.1,1.9,2.3,3.8,3,5.8c0.1,0.2,0.1,0.4,0.2,0.6c0,0.1,0,0.1,0,0.2c0.1,0.2,0.1,0.4,0.2,0.6c0,0,0,0,0,0
		c0,0.2,0.1,0.4,0.1,0.6c0,0.1,0,0.1,0,0.2c0,0.2,0.1,0.4,0.1,0.5c0,0,0,0.1,0,0.1c0,0.2,0.1,0.4,0.1,0.6c0,0.1,0,0.2,0,0.2
		c0,0.1,0,0.3,0,0.4c0,0.1,0,0.2,0,0.3c0,0.1,0,0.3,0,0.4c0,0.1,0,0.2,0,0.3c0,0.1,0,0.2,0,0.3c0,0.2,0,0.4,0,0.6c0,0,0,0.1,0,0.1
		c0,0.1,0,0.3,0,0.4c0,0,0,0,0,0c0,0.3,0,0.6,0,0.9c0.1,0.2,0.2,0.3,0.4,0.5c0.6,0.8,1.2,1.5,1.8,2.2c0.3,0.3,0.6,0.6,0.9,0.9
		c2.6,2.2,5.3,4.3,8.7,5.1c5.3,1.2,10.9-0.5,16.4-0.1c1.1,0.1,2.2,0.3,3.1-0.2c1.9-0.8,3-3.8,4-5.5c1.5-2.6,2.8-5.3,3.8-8
		c2-5.3,3.2-10.9,3.6-16.5c0.7-8.9-0.9-17.9-4.5-26c-1.8-4.1-4-8-6.6-11.6c-2.6-3.6-5.6-6.9-8.9-9.9c-0.4-0.4-0.8-0.7-1.2-1.1
		l-2.2-1.9l0,0c0,0,0,0,0,0l0.1,0l0.2,0l0.4,0.1l0.8,0.2l1.2,0.3l0.4,0.1l0.4,0.1l0.8,0.2c2.1,0.7,4.2,1.5,6.2,2.5
		c18.5,9.6,26.5,29.1,27.6,48.9c0,0.1,0,0.3,0,0.4c0,0.6,0,1.2,0,1.8c0,0.6,0,1.1-0.1,1.7c0,0.5-0.1,1-0.1,1.6c0,0.1,0,0.1,0,0.2
		c-0.1,0.4-0.1,0.7-0.2,1.1c0,0.3-0.1,0.7-0.2,1c0,0.2-0.1,0.5-0.1,0.7c-0.5,3.3-1.6,6.5-2.7,9.7c-1.1,3.4-3,6.6-1.6,10.1
		c2.9,7.5,9.5,9.8,16.7,10.9c1,0.2,1.9,0.3,2.9,0.4c1.2,0.2,2.4,0.3,3.6,0.4c1.4,0.1,2.8,0.3,4.2,0.4c0.3,0,0.5,0,0.8,0.1
		c0.2,0,0.5,0,0.7,0.1c0.5,0,1,0,1.5,0c0-0.1,0-0.1,0-0.2c0.6-2.8,2.1-5.3,3.4-7.8c6.1-11.8,8.4-26,6.5-39.5
		c-1.8-12.5-8.8-24.1-17.6-33c-0.8-0.8-1.8-2-1.6-3.2c3.1,0.8,6.4,3.4,9.1,5.1c3.3,2.1,6.6,4.3,9.6,6.8c5.5,4.6,10.6,10.4,11.7,17.7
		c2.1,13.9,6,14.8,4.2,28.7c-0.5,3.7-2.8,7.1-3.5,10.8c-1,5.2-1.4,10-3.3,15c-0.1,0.3-0.3,0.6-0.4,0.9c-0.1,0.4-0.3,3-0.9,2.7
		c2.5,0.8,14.6,3.2,15.2-1.2l0.3-2.4l3-16.7c2.9-16.5,3.4-33-4.1-48.4c-1.6-3.3-4.4-9.6-6.5-11.5c0.3,0.2,0.5,0.5,0.8,0.7
		c4.1,3.9,7.9,7.5,11,12.4c3.5,5.6,6.6,11.9,9,18.2c0.2,0.5,0.3,1,0.5,1.5c0.7,2,1.2,4.1,1.6,6.1c0.8,4.1,1.3,8.3,1.3,12.4
		c-0.1,4.2-0.5,8.3-1.5,12.3c-0.3,1.2-0.6,2.5-1,3.7c0.4-0.1,0.7-0.2,1.1-0.3c1-0.4,1.9-1.2,2.7-2c0.7-0.8,1.3-1.7,1.9-2.7
		c0.5-1,0.9-2,1.3-3c0.2-0.5,0.3-1,0.4-1.6C852.9,674.5,851.6,659.2,845,646.2z M709.7,614.9C709.7,614.9,709.8,614.8,709.7,614.9
		c0.1,0,0.1-0.1,0.2-0.1C709.8,614.8,709.8,614.8,709.7,614.9z"/>
	<path class="st3" d="M283.1,618.7c-0.9-0.4-1.9-0.8-2.8-1.2c-4-1.6-7.3-4.3-11.1-6.2c-4-2-8.1-3.6-12.4-4.9
		c-8.4-2.6-17.2-3.9-26-4.8c-1.1-0.1-2.1-0.2-3.2-0.1c-2.8,0.2-5.3,1.4-8.1,1.9c-2.5,0.4-5,0.3-7.5,0.4c-3.8,0.2-7.6,0.6-11.4,1.3
		c-7.5,1.3-15.1,3.4-21.8,7.1c-1.6,0.9-3.1,2-4.6,3.3c-0.6,0.5-1.2,1.1-1.8,1.6l-5.7,2.5c0,0,0,0,0,0c-3.8,1.9-7.5,4.2-10.8,6.8
		c-3.3,2.7-6.4,5.7-9.1,9c-2.7,3.3-5,7-7,10.8c-6.5,13-7.9,28.3-4.1,42.3c0.1,0.5,0.3,1,0.4,1.6c0.3,1,0.8,2,1.3,3
		c0.5,1,1.1,1.9,1.9,2.7c0.7,0.8,1.6,1.5,2.7,2c0.3,0.1,0.7,0.2,1.1,0.3c-0.4-1.2-0.7-2.4-1-3.7c-0.9-4-1.4-8.2-1.5-12.3
		c0-4.2,0.5-8.3,1.3-12.4c0.4-2.1,1-4.1,1.6-6.1c0.2-0.5,0.3-1,0.5-1.5c2.4-6.2,5.4-12.5,9-18.2c3-4.8,6.9-8.5,11-12.4
		c0.2-0.2,0.5-0.5,0.8-0.7c-2.1,1.9-4.9,8.2-6.5,11.5c-7.5,15.4-7,31.9-4.1,48.4l3,16.7l0.3,2.4c0.6,4.4,12.7,2,15.2,1.2
		c-0.6,0.2-0.9-2.4-0.9-2.7c-0.1-0.3-0.2-0.6-0.4-0.9c-2-5-2.3-9.8-3.3-15c-0.7-3.7-3-7.1-3.5-10.8c-1.8-14,2-14.8,4.2-28.7
		c1.1-7.3,6.3-13.2,11.7-17.7c3-2.5,6.3-4.7,9.6-6.8c2.7-1.7,6-4.3,9.1-5.1c0.2,1.2-0.8,2.4-1.6,3.2c-8.8,8.9-15.8,20.5-17.6,33
		c-1.9,13.5,0.4,27.6,6.5,39.5c1.3,2.5,2.8,5,3.4,7.8c0,0.1,0,0.1,0,0.2c0.5,0,1,0,1.5,0c0.2,0,0.5,0,0.7-0.1c0.3,0,0.5,0,0.8-0.1
		c1.4-0.2,2.8-0.3,4.2-0.4c1.2-0.1,2.4-0.2,3.6-0.4c1-0.1,1.9-0.2,2.9-0.4c7.2-1.1,13.8-3.5,16.7-10.9c1.4-3.5-0.5-6.8-1.6-10.1
		c-1-3.1-2.2-6.4-2.7-9.7c0-0.2-0.1-0.5-0.1-0.7c-0.1-0.3-0.2-0.7-0.2-1c-0.1-0.4-0.1-0.7-0.2-1.1c0-0.1,0-0.1,0-0.2
		c0-0.5-0.1-1-0.1-1.6c0-0.5,0-1.1-0.1-1.7c0-0.6,0-1.2,0-1.8c0-0.1,0-0.3,0-0.4c1.2-19.8,9.2-39.2,27.6-48.9c2-1,4.1-1.9,6.2-2.5
		l0.8-0.2l0.4-0.1l0.4-0.1l1.2-0.3l0.8-0.2l0.4-0.1l0.2,0l0.1,0c0,0,0,0,0,0l0,0l-2.2,1.9c-0.4,0.4-0.9,0.7-1.2,1.1
		c-3.3,3-6.3,6.3-8.9,9.9c-2.6,3.6-4.8,7.5-6.6,11.6c-3.5,8.2-5.2,17.2-4.5,26c0.4,5.6,1.6,11.2,3.6,16.5c1,2.8,2.3,5.5,3.8,8
		c1,1.7,2.1,4.7,4,5.5c1,0.4,2.1,0.2,3.1,0.2c5.5-0.5,11,1.3,16.4,0.1c3.4-0.8,6.1-2.9,8.7-5.1c0.3-0.3,0.6-0.6,0.9-0.9
		c0.6-0.7,1.2-1.5,1.8-2.2c0.1-0.2,0.2-0.3,0.4-0.5c0-0.3,0-0.6,0-0.9c0,0,0,0,0,0c0-0.1,0-0.3,0-0.4c0,0,0-0.1,0-0.1
		c0-0.2,0-0.4,0-0.6c0-0.1,0-0.2,0-0.3c0-0.1,0-0.2,0-0.3c0-0.1,0-0.3,0-0.4c0-0.1,0-0.2,0-0.3c0-0.1,0-0.3,0-0.4c0-0.1,0-0.2,0-0.2
		c0-0.2,0.1-0.4,0.1-0.6c0,0,0-0.1,0-0.1c0-0.2,0.1-0.4,0.1-0.5c0-0.1,0-0.1,0-0.2c0-0.2,0.1-0.4,0.1-0.6c0,0,0,0,0,0
		c0-0.2,0.1-0.4,0.2-0.6c0-0.1,0-0.1,0-0.2c0.1-0.2,0.1-0.4,0.2-0.6c0.7-2.1,1.9-4,3-5.8c0.2-0.9,0.4-1.8,0.6-2.7
		c0.2-0.8,0.3-1.5,0.5-2.3c0,0,0,0,0,0.1c0,0,0,0,0-0.1c0,0,0-0.1,0-0.1c0,0,0,0.1,0,0.1c0-0.2,0.1-0.4,0.1-0.6c0-0.1,0-0.2,0.1-0.3
		c0-0.1,0-0.2,0-0.3c0-0.5-0.1-0.9-0.2-1.4c0,0,0-0.1,0-0.1c-0.1-0.2-0.1-0.5-0.2-0.7c-0.1-0.4-0.2-0.8-0.3-1.2c0,0,0,0,0,0
		c0.7-1.4,1.5-2.8,2.4-4.1c0.8-1.1,1.8-2.2,2.9-3.2c0.6-0.4,1.1-0.9,1.7-1.3c0.3-0.2,0.6-0.4,0.9-0.6c0.3-0.2,0.6-0.3,0.9-0.5
		c4-1.9,8.2-1.8,12.4-0.7c0.1,0,1,0.3,1,0.3l-0.8-0.6l-1.6-1.2l-0.9-0.6c-0.6-0.4-1.2-0.8-1.8-1.3c-2.4-1.6-4.9-3.1-7.6-4.2
		c-1.4-0.5-2.8-0.8-4.3-1c-0.7-0.1-1.4-0.1-2-0.1c0.1-0.1,0.2-0.2,0.2-0.3c0.4-0.6,0.9-1.1,1.4-1.6c0.1-0.1,0.3-0.3,0.4-0.4
		c0,0,0,0,0.1-0.1c0.4-0.4,0.9-0.8,1.3-1.2c0-0.1,0.1-0.1,0.1-0.2c0,0,0,0.1,0,0.1c8-6.2,18.6-3.5,25.4,3.2
		c5.5,5.4,8.7,12.7,11.9,19.8c0.3,0.7,0.7,1.4,1.2,1.9c1.5,1.2,3.6,0.5,5.5,0.9c0,0,0,0,0,0C321.4,644.4,303.3,627.4,283.1,618.7z
		 M275,614.8c0,0,0.1,0.1,0.1,0.1c0,0,0,0,0,0C275.1,614.8,275,614.8,275,614.8z"/>
	<path class="st3" d="M547,648.1c-2.5-8.2-1.9-15-1.7-16.7c1.2-10.6,5.8-12.1,5-18.4c-1-8.7-11.5-17.6-18.4-15.9
		c-7.5,1.8-9.6,15.8-11.7,30.1c-1.5,9.8-2.5,23.5-0.7,40.3h6h27.5c1.2-1,2.5-1.8,3.9-2.5l-3.3-3.5
		C551.6,658.7,548.8,654.2,547,648.1z"/>
	<path class="st3" d="M607.9,532.9c2.5-5,3.3-16.7,3.3-16.7l-19.8,11.7c-4.9,2.9-7,8.8-5,14.1c3.2,8.5,7.3,21,7.3,27.7
		c0,10.9-0.8,13.4,1.7,18.4s16.7,23.4,16.7,18.4S605.4,537.9,607.9,532.9z"/>
	<path class="st3" d="M422.6,568.8c2.5-3.3,7.5-8.3,8.3-10.9c0.8-2.5,5-9.2,5-9.2l-25-12.5c0,0,0,9.2-4.2,20
		c-4.2,10.9-5.8,15-5.8,15S420.1,572.1,422.6,568.8z"/>
	<path class="st3" d="M449,633.1c-1.1-12.6-2.7-14.3-4.2-15c-3.8-1.9-7.6,2.7-16.7,3.3c0,0-6.4,0.5-12.5-1.7
		c-16.2-5.7-15.8-27.8-27.6-30.1c-6.1-1.2-12.9,3.5-15.9,7.5c-9.4,12.5,1.3,40,24.7,70.3h32.2h22.4c-0.3-1.3-0.6-2.8-0.8-4.4
		C448.9,652.5,450.2,647,449,633.1z"/>
	<path class="st3" d="M284.6,195c1,5.7,2,11.5,3,17.2c0.2,1,0.3,2.1,0.5,3.1c0.7,1.4,1.4,2.8,2,4.1c0,0,0,0,0,0
		c0.8-2.9,1.6-5.7,2.5-8.6c2.5-7.9,5.4-15.6,7.7-23.6c0.5-1.8,0.9-3.6,1-5.5c0.5-6.6,2.3-12.9,5.4-18.8c1.9-3.5,3.7-7,5.6-10.5
		c3.8-6.6,6.4-13.6,8.3-20.9c2.1-8.2,5.3-15.8,9-23.4c2.6-5.4,6-10.2,11.2-13.5c0.6-0.4,1-0.9,1.4-1.4c1.9-2.7,3.8-5.4,5.6-8.1
		c0.3-0.4,0.9-0.9,0.3-1.7c-4.9,0.4-10,0.9-15,1.3c-2.8,0.2-5,1.6-7.2,3.3c-7.8,6-13,13.6-15.2,23.2c-0.7,3.3-1.8,6.5-2.9,9.7
		c-1.3,3.8-3.2,7.5-5.6,10.7c-2.2,3-3.2,6.5-5.2,9.5c-0.2,0.3-0.4,0.8-0.3,1.2c0.6,2.8-0.7,5.3-1.5,7.8c-1.8,5.2-4.1,10.2-6.5,15.1
		c-1.7,3.5-3.3,7.1-3.9,10.9c-0.9,5.9-0.4,11.9-0.4,17.9C284.5,194.5,284.6,194.8,284.6,195z"/>
	<path class="st3" d="M208.2,271.3c7,17.5,17.1,33.1,29.6,47.1c1.6,1.8,3.2,3.6,4.8,5.4c0.1-1.3,0.3-2.6,0.5-3.9
		c0.1-0.5,0.2-1,0.3-1.5c-2.3-0.9-4.2-2.6-5.4-4.7c-1.2-2.4-1.6-5.1-1.7-7.6c0-2.2,0.1-4.5,0.8-6.6c0.1-0.3,0.2-0.7,0.3-1
		c0.5-1.2,1.2-2.4,2.2-3.3c1-1,2.2-1.7,3.5-1.9c1.3-0.3,2.7-0.3,3.9,0.2c1.2,0.4,2.3,1.3,2.8,2.5c0,0,0,0,0,0l4.6,5.9c0,0,0,0,0,0
		c0.4,2.4,0.8,4.9,0.6,7.4c0,0.4-0.1,0.7-0.1,1.1c0.3,0.2,0.6,0.4,0.9,0.6c1.3,1,2.4,2.1,3.5,3.3l2.9,3.6c1.9,2.4,3.8,4.8,5.6,7.3
		c0.6,0.8,1.1,1.6,1.7,2.4c0.1,0.2,0.2,0.3,0.3,0.5c1.8,2.6,3.4,5.3,4.9,8.1c0,0,0,0,0,0c0-0.2,0.1-0.5,0.1-0.7
		c0.5-4.5,1.3-14.8,0.6-27.8c-1.2-20.2-5.8-36-9.3-47.7c0,0.6,0,1.2,0,1.8c0,0.2,0,0.5,0,0.7c0,0.4,0,0.8-0.1,1.2c0,0.2,0,0.5,0,0.7
		c0,0.5-0.1,1.1-0.2,1.6c0,0.1,0,0.2,0,0.3c-0.1,0.6-0.2,1.2-0.3,1.9c0,0.2-0.1,0.4-0.1,0.6c-0.1,0.5-0.2,0.9-0.3,1.4
		c0,0.2-0.1,0.4-0.1,0.6c-0.2,0.6-0.4,1.3-0.6,1.9c-0.6,1.4-1.5,2.8-3,3.8c-0.8,0.5-1.8,0.8-2.8,0.6c-1-0.2-1.9-0.8-2.4-1.4
		c-0.6-0.6-1-1.2-1.3-1.7c-0.4-0.4-0.8-0.9-1.3-1.2c-0.9-0.7-2.1-1.1-3.4-1.3c-2.5-0.5-5.3-0.3-8.1-0.6c-1.4-0.1-2.9-0.4-4.3-0.9
		c-1.4-0.5-2.8-1.3-3.9-2.3c-2.3-1.9-3.8-4.3-5.5-6.5c-1.6-2.2-3.3-4.5-4.8-6.8c-3-4.6-5.7-9.6-7.2-15.1c-0.7-2.7-1-5.5-1.1-8.3
		c-0.1-2.8,0.2-5.6,0.7-8.3c1.1-5.5,3-10.7,5.3-15.7c1.8-3.9,3.9-7.7,6-11.4c-5.7,5.8-11.2,12-15.2,19.8c-1.2,1.5-2.3,3-3.4,4.6
		c-2.9,4.2-4.4,8.9-4.6,14c-0.2,5.6-0.4,11.1-0.1,16.7C204.2,257.6,205.5,264.6,208.2,271.3z"/>
	<circle class="st3" cx="392.6" cy="215.9" r="6.7"/>
	
		<ellipse transform="matrix(0.3827 -0.9239 0.9239 0.3827 177.3516 697.2789)" class="st3" cx="610.5" cy="215.9" rx="6.7" ry="6.7"/>
</g>
</svg>
