<?xml version="1.0" encoding="utf-8"?>
<!-- Generator: Adobe Illustrator 24.0.1, SVG Export Plug-In . SVG Version: 6.00 Build 0)  -->
<svg version="1.1" id="Layer_1" xmlns="http://www.w3.org/2000/svg" xmlns:xlink="http://www.w3.org/1999/xlink" x="0px" y="0px"
	 viewBox="0 0 990 781.2" style="enable-background:new 0 0 990 781.2;" xml:space="preserve">
<style type="text/css">
	.st0{fill:#D4AA6D;}
	.st1{fill:#EFAF30;}
	.st2{fill:#FFFFFF;}
	.st3{fill:#B4821C;}
	.st4{fill:#525358;}
</style>
<g>
	<path d="M221.1,732.7c-0.9,0.7-0.8,1.6-0.9,2.4c-0.5,4.3-2.6,7.8-5.3,11.1c-1.2,1.5-2.9,1.8-4.8,1.3c-5.4-1.4-10.3-3.9-14.2-8.1
		c-4.1-4.4-8.1-8.9-11.2-14.1c-0.9-1.5-2.1-2.6-3.6-3.5c-7.6-4.2-12.7-10.9-17.1-18.1c-0.3-0.5-0.6-1-0.8-1.5
		c-3.4-8.6-5.5-17.5-4.7-26.9c0.6-7.4,1.7-14.6,4.1-21.6c2-5.8,5-10.9,9.4-15.1c1.7-1.7,3.4-3.4,5.3-4.9c5.9-4.7,11.8-9.5,18-14
		c13.2-9.7,28.1-15.1,44.3-16.9c13-1.4,25.9-0.3,38.6,2.2c0.3,0.1,0.6,0.2,0.9,0.2c1.9,0.3,1.9,0.3,2.6-1.5c0.9-2.4,1.8-4.8,2.7-7.2
		c1.3-3.2,2.4-6.4,3.9-9.5c1.4-2.9,2.1-5.8,2.3-9c1.1-16.6,4.8-32.7,10.3-48.4c2.8-7.8,5.5-15.7,8.6-23.4c2-5,4.2-9.8,6.9-14.5
		c1.2-2,2-4.2,2.4-6.5c1.6-8.8,2.9-17.7,3.9-26.6c0.3-2.4-0.2-4.8-0.6-7.1c-1.1-5.8-2.4-11.6-2.8-17.5c-0.2-3-0.3-5.9,0.1-8.9
		c0.1-0.8,0.2-1.6,0.2-2.4c0-0.9-0.4-1.1-1.2-0.7c-0.4,0.2-0.7,0.4-1.1,0.6c-2,1-4.1,1.9-6.2,2.5c-1.5,0.4-3,1-4.2,2.1
		c-1.5,1.4-3.6,1.7-5.6,1.8c-5.9,0.4-11.6-0.8-17.3-2.1c-3.5-0.8-6.9-1.9-10.3-3.1c-2-0.7-3.9-1.5-5.6-2.7
		c-9.1-6.9-15.8-15.3-17.2-27.1c-0.9-7-0.6-13.9,0.4-20.8c0.8-6.2,1.7-12.4,2.5-18.5c0.1-0.6,0.1-1.3,0-1.9
		c-1.2-7.4-1.6-14.9-3.3-22.3c-0.4-1.6-0.7-3.3-1.4-4.8c-3.6-9-7.9-17.6-14.7-24.8c-6.4-6.7-11.8-14.3-16.8-22.1
		c-4.5-7-6.9-14.6-7.8-22.7c-1.6-13.4,0.2-26.3,4.9-38.9c1.4-3.8,3.4-7.2,6.1-10.3c2.5-2.8,5-5.6,7.8-8.2c8.3-8,15.3-16.9,21.3-26.7
		c2.6-4.2,4.6-8.6,6.1-13.2c0.6-1.7,1.1-3.3,1.9-4.9c5.9-12.2,11.8-24.5,19-36c5-8,10.7-15.3,17.7-21.7c3.5-3.2,6.6-6.8,9.5-10.5
		c5.5-7.1,12.1-12.9,19.7-17.7c3.1-2,6.1-4,9.1-6.2c7.4-5.3,15.8-7.9,24.8-8.8c2.3-0.2,4.6,0,6.9,0.5c1.1,0.3,2.2,0.3,3.3,0.1
		c8.8-2.2,17.8-3.2,26.8-4c2-0.2,3.9-0.8,5.6-1.8c3.9-2.3,7.9-4.6,11.7-7c5.9-3.7,12.2-5.8,19.1-6.4c3.3-0.3,6.5,0,9.7,1
		c1.1,0.4,2.3,0.8,3.4,1c2.1,0.4,4.2,0.5,6.1-0.5c4.1-2.1,8.6-2.9,13.1-3.6c5.7-0.9,11.3-0.5,16.9,0.6c6.9,1.4,13.8,1.5,20.7-0.3
		c6.1-1.6,12.4-2.6,18.7-3.1c5.3-0.5,10.5,0.3,15.5,2.3c2.1,0.9,4.3,1.2,6.6,1.1c6.6-0.3,13.1-0.5,19.7-0.7
		c8.2-0.3,16.1,1.2,23.7,4.3c6,2.4,12,4.8,17.9,7.5c1.7,0.8,3.3,0.9,5.1,0.6c4.2-0.8,8.4-1.2,12.6-1.3c5.4-0.1,10.7,0.5,16,1.5
		c5.8,1.2,11.5,2.7,17.1,4.6c10.5,3.7,19.5,9.4,26.6,18.1c5.1,6.3,8.4,13.4,10.5,21.1c1.8,6.6,5.9,11.4,11.6,14.6
		c8.8,4.9,17.1,10.6,25.5,16.2c4.3,2.8,8.1,6.2,11.3,10.3c3.9,4.9,8.3,9.3,13.1,13.4c1.9,1.6,3.6,3.4,5.1,5.4
		c2.8,3.6,5.6,7.2,8.4,10.8c2.4,3,4.2,6.4,5.4,10.1c1.9,5.6,3.9,11.2,6.3,16.6c1.7,3.9,2.4,8.1,2.7,12.3c0.2,3.3,0.3,6.6,0.5,9.8
		c0.4,5.8-0.9,11.4-2,17.1c-0.4,2.1-0.8,4.2-1.2,6.4c-0.5,3.1-0.1,6.1,1,9c1.3,3.4,2.5,6.8,3.2,10.3c2,9.7,1,19.1-2.6,28.2
		c-3.1,7.7-6.8,15-11.1,22c-3.7,5.9-7.3,11.9-11.2,17.6c-2.3,3.3-3.8,7-4.8,10.9c-1.4,5.4-2.1,10.8-2.4,16.3
		c-0.4,5.8,0.8,11.3,3.5,16.5c3.8,7.3,5.8,15,6.3,23.2c0.5,8.4-1.6,16-6.6,22.8c-4,5.4-8.5,10.4-13.5,14.9c-6,5.4-13.2,8.7-21.2,9.9
		c-3.6,0.5-7.2,0-10.8-0.4c-5.7-0.6-11-2.7-16-5.5c-4.7-2.7-9.3-5.7-13.8-8.7c-3.6-2.4-7.2-4.7-10.9-7c-0.3-0.2-0.7-0.4-1-0.6
		c-0.5-0.3-1-0.7-1.5-0.4c-0.6,0.4-0.3,1-0.2,1.5c0.5,2.8,0.9,5.5,1.4,8.3c1.6,9,1.1,17.8-1.2,26.6c-0.7,2.8-1,5.7-0.9,8.5
		c0.1,1.4,0.2,2.7,0.3,4.1c0.1,4.6,1.4,8.8,3.5,12.8c3.2,6.4,7,12.4,11,18.3c13.3,19.4,24.8,39.9,34,61.6c5,11.8,9.1,23.9,11.5,36.5
		c0.7,3.9,1.2,7.9,1.7,11.9c0.2,1.9,0.2,1.9,2.2,1.8c4.6-0.2,9.3-0.4,13.9-0.2c11.1,0.6,21.7,3.1,32.2,7
		c13.1,4.9,24.3,12.8,35.5,20.7c0.6,0.4,1.1,0.9,1.5,1.5c5.6,7,10.8,14.3,15.2,22.1c1.4,2.5,2.6,5.1,3.8,7.8
		c1.9,4.4,2.3,8.9,1.7,13.6c-1.2,9.2-3.9,17.9-7.2,26.5c-1,2.7-2.8,5-4.5,7.4c-3.5,4.8-7.4,9.3-12.7,12.2c-2.2,1.2-3.9,2.8-5.1,4.9
		c-2.9,5.1-7,9.3-11,13.6c-3.8,4-8.6,6.4-13.9,7.7c-2.4,0.6-3.8-0.2-5.4-2.1c-3-3.6-4.5-7.8-5-12.4c-1-0.2-1.3,0.5-1.8,0.9
		c-1.7,1.6-3.5,3.3-5.2,5c-1.2,1.2-2.5,2.2-4,3c-3.1,1.8-6,1.3-8.3-1.5c-0.8-0.9-1.3-2-1.7-3.1c-1.5-3.8-2.3-7.7-1.9-11.7
		c0.2-2.1-0.6-3.5-2.4-4.5c-1.5-0.9-3-1.8-4.7-2.5c-3.7-1.6-6.2-4.4-7.4-8.3c-0.1-0.5-0.3-0.9-0.5-1.4c-0.3-1-1-1-1.7-0.5
		c-1.7,1.1-2.8,2.7-3.6,4.4c-0.6,1.3-1,2.7-1.5,4c-2,5.5-5.2,10-9.7,13.7c-3.5,2.8-8.4,1.4-10.5-1.7c-1.5-2.2-2.6-4.6-3.1-7.2
		c-0.2-1-0.5-2-0.5-3.1c-0.1-2.5-1.4-4.1-3.6-5.2c-5.4-2.8-9.3-7.2-13.4-11.5c-0.7-0.7-1.3-1.7-1.6-2.6c-0.4-1.1-1.1-1.4-2.2-1.3
		c-0.6,0-1.3,0-1.9,0c-121.3,0-242.6,0-364,0c-0.4,0-0.8,0-1.2,0c-1.5-0.2-2.7,0.1-3.1,1.8c-0.1,0.5-0.5,1-0.9,1.4
		c-3.9,4.4-7.8,8.6-12.9,11.7c-0.2,0.1-0.4,0.3-0.6,0.4c-2.6,1.1-3.9,3.1-4.1,5.9c-0.2,3.4-1.3,6.6-3.2,9.4
		c-1.5,2.2-3.5,3.5-6.2,3.6c-1.5,0.1-2.8-0.3-4-1.2c-5.1-3.7-8.5-8.6-10.5-14.5c-0.7-2.2-1.4-4.4-3-6.2c-0.4-0.4-0.7-0.9-1.1-1.2
		c-1.5-1.3-2.1-1.2-2.6,0.6c-1.3,4.5-4.2,7.6-8.6,9.4c-1.3,0.5-2.5,1.4-3.8,2.1c-1.8,1-2.5,2.4-2.3,4.5c0.4,4.2-0.6,8.3-2.2,12.2
		c-0.7,1.7-1.6,3.1-3.2,4.1c-2.1,1.4-4.1,1.5-6.3,0.3c-2.2-1.3-4.1-3-6-4.8C224.3,735.7,222.7,734.2,221.1,732.7z"/>
</g>
<g>
	<path class="st0" d="M548.1,637.2c-0.6-8-2.1-16-3-23.9c-0.8-7.2-2.8-14.2-4.1-21.3c-1-5.6-2.4-11-4.5-16.2c-0.4-1-1-1.9-1.8-2.7
		c-2.9-2.4-5.8-4.7-9-6.6c-0.5-0.3-0.9-0.8-1.7-0.6c0.8,1.5,0.4,2.7-0.9,3.6c-0.6,0.4-0.4,1.1-0.3,1.6c1.1,10.5,0.3,21-0.9,31.5
		c-0.8,6.7-1.9,13.3-2.1,20.1c-0.1,2.4,0,4.8-0.3,7.2c-1.2,9.1-1.6,18.2-1.8,27.4c0,0.5,0.2,1-0.5,1.5c-0.6-2.9-1.2-5.6-1.8-8.2
		c-2.6-11-5.2-21.9-6.6-33.1c-1.2-9.7-2.7-19.3-2.8-29c-0.1-13.1-1.2-26.2-1.6-39.3c-0.2-6.9-0.5-13.9,0.2-20.8
		c0.6-5.5,1.9-10.8,3.1-16.1c0.7-2.9,1.1-5.7,0.1-8.6c-0.3-0.7-0.2-1.6-0.3-2.4c0-0.9,0-1.8,0.6-2.5c1.3-1.6,1.7-3.6,2.1-5.5
		c0.6-2.6,1.4-5.1,2.4-7.5c0.5-1.2,1-2.3,2.2-2.9c0.8-0.4,0.9-1,0.8-1.8c-0.3-1.9-0.6-3.8-0.6-5.7c0.1-8.8-0.3-17.6,0.3-26.4
		c-0.1-0.9-0.3-1.8-0.4-2.8c-0.1-0.5-0.2-0.8-0.4-1c-0.2,0.2-0.4,0.5-0.7,0.7c-6,5.5-12.9,8.4-21.2,7.5c-3.8-0.4-7.6-0.6-11.4-1.1
		c-2.4,0.4-4.7,0.6-7.2,0.7c-0.4,0-0.7,0-1.1,0c-0.1,0-0.2,0.1-0.2,0.1c-1.3,0.6-2.7,1.2-4.1,1.5c-0.8,0.2-2-0.2-2.5,0.5
		c0,0.1-0.1,0.1-0.1,0.2c0,0.4,0,0.9,0,1.3c0.1,0.4,0.3,0.9,0.3,1.3c0,0.2,0.1,0.4,0.1,0.7c0.8,4.8,1.3,9.6,1.7,14.4
		c0.1,1,0.3,1.6,1.4,1.9c2.1,0.7,3.4,2.5,4.3,4.5c1.1,2.3,2.1,4.7,2.8,7.2c2.2,7.9,3.1,15.9,3.2,24.1c0,7.3-2.9,13.5-7.1,19.2
		c-1.2,1.7-2.9,3.1-5,3.4c-1.9,0.3-2.8,1.2-3.1,3c-0.1,0.5-0.3,1-0.5,1.4c-2.1,5.8-4.3,11.5-5.5,17.6c-2.8,14.6-2.8,29.2,1.1,43.7
		c2.3,8.8,5.3,17.3,7.9,26c4.5,14.7,8,29.7,9.6,45c0.2,1.7,0.3,3.5,0.4,5.2h72.2c-0.4-4.9-0.6-9.9-0.9-14.9
		C548.5,652.6,548.7,644.9,548.1,637.2z"/>
	<path class="st0" d="M607.2,586.3c0-0.6,0-1.2,0-1.8c0,0,0,0,0,0c-0.5-0.9-0.5-1.7,0-2.5c0-3.7,0.1-7.3,0.1-11
		c0-2.9,0.1-5.7,0.3-8.6c-0.1-0.5-0.1-0.9,0.1-1.2c0.2-3.2,0.5-6.5,0.8-9.7c0.6-5.8,2.5-11.4,3.7-17.1c0-0.1,0-0.1,0.1-0.2
		c0.9-2.3,3.2-3.2,5.2-2.1c-0.1-0.5-0.1-0.9-0.1-1.4c-0.2-3.9-0.9-7.7-2.7-11.2c-2.1-4.3-4.3-8.6-6.3-13c-1.7-3.9-3-7.7-2.3-12.1
		c0.6-3.7,0.6-7.4,0.3-11.1c0-0.5-0.2-1-0.6-1.4c-1-0.8-1.1-1.7-1.1-2.9c0-0.6,0-1.1-0.1-1.5c-0.1-0.5-0.3-0.7-0.6-0.9
		c-0.1,0-0.1-0.1-0.2-0.1c0,1.2,0.1,2.4,0.1,3.6c0.1,2.5,0.1,5-0.2,7.5c-0.8,7.7-2.7,14.9-6.1,21.4c-1.7,4.1-4.1,7.4-7.1,10
		c-0.5,0.6-1.1,1.1-1.7,1.7c-1.9,1.8-3.6,3.8-5.2,6c-1.4,1.9-2.9,3.7-4.6,5.3c-2.3,2.1-4.9,3.6-8.1,4.2c-5.8,1-11-0.5-15.2-4.6
		c-3.4-3.3-7.2-6-11.2-8.4c-7-4.3-11.8-10.4-15.1-17.8c-0.6-1.3-1.2-2.5-1.8-3.7c-0.2-0.4-0.4-1-1.2-0.7c0.1,1.7,0.3,3.3,0.4,5
		c0.7,9.1,1.8,18.1,3.5,27c0.2,1.2,0.5,2.3,1.1,3.3c3.4,6.1,6.4,12.3,8.6,19c0.4,1.3,0.9,2.4,2.2,3.1c0.8,0.4,1.3,1.3,1.8,2.2
		c0.8,1.5,1.7,3.1,2.5,4.7c3.4,7.1,6.9,14.2,10.8,21.1c3.4,6,6.9,11.9,10.5,17.8c6.5,10.6,8.5,22,5.4,34.1c-0.4,1.4-0.5,2.9-0.4,4.3
		c0.8,11,0,22-2,32.8h17c0.3-3.2,0.8-6.4,1.5-9.6c5.7-23.8,10.7-47.7,16.6-71.4C606.8,591.5,607.2,589,607.2,586.3z"/>
	<path class="st0" d="M642.5,625.5c-2.3-0.8-4.1-2.4-5.3-4.4c-1.4-2.2-2.3-4.7-3.1-7.2c-1.5-4.9-2.3-10.1-4-15
		c-1.1-3.1-1.6-6.3-1.9-9.6c-0.4-4.1-0.3-8.1,0.3-12.2c0-0.3,0.1-0.7,0-1c-0.2,1.1-0.4,2.1-0.6,3.2c-1.4,6.7-3.3,13.4-4.3,20.2
		c-0.8,5.2-2.2,10.1-4.1,15c-2.6,6.8-5.4,13.6-8.6,20.2c-2.2,4.6-4.4,9.1-6.1,13.9c-3.1,8.9-6.2,17.7-9.3,26.6h21.8
		c0.2-0.1,0.4-0.3,0.6-0.4c1-0.7,1.9-1.4,2.8-2.2c0.5-0.5,1-0.9,1.5-1.4c0,0,0.1-0.1,0.1-0.1c0.2-0.3,0.4-0.6,0.6-0.8
		c1.9-2.5,3.7-5.1,5.5-7.7c0.5-0.7,1-1.5,1.5-2.2c0.2-0.3,0.3-0.6,0.5-0.8c0.5-0.8,1.1-1.6,1.6-2.3c0-0.1,0.1-0.1,0.1-0.2
		c1.9-2.7,3.8-5.4,5.9-8.1c2.4-7.1,4.8-14.2,7.2-21.3c0.1-0.2,0.2-0.4,0.2-0.6C644.5,626.3,643.5,625.9,642.5,625.5z"/>
	<path class="st0" d="M462.2,662.2c-2.8-7.9-6.1-15.5-8.6-23.5c-6.2-19.1-12-38.3-17.5-57.5c-4-13.9-7.6-27.9-8.9-42.4
		c-0.1-0.9-0.4-1.2-1.2-1c-3.7,0.6-7.3-0.6-10.8-1.2c-5.1-0.9-9.1-3.5-12.1-7.7c-1.8-2.5-3.8-4.8-5.8-7.1c0,0,0,0.1-0.1,0.1
		c-0.6,1.2-1,2.6-1,4c-0.1,2.8-0.5,5.7-1.5,8.4c-0.5,1.5-1,3-1.5,4.6c-1.6,5.5-3.3,11-5.5,16.4c-0.8,1.9-1.4,3.8-2,5.7
		c0,0.1,0,0.1,0,0.2c1.1,7,1.7,14.1,3.1,21.1c0.4,2.2,0.9,4,2.9,5.5c2.6,2,4.2,5,5.8,7.9c2.9,5.1,5.4,10.4,7.9,15.7
		c4.5,9.8,8.7,19.9,14,29.3c6.1,10.8,9.4,22.5,11.7,34.5h34.9c-0.1-0.4-0.1-0.9-0.2-1.3C464.8,669.8,463.5,666,462.2,662.2z"/>
</g>
<g>
	<path class="st1" d="M368.6,590c-0.4-0.5-0.9-0.9-1.1-1.6c-0.5-1.6-1.1-3.2-1.7-4.7c-2.9-7.8-4.9-15.9-7.3-23.9
		c-3.3-11.2-6.7-22.3-10.3-33.4c-0.6-1.9-1.4-3.8-2.3-5.7c-0.3-0.5-0.6-1-1.3-1c-1.2,0-2.5,0-3.7-0.3c-0.7-0.2-1.4,0.3-2,0.7
		c-1,0.7-1.4,1.8-1.6,3c-0.6,3.2-1.3,6.4-1.7,9.7c-1.3,8.5-3.2,16.9-6.1,25c-1.2,3.4-2.2,6.8-3.2,10.2c-2,6.8-2.8,13.7-3,20.7
		c-0.1,5-0.8,10-0.2,15.1c0.5,4.1,0.5,8.3,1,12.4c0.3,3,0.8,5.9,1.4,8.8l1.8,1.4c0.3,0.2,0.6,0.5,1,0.7l0.9,0.8l1.8,1.6
		c0.6,0.5,1.2,1.1,1.8,1.6l0.9,0.8l0.4,0.4l0.4,0.4c1.1,1.1,2.3,2.2,3.4,3.4c0.6,0.6,1.1,1.1,1.7,1.7l1.6,1.8
		c0.3,0.3,0.5,0.6,0.8,0.9l0.8,0.9l1.6,1.8c1,1.2,2,2.5,3,3.7c0.7,0.9,1.4,1.8,2.1,2.7c0-1.1,0-2.3,0-3.4c0.1-2,0.2-3.9,0.6-5.9
		c1.2-6,3.1-11.7,5.8-17.1c2.7-5.4,5.8-10.5,8.4-15.9c0.5-1,1.2-1.5,2.4-1.6c2.2-0.3,3.7-1.8,3.8-3.9c0.2-2.1-0.2-4.2,0.5-6
		C371,593.3,370,591.6,368.6,590z"/>
	<path class="st1" d="M693.7,578.5c-0.6-1.9-0.9-3.8-1.2-5.8c-0.6-3.4-1.5-6.7-2.7-9.9c-0.5-1.5-1.8-2.3-3.1-2.3
		c-1.6,0-2.5,1-3.1,2.4c-0.6,1.4-0.4,2.8-0.2,4.1c0.4,3,0.7,6.1,0.7,9.1c0,8.5,0.4,16.9-0.3,25.4c-0.2,1.9-0.4,3.8-0.8,5.6
		c-0.5,2.1-1,4.1-1.6,6.2c1.2-0.5,2.3-1,3.5-1.5c0.4-0.2,0.7-0.3,1.1-0.5l1.1-0.4l2.3-0.8c0.4-0.1,0.8-0.3,1.1-0.4l1.2-0.4l2.3-0.7
		l1.2-0.4c0.4-0.1,0.8-0.2,1.2-0.3l2.3-0.6l1.2-0.3l0.6-0.2l0.6-0.1l0.6-0.1C699.1,597.2,696.6,587.8,693.7,578.5z"/>
	<path class="st1" d="M468,91.5c0-0.1,0-0.1,0-0.2c-0.6-3.7-1.4-7.3-1.8-11c-0.5-4.4-0.8-8.7-0.8-13.1c0-0.8,0.1-1.5,0.7-2
		c0.9-0.7,1.2-1.6,1.1-2.7c-0.1-0.8,0.1-1.5,0.7-2.2c1-1.1,0.7-2.1-0.6-2.9c-1.1-0.6-2.3-1-3.6-0.9c-5.1,0.4-9.8,1.6-12.7,6.4
		c-0.8,1.2-0.8,1.1-2,0.3c-2.2-1.6-4.3-3.3-6.1-5.3c-1.2-1.4-2.8-2.3-4.5-2.5c-2.5-0.4-5.1-0.5-7.6,0.2c-3.1,0.8-5.8,2.4-8,4.7
		c-0.5,0.5-1,1.1-1.8,1.1c-2.2,0-4,1.3-5.9,2.2c-3.5,1.5-4.6,5.3-7.6,7.3c-1.4,2.9-3.5,5.3-4.3,8.6c-0.7,2.8-1.5,5.5-2.4,8.2
		c-0.5,1.5-0.8,3.2-2.7,4c-0.4-0.8-0.3-1.4-0.3-2.1c0-1.5,0-3.1,0-4.6c0-0.9-0.3-1.6-1.2-1.9c-0.8-0.3-1.2,0.3-1.7,0.8
		c-0.7,0.6-1.1,1.3-1.5,2.1c-0.4,0.9-1,1.6-1.6,2.3c-3.9,4.2-4.7,9.2-3.9,14.7c0.4,2.5,1.9,4.6,2.9,6.8c1,2.3,3.4,2.7,5.6,1.5
		c1.1-0.6,2.2-1.4,3.2-2.3c4.9-4.5,10.4-7.9,16.3-11c1.3-0.7,2.6-0.8,4-0.1c1.8,0.9,3.8,1,5.7,1.3c1,0.2,1.9-0.1,2.4-1.1
		c0.4-1,0.1-1.8-0.7-2.6c-1.4-1.5-3.1-2.7-5-3.5c-0.8-0.4-1.1-0.8-1-1.9c0.4-2.5,0.2-5.1-0.7-7.6c-0.9-2.4-1.7-4.8-2.6-7.2
		c-0.4-1.2-0.4-2.2,0.3-3.3c0.8-1.3,0.7-1.3,2-0.6c1.5,0.8,3,1.7,4.7,1.3c1.5-0.4,2.9-0.9,4.2-1.7c2.7-1.7,5.5-2.9,8.9-2.5
		c1.7,0.2,3.6,0.2,5.2-0.6c1.9-0.9,3.5-0.4,5.2,0.5c0.8,0.5,1.7,0.9,2.5,1.4c1.2,0.6,2.1,1.6,2.5,2.9c0.5,1.4,1.4,2.5,2.6,3.5
		c0.9,0.8,1.4,1.8,1.8,2.9c1.2,3.5,1.6,7.1,2.5,10.6c0.2,0.7,0,1.4-0.2,2.2c-0.8,2.3-1.9,4.4-3.6,6.2c-1.5,1.5-3.1,2.9-4.7,4.3
		c-2.5,2.3-1.7,5.4,1.6,6.3c0.3,0.1,0.6,0.2,0.9,0.2c1,0,1.9,0.4,2.6,1c1,0.7,2.1,1,3.2,1.3c1.8,0.5,3.7,0.6,5.6,1.2
		c1.7,0.5,4.1-0.8,4.7-2.4c0.8-2,0.6-4,0.1-6C469.7,99.8,467.6,95.9,468,91.5z"/>
	<path class="st1" d="M616.7,118.6c0.5,0.3,1.1,0.5,1.6,0c0.6-0.6,0.2-1.2-0.1-1.8c-0.4-0.7-1-1.3-1.6-1.8c-1.8-1.7-3.2-3.7-4.4-6
		c-0.9-1.9-2.1-3.7-3.1-5.5c-1.7-3.1-3.5-6-4-9.6c-0.7-4.8-1.4-9.6-2.8-14.3c-1.2-3.9-2.8-7.5-5.6-10.5c-1.4-1.5-2.9-2.9-3.9-4.7
		c-0.2-0.4-0.5-0.9-1-0.7c-1.1,0.4-2-0.2-2.9-0.4c-1.4-0.3-2.8-0.6-4.3-0.6c-3.9,0.1-7.9,3.2-8.3,7c-0.5,4.5-2.9,8-6.4,10.8
		c-1,0.8-2.2,1.4-3,2.6c-1.2,2-3,3.5-4.9,4.9c-1.8,1.3-2.8,3.3-3.2,5.5c-0.1,0.7,0.2,1.3,0.5,1.9c2,3.9,5.5,6.1,9.5,7.2
		c4.4,1.2,9,1.6,13.5,2.4c5.9,1.1,11.7,2.3,17.2,4.9c4.3,2,8.9,3.6,12.9,6.5C613.8,117.3,615.3,117.8,616.7,118.6z"/>
	<path class="st1" d="M655.2,535.3c-0.2-1.6-0.7-3.2-0.5-4.8c0.4-2.9-0.7-5.6-1-8.4c-0.2-1.8-2-2.7-3.8-2.5
		c-1.7,0.2-2.3,1.2-2.7,2.7c-1.1,5.2-2.4,10.4-3.4,15.6c-0.9,4.5-1.8,9-2.3,13.5c-0.3,2.5-0.7,5-1,7.6c-0.4,2.9-1,5.8-1.1,8.6
		c-0.3,5.5,0.1,11-0.5,16.4c-0.2,1.7,0.2,3.3,0.4,5c0.2,1.1,0.8,1.8,1.7,2.1c1,0.4,1.8,0,2.6-0.8c1.4-1.4,2.3-3,3.2-4.7
		c0.8-1.6,1.5-3.1,3.2-4c0.6-0.3,0.9-0.9,1.3-1.5c1.9-2.8,3.1-6,3.8-9.3c1-4.6,1.5-9.3,1.4-14.1c0-1.5-0.5-2.9-0.4-4.3
		C656,546.8,656,541,655.2,535.3z"/>
	<path class="st1" d="M633.8,260.3c-0.2-0.9-0.8-1.8-2-1.7c-1.1,0-1.9,0.6-2.3,1.7c-0.1,0.3-0.2,0.6-0.3,0.8
		c-0.9,3.4-1.8,6.7-3.3,9.9c-2.2,4.5-4,9.2-7.7,12.9c-1.6,1.7-3,3.7-4.9,4.9c-2,1.3-4.5,1.7-6.2,3.5c-0.2,0.2-0.5,0.2-0.8,0.3
		c-2.7,0.6-2,0.6-1.6,3c0.1,0.4,0.2,0.7,0.3,1c0.2,0.7,0.4,1.4,0.5,2.1c1.2,5,2.3,10.1,2.1,15.3c0,0.6,0,1.2,0,1.8c0,0.7,0,1.3,0,2
		c0,1.9,0.2,2,2,1.4c2.5-0.9,4.6-2.6,6.5-4.4c5.5-5.1,9.7-11.2,12.6-18.2c1.5-3.6,2.7-7.4,3.5-11.3c0.7-3.6,1.1-7.3,2-10.9
		c0.8-2.8,0.8-5.8,0.5-8.7C634.7,263.8,634.2,262,633.8,260.3z"/>
	<path class="st1" d="M353.6,306.8c2.7,4.8,6.5,8.6,10,12.7c0.3,0.3,0.7,0.6,1.1,0.7c1,0.4,1.5,0,1.5-1.1c0-1.2,0-2.3,0-3.5
		c-0.2-7,0.8-13.8,3.7-20.2c0.4-0.9,0.3-1.8-0.3-2.5c-2-2.4-3.4-5.1-4.9-7.8c-1.7-3.2-3.3-6.5-3.4-10.3c-0.1-1.6-0.4-3.2-1.1-4.7
		c-0.9-2-2.5-2.9-4.3-2.5c-1.2,0.2-2.1,1-2.7,2c-0.7,1.3-1.5,2.5-1.9,3.9c-1.4,4.6-2.1,9.2-2.2,14.9c-0.2,2.2,0.5,5.3,1,8.4
		C350.7,300.4,351.8,303.7,353.6,306.8z"/>
	<path class="st1" d="M633.3,439.3c-0.1,0.1-0.3,0.1-0.4,0.2c-1.8,3-3.6,6-5.2,9.1c-0.8,1.4-1.7,2.7-3.3,3.9
		c-0.5-1.4-1.1-2.6-1.3-3.9c-0.5-2.5-1.9-3.7-4.5-4c-1.1-0.1-1.5,0.2-1.7,1c-1,3.7-1.8,7.4-1.3,11.2c0.4,2.8,0.3,5.5,0.4,8.3
		c0,9.2,0,18.4,0,27.6c0,0.5,0,1.1,0.1,1.6c0.6,0,0.7-0.3,0.8-0.6c3-6.3,6.7-12.1,10.6-17.9c0.4-0.6,0.6-1.3,0.8-2
		c0.9-3.8,1.2-7.6,1.7-11.4c0.4-3.9,1-7.8,1.6-11.7c0.6-3.7,1.3-7.3,1.9-11c0-0.1,0-0.1,0-0.2C633.6,439.5,633.5,439.4,633.3,439.3z
		"/>
	<path class="st1" d="M529.2,59.3c-3.3,0.3-6.6,0.9-10,0.8c-2-0.1-3.9,0.1-5.9-0.4c-0.4-0.1-0.9-0.1-1.2,0.3c-0.3,0.5,0,0.8,0.3,1.2
		c0.6,0.7,1.3,1.2,2.1,1.5c0.7,0.2,1.2,0.5,1.6,1c1.3,1.4,2.7,2.7,4,4.1c0.5,0.5,1,1.1,1,1.9c-0.1,1.3,0.2,2.7-0.1,3.9
		c-1.1,3.8-1.8,7.7-3.7,11.2c-1.8,3.5-2.5,7.4-4.1,11c-0.2,0.5-0.3,1-0.4,1.5c-0.4,2.6,1.5,4.7,4,4.4c1.7-0.2,3.3-0.4,4.9-0.8
		c2.1-0.5,4.3-1,6.2-2.1c1.1-0.6,1.3-1.2,0.6-2.3c-0.6-0.9-1.2-1.8-1.8-2.7c-1.9-3.1-3.2-6.4-3.1-10.1c0.1-3.5,1.1-7,2.8-10
		c2.3-4.4,6.2-7.4,10.7-9.4c2.3-1,4.4-2.6,6.9-3.3c-2.4-0.9-4.9-1.1-7.3-1.4C534.3,59,531.7,59,529.2,59.3z"/>
	<path class="st1" d="M499.8,141.3c-1.2-0.8-1.8-1.9-2.3-3.1c-0.7-1.9-1.3-3.9-2.1-5.7c-1-2.1-3.2-2.8-5.2-1.8
		c-1.4,0.7-2.6,1.9-3.3,3.4c-0.8,1.7-1,3.8-2.6,5.1c-0.2,0.2-0.3,0.5-0.4,0.8c-0.3,1.1-1.1,2-1.6,2.9c-0.5,0.1-0.7-0.1-0.9-0.3
		c-0.9-0.9-2-1.1-3-0.6c-1.2,0.5-1.7,1.5-1.6,2.9c0,0.4-0.1,0.8,0,1.1c0.8,2.2,0.1,3.8-1.7,5.4c-1.7,1.5-1.1,3.7,1,4.5
		c1.5,0.6,3.3,1,4.9,0.7c1.6-0.3,3.2-0.4,4.8-0.3c3,0.1,5.3-0.9,6.5-3.8c0.3-0.8,0.9-1.2,1.7-0.9c1.8,0.6,3.6,0.3,5.4,0.3
		c3.3,0,4.7-2,3.9-5.2C502.9,144.3,501.6,142.6,499.8,141.3z"/>
	<path class="st1" d="M642.7,222.8c0.3-0.4,0.6-0.8,0.8-1.3c1-1.7,1.7-3.6,2.4-5.4c2.1-5.7,3.6-11.5,4.3-17.5
		c0.2-1.9,0.6-3.9,0.5-5.9c0-1.4-0.6-2.2-1.6-2.2c-1.3-0.1-1.6,0.9-1.8,1.8c-0.2,1-0.5,2-0.9,2.9c-2,4.8-5.2,8.9-8.4,13
		c-0.9,1.1-1.5,2.2-1.3,3.6c-0.2,1.8,0.8,3.4,0.8,5.1c0,2.1,0.9,3.8,1.8,5.5C640.3,224.2,641.4,224.3,642.7,222.8z"/>
	<path class="st1" d="M358.2,240.3c0.5,0.8,0.8,1.7,1.1,2.6c0.5,1.3,0.9,2.6,1.5,3.9c0.5,1.1,1.5,1.5,2.9,1.2c1.2-0.2,1.1-1.1,1.1-2
		c0-1.4,0-2.8,0-4.2c0,0,0,0,0,0c0-1.4,0-2.8,0-4.2c0.1-1.9-0.7-3.4-2.1-4.6c-1.7-1.6-4.1-2.6-5.1-4.9c-0.1-0.3-0.5-0.3-0.8-0.1
		c-0.1,0.1-0.3,0.4-0.3,0.5c0.1,0.7,0.4,1.4,0.2,2.1C356.2,234,356.2,237.2,358.2,240.3z"/>
</g>
<g>
	<path class="st2" d="M606.7,184c-0.9-2-2.2-3.8-3.7-5.4c-0.2-0.2-0.5-0.5-1-0.2c0.8,3.5,0.5,7-0.4,10.8c1.7-1.2,3-2.3,4.4-3.1
		c0.4-0.2,0.7-0.5,0.8-0.8c0-0.1,0-0.2,0-0.2c0-0.2,0-0.5,0-0.7C606.8,184.3,606.7,184.1,606.7,184z"/>
	<path class="st2" d="M589.9,163.6c-1.8,0-3.7,0.2-5,1.8c-0.3,0.4-0.8,0.7-1.2,0.9c-3.3,1.5-4.5,7.8-0.5,11.1c1,0.8,2.1,1.3,3.4,1.3
		c2.4,0,5.1-1.9,6.2-4.8c0.6-1.5,1.1-3.2,1.5-4.8C595,166.1,592.9,163.6,589.9,163.6z"/>
	<path class="st2" d="M572.4,173.2c-0.7,1.6-1.6,3.1-3,4.2c-0.8,0.6-0.7,1.3-0.2,2.1c1.2,1.8,3.2,2.5,5,3.5c-1-4.3,0.1-8.3,1.1-12.6
		C573.8,171,572.9,172,572.4,173.2z"/>
	<path class="st2" d="M416.5,171.2c-0.3-0.3-0.7-0.6-1.2-0.4c-0.6,0.2-0.6,0.8-0.5,1.3c0.2,2.2,0.3,4.5,0.5,6.7
		c0,0.6,0.3,1.1,0.9,1.6c1.2-1.6,2.3-3.1,3.3-4.6c0.5-0.8,0.4-1.5-0.3-2.2C418.4,172.9,417.4,172,416.5,171.2z"/>
	<path class="st2" d="M406.9,161.5c-1.8-0.6-3.4,0.4-4.7,1.7c-2,1.9-2.8,4.4-2.7,7.4c0,1.2,0.2,2.6,0.9,3.9c1.1,1.9,3.6,2.6,5.5,1.4
		c3.9-2.3,5.4-5.4,4.7-10C410.2,163.8,409,162.2,406.9,161.5z"/>
	<path class="st2" d="M394.6,189.3c-2.8-4.3-3.8-8.9-3-13.9c0-0.6,0-1.1-0.2-1.6c-0.1-0.3-0.1-0.6-0.1-0.9c-0.3,0.1-0.5,0.4-0.8,0.7
		c-0.1,0.2-0.3,0.4-0.4,0.6c-1.8,3.4-3,7-4.1,10.6c-0.5,1.5,0,2,1.5,2.6c2.7,1,5.4,2.1,8,4c-0.1-0.5-0.1-0.7-0.2-0.8
		C395,190.1,394.8,189.7,394.6,189.3z"/>
</g>
<g>
	<path class="st3" d="M637.8,476.4c1.1-5.8,2.6-11.4,4.7-16.9c1-2.7,1.9-5.4,2.5-8.2c1.1-5.1,2.2-10.2,3.3-15.2
		c0.6-2.9,1-5.8,1.3-8.7c0.5-6.9,0.7-13.9,1.7-20.8c0.5-3.5-0.4-6.7-3.7-9c-4.1-2.8-7.8-6.1-11-10c-0.1-0.1-0.3,0-0.5,0
		c-0.3,3.2-0.8,6.3-0.4,9.6c0.6,5.1,0.1,10.2-1.1,15.2c-1.2,5.1-3,10.1-3.9,15.3c-0.5,3.3-2.8,5.6-4.6,8.1c-0.5,0.7-1.3,1-2.1,0.6
		c-0.8-0.4-0.9-1.1-0.7-1.9c0.1-0.7,0.5-1.4,0-2.1c-1.3-2.1-1.8-4.5-2.3-6.8c-2-9-4.7-17.8-7.4-26.6c-0.2-0.7-0.2-1.6-1-2.1
		c-1,3.4-1.8,6.7-2.8,10c-2.3,7.4-3.5,15-4.1,22.6c-0.6,7.9-0.7,15.9-1.2,23.9c-0.5,7.7-0.6,15.5-0.4,23.2v0c0.1,0,0.1,0.1,0.2,0.1
		c0.3,0.2,0.5,0.5,0.6,0.9c0.1,0.4,0.1,0.9,0.1,1.5c0,1.2,0.1,2.2,1.1,2.9c0.4,0.3,0.6,0.8,0.6,1.4c0.3,3.7,0.3,7.4-0.3,11.1
		c-0.7,4.3,0.5,8.2,2.3,12.1c2,4.4,4.2,8.7,6.3,13c1.7,3.5,2.5,7.3,2.7,11.2c0,0.5,0.1,0.9,0.1,1.4c0.2,0.1,0.5,0.3,0.7,0.5
		c0.9,0.8,1.4,1.8,1.9,2.9c0.4,0.9,0.4,1.8,1.2,2.9c1-3.3,2.1-6.4,2.9-9.6c2.1-9.2,4.6-18.3,7.1-27.4
		C633.6,493.1,636.2,484.9,637.8,476.4z M628.4,473.9c-0.2,0.7-0.4,1.4-0.8,2c-3.9,5.7-7.6,11.6-10.6,17.9c-0.1,0.3-0.2,0.5-0.8,0.6
		c0-0.5-0.1-1.1-0.1-1.6c0-9.2,0-18.4,0-27.6c0-2.8,0-5.5-0.4-8.3c-0.5-3.8,0.3-7.5,1.3-11.2c0.2-0.8,0.6-1.2,1.7-1
		c2.5,0.3,4,1.5,4.5,4c0.3,1.3,0.8,2.5,1.3,3.9c1.6-1.2,2.5-2.4,3.3-3.9c1.7-3.1,3.5-6.1,5.2-9.1c0.1-0.1,0.2-0.1,0.4-0.2
		c0.2,0.1,0.2,0.2,0.2,0.4c0,0.1,0,0.1,0,0.2c-0.6,3.7-1.4,7.3-1.9,11c-0.6,3.9-1.2,7.8-1.6,11.7
		C629.6,466.3,629.2,470.1,628.4,473.9z"/>
	<path class="st3" d="M389.9,610.3c-0.4-2.7-1.2-5.3-2.7-7.6c-3.4-5.2-6.2-10.6-8.2-16.5c-2-5.8-3.7-11.7-4.9-17.7
		c-2.5-11.6-6.4-22.7-12.5-32.9c-3.8-6.4-7.5-12.9-11-19.5c-6-11.2-10.8-22.9-13.6-35.3c-0.5-2.2-1-4.4-1.5-6.6c-0.1,0-0.3,0-0.4,0
		c0.1,2.6,0.4,5.3,0.4,7.9c-0.2,9.8-1.8,19.4-4.5,28.7c-3.7,12.7-8.3,25-13.1,37.3c-4.7,11.9-8.5,24.1-11,36.7
		c-1,5.1-1.7,10.2-1.2,15.5c0.4,4.7,1.1,9.3,1.8,13.9c4.2,2,8.2,4.2,12.1,6.7l2,1.3l2,1.4l1,0.7l0.5,0.4l0.5,0.4l0.1,0
		c-0.6-2.9-1.1-5.9-1.4-8.8c-0.5-4.1-0.5-8.3-1-12.4c-0.6-5.1,0.1-10.1,0.2-15.1c0.1-7,1-13.9,3-20.7c1-3.4,2-6.9,3.2-10.2
		c2.8-8.1,4.8-16.5,6.1-25c0.5-3.2,1.1-6.4,1.7-9.7c0.2-1.2,0.6-2.3,1.6-3c0.6-0.4,1.3-0.9,2-0.7c1.2,0.4,2.5,0.3,3.7,0.3
		c0.7,0,1,0.5,1.3,1c0.9,1.8,1.7,3.7,2.3,5.7c3.6,11.1,7,22.2,10.3,33.4c2.3,8,4.4,16,7.3,23.9c0.6,1.6,1.2,3.1,1.7,4.7
		c0.2,0.7,0.7,1.1,1.1,1.6c1.3,1.6,2.4,3.3,2.4,5.8c-0.7,1.7-0.3,3.9-0.5,6c-0.2,2.1-1.6,3.6-3.8,3.9c-1.2,0.1-1.9,0.6-2.4,1.6
		c-2.6,5.4-5.7,10.5-8.4,15.9c-2.7,5.5-4.6,11.2-5.8,17.1c-0.4,1.9-0.5,3.9-0.6,5.9c0,1.1,0,2.3,0,3.4c1.8,2.4,3.5,4.8,5.3,7.3
		c0,0.1,0.1,0.1,0.1,0.2c0.6,0.7,1.1,1.5,1.6,2.3c0.2,0.3,0.3,0.6,0.5,0.8c0.5,0.7,1,1.5,1.5,2.2c1.8,2.6,3.6,5.2,5.5,7.7
		c0.2,0.3,0.4,0.6,0.6,0.8c0,0,0.1,0.1,0.1,0.1c0.5,0.5,1,0.9,1.5,1.4c0.9,0.8,1.8,1.5,2.8,2.2c0.2,0.1,0.4,0.3,0.6,0.4h20.9
		c0.7-1.5,1.4-3.1,2-4.7c0-0.1,0.1-0.1,0.1-0.2c0.1-5.1,0.5-10.2,1-15.3c1-10.5,1-20.9-1.2-31.2
		C391.5,619.2,390.6,614.7,389.9,610.3z"/>
	<path class="st3" d="M381.7,495.3c-3.6-9.9-5.8-19.9-5.5-30.5c0.4-13.8-1-27.5-3.9-41c-1.2-5.7-2.8-11.2-6.5-15.9
		c-0.5-0.6-0.8-1.4-1.3-2c-0.3-0.4-0.3-1-1.1-1c-0.4,1.2-0.3,2.4-0.4,3.7c-0.4,6-0.6,12-1.2,18c-0.1,1.3-0.4,2.6-1.1,3.8
		c-2.2,4.1-7.4,4.5-10.1,0.7c-0.5-0.8-0.9-1.7-1.3-2.5c-2.2-5.3-3.2-10.8-3.4-16.5c-0.3-8.1,1-16,3.2-23.8c0.2-0.7,0.5-1.3,0.4-2.4
		c-1.1,1-2,1.9-3,2.7c-1.4,1.1-2.1,2.5-2.6,4.2c-4.1,14-5.8,28.3-6.3,42.9c-0.1,4.5,0.6,8.9,2.1,13.1c1,2.8,2.1,5.5,3.3,8.1
		c3.2,6.6,6.2,13.2,9,20c3.2,7.6,4.8,15.6,6.4,23.7c0.4,2.1,1.2,4,2.3,5.9c5.2,8.8,10.4,17.5,15.3,26.4c4.9,8.8,7.8,18.3,9.4,28.2
		c0.6-1.9,1.3-3.8,2-5.7c2.2-5.4,3.8-10.9,5.5-16.4c0.5-1.5,1-3.1,1.5-4.6c1-2.7,1.4-5.5,1.5-8.4c0.1-1.4,0.4-2.8,1-4
		c0,0,0-0.1,0.1-0.1c-0.1-0.1-0.1-0.1-0.2-0.2C390.3,513.8,385.2,505,381.7,495.3z"/>
	<path class="st3" d="M604.7,336.5c2.6-4.3,6.9-6.9,11.2-9.4c0.1,0,0.1-0.1,0.2-0.1c0.9-0.5,1.6-1.2,2.3-2
		c3.6-4.8,7.4-9.4,11.5-13.9c1.4-1.5,2.4-3.3,3-5.3c1.2-3.7,2.1-7.5,3.1-11.2c2.1-7.9,4.7-15.5,7.1-23.3c0.7-2.2,0.8-4.3,0.5-6.5
		c-0.6-5.6-2.3-10.9-5.2-15.7c-2.4-4-3.1-8.3-2.6-12.9c0.4-4.1,3.8-6.5,7.8-5.6c1.3,0.3,2.5,0.8,3.6,1.5c0.4,0.2,0.8,0.7,1.2,0.3
		c0.9-0.8,2.2-1.1,2.4-2.6c0.8-5.2,2.7-10,4.5-14.9c0.8-2.3,1.6-4.6,1.9-7c0.6-4.3,1.3-8.5,1.7-12.8c0.3-2.7,0.7-5.5,0-8.3
		c-1.7-7.3-3.8-14.4-6.4-21.4c-2.5-6.7-5.3-13.3-8.2-19.9c-3.7-8.5-7.2-17.2-11.6-25.3c-1.6-2.8-2.8-5.8-4-8.8
		c-2.3-5.5-4.5-11.1-7.6-16.3c-3.6-5.9-6.4-12.2-8.6-18.7c-0.6-1.8-1.4-3.5-2-5.3c-0.6-1.8-1.6-3.1-3.1-4.1c-3.5-2.6-7-5.3-10.8-7.5
		c-5.3-3.1-11-5-17.3-4.5c-5.1,0.4-10.1-0.7-14.7-2.9c-2.5-1.2-5.1-2.2-7.8-2.8c-5-0.9-10-1.6-15-0.2c-0.8,0.2-1.5,0.4-1.7,1.4
		c-0.3,1.3-1.3,1.7-2.5,1.7c-1.6,0-3-0.4-4.5-0.7c-7.1-1.6-14.3-2.1-21.6-0.7c-7.9,1.5-15.9,1.4-23.8,0.7c-4.4-0.4-8.8-1.6-13.3-1.6
		c-0.8,0-1.6-0.1-2.4-0.4c-4-1.3-7.8-0.4-11.6,0.6c-1.1,0.3-2.4,0.7-3.2,1.4c-1.4,1.3-2.9,1.5-4.7,1.6c-4.2,0.1-8.3-0.5-12.3-1.8
		c-2.1-0.7-4.3-0.9-6.5-0.6c-4.3,0.6-8.4,1.8-12.1,4.2c-1.3,0.8-2.5,1.7-3.8,2.5c-2.2,1.4-4.3,2.7-7.1,2.7c-0.3,0-0.7,0.2-1,0.3
		c-2.2,0.8-4.4,1.6-6.6,2.3c-1.5,0.5-2.9,1.2-3.8,2.4c-3.4,4.4-7.7,7.7-12.2,11c-11.2,8.1-19.5,18.8-25.1,31.3
		c-5.6,12.5-9.6,25.5-10.5,39.2c-0.4,6.4-1.8,12.6-4,18.6c-1.1,3-2.1,5.9-3.2,8.9c-1.1,2.9-1.9,5.8-2.4,8.9
		c-1.9,12.4-0.4,24.4,3.7,36.1c0.3,0.9,0.8,1.7,1.4,2.5c4.3,5.1,6.3,11.2,6.9,17.7c0.5,5.8,1.2,11.6,2.6,17.3
		c0.1,0.4,0.2,0.7,0.2,1.1c-0.1,1.3-1.3,1.9-2.4,1.2c-0.6-0.4-0.9-1-1.2-1.5c-1.4-2.2-2.3-4.6-3.2-6.9c-0.3-0.8-0.5-1.6-1.1-2.4
		c-0.3,0.7-0.5,1.4-0.7,2c-0.2,0.5-0.5,1-1,1c-1.3,0-1.3,0.9-1.4,1.8c-0.1,0.9-0.2,1.7-0.3,2.6c-1.3,10.8-2,21.7-1.5,32.6
		c0.3,7.2,1.7,14.1,4.1,20.8c2.1,5.7,5.6,10.8,10.1,15c4.9,4.6,8.8,10,11.6,16.1c0.7,1.6,1.8,2.6,3.3,3.4c0.9,0.5,1.4,0.4,1.9-0.5
		c2.3-4.6,5.1-8.9,8-13.1c1-1.4,1-2.6,0.2-4c-1.1-1.8-2.1-3.7-3.1-5.6c-2.8-5.3-3.3-10.8-1.5-16.6c0.9-2.7,1.9-5.4,3.3-7.9
		c0.6-1,0.5-1.6-0.4-2.4c-2.2-1.9-4.2-4.1-5.6-6.7c-3.9-7.5-6.4-15.4-7-23.8c-0.5-6.8,0.5-13.4,2.4-19.9c0.5-1.8,1-3.5,1.3-5.3
		c0.3-2-0.9-5.3-2.2-6.8c-1.8-2-4.1-3.3-6.5-4.3c-6.5-2.9-11.6-7.5-14.9-13.7c-4.7-8.9-5.7-18.5-3.9-28.4c0.5-2.8,1.7-5.3,3.2-7.6
		c2.6-3.9,5.4-7.7,9-10.7c2.7-2.3,4.4-5,3.9-8.8c-0.3-1.9-0.1-3.9-0.1-5.9c0-1.4,0-2.8,0.5-4.1c0.7-2.3,0.7-4.5,0.5-6.9
		c-0.7-8.4,0.7-16.6,3.7-24.5c1.8-4.9,4.8-9,8.4-12.7c2.1-2.1,4.7-3.1,7.5-3.9c0.9-0.2,1.8-0.1,2.5,0.5c0.5,0.5,0.4,1.2-0.3,1.3
		c-2,0.2-2.7,1.7-3.8,3.1c-0.7,0.9-1.1,1.6-0.4,2.7c0.5,0.8,0.3,1.7,0.3,2.6c-0.1,1.6,0,3.2,0.3,4.8c0.8,4.1,0.5,8-2,11.6
		c-0.5,0.7-0.8,1.6-1.1,2.4c-0.2,0.4-0.5,0.9,0.1,1.4c3.1-0.8,6.2-1.7,9.3-2.5c1.1-0.3,2.2-0.7,3.3-1.3c2.1-1.3,4.3-2.4,6.6-3.4
		c1-0.4,1.9-1.1,2.8-1.8c2.5-2.1,5-4,7.3-6.3c2-2,4.4-3.4,7-4.4c2.8-1.1,5.8-1.6,8.6-2.7c3.1-1.2,6.3-1.8,9.6-2.1
		c6.7-0.6,11.9,1.8,15.4,7.7c0.9,1.5,1.7,3.1,2.1,4.8c1.7,7.4,2,14.8-0.6,22.1c-1.3,3.7-2.9,7.2-4.7,10.6c-1.2,2.4-2.1,4.8-2.4,7.5
		c-0.2,1.4,0,1.5,1.4,1.3c3-0.6,5.4-2.3,7.5-4.4c3.2-3.2,5.6-6.9,7.3-11.1c1.5-3.9,2.4-8,4.1-11.8c1.3-3,0.5-6.2-0.2-9.3
		c-0.2-0.8-0.7-1.1-1.4-0.5c-1.3,1.1-2.9,1.9-3.9,3.2c-1.1,1.3-2.1,1.5-3.8,0.7c1.4-1,2-2.2,2.7-3.4c1-1.5,2.2-2.7,3.8-3.6
		c2.7-1.6,4.2-1.4,6.4,0.8c0.6,0.6,1.1,1.2,1.4,1.9c1.9,4.2,3.3,8.5,2.2,13.2c-0.3,1.2-0.3,2.4,0.1,3.7c0.8,2.2,0.8,4.4,0.3,6.7
		c-1.9,8.2-5.8,15.3-12.2,20.8c-0.4,0.3-0.8,0.7-1.2,1c-0.6,0.4-0.7,0.9-0.2,1.5c1.5,1.8,2.5,3.8,2.7,6.1c0.1,0.7,0.3,1.1,1.1,0.9
		c1-0.3,1.9,0,2.8,0.1c0.6,0.1,1.2,0.3,1.7-0.2c1.6-1.4,3.6-2,5.5-2.7c1.9-0.7,3-1.8,3.1-3.9c0.2-3,1.9-5.2,4.6-6.5
		c3.4-1.7,7.1-0.2,8.4,3.4c0.5,1.4,0.6,2.9,0.4,4.3c-0.1,0.6-0.2,1.2-0.2,1.7c0,1,0.3,1.7,1.3,2c1.7,0.6,3.5,1.1,5.2,1.6
		c1,0.3,2,0.2,2.8-0.8c0.9-1.2,3-1.2,3.4-2.5c0.3-1.3-0.5-2.8-0.7-4.3c-0.4-3.3,0.6-6.2,2.8-8.7c1.7-1.8,3.8-1.9,5.6-0.3
		c0.8,0.7,1.4,1.5,1.9,2.4c0.4,0.6,0.7,1.3,1.2,1.8c1.6,1.7,2.2,3.7,2.6,5.9c0.2,1.1,0.3,2.2,0.5,3.2c0.5,2,1.7,3.3,3.9,3.5
		c2.8,0.2,5.4,1.3,7.7,2.9c1.4,1,2.9,1.8,4.5,2.3c0.6,0.2,1.3,0.4,1.9,0.3c0.5-0.1,0.9-0.4,0.7-0.9c-0.7-2-0.8-4.2-3-5.3
		c-0.5-0.3-1-0.6-1.5-1c-6.5-4.2-8.8-9.9-7.1-17.6c0.1-0.6,0.5-1.2,0.2-1.7c-0.7-1.7-0.9-3.5-2.1-5c-2.6-3.3-4.1-7.2-5.9-11
		c-2-4.2-2-8.5-0.4-12.8c0.7-1.9,1.6-3.6,2.6-5.3c0.5-0.9,1-1.8,1.5-2.7c1.1-2.5,2.5-3.3,5.2-3.1c2.3,0.2,4,1.4,4.4,3.1
		c0.4,1.7-0.5,3.4-2.7,4.5c-0.9,0.5-1.3,1.1-1.4,2c-0.4,2.6-0.3,5.2,0.5,7.8c0.7,2.2,1.7,4.4,2.7,6.5c1.2,2.4,2.2,4.7,1.3,7.6
		c-0.5,1.7,0.3,2.5,2,3c0.9,0.3,1.8,0.5,2.7,0.8c3.6,1.1,5.8,3.5,6.9,7.1c0.4,1.3,0.6,2.6,0.8,3.9c0.1,0.5,0.1,1.1,0.6,1.6
		c1-1.3,1.4-2.7,1.6-4.1c0.4-3.2,1.8-6,3.8-8.5c1.7-2.2,1.3-2.3-0.9-3.1c-0.3-0.1-0.5-0.2-0.8-0.4c-2.3-1-3.3-2.8-3.2-5.2
		c0-1.1,0.1-2.2,0.7-3.2c0.4-0.8,0.3-1.1-0.6-1.4c-1.7-0.6-3.3-1.4-4.4-2.8c-3.4-4-5.2-8.6-4.9-13.9c0.4-6.1,3.3-10.8,8.2-14.4
		c1.3-1,2.8-1.6,4.4-1.8c0.7-0.1,1.4-0.2,2.1-0.6c3.6-2.4,7.3-2.1,11.1-0.4c1.6,0.7,3,1.8,4.5,2.8c2,1.4,4.2,2.4,6.6,2.8
		c9,1.8,17.8,4,26.6,6.5c2.8,0.8,5.6,1.8,8.2,3.1c1.5,0.8,2.9,1.8,3.9,3.2c1.6,2.1,1.8,4.4,0.6,6.8c-0.2,0.5-0.8,0.9-0.6,1.6
		c2,0.9,3.8,2.2,6.3,2.3c3.6,0.2,6.8,1.6,9.7,3.7c3.9,2.8,7.4,6,10.6,9.6c3.9,4.3,6.6,9.3,7.4,15.2c0.7,5.8,2.1,11.3,5.2,16.4
		c0.3,0.4,0.4,0.9,0.6,1.4c1.4,3.7,1.9,7.5,1.1,11.4c-1.2,6-4.8,10.5-9.7,13.9c-3.9,2.7-6.5,6-7.5,10.6c-0.5,2.2-0.6,4.5-0.4,6.8
		c1,12.8-0.7,25.4-3.9,37.8c-1.3,5.2-2.7,10.5-5.1,15.4c-0.9,1.9-2,3.7-3.5,5.3c-4.1,4.3-10.2,3.4-13-1.8c-0.7-1.4-1.1-2.8-1.6-4.3
		c-0.5-1.7-1.1-3.4-2.1-4.8c-0.6-0.8-1.3-1.6-2.2-2c-0.6-0.3-1.2-0.5-1.6,0.4c-0.4,1-1.2,1.4-2.2,1.7c-0.8,0.2-1.5,0.5-2.2,1
		c-1.4,1.2-2.9,2.4-4.3,3.7c0.1,0.2,0.1,0.3,0.2,0.4c0.4,0.5,0.9,1,1.4,1.4c4.1,4,6.4,8.8,7.3,14.4c0.6,3.6,0.4,7.1-0.1,10.7
		c-0.9,6.2-2.3,12.2-3,18.4c-0.1,1.2,0,2.1,0.6,3.1c1.4,2.2,2.8,4.3,4.5,6.2c2.2,2.5,4.2,5,6.1,7.7
		C603.7,336,603.9,336.6,604.7,336.5z M369.6,293c0.6,0.7,0.7,1.5,0.3,2.5c-3,6.4-3.9,13.2-3.7,20.2c0,1.2,0.1,2.3,0,3.5
		c0,1.1-0.6,1.4-1.5,1.1c-0.4-0.2-0.8-0.4-1.1-0.7c-3.5-4.1-7.3-7.9-10-12.7c-1.8-3.1-2.9-6.4-3.5-9.8c-0.6-3.1-1.2-6.2-1-8.4
		c0.1-5.7,0.8-10.3,2.2-14.9c0.4-1.4,1.2-2.7,1.9-3.9c0.6-1,1.5-1.8,2.7-2c1.9-0.4,3.4,0.5,4.3,2.5c0.7,1.5,1,3.1,1.1,4.7
		c0.1,3.8,1.7,7.1,3.4,10.3C366.1,287.9,367.6,290.6,369.6,293z M356.6,228.5c0-0.2,0.1-0.4,0.3-0.5c0.3-0.2,0.7-0.1,0.8,0.1
		c1,2.4,3.4,3.3,5.1,4.9c1.3,1.3,2.1,2.7,2.1,4.6c-0.1,1.4,0,2.8,0,4.2c0,0,0,0,0,0c0,1.4,0,2.8,0,4.2c0,0.9,0,1.8-1.1,2
		c-1.4,0.3-2.4-0.1-2.9-1.2c-0.6-1.3-1-2.6-1.5-3.9c-0.3-0.9-0.6-1.8-1.1-2.6c-2-3-2-6.3-1.3-9.7C357,229.8,356.7,229.2,356.6,228.5
		z M448.1,96.6c-2.6,1.1-4.8,0.6-6.8-1.4c-1.4-1.4-2.1-3.1-2.6-5c-0.4-1.4-0.7-2.8-1.1-4.2c-0.2-0.8-0.5-1.7-1-2.4
		c-1-1.8-3.1-1.9-4.3-0.3c-0.7,0.9-1.2,1.5-2.2,0.4c-0.6-0.7-1-0.1-1.5,0.2c-0.4,0.2-0.8,0.5-1.2,0.1c-0.4-0.4-0.2-0.8,0-1.2
		c0.1-0.3,0.3-0.5,0.5-0.8c1.3-1.8,3.4-2.5,5.1-3.7c1.9-1.3,4-1.3,6.1-0.5c0.7,0.2,1.1,0.2,1.4-0.6c0.6-1.5,2.1-2.2,3.2-3.2
		c1.2-0.9,2.6-1,3.9-0.2c1.3,0.7,1.7,1.9,1.7,3.6c0,0.2,0,0.8-0.2,1.2c-1.2,3.1-0.1,5.8,1.8,8.2c1.2,1.6,1.9,3.4,2.3,5.4
		c0.2,1.1-0.1,1.8-1.1,2.4C450.8,95.4,449.5,96.1,448.1,96.6z M470.6,109.8c-0.6,1.6-3.1,2.9-4.7,2.4c-1.8-0.6-3.7-0.7-5.6-1.2
		c-1.1-0.3-2.2-0.6-3.2-1.3c-0.8-0.5-1.6-1-2.6-1c-0.3,0-0.6-0.1-0.9-0.2c-3.3-0.9-4.1-4-1.6-6.3c1.6-1.4,3.2-2.8,4.7-4.3
		c1.7-1.8,2.8-3.9,3.6-6.2c0.2-0.7,0.4-1.4,0.2-2.2c-0.8-3.5-1.2-7.2-2.5-10.6c-0.4-1.1-0.9-2.1-1.8-2.9c-1.1-1-2-2.1-2.6-3.5
		c-0.5-1.3-1.3-2.2-2.5-2.9c-0.8-0.4-1.7-0.9-2.5-1.4c-1.6-0.9-3.3-1.4-5.2-0.5c-1.6,0.7-3.4,0.8-5.2,0.6c-3.3-0.4-6.2,0.8-8.9,2.5
		c-1.3,0.9-2.8,1.3-4.2,1.7c-1.8,0.5-3.3-0.5-4.7-1.3c-1.3-0.7-1.2-0.7-2,0.6c-0.7,1.1-0.7,2.1-0.3,3.3c0.9,2.4,1.7,4.8,2.6,7.2
		c0.9,2.5,1.1,5,0.7,7.6c-0.2,1,0.1,1.5,1,1.9c1.9,0.9,3.5,2,5,3.5c0.7,0.8,1.1,1.6,0.7,2.6c-0.4,1-1.4,1.3-2.4,1.1
		c-1.9-0.3-3.9-0.4-5.7-1.3c-1.4-0.7-2.6-0.6-4,0.1c-5.9,3-11.4,6.5-16.3,11c-1,0.9-2.1,1.7-3.2,2.3c-2.2,1.2-4.6,0.8-5.6-1.5
		c-1-2.2-2.5-4.3-2.9-6.8c-0.8-5.4,0-10.5,3.9-14.7c0.7-0.7,1.2-1.4,1.6-2.3c0.4-0.8,0.8-1.5,1.5-2.1c0.5-0.4,0.9-1,1.7-0.8
		c0.8,0.3,1.2,1,1.2,1.9c0,1.5,0,3.1,0,4.6c0,0.6-0.1,1.3,0.3,2.1c1.9-0.8,2.2-2.5,2.7-4c0.9-2.7,1.8-5.4,2.4-8.2
		c0.8-3.2,2.9-5.7,4.3-8.6c2.9-2,4.1-5.8,7.6-7.3c1.9-0.8,3.7-2.1,5.9-2.2c0.8,0,1.3-0.6,1.8-1.1c2.2-2.3,4.9-3.8,8-4.7
		c2.5-0.7,5.1-0.6,7.6-0.2c1.7,0.3,3.3,1.2,4.5,2.5c1.8,2,3.9,3.7,6.1,5.3c1.2,0.8,1.2,0.9,2-0.3c3-4.7,7.6-6,12.7-6.4
		c1.3-0.1,2.5,0.3,3.6,0.9c1.3,0.7,1.5,1.7,0.6,2.9c-0.6,0.7-0.8,1.4-0.7,2.2c0.1,1.1-0.2,2-1.1,2.7c-0.6,0.5-0.7,1.2-0.7,2
		c0,4.4,0.3,8.7,0.8,13.1c0.4,3.7,1.2,7.3,1.8,11c0,0.1,0,0.1,0,0.2c-0.4,4.4,1.6,8.2,2.7,12.3C471.3,105.9,471.4,107.8,470.6,109.8
		z M499.5,151.8c-1.8,0-3.7,0.3-5.4-0.3c-0.8-0.3-1.4,0.1-1.7,0.9c-1.2,2.9-3.5,3.9-6.5,3.8c-1.6,0-3.2,0-4.8,0.3
		c-1.7,0.3-3.4-0.1-4.9-0.7c-2.2-0.8-2.8-3-1-4.5c1.8-1.6,2.5-3.2,1.7-5.4c-0.1-0.3,0-0.7,0-1.1c-0.1-1.3,0.4-2.3,1.6-2.9
		c1.1-0.5,2.1-0.3,3,0.6c0.2,0.2,0.4,0.4,0.9,0.3c0.5-0.9,1.3-1.8,1.6-2.9c0.1-0.3,0.2-0.6,0.4-0.8c1.7-1.3,1.8-3.4,2.6-5.1
		c0.7-1.5,1.9-2.6,3.3-3.4c2-1,4.2-0.3,5.2,1.8c0.8,1.8,1.4,3.8,2.1,5.7c0.5,1.2,1.1,2.3,2.3,3.1c1.8,1.3,3.1,3.1,3.6,5.3
		C504.2,149.8,502.8,151.8,499.5,151.8z M510.3,83.2c-0.1,1.9-0.5,2.2-2.7,1.6c-0.4,2.6-0.9,5-1.3,7.5c-0.6,3.6-1.3,7.2-2.4,10.7
		c-0.6,1.9-0.9,3.9-0.8,5.8c0.1,3.8,0.2,7.6,0.4,11.4c0,1.1,0.3,2.2,0.7,3.2c0.4,1.2,0.6,2.4,0.9,3.6c0.6,2.1-0.9,3.2-1.9,4.6
		c-0.1,0.1-0.5,0.2-0.6,0.2c-0.8-0.7-2.1-0.5-2.9-1.4c-0.7-0.8-0.8-1.7-0.8-2.7c0-0.9-0.2-1.7-0.5-2.6c-3.1-8.3-3.5-16.7-0.6-25.1
		c0.6-1.7,0.9-3.4,1.1-5.1c0.3-2.7,0.8-5.3,1.3-8c0.4-2.2-0.3-4-1.6-5.7c-0.6-0.8-1.3-1.1-2.3-1c-1.8,0.1-3.5,0.6-4.7,2
		c-3,3.2-5.3,6.8-5.1,11.5c0.2,4-0.7,8-0.5,12c0.1,1.3-0.3,2.6-0.7,3.9c-1.1,3.5-1.5,7-1.4,10.6c0.1,1.8,0,3.7,0,5.5c0,1,0,2-0.5,3
		c-0.5,1-0.2,2-0.2,3c0,1.5-0.5,2.2-1.4,2.4c-0.9,0.2-1.7-0.3-2.3-1.6c-0.7-1.4-1-2.9-1.2-4.4c-0.6-4.1-0.5-8.3-0.3-12.5
		c0.2-3.8,0-7.6-1.3-11.3c-0.6-1.7-1-3.4-1-5.2c0-5-0.9-9.9-1.6-14.8c-0.8-5.9,0.6-11.5,2.8-16.9c1.9-4.6,6-6.6,10.6-7.7
		c3.3-0.8,6.7-0.6,10,0c2.9,0.5,5.3,2.2,6.9,4.7c3.1,5,5,10.4,5.9,16.2C510.3,81.4,510.4,82.3,510.3,83.2z M526.6,73.5
		c-1.6,3.1-2.6,6.5-2.8,10c-0.1,3.7,1.2,7,3.1,10.1c0.6,0.9,1.2,1.8,1.8,2.7c0.7,1.1,0.5,1.7-0.6,2.3c-1.9,1.1-4.1,1.6-6.2,2.1
		c-1.6,0.4-3.3,0.6-4.9,0.8c-2.5,0.3-4.4-1.8-4-4.4c0.1-0.5,0.2-1,0.4-1.5c1.6-3.6,2.3-7.5,4.1-11c1.8-3.5,2.6-7.4,3.7-11.2
		c0.3-1.2,0.1-2.6,0.1-3.9c0-0.8-0.4-1.4-1-1.9c-1.3-1.3-2.7-2.7-4-4.1c-0.5-0.5-1-0.8-1.6-1c-0.9-0.2-1.6-0.8-2.1-1.5
		c-0.3-0.3-0.6-0.7-0.3-1.2c0.3-0.5,0.8-0.4,1.2-0.3c1.9,0.5,3.9,0.3,5.9,0.4c3.4,0.1,6.7-0.4,10-0.8c2.5-0.3,5.1-0.2,7.6,0.1
		c2.4,0.4,4.9,0.6,7.3,1.4c-2.5,0.8-4.6,2.3-6.9,3.3C532.8,66.2,528.9,69.1,526.6,73.5z M556.8,88.5c-1.1,0.6-1.8,1.6-3.5,0.9
		c-2.2-1-4.7-1.4-7.2-1.9c-1.8-0.4-3.6-0.6-5.3-1.4c-0.5-0.2-1-0.2-1-0.2c-1.3-0.2-1.8,0.4-2.4,0.9c-0.7,0.7-1.4,1.1-2.3,0.5
		c-0.9-0.5-1-1.4-0.8-2.3c0.3-1.8,1.3-3.2,2.8-4c2.4-1.3,3.3-3.4,3.7-5.8c0.2-0.9,0.2-1.9,0.3-2.8c0.1-1.1,0.6-2.1,1.4-2.9
		c1.5-1.4,3.5-1.3,4.8,0.3c0.7,1,1.4,2,1.8,3.3c0.3,1,0.9,1.8,1.7,2.4c2.3,1.6,3.9,3.7,4.6,6.4c0.2,0.7,0.7,1.3,1.2,1.8
		c0.5,0.6,1,1.3,1.1,2.1C557.9,86.9,557.9,87.9,556.8,88.5z M618.4,118.6c-0.5,0.5-1.1,0.2-1.6,0c-1.4-0.7-3-1.3-4.2-2.2
		c-3.9-2.9-8.5-4.5-12.9-6.5c-5.5-2.6-11.3-3.8-17.2-4.9c-4.5-0.8-9.1-1.2-13.5-2.4c-4-1.1-7.5-3.2-9.5-7.2
		c-0.3-0.6-0.6-1.2-0.5-1.9c0.4-2.2,1.4-4.2,3.2-5.5c1.9-1.4,3.6-2.9,4.9-4.9c0.7-1.2,1.9-1.8,3-2.6c3.5-2.8,5.9-6.3,6.4-10.8
		c0.4-3.8,4.4-6.9,8.3-7c1.5,0,2.9,0.2,4.3,0.6c1,0.2,1.8,0.9,2.9,0.4c0.5-0.2,0.8,0.3,1,0.7c1,1.8,2.5,3.2,3.9,4.7
		c2.8,3,4.5,6.6,5.6,10.5c1.4,4.7,2.1,9.5,2.8,14.3c0.5,3.6,2.3,6.6,4,9.6c1,1.8,2.2,3.6,3.1,5.5c1.1,2.3,2.6,4.2,4.4,6
		c0.6,0.6,1.2,1.1,1.6,1.8C618.6,117.4,618.9,118,618.4,118.6z M637.9,208.2c3.2-4.1,6.4-8.2,8.4-13c0.4-0.9,0.7-1.9,0.9-2.9
		c0.2-0.9,0.5-1.9,1.8-1.8c1,0,1.6,0.9,1.6,2.2c0,2-0.3,3.9-0.5,5.9c-0.7,6-2.2,11.9-4.3,17.5c-0.7,1.8-1.4,3.7-2.4,5.4
		c-0.2,0.4-0.5,0.9-0.8,1.3c-1.3,1.5-2.4,1.4-3.4-0.3c-0.9-1.7-1.8-3.5-1.8-5.5c0-1.7-1.1-3.3-0.8-5.1
		C636.5,210.3,637.1,209.3,637.9,208.2z M606.3,292.5c0.3-0.1,0.6-0.1,0.8-0.3c1.7-1.8,4.2-2.2,6.2-3.5c2-1.3,3.3-3.3,4.9-4.9
		c3.6-3.7,5.5-8.4,7.7-12.9c1.6-3.2,2.4-6.5,3.3-9.9c0.1-0.3,0.1-0.6,0.3-0.8c0.4-1.1,1.2-1.6,2.3-1.7c1.2,0,1.7,0.8,2,1.7
		c0.5,1.8,1,3.5,1.1,5.3c0.2,2.9,0.2,5.9-0.5,8.7c-1,3.6-1.4,7.3-2,10.9c-0.7,3.9-1.9,7.6-3.5,11.3c-2.9,7-7.1,13-12.6,18.2
		c-1.9,1.8-4,3.5-6.5,4.4c-1.9,0.7-2,0.6-2-1.4c0-0.7,0-1.3,0-2c0-0.6,0-1.2,0-1.8c0.2-5.2-0.9-10.3-2.1-15.3
		c-0.2-0.7-0.4-1.4-0.5-2.1c-0.1-0.4-0.3-0.7-0.3-1C604.3,293.1,603.6,293.2,606.3,292.5z"/>
	<path class="st3" d="M663.6,623.5l2-1.4l2-1.3c4.4-2.8,9-5.3,13.7-7.4c0.6-2.1,1.2-4.1,1.6-6.2c0.4-1.8,0.6-3.7,0.8-5.6
		c0.7-8.5,0.4-16.9,0.3-25.4c0-3-0.3-6.1-0.7-9.1c-0.2-1.4-0.3-2.8,0.2-4.1c0.6-1.4,1.4-2.4,3.1-2.4c1.3,0,2.6,0.8,3.1,2.3
		c1.2,3.2,2.1,6.5,2.7,9.9c0.3,1.9,0.7,3.9,1.2,5.8c2.9,9.3,5.4,18.7,7.8,28.1l1.8-0.4c2-0.5,3.9-0.9,5.9-1.2
		c-0.2-0.9-0.5-1.8-0.7-2.6c-1.6-6.9-2.6-13.8-3.3-20.8c-0.5-5.8-2.1-11.2-4.6-16.5c-6.6-14.1-14.2-27.7-22-41.2
		c-0.2-0.3-0.2-0.7-0.7-0.7c-0.4,0.4-0.1,0.8-0.1,1.2c0.7,6.6,1.1,13.1,0.9,19.7c-0.1,3.4-0.2,6.9-0.2,10.3
		c0.1,10.2-1,20.3-3.6,30.2c-2,7.6-4,15.3-6,22.9c-1.5,5.9-3.6,11.5-6.2,16.8L663.6,623.5z"/>
	<path class="st3" d="M642.5,625.5c1.1,0.4,2.1,0.8,3,1.4c1.8-5,4.2-9.6,6.3-14.5c3.5-8.1,7-16.3,8.8-25c0.7-3.4,1.5-6.9,2.5-10.2
		c2.3-8,3.1-16.2,3-24.5c-0.1-9.3-1.1-18.5-2.1-27.8c-0.8-7.5-3.1-14.4-7-20.8c-1.2-2.1-2.3-4.2-3.5-6.4c-0.2-0.3-0.2-0.9-1-0.8
		c-1,2.2-1.9,4.5-3.6,6.4c-2.2,2.6-3.6,5.7-4.8,8.8c-1.4,3.5-2.8,7.1-4,10.7c-2.9,8.3-4.9,16.9-7.4,25.3c-0.3,1-0.4,2-0.5,3
		c-1,8.4-2.1,16.7-3.7,25c0,0.3,0,0.7,0,1c-0.6,4.1-0.7,8.1-0.3,12.2c0.4,3.3,0.9,6.5,1.9,9.6c1.7,4.9,2.4,10.1,4,15
		c0.8,2.5,1.7,5,3.1,7.2C638.4,623.1,640.2,624.7,642.5,625.5z M638.8,584c0.7-5.5,0.3-10.9,0.5-16.4c0.1-2.9,0.7-5.8,1.1-8.6
		c0.3-2.5,0.7-5,1-7.6c0.5-4.6,1.4-9.1,2.3-13.5c1-5.2,2.3-10.4,3.4-15.6c0.3-1.5,1-2.5,2.7-2.7c1.8-0.3,3.7,0.7,3.8,2.5
		c0.2,2.8,1.3,5.5,1,8.4c-0.2,1.6,0.3,3.2,0.5,4.8c0.9,5.7,0.8,11.5,0.8,17.2c0,1.5,0.4,2.9,0.4,4.3c0.1,4.8-0.4,9.5-1.4,14.1
		c-0.7,3.3-1.9,6.4-3.8,9.3c-0.4,0.6-0.7,1.2-1.3,1.5c-1.7,0.9-2.5,2.4-3.2,4c-0.8,1.7-1.8,3.3-3.2,4.7c-0.8,0.7-1.6,1.2-2.6,0.8
		c-0.9-0.4-1.5-1.1-1.7-2.1C639,587.4,638.7,585.7,638.8,584z"/>
	<path class="st3" d="M814.3,654.8c-1.9-3.7-4.1-7.1-6.7-10.3c-2.6-3.2-5.5-6.1-8.7-8.6c-3.2-2.5-6.7-4.7-10.3-6.5c0,0,0,0,0,0
		l-5.4-2.4c-0.6-0.5-1.2-1-1.7-1.5c-1.4-1.2-2.8-2.2-4.4-3.1c-6.4-3.6-13.6-5.6-20.8-6.8c-3.6-0.6-7.3-1-10.9-1.2
		c-2.4-0.1-4.8,0-7.2-0.4c-2.6-0.4-5.1-1.6-7.7-1.8c-1-0.1-2,0-3.1,0.1c-8.4,0.9-16.7,2.1-24.8,4.6c-4.1,1.2-8,2.8-11.8,4.7
		c-3.6,1.8-6.9,4.5-10.6,5.9c-0.9,0.4-1.8,0.7-2.7,1.1c-19.3,8.3-36.6,24.6-43.3,44.8c0,0,0,0,0,0c1.8-0.4,3.8,0.3,5.2-0.9
		c0.6-0.5,0.9-1.1,1.2-1.8c3.1-6.7,6.2-13.7,11.4-18.9c6.4-6.4,16.6-8.9,24.2-3.1c0,0,0-0.1,0-0.1c0,0,0.1,0.1,0.1,0.1
		c0.4,0.4,0.9,0.7,1.3,1.1c0,0,0,0,0.1,0.1c0.1,0.1,0.3,0.2,0.4,0.4c0.5,0.5,1,1,1.4,1.5c0.1,0.1,0.1,0.2,0.2,0.3
		c-0.6,0-1.3,0-1.9,0.1c-1.4,0.1-2.7,0.5-4.1,1c-2.6,1-5,2.4-7.3,4c-0.6,0.4-1.1,0.8-1.7,1.2l-0.8,0.6l-1.5,1.1l-0.8,0.6
		c0,0,0.8-0.2,0.9-0.2c4-1.1,8-1.1,11.8,0.7c0.3,0.2,0.6,0.3,0.9,0.5c0.3,0.2,0.6,0.3,0.9,0.5c0.6,0.4,1.1,0.8,1.6,1.2
		c1,0.9,1.9,1.9,2.7,3c0.9,1.2,1.6,2.6,2.3,3.9c0,0,0,0,0,0c-0.1,0.4-0.2,0.8-0.3,1.2c-0.1,0.2-0.1,0.5-0.2,0.7c0,0,0,0.1,0,0.1
		c-0.1,0.4-0.1,0.9-0.2,1.3c0,0.1,0,0.2,0,0.3c0,0.1,0,0.2,0.1,0.3c0,0.2,0.1,0.4,0.1,0.6c0,0,0-0.1,0-0.1c0,0,0,0.1,0,0.1
		c0,0,0,0,0,0.1c0,0,0,0,0-0.1c0.1,0.7,0.3,1.5,0.4,2.2c0.2,0.9,0.4,1.7,0.6,2.6c1.1,1.8,2.2,3.6,2.9,5.6c0.1,0.2,0.1,0.4,0.2,0.6
		c0,0.1,0,0.1,0,0.2c0.1,0.2,0.1,0.4,0.1,0.6c0,0,0,0,0,0c0,0.2,0.1,0.4,0.1,0.6c0,0.1,0,0.1,0,0.2c0,0.2,0.1,0.3,0.1,0.5
		c0,0,0,0.1,0,0.1c0,0.2,0.1,0.4,0.1,0.5c0,0.1,0,0.1,0,0.2c0,0.1,0,0.3,0,0.4c0,0.1,0,0.2,0,0.3c0,0.1,0,0.3,0,0.4
		c0,0.1,0,0.2,0,0.3c0,0.1,0,0.2,0,0.3c0,0.2,0,0.4,0,0.6c0,0,0,0.1,0,0.1c0,0.1,0,0.3,0,0.4c0,0,0,0,0,0c0,0.3,0,0.6,0,0.9
		c0.1,0.1,0.2,0.3,0.3,0.4c0.6,0.7,1.1,1.4,1.7,2.1c0.3,0.3,0.6,0.6,0.9,0.9c2.5,2.1,5,4.1,8.3,4.9c5.1,1.2,10.4-0.5,15.6-0.1
		c1,0.1,2.1,0.2,3-0.1c1.8-0.7,2.9-3.6,3.8-5.2c1.4-2.4,2.6-5,3.6-7.7c1.9-5,3-10.4,3.5-15.7c0.6-8.5-0.9-17.1-4.3-24.9
		c-1.7-3.9-3.8-7.6-6.3-11.1c-2.5-3.4-5.3-6.6-8.5-9.5c-0.4-0.4-0.8-0.7-1.2-1.1l-2.1-1.8l0,0c0,0,0,0,0,0l0.1,0l0.2,0l0.4,0.1
		l0.8,0.2l1.2,0.3l0.4,0.1l0.4,0.1l0.8,0.2c2.1,0.6,4.1,1.4,6,2.4c17.6,9.2,25.3,27.8,26.4,46.7c0,0.1,0,0.2,0,0.4
		c0,0.6,0,1.1,0,1.7c0,0.5,0,1.1-0.1,1.6c0,0.5-0.1,1-0.1,1.5c0,0.1,0,0.1,0,0.2c-0.1,0.3-0.1,0.7-0.2,1c0,0.3-0.1,0.7-0.2,1
		c0,0.2-0.1,0.5-0.1,0.7c-0.5,3.1-1.6,6.2-2.5,9.2c-1.1,3.2-2.9,6.3-1.6,9.7c2.8,7.1,9.1,9.4,16,10.5c0.9,0.1,1.8,0.3,2.8,0.4
		c1.1,0.2,2.3,0.3,3.4,0.4c1.3,0.1,2.7,0.3,4,0.4c0.3,0,0.5,0,0.8,0.1c0.2,0,0.5,0,0.7,0.1c0.5,0,1,0,1.4,0c0,0,0-0.1,0-0.1
		c0.6-2.7,2-5,3.3-7.4c5.8-11.3,8.1-24.8,6.3-37.7c-1.7-12-8.4-23-16.8-31.5c-0.8-0.8-1.7-1.9-1.6-3.1c2.9,0.8,6.1,3.3,8.7,4.9
		c3.2,2,6.3,4.1,9.1,6.5c5.2,4.4,10.1,10,11.2,16.9c2,13.3,5.7,14.1,4,27.4c-0.5,3.6-2.6,6.8-3.3,10.3c-1,5-1.3,9.6-3.2,14.3
		c-0.1,0.3-0.3,0.6-0.4,0.9c-0.1,0.3-0.3,2.8-0.9,2.6c2.4,0.8,13.9,3.1,14.5-1.1l0.3-2.3l2.9-16c2.8-15.8,3.2-31.5-3.9-46.2
		c-1.5-3.1-4.2-9.1-6.2-11c0.2,0.2,0.5,0.4,0.7,0.7c3.9,3.7,7.6,7.2,10.5,11.8c3.4,5.4,6.3,11.4,8.6,17.3c0.2,0.5,0.3,1,0.5,1.4
		c0.6,1.9,1.1,3.9,1.6,5.8c0.8,3.9,1.2,7.9,1.2,11.9c-0.1,4-0.5,7.9-1.4,11.8c-0.3,1.2-0.6,2.3-1,3.5c0.4-0.1,0.7-0.2,1-0.3
		c1-0.4,1.8-1.1,2.5-1.9c0.7-0.8,1.3-1.7,1.8-2.6c0.5-0.9,0.9-1.9,1.2-2.9c0.2-0.5,0.3-1,0.4-1.5
		C821.8,681.8,820.5,667.2,814.3,654.8z M685,624.8C685.1,624.8,685.1,624.8,685,624.8c0.1,0,0.1-0.1,0.1-0.1
		C685.1,624.8,685.1,624.8,685,624.8z"/>
	<path class="st3" d="M309.6,628.5c-0.9-0.4-1.8-0.8-2.7-1.1c-3.8-1.5-7-4.1-10.6-5.9c-3.8-1.9-7.8-3.4-11.8-4.7
		c-8.1-2.4-16.4-3.7-24.8-4.6c-1-0.1-2-0.2-3.1-0.1c-2.6,0.2-5.1,1.4-7.7,1.8c-2.4,0.4-4.8,0.3-7.2,0.4c-3.7,0.2-7.3,0.6-10.9,1.2
		c-7.2,1.2-14.4,3.2-20.8,6.8c-1.6,0.9-3,2-4.4,3.1c-0.6,0.5-1.2,1-1.7,1.5l-5.4,2.4c0,0,0,0,0,0c-3.7,1.8-7.1,4-10.3,6.5
		c-3.2,2.6-6.1,5.5-8.7,8.6c-2.6,3.2-4.8,6.6-6.7,10.3c-6.2,12.4-7.5,27.1-3.9,40.4c0.1,0.5,0.3,1,0.4,1.5c0.3,1,0.7,1.9,1.2,2.9
		c0.5,0.9,1.1,1.8,1.8,2.6c0.7,0.8,1.5,1.5,2.5,1.9c0.3,0.1,0.7,0.2,1,0.3c-0.4-1.2-0.7-2.3-1-3.5c-0.9-3.8-1.3-7.8-1.4-11.8
		c0-4,0.4-8,1.2-11.9c0.4-2,0.9-3.9,1.6-5.8c0.2-0.5,0.3-1,0.5-1.4c2.3-5.9,5.2-12,8.6-17.3c2.9-4.6,6.6-8.1,10.5-11.8
		c0.2-0.2,0.5-0.4,0.7-0.7c-2,1.8-4.7,7.8-6.2,11c-7.1,14.7-6.7,30.4-3.9,46.2l2.9,16l0.3,2.3c0.6,4.2,12.1,1.9,14.5,1.1
		c-0.6,0.2-0.8-2.3-0.9-2.6c-0.1-0.3-0.2-0.6-0.4-0.9c-1.9-4.7-2.2-9.4-3.2-14.3c-0.7-3.5-2.9-6.8-3.3-10.3
		c-1.8-13.3,1.9-14.1,4-27.4c1.1-7,6-12.6,11.2-16.9c2.9-2.4,6-4.5,9.1-6.5c2.6-1.6,5.8-4.1,8.7-4.9c0.2,1.2-0.8,2.2-1.6,3.1
		c-8.4,8.5-15.1,19.6-16.8,31.5c-1.8,12.9,0.4,26.4,6.3,37.7c1.2,2.4,2.6,4.8,3.3,7.4c0,0,0,0.1,0,0.1c0.5,0,1,0,1.4,0
		c0.2,0,0.5,0,0.7-0.1c0.3,0,0.5,0,0.8-0.1c1.3-0.2,2.7-0.3,4-0.4c1.2-0.1,2.3-0.2,3.4-0.4c0.9-0.1,1.8-0.2,2.8-0.4
		c6.9-1.1,13.2-3.3,16-10.5c1.3-3.4-0.5-6.5-1.6-9.7c-1-3-2.1-6.1-2.5-9.2c0-0.2-0.1-0.5-0.1-0.7c-0.1-0.3-0.2-0.7-0.2-1
		c-0.1-0.3-0.1-0.7-0.2-1c0-0.1,0-0.1,0-0.2c0-0.5-0.1-1-0.1-1.5c0-0.5,0-1.1-0.1-1.6c0-0.6,0-1.1,0-1.7c0-0.1,0-0.2,0-0.4
		c1.1-18.9,8.8-37.5,26.4-46.7c1.9-1,3.9-1.8,6-2.4l0.8-0.2l0.4-0.1l0.4-0.1l1.2-0.3l0.8-0.2l0.4-0.1l0.2,0l0.1,0c0,0,0,0,0,0l0,0
		l-2.1,1.8c-0.4,0.4-0.8,0.7-1.2,1.1c-3.1,2.9-6,6-8.5,9.5c-2.5,3.4-4.6,7.2-6.3,11.1c-3.4,7.8-4.9,16.4-4.3,24.9
		c0.4,5.4,1.6,10.7,3.5,15.7c1,2.7,2.2,5.2,3.6,7.7c0.9,1.6,2,4.5,3.8,5.2c0.9,0.4,2,0.2,3,0.1c5.2-0.4,10.5,1.2,15.6,0.1
		c3.3-0.7,5.8-2.7,8.3-4.9c0.3-0.3,0.6-0.6,0.9-0.9c0.6-0.7,1.2-1.4,1.7-2.1c0.1-0.1,0.2-0.3,0.3-0.4c0-0.3,0-0.6,0-0.9c0,0,0,0,0,0
		c0-0.1,0-0.3,0-0.4c0,0,0-0.1,0-0.1c0-0.2,0-0.4,0-0.6c0-0.1,0-0.2,0-0.3c0-0.1,0-0.2,0-0.3c0-0.1,0-0.3,0-0.4c0-0.1,0-0.2,0-0.3
		c0-0.1,0-0.3,0-0.4c0-0.1,0-0.1,0-0.2c0-0.2,0-0.4,0.1-0.5c0,0,0-0.1,0-0.1c0-0.2,0.1-0.3,0.1-0.5c0-0.1,0-0.1,0-0.2
		c0-0.2,0.1-0.4,0.1-0.6c0,0,0,0,0,0c0-0.2,0.1-0.4,0.1-0.6c0-0.1,0-0.1,0-0.2c0.1-0.2,0.1-0.4,0.2-0.6c0.7-2,1.8-3.8,2.9-5.6
		c0.2-0.9,0.4-1.7,0.6-2.6c0.2-0.7,0.3-1.5,0.4-2.2c0,0,0,0,0,0.1c0,0,0,0,0-0.1c0,0,0-0.1,0-0.1c0,0,0,0.1,0,0.1
		c0-0.2,0.1-0.4,0.1-0.6c0-0.1,0-0.2,0.1-0.3c0-0.1,0-0.2,0-0.3c0-0.4-0.1-0.9-0.2-1.3c0,0,0-0.1,0-0.1c-0.1-0.2-0.1-0.5-0.2-0.7
		c-0.1-0.4-0.2-0.8-0.3-1.2c0,0,0,0,0,0c0.7-1.4,1.4-2.7,2.3-3.9c0.8-1.1,1.7-2.1,2.7-3c0.5-0.4,1.1-0.9,1.6-1.2
		c0.3-0.2,0.6-0.4,0.9-0.5c0.3-0.2,0.6-0.3,0.9-0.5c3.8-1.8,7.8-1.8,11.8-0.7c0.1,0,0.9,0.2,0.9,0.2l-0.8-0.6l-1.5-1.1l-0.8-0.6
		c-0.6-0.4-1.1-0.8-1.7-1.2c-2.3-1.6-4.7-3-7.3-4c-1.3-0.5-2.7-0.8-4.1-1c-0.6-0.1-1.3-0.1-1.9-0.1c0.1-0.1,0.1-0.2,0.2-0.3
		c0.4-0.5,0.9-1,1.4-1.5c0.1-0.1,0.3-0.3,0.4-0.4c0,0,0,0,0.1-0.1c0.4-0.4,0.8-0.8,1.3-1.1c0,0,0.1-0.1,0.1-0.1c0,0,0,0.1,0,0.1
		c7.6-5.9,17.8-3.3,24.2,3.1c5.3,5.2,8.3,12.2,11.4,18.9c0.3,0.7,0.6,1.3,1.2,1.8c1.4,1.1,3.5,0.5,5.2,0.9c0,0,0,0,0,0
		C346.2,653.1,328.9,636.8,309.6,628.5z M301.8,624.7c0,0,0.1,0.1,0.1,0.1c0,0,0,0,0,0C301.9,624.8,301.9,624.8,301.8,624.7z"/>
</g>
<g>
	<path class="st4" d="M768.5,254.2c-0.5-3.3-1.8-6.3-3-9.4c-1.8-4.5-2.3-9.2-1.8-14c0.3-3.1,0.6-6.1,1.3-9.1
		c1.4-6.2,1.5-12.3,0.2-18.5c-0.9-4.6-1.3-9.3-3.2-13.6c-2-4.8-3.8-9.7-5.3-14.6c-0.9-2.8-2.3-5.3-4.2-7.6c-1.6-1.9-3.2-3.8-4.7-5.8
		c-2.9-3.9-6.3-7.3-10.2-10.2c-2.2-1.6-4.4-3.2-6.6-4.7c-2.5-1.7-5-3.3-7.4-5.1c-5-4-10.3-7.4-15.7-10.8c-2-1.3-4-2.6-6.1-4
		c-4.3-2.8-8.3-6-12-9.6c-0.3-0.3-0.6-0.8-1.2-0.8c-0.2,0.4,0,0.9,0.1,1.3c1,3.8,2.1,7.5,2.8,11.3c0.8,4.3,3.1,7.5,6.4,10.1
		c0.9,0.7,1.8,1.5,2.8,2.1c5.9,4,11.8,8.2,17.7,12.2c8.6,5.8,15.9,12.9,20.2,22.6c0.2,0.5,0.5,0.9,0.7,1.3c2.4,3.5,3.9,7.4,5.3,11.3
		c1.1,3.3,1.8,6.6,1.6,10.1c-0.1,1.7,0,3.3,0.4,5c0.6,2.3,0.9,4.6,1,6.9c0.1,1.1-0.1,2.2-0.5,3.2c-0.1,0.4-0.4,0.6-0.8,0.6
		c-0.4,0-0.6-0.4-0.6-0.8c0-0.5,0-1,0-1.5c-0.1-0.8,0.1-1.7-0.6-2.3c-0.7-0.6-0.6-1.2-0.7-2c-0.4-4.6-2-8.7-5-12.2
		c-2.2-2.7-5-4.9-7.6-7.2c-0.4-0.3-0.8-0.7-1.5-0.1c1.3,2.7,2.5,5.4,3.8,8c1.9,3.7,3,7.6,3.6,11.7c0.7,4.4,0.7,8.9,1.8,13.3
		c1,4.3,1.4,8.7,1.3,13.1c-0.1,14.6-3,28.8-6.7,42.8c-0.3,1.2-0.7,2.4-0.9,3.6c-0.7,5-2,9.9-4.1,14.5c-0.6,1.4-1.3,2.8-2.3,4
		c-0.6,0.7-1.3,1.4-2.2,1.8c-1.4,0.6-2.8,0.3-3.9-0.6c-1.1-0.8-0.7-1.9-0.5-3c0.3-1.2,0.6-2.4,0.8-3.6c0.8-4.3,0.8-8.6,1-12.9
		c0.6-13.1-1.5-25.7-6.4-37.8c-0.1-0.3-0.2-0.7-0.6-0.9c-0.6,0.2-0.8,0.8-1,1.4c-2.9,6.3-4.6,12.8-3.6,19.8c0.2,1.4,0.3,2.9,0.6,4.4
		c1.8,11.2,1.7,22.4-0.4,33.6c-1.7,9.2-3.5,18.4-4.4,27.7c-0.8,8-1,16.1,0.2,24.1c1.2,7.9,2.9,15.7,5,23.4c0.3,1.3,0.9,2.5,1.3,3.7
		c1.3,3.4,3.6,6.1,5.9,8.9c2.1,2.6,4.2,5,7.5,6.1c1.2,0.4,1.3,1.7,0.3,2.6c-0.4,0.3-0.9,0.7-1.4,0.6c-3-0.2-6,0.7-8.9-0.1
		c-2.1-0.5-4.1-1.1-6.1-1.8c-3.3-1.2-6.6-2.4-10-3.4c-3.8-1.2-7.2-3.2-10.2-5.8c-2.7-2.4-5.4-4.7-8.2-7c-7.2-6-12.8-13.2-16.4-21.9
		c-5.1-12.2-7.6-24.8-8.1-38c0-0.7,0.1-1.4-0.2-2.1c-0.5,0.1-0.6,0.4-0.7,0.7c-1.1,2.5-2.3,4.9-4,7.1c-4.3,5.6-8.5,11.2-13.6,16
		c-2.1,1.9-4,4.1-6,6.1c-0.5,0.5-1,1.1-0.8,1.9c0.7,2.6,1.1,5.3,2.6,7.6c3.4,5.4,7,10.7,10.8,15.7c3.9,5,7.7,10.2,13,13.8
		c0.3,0.2,0.6,0.5,0.8,0.8c0.9,1.4,2.2,2.3,3.5,3.3c3.2,2.4,6.4,4.8,9.6,7.3c7.8,6.2,16.2,11.3,25,15.8c4.7,2.4,9.7,4,15,4.9
		c2.4,0.4,4.6,0.3,6.6-1.3c0.7-0.6,1.6-1,2.4-1.5c5.1-2.8,8.9-7.1,12.9-11.2c0.5-0.5,0.9-1.1,1.3-1.8c2.8-4.6,5.2-9.5,6.7-14.7
		c0.5-1.6,0.8-3.1,0.6-4.8c-0.7-7.3-0.8-14.6-4.3-21.3c-0.2-0.4-0.3-1-0.5-1.4c-0.2-0.4-0.2-0.9-0.7-1.2c-0.4,0.4-0.3,0.8-0.3,1.2
		c0.1,4.4,0.3,8.8,1,13.1c0.1,0.7,0.3,1.5,0.3,2.2c0,2.3-2.1,3.5-4.1,2.4c-1.1-0.6-1.8-1.5-2.4-2.5c-0.9-1.5-1.5-3.2-2-4.9
		c-1.8-6.1-2.6-12.3-3.6-18.5c-2-12.7,1.3-23.9,9.7-33.6c2.1-2.4,4.2-4.9,6.6-7c3.9-3.5,7.1-7.6,9.4-12.3c0.6-1.2,1.4-2.4,2.1-3.6
		c4.7-7.4,8.6-15.3,12.2-23.3C768.9,267.2,769.5,260.8,768.5,254.2z"/>
	<path class="st4" d="M620.3,63.7c5.6,6.3,10.1,13.3,12.9,21.2c1.4,3.9,2.6,7.8,3.8,11.7c3,9.4,6.5,18.6,11.8,27
		c3.4,5.3,6.1,11,8.5,16.8c3.6,8.7,6.2,17.7,8.7,26.7c2.9,10.5,4.4,21.3,4.4,32.3c0,4.8-0.7,9.6-0.9,14.4c-0.5,9-3.2,17.4-6.4,25.6
		c-0.6,1.6-0.9,3.1-0.7,4.7c0.1,0.9,0.2,1.9,0.2,2.8c-0.1,2.4,0.9,4.3,2,6.4c0.8-0.4,1-1.1,1.4-1.7c5.6-8.9,10.8-18.1,18-25.9
		c2.5-2.7,4.2-6,5.6-9.4c2-5,3.2-10.2,4.1-15.4c2.2-12.9,2.3-25.8-1.4-38.5c-0.8-2.6-1.9-4.8-3.6-6.9c-4.7-5.8-9.3-11.7-13.3-18
		c-6.8-10.4-8.3-21.8-7.1-33.9c0.4-4.1,1.8-8,2.2-12.1c0.2-2.4,0.7-4.8,1.5-7.1c0.3-0.8,0.2-1.4-0.3-2c-3.7-5-7.6-9.9-13.1-13.1
		c-2-1.1-3.8-2.4-5.8-3.6c-3.4-2-7.1-3.4-11-4.2c-5.7-1.2-11.3-2.4-16.9-3.6c-4-0.8-8-1.3-12.1-1.7c0,0.1-0.1,0.3-0.1,0.4
		c0.6,0.5,1.2,1,1.9,1.5C616.5,59.8,618.5,61.6,620.3,63.7z"/>
	<path class="st4" d="M345.1,342.7c-1.2,0.4-1.5-0.4-1.7-1.4c-0.9-4-2.2-7.9-3.3-11.8c-2.6-9.2-5.2-18.5-6.6-28
		c-1.3-8.4-3.5-16.6-7.1-24.4c-2.5-5.6-5.4-11-8.6-16.3c-0.2-0.4-0.3-1-1.1-1.1c-0.3,1.6-0.1,3.1,0.7,4.6c2.4,4.5,4.1,9.2,5.4,14.1
		c0.7,2.8,1.1,5.6,2.1,8.3c4,11,6.5,22.3,7.7,33.9c0.7,6.6,1.3,13.1,1.1,19.7c-0.1,3.7-0.8,7.3-2.2,10.7c-0.6,1.6-1.5,3-2.8,4.2
		c-2.4,2-5.7,1.6-7.5-1c-0.7-1-1.1-2.1-1.4-3.2c-1.8-6.3-3.6-12.5-4.6-19c-0.1-0.4,0.1-1.1-0.7-1.2c-0.7,1.4-0.9,2.9-0.8,4.5
		c0.2,4.5,0,9.1-0.9,13.5c-2.5,12.4-7,24-13.4,34.9c-0.8,1.4-1.7,2.7-2.8,4c-1.1,1.2-2.2,2.3-3.7,3c-4,1.9-8.2,0.2-9.6-4
		c-0.4-1.3-0.6-2.6-0.6-3.9c0-2.3,0.1-4.7,0.1-7c-0.1-5.7,1.1-11.1,3.5-16.1c1.6-3.2,2.2-6.6,2.2-10.2c0-3.9-0.3-7.7-1.5-11.5
		c-0.7-2.2-1.4-4.5-2.1-6.7c-1.7-5.4-4.2-10.3-8.1-14.4c-1.2-1.3-2.3-2.7-3.4-4c-2.4-2.8-4.7-5.6-6.6-8.8c-2.6-4.3-5.2-8.6-7.8-12.9
		c-1.4-2.4-2.6-4.9-3.5-7.5c-1.1-3-2.1-6.1-2.9-9.2c-0.4-1.4-0.9-2.8-1.6-4.1c-4.4-7.9-5.8-16.5-5-25.4c0.1-1.7,0.3-3.5,0.9-5.2
		c0.4-1.2,1.2-2,2.5-2.1c1.4-0.2,2.4,0.4,3.1,1.6c0.3,0.6,0.6,1.3,0.8,2c1.2,3.2,2.9,6.2,5.1,8.9c2.4,2.8,5.5,4.1,9,4.7
		c1.1,0.2,2.2,0,3.2-0.4c3.7-1.6,6.6-3.9,8.3-7.7c0.8-1.9,1.6-3.8,2.9-5.4c0.5-0.7,0.4-1.3,0.2-2.1c-0.7-2.2-1.7-4.2-2.9-6.2
		c-1.1-2-2.3-4-2.8-6.2c-0.4-1.5-1.2-2.5-2.4-3.5c-0.9-0.7-1.3-0.8-2.2,0c-3.9,3.6-9.5,2.1-11.3-3.3c-0.6-1.8-0.7-3.6-0.6-5.4
		c0.2-4.4,1.5-8.5,3-12.5c2.2-5.7,5.2-10.9,8.2-16.3c3.2-5.6,7.6-10.2,12.2-14.6c0.4-0.3,0.8-0.6,1.2-0.9c1.7-0.9,3.4-1,5,0.2
		c1.7,1.2,2.2,2.9,1.8,4.8c-0.2,1.1-0.8,2.1-1.2,3c-0.7,1.5-1.8,3-1.9,4.6c0,2.4-0.4,4.6-1.1,6.9c-0.2,0.6-0.1,1.1,0.4,1.6
		c2.2,1.7,3.2,4.1,4,6.7c1.9,6.7,5,13.1,6.3,20.1c0.1,0.3,0,0.9,0.7,0.8c0-0.3,0-0.5,0-0.7c-1.5-9.3-1.2-18.5,0.4-27.7
		c1.4-8.1,3.7-16,6.1-23.8c1.1-3.4,1.6-6.8,1.4-10.4c-0.2-7.2-0.3-14.5-0.4-21.7c-0.1-3.9,0.2-7.8,0.7-11.6
		c0.6-4.8,1.2-9.6,2.2-14.4c-0.9,0.7-1.1,1.6-1.4,2.4c-2.6,5.9-6.6,10.5-12,13.9c-1.7,1.1-3.5,2.2-5.2,3.2c-1.3,0.8-2.3,1.7-3.2,2.9
		c-2.9,4-5.3,8.2-7.4,12.7c-2.1,4.6-4.2,9.2-6.4,13.7c-2.3,4.6-4.2,9.3-5.7,14.2c-4.2,13.6-11.7,24.8-23.7,32.7
		c-1.1,0.7-2.2,1.5-3.2,2.3c-7.7,6.1-12.5,14-14.3,23.7c-1.7,9.7-0.9,19.4,0.8,29c2.1,12.1,7.7,22.8,15.4,32.4
		c0.9,1.1,1.8,2,3.2,2.6c1.3,0.5,2.3,1.5,3.4,2.4c5.7,5.1,9.7,11.3,12.4,18.4c2.4,6.3,3.4,12.9,4,19.5c0.6,7.4,0.7,14.9,1,22.4
		c0.3,8.4,0.3,16.8,0.8,25.2c0.3,4.3,1,8.5,2.2,12.7c1.2,4.1,3.8,7,7.4,9.1c3.2,1.9,6.5,2.8,10.3,1.9c3.8-0.9,7.6-1.6,11.3-2.6
		c6.3-1.8,12.5-4.1,17.9-8c9.1-6.7,15.8-15.5,21.7-25.1c1.4-2.2,2.5-4.7,2.8-7.3c0.4-3.5,1.4-6.9,2.7-10.2c0.8-2.1,1.6-4.2,2.1-6.5
		c0.2-1.1,0.4-2.2,0.3-3.3C346.1,342.9,345.9,342.4,345.1,342.7z"/>
	<path class="st4" d="M375.6,65.1c-3.9,1.3-7.5,2.4-11,3.7c-10.5,4-20.2,9.3-28.5,16.9c-3.7,3.3-6.4,7.2-8.4,11.6
		c-1.3,2.8-2.1,5.8-3.2,8.6c-2.9,7.5-4.3,15.3-5.1,23.3c-0.9,8.3-0.8,16.7-0.6,25c0.3,8.8-0.5,17.6-3,26c-1.9,6.2-3.9,12.3-6.1,18.3
		c-1.2,3.3-1.9,6.7-2.3,10.2c-0.2,2.2,0,4.4-0.7,6.5c-0.2,0.5,0,1,0.6,1.3c0.7,0.3,1.1,0.8,1.3,1.6c0.8,3.8,2.2,7.3,4.2,10.5
		c1.1,1.8,1.8,3.8,2.6,5.8c0.4,1.2,0.8,2.3,1.4,3.4c4.1,7.8,8.3,15.6,13.1,23.1c0.4,0.7,0.7,1.4,1.7,2.1c0.1-0.8,0.2-1.2,0.2-1.6
		c0.7-8.5,2.1-17,4.5-25.2c0.8-2.8,0.9-5.8,0.7-8.7c-0.5-5.2-0.9-10.3-1-15.5c0-5-0.3-10.1-1.3-15.1c-0.3-1.6-0.4-3.3-0.5-5
		c-0.5-8.9,1-17.5,4.5-25.7c2-4.8,3.8-9.7,4.5-14.9c0.5-3.7,1-7.4,1.5-11.1c0.9-7.5,2.2-14.9,4.6-22.1c0.4-1.3,0.8-2.7,1.1-4
		c2.5-11.7,5.8-23.1,12.5-33.2c0.3-0.4,0.5-0.9,0.8-1.3c2.8-5.1,6.4-9.6,11-13.2C375,66.2,375.5,66,375.6,65.1z"/>
	<path class="st4" d="M468,416.5c1.5-1.3,3.2-2.3,5.1-3c1.6-0.6,3.5-0.6,5-1.5c0.5-0.3,1,0,1.4,0.3c2.1,1.3,4.3,2.5,5.8,4.5
		c0.7,1,1.8,1.4,3,1.5c5.2,0.8,9.7-0.6,13.5-4.1c1.6-1.5,3.2-3,5.4-3.7c0.6-0.2,0.9-0.5,0.8-1.1c-0.5-2.4,0.2-4.8,0.2-7.2
		c0-1.5-0.6-2.6-1.7-3.7c-0.3,0.4-0.4,0.6-0.6,0.8c-2.1,3.7-5.2,6.5-9.1,8c-6,2.3-12.4,2.9-18.7,1.3c-2.7-0.7-5.4-1.3-8.1-1.7
		c-1.7-0.2-3.3-0.5-5-0.9c-3.2-0.7-3.2-0.8-2.2-3.9c0.9-2.7,1.9-5.3,2.9-8.3c-0.5,0.3-0.7,0.3-0.8,0.5c-3.9,4.5-5.5,9.9-6.6,15.6
		c-0.2,0.9,0.1,1.8,0.8,2.4c1.6,1.7,3.2,3.4,5.4,4.5C465.9,417.3,466.8,417.5,468,416.5z"/>
	<path class="st4" d="M554.9,179.3c3.2-0.3,5.2-2.3,6.6-4.9c2.4-4.7,5.9-8.5,9.1-12.6c2.8-3.5,6.4-5.5,10.7-6.4
		c1.4-0.3,2.7-0.6,4.1-0.8c4.1-0.6,7.8,0.2,11.1,2.8c3,2.4,4.8,5.5,6.4,8.8c2.3,5,5.2,9.6,9,13.6c1.5,1.6,2.7,2.5,4.8,1.3
		c0-0.2,0-0.3-0.1-0.5c-3.7-6.8-6.7-13.9-8.4-21.6c-2-8.7-7.8-12.6-15.7-13.5c-8.5-1-16,2-21.8,8.6c-3,3.3-5.4,7.1-7.5,11.1
		c-2.3,4.2-5,8.1-8.8,11.1c-0.3,0.2-0.5,0.5-0.8,0.7c-0.5,0.4-0.7,0.9-0.3,1.5C553.8,179.2,554.2,179.3,554.9,179.3z"/>
	<path class="st4" d="M616.3,190c-3.4,0.2-6.8,1.3-9.5,3.6c-2.3,1.9-4.8,3.7-7.2,5.4c-5.6,3.8-11.4,4.3-17.3,1
		c-0.6-0.3-1.1-0.9-1.7-0.9c-1.1,0-1.7-0.6-2.4-1.3c-2.6-2.3-5.3-4.4-8.1-6.4c-0.9-0.6-1.9-1.3-3.5-1.8c3,4.6,4.6,9.4,7.1,13.8
		c1.4,2.5,3.3,4.4,5.8,5.8c2,1.2,4.1,2.2,6.3,3.1c3.9,1.6,7.7,1.5,11.3-0.7c3-1.8,5.8-3.9,8.5-6.1c4.4-3.8,9.2-7,14.7-9
		c1.1-0.4,2.1-1,2.8-2c0.3-0.4,0.5-0.8,0.1-1.2C621.4,191.3,619,189.8,616.3,190z"/>
	<path class="st4" d="M381.4,178.4c0.6-1.3,1.1-2.6,1.4-3.9c0.8-3.4,2.2-6.6,3.5-9.9c2-4.9,5.4-8.5,9.5-11.5
		c1.1-0.8,2.3-1.3,3.5-1.8c7.7-2.6,16,1,19.5,8.3c1.9,4,3.8,7.9,6.8,11.2c0.8,0.8,1.6,1.8,2.7,1.6c1.8-0.4,3.6-0.4,5.5-0.5
		c0-1.4-0.6-2.3-1.7-2.9c-0.9-0.5-1.8-1-2.7-1.4c-3.3-1.6-5.6-4.1-6.8-7.7c-0.9-2.8-2-5.5-3-8.2c-1.2-3.3-3.4-5.6-6.5-7.1
		c-4.4-2.2-9-2.2-13.5-0.7c-11.3,3.7-17.4,12.1-20,23.3c-0.7,2.8-1.1,5.7-1.6,8.6c-0.3,2-0.6,4-0.9,6.1
		C380,180.9,380.5,180.6,381.4,178.4z"/>
	<path class="st4" d="M590.4,492.9c-0.3,0.3-0.4,0.3-0.4,0.3c-0.1,0.3-0.3,0.7-0.4,1c-3,8.2-8.5,13.6-17.3,15.5
		c-2.8,0.6-5.6,1.2-8.2,2.5c-2.4,1.1-4.9,1-7.2-0.3c-4.4-2.5-7.7-6-9-11.1c-1.3-5.1-1.4-10.3-1-15.5c0.1-0.8,0.1-1.6-0.2-2.4
		c-0.8-2.1-1.5-4.1-2.2-6.2c-0.5-1.4-1.2-2.5-2.5-3.2c-1.7-1-2.6-2.5-3.3-4.3c-1-2.8-1.7-5.6-1.9-8.5c-0.4-5-0.6-9.9-1.3-14.9
		c-0.3-2.7-0.8-5.4-0.3-8.1c0.4-2.3,0.3-4.5,0.1-6.8c-0.5-7.1-1.5-14.1-2.9-21.1c-2-9.5-4.2-19-8.1-28c-0.1-0.2-0.1-0.4-0.1-0.6
		c0.5-0.3,0.8,0.3,1.3,0c0-0.9-0.5-1.8-0.8-2.6c-3.4-7.5-7.4-14.6-13.2-20.6c-2.8-2.9-4.3-6.5-4.9-10.3c-0.5-3.1-1.8-5.7-4-7.8
		c-3.6-3.4-4.7-7.7-3.8-12.4c0.4-2.1,0.9-4.1,1.4-6.6c-1.6,0.8-3.1,1.3-2.9,3.3c0,0.5-0.4,1.1-0.6,1.6c-2.4,6.2-4.5,12.5-5.1,19.2
		c-0.1,1.6,0.1,3,0.7,4.5c2,5,5.1,9.4,7.9,13.9c1.6,2.6,3.4,4.7,6.6,5.3c0.4,0.1,0.7,0.2,1,0.4c4.9,2.8,8.9,6.4,10.3,12.1
		c0.5,2.1,1.2,4.1,1.8,6.1c1.1,3.7,2,7.3,2.2,11.2c0.1,1.1,0.3,2.2,0.5,3.2c0.7,2.7,1.3,5.4,1.9,8.1c0.4,1.5,0.4,3,0.1,4.6
		c-0.4,1.9-0.9,3.9-1.1,5.8c-0.7,6.7-0.5,13.4-0.1,20.2c0.4,7.4,1.3,14.7,1.9,22.1c0.5,5.7,1.4,11.2,4.1,16.3
		c0.8,1.5,1.2,3.1,1.2,4.8c0.1,5.2,1.5,10,4.2,14.4c2.3,3.9,4.9,7.6,7.9,11.1c3.6,4.1,7.7,7.6,13,9.4c2,0.7,4,1,6,0.9
		c2.2-0.1,4-0.9,5.4-2.5c0.7-0.8,1.4-1.5,2.2-2.1c0.7-0.5,1.4-0.8,2.2-0.7c4.7,0.5,8.4-2,11.7-4.6c3.7-2.8,6.1-6.8,6.8-11.6
		C590.7,496.3,590.8,494.7,590.4,492.9z"/>
	<path class="st4" d="M396.2,275.4c0.1-1.2,0.1-2.5,0.2-3.7c0.1-2.4,0.2-4.8,0.6-7.2c0.6-4,1.3-8,3.4-11.5c1.4-2.3,1.9-4.6,1.8-7.3
		c-0.3-8,1.9-15.3,6-22.1c1.1-1.9,2.3-3.7,4.6-4.6c-0.8-0.6-1.4-0.1-2,0.2c-1.9,1-3.4,2.5-4.9,4c-2.3,2.5-4.5,5-6.9,7.3
		c-2.9,2.8-6.1,3.8-10,2.2c-2.7-1.1-5.2,0.4-6,3.3c-0.1,0.3-0.2,0.7-0.4,1c-0.9,1.1-0.6,2.2-0.2,3.3c1.8,5.6,3.4,11.3,5.1,17
		c1.7,5.9,4.3,11.5,7.5,16.7C395.1,274.7,395.3,275.4,396.2,275.4z"/>
	<path class="st4" d="M607.7,234.6c-3-0.2-5.4,1-7.4,3.1c-1.6,1.6-3.1,3.3-4.8,4.8c-3.8,3.5-7.8,3.6-11.9,0.6
		c-1.8-1.3-3.3-2.8-4.8-4.5c-4.6-5.5-9.2-11-12.1-17.7c-0.5-1.1-1.2-2-1.8-3c-0.2-0.3-0.4-0.8-0.9-0.8c-0.2,0.3,0,0.6,0.1,0.8
		c2.3,5.4,4.6,10.7,6.4,16.3c0.2,0.6,0.5,1.2,0.8,1.8c1.9,3.8,3.8,7.6,5.7,11.3c0.8,1.6,1.6,3.1,2.8,4.5c2.3,2.7,5.1,4.1,8.7,3.3
		c2.4-0.5,4.8-1.1,7.1-2.1c2.7-1.1,5.4-1.9,8.3-1.8c1.6,0.1,2.8-0.7,3.6-2.1c0.4-0.6,0.7-1.3,1-1.9c1.6-3.9,3.4-7.6,5.9-10.9
		c1.1-1.5,2.1-3.3,2.6-5.6c-1.3,0.8-2.3,1.4-3.2,2C612,233.9,609.9,234.8,607.7,234.6z"/>
	<path class="st4" d="M385.2,202.9c1.7,2.5,4,4.4,6.9,5.5c1.9,0.7,3.9,1.2,5.9,1.5c2.7,0.4,5.2-0.1,7.6-1.4c2-1,3.6-2.4,5.3-3.9
		c4.8-4.4,7.9-10.1,12.6-14.7c-2.6,1.5-5.2,2.9-7.3,5.1c-1.3,1.4-2.8,2.5-4.5,3.5c-3.3,1.8-6.8,3-10.5,3.8c-3.3,0.7-6.4,0.7-9.4-1.5
		c-2.5-1.9-4.8-3.8-6.2-6.6c-0.4-0.7-0.6-1.6-1.2-2.1c-1.7-1.3-3.5-2.3-5.6-2.9c-0.4-0.1-0.9-0.1-1.2,0.2c-0.8,0.7-1.9,1.1-2.5,2.2
		c3.9,1.9,6.2,5.2,8.4,8.6C384,201.1,384.6,202,385.2,202.9z"/>
	<path class="st4" d="M458.6,473.2c-0.6-0.3-0.6-1.1-0.7-1.8c-0.1-1.3-0.3-2.6-0.4-3.9c-0.2-2.3-0.5-4.5-1.1-7
		c-1.3,2.3-1.4,2.7-1.2,4.6c0.5,3.8,0.4,7.6-0.4,11.3c-0.7,2.9-1.7,5.6-2.7,8.3c-1.8,4.8-3.6,9.6-4.3,14.7c-0.6,4.7-1,9.4-1.9,14.1
		c0,0.2,0.1,0.3,0.4,0.2c0.8-0.3,1.4-1,2-1.7c2.4-2.6,4.5-5.4,6.3-8.4c1-1.6,1.7-3.3,2.1-5.1c1.7-7.4,3-14.9,3.1-22.5
		C459.8,474.9,459.8,473.9,458.6,473.2z"/>
	<path class="st4" d="M542.7,322.2c-2.2,6.4-4.8,12.5-10.9,16.2c-1.2,0.7-2.2,1.7-2.9,2.9c-1.2,2-1.1,3.9,0.4,5.7
		c1.1,1.4,2.6,2.4,4.3,3c0.6,0.2,1.3,0.4,1.8,0.7c2.1,1,3,2.7,2.5,5c-0.4,2.1,0.1,2.9,2.1,3.5c2.7,0.8,3.2,1.6,3,4.5
		c-0.1,1,0,2,0.3,3c0.8,3,2.5,5.2,5.3,6.7c2.6,1.4,5.4,2.6,8.2,3.7c3,1.2,5.1,3.3,6.3,6.3c1.1,2.7,1.7,5.4,1.7,8.3
		c-0.1,9.2-3.6,17.1-9,24.3c-0.7,0.9-1.7,1.4-2.9,1.4c-2.9,0.1-3.8,0.7-4.6,3.5c-0.8,2.8-0.9,5.6-0.5,8.5c0.4,2.8,1,5.6,1.8,8.4
		c1.1,3.6,2.2,7.3,2.7,11.1c0.4,2.4,1.3,4.6,2.6,6.7c1.6,2.4,3.1,4.8,4.7,7.2c2.3,3.5,3.8,7.4,4.7,11.5c1.1,4.9,1.6,9.8,1.6,14.8
		c0,2.2,0,4.4,0,6.7c0.5-0.1,0.7-0.1,0.8-0.1c0.2-0.1,0.4-0.2,0.6-0.4c5.3-4,7.2-9.4,6.4-15.8c-0.3-2.7-1.3-5.2-2.1-7.8
		c-1-3.1-1-6.2-0.6-9.3c0.6-3.9,1.7-7.7,2.9-11.5c1.1-3.9,1.1-7.4-0.9-11.2c-3.3-6.2-2.4-12.3,1.4-18.1c0.7-1.1,1.5-2.2,2.4-3.1
		c1.9-1.9,2.9-4.2,3.2-6.8c0.3-2.5,0.7-4.9,1-7.4c0.5-4.1,0-8.2-1.4-12.1c-0.3-0.9-0.7-1.7-1.3-2.5c-2.1-3-2-4.7,0.6-7.3
		c1.1-1.1,1.4-2.3,1.3-3.8c-0.3-5-5.7-13.1-11.6-14.1c-1.4-0.2-2.8-0.8-4-1.8c-2.2-1.8-2.4-4.4-0.6-6.6c1.5-1.8,3.5-2.5,5.8-2.5
		c3.9,0,3.9,0,4.6-3.8c0-0.2,0.1-0.4,0.1-0.6c0.8-4.4,1.3-8.9-0.5-13.2c-3.1-7.4-6-14.9-10.4-21.7c-1.3-2-1.7-4-1-6.3
		c0.5-1.6,0.7-3.3,0.7-5c0-4.9-1.3-9.5-3.7-13.8c-1-1.8-1-1.8-3.2-1.4c-0.6,0.1-1.2,0.3-1.7,0.3c-1.6,0-2.6,0.9-3.3,2.1
		c-1.2,1.9-2.1,4-2.7,6.2c-0.7,2.6-1.8,4.9-3.3,7.1c-1.7,2.5-3,5.2-3.8,8.1c-0.4,1.5-0.4,2.8,0.4,4.2
		C543.2,317.7,543.5,319.9,542.7,322.2z"/>
	<path class="st4" d="M444.3,385.6c0.9-2,1.6-4.1,2.1-6.2c0.5-2.1,1.2-4,2.6-5.8c1.5-1.9,3.1-3.6,5-5.2c1.8-1.5,3.5-3.1,4.8-5.1
		c1.6-2.2,3.1-4.4,4.6-6.7c0.4-0.6,0.6-1.3,1-1.9c1.4-2.6,0.6-5.2,0.3-7.8c-0.1-1.3-1.8-1.7-2.7-0.7c-0.4,0.4-0.6,1-0.9,1.5
		c-0.5,0.9-0.9,1.8-2,2.4c-0.4-1.7-0.4-3.4-1.1-4.7c-1.3-2.2-1-4.1,0.3-6.2c0.8-1.3,1.2-2.8,0.7-4.4c-1.6-5.3-4.7-9.4-9.2-12.4
		c-0.3-0.2-0.6-0.6-1.1-0.4c-0.2,0.3-0.2,0.5-0.1,0.7c1.6,4,1.9,8.1,1.6,12.3c-0.1,2-0.2,3.9-0.2,5.9c-0.3,10.5-4.2,19.5-11.8,26.7
		c-1.7,1.6-3,3.4-3.9,5.5c-1,2.1-1.9,4.3-2.6,6.5c-1,3-1.9,6-3.2,8.9c-1.5,3.5-1.9,7-1.6,10.7c0.1,0.9,0,1.7,1.4,1.7
		c1,0,1.7,0.8,2.2,1.7c0.7,1.1,1.2,2.2,1.5,3.4c0.2,0.8,1.2,1.1,1,2.1c-0.2,1,0.1,1.9,0.3,2.8c1.1,6.2,1.8,12.5,0.6,18.7
		c-0.8,4-2.2,7.9-3.5,11.8c-2.6,7.8-3.4,15.7-1.3,23.8c0.8,3.2,1.6,6.4,2.4,9.6c1.3,4.9,2.1,9.9,2,15c-0.3,9.4-5.8,15-13.4,17.2
		c-4.8,1.4-9.6,0.7-14.1-1.5c-0.6-0.3-1-0.8-1.9-0.8c-0.2,1.5,0.5,2.8,1.5,3.7c2.8,2.6,5.5,5.3,8.8,7.2c3.4,1.9,6.9,2.3,10.5,0.7
		c0.5-0.2,1.1-0.4,1.7-0.4c1.9,0.2,3.4-0.7,4.6-2.1c1.6-1.7,2.7-3.6,3.6-5.7c1.3-3.1,2-6.4,2.5-9.7c1.1-7.2,1.6-14.5,2.1-21.8
		c0.6-9.1,0.8-18.3,0.3-27.4c-0.6-12.4-0.9-24.8-0.7-37.3C439.2,402.7,440.7,394,444.3,385.6z"/>
	<path class="st4" d="M406.5,478.1c0.6,1.6,1.3,3.1,2.1,4.6c0.7,1.4,1.1,1.5,2.7,1.2c2.2-0.4,3.8-1.9,4.9-3.7c1.6-2.7,2-5.6,1.6-8.7
		c-0.4-2.9-1.4-5.5-2.7-8.1c-1.9-3.6-3.5-7.4-4.1-11.5c-0.2-1.3-0.5-2.7-1.6-3.5c-0.8-0.7-0.8-1.5-0.8-2.4c0.1-2.6,0.2-5.1,0.3-7.7
		c0.1-2.5,0.6-4.9,1.5-7.3c1.2-3.1,2.3-6.2,3.4-9.3c0.8-2.1,1.3-4.3,0.7-6.4c-0.4-1.4-0.2-2.7,0.3-4c1.1-3.1,1.6-6.2,1.3-9.5
		c-0.3-3.2-0.2-6.4,0.3-9.6c0.2-1.3,0.1-2.5-0.2-3.7c-0.8-3-0.7-6.1-0.1-9.1c0.6-3.1,1.6-6.1,2.6-9.1c0.9-2.9,2.2-5.6,4-8
		c1-1.3,1.6-2.8,2-4.4c1.3-5.5,2.7-10.9,4.1-16.4c0.4-1.6,0.7-3.1,0.3-4.7c-0.4-1.3-0.3-2.6-0.1-3.9c0.1-0.7,0.2-1.4-0.2-2.1
		c-1.9-3.2-3.8-6.4-6.2-9.3c-0.7-0.9-1.4-1.1-2.4-0.7c-1.3,0.6-2.7,0.5-4.1,0.3c-0.6-0.1-1.2-0.5-1.7-0.1c-0.6,0.5-0.5,0.1-0.8-0.2
		c-0.5-0.5-1.2-0.6-1.8-0.2c-0.5,0.3-0.3,0.9-0.1,1.4c0.6,2.5,1.3,5,2.2,7.4c0.4,1.2,1,2.3,1.1,3.5c0.4,3,0.8,5.9,2,8.7
		c0.4,0.8,0.3,1.8-0.5,2.4c-0.9,0.7-1.8,0.4-2.6-0.1c-1.1-0.7-1.9-1.6-2.8-2.5c-1.5-1.5-3.2-2.5-5.1-3.3c0,0.3-0.1,0.5-0.1,0.7
		c1.1,4.1,1.7,8.3,2.3,12.5c0.2,1.1,0.1,2.2-0.4,3.2c-0.3,0.6-0.7,1.3-1,1.9c-2.7,6.1-5.1,12.3-9.4,17.6c-0.3,0.4-0.5,0.9-0.8,1.3
		c-4.3,7.9-5.3,16.5-4.6,25.3c0.2,2.4,1.1,4.5,2.9,6.2c1.7,1.7,3.1,3.7,4.6,5.6c1.6,1.9,1.8,4.6,3.7,6.4c0.1,0.1,0.1,0.3,0.1,0.4
		c-0.6,2.3,0.2,4.5,0.2,6.7c0.1,7-0.7,14-1.1,21C401.8,457.6,403,468,406.5,478.1z"/>
	<path class="st4" d="M511.7,428.9c0.3-1.4-0.1-2.3-0.9-2.6c-0.9-0.4-1.6,0-2.4,1.3c-0.4,0.7-0.9,1.3-1.7,1.7
		c-4.6,2.4-9.4,3.9-14.8,2.9c-3.2-0.6-6.3-1.1-9.5-1.8c-5.1-1-10.2-1-15.1,0.7c-2.2,0.8-3.7,2.7-3.6,4.9c0.2,2.1,0.7,4,1.6,5.9
		c0.5,0.9,0.9,1.2,1.9,0.6c1.3-0.8,2.7-1.5,4-2.2c3.5-1.9,7.3-2.4,11-1.2c4.9,1.5,9.9,1.7,15.1,2.1c3-0.1,6.1-0.5,8.8-2.5
		c1.5-1.1,2.9-2.4,4.4-3.6c1-0.9,1.7-1.9,1.3-3.3C511.4,430.8,511.5,429.9,511.7,428.9z"/>
	<path class="st4" d="M449.3,219.2c1-0.1,2.1-0.3,2.9,0.5c0.8,0.8,1.5,0.6,2.4,0.4c7.4-1.5,14.9-2.7,22.6-2.1
		c5.8,0.5,11.5,1,17.3,1.6c4.7,0.4,9.3,1.5,13.6,1.6c6.3,0.3,10.2-1.7,12.1-7.4c0.3-0.9,0.4-1.3-0.4-1.7c-4.1-2.2-7.9-5-12.3-6.5
		c-8.4-3-17.2-4.7-26.1-5c-11.3-0.5-21.5,3.4-30.9,9.4c-2.5,1.6-3.6,4.8-2.9,7.9C447.8,218.8,448.3,219.3,449.3,219.2z"/>
	<path class="st4" d="M430.9,242.6c-0.5-2.4-1-4.9-0.7-7.3c0.2-1.1-0.5-1.7-1.2-1.8c-0.8-0.1-0.9,0.7-0.9,1.4c0,0.4,0.2,1-0.1,1.3
		c-1,0.9-0.9,2.2-1,3.5c-1,9.1-0.1,18,0.9,26.7c0.1,1.1,0.2,2.2,0.5,3.2c0.6,0.1,0.9-0.1,1.3-0.3c1.4-0.7,2.8-1.6,4.3-2.1
		c4.1-1.4,8.4-1.9,12.9-0.6c0.9,0.2,1.8,0.4,2.6,0.6c1,0.3,1.9,0,2.7-0.6c1.1-0.8,1.2-1.3,0.2-2.3c-0.6-0.6-1.1-1.1-1.7-1.6
		c-3.2-3.3-4.2-7.1-2.9-11.5c0.7-2.2,2-3.7,4.1-4.6c2.1-0.9,4.2-1.1,6.5-0.8c5.3,0.7,9.7,2.9,12.1,8.3c1.1,2.6,1.2,5.2,0.9,7.9
		c-0.2,2.3-0.5,4.5-0.7,6.8c-0.3,3.1-1.7,5.6-4.1,7.4c-1.6,1.2-3.3,2.2-5.2,2.7c-2.4,0.6-4.8,1.1-7.1,1.5c-3.9,0.7-7.8,0.1-11.7-0.8
		c-4.7-1.1-5.2-0.8-7.7,3.1c0,0.1-0.1,0.1-0.1,0.2c-0.6,0.7-0.6,1.3,0,2.1c2.1,2.9,4.3,5.4,7.2,7.5c7.5,5.3,15.5,9.6,23.6,13.6
		c0.7,0.4,1.5,0.5,2.3,0.5c2.2,0.1,4.4,0.1,6.5,0.7c1.1,0.3,1.6-0.1,2-1c0.6-1.4,1-2.9,1.2-4.5c1.1-7.4,1.2-14.9,1-22.6
		c-0.1-3.7-0.3-7.4-0.4-11.1c-0.1-1.7,0.2-3.3,1-4.8c0.2,3.3,0.9,6.5,1.7,9.6c0.1,0.3,0.1,0.7,0.1,1c0.4,6.1,1.6,12,3.1,17.8
		c1.2,4.7,3,9.1,4.7,13.5c0.5,1.5,1.5,2.2,3.2,2c1.3-0.1,2.7-0.2,4,0.5c0.6,0.3,0.9,0,1-0.6c0.1-0.8,0.6-1.1,1.2-1.4
		c3.4-1.3,6.5-3.2,9.6-4.9c3.9-2.2,7.7-4.7,11.3-7.4c3.5-2.6,6.5-5.9,9.7-8.9c0.4-0.4,0.9-0.7,0.8-1.4c-0.2-0.3-0.5-0.3-0.7-0.3
		c-3.7-0.1-7.3-0.8-10.9-1.5c-1.9-0.3-3.7-0.8-5.7-0.3c-3.5,0.9-7,1-10.5,1c-3.3,0-6.4-0.7-9.2-2.4c-2.1-1.4-3.4-3.3-3.3-5.9
		c0-2.2-0.1-4.5,0.4-6.8c0.8-3.6,1.2-7.3,1.5-11.1c0.3-4.7,2.7-8.1,7.2-9.7c1-0.4,2-0.9,3.1-1.2c7.3-2.2,14.6,2.2,15.8,9.6
		c0.7,4.1-0.7,7.5-3.9,10.3c-2.2,1.9-2.2,2,0.1,3.7c0.3,0.2,0.7,0.5,1.1,0.7c4.2,2.5,8.9,3.6,13.8,3.8c1.9,0.1,3.9-0.1,5.8,0.3
		c1.2,0.2,1.5-0.2,2-1c0.7-1.2,1.1-2.5,1.6-3.9c1.7-5,2.2-10.2,3-15.5c1.1-7.4-0.2-14.5-2.9-21.3c-0.1-0.2-0.2-0.4-0.6-0.3
		c-0.4,0.8-0.1,1.6-0.1,2.5c0.1,2.2-0.3,4.2-1.7,6c-0.6,0.8-0.9,1.8-1.1,2.8c-1,3.8-1.7,7.6-1.9,11.4c-0.1,2.7-0.3,5.3-0.4,8
		c0,0.7-0.1,1.3-0.3,2c-0.1,0.5-0.4,0.8-0.9,0.8c-0.5,0-0.8-0.3-0.9-0.8c-0.2-1-0.3-2-0.5-3c-0.5-4.6-0.8-9.4-1.7-14
		c-0.1-0.5,0-1.2-0.6-1.3c-1.1-0.2-1.2-1.2-1.4-2c-0.6-1.9-1.3-3.8-2.4-5.5c-1.6-2.6-3.7-4.6-6.8-5.3c-3-0.7-5.9-1.5-8.9-1.8
		c-4.7-0.4-9.3-1.8-14-2.2c-5.5-0.5-11.1-0.3-16.6-0.6c-4.9-0.3-9.8-0.3-14.7,0.3c-3.9,0.5-7.7,1.1-11.6,1.4
		c-5.5,0.4-9.3,3.2-11.9,8.1c-0.4,0.8-0.6,1.8-1.1,2.6c-1,1.8-1.5,3.8-1.4,5.9c0.2,3.7,0.4,7.4,1.9,10.9c0.2,0.6,0.3,1.1-0.1,1.6
		c-0.5,0.5-1.1,0.4-1.7,0c-0.6-0.4-1.1-0.9-1.4-1.6c-0.7-1.2-1.2-2.5-1.6-3.8C432.4,249.8,431.6,246.3,430.9,242.6z"/>
</g>
</svg>
