<?xml version="1.0" encoding="utf-8"?>
<!-- Generator: Adobe Illustrator 24.0.1, SVG Export Plug-In . SVG Version: 6.00 Build 0)  -->
<svg version="1.1" id="New_group_1_" xmlns="http://www.w3.org/2000/svg" xmlns:xlink="http://www.w3.org/1999/xlink" x="0px"
	 y="0px" viewBox="0 0 990 781.2" style="enable-background:new 0 0 990 781.2;" xml:space="preserve">
<style type="text/css">
	.st0{fill:#FFFFFF;}
	.st1{fill:#E4706A;}
	.st2{fill:#343538;}
	.st3{fill:#E2A325;}
</style>
<g>
	<path d="M251.9,752.1c-0.6,1.3-0.7,2.3-0.9,3.3c-0.6,3.5-2.6,6.1-4.8,8.7c-1.1,1.2-2.6,1.4-4.2,1c-5.1-1.3-9.5-3.8-13-7.7
		s-7-7.7-9.7-12.1c-0.9-1.4-2-2.5-3.4-3.3c-6.8-3.8-11.3-9.9-15.1-16.4c-2.7-4.7-4.2-10-4.7-15.5c-1-11.2,0.5-22,4.9-32.4
		c1.9-4.6,4.9-8.4,8.6-11.7c6.4-5.6,13.1-10.8,19.9-15.8c10.8-7.9,23-12.3,36.3-14.2c9.6-1.3,19.1-1,28.7,0.3
		c3.7,0.5,7.4,1.2,11.1,1.9c2.2,0.5,2.4,0.3,3.2-1.8c3-7.9,5.5-16,7.3-24.3s4.3-16.4,7.2-24.4c3-8.3,4.1-16.7,3.7-25.4
		c-0.4-9,0.5-17.9,1.2-26.8c1.2-15.8,5.9-30.7,11.2-45.5c2.4-6.8,5-13.5,8.2-19.9c0.6-1.2,0.9-2.4,0.1-3.6
		c-4.9-7.8-6.9-16.6-9.3-25.4c-2-7.3-2.8-14.7-2.8-22.3c0-7.3,0.3-14.5,0.5-21.8c0-1.4,0.2-2.7,0.3-4.1c0.1-2.1,0.4-4.2-0.2-6.2
		c-1.3-4.6-2.1-9.3-2.3-14.2c-0.2-3.8-0.9-7.5-1.7-11.1c-1.4-6.8-2-13.6-2.3-20.5c-0.2-5-0.6-9.9-0.7-14.8
		c-0.1-6.2,0.7-12.3,1.3-18.4c0.5-5.9,0.1-11.7-0.4-17.5c-0.7-7.2-1.7-14.5-2.3-21.7c-0.3-3,0.4-6,0.9-9c2.4-14.8,5.3-29.4,8.1-44.1
		c1.3-6.8,2.6-13.5,3.5-20.3c0.4-2.8,0.6-5.7,0.6-8.6c0.1-7,1.7-13.6,4.3-20c4.1-9.9,8.5-19.5,14.2-28.5c4.6-7.3,8.5-15,12.1-22.9
		c4.1-8.7,8.9-17,14.1-25.1c9.8-15.2,20.9-29.5,31.8-43.9c2.3-3,4.9-5.4,8-7.5c9.8-6.6,20-12.6,30.3-18.6c1.9-1.1,3.8-2.1,5.6-3.2
		c2.2-1.3,4.4-1.6,6.5,0c2,1.5,2.6,3.5,2.2,5.9c-2.7,19-5.3,38-8.3,56.9c-0.7,4.4-0.8,8.9-0.8,13.4c0,9.5,0.5,19,1,28.5
		c0.5,9.3,0.9,18.7,1.4,28c0.1,2.4-0.3,4.6-1,6.8c-1.5,4.5-3.3,8.8-5.1,13.2c-2.3,5.5-3.7,11.2-5.1,17c-0.5,2.1-0.6,4.2-0.4,6.4
		c0.3,3,0.1,6.1,0.2,9.1c0.1,2,0.4,4,1.3,5.8c0.8,1.6,1.4,1.8,2.8,0.9c6.9-4.3,14.6-6,22.4-7.4c8.8-1.6,17.7-1.9,26.5-1.4
		c8,0.5,16.1,1,23.9,3.6c2.9,1,5.7,0.9,8.6-0.5c4.5-2.2,9.3-1.7,14.1-0.6c0.6,0.1,1.2,0.3,1.8,0.5c0.8,0.3,1.4,0.1,1.8-0.7
		c5.8-11.3,11-22.8,9.2-36.1c-0.3-2.5-0.6-4.9-1.2-7.3c-2.7-9.7-2.4-19.4-0.8-29.3c1.2-7.6,2.4-15.2,3.7-22.7
		c1.2-7.1,0.9-14.2,0.1-21.3c-0.8-7.5-1.8-14.9-2.5-22.4c-0.4-4.4-0.5-8.8-0.6-13.2c-0.1-7.3-0.6-14.5-1.3-21.8
		c-0.2-2.8-0.2-5.6,0.3-8.4c0.8-4.2,3.4-6,7.6-5.1c3.1,0.7,5.8,2.3,8.4,4c6.2,4.2,11.6,9.2,16.7,14.7c8.1,8.7,15.7,18,22.7,27.6
		c7.9,10.7,13.8,22.4,17.4,35.3c1.8,6.6,3.8,13.2,6.3,19.6c3,7.6,7.2,14.6,11.2,21.7c3.7,6.5,7.4,13.1,10.4,20
		c3.3,7.5,4.9,15.4,5.5,23.5c0.5,7,1.5,14,3.5,20.8c1.9,6.2,2.6,12.5,3.3,18.9c0.7,7,1.5,14,2.2,21c0.5,5.5,1,11,1.2,16.5
		c0.2,3.9,0.4,7.8,0.3,11.7c-0.4,12.6-2.3,24.8-7.1,36.5c-1.2,3-2.7,6-4.1,9c-0.5,1.1-0.9,2.2-0.8,3.5c0.7,8-1.1,15.6-3.5,23.1
		c-2.8,8.9-6.4,17.4-10,26c-2,4.8-2.1,9.5-1.1,14.5c2.5,11.9,5.1,23.8,6.2,35.9c0.7,7.3,0.1,14.6-1.5,21.7c-0.5,2.4-0.3,4.5,1,6.6
		c6.6,10.3,10.3,21.8,13.2,33.5c1.9,7.5,3.6,15.1,4.4,22.8c0.3,2.7,1.2,4.9,3.2,6.8c1.1,1,2,2.3,2.8,3.6c4.4,7.5,9.4,14.7,13.7,22.3
		c6.8,12.1,13.2,24.5,18.9,37.2c0.9,2,1.8,3.9,2.8,5.8c4,7.6,6.6,15.7,8.6,24.1c2.1,9.3,4.3,18.5,5.8,27.9c0.3,2.1,0.6,4.3,0.8,6.4
		c0.2,1.6,0.8,2.6,2.5,3.1c13.7,4.2,25.7,11.8,37.1,20.2c1,0.8,1.9,1.7,2.7,2.7c5.4,6.8,10.6,13.7,15,21.1c1.3,2.1,2.3,4.4,3.5,6.6
		c1.6,2.9,1.8,6.1,1.4,9.3c-1.1,8.3-3.6,16.2-6.6,24c-1,2.7-2.9,5-4.6,7.3c-3.1,4.2-6.6,8-11.4,10.5c-1.5,0.8-2.5,1.9-3.4,3.3
		c-3,4.8-6.7,9-10.6,13c-3.3,3.4-7.4,5.5-12,6.7c-2.2,0.5-3.8-0.2-5.2-2c-2.3-2.9-3.8-6.1-4.4-9.7c-0.1-0.3-0.1-0.6-0.6-0.9
		c-0.9,0.2-1.4,1.1-2.1,1.7c-2.1,2-4,4.1-6.5,5.7c-3.4,2.2-7,1.4-8.9-2.2c-2-3.7-3-7.8-2.8-12c0.1-1.9-0.5-3-2-4s-3-1.8-4.6-2.5
		c-3.1-1.4-5.1-3.7-6.3-6.9c-0.1-0.2-0.2-0.5-0.2-0.7c-0.6-1.4-1.2-1.6-2.3-0.5c-1.5,1.4-2.5,3.1-3,5.1c-1,3.7-2.8,7-5.1,9.9
		c-1.1,1.5-2.4,2.7-3.9,3.9c-3.6,2.7-7.6,2-10.2-1.7c-1.6-2.4-2.8-5.1-2.9-8c-0.1-2.7-1.3-4.3-3.6-5.7c-5.4-3.1-9.8-7.4-13.3-12.5
		c-0.4-0.7-0.9-1.1-1.7-1.1c-0.7,0-1.4,0-2.2,0c-106.7,0-213.4,0-320.1,0c-0.6,0-1.3,0-1.9,0c-1,0-1.6,0.4-2.1,1.2
		c-3.5,5.2-8,9.3-13.4,12.5c-2.1,1.2-3.2,2.7-3.4,5.1c-0.3,2.8-1.2,5.5-2.6,7.9c-0.9,1.5-2,2.7-3.6,3.4c-2.2,0.9-4.3,0.9-6.3-0.6
		c-4.3-3.1-7.2-7.2-9-12.1c-0.4-1.2-0.8-2.4-1.3-3.6c-0.6-1.4-1.4-2.7-2.6-3.7c-1.1-0.9-1.6-0.7-2.2,0.5c-0.1,0.3-0.2,0.6-0.3,0.9
		c-1.1,3.2-3.2,5.5-6.3,6.9c-1.5,0.7-2.8,1.5-4.2,2.2c-1.7,0.9-2.5,2.1-2.3,4.1c0.3,3.8-0.5,7.3-1.9,10.8c-0.4,0.9-0.8,1.8-1.4,2.5
		c-2.2,2.7-4.9,3.2-7.9,1.4c-2.3-1.3-4.2-3.1-6.1-5C254,754.1,253,753.2,251.9,752.1z"/>
</g>
<g>
	<path class="st0" d="M570.2,350.5c3.2-0.8,5.4-4.2,5-7.6c-0.1-0.7-0.5-1.1-1.1-1.3c-1-0.3-2-0.7-3-1.1c-0.8-0.4-1.3-0.2-2,0.2
		c-0.8,0.6-1.4,1.3-1.6,2.3c-0.2,1.2-0.4,2.3-0.4,3.9c0,0.3,0,1.1,0.2,1.9C567.5,350.4,568.6,350.9,570.2,350.5z"/>
	<path class="st0" d="M586.3,344.7C586.3,344.6,586.3,344.6,586.3,344.7c-0.3-0.7-1.3-0.4-1.2,0.3c0.8,7-2.8,11.4-8,13.9
		c-5.9,2.9-10.9-0.5-13.8-6.3c-0.1,0-0.1-0.1-0.1-0.1c-0.6-1.3-2.5-0.6-2.3,0.7c0.3,1.6,0.9,3,1.7,4.4c3.5,5.7,10.5,8,16.7,5.4
		C586.6,360,589.7,351.6,586.3,344.7z"/>
	<path class="st0" d="M421.8,351c1.4,0.6,2.8,1,4.4,1c1,0,1.1-0.1,1-1.1c-0.4-2.9,0.7-5.4,2.2-7.8c0.3-0.5,0.8-0.9,0.9-1.7
		c-1.7-0.9-3.5-1.4-5.5-1.3c-1.9,0.1-3.2,1-4,2.7c-0.8,1.8-1.1,3.7-0.8,5.7C420.2,349.7,420.8,350.5,421.8,351z"/>
	<path class="st0" d="M436.4,353.4c-2.3,6.6-7.6,8.9-13.3,9c-6.5,0-9.6-5.2-9.6-11.8c0-0.1,0-0.1,0-0.1c0-1.4-2-1.7-2.3-0.3
		c-0.4,1.5-0.5,3.1-0.4,4.7c0.6,6.7,5.9,11.8,12.6,12.3c7.8,0.5,14.3-5.7,14.3-13.4c0-0.1,0-0.1,0-0.1
		C437.7,352.9,436.7,352.8,436.4,353.4z"/>
</g>
<g>
	<path class="st1" d="M551,630c-0.9-5-2-9.9-3.8-14.7c-3-7.9-5.4-16.1-6.5-24.6c-0.4-2.9-1.2-5.7-1.1-8.7c0.1-0.7-0.2-1.4-0.4-2.1
		c-0.1-0.5-0.5-0.7-1-0.7c-0.7,0.1-1.4,0.2-2.1,0.4c-2.4,0.4-4.7,0.9-7.2,0.7c-2.7-0.2-5.5-0.4-8.2-0.8c-3.1-0.4-6.2-1-9.3-1.4
		c-0.7-0.1-1.1,0.1-1.2,0.7c-0.5,2.4-1.6,4.5-3.3,6.3c-1.3,1.4-1.9,3-2,4.9c-0.7,8.9-1.5,17.7-0.5,26.7c0.5,4.7,0.9,9.4,1.4,14.1
		c0.7,6.4,1.8,12.7,2.7,19.1c0.3,2.1,0.5,4.2,0.2,6.4c-0.1,1.1-0.6,2-1.7,2.2c-1.1,0.3-2.3,0.3-3.2-0.8c-1-1.1-1.7-2.3-2.2-3.6
		c-0.8-2.2-1.3-4.4-1.6-6.8c-0.7-6.2-1-12.4-1.1-19.5c0.4-7.4-0.2-15.5-1-23.5c-0.2-1.5-0.3-3-0.5-4.5c-0.4-3.9-1.4-7.8-1.9-11.7
		c-0.3-2.1-1.1-3.7-2.9-4.8c-0.6-0.4-1.2-0.8-1.8-1.2c-0.5-0.4-1.1-0.6-1.4-1.2c-0.4-0.7-1-0.7-1.6-0.6c-1.9,0.1-3.8,0.4-5.6,0.4
		c-9,0.2-17.7-1.6-26.1-5c-0.6-0.2-1.1-0.5-1.7-0.7c-0.5-0.2-0.8,0.1-0.8,0.7c0.2,2,0.2,4.1,0,6.2c-0.5,5-1.1,10.1-1.9,15.1
		c-1.5,9-3.9,17.8-8,26c-0.7,1.3-0.9,2.7-0.9,4.1c0.1,3.7,0.7,7.3,1.7,10.8c1.3,4,2.9,7.8,4.5,11.7c2.8,6.7,7.1,12.4,12.1,17.6
		c2,2.2,4.4,3.8,7.1,5.1c2.1,1,4.2,2,6.3,3c7.8,3.6,16,5.6,24.5,6.3c4.8,0.4,9.7,0,14.5-0.2c2.9-0.2,5.7-0.7,8.4-1.5
		c1.8-0.5,3.3-1.5,4.6-3c2.3-2.7,4.6-5.4,6.8-8.3c1.7-2.3,3.8-4.3,6.1-6c0.8-0.6,1.7-1.3,2.6-1.9c1.5-1,2.7-2.3,3.8-3.8
		c1.7-3,3-6.3,3.7-9.7c0.2-0.8,0.4-1.6,0.9-2.2c0.1-0.1,0.1-0.2,0.2-0.2c0.5-2.7,0.7-5.6,1-8.3c-0.1-1.1-0.2-2.2-0.3-3.3
		S551.1,631,551,630z"/>
</g>
<g>
	<path class="st2" d="M441.7,594.5c-2.4,0.7-4.2-0.2-5.9-1.6c-1.1-1-2.3-2-3.4-3c-4.4-3.8-7.8-8.3-10.4-13.5
		c-1.7-3.5-3.5-7-5.1-10.6c-3.4-7.2-6.3-14.6-8.4-22.3c-0.6-2.2-1.4-4.4-2.1-6.6c-2.2-6.4-4.3-12.8-6.1-19.3c-0.2,0-0.4-0.1-0.6-0.2
		c-0.6,0-1.2-0.1-1.8-0.3c-0.2-0.1-0.4-0.1-0.6-0.2c-0.4-0.2-0.7-0.3-1-0.4c-0.4-0.1-0.8-0.2-1.1-0.4c-1.4-0.4-3.1-0.4-4.6-0.3v-0.1
		c0.1,0.2,0.1,0.3,0.1,0.5c0.8,3,1.1,6.2,1.6,9.3c0.8,5.1,1.8,10.2,3.5,15.1c2.2,6.6,4.5,13.3,6.8,20c0.8,2.3,1.8,4.5,2.9,6.6
		c2.8,5.7,6.2,11.1,9.7,16.3c1.3,1.9,2.7,3.8,4.6,5.2c2.6,2.2,4.6,4.7,5.9,7.8c1.4,3.4,3.6,6.3,6.2,9c2,2.1,4.1,3.9,6.3,5.7
		c0.1,0.1,0.1,0.1,0.2,0.1c0.3,0.1,0.5,0.2,0.8,0.4c0.1,0,0.1-0.1,0.2-0.1c1-2,3-8.5,4.4-10.7c0.2-1.4,0.4-2.8,0.5-4.2
		C444.3,595.3,443.2,594.1,441.7,594.5z"/>
	<path class="st2" d="M458.1,391.1c1.6-0.6,2.7-1.5,3.7-2.9c2.3-3.4,2.5-6.9,1.1-10.7c-1.4-3.7-3.3-7.1-5.6-10.3
		c-0.4-0.6-0.8-1.2-1.2-1.8c-0.3-0.5-0.4-1,0-1.5s1-0.6,1.7-0.2c0.7,0.3,1.2,0.7,2,1.2c-0.2-1.6-0.5-3,0-4.4
		c0.2-0.7-0.2-1.4-0.4-2.1c-0.8-2.2-1.6-4.4-2.5-6.5c-1.6-3.8-1.4-7.6-0.8-11.6c0.1-0.7,0.6-1.1,1.2-1.3c1.6-0.5,3-0.2,4.2,0.8
		c1,0.7,1.7,1.7,2.2,2.7c0.3,0.5,0.5,1.1,1.2,1.2c2.1-4.4,4.4-8.6,6.8-12.8c2.2-3.7,5.1-6.8,8.2-9.8c0.8-0.7,1.3-1.4,1.3-2.5
		c0.1-2.8,0.3-5.7,0.2-8.5c0-1.7-0.4-3.3-0.7-5c-0.3-1.6-0.7-3.1-0.8-4.7c-0.2-1.5-0.7-2.9-1.3-4.3c-1.1-2.4-2.4-4.6-3.9-6.7
		c-2.3-3-4.2-6.2-6.3-9.3c-1.1-1.6-2.2-3.3-3.2-4.9c-0.6-0.9-1-1.9-1.1-3c-0.1-1.8,1.1-3.3,2.9-3.6c1.1-0.2,2.3-0.1,3.4,0.3
		c2,0.7,3.6,1.8,5.2,3.2c3.3,3,6,6.4,8.2,10.2c1.1,2,2.2,4.1,3.2,6.2c0.4,0.8,0.9,1.4,1.8,1.9c3.9,1.8,6.5,4.9,8.1,8.8
		c1.3,3.2,1.9,6.5,2,9.9c0.2,2.6,0.2,5.3,0.1,8c-0.1,1.7,0.4,2.9,1.9,3.8c3.3,2,4.8,5.1,5,9c0.1,2.4,0.1,4.8,0.1,7.2
		c0,1.1,0,2.3,0,3.4c0.8,0.1,1-0.5,1.3-1c0.8-1.3,2.1-1.9,3.5-2.2c1.1-0.2,1.6,0.1,2,1.2c1.3,3.2,1.3,6.3-0.3,9.3
		c-1.3,2.5-2.6,5-4.7,7.1c-2.4,2.4-5.1,3.5-8.5,2.9c-1.4-0.2-2.8-0.5-4.2-0.7c-5-0.5-9.3,1-13,4.4c-2.6,2.6-4.4,5.6-5.5,9.1
		c-0.8,2.6-1.3,5.4-1.6,8.1c0,0.4-0.1,0.7,0.3,1c0.3,0.1,0.6-0.1,1-0.2c2.3-0.8,4.7-1.5,7.2-1.8c2.2-0.3,3.8-1.6,4.2-3.6
		c0.5-2.6,2.3-3.6,4.4-4.5c4.5-1.9,9.1-2.6,13.9-2.5c2.7,0.1,5.3,1,7.5,2.5c1.7,1.1,3.3,2.5,4.8,3.8c1.4,1.1,2.8,2.2,4.2,3.3
		c0.4,0.4,1,0.6,1.5,0.4c1.3-0.4,2.6-0.8,3.6-1.7c0.5-0.5,0.9-1.1,0.9-1.9s0.1-1.6,0-2.4c-0.3-5.5,0.4-10.9,1.8-16.2
		c0.1-0.5,0.2-1,0.4-1.6c0.1-0.2,0-0.4,0-0.5c-0.5-0.6-1.3-0.5-2-0.7c-3.2-0.7-5.4-2.6-6.9-5.4c-1.1-2.1-1.8-4.3-2.2-6.6
		c-0.8-4.7-0.7-9.4,1.3-13.9c0.4-0.8,0.5-1.7,0.7-2.6c0.3-1.6,0.8-3.1,1.4-4.6c0.5-1.1,1.1-2,2.1-2.7c1.4-1,2.9-0.8,4.1,0.5
		c0.8,1,1.3,2.1,1.3,3.4c0,1-0.1,2-0.1,2.9c0,2.6,0.2,5.1,0.6,7.7c0.3,1.7,1.2,3,2.5,4c1.3,1.1,2.9,1.7,4.5,2.2
		c0.7,0.2,1.4,0.1,2-0.4c1.1-0.7,2.2-1.3,3.4-1.5c2.3-0.5,4.5,0.4,5.6,2.2c1.2,1.9,1,4.1-0.5,6c-0.2,0.2-0.4,0.4-0.5,0.6
		c-1.9,1.7-2.9,4-3.6,6.5c-0.9,3.3-1.3,6.6-1.9,10c-0.7,3.8-1.4,7.5-2.2,11.3c-0.1,0.5-0.2,1.1-0.2,1.6c-0.1,1.2-0.1,2.6,0.4,3.6
		s1.8,1,2.7,1.4c1.2,0.6,2.3,0.7,3.6,0.7c2.4-0.2,4.8,0.4,7.1,1c6.2,1.6,12.4,2.9,18.6,4.1c1.9-0.1,3.8-0.4,5.6-0.7
		c5.9-1.2,11.7-3.6,16.6-7.1c8.4-5.9,14.5-15,17-25c0.6-4,1.1-8,1.1-12.1c0-3.3-1.2-6.1-3.8-8.2c-1.7-1.4-3.3-2.8-4.9-4.2
		c-1.6-1.3-3.3-2.5-5.1-3.3c-1.2-0.5-2.4-1.2-3.6-1.8c-1.3-0.7-2.6-1.3-4-1.6c-3.5-0.8-7.1-1.6-10.8-1.2c-0.2,0-0.5-0.1-1-0.2
		c1.3-2.5,2.7-4.7,5-6.3c3.3-2.4,6.8-3.2,10.6-1.4c0.5,0.2,1.1,0.5,1.7,0.8c1.5,1,3.1,1.7,4.8,2.4c2.7,1.1,5.3,2.7,7.5,4.6
		c6.5,5.6,10.8,12.6,12.7,20.9c1.3,5.5,2.2,11.1,1.1,16.7c0,0.2-0.1,0.4-0.1,0.5c-0.1,0.8,0.2,1.4,0.7,2c1.1,1.3,2.5,1.7,4.1,1.5
		c1.5-0.2,2.7-1,3.7-2s1.7-2.2,2.4-3.5c1.2-2.4,2-5,2.9-7.5c1.4-3.9,1.7-8,1.3-12.1c-0.1-0.8-0.2-1.6-0.4-2.4
		c-0.4-2.6,0.2-5,1.7-7.1c0.8-1.1,1.7-2.3,2.6-3.3c1.9-2.2,3.3-4.6,4.5-7.2c0.6-1.2,1-2.5,1.1-3.8c0.3-3.1-1.4-5.2-4.5-5.6
		c-0.5-0.1-1.1-0.1-1.6-0.1c-8.5-0.4-15.7-3.5-21.5-9.9c-3.9-4.2-7.6-8.5-10.9-13.2c-0.8-1.1-1.6-2.2-2.5-3.2
		c-4.1-4.8-7.1-10.5-10-16.1c-0.2-0.4-0.3-0.7,0.1-1c0.4,0.2,0.8,0.4,1.1,0.6c2.2,1.3,3.9,3,5.7,4.8c1.3,1.3,2.5,2.6,3.9,3.7
		c1.6,1.4,3.5,2.6,5.6,2.9c1.4,0.1,2,0.8,2.6,1.9c0.6,1,1.3,1.9,2.3,2.6s2,0.8,3,0.4c0.8-0.4,1.4-1.3,1.5-2.2
		c-0.4-0.8-0.8-1.7-1.1-2.6c-1.9-4.8-4.4-9.5-6.8-14.2c-1.7-2-3.4-4-5.4-5.8c-1-0.9-2-1.7-3.2-2.3c-3.9-1.9-7.9-3.6-12.3-4.4
		c-2-0.4-4-1-5.9-1.6c-1.5-0.5-2.6-1.3-3.2-2.9c-0.8-2-2.3-3.7-4.1-4.8c-1.3-0.8-2.1-1.8-2.9-3c-0.8-1.2-1.6-2.4-2.5-3.5
		c-1.4-2-2.6-4-3.6-6.2c-1.7-3.6-3.3-7.4-4.4-11.2c-0.9-3-1.9-6.1-2.6-9.2c-0.2,1.6-0.3,3-0.3,4.6c0,0.4,0,0.9-0.1,1.3
		c-0.8,2.9-0.5,5.6,0.4,8.4c0.1,0.4,0.4,0.8,0,1.4c-1.9-1.5-4.2-2.2-6.6-2.7c-0.8-0.2-1.7-0.5-2.5-0.9c-0.5,0.6-0.7,1.4-0.7,2.3
		c0,1.4,0.5,2.6,1,3.9c2.7,6.8,5.4,13.4,9.6,19.4c0,0.1,0.1,0.2,0.1,0.2c0.4,0.5,0.2,1-0.1,1.4c-1.3,1.6-2.5,3.3-3.7,4.9
		c-0.5,0.7-0.5,1.1,0,1.9c2.4,3,1.1,6.6-1.3,8.5c-0.5,0.4-1,0.8-1.5,1.1c-1.3,0.8-2.5,1.7-3.7,2.6c-2.4,1.7-4.5,3.8-6.1,6.3
		c-0.9,1.3-1.8,2.7-2.7,4c-1.2,1.8-2.5,3.5-3.9,5.1c-1.4,1.4-2.9,2.6-4.9,3.2c-4.5,1.3-8.7-1.6-9-6.2c-0.1-1.4,0-2.9,0.3-4.2
		c1.7-7.8,6.3-13.4,13.3-17.1c1.2-0.7,2.4-1.1,3.6-1.8c1.1-0.7,1.2-0.7,0.8-1.9c-1-3-1.2-6.1-1-9.3c0.1-1.4,0.3-2.8,0.4-4.2
		c0.1-1,0.1-2-0.2-2.9c-0.2-0.7-0.6-0.8-1.3-0.6c-1.7,0.7-3.2,1.6-4.5,2.9c-0.6,0.5-1.1,1.1-1.8,1.6c-1.8,1.3-4.1,1.3-5.7-0.1
		c-1.1-0.9-1.8-2.1-1.8-3.5c0-1.1-0.5-2-1.1-2.9c-0.2-0.4-0.4-0.8-0.7-1.1c-1.6-2.6-3.6-4.5-6.5-5.7c-2.5-0.1-5-0.2-7.4-0.2
		c-0.5,0.2-0.8,0.7-1,1.2c-0.2,0.9-0.2,1.7,0.1,2.6c0.2,0.6,0.2,2.2,0.1,2.5c0,1.6-0.1,3.4-0.2,4.4c-0.1,0.7-0.2,1.4-0.4,2.1
		c-0.7,1.7-2.4,2.6-4.1,1.2c-1.1-0.9-2.2-1.8-3.3-2.7c-1.3-1-2.6-2-4.1-2.6c-3-1.3-6.1-2.5-9.3-3.3c-1-0.2-2-0.4-2.9-0.4
		c-8-0.4-15.5,1.5-22.6,5.4c-0.7,0.4-1.4,0.8-2,1.3c-1.6,1.4-2.7,3-1.9,5.4c0.8,2.4,0.7,4.9,1,7.4c-0.7,0.1-1.3,0.2-2,0.5
		c-2.2,1.3-4.1,0.7-5.5-1.4c-0.5-0.7-0.8-1.6-1.2-2.4c-0.5-1.1-1-2.3-1.5-3.5c-0.8-2-2.2-3.6-4-4.9c-0.7-0.5-1.3-1-2-1.3
		c-1.1-0.5-1.9-1.4-2.5-2.4c-0.4-0.8-0.9-1.6-1.3-2.3c-3-5.9-5.4-12-7.1-18.5c-1.3-4.9-2.3-9.8-3.1-14.8c-0.1-0.1-0.1-0.1-0.1-0.1
		c-0.3-0.3,0.9-5.7,2.6-12.8c0.3-1.3,0.7-2.7,1-4.2c0.3-1.1,0.5-2.2,0.8-3.3c0.5-2.3,1.1-4.6,1.7-6.9c0.4-1.5,0.8-3,1.1-4.5
		c0.2-0.7,0.4-1.5,0.5-2.2c0.2-0.7,0.4-1.4,0.5-2.2c0.5-1.7,0.9-3.4,1.3-5c0.1-0.3,0.2-0.6,0.2-0.9c0.4-1.4,0.7-2.8,1-3.9
		c0.4-1.9,0.7-3.2,0.8-3.9c0.1-0.1,0.1-0.3,0.1-0.4c0-0.1,0-0.1,0-0.1c-0.2-0.8-0.4-1.6-0.5-2.4c-0.6-3.5-1.1-6.9-1.6-10.3
		c6.1-23.1,7.2-40.8,7.2-40.8c0.3-17.4,2.3-36.8,9.4-62.4V30c0-1.5-1.6-2.5-2.9-1.8c-0.7,0.4-1.6,0.8-2.5,1.3
		c-0.4,0.2-0.9,0.5-1.4,0.8c-9.3,5.2-25.8,15.8-25.8,25.2c0,5.2,3.2,6.1,6.3,8.8c0,0-0.1,0.1-0.1,0.2c4.9,4.4,9.3,13.8-1.6,53.9
		c-5.9,21.8-12.1,43.4-12.6,48.6c-0.2,2.6-2.9,10.8-5.5,18.5c-2,3.3-4.1,6.8-6.3,10.2c-2.6,3.2-5,5.7-7,6.8
		c-5.3,3.1-10.8,4.2-15.4,7c0.1,0,0.1,0.1,0.2,0.1c-2.3,1.4-4.3,3.2-6,5.8c-0.8,1.3-1.7,2.7-1.9,4.3c-0.2,1.6,0.7,3.3,2.2,3.7
		c2.8,0.7,4.3-3.1,6.6-4.8c1.9-1.4,4.4-1.3,6.7-0.7c2.2,0.6,4.3,1.7,6.6,2.3c1,0.2,2,0.4,3,0.4c-1.1,1.6-2.1,3.2-3.2,4.7
		c-1,3.7-2.4,7.2-4.2,10.6c-0.8,1.4-1.4,2.9-1.9,4.4c-1.5,4.5-3.8,8.7-6.6,12.5c-2.5,3.4-4.8,6.9-7.2,10.3c-1.6,2.3-3.3,4.7-5,6.9
		c-2.5,3.3-5.3,6.6-7.4,10.2c-0.7,1.1-1.6,2.2-2.5,3.2c-1.4,1.6-2.5,3.3-3.2,5.2c-1.6,4.1-3.5,8-4.8,12.2c-0.2,0.8-0.5,1.6-1,2.2
		c-2.4,3.8-3.2,8.1-4,12.4c-0.2,1-0.4,2.1-0.7,3.3c-0.4-0.3-0.7-0.4-0.7-0.7c-0.2-0.4-0.2-0.9-0.3-1.3c-0.4-2-0.5-3.9-1.5-5.7
		c-0.3-0.5-0.4-1.2-0.5-1.8c-0.7-4.4-1.7-8.7-2-13.2c-0.2-3-0.1-6,0.3-9.1c0.4-2.7,0.6-5.5,0.9-8.2c0.9-9,2.3-17.9,4.4-26.7
		c0.9-3.6,15.2-54.6,15.8-58.4c-1,0.7-1.5,0.8-2.5-0.5c-0.8-1.1-1.4-2.3-1.9-3.5c-1-2.6-1.7-5.3-2.1-8c-0.1-0.8-0.1-1.6-0.1-2.4
		c-0.1-0.7-0.1-3.4,0-4.3c0-0.1,0-0.1,0-0.1c0-0.1,0-0.1,0-0.2c0.1-0.6,0.1-1.3,0.2-1.9c1-6.1,2.1-12.1,3.7-18.1
		c0.5-1.7,1-3.3,1.4-5c0.5-1.7,1-3.3,1.3-5c0.5-2.3,1.1-4.6,1.7-6.9c0.4-1.1,0.7-2.3,1-3.4c0.4-1.1,0.7-2.2,1.1-3.3
		c-0.4,0.7-0.7,1.3-1.1,1.9c-0.7,1.4-1.5,2.7-2.2,4.1c-2.2,4.1-4.2,8.2-6.1,12.3c-1,2.1-1.9,4.2-2.9,6.3c-0.4,0.7-0.7,1.4-1,2.1
		c-2.2,4.9-4.1,9.9-5.8,15.1c-0.8,2.5-1.1,5-0.9,7.6c0.1,1.7,0.3,3.5,0.2,5.3c-0.2,3.2-0.2,6.4-0.1,9.6c0,1.4,0,2.9-0.1,4.3
		c-0.7,8.9-14.2,65.1-14.1,74c0.1,6.9,1.2,13.5,4.1,19.8c0.2,0.5,0.4,1,0.6,1.5c0.4,1.1,0.4,2,0,3.1c-1.7,4.5-2.5,9.3-2.7,14.2
		c-0.2,3.1-0.1,6.3,0.1,9.4c0.4,5.7,0.5,11.4,1.6,17c0.2,1,0.4,1.9,0.5,2.9c1.3-0.7,1.4-0.8,2.5,0.2c1.6,1.3,3.1,2.7,4.7,3.9
		c1,0.7,1.6,1.6,2,2.7c0.8,2.6,2,5,3.4,7.2c1.3,2,2.5,4.1,3.8,6.1c0.9,1.4,1.4,2.8,1.7,4.4l0,0c5.5-4.2,12.4-6.4,14.6-3.7
		c3.4,4.1,4.3,5.9,3.6,9.5c-0.7,3.1-6.6,13.4-8.2,16.2c-1.1,6.1-2.6,12-3.9,18.1c-0.8,3.5-2.1,6.9-2.5,10.4c-0.4,3,0.4,5.9,2.5,8.2
		c1.4,1.6,3.3,2.2,5.3,2.5c0.5,0.1,1-0.1,1.5-0.4c1.5-1,2.8-2.3,3.9-3.7c2-2.6,4-5.1,6-7.6c0.5-0.7,1.1-1.4,1.9-1.9
		c1.7-1.3,4.2-0.2,4.5,1.9c0.1,0.6,0.1,1.3,0.1,1.9c0,1.6-0.1,3.2-0.1,4.9c0,3.2,0.9,6.2,2.2,9c0.4,0.8,1,1.4,1.8,1.9
		c3,1.4,6.2,1.9,9.5,1.7c1.7-0.1,2.8-0.8,3.3-2.6c0.2-0.7,0.6-1.5,0.9-2.2c0.2-0.5,0.4-1,0.7-1.4c1.3-2,3.8-2,5.1,0
		c0.5,0.7,0.7,1.5,0.8,2.3c0.8,5,2.8,9.6,5,14.1c1.6,3.3,4,5.6,7.4,7.2c0.5,0.2,1,0.5,1.5,0.6c2.3,0.5,3.6,0,4.8-2
		c1.1-1.8,1.6-3.8,1.9-5.8c0.1-0.8,0.2-1.9,0.6-2.7l0,0l0,0c-0.4-2.6,0.3-5.2,0.8-7.7c0.7-4,1.6-8,3-11.9c0.1-0.2,0.1-0.5,0.2-0.7
		c-0.5-0.4-0.8,0-1.3,0.1c-1.3,0.4-2.6,0.7-3.9,1s-2.5-0.1-3.3-1.3c-0.8-1.2-0.5-2.5,0.2-3.5c0.8-1.3,1.7-2.5,2.7-3.6
		c2-2.3,3.7-5,5.4-7.6c1.3-1.9,1.5-4,1.9-6.1c0.1-0.5-0.2-0.8-0.7-0.8c-0.2,0-0.5,0-0.8,0.1c-2,0.7-4,0.9-6,1.3
		c-4.8,0.9-9.4,0.3-14-1.1c-4.5-1.4-8.5-3.5-12-6.8c-1.6-1.5-3.4-2.8-5.1-4.3c-5.7-5.1-9.3-11.4-11.1-18.8c-0.1-0.5-0.2-1,0.1-1.6
		c0.8,0.5,1.6,0.9,2.5,1.3c-0.1-0.4-0.3-0.7-0.4-1.1c-0.6-1.4-1.1-2.8-1.8-4.2c-0.4-0.7-0.7-1.3-1.2-1.9c-0.5-0.5-1.1-1-1.7-1.4
		c-2.5-1.8-5.4-2.9-7.8-4.8c-1.9-1.4-3.4-3.2-4.6-5.3h-0.1c-0.5,0-1,0-1.5,0.1s-1,0.3-1.4,0.5c-0.5,0.1-1,0.3-1.6,0.4
		c-0.5,0.1-1.1,0.1-1.7-0.1c-1.1-0.4-1.9-1.2-2.4-2.2s-0.8-2-0.9-3s-0.2-2.1-0.3-3.1c-0.2-4.1-0.1-8.2,0.5-12.4
		c0.1-0.4,0.1-0.7,0.2-1c-0.3-7,1.6-13.4,5.3-19.5c1.4-2.3,2.7-4.6,4.2-6.8c3.5-5.3,7.5-10,12.5-13.9c0.9-0.7,1.9-1.4,2.8-2
		c1.3-0.9,1.4-1.1,1-2.4c-1.4-4.2-1.2-8.5,0-12.7c0.7-2.6,2-5,3.5-7.2c0.6-0.9,1.1-1.9,1.4-2.9c1.6-4.7,3.9-9,6.6-13.1
		c1.2-1.8,2.2-3.6,3.1-5.6c2.4-5.3,5.3-10.3,9-14.8c1.6-1.9,3.2-3.6,5-5.2c1.4-1.3,3-2,4.7-2.6c1.4-0.5,2.5-0.1,3.4,0.9
		c0.8,1,0.8,2.2,0.4,3.3c-0.2,0.5-0.5,1-0.8,1.4c-0.6,0.8-1.2,1.6-1.8,2.3c-5.7,7.1-8.8,15.2-10.5,24c-0.6,2.9-0.9,5.8-1.2,8.7
		c-0.4,3.8-0.2,7.5,0.4,11.2c0.5,3.1-0.1,6-2.3,8.5c-0.7,0.7-0.7,1.3-0.5,2.2c1.2,4.5,2.3,9,3.5,13.5c1,3.7,1.7,7.5,1.5,11.4
		c-0.1,0.9,0.1,1,1.1,1c4.1-0.2,7.9,0.9,11.6,2.7c2.2,1.1,3.9,2.7,5.3,4.8c1.1,1.7,1.6,3.6,1.4,5.6c-0.2,3.4-3.4,5.1-6.4,3.5
		c-0.5-0.2-0.9-0.5-1.3-0.9c-3-2.5-6.6-3-10.3-2.8c-2.7,0.1-5.5,0.7-8.1,1.5c-3.8,1.1-7.5,2.2-11.2,3.6c-0.2,0.1-0.5,0.2-0.7,0.2
		c-1.6,1.1-3,2.5-4.4,3.8c-1.9,1.9-3.5,3.9-4.8,6.3c-0.2,1.7-0.2,3.5,0.1,5.3c0.2,0.9,0.5,1.8,0.8,2.6c0.4,1.1,0.7,2.2,1.1,3.2
		c0.3,0.5,0.5,1.1,0.7,1.7c0.6,1.2,1.3,2.3,2,3.3c0.4,0.7,0.9,1.3,1.3,2l0.5,1c0.2,0.3,0.3,0.7,0.5,1c0.7,1.4,1.2,2.8,1.9,4.2
		c0.2,0.4,0.4,0.7,0.5,1s0.4,0.7,0.5,1c0.4,0.7,0.8,1.3,1.3,1.9c1.8,2.5,4,4.6,6.3,6.6c0.6,0.5,1.2,1,1.8,1.4
		c0.6,0.4,1.2,0.9,1.8,1.4c1,0.7,2,1.4,2.9,2.1c4.4,2.5,9.2,4.2,14.1,5.5c1.1,0.3,2.3,0.4,3.4,0.7c1.1,0.2,2.1,0.1,3.2-0.2
		c2.2-0.7,4.5-1.1,6.8-1.1c1.7,0,3.3,0.2,5,0.7c2.3,0.5,4.3,1.7,5.9,3.5c0.8,0.8,1.6,1.7,2.3,2.6
		C455.9,391.4,456.9,391.6,458.1,391.1z M586.9,325c2.1,0.8,4.2,1.7,6.2,2.9c2,1.1,3.9,2.5,5.6,3.9l0.8,0.8l-1.1-0.4
		c-1.3-0.4-2.5-0.8-3.8-1c-2.3-0.4-4.7-0.7-7.1-0.5c1.9,1,3.6,2.1,5.2,3.4c1.1,1,2.3,2,3.3,3c1.5,1.4,2.9,2.9,4.3,4.4
		c0.8,0.8,1.4,1.9,2,2.8c0.5,0.8,0.8,1.7,0.8,2.6c-0.1,0.3-0.1,0.6-0.1,0.9c-0.1,2.4-0.5,4.7-2,6.7c-2.2,2.9-4.3,5.9-6.2,9
		c-1.6,2.6-3.9,4.6-6.8,5.9c-2,0.9-4.1,1.7-6.2,2.6c-2.6,1.1-5.3,1.6-7.9,1.4c-2.9,0.1-5.7-0.4-8.2-1.5c-2.9-1.3-6-1.7-9.1-1.6
		c-2,0.1-3.8-0.4-5.3-1.7c-2-1.6-2.7-3.6-2-6.3c0.3-1.2,0.7-2.3,1.3-3.4c0.2-0.4,0.4-0.7,0.5-1.1c0.7-1.2,1-2.5,1.1-3.8
		c0.1-1,0.2-1.9,0.4-2.8c0.5-3.5,1.3-6.9,2.3-10.3c1.4-4.9,4.2-8.8,8.3-11.8c0.9-0.7,1.9-1.2,2.8-1.6c1.1-1,2.5-1.7,3.8-2.3l1-0.4
		c0.3-0.1,0.7-0.2,1-0.4c0.7-0.2,1.4-0.4,2.2-0.6c0.7-0.2,1.4-0.3,2.2-0.4c0.7,0,1.5-0.1,2.2-0.1C581.2,323.3,584.1,324,586.9,325z
		 M535.4,312.5c0.2-1.4,0.7-2.8,1.3-4.1c1-1.8,1.8-3.7,3-5.4c2.1-2.9,3.2-6.3,4.4-9.7c2.2-6.5,6.5-10.8,13.1-12.7
		c0.7-0.2,1.3-0.4,2-0.8c3.4-1.9,7.1-2.3,10.9-2.2c4.1,0.2,7.6,1.5,10.9,3.8c3.8,2.7,6.3,6.3,7.4,10.8c1.1,4.4-1.1,9.9-5.6,12.3
		c-0.7,0.4-1.4,0.7-2.3,0.6c-1.4-0.1-2.8-0.1-4.2-0.2c-0.4-0.1-0.9-0.3-1.1-0.6c-0.3-0.4,0.1-0.8,0.3-1.2c0.1-0.1,0-0.3,0-0.5
		c-4.8,0.8-9.3,2.6-13.4,5c-4.4,2.5-7.8,5.9-10.8,9.8c-2.2,2.7-3.7,5.7-5.1,8.8c-0.5,1-1.1,1.6-2.2,1.5c-1.3-0.1-2.5,0.5-3.5,1.1
		c-1.3,0.7-1.7,0.7-2.7-0.7c-1.6-2.2-2.5-4.5-2.5-7.2C535.1,318.2,534.9,315.4,535.4,312.5z M448.6,373.3c-0.9,1.1-2,1.8-3.2,2.3
		c-2.6,1.2-5.3,1.7-8.5,1.7c-1.3-0.1-3.1-0.1-4.8-0.7c-1.3-0.5-2.7-0.4-4-0.5c-3.2-0.4-6.3-1.1-9.3-2.5c-3.8-1.9-6.8-4.5-9.4-7.6
		c-0.7-0.9-1.4-1.9-2.2-2.8c-0.2-0.2-0.3-0.4-0.5-0.7c-0.8-1-1.5-2-2.4-2.9c-2.6-2.7-5-5.6-7.2-8.6c-0.4-0.5-0.6-1.1-0.5-1.7
		c0.4-2.2,1.1-4.3,2.5-6.1c0.2-0.3,0.5-0.5,0.8-0.7c0.9-0.3,1.6-0.9,2.3-1.5c0.3-0.2,0.5-0.4,0.8-0.7c3.2-2.8,6.8-5,10.5-7.1l-4-0.5
		c-0.8-0.2-1.7-0.2-2.5-0.7c-0.4-0.3-0.7-0.8-0.6-1.3s0.4-0.9,0.7-1.2c0.4-0.3,0.7-0.5,1.1-0.7s0.8-0.2,1.3-0.4
		c0.4-0.1,0.8-0.2,1.3-0.3c0.4-0.1,0.8-0.2,1.3-0.2c3.3-0.5,6.8-0.4,10.1,0.3c1.4,0.4,2.8,0.8,4.2,1.3c2.6,0.3,5,1.1,7.2,2.4
		c2.8,1.7,5.3,3.8,7.5,6.1c1.3,1.4,2.5,2.9,3,4.7c1.4,4.1,3,8.2,3.9,12.5c0.5,2.3,0.8,4.6,1.1,6.9c0.1,0.4,0.1,0.9,0.1,1.3
		c-0.2,1.9-0.1,3.6,0.5,5.5C450.1,370.6,449.6,372,448.6,373.3z M452.1,330c-0.8-0.1-1.3-0.5-1.5-1.3c-0.4-1-0.8-2-1.1-3
		c-1.5-4.9-4.1-9.3-6.8-13.6c-1.7-2.7-3.8-5-6.1-7.1c-1.1-1-2.2-1.9-3.6-2.1c-0.5,0-0.8-0.4-1-0.8c-1.1-2.3-1.5-4.7-1.6-7.2
		c0-0.5,0.2-1.1,0.5-1.5c1-1.6,1.9-3,2.9-4.5c0.4-0.6,0.8-1.1,1.7-1.1c0.3,0,0.7-0.2,1-0.4c2.5-1.9,5.3-3,8.1-4
		c1.5-0.5,3.1-0.7,4.7-0.7c1-0.1,1.7,0.3,2.3,1c0.9,1.1,1.8,2.2,2.7,3.3c1,1.1,1.8,2.2,2.8,3.2c3,3,5.1,6.7,6.4,10.7
		c1.3,3.8,1.9,7.8,2.3,11.8c0.1,0.5,0,1.1,0,1.6c-0.1,4.6-1.4,8.9-3.5,13c-1.3,2.5-4.2,3.6-7,3.3C454.4,330.5,453.3,330.2,452.1,330
		z"/>
	<path class="st2" d="M499.8,560c-2.8-0.4-5.6-1.1-8.2-2.2c-0.5-0.2-1-0.3-1.6-0.4c-4.9-0.8-9.2-2.9-12.8-6.2
		c-3.2-2.9-6.3-5.8-9.4-8.7c-0.8-0.7-1.6-1.5-2.2-2.3c-0.4-0.5-0.8-0.9-1.2-1.4c-0.1,0.1-0.1,0.3-0.2,0.4c-0.2,0.8-0.7,1.2-1.3,1.7
		c-1,0.8-1.6,1.9-2.2,3.1c-1,1.9-1.4,3.8-1.4,5.9c0.1,3.2,0.1,6.4,0.1,9.6c0,0.8-0.1,1.7-0.2,2.6c-0.3,1.7-1.1,3.2-3,3.7
		c-0.4,0.1-0.7,0.3-1,0.5c-0.6,0.4-1.2,0.6-1.8,0.7c3.2,1.6,6.6,2.7,10.1,3.5c2.5,0.6,5.1,1,7.6,1.6c5.3,1.3,10.6,1.4,16,1.2
		c2.7-0.1,5.3-0.5,7.6-2.2c0.4-0.3,1-0.5,1.4-0.7c1.9-0.7,2.9-1.9,3.5-3.8c0.3-0.8,0.7-1.7,1-2.5c0.2-0.9,0.4-1.7,0.5-2.6
		C501.3,560.5,501,560.2,499.8,560z"/>
	<path class="st2" d="M413.4,602.8c-0.2-0.2-0.5-0.5-0.7-0.7c-3.2-2.7-6.1-5.7-8.5-9.3c-2-2.9-3.8-5.8-5.6-8.8
		c-1.9-3.2-3.6-6.4-5.4-9.6c-1.4-2.4-2.6-4.9-3.5-7.5c-1.3-3.4-2.6-6.8-3.9-10.2c-2.5-6.2-4.4-12.6-5.7-19.2
		c-0.9-4.8-2.3-9.6-3.6-14.3c-0.3-1.1-0.7-2-1.6-2.7c-3-2.1-5.7-4.6-8.4-7.1c-4.2-4-7.8-8.5-10.5-13.6c-0.2,0.2-0.4,0.5-0.6,0.8
		c-0.5,0.7-1,1.5-1.3,2.3c-1.7,3.8-3.1,7.6-4.2,11.5c-1.3,4.6-1.9,9.3-2.3,14c-0.9,8.5-0.5,17,0.4,25.4c0.6,5.1,1.3,10.3,1.7,15.4
		c0.4,4,0.4,8,0,12c-0.9,8.3-2.3,16.6-4.6,24.7c-1.6,5.5-2.9,11.1-5,16.4c-1.9,4.9-3.8,9.9-6,14.6c-1.6,3.4-2.7,7-3.6,10.6
		c0,0.1-0.1,0.2-0.1,0.4c3,1.5,6,3.2,8.8,5l1.8,1.2l1.7,1.3l0.9,0.6l0.4,0.3l0.4,0.4l1.7,1.3c0.3,0.2,0.5,0.4,0.8,0.7l0.8,0.7
		l1.6,1.4c0.5,0.5,1.1,1,1.6,1.4l0.8,0.7l0.4,0.4l0.4,0.4c1,1,2.1,2,3,3c0.5,0.5,1,1,1.5,1.6l1.4,1.6c0.2,0.2,0.5,0.5,0.7,0.8
		l0.7,0.8l1.4,1.6c0.9,1.1,1.9,2.2,2.7,3.3c2.3,2.9,4.4,5.9,6.5,8.8c0.1,0,0.1,0.1,0.1,0.1c0.5,0.7,1,1.3,1.4,2
		c0.2,0.3,0.3,0.5,0.5,0.8c0.5,0.7,0.9,1.3,1.4,2c1.1,1.7,2.3,3.3,3.5,5c-1.1-2-2-4.1-2.6-6.3c-1.1-4-1.7-8.2-2-12.4
		c-0.7-10,0.1-19.8,2.2-29.6c2-9.3,5.3-18,10.6-25.8c0.5-0.7,0.8-1.6,1.7-2c1,0.8,0.4,1.8,0.4,2.7c0.2,5.5,1.1,10.8,3.3,15.9
		c1,2.3,2.2,4.5,3.8,6.4c1.6,1.9,3.5,3.4,5.7,4.4c2.9,1.4,5.4,0,5.9-3.2c0.1-0.9,0.1-1.8-0.1-2.7c-0.8-5.8-0.2-11.4,1.4-17
		c1.2-4.2,2.7-8.3,4.4-12.3c1.2-2.7,1.6-5.5,1.4-8.2C413.4,604.2,413.4,603.5,413.4,602.8z"/>
	<path class="st2" d="M680.5,617.4c-1.4-1.4-2.7-2.7-4.1-4.2c-3-3.1-5.4-6.7-7-10.7c-1.3-3-2.5-6.2-3.3-9.3
		c-2.5-8.8-5.1-17.7-6.8-26.7c-1.5-7.8-2.5-15.7-1.9-23.7c0.3-4.1,0.5-8.2,0.7-12.3c0.3-6.1,0-12.1-1.3-18.1c-0.7-3.5-1.5-7-2-10.5
		c-0.4-2.3-0.9-4.6-2.1-6.6c-1.3-2.2-1.8-4.6-2-7.1c-0.1-0.5-0.1-1.1-0.2-1.6c-0.5-4.5-1.4-9-2.7-13.4c-0.4-1.3-0.9-2.5-1.6-3.6
		c-0.5-0.8-1.1-1.5-1.9-2c-0.5,2.3-1.2,4.6-1.7,6.9c-0.4,1.3-0.8,2.6-1.6,3.6c-2.1,2.6-3.6,5.5-5.1,8.4c-1,1.8-2.3,3.3-3.5,5
		c-1.7,2.3-3.5,4.5-4.8,7.1c-1.8,3.2-3.5,6.4-5.3,9.6c-2.3,4.1-4.3,8.2-4.5,13c-0.1,0.7-0.2,1.4-0.2,2.2c-0.4,3.1-0.7,6.2-1.3,9.3
		c-1.5,7-3.4,13.9-5.3,20.7c-1.2,4.2-2.7,8.2-4.5,12.2c-0.1,0.7-0.1,1.3-0.2,1.9c-0.6,4.2-1.1,8.4-2,12.4c-0.7,3.2-1.3,6.3-1.6,9.5
		c-0.2,1.3-0.6,2.5-1.3,3.5c-1.8,2.5-3.6,5.1-5.4,7.6c-5,7.4-9.9,14.9-15.1,22.1c-1.6,2.1-2.7,4.4-3.7,6.8c-0.6,1.4-1.1,2.9-1.2,4.4
		c-0.5,6.5,4.5,10.5,10.5,8.4c2.3-0.8,4.4-2.1,6.1-3.8c1-1,2-2,2.9-3.1c2.4-2.6,5.1-4.7,8.2-6.3c2-1,4-1.9,6.3-2.6
		c3.6-1.1,7.2-2.6,10.5-4.7c0.2-0.2,0.5-0.2,0.7-0.3c0.4,0.7,0.1,1.2-0.1,1.8c-0.8,2.9-1.4,5.7-1.3,8.7c0.1,1.3,0.3,2.5,0.8,3.6
		c1.3,2.9,4.3,4,7.1,2.6c0.6-0.3,1.3-0.7,1.7-1.2c1.7-1.7,1.9-1.7,4.1-0.1c1,0.7,1.8,1.5,2.6,2.3c2.2,2.1,3.9,4.5,5.4,7
		c1.2,2,2.4,4.1,3.6,6.2c0.2,0.3,0.4,0.7,0.5,1l0.8-0.5c4.8-3.1,10-5.7,15.3-7.9c0.4-0.1,0.7-0.3,1-0.4l1-0.4l2-0.8
		c0.4-0.1,0.7-0.2,1-0.4l1-0.4l2-0.7l1-0.3c0.3-0.1,0.7-0.2,1-0.3l2.1-0.5l1-0.3l0.5-0.1l0.5-0.1l2.1-0.5c3.8-0.9,7.7-1.6,11.6-2.2
		C688.9,629.9,686,623.1,680.5,617.4z"/>
	<path class="st2" d="M553.4,566c1.2-1.8,2-3.7,2.6-5.8c0.8-2.7,0.3-5.3-2-7.3c-0.7-0.7-1.5-1.3-2.3-1.9c-1.3-1-2.5-2.1-3.5-3.3
		c-1.7-2.1-2.3-4.4-1.2-7c0.1-0.3,0.2-0.5,0.3-0.8c0.6-1.5,1.2-3,1.8-4.4c-0.9,1.3-1.9,2.6-3.1,3.8c-1.1,1.3-2.2,2.5-3.2,3.9
		c-2.2,3.2-5.1,5.7-7.9,8.2c-0.3,0.3-0.7,0.5-1.1,0.8c-2.3,1.3-4.7,2.6-7.2,3.5c-5,1.9-10.1,3.5-15.5,3.7c-0.5,0-1.1-0.1-1.5,0.6
		c0.2,0.8,0.5,1.6,0.8,2.5c1.1,3.6,3,6.3,6.7,7.8c1.1,0.5,2.1,1,3.3,1c2.1,0.1,4.2,0.3,6.4,0.4c2,0.1,4.1-0.2,6.1-0.5
		c5.6-1.1,11.1-2.6,16.6-4.1c1.3-0.4,2.5-0.7,3.7-1.1C553.3,566,553.4,566,553.4,566z"/>
	<path class="st2" d="M584,579.3c3.8-6,7.6-11.9,10.4-18.4c1.3-2.9,2.5-5.7,3.2-8.8c0.5-2,1-4.1,1.5-6.2c0.5-2.3,0.7-4.6,0.5-6.9
		c-0.3-2.9,3.4-32,4.2-32.6c0.1-0.2,0.3-0.4,0.4-0.6c-2.7,1.6-5,2.9-5.2,2.8c-0.3-0.2-0.7-0.4-1.1-0.6c-0.4,3.5-0.9,6.8-1.5,10.2
		c-1.1,6.3-2.7,12.6-4.4,18.8c-1.7,5.9-4.1,11.4-7.2,16.7c-2.3,3.9-5.3,7-8.9,9.5c-1,0.7-1.9,1.3-2.9,1.9c-1.2,0.7-1.8,1.6-2.3,2.9
		c-2.3,5.8-5.1,11.2-9.3,15.9c-1.7,2-3.3,4-5.1,5.9c-1.1,1.2-2.1,2.5-3.3,3.5c-1,0.8-1.1,1.7-0.9,2.8c1,4.2,2.2,8.3,3.5,12.7
		c2.3-1.6,4.4-2.6,6.2-4.3c5.5-5.1,10.7-10.5,15.6-16.4C579.6,585.3,582,582.5,584,579.3z"/>
	<path class="st2" d="M547.9,399.6L547.9,399.6C547.8,399.7,547.8,399.7,547.9,399.6c-0.3,0.2-0.4,0.2-0.6,0.3
		c-0.8,0.3-1.6,0-2.3-0.4c-1.6-1-3-2-4.2-3.3c-0.5-0.5-1-1.1-1.5-1.6c-1-0.8-2-0.8-3-0.2l-0.1,0.1c0,0,0,0-0.1,0c-1,0.7-1.4,1.7-1,3
		c0.1,0.4,0.3,0.8,0.5,1.2c0.5,0.8,0.9,1.6,1.6,2.2c1.2,1.2,1.7,2.7,2.1,4.2c0.9,3.6,1.6,7.3,2.1,11.1c0.5,3.8,1.4,7.5,3,11.1
		l0.1,0.1c0.3,0.4,0.7,0.9,1,1.4c0.5,0.6,1.1,1.2,1.7,1.6c1.3,0.9,2.5,1.2,3.7,0.9c0.9-0.2,1.9-0.6,2.8-1.5c1.4-1.3,2.5-2.8,2.7-4.8
		c0.1-0.8,0.3-1.6,1.1-2c0.5-0.3,0.8-0.4,1.1-0.5c0.5,0,0.8,0.4,1,1.3c0.9,4,2.6,7.6,4.9,10.9c1.1,1.7,2.4,3.3,3.6,5
		c2.4,3.2,5.7,5.1,9.4,6.3c0.9,0.3,1.7,0.4,2.4,0.3c1.3-0.1,2.5-0.7,3.5-1.8c0.7-0.8,1.4-1.6,2.2-2.3c1.1-1.1,2.4-1.9,3.7-2.4
		c1.7-0.5,3.5-0.5,5.5,0.1c1.4,0.5,2.9,0.8,4.4,1.3c1.1,0.4,2.1,0.4,3.2,0.3c1-0.1,2-0.5,3-0.9c2.3-1.1,4.3-2.6,5.9-4.5
		c3.9-4.7,6.6-9.9,7.7-16c0.4-2.4,0-4.7-0.8-6.8c-1-2.7-1.8-5.4-2.3-8.2c-0.4-2-0.6-4.1-0.8-6.1c-0.8-6.5-1-13-1.3-19.5l0,0
		c-0.2-0.5-0.2-1-0.3-1.6c0-0.2-0.1-0.4-0.1-0.5c-0.2-1.4-0.4-2.9-0.6-4.3h-0.1c-1,2.2-2.2,4.3-3.5,6.2c-1.6,2.2-3.4,4.2-5.5,5.9
		c-2.5,5.7-5.7,10.9-10.7,14.9c-2.7,2.1-5.7,3-8.8,3.1c-1.4,0-2.8-0.1-4.3-0.4c-4.1-0.8-7.8-2.5-10.9-5.3c-2.1-1.8-4.4-3.4-6.6-5.1
		c-0.4-0.2-0.8-0.5-1.2-0.6c-2.9-1-5.9-2-8.8-3c-0.5-0.2-1-0.2-1.6-0.4c-0.1,0-0.2,0-0.2,0c-0.4,0-0.6,0.2-0.7,0.5
		c-0.3,0.8-0.4,1.6-0.3,2.4c0.1,1.5,0.3,3,0.4,4.5C550.1,397,549,398.8,547.9,399.6z"/>
	<path class="st2" d="M570.8,35.2l4.9,48.7c0.1,22.4,0.1,44.2-0.3,46.7c-0.8,5.2,6.9,27.9,4.2,36.9c-1.6,5.4-2.5,17.3-3,25.9
		c-0.4,6,2,11.8,6.5,15.8c5.3,4.8,12.4,12.1,17.2,20.1c8.5,14.2,48.2,27.4,48.2,27.4l0,0l0,0c0,0,6.1-3.3,5.6-7.6
		c-0.1-1-0.4-1.7-0.7-2.2c-1.2-1.9-3.5-2.6-5-10.6c-1.9-10.4-5.7-11.8-10.9-18s-26.5,13.3-34.4,0c-7.8-13.3-4.9-19.8-4.4-30.7
		s0.5-10.4-6.2-24.6c-6.6-14.2,3.3-10.2-1.4-26.2c-0.8-2.8-1.9-7.8-3-14l0,0c-3.1-17.2-6.9-44.3-9.7-64.2c-0.1-1.6-0.1-3.6-0.1-5.6
		c0-4.5,0.2-9.2,1.1-11.1c1-2.5,3-3.2,5.3-3c1.6,0.2,2.8-1.1,2.8-2.5c0-0.6-0.2-1.3-0.8-1.8l-7.1-6.5c-2.3-2.1-5.7-4.4-8.2-1.8
		c-0.8,0.9-1.3,2.1-1.3,3.3c0,0.2,0,0.3,0,0.5L570.8,35.2z"/>
	<path class="st2" d="M517.2,490.8c3.2,0,6.4,0,9.6,0.1c1.6,0.1,3-0.4,4.2-1.3c1.7-1.2,3-2.7,4.3-4.4c0.4-0.5,0.6-1.1,0.8-1.7
		c0.5-1.3,0.7-1.4,1.9-1.3c0.9,0.1,1.6,0.5,2.1,1.1c1,1.3,2,2.5,3,3.8c2.8,3.9,3.9,8.4,3.9,13.3c-0.1,0.8-0.2,1.7-0.4,2.6
		c-0.1,0.7-0.7,1.2-1.4,1.5c-1,0.4-1.7,0.1-2.5-0.5c-3.2-2.9-7-3.8-11.2-3.2c-1.5,0.2-3,0.5-4.5,0.7c-5.4,0.5-10.1,2.7-14.5,5.9
		c-0.7,0.5-1.2,1.1-1.7,1.7c-0.8,0.7-1,1.6-1.1,2.6c-0.4,8.9-0.1,17.9,0.5,26.8c0.1,1.7,0.7,3.3,1.7,4.7c1.6,2.3,3.6,3.9,6.4,4.5
		c1.6,0.4,3.2,0.7,4.7,1.2c1.1,0.4,2.1,0.2,3-0.3c2.5-1.4,4.9-2.7,6.9-5c1.4-1.6,2.9-3.1,4-5c0.4-0.6,0.8-1.3,1.3-1.7
		c2-2,3.6-4.4,5.2-6.8c0.8-1.2,1.8-2.3,2.5-3.5c1.8-3.6,3.5-7.2,4.2-11.2c0.4-2.2,0.8-4.4,1.3-6.6c0.4-1.9,0.4-3.8,0-5.6
		c-0.7-3.6-1.4-7.2-2.2-10.8c-0.3-1.5-0.8-2.9-1.6-4.2c-1.1-1.7-2.1-3.5-3.2-5.3c-1.1-2-2.7-3.5-4.8-4.5c-2.2-1.1-4.5-2.3-6.7-3.4
		c-4.6-2.3-9.6-3.2-14.8-3.3c-5.3-0.1-10.5,0.3-15.8,0.6c-1.6,0.1-3.2,0.2-4.8,0.1c-2.1-0.2-4.1-0.2-6.2,0.2
		c-3.2,0.7-6.5,1.3-9.7,1.9c-5,1-9.5,3-13.9,5.5c-1.9,1.1-3.6,2.5-5.3,4c-1.4,1.3-2.4,2.8-3,4.7c-1.7,5.6-2.8,11.2-3.5,17
		c-0.1,1.1-0.1,2.3,0.1,3.5c0.8,4.6,2.3,9,4.9,12.9c1,1.5,1.9,3,2.8,4.5c4.4,6.9,10,12.7,16.7,17.5c2.5,1.9,5.3,3.1,8.2,3.7
		c4.8,1,8.8-0.4,12.1-3.9c1.1-1.3,1.8-2.6,1.8-4.4c0-5.4,0.2-10.7-0.1-16.1c-0.2-3-1-6-2.3-8.7c-1.3-2.6-3-5-5.2-7.1
		c-0.5-0.4-1-0.8-1.5-1.1c-3.8-2.1-7.6-3.6-12.1-3.9c-4.1-0.2-8,0.4-12,1.1c-1.9,0.4-3.5,1.2-5.1,2.3c-0.8,0.5-1.5,1.3-2.4,2
		c-0.8-1.4-1.1-2.7-1.4-4c-0.8-4-0.1-7.9,1.3-11.6c1.1-3,3-5.7,5.4-7.9c1-0.9,1.9-1,2.9-0.4c0.8,0.5,1.4,1.1,1.7,2
		c0.2,0.6,0.4,1.2,0.6,1.8c0.4,1,1,1.6,2.1,1.9c1.7,0.4,3.5,0.6,5.3,0.6c7.8,0.1,15.5,0.4,23.3,0.8c3,0.2,6,0.1,9.1-0.2
		C514.2,490.8,515.7,490.8,517.2,490.8z M543.1,522c-1,2.2-2.2,4.1-3.7,5.9c-0.5,0.6-1.2,1-2.1,1c-1.8,0-3.5,0.2-5.3,0.4
		c-1.1,0.2-2.1,0.1-3-0.6c-0.8-0.6-1.7-0.9-2.7-0.8c-0.9,0.1-1.6,0.4-1.9,1.3c-0.2,0.7-0.1,1.8,0.8,2.1c2.2,0.8,3.9,2.5,6,3.3
		c0.7,0.2,1.4,0.2,2.1,0.2c0.4-0.1,0.8-0.3,1.3,0.1c-2.8,2.5-8.2,3.5-11.7,2.1c-1.5-0.6-2.9-1.4-3.9-2.7c-3.8-4.8-5-10-2.7-15.8
		c0.5-1.4,1.3-2.6,2.6-3.2c0.7-0.4,1.1-0.9,1.6-1.4c1.4-1.7,2.9-3.4,4.4-5.1c2.7-3.1,6.1-3.5,9.7-2.5c2.2,0.6,4.4,1.5,5.9,3.4
		c0.4,0.5,1,0.8,1.5,1.1c1.3,1,2,2.2,2.3,3.8C544.4,517,544.2,519.5,543.1,522z M530.2,531.8l-0.2,0.1v-0.2L530.2,531.8z
		 M465.2,509.2l-0.1,0.2l-0.2-0.1L465.2,509.2z M466,513.3c0.8-1.1,1.9-2,3-2.6c2.6-1.3,5.4-1.9,8.3-1.4c2.5,0.4,4.8,1.2,7.1,2.2
		c1,0.4,2.1,0.8,3.3,0.9c2,0.2,3.5,1.3,4.7,2.8c1.8,2.5,2.8,5.3,2.9,8.5c-0.2,3.8-1.4,7.2-3.5,10.5c-1,1.6-2.5,2.5-4.2,3.2
		c-1.6,0.7-3.3,0.7-5,0.6c-0.1,0-0.2-0.2-0.4-0.3c-0.1-0.2-0.1-0.4,0.1-0.5c0.4-0.2,0.8-0.4,1.2-0.5c1.3-0.5,2.3-1.4,3.2-2.3
		c1.7-1.7,1.8-3.8,1.6-6c0-0.3-0.2-0.4-0.5-0.4c-0.2,0-0.3,0.1-0.5,0.2c-2.9,1.3-6,1.6-9.1,1.5c-2.2-0.1-4.4-0.2-6.6-0.7
		C464.4,527.3,461.8,519.6,466,513.3z"/>
</g>
<g>
	<path class="st3" d="M468.6,470c-0.4,0.1-0.8,0.2-1.2,0.2c-1.7,0.4-3.5,0.8-5.2,1.3c-0.8,0.2-1.3-0.1-1.8-0.7
		c-1.3-1.8-2.1-3.7-2.2-5.9c-0.2-4.2,0.2-8.4,1.4-12.4c1.4-4.8,3-9.5,4.9-14.2c1-2.5,1.7-4.9,2.1-7.5c0.5-3.2,0.2-6.2-1.1-9.1
		c-2.4-5.3-8.2-6.5-12.1-5.4c-2,0.5-3.8,1.6-5.3,3c-2.1,2-3.8,4.2-5.3,6.7c-2.7,4.6-4.8,9.5-7,14.4c-0.3,0.7-0.5,1.5-1.1,2.1l0,0
		c-0.4,0.8-0.5,1.9-0.6,2.7c-0.2,2-0.8,4-1.9,5.8c-1.2,2-2.5,2.5-4.8,2c-0.5-0.1-1-0.4-1.5-0.6c-3.3-1.6-5.8-3.9-7.4-7.2
		c-2.2-4.5-4.2-9.1-5-14.1c-0.1-0.8-0.4-1.6-0.8-2.3c-1.3-2-3.8-2-5.1,0c-0.3,0.4-0.5,1-0.7,1.4c-0.3,0.7-0.7,1.5-0.9,2.2
		c-0.5,1.7-1.6,2.5-3.3,2.6c-3.3,0.2-6.5-0.2-9.5-1.7c-0.8-0.4-1.4-1-1.8-1.9c-1.3-2.9-2.2-5.9-2.2-9c0-1.6,0.1-3.2,0.1-4.9
		c0-0.6,0.1-1.3-0.1-1.9c-0.4-2.1-2.8-3.1-4.5-1.9c-0.7,0.5-1.3,1.2-1.9,1.9c-2,2.5-4,5-6,7.6c-1.1,1.4-2.4,2.7-3.9,3.7
		c-0.5,0.3-1,0.5-1.5,0.4c-2-0.3-3.8-1-5.3-2.5c-2.1-2.3-2.8-5.2-2.5-8.2c0.4-3.5,1.7-6.9,2.5-10.4c1.3-6.1,2.8-12,3.9-18.1
		c1.6-2.8,7.5-13.2,8.2-16.2c0.7-3.5-0.1-5.3-3.6-9.5c-2.2-2.7-9.2-0.5-14.6,3.7l0,0l0,0c-2.9,2.3-5.4,5.1-6.7,8
		c-3.8,8.5-3,13.6-3,13.6c-0.3,2.4-0.6,4.8-0.9,7.3l0,0c-0.6,5.1-1.2,10.2-1.6,15.3c0,0.4-0.1,0.8-0.1,1.3c0,0.4-0.1,0.9-0.1,1.3
		c-0.1,1-0.1,2.1-0.2,3.1c-0.1,4,0.2,8,1.4,11.9c1.7,5.7,3.8,11.2,6.2,16.6c0.5,1,1.1,2,1.7,3c2.5,4.1,4.9,8.1,7.5,12.1
		c1.4,2.2,2,4.5,1.5,7.1c-0.5,2.8-0.7,5.7-0.9,8.5c-0.1,2.5,0.3,4.7,1.3,7c2.1,4.8,5,9.3,8.2,13.4c0.5,0.7,1.3,1.3,2,1.8
		c1.7,1.4,3.5,2.7,5.3,4.1c2.5,1.8,4.4,4.1,6,6.8c0.2,0.3,0.4,0.7,0.6,1.1c0,0,0,0.1,0.1,0.2c0.8,1.6,1.4,3.2,1.9,4.9
		c0.1,0.2,0.1,0.4,0.2,0.5c0.1,0.2,0.1,0.3,0.2,0.5l0,0v0.1c1.5-0.1,3.2-0.1,4.6,0.3c0.4,0.1,0.8,0.2,1.1,0.4c0.4,0.1,0.7,0.2,1,0.4
		c0.2,0.1,0.4,0.2,0.6,0.2c0.6,0.2,1.2,0.3,1.8,0.3c0.2,0.1,0.4,0.1,0.6,0.2v-0.1c-1.6-5.7-2.8-11.4-3.7-17.2
		c-0.7-4.4-1.2-8.7-0.9-13.1c0.1-1,0.7-2,0.2-2.9c-0.5-0.8-1.4-1.3-2.2-2c-0.4-0.4-0.8-0.7-1.3-1c-1.5-1.1-3.2-1.6-5-1.9
		c-0.6-0.1-1.1,0.3-1.1,0.9c0,0.4-0.1,0.7,0,1.1c0.2,1.4,0.4,2.9,1,4.1s0.2,2.1-0.2,3c-0.5,1.1-1.8,1.6-3,1.1c-1-0.4-1.9-1.1-2.5-2
		c-1.1-1.6-1.7-3.3-1.9-5.2c-0.1-1.5-0.1-3,0-4.5c0-0.1,0-0.3,0-0.4c0-0.2,0-0.5,0.1-0.7c0.2-1.8,0.8-3.5,1.9-5c1-1.4,2.3-2.5,4-2.3
		c1.1,0.2,2.3,0.1,3.4-0.1c1.7-0.2,3.2,0.1,4.7,0.8c2.3,1,4.2,2.3,5.8,4.2c1.4,1.6,2.5,3.5,3.2,5.5c3,7.8,5.7,15.8,7.4,24
		c0.2,1.3,0.6,2.6,0.9,3.9c2.5,10.4,6.6,20.2,11,29.9c1.6,3.4,3.8,6.5,6,9.4c5.1,6.8,12,11.4,18.8,16.1c1.4,1,2.9,1.9,4.3,2.7
		c0.6,0.4,1.3,0.7,1.9,1.1c0,0,0.1,0,0.1,0.1c0.6-0.1,1.2-0.4,1.8-0.7c0.3-0.2,0.6-0.4,1-0.5c1.9-0.5,2.7-2,3-3.7
		c0.2-0.9,0.2-1.8,0.2-2.6c0-3.2,0-6.4-0.1-9.6c0-2.1,0.5-4.1,1.4-5.9c0.5-1.1,1.2-2.2,2.2-3.1c0.5-0.5,1.1-0.9,1.3-1.7
		c0.1-0.2,0.1-0.3,0.2-0.4c-0.1-0.1-0.1-0.1-0.2-0.2c-2.8-3.5-5.6-7-8-10.8c-3.2-5.1-5.1-10.6-5.9-16.5c-0.3-2.2-0.4-4.5-0.6-6.7
		c-0.2-2.3-0.1-4.7,0.5-6.9c1.3-5.1,2.9-10.2,5.1-14.9c0.6-1.3,1.3-2.5,2-3.8c1.1-1.7,2.4-3.1,4.3-3.9c0.5-0.2,1-0.5,1.4-0.8
		c2.3-1.9,4.8-3.2,7.5-4.1c0-0.1,0.1-0.1,0.1-0.1C469.9,469.8,469.2,469.9,468.6,470z"/>
	<path class="st3" d="M623.5,487.2c1.7-2.1,3.6-4,5.4-5.9c0.1-0.1,0.2-0.2,0.2-0.2c3.2-3.4,5-7.4,4.9-11.9c0-0.8-0.1-1.6-0.2-2.3
		c-0.2-1.1-0.2-2.2-0.3-3.2c-0.1-2.2,0.1-4.3,0.7-6.3c1-3.2,2.2-6.5,3.9-9.4c0.5-0.9,1-1.7,1.4-2.6c0,0,0-0.1,0.1-0.1
		c0.2-0.5,0.5-1,0.7-1.6c0.1-0.1,0.1-0.3,0.1-0.4c1.2-3.3,1.9-6.8,2.4-10.3c0.6-4.6,0.6-9.3,0.6-13.9c0-5.1-0.1-10.2-1.3-15.2
		c-1-4.2-1.9-8.5-2.9-12.8c-0.1-0.3-0.2-0.6-0.2-0.9c-1-1.4-2-2.7-3-4.1c-1.5-2-3.4-3.5-5.5-4.7c-0.7-0.4-1.3-0.7-2-1
		c-0.4-0.2-0.7-0.4-1-0.5c-1.1-0.5-2.3-0.8-3.5-1.1c-2-0.5-4.1-0.6-6.2-0.3c-1.3,0.2-2.6,0.5-3.9,1.1c0.3,6.5,0.5,13,1.3,19.5
		c0.2,2,0.5,4.1,0.8,6.1c0.5,2.8,1.3,5.6,2.3,8.2c0.8,2.2,1.3,4.4,0.8,6.8c-1.1,6-3.8,11.3-7.7,16c-1.6,1.9-3.6,3.5-5.9,4.5
		c-1,0.5-2,0.8-3,0.9c-1,0.2-2.1,0.1-3.2-0.3c-1.4-0.5-2.9-0.8-4.4-1.3c-2-0.6-3.8-0.6-5.5-0.1c-1.3,0.5-2.6,1.3-3.7,2.4
		c-0.8,0.7-1.4,1.6-2.2,2.3c-1,1.1-2.2,1.7-3.5,1.8c-0.8,0.1-1.6,0-2.4-0.3c-3.7-1.3-7-3.1-9.4-6.3c-1.2-1.7-2.5-3.3-3.6-5
		c-2.3-3.3-4-6.9-4.9-10.9c-0.2-0.9-0.5-1.3-1-1.3c-0.3,0-0.7,0.2-1.1,0.5c-0.8,0.5-1,1.2-1.1,2c-0.3,2-1.3,3.5-2.7,4.8
		c-0.9,0.8-1.8,1.3-2.8,1.5c-1.2,0.2-2.4-0.1-3.7-0.9c-0.7-0.4-1.2-1-1.7-1.6c-0.4-0.4-0.7-0.9-1-1.4c-1.5,4-1.4,8.2-0.5,12.4
		c0.7,2.9,1.6,5.6,2.7,8.4c1,2.4,1.9,4.8,2.6,7.3c0.5,1.8,0.1,3.3-0.8,4.8c-1.4,2.2-3.2,3.8-5.6,4.8c-2.5,1.1-4.9,2.1-7.5,2.8
		c6,1.7,11.1,4.9,15.1,9.7c3,3.5,5,7.5,5.9,12.1c1.1,6.5,1.3,13.1,0.5,19.7c-0.3,2.6-0.8,5.1-1.1,7.7c-0.1,0.5-0.1,0.9-0.2,1.4
		c-0.6,3.2-1.5,6.2-2.5,9.3c-0.4,1-0.8,2-1.2,3c-0.7,1.5-1.4,2.9-2.3,4.2c-0.1,0.2-0.3,0.4-0.4,0.6c-0.6,1.5-1.1,3-1.8,4.4
		c-0.1,0.2-0.2,0.5-0.3,0.8c-1.1,2.6-0.5,4.9,1.2,7c1,1.3,2.2,2.3,3.5,3.3c0.8,0.6,1.6,1.2,2.3,1.9c2.3,2,2.8,4.6,2,7.3
		c-0.6,2.1-1.5,4-2.6,5.8c7.1-2.5,13.5-6.2,19.4-10.9c2.3-1.9,4.2-4.1,5.5-6.8c1.1-2.2,2.2-4.5,3.2-6.8c0.8-1.7,1.4-3.6,1.9-5.6
		c1.3-5.4,2.6-10.8,4-16.1c1.2-4.7,2-9.4,1.8-14.3c-0.1-2.3-0.2-4.6-0.3-6.9c-0.2-3-0.2-6,0.7-9c1.1-3.7,2.8-7.1,5-10.3
		c2.9-4.1,6.9-6.7,11.8-7.6c0.6-0.1,1.3-0.2,1.9-0.2s1-0.3,1.4-0.7c2-1.8,3.8-3.8,4.6-6.5c0.2-0.5,0.4-1,0.6-1.5
		c0.1-0.2,0.2-0.5,0.5-0.5c0.4-0.1,0.4,0.2,0.5,0.5c0.7,2.2,0.3,4.4,0.3,6.6c-0.1,2.9-1.3,5.2-3.4,7c-2.3,2-4.2,4.4-5.7,7
		c-2.3,3.9-4.5,7.9-6.6,12c-1.3,2.5-2,5.1-2.2,7.9c-0.1,1.4-0.2,2.9-0.4,4.3c0,0.1,0,0.2,0,0.4c0.4,0.2,0.8,0.4,1.1,0.6
		c0.2,0.1,2.5-1.2,5.2-2.8c0.8-1.2,1.7-2.3,2.8-3.4c0.8-0.9,1.7-1.7,2.4-2.6c3.2-3.9,6.9-7.2,11.2-9.9
		C621.6,489.1,622.7,488.3,623.5,487.2z"/>
	<path class="st3" d="M537.6,328.2c1,1.3,1.4,1.4,2.7,0.7c1.1-0.6,2.2-1.2,3.5-1.1c1.1,0.1,1.7-0.5,2.2-1.5c1.4-3,3-6.1,5.1-8.8
		c3-3.9,6.5-7.4,10.8-9.8c4.2-2.3,8.7-4.1,13.4-5c0,0.2,0.1,0.4,0,0.5c-0.2,0.4-0.6,0.8-0.3,1.2c0.2,0.3,0.7,0.5,1.1,0.6
		c1.4,0.1,2.9,0.2,4.2,0.2c0.8,0.1,1.6-0.2,2.3-0.6c4.5-2.3,6.7-7.9,5.6-12.3c-1.1-4.5-3.6-8.1-7.4-10.8c-3.3-2.3-6.9-3.6-10.9-3.8
		c-3.8-0.2-7.5,0.3-10.9,2.2c-0.7,0.4-1.3,0.6-2,0.8c-6.6,1.9-10.9,6.2-13.1,12.7c-1.2,3.3-2.3,6.8-4.4,9.7c-1.2,1.7-2,3.6-3,5.4
		c-0.7,1.3-1.1,2.6-1.3,4.1c-0.5,2.9-0.2,5.7-0.3,8.5C535.1,323.7,536,326.1,537.6,328.2z"/>
	<path class="st3" d="M435.6,287.8c-0.8,0-1.3,0.5-1.7,1.1c-1,1.5-2,2.9-2.9,4.5c-0.3,0.4-0.5,1-0.5,1.5c0.1,2.5,0.4,5,1.6,7.2
		c0.2,0.4,0.5,0.8,1,0.8c1.5,0.2,2.6,1.1,3.6,2.1c2.3,2.1,4.4,4.4,6.1,7.1c2.7,4.4,5.3,8.7,6.8,13.6c0.3,1,0.8,2,1.1,3
		c0.2,0.8,0.7,1.2,1.5,1.3c1.1,0.2,2.3,0.5,3.4,0.7c2.8,0.4,5.7-0.8,7-3.3c2.1-4.1,3.4-8.4,3.5-13c0-0.5,0.1-1.1,0-1.6
		c-0.5-4-1.1-7.9-2.3-11.8c-1.3-4-3.3-7.6-6.4-10.7c-1-1-1.9-2.2-2.8-3.2c-0.9-1.1-1.8-2.2-2.7-3.3c-0.6-0.7-1.4-1.1-2.3-1
		c-1.6,0-3.2,0.1-4.7,0.7c-2.9,1-5.7,2.2-8.1,4C436.2,287.6,435.9,287.8,435.6,287.8z"/>
	<path class="st3" d="M276.1,726.4c-0.1,0.1-0.1,0.2-0.2,0.3C276,726.5,276,726.5,276.1,726.4z"/>
	<path class="st3" d="M388.4,183.6c-3,9.2-14.8,18.8-10.3,21.9c1.9,1.3,4.8,2.9,7.5,4.1c4.5-2.7,10.1-3.9,15.4-7
		c2-1.1,4.4-3.6,7-6.8c2.2-3.3,4.4-6.9,6.3-10.2c2.6-7.7,5.3-16,5.5-18.5c0.5-5.2,6.7-26.9,12.6-48.6C443.3,78.4,439,69,434,64.6
		c-0.1,0.2-0.2,0.4-0.3,0.6c-6,11.6-4.8,14.8-5.9,22.7s-6.4,12.4-7.9,19.1c-1.5,6.8-11.5,5.1-18.6,11.5s-15.2,7.3-18.9,18
		c-3.6,10.7,7.4,9.2,6.6,19.5s5.6,2.3,3.3,12.6C390,179,391.4,174.5,388.4,183.6z"/>
	<path class="st3" d="M588.2,123c1.1,6.3,2.2,11.2,3,14c4.7,16.1-5.2,12.1,1.4,26.2c6.6,14.2,6.6,13.7,6.2,24.6
		c-0.5,10.9-3.4,17.5,4.4,30.7c7.9,13.3,29.2-6.2,34.4,0s9,7.6,10.9,18c1.4,8,3.8,8.7,5,10.6c1.3-3.6,0.5-10.6-2.1-21.9
		c-4.2-18.5,1-15.7-4.2-30.9s-10-14.9-15.4-32.9c-5.3-18,0.1-9.5,0-18s0.1-9-3.2-22.2c-3.3-13.3-29.6-66-37.4-69.3
		s3.9,31.4,3.9,31.4l-2.6,10c0,0-1.3,5.3-0.4,9.5c1,4.2-0.5,10.9-3.3,15.6C588.5,118.9,588.3,120.6,588.2,123z"/>
	<path class="st3" d="M362.3,685.8c-0.3-0.5-0.7-0.9-1-1.4c-0.7-0.9-1.3-1.8-2-2.7c-1.4-1.7-2.8-3.5-4.4-5.1
		c-0.8-0.9-1.7-1.7-2.5-2.6c-0.8-0.8-1.7-1.6-2.6-2.4c-0.9-0.8-1.8-1.6-2.7-2.3s-1.9-1.4-2.9-2.2c-1-0.7-2-1.4-3-2
		c-1.5-1-3-1.9-4.6-2.7c-0.5-0.3-1-0.5-1.6-0.8c-0.8-0.4-1.6-0.8-2.4-1.2s-1.6-0.7-2.4-1.1c-0.4-0.2-0.8-0.4-1.2-0.5
		c-0.4-0.2-0.8-0.3-1.2-0.5c-1.3-0.5-2.5-1.1-3.6-1.9c-2-1.1-3.8-2.5-5.9-3.5c-3.4-1.7-6.9-3-10.5-4.1c-3.3-1-6.8-1.9-10.2-2.5
		c-2-0.4-4.1-0.7-6.2-1c-1.9-0.2-3.7-0.5-5.6-0.7c-0.2,0-0.4-0.1-0.7-0.1c-0.5,0-0.9-0.1-1.4-0.1c-0.2,0-0.4,0-0.7,0
		c-1.2,0.1-2.3,0.4-3.5,0.7c-0.5,0.2-1.1,0.3-1.7,0.5c-0.6,0.1-1.1,0.2-1.7,0.4c-2.1,0.4-4.2,0.2-6.4,0.4c-1.6,0.1-3.2,0.2-4.8,0.4
		c-1.6,0.2-3.2,0.4-4.8,0.7c-1.6,0.3-3.2,0.6-4.8,1c-4.7,1.1-9.4,2.7-13.7,5.1c-1.4,0.8-2.7,1.7-3.9,2.7c-0.5,0.5-1,0.9-1.6,1.4
		l-4.8,2.2c-2.5,1.2-4.8,2.6-7,4.2c-0.7,0.5-1.4,1.1-2.2,1.6c-2.9,2.3-5.4,4.8-7.8,7.6c-2.3,2.8-4.2,5.9-5.9,9.1
		c-0.7,1.4-1.3,2.8-1.9,4.2c-0.5,1.4-1,2.9-1.4,4.4s-0.8,3-1.1,4.5c-1.4,7.6-1.1,15.5,1,22.9c0.1,0.4,0.2,0.9,0.4,1.3
		c0.3,0.9,0.7,1.7,1.1,2.6c0.4,0.6,0.7,1.2,1.1,1.7c0.2,0.2,0.3,0.4,0.5,0.5c0.7,0.7,1.4,1.3,2.3,1.7c0.3,0.1,0.6,0.2,0.9,0.3
		c-0.3-1-0.6-2-0.8-3.1c-0.3-1.3-0.5-2.6-0.7-3.9c-0.2-1.7-0.4-3.5-0.5-5.3c-0.1-0.4-0.1-0.9-0.1-1.3c0.1-3.5,0.4-7.1,1.1-10.6
		c0.1-0.4,0.2-0.9,0.3-1.3c0.3-1.3,0.7-2.6,1.1-3.9c0.1-0.4,0.2-0.8,0.4-1.3c0.5-1.3,1-2.6,1.6-3.9c0.8-2,1.8-3.9,2.8-5.9
		s2.1-3.8,3.2-5.6c0.4-0.6,0.7-1.1,1.1-1.7c0.4-0.5,0.8-1,1.2-1.6c0.3-0.4,0.5-0.7,0.8-1c1-1.1,2-2.2,3-3.2s2.1-2,3.2-3
		c0.2-0.2,0.4-0.4,0.7-0.6c-0.8,0.7-1.7,2.2-2.6,3.8c-0.7,1.1-1.3,2.4-1.8,3.5c-0.5,0.9-0.8,1.7-1.2,2.5s-0.8,1.6-1.1,2.5
		c-0.4,0.8-0.7,1.7-1,2.5s-0.6,1.7-0.8,2.5c-2.3,7.9-2.6,16.1-1.9,24.4c0,0.4,0.1,0.9,0.1,1.3c0.1,0.9,0.2,1.7,0.3,2.6
		c0.1,0.9,0.2,1.7,0.4,2.6c0.1,0.9,0.2,1.7,0.4,2.6l2.6,14.2l0.3,2.1c0.1,0.8,0.7,1.3,1.6,1.7c0.2,0.1,0.5,0.1,0.8,0.2
		s0.6,0.1,0.9,0.2c0.1,0.1,0.3,0.1,0.5,0.1c0.3,0.1,0.7,0.1,1,0.1c0.2,0,0.4,0,0.5,0c0.5-0.1,1.1-0.1,1.6-0.1
		c0.4-0.1,0.7-0.1,1.1-0.1c0.2,0,0.4-0.1,0.5-0.1c0.4-0.1,0.7-0.1,1-0.2c0.4-0.1,0.7-0.1,1.1-0.2c0.4-0.1,0.7-0.1,1-0.2
		c0.4-0.1,0.8-0.2,1.1-0.3c0.1,0,0.2-0.1,0.2-0.1c-0.1,0-0.1,0-0.1,0c-0.1,0-0.1-0.1-0.2-0.1c0-0.1-0.1-0.2-0.1-0.3
		c-0.1-0.1-0.1-0.2-0.1-0.4c-0.1-0.1-0.1-0.3-0.1-0.4s-0.1-0.3-0.1-0.4c0-0.2-0.1-0.4-0.1-0.5s0-0.1,0-0.2c0-0.2-0.1-0.3-0.1-0.4
		c-0.1-0.2-0.1-0.3-0.2-0.4c-0.2-0.5-0.4-1.1-0.5-1.6c-0.2-0.5-0.4-1-0.5-1.6c-0.4-1.6-0.7-3.1-1-4.7c-0.2-1.6-0.5-3.2-0.8-4.8
		c-0.7-3.2-2.6-6-3-9.2c-0.1-0.4-0.1-0.7-0.1-1.1c-0.1-0.7-0.1-1.4-0.2-2c0-0.7-0.1-1.2-0.1-1.8s0-1.1,0-1.6s0-1,0.1-1.4
		c0.1-0.7,0.1-1.4,0.2-2c0.1-0.5,0.2-1.1,0.4-1.7c0.1-0.4,0.2-0.7,0.3-1.1c0.1-0.4,0.2-0.8,0.3-1.1c0.5-1.7,1.1-3.5,1.7-5.9
		c0.2-1,0.5-2.2,0.7-3.5c0.1-0.4,0.2-0.8,0.2-1.3c0.1-0.8,0.3-1.6,0.5-2.3c0.5-1.4,1.1-2.9,1.9-4.2c1-1.7,2.2-3.2,3.5-4.7
		c0.7-0.7,1.3-1.4,2-2.1c0.4-0.3,0.7-0.7,1.1-1c0.4-0.4,0.7-0.7,1.1-1c2.6-2.1,5.3-4,8.1-5.7c0.2-0.1,0.4-0.3,0.7-0.4
		c0.2-0.2,0.4-0.3,0.7-0.5c0.5-0.3,1-0.7,1.4-1c0.3-0.2,0.6-0.4,1-0.6c0.4-0.2,0.7-0.4,1-0.6c1-0.6,2-1.1,3-1.3
		c0.1,0.5-0.1,1-0.4,1.5s-0.7,0.9-1,1.3c-1.9,1.9-3.6,3.9-5.3,6.1c-4.9,6.5-8.5,14-9.7,22c-1.6,11.4,0.4,23.5,5.6,33.5
		c0.3,0.5,0.5,1.1,0.8,1.6s0.6,1.1,0.8,1.6c0.1,0.3,0.2,0.5,0.4,0.8c0.4,0.8,0.7,1.7,0.8,2.6c0,0.1,0,0.1,0,0.1c0.4,0,0.8,0,1.3,0
		c0.2-0.1,0.4-0.1,0.6-0.1c0.2,0,0.4-0.1,0.7-0.1c1.2-0.1,2.4-0.2,3.6-0.4c1-0.1,2-0.2,3-0.4c0.4-0.1,0.8-0.1,1.3-0.2
		c0.4-0.1,0.8-0.1,1.3-0.2c0.4-0.1,0.8-0.1,1.1-0.2c0.7-0.1,1.5-0.3,2.2-0.5c1.1-0.2,2.2-0.6,3.2-1c0.4-0.1,0.7-0.2,1-0.4
		c1.4-0.7,2.7-1.6,3.9-2.7c0.5-0.5,1.1-1.2,1.5-1.9c0.1-0.1,0.1-0.2,0.2-0.3c0.1-0.2,0.3-0.5,0.4-0.8c0.1-0.1,0.1-0.2,0.2-0.3
		c0.2-0.4,0.4-0.7,0.5-1.1c0.1-0.4,0.2-0.8,0.3-1.1c0.1-0.4,0.1-0.7,0.1-1.1c0-0.7-0.1-1.4-0.3-2.2c-0.1-0.4-0.2-0.7-0.3-1.1
		c-0.1-0.4-0.2-0.7-0.4-1.1c-0.2-0.4-0.3-0.7-0.4-1.1c-0.1-0.4-0.2-0.7-0.4-1.1c-0.9-2.6-1.9-5.4-2.3-8.2c0-0.2-0.1-0.4-0.1-0.6
		c0-0.1-0.1-0.1-0.1-0.2c-0.1-0.2-0.1-0.5-0.1-0.7c0-0.3-0.1-0.6-0.1-0.9c0-0.1,0-0.1,0-0.2c-0.1-0.4-0.1-0.9-0.1-1.3
		c-0.1-0.5-0.1-1-0.1-1.4c-0.1-0.5,0-1,0-1.5c0-0.1,0-0.2,0-0.4c0.3-4.2,0.9-8.4,1.9-12.4c0.2-1,0.5-2,0.8-3
		c0.8-2.5,1.7-4.8,2.8-7.2c0.5-1,1-1.9,1.4-2.7c0.5-0.9,1.1-1.8,1.6-2.6c1.1-1.7,2.3-3.3,3.7-4.8c1-1.1,2.1-2.3,3.3-3.3
		c0.8-0.7,1.6-1.3,2.5-2c0.4-0.4,0.9-0.7,1.3-1c0.9-0.6,1.8-1.2,2.7-1.7c0.5-0.2,1-0.5,1.4-0.8c0.9-0.4,1.7-0.8,2.6-1.2
		s1.8-0.7,2.7-1l0.7-0.2l0.4-0.1l0.4-0.1l1.1-0.2l0.7-0.2l0.4-0.1l0.2-0.1l-1.9,1.6c-0.4,0.3-0.7,0.6-1.1,1
		c-2.7,2.6-5.3,5.4-7.5,8.4c-1.1,1.6-2.1,3.2-3,4.8c-0.9,1.7-1.7,3.3-2.5,5.1c-3,6.9-4.4,14.6-3.8,22.1c0.1,0.6,0.1,1.2,0.2,1.8
		c0.2,1.2,0.3,2.4,0.5,3.6c0.2,1.2,0.5,2.4,0.8,3.5c0.4,1.7,1,3.5,1.6,5.1c0.9,2.3,2,4.7,3.2,6.8c0.3,0.5,0.7,1.2,1,1.9
		c0.1,0.1,0.1,0.2,0.2,0.4c0.4,0.8,1,1.6,1.6,2c0.2,0.2,0.4,0.3,0.6,0.4c0.6,0.2,1.3,0.2,2,0.2c0.2,0,0.4-0.1,0.7-0.1
		c0.3-0.1,0.6-0.1,0.9-0.1s0.6,0,0.9,0s0.6,0,0.9,0s0.6,0.1,0.9,0.1c0.5,0,1.1,0.1,1.7,0.1c2.6,0.2,5.3,0.5,7.8,0.1
		c0.3-0.1,0.5-0.1,0.8-0.2c0.8-0.2,1.6-0.4,2.3-0.8c0.2-0.1,0.5-0.2,0.7-0.4c1.6-0.8,3-2,4.4-3.2c0.2-0.2,0.5-0.5,0.8-0.8
		c0.5-0.7,1.1-1.3,1.6-1.9c0.1-0.1,0.2-0.2,0.3-0.4c0-0.2,0-0.5,0-0.8c0-0.1,0-0.1,0-0.1c0-0.1,0-0.2,0-0.4c0-0.1,0-0.1,0-0.1
		c0-0.2,0-0.4,0-0.5s0-0.2,0-0.2v-0.2c0.1-0.1,0.1-0.2,0.1-0.4c0-0.1,0-0.2,0-0.2c0.1-0.1,0.1-0.2,0.1-0.4c0-0.1,0-0.1,0-0.2
		c0-0.2,0.1-0.3,0.1-0.5c0-0.1,0-0.1,0-0.1c0-0.2,0.1-0.4,0.1-0.5c0.1-0.1,0.1-0.1,0.1-0.2c0.1-0.2,0.1-0.4,0.1-0.5s0-0.1,0-0.1
		c0-0.2,0.1-0.3,0.1-0.5c0.1,0,0.1-0.1,0.1-0.1c0.1-0.2,0.1-0.4,0.2-0.5c0.2-0.7,0.5-1.3,0.8-1.9c0.2-0.4,0.4-0.8,0.7-1.3
		c0.1-0.2,0.2-0.4,0.4-0.6c0.2-0.4,0.5-0.8,0.7-1.2c0.1-0.8,0.3-1.6,0.5-2.3s0.3-1.3,0.4-2c0.1-0.2,0.1-0.4,0.1-0.5s0.1-0.2,0.1-0.3
		s0-0.2,0-0.3c-0.1-0.4-0.1-0.8-0.2-1.2c0-0.1,0-0.1,0-0.1c0-0.2-0.1-0.5-0.1-0.7c-0.1-0.4-0.2-0.7-0.3-1c0.3-0.6,0.7-1.3,1-1.8
		s0.7-1.1,1.1-1.7c0.2-0.2,0.4-0.5,0.5-0.7c0.2-0.2,0.4-0.5,0.6-0.7c0.4-0.4,0.8-0.8,1.3-1.3c0.5-0.4,0.9-0.8,1.4-1.1
		c0.1-0.1,0.2-0.2,0.4-0.2c0.2-0.1,0.3-0.2,0.4-0.2c0.2-0.1,0.5-0.3,0.8-0.4c0.6-0.3,1.3-0.5,1.9-0.7c0.4-0.1,0.9-0.2,1.3-0.3
		c1.3-0.2,2.6-0.3,3.9-0.2c0.4,0.1,0.9,0.1,1.3,0.2c0.7,0.1,1.3,0.2,2,0.4c0.1,0.1,0.8,0.2,0.8,0.2l-0.7-0.5l-1.4-1l-0.7-0.5
		c-0.5-0.4-1-0.7-1.5-1.1c-2-1.4-4.2-2.7-6.5-3.5c-0.3-0.1-0.6-0.2-0.9-0.3c-0.6-0.2-1.2-0.3-1.8-0.4c-0.3-0.1-0.6-0.1-0.9-0.1
		c-0.6-0.1-1.1-0.1-1.7-0.1c0.1-0.1,0.1-0.2,0.2-0.3c0.2-0.2,0.4-0.5,0.6-0.7s0.4-0.5,0.7-0.7c0.1-0.1,0.2-0.2,0.4-0.4
		c0.1,0,0.1-0.1,0.1-0.1c0.2-0.2,0.4-0.4,0.5-0.5c0.2-0.2,0.4-0.3,0.6-0.5c0-0.1,0.1-0.1,0.1-0.1v0.1c2.6-2,5.4-2.9,8.3-2.9
		c0.5,0,1,0,1.4,0.1c1.7,0.1,3.3,0.5,5,1.1c1,0.4,1.9,0.8,2.7,1.3c0.2,0.1,0.4,0.2,0.7,0.4c1.3,0.8,2.5,1.7,3.5,2.8
		c4.1,4,6.6,9.3,9.1,14.5c0.3,0.8,0.7,1.6,1,2.3c0.1,0.1,0.2,0.3,0.2,0.4c0.2,0.3,0.4,0.6,0.5,0.8c0.1,0.1,0.2,0.2,0.4,0.4
		c0.8,0.7,1.8,0.7,2.8,0.7c0.1,0,0.2,0,0.3,0c0.5,0,1,0,1.5,0.1c-0.8-2.6-1.9-5.1-3.3-7.9C364.6,689.6,363.5,687.7,362.3,685.8z
		 M323.6,656.4C323.6,656.4,323.6,656.5,323.6,656.4C323.6,656.5,323.6,656.4,323.6,656.4z"/>
	<path class="st3" d="M776.8,683.2c-1.6-3.2-3.6-6.3-5.9-9.1c-2.3-2.8-4.9-5.4-7.8-7.6c-2.9-2.3-6-4.2-9.2-5.8l-4.8-2.2
		c-0.5-0.5-1-1-1.6-1.4c-1.2-1-2.5-2-3.9-2.7c-5.7-3.2-12.1-5-18.5-6c-3.2-0.5-6.5-0.9-9.7-1.1c-2.1-0.1-4.2,0-6.4-0.4
		c-2.3-0.4-4.5-1.4-6.9-1.6c-1-0.1-1.9,0-2.7,0.1c-7.4,0.8-14.9,1.9-22.1,4.1c-3.6,1.1-7.2,2.5-10.5,4.1c-3.3,1.7-6.2,4-9.5,5.3
		c-0.8,0.3-1.6,0.7-2.4,1c-17.2,7.4-32.6,21.9-38.5,39.9c1.6-0.4,3.4,0.2,4.7-0.8c0.5-0.4,0.8-1,1.1-1.6c2.8-6,5.5-12.2,10.2-16.8
		c5.7-5.7,14.8-7.9,21.6-2.7v-0.1c0,0.1,0.1,0.1,0.1,0.1c0.4,0.3,0.8,0.7,1.1,1c0.1,0,0.1,0.1,0.1,0.1c0.1,0.1,0.2,0.2,0.4,0.4
		c0.4,0.4,0.8,0.8,1.2,1.3c0.1,0.1,0.1,0.2,0.2,0.3c-0.6-0.1-1.1,0-1.7,0.1c-1.2,0.1-2.4,0.4-3.6,0.8c-2.3,0.8-4.5,2.2-6.5,3.5
		c-0.5,0.4-1,0.7-1.5,1.1l-0.7,0.5l-1.4,1l-0.7,0.5l0.8-0.2c3.6-1,7.1-1,10.5,0.6c0.2,0.1,0.5,0.3,0.8,0.4c0.2,0.2,0.5,0.3,0.8,0.5
		c0.5,0.3,1,0.7,1.4,1.1c0.9,0.8,1.7,1.7,2.5,2.7c0.8,1.1,1.4,2.3,2,3.5c-0.1,0.3-0.2,0.7-0.3,1c0,0.2-0.1,0.4-0.1,0.7
		c0,0.1,0,0.1,0,0.1c-0.1,0.4-0.1,0.8-0.2,1.2c0,0.1,0,0.2,0,0.3c0.1,0.1,0.1,0.2,0.1,0.3c0.1,0.2,0.1,0.4,0.1,0.5
		c0.1,0.7,0.3,1.3,0.4,2c0.1,0.8,0.3,1.6,0.5,2.3c1,1.6,2,3.2,2.6,5c0.1,0.2,0.1,0.4,0.2,0.5c0.1,0,0.1,0.1,0.1,0.1
		c0.1,0.2,0.1,0.3,0.1,0.5c0,0.1,0,0.1,0,0.1c0.1,0.2,0.1,0.4,0.1,0.5c0.1,0.1,0.1,0.1,0.1,0.2c0,0.2,0.1,0.3,0.1,0.5
		c0,0.1,0,0.1,0,0.1c0,0.2,0.1,0.3,0.1,0.5c0,0.1,0,0.1,0,0.2c0.1,0.1,0.1,0.2,0.1,0.4c0,0.1,0,0.2,0,0.2c0.1,0.1,0.1,0.2,0.1,0.4
		c0,0.1,0,0.2,0,0.2c0,0.1,0,0.2,0,0.2c0,0.2,0,0.4,0,0.5s0,0.1,0,0.1c0,0.1,0,0.2,0,0.4c0,0.1,0,0.1,0,0.1c0,0.2,0,0.5,0,0.8
		c0.1,0.1,0.2,0.2,0.3,0.4c0.5,0.7,1,1.3,1.6,1.9c0.2,0.2,0.5,0.5,0.8,0.8c2.2,1.9,4.4,3.6,7.4,4.3c4.5,1,9.3-0.4,13.9-0.1
		c0.9,0.1,1.9,0.2,2.7-0.1c1.6-0.7,2.6-3.2,3.4-4.7c1.3-2.2,2.3-4.5,3.2-6.8c1.7-4.5,2.7-9.2,3-14c0.5-7.5-0.8-15.2-3.8-22.1
		c-1.6-3.5-3.4-6.8-5.6-9.9c-2.2-3-4.7-5.9-7.5-8.4c-0.4-0.4-0.7-0.7-1.1-1l-1.9-1.6l0.2,0.1l0.4,0.1l0.7,0.2l1.1,0.2l0.4,0.1
		l0.4,0.1l0.7,0.2c1.9,0.5,3.6,1.3,5.3,2.2c15.7,8.2,22.5,24.7,23.5,41.5c0,0.1,0,0.2,0,0.4c0,0.5,0,1,0,1.5s0,1-0.1,1.4
		s-0.1,0.9-0.1,1.3c0,0.1,0,0.1,0,0.2c0,0.3-0.1,0.6-0.1,0.9c-0.1,0.2-0.1,0.6-0.2,0.8c0,0.2,0,0.4-0.1,0.6
		c-0.4,2.7-1.4,5.5-2.3,8.2c-0.9,2.9-2.6,5.6-1.4,8.6c2.5,6.3,8.1,8.4,14.2,9.3c0.8,0.2,1.6,0.2,2.5,0.4c1,0.2,2,0.3,3,0.4
		c1.2,0.1,2.4,0.2,3.6,0.4c0.2,0,0.4,0.1,0.7,0.1c0.2,0,0.4,0.1,0.6,0.1c0.4,0,0.8,0,1.3,0c0-0.1,0-0.1,0-0.1
		c0.5-2.4,1.8-4.5,2.9-6.6c5.2-10,7.2-22.1,5.6-33.5c-1.5-10.6-7.5-20.4-14.9-28c-0.7-0.8-1.5-1.7-1.4-2.7c2.6,0.7,5.4,2.9,7.8,4.3
		c2.8,1.7,5.6,3.6,8.1,5.7c4.7,3.9,9,8.8,10,15.1c1.8,11.8,5.1,12.5,3.5,24.4c-0.4,3.2-2.3,6-3,9.2c-0.9,4.4-1.1,8.5-2.8,12.8
		c-0.1,0.2-0.2,0.5-0.3,0.8s-0.2,2.5-0.8,2.3c2.1,0.7,12.4,2.7,12.9-1l0.3-2.1l2.6-14.2c2.5-14,2.9-28-3.5-41.1
		c-1.3-2.8-3.7-8.1-5.5-9.8c0.2,0.2,0.4,0.4,0.7,0.6c3.5,3.3,6.8,6.4,9.3,10.5c3,4.8,5.6,10.2,7.6,15.4c0.1,0.4,0.3,0.8,0.4,1.3
		c0.5,1.7,1,3.5,1.4,5.2c0.7,3.5,1.1,7.1,1.1,10.6c-0.1,3.5-0.5,7.1-1.3,10.5c-0.2,1-0.5,2.1-0.8,3.1c0.3-0.1,0.6-0.2,0.9-0.3
		c0.9-0.4,1.7-1,2.3-1.7s1.1-1.4,1.6-2.3c0.4-0.8,0.8-1.7,1.1-2.6c0.1-0.4,0.2-0.9,0.4-1.3C783.2,707.2,782.1,694.1,776.8,683.2z"/>
</g>
</svg>
