<?xml version="1.0" encoding="utf-8"?>
<!-- Generator: Adobe Illustrator 24.0.1, SVG Export Plug-In . SVG Version: 6.00 Build 0)  -->
<svg version="1.1" id="New_group_copy" xmlns="http://www.w3.org/2000/svg" xmlns:xlink="http://www.w3.org/1999/xlink" x="0px"
	 y="0px" viewBox="0 0 990 781.2" style="enable-background:new 0 0 990 781.2;" xml:space="preserve">
<style type="text/css">
	.st0{fill:#E3706A;}
	.st1{fill:#535358;}
	.st2{fill:#F7AB52;}
	.st3{fill:#FFFFFF;}
	.st4{fill:#B37329;}
</style>
<g>
	<path d="M501.1,711.2c-69.6,0-139.2,0-208.7,0c-0.7,0-1.4,0.1-2.2,0c-2.1-0.2-3.4,0.5-4.5,2.3c-1.8,3-4.7,5.2-7.2,7.7
		c-2.3,2.3-4.8,4.3-7.7,5.7c-2,1-2.9,2.5-3.2,4.7c-0.4,3.5-1.3,6.9-3.3,9.9c-2.7,4.2-7.3,5.1-11.3,2c-4.6-3.6-7.7-8.2-9.6-13.7
		c-0.5-1.6-1-3.2-1.8-4.7c-0.6-1.1-1.3-2.2-2.4-3c-1.3-0.9-2-0.7-2.6,0.7c-0.2,0.5-0.4,1.1-0.6,1.6c-1.5,3.5-4,6.1-7.6,7.7
		c-1.6,0.7-3.1,1.6-4.6,2.6c-1.3,0.9-1.9,2-1.8,3.7c0.2,3.3-0.2,6.5-1.1,9.7c-0.5,1.9-1.2,3.6-2.3,5.3c-2.1,3.2-5.2,3.9-8.5,2.1
		c-2.4-1.3-4.4-3.2-6.3-5.1c-1.2-1.1-2.3-2.3-3.4-3.3c-0.6-0.6-1.2-0.4-1.4,0.4c-0.1,0.2-0.2,0.5-0.2,0.7c-0.7,4-2.4,7.6-4.9,10.8
		c-1.7,2.2-3.3,3-6,2.3c-6.1-1.7-11.1-4.9-15.4-9.7c-3.7-4.1-7.1-8.4-10.1-13c-0.8-1.2-1.8-2.1-3-2.8c-7.7-4.4-13-11-17.5-18.4
		c-1.4-2.3-2-5.1-2.8-7.6c-4-11.6-3-23.3-0.5-35c0.6-2.9,1.6-5.7,2.5-8.5c2.3-6.7,6.6-12.1,11.9-16.6c7.3-6.2,14.7-12.3,22.7-17.7
		c12.5-8.5,26.3-13.3,41.2-15.3c12.3-1.6,24.4-0.6,36.5,1.6c6.1,1.1,12.3,2.3,18.2,4.3c1.8,0.6,2.1,0.4,2.8-1.5
		c2.3-5.9,4.6-11.8,7.1-17.6c1.1-2.5,2.1-5,3.4-7.4c4.8-8.9,8.3-18.3,11.8-27.8c1.9-5.2,4.4-10.3,5.9-15.7c1.3-4.9,2.1-9.9,2.6-14.9
		c0.2-1.7-0.3-3.5-0.9-5.2c-2.5-7.9-4.7-15.8-5.9-24c-0.9-6.3-1.3-12.6-1.7-18.9c-0.5-8-0.5-16-0.5-24c0-8.3,1.4-16.4,3.4-24.4
		c0.2-0.6,0.3-1.2,0.5-1.8c0.8-2.2,0.5-3.9-1.7-5.3c-1.6-1-2.9-2.5-4.1-4.1c-1.9-2.5-2.4-5.2-0.9-8.1c1.1-2.2,2.5-4.3,4-6.3
		c3.7-5.2,7.4-10.4,11.2-15.6c1.6-2.2,2.8-4.6,3.1-7.4c0.3-3,1.6-5.8,2-8.9c0.2-1.8,0.3-3.7,0.3-5.5c0-1.4-0.6-2.1-1.9-2.3
		c-0.6-0.1-1.2-0.3-1.9-0.5c-1.2-0.3-2.2-0.9-3.1-1.7c-2.2-1.9-2.8-4.2-1.7-6.9c0.6-1.6,1.7-2.9,2.8-4.1c2.5-2.8,4.3-6,5.7-9.4
		c0.9-2.2,1.1-4.5,1-6.8c-0.1-1.8-0.5-2.1-2.2-1.7c-0.8,0.2-1.5,0.5-2.3,0.6c-1.4,0.2-2.7,0.2-4-0.4c-2.2-1.1-2.5-1.9-1.5-4.1
		c1.4-3,2.6-6.2,4.4-9.1c0.9-1.4,0.6-1.8-1.1-2.2c-0.6-0.2-1.3-0.3-1.8-0.5c-3.1-1.2-4.4-4.1-3.3-7.2c0.5-1.3,1.2-2.6,1.8-3.9
		c2.6-6,3.8-12.3,4.8-18.8c0.7-4.6,0.8-9.2-0.1-13.8c-1-4.9-2.8-9.5-5.3-13.8c-0.8-1.3-1.9-2.2-3.4-2.4c-2.3-0.3-3.9-1.6-5.1-3.6
		c-4.3-6.8-6.7-14.1-6.7-22.2c0-2.2-0.1-4.5,0-6.7c0.1-4-0.8-7.8-2.6-11.3c-1.1-2.2-1.8-4.4-2.4-6.8c-1.7-6.7-2.9-13.4-3.9-20.2
		c-1.1-7.4-3.6-14.6-6.8-21.4c-2.2-4.9-4.7-9.6-6.4-14.7c-1.8-5.4-2-10.8-1.4-16.3c0.7-6.3,2.1-12.4,3.3-18.6
		c3.7-18.8,7.2-37.7,9.9-56.7c1.1-7.4,2.3-14.9,4.7-22c1.9-5.5,4.2-10.9,7.3-15.9c4-6.4,9.8-10.2,17.4-11c1-0.1,2.1-0.1,3.1,0.1
		c3,0.5,5.9,1.5,8.8,2.3c0.6,0.2,1.2,0.4,1.7,0.8c3.9,3,8.4,4.9,12.4,7.7c2.2,1.6,4.4,3.2,6.4,5c2.3,2.1,4.8,4,7.4,5.7
		c5.4,3.4,9.8,7.9,14.4,12.2c13,12.4,22.1,27.7,31.6,42.7c4.9,7.9,9.9,15.7,14.9,23.5c7,11,14.6,21.6,21.3,32.8
		c0.4,0.6,0.8,1.2,1.2,1.8c0.6,0.9,1.2,1,2.2,0.7c3.6-1.3,6.5-0.4,8.9,2.6c1.5,1.8,2.4,3.8,2.8,6c0.6,3.2,1.2,6.4,1.5,9.7
		c0.1,1.7,0.6,2.1,2.1,1.6c7.3-2.4,14.9-2.9,22.4-3.9c5.2-0.7,10.3-1.1,15.5-1.2c5.5-0.1,11-0.7,16.5-1c5.6-0.3,11.2-0.7,16.8-0.6
		c1.8,0,3.5-0.2,5.3-0.3c3.8-0.2,7.7,0.3,11.5,0.5c2.2,0.1,4.3,0,6.1-1.4c0.9-0.7,2-1,3.1-1.2c4.4-0.4,8.6-2,13-2.3
		c1.2-0.1,1.8-0.8,2.3-1.9c2.3-5.4,5.7-10.2,8.9-15c1-1.5,2.3-2.9,3.7-4c2.2-1.6,4.4-1.7,6.7-0.4c0.4,0.2,0.8,0.5,1.2,0.8
		c1.3,0.9,1.7,0.9,2.5-0.5c1.7-2.7,3.3-5.5,5-8.2c3.8-6.3,7.4-12.7,11.3-18.9c4.4-7.1,9.8-13.5,14.8-20.1
		c5.9-7.8,12.2-15.2,18.5-22.7c8.8-10.3,18-20.1,29.2-27.9c6.6-4.6,13.4-9,20.6-12.8c5.8-3.1,11.7-5.9,18-7.7
		c4.6-1.4,9.2-1.6,14-0.6c5.7,1.2,9.9,4.3,12.6,9.5c4.2,8.1,7.4,16.4,8.8,25.5c0.8,5.1,1.9,10.1,3.3,15c2.4,8.1,3.5,16.4,4.6,24.7
		c1.5,11.5,1.4,23.1,0.9,34.7c-0.6,12.5-2.2,25-4.4,37.4c-1.5,8.3-3,16.7-5.9,24.7c-2.3,6.2-5,12.3-8.9,17.7
		c-4,5.7-7.6,11.7-11.1,17.7c-4.3,7.4-6.8,15.5-9.2,23.6c-0.8,2.5-1.5,5.1-2.2,7.6c-0.7,2.4-0.5,2.8,1.8,3.7
		c1.3,0.5,1.4,1.5,1.3,2.5c-0.4,3.4-1.1,6.7-2.9,9.5c-3.1,4.8-6.1,9.8-9.1,14.7c-1,1.7-2.3,3.2-3.8,4.6c-1.6,1.4-1.6,1.6-0.8,3.4
		c1.3,2.9,2.6,5.8,3.9,8.7c0.3,0.6,0.5,1.2,0.7,1.8c1,3.1-0.9,5.8-4.2,6c-0.4,0-0.8,0-1.2,0c-1.2-0.1-1.7,0.6-2,1.6
		c-0.2,0.9-0.3,1.9-0.2,2.9c0.4,3.7,0.8,7.5,1.3,11.2c0.6,4.5,1.8,8.9,3.4,13.2c0.7,1.9,1.3,3.9,2.1,5.9c1.1,2.9-1.2,5.1-4.2,4.5
		c-0.9-0.2-1.8-0.6-2.7-0.9c-2.3-0.8-3.6,0-3.8,2.4c-0.2,2.1-0.1,4.1,0.3,6.2c1.4,7.9,4.4,15.2,8.6,22c3.2,5.1,6.3,10.2,10.2,14.8
		c2.5,3,2,4.5-1.9,5.4c-3.2,0.7-6.4,1.6-9.6,1.9c-1.7,0.2-1.9,0.5-1.3,2.2c1.3,3.7,2.8,7.3,4,11c1.9,6,5.6,10.9,9.4,15.8
		c1.9,2.4,4,4.8,5.7,7.4c1.9,2.9,1.4,4.5-1.7,6.2c-1.1,0.6-2.2,1-3.3,1.4c-2.6,1-5.2,1.1-7.6-0.5c-0.4-0.3-0.9-0.6-1.3-0.3
		c-0.6,0.4-0.3,1-0.1,1.5c1.1,2.9,2.4,5.8,4.2,8.3c3.2,4.4,5.6,9.1,7.6,14.1c1.7,4.2,3.7,8.3,6,12.3c3.1,5.5,5.4,11.4,7.8,17.3
		c4.1,9.9,7.7,20,10,30.5c0.4,1.9,0.8,3.8,1,5.7c0.5,5.2,1.6,10.3,2.7,15.3c1.5,6.8,2.4,13.7,2.1,20.7c-0.1,2.6,0.7,4.7,2.6,6.4
		c5.6,5,9.9,11.1,14.1,17.2c2.2,3.2,3.8,6.7,5.7,10c0.5,0.9,1,1.8,1.4,2.8c0.5,1,1.2,1.3,2.3,1.2c5.1-0.5,10.2-0.5,15.3-0.2
		c9.5,0.7,18.8,2.8,27.8,5.9c12.7,4.4,23.8,11.6,34.8,19.1c3.6,2.5,6.6,5.5,9.2,9c5.5,7.4,10.8,14.9,15,23.1
		c0.3,0.6,0.5,1.2,0.8,1.7c2.5,5.1,3.1,10.3,2,15.9c-1.5,8.5-3.9,16.7-7,24.6c-1.4,3.6-3.9,6.6-6.3,9.6c-3.4,4.2-7.3,7.8-12.1,10.5
		c-1.6,0.9-2.7,2.2-3.6,3.7c-2.9,4.8-6.5,9.1-10.3,13.2c-4.1,4.4-9.1,7.5-15.1,8.7c-2.3,0.5-3.7-0.3-5.1-2.1
		c-2.7-3.4-4.5-7.2-5.2-11.4c-0.2-1.3-0.7-1.4-1.7-0.5c-1.8,1.6-3.5,3.2-5.3,4.9c-1.3,1.2-2.7,2.3-4.2,3.2c-2.9,1.7-6,1.2-8.1-1.4
		c-0.8-1-1.4-2.1-1.9-3.3c-1.2-3.5-2.3-7-1.9-10.8c0.3-3.2-1.1-5.2-3.9-6.4c-1.1-0.5-2.1-1.1-3.2-1.6c-3.5-1.7-5.9-4.3-7.2-8
		c-0.1-0.4-0.3-0.8-0.4-1.1c-0.6-1.3-1.2-1.5-2.4-0.7c-1.3,1-2.3,2.3-2.9,3.8c-0.6,1.3-1.1,2.7-1.5,4c-1.8,5.4-5,9.7-9.3,13.4
		c-4.5,3.9-9.4,1.9-11.7-1.9c-1.6-2.7-2.7-5.7-3-8.8c-0.3-3-1.5-5-4.3-6.3c-2.5-1.1-4.5-3-6.5-4.9c-2.1-2-4.1-4.1-6.1-6.1
		c-0.5-0.5-1.1-1-1.3-1.7c-0.9-2.3-2.7-2.5-4.8-2.5c-60.3,0-120.6,0-180.9,0C520.8,711.2,510.9,711.2,501.1,711.2z"/>
</g>
<g>
	<path class="st0" d="M482.4,523.4c-0.1-1.5-1.8-2.1-2.1-3.5c0-0.1-0.1-0.2-0.1-0.3c-0.4-0.6-0.9-0.7-1.3-0.1
		c-1.1,1.3-2.3,2.6-3.4,3.8c-4.5,5-10,7.5-16.8,7c-0.7-0.1-1.3-0.1-2.1-0.1c-0.6,0-1.1,0.4-1.1,1c-0.4,2.5-0.6,5-0.1,7.5
		c0.6,2.7,1.1,5.4,1.6,8.1c0.6,3.6,1.8,7.1,3.3,10.4c0.7,1.6,1.4,3.1,2.1,4.7c3.8,8.4,10.5,14,18.7,17.7c2.9,1.3,6,2.1,9.2,2.6
		c0.4-0.1,0.8-0.1,1.2-0.1c0.6,0,0.9,0.2,1.3,0.6c1,0.1,2,0.3,3,0.5c4.4,0.7,8.7,0.1,12.9-0.8c4.5-1,7.5-4,8.5-8.4
		c0.8-3.3,1.8-6.4,2.8-9.5c1.7-4.9,2.6-9.9,2.1-15.1c-0.4-5.1-0.5-10.3-0.2-15.4c0.1-1.1,0-2.3,0-3.4c0-0.9-0.4-1.4-1.3-1.6
		c-3-0.6-6-1.3-9-2.1c-4.5-1-8.7-2.9-12.5-5.5c-0.9-0.6-1.8-1.3-3.1-2.1c-0.4,0.6-0.6,0.9-0.7,1.2c-0.2,0.8-0.4,1.6-0.5,2.3
		c-1.2,8-1.8,16.1-2,24.2c-0.1,2.2-0.1,4.3,0,6.5c0.1,1.6-0.4,3.2-0.9,4.7c-0.2,0.6-1.2,0.9-1.7,0.4c-0.4-0.4-0.9-0.8-1.1-1.3
		c-0.5-1.1-0.9-2.3-1.3-3.5c-2.3-8.7-4.1-17.3-5.2-26.2C482.7,526.1,482.6,524.7,482.4,523.4z"/>
</g>
<g>
	<path class="st1" d="M723.4,159.2c-0.1-1.7-0.1-3.4-0.3-5.1c-0.5-7.1-1.1-14.1-1.3-21.2c-0.4-9.5-1.6-18.9-3.8-28.2
		c-0.7-3-0.6-5.7,0.5-8.7c2.3-6,2.9-12.2,2.9-18.5c0-5-1.3-9.7-4.1-13.9c-4-5.9-9.8-8.2-16.5-7.7c-6.1,0.4-11.5,2.9-16.3,6.7
		c-5.2,4.2-9.7,9-13.8,14.3c-0.6,0.7-1.1,1.5-1.5,2.3c-0.5,0.9-0.6,1.7-0.4,2.6c0.3,1.1,1.1,1.8,2.1,1.9c0.7,0.1,1.4,0,2-0.4
		c0.7-0.4,1.5-0.6,2.3-0.6c2-0.1,3.8-0.9,5.5-1.8c2.4-1.3,4.8-2.7,7.2-4c3-1.6,7.4-2.3,10.6-1.9c0.1,1.6-0.7,2.8-1.5,4.1
		c-0.9,1.3-1.8,2.6-2.8,3.9c-0.9,1.3-1.8,2.7-2.4,4.1c-1.8,4-3.8,8-5.2,12.3c-0.6,1.8-1.5,3.6-2.1,5.4c-0.7,1.9-2,3.3-3.6,4.5
		c-1.9,1.3-3.9,2.3-6.1,3.1c-3.5,1.3-7,3-9.9,5.3c-0.5,0.4-1.3,0.6-1.2,1.6c0.4,0.4,0.7,1,1.1,1.6c1.6,2.4,1.6,5,0.7,7.5
		c-0.6,1.9-1.8,3.5-3.5,4.5c-4,2.7-8.1,5.3-12.6,6.7c-1.9,0.6-3.6,1.3-5.1,2.7c-1.3,1.1-2.7,2.1-4,3.2c-8,6.5-14.1,14.7-18.7,23.8
		c-1.3,2.4-2.2,5-2.8,7.7c-0.2,0.9-0.3,1.8-1,2.4c-0.9-0.4-1-1.2-1.4-1.9c-1.3-2.1-2.7-4-4.3-5.7c-1-1-2.1-1.8-3.3-2.3
		c-4-1.5-7.8,1.1-7.9,5.3c0,0.4,0,0.7,0.1,1c0.4,3.8,1.7,7.1,4.4,9.8c1.3,1.3,2.7,2.4,4.3,3.5c3.8,2.5,6.3,5.9,7.8,10.2
		c0.6,1.6,1.1,3.3,1.8,4.8c0.6,1.1,0.6,2.1-0.1,3.3c-0.4,0.7-0.7,1.4-1.1,2.1c-0.8,1.7-1.1,3.5-1.1,5.3c0,1.1,0.4,2,1.6,2.4
		c2.9,1.1,6,1.5,9.1,1.3c0.6-0.1,1.1-0.4,1.1-1.1c0.1-0.8,0.1-1.6,0.2-2.4c0.1-2.8,0.4-5.7,1.1-8.5c0.3-1.3,0.4-2.5,0.1-3.7
		c-0.3-1.1-0.1-2.3,0-3.4c0.4-3.1,1.6-6,3.2-8.6c4.4-7.2,8.9-14.4,13.3-21.6c1-1.6,2.2-3.2,3.5-4.7c3.2-3.7,6.4-7.5,9.4-11.4
		c2.1-2.8,4.8-5.3,7.7-7.3c2.2-1.5,4.5-2.6,7.1-3.3c3.8-1,6.9,0.9,7.8,4.7c0.4,1.3,0.5,2.7,0.3,4.1c-0.3,1.8-0.6,3.6-0.9,5.4
		c-0.2,1.3-0.6,2.7-0.1,4c1.1,3.3,0.4,6.3-1,9.3c-0.4,0.9-0.9,1.8-1.3,2.8c-1.2,2.2-2,4.6-2.6,7.1c-1.1,5.4-2.4,10.7-3.3,16.1
		c-1.2,6.8-4.5,12.1-10.5,15.7c-1.3,0.8-2.5,1.6-3.7,2.5c-5.5,4-10.4,11.4-12,17.9c-0.9,3.3-1.3,6.7-1.7,10.2
		c-0.2,1.7-1.2,3.5-0.4,5c0.7,1.5,2.1,2.6,3.3,3.8c1.9,1.9,4.3,2.9,7,3.4c1.1,0.2,2,0,2.7-0.9c1.5-1.9,3.3-3.4,5.5-4.5
		c2.3-1.2,3.9-3.1,5-5.5c2.5-5.3,4.2-10.9,5.3-16.6c1.2-6.3,3.1-12.4,3.8-18.8c0.1-1.1,0.4-1.8,1.8-2.1c0.6-0.1,1-0.9,1.4-1.4
		c3.9-4.5,6.8-9.7,9.1-15.3c1.8-4.2,3.3-8.5,4.8-12.8c1.8-5.2,2.6-10.6,3.7-16c0.9-4.5,1.7-8.9,2.4-13.4c0.9-5.3,1.6-10.6,2.3-16
		l0,0c0.4-4.1,0.5-8.2,0.8-12.3c0.1-2.3,0.4-4.4,2.3-6c1.3,2.8,2.1,5.8,2.8,8.8c1.9,8.3,2.4,16.8,2.6,25.2c0,0.8-0.1,1.6-0.1,2.4
		c-0.7,8.6-0.6,17.1-0.7,25.7c-0.1,4.6-0.4,9.2-1.4,13.6c-1.2,4.9-2.6,9.7-3.5,14.6c-0.9,4.4-2.1,8.7-3.5,12.9
		c-0.3,0.9-0.6,1.9-0.9,2.8c1.7-1.3,2.1-3.4,3.3-5c0.6-0.9,0.8-2.1,1.8-2.8c0.6,0.6,0.3,1.1,0.3,1.7v-0.1c1.1-0.7,1.1-1.9,1.6-3
		c0.8-2.1,1.6-4.3,2.6-6.3c4.7-9.2,8.3-18.8,11.1-28.7C722.9,169.7,723.8,164.5,723.4,159.2z"/>
	<path class="st1" d="M700.8,219.3V219v0.1V219.3z"/>
	<path class="st1" d="M322.2,267.8c0.5,0.3,1,0.6,1.5,0.8c0.4,0.1,0.7,0,0.9-0.4c1.1-3.3,1.8-4.1-0.7-7.2c-0.4-0.5-0.9-1-1.3-1.6
		c-1.4-1.8-2.9-3.5-4.3-5.4c-2.1-2.9-3.5-6.2-4-9.7c-0.5-3.1,0.4-5.7,3.1-7.5c0.5-0.3,1.1-0.5,1.4-0.9c0.8-1.1,1.7-1.2,3-0.9
		c4.8,1.6,9.7,2.6,14.8,2.8c1.3,0.1,2.5,0.4,3.6,1.1c2.7,1.6,5.3,3.1,7.8,5c2.8,2.1,4.5,4.8,5.4,8.1c0.3,1.2,0.4,2.5,0.7,3.7
		c0.1,0.6,0,1.3,0.6,1.6c0.8,0.4,1.3-0.4,1.7-0.8c1.6-1.6,3.3-3.2,4.8-4.8c2.5-2.7,5-5.3,7.7-7.7c3.2-2.8,6.3-5.6,9.5-8.4
		c2.1-1.9,4.3-3.8,6.7-5.3c0.9-0.6,1.6-1.3,1.9-2.3c0.4-1.1,0.7-2.2,0.7-3.3c0.1-2.8,0.2-5.5,0.3-8.2c0.1-2.2-0.6-4.3-1.3-6.3
		c-0.4-1.1-1.1-1.9-2.1-2.6c-2.4-1.6-4.7-3.3-7-4.9c-2.9-2.1-5.3-4.7-7.7-7.4c-1-1.1-1.3-2.4-0.7-3.8c0.7-1.6,2.1-2.1,3.6-2.1
		c0.6,0,1.1,0.1,1.7,0.2c2.4,0.2,4.7,1,7,1.6c0.6,0.2,1.1-0.1,1.2-0.8c0.1-0.4,0.1-0.6,0.2-1c1.3-7.6,1.5-15.3,0.9-22.9
		c-0.4-4.8-0.8-9.6-1.2-14.3c-0.2-2.8-0.6-5.7-1.2-8.5c-1.9-8.4-4.6-16.5-7.7-24.5c-1.8-4.5-4.7-8.1-8.7-10.8
		c-1.3-0.9-2.8-1.7-3.5-3.1c-0.9-1.9-2.7-2.8-4.3-3.8c-3.8-2.5-8.6-0.4-9.7,4c-0.4,1.8-0.5,3.6-0.3,5.5c0.3,3,0.9,5.9,1.5,8.8
		c0.8,3.7-0.4,5.9-4,7.3c-3.4,1.4-6.9,1.6-10.4,0.2c-3.8-1.5-7-3.8-9.5-7.1c-1.8-2.4-3.2-5-4.2-7.8c-0.6-1.7-1.1-3.5-1.7-5.2
		c-0.4-1-0.6-2-1.1-2.8c-0.8-1.5-1.8-1.8-3.4-1.3c-2.3,0.7-3.3,2.1-3.3,4.6c0.1,2.9,1,5.7,2.7,8c2.3,3.3,2.7,6.6,1.6,10.4
		s-1.4,7.6-1.4,11.5c0,3.5,0.4,7.1,0.8,10.6c1.1,9.4,4.4,18,10.3,25.4c1.3,1.7,2.7,3.4,4,5.2c3.8,5.2,6.8,10.8,9.2,16.8
		c1.6,3.8,0.7,7.3-0.2,10.9c-1.2,0-1.7-0.9-2.4-1.4c-2-1.5-4.1-2.9-6.5-3.7c-1.3-0.4-2.7-0.6-4-0.1c-1.6,0.6-2.1,2.3-1.1,3.7
		c0.7,1,1.6,1.6,2.7,2.1c2.8,1.2,4.9,3.3,7.1,5.3c4,3.7,5.4,8.7,6.5,13.7c0,0.1,0,0.2,0,0.4c-0.1,0.4-0.4,0.6-0.7,0.5
		c-0.4-0.1-0.9-0.4-1.3-0.6c-3.6-2-7.5-2.8-11.5-2.9c-1.8-0.1-3.6-0.4-5.5-0.6c-0.9-0.1-1.5-0.6-1.9-1.3s-0.9-1.3-1.2-2.1
		c-2.3-4.3-4.1-8.7-5.5-13.3c-1.2-4.2-2.4-8.3-3.7-12.5c-3.3-11.2-5.5-22.6-6.5-34.3c-1.2-14.6-1.8-29.2-0.8-43.9
		c0.6-8.4,1.6-16.8,3.1-25.2c1.6-8.4,4-16.7,6.8-24.8c0.4-1,0.7-1.9,0.9-2.9c0.3-1.6-0.3-2.9-1.6-3.8c-1.3-0.9-2.6-0.8-3.9-0.1
		c-0.7,0.4-1.3,0.9-1.9,1.5c-2.5,3-5,5.9-6.7,9.5c-2.6,5.5-4,11.4-5,17.4c-0.9,5.1-1.3,10.2-2.3,15.3c-1.5,7.7-2.6,15.5-2.5,23.5
		c0,1.6,0,3.2-0.1,4.8c-0.6,7.1-0.5,14.2-0.5,21.2c0.1,13.8,1.6,27.4,4.5,40.8c2.2,10.4,4.5,20.7,6.8,31.2c0.2,1.1,0.6,1.9,1.3,2.7
		c2.1,2.4,3.2,5.3,3.8,8.3c1,4.8,1.7,9.7,1.9,14.6c0.1,1.7,0.4,3.4,1.2,5c1.5,2.8,3.3,5.3,5.7,7.2
		C316.1,263.8,319,265.9,322.2,267.8z"/>
	<path class="st1" d="M516.9,408c-5.5-3.7-11.5-5.5-18-5.6c-2.3,0-4.5,0-6.9-0.1c-5.2-0.4-10.3,0.2-15.3,1.3
		c-6.6,1.5-13,3.5-19.4,5.5c-2.8,0.9-5.1,2.3-7.3,4.3c-2.2,2-2.9,4.5-3.5,7.2c0.9-0.1,1.2-0.6,1.6-1c1.6-1.6,3.4-3,5.4-4.2
		c2.4-1.4,4.9-1.9,7.5-0.5c0.5,0.3,1.1,0.4,1.6,0.6c0.7,0.3,1.3,0.6,0.8,1.5c-0.2,0.4-0.3,0.9-0.2,1.3c0.4,1.7-0.3,3.1-1.1,4.5
		c-0.5,0.8-1.1,1.5-1.5,2.3c-0.4,0.6-0.8,1.1-1,1.8c-0.6,1.9,0.5,3.7,2.6,3.8c2.6,0.1,5.3,0,7.8-0.5c7.5-1.5,14.8-3.6,22.4-4.8
		c6.6-1.1,13.1-1.5,19.7,0.1c1.9,0.5,3.8,1,4.9,2.8c0.2,0.4,0.6,0.3,0.9,0.1c0.4-0.2,0.3-0.6,0.1-0.9c-0.4-1.1-0.9-2.1-1.2-3.2
		c-1-3.3,0.6-6.5,3.8-7.8c0.6-0.2,1.3-0.3,2-0.4c1-0.2,1.2-0.6,0.7-1.3C521.5,412.2,519.5,409.8,516.9,408z"/>
	<path class="st1" d="M508.9,467c-2.3,0.3-4.8,0.5-7.1,0.8c-0.2,0-0.4,0.1-0.5,0.3c-0.1,0.4,0.1,0.6,0.5,0.8
		c2.5,1.1,5.2,0.6,7.8,1.3c2.4-0.4,4.9-0.7,7.4-1.1c0.9-0.1,1.6-0.8,2.2-1.6c2.1-2.9,4.5-5.7,6.2-9c0.8-1.6,1.3-3.1,1.5-4.9
		c0.1-0.6,0-1.1-0.6-1.5c-1.6-0.9-3.1-1.8-4.8-2.6c-0.2-0.1-0.7-0.1-0.9,0.1c-0.4,0.2-0.2,0.6,0.1,0.9c1,0.8,1.8,1.7,2.1,3.1
		c0.6,2.8,0,5.3-2,7.2C517.4,464,513.6,466.4,508.9,467z"/>
	<path class="st1" d="M486.6,489c0.9,0.4,1.8-0.1,2.3-0.9c0.5-0.9,0.6-2,0.6-3c0.1-5,0.1-10,0.1-15c0-1.3-0.4-2.7-0.5-4
		c-0.1-0.9-0.3-1.8-0.1-2.7c1.2-6,3.5-11,10.2-12.8c2.3-0.6,4.5-1.5,6.9-1.9c1.1-0.2,2.2-0.7,3.3-1c2.1-0.6,3.3-2.1,4.3-4
		c-1.3,0.2-2.4,0.5-3.5,0.5c-1.3,0-2.5-0.1-3.8-0.3c-2.1-0.1-4.1-0.4-6.2-0.5c-4.8-0.3-9.6-0.5-14.3,0.4c-3.3,0.6-6.5,1.1-9.8,1.7
		c-4.8,1-9.7,1.6-14.3,3.2c-1.6,0.6-3.1,0.4-4.7-0.1c-0.9-0.3-1.7-0.7-2.6-1.1c-0.5-0.2-1.1-0.3-1.6,0c0.1,0.1,0.4,0.3,0.5,0.4
		c3.5,2.1,7,3.9,11.3,3c1.8-0.4,3.6,0.1,5.4,0.8c2.3,0.8,4.5,1.8,6.8,2.3c2.9,0.7,5.2,2.3,7.5,4c0.8,0.6,0.9,1.2,0.9,2.1
		c-0.1,0.4-0.1,0.9-0.1,1.3c-0.2,5.5-0.7,11,0.6,16.3c0.9,3.2,1.4,6.2,0,9.3C485.3,487.8,485.8,488.7,486.6,489z"/>
	<path class="st1" d="M453.1,447.1c0-0.1,0-0.1,0-0.2c-0.1,0.1-0.1,0.3-0.1,0.4C453,447.3,453,447.2,453.1,447.1z"/>
	<path class="st1" d="M460,472c2.7,0.9,5.5,1.4,8.4,0.5c1.3-0.4,2.6-0.9,3.9-1.2c0.7-0.2,1.2-0.6,1.6-1.3c0.8-1.3,1-2.8,0.6-4.3
		c-0.1-0.5-0.5-0.8-1-0.6c-0.7,0.4-1.3,0.9-2.1,1.1c-6.8,2.9-13.5,3.3-19.7-1.6c-0.1-0.1-0.4-0.1-0.6-0.1
		C453.1,467.5,457,470.9,460,472z"/>
	<path class="st1" d="M530.9,569.3c1.2,0.1,1.8-0.7,2.6-1.4c2.5-2.3,4.8-4.8,7.2-7.2c0.9-0.9,1.5-2.1,1.7-3.3c0.3-1.3,0.5-2.7,0.6-4
		c0.5-3.1,0.9-6.3,1.4-9.4c0.5-2.8,1.3-5.5,1.9-8.3c0.6-2.7-0.9-5.3-3.5-6c-2.3-0.6-4.5,0-6.7,0.7c-2.2,0.8-3.1,2.2-3.1,4.3
		c0,0.6,0.1,1.1,0.1,1.7c0.5,10.5,0.2,21-2.3,31.2C530.7,568.2,530.5,568.7,530.9,569.3z"/>
	<path class="st1" d="M684,457.9c-0.3-1.1-0.9-2.1-1.5-3.1c-0.6-0.8-1.1-0.8-1.5,0.1c-1.3,2.3-2.5,4.6-3.9,6.9
		c-5.7,9.1-13.4,16.5-21.5,23.4c-4.8,4-9.9,7.7-14.8,11.7c-3.5,2.8-2.9,1.9-2.9,6c-0.1,5-0.4,10.1-1.7,15c-1,3.4-1.4,7-1.8,10.4
		c-0.5,5.3-1.5,10.4-3.3,15.4c-0.9,2.5-2,4.8-3.5,7c-1.3,1.9-2.9,3.5-5,4.6c-4.5,2.3-9,0.6-11-3.9c0,0,0-0.1-0.1-0.1
		c-0.3-0.7-0.6-1.5-0.6-2.3c-0.2-1.6-0.4-3.1-0.6-4.7v-0.1c-0.6-5.7-1-11.4-3-16.8c-0.4-0.9-0.4-2-0.6-3c-0.1-0.5,0-1.1-0.9-1.3
		c-1.3,1.7-2,3.8-2.8,5.7c-2.1,5.4-4.4,10.8-6.9,16c-3.3,7-8,13-13.3,18.7c-0.9,1-2,1.9-3.1,2.7c-1.8,1.3-3.7,2.6-5,4.6
		c-0.6,1-1.8,1.8-2.8,2.5c-1.5,1.1-3.1,2-4.6,3c-1.8,1.1-3.4,2.3-4.8,3.8c-4,4.1-7.8,8.4-11.1,13.1c-3.3,4.8-7,9.3-11.6,13.1
		c-0.8,0.6-1.6,1.3-2.2,2.1c-3.1,3.5-7,5.9-11.1,8c-2.7,1.3-5.3,2.6-8.1,3.8c-7.3,3.1-14.8,5.3-22.9,5.5c-1.7,0-3.4,0.3-5.1,0.5
		c-2.3,0.3-4.5,0.3-6.8-0.1c-7.7-1.4-14.9-4.3-21.3-8.9c-7.7-5.7-14.5-12.3-20-20.1c-4.6-6.5-9.2-13.1-13.8-19.7
		c-0.9-1.3-2-2.1-3.6-2.2c-1.1-0.1-2.3-0.1-3.3-0.6c-3.6-1.5-6.9-3.7-9.7-6.4c-1.3-1.3-2.5-2.6-3.9-3.8c-2.2-2-4.3-4.1-5.9-6.7
		c-4.8-7.4-9.2-15-11.9-23.5c-0.9-2.7-1.8-5.4-2.8-8.1c-1.3-3.5-3.5-6.3-6.5-8.7c-6.2-4.7-12.8-8.3-20.2-10.6
		c-1.3-0.4-1.6-0.4-2.2,0.9c-2.1,4-3.6,8.2-4,12.7c-0.3,3.8-0.4,7.5-0.6,11.3c-0.1,1.6-0.1,3.2-0.8,4.7c-1.3,3.1-4.5,3.8-6.9,1.4
		c-0.6-0.6-1.2-1.4-1.6-2.2c-0.6-1.1-1.2-2.2-1.7-3.3c-4-8.2-5.7-17.1-6.9-26.1c-0.8-6.2-0.6-6.2-5.3-10.5c-0.6-0.6-1.3-1.2-2.1-1.8
		c-2.8-2.5-5.3-5.4-7.3-8.6c-2.8-4.3-5.2-8.9-7.2-13.6c-0.2-0.6-0.3-1.3-1.3-1.3c-0.1,0.4-0.1,0.9-0.1,1.3
		c-0.1,11.8,0.7,23.6,2.4,35.2c0.9,5.8,1.8,11.6,2.9,17.5c0.7,0,1.4-0.1,2.1-0.2c6.6-1.2,12.1,0.4,16.2,6.1c2.4,3.4,5,6.8,9.2,8.6
		c0.6,0.2,0.9,0.8,0.9,1.3c0.2,1,0.4,2,0.5,3.1c0.3,2.6,0.4,5.3,0.9,7.8c1.2,6.7,3.1,13.3,5.8,19.7c1.8,4.1,4.3,7.8,7.5,10.9
		c0.6-1,1.3-1.9,2.1-2.8c1.7-1.8,2.6-3.9,3.3-6.2c1.3-4.6,3-9.2,4.5-13.7c0.5-1.5,1.1-3,2.1-4.3c3.1-4.3,8.7-3.9,11.1,0.9
		c0.6,1.2,1,2.6,1.1,3.9c0.4,3.2,1.3,6.2,2.1,9.4c0.2,1,0.7,1.6,1.7,1.9c2,0.5,3.3,1.9,4.6,3.4c1,1.2,2,2.5,2.9,3.8
		c2.3,3.4,5.2,6.4,8.4,9c3,2.5,6,5,8.8,7.6c3.6,3.3,6.3,7.3,8.2,11.7c2.6,5.7,5.7,11.1,8.7,16.7c2.1,3.8,4.3,7.6,6.5,11.3
		c1.1,1.8,2.2,3.5,3.3,5.2c3.1,4.5,7.1,9.2,9.7,14.1c1.2,2.2,3.3,14.1,2.8,14.8c2.1,2.8,4,5.5,6,8.4c1.1-1.2,2.6-1.5,4-0.4
		c2,1.6,3.9,3.2,5.6,5c3,3.2,6.2,6.2,9.4,9.2h44.2c0.4-5.5,1.3-11,2.1-16.5c0.4-2.2,1.1-4.2,2.1-6.1c5-9.9,11.6-18.6,19.8-26.1
		c3.7-3.4,7.5-6.7,11.3-9.9c2.1-3.1,4.1-6.2,6.2-9.2c4.5-6.5,9.2-12.8,13.8-19.1c6.8-9.3,13.7-18.5,19.2-28.7c0.3-0.5,0.5-1.1,1.3-1
		c0.5,0.8,1.1,1.6,1.7,2.4c1.6,2.3,3.4,4.5,5.8,6.2c2.6,1.6,5.2,2.9,8.3,2.8c1.1-0.1,2.3,0.1,3.4,0.4c1.6,0.5,3.1,0.2,4.7-0.5
		c2.1-1,3.8-2.6,5-4.5c1.6-2.3,3.1-4.5,4.3-7c1.1-2.3,2.1-4.5,3.4-6.7c3.5-6,6.2-12.4,8.9-18.8c3.1-7.1,4.5-14.6,4.8-22.2
		c0.1-2.8,0.4-5.7,0.9-8.5c0.5-3,0.9-5.8,0-8.8c-0.1-0.5-0.1-1.1,0-1.7c1.5-6.2,22.1-28.9,27.4-29.4c2.1-0.2,4-0.6,6-1
		c2.7-0.6,5.5-0.5,8.2-0.3c0.4,0,0.7,0.1,1.1,0.1c-0.7-1.6-1.4-3.3-2.3-4.8C687.4,466.8,685.3,462.5,684,457.9z"/>
	<path class="st1" d="M541.4,308.3c1.1,0,1.5-0.9,1.9-1.7c0.3-0.6,0.6-1.2,0.9-1.8c1.1-2,2.3-4,3.7-5.7c1.6-1.9,3.2-3.9,4.8-5.8
		c1.4-1.7,3.2-3,5.1-3.9c2.3-1.1,4.5-2.2,6.7-3.3c1.3-0.6,2.6-0.9,4-0.8c5,0.1,8.7,2.6,11.7,6.2c1.5,1.8,2.8,3.9,3.8,6.1
		c0.3,0.6,0.5,1.3,0.9,1.8c0.6,1.1,1.8,1.6,2.6,1.2c1-0.6,1.4-1.5,1.3-2.6c0-0.4-0.1-0.9-0.2-1.3c-0.9-4.1-2.8-7.7-5.5-10.9
		c-2.5-3-5.5-5-9.4-5.7c-1.9-0.4-3.8-0.4-6.2-0.5c-2.6-0.4-5.5,0.4-8.4,1c-6.2,1.3-10.7,4.8-13.8,10.3c-1.3,2.3-2.5,4.6-3.7,7
		s-1.6,5-1.8,7.6C539.7,307,540.4,308.3,541.4,308.3z"/>
	<path class="st1" d="M591.9,348.7c-0.9,6.5-2,12.8-4.5,19c-0.5,1.1-0.4,1.3,0.6,1.9c1.3,0.8,2.6,1.5,3.6,2.6c3.1,3.2,6.2,6.4,9,9.9
		c1.1,1.4,2.1,3,2.8,4.7c3.1,7.5,5.3,15.1,5.5,23.2c0.1,4.4-0.4,8.7-1.4,12.9c-0.1,0.8-0.6,1.5-0.1,2.3c0.9,1.5,1.6,3.1,2.6,4.5
		c1.1,1.7,2.6,3.1,4.6,3.9c2.3,1,4.6,0.8,6.4-0.9c2.3-2.1,4.4-4.5,6.2-7.1c0-3.5-0.1-6.9-0.6-10.3c-0.6-4.6-1.3-9.2-2.6-13.8
		c-2.6-9.5-6.7-18.5-11-27.3c-2.3-4.9-5.2-9.7-7.7-14.5c-1-1.9-2-3.9-2.9-5.8c-0.9-1.8-1.3-3.9-1.8-5.9c-0.2-1,0.1-1.8,1.1-2.3
		c0.8-0.4,1.6-0.9,2.3-1.5c0.1-0.1,0.1-0.1,0.2-0.2c-2.6-1.5-5.2-3-7.7-4.6c-0.6-0.4-1.2-0.6-1.8-1.1c-0.5-0.4-1.1-0.4-1.6-0.4
		c-1,0-1.6,0.5-1.3,1.5C592.5,342.5,592.3,345.6,591.9,348.7z"/>
	<path class="st1" d="M430.9,390.7c-1.5,1.1-2.6,2.6-3.3,4.3c-0.4,0.8-0.3,1.6,0.1,2.3c0.2,0.4,0.6,0.7,1.1,0.6
		c1.2-0.4,2.3-1,3.6-0.9c2.9,0,4.9,2.7,3.8,5.4c-0.5,1.3-1.3,2.4-2,3.5c-3.1,4.7-5.6,9.7-7.2,15.1c-0.4,1.3-0.9,2.6-1.3,3.9
		c-0.1,0.3-0.2,0.5-0.4,0.3c-0.1-0.1-0.1-0.4-0.2-0.6c-0.1-0.3-0.3-0.4-0.4-0.2c-0.1,0.1-0.1,0.4-0.2,0.6c-1.2,4.3-1.2,8.8-1.3,13.3
		c-0.2,5,0.6,9.8,2.3,14.5c1,2.8,1.8,5.7,2.5,8.5c1.3,5,2.9,9.9,6.5,13.8c0.7,0.8,0.9,1.6,0.7,2.6c-0.5,4.1-2.9,6.8-6.5,8.7
		c-0.7,0.4-1.6,0.4-2.1,1.2c1.1,3.4,3.2,6.5,5.7,9.1c2.4,2.4,5,4.7,7.6,7c1.2,1.1,2.6,1.9,4,2.7c4.2,2.4,8.6,4.3,13.1,5.7
		c2.2,0.7,4.4,1.2,6.7,0.9c5.8-0.9,10.6-3.4,13.9-8.4c1.8-2.7,3.8-5.2,6-7.5c0.8-0.9,1.6-1.6,2.8-2.8c-2.8-0.9-4.9-2-6.8-3.4
		c-0.6-0.4-1.3-0.9-2.1-1.1c-6-2.6-11.6-5.9-17.4-8.9c-3.3-1.7-6.5-4-9.3-6.4c-3.1-2.7-5.7-6-8.1-9.3c-0.6-0.9-1.1-2-1.6-3.1
		c-2.2-5.1-3.8-10.3-3.5-15.9c0.1-1.3-0.1-2.8-0.1-4.1c0-3-0.1-6-0.5-8.9c-0.4-3-0.4-6,0.4-8.9c1.6-6,4.3-11.4,8.3-16
		c2.6-3,5.6-5.7,9.1-7.7c6.6-4,13.9-5.7,21.4-6.8c8.7-1.3,17.5-1.2,26.3-0.1c4.5,0.6,8.7,1.7,12.8,3.7c1.6,0.7,3.1,1.5,4.5,2.3
		c6.8,4.3,11.6,9.9,12.8,18.1c0.3,2.1,0.7,4,1.5,6c0.4,0.9,0.7,1.7,0.6,2.6c-0.2,3.7,0.6,7.2,1.1,10.9c0.4,3.5,0.5,7,0,10.6
		c-0.6,4-1.9,7.7-3,11.6c-1.4,5.1-3.8,9.8-6.6,14.3c-0.6,0.9-1.2,1.7-1.9,2.4c-3.6,3.5-7.5,6.3-12.5,7.5c-2.7,0.6-5.1,2-7.6,3.2
		c-4.6,2.2-8.2,6.1-13.1,8.1c2.5,3,4.8,5.8,7.1,8.6c4,4.9,9.2,7.8,15.3,9.1c3.8,0.8,7.7,1.3,11.5,1.8c3.1,0.4,6.1,0.8,9.2,0.8
		c1.6,0,2.8-0.4,4.1-1.3c1.1-0.9,2.5-1.6,3.8-2.3c3.6-2.2,7.2-4.5,10.1-7.7c1.7-1.8,3.3-3.8,5.2-5.5c1.7-1.6,2.8-3.5,2.8-6
		c0-2.3,0.4-4.6,1.1-6.7c2-5.7,4.6-11.1,7.5-16.5c0.3-0.5,0.6-1,1.2-1.1c1.1-0.1,2-0.5,2.5-1.6c0.5-1,0.5-2,0.4-3
		c-0.1-1.3-0.2-2.8-0.4-4.1c-0.4-6,1.5-11.3,5.7-15.6c4.3-4.5,5.7-10,5.5-16c-0.3-6.6-2.4-12.8-4.9-18.8c-0.8-1.8-2.1-3.3-3.8-4.3
		c-0.9-0.5-1.6-0.7-2.6-0.7c-2,0.1-3.2,1.6-2.6,3.5c0.3,0.9,0.8,1.6,1.3,2.4c0.9,1.5,1.8,2.9,2.3,4.5c1.3,4.4,1.9,8.9,1.8,13.6
		c-0.1,2.9-1.4,5.3-3.4,7.2c-0.7,0.7-1.5,0.6-1.9-0.4c-1.3-3.3-3.8-6-5.7-8.9c-1.3-2-3-3.5-4.9-4.8c-0.6-0.4-1.3-0.6-1.8,0.1
		c-0.4,0.5-0.3,1.1,0,1.6c0.5,0.9,1.1,1.8,1.3,2.8c1.3,5.2,2.8,10.4,3.9,15.6c1.1,5.3,0.8,10.6,0.1,16c-0.6,5-2.1,9.6-4.5,13.9
		c-0.3,0.5-0.6,1-0.9,1.5c-0.4,0.6-0.6,1.2-0.4,2c0.6,3.3-0.6,6.4-1.7,9.3c-1.3,3.5-4.3,5.2-7.9,6c-2.1,0.4-3.8-0.7-4.3-2.5
		c-0.3-1-0.1-2.1,0.2-3.1c0.6-1.6,1.3-2.9,2.3-4.2c0.9-1.1,1-2.1,0.1-3.3c-2.4-3.3-2.3-6.8-0.4-10.3c0.4-0.6,0.7-1.1,1-1.8
		c0.4-0.9,0.9-1.9,1.1-2.9c0.7-3.1-0.1-4.9-2.8-6.7c-5.3-3.5-6.6-8.1-3.8-13.9c0.8-1.6,1.6-3.3,2.6-4.9c0.7-1.2,0.9-2.6,0.9-4
		c0.1-2.2-0.6-4.3-1.3-6.3c-2.1-6.3-4.5-12.5-7.5-18.4c-0.7-1.3-1.5-2.6-2.6-3.6c-2.1-2.2-4.3-4.4-6.4-6.7c-1.1-1.3-2.3-2.5-3.3-3.9
		c-2.5-3.8-3.1-8.1-1.6-12.5c0.9-2.6,2.7-4.1,5.5-4.6c1.2-0.2,2.3,0,3.4,0.3c3.7,0.9,3.7,0.9,3.1-3.1c-0.1-0.6-0.1-1.1-0.3-1.7
		c-0.1-0.6-0.5-1.3-0.4-2c0.6-2.5,0.1-5,0.6-7.5c0.5-2.1,0-3.8-1-5.6c-0.6-1.1-1.3-2.1-2-3.2c-0.8-1.3-1.7-2.5-2.4-3.8
		c-1.7-2.9-2.4-5.9-0.7-9.1c0.1-0.2,0.2-0.4,0.3-0.6c0.1-0.5,0.1-0.9-0.2-1.3s-0.7-0.6-1.1-0.9c-3.5-2.8-5.5-6.5-6.3-11
		c-0.7-3.9-0.2-7.7,0.4-11.6c0.6-4.2,1.5-8.3,1.3-12.6c-0.1-1,0.1-2.1,0.3-3.1c0.4-1.9,0.3-3.8,0-5.8c0-0.2-0.1-0.4-0.1-0.6
		c-0.2,0.1-0.4,0.4-0.6,0.5c-0.5,0.5-0.9,1.3-1.3,1.5c-2.1,0.7-3,2.4-4.1,4c-1.1,1.5-2.2,2.9-3.3,4.3c-1.3,1.6-2.6,2-4.5,1.3
		c-1-0.4-1.8-0.9-2.6-1.6c-1.8-1.8-3.8-3.6-5.4-5.7c-1.5-2.1-3.5-3.5-5.7-4.8c-2.6-1.6-5.4-1.6-8.2-0.8c-4.8,1.4-8,4.7-9.9,9.2
		c-1.3,3-2.6,5.8-4.5,8.4c-1.1,1.5-2.1,1.4-2.8-0.1c-1.1-2.5-2.1-5-3.1-7.6c-1.3-3.4-2.8-6.7-5-9.7c0-0.1-0.1-0.1-0.1-0.1
		c0.6,4.9,0.4,9.9,0,14.8c-0.1,1.6-0.4,3.1,0.1,4.8c0.6,1.8,0.4,3.7,0,5.5c-0.8,3.9-1.9,7.7-4.3,11.1c-1.9,2.8-3.5,5.9-4.9,9
		c-0.3,0.6-0.7,1.2-0.1,2.1c0.4-0.2,0.8-0.4,1.1-0.7c1.1-0.9,2.2-1.6,3.5-2c1.7-0.5,3.3,0.1,4,1.8c0.6,1.3,0.6,2.6,0.4,4
		c-0.4,1.9-1.2,3.7-2.3,5.3c-2.2,3.6-4.6,7.1-7.8,9.9c-1.8,1.6-3.5,3.3-4.4,5.6c-2.2,6.2-5.5,11.9-8.1,17.7
		C436.8,384.6,434.5,388.2,430.9,390.7z"/>
	<path class="st1" d="M452,569.2c0.4,0.4,0.7,0.9,1.6,0.6c-0.4-1.8-0.9-3.7-1.4-5.5c-0.4-1.2-0.9-2.3-1.3-3.5
		c-1.2-2.6-2.3-5.3-2.9-8c-1.4-7-2.9-14.1-3-21.4c0-0.4,0-0.9-0.1-1.3c-0.1-0.6-0.6-0.7-1-0.6c-1.1,0.4-2.1,0.9-3.1,1.6
		c-1.6,1-3.2,2.2-4.8,3.2c-0.6,0.4-0.8,0.9-0.8,1.4c0.1,5.2,0.6,10.3,2.9,15C441.6,557.7,446.1,564,452,569.2z"/>
	<path class="st1" d="M583.8,316.8c-0.8-0.4-1.1,1-1.7,1.4c-1.1,0.7-1.8,1.8-2.6,2.8c-3.8,5.1-8.8,7.8-15.3,7.5
		c-2.5-0.1-5-0.1-7.5-0.3c-4.8-0.3-9.5-1.3-14-3c-0.9-0.4-1.6-1.3-2.8-0.6c0.1,0.9,0.2,1.7,0.4,2.6c0.3,1.9,1.8,2.8,3.3,3.7
		c5.5,3.1,11.2,5.1,17.2,5c4,0.5,7.5-0.7,11-1.9c0.9-0.4,1.9-0.9,2.7-1.5c1.8-1.4,3.5-2.9,5.1-4.5c2.3-2.4,3.6-5.5,4.5-8.7
		C584.3,318.5,584.7,317.2,583.8,316.8z"/>
	<path class="st1" d="M550.4,579.2c0.4-0.6,0.4-1.3,0.4-2c0-0.3-0.1-0.6-0.2-0.8c-0.2-0.5-0.6-0.7-1.3-0.6c-1.3,0.1-2.7,0.4-4,0.4
		c-2.3,0-3.8,0.9-5,2.8c-2.8,4-5.7,8-9.9,10.8c-0.6,0.4-1.2,1.1-1.8,1.6c-2.1,1.9-4.2,3.9-6.3,5.7c-0.6,0.5-1.3,0.9-2.1,1.2
		c-2.2,1-4.4,2-6.6,2.8c-5.1,2.1-10.4,3.3-16,2.9c-9.1-0.7-17.8-2.9-26.2-6.2c-1.5-0.6-2.8-1.5-4.1-2.4c-3-2.3-6-4.6-8.9-6.9
		c-1.6-1.3-3.1-2.7-4.4-4.3c-0.7-0.9-1.3-1.9-2.1-2.7c-0.9-0.9-1-2.3-2.6-2.3c-1.1,2.2-1.1,4.6-1.6,6.9c-0.1,0.4-0.1,0.9-0.2,1.3
		c-0.1,1.6,0.3,2.9,1.5,4c2.4,2.2,4.8,4.5,7.2,6.9c5.7,5.5,12.7,8.9,19.8,12c2,0.9,4,1.6,6,2.6c2.4,1.1,4.9,1.8,7.5,2.1
		s5.3,0.5,7.9,0.2c2.2-0.1,4.3-0.2,6.5-0.4c3.9-0.2,7.7-1.1,11.2-2.8c4.3-2,8.6-3.8,12.1-7c0.3-0.2,0.6-0.4,0.9-0.6
		c2.6-1,4.3-3.1,6-5c2.9-3.4,5.6-7,8.7-10.2c0.8-0.8,1.5-1.8,2.1-2.7c0.9-1.6,2.1-3,3.3-4.4c0.8-0.9,1.4-1.8,2.2-2.6
		C550.2,579.6,550.2,579.4,550.4,579.2C550.4,579.3,550.4,579.3,550.4,579.2C550.4,579.3,550.4,579.3,550.4,579.2L550.4,579.2
		L550.4,579.2c-0.1-0.6-0.1-1.2,0-1.8C550.3,578,550.3,578.6,550.4,579.2z"/>
	<path class="st1" d="M387.1,344.2c-0.4,0.6-0.6,1.4-0.6,2.3c-0.1,1.4,0.1,2.7,0.8,4c1.3,2.6,2.8,5,4.3,7.4c1.8,2.6,2.2,5.4,1.3,8.4
		c-0.6,2-1,4-1.5,6c-1.2,4.6-3.1,8.9-6.2,12.4c-2.9,3.3-4.9,7.1-6.5,11.2c-1.1,2.8-2.3,5.7-3.5,8.5c-1.6,3.9-4.2,7.3-6.2,11
		c-1.3,2.5-3,4.8-5.2,6.7c0.3,3.3,0.6,6.6,1,9.9c0.2,2.3,1,4.4,2.7,6.2c3,3.2,4.6,7,5.5,11.3c0.4,2.3,1,4.5,1.5,6.7
		c0.4,2.1,1.4,3.8,2.9,5.3c5.7,5.8,10.9,12.1,15.5,18.8c0.4,0.6,0.7,1.2,1.2,1.6c3.1,2.6,6.3,4.8,10.2,6.3c2.5,1,4.5,0.4,6.3-1.3
		c1.5-1.3,1.7-2.9,0.6-4.6c-0.6-0.9-1.5-1.8-2.3-2.5c-5.4-4.8-8.6-10.9-9.9-18c-0.9-4.8-1.4-9.7-1.1-14.7c0.1-2.3-0.4-4.3-1.9-6
		c-2.1-2.7-3.9-5.7-5.6-8.6c-2.4-4.1-3.8-8.5-3.1-13.4c0.4-2.6,0.7-5.2,1-7.8c0.7-5.7,2.8-10.8,5.6-15.8c2.7-4.8,6-9.2,9.9-13.1
		c1.9-1.8,3.1-3.9,3.1-6.6c0.1-1.6,0.6-3.1,1.1-4.7c0.6-2,1.1-4,1.7-6c0.4-1.2,0-2.3-0.5-3.3c-0.6-1.2-1.6-1.9-2.6-2.6
		c-5-3.5-9.5-7.5-12.9-12.6c-0.8-1.1-1.7-1.8-3.1-2c-0.9-0.1-1.8-0.4-2.7-0.4C387.6,344.2,387.4,344.2,387.1,344.2z"/>
	<path class="st1" d="M396.4,299.6c1.7-2.6,3.9-4.8,6.2-6.8c5.2-4.6,11.3-6,17.9-4.4c6,1.4,11.6,3.7,15.8,8.5
		c0.5,0.6,0.9,1.3,1.8,1.3c0.3-0.9-0.1-1.5-0.5-2.2c-2.9-5.2-7-9.3-12.3-12.1c-1.1-0.6-2.3-1-3.5-1.3c-2.1-0.4-4.3-0.8-6.4-1.1
		c-3.2-0.5-6.2,0.2-8.9,1.7c-6.8,3.8-10.2,9.8-11.4,17.5C395.8,300.6,396.1,300.1,396.4,299.6z"/>
	<path class="st1" d="M395.1,324.3c1.7,2.2,3.5,4.2,5.7,5.9c3.1,2.4,13.8,6.6,17.7,7c2.3,0.2,4.5,0.1,6.7-1.1
		c3.8-2.1,7.2-4.8,10.4-7.8c1.2-1.2,2.2-2.6,2.8-4.2c0.2-0.4,0.4-0.9,0-1.3c-0.6,0-1,0.5-1.4,0.9c-2.4,2.5-5.4,3.8-8.8,4.1
		c-0.6,0.1-1.1,0.2-1.7,0.4c-10.6,1.8-20.2-0.3-27.9-8.4c-0.1-0.1-0.3-0.4-0.5-0.4c-0.3-0.1-0.8-0.3-0.9-0.2c-0.7,0.6-1.3,0.1-1.9,0
		c-1.2-0.2-2,0.6-1.8,1.8C393.9,322.1,394.4,323.3,395.1,324.3z"/>
</g>
<g>
	<g>
		<path class="st2" d="M693.6,532.3c-0.1-4.5-0.1-9.1-0.6-13.6c-0.4-4.8-0.9-9.5-2.1-14.1c-0.6-2.4-1.6-4.8-2.1-7.2
			c-0.5-2.6-1.8-4.6-3.7-6.3c-1.6-1.3-1.6-1.4-3.4-0.4c-1,0.6-2.1,1-3.3,0.9s-2.2,0.4-3.3,0.9c-4.2,1.9-7,5.4-9.8,8.8
			c-1.7,2.1-2.5,4.6-3.9,6.8c-3,4.5-3.8,9.7-5.4,14.7c-0.2,0.6,0.4,1.3,1.1,1.6c0.8,0.2,1.6,0.2,2.3-0.4c1.1-0.9,2.2-1.6,3.2-2.6
			c1.2-1.1,2.3-2.2,3.4-3.3c1.5-1.6,3.3-1.9,5.3-1.8c0.6,0.1,1.1,0.4,1.3,0.9c1.3,2.9,3,5.6,3.9,8.7c1.3,4.7,3,9.3,4.4,14
			c3.4,10.8,5.3,21.9,7.1,33c0.5,3.1,0.7,6.2,1.6,9.3c0.6-0.4,0.9-0.9,0.9-1.5c0.3-2,0.7-4,0.8-6.1c0.2-4,0.1-8,0.6-11.9
			c0.4-3.7,0.2-7.5,0.7-11.2c0.4-3.1,0.3-6.4,0.1-9.6C692.9,538.6,693.8,535.5,693.6,532.3z"/>
	</g>
	<g>
		<path class="st2" d="M657.5,640.6c-3.7,0.9-7,2.9-9.9,5.2c-4.8,3.5-9.1,7.5-13.3,11.7c-5.8,5.7-10.3,12.4-14.1,19.7
			c-2.2,4.1-3.8,8.5-5.1,12.9h15.8c0.8-1.2,1.7-2.3,2.6-3.5c3.4-4,6.9-7.9,10.3-11.9c1.4-1.6,2.7-3.4,4.1-5c2.5-3,4.6-6.2,7-9.2
			c3.6-4.8,5.7-10.1,6.9-15.8C662.2,641.9,660.1,639.9,657.5,640.6z"/>
	</g>
	<g>
		<path class="st2" d="M353.7,635.5c-2-7.2-4.3-14.3-5.1-21.9c-0.5-4.4-1.2-8.8-1.1-13.2c0-2.5,0-5,0-7.5c0-0.8-0.1-1.6,0.1-2.4
			c0.6-2.3,0.4-4.5,0.6-6.8c0.1-1.7,0-3.4,0.5-5.1c0.4-1.6,0.1-3-1-4.5c-1.8-2.3-3.5-4.8-5.1-7.2c-2.3-3.7-4-7.7-5.3-11.9
			c-1.3-4.3-2.5-8.7-3.4-13.2c-0.6-2.6-0.9-5.1-2.5-7.2c-0.6,0.6-0.9,1.3-0.9,2.1c-0.3,2.1-0.5,4.3-0.9,6.4
			c-1.1,5.8-1.1,11.8-1.8,17.6c-0.5,4.6-0.1,9.3-0.7,14c-0.4,2.8-0.1,5.7-0.1,8.5c-0.1,1.6,0.6,2.8,1.6,4c0.9,0.9,1.8,1.8,3.1,2.1
			c2,0.6,2.6,2.1,2.8,3.8c0.4,3.3,1.4,6.5,2.6,9.5c2.6,6.8,5.1,13.6,8,20.4c2.6,6,6,11.5,9.3,17.1c0.1,0.1,0.2,0.3,0.3,0.4
			c0.3,0.4,0.6,0.8,1.1,1c0.1-0.8-0.1-1.6-0.4-2.3C354.7,638,354.1,636.7,353.7,635.5z"/>
	</g>
	<g>
		<path class="st2" d="M355.7,641.6L355.7,641.6L355.7,641.6L355.7,641.6L355.7,641.6z"/>
	</g>
	<g>
		<path class="st2" d="M587.2,634.1c-0.8,1.3-1.8,2.3-2.8,3.5c-1.7,2-3.3,4-4.8,6.2c-2.1,3-4,6.1-5.5,9.4c-0.6,1.4-1.5,2.8-2.5,4
			c-1.6,2.2-3.1,4.5-4.3,7c-2.6,5-4.3,10.3-5.9,15.7c-1,3.3-1.8,6.7-2.3,10.2h17.4c-0.1-3.5,0-7,0.6-10.4c0.4-2.6,0.8-5.2,1.3-7.7
			c1.1-4.9,2.3-9.7,3.1-14.7c0.4-3,0.9-6.2,2.7-8.7c1.6-2.2,2.3-4.6,2.9-7.2c0.4-2.1,1.1-4.2,1.6-6.2c0.1-0.6,0.3-1.1-0.1-1.6
			C587.9,633.1,587.5,633.6,587.2,634.1z"/>
	</g>
	<g>
		<path class="st2" d="M443,674.5c-3.9-4.6-7.7-9.2-11.8-13.8c-4.9-5.5-9.3-11.2-13.3-17.3c-2.8-4-5.5-8.2-8.2-12.2
			c-0.4-0.6-0.8-1.4-1.8-1.4c-0.4,0.6-0.3,1.1-0.1,1.6c1,5.6,2.2,11.1,2.8,16.8c0.1,1.2,0.6,2.4,1,3.6c0.8,2.3,1.5,4.5,2.5,6.7
			c1.4,3.3,2.1,6.7,4.2,9.7c0.3,0.4,0.4,0.9,0.4,1.3c0,2.8,0.1,5.7-0.1,8.6c-0.1,1.5-1.5,2.3-3,2c-0.6-0.1-1.1-0.3-1.6-0.6
			c-2.1-1.4-4.4-2.3-6.3-4.1c-0.6-0.6-1.1-1.2-2.1-0.5c-0.7,0.6-0.7,1.3,0.4,2.3c3.4,3,5.8,6.7,8,10.6c0.4,0.7,0.9,1.4,1.3,2.1h8
			c0-0.1,0.1-0.1,0.1-0.2c1.3-3.9,3.5-7,7.7-8.6c3.3-1.3,6.5-2.6,10.2-1.5c0.6,0.2,1.1,0,1.6-0.4c1.9-1.6,1.8-2.1,0.6-4
			C443.5,674.9,443.3,674.7,443,674.5z"/>
	</g>
	<g>
		<path class="st2" d="M648.7,397.3c1.5,5.3,2.5,10.6,2.5,16.1c0,4.9,0.2,9.8-0.6,14.7c-0.5,3.1-0.9,6-1.3,9.1
			c-0.4,3.3-1.3,6.5-2.1,9.7c-0.1,0.3-0.1,0.7,0.3,0.8c0.1,0.1,0.4-0.1,0.6-0.3c2.6-3.5,4.5-7.4,6.5-11.3c2.8-5.8,5-11.7,5-18.3
			c0-0.6,0.1-1.1,0.2-1.7c0.5-2.1,0.5-4.1,0.1-6.1c-0.4-2.1-0.4-4.1-0.4-6.1c-0.1-2.2,0-4.3-0.3-6.5c-0.3-2.7-0.8-5.4-1.1-8.1
			c-0.6-4.4-1.3-8.8-2.9-13c-0.6-1.7-1.3-3.4-2.1-5c-1.6-3.5-3.3-7-5.4-10.7c-1.6,2.2-2.1,4.2-2,6.5c0.1,1.7-0.1,3.4-0.4,5.1
			c-0.5,3.4-1.4,6.7-2.1,10c-0.2,1.1-0.3,2.2,0.4,3.3C646,389,647.5,393.1,648.7,397.3z"/>
	</g>
	<g>
		<path class="st2" d="M463.1,263.4c-0.4-0.8-0.9-1.6-1.5-2.3c-0.7-0.9-1.5-1.8-2.6-2.3c-2.5-1.1-5.2-1.6-7.9-1.9
			c-0.4,0-0.7-0.1-1,0c-3.3,0.4-4.8,3.8-3.3,6c0.6,0.9,1,1.8,1.6,2.6c2.3,3.2,5,6.2,7.8,9c3.3,3.3,6.7,6.5,9.6,10.2
			c0.6,0.8,1.4,1.5,2.2,2.2c0.9,0.8,1.9,0.7,2.8-0.1c0.5-0.5,0.9-1.1,0.9-1.8c0.1-1.3,0-2.5-0.4-3.7
			C469.1,275.2,466.2,269.3,463.1,263.4z"/>
	</g>
	<g>
		<path class="st2" d="M380.5,356.3c-1.1-1.5-2.9-1.6-4-0.1c-0.6,0.8-1.1,1.8-1.5,2.7c-1.4,3.1-3.1,5.8-5.5,8.2
			c-0.7,0.7-1.1,1.7-1.9,2.4c-1.7,1.6-1.8,3.4-1.2,5.6c0.8,2.8,1.3,5.7,1.8,8.7c0.3,2.1,0.6,4.2,1.3,6.4c0.4-0.6,0.8-1.1,1.1-1.7
			c2.4-3.9,4.8-7.7,7.6-11.4c1.2-1.5,2.4-3.1,3.7-4.5c1.1-1.2,1.3-2.6,1.3-4.1c-0.1-3.5-1.2-7-1.7-10.4
			C381.4,357.4,380.9,356.9,380.5,356.3z"/>
	</g>
	<g>
		<path class="st2" d="M584.2,246.2c-1.6-0.6-3.1-1.4-4.5-2.4c-3.5-2.4-7.1-2.9-11-0.4c0.3,0.4,0.6,0.6,0.7,0.9
			c0.6,2.8,2.4,4.3,4.9,5.3c2.6,1,4.4,2.8,6.2,4.8c1.2,1.3,2,2.7,2.2,4.5c0.2,2.3,0.9,2.6,3,1.7c0.3-0.1,0.6-0.2,1-0.2
			c1-0.1,1.6-0.6,2.1-1.5c0.4-0.6,0.7-1.1,1.1-1.7c1.7-2.1,1.4-4.3-0.1-6.2C588.4,249,586.7,247,584.2,246.2z"/>
	</g>
	<g>
		<path class="st2" d="M517.7,268.5c-0.5-0.3-1.1,0.1-1.6,0.5c-0.9,0.9-1.8,1.7-2.6,2.7c-2.8,3.4-5.3,7.1-7.7,10.9
			c-0.8,1.3-1.5,2.6-2.2,3.8c-0.4,0.7-0.7,1.4-0.6,2.3c-0.1,1.1,0.5,2.2,0.8,3.3c0.2,0.9,0.9,1.3,1.8,1.3c1.3-0.1,2.4,0.5,3.5,0.9
			c2.1,0.9,3.8,0.1,4.6-2.1c0.5-1.3,0.9-2.6,0.8-4c-0.1-1.7,0.1-3.4,0-5.1c-0.2-2.8,0.5-5.4,1.5-8c0.4-0.9,0.9-1.8,1.3-2.8
			c0.3-0.6,0.6-1.3,0.7-1.9C518.2,269.7,518.5,268.9,517.7,268.5z"/>
	</g>
	<g>
		<path class="st2" d="M408.5,256c1.3-2.2,3.2-3.8,5.7-4.5c0.6-0.2,1.3-0.4,1.8-0.9c2.5-1.8,5.1-2.2,8.1-1.6c2.1,0.4,3.8-0.6,5-2.3
			c0.4-0.5,0.5-1.1,0.4-1.6c-0.4-1.8-1.1-3.5-2.6-4.8c-1.1-0.9-2.3-1.4-3.8-0.8c-1.1,0.5-2.4,0.8-3.5,1.1c-0.6,0.2-1.3,0.4-2,0.3
			c-2-0.5-3.5,0.3-4.9,1.6c-0.9,0.9-1.6,1.9-2.2,3.1c-1.8,3.7-2.9,7.7-4.1,11.6c-0.1,0.1,0.1,0.4,0.2,0.6
			C407.8,257.7,408.1,256.8,408.5,256z"/>
	</g>
	<g>
		<path class="st2" d="M355.7,641.6c0,0.1,0.1,0.1,0.1,0.1c0.1,0.1,0.1,0.1,0.1,0C355.9,641.7,355.8,641.7,355.7,641.6z"/>
	</g>
	<g>
		<path class="st2" d="M355.7,641.6L355.7,641.6L355.7,641.6L355.7,641.6z"/>
	</g>
	<g>
		<path class="st2" d="M330.2,421.2c0.1,1.1,0.4,2.3,0.6,3.4c0.1,1.6-0.1,3.3-0.2,4.9c-0.1,0.4-0.4,0.6-0.6,1
			c-1.6,2.3-2.3,18.9-0.7,22.5c0.2,0.4,0.4,0.9,0.6,1.2c0.1,0.1,0.4,0.3,0.6,0.4s0.4,0,0.5-0.3c0.2-1,0.6-2,0.6-3
			c0.1-1.3,0.2-2.5,0.4-3.7c1.2,4.6,3.1,9.1,5.5,13.2c-2.3-10.8-1.3-22.1,0.9-32.9c0.4-2,0.9-4,1.3-6c0.3-0.6,0.6-1.2,0.6-1.8
			c0-0.4,0-0.6,0.1-0.9c2-7.8,4.2-15.5,5.8-23.4c0.3-1.5,0.6-3.1-0.1-4.5c-0.4-0.6-0.9-1.2-1.6-1.4c-0.1-0.4-0.1-0.7-0.1-1.1
			c-0.1-0.3-0.5-0.6-0.9-0.3c-0.4,0.4-0.8,0.8-1.1,1.3c-0.4,0.4-0.6,0.9-1,1.3c-0.2,0.3-0.4,0.6-0.6,0.9c-1.3,1.8-2.7,3.6-4.2,5.4
			c-1.6,1.9-3.3,3.8-5,5.5c-1.8,2-2.8,4.3-2.8,7.1c0,0.1,0,0.2,0,0.4c-0.3,0.4-0.6,0.9-0.9,1.3c-0.9,1.1-1.7,2.5-1.3,3.8
			c0.3,0.9,1.1,1.6,1.6,2.3C329.2,418.6,329.8,419.9,330.2,421.2z"/>
	</g>
</g>
<g>
	<path class="st3" d="M579.4,305.7c-0.4-0.5-0.6-0.9-1-1.4c-0.1-0.1-0.4-0.1-0.8-0.4c-0.1,2.1-0.5,4.3-0.9,6.3c-0.2,1-0.4,2-0.5,3.1
		c1.1-0.2,1.5-1.2,2.1-1.8c0.9-1.1,2.1-2.1,2.6-3.5C580.4,307.2,579.9,306.5,579.4,305.7z"/>
	<path class="st3" d="M425,300.1c-1.8-0.8-3.8-1-5.6-1.4c-1.9-0.4-3.1,0.1-3.7,2c-0.6,2-0.9,4-0.4,6.1c0.3,1.3,0.9,2.3,1.9,3.1
		c1.6,1.3,3.7,1.8,5.4,2.1c1.6,0,2.6-0.5,3.2-1.5c0.9-1.3,1.6-2.8,2.3-4.2c0.2-0.4,0.4-0.9,0.3-1.3
		C427.9,302.9,427.2,301.1,425,300.1z"/>
	<path class="st3" d="M402.8,305.3c0.1-0.1-0.1-0.4-0.2-0.5c-2.2,1.6-3,2.5-4.8,5.4c0.7,0.8,1.3,1.4,1.8,2.2c0.7,1,1.8,1.3,2.9,1.6
		c0.9,0.2,1.3-0.2,1-1.1C402.7,310.4,402.2,307.9,402.8,305.3z"/>
	<path class="st3" d="M433.3,314.1c-0.1,1.6-0.6,3.1-0.9,4.6c3.1-0.8,3.7-1.2,5.5-3.8c-1.6-1.7-2.3-4-4.5-6.4
		C433.3,311,433.4,312.6,433.3,314.1z"/>
	<path class="st3" d="M566.5,296.9c-2.7,0.8-4.4,2.8-5,5.5c-0.6,2.5,0.5,4.4,2.6,5.8c0.4,0.3,0.7,0.6,1.1,0.8
		c4.1,2.5,7.8,0.6,8.1-4.6c0.2-2.1-1.1-4-2.3-5.9C569.8,296.8,568.2,296.4,566.5,296.9z"/>
	<path class="st3" d="M557.8,319.4c-0.2-0.1-0.4-0.3-0.6-0.4c-3.4-2.3-5.4-5.5-5.3-9.7c0-0.2-0.1-0.4-0.4-1.1
		c-2,2.9-3.4,5.7-4.2,8.9c0,0.1-0.1,0.3-0.1,0.4c1.3,1.1,2.8,1.7,4.3,2.3c1.9,0.8,4,0.9,6,0.7c0.1,0,0.2-0.1,0.4-0.1
		c0.1-0.1,0.1-0.1,0.2-0.2C558.4,319.9,558.1,319.6,557.8,319.4z"/>
</g>
<g>
	<path class="st4" d="M687.8,631.6c4.3-6.7,8.3-13.7,11.1-21.2c5.3-14.1,10.2-28.2,14.5-42.5c0.7-2.3,1.2-4.6,1.3-7
		c0.2-3,0.4-6,0.7-8.9c0.6-6.2,0.3-12.4-0.4-18.5c-0.2-1.7-0.6-3.4-1.1-5c-1.3-3.8-2.7-7.5-4-11.3c-3-8.7-6.5-17.1-10.9-25.1
		c-2.3-4.1-4-8.4-5.7-12.8c-0.4-1.1-0.9-2.2-1.3-3.3c-0.4-0.1-0.7-0.1-1.1-0.1c-2.7-0.3-5.5-0.3-8.2,0.3c-2,0.4-4,0.8-6,1
		c-5.2,0.5-25.9,23.1-27.4,29.4c-0.1,0.6-0.1,1.1,0,1.7c0.9,2.9,0.5,5.8,0,8.8c-0.4,2.8-0.7,5.7-0.9,8.5c-0.3,7.7-1.8,15.1-4.8,22.2
		c-2.8,6.4-5.5,12.8-8.9,18.8c-1.3,2.2-2.3,4.5-3.4,6.7c-1.2,2.5-2.7,4.8-4.3,7c-1.3,1.9-2.9,3.5-5,4.5c-1.5,0.7-3.1,1-4.7,0.5
		c-1.1-0.4-2.2-0.4-3.4-0.4c-3.1,0.1-5.7-1.1-8.3-2.8c-2.4-1.6-4.3-3.8-5.8-6.2c-0.6-0.9-1.1-1.7-1.7-2.4c-0.9-0.1-1.1,0.5-1.3,1
		c-5.5,10.2-12.4,19.4-19.2,28.7c-4.6,6.4-9.4,12.6-13.8,19.1c-2.1,3.1-4.2,6.1-6.2,9.2c2.7-2.3,5.5-4.5,8.3-6.7
		c4.7-3.6,9.4-7.3,14-11.1c2.6-2.1,3.4-0.9,4.5,1.5c0.4,0.8,0.1,1.6,0,2.3c-0.4,2.1-1.3,3.9-2.5,5.6c-1.3,2-2.7,4-4.1,5.9
		c-1.1,1.5-2,3.1-2.8,4.8c-1.1,2.3-2.4,4.7-3.7,7c-0.9,1.7-1.9,3.3-3,5c-8.8,13.6-14.1,28.5-17.5,44.2h8.1c0.5-3.4,1.3-6.8,2.3-10.2
		c1.6-5.3,3.3-10.6,5.9-15.7c1.3-2.5,2.7-4.8,4.3-7c1-1.3,1.8-2.6,2.5-4c1.6-3.3,3.4-6.5,5.5-9.4c1.5-2.1,3.2-4.2,4.8-6.2
		c0.9-1.1,2-2.2,2.8-3.5c0.3-0.4,0.6-0.9,1.3-0.9c0.3,0.6,0.2,1.1,0.1,1.6c-0.6,2.1-1.2,4.2-1.6,6.2c-0.6,2.6-1.3,5-2.9,7.2
		c-1.8,2.6-2.3,5.7-2.7,8.7c-0.7,5-1.9,9.8-3.1,14.7c-0.6,2.6-0.9,5.1-1.3,7.7c-0.6,3.5-0.6,7-0.6,10.4h16c0.7-4.3,0.8-8.6,1.3-12.9
		c0.9-8.1,1.9-16.2,4.8-23.8c3.5-9.3,7.2-18.5,11.7-27.4c1.6-3.1,3.1-6.1,4.8-9.1c2.5-4.5,5.7-8.6,9.7-11.9c1-0.8,2-1.6,3.1-2.1
		c3-1.3,5.7-0.4,7.3,2.4c0.6,1,0.9,2.1,1.5,3.5c3.4-4,6.2-7.8,8.5-12.1c5.8-10.6,10.5-21.8,14.5-33.3c1.4-4.2,2.9-8.4,4.5-12.6
		c0.3-0.9,0.6-1.8,1.1-2.5c1.2-1.8,3.3-2.1,5-0.9c1.2,0.9,1.9,2.3,2.5,3.6c1.4,3.2,2,6.5,2.6,9.9c0.7,4.4,0.9,8.9,0.9,13.3
		c-0.1,8.1-0.4,16.3-1.4,24.3c-1,7.6-2.9,15-5.6,22.2c-0.7,1.9-1.6,3.8-2.8,5.5c-2.2,3.1-5.2,4.8-9,4.7c-1,0-2.1,0-3.1-0.2
		c-2.3-0.4-4.2,0.3-5.8,2c-3,3.1-6,5.9-9.2,8.8c-2.6,2.5-5.3,5-8.1,7.5c-4.9,4.3-9.3,9.1-13.5,14.1c-2.3,2.8-4.3,5.9-6,9.2
		c-3,5.7-5.5,11.5-7.5,17.6h10.6c1.4-4.4,3-8.8,5.1-12.9c3.8-7.2,8.2-13.8,14.1-19.7c4.3-4.2,8.6-8.2,13.3-11.7
		c3-2.3,6.2-4.2,9.9-5.2c2.6-0.6,4.8,1.3,4.2,4c-1.1,5.7-3.3,11.1-6.9,15.8c-2.3,3.1-4.5,6.3-7,9.2c-1.4,1.6-2.7,3.4-4.1,5
		c-3.4,4-6.9,7.9-10.3,11.9c-0.9,1.1-1.8,2.3-2.6,3.5h16.9c4-5,8-10.2,11.9-15.3c6.7-8.7,13.2-17.5,18.6-27.1
		C681.2,642.1,684.5,636.9,687.8,631.6z M672.8,517.1c-0.2-0.6-0.7-0.9-1.3-0.9c-2-0.1-3.8,0.2-5.3,1.8c-1.1,1.1-2.3,2.3-3.4,3.3
		c-1,0.9-2.1,1.7-3.2,2.6c-0.7,0.6-1.5,0.6-2.3,0.4c-0.7-0.2-1.3-0.9-1.1-1.6c1.6-5,2.4-10.2,5.4-14.7c1.4-2.2,2.3-4.8,3.9-6.8
		c2.8-3.4,5.6-6.9,9.8-8.8c1.1-0.5,2.1-1,3.3-0.9s2.2-0.4,3.3-0.9c1.8-1,1.8-1,3.4,0.4c2,1.7,3.2,3.7,3.7,6.3
		c0.5,2.4,1.4,4.8,2.1,7.2c1.2,4.6,1.6,9.4,2.1,14.1c0.4,4.5,0.4,9.1,0.6,13.6c0.1,3.2-0.8,6.3-0.6,9.5c0.1,3.2,0.3,6.5-0.1,9.6
		c-0.5,3.8-0.2,7.5-0.7,11.2c-0.5,4-0.4,8-0.6,11.9c-0.1,2.1-0.5,4-0.8,6.1c-0.1,0.6-0.3,1.1-0.9,1.5c-0.9-3.1-1.1-6.2-1.6-9.3
		c-1.8-11.1-3.7-22.2-7.1-33c-1.5-4.7-3.1-9.3-4.4-14C675.8,522.7,674.1,520,672.8,517.1z"/>
	<path class="st4" d="M452.8,667.8c-0.4-0.5-11.4-17-12.7-18.3c-0.9-0.9-0.2-2.1-1.1-2.8c-3.4-2.8-6.7-5.8-10.2-8.7
		c-1.1-1-2.3-1.9-3.6-2.6c-1.9-0.9-3.4-2.2-4.8-3.8c-1.8-1.9-3.6-3.8-5.4-5.7c-1.7-1.9-3.7-3.4-5.8-4.7c-1.5-0.9-2.9-1.8-4.3-2.8
		c-2.6-1.8-4.8-4.3-6.5-7c-2.7-4.1-5.8-8-8.7-11.9c-0.3-0.4-0.6-0.6-1.5-1.6c0.6,4.5,1.6,8,3,11.4c1.3,3.2,2.7,6.3,4.1,9.4
		c1.8,4,3.5,8.2,4.9,12.4c0.6,2.1,0.9,4.2,1.1,6.4c0.6,8.9,2.2,17.6,6.5,25.6c0.4,0.8,0.8,1.6,0.9,2.6c0.4,2.1-0.6,3.5-2.5,4.3
		c-1,0.4-2,0.5-3.1,0.4c-2.4-0.1-4.8-0.6-7-1.7c-4.7-2.3-8.7-5.5-12.2-9.3c-2.2-2.5-4.3-5-6.3-7.7c-0.9-1.1-1.4-2.3-2.1-3.5
		c-2.1-4-4-8-6.1-11.9c-3.9-7.2-7.5-14.7-10.1-22.5c-0.4-1-0.8-1.8-1.4-2.7c-1.2-1.6-1.8-3.3-2.3-5.3c-1.6-8.4,0-16.1,4.5-23.4
		c0.3-0.4,0.6-0.9,0.9-1.3c-3.3-3.1-5.7-6.7-7.5-10.9c-2.7-6.3-4.6-12.8-5.8-19.7c-0.4-2.6-0.6-5.2-0.9-7.8c-0.1-1-0.4-2-0.5-3.1
		c-0.1-0.6-0.4-1.1-0.9-1.3c-4-1.8-6.7-5.2-9.2-8.6c-4.1-5.7-9.6-7.3-16.2-6.1c-0.7,0.1-1.4,0.2-2.1,0.2c0.7,3.8,1.5,7.5,2.5,11.1
		c1.3,5.3,1.3,10.6-0.3,15.9c-1.9,6.7-3.8,13.4-5.7,20.2c-0.4,1.4-0.8,2.9-1,4.3c-1,8.5-1.8,17-1.5,25.6c0.2,4.9,0.5,9.8,1.2,14.7
		c0.2,1.6,0.4,3.1,1.8,4.8c0-1.6,0-2.6,0-3.7c-0.1-3.9,0.1-7.8,1.3-11.5c0.8-2.4,1.6-4.8,2.6-7.1c0.6-1.7,1.5-3.3,2.6-4.8
		c0.7-0.9,1.6-1.6,2.7-2.1c1.5-0.5,2.8-0.1,3.5,1.3c0.5,0.9,0.6,2,0.7,3c0.8,5.2,1.6,10.4,2.5,15.5c1.2,7,3.4,13.8,5.6,20.5
		c1.6,4.8,3.5,9.4,5.7,14c2,4.1,4.3,8.1,7.3,11.6c3.1,3.5,5.8,7.3,8.4,11.2c2.7,4,5.6,7.9,9.2,11c1.8,1.6,3.5,3.3,5,5.1
		c1,0.4,2,0.8,3.1,1.1c2.4,0.9,4.7,1.8,6.4,3.8c0.1,0.1,0.1,0.1,0.1,0.1h33.7c-0.5-0.6-0.9-1.3-1.3-2.1c-2.1-3.9-4.5-7.7-8-10.6
		c-1.1-1-1.1-1.7-0.4-2.3c0.9-0.7,1.4-0.1,2.1,0.5c1.8,1.7,4.2,2.7,6.3,4.1c0.4,0.3,1.1,0.4,1.6,0.6c1.5,0.4,2.9-0.5,3-2
		c0.1-2.8,0.1-5.7,0.1-8.6c0-0.4-0.1-0.9-0.4-1.3c-2.1-2.9-2.8-6.5-4.2-9.7c-0.9-2.2-1.7-4.5-2.5-6.7c-0.4-1.2-0.9-2.4-1-3.6
		c-0.6-5.7-1.8-11.2-2.8-16.8c-0.1-0.6-0.1-1.1,0.1-1.6c1-0.1,1.3,0.8,1.8,1.4c2.8,4,5.5,8.2,8.2,12.2c4,6,8.5,11.9,13.3,17.3
		c4,4.5,7.9,9.2,11.8,13.8c0.2,0.3,0.5,0.5,0.7,0.8c1.1,1.9,1.3,2.4-0.6,4c-0.4,0.4-1,0.6-1.6,0.4c-3.6-1.1-6.9,0.2-10.2,1.5
		c-4.2,1.6-6.3,4.6-7.7,8.6c0,0.1-0.1,0.1-0.1,0.2h25.3c1.3-0.6,2.5-1.3,3.7-2c1.1-0.6,2.1-1.3,3.1-2.2c0.9-0.8,1.4-1.7,1.6-2.9
		c0.1-1.3,0.4-2.7,0.6-4c0.1-0.8,0.4-1.6,0.9-2.2c0.1-0.1,0.1-0.1,0.2-0.2C457,673.3,455,670.5,452.8,667.8
		C453,668,452.9,668,452.8,667.8z M355.7,641.8c0,0,0-0.1-0.1-0.1h-0.1c0,0,0,0,0-0.1c-0.5-0.2-0.9-0.6-1.1-1
		c-0.1-0.1-0.2-0.3-0.3-0.4c-3.3-5.5-6.7-11.1-9.3-17.1c-2.9-6.7-5.5-13.5-8-20.4c-1.1-3.1-2.1-6.2-2.6-9.5
		c-0.2-1.8-0.9-3.3-2.8-3.8c-1.2-0.4-2.2-1.2-3.1-2.1c-1-1.1-1.6-2.4-1.6-4c0.1-2.8-0.2-5.7,0.1-8.5c0.6-4.7,0.1-9.4,0.7-14
		c0.6-5.9,0.6-11.8,1.8-17.6c0.4-2.1,0.6-4.3,0.9-6.4c0.1-0.8,0.3-1.6,0.9-2.1c1.6,2.2,2,4.7,2.5,7.2c0.9,4.5,2.1,8.9,3.4,13.2
		c1.3,4.1,3,8.1,5.3,11.9c1.6,2.5,3.3,4.9,5.1,7.2c1.1,1.4,1.4,2.9,1,4.5c-0.4,1.7-0.4,3.4-0.5,5.1c-0.1,2.3,0.1,4.5-0.6,6.8
		c-0.2,0.7-0.1,1.6-0.1,2.4c0,2.5,0,5,0,7.5c-0.1,4.5,0.7,8.8,1.1,13.2c0.8,7.5,3.1,14.7,5.1,21.9c0.4,1.3,0.9,2.6,1.4,3.8
		c0.3,0.7,0.5,1.5,0.4,2.3l0,0l0,0l0,0v0.1c0.1,0.1,0.2,0.1,0.2,0.1C355.9,641.9,355.8,641.9,355.7,641.8z"/>
	<path class="st4" d="M429.6,206.6c0.9-0.4,1.7-0.6,2.6-1.1c1.4-0.6,2.7-0.4,3.9,0.5c1.3,0.9,2.6,1.9,3.8,2.9c2.6,2.1,5,4.3,7.7,6.3
		c1.3,1,2.6,1.8,4.1,2.5c2.6,1.1,5-0.1,6-2.8c0.4-1.1,0.4-2.3,0.2-3.4c-0.1-0.9-0.4-1.8-0.5-2.7c-0.2-1.9,0.1-2.4,1.8-3.3
		c3.3-1.7,7-2.5,10.6-2c3.1,0.4,6,1.6,8.4,3.6c1.4,1.2,2.6,2.6,2.3,4.7c-0.1,0.4,0.1,0.9,0.3,1.6c1.1-0.6,1.1-1.6,1.7-2.1
		c1.6-1.1,2.3-2.8,3-4.5c0.2-0.5,0.4-1.1,0.8-1.5c2.2-2.8,4.5-5.5,7.8-7.1c1.3-0.6,2.4-1.1,3.8-1c3.8,0.1,7.5,0,11.3-0.5
		c1.1-0.1,2.3-0.1,3.4-0.1c5.4,0,10.7,0,16.1,0c5,0,10,0.4,14.7,2.8c2.1,1.1,4.5,1.8,6.5,3.1c1.1,0.7,1.6,1.3,1.8,2.6
		c0.1,1.1,0.4,2.3,0.9,3.3c1.1,2.6,3.5,3.3,5.9,1.6c0.6-0.4,1.2-1,1.8-1.5c1-0.8,2-1.6,2.9-2.3c1.5-1.1,3-2.1,4.9-2.2
		c1.1-0.1,2.2-0.5,3.3-0.9c0.8-0.3,1.4-0.9,1.3-1.8c-0.1-2.2,0.7-4.3,1.3-6.3c0.3-0.9,0.1-1.3-0.6-1.6c-3.1-2-6.4-3.5-9.8-4.9
		c-4.9-1.9-10.1-2.9-15.3-3.7c-8.9-1.3-17.7-1.4-26.7-0.9c-8.2,0.4-16.4,1.2-24.6,1.1c-13.6-0.1-26.9,1.7-40.2,4
		c-4.4,0.7-8.6,2.3-12.9,3.3c-2.1,0.5-4.3,0.6-5.6,2.8c-0.1,0.1-0.1,0.1-0.3,0.2c-3.5,1.4-5.6,4.6-8.2,7.1c-0.9,0.9-1.4,2-1.4,3.4
		C428.4,206.5,428.9,206.9,429.6,206.6z"/>
	<path class="st4" d="M566.7,250.6c2.7,1.3,5,3.1,7.2,5.3c2.1,2.1,2.1,4.8,0.4,7.2c-0.5,0.6-1.1,1.2-1.6,1.8
		c-0.4,0.4-0.7,0.9-0.5,1.5c0.1,0.1,0.2,0.1,0.3,0.1c9.7,0.9,16,6.6,21.2,14.1c1.4,2.1,1.1,3.5-0.9,5.3c-0.2,0.2-0.6,0.4-1,0.6
		c1.9,2.6,3.5,5,4.7,7.7c0.3,0.7,0.9,1,1.6,1.1c4.5,0.6,8.5,2.5,12.3,5c1.2,0.9,1.7,0.6,1.7-0.7c0.1-2.4,0.1-4.8,0.1-7.2
		c-0.1-3.5-0.9-6.8-2.3-9.9c-1.3-3.1-3.2-5.8-5.2-8.4c-1.1-1.5-2.2-2.9-3.1-4.5c-1.3-2.1-1.4-4.3-0.8-6.6c0.1-0.6,0.4-1.1,0.6-1.6
		c1.1-2.3,0.6-4.2-1-6c-2.2-2.5-4.2-5.1-6.6-7.5c-2.2-2.1-4.5-4.3-7.4-5.5c-3.8-1.5-7.7-2.9-11.6-4.1c-6.1-1.8-12.1-2-18.1,0.6
		c-1.8,0.8-3.6,1.3-5.4,2.2c-6.1,2.8-11.9,6.3-17.1,10.7c-0.5,0.4-1.1,0.9-1.6,1.2c-1.4,0.8-3,0.4-3.9-1c-0.5-0.8-0.8-1.6-0.9-2.6
		c-0.2-1.4-0.5-2.9-0.7-4.3c-1.2,0-1.7,0.9-2.2,1.6c-2.3,3-4.6,6-6.9,9c-2.2,2.9-4,6.1-5.4,9.5c-1.3,3.3-3.2,6.3-5.5,9.1
		c-2.3,2.9-5,5.7-7,8.9c-0.2,0.3-0.4,0.6-0.6,0.8c-1.3,1.3-3.1,1.4-4.7,0.3c-1.1-0.9-1.9-2-2.6-3.1c-0.6-1.1-1.2-2.1-1.8-3.2
		c-0.2,0.1-0.4,0.1-0.4,0.1c-0.5,0.4-0.5,1-0.7,1.5c-0.5,1.3-0.8,2.6-1.6,3.8c-1.6,2.3-3.9,2.8-6.2,1.3c-0.9-0.6-1.6-1.3-2.3-2
		c-1.7-1.8-3.1-4-4-6.4c-2-5-4.1-9.9-6-15c-1.7-4.5-3.9-8.7-6.3-12.9c-0.3-0.6-0.4-1.3-1.3-1.3c-0.4,0.4-0.8,0.8-1.2,1.1
		c-1.9,1.6-4,1.6-6,0.1c-0.9-0.7-1.6-1.6-2.3-2.6c-0.5-0.7-0.7-1.7-1.8-2.3c-3.1,1.9-6,0.6-8.7-1.3c-1.1-0.7-2.1-1.5-2.9-2.4
		c-3.4-3.4-7.5-4.7-12.1-4.4c-7,0.4-13.8,1.8-20.5,3.9c-2.2,0.7-4.3,1.8-6,3.2c-0.6,0.5-1.3,0.9-1.3,2c1,0.8,2.3,1.4,3.1,2.5
		c2.4,3.1,1.6,6.9-1.9,8.6c-1.1,0.6-2.3,0.9-3.5,1.3c-3.3,1.2-6.6,2.5-9.7,4.4c-1.6,1-3.1,2.1-4.2,3.5c-3.1,3.9-5.4,8.2-6.7,13
		c-0.4,1.3-0.1,1.6,1.2,1.8c2.7,0.5,5.5,0.9,7,3.7c0.2,0.4,0.8,0.4,1.3,0.2c3.8-1.4,7.7-2.1,11.2-4.1c2.6-1.6,5.2-3.3,7.9-4.9
		c1.5-0.9,2.4-1.9,2.9-3.6c1.1-3.5,2.8-6.8,5.3-9.6c5.3-6,11.9-8.3,19.7-6.7c3.2,0.6,5.6,2.3,7.5,5.1c1.6,2.4,3,4.9,4.3,7.5
		s2.6,5,4.4,7.4c0.6,0.9,1.3,1.5,2.5,1.6c3.5,0.1,5.7,2.2,7.2,5c1.3,2.6,2.3,5.3,2.8,8c0.1,0.8,0.3,1.6,0.4,2.3
		c0,0.1,0.1,0.1,0.1,0.1c2.2,3,3.7,6.3,5,9.7c1,2.6,1.9,5.1,3.1,7.6c0.7,1.6,1.7,1.6,2.8,0.1c1.9-2.6,3.2-5.5,4.5-8.4
		c1.9-4.5,5.1-7.8,9.9-9.2c2.8-0.9,5.6-0.7,8.2,0.8c2.2,1.3,4.2,2.8,5.7,4.8c1.6,2.1,3.5,3.9,5.4,5.7c0.7,0.7,1.6,1.3,2.6,1.6
		c1.9,0.7,3.2,0.4,4.5-1.3c1.1-1.4,2.3-2.8,3.3-4.3c1.1-1.6,2.1-3.3,4.1-4c0.6-0.2,0.9-1,1.3-1.5c0.2-0.2,0.4-0.4,0.6-0.5
		c-0.4-3-0.4-6-0.4-9c0-1.7,0.4-3.4,0.9-5c0.4-1.1,0.9-2.1,1.6-3c1.4-1.6,3.3-1.7,4.8-0.3c0.6,0.5,0.6,1.4,1.5,1.6
		c0.2-0.1,0.4-0.1,0.4-0.2c0.6-1,1.2-1.9,1.7-3c3-5.7,7-10.7,11.7-15.1c4.3-4,9.2-6.8,14.6-8.7C561.6,249.7,564.1,249.4,566.7,250.6
		z M579.7,243.8c1.4,0.9,2.8,1.8,4.5,2.4c2.5,0.8,4.1,2.8,5.7,4.8c1.6,2,1.8,4.1,0.1,6.2c-0.4,0.5-0.9,1.1-1.1,1.7
		c-0.5,0.9-1.1,1.4-2.1,1.5c-0.4,0-0.6,0.1-1,0.2c-2.2,0.9-2.8,0.6-3-1.7c-0.2-1.8-1-3.2-2.2-4.5c-1.8-1.9-3.7-3.8-6.2-4.8
		c-2.5-0.9-4.3-2.5-4.9-5.3c-0.1-0.3-0.4-0.6-0.7-0.9C572.6,240.9,576.2,241.4,579.7,243.8z M429.2,246.7c-1.2,1.8-2.9,2.7-5,2.3
		c-3-0.6-5.6-0.1-8.1,1.6c-0.6,0.4-1.2,0.6-1.8,0.9c-2.6,0.7-4.4,2.3-5.7,4.5c-0.5,0.8-0.8,1.6-1.8,1.8c-0.1-0.2-0.3-0.5-0.2-0.6
		c1.2-3.9,2.3-7.9,4.1-11.6c0.6-1.1,1.3-2.1,2.2-3.1c1.3-1.3,2.9-2.2,4.9-1.6c0.7,0.2,1.3,0,2-0.3c1.2-0.4,2.4-0.6,3.5-1.1
		c1.5-0.6,2.7-0.1,3.8,0.8c1.5,1.2,2.1,3,2.6,4.8C429.8,245.6,429.6,246.2,429.2,246.7z M471.6,285.2c0,0.7-0.4,1.3-0.9,1.8
		c-0.9,0.9-1.8,0.9-2.8,0.1c-0.8-0.6-1.6-1.3-2.2-2.2c-2.8-3.8-6.3-6.9-9.6-10.2c-2.8-2.8-5.4-5.8-7.8-9c-0.6-0.9-1-1.8-1.6-2.6
		c-1.5-2.3,0-5.6,3.3-6c0.4-0.1,0.7,0,1,0c2.7,0.3,5.4,0.8,7.9,1.9c1.1,0.5,1.8,1.3,2.6,2.3c0.6,0.7,1.1,1.5,1.5,2.3
		c3.1,5.8,6,11.8,8,18.1C471.6,282.7,471.6,284,471.6,285.2z M518.1,270.3c-0.1,0.6-0.4,1.3-0.7,1.9c-0.4,0.9-0.9,1.8-1.3,2.8
		c-1,2.6-1.6,5.2-1.5,8c0.1,1.7-0.1,3.4,0,5.1c0.1,1.4-0.4,2.7-0.8,4c-0.8,2.2-2.5,3-4.6,2.1c-1.1-0.5-2.3-1-3.5-0.9
		c-0.9,0.1-1.6-0.5-1.8-1.3c-0.3-1.1-0.9-2.1-0.8-3.3c-0.1-0.9,0.3-1.6,0.6-2.3c0.7-1.3,1.4-2.6,2.2-3.8c2.3-3.8,4.8-7.5,7.7-10.9
		c0.8-1,1.7-1.8,2.6-2.7c0.4-0.4,1-0.8,1.6-0.5C518.5,268.9,518.2,269.7,518.1,270.3z"/>
	<path class="st4" d="M603.9,344.4c-0.6,0.6-1.5,1.1-2.3,1.5c-1,0.5-1.3,1.3-1.1,2.3c0.5,2,0.9,4,1.8,5.9c1,1.9,1.9,3.9,2.9,5.8
		c2.6,4.8,5.4,9.6,7.7,14.5c4.3,8.9,8.3,17.8,11,27.3c1.3,4.5,1.9,9.1,2.6,13.8c0.5,3.5,0.6,6.9,0.6,10.3c0.3-0.4,0.6-0.9,0.9-1.3
		c0.4-0.6,0.6-1.3,0.7-1.9c0.9-3.5,1.8-7.1,2.2-10.7c0.8-6.7,1.3-13.4,1.4-20.2c0-0.7,0-1.3,0.1-2.1c0.2-1.2,1-2.1,2.2-2.4
		s2.3,0.2,3.1,1.1c0.6,0.8,1.1,1.7,1.5,2.7c0.8,2.1,1.5,4.3,2.1,6.5c1,3.8,1.2,7.7,1.6,11.5c1.1,9.9-0.3,19.4-3.5,28.7
		c-0.5,1.4-1,2.8-1.4,4.2c-1.5,4.9-3.4,9.7-5.9,14.2c-1.1,1.9-1.4,3.8-0.9,5.9c0.8,3.1,1.6,6.2,2.5,9.3c0.1,0.6,0.4,1.1,0.7,1.6
		c0.2,0.4,0.6,0.4,0.9,0.1c0.5-0.4,0.9-0.7,1.3-1.1c3.5-3.1,7.4-5.3,11.8-6.5c0.8-0.2,1.6-0.4,2.4-0.6c0.9-0.2,1.8-0.4,2.7-0.6
		s1.6-0.6,2.1-1.3c0.1-0.2,0.3-0.5,0.4-0.8c0.8-2.1,1.7-4,2.6-6c3.1-7.5,5.4-15.3,8.2-22.9c0.5-1.4,0.6-2.9,0.6-4.4
		c0.1-2.1,0.1-4.1,0.5-6.2c0.4-1.7,0.9-3.3,2.4-4.4c0.9-0.6,1.2-1.3,1.1-2.1c-0.1-0.6-0.1-1.1-0.2-1.6c-0.6-5.8-1.3-11.6-1.8-17.4
		c-0.6-7.2-2.2-14.2-5.1-20.9c-2.2-5-4.4-10-6.6-15c-0.6-1.4-1.6-2.5-2.7-3.5c-2-1.8-4-3.8-5.6-6c-1.1-1.6-2.3-2.3-4.3-1.1
		c-0.6,0.4-1.6,0.4-2.3,0.5c-0.9,0.2-1.8,0.4-2.6,0.6c-1.4,0.4-2.2,1.6-3,2.7c-0.6,0.7-0.1,1.6,0,2.3c0.4,1.9,0.7,3.8,1.1,5.7
		c0.4,1.5,0.5,2.9,0.1,4.4c-0.8,2.8-3.1,3.7-5.6,2.2c-1.8-1.1-3.2-2.6-4.5-4.2c-2.5-3-4.9-6-7.5-8.9c-2.1-2.6-4.5-4.8-7.4-6.6
		c-3-1.8-6.1-3.5-9.2-5.3C604,344.2,604,344.3,603.9,344.4z M643.2,382.1c0.7-3.3,1.6-6.6,2.1-10c0.3-1.7,0.5-3.4,0.4-5.1
		c-0.1-2.3,0.4-4.3,2-6.5c2.2,3.7,3.8,7.2,5.4,10.7c0.8,1.6,1.5,3.3,2.1,5c1.6,4.2,2.3,8.6,2.9,13c0.4,2.7,0.9,5.4,1.1,8.1
		c0.2,2.1,0.2,4.3,0.3,6.5c0.1,2.1,0.1,4,0.4,6.1c0.4,2,0.4,4.1-0.1,6.1c-0.1,0.6-0.3,1.1-0.2,1.7c0.1,6.6-2.2,12.5-5,18.3
		c-1.9,3.9-3.8,7.7-6.5,11.3c-0.1,0.1-0.4,0.4-0.6,0.3c-0.4-0.1-0.4-0.5-0.3-0.8c0.9-3.2,1.7-6.4,2.1-9.7c0.4-3.1,0.8-6.1,1.3-9.1
		c0.8-4.9,0.6-9.8,0.6-14.7c0-5.5-1-10.9-2.5-16.1c-1.2-4.2-2.7-8.2-5.1-11.9C642.9,384.3,642.9,383.3,643.2,382.1z"/>
	<path class="st4" d="M319.3,420.6c0.4,0,0.6-0.1,1-0.1c2.1-0.1,3,0.7,3.1,2.8c0.1,1.3,0.1,2.8,0.5,4c0.2,0.8,0.3,1.6,0,2.3
		c-0.6,1.9-0.4,3.8-0.2,5.7c0.8,6.8,2.2,13.6,4,20.2c2.2,7.7,6,14.8,10.2,22.4c1.8-4.7,3.4-8.7,5-12.8c0.4-1.1,0.1-2-0.1-3
		c-1.3-5.7-1.6-11.5-1.1-17.4c0.9-10,3.7-19.5,7.2-28.8c0.6-1.6,0.9-3,0.9-4.6c-0.3-3.7-0.1-7.3,0.3-10.9c0.4-3.2,0.6-6.4,1.1-9.5
		c0.4-2.7,0.9-5.4,1.9-8c0.5-1.2,1.1-2.3,2-3.2c1.8-1.8,4.4-1.6,6,0.4c0.9,1.1,1.4,2.3,1.6,3.8c0.3,1.9,0.5,3.8,0.6,5.8
		c0.4,6,0.1,12.1,0,18.2c-0.1,4.8,0.1,9.6,0.6,14.3c2.1-1.9,3.8-4.2,5.2-6.7c2.1-3.7,4.6-7.1,6.2-11c1.2-2.8,2.4-5.7,3.5-8.5
		c1.6-4,3.5-7.9,6.5-11.2c3.1-3.5,5-7.8,6.2-12.4c0.5-2,0.9-4,1.5-6c0.9-3.1,0.4-5.8-1.3-8.4c-1.6-2.3-3.1-4.8-4.3-7.4
		c-0.6-1.3-0.9-2.6-0.8-4c0.1-0.9,0.3-1.6,0.6-2.3c-2.1-0.1-4.1-0.3-6.2-0.4c-1-0.1-2.1-0.1-3.1-0.1c-0.8,0-1.3,0.3-1.7,0.9
		c-0.6,1.1-1.3,2.2-1.9,3.3c-3.3,5.5-7.2,10.6-12.3,14.6c-6.4,5-12.8,9.9-20.2,13.6c-0.6,0.3-1.3,0.6-1.5,1.3
		c-0.9,2.6-2.8,4.4-4.6,6.3c-2.6,2.9-4.9,6-6.5,9.7c-0.7,1.7-1.5,3.3-2.1,5c-2.2,6.2-5,12-9,17.2c-1.1,1.3-0.9,3.4,0.3,4.7
		C318.6,420.5,319,420.5,319.3,420.6z M367.5,369.4c0.7-0.7,1.1-1.7,1.9-2.4c2.4-2.3,4.1-5.1,5.5-8.2c0.4-0.9,0.9-1.9,1.5-2.7
		c1.1-1.5,3-1.3,4,0.1c0.4,0.6,0.9,1.1,0.9,1.8c0.6,3.5,1.6,6.9,1.7,10.4c0,1.6-0.3,2.9-1.3,4.1c-1.3,1.5-2.5,3-3.7,4.5
		c-2.8,3.5-5.3,7.5-7.6,11.4c-0.4,0.6-0.8,1.1-1.1,1.7c-0.8-2.2-1-4.3-1.3-6.4c-0.4-2.9-1-5.8-1.8-8.7
		C365.7,372.8,365.8,371.1,367.5,369.4z M327.9,411.4c2.6-3.5,5.2-7,7.7-10.5c1.3-1.7,2.4-3.5,3.3-5.5c0.5-1.1,1.1-2.3,1.7-3.3
		c0.9-1.4,2.1-3,3.9-2.5c0.7,0.2,1.3,0.7,1.6,1.4c0.7,1.4,0.4,3,0.1,4.5c-2.2,10.9-5.6,21.4-7.9,32.3s-3.3,22.1-0.9,32.9
		c-5.2-8.7-7.7-19-7.1-29c0.1-2.5,0.5-4.9,0.4-7.4s-0.9-5-2.4-6.8c-0.6-0.7-1.4-1.3-1.6-2.3C326.2,413.9,327.1,412.6,327.9,411.4z"
		/>
	<path class="st4" d="M550.3,579.3C550.4,579.3,550.4,579.3,550.3,579.3C550.4,579.3,550.4,579.2,550.3,579.3
		C550.4,579.2,550.4,579.2,550.3,579.3C550.4,579.3,550.4,579.3,550.3,579.3z"/>
	<path class="st4" d="M850.1,669.5c-1.8-3.7-4.1-7.2-6.7-10.3c-2.6-3.2-5.5-6.1-8.7-8.7c-3.2-2.6-6.7-4.8-10.4-6.5l0,0l-5.5-2.4
		c-0.6-0.5-1.1-1.1-1.8-1.6c-1.3-1.1-2.8-2.3-4.4-3.1c-6.4-3.5-13.6-5.6-20.9-6.8c-3.6-0.6-7.3-1-10.9-1.2c-2.4-0.1-4.8,0-7.2-0.4
		c-2.6-0.4-5.1-1.6-7.7-1.8c-1-0.1-2.1,0-3.1,0.1c-8.4,0.9-16.8,2.1-24.8,4.5c-4,1.2-8,2.8-11.9,4.7c-3.6,1.8-6.9,4.5-10.6,6
		c-0.9,0.4-1.8,0.8-2.7,1.1c-19.4,8.3-36.7,24.6-43.4,44.9l0,0c1.8-0.4,3.8,0.3,5.3-0.9c0.6-0.4,0.9-1.1,1.2-1.8
		c3.1-6.7,6.2-13.7,11.4-19c6.5-6.4,16.7-8.9,24.3-3.1v-0.1c0,0.1,0.1,0.1,0.1,0.1c0.4,0.4,0.9,0.7,1.3,1.1c0,0,0,0,0.1,0.1
		s0.3,0.2,0.4,0.4c0.5,0.4,1,1,1.3,1.5c0.1,0.1,0.1,0.2,0.2,0.3c-0.6,0-1.3,0-1.9,0.1c-1.4,0.1-2.8,0.5-4,1c-2.6,1-5,2.4-7.3,4
		c-0.6,0.4-1.1,0.8-1.7,1.2l-0.9,0.6l-1.6,1.1l-0.8,0.6l0.9-0.2c4-1.1,8-1.1,11.9,0.7c0.3,0.1,0.6,0.3,0.9,0.5s0.6,0.4,0.9,0.5
		c0.6,0.4,1.1,0.8,1.6,1.2c1,0.9,1.9,1.9,2.8,3.1c0.9,1.2,1.6,2.6,2.3,3.9l0,0c-0.1,0.4-0.2,0.8-0.3,1.1c-0.1,0.2-0.1,0.5-0.1,0.7
		c0,0.1,0,0.1,0,0.1c-0.1,0.4-0.1,0.9-0.2,1.3c0,0.1,0,0.2,0,0.4s0.1,0.2,0.1,0.4s0.1,0.4,0.1,0.6c0-0.1,0-0.1,0-0.1
		c0,0.1,0,0.1,0,0.1v0.1c0,0,0,0,0-0.1c0.1,0.7,0.3,1.5,0.4,2.2c0.2,0.9,0.4,1.8,0.6,2.6c1.1,1.8,2.2,3.6,2.9,5.6
		c0.1,0.2,0.1,0.4,0.2,0.6c0,0.1,0,0.1,0.1,0.1c0.1,0.2,0.1,0.4,0.1,0.6c0,0,0,0,0,0.1c0.1,0.2,0.1,0.4,0.1,0.6c0,0.1,0,0.1,0,0.2
		c0,0.1,0.1,0.4,0.1,0.5s0,0.1,0,0.1c0,0.2,0.1,0.4,0.1,0.6c0,0.1,0,0.1,0,0.2c0,0.1,0,0.3,0.1,0.4c0,0.1,0,0.2,0,0.3s0,0.3,0,0.4
		c0,0.1,0,0.2,0,0.3s0,0.2,0,0.3c0,0.2,0,0.4,0,0.6c0,0.1,0,0.1,0,0.1c0,0.1,0,0.3,0,0.4c0,0,0,0,0,0.1c0,0.3,0,0.6,0,0.9
		c0.1,0.1,0.2,0.3,0.4,0.4c0.6,0.7,1.1,1.4,1.8,2.1c0.3,0.3,0.6,0.6,0.9,0.9c2.5,2.1,5,4.1,8.3,4.9c5.1,1.1,10.4-0.5,15.7-0.1
		c1,0.1,2.1,0.2,3.1-0.1c1.8-0.7,2.9-3.6,3.8-5.3c1.4-2.5,2.6-5,3.6-7.7c1.9-5,3.1-10.4,3.5-15.8c0.6-8.5-0.9-17.1-4.3-24.9
		c-1.7-3.9-3.8-7.7-6.3-11.1c-2.5-3.5-5.4-6.6-8.5-9.5c-0.4-0.4-0.8-0.7-1.2-1.1l-2.1-1.8H741c0,0-0.1,0,0,0h0.1l0.2,0.1l0.4,0.1
		l0.8,0.2l1.2,0.3l0.4,0.1l0.4,0.1l0.8,0.2c2.1,0.6,4,1.4,6,2.4c17.7,9.2,25.3,27.9,26.5,46.8c0,0.1,0,0.3,0,0.4
		c0,0.6,0.1,1.1,0,1.7c0,0.5,0,1.1-0.1,1.6s-0.1,1-0.1,1.5c0,0.1,0,0.1,0,0.1c-0.1,0.4-0.1,0.7-0.1,1s-0.1,0.7-0.2,1
		c0,0.2-0.1,0.4-0.1,0.7c-0.5,3.1-1.6,6.2-2.6,9.2c-1.1,3.2-2.9,6.3-1.6,9.7c2.8,7.2,9.1,9.4,16,10.5c0.9,0.1,1.8,0.3,2.8,0.4
		c1.1,0.1,2.3,0.3,3.5,0.4c1.3,0.1,2.7,0.3,4,0.4c0.3,0,0.5,0.1,0.8,0.1c0.2,0,0.5,0,0.7,0.1c0.5,0,0.9,0,1.4,0c0-0.1,0-0.1,0-0.1
		c0.6-2.7,2-5,3.3-7.5c5.8-11.4,8.1-24.9,6.2-37.8c-1.7-12-8.4-23.1-16.8-31.6c-0.8-0.8-1.7-1.9-1.6-3.1c3,0.8,6.1,3.3,8.7,4.9
		c3.2,2,6.3,4.1,9.2,6.5c5.3,4.4,10.2,10,11.2,17c2.1,13.3,5.7,14.1,4,27.5c-0.5,3.5-2.6,6.8-3.3,10.4c-1,5-1.3,9.7-3.2,14.4
		c-0.1,0.3-0.3,0.6-0.4,0.9c-0.1,0.4-0.3,2.8-0.9,2.6c2.4,0.8,14,3.1,14.6-1.1l0.4-2.3l2.9-16c2.8-15.8,3.2-31.6-3.9-46.4
		c-1.6-3.1-4.2-9.2-6.2-11c0.2,0.2,0.5,0.4,0.7,0.6c3.9,3.7,7.6,7.2,10.5,11.9c3.4,5.4,6.3,11.4,8.6,17.4c0.2,0.5,0.4,1,0.5,1.4
		c0.6,1.9,1.1,3.9,1.6,5.8c0.8,4,1.2,8,1.3,11.9c-0.1,4-0.5,8-1.4,11.8c-0.3,1.2-0.6,2.3-0.9,3.5c0.4-0.1,0.7-0.1,1.1-0.3
		c1-0.4,1.8-1.1,2.6-1.8c0.7-0.8,1.3-1.6,1.8-2.6c0.5-0.9,0.9-1.9,1.2-2.8c0.1-0.5,0.3-1,0.4-1.5C857.7,696.7,856.5,682,850.1,669.5
		z M720.5,639.5L720.5,639.5C720.6,639.4,720.6,639.4,720.5,639.5C720.7,639.4,720.6,639.5,720.5,639.5z"/>
	<path class="st4" d="M288.2,643.2c-0.9-0.4-1.8-0.8-2.7-1.1c-3.8-1.5-7-4.1-10.6-6c-3.8-1.9-7.8-3.5-11.9-4.7
		c-8.1-2.4-16.5-3.7-24.8-4.5c-1-0.1-2.1-0.2-3.1-0.1c-2.6,0.2-5.1,1.3-7.7,1.8c-2.4,0.4-4.8,0.3-7.2,0.4c-3.7,0.2-7.3,0.6-10.9,1.2
		c-7.2,1.2-14.4,3.2-20.9,6.8c-1.6,0.9-3,2-4.4,3.1c-0.6,0.5-1.1,1-1.8,1.6l-5.5,2.4l0,0c-3.7,1.8-7.2,4-10.4,6.5s-6.1,5.5-8.7,8.7
		c-2.6,3.2-4.8,6.7-6.7,10.3c-6.2,12.4-7.5,27.1-3.9,40.5c0.1,0.5,0.3,1,0.4,1.5c0.4,1,0.7,1.9,1.2,2.8c0.5,0.9,1.1,1.8,1.8,2.6
		s1.6,1.5,2.6,1.8c0.4,0.1,0.7,0.2,1.1,0.3c-0.4-1.1-0.7-2.3-0.9-3.5c-0.9-3.8-1.3-7.8-1.4-11.8c0-4,0.4-8,1.3-11.9
		c0.4-2,0.9-3.9,1.6-5.8c0.1-0.5,0.3-1,0.5-1.4c2.3-6,5.2-12,8.6-17.4c2.9-4.6,6.6-8.2,10.5-11.9c0.2-0.2,0.5-0.4,0.7-0.6
		c-2,1.8-4.7,7.9-6.2,11c-7.2,14.8-6.7,30.5-3.9,46.4l2.9,16l0.4,2.3c0.6,4.2,12.1,1.9,14.6,1.1c-0.6,0.2-0.9-2.3-0.9-2.6
		c-0.1-0.3-0.2-0.6-0.4-0.9c-1.8-4.8-2.2-9.4-3.2-14.4c-0.7-3.5-2.9-6.8-3.3-10.4c-1.8-13.3,1.9-14.2,4-27.5c1.1-7,6-12.6,11.2-17
		c2.9-2.4,6-4.5,9.2-6.5c2.6-1.6,5.8-4.1,8.7-4.9c0.1,1.1-0.8,2.3-1.6,3.1c-8.4,8.5-15.1,19.7-16.8,31.6
		c-1.8,12.9,0.4,26.5,6.2,37.8c1.2,2.4,2.6,4.8,3.3,7.5c0,0.1,0,0.1,0,0.1c0.5,0,0.9,0,1.4,0c0.2,0,0.5,0,0.7-0.1
		c0.3,0,0.5-0.1,0.8-0.1c1.3-0.1,2.7-0.3,4-0.4c1.1-0.1,2.3-0.2,3.5-0.4c0.9-0.1,1.8-0.2,2.8-0.4c7-1.1,13.3-3.3,16-10.5
		c1.3-3.4-0.5-6.5-1.6-9.7c-1-3-2.1-6.1-2.6-9.2c0-0.2-0.1-0.4-0.1-0.7c-0.1-0.3-0.1-0.7-0.2-1c-0.1-0.4-0.1-0.7-0.1-1
		c0-0.1,0-0.1,0-0.1c-0.1-0.5-0.1-1-0.1-1.5c-0.1-0.5-0.1-1.1-0.1-1.6c0-0.6,0-1.1,0-1.7c0-0.1,0-0.3,0-0.4
		c1.1-19,8.8-37.6,26.5-46.8c1.9-1,3.9-1.8,6-2.4l0.8-0.2l0.4-0.1l0.4-0.1l1.2-0.3l0.8-0.2l0.4-0.1l0.2-0.1h0.1l0,0H260l-2.1,1.8
		c-0.4,0.4-0.8,0.7-1.2,1.1c-3.1,2.8-6,6-8.5,9.5s-4.6,7.2-6.3,11.1c-3.4,7.8-5,16.5-4.3,24.9c0.4,5.4,1.6,10.7,3.5,15.8
		c1,2.6,2.2,5.3,3.6,7.7c0.9,1.6,2.1,4.5,3.8,5.3c0.9,0.4,2,0.2,3.1,0.1c5.3-0.4,10.6,1.2,15.7,0.1c3.3-0.8,5.8-2.8,8.3-4.9
		c0.3-0.3,0.6-0.6,0.9-0.9c0.6-0.7,1.2-1.4,1.8-2.1c0.1-0.1,0.2-0.3,0.4-0.4c0-0.3,0-0.6,0-0.9c0,0,0,0,0-0.1s0-0.3,0-0.4
		c0-0.1,0-0.1,0-0.1c0-0.2,0-0.4,0-0.6c0-0.1,0-0.2,0-0.3s0-0.2,0-0.3s0-0.3,0-0.4c0-0.1,0-0.2,0-0.3s0-0.3,0.1-0.4
		c0-0.1,0-0.1,0-0.2c0-0.2,0.1-0.4,0.1-0.6c0-0.1,0-0.1,0-0.1c0-0.1,0.1-0.4,0.1-0.5s0-0.1,0-0.2c0.1-0.2,0.1-0.4,0.1-0.6
		c0,0,0,0,0-0.1c0.1-0.2,0.1-0.4,0.1-0.6c0-0.1,0-0.1,0.1-0.1c0.1-0.2,0.1-0.4,0.2-0.6c0.7-2,1.8-3.8,2.9-5.6
		c0.2-0.9,0.4-1.8,0.6-2.6c0.1-0.7,0.3-1.5,0.4-2.2c0,0,0,0,0,0.1v-0.1c0-0.1,0-0.1,0-0.1c0,0.1,0,0.1,0,0.1
		c0.1-0.2,0.1-0.4,0.1-0.6c0-0.1,0-0.2,0.1-0.4c0-0.1,0-0.2,0-0.4c-0.1-0.4-0.1-0.9-0.2-1.3c0-0.1,0-0.1,0-0.1
		c-0.1-0.2-0.1-0.5-0.1-0.7c-0.1-0.4-0.2-0.8-0.3-1.1l0,0c0.6-1.3,1.4-2.7,2.3-3.9c0.8-1.1,1.7-2.1,2.8-3.1c0.6-0.4,1.1-0.9,1.6-1.2
		c0.3-0.2,0.6-0.4,0.9-0.5s0.6-0.3,0.9-0.5c3.8-1.8,7.8-1.8,11.9-0.7c0.1,0,0.9,0.2,0.9,0.2l-0.8-0.6l-1.6-1.1l-0.9-0.6
		c-0.6-0.4-1.1-0.8-1.7-1.2c-2.3-1.6-4.7-3-7.3-4c-1.3-0.5-2.7-0.8-4-1c-0.6-0.1-1.3-0.1-1.9-0.1c0.1-0.1,0.1-0.2,0.2-0.3
		c0.4-0.6,0.9-1.1,1.3-1.5c0.1-0.1,0.3-0.3,0.4-0.4c0,0,0,0,0.1-0.1c0.4-0.4,0.9-0.8,1.3-1.1c0-0.1,0.1-0.1,0.1-0.1v0.1
		c7.7-5.9,17.8-3.3,24.3,3.1c5.3,5.2,8.3,12.2,11.4,19c0.3,0.6,0.6,1.3,1.2,1.8c1.4,1.1,3.5,0.5,5.3,0.9l0,0
		C324.9,667.9,307.6,651.6,288.2,643.2z M280.4,639.4c0.1,0,0.1,0.1,0.1,0.1l0,0L280.4,639.4z"/>
</g>
</svg>
