<?xml version="1.0" encoding="utf-8"?>
<!-- Generator: Adobe Illustrator 24.0.1, SVG Export Plug-In . SVG Version: 6.00 Build 0)  -->
<svg version="1.1" id="New_group_1_" xmlns="http://www.w3.org/2000/svg" xmlns:xlink="http://www.w3.org/1999/xlink" x="0px"
	 y="0px" viewBox="0 0 990 781.2" style="enable-background:new 0 0 990 781.2;" xml:space="preserve">
<style type="text/css">
	.st0{fill:#E4706A;}
	.st1{fill:#545458;}
	.st2{fill:#FFFFFF;}
	.st3{fill:#EBAE44;}
	.st4{fill:#BF7C22;}
</style>
<g>
	<path d="M136.4,740.7c-0.3,1.7-0.6,3.1-0.9,4.5c-0.8,3.8-2.1,7.4-4.8,10.3c-0.4,0.4-0.6,0.9-0.9,1.4c-1.7,2.8-4.1,3.9-7.3,3.1
		c-6.8-1.8-13.1-4.7-18-9.9c-5.4-5.8-10.8-11.6-14.8-18.5c-1.5-2.5-3.5-4.3-5.9-5.8c-7.6-4.5-13.2-11-18.2-18.1
		c-6-8.4-8.6-18-10.2-27.9c-0.7-4.6-0.7-9.4-0.3-14.1c0.4-6.4,1.2-12.7,2.5-19c1.3-6,3.2-11.9,5.9-17.4c3.2-6.6,8.1-11.9,13.6-16.6
		c8.9-7.5,18-14.9,27.6-21.6c14.5-10.1,30.5-16.8,47.9-19.9c6.1-1.1,12.3-1.8,18.6-2c10.7-0.4,21.2,0.4,31.8,1.9
		c2.6,0.4,2.7,0.3,4-2.3c4.7-9.9,9.5-19.7,14.9-29.3c0.6-1,1.1-2,1.8-2.8c3.4-3.9,5.1-8.6,6.5-13.5c2-6.7,3-13.6,3.1-20.6
		c0.1-8.2-0.6-16.5-0.8-24.7c-0.2-7.9-0.8-15.8-0.6-23.7c0.1-2.1,0.1-4.2,0.5-6.2c0.5-3.2,0.4-6.4,0.4-9.6
		c-0.1-3.8,0.2-7.5,0.8-11.2c0.3-2.1-0.1-2.5-2-1.7c-7,2.9-14.3,3.9-21.8,4.2c-7.9,0.2-15-2.1-20.7-7.9c-3.2-3.3-6.5-6.6-8.9-10.7
		c-1.9-3.2-3.1-6.7-4-10.2c-0.5-2-0.4-4.1-0.3-6.2c0.4-7.4,1.8-14.6,2.9-21.9c1-6.7,1.2-13.4,0.5-20.1c-0.3-2.9-0.2-5.9-0.2-8.9
		c-0.1-7.4-1.4-14.6-4.2-21.5c-0.7-1.8-1.7-3.4-3-4.9c-2.3-2.5-4.4-5.3-6.1-8.3c-1.4-2.4-3.2-4.6-5.2-6.6
		c-11.6-11.3-19.5-25.1-25.1-40.2c-4-10.8-6-22-7.7-33.3c-2.1-14.4,0.7-28.1,5.6-41.6c2.6-7.3,6.8-13.5,11.9-19.3
		c6.8-7.7,14.5-14.4,23-20.3c1.6-1.1,3.2-2.1,4.9-3c4.8-2.5,9.4-5.5,13.7-8.8c9.5-7.2,19.6-13.4,29.9-19.5c6.6-3.9,13.1-8,19.4-12.3
		c4-2.8,8.2-5.2,12.7-7.2c2.8-1.2,5.3-2.9,7.8-4.6c3.4-2.4,6.8-4.8,10.2-7.1c3.5-2.4,6.9-4.9,10-7.8c3.5-3.2,7.3-6,11.4-8.3
		c9.1-5.1,17.8-11.1,26.8-16.3c9.4-5.5,19.1-10.4,29.5-13.7c6-1.9,12.2-2.6,18.2-4.2c12.7-3.3,25.6-3.3,38.6-2.4
		c10.6,0.8,21.2,1.8,31.8,1.5c5.1-0.2,10,0.9,14.9,2c3.3,0.7,6.5,0.7,9.8,0.1c4.6-0.9,9.1-1.8,13.7-2.6c5.9-1.1,11.8-0.9,17.7-0.2
		c5,0.6,10,1.3,14.9,2.6c3.9,1,7.9,1.1,11.9,1.4c5.3,0.4,10.5,0.5,15.8,0.7c4,0.1,8-0.5,11.9-1.3c7.9-1.5,15.8-2.7,23.7-3.5
		c9.2-0.9,18.4-0.9,27.5,0.5c3.9,0.6,7.6,2,11.1,3.8c2.9,1.5,5.7,2,9,1.5c10.4-1.7,20.9-1.4,31.3-0.3c4.9,0.5,9.9,0.6,14.8,1.5
		c14.4,2.6,27.9,7.7,39.8,16.4c9.6,7,19.2,14.1,28.7,21.3c3.8,2.8,7.2,6.1,10.3,9.6c4.3,4.8,9,9.4,13.4,14.1c4,4.3,7.7,9,12.1,13
		c6.7,6.2,13.6,12.1,21.9,16.1c5.8,2.8,11.9,4.6,18,6.5c4.9,1.5,9.7,3.2,14.5,5.1c6.6,2.7,12.2,7.1,16.9,12.4
		c7.4,8.3,12.3,17.9,13.9,29c0.9,6.1,1,12.3,0.5,18.4c-0.6,8.3-1.4,16.6-2.7,24.8c-2.3,14.4-6.5,28.2-13.1,41.2
		c-1.9,3.8-3.6,7.7-4.8,11.7c-2.3,8-6.7,15-11.4,21.8c-5,7.2-10.8,13.7-16.2,20.5c-4.8,6.1-9.5,12.2-14.2,18.5
		c-3.7,5-6.9,10.2-8.7,16.2c-1.1,3.5-1.7,7.2-2,10.8c-0.3,3.4-0.6,6.8-0.7,10.3c-0.3,7.1,1.1,13.8,3.2,20.5
		c1.6,5.2,3.2,10.4,3.9,15.8c0.6,4.2,0.9,8.4,0.2,12.7c-0.3,1.5-0.5,3-1.1,4.4c-1.5,3.9-3.3,7.6-5.4,11.2
		c-4.9,8.5-12.4,12.9-22.1,13.4c-0.3,0-0.6,0-1,0c-3.7,0.1-3.8,0.1-2.9,3.6c4,15.8,7.9,31.7,12,47.4c2.2,8.3,6,16,10.6,23.3
		c5.5,8.8,11.5,17.3,17.4,25.8c2.5,3.6,5,7.2,7.2,11c0.8,1.4,1.7,1.7,3.3,1.6c6-0.4,12-0.2,18,0.3c10.8,1,21.3,3.3,31.6,6.7
		c15.6,5.2,29.7,13.3,43.2,22.7c2.9,2.1,5.9,4.2,8.8,6.2c1.5,1.1,2.8,2.4,3.9,3.8c6.9,8.9,13.4,18.1,18.6,28.2
		c1.9,3.5,3.4,7.2,4.7,11c2,5.6,1.5,11.4,0.8,17.1c-1.3,10.2-4.3,20-7.6,29.7c-3.5,10.3-10.2,18.4-17.7,25.9
		c-1.6,1.7-3.5,3.1-5.6,4.1c-4,2-6.7,5.1-8.9,8.8c-2.6,4.4-5.8,8.2-9.3,11.8c-1,1-1.9,2.1-2.9,3.2c-3.4,3.9-7.4,6.8-12.1,8.8
		c-2.1,0.9-4.3,1.7-6.5,2.4c-3.5,1.1-6.8-0.2-8.1-3.2c-0.2-0.4-0.5-0.8-0.8-1.2c-2.6-2.9-4-6.3-4.8-10.1c-0.2-1.1-0.4-2.2-0.7-3.3
		c-0.3-1.2-0.6-1.3-1.6-0.6c-0.5,0.4-1,0.8-1.4,1.3c-1.8,1.8-3.6,3.6-5.5,5.4c-1.7,1.7-3.6,3.2-5.7,4.4c-4,2.4-7.9,1.7-11-1.8
		c-1-1.1-1.6-2.3-2.2-3.7c-2.2-5.1-3.3-10.4-2.9-15.9c0.2-2.9-0.9-4.7-3.2-6.1c-1.8-1.1-3.8-2.1-5.7-3c-4.9-2.3-8.2-6.1-9.8-11.2
		c-1-3.1-2-3.3-4.3-0.7c-2.1,2.3-3.2,5.1-4.1,8c-2.4,7.6-6.6,13.9-12.8,19c-5.7,4.7-12.6,1.6-15.2-2.9c-2-3.4-3.3-6.9-3.8-10.8
		c-0.1-1-0.4-2.1-0.4-3.1c-0.2-2.3-1.4-4-3.3-4.9c-7.2-3.5-12.4-9.5-17.9-15c-1.3-1.2-2.2-2.8-2.9-4.4c-0.5-1-1.2-1.4-2.3-1.4
		c-0.7,0-1.4,0-2.2,0c-158.1,0-316.2,0-474.3,0c-0.6,0-1.1,0.1-1.7,0c-1.6-0.2-2.5,0.5-3.2,2c-0.8,1.8-2,3.3-3.3,4.7
		c-3.2,3.2-6.4,6.5-9.9,9.5c-2,1.7-4.1,3-6.4,4.2c-2.6,1.3-4.1,3-4.3,6.1c-0.4,4.7-1.6,9.3-4.2,13.4c-1.9,3-4.6,4.8-8.2,5.2
		c-2,0.2-3.8-0.2-5.4-1.4c-4.2-2.8-7.5-6.4-10.1-10.7c-1.8-3-3.4-6.2-4.4-9.6c-0.8-2.7-1.8-5.3-3.7-7.5c-0.4-0.5-0.8-1-1.3-1.4
		c-1.4-1.1-2.2-0.9-2.8,0.8c-0.8,2.2-1.6,4.3-3,6.3c-2.2,3.2-5.3,5.1-8.6,6.6c-1.8,0.8-3.4,1.8-5,2.8c-1.8,1.1-2.7,2.6-2.5,4.8
		c0.3,4.3-0.2,8.6-1.5,12.8c-0.7,2.2-1.5,4.2-2.6,6.2c-2.7,4.7-7.7,5.9-12.3,3.1c-2.4-1.4-4.5-3.3-6.5-5.3s-3.9-4-6.1-5.8
		C137.2,741.2,136.9,741.1,136.4,740.7z"/>
</g>
<g>
	<path class="st0" d="M441.5,527.1c2.7,13.7,7.7,26.6,14.5,38.7c2.2,3.9,5.1,7.2,8.5,9.9c5.2,4.2,10.8,7.6,17.1,10.2
		c3.5,1.4,7,2.5,10.8,2.5c1.5,0,2.9,0,4.4-0.1c7.2-0.2,14.2-2.1,21.1-4.2c5.4-1.7,10.9-3.5,15.8-6.5c3.9-2.3,6.9-5.4,9-9.4
		c1.1-2.2,2-4.3,2.7-6.7c1.6-4.6,2.3-9.3,2.9-14.1c0.7-5.6,1.1-11.1,0.3-16.7c-1.2-7.9-1.5-15.9-1.7-23.9
		c-0.2-7.5-0.1-14.9,1.6-22.2c0.2-1-0.2-1.5-1.1-1.8c-4-1.3-8.1-2.7-12.1-4.1c-0.9-0.3-1.7-0.2-2.7-0.1c-6.9,1.7-13.2,4.7-19.6,7.7
		c-2.7,1.2-4.5,3.2-5.6,5.9c-0.2,0.6-0.5,1.2-0.7,1.8c-1.1,3.6-2.7,7-4.1,10.4c-1.9,4.4-2.8,9.1-2.4,14c0.3,3.2,0.3,6.4,0.6,9.6
		c0.7,9.4,0.4,18.9,2.2,28.2c0.2,1.6,0.3,3.2,0.2,4.7c-0.4,4.6-4.7,7.2-9.1,5.4c-2.9-1.2-4.4-3.3-4.7-6.4c-0.2-2.8,0-5.6,0.4-8.3
		c1.1-7.1,2.1-14.2,1.7-21.5c-0.2-3.3-0.3-6.7-0.5-10c-0.5-7.2-1.2-14.3-3.8-21.1c-0.4-1-0.7-2-0.8-3.1c-0.3-3.6-2.7-6.2-4.2-9.3
		c-0.2-0.5-0.4-1-0.6-1.6c-0.1-0.3-0.5-0.6-0.8-0.9c-0.2-0.2-0.3-0.3-0.5-0.5c-0.7-0.7-1.6-1.5-2.3-2.3c-5.8-6.1-13.2-5.4-20.6-4.6
		c-0.2,0-0.5,0.2-0.7,0.3c-3.4,1.9-7,3.3-10.6,4.6c-1.3,0.5-2.2,1.4-2.7,2.7c-1.7,4.9-3.5,9.8-4.2,15c-0.4,3.4-1.2,6.8-0.7,10.3
		C439.5,515.9,440.4,521.6,441.5,527.1z"/>
</g>
<g>
	<path class="st1" d="M544.9,389.7L544.9,389.7L544.9,389.7L544.9,389.7z"/>
	<path class="st1" d="M457.4,348c4.2,1.4,8.5,2,12.9,2.2c2.7,0.1,5.3,0.3,8,0.5c4.2,0.2,8.2,0.4,12.3-0.4c5.1-1,10.2-2,15.3-2.8
		c4.7-0.7,9.5-1,14.2,0.1c4,0.8,8.1,1.6,12.2,1.9c1.8,0.2,3.7,0.7,5.5,1.1c1.2,0.2,2.3,0.6,3.5,0.8c3.1,0.7,6,0.1,8.9-1.2
		c2.4-1,3.6-3.1,5-5c1-1.4-0.3-2.7-0.4-4.2c-0.1-1.1-0.4-2.1-0.7-3.1c-0.3-1.3-1-2.5-2.2-3.2c-5.2-3.4-10.6-6.7-16.7-8.4
		c-4.9-1.5-9.9-2.5-14.9-3.2c-5.2-0.7-10.5-1.7-15.7-2.5c-1.7-0.2-3.4-0.2-5.2-0.2c-1.5,0-2.9,0.2-3.7,0.2c-1.3,0-2,0-2.7,0
		c-9.7,0.2-19.3,1.2-28.6,4.2c-3.7,1.2-6.3,3.2-8.2,6.4c-1.2,1.8-2.1,3.7-2.8,5.7c-0.7,2.2-0.7,4.4-0.2,6.7
		C453.9,345.7,455.1,347.2,457.4,348z"/>
	<path class="st1" d="M500.5,389.8c-0.3-3.2-0.7-6.5-2-9.7c-0.1,0.5-0.2,1-0.2,1.5c-0.3,5.2-0.7,10.3-0.9,15.5
		c-0.2,4.4-0.7,8.7-1.3,13.1c-0.2,1.7-0.2,3.4-0.3,5.2c0,0.9,0.2,1.8,0.7,2.7c0.8,1.3,1.9,2.2,3.5,2.2c1.4,0,3-1.2,3.6-2.7
		c0.2-0.7,0.4-1.6,0.4-2.3c0-1.4-0.1-2.9-0.4-4.3C501.8,403.8,501.2,396.8,500.5,389.8z"/>
	<path class="st1" d="M544.9,389.6L544.9,389.6c-0.1,0-0.1,0-0.2,0.1C544.9,389.6,544.9,389.6,544.9,389.6L544.9,389.6L544.9,389.6z
		"/>
	<path class="st1" d="M544.8,389.6c-0.4,0.3-0.9,0.7-1.4,1c-4.2,2.1-8.7,2-13.2,1.1c-4.7-1-8.2-3.5-10.5-7.7
		c-2.6-4.8-4.8-9.7-5.7-15.2c0-0.2-0.2-0.4-0.4-0.5c-0.2,0-0.6,0.1-0.7,0.2c-1.3,1.5-2.2,3.3-2.7,5.2c-1.4,4.7-0.5,9.3,1.7,13.6
		c4.7,9.4,11.9,12.8,21.3,12.4c0.7,0,1.3-0.2,1.8-0.6c3.5-2.4,6.8-5,9.8-8.1C545.1,390.6,545,390.2,544.8,389.6
		C544.9,389.8,544.8,389.7,544.8,389.6z"/>
	<path class="st1" d="M574.1,474.1c4.8,0,9.4-1.1,13.5-4.2c1.2-0.8,2.2-1.8,3.2-2.7h-0.1c-0.9,0-1.7-0.1-2.6-0.2
		c-0.8-0.1-1.7-0.3-2.4-0.5c-0.4-0.1-0.7-0.2-1.2-0.3c-1.5-0.5-3-1.2-4.4-1.9c-0.2-0.1-0.2-0.2-0.3-0.2c-1-0.5-1.9-1.1-2.8-1.7
		c-0.3-0.2-0.6-0.4-0.9-0.7l-0.1-0.1c-0.6-0.4-1.2-0.9-1.8-1.4c-0.1,0-0.1-0.1-0.2-0.1c-0.3-0.2-0.6-0.5-0.9-0.7l-0.1-0.1l0,0
		c-2.7-1.9-4.2-4.7-5.2-7.8c-1.6-4.9-4.2-8.8-9.2-10.9c-1-0.4-1.8-1.2-2.2-2.2c-1.2-3.7-2.5-7.3-1.2-11.2c0.3-1,0.5-2.1,0.7-3.1
		c0.9-3.7,1.5-7.6,1-11.5c-0.5-3.7-1.6-7.2-4.5-9.5c-6.4,5.7-13.1,11.1-19.8,16.4c-5.7,4.6-12.4,7.7-19.1,10.6
		c-0.3,0.2-0.7,0.2-1.1,0.4c-1.2,0.5-3-0.2-3.7,1.2c-1.2,2.3-3.1,4.6-3,7.3c0.2,4.9,0.3,9.8,1.9,14.6c1.5,4.3,4.3,6.3,8.8,6.9
		c5.4,0.7,10.8,1.7,16.2,2.6c2.9,0.5,5.7,1.6,8.4,2.6c7,2.6,13.9,5.2,21.2,6.9C566.2,473.4,570.1,474.1,574.1,474.1z"/>
	<path class="st1" d="M482.9,373.2c-0.2,1.2-0.4,2.3-0.6,3.5c-0.2,2.2-0.9,4.2-1.7,6.2c-1.1,2.7-3,4.7-5.6,5.9c-2.4,1.2-5,1.9-7.7,2
		s-5.6,0-9.1,0c1.7,2.9,3.7,4.7,5.5,6.5c1.1,1,2.1,1.3,3.6,0.8c2.9-1,5.8-1.7,8.8-2.5c5-1.2,7.6-4.7,8.3-9.6
		c0.6-3.8,0.4-7.7-0.5-11.5C483.9,374.1,484,373.4,482.9,373.2z"/>
	<path class="st1" d="M494.8,437.5c-1-2.2-2-4.3-3-6.5c-0.3-0.8-0.9-1.3-1.6-1.7c-1.2-0.6-2.4-1.1-3.7-1.6
		c-6.6-2.3-12.3-6.2-17.9-10.3c-5.7-4.2-11.3-8.7-16.2-14c-0.5-0.5-0.9-1-1.4-1.5c-0.3-0.3-0.6-0.7-0.8-1c-0.7-0.8-1.4-1.7-2.2-2.6
		c-0.1,1.7-0.2,3.2-0.2,4.9c0.1,4.4,0.7,8.7,2.7,12.7c0.7,1.5,0.4,2.7-0.6,4c-2.2,2.7-4.1,5.6-5.6,8.7c-2,4.2-2.2,8.4-0.7,12.7
		c0.3,0.9,0.7,1.7,0.9,2.7c0.2,0.7-0.2,1.2-0.8,1.7c-0.2,0.4-0.4,0.7-0.9,0.7c-0.2,0.2-0.2,0.4-0.4,0.6c-0.2,0.2-0.2,0.4-0.4,0.6
		c-0.3,0.5-0.7,1-1,1.5c-0.3,0.6-0.7,1.2-1,1.9c-0.4,1-0.7,2-1,3.2c-0.2,1-0.7,2-1.1,3c-0.6,1.5-1.5,2.8-2.8,3.7
		c-4.9,3.4-10,6.7-15.8,8.2c-3.2,0.8-6.7,1-9.8-0.2c-0.2-0.1-0.4-0.2-0.7-0.2c1.2,1.2,2.5,2.2,3.8,3.3c5.2,4.4,11.2,5.2,17.6,3.9
		c1.4-0.2,2.8-0.7,4.2-1.2c6.1-2.3,12.3-4.4,18-7.7c2.2-1.2,4.7-2,7.1-2.6c4.2-1.1,8.2-2,12.4-3.2c3.9-1.1,7.9-1.4,11.9-1.4
		c5.3-0.1,8.4-2.8,10.1-7.5c0.9-2.5,1.3-5.2,1.7-7.8c0.2-1.1,0.3-2.1,0.6-3.1c0.1-0.5-0.1-1.1-0.3-1.5
		C495.5,439,495.2,438.3,494.8,437.5z"/>
	<path class="st1" d="M611.9,458.7c0-0.2-0.3-0.3-0.6-0.5c-0.8,0.3-1,1.1-1.3,1.8c-2,4.5-4.8,8.5-7.8,12.5
		c-3.4,4.6-7.7,8.1-12.7,10.7c-2.5,1.3-4.7,2.9-6.9,4.7c-3.1,2.5-5.4,5.4-6.9,9.1c-0.8,2.1-1.8,4.2-3,6.1c-1.9,3.3-4.8,5.2-8.7,5.4
		c-2.2,0.1-4.5,0.6-6.7,0.9c-1,0.2-1.7,0.7-1.7,1.8c0,0.5,0,1.1,0,1.6c-0.1,8.7,0.9,17.2,1.7,25.9c0.1,0.8,0.6,1.2,1.3,0.9
		c2.5-0.7,5-1.7,7.6-2.3c7.1-1.6,13.6-4.7,19.8-8.1c0.7-0.3,1.2-0.7,1.8-1.2c0.5-0.7,1.2-1.2,1.9-1.6c2-1.9,3.3-4.3,3.9-7.3
		c1.2-5.5,2.7-10.8,4.3-16.2c1.2-3.8,2.6-7.5,4.6-11c2.7-4.7,5.3-9.5,8-14.2c1.4-2.6,2.6-5.3,2.6-8.3
		C613.2,465.8,612.5,462.3,611.9,458.7z"/>
	<path class="st1" d="M431.6,515.7c-0.2-1.5-0.8-2.7-1.9-3.8c-0.9-0.8-1.9-1.6-2.5-2.6c-3.2-5.3-3.7-4.2-9.1-6.6
		c-0.2-0.1-0.5-0.2-0.7-0.2c-4-1.5-7.2-4.1-9.6-7.6c-0.6-0.8-1.2-1.7-1.8-2.7c-1-1.7-2.2-2.8-4.2-3.3c-2.1-0.6-3.7-1.9-5.3-3.3
		c-2.4-2.2-4.2-4.7-5.5-7.7c-1.1-2.7-2.2-5.4-3.2-8.2c-1.1-2.9-2.7-5.5-4.1-8.2c-0.1-0.2-0.4-0.3-0.7-0.2c-0.2,0-0.4,0.3-0.4,0.5
		c0.1,3.3,0.4,6.7,2.1,9.7c1.1,2,2.2,4,3.4,5.8c1.4,2.2,2.3,4.5,2.7,7c0.7,4.3,1.3,8.7,1.3,13.1c0,0.8,0.1,1.6,0,2.4
		c-0.5,3.8,0.4,7.4,2,10.8c1.1,2.6,2.2,5.2,3.2,7.7c1.6,3.6,3.7,6.8,6,9.9c2.9,3.8,6.3,6.2,10.3,7.4c0.5-0.2,0.7-0.1,0.9,0.2
		c2.7,0.7,5.7,0.7,8.8,0.4c2.9-0.3,5.7-0.8,8.7-0.9c1.5,0,1.7-0.3,1.6-2C433,527.3,432.3,521.5,431.6,515.7z"/>
</g>
<g>
	<path class="st2" d="M423,228.5c-1.1-0.5-2.2-0.1-3.3,1.5c-1.6,2.3-3.1,4.7-4.4,7.1c-0.5,1-0.6,2.3-0.7,3.5
		c-0.1,0.3,0.1,0.7,0.3,0.9c0.2,0.1,0.5,0.1,0.7,0.2c0.2,0.1,0.5,0.2,0.7,0.3c0.8,0,1.7-0.2,2.4-0.6c4-1.9,5.6-5.4,6.3-9
		C425.1,230.4,424.3,229,423,228.5z"/>
	<path class="st2" d="M406.6,213.5c-1.1-0.5-2.2-0.8-3.4-1.1c-4.8-0.7-9.2,0.8-13.4,3c-2.4,1.2-3.9,3.5-5.1,6.6
		c2.6-0.1,4.5,0.5,6.3,1.2c0.8,0.3,1.7,0.7,2.7,0.9c4.3,1.2,7.7-0.2,9.7-4.2c1-1.9,1.7-3.8,3.5-5.2
		C407.2,214.4,407.2,213.8,406.6,213.5z"/>
	<path class="st2" d="M374.6,226.1c0.1-0.7,0.2-1.6,0.2-2.3c-0.1-1.2-1.7-2-2.7-1.3c-0.4,0.2-0.8,0.7-1.2,1c-0.7,0.8-1.3,1.7-2,2.5
		c-1.2,1.6-3.2,2.4-3.7,4.5c1.3,1.4,2.7,2.9,4,4.3c0.4,0.5,0.9,0.9,1.4,1.4c1.2,1.2,2.8,1.9,4.3,2.7c0.7,0.4,1.7-0.3,1.7-1.2
		c-0.2-1-0.4-2.1-0.7-3.1C375.1,231.8,374.4,229,374.6,226.1z"/>
	<path class="st2" d="M574.5,231.8c-0.1-0.3-0.3-0.7-0.6-1c-0.4-0.6-1.7-0.7-2.1-0.1c-1.2,1.7-1.9,3.4-2.1,5.3
		c0.2,2.2,1.2,3.7,3.1,4.5c1.7,0.7,3.4,0.2,4.3-1c0.8-1.2,0.7-2.7-0.4-4C575.6,234.4,574.8,233.2,574.5,231.8z"/>
	<path class="st2" d="M599.8,215.8c-1.6-1.1-3.3-1.6-5.2-1c-2.6,0.7-5,1.9-7,3.7c-1.4,1.2-2.4,2.8-2.8,4.7c-0.7,3.4,1.9,6.2,5.2,5.4
		c0.7-0.2,1.2-0.5,1.8-0.7c1.9-0.7,3.8-1.2,6.1-0.9c0.1,0,0.3,0,0.6,0c3.8,0.4,6.8-3.4,4.4-7.7C602.1,217.8,601.1,216.7,599.8,215.8
		z"/>
	<path class="st2" d="M627.9,229.4c-0.2-0.3-0.4-0.7-0.7-1c-0.4-0.4-0.7-1.2-1.6-0.8c0,0.3-0.1,0.7-0.1,1.2c0.2,4.4-1,8.3-4,11.7
		c-1.7,1.9-3.2,3.9-5,5.7c1.6,0.1,2.9-0.6,4.1-1.4c1.9-1.2,3.7-2.6,5.4-4.1c1.8-1.7,4.3-2.6,5.7-4.8
		C630.4,233.7,629.2,231.6,627.9,229.4z"/>
</g>
<g>
	<path class="st3" d="M623.3,626.5c-0.2-1.1-0.4-2.2-0.6-3.3c-0.9-5.4-1.9-10.7-3.7-15.9c-4.2-11.8-12.7-18.6-24.3-22.2
		c-0.6-0.2-1.3-0.1-1.8-0.6c-0.8-1-1.3-0.2-1.8,0.4c-1.2,1.5-1.7,3.3-2.4,5c-4.8,11.8-12.5,21.6-22.1,29.8c-0.9,0.7-1.9,1.5-2.9,2.1
		c-6,3.6-12.3,6.3-19.3,7.3c-5,0.7-10,1.4-15.1,2c-7.1,0.9-14.2,1.8-21.3,1.9c0.2,1.3,0.2,2.5-0.2,3.8c-1.7,7.3-4.2,14.5-5.3,22
		c-0.2,1.7-0.3,3.2,0.2,4.7c0.2,0.6,0.4,1.1,0.6,1.7h5.2c0.6-0.7,1.1-1.6,1.7-2.3c2.4-3.2,4.7-6.5,7.9-9c3.4-2.7,6.8-5.5,10-8.5
		c2.2-2.1,4.7-4,7.5-5.2c1.2-0.5,1.7-0.1,1.7,1.2c0,0.2,0,0.2,0,0.4c-0.4,3.6-0.9,7.1-3.1,10.2c-1.2,1.7-2.2,3.7-3.4,5.4
		c-1.1,1.7-2,3.5-3.8,4.4c-0.7,0.3-1.2,1-1.7,1.7c-0.4,0.6-0.9,1.2-1.3,1.7h97.9c-0.2-0.2-0.2-0.6-0.3-0.9c-0.4-2.2-0.2-4.2,0.2-6.3
		c0.3-1.7,0.6-3.4,0.9-5.2c0.6-3,1.1-6,1.5-9c0.8-5.4,1.2-10.8-0.4-16.2C623.5,627.1,623.4,626.9,623.3,626.5z"/>
	<path class="st3" d="M361.5,394.3c0.3-0.8,0.7-1.7,1.3-2.4c2-2.2,2.7-4.8,3.3-7.6c0.7-3,1.8-5.8,3.3-8.5c-0.9-1.4-2.2-2.7-3.8-3.5
		c-1.5-0.7-3.2-1.3-4.7-2c-1.7-0.7-3-1.7-3.7-3.4c-1.7-4.2-3.4-8.3-3.8-12.9c-0.2-3-1.5-5.6-3.7-7.7c-1.4-1.3-2.9-2.3-4.6-3.1
		c-1.1-0.5-2.2-1-2.7-2.2c-1.9-3.7-3.7-7.3-4.8-11.3c-1.7-5.6-3-11.3-4.2-17c-0.7-3-1.4-5.9-1.4-9c0-0.7-0.2-1.6-0.3-2.3
		c-0.7-3.7-0.8-7.5-0.2-11.1c0.7-4.3,0.5-8.7,1.2-13.1c0.7-4.2,0.2-8.5,1-12.7c0.5-2.6,0.7-5.2,1.2-7.8c0.6-2.9,0.4-5.7-0.2-8.7
		c-1.3-5.2-4.6-8.2-9.8-9.1c-0.6-0.1-1.2-0.2-1.7-0.5c-0.9,0.6-1.7,1.2-2.7,1.8c-3.7,2.6-5.9,6.1-7.2,10.2c-0.4,1.2-0.7,2.6-1,3.8
		c-0.4,1.9-0.5,4-1.2,5.8c-1.3,3.2-1.1,6.5-0.7,9.8c0.6,5.3,0.6,10.7,0.2,16c-0.9,12.9-2.2,25.7-4.7,38.5c-0.2,1.1-0.3,2.1-0.2,3.2
		c0.2,3.1,0.4,6.1,0.5,9.2c0.2,5.5,0.7,10.9,2.2,16.2c0.6,2.2,1,4.4,1.4,6.7c0.9,5.7,1.6,11.3,0.7,17.1c-0.4,2.9-0.2,3.2,2.2,4.7
		c1.3,0.8,2.8,0.8,4.2,0.8c2.4-0.1,4.8-0.2,7.2-0.2c1.7-0.1,3.2,0.3,4.6,1.2c3.5,2.2,4,6.7,0.9,9.5c-0.6,0.5-1.2,1-2,1.3
		c-2.5,1.4-3.9,3.5-4.3,6.3c-0.2,1.7-0.7,3.4-1,5.1c-0.8,6.2-1.1,12.5,0.6,18.6c1.4,5.2,3.4,10.3,6.1,15.2c1.2,2.2,2.7,4.2,4.8,5.7
		c3.2,2.5,6.2,5.3,9.2,8.2c1,1,1.9,2.1,2.7,3.2c1.3-1.2,2.3-2.8,3-4.8c0.3-1.2,0.8-2.2,1-3.4c1.1-7,3-13.7,5.3-20.4
		c0.8-2.2,1.7-4.5,2.9-6.6C356.3,411.8,358.1,402.9,361.5,394.3z"/>
	<path class="st3" d="M313.4,546.1c-0.2-1.8-0.7-3.7-1.2-5.4c-1.4-4.3-2.9-8.6-4.5-12.8c-1.9-5.2-3.7-10.5-6.1-15.6
		c-4-8.7-7.9-17.4-10.5-26.6c-1.6-5.7-2.6-11.3-2.6-17.2c0-1.3,0-2.6,0.1-3.9c-0.3,0.4-0.6,0.7-0.9,1.2c-0.7,1.1-1.4,2.2-2.2,3.3
		c-2,2.8-4.7,3.9-7.6,3.1s-4.7-3.6-4.7-7.1c0-1.3,0.2-2.7,0.6-3.9c0.2-1,0.6-2.1,1-3c1-2.3,1.4-4.8,1.7-7.3c0.5-3.6,1-7.1,1.6-10.7
		c2-12,6.2-22.9,13.7-32.4c0.9-1.2,1.8-2.2,2.8-3.3c0.4-0.4,1-0.9,0.5-1.8c-0.5-0.1-1-0.2-1.5-0.4c-0.2-0.1-0.4-0.1-0.7-0.2
		c-1.7-0.5-3.2-1.2-4.7-2.2c-4.5-3.4-5.1-9.1-1.2-13.2c0.7-0.7,1.3-1.3,2.1-1.9c2.9-2.2,4.5-5.3,5-8.8c0.3-2.3,0.5-4.7,0.4-7.1
		c-0.1-2.9-0.4-5.8-1.2-8.7c-0.1-0.2-0.2-0.4-0.2-0.6c-0.2-0.2-0.4-0.5-0.9-0.7c-1.5,1.9-2.7,4.2-3.9,6.3
		c-4.7,8.2-10.7,15.7-17,22.6c-1.9,2.1-3.5,4.3-4.5,7c-0.5,1.3-1.2,2.7-1.7,4.1c-6.8,17-10.8,34.6-11.5,52.8
		c-0.4,11.3,0.5,22.6,1.9,33.9c1.2,9,2.4,18,3.7,26.9c1.5,11.2,2.7,22.5,4.6,33.6c2.6,15.8,4.3,31.6,4.5,47.7c0,0.4,0,0.7,0,1.2
		l1.6,1l2.6,1.8l1.2,0.9l0.7,0.5l0.7,0.5l2.5,1.9c0.4,0.3,0.8,0.7,1.2,1l1.2,1l0.9,0.7c0.2-0.8,0.5-1.7,0.7-2.6
		c2.2-6.9,5.1-13.5,8.5-19.7c1.9-3.5,4.1-6.9,6.8-9.8c5.7-6.2,11.2-12.7,17.2-18.6c0.1-1.1,0-2.2-0.2-3.2
		C313.7,548.7,313.6,547.4,313.4,546.1z"/>
	<path class="st3" d="M778.6,572.3c-6.6-10.3-12.7-21-18.5-31.8c-3.3-6.2-6.4-12.6-8.7-19.3c-0.2-0.7-0.2-1.6-1.4-1.7
		c-3.7,8.8-6.9,17.8-9,27.2c-1.2,5.5-1.7,11.1-0.9,16.7c0.7,6.1,2.2,12.1,3.7,18c0,0.1,0,0.1,0.1,0.2l1.3-0.5l3-1.1
		c0.5-0.2,1-0.4,1.5-0.6l1.5-0.5l3-1l1.5-0.5c0.5-0.2,1-0.2,1.5-0.4l3.1-0.8l1.5-0.4l0.7-0.2l0.7-0.2l3.1-0.7
		C770.5,573.8,774.5,572.9,778.6,572.3L778.6,572.3z"/>
	<path class="st3" d="M725.6,460.8c-1.5-4.4-2.7-8.9-3.3-13.6c-1-6.2-1.8-12.4,0.5-18.6c0.5-1.3-0.1-2.3-0.7-3.3
		c-3.9-6.5-7.2-13.3-10.2-20.3c-0.6-1.3-1.2-2.7-1.8-4c-0.2-0.6-0.5-1.2-1.5-1.3c-0.3,1.4-0.7,2.8-0.9,4.2c-0.6,3-0.9,6.1-1.7,9
		c-2.8,10.6-6.3,20.9-12.5,30.1c-1.6,2.3-2.1,4.8-1.7,7.6c0.2,1.1,0.2,2.1,0.5,3.2c1.2,5.7,3,11.3,5.7,16.6c1.3,2.7,2.7,5.5,4.2,8.2
		c2.4,4.7,4.1,9.5,5.3,14.6c3.1,12.7,1.7,25.1-2.3,37.4c-0.5,1.5-1.1,3-2,4.3c-2.9,3.8-8.4,3.3-10.5-1c-0.4-0.9-0.7-2-0.8-3.1
		c-0.3-2.2-0.5-4.5-0.7-6.7c-0.2-2.7-0.7-5.2-1.4-7.8c0-0.2-0.1-0.2-0.2-0.4c-0.5-1.7-1.4-3.3-2.7-4.9c-2.5-3.1-6.2-5.7-10.7-6
		c-0.2,1-0.2,2.1-0.4,3.1c-0.7,3.7-0.7,7.5-0.2,11.2c0.8,6.2,0.7,12.2-0.3,18.2c-0.2,0.7-0.5,1.5-0.6,2.3c-0.8,6.7-2.6,13.2-4,19.8
		c-1.1,4.9-2.2,9.8-3.1,14.7c-0.3,1.8-0.2,3.7-0.2,5.6c0.1,2,1.8,3.8,3.7,4.1c2.9,0.3,5.5-0.1,7.7-2.2c3.7-3.7,7-7.6,9.7-12.2
		c1.5-2.5,2.8-5.1,4.3-7.7c0.2-0.3,0.5-0.6,0.8-0.7c0.5-0.2,0.7,0.3,0.7,0.7c0.5,1.5,1.1,3,1.5,4.5c1.7,5.6,3.2,11.2,4.9,16.8
		c2.2,7.2,3.7,14.5,4,22.1l2.2-1.9l1.2-1c0.4-0.3,0.8-0.7,1.2-1l2.5-1.9l0.7-0.5l0.7-0.5l1.2-0.9l2.6-1.8l2.7-1.7
		c1.8-1.2,3.7-2.3,5.7-3.4c-1.3-5-2.7-10-3.8-15c-2.7-12.1-2.7-24,0.3-36c2-7.6,4.2-15.2,7.1-22.5c3.6-9.4,4.8-19.1,3.2-29.1
		C730.5,478.8,728.6,469.6,725.6,460.8z"/>
	<path class="st3" d="M660.8,619.1c0.1-2.7,0-5.3,0-8c0-0.3,0-0.7,0-1c-0.2,1.2-0.7,2.3-1,3.4c-1.6,4.8-3.7,9.4-5.6,14.1
		c-3.2,8-7.7,15.2-13.9,21.2c-1.7,1.6-3,3.4-4.3,5.2c-1.9,2.7-4,5.3-6,8c-0.9,1.2-1.9,2.2-3.1,3H645l10.2-1c1.1-0.7,2.1-1.5,3-2.4
		c0.7-0.6,1.3-1.2,2-1.8l0.1-0.1c0.2-0.3,0.6-0.7,0.8-1.1c1.3-1.7,2.6-3.5,3.7-5.2c-1.1-5.2-2.1-10.4-2.7-15.7
		C661.5,631.5,660.7,625.4,660.8,619.1z"/>
	<path class="st3" d="M669.1,305.8c0.6-0.9,1.2-1.8,1.2-2.9c0-4,0.6-8-0.5-11.9c-1.5-5.2-2.1-10.4-1.8-15.7c0.2-5,1.4-9.7,4.3-13.8
		c0.8-1.2,1.7-2.4,2.1-3.8c0.5-1.8,1.8-2.8,3.4-3.7c0.1,0,0.2-0.1,0.2-0.1c-0.2-0.3-0.5-0.7-0.7-1c-0.7-0.9-1.7-1.2-2.7-1.2
		c-4.6,0.3-8.7,1.5-11.3,5.7c-0.4,0.7-1,1.2-1.5,1.8c-1.5,1.7-3.2,3.3-5.3,4.1c-1.5,0.5-2,1.6-2.2,3c-0.6,3.6-1.8,6.9-3.6,10.2
		c-2,3.7-4.1,7.5-6.1,11.2c-1.8,3.4-4.3,6.4-7.1,9.1c-3,2.9-6.3,5.3-10.1,7.2c-3.1,1.5-5.4,3.8-7.4,6.6c-1.7,2.2-2.3,4.7-1.5,7.5
		c0.3,1.2,0.5,2.6,0.7,3.9c0.9,4.7-0.4,9-3.2,12.7c-0.7,1-1.5,1.9-2.2,2.8c-2.4,3.2-3.9,6.7-3.9,10.7c0,1.5,0,2.9,0.1,4.4
		c0.1,4.5,0.2,9.1,0.2,13.6c0,2-0.2,4-1.1,5.8c-0.8,1.8-2,3.2-3.9,3.6c-0.2,0-0.3,0.1-0.5,0.1c-0.1,0-0.2,0-0.3,0.1
		c-0.1,0-0.2,0-0.2,0c-2.1,0.1-5.9-0.6-8.2-5.1c-2.6-5.1-4-10.7-5.9-16.1c-1.2-3.4-2.7-6.6-5.7-9c-1-0.8-2-1.8-2.7-2.9
		c-3.8-5.7-7.8-11.4-11-17.6c-3.4-6.7-5.7-14.1-8.6-21c-2.6-6-4.4-12.2-6.5-18.4c-0.2-0.7-0.7-1.4-0.3-2.5c1.7-0.5,3.4-1.5,5.1-2.7
		c4-2.8,4.4-7,1.1-10.6c-1.8-2-4.2-3.3-6.5-4.6c-3.6-2-7.2-4.1-10.7-6.1c-3.5-1.9-6.7-4.2-10.2-6.3c-1.8-1.2-3.3-2.5-4.5-4.3
		c-4.1-6.2-6.3-13.2-8.3-20.1c-0.3-1.2-0.7-2.3-0.7-3.5c-0.1-4.7-0.4-9.3,0.1-14c0.3-3.3,0.7-6.5-0.1-9.8c-0.4-1.7-0.2-3.4,1.3-4.7
		c0.5-0.4,0.7-1.1,0.9-1.7c0.4-1.9,1-3.8,0.9-5.9c-0.1-6.2,0-12.2,0-18.4c0-1.2-0.1-2.4,0.2-3.6c0.4-1.6,0.6-3.2,0.5-4.7
		c-0.2-3.5,0.7-6.9,1.1-10.2c0.6-4.4,1.9-8.8,2.9-13.2c1.2-5.7,3.4-10.8,7.1-15.4c2.2-2.7,4.3-5.4,6.7-7.9c0.1-0.2,0.2-0.5,0.2-0.7
		c1.6-3.9,4-7.2,7.3-9.7c1.9-1.4,3.7-2.9,5.7-4.3c4.2-3.2,8.4,0.2,8.6,4.2c0.1,2.4-0.2,4.7-1,7.1c-0.7,2-1,4.1-1,6.2
		c0.1,2.9-0.7,5.8-1.7,8.6c-1.3,3.5-2.7,6.9-4.1,10.4c-1.4,3.7-2.5,7.6-1.8,11.7c0.4,2.7-0.9,4.6-3.1,6c-2.3,1.5-5,1.8-7.7,1.2
		c-0.8-0.2-1.5-0.5-2.2-0.9c-0.6,1.7-0.9,3.7-1,5.5c-0.2,2.8-0.2,5.7,0.1,8.6c0.3-0.2,0.7-0.4,1-0.7c2.2-1.2,4.5-0.7,6.2,1.2
		c1,1.1,1.6,2.5,2.1,3.8c0.7,1.9,1.3,3.7,2.1,5.7c1.4,3.5,3.6,6.2,7.2,7.6c0.6,0.2,1.2,0.6,1.7,1c2.2,1.7,4.8,2,7.6,1.5
		c1.5-0.2,2.9-0.6,4.7-0.6c1,0,2.1,0.2,3.3,0.6h-0.1c0.6,0.2,1.2,0.2,1.4,0.2c3.7-0.2,5-1.8,8.7-1.2c1.4,0.2,2.9,0.4,4.3,0.4
		c5.6,0,11.2,0.1,16.7,0.1c3.2,0,6.4,0,9.6,0.5c0.3-0.7,0.9-1.2,1.8-1.3c1.7-0.4,3.5-0.1,5.2,0.3c2.3,0.6,4.6,1.3,6.8,2.2
		c5.9,2.3,11.8,4.8,17.7,7.3c0.7,0.3,1.5,0.7,2.1,1.2c1.9,1.5,3.7,3,5.7,4.5c0.4-1.7,0.7-3.5,1.2-5.2c0.2-1.1,0.2-2.1-0.1-3.1
		c-0.7-2-1.2-4.1-2.2-6c-2.6-5.2-6.7-9.2-10.8-13.1c-0.9-0.8-1.9-1.5-2.7-2.3c-2.2-2.2-4.7-3.9-7.1-5.8c-3.5-2.8-7.7-4.8-10.9-8
		c-1-0.9-2.2-1.3-3.7-1.5c-1.4-0.2-2.8-0.6-4.2-0.9c-0.2-0.1-0.5-0.2-0.5-0.5c-0.2-0.5,0.2-0.7,0.6-0.8c2.7-0.6,5.5-1,8.2-1.8
		c4.1-1.2,7.8-0.8,11.7,0.9c2.2,1,4.4,1.9,6.6,2.8c0.6,0.2,1.2-0.2,1.2-0.7c0.1-1.6,0.2-3.2-0.2-4.7c-0.4-1.7-0.3-3.3,0-5.1
		c0.8-4.5,0.7-9-1.7-13.2c-1.1-1.8-2.2-3.7-3.1-5.6c-2.3-4.7-4.9-9.2-7.8-13.4c-1.2-1.7-2.2-3.7-2.6-5.8c-0.6-2.8-0.9-5.7,0.3-8.6
		c1.5-3.5,4.4-5.2,7.7-6.5c4.3-1.7,9-2.2,13.5-3.4c5.4-1.4,11-1.6,16.5-2.1c3.2-0.2,6.4-0.3,9.5,0.7c0.2,0.1,0.8-0.1,1-0.3
		c0.2-0.4-0.2-0.7-0.5-0.9c-3.9-3.2-8.2-6-12.6-8.3c-1.2-0.7-2.2-1.4-3.4-2c-2.7-1.2-5.4-2.2-8.1-3.4c-3.8-1.7-7.8-2.5-12-2.5
		c-2.5,0-5.1,0-7.6,0c-1.5,0-3-0.1-4.4,0.2c-5.2,1-10.4,2.1-15.6,3.2c-1,0.2-2.1,0.4-3.1,0.7c-3.1,0.7-6.2,1.4-9.1,2.9
		c-1.7,0.8-3.3,1.6-5.1,2.3c-0.2,0.1-0.5-0.1-0.7-0.2s-0.3-0.5-0.2-0.7c0.2-0.6,0.5-1.2,0.9-1.7c2.1-2.2,4.1-4.6,6.7-6.2
		c0.4-0.2,0.7-0.5,1.1-0.8c0.3-0.3,0.6-0.7,0.7-1.2l0,0l0,0l0,0l0,0l0,0c-2.7-0.3-5.2,0.8-7.7,1.7c-5.2,1.7-10.3,3.5-15.7,4.4
		c-1.5,0.2-2.9,0.6-4.3-0.1c-3.7-1.7-7.6-2.5-11.3-3.7c-6.7-2.3-13.6-3.4-20.6-4.6c-0.7-0.1-1.3-0.2-2,0c-4.4,0.7-8.9,1.2-13.2,2.4
		c-6.9,1.8-13.7,4.2-19.1,9.4c-0.4,0.3-0.8,0.7-1.3,0.8c-1.9,0.8-3.3,2.2-4.7,3.7c-0.5,0.6-1,1.3-1.9,1.3c-0.3-0.7-0.6-1.5-1.1-2
		c-1.2-1.2-1.7-2.6-1.8-4.2c-0.2-1.8-0.6-3.8-2-5.1c-3-2.7-6.2-5-10.6-4.9c-3.5,0.1-6.9,0-10.4,0c-1.3,0-2.6,0.2-3.9,0.7
		c-5.8,1.6-10.6,4.7-14.9,8.9c-1.1,1-2.1,2.1-3.1,3.1c-2.3,2.2-5.2,2.3-7.8,1.4c-1.8-0.6-3.2-2.2-3.9-4.2c-0.6-1.7-1.1-3.6-1.7-5.3
		c-0.7-1.9-1.8-3.5-3.7-4.5c-0.7-0.3-1.3-0.8-2-1.3c-3.9-3-8.6-4.2-13.3-4.9c-3.7-0.5-7.3-1.3-11.1-1c-0.5,0.1-1.1,0-1.6-0.2
		c-1.9-0.7-3.9-0.6-5.9-0.6c-2.5,0-5.1,0.1-7.6,0c-4-0.2-7.9,1.1-11.9,0.9c-2.1,1-4.5,0.5-6.7,1.1c-10.4,2.9-19.6,8.1-27.7,15.2
		c-2.4,2.1-4.2,4.8-6.2,7.2c-0.7,0.7-1,1.8-1.4,2.8c-0.2,0.5-0.3,1.1-0.2,1.5c0.5,2.4,3,5.1,5.5,4.9c2.4-0.2,4.7-0.5,7-1.2
		c3.2-1,6.6,0.1,8.4,2.9c1.6,2.4,2.9,5.1,4.3,7.6c0.7,1.1,0.5,2.2,0.2,3.4c-0.7,3.4-2.2,6.6-3.5,9.7c-1.4,3.6-2,7.3-2.2,11.2
		c1.5-2.1,3.3-4,5.2-5.7c0.9-0.8,1.9-1.6,3-2.2c0.7-0.3,1.3-0.7,2.1-0.9c0.5-0.2,1-0.3,1.5-0.5c3.7-0.8,6.8,0.2,9.2,3.2
		c1.3,1.7,2.2,3.7,2.9,5.7c1.4,4,2.1,8.2,2.5,12.5c0.2,1.6,0.3,3.2,0.9,4.7c0.3,0.9,1,1.6,2.1,1.6c1.5,0.1,2.9,0.2,4.4,0
		c4.7-0.7,7.9,1.5,10.2,5.4c1.8,3.2,3.1,6.5,3.5,10.1c0.2,2.1,0.4,4.2,0.5,6.3c0.1,1.7,0.7,3,2.5,3.7c2,0.7,3.8,1.8,5.4,3.3
		c2.2,2.2,3.2,4.8,2.5,8c-0.4,1.9-1.2,2.6-3.1,2.2c-1.2-0.2-2.2-0.4-3.4-0.5c2.2,2.8,4.7,6.5,5.6,6.7c6.9,2.2,13.5,4.8,19.2,9.3
		c0.8,0.7,1.7,1.2,2.7,1.7c1.2,0.8,2.4,1.7,3.6,2.6c-0.3-1.5,0.1-3,0.7-4.4c1-2.2,3.5-3.3,6-3.2c0.4,0,0.8,0.2,1.2,0.2
		c0.7,0.2,1.5,0.4,2.3,0c0.2-0.7,0.3-1.3,0.4-2c0-0.7-0.1-1.5-0.1-2.3c-0.1-3.7,0.3-7.4,0.9-11.1c0.4-2.5,1.3-4.8,2.6-7.1
		c0.3-0.7,0.7-1.2,1.3-1.7c-1-2.4-2.5-4.7-4.6-6.7c-1.4-1.4-2.8-2.8-4.2-4.2c-1.7-1.8-3.2-3.9-4.1-6.3c-1.6-4.2-4-8.1-6.6-11.7
		c-1.5-2.1-3.2-3.8-5-5.7c-0.7-0.8-1.4-1.7-1.3-2.8c0.2-3.5-1.1-6.8-0.8-10.3c0.1-0.5-0.1-1.1-0.2-1.6c-1.1-4.3-0.5-8.7-0.5-13.1
		c0-1.2,0.5-1.7,1.7-1.7c2.8-0.1,5.6,0,8.4-0.1c1.7,0,3.2,0.2,4.7,0.8c1.2,0.4,2.4,0.9,3.7,1.3c0.1,0,0.2-0.1,0.2-0.1
		c3.5-1.5,6.7-1.2,9.7,1.2c1.3,1.1,2.6,2.2,3.8,3.4c4.1,3.9,6.1,8.7,5.7,14.3c-0.5,6.3-1.4,12.7-3.1,18.8c-0.3,1.1-0.7,1.9-1.3,2.6
		c0.2,0.7,0.3,1.2,0.4,1.9c1.7,7.6,5.3,14.4,9.4,21c0.8,1.4,1.8,2.6,3,3.7c1.7,1.7,3.4,3.4,5.1,5.1c0.7,0.7,1.2,1.3,1.2,2.4
		c0.2,4,0.8,7.9,1.5,11.8c0.2,1,0.2,2.2,0.1,3.2c-0.6,3.7-1,7.4-2.1,10.9c-1.4,4.7-3.2,9.3-5.6,13.7c-2.3,4.2-4.7,8.3-7.4,12.2
		c-1.8,2.7-4,5-6.6,6.8c-1.4,1-2.6,2.3-3.7,3.5c-0.2,0.2-0.1,0.5-0.2,0.8c2.3,0.4,4.7,0.5,6.9,1.2c2.4,0.7,4.7,0.5,7.1,0.7
		c0.4,0,0.8,0.2,0.9,0.7c0,0.3-0.1,0.8-0.3,1.1c-2.2,2.2-3.6,4.9-5,7.6c-0.6,1.1-0.7,1.9-0.2,3c0.2,0.3,0.2,0.7,0.3,1.2
		c0.5,2.2,0.5,2.2,3,2.7c0.3,0.1,0.5,0.2,0.3,0.8c-1.7,1.2-3.5,2.3-5.3,3.7c-3.8,2.7-6.9,6.1-8.5,10.7c-0.7,1.8-1.6,3.7-2.7,5.3
		c-5.5,8.8-10.6,17.8-15.1,27.2c-2.4,5-4.7,10.2-5.8,15.7c-0.2,1-0.4,2-0.6,3c-0.7,3.3-1.3,6.6-1.9,9.9c-0.3,1.9-12.8,9.5-13.3,9.9
		c-1.5,1.3-2.6,3-3.8,4.6c-5.2,6.5-9.6,13.4-12,21.4c-0.5,1.5-1.2,2.9-2.2,4.2c-1.3,1.7-2.9,3.4-3.9,5.5c-1.2,2.7-2.7,5.2-3.9,7.9
		c-2,4.3-2.9,8.8-2.5,13.6c0.3,3.2,0.9,6.6,1.9,9.7c1.4,4.6,2.6,9.2,3.7,13.8c2.2,8.3,6.7,15,14.2,19.4c4.8,2.8,9.8,3.1,14.7-0.1
		c1.7-1.1,3.2-2.4,4.6-3.8c0.7-0.7,1.4-1.6,2.6-1.8c0.4-0.1,0.7-0.2,1.2-0.2c1.1-0.2,2.2-0.5,3.2-0.7c0.2,0,0.2-0.1,0.4-0.1
		c0.3-0.1,0.7-0.2,1.1-0.2c0.2-0.1,0.6-0.1,0.8-0.2c0.8-0.2,1.7-0.2,2.6-0.2l0,0l0,0l0,0c0-0.1,0.1-0.2,0.2-0.2
		c0.2-0.2,0.4-0.4,0.7-0.4c0.7-0.3,1-0.9,0.8-1.7c-0.2-0.9-0.6-1.7-0.9-2.7c-1.5-4.3-1.3-8.6,0.7-12.7c1.5-3.2,3.4-6,5.6-8.7
		c1-1.3,1.3-2.5,0.6-4c-1.9-4-2.5-8.3-2.7-12.7c-0.1-1.7,0.2-3.2,0.2-4.9c-4-5-7.5-10.3-10.4-16.2c-2.9-5.9-4.7-11.9-3.9-18.5
		c0-0.2,0-0.5,0-0.8c-0.6-4.2-0.1-8.2,1-12.1c0.3-1.2,0.7-2.4,1.1-3.6c0,0,0,0,0-0.1c1.5-4.4,3.1-8.7,4.7-13.1
		c0.6-1.5,1.2-2.9,2-4.3c3.5-6.2,8.7-10.3,15.5-12.3c1.2-0.3,2.2-0.8,3.3-1.3c6.1-2.7,12.5-4.6,19.1-5.5c5.1-0.7,10.1-0.4,15.2-0.2
		c1.7,0.1,3.5,0.2,5.2,0.3c3.3,0.2,6.7,0.6,9.9,1c4.3,0.5,8.7,1.2,13,2s8.6,1.9,12.8,3c2.2,0.6,4.5,1.2,6.7,2.1
		c2.6,1,5.1,2.2,7.4,3.6c4.5,2.8,8.5,6.3,11.2,11c0.2,0.4,0.4,0.7,0.7,1.2c0.5,0.9,1,1.8,1.7,2.7c0.3,0.4,0.7,0.8,1,1.3
		c3.7,5.2,5.5,11.2,6.6,17.4c0.2,1.6,0.4,3.2,0.6,4.7c0.5,4.7,0.3,9.3-1.4,13.7c-0.4,1.1-0.7,2.2-1,3.4c-0.2,0.7-0.3,1.6-0.7,2.3
		c-3.5,6.7-6.6,13.7-12.3,19c-1.4,1.3-2.8,2.6-4.3,3.9c2.9,2.3,4.1,5.7,4.5,9.5c0.5,3.8,0,7.7-1,11.5c-0.2,1-0.4,2.1-0.7,3.1
		c-1.2,3.9,0,7.6,1.2,11.2c0.3,1.1,1.2,1.7,2.2,2.2c5,2,7.6,6,9.2,10.9c1,3.1,2.4,5.9,5.2,7.8l0,0c3.5-0.2,6.6-1.3,9.3-3.2
		c0.9-0.6,1.7-1.3,2.6-2.1c0.7-0.7,1.4-1.5,2.1-2.2c2-2.4,3.7-5.2,5.2-8c1.2-2.1,2.5-3.8,4.3-5.2c4-2.9,7.3-6.6,10.7-10.2
		c2.6-2.7,4.7-5.7,6.4-9.1c1.3-2.6,2.7-5.2,3.9-7.9c1.1-2.4,2.6-4.2,4.7-5.2c0.2-1.2,0.5-2.4,0.7-3.6c0.4-2.2,1.7-3.2,3.9-3.2
		c1.1,0,2.2,0.2,3.1,0.7c2.8,1.5,5.2,3.4,6.5,6.3c1.9-1.7,3-3.7,2.9-6.6c-0.1-3.2-0.8-6-2.2-8.8c-1.7-3.8-2.4-7.8-1.6-12
		c0.7-3.2,1.2-6.2,2.3-9.2c0.3-0.9,0.5-1.8,0.4-2.7c-0.2-2.6,0.7-5,1.7-7.2c1.7-3.5,3.8-6.7,5.8-10c3.3-5.3,6.1-10.9,7.9-16.9
		c2.3-7.7,3.7-15.7,3.7-23.9c0-2.4,0-4.8,0-7.2c0-0.6-0.4-1.3,0.6-1.7c0.7,1.2,1.2,2.3,1.8,3.5c0.4,0.8,0.8,1.7,1.4,2.4
		C664,309,666.9,308.8,669.1,305.8z M591.3,83.1L591.3,83.1C591.3,83.1,591.3,83,591.3,83.1C591.3,83,591.3,83,591.3,83.1
		C591.3,83,591.3,83,591.3,83.1C591.3,83,591.3,83.1,591.3,83.1L591.3,83.1C591.3,83,591.3,83.1,591.3,83.1L591.3,83.1
		c-0.1,0.1-0.1,0.2-0.2,0.2c-0.2,0-0.2-0.1-0.2-0.1C591,83.1,591.2,83.1,591.3,83.1z"/>
	<path class="st3" d="M598.5,371.2c0,0.1,0,0.1,0.1,0.2C598.6,371.4,598.5,371.3,598.5,371.2z"/>
	<path class="st3" d="M382.3,165.7c-4-3.1-8.5-4.2-13.5-3.7c-1.2,0.2-2.3,0.7-3.3,1.2c-4.2,2.3-7.9,5.4-10.3,9.7
		c-1.7,2.9-3.1,5.8-4.7,8.8c-0.6,1.1-1.1,2.1-2.1,2.8c-1.9,1.4-4.1,1.7-6,1.1c0.5,3.2,1.7,6.3,3.5,9.4c0.3,0.7,0.8,1.3,1.3,1.8
		c3,3.9,10.4,12.4,15.5,10.7c3-1,12.2-8.9,23.1-15.7c-0.2-0.1-0.6-0.2-0.8-0.4c-1.4-0.8-1.9-2.7-1.4-4.6c0.3-1.4,1.1-2.7,1.8-4
		c0.6-0.9,1.2-1.7,1.7-2.7c0.4-0.8,0.9-1.8,0.7-2.7C387.3,173.1,386.3,168.7,382.3,165.7z"/>
	<path class="st3" d="M405.7,587.4c-1.4-2.3-3.2-3.8-5.8-4.4c-0.4-0.1-0.7-0.2-1.2-0.4c-5.4-1.3-10.1-4.2-14.6-7.3
		c-2.6-1.8-4.6-4.1-5.9-6.8c-0.2,1.7-1.2,3.2-2,4.7c-1.5,2.7-3.1,5.3-4.7,7.8c-2.5,3.7-4.7,7.7-8.1,10.8c-0.7,0.6-1.2,1.4-1.6,2.2
		c-1.1,2.4,0.2,4.6,2.9,4.8c1.3,0.1,2.6,0,3.9-0.4c3-0.9,5.5-2.6,7.8-4.7c0.9-0.8,1.6-2.1,2.8-2.4c0.6,0.4,0.4,0.9,0.3,1.2
		c-1.4,4.2-2.9,8.6-5,12.6c-2.4,4.6-4.2,9.5-6.1,14.3c-3.3,8.7-3.9,17.8-4.7,26.9c-0.2,3.2,0.7,6.3,1.2,9.4c0.5,2.8,1.7,5.3,3.2,7.7
		c0.3,0.5,0.6,1,0.9,1.5h5.2c0.4-2.2,1.2-4.3,1.8-6.5c2.9-8.7,7.8-16.2,12.2-24.1c2.3-4.1,5.8-7.2,8.6-10.9c1.1-1.5,2.3-2.9,3.5-4.3
		c0.2-0.2,0.7-0.5,1-0.5c0.5,0,0.5,0.5,0.5,0.9c0.1,3.5-0.8,6.8-1.2,10.2c-0.2,2.1,1.2,3.7,3.2,3.2c1-0.2,2.1-0.7,2.9-1.2
		c3-2,5.9-4.1,8.2-6.8c3-3.5,6-7,8.2-11.2c0.4-0.8,0.7-1.6,1.1-2.3c-1.7-1.7-3.4-3.7-4.9-5.7C415.2,599.6,409.6,594.1,405.7,587.4z"
		/>
	<path class="st3" d="M266.5,127.8c0.2-0.2,0.2-0.7,0.2-1.1c-0.2-0.5-0.7-0.3-1-0.2c-1.2,0.8-2.3,1.7-3.6,2.5
		c-2.7,1.9-5.3,3.9-8.2,5.6c-2.7,1.5-5.3,2.9-7.8,4.7c-2.7,2-5.7,3.5-8.9,4.3s-6.2,2.3-8.9,4.3c-3.2,2.2-6.5,4.2-10,5.7
		c-5.4,2.5-10.5,5.7-15.2,9.3c-3.5,2.7-6.7,5.7-9.2,9.3c-3.8,5.4-6,11.5-5.7,18.2c0.1,1.1,0,2.2,0,3.2c0.2,4.9,0.2,9.8,4,13.7
		c0.2,0.2,0.2,0.5,0.3,0.7c1.2,2.8,3.5,4.7,6.2,6c2.2,1,4.2,2.2,6.3,3.3c1.2,0.7,2.6,1.4,4.1,1.2c1.7,0.1,2.9-0.6,4.1-1.5
		c1.2-0.9,1.8-2.2,2.2-3.7c1.4-4.4,3.2-8.7,5.3-12.8c0.4-0.8,0.7-1.7,1.1-2.6c2.3-7.9,5.8-15.4,9.6-22.7c1.2-2.4,2.7-4.5,4.5-6.5
		c3.7-3.9,6.5-8.3,7.7-13.7c0.4-1.8,1.2-3.4,2.7-4.7c6.3-5.2,10.8-12.1,16.2-18C263.9,131,265.2,129.4,266.5,127.8z"/>
	<path class="st3" d="M745.2,169.5c2.8,2.6,5.9,4.9,8.9,7.2c1.7,1.3,3.4,2.5,4.2,4.7c0.2,0.5,0.6,0.9,1,1.2c1.8,1.7,2.7,3.8,3.7,6.1
		c0.9,2.2,2,4.3,3,6.5c1,2.1,2.7,2.8,4.8,2.8c1.8-0.1,2.7-1.3,3.5-2.8c0.2-0.5,0.4-1,0.6-1.5c1.4-3.5,2-7.2,1.7-10.9
		c-0.1-2.4,0.2-4.8-0.4-7.2c-1.7-6.8-5.2-12.7-9.6-18.1c-1.5-1.8-3.2-3.5-4.6-5.5c-1.7-2.4-3.7-4.5-5.8-6.5c-1.2-1.1-2.5-1.9-3.7-3
		c-4.2-3.7-8.5-7.2-13.2-10.1c-4.7-2.9-9.3-6.1-14.7-8c-0.6-0.2-1.2-0.7-1.7-1c-3.9-2.2-7.8-4.5-11.7-6.7c-0.9-0.5-1.7-1.2-2.5-2
		c-0.7-0.7-1.4-1.6-2.1-2.3c-0.2-0.2-0.5-0.2-0.7-0.1s-0.4,0.3-0.4,0.6c-0.1,0.4-0.2,0.8-0.1,1.2c0.6,4.3,1.2,8.7,4.8,11.8
		c1.2,1,1.7,2.2,1.1,3.8c-0.6,1.5-0.2,3.1,0.2,4.7c1.2,4.9,3.9,9,6.8,12.9c1.8,2.4,3.6,4.9,6.2,6.7c2.2,1.6,4.6,3.2,6.8,4.8
		c1.3,0.9,2.7,1.7,3.8,2.9c1.7,2,4.1,3.4,6.2,5.1C742.5,167.7,744,168.5,745.2,169.5z"/>
	<path class="st3" d="M386.1,268.3c0,0.7,0.2,1.3,0.7,1.8c0.7,0.8,1.4,1.6,2.2,2.3c1.9,1.8,3.7,3.7,4.7,6.3c0.3,1,1,1.9,1.9,2.5
		c2.2,1.3,3.8,3.2,5.7,5.1c6.3,6.2,14.2,8.6,22.6,9.2c5.1,0.4,9.1-1.7,12.5-5.2c1.2-1.2,2-2.5,2.4-4.1c0.9-3.1,2.1-6,2.6-9.2
		c0.2-1.9,0.9-3.8,1.7-5.7c1.6-3.6,1.6-7.5,2-11.2c0.1-0.4,0-0.8-0.1-1.2c-0.7-3.7-4.1-5.7-7.7-4.5c-1.4,0.4-2.6,1.3-3.8,2.1
		c-3.2,2-6.2,4.1-9.2,6.2c-3.4,2.4-7.2,4.1-11.2,5.1c-2.7,0.7-5.2,1.5-8.2,0.6c-2.1-0.6-4.5-0.6-6.7,0.2c-2.2,0.7-4.2,0.4-6.2-0.6
		c-1.4-0.7-2.9-1.2-4.5-1.4C386.7,266.7,386.1,267.5,386.1,268.3z"/>
</g>
<g>
	<path class="st4" d="M365,655.9c-0.6-3.2-1.6-6.2-1.2-9.4c0.8-9.1,1.3-18.2,4.7-26.9c1.9-4.8,3.7-9.7,6.1-14.3
		c2.1-4,3.6-8.2,5-12.6c0.1-0.3,0.2-0.7-0.3-1.2c-1.2,0.3-1.9,1.6-2.8,2.4c-2.3,2-4.8,3.7-7.8,4.7c-1.3,0.4-2.6,0.5-3.9,0.4
		c-2.7-0.2-4-2.4-2.9-4.8c0.4-0.8,0.9-1.7,1.6-2.2c3.4-3.1,5.5-7.2,8.1-10.8c1.7-2.5,3.2-5.2,4.7-7.8c0.8-1.5,1.7-3,2-4.7
		c-0.1-0.2-0.2-0.5-0.3-0.7c-2.2-4.9-4.3-9.7-6.1-14.7c-1.5-4.4-3.2-8.7-4.8-13.1c-0.7-1.8-1.7-3.6-3.1-5.1c-3.1-3.2-6-6.4-9.3-9.3
		c-3-2.6-5.7-5.6-8-8.9c-2.2-3.2-4.2-6.5-6.2-9.7c-1.5-2.5-2.7-5.2-3.7-7.9c-1.8-5.2-3.4-10.3-4.6-15.7c-1.2-5.3-2.3-10.7-3.9-15.9
		c-1.6-5.2-4.7-9.6-7.4-14.1c-0.5-0.8-1.2-0.8-2-0.2c-2.2,1.8-4.7,2.5-7.3,2.7c-1.4,0.2-2.9,0.4-4.3,0.7c-3.7,0.6-7.3,1.5-10.8,2.8
		c-3,1.1-5.5,2.9-7.5,5.3c0,1.3-0.1,2.6-0.1,3.9c-0.1,5.9,1,11.6,2.6,17.2c2.5,9.2,6.4,18,10.5,26.6c2.3,5.1,4.2,10.3,6.1,15.6
		c1.6,4.2,3.1,8.5,4.5,12.8c0.6,1.7,0.9,3.6,1.2,5.4c0.2,1.3,0.2,2.6,0.6,3.9c0.2,1,0.3,2.1,0.2,3.2c3.2-3.2,6.5-6.4,10.1-9.3
		c2-1.6,3.8-3.2,5.7-5c1.3-1.2,2.7-2.7,3.8-4.1c2.7-3.4,4.6-7.2,4.5-11.7c0-0.5-0.2-1.1,0.5-1.3c0.6-0.2,1,0.2,1.4,0.5
		c1.7,1.1,2.7,2.6,3.2,4.4c1.5,4.5,1.9,9.1,0.6,13.7c-0.7,2.6-1.7,5.1-2.8,7.5c-2.4,5.1-4.9,10.1-7.2,15.1c-2.2,4.6-4,9.3-5.4,14.2
		c-0.5,1.8-0.9,3.6-1.1,5.5c-0.6,9.6-0.6,19.1,1.2,28.6c3.7,20.1,11.8,38,25.4,53.4c0.2,0.2,0.2,0.3,0.4,0.4H369
		c-0.2-0.5-0.6-1-0.9-1.5C366.7,661.3,365.5,658.8,365,655.9z"/>
	<path class="st4" d="M635.2,266c4.7-5.2,8.6-11.2,11.8-17.4c0.5-0.9,1.1-1.9,1.9-2.6c1.5-1.2,2-2.7,1.7-4.6
		c-0.2-1.7-0.3-3.4-0.6-5.2c-0.2-2-0.9-3.9-2.3-5.4c-1.8-1.9-2.7-4.2-3-6.8s-1.3-4.9-2.7-7c-1.2-1.8-2.7-3.7-4.1-5.4
		c-3.4-4.1-6.8-8.2-10.3-12.2c-2.1-2.4-4.2-4.7-7.4-5.9c-1.1-0.4-2.2-1.1-2.9-2c-0.7-0.8-0.8-1.8-0.4-2.7c-3.2-0.5-6.4-0.4-9.6-0.5
		c-5.6-0.1-11.2-0.1-16.7-0.1c-1.5,0-2.9-0.2-4.3-0.4c-3.7-0.7-5,1-8.7,1.2c-0.2,0-0.8-0.1-1.4-0.2c-4.7,1.6-7.6,4.2-10.2,7.2
		c-1.5,1.7-3.3,3-5.3,4.2c-5.7,3.3-10,7.9-12.9,13.8c-1.2,2.7-2.7,5.2-3.9,7.8c-1.2,2.5-2.2,5.2-1.8,8c0.1,0.4,0,0.8-0.1,1.2
		c-0.1,0.3-0.4,0.7-0.6,1c-0.2-0.2-0.7-0.3-0.8-0.6c-1-2.2-2.1-4.3-2.9-6.6c-1.2-3-2.2-6-3.2-9c-0.6-1.6-0.6-3.1,0.4-4.6
		c1.6-2.3,2.1-5.2,2.7-7.9c0.6-2.7,0.3-5.3-0.7-7.8c-0.8-1.8-1.6-3.7-2.4-5.5c-3.5-7.8-0.5-16.2,5.8-21.1c0.2-0.2,0.4-0.3,0.7-0.5
		c-0.3-2.9-0.3-5.7-0.1-8.6c0.1-1.8,0.5-3.7,1-5.5c-1.7-1-2.9-2.6-3.3-4.8c-0.2-1.2-0.3-2.3-0.5-3.3c0.3-2.8,0.5-5.5,0.9-8.2
		c0.6-3.9,1.2-7.9,1.2-11.9c0-3.9,0.9-7.7,2.4-11.2c-2.3,2.5-4.6,5.2-6.7,7.9c-3.7,4.6-5.8,9.7-7.1,15.4c-1,4.4-2.2,8.7-2.9,13.2
		c-0.5,3.4-1.3,6.7-1.1,10.2c0.1,1.6-0.1,3.2-0.5,4.7c-0.3,1.2-0.2,2.4-0.2,3.6c0,6.2-0.1,12.2,0,18.4c0,2.1-0.5,3.9-0.9,5.9
		c-0.2,0.6-0.5,1.3-0.9,1.7c-1.5,1.3-1.7,3.1-1.3,4.7c0.7,3.3,0.4,6.5,0.1,9.8c-0.5,4.6-0.2,9.3-0.1,14c0,1.2,0.4,2.3,0.7,3.5
		c2,7.1,4.2,14,8.3,20.1c1.2,1.8,2.7,3.2,4.5,4.3c3.3,2.1,6.7,4.4,10.2,6.3c3.6,2,7.2,4.1,10.7,6.1c2.3,1.3,4.7,2.7,6.5,4.6
		c3.3,3.6,2.8,7.7-1.1,10.6c-1.7,1.2-3.3,2.2-5.1,2.7c-0.4,1.1,0.1,1.8,0.3,2.5c2.1,6.2,3.9,12.4,6.5,18.4c3,7,5.2,14.2,8.6,21
		c3.2,6.2,7.2,11.8,11,17.6c0.7,1.1,1.7,2,2.7,2.9c2.8,2.4,4.4,5.6,5.7,9c1.9,5.3,3.4,11,5.9,16.1c2.2,4.5,6.1,5.2,8.2,5.1
		c-2.1,0-3.6-1.2-4.7-2.8c-0.2-0.4-0.5-0.8-0.7-1.3c-0.1-0.1-0.1-0.2-0.1-0.2c-0.2-0.3-0.3-0.7-0.4-1c-0.9-2.4-1.6-4.8-1.6-7.4
		c-0.1-7.7-0.2-15.5,0.5-23.1c0.5-5.2,0.7-10.3,0.2-15.6c-0.7-8-4-14.8-9.9-20.3c-4.2-3.9-7.7-8.5-10.9-13.2c-1.1-1.7-2-3.4-2.7-5.3
		c-0.8-2.6-1.1-5.2-0.6-7.9c0.3-2,1.2-3.7,2.8-5.2c1.4-1.2,2.8-2.4,4.2-3.6c2.6-2,5.3-2.3,8.2-0.9c0.7,0.3,1.4,0.8,2.1,1.2
		c5.7,3.3,11.6,6.5,18.1,8.2c4.9,1.2,9.5,1,14-1.3C627.4,273.4,631.7,270,635.2,266z M609.2,256.9c-2.8,0.7-5.7,1-8.7,0.7
		c-2.1-0.2-4.2-0.2-6.4-0.2c-8.4,0.2-16.1-1.9-22.8-7c-0.7-0.5-1.2-1-2-1.3c-0.8-0.5-1.7-1.7-2.7-0.9c-0.7,0.6-0.3,1.7-0.1,2.7
		c0.3,1.2,0.7,2.2,1,3.4c0.2,0.8,0.5,1.5,1.1,2.1c0.5,0.6,1.3,0.9,1.6,1.7c-2.2,1.2-4.5,1.9-6.2,1.7c-1.8-0.2-3.2-1.3-4.2-2.7
		c-1.5-1.8-2.2-3.9-2.4-6.2c-0.2-2.6,0-5.1,0.8-7.5c0.4-1.2,0.7-2.2,0.8-3.5c0.1-5.7,1.6-11.3,3.4-16.7c1.1-3.3,2.8-6.2,5-8.5
		c0.3-0.7,0.2-0.8,0-1.1c-2.3-1.7-2.6-2.8-1-4.8c1.2-1.6,2.9-2.7,4.7-3.6c3.5-1.7,7.3-2.4,11.2-2.7c1.2-0.1,2.4-0.2,3.6-0.5
		c6.6-1.7,12.9-0.8,19,2.2c6.8,3.4,13.2,7.6,19.5,11.7c1,0.7,1.9,1.4,2.8,2.2c3.7,3.4,7.4,6.9,11,10.4c0.8,0.8,1.6,1.8,2.3,2.7
		c1.2,1.6,1.6,3.3,1.4,5.2c-0.2,2.2-0.5,4.2-1.5,6.2c-2.5,4.4-5.4,8.4-10.2,10.7c0,0.1,0,0.1,0,0.2l0,0c-0.1,0-0.1,0-0.1,0
		c-0.1,0.1-0.1,0.2,0,0.2c0.2,0.1,0.1,0.1,0,0H630c-0.2,0-0.1-0.2,0.2-0.2c0,0,0-0.1,0.1-0.1h0.1c-0.2-1.8,0.9-3.5,0.9-5.3
		c0-0.5,0.3-1-0.2-1.7c-2.9,2.2-6.2,4-9.3,5.9C617.6,254.5,613.5,255.8,609.2,256.9z"/>
	<path class="st4" d="M605.1,375.4c-0.2,0-0.3,0.1-0.5,0.1C604.7,375.5,605,375.5,605.1,375.4z"/>
	<path class="st4" d="M637.9,470.4c6.2-6.5,12.7-12.9,19.1-19.4c0.5-0.5,1-0.9,1.5-1.3c6.8-5.6,12.6-12.2,18.3-19
		c2.7-3.2,5.2-6.6,6.6-10.4c2.4-6.3,4.9-12.7,6.3-19.3c1.5-6.7,2.8-13.6,3.5-20.5c0.3-3.1,0.7-6.1,2.2-8.8c0.5-0.9,0.6-1.7,0.1-2.7
		c-0.6-1-0.7-2.3-1.8-3c-0.2,0.1-0.3,0.1-0.3,0.2c-0.2,0.6-0.5,1.2-0.6,1.9c-1.4,6.5-3.8,12.7-6.4,18.8c-1.9,4.5-4.1,9-6.2,13.4
		c-3.7,8-8.2,15.6-13.4,22.6c-1.7,2.3-3.7,4.6-5.7,6.7c-0.6,0.6-1.2,1.2-1.7,1.7c-0.6,0.4-1.2,0.6-1.8,0.2c-0.7-0.4-0.6-1.1-0.4-1.7
		c1.4-5.9,2.8-11.9,4.3-17.8c1.1-4.5,2.1-9.1,3.3-13.6c0.6-2.1,1.1-4.1,1.3-6.2c0.7-5.5-0.1-10.9-2-16.1c-1-2.6-1.8-5.2-2.3-8.1
		c-1.3-7.7-0.1-14.6,5.4-20.4c1.6-1.7,3-3.3,4.6-5c3.9-4.3,7.2-9.2,10.2-14.2c1.4-2.5,2-5.1,2-8c0.2-14.9,0-29.8,1.8-44.7
		c0.3-2.6-0.1-5.1-0.9-7.5c-1.1-3-2.2-6-3.4-8.9c-0.8-2-1.9-3.7-3.2-5.5c-0.1,0-0.2,0.1-0.2,0.1c-1.5,0.9-2.8,1.9-3.4,3.7
		c-0.4,1.4-1.2,2.6-2.1,3.8c-2.9,4.2-4.1,8.8-4.3,13.8c-0.3,5.3,0.3,10.6,1.8,15.7c1.1,3.9,0.5,7.9,0.5,11.9c0,1.1-0.6,2-1.2,2.9
		c-2.2,3.1-5.1,3.2-7.6,0.2c-0.6-0.7-1-1.6-1.4-2.4c-0.7-1.2-1.2-2.3-1.8-3.5c-1,0.4-0.6,1.2-0.6,1.7c-0.1,2.4-0.1,4.8,0,7.2
		c0,8.2-1.3,16.2-3.7,23.9c-1.8,6-4.7,11.6-7.9,16.9c-2,3.2-4.2,6.5-5.8,10c-1.1,2.3-1.9,4.7-1.7,7.2c0.1,0.9-0.1,1.8-0.4,2.7
		c-1,3-1.7,6.2-2.3,9.2c-0.8,4.2-0.2,8.2,1.6,12c1.3,2.8,2.1,5.7,2.2,8.8c0.1,2.8-0.9,4.8-2.9,6.6c0.2,0.6,0.5,1.2,0.7,1.8
		c0.7,3,1.2,6,0.7,9.1c-0.1,0.3-0.5,0.6-0.7,0.7c-0.1,0.1-0.5-0.2-0.6-0.4c-0.7-1.3-1.2-2.7-1.9-4c-0.2-0.5-0.7-0.7-1.3-0.5
		c-0.7,0.2-1.3,0.5-1.4,1.2c-0.1,0.5,0,1.1,0.2,1.6c1.7,6.8,0.5,13.2-2.7,19.3c-0.7,1.2-0.7,2.4-0.2,3.7c0.9,2.6,0.9,5.2,0.7,7.9
		c-1.1,11.2-3.2,22.1-7.1,32.7c-2.1,5.7-4.9,10.9-8.8,15.6c-2.7,3.2-5.2,6.7-7.5,10.3c-1.2,1.9-1.9,4-2.1,6.3
		c-0.2,3.7-0.7,7.4-1.4,11.1c-1.2,7-4.6,13-9.1,18.4c-1.9,2.2-4.2,4.1-6.7,5.6c-1.8,1.1-3.7,2.1-5.7,2.9c-6.5,2.7-13,5.5-19.5,8.2
		c-1.3,0.6-2.2,1.2-2.7,2.7c-0.8,2.7-2,5.2-3.3,7.7c-1.8,3.5-11.5,15.9-14.5,18.5c-3.7,3.2-7.7,6.1-12.5,7.7
		c-1.2,0.4-2.5,0.9-3.7,1.5c-7.2,3.7-15.1,5.2-23.1,6c-5.9,0.6-11.7-0.2-17.4-1.7c-2.8-0.7-5.7-1.4-8.6-2c-4.3-0.9-8.3-2.6-12.2-4.7
		c-8.9-4.9-15.5-12.1-20.6-20.7c-1.7-2.8-3.5-5.7-5.2-8.5c-1.2-2.1-2.5-4.1-3.2-6.4c-0.8-2.7-2.4-5-3.8-7.4c-1-1.7-2.2-2.2-3.9-1.7
		c-4.2,1.1-8.4,0.8-12.7,0.3c-6.9-0.9-12.7-4.1-17.6-8.7c-4.3-4.2-7.9-9-10.4-14.6c-3.3-7.6-6-15.4-7.1-23.6
		c-0.2-1.8-0.3-3.7-0.4-5.6c-0.1-1.3-0.1-2.7-0.2-4c-0.2-4.5-1.4-8.7-4.2-12.2c-2.7-3.5-4.6-7.5-5.6-11.8c-2.6-11-1.2-21.4,4.8-31.1
		c0.3-0.6,0.7-1.1,0.9-1.6c-0.2-0.8-0.8-1.2-1.4-1.5c-0.6-0.4-1.2-0.6-1.8-0.1c-0.4,0.3-0.8,0.7-1.3,0.9c-4,2.2-8.7,0.6-10.2-3.7
		c-1.2-3.2-2.2-6.6-2.7-10c0-0.2,0-0.2-0.1-0.4c-1.1,2.2-2.1,4.3-2.9,6.6c-2.3,6.7-4.2,13.4-5.3,20.4c-0.2,1.2-0.6,2.3-1,3.4
		c-0.7,2.1-1.7,3.7-3,4.8c1.2,1.8,2.1,3.8,2.7,6c0.3,1.2,0.7,2.6,0.9,3.9c1,5.8,2.7,11.4,4.2,17.1c1.8,7.2,4.6,14,8.6,20.1
		c4.9,7.7,9.2,15.6,13.9,23.3c0.9,1.6,2.2,2.7,3.7,3.4c1.9,0.9,3.7,2.2,5.1,3.7c3.7,4,7.2,8.2,9.4,13.3c1.3,2.9,2.7,5.7,3.9,8.7
		c1.7,4.6,4.6,8,9.2,10c1.6,0.7,3,1.7,4.5,2.6c1.5,0.9,2.7,2.2,3.7,3.6c7.7,11.4,17.2,21,29.1,28c2.1,1.2,4.1,2.5,6.2,3.7
		c3.2,1.8,6.6,3.4,10.2,4.5c8,2.2,16.1,3.7,24.4,3.8c4.5,0.1,9.1,0.1,13.6,0.1c3.8,0,7.7,0,11.6,0.5c3.4,0.4,6.9,0.1,10.3-0.4
		c8.7-1.2,17.3-2.8,26.1-3.5c6.2-0.5,11.2-3.6,15.1-8.1c3.6-4.1,6.7-8.6,9.9-13.1c3-4.2,5.3-8.9,6.3-14.1c1.2-6.7,4.6-12.1,9.5-16.7
		c5.2-5,10.2-10.2,14.5-16c1.1-1.5,2.2-3,3.5-4.3c3.6-3.7,6.5-8.1,9.4-12.4c3.2-4.7,5-9.9,6-15.5c0.9-5,2.1-9.9,3.3-14.8
		c0.7-2.7,1.7-5.3,3.2-7.7c2.2-3.5,4.3-7,6.6-10.5C635.1,473.8,636.4,471.9,637.9,470.4z"/>
	<path class="st4" d="M147.8,222.1c2.3,9.5,6.1,18.5,9.2,27.6c2.2,6.8,5.2,13.4,8,20c1.3,3.1,3,5.9,4.9,8.7
		c3.2,4.7,6.7,9.3,10.5,13.6c2.4,2.7,4.7,5.5,6.8,8.3c6.8,8.8,10.9,18.8,13.1,29.7c1.7,8.4,1.8,16.9,1.7,25.5
		c-0.2,11.9-2.7,23.5-6.1,34.9c-0.8,2.9-1.6,5.9-2.5,8.8c-0.7,2.2-0.1,3.9,1.4,5.5c1.8,1.9,3.7,3.8,5.6,5.7c1.2,1.2,2.6,1.7,4.2,1.8
		c3.7,0.1,7.4-0.1,11-1.5c2.8-1.2,5.7-2.2,8.6-3.2c3.3-1.2,6.3-2.7,9.2-4.7c5-3.5,9.9-7.2,14.6-11.2c1.5-1.2,3-2.7,4.3-4.2
		c6.5-7.1,12.6-14.5,18.5-22c1.1-1.3,2.1-2.8,3-4.2c4.5-7.2,8.8-14.6,12.8-22.1c3.9-7.3,6.6-15.2,8.1-23.3
		c1.2-7.1,2.2-14.2,2.7-21.4c0.7-9.2,0.5-18.4-1.2-27.5c-1.8-9.8-4.9-19.3-10.2-28c-1.9-3.2-3.7-6.5-4.6-10.2
		c-1.8-7.2-3.3-14.6-3.6-22.1c-0.7-16.3,2.2-32.1,7.7-47.4c0.7-2.2,1.5-4.2,2-6.5c1.7-7.3,4.6-14.2,8.3-20.6c2-3.5,4.3-6.7,7.6-9.2
		c0.8-0.7,1.5-1.5,2.2-2.3c0.5-0.6,0.9-1.3,1.7-1.5l0,0v-0.3v0.2l0,0l0,0v0.1l0,0c-2.2,4.4-4.3,8.7-6.5,13.2
		c-3.8,7.7-5.6,16.1-6.4,24.6c-0.7,7.7-0.2,15.4,0.2,23.1c0.2,2.9,1,5.7,1.6,8.7c0.1,0.3,0.2,0.9,0.7,0.7c0.3-0.2,0.6-0.5,0.7-0.8
		c0.7-2.2,1.2-4.3,2-6.5c1.9-5.5,4-11,5.8-16.6c1.7-5.2,4.1-10.1,7.5-14.4c1-1.2,1.9-2.6,2.7-4c4.4-7.8,9.9-14.8,15.7-21.6
		c0.7-0.9,1.6-1.8,2.5-2.6c2.5-1.9,5.7-0.8,6.7,2.2c0.4,1.3,0.3,2.7,0.1,4c-0.7,3.8-2.1,7.4-4.5,10.5c-5.2,6.4-8.3,13.9-10.8,21.6
		c-0.5,1.5-0.7,3.1-0.5,4.7c0.3,2.5,0.1,5.1-0.2,7.6c-0.6,4.1-0.7,8.2,0.2,12.3c0.7,3.2,1.4,6.5,2.1,9.7c1.2,5.7,2.9,11.3,6,16.4
		c2,3.4,2.7,7.2,2.2,11.2c-0.7,4.6-2.9,8.2-6.6,11c-1.8,1.3-3.7,2.7-5.5,3.9c0.5,0.2,1.1,0.3,1.7,0.5c5.2,0.8,8.5,3.8,9.8,9.1
		c0.7,2.9,0.9,5.7,0.2,8.7c-0.6,2.6-0.7,5.2-1.2,7.8c-0.8,4.2-0.3,8.5-1,12.7c-0.7,4.3-0.4,8.7-1.2,13.1c-0.6,3.6-0.6,7.4,0.2,11.1
		c0.2,0.7,0.3,1.6,0.3,2.3c-0.1,3.1,0.7,6.1,1.4,9c1.2,5.7,2.5,11.4,4.2,17c1.2,4,2.9,7.7,4.8,11.3c0.6,1.2,1.7,1.7,2.7,2.2
		c1.7,0.8,3.2,1.8,4.6,3.1c2.2,2.1,3.5,4.7,3.7,7.7c0.4,4.6,2.2,8.7,3.8,12.9c0.7,1.7,2,2.7,3.7,3.4c1.6,0.7,3.2,1.2,4.7,2
		c1.7,0.8,3,2.1,3.8,3.5c0.7-1.4,1.7-2.7,2.7-4.1c3.1-4.1,5.8-8.2,8.4-12.7c2.1-3.6,3.7-7.3,4.7-11.4c0.7-2.7,1.3-5.4,2.1-8.2
		c0.9-3.8-0.1-6.8-3.4-9c-2-1.3-3.5-2.9-3.2-5.3c-1.2-0.6-1.7,0.2-2.2,0.7c-1.8,1.3-3.7,2.7-5.8,3.5c-4.1,1.5-7.6,0.7-10.7-2.3
		c-1.8-1.8-3.1-4-3.9-6.4c-1.9-5.8-3.6-11.8-3.2-18c0.5-7.4-2-13.9-5.4-20.1c-1.8-3.4-4.1-6.6-5.5-10.2c-0.4-1.1-1.3-1.6-2.1-2.3
		c-2.2-2.1-2.7-4.4-1.7-6.8c1.1-2.7,3.8-4.6,6.6-4.2c5.9,0.9,11.7,2.2,16.1,7c3,3.4,6.1,6.7,8.4,10.6c2,3.3,4.1,6.5,6.7,9.4
		c1.8,2,3.9,3.6,6.4,4.7c1.8,0.7,3.6,1.7,5.3,2.7c4.8,2.6,8.1,6.5,9.8,11.6c0.7,2.2,1.3,4.6,2.1,6.9c1.4,4.6,1.5,4.2,5.9,2.8
		c2.9-1,5.5-2.7,7.7-4.8c0.8-0.8,1.7-1.7,2.7-2.2c1.9-1.1,4.2-0.1,4.7,2.1c0.1,0.4,0.2,0.8,0.1,1.2c-0.7,3.4-0.1,6.9,0,10.3
		c0.2,5.7-0.7,11.2-2.4,16.5c-3.3,10.1-8.1,19.4-14.7,27.7c-3.7,4.7-7.6,9.3-12,13.4c-2,1.8-3.5,4-5,6.2c-0.9,1.5-2,2.8-3.7,3.4
		c-1.2,0.3-1.7,1.2-2.2,2.2c-2.5,4.4-4.4,9.1-5,14.2c-0.5,4.2-0.3,8.5,0,12.7c0.2,2.8,1.5,5.1,3.7,6.8c1.9,1.5,3.7,3,5.7,4.4
		c3.8,2.7,6.3,6.3,7.9,10.7c1.2,3.5,2,7.2,2.7,10.8c1.3,7.2,0.2,6.2,6,13.1c1.6,1.8,3.3,3.6,5.1,5.2c0.2,0.1,0.4,0.2,0.7,0.2
		c3.2,1.2,6.5,1.1,9.8,0.2c5.9-1.6,10.9-4.8,15.8-8.2c1.3-0.9,2.2-2.2,2.8-3.7c0.4-1,0.8-2,1.1-3c0.2-1.1,0.6-2.2,1-3.2
		c0.2-0.7,0.6-1.3,1-1.9c0.3-0.5,0.7-1,1-1.5c0.2-0.2,0.2-0.4,0.4-0.6c0.2-0.2,0.2-0.4,0.4-0.6c0.4-0.1,0.7-0.3,0.9-0.7
		c-0.3,0.1-0.6,0.2-0.7,0.4c-0.1,0.1-0.1,0.2-0.2,0.2l0,0l0,0l0,0c-0.8,0-1.7,0.1-2.6,0.2c-0.2,0.1-0.6,0.1-0.8,0.2
		c-0.3,0.1-0.7,0.2-1.1,0.2c-0.2,0-0.2,0.1-0.4,0.1c-1.1,0.2-2.2,0.5-3.2,0.7c-0.4,0.1-0.7,0.2-1.2,0.2c-1.1,0.2-1.8,1.1-2.6,1.8
		c-1.4,1.4-2.9,2.7-4.6,3.8c-4.9,3.2-9.8,2.9-14.7,0.1c-7.5-4.3-12.1-11.1-14.2-19.4c-1.2-4.7-2.4-9.2-3.7-13.8
		c-0.9-3.2-1.6-6.4-1.9-9.7c-0.4-4.7,0.5-9.2,2.5-13.6c1.2-2.7,2.7-5.2,3.9-7.9c1-2.1,2.5-3.7,3.9-5.5c1-1.3,1.7-2.7,2.2-4.2
		c2.4-8,6.8-14.9,12-21.4c1.2-1.6,2.3-3.2,3.8-4.6c0.4-0.4,13-8,13.3-9.9c0.6-3.3,1.2-6.6,1.9-9.9c0.2-1,0.4-2,0.6-3
		c1.2-5.5,3.4-10.6,5.8-15.7c4.4-9.4,9.5-18.4,15.1-27.2c1.1-1.7,2-3.5,2.7-5.3c1.6-4.6,4.7-8,8.5-10.7c1.8-1.3,3.7-2.5,5.3-3.7
		c0.2-0.6,0-0.7-0.3-0.8c-2.5-0.4-2.5-0.4-3-2.7c-0.1-0.4-0.2-0.8-0.3-1.2c-0.6-1.1-0.3-1.9,0.2-3c1.5-2.7,2.7-5.4,5-7.6
		c0.2-0.2,0.3-0.7,0.3-1.1c0-0.5-0.5-0.6-0.9-0.7c-2.3-0.2-4.7,0.1-7.1-0.7c-2.2-0.7-4.6-0.8-6.9-1.2c0.1-0.3,0-0.7,0.2-0.8
		c1.2-1.2,2.4-2.5,3.7-3.5c2.7-1.9,4.7-4.2,6.6-6.8c2.7-3.9,5.1-8.1,7.4-12.2c2.4-4.3,4.2-8.9,5.6-13.7c1.1-3.5,1.5-7.2,2.1-10.9
		c0.2-1,0.2-2.2-0.1-3.2c-0.7-3.9-1.2-7.8-1.5-11.8c-0.1-1-0.6-1.7-1.2-2.4c-1.7-1.7-3.4-3.4-5.1-5.1c-1.2-1.1-2.2-2.3-3-3.7
		c-4-6.6-7.7-13.4-9.4-21c-0.2-0.7-0.3-1.2-0.4-1.9c-0.9,1-2.2,1.5-3.7,1.6c-2.8,0.1-4.9-1.2-5.9-3.8c-0.8-2.2-1.1-4.4-1-6.7
		c0.1-2.7-0.7-4.8-2.5-6.9c-1.5-1.7-2.7-3.6-3.9-5.5c-1.5-2.2-2.6-4.7-3.1-7.3c-0.5-2.4-0.2-4.7,1.3-6.8c0.5-0.7,1.2-1.2,1.2-2
		c0.2-1.7,1.3-2.3,2.7-2.9c-1.2-0.4-2.4-0.9-3.7-1.3c-1.5-0.6-3.1-0.8-4.7-0.8c-2.8,0.1-5.6,0-8.4,0.1c-1.2,0-1.7,0.6-1.7,1.7
		c0,4.4-0.5,8.7,0.5,13.1c0.2,0.5,0.2,1.1,0.2,1.6c-0.2,3.5,1,6.8,0.8,10.3c-0.1,1.2,0.6,2,1.3,2.8c1.7,1.8,3.5,3.6,5,5.7
		c2.7,3.7,5,7.5,6.6,11.7c0.9,2.4,2.3,4.5,4.1,6.3c1.4,1.4,2.8,2.8,4.2,4.2c2.1,2.1,3.6,4.3,4.6,6.7c0.3-0.3,0.7-0.7,1.2-0.8
		c1.6-0.8,3.2-0.2,4,1.3c0.5,1,0.5,2.1,0.6,3.1c0.2,2.5,0.4,5,0.7,7.6c0.4,4.4,1.7,8.6,4.3,12.2c0.8,1.2,1.7,2.4,2.5,3.7
		c1.9,2.7,2.7,5.7,2.7,9c-0.4,9.2-3.8,17-11.3,22.7c-0.5,0.4-1,0.8-1.5,1.2c-0.4,0.3-0.7,0.8-1.3,0.7c-0.9-0.6-0.7-1.6-0.8-2.5
		c-0.8-4.8-2.6-9.2-5-13.4c-1.4-2.4-3.3-4.5-5.4-6.3c-1.7-1.5-3.2-3.2-4.7-4.9c-0.6-0.7-0.9-1.6-1.1-2.3c-1.2-0.9-2.4-1.7-3.6-2.6
		c-0.8-0.6-1.8-1.2-2.7-1.7c-5.7-4.5-12.3-7.2-19.2-9.3c-0.8-0.2-3.4-3.9-5.6-6.7c-6.2-0.4-12.2,1.5-18.1,3.2
		c-1.8,0.5-3.4,1.4-4.9,2.6c-1.2,0.8-2.3,1.2-3.6,0.7c-10.8,6.7-20.1,14.7-23.1,15.7c-5.2,1.7-12.5-6.7-15.5-10.7
		c-0.5-0.5-0.9-1.2-1.3-1.8c-1.7-3.1-2.9-6.2-3.5-9.4c-1.6-0.5-3-1.7-3.9-3.3c-1.2-2.2-1.3-4.6-1.3-7.6c0.2-1,0.2-2.6,0.6-4.1
		c1.7-7,4.1-13.8,8.2-19.8c4.5-6.6,8.9-13.2,13.1-20.1c0.4-0.7,0.9-1.5,1.4-2.2c0.2-3.8,0.7-7.6,2.2-11.2c1.2-3.2,2.8-6.3,3.5-9.7
		c0.2-1.2,0.3-2.3-0.2-3.4c-1.4-2.6-2.7-5.2-4.3-7.6c-1.8-2.8-5.2-3.9-8.4-2.9c-2.3,0.7-4.6,1.1-7,1.2c-2.5,0.2-5-2.6-5.5-4.9
		c-0.1-0.5,0-1.1,0.2-1.5c0.4-1,0.7-2.1,1.4-2.8c2.1-2.4,3.8-5.2,6.2-7.2c8.2-7,17.3-12.2,27.7-15.2c2.2-0.6,4.5-0.2,6.7-1.1
		c4,0.2,7.9-1.2,11.9-0.9c2.5,0.2,5.1,0,7.6,0c2,0,4-0.2,5.9,0.6c0.5,0.2,1.1,0.2,1.6,0.2c3.7-0.3,7.4,0.5,11.1,1
		c4.7,0.7,9.4,1.8,13.3,4.9c0.7,0.5,1.2,0.9,2,1.3c1.8,1,3,2.6,3.7,4.5c0.7,1.7,1.2,3.5,1.7,5.3c0.7,2.1,2.1,3.7,3.9,4.2
		c2.7,0.8,5.6,0.7,7.8-1.4c1.1-1,2.1-2.1,3.1-3.1c4.2-4.2,9.1-7.3,14.9-8.9c1.3-0.3,2.6-0.7,3.9-0.7c3.5,0,6.9,0.1,10.4,0
		c4.3-0.1,7.6,2.2,10.6,4.9c1.4,1.3,1.8,3.2,2,5.1c0.2,1.7,0.6,3.1,1.8,4.2c0.5,0.5,0.7,1.3,1.1,2c0.9-0.1,1.3-0.8,1.9-1.3
		c1.4-1.4,2.8-2.8,4.7-3.7c0.5-0.2,0.9-0.5,1.3-0.8c5.3-5.2,12.2-7.6,19.1-9.4c4.3-1.2,8.8-1.7,13.2-2.4c0.7-0.1,1.3-0.1,2,0
		c6.9,1.1,13.8,2.2,20.6,4.6c3.7,1.2,7.7,2.1,11.3,3.7c1.4,0.7,2.8,0.3,4.3,0.1c5.4-0.9,10.5-2.7,15.7-4.4c2.5-0.8,4.9-2,7.7-1.7
		l0,0l0,0l0,0l0,0l0,0c-0.2,0.5-0.4,0.8-0.7,1.2c-0.3,0.3-0.7,0.6-1.1,0.8c-2.7,1.6-4.6,4-6.7,6.2c-0.4,0.4-0.7,1.1-0.9,1.7
		c-0.1,0.2,0.1,0.5,0.2,0.7c0.2,0.2,0.5,0.2,0.7,0.2c1.7-0.7,3.4-1.5,5.1-2.3c2.8-1.5,6-2.2,9.1-2.9c1-0.2,2.1-0.5,3.1-0.7
		c5.2-1.1,10.3-2.2,15.6-3.2c1.4-0.2,2.9-0.2,4.4-0.2c2.5,0,5.1,0,7.6,0c4.2,0,8.2,0.8,12,2.5c2.7,1.2,5.4,2.2,8.1,3.4
		c1.2,0.5,2.2,1.3,3.4,2c4.4,2.4,8.7,5.1,12.6,8.3c0.3,0.2,0.7,0.5,0.5,0.9c-0.2,0.2-0.7,0.4-1,0.3c-3.1-1-6.3-0.9-9.5-0.7
		c-5.5,0.4-11.1,0.7-16.5,2.1c-4.5,1.2-9.2,1.7-13.5,3.4c-3.3,1.2-6.2,3-7.7,6.5c-1.2,2.8-0.9,5.7-0.3,8.6c0.4,2.1,1.3,4,2.6,5.8
		c2.9,4.2,5.5,8.7,7.8,13.4c0.9,1.9,2.1,3.7,3.1,5.6c2.4,4.2,2.5,8.7,1.7,13.2c-0.3,1.7-0.3,3.3,0,5.1c0.3,1.5,0.2,3.2,0.2,4.7
		c0,0.6-0.6,0.9-1.2,0.7c-2.2-0.9-4.4-1.8-6.6-2.8c-3.7-1.7-7.6-2.2-11.7-0.9c-2.7,0.8-5.4,1.2-8.2,1.8c-0.4,0.1-0.7,0.3-0.6,0.8
		c0.1,0.2,0.3,0.4,0.5,0.5c1.4,0.3,2.8,0.7,4.2,0.9c1.3,0.2,2.7,0.6,3.7,1.5c3.2,3.2,7.4,5.2,10.9,8c2.4,1.9,4.9,3.7,7.1,5.8
		c0.8,0.8,1.8,1.5,2.7,2.3c4.2,3.8,8.2,7.9,10.8,13.1c0.9,1.9,1.5,4,2.2,6c0.4,1,0.4,2.1,0.1,3.1c-0.4,1.7-0.8,3.4-1.2,5.2
		c0.3,0.2,0.6,0.5,0.9,0.7c1.1,0.8,2.1,1.7,3.2,2.3c2.6,1.5,5.3,1.5,8,0.2c0.9-0.5,1.8-1.1,2.7-1.7c1.4-1.1,2.7-2.2,4.6-2.3
		c0.8-0.1,1-0.7,1.2-1.4c0.3-1.1-0.1-2.1-0.4-3.1c-1.1-3.3-2.5-6.5-4.2-9.5c-3.7-6.3-6.8-12.9-10.8-19.1c-0.8-1.3-1.7-2.7-2.4-4.2
		c-1.6-2.8-2.7-5.7-3.2-9c-0.7-4.7-1.5-9.5-2.1-14.2c-0.5-4.2-0.5-8.5-0.2-12.7c0.1-0.8-0.1-1.9,1.3-2.5c0.3,1.9,0.7,3.7,0.9,5.5
		c0.7,4.3,1.8,8.6,3.4,12.7c1.3,3.4,3.3,6.3,6,8.8c3.7,3.6,7.4,7.3,10.9,11.1c4.1,4.4,8,9,11.3,13.9c3.2,4.7,6,9.8,7.4,15.4
		c1.8,7,3.4,14,4.2,21.1c1.2,10.7,1.5,21.5,1.7,32.3c0.1,4.7,0.2,9.3,0.4,14c0.2,6.9,0.8,13.8,0.9,20.7c0.1,9.7-0.1,19.5-0.2,29.1
		c-0.1,8.8-0.5,17.6,0.3,26.4c0.7,8.2,2.2,16.3,5.9,23.9c2.4,4.9,4.2,10.1,6.1,15.2c4.2,11.4,9.5,22.2,14.4,33.3
		c0.6,1.3,1.4,2.6,2.1,3.9c4.3,9,11.8,14.9,20,20.1c2,1.3,4.3,2.2,6.7,2.4c3.3,0.3,5.4-0.9,6.3-4.2c0.4-1.7,0.7-3.4,0.9-5.1
		c0.7-6.7-0.4-13.2-2.5-19.6c-2.4-7.2-4.5-14.5-5.8-22c-1.5-8.2-2.5-16.6-1.2-25.1c0.8-6.2,2.4-12,5.7-17.3
		c2.2-3.7,4.3-7.3,6.7-10.9c1.6-2.5,3.2-4.9,5.1-7.2c5.4-6.4,10.8-12.8,16.5-19.1c4.4-4.8,8.6-9.7,12.7-14.9
		c5.4-7,6.4-6.3,12.2-19.1c2.7-5.8,5.5-11.5,7.6-17.6c0.6-1.7,1.3-3.5,2-5.2c6.1-16.1,8.7-32.6,7.7-49.7c-0.4-6.7-2.2-13.2-6-18.8
		c-4.4-6.7-10.1-12.4-17.2-16.4c-4.5-2.6-9.2-4.7-14.2-6.2c-11-3.2-20.8-8.8-29.7-16c-4.8-3.9-9.4-8.2-14-12.5
		c-2.5-2.3-4.8-4.9-7.2-7.6c-5.6-6.4-11.1-13-16.6-19.5c-2.8-3.4-5.9-6.5-9.4-9.2c-8.7-6.7-17.2-13.4-26.3-19.5
		c-10.7-7.2-22.8-10.7-35.5-12.5c-5.8-0.8-11.7-1.1-17.5-1.5c-10.9-0.7-21.8-1-32.4,2.7c-4.7,1.7-9.4,1.2-14-0.9
		c-2.7-1.2-5.6-2.6-8.4-3.7c-6.2-2.5-12.7-3.8-19.5-3.5c-3.8,0.2-7.7,0.7-11.4,1.7c-4.4,1.1-8.7,2.2-13.2,3.3c-4.2,1.1-8.6,2-13,2.2
		c-8.1,0.5-16-0.2-23.8-2.2c-5.7-1.4-11.5-2.1-17.4-2.3c-6.9-0.3-13.5,0.6-19.8,3.5c-7.6,3.5-15.2,3.2-22.9,0.2
		c-4.1-1.7-8.2-3.2-12.2-4.8c-3.3-1.3-6.8-2.2-10.4-2.8c-8.9-1.7-18-2.4-27-2.7c-8.4-0.3-16.8,0.3-24.9,3
		c-10.4,3.4-20.4,7.7-29.6,13.9c-3,2-6,4-8.8,6.2c-6.2,4.8-13,8.3-20.2,11.1c-6.2,2.3-11.7,5.6-16.7,9.9c-2.2,1.9-4.4,3.8-6.6,5.8
		c-3.8,3.6-7.5,7.2-11.3,10.7c-8.1,7.7-17.5,13.5-27.6,18c-6.3,2.8-12.7,5.5-19.1,8.2c-8.7,3.7-16.9,8.4-25.1,13.2
		c-1.4,0.8-2.7,1.7-3.9,2.7c-8.4,6.9-17.6,12.5-27.5,16.8c-1.6,0.7-3.1,1.6-4.6,2.4c-3.2,1.8-6,3.9-8.7,6.3c-2.1,1.9-4,3.9-5.3,6.4
		c-4.7,8.5-6.7,17.6-6,27.3C146.2,215.9,147,219,147.8,222.1z M445.1,259c0.1,0.4,0.1,0.8,0.1,1.2c-0.4,3.8-0.4,7.7-2,11.2
		c-0.8,1.8-1.4,3.7-1.7,5.7c-0.5,3.2-1.7,6.2-2.6,9.2c-0.4,1.6-1.3,2.9-2.4,4.1c-3.4,3.5-7.3,5.6-12.5,5.2
		c-8.5-0.7-16.3-3.1-22.6-9.2c-1.8-1.7-3.5-3.7-5.7-5.1c-0.9-0.6-1.5-1.5-1.9-2.5c-0.9-2.6-2.7-4.5-4.7-6.3
		c-0.7-0.7-1.5-1.5-2.2-2.3c-0.4-0.5-0.7-1.1-0.7-1.8c-0.1-0.8,0.6-1.6,1.4-1.6c1.6,0.1,3.1,0.7,4.5,1.4c2,0.9,4,1.2,6.2,0.6
		c2.2-0.7,4.6-0.7,6.7-0.2c2.9,0.8,5.6,0,8.2-0.6c4-1,7.7-2.7,11.2-5.1c3-2.2,6.2-4.2,9.2-6.2c1.2-0.7,2.3-1.7,3.8-2.1
		C441,253.4,444.4,255.2,445.1,259z M354.5,231.4c1.8-3.5,3.7-7.1,5.4-10.7c0.6-1.2,1.5-2.2,2.5-3.1c4.1-3.4,8.2-6.8,12.8-9.4
		c2.9-1.7,5.7-3.4,8.7-5c5.3-2.8,10.8-5,17-5.4c3.7-0.2,7.2,0.2,10.6,1.5c1.5,0.6,3,1.1,4.5,1.5c5.9,1.7,11.5,4.2,16.7,7.4
		c3.1,1.9,5.6,4.5,7.7,7.5c0.4,0.6,0.7,1.1,1,1.7c0.4,1,0.9,2,0,3c-0.7,0.7-1.7,0.4-3.1-0.8c-0.5-0.4-0.9-0.9-1.4-1.4
		c-2.1-2.1-4.6-3.2-7.5-2.9c-0.1,1.2,0.9,1.7,1.5,2.3c1.5,1.7,3.2,3.2,4.7,4.9c2,2.4,2.6,5.1,1.6,8.2c-1.1,3.2-1.7,6.4-2.7,9.6
		c-1.9,6.3-5.7,11.3-10.8,15.5c-2.7,2.2-6,2.7-9.2,3.2c-0.8,0.2-1.6-0.2-2-1.1c-0.4-0.7-0.4-1.6,0.1-2.2c1.1-1.3,2.2-2.7,3.3-4
		c0.2-0.3,0.3-0.7,0-1c-0.2-0.1-0.5-0.2-0.7-0.1c-4.8,2.2-10.2,2.2-15.2,2.3c-7.5,0.2-14.7-1.2-21.7-4.2c-0.2,0.5-0.5,0.9-0.2,1.5
		c0.7,1.2,1.7,2.1,2.8,2.7c0.7,0.4,1.8,0.5,2.2,1.7c-5.4,0.5-10.5,0.7-14.9-3.2s-8.5-8.1-11.2-13.4c-0.6-1.2-1.3-2.3-2.1-3.4
		C354,233.6,353.8,232.7,354.5,231.4z M705.5,112.9c0.1-0.2,0.2-0.5,0.4-0.6s0.6-0.1,0.7,0.1c0.7,0.7,1.4,1.6,2.1,2.3
		c0.7,0.7,1.5,1.4,2.5,2c3.9,2.2,7.8,4.5,11.7,6.7c0.6,0.3,1.1,0.7,1.7,1c5.2,1.9,9.9,5.1,14.7,8c4.7,2.9,9.2,6.3,13.2,10.1
		c1.2,1.1,2.6,1.9,3.7,3c2.1,2,4.2,4.1,5.8,6.5c1.3,1.9,3.1,3.7,4.6,5.5c4.4,5.4,7.8,11.4,9.6,18.1c0.6,2.2,0.2,4.7,0.4,7.2
		c0.2,3.7-0.3,7.4-1.7,10.9c-0.2,0.5-0.3,1-0.6,1.5c-0.7,1.5-1.7,2.7-3.5,2.8c-2.2,0.1-3.9-0.7-4.8-2.8c-1-2.2-2.1-4.3-3-6.5
		s-1.8-4.4-3.7-6.1c-0.4-0.3-0.8-0.7-1-1.2c-0.7-2.2-2.5-3.3-4.2-4.7c-3.1-2.3-6.1-4.7-8.9-7.2c-1.2-1.1-2.7-1.7-3.9-2.7
		c-2.1-1.7-4.3-3-6.2-5.1c-1.1-1.2-2.5-2-3.8-2.9c-2.2-1.6-4.5-3.2-6.8-4.8c-2.6-1.7-4.3-4.2-6.2-6.7c-2.9-4-5.7-8-6.8-12.9
		c-0.4-1.6-0.7-3.2-0.2-4.7c0.7-1.7,0.2-2.8-1.1-3.8c-3.7-3.1-4.2-7.5-4.8-11.8C705.5,113.7,705.5,113.2,705.5,112.9z M688.7,129.5
		c0-0.2,0.2-0.5,0.5-0.6c0.2-0.1,0.6,0.1,0.7,0.2c1.1,2,2.4,3.9,3.2,6c1.3,3.6,3.2,6.7,5.7,9.6c1.7,2.2,3.4,4.4,4.8,6.8
		c1.8,3.1,4.1,5.9,6.5,8.6c3,3.2,5.8,6.6,8.2,10.3c1.9,3.2,5.1,5.1,8.2,6.9c3.8,2.2,7.7,4.3,11.5,6.5c3.7,2.1,7.1,4.7,9.9,8
		c1.4,1.6,2.8,3.2,4.4,4.6c8.2,7.4,13.1,16.7,15.4,27.4c1.7,7.8,3,15.7,2.4,23.7c0,0.4-0.1,0.7,0.7,1.2c3.5-2.1,7.1-4.3,9.2-8.1
		c1.2-2.1,2.3-4.2,3.5-6.2c1.1-1.9,1.6-3.9,2-6c0.9-4.3,1.7-8.6,0.8-13.1c-0.5-2.5,0.5-4.7,1.5-6.9c0.9-2,3.5-2.6,5.5-1.7
		c2.1,0.8,3.4,2.5,4.4,4.4c2,3.7,3.2,7.7,3.3,11.8c0.1,1.8,0,3.7-0.2,5.6c-2.2,13-5.4,25.8-10.6,38c-4.3,10.2-10.7,19-19.1,26.2
		c-5.1,4.3-9.7,9.2-13.8,14.4c-6.1,7.5-10.6,16-13.7,25.1c-2,5.9-3.6,12-4.4,18.2c-0.2,1.2-0.2,2.3,0,3.6c0.5,3.6,1,7.1,1.4,10.7
		c0.7,5.6,2.3,10.9,4,16.2c1,3.3,2.1,6.6,3.1,9.9c0.2,0.9,0.5,1.8,0.7,2.7c0.1,0.3,0,0.8-0.2,1.1c-0.3,0.2-0.7,0.1-1.1-0.2
		c-1.2-1.6-2.5-3.1-3.6-4.7c-5.7-8.7-10.7-17.8-16-26.7c-4.7-7.8-8.3-16.1-10.7-24.8c-0.6-2.1-1.2-4.1-1.7-6.2
		c-0.7-3-1.7-5.8-3.1-8.7c-1.7-3.7-3.2-7.6-4.1-11.7c-1.2-5.7-1.1-11.4,0.1-17.1c1.8-9,3.6-18,5.3-27.1c1.7-8.8,2.3-17.6,2.3-26.6
		c0.1-11.3-0.3-22.6-1.7-33.9c-1.2-10.2-3.7-20.1-7.8-29.6c-1.5-3.4-3-6.8-4.5-10.2c-0.7-1.6-1.5-3.1-2.5-4.5
		c-2.6-3.6-4.6-7.5-5.9-11.7c-1.2-4.1-2.6-8.1-4.1-12.1C688.1,135.8,688.5,132.7,688.7,129.5z M193.8,172.4c2.5-3.6,5.7-6.7,9.2-9.3
		c4.7-3.7,9.8-6.7,15.2-9.3c3.5-1.7,6.8-3.5,10-5.7c2.7-2,5.7-3.4,8.9-4.3c3.2-0.8,6.2-2.3,8.9-4.3c2.5-1.8,5.2-3.2,7.8-4.7
		c2.8-1.7,5.5-3.7,8.2-5.6c1.2-0.8,2.3-1.7,3.6-2.5c0.3-0.2,0.8-0.3,1,0.2c0.1,0.3,0,0.8-0.2,1.1c-1.3,1.7-2.7,3.2-4.2,4.8
		c-5.4,6-9.9,12.8-16.2,18c-1.5,1.2-2.3,2.8-2.7,4.7c-1.2,5.3-4,9.8-7.7,13.7c-1.8,2-3.2,4.2-4.5,6.5c-3.8,7.3-7.2,14.7-9.6,22.7
		c-0.2,0.9-0.6,1.7-1.1,2.6c-2.2,4.1-3.9,8.4-5.3,12.8c-0.4,1.4-1.1,2.7-2.2,3.7s-2.5,1.6-4.1,1.5c-1.5,0.2-2.7-0.5-4.1-1.2
		c-2.1-1.2-4.1-2.3-6.3-3.3c-2.7-1.2-4.9-3.2-6.2-6c-0.1-0.2-0.2-0.5-0.3-0.7c-3.7-3.8-3.8-8.8-4-13.7c0-1.1,0-2.2,0-3.2
		C187.7,183.8,189.9,177.8,193.8,172.4z M174.9,218.6c0.4-1.2,0.7-2.6,1.6-3.7c1.2-1.5,2.7-2.2,4.5-2.1c2,0.2,3.4,1.4,4.1,3.3
		c0.5,1.4,0.5,2.9,0.6,4.3c0.2,3.9,1,7.7,2.3,11.3c1.3,3.7,3.5,6.8,6.7,9.2c1.1,0.8,2.2,1.5,3.2,2.4c5,4.7,11.3,6.2,17.8,7.4
		c6.1,1.2,10.9-1.2,15.2-5.2c0.5-0.4,0.8-1,1.3-1.5c1.6-1.4,2-3.2,2.2-5.3c1.2-13.7,3-27.2,5.5-40.7c0.8-4.2,2.1-8.2,3.7-12.2
		c2.5-5.9,5.1-11.7,7.5-17.6c2.5-6.1,6.2-11.4,10.2-16.7c1.9-2.4,4.2-4.4,7-5.8c1.4-0.7,2.7-1.6,4.2-2.3c0.6-0.2,1.1-0.8,1.8-0.3
		c0.2,0.7-0.4,1.2-0.8,1.7c-1.4,1.8-2.5,3.7-2.8,6.1c-0.2,1.3-0.9,2.5-1.5,3.7c-5.6,11-9.6,22.6-11.9,34.6
		c-2.7,14.5-1.8,28.9,2.6,43c4.2,13.5,8.4,26.9,14.2,39.8c2.8,6.2,5,12.7,6.6,19.2c1.6,6.6,1.1,13.2,0.6,19.9
		c-0.1,1.3-0.3,2.7-0.5,4c-1,6.7-3.6,12.9-8.5,17.7c-5.8,5.7-10.1,12.3-13.8,19.5c-3.7,7-8.3,13.3-13.7,19.1c-1.9,2-3.9,4-6,5.8
		c-5.2,4.3-10.2,9-14.8,13.9c-1.4,1.5-3,2.7-5.1,2.8c-4.7,0.5-8.3-3.1-7.7-7.8c0.1-0.9,0.3-1.8,0.7-2.7c2.3-4.9,3.2-10.2,4.2-15.4
		c1.8-11.1,2.2-22.2,1.7-33.5c-0.2-3.1-0.6-6.1-0.8-9.2c-0.2-1.7-0.8-3.1-1.7-4.5c-1.3-2.3-2.9-4.4-4.7-6.4
		c-5.1-5.4-8.7-11.8-11.2-18.7c-1-2.7-2.3-5-4.4-7c-1.1-1-2-2.2-3-3.2c-3.1-3.2-5.5-6.8-7.3-10.8c-1.7-3.7-3.7-7.4-5.4-11.2
		C172,249.4,170.2,234.2,174.9,218.6z"/>
	<path class="st4" d="M622.3,406.3c-2.2,1.1-3.7,2.7-4.7,5.2c-1.2,2.7-2.6,5.2-3.9,7.9c-1.7,3.3-3.9,6.4-6.4,9.1
		c-3.4,3.6-6.7,7.2-10.7,10.2c-1.8,1.3-3.2,3.1-4.3,5.2c-1.5,2.7-3.2,5.6-5.2,8c-0.7,0.8-1.4,1.6-2.1,2.2c-0.8,0.7-1.7,1.4-2.6,2.1
		c-2.7,1.8-5.7,3-9.3,3.2l0.1,0.1c0.3,0.2,0.6,0.5,0.9,0.7c0.1,0,0.1,0.1,0.2,0.1c0.6,0.5,1.2,1,1.8,1.4l0.1,0.1
		c0.3,0.2,0.6,0.4,0.9,0.7c0.9,0.7,1.8,1.2,2.8,1.7c0.1,0.1,0.2,0.2,0.3,0.2c1.4,0.7,2.9,1.4,4.4,1.9c0.4,0.1,0.7,0.2,1.2,0.3
		c0.8,0.2,1.6,0.4,2.4,0.5c0.8,0.1,1.7,0.2,2.6,0.2h0.1c3.9-3.7,7.2-8,9.7-12.7c1.6-2.9,2.9-6,4.2-9.1c1.7-3.8,3.9-7.2,7.2-9.9
		c3.3-2.7,5.6-6,7.5-9.7c1.2-2.4,2-4.9,1.9-7.7c-0.1-1.8,0.1-3.7,0.2-5.6C621.5,410.4,621.9,408.3,622.3,406.3z"/>
	<path class="st4" d="M686.9,623.4l2.1-2.4l1-1.2c0.3-0.4,0.7-0.7,1.1-1.2l2.2-2.3c0.7-0.7,1.5-1.5,2.2-2.2c1.4-1.5,3-3,4.5-4.4
		l0.6-0.6l0.6-0.5l1.2-1.1c0.7-0.7,1.6-1.4,2.3-2.1l0.2-0.2c-0.2-7.5-1.7-14.8-4-22.1c-1.7-5.6-3.2-11.2-4.9-16.8
		c-0.4-1.5-1-3-1.5-4.5c-0.2-0.3-0.3-0.8-0.7-0.7c-0.3,0.1-0.7,0.4-0.8,0.7c-1.4,2.5-2.8,5.1-4.3,7.7c-2.6,4.5-5.9,8.5-9.7,12.2
		c-2.2,2.2-4.8,2.6-7.7,2.2c-1.9-0.2-3.7-2.2-3.7-4.1c-0.1-1.8-0.2-3.7,0.2-5.6c0.9-4.9,2-9.8,3.1-14.7c1.4-6.6,3.2-13.2,4-19.8
		c0.1-0.7,0.4-1.5,0.6-2.3c1.1-6.1,1.2-12.1,0.3-18.2c-0.5-3.7-0.5-7.4,0.2-11.2c0.2-1,0.2-2.1,0.4-3.1c-0.6-0.1-1.2-0.1-1.7-0.1
		c-2,0.1-4,0.2-6,0.2s-3.6,0.8-5,2.2c-3.7,3.5-7.2,7.2-10.2,11.2c-7.5,10.2-13.8,21.2-19,32.8c-1,2.2-1.6,4.5-2.5,6.7
		c-0.7,1.7-0.3,3,0.6,4.5c3.3,5.3,5.9,11.1,7.9,17c3.4,10.2,4.9,20.5,1.8,31c-0.3,1.2-0.5,2.3-0.4,3.6c0.2,2.9,0.4,5.8,0.6,8.7
		c0,0.4,0.2,0.8,0.7,0.8c0.2,0,0.5-0.1,0.7-0.2c2.3-2.4,4.5-4.8,6.5-7.6c1-1.4,2.1-2.8,3.2-4.2c0.7-0.8,1.2-1.6,1.9-2.4
		c0.6-0.7,1.2-1.3,2.2-1.7c0.3-0.2,0.7-0.2,0.9-0.3c0.9-0.2,1.7-0.2,2.1,0.4c0.3,0.4,0.6,1,0.7,1.7c0,0.4,0,0.7-0.1,1.2
		c0,0.3,0,0.7,0,1c0,2.7,0,5.3,0,8c-0.2,6.2,0.7,12.4,1.4,18.6c0.6,5.3,1.6,10.5,2.7,15.7c1.2-1.7,2.2-3.2,3.4-4.9
		c0.7-1,1.3-1.9,2-2.9c0.2-0.3,0.4-0.7,0.7-1.1c0.7-1.1,1.4-2.1,2.2-3c0.1-0.1,0.1-0.2,0.2-0.2c3.1-4.4,6.2-8.8,9.6-13.1
		C684.2,626.5,685.6,625,686.9,623.4z"/>
	<path class="st4" d="M377.9,248.7c-0.1,0.1-0.1,0.2-0.2,0.2C377.8,248.9,377.9,248.8,377.9,248.7L377.9,248.7z"/>
	<path class="st4" d="M535.3,640.2c-2.8,1.2-5.2,3.2-7.5,5.2c-3.2,3-6.6,5.7-10,8.5c-3.2,2.5-5.4,5.8-7.9,9
		c-0.6,0.7-1.2,1.5-1.7,2.3h15.4c0.4-0.6,0.9-1.2,1.3-1.7c0.5-0.6,1-1.3,1.7-1.7c1.9-1,2.7-2.8,3.8-4.4c1.2-1.7,2.2-3.7,3.4-5.4
		c2.2-3.1,2.7-6.6,3.1-10.2c0-0.2,0-0.2,0-0.4C537,640.1,536.4,639.7,535.3,640.2z"/>
	<path class="st4" d="M506.4,632.9c-6.9,0-13.8,0.1-20.8,0c-11.1,0-22.1-1.2-32.8-4.2c-4.2-1.2-8.4-2.5-12.2-4.8
		c-5.7-3.7-11.3-7.6-16.1-12.4c-0.2,0.7-0.6,1.6-1.1,2.3c-2.2,4.2-5.2,7.7-8.2,11.2c-2.3,2.7-5.2,4.9-8.2,6.8
		c-0.8,0.6-1.9,1-2.9,1.2c-2,0.4-3.4-1.2-3.2-3.2c0.3-3.4,1.2-6.7,1.2-10.2c0-0.3,0-0.9-0.5-0.9c-0.3,0-0.7,0.2-1,0.5
		c-1.2,1.4-2.4,2.8-3.5,4.3c-2.7,3.7-6.3,6.8-8.6,10.9c-4.4,7.9-9.3,15.5-12.2,24.1c-0.7,2.2-1.4,4.3-1.8,6.5H503
		c-0.2-0.6-0.3-1.1-0.6-1.7c-0.7-1.5-0.5-3-0.2-4.7c1.1-7.5,3.6-14.7,5.3-22c0.3-1.3,0.4-2.5,0.2-3.8
		C507.3,632.9,506.9,632.9,506.4,632.9z"/>
	<path class="st4" d="M591.3,83L591.3,83L591.3,83L591.3,83C591.3,83.1,591.3,83,591.3,83z"/>
	<path class="st4" d="M591.2,83.3c0,0,0.1-0.2,0.2-0.2C591.2,83.1,591.1,83.1,591.2,83.3C591,83.2,591,83.3,591.2,83.3z"/>
	<path class="st4" d="M591.3,83.1L591.3,83.1C591.3,83.1,591.3,83,591.3,83.1C591.3,83,591.3,83.1,591.3,83.1L591.3,83.1z"/>
	<path class="st4" d="M912.2,638.4c-2.4-4.8-5.3-9.3-8.7-13.5s-7.2-8-11.4-11.3s-8.7-6.2-13.6-8.6l0,0l-7.1-3.2
		c-0.7-0.7-1.5-1.3-2.2-2c-1.7-1.5-3.7-2.9-5.7-4.1c-8.4-4.7-17.8-7.3-27.2-8.9c-4.7-0.7-9.5-1.3-14.3-1.6c-3.2-0.2-6.3,0-9.5-0.5
		c-3.4-0.5-6.7-2.1-10.1-2.3c-1.3-0.1-2.7,0-4,0.2c-11,1.2-22,2.7-32.6,6c-5.3,1.6-10.5,3.6-15.5,6.2c-4.7,2.4-9,5.8-14,7.8
		c-1.2,0.5-2.4,1-3.6,1.5c-25.3,10.9-48,32.2-56.8,58.8l0,0c2.3-0.5,5,0.4,6.8-1.1c0.7-0.6,1.2-1.5,1.6-2.3
		c4.1-8.8,8.1-17.9,15-24.7c8.5-8.4,21.8-11.7,31.8-4v-0.1c0.1,0.1,0.1,0.2,0.2,0.2c0.6,0.5,1.2,0.9,1.7,1.5l0.1,0.1
		c0.2,0.2,0.3,0.3,0.6,0.5c0.7,0.6,1.2,1.2,1.8,2c0.1,0.2,0.2,0.2,0.3,0.4c-0.8,0-1.7,0-2.6,0.2c-1.8,0.2-3.6,0.7-5.3,1.2
		c-3.4,1.2-6.6,3.2-9.6,5.2c-0.7,0.5-1.5,1.1-2.2,1.6l-1.1,0.8l-2,1.5l-1.1,0.8c0,0,1.1-0.2,1.2-0.3c5.2-1.4,10.5-1.4,15.5,0.9
		c0.4,0.2,0.8,0.4,1.2,0.6c0.4,0.2,0.7,0.4,1.2,0.7c0.7,0.5,1.4,1.1,2.2,1.6c1.3,1.2,2.5,2.5,3.6,3.9c1.2,1.6,2.2,3.3,3,5.2l0,0
		c-0.2,0.5-0.2,1-0.4,1.5c-0.1,0.3-0.2,0.6-0.2,0.9c0,0.1,0,0.1,0,0.2c-0.1,0.6-0.2,1.2-0.2,1.7c0,0.2,0,0.2,0,0.4s0.1,0.2,0.1,0.4
		c0.1,0.2,0.1,0.5,0.2,0.8c0-0.1,0-0.1,0-0.2c0,0.1,0,0.1,0,0.2v0.1v-0.1c0.2,1,0.4,1.9,0.6,2.9c0.2,1.2,0.5,2.2,0.7,3.4
		c1.4,2.3,2.9,4.7,3.8,7.3c0.1,0.2,0.2,0.5,0.2,0.7c0,0.1,0,0.2,0.1,0.2c0.1,0.2,0.2,0.5,0.2,0.7c0,0,0,0,0,0.1
		c0.1,0.2,0.1,0.5,0.2,0.7c0,0.1,0,0.2,0.1,0.2c0.1,0.2,0.1,0.4,0.1,0.7c0,0.1,0,0.1,0,0.2c0,0.2,0.1,0.5,0.1,0.7c0,0.1,0,0.2,0,0.2
		c0,0.2,0,0.3,0.1,0.6c0,0.1,0,0.2,0,0.3c0,0.2,0,0.4,0.1,0.6c0,0.2,0,0.2,0,0.4c0,0.1,0,0.2,0,0.4s0,0.5,0,0.8c0,0.1,0,0.1,0,0.2
		c0,0.2,0,0.4,0,0.6c0,0,0,0,0,0.1c0,0.4,0,0.7,0,1.2c0.2,0.2,0.3,0.4,0.4,0.6c0.7,0.9,1.5,1.8,2.2,2.7c0.4,0.4,0.7,0.8,1.2,1.2
		c3.2,2.8,6.6,5.4,10.9,6.4c6.7,1.5,13.7-0.7,20.5-0.1c1.3,0.1,2.7,0.3,3.9-0.2c2.4-1,3.8-4.7,5.1-6.8c1.9-3.2,3.4-6.6,4.7-10.1
		c2.5-6.6,4-13.6,4.5-20.6c0.8-11.2-1.2-22.4-5.6-32.6c-2.2-5.1-5-10-8.2-14.5s-7-8.7-11.2-12.4c-0.5-0.5-1-0.9-1.6-1.4l-2.7-2.3
		l-0.1-0.1c0,0-0.1,0,0,0h0.2l0.2,0.1l0.5,0.1l1,0.2l1.6,0.3l0.5,0.1l0.5,0.2l1,0.3c2.7,0.8,5.3,1.9,7.8,3.2
		c23.1,12.1,33.1,36.5,34.6,61.3c0,0.2,0,0.3,0,0.5c0,0.7,0.1,1.5,0,2.2c0,0.7,0,1.4-0.1,2.1c-0.1,0.7-0.1,1.3-0.2,1.9
		c0,0.1,0,0.2,0,0.2c-0.1,0.4-0.2,0.9-0.2,1.3c-0.1,0.3-0.2,0.9-0.2,1.2c-0.1,0.3-0.1,0.6-0.1,0.9c-0.6,4.1-2,8.2-3.3,12.1
		c-1.4,4.2-3.8,8.2-2.1,12.7c3.7,9.3,11.9,12.2,21,13.7c1.2,0.2,2.4,0.3,3.6,0.5c1.5,0.2,3,0.4,4.5,0.5c1.7,0.2,3.5,0.3,5.2,0.6
		c0.3,0,0.7,0.1,1,0.1s0.6,0.1,0.9,0.1c0.7,0,1.2,0,1.9,0c0-0.1,0-0.2,0-0.2c0.7-3.5,2.7-6.6,4.2-9.7c7.7-14.8,10.6-32.6,8.2-49.5
		c-2.2-15.7-11.1-30.2-22.1-41.4c-1.1-1.1-2.2-2.5-2.1-4c3.8,1,8,4.2,11.4,6.4c4.2,2.6,8.2,5.3,12,8.5c6.8,5.7,13.3,13.1,14.7,22.2
		c2.7,17.4,7.5,18.5,5.2,36c-0.6,4.7-3.4,8.9-4.4,13.6c-1.3,6.5-1.7,12.6-4.2,18.8c-0.2,0.4-0.4,0.7-0.5,1.2s-0.3,3.7-1.2,3.4
		c3.2,1.1,18.3,4,19.1-1.4l0.4-3.1l3.7-21c3.7-20.7,4.2-41.3-5.2-60.6c-2-4.2-5.5-12-8.2-14.4c0.3,0.3,0.7,0.6,0.9,0.9
		c5.2,4.9,9.9,9.5,13.7,15.5c4.4,7.1,8.3,15,11.2,22.7c0.2,0.6,0.4,1.2,0.7,1.9c0.8,2.5,1.5,5.1,2.1,7.7c1.1,5.2,1.6,10.4,1.7,15.6
		c-0.1,5.2-0.7,10.4-1.8,15.5c-0.3,1.6-0.7,3.1-1.2,4.6c0.5-0.1,0.9-0.2,1.3-0.4c1.3-0.5,2.4-1.4,3.3-2.5c0.9-1,1.7-2.2,2.3-3.4
		c0.7-1.2,1.2-2.5,1.6-3.7c0.2-0.7,0.4-1.3,0.6-1.9C922,673.9,920.3,654.7,912.2,638.4z M742.6,599.1
		C742.6,599.1,742.7,599.1,742.6,599.1c0.1-0.1,0.2-0.1,0.2-0.2C742.8,599.1,742.7,599.1,742.6,599.1z"/>
	<path class="st4" d="M254.5,604c-1.2-0.5-2.3-1-3.6-1.5c-5-1.9-9.2-5.4-14-7.8c-5-2.5-10.2-4.5-15.5-6.2c-10.6-3.2-21.6-4.8-32.6-6
		c-1.3-0.2-2.7-0.2-4-0.2c-3.5,0.2-6.7,1.8-10.1,2.3c-3.2,0.5-6.3,0.3-9.5,0.5c-4.8,0.2-9.6,0.7-14.3,1.6
		c-9.4,1.6-18.9,4.2-27.2,8.9c-2.1,1.2-3.9,2.6-5.7,4.1c-0.7,0.7-1.5,1.3-2.2,2l-7.1,3.2l0,0c-4.8,2.3-9.3,5.2-13.6,8.6
		c-4.2,3.3-8,7.2-11.4,11.3s-6.3,8.7-8.7,13.5c-8.2,16.2-9.8,35.5-5.1,53c0.2,0.7,0.3,1.3,0.6,1.9c0.4,1.2,0.9,2.6,1.6,3.7
		c0.7,1.2,1.4,2.3,2.3,3.4c0.9,1,2,1.9,3.3,2.5c0.4,0.2,0.9,0.3,1.3,0.4c-0.5-1.5-0.9-3.1-1.2-4.6c-1.2-5.1-1.7-10.2-1.8-15.5
		c0.1-5.2,0.6-10.4,1.7-15.6c0.6-2.6,1.2-5.2,2.1-7.7c0.2-0.7,0.4-1.2,0.7-1.9c2.9-7.7,6.8-15.7,11.2-22.7
		c3.8-6.1,8.7-10.7,13.7-15.5c0.3-0.3,0.7-0.6,0.9-0.9c-2.7,2.4-6.2,10.3-8.2,14.4c-9.3,19.3-8.8,40-5.2,60.6l3.7,21l0.4,3.1
		c0.7,5.5,15.9,2.5,19.1,1.4c-0.8,0.2-1.1-3-1.2-3.4s-0.3-0.8-0.5-1.2c-2.4-6.2-2.8-12.3-4.2-18.8c-0.9-4.7-3.7-8.9-4.4-13.6
		c-2.3-17.5,2.5-18.6,5.2-36c1.4-9.2,7.8-16.5,14.7-22.2c3.7-3.2,7.8-5.9,12-8.5c3.4-2.1,7.6-5.3,11.4-6.4c0.2,1.5-1,2.9-2.1,4
		c-11,11.2-19.8,25.6-22.1,41.4c-2.4,16.9,0.6,34.6,8.2,49.5c1.6,3.2,3.5,6.2,4.2,9.7c0,0.1,0,0.2,0,0.2c0.7,0,1.2,0,1.9,0
		c0.3,0,0.6-0.1,0.9-0.1c0.3,0,0.7-0.1,1-0.1c1.7-0.2,3.5-0.4,5.2-0.6c1.5-0.1,3-0.3,4.5-0.5c1.2-0.2,2.4-0.3,3.6-0.5
		c9.1-1.4,17.3-4.4,21-13.7c1.7-4.4-0.7-8.5-2.1-12.7c-1.3-3.9-2.7-8-3.3-12.1c-0.1-0.3-0.1-0.6-0.1-0.9c-0.1-0.3-0.2-0.9-0.2-1.2
		c-0.1-0.4-0.2-0.9-0.2-1.3c0-0.1,0-0.2,0-0.2c-0.1-0.7-0.1-1.3-0.2-1.9c-0.1-0.7-0.1-1.4-0.1-2.1c0-0.7,0-1.5,0-2.2
		c0-0.2,0-0.3,0-0.5c1.5-24.7,11.5-49.1,34.6-61.3c2.5-1.3,5.2-2.3,7.8-3.2l1-0.3l0.5-0.2l0.5-0.1l1.6-0.3l1-0.2l0.5-0.1l0.2-0.1
		h0.2l0,0l-0.1,0.1l-2.6,2.5c-0.5,0.5-1.1,0.9-1.6,1.4c-4.1,3.7-7.8,7.9-11.2,12.4c-3.2,4.5-6,9.4-8.2,14.5
		c-4.4,10.2-6.5,21.5-5.6,32.6c0.5,7.1,2,14.1,4.5,20.6c1.3,3.5,2.9,6.9,4.7,10.1c1.2,2.1,2.7,5.8,5.1,6.8c1.2,0.5,2.6,0.3,3.9,0.2
		c6.8-0.6,13.8,1.6,20.5,0.1c4.3-1,7.7-3.6,10.9-6.4c0.4-0.4,0.7-0.8,1.2-1.2c0.7-0.9,1.5-1.8,2.2-2.7c0.2-0.2,0.3-0.4,0.4-0.6
		c0-0.4,0-0.8,0-1.2c0,0,0,0,0-0.1c0-0.2,0-0.4,0-0.6c0-0.1,0-0.1,0-0.2c0-0.2,0-0.5,0-0.8c0-0.2,0-0.2,0-0.4s0-0.2,0-0.4
		s0-0.4,0.1-0.6c0-0.1,0-0.2,0-0.3c0-0.2,0-0.3,0.1-0.6c0-0.1,0-0.2,0-0.2c0-0.2,0.1-0.5,0.1-0.7c0-0.1,0-0.1,0-0.2
		c0-0.2,0.1-0.4,0.1-0.7c0-0.1,0-0.2,0.1-0.2c0.1-0.2,0.1-0.5,0.2-0.7c0,0,0,0,0-0.1c0.1-0.2,0.1-0.5,0.2-0.7c0-0.1,0-0.2,0.1-0.2
		c0.1-0.2,0.2-0.5,0.2-0.7c0.9-2.7,2.4-5,3.8-7.3c0.2-1.2,0.5-2.2,0.7-3.4c0.2-1,0.4-1.9,0.6-2.9v0.1v-0.1c0-0.1,0-0.1,0-0.2
		c0,0.1,0,0.1,0,0.2c0.1-0.2,0.1-0.5,0.2-0.8c0-0.2,0.1-0.2,0.1-0.4s0-0.2,0-0.4c-0.1-0.6-0.2-1.2-0.2-1.7c0-0.1,0-0.1,0-0.2
		c-0.1-0.3-0.2-0.6-0.2-0.9c-0.2-0.5-0.2-1-0.4-1.5l0,0c0.9-1.7,1.8-3.5,3-5.2c1.1-1.4,2.2-2.7,3.6-3.9c0.7-0.6,1.4-1.2,2.2-1.6
		c0.3-0.2,0.7-0.5,1.2-0.7c0.4-0.2,0.7-0.4,1.2-0.6c5-2.3,10.2-2.3,15.5-0.9c0.1,0,1.2,0.3,1.2,0.3l-1.1-0.8l-2-1.5l-0.8-1
		c-0.7-0.5-1.5-1.1-2.2-1.6c-3-2.1-6.2-3.9-9.6-5.2c-1.7-0.6-3.5-1.1-5.3-1.2c-0.8-0.1-1.7-0.2-2.6-0.2c0.1-0.2,0.2-0.2,0.3-0.4
		c0.5-0.7,1.2-1.3,1.8-2c0.2-0.2,0.3-0.3,0.6-0.5l0.1-0.1c0.5-0.5,1.1-1,1.7-1.5c0.1-0.1,0.1-0.2,0.2-0.2v0.1
		c10-7.7,23.3-4.4,31.8,4c6.9,6.8,10.9,16,15,24.7c0.4,0.8,0.8,1.7,1.6,2.3c1.8,1.5,4.6,0.6,6.8,1.1l0,0
		C302.4,636.2,279.8,614.9,254.5,604z M244.2,599.1c0.1,0,0.1,0.1,0.2,0.1l0,0C244.4,599.1,244.3,599.1,244.2,599.1z"/>
</g>
</svg>
