<?xml version="1.0" encoding="utf-8"?>
<!-- Generator: Adobe Illustrator 24.0.1, SVG Export Plug-In . SVG Version: 6.00 Build 0)  -->
<svg version="1.1" id="Layer_1" xmlns="http://www.w3.org/2000/svg" xmlns:xlink="http://www.w3.org/1999/xlink" x="0px" y="0px"
	 viewBox="0 0 990 781.2" style="enable-background:new 0 0 990 781.2;" xml:space="preserve">
<style type="text/css">
	.st0{fill:#FFFFFF;}
	.st1{fill:#ACACAB;}
	.st2{fill:#E3B339;}
	.st3{fill:#E3706A;}
	.st4{fill:#DE751D;}
	.st5{fill:#54555A;}
</style>
<g>
	<path d="M233,740.9c-0.4,1.7-0.6,2.8-0.8,3.9c-0.5,3.1-2.4,5.6-4.3,7.9c-0.9,1.1-2.3,1.2-3.8,0.9c-4.8-1.3-9-3.6-12.3-7.4
		c-3.3-3.7-6.6-7.4-9.1-11.7c-0.7-1.2-1.7-1.9-2.8-2.5c-6.4-3.7-10.9-9.1-14.3-15.5c-2.6-4.8-4-10.2-4.4-15.6
		c-0.6-8.8,0.5-17.4,3.3-25.8c1.9-5.7,5-10.6,9.5-14.5c7.4-6.4,15.1-12.7,23.4-17.9c10.2-6.3,21.4-9.6,33.2-10.7
		c8.4-0.8,16.8-0.2,25.1,0.9c3.1,0.4,2.4,0.9,3.5-2.3c3.8-11,5.5-22.5,8.7-33.6c3.2-11,7.3-21.7,13.4-31.4c1.8-2.8,3.3-5.8,4.7-8.9
		c2-4.4,4.1-8.7,6.6-12.7c2.1-3.3,3.2-7.1,3.9-11c0.2-1.2,0.5-2.3-0.7-3.3c-0.6-0.5-0.5-1.4-0.4-2.3c0.5-5.2,1-10.5,1.5-15.8
		c0-0.3,0.1-0.6,0.1-1c0.1-2.3,0.1-2.3-2.3-2.8c-4.3-0.8-6.2-4-4.5-8c2.6-6.1,3.4-12.5,3.5-19c0.1-4.3,0-8.6-0.4-12.9
		c0-0.4,0-0.8-0.3-1.2c-0.8-0.2-1.5,0.3-2.3,0.5c-4.3,1.2-8-1.9-7.4-6.4c0.2-1.6,0.9-3.1,1.6-4.5c0.9-1.8,2-3.6,2.2-5.7
		c-0.7-0.5-1.3-0.2-1.9-0.1c-1,0.1-2.1,0.1-3.1-0.1c-3.9-0.8-5.8-4.6-4-8.1c0.6-1.2,1.5-2.3,2.4-3.3c4.9-5.6,5.9-12.4,5.7-19.5
		c0-0.9-0.5-1.7-0.9-2.5c-5.5-12.2-9.3-25-11.9-38.1c-0.9-4.5-1.2-9-1.3-13.6c-0.1-3.3-0.2-6.7-0.5-10c-0.8-7.7-0.3-15.3,0.8-23
		c0.1-0.6,0.2-1.1,0.2-1.7c0.1-0.9-0.2-1.6-1.1-1.8c-0.3-0.1-0.6-0.2-0.9-0.4c-2.9-1.4-3.6-4.2-1.6-6.7c1.2-1.5,2.5-3,3.9-4.2
		c2.7-2.2,4.3-5,4.8-8.3c0.7-4.8,2.9-8.9,4.8-13.2c-0.6-0.9-1.6-0.6-2.4-0.8c-4.1-1.1-5.3-4.5-2.5-7.8c1.1-1.3,2.4-2.3,3.7-3.4
		c0.6-0.6,1.4-1,1.8-1.8c-0.4-0.7-1-0.7-1.5-0.7c-0.8,0-1.6,0-2.4,0c-2.2-0.2-3.8-1.6-4.1-3.4c-0.4-2,0.7-4,2.6-5
		c0.6-0.3,1.5-0.2,2-1.1c-3.3-1.1-5.2-4.1-8.1-5.8c-1.6-0.9-2-2.7-1.4-4.2c0.6-1.6,1.9-2.3,3.9-2.2c0.5,0,1,0.1,1.4,0.2
		c3.2,0.8,6-0.1,8.4-2.2c0-0.5-0.3-0.9-0.6-1.3c-5.7-8.5-10.1-17.8-14.4-27.1c-1.8-3.9-3.1-8.1-2.4-12.3c0.9-5.2,0.3-10.4,0.1-15.5
		c-0.1-3.6,0.3-7.2,0.5-10.8s-0.3-7.1-1.4-10.6c-2.1-6.6-4.4-13.2-5.4-20.1c-1.7-12.2-2.7-24.5-2.5-36.8c0.4-19.3,3-38.2,7.7-56.9
		c1.1-4.5,2.9-8.8,5.4-12.8c5.5-8.8,13.5-12.5,23.8-11.7c5.8,0.5,11,2.6,15.7,6c12.9,9.2,24.6,19.6,35,31.6
		c7.6,8.7,15.1,17.6,22.7,26.4c7.7,9,14.2,18.9,21.1,28.5c1.6,2.2,3.1,4.4,4.9,6.5c4.1,4.9,8.9,8.9,14.5,12.1
		c6.1,3.4,11.5,7.8,16,13.2c1.7,2,3.9,3,6.5,3.1c2.1,0.1,4.2,0.1,6.2-0.1c15.5-1,31-1.3,46.5-1.1c6.2,0.1,12.5-0.2,18.7-0.3
		c4.2-0.1,8.3,0.4,11.7,3.5c1.6-1.7,2.3-3.6,3-5.5c4.1-10.8,9.1-21.1,14.6-31.3c1.7-3.1,3.5-6.1,5.4-9c24.5-36.9,56.6-65.3,95.7-86
		c6.9-3.7,14-6.9,21.6-9c2.5-0.7,5-1.2,7.5-1.3c4.7-0.2,8.5,1.7,11.6,5.2c4.1,4.9,6.6,10.5,8.3,16.6c2.6,9.5,3.2,19.2,3.1,29
		c-0.2,12.4-1.9,24.5-4.2,36.6c-1.7,8.8-2.5,17.7-3.2,26.6c-0.2,2.7-0.3,5.4-0.6,8.1c-0.7,6.8,0,13.6,0.8,20.3
		c2.1,18,1.4,35.9-3.1,53.6c-2.7,10.4-7.3,19.8-13.9,28.2c-1,1.3-1.2,2.4-0.7,3.9c0.9,2.9,2.4,5.4,4.2,7.8c0.6,0.8,1.2,1.5,1.7,2.4
		c1.6,2.9-0.2,6.4-3.5,6.8c-1.1,0.1-2.2,0.1-3.3,0.2c-0.1,1,0.6,1.4,1,2c1.1,1.5,2.3,2.9,3.3,4.4c1.8,2.7,1.4,5.1-1.1,7.2
		c-1.1,0.9-2.5,1.4-3.8,1.9c-2,0.8-2.1,0.8-1.4,2.8c1.4,4.1,2.7,8.2,4.2,12.2c4,10.5,6.8,21.3,9.1,32.3c0.8,3.8,1.7,7.5,2.5,11.2
		c0.2,0.8,0.5,1.5,0.9,2.2c1,1.6,1.4,3.4,1.5,5.2c0.1,9.3-0.3,18.5-1.7,27.7c-0.4,2.8-0.4,5.6-0.6,8.4c-0.3,8-1.8,15.9-4.5,23.4
		c-1,2.8-1.6,5.7-2.2,8.6c-0.3,1.4-0.3,2.9,0,4.3c1.7,7,4,13.6,7.5,19.9c1,1.8,2.2,3.5,4.1,4.6c1.5,1,2.3,2.4,1.8,4.3
		s-1.9,2.7-3.6,3.1c-0.4,0.1-0.8,0.1-1.2,0.1c-2.6,0.2-2.7,0.3-1.5,2.6c1.2,2.4,2.7,4.5,4.7,6.3c0.6,0.5,1.2,1.1,1.7,1.7
		c2.4,3,1.5,6.8-2.1,8.2c-1.3,0.5-2.8,0.8-4.2,1.1c-0.2,0.8,0.3,1.4,0.6,2c3.5,7.4,7,14.7,11,21.8c1.6,2.8,2.8,5.7,4.1,8.7
		c1.9,4.5,3.8,9,5.7,13.5c2.6,6.1,3.8,12.5,4.4,19.1c0.7,7.4,0.4,14.9,0.8,22.3c0.2,2.9,0.5,5.7,1.3,8.5
		c3.8,13.4,7.5,26.8,10.1,40.5c0.8,4.1,1.5,8.2,2.3,12.3c0.4,2.2,0.4,2.2,2.5,2.3c9.4,0.4,18.4,2.6,27.3,6
		c10.8,4.1,20.1,10.7,29.5,17.3c0.5,0.4,1,0.9,1.3,1.4c4.7,5.9,9,12,12.7,18.6c1.4,2.6,2.6,5.3,3.7,8.1c1.6,4.1,1.2,8.2,0.5,12.3
		c-1.1,6.9-2.9,13.6-5.8,20c-3,6.5-7.4,12-13.5,15.9c-2.6,1.6-4.5,3.7-6.2,6.2c-3.2,4.8-6.9,9.2-11.5,12.8c-2.4,1.9-5.4,2.8-8.3,3.7
		c-1.9,0.6-3.1-0.1-4.4-1.6c-2.3-2.8-3.6-6-4.1-9.6c0-0.3-0.1-0.6-0.6-0.9c-0.9,0.2-1.4,1-2.1,1.7c-1.9,1.8-3.7,3.8-5.9,5.3
		c-3.5,2.4-6.9,1.5-8.7-2.3c-1.6-3.3-2.5-6.8-2.1-10.4c0.2-2.4-0.5-3.8-2.6-4.8c-1-0.5-2-1-3-1.5c-3-1.3-4.9-3.5-6.1-6.5
		c-0.2-0.4-0.3-0.9-0.5-1.3c-0.5-1.1-0.9-1.3-2-0.6c-1.7,1.2-2.6,3-3.3,4.9c-0.6,1.8-1.2,3.6-2.1,5.3c-1.7,3.1-3.8,5.6-6.5,7.9
		c-3.1,2.6-7.4,1.2-9.1-1.6c-1.1-1.9-2-3.8-2.4-6c0-0.2,0-0.3-0.1-0.5c-0.8-4.7,0.1-4.2-4.8-7.2c-4.6-2.8-8.6-6.4-11.3-11.1
		c-0.4-0.7-0.9-1-1.7-1c-0.6,0-1.1,0-1.7,0c-124,0-248.1,0-372.1,0c-0.5,0-1,0-1.4,0c-0.9-0.1-1.5,0.2-1.9,1.1
		c-0.8,1.9-2.2,3.3-3.7,4.7c-3,2.8-5.9,5.8-9.8,7.6c-1.4,0.7-2.1,1.9-2.3,3.4c-0.3,2.7-0.7,5.4-2.1,7.8c-0.7,1.3-1.5,2.4-2.8,3.2
		c-2.2,1.4-4.6,1.3-6.7-0.2c-4.2-3.1-6.9-7.3-8.6-12.1c-0.5-1.6-1.1-3.2-2.1-4.5c-0.4-0.6-0.9-1.1-1.5-1.6c-1.1-0.8-1.6-0.7-2.1,0.6
		c-0.3,0.8-0.6,1.7-1,2.5c-1.1,2.3-2.8,4.1-5.2,5.1c-1.4,0.6-2.7,1.3-4,2.1c-1.5,0.8-2.2,1.9-2,3.7c0.5,3-0.3,5.9-1.1,8.7
		c-0.4,1.5-1.1,2.9-2.1,4c-1.9,2.1-4.4,2.5-6.9,1.1c-2.2-1.3-3.9-3.1-5.7-4.8C235.3,743.1,234.3,742.1,233,740.9z"/>
</g>
<g>
	<path class="st0" d="M575.6,311.6c-2.4-1.8-5-2.8-8.1-2.7c-0.5,0-0.9,0-1.4,0c-1.8,0.2-2.2,0.5-2.8,2.2c-0.9,2.9-0.2,5,2.1,6.8
		c0.3,0.3,0.6,0.5,0.9,0.7c1.3,1.5,2.9,1.6,4.7,1.3c0.8-0.2,1.6-0.4,2.3-0.5c1.9-0.2,3-1.2,3.7-3
		C578.2,313.4,578.2,313.6,575.6,311.6z"/>
	<path class="st0" d="M551.9,318.6c-2.4,1.7-1.8,5-4.4,6.4c1.9,0.9,3.9,1.7,6,2.9c-0.6-1.8-1.2-3.1-1.5-4.5
		C551.7,321.9,551.7,320.4,551.9,318.6z"/>
	<path class="st0" d="M590.2,318.2c-1.1-0.4-2.1-1-3.2-1.7c-0.6-0.4-1-0.2-1.1,0.6c-0.1,0.6-0.1,1.2-0.1,1.8
		c-0.1,3.6-1.2,6.6-3.7,9.2c-0.6,0.6-1.2,1.4-1.8,2c5.9-1.6,8.2-5.8,10.3-10.8C590.7,318.8,590.7,318.3,590.2,318.2z"/>
	<path class="st0" d="M716.4,629.9c-2.3-10.3-4.5-20.7-7-31c-2.5-10.8-3.7-21.8-5-32.8c-1-8.9-1.7-17.7-2.8-26.6
		c-0.9-8.5-3.2-16.5-7.2-24.1c-5.1-9.8-10.3-19.7-16.2-29.2c-6.4-10.2-9.3-21.4-9.5-33.3l0,0c-0.7,0.1-1.1,0.5-1.3,1.2
		c-0.2,0.5-0.4,0.9-0.5,1.4l-0.1,0.3c-0.4,1.8-0.7,4-0.8,6.1c-0.1,6.2,1,12.6,3.4,20.8c1.2,4,2.9,7.9,4.5,11.6
		c0.7,1.7,1.5,3.4,2.2,5.2c1.9,4.6,4.1,9.3,6.8,14.2c3.2,5.8,5,10.7,5.7,15.6c0.3,2.1,0.6,4.1,0.9,6.1c0.3,1.8,0.6,3.5,0.8,5.2
		c0.1,0.7,0.2,1.4,0.4,2c0.3,1.2,0.5,2.5,0.5,3.8c0,0.5,0,1.4-0.6,1.8c-0.5,0.4-1.2,0.3-1.9,0.2c-0.3-0.1-0.6-0.2-1-0.3
		c-0.8-0.2-1.5-0.4-2.2-0.3c-3.2,0.6-5.2,2.9-5.4,6.3c-0.3,3.8,0.5,7.1,2.5,10c2.2,3.3,4.3,5.8,6.7,7.8c1.9,1.5,3.7,3.4,5.4,5.6
		c0.3,0.4,0.6,0.8,1,1.2c0.9,0.9,1.8,2,2.2,3.4l0,0v0.1v0.1l1.6,1.5h-2.8l-0.3-0.3c0,0,0,0-0.1-0.1c-0.2-0.1-0.3-0.1-0.5-0.2
		c-0.3-0.1-0.6-0.2-0.9-0.3c-1.7-0.6-3.2-0.3-4.8,1.2c-1.6,1.4-2.2,3.4-1.8,6c0.6,4.9,2.6,9.1,6,12.3c1.3,1.3,2.9,3,4,5.1
		c2.7,4.8,5.4,9.1,8.3,13.1c0.6,0.8,0.9,1.6,1,2.5c0.2,3.4,1.2,6.4,2.1,8.9l0,0c0.1,0.2,0.1,0.4,0.3,0.7l0.7,1
		c2.1-0.3,4.2-0.7,6.3-1C716.8,631.9,716.5,630.9,716.4,629.9z"/>
	<path class="st0" d="M332.5,563.9c0.5-5,1.4-10,2.2-14.2c0.9-4.5,2.5-8.7,4.1-12.9c0.2-0.6,0.5-1.2,0.7-1.8c0.7-1.7,1.3-3.4,2-5.1
		c2.4-6.2,3.4-11.5,3.2-16.7c0-1.4-0.2-2.9-0.3-4.3c-0.2-2-0.3-4.1-0.3-6.1c0.1-10.8-0.3-20.3-1.1-29.2l-0.1-0.8
		c-1.7-2.4-3.5-4.8-5.4-6.9c-1.2-1.4-2.2-2.8-2.8-4.5c-0.6-1.4-1.7-2.5-3-3.6c0,0.6,0,1,0,1.4c0.3,4.3,1.2,8.5,2.4,12.7
		c2.4,8.3,4.2,16.6,3.8,25.2c-0.4,6.1-0.6,12.1-1.1,18.2c-0.3,3.5-1.2,6.6-3,9.5s-3.4,6-4.6,9.3c-0.9,2.7-2.2,5.2-3.6,7.7
		c-4.6,8.3-9.4,16.4-12.8,25.3c-1.6,4.1-3.4,8.3-5.2,12.3c-5,11.1-8.7,22.6-11.8,34.2c-2,7.6-3.6,15.3-4.9,23.1l0.2,0.1
		c0.4,0.1,0.6,0.2,1,0.3l1,0.3l1.9,0.6l1,0.3c0.3,0.1,0.6,0.3,0.9,0.4l1.9,0.7l0.9,0.4c0.3,0.1,0.6,0.3,0.9,0.4
		c1.1,0.4,2.2,0.9,3.3,1.4l0.4-0.7c0.2-0.4,0.4-0.7,0.6-1.1c0.2-0.4,0.4-0.8,0.7-1.1c1.1-2.1,2.7-4,4.7-5.9l0.1-0.1
		c0.3-0.4,1.1-1.2,2.3-0.7l0,0c0.8,0.4,0.9,1.1,1,1.6c0,0.1,0,0.2,0.1,0.3l0.1,0.3c0.5,5.8,3.6,10.6,6.6,15.3l0.8,1.2h0.2
		c0.2,0,0.4,0,0.5,0c0.7-0.2,1.2-0.8,1.5-1.7c0.1-0.3,0.1-0.6,0.1-0.8c0.2-2.2,0.7-4.4,1.6-6.8c2.3-5.9,5.8-12,10.8-19.2
		c2.5-3.5,4.3-6.9,5.6-10.2c0.8-2.2,0.6-4.2-0.6-6.3c-0.2-0.4-0.5-0.8-0.7-1.1c-0.3-0.4-0.5-0.8-0.8-1.2c-2.7-4.6-5.7-9.8-6.9-15.8
		c-0.7-3.7-0.8-7.5-1-11.1l-0.1-1.6c-0.2-2.9,0.2-5.8,0.5-8.7C332.4,565.2,332.4,564.6,332.5,563.9z"/>
	<path class="st0" d="M661.5,642.3c-2-2.9-4.3-6.2-7.1-9.2c-3.1-3.3-5.6-4.9-9.5-3.5c-3.1,1-4.3,2.4-4.5,5.1
		c-0.4,4.1-0.7,8.3-0.9,12.4c-0.1,2-0.3,4-0.4,6c-0.2,3.2-0.8,6.3-1.8,9.2c-0.9,2.6-1.3,2.9-4.2,2.3c-2.5-0.6-4.8,0.6-5.8,2.9
		c-1.1,2.6-1.8,4.8-2.1,7c-0.2,1.6-0.4,3.2-0.6,4.8c-0.3,2.8-0.7,5.6-1.2,8.5l-0.1,0.3c-0.3,1.5-0.5,3-1,4.5l0,0h9.4
		c0.2-0.2,0.4-0.3,0.6-0.4c0.7-0.6,1.6-1.2,2.3-1.8c0.5-0.4,0.8-0.8,1.3-1.2c0.1-0.1,0.1-0.1,0.1-0.1c0.2-0.3,0.4-0.5,0.6-0.7
		c1.6-2.1,3.1-4.3,4.6-6.5c0.5-0.6,0.8-1.2,1.3-1.8c0.2-0.3,0.3-0.5,0.5-0.7c0.5-0.6,0.9-1.3,1.4-1.9c0,0,0,0.1-0.1,0.5
		c2-2.8,4-5.6,6.1-8.3c0.8-1,1.7-2.1,2.6-3.1l1.3-1.6l0.6-0.7c0.2-0.3,0.5-0.5,0.6-0.7l1.4-1.5c0.5-0.5,0.9-1,1.4-1.5
		c0.9-1,1.8-1.9,2.8-2.8l0.4-0.4l0.4-0.4l0.7-0.6c0.5-0.5,0.9-0.9,1.5-1.4l1.6-1.3l0.5-0.4l-0.2-0.7
		C664.9,648.5,663.5,645.2,661.5,642.3z"/>
	<path class="st0" d="M521.4,393.4c-1.7-0.5-2.6,0.1-3,0.6c-0.2,0.3-0.5,0.5-0.7,0.7c-0.3,0.3-0.6,0.6-0.9,1l-0.1,0.1l-0.5,0.5
		l-0.6-0.5c-0.8-0.6-1.4-1.3-2.1-1.9c-0.6-0.7-1.2-1.3-1.9-1.8c-1.5-1-3-2-4.7-2.8c-1.2-0.6-1.8-1.6-2.2-2.4l-1.2-2.2
		c-1.1-2-2.2-4-3.2-6c-0.6-1.1-1.1-2.3-1.6-3.4s-1-2.2-1.5-3.3c-1.3-2.5-2.6-3.9-4.3-4.7c-1.7-0.8-3.4-0.6-5.7,0.4
		c-2,1-2.8,0.5-3.7-1.2c-1.6-2.5-2-5.2-2.3-7.8c-0.3-2.7-0.9-5.7-2.6-8.5c-1.1-1.8-2.7-2.9-4.4-2.8c-1.7,0-3.3,1.2-4.3,3.1
		c-0.1,0.2-0.2,0.4-0.2,0.5c-0.2,0.5-0.5,1.2-1.2,1.6l-0.1,0.1h-0.1c-0.4,0.1-1.2,0.1-1.6-0.8l-0.1-0.2c-0.6-1.9-1.5-3.7-2.4-5.4
		c-0.5-1.1-1.1-2.2-1.6-3.3c-0.3-0.6-0.5-1.1-0.8-1.4c-0.4-0.3-0.9-0.4-1.3-0.2c-0.2,0.1-0.5,0.3-0.6,0.8c-0.1,0.4-0.1,0.7-0.2,1.1
		c-0.3,2-0.6,3.9-0.2,5.9l0.1,0.5c0.7,3,1.5,6.1,0.6,9.5c-0.2,0.7-0.3,1.3-0.5,1.9c-0.3,1.4-0.7,2.8-1.2,4.1
		c-0.1,0.4-0.4,1.1-1.1,1.3c-0.7,0.3-1.5-0.1-1.8-0.2c-0.4-0.2-0.8-0.3-1.1-0.3c-0.5,0-0.9,0.3-1.4,0.9s-0.9,1.4-1.3,2.2
		c-0.8,1.9-1.3,3.8-1.6,5.7c-0.4,3-1.5,5.6-3.2,7.8c-2.3,2.9-4,5.6-5.1,8.4c-3.4,8.1-2.3,13.1,4.3,20.4c0.7,0.9,1.7,1.3,2.7,1.2
		c0.9-0.1,1.6-0.5,2.1-1.2c1.1-1.6,2.4-2.1,3.9-2.6c1-0.3,2.1-0.7,3-1.1c1.3-0.5,2.6-1,4-1.3c4.1-1.1,8.3-1.8,12.8-2
		c4.4-0.4,10.2-0.6,16,1.4c3.2,1.2,6.6,2.4,10,3.5c3.1,0.9,5.5,1,7.8,0.3c1.6-0.5,3.3-0.6,5-0.3l0,0c0.8,0.2,1.5-0.1,2.4-0.9
		c1.4-1.3,2.9-2.7,4.6-4.7c2.1-2.4,2.9-5.1,2.6-8C523.1,394.6,522.5,393.8,521.4,393.4z"/>
	<path class="st0" d="M446.9,259.4c1.1,1.2,1.5,1.3,2.9,0.3c0.7-0.4,1.3-0.4,1.8-0.4h0.1c1.9,0.2,3.5,1,4.9,2.4
		c2.1,2.2,4.2,4.1,6,5.6c1.9,1.7,2.7,1.8,5,0.6c0.6-0.3,1.2-0.6,1.8-0.8c1.1-0.4,1.9-1.1,2.4-2c0.4-0.7,0.7-1.3,1.1-1.9
		c0.3-0.6,0.7-1.3,1.1-1.9c1.4-2.5,2.8-4.8,5.3-6.5l0.9-0.6l0.5,0.9c0.1,0.2,0.2,0.5,0.3,0.7c0.1,0.2,0.2,0.4,0.3,0.5
		c0.6,0.9,1.4,1.4,2.1,1.4s1.4-0.5,1.9-1.4c0.1-0.2,0.2-0.4,0.3-0.7c0.1-0.3,0.2-0.6,0.4-0.9c0.7-1.5,0.8-3.1,1-4.8
		c0.2-2.6,0.2-5.4-1.5-7.8c-0.6-0.9-0.7-1.7-0.3-2.6c0.9-2.3,1.2-4.8,1.5-7.3c0.1-0.6,0.2-1.1,0.2-1.7c0.5-3,0.2-5.5-0.9-7.8
		c-0.2-0.5-0.7-1.2-1.4-1.4c-0.7-0.2-1.3,0.2-1.8,0.5l-0.1,0.1c-0.2,0.1-0.5,0.4-0.7,0.6c-0.7,0.9-1.3,1.7-2,2.6
		c-1,1.3-2,2.5-2.9,3.8L477,229c-0.7,1.2-1.5,2.5-3.3,3.7l-1.4,1V232c0-0.8,0-1.6,0-2.4c0-1.4,0-2.7,0-3.9c-0.2-3.6-1.4-6.6-3.6-8.7
		c-1.4-1.4-2.9-1.7-4.8-1.2c-3.8,1.2-6.3,3.7-7.9,7.7c-1.9,4.8-2.9,10-2.8,15.4c0,0.2,0,0.3,0,0.5c0.1,0.6,0.2,1.4-0.4,2.2l-0.3,0.4
		h-0.4H452c-1.1,0-1.6-0.6-2-1c-0.1-0.1-0.1-0.2-0.2-0.2c-0.8-0.8-1.5-1.4-2.4-1.9c-1-0.7-1.7-0.9-2.1-0.8c-0.5,0.2-0.9,0.8-1.3,2
		c-0.3,0.8-0.3,1.7-0.4,2.6c0,0.8-0.1,1.6-0.3,2.4c-0.6,3,0,6,0.7,9.1C444.9,256.4,445.7,258.1,446.9,259.4z"/>
	<path class="st0" d="M407.4,303.6c-0.1-0.5-0.6-0.6-0.9-0.9c-0.9-0.6-2-0.6-2.7-0.6c-1.7,0-2.9-0.1-3.9,0.8c-0.4,0.4-0.8,0.7-1.2,1
		c-0.4,0.3-0.8,0.5-1.3,0.7c-1.2,0.6-1.4,1.3-1,2.3c0.9,2.6,2.5,4.6,5,5.7c1,0.5,2,0.6,3,0c1.3-0.7,2.8-0.9,4.2-0.8
		c1.5,0.2,1.7-0.2,1.3-1.5C409.3,308,408.2,305.9,407.4,303.6z"/>
	<path class="st0" d="M415.3,318.7c-0.6,2.2-1.6,4.1-2.8,6.1c2.8-1.1,5.6-2.6,9-1.8c-0.4-4-1.6-7.6-4.2-10.7
		C416.5,314.6,416,316.7,415.3,318.7z"/>
	<path class="st0" d="M385.1,306.7c-2.1,1.7-3.9,3.7-5.5,5.8c-1.7,2.2-1.7,2.2,0.3,4.1c1.5,1.4,2.7,2.9,4.7,4.5
		c-0.9-2.8-1.6-5-1.5-7.4C383,311.2,384.2,309,385.1,306.7z"/>
</g>
<g>
	<path class="st1" d="M542.1,677c-0.6,0.4-0.9,1.2-1.3,1.7c-0.9,1.5-1.7,3-3.1,4.2c-1.3,1.1-2.7,1.3-3.9,0.6
		c-1.3-0.7-1.7-1.9-1.6-3.3c0.3-1.5,0.6-3,0.9-4.5c1-4.1,2.1-8.3,3.3-12.3c-0.2,0.2-0.5,0.5-0.7,0.7s-0.4,0.4-0.6,0.6
		c-5.1,5.5-11.2,10.5-18.3,14.9c-1.1,0.6-1.5,1-1.6,2c0,0.7-0.3,1.4-0.5,2c-0.1,0.1-0.1,0.3-0.2,0.4v0.1c-0.5,1.1-0.6,1.6-0.1,2.2
		c1.2,1.7-0.1,3.3-0.7,4c-0.3,0.4-0.6,0.7-0.9,1.1c-0.2,0.3-0.5,0.6-0.7,0.9H544c-0.5-4.9-1-9.8-1.6-14.8
		C542.6,677.5,542.6,677.2,542.1,677z"/>
	<path class="st1" d="M551.4,412.2c-2.6-1.8-5.1-3.7-7.8-5.3c-1.5-0.9-2.6-2.1-3.3-3.7c-1.2-2.7-2.3-5.5-3.9-8.1
		c-3.2-5.3-6-10.8-8.8-16.2c-4-7.7-9.5-13.8-18.2-16.1c-0.6-0.1-1.2-0.4-1.7-0.6c-1.8-0.9-3.5-2.1-4.5-3.9
		c-2.7-4.7-5.3-9.2-6.5-14.5c-1.4-6.1-2.1-12.4-3-18.6c-1-6.8-2.2-13.4-4.9-19.8c-1.8-4.4-1.9-9.2-1.7-13.8c0.1-2.5,1.4-4.3,3.9-4.9
		c1.2-0.4,1.9-1,2.3-2c1.5-3.8,3-7.5,3.5-11.5c0.6-6,1.6-11.9,3.8-17.5c1.4-3.4,0-8.3-1.7-11.6c-0.9-1.8-2.2-3.4-2.8-5.3
		c-1-3,0-5,3.1-5.7c0.9-0.2,1.1-0.6,1-1.4c0-0.5,0-0.9-0.1-1.4c-1.1-8.7-0.1-17.3,1.3-26c1.1-7.2,3.8-13.9,6.9-20.4
		c0.3-0.6,0.7-1.2,0.8-1.9c-0.6-0.2-1.1-0.4-1.7-0.6c-0.3-0.1-0.6-0.2-0.8-0.3c-5-0.3-10-0.1-14.9,0.4c-10.3,1-20.5,2.8-30.7,4.7
		c-3.5,0.6-7,1-10.5-0.3c-0.1-0.1-0.4,0-0.7,0.1c0.5,3.5,1,6.6,4.3,8.7c3.5,2.2,4.2,5,3.1,9.3c-2,7.5-6.6,13.3-12.6,18
		c-2.6,2-5.4,3.9-8,5.9c-5.7,4.5-8.4,10.5-9.2,17.7c-0.2,1.3,0,2.5,0.4,3.7c0.2,0.5,0.3,0.9,0.7,1.2c1.6,0.9,2.8,2.3,4.5,3.2
		c3.7,1.8,6.4,4.7,7.9,8.6c0.9,2.7-0.2,4.7-3,4.9c-0.6,0-0.9,0.2-1.1,0.5l0.2,0.2c4,3.8,6.9,7.6,8.9,11.5l0.7,1.3h-0.2
		c5,1.8,7.9,7.2,6.9,11.2c-0.5,1.8-0.9,3.7-1.8,5.4c-0.6,1-1.1,2-1.1,3.2c0,4.7-0.4,9.3,0.2,13.8c0.3,1.9,0.3,3.9,0.2,6
		c-0.1,2-0.1,3.9,0.2,6c0.5,2.9,0.3,5.9-0.5,8.7c-0.6,2.8-1.6,5.6-1.7,8.3c-0.1,4.5-0.9,8.7-1.2,13.1c-0.3,4.9-1.6,9.4-4.1,13.6
		c-2.1,3.4-5,5.8-8.8,7.1c-2.6,0.8-5,0.5-7.2-1.4c-0.6-0.6-0.8-1.7-1.7-1.7c-0.9,0-1.7,0.6-2.6,1c-0.6,0.3-1.4,0.6-2.1,0.8
		c-5.4,2-10.5,4.8-15.3,7.9c-1.4,0.9-2.7,2-3.8,3.3c-2.4,2.8-5,4.8-8,6.1c0.6,1,1.2,2.1,1.7,3.3c0.3,0.8,0.3,1.5,0.4,2.2
		c0,0.6,0.1,1.2,0.3,1.7c1.3,3.8,4,6.4,8.7,8.5c0.8,0.4,1.6,0.6,2.4,0.8c1.2,0.3,2,0.2,2.8-0.3c3-1.9,6.3-3,9.5-4l1.1-0.4
		c1.8-0.7,3.7-0.3,5.5,0.1l0.4,0.1c5,0.9,8.4,4,10.3,9.3c0.9,2.6,1.5,5.4,1.8,8.3c0.2,1.6,0.9,2.9,2,3.9l0.3,0.3
		c5.9-2.3,12.2-3.4,18.5-4.2c3.9-0.5,8-0.9,11.9-1.1c10.2-0.5,20.4,0.4,30.4,2.9c1.6,0.4,3.1,1,4.6,1.6c2.6,1,5,2.3,7.2,3.7l2.9,0.5
		c3.5,0.6,7.2,0.7,10.7,0.3c5.7-0.7,10.4-1.9,14.6-3.7c2.7-1.2,4.7-2.5,6.5-4.2l0.5-0.5c2.6-2.6,5.3-5.3,7.2-8.5
		c-0.6,0-1.2-0.1-1.8-0.1C553.3,413.2,552.3,412.9,551.4,412.2z M451.7,259.3L451.7,259.3c-0.6,0-1.2,0-1.9,0.4
		c-1.4,0.9-1.9,0.9-2.9-0.3c-1.2-1.3-2-3.1-2.6-5.4c-0.7-3.1-1.3-6.1-0.7-9.1c0.2-0.8,0.2-1.6,0.3-2.4c0-0.9,0.1-1.8,0.4-2.6
		c0.4-1.2,0.9-1.9,1.3-2s1.1,0.1,2.1,0.8c0.9,0.5,1.6,1.1,2.4,1.9c0.1,0.1,0.2,0.2,0.2,0.2c0.4,0.4,0.9,1,2,1h0.1h0.4l0.3-0.4
		c0.5-0.8,0.5-1.6,0.4-2.2c0-0.2,0-0.3,0-0.5c-0.1-5.4,0.8-10.6,2.8-15.4c1.6-4.1,4.1-6.5,7.9-7.7c1.9-0.6,3.4-0.2,4.8,1.2
		c2.2,2.2,3.4,5.1,3.6,8.7c0.1,1.2,0,2.5,0,3.9c0,0.8,0,1.5,0,2.4v1.7l1.4-1c1.7-1.2,2.6-2.5,3.3-3.7l0.1-0.2
		c0.9-1.3,1.9-2.5,2.9-3.8c0.7-0.8,1.4-1.7,2-2.6c0.2-0.3,0.5-0.5,0.7-0.6l0.1-0.1c0.5-0.3,1.1-0.7,1.8-0.5c0.7,0.2,1.1,0.9,1.4,1.4
		c1.1,2.3,1.4,4.8,0.9,7.8c-0.1,0.6-0.2,1.1-0.2,1.7c-0.4,2.6-0.7,5-1.5,7.3c-0.4,1-0.3,1.8,0.3,2.6c1.7,2.4,1.7,5.2,1.5,7.8
		c-0.2,1.7-0.4,3.3-1,4.8c-0.1,0.3-0.3,0.6-0.4,0.9c-0.1,0.3-0.2,0.5-0.3,0.7c-0.6,0.9-1.3,1.4-1.9,1.4c-0.7,0-1.4-0.5-2.1-1.4
		c-0.1-0.1-0.2-0.3-0.3-0.5c-0.1-0.2-0.2-0.4-0.3-0.7l-0.5-0.9l-0.9,0.6c-2.5,1.6-4,4-5.3,6.5c-0.4,0.6-0.7,1.3-1.1,1.9
		c-0.3,0.6-0.7,1.3-1.1,1.9c-0.5,1-1.3,1.7-2.4,2c-0.6,0.2-1.2,0.5-1.8,0.8c-2.4,1.2-3.1,1.1-5-0.6c-1.8-1.6-3.9-3.5-6-5.6
		C455.2,260.3,453.6,259.5,451.7,259.3z M520.6,403.9c-1.7,2-3.2,3.4-4.6,4.7c-0.9,0.8-1.6,1.1-2.4,0.9l0,0c-1.7-0.3-3.4-0.2-5,0.3
		c-2.3,0.7-4.7,0.7-7.8-0.3c-3.4-1.1-6.7-2.3-10-3.5c-5.8-2-11.6-1.8-16-1.4c-4.6,0.3-8.8,1-12.8,2c-1.4,0.4-2.7,0.9-4,1.3
		c-1,0.4-2,0.7-3,1.1c-1.4,0.5-2.8,0.9-3.9,2.6c-0.5,0.7-1.2,1.1-2.1,1.2c-1,0.1-2-0.4-2.7-1.2c-6.7-7.3-7.7-12.3-4.3-20.4
		c1.1-2.8,2.8-5.5,5.1-8.4c1.7-2.2,2.8-4.8,3.2-7.8c0.3-2,0.8-3.8,1.6-5.7c0.4-0.8,0.8-1.6,1.3-2.2s0.9-0.9,1.4-0.9
		c0.3,0,0.6,0.1,1.1,0.3c0.3,0.1,1,0.5,1.8,0.2c0.7-0.3,0.9-0.9,1.1-1.3c0.5-1.4,0.9-2.8,1.2-4.1c0.2-0.6,0.3-1.3,0.5-1.9
		c0.8-3.3,0.1-6.5-0.6-9.5l-0.1-0.5c-0.4-1.9-0.1-3.8,0.2-5.9c0.1-0.4,0.1-0.7,0.2-1.1c0.1-0.5,0.4-0.7,0.6-0.8
		c0.4-0.2,0.9-0.1,1.3,0.2c0.4,0.3,0.6,0.8,0.8,1.4c0.5,1.1,1.1,2.2,1.6,3.3c0.9,1.7,1.8,3.5,2.4,5.4l0.1,0.2
		c0.4,0.9,1.2,0.9,1.6,0.8h0.1l0.1-0.1c0.7-0.4,1-1.1,1.2-1.6c0.1-0.2,0.1-0.4,0.2-0.5c1.1-1.9,2.7-3,4.3-3.1c1.6,0,3.2,1,4.4,2.8
		c1.7,2.8,2.3,5.8,2.6,8.5c0.3,2.6,0.8,5.3,2.3,7.8c1,1.7,1.7,2.2,3.7,1.2c2.2-1.1,4-1.2,5.7-0.4c1.8,0.8,3.1,2.2,4.3,4.7
		c0.5,1.1,1,2.2,1.5,3.3c0.5,1.1,1,2.3,1.6,3.4c1,2,2.1,4.1,3.2,6l1.2,2.2c0.4,0.8,1.1,1.8,2.2,2.4c1.6,0.8,3.2,1.8,4.7,2.8
		c0.7,0.5,1.3,1.1,1.9,1.8c0.6,0.6,1.3,1.3,2.1,1.9l0.6,0.5l0.5-0.5l0.1-0.1c0.4-0.4,0.7-0.7,0.9-1c0.2-0.2,0.4-0.5,0.7-0.7
		c0.5-0.5,1.3-1.2,3-0.6c1.1,0.4,1.7,1.2,1.9,2.5C523.6,398.8,522.7,401.5,520.6,403.9z"/>
	<path class="st1" d="M359.1,589.9c-2,0.9-4,1.5-6.1,2.1c-0.6,0.4-1,0.6-1.6,1c-1,0.6-2,1.4-3.2,1.8c-1.6,0.6-2.9,0.3-3.9-0.6
		c-0.7-0.5-1.3-1.3-1.4-2.5c-0.1-0.6,0-1.4,0.1-2c0.6-3.9,2.1-7.7,2.3-11.7c1.6-2.6,1.4-5.7,2.8-8.3c0.2-0.4,0.4-0.6,0.6-1
		c-0.7-0.1-1.5-0.3-2.2-0.6c-0.6-0.3-1.1-0.6-1.6-0.9c-0.5,0-0.8,0-1.2,0c-2.8,0-4.1-1.8-3.6-4.6c0.2-0.9,0.8-1.5,1.5-1.9
		c0.7-0.6,1.5-1.1,2.4-1.6c2.1-1,3.7-2.7,5-4.6c0.4-0.6,0.8-1.2,1.4-1.6c0.1-0.1,0.3-0.2,0.4-0.3c1.9-2.8,3.9-5.7,5.7-8.5
		c0.7-1.1,1.3-2.2,1.9-3.3l-0.3-0.7c-0.2-0.4-0.3-0.7-0.5-1.1c-0.6-1.4-1.2-2.9-1.5-4.5l-0.3-1.3c-1.5-6.5-3-13.1-3.3-20
		c-0.4-8.7-2-17-3.7-24.6c-0.6-2.3-0.6-4.1-0.2-5.8v-0.1c-1.7-2.2-2.9-4.5-3.7-7.1c-0.4-0.6-0.7-1-1.1-1.6c-0.3-0.4-0.6-0.8-0.9-1.2
		l0.1,0.8c0.8,8.9,1.2,18.5,1.1,29.2c-0.1,2.1,0.1,4.1,0.3,6.1c0.1,1.4,0.2,2.9,0.3,4.3c0.2,5.2-0.9,10.5-3.2,16.7
		c-0.6,1.7-1.3,3.5-2,5.1c-0.2,0.6-0.5,1.2-0.7,1.8c-1.6,4.1-3.2,8.4-4.1,12.9c-0.8,4.2-1.7,9.2-2.2,14.2c-0.1,0.7-0.1,1.3-0.2,2
		c-0.3,2.8-0.7,5.8-0.5,8.7l0.1,1.6c0.1,3.7,0.3,7.4,1,11.1c1.2,6,4.2,11.2,6.9,15.8c0.2,0.4,0.5,0.8,0.8,1.2
		c0.2,0.4,0.5,0.7,0.7,1.1c1.2,2.1,1.4,4.1,0.6,6.3c-1.2,3.4-3.1,6.7-5.6,10.2c-5.1,7.2-8.5,13.3-10.8,19.2
		c-0.9,2.3-1.4,4.5-1.6,6.8c0,0.3-0.1,0.6-0.1,0.8c-0.3,0.9-0.8,1.5-1.5,1.7c-0.1,0-0.3,0-0.5,0h-0.2l-0.8-1.2
		c-3-4.7-6.1-9.5-6.6-15.3l-0.1-0.3c0-0.1,0-0.2-0.1-0.3c-0.1-0.4-0.2-1.2-1-1.6l0,0c-1.1-0.5-1.9,0.3-2.3,0.7l-0.1,0.1
		c-2.1,1.8-3.6,3.8-4.7,5.9c-0.2,0.4-0.4,0.8-0.7,1.1c-0.2,0.4-0.4,0.7-0.6,1.1l-0.4,0.7c0.3,0.2,0.7,0.3,1,0.5
		c3.6,1.7,7,3.5,10.2,5.6l1.7,1.1l1.7,1.2l0.8,0.6l0.4,0.3h0.1l0.4,0.3l1.5,1.1l0.1,0.1c0.3,0.2,0.6,0.5,0.8,0.6l0.7,0.6l1.6,1.3
		c0.5,0.5,1,0.9,1.5,1.4l0.7,0.6l0.4,0.4l0.4,0.4c0.9,0.9,1.9,1.8,2.8,2.8c0.5,0.5,0.9,1,1.4,1.5l1.4,1.5c0.2,0.3,0.5,0.5,0.6,0.7
		l0.6,0.7l1.3,1.6c0.9,1,1.7,2,2.6,3.1c2.1,2.8,4.2,5.5,6.1,8.3l0.1,0.1c0.5,0.6,0.9,1.3,1.4,1.9c0.2,0.3,0.3,0.5,0.5,0.7
		c0.5,0.6,0.8,1.2,1.3,1.8c1.5,2.2,3,4.4,4.6,6.5c0.2,0.3,0.4,0.5,0.6,0.7c0.1,0.1,0.1,0.1,0.1,0.1c0.5,0.4,0.8,0.8,1.3,1.2
		c0.7,0.6,1.5,1.3,2.3,1.8c0.2,0.2,0.4,0.3,0.6,0.4h2.8c-0.8-2.8-1.6-5.8-2-8.8c-1.3-8-1.6-16-1.2-24.1c0.3-5.6,1.5-11,3.3-16.2
		c0.3-0.7,0.7-1.5,0.6-2.4c-0.6-0.4-1.2,0-1.7,0.1c-2.6,0.4-5,0.2-7.2-0.9c-4.6-2.3-5.7-7.2-2.5-11.2c1.7-2.1,3.6-4,5.4-6
		c0.1-0.4,0.3-0.8,0.5-1.3c1.1-2.8,1.4-5.7-0.1-8.5c-0.3-0.6-0.7-1.2-1.4-1.4c-1.2,0.1-2.4,0.1-3.5-0.5c-2.7-1.2-3.3-4.2-1.4-6.3
		c0.6-0.7,1.4-1.2,2.2-1.7c1.1-1.8,2.4-3.6,3.7-5.2c2.1-2.6,4.2-5.2,6.6-7.5c0.6-0.5,1-1.1,1.2-2C361.1,588.9,360,589.5,359.1,589.9
		z"/>
	<path class="st1" d="M444.7,666.9c-0.8-2.1-2.2-3.7-3.6-5.4c-3.8-4.5-7.2-9-10.2-13.7c-0.2,1.3-0.5,2.7-0.7,4.1
		c-1.1,5.6-0.8,11.2-0.1,16.8c0.8,6.6,1.8,13.2,4.1,19.5c0.6,1.5,1.2,2.9,1.8,4.4h25.5c-1.7-2.3-3.8-4.9-6-7.5
		C451.1,679.9,447.4,673.8,444.7,666.9z"/>
	<path class="st1" d="M710.1,633c-0.2-0.2-0.2-0.4-0.3-0.7l0,0c-1-2.5-2-5.6-2.1-8.9c-0.1-0.9-0.4-1.7-1-2.5
		c-2.9-4-5.6-8.3-8.3-13.1c-1.1-2.1-2.7-3.8-4-5.1c-3.3-3.2-5.3-7.4-6-12.3c-0.4-2.5,0.2-4.5,1.8-6s3.1-1.8,4.8-1.2
		c0.3,0.1,0.6,0.2,0.9,0.3c0.2,0.1,0.3,0.1,0.5,0.2c0,0,0,0,0.1,0.1l0.3,0.3h2.8l-1.6-1.5v-0.1v-0.1l0,0c-0.4-1.4-1.3-2.5-2.2-3.4
		c-0.4-0.4-0.7-0.8-1-1.2c-1.7-2.1-3.5-4-5.4-5.6c-2.4-2-4.5-4.5-6.7-7.8c-2-2.9-2.8-6.1-2.5-10c0.2-3.4,2.3-5.7,5.4-6.3
		c0.7-0.2,1.4,0,2.2,0.3c0.3,0.1,0.6,0.2,1,0.3c0.7,0.2,1.4,0.3,1.9-0.2c0.6-0.5,0.6-1.3,0.6-1.8c0-1.3-0.3-2.6-0.5-3.8
		c-0.1-0.7-0.3-1.4-0.4-2c-0.3-1.7-0.5-3.5-0.8-5.2c-0.3-2-0.6-4.1-0.9-6.1c-0.7-5-2.5-9.8-5.7-15.6c-2.7-5-5-9.6-6.8-14.2
		c-0.7-1.7-1.5-3.5-2.2-5.2c-1.6-3.7-3.4-7.6-4.5-11.6c-2.4-8.2-3.4-14.6-3.4-20.8c0.1-2.1,0.4-4.3,0.8-6.1l0.1-0.3
		c0.1-0.4,0.3-0.9,0.5-1.4c0.3-0.7,0.7-1.1,1.3-1.2c0-0.4,0-0.9,0-1.3c0-1.7-0.3-3.1-0.8-4.6c-0.6-0.1-0.7,0.3-1,0.6
		c-3.7,3.4-7.2,6.8-10.3,10.7v0.5c0.5,5.4,0.4,10.8-0.5,16.6v0.2c-0.8,5.3-1.6,10.7-2.4,16c-0.2,1.5-0.5,3-0.8,4.6l-0.3,1
		c2.2,5.1,5.1,9.8,8.4,14.3c2.5,3.4,5.1,6.5,8.3,9.2c2.5,2.1,4.4,4.7,6.5,7.2c0.3,0.4,0.6,0.8,0.7,1.2c1.4,2.7,0.5,4.9-2.4,5.5
		c-4.8,1.2-9.4,0.7-13.5-2.2c-1-0.6-1.9-1.4-3.2-2.4c-0.7,2.5-1.7,4.8-1.6,7.2c0.6,11.6,0.6,23.1,3.4,34.4c0.7,3.1,1.9,6.1,3.2,8.9
		c2.4,5.1,3.9,10.5,5.5,15.9c1.1,3.7,1.6,7.4,1.1,11.2c0,0.4-0.1,0.7-0.2,1.1c-0.2,1.2-0.6,2.2-1.9,2.6c-1,0.2-1.8-0.3-2.6-1.8
		c-1.1-2.3-1.9-4.6-3.1-6.9c-1.9-3.9-4.5-7.3-6.9-10.9c-1.5-2.3-2.9-4.5-4.4-7c-1.9,2.1-3.7,3.9-5.3,5.8c-2.1,2.4-4.1,4.8-6.5,6.9
		c-1.3,1.2-1.4,2.8-1.6,4.2c-0.7,4.9-1,9.8-1.5,14.7c-0.1,1.6-0.3,3-0.5,4.6c-0.1,1.1-0.6,2.1-1.7,2.5c-1.3,0.4-2.3-0.2-3-1.2
		c-1.2-1.6-1.9-3.5-2.8-5.2c-0.9-0.1-0.9,0.7-1.2,1.2c-2.8,5-4,10.6-5,16.2c-0.6,3.4-1.4,6.7-1.2,10.1c0,1.7-0.8,2.8-2.1,3.2
		s-2.7,0.1-3.7-1.2c-1.5-1.8-2.3-3.9-2.8-6.1c-0.4-1.7-0.6-3.3-1-5c-0.1-0.5-0.1-0.9-0.7-1.3c-1.7,3.2-2.9,6.7-3.4,10.4
		c-0.5,3.3-1,6.7-0.6,10.1c0.1,0.6,0,1.4-0.3,2c-1,2.7-4.3,3.2-6.1,1c-0.4-0.4-0.6-0.9-0.8-1.4c-1.2-4-3.4-7.8-3.9-12
		c0-0.3-0.2-0.5-0.3-0.6c-0.7,0.2-0.8,0.7-1,1.2c-2.9,6.3-3.6,12.9-3,19.8c0.2,1.7,1.1,3.3,1.8,5c0.7,1.8,1.1,3.7,0.8,5.6
		c-0.6,3.9-0.5,8-0.9,11.9c-0.3,1.9-0.5,3.9-0.7,5.7h30.1h1.1l0,0c0.4-1.4,0.7-3,1-4.5l0.1-0.3c0.6-2.8,0.9-5.7,1.2-8.5
		c0.2-1.6,0.4-3.2,0.6-4.8c0.3-2.2,1-4.4,2.1-7c1-2.3,3.3-3.4,5.8-2.9c2.8,0.5,3.3,0.3,4.2-2.3c1-2.9,1.6-6,1.8-9.2
		c0.1-2,0.3-4,0.4-6c0.3-4,0.6-8.2,0.9-12.4c0.2-2.6,1.5-4.1,4.5-5.1c3.8-1.4,6.4,0.2,9.5,3.5c2.7,2.9,5.1,6.3,7.1,9.2
		s3.4,6.3,4.3,10.1l0.2,0.7l0.2-0.2l0.2-0.1c0.3-0.2,0.6-0.5,0.8-0.6l1.6-1.3l0.4-0.3l0.4-0.3l0.8-0.6l1.7-1.2l1.7-1.1
		c4.5-2.9,9.4-5.4,14.4-7.4c0.3-0.1,0.6-0.3,0.9-0.4l0.9-0.4l1.9-0.7c0.3-0.1,0.6-0.3,0.9-0.4l1-0.3l1.9-0.6l1-0.3
		c0.4-0.1,0.6-0.2,1-0.3l1.9-0.6l1-0.3l0.5-0.1l0.5-0.1l1.9-0.5c1.7-0.4,3.6-0.7,5.4-1.1c0.7-0.1,1.3-0.2,2-0.3L710.1,633z"/>
</g>
<g>
	<path class="st2" d="M618.2,513.6c0.1-2.5-0.2-5.4-0.8-8.7c-0.2-1.4-0.9-2.4-1.7-3c-0.5-0.3-1-0.5-1.6-0.5c-0.3,0-0.6,0-0.9,0.1
		c-1.2,0.2-2.2,0.9-2.9,1.8c-1.9,3-3.1,6.6-3.5,10.6c-0.3,2.2-0.6,4.5-1.2,6.7c-1,3.4-2.8,6.5-4.5,9.5c-0.5,0.8-0.9,1.6-1.4,2.4
		c-0.6,1.1-1.2,2.2-1.9,3.3c-0.9,1.6-1.8,3.1-2.6,4.7c-0.6,1.4-1.2,2.9-1.7,4.4c-0.7,2.1-1.5,4.2-2.6,6.3c-0.3,0.5-0.5,1.2-0.6,1.9
		c-0.1,0.3-0.1,0.7-0.2,1c-0.9,3.8-0.5,7,1.2,9.7c0.2,0.3,0.3,0.5,0.5,0.8c1.1,1.7,2.3,3.5,2,6c-0.1,0.8,0.4,1.8,1.7,2.2
		c0.9,0.3,1.7,0.1,2.8-0.9l0.6-0.6c3.8-3.5,6.1-7.7,8.1-11.8c2.2-4.9,5.4-8.4,9.9-10.7c1.8-0.9,3-2.5,3.7-4.9
		c0.3-1.1,0.3-2.2,0.3-3.4c0-0.5,0-1.1,0-1.6c0.1-2.4-0.1-4.9-0.6-8C618.7,524.2,618.1,518.8,618.2,513.6z"/>
	<path class="st2" d="M570.4,423.7c-3.4,3.8-6.9,8-11.3,13.3c-1.5,1.9-3.2,2.4-5.4,1.8c-0.4-0.1-0.8-0.2-1.2-0.2s-0.8,0.1-1.2,0.2
		c-2.6,0.8-4,2.8-4.3,6c-0.2,1.9-0.2,3.8,0,5.8c0.1,1.3,0.2,2.6,0.7,3.7c0.6,1.1,0.7,2.3,0.3,3.8c-0.5,2-0.3,4-0.1,5.6
		c0.5,3.4,0.8,7.9-0.8,12.3c-0.4,1.2-0.9,2.5-1.3,3.8c-0.5,1.5-1.1,3.1-1.6,4.6c-0.4,1.3,0.1,2.8,1.2,3.4c0.4,0.2,1.1,0.7,3-1
		c0.9-0.8,1.6-1.8,2.3-2.8c0.5-0.8,1.1-1.6,1.7-2.3c2.7-3.2,4.1-7.3,4.1-12.4c0-0.9,0-1.7,0-2.6c0-1.7,0-3.5,0-5.2
		c0-1.1,0.2-2.3,1.8-3.1c1.7-0.8,3.3-1.9,4.9-3c1.1-0.7,2.2-1.5,3.4-2.2c1-0.6,2-1.3,2.8-2.2c3.9-5.1,7-10.9,9.3-17.3
		c0.9-2.4,1.2-4.9,1.7-7.5c0.2-1.2,0.4-2.4,0.6-3.5c1.1-5.6,3.3-10.1,6.9-13.7C580.7,413.7,575.1,418.4,570.4,423.7z"/>
	<path class="st2" d="M423.7,609.3c-0.6-0.2-0.8-0.5-1-0.8c-0.3-0.6-0.1-1.3,0.1-1.7l0.1-0.2c0.1-0.5,0.3-1,0.2-1.3
		c-1.1-4-1-8.1-0.9-12v-0.8c0.1-2.8-0.4-5.5-1-7.7c-0.8-3.2-2.8-5.6-4.9-7.6c-1.2-1.2-3.1-1.8-4.7-2.2c-0.1,0-0.2,0-0.3,0
		c-0.2,0-0.5,0.1-0.9,0.2h-0.1c-1.3,0.4-2.4,1.6-2.8,2.9c-0.4,1.2-0.2,2.5,0.6,3.5c1.3,1.8,0.8,3-0.2,4.3c-1.6,2.1-3.4,4.7-4.3,7.6
		c-0.6,2.1-0.3,3.1,1.4,4c1.8,1,1.7,2.3,1.4,3.4c-0.2,0.7-0.4,1.5-0.7,2.2c-0.5,1.6-1,3.3-1.6,4.9c-1.3,3.8-2,8.1-2.2,13.7
		c0,0.9,0.1,1.7,0.2,2.6c0.1,0.6,0.2,1.3,0.2,1.9c0.2,2.4,0.7,4.7,1.4,6.7c0.4,1.2,1.2,2,2.2,2.2c1.1,0.2,2.2-0.3,3-1.3
		c0.3-0.4,0.6-1.1,0.8-1.7c1.2-3.7,3.2-7.1,5.8-9.9c3.3-3.5,5.7-6.4,7.7-9.2l0,0c1.1-1.4,1.9-2.8,2.7-4.2
		C425.6,609,424.8,609.7,423.7,609.3z"/>
	<path class="st2" d="M470.4,648.6c0.2-1.7-0.3-3.3-1.5-4.8c-1.5-2-3-3.4-4.8-4.4c-5.8-3.5-9.4-7.9-11-13.6c-0.3-1-0.6-2-0.8-3
		c-0.6-2-1.1-4.1-1.6-6.1c-0.3-1-0.6-1.8-1.1-2.5c-0.4-0.7-0.7-0.7-1-0.6c-0.8,0.2-1,0.5-1.1,0.9s-0.1,0.7-0.1,1.1
		c0.1,1.7-0.4,3.2-0.9,4.8c-1.8,5.6-3.8,13.1-3.3,21.1c0.2,3.2,1.1,5.7,2.9,7.6c2.2,2.4,3.1,2.5,5.5,0.5l0.3-0.2h0.3
		c0,0,0.1,0,0.2-0.1l0.8-0.2l0.5,1.4c0.2,0.5,0.4,1,0.5,1.5c1.7,5.3,4.4,10.4,7.8,15.2c1.8,2.6,3.9,4.2,6.3,4.9
		c0.9,0.3,2.1,0.1,3.1-0.6c0.9-0.6,1.6-1.5,1.7-2.4l0,0c0.2-1.3,0.4-3.1-0.3-4.8C470.9,659.3,470.1,654.2,470.4,648.6z"/>
	<path class="st2" d="M581.4,567.4c-0.6,0-1.2-0.1-1.8-0.2c-0.5-0.1-1-0.1-1.4-0.1c-0.6,0-1.1,0.1-1.7,0.5c-1.9,1.2-3.2,2.1-4.1,3.7
		c-0.3,0.5-0.7,0.8-1,1.1c-0.1,0.1-0.2,0.2-0.3,0.3c-1.8,2.1-4.2,3.7-6.4,5.3c-0.5,0.4-1,0.7-1.6,1.1c-3.1,2.1-6.3,4.3-8.8,7.3
		c-1.3,1.5-2.8,2.2-4.1,2.6c-0.7,0.2-1.3,0.4-1.9,0.6c-1.5,0.6-2.2,1.5-2.2,2.7c0,1.4,1.1,2.1,2.1,2.3c2.2,0.6,4.2,2,6,4.3
		c0.7,0.8,1.3,1.7,1.8,2.6c1,1.8,2.3,3.5,3.4,5.2c0.7,1,1.4,1.9,2,2.9c0.8,1.1,1.3,1,1.8,0.8c0.7-0.3,1.3-1,1-1.8
		c-0.7-2.3,0.2-4,1-5.4c0.6-0.8,1.1-1.6,1.4-2.4c1.3-3.2,3.2-5.8,5.8-8.1c3-2.6,4.9-6.2,5.8-11c0-0.1,0-0.1,0-0.2
		c0.1-0.4,0.2-1.2,1.2-1.7l1.1-0.5l0.3,1.1c0.2,0.8,0.4,1.4,0.5,2.1c0.1,0.5,0.6,2.1,1.4,2c0.8,0,0.9-0.3,1.3-1.5l0.1-0.4
		c1.3-4.5,0.4-9.1-2.8-14.6C581.5,567.5,581.5,567.4,581.4,567.4z"/>
	<path class="st2" d="M402.8,463c0,1.2,0.3,2.3,0.6,3.6l0.2,0.7c0.5,1.8,1.8,3,3.2,4.1c1,0.7,2.6,0.6,3.5-0.3
		c0.6-0.6,0.5-1.9-0.2-3.1c-0.6-1-1.3-2.1-1.8-3.1c-0.9-2.1-2.1-4.8-0.1-7.4l0,0c0,0,0-0.2,0-0.3c0-0.2,0.1-0.3,0.1-0.5
		c0.5-2.4,1.7-4.7,3.5-7c0.8-1,1.7-1.9,2.5-2.9c1.5-1.6,2.8-3.1,3.8-4.8c1.3-2.4,1.9-4.3,1.7-6.3c-0.2-2.5-2-4.1-4.4-4.2
		c-1.5-0.1-2.9,0.4-4.4,1.4c-0.2,0.1-0.4,0.2-0.5,0.4c-0.5,0.4-1.2,1-2.2,0.8c-2.8-0.5-6.2-1.2-8-4.8c-0.8-1.5-1.4-3.2-2.1-5.3
		c-0.3-0.9-0.6-1.6-1.1-2c-0.4-0.4-0.9-0.7-1.4-0.7l0,0c-0.5,0-0.9,0.2-1.3,0.6c-1,1.1-1.3,2.4-1.4,3.7c0,0.3,0,0.7-0.1,1
		c0,0.7-0.1,1.5-0.2,2.2v0.1c-0.3,1.1,0.2,2.2,1.2,2.7c2.3,1.2,1.8,2.9,1.5,4.2c-0.3,0.8-0.5,1.4-0.6,2l-0.1,0.3
		c-0.5,2.1-1,4-1.1,5.9c0,0.7,0,1.3,0.1,1.7c0.8,3.3,1.7,6.9,3.2,10c0.9,2,2.1,3.9,4.2,4.6C402.8,460.9,402.8,462.5,402.8,463z"/>
	<path class="st2" d="M525.9,619.6c-0.2,0.1-0.4,0.2-0.6,0.3c-0.4,0.2-0.9,0.4-1.2,0.7c-0.7,0.8-1.7,1.2-2.7,1
		c-0.7-0.1-1.9-0.1-3,1.6c-0.8,1.2-2,2.3-3.6,3.4c-2.2,1.6-4.5,3.2-6.5,5.2c-0.6,0.6-1.7,1.4-3.3,1.2c-0.4-0.1-0.7-0.1-1.1-0.1
		c-1.7,0-3,0.8-3.9,2.6c-1.3,2.5-1.7,5.3-1.4,8.2c0.3,2.4,0.4,4.8,0.5,7.2c0.1,2,0.1,4.1,0.4,6.1c0.1,1.5,0.1,3.1,0,4.6
		c0,0.7,0,1.5,0,2.2v6c0,0.4,0,0.8,0,1.2c0,0.8,0,1.5,0,2.2c0,0.4,0.2,0.9,1,1c0.6,0.1,1-0.1,1.3-0.7c0.2-0.4,0.3-0.7,0.4-1.1
		c0.2-0.6,0.3-1.2,0.5-1.7c0.5-1.6,1-3.3,1.3-4.9c1-5.4,4-10,9.2-14.1c1.6-1.3,3-2.9,4-4.5c3.9-6.1,6.1-12.9,6.6-20.3
		c0.1-1.3,0.4-2.2,0.8-3l0.5-0.9c0.5-0.9,0.9-1.8,1.3-2.7l0,0c0.1-0.2,0.1-0.3,0.1-0.4l-0.2-0.1
		C526.3,619.5,526.2,619.5,525.9,619.6z"/>
	<path class="st2" d="M654.8,392.8c-0.4-0.2-0.7-0.5-1.1-0.8c-0.7-0.6-1.4-1.2-2.3-1.4c-0.9-0.3-1.7-0.5-2.1-1.2
		c-0.3-0.7-0.1-1.5,0.2-2.3c0.3-0.6,0.6-1.2,0.9-1.8c0.3-0.6,0.6-1.1,0.9-1.7c0.2-0.5-0.1-1.3-0.4-1.5c-0.7-0.4-1.2-0.1-1.4,0.1
		c-0.4,0.4-0.8,0.8-1.2,1.2c-2,2-4.2,4.1-5.7,6.5c-1.7,2.7-2.2,5.4-1.5,8.3c0.6,2.4,1.2,4.9,1.7,7.4c1.2,4.9,0.4,9.1-2.3,12.5
		c0,0.1-0.1,0.2-0.2,0.3c-0.1,0.2-0.2,0.3-0.3,0.5l0,0c-0.9,1.6-0.7,3.4,0.4,5c1.7,1.9,3.8,2.8,6.9,2.8c0.2,0,0.3,0,0.4,0
		c0.2,0,0.4,0,0.5,0c0.5,0,0.8,0,1.2-0.1c3.9-1.6,6.6-3.6,8.5-6.4c2.4-3.6,3.8-7.9,4-13C662.4,401.3,660,396.6,654.8,392.8z"/>
	<path class="st2" d="M381.2,520.5c-1.6-5.4-4.6-10.5-8.9-15.2c-1.6-1.8-3.3-2.8-5.1-3.1c-0.5-0.1-1-0.3-1.3-0.5l-0.2-0.1
		c-1.2-0.6-2-0.8-2.5-0.6c-0.5,0.2-0.8,0.9-1.1,2c-0.5,2.4-1.1,4.8-1.6,7.3c-0.1,0.4-0.1,0.7-0.2,1c-0.3,1.5-0.6,2.9-0.2,4.3
		c0.3,1,0.8,1.7,1.3,1.9s1.2,0,2.1-0.4c0.7-0.4,1.2-0.6,1.7-0.6c0.6,0,1.1,0.4,1.8,1.4c1.4,2.1,2.6,4.3,3.4,6.5
		c2.3,6.3,5,13.5,5.6,21c0.1,0.7,0.3,1.1,0.8,1.2c0.4,0.1,0.7,0,1.1-0.9l1.9-4.3c1.8-4.5,2.6-9.3,3.1-12.6c-0.2-2.2-0.7-4.2-1.3-6.4
		C381.5,521.6,381.4,521.1,381.2,520.5z"/>
	<path class="st2" d="M344.5,398.4c-0.9,0.3-1.8,0.3-2.7,0.4c-0.6,0-1.3,0.1-1.8,0.2c-1.6,0.3-2.6,1-3,2.1c-0.4,1.2-0.8,2.3-1.3,3.4
		c-0.9,2.3-1.8,4.4-1.9,6.8c-0.1,3.2,0.1,5.7,1.6,8c0.9,1.4,1.9,3.2,2.5,5.2c0.7,2.1,1.8,4,3.3,5.8c1.6,1.8,3.1,3.5,5.3,4.1
		c0.2,0.1,0.4,0.2,0.6,0.2c0.2,0.1,0.5,0.2,0.7,0.3c0.1-0.2,0.2-0.3-0.5-0.9c-0.1-0.1-0.2-0.2-0.3-0.3c-1.6-1.4-2.6-2.8-3.2-4.4
		c-2.1-6.3-1.1-11.9,2.9-16.6c1.5-1.9,3-3.7,3.9-5.9c0.5-1.3,0.9-2.5,0.7-4C350.8,400.6,347.6,398.5,344.5,398.4z"/>
	<path class="st2" d="M367.6,475.7l0.2,0.1c3.3,1.4,6.7,2.8,9.3,5.6c0.1,0.1,0.2,0.2,0.3,0.3l0.1,0.1c0.1,0.1,0.2,0.1,0.2,0.1
		s0-0.1,0-0.2c-0.1-0.5-0.3-1.1-0.4-1.7c-0.3-1.5-0.5-2.8-1.5-3.9c-2-2.5-3.2-5.4-3.8-9.5c-0.4-2.9-1.7-5.5-3.7-7.6
		c-3.6-3.7-7.4-7.6-9.4-12.8c-0.2-0.5-0.4-0.6-0.4-0.6s-0.3,0-0.8,0.6c-0.2,0.3-0.3,0.5-0.5,0.9c-0.6,1.4-0.8,2.8-1,4.3
		c-0.1,0.7-0.2,1.5-0.3,2.2c0.1,0.3,0.1,0.6,0.2,0.9c0.1,0.7,0.3,1.4,0.3,2.2c-0.1,2.6,0.4,4.9,1,6.8
		C359.3,469.7,362.6,473.7,367.6,475.7z"/>
	<path class="st2" d="M646.2,171.4c0.4-1.9,0.7-3.9,0.9-5.8c0.1-1,0.3-2,0.4-2.9c0.8-4.7,2.2-9.1,3.4-13l0.2-0.7l0.8,0.1
		c1.2,0.2,1.5,1,1.6,1.3c0.4,1.2,0.6,2.5,0.5,3.8c0.1-0.3,0.1-0.5,0.2-0.8c0.2-0.6,0.3-1.2,0.5-1.8c1.2-3.7,1.2-7.6,0-11.8
		c-1-3.5-1.4-6.4-1.2-9.1c0-0.2,0-0.4,0-0.7c0-0.6,0-1.2-0.1-1.7c-0.1-0.7-0.5-1.5-1.6-1.6s-1.7,0.4-2,1.4c-0.7,2.2-1.6,4.2-2.5,6.1
		c-0.6,1.2-1.1,2.3-1.7,3.4c-1,2-2.1,4-2.9,6.1c-2.9,6.8-6.3,11.8-10.7,15.8c-0.5,0.5-1.1,1.1-1.7,1.8c-1.5,1.8-2.5,3.7-3,5.8
		c-0.6,2.9-0.9,6-1.1,9c-0.1,0.9-0.1,1.8-0.2,2.7c-0.2,2.8-0.6,5.7-1,8.6c-0.1,0.9-0.2,1.7-0.3,2.6c-0.3,2.2-0.5,4.4-0.6,6.6
		l-0.9-0.1l0.9,0.1c-0.1,1,0.2,1.1,0.7,1.2l0.2,0.1c0.8,0.4,1.4,0.3,2.1-0.4c1.1-1.1,1.9-2.2,2.5-3.4c2.1-4.8,6-8.3,10.1-11.7
		C643.2,179.4,645.4,175.8,646.2,171.4z"/>
	<path class="st2" d="M363.5,196.4c0.9-2.1,1.5-4.4,2.1-6.6c0.5-1.9,1-3.8,1.7-5.6c0.3-0.9,0.3-1.7,0-2.8c-0.2-0.7-0.4-1.4-0.6-2
		c-0.3,1.3-1.1,2.4-2.7,3.5l-1.7,1.2l0.2-2c0.1-1,0-1.9-0.1-2.7c-0.1-0.4-0.1-0.8-0.1-1.2c-0.4-4.4-2.2-8.1-5.3-11.3
		c-0.9-1-1.5-2-2-3.4c-0.1-0.4-0.2-0.7-0.4-1.1c-0.2-0.7-0.4-1.3-0.7-1.9c-1.6-3.7-3.2-7.8-3.8-12.1c-0.4-2.5-0.9-4.4-1.5-6.3
		c-0.9-2.6-2.7-4.5-4.7-6.5c-0.8-0.9-1.7-1.8-2.5-2.7c-0.2-0.2-0.4-0.3-0.7-0.3c-0.5,0-1,0.2-1.3,0.3c-0.4,0.1-0.7,0.3-0.7,1.6
		c0,1,0.1,2,0.2,2.9c0.1,1,0.2,2,0.2,3c-0.1,6.7,1.2,13.3,2.5,18.9c0.4,1.7,0.4,3.3-0.1,5c-0.4,1.5-1.2,3-3.7,3.2l0,0
		c-2.2,0.2-4.1,1.5-5.1,3.4c-0.8,1.7-0.7,3.5,0.3,5.2c0.2,0.3,0.4,0.6,0.6,0.9c0.6,0.9,1.2,1.7,1.8,2.4l1.1,1.1
		c2.1,2.1,4.2,4.2,6.2,6.5c1,1.3,2.1,2.9,2,5.2c-0.1,1.8-0.2,3.6,0.1,5.3c0.4,2.5,0.3,4.8,0.1,7.5c-0.1,1.6,0.2,3.8,2.2,5.1
		c1.4,0.8,2.9,0.8,4.8-0.1C357,207.4,360.8,203.1,363.5,196.4z"/>
</g>
<g>
	<path class="st3" d="M482.4,577.9c-0.3,0-0.5,0.1-0.7,0.1c-0.4,0.1-0.8,0.2-1.3,0.2c-1.6-0.1-2.7-1.4-3-3.8
		c-0.3-2.3-0.6-4.6-0.6-6.9c0-4.7-0.1-9.4-0.1-14s-0.2-9.2-0.8-13.8c-0.6-3.8-1.5-7.3-4.3-10.2c-1.1-1.1-2-1.3-3.4-0.6
		c-5.7,2.5-11.6,3-17.6,1.9c-0.9-0.1-1.8-0.3-2.8-0.5c-0.9-0.3-1.5-0.1-1.8,1c-1.7,5.2-3.1,10.6-4.5,16c-0.5,1.9-0.8,3.9-1,5.9
		c-0.8,7.4-0.4,14.8,0.5,22.1c0.1,0.9,0.4,1.8,0.7,2.7c1.7,4.2,3.4,8.3,5.3,12.3c1.2,2.5,2.8,4.7,4.8,6.7
		c5.6,5.6,12.3,9.1,19.9,11.1c7.2,1.9,14.4,3.1,21.8,2.6c6.1-0.5,11.6-2,15.9-6.9c1.6-1.7,3.5-3.3,5.2-4.9c2.2-2.1,4.4-4.3,6.5-6.5
		c1.1-1.2,1.9-2.5,2.4-3.9c2.8-8.3,4-16.9,3.9-25.6c-0.1-6.6-0.3-13.1,0.2-19.6c0.2-3-0.4-5.8-1.7-8.5c-0.6-1.3-1.1-2.6-1.2-3.9
		c0-1.2-0.6-1.5-1.7-1.3c-0.5,0.1-0.8,0.1-1.2,0.1c-9.7,0.5-19.3,0.1-29-1.5c-1.2-0.2-2.5-0.6-3.7-0.8c-0.2,0.2-0.3,0.4-0.4,0.6
		c-1.7,2.6-2,5.3-2,8.3c0,3.8-0.3,7.4-0.4,11.1c-0.3,5.9-0.3,11.6,0.1,17.5c0.2,2.6,0.4,5.2,0.2,7.8
		C486.7,575.4,485,577.2,482.4,577.9z"/>
</g>
<g>
	<path class="st4" d="M645.4,490.9c1.9-0.6,3.5,0.2,4.7,1.7c0.5,0.6,0.8,1.2,1.2,1.7c0.3,0.5,0.6,1.1,0.8,1.7
		c0.1,0.1,0.1,0.3,0.2,0.4c0.1,0.3,0.2,0.5,0.4,0.8l0.3-1c0.4-1.5,0.7-3.1,0.8-4.6c0.7-5.3,1.6-10.8,2.4-16v-0.2
		c0.9-5.7,1-11.2,0.5-16.6v-0.5c-0.4,0.5-0.7,0.9-1,1.4c-0.4,0.6-0.8,1.1-1.2,1.7c-2.6,3.8-6.4,6.2-9.3,9.6
		c-0.1,0.2-0.3,0.3-0.4,0.3c-1,0.1-1.4,0.8-1.8,1.6c-1.8,2.8-3.8,5.4-5.7,8.1c-0.1,0.1-0.1,0.2-0.2,0.3c-1.1,1.8-2.5,3.5-3.9,5.1
		c-0.4,0.4-0.6,0.8-0.9,1.2c-0.3,0.4-0.5,0.9-1.2,0.9c0.1-0.4,0.1-0.6,0.2-1c-0.2,0-0.4-0.1-0.6-0.3c-0.5-0.5-0.4-1,0-1.5
		s0.7-0.8,1.1-1.2c0.1-0.1,0.1-0.1,0.2-0.2c2.5-12.5,4-25.1,6-37.9c0-0.1-0.1-0.1-0.1-0.2s0-0.1,0-0.1c-0.1-0.1-0.1-0.3-0.2-0.4
		v-0.1c0-0.1-0.1-0.3-0.1-0.4v-0.1c-0.1-0.1-0.1-0.3-0.1-0.5c-0.1-0.7,0.1-1.4,0.8-1.7c0-0.1,0.1-0.1,0.2-0.1
		c0.2-1.4,0.5-2.8,0.6-4.1c1.5,1.8,2.1,3.3,3,7.6c0.3,0.6,0.6,1.1,0.8,1.7c0,0.1,0.1,0.2,0.1,0.3c0.7,1.7,1.2,3.6,1.2,5.4
		c0.2-0.2,0.4-0.4,0.6-0.6c1.9-1.7,3.8-3.5,5.5-5.3c6.8-7.1,12.2-15.2,17.5-23.4c0.6-0.9,0.9-1.9,1.3-2.9c2.8-7.9,3-16,3.3-24.3
		c0.1-1.2-0.1-2.5-0.4-3.7c-0.7-3-1.6-6-2.1-9c-0.3-1.3-1-2.4-1.7-3.5c-1.3-1.7-2.4-3.4-3.7-5c-3.2-4.3-4-8.9-2.2-13.9
		c0.5-1.4,0.9-2.7,1.4-3.9c0.4-1.1,0.7-2.2,0.7-3.4c0.1-3.7-0.6-7.2-2.6-10.4c-2.1-3.3-3.3-6.8-4-10.6c-0.6-2.8-1.5-5.4-2.8-7.8
		c-2.6-4.5-7.5-6.2-12.3-4.6c-1.3,0.5-2.6,1-3.7,1.9c-3.2,2.7-5.1,6-4.4,10.3c0.5,2.8,1.4,5.5,2.6,8.1c1.9,4,3.8,8.1,5.7,12.1
		c0.8,1.8,1.7,3.7,2.2,5.6c1.4,5,0.5,9.6-2.8,13.7c-3.6,4.3-8.1,7.2-13.4,9c-4.3,1.4-8.8,2.3-13.3,2.8c-6.6,0.6-13.1,1.7-19.3,4.3
		c-2,0.9-3.9,1.9-5.4,3.5c-2.8,3-5.8,6-8.7,8.9c-2.3,2.3-4.7,4.5-7.2,6.4c-5.1,3.8-10.9,5.5-17.1,5.5c-0.5,0-1,0-1.5,0
		c-1.9,3.2-4.6,5.9-7.2,8.5l-0.5,0.5c-1.8,1.7-3.8,3-6.5,4.2c-4.2,1.8-9,3-14.6,3.7c-3.6,0.4-7.3,0.4-10.7-0.3l-2.9-0.5
		c0.8,0.5,1.5,1,2.3,1.6c6,4.6,10.1,10.8,13.1,18.2c7.8,19.1-1.4,39.8-15.2,49c-4.4,2.9-8.8,5.9-13.7,8.1c-4.3,1.9-8.3,4.7-12.7,6.3
		c-1.1,0.5-1.2,1.1-0.8,2c0.5,1.1,0.9,2.1,1.5,3.1c0.4,0.7,1,0.8,1.7,0.9c3.4,0.5,6.8,1,10.3,1.3c6.9,0.5,13.8,0.5,20.7,0
		c4.4-0.4,8.4-1.4,12.3-3.6c6.2-3.6,11.1-8.6,16.2-13.5c1.6-1.6,3.1-3.2,4.9-4.6c3.1-2.4,6-5.1,8.6-8c2.2-2.3,3.7-5.1,4.4-8.3
		c0.6-2.4,1.1-4.8,1.7-7.2c1.3-5.9,3.9-11.2,7.1-16.2c1.5-2.2,2.8-4.4,4.2-6.6c2.4-3.8,4.9-7.4,7.7-10.9c2.5-2.9,4.8-6.1,6.9-9.3
		c1.7-2.7,4-4.7,6.6-6.3c2.7-1.8,5.2-3.9,7.9-5.6c4.3-2.8,5.9-7.2,6.1-12c0.1-1.5,0.1-3-1.4-4.1c-0.8-0.6-1.1-1.8-0.5-2.9
		c0.7-1.3,2-1.7,3.3-1.8c0.8-0.1,1.7,0.2,2.5,0.4c3.5,1,7.3,5.8,8,9.1c0.2,2.4-0.7,4.4-2.2,6.1c-0.6,0.6-1.1,1.2-2,0.9s-1-1-1-1.8
		c0-0.3-0.1-0.6-0.4-0.8c-0.6,0.6-0.5,1.4-0.6,2.1c-0.6,5.6-2.6,10.8-5.4,15.8c-1.6,2.8-3.8,4.9-6.4,6.7
		c-7.9,5.5-14.9,11.8-19.2,20.8c-1.1,2.2-2.5,4.2-3.8,6.3c-2.4,3.9-4.4,8.2-6,12.5c-2.5,6.7-5.4,13.2-8.5,19.6c-1.7,3.6-4,6.7-7,9.4
		c-1.1,0.9-1.8,2-2.5,3.3c-1.9,4-3.4,8.1-4,12.5c-0.8,5.9-2.9,11.3-5.6,16.5c-4.4,8.8-9.3,17.3-15.3,25.1c-0.8,1.2-1.2,2.3-1,3.7
		c0.4,2.5,0.3,4.9,0,7.2c0.4-0.2,0.8-0.4,1.2-0.6c0.1-0.1,0.3-0.1,0.4-0.2c0.4-0.1,0.6-0.3,1-0.5c0.2-0.1,0.4-0.2,0.6-0.3
		c0.4-0.1,0.6-0.3,0.9-0.5c0.3-0.1,0.5-0.3,0.6-0.4c0.3-0.1,0.6-0.3,0.8-0.5s0.5-0.3,0.6-0.5c0.3-0.1,0.5-0.3,0.7-0.5
		c0.3-0.1,0.6-0.3,0.7-0.5c0.2-0.1,0.5-0.3,0.6-0.5c0.3-0.2,0.5-0.4,0.7-0.6c0.3-0.1,0.5-0.3,0.6-0.5c0.3-0.3,0.6-0.6,0.9-0.8
		c0.1-0.1,0.2-0.2,0.3-0.3c2.7-2.6,5.6-4.9,8.5-7.1c1.5-1.1,2.7-2.3,3.6-3.9c1.1-1.8,2.3-3.7,3.4-5.5c2.5-3.9,3.5-8.2,4.1-12.6
		c0.6-4,0.9-8.3,2.1-12.2c2-6.5,4.7-12.8,9.8-17.5c6.7-6.1,10.9-13.8,14.2-22c0.9-2.3,1.8-4.6,2.5-7c0.8-2.9,2.6-5.3,4.9-7.3
		c3.5-3,6.2-6.5,8.4-10.5c1.4-2.5,2.8-5,4.1-7.4c0.3-0.6,0.6-1.1,1.2-1.2c0.1,0,0.2,0,0.3,0c0.7,0.1,1.2,0.7,1.5,1.4
		c1.3,2.6,1.3,5.3,0.6,8.1c-1.3,4.4-2.8,8.7-5,12.8c-0.6,1.1-1.3,2.1-2.3,2.8c-1.3,0.9-2,2.2-2.7,3.7c-2.2,5-4.3,10.1-8,14.2
		c-0.8,0.9-1.3,2.1-1.8,3.2c-3.2,6.6-7.2,12.7-12.9,17.4c-1.6,1.3-2.4,2.8-2.4,5c0,5.3-1.7,10.2-3.6,15.1
		c-3.1,8.2-7.5,15.7-11.9,23.1c-2.4,3.9-5.5,7.2-9.4,9.9s-8,5.1-11.6,8.3c-1.1,1-2.4,1.7-3.7,2.4c-1.7,0.9-3.6,1.8-5.2,2.9
		c-0.5,0.4-1,0.6-1.5,0.8c-0.5,2.8-1.6,5.6-2.4,8.3c-1,3.3-2.9,6.1-5.2,8.6c-4.3,4.8-9,9.1-13.8,13.3c-3.7,3.3-8.3,4.2-12.9,5.2
		c-4.3,0.9-8.5,0.3-12.8-0.1c-6.9-0.6-13.5-2-20.1-4s-12.3-5.5-16.9-10.5c-0.3-0.2-0.6-0.4-0.7-0.7c-0.1-0.2-0.1-0.3-0.2-0.4
		c-0.5-0.5-0.8-0.9-1.2-1.4c-2.4-3.1-4.9-6.1-7.2-9.3c-2.6-3.4-4.4-7.1-5.4-11.1c-0.5-0.1-0.8-0.1-1.3-0.2c-0.1,0-0.1,0-0.2,0
		c-0.5-0.1-0.9-0.2-1.3-0.3c-0.4-0.2-0.7-0.3-1.1-0.5c-0.1,0-0.2-0.1-0.3-0.1c-0.3-0.1-0.6-0.3-1-0.5c-0.1,0-0.1,0-0.1,0
		c-7.6-4-13.9-9.5-19.4-16c-5.1-6-8.5-12.9-10.5-20.5c-0.1-0.6-0.3-1-0.4-1.6c-0.2-1-0.5-1.8-1.8-1.9c-0.3,0-0.6,0-0.8,0
		c-0.7,0-1.4,0.2-1.8,1.1c-0.2,0.5-0.5,0.8-0.8,1.1c-0.5,0.5-1.1,0.6-1.7,0.6c-1,0-1.8-0.6-1.9-1.7c-0.6-5-2.1-9.9-1.6-15
		s-0.9-10-3.3-14.6c-0.7-1.6-1.5-3.1-2.4-4.5c-2-3.2-4.7-5.9-7.9-8c-1.3-0.8-2.5-1.8-3.8-2.7c-2.7-1.7-3.8-4.6-5-7.2
		c-0.4-0.7-0.4-1.6,0.2-2.2c0.5-0.6,1-0.7,1.7-0.7c0.2,0,0.5,0,0.6,0.1c1.5,0.5,2.8,1.3,3.9,2.3c2.2,1.9,4.9,3.3,7.2,5
		c5.7,4.1,10.5,8.9,13.4,15.5c0.3,0.7,0.7,1.5,1.2,2.2c1.9,2.9,2.8,6.1,2.5,9.4c-0.1,1.6,0.1,3,0.6,4.5c3,9.5,7.1,18.6,13.2,26.5
		c0.7,1,1.6,1.9,2.3,2.8c0.2,0.2,0.3,0.4,0.5,0.6c0.6,0.7,1.3,1.4,1.9,2.1c0.6,0.6,1.1,1.1,1.7,1.7c0.3,0.3,0.6,0.6,0.8,0.8
		c0.7,0.6,1.6,1.4,2.3,2c0.2,0.1,0.3,0.2,0.4,0.3c0.9,0.7,1.7,1.4,2.7,2.1c0,0.1,0.1,0.1,0.1,0.1c2.8,2.1,5.8,3.9,8.9,5.6
		c0,0.1,0.1,0.1,0.1,0.1c-0.6-1.8-0.9-3.8-0.9-5.7c-0.1-0.1-0.2-0.1-0.3-0.2c-2-1.7-4.1-3.3-5.3-5.7c-1-2-2.3-3.9-3.5-5.7
		c-4-6.5-7.6-13.1-8.6-20.9c-0.7-5-1.9-9.9-2.6-14.9c-0.4-2.6-1.5-5-2.5-7.4c-0.5-1.1-0.9-2.1-1.4-3.2c0-0.1-0.1-0.3-0.1-0.4
		s0-0.1,0-0.2s0-0.1,0-0.2c0-0.2,0-0.3,0-0.5v-0.1c-4.7-5.3-8.7-11.1-11.6-17.6c-1-2.1-2.3-4-3.8-5.8c-2.4-2.8-4.7-5.5-6.8-8.4
		c-4.2-5.6-6.5-12-7-19c-0.2-2.7-1.2-5-1.7-7.6c-0.2-0.6-0.7-1.2-1.2-1.7c-0.9-0.9-1.7-2-2.2-3.2c-1.3-3.3-2.6-6.6-3.8-9.9
		c-0.7-2-1.3-2.4-3.4-1.8c-0.8,0.3-1.7,0.5-2.7,0.6c0,0.9,0.8,1,1.3,1.5s0.7,0.9,0.6,1.5c-0.2,0.6-0.7,0.9-1.4,1
		c-1.1,0.1-2-0.2-2.9-0.6c-3-1.6-4.7-4-5.1-7.2c-0.6-5,0.6-9.4,3.7-13.4c2.5-3.3,6.4-2.9,8.3,0.8c0.6,1,0.9,2.1,1.2,3.2
		c0.5,1.7,1.4,3,2.9,3.9c0.7,0.5,1.5,1,2.2,1.4c3.4,1.8,5.3,4.6,6.5,8.3c1.9,6.3,3.4,12.7,5,19.2c0.9,3.5,1.7,7,2.7,10.5
		c0.4,1.7,1,3.2,1.8,4.7c2.7,4.7,5.4,9.2,9,13.3c3.6,4.1,6.5,8.8,9.3,13.5c5.6,9.7,13.5,16.9,23,22.5c5.3,3.1,11.2,4.7,17.1,5.9
		c3.7,0.7,7.4,1.1,11.2,0.9c2.5-0.2,4.8-1,6.9-2.3c1.7-1,1.1-2.3,1-3.7c-0.1-1.3-0.9-1.6-1.9-1.8c-3.2-0.8-6.3-2-9.3-3.5
		c-7.1-3.6-12.3-9.1-16.6-15.6c-2.8-4.2-5.2-8.5-8.3-12.5c-3.3-4-5.4-8.8-7.1-13.7c-1.4-3.9-1.4-7.9-0.4-11.8
		c1.7-6.4,3.2-12.8,4.7-19.3c1.1-5,4.1-8.3,8.6-10.5c0.6-0.4,1.4-0.7,2.1-1c0.4-0.2,0.7-0.3,1.1-0.4l-0.3-0.3c-1.1-1-1.8-2.4-2-3.9
		c-0.3-2.9-0.9-5.6-1.8-8.3c-1.9-5.3-5.3-8.4-10.3-9.3l-0.4-0.1c-1.8-0.4-3.6-0.7-5.5-0.1l-1.1,0.4c-3.2,1.1-6.6,2.2-9.5,4
		c-0.8,0.5-1.6,0.6-2.8,0.3c-0.8-0.2-1.6-0.4-2.4-0.8c-4.7-2.1-7.4-4.7-8.7-8.5c-0.2-0.5-0.2-1.1-0.3-1.7c0-0.7-0.1-1.4-0.4-2.2
		c-0.5-1.2-1-2.2-1.7-3.3c-0.4,0.2-0.9,0.3-1.3,0.5c-3.5,1.2-7.2,1.5-11.4,0.9c-0.7-0.1-1.6-0.3-2.2-0.6c-1-0.6-2-0.7-3.1-0.7
		c-6.7-0.3-13.3-0.6-19.8-2.6c-3.1-0.9-6.4-1.2-9.6-0.6c-6,1.1-11.3,3.5-15.3,8.3c-2.4,2.8-4,6-4.2,9.5c-0.4,7.1,0.5,14,3.9,20.4
		c1.8,3.4,3.8,6.7,5.6,10.1c3.4,6.2,7.1,12.3,9.8,18.8c0.3,0.7,0.7,1.6,1.2,2.2c2.7,3.7,4.7,7.7,6.6,11.8c0.6,1.3,1,2.6,1.3,3.9
		c0.9,2.2,1.9,4.5,2.8,6.8c0.3,0.6,0.5,1.2,0.6,1.7c0.6,1.9,0.3,3.2-1,4.1c-0.6,0.6-1.5,0.8-2.3,0.8s-1.7-0.2-2.4-0.7
		c-0.1,0-0.1,0-0.1,0c-0.3-0.2-0.6-0.4-0.8-0.6c-0.1-0.1-0.1-0.1-0.2-0.2c-0.3-0.2-0.5-0.5-0.6-0.6c-0.2,0.2-0.4,0.4-0.6,0.6
		c-0.5-1.1-0.9-2-1.3-2.9c-0.1-0.1-0.2-0.2-0.4-0.3c-0.2-0.3-0.5-0.6-0.7-0.9v0.1c-0.4,1.8-0.4,3.6,0.2,5.8
		c1.7,7.6,3.4,15.9,3.7,24.6c0.3,6.9,1.8,13.5,3.3,20l0.3,1.3c0.3,1.5,0.9,3,1.5,4.5c0.2,0.4,0.3,0.7,0.5,1.1l0.3,0.7
		c0.1-0.1,0.1-0.3,0.2-0.4c0.8-1.7,1.5-3.5,2-5.2c0.3-0.8,0.5-1.7,1.1-2.5c1-1.2,2.1-1.2,3.2,0c2.4,2.4,2.8,5.5,3.4,8.6
		c0.5,2.6,0.5,5.2,0.6,7.8c0.2,4.7,0.9,9.3,3.3,13.5c0.3,0.5,0.6,0.9,0.8,1.4c0.6,0.8,1,1.7,1.6,2.5c0.1,0,0.1,0.1,0.2,0.2
		c0.5,0.5,0.8,1,1.3,1.6c0.1,0,0.1,0.1,0.2,0.2c0.9,1.1,2,1.9,3.2,2.7c0.4,0.2,0.6,0.4,1,0.6c3.9-2,7.8-0.6,9.3,3.6
		c1.9,5.4,3.6,10.9,4.2,16.7c0.8,7.2,0.1,14.4-0.2,21.6c-0.3,10.5,0.3,20.9,2.5,31.2c1,4.2,2.7,8.2,5.6,11.5c1.2,1.3,2.3,2.7,3.4,4
		l0.1,0.1c0.4,0,0.6,0.1,0.9,0.1c0.1-0.1,0.2-0.2,0.3-0.4c0.3-0.6,0.5-1.1,0.7-1.7c2.3-5.4,4.9-10.6,8-15.6c1.4-2.1,2.9-4.1,4.6-6.1
		c0.8-0.9,1.6-1.7,2.6-2.4c3.3-2.2,7.2-1,8.6,2.6c0.7,1.7,0.7,3.5,0.6,5.2s-0.4,3.5-0.6,5.2c0,0.1-0.1,0.3-0.1,0.4
		c3,4.7,6.4,9.2,10.2,13.7c1.5,1.7,2.8,3.4,3.6,5.4c2.7,6.9,6.3,13,10.8,18.2c2.3,2.6,4.3,5.2,6,7.5h0.6H511h1.2
		c0.2-0.3,0.5-0.6,0.7-0.9c0.3-0.4,0.6-0.8,0.9-1.1c0.6-0.8,1.8-2.3,0.7-4c-0.5-0.6-0.5-1.2,0.1-2.2v-0.1c0.1-0.1,0.1-0.3,0.2-0.4
		c0.2-0.6,0.5-1.3,0.5-2c0.1-1,0.5-1.4,1.6-2c7.1-4.4,13.2-9.4,18.3-14.9c0.2-0.2,0.4-0.4,0.6-0.6c0.2-0.3,0.5-0.5,0.7-0.7
		c0.1-0.3,0.1-0.5,0.2-0.8c0.1-0.1,0.1-0.2,0.1-0.3c0.9-3.4,0.7-7,0.1-10.5c-0.2-0.6-0.4-1.2-0.6-1.7c-1.6-4.6-1.3-9,1.3-13.1
		c1.1-1.7,1.7-3.8,3-5.4c0.6-0.8,0.5-1.7,0.5-2.7c-0.2-4.2,0.7-8.2,2-12c1.2-3.6,5-4.3,7.4-1.5c0.6,0.6,0.9,1.4,1.4,2.1
		c0.6,0.9,1.1,1.8,1.7,2.8c0.4,0.7,1,1.1,1.8,1.2c4.1,0.6,8,2,12.1,2.8c1.7,0.3,3.4,0.7,5.2,0.5c0.7-0.1,1.6,0.1,2.3,0.1
		c2.8,0.1,3.1-0.2,3.5-2.9c0.1-0.9,0-1.8-0.2-2.8c-0.1-0.7-0.3-1.6-0.3-2.3c0-2.8,2.5-4.3,5-2.8c1.1,0.6,2.1,1.4,3.5,2.3
		c1.1-4.2,2.5-8.1,2.6-12.3c0-2.1,0.1-4.3,0.5-6.4c0.9-5.3,4.1-8.1,9.5-8.2c2.8-0.1,5.3,0.6,7.9,1.5c1.7,0.7,3.6,1.4,5.3,2.2
		c0.9,0.5,1.7,0.4,2.5-0.4c0.8-0.9,1.7-1.7,2.6-2.7c2.4-2.7,4.8-5.5,7.2-8.2c1.8-2.1,3-4.5,3.8-7.2c1.5-5.4,1.8-11.1,2.7-16.6
		c1.6-10.7,4.4-21.2,7.9-31.5c0.6-1.7,1.4-3.3,2.2-4.9c0.6-1.1,1.2-2.2,1.7-3.3c1.6-2.8,2-5.7,1.2-8.9c-1-3.9-1.5-8.2-1.4-12.3
		c0-0.9,0-1.7,0.1-2.6C642.8,493,643.6,491.5,645.4,490.9z M640.2,418.8L640.2,418.8c0.1-0.2,0.2-0.3,0.3-0.5
		c0.1-0.1,0.2-0.2,0.2-0.3c2.7-3.4,3.5-7.6,2.3-12.5c-0.5-2.4-1.1-5-1.7-7.4c-0.7-2.9-0.3-5.6,1.5-8.3c1.5-2.5,3.6-4.5,5.7-6.5
		c0.4-0.4,0.8-0.8,1.2-1.2c0.3-0.3,0.7-0.6,1.4-0.1c0.3,0.2,0.6,1,0.4,1.5c-0.3,0.6-0.6,1.1-0.9,1.7c-0.3,0.6-0.6,1.2-0.9,1.8
		c-0.3,0.8-0.6,1.6-0.2,2.3c0.3,0.7,1.1,1,2.1,1.2c0.8,0.2,1.5,0.8,2.3,1.4c0.4,0.3,0.7,0.6,1.1,0.8c5.2,3.8,7.6,8.5,7.3,14.4
		c-0.2,5-1.5,9.4-4,13c-1.9,2.7-4.6,4.8-8.5,6.4c-0.3,0.1-0.7,0.1-1.2,0.1c-0.2,0-0.4,0-0.5,0s-0.3,0-0.4,0c-3.1,0-5.2-0.9-6.9-2.8
		C639.5,422.2,639.3,420.4,640.2,418.8z M581.1,422.5c-0.2,1.2-0.4,2.4-0.6,3.5c-0.4,2.6-0.8,5.1-1.7,7.5
		c-2.3,6.3-5.4,12.2-9.3,17.3c-0.7,1-1.8,1.7-2.8,2.2c-1.2,0.7-2.3,1.5-3.4,2.2c-1.6,1.1-3.2,2.2-4.9,3c-1.6,0.7-1.8,1.9-1.8,3.1
		c0.1,1.7,0,3.5,0,5.2c0,0.9,0,1.7,0,2.6c0,5.1-1.3,9.2-4.1,12.4c-0.6,0.7-1.2,1.5-1.7,2.3c-0.7,1.1-1.4,2.1-2.3,2.8
		c-1.9,1.7-2.7,1.2-3,1c-1.1-0.6-1.6-2.1-1.2-3.4c0.5-1.5,1.1-3.1,1.6-4.6c0.5-1.3,0.9-2.5,1.3-3.8c1.6-4.4,1.2-8.9,0.8-12.3
		c-0.2-1.6-0.4-3.6,0.1-5.6c0.4-1.5,0.3-2.7-0.3-3.8c-0.6-1.1-0.6-2.4-0.7-3.7c-0.2-2-0.2-3.9,0-5.8c0.3-3.2,1.7-5.2,4.3-6
		c0.4-0.1,0.8-0.2,1.2-0.2s0.8,0.1,1.2,0.2c2.2,0.7,3.8,0.1,5.4-1.8c4.3-5.3,7.9-9.5,11.3-13.3c4.7-5.3,10.3-10,17.6-14.8
		C584.5,412.4,582.2,416.9,581.1,422.5z M392.7,429L392.7,429c0.1-0.9,0.2-1.6,0.2-2.3c0-0.3,0-0.7,0.1-1c0.2-1.3,0.4-2.6,1.4-3.7
		c0.4-0.4,0.8-0.6,1.3-0.6l0,0c0.5,0,1,0.2,1.4,0.7c0.4,0.4,0.8,1.1,1.1,2c0.7,2.1,1.3,3.8,2.1,5.3c1.8,3.6,5.3,4.3,8,4.8
		c1,0.2,1.7-0.4,2.2-0.8c0.1-0.1,0.3-0.2,0.5-0.4c1.5-1,2.9-1.5,4.4-1.4c2.5,0.1,4.2,1.7,4.4,4.2c0.1,2-0.4,3.9-1.7,6.3
		c-1,1.8-2.4,3.3-3.8,4.8c-0.8,0.9-1.7,1.8-2.5,2.9c-1.8,2.3-2.9,4.6-3.5,7c0,0.1-0.1,0.3-0.1,0.5c0,0.1,0,0.3,0,0.3l0,0
		c-2,2.7-0.8,5.3,0.1,7.4c0.5,1.1,1.1,2.1,1.8,3.1c0.8,1.2,0.8,2.5,0.2,3.1c-0.9,0.9-2.4,1-3.5,0.3c-1.4-1.1-2.8-2.3-3.2-4.1
		l-0.2-0.7c-0.3-1.2-0.6-2.4-0.6-3.6c0-0.5,0-2.1-1.7-2.6c-2.1-0.7-3.3-2.6-4.2-4.6c-1.5-3.1-2.4-6.7-3.2-10
		c-0.1-0.5-0.1-1.1-0.1-1.7c0.1-1.9,0.6-3.9,1.1-5.9l0.1-0.3c0.2-0.6,0.4-1.2,0.6-2c0.4-1.3,0.9-3-1.5-4.2
		C392.9,431.2,392.5,430.1,392.7,429z M350.6,406.9c-0.9,2.2-2.3,4-3.9,5.9c-4.1,4.7-5.1,10.3-2.9,16.6c0.5,1.6,1.6,3,3.2,4.4
		c0.1,0.1,0.2,0.2,0.3,0.3c0.7,0.6,0.6,0.7,0.5,0.9c-0.1,0-0.5-0.2-0.7-0.3c-0.2-0.1-0.4-0.2-0.6-0.2c-2.2-0.7-3.7-2.3-5.3-4.1
		c-1.6-1.8-2.6-3.7-3.3-5.8c-0.6-2-1.6-3.7-2.5-5.2c-1.5-2.3-1.7-4.8-1.6-8c0.1-2.4,0.9-4.6,1.9-6.8c0.5-1.1,0.9-2.2,1.3-3.4
		c0.4-1.1,1.3-1.8,3-2.1c0.6-0.1,1.2-0.1,1.8-0.2c0.9,0,1.8-0.1,2.7-0.4c3.1,0.1,6.3,2.2,6.9,4.4
		C351.6,404.4,351.1,405.5,350.6,406.9z M357.5,463.3c-0.5-1.9-1.1-4.2-1-6.8c0-0.8-0.1-1.5-0.3-2.2c-0.1-0.3-0.1-0.6-0.2-0.9
		c0.1-0.7,0.2-1.5,0.3-2.2c0.2-1.4,0.4-2.9,1-4.3c0.2-0.4,0.3-0.7,0.5-0.9c0.5-0.6,0.8-0.6,0.8-0.6s0.2,0.1,0.4,0.6
		c2,5.2,5.7,9.1,9.4,12.8c2,2.1,3.3,4.6,3.7,7.6c0.6,4.1,1.7,7.1,3.8,9.5c0.9,1.1,1.2,2.5,1.5,3.9c0.1,0.6,0.2,1.2,0.4,1.7
		c0,0.1,0,0.2,0,0.2c-0.1,0-0.1,0-0.2-0.1l-0.1-0.1c-0.1,0-0.2-0.2-0.3-0.3c-2.6-2.8-6-4.3-9.3-5.6l-0.2-0.1
		C362.6,473.7,359.3,469.7,357.5,463.3z M379.9,541.2l-1.9,4.3c-0.5,0.9-0.7,0.9-1.1,0.9c-0.4-0.1-0.7-0.5-0.8-1.2
		c-0.7-7.5-3.3-14.6-5.6-21c-0.8-2.3-2-4.5-3.4-6.5c-0.7-1-1.2-1.4-1.8-1.4c-0.4,0-1,0.2-1.7,0.6c-0.9,0.5-1.6,0.6-2.1,0.4
		c-0.5-0.2-0.9-0.8-1.3-1.9c-0.5-1.4-0.1-2.8,0.2-4.3c0.1-0.3,0.1-0.6,0.2-1c0.5-2.4,1.1-4.9,1.6-7.3c0.2-1.1,0.6-1.8,1.1-2
		s1.3,0,2.5,0.6l0.2,0.1c0.4,0.2,0.8,0.4,1.3,0.5c1.8,0.3,3.5,1.3,5.1,3.1c4.3,4.7,7.3,9.8,8.9,15.2c0.2,0.6,0.3,1.1,0.5,1.7
		c0.6,2.1,1.2,4.2,1.3,6.4C382.5,531.8,381.7,536.7,379.9,541.2z M423.3,612.8L423.3,612.8c-2,2.8-4.4,5.7-7.7,9.2
		c-2.6,2.9-4.5,6.2-5.8,9.9c-0.3,0.7-0.5,1.3-0.8,1.7c-0.9,1-2,1.5-3,1.3s-1.8-1-2.2-2.2c-0.7-2-1.2-4.3-1.4-6.7
		c0-0.7-0.1-1.3-0.2-1.9c-0.1-0.9-0.3-1.7-0.2-2.6c0.2-5.6,0.9-9.8,2.2-13.7c0.6-1.6,1.1-3.3,1.6-4.9c0.2-0.7,0.4-1.4,0.7-2.2
		c0.3-1.2,0.4-2.5-1.4-3.4c-1.7-0.9-2-1.9-1.4-4c0.9-2.9,2.7-5.5,4.3-7.6c1.1-1.3,1.5-2.5,0.2-4.3c-0.8-1-1-2.3-0.6-3.5
		c0.4-1.4,1.5-2.5,2.8-2.9h0.1c0.4-0.1,0.7-0.2,0.9-0.2c0.1,0,0.2,0,0.3,0c1.6,0.4,3.5,1,4.7,2.2c2.1,2.1,4.1,4.4,4.9,7.6
		c0.5,2.2,1.1,4.9,1,7.7v0.8c-0.1,3.9-0.2,8,0.9,12c0.1,0.3-0.1,0.8-0.2,1.3l-0.1,0.2c-0.2,0.4-0.4,1.1-0.1,1.7
		c0.1,0.3,0.4,0.6,1,0.8c1.1,0.4,1.9-0.3,2.2-0.8C425.2,610,424.4,611.4,423.3,612.8z M473.2,669.1L473.2,669.1
		c-0.1,0.9-0.8,1.8-1.7,2.4c-1,0.6-2.2,0.8-3.1,0.6c-2.4-0.7-4.5-2.3-6.3-4.9c-3.4-4.8-6-9.9-7.8-15.2c-0.1-0.5-0.3-1-0.5-1.5
		l-0.5-1.4l-0.8,0.2c-0.2,0-0.3,0.1-0.2,0.1H452l-0.3,0.2c-2.5,2-3.3,1.9-5.5-0.5c-1.7-1.9-2.7-4.4-2.9-7.6
		c-0.5-8,1.5-15.5,3.3-21.1c0.5-1.5,1-3.1,0.9-4.8c0-0.4,0-0.7,0.1-1.1c0.1-0.4,0.4-0.8,1.1-0.9c0.3-0.1,0.6-0.1,1,0.6
		c0.5,0.7,0.8,1.5,1.1,2.5c0.5,2,1.1,4.1,1.6,6.1c0.3,1,0.6,2,0.8,3c1.6,5.7,5.2,10.1,11,13.6c1.8,1,3.3,2.5,4.8,4.4
		c1.1,1.5,1.6,3.1,1.5,4.8c-0.3,5.6,0.5,10.7,2.4,15.7C473.6,666,473.4,667.8,473.2,669.1z M526.6,620.2L526.6,620.2
		c-0.4,1-0.9,1.9-1.3,2.8l-0.5,0.9c-0.5,0.9-0.7,1.8-0.8,3c-0.5,7.4-2.8,14.2-6.6,20.3c-1,1.7-2.4,3.2-4,4.5
		c-5.2,4.1-8.2,8.7-9.2,14.1c-0.3,1.6-0.8,3.3-1.3,4.9c-0.2,0.6-0.3,1.1-0.5,1.7c-0.1,0.3-0.2,0.7-0.4,1.1c-0.3,0.6-0.7,0.8-1.3,0.7
		c-0.8-0.1-1-0.7-1-1c-0.1-0.7,0-1.5,0-2.2c0-0.4,0-0.8,0-1.2v-6c0-0.7,0-1.5,0-2.2c0-1.5,0.1-3.1,0-4.6c-0.2-2-0.3-4.1-0.4-6.1
		c-0.1-2.4-0.2-4.8-0.5-7.2c-0.4-2.9,0.1-5.7,1.4-8.2c0.9-1.8,2.2-2.6,3.9-2.6c0.3,0,0.7,0,1.1,0.1c1.6,0.3,2.6-0.5,3.3-1.2
		c2-2,4.3-3.6,6.5-5.2c1.6-1,2.8-2.1,3.6-3.4c1.2-1.8,2.3-1.8,3-1.6c1,0.3,2-0.1,2.7-1c0.3-0.3,0.7-0.5,1.2-0.7
		c0.2-0.1,0.4-0.2,0.6-0.3c0.3-0.2,0.4-0.2,0.7,0.1l0.2,0.1C526.8,619.8,526.7,620,526.6,620.2z M584.3,582.3l-0.1,0.4
		c-0.3,1.2-0.5,1.5-1.3,1.5c-0.8,0.1-1.3-1.5-1.4-2c-0.2-0.6-0.4-1.3-0.5-2.1l-0.3-1.1l-1.1,0.5c-1,0.5-1.1,1.3-1.2,1.7
		c0,0.1,0,0.1,0,0.2c-0.9,4.8-2.8,8.4-5.8,11c-2.7,2.4-4.5,5-5.8,8.1c-0.3,0.8-0.8,1.6-1.4,2.4c-0.8,1.4-1.7,3.1-1,5.4
		c0.3,0.8-0.3,1.5-1,1.8c-0.5,0.2-1,0.3-1.8-0.8c-0.7-1-1.3-2-2-2.9c-1.2-1.7-2.4-3.4-3.4-5.2c-0.5-0.9-1.2-1.8-1.8-2.6
		c-1.8-2.2-3.7-3.6-6-4.3c-0.9-0.3-2.1-0.9-2.1-2.3c0-1.2,0.7-2.2,2.2-2.7c0.6-0.3,1.2-0.4,1.9-0.6c1.2-0.4,2.8-1.1,4.1-2.6
		c2.5-2.9,5.7-5.1,8.8-7.3c0.5-0.4,1-0.7,1.6-1.1c2.3-1.5,4.6-3.1,6.4-5.3c0.1-0.1,0.2-0.2,0.3-0.3c0.3-0.3,0.7-0.7,1-1.1
		c0.9-1.6,2.1-2.5,4.1-3.7c0.6-0.3,1.1-0.5,1.7-0.5c0.4,0,0.9,0.1,1.4,0.1c0.6,0.1,1.2,0.2,1.8,0.2c0,0,0.1,0.1,0.2,0.3
		C584.7,573.1,585.6,577.8,584.3,582.3z M620.9,539c0,0.5,0,1.1,0,1.6c0,1.2,0,2.3-0.3,3.4c-0.6,2.4-1.8,4-3.7,4.9
		c-4.4,2.3-7.7,5.8-9.9,10.7c-1.9,4.1-4.2,8.4-8.1,11.8l-0.6,0.6c-1.1,1-1.9,1.3-2.8,0.9c-1.2-0.4-1.7-1.5-1.7-2.2
		c0.3-2.5-0.9-4.3-2-6c-0.2-0.3-0.4-0.5-0.5-0.8c-1.7-2.8-2-6-1.2-9.7c0.1-0.3,0.2-0.7,0.2-1c0.1-0.7,0.3-1.4,0.6-1.9
		c1.1-2,1.8-4.2,2.6-6.3c0.5-1.5,1-3,1.7-4.4c0.7-1.6,1.6-3.1,2.6-4.7c0.6-1.1,1.3-2.2,1.9-3.3c0.4-0.8,0.9-1.6,1.4-2.4
		c1.7-3,3.5-6.1,4.5-9.5c0.7-2.2,0.9-4.5,1.2-6.7c0.4-4,1.6-7.6,3.5-10.6c0.7-1,1.6-1.6,2.9-1.8c0.3-0.1,0.6-0.1,0.9-0.1
		c0.6,0,1.1,0.2,1.6,0.5c0.9,0.6,1.5,1.6,1.7,3c0.6,3.3,0.9,6.2,0.8,8.7c-0.1,5.2,0.6,10.6,2.1,17.4
		C620.8,534.1,621,536.6,620.9,539z"/>
	<path class="st4" d="M611.7,143c0.3,2.8,0.8,5.5,1.8,8.1c2.6,6.3,3.6,12.9,3.2,19.8c-0.4,7.1-1.4,14-3.6,20.8
		c-1.5,4.8-2.2,9.6-2.1,14.6c0,1.5,0.2,2.8,0.6,4.3c0.5,1.7,1.4,2.8,2.9,3.6c1.3,0.6,2.6,1.3,3.9,1.8c5.8,2.6,10.5,6.3,14.1,11.5
		c1.2,1.7,2.6,3.2,3.6,5c0.2,0.4,0.4,0.6,1,0.5c1.2-3.4,1.1-7,0.8-10.5c-0.2-1.7-0.4-3.2-0.5-4.9c-0.1-1.2,0-2.2,1.2-2.8
		c1-0.5,2-0.1,2.9,1.2c0.5,0.6,0.8,1.3,1.2,1.9c1.2,2.2,2.1,4.6,2.8,7.1c0.3,0.8,0.3,1.8,1,2.6c1.1-0.5,1.3-1.4,1.4-2.4
		c0.3-2.1,0.2-4.1,0.2-6.2c0.1-2.8,0.1-5.7,0.2-8.5c0.1-0.9,0.3-1.7,1.3-2c0.9-0.3,1.5,0.2,2,0.8c0.8,1,1.4,2.1,1.8,3.2
		c1.1,2.4,2.2,4.9,3.3,7.2c0.3-0.1,0.5-0.1,0.6-0.2c0.5-0.5,1-0.8,1.5-1.4c4.8-5.1,7.5-11.2,9.4-17.8c1-3.5-0.3-5.1-4.1-6.7
		c-0.9-0.4-1.9-0.5-2.9-0.6c-1.6-0.4-3.1-0.9-4.5-1.7c-4.8-2.8-6.7-8.5-4.4-13.6c0.5-1.1,1.1-2,1.7-3c2-3.2,4-6.3,6.3-9.4
		c1.1-1.5,2-3.1,2.7-4.9c1.4-3.8,2.7-7.5,3.9-11.3c1-2.8,1.1-5.6,0.6-8.4c-0.5-2.7-0.9-5.3-1.2-8c-0.7-6.8-1.2-13.5-1.5-20.3
		c0-0.9,0.2-1.9-0.5-2.8c-1,0.6-1.9,1.2-2.8,1.7c-0.8,0.5-1.7,0.9-2.8,1.1c-0.6,0.1-1.2,0-1.7-0.6c-0.4-0.5-0.2-1,0.1-1.5
		c0.3-0.4,0.5-0.6,0.6-1c3.7-6.3,5.4-13.2,6.2-20.4c0.2-1.9,0.1-3.9-0.1-5.8c-0.2-1.6-0.4-1.7-1.7-1c-1.3,0.6-2.5,1.2-3.7,1.9
		c-8.8,5-15.6,12.2-21.5,20.2c-0.4,0.5-0.6,0.9-0.7,1.5c-1.3,5.2-2.8,10.5-2.7,15.9c0.2,5.2,0,10.5-1.1,15.6c-0.2,1,0,2.3-1.4,2.4
		c-1.2,0.1-1.3-1.1-1.7-1.9c-0.5-1.1-0.7-2.6-1.7-3.1c-1.2-0.6-2-1.6-2.8-2.4c-0.5,0.3-0.4,0.6-0.4,0.9c0.1,5,0.5,10,1.8,14.9
		c0.2,0.7,0.6,1.6-0.2,2.1c-0.9,0.6-1.6-0.2-2.2-0.7c-0.1-0.1-0.2-0.3-0.3-0.4c-1.7-2.2-3.9-4-5.5-6.2c-1.6-2-3.1-2.6-5.4-1.4
		C611.9,141.7,611.6,142.1,611.7,143z M624,196.5c0.2-2.2,0.4-4.4,0.6-6.6c0.1-0.9,0.2-1.7,0.3-2.6c0.4-2.8,0.7-5.7,1-8.6
		c0.1-0.9,0.2-1.8,0.2-2.7c0.2-3,0.5-6.1,1.1-9c0.5-2.1,1.5-4,3-5.8c0.5-0.6,1.1-1.2,1.7-1.8c4.4-4,7.8-9,10.7-15.8
		c0.9-2,1.9-4.1,2.9-6.1c0.6-1.1,1.2-2.3,1.7-3.4c0.9-1.9,1.9-3.9,2.5-6.1c0.3-1,0.9-1.5,2-1.4s1.5,0.9,1.6,1.6
		c0.1,0.5,0.1,1,0.1,1.7c0,0.2,0,0.5,0,0.7c-0.2,2.8,0.2,5.7,1.2,9.1c1.2,4.3,1.2,8.1,0,11.8c-0.2,0.6-0.3,1.2-0.5,1.8
		c-0.1,0.3-0.1,0.5-0.2,0.8c0.1-1.3-0.1-2.6-0.5-3.8c-0.1-0.3-0.3-1.1-1.6-1.3l-0.8-0.1l-0.2,0.7c-1.3,3.8-2.6,8.3-3.4,13
		c-0.2,1-0.3,2-0.4,2.9c-0.3,1.9-0.6,3.9-0.9,5.8c-0.9,4.4-3.1,8-6.7,10.9c-4.1,3.4-7.9,6.8-10.1,11.7c-0.5,1.2-1.4,2.3-2.5,3.4
		c-0.6,0.6-1.3,0.8-2.1,0.4l-0.2-0.1C624.2,197.7,623.9,197.5,624,196.5l-0.9-0.1L624,196.5z"/>
	<path class="st4" d="M569.4,159.5c2.8,1.4,4.8,3.5,6.3,6c6.1,9.6,10.8,19.8,12.7,31.2c0.5,3,1.1,6.1,2.4,8.9
		c0.3,0.6,0.6,1.2,0.9,1.7c0.5,0.1,0.8,0.2,1.2,0.2c0-0.6,0-1,0-1.5c0-2.8,0.6-5.5,1.6-8.1c1.2-3.3,2.8-6.3,4.9-9.2
		c1.8-2.6,3.5-5.2,5.1-7.9c5.5-8.8,6.1-18.2,3.3-28c-0.6-2.3-1.5-4.5-2.2-6.8c-0.6-2-0.8-4.2-0.2-6.3c0.6-2,1.1-4,2.1-5.9
		c0.5-0.8,0.8-1.7,1-2.8c0.9-4,2-8.1,3.5-11.9c0.3-0.6,0.6-1.2,0.3-2.1c-0.9,0.2-1.8,0.4-2.7,0.6c-4.1,1.1-8,2.8-11.6,5
		c-14,8.2-22.9,20.6-29.3,35.2C568.3,158.9,568.5,159.2,569.4,159.5z"/>
	<path class="st4" d="M311.8,226.5c2.8,6.5,11.2,10.8,18.6,6.9c-1-1.7-1.7-3.4-3.1-4.8c-0.6-0.6-1.1-1.7-1.7-2.5
		c-1.1-1.7-2.3-3.5-3.4-5.2c-0.5-0.7-1.1-1.3-1.9-1.7c-2.3-0.9-4.5-1.9-6.8-2.8c-1.6-0.6-3.1-1-5-0.7c0.6,2.1,1.1,4.1,1.7,6.1
		C310.7,223.2,311.1,224.9,311.8,226.5z"/>
	<path class="st4" d="M391.9,187.4c1.7,2.9,2.8,6.2,3.3,9.7c0.2,1.5,0.4,2.8,0.6,4.8c2.7-1.7,4.6-3.7,6.2-5.9c2.1-2.9,3.3-6.2,3-9.9
		c-0.2-2.3-0.4-4.7-0.7-7.1c-0.5-3.3-0.5-6.4,0.8-9.5c1.9-4.8,4-9.4,8.3-12.5c0.6-0.5,1.4-0.9,1.3-2.1c-1.5,0.5-2.5-0.1-3.6-0.7
		c-0.8-0.5-1.6-1-2.4-1.4c-3.8-1.5-7.1-3.6-9.9-6.5c-0.9-0.9-2-1.6-3.4-1.7c-1.7-0.1-3.2-0.3-4.9-0.3c-3.4,0.1-6.1,1.5-7.7,4.6
		c-1.5,2.6-1.7,5.3-1.1,8.3C383.6,167.9,386.5,178,391.9,187.4z"/>
	<path class="st4" d="M326.5,151.9c-0.6-0.2-1.2-0.6-1.7-1.2c-0.9-1.2-1.8-2.4-2.8-3.6c-1.2-1.5-2.5-2.9-4.1-4.9
		c0.3,2,0.4,3.6,0.6,5c1.6,9.8,2.1,19.6,1.4,29.6c-0.6,8.7,0.2,17.3,3.1,25.7c0.3,0.7,0.3,1.6,1,2c0.4-0.2,0.5-0.6,0.6-0.9
		c0.9-2.6,1.7-5,2.7-7.6c0.4-1,0.7-2,1.5-2.8s1.6-0.8,2.4,0.1c0.7,0.9,0.9,1.9,0.9,3c0.1,2.2,0.1,4.5,0.2,6.7
		c0.1,4.6,1.1,9,2.3,13.4c0.4,1.5,1.3,2.5,2.7,3.2c2.6,1.4,5.5,1.9,8.3,2.4c0.6,0.1,1.1,0,1.6-0.3c4.2-2.4,8.8-3.9,13.4-5.6
		c3.9-1.4,6.5-3.9,8-7.8c1.7-4.4,3.1-8.8,3.9-13.5c1-6.9,0.8-13.8,0.3-20.7c-0.3-2.6-0.4-5-0.3-7.6c0-3.1-0.4-6.1-1.3-9.1
		c-1-3.5-1.8-7-2.6-10.5c-0.1-0.5,0.1-1.1-0.6-1.3c-1.4,2.3-2.8,4.6-4.2,6.9c-0.4,0.6-0.8,1.3-1.4,1.8c-0.4,0.6-1,0.7-1.7,0.5
		s-0.9-0.8-0.8-1.5c0.1-1,0.2-2,0.3-3c0.5-6.2,0.1-12.5-0.7-18.6c-0.2-1.6-0.9-2.8-2.1-3.9c-2.5-2.2-4.7-4.7-7-7.1
		c-5-5-9.8-10.2-14.9-15c-1.6-1.5-3.2-2.9-5-4c-1.4-0.7-2.7-0.9-3.9,0c-2.4,1.7-4.6,3.6-6.1,6.1c-0.6,1.1-1.1,2.3-1.1,3.7
		c0,4.3,0.2,8.6,1.2,12.8c1.2,5,3.2,9.9,4.2,15c0.6,3.4,2.1,6.6,3.8,9.6c0.2,0.5,0.5,0.8,0.6,1.3C329,151.6,328,152.5,326.5,151.9z
		 M332.7,170.9c0.9-1.9,2.9-3.2,5.1-3.4l0,0c2.5-0.3,3.3-1.7,3.7-3.2c0.5-1.7,0.5-3.3,0.1-5c-1.3-5.6-2.6-12.2-2.5-18.9
		c0-1-0.1-2-0.2-3s-0.2-2-0.2-2.9c0-1.3,0.3-1.5,0.7-1.6c0.2-0.1,0.8-0.3,1.3-0.3c0.3,0,0.6,0.1,0.7,0.3c0.8,1,1.7,1.8,2.5,2.7
		c1.9,2,3.8,3.9,4.7,6.5c0.6,1.8,1.1,3.7,1.5,6.3c0.7,4.3,2.2,8.3,3.8,12.1c0.3,0.6,0.5,1.3,0.7,1.9c0.1,0.3,0.2,0.7,0.4,1.1
		c0.5,1.4,1.2,2.5,2,3.4c3.2,3.2,4.9,6.8,5.3,11.3c0,0.4,0.1,0.8,0.1,1.2c0.1,0.8,0.2,1.7,0.1,2.7l-0.2,2l1.7-1.2
		c1.6-1.1,2.4-2.2,2.7-3.5c0.2,0.7,0.4,1.3,0.6,2c0.3,1,0.4,1.9,0,2.8c-0.7,1.8-1.2,3.8-1.7,5.6c-0.6,2.2-1.2,4.5-2.1,6.6
		c-2.7,6.7-6.5,11-11.7,13.6c-1.9,0.9-3.4,1-4.8,0.1c-2.1-1.3-2.4-3.5-2.2-5.1c0.2-2.7,0.3-5.1-0.1-7.5c-0.3-1.7-0.2-3.5-0.1-5.3
		c0.1-2.3-0.9-3.9-2-5.2c-1.9-2.3-4.1-4.5-6.2-6.5l-1.1-1.1c-0.7-0.7-1.3-1.5-1.8-2.4c-0.2-0.3-0.4-0.6-0.6-0.9
		C331.9,174.4,331.8,172.6,332.7,170.9z"/>
	<path class="st4" d="M537.1,303.1c0.9,0.5,1.5,0.7,1.8,0.7c0.1,0,0.1,0,0.2,0h0.1c0.5-0.1,0.7-0.6,1.3-1.7c1.5-2.9,2.9-5.8,5.7-7.7
		c5.4-3.8,9.9-8.6,14.9-12.9c1.5-1.3,2.8-2.8,3.6-4.5c1.3-2.8,0.9-5.2-1.5-7.2c-2.6-2.2-5.7-3.2-9-2.7c-6.3,1-11.8,3.8-16.1,8.6
		c-1.5,1.7-2.7,3.6-2.9,5.9c-0.4,3.1-1.3,6.1-2.1,9c-0.4,1.4-0.7,2.8-0.7,4.3C532.6,298.3,533.5,301.5,537.1,303.1z"/>
	<path class="st4" d="M418.7,286.1c1.5,0.8,2.7,1.8,3.8,3c1.1,1.1,2.2,2.3,3.4,3.4c3.2,2.8,7,4,11.3,3c1.5-0.3,2.3-0.9,2.6-2.5
		c0.3-1.8,0.4-3.6,0.4-5.3c0-1.6,0-3.2,0.5-4.8c0.6-2.2,2.3-3.2,4.4-2.8h0.1c0.4,0.1,0.8,0.2,1.2,0.4h0.2l-0.7-1.3
		c-2-4-4.9-7.7-8.9-11.5l-0.2-0.2c-0.2,0.3-0.2,0.6-0.3,1.1c-0.1,0.2-0.1,0.3-0.1,0.4c-0.7,4.3-3.8,6.4-8.3,5.6
		c-1.8-0.4-3.8-0.7-5.6-1.3c-2.4-0.7-4.6,0.9-4.9,3.3c-0.2,1.7-0.6,3.5-0.9,5.2C416.3,283.9,417,285.1,418.7,286.1z"/>
	<path class="st4" d="M797.1,675.8c-1.6-3-3.4-6-5.6-8.6s-4.7-5.1-7.3-7.2s-5.6-4-8.6-5.5l-4.6-2c-0.5-0.5-1-0.8-1.5-1.3
		c-1.2-1-2.4-1.9-3.7-2.7c-5.3-3-11.4-4.7-17.4-5.7c-3-0.5-6.1-0.8-9.2-1c-2-0.2-4-0.1-6.1-0.4c-2.1-0.4-4.2-1.3-6.4-1.5
		c-0.8-0.1-1.7,0-2.6,0.1c-7.1,0.7-14,1.8-20.8,3.9c-3.4,1.1-6.7,2.4-9.9,3.9c-3,1.5-5.7,3.7-8.9,5c-0.7,0.3-1.6,0.6-2.3,0.9
		c-16.1,7-30.7,20.6-36.3,37.6c1.5-0.4,3.2,0.2,4.4-0.7c0.5-0.4,0.7-0.9,1-1.5c2.6-5.7,5.1-11.5,9.5-15.9c5.4-5.3,13.9-7.5,20.4-2.6
		v-0.1l0.1,0.1c0.4,0.3,0.7,0.6,1.1,0.9c0.1,0.1,0.3,0.2,0.4,0.3c0.5,0.4,0.8,0.8,1.2,1.3c0.1,0.1,0.1,0.2,0.2,0.3
		c-0.6,0-1.1,0-1.7,0.1c-1.2,0.2-2.3,0.5-3.4,0.8c-2.2,0.8-4.2,2-6.1,3.3c-0.5,0.4-0.9,0.6-1.4,1l-0.7,0.6l-1.3,0.9l-0.6,0.6
		c0,0,0.6-0.2,0.7-0.2c3.4-0.9,6.7-0.9,9.9,0.6c0.2,0.1,0.5,0.2,0.7,0.4s0.5,0.3,0.7,0.5c0.5,0.3,0.9,0.6,1.4,1
		c0.8,0.8,1.7,1.7,2.3,2.6c0.7,1,1.4,2.2,1.9,3.3c-0.1,0.4-0.2,0.6-0.3,1c-0.1,0.2-0.2,0.4-0.2,0.6v0.1c-0.1,0.4-0.2,0.7-0.2,1.1
		c0,0.1,0,0.2,0,0.3c0.1,0.1,0.1,0.2,0.1,0.3c0,0.2,0.1,0.4,0.1,0.6c0.1,0.6,0.3,1.2,0.4,1.8c0.1,0.7,0.3,1.5,0.5,2.2
		c0.8,1.5,1.8,3,2.4,4.7c0.1,0.1,0.1,0.3,0.2,0.5v0.1c0,0.2,0.1,0.3,0.1,0.5c0,0.1,0.1,0.3,0.1,0.5c0,0.1,0,0.1,0,0.2
		c0,0.2,0.1,0.3,0.1,0.5v0.1c0.1,0.2,0.1,0.3,0.1,0.5c0,0.1,0,0.1,0,0.2c0,0.1,0,0.3,0,0.4s0,0.2,0,0.3s0,0.3,0,0.4s0,0.2,0,0.3
		s0,0.2,0,0.3c0,0.2,0,0.4,0,0.6v0.1c0,0.1,0,0.3,0,0.4c0,0.2,0,0.5,0,0.7c0.1,0.1,0.2,0.3,0.3,0.4c0.5,0.6,1,1.2,1.5,1.7
		c0.3,0.2,0.5,0.5,0.7,0.7c2.1,1.8,4.2,3.5,7,4.1c4.3,0.9,8.7-0.5,13.1-0.1c0.9,0.1,1.7,0.3,2.6-0.1c1.5-0.6,2.4-3,3.2-4.4
		c1.2-2,2.2-4.2,3-6.4c1.7-4.2,2.6-8.7,2.9-13.2c0.6-7.2-0.7-14.4-3.6-20.9c-1.5-3.3-3.2-6.4-5.3-9.3c-2.1-2.9-4.5-5.6-7.2-8
		c-0.4-0.4-0.6-0.6-1-0.9l-1.7-1.5h0.1h0.2l0.4,0.1l0.6,0.2l1,0.3l0.4,0.1l0.4,0.1l0.6,0.2c1.7,0.6,3.5,1.2,5,2
		c14.9,7.7,21.3,23.3,22.2,39.2c0,0.1,0,0.2,0,0.3c0,0.5,0,0.9,0,1.4c-0.1,0.4-0.1,0.8-0.1,1.3s-0.1,0.9-0.1,1.3c0,0.1,0,0.1,0,0.2
		c0,0.3-0.1,0.6-0.1,0.8c-0.1,0.3-0.1,0.6-0.2,0.8c0,0.2-0.1,0.4-0.1,0.6c-0.4,2.6-1.3,5.2-2.1,7.7c-0.8,2.7-2.4,5.2-1.3,8.1
		c2.3,6,7.6,7.9,13.4,8.8c0.7,0.1,1.6,0.2,2.3,0.3c1,0.1,1.9,0.2,2.9,0.3c1.2,0.1,2.3,0.3,3.4,0.4c0.2,0.1,0.5,0.1,0.6,0.1
		c0.2,0,0.4,0,0.6,0c0.4,0,0.8,0,1.2,0v-0.1c0.6-2.3,1.7-4.2,2.8-6.2c4.9-9.5,6.8-20.8,5.2-31.6c-1.5-10-7.2-19.3-14.1-26.4
		c-0.6-0.6-1.5-1.6-1.3-2.6c2.5,0.6,5.1,2.7,7.3,4c2.7,1.7,5.3,3.4,7.7,5.4c4.4,3.7,8.5,8.3,9.4,14.2c1.7,11.2,4.8,11.8,3.3,23
		c-0.5,3-2.3,5.8-2.8,8.7c-0.8,4.1-1.1,8.1-2.7,12c-0.1,0.2-0.3,0.5-0.3,0.7c0,0.3-0.2,2.4-0.7,2.2c2,0.6,11.7,2.6,12.2-0.9l0.3-1.9
		l2.4-13.4c2.3-13.2,2.7-26.4-3.3-38.8c-1.3-2.7-3.6-7.7-5.2-9.3c0.3,0.2,0.5,0.4,0.6,0.6c3.3,3.1,6.3,6.1,8.8,9.9
		c2.8,4.6,5.3,9.6,7.2,14.6c0.2,0.4,0.3,0.8,0.5,1.2c0.5,1.6,0.9,3.2,1.3,4.9c0.6,3.3,1,6.7,1,10c-0.1,3.4-0.5,6.7-1.2,9.9
		c-0.3,1-0.6,1.9-0.8,2.9c0.3-0.1,0.6-0.2,0.8-0.3c0.8-0.4,1.6-0.9,2.1-1.6c0.6-0.7,1.1-1.5,1.5-2.2s0.7-1.6,1-2.4
		c0.2-0.5,0.3-0.8,0.4-1.3C803.3,698.1,802.2,685.8,797.1,675.8z"/>
	<path class="st4" d="M307.2,652.9c-0.7-0.3-1.6-0.6-2.3-0.9c-3.1-1.2-5.9-3.4-8.9-5c-3.2-1.7-6.5-2.9-9.9-3.9
		c-6.8-2.1-13.8-3.1-20.8-3.9c-0.8-0.1-1.7-0.2-2.6-0.1c-2.2,0.1-4.2,1.1-6.4,1.5c-2,0.4-4,0.3-6.1,0.4c-3.1,0.2-6.1,0.6-9.2,1
		c-6.1,1-12,2.7-17.4,5.7c-1.4,0.7-2.6,1.7-3.7,2.7c-0.5,0.5-1,0.8-1.5,1.3l-4.6,2c-3,1.6-6,3.4-8.6,5.5c-2.8,2.2-5.1,4.6-7.3,7.2
		c-2.2,2.7-4,5.6-5.6,8.6c-5.3,10.5-6.3,22.7-3.3,33.9c0.1,0.5,0.2,0.8,0.4,1.3c0.3,0.8,0.6,1.7,1,2.4c0.4,0.8,0.9,1.6,1.5,2.2
		c0.6,0.6,1.3,1.2,2.1,1.6c0.3,0.1,0.6,0.2,0.8,0.3c-0.4-1-0.6-1.9-0.8-2.9c-0.7-3.2-1.1-6.6-1.2-9.9c0-3.4,0.4-6.7,1-10
		c0.4-1.7,0.7-3.2,1.3-4.9c0.2-0.4,0.3-0.8,0.5-1.2c1.9-5,4.4-10.1,7.2-14.6c2.5-3.9,5.5-6.8,8.8-9.9c0.3-0.2,0.5-0.4,0.6-0.6
		c-1.7,1.6-3.9,6.6-5.2,9.3c-6,12.4-5.7,25.6-3.3,38.8l2.4,13.4l0.3,1.9c0.4,3.3,9.4,1.7,11.9,1l-0.2-0.5c0,0,0,0,0.1,0
		c-0.2-0.6-0.3-1.6-0.3-1.8c0-0.3-0.2-0.5-0.3-0.7c-1.6-3.9-1.8-7.9-2.7-12c-0.6-3-2.5-5.7-2.8-8.7c-1.5-11.2,1.6-11.8,3.3-23
		c0.9-5.9,5-10.5,9.4-14.2c2.5-2,5-3.8,7.7-5.4c2.2-1.3,4.9-3.4,7.3-4c0.2,1-0.6,1.9-1.3,2.6c-7.1,7.1-12.7,16.4-14.1,26.4
		c-1.6,10.8,0.4,22.2,5.2,31.6c1.1,2,2.2,3.9,2.8,6.2v0.1c0.4,0,0.8,0,1.2,0c0.2,0,0.4,0,0.6,0c0.2-0.1,0.5-0.1,0.6-0.1
		c1.2-0.2,2.3-0.3,3.4-0.4c1,0,2-0.2,2.9-0.3c0.7-0.1,1.6-0.2,2.3-0.3c5.8-0.9,11.1-2.8,13.4-8.8c1.1-2.8-0.4-5.4-1.3-8.1
		c-0.8-2.5-1.7-5-2.1-7.7c0-0.2-0.1-0.4-0.1-0.6c-0.1-0.3-0.2-0.6-0.2-0.8c0-0.3-0.1-0.6-0.1-0.8c0-0.1,0-0.1,0-0.2
		c0-0.5-0.1-0.8-0.1-1.3c-0.1-0.4-0.1-0.8-0.1-1.3s0-0.9,0-1.4c0-0.1,0-0.2,0-0.3c1-15.9,7.4-31.5,22.2-39.2c1.7-0.8,3.3-1.5,5-2
		l0.6-0.2l0.4-0.1l0.4-0.1l1-0.3l0.6-0.2l0.4-0.1h0.2h0.1l-1.7,1.5c-0.4,0.4-0.7,0.6-1,0.9c-2.7,2.4-5,5.1-7.2,8
		c-2.1,2.8-3.9,6-5.3,9.3c-2.8,6.6-4.1,13.8-3.6,20.9c0.4,4.5,1.4,9,2.9,13.2c0.8,2.2,1.8,4.4,3,6.4c0.7,1.4,1.7,3.8,3.2,4.4
		c0.8,0.3,1.7,0.2,2.6,0.1c4.4-0.4,8.8,1.1,13.1,0.1c2.8-0.6,4.9-2.3,7-4.1c0.3-0.2,0.5-0.5,0.7-0.7c0.6-0.6,1-1.1,1.5-1.7
		c0.1-0.1,0.2-0.3,0.3-0.4c0-0.2,0-0.5,0-0.7c0-0.1,0-0.3,0-0.4v-0.1c0-0.2,0-0.4,0-0.6c0-0.1,0-0.2,0-0.3s0-0.2,0-0.3s0-0.3,0-0.4
		s0-0.2,0-0.3s0-0.3,0-0.4c0-0.1,0-0.1,0-0.2c0.1-0.2,0.1-0.3,0.1-0.5v0.2c0-0.2,0.1-0.3,0.1-0.5c0-0.1,0-0.1,0-0.2s0.1-0.3,0.1-0.5
		s0.1-0.3,0.1-0.5v-0.1c0.1-0.1,0.1-0.3,0.2-0.5c0.6-1.7,1.5-3.1,2.4-4.7c0.2-0.7,0.3-1.5,0.5-2.2c0.1-0.6,0.3-1.2,0.4-1.8
		c0-0.1,0-0.1,0-0.1c0-0.2,0.1-0.4,0.1-0.6c0.1-0.1,0.1-0.2,0.1-0.3s0-0.2,0-0.3c-0.1-0.4-0.1-0.7-0.2-1.1v-0.1
		c-0.1-0.2-0.1-0.4-0.2-0.6c-0.1-0.4-0.2-0.6-0.3-1c0.6-1.2,1.2-2.3,1.9-3.3c0.6-0.9,1.5-1.8,2.3-2.6c0.5-0.4,0.9-0.7,1.4-1
		c0.3-0.2,0.5-0.3,0.7-0.5c0.2-0.1,0.5-0.3,0.7-0.4c3.2-1.5,6.5-1.5,9.9-0.6l0.7,0.2l-0.6-0.6l-1.3-0.9l-0.7-0.6
		c-0.5-0.4-0.9-0.6-1.4-1c-1.9-1.3-3.9-2.5-6.1-3.3c-1.1-0.4-2.2-0.7-3.4-0.8c-0.6-0.1-1.1-0.1-1.7-0.1c0.1-0.1,0.1-0.2,0.2-0.3
		c0.4-0.5,0.8-0.9,1.2-1.3c0.1-0.1,0.3-0.2,0.4-0.3c0.4-0.3,0.7-0.6,1.1-0.9l0.1-0.1c0,0.1,0,0.1,0,0.1c6.4-5,14.9-2.8,20.4,2.6
		c4.4,4.4,6.9,10.3,9.5,15.9c0.3,0.6,0.6,1.1,1,1.5c1.2,1,2.9,0.5,4.4,0.7C337.6,673.9,323.2,660.3,307.2,652.9z M300.4,650.1
		L300.4,650.1C300.5,650.2,300.5,650.2,300.4,650.1z"/>
</g>
<g>
	<path class="st5" d="M524.3,457.1c-1.3-4.5-3.2-8.6-5.5-12.7c-4.1-7.3-10.2-12-18.4-14.1c-5.2-1.3-10.5-1.5-15.8-1.7
		c-2.8,0-5.8,0.1-8.7,0.4c-5.4,0.6-10.8,1-16.2,1.7c-5.3,0.7-10.7,1.4-15.7,3.7c-1.2,0.6-2.5,0.9-2.6,2.6c0,0.5-0.6,0.8-0.9,1.3
		c-2.9,3.9-5.3,7.9-6.4,12.7c-0.9,3.9-1.4,7.7-1.6,11.6c-0.1,1.8,0.2,3.7,0.8,5.4c1.1,2.8,2.3,5.8,4,8.3c1.8,2.7,3.3,5.8,6.5,7.2
		c0.6,0.3,0.9,1,1.3,1.6c0.6,1,1.4,1.8,2.1,2.8c2,2.6,4.8,3.7,8.1,3.5c1.8-0.1,3.7-0.1,5.5-0.2c4.1-0.2,6.7-2.9,6.3-7.1
		c0-0.6-0.2-1.4-0.6-1.8c0.1,0,0.1-0.1,0.1-0.1c0.4-1.3,0.6-2.8,0.4-4.3c-0.4-1.6-1.1-2.9-2.4-3.9c-0.6-0.5-1.5-0.8-2.3-1
		s-1.7-0.1-2.6,0.3c-1.6,0.7-2.6,2.2-3,3.8c-0.4,1.7,0,3.3,0.7,4.6c0.6,0.8,1.2,1.5,1.9,2c-2.8,1.8-5.4,1.7-9-0.1
		c-3.2-1.7-6.1-3.9-8.2-6.7c-2.8-3.5-4.7-7.4-4.3-12.2c0.3-3.2,0.4-6.5,0.6-9.7c20.8-4.7,42.5-5.3,63.8-1.7c5.5,0.9,11,2.1,16.4,3.6
		c0.1,0.4,0.2,0.8,0.2,1.3c0.1,1.5,0.1,3,0.1,4.6s0,3.2-1,4.4c-0.9,1.1-1.1,2.3-1.3,3.6c-0.6,3.8-1.9,7.2-5.2,9.4
		c-4.2,2.8-8.8,4.6-14.1,3.9c-0.6-0.1-1.2-0.2-1.7-0.4c0.4-1.4,0.5-2.9,0.1-4.4c-0.5-1.7-1.4-3.1-2.7-4.3c-0.6-0.6-1.4-1-2.3-1.4
		c-0.8-0.3-1.9-0.4-2.9-0.1s-1.7,1-2.3,1.7s-0.9,1.6-1.2,2.3c-0.6,1.6-0.9,3.1-0.9,4.8c0,1.6,0.4,3.3,1.2,4.7c0,0.1,0.1,0.3,0.2,0.4
		c0.4,0.9,1,1.8,1.8,2.6c1.8,1.6,3.9,2.4,6.3,2.5c5.3,0.4,10.1-1,14.5-4.2c2.1-1.5,4.3-2.9,7-3.8c3.5-1.1,6.6-2.9,8.2-6.6
		c2.2-5.2,3.5-10.5,2.6-16.1C524.9,459.9,524.6,458.5,524.3,457.1z M496.8,446.5c-1.6-0.1-3.2-0.1-4.9-0.1c-5.1,0-10.9,0.2-17.2,1
		c-5.3,0.6-22.9-1.8-31.7-1.7c0.3-0.2,0.5-0.3,0.7-0.5c2.8-1.7,5.9-2.7,9.2-2.6c1.3,0,2.6-0.1,3.9-0.5c4.1-1,8.3-1.4,12.4-1
		c5.6,0.5,11.1,0.4,16.6-0.1c9.4-0.6,18.1,1.7,26.2,5.9c0,0.1,0.1,0.1,0.1,0.1C508.2,447.2,503.1,446.7,496.8,446.5z"/>
	<path class="st5" d="M635.5,269.7c-1.8-1.7-3.9-2.8-6-3.9c-4.3-2.4-9-3.7-13.4-5.7c-4.1-1.8-8.3-3.4-12.5-4.9
		c-2.5-0.9-5-1.5-7.6-1.7c-1.7-0.2-2.8,0.4-3.4,2c-0.4,1-1,1.9-1.5,2.8c-1.8,3.6-1.5,7.1,0.6,10.5c0.9,1.7,2.4,2.8,3.9,3.8
		c5.7,3.5,11.5,6.9,15.6,12.4c1.4,1.8,3.3,2.6,5.7,2.3c5.1-0.6,9.9,0.6,14.3,3.3c1.2,0.6,2.4,1.1,3.7,1.4c1,0.2,1.8,0,2.5-0.8
		c2.3-2.8,3.8-5.8,3.8-9.4C641.2,277,639.1,272.9,635.5,269.7z"/>
	<path class="st5" d="M428.2,328c-0.1-0.2-0.3-0.2-0.5-0.3c-1.6,1.1-3.2,2.1-5.1,2.4c-2.1,0.3-3.9,1.1-5.5,2.2
		c-4.8,3.1-10,4.1-15.6,3.5c-2.1-0.3-4.1-0.6-6.1-1.1s-3.9-1.3-5.6-2.7c-3.5-2.9-7.3-5.5-10.6-8.8c-1.7-1.7-3.5-3-5.1-4.4
		c-0.5-0.5-0.8-0.8-1.6-0.8c-1.6,0-3.1,0-5,0c1.3,4.2,2.2,8.3,4.7,11.9c0.8,1.3,1.6,2.8,2.8,3.6c2.6,1.7,5,3.5,7.5,5.3
		c3.6,2.8,7.5,3.7,11.9,3.8c3.5,0.1,6.9-0.2,10.3-0.9c4-0.9,7.5-2.9,11.4-4.3c3.8-1.4,7.2-3.5,10.7-5.3
		C429.3,330.7,429.3,330.5,428.2,328z"/>
	<path class="st5" d="M377,300.5c-2.8,2.3-4.7,5.7-8.2,7.5c1.9,1.6,3.6,2.9,5.3,4.4c0.6-0.6,0.9-1.1,1.3-1.6
		c5-6.1,10.8-11.1,18.2-14.2c3-1.3,6.2-1.8,9.6-1.3c2.4,0.5,4.6,1.3,6.7,2.4c7.5,4,13.3,9.6,16,18c0.6,1.7,1.4,3.1,2.6,4.3
		c1.4,1.4,2.7,2.8,4.1,4.5c0.3-2.7,0.3-2.7-0.5-4.6c-0.2-0.5-0.2-0.9-0.2-1.4c-0.1-7.5-2.8-13.9-8.2-19.2c-6.2-6.1-14.2-9-22.6-9.7
		c-7.2-0.6-13.8,1.6-19.3,6.5C380.2,297.6,378.6,299.1,377,300.5z"/>
	<path class="st5" d="M533.8,240.2c1-0.4,2-0.7,3.1-0.9c0.6-0.1,1.3-0.3,1.9-0.5c1.2-0.4,2.3-1,3.3-1.8c0.5-0.4,0.9-0.9,1.3-1.5
		c4.7-6.7,9.8-13,15-19.3c1.2-1.5,2.1-3,2.9-5c-0.5,0-0.7-0.1-0.9,0c-4.2,1.4-8.7,2.2-12.7,4.5c-0.7,0.4-1.4,0.8-2.2,1
		c-0.8,0.3-1.6,0.4-2.4,0.5c-1.4,0.1-2.2-0.5-2.8-1.6c-1.4-2.2-1.2-4.6-0.9-7c0.4-2.8,0.7-5.5,1-8.3c0.2-1.6,0-3.1-0.4-5
		c-2.3,1.3-3.6,3-4.8,4.8c-1.9,2.8-3.3,6.1-4.4,9.4c-1,3.2-2,6.5-4,9.3c-0.5,0.6-0.7,1.4-1,2.1c-3,6.8-4.1,13.9-4.6,21.3
		c-0.1,1.7,0,3.4,0.5,5c0,0.1,0.1,0.3,0.1,0.4c0.2,0.8,0.6,0.8,1.4,0.2c0.9-0.6,1.7-1.4,2.5-2.1c2.2-1.9,4.6-3.6,7.2-5
		C533.1,240.5,533.4,240.4,533.8,240.2z"/>
	<path class="st5" d="M330.3,337c-4-2.2-6-5.4-6.1-9.9c0-1.5-0.1-2.9-0.2-4.4c-0.2-1.8-0.6-2.2-2.6-2c-1.3,0.1-2.5,0.4-3.7,0.6
		c-2.5,0.5-2.5,0.5-2.3,2.8c0.6,5.9,0.3,11.6-0.7,17.4c-0.5,2.6-0.6,5-0.6,7.6c0,5.2,0.4,10.5,0.7,15.7c0.6,7.2,1.9,14.5,2.7,21.9
		c0,0.7,0.1,1.5,0.6,2.3c0.7-0.8,0.6-1.7,0.6-2.4c0.1-2.6,0.2-5.2,0.3-7.8c0.2-5.4,1.7-10.3,4.9-14.7c3.2-4.7,6.1-9.4,8.4-14.6
		c0.6-1.2,1.1-2.4,1.5-3.7C335,341.7,334.1,339.1,330.3,337z"/>
	<path class="st5" d="M374.2,247.2c3.7-4.3,8.2-7.5,13.3-9.7c1.4-0.6,2.8-1.1,4-1.7c0.7-0.3,1.6-0.6,2.2-1.6c-0.8-0.3-1.4-0.4-2-0.4
		c-0.2,0-0.4,0-0.6,0c-2.6,0-5,0.6-7.4,1.4c-1.5,0.5-3.1,0.7-3.9,2.5c-0.1,0.3-0.5,0.4-0.7,0.6c-1.7,1.1-3.3,2.4-5.1,3.2
		c-3.5,1.8-6.2,4.4-8.4,7.6c-1.9,2.8-4.5,4.6-7.7,5.6c-1.4,0.5-2.8,1-4.2,1.7c-9.1,5-14.7,12.7-18,22.2c-0.9,2.6-1.2,5.2-0.7,8
		c0.3,1.7,0.9,3.2,2.8,3.6c1.8,0.5,2.7-0.9,3.5-2.1c0.4-0.6,0.7-1.2,1-1.8c1-2,2-4,2.8-6.1c3.2-8,8.4-14.5,15.1-19.7
		C365.2,256.3,370,252.1,374.2,247.2z"/>
	<path class="st5" d="M585,333.8c-2.1,1.6-4.5,2.8-7.2,3.6c-4.8,1.3-9.5,2.2-14.5,2.4c-3.3,0.1-6.2-0.7-8.9-2.7
		c-1.6-1.1-3-2.4-4.4-3.7c-1-0.9-2.2-1.7-3.9-2c1.7,2.6,3.1,4.9,4.8,7.1c4.8,6.3,11.2,9.9,19.1,10.7c2.8,0.3,5.7-0.3,8.2-1.9
		c5.3-3.5,8.5-8.7,11.3-14.2c0.2-0.2,0.1-0.6,0.2-0.9C587.6,331.8,586.3,332.8,585,333.8z"/>
	<path class="st5" d="M541.2,318.8c0.2-0.2,0.4-0.4,0.6-0.5c1-1.2,1.8-2.1,2.8-3c3.3-3.3,7.1-6.1,10.7-9c1.7-1.3,3.5-2.3,5.5-2.8
		c6.7-1.5,13.4-1.7,20,0.6c1,0.4,2,0.8,3.6,0.8c-1.5-1.6-2.7-3-4-4.2c-2.5-2.1-5.2-3.8-8.5-4.2c-3-0.4-6.1-0.6-9.3-0.1
		c-3.8,0.7-7.5,1.4-10.7,3.8C545.7,304.8,542.1,310.7,541.2,318.8z"/>
	<path class="st5" d="M546.8,520.5c-2.3,1.8-4.9,3.2-7.5,4.4c-1.9,0.9-3.8,2-5.9,2.7c-1,0.4-1,0.9-0.6,1.7c0.8,1.3,1.2,2.8,1.5,4.3
		c0.5,2.6,0.6,5.1,0.6,7.8c0,3.5,0,7.1,0,10.6v0.1c0.2,0.1,0.4,0.2,0.6,0.3c1.9-1.7,4-3.2,5.3-5.6c1.7-3.1,3.5-6.1,5-9.4
		c2.2-5,4.1-10.1,4.1-15.7c0-1,0.2-1.9-0.3-2.9C548.5,519.2,547.6,519.9,546.8,520.5z"/>
	<path class="st5" d="M436.8,526.9c-1.6-0.5-3.1-1.4-4.6-2.1c-1.7-0.9-3.3-1.8-5-2.8c-0.2,0.2-0.3,0.3-0.5,0.4
		c2.7,4.5,2.7,9.3,1.9,14.1c-0.8,5.4,0.6,10.4,3.1,15.1c0.2,0.5,0.3,1.1,1.1,1c1.3-7.2,3.4-14.1,5.1-21.2c0.2-0.6,0.2-1.2,0.3-1.8
		C438.4,528.3,438.1,527.5,436.8,526.9z"/>
	<path class="st5" d="M476.8,476.7l-1.7,29.9c-0.1,1.8,1.5,3.3,3.3,3.1c1.7-0.2,2.8-1.7,2.7-3.4L476.8,476.7z"/>
</g>
</svg>
