<?xml version="1.0" encoding="utf-8"?>
<!-- Generator: Adobe Illustrator 24.0.1, SVG Export Plug-In . SVG Version: 6.00 Build 0)  -->
<svg version="1.1" id="New_group_1_" xmlns="http://www.w3.org/2000/svg" xmlns:xlink="http://www.w3.org/1999/xlink" x="0px"
	 y="0px" viewBox="0 0 990 781.2" style="enable-background:new 0 0 990 781.2;" xml:space="preserve">
<style type="text/css">
	.st0{fill:#E4716B;}
	.st1{fill:#BCBCBB;}
	.st2{fill:#545459;}
	.st3{fill:#FEFEFE;}
	.st4{fill:#7986A2;}
</style>
<g>
	<path d="M220.3,750.7c-0.7,0.5-0.6,1.4-0.8,2.2c-0.6,4.3-2.6,7.8-5.4,11c-1.4,1.6-3.1,2.2-5.2,1.7c-5.1-1.3-9.8-3.4-13.6-7.2
		c-4.6-4.7-9.1-9.5-12.4-15.2c-1.2-2.1-2.9-3.6-4.9-4.8c-5.6-3.1-9.7-7.8-13.4-12.9c-5.8-8-8.5-17.1-9.1-26.9
		c-0.7-11.6,1.1-22.8,5.4-33.6c2.4-6,6.3-11,11.2-15.1c7.6-6.5,15.4-12.7,23.6-18.5c9.9-7.1,21-11.5,32.9-14
		c1.5-0.3,2.5-0.8,2.9-2.4c2.3-8.1,5.8-15.8,9-23.5c1.3-3.1,2.4-6.3,3.2-9.5c0.5-2.2,0.5-4.3-0.3-6.4c-1-2.9-1.8-5.8-2.9-8.6
		c-2.4-6.1-2.7-12.4-1.7-18.9c0.7-4.5,1.8-8.9,3.6-13.1c1.3-2.9,2.4-5.9,3.6-8.9c3.1-7.6,7.5-14.5,11.9-21.4
		c4.7-7.3,6.9-15.3,6.6-23.9c-0.2-6.1-1.5-12-3.1-17.9c-0.4-1.6-0.9-3.2-1.3-4.9c-0.7-2.7,0.1-5.1,2.2-6.9c0.6-0.5,1.2-1.1,1.9-1.5
		c3.7-2.1,6.5-5.2,9.3-8.2c1.5-1.6,1.4-1.9,0.1-3.7c-2.8-3.6-6-6.6-9.9-8.9c-2.7-1.5-5.3-3.3-7.7-5.3c-0.9-0.7-1.7-1.4-2.4-2.3
		c-2.2-2.7-2.9-5.7-1.5-9c0.4-1,0.8-1.9,1.4-2.8c6.7-9.3,10.4-19.7,12.5-30.9c1.8-9.7,3.3-19.4,4.3-29.2c0.1-1.4-0.3-2.3-1.4-3
		s-2.2-1.4-3.3-2c-4-2.3-4.7-5.8-1.8-9.4c2.7-3.4,5.7-6.5,8.5-9.8c1.1-1.3,2.1-2.8,3.2-4.2c1-1.4,1.7-2.8,2-4.5
		c0.4-1.7,1.3-3.2,2.1-4.8c2.4-5,4.9-9.9,6.3-15.3c0.4-1.6,1.4-3.1,2.2-4.5c1-1.8,2.2-3.5,2.7-5.6c0.7-2.7,0.2-3.8-2.3-5
		c-1.4-0.7-2.9-1.3-4.3-2.1c-3.3-1.8-4.9-4.6-5.1-8.4c-0.2-5.7,1.7-10.8,4.5-15.7c2-3.4,2.5-2.8-0.2-6.4c-5-6.9-7.7-14.6-9.1-23
		c-1-6.1-1.2-12.2-0.6-18.4c0.5-5.1-0.1-9.9-1.9-14.8c-4.9-12.9-8.5-26.2-11-39.7c-1.3-7.1-1.9-14.3-2.4-21.4
		c-0.5-7.3-0.9-14.7-0.8-22c0.2-8.4,0.9-16.8,2-25.1c1.6-12.3,3.9-24.5,6.1-36.7c0.6-3.6,1.7-7.2,3-10.6c3.1-8,9.1-12.7,17.1-15.2
		c7-2.2,13.7-1.2,20.4,1.5c4.7,1.9,9,4.5,13.3,7.1c9,5.5,17.3,12,25.6,18.6c9.5,7.5,18.6,15.4,28.1,22.8c6.9,5.4,14,10.3,22,14
		c2.8,1.3,5.4,1.7,8.2,0.3c4.4-2.3,8.8-1.8,13.1,0.5c3.3,1.7,6.4,3.6,9.4,5.7c3.2,2.3,5.5,5.3,7.1,8.9c0.5,1.1,1.1,2.1,1.7,3.1
		c1.6,2.8,4.1,3.4,6.9,3.2c1.7-0.1,3.3-0.5,4.9-1.1c10.5-4,21.2-7.6,32.4-9.4c3.6-0.6,7.2-1.5,10.9-2c2.4-0.3,4.8-0.4,7.2-0.5
		c5.4-0.4,10.6-1.4,16-1.9c0.6-0.1,1.3-0.2,1.9-0.2c4-0.1,8-0.3,12-0.4c5.7-0.2,11.3,0.4,17,1.3c7.4,1.1,14.8,1.7,22,3.3
		c6.9,1.6,13.8,3.4,20.2,6.6c1.5,0.8,2.6,0.5,3.8-0.7c1.9-1.9,4.1-3.3,6.4-4.6c3.3-1.9,6.8-2.6,10.6-1.5c3.3,0.9,6.6,2,9.4,4.1
		c0.7,0.5,1.5,0.9,2.3,1.3c3.2,1.6,6.2,1.3,9-0.8c6.3-4.7,12.1-9.9,17.5-15.6c5.9-6.2,11.4-12.7,17.6-18.7
		c14-13.5,28.6-26.3,44.9-37.1c7.1-4.7,14.5-8.4,22.6-10.8c3.3-1,6.5-2.4,10-2.5c9.6-0.4,17,3,20.4,13.4c2.3,7.2,3.9,14.7,4.7,22.3
		c0.1,0.8,0.1,1.6,0.2,2.4c0.2,7.8,0.3,15.7,0.5,23.5c0.2,5.4,0.5,10.9,0.8,16.3c0.2,5.5,0,11-0.6,16.5c-0.8,8.3-1.6,16.5-2.2,24.8
		c-0.9,12.2-1.4,24.4-1.5,36.6c-0.1,6.5-0.8,12.9-1.4,19.4c-0.9,10.2-2.2,20.3-4.2,30.4c-0.4,1.9-0.9,3.7-1.3,5.6
		c-0.4,2-0.1,2.8,1.8,3.6c2.5,1,4.9,2.2,7.6,2.6c4.9,0.8,6.6,4.9,4.1,9.2c-1.4,2.4-3.1,4.7-4.8,6.8c-3.5,4.3-6.5,8.9-9.2,13.7
		c-6.3,11-5,21.6,2,31.8c1.7,2.4,3.7,4.6,6.1,6.4c3.5,2.8,4,5.1,1.8,9c-3,5.6-7.5,9.9-12.8,13.4c-2.2,1.4-2.2,1.3-1.5,3.8
		c1.9,6.3,3.9,12.5,5.7,18.8c2.2,7.6,3.1,15.5,4.8,23.2c2,9.1,3.5,18.4,4.6,27.7c1,8.1,1.5,16.2,1.1,24.4c-0.1,2.1,0.3,3.9,1.5,5.7
		c0.7,1,1.4,2.2,2,3.3c1.1,2,0.9,4-0.2,5.9c-1.1,1.8-2.6,3.3-4.3,4.5c-9.8,6.8-18.8,14.6-28.4,21.7c-2.5,1.9-3.7,4.5-2.6,7.8
		c1,2.9,0.8,6,1.3,9c2,13.1,5.6,25.7,12.1,37.4c0.7,1.3,1.8,2.2,3.2,2.6c4.4,1.3,8.8,2.3,13.3,3.2c4.2,0.9,5.5,2.5,5.5,6.8
		c0,2.7-0.7,5.2-1.7,7.7c-1.7,4-4,7.6-7.1,10.7c-1,0.9-1.9,1.9-2.9,2.8c-0.8,0.8-1.3,1.6-0.9,2.8c0.9,2.6,0.4,5.2-0.4,7.8
		c-1.3,4-2.6,7.9-4.5,11.6c-0.4,0.7-0.7,1.5-0.7,2.3c0,4.8-0.8,9.5-0.1,14.4c0.6,3.9,1.5,7.7,3.1,11.3c1.9,4.2,3.9,8.2,5.8,12.4
		c0.7,1.4,1.5,2.2,3.2,2.4c10.5,1.6,20.5,5,30.1,9.4c5,2.2,9.6,5.1,14.2,8.1c4.5,3,9,6.1,13.5,9.2c1.1,0.8,2.2,1.6,3,2.7
		c6.8,8.6,13.4,17.4,18.5,27.1c5.8,11.1,5.7,12.6,3.4,24.3c-1.3,7.1-3.6,14-6.3,20.6c-1.7,4.3-4.7,8-7.6,11.6
		c-3.2,4.1-7,7.4-11.6,9.9c-1.3,0.7-2.3,1.7-3,3c-3.3,5.7-7.7,10.4-12.1,15.2c-4,4.4-9.2,6.8-14.9,8.3c-2.3,0.6-4-0.4-5.6-2.3
		c-2.8-3.5-4.5-7.3-5.1-11.7c0-0.2-0.1-0.5-0.2-0.7c0-0.1-0.1-0.1-0.3-0.3c-0.9,0.3-1.4,1.1-2.1,1.8c-2.3,2.2-4.6,4.5-7.2,6.4
		c-4.8,3.4-9.3,2.3-11.7-3.1c-1.8-4-3-8.3-2.6-12.8c0.2-2.3-0.7-3.8-2.6-4.9c-1.5-0.8-2.9-1.7-4.4-2.4c-3.8-1.7-6.3-4.5-7.8-8.4
		c-1-2.8-1.5-2.8-3.6-0.6c-1.6,1.8-2.4,3.9-3.1,6.1c-1.9,5.6-5.1,10.4-9.6,14.4c-4.5,3.9-10.3,2.2-12.8-2.4c-1.6-3-2.7-6.2-3-9.5
		c-0.2-2.4-1.4-4.1-3.5-5.1c-5.5-2.9-9.5-7.5-13.8-11.8c-0.6-0.6-1.2-1.4-1.5-2.1c-0.8-1.7-2.1-2.3-3.8-2.3c-1,0-1.9,0-2.9,0
		c-123.4,0-246.7,0-370.1,0c-0.7,0-1.4,0-2.2,0c-0.7,0-1.2,0.3-1.6,0.9c-2.2,4.4-6.1,7.3-9.5,10.7c-2,1.9-4.3,3.3-6.7,4.7
		c-1.9,1.1-3.1,2.5-3.4,4.9c-0.4,3.6-1.4,7-3.3,10.2c-1.1,1.9-2.7,3.1-4.8,3.8c-2.3,0.8-4.5,0.6-6.6-1c-5.1-3.8-8.5-8.8-10.6-14.8
		c-0.7-2.1-1.4-4.2-2.9-6c-0.3-0.4-0.6-0.8-0.9-1.1c-1.6-1.7-2.1-1.6-2.9,0.6c-0.4,1.2-0.9,2.4-1.5,3.5c-1.3,2.2-3.1,3.9-5.4,5
		c-2,1-4,2-5.9,3.2c-1.5,1-2.1,2.1-2.1,4c0.2,4.6-0.8,9.1-2.7,13.3c-0.6,1.3-1.4,2.5-2.5,3.5c-2.3,2.1-4.8,2.4-7.5,0.9
		c-1.9-1.1-3.6-2.3-5.2-3.9c-1.7-1.8-3.6-3.5-5.3-5.2C220.7,750.7,220.5,750.7,220.3,750.7z"/>
</g>
<g>
	<path class="st0" d="M463.5,566.1c-0.1,7.3,0.7,14.4,1,21.6c0.1,1,0.4,2,0.7,3c2.3,6.7,5.5,13.1,8.8,19.5c0.9,1.7,2.1,3.1,3.6,4.3
		c3.3,2.4,6.6,4.8,10.2,6.7c4.7,2.5,9.6,4.2,14.8,4.8c5.8,0.8,11.7,0.7,17.6,0.1c9-0.9,18.5-6.3,23.9-13.6c2.7-3.6,5.1-7.4,7.3-11.3
		c2.2-3.9,3.7-8,4.4-12.4c0.4-2.4,0.8-4.8,1-7.1c0.5-6,0.6-12-0.6-17.8c-1.3-6.6-2.9-13.1-5.2-19.4c-2.7-7-4.1-14.3-4.7-21.7
		c-0.2-2.3-0.5-4.6-0.9-6.9c-0.1-0.7-0.5-1.1-1.3-1.1c-0.9,0-1.7,0.1-2.5,0.1c-6.8,0.1-13.6-0.1-20.3-1.8c-3.3-0.8-2.8-1.5-4.7,2
		c-1.2,2.4-2.3,4.9-2.8,7.6c-1.2,6.7-2.3,13.4-2.8,20.2c-0.4,4.6-0.7,9.2-1.2,13.8c-0.5,4-0.5,7.9-0.3,11.9c0.1,2.5,0,5-0.1,7.5
		c-0.1,1.6,0,3.1,0.3,4.7c0.3,2.1,0.9,4.1,0.8,6.2c0,1.6-0.4,3.1-1.1,4.5c-0.9,1.7-2.2,2-3.8,1.9c-1.7-0.1-2.9-1-3.7-2.5
		c-0.5-1-0.8-2.2-0.7-3.3c0.1-1.2,0.1-2.5,0.3-3.7c0.7-6,1.1-12.1,1-18.2c-0.1-1.9,0.1-3.7,0.3-5.6c0.3-5.6,0.5-11.1,0.2-16.6
		c-0.2-4.5-0.4-9-0.7-13.5c-0.4-5.8-0.7-11.7-3.3-17.2c-0.6-1.2-0.5-1.3-1.8-1c-2.6,0.5-5.1,1.2-7.7,1.6c-6.9,0.9-13.8,0.6-20.6-1
		c-0.8-0.2-1.6-0.6-2.4-0.3c-0.1,0.3-0.2,0.5-0.1,0.7c0.7,3.1,0.9,6.2,0.5,9.4c-0.1,0.9-0.1,1.9-0.1,2.8c0.3,5.4-0.2,10.9-1.2,16.2
		C464.1,549.4,463.6,557.7,463.5,566.1z"/>
</g>
<g>
	<path class="st1" d="M580,625c-1.7-0.7-3.3-0.4-4.7,0.8c-0.8,0.7-1.6,1.4-2,2.4c-0.7,1.7-2,2.8-3.5,4c-2.4,1.9-4.6,4-6.9,6
		c-2.7,2.3-5.3,4.7-8.2,6.8c-3,2.2-6.3,4.3-10,5.1c-3.8,0.9-7,2.7-10,4.9c-2.3,1.7-4.3,3.7-6.2,5.7c-2.6,2.7-5.8,3.9-9.6,3.9
		c-5.8,0.2-11.4-1.1-16.9-2.8c-4.5-1.3-8.4-3.8-12.2-6.2c-2.2-1.4-4.2-3.1-6.1-4.9c-3.6-3.4-6.5-7.3-9.3-11.4
		c-2.4-3.3-4.9-6.5-8.4-8.8c-1.5-1-2.7-2.3-3.6-3.9c-1.8-3.1-4.3-5.7-7-8c-4.3-3.6-8.8-7.1-13.4-10.4c-2.9-2.2-5.3-4.7-7.1-7.9
		c-1.3-2.4-2.8-4.7-4.3-6.9c-1.4-2-2.9-3.8-5-5c-1.2-0.7-2.3-1.4-3.1-2.5c-0.7-1-1.8-1.4-3-1.2c-0.7,0.1-1.2,0.5-1.2,1.2
		c-0.3,3.1,5.2,9,6,11.7c0.7,2.5,1.4,5,2.2,7.5c0.9,2.8,2.2,5.4,3.9,7.8c1.2,1.6,2.6,3.2,4,4.8c3.8,4.6,8,8.8,12.8,12.4
		c4.2,3.1,8.5,6.2,12.3,9.6c4.5,4.1,9,8.1,12.1,13.5c0.3,0.5,0.5,0.9,0.9,1.3c1.8,1.8,2.4,4.1,2.8,6.5c0.2,1.3,0.5,2.7,0.7,4
		c0.3,1.9,1,3.6,2.1,5.2c2.9,4.5,6.7,8.1,10.9,11.1c2.2,1.6,3.9,3.5,5.6,5.4c0.9,1.1,1.8,2.2,2.7,3.3h62.1c1.9-4.7,4.1-9.4,5.8-14.2
		c2.4-6.8,5.2-13.5,8.3-20c3.6-7.5,6-15.4,9-23.1c0.5-1.3,0.6-2.7,0.5-4C582.6,627.1,581.8,625.7,580,625z"/>
	<path class="st1" d="M434.2,418.4c1.4,2.6,2.6,5.2,3.4,8.1c0.4,1.4,0.7,2.8,1.2,4.2c2,6,4.1,11.9,6.1,17.8
		c1.6,4.7,3.7,9.1,5.9,13.5c1.8,3.7,5,6.1,7.9,8.8c1.1,1,2.7,0.8,3.7-0.3c0.8-0.9,1.3-1.9,0.9-3.1c-0.3-0.8-0.6-1.6-0.9-2.4
		c-0.4-0.9-0.7-1.8-0.7-2.8c0.2-2.8-0.3-5.4-0.7-8.1c-0.1-0.9-0.5-1.8-0.5-2.8c-0.5-7-0.3-14,2.2-20.8c1.4-3.9,2.9-7.8,4.6-11.7
		c0.7-1.6,1.4-3.2,1.4-5.1c0-1.5-0.7-2.7-1.9-3.4c-1.2-0.7-2.6-1.2-4.2-0.7c-1.5,0.5-2.9,1.2-4.1,2.3c-1.4,1.4-2.8,2.8-4.2,4.2
		c-0.6,0.6-1,0.5-1.5-0.3c-2.4-4.1-3.1-8.4-2.1-13c0.5-2.2,1-4.5,1-6.8c-0.1-2.9-1.4-5.2-3.7-6.9c-2.4-1.8-5.1-2.7-8.1-3.2
		c-4.4-0.9-8.5-2.3-11.5-5.8c-0.7-0.8-1.4-1.5-2.2-2.2c-0.9-0.9-1.5-1.8-2-2.8c-1.3-2.6-2.8-5.2-3.9-7.9c-1.2-2.8-2.4-5.6-2.6-8.6
		c-0.2-3.7-0.8-7.5-0.7-11.3c0.1-0.9-0.2-1.8-0.4-3.1c4.3,0.2,8.1-0.5,11.6-2.5c2-1.2,4.2-1.8,6.6-1.7c1.5,0.1,2.9-0.5,4.3-1
		c1.5-0.6,2.3-1.8,2.4-3.3c0.3-3.1-1.6-5-4.3-5c-4.8-0.2-9.2-1.6-13.2-4.5c-1.8-1.2-3.1-2.8-4-4.7c-0.3-0.7-0.7-1.3-1.2-1.8
		c-0.8-0.9-1.8-1.1-2.8-1c-0.7,0.1-1.2,0.5-1.6,0.9c-1.2,1-2,2.4-2.6,3.9c-0.8,1.8-2,3.1-3.7,4.1c-1,0.6-1.8,0.5-2.6-0.2
		c-0.5-0.4-0.9-0.9-1.2-1.4c-1.1-1.8-2-3.7-2.3-5.8c-0.3-2-0.7-3.9-0.8-5.9c-0.1-3.4-1.6-6.2-4.4-8.3c-2.2-1.7-4.6-1.4-6.3,0.9
		c-0.3,0.4-0.7,0.9-0.9,1.3c-1.2,2.3-2.8,4.5-4.5,6.4c-3.5,4.1-7.1,7.9-11.5,11.1c-2.2,1.6-4.2,3.5-6.2,5.2
		c-0.5,0.5-0.9,1.1-1.4,1.6c-3.2,3.5-5.4,7.7-8,11.7c-1.6,2.6-3.1,5.2-4.1,8.1c-0.6,1.9-1.2,3.8-1.1,5.8c0.3,4,3.6,6.6,7.3,5.8
		c1.3-0.3,2.5-1,3.6-1.8c1.5-1.1,3-2.2,4.6-3.3c2.4-1.6,5-2.4,8-2.4c3.3,0,6.4,0.4,9.6,1.1c5.7,1.2,9.8,4.6,13.4,8.8
		c1.6,1.8,2.6,4,3.1,6.4c0.7,3.1,1.4,6.4,1.2,9.6c-0.1,1.2-0.1,2.5,0.1,3.8c0.5,4.4,1.5,8.6,3.9,12.4c2.6,3.9,5.8,7.1,9.5,9.9
		c4.6,3.3,9.2,6.4,14.8,8.1C432.9,416.9,433.7,417.5,434.2,418.4z"/>
	<path class="st1" d="M384.8,679.6c-2.4-3.7-5.6-6.7-9-9.5c-4.9-3.9-9.6-8.1-13.4-13.2c-4.7-6.3-8.3-13-9.8-20.8
		c-0.4-2-0.7-3.9-1.1-5.8c-0.5-2.9-1.3-5.7-2.5-8.4c-1.6-3.6-3.8-6.7-6.7-9.4c-1.4-1.3-2.1-2.7-2.2-4.7c-0.1-3-0.8-6-2.2-8.7
		c-0.9-1.6-1.7-3.1-1.5-5c0-0.4-0.1-0.9-0.3-1.2c-1.8-3.5-1.8-7.5-2-11.3c-0.2-3.4-0.4-6.9,0.3-10.3c0-0.1-0.2-0.4-0.3-0.4
		c-0.2,0-0.4,0.1-0.5,0.3c-0.3,0.6-0.5,1.2-0.7,1.8c-1,4.3-1.8,8.6-2.2,13c-0.3,2.4-0.6,4.8-1.8,6.9c-0.4,0.6-0.6,1.4-0.7,2.1
		c-0.5,2.7-0.9,5.4-1.3,8.1c-0.6,3.5-1.4,6.9-2.8,10.2c-1,2.4-2,4.8-3,7.3c-1.2,3.3-2.5,6.7-2.4,10.3c0,0.7-0.1,1.2,0,1.9
		c0,0.1,0.1,0.3,0.1,0.4c0.6,0.4,1.2,0.7,1.8,1.1l2.1,1.4l2,1.4l1,0.7l0.5,0.4l0.5,0.4l2,1.5c0.3,0.3,0.7,0.5,1,0.8l1,0.8l1.9,1.6
		c0.7,0.5,1.2,1.1,1.8,1.6l0.9,0.9l0.5,0.4l0.5,0.5c1.2,1.2,2.4,2.3,3.5,3.5c0.6,0.6,1.2,1.2,1.7,1.8l1.6,1.8
		c0.3,0.3,0.6,0.6,0.9,0.9l0.8,0.9l1.6,1.9c1,1.3,2.1,2.6,3.1,3.9c2.6,3.3,5.1,6.8,7.5,10.2c0.1,0.1,0.1,0.1,0.1,0.2
		c0.6,0.8,1.2,1.6,1.7,2.4c0.2,0.3,0.3,0.6,0.5,0.9c0.5,0.8,1,1.5,1.6,2.3c1.8,2.7,3.7,5.4,5.6,8c0.2,0.3,0.5,0.6,0.7,0.9l0.1,0.1
		c0.5,0.5,1,1,1.6,1.4c0.9,0.8,1.9,1.6,2.9,2.2c0.2,0.1,0.4,0.3,0.7,0.4h18.7c-0.9-1.8-1.8-3.6-2.9-5.3
		C387.2,683.1,386,681.4,384.8,679.6z"/>
	<path class="st1" d="M689.8,394.6c-0.3-2-1-3.9-0.9-5.9s-0.5-3.7-1.3-5.4c-1.1-2.5-2.1-5-3.2-7.5c-1.6-3.6-3.3-7.3-5-10.8
		c-1.8-3.7-4.6-6.4-8.3-8.3c-1-0.5-2-1.1-3-1.7c-3.9-2.2-7.7-4.3-12.2-4.8c-0.2,0-0.4-0.1-0.6-0.2c-0.3-0.2-0.8-0.4-0.7-0.9
		c0.1-0.3,0.2-0.6,0.4-0.8c0.9-0.8,1.9-1.3,3-1.6c1-0.3,2-0.7,2.6-1.6c0.6-0.8,1.5-1,2.2-1.5c-0.5-0.9-1.5-1.2-1.7-2.3
		c-0.1-0.6-0.8-1-1.4-1.2c-1.5-0.7-3.1-1.3-4.8-0.8c-0.8,0.3-1.6,0.3-2.5,0.3c-5.7,0.6-10.6,2.8-14.7,6.9c-4.3,4.4-7.5,9.5-9.7,15.2
		c-1.4,3.8-2.9,7.6-5,11.1c-1.5,2.5-2.7,5.2-3.5,8.1c-0.3,1-0.5,2-0.4,3.1c0.2,2.6,2.2,4.5,4.7,4.7c1.5,0.1,2.9-0.2,4.1-1
		c1.4-1,3-1.9,4.8-2.2c0.5-0.1,1-0.3,1.4-0.5c1.3-0.8,2.6-0.6,3.9,0c4.8,2.1,9.6,4,14.3,6.4c2.8,1.5,5.4,3,7.7,5.2
		c2.4,2.4,4.7,4.7,7.1,7.1c3.3,3.3,6.1,7.1,7.9,11.6c0.6,1.4,1.4,2.8,2.6,3.9c2.1,2.2,4.7,2.2,6.9,0.1c0.9-0.9,1.7-1.8,2.2-3
		C690.1,409.4,691,402.2,689.8,394.6z"/>
	<path class="st1" d="M410.3,481.9c-2.9-4.1-4.8-8.8-7.2-13.2c-0.3-0.5-0.5-1.2-0.7-1.7c-1.4-3.1-1.4-6.6-1.2-9.9
		c0.2-3.5-0.9-6.6-3.3-9.2c-0.8-0.8-1.2-1.7-1.1-2.8c0.1-0.7,0-1.2,0-1.9c0-4.8-1.9-7.3-6.5-8.8c-1.4-0.5-2.8-0.9-4.3-1
		c-2.3-0.3-4.5-1.1-6.4-2.4c-2.8-1.8-5.2-4.1-6.4-7.5c-1.3-3.7-1.2-7.4-0.9-11.1c0.1-1.8,0.9-3.4,2-4.8c2.9-3.6,3.1-8.3,0.5-12.2
		c-0.9-1.2-1.8-2.2-3.2-2.9c-3.6-1.9-7.5-2.5-12.2-2.4c-1.5-0.1-3.7,0.1-5.8,0.5c-2.5,0.5-4.7,1.8-6.7,3.2c-1.5,1.1-1,3.1,0.7,3.6
		c0.6,0.2,1.2,0.1,1.8,0.2c0.7,0.1,0.9,0.9,0.5,1.5c-0.3,0.4-0.7,0.8-1,1.2c-2.4,2.2-4.3,4.8-6,7.6c-1.9,3.3-3.3,6.7-4.3,10.4
		c-0.5,2-0.5,3.9-0.5,5.9c0.1,2,1.1,3.5,2.8,4.6c1.2,0.8,2.5,0.9,3.9,0.3c1.2-0.6,2.3-1.4,3.3-2.3c2-1.8,3.7-1.4,4.3,1.2
		c0.8,2.9,2,5.4,4,7.7c0.6,0.7,0.9,1.4,1.2,2.2c0.9,1.8,2.4,2.8,4.5,3c2.6,0.2,5.1,0.9,7.6,1.7c1.5,0.5,2.8,1.4,4,2.4
		c1.6,1.2,2.4,2.9,2.5,4.8c0.1,0.9,0.1,1.9,0.1,2.8c0.1,1.1,0.1,2.3,0.3,3.4c0.8,4.7,3.3,8.5,6.4,12c3,3.4,6.7,5.9,10.6,8.2
		c0.8,0.5,1.6,0.9,2.3,1.6c3.3,3.5,7.3,6.2,10.8,9.5c0.4,0.3,0.9,0.6,1.3,0.9c1.4,0.7,3-0.1,3.3-1.6c0.1-0.7,0.1-1.4-0.2-2.2
		C411.2,483.5,410.9,482.7,410.3,481.9z"/>
	<path class="st1" d="M483.8,292.9c-0.3,0.4,0,0.8,0.3,1.1c0.9,1,1.8,2,2.4,3.3c0.7,1.6,0.7,2.9-0.8,4.2c-1.7,1.4-2.6,3.3-3.1,5.3
		c-0.3,0.9-0.3,1.8,0,2.8c0.5,2,1.7,3.3,3.4,4.3c0.8,0.5,1.6,0.9,2.5,1.3s1.3,1,1.2,2c-0.1,1.3,0.4,2.5,0.7,3.7
		c0.7,2.4,1.4,4.7,0.7,7.3c-0.6,2.4,0.1,4.8,1.4,6.9c0.5,1,0.4,1.8-0.4,2.5c-1,0.9-1.8,2-2.4,3.2c-0.6,1.1-1.1,2.2-1.1,3.5
		c0,2.5,2.4,4,4.6,2.8c0.7-0.4,1.3-1,1.9-1.6c2.4-2.2,5-4.1,8.3-4.8c2-0.4,3.9-1,5.8-1.5c1-0.3,1.8-0.1,2.6,0.6
		c0.9,0.7,1.7,1.2,2.6,1.8c2.3,1.4,4.7,1.8,7.1,0.6c1.9-0.9,3.9-1.3,6.1-1.2c1.2,0.1,2.4,0.1,3.5-0.1c1.6-0.4,3.1-0.3,4.7,0.1
		c0.8,0.2,1.6,0.4,2.4,0.5c2.1,0.3,4.1,0.3,6-0.9c1.7-1,2.4-2.6,2.3-4.5c-0.1-1.8-1.3-2.6-2.8-3.1c-1-0.4-2.2-0.7-3.3-1
		c-0.6-0.1-0.9-0.5-0.9-1.1c0-3.4-1.3-6.3-3.1-9c-1.7-2.6-2.2-5.4-1.7-8.4c0.3-1.6,0.7-3.3,1-4.9c0.2-1,0.6-2,1.1-2.9
		c2-3.5,4.1-6.8,6.7-9.8c1.2-1.4,2.5-2.8,3.7-4.3c0.9-1,0.7-2.2-0.1-3.1s-1.6-1.1-2.8-0.4c-1.4,0.9-2.8,1.8-4.5,3
		c-0.5-0.9-0.8-1.6-1.2-2.4c-0.6-1.1-1.6-1.6-2.8-1.8c-1-0.1-2.1,0.1-3,0.5c-2.6,1.4-5,2.9-6,6c-0.1,0.3-0.3,0.5-0.4,0.9
		c-1,2.7-3.1,3.9-5.8,3.9c-3,0.1-6,0.5-9,0.6c-2.4,0.1-4.8,0-7.2,0.1c-1.5,0.1-2.9-0.3-4.3-0.7c-2.1-0.7-4.1-1.6-6-2.6
		c-2.8-1.4-5.9-2.1-8.9-2.9C484.5,292.5,484,292.5,483.8,292.9z"/>
	<path class="st1" d="M656.2,459.8c-1.2-5.4-3.5-10-8.4-13c-4.5-2.9-9.4-3.1-14.5-2.6c-0.3,0-0.6,0.1-0.9,0.3
		c-2.8,1-4.5,2.9-5.3,5.7c-0.5,1.8-0.9,3.7-1.4,5.4c-2.2,7.6-6.1,14.4-10.7,20.8c-1.2,1.6-2.2,3.3-3.3,5c-1.4,2.3-2.8,4.7-4.3,6.9
		c-4.3,6.7-7.9,13.8-10.2,21.5c-1.6,5.6-0.9,10.7,3.6,15c1.5,1.4,3,2.9,4.3,4.6c2.6,3.4,4.9,7,7.3,10.6c0.6,0.9,1,1.8,1.3,2.8
		c0.6,1.9,1.2,3.7,1.9,5.6c0.2,0,0.3,0,0.5,0.1c0.1-1.8-0.1-3.6,0.2-5.3c0.7-4.9,0.8-9.8-0.7-14.5c-0.3-0.8-0.3-1.6-0.5-2.4
		c-0.3-1.2-0.3-2.5-0.1-3.7c0.3-1.4,0.5-2.9,0.9-4.3c1-3.8,2.3-7.6,3.3-11.5c1.1-4.1,2.9-7.8,5.4-11.2c2.2-3,4.9-4.8,8.6-4.8
		c0.7,0,1.4-0.1,2-0.7c1.1-0.9,1.6-3,0.5-4.3c-1.6-1.8-1.8-3.9-2-6.1c-0.3-1.8,0.2-3.5,1.2-5.1c0.9-1.4,1.6-2.9,2.5-4.4
		c0.3-0.5,0.5-1,0.9-1.2c2.7-1.6,5.4-3.1,8.8-2c2.2,0.8,4.5,0.7,6.7-0.2c2.4-0.9,3.3-2.6,2.8-5.2C656.4,461,656.4,460.3,656.2,459.8
		z"/>
	<path class="st1" d="M600.9,394.4c0.5-1.9,1-3.9,0.7-6c0.4-2-0.1-4-0.8-6c-0.9-3-2.1-6-4.2-8.3c-2-2.3-4.3-4.3-7-5.7
		c-0.9-0.5-1.6-1-2.2-1.7c-1-1-2.2-1.7-3.5-2.1c-3.6-1-5.7-0.3-7,2.8c-0.5,1.2-0.5,2.4-0.1,3.7c0.7,2.2,1.6,4.3,2.9,6.2
		c1.4,1.8,2.8,3.7,4.1,5.5c0.5,0.6,0.7,1.2,0.8,2c0.1,3.1-0.1,6-1.4,8.9c-0.7,1.6-1.5,3.2-2.2,4.8c-1.2,3-2.7,6-2.7,9.2
		c0,1.8-0.5,3.5-1.4,5c-0.5,0.7-0.9,1.4-1.2,2.2c-0.8,1.4-1.2,2.9-1.2,4.5c-0.1,2.4,0.5,4.5,1.4,6.7c0.6,1.4,1.2,2.9,1.2,4.5
		c0,3.8-0.3,7.5-1.1,11.2c-0.7,3.3-1.3,6.7-1.9,10.2c-0.1,0.5-0.1,1,0.2,1.5c0.7,1.3,2.3,1.8,3.5,0.9c1.4-1,2.6-2.4,3.4-4
		c0.8-1.5,1.7-2.8,3.1-3.9c1.3-1,2.4-2.4,3.3-3.7c2.1-3,3.7-6.4,5.3-9.6c4.1-8,5.8-16.5,6.1-25.4
		C599.2,403.2,599.8,398.8,600.9,394.4z"/>
	<path class="st1" d="M455.7,252.1c0.8,0.3,1.5,0.7,2.1,1.3c0.6,0.7,1.4,1,2.2,1.2c2.4,0.7,4.4,2,6.2,3.6c3.3,2.8,6,6.1,6.7,10.6
		c0.3,2.1,1.2,4,2.3,5.8c0.4,0.6,0.8,1.2,1.4,1.7c1.8,1.4,3.7,2.7,6,3.3c3.1,0.8,5.9-0.5,7.2-3.3c0.9-1.8,1.3-3.7,1.2-5.8
		c-0.1-2.6,0.1-5.2,0.9-7.7c0.6-2,0.8-4.1,0.8-6.2c0-2-0.4-3.9-0.7-5.9c-0.3-1.6-0.6-3.3-1.2-4.8c-1.8-4.1-3.9-7.9-6.9-11.1
		c-4.9-5.2-10.3-9.8-16-14c-0.9-0.6-1.8-1.1-2.8-1.4c-1.5-0.6-2.9-0.2-3.9,1s-1.1,2.4-0.5,3.8c0.3,0.6,0.6,1.1,1,1.6
		c1.4,1.9,2.9,3.9,4.5,5.6c3.4,3.8,5.2,8.4,7.1,13.1c-0.4,0.1-0.6,0.1-0.8,0.1c-4.1-1.2-8-0.7-11.9,1c-0.1,0.1-0.2,0.1-0.3,0.1
		c-1.8,0.7-3.4,1.7-4.9,2.8C453.4,249.6,453.6,251.2,455.7,252.1z"/>
	<path class="st1" d="M550.6,265c1.8,0.7,3.3,0.3,4.5-1c0.5-0.5,0.9-1.2,1.3-1.8c3.3-3.5,6.2-7.7,11.5-8.6c0.4-0.1,0.8-0.3,1.2-0.5
		c1.4-0.8,3.1-1.5,3.8-3.1c0.6-1.4,1.6-2.1,3-2.4c1.6-0.4,2.8-1.4,3.8-2.6c0.9-1.1,1.4-2.4,0.9-3.8c-0.5-1.2-0.4-2.5-0.3-3.7
		c0-1.6-0.4-3.1-0.6-4.7c-0.5-3.6-6.1-6.3-9-5.4c-2.6,0.8-5.2,1.8-7.3,3.5c-4.8,3.9-8.6,8.5-10.5,14.5c-0.5,1.5-1.1,2.9-1.8,4.3
		c-1.6,3.1-2.9,6.3-2.8,10c0,0.5-0.1,1,0,1.7C548.3,263,548.9,264.4,550.6,265z"/>
	<path class="st1" d="M575.8,332.2c-0.3,0.7-0.8,1-1.4,1.1c-1.4,0.3-1.7,1.3-1.7,2.6c0,1.3,0.5,2.5,1.4,3.4c3.7,4,8.1,6.6,13.7,6.7
		c0.7,0,1.4,0.1,2.2,0c3.5-0.4,6.1-2,7.5-5.4c0.4-1,0.6-2,0.5-3.1c-0.1-1.3,0.3-2.1,1.6-2.6c2.5-1,4.6-2.6,6.1-4.8
		c1.6-2.4,3.6-4.7,5.3-7c0.2-0.3,0.4-0.5,0.5-0.8c0.1-0.1,0.1-0.5-0.1-0.6c-0.1-0.1-0.4-0.3-0.5-0.2c-0.7,0.3-1.3,0.7-1.9,1
		c-1.4,0.8-2.9,1.6-4.4,2.4c-0.7,0.4-1.5,0.8-2.4,0.7c-1.7-0.1-3.3,0.4-4.9,0.8c-2.1,0.5-4.1,0.5-6.2,0.6c-1.2,0-2.3,0.1-3.5,0
		c-2-0.2-4,0.3-5.9,0.8C579.2,328.6,576.8,329.5,575.8,332.2z"/>
	<path class="st1" d="M585.8,548.8c-0.4-2.8-2.5-4.5-5.2-4.3c-1.7,0.1-2.8,1.1-3.4,2.4c-1.2,2.6-2.8,4.8-4.4,7.2
		c-1.8,2.7-1.8,5.3,0.3,7.7c0.7,0.8,0.9,1.6,0.8,2.6c-0.1,0.5-0.1,1-0.3,1.5c-0.5,1.4-0.1,2.7,0.3,4c0.9,2.4,3.6,3.1,5.6,1.4
		c0.6-0.5,1.2-1.2,1.6-1.9c2.6-5.1,5-10.3,4.7-16.3C585.8,551.7,586,550.2,585.8,548.8z"/>
</g>
<g>
	<path class="st2" d="M553.6,442.7c-1-0.3-2-0.8-2.9-1.2c-3.3-1.4-6.7-2.4-10.3-1.6c-1.3,0.3-2.7,0.5-4,0.9c-1,0.3-2,0.5-3.1,0.3
		c-2.1-0.2-3.5-1.6-3.6-3.7c-0.1-0.7,0-1.2,0.1-1.9c0.1-0.9-0.4-1.6-1.1-2.1c-2.1-1.5-4.4-2.6-6.9-2.8c-5-0.4-10-0.9-15.1-0.3
		c-1.8,0.3-3.5,0.8-5,1.8c-1.1,0.8-1.3,1.4-0.7,2.7c0.6,1.2,1.4,2.4,2.1,3.5c0.3,0.5,0.8,1,1.1,1.5c0.9,1.5,0.5,3.2-0.7,4.3
		c-1,1-2.8,1-4.1,0.1c-0.5-0.3-1-0.8-1.4-1.2c-1.2-1.2-2.8-1.8-4.5-2c-3.3-0.4-6.6-1-10-0.7c-3.5,0.3-6.4-0.7-8.7-3.3
		c-0.4-0.4-0.7-1.1-1.5-0.7c-0.7,1.2-0.9,2.6-1.2,3.9c-0.3,0.9-0.3,1.9-0.1,2.8c0.7,2.3,1.2,4.7,2,6.9c0.7,2.2,2.2,3.7,4.3,4.8
		c2.8,1.6,5.8,1.6,8.8,1.6c0.7,0,1.4,0.1,2-0.6c-0.5-0.9-1.1-1.7-1.6-2.7c-1.1-2.3-0.7-4.5,1.3-6.2c1.2-1,2.5-1.5,4-1.6
		c4.3-0.2,7.8,1.4,10.3,4.8c2.6,3.3,3.9,7.1,4.2,11.3c0.1,1-0.1,2.1-0.4,3.1c-0.5,1.8-1.7,3-3.4,3.3c-3.7,0.7-7.1,0.1-9.8-2.8
		c-0.7-0.8-1.4-1.6-2.1-2.3c-0.9-1-2-1.4-3.4-1.3c-1.9,0.1-3.7,0.1-5.6,0.2c-0.4,0-0.9-0.1-1,0.5c0.1,0.2,0.1,0.4,0.3,0.5
		c3.7,3.8,7.6,7.5,12.4,10c3.5,1.8,7.2,2.6,11.1,2.9c1.1,0.1,2-0.3,2.8-1.2c0.9-1.1,1.9-2.2,2.9-3.3c0.7-0.7,1-1.6,1-2.6
		c0-2.9,0-5.8-0.5-8.8c-0.5-2.8-0.7-5.6-0.5-8.5c0.1-2.1,1.1-3.8,2.8-5.1c1.4-1.2,3.1-0.9,4.1,0.5c0.7,0.9,0.9,1.9,1,2.9
		c0.1,2.4,0.2,4.8,0.2,7.2c0,5.6-0.1,11.3-0.1,17c0,2.5,0.3,5,1.2,7.7c1.4-0.8,2.4-1.5,3.6-1.9c0.3-0.1,0.6-0.2,0.9-0.3
		c1.4-0.6,2.7-1.4,3.9-2.2c1.7-1.2,3.3-2.4,5.1-3.4c0.5-0.3,0.4-0.9-0.1-1.3c-0.5-0.5-1.2-0.9-1.8-1.2c-1.1-0.5-2.2-1.2-3.3-1.8
		c-1.9-1.1-2.8-2.8-2.9-4.9c-0.2-2.6,0-5,0.5-7.5c0.4-2,0.9-3.9,1.8-5.6c3-5.7,10.8-8.2,17.1-2.6c1.4,1.2,2.2,2.8,2.5,4.7
		c0.5,2.5-0.6,4.8-2.9,6.1c-2.4,1.2-5,1.6-7.6,0.9c-0.6-0.1-1-0.7-1.8-0.3c-0.1,0.7-0.2,1.4-0.4,2.1c-0.3,0.9,0.1,1.6,0.8,2.2
		c1.3,1.1,2.8,1.8,4.5,2.3c0.8,0.2,1.6,0.3,2.5,0.1c5.8-1.6,10.2-4.7,12.6-10.4c0.5-1.4,0.9-2.8,1.4-4.1c0.9-2.6,0.3-5-0.6-7.3
		C555.6,443.8,554.8,443,553.6,442.7z"/>
	<path class="st2" d="M571.1,511.5c-0.7-1.7-2.4-2.2-3.8-1c-1.6,1.3-3.3,2.1-5.3,2.5c-0.9,0.1-1.4,0.7-1.8,1.6
		c-1.2,3.3-2.1,6.8-2.9,10.2c-0.2,0.9-0.2,1.6,0,2.5c0.9,3,1.8,6,2.8,9.6c1.7-1.8,2.8-3.3,3.9-4.8c1-1.4,2.2-2.8,2.8-4.5
		c1.4-3.7,2.8-7.4,4.3-11.1c0.1-0.4,0.3-0.8,0.4-1.2C571.8,513.9,571.7,512.7,571.1,511.5z"/>
	<path class="st2" d="M453.5,517.3c0-1.7,0.1-3.4,0-5.1c0-1.7-0.1-3.3-0.1-5c0-0.9-0.4-1.4-1-1.8c-0.1-0.1-0.1-0.1-0.1-0.1
		c-0.5-0.3-0.9-0.5-1.4,0.1c-0.3,0.5-0.8,0-1-0.3c-1.1-1.1-2.4-2-3.9-2.4c-2.2-0.5-4,0.8-4.1,3.1c0,0.6,0.1,1.2,0.3,1.8
		c1.3,4.7,3.1,9.1,5.6,13.2c1.1,1.9,2.5,3.6,4.7,4.5c0.3,0.1,0.5,0.3,0.8,0.5c0.3,0.3,0.7,0.6,1.1,1c-0.1-0.9-0.3-1.6-0.3-2.4
		C453.6,521.9,453.5,519.6,453.5,517.3z"/>
</g>
<g>
	<g>
		<path class="st3" d="M445.8,294.9c1.3,1.2,3.6,1,4.9-0.2c1.2-1.2,1.2-3.3-0.3-4.8c-0.7-0.7-1.6-1.3-2.5-1.9
			c-0.3-0.2-0.6-0.3-0.7-0.3c-0.6-0.1-1.2,0.1-1.6,0.5C443.8,290.2,443.7,292.9,445.8,294.9z"/>
	</g>
	<g>
		<path class="st3" d="M596.5,297.5c1.2,0.5,2.3,0.3,3.1-0.7c1.2-1.3,2.4-3.6,0.4-5.5c-0.5-0.5-1-1-1.5-1.6c-0.7-0.7-1.6-1-2.4-0.9
			c-1.1,0-2,0.2-2.6,1c-1.2,1.4-1.2,4.1,0.1,5.5C594.3,296.3,595.3,297,596.5,297.5z"/>
	</g>
	<g>
		<path class="st3" d="M433.4,310.6c1.2,0.8,2.6,1.4,3.9,2.2c1.8,1,3.7,1.3,5.8,1.2c2.9-0.1,5.6-0.8,8.2-2c3.5-1.7,5.7-4.5,7-8.1
			c0.3-0.8,0.4-1.6,0.4-2.4c0.1-2.6,0-5.2,0-7.9c0-1-0.3-1.8-1.4-2.8c0,0.7,0,1,0,1.3c0,0.4,0.1,0.9,0.1,1.2c0.1,4-1.1,7.4-4,10.2
			c-2.8,2.8-6.3,4.1-10,4.7c-0.6,0.1-1.2,0-1.9-0.1c-3.1-0.4-5.5-1.9-7.6-4.1c-4.9-5.2-4.4-12.7,1-17.3c0.5-0.4,1-0.7,1.5-1.2
			c0.1-0.1,0.1-0.4,0.1-0.5c-0.1-0.1-0.3-0.3-0.5-0.3c-2.2,0.3-3.9,1.4-5.3,3.1c-2.2,2.6-3.3,5.5-3.7,8.8
			C426.1,302.7,428.3,307.3,433.4,310.6z"/>
	</g>
	<g>
		<path class="st3" d="M421.4,241.8c-0.5-1.7-2-2-3.1-2.8c-1.2-0.8-2.4-1.7-3.6-2.6c-1.2-0.9-2.6-1.8-3.8-2.8
			c-0.6-0.5-1.2-0.8-1.8-1.1c-2.7,0.3-5.3,0.7-7.8,1.9c-4.4,2-8.6,4.3-12.3,7.5c-0.7,0.5-1.2,1.1-1.7,1.8s-0.6,1.3-0.5,2
			c0.5-0.2,0.9-0.3,1.3-0.5c2.9-1.2,6.1-1.6,9.2-1.8c2.6-0.1,5,0.2,7.4,1c0.7,0.3,1.4,0.5,2,0.8c0.3,0.1,0.5,0.2,0.8,0.3
			c2.8,1,5.6,2.1,8.3,3.2c1.8,0.7,3.5,1.5,4.8,2.8c1.9,2,4.3,2.4,6.8,2.8c0.5,0.1,1,0,1.6,0.1c1.4,0.3,2.1,1.4,2,2.8
			c-0.1,1.1-0.7,2-1.5,2.7c-1.7,1.6-3.8,2.6-6,3.3c-2.5,0.8-5.1,1.2-7.7,1.4c-2.8,0.3-5.6,0.3-8.4,1c-5.1,1.2-9.6,3.8-13.4,7.3
			c-2.4,2.2-4.5,4.7-6.7,7.1c-2.1,2.4-3.6,5.1-4.4,8.3c-0.4,1.8-0.4,3.5,1,4.9c1.2,1.3,1.7,3,1.8,4.9c0.1,2.2-0.9,3.9-2.8,4.9
			c-1.8,0.9-3.5,1.9-5.4,2.4c-1.9,0.4-3.5,1.1-5,2.4c-1,0.8-2.2,1.3-3.3,1.8c-0.9,0.4-1.7,0.8-2.4,1.4c-0.6,0.5-0.7,1.1-0.5,2
			c0.9,3.7,0.2,5.6-3.1,7.7c-0.6,0.4-1.2,0.8-1.9,1.1c-2.2,1.2-4,2.7-5.6,4.5c-1.5,1.6-3.1,3.1-4.6,4.7c-0.5,0.5-1,0.8-1.4,1.2
			c-3.8,3.5-8.2,4.6-13.1,2.8c-1.9-0.7-3.7-0.4-5.6,0.2c-3.9,1.2-7.7,2.7-11,5.2c-0.4,0.3-0.9,0.7-1.3,0.9c-2.1,1.2-3.7,2.8-5.2,4.5
			c0.7-0.2,1.2-0.5,1.9-0.7c1.4-0.6,2.9-1.2,4.5-1.3s3.1-0.5,4.7-0.9c1.8-0.5,3.7-0.5,5.6-0.7c4.7-0.4,7.9,2.2,10.9,5.2
			c0.4,0.4,0.1,1-0.5,1.1c-0.2,0-0.4,0.1-0.7,0.1c-5,0.4-9.6,2.1-13.8,4.7c-4.3,2.7-8.1,6-11.5,9.7c-0.1,0.1-0.1,0.1-0.1,0.2
			c1.2-0.4,2.5-0.7,3.8-0.9c3.2-0.3,6.3,1.9,7.5,5.1c0.7,1.8,0.7,3.7,0.4,5.6c-0.5,2.5-0.9,5-1.3,7.4c-0.7,3.6-0.4,7.1,1,10.5
			c0.9,2.1,1.8,4.2,2.8,6.4c0.5,1.1,1.1,2.3,1.6,3.4c1.4,3.2,1.6,6.5,0.5,9.8c-0.5,1.2-0.7,2.4-0.3,3.7c0.4,1,0.2,2.1-0.1,3.1
			c-0.4,1.2-0.8,2.4-1.3,3.5c-0.9,1.8-0.9,3.6-0.5,5.5c1.2,6.1,3.1,11.9,5.6,17.6c1.1,2.6,2.7,5,4.5,7.2c1.1,1.4,2.2,2.8,3.1,4.3
			c0.5,0.9,1,1.8,1.4,2.8c0.6-0.5,1.2-1,1.8-1.5c2.4-2.2,5-3.5,8.3-4.3c0.1,0.9,0.2,1.6,0.3,2.3c0.1,0.9,0.3,1.7,0.5,2.5
			c0.8,2.4,0.5,4.6-0.5,7c-1.2,3-2,6.2-2.1,9.4c0,0.3-0.2,0.9,0.7,1c0.1-0.1,0.3-0.4,0.4-0.7c1.8-3.7,4.8-6.3,8.1-8.6
			c0.7-0.5,1.4-1,2.1-1.4c2.3-1,4.8,0.3,5.1,2.9c0.1,1,0,2.1-0.1,3.1c-0.3,1.6-0.6,3.3-0.9,5c-0.8,6-0.3,11.9,2.2,17.5
			c1,2.3,2.2,4.5,3.3,6.7c1.8,3.2,3.7,6.4,6.2,9c2.7,2.8,5.7,5.2,8.6,7.8c0.5,0.4,0.9,0.9,1.8,0.5c0-1,0.1-2,0.1-3
			c0.2-5,1.1-10,3-14.7c0.4-0.9,0.7-1.7,1.4-2.4c1.2-1.2,2.9-0.8,3.5,0.9c0.1,0.4,0.2,0.8,0.2,1.2c0.7,5.7,1.5,11.4,3.1,17
			c0.9,3.3,2.2,6.4,4.1,9.1c2.7,3.7,5.2,7.4,7.8,11.1c0.2-0.9,0.1-1.8-0.2-2.8c-0.6-1.8-1-3.7-0.5-5.6c0.7-3,2-5.8,3.5-8.3
			c0.5-0.8,1.2-1.4,2.1-1.9c1.3-0.7,2.4-0.1,2.3,1.4c-0.1,0.9-0.3,1.8-0.4,2.8c-0.3,2.4-0.5,4.8,0.3,7.1c0.4,1,0.9,1.9,2,2.2
			c0.3,0.1,0.6,0.2,0.9,0.3c2.6,1.2,3.9,3.5,3.5,6.4c-0.1,0.7-0.3,1.4-0.6,2.1c-0.5,1-0.5,2,0,3c0.1,0.1,0.1,0.2,0.1,0.3
			c1.8,4.5,3.5,9,5.5,13.4c2.2,4.8,5.6,8.5,10.7,10.5c3.2,1.2,6.3,2.8,9.2,4.7c0.5,0.3,1,0.8,1.8,0.5c0.1-0.3,0.2-0.6,0.2-0.9
			c0.4-5.3,0.7-10.7,1.8-15.9c0.2-0.9,0.1-1.8-0.1-2.8c-0.9-3.6-2.8-6.6-5.9-8.6c-2.8-1.8-5.3-4.1-7.3-6.8c-0.6-0.7-1.2-1.5-1.8-2.2
			c-2.1-2.1-3.7-4.5-5.2-7.1c-1.1-2-2.2-4-3.4-6c-1.3-2.3-2.2-4.7-2.9-7.3c-0.5-1.8-0.9-3.7-1.3-5.5c-0.7-3.4-1.2-6.8-0.7-10.3
			c0.3-1.6,0.4-3.3,0.5-5c0.3-3.9,0.6-7.7,0.9-11.6c0.1-0.7,0.1-1.3,0.3-1.8c0.6-1.2,0.3-2.2-0.5-3.1c-2.5-3.3-4.1-7.1-7.1-10
			c-0.2-0.2-0.4-0.5-0.6-0.7c-2.1-3.1-2.6-6.4-0.9-9.8c0.5-0.9,1-1.8,1.6-2.7c0.7-1,1-2,1.4-3.1c0.1-0.5,0.1-0.9-0.3-1.1
			c-2.6-2.2-5-4.4-8.5-5c-1.6-0.3-3.1-0.5-4.7-0.5c-1.2,0-2.3-0.2-3.4-0.7c-2.7-1.2-3.3-4.5-1.2-6.4c1.8-1.7,3.6-3.5,6.5-4.4
			c-2.4-2.2-4.8-3.9-7.4-4.9c-2-0.9-3.7-1.9-5.2-3.4c-1.2-1.2-2.6-2-4.3-2.4c-2.6-0.5-4.5-2.2-5.7-4.5c-0.8-1.5-1.2-3.1-1.4-4.8
			c-0.5-4.1,0.4-7.9,2.8-11.3c2-2.9,2.2-6,1.5-9.3c-0.3-1.1-0.7-1.9-2-1.9c-1,0-1.9-0.7-2.8-1.2c-2-1.1-4-1.8-6.3-1.9
			c-1.2-0.1-2.2,0.3-3,1.3c-0.7,0.9-1.3,1.6-2,2.4c-0.1,0.1-0.4,0.1-0.5,0c-0.1,0-0.1-0.2-0.1-0.3c0-0.4-0.1-0.9,0.1-1.2
			c0.5-2.2,1.2-4.5,1.4-6.7c0.1-1.4,1.2-2.5,2.4-3.1c2.5-1.3,5.1-2,7.9-1.2c3.5,1,6.5,2.9,8.3,6.2c0.6,1.1,1.4,2.1,2,3.1
			c0.7,1,1.4,2.1,1.9,3.3c1.8,3.6,3,7.3,3,11.5c0,0.9,0.3,1.6,1.2,2c1.2,0.6,2,1.6,2.4,2.8c0.5,1.5,1.5,2.5,2.7,3.4
			c0.8,0.7,1.6,1.4,2.4,2c2.5,1.8,4.5,4.1,6.3,6.6c2,2.8,3.8,5.5,6.2,7.9c4.1,4.2,6.7,9.3,8.6,14.8c1.6,4.8,3.1,9.8,4.5,14.7
			c1,4.1,2.3,8.1,3.5,12.1c1.5,4.8,3.8,9.3,6.7,13.4c1.6,2.3,3.3,4.6,5,6.8c1.5,2,3.4,3.7,5.4,5.2c1.1,0.8,2.2,1.5,3.4,2.3
			c9.6,6.5,20,8.1,31.2,6c4.1-0.8,8.2-1.7,12.3-2.6c2.9-0.7,5.8-0.6,8.7-0.1c3.6,0.7,7.2,1.4,10.7,2.6c3.7,1.3,7.5,1.9,11.4,2.1
			c1.4,0.1,2.9,0.1,4.4,0.1c3.7,0.1,7.3-0.3,11-0.6c6.6-0.5,12.8-2,18.3-5.7c0.3-0.2,0.5-0.3,0.8-0.5c5.4-3.3,10-7.7,14.1-12.3
			c2.1-2.4,4-4.8,6-7.3c2.9-3.6,5.4-7.5,7.1-11.8c2.4-6,4.4-12.2,5.2-18.7c0.3-2.4,0.5-4.8,0.9-7.2c0.7-5.7,2.2-11.1,5.5-15.9
			c2.9-4.2,5.9-8.4,8.7-12.6c2.2-3.4,5.3-6,9.1-7.5c2.4-0.9,4.8-1.6,7.2-2.2c3.2-0.8,6.4-0.9,9.5,0.7c0.6,0.3,1.2,0.4,1.8,0.4
			c2.2-0.1,3.9,0.9,5.2,2.4c1.5,1.8,3.3,3.2,5.1,4.6c0.7,0.5,1.4,0.9,1.6,1.8c-0.9,0.8-1.8-0.1-2.5-0.3c-1.7-0.5-3.2-0.4-4.8,0.3
			c-2.6,1.2-5,2.7-7.3,4.3c-1.2,0.9-1.4,1-2.4,0c-0.9-1-1.8-0.9-2.8-0.5c-0.8,0.3-1.5,0.7-2.2,1.1c-1.3,0.9-2.6,1.8-3.9,2.6
			c-2.6,1.5-3.3,3.9-3.7,6.6c-0.1,1.3,0.1,2.5,1.1,3.5c0.8,0.7,1.3,1.6,1.7,2.6c0.9,2.3,0,4.8-2,6c-0.7,0.5-1.5,0.7-2.4,0.9
			c-1.6,0.2-3.3,0.5-5,0.7c-2.9,0.4-6.2,3-6.6,6.7c-0.7,7.1-2.8,14-5.1,20.7c-2.2,6.3-5.3,12.1-9.4,17.3c-1,1.2-1.6,2.4-1,4
			c0.4,1,0.2,2.1,0.1,3.1c-0.1,0.9-0.3,1.9-0.3,2.8c-0.4,5.2-1.7,10.1-3.9,14.8c-0.9,1.9-1.7,3.9-2.4,5.8
			c-2.4,6.9-6.1,13.1-9.7,19.3c-0.4,0.7-0.8,1.2-1.2,1.8c-2.8,3.7-5.6,7.3-8.4,11c-1,1.2-2,2.4-3.1,3.6c-1,1-1.7,2.3-2.4,3.7
			c-0.6,1.3-0.7,2.5,0.1,3.9c1.1,2,1.8,4.3,2.4,6.5c1.8,6.5,3,13,3.9,19.7c0.2,1.2,0.4,2.5,0.7,3.7c0.3,1,0.9,1.3,1.9,1.2
			c1.4,0,2.7-0.6,3.7-1.5c1.3-1.2,2.7-2.4,3.9-3.7c2.4-2.5,5-4.7,8.1-6.5c1.8-1,3.4-2.4,4.8-4c2.8-3.1,4.5-6.5,3.7-10.9
			c-0.4-2.1-0.3-4.2,0.5-6.2c0.3-0.9,0.3-1.6-0.1-2.4c-0.8-1.6-1.6-3.1-2.5-4.7c-0.4-0.7-0.8-1.5-1.1-2.3c-0.4-1,0.1-1.8,0.8-2.6
			c0.7-0.7,1.4-0.7,2.3-0.4c1.4,0.5,2.6,1.3,3.7,2.3c2.1,1.8,4.1,3.7,6.1,5.4c2.8,2.4,4.8,5.5,6.4,8.8c0.9,2,1.5,4.1,2,6.3
			c0.1,0.7,0,1.5,0.9,1.8c0.3-0.1,0.6-0.2,0.9-0.3c2.8-2,5.6-4.1,8-6.6c0.9-2.9,1.7-5.8,2.4-8.8c0.7-3.4,1.2-6.7,1.3-10.2
			c0.1-4.1,0.4-8.1,0.7-12.2c0-0.4,0.1-0.9,0.2-1.2c0.3-2.4,1-4.7,1-7.1c0-0.4,0.1-0.9,0.3-1.2c1.7-2,1.7-4.5,2.2-6.7
			c0.5-2.7,0.7-5.4,0.3-8.1c-0.1-0.8,0.5-1.2,1.2-0.9c0.9,0.5,1.6,0.9,2.4,1.5c1.2,0.9,2.2,1.9,3.4,2.8c1.6,1.2,3.6,0.8,4.6-0.9
			c0.2-0.3,0.4-0.7,0.5-1.1c1-3.3,2-6.6,2.1-10.1c0.2-5,0.4-10,0.1-15.1c0-0.5-0.3-1,0.5-1.3c0.9,0.3,1.4,1.2,2.2,1.8
			c1.2,1,2.4,2,3.9,2.7c2.4,1,4.8,0.5,6.6-1.5c1.6-2,3.3-4.1,4.4-6.5c1-2.4,2.3-4.7,3.1-7.2c0.9-2.6,2.5-4.5,4.7-6
			c3.3-2.4,6.9-4.4,10.7-6c3.7-1.5,6.7-3.8,9.5-6.6c2.2-2.2,4.6-4.3,6.9-6.4c2.4-2.2,6.8-5.4,9.2-7.3c-0.1,0-0.3,0-0.5-0.1
			c-0.2-0.9,0.5-1.6,0.8-2.3c0.6-1.3,1.1-2.7,1.6-4c0-0.3,0.1-0.5,0.2-0.7c1-3.4,1.6-6.9,1.4-10.5c-0.1-1.1-0.2-2.3-0.3-3.4
			c-0.3-2.1-0.7-4.1-1-6.2c-0.2-1.2-0.6-2.4-1-3.6c-1-2.8-1.4-5.7-1.4-8.6c0.1-2.9,1.1-5.4,3.5-7c3.6-2.4,4.7-6,5.2-9.9
			c0.3-2.1,0.3-4.2,0.2-6.3c-0.3-4-1.4-7.8-3-11.5c-0.5-1-1.3-1.8-2.1-2.8c-2.9-3.3-3.3-6.2-1.2-10c0.7-1.2,0.7-2.1,0.1-3.2
			c-1.1-1.9-2.2-3.8-3.3-5.7c-0.7-1.2-1.6-2.4-2.3-3.7c-0.6-1.2-0.7-2.2-0.4-2.9c-1.6-0.7-3.2-1.4-4.8-2c-5.9-2.3-12.1-3.6-18-5.5
			c-1.1-0.3-2.3-0.3-3.4-0.1c-0.5,0.1-1,0.3-1.5,0.4c-2.9,0.3-4.8-2.4-3.6-5c0.3-0.7,0.7-1.2,1.2-1.8c1.2-1.4,2.7-2.7,4.3-3.6
			c0.5-0.3,0.9-0.5,1.4-0.8c-0.6-0.1-1.2-0.1-1.8-0.3c-4.3-0.7-8.4-1.9-12.4-3.2c-1.9-0.6-3.3-1.8-4.5-3.3c-1.4-1.8-2.8-3.7-4.1-5.6
			c-1.6-2.4-2.3-5.2-2.1-8.1c0.3-3.9-1.4-6.9-4.2-9.4c-1.5-1.4-3.3-2.2-5.3-2.6c-1.6-0.3-3.3-0.6-4.9-0.9c-0.3-0.1-0.5-0.4-0.5-0.7
			c0-0.4,0.3-0.6,0.6-0.5c2.8,0.4,5.2-0.6,7.6-1.6c0.9-0.4,1.8-0.8,2.8-1.2c0-0.1-0.1-0.2-0.1-0.3c-0.3-1.6-0.5-3.3-0.4-5
			c0.2-3-1.2-5.3-2.9-7.4c-3.7,2.1-7.9,2.6-12.3,1.4c-1.5-0.4-2.9-1-4.4-1.6c-1.9-0.9-3.8-1.8-5.6-2.7c-0.8-0.4-1.6-0.5-2.4-0.1
			c-0.3,0.1-0.6,0.3-0.9,0.3c-2.8,0.7-5.3-0.2-6.7-2.7c-1.4-2.4-2.7-5-3.8-7.6c-1.6-3.5-1.9-7.3-1.1-11.1c0.1-0.4,0.1-0.8,0.2-1.4
			c-1.3-0.1-2.3,0.5-3.2,1.1s-1.6,1.3-2.5,1.9c-3.9,2.8-8,1.8-10.3-2.4c-1-1.8-1.6-3.9-1.5-6c0.1-2.9,0.5-5.8,1.2-8.7
			c0.3-1.6,0.8-3.3,0.7-5s-0.7-3-2.2-3.9c-3.7-2-5.1-5.1-4.8-9.2c0.3-2.8,0.1-5.6-0.4-8.5c-0.6-3.9-2.8-6.7-6.2-8.5
			c-1-0.5-2-0.5-3.1-0.5c-4.1,0.1-7.7,1.2-11.3,3.4c-6,3.7-10.7,8.7-15.1,14.1c-3.5,4.4-6.7,9.2-9.2,14.2
			c-2.8,5.6-5.6,11.2-8.4,16.9c-2.2,4.5-3.9,9-4.9,13.9c-0.4,2-0.7,3.9-1,5.9c-0.4,2.5-1.1,4.9-2.1,7.2c-0.1,0.2-0.5,0.4-0.7,0.5
			c-0.1,0-0.3-0.2-0.5-0.4c-1.2-2-2-4.1-2.4-6.4c-0.5-3.2-0.9-6.4-1.2-9.6c-1-13.4-0.9-26.8,0.7-40.2c0.9-7.4,2.5-14.6,5.1-21.6
			c-0.1-0.9-0.3-1.8-0.3-2.8c-1-9.4-3.5-18.3-7.5-26.7c-1.1-2.4-2.2-4.7-3.7-6.9c-0.7-1-1.5-2-2.6-2.7c-1.9-1.2-3.8-1-5.5,0.4
			c-1.4,1.2-2.5,2.6-3.1,4.3s-1.2,3.3-1.8,5c0.4,0.5,0.7,1,1,1.5c1,1.5,1.5,3.2,1.8,5c0.5,3.2,0.5,6.4,0,9.7
			c-0.5,3.1-0.5,6.2,0.9,9.2c0.7,1.6,0.9,3.4,1.1,5.2c0.5,4.1,0.5,8.1-0.4,12.2c-0.6,2.7-0.9,5.4-0.9,8.1c-0.1,3.3,0.2,6.4,1,9.6
			c1.3,5.2,2.3,10.4,3.3,15.7c0.4,2.2,0.5,4.4,0.5,6.6c0.1,7.5,0.7,15.1,1.3,22.6c0.1,1.1,0.3,2.3,0,3.3c-0.7,0.1-0.9-0.3-0.9-0.7
			c-0.7-2-1.3-4-1.8-6c-1.1-3.9-2.2-7.9-3.1-11.9c-1.8-7-6.6-11.5-13-14.4c-2.6-1.2-4.1-3.1-4.7-5.8c-1.3-5.3-3-10.5-5-15.5
			c-1.5-3.8-3.6-7-6.9-9.6c-1.6-1.2-2.9-2.6-4.4-4c-1.9-1.8-4.1-3.3-6.6-4.1c-1-0.3-2-0.7-2.9-1.1c-5.3-2.2-10.3-1.1-15.1,1.6
			c-4.3,2.4-7.7,5.8-10.5,9.8c-0.8,1.1-1.4,2.4-1.5,3.7c-0.1,1.4-0.4,2.7-0.5,4.1c-0.5,5-1.7,9.7-4.8,13.8c-0.9,1.2-0.9,2.2,0.1,3.3
			c0.5,0.6,0.9,1.4,1.2,2.2c0.5,1.7,0.5,3.3-0.9,4.7c-0.9,0.9-1.4,1.8-2.2,2.7c-1.6,2.1-3.7,3.1-6.4,2.3c-0.8-0.3-1.6-0.5-2.4-0.7
			C422.2,242.4,421.5,242.1,421.4,241.8z M581.2,569.5c-0.4,0.7-1,1.3-1.6,1.9c-2,1.8-4.7,1-5.6-1.4c-0.5-1.3-0.8-2.6-0.3-4
			c0.1-0.5,0.3-1,0.3-1.5c0.1-0.9,0-1.8-0.8-2.6c-2.2-2.4-2.1-5-0.3-7.7c1.6-2.4,3.1-4.7,4.4-7.2c0.7-1.3,1.7-2.4,3.4-2.4
			c2.7-0.1,4.8,1.4,5.2,4.3c0.2,1.4,0.1,2.9,0.1,4.4C586.1,559.1,583.8,564.4,581.2,569.5z M374.9,395.4c2.6,3.9,2.5,8.6-0.5,12.2
			c-1.2,1.4-1.9,3.1-2,4.8c-0.3,3.7-0.5,7.5,0.9,11.1c1.2,3.4,3.5,5.6,6.4,7.5c1.9,1.2,4.1,2,6.4,2.4c1.4,0.2,2.9,0.7,4.3,1
			c4.6,1.4,6.5,4,6.5,8.8c0,0.7,0,1.2,0,1.9c-0.1,1.1,0.3,2,1.1,2.8c2.4,2.6,3.5,5.6,3.3,9.2c-0.2,3.3-0.1,6.7,1.2,9.9
			c0.3,0.6,0.5,1.2,0.7,1.7c2.4,4.5,4.3,9,7.2,13.2c0.5,0.8,0.9,1.6,1.3,2.5c0.3,0.7,0.3,1.4,0.2,2.2c-0.3,1.6-1.9,2.4-3.3,1.6
			c-0.5-0.3-0.9-0.5-1.3-0.9c-3.5-3.3-7.5-6-10.8-9.5c-0.7-0.7-1.5-1.1-2.3-1.6c-3.9-2.4-7.6-4.8-10.6-8.2c-3.1-3.5-5.6-7.3-6.4-12
			c-0.2-1.2-0.3-2.3-0.3-3.4c-0.1-0.9,0-1.9-0.1-2.8c-0.2-2-0.9-3.6-2.5-4.8c-1.2-1-2.5-1.8-4-2.4c-2.5-0.8-5-1.4-7.6-1.7
			c-2.1-0.2-3.5-1.2-4.5-3c-0.4-0.7-0.7-1.5-1.2-2.2c-2-2.2-3.2-4.8-4-7.7c-0.7-2.6-2.3-3.1-4.3-1.2c-1,0.9-2.1,1.7-3.3,2.3
			c-1.4,0.7-2.7,0.5-3.9-0.3c-1.7-1-2.8-2.6-2.8-4.6c-0.1-2,0-3.9,0.5-5.9c0.9-3.7,2.3-7.1,4.3-10.4c1.6-2.9,3.6-5.4,6-7.6
			c0.4-0.3,0.7-0.8,1-1.2c0.4-0.5,0.1-1.4-0.5-1.5s-1.2-0.1-1.8-0.2c-1.8-0.6-2.3-2.6-0.7-3.6c2-1.4,4.3-2.6,6.7-3.2
			c2.2-0.5,4.3-0.7,5.8-0.5c4.7-0.1,8.6,0.5,12.2,2.4C373.1,393.1,374,394.1,374.9,395.4z M462.3,470.5c-1,1.1-2.6,1.3-3.7,0.3
			c-2.9-2.8-6-5.2-7.9-8.8c-2.2-4.4-4.3-8.8-5.9-13.5c-2-6-4.1-11.9-6.1-17.8c-0.5-1.4-0.8-2.8-1.2-4.2c-0.8-2.8-2-5.5-3.4-8.1
			c-0.5-0.9-1.2-1.4-2.2-1.7c-5.5-1.6-10.2-4.7-14.8-8.1c-3.8-2.8-7-6-9.5-9.9c-2.4-3.8-3.5-8-3.9-12.4c-0.1-1.2-0.1-2.5-0.1-3.8
			c0.2-3.3-0.5-6.4-1.2-9.6c-0.5-2.4-1.6-4.6-3.1-6.4c-3.6-4.2-7.7-7.6-13.4-8.8c-3.2-0.7-6.4-1.1-9.6-1.1c-2.9,0-5.6,0.9-8,2.4
			c-1.6,1-3.1,2.2-4.6,3.3c-1.1,0.8-2.3,1.6-3.6,1.8c-3.7,0.9-7.1-1.8-7.3-5.8c-0.1-2,0.5-3.9,1.1-5.8c0.9-2.9,2.5-5.6,4.1-8.1
			c2.6-3.9,4.8-8.1,8-11.7c0.5-0.5,0.9-1.2,1.4-1.6c2-1.8,4-3.7,6.2-5.2c4.4-3.1,8.1-6.9,11.5-11.1c1.7-2,3.2-4.1,4.5-6.4
			c0.3-0.5,0.6-0.9,0.9-1.3c1.7-2.3,4-2.6,6.3-0.9c2.8,2.1,4.2,5,4.4,8.3c0.1,2,0.5,3.9,0.8,5.9c0.4,2.1,1.2,4,2.3,5.8
			c0.3,0.5,0.7,1,1.2,1.4c0.8,0.7,1.6,0.8,2.6,0.2c1.7-1,2.9-2.4,3.7-4.1c0.7-1.4,1.4-2.8,2.6-3.9c0.5-0.4,1-0.8,1.6-0.9
			c1.1-0.1,2.1,0.1,2.8,1c0.5,0.5,0.9,1.2,1.2,1.8c0.9,2,2.2,3.5,4,4.7c4,2.8,8.4,4.2,13.2,4.5c2.6,0.1,4.6,2,4.3,5
			c-0.1,1.6-0.9,2.8-2.4,3.3c-1.4,0.5-2.8,1.1-4.3,1c-2.4-0.1-4.5,0.5-6.6,1.7c-3.5,2-7.4,2.7-11.6,2.5c0.1,1.2,0.4,2.2,0.4,3.1
			c-0.1,3.8,0.5,7.5,0.7,11.3c0.1,3.1,1.4,5.9,2.6,8.6s2.6,5.2,3.9,7.9c0.5,1,1.2,2,2,2.8c0.7,0.7,1.5,1.4,2.2,2.2
			c3,3.5,7.1,5,11.5,5.8c2.9,0.6,5.6,1.4,8.1,3.2c2.3,1.8,3.5,4,3.7,6.9c0.1,2.4-0.5,4.6-1,6.8c-1,4.6-0.3,8.9,2.1,13
			c0.5,0.7,0.9,0.9,1.5,0.3c1.4-1.4,2.8-2.8,4.2-4.2c1.1-1.1,2.5-1.8,4.1-2.3c1.6-0.6,2.9-0.1,4.2,0.7c1.2,0.7,1.9,1.8,1.9,3.4
			c0.1,1.8-0.7,3.5-1.4,5.1c-1.6,3.9-3.2,7.7-4.6,11.7c-2.4,6.7-2.6,13.7-2.2,20.8c0.1,0.9,0.4,1.8,0.5,2.8c0.4,2.7,0.9,5.4,0.7,8.1
			c-0.1,1,0.3,1.8,0.7,2.8c0.3,0.8,0.6,1.6,0.9,2.4C463.5,468.6,463.1,469.6,462.3,470.5z M460.1,395.6c-0.7-2.6-0.2-5,1.4-7.1
			c1-1.3,1.4-2.8,1.5-4.3c0.2-4,1.6-7.5,4.5-10.4c1.2-1.3,2.7-2.4,4.4-2.9c2.6-1,5.1-0.2,6.4,2.3c1,2,2.2,4.1,3.3,6
			c1.8,3.1,0.7,6-2.5,7.5c-1.2,0.6-2.5,1-3.7,1.6c-2,0.9-3.7,1.8-5.2,3.5c-1.1,1.2-2.5,2.2-3.7,3.4c-1.3,1.2-2.2,2.8-3,4.4
			c-1.2,2.4-2.4,4.8-3.4,7.4c-0.1,0.4-0.2,1.2-1,0.9c-0.5-0.1-0.4-0.7-0.3-1.2c0.2-2.7,0.7-5.5,1.3-8.3
			C460.3,397.5,460.4,396.6,460.1,395.6z M481.5,336.1c-3.2,2.5-6.8,3.6-10.9,2.9c-1.6-0.3-3.1-0.7-4.5-1.4c-1.4-0.7-3-0.9-4.6-0.8
			c-2.3,0.2-4.6,0.3-6.9,0.6c-2.9,0.3-4.8-0.9-6.2-3.3c-0.5-0.9-0.1-1.7,0.9-1.8c0.3-0.1,0.7-0.1,0.9-0.1c1.2,0.2,2.2-0.1,3.3-0.8
			c2.6-1.6,5.5-2.5,8.4-3.5c1.6-0.6,3.3-0.7,4.8-0.7c0.6,0,1,0,1.4,0.1c0.8,0.1,1.4-0.3,1.9-0.9c0.8-1,1.6-1.9,2.6-2.8
			c1.2-1.2,2.6-2.2,4.1-2.8c3.3-1.2,6.2,0.1,7.2,3.4c0.6,1.9,0.8,3.9,0.8,5.9C484.5,332.6,483.4,334.6,481.5,336.1z M565.9,450.8
			c-0.6,4.2-2.4,8.1-4.5,11.7c-2.3,4-5.2,7.6-8.5,10.9c-2.4,2.6-5.3,4.4-8.4,6c-3.1,1.6-6.2,3.1-9.3,4.5c-3.1,1.5-6.4,2.5-9.8,3.2
			c-1.8,0.4-3.7,0.7-5.3,1.8c-0.8,0.5-1.6,0.5-2.4,0.1c-5.8-2.2-11.9-3.2-17.8-4.9c-4.7-1.4-9.2-3.4-13.8-5.4
			c-1.6-0.7-3.1-1.6-4.5-2.8c-3.2-2.8-6.2-5.6-8.9-8.8c-2.3-2.8-4.1-5.8-5-9.3c-0.5-1.7-1-3.4-1.6-5.1c-0.4-1.3-0.7-2.6-0.7-4
			c0-1-0.2-2.1-0.4-3.1c-1.2-6.4-0.1-12.2,3.7-17.6c1.6-2.2,3.1-4.5,4.8-6.6c2.5-3.2,5.5-5.8,8.9-7.9c2.8-1.7,5.8-2.9,8.8-4.2
			c0.4-0.2,0.8-0.3,1.2-0.3c4-0.4,7.7-2,11.6-2.6s7.7-1,12.9-0.9c5,0,11.1,1.2,17.3,2.7c3.7,0.9,7,2.8,10.2,4.8
			c1.5,1,2.9,2.1,4.3,3.1c0.6,0.5,1.1,1,1.8,1.3c2.4,1,3.9,3.1,5.8,4.8c3.3,2.9,5.4,6.6,7.4,10.4c1.3,2.6,1.9,5.3,2.3,8.1
			C566.4,444.1,566.4,447.4,565.9,450.8z M570.4,402.4c-0.9-0.2-1-0.9-1.2-1.4c-1-2.2-2-4.4-3.2-6.4c-1.4-2.3-3.2-4.1-5.7-5.1
			c-3.3-1.4-6.4-3-8.9-5.7c-0.4-0.5-1-0.7-1.6-0.9c-3.2-1.2-4.6-3.9-5-7c-0.4-2.3,0.1-4.6,0.9-6.7c0.5-1.2,1-2.5,1.4-3.8
			c0.8-2.8,3.3-3.6,5.6-1.8c2.5,1.9,4.2,4.4,5.3,7.3c0.5,1.2,0.9,2.6,1.2,3.9c0.3,1.7,1.2,3.1,2.4,4.3c0.8,0.7,1.5,1.5,2.2,2.2
			c1.4,1.5,2.6,3.3,3.3,5.3c1.3,3.9,2.6,7.7,3.3,11.7C570.5,399.6,570.7,401,570.4,402.4z M600.9,394.4c-1,4.4-1.6,8.8-1.8,13.3
			c-0.3,8.8-2.1,17.4-6.1,25.4c-1.6,3.3-3.2,6.6-5.3,9.6c-1,1.4-2,2.8-3.3,3.7c-1.4,1-2.4,2.4-3.1,3.9c-0.9,1.6-2,2.9-3.4,4
			c-1.2,0.9-2.8,0.5-3.5-0.9c-0.3-0.5-0.3-1-0.2-1.5c0.7-3.4,1.2-6.7,1.9-10.2c0.8-3.7,1.1-7.4,1.1-11.2c0-1.6-0.7-3.1-1.2-4.5
			c-0.9-2.2-1.4-4.3-1.4-6.7c0.1-1.6,0.5-3.1,1.2-4.5c0.4-0.7,0.9-1.4,1.2-2.2c0.9-1.6,1.4-3.2,1.4-5c0-3.3,1.4-6.3,2.7-9.2
			c0.7-1.6,1.4-3.3,2.2-4.8c1.3-2.8,1.5-5.8,1.4-8.9c0-0.8-0.3-1.4-0.8-2c-1.4-1.8-2.8-3.7-4.1-5.5c-1.4-1.9-2.3-4-2.9-6.2
			c-0.3-1.2-0.5-2.5,0.1-3.7c1.3-3,3.5-3.7,7-2.8c1.3,0.3,2.5,1,3.5,2.1c0.7,0.7,1.4,1.2,2.2,1.7c2.8,1.4,5,3.5,7,5.7
			c2.1,2.4,3.3,5.3,4.2,8.3c0.6,2,1.1,4.1,0.8,6C601.9,390.5,601.3,392.5,600.9,394.4z M611.4,322.4c-0.1,0.3-0.3,0.5-0.5,0.8
			c-1.7,2.4-3.7,4.6-5.3,7c-1.5,2.2-3.6,3.8-6.1,4.8c-1.3,0.5-1.8,1.2-1.6,2.6c0.1,1-0.1,2-0.5,3.1c-1.4,3.3-4,5-7.5,5.4
			c-0.7,0.1-1.4,0-2.2,0c-5.6-0.1-10-2.6-13.7-6.7c-0.9-0.9-1.4-2.1-1.4-3.4s0.3-2.3,1.7-2.6c0.7-0.1,1.2-0.5,1.4-1.1
			c1-2.7,3.4-3.7,5.8-4.3c1.9-0.5,3.9-0.9,5.9-0.8c1.1,0.1,2.3,0,3.5,0c2.1,0,4.1-0.1,6.2-0.6c1.6-0.4,3.2-0.9,4.9-0.8
			c0.9,0.1,1.6-0.3,2.4-0.7c1.5-0.8,2.9-1.6,4.4-2.4c0.7-0.3,1.2-0.7,1.9-1c0.1-0.1,0.4,0.1,0.5,0.2
			C611.4,322,611.4,322.3,611.4,322.4z M653.8,466.7c-2.2,0.9-4.6,1-6.7,0.2c-3.5-1.2-6.1,0.4-8.8,2c-0.4,0.3-0.7,0.8-0.9,1.2
			c-0.9,1.4-1.6,2.9-2.5,4.4c-1,1.6-1.4,3.2-1.2,5.1c0.3,2.2,0.5,4.3,2,6.1c1,1.2,0.7,3.3-0.5,4.3c-0.6,0.5-1.3,0.7-2,0.7
			c-3.7,0.1-6.4,1.8-8.6,4.8c-2.6,3.4-4.3,7.1-5.4,11.2c-1,3.8-2.2,7.6-3.3,11.5c-0.4,1.4-0.7,2.8-0.9,4.3c-0.2,1.2-0.2,2.5,0.1,3.7
			c0.2,0.8,0.3,1.6,0.5,2.4c1.5,4.8,1.4,9.6,0.7,14.5c-0.3,1.8-0.1,3.5-0.2,5.3c-0.2,0-0.3,0-0.5-0.1c-0.7-1.8-1.3-3.7-1.9-5.6
			c-0.3-1-0.8-2-1.3-2.8c-2.4-3.6-4.7-7.1-7.3-10.6c-1.2-1.7-2.8-3.1-4.3-4.6c-4.4-4.3-5.2-9.4-3.6-15c2.2-7.7,5.9-14.7,10.2-21.5
			c1.4-2.3,2.8-4.7,4.3-6.9c1-1.7,2.2-3.3,3.3-5c4.7-6.4,8.5-13.2,10.7-20.8c0.5-1.8,1-3.6,1.4-5.4c0.7-2.8,2.6-4.7,5.3-5.7
			c0.3-0.1,0.6-0.3,0.9-0.3c5-0.5,10-0.3,14.5,2.6c4.9,3.1,7.2,7.7,8.4,13c0.1,0.6,0.2,1.2,0.3,1.8
			C657.1,464.1,656.2,465.8,653.8,466.7z M670.3,443.1c-1,3.9-1.4,7.8-1.8,11.8c-0.1,0.4-0.2,0.8-0.4,1.2c0,0.1-0.5,0.1-0.5,0
			c-0.3-0.8-0.6-1.6-0.8-2.4c-0.3-1.8-1-3.4-1.8-5c-0.5-1.1-1.2-1.8-2.5-2.2c-3.7-1.2-7.1-3.1-10.6-4.7c-1.3-0.6-2.5-1.5-3.7-2.3
			c-1.4-1-2-2.5-1.2-4.1c1.5-3.1,2.3-6.6,4.8-9.1c0.3-0.3,0.5-0.7,0.7-1c0.5-0.9,0.5-1.4-0.3-2.3c-0.6-0.7-1.2-1.2-1.7-1.8
			c-0.5-0.6-0.9-1.2-1.1-1.8c-0.3-0.8,0.2-1.7,1-2c1.1-0.5,2.3-0.3,3.3,0.1c2.4,0.8,4.6,2,6.4,3.8c1,1,2.1,2,3.2,3
			c2.3,2.1,3.9,4.7,5.1,7.5c1.2,2.9,2.1,5.9,2.1,9.7C670.5,441.5,670.6,442.3,670.3,443.1z M628.1,361.8c2.2-5.7,5.4-10.8,9.7-15.2
			c4.1-4.1,9-6.4,14.7-6.9c0.9-0.1,1.7-0.1,2.5-0.3c1.8-0.5,3.3,0.1,4.8,0.8c0.6,0.3,1.2,0.7,1.4,1.2c0.2,1,1.2,1.4,1.7,2.3
			c-0.7,0.5-1.6,0.7-2.2,1.5c-0.7,0.9-1.6,1.2-2.6,1.6c-1.1,0.3-2.2,0.9-3,1.6c-0.2,0.2-0.3,0.5-0.4,0.8c-0.1,0.5,0.4,0.7,0.7,0.9
			c0.2,0.1,0.4,0.1,0.6,0.2c4.5,0.6,8.3,2.6,12.2,4.8c1,0.6,2,1.2,3,1.7c3.7,1.8,6.5,4.6,8.3,8.3c1.8,3.5,3.4,7.2,5,10.8
			c1.1,2.5,2.1,5,3.2,7.5c0.8,1.8,1.4,3.5,1.3,5.4c-0.1,2,0.6,3.9,0.9,5.9c1.2,7.5,0.3,14.7-3,21.7c-0.6,1.2-1.3,2.1-2.2,3
			c-2.2,2.2-4.8,2.2-6.9-0.1c-1.1-1.1-2-2.5-2.6-3.9c-1.8-4.5-4.5-8.3-7.9-11.6c-2.4-2.4-4.7-4.7-7.1-7.1c-2.2-2.2-4.9-3.8-7.7-5.2
			c-4.7-2.4-9.5-4.3-14.3-6.4c-1.4-0.6-2.6-0.8-3.9,0c-0.5,0.3-1,0.5-1.4,0.5c-1.8,0.3-3.3,1.1-4.8,2.2c-1.2,0.9-2.6,1.2-4.1,1
			c-2.6-0.2-4.5-2.1-4.7-4.7c-0.1-1,0.1-2.1,0.4-3.1c0.8-2.8,1.9-5.6,3.5-8.1C625.2,369.4,626.6,365.6,628.1,361.8z M600.6,276.7
			c1.4,0.2,2.9,0.3,3.9,1.7c-2.5,2-5.6,0.5-8.1,1.8c0.3,0.7,0.9,0.5,1.2,0.6c2.4,0.5,4.7,1,7.1,1.5c1.8,0.4,3.7,0.7,5.5,1.2
			c1.6,0.4,3.3,0.3,5,0c0.9-0.1,1.8-0.3,2.8-0.4c1.6-0.1,2.4,0.9,2,2.4c-0.2,0.7-0.5,1.4-0.7,2.1c-0.5,1.6-0.3,3.1-0.1,4.7
			c0.8,7.5-1.3,14.3-5,20.7c-1.8,3.2-4.7,5.6-7.7,7.7c-1.5,1-3.3,1.4-5,1.6c-3.6,0.3-7.1,0.2-10.5-1.4c-3.3-1.6-6.5-1.3-9.6,0.7
			c-1.7,1-3.5,1.7-5.6,2c-0.7,0.1-1.4,0.4-2.1,0.6c-0.8,0.2-1.6,0.5-2.5,0.5c-4.1,0.3-7.3-2.9-7.1-7c0.1-1.1,0.4-2.1,1-2.9
			c0.7-0.7,0.7-1.4,0.2-2.2c-1.6-2.5-2-5.4-3.5-8.1c-0.8-1.4-0.5-3.1,0.1-4.6c1-3,2.8-5.6,5-7.9c3.8-3.9,7.9-7.5,12.3-10.7
			C585.8,276.7,593,275.5,600.6,276.7z M548.1,259.7c-0.1-3.7,1.2-6.9,2.8-10c0.7-1.4,1.3-2.8,1.8-4.3c2-6,5.8-10.6,10.5-14.5
			c2.1-1.7,4.7-2.7,7.3-3.5c2.9-0.9,8.6,1.8,9,5.4c0.2,1.6,0.6,3.1,0.6,4.7c0,1.2-0.1,2.5,0.3,3.7c0.5,1.4,0,2.7-0.9,3.8
			c-1,1.2-2.2,2.3-3.8,2.6c-1.4,0.3-2.4,1-3,2.4c-0.7,1.6-2.3,2.4-3.8,3.1c-0.4,0.2-0.8,0.4-1.2,0.5c-5.3,0.9-8.2,5-11.5,8.6
			c-0.5,0.5-0.9,1.2-1.3,1.8c-1.2,1.4-2.7,1.8-4.5,1c-1.8-0.7-2.3-2-2.5-3.6C548.1,260.8,548.1,260.2,548.1,259.7z M550.2,311.7
			c1.5,0.1,2.4,1,2.9,2.4c0.3,0.7,0.5,1.4,0.5,2.1c0,1.6,0.7,2.7,2.1,3.5c1.9,1.2,3.3,2.8,4.6,4.7c0.7,1,1.1,2,1.1,3.2
			c0.1,2.2-1.6,4-3.8,4.1c-1.2,0.1-2.3-0.3-3.3-0.8c-2.1-1-4.1-2-6.2-3c-3.5-1.8-4.7-4.5-3.4-8.3c0.5-1.6,1.2-3.1,1.8-4.7
			c0.2-0.5,0.5-0.9,0.7-1.4C547.8,312.5,548.8,311.6,550.2,311.7z M493.8,295.5c2,1,3.9,2,6,2.6c1.4,0.5,2.8,0.7,4.3,0.7
			c2.4-0.1,4.8,0.1,7.2-0.1c3-0.1,6-0.6,9-0.6c2.7-0.1,4.8-1.2,5.8-3.9c0.1-0.3,0.3-0.5,0.4-0.9c0.9-3.1,3.4-4.6,6-6
			c1-0.5,2-0.7,3-0.5c1.2,0.1,2.2,0.7,2.8,1.8c0.4,0.7,0.7,1.5,1.2,2.4c1.7-1.2,3-2.2,4.5-3c1.2-0.7,2-0.5,2.8,0.4s1,2.2,0.1,3.1
			c-1.2,1.4-2.4,2.8-3.7,4.3c-2.6,3-4.7,6.4-6.7,9.8c-0.5,0.9-0.9,1.8-1.1,2.9c-0.3,1.6-0.8,3.3-1,4.9c-0.5,3,0,5.9,1.7,8.4
			c1.8,2.8,3.1,5.6,3.1,9c0,0.6,0.3,1,0.9,1.1c1.1,0.3,2.2,0.5,3.3,1c1.4,0.5,2.6,1.3,2.8,3.1c0.1,2-0.6,3.4-2.3,4.5
			c-1.9,1.2-3.9,1.2-6,0.9c-0.9-0.1-1.6-0.3-2.4-0.5c-1.5-0.5-3-0.5-4.7-0.1c-1.1,0.3-2.3,0.1-3.5,0.1c-2.2-0.1-4.2,0.3-6.1,1.2
			c-2.5,1.2-4.8,0.9-7.1-0.6c-0.9-0.5-1.8-1.1-2.6-1.8c-0.8-0.6-1.6-0.9-2.6-0.6c-1.9,0.5-3.8,1-5.8,1.5c-3.3,0.7-5.8,2.7-8.3,4.8
			c-0.7,0.5-1.2,1.2-1.9,1.6c-2.1,1.2-4.6-0.3-4.6-2.8c0-1.3,0.5-2.5,1.1-3.5c0.7-1.2,1.4-2.3,2.4-3.2c0.8-0.7,1-1.5,0.4-2.5
			c-1.2-2.2-2-4.6-1.4-6.9c0.7-2.6-0.1-4.9-0.7-7.3c-0.3-1.2-0.7-2.4-0.7-3.7c0.1-0.9-0.5-1.6-1.2-2c-0.9-0.4-1.7-0.8-2.5-1.3
			c-1.6-1-2.9-2.3-3.4-4.3c-0.3-1-0.3-1.8,0-2.8c0.6-2,1.4-4,3.1-5.3c1.5-1.2,1.4-2.6,0.8-4.2c-0.5-1.3-1.4-2.3-2.4-3.3
			c-0.3-0.3-0.6-0.7-0.3-1.1c0.3-0.4,0.7-0.5,1.1-0.3C487.9,293.4,491,294.1,493.8,295.5z M455.3,248.3c1.5-1.1,3.1-2.1,4.9-2.8
			c0.1-0.1,0.2-0.1,0.3-0.1c3.9-1.6,7.8-2.2,11.9-1c0.2,0.1,0.4-0.1,0.8-0.1c-1.8-4.7-3.7-9.2-7.1-13.1c-1.6-1.8-3-3.7-4.5-5.6
			c-0.4-0.5-0.7-1-1-1.6c-0.6-1.4-0.5-2.6,0.5-3.8c1.1-1.2,2.4-1.6,3.9-1c1,0.4,1.9,0.9,2.8,1.4c5.7,4.3,11.2,8.8,16,14
			c3.1,3.3,5.2,7.1,6.9,11.1c0.7,1.5,0.9,3.2,1.2,4.8c0.3,2,0.7,3.9,0.7,5.9c0,2.1-0.2,4.2-0.8,6.2c-0.8,2.6-1,5.1-0.9,7.7
			c0.1,2-0.4,3.9-1.2,5.8c-1.4,2.9-4.1,4.1-7.2,3.3c-2.3-0.6-4.2-1.8-6-3.3c-0.5-0.5-1-1-1.4-1.7c-1.1-1.8-1.9-3.7-2.3-5.8
			c-0.8-4.5-3.5-7.8-6.7-10.6c-1.8-1.5-3.8-2.9-6.2-3.6c-0.8-0.2-1.6-0.6-2.2-1.2c-0.6-0.7-1.3-0.9-2.1-1.3
			C453.6,251.2,453.4,249.6,455.3,248.3z M433.5,279.6c2.9-1.1,5.9-1.4,8.9-1.4c1.4,0,2.7,0.4,3.9,1c2.6,1.1,5.2,2.3,7.7,3.5
			c1.1,0.5,1.6,0.3,1.7-0.9c0.1-1.1,0.1-2.3,0.3-3.4c0.1-1-0.2-1.6-0.9-2.2c-2.8-2.2-5.8-3.8-9.3-4.3c-1.6-0.2-3.3-0.5-4.9-0.7
			c0.1-0.7,0.6-0.9,1.1-1c2.9-0.9,5.8-0.9,8.7-0.5c3.8,0.5,7.3,1.8,10.5,4c4.3,2.9,6.4,7.1,7.9,11.8c0.6,2,1.2,3.9,2.7,5.6
			c0.7,0.7,1.2,1.7,1.6,2.7c0.7,2,0.9,3.9-0.7,5.6c-0.7,0.8-0.9,1.6-1,2.6c-0.3,2.3-0.5,4.6-1.9,6.6c-0.4,0.6-0.3,1.2-0.1,1.8
			c0.5,1.7,0.6,3.5,0.2,5.3c-0.7,3.7-4.5,6.4-8.3,5.3c-2.2-0.6-4.3-0.5-6.4,0.3c-2.7,0.9-5.3,1.9-8.2,2.2c-3.4,0.4-6.7,0.3-9.9-0.9
			c-2.8-1-5.5-2-8.2-3.2c-4.6-2-7.6-5.4-9.4-10.1c-0.7-1.6-1.1-3.3-1.6-5.1c-0.7-2.5-2.2-4.2-4.4-5.4c-0.5-0.3-1.1-0.5-1.6-0.9
			c-1.9-1.4-2.1-3.7-0.5-5.4c0.5-0.5,1.1-0.9,1.7-1.3c3.7-2.5,7.5-5,11.3-7.4c1-0.6,2-1.1,3.1-1.6
			C429.5,281.1,431.5,280.3,433.5,279.6z"/>
	</g>
	<g>
		<path class="st3" d="M398.8,676.8c-2.8-4.4-5.7-8.8-8.7-13c-0.9-1.2-1.8-2.4-2.7-3.6c-0.1,0-0.1,0-0.1,0c-1.4-0.4-2.6-1.2-3.9-2.1
			c-2.9-2-5.8-4.2-8.9-5.9c-3.2-1.8-5.6-4.4-7.1-7.7c-0.8-1.8-1.6-3.7-2.2-5.6c-2.1-7.5-3.1-15.2-1.9-23c0.2-1.2,0-2.3-0.8-3.2
			c-0.7-0.9-1.2-1.7-1.9-2.5c-2.8-3.2-5.4-6.4-8.3-9.5c-1.8-2-3.5-4.1-5-6.5c-3.3-5.4-4.8-11.3-4.2-17.8c0.2-2,0.3-4,0.5-6
			c0.6-4.7,0.1-9.4-0.5-14.1c-0.3-1.9-0.9-3.6-2-5.2c-2.9-4.1-5.3-8.5-7.5-13c-1.6-3.3-3.2-6.6-4.8-10c-0.5,0.6-0.6,1.3-0.5,2.1
			c0.1,0.6,0.3,1.2,0.5,1.8c0.3,1.5,0.7,3.1,0.6,4.7c-0.5,5-1.7,9.8-4.4,14.3c-3.7,6.2-6.3,12.7-7.6,19.8
			c-1.4,8.1-3.1,16.2-4.2,24.4c-0.3,2.6-0.5,5.2-0.7,7.8c-0.5,5.2-1.1,10.4-1.6,15.6c-0.3,3.1-0.4,6.2-0.6,9.4
			c2.9,1.4,5.9,3.1,8.7,4.8c0-0.1-0.1-0.3-0.1-0.4c-0.1-0.6,0-1.2,0-1.9c-0.1-3.7,1-7,2.4-10.3c0.9-2.4,2-4.8,3-7.3
			c1.4-3.3,2.2-6.7,2.8-10.2c0.5-2.7,0.9-5.4,1.3-8.1c0.1-0.7,0.3-1.4,0.7-2.1c1.2-2.2,1.6-4.5,1.8-6.9c0.4-4.4,1.2-8.6,2.2-13
			c0.1-0.6,0.4-1.2,0.7-1.8c0.1-0.1,0.3-0.3,0.5-0.3c0.1,0,0.3,0.3,0.3,0.4c-0.8,3.4-0.5,6.9-0.3,10.3c0.3,3.8,0.2,7.7,2,11.3
			c0.2,0.4,0.4,0.8,0.3,1.2c-0.1,1.9,0.7,3.5,1.5,5c1.4,2.8,2.1,5.7,2.2,8.7c0.1,2,0.8,3.3,2.2,4.7c2.8,2.7,5.1,5.8,6.7,9.4
			c1.2,2.7,2,5.5,2.5,8.4c0.4,2,0.7,3.9,1.1,5.8c1.4,7.8,5.1,14.5,9.8,20.8c3.8,5,8.5,9.2,13.4,13.2c3.4,2.8,6.6,5.8,9,9.5
			c1.1,1.8,2.3,3.5,3.5,5.2s2.2,3.5,2.9,5.3h14.1c-1.2-1.6-2.2-3.4-2.8-5.4C401.6,682,400.4,679.3,398.8,676.8z"/>
	</g>
	<g>
		<path class="st3" d="M645.9,597.8c2.2-4.1,4.3-8.4,5.6-13c0.3-0.8,0.3-1.6,0.5-2.5c0.4-3.4,0.8-6.9,1.2-10.3
			c0.3-2.3,0.5-4.6,0.9-6.8c1.1-6.3,3.1-12.4,5.4-18.3c2.8-7,6.4-13.6,11.3-19.5c1.2-1.4,2.3-2.9,3.2-4.5c-0.4,0.2-0.8,0.4-1.2,0.6
			c-1.7,0.9-3.3,1.7-4.8,3c-4.3,3.7-8.3,7.7-11.1,12.7c-1.5,2.8-2.9,5.6-4.3,8.4c-1.6,3.1-3.2,6.1-5.3,8.9c-1.8,2.4-3.6,4.8-5.3,7.4
			c-4,5.9-9.2,10.6-15.3,14.2c-7.9,4.7-15.8,9.5-24.3,13.2c-0.3,0.1-0.5,0.3-0.9,0.4c-6.7,2.9-13.4,6-20.1,8.8c-2.5,1.1-5,2-7.5,3.1
			c-4.9,2.1-10.1,3.5-15.3,4.5c-1,0.2-1.4,0.7-1.9,1.4c-1.5,2.5-3,5-4.6,7.5c-6,9.2-14.8,14.6-25,17.9c-1.6,0.5-3.3,0.7-4.9,0.9
			c-5.4,0.7-10.9,0.7-16.3,0.1c-8.3-0.9-15.9-3.5-22.9-8.1c-4.2-2.8-8.2-5.9-11.8-9.4c-1.4-1.3-2.8-2.5-4.5-3.4
			c-2.6-1.5-4.7-3.5-6.6-5.7c-2.8-3.1-5-6.4-7.1-10c-1.8-3-3.9-5.7-7-7.5c-1-0.6-1.9-1.4-2.6-2.2c-1.8-2-3.7-3.7-5.7-5.4
			c-1-0.9-2-1.8-2.9-2.9c-1.2-1.7-2.9-2.7-4.8-3.5c-5-2.1-10-4.3-15-6.5c-8.8-3.9-17.1-8.4-24.6-14.5c-1.2-1-2.5-1.9-3.7-2.9
			c-2.8-2.1-5.3-4.4-7.7-6.9c-2.8-2.8-5.6-5.4-8.3-8.2c-1.2-1.2-2.4-1.5-4-0.9c-1,0.4-2,0.7-3,0.9c-4.6,0.9-8.1-1.2-9.5-5.7
			c-0.3-0.9-0.5-1.8-0.7-2.8c-0.3-1.3-0.5-2.7-0.7-4c-1.4-6.9-3.5-13.6-7.6-19.5c-0.4-0.6-0.8-1.2-1.2-1.9
			c-2.6-5.1-6.4-9.3-10.4-13.3c-0.4-0.4-0.8-1-1.5-0.9c-0.4,0.9-0.1,1.6,0.1,2.4c0.9,3.9,1.8,7.7,2.8,11.6c1,4.4,2.6,8.6,3.1,13.1
			c0.2,1.5,0.7,2.8,1.4,4.1c2,3.6,3.9,7.1,5.8,10.8c1.8,3.4,3.9,6.7,6.2,9.9c4.6,6.5,9.6,12.7,14.8,18.7c5.2,6,11.1,11.1,17.4,15.8
			c2.6,1.8,5.3,3.4,8.3,4.5c2,0.7,3.9,1.4,5.9,2.2c3.1,1.2,5.6,3.2,7.5,6c2.1,3.1,3.9,6.4,5.3,10c1.3,3.5,2.8,7,4.2,10.5
			c1,2.6,2.1,5.2,3.1,7.9c0.7,1.8,7.3,12.6,6.2,12.7c0,0.1,0.1,0.1,0.1,0.1c1.5,2.8,3,5.5,4.7,8.2c1.5,2.5,3,4.9,4.5,7.4
			c-0.2-1-0.3-2-0.5-3.1c-0.6-3.2-1.4-6.4-2.2-9.5c-0.3-1.2-0.6-2.4-0.5-3.7c0-1.2,0.3-2.4,1.6-2.9c1.2-0.5,2.3-0.1,3.1,0.8
			c0.7,0.7,1.4,1.6,2,2.4c3.7,4.9,6.6,10.2,8.6,16c1.2,3.5,2.4,7.1,3.6,10.7c0.1,0.2,0.1,0.4,0.2,0.6c0.2,0.7,0.5,1.4,0.8,2.2
			c0.4-0.1,0.7-0.1,0.9-0.1c0.1,0,0.2-0.1,0.3-0.1c3.4-1.3,6.4-0.3,9.2,1.6c1.5,1,2.7,2.3,3.8,3.7c1.5,1.9,2.8,3.9,3.9,6
			c2.4,4.3,4.5,8.8,6.5,13.2c0.8,1.7,1.6,3.4,2.6,5h20c-0.9-1.1-1.8-2.2-2.7-3.3c-1.7-2-3.5-3.9-5.6-5.4c-4.3-3.1-8.1-6.7-10.9-11.1
			c-1-1.6-1.7-3.3-2.1-5.2c-0.3-1.3-0.5-2.7-0.7-4c-0.4-2.4-1-4.7-2.8-6.5c-0.4-0.4-0.7-0.9-0.9-1.3c-3-5.4-7.6-9.5-12.1-13.5
			c-3.9-3.5-8.1-6.6-12.3-9.6c-4.8-3.5-9-7.7-12.8-12.4c-1.3-1.6-2.7-3.2-4-4.8c-1.8-2.4-3.1-5-3.9-7.8c-0.8-2.5-1.4-5-2.2-7.5
			c-0.8-2.6-6.4-8.6-6-11.7c0.1-0.7,0.6-1,1.2-1.2c1.2-0.1,2.3,0.3,3,1.2c0.9,1.2,2,1.8,3.1,2.5c2.1,1.2,3.7,3.1,5,5
			c1.5,2.2,3.1,4.5,4.3,6.9c1.7,3.2,4.1,5.7,7.1,7.9c4.5,3.3,9,6.8,13.4,10.4c2.8,2.3,5.2,4.8,7,8c0.9,1.6,2,2.8,3.6,3.9
			c3.5,2.3,6,5.4,8.4,8.8c2.8,4,5.7,8,9.3,11.4c1.9,1.8,3.9,3.5,6.1,4.9c3.9,2.4,7.9,4.9,12.2,6.2c5.5,1.6,11.1,2.9,16.9,2.8
			c3.7-0.1,6.9-1.2,9.6-3.9c2-2,3.9-4.1,6.2-5.7c3.1-2.2,6.3-4.1,10-4.9c3.7-0.9,6.9-2.9,10-5.1c2.9-2.1,5.5-4.5,8.2-6.8
			c2.3-2,4.5-4.1,6.9-6c1.4-1.1,2.7-2.3,3.5-4c0.5-1,1.2-1.7,2-2.4c1.4-1.2,2.9-1.4,4.7-0.8c1.8,0.7,2.6,2.1,2.8,3.9
			c0.1,1.4,0.1,2.7-0.5,4c-3,7.7-5.4,15.6-9,23.1c-3.1,6.5-5.9,13.2-8.3,20c-1.7,4.8-3.8,9.5-5.8,14.2H570c1-1.4,2.1-2.7,3.3-3.7
			c2.1-1.6,4.2-3.1,6.5-4.5c4.5-2.6,8.3-6.1,12.3-9.2c0.9-0.7,1.6-1.7,2.2-2.7c1.4-2.3,2.9-4.6,4.4-6.9c2.2-3.4,4.6-6.7,7.3-9.8
			c1.1-1.2,2-2.7,2.7-4.2c1.2-2.8,2.6-5.5,3.9-8.3c1.4-2.8,3.2-5.2,5.7-7c0.7-0.5,1-1,1.3-1.6c0.7-2.7,1.2-5.4,1.6-8.1
			c0-0.2,0.1-0.3,0.3-0.5c0.3-1.2,0.5-2.4,0.9-3.6c1.4-5.5,4.3-10.2,7.9-14.5c1.6-1.9,3.5-3.3,6-3.9c3.1-0.7,6-2,9-2.8
			C645.5,598.5,645.7,598.2,645.9,597.8z"/>
	</g>
	<g>
		<path class="st3" d="M579.9,294.3c0.1-1.5,0.9-2.8,1.2-4.6c-4.5,3.3-4.2,4.3-4.5,7.5c-0.1,0.7-0.1,1.4-0.1,2.2
			c-0.1,6.3,4.1,14.5,13,15.6c0.4,0.1,0.9,0.1,1.2,0.3c1.8,0.5,3.8,0.5,5.6,0.1c3.3-0.7,6.4-1.8,8.5-4.7c1.6-2.1,3-4.3,4.4-6.5
			c1.1-1.8,1.5-3.7,1.2-5.7c-0.3-2.9-0.7-5.8-1.1-8.7c-0.2-1.4-0.8-2.2-2.4-2.4c-2-0.2-2-0.4-3.2-0.1c0.5,0.7,0.9,1.4,1.3,2.1
			c1.2,1.9,1.8,4,2.2,6.2c0.9,5.2-2.2,12.7-9.4,14.3c-4.1,0.9-8.1,0.3-11.9-1.7c-4.3-2.4-6.6-6-6.4-11
			C579.8,296.2,579.9,295.3,579.9,294.3z"/>
	</g>
	<g>
		<path class="st3" d="M293.3,102.6c0.5,1.9,1,3.9,1,5.8c0.1,5.6,0.1,11.1,0.1,16.6c-0.1,3.2-0.5,6.5-0.4,9.7
			c0.1,5.6,0.2,11.3,1.2,16.9c0.3,1.8,0.7,3.7,1,5.6c1.6,8.6,4.2,16.8,7.6,24.9c0.7,1.6,1.4,3.3,1.7,5c0.5,2.8,1,5.6,1.3,8.4
			c0.3,3.1,0.9,6.3,1.7,9.4l4.6,7.2c0.2,0.2,0.4,0.5,0.6,0.7c0,0.1,0.1,0.1,0.1,0.1l0.1,0.1c0.1,0.1,0.1,0.1,0.1,0.1s0.1,0,0.1,0.1
			c0.1,0.1,0.1,0.1,0.2,0.1c0,0,0,0,0.1,0s0.1,0.1,0.2,0.1h0.1c0.1,0,0.1,0,0.3,0c1-0.2,2.1-0.2,3.1-0.4c2.2-0.4,4.3-0.8,6.5-1.2
			c0.9-0.2,1.4-0.9,1.4-1.8c0-1.4,0-2.9-0.1-4.4c-0.4-3.7,0.1-7.3,1.7-10.7c2.6-5.8,2.1-11.5-0.7-17c-2.4-4.7-5-9.2-8.8-12.9
			c-2.5-2.5-4.8-5.3-7.3-7.9c-2-2-1.5-4.7,0.6-6.2c0.3-0.3,0.7-0.5,1-0.7c1.8-0.8,2.7-2.3,3-4.1c0.4-2,0.9-4.1,1.2-6.2
			c0.7-4.6-0.1-9-1.5-13.3c-1-2.9-2.1-5.7-3.1-8.6c-0.5-1.3-1.2-2.4-2-3.5c-1-1.5-1.9-3-2.8-4.5c-2.3-3.7-3.8-7.7-4.6-11.9
			c-0.7-3.6-1.7-7.1-2.5-10.7c-0.3-1.5-0.5-3.1-0.8-4.5c0.6-0.7,1.1-0.1,1.6-0.3c1.7-0.9,3,0.1,4.3,1.1c1.2,1.1,2.2,2.6,3,4
			c0.9,1.8,1.8,3.6,2.2,5.5c2,7.7,6.9,13.4,13,17.9c5,3.8,10.1,7.5,15.7,10.5c1.2,0.7,2.4,1.3,3.6,1.9c2.6,1.3,4.8,2.9,6.5,5.3
			c1.1,1.6,2.6,3,3.9,4.6c0.7,0.8,1.5,1.5,1.4,2.7h0.1c0,0.1,0,0.2,0,0.3s0,0.1,0.1,0.2v0.1c0,0.1,0,0.1,0,0.2l0,0l0,0h-0.1
			c0.6,1.2,1.1,2.4,1.7,3.5c-0.9,0.3-1.1-0.3-1.5-0.6c-1.2-0.9-2.4-2-3.8-2.8c-3.8-2.4-5.1-2.4-8.3-1.9c-0.4,0.7,0,1.2,0.3,1.7
			c0.7,1.4,1.5,2.8,2.3,4.1c2,3.3,3.9,6.7,5.2,10.4c1.3,3.7,3.8,6.5,7.1,8.5c2.4,1.4,4.7,2.7,7.3,3.7c3.1,1.1,5.7,0.7,8.1-1.6
			c0.8-0.8,1.7-1.6,2.7-2.2c1.1-0.7,1.4-1.7,1.2-2.9c-0.1-0.7-0.1-1.4-0.2-2.2c-0.5-5,1-9.3,4.1-13.2c0.3-0.3,0.5-0.7,0.8-1
			c1.7-2,1.7-1.8,0.3-4.4c-0.5-0.9-1-1.6-1.6-2.4c-2.4-2.9-4.5-6-6.7-9.1c-1.6-2.4-3.7-4.5-5.8-6.6c-2.7-2.6-5.3-5.2-8-7.7
			c-0.3-0.3-0.7-0.7-1-1c-4.1-3.8-7.7-8.1-10.9-12.5c-1.9-2.5-3.5-5.2-5.2-7.9c-0.7-1-0.6-2.2-0.1-3.3l-0.1-0.1l0.1,0.1
			c0,0-2.7-3.1-3.5-3.9c-2.8-2.8-5.5-5.5-8.2-8.3c-2.4-2.5-4.8-5-7.3-7.4c-1.2-1.2-2.4-2.4-3.9-3.1c-3.8-2-7.7-3.6-11.8-5
			c-1.8-0.7-3.7-0.5-5.5,0.1c-5.4,2-9.3,5.5-11.4,10.9c-1.8,4.7-2.1,9.4-1.4,14.2C290.1,89.8,291.8,96.2,293.3,102.6z"/>
	</g>
	<g>
		<path class="st3" d="M354.3,136.4c0,0.1,0,0.2,0,0.3l0,0C354.3,136.6,354.3,136.6,354.3,136.4L354.3,136.4z"/>
	</g>
	<g>
		<path class="st3" d="M664.5,158.7c2.7-0.7,5.2-1.4,6.9-3.9c1.6-2.3,3.3-4.5,4.3-7.2c1.6-4.3,4.3-7.9,7.9-10.8
			c1.3-1,2.4-2.3,3.6-3.5c3.5-3.7,7.3-7.3,11.5-10.2c4.9-3.3,10.3-5,16.2-5c2.4,0,4.7-0.4,7.1-1.1c2-0.6,3.7-1.6,5.2-2.7
			c0.3-0.2,0.7-0.6,1.1-0.3c0.3,0.2,0.1,0.6,0,0.9c-0.1,0.4-0.2,0.9,0.1,1.2c1.6,1.6,1.1,3.5,0.6,5.3c-0.9,2.8-2.4,5.4-4.2,7.7
			c-1.3,1.6-2.7,3.2-4.1,4.7c-3.7,4.1-7.3,8.3-10.5,12.9c-1.3,1.9-2.5,3.9-3.6,5.9c-1.4,2.5-2.2,5.2-2.6,8c-0.3,2.3-0.4,4.6,0.3,6.9
			c0.3,0.8,0.4,1.6,0.7,2.4c1.2,4.5,1,8.9-1,13.2c-1,2.1-1.8,4.3-2.1,6.6c-0.2,1.4-0.3,2.6,0.3,4c0.8,1.7,0.7,3.5-0.1,5.2
			c-1.3,3.1-0.8,6.2-0.1,9.2c0.2,0.9,0.7,1,1.6,0.7c2.8-1.2,5.2-2.8,7.1-4.9l0.1-0.1c1-1.1,1.8-2.4,2.6-3.8c0.4-0.9,0.8-1.7,1.2-2.6
			c0.5-0.8,0.5-1.8,1.5-2.5c0,0-0.4-4.7-0.1-7.4c0-0.5,0.1-1,0.4-1.5c2.9-4.8,5-9.9,6.8-15.1c0.5-1.3,1-2.5,1.5-3.8
			c1.1-2.9,2.2-5.8,3.2-8.8c1.4-4.7,2.8-9.4,4.1-14.1c0.4-1.4,0.6-2.8,0.7-4.3c0.2-3.3,0.4-6.7,0.8-10c0.5-3.5,0.5-6.9,0.1-10.3
			c-0.3-2.7-0.4-5.4-0.4-8.1c0-4,0-7.9,0-11.9c0-4.3-0.1-8.6,0.5-12.8c0.3-2.4,0.8-4.7,1.8-6.9c0.6-1.4,1.2-2.9,1.8-4.3
			c0.9-2.2,1.6-4.3,2-6.6c0.5-2.5-0.2-4.7-2.3-6.1c-2.3-1.6-4.8-2.4-7.7-2c-2.6,0.4-5.1,1.2-7.5,2.2c-4.7,1.9-9,4.5-13.4,6.8
			c1.2-0.4,2.6-0.7,3.9-1c1.1-0.3,2.3-0.2,3.4,0.2c1.9,0.7,2.6,2.5,1.6,4.3c-0.5,0.9-1.1,1.8-2,2.4c-2.6,1.8-5,3.9-8,4.9
			c-2.4,0.8-4.1,2.4-5.8,4.1c-6,6.2-10.3,13.4-13.4,21.5c-2.6,6.8-6.2,13-10.8,18.7c-1,1.3-2.1,2.6-3.1,3.9
			c-5.1,6.4-8.5,13.6-10.6,21.6c-0.5,1.6-0.7,3.3-0.9,4.9c-0.1,1-0.1,2.1,0.3,3.1C663.5,158.5,663.9,158.8,664.5,158.7z"/>
	</g>
	<g>
		<path class="st3" d="M280.6,550.7c0.5,4.9,2.4,9.2,5.6,13c3.3,3.9,7.5,6.7,11.9,9c2.2,1.2,4.4,0.4,5.6-1.8c0.7-1.4,1-2.9,1-4.5
			c-0.1-0.9-0.1-1.6-0.1-2.5c0.1-3.5,0.3-7.1,0.5-10.7c0.1-1.6,0.3-3.1,0.7-4.7c1.7-5.5,2.9-11.1,3.3-16.9c0.6-6.7,0-13.2-3.5-19.1
			c-3.8-6.3-6.2-13.2-9.2-19.8c-0.9,0.1-1.1,0.9-1.2,1.6c-0.1,1-0.1,2.1,0.1,3.1c0.7,3.8,1.6,7.5,2.4,11.3c0.1,0.6,0.3,1.2,0.3,1.8
			c-0.4,3.8-1.2,7.4-3.8,10.4c-1.4,1.6-2.3,3.5-2.8,5.6c-1.4,5.8-2.6,11.6-2.6,17.6c0,0.9-0.1,1.9-0.3,2.8c-0.3,1.2-1,1.5-2.1,1.2
			c-0.7-0.3-1.3-0.6-2-0.9c-2.4-0.9-3.9,0.3-3.7,2.9C280.6,550.5,280.6,550.5,280.6,550.7z"/>
	</g>
	<g>
		<path class="st3" d="M684.5,288.7c0.9,0.5,1.9,0.7,3,0.8c3.3,0.1,6.4-0.7,9.4-1.9c3.3-1.4,6.7-2.4,10.3-2c2.3,0.2,3.7,1.2,4.8,2.9
			c0.5,0.7,0.7,1.5,1.1,2.2c0.8,1.7,1.9,3.3,3.1,4.7c1,1.1,2.2,2,3.7,2.2c1.7,0.3,2.8-0.7,2.9-2.4c0-1-0.3-1.8-0.7-2.8
			c-0.9-2.1-2.2-3.8-3.6-5.5c-1.1-1.3-2-2.7-2.6-4.3c-0.7-2-1.8-3.7-3.1-5.4c-1.7-2.4-4.3-4-6.3-6.1c-1.6-1.6-3.5-2.6-5.7-3.1
			c-0.9-0.2-1.8-0.5-2.7-0.8c-0.1-0.1-0.3-0.3-0.3-0.5s0.1-0.4,0.3-0.5c1.9-0.9,3.8-1.8,5.7-2.6c0.5-0.2,1.2-0.1,1.8-0.1
			c0.5,0,1,0.3,1.5-0.3c-0.6-1.2-1.8-1.9-2.7-2.9c-1-1-2.2-1.7-3.6-1.7c-0.9,0-1.6-0.3-2.3-0.9c-2-1.5-4.2-1.7-6.6-1.4
			c-3.4,0.4-6.5,1.6-9.4,3.1c-2,1-4,1.8-6.2,2.2c-1.2,0.3-2.5,0.5-3.7,0.9c-0.9,0.3-1.8,0.3-2.8,0.1c-1.6-0.3-2.6,0.7-2.7,2.2
			c-0.1,0.9,0.1,1.6,0.5,2.4c1.7,4.6,4.7,8.1,9.1,10.3c2.8,1.4,5.7,2.6,9,3.2c-0.7,0.5-1.4,0.8-2.1,1.3
			C681.8,284,682,287.2,684.5,288.7z"/>
	</g>
	<g>
		<path class="st3" d="M708.2,549c-1.4,2-3.4,3.3-5.3,4.8c-0.8,0.5-1.4,1.2-2.1,1.9c-4.8,4.5-8.6,9.7-12.2,15.1
			c-6.1,9-9.8,19.1-13.2,29.3c-0.9,2.8-1.5,5.6-1.4,8.6c0,0.9,0.1,1.6,0.5,2.4c1,2,3.3,2.6,5,1.2c0.9-0.7,1.6-1.6,2.3-2.6
			c2-2.7,4.3-5.2,6.9-7.2c2.2-1.7,4.5-3.5,6.6-5.2c4.2-3.4,6.8-7.9,8.4-13c1.2-3.9,1.8-7.9,2.4-12c0.5-3.2,0.7-6.4,1.6-9.6
			c1.4-4.8,3.6-9.3,4.7-14.2c-0.2-0.1-0.5-0.1-0.8-0.3C710.1,547.5,709,547.9,708.2,549z"/>
	</g>
	<g>
		<path class="st3" d="M321.1,287.2c-1.7,4.3-2.8,8.8-3.8,13.2c-0.4,1.6,0.2,3.1,0.5,4.7c0.2,1,1.4,1.5,2.2,1
			c1.3-0.9,2.8-1.4,3.8-2.7c2.2-2.6,4.9-4.8,7.6-7c3.3-2.8,7.1-4.8,10.8-6.9c2.4-1.3,4.7-2.8,6.9-4.4c3-2.2,3.4-5.4,3.1-8.7
			c-0.1-0.9-0.7-1.5-1.4-2c-0.7-0.4-1.3-0.5-2.1-0.6c-2.1-0.2-4.1-0.8-6-1.6c-2.6-1-5.3-2-8-2.7s-5-2.2-6.6-4.5
			c-0.5-0.8-0.9-1.7-2-2.2c-0.3,0.7-0.3,1.2-0.2,1.6c0.8,2.9,1.5,5.9,2.5,8.7c0.4,1.2,0.2,1.9-0.5,2.8
			C325.2,279.4,322.7,283,321.1,287.2z"/>
	</g>
	<g>
		<path class="st3" d="M827.7,669.1c-1.9-3.8-4.2-7.3-6.9-10.6s-5.7-6.3-9-8.9c-3.3-2.6-6.9-4.8-10.7-6.7l0,0l-5.6-2.5
			c-0.6-0.5-1.2-1-1.8-1.6c-1.4-1.2-2.9-2.3-4.5-3.2c-6.6-3.7-14-5.8-21.4-7c-3.7-0.6-7.5-1-11.3-1.2c-2.5-0.1-5,0-7.4-0.4
			c-2.7-0.4-5.2-1.6-7.9-1.8c-1-0.1-2.1,0-3.1,0.1c-8.6,0.9-17.2,2.2-25.5,4.7c-4.2,1.2-8.3,2.8-12.2,4.8c-3.7,1.9-7.1,4.6-11,6.2
			c-0.9,0.4-1.9,0.8-2.8,1.2c-19.9,8.6-37.7,25.4-44.7,46.2l0,0c1.8-0.4,3.9,0.3,5.4-0.9c0.6-0.5,0.9-1.2,1.2-1.8
			c3.2-6.9,6.4-14.1,11.8-19.5c6.7-6.6,17.2-9.2,25-3.1V663c0.1,0.1,0.1,0.1,0.1,0.1c0.5,0.4,0.9,0.7,1.3,1.2l0.1,0.1
			c0.1,0.1,0.3,0.3,0.5,0.4c0.5,0.5,1,1,1.4,1.6c0.1,0.1,0.1,0.2,0.3,0.3c-0.7,0-1.3,0-2,0.1c-1.4,0.1-2.8,0.5-4.2,1
			c-2.7,1-5.2,2.5-7.5,4.1c-0.6,0.4-1.2,0.9-1.8,1.2l-0.9,0.7L671,675l-0.9,0.7c0,0,0.9-0.2,0.9-0.3c4.1-1.1,8.3-1.1,12.2,0.7
			c0.3,0.1,0.7,0.3,0.9,0.5c0.3,0.2,0.6,0.3,0.9,0.5c0.6,0.4,1.1,0.9,1.7,1.2c1,0.9,2,2,2.8,3.1c0.9,1.2,1.7,2.6,2.4,4.1l0,0
			c-0.1,0.4-0.2,0.8-0.3,1.2c-0.1,0.3-0.1,0.5-0.2,0.7c0,0.1,0,0.1,0,0.1c-0.1,0.5-0.1,0.9-0.2,1.4c0,0.1,0,0.2,0,0.3
			s0.1,0.2,0.1,0.3c0.1,0.2,0.1,0.4,0.1,0.6c0-0.1,0-0.1,0-0.1c0,0.1,0,0.1,0,0.1v0.1v-0.1c0.1,0.8,0.3,1.5,0.5,2.3
			c0.2,0.9,0.4,1.8,0.6,2.7c1.1,1.8,2.3,3.7,2.9,5.8c0.1,0.2,0.1,0.4,0.2,0.6c0,0.1,0,0.1,0.1,0.1c0.1,0.2,0.1,0.4,0.1,0.6
			c0,0,0,0,0,0.1c0.1,0.2,0.1,0.4,0.1,0.6c0,0.1,0,0.1,0.1,0.2c0.1,0.2,0.1,0.3,0.1,0.5c0,0.1,0,0.1,0,0.1c0,0.2,0.1,0.4,0.1,0.6
			c0,0.1,0,0.1,0,0.2c0,0.1,0,0.3,0.1,0.5c0,0.1,0,0.2,0,0.3s0,0.3,0.1,0.5c0,0.1,0,0.2,0,0.3s0,0.2,0,0.3c0,0.2,0,0.4,0,0.7
			c0,0.1,0,0.1,0,0.1c0,0.1,0,0.3,0,0.5c0,0,0,0,0,0.1c0,0.3,0,0.6,0,0.9c0.1,0.1,0.3,0.3,0.3,0.5c0.6,0.7,1.2,1.4,1.8,2.2
			c0.3,0.3,0.6,0.7,0.9,0.9c2.6,2.2,5.2,4.3,8.6,5c5.2,1.2,10.7-0.5,16.1-0.1c1,0.1,2.2,0.3,3.1-0.1c1.9-0.8,3-3.7,4-5.4
			c1.5-2.6,2.7-5.2,3.7-7.9c2-5.2,3.1-10.7,3.5-16.2c0.7-8.8-0.9-17.6-4.4-25.7c-1.8-4-3.9-7.9-6.5-11.4s-5.5-6.8-8.8-9.8
			c-0.4-0.4-0.8-0.7-1.2-1.1l-2.1-1.8l-0.1-0.1c0,0-0.1,0,0,0h0.1l0.2,0.1l0.4,0.1l0.8,0.2l1.2,0.3l0.4,0.1l0.4,0.1l0.8,0.3
			c2.1,0.7,4.2,1.5,6.2,2.5c18.2,9.5,26.1,28.7,27.2,48.1c0,0.1,0,0.3,0,0.4c0,0.6,0.1,1.2,0,1.8c0,0.5,0,1.1-0.1,1.6
			s-0.1,1-0.1,1.5c0,0.1,0,0.1,0,0.2c-0.1,0.3-0.1,0.7-0.1,1c-0.1,0.3-0.1,0.7-0.2,1c-0.1,0.3-0.1,0.5-0.1,0.7
			c-0.5,3.2-1.6,6.4-2.6,9.5c-1.1,3.3-3,6.5-1.6,10c2.9,7.3,9.4,9.6,16.5,10.8c0.9,0.1,1.9,0.3,2.8,0.4c1.2,0.1,2.4,0.3,3.5,0.4
			c1.4,0.1,2.8,0.3,4.1,0.5c0.3,0,0.5,0.1,0.8,0.1s0.5,0.1,0.7,0.1c0.5,0,1,0,1.4,0c0-0.1,0-0.1,0-0.1c0.6-2.8,2.1-5.2,3.3-7.7
			c6-11.7,8.3-25.6,6.4-38.8c-1.8-12.3-8.7-23.8-17.3-32.5c-0.9-0.9-1.8-2-1.6-3.1c3,0.8,6.3,3.3,9,5c3.3,2,6.5,4.2,9.4,6.7
			c5.4,4.5,10.5,10.3,11.6,17.5c2.1,13.7,5.9,14.5,4.1,28.3c-0.5,3.7-2.7,7-3.5,10.7c-1,5.1-1.3,9.9-3.3,14.8
			c-0.1,0.3-0.3,0.6-0.4,0.9c-0.1,0.4-0.3,2.9-0.9,2.7c2.5,0.9,14.3,3.1,15-1.1l0.3-2.4l2.9-16.5c2.9-16.2,3.3-32.5-4.1-47.7
			c-1.6-3.3-4.3-9.4-6.4-11.3c0.3,0.3,0.5,0.5,0.7,0.7c4.1,3.8,7.8,7.5,10.8,12.2c3.5,5.6,6.6,11.8,8.8,17.9c0.2,0.5,0.3,1,0.5,1.5
			c0.7,2,1.2,4,1.6,6c0.9,4.1,1.2,8.2,1.3,12.2c-0.1,4.1-0.5,8.2-1.4,12.1c-0.3,1.2-0.6,2.4-1,3.6c0.4-0.1,0.7-0.2,1-0.3
			c1-0.4,1.9-1.1,2.6-2c0.7-0.8,1.3-1.7,1.8-2.7c0.5-0.9,0.9-2,1.2-2.9c0.2-0.5,0.3-1,0.5-1.5C835.4,697,834.1,681.9,827.7,669.1z
			 M694.4,638.3L694.4,638.3C694.5,638.2,694.5,638.2,694.4,638.3C694.5,638.2,694.5,638.2,694.4,638.3z"/>
	</g>
	<g>
		<path class="st3" d="M310.6,642.1c-0.9-0.4-1.8-0.8-2.8-1.2c-3.9-1.5-7.2-4.3-11-6.2c-3.9-2-8-3.5-12.2-4.8
			c-8.3-2.5-17-3.8-25.5-4.7c-1-0.1-2.1-0.2-3.1-0.1c-2.8,0.2-5.2,1.4-7.9,1.8c-2.5,0.4-5,0.3-7.4,0.4c-3.8,0.2-7.5,0.6-11.3,1.2
			c-7.4,1.2-14.8,3.3-21.4,7c-1.6,0.9-3.1,2-4.5,3.2c-0.6,0.5-1.2,1-1.8,1.6l-5.6,2.5l0,0c-3.8,1.8-7.3,4.1-10.7,6.7
			c-3.3,2.6-6.3,5.6-9,8.9c-2.7,3.3-5,6.9-6.9,10.6c-6.4,12.8-7.7,27.9-4,41.7c0.1,0.5,0.3,1,0.5,1.5c0.3,1,0.7,2,1.2,2.9
			s1.1,1.8,1.8,2.7c0.7,0.8,1.6,1.5,2.6,2c0.3,0.1,0.7,0.3,1,0.3c-0.4-1.2-0.7-2.4-1-3.6c-0.9-4-1.4-8.1-1.4-12.1
			c0.1-4.1,0.5-8.2,1.3-12.2c0.5-2,1-4.1,1.6-6c0.2-0.5,0.3-1,0.5-1.5c2.3-6.1,5.4-12.3,8.8-17.9c3-4.8,6.7-8.4,10.8-12.2
			c0.3-0.3,0.5-0.5,0.7-0.7c-2,1.9-4.8,8.1-6.4,11.3c-7.3,15.2-6.9,31.4-4.1,47.7l2.9,16.5l0.3,2.4c0.6,4.3,12.5,2,15,1.1
			c-0.7,0.2-0.9-2.4-0.9-2.7c-0.1-0.3-0.3-0.7-0.4-0.9c-1.9-4.9-2.2-9.7-3.3-14.8c-0.7-3.7-2.9-7-3.5-10.7
			c-1.8-13.8,2-14.6,4.1-28.3c1.1-7.2,6.2-13,11.6-17.5c2.9-2.5,6.2-4.7,9.4-6.7c2.7-1.6,6-4.2,9-5c0.2,1.2-0.8,2.3-1.6,3.1
			c-8.6,8.8-15.6,20.2-17.3,32.5c-1.9,13.3,0.5,27.2,6.4,38.8c1.2,2.5,2.8,4.9,3.3,7.7c0,0.1,0,0.1,0,0.1c0.5,0,1,0,1.4,0
			c0.3,0,0.5-0.1,0.7-0.1c0.3,0,0.5-0.1,0.8-0.1c1.4-0.1,2.8-0.3,4.1-0.5c1.2-0.1,2.4-0.3,3.5-0.4c0.9-0.1,1.9-0.3,2.8-0.4
			c7.1-1.1,13.6-3.5,16.5-10.8c1.4-3.5-0.5-6.7-1.6-10c-1-3.1-2.2-6.3-2.6-9.5c-0.1-0.3-0.1-0.5-0.1-0.7c-0.1-0.3-0.1-0.7-0.2-1
			c-0.1-0.3-0.1-0.7-0.1-1c0-0.1,0-0.1,0-0.2c-0.1-0.5-0.1-1-0.1-1.5c-0.1-0.5-0.1-1.1-0.1-1.6c0-0.6,0-1.2,0-1.8c0-0.1,0-0.3,0-0.4
			c1.2-19.5,9-38.6,27.2-48.1c2-1,4.1-1.8,6.2-2.5l0.8-0.3l0.4-0.1l0.4-0.1l1.2-0.3l0.8-0.2l0.4-0.1l0.2-0.1h0.1l0,0l-0.1,0.1
			l-2.1,1.8c-0.4,0.4-0.9,0.7-1.2,1.1c-3.2,2.9-6.2,6.2-8.8,9.8c-2.6,3.5-4.7,7.4-6.5,11.4c-3.5,8.1-5.1,16.9-4.4,25.7
			c0.4,5.6,1.6,11,3.5,16.2c1,2.8,2.3,5.4,3.7,7.9c1,1.6,2.1,4.6,4,5.4c1,0.4,2,0.3,3.1,0.1c5.4-0.5,10.9,1.2,16.1,0.1
			c3.3-0.8,6-2.8,8.6-5c0.3-0.3,0.6-0.7,0.9-0.9c0.6-0.7,1.2-1.4,1.8-2.2c0.1-0.1,0.3-0.3,0.3-0.5c0-0.3,0-0.7,0-0.9c0,0,0,0,0-0.1
			s0-0.3,0-0.5c0-0.1,0-0.1,0-0.1c0-0.2,0-0.4,0-0.7c0-0.1,0-0.2,0-0.3s0-0.2,0-0.3s0-0.3,0.1-0.5c0-0.1,0-0.2,0-0.3s0-0.3,0.1-0.5
			c0-0.1,0-0.1,0-0.2c0-0.2,0.1-0.4,0.1-0.6c0-0.1,0-0.1,0-0.1c0-0.2,0.1-0.3,0.1-0.5c0-0.1,0-0.1,0.1-0.2c0.1-0.2,0.1-0.4,0.1-0.6
			c0,0,0,0,0-0.1c0.1-0.2,0.1-0.4,0.1-0.6c0-0.1,0-0.1,0.1-0.1c0.1-0.2,0.1-0.4,0.2-0.6c0.7-2.1,1.9-3.9,2.9-5.8
			c0.2-0.9,0.4-1.8,0.6-2.7c0.1-0.8,0.3-1.5,0.5-2.3v0.1v-0.1c0-0.1,0-0.1,0-0.1c0,0.1,0,0.1,0,0.1c0.1-0.2,0.1-0.4,0.1-0.6
			c0-0.1,0.1-0.2,0.1-0.3s0-0.2,0-0.3c-0.1-0.5-0.1-0.9-0.2-1.4c0-0.1,0-0.1,0-0.1c-0.1-0.3-0.1-0.5-0.2-0.7
			c-0.1-0.4-0.2-0.8-0.3-1.2l0,0c0.7-1.4,1.4-2.8,2.4-4.1c0.9-1.1,1.8-2.2,2.8-3.1c0.5-0.5,1.1-0.9,1.7-1.2c0.3-0.2,0.6-0.4,0.9-0.5
			c0.3-0.2,0.6-0.3,0.9-0.5c3.9-1.8,8.1-1.8,12.2-0.7c0.1,0,0.9,0.3,0.9,0.3l-0.9-0.7l-1.6-1.2l-0.9-0.7c-0.6-0.4-1.2-0.9-1.8-1.2
			c-2.4-1.6-4.8-3.1-7.5-4.1c-1.4-0.5-2.8-0.9-4.2-1c-0.7-0.1-1.3-0.1-2-0.1c0.1-0.1,0.1-0.2,0.3-0.3c0.4-0.5,0.9-1,1.4-1.6
			c0.1-0.1,0.3-0.3,0.5-0.4l0.1-0.1c0.4-0.4,0.9-0.8,1.3-1.2c0.1-0.1,0.1-0.1,0.1-0.1v0.1c7.9-6.1,18.3-3.4,25,3.1
			c5.4,5.4,8.5,12.6,11.8,19.5c0.3,0.7,0.7,1.4,1.2,1.8c1.4,1.2,3.6,0.5,5.4,0.9l0,0C348.4,667.4,330.5,650.6,310.6,642.1z
			 M302.6,638.1c0.1,0,0.1,0.1,0.1,0.1l0,0C302.7,638.2,302.6,638.2,302.6,638.1z"/>
	</g>
	<g>
		<path class="st3" d="M380.7,192c-0.1,1.9,0.3,3.9-0.3,5.7c-0.7,2.3-2.7,3.9-4.8,5c-2.1,1.1-4.5,1.8-6.6,2.9
			c-3.1,1.8-5.6,4.5-7.9,7.2c-3.1,3.5-6.2,7.1-9.4,10.7c-3.2,3.7-6.6,7.7-7.1,12.5c7.3-0.3,14.7-0.5,21.7-2.2
			c7.1-1.7,14-4.9,18.9-10.3c1.9-2.1,3.5-4.5,6.1-5.8c1.8-0.9,3.9-1,5.6-2.1c3.4-2.1,4-6.8,6.3-10.2c3.8-5.5,11.6-6.6,16.4-11.1
			c1.2-1.1,2.2-2.6,2.6-4.2c0.3-1.6-0.2-3.5-1.6-4.4c-0.9-0.6-1.8-0.7-2.8-0.9c-9.8-1.6-19.6-3.2-29.3-4.8c0,0-4.2,0.7-5.2,2.2
			s-1,3.6,0.1,5C381.6,188,380.7,190.1,380.7,192z"/>
	</g>
	<g>
		<path class="st3" d="M428.8,153.4c3.1,4.3,6.2,8.5,9.3,12.8c1.2,1.6,2.4,3.3,4.3,3.9c3.7,1.3,7.3-2.1,10.6-4.2
			c5.2-3.2,11.5-3.6,17.6-3.9c2.9-0.1,6-0.3,8.6,0.8c2.8,1,5,3.7,4.8,6.6c6.4-6.1,9.4-16,6.4-24.3S477.9,131,469.3,133
			c-1.1,0.3-2.2,0.7-3.3,1c-0.5,0.2-1,0.3-1.4,0.5c-6.9,2.5-13.9,5-20.4,8.4c-3.3,1.7-6.5,3.7-10.2,4.3s-7.9-0.7-9.6-4
			C423.6,147.2,425.5,151.4,428.8,153.4z"/>
	</g>
	<g>
		<path class="st3" d="M543.1,158c4.3,2.2,10,1.6,13.2,5.2c2.2,2.4,2.9,6.4,6,7.2c2.6,0.7,5-1.5,6.9-3.5
			c8.8-9.6,17.6-19.1,26.3-28.7c0.8-0.9,1.7-1.9,1.8-3.1c0.1-1.6-1.3-2.9-2.9-3.4c-1.6-0.5-3.2-0.1-4.8,0.1
			c-7.3,1.4-14.9,2.8-22.1,1.1c-3.1-0.7-6.1-2-8.7-3.8c-1.7-1.2-3.3-2.5-5-3.8c-1-0.9-2.3-1.7-3.7-1.6c-0.9,0.1-1.6,0.8-1.8,1.6
			c-4.5,4.3-8.8,9-10.8,14.8C535.4,146.6,537.1,154.9,543.1,158z"/>
	</g>
	<g>
		<path class="st3" d="M613.4,216c1.6,0.7,3.4-0.2,5.1-0.6c3.6-0.8,7.3,0.3,10.8,1.3c2.4,0.7,4.9,1.7,5.8,3.9c0.7,1.6,0.2,3.4,0.8,5
			c1,2.9,4.8,3.9,7.9,3.7c9.6-0.6,18.3-8.5,19.9-18c-1.2,0.6-2.4,1.2-3.7,1.4c-1.3,0.1-2.8-0.3-3.5-1.5c-1.2-2.1,0.7-4.7,0.3-7.1
			c-0.5-3.1-4.1-4.3-6.8-6.1c-2.4-1.6-4.2-3.9-6-6.1c-1.8-2.2-3.9-4.4-6.6-5.4c-2-0.7-4.3-0.6-6.1,0.5c-10,3-18,11.8-20.1,22
			C610.6,211.7,610.9,215,613.4,216z"/>
	</g>
</g>
<g>
	<g>
		<path class="st4" d="M436,663.3c-0.9-5.4-1.7-10.7-2.6-16.1c-1.4-2.5-2.9-4.9-4.5-7.4c-1.6-2.7-3.1-5.4-4.7-8.2
			c0-0.1-0.1-0.1-0.1-0.1l0,0c-0.8,0-6.2-5.7-6.5-6.2c-2.5-4.5-5.1-9.2-8.4-13.2c-2-2.5-4.3-4.5-7.1-6c-1.2-0.7-2.4-1.3-3.5-2.1
			c-3.7-2.6-8.1-3.9-12.2-5.8c-0.1-0.1-0.5-0.1-0.5,0.1c-0.1,0.1-0.2,0.4-0.1,0.5c0.3,0.6,0.5,1.1,0.9,1.7c1.6,3.1,2.3,6.5,1.7,10
			c-0.3,1.8-0.5,3.5-1,5.2c-0.7,2.6-1.6,5.2-2.6,7.7s-1.8,5.1-2.3,7.8c-0.9,4.2-0.5,8.4,0.5,12.4c1.2,5.4,2,10.9,4.9,15.8
			c0.1,0.1,0,0.5-0.1,0.5c-0.1,0.1-0.3,0.2-0.4,0.2c0.9,1.2,1.8,2.4,2.7,3.6c2.9,4.3,5.8,8.6,8.7,13c1.6,2.5,2.8,5.1,3.9,7.9
			c0.7,2,1.6,3.7,2.8,5.4h41.3c-3.1-3.2-5.4-7.1-7.1-11.6C437.8,673.6,436.9,668.4,436,663.3z"/>
	</g>
	<g>
		<g>
			<path class="st4" d="M741.5,535.1c-2.9-1.3-5.6-2.9-8.1-4.8c-4.7-3.6-8.5-8.1-11.3-13.4c-0.5-1-0.9-2.1-2-2.9
				c-1.4,2.2-2.7,4.2-3.7,6.4c-2.5,5.2-5.6,10-9.2,14.6c-6.5,8.3-13.1,16.4-20.2,24c-2.6,2.9-5,5.9-7.1,9.2
				c-1.4,2.1-2.6,4.3-4.1,6.4c-3.7,5.4-6.4,11.3-8.6,17.4c-1.1,3.1-2.2,6.4-3.2,9.5c-0.1,0.5-0.3,1-1,1.7c-0.1-2.8,0.4-5.1,0.9-7.4
				c1.9-9.3,4.1-18.6,6.1-27.9c1.6-7.3,4.1-14.3,8.5-20.5c0.9-1.2,1.6-2.5,2.3-3.8c3.5-6.8,8.1-13,11.7-19.7
				c4.3-5.5,7.6-11.5,10.9-17.6c0.3-0.5,0.7-1,1-1.6c0.4-0.7,0.8-1.5,1-2.3c1.3-4.7,2.6-9.5,2.9-14.5c0.1-1,0.3-2.1-0.1-3.1
				c-1.4-0.1-2.1,1.2-3,2c-0.5,0.5-0.9,1.2-1.1,1.8c-1.5,3.1-3.6,5.9-6.4,8.1c-1.2,0.9-1.8,2-2,3.4c-0.7,4.3-2.7,7.9-5.4,11.2
				c-2.1,2.6-4.6,4.8-7.4,6.7s-5.7,3.5-8.6,5c-1,1.6-2,3.1-3.2,4.5c-5,5.8-8.5,12.4-11.3,19.5c-2.4,6-4.4,12-5.4,18.3
				c-0.4,2.3-0.7,4.6-0.9,6.8c-0.4,3.4-0.8,6.9-1.2,10.3c-0.1,0.9-0.3,1.6-0.5,2.5c-1.3,4.5-3.3,8.8-5.6,13
				c-0.2,0.4-0.5,0.7-0.7,1.1c0.3-0.1,0.6-0.1,0.9-0.2c1.2-0.3,2.4-1.3,3.8-0.5c-0.3,1.4-1.6,1.8-2.5,2.7c-0.9,0.8-1.8,1.5-2.6,2.3
				c-1.6,1.4-2.9,3-3.6,5c-0.2,0.6-0.4,1.2-0.8,1.7c-1.8,2.5-2,5.4-2,8.3c0.1,3.3,0.3,6.5,0.9,9.7c0.3,1.8,0.7,3.5,0.9,5.2
				c0.6,3.5,1.6,6.9,3.2,10.2c0.9,1.9,1.8,3.7,2.7,5.7c0.5,1,0.8,2.2,1.2,3.3c0.4,1.2,0.4,2.5-0.6,3.5c-0.4,0.4-0.6,0.8-0.3,1.4
				c0.2,0.5-0.2,0.8-0.7,0.7c-0.7-0.1-1.4-0.1-2.2-0.3c-1-0.1-2.1-0.2-3.1,0.1c-4,1-7.5,0-10.5-2.5c-0.4-0.3-0.9-0.7-1.2-0.9
				s-0.9,0.1-0.9,0.5c0,0.3,0,0.7-0.1,0.9c0,0.7-0.1,1.4-0.1,2.2c0.1,8.2-3.6,14.7-9.3,20.2c-1.4,1.4-2.7,2.8-3.7,4.6
				c-1.7,2.9-4,5.3-6.6,7.3h16.4c0.2-0.1,0.4-0.3,0.7-0.4c1-0.7,2-1.4,2.9-2.2c0.5-0.5,1-1,1.6-1.4l0.1-0.1c0.2-0.3,0.5-0.6,0.7-0.9
				c2-2.6,3.8-5.3,5.6-8c0.5-0.8,1-1.5,1.6-2.3c0.2-0.3,0.3-0.6,0.5-0.9c0.5-0.9,1.1-1.6,1.7-2.4c0.1-0.1,0.1-0.1,0.1-0.2
				c2.4-3.5,4.9-6.9,7.5-10.2c1-1.3,2.1-2.6,3.1-3.9l1.6-1.9l0.8-0.9c0.3-0.3,0.5-0.6,0.9-0.9l1.6-1.8c0.6-0.6,1.2-1.2,1.7-1.8
				c1.1-1.2,2.4-2.4,3.5-3.5l0.5-0.5l0.5-0.4l0.9-0.9c0.6-0.5,1.2-1.1,1.8-1.6l1.9-1.6l1-0.8c0.3-0.3,0.7-0.5,1-0.8l2-1.5l0.5-0.4
				l0.5-0.4l1-0.7l2-1.4l2.1-1.4c5.6-3.6,11.5-6.7,17.8-9.2c0.4-0.1,0.8-0.3,1.2-0.5l1.2-0.5l2.4-0.9c0.1-0.1,0.3-0.1,0.4-0.1
				c1-1.9,2.1-3.7,3.3-5.5c1.4-2.2,2.8-4.5,3.9-6.8c2.4-5.1,4.7-10.3,6.3-15.7c0.6-1.9,1.2-3.8,1.9-5.6c1.7-4.8,3.9-9.5,7.1-13.6
				c1.8-2.4,3.7-4.8,5.8-7.1c2.1-2.2,4-4.5,5.8-6.9c0.5-0.7,1.2-1.2,1.8-1.8c0.5-0.5,0.9-0.9,1.4-1.3c0.5-0.5,0.7-1,0.5-1.7
				c-0.2-0.5-0.4-1-0.5-1.4c-1.5-4-1-7.8,1-11.5c1-2,2.5-3.6,3.9-5.3c0.7-0.8,1.6-1.4,2-2.4C742.9,535.5,742.1,535.4,741.5,535.1z
				 M707.5,562.8c-0.9,3.1-1.1,6.4-1.6,9.6c-0.6,4.1-1.2,8.1-2.4,12c-1.6,5.1-4.3,9.6-8.4,13c-2.2,1.8-4.4,3.5-6.6,5.2
				c-2.7,2-4.9,4.5-6.9,7.2c-0.7,0.9-1.4,1.8-2.3,2.6c-1.7,1.4-4,0.9-5-1.2c-0.4-0.8-0.4-1.6-0.5-2.4c-0.1-2.9,0.5-5.9,1.4-8.6
				c3.4-10.2,7.2-20.3,13.2-29.3c3.6-5.4,7.4-10.6,12.2-15.1c0.7-0.7,1.3-1.4,2.1-1.9c2-1.4,3.9-2.8,5.3-4.8c0.9-1.1,2-1.5,3.3-0.7
				c0.3,0.1,0.6,0.2,0.8,0.3C711.1,553.5,708.8,558,707.5,562.8z"/>
		</g>
	</g>
	<g>
		<g>
			<path class="st4" d="M721.7,227.7c1.7-3.7,3.5-7.4,4.8-11.3c3.3-10,6.9-20,9.2-30.3c2-8.8,4.6-17.4,6.7-26.1
				c4.1-16.3,7.1-32.8,8.3-49.5c0.4-5.2,0.7-10.5,0.3-15.7c-1-12.5-2.2-25-4.7-37.4c-0.8-4-1.4-8.1-2.2-12.1
				c-0.3-1.6-0.9-3.2-1.7-4.7c-2.2-3.9-3.1-4.3-7.3-2.8c-3.3,1.2-6.4,2.8-9.3,4.5c-3.7,2.2-7.3,4.5-10.9,6.8
				c-4.4,2.7-8.6,5.7-12.6,8.8c-10.2,8.1-20.1,16.4-29.8,25.2s-19.7,17.3-29,26.5c-1,1-2,1.8-3.1,2.7c-2.3,2-4.8,3.7-7.5,5.2
				c-2.2,1.2-4.5,2.4-6.9,2.8c-0.7,0.1-1.4,0.5-2,0.9c-2,1.4-4.1,1.3-6.3,0.7c-1.9-0.5-3.7-1.3-5.5-2.3c-1.5-0.8-3.1-1.3-4.8-1.4
				c-1.9-0.1-3.8,0.1-5.1,1.8c-0.3,0.4-0.8,0.7-1.2,1c-2.8,2.9-6.3,3.7-10.1,2.8c-4-0.9-7.9-2-11.5-4.2c-4.3-2.6-8.9-4.2-13.7-5.4
				c-2.2-0.5-4.3-0.9-6.5-1.3c-7.5-1.4-15.1-2.4-22.8-2.2c-10.3,0.3-20.8,0.6-31,1.9c-5.3,0.7-10.6,1.1-15.9,2
				c-6.2,1-12.4,2.1-18.2,4.6c-6.6,2.8-13.3,4.4-20.4,4.6c-0.9,0-1.9,0.1-2.8,0.3c-2.9,0.9-5.7,0.4-8.3-0.5c-3.3-1-6.7-1.5-10.1-2.2
				c-3.5-0.7-6.6-2-8.8-5c-0.3-0.3-0.5-0.7-0.9-0.9c-0.3-0.3-0.8-0.4-1.2-0.1c-0.5,0.3-0.9,0.6-1.2,0.9c-3.3,2.4-6.9,2.7-10.7,1.1
				c-0.9-0.4-1.7-0.9-2.5-1.3c-4.5-2.5-8.8-5.4-12.9-8.4c-4.7-3.5-9.6-6.8-14.3-10.2c-4.1-2.9-8.2-5.8-12.2-8.8
				c-2-1.5-4-3.1-5.8-4.8c-4.5-4.5-9.2-8.5-14.2-12.4c-2.4-1.8-4.8-3.8-7.1-5.8c-8.8-7.5-18.2-14.5-27.7-21.2
				c-4.7-3.3-10-5.7-15.5-7.5c-4.1-1.4-10.5,1.4-12.2,5.5c-1.4,3.6-2.9,7.2-3.5,11.1c-0.9,5.5-1.5,11-1.7,16.6
				c-0.1,3.5-0.3,7.1-0.5,10.7c-0.4,9.8-0.7,19.5,0.3,29.2c0.5,4.3,1,8.5,1.4,12.8c0.9,8.8,1.8,17.5,3.8,26.1
				c1.6,7.3,3.5,14.5,6.2,21.4c1,2.8,2.3,5.4,4.2,7.7c2.4,2.8,3.3,6,3,9.6c-0.1,1-0.1,2.1,0.1,3.1c0.8,3.1,1,6.4,1,9.7
				c0.1,2.6,0.3,5.2,0.4,7.9c0.1,2.8,0.7,5.4,1.6,8c1.3,3.5,2.6,7.1,3.9,10.6c0.4,1.1,0.9,2.2,1.6,3.1c2.2,2.8,4.2,5.8,7.6,7.4
				c0.2,0.1,0.3,0.3,0.5,0.3c3.9,2.8,3.7,7.7,0.1,10c-1.2,0.8-2.1,2-3,3.1c-3.3,4.4-5.2,9.6-8.1,14.2c-0.3,0.4-0.2,0.9,0.1,1.1
				c0.6,0.6,1.2,1.2,1.8,1.7c1.7,1.4,3.1,3.1,4.3,5c1.2,2,2.2,4.1,2.4,6.4c0.1,2.5,0.6,5-1,7.3c-0.3,0.4-0.3,1-0.5,1.5
				c-1.5,4.1-3.2,8.2-5.7,11.9c-1.4,2-2.4,4.2-3.1,6.5c-3.3,9.8-6,19.8-7.9,30.1c-1.8,9.6-3.2,19.3-3.3,29c-0.1,2.2-0.5,4.3-1.1,6.5
				c-1.8,5.6-3.8,11.1-6,16.6c-2,5-3.1,10.2-4.5,15.4c-0.9,3.2,0.2,6,2.5,8.3c1.3,1.4,2.9,2.4,4.7,3.1c1,0.5,2.2,0.8,3.2,1.3
				s2.1,1,3.1,1.6c1.2,0.8,1.9,1.8,2,3.3c0.1,1.4,0.4,2.9,0.7,4.3c0.7,4.6,1.8,9,3.7,13.3c0.7,1.6,1.6,3.1,3,4.3
				c1.7,1.4,3,3.2,4.1,5.1c1,1.8,2.2,3.5,3.2,5.4c2,4.1,4.8,7.5,7.9,10.9c2.6,2.9,5.6,5.3,9.1,7.1c3.7,1.8,7.3,3.7,10.9,5.5
				c2.1,1,4,2.2,5.6,3.9c1.6,1.6,3.4,3.1,5.4,4.4c3.3,2.1,5.8,4.8,7.8,8.1c1.6,2.6,3.1,5.2,4.7,7.9c3.9,6.7,6.2,14,7.3,21.6
				c0.1,0.5,0.1,0.9,0.2,1.3c0,0.1,0,0.1,0.1,0.2c0.1,0.6,0.5,0.9,1.1,0.9l0,0c0.9,0,1.6-0.1,2.5-0.1c2.6,0,5,0.7,7.1,2.3
				c1,0.7,2,1.5,2.9,2.4c3.1,2.7,6.1,5.4,8.9,8.4c1.2,1.2,2.4,2.4,3.7,3.4c3.9,3,7.9,5.9,12.1,8.5c1.6,1,3.3,1.8,4.9,2.8
				c0.3,0.1,0.6,0.3,0.9,0.3c0.3,0.1,0.7-0.2,0.6-0.5c-0.1-1.1-0.4-2.3-0.5-3.4c-0.7-4.5-0.1-8.8,1.5-13c0.2-0.5,0.3-0.9,0.4-1.4
				c-2.6-3.7-5.1-7.5-7.8-11.1c-2-2.7-3.3-5.8-4.1-9.1c-1.5-5.6-2.4-11.3-3.1-17c-0.1-0.4-0.1-0.9-0.2-1.2c-0.6-1.6-2.3-2-3.5-0.9
				c-0.7,0.7-1.1,1.5-1.4,2.4c-1.9,4.7-2.8,9.6-3,14.7c-0.1,1-0.1,2-0.1,3c-0.9,0.3-1.4-0.1-1.8-0.5c-2.9-2.6-5.9-5-8.6-7.8
				c-2.6-2.6-4.5-5.8-6.2-9c-1.2-2.2-2.3-4.5-3.3-6.7c-2.6-5.6-3.1-11.5-2.2-17.5c0.2-1.6,0.6-3.3,0.9-5c0.1-1,0.3-2.1,0.1-3.1
				c-0.3-2.6-2.8-4-5.1-2.9c-0.7,0.3-1.4,0.9-2.1,1.4c-3.3,2.4-6.2,4.9-8.1,8.6c-0.1,0.3-0.3,0.5-0.4,0.7c-0.9-0.1-0.7-0.7-0.7-1
				c0.1-3.3,0.9-6.5,2.1-9.4c1-2.4,1.2-4.6,0.5-7c-0.3-0.8-0.3-1.6-0.5-2.5c-0.1-0.7-0.2-1.4-0.3-2.3c-3.2,0.7-6,2.1-8.3,4.3
				c-0.6,0.5-1.1,1-1.8,1.5c0.1,0.1,0.1,0.3,0.1,0.3c0.5,1.6,0.7,3.4-0.3,4.9c-1.4,2.4-3.1,4.7-5.2,6.6c-0.2,0.2-0.6,0.3-0.9,0.2
				c-0.3-0.1-0.5-0.3-0.5-0.7c-0.1-0.4-0.1-0.9-0.1-1.2c0-2.6-0.8-4.6-2.8-6.3c-2.2-1.9-3.9-4.3-5.4-6.9c-0.7-1.1-1.2-2.2-2.1-3.1
				c-2-2.1-3.3-4.6-4.1-7.3c-0.6-2.3-1.7-4.3-3.2-6c-0.4-0.5-0.8-1-1.2-1.4c-3.5-4.1-4.6-8.9-3.3-14.1c0.7-2.8,0.2-5.4,0.5-8.1
				c0.1-1-0.5-1.8-1-2.6c-1.3-2.6-2.2-5.2-2.8-8c-0.1-0.4-0.2-0.9-0.2-1.2c0.1-2.9-0.7-5.6-1.3-8.3c-1.4-5.6-1.4-11.3,0.1-17
				c0.1-0.1,0.1-0.3,0.1-0.4c0.1-0.5,0.3-1,0.4-1.5c0.3-1.2,0-1.8-0.9-2.4c-0.1-0.1-0.1-0.1-0.3-0.2c-0.9-0.6-1.7-0.5-2.6,0
				s-1.6,1.4-2.8,1.6c-0.2-0.7,0-1.1,0.2-1.4c1.4-2.4,3-4.5,4.8-6.6c0.5-0.6,1-1.1,1.6-1.4c1.4-0.9,2.9-1.5,4.5-2
				c0.1-0.1,0.1-0.1,0.1-0.2c3.4-3.7,7.2-7,11.5-9.7c4.2-2.6,8.8-4.3,13.8-4.7c0.2,0,0.4,0,0.7-0.1c0.6-0.1,0.9-0.7,0.5-1.1
				c-3-2.9-6.2-5.6-10.9-5.2c-1.9,0.2-3.7,0.3-5.6,0.7c-1.5,0.4-3,0.7-4.7,0.9c-1.6,0.1-3,0.7-4.5,1.3c-0.7,0.3-1.2,0.5-1.9,0.7
				c-1,1.3-2,2.8-2.8,4.2c-1.5,2.7-2.7,5.4-3.8,8.3c-0.3,0.7-0.5,1.4-1,1.8c-0.1,0.1-0.5,0-0.5-0.1c-0.1-0.4-0.3-0.8-0.3-1.2
				c-0.2-2.6,0.3-5,0.8-7.5c1-4.8,2.2-9.6,3.4-14.3c0.9-3.7,3.1-6.6,6.2-8.8c3.5-2.6,7.3-4.5,11.5-5.6c0.3-0.1,0.5-0.1,0.7-0.2
				c0.9-0.3,1.6-0.7,2.2-1.2s0.7-1.4,0.7-2.7c-0.1-0.8,0.2-1.6,0.4-2.5c0.9-5,0.4-3.9,4-7c2-1.7,4.4-2.9,6.9-3.6
				c3.4-1,6.8-2.1,10.2-3.1c4.5-1.2,8.5-3.4,12.4-5.8c2.3-1.4,4-3.3,5.4-5.6c0.5-0.8,0.7-1.5,0.5-2.4c-0.3-1.4-0.7-2.9-1-4.3
				c-0.9-3.3-0.7-6.6,0.2-10c0.2-0.6,0.3-1.2,0.5-1.8s-0.1-1-0.7-1.2c-0.9-0.4-1.7-0.8-2.6-1.2c-1.7-0.9-3.2-2-4.5-3.4
				c-1-1.2-1.5-2.8-1.2-4.4c0.3-2.1,2-3.9,4.3-3.9c4.8-0.1,9.5-1.5,14.2-2.4c1.6-0.3,3-0.8,4.5-1.4c2.9-1.2,5.8-2.4,8.7-3.5
				c0.3-0.1,0.7-0.1,0.7-0.5c0-0.1-0.1-0.2-0.1-0.2c-4.9-0.3-9.8-1-14.7,0.3c-1,0.3-2.2,0.3-3.3,0.2c0,0-0.1,0-0.1,0.1
				c0.1,0,0.1,0,0,0.1v-0.1c0,0-0.1,0-0.1,0.1l0.1-0.1c0.1,0,0.1,0,0.2,0c3.6-1.9,7.4-3.3,11.2-4.7c-0.2-0.7-0.1-1.4,0.5-2
				c0.5-0.7,1.1-1.2,1.7-1.8c3.7-3.1,7.9-5.4,12.3-7.5c2.5-1.1,5.1-1.6,7.8-1.9c-2.6-1.4-5.4-2-8.5-2.1c-1.3-0.1-2.9,0.8-4-0.6
				c1-1.2,2.6-1.3,4-1.6c2.8-0.8,5.7-1.4,8.6-2c1.4-0.3,2.9-0.5,4.4-0.4c3.4,0.1,5.8-1.6,7.7-4.1c1.5-1.9,2.4-4.1,2.9-6.6
				c0.2-0.8,0.4-1.6,0.5-2.5c1.6-10.5,6.4-19.6,13.3-27.6c1.6-1.8,3.4-3.4,5.4-4.8c3-2,6.2-3.5,9.6-4.7c3.1-1.1,6.3-1.4,9.6-0.7
				c2.2,0.5,4.3,1,6.4,1.5c1.8,0.5,3.6,1.1,5.2,2.1c4.6,2.9,9.8,4.9,13.8,9.2c2.1-4.2,3.9-6.4,10-4.2c0.7-1.1,0.9-2.5,1-3.8
				c0.5-3.2,0.9-6.4,1.5-9.6c0.4-2,0.4-3.9,0.1-6c-0.3-2-0.4-4,0.3-5.9c0.4-1,1-1.2,2-0.8c1.1,0.5,2,1.4,2.7,2.3
				c0.5-1.7,1.1-3.4,1.8-5c0.7-1.7,1.8-3.1,3.1-4.3c1.7-1.4,3.6-1.6,5.5-0.4c1.1,0.7,1.9,1.6,2.6,2.7c1.5,2.2,2.6,4.6,3.7,6.9
				c4.1,8.5,6.6,17.4,7.5,26.7c0.1,0.9,0.2,1.8,0.3,2.8c1.1-2.9,2.4-5.8,3.9-8.7c0.8-1.5,1.6-3,2.8-4.2c3.5-3.7,8.8-2.7,10.8,2
				c0.4,0.9,0.6,1.8,0.7,2.8c0.1,1.2,0.2,2.5,0.1,3.7c-0.1,2.2-0.4,4.4-0.6,6.6c-0.1,0.9-0.4,1.8,0,2.6c0.9,0.1,1.2-0.7,1.6-1
				c4.3-5,9.5-8.8,15-12.3c5.6-3.6,11.9-4.5,18.4-3.9c4.6,0.4,8.3,2.8,11.5,6c6.9,6.7,10.2,14.9,10.1,24.6c0,0.7-0.1,1.2-0.1,1.9
				c0,0.5,0.1,1,0.5,1.4c3.5,3.9,3.6,8.8,3.7,13.6c0,1.4-0.2,2.7-0.3,4.1c0,0.6,0.3,1,1,0.9c1.6-0.2,3.1-0.5,4.7-0.7
				c1.8-0.3,3.6-0.1,5.2,0.5c2,0.8,4.1,1.4,6.3,1.8c0.3,0.1,0.6,0.1,0.9,0.3c0.7,0.3,1.9,0.3,1.8,1.4c-0.1,0.9-1.2,0.7-1.8,1
				c-0.3,0.2-0.7,0.4-1,0.6c-0.5,4.5,0.1,8.8,0.4,13.2c0,0.4,0.1,0.9,0.2,1.2c0.1,0.7,0.6,1,1.4,1c1.9-0.1,3.7,0,5.6,0.5
				c2.9,0.7,5.6,2,7.6,4.1c1.4,1.4,2.9,2.3,4.8,2.6c1.6,0.3,3.2,1,4.9,1c2.6,0,5.2-0.5,7.5-1.6c0.7,0.5,0.3,0.8,0.1,1.1
				c-0.8,1.4-1.6,2.7-2,4.3c-0.4,1.4-1.3,2.4-2.4,3.2c-0.9,0.7-1.8,1.3-2.8,1.8c1.8,2.1,3.1,4.5,2.9,7.4c-0.1,1.7,0.1,3.3,0.4,5
				c0,0.1,0.1,0.2,0.1,0.3c2.2-0.9,4.3-2,6.3-3.1c0.5-0.3,0.9-0.7,1.4-0.5c0.7,0.5,0.4,1.1,0.3,1.7c-0.3,5.4,1.4,10.2,4.5,14.4
				c4.8,6.7,10.9,11.9,18.3,15.5c1,0.5,2.1,0.9,3.2,1.2c4.8,1.2,9.6,3,14.5,4.1c0.2,0.1,0.3,0.2,0.6,0.4c-0.3,0.3-0.3,0.4-0.4,0.5
				c-6.5,2.4-13.1,4-20,3.3c-0.5,0.3-0.9,0.5-1.4,0.8c-1.6,0.9-3,2.2-4.3,3.6c-0.5,0.5-0.9,1.1-1.2,1.8c-1.2,2.6,0.7,5.2,3.6,5
				c0.5-0.1,1-0.3,1.5-0.4c1.1-0.3,2.3-0.3,3.4,0.1c6,1.9,12.1,3.3,18,5.5c1.6,0.7,3.2,1.3,4.8,2c0.4-0.9,1.4-1.4,2.8-1.4
				c2.6,0.1,4.8,0.9,6.7,2.2c2,1.3,3.9,2.9,5.4,4.8c2.2,2.7,4.4,5.4,6.4,8.2c2.6,3.6,2.5,6.9-0.1,10.4c-0.7,0.9-0.9,1.8-0.7,2.9
				c2.6,11.3,2.1,22.7,0.9,34.1c-0.7,5.8-2.3,11.5-4.5,17c-1.1,2.8-2,5.7-3.1,8.5c-2.2,5.2-4.9,10.2-8.6,14.5
				c-0.5,0.5-0.9,1.3-1.7,1.4c-2.4,1.8-6.8,5.1-9.2,7.3c-2.4,2.1-4.7,4.2-6.9,6.4c-2.8,2.8-5.8,5-9.5,6.6c-3.8,1.6-7.3,3.6-10.7,6
				c-2.2,1.5-3.9,3.4-4.7,6c-0.8,2.5-2,4.8-3.1,7.2c-1,2.4-2.7,4.5-4.4,6.5c-1.6,2-4.1,2.6-6.6,1.5c-1.4-0.7-2.7-1.6-3.9-2.7
				c-0.7-0.6-1.2-1.4-2.2-1.8c-0.7,0.3-0.5,0.9-0.5,1.3c0.3,5,0.1,10-0.1,15.1c-0.1,3.5-1,6.8-2.1,10.1c-0.1,0.4-0.3,0.8-0.5,1.1
				c-1,1.7-2.9,2.1-4.6,0.9c-1.2-0.9-2.2-1.9-3.4-2.8c-0.7-0.6-1.6-1-2.4-1.5c-0.7-0.4-1.3,0-1.2,0.9c0.5,2.8,0.2,5.4-0.3,8.1
				c-0.5,2.3-0.5,4.8-2.2,6.7c-0.3,0.3-0.3,0.8-0.3,1.2c-0.1,2.4-0.7,4.8-1,7.1c-0.1,0.4-0.1,0.9-0.2,1.2c-0.3,4.1-0.6,8.1-0.7,12.2
				c-0.1,3.5-0.6,6.9-1.3,10.2c-0.7,3-1.4,6-2.4,8.8c1.4-1.4,2.7-2.9,3.9-4.5c1.3-1.9,2.6-3.8,4.1-5.6c3-3.7,5.4-7.7,7.5-12
				c3.2-6.9,7.4-13.1,12.8-18.5c3.7-3.7,7.6-6.9,12.3-9c3.3-1.6,6.6-3.3,9.8-4.9c1.1-0.6,2.1-1.2,2.8-2.4
				c3.9-6.8,7.3-13.9,10.2-21.2c1.2-3.1,2.2-6.4,2.3-9.8c0.1-2.3,0.1-4.6-0.5-6.9c-0.1-0.3-0.1-0.7,0.3-0.8s0.6,0.1,0.8,0.3
				c1.2,1.4,2.4,2.7,3.1,4.3c0.3,0.5,0.3,1.2,1.3,1.3c1.2-1.8,2.6-3.7,3.9-5.6c2.8-4,5.6-7.9,9-11.3c3.5-3.6,7.1-7.1,10.7-10.6
				c4.6-4.3,8.9-8.8,13.1-13.6c3.6-4.1,6.2-8.7,8.4-13.6c0.7-1.6,1.2-3.3,1.3-5.2c0.3-4,1-7.9,1.7-11.8c0.5-3.1,0.9-6.2,0.9-9.4
				c0-4-0.3-7.9-0.5-11.9c-0.3-7.8-1.9-15.4-3.8-22.9c-2.1-8.5-5.2-16.6-8.5-24.6c-1.1-2.8-2.1-5.5-2.7-8.4c-0.9-4.5,0-8.5,2.9-12.1
				c0.9-1,1.8-2,2.8-3.1c-0.5-1.1-1.1-2.2-1.6-3.4c-0.6-1.3-1.4-2.7-1.6-4.1c-0.7-3.3-2-6.4-3.3-9.5s-2-6.4-2-9.8
				c0-2.8,0-5.4,0.1-8.2c0.1-4.1,0.9-8.1,2.1-12.1c0.5-1.6,0.7-3.3,0.8-4.9c0.1-2.8-0.1-5.6,0.6-8.5c0.1-0.5,0-0.9-0.4-1.1
				c-0.8-0.5-1.4-1.3-2.6-0.9c-0.9,0.4-1.6,0-2.4-0.3c-4.7-1.9-7.1-6.4-6.2-11.5C720.1,231.4,720.9,229.6,721.7,227.7z M314.1,220.2
				c-4.7-4.7-5.5-15.4-5.5-15.4l0,0c-0.8-3.1-1.4-6.2-1.7-9.4c-0.3-2.8-0.8-5.6-1.3-8.4c-0.3-1.8-1-3.4-1.7-5
				c-3.3-8.1-6-16.3-7.6-24.9c-0.3-1.8-0.7-3.7-1-5.6c-1-5.6-1.2-11.2-1.2-16.9c-0.1-3.2,0.4-6.5,0.4-9.7c0.1-5.6,0-11.1-0.1-16.6
				c0-2-0.5-3.9-1-5.8c-1.6-6.4-3.3-12.8-4.3-19.3c-0.7-4.8-0.4-9.6,1.4-14.2c2.1-5.4,6-9,11.4-10.9c1.8-0.7,3.7-0.8,5.5-0.1
				c4.1,1.4,8,3,11.8,5c1.5,0.8,2.7,2,3.9,3.1c2.4,2.5,4.8,5,7.3,7.4c2.8,2.8,5.4,5.5,8.2,8.3c0.8,0.8,3.5,3.9,3.5,3.9l-0.1-0.1
				l0.1,0.1c0.9,1.2,1.8,2.4,2.8,3.7c4.9,6.9,11.2,12.4,18.4,16.8c2.6,1.6,5.2,3.2,7.7,4.8c3.7,2.4,7.8,4.1,11.9,5.8
				c2.9,1.2,5.8,2.4,8.6,3.7c4.2,1.9,7.7,4.8,10.2,8.6c1.7,2.6,3.4,4.9,5.6,7.1c2.2,2.2,2.6,5,1.6,7.9c-0.8,2.4-2,4.7-3.7,6.5
				c-2.5,2.6-4.9,5.2-7.5,7.7c-4.8,4.6-9.2,9.4-13.4,14.5c-1,1.2-2,2.4-2.4,4c-0.3,0.8-0.7,1.6-1.1,2.3c-3.7,5.7-7.3,11.5-12.4,16.1
				c-3.3,3-6.7,6-10.2,8.9c-1.4,1.2-2.6,2.4-3.7,3.8c-2.7,3.1-5.4,6.2-8.2,9.1c-1.5,1.6-2.9,3.3-4.1,5.2c-0.7,1.2-1.4,2.4-2.3,3.3
				c-3,3.6-7,4.9-11.5,4.1c-3.2-0.6-6.2-2.1-8.6-4.3c-0.2-0.1-0.4-0.3-0.5-0.5l-0.1-0.1c-0.1-0.1-0.3-0.3-0.5-0.5c0,0,0,0-0.1-0.1
				c-0.2-0.2-0.3-0.3-0.5-0.5l0,0c-0.1-0.2-0.3-0.4-0.5-0.6C316.3,222.3,315.2,221.3,314.1,220.2z M349.1,284.9
				c-2.2,1.6-4.5,3.1-6.9,4.4c-3.7,2.1-7.5,4.3-10.8,6.9c-2.7,2.2-5.4,4.3-7.6,7c-1,1.2-2.5,1.9-3.8,2.7c-0.9,0.5-2,0-2.2-1
				c-0.3-1.5-0.9-3-0.5-4.7c1-4.5,2-9,3.8-13.2c1.6-4.1,4.1-7.7,6.7-11.3c0.7-0.9,0.9-1.6,0.5-2.8c-1-2.8-1.7-5.8-2.5-8.7
				c-0.1-0.5-0.2-1,0.2-1.6c1.2,0.5,1.5,1.4,2,2.2c1.6,2.4,3.9,3.7,6.6,4.5c2.8,0.7,5.4,1.7,8,2.7c2,0.8,3.9,1.4,6,1.6
				c0.7,0.1,1.4,0.2,2.1,0.6c0.7,0.5,1.3,1.1,1.4,2C352.5,279.6,352.1,282.7,349.1,284.9z M422.2,190.4c-0.3,1.6-1.4,3-2.6,4.2
				c-4.8,4.6-12.7,5.6-16.4,11.1c-2.3,3.3-2.8,8-6.3,10.2c-1.7,1-3.8,1.2-5.6,2.1c-2.6,1.2-4.2,3.7-6.1,5.8
				c-4.9,5.4-11.9,8.6-18.9,10.3s-14.5,1.9-21.7,2.2c0.5-4.8,3.9-8.8,7.1-12.5c3.1-3.5,6.2-7.1,9.4-10.7c2.4-2.7,4.8-5.5,7.9-7.2
				c2.1-1.2,4.4-1.8,6.6-2.9c2.1-1.1,4.1-2.8,4.8-5c0.6-1.8,0.2-3.8,0.3-5.7c0.1-1.9,1-4.1,2.8-4.6c-1-1.4-1.1-3.5-0.1-5
				s5.2-2.2,5.2-2.2c9.8,1.6,19.6,3.2,29.3,4.8c1,0.1,2,0.3,2.8,0.9C422.1,186.9,422.6,188.8,422.2,190.4z M484.1,169.4
				c0.3-2.9-2-5.6-4.8-6.6s-5.8-0.9-8.6-0.8c-6.1,0.3-12.4,0.7-17.6,3.9c-3.3,2.1-6.9,5.4-10.6,4.2c-1.9-0.7-3.1-2.4-4.3-3.9
				c-3.1-4.3-6.2-8.5-9.3-12.8c-3.3-2-5.2-6.2-4.3-10c1.6,3.3,5.9,4.6,9.6,4s6.9-2.6,10.2-4.3c6.5-3.5,13.5-6,20.4-8.4
				c0.5-0.2,1-0.3,1.4-0.5c1.1-0.4,2.2-0.8,3.3-1c8.6-2.1,18.1,3.7,21.1,12.1C493.4,153.6,490.4,163.3,484.1,169.4z M595.6,138.3
				c-8.8,9.6-17.6,19.1-26.3,28.7c-1.8,2-4.3,4.2-6.9,3.5c-3.1-0.8-3.9-4.8-6-7.2c-3.2-3.5-9-3-13.2-5.2c-6-3.1-7.7-11.5-5.4-17.8
				c2-5.8,6.4-10.5,10.8-14.8c0.3-0.8,1-1.5,1.8-1.6c1.4-0.1,2.6,0.7,3.7,1.6c1.6,1.3,3.2,2.6,5,3.8c2.6,1.8,5.6,3.1,8.7,3.8
				c7.2,1.7,14.8,0.3,22.1-1.1c1.6-0.3,3.2-0.6,4.8-0.1s2.9,1.8,2.9,3.4C597.3,136.4,596.4,137.3,595.6,138.3z M643.8,229.5
				c-3.1,0.2-6.9-0.7-7.9-3.7c-0.6-1.6-0.1-3.5-0.8-5c-0.9-2.3-3.5-3.2-5.8-3.9c-3.5-1-7.2-2.2-10.8-1.3c-1.7,0.4-3.5,1.2-5.1,0.6
				c-2.5-0.9-2.7-4.3-2.2-6.9c2.1-10.2,10.2-19,20.1-22c1.8-1,4.1-1.2,6.1-0.5c2.7,1,4.8,3.1,6.6,5.4c1.8,2.2,3.6,4.6,6,6.1
				c2.6,1.7,6.4,2.9,6.8,6.1c0.3,2.4-1.6,5-0.3,7.1c0.7,1.1,2.2,1.6,3.5,1.5s2.6-0.7,3.7-1.4C662.1,221,653.4,228.9,643.8,229.5z
				 M722.2,292.5c0.3,0.9,0.7,1.8,0.7,2.8c-0.1,1.7-1.2,2.7-2.9,2.4c-1.5-0.3-2.7-1-3.7-2.2c-1.2-1.4-2.3-2.9-3.1-4.7
				c-0.3-0.8-0.7-1.6-1.1-2.2c-1.1-1.7-2.6-2.8-4.8-2.9c-3.7-0.3-7.1,0.7-10.3,2c-3,1.2-6.2,2-9.4,1.9c-1-0.1-2.1-0.3-3-0.8
				c-2.4-1.4-2.6-4.7-0.4-6.3c0.7-0.5,1.4-0.9,2.1-1.3c-3.3-0.5-6.2-1.8-9-3.2c-4.4-2.2-7.4-5.8-9.1-10.3c-0.3-0.8-0.5-1.6-0.5-2.4
				c0.1-1.6,1.1-2.5,2.7-2.2c1,0.2,1.8,0.1,2.8-0.1c1.2-0.3,2.4-0.6,3.7-0.9c2.2-0.5,4.2-1.2,6.2-2.2c2.9-1.6,6.1-2.8,9.4-3.1
				c2.4-0.3,4.6-0.1,6.6,1.4c0.7,0.5,1.4,0.9,2.3,0.9c1.4,0,2.6,0.7,3.6,1.7c0.9,0.9,2.2,1.6,2.7,2.9c-0.5,0.7-1,0.3-1.5,0.3
				c-0.6,0-1.3-0.1-1.8,0.1c-1.9,0.8-3.8,1.7-5.7,2.6c-0.1,0.1-0.3,0.3-0.3,0.5s0.1,0.5,0.3,0.5c0.9,0.3,1.8,0.5,2.7,0.8
				c2.2,0.5,4.1,1.5,5.7,3.1c2,2.1,4.5,3.7,6.3,6.1c1.2,1.7,2.4,3.4,3.1,5.4c0.5,1.6,1.4,3,2.6,4.3
				C720,288.7,721.4,290.4,722.2,292.5z M716.6,185.9c-0.2,0.3-0.3,0.9-0.4,1.5c-0.3,2.7,0.1,7.4,0.1,7.4c-0.1,2.7-0.4,5.2-1.2,7.5
				c-1.8,4.8-2.4,10-2.9,15.1c-0.2,1.6-0.4,3.1-0.8,4.7c-1,3.3-2.9,6-6.2,7.5c-2.2,1-4.3,1-6.4,0.1c-1.6-0.7-2.9-1.7-4.1-2.9
				c-3.3-3.3-6.5-6.5-9.8-9.8c-1.6-1.6-2.9-3.3-3.4-5.6c-0.2-1-0.8-1.4-1.7-1.6c-0.5-0.1-1-0.3-1.5-0.5c-3.9-1.7-5.9-6-4.1-9.9
				c1-2.3,0.4-3.8-1-5.2c-0.8-0.8-1.7-1.5-2.7-2.2c-3.9-2.8-8.1-5.3-12.4-7.4c-0.7-0.3-1.3-0.7-2-1c-4.2-2-7.5-4.9-9.7-9
				c-0.6-1-1.3-1.7-2.5-2.2c-6-2.2-8.7-6.9-9.2-13c-0.1-1.1,0.1-2.3,0.2-3.5c0.1-0.7-0.1-1.2-0.8-1.6c-0.4-0.2-0.7-0.5-1-0.7
				c-4.2-2.9-6.5-7-6.9-12.1c-0.1-1.2,0-2.5,0.3-3.7c0.5-1.5,1.4-2.4,2.9-3c3.6-1.4,7.1-3.1,10.5-4.8c1.5-0.8,2.9-1.6,4.4-2.4
				c3.3-1.8,6.4-3.9,8.9-6.8c1-1.2,2.2-2.3,3.3-3.3c5.6-4.5,10.7-9.4,16.6-13.4c2.4-1.6,4.3-3.6,6-5.8c1.6-2,3.2-3.9,4.7-5.9
				c3.5-4.7,7.3-9.2,11.3-13.5c2.9-3.2,6.4-5.8,10-8.1c1.1-0.7,2.2-1.2,3.5-1.6c4.4-2.4,8.7-4.9,13.4-6.8c2.4-1,4.9-1.8,7.5-2.2
				c2.9-0.5,5.4,0.3,7.7,2c2.1,1.4,2.8,3.6,2.3,6.1c-0.5,2.3-1.1,4.5-2,6.6c-0.6,1.4-1.2,2.9-1.8,4.3c-0.9,2.2-1.4,4.5-1.8,6.9
				c-0.5,4.3-0.5,8.6-0.5,12.8c0,4,0,7.9,0,11.9c0,2.8,0.1,5.4,0.4,8.1c0.3,3.4,0.3,6.9-0.1,10.3c-0.4,3.3-0.6,6.7-0.8,10
				c-0.1,1.4-0.3,2.9-0.7,4.3c-1.4,4.7-2.7,9.4-4.1,14.1c-0.9,3-2.1,5.9-3.2,8.8c-0.5,1.2-1,2.5-1.5,3.8
				C721.6,176,719.5,181.1,716.6,185.9z"/>
		</g>
	</g>
	<g>
		<g>
			<path class="st4" d="M328.3,530.4c-0.1-0.8,0.1-1.6,0.5-2.1c-0.7-1.5-1.5-2.9-2.2-4.5c-2.3-4.4-4.1-8.8-4.9-13.8
				c-1.4-8.6-3.9-17-5.9-25.4c-0.3-1.1-0.6-2.2-1.2-3.2c-2.2-3.5-4.4-6.9-7.1-10c-6.3-6.7-13.3-12.7-21.4-17.6
				c-1.6,1.7-3.3,3.3-5.4,4.7c-1.2,0.9-1.2,0.9-0.7,2.4c1.3,3.4,2.7,6.8,4.1,10.2c2.8,6.9,3.5,14.1,2.6,21.6
				c-0.7,5.8-2.4,11.5-3.9,17.2c-2.4,8.6-5.8,16.6-10.7,24c-0.7,1-1.3,2.2-2,3.2c-1.6,2.8-2.7,5.9-3,9.2c-0.9,8.8-1.5,17.8-0.1,26.7
				c1,6.4,2,12.8,4.3,18.9c2.9,7.9,6.7,15.3,11,22.6c1,1.6,2,3.2,2.9,4.8l1.3,0.3l0.6,0.1l0.6,0.1l1.2,0.3l2.4,0.7
				c0.4,0.1,0.8,0.2,1.2,0.3l1.2,0.4l2.4,0.8l1.2,0.4c0.4,0.1,0.8,0.3,1.2,0.5l2.4,0.9l1.2,0.5c0.4,0.1,0.8,0.3,1.2,0.5
				c2.4,1,4.8,2.1,7.2,3.2c0.1-3.1,0.3-6.2,0.6-9.4c0.4-5.2,1-10.4,1.6-15.6c0.3-2.6,0.4-5.2,0.7-7.8c1-8.2,2.7-16.3,4.2-24.4
				c1.3-7.1,3.9-13.7,7.6-19.8c2.7-4.5,3.9-9.2,4.4-14.3c0.2-1.6-0.3-3.1-0.6-4.7C328.6,531.6,328.3,531,328.3,530.4z M309.1,531.7
				c-0.5,5.8-1.6,11.3-3.3,16.9c-0.5,1.5-0.7,3.1-0.7,4.7c-0.1,3.5-0.3,7.1-0.5,10.7c0,0.9,0.1,1.6,0.1,2.5c0.1,1.6-0.3,3.1-1,4.5
				c-1.2,2.2-3.3,3-5.6,1.8c-4.5-2.4-8.6-5.1-11.9-9c-3.2-3.8-5.1-8.1-5.6-13c0-0.1,0-0.2,0-0.3c-0.2-2.6,1.3-3.7,3.7-2.9
				c0.7,0.3,1.3,0.6,2,0.9c1.1,0.4,1.8,0,2.1-1.2c0.2-0.9,0.3-1.8,0.3-2.8c0.1-6,1.2-11.9,2.6-17.6c0.5-2,1.4-3.9,2.8-5.6
				c2.5-3,3.4-6.6,3.8-10.4c0.1-0.7-0.1-1.2-0.3-1.8c-0.8-3.8-1.6-7.5-2.4-11.3c-0.2-1-0.2-2.1-0.1-3.1c0.1-0.7,0.3-1.4,1.2-1.6
				c3,6.7,5.4,13.6,9.2,19.8C309.1,518.4,309.7,525,309.1,531.7z"/>
		</g>
	</g>
</g>
</svg>
