<?xml version="1.0" encoding="utf-8"?>
<!-- Generator: Adobe Illustrator 24.0.1, SVG Export Plug-In . SVG Version: 6.00 Build 0)  -->
<svg version="1.1" id="New_group_1_" xmlns="http://www.w3.org/2000/svg" xmlns:xlink="http://www.w3.org/1999/xlink" x="0px"
	 y="0px" viewBox="0 0 990 781.2" style="enable-background:new 0 0 990 781.2;" xml:space="preserve">
<style type="text/css">
	.st0{fill:#FFFFFF;}
	.st1{fill:#535459;}
	.st2{fill:#E07E1B;}
	.st3{fill:#E4716B;}
	.st4{fill:#A15015;}
</style>
<g>
	<path d="M500.2,713.3c-68,0-136,0-203.9,0c-0.7,0-1.4,0.1-2.2,0c-1.9-0.2-3.3,0.3-3.9,2.3c-0.3,1-1,1.8-1.8,2.5
		c-4.8,4.8-9.3,10-15.5,13.1c-2.1,1-3.2,2.8-3.4,5.2c-0.4,3.9-1.3,7.7-3.6,11.1c-1.3,1.9-2.8,3.4-5,4.3c-2.7,1-5.1,0.8-7.5-0.9
		c-5.5-4-9.1-9.3-11.5-15.6c-0.6-1.6-1.2-3.3-1.8-5c-0.6-1.6-1.6-2.9-2.8-4.2c-1.4-1.4-2.2-1.3-2.9,0.5c-0.2,0.5-0.4,1-0.6,1.6
		c-1.6,4-4.3,6.9-8.3,8.6c-1.8,0.8-3.6,1.8-5.3,2.8c-1.9,1.1-2.8,2.7-2.6,5c0.3,3.8-0.2,7.5-1.4,11.1c-0.5,1.5-1,3-1.8,4.4
		c-0.9,1.7-2.2,2.9-3.9,3.8c-1.8,1-3.6,1.1-5.5,0.2c-2-1-3.9-2.1-5.6-3.7c-2.2-2.1-4.3-4.3-6.5-6.4c-1-1-1.3-0.8-1.7,0.5
		c-0.3,1.5-0.7,3-1,4.4c-0.8,3.7-3.2,6.6-5.5,9.4c-1.3,1.6-3.3,2-5.3,1.5c-5.4-1.4-10.5-3.5-14.5-7.5c-5.1-5.1-10.1-10.3-13.8-16.6
		c-1.6-2.7-3.8-4.7-6.5-6.2c-5.5-3-9.5-7.8-13.3-12.6c-6.6-8.3-9.4-18.1-10.7-28.3c-0.7-5.6-0.3-11.3,0.4-17
		c0.6-4.7,1.4-9.3,2.6-13.9c2.3-8.6,6.1-16.3,12.5-22.6c3.5-3.4,7.2-6.6,11.1-9.5c4-2.8,7.6-6.1,11.5-9.1
		c15.1-11.7,32.1-18.7,50.9-21.4c6.6-0.9,13.2-1.5,19.8-1.2c6.7,0.3,13.4,0.9,20,1.9c1.5,0.3,2.6-0.1,3.6-1.2
		c4.2-4.4,8-9.1,11.2-14.4c1.6-2.7,3.3-5.3,5.1-7.8c1.3-1.9,2.2-4,2.7-6.3c2.5-11.6,5.8-22.9,11.3-33.5c0.6-1.2,1.3-2.4,2.1-3.5
		c1.2-1.4,2.1-3,2.7-4.8c1.9-5.2,4.4-10.1,7.2-14.9c4.5-7.6,6.3-15.8,6.8-24.5c0.4-7.8,0.7-15.7,2.7-23.3c1.2-4.7,2.8-9.4,4.9-13.8
		c2.6-5.6,4.1-11.4,4.8-17.5c0.8-6.8,0.9-13.7,0.2-20.6c-0.2-1.6-0.6-3.1-1.3-4.6c-2.7-6.2-6.2-12.1-8.7-18.4
		c-4.8-12-9.7-24-12.9-36.6c-1.5-6.1-2.3-12.2-2.7-18.5c-0.4-5.7-0.8-11.3-1.2-17c-0.1-2.3,0.3-4.6,0.5-6.9c0-0.6,0.2-1.1,0.2-1.7
		s-0.4-0.9-1-0.7c-0.7,0.3-1.5,0.7-2.2,1c-3.8,1.9-7.5,4-11.6,5.2c-4.6,1.4-9.3,1.9-14,0.7c-7.3-1.8-11.9-6.8-15.1-13.4
		c-1.1-2.2-1.6-4.7-2.1-7.1c-1.2-5.6-2.8-11.2-4.6-16.6s-3.6-10.8-5.4-16.2c-1.6-4.6-3.7-9.1-5.9-13.4
		c-7.7-15.2-15.6-30.3-23.4-45.4c-2.6-5.1-5.3-10.2-8-15.3c-8.9-16.8-15.6-34.3-19.3-53c-1.7-8.8-2.3-17.6-1.1-26.5
		c1-8.2,4.8-15.2,9.7-21.6c3.4-4.5,7.6-8.2,12.4-11.2c4.9-3.1,10.4-4,15.9-4.9c4.5-0.7,9-1,13.6-0.9c11.3,0.2,22.5-0.4,33.5-3.3
		c14.7-3.9,29-9,42.9-15.1c10.8-4.7,21.4-9.6,31.9-15.1c10.7-5.6,21.4-11.2,32.1-16.7c4.3-2.2,8.6-4.3,13-6.2
		c6-2.6,12.3-3.9,18.9-3.6c5.2,0.2,9.6,2.3,12.9,6.4c2.5,3.1,4.7,6.5,5.7,10.5c0.9,3.3,2.9,5.6,5.9,7.2c3.4,1.9,6.8,4,10.1,6
		c3.4,2.1,5.9,5.1,7.3,8.9c0.6,1.5,1.1,3,1.7,4.5c0.8,2.2,1.1,2.4,3.4,1.9c3.7-0.8,7.3-1.6,11-2.5c7.9-1.9,15.8-3.7,23.8-4.5
		c11.2-1.2,22.5-1.8,33.7-0.9c7.7,0.6,15.5,1.1,23.1,2.4c6.2,1.1,12.3,2.7,18.5,4.2c3.1,0.8,3.1,0.8,3.8-2.3c0.9-3.6,1.6-7.3,3-10.9
		c1.3-3.1,2.9-6.1,4.9-8.7c2.6-3.4,5.1-6.8,7.9-10c2.3-2.7,5.1-4.9,8.3-6.4c1.5-0.7,2.9-1.6,4.3-2.6c6.7-5.1,14.3-7.8,22.5-8.7
		c4.4-0.5,8.6,0.5,12.7,2c7.6,2.8,14.7,6.8,21.5,11c9,5.6,18.5,10.1,29,12.4c7.3,1.6,14.7,1.7,22.2,2c8.6,0.3,17.3,0.1,25.9,0.4
		c7.9,0.2,15.8,0.9,23.7,1.2c6,0.2,12,0.6,17.9,1.6c5.3,0.9,10.6,1.7,15.7,3.4c7.6,2.6,14.1,6.8,19.1,13.1c4.8,6,10.4,11,16.6,15.5
		c2.1,1.6,4.3,3.1,6.2,4.9c5.5,5,8.4,11.3,8.7,18.6c0.2,4.4-0.6,8.8-2,13c-2.6,8-6.1,15.5-10.7,22.4c-11.7,17.7-20.4,36.7-26.7,56.9
		c-4.5,14.5-7.8,29.4-9.4,44.5c-1.2,11-2.6,21.9-5.2,32.7c-1.2,4.9-2.8,9.7-5.3,14.1c-4.6,8.3-11.6,13.5-20.6,16.2
		c-5.9,1.8-11.8,2.1-17.7,0.5c-2.1-0.6-2.5-0.3-2.8,1.9c-0.3,2.1-0.5,4.3-0.8,6.4c-1.7,10.1-4.6,19.9-7.2,29.8
		c-3.5,13.2-8,26-13.7,38.4c-0.9,2-1.8,3.9-2.8,5.8c-2.8,5.5-3.3,11.4-2.8,17.5c0.6,7.5,2.9,14.7,4.4,22.1c2.7,13.2,4.1,26.5,3.6,40
		c-0.3,7.8-0.4,15.7-1,23.5c-0.5,7.2-1.2,14.3-2.5,21.4c-0.8,4.2-0.6,8.5-0.1,12.7c0.5,4.5,1.2,9,1.8,13.5c0.4,3.2,1.8,6.1,3.2,9
		c5.1,10.9,10.9,21.5,16.8,32.1c5.8,10.3,11.6,20.6,16.8,31.3c1.5,3.1,0.9,3,4.7,2.3c8.8-1.4,17.6-2.3,26.5-2.2
		c14.2,0.1,27.9,3.1,41.2,7.9c12.9,4.6,24.1,12.2,35.4,19.6c5.2,3.4,9.3,7.7,12.8,12.7c5.7,8.1,11.1,16.2,14.8,25.4
		c1.1,2.7,2,5.4,2.4,8.3c0.5,4.3,0,8.6-0.7,12.9c-1.5,9.3-4.2,18.2-7.7,26.9c-1.9,4.6-5,8.5-8.1,12.4c-3.3,4.2-7.1,7.8-11.9,10.3
		c-3.3,1.7-5,4.7-6.8,7.5c-2,3.2-4.4,6.1-7,8.8c-1.2,1.4-2.5,2.7-3.7,4.1c-4.4,4.8-9.9,7.8-16.2,9.3c-2.7,0.7-4.8-0.4-6.7-2.7
		c-2.9-3.6-4.5-7.7-5.4-12.1c-0.3-1.8-0.7-1.9-2.1-0.5c-2.3,2.2-4.4,4.6-7,6.6c-1.1,0.8-2.2,1.6-3.3,2.3c-3.9,2.3-8.2,1.1-10.5-2.8
		c-2.2-3.8-3.2-8-3.5-12.3c-0.1-1.4-0.1-2.7,0-4.1c0.1-1.6-0.6-2.8-1.8-3.7c-1.6-1.3-3.5-2.3-5.4-3.1c-4.6-1.8-7.7-5.1-9.3-9.7
		c-1-2.8-1.8-2.9-3.8-0.6c-1.7,2-2.7,4.3-3.4,6.8c-1.4,4.6-3.7,8.6-6.7,12.4c-1.3,1.6-2.8,2.9-4.3,4.1c-4.4,3.5-9.6,2.8-12.9-1.8
		c-1.9-2.6-3-5.5-3.6-8.5c-0.3-1.3-0.5-2.7-0.7-4c-0.2-2-1.3-3.5-3-4.3c-6.1-3-10.5-8-15.2-12.7c-1.1-1.1-2.1-2.5-2.7-3.9
		c-0.5-1-1.2-1.4-2.3-1.4c-0.9,0-1.8,0-2.6,0C636.6,713.3,568.4,713.3,500.2,713.3z"/>
</g>
<g>
	<path class="st0" d="M617.6,213.5c5.3,1.5,6.2,0.5,8.6-3.1c0.2-0.3,0.4-0.6,0.6-0.9c1-1.9,0.9-3.1-0.6-4.6c-2.8-2.8-6-4.6-9.8-4.2
		c-0.8,0-1.3,0-1.7,0c-2.5,0.1-3,0.6-3.4,2.9C610.3,208.3,612.6,212.2,617.6,213.5z"/>
	<path class="st0" d="M608.7,247.4c6,1.7,12.1,1.9,18-0.6c9.7-4.1,15.4-11.7,18.9-21.3c1-2.8,1.2-5.7,2.5-8.4c0.4-0.8,0-1.5-0.7-1.8
		c-1.9-0.9-3.7-1.7-5.8-2.7c-0.3,1.8-0.6,3.5-0.9,5.1c-1.7,8.6-6,15.7-13.1,21c-3.2,2.5-6.8,3.1-10.7,2.8c-1.1-0.1-2.2-0.4-3.3-0.4
		c-2.1,0-4.1-0.6-6-1.4c-2.2-0.9-4.1-2-6.1-3.3c-2.5-1.5-4.2-3.7-5.6-6.2c-0.4-0.7-0.7-1.5-1.5-3.1c-0.6,2.8-0.9,4.9-1.4,6.9
		c-0.5,2.1,0.1,3.8,1.7,5.2C598.9,243,603.4,245.8,608.7,247.4z"/>
	<path class="st0" d="M410.2,232.7c0.3,0.2,0.7,0.3,1,0.4c2.2,0.5,6.7-1.3,7.7-3.3c1.6-3.3,2.7-6.6-0.2-9.9
		c-0.4-0.4-0.7-0.9-1.1-1.5c-1.3-2-3-3.2-5.5-2.5c-0.4,0.1-0.9,0-1.5,0.1c-3.8,0.3-6.2,2.1-6,5.3c0,0.5-0.1,0.9-0.1,1.3
		C404.1,227.3,406.9,230.2,410.2,232.7z"/>
	<path class="st0" d="M376.6,214.3L376.6,214.3L376.6,214.3L376.6,214.3L376.6,214.3z"/>
	<path class="st0" d="M376.8,214.2L376.8,214.2L376.8,214.2C376.8,214.3,376.8,214.3,376.8,214.2z"/>
	<path class="st0" d="M371,237.8c1.5,2.2,2.8,4.6,3.8,7.1c2.5,6.2,7,10.8,12.6,14.4c2.5,1.6,5.2,2.6,8.2,3c2.8,0.3,5.7,0.4,8.4-0.1
		s5.6-0.8,8.1-2.4c4.4-2.8,8.8-5.7,13.2-8.6c0.4-0.3,0.7-0.7,0.7-1.2c-0.4-1.7-0.2-3.6-1.5-5.2c-1.2,0.4-1.6,1.3-2.2,2
		c-3.3,3.7-7.3,6.6-11.8,8.6c-3.6,1.6-7.4,2.5-11.4,2c-10.2-1.2-19.7-9.3-22.2-19.3c-1.7-6.7-2.2-13.5-0.4-20.3
		c0.3-1.2,0.7-2.3,0.1-3.5l0,0c-1.5,1.8-3.3,3.5-4.1,5.7c-1.1,2.8-2.3,5.7-3.5,8.5c-0.4,1-0.9,2.1-0.4,3.2
		C369.4,233.9,369.7,236,371,237.8z"/>
	<path class="st0" d="M376.6,214.3C376.5,214.2,376.6,214.3,376.6,214.3L376.6,214.3L376.6,214.3z"/>
	<path class="st0" d="M422.7,412.8c0.7,2.5,1.2,5,1.9,7.5c0.6,2,0.5,3.8,0.2,5.8c-0.6,3.3-1.4,6.5-2.5,9.6c-2.5,7.4-3,15.2-2.4,22.9
		c0.5,6.4,2.6,12.4,6,18c1.8,3.1,4.6,5.4,7.5,7.3c2,1.3,4.2,2.5,6.2,3.8c3.3,2,6.4,4.1,9.2,6.7c1.2,1.1,2.4,2.2,1.7,4.1
		c-0.2,0.7-0.6,1.1-1,1.4c2,0.4,3.8,0.8,5.8,1.2c2,0.5,4,0.9,6,1.2c0.1-0.7,0.2-1.3,0.7-1.9c0.6-0.8,1.2-1.6,2-2.2
		c1.9-1.5,2.7-3.3,3-5.6c0.4-3.1,1-6.2,2.9-9c0.9-1.2,1.2-2.9,1.8-4.5c-2.7-1.9-5.7-2.8-8.9-3.4c-1.8-0.4-3.6-0.7-5.4-1.2
		c-3.3-0.8-5.1-3.1-6.1-6.2c-0.8-2.5-0.2-4.6,1.4-6.5c2.5-3,6.2-3.8,10.4-2.5c1.4,0.5,2.7,1.2,4,1.8c1.1,0.6,2.1,0.9,3.2,0.7
		c-1.6-1.8-3-3.8-4.4-6c-4-6.7-7-13.7-9.6-21c-0.5-1.5-0.9-3-1-4.6c-0.4-3.6-0.8-7.3-1-11c-0.4-5.4,0.4-10.8,2.8-15.7
		c2.9-6,6.5-11.5,11.8-15.8c7.1-5.9,14.8-10.7,23.5-14c5.4-2,11-3.3,16.8-3.6c3-0.1,6.1-0.6,9.1-0.9c5.7-0.7,11.2-0.7,16.8,0.4
		c5.1,0.9,10.1,2.1,15,3.7c5.1,1.7,9.7,4.1,13.5,7.9c4.9,4.8,8.1,10.4,8.9,17.2c0.2,2,0.6,4.1,1.1,6.2c1.5,5.9,2,11.8,1.5,17.9
		c-0.2,2.8-0.7,5.6-2,8.1c-0.4,0.8-0.7,1.5-0.7,2.5c0.1,2.3-0.7,4.4-1.7,6.3c-1.5,2.8-2.8,5.7-4,8.6c-0.1,0.4-0.4,0.9-0.6,1.4
		c0,0,0,0,0,0.1c0.1,0,0.1-0.1,0.1-0.1c0.1,0,0.1,0.1,0.1,0.1h0.1c0.1,0,0.1-0.1,0.2-0.1c2,0,3.8-0.4,5.8-0.1
		c0.1,0.1,0.1,0.1,0.2,0.1c0.1,0,0.1,0.1,0.2,0.1c0.1,0,0.1,0,0.1,0c0.4,0.4,0.9,0.6,1.5,0.6c0.8,0.5,1.7,1,2.5,1.6
		c2.3,1.7,3.2,3.9,2.7,6.7c-0.4,2.5-1.2,5-3,7c-1.3,1.5-2.5,3-4.1,4.1c-3.5,2.4-6.8,5.2-10.6,7c-0.6,0.3-1.2,0.5-1,1.3
		c0.5,2.4,0.9,4.8,2,7c0.8,1.7,2,3.1,3.9,3.6c1.2,0.3,2.2,0.9,3,1.9c3,3.3,6.8,5.1,11,6.2c2.9,0.8,5.9,1.5,8.9,2.1
		c0.6,0.1,1.2,0.2,1.7,0.3c0.8,0.1,1.7,0.1,2.5,0.1c0.2,0,0.4,0,0.7,0l0,0c0.9-0.6,2.5-1.7,4.1-3c1.1-1.5,4.6-9.3,4.8-10.2
		c0.1-0.9,0.1-1.8,0.3-2.7c0.1-0.9,0.3-1.8,0.4-2.7c0.1-0.7,0.2-1.3,0.3-2c0.1-1.1,0.4-2.2,0.5-3.3c0.1-0.6,0.2-1.2,0.4-1.8
		c0.3-1.4,0.1-2.6-0.8-3.8c-1.7-2.3-2.7-4.9-3.8-7.5c-1.8-4.1-2.2-8.2-1.6-12.6c1.1-7.4,2.2-14.7,4.5-21.9c0.1-0.4,0.3-0.7,0.3-1.1
		c0.1-4.1,0.2-8.3,0.2-12.5c0-0.8-0.5-1.6-0.8-2.4c-0.7-2.1-1.5-4.1-2.2-6.2c-1.1-3.2-1.2-6.5-0.6-9.8c1-4.8,0.4-9.5-0.9-14.2
		c-0.9-3.2-2-6.3-3.1-9.4c-1.7-4.6-2.8-9.1-2-14c0.2-1.4-0.2-2.6-0.8-3.8c-1.6-3.4-3.8-6.2-6.8-8.5c-2.9-2.2-5.7-4.6-8.8-6.7
		c-4.1-2.8-8.5-4.8-13.2-6.2c-2-0.6-3.9-1.2-6-2c-1.3-0.4-2.5-0.9-3.8-1.1c-3-0.5-5.9-1.5-8.7-2.8c-5.9-2.5-10.1-6.8-13.9-11.7
		c-0.7-0.9-0.9-2-1.1-3c-0.3-2.2-1-4.3-2-6.3c-4.5-9.4-6.4-19.5-7.9-29.7c-1.2-8.1-1-16.1,0.1-24.2c0.1-0.9,0.3-1.7,0.4-2.5
		c0.2-1,0.6-1.7,1.5-2.4c3-2,3.6-4.8,2.5-8.1c-0.5-1.5-1.1-3-1.7-4.4c-0.6-1.4-1.2-2.7-1.9-4c-3.6-7.2-5.1-15-6.5-22.9
		c-0.1-0.9-0.1-2-0.2-2.9c-0.5-4.9-1.3-9.7-4.6-13.7c-0.5-0.6-0.7-1.2-0.8-2c-0.2-1.9-0.2-3.8-0.8-5.6c-0.7,0.1-1.4,0.2-2,0.2
		c-3.5-0.1-6.5-1.2-9-3.4c-0.1-0.1-0.4-0.3-0.5-0.4c0.1,0.7,0.1,1.5,0.3,2.2c0.4,3,1.4,6,3,8.6c0.8,1.3,1.2,2.5,1.2,4.1
		c-0.1,6.5,0.1,13,0.4,19.5c0.3,7.3-0.6,14.4-3.3,21.3c-1.6,4.1-3,8.3-4,12.6c-0.4,1.5-0.6,2.9-0.5,4.4c0,0.9,0,2,0,2.9
		c0.5,7.3-0.5,14.7-1.1,22c-0.1,1.2-0.2,2.5-0.3,3.6c-0.2,5.4-1.7,10.6-3.6,15.7c-1.5,3.8-4.1,6.9-7.3,9.5c-1.4,1.2-2.8,2.3-4.4,3.4
		c-4.4,3.1-7.6,7.2-10.7,11.5c-2.3,3.3-3.8,6.9-3.5,11c0.2,3-0.9,5.4-3,7.5c-3.8,3.7-7.4,7.5-12.2,9.9c-0.9,0.4-1.7,0.9-2.5,1.6
		c-4.6,3.8-9.6,7.3-13.9,11.4c-8.5,8.3-13.1,18.5-13.4,30.5C419.8,399.6,420.7,406.3,422.7,412.8z"/>
	<path class="st0" d="M376.3,509.1c0.6,1.5,1.4,2.8,2.5,4.1c3.3,3.7,7,6.8,11.2,9.3c3.3,1.9,6.5,3.9,9.7,5.9c1.9,1.2,3.8,2.2,6,2.7
		c0.5,0.1,1.2,0.4,1.7-0.4c-0.6-0.9-1.2-1.7-1.9-2.6c-4.4-6.5-7.5-13.4-8.5-21.3c-0.7-5.5-0.6-11-0.1-16.5c0.1-0.7,0.1-1.4,0.1-2.1
		c-5.3-6.7-11.8-11.8-19.1-16.1c-4.5-2.7-9-5.4-13.5-8.2c-1.5-0.9-3-2-4.1-3.6c-0.4-0.6-1-1.2-1.7-1.4c-0.3-0.1-0.6-0.2-0.9-0.3
		c0.8,3.3,1.6,6.5,2.8,9.7C365.9,481.9,371.1,495.4,376.3,509.1z"/>
	<path class="st0" d="M669.4,650.5l1.7-2.1l0.9-1c0.3-0.4,0.6-0.7,0.9-1l1.8-2c0.7-0.7,1.2-1.3,1.9-2c1.2-1.3,2.6-2.5,3.9-3.8
		l0.5-0.5l0.5-0.4l1-0.9c0.7-0.6,1.4-1.2,2-1.8l2.1-1.7l1-0.9c0.4-0.3,0.7-0.6,1.1-0.9l2.2-1.7l0.5-0.4l0.6-0.4l1.1-0.8l2.2-1.6
		l2.3-1.5c6.2-4,12.8-7.3,19.5-10.1c0.4-0.1,0.9-0.4,1.3-0.5l1.3-0.5l2.6-0.9c0.4-0.1,0.7-0.2,1-0.4c-3.6-8.1-7.3-16.1-10.8-24.2
		c-2.8-6.5-5.8-12.9-9.4-19.1c-6.1-10.4-10.8-21.4-15.2-32.5c-1.8-4.6-2.6-9.4-2.7-14.4c-0.1-6.7,0.5-13.4,1.1-20.2
		c0.7-8.4,1.3-16.8,1.3-25.3c0-4.1-0.1-8.3-1.1-12.4c-0.9,0.3-1,1.1-1.2,1.7c-0.6,2-1.1,4-1.7,6c-2.7,9.2-5.9,18.1-10.5,26.6
		c-1.4,2.5-2.7,4.9-4,7.5c-3.1,6.4-7.4,11.8-12.8,16.3c-5.3,4.5-11.2,7.9-17.4,10.7c-2.5,1.1-4.9,2.2-7.3,3.5
		c-10.2,5.9-20.1,12.2-29.3,19.5c-4.1,3.2-7.8,6.6-11.5,10.2c-2,1.9-2.5,3.8-2.3,6.5c0.7,8.7,0.2,17.3-0.9,26
		c-1.7,12.8-7.4,23.5-16.1,32.7c-4,4.3-8.4,8.2-13,11.9c-4.1,3.3-8.7,5.4-13.8,6.6c-9.9,2.3-20,1.9-29.9,0.3
		c-8.1-1.3-15.9-3.8-23.6-6.7c-10.1-3.7-18.1-10.1-24.8-18.3c-1.5-1.9-2.9-3.9-3.8-6.2c-2-4.4-3.8-8.7-6-13
		c-0.7-1.5-1.3-2.9-1.7-4.4c-0.4-1.9-0.9-3.8-2.5-5.2c-0.9-0.9-1.2-2.4-1.6-3.6c-2-7.3-4.8-14.4-8.7-21c-1.7-3-3.8-5.4-6.6-7.2
		c-3-2-6-3.8-9.1-5.6c-6.7-4.1-14.2-5.8-21.8-7.5c-3.1-0.7-6.3-0.8-9.4-1.4c-4.4-0.9-8.5,0.3-12.3,2.5c-1.2,0.7-1.9,1.5-1.7,3
		c0,0.4,0,0.7,0,1.1c-0.2,9.4-1.5,18.8-3.5,28c-1.9,8.7-3.4,17.6-3.5,26.6c0,2.8-0.3,5.6-0.6,8.4c-0.2,2.5-0.7,5.1-1.3,7.6
		c-0.7,3-2,5.4-4.7,7.2c-0.9,0.6-1.7,1.3-2.7,2c-5.1,3.3-3.8,3.7-9.7,0.3c-4.6-2.6-8.7-6-13-9c-3.4-2.5-6.4-5.3-8.4-9.1
		c-0.7-1.2-1.5-2.2-2.2-3.4c-3.5-5.2-7.8-9.7-13-13.4c-2.6-1.8-5.2-3.7-7.7-5.7c-5-3.9-10.2-7.6-14.2-12.6c-0.7-0.8-1.2-0.7-1.6,0.2
		c-2.6,5.5-6.8,9.8-11.3,13.9c-4.4,3.9-8.6,7.9-12.6,12.1l1.7,0.4c0.4,0.1,0.9,0.2,1.3,0.4l1.3,0.4l2.6,0.9l1.3,0.4
		c0.4,0.1,0.9,0.3,1.3,0.4l2.6,0.9l1.3,0.5c0.4,0.1,0.9,0.4,1.3,0.5c6.8,2.8,13.4,6.2,19.5,10.1l2.3,1.5l2.2,1.6l1.1,0.8l0.6,0.4
		l0.5,0.4l2.2,1.7c0.4,0.3,0.7,0.6,1.1,0.9l1,0.9l2.1,1.7c0.7,0.6,1.4,1.2,2,1.8l1,0.9l0.5,0.4l0.5,0.5c1.3,1.3,2.6,2.5,3.9,3.8
		c0.7,0.7,1.3,1.3,1.9,2l1.8,2c0.3,0.4,0.6,0.7,0.9,1l0.9,1l1.7,2.1c1.2,1.4,2.3,2.8,3.4,4.2c2.9,3.7,5.7,7.5,8.3,11.3
		c0.1,0.1,0.1,0.1,0.1,0.2c0.7,0.9,1.3,1.7,1.9,2.6c0.2,0.3,0.4,0.7,0.6,0.9c0.6,0.9,1.2,1.7,1.7,2.5c2,3,4.1,6,6.2,8.8
		c0.2,0.3,0.5,0.7,0.7,0.9l0.1,0.1c0.6,0.5,1.2,1.1,1.7,1.6c1,0.9,2,1.7,3.2,2.5c0.2,0.1,0.4,0.3,0.7,0.4h41.4
		c-0.5-1.4-0.9-2.7-1.5-4.1c-1.6-4.9-2.8-9.9-3.8-14.9c-0.6-2.6-1.3-5.2-2.1-7.8c-1.5-4.6-2.7-9.1-3.4-13.9
		c-0.8-5.7,0.1-11.2,1.3-16.8c0.4-2,1.7-3.7,2.6-5.8c0.4,2.7,0.6,5.4,1.1,8c0.6,2.5,1.6,4.9,2.2,7.3c1.6,6.5,4,12.6,6.6,18.7
		c1.7,3.8,3.8,7.4,6.3,10.7c4.5,6.2,8.9,12.3,13.5,18.4h173c3-5.3,6.5-10.4,10.5-15.2c8.5-9.9,16.8-20.1,25.1-30.2
		c8.6-10.4,14.4-22.1,17.6-35.1c2-8.3,2.7-16.9,1.4-25.5c-0.6-3.6-1-7.3-1.5-10.9c-0.5-3.6-1.5-7-2.7-10.3c-1.6-4.5-3-9-4.3-13.6
		c-0.4-1.2-0.7-2.4,0.6-3.3c1.1-0.8,2,0,3,0.4c4.1,1.9,7.2,4.9,9.7,8.7c7.3,11.1,11.9,23.2,13.1,36.6c0.4,5.2,0.4,10.5-1,15.7
		c-0.7,2.8-1.1,5.7-1.5,8.6c-1.2,9.4-4.4,18.3-8.7,26.7c-3,5.9-6.4,11.5-9.9,17.1c-3.5,5.4-6.9,10.7-10.4,16
		c-2.3,3.5-3.9,7.3-5,11.4c-0.2,0.9-0.5,1.8-0.7,2.8h5.3c0.2-0.1,0.4-0.3,0.7-0.4c1.1-0.8,2.2-1.6,3.2-2.5c0.6-0.5,1.2-1.1,1.7-1.6
		l0.1-0.1c0.2-0.3,0.5-0.7,0.7-0.9c2.2-2.8,4.2-5.8,6.2-8.8c0.6-0.9,1.2-1.7,1.7-2.5c0.2-0.3,0.4-0.7,0.6-0.9
		c0.6-0.9,1.2-1.7,1.9-2.6c0.1-0.1,0.1-0.1,0.1-0.2c2.7-3.8,5.4-7.6,8.3-11.3C667.1,653.3,668.2,651.9,669.4,650.5z"/>
	<path class="st0" d="M647.6,453.9c-0.5,0.9-0.9,1.7-1.9,2.1c-0.1,0.1-0.1,0.1-0.1,0.1c-0.2,3.3-0.8,6.5-1.6,9.7
		c-1,4.3-2,8.6-2.9,12.8c-0.3,1.1-0.4,2.2-0.2,3.3c0.8,4.9,0.4,9.8,0.2,14.7c-0.1,4.4-0.9,8.8-2.6,12.9c-0.1,0.4-0.5,0.9-0.1,1.4
		c2.2-1,2.2-0.9,3.2-3c1.6-3.3,4-6.2,6.6-8.8c2.3-2.3,4.6-4.7,7-7c3-3.1,5.4-6.7,7-10.7c2.2-5.2,4.3-10.4,6-15.7
		c1.9-6,3.5-12,4.1-18.2c0.9-9.7,2.5-19.5,3.8-29.1c0.4-2.8,0.7-5.5,0.9-8.3c-3.3,4.4-6.5,8.9-10.1,13.1c-1.1,1.3-2.1,2.7-2.9,4.2
		c-3.6,6.2-7.4,12.3-11.3,18.4c-1.7,2.5-3.1,5.2-4.6,7.8C647.7,453.6,647.6,453.8,647.6,453.9z"/>
	<path class="st0" d="M864.7,663.6c-2.1-4.1-4.6-8.1-7.6-11.7c-3-3.6-6.2-6.9-9.9-9.8c-3.6-2.9-7.5-5.4-11.8-7.4l0,0l-6.2-2.8
		c-0.7-0.6-1.3-1.2-2-1.7c-1.5-1.3-3.2-2.5-4.9-3.6c-7.3-4.1-15.5-6.4-23.7-7.7c-4.1-0.7-8.3-1.1-12.4-1.4c-2.8-0.1-5.5,0-8.2-0.4
		c-3-0.4-5.7-1.8-8.8-2c-1.2-0.1-2.3,0-3.5,0.1c-9.5,1-19,2.4-28.2,5.2c-4.6,1.4-9.1,3.1-13.4,5.3c-4.1,2.1-7.8,5.1-12.1,6.7
		c-1,0.4-2,0.9-3.1,1.3c-22,9.4-41.6,27.9-49.3,50.9l0,0c2-0.4,4.4,0.4,6-0.9c0.7-0.5,1-1.3,1.4-2c3.6-7.6,7-15.5,13-21.5
		c7.3-7.3,18.9-10.2,27.6-3.5v-0.1c0.1,0.1,0.1,0.1,0.1,0.1c0.5,0.4,1,0.8,1.5,1.3l0.1,0.1c0.1,0.1,0.3,0.3,0.5,0.4
		c0.6,0.5,1.1,1.1,1.5,1.7c0.1,0.1,0.1,0.2,0.3,0.4c-0.7,0-1.5,0-2.2,0.1c-1.6,0.1-3.1,0.6-4.6,1.1c-3,1.1-5.7,2.8-8.3,4.5
		c-0.7,0.4-1.3,0.9-1.9,1.4l-0.9,0.7l-1.7,1.3l-0.9,0.7c0,0,0.9-0.2,1-0.3c4.6-1.2,9.1-1.2,13.4,0.8c0.4,0.1,0.7,0.4,1,0.5
		c0.4,0.2,0.7,0.4,1,0.6c0.7,0.4,1.2,0.9,1.8,1.4c1.2,1,2.2,2.2,3.1,3.4c1,1.4,1.9,2.9,2.6,4.4l0,0c-0.1,0.4-0.2,0.9-0.4,1.3
		c-0.1,0.3-0.1,0.5-0.2,0.8c0,0.1,0,0.1,0,0.1c-0.1,0.5-0.1,1-0.2,1.5c0,0.1,0,0.2,0,0.4s0.1,0.2,0.1,0.4c0.1,0.2,0.1,0.4,0.1,0.7
		c0-0.1,0-0.1,0-0.1c0,0.1,0,0.1,0,0.1v0.1v-0.1c0.1,0.8,0.4,1.7,0.5,2.5c0.2,1,0.4,2,0.7,3c1.2,2,2.5,4.1,3.3,6.4
		c0.1,0.2,0.1,0.4,0.2,0.7c0,0.1,0,0.1,0.1,0.1c0.1,0.2,0.1,0.4,0.1,0.7c0,0,0,0,0,0.1c0.1,0.2,0.1,0.4,0.1,0.7c0,0.1,0,0.1,0.1,0.2
		c0.1,0.2,0.1,0.4,0.1,0.6c0,0.1,0,0.1,0,0.1c0,0.2,0.1,0.4,0.1,0.7c0,0.1,0,0.1,0,0.2c0,0.1,0,0.3,0.1,0.5c0,0.1,0,0.2,0,0.3
		s0,0.3,0.1,0.5c0,0.1,0,0.2,0,0.4c0,0.1,0,0.2,0,0.3c0,0.2,0,0.4,0,0.7c0,0.1,0,0.1,0,0.1c0,0.1,0,0.3,0,0.5c0,0,0,0,0,0.1
		c0,0.4,0,0.7,0,1c0.1,0.1,0.3,0.3,0.4,0.5c0.7,0.8,1.3,1.6,2,2.4c0.4,0.4,0.7,0.7,1,1c2.8,2.5,5.7,4.7,9.4,5.5
		c5.8,1.3,11.8-0.6,17.8-0.1c1.2,0.1,2.3,0.3,3.4-0.1c2-0.9,3.3-4.1,4.4-6c1.6-2.8,3-5.7,4.1-8.7c2.2-5.7,3.5-11.8,3.9-17.9
		c0.7-9.7-1-19.5-4.9-28.3c-2-4.4-4.4-8.6-7.2-12.6s-6.1-7.5-9.7-10.8c-0.4-0.4-0.9-0.8-1.4-1.2l-2.3-2l-0.1-0.1c0,0-0.1,0,0,0h0.1
		l0.2,0.1l0.4,0.1l0.9,0.2l1.3,0.3l0.4,0.1l0.4,0.1l0.9,0.3c2.3,0.7,4.6,1.7,6.7,2.8c20.1,10.5,28.7,31.6,30,53.1c0,0.1,0,0.3,0,0.4
		c0,0.7,0.1,1.3,0,1.9c0,0.6,0,1.2-0.1,1.8s-0.1,1.2-0.1,1.7c0,0.1,0,0.1,0,0.2c-0.1,0.4-0.1,0.8-0.1,1.2c-0.1,0.3-0.1,0.8-0.2,1.1
		c0,0.3-0.1,0.5-0.1,0.8c-0.5,3.6-1.7,7.1-2.9,10.5c-1.2,3.6-3.3,7.1-1.8,11c3.2,8.1,10.3,10.7,18.2,11.9c1,0.1,2.1,0.3,3.1,0.4
		c1.3,0.1,2.6,0.3,3.9,0.4c1.5,0.1,3,0.3,4.6,0.5c0.3,0,0.6,0.1,0.9,0.1s0.5,0.1,0.8,0.1c0.5,0,1.1,0,1.6,0c0-0.1,0-0.1,0-0.1
		c0.7-3,2.3-5.7,3.7-8.5c6.6-12.8,9.1-28.2,7.1-42.9c-1.9-13.6-9.6-26.2-19.1-35.9c-0.9-0.9-2-2.2-1.7-3.5c3.3,0.9,7,3.7,9.9,5.5
		c3.6,2.2,7.1,4.6,10.4,7.4c6,4.9,11.5,11.3,12.8,19.2c2.3,15.1,6.5,16,4.5,31.2c-0.5,4.1-3,7.7-3.8,11.8
		c-1.2,5.7-1.5,10.9-3.6,16.3c-0.1,0.4-0.4,0.7-0.4,1c-0.1,0.4-0.3,3.2-1,3c2.8,0.9,15.8,3.5,16.5-1.2l0.4-2.6l3.3-18.2
		c3.2-17.9,3.6-35.8-4.5-52.5c-1.7-3.6-4.8-10.4-7-12.5c0.3,0.2,0.6,0.5,0.8,0.8c4.4,4.2,8.6,8.2,11.9,13.4c3.8,6.1,7.2,13,9.7,19.7
		c0.2,0.5,0.4,1.1,0.6,1.7c0.7,2.2,1.3,4.4,1.7,6.7c0.9,4.5,1.4,9,1.4,13.5c-0.1,4.5-0.6,9-1.6,13.4c-0.3,1.3-0.7,2.7-1.1,4
		c0.4-0.1,0.8-0.2,1.2-0.4c1.2-0.4,2.1-1.2,2.9-2.1c0.8-0.9,1.5-1.9,2-2.9c0.6-1,1-2.1,1.4-3.3c0.2-0.6,0.4-1.2,0.5-1.7
		C873.3,694.4,871.8,677.7,864.7,663.6z M717.7,629.5L717.7,629.5C717.8,629.4,717.8,629.4,717.7,629.5
		C717.8,629.5,717.8,629.5,717.7,629.5z"/>
	<path class="st0" d="M294.5,633.7c-1-0.4-2-0.9-3.1-1.3c-4.3-1.7-8-4.6-12.1-6.7c-4.3-2.2-8.9-3.9-13.4-5.3
		c-9.1-2.8-18.7-4.2-28.2-5.2c-1.2-0.1-2.3-0.2-3.5-0.1c-3,0.2-5.8,1.5-8.8,2c-2.7,0.4-5.4,0.3-8.2,0.4c-4.1,0.2-8.3,0.7-12.4,1.4
		c-8.2,1.4-16.3,3.6-23.7,7.7c-1.8,1-3.4,2.2-4.9,3.6c-0.7,0.6-1.3,1.2-2,1.7l-6.2,2.8l0,0c-4.1,2-8.1,4.6-11.8,7.4
		c-3.6,2.9-7,6.2-9.9,9.8c-3,3.6-5.5,7.5-7.6,11.7c-7.1,14.1-8.6,30.8-4.4,46c0.1,0.6,0.3,1.2,0.5,1.7c0.4,1.1,0.8,2.2,1.4,3.3
		c0.6,1,1.2,2,2,2.9s1.7,1.7,2.9,2.1c0.4,0.1,0.8,0.3,1.2,0.4c-0.4-1.3-0.8-2.6-1.1-4c-1-4.4-1.5-8.9-1.6-13.4
		c0.1-4.5,0.5-9.1,1.4-13.5c0.4-2.2,1.1-4.4,1.7-6.7c0.2-0.5,0.4-1.1,0.6-1.7c2.5-6.7,5.9-13.6,9.7-19.7c3.3-5.2,7.5-9.2,11.9-13.4
		c0.3-0.3,0.6-0.5,0.8-0.8c-2.2,2.1-5.3,8.9-7,12.5c-8.1,16.8-7.6,34.6-4.5,52.5l3.3,18.2l0.4,2.6c0.7,4.7,13.8,2.2,16.5,1.2
		c-0.7,0.2-0.9-2.6-1-3s-0.3-0.7-0.4-1c-2.1-5.4-2.5-10.7-3.6-16.3c-0.8-4-3.3-7.7-3.8-11.8c-2-15.2,2.2-16.1,4.5-31.2
		c1.2-7.9,6.8-14.3,12.8-19.2c3.3-2.8,6.8-5.2,10.4-7.4c3-1.8,6.5-4.6,9.9-5.5c0.2,1.3-0.9,2.5-1.7,3.5
		c-9.5,9.7-17.2,22.3-19.1,35.9c-2,14.7,0.5,30,7.1,42.9c1.4,2.8,3,5.4,3.7,8.5c0,0.1,0,0.1,0,0.1c0.5,0,1.1,0,1.6,0
		c0.3,0,0.5-0.1,0.8-0.1s0.6-0.1,0.9-0.1c1.5-0.1,3-0.4,4.6-0.5c1.3-0.1,2.6-0.3,3.9-0.4c1-0.1,2.1-0.3,3.1-0.4
		c7.8-1.2,15-3.8,18.2-11.9c1.5-3.8-0.6-7.3-1.8-11c-1.2-3.4-2.3-6.9-2.9-10.5c-0.1-0.3-0.1-0.5-0.1-0.8c-0.1-0.3-0.1-0.8-0.2-1.1
		c-0.1-0.4-0.1-0.8-0.1-1.2c0-0.1,0-0.1,0-0.2c-0.1-0.6-0.1-1.1-0.1-1.7c-0.1-0.6-0.1-1.2-0.1-1.8c0-0.7,0-1.3,0-1.9
		c0-0.1,0-0.3,0-0.4c1.3-21.5,9.9-42.6,30-53.1c2.2-1.1,4.4-2,6.7-2.8l0.9-0.3l0.4-0.1l0.4-0.1l1.3-0.3l0.9-0.2l0.4-0.1l0.2-0.1h0.1
		l0,0l-0.1,0.1l-2.3,2c-0.4,0.4-0.9,0.8-1.4,1.2c-3.6,3.3-6.8,6.9-9.7,10.8c-2.8,3.9-5.2,8.1-7.2,12.6c-3.8,8.9-5.6,18.7-4.9,28.3
		c0.4,6.1,1.7,12.2,3.9,17.9c1.2,3,2.5,6,4.1,8.7c1.1,1.8,2.3,5.1,4.4,6c1.1,0.4,2.2,0.3,3.4,0.1c6-0.5,12,1.4,17.8,0.1
		c3.7-0.9,6.6-3.1,9.4-5.5c0.4-0.4,0.7-0.7,1-1c0.7-0.8,1.3-1.6,2-2.4c0.1-0.1,0.3-0.4,0.4-0.5c0-0.4,0-0.7,0-1c0,0,0,0,0-0.1
		s0-0.3,0-0.5c0-0.1,0-0.1,0-0.1c0-0.2,0-0.4,0-0.7c0-0.1,0-0.2,0-0.3s0-0.2,0-0.4s0-0.3,0.1-0.5c0-0.1,0-0.2,0-0.3s0-0.3,0.1-0.5
		c0-0.1,0-0.1,0-0.2c0-0.2,0.1-0.4,0.1-0.7c0-0.1,0-0.1,0-0.1c0-0.2,0.1-0.4,0.1-0.6c0-0.1,0-0.1,0.1-0.2c0.1-0.2,0.1-0.4,0.1-0.7
		c0,0,0,0,0-0.1c0.1-0.2,0.1-0.4,0.1-0.7c0-0.1,0-0.1,0.1-0.1c0.1-0.2,0.1-0.4,0.2-0.7c0.8-2.2,2-4.3,3.3-6.4c0.2-1,0.4-2,0.7-3
		c0.1-0.8,0.4-1.7,0.5-2.5v0.1v-0.1c0-0.1,0-0.1,0-0.1c0,0.1,0,0.1,0,0.1c0.1-0.2,0.1-0.4,0.1-0.7c0-0.1,0.1-0.2,0.1-0.4
		c0-0.1,0-0.2,0-0.4c-0.1-0.5-0.1-1-0.2-1.5c0-0.1,0-0.1,0-0.1c-0.1-0.3-0.1-0.5-0.2-0.8c-0.1-0.4-0.2-0.9-0.4-1.3l0,0
		c0.7-1.5,1.6-3,2.6-4.4c0.9-1.2,2-2.4,3.1-3.4c0.6-0.5,1.2-0.9,1.8-1.4c0.3-0.2,0.7-0.4,1-0.6c0.4-0.2,0.7-0.4,1-0.5
		c4.4-2,8.9-2,13.4-0.8c0.1,0,1,0.3,1,0.3l-0.9-0.7l-1.7-1.3l-0.9-0.7c-0.7-0.4-1.3-0.9-1.9-1.4c-2.6-1.8-5.3-3.4-8.3-4.5
		c-1.5-0.5-3-0.9-4.6-1.1c-0.7-0.1-1.5-0.1-2.2-0.1c0.1-0.1,0.1-0.2,0.3-0.4c0.4-0.6,1-1.2,1.5-1.7c0.1-0.1,0.3-0.3,0.5-0.4l0.1-0.1
		c0.4-0.4,0.9-0.9,1.5-1.3c0.1-0.1,0.1-0.1,0.1-0.1v0.1c8.6-6.7,20.2-3.8,27.6,3.5c6,6,9.4,13.9,13,21.5c0.4,0.7,0.7,1.5,1.4,2
		c1.6,1.3,3.9,0.5,6,0.9l0,0C336.1,661.7,316.5,643.1,294.5,633.7z M285.6,629.4c0.1,0,0.1,0.1,0.1,0.1l0,0
		C285.8,629.5,285.7,629.5,285.6,629.4z"/>
</g>
<g>
	<path class="st1" d="M557.3,447.7c0.3-0.4,0.9-0.9,0.4-1.5c-1.1-0.2-2,0.3-2.9,0.5c-3.5,0.8-6.9,1.8-10.4,2.2
		c-3.5,0.5-7,0.4-10.6,0.6c-1.2,0.1-2.1-0.7-2.8-1.6c-1.7-2.2-2.8-4.6-2.7-7.5c0.3-5.6,2.4-10.5,6.7-14.2c3.6-3.1,8.1-3,11.8-0.1
		c2.2,1.7,3.2,3.9,3.3,6.7c0.1,1.7-0.4,3.3-0.5,4.9c1.1,0.8,2.2,0.7,3.3,0.7c1.5,0.1,2.8-0.4,3.5-1.6c1.5-2.4,3.7-3.8,6-5.2
		c3-1.7,4.6-4.6,5.8-7.8c0.3-0.7-0.2-1.2-1-1c-0.6,0.1-1.2,0.2-1.8,0.4c-2,0.6-3.8,0.4-5.8,0.1c-3-0.5-5.6-1.7-7.8-3.7
		c-3.4-3-7.4-4.1-11.8-4.4c-0.9-0.1-1.7-0.1-2.5-0.3c-1.5-0.4-2.1-1.7-2-3.4c0.1-1.2,0.6-2,1.6-2.7c3.9-2.4,6.6-6.1,9.7-9.5
		c0.7-0.8,1.2-1.8,1.7-2.8c1.5-3.3,1-7.8-2.7-10.5c-3.8-2.7-7.9-4.4-12.3-5.6c-6.3-1.7-12.7-2.5-19.2-2.2
		c-5.9,0.2-11.7,0.9-17.3,2.6c-3.8,1.2-6.6,3.6-9.1,6.5c-1.3,1.5-2,3.5-1.3,5.4c0.4,1.3,0.1,2.4-0.2,3.6c-0.6,1.7-0.7,3.3-0.4,5.1
		c1,4.1,3.8,6.5,7.7,7.5c1.5,0.4,3.1,0.4,4.7,0.7c0.3,0.1,0.8,0.2,0.9,0.4c0.1,0.3-0.1,0.7-0.3,0.9c-1.6,1.8-3.8,2.6-6.1,3.1
		c-3.6,0.8-7.2,1.5-10.7,2.2c-3.3,0.7-6.4,1.6-9.4,3.1c-2.1,1.1-3.9,2.5-5.4,4.3c-1.9,2.2-3,4.9-3.5,7.6c-0.4,2.1,1.1,4.2,2.2,6.1
		c0.4,0.7,0.6,1.5,1.5,1.5c0.5,0,1-0.6,1.6-0.7c0.8-0.2,1.7-0.4,2.5-0.4c2.8-0.2,4.8-1.6,5.7-4.4c0.6-1.7,1.3-3.4,2.5-4.9
		c2.2-2.8,4.9-3.8,8.4-3c9.9,0.7,13.9,8.1,13.6,10.5c-0.4,3-0.7,6.1-1.3,9.1c-0.5,2.2-1.6,3.8-3.3,5.2c-4.5,3.6-9.6,4.6-15.2,3.3
		c-1.9-0.4-3.7-0.9-5.5-1.5c-0.4,0.7,0,1.1,0.3,1.5c1.8,2.3,4.1,4.2,6.6,5.8c4.8,3,10.1,4.9,15.3,7c2.5,1,4.9,2,7.3,3.5
		c1.5,1,3.1,2,4.7,2.8c0.5,0.3,0.9,0.1,1.1-0.5c0.1-0.6,0.3-1.2,0.2-1.8c-0.3-1.8-0.1-3.6,0.1-5.5c0.1-1.5,0.4-2.9,0.3-4.4
		c-0.1-3.8,0.5-7.5,1.3-11.2c0.1-0.6,0.3-1.2,0.5-1.7c0.4-1,1.6-1.3,2.4-0.7c0.8,0.7,1.2,1.5,1.5,2.5c1.2,2.8,2,5.8,2.7,8.8
		c1.3,5.3,3.6,10.2,6.2,14.8c0.1,0.2,0.2,0.4,0.4,0.6c0.3,0.3,0.6,0.4,0.9,0.3c0.7-0.3,1.3-0.6,2-0.9c5.6-2.9,10.4-6.8,15-11
		C550,457.7,554,453,557.3,447.7z"/>
	<path class="st1" d="M623.4,485.6c-0.1-0.5-0.8-0.7-1.1-0.4c-0.5,0.5-0.9,1.1-1.5,1.7c-2.2,2.8-4.4,5.5-6.7,8.3
		c-3.3,3.8-6.7,7.5-11,10.2c-1.6,1-2.5,2.2-2.8,4.1c-0.1,0.9-0.3,2-0.4,2.9c-0.4,4-1,8-1.9,12c-0.4,1.8-0.8,3.6-2.2,4.9
		c-0.3,0.4-0.7,0.8-0.7,1.2c-0.3,2.4-0.5,4.9-0.7,7.3c0,0.1,0.2,0.4,0.4,0.7c1.2-0.4,1.9-1.5,2.8-2.2c5.7-5.3,10.2-11.5,15-17.6
		c3.1-4,5.5-8.3,7.3-13.1c0.4-1.2,0.8-2.6,1.5-3.8c1.5-2.9,1.9-6,2.1-9.2c0.1-1.8,0.1-3.7,0.1-5.5
		C623.5,486.6,623.5,486.1,623.4,485.6z"/>
	<path class="st1" d="M503.1,485.5c-0.4-0.3-0.8-0.6-1.3-0.7c-2.6-0.9-4.3-2.6-5.7-4.9c-2-3.3-5-5.7-8.8-6.8
		c-0.4-0.1-0.9-0.4-1.4-0.5c-6.1-2.5-11.3-6-15.5-10.7c-1,0.1-2.1-0.1-3.2-0.7c-1.3-0.7-2.6-1.4-4-1.8c-4.1-1.5-7.8-0.5-10.4,2.5
		c-1.7,1.9-2.2,4-1.4,6.5c1,3.1,2.8,5.4,6.1,6.2c1.8,0.4,3.6,0.7,5.4,1.2c3.1,0.7,6.1,1.5,8.9,3.4c-0.6,1.6-0.9,3.2-1.8,4.5
		c-1.9,2.8-2.5,5.9-2.9,9c-0.4,2.3-1.2,4.1-3,5.6c-0.7,0.6-1.4,1.4-2,2.2c-0.4,0.6-0.6,1.2-0.7,1.9c2.8,0.4,5.7,0.6,8.6,0.6
		c7.2,0.1,14.2-0.9,21-2.8c5.4-1.5,9.3-4.8,12-9.6c0.4-0.7,0.7-1.5,1-2.4C504.4,486.9,504,486.1,503.1,485.5z"/>
	<path class="st1" d="M594.3,498.7c-0.9,0-1.7,0-2.5-0.1c-0.6-0.1-1.2-0.1-1.7-0.3c-3-0.7-6-1.3-8.9-2.1c-4.2-1.2-8-2.9-11-6.2
		c-0.9-0.9-1.8-1.6-3-1.9c-2-0.4-3.1-1.7-3.9-3.6c-1-2.2-1.5-4.6-2-7c-0.1-0.7,0.4-1,1-1.3c3.8-1.9,7.1-4.6,10.6-7
		c1.6-1.1,2.8-2.7,4.1-4.1c1.7-2,2.5-4.4,3-7c0.5-2.8-0.4-5.1-2.7-6.7c-0.8-0.6-1.6-1.1-2.5-1.6c-0.6,0-1.1-0.2-1.5-0.6
		c-0.1,0-0.1,0-0.1,0c-0.1,0-0.1,0-0.2-0.1c-0.1,0-0.1-0.1-0.2-0.1c-2-0.4-3.8,0.1-5.8,0.1c-0.1,0.1-0.1,0.1-0.2,0.1s-0.1,0-0.1,0
		c-0.1,0-0.1,0-0.1-0.1c-0.1,0-0.1,0.1-0.1,0.1c-0.6,1.5-1.3,2.8-1.9,4.3c-2.1,5.2-5.7,9.1-9.9,12.5c-4.1,3.3-8.2,6.5-12.3,9.9
		c-1.9,1.5-3.8,3-6,4.3c-1,0.7-2.3,1.1-3.1,2c-1.1,1.2,0.2,2.5,0.1,3.8c-0.1,1.3-0.1,2.7,0.7,3.9c1.3,2.2,2.1,4.7,3,7
		c0.7,1.7,1.6,3.3,2.4,4.9c0.4,0.8,1.1,1.3,2,1.5c2.3,0.4,4.6,0.7,6.9,1.1c5.8,0.9,11.6,2,17.5,1.6c3.8-0.2,7.5-0.7,11.3-1.2
		c6.2-0.7,11.8-3.2,17.3-5.9c0.1-0.1,0.4-0.2,0.7-0.4C594.7,498.6,594.5,498.7,594.3,498.7z"/>
	<path class="st1" d="M443.2,532.4c-5.1-5.7-8.1-12.4-9.1-20c-0.2-1.7-1-2.5-2.4-3.3c-3-1.6-6-3.2-8.9-5c-2.4-1.5-4.9-3.1-6.5-5.7
		c-0.7,0.7-0.5,1.6-0.3,2.4c0.4,1.7,0.9,3.3,1.2,5c1.7,8.1,6,14.9,11,21.3c2.1,2.7,4.5,5.2,6.7,7.8c2.5,2.8,5.2,5.4,8.1,7.9
		c0.4,0.4,0.8,0.9,1.7,0.5c-0.1-2.5-0.2-5-0.2-7.5C444.4,534.4,444.1,533.4,443.2,532.4z"/>
	<path class="st1" d="M416.2,498.4l-0.1,0.1L416.2,498.4C416.3,498.4,416.3,498.4,416.2,498.4z"/>
</g>
<g>
	<path class="st2" d="M342.9,494.3c0.3-2.8-0.5-5.6-0.9-8.3c-0.8-4.6-1.6-9.4-2.6-13.9c-1.3-5.8-2.8-11.6-4.6-17.3
		c-0.7-2.4-1.8-4.6-4.1-6c-0.1,0.8-0.2,1.5-0.4,2.3c-0.7,4.4-0.9,8.8-1,13.1c-0.1,2.7-0.1,5.4-0.1,8.1c0,5.4-0.8,10.7-2,16
		c-1.9,8.1-3.6,16.3-4.6,24.5c-0.9,7.1-3.6,13.4-7.7,19.2c-0.8,1.1-1.5,2.2-2.4,3.3c-3.6,4.6-6.3,9.8-8.4,15.2
		c1.4,3.6,3.4,6.8,6.6,9.4c3.1,2.5,6.4,3.4,10.2,1.8c0.9-0.4,1.8-0.7,2.8-0.8c3.4-0.3,5.6-2.1,6.9-5.2c1-2.4,1.7-4.9,2.1-7.4
		c0.5-2.8,1.7-5.4,3.6-7.4c2.5-2.4,3.9-5.4,4.9-8.5c1.6-4.9,2.4-9.9,2.4-15.1C343.5,509.7,344.3,502,342.9,494.3z"/>
	<path class="st2" d="M543.1,155.1c2,2,4.6,2.2,6.9,0.4c0.3-0.2,0.5-0.6,0.7-0.8c1.7-1.9,3.6-3.7,5.3-5.6c1.7-1.8,3.6-1.9,5.7-1.2
		c1,0.4,2.1,0.7,3,1.2c2.2,1.1,4.3,0.6,6.1-0.9c3.8-3.1,8.1-5.4,12.9-6.6c3.6-0.9,4.8-4.9,2.6-7.8c-2.8-3.8-5.7-7.3-9-10.6
		c-2.3-2.3-4.4-4.9-6.3-7.5c-2.6-3.6-5.2-7.1-8.4-10.1c-1.3-1.2-2.6-2.5-3.6-4.1c-1.7-2.6-3.7-5.2-5.6-7.7c-0.4-0.7-0.9-1.1-1.7-1.2
		c-3.3-0.5-6.7-1.2-10.1-1.5c-3.8-0.3-7.4-1.2-11.2-1.9c-4.4-0.7-8.9-1.2-13.4-1.9c-2.6-0.4-5.4-0.6-8-0.9c-2.5-0.4-5.1-0.5-7.6-0.5
		c-2.7-0.1-5.4,0.2-8-0.7c-0.7-0.2-1.5-0.1-2.2-0.1c-7.5,0-15,0-22.4,0c-0.7,0-1.5-0.1-2.2,0.1c-4,1.2-8.3,0.2-12.3,1.3
		c-1.7,0.4-3.4,0.7-5.4,1.1c1.3,1.2,2.4,2.2,3.7,3.3c-2.2,3.3-3.6,6.6-4.4,10.2c-0.2,0.9-0.9,1.7-1.5,2.5c-1.8,2-3,4.4-3.8,7
		c-0.7,2.1-1.5,4.1-2.3,6.2c-1.9,4.5-3.8,9-5.7,13.5c-1.5,3.6-2.6,7.4-4.6,10.7c-1.7,2.8-2.8,5.7-3.7,8.7c-0.7,2-0.4,2.6,1.2,3.6
		c1.5,1,3,0.9,4.4-0.1c1.4-0.9,2.5-0.5,3.4,0.9c1.2,1.8,2,3.9,2,6.2c0,1.6,0,3.2,0,4.8c0.1,5.3,3.8,10.5,8.9,11.7
		c2.9,0.7,5.6,1.7,8.1,3.2c4.5,2.5,7.8,6.2,9.6,11.1c0.9,2.5,1.7,5.1,2,7.8c0.1,1,0.4,1.9,1,2.7c1,1.5,2.5,1.8,4.1,1.1
		c1.4-0.6,2.5-1.5,3.6-2.5c1.2-1.2,2.2-2.6,3.2-4c3.1-4.1,4.9-8.8,4.9-13.9c0-5.4,0.1-10.7-0.6-16.1c-0.9-7.3,0.3-14.6,0.7-21.9
		c0.9-2.1,0.4-4.4,0.9-6.5c0.6-2.8,1.4-5.4,1.9-8.2c1.5-8.2,6.8-13.6,13.4-18c0.9-0.7,1.7-0.4,2,0.6c0.7,2.4,2.3,3.3,4.5,3.8
		c0.9,0.2,1.9,0.5,2.8,0.7c6.6,1.5,11.8,5.2,15.7,10.5c0.4,0.6,0.9,1.1,1.5,1.7c2.7,3.5,5.4,6.9,7.9,10.5c2.3,3.6,4.3,7.4,6.4,11.1
		C540.9,152.2,541.8,153.8,543.1,155.1z"/>
	<path class="st2" d="M806.6,102.4c-0.3-0.4-0.7-0.7-1.1-0.9c-1.2-0.7-2-1.7-3-2.6c-4-3.5-6.8-7.9-10.2-12c-2.2-2.6-4.1-5.4-6.6-7.8
		c-2-1.9-3.8-3.8-5.7-5.7c-3.8-3.8-3.8-3.8-8.9-5.3c-1.7-0.5-3.6-0.9-5.3-1.2c-2.3-0.3-4.6,0.1-6.5,1.7c-2.8,2.2-3.6,5-2.7,8.5
		c1,4,2.2,8,1.8,12.8c0,1.1,0.4,2.9-0.1,4.5c-0.7,2.5-0.5,5.1-0.6,7.6c-0.1,1.6,0,3.2-0.2,4.7c-0.4,2.9-1.1,5.7-2,8.5
		c-0.4,1.3-0.8,2.5-1.2,3.8c-0.8,3-0.1,5.6,2.1,7.7c2.2,2.1,4.6,2,7.5,0.9c4.6-1.7,9.2-3.2,13.8-4.8c1.3-0.4,2.6-0.4,3.9,0.3
		c0.5,0.3,1.1,0.5,1.7,0.7c1.5,0.7,1.8,1.2,1.5,2.8c-0.3,1.5-0.8,2.8-1.1,4.2c-0.2,1.2,0.4,2.2,1.7,2.9c0.9,0.5,1.9,0.5,2.7-0.2
		c1.2-1.2,2.6-2.3,3.6-3.6c4-5.4,8-10.7,11.7-16.3c1.2-1.7,2-3.6,3.3-5.2C808.8,105.9,808.7,105,806.6,102.4z"/>
	<path class="st2" d="M320.2,74.5c0.9-0.9,0.4-2.2-0.9-2.4c-0.9-0.1-1.9-0.1-2.9,0.3c-3.5,1.2-6.7,2.8-9.8,4.9
		c-2.3,1.5-4.6,3-7.3,4.1c-3.9,1.7-7.2,4.5-10.9,6.7c-4.6,2.6-9.1,5.2-14.3,6.4c-5.3,1.3-10.7,2.3-16,3.2c-2.8,0.4-5.7,1.2-8.7,0.9
		c-4.4-0.3-8.7-0.1-13.1-0.6c-5-0.7-10.2-0.4-15.3,0.7c-3.8,0.9-7.5,2-11,3.9c-2,1.1-3.8,2.2-5.3,3.8c-3.8,4.5-7.1,9.3-8.2,15.3
		c-0.3,1.6-0.6,3.1-0.1,4.6c0.2,0.7,0.3,1.5,0.4,2.2c0.5,3,1.8,5.4,4.1,7.5c2.1,2,4.4,2.5,7.1,1.9c3-0.7,5.5-2,6.5-5.2
		c0.2-0.6,0.6-1.1,0.8-1.7c2.1-4.3,5.4-7.5,9.1-10.4c5.4-4.2,11.8-6.8,18.5-8.3c3.8-0.9,7.6-1.5,11.5-2.1c5.9-1.1,11.7-2.3,17.3-4.3
		c3-1,6-2,8.9-3.4c1.5-0.7,2-0.4,3.1,0.8c1.1,1.3,2.2,2.8,2.5,4.5c0.7,3.5,2.2,6.4,4.5,9.7c1-1.7,2-2.9,2.7-4.3
		c1.9-3.7,3.9-7.3,6.2-10.8c5-8.1,10.2-16,16.7-23.1C317.5,77.7,318.7,75.9,320.2,74.5z"/>
	<path class="st2" d="M486.1,250.8c0.3-3.1-1-6-0.9-9.1c0-0.6-0.3-1.2-0.4-1.7c-0.8-4.6-1.7-9.1-1.8-13.7c0-3.9,0.6-7.8,1.3-11.5
		c0.1-0.8,0.2-1.7,0.2-2.5c-0.1-2.2-1.2-3.2-3.3-2.8c-1.6,0.4-2.9,0.9-3.5,2.8c-0.7,2.2-2,4.2-3.7,5.7c-0.8,0.7-1.5,1.6-2.1,2.5
		c-4,6.1-6.2,12.7-5.7,21.3c0.4,2-0.4,5.3-0.8,8.6c-0.1,1.2-0.3,2.4-0.6,3.6c-0.9,4.2-2.1,8.3-3.8,12.2c-2,4.7-4.1,9.4-7.3,13.4
		c-1.5,1.8-2.7,3.9-2.9,6.2c-0.4,4.3-0.1,8.6,1.6,12.6c1.5,3.5,2.5,7.1,2.8,10.9c0.1,1.4,0.9,2.2,2.1,2.8c1.2,0.5,2.7,0.1,3.6-1
		c0.5-0.7,0.9-1.5,1.8-1.7c3-0.8,4.9-3.1,6.6-5.5c1.8-2.5,3.3-5.1,4.6-7.8c0.8-1.7,1.8-3.1,3-4.6c1.5-1.7,3.2-3.5,3.2-6
		c-0.1-2,0.8-3.6,1.7-5.1c2.2-3.5,3.8-7.1,3.5-11.3c-0.1-0.6,0-1.2,0.2-1.8c0.6-1.5,0.5-2.9,0.5-4.4c0-2-0.1-3.8,0.6-5.8
		c0.4-1.2,0.3-2.7-0.1-4C486.4,252.2,486.1,251.4,486.1,250.8z"/>
	<path class="st2" d="M423.5,90.3c-0.5-0.3-1.1-0.5-1.7-0.7c-0.9-0.3-1.1-0.9-1.1-1.7c0-0.4-0.1-0.8,0.1-1.1
		c0.9-1.8,0.3-3.9,1.2-5.7c0.3-0.6,0.1-1.2-0.2-1.7c-0.4-1.2-1.3-2-2.2-2.9c-3.4-3.3-6.7-6.8-10.2-10.1c-1.9-1.7-3-3.7-3.5-6.2
		c-0.8-3.6-1.9-7-2.9-10.6c-0.5-1.7-1.2-3.3-2.4-4.5c-3.3-3.2-7.4-5.1-12-5.4c-1.2,0-2.5,0.1-3.6,0.6c-2.7,1.1-5.6,1.9-8.2,3.1
		c-5.3,2.5-10.5,5.2-15.7,7.8c-1.7,0.9-3.4,2-4.8,3.3c-0.9,0.9-1.2,1.9-0.7,3c0.4,1,1.3,1.8,2.5,1.9c1.1,0.1,2.2,0.1,3.3-0.4
		c3-1.2,6.2-2.2,9.2-3.6c4.1-1.7,8.3-3.6,12.4-5.4c3.2-1.3,4-1.2,6.9,0.5c0.9,0.6,1.7,1.3,2.2,2.3c0.8,1.7,1.6,3.3,2.2,5
		c1,2.6,2.2,5.2,4.4,7.1c0.9,0.9,1.7,2.1,2.4,3.2c0.4,0.6,0.4,1.3-0.2,1.6c-2.1,1-2.9,3.3-4.6,4.6c-1.7,1.5-2.4,3.3-2.8,5.4
		c-0.4,1.7-0.9,3.3-0.7,5c0.1,0.7-0.1,1.5-0.3,2.2c-0.4,2-0.7,4.1-1.2,6.1c-0.9,3.8-1.6,7.6-2.8,11.3c-1.3,3.8-2.2,7.7-3.4,11.5
		c-0.3,0.9-0.4,2-0.3,2.9c0.2,2.2,2.6,3.6,4.9,3c1.8-0.4,3-1.7,4.1-3c2.2-2.8,4.2-5.7,6.2-8.6c0.6-0.8,1-1.7,1-2.7
		c0.1-1.1,0.7-1.7,1.7-2.2c0.7-0.3,1.3-0.7,2-0.9c4.1-1.6,8.2-3.2,12.3-4.6c2.3-0.8,4.5-1.9,6.6-3.1
		C426.6,95.2,426.3,91.7,423.5,90.3z"/>
	<path class="st2" d="M575.4,312.5c-1.7-3-2.2-6.5-2.8-9.8c-0.7-4.2-1.2-8.4-2.3-12.6c-1-3.9-3-7.2-6.3-9.6c-0.7-0.5-1.4-1-1.7-1.8
		c-1.6-3.3-4.3-5.6-7.1-7.8c-3.6-2.8-6.2-6.2-7.6-10.5c-0.7-2-1.2-4-1.5-6c-0.4-2.5-2.2-4.1-4.4-4.1s-3.8,1.6-4.4,4.2
		c0,0.1,0,0.2,0,0.4c-0.9,3.2-0.7,6.5-0.7,9.8c0,1.8,0.1,3.7-0.2,5.4c-0.4,1.6-0.5,3.1-0.4,4.7c0,0.9-0.1,2,0,2.9
		c0.1,1.1,0.5,2.1,0.6,3.2c0.1,3.4-0.1,6.8,0.7,10.2c0.5,2.2,0.6,4.6,0.9,6.8c0.4,1.9,0.7,3.8,1.4,5.7c1.7,4.4,4.2,8.2,8.9,10.2
		c1.8,0.7,3.5,1.7,5.4,2.2c5.8,1.7,11.7,3.4,17.1,6.3c0.6,0.4,1.4,0.4,2.1,0.4c3.4,0.1,5.4-2.6,4.2-5.9
		C576.9,315.6,576.3,314,575.4,312.5z"/>
	<path class="st2" d="M367,337.9c-0.8-0.8-1.3-1.7-1.3-2.9c-0.1-2.6-0.9-4.9-2-7.3c-2.8-6.4-6.7-12.1-10.4-18.1
		c-3.2-5.2-6-10.6-8.1-16.3c-0.7-2-1.5-3.8-2.1-5.8c-0.8-2.5-1.4-4.9-2.1-7.4c-1.1-3.6-1.9-7.3-1.7-11.1c0.1-1.7,0-3.4,0-5.2
		c0-0.4,0.1-1-0.6-1.2s-0.7,0.4-0.9,0.9c-0.4,1.7-0.8,3.6-1.2,5.3c-0.6,2.8-1.9,5.4-2.2,8.4c-0.3,3.8-1.4,7.7-1,12.3
		c0,1.1-0.2,2.8,0.1,4.5c0.6,4.4,1.4,8.6,2.1,12.9c1.1,6.7,2.6,13.4,5.1,19.7c1.3,3.3,2.8,6.5,4.7,9.5c1.5,2.3,3.3,4.2,5.6,5.7
		c1.7,1,3.3,2,4.8,3.3c1.6,1.4,3.5,2.2,5.4,3.1c1.8,0.9,3.9,0.9,5.7,0.1c3.3-1.4,4.3-5.3,2.2-8.3C368.4,339.3,367.7,338.7,367,337.9
		z"/>
	<path class="st2" d="M317.9,182.4c0.1,3.2,3.8,6.5,6.5,6.3c2.9-0.1,5.5-0.9,7.7-2.8c4.7-4.1,8-9.2,10.4-14.9
		c1.7-4.1,2.8-8.3,2.6-12.8c-0.2-5.1,0.3-10.2-0.6-15.3c-0.5-2.8-0.3-5.8-0.9-8.7c-0.5-2.4-0.6-4.8-0.9-7.2
		c-0.4-3.3-1.3-6.4-2.2-9.6c-0.5-1.9-1.2-3.7-2.2-5.4c-0.9-1.4-2.5-1.5-3.8-0.4c-1.2,1-1.5,2.3-0.9,3.6c0.7,1.9,0.5,3.8,0.6,5.8
		c0,2.2,0,4.4,0,6.6l0,0c0,2.8-0.1,5.6,0,8.4c0.1,1.6-0.3,3.1-0.7,4.6c-2,6.4-5,12.5-8.1,18.4c-1.4,2.7-2.8,5.4-4.4,8.1
		C318.3,171.9,317.6,177,317.9,182.4z"/>
	<path class="st2" d="M414.2,418.6c-0.7-4.5-2-8.8-3.9-12.8c-0.1-0.1-0.1-0.2-0.1-0.3c-1.4-2.5-2-5.2-1.9-8.1
		c0.1-1.6,0.4-3.2-0.2-4.7c-0.8-2.2-1.8-4.2-2.9-6.7c-0.8,1.2-0.1,2.5-1,3c-1.6,0.9-1.8,2.5-2.3,4c-1.2,3.5-2.4,6.9-4.1,10.2
		c-1.2,2.2-1.8,2.8-4.1,2.1c-2.5-0.7-4.8-0.4-7.2,0.1c-3,0.6-4.4,2.7-3.6,5.6c0.8,3.1,2.5,5.9,4.5,8.3c2.5,3.1,5.4,5.9,7.4,9.4
		c0.7,1.2,1.9,2.2,3.1,3c2.5,1.4,4.6,3.2,5.7,6c0.1,0.4,0.4,0.6,0.7,0.9c2,2.7,3,5.7,3.3,9.1c0.2,3.6,2.4,6.3,4.3,9.1
		c0.1,0.1,0.2,0.1,0.3,0.1c0.3,0,0.4-0.1,0.4-0.4c0-1.5,0.1-2.9,0-4.4c-0.1-5.2,0.6-10.2,1.2-15.2c0.5-3.5,1.2-7,1-10.5
		C414.7,423.6,414.7,421.1,414.2,418.6z"/>
	<path class="st2" d="M742.1,247.3c-5.4-2.7-10.8-5.6-16.3-8.4c-0.5-0.3-1-0.7-1.6-0.9c-3.1-1.8-5.4-4.5-7.8-7
		c-4.2-4.3-7.5-9.2-10.9-14.2c-0.8-1.2-0.9-2.8-2.4-3.4c-1.2,1.7,0.4,2.9,0.7,4.4c0.1,0.6,0.3,1.2,0.6,1.7c1.5,3,2.3,6.2,3.1,9.4
		c0.7,2.8,1.5,5.4,2.6,8c0.4,0.8,0.5,1.6,0.7,2.5c0.9,6,2.3,11.9,5.2,17.3c3.2,6,7.9,10.1,14.4,12.3c1.4,0.5,2.8,0.8,3.4,0.7
		c7-0.1,11.6-2.9,14.7-8.1c1.8-3,1.7-6.9-0.4-9.3C746.3,250.2,744.5,248.4,742.1,247.3z"/>
	<path class="st2" d="M662.1,308c-2.1-1.8-4.6-1.2-5.5,1.4c-0.2,0.6-0.3,1.2-0.3,1.8c0.1,2.2-0.7,4.3-1.3,6.4
		c-0.4,1.3-0.7,2.6-1,3.8c-1.7,5.1-3.3,10.2-5.2,15.2c-1.6,4.2-3.7,8.2-5.4,12.4c-1.4,3.6-2.9,7-5.2,10c-1.8,2.4-1.8,4.9-1.6,7.6
		c0.1,1.3,1,2,2.2,1.7c3.8-0.7,5.9-1.7,8.1-5c2.1-3,4.9-5.4,7.1-8.3c2-2.5,3.8-5,5.4-7.8c4.4-7.7,5.6-16.3,6.2-24.9
		c0.5-3-0.7-5.8-0.9-8.7C664.8,311.6,664,309.5,662.1,308z"/>
	<path class="st2" d="M627.7,342.4c0-0.9,0.1-2-0.1-2.9c-0.7-2.2-0.6-4.6-0.6-6.9c0-2.5,0-5.2,0-7.7c0-1.1,0.1-2.2-0.4-3.3
		c-0.4-1-0.4-2.2-0.4-3.3c0.2-2-0.6-3.8-0.9-5.7c-0.3-1.3-1.2-2.4-2.2-3.3s-2.2-1.2-3.4-0.8c-3.1,1.1-5.7,2.8-6.5,6.3
		c-0.7,3-1.9,5.8-2.6,8.7c-0.5,1.9-0.9,3.8-1.2,5.7c-0.5,4,1.3,7.4,3.3,10.6c1.4,2.2,3.2,4.4,4.8,6.5c1.7,2.2,3,4.7,3.6,7.5
		c0.6,2.5,1.7,4.9,2,7.4c0.4,2.6,0.1,5.4,0.1,8.5c1.6-1.2,1.4-2.4,1.7-3.4c1-2.5,1.6-5.1,2.5-7.6c1.5-4.2,1.5-8.6,0.6-13
		C627.8,344.5,627.8,343.5,627.7,342.4z"/>
	<path class="st2" d="M408.7,301.9c-3.5,0.7-7.7,4.2-7.9,7.7c-0.1,2.2-0.7,4.6-1.3,6.7c-0.9,3.4-1.6,6.9-1.6,10.5c0,2.1,0,4.1,0,6.2
		l0,0c0,2.5,0,4.9,0,7.3c0,0.7-0.1,1.5,0.1,2.2c1.1,4.9,2.8,9.6,4.5,14.3c0.1,0.1,0.4,0.3,0.6,0.3s0.5-0.2,0.5-0.4
		c0.3-2.3,1.1-4.5,0.9-6.9c-0.1-0.9,0-2,0.2-2.9c0.9-3.8,2-7.5,3.9-11c0.9-1.6,1.7-3.3,2.1-5.1c1.6-6.2,3.4-12.4,4.6-18.8
		c0.4-2.2,0.3-4.4-0.6-6.5C413.9,303.2,411,301.4,408.7,301.9z"/>
	<path class="st2" d="M246.6,208.1c-1.7-2-3.6-4-6-5.4c-2-1.2-3.8-2.5-5.8-3.8c-1.8-1.2-3.7-2.2-5.8-3c-2.2-0.8-4.3-1.7-6-3.3
		c-0.7-0.6-1.4-0.9-2.1-1.5c-0.5-0.3-0.9-1-1.5-0.5c-0.7,0.6,0,1.1,0.4,1.5c1.5,2,3,3.8,4.4,5.7c1.3,1.7,2.5,3.6,4.1,5.1
		c0.9,0.7,1.5,1.6,1.7,2.8c0.3,1.3,0.9,2.5,1.2,3.8c0.9,4.2,2.3,8.2,3.6,12.2c0.6,1.7,1.3,3.4,2.3,4.9c1.4,2.1,2.8,4.4,5.7,4.6
		c0.8,0.1,1.2,0.7,1.6,1.4c1,2,1.9,4,2.2,6.2c0.1,0.5,0.3,0.9,0.9,0.9c0.5-0.1,0.9-0.5,0.9-0.9c0.1-0.9,0.3-2,0.2-2.9
		c-0.4-3.7,0.7-7.3,0.9-10.9c0.1-1.8,0.7-3.6,0.6-5.3C250.6,215.3,249.3,211.4,246.6,208.1z"/>
	<path class="st2" d="M593.8,54.4c2.8,0.1,5.3-0.5,7.6-2c2.2-1.5,4.4-3,6.7-4.4c0.8-0.5,1.7-1.2,2.5-1.4c2.2-0.3,4.2-1.1,6.5-1
		s4.6,0.1,7,0c4.6-0.2,8.9,0.6,13.2,2.1c1.7,0.7,3.5,1.2,5.2,1.7c0.6,0.1,1.3,0.7,1.6,0c0.4-0.8-0.4-1.2-1.1-1.6
		c-1.4-0.8-2.7-1.7-4.1-2.4c-3-1.6-6.2-3-9.1-4.7c-2-1.2-4.1-2.2-6.2-3c-2.5-0.8-4.9-1.7-7.3-2.1c-2.2-0.4-4.5-1.2-6.9-1
		c-1.7-0.3-3.6,0.5-5.3,0.6c-3.3,0.1-6.2,1.5-8.9,3.2c-2.8,1.9-5.2,4.3-6.7,7.5C586.9,49.8,589.5,54.2,593.8,54.4z"/>
	<path class="st2" d="M656,199.7c3.2,0,4.7-1,5.4-3.6c0.3-1.1,0.4-2.2-0.1-3.3c-0.9-2-1.7-4.1-3.1-5.7c-4.4-5.2-10.1-8.8-16.1-11.8
		c-4.6-2.3-9.6-3.3-14.7-4.2c-0.6-0.1-1.2-0.1-1.7,0.4c-0.5,0.4-0.9,0.9-0.5,1.5c1.5,2.4,3,4.7,5.8,5.9c2,0.8,3.5,2.2,5,3.6
		c4.9,4.9,9.9,9.9,14.7,14.8C652.2,198.9,653.9,200,656,199.7z"/>
	<path class="st2" d="M606.3,264.7c-2.6-2-5.5-3.6-8.9-4.1c-0.9-0.1-1.7-0.6-2.5-0.7c-2.4-0.1-4.4-1-6.2-2.5c-1.7-1.5-3-1.4-4.6-0.2
		c-0.4,0.3-0.7,0.7-1,1.1c-0.9,1.5-1,2.9-0.1,4.5c2.4,4.6,5.2,8.8,8.2,12.9c2.1,2.9,5.2,4.4,9,4.1c2.3,0.4,4.5-0.2,6.5-1.5
		c2.2-1.4,3.3-3.3,3.6-6C610.4,268.8,608.7,266.5,606.3,264.7z"/>
	<path class="st2" d="M668,214.8c-0.6-0.3-1.2,0.1-1.3,0.7c-0.1,1.2-0.1,2.5-0.1,3.6c0,0.9,0.2,2-0.1,2.9c-0.8,2.2-0.6,4.6-0.7,6.2
		c0,1.8,0,3,0,4.3c0,0.2,0,0.5,0,0.7c0.2,2.2,1.6,4.1,3.2,4.4c2.8,0.7,5-0.4,6.4-3c0.4-0.9,0.7-1.8,0.7-2.8c0.1-4.3-1.2-8.1-3-11.9
		C672.1,217.7,670.2,216.1,668,214.8z"/>
</g>
<g>
	<path class="st3" d="M579.4,543.6c1.7-6.4,0.4-12.6-0.1-18.9c-0.1-1.7-1.2-2.4-2.8-2.1c-3.6,0.5-7.3,1.2-10.3,3.5
		c-3,2.2-6.4,3.6-9.9,4.8c-2.5,0.9-5.1,1.7-7.6,2.8c-2.8,1.1-5.3,2.5-7.5,4.6c-2.5,2.3-5,4.7-7.4,7.2c-1.6,1.7-3.3,3.4-4,5.7
		c-1.7,5.1-2.8,10.4-3.2,15.7c-0.2,2.5-0.1,5.2-0.1,7.7c0.2,6.4-0.1,12.7-0.5,19.1c-0.1,2.6-0.9,5-1.6,7.5c-0.1,0.4-0.4,0.9-0.7,1.3
		c-1,1.5-2.8,1.7-4.1,0.7c-1.5-1.2-2.2-2.9-2.5-4.8c-0.2-1.3-0.1-2.7-0.2-4.1c-0.1-6.2-0.9-12.4-2.1-18.6c-1-5.2-1.6-10.4-1.7-15.7
		c0-1.7-0.3-3.1-0.9-4.6c-1.9-4.1-4.2-8.1-6.8-11.8c-1.2-1.7-2.8-3-4.6-4.2c-2.1-1.3-4.4-2.1-6.7-2.8c-4.1-1.3-8.2-2.2-12.6-1.2
		c-2.7,0.7-5.5,0.1-7.7-1.6c-3.5-2.5-6.7-5.3-10-8c-0.2-0.1-0.4-0.4-0.5-0.6c-1.7-2.3-4.1-3.8-6.2-6.3c-0.9,2.2-1,3.8-1,5.6
		c-0.1,3.8,0.6,7.5,1.2,11.3c0.7,4.5,2,8.8,4.5,12.7c2,3.3,3.2,6.9,3.8,10.7c0.4,2.8,0.7,5.6,0.9,8.4c0.3,6.2,0.6,12.5,0.7,18.7
		c0.3,9.1,2.2,17.7,5.7,26.1c0.6,1.5,1.4,2.8,2.3,4.1c1.6,2,3.3,4,5.2,5.7c4.8,4.1,9.7,7.8,15.7,10c1.6,0.6,3.2,1.3,4.7,2
		c5.4,2.6,11.1,3.8,16.9,4.5c2.8,0.4,5.6,0.3,8.4,0.1c6.5-0.5,12.8-1.8,19.2-2.7c1.8-0.2,3.6-0.6,5.2-1.6c3.3-2.2,6.5-4.4,8.9-7.7
		c3.8-5.2,7.8-10.4,10.8-16.1c2.8-5.4,4.6-11.1,5.4-17.1c0.9-6.5,0.9-13.1,0.4-19.8c-0.6-6.9-0.2-13.7,1.3-20.5
		C578.2,550.1,578.6,546.8,579.4,543.6z"/>
</g>
<g>
	<path class="st4" d="M362,522.2c-2-3.7-3.8-7.4-5.7-11.1c-2.8-5.6-4.9-11.4-6.2-17.6c-2.2-10.7-4.5-21.3-8-31.6
		c-2.5-7.7-5.7-15.1-8.7-22.6c-0.3-0.8-0.8-1.5-1.3-2.2c-0.1-0.1-0.4-0.1-0.7-0.1c-0.1,0-0.2,0.1-0.2,0.2c-0.1,1.1-0.1,2.2-0.1,3.3
		c0.1,2.8-0.1,5.5-0.4,8.3c2.2,1.3,3.3,3.6,4.1,6c1.7,5.7,3.2,11.5,4.6,17.3c1,4.6,1.8,9.3,2.6,13.9c0.4,2.8,1.2,5.5,0.9,8.3
		c1.5,7.6,0.6,15.4,0.7,23c0.1,5.1-0.7,10.2-2.4,15.1c-1,3-2.5,6.1-4.9,8.5c-2,2-3.2,4.6-3.6,7.4c-0.4,2.5-1.1,5-2.1,7.4
		c-1.3,3.1-3.5,4.9-6.9,5.2c-1,0.1-1.9,0.4-2.8,0.8c-3.8,1.7-7.1,0.7-10.2-1.8c-3.2-2.5-5.2-5.7-6.6-9.4c-0.4,0.9-0.7,1.7-0.9,2.5
		c-0.6,1.7-0.9,3.2,0.1,4.9c0.7,1.2,1.2,2.7,1.5,4.1c1.7,6.5,5.5,11,11.3,14.2c2.5,1.4,4.8,2.9,7.1,4.6c1.9,1.4,3.9,2.5,6.1,3.4
		c3.2,1.2,6.4,2.6,9.1,4.6c0.8,0.6,1.7,1,2.8,0.9c3.2-0.4,6.2-1.2,8.9-3.1c1-0.7,1.7-1.7,2.2-2.8c1.2-2.7,2.5-5.3,3-8.2
		c0.5-2.5,1.4-4.9,2.7-7.2c0.8-1.5,1.2-2.9,1.2-4.6c-0.1-7.6,1.2-15.1,3.5-22.4c0.9-3.1,1.5-6.5,2.1-9.7c-0.1-0.7-0.1-1.3-0.2-1.9
		C363.9,527.3,363.3,524.7,362,522.2z"/>
	<path class="st4" d="M810.9,88.2c-1.9-1.4-3.8-2.7-5.7-4c-6.7-4.4-12.7-9.6-17.6-16c-0.4-0.6-0.9-1.2-1.5-1.7
		c-3.1-3.6-7-6.1-11.6-7.3c-6-1.6-12.1-3-18.4-3.4c-12.5-0.9-24.9-1.6-37.5-1.5c-10.5,0.1-21,0.4-31.6-0.1
		c-6.2-0.2-12.5-0.7-18.5-2.4c-9.6-2.8-18.8-6.4-27.4-11.5c-3.7-2.2-7.3-4.4-11-6.5c-3.8-2.2-7.7-4.2-11.8-5.9
		c-4.1-1.7-8.3-1.9-12.6-1c-9.2,2-16.2,7.3-21.6,14.8c-2.7,3.7-4.7,7.7-6.2,12c-0.7,2-1.4,3.9-2.8,5.5c-0.7,0.9-1.1,1.9-1.4,3
		c-0.4,1.3-0.6,2.6-0.9,3.9c-0.5,2.2-0.9,4.4-1.6,6.4c-1.8,5.2-6,7.7-11.5,7.2c-1.1-0.1-2.2-0.3-3.3-0.5c-2.5-0.5-5-1.2-7.5-1.7
		c-8.7-2-17.5-3.7-26.4-4.4c-5.6-0.4-11.2-0.9-16.8-1c-7.5-0.2-15-0.3-22.4,0.4c-12.4,1.1-24.7,3.3-37,5.7c-1.5,0.3-2.8,0.5-4.1,1.6
		c-0.9,0.9-2.2,1-3.5,0.9c-2.5-0.2-4.9-0.5-7.2-1.2c-2.2-0.7-3.8-2.2-4.7-4.3c-0.4-1.1-0.9-2.3-0.9-3.6c0.1-3.5-1.7-6.3-2.8-9.4
		c-0.4-1-1-1.6-2-2c-2-0.7-4.1-1.7-6.1-2.5c-3-1.2-5.1-3.3-6.3-6.3c-0.5-1.2-0.9-2.5-1.3-3.8c-1-3.4-2.5-6.7-3.7-9.9
		c-1.2-3.1-3.4-4.6-6.7-4.8c-2.3-0.1-4.6,0.1-6.9,0.7c-6.5,1.6-12.7,3.6-18.5,6.9c-6.6,3.8-13.4,7-20.4,10.1
		c-10.5,4.6-20.7,9.5-30.6,15.2c-3.2,1.8-6.5,3.4-9.9,4.9c-9.9,4.5-19.9,8.9-29.8,13.3c-4.1,1.8-8.5,3.1-12.8,4.5
		c-8.4,2.7-17.1,3.3-25.8,1.9c-6.5-1-12.9-0.9-19.4-1.2c-4-0.1-7.8,1-11.1,3.2c-2.6,1.7-5.1,3.5-7.3,5.6c-9.6,9.5-14.2,21-13.3,34.5
		c0.6,8.2,2.1,16.3,4.6,24.1c2,6.3,4.2,12.6,6.4,18.8c1.4,3.9,3,7.8,4.9,11.5c2.8,5.7,5.6,11.5,8.3,17.2c2,4.2,4.2,8.3,6.7,12.3
		c3,4.9,6,9.8,9,14.7c6.4,10.7,11.7,21.7,15.7,33.5c2.8,8.5,6.1,16.8,9.2,25.2c0.9,2.4,1.9,4.8,3.3,7c0.9,1.4,2,2.6,3.6,3
		c4.6,1.2,9.1,1.9,13.6-0.1c2.7-1.2,5.4-2.4,8-3.7c2.1-1,4-2.4,5.6-4.1c6.9-7.1,13.5-14.5,18.6-23.2c2.1-3.6,4.3-7.2,6.5-10.7
		c3.1-5,5.9-10.2,8.5-15.5c2.8-5.7,5.7-11.4,8.6-17.1c5.4-10.4,9.4-21.3,12.7-32.4c3-10.2,5.5-20.5,7-31.1c1-6.9,2-13.8,1.4-20.8
		c-0.4-4.6-0.7-9.3-0.9-13.9c-0.1-1.7-0.1-3.4-0.4-5.2c-1.2-7.8-2.1-15.5-3.9-23.2c-0.7-2.8-0.6-5.6,0.2-8.3
		c1.2-4.5,2.8-8.9,5.2-12.9c2.5-4.4,5.6-8.3,9.6-11.5c3.1-2.5,6.6-4.2,10.5-4.9c1.5-0.2,2.8-0.7,4.1-1.5c2.1-1.1,4.3-1.7,6.7-1.6
		c1.2,0.1,2.5-0.4,3.6,0.3c0.9,0.6,1.4,1.7,2.1,2.5c2.5,2.5,2.5,5.4,1.4,8.5c-0.6,1.7-1.7,2.9-3.3,3.8c-1.7,1.1-3.6,2.2-5.4,3.2
		c-0.7,0.4-0.9,0.8-0.6,1.5c0.1,0.4,0.4,0.9,0.6,1.3c3.3,6.7,3.6,13.6,1.9,20.8c-2,8.4-4.7,16.5-9,24c-0.9,1.7-1.9,3.4-2.8,5.2
		c-3.9,7.5-6.8,15.5-8.1,23.9c-0.4,3-0.9,6.1-1.9,9c-0.6,1.5-0.1,2.9,0.4,4.3c0.2,0.5,0.7,0.8,1.2,0.6c2-1.2,4.2-1.9,5.7-3.9
		c4.3-5.9,9.5-10.9,15.2-15.4c2.2-1.7,3.4-3.7,3.9-6.3c0.7-4,2.8-7.5,5.9-9.9c3.3-2.5,5.2-5.7,6.2-9.6c0-0.1,0.1-0.2,0.1-0.4
		c2.2-6.2,6.3-11,11.9-14.4c2-1.2,4.1-2.2,6.2-3.2c2.3-1.1,4.8-1.9,6.9-3.4c0.8-0.5,1.8-0.8,2.8-1c2.5-0.7,4.9-1.3,7.5-1.9
		c1.7-0.4,3.3-0.6,5.1-0.9c0.3-0.1,0.8,0,0.8,0.4c0,0.2-0.2,0.4-0.4,0.6c-1.4,0.7-2.8,1.5-4.3,2.2c-4.4,2.1-7.4,5.5-9.5,9.8
		c-1.7,3.5-3.3,7.1-4.6,10.8c-0.4,1.2-0.9,2.5-0.9,3.9c0.1,2.2-0.5,4.4-1.5,6.4c-0.4,1-0.9,2-1,3.1c-0.4,3.5-2.5,5.7-5.2,7.7
		c-0.8,0.6-1.6,1.1-2.3,1.7c-1.9,1.7-2.2,3.7-0.9,6c0.5,0.9,1.1,1.7,1.5,2.5c0.9,1.7,1.4,3.4,1.1,5.3c-0.9,5-3.5,8.6-8.6,9.9
		c-1.5,0.4-3.1,0.7-4.6,1.1c-5.7,1.2-11,3.3-15.8,6.6c-1.8,1.2-3.7,2.4-5.5,3.6c-7,4.8-13.4,10.2-18.7,16.9c-1.4,1.7-2.6,3.6-4,5.2
		c-1.5,1.7-2.4,3.6-3.2,5.7c-2.2,6.3-4.4,12.7-7.3,18.9c-4.4,9.5-8.9,19.1-13.6,28.5c-7,14-14.2,27.9-24.6,39.8
		c-1,1.2-1.5,2.5-1.6,4c-0.2,2.3-0.5,4.6-0.7,7c-0.4,6-1,12-0.7,18c0.5,9.4,2,18.7,3.8,28c2.5,12.8,7.1,24.9,11.8,37
		c1.1,2.9,2.7,5.5,4.4,8.1c4.6,6.7,9.3,13.5,14.7,19.7c4.1,4.6,7.1,9.9,9.8,15.5c1.4,2.9,2.4,5.9,3,9c0.9,4.3,1.8,8.6,3,12.8
		c0.5,2,1,4.1,1.5,6.2c0.3,0.1,0.6,0.2,0.9,0.3c0.7,0.2,1.2,0.9,1.7,1.4c1.2,1.5,2.6,2.6,4.1,3.6c4.5,2.8,9,5.4,13.5,8.2
		c7.3,4.4,13.8,9.5,19.1,16.1c0.1-1.7,0.1-3.5,0.2-5.2c0.1-1.9-0.3-3.6-1.4-5.2c-2.2-3.6-3.5-7.5-4.4-11.6c-0.4-1.9-0.9-3.8-1.4-5.7
		c-0.2-0.8-0.4-1.7-0.9-2.4c-2.5-4.1-5.6-7.8-9.9-10.2c-1.1-0.6-2.1-1.2-3.2-1.8c-0.5-0.3-0.9-0.8-1.6-0.3c-0.4,3-0.1,5.8,1,8.6
		c0.1,0.4,0.3,0.7,0.3,1s-0.1,0.7-0.2,0.9c-0.4-0.1-0.8-0.1-1-0.4c-1.5-1.6-2.9-3.3-4.4-4.9c-1.6-1.6-2.5-3.6-3.2-5.7
		c-1.7-5.4-1.6-10.9-1.1-16.4c0.4-3.8,2-7.3,3.8-10.6c2-3.7,8.3-5.7,11.7-0.1c0.2,0.4,0.5,0.9,0.7,1.3c1.1,1.7,2.2,3.5,3.3,5.3
		c0.7,1.2,1.5,2.2,2,3.5c1.7,4.1,3.5,8.1,5.1,12.2c3,7.6,6,15.3,8.7,23c1.7,4.6,4.3,8.6,7.6,12c6.2,6.3,12.6,12.4,20,17.2
		c4.6,2.9,9.4,5.4,14.8,6.1c2,0.3,3.8,0.6,5.7,0.9c0.4-0.3,0.8-0.7,1-1.4c0.7-1.9-0.6-3-1.7-4.1c-2.8-2.5-6-4.7-9.2-6.7
		c-2.1-1.2-4.2-2.5-6.2-3.8c-3-2-5.7-4.3-7.5-7.3c-3.3-5.5-5.4-11.6-6-18c-0.7-7.7-0.1-15.4,2.4-22.9c1.1-3.1,1.9-6.3,2.5-9.6
		c0.4-2,0.4-3.8-0.2-5.8c-0.7-2.5-1.2-5-1.9-7.5c-2-6.5-2.9-13.1-2.8-19.9c0.2-12,4.8-22.2,13.4-30.5c4.3-4.1,9.2-7.6,13.9-11.4
		c0.7-0.6,1.6-1.2,2.5-1.6c4.8-2.4,8.5-6.2,12.2-9.9c2.1-2.1,3.3-4.5,3-7.5c-0.3-4.1,1.2-7.7,3.5-11c3-4.3,6.3-8.4,10.7-11.5
		c1.5-1.1,2.9-2.2,4.4-3.4c3.1-2.6,5.9-5.7,7.3-9.5c1.9-5.1,3.3-10.2,3.6-15.7c0.1-1.2,0.2-2.5,0.3-3.6c0.6-7.3,1.6-14.6,1.1-22
		c-0.1-0.9,0-2,0-2.9c0-1.5,0.2-2.9,0.5-4.4c0.9-4.3,2.4-8.5,4-12.6c2.8-6.8,3.6-14,3.3-21.3c-0.3-6.5-0.6-13-0.4-19.5
		c0-1.5-0.4-2.8-1.2-4.1c-1.7-2.6-2.6-5.5-3-8.6c-0.1-0.7-0.1-1.5-0.3-2.2c-3-3-4.1-6.6-2.9-10.8c0.4-1.4,0.9-2.8,1.5-4.1
		c1.2-2.7,2-5.4,2.7-8.3c1.2-5.6,2.5-11.2,3.7-16.8c0.4-1.8,1.2-3.5,1.7-5.2c0.6-1.8,0.5-3.8,1.5-5.6c0-0.1,0.3,0,0.4,0.1
		c1.1,1.8,0.9,4,1.3,6c2,9.3,3.9,18.7,7.1,27.7c1.2,3.2,2,6.5,2,10c-0.1,1.7-0.1,3.4-0.7,5.1c-1.1,3-3.8,5.2-6.7,5.8
		c0.6,1.8,0.6,3.7,0.8,5.6c0.1,0.7,0.3,1.4,0.8,2c3.3,4,4.1,8.8,4.6,13.7c0.1,0.9,0.1,2,0.2,2.9c1.4,7.8,2.8,15.7,6.5,22.9
		c0.7,1.3,1.3,2.6,1.9,4c0.7,1.5,1.2,2.9,1.7,4.4c1.1,3.3,0.4,6.1-2.5,8.1c-0.9,0.6-1.3,1.4-1.5,2.4c-0.1,0.9-0.4,1.7-0.4,2.5
		c-1.1,8.1-1.3,16.1-0.1,24.2c1.5,10.2,3.4,20.2,7.9,29.7c0.9,2,1.7,4.1,2,6.3c0.1,1.1,0.4,2.2,1.1,3c3.8,4.9,8.1,9.2,13.9,11.7
		c2.8,1.2,5.7,2.2,8.7,2.8c1.3,0.2,2.6,0.7,3.8,1.1c2,0.7,3.9,1.4,6,2c4.7,1.5,9.1,3.5,13.2,6.2c3,2,5.8,4.5,8.8,6.7
		s5.2,5.1,6.8,8.5c0.6,1.3,1,2.5,0.8,3.8c-0.9,4.9,0.3,9.4,2,14c1.1,3.1,2.2,6.2,3.1,9.4c1.2,4.6,1.9,9.3,0.9,14.2
		c-0.7,3.3-0.6,6.6,0.6,9.8c0.7,2.1,1.5,4.1,2.2,6.2c0.3,0.8,0.8,1.6,0.8,2.4c0,4.1-0.1,8.3-0.2,12.5c0,0.4-0.1,0.7-0.3,1.1
		c-2.3,7.1-3.4,14.5-4.5,21.9c-0.7,4.4-0.1,8.6,1.6,12.6c1.2,2.5,2.2,5.2,3.8,7.5c0.9,1.2,1.1,2.4,0.8,3.8c-0.1,0.6-0.3,1.2-0.4,1.8
		c-0.1,1.1-0.4,2.2-0.5,3.3c-0.1,0.7-0.2,1.3-0.3,2c-0.1,0.9-0.3,1.8-0.4,2.7c-0.1,0.9-0.2,1.8-0.3,2.7c-0.1,0.9-3.7,8.7-4.8,10.2
		c1.9-1.5,3.8-2.9,4.2-3.4c0-0.1,0.1-0.1,0.1-0.1c1.5-1.7,3.1-3.3,4.6-5.1c0.6-0.7,1.2-1.5,1.8-2.2c3.6-4.5,6.8-9.3,10.2-14
		c6-8.5,9.6-17.9,12-27.8c0.8-3.3,0.9-6.5,0.9-9.9c0.1-6.5,0.7-12.9,2.9-19.2c0.8-2.2,1.1-4.5,1.1-6.8c0-3.6,0.4-7.1,1.6-10.5
		c0.8-2.1,1.3-4.2,1.5-6.4c0.2-1.6,0.6-3.2,1.6-4.4c0.7-0.9,1.4-2,1.7-3.2c0.7-2,2.2-2.8,4.3-2.8c1,0,2,0.2,2.8,0.5
		c6.2,2.3,10.3,9.5,9,16c-0.4,1.9-0.9,3.8-1.3,5.7c-0.1,0.2-0.3,0.4-0.4,0.4c-0.2,0-0.4-0.1-0.6-0.4c-0.1-0.3-0.2-0.7-0.2-1.1
		c-0.2-2.6-1.8-4.5-3.3-6.4c-0.1-0.1-0.4-0.2-0.7-0.2s-0.4,0.1-0.4,0.4c-0.1,2.7-0.1,5.4,0.3,8.1c1.4,8.3,1,16.3-2.5,24.1
		c-0.4,1-0.7,2-0.9,3.1c-0.6,4.1-1.2,8.2-2,12.3c-0.8,4.4-1.5,8.6-1.8,13.1c0,0.1,0,0.1,0,0.3c0.1,0,0.1,0,0.1,0
		c0.9-0.4,1.5-1.2,1.9-2.1c0.1-0.1,0.1-0.2,0.2-0.4c1.5-2.6,3-5.3,4.6-7.8c3.9-6,7.7-12.2,11.3-18.4c0.9-1.5,1.8-2.9,2.9-4.2
		c3.6-4.1,6.7-8.6,10.1-13.1c0.4-4.3,0.6-8.6,0.5-13c-0.1-4.8,0.4-9.5,1.5-14.2c0.7-3,1.8-5.9,3.8-8.3c3.6-4.6,6.5-9.8,9.7-14.7
		c6.6-10.5,11.5-21.6,15.5-33.2c3.6-10,5.3-20.4,5.2-31c-0.1-4.6-2.5-7.8-6.2-10.2c-1.2-0.7-2.3-0.4-3.3,0.7
		c-0.4,0.4-0.8,0.9-1.1,1.5c-2.7,4-4.3,8.2-3.8,13.1c0.4,4.5,0.4,9.1,0.1,13.6c-0.7,9.9-3.3,19-8.7,27.4c-2.5,3.9-5.6,7.1-9.7,9.4
		c-4.8,2.7-8.9,6.1-11.9,10.7c-0.3,0.4-0.6,0.8-1,1.1c-1.7,1.1-2.8,2.8-3.9,4.3c0,0,0,0.1,0.1,0.1h-0.1l-0.1-0.2l0.1,0.1l0,0
		c-0.5-0.9-0.3-1.9-0.1-2.8c0.3-1.2,0.3-2.4,0.4-3.6c0.5-6.5,1.7-12.8,6.6-17.9c1.7-1.8,2.7-4,3.2-6.5c1.4-7.4,1.8-14.8,1.7-22.3
		c0-2.2-0.1-4.4,0-6.6c0.1-2.8,0.8-5.3,2.2-7.7c1.4-2.2,2.6-4.4,4-6.6c0.8-1.3,1.3-2.5,1.4-4.1c0.1-5.3,1.5-10.4,3.1-15.4
		c0.7-2.2,1.7-4.4,2-6.7c0.7-6,3-11.9,2.2-18.1c0-0.2,0.1-0.5,0.1-0.7c0.3-1,0-2-0.4-2.8c-0.7-1.8-1.5-3.6-2.1-5.4
		c-1.6-4-3.2-8-4.2-12.1c-2.4-9.4-5.2-18.7-7-28.2c-1.2-6.4-3-12.6-3.8-19.1c-0.6-4.5-1.6-8.9-2.7-13.3c-2.3-9.4-6.5-18.1-10.2-27.1
		c-2.2-5.2-5.5-9.5-9.9-13.1c-5.4-4.4-9.6-9.8-12.7-16c-1.5-3-3-6.2-4.4-9.3c-1.2-2.6-1.9-5.3-2.1-8.1c0-0.2,0-0.5-0.1-0.7
		c-0.1-1.2-0.5-1.5-1.7-1.4c-1.7,0.2-3.4,0.6-5.1,0.8c-2.8,0.4-5.7-0.1-8.3-1.2c-1.6-0.7-3.1-1.5-4.6-2.3c-1.2-0.7-2.4-1.2-3.7-1.5
		c-2.3-0.4-4.6-0.7-6.9-1.1c-1.1-0.1-2.2-0.1-3.3,0.1c-2.6,0.7-5.2,1.5-7.5,2.8c-1,0.6-1.9,1.5-2.9,2.1c-0.4,0.2-1,0.2-1.4,0.1
		c-0.6-0.2-0.4-0.8-0.3-1.2c0.2-0.7,0.4-1.4,0.8-2c2.5-4.6,4.8-9.4,7.4-13.9c3.6-6.1,8.6-10.9,13.9-15.5c1.1-0.9,2.4-1.7,3.8-2.2
		c9-3.7,17.9-3.8,26.3,1.6c0.7,0.4,1.5,0.8,2.3,1c0.9,0.2,1.9,0.7,2.8,1c8.1,3.8,14.6,9.4,18.8,17.4c0.4,0.7,0.9,1.5,1.2,2.2
		c1.4,2.8,3.1,5.2,5.4,7.3c1.2,1,2.2,2.3,3,3.7c3.3,5.2,6.1,10.7,7.4,16.7c0.7,3.5,1.3,7,1.9,10.5c0.7,3.8,0.5,7.8,0.8,11.7
		c1.2,14.7,2.1,29.5,4.3,44.2c0.6,4.2,1,8.5,1.7,12.7c2,12.3,4.8,24.5,8.2,36.5c0.8,2.8,1.7,5.7,2.8,8.3c2.2,5.7,4.4,11.5,6.4,17.2
		c2.9,8,6.7,15.5,12,22.2c4.2,5.5,9.5,9.4,15.7,12.3c3.2,1.5,6.5,2.1,10,2c2.3-0.1,4.6-0.5,6.7-1.7c4.1-2.3,7.3-5.3,9.3-9.6
		c1.2-2.5,2.2-5.2,3-7.9c0.8-3.2,1.2-6.5,1.6-9.8c0.8-6.1,2-12.1,2.5-18.2c1-12.5,3.6-24.7,6.6-36.8c4.5-18.1,11.5-35.3,19.7-52
		c1.6-3.2,3.3-6.3,5.2-9.4c3.3-5.3,6.6-10.6,10-15.8c3.2-4.9,5.7-10.2,7.8-15.7c0.8-2,1.3-4.2,1.7-6.4
		C817.5,96,815.6,91.5,810.9,88.2z M215.4,131c-0.3,0.6-0.7,1.1-0.8,1.7c-1,3.2-3.6,4.5-6.5,5.2c-2.6,0.6-5,0.1-7.1-1.9
		c-2.2-2.1-3.6-4.6-4.1-7.5c-0.1-0.7-0.2-1.5-0.4-2.2c-0.4-1.6-0.2-3,0.1-4.6c1.1-6,4.4-10.7,8.2-15.3c1.5-1.7,3.3-2.8,5.3-3.8
		c3.4-1.9,7.1-3,11-3.9c5.1-1.2,10.2-1.3,15.3-0.7c4.4,0.5,8.8,0.3,13.1,0.6c3,0.2,5.8-0.5,8.7-0.9c5.4-0.8,10.7-1.9,16-3.2
		c5.2-1.2,9.7-3.8,14.3-6.4c3.7-2.1,7-4.9,10.9-6.7c2.6-1.1,4.9-2.6,7.3-4.1c3-2,6.4-3.6,9.8-4.9c0.9-0.4,1.9-0.4,2.9-0.3
		c1.3,0.2,1.8,1.5,0.9,2.4c-1.5,1.5-2.6,3.2-4,4.7c-6.5,7-11.7,15-16.7,23.1c-2.2,3.6-4.3,7.1-6.2,10.8c-0.7,1.4-1.7,2.7-2.7,4.3
		c-2.2-3.3-3.9-6.2-4.5-9.7c-0.3-1.7-1.3-3.1-2.5-4.5c-1.1-1.3-1.6-1.6-3.1-0.8c-2.8,1.5-5.9,2.3-8.9,3.4c-5.7,2-11.5,3.2-17.3,4.3
		c-3.8,0.7-7.7,1.3-11.5,2.1c-6.7,1.5-13.1,4.1-18.5,8.3C220.7,123.5,217.5,126.7,215.4,131z M249.8,225c-0.2,3.6-1.3,7.2-0.9,10.9
		c0.1,0.9-0.1,2-0.2,2.9c-0.1,0.5-0.4,0.9-0.9,0.9c-0.7,0.1-0.9-0.4-0.9-0.9c-0.4-2.2-1.2-4.2-2.2-6.2c-0.4-0.7-0.8-1.2-1.6-1.4
		c-2.9-0.4-4.4-2.5-5.7-4.6c-1-1.5-1.7-3.2-2.3-4.9c-1.3-4.1-2.8-8.1-3.6-12.2c-0.3-1.3-0.9-2.5-1.2-3.8c-0.3-1.2-0.9-2-1.7-2.8
		c-1.7-1.5-2.8-3.3-4.1-5.1c-1.5-2-3-3.8-4.4-5.7c-0.4-0.4-1-0.9-0.4-1.5c0.6-0.5,1.1,0.1,1.5,0.5c0.7,0.5,1.5,0.9,2.1,1.5
		c1.7,1.6,3.9,2.5,6,3.3s4,1.7,5.8,3c1.9,1.3,3.8,2.7,5.8,3.8c2.3,1.4,4.2,3.3,6,5.4c2.8,3.3,4.1,7.2,3.8,11.6
		C250.5,221.4,250,223.3,249.8,225z M313.3,213.9c-1.2,4.5-2.6,8.9-3.6,13.4c-0.8,3.7-2.2,7.3-3.8,10.7c-3,6.7-6,13.4-9.1,20.1
		c-1.2,2.5-2.5,5-3.9,7.5c-2.1,3.7-5.2,6.5-8.6,8.9c-0.7,0.5-1.5,0.9-2.2,1.3c-3,1.4-5.5,1-8.1-1.2c-5-4.2-7.6-9.9-9.6-15.8
		c-1.7-5.2-2.3-10.7-2.5-16.3c-0.1-2.5,0-5.2,0-7.7c0-6.5-0.8-12.9-2.8-19.2c-1.2-4-2.9-7.8-5-11.4c-2.8-4.8-6.8-8.3-11.2-11.4
		c-3-2.1-6.1-4.1-9.3-6c-3.4-2-6.4-4.6-9.7-6.5c-0.8-0.4-1.2-1.2-1.7-1.9c-8.2-13.6-7.8-27.9,1.8-41.7c2.5-3.6,5.7-6.4,9.9-7.8
		c0.9-0.3,1.7-0.9,2.5-1.4c5.7-3.8,12-5.8,18.9-6.2c4.1-0.2,8.1-0.6,12-1c3.6-0.4,7-0.7,10.5-1.8c0.4-0.1,1.1-0.4,1.4,0.1
		c0.4,0.6-0.1,1.1-0.4,1.6c-0.3,0.4-0.6,0.8-0.9,1.2c-3.5,4.6-7,9.1-10.5,13.7c-2.2,2.9-4.8,5.2-7.8,7.1c-2.1,1.3-4.4,2.2-6.7,2.7
		c-2.2,0.4-4.4,0.9-6.4,1.5c-2.9,0.9-3.5,3.6-1.3,5.7c3.6,3.6,8,5.3,13,4.9c10.2-0.8,19.2-4.7,26.5-12c2.2-2.2,4.1-4.5,6-7
		c4.9-6.9,9.4-14.1,13.1-21.6c4.1-8,8.3-15.8,12.4-23.7c1.7-3.1,3.3-6.2,5-9.4c1.2-2.3,2.9-4.2,4.6-6.2c0.6-0.7,1.2-0.7,2-0.4
		c4.1,1.8,5.9,5.9,4.4,10.4c-0.7,2.1-1.9,4-3.2,5.8c-3.2,4.6-6.1,9.4-8.6,14.5c-0.8,1.7-1.5,3.3-2.2,5c-1.3,3-0.9,5.7,1.6,8
		c3.2,2.8,4.2,6.5,4.1,10.6c-0.1,3.5-0.9,6.7-2,10c-2.1,6.2-4.7,12.1-7.3,18c-4.1,9-8.3,18-12.3,27.1c-5.8,13.2-9.4,27-11.2,41.3
		c-0.7,5.1-1.1,10.2-1.1,15.4c0,0.5,0,1,0.1,1.5c0,0.2,0.2,0.4,0.4,0.5c0.2,0.1,0.5-0.1,0.7-0.2c0.7-0.9,1.5-1.7,2-2.6
		c2.1-3.1,4.2-6.3,6.3-9.4c2-3,4-6.2,6.1-9.1c1.7-2.5,3.1-5.2,4.4-8.1c1.5-3.3,3-6.7,4.5-10c0.4-0.7,0.5-1.7,1.6-1.8
		c0-0.1,0-0.1,0-0.1c0-0.1-0.1-0.1-0.1-0.1s0-0.1,0-0.2c0,0.1,0.1,0.2,0.1,0.3s0.1,0.1,0.1,0.1h-0.1h0.1
		C315.2,206.8,314.4,210.3,313.3,213.9z M342.5,171.1c-2.4,5.7-5.7,10.7-10.4,14.9c-2.2,2-4.8,2.7-7.7,2.8c-2.8,0.1-6.3-3.1-6.5-6.3
		c-0.3-5.4,0.4-10.5,3-15.2c1.5-2.7,2.9-5.4,4.4-8.1c3-6,6-12,8.1-18.4c0.5-1.5,0.8-3,0.7-4.6c-0.1-2.8,0-5.6,0-8.4l0,0
		c0-2.2,0-4.4,0-6.6c0-2,0.1-3.8-0.6-5.8c-0.4-1.3-0.2-2.7,0.9-3.6c1.2-1.1,2.9-0.9,3.8,0.4c1.1,1.7,1.7,3.5,2.2,5.4
		c0.8,3.2,1.7,6.4,2.2,9.6c0.4,2.4,0.4,4.9,0.9,7.2c0.6,2.9,0.4,5.9,0.9,8.7c0.9,5.2,0.4,10.2,0.6,15.3
		C345.3,162.7,344.2,167,342.5,171.1z M423.5,97c-2.1,1.2-4.3,2.2-6.6,3.1c-4.1,1.5-8.2,3-12.3,4.6c-0.7,0.3-1.3,0.7-2,0.9
		c-0.9,0.4-1.6,1.1-1.7,2.2c0,1-0.4,1.9-1,2.7c-2,2.9-4.1,5.8-6.2,8.6c-1,1.3-2.2,2.5-4.1,3c-2.2,0.5-4.6-0.9-4.9-3
		c-0.1-0.9,0-2,0.3-2.9c1.2-3.8,2.1-7.8,3.4-11.5c1.2-3.7,2-7.5,2.8-11.3c0.4-2,0.8-4.1,1.2-6.1c0.1-0.7,0.4-1.5,0.3-2.2
		c-0.1-1.7,0.4-3.4,0.7-5c0.4-2.1,1.2-3.9,2.8-5.4c1.7-1.5,2.4-3.7,4.6-4.6c0.7-0.3,0.6-1,0.2-1.6c-0.8-1.1-1.5-2.3-2.4-3.2
		c-2.2-2-3.3-4.5-4.4-7.1c-0.7-1.7-1.5-3.3-2.2-5c-0.5-1-1.3-1.7-2.2-2.3c-2.8-1.7-3.7-1.8-6.9-0.5c-4.1,1.7-8.3,3.6-12.4,5.4
		c-3,1.2-6.2,2.3-9.2,3.6c-1.1,0.4-2.2,0.4-3.3,0.4c-1.2-0.1-2-0.9-2.5-1.9c-0.5-1.1-0.1-2.1,0.7-3c1.4-1.5,3-2.5,4.8-3.3
		c5.2-2.7,10.5-5.4,15.7-7.8c2.6-1.2,5.5-2,8.2-3.1c1.2-0.4,2.4-0.6,3.6-0.6c4.6,0.4,8.6,2.2,12,5.4c1.2,1.2,1.9,2.8,2.4,4.5
		c1,3.5,2.1,7,2.9,10.6c0.6,2.5,1.7,4.5,3.5,6.2c3.5,3.3,6.7,6.7,10.2,10.1c0.9,0.9,1.7,1.7,2.2,2.9c0.2,0.6,0.4,1.2,0.2,1.7
		c-0.9,1.8-0.2,3.9-1.2,5.7c-0.1,0.3-0.1,0.7-0.1,1.1c0,0.8,0.2,1.5,1.1,1.7c0.6,0.2,1.2,0.4,1.7,0.7
		C426.3,91.7,426.6,95.2,423.5,97z M357.3,222c0.6-2.3,1.8-4.3,3.9-5.5c1.4-0.9,2.3-2,3.3-3.3c4.6-5.8,9.9-10.8,16.3-14.6
		c2.2-1.3,4.6-1.8,7-1.9c2.5-0.1,5.1-0.4,7.7-0.7c2.8-0.3,5.4,0.1,7.8,1.4c2.3,1.2,4.5,2.4,6.8,3.6c7.5,4,12.7,10.2,17,17.3
		c2.2,3.6,3.4,7.6,4,11.8c0.4,3,0.9,6,1.6,9c0.4,2.2,0.7,4.6,0.9,6.9c0.4,3.2,1.3,6.2,2.2,9.3c0.6,2,0.6,3.8,0,5.8
		c-0.8,2.8-2.7,4.6-5.5,4.6c-2.1,0-3.5,0.7-4.8,2.1c-6,6.5-13.6,9.7-21.8,12.3c-4.2,1.3-8.5,0.9-12.6-0.4c-4.6-1.4-8.7-3.6-12.3-6.7
		c0,0,0,0-0.1,0l0,0l0,0l0,0l-0.1-0.1h0.1c0.1-0.1,0.1-0.1,0.1,0c-0.1,0-0.1,0-0.1,0s0,0,0,0.1l0,0c1.3-0.8,2.5-0.1,3.8,0.3
		c3.7,1.2,7.4,0.9,11-0.2c0-0.6-0.3-0.8-0.7-0.9c-5.7-1.5-10-5.1-14.1-9c-3.3-3.2-6.4-6.7-9.7-10c-3.6-3.6-6.2-7.8-7.3-12.9
		c-0.5-2.3-1.7-4.3-3-6.2C356.4,230.2,356.3,226.2,357.3,222z M352.7,273.8c0.8-3.2,1.7-6.4,2.6-9.5c0.1-0.4,0.3-0.9,0.4-1.4
		c0.1-0.2,0.4-0.4,0.6-0.4c0.1,0,0.4,0.1,0.5,0.4c0.1,0.4,0.3,0.9,0.4,1.5c0.2,2.2,0.9,4,2.8,5.2c0.4,0.2,0.7,0.7,0.9,1.1
		c1.7,3.2,4.6,5.4,7.3,7.6c2.5,2,5.1,3.8,7.7,5.7c3.6,2.5,7.6,3.8,11.7,5.2c1.3,0.5,2.9,0.4,4.4,0.5c1.6,0.1,3.2,0.1,4.7,0.5
		c3.1,0.7,4.6,3.4,3.8,6.5c-0.1,0.2-0.1,0.5-0.2,0.7c-3.1,7-4.5,14.4-6.9,21.6c-0.5,1.6-0.7,3.3-0.9,5.1c-0.2,1.8-0.4,3.7-1,5.4
		c-0.6,1.5-0.3,2.9,0.1,4.3c0.4,1.2,1,2.5,1.5,3.8c0.3,0.7,0.5,1.4,0.7,2.1c0.1,1.2-0.5,2.2-1.5,2.7c-1,0.4-2,0.3-2.8-0.4
		c-0.5-0.5-1-1.1-1.4-1.7c-2.4-3.6-4.7-7.2-7-10.7c-1.3-2-2.6-3.8-3.8-5.8c-0.5-0.7-1.2-1.2-2-1.7c-3-1.8-5.3-4.3-7.5-7
		c-3-3.8-5.7-8-7.8-12.4c-2.8-6-5.4-12-7-18.5c-0.4-1.9-0.7-3.8-1-5.7C352.3,276.7,352.4,275.3,352.7,273.8z M334.5,277.3
		c0.2-3,1.6-5.6,2.2-8.4c0.4-1.8,0.8-3.6,1.2-5.3c0.1-0.4,0.1-1.1,0.9-0.9c0.6,0.1,0.6,0.7,0.6,1.2c0,1.7,0.1,3.4,0,5.2
		c-0.2,3.8,0.7,7.5,1.7,11.1c0.7,2.5,1.3,4.9,2.1,7.4c0.7,2,1.4,3.9,2.1,5.8c2.1,5.7,5,11.1,8.1,16.3c3.6,6,7.5,11.7,10.4,18.1
		c1.1,2.4,2,4.7,2,7.3c0.1,1.2,0.5,2.1,1.3,2.9c0.7,0.7,1.5,1.4,2,2.1c2.1,3,1.2,6.9-2.2,8.3c-1.8,0.7-3.8,0.7-5.7-0.1
		c-1.9-0.9-3.8-1.7-5.4-3.1c-1.5-1.2-3.1-2.3-4.8-3.3c-2.3-1.5-4.1-3.3-5.6-5.7c-1.9-3-3.5-6.2-4.7-9.5c-2.5-6.4-3.9-13.1-5.1-19.7
		c-0.7-4.3-1.5-8.6-2.1-12.9c-0.2-1.7-0.1-3.4-0.1-4.5C333.1,285,334.2,281.2,334.5,277.3z M380.4,386.8c-0.7-0.7-1.3-1.5-2-2.2
		c-3.3-3.3-7.7-3.6-11.2-0.4c-1.9,1.7-3.6,3.7-4.4,6.2c-2.1,5.7-3.2,11.5-3.5,17.6c-0.1,2.5-0.3,5.2-0.4,8.2
		c0.2,1.5,0.5,3.6,0.8,5.7c0.1,0.4,0.3,1.1-0.3,1.2c-0.5,0.1-0.8-0.4-1-0.9c-0.9-1.7-1.8-3.5-2.8-5.2c-1.3-2.5-2.2-5.2-4.3-7.2
		c-0.8-2.7-3-3.9-5.1-5.4c-4.9-3.6-8.9-8.1-11.7-13.5c-2.4-4.6-4.7-9.4-6.9-14.2c-0.9-2-1.7-4.1-2.2-6.2c-2.3-8.8-4.1-17.6-4.3-26.8
		c-0.1-6.6-1.3-13.1-1.9-19.7c-0.7-7.5-0.9-15.2,0.3-22.7c0.3-1.7,0.7-3.3,1.7-4.8c0.4-0.6,1-1.1,1.9-0.9c0.7,0.1,1,0.7,1.2,1.3
		c0.4,1.5,0.8,3,1.2,4.6c1.7,7.8,3.8,15.4,6.7,22.9c2.2,5.7,5.2,10.8,9.1,15.5c2.3,2.7,4.6,5.4,6.7,8.2c3.8,4.9,8.7,8.1,14.4,10.4
		c0.9,0.4,1.9,0.5,2.8,0.5c2,0.1,3.9,0.1,5.9,0.4c3,0.4,5.7,1.5,7.6,4c0.5,0.7,1.2,1.2,1.8,1.7c4.4,3.2,7.5,7.3,9.9,12
		c1.4,2.9,2.8,5.7,5.1,8c1.4,1.5,2.2,3.2,2.1,5.3c-0.1,2.4-2.2,3.8-4.3,2.9c-1.7-0.8-3.7-1.3-5.5-1.9
		C384.8,390.6,382.4,389.1,380.4,386.8z M413.9,436.7c-0.7,5.1-1.5,10.1-1.2,15.2c0.1,1.5,0,2.9,0,4.4c0,0.3-0.1,0.5-0.4,0.4
		c-0.1,0-0.3,0-0.3-0.1c-1.9-2.8-4.1-5.6-4.3-9.1c-0.2-3.4-1.3-6.4-3.3-9.1c-0.2-0.3-0.5-0.6-0.7-0.9c-1.1-2.8-3.2-4.5-5.7-6
		c-1.3-0.7-2.5-1.7-3.1-3c-2-3.6-4.9-6.4-7.4-9.4c-2-2.5-3.6-5.2-4.5-8.3c-0.8-2.9,0.6-5,3.6-5.6c2.4-0.4,4.6-0.9,7.2-0.1
		c2.2,0.7,2.9,0.1,4.1-2.1c1.7-3.3,3-6.7,4.1-10.2c0.5-1.5,0.7-3,2.3-4c0.9-0.6,0.3-1.9,1-3c1.1,2.5,2.1,4.6,2.9,6.7
		c0.6,1.5,0.4,3.2,0.2,4.7c-0.1,2.9,0.5,5.6,1.9,8.1c0.1,0.1,0.1,0.2,0.1,0.3c2,4.1,3.3,8.3,3.9,12.8c0.4,2.5,0.5,5.1,0.7,7.6
		C415.1,429.7,414.4,433.2,413.9,436.7z M410.9,330.9c-0.4,1.7-1.2,3.5-2.1,5.1c-1.9,3.5-3,7.2-3.9,11c-0.2,0.9-0.3,2-0.2,2.9
		c0.2,2.4-0.7,4.6-0.9,6.9c0,0.1-0.4,0.4-0.5,0.4c-0.2,0-0.5-0.1-0.6-0.3c-1.7-4.7-3.4-9.4-4.5-14.3c-0.1-0.7-0.1-1.5-0.1-2.2
		c0-2.5,0-4.9,0-7.3l0,0c0-2.1,0-4.1,0-6.2c0-3.6,0.7-7,1.6-10.5c0.6-2.2,1.2-4.5,1.3-6.7c0.1-3.5,4.4-7,7.9-7.7
		c2.3-0.4,5.1,1.5,6.1,3.8c0.9,2.1,1,4.3,0.6,6.5C414.2,318.5,412.4,324.7,410.9,330.9z M444.1,309.1c-1.2,1.4-1.7,2.9-2.2,4.6
		c-1.7,6.7-4.5,12.9-7.5,19.1c-2.5,5-5.8,9.4-8.6,14.1c-2,3.3-4.2,6.6-6.3,9.9c-4.6,5.5-4.4,0.4-3.6-1.4c1.9-4.1,1.7-8.8,3-13.1
		c1.2-4.4,2.2-8.8,3.1-13.2c1.2-5.7,2-11.3,1.9-17.1c-0.1-6.5,1.2-12.6,3-18.8c1.5-4.9,3.8-9.3,7.5-12.9c1-1,2.1-2.2,3.4-2.8
		c1.8-0.8,3-2,4-3.6c0.1-0.1,0.4-0.1,0.7-0.3c0.7,1.7,0.5,3.5,0.1,5.3c-0.6,3.1-1.2,6.2-1.1,9.4c0.1,3.4,0.7,6.5,2.5,9.5
		c0.4,0.7,0.7,1.3,1.1,2C446.6,303.1,446.4,306.3,444.1,309.1z M447.8,255.9c-3.3,1.1-6.5-0.9-6.9-4.5c-0.1-1.1,0.1-2.2,0.1-3.3
		c0.1-2.2,0.4-4.4,0.5-6.6c0.1-0.6,0.1-1.2,0-1.8c-1.1-5.4-0.8-10.9-2.2-16.3c-1-3.8-2.2-7.5-4.7-10.7c-1.1-1.4-2-2.8-2-4.6
		c0-0.7-0.4-1.2-0.8-1.6c-0.6-0.7-1.2-1.2-1.7-2c-0.8-1.1-1.7-1.6-3.1-1.4c-0.6,0.1-1.2,0.1-1.8,0.1c-3.1-0.1-5.4-1.4-6.8-4.2
		c-0.5-0.9-0.8-2-1.2-3.1c-1.4-4.4-4.2-7.3-8.8-8.5c-4.8-1.3-9.7-1.5-14.5-0.9c-0.5,0.1-0.9,0.2-1.5,0.3c-0.4,0.1-0.7,0-0.9-0.4
		c-0.1-0.2-0.1-0.5,0-0.7c0.4-1.1,1.2-1.9,2-2.5c2.5-2,5.2-3.6,8.3-4.4c2.6-0.7,5.3-0.8,7.8-0.9c0.7,0.1,1.2,0.1,1.7,0.1
		c1.2,0.2,2.1-0.1,2.9-1.1c1.7-2,3.8-3.4,5.8-5.1c0.4-0.3,0.8-0.6,1.2-0.9c5.9-4.1,11.9,0.1,12.6,5.7c0.3,2.1,0.1,4.1-0.3,6.2
		c-0.7,2.7-0.2,5,1.2,7.3c2.8,4.4,4.9,9,8.7,12.6c1.5,1.5,2.5,3.3,3.6,5.1c0.4,0.6,0.8,1.2,1.2,1.8c2,2.7,2.2,2.9,4.4,0.7
		c0.5-0.5,1.2-0.9,1.8-1.2c4.1-2,8.4,0.1,9.3,4.6c0.2,1.2,0.2,2.5,0.2,3.6c-0.2,3.8-0.8,7.5-1.6,11.2c-0.4,1.5-0.9,3.1-1.8,4.4
		c-1.2,1.5-1.5,3.3-1.7,5.2c-0.3,2-0.7,3.8-1.4,5.7c-1.2,3.8-3.6,7-6.5,9.6C450.1,254.8,449.1,255.5,447.8,255.9z M486.7,256.9
		c-0.6,2-0.5,3.8-0.6,5.8c0,1.5,0.1,2.9-0.5,4.4c-0.2,0.6-0.2,1.2-0.2,1.8c0.3,4.2-1.2,7.8-3.5,11.3c-1,1.5-1.8,3.1-1.7,5.1
		c0.1,2.5-1.7,4.3-3.2,6c-1.2,1.5-2.2,2.9-3,4.6c-1.3,2.8-2.9,5.4-4.6,7.8s-3.6,4.7-6.6,5.5c-0.9,0.2-1.3,1-1.8,1.7
		c-0.9,1.2-2.3,1.5-3.6,1c-1.2-0.5-2-1.4-2.1-2.8c-0.4-3.8-1.2-7.4-2.8-10.9c-1.7-4-2-8.3-1.6-12.6c0.2-2.3,1.5-4.4,2.9-6.2
		c3.3-4.1,5.3-8.7,7.3-13.4c1.7-3.9,3-8,3.8-12.2c0.3-1.2,0.4-2.4,0.6-3.6c0.3-3.3,1.1-6.5,0.8-8.6c-0.4-8.6,1.7-15.2,5.7-21.3
		c0.6-0.9,1.3-1.8,2.1-2.5c1.8-1.6,3.1-3.5,3.7-5.7c0.5-1.9,1.9-2.5,3.5-2.8c2.1-0.4,3.2,0.5,3.3,2.8c0,0.9,0,1.7-0.2,2.5
		c-0.7,3.8-1.3,7.6-1.3,11.5c0.1,4.6,1,9.1,1.8,13.7c0.1,0.6,0.4,1.2,0.4,1.7c-0.1,3,1.2,6,0.9,9.1c-0.1,0.7,0.2,1.5,0.4,2.1
		C486.9,254.3,487,255.6,486.7,256.9z M573.2,323.1c-0.7,0-1.5-0.1-2.1-0.4c-5.4-3-11.2-4.6-17.1-6.3c-1.9-0.6-3.6-1.5-5.4-2.2
		c-4.6-2-7.2-5.7-8.9-10.2c-0.7-1.8-1.1-3.8-1.4-5.7c-0.4-2.2-0.4-4.6-0.9-6.8c-0.8-3.4-0.6-6.7-0.7-10.2c-0.1-1.1-0.4-2.1-0.6-3.2
		c-0.1-0.9,0-2,0-2.9c-0.1-1.6,0.1-3.1,0.4-4.7c0.4-1.7,0.2-3.6,0.2-5.4c0-3.3-0.2-6.6,0.7-9.8c0-0.1,0-0.2,0-0.4
		c0.5-2.6,2.2-4.2,4.4-4.2s4,1.6,4.4,4.1c0.3,2,0.8,4.1,1.5,6c1.4,4.3,3.9,7.7,7.6,10.5c2.8,2.1,5.5,4.5,7.1,7.8
		c0.4,0.8,1,1.3,1.7,1.8c3.3,2.4,5.3,5.7,6.3,9.6c1.1,4.1,1.7,8.3,2.3,12.6c0.5,3.3,1.1,6.7,2.8,9.8c0.8,1.5,1.4,3.1,2,4.7
		C578.6,320.4,576.7,323.2,573.2,323.1z M579.6,251.7c-0.2,1.7-1.5,3-3,3.3s-3.2-0.3-4.7,0.4c-0.2,0.1-0.7-0.1-1-0.4
		c-2.7-1.5-5.5-2.2-8.7-2.5c-4.8-0.2-8.2-4.6-7.5-9c0.2-1.7,1-3,2-4.3c1-1.2,2-2.5,3.1-3.6c0.9-0.9,0.9-1.9,0.5-3
		c-1-2.8-1.9-5.5-2.9-8.3c-0.9-2.3-1.7-4.5-2.2-7c-0.4-2.1-1.6-3.8-3.1-5.3c-2.2-2-4.4-3.9-6.6-5.8c-1.7-1.5-3.3-3-4.3-5
		c-1-2.1-2.6-9.8-2.3-12.1c0.6-5,1.5-9.9,3.2-14.7c0.3-0.8,0.6-1.6,1-2.3c0.9-1.5,2.8-1.4,3.6,0.1c0.4,0.7,0.7,1.6,0.9,2.4
		c1.5,6.2,1.2,6.5,7.1,11.5c2.2,1.9,3.9,4,4.3,7c0.1,1.2,0.1,2.5-0.2,3.6c-0.2,0.9,0,1.7,0.7,2.3c0.6,0.7,1.2,1.2,1.7,2
		c1.5,2.4,4.1,2.9,6.5,3.6c0.5,0.1,0.9-0.3,1-0.8c0.5-1.7,1.1-3.5,1.6-5.2c1.2-3.8,2.5-7.7,3.8-11.5c1.3-4.1,1.9-8.3,2-12.6
		c0-1.6,0.1-3.2,0.2-4.8c0.4-4.5,2.5-8.1,6.2-10.8c1-0.7,2-1.5,2.9-2.2c1.5-1.1,3.1-1.5,4.9-1.1c2.8,0.7,5.4,1.7,7.1,4.2
		c1.2,1.7,2.4,3.4,3.3,5.3c0.8,1.7,1.9,2.8,3.5,3.6c2.8,1.5,5.5,3.1,8.5,4.9c-2.8,1.8-5.3,3-8.3,2.6c-1-0.1-2,0.4-2.6,1.1
		c-1.3,1.5-3,2.5-4.6,3.7c-1,0.7-1.9,1.5-2.5,2.6c-1.4,2.5-3.3,4.5-5.4,6.4c-3.8,3.4-7.2,7.3-10.2,11.5c-1.7,2.4-3.2,4.9-4.5,7.5
		c-1.7,3.5-2.5,7.1-2.5,11c-0.1,2.3-0.2,4.6-0.5,7c-0.4,3.3,0,6.6,0.9,9.8c0.6,2.4,1.7,4.5,3.7,6.2c1.8,1.5,3,3.6,3.7,5.8
		C579.6,249.8,579.7,250.8,579.6,251.7z M582.2,237c1.7-5.2,2.2-10.5,2.5-15.8c0.3-4.9,1.2-9.7,3-14.3c3.3-8.6,9.4-14.7,17.2-19.3
		c2.2-1.3,4.8-2,7.3-2.2c5.4-0.7,10.7-0.3,15.7,2.3c2,1.1,4.2,2,6.2,3c3.4,1.8,6.3,4.2,8.6,7.3c0.9,1.2,1.7,2.4,2.6,3.6
		c2.5,2.8,5.2,5.2,9.1,5.9c1.1,0.2,2.1,0.7,3,1.2c1.4,0.7,2.3,1.9,2.2,3.5c0,2.1,0.7,4.1,1.2,6.1c1.1,3.3,1.2,6.7,0.6,10.2
		c-0.9,4.6-2,9.1-3.3,13.5c-1,3.3-2.8,5.9-6.6,8.1c1.8-6,3.6-11.3,3.3-17c0-1.1,0.1-2.2-0.7-3.5c-0.4,1.3-0.7,2.5-1,3.6
		c-1.3,4.8-3.5,9.1-6.5,13.1c-7.6,9.7-17.6,13.5-29.7,12.3c-6.6-0.7-12.5-3.3-18.2-6.4c-2-1-3.6-2.5-5.1-4.1
		c-1.7-1.8-3.7-2.9-6.3-3.1C583,244.2,580.9,240.8,582.2,237z M625.6,171.5c0.5-0.4,1.2-0.4,1.7-0.4c5,0.9,10.1,1.8,14.7,4.2
		c6,3,11.6,6.7,16.1,11.8c1.5,1.7,2.3,3.7,3.1,5.7c0.4,1,0.3,2.2,0.1,3.3c-0.7,2.5-2.2,3.6-5.4,3.6c-2.1,0.2-3.8-0.9-5.3-2.4
		c-4.9-4.9-9.9-9.8-14.7-14.8c-1.5-1.5-3-2.8-5-3.6c-2.8-1.2-4.4-3.5-5.8-5.9C624.8,172.5,625.1,171.9,625.6,171.5z M583,258.3
		c0.3-0.4,0.6-0.8,1-1.1c1.6-1.2,2.9-1.3,4.6,0.2c1.9,1.6,3.9,2.4,6.2,2.5c0.8,0.1,1.7,0.5,2.5,0.7c3.3,0.6,6.2,2.1,8.9,4.1
		c2.4,1.8,4.1,4.1,3.8,7.4c-0.1,2.8-1.4,4.6-3.6,6c-2,1.3-4.2,2-6.5,1.5c-3.8,0.4-6.9-1.2-9-4.1c-3-4.1-5.9-8.3-8.2-12.9
		C582.1,261.2,582.1,259.8,583,258.3z M598.7,315.1c-1.9-2.5-4.4-4.2-6.6-6.3c-2.4-2.4-4.1-5.2-5.2-8.3c-1.6-4.7-2.9-9.6-3-14.7
		c0-1.5-0.9-2.8-0.5-4.3c1.3,0,1.7,1.1,2.2,1.8c1.6,2.2,3.4,4.1,5.5,5.9c2.8,2.2,5.7,4.2,9.2,5c0.6,0.1,1.2,0.4,1.7,0.7
		c3,1.5,4.6,4,4.3,7.4c-0.1,0.9-0.3,2-0.4,2.9c-0.2,2-0.7,4,0,6.2c0.7,2-0.3,3.7-2,4.6C602.3,316.9,600,316.8,598.7,315.1z
		 M624.3,413.9c-0.3,2-1.1,3.8-2.4,5.2c-0.7,0.7-1.4,1.4-2.3,1.7c-3,1.4-5.7-0.1-6.2-3.4c-0.2-1.7-0.1-3.4,0.2-5.1
		c0.4-2.2,0.8-4.6,1.4-6.8c1.2-4.5,0.5-8.8-1.4-12.8c-1.5-3.1-2.9-6.2-5.1-8.9c-2.2-2.9-2.5-6-1.2-9.3c1.2-3,1.5-6.2,2.2-9.3
		c0.4-2.2-0.2-4.4-0.8-6.5c-1.5-4.8-3.3-9.4-5.8-13.8c-0.7-1.3-1.7-2.5-1.8-4.1c0-0.1-0.1-0.1-0.1-0.1l0,0c0.1,0.1,0.1,0.1-0.1,0.1
		c0.1,0,0.1-0.1,0.1-0.1s0,0-0.1-0.1l0,0h0.1c0,0.1,0,0.1,0,0.1c3.2,3.4,6,7.2,8.8,11c3.1,4.2,5.4,8.7,6.5,13.8
		c0.7,2.8,1.6,5.3,3.4,7.5c2.6,3.3,3.7,7.3,3.8,11.3c0.2,6.6,0.7,13.1,1.3,19.7C625.3,407.4,624.7,410.7,624.3,413.9z M627.5,358.7
		c-0.9,2.5-1.5,5.2-2.5,7.6c-0.4,0.9-0.1,2.2-1.7,3.4c0-3.1,0.3-5.8-0.1-8.5c-0.4-2.5-1.5-4.9-2-7.4c-0.7-2.8-1.9-5.2-3.6-7.5
		c-1.6-2.1-3.4-4.2-4.8-6.5c-2-3.2-3.8-6.6-3.3-10.6c0.2-1.9,0.7-3.8,1.2-5.7c0.7-3,2-5.7,2.6-8.7c0.7-3.4,3.4-5.2,6.5-6.3
		c1.2-0.4,2.4-0.2,3.4,0.8c1,0.9,1.9,2,2.2,3.3c0.4,1.9,1.2,3.7,0.9,5.7c-0.1,1.1-0.1,2.2,0.4,3.3c0.4,1,0.4,2.2,0.4,3.3
		c0,2.5,0,5.2,0,7.7c0,2.3-0.1,4.6,0.6,6.9c0.3,0.9,0.1,2,0.1,2.9c0.1,1.1,0.1,2.2,0.3,3.3C628.9,350.1,628.9,354.5,627.5,358.7z
		 M665.9,322.5c-0.7,8.6-1.9,17.2-6.2,24.9c-1.6,2.8-3.5,5.2-5.4,7.8c-2.2,2.9-5,5.3-7.1,8.3c-2.2,3.3-4.4,4.4-8.1,5
		c-1.2,0.2-2.2-0.4-2.2-1.7c-0.2-2.7-0.2-5.2,1.6-7.6c2.3-3,3.8-6.5,5.2-10c1.6-4.2,3.8-8.2,5.4-12.4c1.9-5,3.6-10.2,5.2-15.2
		c0.4-1.2,0.7-2.6,1-3.8c0.6-2.1,1.3-4.2,1.3-6.4c0-0.6,0.1-1.2,0.3-1.8c0.9-2.6,3.4-3.2,5.5-1.4c1.8,1.5,2.7,3.7,2.8,5.8
		C665.2,316.7,666.4,319.4,665.9,322.5z M669.9,250.8c-0.4,9.8-0.7,19.6-2.7,29.2c-1.6,7.9-5.4,14.7-10.8,20.5
		c-0.7,0.7-1.3,1.5-2.1,2.1c-6.7,5.9-9.9,13.8-12.8,21.9c-0.7,2-0.7,4.1-0.7,6.2c-0.1,3.8-0.7,7.5-2.2,11.1c-0.8,1.9-1.2,4-1.8,6
		c-0.2,0.7-0.3,1.5-1.1,1.7c-0.7-0.6-0.4-1.3-0.4-2c0.2-3.4,0.2-6.8-0.4-10.2c-0.4-2.6-0.3-5.4-0.7-8.1c-1.4-10-4.2-19.6-7.3-29.1
		c-0.4-1.4-1.2-2.4-2.3-3.2c-1.3-0.9-2.5-1.9-3.8-2.9s-2.2-2.2-3-3.7c-1.2-2.5-1.2-4.7,0.7-7.2c1.7-2.2,3.4-3.7,6.2-3.4
		c5.7-1.5,11.5-2.1,17.1-4.1c1.5-0.5,2.7-1.2,3.8-2.1c6.9-5.9,12.6-12.7,16.5-20.8c0.7-1.5,1.2-3.2,1.9-4.8c0.5-1.3,1.2-2.5,2.8-2.5
		c1.4,0,2.4,1,2.8,2.9C669.9,249.2,670,250,669.9,250.8z M666.6,219.2c0-1.2,0-2.5,0.1-3.6c0-0.7,0.7-1.1,1.3-0.7
		c2.2,1.3,4.1,2.9,5.2,5.4c1.7,3.8,3,7.6,3,11.9c0,1-0.2,1.9-0.7,2.8c-1.4,2.6-3.6,3.6-6.4,3c-1.6-0.4-3-2.3-3.2-4.4
		c0-0.2,0-0.5,0-0.7c0-1.2,0-2.5,0-4.3c0.1-1.7-0.1-4,0.7-6.2C666.9,221.2,666.6,220.2,666.6,219.2z M587.6,110.8
		c5.2,1.1,10.5,2.2,15.7,3.4c2.8,0.7,5.2,2,7.4,3.8c2,1.7,4.2,2.8,6.7,3.8c4.6,1.7,8.6,4.6,12.4,7.7c2.8,2.2,5.6,4.4,8.3,6.6
		c8.7,7.1,16.1,15.3,20.8,25.7c1.7,3.7,3.5,7.3,5.2,10.9c0.9,2,1.6,4.1,1.7,6.3c0.1,1.1,0.3,2.2,0.4,3.3c0.4,2.8-0.3,3.5-3.1,2.7
		c-0.8-0.2-1.5-0.7-2.2-1.3c-4.1-3.3-8.5-6.2-12.9-9.1c-4.9-3.2-10.3-5.6-16.1-6.8c-2.3-0.5-4.4-1.3-6.4-2.6c-1.5-1-3-1.5-4.6-2
		c-0.7-0.2-1.3-0.4-1.7-1.2c0.9-0.9,2.1-0.8,3.2-1c5.6-0.9,5.2-1.1,4.9-6c-0.2-5.3-2-10-5.2-14.2c-4.9-6.3-10.5-11.9-16.5-17.1
		c-3-2.5-6-5.1-9.7-6.5c-0.7-0.3-1.5-0.6-1.9-1.1c-1.9-2.2-4.5-3.2-7-4.5c-0.2-0.1-0.4-0.4-0.5-0.5
		C586.7,110.3,587.2,110.7,587.6,110.8z M586.4,133.8c2.2,3,0.9,7-2.6,7.8c-4.8,1.2-9.1,3.5-12.9,6.6c-1.9,1.5-3.8,2-6.1,0.9
		c-1-0.4-2-0.9-3-1.2c-2.1-0.7-4.1-0.7-5.7,1.2c-1.7,1.9-3.6,3.7-5.3,5.6c-0.2,0.3-0.4,0.6-0.7,0.8c-2.2,1.7-4.9,1.6-6.9-0.4
		c-1.3-1.3-2.2-2.9-3.1-4.5c-2.1-3.7-4-7.5-6.4-11.1s-5.2-7-7.9-10.5c-0.4-0.6-0.9-1.1-1.5-1.7c-4-5.4-9.2-9-15.7-10.5
		c-0.9-0.2-1.9-0.5-2.8-0.7c-2.1-0.5-3.8-1.4-4.5-3.8c-0.3-1.1-1.1-1.2-2-0.6c-6.5,4.5-11.8,9.9-13.4,18c-0.5,2.8-1.3,5.4-1.9,8.2
		c-0.5,2.1,0.1,4.4-0.9,6.5c-0.4,7.3-1.5,14.7-0.7,21.9c0.7,5.4,0.6,10.7,0.6,16.1c0,5.2-1.7,9.8-4.9,13.9c-1,1.4-2,2.8-3.2,4
		c-1.1,1-2.2,1.9-3.6,2.5c-1.7,0.7-3.1,0.4-4.1-1.1c-0.6-0.8-0.9-1.7-1-2.7c-0.3-2.7-1.2-5.2-2-7.8c-1.7-4.9-5.1-8.6-9.6-11.1
		c-2.5-1.5-5.2-2.5-8.1-3.2c-5.1-1.2-8.9-6.4-8.9-11.7c0-1.6,0-3.2,0-4.8c0-2.2-0.7-4.4-2-6.2c-0.9-1.4-2-1.8-3.4-0.9
		c-1.5,0.9-2.9,1.1-4.4,0.1c-1.6-1.1-1.8-1.7-1.2-3.6c0.9-3,2-6,3.7-8.7c2-3.3,3.1-7.2,4.6-10.7c2-4.5,3.8-9,5.7-13.5
		c0.9-2,1.7-4.1,2.3-6.2c0.9-2.6,2.1-4.9,3.8-7c0.7-0.7,1.3-1.5,1.5-2.5c0.9-3.6,2.2-6.9,4.4-10.2c-1.3-1.2-2.4-2.2-3.7-3.3
		c2-0.4,3.8-0.7,5.4-1.1c4.1-1,8.3,0,12.3-1.3c0.7-0.2,1.5-0.1,2.2-0.1c7.5,0,15,0,22.4,0c0.7,0,1.5-0.1,2.2,0.1
		c2.6,0.9,5.3,0.6,8,0.7c2.5,0.1,5.1,0.1,7.6,0.5c2.6,0.4,5.3,0.5,8,0.9c4.4,0.7,8.9,1.2,13.4,1.9c3.7,0.6,7.3,1.6,11.2,1.9
		c3.4,0.2,6.7,0.9,10.1,1.5c0.8,0.1,1.3,0.6,1.7,1.2c1.9,2.5,3.8,5.1,5.6,7.7c1,1.6,2.2,2.9,3.6,4.1c3.3,3,5.8,6.5,8.4,10.1
		c2,2.6,4,5.2,6.3,7.5C580.7,126.5,583.7,130.1,586.4,133.8z M644.2,49.4c-0.3,0.7-1.1,0.1-1.6,0c-1.7-0.6-3.5-1.1-5.2-1.7
		c-4.3-1.5-8.6-2.3-13.2-2.1c-2.3,0.1-4.6,0.1-7,0c-2.2-0.1-4.3,0.7-6.5,1c-0.9,0.1-1.7,0.8-2.5,1.4c-2.2,1.5-4.4,3-6.7,4.4
		c-2.3,1.5-4.9,2.1-7.6,2c-4.3-0.1-6.9-4.5-5.2-8.4c1.5-3.3,3.8-5.7,6.7-7.5c2.6-1.7,5.5-3,8.9-3.2c1.8-0.1,3.6-0.9,5.3-0.6
		c2.5-0.3,4.6,0.5,6.9,1c2.5,0.5,4.9,1.4,7.3,2.1c2.2,0.7,4.3,1.7,6.2,3c2.9,1.7,6,3.1,9.1,4.7c1.4,0.7,2.8,1.6,4.1,2.4
		C643.8,48.1,644.6,48.6,644.2,49.4z M748.4,261.4c-3,5.2-7.7,8-14.7,8.1c-0.7,0.1-2-0.3-3.4-0.7c-6.4-2.2-11.2-6.2-14.4-12.3
		c-2.9-5.4-4.4-11.3-5.2-17.3c-0.1-0.9-0.3-1.7-0.7-2.5c-1.2-2.5-2-5.2-2.6-8c-0.8-3.2-1.7-6.4-3.1-9.4c-0.3-0.5-0.4-1.2-0.6-1.7
		c-0.2-1.5-1.8-2.7-0.7-4.4c1.6,0.6,1.7,2.2,2.4,3.4c3.3,4.9,6.6,9.9,10.9,14.2c2.5,2.5,4.7,5.2,7.8,7c0.5,0.3,1,0.7,1.6,0.9
		c5.4,2.8,10.7,5.7,16.3,8.4c2.4,1.2,4.2,2.9,5.9,4.8C750,254.5,750.2,258.3,748.4,261.4z M776.2,156.2c-0.8,7.8-3,15.1-5.9,22.3
		c-0.6,1.5-1.2,3-1.8,4.4c-4.2,9.4-6.9,19.4-9.8,29.2c-0.8,2.8-1.2,5.7-1.9,8.6c-0.5,2.2-1.1,4.3-1.7,6.4c-1.1,4-3.6,7.2-6.4,10.2
		c-1.7,1.8-3.9,2-6.1,1.5c-1.3-0.3-2.5-0.9-3.7-1.5c-9.4-4.8-17.1-11.5-23.1-20c-7-10-12.2-20.9-13.9-33.2
		c-0.9-6.7-1.3-13.4-1.6-20.1c-0.3-8.1,0.2-16.2,0.9-24.2c0.7-7.9,1.1-15.9,1-23.8c0-3.9-0.4-7.8-0.7-11.8c-0.1-1.5-0.4-2.9-0.9-4.3
		c-1.7-5.5-4.1-10.7-7-15.7c-0.4-0.7-0.9-1.1-1.6-1.5c-1-0.7-2.1-1.2-3.1-2c-0.9-0.7-1.7-1.4-2.5-2.2c-2.9-2.8-2.2-6.9,0.8-8.9
		c2.8-2,6-3.4,9.4-4.1c3.8-0.7,7.5-0.3,11.2,1.2c6.7,2.8,12.7,6.7,17.3,12.6c4.5,5.7,7.6,11.9,10.2,18.6c1.1,2.8,2,5.8,3,8.7
		c0.2,0.6,0.2,1.2,1.3,1.9c0.9-4.4,2-8.7,2.8-13c0.4-2.2,0.2-4.4,0.1-6.6c-0.1-1.6-0.2-3.2-0.3-4.9c0.9,0.7,1,1.5,1.2,2.2
		c2.7,10.1,3.6,20.2,1.5,30.6c-0.7,3.9-1.5,7.9-2.1,11.8c0.9,0.3,1.2-0.3,1.6-0.7c1.7-2.1,3-4.5,4.3-6.8c0.6-1.1,1.2-2.1,1.9-3.1
		c0.1-0.1,0.4-0.2,0.7-0.1c0.1,0.1,0.3,0.4,0.4,0.5c0.1,0.4,0.1,0.7,0,1.1c-0.1,0.9-0.3,2-0.4,2.9c-0.7,3.5-1.3,7-1.2,10.6
		c0.1,1.2-0.1,2.5-0.4,3.6c-0.8,5.4-1.2,11-1.6,16.5c-0.1,1.3-0.3,2.7,0.1,4c0.9,0.6,1.7,0,2.5-0.3c3.8-1.3,7.7-2.5,11.8-2.2
		c1.3,0.1,2-0.6,2.7-1.6c1.7-2.5,3.5-5,5.3-7.5c1.1-1.5,1.7-3.3,2.3-4.9c0.3-0.8,0.6-1.6,0.9-2.4c0.1-0.4,0.4-0.7,0.8-0.4
		c0.1,0.1,0.4,0.4,0.4,0.5c0.1,1.1,0.2,2.2,0.2,3.3c0,2,0.2,3.9,0.7,5.8C776.6,150.1,776.5,153.1,776.2,156.2z M806.6,108.4
		c-1.4,1.6-2.2,3.5-3.3,5.2c-3.7,5.6-7.7,11-11.7,16.3c-1,1.4-2.3,2.5-3.6,3.6c-0.8,0.8-1.7,0.8-2.7,0.2c-1.2-0.7-2-1.7-1.7-2.9
		c0.3-1.5,0.8-2.8,1.1-4.2c0.4-1.6,0-2.1-1.5-2.8c-0.6-0.2-1.2-0.4-1.7-0.7c-1.2-0.7-2.5-0.7-3.9-0.3c-4.6,1.6-9.3,3-13.8,4.8
		c-2.8,1.1-5.2,1.2-7.5-0.9c-2.2-2.1-2.9-4.7-2.1-7.7c0.4-1.3,0.7-2.5,1.2-3.8c0.9-2.8,1.5-5.6,2-8.5c0.2-1.6,0.2-3.2,0.2-4.7
		c0.1-2.5-0.1-5.1,0.6-7.6c0.4-1.6,0.1-3.4,0.1-4.5c0.4-4.9-0.7-8.9-1.8-12.8c-0.9-3.5-0.1-6.2,2.7-8.5c1.9-1.5,4.2-2,6.5-1.7
		c1.8,0.2,3.6,0.7,5.3,1.2c5.2,1.5,5.1,1.5,8.9,5.3c1.9,1.9,3.8,3.8,5.7,5.7c2.5,2.4,4.4,5.2,6.6,7.8c3.3,4,6.2,8.5,10.2,12
		c1,0.9,1.8,2,3,2.6c0.4,0.2,0.8,0.6,1.1,0.9C808.7,105,808.8,105.9,806.6,108.4z"/>
</g>
</svg>
