<?xml version="1.0" encoding="utf-8"?>
<!-- Generator: Adobe Illustrator 24.0.1, SVG Export Plug-In . SVG Version: 6.00 Build 0)  -->
<svg version="1.1" id="Layer_1" xmlns="http://www.w3.org/2000/svg" xmlns:xlink="http://www.w3.org/1999/xlink" x="0px" y="0px"
	 viewBox="0 0 990 781.2" style="enable-background:new 0 0 990 781.2;" xml:space="preserve">
<style type="text/css">
	.st0{fill:#FFFFFF;}
	.st1{fill:#E4716B;}
	.st2{fill:#ADADAC;}
	.st3{fill:#535459;}
	.st4{fill:#D4880E;}
</style>
<g>
	<path d="M168,736c-0.8,1.5-0.8,3-1.1,4.4c-0.7,2.8-1.6,5.5-3.7,7.7c-0.3,0.3-0.5,0.7-0.7,1c-1.6,2.5-3,3.2-5.8,2.5
		c-6-1.5-11.3-4.4-15.5-9.1c-4-4.4-7.9-8.8-10.9-14c-0.9-1.6-2.2-2.7-3.8-3.6c-8.4-4.5-13.8-11.8-18.5-19.6c-0.4-0.7-0.7-1.6-1-2.4
		c-5.4-13.3-5.1-26.8-2.2-40.5c0.2-1.1,0.5-2.2,0.8-3.3c2.3-9.6,6.9-17.9,14.6-24.2c7.6-6.3,15.3-12.6,23.4-18.3
		c4.2-2.9,8.7-5.4,13.4-7.5c1.6-0.7,2.3-1.6,2.7-3.3c2.3-10.5,6.8-20.1,12.4-29.2c2-3.2,4.4-6.1,7.2-8.6c3.4-3,6.2-6.6,9.6-10.3
		c-5.8-2.8-11.2-6-16.1-9.7c-4.9-3.7-9.4-8-13.6-12.7c-0.6,1-0.4,1.9-0.2,2.7c0.4,2.3,1.4,4.4,2.6,6.4c0.9,1.4,1.8,2.8,2.7,4.3
		c1.1,2,1.1,4-0.3,5.8c-1.4,1.8-3.4,2.2-5.6,1.7c-1.6-0.4-3-1.2-4.2-2.2c-2-1.7-4.2-3.2-6.4-4.7s-4.2-3.2-6.2-4.9
		c-7.9-6.7-12-15.4-13.4-25.5c-1.1-8.4-0.4-16.7,0.8-25.1c1.2-9.1,3.3-18.1,4.8-27.1c0.5-3.2,0.9-6.3,1.5-9.5
		c1.1-5.9,3.3-11.3,6.2-16.6c2.7-4.9,5.6-9.7,7.8-14.9c2.4-5.7,2-4.8-1.4-8.7c-2.6-2.9-5.1-6-7.5-9.1c-7.2-9.6-10.9-20.5-11.6-32.5
		c-1.4-24,4.7-46,16.9-66.6c6.9-11.7,15-22.5,24.1-32.5c5.2-5.7,10.4-11.5,15.8-17.1c3.9-4,6.6-8.8,8.5-14c3.6-9.9,6.6-20,8.5-30.4
		c1.7-9.7,5.9-18.4,12.1-26c1.9-2.3,3.1-4.8,3.9-7.6c3.4-12.5,7-24.9,11.5-37.1c4.6-12.2,9.7-24.2,16.3-35.5
		c8.1-13.7,18.1-26,30.7-35.9c8.3-6.5,17.5-11.1,27.3-14.8c4-1.5,7.9-3.1,11.8-4.6c0.6-0.2,1.2-0.5,1.8-0.5
		c6.4-0.8,12.3-3.3,18.6-4.7c1.5-0.3,1.6-0.6,0.6-1.9c-0.9-1.2-1.4-2.5-0.7-4c0.8-1.6,2.4-1.9,3.9-1.7c5.7,0.9,11.4,1.8,16.7,4
		c0.6,0.2,1.1,0.7,1.8,0.7c0.1,0,0.1-0.1,0.3-0.2c-0.2-0.9-1-1.3-1.6-1.8c-0.7-0.5-1.5-0.9-2.2-1.5c-2.1-1.8-1.6-5,1-6
		c1.4-0.5,2.8-0.5,4.3-0.5c2.6,0,5.3,0.2,7.9-0.4c1-0.2,2,0.1,3.1,0.4c3.1,0.9,6.2,1.7,9.2,2.6c2,0.5,4,1.2,5.9,2.1
		c2.7,1.3,5.5,2,8.4,2.8c1.2,0.3,2,0.1,2.7-0.9c1.2-1.7,2.9-2.9,4.7-4c6.9-4.3,14.5-6.6,22.5-7.8c9.1-1.4,18-0.9,26.9,1.2
		c5.9,1.4,12,1.7,17.9,3.1c3.6,0.8,7.1,1.8,10.8,2.4c5.5,0.9,11,1.2,16.5,1.3c14.9,0.3,29.7,0,44.6-0.5c4.2-0.1,8.3-0.7,12.5-0.5
		c5.9,0.2,11.5,1.7,17.3,2.7c5.5,1,11,2,16.4,3.5c0.8,0.2,1.6,0.3,2.4,0.2c5.8-1.4,11.8-2.4,17.2-5.1c1.5-0.8,3-1.6,4.3-2.6
		c2.4-1.9,5.2-3.2,8.1-4c2.5-0.7,5.1-1.4,7.7-2c2.3-0.5,4,0.1,5.1,1.7c1.1,1.7,0.9,3.4-0.5,5.3c-1.3,1.9-1.3,3.5,0.1,5.4
		c0.3,0.5,0.8,0.5,1.3,0.4c0.8-0.3,1.7-0.5,2.5-0.8c3.7-1.5,7.5-2.2,11.5-2.2c5.9,0.1,11.8,0,17.7,1c0.8,0.1,1.6,0.3,2.3,0.5
		c1.2,0.3,2.2,0.9,2.5,2.3c0.3,1.4-0.3,2.5-1.5,3.3c-1.9,1.2-3.8,2.3-5.7,3.5c-1,0.7-2.8,1.1-2.5,2.4c0.2,1.1,2.1,0.8,3.2,1
		c16.8,3.4,32.9,8.6,47.7,17.5c5.6,3.4,10.8,7.4,15.5,12c6.8,6.5,13.6,13.1,19.5,20.5c7.5,9.4,13.7,19.5,17.5,30.9
		c2.3,7,3.1,14.2,3.7,21.4c0.7,8,0.8,16.1,1.4,24.2c0.1,1.7,0.4,3.3,0.7,5c1.2,5.5,2.4,11.1,3.7,16.6c0.8,3.5,2.2,6.7,4.3,9.6
		c1,1.4,1.9,2.8,2.7,4.2c2.9,5.1,6.2,9.9,10.3,14.1c5.3,5.5,8.9,12.1,11.8,19c3.5,8.2,6.7,16.4,10.4,24.5c2.9,6.4,4.2,13.2,4.5,20.2
		c0.1,2.2,0.7,4,1.9,5.8c8.6,13.5,17.2,27,26.7,39.9c7,9.5,12.1,19.9,15.4,31.2c3.1,10.5,6.1,21,7.4,32c1.6,14.5,0.5,28.9-3.5,43
		c-3.1,11-7.5,21.4-13,31.4c-3,5.5-5.8,11-8.1,16.8c-0.8,1.9-0.9,3.7-0.2,5.6c4.6,12.3,4.8,24.8,2.2,37.5
		c-2.1,10.1-5.2,19.9-9.5,29.4c-4.9,11-11.6,20.8-20.8,28.8c-2.1,1.8-4.4,3.4-6.8,4.9c-0.6,0.4-1.5,0.6-1.8,1.5
		c0.3,0.7,1,0.5,1.5,0.6c6.2,1.2,12.2,3.2,18.2,5.3c14.2,4.9,26.2,13.5,38.3,22c0.6,0.4,1.1,0.9,1.5,1.5
		c5.7,7.2,11.1,14.7,15.6,22.7c2.2,4,4.2,8.1,5.3,12.5c0.8,3.2,0.6,6.5,0.2,9.8c-1.1,9.6-4,18.7-7.4,27.7c-1.4,3.6-3.8,6.7-6.1,9.7
		c-3.7,4.7-7.8,8.9-13.2,11.7c-1.8,0.9-3.1,2.3-4.1,4c-3.1,5.4-7.2,10-11.4,14.4s-9.4,7.1-15.4,8.3c-2.1,0.4-3.6-0.5-5-2.1
		c-3.2-3.9-4.8-8.4-5.4-13.3c-1.2,0-1.7,0.8-2.3,1.4c-2.1,1.9-4.1,3.8-6.1,5.8c-0.9,0.9-2,1.6-3.1,2.3c-3.2,1.8-6.5,1.2-8.7-1.7
		c-1.1-1.3-1.7-2.9-2.2-4.5c-1.2-3.6-1.8-7.3-1.4-11.1c0.2-2.2-0.5-3.7-2.5-4.7c-1.5-0.8-2.9-1.7-4.4-2.4c-3.9-1.7-6.4-4.6-7.9-8.6
		c-0.1-0.2-0.2-0.5-0.2-0.7c-0.8-2.2-1.6-2.4-3.3-0.7c-1.8,1.8-3,4-3.7,6.4c-1.2,4-3.2,7.7-5.8,11c-1.5,1.9-3.3,3.5-5.1,5
		c-3.3,2.7-8.5,1.6-10.8-1.8c-1.7-2.5-2.8-5.2-3.4-8.1c-0.2-1.2-0.4-2.4-0.5-3.6c-0.2-1.9-1.1-3.4-2.8-4.2
		c-5.6-2.7-9.6-7.4-13.9-11.6c-1.1-1.1-2.1-2.3-2.6-3.7c-0.4-1.2-1.1-1.4-2.2-1.4c-0.6,0-1.3,0-1.9,0c-154,0-308.1,0-462.1,0
		c-0.5,0-1,0.1-1.4,0c-1.5-0.2-2.4,0.4-2.9,1.8c-0.1,0.4-0.4,0.9-0.7,1.2c-4,4.7-8.1,9.2-13.5,12.5c-0.6,0.4-1.2,0.7-1.9,1.1
		c-1.8,1-2.8,2.4-3,4.6c-0.3,3.8-1.2,7.4-3.3,10.6c-1.6,2.4-3.7,3.9-6.7,4.1c-1.6,0.1-3-0.3-4.3-1.2c-5.4-3.9-8.9-9.1-11-15.3
		c-0.7-2.1-1.4-4.3-2.9-6c-0.4-0.4-0.7-0.9-1.1-1.3c-1.9-1.7-2.6-1.6-3.4,0.9c-1.4,4.3-4,7.4-8.2,9.1c-1.7,0.7-3.2,1.8-4.8,2.7
		c-1.4,0.8-2,1.9-1.8,3.6c0.4,3.9-0.1,7.7-1.3,11.4c-0.5,1.5-1.1,3-1.9,4.4c-2.3,3.5-6.1,4.3-9.6,2.1c-2.8-1.8-5-4.2-7.4-6.4
		C170.3,738,169.4,736.9,168,736z"/>
</g>
<g>
	<path class="st0" d="M505.3,520.9l0.4-0.1l0.4,0.2c1.3,0.6,2.7,0.6,3.9,0l0.3-0.2l0.4,0.1c1.3,0.2,2.5,0,4-0.7
		c6.3-2.8,11.3-5.5,15.5-8.7c3.1-2.3,6.1-4.6,8.3-7.7c0.3-0.4,0.9-1.1,1.7-1.5c1.8-0.7,3.1-2.3,4.3-3.6c1.7-2,3.7-4.3,6.5-6.2
		l0.5-0.3c0.1-0.9,0.7-1.6,1.4-2.2c0.2-0.2,0.6-0.6,0.8-0.8c5.3-5.1,10.5-10.2,14.6-16.3c2.4-3.6,5.8-6.1,9.5-8.2
		c5.7-3.1,11.5-6.3,17.6-8.6c4.7-1.9,9-4.5,13-7.8c0.7-0.6,1.4-1.4,2.2-2.1l-0.4-0.8c-0.4-0.8-0.9-1.6-1.4-2.4
		c-0.4-0.6-0.8-1.3-1.1-1.9c-0.8-1.7-2.6-2.8-5.3-3.5c-3.9-0.9-8.1-0.9-12.8,0.1c-1.2,0.2-2,0.6-2.7,1.3c-1,1.1-2.2,1.8-3.3,2.5
		c-0.5,0.3-0.9,0.6-1.4,0.9c-0.7,0.4-1.3,0.8-2,1.1l-0.7,0.3c-1.9,3.9-4.6,7.3-7.9,10.3c-5.7,5.1-11.6,9.8-18.4,13.2
		c-1.7,0.9-2.9,2.1-3.6,4.1c-1.6,4.5-3.9,8.7-6.8,12.5c-3.9,5.2-8.7,9.4-14,13.2c-3.8,2.8-8.1,4.7-12.6,5.9c-8.5,2.2-17,2-25.6,0.3
		c-10.4-2-19.9-6.5-29.6-10.4c-0.8-0.3-1.5-0.8-2.2-1.3c-4.4-2.9-8.7-5.9-12.6-9.4c-4.7-4.3-8.9-8.9-11-15.1
		c-0.9-2.8-2.3-5.3-3.8-7.9c-1.6-2.4-3.2-4.8-5.5-6.8l-1.5-0.1c-6.2-0.6-12.6,0.5-19.7,3.5c-2,0.8-3,2.3-3,4.6
		c0,1.4-0.3,2.6-1.1,3.9l-0.3,0.5c2,2.8,4,5.6,6,8.6c0.5,0.7,1,1.5,1.9,2c8,5.1,16.2,9.5,25.5,12.2c5.1,1.5,10.3,3,14.4,7.1
		c2,2,4.1,3.6,5.6,5.9c0.5,0.8,1.1,1.7,1.6,2.6l1.4,0.5c3.1,1.1,5.6,2.2,7.8,3.4c7.2,4,15.1,7.6,24,10.9c3.5,1.3,7.5,2.1,11.7,2.5
		l2.2,0.4C503.4,520.9,504.4,521.1,505.3,520.9z"/>
	<path class="st0" d="M640.2,339.8C640.2,339.8,640.2,339.7,640.2,339.8c-0.1-0.2-0.1-0.4-0.2-0.5c0-0.1-0.1-0.1-0.1-0.2
		c-0.3-0.5-0.6-1-0.9-1.5c-0.5-0.9-1.1-1.8-1.8-2.6c-0.6-0.8-1.2-1.7-1.7-2.6c-0.6-1.1-1-2.2-1.1-3.5c0-0.2-0.1-0.4-0.2-0.5
		c-0.3-0.8-0.9-1.3-1.7-1.8c-2.4-1.4-5-2.3-7.5-3.1c-5.2-1.7-10.4-3.1-15.5-5.1c-3.9-1.5-7.2-3.6-9.7-6.9c-0.7-0.9-1.6-1.6-2.7-2
		c-3.8-1.4-6.7-3.8-9.1-6.8c-1.1-1.3-2-2.9-2.8-4.6c-1.9-4.4-2.2-9.8,1-14.6c0.7-0.9,0.7-1.9,0.5-2.9c-0.1-0.6-0.2-1.1-0.4-1.6
		c-1-3-3.2-5.2-5.9-6.9c-5.7-3.8-11.3-7.6-18.2-9.1c-3.1-0.8-5.4-2.8-7.3-5.4c-1.2-1.8-2.2-3.6-3-5.6c-0.4-0.9-0.8-1.8-1.1-2.6
		c-1.4-3.4-2.7-6.8-4.1-10.2c-0.6-1.3-1.1-2.5-1.7-3.6c-0.8-1.6-1.6-3.1-2.5-4.6c-0.8-1.2-1.7-2.2-3.4-2.1c-4.3,0.2-7.9-1.6-9.5-5.2
		c-0.1-0.1-0.1-0.2-0.2-0.3c-1-2.4-1.7-4.8-1.8-7.3l-2-5.2c-0.3-0.9-0.7-1.7-1-2.4l-0.2-0.4v-0.4c0-0.1-0.1-0.1-0.1-0.2l-0.5-0.9
		l0.2-0.6l-0.3-0.3v-1.9l-0.5-0.8l0.2-1c0.1-0.3,0.1-0.7-0.2-1.4l-0.1-0.4v-0.4c0-0.2,0-0.5,0-0.7c0-0.4,0-1,0-1.2l-0.1-0.4
		l-0.3-0.6l0.1-0.7c0.2-1.3,0.2-2.6,0.1-4.1c-2,0.3-3.8-0.6-5.2-2.6c-0.7-1-1.4-2.1-2.2-3c-1.7-2.3-2.7-4.9-2.4-7.9
		c0.1-1.9,0-3.7,0.1-5.6c0-0.7-0.1-1.5,0.9-2c1,1.6,0.7,3.7,1.9,5.7c0.5-0.7,0.3-1.3,0.3-1.9c-0.1-5.2,0.1-10.3,0.5-15.4
		c-0.1,0.2-0.2,0.4-0.4,0.6c-1.2,1.7-3.1,2.8-5.1,2.9c-2.2,0.1-4.2-0.9-5.7-2.7c-1.2-1.5-2.1-3-2.7-4.7c-1.2-3.6-3.9-6.3-6.4-8.8
		c-0.5-0.5-1-0.8-1.3-0.8s-0.7,0.4-1.1,1.1l-0.3,0.4c-1.5,2.4-2.9,4.6-3,7.2c0,0.4,0,1.2-0.5,1.7c-0.8,1.2-1.4,2.7-2,4.2
		c-0.5,1.4-1.1,2.8-1.9,4.2c-1.1,1.7-2.6,2.5-4.5,2.5c-1.3-0.1-3-0.7-4.1-3c-0.7-1.7-1.3-3.7-0.9-6.1c0.6-3.3,0.3-6.1-0.9-8.5
		c-0.9-1.7-1.4-3.6-1.8-5.5c-0.2,0.2-0.4,0.5-0.7,0.7c-0.5,0.7-1.2,1.1-1.7,1.4c0.9,1.4,1.1,3.1,0.9,4.9c-0.6,4.6-2.3,8.6-4.4,12.5
		l-0.7,4.1c-0.1,0.7-0.3,1.5-0.5,2.4c-0.4,1.6-0.8,3.3-1.1,4.9c-0.4,2.1-0.9,4.2-1.5,6.3v2.1c2.9,1.1,3.9,2.9,3.5,5.9
		c-0.2,1.3-0.8,2.4-1.5,3.6c-2.5,4.2-3.8,8.8-4.2,13.8c-0.1,2-0.3,3.9-0.5,5.9c-0.2,2.5-1.4,4.7-3.2,6.4c-1.9,1.6-3.7,3.1-5.9,4.3
		c-2.7,1.4-4.5,3.6-6.4,5.9c-0.6,0.8-1.2,1.6-2,2.3c-0.7,0.6-1.5,0.9-2.2,0.9c-0.7,4.1-2.2,8-4.3,11.5c-0.2,0.3-0.4,0.6-0.5,0.9
		c-0.1,0.1-0.2,0.2-0.2,0.3l-0.1,0.1c-0.1,0.1-0.1,0.2-0.2,0.3l0.3,0.3l-2.2,2.2l-1.3,1.1c-1.1,2.3-2.2,4.7-3.4,7
		c-3.5,6.8-8.8,11.5-16.3,13.4c-3.4,0.8-6.3,2.5-8.7,5c-1.6,1.6-3.2,3.1-5,4.5c-2.2,1.7-3.7,3.9-4.9,6.5c-2,4.3-2.9,8.9-2.7,13.4
		c0.3,4.7-1.6,8.5-4.1,12.2c-0.9,1.4-2.2,2.5-3.5,3.6v2.3c0,0.7-0.2,1.4-0.3,1.9c-2.3,9.2-5.7,21.3-11.5,32.7c0,0.1-0.1,0.2-0.1,0.3
		c0.5-0.9,1-1.8,1.4-2.8c1.4-3.1,4.4-4.6,7.2-6.4c0.2,0.5,0.2,0.6,0.2,0.6c-0.1,0.3-0.2,0.7-0.5,1c-3.5,5.6-5.2,11.6-6.7,17.8
		c-1.2,4.4-0.6,8.8,0.2,13c1,5.7,2.9,11.3,5,16.7c3,7.6,7.9,13.8,16,16.7c1.7,0.6,3.4,1.3,5,2c1.3,0.6,2.6,1,4,1.3
		c0.3-1.1,0.8-2.2,1.4-3.2c0.6-0.9,0.8-1.4,0.8-2.2c-0.8-5.3,2.8-8.1,6-10.5l0.2-0.1c1.1-1,2.5-1.5,3.6-1.8c3.6-1,7-2.7,10.3-4.4
		c1.7-0.8,3.4-1.7,5.1-2.5c0.5-0.3,1-0.6,1.3-0.9c4.2-4,8.4-8.3,11.1-13.8c1.5-3.1,2-6.3,1.7-9.4c-0.2-2.8-2-5-3.9-7.1
		c-2.1-2.4-4.6-4.7-7-7c-0.8-0.7-1.6-1.5-2.4-2.2c-5.5-5.3-11.6-11.8-13.8-20.8c-0.1-0.4-0.2-0.6-0.4-1c-0.4-0.9-1.1-2.3-1.4-2.5
		c-0.3-0.1-1.5,0.5-2.5,1c-2.3,1.1-4.8,1.9-7.8,2.4c-2.3,0.4-4.1,1.1-5.6,2.2c-2.4,1.7-5,1.9-7.4,0.7c-1.7-0.8-3.6-2.6-3.6-6.6
		c0-2.6,0.9-4.9,2.8-7.4c0.1-0.2,0.3-0.4,0.5-0.6c0.4-0.6,0.9-1.1,1.1-1.7c2.5-5.3,5.9-9.8,10.1-13.5c1.2-1.1,1.2-1.6,0.7-2.6
		c-0.8-1.7-1-3.7-0.3-6.1c1.9-6.8,6.1-11.9,12.5-15.3c3.3-1.8,7.2-2.1,9.8-2.2c1.1-0.1,1.7-0.3,2.3-0.9c1.6-2,3.8-3,5.6-3.6
		c3.1-1.1,7.3-2.3,11.7-2.1h0.9c5.5-4.4,11.7-7.5,18.5-9.8c8.7-3,17.7-3.2,26.9-2.8c0.7,0.1,1.4,0.1,2.1,0.2c1.9,0.2,3.7,0.7,5.6,1
		c2.2,0.2,4.3,0.7,6.4,1.4c0.3,0,0.6,0.1,0.9,0.1c1.2,0.2,2.2,0.5,3.2,0.7c6,1.4,11.5,4.1,16.4,7.8c1.3,0.9,2.7,1.7,3.9,2.7
		c0.9,0.7,1.9,1.3,2.8,2c1.7-1,3.3-1.5,5-1.4c0.4,0,0.9,0,1.5,0.1c2.4,0.6,4.3,1.4,5.8,2.5c3.7,2.6,7.8,4.8,11.6,6.8
		c4.9,2.5,8.2,6.1,9.9,10.7c0.1,0.3,0.2,0.6,0.3,0.9c0.4,1.1,0.9,2.4,0.8,3.9c-0.1,2.3,0.5,4.5,1.2,6.8c0.8,2.9,0.5,6-1,8.7
		c-1.4,2.5-3.6,4.3-6.2,5c-0.2,0.1-0.7,0.3-1.2,0.3h-0.2c-2.1-0.4-2.9,0.2-3.5,3c-1,4-2.1,8.5-3.1,13.5c-2.1,9.7-6.5,17.9-13.5,25.1
		c-1.2,1.4-2.7,2.3-4.1,3.3c-1.1,0.7-1,1.1-0.9,1.3c0.6,2,0.5,4,0.4,6c0,0.6,0,1.2,0,1.9c0,1.3,0.4,2.3,1.1,3
		c6.4,6.3,14.3,13,25,15.6c9.7,2.3,19,2.3,27.7,0c2.6-0.7,5-1.9,7.7-3.4c3.6-2.1,6.9-2.3,9.8-0.4c2.8,1.7,4.2,4.6,4,7.5
		c3-3.5,5.4-7.4,7.4-11.7c0-0.1,0.1-0.2,0.1-0.3c0.6-1.3,0.8-2.7,1-4.1c0.9-5.4,2-10.9,3-16.3c0.5-2.2,0.7-4.3,0.5-6.4
		c-0.1-1.4-0.5-2.8-1.2-4.2c-0.5-0.9-1.2-1.7-1.2-2.8c0.9-0.3,1.2,0.2,1.5,0.7c2,2.8,4.1,5.6,6,8.5c2,2.8,3.7,5.8,4.2,9.4
		c0.2,1.6,1.4,2.9,2.3,4.3c0.2-0.2,0.4-0.3,0.5-0.5c0.3-0.5,0.4-0.9,0.5-1.4c0.5-1.3,0.8-2.7,1.2-3.9c0.1-0.6,0.3-1,0.5-1.6
		c0.1-0.8,0.3-1.5,0.6-2.2c0-0.2-0.1-0.3-0.1-0.6c0-0.3,0.1-0.5,0.1-0.8C640.9,349.9,640.8,344.8,640.2,339.8z"/>
	<path class="st0" d="M635.3,454.2c-0.1-0.2-0.2-0.6-0.7-0.8c-2.2,0.9-4.6,2.2-7.2,1.7c-2.5-0.5-3.8,0.6-5.1,2.4
		c-3.4,4.9-7.8,8.5-13.8,9.4c-3.8,0.7-5.6,3.4-6.6,6.5c-1.3,3.8-2.9,7.5-4.4,11.2c-2.2,5.2-3.7,10.5-4.1,16.2
		c-0.3,5.1-1.3,10.2-2.8,15.2c-0.3,1.2-0.5,2.3-0.2,3.6c0.7,4.9,1.3,9.8,0.9,14.8c-0.6,7.9-3.6,14.5-9.3,19.9
		c-3.6,3.4-6.9,6.9-10.4,10.3c-1.7,1.7-3.7,3.5-5.6,5.1c-0.6,0.6-1.2,0.9-1.9,1.3s-1.5,0.2-2.1-0.3s-0.6-1.4-0.2-2.1
		c0.2-0.5,0.6-0.9,0.9-1.4c3-4.1,6-8.1,9-12.2c2-2.7,3.7-5.6,5.1-8.7c0.2-0.6,0.7-1.2,0.5-2.2c-0.6,0.8-1,1.4-1.5,2
		c-3.6,4.6-7.5,9-11.7,13.2c-4.6,4.5-10.1,7.4-16.6,8.1c-1.4,0.2-2.7,0.5-3.9,0.6c-3.1,0.3-5.4,1.9-6.6,4.9c-0.6,1.5-1.3,3-2,4.4
		c-1.4,3-3.7,4.6-6.3,4.5v0.3c0,1.1,0,2.1,0.3,3.1l0.2,0.5l-0.2,0.4c-0.1,0.1-0.1,0.3-0.1,0.3v0.1c-0.1,0.8,0,1.2,0.3,1.6l0.2,0.3
		v8.8l-0.3,0.3c-0.2,0.2-0.3,0.3-0.1,1.1l0.1,0.3l-0.1,0.3c0,0.1,0,0.2-0.1,0.4c0,0.2-0.1,0.5-0.1,0.7c-0.2,1.1-0.4,2.2-0.4,3.2v0.7
		l-0.3,0.1v0.1l-0.1,0.5c-2,6.3-4,12.9-7.4,18.8c-0.3,0.6-0.5,1.3-0.7,2.2c-0.1,1.3,0,2.8,0.1,4.4v0.5l-0.3,0.4
		c-0.4,0.5-0.5,1-0.6,1.9c0,0.5-0.1,1-0.2,1.5c-1.5,5.1-3.9,9.9-6.2,14.5l-0.3,0.4c-0.5,0.7-0.9,1.4-0.9,2v0.2l-0.1,0.2
		c-0.2,0.5-0.5,0.9-0.7,1.3c-0.5,0.9-1,1.8-1.1,2.8l-0.1,0.6l-0.5,0.3c-1,0.6-1.3,1.7-1.7,2.9c-0.1,0.3-0.2,0.7-0.3,1
		c-1.5,4-2.9,8.3-3.3,12.8c0,0.1,0,0.4-0.1,0.7c0,0.1,0,0.3,0,0.4v0.3l-0.1,0.2c-0.2,0.4-0.4,0.8-0.5,1.1h64l0.6-1.4
		c0.6-1.4,1.2-2.8,2.1-4c1.4-1.9,2.3-4.1,3.3-6.4c0.8-1.9,1.7-3.9,2.9-5.8l0.2-0.4c0-0.5-0.1-0.8-0.4-1.1l-0.2-0.2l-0.1-0.2
		c-0.1-0.1-0.3-0.3-0.5-0.6c-0.2-0.5-0.5-1-0.7-1.5c-0.9-2-1.8-3.9-3.5-4.9c-2.7-1.6-4.3-3.9-5.8-6.2c-0.8-1.1-1.5-2.2-2.4-3.2
		c-0.5-0.5-0.6-1.1-0.7-1.5c0-0.1,0-0.1,0-0.2c-0.4-0.9-0.7-1.8-0.9-2.6l-0.2-0.6c-0.7-2.2-1.6-4.9-2.2-7.9
		c-0.3,1.1-0.5,2.1-0.6,3.2c-0.3,2.3-1.3,4.1-2.7,5.8c-5,5.9-8.8,12.3-10.5,19.9c-0.1,0.3-0.2,0.6-0.7,0.7c-0.7-0.7-1-1.7-1.4-2.8
		c-5-13.9-5.4-28-0.9-42.1c2.3-7.5,6.5-13.7,13-18.2c2.7-2,5.6-3.8,8.5-5.4c1.2-0.7,2.3-1.5,3.4-2.4c3.8-3.7,8.2-6.5,13-8.7
		c2-0.8,3.9-1.9,5.8-2.9c0.8-0.3,1.5-0.8,1.7-1.7c1.2-3.5,3.4-6,5.8-8.6c2.8-2.9,4.9-6.1,6.4-9.8c2.5-6.5,5-13,6.9-19.6
		c0.7-2.5,1-5,0.9-7.5c-0.2-6.5,0.1-13,1.2-19.3c1.6-10.2,5.3-19.5,11.7-27.6c3.9-5,7.5-10.1,10.9-15.4c0.1-0.2,0.1-0.5,0.1-0.7
		c2-2.8,3.1-5.9,4.5-9c0.1-0.2,0.2-0.5,0.3-0.7c-0.1-0.2-0.2-0.3-0.3-0.6v0H635.3z"/>
	<path class="st0" d="M475.5,609.9c-0.1-0.6-0.5-1-0.9-1.6l-0.2-0.3c-3.3-3.8-6.5-7-9.7-9.7l-0.3-0.2l-0.1-0.4
		c-0.2-0.6-0.3-0.7-0.7-0.8l-0.5-0.1l-0.3-0.4c-0.4-0.6-0.8-1-1.2-1.4c-1.4-1.5-2.7-2.7-4.3-4l-0.4-0.3l-0.1-0.5
		c0-0.4-0.1-0.6-0.8-0.7l-0.4-0.1l-0.2-0.3c-0.9-1.2-1.6-2.1-2.3-2.8c-1.4-1.8-2.6-3-3.9-4c0.1,0.6,0.3,1.1,0.4,1.6
		c0.1,0.6,0.5,1.2,0,1.6c-0.6,0.6-1.3,0.2-1.9,0c-1.5-0.5-2.8-1.5-3.9-2.5c-3.2-3-6.5-5.9-9.7-8.9c-6-5.7-13.1-9.6-21-12.2
		c-2.7-0.9-5.1-2-7.1-3.9c-2.8-2.7-5.6-5.4-8.1-8.5c-2-2.3-3.6-5-4.7-7.9c-0.2-0.6-0.5-1-0.6-1.6c-0.1-0.7,0-1.4,0.7-1.7
		c0.7-0.5,1.4-0.2,1.9,0.2c0.5,0.3,0.7,0.8,1,1.3c1.6,2.4,3.7,4.4,6,6.3c6.6,5.2,13.5,9.4,22.2,9.7c1,0.1,2.3,0.9,2.9-0.1
		c0.5-0.8-0.5-1.9-0.8-2.8c-0.1-0.5-0.5-0.8-0.8-1.2c-2-2.2-4.1-4.4-6.6-6c-3.5-2.2-6.4-4.9-9.4-7.6c-3.4-3.1-6.5-6.5-9.6-9.8
		c-5.1-5.3-10.1-10.8-15.3-16c-3.8-3.9-5.8-8.6-5.6-14.1c0.1-3.1,0-6.4-0.1-9.5c-0.2-4.6-1-8.8-2.7-12.7c-2.1-5-5.3-9.4-10.2-13
		c-1.4-1-2.7-2.2-4.7-2.5c0.1,3.4,0.1,6.5,1,9.6c1.2,3.8,2.3,7.6,3.7,11.5c0.2,0.6,0.3,1,0.6,1.6c1.4,3.6,1.4,7.3-0.2,10.9
		c-0.6,1.4-0.9,3-2.1,4.2c-0.8,0.8-0.7,1.9-0.5,2.9c1.9,9.4,3.1,19,5.3,28.4c2.5,10.9,7.8,20.1,15.4,28.3
		c5.3,5.8,11.6,10.4,18.2,14.5c6.8,4.2,13.5,8.3,20.3,12.6c6,3.7,11.3,8.1,16.6,13c3.4,3.1,6.2,6.6,8.9,10.2h0.3
		c1.7-0.1,3.5,0.2,5.2,1c0.6,0.3,1.1,0.6,1.7,0.9c2.2,1.1,4.3,2.2,6.5,2.9l0.2,0.1h0.1c0.1,0,0.4,0.1,0.6,0.2c0.1,0,0.1,0,0.1,0.1
		c0.1,0,0.1,0,0.2,0.1c0.2,0,0.3,0.1,0.3,0.1l0,0c0.2,0,0.4,0.1,0.6,0.1h0.5l0.1,0.1h0.8c0.3-0.1,0.5-0.1,0.7-0.1
		c0.1,0,0.1,0,0.2-0.1c0,0,0.1,0,0.1-0.1l0.6-0.3l0.2,0.1l0.5-0.1c1.3-0.3,2.7-0.7,3.9-1.1c1.5-0.5,2.5-0.9,3.5-1.3l-0.3-0.2
		L475.5,609.9z"/>
	<path class="st0" d="M405.6,237.8c3.2-2.7,6.5-5.3,9.6-8.1c0.6-0.5,0.9-1.3,1.5-2c0.7-0.9,0.6-1.7-0.1-2.7c-1.7-2.2-3-4.9-4.2-7.5
		c-0.2-0.5-0.3-1.2-1.5-1.6c0.9,8.1-1.9,14.9-5.8,21.5C405.3,237.6,405.5,237.7,405.6,237.8z"/>
	<path class="st0" d="M394.4,222.4c0.5,0,0.9-0.2,1.4-0.3c0.7-0.2,1.3-0.5,1.9-0.7c2.4-0.9,3.4-2.3,3.2-4.9c0-1.6-0.3-3.1-0.8-4.6
		c-1.3-4.2-4.9-5.9-9-4.4c-2,0.7-3.1,2.1-4.1,3.7c-1.7,2.8-0.1,5.2,1.3,7.5C389.7,220.9,391.5,222.7,394.4,222.4z"/>
	<path class="st0" d="M358.5,230.1c1.7,0.6,3.5,1.3,5.1,2.2c0.9,0.6,1.9,1.5,3.6,1.9c-0.9-2-1.5-3.7-2.8-4.9
		c-2.2-2.1-3.4-4.7-3.9-7.8c-0.2-0.9-0.5-1.7-0.7-3c-2.4,3-3.2,6.1-3,9.6C356.9,229.3,357.6,229.7,358.5,230.1z"/>
	<path class="st0" d="M567.1,217.6c-0.7,1.2-1.3,2.4-2,3.5c-1.5,2.2-1.3,2.8,0.7,4.5c0.3,0.3,0.7,0.7,1.2,0.8
		c3.8,1.4,6.8,4.2,10.1,6.5c1.2,0.8,2.3,1.5,3.8,1.4c-7.1-5-11.9-11.1-11.6-20.4C568.4,215.2,567.7,216.4,567.1,217.6z"/>
	<path class="st0" d="M600,201c-3.1-1.4-6.1-0.5-8.1,2.4c-1.3,2-2,4.1-2.1,6.4c-0.3,5.8,3.9,10.3,9.7,10.3c2.7,0,4.9-1,6.4-3.4
		c1.6-2.7,2.1-5.6,1.5-8.7C606.4,204.1,603.3,202.5,600,201z"/>
	<path class="st0" d="M620.4,222.6c-1-1.7-1.3-3.8-2.9-5.6c-0.5,4.4-2.2,8-4.1,12.2c2.8-1.9,4.4-4.2,6.6-5.7
		C620.4,223.2,620.5,222.9,620.4,222.6z"/>
	<path class="st0" d="M397.3,634.6c-0.1-0.1-0.1-0.1-0.2-0.2c-0.3-0.3-0.7-0.7-0.7-1.4c-0.2-2.3-1.6-4.2-3.1-6.2c-0.7-1-1.5-2-2.1-3
		c-0.3-0.6-0.6-1.1-1-1.6c-0.8-1.3-1.6-2.5-2.1-4.1c-0.1-0.1-0.1-0.3-0.2-0.4c0-0.1-0.1-0.2-0.1-0.3c-0.3-0.5-0.7-0.8-1.3-0.9
		l-0.8-0.1l-0.2-0.8l-0.4,0.1l-0.9-0.9c-0.1-0.1-0.6-0.6-0.9-0.6h-0.9l-0.2-0.9l-0.4,0.1l-0.3-0.3h-0.6l-0.3-0.8
		c-0.1-0.2-0.1-0.3-0.1-0.3h-0.7l-0.3-0.5h-0.9l-0.2-0.9H378l-0.2-0.1H377l-0.4-0.8c0-0.1-0.1-0.2-0.1-0.3
		c-3.9-1.8-7.5-2.6-11.1-2.6c-0.3,0-0.5,0-0.8-0.1c-0.2,0-0.3,0-0.5,0h-0.3l-0.2-0.1c-0.2-0.1-0.4-0.2-0.5-0.4
		c-1.9-0.1-3.8-0.3-5.9-0.7c1.1,1.9,2,4.2,2.5,6.7c0.2,1.3,0.7,2.4,1.4,3.6c2,3.2,3.7,6.7,5,10.3c3.5,9.8,5.4,20,3.6,30.6
		c-1.3,6.9-3.4,13.7-6.7,19.9h35.3l0.2-0.6c0.6-1.9,1.2-3.8,2-5.7c0.5-1.4,0.9-3,1.2-5.3l0.1-0.6c0.4-3.8,0.9-7.3,1.1-11
		c0.2-3.5-0.7-7-1.6-9.9C400.4,640.6,399.3,637.4,397.3,634.6z"/>
	<path class="st0" d="M408.7,74.1l0.7,0.8h0.6l0.7,0.7l0.1,0.1h1l0.6,0.8h0.5l1.1,1.1c0.2,0.2,0.4,0.3,0.5,0.3l1.3,0.2l0.3,0.8
		l0.3,0.1l0.5,0.5l0,0h0.8l0.5,1l0.8,0.2l0.5,1c0,0,0.1,0,0.3,0.1l1,0.3l0.3,0.7l0.3,0.1l0.5,0.5c0.3,0.3,0.5,0.5,0.8,0.7
		c0.3,0.3,0.6,0.6,1,0.9l1.6,1.6c1.7-0.1,3.4-0.1,5.1-0.1c3.8,0.1,6.1,2.2,6.5,6c0.1,1.4,0,2.8,0,4.2c0.2,2.9,0,5.7-0.9,8.3l0.5,0.4
		c3.1,2.7,5.7,5.6,7.9,8.7c1.2-0.6,2.4-0.9,3.7-0.9c2.2-0.1,4.2,0.1,6.3,0.4c-0.5-2.5-0.8-4.9-1-7.3c-0.3-2.8-1-5.7-2.2-9
		c-1.4-3.1-1.9-6.2-1.7-9.4c0.2-2.5,1.3-4.5,3.1-5.9c1.8-1.3,4-1.8,6.4-1.4c2.3,0.5,4.2,1.3,5.9,2.4c5.9,3.7,12.1,8.1,16.6,14.7
		c0.1,0.1,0.1,0.2,0.2,0.3c0,0,0,0.1,0.1,0.1c0,0,0,0,0.1-0.1c2.9-2.6,7.4-2.7,10.4-0.3c1.8,1.5,3.6,3.3,5.5,5.6
		c2,2.5,4.8,3,7.7,3.7c0.6,0.1,1.3,0.3,1.9,0.4v-0.1c-0.1-2.6,1.2-4.7,2.5-6.5c0.5-0.7,0.9-1.4,1.3-2.1c0.7-1.2,1.5-2.4,2.4-3.5
		c2.3-3,5.1-6,8.9-9.7c4.2-3.9,8-7,12.6-9c3.7-1.6,7.3-2.3,11.2-2.2c1.9,0.1,3.5,0.7,5,1.8c1.9,1.6,2.6,3.7,1.9,5.8
		c-0.4,1.4-1,3.2-2.4,4.5c-0.6,0.6-1.2,1.2-1.8,1.8c-0.6,0.6-1.2,1.3-1.9,1.9c-0.9,0.9-1.4,2-1.8,3.6c-0.3,1.6-0.7,3.2-1.2,4.7
		c-0.4,1.5-0.8,3-1.1,4.4c0,0.2-0.1,0.4-0.1,0.5v0.3c-0.1,0.6-0.2,1.2-0.1,1.7l0.1,0.7l-0.5,0.4c0,0,0,0,0,0.1l0.3,0.5l-0.3,0.6v0.1
		c0,0.2-0.1,0.4-0.1,0.6l-0.1,0.2c0,0,0,0.1,0,0.2v2.9l-0.2,0.2v0.1l-0.1,0.4c-1.1,5.5-4.5,9.7-10.2,12.8c-0.2,0.1-0.5,0.3-0.7,0.5
		c-0.3,0.2-0.6,0.4-0.9,0.6c0,0,0,0-0.1,0c0,0.1,0.1,0.1,0.1,0.2c0.5,0.8,0.9,1.7,1.1,2.6c0.1-0.1,0.3-0.2,0.4-0.4
		c1.3-0.9,2.7-1.5,4.3-1.7c1.4-0.1,2.5,0,3.5,1.2c0.9,1.3,0.7,2.4,0,3.7c-1.2,1.9-2.2,3.7-3.2,5.6c-0.3,0.7-1,1.2-0.8,2.1
		c1,0.3,2,0.3,3,0.1l5.9-3.5l0.4-0.1c0,0,0,0,0.1,0l0.3-0.4l0.5-0.2c2.3-1.1,4.4-2.4,6.6-3.8c0.9-0.5,1.7-1.1,2.6-1.6l1.6-1
		c-0.5-2.3-0.4-4.7,0.7-6.9c3-6,4.1-12.3,3.4-19c-0.3-3.1-0.5-6.3,0-9.3c1.2-8,5.1-14.4,12.2-18.5c2.4-1.4,4.6-2.8,6.7-4.6
		c0.8-0.7,1.9-1.3,2.8-1.9c0.7-0.3,1.5-0.3,2.1,0.2c0.6,0.6,0.5,1.4,0.1,2.1c-0.3,0.6-0.7,1.2-1,1.7c-3,4.3-4.4,9-5.1,14.1
		c-0.3,3-1,5.9-1,8.9c0.3,0,0.7,0.1,0.9,0c0.8-0.4,1.7-0.8,2.6-1.2l0.8-1.6c0.5-1.1,1-2.3,1.3-3.9l0.2-0.7l0.3-0.3v-0.9l0.7-0.7l0,0
		v-0.3l0.4-1c0.3-0.8,0.6-1.7,1-2.5c0.4-0.9,0.9-2,1.7-3.1l0.6-0.8h0.1l0.2-0.3c0.2-0.2,0.4-0.5,0.6-0.7c0.1-0.1,0.2-0.2,0.3-0.3
		c0.1-0.2,0.2-0.4,0.3-0.4l0.3-1.1l0.7-0.3l0.1-0.3l0.5-0.5l0,0V74l1.2-0.2v-0.2l2.6-2.6c0.5-0.5,1.1-1,1.6-1.6c0.5-0.5,1-1,1.5-1.5
		l0.1-0.1c1.2-1.1,2.2-2,3.5-3l0.6-0.5h0.2l0.1-0.1c0.1-0.1,0.3-0.3,0.6-0.4l0.6-0.6h0.5l0.1-0.1c0.3-0.3,0.5-0.4,0.8-0.5l0.4-0.4
		h0.6l0.1-0.1c0.5-0.5,1-0.7,1.3-0.9l5.2-2.6c-0.2-0.1-0.5-0.1-0.7-0.1c-6.5,0.6-12.9,0.2-19.3-0.1c-4.2-0.2-8.1-1.4-11.8-3.4
		c-1.3-0.7-2.5-1-3.9-1.4c-12.9-3.1-25.7-3.7-38.8-2.4c-14.9,1.4-29.9,2.8-44.8,3.6c-4.5,0.2-9.1,0.3-13.7-0.7
		c-2.9-0.7-5.7-1-8.7-0.3c-3.9,0.9-8,0.1-11.8-1.3c-5.3-1.9-10.8-2.3-16.3-2.2c-7.4,0.1-14.7,1.3-22,2.2c-2.3,0.3-4.5,0.8-6.8,1.4
		c-0.9,0.2-1.5,0.6-0.9,1.7c2.2,4.9,2.8,10.1,3.6,15.3c0.3,2.4-1.5,4.1-3.9,3.5c-0.6-0.1-1.2-0.5-1.7-0.8c-2.7-1.5-5.4-2.7-8.3-3.4
		c1.7,1.3,3.6,2.7,5.7,4h0.3V74.1z"/>
	<path class="st0" d="M870.4,655.7c-1.9-3.8-4.3-7.4-6.9-10.8c-2.8-3.4-5.8-6.4-9.1-9c-3.4-2.7-6.9-5-10.8-6.8l-5.7-2.5
		c-0.6-0.6-1.3-1-1.9-1.6c-1.4-1.2-2.9-2.3-4.5-3.2c-6.7-3.7-14.2-5.8-21.8-7.1c-3.8-0.7-7.6-1-11.5-1.3c-2.5-0.2-5-0.1-7.5-0.5
		c-2.8-0.5-5.3-1.6-8.1-1.9c-1.2-0.1-2.2,0-3.2,0.1c-8.8,0.9-17.5,2.2-25.9,4.7c-4.3,1.3-8.5,2.9-12.4,4.9c-3.8,2-7.2,4.7-11.1,6.3
		c-1,0.3-2,0.7-2.9,1.2c-20.1,8.7-38.2,25.8-45.3,46.9c1.9-0.5,3.9,0.2,5.4-0.9c0.6-0.5,0.9-1.2,1.3-1.9c3.2-7.1,6.5-14.4,11.9-19.8
		c6.7-6.7,17.4-9.4,25.4-3.2v-0.1l0.1,0.1c0.5,0.3,0.9,0.7,1.4,1.2c0.1,0.1,0.3,0.2,0.5,0.3c0.5,0.6,0.9,1,1.4,1.6
		c0.1,0.1,0.1,0.2,0.2,0.3c-0.7,0-1.4,0-2.1,0.1c-1.5,0.2-2.9,0.6-4.3,1c-2.8,1-5.2,2.5-7.6,4.2c-0.6,0.5-1.2,0.8-1.7,1.3l-0.9,0.7
		l-1.6,1.2l-0.8,0.6c0,0,0.8-0.2,0.9-0.2c4.2-1.2,8.5-1.2,12.4,0.7c0.3,0.1,0.6,0.3,0.9,0.5c0.3,0.2,0.6,0.3,0.9,0.6
		c0.6,0.3,1.2,0.8,1.7,1.3c1,0.9,2.1,2,2.9,3.1c0.9,1.3,1.7,2.7,2.4,4.1c-0.1,0.3-0.2,0.7-0.3,1.2c0,0.2-0.1,0.5-0.1,0.7v0.1
		c-0.1,0.5-0.2,0.9-0.2,1.4c0,0.1,0,0.2,0,0.3c0.1,0.1,0.1,0.2,0.1,0.3s0.1,0.3,0.1,0.6c0,0.1,0,0.1,0,0.1c0.1,0.8,0.3,1.5,0.5,2.3
		c0.2,0.9,0.3,1.9,0.6,2.8c1.2,1.9,2.3,3.7,3,5.8c0.1,0.2,0.1,0.3,0.2,0.6v0.1c0,0.2,0.1,0.3,0.1,0.6c0,0.1,0.1,0.3,0.1,0.6
		c0,0.1,0,0.1,0,0.2c0,0.2,0.1,0.3,0.1,0.6v0.1c0.1,0.2,0.1,0.3,0.1,0.6c0,0.1,0,0.1,0,0.2s0,0.3,0,0.5c0,0.1,0,0.2,0,0.3
		s0,0.3,0,0.5c0,0.1,0,0.2,0,0.3s0,0.2,0,0.3c0,0.2,0,0.5,0,0.7v0.1c0,0.1,0,0.3,0,0.5c0,0.3,0,0.6,0,0.9c0.1,0.1,0.2,0.3,0.3,0.5
		c0.6,0.7,1.3,1.5,1.9,2.2c0.3,0.3,0.6,0.6,0.9,0.9c2.5,2.2,5.2,4.3,8.7,5.1c5.3,1.2,10.9-0.6,16.3-0.1c1,0.1,2.2,0.2,3.1-0.1
		c2-0.8,3-3.7,4.1-5.4c1.5-2.5,2.8-5.2,3.8-8c2-5.2,3.1-10.8,3.6-16.4c0.7-8.9-0.9-17.9-4.5-26.1c-1.7-4.1-3.9-8-6.6-11.6
		c-2.7-3.6-5.7-6.9-8.9-10c-0.5-0.5-0.8-0.8-1.3-1.2l-2.2-2h0.1h0.2l0.3,0.1l0.8,0.2l1.3,0.3l0.5,0.1l0.3,0.1l0.8,0.2
		c2.2,0.7,4.3,1.5,6.3,2.5c18.5,9.6,26.5,29.2,27.7,48.9c0,0.1,0,0.2,0,0.3c0,0.6,0,1.2,0,1.7c-0.1,0.5-0.1,1-0.1,1.6
		c0,0.5-0.1,1-0.1,1.5c0,0.1,0,0.1,0,0.2c0,0.3-0.1,0.7-0.1,1c-0.1,0.3-0.1,0.8-0.2,1c0,0.2-0.1,0.5-0.1,0.7
		c-0.5,3.2-1.6,6.5-2.7,9.6c-1,3.4-3,6.5-1.6,10.1c3,7.4,9.6,9.7,16.8,10.9c0.9,0.1,2,0.2,2.9,0.3c1.2,0.1,2.4,0.2,3.6,0.3
		c1.4,0.1,2.8,0.3,4.2,0.5c0.2,0.1,0.6,0.1,0.8,0.1s0.5,0,0.7,0c0.5,0,1,0,1.5,0v-0.1c0.6-2.8,2.1-5.2,3.4-7.8
		c6-11.9,8.3-26.1,6.5-39.5c-1.9-12.5-8.8-24.1-17.6-33c-0.8-0.9-1.7-2.1-1.6-3.2c3.1,0.8,6.5,3.4,9.1,5.1c3.4,2.1,6.6,4.3,9.6,6.8
		c5.4,4.5,10.5,10.4,11.7,17.7c2.2,13.9,6,14.8,4.2,28.7c-0.5,3.7-2.8,7.1-3.5,10.8c-1,5.2-1.4,10.1-3.4,15.1
		c-0.1,0.3-0.3,0.6-0.3,0.9c-0.1,0.3-0.2,3-0.9,2.8c2.4,0.8,14.6,3.2,15.2-1.2l0.3-2.4l3-16.8c3-16.6,3.5-33-4.1-48.4
		c-1.6-3.2-4.4-9.5-6.5-11.5c0.3,0.2,0.6,0.5,0.8,0.7c4.2,3.9,8,7.5,11,12.4c3.6,5.7,6.7,11.9,9,18.2c0.1,0.5,0.3,1,0.5,1.5
		c0.7,2.1,1.2,4.1,1.6,6.1c0.8,4.1,1.3,8.2,1.3,12.4c-0.1,4.2-0.6,8.2-1.5,12.3c-0.3,1.3-0.7,2.5-1,3.7c0.3-0.1,0.7-0.2,1-0.3
		c1-0.5,2-1.2,2.7-2s1.4-1.7,1.9-2.7c0.5-0.9,0.9-2,1.3-3c0.2-0.5,0.3-1,0.5-1.5C877.7,683.5,876.4,668.1,870.4,655.7z"/>
	<path class="st0" d="M261.2,627.1c-1-0.3-2-0.8-2.9-1.2c-3.9-1.6-7.3-4.3-11.1-6.3c-3.9-2-8.1-3.6-12.4-4.9
		c-8.5-2.5-17.1-3.8-25.9-4.7c-1.2-0.1-2.2-0.2-3.2-0.1c-2.8,0.2-5.3,1.4-8.1,1.9c-2.4,0.5-5,0.3-7.5,0.5c-3.8,0.2-7.6,0.7-11.5,1.3
		c-7.5,1.2-15.1,3.4-21.8,7.1c-1.6,0.9-3.1,2-4.5,3.2c-0.7,0.6-1.3,1-1.9,1.6l-5.7,2.5c-3.8,1.9-7.4,4.2-10.8,6.8
		c-3.4,2.7-6.5,5.7-9.1,9c-2.7,3.4-5,6.9-6.9,10.8c-6.5,13-7.9,28.3-4.1,42.3c0.1,0.5,0.2,1,0.5,1.5c0.3,1,0.8,2.1,1.3,3
		s1.2,1.9,1.9,2.7c0.7,0.8,1.6,1.5,2.7,2c0.3,0.1,0.7,0.2,1,0.3c-0.5-1.3-0.8-2.4-1-3.7c-0.9-3.9-1.4-8.1-1.5-12.3
		c0-4.1,0.5-8.2,1.3-12.4c0.5-2.1,0.9-4.2,1.6-6.1c0.1-0.5,0.2-1,0.5-1.5c2.4-6.3,5.4-12.5,9-18.2c3.1-4.9,6.9-8.5,11-12.4
		c0.3-0.2,0.6-0.5,0.8-0.7c-2.1,1.9-4.9,8.2-6.5,11.5c-7.4,15.5-6.9,31.8-4.1,48.4l3,16.8l0.3,2.4c0.5,4.1,10.9,2.3,14.5,1.4
		c0.3-0.1,0.5-0.1,0.7-0.2c-0.2,0.1-0.4-0.2-0.5-0.5c-0.2-0.7-0.3-2-0.4-2.2c0-0.3-0.2-0.6-0.3-0.9c-2-5-2.3-9.8-3.4-15.1
		c-0.7-3.7-3-7.1-3.5-10.8c-1.9-14,2.1-14.8,4.2-28.7c1-7.3,6.3-13.2,11.7-17.7c3-2.5,6.3-4.7,9.6-6.8c2.8-1.7,6-4.3,9.1-5.1
		c0.2,1.3-0.8,2.4-1.6,3.2c-8.8,8.9-15.9,20.5-17.6,33c-2,13.5,0.3,27.7,6.5,39.5c1.3,2.5,2.8,5,3.4,7.8v0.1c0.5,0,1,0,1.5,0
		c0.2,0,0.5,0,0.7,0c0.2-0.1,0.6-0.1,0.8-0.1c1.4-0.2,2.8-0.3,4.2-0.5c1.2,0,2.4-0.2,3.6-0.3c0.9-0.1,2-0.2,2.9-0.3
		c7.3-1,13.9-3.5,16.8-10.9c1.4-3.5-0.5-6.7-1.6-10.1c-1-3.1-2.2-6.4-2.7-9.6c0-0.2-0.1-0.5-0.1-0.7c-0.1-0.3-0.2-0.8-0.2-1
		c0-0.3-0.1-0.7-0.1-1c0-0.1,0-0.1,0-0.2c0-0.5-0.1-1-0.1-1.5c-0.1-0.5-0.1-1-0.1-1.6s0-1.2,0-1.7c0-0.1,0-0.2,0-0.3
		c1.3-19.8,9.3-39.3,27.7-48.9c2-1,4.1-1.9,6.3-2.5l0.8-0.2l0.3-0.1l0.5-0.1l1.3-0.3l0.8-0.2l0.3-0.1h0.2h0.1l-2.2,1.9
		c-0.5,0.5-0.9,0.8-1.3,1.2c-3.4,3-6.3,6.4-8.9,10c-2.7,3.6-4.9,7.5-6.6,11.6c-3.6,8.2-5.2,17.1-4.5,26.1c0.5,5.6,1.6,11.1,3.6,16.4
		c1,2.8,2.3,5.4,3.8,8c1,1.6,2.2,4.6,4.1,5.4c0.9,0.3,2.1,0.2,3.1,0.1c5.4-0.3,11,1.4,16.3,0.1c3.5-0.8,6.1-2.9,8.7-5.1
		c0.3-0.3,0.6-0.6,0.9-0.9c0.7-0.7,1.3-1.5,1.9-2.2c0.1-0.1,0.2-0.3,0.3-0.5c0-0.3,0-0.6,0-0.9c0-0.1,0-0.3,0-0.5V693
		c0-0.2,0-0.5,0-0.7c0-0.1,0-0.2,0-0.3s0-0.2,0-0.3s0-0.3,0-0.5c0-0.1,0-0.2,0-0.3s0-0.3,0-0.5c0-0.1,0-0.1,0-0.2
		c0.1-0.2,0.1-0.3,0.1-0.6v-0.1c0-0.2,0.1-0.3,0.1-0.6c0-0.1,0-0.1,0-0.2c0-0.1,0.1-0.3,0.1-0.6s0.1-0.3,0.1-0.6v-0.1
		c0.1-0.2,0.1-0.3,0.2-0.6c0.7-2.1,1.9-3.9,3-5.8c0.2-0.9,0.3-1.9,0.6-2.8c0.1-0.8,0.3-1.5,0.5-2.3c0-0.1,0-0.1,0-0.1
		c0-0.1,0.1-0.3,0.1-0.6c0.1-0.1,0.1-0.2,0.1-0.3s0-0.2,0-0.3c-0.1-0.5-0.1-0.9-0.2-1.4v-0.1c0-0.2,0-0.5-0.1-0.7
		c-0.1-0.3-0.2-0.8-0.3-1.2c0.7-1.4,1.5-2.8,2.4-4.1c0.9-1.2,1.9-2.2,2.9-3.1c0.6-0.5,1.2-0.9,1.7-1.3c0.3-0.2,0.6-0.3,0.9-0.6
		c0.3-0.1,0.6-0.3,0.9-0.5c4.1-1.9,8.2-1.9,12.4-0.7c0.1,0,0.9,0.2,0.9,0.2l-0.8-0.6l-1.6-1.2l-0.9-0.7c-0.6-0.5-1.2-0.8-1.7-1.3
		c-2.4-1.6-4.9-3.1-7.6-4.2c-1.4-0.6-2.8-0.9-4.3-1c-0.7-0.1-1.4-0.1-2.1-0.1c0.1-0.1,0.1-0.2,0.2-0.3c0.3-0.6,0.9-1.2,1.4-1.6
		c0.1-0.1,0.3-0.2,0.5-0.3c0.5-0.3,0.9-0.8,1.4-1.2l0.1-0.1c0,0.1,0,0.1,0,0.1c8-6.1,18.6-3.5,25.4,3.2c5.4,5.4,8.7,12.7,11.9,19.8
		c0.3,0.7,0.7,1.4,1.3,1.9c1.4,1.3,3.6,0.6,5.4,0.9C299,653.4,280.9,636.4,261.2,627.1z M252.6,623.7c0,0,0.1,0,0.1,0.1L252.6,623.7
		z"/>
</g>
<g>
	<path class="st1" d="M541,414.1c-4.3-1.7-8.5-3.6-12.6-5.4c-3.4-1.6-6.9-2.5-10.7-3.4c-5.9-1.3-11.9-1.6-17.6-3.8
		c-0.2,0.3-0.3,0.7-0.5,1c-1.2,6.3-1.9,12.6-1.2,19c0.5,4.7,0.9,9.5,0.3,14.2c-0.2,2.7-1.3,5-3.7,6.3c-0.5,0.2-0.7,0.6-1,0.9
		c-1.2,1.3-1.2,1.3-2.4-0.1c-0.2-0.2-0.5-0.6-0.8-0.7c-2.9-1.3-3.7-3.8-4.1-6.6c-0.3-3.1,0.1-6.3,0.5-9.3c0.6-4.9,1.2-9.7,0.7-14.6
		c-0.3-3.6-0.5-7.2-0.5-10.9c0-1.2,0.2-2.4-0.8-3.7c-4.9,3.7-10.8,5-16.1,6.9c-2.3,0.8-4.5,1.9-6.5,3.2c-4.5,3.1-9,6.1-13.7,8.9
		c-1.3,0.7-1.7,1.7-2,3.1c-0.8,4.9-0.8,9.7-0.2,14.6c1,8.9,2.7,17.9,3.1,27c0,0.6,0,1.2,0.3,1.6c3.6,5.9,7.6,11.5,12.5,16.4
		c1.9,1.9,3.8,3.5,6,5c1.6,1.2,3.4,1.9,5.3,2.4c9.6,2.8,19.3,3.1,29.2,2.8c9.3-0.3,16.9-4.2,24.1-9.5c0.6-0.3,0.9-0.9,1.4-1.4
		c3.9-4.5,6.1-10,8.2-15.5c0.3-1.2,0.6-2.4,0.7-3.6c0.3-2.7,0.6-5.4,0.8-8.1c0.8-11.5,1.6-22.9,2.5-34.4
		C542.6,415.3,542.3,414.5,541,414.1z"/>
</g>
<g>
	<path class="st2" d="M566.7,490.4c-0.9,0.6-1.5,0.9-2.2,1.3c-2.9,1.6-6,2.5-9.3,3.1c-1.3,0.2-2.5,0.1-3.4-1
		c-0.1-0.1-0.1-0.2-0.2-0.3c-0.2-0.5-0.3-0.9-0.2-1.3l-0.5,0.3c-2.7,1.9-4.8,4.2-6.5,6.2c-1.1,1.4-2.5,2.9-4.3,3.6
		c-0.8,0.4-1.4,1.1-1.7,1.5c-2.2,3.1-5.2,5.4-8.3,7.7c-4.3,3.1-9.2,5.9-15.5,8.7c-1.4,0.7-2.7,0.9-4,0.7l-0.4-0.1L510,521
		c-1.3,0.6-2.7,0.6-3.9,0l-0.4-0.2l-0.4,0.1c-0.9,0.2-1.9,0-3.1-0.2l-2.2-0.4c-4.2-0.4-8.2-1.2-11.7-2.5c-8.9-3.3-16.8-6.9-24-10.9
		c-2.2-1.3-4.7-2.4-7.8-3.4l-1.4-0.5c0.4,0.7,0.9,1.4,1.3,2.1c0.8,1.3,1.6,2.7,2.4,3.9c0.3,0.6,0.6,1.2,0.8,1.7
		c0.1,0.5,0,0.9-0.3,1.3c-0.3,0.3-0.9,0.3-1.3,0c-1.6-1.6-3.4-2.9-5.8-2.8c-0.1,0-0.3-0.1-0.5-0.2c-3.1-2.2-6.7-2.7-10.4-2.2
		c-2.7,0.3-5.3,0.8-8.1,0.8c-0.6,0-1.4-0.2-2,0.7c0.7,0.9,1.5,1.9,2.3,2.9c3.5,4.4,5.7,9.3,6.1,14.8c0.2,2.4,0.3,4.9,0.3,7.3
		c0.2,8.8,1.4,17.6,4.3,25.9c1.2,3.6,2.2,7.2,2.7,10.9c0.3,3.2,1,6.5,1.7,9.7c0.1,0.6,0.2,1,0.3,1.6c0,0.3,0.1,0.6,0.2,0.9
		c1.3,1,2.6,2.3,3.9,4c0.7,0.8,1.4,1.7,2.3,2.8l0.2,0.3l0.4,0.1c0.6,0.2,0.7,0.3,0.8,0.7l0.1,0.5l0.4,0.3c1.6,1.2,2.9,2.5,4.3,4
		c0.3,0.3,0.7,0.8,1.2,1.4l0.3,0.4l0.5,0.1c0.4,0,0.6,0.1,0.7,0.8l0.1,0.4l0.3,0.2c3.2,2.7,6.4,5.8,9.7,9.7l0.2,0.3
		c0.5,0.5,0.9,1,0.9,1.6l0.1,0.5l0.3,0.2c-1,0.4-2.1,0.8-3.5,1.3c-1.2,0.4-2.6,0.8-3.9,1.1l-0.5,0.1l-0.2-0.1l-0.6,0.3
		c-0.1,0-0.1,0-0.1,0.1c-0.1,0-0.1,0-0.2,0.1c-0.1,0-0.4,0-0.7,0.1h-0.8l-0.1-0.1h-0.5c-0.1-0.1-0.3-0.1-0.6-0.1l0,0
		c-0.1,0-0.2-0.1-0.3-0.1c-0.1,0-0.2-0.1-0.2-0.1s-0.1,0-0.1-0.1c-0.2-0.1-0.4-0.2-0.6-0.2h-0.1l-0.2-0.1c-2.2-0.7-4.3-1.8-6.5-2.9
		c-0.6-0.3-1.1-0.6-1.7-0.9c-1.7-0.8-3.5-1.2-5.2-1h-0.3c0.3,0.5,0.7,0.9,1,1.4c3,4.1,5.7,8.2,8.8,12.2c0,0.1,0.1,0.1,0.1,0.2
		c1.3,2.1,1.7,4.3,1,6.7c-1,3.6-2.5,7.1-4.7,10.1c-4.3,5.8-9.5,10.4-16,13.8c-2.3,1.2-3.1,0.8-3.7-1.6c-0.1-0.9,0-1.7,0.1-2.5
		c0.3-2.3,1.3-4.5,2.1-6.7c2.5-6.4,3.9-13,3.1-19.8c-0.6-4.7-1.6-9.4-3.2-13.9c-0.3-1-0.9-1.7-1.9-2.3c-5.8-3.8-12.2-5.9-18.5-7.8
		c-0.5,0.6-0.5,1-0.3,1.5c0.9,5-1.2,8.8-4.6,12c-4.1,3.8-8.8,2.4-10.2-3c-0.6-2.3-0.6-4.6-0.9-6.9c-0.2-1.6-0.9-3-2.1-4.2
		c-3-2.9-6.3-5.6-10.1-7.1c-5.3-2.1-10.5-4.5-16.1-5.8c-3.4-0.8-6.6-2.2-9.4-4.3c-2.5-1.9-5-3.8-7.3-5.8c-3.2-2.7-5.8-5.8-7.6-9.6
		c-0.3-0.5-0.3-1.3-1.3-1.3c-0.7,0.7-1.2,1.6-1.6,2.5c-4.5,7.5-8,15.4-11.3,23.5c-0.9,2.3-0.9,2.3,1.5,3.1c1.6,0.6,3.4,1,5.1,1.5
		c3.6,1,7.1,2.4,10.2,4.6c2.2,1.6,4.1,3.5,5.6,5.6c0.2,0.3,0.5,0.7,0.7,1c0,0,0,0.1,0.1,0.1c2,0.3,4,0.6,5.9,0.7
		c0.1,0.1,0.3,0.2,0.5,0.4l0.2,0.1h0.3c0.2,0,0.3,0,0.5,0c0.3,0,0.5,0.1,0.8,0.1c3.7,0,7.2,0.8,11.1,2.6c0,0.1,0.1,0.2,0.1,0.3
		l0.4,0.8h0.7l0.2,0.1h0.4l0.2,0.9h0.9l0.3,0.5h0.7c0,0,0.1,0.1,0.1,0.3l0.3,0.8h0.6l0.3,0.3l0.4-0.1l0.2,0.9h0.9
		c0.3,0,0.8,0.4,0.9,0.6l0.9,0.9l0.4-0.1l0.2,0.8l0.8,0.1c0.6,0.1,1,0.4,1.3,0.9c0,0.1,0.1,0.2,0.1,0.3c0.1,0.1,0.1,0.3,0.2,0.4
		c0.5,1.6,1.3,2.8,2.1,4.1c0.3,0.5,0.7,1,1,1.6c0.6,1.1,1.4,2.1,2.1,3c1.5,2,2.9,3.9,3.1,6.2c0,0.7,0.5,1.1,0.7,1.4
		c0.1,0.1,0.1,0.1,0.2,0.2c2,2.8,3.1,6,3.9,8.7c0.9,2.9,1.8,6.4,1.6,9.9c-0.2,3.7-0.6,7.2-1.1,11l-0.1,0.6c-0.3,2.3-0.6,4-1.2,5.3
		c-0.8,1.9-1.4,3.8-2,5.7l-0.2,0.6h1.6h102.4h1h0.1c0.1-0.3,0.3-0.7,0.5-1.1l0.1-0.2v-0.3c0-0.1,0-0.3,0-0.4c0-0.3,0.1-0.5,0.1-0.7
		c0.3-4.5,1.8-8.8,3.3-12.8c0.1-0.3,0.2-0.7,0.3-1c0.4-1.2,0.7-2.3,1.7-2.9l0.5-0.3l0.1-0.6c0.1-1,0.6-1.9,1.1-2.8
		c0.3-0.4,0.5-0.8,0.7-1.3l0.1-0.2v-0.2c0-0.7,0.4-1.3,0.9-2l0.3-0.4c2.3-4.6,4.7-9.4,6.2-14.5c0.1-0.5,0.2-1,0.2-1.5
		c0.1-0.9,0.1-1.5,0.6-1.9l0.3-0.4v-0.5c-0.1-1.6-0.2-3.1-0.1-4.4c0.1-0.9,0.3-1.6,0.7-2.2c3.4-5.9,5.4-12.4,7.4-18.8l0.1-0.5v-0.1
		l0.3-0.1v-0.7c0-1,0.2-2.1,0.4-3.2c0.1-0.2,0.1-0.5,0.1-0.7c0-0.1,0-0.3,0.1-0.4l0.1-0.3l-0.1-0.3c-0.2-0.8-0.1-0.9,0.1-1.1
		l0.3-0.3v-8.8l-0.2-0.3c-0.3-0.4-0.4-0.8-0.3-1.6v-0.1c0-0.1,0.1-0.2,0.1-0.3l0.2-0.4l-0.2-0.5c-0.3-1-0.3-2-0.3-3.1v-0.3
		c-0.3,0-0.7,0-1-0.1c-3-0.6-4.9-2.8-5.3-6.4c-0.5-4.1-0.8-8.1-0.7-12.3c0.2-3.9,0.5-7.9,1.9-11.6c2.9-7.5,6.6-14.7,11.6-21.1
		c3.8-4.9,8.3-9.1,13.1-13.1c1.2-0.9,2.4-1.9,3.1-3.2c1.5-2.9,3.6-5.4,5.7-8c2.7-3.1,5-6.4,7.2-9.7
		C565.6,494.6,566.7,492.8,566.7,490.4z"/>
	<path class="st2" d="M694.5,637.4c-8.5-2.7-16.2-7.2-23.4-12.5c-7.1-5.3-13.7-11.1-20-17.1c-0.6-0.5-0.9-1.3-2-1
		c-0.3,0.9-0.5,1.9-0.8,2.7c-0.2,0.9-0.8,1.6-1.2,2.5c-0.2,0.6-0.3,1.2-0.3,1.9c-0.5,9.4,0.8,18.4,5.1,27c1.9,3.8,3.6,7.6,5.3,11.5
		c2.1,4.5,3.5,9.1,4.1,14c0.1,1.6,0.7,2.9,1.7,4.1c1.2,1.4,2.3,2.8,3.5,4.2c0.2-0.2,0.5-0.3,0.7-0.6c0.6-0.5,1-1,1.6-1.5
		c0.1-0.1,0.1-0.1,0.1-0.1c0.2-0.3,0.5-0.6,0.7-0.9c2-2.7,3.8-5.3,5.7-8.1c0.6-0.8,1-1.5,1.6-2.3c0.2-0.3,0.3-0.6,0.6-0.9
		c0.6-0.8,1.2-1.6,1.7-2.4c0.1,0,0.1-0.1,0,0c2.4-3.6,5-7.1,7.6-10.4c1-1.4,2.1-2.7,3.1-3.9l1.6-1.9l0.8-0.9
		c0.2-0.3,0.6-0.6,0.8-0.9l1.7-1.9c0.1-0.1,0.1-0.1,0.1-0.1C694.9,637.5,694.7,637.4,694.5,637.4z"/>
	<path class="st2" d="M616,667c-8.1-7.2-13.7-15.6-14.2-26.7c-0.1-1.7-0.3-3.6-0.5-5.3c-0.5-5.7-2.9-10.4-7.2-14.1
		c-3.6-3.1-7.2-6.3-10.8-9.4c-0.7-0.7-1.3-0.8-2.2-0.3c-4.5,2.1-9.3,3.9-13.9,6c-3.9,1.7-6.5,4.6-8.1,8.5c0,0.1,0,0.1,0,0.1
		c-0.3,0.7-0.5,1.4-0.7,2.1c0.6,3,1.5,5.7,2.2,7.9l0.2,0.6c0.3,0.9,0.6,1.8,0.9,2.6c0,0.1,0,0.1,0,0.2c0.1,0.4,0.2,1,0.7,1.5
		c0.9,1,1.6,2.1,2.4,3.2c1.5,2.3,3.1,4.6,5.8,6.2c1.7,0.9,2.5,2.8,3.5,4.9c0.2,0.5,0.5,1,0.7,1.5c0.1,0.3,0.3,0.5,0.5,0.6l0.1,0.2
		l0.2,0.2c0.4,0.3,0.5,0.6,0.4,1.1l-0.2,0.4c-1.2,1.9-2,3.9-2.9,5.8c-1,2.3-2,4.5-3.3,6.4c-0.9,1.3-1.5,2.7-2.1,4l-0.6,1.4h1.1v-0.1
		h61.1c-0.8-0.7-1.6-1.2-2.4-1.7C623.1,672.3,619.4,669.9,616,667z"/>
	<path class="st2" d="M342.9,641.5c-0.3-0.6-0.8-1.2-1.4-1.6c-1-0.9-2.2-1.7-3.6-2.1c-2-0.5-3.8-1.4-5.6-2.5
		c-1.5-0.9-3.1-1.7-4.7-2.4c-6-2.4-10.4-6.5-13.8-11.9c-1.3-2.2-2.5-4.4-3.9-6.5c-0.5-0.6-0.7-1.4-1.7-1.5c-0.2,1.4-0.5,2.9-0.8,4.3
		c-0.5,1.7-1.2,3.2-2.9,3.9c-2.8,1.2-5.7,1.4-8.3-0.5c-3-2.1-5.8-4.5-8-7.2l-0.3,0.9c0,0.1,0,0.2,0,0.3c0,0.2-0.1,0.4-0.1,0.6
		l-0.2,0.4c-0.6,1.2-0.7,2.6-0.8,4c-0.1,0.7-0.1,1.4-0.2,2.1l-0.1,0.7l-0.3,0.3l0.2,0.8l-0.6,0.8l0.2,0.9l-0.4,0.7v0.1l0.2,1.2
		l-0.7,0.7l0.5,2.6l0.4,0.4l0.5,0.5l0.5,0.5c1.2,1.3,2.4,2.3,3.6,3.6c0.6,0.7,1.2,1.3,1.7,1.9l1.7,1.9c0.2,0.3,0.6,0.6,0.8,0.9
		l0.8,0.9l1.6,1.9c1,1.4,2.1,2.7,3.1,3.9c1.7,2.2,3.2,4.3,4.9,6.5c0.9,1.3,1.9,2.7,2.8,3.9l0.1,0.1c0.6,0.8,1.2,1.6,1.7,2.4
		c0.2,0.3,0.3,0.6,0.6,0.9c0.6,0.8,1,1.5,1.6,2.3c1.9,2.8,3.7,5.4,5.7,8.1c0.2,0.3,0.5,0.6,0.7,0.9c0.1,0.1,0.1,0.1,0.1,0.1
		c0.6,0.6,1,1,1.6,1.5c0.9,0.8,1.9,1.6,2.9,2.3c0.2,0.2,0.5,0.3,0.7,0.5h5.6c1.9-2.9,3.6-5.9,5.2-8.9c3.8-6.8,6.6-14.1,8.9-21.5
		c0.2-0.7,0.3-1.4,0.5-2.1c-0.2-0.6-0.5-1.2-0.7-1.9C343,641.8,342.9,641.7,342.9,641.5z"/>
	<path class="st2" d="M541.6,267.2c-0.6-0.1-1.1-0.1-1.5-0.1c-1.7-0.1-3.3,0.3-5,1.4c0.2,0.2,0.4,0.3,0.7,0.5
		c5.9,4.3,10.9,9.4,14.2,16.2c5.1,10.3,6,20.7,3.1,31.6c-0.6,2-1.4,3.8-2.8,5.4c-8,8.7-17.1,16.1-27,22.7c-3.6,2.3-7.3,4.6-10.7,7.3
		c-2.9,2.3-6.1,4.4-7.9,7.9c-0.3,0.7-0.9,1-1.5,1.3c-0.9,0.5-1,1.2-0.8,2.1c0.7,2.3,0.8,4.7,1.2,7.2c0.9,5.2,2.2,10.3,6.8,13.7
		c0.3,0.3,0.6,0.7,0.9,1c0.9,1.2,2,2.2,3,3.1c0.2,0.1,0.3,0.2,0.5,0.5c0.2,0.1,0.3,0.3,0.6,0.5c2.1,0.7,3.6,2,4.9,3.5
		c2.5,1.4,5.3,2.5,8.3,3.2c0.8,0.1,1.6,0.5,2.4,0.8c4.9,2.1,9.6,4.2,14.5,6.1c8.1,3.4,16.3,6.3,24.9,7.9c2.4,0.5,4.7,0.7,6.9-0.9
		c0.7-0.6,1.6-0.8,2.5-1.2c9.3-3,17.5-8,25.6-13.2c2.5-1.6,4.7-3.5,6.7-5.6c0.3-0.3,0.6-0.7,0.9-1c0.2-2.9-1.3-5.8-4-7.5
		c-3-1.8-6.2-1.7-9.8,0.4c-2.7,1.5-5.1,2.6-7.7,3.4c-8.7,2.3-18,2.3-27.7,0c-10.7-2.5-18.7-9.3-25-15.6c-0.7-0.7-1.1-1.7-1.1-3
		c0-0.6,0-1.3,0-1.9c0.1-2,0.1-4-0.4-6c-0.1-0.2-0.2-0.6,0.9-1.3c1.4-0.9,2.9-1.9,4.1-3.3c7-7.2,11.4-15.4,13.5-25.1
		c1-5,2.1-9.5,3.1-13.5c0.7-2.7,1.4-3.3,3.5-3h0.2c0.5,0,1-0.2,1.2-0.3c2.6-0.8,4.8-2.5,6.2-5c1.5-2.6,1.8-5.8,1-8.7
		c-0.7-2.3-1.3-4.4-1.2-6.8c0.1-1.4-0.4-2.7-0.8-3.9c-0.1-0.3-0.2-0.6-0.3-0.9c-1.7-4.6-5.1-8.2-9.9-10.7c-3.9-2-8-4.2-11.6-6.8
		C545.9,268.6,544,267.7,541.6,267.2z"/>
	<path class="st2" d="M394.5,327.9c2.3,1.2,5,1,7.4-0.7c1.5-1.1,3.3-1.8,5.6-2.2c3-0.5,5.6-1.3,7.8-2.4c1-0.5,2.2-1.1,2.5-1
		s0.9,1.5,1.4,2.5c0.2,0.4,0.3,0.7,0.4,1c2.1,9.1,8.2,15.5,13.8,20.8c0.8,0.7,1.6,1.5,2.4,2.2c2.4,2.2,4.8,4.6,7,7
		c1.8,2.1,3.7,4.3,3.9,7.1c0.3,3.1-0.3,6.3-1.7,9.4c-2.7,5.5-7,9.9-11.1,13.8c-0.3,0.3-0.8,0.6-1.3,0.9c-1.7,0.8-3.5,1.6-5.1,2.5
		c-3.3,1.7-6.7,3.4-10.3,4.4c-1.1,0.3-2.5,0.8-3.6,1.8l-0.2,0.1c-3.2,2.5-6.7,5.2-6,10.5c0.1,0.7-0.2,1.3-0.8,2.2
		c-0.6,1-1.1,2.1-1.4,3.2c0.6,0.1,1.1,0.2,1.7,0.3c1.9,0.2,3.7,0.3,5.6,0.1c6.6-0.7,13-1.9,19-4.9c1.6-0.8,3.2-1.3,5-1.7
		c6.7-1.7,13.2-3.8,19.3-6.8c5.1-2.5,10.3-5,15.5-7.3c3.2-1.5,6.3-3.2,9.3-5.2c1.9-1.2,3.4-2.7,4.7-4.3c1.3-1.4,1.7-2.9,0.9-4.6
		c-1.2-2.5-1.3-5.4-1.3-8.2c0-1.1-0.2-2-0.5-2.8c-0.4-0.8-0.9-1.6-1.7-2.5c-0.8-0.9-1.6-1.7-2.4-2.6s-1.6-1.7-2.4-2.6
		c-1.1-1.3-2.5-2.4-4-3.2c-2-1.1-3.9-2.2-5.9-3.3c-2-1.1-3.9-2.1-5.9-3.2c-8.6-4.6-16.4-10.1-23.2-16.3c-0.9-0.8-1.5-1.8-1.9-2.9
		c-0.2-0.5-0.4-1-0.6-1.5c-0.7-2.8-1-5.7-1.2-8.6c-0.1-2.1-0.5-3.9-1.2-5.8c-0.5-1-0.8-2.2-1-3.4c-0.1-0.2-0.1-0.3-0.1-0.5
		c-0.5-2.1-0.6-4.4-0.5-6.6c0.1-4.1,0.5-8,0.9-12c0.7-5.7,2.5-10.9,5.7-15.5c-0.1-1.3,0.5-1.9,1.6-2.3c0.3-0.3,0.6-0.8,0.9-1.2
		c2-2.4,4.3-4.5,6.7-6.5l0.1-0.1h-0.9c-4.4-0.1-8.5,1.1-11.7,2.1c-1.8,0.6-4,1.6-5.6,3.6c-0.5,0.7-1.2,0.8-2.3,0.9
		c-2.6,0.1-6.5,0.4-9.8,2.2c-6.4,3.4-10.6,8.5-12.5,15.3c-0.6,2.3-0.5,4.4,0.3,6.1c0.6,1,0.5,1.5-0.7,2.6
		c-4.2,3.7-7.6,8.3-10.1,13.5c-0.3,0.6-0.7,1.1-1.1,1.7c-0.2,0.2-0.3,0.5-0.5,0.6c-1.9,2.5-2.8,4.8-2.8,7.4
		C390.8,325.3,392.8,327.1,394.5,327.9z"/>
	<path class="st2" d="M453.3,106.4c0.2,2.4,0.5,4.9,1,7.3c0.4,0.1,0.9,0.1,1.3,0.2c0.5,0.1,0.9,0.1,1.4,0.2c3.2,0.6,5.6,2.5,6.8,5.6
		c1.4,3.2,2.1,6.6,2,10.4c-0.6,4.1,1.5,7.8,2.9,11.6c0.3,0.9,1,1.6,1.7,2.2c0.3,0.2,0.6,0.5,0.8,0.8c0.2,0.3,0.4,0.6,0.6,0.9
		c0.6-0.3,1.2-0.7,1.7-1.4c0.2-0.2,0.4-0.5,0.7-0.7c0.4,2,0.9,3.8,1.8,5.5c1.2,2.5,1.5,5.3,0.9,8.5c-0.4,2.4,0.2,4.4,0.9,6.1
		c1,2.3,2.7,2.9,4.1,3c1.9,0,3.4-0.9,4.5-2.5c0.8-1.4,1.3-2.8,1.9-4.2c0.6-1.5,1.1-3,2-4.2c0.5-0.6,0.5-1.3,0.5-1.7
		c0.1-2.6,1.5-4.9,3-7.2l0.3-0.4c0.4-0.6,0.8-1,1.1-1.1c0.3,0,0.7,0.3,1.3,0.8c2.6,2.6,5.2,5.2,6.4,8.8c0.6,1.7,1.5,3.2,2.7,4.7
		c1.5,1.8,3.5,2.8,5.7,2.7c2.1-0.1,4-1.2,5.1-2.9c0.2-0.2,0.3-0.4,0.4-0.6c0.1-1.3,0.2-2.6,0.3-4c0.1-0.5,0.1-1,0.1-1.6
		c0.1-2-0.1-3.9-0.1-5.9c0-1.9,0.7-3.5,1.9-5.1c3.4-4.4,6.8-8.6,11-12c0.4-0.3,0.9-0.7,1.3-1c-0.2-0.8-0.6-1.7-1.1-2.6
		c-0.1-0.1-0.1-0.2-0.1-0.2s0,0,0.1,0c0.3-0.2,0.6-0.4,0.9-0.6c0.2-0.2,0.5-0.3,0.7-0.5c5.7-3.1,9.1-7.3,10.2-12.8l0.1-0.4V112
		l0.2-0.2V109c0-0.1,0-0.1,0-0.2l0.1-0.2c0.1-0.2,0.1-0.4,0.1-0.6c0-0.1,0-0.1,0-0.1l0.3-0.6l-0.3-0.5c-0.1-0.1-0.1-0.2,0-0.1
		l0.5-0.4l-0.1-0.7c-0.1-0.5,0-1.1,0.1-1.7v-0.3c0-0.1,0.1-0.3,0.1-0.5c0.3-1.5,0.7-3,1.1-4.4c0.4-1.5,0.9-3.1,1.2-4.7
		s0.8-2.6,1.8-3.6c0.6-0.6,1.3-1.3,1.9-1.9c0.6-0.6,1.2-1.3,1.8-1.8c1.4-1.3,2-3.1,2.4-4.5c0.7-2.1,0-4.2-1.9-5.8
		c-1.6-1.1-3.1-1.7-5-1.8c-3.8-0.1-7.5,0.6-11.2,2.2c-4.7,2-8.4,5.1-12.6,9c-3.8,3.7-6.6,6.7-8.9,9.7c-0.9,1.1-1.7,2.3-2.4,3.5
		c-0.4,0.7-0.9,1.4-1.3,2.1c-1.3,1.8-2.7,3.9-2.5,6.5c0,0.1,0,0.1,0,0.1c-0.6-0.2-1.3-0.3-1.9-0.4c-2.9-0.6-5.7-1.2-7.7-3.7
		c-1.9-2.3-3.7-4.1-5.5-5.6c-3-2.4-7.6-2.3-10.4,0.3c0,0-0.1,0-0.1,0.1c0,0,0-0.1-0.1-0.1c-0.1-0.1-0.1-0.2-0.2-0.3
		c-4.6-6.6-10.7-10.9-16.6-14.7c-1.6-1-3.5-1.8-5.9-2.4c-2.4-0.4-4.6,0-6.4,1.4s-2.9,3.5-3.1,5.9c-0.2,3.2,0.3,6.3,1.7,9.4
		C452.3,100.7,453,103.6,453.3,106.4z"/>
	<path class="st2" d="M380.6,439.6v2.4c5.3,4,10.1,8.5,13.8,14.2c1.7,2.7,3.6,5.3,5.4,8c0.1,0.2,0.3,0.4,0.4,0.6l0.3-0.5
		c0.7-1.3,1.1-2.6,1.1-3.9c0-2.3,0.9-3.8,3-4.6c7.1-3,13.5-4.1,19.7-3.5l1.5,0.1c-0.3-0.3-0.7-0.6-1-0.8c-0.1-0.1-0.3-0.2-0.5-0.3
		c-3-2.1-6-4.1-9.3-5.8c-6.8-3.7-13.2-8.1-18.6-13.8c-1.4-1.5-2.4-3-2.9-5c-0.5-2.1-1-4.2-1.6-6.3c-0.3-1.3-1-2.1-2.3-2.5
		c-1.3-0.6-2.6-1-3.9-1.6l-2.1,0.7c-0.2,0.1-0.4,0.1-0.5,0.2c-3.7,1.7-5.5,4.6-5.7,9.3c-0.1,3.9,0.8,7.8,3,12.7L380.6,439.6z"/>
	<path class="st2" d="M591,424.1c-1.5,0.2-2.3,0.8-2.9,2.2c-2.3,5.6-5.4,10.9-8.1,16.3c-0.1,0.1-0.1,0.3-0.2,0.5
		c-0.1,0.2-0.2,0.4-0.3,0.5l0.7-0.3c0.7-0.3,1.3-0.6,2-1.1c0.4-0.3,0.9-0.6,1.4-0.9c1.2-0.7,2.4-1.5,3.3-2.5
		c0.7-0.7,1.5-1.1,2.7-1.3c4.7-1,8.9-1,12.8-0.1c2.7,0.6,4.4,1.8,5.3,3.5c0.4,0.7,0.7,1.3,1.1,1.9c0.5,0.8,1,1.6,1.4,2.4l0.4,0.8
		c0.3-0.3,0.7-0.6,1-0.9c0.2-0.1,0.3-0.2,0.5-0.3c4.9-3.9,7.4-9,8.5-15.1c0.5-2.3,0-4.5-0.1-6.7c-0.1-1.4,0.1-2.7,1.6-3.2
		c1.3-0.5,2.2-0.1,3.2,0.8c0.3-4.9-1.5-9.3-5.1-11.9c-3.9,4.8-8.8,8.7-14.6,11.3C600.8,422,596.1,423.7,591,424.1z"/>
</g>
<g>
	<path class="st3" d="M445.6,324c3.4,5.8,8.5,9.6,14.2,12.3c7.5,3.5,14.8,7.4,21.8,12.2c0.7,0.6,1.4,1.3,2.4,1
		c0.5-0.8,0.5-1.7,0.5-2.5c0.1-3,0.7-5.9,1.4-8.8c2.5-9.8,3.1-19.9,3.2-30c0-0.8-0.2-1.7,0.7-2.7c0.8,0.9,0.6,2,0.6,2.8
		c-0.3,6.3,0.3,12.4,1.6,18.4c0.9,4.4,1.6,8.8,2,13.3c0.2,2.5,0.7,5.2,1.2,7.8c0.3,2,1,2.2,2.9,1.3c0.2-0.1,0.5-0.3,0.7-0.5
		c6-4.1,12.4-7.9,17.7-12.9c2.1-1.9,4.4-3.5,6.8-4.9c3.5-2,6.5-4.5,9.1-7.4c2.1-2.1,3.8-4.4,5.7-6.8c-0.9-0.5-1.3-0.1-1.7,0
		c-3.2,1.3-6.6,2.1-10.1,2.3c-1.3,0.1-2.5,0.3-3.8,0.7c-2.5,0.7-5.1,0.9-7.8,1.2c-8.3,0.7-13.9-4.3-14.2-12.6
		c-0.3-6.4,2.7-11.7,6-16.6c2.5-3.7,7.6-3,10.2,0.9c0.6,1,1.2,2.1,1.9,3.1c2.9,3.9,2,8.7-2.1,11.5c-0.9,0.7-2,0.9-2.9,2
		c1.6,1.4,3.7,1.9,5.4,2.9c5.4,3.4,11.3,3.7,17.6,2.5c1.9-0.3,2.5-1.2,3-3c1.2-5,0.8-10.1,1.2-15.1c0.5-8.1-5.7-19.7-15.9-21.9
		c-0.8-0.1-1.5-0.3-2.2-0.6c-3-0.8-5.6-2.2-8-4.1c-5.3-4.2-11.3-6.3-18.1-6.7c-3-0.2-6-0.2-9-0.3c-12.7-0.5-23.9,3.9-33.7,11.7
		c-4.1,3.1-7.2,7.1-9,11.9c-0.7,2.1-1.4,4.1-2.3,6c-0.2,0.6-0.6,1.2-0.3,1.9c1.6,5.9,6.8,10.9,11.8,11.1c2.5,0.1,5.2,0.1,7.8-0.6
		c0.6-0.2,1.3-0.2,1.6-1c-1.7-2.5-1.9-5.3-0.7-8.2c1.6-4.2,5.8-5.7,9.6-3.2c2.9,1.9,4.5,4.4,5.1,7.8c0.5,2.7,0.3,5.3-0.3,7.6
		c-1.4,5.8-5.1,8.7-11.1,8.6c-3,0-6,0-8.9,0.7c-2.7,0.6-5.4,0.6-8.1,0.3c-1.9-0.1-3.7-0.2-5.6-0.3
		C443.4,319.7,444.1,321.4,445.6,324z"/>
	<path class="st3" d="M421.1,423.8c1.2,8.7,5.7,13.1,12.3,18.1c0.6-2.4,0.7-4.7,0.8-6.9c0.1-2.3,0.1-4.7-0.3-6.8
		c-0.2-1.3-0.5-2.4-0.8-3.6c-0.2-1-0.9-1.5-2.1-1.3c-2.7,0.5-5.4,0.2-8.1,0.2C422.3,423.4,421.6,423.1,421.1,423.8z"/>
	<path class="st3" d="M561.4,439c1.7-4.9,4.5-9,7.4-13.2c0.1-0.2,0.3-0.6,0.6-0.8c0.2-0.5,0.5-0.8,0.3-1.5c-0.2-0.1-0.6-0.2-0.8-0.2
		c-5-1-9.8-2.4-14.9-4.1c-0.3,4.7,0,9,0.1,13.7c0.1,4.4-1.4,8.6-2,13.2c2-0.8,3.6-1.4,5.1-2.3C558.9,442.4,560.7,441,561.4,439z"/>
</g>
<g>
	<path class="st4" d="M335.1,457.6c-1.9-3.2-4.1-6.3-6.8-8.8c-7.6-6.9-12.5-15.5-15.3-25.4c-1.2-4.3-2.9-8.3-4.7-12.3
		c-2.4-5.1-4.4-10.5-5.7-16.1c-1.2-5.2-1.4-10.4,0.5-15.5c0.1-0.7,0.3-1.3,0.7-1.9c0.3-0.7,1-1,1.9-0.9c1,0.2,1.4,0.9,1.4,1.9
		c0,0.7-0.1,1.5-0.2,2.2c-0.8,3.4-0.3,6.7,0.6,10c0.9,2.9,2,5.7,3.1,8.5c2,4.9,5.4,8.7,8.5,12.9c0.3,0.5,0.5,1.3,1.5,1.2
		c0.3-2.5,1.5-4.7,3.6-6.4c0.5-0.3,0.8-0.9,0.9-1.6c1.2-5.1,2.9-10.2,1.7-15.5c-0.2-1.2-0.3-2.4-0.1-3.6c0.5-2.7-0.3-5.1-1.3-7.4
		c-2.1-5.1-4.9-9.8-7.8-14.6c-4.6-7.6-6.4-15.9-4.7-24.8c0.1-0.7,0.3-1.4-0.2-2.4c-4.5,5.1-10.2,8.3-15.2,12.4
		c-5.2,4.3-8.5,10.1-11,16.3c-0.1,0.3-0.2,0.7-0.2,1c0.3,4.3-1,8.6-0.5,12.9c0.5,3.7,0.3,7.5,0.2,11.2c-0.1,3-0.3,5.9-1.4,8.8
		c-0.8,2.2-1.2,4.4-1.4,6.6c-0.9,9.7-3,19.2-7.5,28c-2.2,4.5-4.3,9-6.5,13.4c-2.9,5.9-5.1,12-6.4,18.5c-2.1,10.3-2.1,20.4,1.6,30.5
		c2,5.6,4.4,11,7.1,16.2c3.4,6.6,5.1,13.5,5.8,21c0.8,10-3.6,17.5-10.5,24c-0.2,0.1-0.5,0.3-0.7,0.5c-0.3,0.3-0.8,0.6-1.3,0.2
		c-0.6-0.5-0.5-1-0.1-1.5c1.4-2.3,2.9-4.6,4.3-6.9c2.1-3.5,3.1-7.3,3.1-11.5c0-5.7-1-11-3.1-16.2c-1-2.4-2.3-4.6-4.3-6.5
		c-0.3-0.5-0.7-1.2-1.6-0.8c-0.1,2-0.5,4.1-1.4,5.9c-2.8,5.4-4.2,11.2-4.7,17.4c-0.7,7.3-3.9,13.8-8.3,19.7c-1.7,2.4-1.7,2.5,0,4.9
		c3.2,4.3,5.8,9,7.4,14.1c1.7,5.4,2.5,11.1,0.8,16.8c-0.1,0.5-0.1,0.8,0.3,1.2c1.5-0.5,3-1.3,4.4-2.2c5.1-3.4,9.8-7.2,14.5-11.1
		c2.1-1.7,3.9-3.9,5.2-6.5c2.4-4.6,4.3-9.4,5.3-14.5c1.4-6.8,1.3-13.8,0.8-20.7c-0.2-4.4-0.6-8.8,0.3-13.2
		c1.5-7.2,4.9-12.7,12.4-14.8c0.7-0.1,1.3-0.3,1.6-1c2.4-4.5,4.9-9,5.2-14.4c0.8-11.8-0.7-23.2-5-34.2c-1.4-3.8-3-7.5-3.8-11.5
		c-0.7-2.9-1.2-5.9-0.6-8.9c0.1-0.7,0.2-1.7,1-1.9c1-0.1,0.9,0.9,1,1.6c1.3,6.4,4.1,12,7.4,17.5c2,3.4,4.1,6.7,5.8,10.2
		c4.3,8.5,8,17.1,9.4,26.6c1.3,8.5,0.3,16.4-4.1,24.1c-1.7,2.8-2.5,5.9-3.4,9.1c-1.7,7.5-3.9,14.9-6.7,22.2
		c-0.3,0.8-0.7,1.7-0.7,2.7c0.1,2.7,0.3,5.4,0.5,8.3c2.4-0.6,3.9-1.9,5.3-3.5c6.5-7.3,11.7-15.5,16.6-24c3.8-6.6,7.1-13.4,9.1-20.7
		c1.6-5.9,3-11.8,4.3-17.7c2.5-12.4,1.3-24.2-5.8-35.1C336.5,460.3,335.8,458.9,335.1,457.6z"/>
	<path class="st4" d="M464.8,167.3c-1.4,0.5-2.9-0.1-4.1-1.7c-1.7-2.3-2.2-5-2.1-7.8c0.1-2,0.3-4.1,1-6c0.3-0.9,0.3-1.7-0.1-2.7
		c-1.6-3-2.7-6.1-3-9.6c-0.2-2.2-1.4-4.3-2.7-6.1c-1.4-2.1-2.9-4.2-4.3-6.3c-1.3-2-2.8-3.7-5-4.9c-0.6-0.2-1-0.7-1.5-1.3
		c-1.5-1.5-1.7-3.7-0.6-5.3c0.3-0.3,0.7-0.8,1.2-1.2c0.2-0.1,0.4-0.2,0.5-0.3c-2.2-3.2-4.8-6-7.9-8.7l-0.5-0.4
		c-0.3,0.7-0.6,1.5-0.9,2.1c-0.5,0.8-1,1.6-1.7,2.4c-0.6,0.7-0.2,1.5-0.3,2.2c-0.2,1.4-1.2,2-2.4,1.2c-2-1.2-4.1-2-5.7-3.6
		c-3-3-6.7-5-10.4-6.9c-4.9-2.5-8.7-6.1-11.9-10.4c-0.8-1-1.5-2.2-2.2-3.5c-0.9-1.9-1-3.8,0.2-5.6c1.4-1.9,3.2-2.4,5.4-2.2
		c2.4,0.2,4.7,1.2,6.9,2.2c1.2,0.6,2.2,1.2,3.2,1.7c1.9,0.9,3.8,1.6,5.9,1.9c0.8,0.1,1.6,0.1,2.4,0.1c0.3,0,0.5,0,0.8,0l-1.6-1.6
		c-0.3-0.3-0.6-0.6-1-0.9c-0.3-0.2-0.5-0.5-0.8-0.7l-0.5-0.5l-0.3-0.1l-0.3-0.7l-1-0.3c-0.2-0.1-0.3-0.1-0.3-0.1l-0.5-1l-0.8-0.2
		l-0.5-1h-0.8l0,0l-0.5-0.5l-0.3-0.1l-0.3-0.8l-1.3-0.2c-0.1,0-0.2,0-0.5-0.3l-1.1-1.1h-0.5l-0.6-0.8h-1l-0.1-0.1l-0.7-0.7h-0.6
		l-0.7-0.8h-0.9c-2.1-1.3-4-2.7-5.7-4c-0.9-0.2-1.8-0.4-2.7-0.6c-0.8-0.1-1.7-0.3-2.5-0.7c-2.9-1-5.7-2.5-8.9-2.1
		c-0.6,0.1-1.2-0.2-1.6-0.5c-0.8-0.3-1.6-0.6-2.4-0.5c-4.9,0.7-9.6-0.2-14.5-0.7c-12.2-1.3-23.9,0.9-35.3,5c-4.5,1.5-9,3.1-13.5,4.6
		c-7.1,2.3-13.4,5.7-19.5,10c-7.1,5.1-13.4,10.9-19,17.5c-14.4,17.1-27.2,35.3-37.2,55.3c-1.3,2.8-2.4,5.7-3.1,8.7
		c-2,8.2-3.6,16.4-6.4,24.4c-6.1,17.1-10.9,34.6-14.6,52.4c-0.6,2.5-0.9,5-0.7,7.5c0.7,6.9-0.8,13.8-0.2,20.7c0.1,0.5,0,1-0.1,1.6
		c-0.5,2.3-0.3,4.6,0,6.9c0.5,2.7,0.8,5.3,1.4,8c1.4,6.1,0.5,11.8-2.5,17.1c-1.7,3.1-3.5,6.3-5.1,9.4c-0.7,1.5-1.6,3-1.2,4.5
		c-16,3.2-26.7,13.3-35.7,25.9c-1.6-1.9-2-2.3-2.2-4.5c-0.3-3.1,0-6.3,0.5-9.3c1.2-6.8,3.9-13,7.8-18.8c3.7-5.4,8.1-10.3,13-14.7
		c0.9-0.8,1.9-1.6,2.1-2.9c0.9-6.6,4.1-12.3,7.8-17.6c0.8-1,1.6-2.2,1.9-3.5c0.9-5,2.9-9.7,4.2-14.6c0.1-0.6,0.6-1.2,0-1.9
		c-1.6,2.3-3,4.5-4.6,6.7c-6.6,8.9-14,17.3-22.7,24.3c-10.2,8.3-17.7,18.5-22.8,30.6c-2.5,6.1-4.5,12.5-6.4,18.9
		c-3.7,12.6-5,25.2-3.2,38.3c1.3,9.4,4.3,17.9,10.5,25.2c3.2,3.8,6.1,8,9.1,12c5.3,7.1,8.2,14.9,8,24c-0.2,5,0.8,9.7,2.3,14.4
		c1,3.2,2.1,6.6,2.8,10c0.7,3.6,0.7,7.1-0.3,10.5s-2.3,6.6-2.3,10.3c0,1.6-1,2.5-2.2,2.4c-1.4-0.1-1.9-1.2-2.1-2.3
		c0-0.5-0.1-0.9-0.1-1.4c-0.3-3.4-0.7-6.7-1.2-10.1c-0.5-3.8-0.8-7.6-2.7-11.1c-1.6-2.9-3.1-5.8-4.9-9c-2.4,2.8-5.3,4.5-8.1,6.4
		c-2.2,1.4-3.6,3.4-3.8,6.1c-0.2,3.2-0.8,6.6-1.3,10c-0.2,1.5-0.3,3-1.3,4.3c-0.7,1-0.8,2.1-0.8,3.2c-0.1,4.7,0.2,9.4,1,14
		c1.4,7.3,3.4,14.5,7.1,21c2.9,5.3,6.9,9.3,12.4,12.2c7.9,4.3,16.7,6.7,25.1,9.8c0,0,0.1-0.1,0.2-0.1c0.2-0.8-0.5-1.2-0.7-1.7
		c-1.9-3.6-4.6-6.7-6.8-10.2c-3.1-4.9-4.5-10-3.2-15.7c0.3-1.6,0.2-3.1-0.1-4.7c-0.6-2.4-0.9-5-0.8-7.5c0.2-3,1-5.7,3.2-7.9
		c2.8-2.8,6.9-1.6,8,2.1c0.3,1.2,0.3,2.3,0.3,3.6c-0.1,5.2,1.2,10.2,3.6,14.8c3.9,7.4,3.1,6.3,10.1,7.9c4.7,1,9.1,2.9,12.7,6.3
		c0.3,0.2,0.6,0.7,1.4,0.3c1.6-5.9,4.9-11.3,7.6-16.9c0.1-0.3,0.2-0.6,0.3-0.8c3.8-8.6,5.9-17.6,5.3-27.2c-0.2-3.8-0.3-7.6-0.5-11.5
		c-0.6-13.4,4.1-24.8,13.5-34.2c3-2.9,5.6-6.1,7.8-9.8c1.4-2.3,2.8-4.6,4.2-6.9c0.9-1.6,1.6-3.6,3.7-4.4c0.5-0.2,0.7-0.8,0.8-1.4
		c2.7-8.8,5-17.6,3.8-27c-1.7-14.6-5.4-28.6-11.2-42.1c-1.2-2.7-2.3-5.3-2.8-8.2c-0.8-4.9-0.8-9.7,1.3-14.4c0.9-2.2,2.4-4.1,4.7-4.9
		c2.1-0.7,3.5,0.1,3.8,2.3c0.3,1.5,0.3,3,0.6,4.5c0.8,5.3,4.1,8.7,8.8,11.1c0.6-1.4,1.2-2.5,1.6-3.8c2.1-5.6,5.2-10.5,9.6-14.4
		c3.7-3.1,5.6-6.9,6.7-11.3c0.2-0.9,0.6-2,0.9-2.9c1.5-4.2,2-8.5,1.9-12.7c0-4.4-0.1-8.8-0.1-13.2c0-0.9-0.1-1.7,0.2-2.5
		c0.6-1.2,0.3-2.2,0.1-3.4c-1.9-11.5-2.9-23-2.7-34.6c0.1-5.9-0.6-11.8-0.1-17.7c0-0.1-0.2-0.2-0.5-0.5c-2.1,1.7-4.1,3.5-6.3,5.1
		c-10.2,7.3-17.4,17-23.6,27.6c-1.6,2.8-2.7,5.8-3.7,8.8c-1.4,4.3-1.4,8.6,0.3,12.9c0.9,2.1,1.6,4.4,2.3,6.6
		c1.9,6.1,1.6,12-1.2,17.8c-0.7,1.3-1.3,2.7-1.5,4.2c-0.7,3.2-3,5.1-5.8,6.4c-3.4,1.4-6.4-0.8-6.4-4.4c0-0.5,0-0.8,0.1-1.2
		c0.6-1.5,0.1-2.9-0.8-4.2c-1.3-2-2.1-4.2-2.7-6.5c-1-4.1-2-8-2.9-12c-2.3-10.2-1.4-20.1,2.8-29.6c2.8-6.3,6.4-12,10.5-17.5
		c4.4-5.8,9.4-11,14.6-16c3.9-3.8,7.9-7.6,10.9-12.4c3.6-5.8,7.3-11.6,10.9-17.4c0.6-0.8,1.2-1.6,1.3-2.7c-0.6-0.3-1-0.1-1.4,0.1
		c-5.1,2.4-10.5,4.1-15.9,5.7c-4.5,1.3-9,2.5-12.7,6c-2.7,2.4-5.3,5-7.6,7.8c-3.4,4.1-4.9,8.6-3.9,13.8c0.2,0.8,0.2,1.5-0.6,2
		c-0.8,0.6-1.6,0.1-2.2-0.6c-0.9-1-1.7-2.2-2.2-3.6c-0.8-2.4-1.2-5-0.9-7.5c0.3-5,2.2-9.6,4.5-14c4.1-7.6,9.6-14.4,15.2-20.8
		c6.1-7.3,9.8-15.5,11.5-24.9c1.5-9.3,5-17.7,11.7-24.4c8-8.1,17.5-14.1,28-18.3c2.7-1,5.3-1.6,8.2-1.5c1.7,0.1,3.2,0.5,4.5,1.5
		c0.8,0.7,1.7,1.5,1.5,2.8c-5.8-0.8-7.6-0.5-13,2.4c-1,0.6-2.1,1.2-3.1,1.9c-0.5,0.3-1.2,0.6-1.3,1c-0.5,1.4-1.7,2-2.8,2.7
		c-6.7,4.5-11.3,10.5-14.4,18.2c-3.1,8.1-3.5,16.6-3.2,25.1c0,0.5,0,0.8,0.1,1.2c0.5,2,0.8,2.2,2.7,1.9c2.3-0.5,4.6-1.4,6.7-2.7
		c0.7-0.5,1.3-1,1.6-1.9c3-6.7,7.9-12.2,12.5-17.8c4.3-5.2,9.4-9.1,15.9-11c1.3-0.3,2.1-1.2,2.8-2.2c3.5-5.2,8.3-7.9,14.8-6.6
		c1.2,0.2,2.2,0.1,3.2-0.5c2.9-1.4,5.9-1.9,9-1.5c0.8,0,1.6,0.3,2.5,0c-0.5-1.6-1.9-2.4-3.1-3.4c-2.7-1.9-5.7-2.8-8.7-3.9
		c-0.8-0.3-1.7-0.7-2.5-1.2c-0.5-0.2-0.8-0.8-0.7-1.4c0.1-0.6,0.6-0.9,1.2-0.9c0.8,0,1.7,0,2.5,0c3.9,0.2,7.9,0.8,11.7,1.6
		c2.7,0.6,4.9,1.9,6.8,3.7c3.9,3.6,6.3,8,7.2,13.1c0.8,4.2,1.9,8.3,4.5,11.9c0.5,0.5,0.7,1.2,0.9,1.7c0.7,2-0.1,2.8-2.1,2.4
		c-1.6-0.3-3-0.2-4.2,1.3c-1,1.4-2.8,1.5-4.4,1.5c-2.2,0.1-4.3-0.5-6.4-0.9c-2.4-0.6-4.9-0.3-7.4,0.3c-9.3,2.4-16.9,7.9-24.1,13.9
		c-2,1.7-3.7,3.7-5,6c-0.2,0.5-0.8,1-0.3,1.9c0.8-0.3,1.7-0.7,2.5-1c1.9-0.6,3.1-0.5,3.8,0.6c0.8,1,0.6,1.9-1.2,3.6
		c-3.1,3.1-5.7,6.4-7.5,10.4c-1.3,2.9-2.5,5.9-3.5,8.9c-1.6,5.2-4.4,9.5-8.7,12.9c-0.9,0.7-1.9,1.5-2.7,2.4
		c-2.3,2.7-4.9,5.3-5.6,8.9c-1.2,5.6-2.1,11-3.1,16.6c-0.1,0.7-0.2,1.3,0,2c1.4,4.1,1.9,8.2,2.5,12.4c1.7,9.3,3.8,18.5,7.6,27.2
		c1.5,3.4,3.4,6.6,5.7,9.6c4.1,5.2,8.8,9.6,12.4,15.5c1.6-2.5,3.2-4.9,3.6-7.8c0.2-1.9,0.7-3.7,1.9-5.2c0.7-1,0.7-2-0.1-3
		c-1-1.4-2.2-2.7-3.7-3.7c-4.2-2.9-7.6-6.4-9.6-11.1c-0.6-1.5-1.4-2.5-2.8-3.4c-3.4-2.1-4.6-5.2-3.9-9.1c0.6-2.9,1.9-5.3,3.6-7.5
		c0.6-0.7,1.4-1,1.3-2.1c-2.1-0.9-2.1-0.9-4.5-0.2c-2.2,0.6-3.8,0.1-4.6-1.5c-0.8-1.6-0.3-3.6,1.5-4.9c0.7-0.6,1.6-0.9,2.3-1.5
		c5.4-5.1,11.7-9.4,17.4-14.2c1-0.9,2-2,2.7-3.2c0.9-1.7,2-3.2,3.2-4.6c0.8-0.7,1.5-1.7,2.7-1c1.3,0.8,0.2,1.7-0.1,2.7
		c-1.4,3.2-2.9,6.6-3.5,10.1c-0.5,2.9-1.3,5.7-2.3,8.3c-0.6,1.6-0.8,3.2-0.3,4.9c0.5,1.4,0.5,2.7-0.2,4.1c-0.1,0.3-0.3,0.7-0.2,1
		c0.9,3.4,0.5,6.7,1,10.1c1.2,6.3,4.1,11.3,9.7,14.4c3.9,2.1,7.6,4.6,11.2,7.3c1.2,0.8,2.4,1.5,3.6,2.2c0.8,0.5,1.7,0.8,2.7,0.9
		c2.2,0.1,4.3,0.2,6.5,0.2c2.9-0.1,5.7-0.5,8.5-1.2c0.6-0.1,1.3-0.3,2-0.6c4.5-1.6,9-3.2,13.7-4.3c1.9-0.3,3.8-0.8,5-2.4
		c1.2-1.4,2.7-2.3,4.3-3c1.9-0.8,3.8-1.5,5.7-2.3c0.9-0.3,2.2-0.7,2.5-1.6c0.7-1.6,2.2-2.3,3.5-3.1c1-0.7,2.1-1.4,3.1-2.2
		c1.3-0.9,2.4-2,3.5-3c0.7-0.7,1.4-1.3,2.1-2s1.5-1.3,2.2-2c1-0.9,2.1-1.9,3.1-2.8c0.7-0.7,1.4-1.4,2.1-2.1c0,0.6-0.1,1.2-0.3,1.6
		c-0.6,1.4-1.2,2.8-1.8,4.1l1.3-1.1l2.2-2.2l-0.3-0.3c0.1-0.1,0.1-0.2,0.2-0.3l0.1-0.1c0.1-0.1,0.1-0.2,0.2-0.3
		c0.2-0.2,0.4-0.5,0.5-0.9c2.1-3.6,3.6-7.4,4.3-11.5c-1.1,0-2.1-0.4-2.8-1.4c-0.2-0.3-0.3-0.7-0.5-0.9c-0.3-1-0.3-2.2-0.5-3.4
		c-0.1-5.2,2.4-8.9,6.4-11.9c2.4-1.9,4.2-4.1,5.4-6.7c0.7-1.4,0.8-2.5,0.3-4.1c-0.8-2.3-0.9-4.7-0.2-7.2c0.3-1.4,1-2.8,2.3-3.7
		c1.2-0.9,0.9-1.6,0.1-2.5s-1.6-1.9-2.4-2.8c-0.9-1-1.6-2.2-2.1-3.6c-1.2-3.9,1.7-7.1,5.7-6.3c2.9,0.6,5.3,2.1,7.6,3.7
		c0.1,0.1,0.2,0.1,0.3,0.2c0.7,0.5,1.4,1,2.3,1.4c0.1,0,0.2,0.1,0.2,0.1v-2.1c0.6-2.1,1.1-4.2,1.5-6.3c0.3-1.6,0.7-3.3,1.1-4.9
		c0.3-0.8,0.4-1.7,0.5-2.4l0.7-4.1c-0.5,0.9-1,1.7-1.5,2.5C466.3,166.5,465.6,167.1,464.8,167.3z M240.6,398.2
		c-1.5,6.3-3.9,12-7.8,17.3c-4.1,5.6-8.3,10.9-14,14.8c-1.2,0.8-1.5,1.7-1.4,3.1c0.5,6.4,1.3,12.6,3.2,18.8
		c2.2,7.2,2.2,14.5,0.7,21.9c-1.6,7.6-6.9,11.5-13.8,13.8c-0.9,0.3-2,0.3-3,0c-2-0.8-2.5-2.7-1.2-4.2c0.8-0.8,0.9-1.6,1-2.5
		c0.1-2.1,0.3-4.1,0.5-6.1c0.3-4.9-0.7-9.1-3.4-13.3c-3-4.6-5.1-9.7-5.7-15.4c-0.1-0.8-0.3-1.6-1-2.2c-5.6-4.6-8.6-10.9-10.7-17.4
		c-3-8.1-5-16.4-3.8-25.2c0.8-6.1,2.5-11.9,4.7-17.6c0.2-0.6,0.3-1.3,1.2-1.5c0.2,0.9-0.1,1.6-0.3,2.4c-1.9,8.2-0.2,15.9,3.7,23
		c3.8,6.8,11.6,8.6,17.8,3.9c7.5-5.6,11-13.3,11-22.6c0-1.4,0-2.7-0.3-3.9c-1.6-5.4-1.5-11-2-16.4c-0.3-4.5-1.4-9-2-13.5
		c-1.3-8.9,1-17,5.6-24.4c3.4-5.6,7.5-10.7,12.2-15.4c1.6-1.6,3.2-3.1,5.2-4.3c1.4-0.9,2.7-0.8,3.6,0.1c0.9,0.9,1,2.2,0.2,3.6
		c-1.3,2.2-2.8,4.4-4.2,6.6c-0.7,1-1.4,2-1,3.4c0.2,0.9-0.5,1.9-0.8,2.7c-2.8,5.9-4.7,12-5.8,18.4c-1.2,6.8-0.3,13.3,3.4,19.2
		c1.4,2.3,2.8,4.6,4.2,6.9C241.7,380.1,242.8,388.9,240.6,398.2z M347,198.2c0.2-0.5,0.3-0.8,0.6-1.3c3.1-6,7.1-11.5,11.9-16.2
		c2.9-2.9,6.8-4.2,10.3-6.1c1.4-0.8,2.8-1.7,3.8-3.1c1.6-2.2,3.9-3.5,6.4-4.3c2.4-0.8,5-1.5,7.5-2.2c3.5-1,6.8-0.9,10.2,0.3
		c1.3,0.6,2.5,0.7,4.1,0.3c3.8-1,7.2,0.2,9.8,3.1c2.1,2.2,3.6,4.9,4.4,7.8c0.7,2.4,1.7,4.6,3.1,6.8c1.7,2.7,3.2,5.4,3.2,8.8
		c0,1.2,0.2,2.4-0.2,3.4c-1,2.2-0.8,4.4-0.1,6.6c-0.9-1.4-1.5-3-3.6-3.1c-0.8,0-1-0.9-1.2-1.7c-0.9-5.6-7.8-10.1-12.7-9.8
		c-3,0.1-5.6-0.8-7.6-2.9c-0.2-0.2-0.6-0.5-0.8-0.7c-3-3.2-6.9-4.3-11.1-4.4c-6-0.2-12-0.2-17.8,2.4c-4.2,2-8,4.4-11.1,7.9
		c-2.2,2.4-4.3,4.9-6.3,7.5c-0.3,0.6-0.9,1.2-1.4,1.7c-0.2,0.3-0.7,0.3-1,0.1C347,198.9,346.9,198.6,347,198.2z M423.8,231.8
		c-3.7,4.2-8,7.3-13.4,8.6c-0.9,0.2-1.5,0.8-2.1,1.4c-4.5,4.1-9.7,6.1-15.6,7.1c-4.5,0.7-9,1.4-14.8,1.7c-2.7,0.2-6.1-0.9-9.3-3.2
		c-1.7-1.3-3.5-2.5-5.1-3.9c-2.5-2.3-5.3-3.9-8.7-4.9c-3.4-0.9-5.8-3-6.6-6.6c-0.7-3.1-0.5-6.3,1.4-8.9c2.7-3.8,4.4-8.2,7.8-11.6
		c0.3-0.2,0.5-0.6,0.7-0.9c3.8-6.8,10.1-10.4,17-13.1c3.5-1.4,7.1-2.3,10.8-2.9c6.8-0.9,13,0.6,18.5,4.7c5.1,3.8,9.3,8.3,11.9,14.2
		c1.2,2.5,3,4.5,5.3,6c1.6,1,2.9,2.4,3.4,4.2C426.1,226.6,426,229.4,423.8,231.8z"/>
	<path class="st4" d="M383.2,415c-5.8-2.9-11.3-6-15.6-11.1c-4.6-5.4-8.8-11.1-11.5-17.8c-0.1-0.3-0.2-0.6-0.3-0.8
		c-0.5-0.9-1-0.7-1.5-0.1c-0.2,0.3-0.3,0.7-0.5,1c-0.8,4.6-2.1,9.1-2.8,13.8c-0.7,4.5,0,8.9,1.2,13.3c0.3,1.4,1,2.7,2,3.7
		c1.9,2.1,3.7,4.3,5.6,6.4c1.3,1.4,2.4,2.7,3,4.4c0.7,2.3,2.3,3.7,4.2,5.1c3,2.2,6.3,4.1,9.4,6.1c0.8,0.5,1.6,1,2.4,1.6
		c0.7,0.5,1.3,0.9,2,1.4v-2.4l-0.2-0.5c-2.2-5-3.1-8.8-3-12.7c0.2-4.6,2-7.6,5.7-9.3c0.1-0.1,0.3-0.1,0.5-0.2l2.1-0.7
		c-0.3-0.1-0.6-0.3-1-0.5C384.2,415.4,383.6,415.2,383.2,415z"/>
	<path class="st4" d="M282.7,603.5c-0.2-0.9-0.3-1.9-1.2-2.8c-0.7,0.3-1.2,0.6-1.6,0.9c-4.5,2.8-8.9,5.8-13.7,8.3
		c-1.2,0.6-1.9,1.5-2.5,2.5c-0.3,0.6-0.8,1.2-1.2,1.9c2.9,1.5,5.8,3.2,8.6,5l2.1,1.4l2.1,1.5l1,0.7l0.5,0.3l0.5,0.3l2,1.5
		c0.3,0.3,0.7,0.6,1,0.8l0.9,0.8l1.5,1.3l0.3,0.3c0.6,0.6,1.3,1.2,1.9,1.7l0.5,0.4l-0.5-2.6l0.7-0.7l-0.2-1.2c0-0.1,0-0.1,0-0.1
		l0.4-0.7l-0.2-0.9l0.6-0.8l-0.2-0.8l0.3-0.3l0.1-0.7c0.1-0.7,0.2-1.4,0.2-2.1c0.1-1.4,0.3-2.8,0.8-4l0.2-0.4
		c0.1-0.2,0.1-0.4,0.1-0.6c0-0.1,0-0.2,0-0.3l0.3-0.9c-0.5-0.6-0.9-1.2-1.4-1.8C285,609.2,283.6,606.5,282.7,603.5z"/>
	<path class="st4" d="M215.7,582.8c-1.3-2.1-2.7-4.1-5-5.7c-1.5,4.1-4.4,6.8-7.6,9.3c-2.5,1.7-5.1,3.5-7.6,5.2
		c-3.8,2.7-7.3,5.8-10,9.5c2.7-0.3,5.4-0.6,8.1-0.8c6.8-0.3,13.5,0,20.3,0.7c3.6,0.5,7.3,0.9,10.9,1.6c-0.9-2.4-2-4.7-2.9-7.2
		C220.1,591,218.2,586.8,215.7,582.8z"/>
	<path class="st4" d="M353.6,361.3c3,2.3,6.3,3.8,9.8,4.6c2.2,0.6,2.2,0.7,2.7-1.6c0.6-2.5,1.3-5,2.7-7.2c0.3-0.6,0.8-1,1.3-1.6
		c1.2-1.3,2.2-2.7,3.1-4.2c0-0.1,0.1-0.2,0.1-0.3c5.8-11.4,9.2-23.5,11.5-32.7c0.1-0.5,0.3-1.2,0.3-1.9V314
		c-0.5,0.4-0.9,0.8-1.4,1.1c-0.1,0-0.1,0.1-0.2,0.1c0.1-0.6-10.2,3.5-15.3,3.2c-3-0.1-6,0.3-8.9,1c-2.4,0.6-3.8,2-4.5,4.2
		c-0.8,2.3-1.4,4.5-1.7,6.8c-1.5,9.1-1.9,18.3-1.2,27.4C352,359.4,352.5,360.5,353.6,361.3z"/>
	<path class="st4" d="M628.2,425.8c0.6,1.9,0.8,3.8,1.3,6.3c3.5-3.6,6.7-6.7,9.5-10.4c4.2-5.4,3.9-11.3,2.5-17.6
		c-0.5-2.1-0.6-2-2.7-1.5c-4.2,1-8.3,1.5-12.5,0.9c-2.3-0.3-2.2-0.3-3.5,1.5c-0.5,0.7-0.9,1.3-1.4,2c-0.5,0.6-0.9,1.2-1.4,1.8
		c3.5,2.7,5.4,7,5.1,11.9c0.1,0.1,0.2,0.2,0.3,0.3c0.8,0.9,1.5,1.9,2,2.9C627.7,424.5,627.9,425.1,628.2,425.8z"/>
	<path class="st4" d="M656.4,563.3c-0.1-6,0.9-11.8,2.4-17.5c1-4.2,2-8.3,2.5-12.6c0.3-3-0.7-5.4-3.1-7.1c-4.9-3-8.1-7.4-11.5-11.8
		c-4.4-5.7-5.9-11.9-4.7-19c0.7-3.7,1.4-7.4,2.3-11c1.3-4.4,1-8.8,0.3-13.3c-0.2-1.6-0.6-1.7-2-0.7c-2,1.5-3.6,3.4-5,5.3
		c-5.8,8.1-8.9,17.3-11,26.9c-1.2,5.8-1.4,11.7-1.3,17.6c0,1-0.1,2.1,1.3,2.4c1.9,0.5,2.4,2,2.3,3.7c-0.1,1.6,0.1,3.2,0.5,4.7
		c2.2,10.3,5.1,20.4,9.3,30c2,4.7,4.4,9.1,7.9,12.6c4.7,5.1,10.1,9.5,15.9,13.3c0.3,0.2,0.6,0.6,1.3,0.2c-0.2-0.3-0.3-0.6-0.5-0.8
		C658.5,579.4,656.8,571.6,656.4,563.3z"/>
	<path class="st4" d="M808.1,469.1c-4.9-10.3-6.3-21-3.6-32c1.2-5,1-9.8,0.6-14.8c-0.1-1.4-0.3-2.7-0.5-3.9c-0.8-6-1.5-12-3.9-17.7
		c-2.9-6.8-6.1-13.4-10.8-19.3c-1.4-1.9-2.7-3.8-3.9-5.8c-0.5-0.7-0.9-1.6-1-2.5c0-0.5,0.1-0.9,0.5-1.3c0.5-0.5,1-0.3,1.5,0
		c0.7,0.6,1.3,1.2,1.9,1.7c2.2,2.1,4.2,4.3,6.6,6c0.5-1.9,0.5-1.9,1.6-1.3c6.3,3.1,11.8,6.9,15.9,12.7c0.6,0.8,1.2,1.9,2.4,2.4
		c0.3-4.2,0-8.1-0.7-11.9c-1.7-9.4-5.1-18.2-8.9-26.9c-3-6.8-5.6-13.7-7.9-20.7c-1.7-5.6-2.1-11.5-3.1-17.1
		c-0.3-1.7-0.5-3.8,1.9-4.7c0.5-0.1,0.3-0.9,0.5-1.5c0.7-4.4,1.2-8.8,1.6-13.3c0.1-1.6-0.1-2.9-1-4.3c-2.2-3.4-4.3-6.8-5.9-10.5
		c-3.1-7.4-6.6-14.8-10.2-22.1c-1.2-2.3-2.1-4.7-3.1-7.2c-4.5-10.4-7.8-21.4-13.1-31.6c-0.3-0.6-0.3-1.5-1.4-1.7c0,0.5,0,0.8,0,1.2
		c0.8,5.9,1.6,11.8,3.4,17.6c2.3,7.6,5.8,14.8,8.5,22.3c0.2,0.6,0.9,1,0.2,2c-2.1-4.5-4.9-8.3-8-11.9c-4.6-5.2-8.5-11.1-12.6-16.8
		c-3.5-4.7-5.4-10.1-5.9-15.9c-0.6-7.3,0.1-14.6,0.5-21.9c0.5-9.4,1.9-18.8,1-28.3c-0.9-10.8-3.8-21-8.6-30.3
		c-5.4-10.7-12.3-20.4-19.9-29.5c-4.1-4.7-9.1-8.8-14.2-12.6c-7.4-5.6-15.2-10.7-22.8-15.9C677.6,74.2,669,70.1,659,69
		c-6.6-0.7-13.1-2.1-19.8-1.2c-1.5,0.2-3,0.1-4.4-0.7c-1-0.6-2.2-0.7-3.5-0.6c-0.9,0.1-2,0-3-0.1c-4.7-0.7-9.1-0.2-13.3,2.2
		c-1.9,1-3.7,1.7-5.8-0.1c-1.3-1.2-3.2-1.5-4.9-2.8c1.4-0.9,2.8-1.7,3.8-2.8c0.2-0.1,0.5-0.3,0.6-0.6c1-1.4,3-2,4.2-3.4
		c-0.2-0.2-0.3-0.3-0.5-0.4l-5.2,2.6c-0.3,0.1-0.8,0.4-1.3,0.9l-0.1,0.1h-0.6l-0.4,0.4c-0.2,0.1-0.5,0.3-0.8,0.5l-0.1,0.1h-0.5
		l-0.6,0.6c-0.2,0.1-0.4,0.3-0.6,0.4l-0.1,0.1h-0.2l-0.6,0.5c-1.2,1-2.3,1.9-3.5,3l-0.1,0.1c-0.5,0.5-1,1-1.5,1.5s-1.1,1-1.6,1.6
		l-2.6,2.6v0.2l-1.2,0.2v1.3l0,0l-0.5,0.5l-0.1,0.3l-0.7,0.3l-0.3,1.1c0,0.1-0.1,0.3-0.3,0.4c-0.1,0.1-0.2,0.2-0.3,0.3
		c-0.2,0.2-0.4,0.5-0.6,0.7l-0.2,0.3h-0.1l-0.6,0.8c-0.8,1-1.3,2.2-1.7,3.1c-0.4,0.8-0.7,1.7-1,2.5l-0.4,1v0.3l0,0l-0.7,0.7v0.9
		l-0.3,0.3l-0.2,0.7c-0.4,1.6-0.8,2.8-1.3,3.9l-0.8,1.6c1-0.4,2-0.7,3-1c0.1,0,0.3-0.1,0.5-0.1c2.5-0.8,5.3-1.5,7.9-2.4
		c1.5-0.5,2.5-2,4.5-1.7c0.2,0.1,0.7-0.7,1-1.2c1.3-1.9,2.4-3.7,3.4-5.8c0.2-0.7,0.6-1.3,1.4-1.2c1,0.2,0.8,1.2,0.8,1.9
		c0,0.2-0.1,0.3-0.1,0.6c-3,11-7.5,20.6-19.3,24.7c-6.7,2.3-11.7,6.7-15.7,12.5c-1.3,1.9-1.7,3.9-1.7,6.1c0,1.7-0.3,3.1-1.3,4.5
		c-0.5,0.7-0.7,1.4-0.9,2.1c-0.7,2-2.1,2.4-3.5,1c-0.9-0.9-1.7-1.9-3-2.3c-0.5-0.1-0.7-0.6-0.9-1c-0.1-0.2-0.1-0.5,0.1-1.4
		c-0.1-0.3-0.2-0.7-0.3-1l-1.6,1c-0.9,0.5-1.7,1-2.6,1.6c-2.3,1.4-4.4,2.7-6.6,3.8l-0.5,0.2l-0.3,0.4c0,0,0,0-0.1,0l-0.4,0.1
		l-5.9,3.5c0.3-0.1,0.7-0.2,1-0.3c1.4-0.5,2.8-0.8,4.2-0.6c0.1,0.1,0.1,0.1,0.2,0.1c1.5,0.5,1.9,1.6,0.9,2.9
		c-0.2,0.3-0.5,0.6-0.8,0.8c-3.8,2.8-6.8,6.4-10.1,9.7c-2.1,2.1-3.5,4.7-4.9,7.4c-2.5,5-1.5,10-0.5,14.9c0.3,1.4,0.8,2.7,1.2,4.1
		c0.5,1.9,0.6,3.6,0.1,5.3c-0.3,1.2-0.3,2.1,0.6,3c0.3,0.2,0.5,0.7,0.7,1.2c0.2,0.6,0.3,1.2-0.2,1.5c-0.3,0.3-0.9,0.2-1.3-0.1
		c-1.4-1.4-2.4-0.6-3.7,0.5c-0.1,0-0.1,0.1-0.2,0.1c-0.1,0.1-0.2,0.2-0.5,0.3c-0.8,0.5-1.5,0.8-2.3,0.9c0.1,1.5,0,2.9-0.1,4.1
		l-0.1,0.7l0.3,0.6l0.1,0.4c0.1,0.3,0.1,0.8,0,1.2c0,0.2,0,0.5,0,0.7v0.4l0.1,0.4c0.3,0.7,0.2,1.1,0.2,1.4l-0.2,1l0.5,0.8v1.9
		l0.3,0.3l-0.2,0.6l0.5,0.9c0,0.1,0.1,0.1,0.1,0.2v0.4l0.2,0.4c0.3,0.8,0.7,1.6,1,2.4l2,5.2c-0.2-2.2,0-4.3,0.6-6.5
		c0-0.3,0.1-0.7,0.2-1c0.1,0,0.1,0,0.1-0.1c1-3.2,4.7-4.3,7.5-2.2c1.3,0.9,2.1,2.2,2.3,3.7c0.2,1.4,0.2,2.8,0.5,4.2
		c0.9,4.6,2.4,8.7,7.8,10.2c4.7,1.3,8.3,4.2,10.7,8.6c0.6,0.9,1.2,1.9,1.7,2.9c1.5,3,3.4,5.8,3.5,9.4c0.1,1.9,1.3,3.4,2.5,4.6
		c1.2,1.4,2.7,2.3,4.3,3.1c5.7,3,11.7,3.8,17.9,3.6c8.7-0.3,17.3-2,25.4-5.3c0.8-0.3,1.6-0.9,2.5-0.7c0.3,1.2-0.1,2-0.6,2.8
		c-2,3.1-4.3,5.9-7.8,7.5c-1.7,0.8-3.4,1.9-5.1,2.4c-1.9,0.7-2.3,2.5-3.4,3.8c-0.2,0.2-0.3,0.3-0.5,0.5c-0.3,0.3,0,0.8,0.2,1.2
		l0.1,0.1c0.2,0.3,0.5,0.7,0.8,1c3.1,3.1,10.3,5.4,14.4,4.4c3.4-0.9,6.5-2.5,9.4-4.4c3.2-2.1,7.1-3.6,9.5-6.8
		c1.5-2.1,2.9-4.2,4.2-6.4c0.3-0.5,0.6-0.9,0.9-1.4c0.2-0.3,0.7-0.5,1-0.2c0.2,0.2,0.5,0.5,0.5,0.7c0,0.7,0.1,1.4-0.1,2
		c-0.3,1.4-0.2,2.8-0.1,4.2c0.8,7.1-0.7,13.7-5,19.3c-2.9,3.9-5.8,7.9-9.3,11.3c-0.3,0.3-0.7,0.7-0.9,1c-0.5,0.8-0.2,1.3,0.6,1.5
		c1.2,0.3,2.2,0,3.4-0.2c2-0.3,2.8,0.7,2.1,2.7c-0.5,1.5-1.3,2.5-3,2.8c-2.3,0.3-4.6,0.9-6.9,0.8c-1,0-2.1,0-3.2,0
		c0.1,1.2,0.9,1.4,1.5,1.9c4.1,3.2,8.6,6,12.5,9.5c0.7,0.7,1.4,0.8,2.3,0.6c2.2-0.6,4.5-0.5,6.7-0.3c1.4,0.1,2.8,0.2,4.2,0
		c10.9-1.5,19-9.3,21-20.1c0.5-2.8,1.3-5.4,2.5-8c3.5-7.3-2.8-16.3-10.8-16c-2.1,0.1-4.2-0.1-6-1.2c-0.8-0.6-1.2-1-0.3-2
		c3.6-4.2,4.5-9,3.7-14.2c-0.6-4.2-1.4-8.3-1.6-12.5c-0.1-1-0.6-2-1.2-2.8c-1.4-2.1-3.2-3.6-5.4-4.7c-0.9-0.5-1.9-1.3-1.5-2.7
		c0.3-1.3,1.5-1.6,2.7-1.7c2.9-0.2,5.6,0.5,7.8,2.4c2.8,2.5,4.7,5.6,5.8,9.1c0.2,0.9,0.2,2,1.5,2.7c0.2-1.2,0.5-2.3,0.7-3.4
		c1-4.9,1.5-10,4.4-14.4c0.5-0.7,0.3-1.4,0-2.1c-1.4-3.1-2.5-6.3-4.5-9c-2.1-2.8-4.1-5.7-6.3-8.3c-0.9-1.2-1.7-2.2-2.2-3.6
		c-0.9-2.8,0.5-4.7,3.5-4.4c1.5,0.2,2.9,0.8,4.3,1.4c1.3,0.6,2.7,1.3,3.7,1.7c0.7-0.1,0.8-0.5,0.8-0.7c0.7-4.9,2.3-9.4,3.9-14
		c2.5-7.3,2.8-14.7-0.5-21.9c-0.9-2-2-3.6-3.8-4.7c-2.1-1.2-3.7-3-5.1-5.1c-1.5-2.2-3.4-3.7-6-4.3c-3-0.7-5.6-2.2-7.5-4.6
		c-0.7-0.8-1.6-1.6-2.4-2.3c-0.9-0.8-3.2-1-1.2-3c0.1-0.2-0.2-1-0.3-1.6c-0.8-3.5-1-6.9-0.1-10.3c1.7-7.1,5.4-12.6,10.9-17.6
		c6-5.6,12.7-6.7,20.3-5.3c0.8,0.1,1.6,0.5,2.4,0.8c0.7,0.2,1,0.8,1,1.5c-0.1,0.8-0.7,1.3-1.5,1.4c-1.5,0.2-3,0.3-4.5,0.6
		c-2.9,0.3-5.6,1.2-7.6,3.1c-3.6,3.5-4.5,8.2-5.9,12.6c0.9,0.3,1.3,0.1,1.7,0c7.1-1.5,13.5,0.3,19.8,3.5c0.6,0.3,1.2,0.9,1.7,1.4
		c0.8,0.8,1.5,1.9,0.8,3c-0.6,1.3-1.7,1.3-2.9,0.9c-2.4-0.6-5-0.9-7.5-0.7c-2.1,0.1-4.1,0.6-6,2c1.5,0.2,2.7,0.5,3.7,0.7
		c2.5,0.5,5.1,1.4,7.1,3.1c1.3,1.2,2.7,1.5,4.3,1.5c5,0.1,9.6,1.4,13.9,3.9c7.3,4.4,13.2,10,16.9,17.8c0.2,0.6,0.3,1.4,1.4,1.7
		c0.6-4.2,0.7-8.3,0.7-12.4c0-0.9,0-1.9-0.2-2.8c-1.3-4.1-1.7-8.5-3.4-12.4c-0.6-1.5-1.2-3-1.6-4.5c-0.6-2,0.9-3.5,3-2.9
		c1.5,0.5,2.4,1.5,3.2,2.7c2.2,3,4.1,6.5,5.8,9.8c1.2,2.3,2.3,4.7,3.7,6.9c7.4,11.3,9.1,24,7.8,37.2c-0.6,5.3-2.5,10.3-3.8,15.5
		c-0.8,3.2-1.5,6.6-1.5,10c0,3.5,1,6.7,3.7,9c5.2,4.6,7.5,10.9,9.7,17.1c1.3,3.7,2.2,7.5,3.5,11.2c1.4,4.1,2.3,8.3,3.4,12.5
		c2.3,8.9,4.3,17.8,10.3,25.2c0.5,0.6,0.7,1.2,1,1.7c1.9,3.5,3.9,6.8,6.1,10.1c2.4,3.5,3.8,7.4,5.2,11.2c0.8,2.2,1,4.6,0.8,6.9
		c-0.2,2.2-0.5,4.4-0.2,6.5c0.2,2.4-0.8,4.1-2.9,5.1c-1.5,0.7-2.8,0.7-3.8-0.3c-1.3-1.2-1.5-2.2-0.7-3.7c0.6-0.9,0.5-1.7,0.3-2.7
		c-0.8-4.3-2.8-7.8-6.4-10.2c-3.5-2.3-7.1-4.4-10.5-6.5c-0.1-0.1-0.2,0-0.5,0c-0.1,0.6,0.2,0.9,0.5,1.3c4.7,6.5,6.9,14.1,10,21.3
		c1.5,3.6,1.7,7.5,1.6,11.3c-0.1,1.6-0.6,2.9-2.2,3.6c-1.4,0.6-2.8,0.2-4.2-1.4c-1-1.3-2.1-2.5-3.1-3.9c-1.2-1.4-2.1-2.9-3.5-4.1
		c-5.3-4.4-10.5-9-17-11.8c-3.7-1.5-6.8-3.9-9-7.3c-0.2-0.2-0.5-0.6-1-0.3c-2,3.6-3.4,7.4-2.7,11.7c0.9,6,3.1,11.6,6.8,16.4
		c1.3,1.6,2.5,3.2,3.8,4.9c10,12.6,14.7,26.9,14,42.8c0,1.9,0.1,3.7,0.3,5.6c0.9,6.3,1.5,12.6,1.4,19c-0.2,8.3-2,16.2-5.9,23.5
		c-5.9,11-12.6,21.5-19.9,31.6c-0.2,0.3-0.5,0.7-0.7,0.9c-1.3,1.4-2.5,1.7-3.9,1.2c-1.3-0.6-2-1.9-1.7-3.7c0-0.8,0.2-1.5,0.5-2.2
		c0.6-1.7,1.3-3.5,1.7-5.3c5-19.3,4.6-38.1-4.6-56.3c-3.1-6.3-5.9-12.7-8.3-19.3c-0.1-0.6-0.1-1.4-1.2-1.4c-1.6,2.9-3.2,5.8-5,8.7
		c-3.5,5.8-5.3,12.2-6.4,18.8c-0.3,2.3-0.3,4.6,0.8,6.8c0.6,1,0.7,2.2,0.9,3.2c0.3,1.2-0.6,2-1.9,1.6l-0.6,1.7l0,0l0.5-1.7
		c-0.7-0.2-1.2-0.7-1.5-1.3c-2-3-4.3-5.7-5.4-9.1c-0.6-2-1.4-3.7-2.3-5.4c-5.3-9.8-6.6-20.4-3.9-31.3c2.4-10.2,6.4-19.8,12.9-28.4
		c5.3-6.8,9.6-14.2,11.9-22.7c1.5-5.2,3.8-10.2,6.4-14.9c3.4-6.3,7.3-12,11.1-17.9c5.7-8.8,10.5-18.1,12.4-28.6
		c0.6-3.6,1.4-7.2,2.1-10.8c1.3-6.4,1.3-6.4-3.4-11c-3.2-3.2-6.7-6.3-10-9.5c-6.6-6.6-10.3-14.5-10.8-23.7c-0.2-2.7-0.3-5.2-0.5-7.9
		c-0.1-3.5-0.5-7.1-1.2-10.5c-1.6-8.1-1.3-6.7-7.2-10.3c-1.9-1-3.8-2-5.8-2.9c-0.6-0.2-1.2-0.6-2-0.3c-0.3,0.8-0.1,1.7,0,2.7
		c0.3,3.9,0.5,7.9,0,11.8c-0.7,5.9-0.6,11.9,0.7,17.8c1.2,5.6,0.9,11-1.5,16.2c-0.6,1.3-0.9,2.7-1.3,4.1c-0.8,3.4-0.8,6.6,0.2,10
		c5.9,17.8,6.6,36.1,5,54.6c-1,11.5-4.6,22.1-11.5,31.5c-1.7,2.4-3.4,5-5.1,7.4c-5.2,7.6-9.5,15.9-12,24.9
		c-3.6,12.5-4.5,25.4-4.6,38.3c0,1.2,0.3,2.3,0.8,3.5c1.5,3.8,2.5,7.6,2.8,11.7c0.2,3.7,1.3,7.2,2.7,10.5c1.2,2.5,2.2,5,3.2,7.5
		c1.5,3.6,3.1,7.2,4.1,11c3.6,14.4,1.7,28.1-4.9,41.2c-2.7,5.3-5.1,10.7-7.4,16.1c-3.2,7.6-0.7,17.5,5.9,22.5
		c2.5,1.9,4.9,3.9,6.7,6.4c3.6,4.5,4.7,9.6,3.7,15.3c-0.6,2.7-1.4,5.1-2.4,7.5c-2.5,5.7-2.5,11.3,0.2,16.8
		c4.2,8.1,8.9,16.1,15.6,22.5c5.8,5.4,9.8,12,13.1,19.1c0.2,0.7,0.5,1.4,1.3,2c0.2-2.8,0.5-5.4,0.7-8c0.2-2,0.5-4.1,2-5.4
		s2-3,2.4-4.9c0.3-1.4,0.7-2.7,1.2-4.1c0.3-1.2,0.9-2.3,1.7-3.2c0.9-1.2,2.1-1.7,3.5-1.3c1.4,0.5,2.1,1.4,2.2,2.9
		c0.1,0.8,0.1,1.7,0.1,2.5c0.3,9.6,0.1,19.2,1.5,28.8c0.1,1.4,0.5,2.7,0.8,4.1c4.6-2.8,9.5-5.2,14.6-7.3c0.3-0.1,0.8-0.3,1.2-0.5
		l1.2-0.5l2.4-0.9c0.3-0.2,0.8-0.3,1.2-0.5l1.2-0.3l2.4-0.8l0.3-0.1c0.2-0.8,0.3-1.5,0.6-2.3c1.3-5,2.7-10,5.3-14.5
		c1.3-2.2,2.1-4.4,2.5-6.8c0.1-0.9,0.3-1.9,0.6-2.8c0.7-2.2,2.2-3,4.3-2.1c1.3,0.6,1.9,0.2,2.7-0.6c3.2-3.2,5-7.2,5.9-11.6
		c1.2-5.7,1.6-11.3,1.6-17c0-2.9,0-5.8-0.1-8.7c0-1.5,0.3-2.8,1.9-3.5c1.4-0.6,2.7-0.1,3.9,1.4c0.9,1.2,1.6,2.5,2.1,3.9
		c0.9,2.7,1.4,5.3,1.7,8c0.8,7.1,1.4,14.1-0.1,21.2c-1.7,8.2-5.6,15.4-10.5,22.1c-2,2.8-3.9,5.4-5.6,8.5c-0.1,0.1-0.2,0.3-0.3,0.6
		c1.3-0.2,2.4-0.5,3.7-0.7c3.6-2.1,7.4-3.7,11.2-5.2c2.7-1,5.1-2.3,7.5-3.8c4.9-3,9.8-6.1,14.8-9c3.8-2.3,7.2-5.1,10.1-8.5
		c2.5-2.9,4.9-6.1,6.9-9.5c0.3-0.5,0.9-0.9,0.6-1.7c-0.8,0-1.2,0.6-1.7,0.9c-5.4,3.4-11.1,6.5-17.3,8.7c-3.4,1.3-6.9,1.7-10.4,2.3
		c-1.4,0.2-2.5,0-3-1.4c-0.5-1.3,0.2-2.3,1.9-3c0.9-0.5,1.7-0.7,2.7-1c3.2-1.4,6.4-3.1,9.3-5.2c0.7-0.3,1.3-0.8,0.7-1.7
		c-1.2-2-0.5-3.8,0.7-5.6c1.2-1.7,2.4-3.5,3.6-5.1c0.6-0.8,1.2-1.6,1.4-2.7c1.9-6.7,3.1-13.3,2-20.3c-0.3-2.1-0.9-3.9-2.2-5.7
		c-2.9-3.6-6-6.8-10-9.4c-3.8-2.4-7.3-5.2-10.7-8.2s-6-6.6-7.2-11.1c-0.1-0.5-0.2-0.9-0.8-1.3c-0.2,0.2-0.6,0.5-0.8,0.7
		c-3.1,3.5-6.7,6.5-10.4,9.4c-3.6,2.8-6.1,6.5-8.8,10.1c-0.7,0.9-0.8,1.7-0.5,2.9c0.9,2.9,1.7,5.9,2.7,8.8c1,3.6,0.3,4.7-3.5,5.1
		c-0.5,0.1-0.8,0.1-1.2,0.1c-6.1,0.2-11.1-2.4-15.3-6.6c-8.7-8.8-13.1-19.2-12-31.7c0.1-0.8,0.5-1.7-0.2-2.9
		c-5.1,3.9-9.5,8.1-12.5,13.7c-4.3,8.1-7.1,16.6-7.5,25.7c-0.2,3.9-0.6,7.9,0.1,11.8c0.1,0.8,0.1,1.6-0.7,2.2
		c-0.9,0.6-1.9,0.3-2.7-0.1c-0.8-0.5-1.3-1.2-1.7-1.9c-0.7-1.2-1.3-2.3-1.6-3.6c-2.1-6.5-3.4-13.1-3-19.9c0.2-4.5,0.6-9,1.4-13.4
		c1.3-7.4,3.5-14.6,8-20.7c6.7-9.1,14.6-17.1,24.7-22.6c1.4-0.8,2.8-1.6,4.2-2.4c4.6-2.7,8.8-5.9,12.5-9.8
		c3.7-3.8,7.3-7.8,10.7-11.9c5.9-7.4,10.2-15.5,10.4-25.5c0.1-7.5-0.7-14.7-3.9-21.5c-1.9-3.8-4.3-7.3-6.9-10.5
		c-1.6-1.9-3.4-3.6-4.4-5.8c-1-2.2-2.7-3.9-4.4-5.7c-0.9-0.9-2-1.7-2.7-2.9c-1.2-1.9-0.1-3.7,2-3.8c1.3-0.1,2.5,0.5,3.7,1
		c3.9,2,7.9,3.9,11.6,6.3c10,6.1,16.9,14.8,20.1,26.3c0.8,3,2,6,3.2,8.9c5.1,12,8.6,24.5,9.5,37.6c0.7,11-0.1,21.9-1.7,32.8
		c-0.6,3.8-1.2,7.6-0.8,11.5c0.3,4.3,1.6,8.1,5.1,11.1c3.6,3.1,7.5,5.7,11.7,8.1c3.6,2.1,7.2,4.2,10.1,7.2c0.2,0.3,0.6,0.5,1,0.3
		c0.7-0.6,0.5-1.5,0.6-2.3c0.1-2.5,0.3-5.2,1-7.8c0.7-2.7,0.2-5-1-7.3C815.7,486.5,812.1,477.7,808.1,469.1z M627.8,228
		c-5.9,2.7-11.7,5.4-16.8,9.5c-5.7,4.5-12.3,6.7-19.3,6.3c-5.7,0.2-10.9-0.9-15.6-3.6c-1.3-0.7-2.5-1.5-3.7-2.5
		c-2.5-2.3-5.3-4.5-8.5-6c-2.2-1-3.7-2.9-5-4.9c-0.9-1.3-1-2.8-0.8-4.3c1.7-11.2,7.1-20.5,15.1-28.3c3.1-3.1,7.2-5.1,11.5-6.3
		c5.1-1.3,10.3-2.1,15.5-0.7c8.7,2.2,15.4,7.1,18.6,15.5c1.7,4.5,4.5,8.1,7.6,11.6c1.3,1.5,2.7,2.8,3.8,4.2
		C633.3,222.2,632.1,226.1,627.8,228z M630.5,171.1c-3-2.8-6.6-4.5-10.7-5.3c-3.7-0.7-7.3-0.1-10.5,1.9c-1.3,0.8-2.7,1.6-4.1,2.4
		c-1.2,0.7-2.5,1.2-3.9,1.3c-3.9,0.2-6.3-2.1-6.1-6.3c-1.6,0.1-3,0.8-4.4,1.5c-3.4,1.7-6.7,2.7-10.5,2.2c-2.3-0.2-4.6,0.3-6.7,1.5
		c-6.7,3.8-12.7,8.2-16.2,15.4c-0.2,0.3-0.2,0.8-0.9,0.7c-0.2-0.9,0.1-1.9,0.5-2.7c0.8-2.1,1.7-4.2,2.9-6c1-1.5,2.2-2.9,1.6-4.9
		c-0.1-0.5,0.2-1.2,0.5-1.6c1.3-3,2.8-5.9,4.7-8.6c2.1-2.9,5-4.7,8.3-5.9c2.4-0.9,5-1,7.4,0c1.5,0.7,2.8,0.5,4.2-0.3
		c2.4-1.4,5.2-2.1,8-2.5c4.2-0.6,8.1,0.1,11.5,2.3c1.4,0.8,2.7,1,4.3,0.7c2.4-0.5,4.9-0.1,7.2,0.7c5.3,1.9,10.2,4.5,14.6,8.1
		c3.2,2.7,5,6.1,5.9,10.3C634.9,174.9,632.7,173.1,630.5,171.1z"/>
	<path class="st4" d="M849.3,389.9c-1.4-7.2-4.3-13.8-7.2-20.4c-4.4-9.7-8.6-19.6-14.5-28.5c-3.5-5.1-6.8-10.3-10.3-15.4
		c-0.5-0.8-0.8-1.7-2.2-2.2c-0.1,2.8,0,5.4-0.5,8.1c-0.9,5.2,0.6,10,2.7,14.7c0.2,0.3,0.3,0.7,0.5,1c4.5,11.2,7.9,22.9,10.5,34.9
		c2.7,11.7,2.5,23.4,0.8,35.1c-0.8,5.6-1,11-0.5,16.6c0.3,2.9,0.8,5.8,2,8.5c2.5,6.4,6.1,12.4,7.1,19.3c0.9-0.3,1-1,1.3-1.6
		c4.9-10.1,8.3-20.6,10.5-31.6C852.2,415.4,851.7,402.7,849.3,389.9z"/>
</g>
</svg>
