<?xml version="1.0" encoding="utf-8"?>
<!-- Generator: Adobe Illustrator 24.0.1, SVG Export Plug-In . SVG Version: 6.00 Build 0)  -->
<svg version="1.1" id="New_group_1_" xmlns="http://www.w3.org/2000/svg" xmlns:xlink="http://www.w3.org/1999/xlink" x="0px"
	 y="0px" viewBox="0 0 990 781.2" style="enable-background:new 0 0 990 781.2;" xml:space="preserve">
<style type="text/css">
	.st0{fill:#E26D68;}
	.st1{fill:#535458;}
	.st2{fill:#FFFFFF;}
	.st3{fill:#FFFF8A;}
	.st4{fill:#BC994B;}
	.st5{fill:#EDD56E;}
</style>
<g>
	<path d="M186.3,587.3c15.7,0.2,29.8,2.1,43.7,5.4c9.7,2.3,19,5.5,28,9.8c0.3,0.1,0.6,0.3,0.9,0.4c2.1,0.9,2.2,0.8,2.4-1.5
		c1.3-16.5,3.2-32.9,5.7-49.3c2-12.5,5.4-24.7,10.8-36.2c1.9-4.1,3.7-8.3,5.6-12.5c0.7-1.6,1-3.4,1.3-5.1c0.9-6.6,1.8-13.1,2.3-19.8
		c0.1-1.6,0.1-3.2,0.1-4.8c0.1-4.4,0-8.8,0.3-13.2c0.3-3.1-0.9-6-2.2-8.7c-0.9-1.9-1.9-3.9-2.6-5.9c-3.6-9.1-5.6-18.7-7-28.4
		c-2.5-17.7-5.2-35.4-9-52.9c-0.3-1.6-0.9-2.9-2.2-3.9c-2.7-2.2-4.4-5-6-8c-2.4-4.5-5.3-8.8-8.4-12.8c-2.3-3-5.5-5.3-8.5-7.7
		c-4.9-3.8-10.2-7.2-15-11.1c-7.2-5.9-14.7-11.3-22-17c-7-5.5-13.4-11.6-18.4-19.1c-2.7-4.1-4.7-8.5-6.4-13.1
		c-3.5-9.4-7.1-18.9-9.9-28.5c-3.3-11.4-4.4-23-3.3-34.9c0.6-6.7,1.6-13.3,3.4-19.8c0.6-2.1,1.3-4.1,2.1-6.1c1-2.3,1.9-4.6,2.4-7
		c0.9-3.8,3.4-6.6,6-9.4c2.5-2.6,5.3-4.8,8.1-7.1c5.6-4.6,11.1-9.1,16.7-13.7c1.3-1.1,2.5-2.2,3.7-3.4c5.5-5.7,11.2-11.2,16.8-16.8
		c4.4-4.4,8.4-9.2,12.4-14c0.5-0.6,1-1.3,1.6-1.8c5.7-5.6,11-11.6,16.4-17.5c3.6-3.9,7.4-7.8,10.8-11.9c2.3-2.8,4.8-5.4,7.7-7.5
		c7.2-5.2,14.2-10.7,21.9-15.2c2-1.2,4-2.3,6.3-3c4.3-1.4,8.2-3.5,12.1-5.7c8-4.4,16.4-7.9,25.3-10.3c4.2-1.2,8.5-1.8,12.8-1.6
		c5.8,0.2,11.3-0.8,16.7-2.8c10.1-3.7,20.5-6.2,30.9-8.7c10.7-2.6,21.4-4.7,32.3-6c6.5-0.8,13-1.5,19.5-2.2
		c7.1-0.8,14.1-1.5,21.2-2.2c4.9-0.5,9.7-0.8,14.6-1c5.8-0.3,11.7-0.4,17.5-0.5c2.6,0,5.3,0.4,7.9,0.3c13.6-0.7,27,1.3,40.3,3.1
		c11.2,1.6,22.3,3.3,33.4,5.1c9,1.4,17.8,3.9,26.5,6.5c7.4,2.2,14.7,4.3,22.2,6.1c3.9,0.9,7.8,2.1,11.3,4c4,2.2,8.2,3.3,12.8,3.6
		c8.7,0.6,16.2,4.2,22.7,9.8c1.6,1.4,3.3,2.8,4.8,4.3c2,2,4.3,3.3,7,3.9c7.6,1.9,14.9,4.7,22.2,7.6c6.2,2.4,11.6,6.1,16.4,10.6
		c6.4,6.1,12.6,12.2,17.7,19.5c1.5,2.1,3.3,4.2,5.2,6c6.8,6.6,12.6,14.1,19.5,20.5c5,4.6,9.7,9.5,14.3,14.5
		c5.2,5.6,11.2,10.3,17.1,15c9.5,7.6,18,16.1,25.4,25.7c3.9,5.1,6,10.9,7,17.1c0.9,5.4,0.8,10.8-0.3,16.2c-0.4,1.7-0.7,3.5-0.6,5.2
		c0.3,9-1.2,17.9-3.9,26.5c-2.3,7.6-4.5,15.4-7.8,22.7c-2.3,5-5.1,9.8-8.4,14.2c-5.4,7.1-10.5,14.3-14.9,22c-3.8,6.7-6.8,13.9-10,21
		c-3.7,8.2-7,16.5-10.2,24.8c-3.2,8.4-7.5,16.2-12.8,23.5c-3.1,4.3-6.9,8-11.4,10.9c-2.8,1.9-5.8,2.9-9.2,2.9
		c-2.4,0-2.6,0.2-2.6,2.6s0.1,4.8,0.1,7.2c0.3,10.6-0.4,21.1-2.1,31.5c-0.1,0.7-0.3,1.5-0.2,2.1c0.9,4.1,0.1,8.1-0.3,12.2
		c-0.2,2.7-0.2,5.4,0.1,8.1c1.2,9.6,1.7,19.3,2.5,28.9c0.9,10.6,1.6,21.2,2.4,31.8c0.8,10.4,2.2,20.7,3.5,31
		c0.8,6.3,1.4,12.7,2.2,19.1c1.1,9.5,2.7,19,4.5,28.4c0.4,2.2,0.6,2.3,2.9,1.9c8.3-1.5,16.8-2.4,25.2-2.9c7-0.3,13.9,0,20.8,0.9
		c10.5,1.3,20.7,4,30.7,7.6c14,5,26.2,13.2,38.6,21.2c6.7,4.3,11.8,9.9,16.3,16.3c5.6,8,11,16.1,15.7,24.7c4.3,8,5.6,16.1,3.7,25
		c-1.8,8.2-4,16.3-6.7,24.3c-2.6,7.8-7.2,14.2-12.4,20.3c-3.3,3.9-7.2,6.8-11.5,9.3c-2.3,1.3-4.1,3-5.5,5.2
		c-4.4,7.2-10.1,13.4-16,19.3c-4.5,4.5-10.2,6.8-16.3,8.3c-2.8,0.7-5-0.3-6.7-2.7c0-0.1-0.1-0.1-0.1-0.2c-3.6-3.9-5.3-8.6-6.2-13.8
		c-0.3-1.6-0.8-1.8-2-0.7c-1.9,1.8-3.7,3.6-5.5,5.4c-1.8,1.8-3.8,3.4-6,4.7c-4.4,2.5-9,1.5-11.6-2.9c-2.6-4.3-3.9-9.1-4.2-14.1
		c-0.1-1.5-0.1-3,0-4.6c0.1-1.7-0.6-2.9-1.9-3.9c-1.9-1.4-3.9-2.6-6-3.4c-5.2-2-8.6-5.7-10.3-10.9c-0.1-0.2-0.1-0.3-0.2-0.5
		c-1-2.5-1.7-2.6-3.6-0.7c-2,2.1-3.3,4.7-4.1,7.5c-1.1,4.1-3.1,7.9-5.5,11.4c-2,3-4.5,5.6-7.4,7.8c-4.6,3.5-10.5,2.5-13.8-2.3
		c-2.3-3.3-3.7-7.1-4.3-11.1c-0.2-1.1-0.4-2.2-0.5-3.3c-0.2-2.1-1.2-3.6-3.1-4.5c-7-3.5-12-9.2-17.3-14.6c-1.1-1.1-2.1-2.5-2.7-4
		c-0.5-1.4-1.4-1.8-2.8-1.7c-0.6,0-1.3,0-1.9,0c-151.3,0-302.6,0-453.9,0c-0.5,0-1,0.1-1.4,0c-1.7-0.2-2.9,0.4-3.5,2.1
		c-0.5,1.4-1.5,2.6-2.6,3.7c-3.3,3.3-6.4,6.7-10,9.7c-1.6,1.4-3.3,2.5-5.1,3.5c-1,0.5-1.9,1.2-2.8,1.8c-1.4,0.9-2.1,2.1-2.3,3.8
		c-0.2,1.8-0.6,3.6-0.9,5.4c-0.6,3.1-1.8,5.9-3.5,8.6c-1.3,2.1-3,3.5-5.3,4.3c-3,1.2-5.7,1-8.4-1c-6.3-4.7-10.6-10.8-13-18.3
		c-1-2.9-1.9-5.8-4-8.1c-0.2-0.2-0.4-0.5-0.6-0.7c-1.9-2-2.7-1.8-3.6,0.7c-0.5,1.4-1,2.8-1.8,4.2c-1.9,3.4-4.8,5.6-8.2,7
		c-2,0.8-3.9,1.9-5.7,3.1c-1.9,1.1-2.8,2.7-2.7,5c0.4,6-0.9,11.8-3.6,17.2c-0.8,1.6-1.9,2.9-3.4,4c-2.4,1.6-4.9,1.9-7.5,0.7
		c-2-1-3.9-2.2-5.5-3.7c-2.1-2-4.1-4-6.2-6c-0.5-0.5-1-1-1.6-1.4c-0.6-0.5-1.2-0.4-1.4,0.5c-0.1,0.6-0.3,1.2-0.4,1.9
		c-0.7,5.1-3.1,9.4-6.4,13.2c-1.7,2-3.9,2.8-6.4,2.2c-7.3-1.8-13.8-5-18.7-10.9c-1.2-1.5-2.5-2.9-3.9-4.2c-3.7-3.8-6.8-8.1-9.6-12.6
		c-1.2-1.9-2.6-3.4-4.6-4.5c-0.6-0.4-1.2-0.8-1.8-1.2c-6.1-3.3-10.5-8.5-14.7-13.9s-7.4-11.4-8.9-18.2c-0.8-3.6-2.2-7-2.6-10.7
		c-0.6-5-0.6-10.1-0.3-15.1c0.5-7.7,1.7-15.2,3.7-22.7c2.9-10.5,8.4-19.4,16.7-26.6c3.9-3.3,7.9-6.5,12-9.6
		c4.8-3.7,9.4-7.7,14.4-11.2c9.5-6.8,19.8-11.9,31-15.6c8.6-2.8,17.3-4.5,26.2-5.4C179.4,587.6,183.6,587.2,186.3,587.3z"/>
</g>
<g>
	<path class="st0" d="M474.3,515.7c0.7-11,1.4-22,2.2-33.3c-0.1-5.2-0.2-10.7-0.3-16.2c-0.1-2.3-0.3-4.6-0.6-6.9
		c-0.4-3.1-1.5-4-4.6-3.8c-2.3,0.2-4.6,0.3-6.9,0.6c-4.5,0.5-9,0.7-13.5,0.5c-7.5-0.4-14.4,1.4-21.2,4.6c-1,0.5-1.7,1.1-2.3,2
		c-1.5,2.2-2.8,4.6-3.2,7.3c-0.9,5.5-2,11.1-2.6,16.7c-0.6,5.9-0.8,11.7,0.2,17.6c2,11.2,5.5,21.8,10.2,32.2
		c0.7,1.6,1.5,3.1,2.4,4.7c1.8,2.5,3.6,5,5.5,7.3c2.8,2.8,5.9,5.1,9.5,6.8c5.8,2.8,11.5,5.5,18,6.6c2.2,0.4,4.3,0.9,6.3,1.4
		c8.2,2.4,16.3,1.4,24.2-1c2.6-0.8,5.2-1.8,7.8-2.6c3.8-1.8,7.1-4.3,10-7.4c1.8-1.9,3.4-3.8,5.1-5.8c2.9-3.3,5.5-6.8,7.7-10.5
		c0.6-0.9,1-1.8,1.5-2.6c2.2-4.5,4.5-8.9,6.9-13.3c1.6-3.6,3-7.3,4.2-11.1c0.3-1.1,0.6-2.2,1.3-3.2c0.6-1,1.3-2,1.8-3
		c0.5-2,0.9-3.9,1.1-6c1.1-7.5,1.5-15.1,2-22.6c0.2-3,0.1-5.9,0.1-8.8c0-1.7-0.7-2.2-2.4-2.3c-1.4-0.1-2.8-0.1-4.3,0
		c-4.2,0-7.8-1.4-11-3.9c-0.9-0.7-1.8-1.4-2.9-1.9c-5-2.4-10.2-4.3-15.6-5.4c-2.5-0.5-5.1-1-7.5-1.4c-2.9-0.5-5.8-1-8.8-0.7
		c-2.2,0.2-3.8,1.1-5,3.1c-1.4,2.7-2.9,5.5-3.8,8.4c-0.4,1.4-0.7,2.7-0.6,4.2c0.2,5.1-0.5,10.3-1,15.3c-0.2,3-1,5.9-1,8.7
		c0,5.5,0.2,11,0.6,16.5c0.4,6.5,0.9,13.1,1.4,19.6c0.2,2.2-0.2,4.3-1.3,6.3c-1.4,2.3-3.4,3.4-6.1,3.1c-2.6-0.3-4.1-1.9-4.9-4.3
		c-0.6-2-0.6-4-0.2-6.1C473.6,521.8,474.1,518.7,474.3,515.7z"/>
</g>
<g>
	<path class="st1" d="M529.5,315c-1.1-3.5-3-6.7-4.8-10c-0.7-1.4-1.8-2.5-2.8-3.7c-5.9-6.7-13.6-10.4-21.8-13.2
		c-9.3-3.1-18.8-3-28.6-2.2c-5.3,0.5-10.3,1.8-15.4,3c-5.3,1.2-10.2,3.4-14.8,6.3c-3.4,2.2-6.5,5-9.1,8.2c-1.6,1.9-2.7,4.1-3.2,6.5
		c-0.7,3.4-0.8,6.8-0.6,10.3c0,0.3,0.2,0.8,0.7,0.6c0.2-0.1,0.5-0.2,0.6-0.4c0.5-1.7,0.9-3.4,1.4-5.2c2.2-7.5,10-13.6,17.6-13.8
		c4.8-0.1,9.5,0.8,13.9,2.5c3.4,1.3,6.8,2.2,10.3,3.1c6.8,1.8,13.5,1.2,19.8-1.8c2.6-1.3,5.3-2.6,7.9-4.1c2.9-1.5,5.9-2.5,9.1-2.8
		c5.5-0.6,16.4,15.9,16.8,18.3c0.7,3.7,0.8,7.4,0.6,11.1c-0.1,1.7,0.1,3.3,1.3,5.1C531.8,326.8,531.4,320.8,529.5,315z"/>
	<path class="st1" d="M480.8,347.8c-0.6-0.5-1.6-0.2-1.9,0.5c-0.6,1.5-0.9,3.2-1,4.9c-0.2,4.1-1,8.1-0.5,12.2c0,0.8,0,1.5,0,2.3
		c0.1,2.3,0.2,4.6,0.4,6.9c0.2,2,1.3,3.3,3,4.1c1.8,0.8,3.7-0.1,4.2-2c0.2-0.5,0.2-1,0.2-1.5c1.4-7.1,0.2-14.2-0.7-21.3
		C484.2,351.2,482.6,349.4,480.8,347.8z"/>
	<path class="st1" d="M523.3,342.2c-1,0.4-1.8,1-2.7,1.4c-3.6,1.8-7.3,3.1-12,3c-2.4,0-5.4-0.3-8-1.8c-1.9-1.1-2.6-2.8-2.4-4.8
		c0.2-1.5,0.6-3,1.5-4.3c0.8-1.2,1.7-2.2,3.3-2.3c1.5-0.2,3-0.6,4.3-1.4c1.1-0.6,1.5-1.8,1.2-3c-1-3.4-2.7-4.6-6.3-4.1
		c-0.7,0.1-1.5,0.4-2.2,0.6c-2.8,0.9-5.4,2.2-7.9,3.8c-1.8,1.1-2.9,2.4-2.1,4.7c0.2,0.7,0.1,1.5,0,2.3c-0.1,3.3,0.8,6.3,2,9.3
		c1,2.5,2.8,4.3,5.1,5.6c2.5,1.4,5.2,2.2,8.1,2c2.1-0.1,4.1-0.4,6.1-0.6c4.8-0.4,9.2-2.2,13.4-4.4c0.6-0.3,1-0.7,1.5-1.1
		c1.1-1,1.4-2.7,0.7-3.8C526.3,342.1,524.7,341.6,523.3,342.2z"/>
	<path class="st1" d="M469.7,328.1c-2-1.3-4.3-1.8-6.6-1.3c-2.6,0.6-5.1,0.3-7.2-1.4c-1.2-1-2.7-1.4-4.3-1.2c-3,0.5-4.1,2.2-2.8,4.8
		c0.2,0.6,0.6,1.2,1,1.6c2.2,2.2,4.7,4.1,8.1,3.4c1.8-0.3,3,0.5,4,1.7c1.7,1.8,1.8,3.2,0.6,5.2c-1.8,3-4.7,4.3-8,4.5
		c-2.2,0.2-4.3,0-6.5,0.1s-4.3-0.5-6.3-1.4c-2.2-1-4.1-2.6-6.5-4.2c-0.5,3.1,0.2,5.7,1.9,7.5c1.8,1.9,3.8,3.8,6.4,4.8
		c3.7,1.4,7.5,2.8,11.3,3.6c1.7,0.3,3.3,0.4,5,0.2c2.9-0.4,5.5-1.4,7.1-4c1.9-3,3.4-6.3,4.2-9.9c0.6-2.9,0.9-5.9,1.3-8.7
		C472.8,331.2,471.8,329.3,469.7,328.1z"/>
</g>
<g>
	<path class="st2" d="M399.4,173.9c-2.6-2.1-5.5-3.8-9.1-2.3c-0.3,0.2-0.7,0.1-1.1,0.2c-0.2,0.1-0.5,0.2-0.6,0.4
		c-1.4,1.5-1.8,4.6-0.3,5.9c1.9,1.9,3.6,3.9,5.1,6.3c0.7,1.1,1.8,1.3,3,1.1c3.2-0.6,5.3-3.1,5.3-6
		C401.8,176.9,401,175.1,399.4,173.9z"/>
	<path class="st2" d="M372,200.6l0.2-0.2h-0.1L372,200.6z"/>
	<path class="st2" d="M370.3,198.7c-3.2-4.9-4.5-10.3-4.3-16c0.1-1.1,0.5-2.2,0-3.3c-0.3,0.1-0.6,0-0.8,0.2
		c-1.8,2.2-3.6,4.3-5.4,6.4c-0.7,0.9-0.8,1.8-0.1,2.8c0.2,0.3,0.4,0.6,0.6,1c2.4,2.3,4.3,5.1,6,7.9c0.9,1.4,2.2,2.4,3.8,3.2
		c0.6,0.3,1.2,0.2,1.8-0.2C371.1,200.2,370.7,199.3,370.3,198.7z"/>
	<path class="st2" d="M624.3,185.9c-0.2-0.4-0.6-1-1.2-0.6c-0.2,0.2-0.4,0.6-0.4,1c-0.1,2.5-0.6,4.8-1.4,7.1
		c-1.8,4.7-4.3,9-7.5,12.9c-2.8,3.4-6.1,5.8-10.3,7.1c-0.9,0.2-1.7,0.6-2.5,1c-0.1,0-0.2,0.2-0.2,0.3c0.1,0.2,0.2,0.6,0.3,0.6
		c0.6,0.2,1.3,0.2,1.8,0.3c2.6-0.2,4.9-0.7,7.1-1.8c7.5-3.4,12.8-8.9,15.7-16.5c0.8-2,1.3-4.1,1.9-6.2
		C627,189.1,625.5,187.6,624.3,185.9z"/>
	<path class="st2" d="M606.1,175.4c-1-2.8-4.7-4.8-7.8-4.3c-2.6,0.4-5.1,1.5-6.9,3.1c-1.6,1.4-3.5,3-3.3,5.8
		c0.1,0.6,0.1,1.3,0.2,1.9c0.8,3.8,3.5,6.6,8.2,3.6c1.5-1,2.8-2.2,4.2-3.4c1-0.8,1.9-1.6,3.2-2.1
		C606.4,179.3,606.9,177.8,606.1,175.4z"/>
	<path class="st2" d="M576.9,192.7c-0.2-1.8-1-1.9-2.2-0.9c-0.5,0.4-1,0.8-1.4,1.3c-1,1.6-1.9,3.3-2.8,5c-0.5,1-0.3,2.1,0.5,2.8
		c3.2,2.9,6.8,4.7,11.1,4.8c0.3-0.8,0-1.2-0.3-1.6C579.1,200.8,577.6,196.9,576.9,192.7z"/>
</g>
<g>
	<path class="st3" d="M452.2,665.7c-2.3-1.5-4.7-2.6-7.5-2.6c-1.8-0.1-3.6,0.2-5.3-0.4c-0.7-0.2-1.7,0.4-1.7,1.2
		c0.1,2.3-1.2,4.2-1.8,6.2c-0.9,2.8-1.9,5.7-1.3,8.6c0.2,0.7,0.2,1.4,0.2,2.1h28.6c-0.4-0.9-0.9-1.7-1.4-2.6
		C459.4,673.6,457,668.9,452.2,665.7z"/>
	<path class="st3" d="M677.3,475.6c-1.6,0.5-3,1.3-4.3,2.5c-3.8,3.8-7.7,7.5-10.3,12.4c-1.4,2.7-3.1,5.3-4.6,8
		c-2.8,5.4-5.5,10.7-8.1,16.1c-1.6,3.4-2.9,6.8-4.5,10.2c-3.8,7.9-7.9,15.8-11.8,23.7c-1.3,2.6-2.9,5.2-4.8,7.4
		c-4.1,4.6-8.7,8.7-13.5,12.5c-2.6,2.1-5.1,4.3-7.6,6.4c-1.3,1-2.5,2.2-3.8,3.3c-3,2.6-5.9,5.4-8.4,8.4c-2.8,3.3-4.8,7.2-8.1,10.2
		c-0.4,0.3-0.6,0.9-0.9,1.3c-2.7,3.8-4.8,7.9-6.5,12.1c-3.6,8.9-9.5,16.3-15.7,23.4c-0.9,1-1.8,1.8-2.6,2.8
		c-3.4,4.7-7.8,8.5-12.4,11.9c-4.4,3.2-9.1,6.2-13.9,8.9c-6.7,3.8-13.7,7.5-20.6,11.1c-3.9,2.1-7.9,4.1-11.8,6.3
		c-2.5,1.5-5,3.2-7.1,5.1c-0.4,0.3-0.7,0.6-1.1,1h103.7c3.8-4.4,7.1-9.1,9.1-14.5c1.5-4.1,3.6-7.9,5.4-11.8c3.1-6.9,5.7-14,7.5-21.3
		c0.2-0.7,0.5-1.4,0.6-2.2c0.2-1,0.8-1.4,1.8-1.8c2.8-1,4.6-3,5.7-5.8c2.2-5.7,2.8-11.6,3.4-17.6c0.3-3-0.6-5.9-1.1-8.7
		s-0.6-5.5,0.4-8.3c0.7-1.9,1.5-3.8,2.2-5.8c0.4-1.4,1.2-2.2,2.2-3c3.4-2.4,6.5-5,9.2-8c2-2.3,3.8-4.8,5.8-7.1
		c3.7-4.3,6.7-9,9.7-13.8c1.8-3,3.2-6.2,5-9.1c4.6-7.6,8.1-15.6,11.1-24c0.6-1.8,1.4-3.5,2.5-5.2c3.6-5.5,5.6-11.7,7.5-18
		c0.2-0.6,0.2-1.3,0.2-1.9c0-2.7,0-5.4,0-8.1c0-3-1.3-5.5-3.3-7.5C681.9,475.6,679.7,474.8,677.3,475.6z"/>
	<path class="st3" d="M449.9,73c1.7-0.1,3.4-0.3,5,0.2c1.3,0.4,2.5,0.6,3.8,0.5c2.1-0.1,4,0.6,5.9,1.6c1.7,0.9,3.2,2.1,5,3
		c2.5,1.3,3.4,3.4,3.5,5.9c0.1,6.6,3.4,11.4,8,15.6c3.2,3,7.9,3.6,11.7,1.1c1.9-1.3,3.8-2.6,5.9-3.4c0.6-0.2,1-0.7,1.5-1.2
		c2.6-2.3,4.8-4.9,6.4-8c0.8-1.6,1.8-3.1,2.7-4.7c0.9-1.4,2.1-2.4,3.8-3c5.5-2.2,11.2-3.4,17-4.6c2.2-0.4,4.3-0.6,6.4-0.9
		c3.4-0.5,6.8-1,10.2-1.3c3-0.2,5.9,0.6,8.7,1.2c4,0.7,7.9,1.8,12,2.5c2.2,0.4,4.6,0.1,6.9,0.2c2.2,0.2,4.6,0.7,6.8,0.6
		c5.9-0.1,11.4,1.5,16.8,3.4c0.3,0.1,0.6,0.4,1.4,0.8c-1.5,0.6-2.4,1-3.4,1.3c-3.8,1.1-7.4,2.8-10.7,5.1c-0.7,0.5-1.6,0.9-2.4,1.1
		c-1.2,0.4-2.3,1-3.4,1.7c-3.2,2-5.7,4.8-8.1,7.6c-2,2.3-3.4,5.1-3.6,8.3c-0.2,3.3,2.1,5.9,5.4,6.3c1,0.1,2,0,3-0.3
		c2.5-0.7,5.1-0.6,7.6-0.1c1,0.2,2,0.3,3,0.4c3.7,0.2,7.1-0.7,10.4-2.1c3.9-1.6,7.7-3.4,11.6-5c3-1.3,6.2-2.4,9.3-3.4
		c1.3-0.4,2,0.3,1.6,1.7c-0.6,2.5-1.5,4.9-2,7.4c-0.6,3-1.2,6-2.6,8.8c-0.5,1-0.6,1.9-0.6,3c0,1.4,0.6,2.4,2,3
		c0.6,0.2,1.2,0.6,1.8,0.6c2.2,0,4.3,0.2,6.5-0.3c0.3-0.1,0.6-0.2,1-0.2c2.2-0.6,4.2-1.6,6.5-1.7l0,0c3.8-2.6,7.5-5.3,10.8-8.4
		c4.3-3.9,7.2-8.4,7.8-14.4c0.1-1.1,0.5-2.2,0.7-3.4c-0.4-1.8-0.7-3.5-1.1-5.2c-1-4.1-4.2-6-7.7-6.3c-1-0.1-2.1-0.1-3-0.1
		c-0.7-0.1-1-0.6-0.8-1.4c0.2-0.6,0.5-1.2,0.8-1.8c1.6-2.9,1.4-6,0.6-9c-1.7-6.3-5.9-10-12-11.7c-2.8-0.8-5.9-0.9-7.8-3.5
		c-0.2-0.2-0.6-0.4-1-0.6c-5.5-3-11.4-5.1-17.5-6.7c-4-1-7.9-1.7-12.1-1.5c-3.9,0.2-7.9-0.1-12,0.1c-3.8,0.1-7.4-0.4-11-1.4
		c-5.9-1.6-11.9-2.9-17.9-3.9c-5.3-0.9-10.6-1.6-15.8-2.6c-3.8-0.7-7.5-1.1-11.4-1.3c-3.8-0.2-7.6-1.2-11.5-1
		c-0.2,0-0.5-0.1-0.7-0.2c-1.4-0.6-3-0.6-4.6-0.5c-5.2,0.2-10.5-0.5-15.6,0.7c-4.5-0.3-8.9,0.6-13.2,1.8c-1.8,0.5-3.5,0.6-5.3,0.6
		c-1.5,0-3-0.1-4.7,0c-3.2,0.2-6.4,0.6-9.4,1.7c-3.3,1.1-6.4,2.7-9.1,4.9c-3.2,2.6-5.8,5.7-7.3,9.7C438.1,66.3,443.6,73.2,449.9,73z
		"/>
	<path class="st3" d="M314.3,644.5c-0.6-1.6-0.5-3.3-0.6-4.9c0-0.9,0.2-1.8-0.1-2.6c-1-3.1-0.6-6.3-0.7-9.5c0-0.9,0.1-1.8-0.2-2.6
		c-0.6-1.8-0.6-3.8-0.6-5.7c0-3.6,0-7.2-0.1-10.7c0-1,0.1-2.1-0.2-3c-0.5-1.5-0.5-3-0.5-4.6c0-9.5,0-19-0.1-28.5
		c0-1.3,0.1-2.6-0.2-3.8c-0.5-1.7-0.5-3.3-0.5-5c0-4.7,0.4-9.3-0.2-13.8c-0.5-4.1-0.6-8.2-0.6-12.3c0-2.7-1-5.3-1-7.9
		c0-0.3-0.2-0.7-0.4-1c-0.7-1.5-2.7-1.8-3.7-0.3c-0.4,0.5-0.7,1.1-0.9,1.7c-0.6,2.2-1.3,4.4-1.8,6.7c-1.2,5-2,10-4,14.8
		c-0.3,0.7-0.5,1.4-0.6,2.2c-0.8,3.2-1.2,6.5-1.7,9.8c-0.9,5.9-2.2,11.8-2.8,17.7c-0.6,5.1-1.6,10.1-2.8,15
		c-1.7,7.1-2.4,14.3-4.3,21.3c-0.3,1.3-0.6,2.6-1,3.9l0.6,0.5l2.3,1.9c0.8,0.6,1.5,1.4,2.2,2l1.1,1l0.6,0.5l0.6,0.6
		c1.4,1.4,2.9,2.8,4.3,4.3c0.7,0.7,1.4,1.4,2.1,2.2l2,2.2c0.3,0.4,0.6,0.7,1,1.1l1,1.1l2,2.3c1.3,1.5,2.6,3.1,3.8,4.7
		c2.3,2.9,4.5,5.9,6.7,8.9c-0.5-2.7-0.9-5.5-0.9-8.3C314.5,645.4,314.5,644.9,314.3,644.5z"/>
	<path class="st3" d="M506,272.6c0.6,0.4,1.4,0.4,2.2,0.5c3.5,0.3,6.7-0.9,9.4-2.8c3.4-2.5,5.8-5.8,5.5-10.3c-0.1-1-0.1-2.1,0-3
		c0.2-5.1-1.4-9.5-4.2-13.7c-1.2-1.8-2.8-3.4-4.3-4.9c-0.8-0.8-1.4-1.7-1.7-3c-0.5-2.4-1.3-4.7-3-6.5c-0.7-0.7-1.1-1.7-1.5-2.6
		c-1.1-3-2.6-5.9-3.2-9c-0.7-3.4-2.6-6.3-5.1-8.8c-4.5-4.4-12.1-3.7-15,1.4c-0.5,0.9-1.3,1.6-2.2,2c-2.6,1-4.1,3-4.7,5.7
		c-0.2,0.9-0.6,1.7-0.8,2.6c-0.6,2.5-1.7,4.3-4.7,4.1c-0.7,0-1.4,0.4-2.2,0.6c-2.8,1-5.5,2.3-7.9,3.9c-3.3,2.2-6.5,4.6-9.5,7
		c-3.4,2.6-6,5.9-8.5,9.3c-4.7,6.3-7.7,13.6-10.7,20.8c-0.5,1.3-1.1,2.6-0.4,4.1c0.2,0.5-0.1,1-0.4,1.4c-0.6,0.6-1,1.1-1.6,1.7
		c-2.5,2-3.8,4.7-5.1,7.6c-0.2,0.5-0.4,1,0.1,1.4c1,0,1.4-0.9,2.1-1.4c3.4-3,7.1-5.8,11.5-7.3c3.8-1.3,7.5-2.7,11.1-4.3
		c7.6-3.4,15.6-3.5,23.7-3.1c5.1,1.3,10.3,1.6,15.2,3.7c1.4,0.6,2.9,1,4.3,1.5c1.8,0.6,3.7,1,5.6,0.9
		C502.1,271.4,504.1,271.4,506,272.6z"/>
	<path class="st3" d="M528.3,173.1c1-2.2,1.8-4.5,2.6-6.7c0.8-2,0.5-4,0.4-6.1c0-0.6-0.5-1.2-1-1.5c-1.7-1.3-3.8-1.2-6,0.4
		c-1.7,1.3-3.5,2.5-5.1,4.1c-1.5,1.7-3.2,3.3-4.9,4.9c-1.1,1.1-1.4,1.1-2.4-0.1c-1.3-1.7-2.8-3-4.9-3.4c-3.3-0.8-4.7-3.4-4.7-6.3
		c0-4.7-1.2-9.1-1-13.7c0.2-4-1.9-6.8-5-9c-1.3-0.9-2.7-1.2-4.3-0.6c-5.5,1.8-9.7,5.1-13,9.7c-1.9,2.6-3.6,5.6-5.4,8.4
		c-0.9,1.4-1.9,2.6-3.8,3.6c-0.2-2.2,0-3.9-0.1-5.7c-0.2-2.7-0.9-5.4-2.9-7.3c-1.6-1.6-3.7-2.5-5.9-1.8c-2.7,0.8-5.1,2.6-6.5,5.1
		c-1.8,3-2.9,6.3-3,9.8c-0.2,3.9-0.6,7.9,0.3,11.9c0.2,0.6,0.2,1-0.2,1.4c-1.2,1.4-1,3-0.6,4.7c0.9,3.6,0.6,7.1-1.1,10.4
		c-0.4,0.9-0.9,1.7-1.4,2.5s-1,1.6-1.8,2.2l0,0c-0.6,1.9-1.1,3.9-1.8,5.9c-0.6,1.6-0.5,3.3-0.5,5c0.1,1.3,0.6,2.5,1.5,3.4
		c0.9,1,1.8,1.3,3.1,0.7c1.2-0.5,2.3-1.1,3.4-1.8c1.8-1.2,3.6-2.5,5.3-3.8c0.9-0.6,1.8-1,2.8-1c0.5-1,1.3-1.5,2.1-2.2
		c2.8-2.1,6.3-2.8,9.2-4.7c1.3-0.7,2.4-0.6,3.6,0.1c2.9,1.6,5.9,2.2,9.2,2.2c2.4,0,4.9,0,7.3,0c4,0.1,7.5-1.2,10.5-3.9
		c1.3-1.2,2.7-1.8,4.3-1.9c0.2,0.2,0.3,0.2,0.4,0.3c0.2,0.4,0.6,0.9,0.8,1.3c1.5,3.1,4.3,4.2,7.5,4.3c1.8,0.1,3.5-0.5,5.1-1.4
		c0.6-0.4,1.3-0.9,2.1-1l0,0c0.2-0.6,0.4-1.2,0.8-1.7c0.2-0.2,0.4-0.6,0.6-0.9c1.2-2,1.8-4.2,2-6.5l0,0c-0.1-0.6-0.2-1.3-0.1-1.9
		C526.8,178,527.3,175.4,528.3,173.1z"/>
	<path class="st3" d="M806.5,202.3c1-3.4-0.1-6.3-2.1-9c-1.4-1.8-3.2-3.3-5.1-4.7c-3-2.1-6.4-3.1-9.7-4.6
		c-5.7-2.5-10.9-5.5-15.2-10.1c-0.9-1-1.8-1.8-2.7-2.7c-2.5-2.7-4.9-5.5-5.9-9.2c-0.3-1.2-1-2.3-1.7-3.4c-0.5-0.9-1.6-1-2.2-0.2
		c-1.4,1.9-3.1,3.7-3.1,6.3c0,0.1-0.1,0.2-0.2,0.2c0,0-0.1,0-0.1,0.1l-0.1,0.1c-0.1,0-0.1,0.1-0.2,0.1c0,4.3,1,8.3,0.9,12.6
		c0,2,0.7,4,1.4,5.9c1.2,3.2,2.8,6.3,4.3,9.5c1.8,3.6,3,7.4,3.3,11.3c0.2,3.2,0.2,6.4,0.1,9.6c-0.2,3.2-1.1,6.3-2.9,9.1
		c-1.3,2.1-3,3.8-4.7,5.5c-1.6,1.5-3,3.2-3.9,5.2c-2.1,4.8-0.5,8.3,4.1,10.3c0.3,0.2,0.7,0.2,1.1,0.3c1.8,0.4,3.8,0.8,5.7,0.8
		c2.7,0,5.3,0.6,7.7,1.9c1.4,0.8,3,1.5,4.4,2.3c2.4,1.3,5,2.1,7.7,1.9c1,0,2-0.3,3-0.7c3.8-1.7,7.1-4,9.9-7.1c4.6-5.2,6.7-11,5.2-18
		c-0.6-3-0.9-6-1-9.1c-0.2-4.2-0.4-8.4,1.4-12.4C806.3,203.6,806.3,202.9,806.5,202.3z"/>
	<path class="st3" d="M735.4,589.8c-1-3.8-1.9-7.6-2.6-11.5c-0.3-2.2-1-4.5-2.5-6.3c-1.6-1.9-3.4-2.1-5.3-0.5
		c-0.8,0.7-1.3,1.5-1.4,2.6c0,0.8,0,1.5-0.2,2.2c-1.3,4.8-2.6,9.6-3.4,14.5c-0.8,4.9-1.9,9.7-1.9,14.8c0,0.2,0,0.3,0,0.5
		c3.4-1.8,6.9-3.4,10.4-4.7c0.5-0.2,1-0.4,1.4-0.6l1.4-0.6l2.9-1c0.5-0.2,1-0.3,1.4-0.5l1.4-0.5l1.1-0.3c0-0.1-0.1-0.1-0.1-0.2
		C737.2,595.1,736.2,592.4,735.4,589.8z"/>
	<path class="st3" d="M236.1,152.2c-0.7-0.3-1.4-0.7-2.1-1c-1.5-0.8-3-0.6-4.2,0.6c-1,1.1-2.2,2.2-3,3.4c-1.8,2.6-3.6,5.3-5.5,7.9
		c-2.3,3.2-4.7,6.4-7.9,8.7c-5.4,4-9.3,9.1-12,15.1c-1.7,3.7-2,7.5-1,11.5c1,3.8,2.6,7.2,5,10.3c0.1,0.2,0.2,0.2,0.2,0.4
		c0.2,0.4,0.4,0.9,0.6,1.3l0,0c2,2.6,4.2,5.2,6.1,7.9c1.8,2.5,4.2,4.1,7.1,5c2.6,0.8,4.8,0.2,6.7-1.5c2.8-2.5,3.4-5.5,2.9-9.1
		c-0.4-2.2-1-4.5-1.2-6.7c-0.6-7.7-0.2-15.4,2.5-22.7c1-3,2.4-5.9,3.6-8.9c1.8-4.3,3.4-8.5,4.3-13.1c0.3-1.8,0.4-3.5-0.3-5.3
		C237.2,154.8,236.6,153.5,236.1,152.2z"/>
	<path class="st3" d="M397.8,593.4c-0.4-0.8-1-1.4-1.6-2.2c-1.2-1.5-2.4-3-3.7-4.4c-0.5-0.6-0.9-1.2-1-2c-0.8-5.1-2.5-10.2-3.6-15.2
		c-1.6-7.1-4.8-13.2-9.6-18.4c-3.7-4-8.3-6.8-13-9.5c-0.6-0.3-1.2-0.5-1.8-0.6c-2.4-0.4-4.9,2.4-4,4.7c0.7,1.8,1.7,3.4,2.6,5.1
		c0.3,0.6,0.8,1,0.9,1.7c0.3,2.2,0.6,4.6,0.9,6.8c0.1,1,0.2,2,0.4,3c1,5,3.2,9.4,5.5,13.9c4.9,9.8,12.2,17.2,21.6,22.8
		c2.2,1.3,4.3,2.7,6,4.7c2.3,2.6,4.3,5.4,6.1,8.3c1.3,2.2,2.6,4.4,3.9,6.6c0.1,0.2,0.5,0.2,0.6,0.2s0.2-0.2,0.3-0.4
		c-0.2-0.4-0.2-0.9-0.4-1.4C405.2,608.8,401.7,601,397.8,593.4z"/>
	<path class="st3" d="M647,256.1c0.2,2,0.9,4,2.6,5.4c1.3,1,2.6,1.1,3.8,0c0.7-0.7,1.4-1.5,1.9-2.3c1.4-2.2,2.9-4.5,4.3-6.8
		c1.8-3,3.6-6.2,5.4-9.3c0.2-0.2,0.2-0.5,0.4-0.8c0.1-1.1,0.1-2.2,0.2-3.4c0.6-9.4,3-18.4,5.4-27.5c0.2-0.5,0.3-1,0.5-1.4
		c1-2.6,2-5.1,3-7.6c0.2-1.9,0.2-3.9,0.2-5.9c0.5-3.4-0.6-7.1-0.8-11c0-0.9-0.6-1.4-1.4-1.5c-1.4-0.2-2.5,0.2-3.2,1.5
		c-1.4,2.6-2.2,5.5-2.2,8.4c0.1,2.7-0.6,5.3-1.3,7.9c-0.3,1.1-0.7,2.2-1,3.3c-1.8,6.5-4,12.9-6.7,19.2c-1.8,4.1-3.6,8.2-5.4,12.3
		c-1.3,3-2.4,6.3-3.8,9.2C646.9,249,646.6,252.5,647,256.1z"/>
	<path class="st3" d="M567.3,282.7c0.4,1.8,1,3.4,1.1,5.2c0.2,2.6,0.4,5.1,1,7.5c0.4,1.7,0.7,3.4,1.6,5.1c2.5,4.7,7.5,5.6,11.5,2
		c2-1.8,3.4-4,4.4-6.7s1.8-5.6,2.2-8.5c0.3-2.4,1.3-4.7,1-6.4c-0.2-4.9-1.4-8.7-3.8-11.9c-2.5-3.4-5.7-5.9-10-6.5
		c-0.9-0.2-1.8-0.5-2.6-0.2c-1.8,0.6-3.7,1.2-5.3,2.2c-5,3-7.5,10.9-2.5,15.4C566.5,280.7,567.2,281.6,567.3,282.7z"/>
	<path class="st3" d="M592.7,359.2c-1.8-1.6-3.7-2.1-5.9-1c-0.6,0.2-1.2,0.6-1.6,1c-1.5,1.5-3.3,2.9-4.4,4.7
		c-1.1,1.7-2.4,3.3-2.3,5.5c0,1-0.6,1.7-1.4,2.2c-3.8,2.5-7.1,5.8-11.8,7c-2.6,0.6-4.4,2.5-5.4,5.1c-0.3,1-0.9,1.8-1.4,2.7
		c-2,3.4-0.4,6.7,3.5,7.3c1,0.2,2.2-0.2,3,0.2c2.1,1,4,0.3,6-0.2c5.5-1.4,10.6-3.8,14.4-8.2c1.8-2.1,3.9-4,5.5-6.3
		c2.6-3.8,4.6-7.7,4.3-12.7C595.6,363.9,595.1,361.3,592.7,359.2z"/>
	<path class="st3" d="M287,233.3c1,2.2,2,4.4,2.8,6.7c0.9,2.5,2.3,4.5,3.9,6.5c1.9,2.3,3.8,4.7,5.8,7.1c0.8,1,1.7,1.9,2.8,2.6
		c2,1.1,4,0.5,4.3-1.8c0.3-2,1.3-3.9,0.9-5.9c0.2-2.4-0.7-4.4-1.6-6.4c-1-2.3-2-4.7-3.1-7c-0.4-1-0.7-1.9-0.6-3
		c0.2-2.5-0.6-4.8-1.3-7.1c-0.3-1.2-0.7-2.4-1-3.7c-0.7-3.4-1.5-6.7-1.6-10.2c0-1.9-0.6-3.8-0.9-5.6c-0.5-3.5-4.4-5.6-7.9-2.6
		c-0.3,0.2-0.6,0.6-0.8,0.8c-2,2.9-3.4,6-3.5,9.5c-0.1,2-0.1,4-0.6,6.1c-0.6,2,0.8,3.9,0.6,6C285.2,228.2,286,230.8,287,233.3z"/>
	<path class="st3" d="M763,310c-1.3-0.2-2.2,0.3-3.1,1c-2.8,2.3-4.4,5.5-6.3,8.6c-1.8,2.8-3.4,5.7-5.8,8c-3,3-5.5,6.4-7.5,10.1
		c-1.6,3-2.9,6.3-2.7,9.9c0.2,2.1,0.9,3.8,2.2,4.8c0.3,0.2,0.6,0.4,1,0.6c0.3,0.2,0.7,0.3,1.1,0.4c0.3,0.1,0.6,0.2,1,0.2
		s0.6,0.1,1,0.1c0.5,0,0.9,0,1.4,0s0.9-0.1,1.3-0.2c2.5-0.4,4.6-1.7,6-3.9c2-3,3.7-6.1,4.4-9.6c0.9-4.3,1.7-8.5,3.1-12.6
		c1.8-4.8,2.9-9.8,4.5-14.6C765.3,311.3,764.7,310.4,763,310z"/>
	<path class="st3" d="M652.4,394.7c-1,1-1.8,2.2-2.4,3.4c-0.6,1.1-1,2.3-2,3.3c-2.8,2.6-4.7,6-6.7,9.3c-1.7,2.7-3.4,5.4-5.6,7.7
		c-1.2,1.3-2.1,2.9-3,4.4c-0.7,1.2-0.6,2.4,0,3.6c0.5,1,1.2,1.8,1.9,2.4c1.3,1,2.9,1.2,4.7,1.1c0.4,0,0.9,0,1.3-0.1
		c0.1,0,0.2,0,0.3,0c0.4-0.1,0.8-0.1,1.2-0.2c0.3-0.1,0.6-0.2,0.9-0.2c0.4-0.1,0.7-0.2,1-0.4c0.2-0.1,0.4-0.2,0.6-0.3
		c0.5-0.2,1-0.6,1.4-1c1.7-1.4,3.2-2.9,4.5-4.7c2.6-3.5,4.6-7.4,6-11.5c1-2.7,1.9-5.5,1.8-8.6c-0.2-2.2-0.8-4.5-1-6.8
		C657.3,394.1,654.4,392.9,652.4,394.7z"/>
	<path class="st3" d="M418.3,394.7c-0.6-0.3-1.5-0.2-2.2-0.2c-1.9,0-3.8,0-5.8,0c-2.1,0-4.1,0-6.2,0c-2,0-3.8,0.6-5.5,1.4
		c-4,2.1-5,6-3.6,10.2c0.4,1.1,1.1,2.1,2.1,2.6c1.8,1,3.5,1.9,5.7,1.9c1.9,0,3.8-0.4,5.7-0.8c2.5-0.6,5.1-0.9,7.5-1.7
		c3.1-1.1,5.4-3.2,6.6-6.5c0.8-2.1,0-3.8-0.6-5.5C421.5,394.8,419.5,395.3,418.3,394.7z"/>
	<path class="st3" d="M584.7,397.7c-1.9,0-3.8-0.2-5.8,0.1c-4.3,0.6-8.1,2.2-11.7,4.6c-0.6,0.4-1.2,1-1.5,1.7
		c-0.7,1.3-1.6,2.2-2.8,3c-0.7,0.5-0.8,1.4-0.3,2c1.5,2,3.2,3.7,6.1,3.3c0.6-0.1,1.3,0,2.4,0c3.2,0.4,6.7-1,10-1.9
		c2.7-0.7,5.1-2.4,7.1-4.5c1.5-1.6,1.4-3.7,0.7-5.5C588.3,398.8,586.8,397.6,584.7,397.7z"/>
	<path class="st3" d="M350.7,266.4c-1-0.5-1.9-1.3-3-1.7c-2.1-1-3.6-2.3-4.7-4.3c-1.1-2.3-2.7-4.3-4.7-6.1c-0.9-0.8-1.8-1.4-2.9-1.8
		c-2.8-0.9-4.9,1-4.3,3.8c0.4,2.2,1.1,4.5,2.2,6.6c0.5,1,1.1,2.1,1.1,3.2c0.1,3.6,1.2,7.1,1.9,10.5c0.8,3.8,1.8,7.7,2.1,11.7
		c0.1,1.8,0.4,3.5,0.8,5.3c0.6,3,1.7,5.9,3,8.7c0.5,1,1.3,1.6,2.5,1.5c1-0.1,1.7-0.6,2.1-1.5c0.6-1.4,1.1-2.9,1.4-4.3
		c0.9-4.6,2.6-8.8,4.8-12.9c0.5-0.9,1-1.8,1.4-2.7c0.9-2,1.4-4.1,1.5-6.1C355.7,272,354.7,268.3,350.7,266.4z"/>
</g>
<g>
	<path class="st4" d="M729.7,475.8c-0.5,0.7-0.9,1.5-1.4,2.3c-5.5,9.9-11.1,19.7-17.2,29.2c-3.7,5.7-6.3,12-7.8,18.8
		c-1.6,7.9-2,15.8-2,23.7c0,4,0.2,7.9,0.2,12c0,5.8-0.7,11.5-2,17.2c-1,4.7-3,8.7-7.1,11.5c-0.7,0.6-1.4,1.1-1.9,1.8
		c-2.6,4.2-6.3,7.5-10.1,10.5c-2.4,1.9-4.7,4-6.7,6.3c-2.1,2.4-3.4,5.1-3.7,8.3c-0.1,0.9-0.2,1.8-0.4,2.6c-0.4,1.6-1.4,2.7-3.1,3
		c-1.7,0.3-3-0.3-4.1-1.6c-0.4-0.5-0.7-1-1-1.6c-1.5-2.6-2.7-5.2-3.6-8.1c-0.7-2.5-1.3-5-1.6-7.5c-1,4.3-1.9,8.7-1.8,13.3
		c0.2,5.1,0,10.2,0.7,15.3c0.6,4.4,1.8,8.5,3.9,12.4c0.3,0.6,1,0.8,1.6,1c2.3-2,4.2-4.5,6-6.9c3.3-4.2,7.5-7.3,12-9.9
		c1.8-1,3.7-1.7,5.8-1.8c1,0,2,0.1,2.9,0.4c0.2-0.2,0.4-0.4,0.6-0.6l0.6-0.6l0.6-0.5l1.1-1c0.7-0.6,1.5-1.4,2.2-2l2.3-1.9l1.1-1
		c0.4-0.3,0.8-0.6,1.2-1l2.4-1.8l0.6-0.5l0.6-0.5l1.2-0.9l2.5-1.8l2.6-1.7c1-0.6,1.9-1.2,2.9-1.8c0.2-6.7-0.6-13.6-1-20.3
		c0-0.2-0.2-0.5-0.2-0.7c-0.4-3.7-1.1-7.3-1.2-11c-0.2-4.2-0.4-8.4,0.6-12.6c0.9-3.8,1.5-7.8,2.1-11.6c0.3-2.2,0-13.6,1.5-19.1
		c1.1-3.9,2.2-7.9,3.6-11.7c2.5-6.6,5-13.2,7.1-19.9c0.9-2.8,2.2-5.5,3.7-8c1.3-1.9,2.5-3.9,3.5-6c0-0.6,0.1-1.2,0.1-1.8
		c0.2-3.6,0.4-7.1,0.5-10.7C730.5,476.7,730.8,475.9,729.7,475.8z"/>
	<path class="st4" d="M730.5,408.6c0-2.5-0.5-4.8-1.4-7.1c-2.5-6.7-5-13.5-7.5-20.2c-0.2-0.5-0.5-0.9-1.1-1.9c-1,3.1-1.7,5.6-2.4,8
		c-2.6,8.7-6.3,16.8-12.9,23.3c-0.5,0.5-0.9,1-1.3,1.4c-4.3,5.1-9.1,9.5-14.8,12.8c-1.3,0.7-1.8,1.6-1.8,3
		c-0.3,5.1-1.8,9.9-4.3,14.3c2.8,0.6,5.6,0.2,8.4,0.2c2.2,0,4.3,0.3,6.4,0.8c2.2,0.5,3.7,1.7,5,3.4c2,2.7,3.2,5.8,4.1,9
		c1.4,4.7,1,9.5,0.6,14.1c-0.3,3.5-1.3,7-1.6,10.6c-0.2,1.3-0.1,2.5,0.1,3.7c0.2,3.3,0.5,6.6-0.3,9.9c-1,4.1-2.6,8-4,12
		c-1.2,3.5-2.8,6.9-4.3,10.3c3.4-5.1,6.7-10.1,10.3-15.1c0.6-0.8,1.3-1.6,1.7-2.6c2.1-4.8,4.3-9.5,5.2-14.8
		c0.7-4.3,1.6-8.6,2.6-12.8c1.8-8.3,4.8-16.2,7.5-24.2c2-5.9,4-11.9,5.5-18c1-4.4,1.4-8.8,1-13.4
		C730.8,412.9,730.5,410.7,730.5,408.6z"/>
	<path class="st4" d="M647.2,482.1c-0.5-2.9-1-5.9-1.5-8.7c-0.3-1.8-0.9-3.4-1.8-5.1c-1.6-2.7-4.1-3.8-7.1-3.2
		c-0.5,0.1-1,0.3-1.5,0.4c-2,0.2-3.2,1.3-4,3c-3.6,7.6-8.8,14.1-15,19.8c-2.9,2.6-5.7,5.5-8.4,8.4c-4,4.2-8.3,8-13,11.4
		c-1.4,1-2.6,2-4,3c-3.6,2.3-5.4,5.9-6.3,9.7c-1,3.9-2.2,7.6-4.4,11c-0.5,0.8-0.7,1.6-0.2,2.5c1.1,1.6,1,3.4,0.6,5.2
		c-0.5,2.2-1,4.5-1.6,6.7c-1,4.3-2.6,8.3-5.7,11.6c-0.3,0.4-0.6,0.8-0.9,1.3c-4.8,7.9-9.9,15.6-13.2,24.3c-0.4,1-1,2.1-1.5,3.1
		c-2.9,5.3-7,9.1-12.5,11.5c-1.4,0.6-2.8,1.2-4.3,1.8c-3.8,1.4-6.7,3.6-9.2,6.7c-1.4,1.8-2.9,3.6-4.5,5.3c-1,1-1.7,2.2-1.8,3.7
		c-0.8,5.5-1.4,10.9-0.6,16.4c0.2,1.1,0.2,2.3,0.2,3.4c-0.1,2-1.1,3.4-3,4.1c0.4,0.2,0.7,0.4,1.1,0.5c3.4,0.9,6.7-0.4,8.6-3.6
		c2.8-4.7,5.5-9.5,8.3-14.3c2.9-4.9,6.3-9.1,11.7-11.7c3.7-1.8,7.1-3.9,10.5-6.3c4.9-3.4,9.2-7.4,12.9-12c4-5.1,6.8-10.8,8.8-16.9
		c1.4-4.4,3.4-8.5,6.3-12.2c1-1.3,2.2-2.2,3.6-2.7c1.7-0.6,3.4-1.1,5.1-1.7c4.3-1.4,8.3-3.4,11.7-6.4c4.8-4.2,9-9.1,12.8-14.2
		c2.6-3.6,5-7.5,7.4-11.1c3.5-5.4,6.3-11.1,9-16.9c2-4.3,3.6-8.7,5.5-13.1c1.4-3,2.7-6.1,4.2-9.1c-0.7-0.7-1.3-1.7-1.6-2.8
		C647.4,483.9,647.4,483,647.2,482.1z"/>
	<path class="st4" d="M524.8,575.4c2.1-4.8,5.4-8.7,9.2-12.2c0.6-0.5,1.1-1,1.6-1.7c0.3-0.4,0.6-0.9,0.7-1.4
		c0.3-3.3,0.1-6.4-2.1-9.1c-0.6-0.7-1.2-0.8-2.1-0.6c-0.9,0.2-1.7,0.6-2.2,1.4c-1,1.2-1.9,2.4-2.7,3.7c-1.5,2.2-3.2,4.3-5.3,6.1
		c-5.5,4.8-11.6,8.3-18.5,10.7c-1.7,0.6-3.4,0.9-5.2,1.1c-5.8,0.7-11.5,1-17.2,0.6c-11.3-0.8-22.3-3-32.7-7.8
		c-2.6-1.2-5.4-2.4-8-3.7c-1.1-0.6-2.3-1.2-3.3-2c-4.1-3.3-8.3-6.5-11.6-10.7c-1.1-1.4-2.4-2.6-3.5-4.1c-1.2-1.4-2.6-2.4-4.3-3.1
		c-5.4-2.2-10.3-5.3-14.8-8.7c-2.6-2-5.3-4-8.1-5.9c-6.3-4.1-11.7-9.1-16.4-15.1c-2.6-3.4-5.1-6.7-6.9-10.7
		c-0.9-1.8-1.8-3.7-2.8-5.5c-1.9-3.4-3.1-7.1-3.7-10.9c-0.5-3.3-1-6.6-1.3-9.9c-0.2-1.8-0.9-3.1-2.2-4.3c-2-1.6-3.9-3.4-5.7-5.1
		c-4.5-4.4-9.1-8.7-14.4-12.2c-1.1-0.8-2.2-1.8-3.2-2.7c-4.3-4-8.7-7.9-13-12c-6-5.6-11.5-11.6-16.1-18.5c-0.6-1-1.4-1.8-2.2-2.6
		c-6.3-5.8-9.9-13-11.8-21.2c-1.1-4.9-1.6-9.9-2.3-14.8c-0.6-4.4-1.5-8.8-2.3-13.2c-0.2-1-0.7-1.6-1.6-1.9c-0.8-0.3-1.3,0-1.2,0.8
		c0.2,3.7,0.6,7.4,0.7,11.1c0.5,11.5,1.2,23,3.6,34.4c1,5,2.1,9.9,3.5,14.8c0.5,0.4,1,0.8,1.5,1.2c2.2,1.5,4.4,3.1,6.9,4.3
		c1.6,0.7,2.6,1.8,3.6,3.3c2.8,4.4,5.9,8.7,9.7,12.3c0.6,0.6,1.1,1.1,1.4,1.8c1.6,3.2,3.2,6.4,4.7,9.7c2.8,6.3,5.9,12.4,11.1,17.3
		c3.2,3,6.1,6.3,9.3,9.2c2.4,2.2,3.8,4.7,4.6,7.8c0.1,0.4,0.2,0.7,0.3,1.1c1.7,6.7,3.9,13.2,7.9,19.1c2,3,3.8,6.1,6.3,8.7
		c3.9,4.3,8,8.6,12.9,12c3.4,2.4,6.7,5.1,9.9,7.9c4.7,4.3,8.2,9.5,12,14.4c0.7,1,1.2,2,1.2,3.2c-0.1,2.7,0.4,5.3,0.7,8
		c0.6,5.1,2.2,9.7,4.9,14c2.2,3.4,5,6.3,8.3,8.5c4.7,3.2,8.2,7.2,10.4,12.4c1.9,4.3,3.9,8.6,6,12.8c1.7,3.4,3.8,6.6,6.3,9.6
		c2,2.5,4.1,4.8,5.2,7.9c1.2,3.3,3.4,5.9,5.8,8.5c2.9,3,6.2,4.4,10.3,4.2c1.7-0.1,3.2,0.2,4.8,0.9c2.7,1,5.9,3,8.6,1.7
		c3-1.4,6.6-0.9,8.3-3.6c1.4-2.4,5-7.1,6.2-9.7c2.8-6,3.9-14,4.9-20.5c0.4-2.4-0.1-11.1,2.1-11.7c1.2-0.3,2.5-0.2,3.8-0.7
		c3-1,5.7-2.4,8.3-4c2.1-1.3,4.1-2.6,6-4c0.7-0.5,1.4-1,2.2-1.4c0.5-2.4,1.4-4.7,3-6.6c2.7-3.4,5.1-7.1,8.4-10
		C523.6,577.3,524.3,576.5,524.8,575.4z M479.3,628.7c-0.2,1-0.6,2.1-1.3,2.8c-1.6,1.8-2.3,3.9-3,6.1c-0.5,1.4-1.3,2.8-2.3,3.9
		c-3.7,3.9-9.3,3.4-12-1.3c-0.8-1.4-1.4-3-1.8-4.7c-0.6-1.9-1.1-3.9-1.5-5.9c-1.1-4.7-2.7-9.1-4.7-13.4c-0.7-1.7-1.7-3.1-2.9-4.5
		c-3.7-4.1-7.2-8.3-10.6-12.7c-2.2-2.9-4.8-5.4-7.5-7.6c-2.5-2.1-5-4.1-6.9-6.7c-0.7-1-1.8-1.4-2.8-2c-2-1.1-4.1-2.2-5.9-3.6
		c-5.2-3.8-8.3-9-9.2-15.4c-0.4-3.1,0.2-6.1,1.5-9c0.3-0.7,1-0.9,1.5-0.2c2.6,2.9,6.2,4.7,8.6,7.7c0.6,0.6,1.4,1.2,2.2,1.6
		c5.1,2.4,9.9,5.2,15.2,7.2c2.9,1,5.8,2.1,8.8,2.6c2,0.3,4,1,5.9,1.8c4,1.8,8,3.4,12,5.2c4.3,2,8.3,4.7,12.2,7.3
		c1.2,0.8,2,1.9,2.6,3.3c2.8,7.1,4.7,14.4,4.7,23.1C481.8,618.4,480.7,623.5,479.3,628.7z"/>
	<path class="st4" d="M556,193c-1.9,6.4-2.8,4.8,0.2,11.6c0.6,1.3,1.1,2.6,1.3,4c0.3,2.2,1.5,3.7,3,5.2c4.8,4.8,10.3,8.3,16.5,11.1
		c7.4,3.2,15.1,4.8,23,5.9c2.4,0.3,4.8,0.8,7.1,1.4c1.4,0.3,2.7,0.3,4.1-0.1c7.9-2.6,15.7-5.5,22.8-10.2c2.9-1.9,6.1-3.4,9.5-3.8
		c1.7-0.2,3.4-0.3,5,0c2.4,0.5,5,1.4,6,2.9c1.4-3.9,2.4-8,2.2-12.3c-0.1-2.3,0-4.7-0.1-7.1c-2.4,1-4.5,0.2-6.2-2.7
		c-1-1.7-1.4-3.5-1.8-5.5c-0.9-4.7-2.9-9-5.9-12.8c-1-1.2-1.8-2.6-2.5-3.9c-1.3-2.3-2.6-4.7-3.8-7.1c-1.8-3.8-4.4-6.5-8-8.6
		c-1.9-1-3.8-2.1-6-2.4c-3-0.5-4.5-3.8-2.6-7c1-1.6,2.5-2.6,4.2-3.2c1.4-0.5,3-0.9,4.6-0.7c2.5,0.2,4.4-0.7,6.4-2
		c2.3-1.5,4.8-3,7.3-4.2c4.2-2.1,7.9-4.8,11.1-8.1c2.5-2.6,5.2-5,7.4-7.8c6.4-8.1,9.1-17.1,5.8-27.4c-0.6-1.9-1.2-3.9-1.4-5.9
		c-0.2-1.4-0.1-2.8,0.4-4.2c0.1-0.2,0.1-0.2,0.2-0.4c-0.2-0.1-0.5-0.2-0.7-0.2c-3.2-0.8-9.4,2.1-9.1,6.7c0.2,2-0.8,3-2.6,3.8
		c-0.7,0.3-1.4,0.7-2.1,1c-0.2,1.1-0.6,2.2-0.7,3.4c-0.6,5.9-3.5,10.4-7.8,14.4c-3.4,3.1-7.1,5.8-10.8,8.4c-1.1,1.7-2.5,3.1-3.9,4.5
		c-0.9,0.8-1.8,1.6-2.7,2.3c-3.8,3.3-8.3,5.4-12.8,7.6c-1.4,0.7-2.8,1-4.4,1c-0.2,0-0.2,0-0.4,0c0,2.6-0.4,5.2-1.4,7.9
		c-0.4,1-0.8,2.2-1.4,3.1c-1.8,2.9-4.4,4.3-7.8,3.7c-1.4-0.2-2.7-0.2-4.2,0.2c-2.2,0.5-4.3,0.9-6.4,1.2c-1.4,0.2-2.6,0.9-3.8,1.7
		c-7.5,5.6-13.2,12.8-17.8,20.9c-2,3.6-4.2,7.1-7.1,9.9C557.1,190.4,556.4,191.6,556,193z M559.5,198.7c0.2-2.2,0.6-4.2,2.2-5.9
		c1.5-1.8,2.6-3.8,3.9-5.7c1.8-2.6,3.8-5.1,6.3-7.3c3.3-3,6.3-6.3,9.8-9.2c3.2-2.7,6.9-4.4,10.8-5.6c4.7-1.4,9.5-1.4,14.4,0
		c10,3,17.6,9.1,23.7,17.5c1.8,2.6,3.4,5.5,5.1,8.1c0.6,1,0.8,2.2,0.7,3.3c-0.3,8-3.4,14.6-10.1,19.3c-4.3,3-8.7,5.4-13.7,6.9
		c-1.4,0.4-2.7,0.8-4,1.3c-2.2,0.7-4.5,1-6.9,1c-4-0.3-8.1-0.6-12-2c-5.1-1.8-10.2-3.5-14.6-6.7c-2-1.4-4.3-2.2-6.6-3.1
		c-1.3-0.6-2.6-1-3.8-1.7C560.8,206.5,559.2,203,559.5,198.7z"/>
	<path class="st4" d="M589.2,256c1.1,0.2,2.2,0.4,3.2,0.6c-1.4-1.8-2.9-3.3-4.7-4.7c-5.3-4.1-10.9-7.7-16.5-11.2
		c-3-1.8-5.9-3.5-8.9-5.3c-0.8-0.5-1.5-1-2.2-1.5c-4.7-4.4-9.2-8.9-11.6-15.2c-0.3-0.7-0.3-1.8-1.4-2.2c-0.6,0.8,0,1.7,0,2.5
		c0.1,1.4,0.3,2.8,0.2,4.3c-0.2,3.8-3.8,5.6-6.9,3.4s-5.2-5.3-5.7-9.2c-0.5-4.4,0.4-8.4,3.1-12c1-1.2,1.3-2.2,0.6-3.8
		c-4.2-9.9-0.8-20.7,8.3-26.5c1.8-1.1,2.5-2.4,2.5-4.3c0.1-3.4,0.4-6.7,0.9-10c-0.3,0-0.6,0-0.9,0.1c-1,0.3-1.8,1-2.6,1.7
		c-1.6,1.4-3,3.2-4.1,5.1c-0.7,1.2-1.6,2.3-2.7,3.2c-1.6,1.2-3.3,2.4-5,3.5c-2.4,1.6-4.5,3.4-6,5.8c-0.1,0.2-0.2,0.2-0.2,0.4
		c-0.6,0.8-1.3,1.5-2.4,1.7c-0.2,2.3-0.8,4.5-2,6.5c-0.2,0.3-0.3,0.6-0.6,0.9c-0.3,0.5-0.6,1.1-0.8,1.7c-0.2,1.7-0.5,3.4-0.7,5.1
		c-0.1,0.6-0.2,1.1-0.3,1.7c-0.6,3.3-0.6,6.6,0,9.9c0.4,2.2,1.3,4.4,1,6.8c-0.1,1,0.2,1.8,0.6,2.6c1,2.3,2.2,4.6,4.3,6.3
		c2.2,1.8,3.4,4.1,4.3,6.7c1,2.7,2.2,5.5,3.5,8.1c1.4,3,2.6,6.1,3.4,9.3c0.2,0.9,0.6,1.7,1,2.5c0.6,1,1.4,1.9,2.2,2.8
		c0.3-0.4,0.6-0.8,1-1.2c0.7-0.8,1.8-1.4,2.9-1.8c2.6-1.1,4.3-0.6,6.1,1.6c1,1.2,1.6,2.6,1.8,4.2c0.2,1.4,0.2,2.8,0.2,4.2
		c0,1.1,0.1,2.2,0.2,3.4c0.2-0.2,0.6-0.5,0.8-0.8c0.8-1,1.6-2,2.1-3.2c0.6-1.4,1.6-2.1,2.9-2.3c3.6-0.7,7.3-1.6,10.9-1.7
		C577.3,255.2,583.3,255,589.2,256z"/>
	<path class="st4" d="M378,381.1c1,1.9,1.7,4,2.2,6.2c0.2,1.1,0.4,2.2,0.6,3.3c0.1-3.1,0.7-6,2.2-8.7c-0.6-1.4-1-2.8-1-4.3
		c-0.2-3.6-0.3-7.1-0.3-10.7c0-2.8-0.3-5.6-0.7-8.4c-0.7-5-3-9.2-6-13.2c-0.8-1-1.8-1.8-2.8-2.6s-1.9-1.1-3.1-0.5
		c-2.2,1.2-4.5,0.8-6.5-0.6c-0.3-0.2-0.6-0.4-1-0.6c-1.6-0.9-2.3-0.8-3.8,0.6c-1.3,1.2-2.5,2.6-3.8,3.8c-1.5,1.4-3.2,2.6-5.2,3.2
		c-1,0.3-2.1,0.5-3.1,0.3c0.1,0.6,0.1,1.7,0,3.4c-0.1,3.9,0.1,7.9,0.9,11.7c1-2.5,2.5-4.9,4.2-7.1c1-1.4,2.1-2.6,3.6-3.4
		c1.8-0.8,3.3-2,4.8-3.1c0.5-0.3,1-1,1.7-0.1c-1.7,2.6-2.5,5.5-2.7,8.7c-0.1,0.6-0.2,1.3-0.4,1.8c-1.8,8.4-1.7,16.8-0.4,25.3
		c0.6,3.8,2.1,7.1,4.4,10.1c0.4,0.5,0.8,1,1.7,0.7c0-0.7,0.1-1.4,0-2.2c-0.1-1.3-0.3-2.6-0.3-3.8c-0.1-3.5,0.3-6.9,2.3-9.9
		c2-3.1,4.9-4.3,8.3-3.3C375.5,377.9,376.9,379.2,378,381.1z"/>
	<path class="st4" d="M318.8,228.8c0.8,3.6,1.7,7.2,2.6,10.8c4.7,18.8,8.5,37.8,9.9,57.2c0.7,9.8,1.2,19.5-0.2,29.2
		c-0.2,1.2-0.3,2.3-0.5,3.5c0.2,0.5,0.6,1,0.8,1.4c0.6,1,1,1.8,0.5,2.8c-0.6,1.1-0.2,2.2,0.1,3.4c0.6,2.4,2.3,3.9,4.3,5.1
		c1.4,0.8,2.8,1.5,4.2,2.4c-0.3-0.9-0.5-1.8-0.4-3c0.2-1.7,0.8-3.2,1.5-4.7c2-4,4.1-8,7-11.5c1.8-2.3,3.4-4.8,4.7-7.5
		c1-1.8,2-3.6,3-5.4c2.5-4.4,4.2-9.1,4.5-14.1c0.2-3.5,1.4-5,5.1-5.5c3-0.5,6-1,8.9-2.1c2-0.7,3.8-1.6,5.3-3
		c5-4.4,9.8-9.1,13.6-14.7c2.9-4.3,6.7-7.3,11.5-9.2c0.8-0.3,1.7-0.6,2.5-1c3-1.1,5.8-2.8,7.3-5.9c0.2-0.3,0.4-0.6,0.6-1
		c1.4-1.7,3.3-1.9,5.1-0.7c2.6,1.7,3.6,4.3,3.4,7.3c0,0.4-0.1,0.8-0.1,1.1c2.1-2.1,3.4-4.7,4-8c0.1-0.6,0-1.3,0.2-1.9
		c0.4-2.8,0.9-5.5,1.3-8.3c0.6-3.4,2.2-6.6,3.4-9.8c1.9-4.8,5.2-8.7,9.2-11.6c4.8-3.5,9.9-6.8,15.5-9.1c5.5-2.2,7.7-7.5,5-12.8
		c-0.7-1.4-1.4-2.7-2-4.2c-1,0-1.9,0.3-2.8,1c-1.8,1.3-3.5,2.6-5.3,3.8c-1,0.7-2.2,1.3-3.4,1.8c-1.3,0.6-2.2,0.2-3.1-0.7
		c-0.9-1-1.4-2.2-1.5-3.4c-0.1-1.7-0.2-3.3,0.5-5c0.7-1.9,1.2-3.9,1.8-5.9c-0.7-0.3-1.3-0.8-1.7-1.4c-0.7-0.9-1.1-2-1.4-3.2
		c-0.6-2.9-1-5.8-0.8-8.7c0.1-1.6-0.2-3-1.2-4.3c-0.2-0.2-0.2-0.3-0.4-0.5c-1.6,7.1-3.9,14-7.3,20.5c-0.5,0.9-0.8,1.9-1.2,2.8
		c-0.8,1.7-0.8,3.4-0.3,5.2c1.4,5.2,0.7,10.4-0.9,15.6c-0.2,0.6-0.4,1.2-0.8,1.8c-1.4,2.2-3,4.4-3.8,7.1c-0.6,1.8-2.2,2.9-4.2,2.9
		c-1.9,0-3.4-1.1-4.2-2.9c-0.8-1.6-1.5-3.3-2.3-4.8c-0.8-1.4-1.9-2.5-3.7-3c-3.2-1.1-4.2-3.5-2.9-6.7c0.5-1.2,1.1-2.3,1.6-3.4
		c0.3-0.7,0.6-1.4,0.2-2.5c-2.1,1.6-3.9,3.1-5.9,4.7c-5.1,4-10.8,6.1-17.4,6.3c-5.6,0.1-11-1-16.3-2.4c-1.1-0.3-2.2-0.7-3.2-1.3
		c-7.7-4.1-14.2-9.6-19.5-16.5c-2.2-2.9-2.3-5.9-0.6-8.9c1.8-3.3,4.3-6.1,6.9-8.7c3.1-3.2,6-6.7,8.8-10.1c1.8-2.2,3.8-4.6,6.1-6.4
		c6.5-5.4,13.7-7.1,21.9-4.3c2,0.7,3.8,1.6,5.3,3c1.3,1.3,2.9,2.2,4.3,3.1c3.3,2.2,6.7,4.3,9.6,7.1c3.2,3,6.3,6.4,8.5,10.4
		c0.6,1.1,1.4,1.4,2.1,1c0.9-0.5,0.7-1.3,0.5-2c-0.3-1-0.6-2-1-2.9c-2.1-3.4-3.2-7.3-4.1-11.1c-1.5-6.5-5.5-11.1-11-14.7
		c-7.9-5.1-16.3-4.8-24.8-2.2c-6.8,2.1-12.7,6-18.5,10.1c-0.8,0.6-1.3,1.2-1.1,2.2c0.3,2.7-0.9,5-2.3,7.1c-1.4,2.2-3.2,4-5,5.9
		c-2.2,2.2-4.1,4.6-5.6,7.3c-0.9,1.4-1.8,2.7-3.3,3.7c-1,0.6-1.7,1.5-2.6,2.2c-0.6,0.5-1,1.8-2,1.3c-0.7-0.3-0.6-1.4-0.6-2.1
		c-0.1-1.4-0.2-2.9,0.2-4.2c0.2-0.9,0.3-1.8,0.4-2.6c-1.3,2.8-2.4,5.6-3.3,8.6c-0.6,2.1-1.1,4.2-1.4,6.3c-0.3,2.7-0.9,5.5-2.6,7.9
		c-1,1.5-2.1,2.9-3.6,3.9c-0.9,0.6-1.6,1.3-2.3,2c-4,3.6-7.1,7.9-10.2,12.3c0,1.8,0.1,3.6,0.2,5.5
		C318.4,226.4,318.5,227.6,318.8,228.8z M338.3,211.4c0.3-2.8,1.3-5.1,3.8-6.5c3,0.6,4.4,2.6,5.3,5.1c0.6,1.9,1.4,3.8,1.9,5.9
		c0.6,2.1,1.6,3.8,3.2,5.1c3.2,2.9,6.7,5.7,10.4,7.9c3.9,2.2,8.3,3.3,12.8,4.2c2.4,0.5,4.8,0.6,7.2,1c3,0.6,5.6-0.3,8.1-1.8
		c1.4-0.9,2.8-1.8,4.2-2.8c1.5-1,3.1-1.8,4.9-2.2c1.3-0.2,2.6-0.2,3.8,0.4c2.2,1.1,2.6,3.7,1,5.5c-0.9,1-2,1.5-3.2,2
		c-1.8,0.6-3.3,1.7-4.3,3.5c-1.2,2.2-3.2,3.7-4.9,5.4c-2.9,2.7-5.6,5.6-8,8.7c-1.5,1.9-2.7,4-3.4,6.4c-0.7,2.3-1.4,4.7-2.2,7
		c-0.5,1.4-0.9,2.7-1.6,3.8c-1.4,2.2-3.8,2.6-6,1.1c-1.4-1-2.2-2.5-2.7-4.1c-0.8-2.4-1.9-4.7-3.5-6.8c-1.1-1.4-2.4-2.5-4.3-2.9
		c-4.4-1-7.9-3.6-10.8-6.9c-4-4.5-6.6-9.8-8-15.6c-1-3.8-1.8-7.7-2.6-11.6C338.3,219.4,337.9,215.4,338.3,211.4z M335.5,252.4
		c1.1,0.3,2.1,1,2.9,1.8c1.9,1.8,3.4,3.8,4.7,6.1c1,2.1,2.6,3.4,4.7,4.3c1,0.5,1.9,1.2,3,1.7c4,1.9,4.9,5.6,5.3,9.8
		c-0.2,2-0.6,4.1-1.5,6.1c-0.4,1-0.9,1.8-1.4,2.7c-2.2,4.1-3.9,8.3-4.8,12.9c-0.3,1.5-0.9,3-1.4,4.3c-0.3,0.9-1,1.4-2.1,1.5
		s-2-0.5-2.5-1.5c-1.4-2.8-2.4-5.7-3-8.7c-0.4-1.8-0.6-3.5-0.8-5.3c-0.2-4-1.4-7.8-2.1-11.7c-0.7-3.5-1.8-6.9-1.9-10.5
		c0-1.2-0.6-2.2-1.1-3.2c-1-2.1-1.8-4.3-2.2-6.6C330.6,253.4,332.7,251.5,335.5,252.4z"/>
	<path class="st4" d="M467.7,408c-0.1,0.2-0.2,0.5-0.3,0.7c-0.6,1.9-2.8,2.8-3.1,4.7c-0.2,2-1,3.7-1.8,5.5c-3,6.3-7.9,11-14,14.3
		c-1.2,0.6-2.6,1.2-3.9,1.4c-4.2,0.9-7.4-2.6-6.1-6.7c0.8-2.6,2.6-4.7,4.7-6.4c1.8-1.4,3.8-2.6,5.7-3.8c0-0.2,0.1-0.6,0-0.7
		c-2.5-2.9-2.4-3-0.9-6.4c1.1-2.6,2-5.3,3.4-7.7c0.4-0.7,0.4-1.4,0.1-2.2c-0.4-1-0.7-1.9-1.1-2.9c-1.7-3.8-2.1-7.6-1.1-11.6
		c0.8-3.7,0.7-3.7-2.2-6.1c-4.7-3.8-9.5-7.5-13.7-11.8c-0.6-0.6-1.4-1.1-2.2-1.6c-2.9-1.9-5-4.5-6.2-7.6c-0.7-1.9-1.4-3.8-1.9-5.9
		c-1.4-5.6-2.3-11.4-2.3-17.2c-0.2-0.2-0.5-0.4-0.7-0.6c0.2-0.4,0.5-0.8,0.7-1.2c0-0.4,0-0.8,0-1.2c0.1-2.2,0.2-4.4,0.2-6.6
		c-1.7,0.2-3.4,0.6-4.9,1.4c-0.7,0.4-1.4,0.9-2.1,1.4c-1.6,1.4-3.5,2.6-5.4,3.7c-1.3,0.7-2.6,1.5-4,1.7c0.1,0.2,0.2,0.4,0.2,0.6
		c0.6,1.8,2.3,2.9,2.8,4.6c0.5,1.6,0.8,3.2,1.8,4.6c2.7,4.2,3.9,8.8,5.1,13.6c0.1,0.5,0.2,1,0.2,1.5c-0.2,6.1-0.8,12.1-3,17.9
		c0.6,0.6,1.3,1.1,2.2,1.4c2.1,0.9,4.1,2.1,6.3,2.9c3,1.1,5.7,2.9,7.9,5.2c2.5,2.6,5.1,5.1,7.6,7.5c2,1.8,3.6,3.7,2.1,6.6
		c-0.2,0.3-0.1,0.7-0.1,1.1c0.1,2.2-0.9,4.1-2.2,5.6c-1.7,2-3.5,4-5.9,5.5c-2.9,1.9-5.9,3.4-9.3,4.4c-3,0.9-5.6,2.4-7.8,4.7
		c-1,1-1.9,2.1-3,3c-1.9,1.7-3.2,3.5-3.4,5.9c0.1,0.1,0.2,0.1,0.3,0.2c1.4,0.6,2.9,1,4.5,1c1.8,0,3.6,0,5.4,0c1,0,2.1,0,3,0.2
		c2.9,0.6,3.9,3.6,2.1,5.9c-0.4,0.5-0.9,1-1.4,1.3c-3.4,1.7-6.7,3.2-11.4,3c-0.5-0.1-1.8,0-3-0.5c-6.3-2.3-11.8-5.6-15.2-11.5
		c-1-1.7-1.7-3.4-1.8-5.5c-0.6-0.8-1.2-1.7-1.7-2.7c-0.2-0.6-0.6-1.1-0.8-1.8c-1.2-3-2.9-6-3.3-9.4c0-0.2-0.4-0.3-0.6-0.4
		c-0.2,0-0.5,0.1-0.7,0.2c-0.2,0.2-0.5,0.5-0.6,0.7c0,1.8,0.2,3.7,0.5,5.5c0.8,5.9,2.6,11.5,4.8,17c1.1,2.8,2.8,5.2,5,7.2
		c1.2,1.1,2.6,2.2,3.8,3.3c5.6,4.9,12.5,6.2,19.6,7.2c1.3,0.2,2.4-0.8,3.8-0.4c1.5,0.4,3,0,4.5-0.5c3.9-1.3,7.9-2.7,11.6-4.5
		c1-0.5,2-1,3-1.5c0.2-0.1,0.5-0.2,0.7-0.3c1.5-0.8,3-1.7,4.6-2.6c6.3-4.1,12.7-8.3,18.6-13.1c1.9-1.5,3.8-3,5.1-5.1
		c1.2-1.8,2.6-3.5,3.8-5.2c1.4-1.8,3-3.4,4.9-4.9c0.8-0.6,1.7-1,2.6-1.4c0,0,0,0,0-0.1c0.8-1.4,1.9-1.5,3.2-0.5
		c0.1,0.1,0.2,0.2,0.2,0.2c0.3,0.2,0.6,0.3,0.9,0.6c1.5,1.6,3.4,2.6,5.4,3.6c1.4,0.6,2.6,1.6,3.8,2.5c1.9,1.3,3.8,2.6,5.7,3.8
		c8.7,5.5,17.4,10.8,25.3,17.5c0.6,0.5,1.2,1,1.8,1.4c5.3,3.9,11.1,6.8,17.6,8.4c3.8,1,7.7,1.9,11.6,2.6c2.5,0.5,5.1,0.7,7.6,0
		c4.7-1.3,9.3-2.8,13.6-5.4c3-1.9,6-4,8.2-6.9c3.3-4.6,6.7-9.1,8.9-14.4c0.6-1.5,1.4-3,2.1-4.3c0-0.3,0-0.6-0.1-1
		c0-0.2-0.2-0.5-0.4-0.6s-0.6,0-0.6,0.2c-1.4,2.2-3.4,3.8-5.1,5.8c-2.2,2.5-5.1,3.8-8.2,4.7c-1,0.3-2.1,0.2-3,0.5
		c-1.3,0.4-2.6,0.6-3.8,0.5c-0.2,1.8-1.4,4.2-2,6.3c-0.9,2.7-2.7,4.7-5.4,5.6c-4,1.5-8,2.6-12.4,2.5c-4-0.2-7.9-0.8-11.8-1.8
		c-2.2-0.6-4.4-1.5-6.2-3c-1.5-1.3-3.2-2-5.1-2.6c-5.6-1.9-10.9-4.6-15.2-8.7c-1-1-2.1-1.9-3.2-2.7c-5.2-3.6-9.5-8.3-13.3-13.3
		c-2.5-3.2-5.5-5.8-8.8-7.9c-1.4-0.9-2.9-1.7-4.3-2.6c-2.2-1.3-3.1-3.3-3-5.8c0.1-1,0.2-2,0.3-3c-1.3-0.6-2.6-0.3-3.8-0.2
		c-0.9,0.6-0.7,1.6-0.9,2.5c-0.7,2.9-2.3,5.1-5.1,6.3c-0.5,0.2-1,0.4-1.4,0.6C469.5,405.2,468.2,406.2,467.7,408z"/>
	<path class="st4" d="M519.1,415.9c-0.5,0.3-0.6,0.8-0.2,1.2c0.4,0.3,0.8,0.6,1.3,0.9c4.7,2.8,9.2,6,13.7,9.2c0.5,0.4,1,0.8,1.6,1
		c4.5,1.4,8.7,3.6,13.5,4.6c4.1,0.9,8.1,1,12.1-0.5c0.7-0.2,2.6-0.9,4.7-1.4c-0.1,0-0.2-0.1-0.2-0.1c-2.3-0.6-4.4-1.9-6.1-3.8
		c-0.5-0.6-1.1-1-1.8-1.4c-4.6-3-8.2-7-12-10.7c-0.5-0.5-0.9-1-1.2-1.5c-3-6.1-5.5-12.4-5.5-19.3c0-3.1,0.3-6.1,1-9.1
		c1.4-6.3,3.7-12.3,7.4-17.5c-0.3,0-0.6,0-0.9-0.1c-2.9-0.3-5.2-2.6-5.6-5.5c-0.4-2.9,0.2-5.6,1.9-8c1-1.4,2.1-2.6,3.1-3.8
		c4.4-5.5,7.9-11.3,9.7-18.2c0-0.2,0.1-0.3,0.1-0.4c-0.1,0.2-0.2,0.3-0.3,0.4c-0.7,0.9-1.4,2-2.6,2.1c-2.2,0.2-4.2,1-6.4,1
		c-2.6-0.1-5.1-0.5-7.5-1.4c0.1,4.5-0.2,9-1.1,13.5c-1.5,7.9-5.4,14.7-12.2,19.3c-0.6,0.3-1.1,0.6-1.6,1c-2.6,2.3-5.5,4.1-8.9,5.1
		c-1,0.3-1.1,0.9-1.2,2c-0.2,3,0,5.8,0.9,8.6c0.5,1.6,0.2,3.3-0.3,5c-0.4,1.4-0.6,2.7-1.2,4.1c-1.1,3-0.3,5.5,1.8,7.8
		c2,2.3,4.1,4.6,6.5,6.6c0.4,0.3,0.8,0.6,1.2,1c2.1,2,2,4.3,0,6.4C521.7,414.7,520.3,415.2,519.1,415.9z"/>
	<path class="st4" d="M384.7,669c-1-3.7-1.8-7.5-2.2-11.3c-0.2-1.7-0.4-3.4-0.9-4.9c-1.8-6.3-4.2-12.4-8.5-17.6
		c-3.8-4.7-6.3-10-7.3-15.9c-1.4-7.9-3.9-15.6-6.5-23.3c-2.6-7.9-5.5-15.7-8.4-23.5c-0.7-1.8-1.5-3.4-3-4.9
		c-5.3-5.1-26.3-57.1-26.1-60.6c0.2-3-0.5-5.8-1.8-8.6c-1.4-3-2.8-5.9-4.3-8.8c0.2,1.2,0.5,2.3,0.7,3.5c0.7,3.1,1.4,6.3,1.1,9.5
		c-0.5,6,1,12,0.8,18c0,0.4,0,0.8,0.2,1.1c0.6,1.6,0.6,3.3,0.6,4.9c0,8.5,0,16.9,0,25.4c0,1-0.2,2.1,0.2,3c0.9,2.6,0.5,5.4,0.6,8
		c0.1,1.8-0.2,3.7,0.2,5.4c0.9,3.6,0.7,7.4,1.2,11c0.4,3.3,1.3,6.5,1,9.9c0,0.2,0.1,0.5,0.1,0.7c1,3,0.6,6.1,1.3,9.1
		c0.6,2.5,0.5,5.1,1,7.5c1.2,6.3,3,12.4,4.8,18.5c1.8,5.8,4,11.3,6.5,16.8c0.7,1.6,1,3.1,0.5,4.8c-0.6,1.8-0.5,3.5-0.1,5.3
		c0.2,0.7,0.4,1.5,0.4,2.2c0.1,3.5,0.8,6.8,1.9,10.1c1.9,5.7,4.3,11.1,7.5,16.2h45.9c-0.1-0.1-0.1-0.1-0.2-0.2
		C388.4,677.4,386,673.6,384.7,669z"/>
	<path class="st4" d="M779.9,249.6c-1.4-0.8-3-1.5-4.4-2.3c-2.4-1.3-5.1-1.9-7.7-1.9c-1.9,0-3.8-0.3-5.7-0.8
		c-0.4-0.1-0.8-0.2-1.1-0.3c-4.6-2-6.1-5.5-4.1-10.3c0.9-2,2.3-3.7,3.9-5.2c1.8-1.7,3.4-3.4,4.7-5.5c1.8-2.8,2.7-5.8,2.9-9.1
		c0.1-3.2,0.2-6.4-0.1-9.6c-0.2-4-1.6-7.8-3.3-11.3c-1.5-3.1-3-6.2-4.3-9.5c-0.7-1.9-1.5-3.9-1.4-5.9c0.1-4.3-0.9-8.4-0.9-12.6l0,0
		c-1.2-0.8-2.2-1.8-3.1-2.9c-0.3-0.4-0.6-0.8-0.8-1.2c-1.4-2.3-3.2-4.3-5.1-6.2c-1.5-1.5-3-3-4.4-4.8c-2.2-3-4.2-6.1-6.3-9.1
		c-1.4-1.9-3-3.5-4.7-5.1c-0.2-0.2-0.3-0.2-0.5-0.3v0.1c-0.4,2.6-0.1,5.1,0.4,7.6c1,4.4,1.5,8.8,2.4,13.2c1.4,7,3.9,13.6,6.5,20.1
		c0.9,2.3,2.3,4.3,4.1,5.9c3.7,3.3,5.8,7.5,7.1,12.1c0.8,2.8,1.8,5.6,2.6,8.4c0.6,1.8,0.7,3.5,0.6,5.3c-0.1,1.2-0.6,2.2-1.3,3.1
		c-1.4,1.8-3.5,2.1-5.5,1c-1.4-0.8-2.3-1.9-3.3-3.1c-1.7-2.1-3.3-4.3-5-6.3c-0.5-0.6-1-1.1-1.7-1.6c-0.2-0.2-0.8-0.2-0.9,0.3
		c-0.2,1-0.5,2-0.5,3c-0.3,9.1,0.4,17.9,3.5,26.5c1,2.9,2.2,5.8,3.9,8.3c2.5,3.8,5,7.5,7.5,11.2c0.8,1.1,1.7,2.2,2.7,3.3
		c1.9,2,4.2,3.2,7.1,3.2c2.3,0,4.7,0.2,6.9,0.6c4,0.6,6.1,2.5,6.9,6.4c2-1.7,3.8-3.7,5.5-5.6c1.8-2.1,3.6-4.3,4.4-7.1
		C784.8,251.6,782.4,250.8,779.9,249.6z"/>
	<path class="st4" d="M265.5,125.5c-0.9,0.7-1.7,1.6-2.5,2.4c-2.1,2.3-4.4,4.3-6.9,6c-3.8,2.7-7.4,5.9-10.7,9.2c-3,3-6,6.3-9.4,9.1
		c0.6,1.3,1.2,2.6,1.7,3.8c0.7,1.7,0.6,3.4,0.3,5.3c-0.8,4.6-2.6,8.8-4.3,13.1c-1.2,3-2.6,5.9-3.6,8.9c-2.6,7.4-3,15-2.5,22.7
		c0.2,2.2,0.8,4.5,1.2,6.7c0.6,3.5-0.1,6.6-2.9,9.1c-2,1.8-4.3,2.3-6.7,1.5c-2.9-0.9-5.2-2.5-7.1-5c-1.9-2.6-4.1-5.2-6.1-7.9
		c-0.2,0.2-0.3,0.4-0.4,0.6c-0.7,1.3-1,2.6-1.1,4.1c0,0.2,0,0.5,0,0.7c-0.1,4.3-0.3,8.4,0.5,12.7c0.1-0.1,0.1-0.2,0.2-0.2
		c0.8-0.9,1.8-0.9,2.8-0.5c2.6,1,5.1,2.6,7.1,4.5c1.2,1.1,2.3,2.4,3.4,3.7c2.2,2.7,5.1,4.7,8,6.5c0.1,0,0.1,0.1,0.2,0.1
		c0.9,0.6,1.8,0.6,2.7,0.1c0.3-0.2,0.6-0.3,1-0.5c1.2-0.6,2.4-1.1,3.4-1.9c5.8-4.2,10-9.5,12.2-16.4c1.1-3.7,2-7.5,2.9-11.1
		c0.2-0.6,0.2-1.3,0.3-1.9c0.2-1.6-0.5-2.7-1.9-3.4c-1-0.4-1.8-0.8-2.8-1.2c-2.2-0.8-3.7-2.3-4.7-4.3c-1.4-3-2.2-6.2-1.6-9.6
		c0.1-0.4,0.2-0.8,0.2-1.3c0.3-1.7,0.7-3.3,1.3-4.9c0.5-1.5,1-3,1.8-4.5c2.6-5.3,4.6-10.9,6.1-16.6c2.7-10.2,7.5-19.3,13.6-27.8
		c1.8-2.6,3.7-5.3,5.5-7.9c1.2-1.8,2.5-3.5,3.8-5.1C269,123.5,267.4,123.8,265.5,125.5z"/>
	<path class="st4" d="M512.9,130c0,2.2,0.8,4.3,1.3,6.3c0.7,2.9,2.4,4.2,4.7,4.3c-0.1-1.3,0-2.6,0-3.9c-0.3-6.8,1.8-13.2,3.8-19.4
		c1-3,2.8-5.8,5.1-7.9c3.8-3.6,8.5-4.6,13.6-3.5c3.6,0.7,5.4,3.5,4.6,7.1c-0.7,3.3-1.9,6.3-3.8,9.2c-1,1.4-1.8,3-2.8,4.4
		c4.5-3.2,8.7-6.7,13.2-9.9c4.7-3.2,8.4-7.5,10.4-13c1-2.6,1.6-5.3,0.3-8.2c-0.9-2-2.2-3.4-4.3-4.1c-1.7-0.6-3.4-0.9-5.2-1
		c-2.9-0.2-5.6,0.6-8.3,0.8c-3.3,0.2-6.3,1-9.2,2.2c-5.3,2.3-10.1,5.5-14.2,9.6c-3,3-5.4,6.5-7.2,10.3s-1.8,8.2-2.7,12.3
		c-0.1,0.5,0.2,1,0.2,1.5C512.7,128.3,512.9,129.1,512.9,130z"/>
	<path class="st4" d="M409.2,122.5c0.5,0.9,1.1,1.8,1.8,2.5c0.7,0.7,1.7,1.2,2.8,1c5.2-1,10,0.2,15.2,2.2c0.2-0.2,0.3-0.2,0.6-0.3
		c-0.2-1-0.2-1.8-0.2-2.6c0-0.9,0-1.8,0.2-2.6c0.5-2.8,2.8-3.8,5.1-2.1c0.5,0.3,1,0.7,1.4,1.1c-0.4-1.7-1.3-3-2.8-3.9
		c-1-0.6-1.5-1.3-1.8-2.3c-1.3-3.8-2.6-7.5-3.9-11.2c-1.4-3.7-2.7-7.5-5.1-10.7c-0.7-1-1.1-2.1-0.6-3.2c0.6-1.5,0.5-3,0.6-5
		c0.3-2.8-0.6-5.7-2.6-8.1c-1.4-1.8-3.1-2.8-4.9-3.2c-0.1,0.1-0.1,0.1-0.2,0.2c-1.7,2.3-3,4.7-4,7.5c-1.8,5.1-3.4,10.2-4.5,15.5
		c-0.9,4.2-1,8.4-0.8,12.6C405.7,114.2,407.2,118.5,409.2,122.5z"/>
	<path class="st4" d="M443.8,101.2c0.2,0.2,0.2,0.2,0.4,0.4c1.1-0.5,2.3-0.6,3.7-0.4c2.4,0.4,4.2,1.8,5.6,3.8
		c2.6,3.5,3.8,7.5,4,12.3c0.3,2.8-1.5,5.4-2.9,8c-0.4,0.9-1.1,1.4-2,1.5c1,1,2.2,1.8,3.5,2.6c3.6,2.2,6.3,1.7,9.3-1.4
		c1.6-1.6,2.5-3.5,3-5.7c1-4.1,2-8.2,1.5-12.7c0.6-4.3-0.6-8.4-2-12.6c-1.9-5.6-6.3-8.3-11.7-9.4c-4.5-0.9-8.6,0.5-11.7,4.2
		c-1.1,1.3-2.1,2.6-2.2,4.3C442.1,98.1,442.2,99.8,443.8,101.2z"/>
	<path class="st4" d="M372.2,440.1c0.1-2.4,0.6-4.7,1.2-7.1c0.2-0.8,0.4-1.5,0.6-2.3c-0.8-1.5-1.7-3-2.4-4.6
		c-0.9-1.7-2.2-2.3-3.8-2.9c-0.6-0.2-1,0-1.4,0.3c-0.5,0.5-0.8,1-1.2,1.4c-1.8,2-4.1,3-6.9,2.4c-1.3-0.2-2.6-0.3-3.8-0.3
		c-1.9,0-3.8-0.4-5.7-1c-0.1,0-0.2-0.1-0.2-0.1c1.4,1.2,2.7,2.4,3.9,3.7c1.2,1.2,3,1.6,4,2.9c1,1.4,0.4,3.4,0.9,5.2
		c0.8,3.1,2,6.2,2.6,9.4c1.7,1.5,3.2,3.2,4.5,5.1c0.3,0.5,0.6,1.2,1.7,0.9c0.1-0.6,0.2-1.4,0.4-2.1c0.9-2.6,1.8-5.3,1.4-8.3
		c-0.1-0.9,0.4-1.8,0.9-2.5C369.7,439.4,371.2,439.2,372.2,440.1z"/>
	<path class="st4" d="M659.9,356c0.7-3.4,1-6.8,1.8-10.2c0.8-3.6,1.8-7.2,4.2-10.2c0.5-0.6,0.7-1.5,1.5-1.5c1.3,0,1,1.3,1.4,2
		c0.6,0.9,1,1.8,1.4,2.7c0.7,1.7,1.3,3.3,1.4,5.1c0.2,5-0.3,9.9-1.5,14.8c-0.7,2.9-1.7,5.8-1.7,8.8c1.1-1.3,2.5-2.2,4.2-2.7
		c2.8,2.3,2.8,2.4,1.9,5.6c-0.5,1.8-1,3.4-1.4,5.2c-0.3,1.4-0.6,2.7-0.3,4.2c0.2,0.6,0.2,1.4,1,1.5c0.6,0.1,0.9-0.4,1.2-0.9
		c2.7-3.9,5.1-8,7.6-12c1.4-2.2,1.3-4-0.2-5.9c-0.5-0.6-1-1.2-1.4-1.8c-3.2-3.4-3.8-7.4-2.4-11.8c0.6-1.9,1.3-3.8,2-5.8
		c0.5-1.3,0.5-2.4,0.1-3.7c-1.4-4.3-2.7-8.6-4.1-12.8c-0.2-0.6-0.2-1.3-1-1.5c-1,1.4-2,2.9-3.1,4.3c-1.4,1.7-3.4,2.3-5.6,1.5
		c-2-0.7-3-2.4-3.1-4.5c-0.2-2.2-0.1-4.4,0.5-6.5c0.8-3,1.8-5.9,2.7-8.8c1.3-4,2.5-8.1,3.8-12.1c1.2-3.7,1.2-7.1-0.3-10.8
		c-2.6-6.1-3.6-12.6-4.3-19.2c-0.4,0.2-0.7,0.6-1,1c-1.1,1.5-2.4,3-3.3,4.7c-3.3,5.9-7,11.6-10.6,17.3c-3.1,5-7.6,8.6-12.1,12.2
		c-0.2,0.2-0.7,0.2-1.1,0.2c-0.1,0.1-0.2,0.2-0.3,0.3c0-0.1,0-0.2,0.1-0.2s0.2-0.1,0.2-0.2c-0.1-0.9,0-1.8,0.2-2.6
		c0.2-0.5,0.3-1,0.6-1.5c1.4-3.3,1.8-6.7,1.6-10.1c-0.1-2,0-4.1-0.1-6.2c0-0.9,0-1.8-0.2-2.6c-0.9-3.8-1.5-7.8-1.4-11.7
		c0-0.7-0.2-1.5-0.4-2.2c-0.1-0.6-0.4-1.3-0.2-1.8c0.6-2.5,0.5-5.1,1-7.5c1-5.5,2.5-10.9,2.8-16.5c0.1-1,0.5-1.7,1.2-2.3
		c1.8-1.7,3.3-3.6,4.7-5.5c1.6-2.2,3.2-4.5,4.5-6.9c-1,0.9-2,1.7-2.6,2.2c-1.9,1.7-4.1,3.1-6.6,3.9c-2,0.6-3.3,1.8-4.3,3.6
		c-2.3,3.8-5.1,7.4-8.3,10.6c-2.1,2.1-4.1,4.3-6.3,6.3c-3.7,3.4-6.3,7.4-7.8,12.2c-0.8,2.7-2,5.3-3.4,7.8c-0.4,0.8-0.9,1.6-1.4,2.2
		c-1.5,2.1-4.1,2.2-5.9,0.3c-0.2-0.2-0.3-0.4-0.5-0.6c-0.2,0.4-0.5,0.8-0.8,1.2c-2.3,3.4-3.6,7.1-2.2,11.2c0.2,0.5,0.2,1,0.2,1.5
		c0,4.5,0.1,9-0.1,13.5c-0.1,1.8-0.3,3.8-1.5,5.5c-2.5,3.4-5,6.8-7.2,10.4c-0.6,1-1.4,1.8-2.1,2.7c-2.6,3.1-4.2,6.7-3.8,10.9
		c0.2,1.9,0.8,3.4,2,4.9c2.5,3,5.9,4.3,9.3,5.9c0.4,0.2,1.1,0.2,1.4-0.1c1-0.6,2.3-0.6,3.1-1.1c-0.1-1-0.1-2.2,0.1-3.3l0,0
		c0-0.2,0-0.2,0.1-0.4c0.1-0.2,0.1-0.6,0.2-0.8l0,0c0.4-2.2,1.1-4.3,2-6.2v-0.1c0.2-0.5,0.4-0.9,0.6-1.4c0-0.1,0.1-0.2,0.2-0.2
		c0.2-0.4,0.4-0.8,0.6-1.2c0.1-0.2,0.2-0.3,0.3-0.6c0.2-0.3,0.3-0.6,0.6-0.9c0.3-0.5,0.6-1,1-1.4c1.1-1.6,2.2-3.1,3.3-4.7
		c0.2-0.3,0.4-0.7,0.6-1c1.8-3.2,3.1-6.7,3.2-10.5c0.2-6.9-1.8-15.3-5-21.9c-1-2.1,0.1-4.3,2.4-4.6c0.9-0.2,1.8,0,2.6,0.3
		c1.5,0.6,2.7,1.4,3.6,2.7c1.1,1.4,2.2,2.9,3.2,4.3c1.4,1.9,3.3,3.6,3.1,6.3c0,0.3,0.2,0.7,0.4,1c0.9,1.8,1.8,3.8,2.8,5.5
		c3,5,4,10.3,2.2,15.9c-0.6,1.8-0.6,3.5-0.6,5.3c0.1,2.7,1.1,5,3.2,6.7c1.4,1.1,2.8,2.2,4.3,3.2c2.9,1.9,5.2,4.5,7.3,7.3
		c4.5,6.3,3.8,12.8-1,19.2c-3.4,4.7-8.3,7.6-14.3,8.3c-3.3,0.4-6.2,1.6-8.5,3.9c-1.1,1-2.2,2.1-3.4,3.1c-2.3,2.2-2.7,5.1-2.3,8.2
		c0.1,0.5,0.3,1,0.4,1.4c1,4,1.7,8,0.6,12.2c-0.2,0.5,0,1,0.5,1.4c1.8-0.3,3.4-0.7,5.3-0.5c2.6,0.3,5,1.4,6.7,3.4
		c0.4,0.5,0.7,1,1,1.6c0.6-0.8,1.4-1.4,2.3-2c2.9-1.8,5.1-4.2,7.1-6.9c3.2-4.3,6.2-8.7,9.1-13.3c1.4-2.2,2.7-4.3,3.8-6.7
		c1.6-3.4,3-6.8,4.3-10.3C658.5,361.8,659.2,358.9,659.9,356z"/>
</g>
<g>
	<g>
		<path class="st5" d="M602,25.3L602,25.3L602,25.3z"/>
		<path class="st5" d="M325,406.1c-2.3-5.5-4.3-11-5.7-16.8c-0.6-2.5-1.1-5-1.6-7.5c-0.6-2.9-1.9-5.5-3.6-8c-1.1-1.7-2.4-1.8-3.5,0
			c-0.6,0.9-1,1.8-1.1,2.8c-0.3,1.6-0.6,3.3-0.5,5c0.6,9.9,2.6,19.5,6.3,28.8c0.9,2.3,2.2,4.3,4,6.1c4,4.2,8.5,7.9,13.4,10.8
			c3.4,2.1,6.8,4.1,10.3,6.1c4,2.4,7.7,5.1,10.7,8.7c0.8,1,1.8,1.8,2.9,2.6c1.2,0.9,2.3,1.8,3.4,2.7c-0.5-3.2-1.8-6.3-2.6-9.4
			c-0.5-1.8,0.2-3.8-0.9-5.2c-1-1.4-2.8-1.7-4-2.9c-1.3-1.3-2.6-2.5-3.9-3.7c-10.1-3.1-17.2-10-22.8-18.7
			C325.4,407.1,325.3,406.6,325,406.1z"/>
		<path class="st5" d="M668.3,367.8c0-3,1-5.9,1.7-8.8c1.2-4.9,1.7-9.8,1.5-14.8c-0.1-1.8-0.6-3.5-1.4-5.1c-0.4-1-0.8-1.8-1.4-2.7
			c-0.4-0.7-0.2-2-1.4-2c-0.8,0-1,1-1.5,1.5c-2.4,3-3.4,6.6-4.2,10.2c-0.7,3.4-1.1,6.8-1.8,10.2c-0.6,2.9-1.4,5.7-2.4,8.5
			c-1.3,3.4-2.7,6.9-4.3,10.3c-1,2.3-2.4,4.6-3.8,6.7c-2.9,4.5-5.9,9-9.1,13.3c-2,2.7-4.3,5.1-7.1,6.9c-0.9,0.6-1.7,1.2-2.3,2
			c0.7,1.7,0.7,3.4-0.1,5.3c-1.1,2.5-3.3,3.4-5.9,3.4c-0.5,0-1-0.1-1.5-0.2c-2.1-0.5-3.8,0.3-5.3,1.7c-2.2,2.1-4.2,4.5-6.1,7
			c-1.4,1.9-2.2,4-2.5,6.3c-0.9,7.4-2.3,14.7-4.6,21.8c-3.1,10.2-8.6,18.8-16.6,25.8c-3.8,3.4-7.9,6.5-12,9.7
			c-3.5,2.9-7.3,5.2-11.5,6.9c-2.2,0.8-4.1,2.2-5.8,3.8c-1.4,1.3-3.2,2.2-4.3,3.8c-1.2,1.7-0.7,4-1.1,6c-1.6,8.7-4.3,16.8-8.2,24.8
			c-0.4,0.9-1.1,1.7-1,2.9c0.6-0.2,1-0.2,1.2-0.5c0.9-0.6,1.8-1,2.6-1.7c6.1-5.1,12.4-9.9,17.1-16.5c5.3-7.5,11.5-14.1,18.3-20.2
			c7.1-6.4,13.8-13,20.7-19.6c2.4-2.3,4.6-4.8,6.3-7.7c3-4.8,5.9-9.6,9-14.4c1.8-2.6,2.6-5.2,2.2-8.3c-0.3-2.7,0-5.4,0.4-8
			c0.2-1.1,0.5-2.2,1-3.3c1.4-2.2,3.7-2.8,5.9-1.4c1.5,0.9,2.5,2.2,3.2,3.8c0.7,1.5,1.1,3.1,1.4,4.8c0.3,2,0.6,4.1,1,6.1
			c0.2,1,0.7,1.3,1.6,0.7c8.1-4.8,15.3-10.7,20.9-18.4c5.2-7.1,8.5-14.8,8.9-23.7c0.1-1.8-0.1-3.5-1.1-5.1c-1.1-1.8-1.8-3.7-2-5.8
			c-0.3-2.3-0.6-4.6-1-6.8c-1.2-6.6,1.1-12.1,4.8-17.2C667.6,368.6,667.9,368.2,668.3,367.8z M656.7,411.6c-1.4,4.1-3.4,7.9-6,11.5
			c-1.3,1.8-2.8,3.3-4.5,4.7c-0.5,0.4-1,0.7-1.4,1c-0.2,0.1-0.4,0.2-0.6,0.3c-0.3,0.2-0.7,0.3-1,0.4c-0.2,0.1-0.6,0.2-0.9,0.2
			c-0.4,0.1-0.8,0.2-1.2,0.2c-0.1,0-0.2,0-0.3,0c-0.4,0-0.8,0.1-1.3,0.1c-1.8,0.1-3.4-0.2-4.7-1.1c-0.8-0.6-1.4-1.4-1.9-2.4
			c-0.6-1.2-0.7-2.5,0-3.6c1-1.5,1.8-3.1,3-4.4c2.2-2.3,3.9-5,5.6-7.7c2-3.2,3.8-6.7,6.7-9.3c1-0.9,1.4-2.1,2-3.3
			c0.6-1.3,1.4-2.4,2.4-3.4c2-1.8,4.9-0.6,5,1.5c0.2,2.3,0.8,4.5,1,6.8C658.6,406.1,657.6,408.9,656.7,411.6z"/>
		<path class="st5" d="M331.4,331c-0.3-0.5-0.6-1-0.8-1.4c-1,7.1-1.8,14.2-3.1,21.2c-0.5,2.3-0.5,4.7,0.5,6.8
			c1.8,4.3,3.9,8.4,7.1,11.9c2.1,2.2,4.3,4.4,6.4,6.6c0.6,0.6,1,1.8,2.1,1.2c0.7-0.4,0.4-1.4,0.4-2.1c0-4.1,0.8-7.9,2.2-11.4
			c-0.7-3.8-1-7.8-0.9-11.7c0.1-1.8,0.1-2.7,0-3.4c-0.7-0.1-1.4-0.3-2-0.7c-1.4-0.8-2.3-1.8-2.8-3.1c-1.4-0.8-2.8-1.6-4.2-2.4
			c-2-1.2-3.7-2.7-4.3-5.1c-0.3-1.1-0.6-2.2-0.1-3.4C332.3,332.8,332,332,331.4,331z"/>
		<path class="st5" d="M723.6,576.4c0.2-0.7,0.2-1.5,0.2-2.2c0-1.1,0.5-1.9,1.4-2.6c1.9-1.6,3.7-1.4,5.3,0.5
			c1.5,1.8,2.2,4.1,2.5,6.3c0.6,3.9,1.5,7.8,2.6,11.5c0.7,2.7,1.7,5.4,3,7.9c0,0.1,0.1,0.1,0.1,0.2l1.8-0.6l1.4-0.5
			c0.2-0.1,0.3-0.1,0.5-0.2c-0.5-5.6-1-11.1-1.8-16.8c-1-6.3-1.3-12.8-3.1-18.9c-2.1-7.1-3.1-14.3-3.9-21.6c-0.5-3.9-0.6-7.9-1-11.9
			c-0.9-7.6-1.8-15.3-2.2-22.9c-0.3-4.9-0.4-9.8-0.2-14.8c-1.1,2.1-2.2,4.1-3.5,6c-1.6,2.4-2.8,5.1-3.7,8
			c-2.2,6.7-4.7,13.2-7.1,19.9c-1.4,3.8-2.5,7.8-3.6,11.7c-1.6,5.5-1.2,16.8-1.5,19.1c-0.6,3.9-1.1,7.8-2.1,11.6
			c-1,4.2-0.7,8.4-0.6,12.6c0.2,3.7,0.8,7.3,1.2,11c0,0.2,0.2,0.5,0.2,0.7c0.4,6.7,1.2,13.6,1,20.3c2.7-1.6,5.5-3.2,8.3-4.7
			c0-0.2,0-0.3,0-0.5c0-5,1.1-9.9,1.9-14.8C721.1,585.9,722.3,581.1,723.6,576.4z"/>
		<path class="st5" d="M387.8,459.3c-0.1-2.9-0.6-5.6-2.2-8c-0.5-0.7-1-1.4-1-2.4c0-1.5-0.9-2.6-1.8-3.7c-2-2.3-3.6-5-5.1-7.7
			c-1.2-2.2-2.4-4.4-3.7-6.6c-0.2,0.8-0.4,1.5-0.6,2.3c-0.6,2.3-1,4.7-1.2,7.1c0.2,0.2,0.2,0.3,0.4,0.5c1.7,2.5,2.7,5.2,3.4,8.1
			c1,4.7,1.4,9.4,1.8,14.1c0.5,5.5,1,11,1.6,16.4c0.5,3.7,1,7.4,2.2,10.9c0.5,1.5,1.1,2.8,2.3,3.8c6.7,5.6,12.6,12,18.8,18.2
			c3.6,3.6,7.4,7.1,11.1,10.7c0.1,0.1,0.2,0.1,0.7,0.2c-0.1-0.6-0.1-1-0.2-1.4c-1.2-4.3-1.9-8.5-2.2-12.8c-0.1-2.2-0.2-4.3-0.5-6.5
			c-0.2-1.4-1-2.1-2.3-2c-1.4,0.2-2.8,0.3-4.2-0.2c-3.6-1.1-6.9-2.8-9.5-5.5c-2.8-2.9-4.9-6.3-6.3-10c-1.9-5.1-2.6-10.4-2-15.9
			C387.7,465.7,387.9,462.5,387.8,459.3z"/>
		<path class="st5" d="M676.5,413.3c3.4-3.3,7.1-6.3,10.7-9.3c3.9-3.3,7.7-6.7,11.5-10.2c1.1-1,2.2-2.1,2.7-3.6
			c1.3-3.4,2.7-6.9,4-10.4c0.2-0.7,0.7-1.5,0.3-2.6c-2,2.6-3.8,5.1-5.7,7.5c-1.3,1.6-2.6,3.2-4.3,4.4c-2.7,1.9-5.5,3.8-8.4,5.5
			c-3.5,1.8-6.9,3.9-10.4,5.9c-0.8,0.5-1.4,1-1.4,2.1c-0.3,4.2-0.9,8.3-1.9,12.5C675.2,415,675.8,414,676.5,413.3z"/>
		<path class="st5" d="M435.6,394.5c-2.6-2.4-5.1-5-7.6-7.5c-2.2-2.3-5-4.1-7.9-5.2c-2.2-0.8-4.2-1.9-6.3-2.9
			c-0.8-0.3-1.5-0.9-2.2-1.4c0,0.1-0.1,0.2-0.1,0.2c-1.3,3.4-3.6,5.9-6.1,8.3c-0.6,0.6-1.3,0.9-2,1c-3.7,0.5-7.4,0.9-9.9,1.2
			c-5.5-0.1-9-2.8-10.6-6.3c-1.4,2.7-2.1,5.7-2.2,8.7c0.3,2.8,0.4,5.7,0.3,8.6c-0.1,4.3-0.2,8.5-0.1,12.7c0,0.1,0,0.2,0,0.2
			c0.1-0.2,0.3-0.5,0.6-0.7c0.2-0.2,0.5-0.2,0.7-0.2s0.6,0.2,0.6,0.4c0.4,3.4,2.1,6.3,3.3,9.4c0.2,0.6,0.5,1.1,0.8,1.8
			c0.5,1,1,1.9,1.7,2.7c0-0.2,0-0.5,0-0.7c0.2-4.6,4.3-7.1,8.4-5.2c2.1,1,3.5,2.5,4.6,4.5c0.5,0.9,0.9,1.9,1,2.9
			c0.2,2.5,1.7,3.6,3.6,4.5c0.2-2.4,1.6-4.3,3.4-5.9c1-0.9,2-1.9,3-3c2.2-2.3,4.7-3.8,7.8-4.7c3.4-1,6.4-2.5,9.3-4.4
			c2.2-1.5,4.2-3.4,5.9-5.5c1.3-1.5,2.2-3.4,2.2-5.6c0-0.4-0.1-0.8,0.1-1.1C439.2,398.1,437.6,396.3,435.6,394.5z M422.5,401.8
			c-1.2,3.2-3.4,5.4-6.6,6.5c-2.4,0.8-5,1.1-7.5,1.7c-1.8,0.4-3.7,0.7-5.7,0.8c-2.2,0-3.9-0.9-5.7-1.9c-1-0.6-1.8-1.5-2.1-2.6
			c-1.4-4.2-0.4-8.1,3.6-10.2c1.7-0.9,3.5-1.5,5.5-1.4c2.1,0,4.1,0,6.2,0c1.9,0,3.8,0,5.8,0c0.8,0,1.6-0.2,2.2,0.2
			c1.2,0.6,3.2,0.1,3.7,1.5C422.5,398,423.4,399.8,422.5,401.8z"/>
		<path class="st5" d="M672.4,183.8c0.9,0.1,1.4,0.6,1.4,1.5c0.2,3.8,1.3,7.5,0.8,11c0.1,2.1,0,4-0.2,5.9c1.9-4.9,3.8-9.7,5.7-14.6
			c1.4-3.7,2.6-7.5,3.6-11.4c0.4-1.7,0.4-3.2,0-4.9c-1.8-7.6-5.6-14.3-9.5-20.9c-0.1-0.1-0.2-0.2-0.2-0.3c-0.5-0.5-1-0.3-1.3,0.2
			c-0.4,0.5-0.7,1-1,1.6c-3.5,5.9-5.9,12.3-7.4,18.9c-1.1,5.1-1.5,10.1-1.7,15.2c-0.1,3.4-0.4,6.9-1.4,10.3c-0.5,1.5-1,2.9-2.2,3.9
			c-0.7,0.6-1.4,1-2.1,1.4c0.1,2.3,0.1,4.7,0.1,7.1c0.1,4.3-0.8,8.3-2.2,12.3c0.6,0.8,0.6,1.8,0.1,2.9c-0.4,0.8-1.6,1.9-2.8,3
			c-1.4,2.4-2.9,4.7-4.5,6.9c-1.4,1.9-3,3.8-4.7,5.5c-0.6,0.6-1.1,1.4-1.2,2.3c-0.3,5.6-1.8,11.1-2.8,16.5c-0.5,2.5-0.3,5.1-1,7.5
			c-0.2,0.6,0.2,1.3,0.2,1.8c0.2,0.7,0.4,1.5,0.4,2.2c-0.2,4,0.6,7.9,1.4,11.7c0.2,0.9,0.2,1.8,0.2,2.6c0,2.1-0.1,4.1,0.1,6.2
			c0.2,3.5-0.2,6.9-1.6,10.1c-0.2,0.5-0.4,1-0.6,1.5c-0.2,0.8-0.3,1.7-0.2,2.6c-0.1,0-0.2,0.1-0.2,0.2c-0.1,0,0,0.2-0.1,0.2
			c0.1-0.1,0.2-0.2,0.3-0.3c0.4-0.1,0.8-0.1,1.1-0.2c4.5-3.6,8.9-7.1,12.1-12.2c3.6-5.7,7.3-11.4,10.6-17.3c0.9-1.7,2.2-3.1,3.3-4.7
			c0.3-0.4,0.6-0.7,1-1c0-0.1,0-0.2,0-0.3c-0.9-8.9-0.8-17.7-0.4-26.6c-0.2,0.2-0.2,0.5-0.4,0.8c-1.8,3.1-3.5,6.3-5.4,9.3
			c-1.4,2.3-2.8,4.6-4.3,6.8c-0.6,0.9-1.2,1.7-1.9,2.3c-1.2,1-2.5,1-3.8,0c-1.8-1.4-2.4-3.4-2.6-5.4c-0.3-3.6,0-7.1,1.7-10.4
			c1.5-3,2.6-6.1,3.8-9.2c1.8-4.1,3.5-8.2,5.4-12.3c2.8-6.2,4.9-12.6,6.7-19.2c0.3-1.1,0.6-2.2,1-3.3c0.8-2.6,1.4-5.1,1.3-7.9
			c-0.1-3,0.8-5.8,2.2-8.4C669.9,184,670.9,183.6,672.4,183.8z"/>
		<path class="st5" d="M336.8,654.5c0-0.7-0.2-1.5-0.4-2.2c-0.5-1.8-0.6-3.5,0.1-5.3c0.6-1.7,0.2-3.2-0.5-4.8
			c-2.5-5.5-4.7-11-6.5-16.8c-1.8-6.1-3.6-12.3-4.8-18.5c-0.5-2.5-0.4-5.1-1-7.5c-0.6-3-0.3-6.1-1.3-9.1c-0.1-0.2-0.2-0.5-0.1-0.7
			c0.3-3.4-0.6-6.7-1-9.9c-0.5-3.7-0.3-7.4-1.2-11c-0.4-1.7-0.2-3.6-0.2-5.4c-0.1-2.6,0.2-5.4-0.6-8c-0.3-1-0.2-2-0.2-3
			c0-8.5,0-16.9,0-25.4c0-1.7,0.2-3.4-0.6-4.9c-0.2-0.3-0.2-0.7-0.2-1.1c0.2-6-1.3-12-0.8-18c0.2-3.2-0.5-6.3-1.1-9.5
			c-0.2-1.1-0.5-2.3-0.7-3.5c-1.9-3.8-3.9-7.7-5.9-11.5c-0.2-0.4-0.5-0.9-1.3-0.9c-0.2,0.6-0.5,1.1-0.6,1.8c-1,4.8-2.5,9.5-3.8,14.1
			c-0.9,3-1.8,5.9-2.4,8.9c-4,18.3-8.1,36.6-12,54.9c-2.3,10.9-3.9,22-4.6,33.1c-0.2,3.6-0.4,7.2-0.9,10.7c-0.8,5.6-2.2,11-4.3,16.2
			l0.4,0.2l0.6,0.5l2.4,1.8c0.4,0.3,0.8,0.6,1.2,1l0.6,0.6c0.3-1.3,0.6-2.6,1-3.9c1.8-7.1,2.5-14.3,4.3-21.3c1.2-4.9,2.2-9.9,2.8-15
			c0.6-5.9,1.9-11.8,2.8-17.7c0.5-3.3,0.9-6.6,1.7-9.8c0.2-0.7,0.3-1.5,0.6-2.2c2-4.7,2.8-9.8,4-14.8c0.6-2.2,1.2-4.4,1.8-6.7
			c0.2-0.6,0.5-1.2,0.9-1.7c1-1.4,3-1.3,3.7,0.3c0.2,0.3,0.4,0.7,0.4,1c0,2.7,1,5.2,1,7.9c-0.1,4.1,0.1,8.1,0.6,12.3
			c0.6,4.6,0.2,9.2,0.2,13.8c0,1.7,0,3.3,0.5,5c0.3,1.2,0.2,2.6,0.2,3.8c0,9.5,0,19,0.1,28.5c0,1.5,0,3,0.5,4.6c0.3,1,0.2,2,0.2,3
			c0,3.6,0,7.1,0.1,10.7c0,1.9-0.1,3.8,0.6,5.7c0.3,0.8,0.2,1.8,0.2,2.6c0.1,3.2-0.2,6.4,0.7,9.5c0.2,0.8,0.1,1.8,0.1,2.6
			c0,1.7-0.1,3.4,0.6,4.9c0.2,0.5,0.2,1,0.2,1.5c0,2.8,0.4,5.6,0.9,8.3c0.9,1.2,1.7,2.4,2.6,3.6c0.1,0.1,0.1,0.2,0.2,0.2
			c0.7,1,1.4,1.9,2.1,2.9c0.2,0.3,0.4,0.7,0.6,1c0.6,1,1.3,1.8,1.9,2.8c2.2,3.3,4.5,6.6,6.9,9.7c0.2,0.3,0.6,0.7,0.8,1l0.1,0.1
			c0.6,0.6,1.3,1.2,1.9,1.8c1.1,1,2.2,1.8,3.5,2.7c0.2,0.2,0.5,0.3,0.8,0.5h9.5c-3.1-5.1-5.5-10.5-7.5-16.2
			C337.6,661.3,336.9,657.9,336.8,654.5z"/>
		<path class="st5" d="M190,238.1c2.1,3.6,3.2,7.5,3.8,11.6c0.6,4.3,1.4,8.6,2.2,12.9c0.6,3.3,1.6,6.5,3.1,9.5
			c2.6,4.9,5.7,9.5,9.5,13.5c2.4,2.5,4.9,4.9,7.4,7.3c9.5,8.9,19.6,16.9,30.2,24.3c9.1,6.3,17,14,25.1,21.5c4.5,4.1,9,8,13.8,11.7
			c2.6,1.9,5.4,3.5,8.3,4.7c2,0.8,4.1,1.6,5.8,3c0.2,0.2,0.4,0.3,0.6,0.4c2,1.1,2.9,1,4.3-0.8c1.3-1.6,2.2-3.4,3.1-5.3
			c4.7-9.1,7.7-18.7,9.4-28.8c0.4-2.4,0.6-4.8,0.7-7.3c0.2-10.2-0.5-20.3-1-30.4c-0.2-2.6-0.5-5.4-1-8c-0.6-3.3-1.4-6.5-1.9-9.8
			c-2.6-14.9-5.9-29.7-9.1-44.4c-1-5.1-1.8-10.1-1.8-15.2c0-8.6-0.1-17.2,0.9-25.7c0.6-5.7,1-11.5,2.6-17.1
			c3-10.4,6.9-20.5,12.8-29.5c4.7-7.2,7.4-15.2,9.1-23.5c1.1-5.3,2.6-10.4,4.6-15.5c3.9-10.4,10.6-18.6,19.8-24.8
			c0-0.1,0-0.1-0.1-0.1l0,0c0.1,0,0.2,0,0.2,0.1c0.1,0,0.2,0,0.2,0c0.1,0,0.1,0.1,0.2,0.2c-0.1,0-0.2-0.1-0.3-0.1
			c-0.1,0-0.1,0-0.2,0l0,0c0.2,0.5,0.1,0.9-0.2,1.3c-0.9,1-1.8,2.2-2.7,3.2c-2.3,2.6-3.8,5.8-5.2,9c-0.4,0.9-0.4,1.7,0.2,2.5
			c1.6,2.1,2.1,4.7,2.3,7.2c0.3,3,0.1,5.9-0.5,8.8c-1.2,5.9-2.8,11.5-7.1,16c-0.7,0.7-1.3,1.6-1.8,2.5c-2.8,5.6-5.5,11.3-7.1,17.4
			c-1.4,5.4-1.8,10.9-1.1,16.4c0.5,4.7,0.6,9.2-0.5,13.8c-1,3.8-2.5,7.3-4.3,10.7c-0.7,1.4-1.6,2.9-1.9,4.6
			c-1.1,6.4-2.3,12.8-3.6,19.2c-1,5-1.5,9.9-1.4,14.8c3.1-4.3,6.2-8.7,10.2-12.3c0.7-0.6,1.5-1.4,2.3-2c1.5-1,2.6-2.4,3.6-3.9
			c1.7-2.4,2.2-5.1,2.6-7.9c0.2-2.2,0.8-4.3,1.4-6.3c0.9-3,2-5.8,3.3-8.6c0.1-1.6-0.2-3.2-0.5-4.8c-1.1-5.7-0.9-11.5,0.2-17.2
			c0.6-3.4,1.5-6.7,2.9-9.9c0.7-1.7,1.1-3.4,1.2-5.2c0.3-4.9,1.4-9.6,2.9-14.3c0.5-1.5,0.7-2.9,0.5-4.5c-0.4-2.6-0.2-5.4,0.5-8
			c1.3-5.9,3.8-11.1,7.3-16c2-2.7,4.5-5,7.4-6.7c2.1-1.3,3.4-3,4.3-5.3c0.4-1.2,1-2.4,1.4-3.5c2-5.1,5.3-9.1,9.7-12.1
			c10.9-7.6,23-12.3,36.2-14.2c3.1-0.5,6.3-0.6,9.4-1.9c0.9-0.4,2-0.3,3-0.3c1.4,0,2.2,0.6,2.4,1.5c0.2,1-0.2,1.8-1,2.3
			c-2.5,1.8-4.3,4.3-6.5,6.5c-2.8,2.9-5.6,5.8-8,9c1.8,0.4,3.5,1.4,4.9,3.2c2,2.5,3,5.4,2.6,8.1c-0.1,2,0.1,3.5-0.6,5
			c-0.5,1.1-0.1,2.2,0.6,3.2c2.3,3.3,3.7,7,5.1,10.7s2.7,7.5,3.9,11.2c0.3,1,0.9,1.8,1.8,2.3c1.5,0.9,2.3,2.3,2.8,3.9
			c1.4,1.2,2.6,2.6,3.4,4.3c1,2.1,1.8,4.3,2.2,6.5c0.6,3.9,1,7.9,1.7,11.8c1.4,7.6,0.3,15.1-1,22.5c-0.2,1.7-0.6,3.4-1,5
			c0.2,0.2,0.2,0.3,0.4,0.5c1,1.3,1.4,2.7,1.2,4.3c-0.2,3,0.2,5.9,0.8,8.7c0.2,1.2,0.6,2.3,1.4,3.2c0.4,0.6,1,1,1.7,1.4l0,0
			c0.6-0.7,1.3-1.4,1.8-2.2s1-1.7,1.4-2.5c1.7-3.4,1.9-6.9,1.1-10.4c-0.4-1.7-0.6-3.3,0.6-4.7c0.3-0.4,0.3-1,0.2-1.4
			c-0.9-3.9-0.6-7.9-0.3-11.9c0.2-3.4,1.3-6.8,3-9.8c1.4-2.6,3.8-4.3,6.5-5.1c2.2-0.6,4.3,0.2,5.9,1.8c2.1,2,2.7,4.6,2.9,7.3
			c0.1,1.8-0.1,3.5,0.1,5.7c1.8-1,2.9-2.2,3.8-3.6c1.8-2.8,3.4-5.7,5.4-8.4c3.3-4.6,7.5-7.9,13-9.7c1.7-0.6,3-0.2,4.3,0.6
			c3,2.2,5.2,5,5,9c-0.3,4.7,1,9.1,1,13.7c0,2.8,1.4,5.5,4.7,6.3c2.1,0.5,3.6,1.8,4.9,3.4c1,1.2,1.3,1.2,2.4,0.1
			c1.7-1.6,3.4-3.2,4.9-4.9c1.5-1.6,3.3-2.8,5.1-4.1c2.1-1.6,4.3-1.7,6-0.4c0.6,0.4,1,0.9,1,1.5c0.1,2,0.4,4.1-0.4,6.1
			c-0.9,2.2-1.7,4.6-2.6,6.7c-1,2.3-1.5,4.9-2.2,7.4c-0.2,0.6,0.1,1.3,0.1,1.9l0,0c-0.2,2.3-0.8,4.5-2,6.5c1.2-2,1.8-4.2,2-6.5
			c1.1-0.2,1.8-0.9,2.4-1.7c0.1-0.1,0.2-0.2,0.2-0.4c1.5-2.4,3.7-4.3,6-5.8c1.7-1.1,3.4-2.3,5-3.5c1.1-0.9,1.9-2,2.7-3.2
			c1.1-1.8,2.5-3.6,4.1-5.1c0.8-0.7,1.6-1.3,2.6-1.7c0.2-0.1,0.6-0.2,0.9-0.1c0.7-4.9,1.7-9.8,2.5-14.8c1-5.5,4-9.6,8.2-13.1
			c4.1-3.4,8.7-5.9,14-6.7c5.3-0.9,10.6-1.9,16-1.8c1.3,0,2.6-0.2,3.8-0.3c2.2-0.2,4.3,0.2,6.2,1.6c0.8,0.6,1.5,1.3,2.7,1.1
			c0.6-0.1,1.2,0.5,1.5,1c0.4,0.6,0.9,1.3,1,2c1,3.5,1.7,7.1,1.7,10.6c0.2,0,0.2,0,0.4,0c1.6,0.1,3-0.3,4.4-1
			c4.5-2.2,9-4.3,12.8-7.6c0.9-0.8,1.8-1.5,2.7-2.3c1.4-1.4,2.8-2.8,3.9-4.5l0,0c-2.2,0.1-4.3,1-6.5,1.7c-0.3,0.1-0.6,0.2-1,0.2
			c-2.2,0.5-4.3,0.3-6.5,0.3c-0.6,0-1.2-0.3-1.8-0.6c-1.4-0.5-2-1.5-2-3c0-1,0.2-2,0.6-3c1.4-2.8,1.9-5.8,2.6-8.8
			c0.5-2.5,1.4-4.9,2-7.4c0.3-1.4-0.4-2.1-1.6-1.7c-3.1,1.1-6.3,2.2-9.3,3.4c-3.9,1.6-7.7,3.4-11.6,5c-3.4,1.4-6.7,2.3-10.4,2.1
			c-1-0.1-2-0.2-3-0.4c-2.5-0.6-5.1-0.6-7.6,0.1c-1,0.3-2,0.4-3,0.3c-3.3-0.3-5.5-3-5.4-6.3c0.2-3.2,1.6-6,3.6-8.3
			c2.4-2.8,4.9-5.6,8.1-7.6c1.1-0.7,2.2-1.3,3.4-1.7c0.9-0.2,1.7-0.6,2.4-1.1c3.3-2.2,6.9-3.8,10.7-5.1c1-0.3,1.8-0.6,3.4-1.3
			c-0.7-0.4-1-0.6-1.4-0.8c-5.5-1.8-11-3.4-16.8-3.4c-2.2,0-4.6-0.6-6.8-0.6c-2.3-0.2-4.7,0.2-6.9-0.2c-4-0.6-7.9-1.8-12-2.5
			c-2.9-0.6-5.7-1.4-8.7-1.2c-3.4,0.3-6.8,0.8-10.2,1.3c-2.2,0.3-4.3,0.5-6.4,0.9c-5.8,1.1-11.5,2.3-17,4.6c-1.7,0.7-2.9,1.7-3.8,3
			c-1,1.5-1.9,3-2.7,4.7c-1.6,3.1-3.9,5.7-6.4,8c-0.5,0.4-1,1-1.5,1.2c-2.2,0.8-4,2.1-5.9,3.4c-3.8,2.5-8.5,1.8-11.7-1.1
			c-4.5-4.2-7.9-9-8-15.6c0-2.6-1-4.7-3.5-5.9c-1.7-0.9-3.2-2.1-5-3c-1.8-1-3.8-1.6-5.9-1.6c-1.3,0.1-2.6-0.1-3.8-0.5
			c-1.6-0.6-3.3-0.3-5-0.2c-6.3,0.2-11.8-6.7-9.4-13c1.5-4,4.1-7.1,7.3-9.7c2.7-2.2,5.9-3.8,9.1-4.9c3-1,6.2-1.5,9.4-1.7
			c1.5-0.1,3,0,4.7,0c1.8,0,3.5-0.2,5.3-0.6c4.3-1.1,8.7-2,13.2-1.8c5.2-1.2,10.4-0.6,15.6-0.7c1.5,0,3-0.1,4.6,0.5
			c0.2,0.1,0.5,0.2,0.7,0.2c3.8-0.3,7.6,0.8,11.5,1c3.8,0.2,7.6,0.6,11.4,1.3c5.3,1,10.6,1.7,15.8,2.6c6,1,12,2.3,17.9,3.9
			c3.6,1,7.2,1.5,11,1.4c4-0.1,7.9,0.1,12-0.1c4.2-0.2,8.1,0.5,12.1,1.5c6.1,1.6,12,3.7,17.5,6.7c0.3,0.2,0.8,0.3,1,0.6
			c2,2.6,5,2.7,7.8,3.5c6.1,1.7,10.4,5.5,12,11.7c0.8,3,0.9,6.1-0.6,9c-0.3,0.6-0.6,1.1-0.8,1.8c-0.3,0.7,0.1,1.4,0.8,1.4
			c1,0.1,2.1,0,3,0.1c3.5,0.3,6.7,2.2,7.7,6.3c0.4,1.8,0.7,3.4,1.1,5.2c0.7-0.3,1.4-0.7,2.1-1c1.7-0.7,2.6-1.8,2.6-3.8
			c-0.3-4.6,5.9-7.5,9.1-6.7c0.2,0.1,0.5,0.2,0.7,0.2c1-2.6,3.6-3.7,6.3-2.6c1.8,0.8,3.4,1.8,4.3,3.6c0.9,1.7,2,3.3,2.5,5.2
			c0.4,1.5,1.3,2.8,2.3,3.9c1.1,1.2,2.2,2.5,3.4,3.7c2.3,2.4,4.3,5.1,5.9,8c1.4,2.6,2.3,5.4,2.2,8.4c0,3.7-0.1,7.5-0.6,11.1
			c-1,6.3-0.9,12.4,1,18.6c2.5,7.9,4.1,15.9,3.7,24.2c0,0.2,0,0.5,0,0.8c0.1,3.6-0.2,7.1-1,10.7c-1.7,7.5-3.7,14.9-6,22.3
			c-3.8,11.9-7.7,23.7-10,35.9c-1.9,9.9-2.8,19.8-1.1,29.8c0.7,4.4,1.5,8.8,2.5,13.2c2.8,13.2,6.7,26.1,11.9,38.5
			c1.4,3.2,2.7,6.3,4.5,9.4c2,3.4,3.9,6.9,5.9,10.3c3.8,6.5,8.3,12.4,14.4,16.8c3.4,2.5,7,4.2,11.1,5c4.1,0.9,8.3,1.3,12.4,2.4
			c2.9,0.8,5.6,0.1,8.1-1.5c3.4-2.2,6.2-5,7.6-8.9c0.9-2.2,1.8-4.5,2.6-6.8c4.8-14,11.1-27.4,18.4-40.2
			c6.3-11.1,13.7-21.3,22.8-30.4c1.6-1.6,3.2-3.4,4.6-5.2c7.1-9.5,11.3-20.4,13.1-32.1c0.6-3.5,0.7-7.1,0.6-10.7
			c-0.3-11,1.3-21.7,2.5-32.6c1.3-4.2-0.5-7.2-3.7-9.6c-1-0.7-1.8-1.4-2.7-2.1c-1.1-0.9-2.2-1.7-3.4-2.6c-5.1-4-9.9-8.5-15.7-11.7
			c-0.6-0.3-1-0.7-1.6-1.1c-3.8-2.7-7.8-5.5-11.6-8.3c-6.7-4.8-13-10-19.1-15.5c-1.4-1.3-2.8-2.6-4-4.2c-3.6-4.3-7.2-8.7-10.7-13.2
			c-4.2-5.2-7.5-11-10.4-17c-1.8-3.7-3.7-7.3-5.8-10.9c-5.7-10.1-4.6-7.9-12.4-13.8c-3.3-2.5-7-4.2-11.2-4.6c-1.7-0.2-3.4-0.5-4.9-1
			c-6.5-2.5-13.2-4.3-19.9-5.9c-3.4-0.8-6.1-2.6-8.2-5.4c-1-1.3-2.1-2.6-3.2-3.8c-1.7-1.8-3.8-3.2-6.3-3.5c-3.3-0.4-6.7-0.8-9.9,0.6
			c-0.3,0.2-0.6,0.3-1,0.2c-2.2-1-4.8-0.7-7-1.9c-4.7-2.5-9.3-4.9-13.4-8.3c-2.4-2-5-3.5-7.8-5c-6.7-3.4-13.6-5.9-20.8-8
			c-14.2-4.3-28.6-7.1-43.5-7.5c-5.6-0.2-11.3-0.1-16.9,0.1c-4.5,0.2-9,0.3-13.5-0.2c-4.8-0.6-9.7-1.1-14.5-1.8
			c-4.5-0.7-8.9-0.7-13.2,1c-2.9,1.1-5.9,1.3-9.1,1.3c-5-0.1-9.9-0.8-15-0.9c-13.9-0.2-27.7,0.1-41.5,2.2
			c-15.6,2.4-30.9,6.3-45.6,12.4c-6.5,2.6-13.2,5-19.7,7.8c-4.7,2-9.1,2.4-13.7,0.1c-0.9-0.5-1.9-0.8-3-0.6
			c-5.4,1-10.7,0.8-16.1,0.6c-1.4-0.1-2.7,0.2-4.1,0.9c-3.9,1.7-7.3,4.3-10.3,7.3c-4,4.1-8.4,7.5-13.2,10.6c-4,2.6-8.1,5.4-12.9,6.7
			c-8.5,2.2-8.6,2.2-14.4,8.8c-5.9,6.7-12.2,13.2-18.5,19.6c-3,3-6.1,5.9-9.7,8.1c-1.4,0.8-2.4,1.9-3.4,3
			c-3.7,3.9-7.4,7.9-11.1,11.7c-8.8,9.3-18.7,17.2-30.1,23c-0.8,0.4-1.6,0.9-2.3,1.4c-5.9,3.8-11.1,8.3-14.7,14.4
			c-5.3,9.4-8.6,19.5-9.1,30.3c-0.1,2.7-0.2,5.4-0.5,8.1c-0.7,5.9-0.5,11.8-0.2,17.6C187.5,232,188.3,235.2,190,238.1z M512.4,125.9
			c0.9-4.1,0.8-8.4,2.7-12.3c1.8-3.8,4.3-7.2,7.2-10.3c4.1-4.3,8.9-7.3,14.2-9.6c2.9-1.3,6-2.1,9.2-2.2c2.8-0.1,5.5-0.9,8.3-0.8
			c1.8,0.1,3.5,0.4,5.2,1c2.1,0.7,3.4,2.2,4.3,4.1c1.3,2.8,0.6,5.5-0.3,8.2c-2,5.5-5.7,9.7-10.4,13c-4.6,3.1-8.7,6.7-13.2,9.9
			c-1,1.5-2,3-3.1,4.6c-3.3,4.5-5.8,9.4-7.4,14.7c-0.3,1.1-0.7,2.2-1.1,3.3c-0.2,0.7-0.6,1.4-1,2c-1.8,2.6-5.3,2.2-6.4-0.7
			c-0.6-1.5-0.8-3.2-1-4.8c-0.2-1.5-0.4-3-0.5-4.6c0-0.1,0-0.2,0-0.3c-2.3-0.2-4-1.5-4.7-4.3c-0.6-2.1-1.3-4.2-1.3-6.3
			c0-0.9-0.2-1.8-0.4-2.6C512.5,126.9,512.2,126.3,512.4,125.9z M443.8,101.2c-1.6-1.4-1.7-3-1.5-4.9c0.1-1.8,1-3,2.2-4.3
			c3.1-3.7,7.3-5.1,11.7-4.2c5.3,1,9.7,3.8,11.7,9.4c1.4,4.2,2.6,8.3,2,12.6c0.5,4.5-0.5,8.6-1.5,12.7c-0.6,2.2-1.4,4.1-3,5.7
			c-3,3-5.7,3.4-9.3,1.4c-1.3-0.7-2.4-1.6-3.5-2.6c-0.9,0.2-1.8,0-2.7-0.5c-1.7-0.9-2.8-2.2-3.4-3.9c-0.8-2.2-1.6-4.3-2.2-6.5
			c-0.6-2.1-1-4.3-2.2-6.1c-0.2-0.3-0.3-0.7-0.5-1c-0.9-2.1-0.8-4,0.7-5.7c0.6-0.6,1.2-1,1.8-1.4C444,101.4,444,101.2,443.8,101.2z
			 M764.6,313c-1.6,4.8-2.8,9.8-4.5,14.6c-1.4,4-2.2,8.3-3.1,12.6c-0.8,3.5-2.4,6.7-4.4,9.6c-1.4,2.2-3.5,3.4-6,3.9
			c-0.4,0.1-0.8,0.1-1.3,0.2s-0.9,0-1.4,0c-0.3,0-0.7,0-1-0.1s-0.6-0.1-1-0.2s-0.8-0.2-1.1-0.4c-0.3-0.2-0.6-0.4-1-0.6
			c-1.4-1-2.2-2.7-2.2-4.8c-0.2-3.6,1-6.8,2.7-9.9c2-3.7,4.4-7.1,7.5-10.1c2.2-2.3,3.9-5.3,5.8-8c1.9-3,3.5-6.2,6.3-8.6
			c1-0.8,1.8-1.4,3.1-1C764.7,310.4,765.3,311.3,764.6,313z M709.1,172.9c-0.4-3.8-0.6-7.7-0.4-11.5c0.3-7.7,0.5-15.4,1.6-23
			c0.3-2.2,0.7-4.6,1.1-6.8c0.2-1,0.2-2-0.2-3c-1-3.8-1.9-7.7-2.9-11.5c-0.9-3.6-2.2-7.1-3.8-10.5c-0.8-1.6-1.5-3.3-1.9-5
			c-0.6-2.6,0.2-3.8,2.8-4.6c4.7-1.4,8.7,0,12,3.3c4.2,4.2,7.8,8.8,10.4,14.2c1,2.2,2.1,4.4,3,6.7c2.2,4.6,3.2,9.4,2.5,14.5
			c0.2,0.1,0.3,0.2,0.5,0.3c1.7,1.6,3.3,3.1,4.7,5.1c2.1,3,4,6.2,6.3,9.1c1.4,1.8,2.8,3.3,4.4,4.8c1.9,1.9,3.7,3.9,5.1,6.2
			c0.2,0.4,0.6,0.8,0.8,1.2c0.9,1.1,1.9,2.1,3.1,2.9l0,0c0,0,0.1-0.1,0.2-0.1l0.1-0.1c0,0,0.1,0,0.1-0.1c0.1-0.1,0.2-0.2,0.2-0.2
			c0-2.6,1.8-4.4,3.1-6.3c0.6-0.8,1.8-0.7,2.2,0.2c0.6,1.1,1.4,2.2,1.7,3.4c1,3.8,3.4,6.5,5.9,9.2c0.9,1,1.8,1.8,2.7,2.7
			c4.3,4.6,9.5,7.6,15.2,10.1c3.3,1.4,6.7,2.5,9.7,4.6c1.9,1.4,3.7,2.8,5.1,4.7c2,2.6,3.1,5.5,2.1,9c-0.2,0.6-0.2,1.3-0.4,1.8
			c-1.8,4-1.6,8.3-1.4,12.4c0.2,3,0.4,6.1,1,9.1c1.4,7-0.6,12.8-5.2,18c-2.8,3.1-6.1,5.4-9.9,7.1c-1,0.4-1.9,0.7-3,0.7
			c-0.9,2.7-2.6,5-4.4,7.1c-1.8,1.9-3.5,3.9-5.5,5.6c0,0.1,0,0.1,0.1,0.2c0.3,1.7,0.3,3.3,0.2,5c-0.6,5.8-1.9,11.4-3,17
			c-0.4,2.1-1.6,3.7-3.2,5.1c-3.7,3.2-7,6.8-10,10.6c-3.4,4.2-6.5,8.6-9.3,13.2c-2,3.4-4.2,6.8-6.3,10.1c-3.2,4.9-7.1,9.1-11.4,13
			c-1.5,1.4-3.1,2.6-5,3.6c-2.9,1.5-5.9,1.7-8.9,0.6c-3.1-1-5.7-2.9-7.9-5.4c-1.8-2-3.1-4.3-4.4-6.7c-4.1-8.2-6.1-16.8-6.6-25.9
			c-0.2-2.8,0-5.6,0-8.4c-0.2-4.7,0.1-9.2-0.7-13.8c-0.6-4.1-1.8-8-2.9-12c-2.2-7.5-3.1-15.1-2.6-22.8c0.4-5.2,1.4-10.4,2.6-15.6
			c1.9-7.7,4-15.4,6-23c2.8-10.2,4.4-20.5,4.8-31.1C709.4,176.3,709.3,174.6,709.1,172.9z M306,242.1c0.9,2,1.8,4,1.6,6.4
			c0.3,1.9-0.6,3.8-0.9,5.9c-0.3,2.2-2.3,2.9-4.3,1.8c-1.1-0.6-2-1.6-2.8-2.6c-1.9-2.4-3.8-4.7-5.8-7.1c-1.6-2-3.1-4-3.9-6.5
			c-0.8-2.3-1.9-4.5-2.8-6.7c-1-2.5-1.8-5.1-1.6-7.8c0.2-2.1-1.2-4-0.6-6s0.6-4,0.6-6.1c0.2-3.5,1.5-6.7,3.5-9.5
			c0.2-0.3,0.5-0.6,0.8-0.8c3.4-3,7.4-1,7.9,2.6c0.2,1.9,0.9,3.8,0.9,5.6c0.1,3.4,0.8,6.8,1.6,10.2c0.2,1.2,0.7,2.5,1,3.7
			c0.6,2.3,1.4,4.7,1.3,7.1c-0.1,1,0.2,2,0.6,3C303.9,237.4,305,239.7,306,242.1z M201.4,187.1c2.7-6,6.7-11.1,12-15.1
			c3.2-2.4,5.6-5.5,7.9-8.7c1.8-2.6,3.7-5.2,5.5-7.9c0.9-1.3,2-2.3,3-3.4c1.2-1.3,2.6-1.5,4.2-0.6c0.6,0.3,1.4,0.7,2.1,1
			c3.4-2.7,6.3-5.9,9.4-9.1c3.4-3.4,6.8-6.5,10.7-9.2c2.5-1.8,4.8-3.8,6.9-6c0.8-0.9,1.6-1.7,2.5-2.4c1.9-1.7,3.4-1.9,5.1-1
			c1.1-1.3,2.3-2.5,3.5-3.7c3.9-3.7,7.9-7.3,11.9-10.9c3.4-3.2,7.5-5.2,12.2-6.1c2.1-0.4,4.1-0.2,6.1,0.3c2.8,0.7,4.1,2.4,4.1,5.2
			c0.1,1.7-0.5,3.3-1.1,4.8c-0.9,2.2-2.2,4-3.7,5.9c-5,6.3-9.2,12.9-12.6,20.2c-4.7,10.1-5.9,20.6-3,31.4c0.4,1.6,0.8,3.2,1.4,4.8
			c1.5,4.4,1.3,8.8,0.1,13.2c-0.8,2.8-1.8,5.6-2.8,8.4c-1,3.1-2.3,6.3-3.2,9.5c-2.8,9.6-3.4,19.4-1.1,29.3c1,4.8,2.9,9.3,6,13.2
			c1.7,2.2,2.8,4.6,3.8,7.1c1.5,3.9,3,7.9,4.5,11.9c2.4,6.4,3.8,13,4.3,19.8c1,12.6,0.3,25.1-2.1,37.5c-0.5,2.4-1,4.8-0.9,7.2
			c0,0.6-0.1,1.3-0.2,1.9c-1.1,4.6-5.2,6.3-9.2,3.9c-1.3-0.8-2.5-1.8-3.6-2.9c-5.4-4.8-10.3-9.9-15.2-15.3
			c-4.6-5.1-9.9-9.2-15.5-13.2c-1-0.6-1.9-1.3-2.8-2c-2.8-2.2-5.8-4.3-8.9-6c-2.2-1.2-4.1-2.6-5.9-4.3c-2.4-2.2-4.5-4.6-5.8-7.6
			c-0.7-1.5-1.7-2.8-2.9-4c-3.3-3.3-6.2-6.9-9-10.5c-2-2.6-3.4-5.4-4.3-8.5c-2.3-7.4-3.8-14.9-5.3-22.5c-0.1-0.6-0.2-1.2-0.4-1.8
			c-1.2-2.7-2.2-5.5-3-8.4c-0.1-0.1-0.1-0.1-0.2-0.2c-0.2-0.2-0.4-0.6-0.6-1c-0.6-1.1-0.6-2-0.1-2.6c-0.8-4.3-0.6-8.4-0.5-12.7
			c0-0.2,0-0.5,0-0.7c0.1-1.4,0.4-2.8,1.1-4.1c0.2-0.2,0.2-0.4,0.4-0.6l0,0c-0.2-0.4-0.3-0.9-0.6-1.3c-0.1-0.2-0.2-0.2-0.2-0.4
			c-2.4-3-4-6.4-5-10.3C199.4,194.6,199.7,190.7,201.4,187.1z"/>
		<path class="st5" d="M567.5,369.8c-3.8,2.1-7.7,2-11.1-0.9c-2.2-1.8-4.3-2.5-7.1-1.8c-0.6,0.2-1.2,0.2-1.8,0.2
			c-3.8,5.2-6.1,11.1-7.4,17.5c-0.6,3-1,6-1,9.1c0,7,2.6,13.2,5.5,19.3c0.2,0.6,0.7,1,1.2,1.5c3.8,3.8,7.4,7.8,12,10.7
			c0.6,0.4,1.3,0.9,1.8,1.4c1.6,1.9,3.8,3.3,6.1,3.8c0.1,0,0.2,0.1,0.2,0.1c2-0.6,4-1,4.8-1c1.7,0.1,2.1,1,1.9,2.4
			c1.3,0.1,2.6-0.1,3.8-0.5c1-0.3,2-0.2,3-0.5c3.1-0.9,5.9-2.2,8.2-4.7c1.7-1.9,3.6-3.6,5.1-5.8c0.1-0.2,0.5-0.2,0.6-0.2
			c0.2,0.1,0.3,0.3,0.4,0.6c0.1,0.3,0.1,0.6,0.1,1c2.1-4,4.7-7.7,8.2-10.7c0.4-0.3,0.7-0.7,1-1.1c2.8-3.2,4.9-6.9,6.2-11
			c0.5-1.6,1-3.2,0.3-4.9c-1.5-3.9-2.3-8.1-3.2-12.3c-1.1-4.9-1.1-9.6,0.1-14.4c0.4-1.5,0.5-3,0.4-4.6c-0.1-2.3-0.1-4.6,0.2-6.9
			c0.2-1.5,1.2-2.9,0.6-4.5c-0.6-1.4-1.2-2.8-1.8-4.3c-0.3-0.7-0.6-1.4-1-2.1c-0.2-0.2-0.3-0.6-0.4-0.8c-0.1-0.2-0.2-0.4-0.2-0.6
			c0-0.1-0.1-0.2-0.1-0.2c-0.1-0.2-0.2-0.5-0.2-0.8c0,0,0,0,0-0.1c-0.1-0.2-0.1-0.6-0.2-0.8l0,0c0-0.2-0.1-0.3-0.1-0.5
			c-0.8,0.5-2.2,0.5-3.1,1.1c-0.4,0.2-1,0.3-1.4,0.1c-3.4-1.5-6.8-2.9-9.3-5.9c-1.2-1.4-1.8-3-2-4.9c-0.4-4.3,1.2-7.8,3.8-10.9
			c0.7-0.9,1.4-1.8,2.1-2.7c2.2-3.6,4.7-7,7.2-10.4c1.2-1.6,1.4-3.6,1.5-5.5c0.2-4.5,0.1-9,0.1-13.5c0-0.5,0-1-0.2-1.5
			c-1.4-4.2-0.1-7.8,2.2-11.2c0.2-0.4,0.5-0.8,0.8-1.2c-0.3-0.5-0.6-1-1-1.6c-0.6-1-1.1-2-2-2.8c-3-3-5.4-6.5-7.3-10.3
			c-0.7-1.4-1.5-2.6-2.4-3.8c-1-0.2-2.2-0.5-3.2-0.6c-6-1-12-0.8-18-0.6c-3.7,0.1-7.3,1-10.9,1.7c-1.3,0.2-2.3,1-2.9,2.3
			c-0.5,1.2-1.3,2.2-2.1,3.2c-0.2,0.3-0.5,0.6-0.8,0.8c0.4,3,1.4,5.7,2.9,8.4c0.8,1.4,1.7,2.9,2.4,4.3c0.8,1.5,1.2,3,1.1,4.8
			c-0.7,5.3-2.3,10.2-6.8,13.6c-2.4,1.8-4.7,1.3-5.8-1.6c-0.3-0.8-0.5-1.7-0.6-2.6c-1-5.4-3-10.3-6.6-14.5c-2.1-2.6-3.1-5.5-3-8.9
			c0.1-1.8,0.1-3.6,0.2-5.4c0.2-3.4,1.8-6.1,3.8-8.6c-0.8-0.9-1.6-1.8-2.2-2.8c-0.4-0.8-0.8-1.6-1-2.5c-0.8-3.3-1.9-6.3-3.4-9.3
			c-1.3-2.6-2.5-5.4-3.5-8.1c-1-2.6-2.2-4.9-4.3-6.7c-2.1-1.7-3.2-3.9-4.3-6.3c-0.4-0.8-0.7-1.7-0.6-2.6c0.2-2.3-0.6-4.6-1-6.8
			c-0.6-3.3-0.6-6.6,0-9.9c0.1-0.6,0.2-1.1,0.3-1.7c0.2-1.7,0.5-3.4,0.7-5.1l0,0c-0.8,0.1-1.4,0.6-2.1,1c-1.6,0.9-3.3,1.4-5.1,1.4
			c-3.3-0.1-6-1-7.5-4.3c-0.2-0.5-0.5-0.9-0.8-1.3c-0.1-0.1-0.2-0.2-0.4-0.3c-1.6,0.2-3,0.7-4.3,1.9c-3,2.7-6.5,4-10.5,3.9
			c-2.4,0-4.9,0-7.3,0c-3.3,0-6.3-0.6-9.2-2.2c-1.2-0.7-2.3-0.9-3.6-0.1c-3,1.8-6.4,2.6-9.2,4.7c-0.8,0.6-1.7,1.2-2.1,2.2
			c0.6,1.4,1.4,2.8,2,4.2c2.7,5.4,0.5,10.7-5,12.8c-5.6,2.2-10.7,5.5-15.5,9.1c-4,3-7.3,6.8-9.2,11.6c-1.3,3.2-2.9,6.3-3.4,9.8
			c-0.4,2.7-0.9,5.5-1.3,8.3c-0.1,0.6,0,1.3-0.2,1.9c-0.6,3.3-1.9,5.9-4,8c-0.2,1.4-0.6,2.7-1.3,4c-1.2,2.7-2.7,5.3-4.7,7.5
			c-5.5,6-8.4,13.4-11.3,20.8c-2.6,6.6-3.7,13.6-3.8,20.7c0,5-0.3,10,0.7,14.9c0.2,0.9,0.5,1.8,0.7,2.7c1.4-0.2,2.7-1,4-1.7
			c1.8-1.1,3.8-2.2,5.4-3.7c0.6-0.6,1.4-1,2.1-1.4c1.5-0.8,3.1-1.2,4.9-1.4c0-2.2,0-4.3,0.1-6.5c0.1-6.1,1.8-11.7,4.9-16.8
			c3.1-5.2,7.5-9.4,12.6-12.8c7.8-5.2,16.5-8.2,25.6-10c5.1-1,10.4-1.5,15.6-1.7c7.7-0.2,15.2,0.8,22.3,3.4
			c5.9,2.2,11.6,4.7,16.9,8.3c5.1,3.4,8.7,7.9,11.4,13.2c1.1,2.2,2.2,4.3,3.5,6.4c1.4,2.5,2.4,5.1,3,7.9c1.2,5.1,1.9,10.3,2,15.5
			c2.4,0.9,5,1.3,7.5,1.4c2.2,0.1,4.3-0.8,6.4-1c1.2-0.1,1.9-1.2,2.6-2.1c0.1-0.2,0.2-0.2,0.3-0.4c0.4-1.8,0.6-3.8,0.7-6.6
			c-0.1-0.9,0-2.7-0.5-4.4c-0.7-2.5,0.2-4.6,1.3-6.6c1-1.9,3.1-2.6,4.9-1.4c3.2,2.2,6,4.8,7.1,8.7c0,0.2,0.1,0.2,0.1,0.4
			c0.4,6,3.3,11.2,5.7,16.6c3.2,7,3.5,14,1.2,21.3C574.9,364,571.9,367.4,567.5,369.8z M517.6,270.1c-2.7,2-5.9,3.1-9.4,2.8
			c-0.7-0.1-1.6-0.1-2.2-0.5c-1.8-1.1-3.9-1.1-5.9-1c-1.9,0.1-3.8-0.2-5.6-0.9c-1.4-0.5-3-0.9-4.3-1.5c-4.9-2.1-10.2-2.4-15.2-3.7
			c-8.1-0.4-16.1-0.2-23.7,3.1c-3.6,1.6-7.3,3-11.1,4.3c-4.4,1.5-8.1,4.3-11.5,7.3c-0.6,0.6-1,1.5-2.1,1.4c-0.4-0.5-0.2-1-0.1-1.4
			c1.2-2.8,2.6-5.5,5.1-7.6c0.6-0.5,1.1-1.1,1.6-1.7c0.4-0.4,0.6-1,0.4-1.4c-0.8-1.4-0.2-2.8,0.4-4.1c2.9-7.2,6-14.4,10.7-20.8
			c2.5-3.4,5.1-6.6,8.5-9.3c3.1-2.5,6.3-4.8,9.5-7c2.5-1.6,5.1-2.9,7.9-3.9c0.7-0.2,1.4-0.7,2.2-0.6c3,0.2,4.1-1.7,4.7-4.1
			c0.2-0.9,0.6-1.7,0.8-2.6c0.6-2.6,2.1-4.7,4.7-5.7c1-0.4,1.8-1.1,2.2-2c2.8-5.1,10.5-5.8,15-1.4c2.6,2.5,4.4,5.4,5.1,8.8
			c0.6,3.2,2.1,6,3.2,9c0.4,1,0.8,1.9,1.5,2.6c1.8,1.8,2.6,4.1,3,6.5c0.2,1.2,0.9,2.1,1.7,3c1.5,1.5,3,3,4.3,4.9
			c2.7,4.2,4.3,8.7,4.2,13.7c0,1-0.1,2.1,0,3C523.4,264.4,521,267.7,517.6,270.1z M588.2,405.9c-2,2.1-4.3,3.8-7.1,4.5
			c-3.4,1-6.8,2.3-10,1.9c-1.1,0-1.8-0.1-2.4,0c-2.9,0.5-4.6-1.3-6.1-3.3c-0.5-0.6-0.4-1.5,0.3-2c1.2-0.8,2.1-1.8,2.8-3
			c0.3-0.6,1-1.3,1.5-1.7c3.5-2.3,7.5-4,11.7-4.6c1.9-0.2,3.8,0,5.8-0.1c2.1-0.1,3.5,1.1,4.2,2.9
			C589.5,402.2,589.7,404.3,588.2,405.9z M570.9,300.5c-0.9-1.6-1.2-3.4-1.6-5.1c-0.6-2.5-0.8-5.1-1-7.5c-0.1-1.8-0.7-3.4-1.1-5.2
			c-0.2-1-0.8-1.9-1.6-2.6c-5-4.5-2.5-12.4,2.5-15.4c1.6-1,3.4-1.7,5.3-2.2c0.9-0.2,1.8,0.1,2.6,0.2c4.3,0.6,7.5,3.1,10,6.5
			c2.4,3.2,3.6,7,3.8,11.9c0.2,1.7-0.7,4-1,6.4c-0.3,2.9-1.1,5.8-2.2,8.5c-1,2.6-2.3,4.8-4.4,6.7
			C578.5,306.1,573.4,305.2,570.9,300.5z M578.3,369.4c-0.1-2.2,1.2-3.8,2.3-5.5c1.2-1.8,2.9-3.2,4.4-4.7c0.5-0.4,1-0.7,1.6-1
			c2.2-1,4.1-0.6,5.9,1c2.4,2.1,3,4.7,2.6,7.4c0.3,5-1.7,8.9-4.3,12.7c-1.6,2.3-3.7,4.3-5.5,6.3c-3.9,4.4-8.9,6.7-14.4,8.2
			c-1.9,0.5-3.9,1.1-6,0.2c-0.9-0.4-2-0.1-3-0.2c-4-0.6-5.5-3.8-3.5-7.3c0.5-0.9,1-1.8,1.4-2.7c1-2.6,2.8-4.4,5.4-5.1
			c4.7-1.2,8-4.4,11.8-7C577.7,371.1,578.4,370.4,578.3,369.4z"/>
		<path class="st5" d="M675.8,640.7l2-2.3l1-1.1c0.3-0.4,0.6-0.7,1-1.1l2-2.2c0.7-0.7,1.4-1.4,2.1-2.2c1.2-1.3,2.4-2.5,3.7-3.7
			c-0.9-0.3-1.8-0.4-2.9-0.4c-2.1,0.1-4,0.7-5.8,1.8c-4.6,2.6-8.7,5.7-12,9.9c-1.8,2.4-3.7,4.9-6,6.9c-0.6-0.1-1.2-0.3-1.6-1
			c-2.2-3.8-3.4-7.9-3.9-12.4c-0.6-5.1-0.6-10.2-0.7-15.3c-0.1-4.6,0.7-8.9,1.8-13.3c-0.6-4.4-0.7-8.9-0.2-13.5
			c0.4-3.7,1-7.4,2.2-10.9c0.9-2.3,1.8-4.6,4-5.9c0.7-0.4,1.1-1,1.4-1.8c2.4-5.9,5.9-11.1,9.5-16.3c2.4-3.5,4.6-7.1,6.3-11
			c1.2-2.7,2.6-5.3,4.2-7.8c4.5-7.1,9-14.2,13.6-21.3c1.5-3.4,3.1-6.7,4.3-10.3c1.4-3.9,3-7.9,4-12c0.8-3.4,0.6-6.7,0.3-9.9
			c-0.1-1.3-0.2-2.4-0.1-3.7c0.3-3.5,1.3-7.1,1.6-10.6c0.4-4.7,0.8-9.5-0.6-14.1c-1-3.2-2.2-6.3-4.1-9c-1.3-1.7-2.8-2.9-5-3.4
			s-4.3-0.7-6.4-0.8c-2.8-0.1-5.6,0.3-8.4-0.2c-0.4,0.6-0.7,1.3-1.2,2c-1,1.5-1.8,3-2.9,4.6c-1.4,2-2.5,4.2-3.4,6.5
			c-3,8.1-6.5,15.9-10.4,23.6c-0.6,1.3-1.4,2.5-2.1,3.7c-1.7,2.6-4.2,4.6-6.8,6s-5.2,1-6.9-0.7c-1.4,3-2.8,6-4.2,9.1
			c-1.9,4.3-3.5,8.8-5.5,13.1c-2.7,5.8-5.5,11.5-9,16.9c-2.4,3.8-4.7,7.5-7.4,11.1c-3.8,5.1-7.9,10-12.8,14.2c-3.4,3-7.5,5-11.7,6.4
			c-1.7,0.6-3.4,1.1-5.1,1.7c-1.4,0.6-2.6,1.4-3.6,2.7c-2.8,3.7-4.8,7.8-6.3,12.2c-2,6.2-4.9,12-8.8,16.9c-3.6,4.6-8,8.6-12.9,12
			c-3.4,2.3-6.9,4.5-10.5,6.3c-5.4,2.6-8.8,6.8-11.7,11.7c-2.8,4.7-5.5,9.5-8.3,14.3c-1.9,3.2-5.2,4.5-8.6,3.6
			c-0.3-0.1-0.7-0.2-1.1-0.5l0,0c-1.8,0.6-3.3,0-4.6-1.3c-0.6-0.6-1-1.2-1.4-1.8c-1.6-2.4-2.6-5-3.1-7.8c-0.4-2.6-0.7-5.1-0.6-7.7
			c0.2-4.5-0.2-9-0.8-13.4c-0.5-3.3-0.6-6.7-0.2-9.9c0.1-0.9,0.2-1.8,0.4-2.6c-0.7,0.4-1.5,0.8-2.2,1.4c-1.9,1.4-3.9,2.8-6,4
			c-2.6,1.6-5.4,3-8.3,4c-1.3,0.4-2.5,0.4-3.8,0.7c-2.2,0.5-1.7,9.3-2.1,11.7c-1,6.4-2.2,14.5-4.9,20.5c-1.2,2.6-4.7,7.3-6.2,9.7
			c-1.7,2.8-5.3,2.2-8.3,3.6c-2.7,1.3-5.9-0.6-8.6-1.7c-1.6-0.6-3.1-1-4.8-0.9c-4.1,0.2-7.4-1.2-10.3-4.2c-2.4-2.6-4.7-5.2-5.8-8.5
			c-1.1-3.1-3.2-5.5-5.2-7.9c-2.4-3-4.7-6.1-6.3-9.6c-2.1-4.3-4.1-8.5-6-12.8c-2.2-5.2-5.7-9.2-10.4-12.4c-3.3-2.2-6.1-5.1-8.3-8.5
			c-2.7-4.3-4.3-8.9-4.9-14c-0.3-2.6-0.8-5.3-0.7-8c0.1-1.2-0.5-2.2-1.2-3.2c-3.8-5-7.3-10.2-12-14.4c-3.1-2.9-6.4-5.5-9.9-7.9
			c-4.9-3.4-9-7.6-12.9-12c-2.4-2.6-4.3-5.8-6.3-8.7c-3.9-5.8-6.2-12.4-7.9-19.1c-0.1-0.4-0.2-0.7-0.3-1.1c-0.7-3-2.2-5.6-4.6-7.8
			c-3.2-2.9-6.1-6.3-9.3-9.2c-5.2-4.8-8.3-10.9-11.1-17.3c-1.4-3.3-3-6.5-4.7-9.7c-0.3-0.6-0.9-1.3-1.4-1.8
			c-3.8-3.7-6.9-7.9-9.7-12.3c-1-1.4-2.1-2.6-3.6-3.3c-2.5-1.1-4.7-2.7-6.9-4.3c-0.6-0.4-1-0.8-1.5-1.2c0.6,2.2,1.4,4.3,2.2,6.3
			c3.2,7.5,7.1,14.8,11,22.1c0.6,1.1,3,4.8,3.8,5.9c5.1,7.2,9.2,15.1,13.5,22.9c5.1,9.1,8.3,18.7,9.9,29c1,7,2.8,13.8,5.4,20.5
			c1.7,4.4,3.5,8.8,5.2,13.2c0.7,1.9,1.7,3.7,3,5.3c2.6,3.1,4.3,6.7,5.1,10.7c0.2,1.3,0.6,2.5,1.3,3.6c5.2,9.4,10.5,18.8,16.9,27.5
			c2.4,3.3,4.7,6.7,7.8,9.5c1.6,1.4,3,3.2,4.3,4.9c6.3,7.9,12.3,15.8,18,24c4.2,5.9,7.5,12.3,8.5,19.6c0.2,1.5,0.8,2.9,1.9,4.1
			c3,3.1,4.7,7,5.7,11.2c0.9,4,1.1,8,0.6,12h15.4c0.1-0.6,0-1.4-0.2-2.1c-0.6-2.9,0.4-5.8,1.3-8.6c0.6-2.1,1.9-3.9,1.8-6.2
			c0-0.7,1-1.4,1.7-1.2c1.8,0.6,3.5,0.3,5.3,0.4c2.7,0.1,5.1,1.1,7.5,2.6c4.7,3.1,7.2,7.9,9.9,12.5c0.5,0.8,0.9,1.7,1.4,2.6H495
			c0.4-0.3,0.7-0.6,1.1-1c2.2-1.9,4.7-3.7,7.1-5.1c3.8-2.2,7.9-4.3,11.8-6.3c6.9-3.7,13.8-7.3,20.6-11.1c4.7-2.7,9.5-5.7,13.9-8.9
			c4.7-3.4,9-7.1,12.4-11.9c0.7-1,1.8-1.8,2.6-2.8c6.3-7.1,12.1-14.6,15.7-23.4c1.8-4.3,3.8-8.4,6.5-12.1c0.3-0.4,0.5-1,0.9-1.3
			c3.3-3,5.2-6.9,8.1-10.2c2.6-3,5.5-5.8,8.4-8.4c1.2-1.1,2.5-2.2,3.8-3.3c2.5-2.2,5.1-4.3,7.6-6.4c4.8-3.8,9.4-7.9,13.5-12.5
			c1.9-2.2,3.5-4.7,4.8-7.4c3.9-7.9,7.9-15.8,11.8-23.7c1.6-3.3,2.9-6.8,4.5-10.2c2.6-5.5,5.3-10.8,8.1-16.1c1.4-2.7,3.1-5.3,4.6-8
			c2.5-4.9,6.4-8.6,10.3-12.4c1.2-1.2,2.7-1.9,4.3-2.5c2.4-0.8,4.7,0,6.3,1.6c2,2,3.3,4.6,3.3,7.5c0,2.7,0,5.4,0,8.1
			c0,0.6,0,1.3-0.2,1.9c-1.9,6.3-4,12.4-7.5,18c-1,1.6-1.8,3.4-2.5,5.2c-3,8.3-6.5,16.4-11.1,24c-1.8,3-3.1,6.2-5,9.1
			c-3,4.8-6,9.5-9.7,13.8c-2,2.3-3.8,4.9-5.8,7.1c-2.7,3.1-5.9,5.7-9.2,8c-1,0.8-1.8,1.6-2.2,3c-0.6,1.9-1.4,3.8-2.2,5.8
			c-1,2.7-0.9,5.5-0.4,8.3c0.6,2.9,1.4,5.8,1.1,8.7c-0.6,5.9-1.2,11.9-3.4,17.6c-1.1,2.8-2.9,4.8-5.7,5.8c-1,0.3-1.5,0.8-1.8,1.8
			c-0.2,0.7-0.4,1.4-0.6,2.2c-1.8,7.4-4.4,14.4-7.5,21.3c-1.8,3.9-3.8,7.7-5.4,11.8c-2,5.5-5.4,10.1-9.1,14.5h41h4.3
			c0.2-0.2,0.5-0.3,0.8-0.5c1.2-0.9,2.4-1.8,3.5-2.7c0.6-0.6,1.3-1.2,1.9-1.8l0.1-0.1c0.2-0.3,0.6-0.7,0.8-1
			c2.4-3.2,4.7-6.4,6.9-9.7c0.6-1,1.3-1.8,1.9-2.8c0.2-0.3,0.4-0.7,0.6-1c0.6-1,1.4-1.9,2.1-2.9c0.1-0.1,0.1-0.2,0.2-0.2
			c3-4.3,6-8.4,9.2-12.5C673.2,643.8,674.5,642.3,675.8,640.7z M407.9,618.8c-0.2,0-0.6,0-0.6-0.2c-1.3-2.2-2.6-4.4-3.9-6.6
			c-1.8-3-3.8-5.8-6.1-8.3c-1.8-1.9-3.8-3.4-6-4.7c-9.4-5.5-16.7-13-21.6-22.8c-2.2-4.5-4.4-9-5.5-13.9c-0.2-1-0.3-2-0.4-3
			c-0.2-2.2-0.5-4.6-0.9-6.8c-0.1-0.6-0.6-1.1-0.9-1.7c-0.9-1.7-1.9-3.4-2.6-5.1c-0.9-2.2,1.6-5.1,4-4.7c0.6,0.1,1.3,0.2,1.8,0.6
			c4.7,2.6,9.3,5.4,13,9.5c4.8,5.3,8,11.5,9.6,18.4c1.1,5.1,2.8,10.1,3.6,15.2c0.2,0.8,0.5,1.4,1,2c1.2,1.4,2.5,3,3.7,4.4
			c0.6,0.7,1.2,1.4,1.6,2.2c3.9,7.6,7.5,15.4,10,23.7c0.2,0.5,0.3,1,0.4,1.4C408,618.6,408,618.8,407.9,618.8z"/>
		<path class="st5" d="M891.8,655.2c-2.3-4.6-5.1-9-8.4-12.9c-3.3-4-7-7.6-11-10.8s-8.4-5.9-13-8.2l0,0l-6.8-3
			c-0.7-0.6-1.4-1.3-2.2-1.9c-1.7-1.4-3.5-2.8-5.5-3.9c-8-4.5-17.1-7.1-26.1-8.5c-4.6-0.7-9.1-1.2-13.7-1.5c-3-0.2-6.1,0-9.1-0.5
			c-3.3-0.5-6.3-2-9.7-2.2c-1.3-0.1-2.6,0-3.8,0.2c-10.5,1.1-21,2.6-31.2,5.7c-5.1,1.5-10.1,3.4-14.8,5.9c-4.6,2.3-8.7,5.6-13.4,7.5
			c-1.1,0.5-2.3,1-3.4,1.4c-24.3,10.4-46,30.9-54.5,56.3l0,0c2.2-0.5,4.8,0.4,6.6-1c0.7-0.6,1.1-1.4,1.5-2.2
			c3.9-8.4,7.7-17.2,14.4-23.7c8.1-8,20.9-11.2,30.5-3.8V648c0.1,0.1,0.1,0.2,0.2,0.2c0.6,0.4,1.1,0.9,1.6,1.4l0.1,0.1
			c0.2,0.2,0.3,0.3,0.6,0.5c0.6,0.6,1.2,1.2,1.7,1.9c0.1,0.2,0.2,0.2,0.3,0.4c-0.8,0-1.6,0-2.4,0.2c-1.8,0.2-3.4,0.6-5.1,1.2
			c-3.3,1.2-6.3,3-9.1,5c-0.7,0.5-1.4,1-2.2,1.5l-1,0.8l-1.9,1.4l-1,0.7c0,0,1-0.2,1.1-0.3c5.1-1.4,10.1-1.4,14.8,0.9
			c0.4,0.2,0.8,0.4,1.1,0.6c0.4,0.2,0.7,0.4,1.1,0.6c0.7,0.5,1.4,1,2,1.5c1.3,1.1,2.4,2.4,3.4,3.8c1.1,1.5,2.1,3.2,2.9,4.9l0,0
			c-0.2,0.5-0.2,1-0.4,1.4c-0.1,0.3-0.2,0.6-0.2,0.9c0,0.1,0,0.1,0,0.2c-0.1,0.6-0.2,1.1-0.2,1.7c0,0.2,0,0.2,0,0.4s0.1,0.2,0.1,0.4
			c0.1,0.2,0.1,0.5,0.2,0.7c0-0.1,0-0.1,0-0.2c0,0.1,0,0.1,0,0.2v0.1V681c0.2,0.9,0.4,1.8,0.6,2.7c0.2,1.1,0.5,2.2,0.7,3.3
			c1.4,2.2,2.7,4.5,3.6,7.1c0.1,0.2,0.2,0.5,0.2,0.7c0,0.1,0,0.2,0.1,0.2c0.1,0.2,0.2,0.5,0.2,0.7c0,0,0,0,0,0.1
			c0.1,0.2,0.1,0.5,0.2,0.7c0,0.1,0,0.2,0.1,0.2c0.1,0.2,0.1,0.4,0.1,0.6c0,0.1,0,0.1,0,0.2c0,0.2,0.1,0.5,0.1,0.7
			c0,0.1,0,0.2,0,0.2c0,0.2,0,0.3,0.1,0.6c0,0.1,0,0.2,0,0.3c0,0.2,0,0.3,0.1,0.6c0,0.2,0,0.2,0,0.4c0,0.1,0,0.2,0,0.3
			c0,0.2,0,0.5,0,0.8c0,0.1,0,0.1,0,0.2c0,0.2,0,0.3,0,0.6c0,0,0,0,0,0.1c0,0.4,0,0.7,0,1.1c0.2,0.2,0.3,0.3,0.4,0.6
			c0.7,0.9,1.4,1.8,2.2,2.6c0.4,0.4,0.7,0.7,1.1,1.1c3.1,2.7,6.3,5.2,10.4,6.1c6.4,1.4,13.1-0.6,19.7-0.1c1.3,0.1,2.6,0.3,3.8-0.2
			c2.2-1,3.7-4.5,4.8-6.6c1.8-3,3.3-6.3,4.6-9.7c2.4-6.3,3.8-13.1,4.3-19.8c0.8-10.7-1.1-21.5-5.4-31.3c-2.2-4.9-4.8-9.5-7.9-13.9
			c-3.1-4.3-6.7-8.3-10.7-12c-0.5-0.5-1-0.9-1.5-1.4l-2.6-2.2l-0.1-0.1c0,0-0.1,0,0,0h0.2l0.2,0.1l0.5,0.1l1,0.2l1.4,0.3l0.5,0.1
			l0.5,0.2l1,0.3c2.6,0.8,5.1,1.8,7.5,3c22.2,11.5,31.8,35,33.2,58.7c0,0.2,0,0.3,0,0.5c0,0.7,0.1,1.4,0,2.1c0,0.6,0,1.4-0.1,2
			s-0.1,1.3-0.2,1.8c0,0.1,0,0.2,0,0.2c-0.1,0.4-0.2,0.9-0.2,1.3c-0.1,0.3-0.2,0.9-0.2,1.2s-0.1,0.6-0.1,0.9
			c-0.6,3.9-1.9,7.9-3.2,11.6c-1.4,4-3.6,7.9-2,12.1c3.5,9,11.4,11.8,20.1,13.2c1.1,0.2,2.3,0.3,3.4,0.5c1.4,0.2,2.9,0.3,4.3,0.5
			c1.7,0.2,3.4,0.3,5.1,0.6c0.3,0,0.6,0.1,1,0.1s0.6,0.1,0.9,0.1c0.6,0,1.2,0,1.8,0c0-0.1,0-0.2,0-0.2c0.7-3.4,2.6-6.3,4.1-9.4
			c7.3-14.2,10.2-31.2,7.9-47.4c-2.1-15.1-10.6-29-21.1-39.6c-1-1-2.2-2.4-1.9-3.8c3.7,1,7.7,4.1,11,6.1c4,2.5,7.9,5.1,11.5,8.2
			c6.6,5.5,12.8,12.5,14.1,21.3c2.6,16.7,7.2,17.7,5,34.5c-0.6,4.5-3.3,8.6-4.2,13c-1.3,6.3-1.6,12-4,18c-0.2,0.4-0.4,0.7-0.4,1.1
			c-0.1,0.4-0.3,3.5-1.1,3.3c3,1,17.6,3.8,18.3-1.4l0.4-2.9l3.6-20.1c3.5-19.8,4-39.6-5-58.2c-1.9-3.9-5.3-11.5-7.8-13.8
			c0.3,0.2,0.6,0.6,0.9,0.9c4.9,4.7,9.5,9.1,13.2,14.8c4.3,6.7,7.9,14.4,10.8,21.8c0.2,0.6,0.4,1.2,0.6,1.8c0.8,2.4,1.4,4.9,1.9,7.4
			c1,5,1.5,9.9,1.6,14.9c-0.1,5-0.6,9.9-1.8,14.8c-0.3,1.4-0.7,3-1.2,4.4c0.5-0.1,0.9-0.2,1.3-0.4c1.3-0.5,2.3-1.4,3.2-2.3
			c0.9-1,1.6-2.1,2.2-3.2c0.6-1.1,1.1-2.3,1.5-3.6c0.2-0.6,0.4-1.3,0.6-1.8C901.1,689.2,899.6,670.8,891.8,655.2z M729.2,617.5
			L729.2,617.5c0.1-0.1,0.2-0.1,0.2-0.2C729.3,617.4,729.3,617.5,729.2,617.5z"/>
		<path class="st5" d="M261.2,622.2c-1.1-0.5-2.2-1-3.4-1.4c-4.7-1.8-8.8-5.1-13.4-7.5c-4.7-2.4-9.8-4.3-14.8-5.9
			c-10.1-3-20.7-4.7-31.2-5.7c-1.3-0.2-2.6-0.2-3.8-0.2c-3.3,0.2-6.4,1.7-9.7,2.2c-3,0.5-6,0.3-9.1,0.5c-4.6,0.2-9.1,0.7-13.7,1.5
			c-9.1,1.5-18.1,4-26.1,8.5c-2,1.1-3.8,2.5-5.5,3.9c-0.7,0.6-1.4,1.3-2.2,1.9l-6.8,3l0,0c-4.6,2.2-9,5.1-13,8.2
			c-4,3.2-7.7,6.9-11,10.8c-3.3,4-6.1,8.3-8.4,12.9c-7.9,15.6-9.5,34-4.9,50.9c0.2,0.6,0.3,1.3,0.6,1.8c0.4,1.2,0.9,2.4,1.5,3.6
			c0.6,1.1,1.4,2.2,2.2,3.2c0.9,1,1.9,1.8,3.2,2.3c0.4,0.2,0.9,0.3,1.3,0.4c-0.5-1.4-0.9-2.9-1.2-4.4c-1.1-4.8-1.7-9.8-1.8-14.8
			c0.1-5,0.6-10,1.6-14.9c0.5-2.5,1.2-4.9,1.9-7.4c0.2-0.6,0.4-1.2,0.6-1.8c2.8-7.5,6.5-15.1,10.8-21.8c3.7-5.8,8.3-10.2,13.2-14.8
			c0.3-0.3,0.6-0.6,0.9-0.9c-2.5,2.3-5.9,9.9-7.8,13.8c-9,18.5-8.4,38.3-5,58.2l3.6,20.1l0.4,2.9c0.7,5.2,15.2,2.4,18.3,1.4
			c-0.8,0.2-1-2.9-1.1-3.3c-0.1-0.4-0.3-0.7-0.4-1.1c-2.3-5.9-2.7-11.8-4-18c-0.9-4.4-3.6-8.5-4.2-13c-2.2-16.8,2.4-17.8,5-34.5
			c1.4-8.7,7.5-15.8,14.1-21.3c3.6-3,7.5-5.7,11.5-8.2c3.3-2,7.3-5.1,11-6.1c0.2,1.4-1,2.8-1.9,3.8c-10.5,10.7-19,24.6-21.1,39.6
			c-2.2,16.2,0.6,33.2,7.9,47.4c1.5,3,3.4,6,4.1,9.4c0,0.1,0,0.2,0,0.2c0.6,0,1.2,0,1.8,0c0.3,0,0.6-0.1,0.9-0.1
			c0.3,0,0.6-0.1,1-0.1c1.7-0.2,3.4-0.4,5.1-0.6c1.4-0.1,2.9-0.3,4.3-0.5c1.1-0.2,2.3-0.3,3.4-0.5c8.7-1.4,16.6-4.2,20.1-13.2
			c1.7-4.3-0.6-8.1-2-12.1c-1.3-3.8-2.6-7.7-3.2-11.6c-0.1-0.3-0.1-0.6-0.1-0.9c-0.1-0.3-0.2-0.9-0.2-1.2c-0.1-0.4-0.2-0.9-0.2-1.3
			c0-0.1,0-0.2,0-0.2c-0.1-0.6-0.1-1.2-0.2-1.8c-0.1-0.6-0.1-1.4-0.1-2c0-0.7,0-1.4,0-2.1c0-0.2,0-0.3,0-0.5
			c1.4-23.7,11-47.2,33.2-58.7c2.4-1.2,4.9-2.2,7.5-3l1-0.3l0.5-0.2l0.5-0.1l1.4-0.3l1-0.2l0.5-0.1l0.2-0.1h0.2l0,0l-0.1,0.1
			l-2.6,2.2c-0.5,0.4-1,0.9-1.5,1.4c-3.9,3.6-7.5,7.6-10.7,12c-3.1,4.3-5.8,9-7.9,13.9c-4.3,9.8-6.2,20.6-5.4,31.3
			c0.5,6.7,1.9,13.5,4.3,19.8c1.3,3.4,2.7,6.6,4.6,9.7c1.2,2,2.6,5.6,4.8,6.6c1.2,0.5,2.5,0.3,3.8,0.2c6.6-0.6,13.2,1.5,19.7,0.1
			c4.1-1,7.3-3.4,10.4-6.1c0.4-0.4,0.7-0.7,1.1-1.1c0.7-0.9,1.4-1.8,2.2-2.6c0.2-0.2,0.3-0.4,0.4-0.6c0-0.4,0-0.7,0-1.1
			c0,0,0,0,0-0.1c0-0.2,0-0.3,0-0.6c0-0.1,0-0.1,0-0.2c0-0.2,0-0.5,0-0.8c0-0.1,0-0.2,0-0.3c0-0.2,0-0.2,0-0.4s0-0.3,0.1-0.6
			c0-0.1,0-0.2,0-0.3c0-0.2,0-0.3,0.1-0.6c0-0.1,0-0.2,0-0.2c0-0.2,0.1-0.5,0.1-0.7c0-0.1,0-0.1,0-0.2c0-0.2,0.1-0.4,0.1-0.6
			c0-0.1,0-0.2,0.1-0.2c0.1-0.2,0.1-0.5,0.2-0.7c0,0,0,0,0-0.1c0.1-0.2,0.1-0.5,0.2-0.7c0-0.1,0-0.2,0.1-0.2
			c0.1-0.2,0.2-0.5,0.2-0.7c0.9-2.5,2.2-4.7,3.6-7.1c0.2-1.1,0.5-2.2,0.7-3.3c0.2-0.9,0.4-1.8,0.6-2.7v0.1v-0.1c0-0.1,0-0.1,0-0.2
			c0,0.1,0,0.1,0,0.2c0.1-0.2,0.1-0.5,0.2-0.7c0-0.2,0.1-0.2,0.1-0.4s0-0.2,0-0.4c-0.1-0.6-0.2-1.1-0.2-1.7c0-0.1,0-0.1,0-0.2
			c-0.1-0.3-0.2-0.6-0.2-0.9c-0.2-0.5-0.2-1-0.4-1.4l0,0c0.8-1.7,1.8-3.4,2.9-4.9c1-1.4,2.2-2.6,3.4-3.8c0.6-0.6,1.3-1.1,2-1.5
			c0.3-0.2,0.7-0.5,1.1-0.6c0.4-0.2,0.7-0.4,1.1-0.6c4.8-2.2,9.8-2.2,14.8-0.9c0.1,0,1.1,0.3,1.1,0.3l-1-0.7l-1.9-1.4l-1-0.8
			c-0.7-0.5-1.4-1-2.2-1.5c-2.9-2-5.9-3.8-9.1-5c-1.7-0.6-3.4-1-5.1-1.2c-0.8-0.1-1.6-0.2-2.4-0.2c0.1-0.2,0.2-0.2,0.3-0.4
			c0.5-0.6,1.1-1.3,1.7-1.9c0.2-0.2,0.3-0.3,0.6-0.5l0.1-0.1c0.5-0.5,1-1,1.6-1.4c0.1-0.1,0.1-0.2,0.2-0.2v0.1
			c9.6-7.4,22.4-4.2,30.5,3.8c6.6,6.6,10.4,15.3,14.4,23.7c0.4,0.8,0.8,1.7,1.5,2.2c1.8,1.4,4.3,0.6,6.6,1l0,0
			C307.1,653.1,285.4,632.6,261.2,622.2z M251.3,617.4c0.1,0,0.1,0.1,0.2,0.1l0,0C251.5,617.5,251.4,617.4,251.3,617.4z"/>
	</g>
</g>
</svg>
