<?xml version="1.0" encoding="utf-8"?>
<!-- Generator: Adobe Illustrator 24.0.1, SVG Export Plug-In . SVG Version: 6.00 Build 0)  -->
<svg version="1.1" id="Layer_1" xmlns="http://www.w3.org/2000/svg" xmlns:xlink="http://www.w3.org/1999/xlink" x="0px" y="0px"
	 viewBox="0 0 990 781.2" style="enable-background:new 0 0 990 781.2;" xml:space="preserve">
<style type="text/css">
	.st0{fill:#E4706B;}
	.st1{fill:#7CD3FF;}
	.st2{fill:#535459;}
	.st3{fill:#ADADAC;}
	.st4{fill:#FFFFFF;}
</style>
<g>
	<path d="M228.5,741.9c-0.3,1.6-0.6,2.6-0.7,3.6c-0.5,3.8-2.7,6.8-5,9.7c-1.1,1.4-2.7,1.6-4.4,1.2c-5.3-1.4-10-3.8-13.8-7.8
		c-3.8-4.2-7.6-8.4-10.6-13.3c-0.8-1.4-1.9-2.5-3.4-3.3c-7.3-4-12.1-10.3-16.3-17.2c-0.4-0.7-0.8-1.4-1.1-2.1
		c-2.7-7.3-4.8-14.7-4.4-22.7c0.5-8.5,1.6-16.9,4.6-24.9c1.8-4.6,4.4-8.7,7.8-12.3c1.9-2,4-4,6.2-5.7c5.1-4.1,10.3-8.2,15.5-12.1
		c12.9-9.7,27.5-15.2,43.5-17c0.2,0,0.3,0,0.5-0.1c2.7-0.3,2.7-0.4,3.1-3.1c0.8-5.5,1.5-10.9,2.4-16.4c0.4-2.4,1.2-4.6,2.1-6.9
		c1.8-4.6,3-9.3,4-14.1c0.3-1.5,0.1-2.8-0.5-4.2c-4.6-9.9-6.9-20.4-7.3-31.3c-0.3-7.9,0.9-15.6,2.8-23.2c0.3-1,0.5-2,0.7-3
		c0.7-3.4,0.5-4.1-2.5-5.9c-2.7-1.6-5.2-3.5-7.7-5.3c-2.2-1.6-4-3.7-5.4-6c-2.3-3.8-2.2-6.9,0.6-10.4c3.5-4.5,7.2-8.8,11.3-12.7
		c0.2-0.2,0.3-0.3,0.5-0.5c5.8-5.3,9.6-11.6,10.5-19.6c0.3-3,0.1-5.7-0.8-8.7c-5.3-16.5-8.5-33.5-7.8-50.9
		c0.5-10.8,1.6-21.5,5.4-31.8c0.2-0.5,0.3-1.1,0.4-1.6c0.2-1-0.2-1.7-1.2-2c-0.5-0.1-1.1-0.3-1.6-0.5c-3.6-1.5-5.2-4.9-3.9-8.6
		c0.4-1.2,1.1-2.3,1.9-3.3c2.5-2.8,3.6-6.2,3.7-9.9c0.1-3,0.1-5.9,0.1-8.9c0.1-8.3,0.2-16.6,1.4-24.9c1.4-9.5,3.4-18.9,7.9-27.5
		c0.9-1.8,0.7-3.2-0.6-4.6c-0.1-0.1-0.1-0.1-0.2-0.2c-3.5-3.3-3.7-6.3-1-10.4c0.8-1.1,1.4-2.3,2-3.5c4-8.6,10.4-15.3,17.8-21
		c0.2-0.1,0.4-0.3,0.6-0.4c1.2-0.9,1.2-1.2-0.1-2.1c-0.4-0.3-0.8-0.5-1.2-0.7c-3-1.8-5.9-3.9-8.6-6.1c-5.2-4.3-4.5-9.5,1.5-12.6
		c3.3-1.7,6.9-2.6,10.5-3.2c0.3-0.1,0.6-0.1,1-0.1c1.5-0.3,1.7-0.6,1-1.9c-0.8-1.5-1.7-3.1-2.7-4.5c-6-9.1-9.8-19-11.8-29.7
		c-1-5.6-1.6-11.2-2.1-16.9c-1.6-19.6-1.1-39.1-0.2-58.7c0.3-5.2,0.5-10.4,0.9-15.6c0.5-6.7,1.8-13.3,3.1-19.9
		c1.3-6.7,2.5-13.3,3.8-20c1.1-5.3,3.4-9.9,6.7-14.2c3.3-4.4,7.7-6,13.1-5c4.9,0.9,9.4,3,13.8,5.3c10.3,5.6,19.8,12.3,28.9,19.7
		c13.1,10.7,25,22.7,36.5,35c3.4,3.6,6.3,7.6,9,11.8c1.2,1.8,2.4,3.6,3.8,5.2c1.4,1.5,3.1,2.2,5.2,1.6c0.7-0.2,1.4-0.3,2.1-0.4
		c3-0.4,5.5,0.6,7.5,2.8c1.1,1.2,1.9,2.6,2.3,4.2c1.5,5.3,5.4,8.7,9.7,11.9c0.4,0.3,0.9,0.5,1.3,0.5c1.5,0.1,2.6,0.6,3.2,2.1
		c0.4,0.8,1.1,0.8,1.9,0.5c1.8-0.6,3.7-1.1,5.5-1.6c5.1-1.5,10.2-2.5,15.6-1.7c1.3,0.2,2.6-0.1,3.8-0.4c17.2-3.8,34.6-5.3,52.2-5
		c11.1,0.2,22.2,0.4,33.3,1c9.1,0.4,18.2,1.5,27,3.9c0.7,0.2,1.4,0.4,2.1,0.1c2.9-1.2,6-1.1,9-1.5c3.2-0.5,6.3-0.8,9.5-1.1
		c3-0.3,5.7-1.4,8.4-2.7c4.8-2.5,9.2-5.6,13.3-8.9c6-4.9,12-9.8,18-14.7c1.9-1.6,3.7-3.3,5.4-5.1c10.3-10.8,20.9-21.1,31.9-31.2
		c8.5-7.8,18-14.1,28.6-18.7c4.8-2.1,9.7-3.7,14.9-4.3c7.1-0.7,12.9,1.6,17.2,7.3c2.5,3.3,4.3,6.9,5.8,10.7
		c4.8,12.4,7.7,25.2,8.8,38.4c1.2,14.5-0.1,28.7-2.7,43c-2.6,14.5-6.5,28.7-11.5,42.5c-1.7,4.7-3,9.4-4.5,14.2
		c-1.8,5.7-4.1,11.1-7.2,16.2c-0.2,0.3-0.4,0.7-0.6,1c-1.1,2-1.1,2.1,0.8,3.5c1.6,1.2,3.1,2.5,4.4,4c2.7,3.3,3,6.7,0.6,10.1
		c-1.1,1.6-1.4,3-0.9,4.9c1.1,4.1,0.3,7.9-1.8,11.5c-1.2,2-2.2,4.1-2.7,6.4c-1,4.9-0.1,9.5,1.6,14.1c0.3,0.9,0.8,1.7,1.2,2.6
		c2,4.6,1.9,9.2-0.2,13.7c-0.5,1.2-1.1,2.3-1.9,3.4c-0.7,1.1-0.7,2-0.1,3.1c2.8,5.1,5.3,10.4,8.4,15.4c2.1,3.5,5,6.2,8.3,8.5
		c0.8,0.5,1.6,1,2.4,1.6c3.3,2.7,3.9,6.8,1.3,10.2c-1.2,1.7-2.7,3.2-4.1,4.7c-0.8,0.8-0.9,1.6-0.1,2.5c4.3,5,6.5,10.9,8,17.2
		c1.8,7.6,2.8,15.4,3.1,23.3c0.1,3.1,0,6.2-0.9,9.3c-0.6,2.1-0.2,3.7,1.5,5.1c1.8,1.5,3.3,3.3,4.7,5.1c1.9,2.4,3.9,4.7,5.9,6.9
		c3.7,4.1,3.3,8.6-1,12.1c-1,0.9-2.2,1.6-3.4,2.3c-1.1,0.6-1.8,1.3-1.9,2.7c-0.2,1.6-0.9,3.1-1.3,4.6c-0.5,1.5-0.3,2.9,0.6,4.3
		c1.3,1.9,1.4,4.2,1.9,6.4c1.2,5.2,2,10.5,3.4,15.7c1.8,6.8,4.4,13.3,8.1,19.4c2.6,4.2,4.9,8.6,7.2,13c2.1,4.1,4.6,7.9,7.6,11.3
		c0.4,0.5,0.8,1,1.2,1.5c7.6,10.3,15.2,20.6,21.3,31.9c1.5,2.8,2.6,5.8,3.4,8.9c0.9,3.4,0.1,6.5-2.2,9.2c-2.5,3-5.7,4.8-9.4,6
		c-1.6,0.5-3.2,1-4.8,1.6c-2.1,0.9-2.3,1.5-2,3.7c0.6,4.4,1.8,8.6,2.5,12.9c1.2,7.2,1,14.3-0.5,21.5c-0.5,2.6-0.7,5.2-0.5,7.8
		c0.4,4.4,0.8,8.8,1.6,13.1c0.7,3.8,2,7.4,3.8,10.8c2.9,5.6,5.9,11.2,8.7,16.8c0.5,1,1.2,1.6,2.1,2.2c5,3.1,9.8,6.4,14.5,9.8
		c1.1,0.8,2.1,1.7,2.9,2.8c4.7,6.1,9.2,12.3,13.1,18.9c1.2,2.1,2.3,4.4,3.5,6.6c2.8,5.5,3.5,11.2,2.4,17.2c-1.4,8.1-3.8,16-6.7,23.7
		c-1,2.6-2.6,4.8-4.2,6.9c-3.4,4.6-7.1,8.9-12.2,11.7c-2.1,1.1-3.7,2.7-4.9,4.8c-2.8,4.9-6.7,9-10.5,13c-3.6,3.9-8.2,6.1-13.3,7.3
		c-2.2,0.5-3.6-0.2-5-1.9c-2.9-3.5-4.4-7.6-4.8-11.9c-1-0.1-1.4,0.5-1.8,0.9c-1.6,1.5-3.1,3-4.7,4.5c-1.1,1.1-2.3,2-3.6,2.8
		c-3.6,2.2-7.1,1.4-9.2-2.3c-1.8-3.3-2.6-6.8-2.9-10.6c-0.1-1-0.1-1.9,0-2.9c0.2-1.8-0.6-3-2.1-4c-1.4-0.9-2.9-1.7-4.4-2.4
		c-3.7-1.6-6.1-4.3-7.3-8.1c-0.8-2.4-1.5-2.5-3.3-0.6c-1.6,1.7-2.5,3.8-3.2,6.1c-1.8,5.6-4.8,10.3-9.4,13.8
		c-3.7,2.8-7.9,2.1-10.5-1.8c-1.7-2.5-2.8-5.3-2.9-8.3c-0.2-3.4-1.7-5.5-4.7-6.8c-1.7-0.7-3.1-2-4.5-3.2c-2.8-2.6-6.1-4.9-7.9-8.3
		c-1.4-2.5-3-2.8-5.5-2.8c-122.2,0.1-244.4,0-366.6,0c-0.6,0-1.3,0-1.9,0c-1.3-0.1-2.3,0.2-2.7,1.7c-0.1,0.5-0.5,1-0.8,1.4
		c-3.6,4.2-7.4,8.2-12.2,11.1c-0.7,0.4-1.4,0.8-2.1,1.2c-1.5,0.9-2.3,2-2.5,3.8c-0.3,3.2-0.9,6.3-2.7,9.1c-0.5,0.7-0.9,1.5-1.5,2.1
		c-2.5,2.8-6.3,3.1-9.3,0.9c-4.8-3.5-7.9-8.3-9.7-13.9c-0.7-2.1-1.4-4.1-2.9-5.7c-0.4-0.4-0.7-0.9-1.2-1.2c-1.3-1.1-1.8-0.9-2.4,0.7
		c-0.1,0.4-0.3,0.8-0.4,1.1c-1.2,3.3-3.3,5.8-6.5,7.3c-1.7,0.8-3.3,1.6-4.9,2.6c-1.7,1-2.5,2.3-2.3,4.4c0.4,3.9-0.5,7.6-1.9,11.2
		c-0.5,1.2-1,2.3-1.9,3.3c-2.1,2.3-4.8,2.7-7.6,1.2c-2.2-1.2-4-2.9-5.7-4.7C231.8,745,230.3,743.6,228.5,741.9z"/>
</g>
<g>
	<path class="st0" d="M550.1,580.8c-1.9-4.8-3.4-9.7-5-14.6c-2.5-7.7-4.3-15.5-5.2-23.5c-0.4-3.3-1.2-6.6-0.6-10
		c0.2-1.2-0.5-1.2-1.3-1.3c-6.6-0.7-12.4-3.5-17.7-7.3c-1.2-0.9-2.5-1.7-3.9-2.2c-2.3-0.7-4.4-1.8-6.1-3.5c-2.1-2.2-4.8-3.6-7.4-5.2
		c-0.3-0.2-0.7-0.7-1.3-0.2c0.4,2.1,0.5,4.3,0.2,6.5c-0.8,5.8-0.5,11.7-0.8,17.5c-0.2,4.5-0.7,9.1-0.8,13.6
		c-0.2,8.1,0.9,16.1,2.3,24c0.5,3.1,1.2,6.1,2.8,8.8c0.6,1.1,0.9,2.4,1,3.7c0.1,3-0.3,6.1-0.8,9c-0.5,2.6-3.1,4.6-5.7,4.9
		c-2.3,0.2-4.5-1.2-5.7-3.7c-0.3-0.7-0.6-1.4-0.8-2.1c-0.7-2.3-0.7-4.6-0.7-7c0.2-5.6,0.5-11.2,0.6-16.8s0.4-11.2,0.8-16.8
		c0.2-2.3,0.2-4.5-0.2-6.8c-0.6-3.9-1.3-7.8-1.6-11.7c-0.4-4.9-1.1-9.8-1.6-14.7c-0.6-0.1-0.8,0.1-1,0.3c-2.1,1.7-4.3,3.1-6.9,4
		c-0.4,0.1-0.8,0.4-1.2,0.7c-2,1.4-4,2.7-6,4.1c-2.4,1.7-5,2.8-7.9,3.4c-3.8,0.8-7.6,1.3-11.5,0.9c-1.1-0.1-1.7,0.2-1.9,1.4
		c-0.3,1.6-0.6,3.3-0.9,4.9c-0.6,3.3-1.6,6.5-1.9,9.8c-0.4,4.3-0.8,8.6-1.2,12.9c-1.3,12.2-1.9,24.4,0.6,36.5
		c0.3,1.6,0.5,3.3,1.5,4.8c4.2,6.3,8.9,12.1,15.2,16.4c9.1,6.2,18.8,11,29.7,13.3c7.4,1.5,14.5,1.3,21.6-0.7
		c6.8-1.9,12.9-5.2,17.5-10.6c6.7-8,11.4-17.2,14.1-27.3C551.9,591,552.1,585.8,550.1,580.8z"/>
</g>
<g>
	<path class="st1" d="M427.3,298.5c-5-0.4-9.2,1.3-13.1,4.3c-1.8,1.4-2.6,3.3-2.8,5.5c-0.2,2.4,0.2,4.7,1.1,6.9
		c0.6,1.5,1.6,2.5,3.2,3.1c2,0.7,4.1,1.1,6.8,0.9c3.6,0.3,6.9-1.5,10.1-4c3.5-2.8,4.4-5.8,3-10.3
		C434.5,301.6,430.9,298.7,427.3,298.5z M432.1,309.5c-0.8,3.2-3,5.2-6.2,5.9c-2.8,0.7-5.7-0.8-7.4-3.4c-1.5-2.3-1.8-4.6-0.5-7.1
		c1.3-2.3,3.5-3,6.1-2.8c0.7,0.1,1.4,0,2.2-0.2c1.4-0.4,2.6,0,3.6,0.9C431.8,304.7,432.7,307,432.1,309.5z"/>
	<path class="st1" d="M580.1,302.6c-2-1.6-4.3-2.9-6.8-3.5c-4.7-1.2-9.1-1-12.7,3.1c-2.9,3.4-3,9.1,0.3,12.2c3.2,2.9,6.7,5.2,11,4.9
		c2.7,0.2,4.9-0.2,7.1-1c1.5-0.5,2.4-1.5,3-2.9c0.9-2.1,1.2-4.2,1.1-6.4C583.1,306.3,582.2,304.2,580.1,302.6z M572,315.3
		c-2.8,0.9-6.2-0.4-8.2-3.1c-1.8-2.4-1.9-5.5-0.2-8c1.2-1.7,2.8-2.8,5-2.1c0.9,0.3,1.8,0.1,2.7,0.1c3.6,0,6,2.4,6,6
		C577.4,311.2,575,314.4,572,315.3z"/>
</g>
<g>
	<path class="st2" d="M443.9,540c-4.7-2.5-7.1-6.7-8.1-11.8c-0.1-0.6-0.2-1.2-0.8-1.5c-1.4-0.7-2.7-1.7-4.6-2.3
		c0.8,3.5,0.5,6.7,0,10c-0.3,2-0.1,3.9,0,5.9c0.3,4.4,1.7,8.2,5.1,11.2c1.8,1.6,3.5,3.1,6,3.2c1.5,0.1,1.6,0.2,1.7-1.3
		c0.4-3.7,0.9-7.4,1.7-11C445.3,541.3,444.9,540.6,443.9,540z"/>
	<path class="st2" d="M568.2,526.9c-0.6-1.6-0.8-1.7-2.3-1.1c-0.8,0.3-1.5,0.7-2.3,1c-0.9,0.3-1.3,0.9-1.1,1.9
		c0.4,3.4-1.3,5.7-3.9,7.4c-1.7,1.1-3.7,1.9-5.7,2.1c-0.8,0.1-1.2,0.4-1.1,1.3c0.3,3.2,0.6,6.3,0.9,9.9c4.3-2.1,8.4-3.8,11.9-6.7
		c1.3-1.1,2.3-2.4,2.8-4c0.4-1.2,0.7-2.5,1.1-3.7C569.4,532.2,569.2,529.5,568.2,526.9z"/>
	<path class="st2" d="M535.6,423.9c-6.5-7.1-14.4-10.1-23.8-9.3c-4.2,0.4-8.5,0.9-12.7,0.3c-0.8-0.1-1.7-0.2-2.5,0
		c-5,0.7-10,0-15-0.2c-5.7-0.3-11,0.7-15.9,3.8c-3.2,2-5.7,4.5-8,7.3c-1.4,1.7-2.2,3.6-2.6,5.7c-0.8,4.3-1,8.6-1.2,12.9
		c-0.2,3.6,0.5,6.9,2.7,9.9c0.6,0.8,1.1,1.7,1.5,2.5c0.7,1.5,1.7,2.1,3.4,2.1c1.3,0,2.7,0.4,4,0.6c0.6,0.1,1.3,0.5,2.2,0
		c-0.9-2.5-0.1-4.9,0.1-7.4c0.2-1.8,1.1-2.9,2.8-3c5.6-0.6,10.7,0.6,14.9,4.7c3.7,3.7,4.7,9.7,2.1,14c-1.7,2.9-4.1,4.6-7.7,4.1
		c-0.6-0.1-1,0.1-1.5,0.3c-2.5,0.9-5,0.7-7.4-0.2c-2-0.7-4-1.5-5.9-2.5c-2.3-1.2-4.3-1-6.6,0.3c1.7,2.3,3.6,4.4,6,5.9
		c2.6,1.7,5.3,3.3,7.9,5c2.9,1.8,5.7,3.9,7.8,6.6c3,3.9,7.4,4.3,11.7,5.4c0-3.4,0.4-6.6,1.2-9.7c1.7-6.4,3-12.9,3.3-19.5
		c0-0.2,0-0.5,0.1-0.7c0.1-0.4,0.3-0.7,0.7-0.7c0.4,0,0.7,0.3,0.8,0.7c0.1,0.5,0.1,1.1,0.2,1.6c0.3,5.5,1.2,10.8,2.6,16.2
		c0.9,3.5,1.9,6.9,1.8,10.5c0,0.5-0.2,1.1,0.3,1.6c2-0.5,4-0.9,6.1-1.6c1.8-0.6,3.4-1.6,4.7-3.1c2.6-3.1,5.6-5.5,9-7.7
		c2.5-1.6,5-3.1,7.5-4.7c2.4-1.5,4.3-3.5,5.8-5.8c-2.5-1.6-4.7-1.4-7.1-0.1c-1.7,0.9-3.5,1.6-5.2,2.2c-2.5,0.9-5,1.2-7.6,0.2
		c-0.5-0.2-1-0.3-1.5-0.2c-3.2,0.5-5.6-1-7.3-3.6c-3-4.6-1.9-11.1,2.2-14.9c4.1-3.8,9-4.8,14.4-4.3c1.6,0.2,2.8,1.2,2.9,2.7
		c0.2,2.5,1.1,4.9,0.3,7.4c0,0.2,0.2,0.4,0.3,0.6c2.2-0.2,4.3-1.1,6.5-1c1.1,0,1.7-0.4,2.2-1.3c0.8-1.4,1.6-2.8,2.5-4.1
		c1.4-2.2,2.1-4.7,2.1-7.3c0.1-3.7-0.2-7.4-0.6-11.1C539.7,430.8,538.5,427.1,535.6,423.9z"/>
</g>
<g>
	<path class="st3" d="M715.6,591.1c-2.8-4.8-2.9-10-2.4-15.2c0.5-5.4,1.7-10.6,2.9-15.8c1.4-6.3,2.2-12.7,2-19.2
		c0-1.4-0.3-2.7-0.5-4.1c-0.7-5.8-1.7-11.4-3.9-16.9c-0.8-2-1.8-3.7-3-5.2c-0.2,0.4-0.4,0.8-0.7,1.2c-2.3,3.1-3.5,4.4-7.3,4.2
		c-3.3-0.2-3.3-0.2-3.3,3c0.1,5.9-0.7,11.7-3.6,16.9c-0.3,0.5-0.4,1-0.5,1.5c-0.6,2.1-1.5,4-2.8,5.7c-3.3,4.5-6.7,9-10.8,12.9
		c-0.7,0.7-1,1.2-0.6,2.1c1.6,4.5,2.2,9.1,2,13.9c-0.1,1.2-0.2,2.3-0.7,3.3c-0.7,1.8-1.9,2.6-3.9,2.6c-1,0-2-0.2-2.9-0.5
		c-1.3-0.4-2.7-0.6-4-0.5c-3.2,0-6.4,0.4-9.5,1.1c-1.9,0.4-3.8,1.1-5.4,2.3c-0.8,0.6-1.7,1.1-2.7,1.2c-1.1,0-1.6,0.6-2.2,1.4
		c-1.2,1.9-2.9,3.1-5.2,3.2c-1.1,0-1.4,0.5-1.6,1.5c-0.4,2.2-0.7,4.5-1.7,6.6c-4.4,9.6-10.1,17.6-21.9,18.5c-0.2,0-0.3,0-0.5,0
		c-0.8,0.1-1.2,0.5-1.4,1.3c-0.1,0.9-0.3,1.8-0.4,2.7c-0.2,2.4-0.6,4.8-1.3,7.2c-2.3,9-7.2,16.5-13.5,23.2
		c-4.9,5.2-9.9,10.3-14.8,15.5c-1.3,1.4-2.8,2.6-4.3,3.7c-4,2.9-8,5.8-12,8.7c-2.2,1.6-4.2,3.5-6.1,5.5c-0.8,0.9-1.6,1.8-2.4,2.7
		h31.2c0.3,0,0.6-0.1,0.9-0.1c1.6,0,2.5-0.7,3.4-1.9c2.6-3.5,4.5-7.4,5.9-11.5c2.1-6.1,6.2-10.2,11.8-12.9c2.3-1.1,4.6-2.1,6.9-3
		c-0.1-1.3-0.2-2.5-0.2-3.8c-0.2-3.4-0.2-6.8,0.5-10.1c0.8-3.6,2.5-7,3.5-10.6c0.3-1,0.9-1.4,2-1.5c2.7-0.3,5.1-1.3,7.5-2.5
		c4-2.1,7.4-5,10.5-8.3c3.8-4.1,6.8-8.7,8.6-14c1.3-3.8,1.8-7.6,2.3-11.6c0.1-0.9,0.1-1.9,1-2.4c1.6-0.7,3.2-1.4,4.9-1.8
		c1.6-0.4,2.6,0.5,2.6,2.2c0,0.9,0.1,1.9,0.6,2.6c0.7,1.1,1,2.3,1.3,3.6c1,4.2,1.7,8.5,2.2,12.7c0.1,1.2,0.4,2.3,0.8,3.3
		c0-0.2,0.1-0.3,0.1-0.5c0.1-1.2,0.2-2.4,0.2-3.6c0-1.4,0.2-2.7,0.7-4c1.2-3.1,3.5-4.7,6.8-4.7c0.8,0,1.5,0.1,2.3,0.1
		c0.7,0,1.1,0,1.4,0c-0.1-0.4,0-0.5,0.4-0.7c0-0.2,0-0.5-0.1-0.9c-0.2-1.8-0.4-3.6-0.3-5.5c0.3-4.6,3.4-7,7.9-5.9
		c0.7,0.2,1.3,0.5,2,0.3c2.1-0.5,3.7,0.3,5.2,1.5c1.7,1.3,3.1,2.9,4.2,4.7c4.7,7.5,8.6,15.3,10.4,23.8c2.9-0.6,5.9-1.1,8.9-1.6
		c-0.4-4-1.1-7.9-2.1-11.9C719.8,601.5,718.4,596,715.6,591.1z"/>
	<path class="st3" d="M387.5,670.8c-0.9-0.4-1.4,0.2-2,0.4c-2.3,0.7-4.5,0.5-6.4-1.2s-2.4-3.8-1.8-6.2c0.2-0.9,0.6-1.7,0.9-2.6
		c0.5-1.3,1-2.6,1.4-3.8s0.4-2.4-0.5-3.4c-0.2-0.3-0.5-0.6-0.6-1c-1.7-5.1-4.4-9.9-4.6-15.4c-0.1-1.3-0.7-2.1-1.8-2.7
		c-1.1-0.6-2.3-0.8-3.4-1.2c-5.8-1.7-8.4-5-8.5-11.1c-0.1-4.4,0.3-8.8,1.6-13.1c0.9-2.9,1.3-5.7,1.1-8.7c-0.1-1.7,0-3.3,0-5
		c0-0.6-0.1-1.3,0.2-1.8c1.3-2,0.3-3.4-1-5c-1.8-2.3-3.2-4.8-3.7-7.7c-0.1-0.6-0.4-1.1-0.7-1.6c-1.5-2.1-3.1-4.1-4.5-6.3
		c-1-1.5-2.2-2.6-3.9-3c-0.8-0.2-1.5-0.7-1.9-1.2l0,0c-2.6,2.4-4.2,5.5-5.4,8.9c-0.1,0.4-0.3,0.8-0.4,1.2c0.2,0.2,0.3,0.4,0.5,0.6
		c1.1,1.2,2.2,2.5,3.2,3.8c1.4,1.7,2.1,3.6,2.4,5.8c0.6,4.1,0.2,8.2-0.4,12.2c-0.9,5.8-1.4,11.6-1.6,17.5c-0.1,3.5,0.3,6.8,1.4,10.1
		c0.3,0.9,0.7,1.7,1,2.5c0.3,1,0.1,2-0.8,2.7s-1.8,0.7-2.8,0.2c-0.5-0.3-1-0.7-1.4-1.1c-1.5-1.4-2.8-3-3.8-4.8
		c-3.1-5.6-5.6-11.5-8.1-17.3c-0.2-0.6-0.4-1.2-0.5-1.7c-1.1-3.8-1.4-7.8-1.4-11.7c0-1.6-0.6-2.6-1.9-3.3c-1.5-0.9-3-1.8-4.2-3.1
		c-0.8-0.8-1.7-1.2-2.8-1.2c-1.8-0.1-3.6-0.3-5.4-0.8c-3.5-1-5.7-3.3-6.6-6.9c-0.6-2.8-1.2-5.7-1.3-8.6c0-1-0.2-1.9-0.6-2.9
		c-0.2-0.5-0.4-1.1-0.6-1.6c0,0.2,0,0.4-0.1,0.5c-0.8,4.6-1.3,9.3-1.1,14c0.1,1.7,0.4,3.4,1.2,5c1.4,3,3.4,5.6,6.2,7.3
		c1,0.6,1.3,1.3,1.3,2.4c0,3.7-0.4,7.4-0.7,11.1c-0.3,3.2,0.1,6.4,0.4,9.5c0.3,3.7,1.2,7.4,2.3,11c2.8,1.4,5.6,3,8.2,4.7l1.9,1.3
		l1.9,1.3l0.9,0.7l0.5,0.3l0.5,0.4l1.8,1.4c0.3,0.2,0.6,0.5,0.9,0.7l0.9,0.7l1.8,1.5c0.6,0.5,1.1,1,1.7,1.5l0.9,0.8l0.4,0.4l0.4,0.4
		c1.1,1.1,2.2,2.1,3.3,3.2c0.5,0.6,1.1,1.1,1.6,1.7l1.5,1.7c0.3,0.3,0.5,0.6,0.8,0.9l0.8,0.9l1.5,1.7c1,1.2,2,2.4,2.9,3.6
		c2.4,3.1,4.8,6.3,7,9.5c0,0.1,0.1,0.1,0.1,0.2c0.6,0.7,1.1,1.4,1.6,2.2c0.2,0.3,0.3,0.5,0.5,0.8c0.5,0.7,1,1.4,1.5,2.1
		c1.7,2.5,3.4,5,5.2,7.4c0.2,0.3,0.4,0.5,0.6,0.8c0,0,0,0,0.1,0.1c0.5,0.5,1,0.9,1.4,1.4c0.8,0.7,1.7,1.4,2.7,2.1
		c0.2,0.1,0.4,0.3,0.6,0.4h18.1c-0.1-0.5-0.2-0.9-0.2-1.4C388.7,680.8,387.9,675.8,387.5,670.8z"/>
	<path class="st3" d="M540.2,476c-3.7,3.5-7.8,6.6-12.2,9.1c-3.7,2.2-7.1,4.6-9.6,8.3c-1.4,2.1-3.3,3.5-5.6,4.6
		c-0.6,0.3-1.2,0.5-0.6,1.5c5.2,8.9,13,14.1,23,15.4c7.3,0.9,14.7,1.2,22-0.6c0.7-0.2,1.3-0.3,2-0.5c3.1-1.2,6.1-2.6,9-4.2
		c0.7-0.3,1.1-0.8,1.4-1.5c0.3-0.6,0.4-1.3-0.1-1.9c-0.5-0.5-1-0.8-1.8-0.7c-3.6,0.7-7,0.1-10.4-1.4c-4-1.8-6.8-4.5-7.6-8.9
		c-0.6-3.3-0.5-6.6-0.1-10c0.1-0.9,0.2-1.8,0.7-2.6c4.8-7.5,6.7-15.6,5.6-24.5c-0.1-0.5,0-0.9,0.1-1.3c1.1-3.5,1.8-7,2.1-10.7
		c0.3-4.2,0.6-8.5-0.1-12.7c-0.1-0.8-0.1-1.6,0.1-2.5c0.9-3.3,1-6.6,0-9.9c-0.3-1.1-0.2-2.1,0.2-3.1c1.8-4.4,3.8-8.8,5.5-13.2
		c1.8-4.6,2.4-9.3,1.3-14.2c-1.1-4.6-4.8-6.7-9.3-5.3c-1.4,0.4-2.7,0.8-4.1,1.2c-3.6,0.9-7,2.3-9.8,4.9c-0.5,0.5-1,1-1.8,0.7
		c-0.6-0.3-0.3-0.9-0.3-1.4c0-0.3,0-0.6,0-0.9c-0.2-2.1-1.7-3.3-3.8-3.4c-1.9,0-3.1,1-4.1,2.4c-1.9,2.5-3,5.6-6.1,7.1
		c-0.4,1.3-1.3,1.1-2.2,0.8c-2.3-0.6-4.6-0.8-7-0.8c-1.5,0-3,0-4.5-0.3c-6.9-1.6-13.9-1.3-20.8-0.5c-4.9,0.5-9.6,2-14.4,3
		c-2.4,0.5-4.6,1.6-6.9,2.2c-1.5,0.4-2.7,0.2-3.7-1c-1.1-1.3-2.6-2.4-4-3.3c-4-2.6-8.2-2.8-12.4-0.5c-0.9,0.5-1.5,0.5-2.2-0.2
		c-2.1-2-4.4-3.7-7-5c-3.8-2-7.7-3.9-12.3-3.5c-1.7,0.2-3.5,0.2-5.1-1.6c-0.4,2.4-1.8,3.6-3.4,4.7c-0.3,0.2-0.4,0.6-0.6,0.9
		c-0.8,1.6-0.4,3.5-0.9,5.2c-0.4,1.2-0.1,2.8,0,4.3c0.1,1.7,0.1,3.3,0.9,4.9c2.7,5.6,5.5,11.1,10.3,15.3c0.5,0.4,1,0.9,1.2,1.6
		c1,3.1,1.9,6.1,1.8,9.4c-0.2,4.7-0.1,9.4,0.1,14.1c0,0.7,0.1,1.3,0.3,2c1.3,5.7,4,10.8,7.5,15.3c1.6,2.1,1.4,4.2,1.1,6.1
		c-0.3,2.1-0.7,4.2-1.2,6.3c-0.3,1.2-0.4,2.4-0.4,3.6c0,2.5,0,5,0.4,7.5c0.6,3.9,0.9,7.8,2.6,11.4c0.6,1.2,0.3,2.2-0.6,3.1
		c-0.4,0.4-0.8,0.9-1.3,1.3c-1.9,1.4-3,3.5-4.3,5.5c-0.5,0.8-0.8,1.8-0.7,2.6c0.1,0.7,0.2,1.4,0.5,2c3.2,2,6.6,3.4,10,4.9
		c0.9,0.4,1.9,0.5,2.9,0.6c4,0.2,8,0.1,12-1.1c4.3-1.2,8.7-2.3,12.9-3.7c4.7-1.5,9.2-3.6,12.8-7.1c1.2-1.2,2.3-2.4,3.2-3.9
		c0.7-1.1,0.5-1.4-0.8-1.7c-2.2-0.4-4.3-1.1-6.3-1.9c-2.9-1.2-5.4-2.8-7.2-5.4c-2.4-3.5-5.7-5.9-9.2-8c-3.1-1.8-6-3.8-8.7-6
		c-0.1,0.1-0.2,0.1-0.3,0.2c-0.1-0.2-0.2-0.5-0.3-0.7c-2-1.7-3.9-3.6-5.7-5.6c-4-4.6-5.8-10.1-6.4-16c-0.7-7.1-0.2-14.3,0.9-21.3
		c0.8-5.1,2.9-9.5,5.6-13.8c2.5-4,6.2-6.8,9.5-10c1.3-1.3,3.1-2.1,4.9-2.8c4.7-1.8,9.6-3,14.6-3.1c4.9-0.1,9.7-0.2,14.6-0.1
		c7,0.2,14-0.5,20.9-0.8c7.2-0.3,13.9,1.2,20,5.2c2.7,1.7,4.8,3.9,6.5,6.6c2.7,4.3,4.4,9,4.7,14.1c0,0.8,0.2,1.7,0.3,2.5
		c1.6,7.6,1.9,15.2,1.4,22.9C548.8,464.1,545.8,470.6,540.2,476z"/>
	<path class="st3" d="M430.9,195.1c2,1,3.8,2.3,5.4,3.7c2.9,2.5,5.9,5,8.9,7.5c2,1.6,4.2,1.7,5.8,0.3c1.6-1.4,1.8-3.4,0.6-5.6
		c-0.6-1.1-1.2-2.2-1.6-3.8c1.1,0.4,1.6,1.2,2.2,1.7c1.6,1.4,3.1,3.1,5.1,3.8c3,1.1,4.8,3.3,6.4,5.8c0.3,0.5,0.7,1,1.1,1.5
		c1.9,2.4,4.3,3.6,7.4,3.1c1.3-0.2,2.5,0.1,3.7,0.7c2.7,1.4,5,3.1,6.8,5.5c1.6,2.2,3.6,4.2,5.8,5.8c4.4,3.2,9,2.3,11.8-2.4
		c0.6-1,1.1-1.4,2.1-0.8c0.5,0.3,1,0.4,1.5,0.5c4.4,1.3,8.6-0.2,11.2-4c0.7-1.1,1.4-2.2,1.7-3.5c0.4-2,1.7-2.8,3.5-2.9
		c2-0.2,3.6-1.2,4.8-2.7c0.4-0.5,0.7-1.1,1.4-1.1c2,0.1,3.8-0.6,5.9-1.2c-0.1,1.2-0.2,2.1-0.2,3.1c-0.1,1.5,0.1,3,1.2,4.3
		c1.6,1.8,3.9,2,5.5,0.1c1.9-2.2,3.9-4.3,4.9-7.1c0.1-0.2,0.2-0.4,0.3-0.6c0.2-0.4,0.5-0.5,0.9-0.4s0.6,0.4,0.6,0.8
		c0,0.7-0.1,1.4-0.1,2c0.1,1.5,0.4,1.7,1.8,1.2c0.7-0.3,1.3-0.5,2.1,0c2.1,1.2,3.2,1,4.9-0.7c1.2-1.2,2.4-2.6,3.3-4.1
		c1-1.7,2.3-3.2,3.8-4.6c1.2-1.1,2.3-2.2,3.2-3.6c0.9-1.3,0.9-2.7,0.2-3.6c-0.9-1.1-2.1-1.1-3.3-0.6c-2.5,0.9-5.1,1.2-7.7,2.7
		c0.2-1,0.5-1.7,0.6-2.4c0.4-3-0.5-4.1-3.6-3.9c-2.8,0.2-5.8-0.4-8.5,1.2c-0.1-1,0.5-1.3,0.9-1.8c1.3-1.6,2.9-3,3.9-4.7
		c1.3-2.2,1.6-4.4,0.2-6.7c-1.4-2.2-3.5-2.8-5.9-2.5c-1.7,0.2-3.5,0.5-5.2,0.6c-4.3,0.4-8.3,1.8-12.2,3.6c-5.3,2.5-9.8,6-13.7,10.4
		c-0.8,0.9-1.3,1.1-2.5,0.5c-3-1.8-6.1-1.5-9.1,0.2c-1.6,0.9-3,2.1-4.1,3.5c-1.1,1.3-2.2,2.7-3.2,4.2c-0.6,0.9-1.3,1.4-2.4,0.9
		c-0.8-0.3-1.6-0.5-2.5-0.4c-1.8,0.4-2.8-0.6-3.8-1.9c-1.9-2.6-3.8-5.1-6-7.4c-1.6-1.6-3.3-3.1-5.5-4c-3.4-1.4-6.4-0.8-9,1.8
		c-0.3,0.3-0.5,0.8-1.2,0.8c-0.5-0.4-1.1-0.9-1.7-1.4c-3.1-2.5-6.6-4.3-10.5-5.3c-3.5-0.9-6.9-0.8-9.9,1.6c-1.6,1.3-2.3,2.7-2,4.7
		c0.1,0.4,0.4,0.8,0,1.4c-0.8-0.5-1.7-0.9-2.5-1.4c-0.9-0.5-1.9-1-2.9-1.3c-1.9-0.5-3.7,0.1-4.6,1.7c-0.9,1.5-0.6,3.4,0.8,4.8
		C428.9,194,429.9,194.6,430.9,195.1z"/>
	<path class="st3" d="M615.2,153.7c4.4,3.1,5.8,7.4,4.5,12.6c-0.2,1-0.5,1.9-0.7,2.9c-0.2,0.8-0.1,1.4,0.2,1.9
		c0.3,0.2,0.6,0.5,0.9,0.8c0.1,0,0.1,0.1,0.2,0.1c0.5,0.3,1,0.7,1.7,0.7c0.1-0.1,0.1-0.1,0.2-0.1c0.1-0.2,0.2-0.4,0.3-0.6
		c0.6-3.7,2.8-6.5,5.7-8.8c1.7-1.3,3.4-2.6,5.1-3.8c3.1-2.3,5.7-5,7.5-8.4c1.9-3.6,4.2-7,6.4-10.5c1.3-2,2.8-3.7,4.6-5.3
		c3-2.6,6.1-5.3,9.1-7.9c0.8-0.7,1.6-1.4,2.7-1.7c3.7-1.2,7.6-1.4,11.4-2.3c0.3-0.1,0.6,0,0.8,0.3s0,0.6-0.1,0.9
		c-0.4,0.7-1.1,1-1.9,1.2c-1.8,0.4-3.2,1.4-4.4,2.6c-0.4,0.4-0.9,0.8-0.9,1.5c0.2,2.8-1.1,5.2-2.1,7.6c-1.2,3-1.7,6.1-2.3,9.5
		c2.1-0.6,3.9-0.5,5.7-0.5c4.1,0.2,5.8,2.8,4.5,6.7c-0.9,2.9-2.8,5-5.1,6.8c-2.6,2.1-4.3,4.7-5.2,7.8c-1,3.4-2,6.7-3,10
		c-0.6,1.9-0.8,3.9-0.7,5.8c0.2,3.6,1.1,7.1,2.2,10.5c0.6,2,1.1,4,0.7,6c-0.3,1.4,0.3,2.1,1.3,2.8c1.8,1.2,3,2.7,3.8,4.7
		c0.5,1.3,1.3,2.5,2.3,4.2c0.6-0.8,1-1.3,1.3-1.8c1.6-2.2,3.8-3.6,6.4-4.5c0.9-0.3,1.8-0.9,2.6-1.3c1-0.6,1.6-1.3,1.8-2.3
		c-0.2-0.9-0.3-1.8-0.1-2.9l0,0c-0.1-2,0.2-3.9,0.9-5.8c0.2-2.4,0.3-4.9,0.2-7.3c0-0.8-0.1-1.7,0-2.5c0.3-4.5,0.5-8.9,1.9-13.2
		c0.9-2.8,1.3-5.7,1.3-8.7c0.1-4.9-1.3-9.1-4.6-12.7c-1.8-2-2.7-4.2-2.2-6.9c0.3-1.4,0.3-2.9,0.3-4.3c0.1-2.8-0.9-5.6,0.4-8.3
		c0.1-0.2,0.1-0.5,0-0.7c-0.3-1.4,0.4-2.3,1.4-3.1c1.8-1.7,3.5-3.3,5-5.2c1.8-2.2,2-7.8-0.8-10.2c-2.9-2.5-6.2-2.9-9.6-2.8
		c-5.5,0.2-10.8,1.3-15.9,3.4c-0.5,0.2-1.1,0.7-1.9,0.3c0.1-1,0.6-1.8,1.1-2.6c2.6-4.6,5.9-8.8,8.9-13.1c1.6-2.3,3.2-4.6,5.2-6.6
		c3.4-3.4,7.2-6.4,11.5-8.6c-1-0.9-2.1-1.7-3.2-2.5c-1.4-0.9-1.3-1.1-2.6,0c-4.8,4.6-9.7,9-14.8,13.2c-2,1.7-3.7,3.5-5.3,5.6
		c-6.5,8.5-13.8,16.4-22.3,22.9c-2.1,1.6-4.1,3.4-5.9,5.3c-0.9,0.9-1,1.5-0.2,2.6c2,3.2,0.8,7.2-2.8,8.1c-3.5,0.9-7.1,1.8-10.7,0.1
		c-1.1-0.5-1.7-0.2-2,1c-0.2,0.6-0.2,1.2-0.7,1.6c-1.1,1-1.3,2.3-1.5,3.7c-0.3,2.9-0.3,5.9-0.4,8.9
		C613.6,152,614.1,152.9,615.2,153.7z"/>
	<path class="st3" d="M307.8,116.6c1.3,3.2,2.4,6.5,4,9.6c0.9,1.8,1.3,3.7,1.5,5.6c0.1,0.8,0.1,1.7,0.3,2.5
		c0.9,4.4,0.5,8.7-0.1,13.1c-0.2,1.5-0.6,3-1.3,4.3c-1.5,3-2.3,6.2-2.2,9.6c0.1,3.1,0.8,6,1.6,8.9c0.9,3.1,1.9,6.2,3.6,9
		c3.1,4.8,6.1,9.7,9.5,14.4c0.4,0.6,1,1.2,1.2,1.9c0.8,2.5,2.3,4.6,3.5,6.9c0.2,0,0.4-0.1,0.6-0.1c1.6-0.3,3.3-0.3,4.9-0.8
		c-0.1-0.8-0.7-0.9-1.1-1.1c-6.5-3.9-10.6-9.7-12.4-17c-1-4.1-1.7-8.3-2-12.6c-0.1-1.5-0.6-2.8-1.7-3.9c-1.4-1.5-2.7-3.1-3.7-4.9
		c-0.7-1.2-1.1-2.4-0.3-3.6c0.8-1.3,2.2-1.5,3.6-1.3c2.4,0.2,4.6,0.9,6.8,1.9c0.6,0.3,1.1,0.8,2,0.5c-0.1-2.1,0-4.2-0.3-6.3
		c-1.1-7.6-3.2-15-4.6-22.5c-1.2-6.4-3.3-12.4-6.3-18.2c-0.8-1.6-1.9-3.1-2-4.8c-0.1-2.1-1.2-3.7-2.1-5.4c-0.3-0.5-0.9-1-0.4-1.8
		c1.7,2,3.3,3.9,4.9,5.8c4.1,4.6,8,9.3,11.8,14.2c3.3,4.4,6.8,8.8,10.5,12.9c2.2,2.4,3.8,5.1,5,8.1c0.7,1.8,1.5,3.5,2.2,5.3
		c1.7,4.6,5.5,8,7.5,12.5c0.3,0.7,1.1,0.5,1.4-0.1c0.1-0.3,0.2-0.7,0.2-1.1c0.8-3.8,3.1-5.9,7-6.3c0.8-0.1,1.7,0,2.5-0.4
		c2.5-1.3,4.9-2.4,7.1-4.4c2.2-2.1,3.1-4,2.8-7c-0.4-4.3-0.2-8.6-0.2-13c0-1.8-0.6-3.2-1.6-4.6c-3.2-4.4-7.7-6.8-12.9-7.9
		c-2.4-0.5-4.8-0.7-7.2-1.2c-2.7-0.6-4.9-3-5.2-5.4c-0.3-2.6,1.2-5.2,3.7-6.5c1.4-0.7,2.9-1,4.4-0.9c1,0,1.9,0.3,3-0.1
		c-0.5-1.9-1.5-3.4-2.2-5c-2.1-4.3-5-7.7-9.1-10.3c-3.9-2.5-7.9-4.9-12.3-6.4c-0.9-0.3-1.8-0.8-2.5-1.3c-1.9,1.8-3.1,4.4-2.9,7.3
		c0.1,2.1,0.7,4,1.4,5.9c1.8,4.4,2.7,9,1.8,13.7c-0.5,2.3-0.8,2.6-2.7,1.2c-3.2-2.3-6.7-4.2-10.2-5.9c-3.6-1.7-7.7-1.2-10.5,1.3
		c-1.5,1.3-2.4,3-2.6,4.9c-0.2,2.9,0,5.7,1.3,8.4C307.1,114.9,307.4,115.7,307.8,116.6z"/>
	<path class="st3" d="M571.1,610.1c3.5-2.3,7.1-4.4,10.3-7.1c3.7-3.2,7.7-6.1,11.9-8.7c3.4-2.1,6.2-5,8.7-8
		c5.3-6.4,8.7-13.8,10-22.1c1.2-7.9,3.7-15.5,6.3-23c0.4-1.3,1.2-1.8,2.5-1.9c0.7,0,1.5-0.1,2.2-0.3c2.5-0.9,5-1.7,7.3-3
		c3.6-1.9,4.8-6.6,2.3-9.9c-1.2-1.5-2.8-2.6-4.2-3.8c-1.6-1.5-3.2-3-4.2-5c-2.3-4.7-3-9.7-3.6-14.7c-0.1-1.1,0.4-1.5,1.4-1.4
		c0.9,0.1,1.8,0.1,2.7,0c3.3-0.3,6-1.7,7.4-4.9c1.4-3,0.9-5.9-1.3-8.5c-1.4-1.7-2.8-3.4-4.4-4.9c-1-1-1.8-2.1-2.7-3.2
		c0.6-0.6,1.3-0.5,1.9-0.7c1-0.4,2.1-0.2,3-0.9c1.5-1.1,3.1-2.2,4.5-3.4c4.2-3.6,7.1-8.3,9.6-13.1c1-1.8,2.2-3.3,3.8-4.4
		c2.3-1.5,4.8-2.2,7.5-0.8c1.6,0.8,3.6,0.6,4.6-0.3c1.4-1.3,1.7-3.1,1-5c-0.4-1-1-1.8-1.7-2.7c-1.2-1.7-2.4-3.5-2.9-5.6
		c-1.2-4.8-3-9.5-3.2-14.6c-0.1-4.3-0.3-8.6,1.9-12.6c1.7-3,2.8-6.2,3.2-9.6c0.3-2.6,0.5-5.3,1.5-7.8c0.3-0.7,0.2-1.7,0-2.5
		c-0.5-2.1-0.9-4.3-1.7-6.3c-1.7-4.2-3.8-8.2-6.2-12.1c-1.2-1.9-2.2-4-3.1-6.1c-1.4-3.2-0.6-6.4,0.2-9.6c0.3-1.3,0.8-2.5,1.3-3.7
		c-5.6-0.5-11,0.4-15.9,3.8c-1.6,1.1-3.3,2.2-5,3.2c-1,0.6-1,1.1-0.2,1.9c2.8,2.9,4.1,6.7,5.6,10.4c0.4,1.1,0.5,2.2,0.3,3.4
		c-0.5,2.8-3.4,4.4-5.9,3c-2-1.1-4.1-1.9-6.2-3c-1.7-0.9-3.4-1.6-5.3-2.2c-0.6-0.2-1.2-0.6-1.7-0.2c-1.2,0.9-2.8,1.5-2.7,3.5
		c0.1,0.8-0.2,1.7-0.2,2.5c-0.6,6.1-0.9,12.3-1.7,18.4c-0.8,6.2-4.3,10.7-8.2,15.1c-0.1,0.1-0.1,0.1-0.2,0.1
		c-1.2,0.9-2.5,1.2-3.8,0.5c-1.1-0.5-1.5-1.4-1.6-2.5c-0.9,0.7-1.7,1.6-2.2,2.6c-0.6,1.4-1.7,1.9-3,1.8c-1.7,0-3.3,0.3-5,0.6
		c-2.5,0.4-4.8,1.1-6.7,3c-1.3,1.3-1,2.8-0.7,4.3c0.1,0.3,0.2,0.6,0.4,0.8c1.6-0.8,3.6-0.9,5.6-0.1c2.2,0.9,4.3,2,6.2,3.3
		c3.3,2.2,4.9,5.3,4.5,9.3c-0.1,1.4,0,2.7,0,4.1c-0.1,1.4-0.3,2.6-2,2.9c-1.1,0.2-0.7,1-0.6,1.6c0.4,3.8,0.7,7.6,1.5,11.3
		c1.3,6.1,1.2,12.2,0.5,18.4c-0.3,2.6-0.6,5.1-0.6,7.7c0,3.6-0.7,7.1-1.6,10.5c-0.2,0.6-0.3,1.2-0.6,1.7c-2.5,4.4-4.4,9.2-7.9,13
		c-1.1,1.2-1.3,2.4-1.2,4.1c0.2,4.2-0.1,8.5-0.9,12.7c-1.1,5.5-2.9,10.7-5.4,15.7c-1.1,2.3-2.8,4.1-4.6,5.9
		c-4.3,4.5-9.3,7.4-15.4,8.7c-0.4,0.1-0.8,0.2-1.1,0.2c-0.5,0.4-1,0.8-1.5,1.2c0,0.5,0.2,1.1,0.5,2.2c1.3,5.7,2.6,11.4,3.8,17.1
		c1.2,5.7,0.9,11.5-0.4,17.2c-2.6,11.2-7.4,21.5-13.8,31.1c-3.1,4.7-7.4,8.2-12.1,11.2c-6.8,4.2-13.9,7.5-21.9,8.6
		c-3.6,0.5-7.1,0.6-10.7,0c-5.3-0.9-10.6-1.8-15.8-3.4c-3.6-1.1-7-2.4-10.3-4.4c-5.4-3.2-10.6-6.5-15.6-10.3
		c-6.9-5.2-11.9-11.9-15.8-19.5c-1.2-2.4-2.1-4.9-2.6-7.5c-0.4-2.1-0.7-4.3-1-6.4c-0.5-0.8-0.8-1.7-0.5-2.7c0.1-0.3,0.1-0.6,0.2-0.9
		c-0.6-6.9-0.3-13.9,1.4-20.8c0.1-0.2,0.1-0.4,0.1-0.7c0.2-1.1,0.7-2.3,0.4-3.4c-0.4-1.2-1.9-0.9-2.9-1.3c-1.1-0.5-2.3-1-3.1-1.8
		c-0.2-0.2-0.4-0.5-0.7-0.7c-0.9-0.5-1.7-1.2-2.6-1.9c-1.7-1.5-3.1-3-4.3-4.8c-0.9-0.9-1.7-1.9-2.5-2.9c-2.9-3.9-5.4-8.1-6.1-13.1
		c-0.4-3.1-0.2-6.2,0-9.3c0.3-3.9,0.7-7.9,1-11.8c0-0.5,0-1,0.1-1.5c-0.4-1.9-0.9-3.8-1.6-5.6c-0.3-0.3-0.5-0.6-0.8-0.8
		c-6.2-5.5-10.5-12.6-14.2-19.9c-2.9-5.8-3.9-12.1-4.1-18.5c-0.1-2.3-0.1-4.6-0.1-6.8c0-1.7,0.1-3.3-0.3-5c-0.4-1.5,0.2-3,0.3-4.5
		c0.1-1.1-0.2-1.8-1.2-2.3c-2.8-1.5-4-4.1-4.1-7.1c-0.1-1.4-0.1-2.7-0.2-4.1c-0.1-2.1,0.7-3.9,1.9-5.5c1.1-1.4,1.8-2.9,2.3-4.6
		c0.5-1.9,1.4-3.5,2.6-4.8c-0.5-0.6-1-1.2-1.3-2c-0.2-0.4-0.6-0.8-0.9-1c-1.9-1-2.6-2.7-2.9-4.7c-0.6-4.6-2.7-8.5-6.4-11.4
		c-0.9-0.7-1.8-1.6-2.6-2.4c0,0.1-0.1,0.1-0.1,0.2c-1.7,1.9-3.8,1.6-4.9-0.7c-0.3-0.7-0.4-1.5-0.6-2.2c-0.3-1.6-0.6-3.1-0.8-4.7
		c-0.2-1.3-0.7-2.2-2-2.8c-1.6-0.7-2.6-2-3.2-3.7c-0.2-0.6-0.5-1.3-1-1.8c-1.4-1.3-2.6-2.8-3.5-4.5c-0.6-1.1-1.5-1.4-2.7-1
		c-1,0.3-1.9,0.2-2.9,0.3c-4.4,0.1-8.6,0.8-12.1,3.8c-1.1,0.9-2.1,1.9-3.3,2.8c-0.8,0.6-1.7,1-2.5,1.2c0.1,1.3,0.2,2.7,0.5,4
		c0.9,5.2,1.8,10.5,2.1,15.8c0,0.6,0.3,1,0.5,1.5c0.8,2.4,1.1,4.7,0.1,7.2c-0.7,1.8-2,3.4-2.5,5.3c-2.4-0.3-4.2,0.7-6,2.2
		c-3.5,2.9-6.9,5.8-10.9,8c-1.3,0.7-2.2,1.7-3.1,2.9c-1.4,1.8-1.9,3.8-0.9,5.9c1.1,2.3,3,3.5,5.5,3.8c2.2,0.2,4.4,0.1,6.6,0.1
		c0.7,0,1.5-0.1,1.5,0.9c0.1,2.4,0.3,4.9-0.6,7.2c-0.3,0.8-0.9,1.6-1.1,2.4c-0.5,2.5-1.4,4.8-2.5,7c-3.2,6.3-5.9,12.7-8.2,19.4
		c-0.7,2-0.7,4,0,6c0.8,2.3,3.3,3.9,5.7,4.1c3.3,0.2,5.7-1.2,7.6-3.7c1.1-1.4,2.2-3,3.9-3.7c3.2-1.3,6.4-2.8,9.7-3.7
		c1.3-0.4,2.5-0.7,3.8-1.1c3.8-1,7.7-1.9,11.6-2.9c-0.4,2.7-0.7,5.4-1.1,8.1c-0.5,3.6-0.9,7.2-0.7,10.9c0.2,3.8,2.7,6.4,6.4,6.5
		c1.1,0,1.8,0.3,2.2,1.4c0.8,2.3,2.5,3.9,4.5,5.3c1.9,1.4,1.9,1.3,1.1,3.4c-0.3,0.7-0.7,1.4-1.1,2c-1.4,2.2-3.1,4.1-4.7,6.1
		c-1.7,2.1-2.5,4.5-1.6,7.2c0.7,2.3,2.5,3.8,4.1,5.3c0.4,0.4,1,0.5,1.7,0.5c1.5,0,1.7,0.3,1.6,1.8c-0.1,1.1-0.4,2.1-0.3,3.2
		c0.4,5.9,1.5,11.6,4.3,16.8c0.4,0.7,0.6,1.4,0.3,2.1c-1.1,2.3-1.1,4.8-1.6,7.2c-0.8,3.9,0.8,7.7,4.3,9.7c0.3,0.2,0.5,0.2,0.8,0.2
		c3,0.3,6,0.3,9-0.5c0.3-0.1,0.6-0.1,0.9-0.2c0.8-0.1,1.3,0.2,1.4,1.1c0.2,1.7,0.8,3.3,0.8,4.9c0.1,2.4,1.3,4.1,2.5,5.9
		c0.6,0.8,1.4,1.3,2.5,1.2c1.5,0,2.3-0.8,3-2c0.7-1.3,0.8-1.3,2-0.4c1,0.8,2,1.7,2.9,2.5c0.3,0.4,0.7,0.7,0.8,1.1
		c1,3.2,3.1,5.7,5.5,7.9c2,1.8,3.5,3.9,5.3,5.9c0.7,0.8,1.2,1.7,1.7,2.7c0.9,2,1.8,4,2.6,6c2.2,5.4,6.3,9.1,10.6,12.6
		c0.7,0.6,1.1,1.1,0.2,1.8c-0.5,0.4-0.4,0.8-0.4,1.4c0.3,4.5,1.1,8.9,1.6,13.3c0.3,2.6,1.2,4.9,2.7,7c2.7,3.9,6,4,9.1,1.1
		c1.7-1.6,2.4-3.7,3.2-5.7c0.2-0.6,0.2-1.3,1.1-1.7c0.7,1.1,1.2,2.3,1.7,3.5c0.9,2.3,2.2,4.3,4.1,5.9c2,1.7,3.9,3.4,5.3,5.6
		c0.6,0.8,1.2,1.5,1.9,2.2c2.2,2,4.4,4.1,6.2,6.6c1.5,2.1,3.3,4,5.8,5c2.3,0.9,4.5,0.1,5.7-2.1c1-1.9,0.8-3.8,0.5-5.8
		c-0.1-0.8-0.4-1.7-0.1-2.7c1.4,1.7,2.6,3.1,3.4,4.8c0.9,1.8,2.6,2.9,3.8,4.4c0.4,0.5,1.1,0.6,1.9,0.5c1.7-0.3,3.4-0.6,5.2-0.7
		c1.9-0.1,3.2-1.2,4-2.9c0.2-0.6,0.4-1.2,0.6-1.7c1.4-2.9,2.6-5.9,6.3-6.6c0.4-0.1,0.8-0.3,1.2-0.6c2-1.4,4.3-2.1,6.3-3.6
		c1.3-0.9,1.9-0.6,2.1,1c0.1,1.1,0.1,2.1,0.1,3.2c0.2,2.1,1.8,3.8,3.9,3.9c3.1,0.2,3.9-0.3,5.3-3.2c0.3-0.5,0.5-1.1,0.7-1.7
		c1.5-3.1,2.8-6.2,4.8-9c2.4-3.4,4.8-6.8,5.5-11.1c0.4-2.3,1.6-4.1,2.9-5.8c0.7-1,1.6-1.9,2.3-2.8c0.6-0.7,1.1-1.5,1.5-2.3
		c1.3-2.4,2.1-4.9,2.2-7.8c0.7-0.2,1.1-0.8,1.6-1.3c2-2.3,4-4.6,6-6.9c0.5-0.6,1-1.1,1.8-1.2c2.3-0.5,4.2-1.5,6-2.9
		C569.6,610.9,570.4,610.5,571.1,610.1z"/>
	<path class="st3" d="M309.2,325.1c1.8-0.6,3.6-1.1,5.4-1.7c1.3-0.4,2.4-0.1,3.6,0.7c-1.3,1.5-2.7,2.8-3.4,4.5
		c-1.2,2.6-0.4,4.8,2.2,6c0.4,0.2,1.1,0.2,1.1,0.6c0.2,1.7,1.4,2.8,2,4.3c1.1,2.5,1.4,2.8,3.9,2.8c2.4,0,2.4,0,3.3,2.1
		c0.4,1,1,1.6,1.8,1.8c0.2,0,0.5-0.1,0.7-0.1c0.5-0.1,1-0.2,1.5-0.1c2.7-0.6,5.3-1.6,7.7-3c1.2-0.7,1.5-2,1.1-3.4
		c-0.1-0.4-0.4-0.8-0.6-1.2c-0.7-1.7-0.8-2,0.6-3.1c2.3-1.8,3.4-4.6,5.8-6.4c0.8-0.6,1.3-1.7,0.7-2.9c-0.6-1.2-1.7-1.4-2.9-1.2
		c-2.1,0.2-4.2,0.4-6.3,0.9c-1.7,0.4-1.8,0.4-2.2-1.2c-1.1-3.7-3.4-6.3-7-7.9c-0.4-0.2-0.9-0.2-1.3-1c1.7-0.6,3.2-1.1,4.6-2.1
		c2-1.6,3.3-3.7,4.2-6.1c1.8-5.1,4.8-9.4,8.9-13c0.9-0.8,1.6-1.6,2.4-2.4c0.9-0.9,1.3-2,0.8-3.3s-1.7-1.8-2.9-1.7
		c-1.1,0.1-2.1-0.5-3-0.8s-1.1-1.3-0.6-2c0.3-0.3,0.7-0.6,1.1-0.9c1.6-1.2,3.4-2.2,5.2-3.2c2-1.1,2.2-2.5,0.8-4.3
		c-0.5-0.7-1.1-1.1-2-1.3c-1.4-0.2-2.8-0.4-4.3-0.1c-5,1-9.3,3.5-13.5,6.4c-2.4,1.6-4.5,3.6-6.7,5.5c-0.9,0.8-1.8,1.6-2.4,2.7
		c-0.8,1.4-0.8,2.8,0.1,3.8c1,1.1,2.2,1.2,3.6,0.7c0.7-0.3,1.4-0.7,2.1-0.9c0.4-0.2,0.9-0.7,1.7,0c-3.1,1.9-5.5,4.7-8.3,6.8
		c-2.9,2.2-5.2,4.9-6.8,8.1c-0.5,0.9-0.9,1.7-1.5,2.5c-2.5,3.2-4.2,6.8-5.5,10.7c-0.5,1.5-0.7,2.8,0.5,4
		C306.5,325.6,307.8,325.6,309.2,325.1z"/>
	<path class="st3" d="M757.2,492c-2.6-4.1-4.9-8.2-6.8-12.7c-1.4-3.4-3-6.8-4.5-10.2c-0.2-0.5-0.3-1.2-0.9-1.4
		c-0.4,0.1-0.5,0.4-0.6,0.7c-2.3,5-5.1,9.7-8.7,13.8c-1.4,1.6-2.4,3.4-3,5.3c-1.9,6.3-3.4,12.7-2.4,19.5c0.5,3.4-2.1,5.4-5.3,4.2
		c-0.4-0.2-0.8-0.3-1.2-0.5c0.1,1.3,0.2,2.5,0.3,3.8c0.2,2.8,1.2,5.5,3.2,7.6c1.1,1.1,1.4,2.4,1.7,3.8c0.6,3,0.3,6.2,2.6,8.7
		c0.5,0.5,0.9,1.2,1.5,1.7c0.5,0.5,0.9,1,0.9,1.8c0,1.3,0.1,2.6-0.1,3.9c-0.6,3.5,0.2,7.1-0.7,10.1c0,3.9,1.9,5.5,4.8,4.8
		c1.4-0.3,2.4-1.2,3.2-2.3c3.3-4.8,5.6-10,7.1-15.6c1.6-6.2,2.9-12.4,4-18.6c0.8-4.7,2.2-9.3,2.5-14.1c0.2-2.9,0.8-5.8,1.8-8.6
		C757.1,495.8,757.3,493.9,757.2,492z"/>
	<path class="st3" d="M389,319.6c2.4,3.8,5.6,6.5,9.5,8.6c2.5,1.4,5.1,2.7,7.7,4c3.8,2,7.8,3,12,2.9c1.7,0,3.3,0,5-0.1
		c2.9-0.2,5.8-0.3,8.6-0.9c4-0.9,8-1.7,10.4-5.7c0.1-0.2,0.3-0.3,0.5-0.5c2.7-2.4,4.9-5.4,7.7-8.3c-2.9,0.6-4.6,1.6-6.9,3.9
		c-2.8,2.8-6,5.2-9.8,6.4c-4.4,1.4-9,2.2-13.7,1.5c-4.3-0.6-8.2-2-11.5-5c-1.3-1.2-2.6-2.5-4.5-2.9c-1.2-0.2-2.1-1.2-3-2
		c-1.4-1.3-2.7-2.7-3.9-4.1c-2.2-2.5-4.4-4.9-6.1-8c-1.9,1.9-4,3-6.5,3.5c0.2,0.9,0.8,1.5,1.2,2.1C386.7,316.6,388,318,389,319.6z"
		/>
	<path class="st3" d="M596,313.4c-1.8,5.2-5.4,9-9.4,12.7c-5.1,4.6-11.1,6-17.7,5.5c-3.6-0.3-7.2-1.1-10.6-2.1
		c-2.1-0.2-4.1-0.6-5.8-1.7c-0.2-0.1-0.4-0.3-0.6-0.4c-2.9-1-5.7-2.2-8.3-4c-1.8-1.3-3.7-2.3-5.9-2.9c3.3,5.7,7.4,10.5,13.3,13.6
		c6.9,3.7,13.9,5,21.5,2.9c1.2-0.3,2.3-0.7,3.4-1.3c5.3-3,10.7-5.9,15.2-10.2c3.4-3.1,6.6-6.2,9.1-10.1c0.7-1.2,1.6-2.2,2.9-2.9
		c0.5-0.3,0.9-0.5,1.2-1c0.2-0.4,0.3-0.7,0.1-1.1s-0.7-0.3-1-0.2c-1.5,0.4-3.1,1.1-4.6,1.2C597.2,311.4,596.5,312.1,596,313.4z"/>
	<path class="st3" d="M553,269.3c-0.1-1.3,0.2-2.6,0.5-3.8c1.4-5.5-2.8-10-8.3-8.8c-4.4,1-8.6,2.5-12.1,5.3c-2.3,1.9-5,1.2-7.6,1.3
		c-0.2,0-0.6-0.2-0.7-0.4c-1.3-1.8-3.1-2-5-1.8c-1,1.2-1.9,2.3-3.1,3.3c-1,0.7-1.4,1.7-1.7,2.9c-0.6,2.7-0.2,5.4,0.8,7.8
		c0.9,2.3,1.8,4.7,4.6,5.8c2.6,1,3.5,3.4,3.2,6.2c-0.1,1.1-0.4,2.1-0.6,3.1c-0.2,0.9,0,1.4,1,1.7c1.7,0.5,2.9,1.5,3.7,2.8
		c1.1-2.4,3.2-4.8,4.6-6.5c5.5-6.3,13.1-9,20.9-11.2c3.4-1,6.8-1,10.4-1.3c2.3-0.2,3.6,0.1,5.6,0.6c1.4,0.4,4.1,0.5,4.9,1.6
		c-3.5,0.2-6.8,0.4-10.3,0.5c-3.6,0.2-7.3,2-10.6,3.4c-4.3,1.8-8.2,4.1-12,6.9c-2.3,1.7-3.8,4-5.3,6.2l0.1,0.1
		c0.7,0.8,0.1,1.5-0.4,2.2c-0.8,1.1-0.4,2.4,0.9,2.6c1.8,0.3,3.5,0.9,4.9,2.2c0.4,0.4,0.8,0.3,1.1-0.2c0.2-0.3,0.4-0.6,0.6-0.9
		c5.4-6.9,12.1-11.9,20.7-13.9c5.5-1.3,10.7-0.5,15.6,2.3c1.3,0.8,2.7,1.3,4.2,1.7c2.1,0.6,4.3,1.1,6.1,2.4c0.3,0.2,0.7,0.3,1.1,0.3
		c2,0,3.9,0.6,5.6,1.6c0.9,0.5,1.5,0.3,2-0.6c0.2-0.4,0.5-0.7,0.8-1.1c-1.1-1.5-2.3-3-3.5-4.5c-0.9-1.1-1.9-2.1-2.9-3.1
		c-0.9-0.9-1.9-2-2.3-3.3c-0.4-1.5,0.5-2.8,2-3.1c0.5-0.1,1-0.1,1.5,0c-2.1-2.1-4.1-4.3-6.4-6.2c-2.4-2-5-3.3-7.9-4.3
		c-6.6-2.2-13.3-2.1-20-1.2C557.6,268.4,555.4,269.2,553,269.3z"/>
	<path class="st3" d="M403.1,294.7c1.4,0.5,2.3,0.1,3.4-0.6c2.5-1.6,5.2-2.8,8.2-3.2c1.3-0.2,2.5-0.5,3.8-0.8
		c5.6-1.6,11.1-0.7,16.1,1.9c5.3,2.7,10,6.4,13,11.7c0.5,0.9,1.2,1.7,1.8,2.6c1.2,1.7,2.3,1.8,3.9,0.4c0.5-0.5,0.9-1,1.2-1.6
		c0.5-0.9,0.9-1.8,1.5-2.7c0-0.4,0.1-0.6,0.4-0.7c-1.2-1-2.3-2.1-3.3-3.3c-1.3-1.5-2.7-3.3-2.8-5.3c-0.2-2.2,1.8-3.5,3.8-3.5
		c2.4,0,4.8,1.3,6.8,2.5c0.9,0.6,1.8,1.2,2.6,1.8c0.9,0,1.6-0.2,2.2-0.6c0.1-0.2,0.1-0.5,0.2-0.7c0.2-1.1,0.6-2,1.2-2.8
		c0-0.1,0-0.3,0-0.4c-0.4-2.8,0.5-5.2,2.3-7.1c2.4-2.4,2.6-5.6,3.3-8.5c0.2-0.7,0-1.1-0.8-1.3c-2.5-0.7-3.5-2.6-3.6-5
		c-0.1-2.3-0.6-4.6-1.2-6.8c-0.5-0.1-1-0.1-1.5-0.1c-0.6,0-1.2-0.3-1.8-0.4c-2.1-0.2-3.6,0.8-4.2,2.9c-0.9,3.1-1.6,3.7-4.8,3.9
		c-0.3,0-0.6,0-0.9,0c-1.6,0-3.1,0.4-4.3,1.3c-1.2,0.9-2.3,0.7-3.4,0.1c-3.4-2-7.3-2.4-11.1-2.7c-0.5,0-1-0.1-1.5-0.1
		c-1.5,0-3,0.2-4.1,1.6c-1.8-0.1-3.6-0.3-5.4-0.1c-0.6,0.1-1.2,0.1-1.8,0.3c-6.5,1.4-12.4,4.1-17.7,8.1c-0.7,0.5-1,1-0.7,1.9
		s0.8,1.2,1.7,1.2c0.5,0,1.1,0,1.9,0c2.6-0.9,5.2-1.6,7.9-2c3.7-0.5,7.3-0.4,10.9,0.4c3.2,0.7,6.4,2,8.4,4.7
		c0.7,0.9-0.3,2.1-1.2,2.1c-2.7,0.1-4.7-1.5-7.3-1.8c-2.5-0.3-5.2,0.4-7.6,1c-4.4,1.1-8.9,2.7-12.4,5.6c-1.7,1.4-3.2,2.9-4.4,4.8
		c-0.3,0.5-0.6,1-0.9,1.5C401.6,294.5,402.3,294.4,403.1,294.7z"/>
</g>
<g>
	<path class="st4" d="M298.5,498.8c-2.6-2.3-5.2-4.7-7.7-7.1c-1.6-1.5-3.3-2.6-5.5-2.9c-1-0.2-2-0.6-3-0.9c-2.1-0.7-2.1-0.8-3.6,1.1
		c-0.8,0.9-1.4,2-2.1,3c-1,1.4-2,2.8-3.3,4.1c-0.4,0.4-1,0.7-0.8,1.2c0.2,0.6,1,0.7,1.6,0.7c0.5,0,1.1-0.1,1.6-0.1
		c2,0,4.1-0.1,6.1-0.1c2,0.1,3.4,1.3,3.8,3c0.5,1.7-0.2,3.5-1.9,4.4c-1.8,0.9-2.8,2.5-3.7,4.2c-2.4,4.5-4,9.3-5,14.4
		c-0.8,3.8-1.4,7.7-1.6,11.6c0.6,0,0.7-0.4,0.9-0.8c2-3.6,4.3-7,6.8-10.2c3.6-4.7,7.6-9.1,13-11.9c0.7-0.4,1.1-1,1.5-1.7
		c1.6-2.8,2.8-5.7,3.8-8.8C299.8,500.7,299.6,499.8,298.5,498.8z"/>
	<path class="st4" d="M272.6,441.1c0.4,1.1,0.7,2.2,1.5,3.2c1-0.7,0.8-1.6,0.8-2.4c-0.2-5.1,0.3-10.2,2.1-15c0.4-1,0.1-1.5-0.8-2
		c-2.1-1.1-3.2-2.9-3.7-5.2c-0.5-2.5-1-4.9-1-7.4c-0.1-5.5,0-10.9,0.4-16.4c0.3-3.9,1.1-7.7,2-11.4c0.3-1.2,0.4-2.1-1.1-2.6
		c-1.2-0.4-1.8-1.5-2-2.8c-0.2-1.1,0.2-2.1,0.6-3.1c2.4-5.6,5.7-10.5,10.5-14.4c1.1-0.9,1.7-1.9,2.1-3.1c0.9-3.1,1.9-6.3,2.5-9.5
		c0.7-3.4,1.3-6.9,1-10.4c-0.1-1.3,0.1-2.3,0.8-3.4c1.6-2.6,3.2-5.2,3.9-8.2c1.3-4.9,2.2-10,2-15.1c-0.1-4.5-0.8-8.9-3.5-12.8
		c-0.6-0.9-0.3-1.5,0.1-2.3c1.8-2.9,3.8-5.7,6.2-8.1c3.4-3.5,6.7-7.1,10.3-10.4c1.7-1.5,3-3.5,4.8-5.7c-2.2,0.2-3.9,0.4-5.5,0.6
		c-2.6,0.3-4.5,2-6.9,2.8c3-3,4.5-6.8,6.3-10.4c0.4-0.7,0.9-1.2,1.4-1.8c2.9-3.1,5.1-6.8,6.9-10.6c0.4-0.9,0.4-1.8,0.2-2.8
		c-2-8.7,0.3-16.6,4.8-24.1c0.3-0.6,0.8-1.1,1.3-1.6c1.8-1.7,2.8-3.7,3.7-6c0.9-2.2,0.6-4.1-1.1-5.8c-3.2-3.5-2.1-8,2.4-9.7
		c1.2-0.4,2.4-0.6,3.6-0.8c-1.2-2.3-2.7-4.4-3.5-6.9c-0.2-0.7-0.8-1.3-1.2-1.9c-3.4-4.7-6.4-9.6-9.5-14.4c-1.8-2.8-2.8-5.9-3.6-9
		c-0.8-2.9-1.5-5.8-1.6-8.9c-0.1-3.4,0.7-6.6,2.2-9.6c0.7-1.4,1.1-2.8,1.3-4.3c0.6-4.4,1-8.7,0.1-13.1c-0.2-0.8-0.2-1.6-0.3-2.5
		c-0.2-1.9-0.5-3.8-1.5-5.6c-1.6-3.1-2.7-6.4-4-9.6c-0.3-0.8-0.6-1.7-1-2.5c-1.3-2.7-1.5-5.5-1.3-8.4c0.1-2,1.1-3.6,2.6-4.9
		c2.8-2.5,7-3,10.5-1.3s7,3.6,10.2,5.9c1.9,1.3,2.2,1.1,2.7-1.2c0.9-4.8,0-9.3-1.8-13.7c-0.8-1.9-1.3-3.8-1.4-5.9
		c-0.2-2.9,1-5.5,2.9-7.3c-1-0.8-1.9-1.8-2.4-3.1c-0.3-0.6-0.7-1.1-1.2-1.6c-5.1-5.2-10.9-9.4-17.5-12.6c-4.4-2.1-8.5,0.1-9,4.9
		c-0.5,5.1-0.5,10.2-0.1,15.2c1,13.5,0.9,26.9-1.5,40.2c-0.4,1.9-0.7,3.9-0.4,5.9c0.4,2.7,0,5.3-1.1,7.8c-0.4,1-0.7,2-0.9,3.1
		c-0.7,5.8-0.6,11.7,0.2,17.5c0.7,5.6,2.8,10.7,5.4,15.6c3,5.8,5.5,11.8,8.3,17.8c1.1,2.4,1.6,4.9,0.8,7.5c-0.3,1.1,0,1.9,0.5,2.8
		c1.7,3.3,2.6,6.8,1.7,10.6c-0.4,1.7-0.3,3.1,0.7,4.5c1.1,1.6,1.1,3.4,0.3,5.2c-0.2,0.6-0.4,1.1-0.6,1.7c-1.5,4.6-5.3,7-9.9,5.6
		c-4-1.2-8-1.5-12.1-1.8c-0.4,0-0.9-0.3-1.1,0.3c0.4,0.7,1.1,1,1.7,1.5c3.5,2.7,7.3,5,10.6,7.9c1,0.9,2.1,1.8,2.9,2.9
		c1.7,2.6,0.7,5.2-2.3,5.9c-0.9,0.2-1.5,0.5-2.2,1.1c-0.6,0.6-1.3,1-2,1.4c-5.8,3.2-10.7,7.7-16,11.6c-2.3,1.6-3.9,3.9-5.6,6.4
		c1.2,0.4,2,0.2,2.9,0.1c1.5-0.2,2.9,0.2,3.8,1.5c1,1.4,0.8,2.9,0,4.3c-0.6,1-1.3,1.9-2,2.8c-0.8,1-1.4,2.1-1.2,3.5
		c0.2,1.7-0.3,3.3-0.8,4.9c-0.6,1.9-1.5,3.6-2.3,5.4c-3.8,8.7-5.8,17.7-4.7,27.3c0.6,5.3,1.2,10.6,1.7,15.9c0.3,3.1-0.3,5.9-1.8,8.5
		c-0.5,0.8-1.1,1.7-1.2,2.7c-0.4,3-1.6,5.7-2.7,8.4c-0.2,0.6-0.7,1.2-0.4,2c0.4,0,0.7,0,1.1,0.1c3.4,0.6,4.8,3.8,3,6.7
		c-0.3,0.4-0.6,0.9-1,1.2c-1.9,2-3.1,4.3-3.9,6.9c-1.2,3.9-2,7.8-2.3,11.8c-0.8,9.5-0.6,19-0.4,28.5
		C266.2,417.9,268.7,429.6,272.6,441.1z"/>
	<path class="st4" d="M445.3,315.2c0.5-0.2,0.9-0.4,1-1.1c0.6-3.6,0.6-3.6-1.9-6.7c-0.6-0.8-1.2-1.5-1.9-2.3
		c-0.3-0.3-0.5-0.9-1.4-0.8c1.8,4.4,1.4,8.6-0.5,12.9C442.3,316.4,443.8,315.8,445.3,315.2z"/>
	<path class="st4" d="M630.5,591.2c1.2-1.9,2-3.9,2.7-6c0.9-2.5,2-4.9,3.7-7c1.7-2.2,3.5-4.4,5.2-6.6c1.9-2.4,2.3-5.2,2.2-8.2
		c0-0.5-0.2-0.9-0.5-1.2c-1.5-1.5-2.2-3.4-2.5-5.5c-0.1-0.6-0.4-1.1-0.6-1.7c-1.4-3-1-5.3,1.4-7.6c1.7-1.6,3.7-2.6,6-3.1
		c2.4-0.6,4.7-1.2,7.1-1.6c4.8-0.8,9.5-0.9,14.2,0.8c0.6,0.2,1.2,0.6,2,0.3c0.6-2.2,0.8-4.4,1.1-6.7c0.7-5.2,0-10.1-2.8-14.7
		c-0.4-0.6-0.7-1.2-1-1.8c-1.7-3.5-1.2-6.6,1.5-9.4c1.1-1.1,2.5-2,3.8-2.9c3.4-2.3,5.9-5.2,7.3-9.1c0.7-2,1.3-4,1.9-6.1
		c0.6-2.2,0.5-4.3-0.3-6.5c-0.3-0.9-0.7-1.9-0.9-2.8c-0.4-2.6,1.3-4.4,3.9-4.5c1.4,0,2.5,0.5,3.6,1.3c2.5,1.9,4.5,4.3,6.2,6.9
		s3.5,5.2,5.4,7.6c3.2,3.9,6.1,8,8.5,12.4c1.3,2.3,2.4,4.4,1.1,7c1.2,1.5,2.2,3.2,3,5.2c2.2,5.5,3.2,11.1,3.9,16.9
		c0.2,1.4,0.4,2.7,0.5,4.1c0.2,6.5-0.7,12.9-2,19.2c-1.1,5.3-2.4,10.5-2.9,15.8c-0.5,5.2-0.4,10.4,2.4,15.2
		c2.9,4.9,4.2,10.4,5.6,15.8c1,3.9,1.7,7.9,2.1,11.9c1.7-0.3,3.4-0.5,5.2-0.7c3.2-0.3,6.4-0.6,9.6-0.7c1.8-3.8,3.1-7.7,3.3-12
		c0.1-2.1,0.2-4.3,0.5-6.4c0.5-3.3,3.5-4.6,6.3-2.6c0.5,0.3,0.9,0.8,1.3,1.2c0.4,0.3,0.5,1,1.3,0.8c0.2-0.3,0.5-0.7,0.7-1.1
		c2.6-4.9,5.3-9.8,7.9-14.7c1.2-2.2,1.8-4.6,2.4-7.1c1.5-6.6,2.1-13.2,1.2-19.9c-0.5-3.7-0.1-7.4,0.7-11.1
		c1.3-6.1,4.8-10.4,10.8-12.5c1.9-0.7,3.8-1.4,5.8-2.1c2.4-0.8,2.4-0.8,1.2-3.2c-1-2-2.3-3.8-3.6-5.5c-6.7-9.3-13.6-18.5-19.9-28.1
		c-0.3-0.4-0.6-0.9-0.8-1.3c0.2,1.9-0.1,3.8-0.7,5.5c-1,2.8-1.6,5.7-1.8,8.6c-0.3,4.8-1.7,9.4-2.5,14.1c-1.1,6.3-2.4,12.5-4,18.6
		c-1.5,5.6-3.8,10.8-7.1,15.6c-0.8,1.1-1.8,2-3.2,2.3c-2.9,0.7-4.8-0.9-4.8-4.8c0.9-2.9,0.1-6.5,0.7-10.1c0.2-1.3,0.1-2.6,0.1-3.9
		c0-0.8-0.4-1.3-0.9-1.8s-0.9-1.2-1.5-1.7c-2.3-2.5-2-5.7-2.6-8.7c-0.3-1.4-0.5-2.7-1.7-3.8c-2-2-3.1-4.8-3.2-7.6
		c-0.1-1.3-0.2-2.5-0.3-3.8c-4.2-1.8-7.5-4.6-9.6-8.8c-3.5-7-4-14.4-2.4-21.9c0.1-0.6,0.5-1.1,0.7-1.7c0.4-0.8,0.9-1.6,1.3-2.4
		c0.3-0.6,0.4-1.1,0.2-1.7c-1.7-4.8-3.4-9.6-5-14.4c-0.3-0.8-0.7-1.3-1.6-1.3c-2.1,0-4.3,0-6.4,0c-0.5,0-1.2,0-1.5,0.4
		c-0.9,1.6-2.4,2.7-3.4,4.3c-0.6,1-0.6,1.8,0.1,2.7c0.3,0.4,0.5,0.7,0.8,1.1c1.4,2.4,1.4,4.7-0.2,6.6c-1.6,1.9-4.1,2.4-6.7,1.3
		c-1.3-0.5-2.5-1.2-3.5-2c-2.7-2-5.7-2.8-9-2.6c-1.1,0.1-2.3,0.1-3.4-0.1c-2.2-0.5-3.7-1.7-4.4-3.8c-0.7-2.1-0.1-4.1,1.4-5.7
		c0.5-0.5,1-1,1.6-1.3c2.5-1.3,3.6-3.6,4.3-6.2c0.7-2.4,1.1-4.9,1.2-7.4c0.2-4-0.1-8.1,0.4-12.1c0.1-0.8-0.3-1.5-0.7-2.1
		c-1.5-2.1-3-4.2-4.4-6.4c-2.1-3.2-0.7-6.9,3.1-7.8c1.8-0.5,3.6-0.3,5.4,0.2c0.6,0.2,1.1,0.6,1.8,0.2c-0.2-1.2-0.8-2.2-1.4-3.3
		c-2.4-4.1-4.8-8.3-6.8-12.6c-1.8-4-2.6-8.1-2.1-12.4c0.6-5.6,1.9-10.9,5.6-15.4c0.7-0.9,0.6-1.4-0.4-1.9c-1.4-0.8-2.9-1.3-4.4-1.9
		c-2-0.8-3.4-2-3.5-4.3c0-0.7-0.3-1.1-0.8-1.6c-3-2.6-6.3-4.7-10.1-6.1c-0.8-0.3-1.6-0.6-2.4-0.4c-1.8,0.5-3.6,0.2-5.4-0.1
		c-0.9-0.1-1.8-0.2-2.6-0.3c-0.5,1.2-1,2.4-1.3,3.7c-0.9,3.2-1.6,6.4-0.2,9.6c0.9,2.1,1.9,4.1,3.1,6.1c2.4,3.9,4.5,7.9,6.2,12.1
		c0.8,2,1.3,4.2,1.7,6.3c0.2,0.8,0.3,1.8,0,2.5c-1,2.5-1.2,5.1-1.5,7.8c-0.4,3.4-1.5,6.7-3.2,9.6c-2.3,4-2,8.3-1.9,12.6
		c0.1,5.1,2,9.7,3.2,14.6c0.5,2.1,1.6,3.9,2.9,5.6c0.6,0.9,1.3,1.7,1.7,2.7c0.7,1.9,0.3,3.7-1,5c-1,1-3,1.2-4.6,0.3
		c-2.7-1.4-5.2-0.7-7.5,0.8c-1.6,1.1-2.9,2.6-3.8,4.4c-2.5,4.8-5.4,9.5-9.6,13.1c-1.4,1.2-3,2.3-4.5,3.4c-0.9,0.7-2,0.5-3,0.9
		c-0.6,0.2-1.2,0-1.9,0.7c0.9,1.1,1.7,2.2,2.7,3.2c1.6,1.5,3,3.2,4.4,4.9c2.1,2.6,2.6,5.5,1.3,8.5c-1.4,3.1-4.1,4.6-7.4,4.9
		c-0.9,0.1-1.8,0.1-2.7,0c-1.1-0.1-1.6,0.3-1.4,1.4c0.5,5.1,1.3,10.1,3.6,14.7c1,2,2.5,3.6,4.2,5c1.4,1.3,3,2.3,4.2,3.8
		c2.5,3.3,1.3,7.9-2.3,9.9c-2.4,1.2-4.8,2.1-7.3,3c-0.8,0.3-1.5,0.3-2.2,0.3c-1.3,0.1-2,0.6-2.5,1.9c-2.6,7.5-5.1,15.1-6.3,23
		c-1.3,8.3-4.7,15.7-10,22.1c-2.5,3-5.2,5.9-8.7,8c-4.2,2.6-8.2,5.5-11.9,8.7c-3.2,2.7-6.8,4.8-10.3,7.1c-0.7,0.5-1.5,0.8-2.1,1.3
		c-1.8,1.4-3.8,2.5-6,2.9c-0.8,0.2-1.3,0.6-1.8,1.2c-2,2.3-4,4.6-6,6.9c-0.5,0.5-0.9,1-1.6,1.3c-0.1,2.8-0.9,5.4-2.2,7.8
		c-0.4,0.8-0.9,1.6-1.5,2.3c-0.7,1-1.6,1.8-2.3,2.8c-1.3,1.8-2.5,3.5-2.9,5.8c-0.7,4.2-3.1,7.7-5.5,11.1c-2,2.8-3.3,5.9-4.8,9
		c-0.3,0.5-0.5,1.1-0.7,1.7c-1.4,2.8-2.2,3.3-5.3,3.2c-2.1-0.1-3.8-1.8-3.9-3.9c-0.1-1.1,0-2.1-0.1-3.2c-0.2-1.5-0.8-1.9-2.1-1
		c-2,1.4-4.3,2.2-6.3,3.6c-0.4,0.3-0.8,0.5-1.2,0.6c-3.7,0.7-4.9,3.7-6.3,6.6c-0.3,0.5-0.4,1.1-0.6,1.7c-0.7,1.8-2.1,2.9-4,2.9
		c-1.8,0.1-3.5,0.4-5.2,0.7c-0.8,0.1-1.5,0-1.9-0.5c-1.2-1.5-2.9-2.6-3.8-4.4c-0.8-1.7-2-3.1-3.4-4.8c-0.3,1.1-0.1,1.9,0.1,2.7
		c0.3,1.9,0.6,3.9-0.5,5.8c-1.2,2.2-3.4,3-5.7,2.1c-2.5-1-4.3-3-5.8-5c-1.8-2.5-4-4.5-6.2-6.6c-0.7-0.7-1.4-1.4-1.9-2.2
		c-1.5-2.1-3.4-3.9-5.3-5.6c-1.9-1.6-3.2-3.6-4.1-5.9c-0.5-1.2-1-2.3-1.7-3.5c-0.9,0.3-0.8,1.1-1.1,1.7c-0.8,2-1.6,4.1-3.2,5.7
		c-3.1,2.9-6.4,2.8-9.1-1.1c-1.5-2.1-2.4-4.4-2.7-7c-0.5-4.4-1.3-8.8-1.6-13.3c0-0.6-0.2-1,0.4-1.4c0.9-0.7,0.5-1.2-0.2-1.8
		c-4.3-3.5-8.5-7.3-10.6-12.6c-0.8-2-1.7-4-2.6-6c-0.4-1-1-1.9-1.7-2.7c-1.8-2-3.4-4.1-5.3-5.9c-2.4-2.2-4.5-4.7-5.5-7.9
		c-0.1-0.4-0.5-0.7-0.8-1.1c-1-0.8-1.9-1.7-2.9-2.5c-1.2-0.9-1.3-0.9-2,0.4c-0.6,1.2-1.5,2-3,2c-1.1,0-2-0.4-2.5-1.2
		c-1.2-1.8-2.5-3.5-2.5-5.9c0-1.6-0.7-3.2-0.8-4.9c-0.1-0.8-0.6-1.2-1.4-1.1c-0.3,0-0.6,0.1-0.9,0.2c-3,0.8-6,0.8-9,0.5
		c-0.3,0-0.6-0.1-0.8-0.2c-3.4-2-5.1-5.8-4.3-9.7c0.5-2.4,0.5-4.9,1.6-7.2c0.4-0.7,0.1-1.4-0.3-2.1c-2.8-5.2-3.9-10.9-4.3-16.8
		c-0.1-1.1,0.2-2.1,0.3-3.2c0.1-1.5-0.1-1.8-1.6-1.8c-0.7,0-1.3-0.1-1.7-0.5c-1.6-1.5-3.4-3-4.1-5.3c-0.9-2.7-0.1-5.1,1.6-7.2
		c1.6-2,3.3-4,4.7-6.1c0.4-0.6,0.8-1.3,1.1-2c0.9-2.1,0.8-2.1-1.1-3.4c-1.9-1.4-3.6-3-4.5-5.3c-0.4-1.1-1.1-1.4-2.2-1.4
		c-3.7-0.1-6.2-2.7-6.4-6.5c-0.2-3.6,0.2-7.3,0.7-10.9c0.4-2.7,0.7-5.4,1.1-8.1c-3.8,1-7.7,1.9-11.6,2.9c-1.3,0.3-2.6,0.7-3.8,1.1
		c-3.3,1-6.5,2.4-9.7,3.7c-1.7,0.7-2.8,2.3-3.9,3.7c-1.9,2.5-4.3,3.9-7.6,3.7c-2.4-0.2-4.9-1.8-5.7-4.1c-0.7-2-0.7-4,0-6
		c2.3-6.6,4.9-13.1,8.2-19.4c1.1-2.2,2-4.5,2.5-7c0.2-0.9,0.8-1.6,1.1-2.4c0.9-2.3,0.7-4.8,0.6-7.2c0-1-0.8-0.9-1.5-0.9
		c-2.2,0-4.4,0.2-6.6-0.1c-2.4-0.2-4.4-1.5-5.5-3.8c-1.1-2.2-0.5-4.1,0.9-5.9c0.9-1.1,1.8-2.2,3.1-2.9c4-2.2,7.5-5.1,10.9-8
		c1.8-1.5,3.6-2.5,6-2.2c0.5-1.9,1.8-3.4,2.5-5.3c1-2.6,0.7-4.9-0.1-7.2c-0.2-0.5-0.4-0.9-0.5-1.5c-0.3-5.3-1.2-10.5-2.1-15.8
		c-0.2-1.3-0.4-2.7-0.5-4c-1.2,0.2-2.4,0-3.6-0.7c-2.1-1.2-2.8-3.1-2.5-5.4c0.2-1.4,0.6-2.7,0.8-4c0.2-1.2,0.8-2.3,0.6-3.8
		c-1,0.7-1.8,1.3-2.6,1.8c-2.3,1.5-4.7,1.5-6.6,0.1c-1.9-1.5-2.5-4-1.4-6.6c0.6-1.6,1.6-2.9,2.5-4.3c0.6-0.9,1.4-1.6,1.8-2.6
		c-0.2-0.1-0.3-0.2-0.5-0.2c-0.3,0-0.6,0.1-0.9,0.1c-5.3,0.8-10,3.1-14.3,6.1c-7.1,4.9-11.3,11.7-13.4,20c-0.5,1.9-0.4,2,1.4,2.7
		c2.8,1,5,2.8,7.1,4.9c2.7,2.8,4,5.9,2.9,9.7c-0.1,0.2,0,0.4,0,0.6c0.9,0,1.4-0.7,2-1.1c0.8-0.5,1.6-1.1,2.6-1.4
		c2.4-0.8,4.5-0.4,6.3,1.4c1.7,1.7,2.1,4.2,1.1,6.6c-0.5,1.3-1.4,2.3-2.4,3.3c-1.9,1.8-3.5,3.8-5.2,5.8c-3.6,4.3-5.5,9.2-5.5,14.8
		c0.1,3.8-1.5,7-4.2,9.8c-2.5,2.5-4.4,5.5-6.9,8.5c2.4,0.6,4.5,1,6.4,2c2.2,1.1,3.7,2.7,3.8,5.3c0.1,2.5-1.3,4.1-3.3,5.3
		c-2.5,1.5-5.1,2.7-7.8,3.7c-0.7,0.3-1.5,0.5-2.1,1.1c0.5,0.8,1.3,1.1,1.9,1.5c2.9,1.8,5.8,3.6,8.7,5.4c2.9,1.7,4.5,4.2,4.7,7.6
		c0.2,2.1,0.3,4.1-0.1,6.1c-0.6,3.7-1.1,7.4-2,11c-0.1,0.5-0.5,1.1,0,1.7c0.8-0.1,1.4-0.6,2.1-0.9c6.5-3.1,13.1-6.2,19.7-9
		c1.5-0.7,3.1-1.2,4.9-1c4,0.3,6.5,4.1,5.2,7.9c-0.3,0.8-0.7,1.5-1.2,2.2c-3.5,4.9-6.8,9.9-9.8,15.1c-8,13.5-11.9,28-10,43.8
		c0.1,0.6-0.1,1.2,0.5,1.6c0.8-0.1,1-0.9,1.4-1.4c1.6-2,3.7-2.2,5.8-0.6c0.9,0.7,1.6,1.7,2.2,2.6c1.7,2.5,3.6,4.9,5.6,7.1
		c0.1-0.4,0.3-0.8,0.4-1.2c1.2-3.3,2.7-6.4,5.4-8.9l0,0c-1.3-1.5-1.3-4,0.9-5.8c0.3-0.2,0.6-0.5,0.9-0.7c2.9-2.1,3.6-5.1,2.1-8.4
		c-0.4-0.8-0.8-1.6-1.3-2.4c-0.7-1.2-1.7-1.9-3.2-1.7c-0.3,0-0.6,0-0.9,0c-1.3,0-2.2-0.5-2.8-1.7c-0.5-1.1-0.3-2.2,0.4-3.2
		c1-1.4,2.3-2.4,3.9-3c1.3-0.4,2.2-1.1,2.8-2.4c0.6-1.3,1.6-2.4,2.5-3.5c1-1.1,1.9-2.2,2.5-3.5c0.9-1.7,2.2-2.3,3.7-1.9
		c1.4,0.4,2.2,1.8,2.1,3.6c0,0.2-0.1,0.4-0.1,0.7c-1.1,6.3-0.1,12.2,3.2,17.7c2.7,4.6,5.9,8.9,8.8,13.3c1.3,1.9,2.6,3.7,4.1,5.4
		c1.8,2,2,3.9,0.7,6.3c-1,1.8-1.5,3.8-1.6,5.9c-0.8,11.8,1.9,22.8,7.3,33.2c2.1,4,4.9,7.5,8.8,10c0.9,0.6,1.8,1,2.9,1.1
		c1.8,0.1,2.2,0.7,2.2,2.5c0,2.4,0.4,4.8,0.8,7.2c0.2,1.2,0.7,2.1,1.8,2.7c2.1,1.2,3.3,3.1,4,5.3c0.6,1.9,1.2,3.8,1.8,5.6
		c0.5,1.5,0.7,1.5,2,0.6c0.3-0.2,0.5-0.4,0.7-0.5c3.8-2.7,8.3-2.1,11.4,1.5c1.3,1.5,2.1,3.3,2.7,5.2c1.1,3.3,2.2,6.6,3.6,9.8
		c3,7.1,7.4,13.2,13,18.4c0.7-0.3,0.9-1,1.3-1.4c2-2.2,4.9-2.3,7.1-0.3c0.7,0.6,1.2,1.4,1.6,2.2h96.9c0.5-1.9,1-3.8,1.6-5.7
		c1.6-4.7,2.8-9.4,3.5-14.4c0.6-4.4,1.7-8.7,4.3-12.4c2-2.9,5.1-4.2,8.3-2.6c0.8,0.4,1.4,0.3,2-0.4c1.7-1.9,3.9-3.2,6.1-4.2
		c2.6-1.2,5.2-2.2,7.9-2.9c1.2-0.3,2.3-0.8,3.3-1.5c4.1-3.1,7.5-6.9,10.7-10.8c0.8-1,1.4-2.2,1.9-3.4c1-2.5,1.8-5,2.3-7.6
		c0.8-4.4,1.6-8.8,2.3-13.2c0.5-2.9,1.3-5.8,2.6-8.5c1.8-3.9,4.8-5.3,9-4c1.4,0.4,2.9,1,4.2,1.6c3.4,1.5,6.6,0.7,9.5-1.1
		C627.7,594.9,629.2,593.2,630.5,591.2z"/>
	<path class="st4" d="M305.7,569.6c-3.6-9-5.5-18.3-6.6-27.9c0-0.4,0.1-0.9-0.5-1.2c-0.4,0.2-0.5,0.5-0.7,0.9
		c-1,2.2-1.7,4.4-2.4,6.6c-4.5,14.4-5.1,29.1-4.4,44c0.1,3,1,5.6,2.4,8.2c5.7,10.5,12.2,20.3,19.9,29.4c0.6,0.3,1.2,0.6,1.9,0.9
		c-1.1-3.6-1.9-7.2-2.3-11c-0.3-3.1-0.7-6.3-0.4-9.5c0.3-3.7,0.7-7.4,0.7-11.1c0-1.1-0.3-1.8-1.3-2.4c-2.9-1.7-4.8-4.3-6.2-7.3
		c-0.7-1.6-1.1-3.3-1.2-5c-0.3-4.7,0.3-9.4,1.1-14C305.7,569.9,305.7,569.8,305.7,569.6z"/>
	<path class="st4" d="M402,307c-0.3,0.6-0.1,1,0.2,1.5c0.8,1.6,1.6,3.2,2.5,4.8c0.4,0.8,0.8,1.6,2.1,2.2c-0.7-5.4-0.8-10.3,1.6-15.1
		C405.2,301.7,403.4,304.2,402,307z"/>
	<path class="st4" d="M601.9,369c3.2-1.1,5.4-3,7.1-5.7c3.2-4.8,5.8-9.8,8.7-14.7c2.2-3.6,4.3-7.2,8.2-9.3c1.1-0.6,2.1-1.5,3.1-2.3
		c0.8-0.6,1.5-1.3,1.9-2.2c1-2,0.6-2.8-1.5-3.1c-3.2-0.4-5.9-1.6-6.6-5.2c-0.3-1.5-1.6-2.3-3.1-1.8c-3.8,1.2-7.5,0.6-11.2-0.5
		c-1.8-0.5-1.8-0.5-2.9,1.1c-1.8,2.8-3.6,5.4-6.3,7.5c-1.8,1.4-3.5,2.9-5.1,4.5c-2.1,2.1-4.4,3.7-7.2,4.7c-3.8,1.4-7.5,3.3-11.7,4
		c0.2,0.3,0.3,0.5,0.4,0.6c1.4,1.8,1.3,3.2-0.6,4.3c-1.9,1.1-4,1.3-6.2,1.4c-5.7,0.2-11.4-0.2-17.1-0.7c-3.7-0.4-3.7-0.4-4.8,3.3
		c-0.1,0.3-0.1,0.6-0.2,0.9c-0.4,1.7-1.3,3.2-2.5,4.6c-3.3,3.9-7.9,4.3-11.9,1.1c-0.9-0.7-1.6-1.6-2.4-2.4c-1.6-1.5-3.2-3-5.3-3.8
		c-0.1,0.5-0.2,0.7-0.1,0.9c0.7,2.9,1,6,2.6,8.7c0.4,0.7,0.7,1.5,0.8,2.3c0.4,1.8,0.2,3.5-1.3,4.8c-1.6,1.3-3.4,1.1-5.1,0.2
		c-1.5-0.7-2.6-1.9-3.6-3.1c-1-1.3-2-2.5-3.2-3.5c-1.5-1.2-3-1.7-4.8-1c-1.7,0.7-3.6,0.7-5.4,0.1c-3-1-6.1-1.3-9.2-1.4
		c-8.6-0.2-15.9,2.4-21.4,9.4c-2.1,2.8-5.1,2.4-6.7-0.8c-0.8-1.6-1.2-3.3-1.5-5c-0.6-3.8-0.6-3.8-4.1-2.5c-3,1.1-5.1-0.2-5.4-3.4
		c-0.1-0.7,0.2-1.5-0.3-2.2c-2.4,0.7-4.5,1.5-6.6,2.6c-1.4,0.7-2.8,1.3-4.3,1.4c-1.3,0.1-2.7,0-3.4-1.3c-1.1-2.1-3-3.2-4.9-4.3
		c-4.3-2.6-8.9-5-13.4-7.2c-2.3-1.1-4.6-2.5-7.1-3c-2.4-0.5-4.8-0.9-7.2-1.4c-0.6-0.1-1.2-0.2-1.8-0.2c-2.8,0.3-5.6,0.6-8.4,0.8
		c-2.7,0.2-5.3,0.3-8,0.2c-3.7,0-6.6-1.5-8.7-4.5c-0.7-1-1.5-1.9-2.3-2.8c-0.8-0.8-1.6-1.6-2.8-1.9c-3.5-0.9-5.9-3.7-6.3-7.2
		c-0.1-0.5,0.1-1.1-0.3-1.6c-0.9,0-1.5,0.7-2,1.3c-2.6,3.9-4.5,7.9-3.3,12.8c0.7,2.8,1.1,5.7,1.4,8.5c0.2,2,0.4,4.1,1,6.1
		c0.6,1.8,1.5,3,3.6,3.1c3.2,0.3,5.2,2.2,6.3,5.2c0.3,0.9,0.6,1.7,0.8,2.6c0.7,2.6,2.1,4.9,4,6.8c2.1,2.1,4.5,3.9,7,5.4
		c2.4,1.4,3.7,3.5,4,6.3c0.8,7.7-0.9,14.6-6.6,20.3c-0.5,0.5-0.9,1-1.3,1.6c0.8,0.8,1.7,1.7,2.6,2.4c3.7,2.9,5.8,6.8,6.4,11.4
		c0.3,2.1,1,3.7,2.9,4.7c0.4,0.2,0.7,0.6,0.9,1c0.4,0.7,0.8,1.4,1.3,2c1.5-1.7,3.6-2.8,6.4-3.2c1.4-0.2,2.8-0.5,4.3-0.7
		c1-0.1,2-0.1,2.9,0.2c2.1,0.6,2.6,2.5,1.1,4c-0.4,0.4-0.8,0.7-1.3,0.9c-2.1,1.2-4.4,2.1-5.3,4.7c1.6,2.4,1.9,5.2,1.5,8.1
		c-0.1,1.1-0.1,2.3-0.2,3.4c0,0.6,0,1,0.4,1.5c1.3,1.8,1.4,3.8,1.1,5.9c-1,7-1,14.1-0.2,21.1c0.7,6.1,2.5,11.8,6.1,17
		c5.4,7.8,12,14.5,20.1,19.6l0,0c-0.2-0.6-0.4-1.3-0.5-2c-0.1-0.8,0.2-1.8,0.7-2.6c1.3-1.9,2.4-4,4.3-5.5c0.5-0.4,0.9-0.9,1.3-1.3
		c0.9-0.9,1.2-1.9,0.6-3.1c-1.7-3.6-2-7.5-2.6-11.4c-0.4-2.5-0.4-5-0.4-7.5c0-1.2,0.1-2.4,0.4-3.6c0.5-2.1,0.9-4.2,1.2-6.3
		c0.3-1.9,0.5-4-1.1-6.1c-3.4-4.6-6.2-9.6-7.5-15.3c-0.2-0.7-0.2-1.3-0.3-2c-0.2-4.7-0.3-9.4-0.1-14.1c0.2-3.3-0.7-6.4-1.8-9.4
		c-0.2-0.7-0.7-1.2-1.2-1.6c-4.8-4.2-7.6-9.7-10.3-15.3c-0.8-1.5-0.7-3.2-0.9-4.9c-0.1-1.4-0.4-3.1,0-4.3c0.5-1.7,0.2-3.6,0.9-5.2
		c0.2-0.3,0.3-0.8,0.6-0.9c1.6-1.1,2.9-2.3,3.4-4.7c1.6,1.8,3.4,1.8,5.1,1.6c4.5-0.4,8.4,1.5,12.3,3.5c2.5,1.3,4.9,3,7,5
		c0.7,0.7,1.3,0.7,2.2,0.2c4.2-2.3,8.4-2.2,12.4,0.5c1.5,1,2.9,2,4,3.3c1,1.2,2.2,1.4,3.7,1c2.3-0.6,4.5-1.7,6.9-2.2
		c4.8-0.9,9.6-2.4,14.4-3c6.9-0.8,13.9-1.1,20.8,0.5c1.5,0.4,3,0.3,4.5,0.3c2.4,0,4.7,0.1,7,0.8c0.9,0.3,1.8,0.5,2.2-0.8
		c3.1-1.5,4.2-4.6,6.1-7.1c1-1.4,2.2-2.4,4.1-2.4c2.1,0,3.6,1.3,3.8,3.4c0,0.3,0,0.6,0,0.9c0.1,0.5-0.2,1.2,0.3,1.4
		c0.7,0.3,1.2-0.2,1.8-0.7c2.8-2.6,6.2-4,9.8-4.9c1.4-0.3,2.8-0.7,4.1-1.2c4.5-1.3,8.3,0.8,9.3,5.3c1.1,4.9,0.5,9.6-1.3,14.2
		c-1.7,4.4-3.7,8.8-5.5,13.2c-0.4,1-0.5,2-0.2,3.1c1,3.3,0.9,6.6,0,9.9c-0.2,0.8-0.3,1.6-0.1,2.5c0.7,4.2,0.4,8.4,0.1,12.7
		c-0.3,3.7-1,7.2-2.1,10.7c-0.1,0.4-0.2,0.9-0.1,1.3c1.1,8.8-0.8,17-5.6,24.5c-0.5,0.8-0.6,1.7-0.7,2.6c-0.4,3.3-0.5,6.6,0.1,10
		c0.8,4.4,3.6,7,7.6,8.9c3.4,1.5,6.8,2.1,10.4,1.4c0.8-0.2,1.3,0.1,1.8,0.7s0.5,1.3,0.1,1.9c-0.3,0.6-0.7,1.1-1.4,1.5
		c-3,1.5-5.9,3-9,4.2c3-0.7,6.1-1.3,9-2.5c3.1-1.3,6-3,8.1-5.7c0.9-1.1,1.8-2.2,3-3.1c0.5-0.4,0.9-0.8,1.2-1.4
		c3-5.2,5.7-10.5,6.2-16.7c0.4-5.4,0.8-10.7-0.4-16.1c-0.2-0.7-0.3-1.5-0.3-2.3c-0.1-2.2-0.2-4.4-2.4-5.8c-2.2-4.5-3.7-9.1-3.7-14.2
		c0-1.2,0.4-2.4,1.2-3.4c0.8-1.1,0.5-1.7-0.6-2.3c-1-0.6-1.8-1.3-2.6-2.2c-1.9-2.4-2.1-5.5-0.5-7.8c0.5-0.8,1.2-1.3,2-1.7
		c-0.2-0.2-0.3-0.4-0.4-0.8c-0.3-1.4-0.5-3,0.7-4.3c1.9-1.9,4.2-2.6,6.7-3c1.6-0.3,3.3-0.6,5-0.6c1.3,0,2.4-0.4,3-1.8
		c0.5-1,1.2-1.9,2.2-2.6c0-0.3,0-0.5,0-0.8c0.2-1.6,0.7-3.1,1.5-4.5c1.7-3.3,3.1-6.7,2.5-10.4c-0.5-3.8-0.8-7.7-1.8-11.5
		c-0.9-3.4-2.2-6.6-3.5-9.8c-0.6-1.4-0.9-2.8-0.1-4.2C597,372,599.2,369.9,601.9,369z"/>
	<path class="st4" d="M648.1,639.8c3.7-2.3,7.2-5.1,11.1-7.2c3.2-1.7,5.9-4.1,8.7-6.6c3.1-2.8,4.8-6.2,5.3-10.2
		c-0.4-1-0.7-2.1-0.8-3.3c-0.5-4.3-1.1-8.5-2.2-12.7c-0.3-1.2-0.6-2.5-1.3-3.6c-0.5-0.7-0.5-1.7-0.6-2.6c-0.1-1.7-1-2.6-2.6-2.2
		c-1.7,0.4-3.3,1.1-4.9,1.8c-1,0.4-0.9,1.4-1,2.4c-0.4,3.9-1,7.8-2.3,11.6c-1.8,5.3-4.8,9.9-8.6,14c-3.1,3.3-6.4,6.2-10.5,8.3
		c-2.4,1.2-4.8,2.2-7.5,2.5c-1.1,0.1-1.7,0.6-2,1.5c-1.1,3.6-2.7,6.9-3.5,10.6c-0.7,3.4-0.7,6.7-0.5,10.1c0.1,1.3,0.1,2.5,0.2,3.8
		c3.7-1.5,7.5-2.6,11.6-3c0.5,0,0.9-0.2,1.3-0.3c1.3-0.3,2.1-1.1,2.5-2.4c0.6-1.7,1.2-3.5,1.9-5.1
		C643.7,644.1,645.4,641.5,648.1,639.8z"/>
	<path class="st4" d="M661.3,110.7c5.1-2.1,10.5-3.2,15.9-3.4c3.3-0.1,6.7,0.3,9.6,2.8c2.8,2.5,2.6,8,0.8,10.2
		c-1.5,1.9-3.3,3.6-5,5.2c-0.9,0.9-1.7,1.8-1.4,3.1c0,0.2,0.1,0.5,0,0.7c-1.3,2.7-0.4,5.5-0.4,8.3c0,1.4,0,2.9-0.3,4.3
		c-0.6,2.7,0.4,4.9,2.2,6.9c3.3,3.6,4.7,7.8,4.6,12.7c0,3-0.4,5.9-1.3,8.7c-1.4,4.3-1.7,8.8-1.9,13.2c-0.1,0.8,0,1.7,0,2.5
		c0.1,2.5,0.1,4.9-0.2,7.3c0.3-1,0.8-1.9,1.3-2.9c0.5-0.8,0.8-1.6,1-2.5c0.6-4.9,2.4-9.6,3.8-14.3c2.2-7.3,5.3-14.2,9.5-20.6
		c1.3-1.9,2.6-3.8,3.8-5.7c0.7-1.1,1.3-2.2,1.6-3.5c0.5-2.2,1-4.4,1.6-6.6c2.9-11,4.6-22.2,6.1-33.4c0.1-0.8,0.3-1.7,0-2.6
		c-0.2,0-0.3,0-0.3,0c-0.7,0.7-1.3,2-2.6,1.4c-1.4-0.7-0.6-2-0.4-3c0.5-2.9,1-5.9,0.1-8.8c-0.5-1.7-0.9-3.4-1-5.1
		c-0.1-1.9-0.3-3.8-0.4-5.7c-0.1-2.1-0.9-4-2.3-5.6c-1.7-2-3.2-4.3-4.4-6.6c-0.2-0.4-0.3-1-1.2-1c0.6,3.5,0.8,7,1.1,10.4
		c0.1,1.2,0.2,2.4,0,3.6c-0.5,2.8-2,4.8-4.7,5.6c-2.7,0.8-5.3,0.1-6.7-2.1c-1-1.6-2.2-2.9-3.5-4.1c-4.3,2.2-8.1,5.1-11.5,8.6
		c-2,2-3.6,4.3-5.2,6.6c-3.1,4.3-6.3,8.5-8.9,13.1c-0.4,0.8-1,1.5-1.1,2.6C660.3,111.3,660.8,110.9,661.3,110.7z"/>
	<path class="st4" d="M329,232.9c-0.4,1.3-1.1,2.6,0,3.9c1,1.2,2.4,0.8,3.6,0.5c4.9-1.1,9.5,0,14,1.8c3.4,1.4,6.6,3.5,9.6,5.7
		c1.3,1,2.8,1.9,4.2,2.7c1,0.6,2.1,0.6,3-0.2s1-1.8,0.7-2.9c-0.2-0.7-0.7-1.4-1.2-1.9c-0.7-0.8-1.5-1.5-2.3-2.2
		c-3.2-2.5-6.1-5.5-10-7c-0.2-0.1-0.4-0.3-0.4-0.7c0.4,0,0.9,0.1,1.3,0.1c4.5,0.5,8.8,1.5,13.3,2.2c4.5,0.8,9.1,0.7,13.6-0.1
		c3.1-0.6,5.3-2.2,5.6-5.7c0-0.6,0.3-0.9,0.8-1.2c2-1.2,2.3-2.4,0.8-4.2c-2.1-2.5-4.2-4.9-6.5-7.3c-1.7-1.8-3.9-3.1-6.2-4.1
		c-0.8-0.3-1.2-0.8-1-1.7c0.7-2.6,1.2-5.2,2.3-7.6c1.6-3.3,4.2-5.3,7.8-6.1c0.9-0.2,2,0,2.6-0.7c0.6-0.8-0.2-1.7-0.3-2.6
		c-0.9-4.8,1.3-8.4,6-9.6c0.8-0.2,1.6-0.3,2.5-0.4c1.9-0.2,3.8-0.3,5.7,0c1.1,0.1,1.7-0.1,1.9-1.3c0.4-1.8,1.4-3.3,3.2-3.9
		c1.3-0.5,2.4-1.3,3.7-1.7c0.9-0.3,1.4-0.9,1.7-1.7c0.4-0.9,0.9-1.8,1.3-2.7c1.1-2.6,1.1-5.1-0.3-7.7c-1-1.8-1.8-3.7-2.6-5.5
		c-1.2-2.7,0.4-5.1,3.4-5.2c0.7,0,1.4,0.1,2,0.2c1.8,0.2,3.4,0.2,5-1c0.8-0.6,1.8-0.8,2.7-1.1c5.3-1.4,10.6-1.6,16-0.4
		c4.4,1,8.6,2.6,12.7,4.4c0.5,0.2,1,0.7,1.6,0.6c0.1-0.8-0.6-1.2-0.9-1.8c-0.9-2-1-4,0.3-5.9c1.3-2,3.2-2.7,5.5-2.6
		c1.2,0.1,2.4,0.6,3.4,1.1c5.8,3,12.2,4.8,17.7,8.3c0.8,0.5,1.2,0.4,1.5-0.6c0.4-1.6,0.6-3.1,0.8-4.7c0.3-2,0.4-4.1,1.1-6
		c1.4-3.9,5.2-5.3,8.9-3.4c1.5,0.8,2.7,1.9,3.8,3.2c1,1.2,1.9,2.4,2.8,3.6c1.2,1.6,1.2,1.6,2.8,0.5c0.8-0.6,1.6-1.2,2.4-1.7
		c1.8-1.1,3.6-2,5.7-2.3c2.8-0.4,5.3,0.8,6.7,3.2c0.2,0.3,0.4,0.7,0.5,1c0.3,1,0.8,1,1.7,0.7c2.9-0.9,5.5-2.1,7.2-4.8
		c0.7-1.1,1.8-2,2.9-2.9c2.6-2,5.4-3.3,8.7-3.6c4.9-0.4,8.6,1.7,10.7,6.1c0.6,1.2,1.1,2.4,1.4,3.6c0.4,1.9,1.4,2.7,3.4,2.8
		c3.4,0.2,6.6,1.2,8.9,4c0.9,1,1.8,1.1,3,0.7c2-0.7,4.1-1.2,6.2-1.1c2.1,0,3.4,1,4.2,2.9c0.9,2.1,0.6,4.1-0.3,6.2
		c-0.3,0.7-1,1.3-1,2.3c2.1,0.5,4.3,1,6.5,0.6c1.3-0.3,2.7-0.4,4-0.8c1.6-0.4,3,0.3,4.5,0.2c0.2,0,0.4,0.2,0.5,0.4
		c1,2,2,3.9,1.7,6.2c-0.1,1-0.1,2-0.3,2.9c-0.4,1.7,0,2.9,1.3,4.1c2.7,2.6,4.2,5.8,4.1,9.5c0,1.3,0.4,1.9,1.6,2.4
		c3.6,1.6,5.7,4.5,6.8,8.1c0.5,1.7,0.9,3.5,1.3,5.3c0.2,1,0.6,1.4,1.7,1.5c3.8,0.1,7.3,1.3,10.8,2.7c2.3,0.9,4.5,2,6.8,2.6
		c3.3,0.8,6,2.4,8.7,4.4c2.5,1.9,3,4.3,1.4,7c-0.7,1.3-1.8,2.3-3,3.1c-2.8,1.8-6,2.7-9.3,2.6c-3.5-0.2-7.1-0.3-10.6-1.1
		c-1-0.2-2-0.3-2.9,0c-1.2,0.4-2,1.4-1.9,2.5s0.9,2.1,2.2,2.3c0.3,0.1,0.6,0.1,0.9,0c2.1-0.2,4.2,0.2,6.4,0.3
		c1.4,0.1,2.2,0.7,2.8,1.9c0.7,1.5,1,3,0.8,4.6c-0.1,0.8-0.2,1.7-0.3,2.5c-0.3,2.9,0.2,3.7,2.9,4.9c1.5,0.6,3.1,0.8,4.6,1.2
		c2.9,0.8,2.9,0.8,3.2,3.7c0.4,4.4,3,7.1,7.4,7.6c1.1,0.1,2.3,0.2,3.4,0.2c3.5-0.1,7,0.3,10.4,0.9c2.4,0.4,4.7,1.2,7,1.9
		c1.2,0.4,2.4,0.6,3.8,0.2c-1-2.2-2.6-3.5-4.4-4.5c-3.5-2.1-7.1-4.1-10.6-6.2c-1.6-0.9-1.7-2.3-0.4-3.6c2.6-2.6,2.4-5.4-0.6-7.7
		c-1.7-1.3-3.6-2.3-5.7-2.9c-0.7-0.2-1.4-0.5-2-1.1c-0.5-0.5-0.7-1,0-1.5c1.2-0.8,2.4-1.6,3-3c0.2-0.3,0.7-0.6,1.1-0.7
		c1.7-0.8,3.4-1.3,5.3-1.4c3.8-0.3,7.4,0.2,10.9,1.7c3.7,1.5,6.9,3.8,10.1,6.1c0.6,0.4,1.1,0.9,1.7,1.1c2.7,0.8,5.2,2.3,8.1,2.3
		c2.7,0.1,3.8,1.8,4.5,4.1c-2.2,0.1-4.2,0.5-6.1,0.9c-1.9,0.4-3.9,0.6-5.8,1c-1.9,0.4-4,0.2-5.9,1.5c0.9,0.9,1.9,1,2.8,1.2
		c4.1,1,8.3,1.9,12.2,3.8c1.2,0.6,2.2,1.2,2.9,2.4c0.8,1.6,2,2.8,3.6,3.7c0.9,0.5,1.3,1.2,1.3,2.2c0.3,6.2-0.5,12-5,16.8
		c-1.1,1.1-1,2.1-0.4,3.5c1.9,4.2,3.7,8.5,5.6,12.7c2.4,5.5,2.4,11.2,1.5,17c-1-0.2-1.1-1-1.3-1.7c-1.2-3.6-3.1-6.6-6.8-8
		c-0.5-0.2-1-0.5-1.4-0.8c-4.6-3.1-9.9-3.9-15.3-4.8c-0.3,1.2,0.1,2.2,0.4,3.2c0.7,2,1.6,4,2.7,5.8c3,4.7,6.8,8.8,10.9,12.5
		c1.9,1.8,4.2,3,6.7,4.1c1.5-4.4,4.2-5.2,8.1-2.8c3.2,2.1,5.3,5,6.5,8.5c0.4,1.1,0.8,2.1,1.7,2.9c5.1,3.8,7.8,9.4,10.4,15
		c1.8,3.9-0.2,7.3-4.4,8.2c-0.7,0.2-1.4,0.2-2.2,0.4c0.3,1,1,1.4,1.5,1.9c2.7,3.1,4.6,6.5,5.5,10.6c0.9,4.4,0.6,8.6-1.2,12.7
		c-0.7,1.7-1.3,3.4-1.1,5.3c0.7,5.4,2.8,10.1,7.3,13.4c2.8,2.1,5.9,3.8,8.4,6.2c0.9,0.9,1.5,0,2.1-0.4c0.8-0.6,0.5-1.1,0-1.7
		c-0.4-0.5-0.7-1-1.1-1.5c-3-4-4.9-8.6-6.5-13.2c-1.2-3.3-0.1-5.7,3.1-7c0.7-0.3,1.1-0.7,1.2-1.4c0.9-4.3,1.8-8.6,1.3-13.1
		c-0.7-6.7-1.7-13.2-3.3-19.7c-1.2-4.8-3.4-9.1-6.7-12.8c-1.2-1.4-2.4-2.7-3.4-4.2c-2.5-3.9-1.8-7.8,1.8-10.6c0.9-0.7,2-1.3,2.8-2.3
		c-0.4-0.7-1-1-1.6-1.5c-3.1-2.4-5.8-5.2-7.9-8.4c-4.3-6.5-7.3-13.6-10.2-20.8c-1.3-3.3-0.2-6.3,2.5-8.6c0.9-0.7,1.8-1.4,2.7-2.2
		c2.4-2.2,2.7-3.6,1.2-6.4c-1.7-3.4-3.6-6.7-6-9.7c-0.8-1-1.5-1.9-2.2-2.9c-1.8-2.7-2.4-6.7,1-9.2c0.5-0.4,0.7-0.7,0.4-1.3
		c-1-1.9-0.5-3.7,0.5-5.4c1.1-1.8,1-3.4-0.2-5.1c-1.3-1.8-2.3-3.7-2.8-5.9c-0.2-1.1-1.9-1.9-3.1-1.6c-1.4,0.4-2.7,0.9-4.1,1.4
		c-0.4,0.2-0.7,0.6-1.2,0.5c-2.3-0.6-4.7-0.3-6.9-1.4c-2.6-1.3-5.3-2.3-8.1-3c-5.1-1.1-9.5-3.4-13.7-6.4c-1.7-1.2-3.5-2.2-4.6-4
		s-2.1-3.7-3.4-5.4c-1.2-1.5-1.8-3.3-2.1-5.1c-0.8,0.1-0.9,0.6-1,1c-0.3,1-0.6,2-0.8,3.1c-0.2,1-0.6,1.3-1.6,1
		c-1.7-0.6-3.3-1.4-4.3-2.8c-3.7-5-7.8-9.8-9.2-16.1c-0.3-1.1-0.3-2.4-2-2.4c-0.4,0-0.6-0.6-0.9-0.9c-1.2-1.4-2.7-2.2-4.5-2.4
		c-2.7-0.3-5.3,0.1-7.8,1.1c-1,0.4-2.1,0.9-3.1,1.3c-3.8,1.4-6.8-0.5-7.1-4.5c-0.4-4.3-0.4-8.6-0.3-13c0-1.4,1-3.1,0.1-4.2
		c-0.9-1.1-2.8-1.1-4.2-1.4c-0.1,0-0.3-0.1-0.4-0.1c-1.5-0.3-2.7-1-3.6-2.1c-1.8-2.2-3.3-4.5-4.6-7.1c-2.1-4.5-2.9-9.1-1.6-14
		c0.2-1,0.2-1.9-0.3-2.9c-0.4-0.9-0.9-1.2-1.9-1c-8.9,1.7-17.7,0.5-26.3-2.2c-13-4.1-26.3-6.1-39.9-6.1c-13.4,0-26.9,0.6-40.3,1.3
		c-4,0.2-8,0.7-12,0.9c-8.8,0.4-17.5,1.7-26.3,2c-0.1,0-0.2,0-0.2,0c-4.5,0.4-8.8,1.6-13.3,1.7c-0.6,0-1.2,0.1-1.7,0.6
		c-0.9,0.9-1.7,0.6-2.6,0c-1.2-0.8-2.6-1.3-4-1.7c-5.7-1.5-15.1,1.5-18,8.8c-1.5,3.6-3.3,7-6,9.9c-3.7,3.9-8.6,5.9-13.6,7.4
		c-0.3,0.1-0.6,0.1-0.9,0.1c-2.3,0.2-2.3,0.2-1.7,2.3c1.3,4.7,1.4,9.5,0.9,14.2c-0.9,8.5-5.5,14.4-12.7,18.6c-1.7,1-3.5,1.4-5.4,1.6
		c-1.9,0.2-1.9,0.2-1.9,2c0,1.7,0.1,3.5,0.2,5.2c0.4,6.5-2.7,9.9-9.1,10c-0.7,0-1.4,0-2.1,0c-2.8,0-5.3,0.9-7.6,2.6
		c-3.5,2.7-6.1,6.1-7.9,10.2c-0.6,1.4-1.3,2.7-2.6,3.7C330.2,230.6,329.4,231.6,329,232.9z"/>
	<path class="st4" d="M552.9,304c-1.7,2-3.3,4.1-5,6.1c-0.8,1-0.7,2.3-1.2,3.4c-0.2,0.4,0.1,0.7,0.5,0.9c2.3,0.8,4.4,1.8,6.7,2.8
		c-2-4.3-2.2-8.6-0.5-13C553.3,304.1,553.1,304.1,552.9,304z"/>
	<path class="st4" d="M589,314.8c1.5-2,2.3-4.4,3.6-6.5c0.3-0.5,0.2-1-0.1-1.5c-1.2-2.3-2.7-4.4-4.9-5.8c-0.4-0.2-0.8-0.8-1.4-0.2
		c2.7,4.5,2.1,9.6,1.9,15C588.6,315.2,588.8,315,589,314.8z"/>
	<path class="st4" d="M579.2,231.7c-1.1-0.4-2.4-0.5-3.6-0.4c-3.2,0.3-6.2,1.1-9.1,2.7c-4,2.4-7,1.9-10.4-1.4
		c-0.4-0.4-0.9-0.5-1.4-0.6c-2.7-0.4-5.3-0.3-7.8,0.7c-1.3,0.5-2.7,1.1-4.1,1.5c-4.2,1.4-7.8,3.7-10.7,7c-3.7,4.2-7.2,8.5-8.4,14.1
		c-0.2,1.1-0.7,2.3-1.5,3c-0.9,0.8-1.7,1.7-2.5,2.7c1.9-0.2,3.7,0,5,1.8c0.2,0.2,0.5,0.4,0.7,0.4c2.6-0.1,5.3,0.6,7.6-1.3
		c3.6-2.8,7.7-4.4,12.1-5.3c5.5-1.2,9.8,3.3,8.3,8.8c-0.3,1.2-0.6,2.5-0.5,3.8c2.3-0.1,4.6-0.9,6.9-1.2c6.8-0.9,13.4-1,20,1.2
		c2.9,1,5.5,2.4,7.9,4.3c2.3,1.9,4.3,4.1,6.4,6.2c1.6,0.3,3.2,1.5,4.4,2.3c2.3,1.6,4.5,3.4,6.5,5.3c0.2,0.1,0.3,0.3,0.6,0.5
		c1.7-1,3.6-1.7,5.7-2.2c1.2-0.3,1.6-0.8,1.7-2c0.3-2.9,1.9-4.7,4.5-5.8c0.7-0.3,1.5-0.3,2.1-1c-0.6-1-1.6-1.5-2.4-2.3
		c-1.8-1.7-3.9-3.3-3.2-6.3c0.1-0.3-0.1-0.6-0.2-0.9c-0.6-1.6-0.7-3.1-0.1-4.7c0.3-0.9,0.2-1.4-0.8-1.7c-4-1.1-7.9-1.3-11.7,0.9
		c-1.1,0.7-2.2,1.3-3.4,1.8c-2.1,1-4.3,1.5-6.2-0.3c-1.8-1.7-1.6-3.9-0.7-5.9c1.2-2.9,2.3-5.8,3.4-8.6c0.5-1.1,0.3-1.7-0.6-2.3
		c-1.8-1.2-3.4-2.8-5.6-3.3c-0.6-0.1-1.2-0.4-1.5-0.9c-1-1.4-2.5-2-3.8-2.9s-2.7-1.2-4.3-1c-0.9,0.1-1.7,0.4-3,0.1
		c1.6-1.1,3-2,4.2-3.1C581.5,234.4,581.1,232.4,579.2,231.7z"/>
	<path class="st4" d="M376,289.9c-0.7,0.8-1.6,1.4-2.2,2.5c1.1,0.7,2.2,0.8,3.3,0.7c1.4-0.1,2.9-0.3,4.3-0.5
		c2.7-0.3,5.1,0.5,6.9,2.7c0.1,0.1,0.1,0.2,0.2,0.3c1.7-3.4,3.8-6.7,6.4-9.5c2.5-2.7,5.4-4.5,8.8-5.9c1.3-0.5,2.5-1,3.8-1.5
		c-0.9,0-1.4,0-1.9,0c-0.8,0-1.4-0.3-1.7-1.2c-0.3-0.9,0-1.4,0.7-1.9c5.3-4,11.2-6.7,17.7-8.1c0.6-0.1,1.2-0.2,1.8-0.3
		c1.8-0.2,3.6,0,5.4,0.1c1.1-1.4,2.6-1.6,4.1-1.6c0.5,0,1,0.1,1.5,0.1c3.8,0.3,7.7,0.7,11.1,2.7c1.1,0.6,2.2,0.8,3.4-0.1
		c1.2-0.9,2.7-1.3,4.3-1.3c0.3,0,0.6,0,0.9,0c3.2-0.2,4-0.8,4.8-3.9c0.6-2.1,2.1-3.1,4.2-2.9c0.6,0.1,1.2,0.4,1.8,0.4
		c0.6,0,1.1,0,1.5,0.1c-0.4-1.2-0.8-2.4-1.2-3.6c-0.7-1.8-1.7-3.4-2.9-4.9c-1.8-2.2-3.4-2.6-6.1-1.6c-1.2,0.4-2.4,1-3.6,1.4
		c-2.7,0.9-4.1,0.2-5.3-2.3c-3-6.6-8-11-14.6-13.6c-0.8-0.3-1.5-0.7-2.4-0.4c0.2,0.9,0.5,1.7,0.9,2.4c0.3,0.5,0.5,1.1,0.6,1.7
		c0.3,1.9-1.2,3-3,2.2c-0.8-0.3-1.5-0.7-2.3-1c-3.8-1.2-7.8-2-11.7-2.9c-0.6-0.1-1.2-0.2-1.8-0.1c-4.4,0.8-8.6,2.1-12.2,4.7
		c-0.9,0.7-1.6,1.6-2.1,2.7c-0.3,0.7-0.1,1.1,0.7,1.3c0.9,0.2,1.8,0.4,2.6,0.8c3.1,1.3,5.2,3.5,5.3,7c0.2,3.5-1.6,6-4.7,7.4
		c-1.1,0.5-1.6,1.2-1.9,2.3c-0.4,1.5-1.3,2.7-2.7,3.5c-0.8,0.5-1.4,1.1-1.7,2c-0.5,1.6-1.7,2.5-3.2,2.9c-1.8,0.5-3.6,1.2-5.3,2
		c-1.7,0.8-3.4,0.9-5.1,0.3c-1.6-0.6-3.4-0.8-5.1-1.3c-1-0.3-1.8-0.1-2.4,0.7c-0.5,0.6-1.1,1.2-1.2,2.1c0.2,0.4,0.6,0.4,1,0.5
		c4.5,1.4,6,5.5,3.4,9.5C378.1,287.7,377,288.8,376,289.9z"/>
	<path class="st4" d="M816.6,667.8c-1.8-3.5-3.9-6.8-6.4-9.9c-2.5-3-5.3-5.8-8.3-8.3c-3.1-2.4-6.4-4.5-9.9-6.2l0,0l-5.2-2.3
		c-0.5-0.5-1.1-1-1.7-1.5c-1.3-1.1-2.7-2.1-4.2-3c-6.1-3.4-13-5.4-19.9-6.5c-3.5-0.6-6.9-0.9-10.4-1.1c-2.3-0.1-4.6,0-6.9-0.4
		c-2.5-0.4-4.8-1.5-7.4-1.7c-1-0.1-2,0-2.9,0.1c-8,0.8-16,2-23.7,4.4c-3.9,1.2-7.7,2.6-11.3,4.5c-3.5,1.8-6.6,4.3-10.2,5.7
		c-0.9,0.3-1.7,0.7-2.6,1.1c-18.5,7.9-35,23.5-41.5,42.9l0,0c1.7-0.4,3.7,0.3,5-0.8c0.5-0.4,0.8-1.1,1.1-1.7
		c3-6.4,5.9-13.1,10.9-18.1c6.2-6.1,15.9-8.5,23.2-2.9c0,0,0,0,0-0.1l0.1,0.1c0.4,0.3,0.8,0.7,1.2,1.1l0,0c0.1,0.1,0.3,0.2,0.4,0.4
		c0.5,0.4,0.9,0.9,1.3,1.4c0.1,0.1,0.1,0.2,0.2,0.3c-0.6,0-1.2,0-1.9,0.1c-1.3,0.1-2.6,0.5-3.9,0.9c-2.5,0.9-4.8,2.3-7,3.8
		c-0.5,0.4-1.1,0.8-1.6,1.2l-0.8,0.6l-1.5,1.1l-0.8,0.6c0,0,0.8-0.2,0.9-0.2c3.8-1,7.7-1,11.3,0.7c0.3,0.1,0.6,0.3,0.9,0.4
		c0.3,0.2,0.6,0.3,0.8,0.5c0.5,0.3,1,0.8,1.6,1.2c1,0.9,1.8,1.8,2.6,2.9c0.9,1.2,1.6,2.4,2.2,3.7l0,0c-0.1,0.4-0.2,0.7-0.3,1.1
		c-0.1,0.2-0.1,0.5-0.2,0.7v0.1c-0.1,0.4-0.1,0.8-0.2,1.3c0,0.1,0,0.2,0,0.3s0,0.2,0.1,0.3c0,0.2,0.1,0.4,0.1,0.6v-0.1v0.1l0,0
		c0.1,0.7,0.3,1.4,0.4,2.1c0.2,0.8,0.4,1.7,0.5,2.5c1,1.7,2.1,3.4,2.8,5.3c0.1,0.2,0.1,0.4,0.2,0.6c0,0.1,0,0.1,0,0.2
		c0,0.2,0.1,0.4,0.1,0.5l0,0c0,0.2,0.1,0.4,0.1,0.6c0,0.1,0,0.1,0,0.2c0,0.2,0.1,0.3,0.1,0.5v0.1c0,0.2,0.1,0.4,0.1,0.5s0,0.1,0,0.2
		c0,0.1,0,0.3,0,0.4c0,0.1,0,0.2,0,0.3s0,0.3,0,0.4c0,0.1,0,0.2,0,0.3s0,0.2,0,0.3c0,0.2,0,0.4,0,0.6v0.1c0,0.1,0,0.3,0,0.4l0,0
		c0,0.3,0,0.6,0,0.9c0.1,0.1,0.2,0.3,0.3,0.4c0.5,0.7,1.1,1.4,1.7,2c0.3,0.3,0.6,0.6,0.9,0.9c2.4,2,4.8,3.9,7.9,4.7
		c4.9,1.1,10-0.5,15-0.1c1,0.1,2,0.2,2.9-0.1c1.7-0.7,2.8-3.4,3.7-5c1.4-2.3,2.5-4.8,3.5-7.4c1.8-4.8,2.9-9.9,3.3-15.1
		c0.6-8.1-0.9-16.4-4.1-23.8c-1.6-3.7-3.6-7.3-6-10.6s-5.1-6.3-8.1-9.1c-0.4-0.4-0.8-0.7-1.1-1l-2-1.7l0,0l0,0h0.1h0.2l0.4,0.1
		l0.7,0.2l1.1,0.3l0.4,0.1l0.4,0.1l0.7,0.2c2,0.6,3.9,1.4,5.7,2.3c16.9,8.8,24.2,26.6,25.3,44.7c0,0.1,0,0.2,0,0.4
		c0,0.5,0,1.1,0,1.6s0,1-0.1,1.5c0,0.5-0.1,0.9-0.1,1.4c0,0.1,0,0.1,0,0.2c0,0.3-0.1,0.6-0.1,1c0,0.3-0.1,0.7-0.2,0.9
		c0,0.2-0.1,0.4-0.1,0.7c-0.5,3-1.5,6-2.4,8.8c-1,3.1-2.8,6-1.5,9.2c2.7,6.8,8.7,9,15.3,10c0.9,0.1,1.8,0.2,2.6,0.4
		c1.1,0.1,2.2,0.3,3.3,0.4c1.3,0.1,2.6,0.3,3.8,0.4c0.2,0,0.5,0,0.7,0.1c0.2,0,0.4,0,0.7,0c0.5,0,0.9,0,1.4,0v-0.1
		c0.6-2.6,1.9-4.8,3.1-7.1c5.6-10.8,7.7-23.8,6-36.1c-1.6-11.4-8.1-22-16.1-30.2c-0.8-0.8-1.7-1.8-1.5-2.9c2.8,0.7,5.9,3.1,8.3,4.7
		c3,1.9,6,3.9,8.8,6.2c5,4.2,9.7,9.5,10.7,16.2c2,12.7,5.5,13.5,3.8,26.3c-0.4,3.4-2.5,6.5-3.2,9.9c-1,4.7-1.2,9.2-3,13.7
		c-0.1,0.3-0.3,0.6-0.3,0.9c-0.1,0.3-0.3,2.7-0.8,2.5c2.3,0.8,13.3,2.9,13.9-1.1l0.3-2.2l2.7-15.3c2.7-15.1,3.1-30.1-3.8-44.2
		c-1.5-3-4-8.7-5.9-10.5c0.2,0.2,0.5,0.4,0.7,0.6c3.7,3.6,7.2,6.9,10,11.3c3.2,5.1,6.1,10.9,8.2,16.6c0.2,0.5,0.3,0.9,0.5,1.4
		c0.6,1.8,1.1,3.7,1.5,5.6c0.8,3.8,1.2,7.6,1.2,11.4c-0.1,3.8-0.5,7.6-1.3,11.3c-0.3,1.1-0.6,2.2-0.9,3.3c0.3-0.1,0.7-0.2,1-0.3
		c1-0.4,1.8-1.1,2.4-1.8c0.7-0.7,1.2-1.6,1.7-2.5s0.8-1.8,1.2-2.7c0.2-0.5,0.3-0.9,0.4-1.4C823.8,693.7,822.6,679.6,816.6,667.8z
		 M692.9,639.1L692.9,639.1C693,639.1,693,639,692.9,639.1L692.9,639.1z"/>
	<path class="st4" d="M314,642.6c-0.9-0.4-1.7-0.7-2.6-1.1c-3.6-1.4-6.7-3.9-10.2-5.7c-3.6-1.8-7.4-3.3-11.3-4.5
		c-7.7-2.3-15.7-3.5-23.7-4.4c-1-0.1-2-0.2-2.9-0.1c-2.5,0.2-4.9,1.3-7.4,1.7c-2.3,0.4-4.6,0.2-6.9,0.4c-3.5,0.2-7,0.6-10.4,1.1
		c-6.9,1.1-13.8,3.1-19.9,6.5c-1.5,0.8-2.9,1.9-4.2,3c-0.6,0.5-1.1,1-1.7,1.5l-5.2,2.3l0,0c-3.5,1.7-6.8,3.8-9.9,6.2
		c-3.1,2.4-5.9,5.2-8.3,8.3c-2.5,3-4.6,6.4-6.4,9.9c-6,11.9-7.2,25.9-3.7,38.7c0.1,0.5,0.2,1,0.4,1.4c0.3,0.9,0.7,1.9,1.2,2.7
		c0.5,0.9,1,1.7,1.7,2.5c0.7,0.7,1.5,1.4,2.4,1.8c0.3,0.1,0.6,0.2,1,0.3c-0.3-1.1-0.7-2.2-0.9-3.3c-0.8-3.7-1.3-7.5-1.3-11.3
		s0.4-7.6,1.2-11.4c0.4-1.9,0.9-3.7,1.5-5.6c0.2-0.5,0.3-0.9,0.5-1.4c2.2-5.7,5-11.5,8.2-16.6c2.8-4.4,6.3-7.8,10-11.3
		c0.2-0.2,0.5-0.4,0.7-0.6c-1.9,1.8-4.5,7.5-5.9,10.5c-6.8,14.1-6.4,29.1-3.8,44.2l2.7,15.3l0.3,2.2c0.6,4,11.6,1.8,13.9,1.1
		c-0.6,0.2-0.8-2.2-0.8-2.5c-0.1-0.3-0.2-0.6-0.3-0.9c-1.8-4.5-2.1-9-3-13.7c-0.7-3.4-2.7-6.5-3.2-9.9c-1.7-12.8,1.8-13.5,3.8-26.3
		c1-6.7,5.7-12,10.7-16.2c2.7-2.3,5.7-4.3,8.8-6.2c2.5-1.5,5.5-3.9,8.3-4.7c0.2,1.1-0.7,2.2-1.5,2.9c-8,8.1-14.5,18.7-16.1,30.2
		c-1.7,12.3,0.4,25.3,6,36.1c1.2,2.3,2.5,4.5,3.1,7.1v0.1c0.5,0,0.9,0,1.4,0c0.2,0,0.4,0,0.7,0c0.2,0,0.5,0,0.7-0.1
		c1.3-0.1,2.6-0.3,3.8-0.4c1.1-0.1,2.2-0.2,3.3-0.4c0.9-0.1,1.8-0.2,2.6-0.4c6.6-1.1,12.6-3.2,15.3-10c1.3-3.2-0.5-6.2-1.5-9.2
		c-0.9-2.9-2-5.8-2.4-8.8c0-0.2-0.1-0.4-0.1-0.7c-0.1-0.3-0.1-0.7-0.2-0.9c-0.1-0.3-0.1-0.6-0.1-1c0-0.1,0-0.1,0-0.2
		c0-0.5-0.1-0.9-0.1-1.4s0-1-0.1-1.5c0-0.5,0-1.1,0-1.6c0-0.1,0-0.2,0-0.4c1.1-18.1,8.4-35.9,25.3-44.7c1.8-0.9,3.7-1.7,5.7-2.3
		l0.7-0.2l0.4-0.1l0.4-0.1l1.1-0.3l0.7-0.2l0.4-0.1h0.2h0.1l0,0l0,0l-2,1.7c-0.4,0.3-0.8,0.7-1.1,1c-3,2.7-5.7,5.8-8.1,9.1
		s-4.4,6.9-6,10.6c-3.2,7.5-4.7,15.7-4.1,23.8c0.4,5.1,1.5,10.2,3.3,15.1c1,2.5,2.1,5,3.5,7.4c0.9,1.5,1.9,4.3,3.7,5
		c0.9,0.4,1.9,0.2,2.9,0.1c5-0.4,10.1,1.2,15,0.1c3.1-0.7,5.6-2.6,7.9-4.7c0.3-0.3,0.6-0.6,0.9-0.9c0.6-0.7,1.1-1.3,1.7-2
		c0.1-0.1,0.2-0.3,0.3-0.4c0-0.3,0-0.6,0-0.9l0,0c0-0.1,0-0.3,0-0.4v-0.1c0-0.2,0-0.4,0-0.6c0-0.1,0-0.2,0-0.3s0-0.2,0-0.3
		s0-0.3,0-0.4c0-0.1,0-0.2,0-0.3s0-0.3,0-0.4c0-0.1,0-0.1,0-0.2c0-0.2,0-0.4,0.1-0.5v-0.1c0-0.2,0.1-0.3,0.1-0.5c0-0.1,0-0.1,0-0.2
		c0-0.2,0.1-0.4,0.1-0.6l0,0c0-0.2,0.1-0.4,0.1-0.5s0-0.1,0-0.2c0.1-0.2,0.1-0.4,0.2-0.6c0.7-1.9,1.7-3.6,2.8-5.3
		c0.2-0.8,0.4-1.7,0.5-2.5c0.1-0.7,0.3-1.4,0.4-2.1l0,0v-0.1v0.1c0-0.2,0.1-0.4,0.1-0.6c0-0.1,0-0.2,0.1-0.3c0-0.1,0-0.2,0-0.3
		c0-0.4-0.1-0.8-0.2-1.3v-0.1c0-0.2-0.1-0.5-0.2-0.7c-0.1-0.4-0.2-0.7-0.3-1.1l0,0c0.6-1.3,1.4-2.6,2.2-3.7c0.8-1.1,1.7-2,2.6-2.9
		c0.5-0.4,1-0.8,1.6-1.2c0.3-0.2,0.6-0.3,0.8-0.5c0.3-0.2,0.6-0.3,0.9-0.4c3.6-1.7,7.5-1.7,11.3-0.7c0.1,0,0.9,0.2,0.9,0.2l-0.8-0.6
		l-1.5-1.1l-0.8-0.6c-0.5-0.4-1.1-0.8-1.6-1.2c-2.2-1.5-4.5-2.9-7-3.8c-1.3-0.4-2.6-0.8-3.9-0.9c-0.6-0.1-1.2-0.1-1.9-0.1
		c0.1-0.1,0.1-0.2,0.2-0.3c0.4-0.5,0.8-1,1.3-1.4c0.1-0.1,0.3-0.2,0.4-0.4l0,0c0.4-0.4,0.8-0.7,1.2-1.1l0.1-0.1v0.1
		c7.3-5.6,17-3.2,23.2,2.9c5,5,7.9,11.7,10.9,18.1c0.3,0.6,0.6,1.3,1.1,1.7c1.3,1.1,3.3,0.5,5,0.8l0,0
		C349.1,666.1,332.5,650.6,314,642.6z M306.6,639l0.1,0.1l0,0L306.6,639z"/>
</g>
</svg>
