<?xml version="1.0" encoding="utf-8"?>
<!-- Generator: Adobe Illustrator 24.0.1, SVG Export Plug-In . SVG Version: 6.00 Build 0)  -->
<svg version="1.1" id="New_group_1_" xmlns="http://www.w3.org/2000/svg" xmlns:xlink="http://www.w3.org/1999/xlink" x="0px"
	 y="0px" viewBox="0 0 990 781.2" style="enable-background:new 0 0 990 781.2;" xml:space="preserve">
<style type="text/css">
	.st0{fill:#E4716B;}
	.st1{fill:#D6C092;}
	.st2{fill:#FFFFFF;}
	.st3{fill:#545459;}
</style>
<g>
	<path d="M276.9,542.2c-0.8,0-1.2,0.7-1.6,1.2c-7.3,8.8-14.5,17.7-21.8,26.5c-1.2,1.4-2,3.1-2.5,4.9c-0.3,0.9-0.5,1.8-1,2.7
		c-1.4,2.8-4.1,4.1-7.2,3.3c-2.7-0.7-5.2-2.2-7.6-3.5c-12-6.5-22.6-14.8-31.8-24.8c-5.7-6.3-10.7-13.1-15.2-20.4
		c-0.6-1-1.2-1.9-1.8-2.8c-0.7-1.1-1.7-2-3-2.3c-3.8-1.1-6.7-3.6-9.5-6.2c-5.3-5-9.8-10.8-14.1-16.6c-5.8-7.9-10.7-16.3-13.9-25.6
		c-2.7-7.7-4.5-15.6-4.5-23.9c0-5.8-0.5-11.7-0.7-17.5c-0.2-6.8,0.4-13.6,1.9-20.2c1.5-7,3.2-13.9,5.5-20.6c0.1-0.4,0.3-0.8,0.4-1.1
		c0.1-0.4,0.2-0.8-0.1-1.1c-0.4-0.3-0.7-0.1-1.1,0.1c-0.2,0.1-0.4,0.3-0.6,0.4c-5.2,3.6-10.9,4.3-16.9,2.5c-1.4-0.4-2.8-0.8-4.2-1.1
		c-2.6-0.7-3.4-1.5-3.7-4.2c-0.2-2.5-0.1-4.9,0.5-7.4c1.3-4.9,2.6-9.7,3.9-14.6c2.6-9.6,4.5-19.3,5.9-29.1c0.4-2.7,0.7-5.4,0.7-8.1
		c-0.1-5.5,0.8-11,0.9-16.5c0.2-7.3,0.6-14.5,0.1-21.8c-0.6-8.5,0.6-16.9,1.9-25.3c0.7-4.3,1.1-8.7,1.4-13.1
		c0.5-7.8,2.2-15.3,4.1-22.9c2.4-9.1,5.6-18,8.8-26.9c1.8-5,3.2-10.1,5.7-14.8c6.3-11.8,14.1-22.4,24.2-31.4c5.1-4.5,10-9.2,15-13.8
		c5.7-5.2,11.5-10.1,18.3-14c3.7-2.1,7.4-4.2,11.1-6.2c2.7-1.4,5.5-2.6,8.4-3.5c1.9-0.6,2.1-1.1,0.8-2.6c-0.9-1-1.9-2-2.7-3
		c-4.7-5.9-7.5-12.6-8.7-20c-0.5-2.9-0.9-5.8-1.3-8.8c-0.7-6.2,0.9-11.7,4.5-16.8c0.7-1.1,1.6-2,2.6-2.8c1.9-1.5,3.9-2.1,6.3-1.2
		c1,0.4,2.1,0.8,3.1,1.3c9.4,5.1,19.6,7.8,30.1,9.2c4.4,0.6,8.9,1.3,13.4,1c5.6-0.4,10.6-2.3,14.9-5.9c3.6-3,6.8-6.3,10.2-9.4
		c10-8.8,20.9-16.1,33.9-19.8c10.9-3.1,22-5.6,33.4-6.4c2.9-0.2,5.9-0.1,8.9-0.1c1.9,0,3.4-0.4,4.3-2.4c0.8-1.7,2.3-2.6,3.9-3.4
		c3.5-1.9,7.2-3.4,11.2-4.2c10.4-2,20.8-3.7,31.4-3c7.7,0.5,15.5,1.2,23.2,2c8.5,0.9,16.3,3.9,23.7,7.9c1.9,1.1,3.5,1.1,5.3-0.2
		c3.9-2.9,8-5.6,12-8.3c1.5-1,2.9-2,4.5-2.8c12-6.3,24.4-10.6,38.1-11.2c4.2-0.2,8.5-0.4,12.7-0.7c4.7-0.3,9.4,0.4,14.1,1
		c8.4,1,16.8,2.5,25,4.4c2.2,0.5,4.4,0.3,6.6-0.3c7.6-2.2,15.4-3.5,23.3-4.2c3.4-0.3,6.7,0.2,10.1,0.5c20.3,2,39.5,7.8,58,16
		c6.3,2.8,12,6.6,17.7,10.5c10.8,7.3,20.5,15.7,29.7,25c6.5,6.5,11.3,14,15.1,22.3c1.1,2.5,2.2,5,3.2,7.5c0.6,1.6,1.6,3,3,3.9
		c6.9,4.6,12.8,10.3,18.8,16c4.4,4.1,8.7,8.2,12.3,13c3.4,4.5,6.2,9.3,9.1,14.1c5.4,9.2,10.3,18.6,15.2,28.1
		c4.7,9.1,7.6,19,10.6,28.8c2.4,7.9,4.5,15.9,6.3,23.9c1,4.3,2.7,8.2,5.4,11.7c1.8,2.4,3.2,5,4.1,7.8c1.1,3.4,3,6.1,5.6,8.5
		c8.8,8,15.9,17.3,22.6,27c5.3,7.7,8.8,16.3,11.7,25.2c3.4,10.5,5,21.3,6.4,32.2c1,8.2,1.5,16.4,1.6,24.6c0.1,7.3-0.3,14.6-1.4,21.8
		c-3.2,20.7-8.4,40.9-15.6,60.5c-3.8,10.4-8.2,20.5-13.5,30.2c-2.1,3.9-4.3,7.9-6.3,11.9c-3.9,7.9-6.1,16.3-7.2,25
		c-1,7.8-1.9,15.7-2.7,23.6c-0.3,2.7-0.3,5.4-0.6,8.1c-0.7,5.1-3.6,7.7-8.7,7.5c-4.4-0.2-8.1-2.3-11.4-5c-1.7-1.4-3.1-3-4.5-4.7
		c-2.7-3.3-5.5-6.5-8.4-9.5c-1.7-1.8-2.3-1.8-3.3,0.3c-3.3,6.4-8.2,11.1-14.1,15c-6.2,4.1-12.4,8.2-19.3,11.1
		c-1.8,0.7-1.8,1.1-0.3,2.5c3.3,3,6.7,5.9,9.9,9c4.5,4.3,8.9,8.7,13.1,13.4c4.3,4.7,9.2,8.7,14.8,11.7c3.4,1.9,7,3,11,3
		c2.6,0,5.1,0,7.7,0c0.8,0,1.6,0,2.4,0.2c3.7,0.9,5.2,3.6,4,7.2c0,0.1-0.1,0.1-0.1,0.2c-0.2,1.1-1.6,2-0.8,3c0.6,0.9,2,0.8,3.1,1.1
		c6.3,1.7,12.3,4.2,18.3,6.6c7.1,2.8,13.5,7,19.9,11.1c4.9,3.1,9.7,6.5,14.4,9.9c0.7,0.5,1.4,1.1,1.9,1.8
		c8.3,10.5,16.2,21.3,21.9,33.4c1.4,3,2.5,6,3.1,9.3c0.6,3.7-0.1,7.3-0.7,11c-1.5,8.9-4,17.6-7.4,26c-2.1,5.2-5.6,9.7-9.1,14
		c-3.1,3.8-6.7,6.9-10.9,9.3c-2.6,1.5-4.7,3.6-6.2,6.2c-3.3,5.7-7.9,10.5-12.5,15.1c-4.3,4.4-9.7,7-15.6,8.5
		c-2.9,0.7-4.8-0.1-6.5-2.7c-0.3-0.4-0.5-0.8-0.8-1.2c-2.2-2.2-3.3-4.9-4-7.8c-0.4-1.5-0.7-2.9-1.1-4.3c-0.8-0.4-1.1,0.2-1.5,0.5
		c-1.7,1.6-3.3,3.2-5,4.9c-1.8,1.8-3.8,3.4-6.1,4.6c-3.5,1.8-7.2,0.9-9.5-2.3c-1-1.4-1.7-2.9-2.2-4.5c-1.4-4-2.2-8-1.9-12.2
		c0.2-2.6-0.9-4.2-3-5.5c-1.7-1-3.4-2-5.3-2.8c-4.2-1.8-6.8-4.9-8.3-9.1c-1.1-3.1-1.6-3.2-3.9-0.8c-1.9,2-2.9,4.3-3.7,6.9
		c-1.7,5.4-4.4,10.3-8.6,14.2c-0.9,0.8-1.8,1.6-2.8,2.3c-4.1,3.1-9.1,2.5-12.2-1.7c-2.2-2.8-3.4-6.1-4-9.7c-0.2-1-0.4-2-0.5-3.1
		c-0.1-2.4-1.4-4-3.5-5.1c-6.2-3.1-10.7-8.3-15.5-13.1c-0.9-0.9-1.7-2-2.2-3.1c-0.5-1.4-1.5-1.8-2.8-1.6c-0.5,0-1,0-1.4,0
		c-157.9,0-315.8,0-473.6,0c-0.5,0-1,0.1-1.4,0c-1.6-0.2-2.5,0.4-3.2,1.9c-0.5,1.2-1.3,2.2-2.2,3.1c-3.2,3.2-6.3,6.6-9.9,9.4
		c-1.2,1-2.4,1.8-3.8,2.5c-3.4,1.5-5.1,4-5.4,7.8c-0.2,3.6-1.5,7-3.5,10.1c-3,4.8-8.2,5.9-12.8,2.6c-5.6-4-9.1-9.6-11.3-16
		c-0.8-2.3-1.5-4.6-3-6.5c-0.7-0.9-1.4-1.7-2.4-2.4c-0.9-0.5-1.5-0.4-1.9,0.6c-0.3,0.8-0.6,1.6-1,2.5c-1.5,3.8-4,6.5-7.7,8.2
		c-2.1,0.9-4.1,2.1-6.1,3.3c-1.7,1-2.4,2.4-2.3,4.4c0.3,4.9-0.5,9.7-2.5,14.3c-0.6,1.5-1.4,2.9-2.6,4c-2.6,2.7-5.7,3.2-9,1.4
		c-1.7-0.9-3.3-2-4.6-3.4c-2-2-4-3.9-6.1-5.8c-1.4-1.2-1.7-1.1-2.1,0.7c-0.4,1.8-0.8,3.6-1.4,5.3c-0.6,1.7-1.4,3.2-2.6,4.5
		c-0.6,0.6-1.1,1.4-1.5,2.1c-1.4,2.3-3.6,3.3-6.1,2.7c-6.7-1.7-12.7-4.7-17.4-10c-1.7-1.9-3.4-3.8-5.2-5.7c-2.8-3-4.8-6.6-7.2-9.9
		c-1.1-1.6-2.3-2.9-4-3.7c-7.2-3.9-12.2-9.9-16.7-16.5c-5.6-8.2-8.1-17.5-8.8-27.3c-0.7-10.6,0.8-21,3.7-31.3
		c2.8-10.4,8.9-18.6,17.1-25.2c7.1-5.7,14-11.7,21.5-16.9c13.5-9.3,28.2-15.6,44.5-18.2c7-1.1,14-1.6,21-1.5
		c11,0.2,21.8,1.7,32.6,3.9c2.3,0.5,4.5,0.9,6.8,1.5c1.2,0.3,2.2,0.2,3.2-0.3c1.5-0.7,3-1.1,4.6-1.3c2.6-0.3,4.7-1.5,6.5-3.4
		c3.7-3.9,6.8-8.3,9.8-12.7c7.9-12,13.5-25,16.9-39c0.5-2.2,1.1-4.3,1.7-6.5C277.1,543.3,277.4,542.7,276.9,542.2z"/>
</g>
<g>
	<path class="st0" d="M556.8,496.5c-0.1-1.4-0.5-1.8-2-1.8c-3.9,0-7.6-0.2-11.4-0.8c-4.6-0.6-9-2.1-13-4.5c-1.3-0.8-2.3-2.1-4-2.4
		c-1,1.6-0.2,3.2-0.1,4.9c0.5,4.6-0.1,9-1.3,13.3c-0.6,2-1.5,3.7-3.1,5c-2.2,1.7-4.8,1.5-6.8-0.4c-0.9-0.9-1.6-1.8-2-3
		c-0.6-1.7-1.3-3.5-1.6-5.3c-0.6-3.1-1.1-6.2-1.7-9.4c-0.4-2-0.5-4.2-1.8-6.2c-8.7,6.8-18.6,10.6-30.1,11.2c1,2.6,2,4.5,2.5,6.5
		c1,3.8,3,7,5.3,10.1c5.5,7.6,12.8,13.1,21.8,15.5c9.2,2.5,18.6,2.5,27.8,0.2c1.7-0.4,3.3-1,4.8-1.7c3.6-1.6,6.8-3.9,9.4-7.2
		c2.1-2.7,3.8-5.6,5-8.6C556.5,507.2,557.1,502,556.8,496.5z"/>
</g>
<g>
	<path class="st1" d="M189.5,210.3c2.7-2.8,4.9-5.9,7.1-9.1c1.5-2.1,3.1-4.2,4.9-6.2c6.4-7.9,14.5-13.4,23.9-17.2
		c6.6-2.6,13.5-4.6,20.4-6.1c6.5-1.4,12.9-2.6,19.1-5c2.8-1,5.6-1.7,8.5-1.7c0.9,0,1.8-0.2,2.6-0.7c3.3-2.2,6.5-4.6,9.1-7.6
		c1.2-1.3,1.1-1.9-0.6-2.6c-3-1.3-6.1-2.6-9.1-3.9c-0.9-0.4-1.7-0.7-2.4-1.3c-2.2-1.7-1.9-5,0.7-6.1c0.7-0.3,1.5-0.5,2.3-0.6
		c4.5-1.1,9-2,13.4-3.5c8.7-2.8,17.2-6,25.6-9.4c6.9-2.9,13.9-5.8,20.8-8.7c8.6-3.5,17.5-5.8,26.8-6.6c0.5,0,1.1,0.2,1.3-0.6
		c-0.1-0.2-0.2-0.6-0.3-0.6c-4.3-3.2-8.5-6.7-13.3-9.2c-1-0.6-2-1.2-2.9-2c-2.8-2.8-2.1-7.1,1.5-9c1.1-0.6,2.2-0.8,3.4-0.9
		c8.3-1.1,16.6-0.6,24.8,0.8c5.8,1,11.5,2.9,17.2,4.5c8.1,2.1,15.7,5.2,22.9,9.5c2.2,1.3,4.3,2.7,6.5,4.1c-0.2-0.7-0.2-1.3,0.6-1.8
		c1-0.6,2,0.3,2.9,0.9c5.7,3.4,12,5.3,18.5,6.6c4.7,0.9,9.3,2.3,13.6,4.3c-8.1-8-16.9-15-26.9-20.5c-5-2.8-9.8-5.7-14.5-8.8
		c-0.6-0.4-1.5-0.6-1.7-1.5c1.1-0.9,2.4-0.9,3.7-1.1c8-1.3,16.1-0.2,24.1,0.5c1.8,0.2,3.7,0.5,5.5,0.9c8.4,1.7,16.8,3.6,25,6
		c7.4,2.1,14.4,5,20.5,9.9c2.4,1.9,4.6,3.9,6.5,6.3c1.3,1.6,2.8,3.1,4.3,4.6c0.7,0.7,1.3,0.6,2-0.2c0.4-0.6,0.7-1.1,1-1.7
		c3.1-5.6,3.8-11.5,2.5-17.6c-0.3-1.6-0.9-3.1-1.2-4.6c-0.6-3.4,1.8-5.7,5.2-5c2.1,0.4,4,1.3,5.6,2.8c2.1,1.8,4,3.8,5.7,6
		c0.5,0.6,0.7,1.4,1.7,1.6c1.1-0.9,1.3-2.3,1.7-3.5c1.6-4.1,3.5-8,5.7-11.7c2-3.5,4.5-6.5,7.4-9.3c2.1-2,4.6-3.6,7.2-4.6
		c1.5-0.6,3.1-0.9,4.6-0.6c2.5,0.3,3.9,2.5,3.1,4.9c-0.4,1.1-0.9,2.2-1.4,3.2c-1.9,3.9-3.3,8-4.1,12.4c-0.3,1.7-0.6,3.5-0.2,5.3
		c1.4,0,2.2-0.8,3.1-1.3c4.3-2.4,8.7-4.3,13.6-5.1c4.6-0.8,9.4-1.5,14.1-1.8c3-0.2,5.6-0.9,8-2.8c4-3.1,8.5-5.4,13.2-7
		c10-3.5,20.3-5.6,30.9-6.1c2.8-0.2,5.5-0.2,8.3-0.5c7.2-0.6,14.2,0.3,21.1,2.2c1,0.3,2,0.6,3,1.1c-1.7-2.8-3.8-5-6.8-6.5
		c-5.7-2.6-11.4-4.6-17.6-6c-3.6-0.8-7.2-1.5-10.8-2c-3.1-0.5-6.3-0.9-9.4-0.9c-4.9-0.2-9.8-0.1-14.6-0.2c-7.2-0.1-14.2,0.9-21,3.1
		c-0.8,0.2-1.8,1.1-2.4,0c-0.4-0.6-0.1-1.6,0.3-2.3c0.6-1,1-2.2,1.7-3.1c1.5-2,2.9-4.1,4.8-5.7c0.9-0.8,1.7-1.7,2.4-2.6
		c1.5-2.3,0.2-5-2.5-5.1c-1.2-0.1-2.4,0-3.5,0.4c-10.8,3.5-21.3,7.7-30.4,14.8c-5.2,4-10.2,8.4-14.1,13.8c-3.1,4.3-6.4,8.7-9.4,13.1
		c-1.1,1.6-2.3,2.4-4.3,2.3c-1,0-1.7-0.2-2.1-1.3c-1-2.8-2.5-5.3-4.4-7.4c-1.3-1.5-2.4-3.1-3.2-5c-0.6-1.2-1.2-2.4-1.7-3.5
		c-0.9-1.9-2.4-3.2-4.6-3.1c-2,0.1-3.1,1.7-4,3.4c-0.8,1.8-1.7,3.6-2.6,5.3c-1.1,2-2.9,3.1-5.3,2.8c-3.4-0.6-6.7-1.2-10.1-2
		c-5.5-1.3-10.8-3.3-16.1-5.3c-3.2-1.2-6.3-2.8-9.1-4.6c-11.9-8-24.9-13.8-38.2-18.8c-2.1-0.8-4.3-1.5-6.5-2.1
		c-0.2,0.1-0.2,0.2-0.2,0.6c0.7,1,2,1.1,3.1,1.5c5,2,9.8,4.5,14.4,7.4c8.5,5.4,16.2,11.7,23.7,18.5c2.4,2.2,4.6,4.7,6.6,7.3
		c1.2,1.6,2.2,3.3,2.4,5.4c0,0.2,0,0.6-0.2,0.7c-0.3,0.4-0.7,0.2-1,0.1c-1.2-0.8-2.4-1.6-3.6-2.4c-1.6-1.2-3.1-2.4-4.7-3.6
		c-7.6-5.8-15.7-10.5-24.6-14.1c-7.7-3.1-15.7-5.6-23.7-7.7c-4.3-1.2-8.8-1.9-13.3-1.8c-3.1,0-6.3,0.1-9.5,0.1
		c8.4,1.6,16.4,4.7,23.8,8.9c1.2,0.7,2.4,1.6,4.2,2.8c-4.8,0-8.8,0.3-12.8,0.8c-3.5,0.5-7.1,0.4-10.5,1c-2.5,0.5-5,0.4-7.5,0.7
		c-3.8,0.5-7.6,0.9-11.3,1.4c-3,0.3-6,0.6-9,0.9c-6.8,0.9-13.5,2-20.2,2.9c-5.5,0.7-10.9,1.7-16.4,2.8c-1.9,1.3-3.8,2.5-5.7,3.9
		c-0.8,0.6-1.5,1-2.2,1.7c-0.4,0.3-0.2,1.1,0.3,1.3c1.7,0.5,3.2,1.1,5,1c4.5-0.2,7.2,2.7,9.8,5.7c0.3,0.4,0.1,1.2-0.4,1.3
		c-0.8,0.2-1.7,0.1-2.3,0.5c-2.7,1.3-5.6,1.3-8.5,1.5c-6.1,0.3-12.1,0.7-18,2.1c-3.4,0.8-6.8,1-10.2,0.9c-4.5-0.2-9,0.1-13.4,0.7
		c-0.2,0-0.4,0.1-0.6,0.1c1.3,0.2,2.6,0.3,3.9,0.4c5.3,0.3,10.4,1.3,15.5,2.5c5.5,1.3,10.9,2.7,16.5,4.1c1,0.2,2,0.6,3,1
		c0.2,0.1,0.4,0.4,0.4,0.6s-0.2,0.5-0.4,0.5c-2.4,0.5-4.5,1.3-6.7,2.4c-6.8,3.1-13.2,7.1-19.8,10.6c-4.6,2.5-8.8,5.7-13.5,8.2
		c-5.1,2.8-10.2,5.6-15.7,7.5c-2.6,0.9-5.1,2-7.6,3.2c-3.2,1.4-6.5,3.1-9.8,4.3c-7.2,2.8-14.1,5.9-20.9,9.4
		c-5.7,2.8-11.3,5.7-16.7,9c-6.1,3.7-12,7.6-17.7,11.8c-1.6,1.2-3.2,2.4-4.8,3.6c-0.2,0.2-0.4,0.4-0.6,0.6
		c-10.7,12.4-19,26.2-24.2,41.9c-2.2,6.8-4.1,13.6-6.5,20.4c-2.2,6.3-3,12.8-2.9,19.4c0.2,13.2,0.4,26.4,0.6,39.6c0,0.2,0,0.6,0,0.8
		c0.3,5.9,0.1,11.9-0.3,17.8c-0.2,1.7-0.2,3.4-0.3,5.1c-0.6,16.1-3.3,32-8.2,47.4c-0.2,0.6-0.6,1.2-0.3,1.9c0.7,0.2,1.2-0.3,1.7-0.7
		c2.2-1.7,4.3-3.5,6.5-5.3c11-9.3,20.5-20.2,31.2-29.8c0.4-0.3,0.7-0.8,1.1-1.2c0.4-0.4,0.8-0.7,1.2-1c1.4-0.9,3.2-0.9,4.4,0.1
		s1.6,2.7,0.9,4.3c-0.4,0.9-0.9,1.6-1.4,2.4c-2.7,3.9-5.1,8-7.2,12.3c-6.9,13.8-13.2,27.9-18.3,42.4c-6.9,19.5-9.8,39.6-9.1,60.3
		c0.1,2.9,0.2,5.7,1.3,8.5c1.1-0.2,1-1.1,1.2-1.9c1.7-10.9,5.6-21.1,10.6-30.9c3.1-6.1,6.4-12.1,9.5-18.3c0.2-0.5,0.5-0.9,0.8-1.3
		c1.2-1.7,3.1-2.4,4.8-1.8c1.9,0.6,2.9,2,3,4.2c0,1.5-0.4,2.8-0.8,4.3c-2.4,8.7-4.6,17.3-6.2,26.1c-1.3,7.1-1.6,14.2-0.6,21.3
		c1,7.6,3.2,15,5.3,22.3c1.5,5.4,3.9,10.3,7,15c1.7,2.5,3.3,5,4.8,7.7c2.3,4.2,5,8,8,11.7c7.9,9.4,15.9,18.7,24.2,27.7
		c0.5,0.5,0.9,1,1.3,1.4c0.6,0.6,1.3,0.5,1.7-0.2c0.5-0.6,1-1.3,1.3-2c2.5-5.3,4.5-10.7,4.2-16.7c0-0.1,0-0.2,0-0.3
		c-0.9-1.6-1.8-3.1-2.8-4.6c-1.5-2.6-3.1-5.2-4.4-8c-1.6-3.2-2.8-6.5-4.3-9.8c-4.2-9.3-8-18.7-10.7-28.4c-2.7-9.5-4.6-19.1-5.9-29
		c-0.4-2.6-0.3-5.3-0.9-7.8c-0.8-3.6-0.7-7.3-1.2-10.9c0-0.2,0-0.4-0.1-0.6c-0.7,2.6-1.3,5.3-1.6,8c-0.1,0.6-0.1,1-0.2,1.6
		c-0.4,1.6-1.7,2.6-3.1,2.5c-1.4-0.1-2.6-1.3-2.8-2.8c-0.2-1-0.1-2.1,0-3.1c0.1-2.8,0.2-5.5,0.2-8.3c0.2-4.6,0.2-9.2,0.9-13.8
		c1.3-8.9,3.7-17.6,6.2-26.1c2.2-7.6,4.6-15.2,6.3-22.9c0.6-2.4,0.9-4.6,0.8-7.1c-0.2-5.4-0.4-10.8-0.6-16.2
		c-0.4-8,0.3-15.8,1.7-23.6c0.3-1.7,0.8-3.3,1.4-5c1.1-2.9,2.2-5.8,2.5-9c-0.9-0.2-1.4,0.3-1.9,0.9c-0.8,1-1.7,2-2.4,3.1
		c-3.7,5.7-7.4,11.6-11.1,17.3c-0.4,0.6-0.6,1.5-1.6,1.7c-0.8-1.7-0.9-3.5-0.7-5.4c0.2-1.7,0.2-3.4,0.4-5.1
		c0.4-3.5,0.5-7.2,1.2-10.6c2-10.1,4.6-20.1,8.4-29.7c1.4-3.5,2.7-7.2,3.9-10.8c4-11.8,9.6-22.7,16.1-33.2c0.1-0.2,0.2-0.5,0.3-0.7
		c0.8-2,1.7-4,2.6-6c-3.7,1.5-7.7,4.1-10.8,6.8c-11.4,10.3-19.3,22.9-24.8,37.2c-2.9,7.5-5.2,15.2-7.3,23c-1,3.9-1.8,7.7-2,11.7
		c-0.2,2.8-1,4.8-3.1,6.5c-3.2-1.3-4.6-3.8-4.3-7.2c0-0.4,0-0.8,0-1.2c0.2-2-0.2-3.9-0.7-5.8c-2-6.7-3.5-13.5-4.4-20.5
		c-1.7-11.4-0.9-22.6,3.2-33.5c4.8-13.1,12.3-24.5,22.5-34c4.6-4.3,9.5-8.3,14.6-12.1c0.6-0.4,1.5-0.6,1.3-1.7
		c-0.2-0.1-0.3-0.2-0.4-0.2c-10.5,2.6-20.4,6.4-28.7,13.7c-1.1,0.9-2.3,1.8-3.4,2.7c-0.5,0.3-1,0.3-1.5,0c-0.4-0.3-0.6-0.9-0.5-1.4
		C187.7,212.3,188.6,211.3,189.5,210.3z"/>
	<path class="st1" d="M630.2,83.7c0.6-0.7,1.1-1.3,1.6-2.1c-7.6,2.8-14.1,7.2-19.8,12.8c-3.2,3.1-5.7,6.8-7.7,10.9
		c-0.6,1.3-0.4,2,0.9,2.5c1.1,0.5,2.2,0.9,3.3,1.2c2.6,0.5,5.2,0.2,7.8-0.5c3.7-1,7.4-2,11.1-3c-0.4-0.6-0.8-1-1.2-1.5
		c-0.9-1.1-1.7-2.4-2.1-3.8c-1.8-4.8-1.4-9.3,2.5-13C627.9,86.3,629.1,85.1,630.2,83.7z"/>
	<path class="st1" d="M328.8,312.8c-0.4,0-0.8,0.1-0.9,0.6C328.3,313.4,328.5,313,328.8,312.8z"/>
	<path class="st1" d="M354.2,503.2c-1.7,4.6-3.6,9.1-5.7,13.5c-1.3,2.9-2.4,5.8-3.1,9c-0.6,3.6-1.1,7.3-1.4,10.9
		c-0.2,2-0.3,3.9-0.1,5.9c0.6,4.3,0.9,8.7,2.2,12.8c0.5,1.5,0.6,3.1,1.9,4.5c1.2-2,1.7-4.3,2-6.4c1-8.5,3-16.8,5.6-25
		c3.1-9.9,8.8-18.1,17.3-24.4c7.1-5.2,15-8.6,23.3-11.4c1.3-0.4,2.6-0.6,3.9-0.9c1.5-0.3,3.4,0.8,4.6-0.3c1.1-1,1.6-2.7,2.4-4
		c0.7-1.1,1.4-2.3,2.2-3.2c0.7-0.9,1.6-1.8,2.5-2.4c2.5-1.7,5.1-3.2,7.6-4.8c0,0,0,0,0-0.1h0.1c0,0.1,0,0.1,0,0.1
		c0.4,0.9-0.2,1.7-0.6,2.4c-0.9,1.4-1.8,2.9-2,4.7c-0.2,2.3-0.9,4.4-1.5,6.5c-0.7,2.8-1.6,5.5-1.8,8.5c1.3-0.2,1.7-1,2.1-1.7
		c2.3-3.5,5.1-6.2,8.3-8.9c3.8-3.1,8-5.2,12.6-6.3c7.6-1.8,15.4-2.4,23.1-1.1c2,0.3,3.9,0.7,5.9,0.5c5.9-0.6,11.8-1.3,17.6-2
		c5.4-0.6,10.5-2.1,15.4-4.6c1.9-0.9,3.7-1.9,5.2-3.9c-2-0.8-3.9-1.4-5.6-2.2c-6.8-2.9-13.5-5.9-20.1-9.3c-2-1-4-2.1-6.4-2.4
		c0.2,0.9,1.3,1.3,1,2.2c0,0,0.1,0,0.1,0.1c0.1-0.1,0.2-0.2,0.2-0.2c0.1,0,0.2,0,0.3,0.1c-0.1,0.2-0.2,0.3-0.5,0.2c0,0,0,0,0,0.1
		l-0.1-0.1l0.1,0.1c-2.3-1.3-4.8-2.2-7.3-2.9c-1.6-0.5-3.1-0.9-4.4-1.7c-6.8-4.3-13.2-9.1-18.5-15.4c-0.9-1.1-1.7-1.8-3.2-1.7
		c-1.4,0.1-2.9-0.1-4.3-0.4c-4.5-0.8-9-0.8-13.4,0s-8.8,1.7-13.1,2.7c-13.9,3-27.2,7.5-39.8,14.2c-12.3,6.6-23,15-29.4,27.8
		c-1.3,2.4-3.3,4-5.2,5.8c-0.1,0.1-0.5,0-0.7-0.1c-0.1,0-0.2-0.2-0.2-0.3c0-0.4,0-0.8,0.1-1.2c1.8-5.7,3.4-11.3,4.5-17.2
		c0.2-1,0.6-2,1-3c1.4-3.7,2.9-7.4,5.1-10.7c0.9-1.3,1-2.4,0.6-4c-0.5-1.4-0.6-2.8-0.4-4.3c-1.3,1.8-2.4,3.6-3.5,5.7
		c-2.9,5.7-5.7,11.6-8.7,17.3c-1,2.1-2,4.3-3.1,6.5c-2.3,4.9-4,10-5.9,15c-3.8,10.1-6.5,20.2-6.8,31.1c0,0.2-0.1,0.6-0.2,0.8
		c0,0.1-0.2,0.2-0.2,0.2c-0.2,0-0.6,0-0.7-0.2c-0.4-0.6-0.7-1.1-0.9-1.7c-3.2-8-6.4-15.9-7.9-24.4c-0.6-3-1.6-6-1-9
		c0.2-0.7,0.2-1.5,0.2-2.2c-1.7,3.8-3.1,7.7-4.4,11.7c-0.8,2.5-1.3,5.1-1.3,7.8c-0.1,13.8,2.5,27,8.8,39.4c2,4,4.4,7.8,7.6,11
		c4,4,8,8.1,11.9,12.1c1.6,1.6,3.2,3.1,5.2,4.3c0.5,0.3,1,0.9,1.9,0.2c-0.9-3.5-0.9-7.2-0.7-10.9c0.1-1-0.1-2.1-0.2-3.1
		c-0.8-6.7-0.8-13.5,0.2-20.2c1.6-11.7,5.2-22.6,12.4-32.1c2.8-3.8,6.4-7.1,9.6-10.5c0.2-0.2,0.6-0.2,1-0.4v-0.1l0.1,0.1l-0.1-0.1
		c0,0,0.1,0,0.1-0.1c0.2-0.6,0.6-0.6,1-0.4c0,0,0,0,0.1,0c-0.2-0.2,0.1-0.4,0.2-0.2c0,0,0,0.1,0.1,0.1c0.2,0,0.2,0.2,0,0
		c-0.1,0-0.1,0.1-0.2,0.2l0,0h0.2c-0.3,0.2-0.7,0.3-1,0.4v0.1c0,0,0,0-0.1,0c0.2,0.9-0.4,1.4-0.7,2
		C356.1,499.4,354.9,501.3,354.2,503.2z"/>
	<path class="st1" d="M672.3,271.9c0.3,0.3,0.9,0.6,0.6,1.3c-0.1,0-0.2,0.1-0.3,0c-0.9-0.5-2-0.9-2.8-1.4
		c-7.3-4.2-15.4-6.3-23.5-8.2c-2.8-0.6-4.6-1.7-5.4-4.4c-0.3-1.1-0.9-2.2-1.3-3.3c-1.2-2.8-2.3-5.6-3.5-8.4
		c-2.5-5.7-6.2-10.8-10.5-15.2c-3.1-3.1-6.8-5.8-10.6-8.2c-8-5-16.5-8.8-25.9-10.4c-5.5-0.9-11-1.5-16.5-0.2
		c-5.3,1.3-10.4,2.9-15.4,5c-2.7,1.1-5.2,2.7-7.4,4.5c-2,1.6-3.9,3.1-5.9,4.6c-1.3,1-2.6,1.7-4.2,2.2c-4,1.3-8,2.5-12,3.9
		c-0.6,0.2-1.3,0.6-1.9,0c0.1-0.3,0.1-0.8,0.2-1.1c1.7-3.1,3.4-6.3,5-9.4c0.8-1.4,1.8-2.7,3-3.6c3.9-3.1,7.2-6.6,10.8-9.9
		c0.9-0.9,2-1.8,3.1-2.5c3.4-2,6-4.7,8.3-7.8c1.3-1.7,2.7-3.3,3.9-5c2.8-3.5,5.4-7.2,8.2-10.7c1.2-1.5,1.9-3.1,1.8-5
		s0.2-3.9,0.8-5.9c0.2-0.4,0.4-1-0.6-1.3c-1.5,1.4-3.1,2.9-4.8,4.4c-7.2,6.5-14.2,13.1-20.5,20.4c-0.9,1.1-2,2.1-3.1,3
		c-2.4,1.8-4.8,3.6-5.9,6.7c-0.1,0.3-0.4,0.3-0.7,0.2c-0.1-0.1-0.2-0.2-0.3-0.2c-0.1-0.8-0.2-1.6-0.2-2.4c0.3-2.4,0.9-4.6,1.8-6.8
		c3.5-8.9,8-17.2,13.6-24.6c-0.2,0.2-0.4,0.4-0.6,0.6c-3.4,4.3-6.9,8.4-12,11.1c-5.4,2.8-9.7,7.2-14,11.5c-2.6,2.6-5.6,4.8-9,6.4
		c-1.2,0.6-2.1,0.6-3.3,0.1c-2.5-1.1-5.3-2-8-1.3c-2.1,0.6-4.2,0.3-6.3,0.5c-3.2,0.4-5.9-0.9-8.6-2.4c-1.4-0.8-2.5-2-3.5-3.1
		c-1.8-2-4-3.4-6.3-4.8c-1.7-1-3.6-1.7-5.6-1.7c-2.5,0-5-0.3-7.4,0.6c-1.3,0.5-2.3,0-3.1-0.9c-1.1-1.2-2.2-2.2-3.3-3.4
		c-2.8-2.9-5.8-5.4-9.2-7.4c-4-2.4-8.2-4.6-12.7-6.4c-2.6-1-5.4-1.3-8-2c-1-0.2-2.1,0.1-3.1,0.4c4.1,1.1,7.8,3,10.9,6
		c2.2,2.1,4.4,4.2,6.5,6.4c4.1,4.3,7.1,9.2,8.7,14.9c1.2,4.3,1.9,8.7,1.8,13.3c-0.1,4.4-0.5,8.7-2.8,12.6c-0.6,0.9-0.4,1.7,0.1,2.6
		c0.9,1.9,1.9,3.8,2.6,5.7s2,3.1,3.7,3.9c0.3-0.3,0.6-0.5,0.9-0.8c0.2-0.3,0.4-0.7,0.6-0.9c2.4-2.7,5.3-2.8,8-0.3
		c1.2,1.1,2,2.5,2.5,4c1.8,5,2,10.1,0.6,15.2c-0.4,1.6-0.9,3.1-2.2,4.2c-1.5,1.2-1.5,2.6-1.3,4.3c0.5,5.9-0.1,11.6-2.7,17
		c-0.9,1.8-1.2,3.7-1.3,5.7c0,0.3-0.1,0.7-0.1,1c0.5-0.5,1-0.9,1.6-1.3c5.8-4.4,10.1-10,12.6-16.8c0.8-2.2,1.9-4.3,3.1-6.4
		c1.3-2.3,3.2-3.9,5.6-4.8c4.3-1.7,8.7-3.1,13.4-2.9c3.1,0.2,6,0.8,9,1.3c2.1,0.3,4,1.3,5.9,2.1c3.6,1.7,6.8,4,9.8,6.7
		c4.2,3.9,7.1,8.4,7.2,14.4c0,0.4,0.1,0.8,0.2,1.2c2,6,3.5,12.2,6.8,17.6c1.7,2.8,3.5,5.5,5.3,8.3c0.4,0.7,0.9,1.3,1.3,1.9
		c0.6-0.4,1.4-0.6,2.4-0.2c0.4,0.1,0.8,0.2,1.1,0.5c1.9,1.3,3.9,1.3,6.1,1.2c2.5-0.2,5-0.7,7.3-1.5c0.6-0.2,1.3-0.4,1.3-1.2
		c0-0.7-0.4-1.3-0.9-1.7c-0.6-0.5-1.3-0.8-2-1.3c-1.5-1-3.1-2-4.6-3.1c-2.1-1.6-4.1-3.3-6.1-5c-2.7-2.2-5.4-4.2-7.8-6.8
		c-2.4-2.7-3.6-5.7-3.1-9.4c0.6-4.3,1.7-8.3,3.9-12c4.9-8.1,10.6-15.4,18-21.4c0.4-0.3,1.3-0.6,0.7-1.6c-1.5,0.6-2.9,1.2-4.4,1.9
		c-1.4,0.6-2.8,1.4-4.3,2.1c-1.4,0.7-2.8,1.5-4.2,2.2s-2.8,1.5-4.2,2.2c-1.3,0.7-2.5,1.7-4.4,2.2c0.5-2,1.8-3,2.9-3.9
		c6.9-5.7,14.2-11,22.7-14.2c3.7-1.3,7.4-2.9,11.2-4c11.6-3.5,23.1-3.7,34.5,1c3.8,1.6,7.5,3.4,10.3,6.5c2.1,2.4,4.3,4.7,6.2,7.2
		c4.1,5,7,10.5,8.7,16.7c0.3,1.1,0.3,2.4,1.3,3.3c1.2,1.1,0.6,2.1-0.1,3.1c-1.8,2.3-3.5,4.6-5.4,6.8c-1.3,1.6-2.4,3.1-2.9,5.1
		c-0.2,0.8-0.6,1.5-0.8,2.2c-2.4,7.5-6.9,13.6-12.7,18.8c-0.5,0.5-0.9,0.9-1.3,1.4c-0.1,0.1,0.1,0.6,0.2,0.6c0.6,0.2,1.3,0.2,2,0.3
		c7.6,0.7,15.1,2,22.4,4.6c7.6,2.8,14.9,6.1,22,9.9c3.2,1.8,6.3,3.9,9.1,6.3c4.1,3.5,8.2,7,11.9,11c3.8,4.1,7.8,7.9,12.1,11.3
		c3.1,2.5,6,5.2,8.5,8.3c0.9,1,1.8,1.9,2.8,2.8c1.3,1.3,2.8,2.4,4.5,3.1c11.8,5.3,21.5,13.2,29.7,23.1c0.5,0.6,1.1,1.1,1.7,1.7
		c0.1,0.1,0.6-0.1,0.6-0.2c0.4-0.6,0.2-1.3,0.1-1.9c-1-5.6-2-11.2-3.2-16.7c-1.6-7.1-3.4-14.1-5.1-21.2c-0.9-3.6-2.2-7-3.8-10.4
		c-3.2-6.7-6.8-13.1-10.9-19.3c-3.7-5.7-7.7-11-12.8-15.6c-0.4-0.4-1.2-0.7-0.9-1.5c0.2,0,0.6,0,0.7,0.1c1,0.6,2.1,1.1,3.1,1.7
		c7.7,4.6,14.4,10.4,20.2,17.1c10,11.7,9.9,10.2,15.6,27.9c0.4,1.1,0.7,2.3,1.2,3.3c1.5,3.2,3.1,6.5,4.2,9.8
		c0.2,0.4,0.3,0.9,0.8,0.7c0.3-0.1,0.7-0.4,0.9-0.7c1.4-2.3,2.4-4.7,2.8-7.3c0.6-4.3,1.3-8.7,0.9-13c-0.8-8.3-2.2-16.5-5.5-24.2
		c-2.8-6.3-5.4-12.6-8.8-18.6c-2.9-5.1-6-10.2-9-15.4c0.9,5,1.2,10.1,0.9,15.2c-0.1,1.2,0,2.4-0.1,3.5c-0.2,2.4-0.6,4.6-0.9,7
		c-0.1,0.5-0.9,0.8-1.3,0.5c-0.6-0.5-1.2-1-1.7-1.6c-4.5-4.5-8.9-9-13.5-13.4c-2.4-2.3-4.9-4.5-7.4-6.5c-9.1-7-19-12.2-30-15.4
		c-3.5-1-6.9-2.3-10.2-3.7C668.6,268.4,670.5,270.2,672.3,271.9z M684.1,287.9c5.1,4.3,8.6,9.6,10.9,15.7c0.6,1.3,1.2,2.6,1.8,3.9
		c0.5,1.2,1.1,2.4,0.6,3.7l0.1,0.1l0,0c0-0.2,0.2-0.2,0.2-0.1v0.1c0.1,0.1,0,0.2,0,0h-0.1v0.1l0,0l-0.2-0.1c0-0.1,0-0.1,0-0.1
		c-2.2-4-5.4-7.3-9.1-9.9c-1.1-0.7-2.2-1.4-3.2-2.2c-5-3.7-10.6-5.2-16.7-5.3c-2.4-0.1-4.7-0.4-7,0.3c0.2,2.7,2.4,4.2,3.9,6.1
		c3.9,5.3,8,10.4,12.1,15.6c0.6,0.7,1.2,1.4,1.6,2.3c1.7,3.1,3.8,5.7,6.3,8c0.4,0.3,0.6,0.8,0.9,1.2c-0.6,0.6-1.1,0.2-1.6-0.1
		c-2.5-1.4-5.1-2.8-7.7-3.9c-3.8-1.7-6.8-4.6-9.1-8c-2-2.9-4.4-4.8-7.5-6.1c-0.9-0.4-1.9-0.9-2.8-1.6c-3.5-2.8-7.6-4-11.9-5
		c-1.8-0.4-3.6-0.8-5.4-1.2c0.1-0.5,0.1-1,0.3-1.3c3-3.2,4.3-7.2,5-11.4c0.2-1.4,0.4-2.8,0.6-4.2v-0.1c0,0,0-0.1,0-0.2
		c0.3-3.7,0.2-7.3-0.7-11c-0.6-2.8,0.4-2.7,2.4-2.6c1.3,0.1,2.6,0.2,3.9,0.4c9.5,1.3,17.8,5.5,25.5,11
		C679.4,283.9,681.7,286,684.1,287.9z"/>
	<path class="st1" d="M863.1,321.8c-2-10.4-4.3-20.6-7.9-30.6c-4.3-11.4-10.2-21.6-19-30.2c-2.9-2.8-5.6-6-8-9.3
		c-1.4-1.9-3-3.7-4.7-5.4c-0.3-0.3-0.7-0.6-1-0.9c-0.2-0.2-0.4-0.4-0.6-0.6c-5.8-5.7-11.1-11.8-16.4-17.9c-1.5-1.7-2.8-3.5-3.6-5.7
		c-0.9-2.3-2-4.3-3.5-6.1c-0.8-0.9-1.4-2-1.8-3.1c-1-3.3-2.5-6.4-4.1-9.4c-0.3-0.6-0.4-1.3-0.2-1.9c-2.5-4.5-5-9.1-7.5-13.5
		c-3-5.4-5.9-10.9-9.5-15.9c-2.4-3.5-4.8-6.9-7.2-10.4c-0.9-1.3-1.8-2.6-2.8-3.9c-3-3.8-6.1-7.6-9.1-11.4c-0.8-0.9-1.7-1.9-2.5-2.8
		c-0.2,0-0.3-0.1-0.4-0.2c-0.9-0.4-1.9-0.9-2.8-1.3c-3-1.4-6-2.8-9-4.2c-0.7-0.3-1.4-0.8-2.2-0.4c-0.2,0.6,0.2,1,0.5,1.4
		c5.7,7.4,9.3,15.9,13.4,24.2c1.3,2.4,2.2,5.1,2.9,7.8c0.6,2.2,1.7,4.1,3.1,5.8c8.5,10.7,15.8,22.1,20.8,34.9
		c2.1,5.4,4.6,10.6,7,15.9c1.3,2.8,2.7,5.4,4,8.2c1.4,2.8,3.3,5,5.9,6.8c1.3,0.9,2.5,1.9,3.9,2.8c7.6,5.2,13.9,11.7,19,19.4
		c2.4,3.6,4.8,7.2,7.3,10.8c1.3,1.8,2.4,3.8,3.2,5.8c3.3,8.6,7.2,17,8.3,26.3c0.1,0.4,0.2,0.8,0.3,1.2c1.1,3.9,1.3,7.8,1.3,11.7
		c-0.1,5.4-0.6,10.8-1.2,16.2c-0.6,5-1.7,9.8-3.7,14.6c-0.3,0.9-0.6,1.7-1.3,2.4c-0.8,0.9-1.9,1.1-2.9,0.7c-1.1-0.4-2.2-0.9-2.4-2.3
		c-0.2-2.4-0.4-4.7-0.7-7.1c-0.4-2.9-0.6-5.8-1.3-8.6c-1.9-7.5-5.1-14.4-9.4-20.8c-2.2-3.3-4.4-6.5-6.7-9.8c-1.4-2-2.6-4.4-4.3-6.1
		c-4.6-4.5-9.8-8.5-14-13.4c-0.3-0.4-0.9-0.6-1.3-0.8c-0.9-0.3-1.9,0.5-1.8,1.4c0.1,0.8,0.3,1.6,0.5,2.3c1.3,5.3,2.9,10.4,4.7,15.5
		c4.6,12.9,9.4,25.7,14.1,38.7c3.5,9.4,6.1,19,7.2,29.1c1.3,11.4-0.4,22.4-3.5,33.2c-0.3,1-0.7,2-1.3,2.9c-2.7,4.3-8.3,4-10.6-0.4
		c-0.5-0.9-0.8-1.9-1.5-3.7c-0.1,2.1-0.2,3.4-0.2,4.6c0.2,6-0.3,11.9-1.4,17.7c-3.3,17.8-9.8,33.9-23,46.8c-4.6,4.6-7.7,10-9.6,16.1
		c-0.9,2.8-1.8,5.5-2.8,8.3c-0.4,1.1-0.9,2.2-1.5,3.2c-1,1.7-2.6,2.7-4.6,2.5c-2.1-0.2-3.7-1.3-4.5-3.4c-0.2-0.6-0.4-1.3-0.6-1.9
		c-0.8-3.4-2.6-6.3-4.5-9.2c-0.2-0.3-0.6-0.7-0.9-0.4c-0.2,0.2-0.4,0.6-0.3,1c0,1.2,0.1,2.4,0.2,3.5c0.5,3.9,0.5,7.9,0,11.9
		c-0.4,3.5-0.8,7.1-1.3,10.6c-0.8,6.2-2.4,12.1-6.1,17.3c-0.2,0.4-0.7,0.8-0.4,1.4c0.3,0,0.8,0.2,1.1,0c4.8-2.2,9.4-4.9,13.1-8.8
		c6-6.4,11.9-12.8,16.7-20.1c0.3-0.5,0.6-0.9,0.9-1.3c1.1-1.2,2.7-0.9,3.1,0.6c0.2,0.8,0.2,1.6,0.3,2.4c0.2,2.8-0.6,5.5-1.8,8
		c-1.7,3.6-2.5,7.5-3.6,11.3c-0.2,0.6-0.6,1.5,0.6,2.2c8.8-4.3,16.6-9.8,21.4-19c4.9-9.4,9.1-19,11.3-29.4c0.6-2.7,1.1-5.4,1.7-8.1
		c0.2-1,0.4-2.1,0.8-3.1c1.2-2.8,4.1-3.2,6.1-0.9c0.9,1,1.5,2.2,2,3.4c1.3,2.6,2,5.4,2.8,8.3c1.1,4.9,2.1,9.8,3.1,14.7
		c0.3,1.4,0.6,2.9,1.3,4.2c1.6,3.2,3.3,6.3,5,9.4c0.3,0.6,0.6,1.2,1.4,1.1c0.5-1,0.2-2,0-3.1c-1.5-12.4-2.3-24.7-2-37.2
		c0.2-5.7,0.8-11.3,2-16.8c3.1-14.7,7.1-29.2,9.8-44c0.1-0.5,0-1.2,0.6-1.4c1.2-0.5,1.2-1.7,1.7-2.5c0.2-0.5,0.4-1,0.6-1.4
		c0.7-1.1,1.7-1.5,3.1-1.3c1.2,0.2,2,1.1,2.4,2.4c0.2,0.9,0.1,1.8-0.1,2.8c-0.4,2.4-0.9,5-1,7.5c-0.5,13.9-0.5,27.7,0.8,41.6
		c0,0.4,0.2,0.8,0.2,1.2c0,0.1,0.2,0.2,0.2,0.2c0.2,0,0.6,0.1,0.7-0.1c0.3-0.4,0.6-0.9,0.9-1.3c5.9-9.6,10.7-19.7,14.2-30.4
		c3.8-11.6,6.5-23.4,6.9-35.6c0.3-7.8,0.7-15.6,0.8-23.3C866.6,351.1,865.9,336.4,863.1,321.8z"/>
	<path class="st1" d="M419.5,476.9L419.5,476.9L419.5,476.9L419.5,476.9z"/>
	<path class="st1" d="M688.1,492.5c1.6-0.6,3.1-0.4,3.9,0.6c3.3,4,6.1,8.3,8,13.1c2.5,6.5,5.4,12.9,7.5,19.6
		c0.9,3.1,2.8,5.7,4.4,8.3c0.4,0.7,1.1,0.7,1.7,0.1c4.2-4.6,8-9.5,11-14.9c4.7-8.3,7.5-17.2,8-26.7c0.9-16.3-2.6-31.7-10-46.2
		c-1.9-3.6-3.9-7.2-5.3-11c-0.2-0.5-0.3-1-0.5-1.5c-3.9-5-8.4-9.5-13.1-13.9c-1.7-1.7-3.5-3.2-5.5-4.5c-2.7-1.7-5.4-3.3-8.1-4.9
		c1.3,1.3,2.8,2.3,4.3,3.5c0.6,0.4,1.1,0.7,1.6,1.2c6.1,6.3,10.9,13.2,11.2,22.4c0.1,2.2,0,4.5-0.1,6.7c-0.1,1.3,0.2,2.5,1,3.6
		c8.7,11,12.2,23.8,12.2,37.6c0,2.9-0.9,5.4-2.8,7.6c-1.7,1.9-3.9,1.7-5.4-0.3c-0.2-0.3-0.4-0.7-0.6-1c-3.5-7.5-8.9-13.7-14.6-19.6
		c-2.2-2.3-4.9-3.5-8-3.9c-1.7-0.2-3.4-0.5-5.1-0.6c-3.6-0.4-6.5-2-8.7-4.8c-0.9-1.1-1.8-2.3-2.6-3.5c-1.2-1.7-2.6-3-4.8-3.1
		c-0.2,0-0.2-0.1-0.4-0.1c-2.5-0.7-4.9-0.8-7.3,0.5c-1.9,1-3.5,0.4-5-1.2c-8.4-9.6-18.6-17.1-29.4-23.9c-5-3.1-10.5-5-15.7-7.4
		c-3.5-1.6-7.2-2.7-10.9-3.5c-1.9-0.5-3.9-0.7-5.7-1.7c-1.1-0.6-2.3-0.5-3.5-0.4c-4.6,0.2-9.2-0.3-13.8,0.4c-0.2,0-0.5-0.2-0.6-0.3
		c-0.3-0.5,0-0.7,0.3-0.9c2.1-1.4,4.3-2.6,6.6-3.5c-0.1,0-0.2,0-0.3,0c-0.2,0-0.2,0-0.4-0.1c-0.8-0.2-1.1-1.2-0.6-1.9
		c0.3-0.4,0.6-0.9,1-1.2c3.1-2.5,6.5-4.5,10.4-5.5c3.9-0.9,8-1.6,12-1.7c6.1-0.1,12,0,18,1.4c1.5,0.4,3.1,1.3,5.3,0.6
		c-3.2-2.3-8.9-5.1-8.9-5.1s-0.9,0.2-0.8,0.2c-0.9,0-1.9-0.5-2.8-0.8c-5.4-1.9-10.9-3.3-16.4-4.4c-3.1-0.6-6.2-1-9.4-0.8
		c-6.1,0.5-12.4,1-18.5,2c-1.3,0.2-2.6,0.6-3.7,1.3c-1.3,0.8-3.1,1.3-3.9,2.5c-0.7,1-0.3,2.8-0.5,4.3c-0.9,9.2-3.3,17.9-9.3,25.3
		c-0.8,1-1.6,2.1-2.2,3.3c-2.1,3.9-4.8,7.2-8,10.2c-2.3,2-4.3,4.3-6.1,6.8c-1.8,2.4-3.7,4.8-5.6,7.2c-2.6,3.1-5.2,6.4-8.5,8.7
		c-0.9,0.6-0.9,1.3-0.2,1.9c3.6,3.1,7.6,5.6,12.5,6.5c5,0.9,10,0.9,15,0.4c0.3,0,0.6-0.1,0.9-0.2c0.8-0.1,1.6-0.2,2.4-0.3
		c3.5-0.5,6.8-1.2,10.3-1.8c11.8-2.4,23.4-1.6,34.7,2.1c0.7,0.2,1.4,0.6,2.1,0.2c-3.4-2.8-6.5-5.7-10.2-8.1
		c-0.6-0.4-1.3-0.9-1.7-1.6c-1.3-1.7-1.1-3.9,0.5-5.4c0.7-0.6,1.5-1.1,2.4-1.3c4-0.9,8.1-1.3,12.1,0.2c3.1,1,6.3,2,9.4,3.1
		c3.2,1.1,6.5,2.3,9.4,4.3c10.9,7.4,20.5,16.1,27.2,27.8c0.2,0.3,0.4,0.7,0.6,1c0.2,0.3,0.6,0.6,0.9,0.2c0.2-0.2,0.5-0.7,0.5-0.9
		c-0.2-1.8-0.6-3.6-0.9-5.4c-0.3-2.4-1.1-4.6-2.4-6.6c-0.9-1.3-1.6-2.8-2.3-4.2c-0.4-0.8-0.4-1.5,0.2-2.2c0.5-0.6,1.2-0.6,1.8-0.5
		c1.6,0.2,2.7,1.2,3.7,2.1c2.6,2.4,5.1,5,7.2,7.9c2.8,3.9,5.7,7.6,8.9,11.1c4.5,5,8.1,10.8,12.7,15.7c3.6,3.9,7.1,7.8,9.4,12.7
		c0.1,0.1,0.2,0.2,0.2,0.3c0.2,0.1,0.5,0.2,0.7,0.2c0.2-0.1,0.4-0.4,0.4-0.6c-0.1-3.5-0.2-7.1-0.4-10.7c-0.2-2.9-0.8-5.7-1.7-8.5
		c-0.9-2.9-1.8-5.7-2.8-8.7c-0.2-0.6-0.5-1.3-0.6-1.9C686.4,494.1,687,492.9,688.1,492.5z"/>
	<path class="st1" d="M737,250.2c-0.8,2.3-1.8,4.3-2.9,6.4c2.8,3.9,5.5,8,7.9,12.4c5.5,10.1,11.2,20,15.7,30.6
		c0.3,0.8,0.5,1.8,1.5,2c0.2-0.2,0.4-0.4,0.5-0.6c1.7-5.7,4-11.4,2.3-17.6c-0.5-1.7-0.6-3.4-0.7-5.1c-0.2-3.7-0.9-7.3-1.8-10.9
		c-3.8-15.1-9.6-29.4-18.2-42.4c0.3,1.7,0.6,3.3,0.5,5c0,1,0.3,2,0.5,3.1c0.2,1.3,0.1,2.6-0.4,3.9C740,241.2,738.5,245.7,737,250.2z
		"/>
	<path class="st1" d="M745.5,559.8c-0.6-0.4-1.3-0.9-1.7-1.6c-1.7-2.1-3.5-2.4-5.9-1.2c-0.7,0.4-1.5,0.5-2.3,0.7
		c-4.8,1.5-9.8,2.6-14.8,2.2c-3.3-0.3-5.9,0.4-8.4,2.4c-0.6,0.5-1.3,0.9-2,1.3c-6.5,5-13.9,8.1-21.3,11.1c-1.7,0.6-3.2,1.1-5,1
		c-2.9-0.2-4.6-1.8-4.6-4.8c0-1.6,0.2-3.1,0.3-4.7c0.6-4.5,0.6-9,0.3-13.5c-0.1-1.3,0-2.6-1-3.7c-0.2,0.2-0.6,0.2-0.6,0.5
		c-0.6,0.9-1,1.9-1.5,2.8c-3.8,7.9-5,16.4-5.5,25c-0.6,8.7,0.4,17.4,2.8,25.8c1.3,4.5-2.7,8.6-7.2,7.5c-1.6-0.4-2.9-1.2-4.3-2
		c-4.6-2.9-9.1-5.7-13.7-8.7c-2.4-1.6-4.9-3.2-7.2-4.9c-1.8-1.3-3.4-2.9-4.6-4.8c-0.6-1-0.7-2.8-2.6-2.5c-1.3,0.2-2.7,0.1-3.8,0.9
		c-0.9,0.6-1.7,1.3-2.5,1.9c-2.9,2-5.7,4.3-8.7,6.1c-7,4.3-13.9,8.7-21.3,12c-1.3,0.6-2.1,1.4-2.7,2.8c-1.5,3.4-2.8,6.8-3.9,10.4
		c-0.9,3.3-1.8,6.6-2,10.1c-0.1,2.4,0,4.7,1.3,6.9c0.3,0.6,0.6,1.2,0.7,1.8c0.8,3.4-1.8,6.1-5.2,5.5c-0.9-0.2-1.7-0.6-2.5-1.1
		c-2.7-1.7-5.4-3.4-8-5.1c-3.2-2-6.4-4.2-9.3-6.7c-4.3-3.7-7.8-7.9-9.7-13.3c-0.2-0.5-0.2-1-0.9-1.3c-1.9,1.7-3.9,3.5-5.9,5.1
		c-5.3,4.3-11.1,7.6-17,10.8c-6.5,3.5-13.7,5.5-20.8,7.6c-4.1,1.2-7.8,0.1-11.1-2.6c-3.5-2.9-6.3-6.4-8.4-10.4
		c-0.8-1.5-1.6-3.1-2.2-4.6c-0.6-1.4-1.6-2.4-3-3c-0.7-0.3-1.5-0.6-2.2-0.9c-2.8-1-2.8-1-4.3,1.6c-2,3.8-4.2,7.3-6.8,10.6
		c-2.5,3.1-5,6.1-7.6,9.1c-2.1,2.5-4.4,4.9-6.9,7c-2,1.7-4.4,2.5-7,1.4c-2.7-1.1-3.5-3.5-3.6-6.1c-0.1-2.2-0.1-4.5-0.1-6.7
		c0-4.1-0.6-8.1-1.7-12.1c-0.6-2-1.5-3.5-3.1-5c-1.9-1.7-3.7-3.4-5.4-5.2c-2.8-2.9-5.7-5.5-9.1-7.5c-2-1.2-4-2.6-5.5-4.4
		c-1.7-2.1-3.8-3.6-6.1-5c-4.1-2.4-7.7-5.5-10.7-9.3c-1.8-2.3-3.7-4.5-5.4-6.8c-0.9-1.2-1.9-1.8-3.3-1.6c-0.6,0.1-1,0.1-1.6,0
		c-3.7-0.3-7.4-0.1-11-1.1c-7.2-2-13.5-5.1-18.5-10.9c-0.5-0.6-0.9-1.4-1.9-1.2c-0.1,0.2-0.2,0.5-0.2,0.7c0.6,6.5,1.9,12.8,4.9,18.6
		c0.6,1,1.1,2.1,1.6,3.1c1.7,3.6-1.1,7.9-5.4,7c-3.8-0.7-7.6-1.2-11.3-2c-3-0.7-6-0.9-9-0.8c-6.1,0.4-12.1-0.2-17.6-3.5
		c-0.2-0.2-0.5-0.2-0.7-0.3c-4.4-1.5-8.3-3.9-12.2-6.5c-5.7-3.8-10.6-8.3-14.4-13.9c-0.3,0.6-0.6,1.2-0.7,1.8c-1.2,4.2-2.8,8.2-5,12
		c-0.2,0.5-0.5,0.9-0.6,1.4c-0.6,2.2,0.3,3.9,2.5,4.7c1.3,0.5,2.8,0.8,4.3,0.7c1.3-0.1,2.7,0,3.9,0.1c2,0.2,2.5,0.7,2.7,2.7
		c0.1,1-0.1,2.2,0.2,3.1c0.5,1.5,0.2,2.9-0.3,4.3c-0.6,1.3-1.1,2.7-1.8,3.9c-3.1,5.3-6.2,10.4-9.2,15.7c-2.3,4.2-4.4,8.4-6.5,12.7
		c-0.7,1.4-0.3,2.6,0.8,3.5c1,0.8,2,0.8,3.3,0c0.6-0.4,1.1-0.8,1.6-1.3c2.3-2.3,5-3.9,7.8-5.4c4.3-2.4,8.7-4.3,13.2-6.2
		c5.2-2.3,10.6-3.8,16.1-5.1c1.3-0.3,2.7-0.4,3.9,0c2.6,0.8,5.2,0.6,7.9,0.7c3.9,0,7.9-0.1,11.9-0.1c1.2,0,2.4-0.1,3.5-0.4
		c2-0.5,3.9-0.9,5.4-2.2c0.3-0.2,0.7-0.3,1-0.1c0.4,0.3,0.2,0.7,0.1,1.1c-0.8,2-1.1,4-1.5,6.1c-0.5,2.7-0.9,5.4-2.2,8
		c-2.1,4.5-3.9,9.2-5.8,13.9c-0.2,0.6-0.4,1.3-0.5,1.9c-0.1,0.4,0,0.9,0.2,1.1c0.4,0.6,0.9,0.2,1.4-0.1c1-0.6,2-1.2,3.1-1.8
		c6.5-3.9,12.8-8.5,20.2-10.6c0.6-0.2,1.2-0.6,1.8-0.9c5.2-2.3,10.5-4.3,15.9-6c1.6-0.5,3.1-0.6,4.6-0.6c1.3,0,1.9,0.8,2.4,1.8
		c0.4,0.9,0.3,1.8,0,2.7c-1,3-1.7,6-3.6,8.7c-1.6,2.2-2.8,4.7-4.2,7.2c-0.3,0.6-0.4,1.3-0.6,1.8l0,0c-0.1,0.2-0.2,0.3-0.3,0.4
		c0.2-0.1,0.3-0.2,0.4-0.3c0.9,0.1,1.5-0.5,2.1-0.9c4.7-3.5,10.1-3.5,15.5-2.8c0.6,0.1,1.3,0.4,1.9,0.6c0.6,0.2,0.9,0.6,0.9,1.2
		c0,1.6,0,3.1-0.2,4.7c-0.1,1.2-0.3,2.4-0.4,3.5c-0.1,4.1-0.1,8.2-0.1,12.3c0,3.8,0.2,3.9,3.8,2.7c6.4-2.1,12.6-4.6,18.8-7
		c8.6-3.4,17.2-6.8,25.3-11c3.4-1.7,6.7-3.7,9.4-6.5c0.5-0.5,0.9-0.9,1.6-1.2c0.9-0.6,2.3,0,2.6,1c0.2,0.6,0.2,1.3,0.3,1.9
		c0.2,1.9-0.6,3.6-1.3,5.4c-0.6,1.9-1.3,3.7-1.3,5.7c0.1,8,0.2,16.1,0,24.2h29.4c3.1-4.2,6.6-8,10.5-11.6c2-1.8,3.8-3.7,5.7-5.5
		c1.9-1.9,4-3.4,6.1-5c1.4-1.1,3-1.6,4.8-1.5c0.9,0.1,1.8,0,2.8,0.1c2.5,0.2,4,1.5,4.1,3.9c0.2,2.5,0.3,5,0.6,7.5
		c0.2,1.7,0.2,3.5-0.1,5.1c-0.5,2.1-0.6,4.2-0.5,6.3c0,0.2,0,0.5,0,0.7H580c-0.3-3.7-0.3-7.4-0.2-11.1c0.1-2.6,0.2-5.3-0.2-7.9
		c-0.2-1.2-0.1-2.4,1.2-3.1c0.9-0.5,2.4,0.4,3.2,1.7c0.2,0.2,0.2,0.5,0.3,0.7c2.8,6.9,7.7,12.5,12,18.5c0.3,0.5,0.7,1.2,1.6,0.9
		c0.6-0.2,0.6-0.9,0.6-1.3c0.6-2.6,1-5.2,1.7-7.7c1.2-4.6,2.6-9.1,3.9-13.7c0.2-0.5,0.3-1,0.5-1.5c1.4-3.1,4.6-4.2,7.6-2.4
		c1,0.6,1.9,1.4,2.7,2.3c5.7,6.8,12.7,11.9,20.3,16.2c3.8,2.1,7.5,4.4,11.2,6.8c0.9,0.6,1.7,1.1,2.6,1.7h19
		c-1.7-1.3-3.2-2.7-4.6-4.2c-3.3-3.4-6.3-7-9.1-10.9c-4-5.7-6.8-11.9-9.7-18.1c-2.3-5-2.8-10.4-0.9-16.1c3.1,1.8,5.8,3.8,8.5,5.8
		c1.7,1.3,3.4,2,5.5,1.7c0.7-0.1,1.3-0.5,1.3-1.3c0.1-1,0.2-2.1-0.1-3.1c-0.6-2.4-0.6-4.7-0.5-7.1c0.2-3.6-0.6-7.1-1.7-10.5
		c-0.4-1.3-0.9-2.4-1.3-3.7c-0.2-0.5-0.2-1,0-1.6c0.5-1.7,2.5-2.4,3.7-1.1c1.3,1.3,2.5,2.7,3.6,4.2c3.2,4.3,7.2,7.6,12.2,9.7
		c4.6,2,8.8,4.5,12.8,7.3c0-0.7,0-1.4,0-2.1c0-3.3,0.6-6.3,3.5-8.3c1.3-2.4,3.5-2.9,6-3.1c1.7-0.2,2.8,0.4,3.7,1.7
		c0.2,0.3,0.4,0.7,0.6,1c1.7,3.9,4.6,7,7.8,9.8c0.2,0.2,0.6,0.5,0.8,0.7l0.1-0.1l1-0.9c0.7-0.6,1.3-1.3,2-1.8l2.1-1.8l1-0.9
		c0.4-0.3,0.7-0.6,1.1-0.9l2.2-1.7l0.6-0.4l0.6-0.4l1.1-0.8l0.6-0.4l0,0c-2.5-7.3-4.3-14.9-6.1-22.4c-0.4-1.6-0.4-3.1-0.3-4.7
		c0-0.3,0.3-0.7,0.6-0.9c0.5-0.3,1-0.2,1.5,0.1c0.3,0.2,0.6,0.6,0.9,0.9c4.6,6.1,10.4,10.8,16.8,14.8c1.4,0.9,3,1.6,4.6,1.9
		c1.9-0.9,3.8-1.7,5.7-2.5c0.4-0.2,0.9-0.4,1.3-0.6l0.9-0.4c-1.3-1.3-2.4-2.8-3.4-4.4c-4.9-7.6-6.8-16.1-7.5-25c0-0.4-0.1-0.8,0-1.2
		c0.6-2,0.7-4.2,0.8-6.2c0.1-1.2,0.6-2,1.7-2.4c0.7-0.2,1.5-0.6,2.3-0.6c3-0.6,6-1,9-1.4c1-0.2,2.1,0,3.1,0.1
		c0.9,0.1,1.8,0.4,2.8,0.4c0.2,0,0.3,0,0.5,0C753.7,567.1,750.3,562.8,745.5,559.8z"/>
	<path class="st1" d="M688.9,152.3c2.7,0.9,5,2.8,8,3c0.9,0.1,1.7,0.7,2.4,1.2c2.6,1.6,5.1,3.1,7.7,4.8c3.3,2,5.9,4.8,8.3,7.9
		c3.9,4.9,6.7,10.3,9.4,16c3.4,7.3,6.2,14.9,8.9,22.4c1.1,1,2.1,2,3.1,3.1c7.6,7.9,14.4,16.5,20.1,25.9c5.4,8.9,10.9,17.8,14,27.9
		c0.4,1.3,0.9,2.4,1.5,3.6c0.2,0.5,0.6,0.9,1.2,0.8c0.3-0.1,0.6-0.5,0.8-0.8c0.6-1.5,1-3,1.6-4.5c1.3-3.5,1.4-6.9,0.6-10.5
		c-0.6-2.3-0.9-4.6-1.3-7c-0.9-7.9-2.8-15.6-5.3-23.1c-5.5-17-14.8-31.7-26.9-44.7c-3.4-3.7-7.1-7.1-10.6-10.6
		c-4.3-4.2-8.8-8-13.6-11.5c-5.6-4.2-11.8-6.9-19-6.5c-1,0.1-2.1,0-3.1-0.2s-2.1-0.3-3.1-0.7c-1.7-0.6-2.2-2.4-1-3.9
		c0.9-1.1,2-1.7,3.1-2.3c3.2-1.5,6.7-2.5,10.2-2.8c0.9-0.1,1.9,0.3,2.4-0.7c-0.1-0.2-0.2-0.6-0.3-0.7c-0.6-0.6-1.3-1.3-2-1.9
		c-2-1.7-4-3.1-6.1-4.6c-3.6,1.8-6.8,4.1-10.4,6.1c-1.3,0.8-2.4,2-3.5,3.2C683.5,144.1,683.4,150.3,688.9,152.3z"/>
	<path class="st1" d="M617.2,483.3l0.2-0.1c0,0,0,0-0.1-0.1L617.2,483.3z"/>
	<path class="st1" d="M510.6,574.5c-1.3-2-2.7-3.9-4-5.9c-0.5-0.7-1.2-1-2-0.9c-3.6,0.6-7.2,1.3-10.4,2.9c0.2,0.2,0.4,0.3,0.6,0.5
		c2.6,2.2,5.1,4.6,7.1,7.4c0.9,1.3,1.9,2.5,2.8,3.9c2.1,3.5,5.4,5.7,8.4,8.2c1.8,1.5,3.9,2.6,5.9,3.4c-0.1-0.1-0.1-0.2-0.2-0.3
		c-0.8-2-1.5-3.9-2-6C515.5,582.8,513.3,578.5,510.6,574.5z"/>
	<path class="st1" d="M637.8,563.8c2.7-3.5,5.2-7,7.6-10.7c4-6.4,7.3-13.1,10.1-20.2c0.3-0.7,0.7-1.4,0.3-2.4
		c-5.4-0.3-8.3-3.9-10.2-8.6c-0.4-0.9-0.7-2-1-3c-1.1-4.1-2.7-8-4.3-11.9c-1.3-3.3-3.3-6.2-5.7-8.8c-0.3-0.3-0.6-0.6-0.9-0.9
		c-4.6-4.6-9.2-9-14.5-12.7c-0.6-0.4-1.1-1-1.7-1.5c-0.5,0.6-0.6,1.2-0.3,1.8c0.5,1.3,1,2.7,1.6,4.1c1.4,3.6,1.1,7.3,0.4,10.9
		c-0.8,3.9-3.9,5.2-7.6,3.4c-1.4-0.7-2.6-1.8-3.7-3c-1.1-1.3-2.2-2.6-3.3-3.9c-0.9-1-1.8-1.9-3-2.5c-1.4-0.6-2-0.5-2,1
		c-0.5,4.3-1.1,8.7-2.4,12.8c-1.7,5.5-4.3,10.5-8.6,14.5c-1.7,1.7-3.4,3.4-5,5.1c-2.2,2.3-4.4,4.6-6.9,6.5c-0.9,0.7-2,1.3-3.1,1.6
		c-2.1,0.4-4.1-1.3-3.8-3.4c0.2-1.2,0.6-2.3,1.1-3.4c0.8-2,1.7-3.9,2.3-5.9c2.2-6.9,2.3-14,1.7-21.2c-0.2-1.8-0.8-3.6-1.7-5.3
		c-0.7-1.4-1.3-1.6-2.8-0.8c-1.8,0.9-1.9,0.9-1.6,3c0.2,1.6,0.3,3.1,0.1,4.7c-1.7,10.6-4.8,20.5-13.5,27.9c-0.3,0.2-0.6,0.6-0.9,0.8
		c-5.7,5.3-11.7,9.8-19.6,11.2c-0.6,0.1-1.3,0.4-1.9,0.6c-6.4,1.6-12.8,2-19.2,0.6c-8.7-2-17.5-4.3-24.8-9.8c-1-0.8-2.2-1.4-3.4-2
		c-3.8-2.1-6.5-5.3-8.7-9.1c-1.7-2.9-3.1-5.8-4.3-8.9c-1.3-3.2-2.5-6.4-3.8-9.6c-0.2-0.5-0.3-1-1-0.9c-0.6,0.1-0.9,0.6-1.1,1
		c-0.6,0.9-1,1.9-1.1,2.9c-0.2,3.1-0.4,6.1,0.4,9.1c1.4,5.6,3.9,10.6,7.1,15.4c1.9,2.7,3.7,5.4,6,7.9c0.9,1,1.5,2.2,0.9,3.6
		c-0.7,1.6-2,2-3.5,1.9c-1.4-0.1-2.9-0.2-4.3-0.2c-4.2,0.1-7.7-1.3-10.9-4.1c-3.8-3.4-7-7.2-9.3-11.7c-1.8-3.5-3.5-7.2-4.4-11
		c-0.8-3.2-2.8-5.3-5-7.3c-0.6-0.6-1.2-0.4-1.7,0.2c-3.7,5.4-7.2,10.8-8.3,17.3c-0.3,1.8-0.3,3.7-0.6,5.5c-0.3,2.3-1.7,3.7-3.4,3.8
		c-1.6,0-2.9-1.1-3.5-3.2c-1.8-7-3.7-14-3.5-21.4c0-0.4,0-0.8-0.1-1.2c0-0.1-0.5-0.2-0.6-0.2c-0.3,0.2-0.6,0.5-0.8,0.9
		c-2.2,4.3-5.6,7.6-8.6,11.3c-0.5,0.6-1.1,1.2-1.7,1.6c-1.3,0.8-2.9,0.9-4.1-0.1c-1.9-1.7-3.9-3.2-4.5-5.8c-0.4-1.7-1-3.3-1.6-4.9
		c-0.9-2.5-1.7-5-2.6-7.5c-1.5,0.1-2.4,0.9-3.2,1.7c-3.8,2.8-7.4,6-10.8,9.3c-1.3,1.2-2.4,2.5-3.4,3.9c-2.4,3.3-4.7,6.7-6.9,10.1
		c-2.3,3.5-3.9,7.5-5,11.6c-0.3,1.2-0.2,2,0.8,2.8c3,2,5.6,4.4,8.3,6.8c1.4,1.2,2.9,2.3,4.5,3.2c4.4,2.6,9,5,13.8,7
		c0.9,0.4,1.7,0.8,2.8,0.6c1-2.3,2-4.7,3.5-6.9c1.6-2.3,3.3-4.4,4.3-7.1c0.3-0.9,1-1.5,1.8-2c1.4-0.9,3.1-0.7,4.3,0.2
		c0.8-0.9,1.5-1.8,2.2-2.8c1.5-2,2.2-2,4.3-0.6c0.3,0.2,0.6,0.5,0.9,0.7c2.7,2.2,5.7,3.7,8.8,5.2c3.9,1.9,7.9,1.8,12,1.5
		c1.6-0.2,3.1-0.9,4.3-1.8c2-1.3,3.6-0.9,5.3,0.6c2,1.7,4,3.4,6.1,5c2.4,2,4.9,4,7.1,6.3c3.5,3.6,8.1,5.3,12.8,6.6
		c1.7,0.5,3.3,0.8,5,1.2c0.4,0.1,0.8,0.2,1.2,0.2c0-0.1,0-0.2,0-0.2c0.2-5.2,1.7-10.1,3.9-14.8c1.1-2.4,2.6-3.1,5.2-2.4
		c3.3,0.9,6.5,2,9.8,3c1,0.3,2,0.8,3.1,0.6c2-0.4,3.9,0.2,5.8,0.9c3.1,1.1,6.4,1.6,9.7,1.4c6.3-0.2,12.6-0.5,18.8-2.1
		c5.1-1.3,10.3-2.2,15.4-3.5c2.5-0.6,5-1.4,7.5-2.6c1.8-0.9,3.8,0.6,3.9,2.6c0,0.2,0,0.2,0,0.4c-0.6,2.6-1,5.2-1.7,7.8
		c0.3-0.2,0.6-0.2,0.9-0.3c7-1.7,12.8-5.6,18.1-10.2c1.8-1.5,3.5-3.3,5.1-5c2.8-2.8,5.6-5.6,8.3-8.4c1-1,2.1-2,3.5-2.4
		c1.2-0.5,2.3-0.3,3.3,0.6s1.8,1.9,2.4,3.1c0.6,1.1,0.9,2.3,1.7,3.1c0.6,0.6,0.9,1.3,1.2,2c1.9-3.1,3.8-6.3,5.6-9.4
		c2.8-4.6,4.3-9.6,5-14.9c0.2-0.9,0.3-1.8,0.4-2.8c0.2-2.5,1.7-4.1,3.5-5.5c0.9-0.7,2-0.9,3-0.3c2.2,1,4.1,2.4,5.2,4.6
		c1.4,2.9,2.5,5.8,2.3,9.1c-0.5,5-1.4,9.8-3.1,14.2c1.1-0.6,2-0.3,3.3,0.8c1,0.9,1.9,1.8,2.5,3c2.6,5.4,3.9,10.9,2.6,16.8
		C637.9,561.6,637.8,562.7,637.8,563.8z"/>
	<path class="st1" d="M601.2,476c0.1-0.1,0.2-0.2,0.2-0.2c0-0.1,0-0.2-0.1-0.2C601.3,475.8,601.3,475.8,601.2,476z"/>
	<path class="st1" d="M553.2,567.4c-1-0.7-1.1-2-1.3-3.2c-0.2-0.9-0.9-1.3-1.8-1.1c-1.4,0.3-2.8,0.9-3.9,1.8
		c-6.8,4.8-12.3,10.8-14.9,18.9c-0.9,2.8-1.7,5.6-2.5,8.3c-0.4,1.2-0.8,2.4-1.3,3.5c1.2,0,2.4-0.2,3.6-0.6c4.2-1.1,7.9-2.9,10.9-6
		c5.5-5.4,10.2-11.4,14.2-17.9c0.2-0.2,0.3-0.5,0.5-0.6c-0.3-0.2-0.6-0.4-0.9-0.7C554.9,569,554.1,568.1,553.2,567.4z"/>
	<path class="st1" d="M300.8,383c0.3,0.6,0.6,1.2,1.4,1.5c0.3-0.5,0.8-0.9,1-1.5c2.4-4.5,5.4-8.7,8.6-12.7c0.3-0.9,0.7-1.7,1.2-2.5
		c0.3-0.5,0.6-1,0.9-1.5c1.3-1.9,2.8-3.6,4.5-5.2c3-2.8,6.3-5.1,9.5-7.6c2.4-1.8,5-3.3,7.6-4.6c1.3-0.7,2.4-1.5,3.8-2.1
		c19.5-10.4,40.4-14.2,62.3-12.4c0.5,0.1,1,0.3,1.5-0.2c0.3-0.6,0-1-0.2-1.5c-0.3-0.9-0.7-1.7-0.9-2.6c-0.6-3,0.9-5.3,3.9-5.8
		c1.4-0.2,2.9-0.2,4.3-0.3c2.1-0.1,4.3,0,6.3-0.2c5.6-0.3,5.6-0.3,9.1-4.8c1.3-1.7,2.4-3.5,3.1-5.4c0.8-2.2,0.8-4.4-0.2-6.5
		c-0.3-0.8-0.9-1.3-1.8-1.3c-3.1-0.2-6.1-0.1-8.5,2.2c-1.3,1.3-2.9,2.2-4.5,3.3c-2.8,2-6,3.3-9.4,3.9c-11.3,2-21.7-0.2-31.6-5.9
		c-2.7-1.6-4.8-3.7-6.7-6.1c-1.6-2.1-3.1-4.3-4.7-6.4c-5.2-7-7.7-15-7.7-23.6c0-0.9,0.1-1.8,0.2-2.6c-0.5-1.3-0.3-2.6,0.4-3.9
		c2.1-4,5.1-7.3,8.5-10.3c0.8-0.7,1.3-0.9,2-0.6c3.5-3,7.3-5.6,11.4-7.7c0.7-0.4,1.8-0.4,2-1.8c-1.7,0.4-3.2,0.6-4.7,1
		c-1.4,0.4-2.8,0.9-4.1,1.3c-1.5,0.6-3,1.2-4.3,1.9c-1.3,0.6-2.5,1.5-3.7,2.3c-1.3,0.9-2.5,1.9-3.8,2.9c-1.1,0.9-2.1,2-3.2,2.9
		s-2,2.2-3.5,2.8l0,0c1.6-3.6,3.3-7.2,5.7-10.2c-2.8,2.4-5.2,5.2-7.5,8.1c-1.7,2.3-2.8,5.1-5.4,6.7c-0.3,0.2-0.5,0.6-0.7,0.9
		c-2.4,3.2-3.9,6.7-4.4,10.2c1.2-1.7,2.5-3.1,3.9-4.6c0.2-0.2,0.8-0.1,1.1,0.2c0.1,0.1,0.2,0.2,0.2,0.2c0.2,0.4,0.2,0.7,0.3,1.1
		c0.1,0.8,0.2,1.6,0.2,2.4c0.2,9.4,4.6,16.8,10.3,23.8c1.3,1.7,2.7,3.2,3.9,4.9c2.3,2.9,4.4,5.9,6.8,8.7c0.9,1.1,2.1,2,3.2,2.9
		c0.6,0.6,1.4,0.8,1.7,1.7c-0.4,0.9-1.1,0.5-1.6,0.3c-2-0.6-4-1.3-6.1-1.8c-1.4-0.4-2.8-0.6-4.2,0.4c-0.9,0.7-2.2,0.9-3.4,1
		c-1.7,0.2-3.4,0.5-5,0.8c-5.6,0.9-10.6,3.1-14.6,7.2c-4.8,5-9.5,9.9-12.6,16.1c-0.7,1.5-1.7,2-2.8,1.7c-1.1-0.3-2-1.4-1.9-2.7
		c0.6-7.4,1.7-14.6,5.8-21.1c1.1-1.8,2.1-3.6,3.1-5.5c0.2-0.5,0.5-0.9,0.3-1.4c-1.3,0.2-2.2,1.3-3.2,2c-1.4,0.9-2.8,1.9-4.5,2.4
		c-4.1,1.3-7.6-1.7-6.9-5.9c0.3-2,1.2-3.8,2.4-5.4c1.2-1.6,2.6-2.9,4.1-4c-0.3-0.7-0.7-1.3-1-2.1c-1.2-3.2-2.4-6.5-1.8-10
		c0.6-3.4,1-6.8,2.6-9.9c-0.7,0.4-1.3,0.9-2,1.3c-5,2.9-10.1,5.8-15,8.8c-3.2,2-6.4,4.3-9.5,6.4c-7,4.7-12.6,10.8-17,18
		c-0.2,0.2-0.2,0.5-0.4,0.7c-0.9,1.1-2,1.6-3.1,1.1c-1.2-0.5-1.8-1.3-1.7-2.8c0.1-1,0.2-2.1,0.6-3.1c1.1-4.3,2.2-8.7,3.3-13.1
		c1.2-4.6,2.9-9.1,5.4-13.1c1-1.7,1.7-3.5,2.2-5.4c0.9-3.5,2.3-6.8,4.1-9.8c-1.1-1.3-2-2.8-2.1-4.8c-0.1-1.7-0.7-3.4-2-4.6
		c-0.9-0.9-1.2-2-0.9-3.3c0.8-3.8,1.5-7.6,3.2-11c-10.6,8.9-18.6,20.1-24.6,32.7c-0.9,1.8-1.6,3.6-2.1,5.5
		c-3.5,12.3-5.3,24.7-4.2,37.5c0.9,11.4,4.7,21.9,10.2,31.8c1.5,2.7,3.3,5.1,5.3,7.4c0.2,0.3,0.9,0.2,0.9-0.2
		c0.2-0.8,0.2-1.6,0.3-2.4c0.5-4.6,1.5-9.1,3.1-13.5c2.2-6,6.1-11.1,9.5-16.4c0.2-0.2,0.3-0.4,0.6-0.6c1.3-1.2,3.4-1.4,4.7-0.6
		c1.5,0.9,2.1,2.8,1.5,4.5c-0.3,0.9-0.8,1.7-1.2,2.5c-2,4.7-2.8,9.6-2.2,14.7c0.6,4.7,1.7,9.4,3.1,13.9c1.3,4.2,3.1,8.1,5.8,11.6
		C297.2,377.1,299.1,380,300.8,383z"/>
</g>
<g>
	<path class="st2" d="M241.6,511.7c0.6-0.1,0.9,0.5,1.1,0.9c0.5,1.1,0.6,2.4,1.3,3.3c1.6,2,2.4,4.3,3.5,6.6c1.7,3.7,4.3,6.9,7.1,10
		c4.5-3.6,8.3-7.5,11.4-12.2c-4.6-4-9.1-7.9-13.6-11.8c-6.3-5.6-11.5-12-14.9-19.8c-2-4.6-3.6-9.4-5-14.2c-0.6-2.3-1.1-4.6-1.4-7
		c-0.9-6.5-0.6-13.1-0.6-19.8c0-3.3,0.2-6.6-0.2-9.9c-0.1-0.6,0-1.3,0.1-2c0.2-1,0.9-1.6,1.8-1.9c0.9-0.2,1.6,0.1,2.1,0.6
		s0.8,1,1.1,1.7c0.6,1.2,1.1,2.4,1.8,3.5c3.2,5.3,6.3,10.6,9.3,16.1c0.3,0.6,0.5,1.2,1.4,1.3c0.6-1.2,0.6-2.5,0.5-3.9
		c-0.2-2.2-0.4-4.5-0.8-6.7c-1.3-6.5-3.6-12.7-6.6-18.6c-4.5-8.7-8.7-17.5-12.8-26.4c-0.3-0.7-0.5-1.5-1.4-1.9
		c-0.2,0.2-0.5,0.6-0.7,0.9c-5,8.8-9.8,17.8-13.4,27.3c-0.7,1.9-1.3,3.9-1.9,5.7c0,0.2,0,0.4,0.1,0.6c0.5,3.6,0.3,7.3,1.2,10.9
		c0.6,2.5,0.6,5.2,0.9,7.8c1.4,9.8,3.3,19.4,5.9,29c2.8,9.8,6.5,19.2,10.7,28.4c1.4,3.2,2.7,6.6,4.3,9.8c1.3,2.8,2.8,5.4,4.4,8
		c0.9,1.6,1.8,3.1,2.8,4.6c-0.2-4.4,0.4-8.7,0-13.1c-0.2-2.4,0.1-4.7,0.1-7.1C240.9,512.4,241,511.8,241.6,511.7z"/>
	<path class="st2" d="M290.8,240.7c-2.3,1.6-4.4,3.2-6.5,5c-1.7,3.5-2.4,7.2-3.2,11c-0.2,1.2,0,2.4,0.9,3.3c1.3,1.3,1.9,2.9,2,4.6
		c0.1,2,0.9,3.5,2.1,4.8c2.1-3.5,4.9-6.7,8.2-9.5c4.6-3.9,9.6-7.4,14.7-10.7c6.3-4.1,6.2-2.5,6.8-11.2c0.2-3.1,0.7-6.1,1.3-9
		c0.8-3.9,2.2-7.6,4.3-11c0.6-0.9,1.1-1.8,1.6-2.8c0.3-0.6,0-1.4-0.7-1.5c-1.3-0.2-2.6-0.3-3.9-0.5c-0.9-0.1-1.8,0-2.8,0
		c-0.6,0-1.3,0-2-0.2c-1.1-0.2-2-0.8-2.3-2c-0.3-1.3,0.1-2.4,1.1-3.1c0.9-0.6,1.8-1.1,2.8-1.5c3.3-1.4,6.8-2.3,10.2-3
		c6.6-1.3,13.2-2.6,20-2.5c1.3,0,2.6-0.3,3.9-0.9c6.4-2.6,12.8-3.9,19.8-2.8c1.4,0.2,2.9,0.2,4.3,0.3c1.2,0.1,2,0.8,2.3,1.9
		c0.4,1.3,0,2.4-1,3.1c-1,0.9-2.3,1.3-3.6,1.4c-1.6,0.1-3.1,0.2-4.7,0.1c-1.8-0.1-3.4,0.3-5,1.1c-3.3,1.7-6.5,3.5-9.4,5.7
		c-1.4,1-2.8,2.1-4.1,3.1c-10.6,7.6-16.5,18.3-19.7,30.6c-0.4,1.5-0.6,3.1-0.9,4.6c-0.2,1-0.4,2.1-1.1,2.9c-1.1,1.2-1.2,2.6-1.2,4.1
		c0,2.8,0,5.5,0,8.3c0,0,0,0-0.1,0c0,2.7-0.1,5.3,0,8c0.1,3.1-1.2,5.4-3.7,7c-0.6,0.4-1.1,0.7-1.7,1c-1.6,3.1-2,6.6-2.6,9.9
		c-0.6,3.5,0.6,6.8,1.8,10c0.2,0.7,0.7,1.4,1,2.1c0.4-0.2,0.7-0.6,1.1-0.8c8.2-5,13-12.6,16.3-21.3c0.5-1.3,1.2-2.5,2-3.6
		c0.6-3.5,2-7,4.4-10.2c0.2-0.3,0.4-0.8,0.7-0.9c2.6-1.6,3.7-4.4,5.4-6.7c2.3-3,4.7-5.7,7.5-8.1c0.9-1,1.7-2,2.8-2.9
		c5.7-5,12.4-8.1,19.5-10c7.3-2,14.6-1.5,21.9,0.6c1.5,0.4,3.1,0.9,4.6,1.2c4,0.6,7.6,2,10.8,4.6c0.8,0.6,1.7,1.2,2.6,1.7
		c3.3,2.3,6.1,5,8,8.6c2,3.5,4.2,7,6.1,10.6c1.4,2.7,2.4,5.3,2.4,8.3c0,1,0.1,2.1,0.6,3.1c0.6,1.3,1.9,2,3.2,1.8
		c1.3-0.2,2.4-1.3,2.5-2.7c0.1-0.6,0.1-1.3-0.1-2c-0.8-5-2-9.8-4-14.4c-2.4-5.4-5.4-10.2-9.1-14.7c-4-5-9-8.5-14.7-11.1
		c-2-0.9-4.1-1.7-6-3c-0.9-0.6-2.1-1-3.3-1.3c-2-0.5-4.1-0.9-6.2-1.2c-16.8-2.3-30.9,3.1-42.7,15c-2.7,2.7-5,5.7-7.6,8.6
		c-1.7,1.8-3.6,3.5-5.4,5.2c-0.5,0.5-1,0.2-1.3-0.3c-1.2-1.6-1.3-3.5-1.1-5.3c0.5-5.4,2.8-10.2,6-14.4c6.1-8,14.1-13.9,23.1-18.3
		c10-5,20.5-7.6,31.7-6.8c7.8,0.6,15,2.5,21.6,6.8c0.5,0.3,0.9,1,1.7,0.3c-1-3.4-2.1-6.8-3.1-10.2c-0.4-1.4-0.8-2.8-0.9-4.3
		c-0.4-3.9,2-6.6,6-6.9c2.6-0.2,5,0.4,7.2,1.6c1,0.5,1.9,1.5,3.1,1.5c0.4-0.5,0.3-1,0.3-1.5c-0.5-4-2.2-7.6-4-11.1
		c-3.4-6.5-8.3-11.5-15.3-14.2c-0.6-0.2-1.3-0.5-1.3-1.3c0.1-0.9,0.1-1.9,1.1-2.4c0.7-0.3,1.4-0.7,2.2-0.8c1.8-0.2,3.7-0.2,5.5,0.2
		c0.3,0.1,0.6,0.2,0.9,0.2c1-0.4,2.1-0.6,3.1-0.4c2.7,0.6,5.4,0.9,8,2c4.4,1.7,8.6,3.9,12.7,6.4c3.4,2,6.5,4.5,9.2,7.4
		c1.1,1.2,2.2,2.2,3.3,3.4c0.9,0.9,2,1.4,3.1,0.9c2.4-0.9,5-0.6,7.4-0.6c2,0,3.9,0.6,5.6,1.7c2.3,1.4,4.4,2.8,6.3,4.8
		c1.1,1.2,2.2,2.3,3.5,3.1c2.7,1.5,5.4,2.7,8.6,2.4c2-0.2,4.2,0,6.3-0.5c2.8-0.7,5.5,0.2,8,1.3c1.3,0.6,2.2,0.5,3.3-0.1
		c3.4-1.6,6.4-3.8,9-6.4c4.3-4.3,8.6-8.7,14-11.5c5.1-2.7,8.7-6.7,12-11.1c0.2-0.2,0.3-0.4,0.6-0.6c3.3-4.3,7-8.3,11.2-12
		c4.5-3.9,8.7-8,13.1-12c0.9-0.8,1.6-1.8,2.6-2.4c6.4-3.7,10.4-9.2,12.8-16.1c0.8-2.2,1.2-4.6,2-6.8c0.7-2,0.2-3.9-0.5-5.8
		c-0.6-1.7-2.5-2.1-3.9-0.9c-1,0.9-1.7,2-2.3,3.2c-2,3.9-4.4,7.5-6.9,11c-1.9,2.6-4,4.9-6.6,6.8c-4,2.9-8,6-12.4,8.6
		c-2.5,1.4-4.8,3.2-7.2,4.9v0.1l-0.1-0.1l-0.2-0.2c0,0,0.1,0.2,0.2,0.2l0,0c-0.4-0.9,0-1.7,0.3-2.5c2-5.4,3.4-10.8,5-16.3
		c1.3-4.5,1.7-9.1,2-13.7c0-0.7,0.3-1.7-0.9-1.8c-2.8,6.5-6.8,12.5-10.3,18.7c-4.3,7.2-9.9,13.3-15.3,19.7c-0.2,0.2-0.4,0.4-0.6,0.5
		s-0.6,0-0.6-0.2c-0.2-0.2-0.2-0.5-0.2-0.8c0.2-5.3-0.5-10.5-0.7-15.8c-0.2-2.7-0.3-5.3-1.3-7.8c-0.9-2.3-2-4.6-3.1-6.8
		c-0.4-0.8-0.6-2-1.7-1.8c-0.9,0.2-0.9,1.3-1,2c-1.3,4.6-2.4,9.1-3.8,13.7c-1,3.5-2.5,6.9-4.6,10.1c-1.4,2.2-2.6,4.6-3.6,7
		c-1.6,3.6-3.9,6.8-6.9,9.5c-0.6,0.5-1,0.6-1.7,0.2c-1.2-0.6-2.1-1.4-2.4-2.9c-0.2-1.6-0.9-3.1-1.2-4.6c-1.2-5.7-3.9-10.6-6.7-15.6
		c-0.9-1.7-2.3-3.2-3.8-4.6c-1.5-1.3-3.2-2.3-5.1-2.9c-0.7-0.2-1.3,0.2-1.3,0.9c0,0.8,0.1,1.6,0.2,2.4c0.3,2.6,0.8,5.2,1.1,7.9
		c0.6,4.3,0.2,8.4-1.1,12.5c-0.4,1.1-0.8,2.3-1.5,3.2c-1.9,2.8-5.4,2.6-7.2-0.2c-0.6-1-1-2.1-1-3.4c0-1.3,0-2.7,0-3.9
		c0.1-3.3-0.1-6.5-0.7-9.8c-1.3-7.1-4-13.3-9-18.6c-1.4-1.5-2.8-2.9-4.3-4.3c-4.3-2-8.9-3.3-13.6-4.3c-6.5-1.3-12.8-3.2-18.5-6.6
		c-0.9-0.5-1.9-1.5-2.9-0.9c-0.8,0.5-0.8,1.1-0.6,1.8c1.7,1.1,3.2,2.1,4.9,3.2c5.9,3.9,10.9,8.7,15.2,14.3c3.5,4.6,6.3,9.4,8.3,14.8
		c0.2,0.6,0.6,1.2,0,1.9c-1.4-0.6-2.6-1.7-3.7-2.8c-2.8-2.8-6-5.2-9-7.8c-4.5-4-9.6-6.9-15.2-9.1c-5.5-2.3-10.9-4.6-16.2-7.3
		c-2.1-1.1-4.3-1.9-6.5-2.8c-6.2-2.3-12.5-4.1-18.9-5.8c-0.6-0.2-1.3-0.4-1.9-0.4c-1.1-0.1-2,1-1.8,2.1c0.2,0.9,0.6,1.7,1.3,2.4
		c3.6,4,6.7,8.5,9.8,12.8c0.4,0.6,0.9,1,1.1,1.7c1.7,3.3-0.6,6.9-4.3,6.9c-1.3,0-2.4-0.3-3.5-0.8c-6.4-2.8-13.1-2.8-19.8-2
		c-7.2,0.9-13.8,3.5-20.1,6.9c-9.1,5-17.6,11.1-25.7,17.6c-0.5,0.4-1.1,0.7-1.2,1.5c0.6,0.5,1.2,0.2,1.8,0c5.8-1.2,11.7-2,17.6-2.1
		c7.2-0.2,14.5,0.2,21.7,1.2c4.4,0.6,8.8,1.4,13.1,2.9c3.7,1.3,6.8,3.5,9.6,6.1c1.2,1,1.6,2.4,1.1,3.9c-0.6,1.6-1.7,2.4-3.2,2.6
		c-1.3,0.2-2.7,0.1-3.9-0.2c-5.7-1.1-11.6-0.9-17.3-0.3c-10.6,1.3-21.1,3.3-31.4,6.2c-12.8,3.6-25.3,8.2-37.3,14
		c-8.3,4-15.6,9.3-21.4,16.6c-1.5,1.9-3.1,3.6-4.6,5.5c-5.2,6.8-9.8,14.1-12.9,22.2c-0.2,0.7-0.8,1.4-0.1,2.3
		c0.8-0.4,1.6-0.9,2.4-1.3c3.1-1.7,6.2-3.5,9.3-5.2c4.4-2.4,9.2-3.9,14.2-4.7c4.3-0.7,8.4-0.2,12.4,1.7c1.7,0.8,3.4,1.5,5,2.4
		c2,1.1,4.1,2.2,5.6,4c-0.2,0.5-0.4,0.7-0.6,0.9C295.4,238.2,292.9,239.3,290.8,240.7z"/>
	<path class="st2" d="M466.6,64.5c2.8,1.9,5.9,3.5,9.1,4.6c5.4,1.9,10.6,3.9,16.1,5.3c3.3,0.8,6.7,1.4,10.1,2
		c2.3,0.4,4.1-0.7,5.3-2.8c0.9-1.7,1.8-3.5,2.6-5.3c0.8-1.8,2-3.3,4-3.4c2.1-0.1,3.6,1.3,4.6,3.1c0.6,1.2,1.2,2.4,1.7,3.5
		c0.9,1.7,1.9,3.5,3.2,5c2,2.2,3.5,4.6,4.4,7.4c0.4,1.1,1.1,1.3,2.1,1.3c1.9,0.1,3.1-0.7,4.3-2.3c3.1-4.5,6.3-8.7,9.4-13.1
		c3.9-5.4,8.8-9.8,14.1-13.8c9.1-7.1,19.6-11.2,30.4-14.8c1.2-0.4,2.3-0.5,3.5-0.4c2.8,0.2,4.1,2.8,2.5,5.1
		c-0.6,0.9-1.5,1.8-2.4,2.6c-1.9,1.7-3.3,3.8-4.8,5.7c-0.7,0.9-1.2,2-1.7,3.1c-0.4,0.7-0.7,1.6-0.3,2.3c0.7,1.1,1.7,0.2,2.4,0
		c6.8-2,13.9-3.1,21-3.1c4.9,0.1,9.8-0.1,14.6,0.2c3.1,0.1,6.3,0.5,9.4,0.9c3.6,0.6,7.2,1.3,10.8,2c6.1,1.3,11.9,3.4,17.6,6
		c3.1,1.4,5.2,3.7,6.8,6.5c1.2,0.6,2.3,1.3,3.2,2.2c0.4,0.4,0.2,1.1-0.2,1.3c-0.7,0.2-1.5,0.6-2.3,0.6c-1.4,0.1-2.9,0.2-4.3,0.1
		c-5.8-0.3-11.6,0.6-17.3,1.2c-4.6,0.4-9,2-13.4,3.5c-0.5,0.2-0.9,0.3-1.4,0.5c-0.5,0.7-1,1.4-1.6,2.1c-1,1.3-2.4,2.5-3.5,3.7
		c-3.9,3.7-4.4,8.2-2.5,13c0.6,1.3,1.2,2.6,2.1,3.8c0.4,0.5,0.8,1,1.2,1.5c2.3-0.6,4.6-1.2,6.8-1.8c3.2-0.8,6.5-1.3,9.6-2.3
		c5.9-1.9,12.1-2.6,18.1-4.1c0.8-0.2,1.6-0.2,2.4-0.2c4.3-0.2,8.7-0.2,13.1,0.2c14,1.3,27.5,4.8,40.5,10.4
		c8.8,3.9,16.8,8.9,23.7,15.5c4.8,4.6,9.5,9.1,14.2,13.8c0.3,0.2,0.6,0.6,0.9,0.9c1.1,1.3,1.3,2.4,0.6,3.6c-0.7,1.2-2,1.7-3.4,1.3
		c0.9,0.9,1.7,1.8,2.5,2.8c3.1,3.8,6.1,7.6,9.1,11.4c0.9,1.3,1.9,2.5,2.8,3.9c2.4,3.5,4.7,6.9,7.2,10.4c3.6,5,6.5,10.5,9.5,15.9
		c2.5,4.5,5,9.1,7.5,13.5c0.2-0.6,0.9-1.2,1.8-1.3c1.3-0.2,2.6-0.1,3.9,0.5c1.7,0.7,3.2,1.7,4.7,2.9c0.6,0.5,0.9,1.3,1.9,1.1
		c0.1-0.1,0.2-0.2,0.2-0.3c-0.5-1.3-0.9-2.4-1.4-3.7c-9.5-21.2-20.4-41.7-32.8-61.3c-2.1-3.4-4.6-6.5-7.4-9.3
		c-2.8-2.8-5.6-5.6-8.3-8.6c-5.8-6.6-12.8-11.9-20.4-16.1S719.1,97,710.9,94c-5.3-2-10.7-2.7-16.2-3c-1.2-0.1-2.4-0.2-3.5-0.3
		c-0.6-0.1-1.3-0.2-1.9-0.6c-0.3-0.2-0.6-0.6-0.6-0.9c-0.1-1.8,1.1-3.6,2.7-4.3c1.7-0.7,3.5-1.2,5.1-2.1c3.3-2,6.9-2.4,10.7-2.2
		c2.1,0.2,4.3,0.2,6.3,0.2c0.8,0,1.1-0.7,0.7-1.3c-0.2-0.2-0.3-0.4-0.5-0.6c-3.9-5.3-8.3-10.3-13.5-14.5c-4.5-3.6-9.1-7.2-13.5-10.9
		c-7.7-6.4-16.5-10.9-26.1-13.8c-8-2.4-16-4.5-24.3-5.2c-5.5-0.5-11.1-0.6-16.6-0.9c-8.3-0.6-16.6-0.2-24.9,1
		c-13.8,2.2-26.9,6.5-39,13.4c-4.8,2.8-9.8,5.3-14.1,8.7c-0.3,0.2-0.9,0.4-1,0.1c-0.4-1.3-2.2-0.4-2.5-1.5c-0.3-1-0.2-2.1,0.3-3.1
		c0.4-0.9,0.8-1.7,1.4-2.4c1.1-1.3,2.3-2.5,3.5-3.7c3.9-3.7,7.9-7.4,12.1-10.8c0.5-0.3,1.3-0.6,1-1.4c-0.7-0.6-1.5-0.3-2.3-0.3
		c-7.6,0.1-14.9,1.7-22.2,3.7c-9,2.5-17.2,6.5-25,11.6c-2.5,1.7-5,3.5-7.5,5.1c-2.5,1.7-5,3.2-6.8,6s-5,3.2-8.1,1.6
		c-0.9-0.5-1.8-1.1-2.7-1.7c-4.6-3.1-9.1-6.4-13.9-9.2c-4.7-2.8-9.8-4.6-15.1-5.7c-10.2-2-20.5-2-30.8-1.4c-0.1,0-0.2,0-0.2,0.1
		c2.2,0.6,4.3,1.3,6.5,2.1C441.8,50.7,454.7,56.6,466.6,64.5z"/>
	<path class="st2" d="M480.2,647.7c-0.3-1-1.7-1.5-2.6-1c-0.6,0.3-1.1,0.8-1.6,1.2c-2.8,2.8-6,4.7-9.4,6.5
		c-8.2,4.3-16.8,7.6-25.3,11c-6.2,2.5-12.5,4.9-18.8,7c-3.6,1.2-3.8,1.1-3.8-2.7c0-4.1,0-8.2,0.1-12.3c0-1.2,0.3-2.4,0.4-3.5
		c0.1-1.6,0.1-3.1,0.2-4.7c0-0.6-0.3-1-0.9-1.2s-1.3-0.6-1.9-0.6c-5.4-0.6-10.8-0.6-15.5,2.8c-0.6,0.5-1.3,1-2.1,0.9
		c-0.2,0.1-0.3,0.2-0.4,0.3c0.1-0.2,0.2-0.3,0.3-0.4l0,0c0.2-0.6,0.3-1.3,0.6-1.8c1.3-2.4,2.6-4.9,4.2-7.2c1.9-2.7,2.6-5.7,3.6-8.7
		c0.3-0.9,0.4-1.8,0-2.7c-0.4-1-1.1-1.8-2.4-1.8c-1.6,0-3.1,0.1-4.6,0.6c-5.4,1.7-10.7,3.7-15.9,6c-0.6,0.2-1.2,0.6-1.8,0.9
		c-7.5,2.2-13.7,6.7-20.2,10.6c-1,0.6-2,1.3-3.1,1.8c-0.5,0.2-1,0.6-1.4,0.1c-0.2-0.2-0.3-0.7-0.2-1.1c0.1-0.6,0.2-1.3,0.5-1.9
		c1.9-4.6,3.6-9.4,5.8-13.9c1.3-2.6,1.7-5.2,2.2-8c0.4-2,0.8-4.2,1.5-6.1c0.2-0.4,0.3-0.8-0.1-1.1c-0.3-0.2-0.7-0.2-1,0.1
		c-1.6,1.3-3.5,1.7-5.4,2.2c-1.2,0.3-2.4,0.3-3.5,0.4c-3.9,0.1-7.9,0.1-11.9,0.1c-2.6,0-5.3,0.2-7.9-0.7c-1.2-0.4-2.7-0.2-3.9,0
		c-5.5,1.3-10.9,2.8-16.1,5.1c-4.5,2-9,3.9-13.2,6.2c-2.8,1.6-5.5,3.1-7.8,5.4c-0.5,0.5-1,0.9-1.6,1.3c-1.3,0.8-2.3,0.8-3.3,0
		c-1.2-0.9-1.5-2-0.8-3.5c2.1-4.3,4.2-8.5,6.5-12.7c3-5.3,6.1-10.4,9.2-15.7c0.7-1.3,1.3-2.6,1.8-3.9c0.6-1.3,0.9-2.7,0.3-4.3
		c-0.3-0.9-0.2-2-0.2-3.1c-0.2-2-0.6-2.5-2.7-2.7c-1.3-0.1-2.6-0.2-3.9-0.1c-1.5,0.1-2.9-0.2-4.3-0.7c-2.1-0.8-3.1-2.5-2.5-4.7
		c0.2-0.5,0.4-1,0.6-1.4c2.1-3.8,3.8-7.8,5-12c0.2-0.6,0.4-1.3,0.7-1.8c-1.2-1.7-2.2-3.6-3.1-5.6c-0.3-0.7-0.5-1.5-1.3-1.9
		c-0.2,0.3-0.6,0.6-0.6,0.9c-1.8,6-4.7,11.4-7.2,17.1c-1.5,3.4-3.4,6.5-5.6,9.5c-4.8,6.7-9.8,13.1-16.2,18.3
		c-0.2,0.2-0.5,0.6-0.5,0.9c0,0.5,0.5,0.6,0.9,0.6c3.7,0,7.4,0.1,11.1-0.1c3.3-0.1,6.6-0.2,9.9,0.1c1.2,0.1,2.4,0.3,3.4,1
		c2.4,1.5,2.8,4.3,1.2,6.5c-0.3,0.4-0.7,0.8-1.1,1.1c-4,3.7-8,7.4-12,11.1c0.2,0.1,0.2,0.2,0.4,0.3l1,0.9l2.1,1.8
		c0.7,0.6,1.3,1.3,2,1.8l1,0.9l0.5,0.5l0.5,0.5c1.3,1.3,2.7,2.5,3.9,3.9c0.6,0.6,1.3,1.3,1.9,2l1.8,2c0.3,0.3,0.6,0.7,0.9,1l0.9,1
		c0.3-0.7,0.6-1.3,1-2c0.9-1.3,2.2-1.9,3.8-1.6c1.6,0.3,2.8,1.7,2.9,3.4c0.1,1-0.1,2.1-0.2,3.1c-0.2,2-0.4,3.9-0.5,5.8
		c1.3,1.7,2.4,3.3,3.6,5c2.4-2.9,5.1-5.5,8.1-7.9c7.2-5.6,14.6-10.8,23.4-13.9c1.5-0.6,2.9-1.3,4.3-1.9c2.5-1,5-2.4,7.9-2.4
		c0.6,0,1.2-0.6,1.8-0.7c1-0.2,2.3-1.7,3.1-0.2c0.6,1-0.8,1.8-1.3,2.6c-0.5,0.6-1,1.2-1.7,1.7c-3.6,3.5-7,7.1-10.1,11.1
		c-4.3,5.6-8,11.4-10.5,18.1c-2.1,5.9-3.7,12-4.6,18.1h2.6c3.6-6.1,8.4-11.3,14.1-15.8c0.7-0.6,1.3-1.3,2.1-1.8c2-1.6,3.9-3.2,6-4.5
		c5.2-3.1,10.5-6.1,16-8.6c1.5-0.7,2.7-1.6,3.6-2.9c0.7-1.1,1.6-2.1,2.4-3.1c1.2-1.3,2.6-2.2,4.4-2.4c2.4-0.2,4.2,1.3,4.1,3.7
		c0,1-0.2,2.1-0.4,3.1c-0.5,2.4-1.3,4.6-2.4,6.7c-0.5,0.9-1,1.9-0.9,3c0.7,5.2,1.4,10.5,2.1,15.7c0.2,1.1,0.7,2,1.6,2.6
		c1.4,1.1,2.2,1.1,3.3-0.3c3.9-5,7.6-10.2,10-16.1c0.6-1.2,1-2.4,1.7-3.5c1.7-2.8,4.6-3.1,6.9-0.8c0.7,0.7,1.3,1.7,1.7,2.6
		c1,2.2,1.4,4.6,1.1,6.9c-0.6,5.4-1.6,10.7-3.8,15.7h28.4c1.5-0.7,2.9-1.5,4.3-2.4c6.1-3.8,12.2-7.4,17.6-12
		c0.4-0.3,0.8-0.7,1.3-0.9c1.6-0.9,3.3-1,4.9-0.1c1.7,0.9,2.4,2.4,2.4,4.3c0,1.3-0.6,2.6-0.9,3.8c-0.9,2.4-1.9,4.9-2.8,7.4h17.6
		c0.1-8,0.1-16.1,0-24.2c0-2,0.6-3.9,1.3-5.7c0.6-1.7,1.4-3.5,1.3-5.4C480.4,648.9,480.3,648.3,480.2,647.7z"/>
	<path class="st2" d="M722.6,625.6L722.6,625.6l1.7-1.3l2.3-1.5c4.5-2.8,9.1-5.4,13.9-7.6c-1.7-0.3-3.1-1-4.6-1.9
		c-6.4-4-12.2-8.7-16.8-14.8c-0.2-0.3-0.5-0.6-0.9-0.9c-0.5-0.3-1-0.4-1.5-0.1c-0.3,0.2-0.6,0.6-0.6,0.9c-0.2,1.6-0.1,3.1,0.3,4.7
		C718.2,610.8,720,618.3,722.6,625.6z"/>
	<path class="st2" d="M748.5,611.9l0.3-0.2l2.6-0.9c0.4-0.2,0.9-0.3,1.3-0.5l1.3-0.4l2.6-0.9l1.3-0.4c0.5-0.2,0.9-0.2,1.3-0.4
		l2.7-0.7l1.3-0.4l0.6-0.2l0.6-0.2l2.7-0.6c7.2-1.7,14.3-2.9,21.6-3.7c1.7-0.2,3.5-0.3,5.2-0.5c-6-2.8-11.7-6.2-16.8-10.5
		c-5.9-4.9-11.2-10.4-16-16.5c-0.6-0.9-1.3-1.7-2-2.4c-0.6-0.6-1.1-1-1.7-1.6c-0.2,0-0.3,0-0.5,0c-0.9,0-1.8-0.3-2.8-0.4
		c-1-0.1-2.1-0.2-3.1-0.1c-3,0.4-6,0.9-9,1.4c-0.8,0.2-1.5,0.4-2.3,0.6c-1.1,0.4-1.7,1.2-1.7,2.4c-0.1,2.1-0.2,4.2-0.8,6.2
		c-0.1,0.4-0.1,0.8,0,1.2c0.6,8.9,2.6,17.4,7.5,25C746,609,747.1,610.6,748.5,611.9z"/>
	<path class="st2" d="M213.6,162c5.4-3.3,11-6.1,16.7-9c6.8-3.4,13.8-6.6,20.9-9.4c3.3-1.3,6.5-2.9,9.8-4.3c2.5-1.1,5-2.3,7.6-3.2
		c5.5-1.9,10.5-4.7,15.7-7.5c4.6-2.5,8.8-5.7,13.5-8.2c6.6-3.5,13-7.5,19.8-10.6c2.1-1,4.3-1.9,6.7-2.4c0.2,0,0.4-0.3,0.4-0.5
		s-0.2-0.6-0.4-0.6c-0.9-0.4-2-0.8-3-1c-5.5-1.4-10.9-2.8-16.5-4.1c-5.1-1.2-10.2-2.2-15.5-2.5c-1.3-0.1-2.6-0.2-3.9-0.4
		c-0.9,0.2-2,0.2-2.9,0.3c-5.1,0.5-10.2,0.6-15.4-0.2c-8.4-1.3-16.5-3.5-24.1-7.3c-0.6-0.3-1.2-0.5-1.7-0.7
		c-0.5,0.6-0.6,1.1-0.4,1.6c2.1,6.2,5,12,10.5,15.9c4.3,3.1,9.1,5.4,14.2,6.8c2.5,0.7,5,1.6,7.4,2.7c2.2,0.9,3.5,2.8,3.4,5.3
		c-0.2,2.4-1.7,3.8-3.8,4.6c-0.6,0.2-1.3,0.3-1.9,0.6c-12,3.6-23.5,8.7-34.9,13.9c-0.7,0.3-1.4,0.7-2.1,1.1
		c-12,6.5-23.1,14.3-32.6,24.2c-3.4,3.5-6.8,7-10,10.6c1.6-1.3,3.1-2.4,4.8-3.6C201.5,169.5,207.5,165.6,213.6,162z"/>
	<path class="st2" d="M368.3,72c3-0.4,6-0.6,9-0.9c3.8-0.5,7.6-0.9,11.3-1.4c2.4-0.3,5-0.2,7.5-0.7c3.5-0.6,7.1-0.6,10.5-1
		c4-0.5,8-0.8,12.8-0.8c-1.9-1.3-3-2.1-4.2-2.8c-7.5-4.3-15.4-7.3-23.8-8.9c-2.4,0-4.7,0.1-7.2,0.2c-7.3,0.2-14.4,1.7-21.2,4.5
		c-2.9,1.3-5.9,2.4-8.8,3.5c-3.2,1.3-6.1,2.9-9.1,4.9c-4.6,3.1-9.1,6.1-13.7,9.2c5.4-1.1,10.9-2,16.4-2.8
		C354.8,74,361.6,72.9,368.3,72z"/>
	<path class="st2" d="M541.3,665.3c-0.1-2.4-1.6-3.7-4.1-3.9c-0.9-0.1-1.8,0-2.8-0.1c-1.8-0.2-3.3,0.4-4.8,1.5
		c-2.1,1.6-4.3,3.1-6.1,5c-1.9,1.9-3.7,3.8-5.7,5.5c-3.9,3.5-7.3,7.4-10.5,11.6h34c0-0.2,0-0.5,0-0.7c-0.1-2.1,0.1-4.2,0.5-6.3
		c0.3-1.7,0.3-3.5,0.1-5.1C541.6,670.3,541.4,667.8,541.3,665.3z"/>
	<path class="st2" d="M723.9,269.3c-7.6-11-16.5-20.9-25.9-30.4c-1-1-2.1-2-3.2-2.9c-9.1-7-18.7-13.2-29.4-17.7
		c-2.4-1-5-1.8-7.6-2.2s-5.2-0.6-7.9-1c-2.4-0.4-4.6,0.1-6.9,1.4c2.4,4,3.1,8.4,4.1,12.8c1.2,5.5,2.1,11.1,3.7,16.6
		c1.9,6.6,5.4,12,10.8,16.1c1.8,1.5,3.5,3.1,5.3,4.6c3.3,1.4,6.8,2.6,10.2,3.7c10.9,3.3,20.9,8.4,30,15.4c2.6,2,5,4.2,7.4,6.5
		c4.6,4.4,9,8.9,13.5,13.4c0.6,0.6,1.1,1.1,1.7,1.6c0.4,0.3,1.2,0,1.3-0.5c0.3-2.4,0.7-4.6,0.9-7c0.2-1.2,0-2.4,0.1-3.5
		c0.2-5.1-0.1-10.2-0.9-15.2c-0.5-0.8-0.9-1.6-1.4-2.4C727.8,275.5,726,272.3,723.9,269.3z"/>
	<path class="st2" d="M373.1,291.2c-2.7-3.5-5.7-6.9-7.9-10.9c-0.2-0.5-0.5-0.9-1.5-1c-0.5,2,0,3.8,0.6,5.5
		c2.5,8.1,7.7,14.1,15.1,18c5.9,3.1,12.4,4.4,19.1,4.3c3.3-0.1,6.5-0.7,9.4-2.4c3.8-2.2,7.4-4.6,10.3-8c3.1-3.5,6.5-7,10.5-9.4
		c0.1-0.1,0.2-0.2,0.2-0.3c-0.4-1-1.2-1.7-2-2.4c-0.7-0.6-1.3-0.5-2,0.3c-0.4,0.6-0.8,1.1-1.2,1.6c-2.1,2.9-4.7,5.3-7.7,7.3
		s-6.2,3.5-9.5,4.8c-2.8,1.1-5.6,1.5-8.5,1.5c-3.7-0.1-7.4-0.2-11-0.9C381.7,298.1,376.8,295.9,373.1,291.2z"/>
	<path class="st2" d="M689.5,138c3.5-2,6.8-4.3,10.4-6.1c-5.6-3.7-11.7-6.5-18.1-8.5c-3-0.9-6.1-1.5-9.3-1.8
		c-4.3-0.5-8.7-0.2-13.1,0.2c-9.5,0.8-18.7,2.8-27.7,6.2c-1.5,0.6-2.9,1.3-4.2,2.2c-3,2.2-6,4.3-8.8,6.7
		c-14.9,11.8-26.3,26.5-36,42.8c-1.5,2.5-2.4,5.3-3.1,8.1c-0.2,1,0.2,1.5,1.2,1.5c1.5,0,2.9-0.4,4.2-1.1c1.7-0.9,3.2-1.8,4.7-2.8
		c5.5-3.7,11.5-6.4,17.7-8.7c0.6-0.2,1.3-0.4,1.9-0.6c3.4-0.6,6,2.4,4.8,5.7c-0.4,1.1-1.2,2-1.8,3c-1.4,1.9-2.9,3.7-4.3,5.7
		c-1.7,2.4-3.2,5.1-4.1,8.1c-0.3,1,0,1.5,1,1.6c3.5,0.3,6.8-0.2,10.2-0.6c9.2-1.3,18-3.7,26.1-8.4c2.9-1.7,5.6-3.5,7.5-6.3
		c0.4-0.6,0.8-1.1,1.3-1.5c1.8-1.3,2.9-3.4,4.5-5c1.3-1.3,2-2.8,2-4.6c0-0.6,0.1-1,0.4-1.3c0.6-0.3,1.1-0.2,1.6-0.1
		c4.5,0.7,8.7,2.4,12.6,4.5c8.9,5,17.2,10.8,24.4,18c1.7,1.7,3.2,3.5,4.5,5.5c0.9,1.4,1.7,3,2,4.7c0.3,1.8,0.1,3.5-1.4,4.7
		c-1.5,1.3-3.1,1.1-4.8,0.3c-5-2.3-10.2-3.5-15.4-4.7c-3.5-0.8-7-1.2-10.6-1.2c-3.4,0-6.3,1.4-9.8,2.6c3.7,2,6.8,3.7,10.5,4.7
		c11.4,3.1,22.2,7.7,31.3,15.6c5.1,4.4,10.3,8.6,15.7,12.6c6.4,4.7,11.8,10.5,16.5,16.9l0,0c1.2-2,2.2-4.2,2.9-6.4
		c1.5-4.5,3.1-9,4.7-13.4c0.5-1.3,0.6-2.5,0.4-3.9c-0.2-1-0.5-2-0.5-3.1c0.1-1.7-0.2-3.3-0.5-5c-0.1-0.1-0.1-0.2-0.2-0.2
		c-4.8-7.2-10-14.2-15.4-21.1c-0.8-1-1.5-2-2.3-3.1c0.9-0.6,1.4,0.1,1.9,0.4c3,2,5.7,4.2,8.3,6.6c-2.6-7.6-5.5-15.1-8.9-22.4
		c-2.6-5.7-5.4-11.1-9.4-16c-2.4-3-5-5.7-8.3-7.9c-2.6-1.7-5.1-3.2-7.7-4.8c-0.8-0.5-1.7-1.1-2.4-1.2c-3-0.2-5.4-2-8-3
		c-5.4-2-5.4-8.2-2.8-11.1C687.1,140,688.2,138.7,689.5,138z"/>
	<path class="st2" d="M703.8,420c4.6,4.3,9.2,8.8,13.1,13.9c-0.2-0.6-0.3-1.3-0.5-1.9c-0.2-1.1,0.7-1.7,1.7-1.3
		c1.7,0.8,3.1,2,4.4,3.3c3.9,4.3,8,8.4,11,13.5c0.3,0.5,0.6,1.3,1.4,1.1c0.7-0.2,0.8-1,1-1.6c2.3-6.1,3.1-12.5,1.9-19
		c-0.2-1.2-0.5-2.4-0.7-3.5c-1.7-7.6-3.9-14.8-8-21.4c-9.2-15-21-27.4-36.1-36.5c-1.7-1-3.5-1.9-5.4-2.6c-4.3-1.5-8.4-3.1-12.6-4.6
		c-1.9-0.7-3.6-1.5-5.7-1.6c-1.3-0.1-2.5-0.6-3.5-1.7c-4-4.5-9-7.7-14.2-10.6c-8.2-4.6-16.4-9.1-25.7-11c-4.6-0.9-9.3-2-14.1-2
		c-0.4,0-1.1,0.3-1.1-0.9c2.5-0.9,5.2-1.6,7.7-2.6c4.9-2,9.8-1.8,14.8-0.9c2.2,0.4,4.3,1,6.5,1.7c3.5,1.2,7,2.2,10.8,2.2
		c1.8,0,3.7,0.3,5.4,0.9c0.9,0.2,1.7,0.6,3.1-0.2c-1.4-1.5-2.3-3.5-4-4.6c-4.5-3.1-9-6-13.9-8.3c-2.1-1-4.4-1.8-6.8-2.2
		c-5-0.8-9.9-1.6-14.9-2c-6.2-0.5-12.4,0.1-18.6,0.2c-5.5,0.2-11,0.9-16.5,2c-5.1,1.2-10.2,2.7-15.3,3.9
		c-7.6,1.9-14.3,5.2-20.2,10.2c-1.1,0.9-2.3,1.9-3.5,2.5c-1.9,0.9-3.9-0.5-3.9-2.5c0-0.9,0.3-1.8,0.6-2.7c0.7-3.4,1.5-6.7,2.2-10.1
		c0.4-1.7,0.3-3.4-0.1-5.1c-0.5-1.9-0.9-3.9-1.3-5.8c-0.2-1.3,0.2-2.2,0.9-2.8c-0.5-0.6-0.9-1.2-1.3-1.9c-1.7-2.8-3.5-5.5-5.3-8.3
		c-3.2-5.5-4.7-11.7-6.8-17.6c-0.2-0.4-0.2-0.8-0.2-1.2c-0.1-6-3-10.5-7.2-14.4c-2.9-2.7-6.1-5-9.8-6.7c-1.9-0.9-3.8-1.8-5.9-2.1
		c-3-0.5-5.9-1.1-9-1.3c-4.7-0.2-9.1,1.2-13.4,2.9c-2.4,0.9-4.3,2.5-5.6,4.8c-1.2,2-2.3,4.2-3.1,6.4c-2.5,6.8-6.7,12.4-12.6,16.8
		c-0.6,0.4-1,0.9-1.6,1.3c-0.8,8.3-2.5,16.2-6.1,23.8c-6.9,15-18.7,23.5-35,25.8c-0.6,0.1-1.3-0.1-1.9,0.7c0.3,1.6,1.1,3.1,2.1,4.5
		c1.5,2,3,4,4.5,6c0.5,0.6,1,1.3,1.3,2c0.6,1.1,0.6,2.4-0.2,3.4c-0.9,1.2-2,1.7-3.5,1.3c-1-0.2-2-0.6-3-1c-2.7-1-5.4-2.1-8.1-3.1
		c-5.9-2.2-12.1-2.3-18.3-2.4c-0.4,0-0.8,0.1-1.2,0.2c-10.9,1.4-21.5,4-31.8,7.7c-10.2,3.7-19.5,8.7-27.8,15.6
		c-7.2,6.1-13.1,13.3-17.9,21.5c-1.1,1.9-1.5,3.9-1.3,6c1,0.5,1.6-0.3,2.2-0.7c3.6-2.2,7.2-4.5,10.8-6.6c3.4-2,7-3.7,10.9-4.6
		c0.5-0.2,1-0.3,1.6-0.3c1.3-0.1,2.3,0.6,2.9,1.7c0.6,1,0.4,2-0.3,3c-0.3,0.4-0.7,0.8-1.1,1.1c-3.1,2.8-6.1,5.4-9.1,8.2
		c-12,11.1-22,23.9-30,38.1c-5.4,9.7-9.6,19.9-11.7,30.9c-0.6,3.2-1.6,6.5,0.2,9.6c0.3,0.6,0.2,1.3,0.3,2c0.5,2.8,1,5.7,1.5,8.6
		c0.1,0.6,0.2,1.3,0.9,1.7c1-0.5,1.2-1.6,1.7-2.5c2.2-4.5,4.6-8.9,7.6-13c3.3-4.5,7.9-7.3,13-9.3c0.5-0.2,1-0.2,1.5,0.2
		c0.7,0.6,0.3,1.3,0.1,1.8c-0.9,1.7-1.8,3.5-2.9,5.2c-3.1,4.9-5.8,9.9-8.1,15.1c-0.1,0.7-0.2,1.5-0.2,2.2c-0.5,3,0.6,6,1,9
		c1.5,8.5,4.6,16.5,7.9,24.4c0.2,0.6,0.6,1.2,0.9,1.7c0.1,0.2,0.5,0.2,0.7,0.2c0.1,0,0.2-0.2,0.2-0.2c0.1-0.2,0.2-0.5,0.2-0.8
		c0.2-10.8,3-21,6.8-31.1c1.9-5,3.6-10.2,5.9-15c1-2.1,2-4.3,3.1-6.5c2.8-5.8,5.7-11.6,8.7-17.3c1-2,2.2-3.9,3.5-5.7
		c0.2-1.8,1-3.5,2.3-5c0.9-1.1,2-2.1,3.1-3.1c3.2-2.8,6.9-4.9,10.7-6.6c6.7-3.1,13.7-5.7,20.9-7.2c5.4-1.1,10.7-2.8,16-4.4
		c0.6-0.2,1.3-0.4,1.4-1.2c-1-0.2-2-0.5-3.1-0.6c-5.7-0.9-11.5-1.2-17.2,0.2c-7.2,1.8-14.4,3.4-21.6,5c-2,0.5-4.1,0.8-6.2,1.1
		c-0.5,0.1-1.1,0-1.3-0.6c-0.2-0.4,0.2-0.7,0.4-0.9c2.3-2,4.6-3.9,6.9-5.8c1.7-1.3,3.3-2.6,5.3-3.5c8.7-4.1,17.7-7.5,27.2-9.4
		c11-2.3,22.3-2.5,33.5-2.5c1.4,0,2.9,0.1,4.3,0.1c1.6,0.1,3.1,0.1,4.7,0.2c1.4,0.1,2.8,0.2,4.3,0.3c0.9-3.8,2-7.3,3.3-10.8
		c0.6-1.3,0.4-1.7-0.9-2.7c-1.4-1-2.8-2-4.3-2.8c-9.9-5.2-20.5-8.4-31.6-9.8c-2.8-0.3-5.4-1.4-8-2.4c-0.6-0.2-0.6-0.9-0.2-1.3
		c0.6-1,1.6-1.3,2.6-1.6c3-0.7,5.9-1.4,8.9-2c5.6-1.2,11.3-1.5,16.9-0.9c4.9,0.6,9.7,1.2,14.5,2c5.5,0.9,11,1.3,16.5,0.5
		c1.7-0.2,3-0.7,4.3-1.7c3.1-2.1,6.6-3.8,10.2-5.2c6.5-2.6,13.3-4.2,20.3-5c7.2-0.8,14.4-1.5,21.7-0.9c2.8,0.2,5.5,0.5,8.3,0.6
		c0.8,0.1,1.6,0.2,2.4,0c2.8-0.8,5.7-0.8,8.7-1c4.7-0.4,9.1-1.6,12.7-4.9c1.7-1.7,3.9-2.8,6.2-3.5c6.8-1.9,13.5-4.3,20.7-5
		c3.3-0.3,6.5-1.2,9.8-1.1c0.5,0,1.2-0.2,1.1,0.7c0,0.3-0.5,0.6-0.8,0.8c-0.9,0.4-1.7,0.7-2.6,1c-4.6,1.7-8.9,3.9-12.2,7.8
		c-0.9,1-2,1.7-2.9,2.7c-5,4.9-9.9,9.8-14.9,14.7c0.7,0.7,1.3,0.4,2,0.2c2-0.9,3.9-1.7,5.7-2.6c4.4-2.1,8.9-4,13.5-5.5
		c7.6-2.4,15.5-2.9,23.5-1.9c0.6,0.1,1.3,0.3,1.9,0.6c1.4,0.8,1.6,2.8,0.2,3.5c-0.9,0.6-1.9,0.9-2.9,1.3
		c-10.3,3.3-18.7,9.4-26.1,17.2c-0.2,0.3-0.5,0.6-0.7,0.9c-0.3,0.5-0.1,0.9,0.5,1.2c0.8,0.3,1.6,0.1,2.4,0c5-0.9,9.9-0.6,14.8,1.3
		c3.1,1.2,6.5,1.9,9.8,2.4c0.5,0.1,0.9,0.2,1.3,0.2c3.7,0.5,7.2,1.5,10.6,3.1c0.1,0.1,0.2,0.1,0.3,0.2c2.8,1.3,5.7,2.7,8.4,4.1
		c2.2,1.1,4.4,2.2,6.6,3.2c0.2,0.1,0.3,0.2,0.5,0.2l0.2,0.1c3.1,1.7,5.4,2.7,8.7,5c-2.1,0.7-3.7-0.2-5.3-0.6c-6-1.5-12-1.6-18-1.4
		c-4.1,0.1-8.1,0.6-12,1.7c-3.9,0.9-7.2,3-10.4,5.5c-0.4,0.3-0.7,0.8-1,1.2c-0.6,0.7-0.2,1.7,0.6,1.9c0.2,0,0.2,0.1,0.4,0.1
		c0.1,0,0.2,0,0.3,0c2.4-0.9,5-1.3,7.8-1.4c4.7-0.1,9.4,0.1,14.2,0.7c4.6,0.6,9.2,0.6,13.8,1.1c13.4,1.3,25.7,5.5,36.8,13.3
		c3.8,2.7,7.8,4.8,12.1,6.6c8.9,3.9,16.9,9.2,23.9,15.9c0.9,0.8,1.7,1.6,2.6,2.4c0,0,0,0,0-0.1c0,0,0,0-0.1-0.1
		c-0.3-0.9-0.6-1.7-1-2.5c-1.3-2.6-2.8-5.1-4.1-7.6c-4.6-8.8-11-16.1-18.6-22.4c-2.4-2-4.6-3.9-7-5.8c-2-1.6-3.1-3.5-3.3-6.1
		c-0.3-4.1-2.5-7.2-5.5-9.7c-1.3-1.1-2.8-2-4.3-2.9c-3.9-2.1-8-4.2-11.9-6.3c-0.9-0.5-1.9-0.9-2.8-1.5c-0.7-0.5-1.1-1.2-0.8-2
		c0.2-0.8,0.9-1.3,1.7-1.3s1.6-0.1,2.4,0.1c3,0.6,6,0.9,8.9,1.8c15.9,4.8,30.2,12.4,42.4,23.8c0.1,0.1,0.2,0.2,0.3,0.2
		c2.8,1.6,5.4,3.2,8.1,4.9C700.3,416.8,702,418.4,703.8,420z M532.9,336.7c-1.2-0.3-2.3-0.7-3.4-1.1c-1.6-0.5-2.9-1.3-3.9-2.6
		c-1.5-2-3.6-3.4-5.8-4.6c-1-0.6-2.2-0.9-3.1-1.7c-1.5-1.3-3-1.3-4.8-0.9c-8.1,1.5-14.7,5.6-19.8,12c-1.2,1.4-2.2,3-3.4,4.3
		c-0.9,1-1.8,1.1-2.8,0.2c-3.1-3.1-7.2-5.4-9.4-9.5c-0.2-0.3-0.6-0.6-0.9-0.4c-0.2,0.2-0.5,0.6-0.5,0.9c0,1.2,0.1,2.4,0.2,3.5
		c0.2,1.6,0.6,3.1,1.2,4.6c-0.6,0.6-1.2,0.5-1.8,0.3c-2.3-0.7-4.6-1.4-6.8-2.2c-4.5-1.7-9-1.9-13.6-1.1c-1.3,0.2-2.6,0.3-3.9,0.3
		c-2-0.1-3.9,0-5.9,0c0.2-0.8,0.7-1,1.2-1.2c4.5-1.5,8.1-4.4,11.8-7.2c1.7-1.3,3.4-2.6,5.4-3.2c1.5-0.5,2.4-1.6,3.1-2.9
		c1.8-3.5,2.3-7.2,2.8-11c0.4-3,0.6-6,0.9-9.1c0.2-1.4,0.4-2.9,1.1-4.2c1.3-2.5,4.1-3.1,6.4-1.3c1.6,1.3,2.6,2.9,3.9,4.5
		c0.9,1.1,1.5,2.5,3.1,2.8c1-1.1,1.3-2.6,1.8-3.9c0.9-2.4,2.1-4.5,3.8-6.5c1.7-2,3.8-3.3,6.3-3.8c6.4-1.2,12.2,0.6,15.8,6.3
		c1.7,2.7,3.2,5.4,4.9,8.1c1.3,0,1.5-1,2-1.7c2.1-3,4.8-5.2,8.2-6.7c0.9-0.4,2-0.8,3-0.9c3.1-0.4,5.1,1.3,5.2,4.4
		c0,0.4,0,0.8-0.1,1.2c-0.9,5.2-0.6,10.5-0.9,15.8c-0.3,4.6,0.9,8.9,2,13.2c0.2,0.5,0.5,0.9,0.6,1.5
		C537.6,335.7,535.8,337.5,532.9,336.7z"/>
	<path class="st2" d="M402.8,273.8c3.1-0.2,6-1,8.4-2.9c0.7-0.6,1.4-1.3,1.7-2.1c0.8-1.8,1.7-3.7,1.9-5.6c0.2-1.4-0.8-3-1.3-4.5
		c-0.2-0.5-0.5-1-0.8-1.3c-1.6-1.3-3.3-2.2-5.4-1.7c-2,0.5-4.1,1-5.9,2.1c-2.9,1.7-4.5,4.3-4.5,8.1c0.2,2.2,0.9,4.6,2.8,6.5
		C400.5,273.3,401.6,273.9,402.8,273.8z"/>
	<path class="st2" d="M693.8,453C693.5,453.3,694,453.2,693.8,453L693.8,453z"/>
	<path class="st2" d="M633,540.5c-1.3-1.1-2.2-1.4-3.3-0.8c-1.7,4.2-3.9,8.1-7.2,11.7c-2.5,2.7-5.2,5.3-8.2,7.5
		c-2.4,1.8-5,3.3-8,4.3c-1.7,0.6-3.5,1-5.4,0.6c-2.6-0.6-3.8-2.7-2.6-5c0.7-1.4,1.7-2.8,2.6-3.9c2.5-3.2,4.8-6.7,7-10.2
		c-0.2-0.6-0.6-1.3-1.2-2c-0.8-0.9-1.1-2-1.7-3.1c-0.6-1.2-1.4-2.2-2.4-3.1c-1-0.9-2-1-3.3-0.6c-1.3,0.6-2.5,1.4-3.5,2.4
		c-2.8,2.8-5.6,5.6-8.3,8.4c-1.7,1.7-3.3,3.4-5.1,5c-5.4,4.6-11.1,8.4-18.1,10.2c-0.3,0.1-0.6,0.2-0.9,0.3c-0.5,1.9-1,3.8-1.8,5.6
		c-0.3,0.7-0.8,1.4-1.3,2c-1,1.1-2.4,1.4-3.5,0.9c-0.2,0.2-0.3,0.5-0.5,0.6c-4,6.5-8.7,12.6-14.2,17.9c-3.1,3-6.8,4.9-10.9,6
		c-1.2,0.3-2.4,0.6-3.6,0.6c-0.2,0.3-0.2,0.6-0.4,0.9c-1.5,2.8-4.6,3-6.4,0.5c-0.7-0.9-1.3-2-1.7-3.1c-2.1-0.8-4.1-1.9-5.9-3.4
		c-3.1-2.4-6.3-4.7-8.4-8.2c-0.9-1.3-1.9-2.5-2.8-3.9c-2-2.8-4.5-5.2-7.1-7.4c-0.2-0.2-0.4-0.3-0.6-0.5c-0.9,0.5-1.7,0.9-2.6,1.6
		c-1.3,1-2.8,1.9-4.4,2.6c-2.8,1.3-5-0.2-5.1-3.2c0-0.2,0-0.4,0-0.6c-0.4-0.1-0.8-0.2-1.2-0.2c-1.7-0.4-3.3-0.7-5-1.2
		c-4.7-1.3-9.3-3-12.8-6.6c-2.2-2.3-4.6-4.3-7.1-6.3c-2-1.7-4.1-3.3-6.1-5c-1.7-1.4-3.3-1.9-5.3-0.6c-1.3,0.9-2.8,1.7-4.3,1.8
		c-4.1,0.3-8.2,0.4-12-1.5c-3.1-1.5-6.1-3-8.8-5.2c-0.3-0.2-0.6-0.6-0.9-0.7c-2.1-1.4-2.8-1.4-4.3,0.6c-0.7,0.9-1.4,1.8-2.2,2.8
		c0.6,0.5,1.1,1.2,1.3,2.1c0.2,0.8,0.2,1.6,0.2,2.4c0.1,1,0.2,2.1,0.3,3.1c0.8,4.3,2.8,7.9,5.9,10.9c4,4,8.5,7.5,12.8,11.1
		c9.8,8.3,20.9,14.2,32.6,19.2c0.9,0.4,1.7,0.6,2.6,0.9c0.6,0.2,1.1-0.3,0.9-0.9c-0.2-0.6-0.3-1.3-0.6-1.8c-0.9-1.5-1.1-3.2-1.5-4.9
		c-0.5-1.8,0.5-3.9,2.1-4.1c2.1-0.3,4.6-1.4,6.4,1.1c0.4,0.6,1.3,0.9,1.9,1.3c4,2.4,7.6,5.1,11.2,8.1c2.5,2.1,5,4.3,7.7,6.2
		c4.6,3.3,8.1,7.5,11.1,12.3c0.5,0.8,0.7,1.7,1.8,2.2c4.6-2.5,9.8-4,15-5.3c2.8-0.6,5.7-1.2,8.5-1.8c8.5-2,15.6-6.4,20.9-13.3
		c2.2-2.8,4.3-5.7,6.1-8.7c0.6-0.9,1.1-1.8,1.7-2.7c1.2-2,3.1-2.3,5.2-2.1c1.8,0.2,2.7,1.6,3.1,3.1c0.5,1.9,0.9,3.9,1.2,5.8
		c0.6,4.6,0.8,4.8,5.4,4.3c1.3-0.2,2.6-0.5,3.9-0.7c3.2-0.7,6.4-1.5,9.6-2.3c3.6-0.9,7.2-1.9,10.5-3.3c8.8-3.6,17.1-8.3,25.1-13.4
		c1.8-1.1,3.5-2.4,4.8-4.1c2.7-3.2,5.4-6.5,7.9-9.8c0-1.2,0.1-2.4,0.3-3.5c1.4-6,0-11.5-2.6-16.8C635,542.3,634,541.4,633,540.5z"/>
	<path class="st2" d="M594.1,264.9c3.5-0.8,6.5-2.7,9-5.4c1.4-1.7,2.2-3.5,2-5.8c-0.1-1.3-0.2-2.6-0.2-3.9c0-0.6-0.2-1-0.7-1.3
		c-4.1-2.8-8.3-4.4-13.3-1.9c-3,1.6-5.7,3.4-7.4,6.4c-2,3.4-1.6,6.5,1.1,9.4C587.2,264.9,590.6,265.7,594.1,264.9z"/>
	<path class="st2" d="M565,279.4c-1.9-2.4-3.3-5-4.6-7.9c-1.3,0.6-1.8,1.3-1.4,2.5c2,5.7,4.8,10.8,9.3,15c2.5,2.4,5.4,3.9,8.7,4.5
		c9.3,1.5,18.6,2.7,27.9,0.3c0.6-0.2,1.3-0.2,2-0.3c2-0.2,3.5-1.2,4.6-2.8c3-4.2,5.8-8.5,7.7-13.3c0.9-2.2,1.9-4.4,2.3-6.7
		c0.2-1,0.6-2.2,0.2-3.1c-0.9-2.6-2.2-5-3.4-7.6c-0.1-0.2-0.7-0.4-1-0.3s-0.8,0.4-0.9,0.7c-0.2,0.9-0.3,1.8-0.4,2.7
		c-1,8.7-5.1,15.7-12.4,20.7c-4.4,3.1-9.4,4.9-14.7,5.3C579.2,290,571.1,287.2,565,279.4z"/>
	<path class="st2" d="M688.6,648.9c-0.6-4.3-0.7-8.6-0.8-12.9c-4.1-2.8-8.3-5.4-12.8-7.3c-5-2.1-9-5.4-12.2-9.7
		c-1.1-1.5-2.3-2.9-3.6-4.2s-3.2-0.6-3.7,1.1c-0.2,0.5-0.2,1,0,1.6c0.4,1.3,0.9,2.5,1.3,3.7c1.2,3.4,1.9,6.8,1.7,10.5
		c-0.1,2.4-0.1,4.7,0.5,7.1c0.2,1,0.1,2.1,0.1,3.1c-0.1,0.8-0.6,1.1-1.3,1.3c-2.1,0.3-3.9-0.5-5.5-1.7c-2.7-2-5.5-4-8.5-5.8
		c-1.9,5.7-1.4,11,0.9,16.1c2.8,6.2,5.7,12.4,9.7,18.1c2.8,3.9,5.8,7.6,9.1,10.9c1.4,1.5,3,2.9,4.6,4.2h1.3c0.2-0.2,0.5-0.3,0.7-0.5
		c1.1-0.8,2.1-1.6,3.1-2.4c0.6-0.6,1.2-1.1,1.7-1.6l0.1-0.1c0.2-0.3,0.5-0.6,0.7-0.9c2.2-2.9,4.2-5.8,6.2-8.8
		c0.6-0.9,1.2-1.7,1.7-2.5c0.2-0.3,0.4-0.6,0.6-0.9c0.6-0.9,1.2-1.8,1.9-2.6c0.1-0.1,0.1-0.2,0.2-0.2c1.2-1.7,2.4-3.5,3.6-5.1
		C689.6,655.6,689.1,652.2,688.6,648.9z"/>
	<path class="st2" d="M893.9,661.7c-2.1-4.2-4.6-8.1-7.6-11.7c-3-3.6-6.3-6.9-9.9-9.8c-3.6-2.9-7.6-5.4-11.8-7.4l0,0l-6.2-2.8
		c-0.6-0.6-1.3-1.2-2-1.7c-1.6-1.3-3.1-2.5-5-3.5c-7.3-4.1-15.5-6.4-23.7-7.7c-4.1-0.7-8.3-1.1-12.4-1.3c-2.8-0.2-5.5,0-8.2-0.5
		c-3-0.5-5.7-1.8-8.8-2c-1.2-0.1-2.4,0-3.5,0.2c-9.5,0.9-19,2.4-28.3,5.2c-4.6,1.4-9.1,3.1-13.5,5.4c-4.2,2.1-7.8,5.1-12.1,6.8
		c-1,0.4-2,0.9-3.1,1.3c-22,9.4-41.7,28-49.4,51.1l0,0c2-0.5,4.4,0.3,6-0.9c0.6-0.6,1-1.3,1.3-2c3.5-7.6,7-15.6,13-21.5
		c7.3-7.3,19-10.2,27.6-3.5v-0.1c0,0.1,0.1,0.1,0.1,0.2c0.5,0.4,1,0.8,1.5,1.3c0,0,0,0.1,0.1,0.1c0.2,0.2,0.3,0.3,0.5,0.4
		c0.6,0.6,1.1,1.1,1.6,1.7c0.1,0.1,0.2,0.2,0.2,0.3c-0.7,0-1.5,0-2.2,0.1c-1.6,0.2-3.1,0.6-4.6,1.1c-3,1.1-5.7,2.8-8.3,4.5
		c-0.6,0.5-1.3,0.9-1.9,1.3l-0.9,0.7l-1.7,1.3l-0.9,0.7c0,0,0.9-0.2,1-0.3c4.6-1.2,9.1-1.3,13.5,0.8c0.3,0.2,0.7,0.3,1,0.6
		s0.7,0.4,1,0.6c0.6,0.4,1.3,0.9,1.9,1.4c1.2,1,2.2,2.2,3.1,3.5c1,1.4,1.9,2.9,2.6,4.5l0,0c-0.2,0.5-0.2,0.9-0.4,1.3
		c-0.1,0.2-0.2,0.6-0.2,0.8c0,0.1,0,0.1,0,0.2c-0.1,0.5-0.2,1-0.2,1.5c0,0.2,0,0.2,0,0.4s0.1,0.2,0.1,0.4s0.1,0.5,0.2,0.7
		c0-0.1,0-0.1,0-0.2c0,0.1,0,0.1,0,0.2v0.1v-0.1c0.2,0.9,0.3,1.7,0.5,2.5c0.2,1,0.4,2,0.6,3c1.3,2,2.5,4.1,3.3,6.4
		c0.1,0.2,0.2,0.5,0.2,0.6s0,0.2,0.1,0.2c0.1,0.2,0.1,0.4,0.2,0.6c0,0,0,0,0,0.1c0.1,0.2,0.1,0.5,0.2,0.6c0,0.1,0,0.2,0.1,0.2
		c0,0.2,0.1,0.4,0.1,0.6c0,0.1,0,0.1,0,0.2c0,0.2,0.1,0.4,0.1,0.6c0,0.1,0,0.2,0,0.2c0,0.2,0,0.3,0.1,0.5c0,0.1,0,0.2,0,0.3
		c0,0.2,0,0.3,0,0.5c0,0.1,0,0.2,0,0.3s0,0.2,0,0.3c0,0.2,0,0.5,0,0.7c0,0.1,0,0.1,0,0.2c0,0.2,0,0.3,0,0.5c0,0,0,0,0,0.1
		c0,0.3,0,0.7,0,1c0.2,0.2,0.2,0.3,0.4,0.5c0.6,0.8,1.3,1.7,2,2.4c0.3,0.3,0.7,0.7,1,1c2.8,2.4,5.7,4.7,9.4,5.6
		c5.8,1.3,11.9-0.6,17.8-0.1c1.2,0.1,2.4,0.2,3.5-0.2c2-0.9,3.3-4.1,4.4-5.9c1.7-2.8,3-5.7,4.2-8.7c2.2-5.7,3.5-11.8,3.9-17.9
		c0.7-9.7-1-19.5-4.9-28.3c-2-4.4-4.3-8.7-7.2-12.6c-2.8-3.9-6.1-7.6-9.7-10.8c-0.4-0.4-0.9-0.8-1.3-1.2l-2.4-2h-0.1c0,0-0.1,0,0,0
		h0.1l0.2,0.1l0.5,0.1l0.9,0.2l1.3,0.3l0.5,0.1l0.5,0.2l0.9,0.2c2.4,0.7,4.6,1.7,6.8,2.8c20.2,10.5,28.8,31.7,30.1,53.2
		c0,0.2,0,0.3,0,0.4c0,0.6,0.1,1.3,0,1.9c0,0.6,0,1.2-0.1,1.8s-0.1,1.1-0.2,1.7c0,0.1,0,0.2,0,0.2c-0.1,0.4-0.1,0.8-0.2,1.2
		c-0.1,0.3-0.2,0.8-0.2,1.1c0,0.2-0.1,0.6-0.1,0.8c-0.6,3.5-1.7,7.1-2.9,10.5c-1.2,3.6-3.3,7.2-1.8,11c3.1,8.1,10.4,10.7,18.3,11.9
		c1,0.2,2.1,0.3,3.1,0.4c1.3,0.2,2.6,0.3,3.9,0.5c1.5,0.2,3.1,0.3,4.6,0.5c0.3,0,0.6,0.1,0.9,0.1c0.2,0,0.6,0,0.8,0.1
		c0.6,0,1.1,0,1.7,0c0-0.1,0-0.1,0-0.2c0.7-3.1,2.3-5.7,3.7-8.5c6.6-12.9,9.2-28.3,7.2-43c-1.9-13.6-9.6-26.3-19.1-36
		c-0.9-0.9-2-2.2-1.8-3.5c3.4,0.9,7,3.7,9.9,5.5c3.6,2.3,7.2,4.6,10.5,7.4c6,5,11.6,11.3,12.8,19.3c2.4,15.2,6.5,16.1,4.6,31.3
		c-0.6,4.1-3,7.7-3.8,11.8c-1.1,5.7-1.5,10.9-3.6,16.4c-0.2,0.3-0.3,0.6-0.4,1c-0.1,0.4-0.3,3.2-1,3c2.8,0.9,15.9,3.5,16.6-1.3
		l0.4-2.7l3.3-18.3c3.1-18,3.7-35.9-4.5-52.7c-1.7-3.6-4.8-10.4-7.1-12.5c0.2,0.2,0.6,0.5,0.8,0.8c4.5,4.3,8.7,8.2,12,13.5
		c3.9,6.1,7.2,13,9.8,19.8c0.2,0.6,0.4,1.1,0.6,1.7c0.7,2.2,1.3,4.4,1.8,6.7c0.9,4.5,1.4,9.1,1.4,13.5c-0.1,4.6-0.6,9.1-1.6,13.5
		c-0.3,1.3-0.7,2.7-1.1,4c0.4-0.1,0.8-0.2,1.2-0.3c1.1-0.5,2.1-1.3,2.9-2.1c0.8-0.9,1.5-1.9,2-2.9c0.6-1,1-2.1,1.4-3.2
		c0.2-0.6,0.3-1.1,0.5-1.7C902.5,692.5,901.1,675.8,893.9,661.7z M746.6,627.5L746.6,627.5c0.1-0.1,0.1-0.1,0.2-0.2
		C746.7,627.4,746.6,627.4,746.6,627.5z"/>
	<path class="st2" d="M259.5,631.7c-1-0.5-2-0.9-3.1-1.3c-4.3-1.7-8-4.7-12.1-6.8c-4.3-2.2-8.8-3.9-13.5-5.4
		c-9.2-2.8-18.7-4.2-28.3-5.2c-1.2-0.2-2.4-0.2-3.5-0.2c-3,0.2-5.8,1.6-8.8,2c-2.8,0.4-5.5,0.3-8.2,0.5c-4.2,0.2-8.3,0.7-12.4,1.3
		c-8.2,1.3-16.4,3.7-23.7,7.7c-1.8,1-3.4,2.2-5,3.5c-0.6,0.6-1.3,1.2-2,1.7l-6.2,2.8l0,0c-4.2,2-8.1,4.6-11.8,7.4
		c-3.6,2.9-7,6.2-9.9,9.8s-5.5,7.6-7.6,11.7c-7.2,14.2-8.6,30.9-4.4,46.1c0.2,0.6,0.3,1.1,0.5,1.7c0.4,1.1,0.9,2.2,1.4,3.2
		c0.6,1,1.2,2,2,2.9s1.7,1.7,2.9,2.1c0.4,0.2,0.8,0.2,1.2,0.3c-0.4-1.3-0.8-2.7-1.1-4c-1-4.4-1.5-8.9-1.6-13.5
		c0.1-4.6,0.5-9.1,1.4-13.5c0.5-2.2,1-4.5,1.8-6.7c0.2-0.6,0.4-1.1,0.6-1.7c2.6-6.8,5.9-13.6,9.8-19.8c3.3-5.3,7.5-9.2,12-13.5
		c0.2-0.2,0.6-0.5,0.8-0.8c-2.3,2.1-5.4,9-7.1,12.5c-8.1,16.8-7.6,34.7-4.5,52.7l3.3,18.3l0.4,2.7c0.7,4.7,13.9,2.2,16.6,1.3
		c-0.7,0.2-0.9-2.6-1-3s-0.2-0.7-0.4-1c-2.1-5.4-2.4-10.7-3.6-16.4c-0.8-4-3.3-7.7-3.8-11.8c-2-15.2,2.2-16.1,4.6-31.3
		c1.2-8,6.8-14.3,12.8-19.3c3.3-2.8,6.8-5.1,10.5-7.4c3-1.8,6.6-4.6,9.9-5.5c0.2,1.3-0.9,2.6-1.8,3.5c-9.5,9.7-17.2,22.4-19.1,36
		c-2,14.6,0.5,30.1,7.2,43c1.4,2.8,3,5.4,3.7,8.5c0,0.1,0,0.1,0,0.2c0.6,0,1.1,0,1.7,0c0.2,0,0.6,0,0.8-0.1c0.3,0,0.6-0.1,0.9-0.1
		c1.5-0.2,3.1-0.3,4.6-0.5c1.3-0.1,2.6-0.2,3.9-0.5c1-0.2,2.1-0.2,3.1-0.4c7.9-1.3,15-3.8,18.3-11.9c1.5-3.9-0.6-7.3-1.8-11
		c-1.1-3.5-2.4-6.9-2.9-10.5c-0.1-0.2-0.1-0.6-0.1-0.8c-0.1-0.3-0.2-0.8-0.2-1.1c-0.1-0.4-0.2-0.8-0.2-1.2c0-0.1,0-0.2,0-0.2
		c-0.1-0.6-0.1-1.1-0.2-1.7c-0.1-0.6-0.1-1.2-0.1-1.8s0-1.3,0-1.9c0-0.2,0-0.3,0-0.4c1.3-21.5,10-42.7,30.1-53.2
		c2.2-1.1,4.5-2,6.8-2.8l0.9-0.2l0.5-0.2l0.5-0.1l1.3-0.3l0.9-0.2l0.5-0.1l0.2-0.1h0.1l0,0h-0.1l-2.4,2c-0.5,0.4-0.9,0.8-1.3,1.2
		c-3.5,3.3-6.8,6.9-9.7,10.8c-2.8,3.9-5.3,8.2-7.2,12.6c-3.9,8.9-5.6,18.7-4.9,28.3c0.5,6.1,1.7,12.2,3.9,17.9c1.1,3,2.5,6,4.2,8.7
		c1.1,1.8,2.3,5.1,4.4,5.9c1.1,0.5,2.3,0.2,3.5,0.2c5.9-0.5,12,1.4,17.8,0.1c3.7-0.9,6.6-3.1,9.4-5.6c0.3-0.3,0.7-0.7,1-1
		c0.7-0.8,1.3-1.6,2-2.4c0.2-0.2,0.2-0.3,0.4-0.5c0-0.3,0-0.7,0-1c0,0,0,0,0-0.1c0-0.2,0-0.3,0-0.5c0-0.1,0-0.1,0-0.2
		c0-0.2,0-0.5,0-0.7c0-0.1,0-0.2,0-0.3s0-0.2,0-0.3c0-0.2,0-0.3,0-0.5c0-0.1,0-0.2,0-0.3c0-0.2,0-0.3,0.1-0.5c0-0.1,0-0.2,0-0.2
		c0-0.2,0.1-0.4,0.1-0.6c0-0.1,0-0.1,0-0.2c0-0.2,0.1-0.4,0.1-0.6c0-0.1,0-0.2,0.1-0.2c0.1-0.2,0.1-0.5,0.2-0.6c0,0,0,0,0-0.1
		c0.1-0.2,0.1-0.4,0.2-0.6c0-0.1,0-0.2,0.1-0.2c0.1-0.2,0.2-0.5,0.2-0.6c0.8-2.3,2-4.3,3.3-6.4c0.2-1,0.5-2,0.6-3
		c0.2-0.9,0.3-1.7,0.5-2.5c0,0,0,0,0,0.1v-0.1c0-0.1,0-0.1,0-0.2c0,0.1,0,0.1,0,0.2c0.1-0.2,0.1-0.5,0.2-0.7c0-0.2,0-0.2,0.1-0.4
		c0-0.2,0-0.2,0-0.4c-0.1-0.5-0.2-1-0.2-1.5c0-0.1,0-0.1,0-0.2c-0.1-0.2-0.2-0.6-0.2-0.8c-0.1-0.5-0.2-0.9-0.4-1.3l0,0
		c0.8-1.6,1.7-3.1,2.6-4.5c0.9-1.3,2-2.4,3.1-3.5c0.6-0.5,1.2-0.9,1.9-1.4c0.3-0.2,0.6-0.4,1-0.6c0.3-0.2,0.7-0.4,1-0.6
		c4.3-2,8.9-2,13.5-0.8c0.1,0,1,0.3,1,0.3l-0.9-0.7l-1.7-1.3l-0.9-0.7c-0.6-0.5-1.3-0.9-1.9-1.3c-2.6-1.8-5.4-3.5-8.3-4.5
		c-1.5-0.6-3.1-0.9-4.6-1.1c-0.7-0.1-1.5-0.1-2.2-0.1c0.1-0.1,0.2-0.2,0.2-0.3c0.5-0.6,1-1.2,1.6-1.7c0.2-0.2,0.3-0.3,0.5-0.4
		c0,0,0-0.1,0.1-0.1c0.5-0.5,0.9-0.9,1.5-1.3c0-0.1,0.1-0.1,0.1-0.2v0.1c8.7-6.7,20.3-3.8,27.6,3.5c6,5.9,9.4,13.9,13,21.5
		c0.3,0.7,0.7,1.5,1.3,2c1.6,1.3,3.9,0.6,6,0.9l0,0C301.2,659.7,281.5,641.1,259.5,631.7z M250.6,627.4c0.1,0,0.1,0.1,0.2,0.1l0,0
		C250.6,627.4,250.6,627.4,250.6,627.4z"/>
</g>
<g>
	<path class="st3" d="M507.4,432.6c-0.2-1.1-0.6-2.1-0.9-3.1c-0.2,0-0.2,0.1-0.4,0.1c0.2,2.4,0.2,4.7,0.7,7
		c1.3,7.2,1.7,14.3,0.8,21.6c-0.5,3.7,0.2,4.1,3.8,4.1c0.6,0,1,0,1.6-0.1s1-0.2,1.3-0.6c0.1-0.6,0.2-1.1,0.4-1.7
		c-0.3-1.7-0.6-3.4-1.1-5C510.8,447.7,509,440.2,507.4,432.6z"/>
	<path class="st3" d="M549.9,399.1c-0.1-0.1-0.1-0.2-0.1-0.4c-2-9.1-7.6-15.8-14.2-21.9c-2.1-2-4.6-3.5-7.3-4.6
		c-3.8-1.6-7.6-2.8-11.7-3.9c-5.2-1.3-10.5-1.5-15.7-0.9c-4.8,0.6-9.7,1.3-14.5,2.1c-4.6,0.8-9.4,1.3-13.6,3.9
		c-0.5,0.2-1,0.3-1.5,0.4c-2.5,0.5-4.8,1.7-6.8,3.1c-6.8,5-12.4,11.1-15.4,19.2c-1.3,3.6-2.3,7.2-2.7,11.1c-0.3,2.7-0.2,5.2,0.1,7.9
		c1.2,8.8,9.6,15,17.2,14c0.7-0.1,1.4-0.2,2.1-0.2c2-0.1,4.1,0,6.2,0c1,0,2.1-0.1,3.1-0.2c1.6-0.2,3.1-0.4,4.7-0.6
		c3.1-0.6,5.8-1.7,8.4-3.3c1.9-1.2,3.1-2.9,3.1-5.2c0.1-1.6-0.9-2.4-2.4-2.1c-1,0.2-2.1,0.3-3.1,0.7c-4.3,1.6-9,2.2-13.4,3.4
		c-2.5,0.7-5.2,0.8-7.9,0.6c-5-0.3-8.3-3-10.2-7.5c-0.9-2-1.2-4.1-1.1-6.2c0.1-1.7,0.2-3.5,0.4-5.1c0.6-4.6,1.7-9.1,4.8-12.8
		c0.9-1.1,1.8-2.3,3.2-2.8c1.2-0.5,2.2,0.2,2.2,1.3c0,0.9-0.2,1.8-0.2,3.1c2.4,0.1,4.5,0.6,6.5,1.3c1.2,0.3,2.3,0.6,3.5,0.6
		c6.5,0.2,12.9,0.3,19.4,0.1c2.4-0.1,4.7-0.2,7.1-0.8c6.1-1.6,12.3-3.1,18.4-4.6c1.1-0.2,1.9-0.9,2.6-1.7c0.7-0.9,1.4-1.9,2.2-2.8
		s1.6-1.8,2.4-2.6c0.8-0.7,1.7-0.9,2.9-0.6c3.3,1.1,6.4,2.7,9.1,4.7c4.4,3.3,5.8,7.9,3.2,13.7c-1.6,3.6-4.6,5.7-8,7.3
		c-4.4,2-9,3.8-14,3.9c-0.6,0-1.3,0.1-2,0.3c-0.8,0.2-1.6,0.7-1.7,1.6c-0.2,1.7-0.2,3.4-0.1,5.1c0.1,1.3,1.1,2.1,2.3,2.4
		c0.9,0.2,1.8,0.3,2.8,0.2c3.1,0,6-0.9,8.7-2.4c2.7-1.4,5.4-3.1,8.2-3.9c4.5-1.4,7.9-4.2,10.9-7.6
		C550.3,404.4,551.8,402.2,549.9,399.1z"/>
</g>
</svg>
