<?xml version="1.0" encoding="utf-8"?>
<!-- Generator: Adobe Illustrator 24.0.1, SVG Export Plug-In . SVG Version: 6.00 Build 0)  -->
<svg version="1.1" id="New_group_1_" xmlns="http://www.w3.org/2000/svg" xmlns:xlink="http://www.w3.org/1999/xlink" x="0px"
	 y="0px" viewBox="0 0 990 781.2" style="enable-background:new 0 0 990 781.2;" xml:space="preserve">
<style type="text/css">
	.st0{fill:#E4706A;}
	.st1{fill:#535358;}
	.st2{fill:#F6F6F6;}
	.st3{fill:#F4DBAE;}
	.st4{fill:#CFB579;}
</style>
<g>
	<path d="M845.4,743.9c-1.1,0.2-1.5,0.9-2.1,1.5c-2.6,2.5-5,5.2-7.8,7.4c-1.2,0.9-2.4,1.8-3.7,2.6c-3.8,2.3-7.5,1.8-10.6-1.4
		c-0.9-0.9-1.6-2-2.1-3.2c-2-4.6-3.4-9.3-3.3-14.4c0-0.7-0.1-1.5,0-2.2c0.5-3-0.9-4.8-3.4-6.3c-1.8-1-3.6-2-5.5-2.8
		c-4.8-2.1-7.9-5.8-9.7-10.7c-1.1-3.2-1.9-3.4-4.2-0.8c-2,2.3-3.2,4.9-4,7.8c-2.4,7.9-6.9,14.3-13.4,19.4c-5,3.9-11.3,1.6-14.1-2.5
		c-2.3-3.4-3.6-7.1-4.2-11.1c-0.2-1.1-0.4-2.2-0.5-3.3c-0.1-2.2-1.3-3.6-3-4.6c-0.5-0.3-1.1-0.7-1.7-1c-3.8-1.8-7-4.5-9.9-7.4
		c-1.9-1.9-3.8-3.7-5.6-5.6c-1.6-1.6-3-3.3-3.9-5.4c-0.5-1.1-1.2-1.6-2.4-1.5c-0.6,0.1-1.3,0-1.9,0c-156.3,0-312.5,0-468.8,0
		c-0.5,0-1,0-1.4,0c-1.6-0.2-2.6,0.4-3.1,1.9c-0.6,1.6-1.7,2.9-2.8,4.1c-3.6,3.8-7.3,7.4-11.3,10.7c-1.6,1.3-3.5,2.3-5.3,3.2
		c-2.9,1.4-4.4,3.4-4.6,6.7c-0.2,2.7-0.8,5.4-1.8,7.9c-0.7,1.9-1.6,3.7-2.7,5.3c-1.5,2.1-3.4,3.6-5.9,4.3c-2.7,0.8-5.2,0.4-7.5-1.2
		c-6.7-4.7-11.1-11.2-13.8-18.9c-1-2.9-1.8-5.8-3.8-8.2c-0.2-0.2-0.3-0.4-0.4-0.6c-0.7-0.8-1.5-1.9-2.7-1.8
		c-1.3,0.2-1.2,1.5-1.5,2.5c-1.7,4.9-4.8,8.6-9.6,10.7c-2.1,0.9-4,2-5.9,3.2c-2.1,1.3-3.1,2.9-3,5.5c0.3,5.7-0.9,11.1-3.1,16.4
		c-1.1,2.6-2.7,4.7-5.3,5.9c-2.2,1-4.3,1.1-6.5,0c-2.5-1.2-4.7-2.8-6.6-4.7c-2.1-2.1-4.2-4.2-6.3-6.3c-0.5-0.5-0.9-1.1-1.8-1.3
		c-0.7,0.7-0.6,1.7-0.8,2.6c-0.5,2.5-1.1,5-2.2,7.3c-1.2,2.9-3.4,5.2-5.3,7.6c-1.5,1.8-3.6,2-5.7,1.4c-6.4-1.7-12.5-4.2-17.2-9.1
		c-5.7-5.9-11.3-11.8-15.5-18.9c-1.6-2.6-3.7-4.6-6.3-6C83,724.8,78,719,73.3,712.9c-6.7-8.8-9.8-19.1-11.5-29.9
		c-0.9-5.7-0.6-11.5-0.1-17.2c0.6-6.7,1.7-13.3,3.3-19.8c3.1-12.4,9.8-22.5,19.6-30.5c8.6-6.9,17.1-13.9,26.1-20.3
		c13.1-9.2,27.5-15.3,43.1-18.7c12.2-2.7,24.5-3.4,37-2.7c11.3,0.6,22.4,2.3,33.4,4.9c0.5,0.1,0.9,0.2,1.4,0.3
		c2.3,0.5,2.4,0.5,2.7-1.9c0.4-3,0.9-6,1.1-9c0.8-9.5,2.8-18.8,5.2-28c2.8-10.6,4.9-21.3,8.3-31.8c2.1-6.5,4.4-13,6.4-19.6
		c2.1-6.8,4-13.7,4.9-20.8c0.3-2.5,0.5-4.9,0.7-7.4c0.2-3.2-0.8-6-2.9-8.4c-5.6-6.5-10.3-13.7-14.6-21.1c-3.1-5.4-6-10.9-8.8-16.5
		c-6.8-13.5-13.5-27-19.9-40.7c-1.4-2.9-2.6-5.9-3.6-8.9c-3.8-11.5-8.1-22.7-11.5-34.3c-2.7-9.4-8.6-16-17.1-20.6
		c-1.6-0.9-3.3-1.6-4.8-2.6c-5.3-3.5-7.2-8.7-6.7-14.7c0.4-4.9,1.5-9.8,2.2-14.7c0.9-7,1.5-14,2.4-21c0.6-4.5,0.7-8.9,0.4-13.4
		c-0.1-1.7-0.4-3.3-0.5-5c-0.6-8.4,1.8-16.1,5.3-23.6c4.6-9.9,10.9-18.6,17.7-27c9.2-11.5,19.9-21.4,31.6-30.3
		c4.6-3.5,9.3-7.1,13.9-10.7c7.1-5.5,12.4-12.4,16.5-20.3c4.5-8.7,8.7-17.6,13.8-26.1c5.7-9.5,12.6-18.1,20.5-25.8
		c5.7-5.5,12.5-8.6,20.4-9.1c2.2-0.1,3.9-1,5.6-2.3c7.4-6.1,15.4-11.5,24.4-15c4.1-1.6,8.2-2.7,12.6-2.4c1.6,0.1,3.2,0.3,4.7,0.7
		c1.6,0.4,2.9,0.2,4.3-0.6c9.9-5.7,20.4-9.6,31.7-11.3c4.3-0.6,8.6-0.8,12.9-0.7c4.6,0.1,8.9-0.6,12.8-3.2c0.8-0.5,1.8-0.7,2.7-1
		c9.9-2.7,19.9-5.4,29.9-7.8c5.4-1.3,10.9-1.7,16.4-2.3c11.5-1.5,23.1-1.9,34.7-1.5c13.8,0.5,27.4,1.5,41,3.9c6.5,1.2,13.1,2,19.7,3
		c4.2,0.7,8.2,2,12.2,3.5c3.3,1.2,6.6,2.4,9.9,3.7c2.9,1.1,5.8,1.1,8.8,0.6c3-0.4,5.9-0.2,8.8,0.2c14.9,2,28,8.1,39.4,17.9
		c1.8,1.5,3.4,3.2,4.9,4.9c1.8,2,4,2.8,6.5,3c6.1,0.6,12.3,0.5,18.5,0.6c7.6,0.1,15,1.3,22.1,3.9c13.4,4.7,22.2,14.1,27.4,27.1
		c2.7,6.8,4.8,13.9,7.2,20.8c1.8,5.2,4.1,10.2,6.8,15c3.4,5.9,8.1,10.2,14.1,13.2s11.6,6.7,16.8,11.1c4.8,4,9.1,8.5,13.2,13.2
		c4.8,5.5,9.2,11.2,13.5,17.2c6.4,9,10.4,19.1,13.3,29.6c2,7.1,3.7,14.2,4.6,21.6c0.2,1.4,0.2,2.9,0.3,4.3c0.4,3.7,1.4,7.2,3.1,10.5
		c1.9,3.7,3.9,7.3,5.4,11.2c2.4,6.1,3.6,12.5,3.6,19c0,5.4-0.8,10.7-2.2,15.9c-3.2,11.8-7.5,23.1-12.6,34.2
		c-6.9,15-13.2,30.2-18.6,45.8c-6.1,17.5-14.5,33.8-26.4,48.1c-1.3,1.5-2.6,3-2.6,5.2c0,0.6-0.4,1-0.8,1.4c-3.4,3.4-5.1,7.7-6.7,12
		c-0.5,1.5-0.9,3-1.9,4.4c-1,1.3-0.3,2.6,0.3,3.8c3.8,8,8,15.9,12.6,23.4c6.8,11.1,13.5,22.1,19.3,33.7
		c6.6,13.2,11.9,26.9,15.5,41.2c2,8.2,4.2,16.4,6.4,24.6c0.7,2.7,0.7,2.7,3.6,2.8c8.3,0.2,16.6,1.2,24.7,3
		c17.1,3.7,32.9,10.4,47.5,19.8c6,3.9,12,7.9,17.9,12.1c1.9,1.4,3.6,2.9,5,4.7c7.2,9.2,14,18.7,19.7,28.9c1.4,2.5,2.6,5.1,3.9,7.7
		c3,6.2,3.8,12.7,2.7,19.6c-1.8,11.5-5,22.7-9.4,33.4c-2.4,5.8-6.4,10.7-10.4,15.5c-3.5,4.3-7.7,7.6-12.5,10.3
		c-2.3,1.3-4.1,2.9-5.5,5.2c-4,6.9-9.5,12.6-14.8,18.5c-3.4,3.7-7.5,6.4-12.3,8.1c-1.7,0.6-3.4,1.3-5.2,1.8c-3.7,1-6.1,0-8.1-3.2
		c-0.3-0.4-0.5-0.8-0.8-1.2c-2.7-2.9-3.9-6.4-4.7-10.1C846.1,746.7,846,745.2,845.4,743.9z"/>
</g>
<g>
	<path class="st0" d="M554.4,520.2c1.7-1.7,1.7-2.1,0.4-4c-5-7.5-8.8-15.7-11.2-24.4c-1.1-3.9-3.1-6.9-6.3-9.5
		c-4.7-3.9-8.6-8.6-11.1-14.2c-2.6-5.8-4.8-11.8-5.9-18.1c-0.7-4-1.2-7.9-2-12.5c-1.1,0-2,0.2-2.6-0.1c-3.1-1.5-4.9,0.4-6.6,2.5
		c-1.4,1.7-2.4,3.6-2.8,5.8c-0.7,3.2-1.5,6.4-1.8,9.6c-1.3,15.9-1.6,32,1.4,47.8c0.7,3.8-0.4,6.7-3.3,9c-3.1,2.5-7.2,1.7-9-1.9
		c-0.7-1.4-1.1-2.9-1.1-4.5c-0.1-3,0.1-5.9,0.6-8.8c1.2-7.3,2.1-14.8,1.9-22.2c-0.2-5.6-0.4-11.1-0.3-16.8c0-6.1-0.9-12-2.7-18.5
		c-4,2.6-7.3,5.5-8.3,10.2c-1.1,4.9-2.6,9.6-4.5,14.2c-1.5,3.6-3.4,7-5.9,10c-3.1,3.6-6.1,7.4-9.4,11c-3.5,3.7-6,7.8-7.6,12.6
		c-1.3,4-2.3,8-3.6,12.1c-0.6,1.8-0.5,3.6-0.2,5.5c1.5,7.8,4.3,15.2,8.3,22.1c5.4,9.2,13.4,14.5,23.5,16.9c2.6,0.6,5.1,1.2,7.7,2
		c7,2.3,14,2.2,21.1,0c10.5-3.2,20.1-7.9,28.9-14.6c4-3.1,6.9-6.6,7.8-11.6C550.3,525.9,551.6,522.8,554.4,520.2z"/>
</g>
<g>
	<path class="st1" d="M793.1,239.4c-1.4-3.1-2.3-6.4-3.1-9.7c-0.7-2.9-1.7-5.6-2.8-8.4c-2.4-6.1-5.5-11.8-8.3-17.7
		c-6.1-12.5-14.9-22.4-27.1-29.4c-6.2-3.6-12.1-7.6-17.8-11.9c-6.4-4.9-11.6-10.8-14.9-18.3c-3.9-8.7-7.1-17.6-9.3-26.8
		c-1.7-6.8-3.2-13.6-5.6-20.1c-2-5.5-5.3-9.8-9.7-13.5c-2.1-1.7-4.4-3-6.9-3.6c-3.6-0.9-7.3-1.6-11.1-1.6c-1.5,0-3,0-4.5,0
		c-0.2,0.2-0.3,0.4-0.5,0.6c-1.3,1.7-2.7,3.4-4,5.2c-0.8,1.1-1.7,1.7-3.1,1.6c-2-0.2-4-0.4-6-0.6c-3.7-0.2-7.4-0.7-11.1,0.2
		c-2.6,0.7-4,2.3-4,4.5c-0.2,2.2,0.9,3.9,2.7,5c0.9,0.6,2,0.8,3,1.3c1.6,0.7,2,1.2,1.3,2.9c-1.2,3.1-0.6,5.8,0.7,8.5
		c0.7,1.6,2.1,2.7,3.3,3.9c3.1,2.9,4,3.8,4.6,6c0.4-1.7,0.7-3.5,0.5-5.3c-0.1-0.6,0-1.2,0.2-1.8c0.8-3.6,4.6-5,7.7-3.1
		c1.3,0.9,2.3,2.1,2.9,3.6c0.8,1.9,1.9,3.6,3.2,5.1c5,6.3,8.3,13.5,9.9,21.4c0.7,3.5,1,7.1,1.3,10.7c1.8,16,5,31.5,11.6,46.3
		c3,6.7,6,13.4,7.3,20.6c1.1,5.9,3.1,11.3,5.7,16.7c4,8.2,5,16.9,3.5,25.9c-0.8,5-2.1,9.7-3.6,14.5c-4.1,13.5-7.5,27.3-9.2,41.4
		c-1.1,8.5-1.6,17-0.9,25.6c0.8,10.7,2.3,21.3,4.3,31.9c2.6,13.7,7.8,26.5,13.4,39.1c0.7,1.4,1.3,2.7,2.9,3.6c2.9,1.6,4.6,4,5.4,7.3
		c0.2,0.9,0.6,1.8,1.4,2.4c3.1,2.1,6.3,3.5,10,2c4-1.6,7.4-4,10.1-7.3c0.2-0.3,0.5-0.8,0.4-1.2c-0.1-0.6-0.7-0.5-1.1-0.4
		c-7.2,0.7-13-2.3-18.3-6.7c-3.4-2.8-5.9-6.4-7.8-10.4c-5.9-12.2-8.5-25-5.9-38.5c0.7-3.6,0.2-6.7-1.4-9.8
		c-2.2-4.5-3.2-9.4-3.5-14.4c-0.3-7.2,0.2-14.3,1.4-21.4c0.9-5.9,2.8-11.5,4.6-17.1c3.4-10.2,7.2-20.1,9.4-30.7
		c1.8-8.6,2.6-17.2,2.5-25.9c0-1.6-0.3-3.1-0.7-4.6c-1.7-6.3-3.2-12.6-4.9-18.9c-0.7-2.7-1.5-5.5-2.5-8c-2.5-6.5-5.2-13-7.8-19.5
		c-0.5-1.3-1-2.6-1.4-4c-0.7-2.6,0.1-4.6,1.9-5.8c2.1-1.2,4.2-1,6.1,0.4c1.2,0.8,2.1,1.8,3.1,2.8c9.1,9.1,16.1,19.7,22.5,30.7
		c5.8,9.7,9.4,20.3,10.8,31.5c0.9,7.1,1.5,14.3,0.2,21.4c-1.2,6.2-1.6,5.2,2.4,11.7c1.3,2.1,2.8,4.1,4.2,6.1c0.4,0.7,1,1.2,1.5,1.7
		c0.7,0.7,1.4,0.7,2.1,0.1c0.3-0.2,0.7-0.6,1-0.9c3.1-3.6,6.4-7.3,9.4-11c0.5-0.6,0.9-1.3,1-2.1c0.5-3.4,2.1-6.5,2.9-9.8
		c1.3-5.5,4.4-9.6,9.7-11.8c1.9-0.8,3-2.1,3.6-4c0.3-1.2,0.7-2.4,1.2-3.6C793.9,242.4,793.8,241,793.1,239.4z"/>
	<path class="st1" d="M540.7,587.8c-1,0.4-1.9,1-2.8,1.7c-1,0.7-1.9,1.6-2.8,2.5c-1.7,1.7-3.7,2.8-6,3.4c-2,0.5-3.9,1.1-5.9,1.6
		c-8.5,2.1-16.6,0.7-24.4-3.1c-1.2-0.6-2.5-1.3-3.7-1.9c-2-0.9-2.4-0.7-3.6,1.3c-0.3,0.5-0.6,1.2-1.1,1.5c-6.3,4.4-13,5.9-20.1,2.3
		c-1.8-0.9-3.5-2-5.3-2.9c-1.7-0.8-3.3-1.8-5-2.3c-4.1-1.3-7.2,1.4-6.4,5.7c0.5,3.2,2,5.9,4.7,7.8c4.9,3.3,9.7,6.6,15.3,8.8
		c7.3,2.9,13.6,2.1,19.1-4c0.1-0.1,0.2-0.2,0.3-0.3c1-1.3,2.1-1.5,3.6-0.7c7.2,3.2,14.9,4,22.7,4.5c2.6,0.1,5-0.1,7.3-1.1
		c3.7-1.6,7.3-3.4,10.1-6.5c1.1-1.2,2.2-2.1,3.6-3c0.9-0.6,1.8-1.2,2.6-1.9c2.6-2.2,4-5.1,4.4-8.5
		C547.5,588.8,544.3,586.5,540.7,587.8z"/>
	<path class="st1" d="M594,546.5c-2.1,0.2-3.4,1.3-4.3,3.1c-0.7,1.2-1.1,2.6-1.2,4c-0.2,3.2-0.6,6.5-0.7,9.7c-0.2,3-0.7,5.9-1.7,8.7
		c-1.4,4.3-3.5,8.3-6.2,11.9c-0.5,0.6-1,1.2-1.4,1.8c-2.1,3.8-0.2,8.1,4,9.1c2.1,0.5,4.3,0.4,6.4-0.2c6.7-1.8,11-6.3,13.5-12.5
		c2.2-5.6,3.6-11.6,3.1-17.8c-0.3-4.1,0.2-8,1.6-11.9c0.4-1.2,1.1-2.4,0.6-3.6c-0.9-2,0.1-3.2,1.4-4.4c0.6-0.5,1.1-1.1,1.3-2.6
		c-3,1.3-5.5,2.6-8.1,3.4C599.6,546,596.8,546.3,594,546.5z"/>
	<path class="st1" d="M666.2,379.1c-1.8-4.5-3.7-8.9-5.2-13.5c-1.3-3.8-2.3-7.7-5.9-10.1c-1.1-0.7-1.8-2.1-2.7-3.1
		c-0.5-0.6-1-1.1-1.5-1.7c-1.2,0.5-1.2,1.6-1.7,2.3c-2,2.8-4.6,3.6-7.7,2.1c-2-1-3.6-2.4-5.1-4c-2.4-2.5-4.4-5.3-6.1-8.2
		c-1.5-2.6-3-5.1-4.5-7.6c-1.3-2.1-2.8-4.1-4.7-5.8c-0.6-0.5-1.2-0.3-1.7,0.2c-0.5,0.6-0.8,1.3-1.3,1.9c-2.1,3.1-5.3,5.1-9,5
		c-3.4-0.2-6.3,1.3-9.5,1.7c-0.7,0.1-1.2,0.6-1.2,1.2c-0.6,3.5-0.9,6.9,2.5,9.2c1,0.7,1.8,1.7,2.6,2.6c6,5.9,10.1,13,12.6,20.9
		c3.1,9.2,3.9,18.8,2.6,28.5c-0.2,1.8,0.1,3.2,1,4.8c3.4,5.9,4.8,12.1,3.6,18.8c-0.5,2.7-1.1,5.5-1.6,8.2c-0.4,2-0.4,2.1,1.2,2.9
		c0.4,0.2,0.8,0.3,1.2,0.6c7.7,4.4,12.3,10.7,13,19.7c0.1,1.1,0.2,2.1,0.2,3.2c0,0.4,0.2,0.7,0.5,0.6c0.2-0.1,0.7-0.2,0.7-0.3
		c0.8-2,1.5-4.1,2.4-6c2-4.1,2.9-8.5,3.1-13c0.2-3.6-0.2-7.1-0.8-10.7c-0.8-4.4,0.8-7.2,5-8.8c0.8-0.3,1.9,0,2.6-1.2
		c-0.4-1.3-0.9-2.8-1.3-4.2c-1.6-5.4-3-10.8-3.1-16.4c-0.1-5.9-0.7-11.8-1.5-17.6c-0.2-2-0.4-4-0.5-6c0-0.2,0.2-0.5,0.6-1.1
		c0.6,1.7,1.1,3.1,1.5,4.5c2,6,3.9,12.1,6.6,17.9c0.7,1.7,1.5,3.4,2.1,5.2c2.6,7.7,6.6,14.7,11,21.6c0.4,0.6,0.7,1.4,1.6,1.5
		c0.2-0.1,0.3-0.1,0.4-0.2c3.5-6.6,5.2-13.6,4.3-21.1C671.3,395.2,669.4,387,666.2,379.1z"/>
	<path class="st1" d="M427.7,401.9c1-0.9,2.3-1.6,3.3-3.2c-3.7-0.7-6.6,0.4-9,2.4c-3.6,3-7.8,5.2-10.4,9.2c-0.3,0.5-0.8,1-1.4,1.2
		c-2.7,0.6-3.7,2.4-4.1,4.9c-0.2,1.1-0.7,2.1-1.2,3.1c-1.7,4.2-2.8,8.5-3.4,13c-0.3,2.6,0.1,5.3,0.9,7.8c0.6,1.7,1.4,3.1,2.8,4.2
		c2.6,2.1,5.7,1.9,7.8-0.7c0.7-0.8,1.2-1.8,1.7-2.8c0.7-1.9,1.5-3.7,1.9-5.7c0.7-3.2,1.7-6.3,3.6-9.1c1.1-1.7,1.3-3.4,1-5.4
		c-0.3-1.7-0.4-3.4-0.6-5c-0.4-4,0.9-7.3,3.6-10.2C425.2,404.2,426.5,403.1,427.7,401.9z"/>
	<path class="st1" d="M508.3,308c-1.3,1.3-1.7,2.9-1.2,4.7c0.3,1.2,0.9,2.3,1.2,3.6c1.3,6.2,5.7,9.1,11.4,10.1
		c6.3,1.1,12.6,1.5,19,1.4c5.4-0.1,10.1-2,13.8-5.9c3.2-3.3,4-7.1,2.1-11.6c-1.6,0.7-2,2.2-2.6,3.3c-1.2,1.9-2.5,3.6-4.3,4.9
		c-0.9,0.6-1.9,1.2-2.9,1.3c-2.9,0.4-5.9,0.9-8.8,0.7c-3.4-0.3-6.8-0.5-10.2-0.8c-1.6-0.2-3.1-0.3-4.5-0.9c-2.9-1.1-5.2-2.7-5.5-6.2
		c-0.2-1.7-0.7-3.3-2-4.6C512.1,306.5,509.8,306.4,508.3,308z"/>
	<path class="st1" d="M604.4,422.9c-0.3-2.6-1.3-6.2-3.4-9.4c-4.4-6.8-10.2-11.8-18.3-13.4c-5.4-1.1-10-3.1-13.5-7.4
		c-1.1-1.2-2.2-1.4-2.8-0.7c-0.7,0.9-0.3,1.8,0.1,2.6c1.7,3.5,3.8,6.8,6.7,9.4c1.5,1.4,3.1,2.6,4.5,4c1.2,0.9,1.9,2,2.2,3.4
		c0.8,3.3,2.3,6.4,2.6,9.8c0.2,2.2,1.1,4.3,3,5.6c2.7,1.8,5.2,4,8.3,5c1.2,0.4,2.2,1.5,3.5,1.1c0.9-0.3,1.7-1.2,2.5-1.9
		c0.5-0.3,1.1-0.6,1.6-0.9C603.6,428.5,604.6,426.5,604.4,422.9z"/>
	<path class="st1" d="M603.1,372.7c-3.3-7.9-8.3-14.4-15.8-19c-7.3-4.5-14.9-8.3-22.3-12.5c-1.7-1-3.7-1.6-5.5-2.3
		c-0.2-0.1-0.7,0-0.8,0.2c-0.2,0.2-0.3,0.6-0.2,0.7c1.8,3.6,2.6,7.6,5.2,10.8c1.7,2.1,3,4.4,4.8,6.3c3.3,3.6,4.7,7.9,5.8,12.6
		c0.3,1.3,0.2,2.8,0.3,4.1c0.3,3.4,1.7,6.3,4.6,8.3c0.7,0.5,1.7,0.8,2.1,1.7c1.1,2.1,3,3.1,4.9,4.2c2.9,1.8,6.1,3,8.8,5
		c0.9,0.7,2.1,1.2,3.7,1.1c0.6-1.4,1.5-2.8,2.5-4.2C605,384.6,605.6,378.7,603.1,372.7z"/>
	<path class="st1" d="M590.5,448c-1.7-1.5-3.1-3.1-4.4-4.8c-0.7-0.8-1.3-1.7-2.1-2.5c-1.2-1.1-3.4-0.2-3.6,1.4
		c-0.1,0.6-0.2,1.2,0,1.8c1.1,4.5,0.9,8.9,1.1,13.5c0,0.7,0,1.2,0,1.9c0.1,3.1,1.2,5.8,4,7.5c2,1.3,3.6,3.1,5.2,4.7
		c1.7,1.7,3.4,3.2,5.5,4.2c2.9,1.3,5.7-0.2,6.4-3.2c0.2-0.7,0.2-1.6,0.2-2.5c-0.5-4.9-1.7-9.7-4.7-13.8
		C595.9,453.1,593.3,450.4,590.5,448z"/>
	<path class="st1" d="M421,572.5c-1.1-1.5-2.4-2.9-3.2-4.5c-2.1-4.4-3-6.4,1.3-9.2c1.2-0.7,1.9-2.1,2.6-3.2c0.7-1.2,1.1-2.6,1-3.6
		c0-3.8-1.7-6.2-5.1-7.3c-2.1-0.7-4.2-1.2-6.3-1.7c-6-1.3-11.1-4.8-16.4-7.6c-0.5-0.2-1-0.7-1.4-1.2c-1-0.9-2-2.6-3.3-1.7
		c-1,0.7-0.3,2.6,0,4c0.2,0.9,0.7,1.7,1.1,2.6c1.2,2.7,2,5.5,2.4,8.4c0.8,4.9,1.7,9.7,2.8,14.6c1.2,5.3,3,10.5,4.8,15.5
		c1.7,4.5,4.5,8.2,8.7,10.7c2.1,1.3,4.5,2.1,7.1,1.7c4.7-0.7,7.8-5.4,7.1-10.4C423.7,576.9,422.5,574.6,421,572.5z"/>
	<path class="st1" d="M379.7,433.2c-1.6-2.6-2.1-5.5-1.7-8.5c0.2-1.6,0.3-3.1,0.9-4.5c1.4-3.6,1.2-7,0.2-10.5
		c-1.2-4.4-1.5-8.8-1.6-13.4c-0.1-5.5,0.5-10.8,1.1-16.3c0.6-5.9,1.5-11.7,4.2-17.1c0.7-1.4,0.7-2.6-0.3-3.8
		c-2.1-2.7-3.5-5.9-4.4-9.2c-0.6-2.1-0.7-4.3-0.7-6.4c0-1.4-0.1-2.8-0.8-4c-0.2-0.4-0.6-0.7-0.9-0.9c-0.5-0.2-0.8,0.2-1,0.7
		c-0.6,1.2-1.2,2.6-1.8,3.8c-1.3,2.6-2.6,5.4-4.1,7.8c-3.1,4.9-7.7,6.2-12.1,4c-0.2,0.4-0.4,0.8-0.7,1.2
		c-4.5,8.1-14.5,13.4-19.2,21.5c-1.8,3.2,2.1,10.8-2.2,13.3c1.2,0.2,2.3,0.1,3.5-0.1c0.2,0,0.4-0.1,0.7-0.1c0.4-0.1,0.8-0.4,1.1-0.8
		c0.6-0.7,1-1.6,1.5-2.4c3.5-5.9,7-11.7,10.5-17.6c0.7-1.1,1.4-2.1,2.1-3.1c0.2-0.3,0.7-0.8,1.2-0.3c0.3,0.2,0.6,0.7,0.6,1.2
		c0,0.7-0.2,1.6-0.2,2.3c-0.4,2.8-1.3,5.5-2.4,8c-4,8.9-7.4,18.1-11.7,26.9c-1.8,3.6-3.2,7.4-4.8,11.1c-0.7,1.4-1,3-1.1,4.5
		c-0.5,11.2,1.7,22,7,32c1.5,2.8,3.6,5.1,6,7c2.6,2.1,3.1,2,5.6,0c1.3-1.1,2.6-2.1,4-3.2c1.2-0.9,2.6-1.7,4.2-1.9
		c3.1-0.5,3.6-0.1,3.4,3.1c-0.2,2.8-0.2,5.6-0.2,8.4c0.1,5.8,0.6,11.5,1.8,17.1c0.7,3.3,1.7,6.3,4.9,8c0.8,0.4,1.3,1.3,2,1.9
		c0.4,0.4,0.8,1,1.5,0.6c0.3-0.2,0.6-0.7,0.7-1.2c0.6-6.3,2.5-12.1,4.2-18.1c0.7-2.3,0.9-4.5,0.5-6.9c-0.2-1.4-0.3-2.8-0.3-4.2
		c-0.3-6.6,0.6-13,2.8-19.2c0.7-1.8,0.5-3.2-0.6-4.8C381.9,437,380.8,435.1,379.7,433.2z"/>
	<path class="st1" d="M558.2,298.5c0.3-0.7,0.6-1.5,0.7-2.2c0.3-2.6,0.1-5.3-0.5-7.8c-2.1-9.2-6.5-17.4-12.1-24.9
		c-2.7-3.6-6.2-6.4-10.2-8.8c-3.9-2.3-7.8-4.4-12.6-4c-0.5,0-0.9-0.2-1.4-0.2c-4.8-0.5-9.6-1-14.4-0.8c-6.7,0.2-13.3,0.7-20,1
		c-1.1,0.1-2.2,0.2-3.2,0c-3.6-0.6-7.1,0.1-10.7,0.6c-4.5,0.6-8.3,2.6-11.1,6.2c-0.7,1-1.7,1.9-2.4,2.9c-2.5,3.4-5.5,6.4-8.3,9.3
		c-2.5,2.6-4.7,5.4-6.9,8.3c-1.4,1.8-2.8,4-2.9,6.3c-0.2,3.6-0.1,7.2,0.3,10.7c0.2,2.4,1,4.9,2.6,7.2c3.3-5.9,5.6-11.9,7.7-17.9
		c0.4-1.3,0.9-2.6,1.4-4c1.9-4.5,4.4-8.5,8-11.9c2.3-2.2,5.3-3.2,7.9-4.9c5.5-3.3,11.5-3.9,17.5-2.3c5.9,1.5,11.7,1.5,17.6,0.7
		c6.3-0.8,12.6-1.8,18.8-3c2.1-0.4,3.6-0.2,5.2,1.2c3.2,2.9,6.9,5.2,10.7,7.5c1.8,1.2,3.4,2.7,4.7,4.5c2.8,3.6,5,7.5,6.9,11.6
		c1.8,4,3.6,8.3,3.3,13c0,0.6,0.2,1.2,0.3,1.8c0.2,0.7,0.7,1.1,1.3,1.2C557.1,299.6,557.9,299.3,558.2,298.5z"/>
	<path class="st1" d="M425,338.3c0.4-0.4,0.7-1,1.2-1.8c-4.3-1.7-7.4-0.3-10.2,2.2c-4.7,4.4-8.7,9.2-11.4,15.1
		c-3.2,7-5.6,14.5-9.2,21.3c-1.1,2.1-1.7,4.4-2.2,6.6c-0.9,3.5-1.4,7-1.3,10.6c0,1.6,0.2,3.1,0.8,4.5c2.2,5.6,8,6.9,12.3,2.7
		c1.1-1.1,2.1-2.3,3.1-3.4c1.5-1.6,2.9-3.2,4.6-4.6c2.4-2,4.5-4.3,6.7-6.4c2.7-2.7,3.2-5.9,2.2-9.4c-0.3-1.2-0.9-2.3-1.3-3.5
		c-1.1-2.6-1.6-5.4-1.5-8.2c0-5.5,0.7-10.8,2-16.1C421.4,344.4,422.4,341.1,425,338.3z"/>
	<path class="st1" d="M473.2,290.3c4.6-0.3,9.3-0.8,13.7,1.2c0.4,0.2,0.8,0.3,1.2,0.6c1.1,0.6,2,0,3.1-0.2c1.2-0.3,1.3-1.2,1.2-2.1
		c-0.2-2.2-1.6-3.7-3.5-4.6c-1.1-0.6-2.3-1.1-3.5-1.2c-3.4-0.4-6.8-0.6-9.6-0.8c-2.4,0.2-4,0.4-5.8,0.5c-3.5,0.2-6.4,1.6-8.7,4
		c-4.5,4.8-6.9,10.7-7.3,17.3c-0.2,3.2,1.2,5.7,4,7.4c1.5,0.9,3,1.7,4.5,2.3c2.6,1.2,5,0.6,6.9-1.2c1.8-1.7,1.7-3.9,1-6
		c-0.7-2.4-1.3-4.8-2-7.2c-0.5-2-0.2-4,0.3-5.9C469.7,291.8,471,290.5,473.2,290.3z"/>
	<path class="st1" d="M450.4,320.5c-1.7-1.7-3.6-3.4-5.4-5.1c-0.3,3.5,0.5,7.3,2,9.2c3.1,3.8,7.2,5.5,11.9,5.2
		c2.6-0.2,5.2-0.3,7.8-0.2c2.8,0.1,5.6-0.1,8.3-0.2c3.4-0.2,6.7-1.2,9.8-2.6c2.3-1.1,4.1-2.6,5.1-5.1c1.2-3.1,2.6-5.9,3.8-9
		c0.2-0.6,0.2-1.2,0.3-1.8c0.1-1.2-0.6-2.3-1.7-2.5c-1-0.2-2.3,0.4-2.7,1.3c-0.6,1.3-1,2.6-1.4,4c-0.8,2.2-2.4,3.6-4.6,4.2
		c-1.5,0.4-3.1,0.7-4.5,1.3c-3.8,1.7-7.8,2.1-11.9,1.5c-3-0.4-5.9-0.2-8.8,0.7c-1.5,0.5-3.1,0.5-4.6,0.6
		C452.7,322,451.5,321.7,450.4,320.5z"/>
	<path class="st1" d="M520.1,282.5c-4-0.2-6.3,2.1-8.1,5.2c-0.7,1.2,0.1,2.5,1.6,2.6c1.2,0.1,2.4-0.4,3.6-0.8c4-1.6,8.2-1.7,12.4-1
		c5.9,1,7.8,5.9,4.3,10.7c-0.7,0.9-1.4,1.7-2,2.6s-1.2,1.8-1.6,2.8c-1.2,3.5,0.7,7.5,4,8.8c2,0.7,4,0.5,5.9-0.1
		c2.5-0.7,3.6-2.1,3.4-4.8c-0.1-1.9,0.2-3.6,0.8-5.5c0.4-1.2,0.4-2.4,0.6-3.6c0.5-4.4-1.2-8.2-2.6-12.1c-0.7-2-1.9-3.1-3.7-3.7
		s-3.6-1-5.5-1.1c-2.1,0-4.3,0-6.5,0c0,0.1,0,0.1,0,0.2C524.3,282.6,522.2,282.7,520.1,282.5z"/>
	<path class="st1" d="M622.2,493c-2.4,6.3-6.4,8.3-12.8,6.2c-0.7-0.2-1.5-0.5-2.2-0.7c-2.4-0.7-4.6-0.2-6.5,1.5
		c-0.5,0.4-0.9,0.9-1.2,1.3c-0.7,0.7-1.4,1.1-2.5,1c-3.8-0.4-7.3-1.3-10.2-4c-2-1.7-4-3.6-5.9-5.3c-2.5-2.2-4.3-4.9-5.5-7.9
		c-1.4-3.5-3.2-6.7-5.4-9.7c-0.7-1-1.3-2.1-1.7-3.3c-1.7-4.7-4.6-8.4-8.8-11.2c-2.1-1.4-3.7-3.3-5-5.5c-1.3-2.1-2.6-4.2-3.9-6.4
		c-3.1-5.5-5.5-11.1-6.7-17.3c-1.1-5-2.4-10-3.6-14.9c-2-8-6.8-13.8-14-17.7c-3.1-1.7-6.4-3.2-9.7-4.4c-0.9-0.3-1.7-0.7-2.1-1.7
		c-2.1-5.6-4.5-11.2-4.3-17.5c0.1-2.6,0.1-5.3-0.6-7.8c-0.5-2.1-0.4-2.2,1.6-3.2c6.4-3.1,11.6-7.8,16.4-12.8
		c1.8-1.8,3.1-4.1,5.2-6.9c-3.5,0.6-6.1,1.2-8.7,2.2c-5,1.9-9.9,3.7-14.8,5.8c-4.6,1.9-9.4,2.6-14.1,1.5c-7.8-1.7-15.6-2.7-23.1-5.4
		c-0.4-0.2-0.9,0-1.7,0c1.2,2.1,3.1,2.9,4.8,3.8c8,4,15.9,8.6,24.2,11.9c0.4,0.2,0.7,0.5,1.2,0.7c-0.6,2.6-1.2,5.1-1.7,7.8
		c-1.2,7.7-2.7,15.3-4.8,22.8c-0.4,1.4-0.7,2.6-2.5,3c-6.8,1.4-12.1,5.3-16.8,10.2c-5.7,5.9-10.2,12.6-14.1,19.6
		c-3.4,5.9-6.8,11.9-10.2,17.8c-3.1,5.4-6.8,10.4-10.8,15.2c-1.8,2.1-3.8,4-5.8,6c-0.2,0.2-0.8,0.4-1.2,0.4
		c-0.8-0.1-0.7-0.7-0.7-1.4c-0.1-4.9,0.3-9.6,2.5-14c0.7-1.4,1.2-2.9,1.7-4.4c0.6-1.8,0.9-3.6,0.7-5.5c-0.4-4.1-4.1-5.9-7.3-3.3
		c-1.8,1.4-3.4,3.2-5,5c-2.1,2.5-4,5.2-6.4,7.4c-3.5,3.4-6.4,7.2-8.6,11.5c-0.5,1-1,1.8-0.9,3c0.5,5.9,0.4,11.8,3.6,17.2
		c0.1,0.2,0.1,0.3,0.2,0.4c0.7,1.2,0.5,2.2-0.3,3.4c-2.5,3.5-5.9,5.5-9.7,6.9c-2.3,0.8-2.8,1.6-2.6,3.6c0.2,1.4,0.4,2.7,0.6,4.1
		c0.6,4.9,3.1,7.7,8,8.2c8.2,0.8,18.7-1.4,23.5-12.9c0.2-0.6,0.5-1.2,0.7-1.7c0.3-1.1,1.1-1.8,2-2.5c7.8-5.9,14.1-13,19.9-20.8
		c1.1-1.4,1.7-2.8,2-4.6c0.2-2,0.6-4,1.7-5.8c4.5-7.4,9.2-14.8,13.5-22.3c2.5-4.2,5.4-8,8.7-11.5c1.5-1.6,3.2-3,4.7-4.5
		c5.3-5.5,11.6-8.8,19.2-9.4c0.7-0.1,1.6-0.2,2.3-0.5c2.1-0.7,4.3-0.5,6.4-0.2c2.9,0.4,5.8,1.1,8.8,1.5c2.4,0.3,4.4,1.5,6.2,3.1
		c2.1,1.9,3.8,4.1,5,6.7c1.2,2.7,2.2,5.5,2.7,8.4c1,5.2,1.9,10.4,2.8,15.6c0.7,3.6,1.4,7,2.7,10.3c3.6,8.7,2.8,8,10.6,12.1
		c0.2,0.2,0.6,0.2,0.8,0.4c4.6,2.5,7.8,6.1,9.2,11.1c0.9,3.1,2.1,6.2,3.1,9.3c0.7,2.1,1.7,4,3.2,5.5c3.8,3.6,7.6,7.3,11.4,11.1
		c3.2,3.1,7,4.5,11.5,3.8c2-0.3,4-0.4,5.9-0.8c3.8-0.8,7.6-1.4,11.5-2.1c2.3-0.3,4.5-1,6.7-2c3.3-1.6,5.9-3.9,7.6-7.3
		c1.2-2.6,1.7-5.2,0.3-8.2C622.5,492.4,622.4,492.8,622.2,493z"/>
	<path class="st1" d="M324.4,99.7c-2.5,0.2-4.4,1.3-6.2,2.8c-0.8,0.7-1.4,2.1-3.1,1.9c0-1.1-0.1-2.1,0-3.2c0.2-3.9-0.9-7.4-2.6-10.7
		c-1.2-2.6-3-4.7-5-6c-1.1,0.4-2.1,0.9-3.2,1.6c-5.9,3.6-10.7,8.3-14,14.6c-0.7,1.5-1.5,3.1-2.2,4.6c-4.2,9.3-8.1,18.8-11.9,28.3
		c-1.6,3.9-3.3,7.8-5,11.6c-2.4,5.2-6,9.3-11.1,12.2c-1.3,0.7-2.6,1.7-4,2.4c-17.1,10-31.8,22.9-44.7,37.7
		c-11.6,13.4-19.5,28.7-23.3,46.2c-0.3,1.4-0.5,2.7-0.3,4.1c1.2,8,2.9,15.9,5.9,23.5c0.6,1.4,1.2,2.8,1.9,4.2c1.2,2.7,3.1,4,6.3,3.7
		c2.9-0.2,5.9-0.3,8.8-0.2c6.1,0.2,11.5,2.6,15.9,6.9c2.8,2.7,5.1,5.9,6.8,9.4c1.6,3.4,3,6.9,4.4,10.3c1.3,3.3,2.5,6.7,4,10
		c1.4,3.3,3.3,6.4,5.7,9c3.1,3.4,5.5,3.3,8.4-0.3c1.5-1.8,2.6-3.9,3.4-6.1c2.5-6.3,2.6-12.8,1.5-19.2c-0.7-3.8-1.7-7.6-2.8-11.3
		c-3.4-11.1-5.6-22.3-6.1-33.9c-0.1-1.6-0.3-3.1-1.2-4.5c-1.1-1.7-1.9-3.6-2.3-5.5c-2.3-9.3-2-18.5,2.1-27.3
		c2.2-4.8,4.8-9.4,7.7-13.9c1.5-2.2,3.1-4.2,4.1-6.8c0.6-1.5,1.6-2.8,3.1-3.4c2.7-0.9,4.8-2.7,7.2-4.2c2.7-1.7,5.6-2.6,8.9-1.7
		c1.3,0.4,1.7,1.2,1.2,2.5c-1.3,3-2.8,5.9-3.9,9c-5.1,14.9-9.7,29.8-12.2,45.4c-2.1,12.7-2.1,25.4,1.1,37.9
		c3.7,14.8,6.9,29.6,10,44.5c4.1,20.1,4.9,40.4,3.3,60.8c-0.6,7-2.4,13.8-4.5,20.4c-1.2,3.6-3.7,5.2-7.5,4.9
		c-2.1-0.2-4.3-0.7-6.3-1.7c-4.4-2.2-8.3-5-11.4-8.7c-1.5-1.7-2.8-3.6-4.8-5.1c-0.4,1.2,0.2,2,0.7,2.7c3.2,5.3,6.4,10.6,9.7,15.9
		c0.7,1.1,1.5,2,2.2,3c3.7,4.8,8.8,6.6,14.7,6.8c3.5,0.1,6.3-1.7,9.2-2.8c1.9-0.7,2.4-3.1,3.3-4.9c0.9-1.7,1.5-3.4,2-5.2
		c0.9-3.8,1.7-7.6,2.5-11.4c2.3-12.4,4.5-24.8,5.6-37.3c0.8-9.7,1.2-19.2,0.1-28.9c-1.4-12.4-4.6-24.4-9-36.1
		c-4.2-11.1-5.4-22.6-4-34.4c1.2-10.5,3-20.9,4.7-31.3c1.6-9.2,3.2-18.3,3.8-27.7c0.8-13.6,4.5-26.6,9.5-39.2c1.8-4.6,4-9.2,7.1-13
		c1.7-2.1,3.3-4.3,5-6.5c0.3-0.8,0.7-1.7,1.1-2.5c1.3-3,2.2-6.1,3.8-9c3.9-6.9,7.4-14,11.1-21c0.8-1.5,1.6-3.1,2.1-4.6
		C332.9,104.8,329.6,99.2,324.4,99.7z"/>
	<path class="st1" d="M420.5,250.6c-0.6,0.4-1.3,0.9-1.1,2.1c5.5-0.2,8.3,3.1,10.1,7.5c0.2,0.5,0.4,1,0.6,1.5
		c0.5-0.2,0.8-0.3,0.9-0.5c2.6-4.5,5.9-8.6,9.1-12.6c2.2-2.7,4.4-5.5,6.5-8.3c2.5-3.3,5.4-5.9,8.9-8.1c3.9-2.3,7.4-5,11.1-7.8
		c5.9-4.4,12.6-7.4,19.7-9.2c5.4-1.2,10.8-1.2,16.3-0.9c11.6,0.5,22.2,4.1,32,10.3c7.8,5,14.8,10.8,21.6,16.9
		c5.4,4.9,10.2,9.9,13.9,16.2c1.2,2.1,2.3,2.1,3.7,0.2c0.9-1.2,1.1-2.6,0.8-4c-0.3-1.8-0.9-3.6-1.1-5.5c-0.2-1.7-0.8-2.9-2.1-3.9
		c-3.7-2.6-7.3-5.3-11-7.8c-4.4-3.1-7.6-6.9-8.4-12.3c-0.9-5.9-3.8-10.8-7.7-15.2c-1.7-2-3.4-4-5-6.2c-8.1-3.1-16.7-4.8-25.6-5.5
		c-6-0.5-12.1,0.3-18.1,1c-12,1.4-23.5,4.9-34.2,10.2c-0.1,0.5-0.2,0.9-0.4,1.4c-0.3,0.8-0.7,1.7-1.2,2.6c-0.8,1.5-1.7,3-2.6,4.5
		c-3.5,6-7.8,11.1-14,14.5c-3.1,1.7-5.9,4-8.3,6.7c-2.6,3.1-5.9,5.6-9.1,7.9C424,248,422.3,249.2,420.5,250.6z"/>
	<path class="st1" d="M629.4,215.1c-1.3-0.2-2,0.4-2.6,1.4c-2,3.2-4.5,5.9-7.5,8.2c-4.1,3.1-8.7,3.8-13.6,2.4
		c-5.6-1.6-10.7-4-15.3-7.7c-2-1.6-3.9-3.1-6.2-4.1c-1.7-0.7-3.3-1.7-5.6-1.3c1.1,2.6,2.9,4.5,4.3,6.7c4.5,6.8,10.7,11.6,17.6,15.5
		c2.1,1.2,4.5,1.3,6.7,0.2c1.2-0.6,2.6-1.2,3.7-1.9c2.6-1.6,5.2-2.8,7.9-3.8c3.6-1.3,6.9-3.5,10.2-5.5c2.3-1.4,4-3.5,5-6
		c1.3-3.3,0.9-4-2.9-4C630.6,215.1,630,215.2,629.4,215.1z"/>
	<path class="st1" d="M575.1,202.7c0.5-1,1-2.1,1.4-3.1c0.2-1,0.6-2,1-3c0.4-1.1,0.9-2.1,1.4-3.1c0.7-1.7,1.3-3.6,2-5.3
		c0.5-1.3,0.9-2.6,1.7-3.8c4.8-7.3,10.5-9.5,17.8-7.8c1.3,0.3,2.7,0.8,4,1.4c5.4,2.6,10.1,6.3,13.5,11.1c2.7,4,5.8,7.6,8.5,11.6
		c1.6,2.3,3.6,4.2,5.9,5.9c0.9-1.2,0.2-2.2,0-3.2c-1.5-6.5-5.1-12-9.2-17c-5.5-6.6-12.1-12.1-19-17c-4-2.9-8.8-4.2-13.6-2.4
		c-5,1.8-9,4.8-11.1,9.9c-1,2.5-1.7,5-2,7.6c-0.5,5.4-0.8,10.8-2.5,16C574.5,201.4,574.6,202.2,575.1,202.7L575.1,202.7z"/>
	<path class="st1" d="M575.1,202.8L575.1,202.8L575.1,202.8L575.1,202.8z"/>
	<path class="st1" d="M402.6,233.1c4.7-2.1,8.5-5.6,12.1-9.2c3.3-3.3,6.6-6.5,9-10.6c1.1-1.9,2.1-3.7,1.9-5.9
		c-0.8-0.2-1.2,0.2-1.6,0.7c-1.6,1.7-3.1,3.4-4.8,5.1c-6.2,6.5-13.5,11.3-21.6,15c-2,0.9-4.1,1.6-6.3,1.2c-4.5-0.7-8.8-2.1-12.2-5.1
		c-1.8-1.7-3.7-3.3-5.6-4.9c-0.3-0.2-0.7-0.6-1.2-0.1c-0.2,0.2-0.2,0.6-0.2,0.8c1.6,5.1,4,9.8,7.8,13.5c3.5,3.5,7.8,5,12.7,3.5
		C396.1,235.9,399.4,234.5,402.6,233.1z"/>
	<path class="st1" d="M362,212.7c1.4,0.5,2.9-0.1,3.6-1.4c0.6-1.1,0.9-2.3,1.6-3.4c1.4-2.3,3-4.5,4.5-6.8c1.1-1.5,2.1-3,3.2-4.5
		c2-2.7,4.1-5.4,6.3-7.9c3.2-3.9,7.1-6.9,11.6-9.2c7.4-4,15.3-5,23.5-2.8c3.5,0.9,6.1,3.1,6.8,6.9c0.2,1.2,0.4,2.5,0.8,3.6
		c0.6,1.7,2.5,2,3.7,0.7c0.7-0.9,1-1.9,1.1-3c0.3-5.2-2.2-9-6.5-11.5c-4.6-2.6-9.7-3.9-15.9-4.2c-3.5,0.5-7.6,1.2-11.4,3.1
		c-5.5,2.8-10.3,6.3-14.7,10.6c-3.2,3.1-6.4,6.4-9.5,9.7c-3.4,3.5-6.2,7.3-8.3,11.7c-0.8,1.7-1.4,3.5-1.9,5.2
		C359.8,210.9,360.7,212.2,362,212.7z"/>
</g>
<g>
	<path class="st2" d="M386.3,647.9c-0.7-1.5-1.5-2.6-2.9-3.6c-9.9-7-15.6-16.7-17.7-28.5c-0.3-1.7-0.6-3.3-0.7-5
		c-2.6-0.4-5,0.5-7.3,2.4c-1.3,1.1-2.3,2.5-3.1,4.1c-1.5,3.5-2.5,7-3.1,10.7c-0.4,2.6-0.9,5.3-0.7,7.8c0.2,3.7,1,7.3,1.7,11
		c0.6,3.1,1.3,6,2.1,9.1c1.2,4.6,0.8,9-1.2,13.1h37.7c-0.7-3.8-1.3-7.5-2-11.3C388.6,654.2,387.6,651,386.3,647.9z"/>
	<path class="st2" d="M669.4,541.7c-7.2,5.7-14.1,11.9-21.1,18c-0.1,0.1-0.2,0.2-0.3,0.3c-4.6,4.5-9.1,8.9-13.8,13.2
		c-1.7,1.5-2.2,3.1-2.1,5.3c0.3,5,0,9.9-0.5,14.9c-1.1,12.4-6.2,23-14.5,32.1c-2.6,2.9-5.8,5.2-9.2,7c-4.9,2.6-10,3.4-15.4,2.6
		c-5-0.7-9.5-2.7-13.7-5.5c-1.2-0.7-2.1-1.9-3.5-2.1c-0.7,0.3-0.8,1-1,1.5c-1.1,2.9-2.1,5.9-3.3,8.8c-4,9.7-11.2,15.9-20.9,19.4
		c-5.9,2.1-12.1,2.1-18.3,0.6c-5-1.3-9.1-4-12.9-7.3c-2.5-2.1-4.8-4.4-7.2-6.6c-6.8-6.3-14.8-8.3-23.8-6.7
		c-6.8,1.2-12.2,4.4-15.4,10.7c-0.5,1-1.1,1.9-1.7,2.8c-3.1,4.4-7.2,6.1-12.5,5.4c-3.4-0.5-6.2-1.9-8.5-4.4
		c-1.7-1.8-3.2-3.8-4.5-5.9c-2.6-4.4-5.2-8.8-7.4-13.5c-1.3-2.8-2.8-5.5-4.4-8.3c-1.7-2.8-3.8-5.3-6.6-7c-1.7,0.7-2.5,2.3-3.8,3.5
		c-5.1,4.5-11.4,5.2-17.3,1.9c-2.1-1.2-3.9-2.6-5.5-4.2c-4.5-4.5-8-9.4-10.4-15.3c-4-10.2-7.5-20.4-9.2-31.2
		c-0.3-1.9-0.9-3.5-2.6-4.7c-5.5-4.3-10.9-8.8-16.2-13.3c-0.1-0.1-0.2-0.2-0.2-0.2c-0.5,0.4-1,0.8-1.5,1.3c-2.3,2.6-2.6,5.5-1.7,8.7
		c0.5,1.9,1.4,3.8,2.1,5.6c0.6,1.4,1.2,2.8,1.2,4.5c0,1.2,0.1,2.2,0.2,3.4c0.1-0.2,0.2-0.6,0.2-0.8c1.4-4.2,5.8-5.6,9.4-3.1
		c2.8,2.1,4.1,5,4.4,8.4c0.2,2.6,0.1,5.3,0.1,7.9c-0.2,6.6,1.2,13,2.1,19.4c0.2,1.4,0.8,2.6,1.8,3.7c1.8,1.9,3.6,3.8,5.9,5.3
		c7,4.7,12.9,10.7,17.8,17.6c1.4,1.9,2.5,4,3.3,6.1c1.5,4,1.9,8.1,0.8,12.3c-1.2,4.9-0.2,9.7,2.4,13.8c0.3,0.4,0.6,0.9,0.9,1.4
		h238.6c0.4-0.6,0.8-1.2,1.2-1.7c1.4-2.1,2.6-4.2,3.2-6.7c0.6-2.1,1.2-4.1,1.7-6.3c1.2-4.7,2.8-9.2,4.9-13.5c3.1-6.3,3.8-13,5-19.8
		c0-0.2-0.2-0.4-0.5-0.6c-0.1-0.1-0.3,0-0.4,0.1c-0.9,0.8-1.8,1.7-2.7,2.5c-1.4,1.2-2.8,2.4-4.5,3.2c-5.5,2.4-11.1-1.3-10.8-7.3
		c0.1-1.4,0.4-2.8,0.8-4.1c1.6-5.2,3.6-10.3,6.4-14.9c3.5-5.7,7.1-11.3,11.1-16.6c2.2-3,4.7-5.9,7.5-8.3c2.4-2.1,4.1-4.5,5.5-7.4
		c0.8-1.8,1.7-3.6,2.7-5.4c0.5-0.9,1.1-1.9,1.8-2.7c0-0.2-0.1-0.4-0.1-0.7C680.8,550.7,676.2,545.1,669.4,541.7z"/>
	<path class="st2" d="M693.9,610.5c-1-4.5-2.6-8.8-5-12.6c-0.3,1.4-0.7,2.8-1.1,4.2c-2.5,9.1-4.5,18.3-5.5,27.7
		c0.6-0.7,1.2-1.4,1.7-2.1l2.1-2.4l1-1.2c0.3-0.4,0.7-0.7,1.1-1.2l2.1-2.3c0.7-0.7,1.4-1.5,2.1-2.2c0.7-0.7,1.4-1.4,2.1-2.1
		C694.5,614.4,694.4,612.4,693.9,610.5z"/>
	<path class="st2" d="M599.2,195.8c2.1-0.8,4.6-4.5,4.2-6.8c-0.5-2.6-2.6-4.1-4.2-5.9c-0.2-0.2-0.6-0.2-0.9-0.2c-1,0-2,0.1-2.5,1
		c-1.9,3.2-2.5,6.7-0.9,10.2C595.6,195.8,597.5,196.5,599.2,195.8z"/>
	<path class="st2" d="M583.2,205.8c1.2,0.7,2.4,1.3,3.7,1.9c1.2,0.6,2.1,1.6,3.6,1.7c0.1-0.3,0.2-0.5,0.2-0.6c-1.9-4-3.1-8-2.9-12.5
		c0-0.2-0.2-0.5-0.3-0.7l0,0c-2.2,2.5-2.7,5.9-4.5,8.5C582.5,204.8,582.7,205.5,583.2,205.8z"/>
	<path class="st2" d="M612.7,217.4c2.8-0.1,5-1.2,6.9-3.3c1.4-1.5,2.2-3.3,3-5.2c0.7-2.1,0.2-3.6-1.2-5c-0.9-0.8-1.7-0.8-2.1,0.4
		c-2.1,5.1-5.5,8.8-10.2,11.7c-0.2,0.2-0.4,0.4-1.2,1.4C609.9,217.4,611.3,217.4,612.7,217.4z"/>
	<path class="st2" d="M414.3,207c0.3,0.2,0.7,0.2,1.1,0.4c1.2-1.4,2.5-2.7,3.7-4.1c1.2-1.3,3-2.1,3.1-4.3c-1.4-0.8-2.7-1.6-4.1-2.3
		c-1.2-0.7-1.8-2.5-3.8-2.6C414.8,198.5,414.3,202.7,414.3,207z"/>
	<path class="st2" d="M399.1,203c2.2,0.7,3.9-0.1,5.4-1.7c2.2-2.3,2.7-5.8,1.6-8.6c-0.8-2-2.4-2.7-4.4-2.7c-1.9-0.1-3.2,0.7-4,2.4
		c-0.7,1.6-1.3,3.1-1.2,5.7c0-0.4,0,0.1,0,0.5C396.5,200.5,396.9,202.3,399.1,203z"/>
	<path class="st2" d="M380.6,210.8c0.4-3.6,0.3-7-0.1-10.5c-0.7,0.8-1.4,1.6-2,2.5c-1,1.7-2.6,3-2.8,5.1c1.5,1,3,2,4.5,3
		C380.2,210.9,380.4,210.8,380.6,210.8z"/>
</g>
<g>
	<path class="st3" d="M388,60.7c-5.5-1.9-10.7-1.1-15.8,1.3c-7.3,3.5-14,7.9-20.8,12.3c-3.1,2.1-5.8,4.6-8.3,7.3
		c-1.1,1.2-2,2.4-2.4,3.9c-0.3,1.2-0.4,2.5,0.2,3.6c1.5,2.4,3.6,3.9,6.5,3.7c1,0,2.1-1.2,2.9,0.2c0.6,1,0.1,2.1-0.2,3.1
		c-0.4,1.8-1.1,3.5-2,5.1c-2.6,4.9-5.4,9.8-7.3,15.1c-0.8,2.3-1.5,4.8-2.6,6.9c-2,3.9-4.1,7.6-6.3,11.4c-4.5,7.8-8.4,15.9-11.3,24.4
		c-0.4,1.3-0.9,2.6-0.9,4c0.1,3.1-0.2,6.2,0.1,9.3c0.3,4.5,1.7,8.5,5.5,11.4c2.1,1.7,3.1,1.9,5.3,0.3c1.9-1.4,3.6-3,5.5-4.3
		c9.2-6.7,18.3-13.2,27.5-19.9c3-2.1,5.9-4.5,8.8-6.6c-0.5-1-1.2-1.3-2-1.5c-2.9-0.7-5.5-2.1-7.9-3.9c-3.8-2.7-7.5-5.6-8.7-10.5
		c-1.2-4.6-0.6-9.2-0.4-13.9c0-0.6,0.4-1.2,0.7-1.7c4-8.4,8.3-16.7,14.1-24c3.1-4,6.4-8,9.4-12.1c3.1-4.3,6.9-7.9,10.7-11.6
		c1.6-1.5,3.1-3,4.6-4.6c1.6-1.7,1.6-2.6,0.7-4.6C392.5,62.8,390.3,61.5,388,60.7z"/>
	<path class="st3" d="M323.9,611.9c-0.6-4.5-1.3-8.9-1.4-13.4c-0.2-8.8-0.2-17.7,0-26.6c0.2-4.8,0.9-9.5,1.5-14.3
		c0.3-3.1,0.8-6.1,1.2-9.2c0.1-1.5-0.6-2.4-1.7-3.1c-2.9-1.8-5.9-3.4-9.2-4.5c-1.7-0.6-3.1-1.5-4.2-2.7c-4.5-5-8.8-10.1-11.6-16.2
		c-2.3-5.3-5.5-10.1-8.8-14.8c-1.4-2.1-3-4-5.1-5.4c-0.7-0.5-1.6-1.2-2.6-0.6c-0.7,0.5-0.6,1.4-0.6,2.1c0,5.5-0.1,10.9,0,16.3
		c0,1.9,0,3.7,0.2,5.6c0.5,5,1.1,9.8,1.7,14.8c0.2,2,0.7,4,0.9,5.9c0.5,4.8,1.5,9.5,2.4,14.2c2.1,10.7,6.4,20.7,11.1,30.6
		c3.4,7.2,7.1,14.1,10.2,21.4c4.4,10,8.4,20,10.9,30.6c0.2,1.1,1.1,1.4,2.1,1c3.8-1.6,5.5-4.8,6.7-8.4c0.2-0.4,0-0.9-0.1-1.4
		C326.3,626.6,324.8,619.4,323.9,611.9z"/>
	<path class="st3" d="M627.1,83.8c0.7-1.1,1.2-2.2,0.9-3.6c-0.7-3.1-1.2-6.4-2.7-9.3c-1.7-3-4-5.1-7.8-4.8c-2.1,0.2-4.3,0-6.4,0.7
		c-1.8,0.6-3.6,0.2-5.4-0.6c-2.8-1.3-5.6-2.6-8.6-3.6c-5.9-1.7-11.4-3.9-17.1-6c-2.9-1.1-5.9-1.9-8.7-3.4c-2.9-1.6-5.9-2.6-9.2-3.2
		c-2.9-0.6-5.7-1.4-8.3-2.6c-1.9-0.9-4.1-1.5-6.3-1.6c-6.5-0.2-13-1.4-19.5-1.1c-2.8,0.2-5.5,0.1-8.3-0.7c-1.9-0.6-4-0.5-5.9,0.6
		c-2.5,1.4-3.7,4.2-1.2,6.9c0.7,0.8,1.7,1.2,2.8,1.6c3.3,1.3,6.6,2.6,9.7,4.5c2.7,1.8,5.7,3.2,8.4,4.9c2.6,1.6,5.5,2.1,8.5,1.2
		c1.5-0.5,3.1-0.5,4.6-0.5c2.5,0,5,0,7.4,0c5.1,0,10.2-0.2,15.3,1c5.7,1.3,11.6,2.2,16.9,4.7c7.9,3.6,16.1,6.5,24.3,9.4
		c5,1.7,10.2,2.8,14.5,6C625.8,85,626.7,84.6,627.1,83.8z"/>
	<path class="st3" d="M333.4,324.7c0-2.1-0.4-4.3-0.8-6.4c-0.3-1.7-1-3.4-2.8-4c-5.3-1.7-9.2-5.5-13.6-8.8c-0.7-0.5-1.2-1.7-2.3-1
		c-0.7,0.4-0.4,1.4-0.5,2.1c-0.1,1.6,0,3.1,1.1,4.4c0.7,0.9,0.9,2,0.6,3.1c-0.8,2.5-0.7,4.8-0.1,7.3c0.7,2.7,0.7,5.5,1.2,8.3
		c1,5.8,2.3,11.6,5,16.8c1.8,3.6,3.7,7.2,5.1,10.9c0.8,2.1,2,4.2,3.1,6.3c1.1,1.9,2.7,2,4,0.2c2.8-3.6,3.8-8.1,5-12.2
		c-0.5-2.1-0.8-4.1-1.3-6.1C335.3,338.8,333.3,332,333.4,324.7z"/>
	<path class="st3" d="M720.6,548.8c-0.5-4.5-1-8.9-2.2-13.2c-1.4-5-2.1-10-1.9-15.1c0-2.8,0-5.6,0-8.3c0-0.2-0.3-0.6-0.6-0.6
		c-0.2-0.1-0.7,0.1-0.7,0.3c-0.7,1.3-1.5,2.7-2.2,4c-3.3,5.9-7,11.3-12.9,14.9c-1.4,0.9-3.6,1.2-4.1,2.7c-0.7,2,1.5,3.1,2.3,4.8
		c3.5,7.5,5.5,15.4,5.8,23.7c0,1.1,0,2.1,0,3.2c-0.1,2,1.1,3.1,2.7,3.9c3,1.3,5.8,0.8,8.2-1.3c3.1-2.6,4.9-6.1,5.5-10
		C720.7,555,721,552.1,720.6,548.8z"/>
	<path class="st3" d="M657.5,173c-1-4-2.8-7.9-5.4-11.2c-1.2-1.7-2.1-3.3-2.8-5.3c-1.5-4.2-2.3-8.7-5.4-12.2c-1-3.2-3.5-4.3-6.4-4.4
		c-2.5-0.1-5-0.2-7.4,0.4c-2.1,0.5-4.3,0.4-6.4-0.2c-2.1-0.6-4.2-0.8-6.3-1.2c-3.5,0-5.4,2.6-4.3,5.9c0.3,1.2,0.8,2.3,1.2,3.6
		c0.7,2.2,2.1,3.1,4.4,3.3c6.3,0.5,12.1,2.5,17.2,6.4c1.3,1,2.8,2,4.2,2.9c6.8,4.4,12,10.2,15.9,17.2c0.7,1.2,1.5,2.4,2.2,3.5
		c0.2,0.4,0.7,0.6,1.2,0.2c0.2-0.2,0.2-0.6,0.2-0.8C658.7,178.5,658.2,175.7,657.5,173z"/>
	<path class="st3" d="M306.7,269c0.1,2.6,0.7,5.2,1.1,7.8c0.2,1.6,1.1,2.1,2.6,1.9c2.6-0.4,4-2.1,4.6-4.6c1.6-6.2,3.2-12.3,6.4-17.8
		c1.6-2.6,1.2-5.4-0.4-7.9c-1.2-1.8-2.3-3.7-4-5.1c-2.6-2.1-4-5-4.7-8.3c-0.2-0.6-0.2-1.2-0.3-1.8c-0.7-1.8-2.4-2.9-4.5-2.6
		c-1.9,0.2-2.5,1.5-2.9,3.1c-0.9,2.9-0.5,5.9-0.6,7.9c-0.2,6.4,0.7,12,1.6,17.4C306.1,262.2,306.6,265.6,306.7,269z"/>
	<path class="st3" d="M511.6,180.1c-2-1.2-4-2.3-6.4-2.9c-2.2-0.5-4.5-1-6.9-1.4c-6.9-1.3-13.2,0.2-19.3,3.3c-1.4,0.7-2,1.9-1.8,3.4
		c0.2,2.9-0.5,5.5-1.6,8.2c-0.3,0.9-0.6,1.7-0.9,2.6c-0.2,0.6-0.5,1.2-0.1,1.7c0.6,0.7,1.4,0.4,2.1,0.2c4.2-1.6,8.7-2.4,13.1-3
		c4.7-0.7,9.4-1.8,14.3-0.7c2.6,0.6,5.3-0.3,7.6-1.7c1.7-1,2.4-2.8,2.6-4.7C514.3,183.1,513.5,181.2,511.6,180.1z"/>
	<path class="st3" d="M440.5,90c-3.5,0.9-6.9,2-9.7,4.2c-1.3,1.1-2.8,1.8-4.5,2.4c-4.1,1.4-6.9,4.5-9.7,7.8c-1.2,1.4-1.9,3.2-1.7,5
		c0,2,0.2,2.6,0.8,3.6c1.1,1.6,2.2,2,3.9,1c3-1.7,6.2-2.8,9.6-3.5c4.1-0.7,8.2-1.7,12.3-2.4c1.6-0.2,2.6-0.8,3.4-2.1
		c1.2-2.1,2.7-4,4.3-6c2.3-3.1,2-5.3-0.5-7.8C446.3,89.9,443.6,89.1,440.5,90z"/>
	<path class="st3" d="M682.7,221.7c-1.9-4.5-4.5-8.5-7.3-12.4c-1-1.4-2.2-2.6-3.9-3.3c-2.5-1.2-4.9,0.1-5.1,2.7
		c-0.2,1.9,0.1,3.6,0.9,5.5c1.6,3.4,2.8,6.9,2.8,10.7c0,3.9,0.7,7.7,1.1,11.6c0.3,3.5,1.5,6.6,4.3,9c2,1.7,3.7,1.9,5.9,0.4
		c0.8-0.5,1.3-1.3,1.8-2.1c2-2.9,1.8-6.2,1.7-10C685.5,229.9,684.5,225.6,682.7,221.7z"/>
	<path class="st3" d="M578.7,107.7c-0.3-0.3-0.7-0.7-1.1-0.8c-3.3-1.2-5.9-3.5-8.8-5.3c-3-1.8-6.1-3-10.7-2.7
		c-2.3,0.2-5.7,0.6-9.1,1.1c-1,0.2-2.1,0.6-2.6,1.7c-1.2,2.4-0.5,5.5,1.5,7.1c1.8,1.5,4,2.3,6.2,3.1c7.3,2.8,14.9,4.1,22.7,2.6
		c2-0.4,2.9-1.7,3.5-3.3C580.8,109.7,579.7,108.7,578.7,107.7z"/>
</g>
<g>
	<path class="st4" d="M659.1,525.2L659.1,525.2L659.1,525.2c0.7-0.2,1.2-0.6,1-1.2C659.7,524.4,659.4,524.8,659.1,525.2z"/>
	<path class="st4" d="M356,511.9c-5.4-2.4-9.6-6.3-13.3-10.7c-8.5-10.2-14.1-21.8-18.9-34c-0.4-1-0.8-2.1-0.9-3.1
		c-0.4-3.1-1.9-5.5-4.1-7.6c-0.6-0.5-1.1-1.2-1.6-1.7c-6.6-7.2-10.5-15.7-12.2-25.3c-0.4-2.4-0.8-4.9-1.2-7.4
		c-0.8,0.9-0.5,1.8-0.5,2.6c-0.2,3.4-0.1,6.9-0.4,10.2c-1,10.6-0.1,21.1,1.2,31.6c0.7,5.6,2.7,10.8,6,15.4c1.7,2.4,3.2,5,5,7.3
		c0.9,1.2,1.8,2.6,2.9,3.6c4.8,5,9.7,9.6,15.5,13.3c1.8,1.2,3.6,2.5,5.3,3.8c10.2,7.2,19.5,15.4,29.3,23c2.4,1.8,4.7,3.9,6.4,6.5
		c0.9-1.1,0.7-2.3,0.3-3.5C371.6,525.6,366.6,516.6,356,511.9z"/>
	<path class="st4" d="M362.4,588.5c-0.4-2.5-0.6-5-0.8-7.4c-0.2-1.4-0.1-2.8,0.2-4.2c-0.1-1.2-0.2-2.2-0.2-3.4
		c0-1.6-0.6-3.1-1.2-4.5c-0.8-1.8-1.7-3.7-2.1-5.6c-0.9-3.1-0.6-6.1,1.7-8.7c0.5-0.5,1-1,1.5-1.3c-3.1-2.6-6.4-4.5-10.2-5.9
		c-1.7-0.7-3.6-1.2-5.3-1.8c-9.3-3.6-18.3-8-25.5-15.1c-9.8-9.6-18.9-19.8-25.8-31.7c-4-6.9-8.1-13.6-11.5-20.8
		c-0.3-0.6-0.4-1.5-1.4-1.5c-0.7,0.6-0.7,1.4-0.8,2.1c-1.2,8.6-4,16.6-7.4,24.4c-1.8,4.1-3.7,8.3-5.5,12.4
		c-5.7,13.5-9.2,27.7-10.7,42.4c-0.9,8.8-1.3,17.7-1.7,26.5c-0.1,2.1-0.3,4.1-0.8,6c3.6,1.7,7.1,3.6,10.6,5.6
		c0.4-6.4,1.1-12.7,2.2-19.1c0.4-2.1,1-4.2,1.6-6.4c0.4-1.5,1.1-2.9,2.1-4.1c0.6-0.7,1.5-0.6,1.8,0.3c0.4,1.3,0.8,2.6,1.2,4
		c1.3,6.4,1.9,12.9,2.6,19.4c0.6,5,1.2,9.9,1.8,14.9l0.8,0.7c0.4,0.3,0.8,0.7,1.2,1l1.2,1l2.4,2c0.8,0.7,1.6,1.4,2.3,2.1l1.2,1.1
		l0.6,0.5l0.6,0.6c1.5,1.5,3,2.9,4.5,4.4c0.7,0.7,1.5,1.5,2.1,2.2l2.1,2.3c0.3,0.4,0.7,0.7,1.1,1.2l1,1.2l2.1,2.4
		c1.3,1.6,2.6,3.2,3.9,4.8c3.3,4.2,6.4,8.5,9.5,12.9c0.1,0.1,0.1,0.2,0.2,0.2c0.7,1,1.5,2,2.1,3c0.2,0.3,0.4,0.7,0.7,1.1
		c0.7,1,1.3,1.9,2,2.9c2.3,3.4,4.6,6.8,7.1,10c0.2,0.3,0.6,0.7,0.8,1.1l0.1,0.1c0.7,0.6,1.3,1.2,2,1.8c1.2,1,2.3,1.9,3.6,2.8
		c0.2,0.2,0.5,0.3,0.8,0.5h18.7c2.1-4.1,2.5-8.4,1.2-13.1c-0.8-3-1.5-6-2.1-9.1c-0.7-3.6-1.5-7.3-1.7-11c-0.2-2.6,0.2-5.3,0.7-7.8
		c0.7-3.6,1.7-7.3,3.1-10.7c0.7-1.6,1.7-3,3.1-4.1c2.2-1.9,4.7-2.8,7.3-2.4c-0.2-1.4-0.3-2.8-0.4-4.2
		C364.1,600.5,363.4,594.5,362.4,588.5z M327.9,635.2c-1.2,3.6-2.8,6.9-6.7,8.4c-1.1,0.4-1.9,0.1-2.1-1
		c-2.5-10.6-6.6-20.6-10.9-30.6c-3.1-7.3-6.9-14.3-10.2-21.4c-4.6-9.8-9-19.7-11.1-30.6c-0.9-4.7-1.9-9.4-2.4-14.2
		c-0.2-2-0.7-4-0.9-5.9c-0.6-4.9-1.2-9.8-1.7-14.8c-0.2-1.8-0.2-3.7-0.2-5.6c0-5.5,0-10.9,0-16.3c0-0.7-0.2-1.7,0.6-2.1
		c1-0.6,1.8,0.2,2.6,0.6c2.1,1.4,3.7,3.3,5.1,5.4c3.3,4.7,6.4,9.6,8.8,14.8c2.7,6.2,7,11.3,11.6,16.2c1.2,1.2,2.5,2.1,4.2,2.7
		c3.2,1.1,6.3,2.6,9.2,4.5c1.2,0.7,1.8,1.7,1.7,3.1c-0.4,3-0.9,6-1.2,9.2c-0.6,4.8-1.3,9.5-1.5,14.3c-0.2,8.8-0.2,17.7,0,26.6
		c0.1,4.5,0.9,8.9,1.4,13.4c0.9,7.3,2.4,14.6,3.9,22C327.9,634.3,328,634.8,327.9,635.2z"/>
	<path class="st4" d="M665.8,334.6c1.2-0.6,1.9-1.5,2.6-2.5c3.5-5,6.4-10.2,8.8-15.9c1-2.4,2-4.9,3.1-7.3c1.1-2.2,2.1-4.5,4.1-6.1
		c1.3-1.1,1.7-2.4,2-4c1.2-9.4,2.9-18.7,5-28c2.1-9.8,2.1-19.7,1.7-29.7c-0.1-1.4-0.4-2.7-0.7-4.1c-1.4-6.4-3.1-12.6-5.1-18.9
		c-1.4-4.3-2.6-8.7-3.2-13.1c-0.5-2.8-1.4-5.4-2.6-7.9c-2.3-4.5-4.6-9.2-6-14.1c-1.7-5.9-4.2-11.3-7.7-16.4
		c-3.8-5.5-6.7-11.6-9.5-17.7c-3.3-7.2-4-14.6-1.8-22.2c0.5-1.8,0.9-3.6,1.6-5.4c0.4-1.2,0.8-2.6,1.2-3.8c-0.6-2.2-1.5-3.1-4.6-6
		c-1.2-1.2-2.6-2.3-3.3-3.9c-1.3-2.7-1.9-5.5-0.7-8.5c0.7-1.7,0.2-2.1-1.3-2.9c-1-0.4-2.1-0.7-3-1.3c-1.8-1.2-2.9-2.8-2.7-5
		s1.6-3.8,4-4.5c3.6-1.1,7.4-0.5,11.1-0.2c2,0.2,4,0.3,6,0.6c1.4,0.2,2.3-0.5,3.1-1.6c1.3-1.7,2.6-3.5,4-5.2
		c0.2-0.2,0.3-0.4,0.5-0.6c-3.2,0-6.4,0-9.6,0c-11.6-0.2-21.7-3.6-29-13.3c-0.1-0.2-0.2-0.2-0.3-0.3c-8.4-9.9-19.5-15.1-32-17.8
		c-2-0.4-4-0.2-6,0.2c-2.3,0.6-4.4,1.6-6.4,2.7c-2.7,1.6-5.5,1.8-8.5,0.8c-1.9-0.7-3.8-1.2-5.8-1.8c-6.7-2.1-13.4-4.2-20.2-5.5
		c-9.2-1.7-18.4-3.1-27.7-2.7c-11.3,0.5-22.7,0.8-34,1.4c-4,0.2-8.1,0.5-12.1,1.2c-10.7,1.8-21.4,3.8-32,5.9
		c-14.4,2.8-28.7,3.6-42.9-0.1c-3.4-0.9-6.8-0.8-10.2-0.3c-11.1,1.6-21.6,4.6-30.6,11.6c-0.3,0.2-0.7,0.5-1.2,0.8
		c-2,1.3-4.2,2.1-6.6,1.6c-2.6-0.6-5.3,0.2-7.9-0.2c-0.8-0.2-1.5,0.2-2.1,0.7c-6.1,4.5-12.8,8.3-16.5,15.4c-2.1,4-5.8,5.5-10.2,5.3
		c-1.1-0.1-2.1-0.3-3.2-0.5c-3.3-0.5-6.4-0.1-9.3,1c2,1.3,3.7,3.4,5,6c1.6,3.4,2.7,6.9,2.6,10.7c-0.1,1.1,0,2.1,0,3.2
		c1.7,0.2,2.2-1.2,3.1-1.9c1.8-1.6,3.7-2.6,6.2-2.8c5.2-0.5,8.5,5.1,7,9.1c-0.6,1.6-1.3,3.1-2.1,4.6c-3.6,7-7.3,14-11.1,21
		c-1.6,2.9-2.5,6-3.8,9c-0.3,0.8-0.7,1.7-1.1,2.5c1.9-2.7,3.8-5.5,5.5-8.3c0.5-0.8,0.9-2,2.4-2.1c0.4,1.1,0,2.1-0.3,3.1
		c-1.7,6.3-3.6,12.6-5.4,18.8c-0.7,2.4-1.7,4.7-2.6,6.9c-2.6,6.2-5,12.4-6.9,18.8c-3.1,10.1-3.8,20.4-4.5,30.8
		c-0.7,11.3-1.7,22.6-2.5,33.9c-0.6,8.3-0.8,16.4-0.5,24.7c0.2,4.5,1,8.9,2.4,13.3c0.7,2.1,1.3,4.1,2.1,6.2
		c6.8,18.5,9.7,37.6,8.8,57.2c-0.3,8.9-0.3,8.9,3.7,16.8c1.3,2.6,2.6,5.3,4.9,7.3c1.3,1.2,2.1,2.7,2.5,4.4c1.4,5.4,5.3,8.6,9.4,11.7
		c0.8,0.7,1.7,0.9,2.6,1.1c4.4-2.5,0.4-10.1,2.2-13.3c4.5-8.1,14.5-13.4,19.2-21.5c0.2-0.4,0.4-0.8,0.7-1.2c-1-0.5-2-1.2-2.9-2.1
		c-1.5-1.4-2.8-3-3.7-4.8c-1-2-1.8-4-2.6-5.9c-2.2-6.2-3.6-12.6-4.4-19.1c-0.6-4.6-1.3-9.2-1.9-13.7c-0.9-0.2-1.3,0.3-1.7,0.7
		c-2.2,2-4.5,1.7-6.9,0.3c-1.9-1.2-3.5-2.6-4.6-4.5c-2.1-3.3-3.2-7-3.6-11c-1.2-11.1,0.7-22,3.4-32.7c1-3.8,1.9-7.5,2.2-11.4
		c0.3-4.5,0.7-3.8-2.6-6.8c-8.1-7.1-11.5-16-9.4-26.8c1.3-6.9,4-13,8-18.7c0.6-0.8,1.2-1.5,2.2-1.4c3.5,0.3,6.7-0.9,10.1-1.6
		c6.2-1.2,11.2-4.3,15.8-8.4c6.4-5.9,12.6-12.1,18.5-18.4c3.2-3.5,6.7-6.5,10.7-8.9c9.6-5.7,19.7-8.1,30.8-5.2
		c0.6,0.2,1.2,0.3,1.8,0.4c2.1,0.2,3.6-0.7,4.8-2.3c1.2-1.7,1.1-3.5,0-5.2c-1.3-2.2-3.5-3.6-5.8-4.5c-4-1.5-8.1-2.3-12.3-1.6
		c-0.9,0.2-1.7,0.7-2.6,0.2c0-0.2,0-0.4,0.1-0.5c3.9-3.6,8.3-6.6,12.7-9.2c4-2.5,8.5-4.5,12.8-6.7c2.4-1.2,5-1.8,7.7-1.5
		c2.1,0.3,4.3,0.5,6.4,0.8c8.5,1.5,13.9,6.6,16.2,14.8c1.2,4.4,1.4,8.8,0.6,13.4c-0.7,3.6-1.5,7.3-1.6,11.1
		c-0.1,2.7,0.8,4.8,3.5,6.2c1.5-1.3,3.1-2.6,4.5-4c1.6-1.7,6.3-12.5,6.5-14.8c0.4-3.7,0.9-7.4,1.2-11.1c0.2-2.1,0.2-4.4,0.2-6.5
		c0.1-2.6-1.7-4.7-4.8-5.5c-0.6-0.2-1.2-0.2-1.8-0.2c-4.5-1-6.6-3.4-7.2-7.9c-0.3-2.7,0.1-5.3,1.3-7.7c1.7-3.3,5.3-5,9-4.1
		c4.6,1,7.8,3.7,9.3,8.2c1.7,5,3.3,10,4.7,15.1c0.7,2.6,1.1,5.2,1.4,7.8c0.4,3.3,0.2,6.6-1.1,9.7c-2,4.8-3,9.8-4.1,14.8
		c-1,4.5-2.6,8.6-4.6,12.6c-1.2,2.4-2.5,4.9-4.7,6.3c-4.2,2.8-6.6,6.8-9.1,10.9c-0.7,1.2-1.6,2.3-2.6,3.4c-1.7,1.8-3.5,3.6-5.2,5.4
		c-0.7,0.7-1.6,1.4-1.5,2.6c1.3,0.1,1.9-0.8,2.7-1.2c2.7-1.3,5.2-1.2,6.9,0.3c1.7,1.6,2.1,3.5,1.7,5.5c10.7-5.4,22.2-8.8,34.2-10.2
		c5.9-0.7,12.1-1.5,18.1-1c8.8,0.7,17.4,2.3,25.6,5.5c-2.3-3.1-4.4-6.4-6.4-9.7c-1.3-2.1-2.6-4.3-3.4-6.6
		c-2.3-6.3-4.8-12.5-5.5-19.2c-0.2-1.7-0.8-3.3-1.4-5c-3.7-10.5-4.3-21.2-3.3-32.2c0.4-4.8,1.3-9.6,1.2-14.4
		c-0.1-1.9,0.3-3.7,1.2-5.5c1.1-2.1,3.7-3.9,5.6-3.5c2.3,0.5,3.8,2.1,4.5,4.3c0.7,2.1,1,4.3,0.5,6.4c-0.6,2.7-1.2,5.5-1.8,8.2
		c-0.6,2.4-1.2,4.8-1.8,7.2c-1.1,4.4-0.5,8.8,0.7,12.9c1.2,4.5,3.9,8.5,7.3,11.7c0.9,0.8,2,1.6,3,2.2c0.7,0.5,1.6,0.3,2.1-0.3
		c3.1-3.9,5-7.9,2.4-12.9c-0.2-0.6-0.5-1.2-0.7-1.7c-1-3.2-2.1-6.5-3.1-9.8c-1-3.9-0.8-7.7,1.4-11.2c1-1.7,2.3-2.8,4.3-3.3
		c3.8-0.9,7.6-1.7,11.5-1.8c1.4-0.1,2.8,0,4.2,0.2c13,2.4,25.1,7.1,35.4,15.6c3.1,2.6,7.7,8,9.6,11.7c-1.3,0.2-2.4-0.6-3.6-0.8
		c-6.5-1.7-13-2.9-19.8-1.5c-3.2,0.7-6.4,1.2-9.5,2.1c-3.5,1-6.6,2.6-9.6,4.7c-1.6,1.1-2.9,2.4-3.8,4c-1,1.7-1.3,3.5-0.8,5.4
		c0.7,2.4,3.1,3.4,5.1,2.1c0.7-0.4,1.2-1,1.7-1.6c1.3-1.3,2.6-2.7,4-3.9c5-4.2,10.7-6.7,17.5-6.4c3.5,0.2,6.8,0.6,10.2,1.2
		c7,1.1,13.1,4.5,19.4,7.7c0.4,0.2,0.7,0.6,1.1,0.9c3.1,2.6,6.4,4.9,10.1,6.7c3.4,1.7,6.1,4.1,8.6,7c3.6,4.3,6.7,9,9.5,13.8
		c1.6,2.7,3.4,5.2,5.9,7.2c2.1,1.7,3.7,3.8,5.1,6c4.7,7.6,8.3,15.7,10.2,24.4c1.7,7.6,2.4,15.4,2.6,23.1c0.2,5.1,0.2,10.2,0.5,15.4
		c0.5,7.3,0.4,14.6,0.6,21.9c0,2.3-0.2,4.6-0.9,6.9c-0.2,1.1-0.7,2.1-1.2,3c-1.4,2.1-4,2.1-5.2-0.2c-1.2-2.4-2-4.9-2.1-7.6
		c-0.1-1.2,0-2.6-1.2-3.4c-0.7,0.2-0.8,0.8-1,1.4c-2.6,10.1-5.3,20.1-7.8,30.2c-0.7,3.1-1.2,6.4-1.7,9.7c-0.2,1,0.1,1.8,1.2,2.1
		c3.4,0.7,5.6,3.1,7.9,5.5C662.2,336.2,662.6,336.1,665.8,334.6z M329.8,314.3c1.9,0.6,2.5,2.3,2.8,4c0.4,2.1,0.9,4.3,0.8,6.4
		c-0.1,7.3,1.8,14,3.6,21c0.5,1.9,0.8,3.9,1.3,6.1c-1.2,4.2-2.1,8.6-5,12.2c-1.4,1.8-3,1.7-4-0.2c-1.2-2-2.3-4-3.1-6.3
		c-1.4-3.8-3.3-7.3-5.1-10.9c-2.7-5.3-4-11.1-5-16.8c-0.5-2.7-0.6-5.5-1.2-8.3c-0.6-2.5-0.7-4.9,0.1-7.3c0.4-1.1,0.2-2.1-0.6-3.1
		c-1.1-1.3-1.2-2.8-1.1-4.4c0-0.7-0.2-1.7,0.5-2.1c1.1-0.6,1.7,0.5,2.3,1C320.5,308.8,324.4,312.7,329.8,314.3z M321,248.3
		c1.7,2.6,2,5.2,0.4,7.9c-3.2,5.5-4.9,11.7-6.4,17.8c-0.7,2.5-2,4.2-4.6,4.6c-1.5,0.2-2.4-0.3-2.6-1.9c-0.3-2.6-1-5.1-1.1-7.8
		c-0.1-3.4-0.6-6.8-1.1-10.2c-0.9-5.5-1.7-11-1.6-17.4c0.2-2.1-0.2-5,0.6-7.9c0.5-1.7,1-2.9,2.9-3.1c2-0.2,3.7,0.8,4.5,2.6
		c0.2,0.6,0.2,1.2,0.3,1.8c0.7,3.3,2.1,6.1,4.7,8.3C318.7,244.6,319.9,246.5,321,248.3z M513.9,44.8c1.9-1.1,4-1.2,5.9-0.6
		c2.7,0.7,5.5,0.8,8.3,0.7c6.5-0.3,13,0.8,19.5,1.1c2.1,0.1,4.4,0.7,6.3,1.6c2.7,1.2,5.5,2.1,8.3,2.6c3.2,0.6,6.3,1.7,9.2,3.2
		c2.7,1.5,5.8,2.3,8.7,3.4c5.6,2.1,11.2,4.4,17.1,6c3,0.8,5.8,2.2,8.6,3.6c1.8,0.8,3.6,1.2,5.4,0.6c2.1-0.7,4.3-0.5,6.4-0.7
		c3.8-0.3,6.1,1.8,7.8,4.8c1.6,2.9,2.1,6.1,2.7,9.3c0.2,1.2-0.2,2.5-0.9,3.6c-0.5,0.7-1.2,1.2-2,0.6c-4.3-3.3-9.6-4.3-14.5-6
		c-8.2-3-16.4-5.9-24.3-9.4c-5.5-2.4-11.2-3.4-16.9-4.7c-5-1.2-10.2-1-15.3-1c-2.5,0-5,0-7.4,0c-1.6,0-3.1,0-4.6,0.5
		c-3,0.9-5.8,0.4-8.5-1.2c-2.8-1.7-5.7-3.1-8.4-4.9c-3.1-2-6.4-3.2-9.7-4.5c-1-0.4-2-0.7-2.8-1.6C510.1,48.9,511.4,46.1,513.9,44.8z
		 M363.6,160.1c-9.2,6.6-18.3,13.2-27.5,19.9c-1.9,1.4-3.6,3-5.5,4.3c-2.2,1.6-3.1,1.4-5.3-0.3c-3.7-2.9-5.1-6.9-5.5-11.4
		c-0.2-3.1-0.1-6.2-0.1-9.3c0-1.4,0.4-2.7,0.9-4c2.8-8.6,6.8-16.6,11.3-24.4c2.1-3.8,4.4-7.5,6.3-11.4c1.1-2.2,1.7-4.6,2.6-6.9
		c1.9-5.3,4.5-10.2,7.3-15.1c0.9-1.7,1.6-3.3,2-5.1c0.2-1.1,0.7-2.1,0.2-3.1c-0.8-1.3-1.9-0.2-2.9-0.2c-3,0.1-5-1.3-6.5-3.7
		c-0.7-1.2-0.6-2.4-0.2-3.6c0.5-1.5,1.3-2.8,2.4-3.9c2.6-2.7,5.2-5.3,8.3-7.3c6.8-4.4,13.5-8.8,20.8-12.3c5-2.4,10.3-3.2,15.8-1.3
		c2.3,0.8,4.5,2.1,5.7,4.5c0.9,2,0.8,3-0.7,4.6s-3.1,3.1-4.6,4.6c-3.7,3.7-7.5,7.3-10.7,11.6c-3.1,4.1-6.3,8.1-9.4,12.1
		c-5.8,7.3-10.2,15.6-14.1,24c-0.2,0.6-0.7,1.2-0.7,1.7c-0.2,4.6-0.7,9.2,0.4,13.9c1.2,5,5,7.8,8.7,10.5c2.4,1.7,5,3.2,7.9,3.9
		c0.7,0.2,1.5,0.5,2,1.5C369.5,155.8,366.5,158,363.6,160.1z M410.6,106.2c-0.7,0.9-1.4,1.7-1.9,2.6c-3.4,5.6-8.4,9.4-13.8,13
		c-1.7,1.1-3.4,2.2-5.5,2.5c-3.4,0.4-5.6,2.4-7.7,4.8c-0.9,1.1-1.7,2.2-2.6,3.3c-0.7,0.8-1.3,1.7-2.1,2.5c-1.7,1.6-3.8,1.8-5.6,0.9
		c-2-1.1-2.8-2.8-2.8-5c0.1-0.4,0.1-0.8,0.2-1.3c1.4-6,3.1-12.1,5.7-17.7c3.6-7.4,8.9-13.5,14.9-18.9c7.6-6.9,16-12.2,26.2-14.6
		c2.1-0.5,4-1.7,5.9-2.8c6-4,12.8-5.4,19.7-6.4c1.7-0.2,3.4-0.2,5,0.3c1.7,0.7,2.2,2,1.8,3.7c-0.4,1.7-1.6,2.6-3,3.4
		c-2.5,1.2-5,2.5-7.4,3.8c-2.1,1.1-3.9,2.5-5.4,4.4c-2.1,2.6-4.5,4.7-7.2,6.6C419.5,95.5,414.7,100.5,410.6,106.2z M449.1,100
		c-1.5,2-3,3.9-4.3,6c-0.7,1.2-1.9,1.8-3.4,2.1c-4.1,0.7-8.2,1.7-12.3,2.4c-3.4,0.7-6.6,1.7-9.6,3.5c-1.7,1-2.9,0.6-3.9-1
		c-0.7-1.1-0.8-1.7-0.8-3.6c-0.2-1.8,0.5-3.6,1.7-5c2.7-3.2,5.5-6.4,9.7-7.8c1.7-0.6,3.1-1.3,4.5-2.4c2.9-2.2,6.3-3.3,9.7-4.2
		c3.1-0.8,5.9-0.1,8.1,2.2C451.1,94.7,451.4,97,449.1,100z M511.9,189.9c-2.3,1.4-5,2.3-7.6,1.7c-4.9-1.2-9.6,0-14.3,0.7
		c-4.5,0.6-8.8,1.4-13.1,3c-0.7,0.2-1.6,0.6-2.1-0.2c-0.4-0.5-0.2-1.2,0.1-1.7c0.3-0.9,0.6-1.7,0.9-2.6c1-2.6,1.7-5.3,1.6-8.2
		c-0.1-1.6,0.4-2.6,1.8-3.4c6.1-3.1,12.5-4.6,19.3-3.3c2.3,0.4,4.5,0.9,6.9,1.4s4.3,1.7,6.4,2.9c1.9,1.2,2.6,3,2.8,5
		C514.3,187.1,513.6,188.9,511.9,189.9z M540.3,84.4c-4.9-3.2-10.6-4.5-16.4-5c-4.3-0.3-8.7-0.1-13-0.2c-1.1,0-1.8,0.3-2.2,1.3
		c-0.7,1.4-1.4,2.8-2,4.2c-0.7,1.8-0.7,3.3,1.2,4.9c3.4,2.7,3.9,6.5,2.6,10.6c-0.6,1.8-1.4,3.5-2.5,5c-1.4,2-3,4-4.5,5.9
		c-1.1,1.3-1.5,2.6-0.9,4.3c2.8,8,3.8,16.3,4.5,24.7c0.2,3.1-0.4,6.3-0.1,9.2c0.3,3,1.9,5.9,2.7,8.8c0.7,2.6,0.7,5.2-0.1,7.8
		c-0.6,1.8-1.7,3.3-3.1,4.5c-1,0.8-2.1,1.3-3.4,1.6c-3.4,0.7-5.9-1.6-8.6-3c-1.9-1-2.6-3.1-2.8-5.1c-0.3-3.2-0.2-6.5,0.4-9.7
		c0.5-2.9,1-5.8,1.5-8.8c1.4-9.2,0.8-18.3-0.4-27.4c-0.4-2.7-1.1-5.5-1.4-8.3c-0.2-2.1-1.3-3-3.2-3.4c-0.7-0.2-1.5-0.3-2.2-0.6
		c-4.3-1.7-5.8-5.8-3.6-9.9c1.1-2,2.7-3.3,4.5-4.5c1.2-0.7,2.6-0.9,3.6-2.3c-1.5-4-4.5-6.4-8.3-8.2c-0.9-0.4-1.7-0.4-2.6,0
		c-1.1,0.6-2.2,1.1-3.4,1.6c-3.6,1.7-7.4,3.1-11.3,4.4c-5.7,1.8-11.4,0.9-17-0.2c-0.7-0.2-1.4-0.7-2.1-1.1c-1.2-0.9-1.4-2.4-0.3-3.6
		c0.4-0.5,0.8-0.9,1.3-1.2c5-3.3,10.1-6.1,16.2-6.7c4-0.4,8-0.9,12.1-1.2c1.6-0.1,2.6-0.6,3.2-2.1c1.1-2.6,2.9-4.8,5.1-6.5
		c3.2-2.5,6.7-3.9,10.8-3c2.2,0.5,4.6,0.3,6.9,1.2c1,0.3,2.1,0.2,3.2,0.1c2.6-0.2,5,0.3,7.3,1.3c5.7,2.4,11.4,4.9,17.1,7.3
		c4.3,1.8,8.7,3.5,12.9,5.4c4,1.7,7.8,3.8,11.6,5.7c2.8,1.4,4,3.7,4,6.8c-0.1,2.2-2.4,3.8-4.3,2.6C549.2,88.7,544.4,87.1,540.3,84.4
		z M580.3,111.3c-0.5,1.7-1.4,3-3.5,3.3c-7.8,1.5-15.4,0.2-22.7-2.6c-2.1-0.8-4.4-1.7-6.2-3.1c-2.1-1.7-2.7-4.7-1.5-7.1
		c0.6-1.1,1.6-1.6,2.6-1.7c3.4-0.5,6.8-0.8,9.1-1.1c4.6-0.2,7.8,0.8,10.7,2.7c2.9,1.8,5.5,4,8.8,5.3c0.4,0.2,0.7,0.5,1.1,0.8
		C579.7,108.7,580.8,109.7,580.3,111.3z M601.6,114.6c-4.4-5.7-9.2-11-15.5-14.6c-1.1-0.6-1.9-1.7-2.7-2.5c-1.7-1.7-3.2-3.4-4.8-5.1
		c-0.7-0.7-1.3-1.4-1.7-2.1c-1.8-3.4,0.2-6.4,3.4-6.2c0.3,0,0.7,0,1.2,0c4.5,0.5,9,1.6,12.9,4.4c3.2,2.3,6.7,3.9,10.2,5.4
		c5.2,2.1,10.2,4.5,15.3,6.9c2.2,1.1,4.3,2.5,6.4,3.9c4.1,2.8,6.9,6.6,8.3,11.5c0.9,3,1.9,5.9,2.8,8.8c0.3,1,0.5,2.1,0.5,3.2
		c-0.1,2.7-2,4.6-4.8,4.7c-1.2,0-2.6,0-3.7-0.4c-7.3-2.4-14.3-5.1-20.3-10.1C606.3,119.9,603.7,117.4,601.6,114.6z M659.4,181.9
		c-0.4,0.3-0.9,0.2-1.2-0.2c-0.8-1.2-1.6-2.3-2.2-3.5c-4-7-9.1-12.8-15.9-17.2c-1.4-0.9-2.8-1.9-4.2-2.9c-5.1-3.8-10.9-5.8-17.2-6.4
		c-2.3-0.2-3.8-1.1-4.4-3.3c-0.3-1.2-0.8-2.3-1.2-3.6c-1-3.4,0.8-5.9,4.3-5.9c2.1,0.4,4.2,0.7,6.3,1.2c2.1,0.6,4.3,0.7,6.4,0.2
		c2.5-0.6,5-0.5,7.4-0.4c3,0.1,5.5,1.2,6.4,4.4c3.1,3.5,3.8,8,5.4,12.2c0.7,1.9,1.6,3.6,2.8,5.3c2.6,3.4,4.4,7.2,5.4,11.2
		c0.7,2.7,1.2,5.5,2.1,8.1C659.7,181.4,659.5,181.8,659.4,181.9z M671.3,236.4c-0.4-3.9-1.1-7.7-1.1-11.6c0-3.7-1.2-7.3-2.8-10.7
		c-0.8-1.7-1.1-3.6-0.9-5.5c0.3-2.6,2.6-3.9,5.1-2.7c1.7,0.7,2.9,1.9,3.9,3.3c2.8,4,5.4,7.9,7.3,12.4c1.7,4,2.6,8.3,2.2,12.1
		c0.1,3.8,0.2,7.1-1.7,10c-0.5,0.7-1,1.6-1.8,2.1c-2.2,1.5-3.9,1.3-5.9-0.4C672.7,243,671.6,239.8,671.3,236.4z"/>
	<path class="st4" d="M682.2,558.5c0.1,0.2,0.1,0.4,0.1,0.7c0.1-0.1,0.2-0.2,0.3-0.3c3-3.1,7.3-2.4,9.2,1.6c1,2.1,1.2,4.5,0.9,6.9
		c0.2,10.4-1.2,20.6-3.6,30.7c2.3,3.9,4,8.1,5,12.6c0.4,1.9,0.6,3.9,0.7,5.8c0.7-0.7,1.6-1.5,2.3-2.3l0.6-0.6l0.6-0.5l1.2-1.1
		c0.7-0.7,1.6-1.4,2.3-2.1l2.4-2l1.2-1c0.4-0.3,0.8-0.7,1.2-1l2.5-1.9l0.7-0.5l0.7-0.5l1.2-0.9l2.6-1.8l2.6-1.7
		c5.1-3.3,10.5-6.2,16-8.8l0,0c0.8-4.9,1.4-9.8,1.6-14.8c0.2-5.1,0.3-10.2,0.5-15.4c0.2-4.7-0.2-9.3-1.1-13.9c-0.7-4-1-8,0.6-11.9
		c0.6-1.4,0.5-2.7,0.1-4.1c-0.9-2.8-1.8-5.6-2.6-8.4c-0.6-2.1-1.2-4.2-1.7-6.3c-0.4-2.4,1.1-3.4,3.4-2.6c1.1,0.4,1.8,1.2,2.6,1.9
		c3.2,3.2,5.9,6.8,8.3,10.7c6.4,10.2,11.9,20.7,16.4,31.8c2.9,7.1,4.9,14.5,6.2,22c4.2-0.9,8.4-1.7,12.7-2.3
		c-2.6-14.2-7.1-27.7-12.8-41c-3.7-8.7-7-17.6-10.2-26.6c-1.2-3.6-2.7-6.9-4.2-10.3c-3.6-8.1-7.4-16.1-10.7-24.3
		c-1.9-4.5-4.4-8.5-7.8-12c-1.2-1.2-2.1-2.7-4.1-3.5c-1.1,3.1-2.1,6.2-3.1,9.2c-4.1,12.6-10.1,24.4-17.6,35.3
		c-8.7,12.6-19.2,23.5-31.8,32.5c-2.6,1.9-5.1,3.8-7.7,5.8C676.2,545.1,680.8,550.7,682.2,558.5z M695.9,533.7
		c0.6-1.7,2.7-1.9,4.1-2.7c5.9-3.6,9.6-9.2,12.9-14.9c0.7-1.3,1.5-2.7,2.2-4c0.1-0.2,0.5-0.3,0.7-0.3c0.2,0.1,0.6,0.4,0.6,0.6
		c0,2.8,0,5.6,0,8.3c-0.2,5.1,0.5,10.2,1.9,15.1c1.2,4.3,1.7,8.8,2.2,13.2c0.3,3.1,0.2,6.2-0.3,9.2c-0.7,3.9-2.5,7.3-5.5,10
		c-2.4,2.1-5.2,2.6-8.2,1.3c-1.7-0.7-2.8-1.9-2.7-3.9c0-1.1,0-2.1,0-3.2c-0.2-8.3-2.2-16.2-5.8-23.7
		C697.4,536.8,695.2,535.6,695.9,533.7z"/>
	<path class="st4" d="M679.1,510.9c6.9-8,13-16.7,17.8-26.1c4.2-8.1,6.5-16.8,7.4-25.8c0.8-8.3,0.9-16.8,1-25.1
		c0-2.8-0.6-5.1-2.3-7.3c-4-5.2-7.1-10.9-9.2-17.2c-0.3-1-0.4-2.1-1.4-2.7c-0.2,0.2-0.7,0.3-0.7,0.6c-1.3,3.1-2.9,6.2-5,8.9
		c-0.8,1.1-0.7,2.3-0.7,3.6c-0.1,4-0.1,8.1-0.4,12.1c-0.4,5-1.2,9.9-4.8,13.8c-0.8,0.9-0.7,1.9-0.4,3.1c1.2,3.4,2,6.9,2.6,10.4
		c1.3,8.3,0.2,16.4-1.6,24.5c-3.3,15.4-10.4,28.8-21.1,40.3c0.7,0.5,1.3,0.3,2-0.1c2-1.2,3.9-2.6,5.9-3.7
		C672.2,517.7,675.9,514.6,679.1,510.9z"/>
	<path class="st4" d="M374.5,539.6l0.1-0.2L374.5,539.6L374.5,539.6z"/>
	<path class="st4" d="M906.7,642.6c-2.4-4.7-5.3-9.2-8.7-13.4c-3.4-4.1-7.2-7.8-11.3-11.1s-8.7-6.1-13.4-8.4l0,0l-7-3.1
		c-0.7-0.7-1.5-1.3-2.2-2c-1.7-1.5-3.6-2.9-5.6-4c-8.3-4.6-17.6-7.3-26.9-8.8c-4.7-0.7-9.4-1.2-14.1-1.6c-3.1-0.2-6.3,0-9.3-0.5
		c-3.4-0.5-6.5-2.1-10-2.3c-1.3-0.1-2.6,0-4,0.2c-10.8,1.2-21.7,2.7-32.1,5.9c-5.3,1.6-10.4,3.6-15.3,6c-4.7,2.4-8.9,5.8-13.8,7.7
		c-1.2,0.5-2.4,1-3.6,1.5c-25,10.7-47.4,31.9-56.2,58.1l0,0c2.3-0.5,5,0.4,6.8-1.1c0.7-0.6,1.2-1.5,1.6-2.3c4-8.7,8-17.8,14.8-24.4
		c8.3-8.3,21.6-11.6,31.4-4v-0.1c0.1,0.1,0.1,0.2,0.2,0.2c0.6,0.5,1.2,0.9,1.7,1.5l0.1,0.1c0.2,0.2,0.3,0.3,0.6,0.5
		c0.7,0.6,1.2,1.2,1.7,2c0.1,0.2,0.2,0.2,0.3,0.4c-0.8,0-1.7,0-2.5,0.2c-1.8,0.2-3.6,0.7-5.3,1.2c-3.4,1.2-6.5,3.1-9.5,5.1
		c-0.7,0.5-1.5,1-2.2,1.6l-1.1,0.8l-2,1.5l-1.1,0.7c0,0,1.1-0.2,1.2-0.3c5.2-1.4,10.4-1.4,15.3,0.9c0.4,0.2,0.8,0.4,1.2,0.6
		c0.4,0.2,0.7,0.4,1.2,0.7c0.7,0.5,1.4,1.1,2.1,1.6c1.3,1.2,2.5,2.5,3.6,3.9c1.2,1.6,2.1,3.3,3,5l0,0c-0.2,0.5-0.2,1-0.4,1.5
		c-0.1,0.3-0.2,0.6-0.2,0.9c0,0.1,0,0.1,0,0.2c-0.1,0.6-0.2,1.2-0.2,1.7c0,0.2,0,0.2,0,0.4s0.1,0.2,0.1,0.4c0.1,0.2,0.1,0.5,0.2,0.7
		c0-0.1,0-0.1,0-0.2c0,0.1,0,0.1,0,0.2v0.1v-0.1c0.2,0.9,0.4,1.9,0.6,2.8c0.2,1.2,0.5,2.2,0.7,3.4c1.4,2.3,2.8,4.6,3.7,7.3
		c0.1,0.2,0.2,0.5,0.2,0.7c0,0.1,0,0.2,0.1,0.2c0.1,0.2,0.2,0.5,0.2,0.7c0,0,0,0,0,0.1c0.1,0.2,0.1,0.5,0.2,0.7c0,0.1,0,0.2,0.1,0.2
		c0.1,0.2,0.1,0.4,0.1,0.7c0,0.1,0,0.1,0,0.2c0,0.2,0.1,0.5,0.1,0.7c0,0.1,0,0.2,0,0.2c0,0.2,0,0.3,0.1,0.6c0,0.1,0,0.2,0,0.3
		c0,0.2,0,0.3,0.1,0.6c0,0.2,0,0.2,0,0.4c0,0.1,0,0.2,0,0.3c0,0.2,0,0.5,0,0.8c0,0.1,0,0.1,0,0.2c0,0.2,0,0.3,0,0.6c0,0,0,0,0,0.1
		c0,0.4,0,0.7,0,1.2c0.2,0.2,0.3,0.4,0.4,0.6c0.7,0.9,1.5,1.8,2.2,2.7c0.4,0.4,0.7,0.7,1.2,1.2c3.2,2.8,6.5,5.4,10.7,6.3
		c6.6,1.5,13.5-0.7,20.2-0.1c1.3,0.1,2.6,0.3,3.9-0.2c2.3-1,3.8-4.6,5-6.8c1.8-3.1,3.4-6.5,4.7-10c2.5-6.5,4-13.5,4.5-20.4
		c0.8-11-1.2-22.1-5.5-32.2c-2.2-5-5-9.8-8.2-14.3s-6.9-8.6-11-12.3c-0.5-0.5-1-0.9-1.6-1.4l-2.6-2.3l-0.1-0.1c0,0-0.1,0,0,0h0.2
		l0.2,0.1l0.5,0.1l1,0.2l1.5,0.3l0.5,0.1l0.5,0.2l1,0.3c2.6,0.8,5.3,1.9,7.8,3.1c22.9,12,32.8,36.1,34.2,60.5c0,0.2,0,0.3,0,0.5
		c0,0.7,0.1,1.5,0,2.2c0,0.7,0,1.4-0.1,2.1s-0.1,1.3-0.2,1.9c0,0.1,0,0.2,0,0.2c-0.1,0.4-0.2,0.9-0.2,1.3c-0.1,0.3-0.2,0.9-0.2,1.2
		s-0.1,0.6-0.1,0.9c-0.6,4-2,8.1-3.3,12c-1.4,4.1-3.7,8.2-2.1,12.6c3.6,9.2,11.8,12.1,20.7,13.5c1.2,0.2,2.4,0.3,3.6,0.5
		c1.5,0.2,3,0.4,4.5,0.5c1.7,0.2,3.5,0.3,5.2,0.6c0.3,0,0.7,0.1,1,0.1s0.6,0.1,0.9,0.1c0.6,0,1.2,0,1.8,0c0-0.1,0-0.2,0-0.2
		c0.7-3.5,2.6-6.5,4.2-9.7c7.5-14.6,10.5-32.2,8.1-48.9c-2.2-15.5-10.9-29.9-21.8-40.9c-1-1.1-2.2-2.5-2-4c3.8,1,7.9,4.2,11.3,6.3
		c4.1,2.6,8.2,5.3,11.9,8.4c6.8,5.6,13.1,13,14.5,22c2.6,17.3,7.4,18.3,5.1,35.6c-0.6,4.6-3.4,8.8-4.3,13.4
		c-1.3,6.4-1.7,12.5-4.1,18.6c-0.2,0.4-0.4,0.7-0.5,1.2s-0.3,3.6-1.2,3.4c3.1,1.1,18.1,4,18.8-1.4l0.4-3l3.7-20.7
		c3.6-20.5,4.1-40.8-5.1-60c-2-4-5.5-11.8-8-14.2c0.3,0.2,0.7,0.6,0.9,0.9c5,4.8,9.8,9.3,13.6,15.4c4.4,6.9,8.2,14.8,11.1,22.5
		c0.2,0.6,0.4,1.2,0.7,1.9c0.8,2.5,1.5,5,2,7.6c1.1,5.1,1.6,10.2,1.7,15.4c-0.1,5.1-0.7,10.2-1.8,15.3c-0.3,1.5-0.7,3.1-1.2,4.5
		c0.5-0.1,0.9-0.2,1.3-0.4c1.3-0.5,2.4-1.4,3.3-2.4c0.9-1,1.7-2.1,2.3-3.3c0.7-1.2,1.2-2.4,1.6-3.7c0.2-0.7,0.4-1.3,0.6-1.9
		C916.4,677.7,914.8,658.7,906.7,642.6z M739.2,603.8L739.2,603.8c0.1-0.1,0.2-0.1,0.2-0.2C739.3,603.7,739.2,603.8,739.2,603.8z"/>
	<path class="st4" d="M256.8,608.6c-1.2-0.5-2.3-1-3.6-1.5c-5-1.9-9.1-5.4-13.8-7.7c-4.9-2.5-10.1-4.5-15.3-6
		c-10.5-3.1-21.3-4.8-32.1-5.9c-1.3-0.2-2.6-0.2-4-0.2c-3.4,0.2-6.6,1.7-10,2.3c-3.1,0.5-6.2,0.3-9.3,0.5c-4.7,0.2-9.5,0.7-14.1,1.6
		c-9.3,1.6-18.7,4.1-26.9,8.8c-2.1,1.2-3.9,2.6-5.6,4c-0.7,0.7-1.5,1.3-2.2,2l-7,3.1l0,0c-4.7,2.3-9.2,5.2-13.4,8.4
		c-4.1,3.3-7.9,7.1-11.3,11.1c-3.4,4.1-6.3,8.6-8.7,13.4c-8.1,16.1-9.7,35.1-5,52.4c0.2,0.7,0.3,1.3,0.6,1.9
		c0.4,1.2,0.9,2.5,1.6,3.7s1.4,2.3,2.3,3.3s2,1.9,3.3,2.4c0.4,0.2,0.9,0.3,1.3,0.4c-0.5-1.5-0.9-3-1.2-4.5c-1.2-5-1.7-10.1-1.8-15.3
		c0.1-5.1,0.6-10.3,1.7-15.4c0.5-2.6,1.2-5,2-7.6c0.2-0.7,0.4-1.2,0.7-1.9c2.9-7.7,6.8-15.5,11.1-22.5c3.8-5.9,8.5-10.5,13.6-15.4
		c0.3-0.3,0.7-0.6,0.9-0.9c-2.6,2.4-6,10.2-8,14.2c-9.2,19.1-8.7,39.5-5.1,60l3.7,20.7l0.4,3c0.7,5.4,15.7,2.5,18.8,1.4
		c-0.8,0.2-1.1-3-1.2-3.4s-0.3-0.7-0.5-1.2c-2.4-6.2-2.8-12.1-4.1-18.6c-0.9-4.6-3.7-8.8-4.3-13.4c-2.3-17.3,2.5-18.3,5.1-35.6
		c1.4-9,7.8-16.3,14.5-22c3.7-3.1,7.8-5.9,11.9-8.4c3.4-2.1,7.5-5.3,11.3-6.3c0.2,1.5-1,2.9-2,4c-10.8,11-19.6,25.4-21.8,40.9
		c-2.4,16.7,0.6,34.2,8.1,48.9c1.6,3.1,3.5,6.2,4.2,9.7c0,0.1,0,0.2,0,0.2c0.6,0,1.2,0,1.8,0c0.3,0,0.6-0.1,0.9-0.1
		c0.3,0,0.7-0.1,1-0.1c1.7-0.2,3.5-0.4,5.2-0.6c1.5-0.1,3-0.3,4.5-0.5c1.2-0.2,2.4-0.3,3.6-0.5c8.9-1.4,17.1-4.3,20.7-13.5
		c1.7-4.4-0.7-8.3-2.1-12.6c-1.3-3.9-2.7-7.9-3.3-12c-0.1-0.3-0.1-0.6-0.1-0.9c-0.1-0.3-0.2-0.9-0.2-1.2c-0.1-0.4-0.2-0.9-0.2-1.3
		c0-0.1,0-0.2,0-0.2c-0.1-0.7-0.1-1.2-0.2-1.9s-0.1-1.4-0.1-2.1c0-0.7,0-1.5,0-2.2c0-0.2,0-0.3,0-0.5c1.5-24.4,11.3-48.6,34.2-60.5
		c2.5-1.2,5-2.3,7.8-3.1l1-0.3l0.5-0.2l0.5-0.1l1.5-0.3l1-0.2l0.5-0.1l0.2-0.1h0.2l0,0l-0.1,0.1l-2.6,2.3c-0.5,0.4-1.1,0.9-1.6,1.4
		c-4,3.7-7.8,7.8-11,12.3s-5.9,9.2-8.2,14.3c-4.4,10.1-6.4,21.2-5.5,32.2c0.5,6.9,2,13.9,4.5,20.4c1.3,3.5,2.8,6.8,4.7,10
		c1.2,2.1,2.6,5.8,5,6.8c1.2,0.5,2.6,0.3,3.9,0.2c6.8-0.6,13.6,1.6,20.2,0.1c4.2-1,7.5-3.6,10.7-6.3c0.4-0.4,0.7-0.7,1.2-1.2
		c0.7-0.9,1.5-1.8,2.2-2.7c0.2-0.2,0.3-0.4,0.4-0.6c0-0.4,0-0.7,0-1.2c0,0,0,0,0-0.1c0-0.2,0-0.3,0-0.6c0-0.1,0-0.1,0-0.2
		c0-0.2,0-0.5,0-0.8c0-0.1,0-0.2,0-0.3c0-0.2,0-0.2,0-0.4s0-0.3,0.1-0.6c0-0.1,0-0.2,0-0.3c0-0.2,0-0.3,0.1-0.6c0-0.1,0-0.2,0-0.2
		c0-0.2,0.1-0.5,0.1-0.7c0-0.1,0-0.1,0-0.2c0-0.2,0.1-0.4,0.1-0.7c0-0.1,0-0.2,0.1-0.2c0.1-0.2,0.1-0.5,0.2-0.7c0,0,0,0,0-0.1
		c0.1-0.2,0.1-0.5,0.2-0.7c0-0.1,0-0.2,0.1-0.2c0.1-0.2,0.2-0.5,0.2-0.7c0.9-2.6,2.4-4.9,3.7-7.3c0.2-1.2,0.5-2.2,0.7-3.4
		c0.2-0.9,0.4-1.9,0.6-2.8v0.1v-0.1c0-0.1,0-0.1,0-0.2c0,0.1,0,0.1,0,0.2c0.1-0.2,0.1-0.5,0.2-0.7c0-0.2,0.1-0.2,0.1-0.4
		s0-0.2,0-0.4c-0.1-0.6-0.2-1.2-0.2-1.7c0-0.1,0-0.1,0-0.2c-0.1-0.3-0.2-0.6-0.2-0.9c-0.2-0.5-0.2-1-0.4-1.5l0,0
		c0.8-1.7,1.8-3.5,3-5c1.1-1.4,2.2-2.7,3.6-3.9c0.7-0.6,1.4-1.2,2.1-1.6c0.3-0.2,0.7-0.5,1.2-0.7c0.4-0.2,0.7-0.4,1.2-0.6
		c5-2.3,10.2-2.3,15.3-0.9c0.1,0,1.2,0.3,1.2,0.3l-1.1-0.7l-2-1.5l-1.1-0.8c-0.7-0.5-1.5-1.1-2.2-1.6c-3-2.1-6-3.9-9.5-5.1
		c-1.7-0.6-3.5-1.1-5.3-1.2c-0.8-0.1-1.7-0.2-2.5-0.2c0.1-0.2,0.2-0.2,0.3-0.4c0.5-0.7,1.2-1.3,1.7-2c0.2-0.2,0.3-0.3,0.6-0.5
		l0.1-0.1c0.5-0.5,1.1-1,1.7-1.5c0.1-0.1,0.1-0.2,0.2-0.2v0.1c9.9-7.6,23-4.3,31.4,4c6.8,6.8,10.7,15.8,14.8,24.4
		c0.4,0.8,0.8,1.7,1.6,2.3c1.8,1.5,4.5,0.6,6.8,1.1l0,0C304.3,640.4,281.8,619.3,256.8,608.6z M246.7,603.7c0.1,0,0.1,0.1,0.2,0.1
		l0,0C246.8,603.8,246.8,603.7,246.7,603.7z"/>
</g>
</svg>
