<?xml version="1.0" encoding="utf-8"?>
<!-- Generator: Adobe Illustrator 24.0.1, SVG Export Plug-In . SVG Version: 6.00 Build 0)  -->
<svg version="1.1" id="Layer_1" xmlns="http://www.w3.org/2000/svg" xmlns:xlink="http://www.w3.org/1999/xlink" x="0px" y="0px"
	 viewBox="0 0 990 781.2" style="enable-background:new 0 0 990 781.2;" xml:space="preserve">
<style type="text/css">
	.st0{fill:#E2706A;}
	.st1{fill:#D69B61;}
	.st2{fill:#995818;}
	.st3{fill:#B24204;}
	.st4{fill:#FFFFFF;}
	.st5{fill:#525358;}
</style>
<g>
	<path d="M214.6,729.2c-0.8,0.8-0.8,1.5-0.8,2.2c-0.5,4.7-2.7,8.6-5.7,12.2c-1.2,1.5-2.9,2-4.7,1.6c-6-1.5-11.4-4.1-15.7-8.7
		c-4.5-4.8-8.8-9.8-12.2-15.4c-0.9-1.5-2-2.7-3.5-3.5c-7.2-3.9-12.2-9.9-16.7-16.6c-1.6-2.5-2.8-5.2-3.9-7.9
		c-4.1-10.3-4.8-20.9-3.4-31.8c0.8-6.5,2.1-12.9,4.5-19.1c1.9-5.2,4.8-9.7,8.6-13.7c1.8-1.9,3.7-3.8,5.7-5.5
		c7.2-5.7,14.3-11.6,21.8-16.9c15.2-10.7,32.1-16.4,50.5-17.7c1.2-0.1,2.1-0.5,2.7-1.6c2.2-3.8,4.8-7.4,7.4-10.9
		c3.8-5.4,7.3-10.9,10.6-16.5c4-6.7,8-13.5,12.1-20.2c4.5-7.1,8-14.8,11.6-22.3c0.7-1.6,0.6-3.1,0.3-4.7c-1.3-7.1-2.7-14.3-3.8-21.5
		c-3.7-24.6-2.2-48.8,7-72.2c0.7-1.7,0.4-3.1-0.6-4.5c-1.8-2.3-3.4-4.7-5.1-7c-5.7-7.6-8.6-16.3-9.8-25.7
		c-1.8-14.3-0.4-28.4,2.7-42.4c0.7-3.2,1.4-6.4,2.1-9.6c0.4-2,0.3-2.2-1.6-2.6c-1.4-0.3-2.8-0.6-4.2-1c-8.1-2.3-14.4-7.1-18.5-14.5
		c-4.1-7.3-6.9-15.1-8.3-23.4c-0.5-3.3-1.6-6.5-3.3-9.4c-7.9-13.5-15.5-27-24.8-39.6c-1.9-2.6-3.6-5.5-5-8.5
		c-3.6-7.5-7-15.1-10-22.8c-5.5-14.6-6.8-29.5-2.9-44.7c3.2-12.6,6.8-25.1,11.8-37.2c2.5-6,5.7-11.6,9.6-16.8
		c7.1-9.4,16.3-15.7,28-17.5c13.1-2.1,25.6-6.1,38.3-9.7c5.9-1.7,11.9-3.1,17.8-4.9c11.8-3.6,22.7-8.9,33.2-15.4
		c6-3.7,12.2-6.9,18.8-9.5c7.1-2.8,14.4-4.3,22-4.1c16.1,0.5,32.1,0.9,48.2,1.4c2.3,0.1,4.6,0.4,6.9,0.7c3.1,0.4,6,0.2,9-0.6
		c7.3-2.1,14.6-4,22.2-5.1c6.7-1,13.2-0.5,19.6,1.8c2.5,0.9,5.1,1.9,7.6,2.9c2.3,1,4.6,1,7,0.2c12-4,24.2-7.2,36.4-10.4
		c11.4-3,22.8-2.6,34.2,0.2c11.7,2.9,22.5,7.6,32.5,14.3c2.8,1.9,5.8,3.4,8.8,4.9c1.9,1,3.8,1.1,5.8,0.6c6.8-1.7,13.7-2.4,20.7-2.2
		c4.4,0.1,8.7,0.7,13,1.9c8.7,2.6,17.3,5.6,25.6,9.5c11.1,5.2,22.5,9.5,34.1,13.4c7.8,2.7,15.9,4.1,24.1,4.8
		c9.9,0.9,19.3,3.6,28,8.4c9.3,5.2,16.6,12.4,22.2,21.4c6,9.7,10.2,20.2,13.4,31.2c2.2,7.6,4.1,15.3,4.5,23.2
		c0.3,5.1,0,10.1-0.8,15.1c-1.4,8.5-2.9,17-4.6,25.5c-1.8,9.4-5,18.3-7.7,27.5c-2.6,8.7-5.3,17.3-6.7,26.2
		c-0.8,5.1-1.5,10.3-1.7,15.5c-0.2,6.5-1.5,12.7-4.1,18.6c-1.3,3-2.4,6.1-3.6,9.1c-1,2.5-2.3,4.9-3.8,7.2c-3.5,5.3-8.5,7.9-14.6,8.5
		c-9.5,0.9-17.1-3.1-23.6-9.7c-0.6-0.7-1-2-2.1-1.7c-1,0.2-0.8,1.6-1,2.5c-1.8,7.2-2.3,14.7-3.4,22c-0.5,3.6-1.1,7.1-1.7,10.7
		c-0.4,2.2-0.5,4.4,0.1,6.6c4.1,15.9,9.2,31.4,15.3,46.7c5.7,14.3,12,28.4,17.3,42.9c1.7,4.7,3.3,9.5,4.6,14.4
		c0.6,2.3,1.6,4.3,3,6.2c0.7,0.9,1.3,1.8,2,2.7c5.3,6.5,8.3,13.9,9.8,22.1c1.2,6.8,1.9,13.6,2.4,20.5c1.6,22.7,6.5,44.6,15.5,65.5
		c4.7,11,9.4,22.1,13.8,33.2c0.6,1.6,1.5,2.7,2.9,3.6c1.6,1,3.1,2.2,4.8,3.2c4.2,2.6,7.5,6,10.4,10.1c4.1,6,8.3,11.9,11.8,18.4
		c1,1.8,1.9,3.7,2.8,5.6c3.5,6.7,4.1,13.8,2.7,21.2c-1.6,8.7-4.1,17.1-7.3,25.3c-1,2.7-2.8,5-4.5,7.4c-3.8,5.4-8,10.4-13.9,13.7
		c-2.4,1.4-4.4,3.2-5.8,5.6c-3.2,5.4-7.4,10-11.7,14.6c-4.1,4.4-9.3,7-15,8.5c-2.8,0.7-4.4,0-5.9-2.4c-0.3-0.4-0.5-0.8-0.8-1.2
		c-2.4-2.5-3.3-5.6-4-8.8c-0.2-1.1-0.4-2.2-0.6-3.3c-1.1,0.2-1.6,1-2.2,1.5c-1.8,1.6-3.4,3.3-5.2,4.9c-1.2,1.1-2.5,2.1-3.8,2.9
		c-3.9,2.6-8,1.7-10.3-2.5c-1.9-3.5-3-7.4-3.2-11.4c-0.1-1-0.1-1.9,0-2.9c0.6-3-0.9-4.9-3.4-6.1c-1.4-0.7-2.7-1.4-4.1-2
		c-4.1-1.8-6.6-4.9-7.9-9.1c-0.9-2.7-1.5-2.8-3.4-0.8c-2,2-3.1,4.4-3.9,7.1c-1.9,6.3-5.4,11.5-10.5,15.7c-4.2,3.5-9.8,1.6-12-2.1
		c-1.6-2.7-2.9-5.5-3.3-8.7c-0.1-0.8-0.3-1.6-0.3-2.4c0-2.2-1.2-3.7-2.9-4.6c-5.2-2.8-9.1-6.9-13.3-10.9c-1.6-1.6-3.1-3.3-3.9-5.4
		c-0.4-0.9-0.9-1.3-1.8-1.2c-0.6,0-1.3,0-1.9,0c-120.7,0-241.4,0-362.1,0c-0.6,0-1.1,0-1.7,0c-1-0.1-1.8,0.2-2.2,1.3
		c-0.8,2.1-2.3,3.8-4,5.4c-1.6,1.5-3.1,3-4.7,4.5c-2.2,2.1-4.5,4.1-7.3,5.4c-2.8,1.3-4.2,3.4-4.4,6.5c-0.2,3.2-1.2,6.3-2.8,9.1
		c-0.6,1-1.3,2-2.2,2.8c-2.8,2.5-6.7,2.7-9.7,0.5c-5.4-3.9-9-9.2-11.1-15.6c-0.8-2.5-1.6-5-3.5-7c-0.3-0.3-0.5-0.6-0.8-0.9
		c-1.7-1.6-2.4-1.4-3,0.8c-1.4,4.5-4.1,7.7-8.4,9.5c-1.8,0.8-3.5,1.6-5.1,2.7c-1.6,1.1-2.4,2.4-2.1,4.4c0.7,4.6-0.6,8.9-2.1,13.1
		c-0.5,1.5-1.3,2.9-2.5,4c-2.4,2.3-5.3,2.6-8.1,0.9c-2.2-1.3-4.2-3-6-4.8C218.2,732.7,216.4,731,214.6,729.2z"/>
</g>
<g>
	<path class="st0" d="M526.3,460.2c1.4-2.5,3-4.9,4.8-7.2c0.5-0.5,1-1,0.7-1.6c-0.7-1.6-1.2-3.3-2.9-4.2c-3.9-2.3-7.9-4.1-12.2-5.5
		c-2.7-0.8-5.4-1.6-8-2.5c-4.1-1.3-8.1-3.1-11.8-5.3c-0.6-0.4-1.1-1.3-2-1c-0.2,0.1-0.5,0.4-0.7,0.9c-0.4,0.8-0.6,1.8-0.5,2.4
		s0.4,1.2,0.6,1.8c1.5,4.3,0.6,9-2.4,12.4c-0.2,0.3-0.5,0.5-0.7,0.8c-3.2,3.4-7.2,3-10.3-0.9c-1.7-2.3-2.6-5-2.7-7.8
		c-0.1-1.6-0.4-3.2-1-4.7c-0.8-1.8-1-1.8-2.8-1c-5.4,2.4-10.7,5.1-16.7,5.7c-0.7,0.1-1.4,0.4-2,0.8c-0.2,0.1-0.4,0.3-0.6,0.5
		c-0.7,0.7-1.5,1.3-2.3,1.8c-2.3,1.6-4.8,2.7-7.5,3.3c-0.6,0.2-1.2,0.5-1.7,0.8c-0.5,0.4-1,0.9-1.5,1.4c-0.6,0.6-0.4,1,0,1.5
		c2.3,3.1,4.3,6.4,6.2,9.7c1,1.8,2.5,3.2,4.4,3.9c3.1,1.3,6.4,2,9.8,1.9c5-0.2,10.1-0.5,15.1-0.4c4.4,0.1,8.9,0.2,14.5,0.2
		c5.8,0.4,11.7,0.2,17.5-0.7c3.9-0.5,7.8-1.6,11.5-3c0.4-0.2,0.9-0.4,1.3-0.6C524,462.9,525.4,461.7,526.3,460.2z"/>
</g>
<g>
	<path class="st1" d="M295.8,389.7c0.6,0.8,1,1.7,1.5,2.5c3.3,6.6,7.5,12.6,11.3,18.9c0.3,0.4,0.4,1.1,1.3,0.9
		c0.1-1.6-0.1-3.3,0.5-4.7c0.1-0.4,0.3-0.8,0.4-1.3c0-0.9,0-1.9,0-2.9c0.1-1.7,0.2-3.3,0.4-4.9c0-3.3-0.3-6.6-0.6-9.9
		c-0.1-1.5-0.1-3,0.2-4.5c0.3-1,0.9-1.9,1.9-1.9c0.6,0,1,0.2,1.2,0.6c1.5-3.1,2.7-6.3,3.9-9.7l0.6-1.6c0-0.1,0-0.1,0.1-0.1
		c0.2-0.5,0.3-1,0.3-1.8c-0.1-3.1-0.5-6.2-1.1-9.4c-1.3-6-1.7-11.8-1.1-17.6c0.3-2.7,0.8-5.6,1.4-8.6c0.2-0.8,0.8-1.5,1.5-1.8
		c-0.2-0.7-0.3-1.4-0.5-2.1c-0.6-2.8-0.4-5.7,0.7-8.3c1.8-4.2,4.1-8.3,6.9-12c0.4-0.4,0.8-0.8,1.2-1.2c1.3-1.1,1.8-0.8,2.1,0.8
		c0.1,0.3-0.1,0.7,0.2,0.9c1.2,0.8,0.7,1.9,0.5,3c-1.1,6.9-0.3,13.4,4.5,18.9c2.3,2.6,4.2,5.7,5.4,9c1.3,3.5,2.7,6.9,4.4,10.3
		c0.8-4.4,1.8-8.5,2.9-12.4c1.5-4.8,3-9.1,4.7-13.1c1.5-3.5,3-7.1,4.6-10.5c-2.6-0.1-5.1-0.7-7.4-1.8c-0.9-0.5-1.9-0.8-2.9-1
		c-3.2-0.5-6.1-2.2-8.1-4.7c-2.2-2.5-3.9-5.3-5.3-8.3c-1.3-2.6-1.8-5.5-1.8-7.3c0.4-2.3,0.7-4.6,1.1-6.9c0.9-5.4-1.1-9.6-4.9-13.1
		c-0.6-0.6-1.3-1.3-2-2c-1.6-1.8-2.9-3.6-2.8-6.2c-0.1-1.2-0.7-2.4-1.7-3.1c-1.3-1.1-2.6-2.1-4-3c-3.5-2.4-5.6-6.4-5.7-10.6
		c-0.1-2.7,0.4-5.4,1.6-7.9c1.1-2.3,2.4-4.5,4-6.5c0.4-0.5,1.1-1,0.8-1.7c-0.8-2,0-3.9,0-5.9c0.2-9.2,3.8-17,9.1-24.3
		c0.2-0.3,0.4-0.6,0.6-0.8c0.7-0.7,0.6-1.3-0.2-2c-5.3-4.9-7.4-11.4-8.1-18.4c0-0.6-0.1-1.2-0.2-2.1c-0.6,0.8-0.9,1.7-1,2.7
		c-1.4,6.4-2.4,12.9-3,19.4c-1.2,11.1-2.6,22.2-5.3,33.1c-1.7,7.2-3.6,14.3-5.5,21.4c-2,7.7-4.1,15.5-6.1,23.2
		c-0.3,0.8-0.8,1.7-0.2,2.5c2.1,3,1.9,6.4,1.9,9.7c-0.1,2-0.1,3.9,0.1,5.8c0.7,5.5,1,11,0.7,16.5c-0.2,5.4-1.3,10.8-3.2,15.9
		c-1.5,3.8-3,7.6-4.3,11.5c-1.9,5.4-2.9,11-3,16.7c-0.1,7.2,0.4,14.4,1.5,21.6C292.4,381.8,293.4,386,295.8,389.7z M305,346.3
		c0.3-2.2,2-4,4.2-4.3c2.1-0.3,4,0.9,4.8,2.8c1.2,2.8,1.3,5.7,1.3,8.7c0.1,4.6-1.3,9-1.8,13.5c-0.2,1.5-1,2.3-2.1,2.3
		c-1.3,0-1.9-0.8-2.3-1.8c-1-2.5-1.7-5.1-2.2-7.8c-0.6-3.3-1.2-6.7-1.8-10.1C304.9,348.5,304.9,347.4,305,346.3z"/>
	<path class="st1" d="M643.5,185.3c7.8,0.4,13.9,3.7,17.5,11c2.8,5.7,3.3,11.3-0.3,16.8c-0.5,0.8-0.6,1.7-0.3,2.5
		c1.2,4.1,2.2,8.2,2.8,12.4c0.6,3.6,1.9,6.9,4,9.9c1,1.2,1.8,2.5,2.4,3.9c0.8,2,2.1,3.7,3.8,4.9c3.4,2.8,6.1,6.3,8,10.3
		c0.3,0.6,0.6,1.2,0.9,1.7c3.4,5.2,3.9,10.9,2.6,16.8c-0.2,0.8-0.2,1.6,0,2.4c1.6,4.9,2,9.9,2.5,14.9c0.2,2.5-0.1,5.1,0.5,7.6
		c1.8,7.8,2.6,15.8,2.3,23.8c-0.1,5.3-0.3,10.5-0.5,15.8c-0.3,4.9,0.4,9.9,2,14.6c1.5,4.5,3.2,8.9,4.9,13.3c0.2,0.5,0.2,1.2,0.9,1.5
		c0.5-1.6,1-3.1,1.5-4.6c1.7-5,3.1-10.1,4.2-15.3c0.9-4.4,2-8.7,3.4-13c0.9-2.4,1.5-4.8,2-7.2c1.5-10.2,2.2-20.5,2.1-30.8
		c0-1-0.2-2.1-0.7-3c-3.4-6.4-4.9-13.6-7.6-20.2c-0.2-0.6-0.4-1.3-0.5-1.9c-1.3-5.2-1.7-10.6-1.3-16c0.3-1.8-0.5-3.6-1.9-4.6
		c-2.7-2.1-4.7-4.9-5.7-8.1c-1.3-3.8-2-7.8-2-11.8c0-1,0-1.9-0.1-2.9c-0.3-4.3-1.1-8.4-4.5-11.5c-0.5-0.4-0.7-0.9-0.7-1.5
		c0-1.2-0.4-2.4-1-3.4c-0.6-1.2-1-2.4-1.4-3.7c-0.9,0-1.8-0.4-2.3-1.2l-0.9-1.6c-1.5-2.6-3-5.2-3.7-6.2c-2-2.6-2.8-5.5-3.5-8.1
		c-1-3.2-1.7-6.4-2-9.9v-0.1c-0.1-2.5,0.3-5.1,1.2-7.7c0.4-1.3,0.8-2.8,1.4-4.4c1.1-2.7,1.6-5.6,1.6-8.8c-0.1-2.6-0.1-5.1-0.1-7.7
		c0-0.4,0.1-0.7,0.2-1c-1.2-0.8-2.3-1.6-3.4-2.4c-3.5-2.3-6.7-4.9-9.8-7.7c-0.7-0.7-1.4-1.3-2.2-1.9c-4.6-3.3-8.8-7-12.6-11.1
		c-2.3-2.3-4.3-5-5.8-7.9c-2.1-3.9-3.7-8-4.8-12.3c-1.2-4.7-3.6-9.1-7-12.6c-1.9-1.8-4.1-3.3-5.8-5.3c-0.3-0.4-0.6-0.6-1-0.7
		c-3.2-0.8-5.8-3-8.8-4.2c-1-0.4-2.1-0.7-3.1-1.1c-0.6-0.2-1-0.7-1-1.3c0-0.6,0.3-1.1,0.9-1.3c0.5-0.2,0.9-0.3,1.4-0.4
		c0.9-0.2,1.9-0.4,2.8-0.5c-0.4-0.2-0.7-0.4-1-0.7c-0.6-0.4-1.2-0.8-1.7-1.3c-2.3-2.9-4.3-6.1-6-9.4V71c-2.1,0.9-4.5,0.9-6.6,0.2
		c-4.5-1.4-8.9-3.4-13.1-5.8c-3.7-2.3-7.6-4.3-11.5-6.1c-7.3-3.3-15-5.5-23.2-4.9c-4.8,0.4-9.5,0.9-14.3,1.6
		c-8.1,1.2-16.2,2.7-24.5,3c-0.7,0-1.4,0.3-1.8,0.9c-1.4,1.6-3.2,2.9-5.2,3.5c-3.3,1.2-6.8,1.4-10.2,0.8c-3.4-0.5-6.7-1.3-10-2.4
		c-6.5-2-13.1-2.5-19.8-0.5c-4.6,1.3-9.3,2.5-13.9,3.8c-4.2,1.2-8.6,1.7-13,1.7c-5.6-0.1-11.2,0-16.8-0.2
		c-5.7-0.2-11.5-0.2-17.2-1.2c-0.4-0.1-0.9-0.1-1.4,0c-1.8,0.7-3.5,0.3-5.2-0.3c-1.9-0.6-3.8-1.3-5.7-2c-0.1,1.6-0.6,3.2-1.2,4.7
		c-1.8,4.5-4.8,8.5-8.7,11.5c1.5,0.4,2.9,0.9,4.3,1.5c0.7,0.3,1.2,0.8,1.6,1.4c1.5,2.6,1,5.9-1.1,8c-0.9,1-1.9,1.9-3.1,2.6
		c-3.4,2.2-6.5,4.9-9.1,8.1c-2.8,3.3-5.9,6.3-9.3,9c-4.6,3.8-8.9,8-14,11.3c-0.6,0.4-1.2,0.8-0.5,1.7c1.4,1.9,1.5,4.1,1.1,6.4
		c-0.3,1.9-0.6,3.8-0.8,5.7c-0.1,1.2,0.6,1.9,1.9,2.4c1,0.4,1.4-0.3,1.9-0.9c0.3-0.3,0.5-0.6,0.8-0.9c4.3-4.3,9.4-6.4,15.6-5.3
		c3.6,0.6,6.7,3.9,6.8,7.4c0.2,4.5-1.2,8.3-5.2,10.9c-3.1,2-6.6,3.1-10.2,3.3c-3.9,0.3-7.8,1.1-11.5,2.3c-3.1,0.9-5.9,2.6-8.2,4.8
		c-0.7,0.6-1.2,1.3-1.6,2.1c-1.4,3.6-3.1,7.2-4.3,10.9c-1.5,4.6,0.8,9.5,5.3,11.3c1.2,0.5,2.4,0.9,3.6,1.3c1.5,0.3,2.9,1,4.1,2
		c0.4,0.4,1,0.5,1.5,0.3c4.4-1.5,9-1.7,13.7-1.8c3,0,6.1-0.1,9.1-0.5c7.2-1.2,13.7-4.9,18.4-10.5c2-2.5,4.4-4.6,7.1-6.4
		c2.6-1.8,5.8-2.4,8.9-1.8c3,0.4,5.5,2.6,6.2,5.6c0.2,0.7,0.5,1.5,0.8,2.2c1.1,2,1.3,4.5,0.5,6.7c-0.6,2-0.9,4-1.4,5.8
		c0.3,0.3,0.8,0.4,1.2,0.2c5.4-1.1,9.1,1,10.8,6.2c0.6,1.9,0.9,3.8,0.9,5.7c-0.1,1,0.3,2.1,0.9,2.9c3.2,3.5,6.8,6.3,11.8,6.5
		c2,0.1,4,0.4,5.9,1c1.3,0.4,2.7,0,3.5-1c1.4-1.4,2.4-3,3.1-4.8c1.8-4.3,3.9-8.4,6.3-12.4c0.7-1,0.7-2.4,0.1-3.4
		c-0.3-0.7-0.7-1.3-1.1-1.9c-3.2-4.2-5.1-9.2-5.5-14.4c-0.3-2.8-1.9-5.4-4.2-7c-2.2-1.7-4.6-3.1-7.3-4c-10.2-3.3-20.5-4.7-31.2-2.6
		c-2.9,0.6-5.7,1.3-8.6,2c1.7-1.6,3.8-2.9,6.1-3.7c4.9-1.9,9.9-3.2,15-3.8c0-0.1,0-0.1,0-0.2c-0.2-1.9,0.8-3.7,2.5-4.5
		c0.8-0.4,1.5-0.7,2-0.8c1-0.3,1.9-0.6,2.8-1c1-0.3,1.9-0.6,2.9-1c3.7-1.3,6.8-3.8,9.7-7.6c-1.5,0.5-3,0.7-4.6,0.8
		c-3.8,0-7.4-1.2-10.5-3.3c-1.3-0.9-2.4-2.1-3.1-3.6c-1-2.2-0.5-4.8,1.3-6.4c0.6-0.7,1.7-1,2.6-0.6c0.9,0.3,1.4,1.2,1.3,2.1
		c-0.3,1.3,0.4,2,1.4,2.1c0-0.1,0-0.2,0-0.4c0.1-1.5,0.6-3,1.3-4.2c1-2,2-4.2,2.9-6.8c0-0.1,0-0.1,0.1-0.2c0.3-0.6,0.4-1.2,0.5-2
		V114c0.1-0.7-0.2-1.5-0.7-2.1c-2.3-2.9-3.5-6.2-3.7-9.8c-0.4-3.3-0.3-6.7,0.3-10c0.2-0.9,0.5-1.8,0.8-2.5c-2.1-0.1-4.2,0.3-6.1,1.5
		c-2.4,1.3-4.6,3-6.5,4.9c-1.5,1.5-3.1,3-4.7,4.4c-1.8,1.5-3.9,2.5-6.2,2.9c-0.6,0.1-1.3,0.2-1.7-0.5c-0.3-0.6-0.1-1.3,0.4-1.7
		c0.5-0.5,1-1,1.6-1.4c1.9-1.3,3.5-3,4.7-5c1.4-2.2,2.8-4.3,4.4-6.3c0.6-0.5,0.8-1.2,0.5-1.9c-0.8-2.1-0.5-2.7,1.3-4
		c3.6-2.6,7.7-4.6,12-5.9c2.5-0.9,5.1-1.5,7.7-1.6c2.9-0.1,5.6,1,7.5,3.2c0.6,0.7,1,1.4,1.3,2.2c0.4-0.1,0.9-0.2,1.3-0.1
		c2.8,0.6,5.5,0.7,7.8,0.1c1-0.2,1.9-0.6,2.7-1.2c3.2-2.2,6.6-4.4,9.8-6.6c5.1-3.4,11.2-4.9,17.3-4.1c3.2,0.4,6.4,1.6,9.2,3.5
		c1.1,0.7,2.4,1.3,3.7,2c1.3,0.6,2.6,1.3,3.9,2.1c2.1-2.9,5.6-4.6,9.3-4.4c3.7,0,7.2,2.1,9,5.4c1.1,1.9,1.7,3.9,1.7,6
		c0,1,0.2,2.2,0.4,3.4c0.2,0.8,0.8,1.4,2.2,2.2c5.4,3.2,9,8.1,10.8,14.7c0.3,1.1,0.3,2.3,0,3.6c-0.5,1.9-1.1,3.7-1.9,5.5
		c-0.1,0.3-0.3,0.5-0.5,0.7c4,2.9,8.6,3.1,13.4,1.8c0.2-0.1,0.5-0.1,0.7-0.2c0.7-0.3,1.5-0.1,1.9,0.5c0.4,0.7,0.3,1.6-0.3,2.2
		s-1.2,1.1-2,1.4c-2.9,1.3-6,2.3-9.2,2.9c0.3,0.3,0.5,0.7,0.7,1c0.7,1,1.4,2,2.1,3.1c1.9,3.3,1.3,6.6-1.4,9.1
		c2.6,0.1,5.1,0.8,7.4,1.9c0.8,0.4,2.1,0.6,1.8,1.8c-0.3,1.1-1.5,0.7-2.3,0.7c-6.2-0.4-11.8,1.4-17.4,3.9c-7.3,3.3-12,8.7-15.1,15.9
		c-1.2,2.9-2.2,5.9-3,8.9c-1.4,5.3-3.7,10.4-6.8,15c-4.7,6.7-5.6,13.9-3.6,21.7c0.3,1.4,0.9,2.8,1.8,3.9c1.6,2.1,2.8,4.5,3.3,7.1
		c0.4,1.8,1.3,3.5,2.6,4.8c0,0.1,0.1,0.1,0.1,0.2c0.7,0.9,1.9,1.1,2.8,0.4c2.2-1.2,4.1-2.9,5.6-4.8c1.5-2.3,2.9-4.6,4-7.1
		c0.7-1.4,0.9-3.1,0.4-4.6c-0.8-2.9-1.2-6-1.2-9c-0.1-3.5,1.1-6.9,3.4-9.5c0.8-1,1.6-1.8,2.5-2.6c1.9-1.7,3.8-3.3,5.7-4.8
		c2.4-1.6,3.6-4.4,3.3-7.3c-0.1-0.8-0.1-1.6,0-2.4c0-1.8,1-3.4,2.6-4.3c0.8-0.4,1.6-1.1,2-1.9c0-0.2,0.1-0.3,0.2-0.4
		c0.5-0.7,1.5-0.8,2.2-0.3c1.8,1.2,3.8,1.2,5.7,1.7c1.6,0.3,3.1,1,4.4,1.9c0.7,0.5,1.5,0.9,2.4,1c3.1,0.6,6.2,1,9.3,1.1
		c5.7,0,11.3,0.4,17,1c10.1,1,20,2.4,29.5,6.2c0.2,0.1,0.5,0.1,0.7,0.1c0.5-0.5,0.2-1,0.2-1.4c0-0.8,0.4-1.6,1-2.1
		c1.2-1.1,3-1,4.1,0.2c0.7,0.7,1.4,1.5,1.9,2.4c0.9,1.5,1.9,3,2.9,4.4c1.6,2.4,4.1,4,6.9,4.4C635.1,184.1,639.2,185.1,643.5,185.3z
		 M615.7,136.1c-4.8,0.4-9.7-0.4-14.1-2.3c-1-0.4-2-0.6-3-0.6c-5.1-0.2-9.9-2.7-13.2-6.8c-7-8.9-9.6-19.3-10.3-30.3
		c0.3-2.2,0.3-4.5,0.7-6.7c0.3-2,1.9-3.5,3.9-3.7c0.1-0.1,0.1-0.1,0.2-0.1c0.7-0.1,1.3,0.3,1.5,0.9c0.7-0.5,1.4-0.9,2.2-1.2
		c2.7-1.1,5.1,0.1,6.6,0.8c1.7,0.9,3.1,2,4.2,3.3c0.6,0.6,1.4,1,2.3,1.2c2.9,0.4,5.8,1.1,8.9,2.1c4.6,1.7,8.6,4.8,11.3,8.6
		c3.4,4.7,7.2,10.3,8.8,17c0.8,2.2,0.9,4.7,0.4,7.5v0.1c-0.5,1.8-1.4,3.4-2.7,4.7c2.8,1.6,5.6,3.2,8.3,4.8c2.5,1.4,4.9,3,7.1,4.9
		c1.1,0.9,2,2,2.7,3.3c0.3,0.6,0.5,1.3-0.1,1.7s-1.1,0-1.5-0.4c-3.7-3.9-8.6-5.6-13.5-7.4C622.9,136.3,619.3,135.8,615.7,136.1z"/>
	<path class="st1" d="M710.7,424.8c-0.8,3.9-1.9,7.7-3.3,11.5c0.4,0.1,0.8,0.3,1.1,0.6c1.5,1.3,2.3,3.1,2.5,5.2
		c0.2,1.6,0.2,3.3,0,4.9c-0.4,3.5-0.4,7.2,0,10.8c0.3,3.7,0.6,6.8,1.1,9.9c0.1,1,0.6,1.8,1.2,2.4c9.1,8.8,16.2,19.1,21.2,30.8
		c0.4,0.9,0.9,1.8,1.3,2.8c1.5,3.2,3,6.5,4.1,10c0.7,2.1,1.4,4.5,2,7.1c0.2,0.8,0.4,1.3,0.6,1.5c0.1,0.1,0.1,0.2,0.2,0.3
		c4.1,7.6,6.1,15,6,22.7v6c0,4.3-1.2,7.6-3.8,10c-0.6,0.8-0.9,1.7-0.9,2.5c0,0.1,0,0.2,0,0.3c-0.4,3.3-1,6.6-1.7,9.7
		c-0.6,2.8-1.1,5.6-1.5,8.4c-0.3,2.1-0.5,4.1-0.6,6.1c1.5,0,2.9,0,4.5,0.1c3.5,0.3,7,0.6,10.5,1.1c1.7,0.2,3.5,0.6,5.2,0.9l2.6,0.6
		l1.3,0.3l1.3,0.3l1.3,0.3l0.6,0.2l0.6,0.2l2.5,0.7l1.5,0.5c-2.7-5.8-5.3-11.6-7.9-17.4c-1.6-3.7-2.9-7.5-3.8-11.4
		c-2-8.4-3-17.1-3-25.7c-0.1-7.3-1.1-14.6-3-21.6c-3.2-12-6-24-10-35.8c-1.3-3.9-2.3-7.8-3.3-11.8c-3.2-12.7-7.7-25-13.4-36.7
		c-1.8-3.6-3.4-7.4-4.8-11.2c-3-8.4-5.5-17-8.3-25.5c-0.1-0.9-0.5-1.7-1.1-2.4c-0.2,0.7-0.2,1.5-0.1,2.3
		C714,405.9,712.5,415.3,710.7,424.8z"/>
	<path class="st1" d="M679.4,432.4c0.3,0.5,0.4,1.2,0.5,2c0.2,1.3,0.3,2.5,0.4,3.8c0.1,1,0.3,1.9,0.7,2.8c0.5,1.1,0.9,2.6,2.2,2.6
		c1.1-0.1,2.1-1.2,2.6-2.3c2.2-4.8,5.2-9.2,7.4-14c3.5-7.9,6.8-15.9,5.3-24.9c-0.3-2.3-0.8-4.6-1.7-6.7c-1.8-3.5-2.7-7.4-2.6-11.3
		c0-0.4,0-0.8-0.1-1.2c-1.5-4.4-3.4-8.7-5.8-12.7c-0.2,0.3-0.5,0.5-0.5,0.7c-0.8,3.9-2.5,7.6-5,10.8c-1.3,1.8-2.1,4-2.4,6.2
		c-0.2,1.3-0.4,2.7-0.7,4c-0.1,0.6-0.3,1.2-0.5,1.7c0.3,0.4,0.6,1,0.6,1.6c0,0.9-0.1,1.7-0.2,2.4c-0.1,0.5-0.1,1,0,1.4
		c0.6,5.2,0.5,10.4,0.5,15.5c0,1.7,0,3.3,0,5c0,3.5,0,7.1,0.3,10.5c0.1,0.7-0.2,1.4-0.6,1.9C679.6,432.2,679.5,432.3,679.4,432.4z"
		/>
	<path class="st1" d="M285.2,593.3l0.6,0.1l0.6,0.2l1.3,0.3l1.1,0.3c0-1.3,0.1-2.6,0.2-3.8c0.5-9.8,3.1-19.4,7.6-28.3
		c3.3-6.1,6.9-11.8,10.8-16.9c1.4-1.8,2.8-3.6,4.2-5.5c1-1.3,2.1-2.2,3.3-3c0.8-0.6,1.5-1.4,0.5-3.5c-2.1-4.7-4-9.5-5.5-14.4
		c-1.3-4-2.2-8.3-2.9-12.9c-0.2-1.2,0.6-2.4,1.7-2.7c-0.4-1.1-0.8-2.2-1.1-3.3c-2-7-3.6-14.2-5.2-21.4c-1.7-7.5-1.9-15.3-0.6-22.9
		c0.7-3.3,0.7-6.7,0.2-10c-1.3-6.9-3.5-13.6-6.5-20c0-0.1-0.3-0.1-0.4-0.2c-0.3,0.2-0.3,0.5-0.4,0.8c-1.9,7.7-3.1,15.5-3.8,23.4
		c-0.7,13.4,0.1,26.8,2.3,40c1.7,10.7,3.6,21.4,5.3,32.2c1.6,9.1,0.3,18.5-3.6,26.9c-0.8,1.6-1.5,3.2-2.2,4.8
		c-5.8,12.3-10.1,25.2-13,38.5c1,0.2,1.9,0.4,2.9,0.6L285.2,593.3z"/>
	<path class="st1" d="M362.5,603.9c-0.2,0.7-0.4,1.5-0.5,2.3s-0.3,1.6-0.7,2.3c-0.7,1.5-2.3,2.4-3.9,2.2c-1.6-0.1-2.9-1.2-3.4-2.7
		c-0.3-0.7-0.4-1.5-0.5-2.3c-0.1-1.7-0.2-3.4-0.2-5.1c-0.1,0-0.1,0-0.2,0c-4.8-0.4-9.5-1.8-13.9-4.1c-2-1-3.7-2.1-5.2-3.3
		c-0.5-0.3-0.9-0.6-1.4-0.9c-0.5-0.3-1.1-0.7-1.6-1.1l0,0c-1.3,1-2.6,1.8-3.8,2.7c-1.5,1-3,2-4.3,3.1c-2,1.5-3.4,3.7-4.8,6l-0.5,0.8
		c-0.2,0.4-0.5,0.7-0.7,1.1c-0.2,0.3-0.3,0.5-0.5,0.8c1.6,0.9,3.2,1.8,4.7,2.8l2.2,1.4l2.1,1.5l1.1,0.8l0.5,0.4l0.6,0.6l2,1.5l1,0.8
		l1,0.8l2,1.7c0.6,0.5,1.3,1.1,1.9,1.7l1,0.9l0.5,0.4l0.5,0.5c1.2,1.3,2.5,2.4,3.7,3.7c0.6,0.6,1.2,1.3,1.8,1.9l1.8,1.9l0.9,1l0.9,1
		l1.7,2c1.1,1.3,2.3,2.6,3.3,4c2.8,3.5,5.4,7.1,7.9,10.7c0,0.1,0.1,0.1,0.1,0.2c0.7,0.8,1.3,1.6,1.8,2.5l0.6,0.9l1.6,2.4l0.1,0.1
		c-0.2-3-0.2-6.2,0.1-9.7c0.3-2.9,0.8-5.9,1.6-9.9c0.9-4.7,1.8-9,3-13.4c0.2-0.7,0.2-1.3,0-2C367,612.9,365.4,608.1,362.5,603.9z"/>
	<path class="st1" d="M616.6,645.9c-1.4-4.1,0.1-8.6,3.5-11c-0.8-0.9-1.7-1.9-2.4-3.1c-0.9-1.3-1.6-2.6-2.4-3.8
		c-0.7-1.2-1.3-2.4-2.1-3.4c-0.1-0.2-0.3-0.4-0.4-0.6c0,0.1,0,0.1-0.1,0.2c-1.1,2.9-2.7,5.6-4.7,8c-2.8,3.4-5.9,6.7-9.2,9.7
		c-1.3,1.2-1.3,1.3-0.3,2.6c1.5,1.8,1.6,4.4,0.4,6.5c-1.6,3.4-3,7-4.1,10.7c-0.4,1.2-0.4,2.5,0.1,3.7c0.2,0.6,0.4,1.2,0.6,1.8h15
		l0.7-0.4c1-0.7,2-1.5,3-2.3c0.5-0.5,1.1-1,1.6-1.5l0.1-0.1l0.7-0.9c1.9-2.4,3.6-4.9,5.3-7.4c-1.7-2.1-3.1-4.4-4.4-6.7
		C617.2,647.3,616.8,646.6,616.6,645.9z"/>
	<path class="st1" d="M607.8,620.7c0.4-0.5,0.9-0.9,1.4-1.3c0.1,0,0.1-0.1,0.2-0.1c-2.5-3.3-5.2-6.8-8.1-10.3
		c-2.4-2.8-4.6-6-6.5-9.8c-1.3,1.6-2.5,3.2-3.8,4.9c-0.9,1.3-1.6,2.7-2,4.3c-0.8,3.7-2.1,7.3-3.8,10.6c-1.1,2.1-2.5,3.9-4.4,5.3
		c-1.2,0.7-2.4,1.6-3.5,2.5c-1.5,1.3-3.5,1.8-5.4,1.3c-2.3-0.4-4.4-1.2-6.4-2.5c-3-2-5.9-4.1-8.7-6.4c-5.5-4.5-8.6-11.2-8.5-18.3
		c0-1,0-1.9,0-2.9c-1,1.2-2.2,2.2-3.8,2.8c-3.3,1.5-7.4,1-10.3-1.5c-0.9-0.9-2.1-1.3-3.4-1.2c-1.5,0.1-2.9,0.1-4.4,0.2
		c-1.4,0-2.8,0-4.1,0.1c-0.1,0-0.2,0-0.3,0c-1.2-0.1-2.6,0.1-3.9,0.4c-8.2,2.1-13,6.1-15.1,12.7c-0.3,0.9-0.6,1.8-0.8,2.7
		c-0.3,1-0.6,1.9-0.9,2.8c-1.6,4.8-5,8.7-9.4,11c-2.4,1.2-5,1.8-7.6,1.8c-1.8,0-3.5-0.3-5.2-0.8c-2.4-0.7-4.6-1.9-6.6-3.5
		c-3.6-3.1-6.4-7.2-8.1-11.6c-1-2.5-2.4-4.7-4.2-6.5c-4-4.1-9.2-7-14.2-9.7l-0.3-0.1c-1.1-0.5-2.1-0.9-3.1-1.1
		c-0.1,0-0.2-0.1-0.3-0.1c-0.9-0.3-1.8-0.3-2.7,0.1c-2.2,1.1-4,3-5.3,5.2c-0.6,1.1-1.1,2.3-1.7,3.4c-1.5,3.1-3.1,6.2-4.8,9.3
		c-1,1.7-1.5,3.7-1.5,5.7v2.3c0,0.8-0.4,1.5-1,2c0.2,0.4,0.4,0.9,0.6,1.3c0.5,1.2,1.4,2.3,2.4,3.2c2.2,1.9,4.1,4.1,5.8,6.4
		c2.2,3.1,3.4,6.9,3.1,10.7c0.7,0.1,1.3,0.5,1.6,1.2c1.5,2.5,2.3,5.3,2.4,7.9c0.2,3.7,0.4,7.9-1.1,12h22.6c-0.1-0.9,0-1.7,0.1-2.5
		v-0.1v-0.1c0.5-3.4,2.5-6.4,5.3-8.1c0.7-0.5,1.4-0.9,2.1-1.3c1.4-0.8,2.8-1.6,3.7-2.7c0.4-0.4,0.9-0.7,1.4-0.8
		c0.1-0.6,0.3-1.1,0.7-1.5c0.2-0.2,0.3-0.3,0.5-0.4c1-0.7,2-1.3,3.2-1.7c1-0.4,2.2,0,2.8,0.8c2.8-2.8,5.9-5.1,9.2-7.1
		c7.1-4,14.2-4.1,21.4-0.1c3,1.8,6.2,3.2,9.5,4.2c0.3-0.8,1-1.5,1.9-1.7c6.3-1.2,12.8-1.6,19.2-0.9c5,0.5,9.5,2.5,13,6
		c1,1,2,2,3.1,3.2c0.3,0.3,0.5,0.7,0.6,1.1c8.8-2.8,17-7.2,24.2-13.1c6.1-5,12.5-9.5,18.3-14.8C604.7,624,606.3,622.4,607.8,620.7z"
		/>
	<path class="st1" d="M823.5,645.1c-2-3.9-4.4-7.7-7.2-11.1c-2.8-3.4-6-6.5-9.4-9.3c-3.4-2.7-7.2-5.1-11.1-7l-5.9-2.6
		c-0.6-0.6-1.3-1.2-1.9-1.7c-1.4-1.3-3-2.4-4.7-3.4c-7-3.8-14.7-6-22.5-7.3c-3.9-0.6-7.8-1.1-11.7-1.3c-2.6-0.1-5.2,0-7.8-0.4
		c-2.8-0.4-5.5-1.7-8.3-1.9c-1.1-0.1-2.2,0-3.3,0.1c-9.1,0.8-18.1,2.4-26.8,4.9c-4.4,1.3-8.7,3-12.8,5c-3.9,2-7.4,4.8-11.5,6.4
		c-0.9,0.4-1.9,0.8-2.9,1.2c-20.9,9-39.5,26.6-46.8,48.4c1.8-0.4,4.1,0.3,5.6-0.9c0.6-0.5,1-1.2,1.3-1.9c3.3-7.2,6.6-14.8,12.3-20.4
		c7-6.9,18-9.6,26.2-3.3v-0.1l0.1,0.2c0.5,0.4,1,0.8,1.4,1.2v0.1l0.5,0.4c0.6,0.5,1.1,1,1.5,1.6l0.3,0.3c-0.7,0-1.4,0-2.1,0.1
		c-1.5,0.2-3,0.5-4.4,1c-2.8,1.1-5.5,2.6-7.9,4.3l-1.8,1.3l-0.9,0.7l-1.7,1.2l-0.9,0.7l1-0.3c4.3-1.3,8.8-1,12.8,0.8
		c0.3,0.2,0.7,0.3,1,0.5s0.6,0.4,0.9,0.6c0.7,0.4,1.2,0.8,1.8,1.3c1.1,1,2.1,2.1,3,3.3c1,1.3,1.8,2.7,2.5,4.2
		c-0.1,0.5-0.2,0.9-0.3,1.3l-0.2,0.8v0.1c-0.1,0.4-0.2,0.9-0.2,1.4v0.4c0.1,0.1,0.1,0.2,0.1,0.3l0.1,0.7l0.5,2.4
		c0.2,0.9,0.4,1.9,0.6,2.8c1.2,1.9,2.3,3.9,3.1,6c0.1,0.2,0.1,0.4,0.2,0.6c0,0.1,0,0.1,0,0.2c0.1,0.2,0.2,0.4,0.2,0.6
		c0,0.2,0.1,0.4,0.1,0.6c0,0.1,0,0.1,0,0.2s0.1,0.3,0.1,0.5c0,0-0.1-0.1,0,0.1s0.1,0.4,0.1,0.6l0,0c0,0.2,0,0.3,0,0.5v0.3
		c0,0.2,0,0.4,0,0.5s0,0.2,0,0.3s0,0,0,0.3s0,0.5,0,0.7c0,0.1,0,0,0,0.2s0,0.3,0,0.5c0,0.3,0,0.7,0,1l0.4,0.5
		c0.6,0.8,1.3,1.5,1.9,2.3l1,1c2.7,2.3,5.5,4.5,9,5.3c5.5,1.2,11.3-0.6,16.9-0.1c1.1,0.2,2.2,0.1,3.3-0.2c2-0.8,3.2-3.9,4.2-5.6
		c1.5-2.7,2.8-5.4,3.9-8.3c2-5.5,3.3-11.2,3.7-17c0.7-9.2-0.9-18.5-4.6-26.9c-1.8-4.2-4.1-8.2-6.8-11.9s-5.8-7.1-9.2-10.2
		c-0.4-0.4-0.9-0.7-1.3-1.1l-2.2-1.9h0.1h0.2l0.4,0.1l0.8,0.2l1.3,0.3l0.4,0.1l0.4,0.1l0.8,0.3c2.2,0.7,4.3,1.5,6.4,2.6
		c19,9.9,27.3,30,28.5,50.4c0,0.1,0,0.3,0,0.4c0,0.6,0.1,1.3,0,1.8s-0.1,1.2-0.1,1.7s-0.1,1.1-0.1,1.6c0,0.1,0,0.1,0,0.2
		c-0.1,0.4-0.2,0.9-0.2,1.1s-0.2,0.8-0.2,1s-0.1,0.4-0.1,0.7c-0.7,3.4-1.6,6.7-2.8,10c-1.1,3.4-3.1,6.7-1.7,10.4
		c3,7.7,9.8,10.1,17.3,11.3c1,0.1,2,0.3,3,0.4c1.2,0.1,2.5,0.3,3.7,0.4c1.4,0.2,2.9,0.3,4.3,0.5l0.8,0.1l0.8,0.1c0.5,0,1,0,1.5,0
		v-0.2c0.6-2.9,2.2-5.4,3.5-8c6.4-12.6,8.8-26.8,6.8-40.7c-1.8-12.9-9.1-24.8-18.1-34c-0.9-0.9-1.9-2-1.7-3.3
		c3.2,0.9,6.6,3.6,9.4,5.3c3.5,2.1,6.8,4.4,9.9,7c5.6,4.7,10.9,10.8,12.1,18.3c2.2,14.3,6.2,15.2,4.3,29.6
		c-0.5,3.9-2.8,7.4-3.6,11.2c-1.1,5.4-1.4,10.4-3.4,15.5c-0.2,0.3-0.3,0.7-0.4,1c-0.1,0.3-0.3,2.5-0.8,2.8v0.1
		c2.9,0.9,14.9,3.2,15.5-1.3l0.4-2.5l3.1-17.3c3.1-17,3.5-34-4.2-49.9c-1.7-3.4-4.5-9.9-6.7-11.9l0.8,0.7c4.2,4,8.2,7.8,11.3,12.8
		c3.7,6,6.7,12.3,9.2,18.8c0.2,0.6,0.3,1.1,0.5,1.6c0.7,2.1,1.3,4.2,1.7,6.3c0.8,4.2,1.3,8.5,1.3,12.8c-0.1,4.3-0.6,8.5-1.5,12.7
		c-0.3,1.3-0.6,2.6-1,3.8c0.4,0,0.7-0.1,1.1-0.3c1.1-0.5,2-1.1,2.8-2c0.7-0.9,1.4-1.8,1.9-2.8s0.9-2,1.3-3.1
		c0.2-0.6,0.3-1.1,0.5-1.7C831.5,674.3,830,658.8,823.5,645.1z"/>
	<path class="st1" d="M310.6,617c-0.9-0.4-1.9-0.8-2.9-1.2c-4.1-1.6-7.6-4.4-11.5-6.4c-4.1-2-8.4-3.7-12.8-5
		c-8.8-2.5-17.7-4.1-26.8-4.9c-1.1-0.1-2.2-0.1-3.3-0.1c-2.8,0.2-5.5,1.4-8.3,1.9c-2.6,0.4-5.2,0.2-7.8,0.4c-4,0.2-7.9,0.7-11.8,1.3
		c-7.8,1.3-15.6,3.4-22.5,7.3c-1.7,1-3.3,2.1-4.7,3.4c-0.7,0.6-1.3,1.1-1.9,1.7l-5.9,2.6c-3.9,1.9-7.6,4.3-11.1,7
		c-3.5,2.8-6.6,5.9-9.4,9.4c-2.8,3.4-5.2,7.2-7.2,11.1c-6.7,13.6-8.2,29.1-4.2,43.7c0.2,0.5,0.3,1.1,0.5,1.6
		c0.3,1.1,0.8,2.1,1.3,3.1s1.2,2,1.9,2.8c0.7,0.9,1.7,1.5,2.7,2c0.3,0.1,0.7,0.2,1.1,0.3c-0.4-1.3-0.7-2.5-1-3.8
		c-0.9-4.2-1.4-8.4-1.5-12.7c0-4.3,0.4-8.6,1.3-12.8c0.5-2.1,1-4.2,1.7-6.3c0.1-0.6,0.3-1.1,0.5-1.6c2.5-6.5,5.6-12.8,9.3-18.7
		c3.1-5,7.1-8.8,11.3-12.8l0.8-0.7c-2.2,2-5,8.5-6.7,11.9c-7.7,15.9-7.2,32.9-4.2,49.9l3.1,17.3l0.4,2.5c0.6,4.4,12.4,2.2,15.5,1.3
		v-0.1c-0.5-0.4-0.6-2.4-0.7-2.7c-0.1-0.3-0.2-0.7-0.4-1c-2-5.1-2.3-10.1-3.4-15.5c-0.8-3.9-3.1-7.4-3.6-11.2
		c-1.9-14.4,2.1-15.3,4.3-29.6c1.1-7.5,6.5-13.6,12.1-18.3c3.1-2.6,6.4-4.9,9.9-7c2.8-1.8,6.2-4.5,9.4-5.3c0.2,1.3-0.8,2.4-1.7,3.3
		c-9,9.1-16.3,21.1-18.1,34c-1.9,13.9,0.5,28.1,6.9,40.6c1.3,2.6,2.8,5.1,3.5,8v0.2c0.5,0,1,0,1.5,0l0.8-0.1l0.8-0.1
		c1.4-0.2,2.9-0.4,4.3-0.5c1.2-0.1,2.5-0.2,3.7-0.4c1-0.1,2-0.2,3-0.4c7.5-1.2,14.3-3.6,17.3-11.3c1.4-3.6-0.6-6.9-1.7-10.4
		c-1.2-3.3-2.2-6.6-2.8-10c0-0.2,0-0.5-0.1-0.7s-0.1-0.6-0.2-1s-0.1-0.7-0.2-1.1c0-0.1,0-0.1,0-0.2c0-0.5,0-1-0.1-1.6
		s-0.1-1.1-0.1-1.7s0-1.2,0-1.8c0-0.1,0-0.3,0-0.4c1.2-20.4,9.4-40.4,28.5-50.4c2-1,4.2-1.9,6.4-2.6l0.8-0.3l0.4-0.1l0.4-0.1
		l1.3-0.3l0.8-0.2l0.4-0.1h0.2h0.1L278,614c-0.4,0.3-0.9,0.7-1.3,1.1c-3.4,3.1-6.5,6.5-9.2,10.2s-5,7.7-6.8,11.9
		c-3.7,8.5-5.3,17.7-4.6,26.9c0.4,5.8,1.7,11.5,3.7,17c1.1,2.9,2.4,5.6,3.9,8.3c1.1,1.7,2.2,4.8,4.2,5.6c1.1,0.3,2.2,0.4,3.3,0.2
		c5.6-0.4,11.4,1.4,16.9,0.1c3.6-0.8,6.3-3,9-5.3l1-1c0.7-0.8,1.3-1.5,1.9-2.3l0.4-0.5c0-0.3,0-0.7,0-1c0-0.2,0-0.3,0-0.5
		c0-0.1,0-0.2,0-0.2c0-0.3,0-0.6,0-0.7s0-0.2,0-0.3s0-0.1,0-0.3s0-0.3,0-0.5v-0.3c0.1-0.2,0.1-0.3,0.1-0.5v-0.2
		c0-0.2,0.1-0.6,0.1-0.6V681c0-0.1,0.1-0.3,0.1-0.5v-0.2c0-0.2,0.1-0.4,0.1-0.6c0.1-0.2,0.2-0.4,0.2-0.6c0-0.1,0-0.1,0-0.2
		c0.1-0.2,0.1-0.4,0.2-0.6c0.8-2.1,1.9-4.1,3.1-6c0.2-0.9,0.4-1.8,0.6-2.8c0.2-0.8,0.3-1.6,0.5-2.4c0-0.3,0.1-0.6,0.1-0.7
		s0.1-0.2,0.1-0.3v-0.3c-0.1-0.4-0.1-0.9-0.2-1.4v-0.1l-0.2-0.8c-0.1-0.5-0.2-0.9-0.3-1.3c0.7-1.5,1.5-2.9,2.5-4.2
		c0.9-1.2,1.9-2.3,3-3.3c0.6-0.4,1.2-0.9,1.8-1.3c0.3-0.2,0.6-0.4,0.9-0.6c0.3-0.2,0.7-0.3,1-0.5c4.1-1.8,8.6-2.1,12.8-0.8l1,0.3
		l-0.9-0.7l-1.6-1.2l-0.9-0.7c-0.6-0.4-1.2-0.9-1.8-1.3c-2.4-1.8-5.1-3.2-7.9-4.3c-1.4-0.5-2.9-0.8-4.4-1c-0.7-0.1-1.4-0.1-2.1-0.1
		l0.2-0.3c0.5-0.6,1-1.1,1.5-1.6l0.5-0.4V640c0.5-0.4,0.9-0.8,1.4-1.2l0.1-0.2v0.1c8.3-6.3,19.2-3.6,26.2,3.3
		c5.7,5.6,8.9,13.2,12.3,20.4c0.3,0.7,0.7,1.4,1.3,1.9c1.5,1.3,3.7,0.5,5.7,1C350.1,643.5,331.5,626,310.6,617z"/>
</g>
<g>
	<path class="st2" d="M742.6,522.5c0-0.1-0.1-0.2-0.2-0.3c-0.2-0.2-0.4-0.7-0.6-1.5c-0.6-2.7-1.2-5-2-7.1c-1.1-3.6-2.6-6.8-4.1-10
		c-0.4-0.9-0.9-1.9-1.3-2.8c-5-11.6-12.1-22-21.2-30.8c-0.7-0.6-1.1-1.4-1.2-2.4c-0.5-3.1-0.8-6.2-1.1-9.9c-0.4-3.6-0.4-7.3,0-10.8
		c0.2-1.6,0.2-3.3,0-4.9c-0.2-2-1.1-3.9-2.5-5.2c-0.3-0.3-0.7-0.5-1.1-0.6c-0.3,0.7-0.5,1.4-0.8,2c-2.6,6-6.3,11.4-11.1,15.8
		c-3.9,3.6-6.2,8.4-8.2,13.2c-0.4,1.2-0.5,2.5-0.3,3.8c1.1,8.2,0.8,16.5-1,24.6c-2.2,10.5-6.8,20.1-11.6,29.6
		c-3.7,7.4-9.3,13.1-15.7,18.2c-1.8,1.4-3.8,2.6-6,3.4c-0.8,0.2-1.4,0.7-1.7,1.5c-0.9,2.2-2.7,3.9-5,4.5c-3.9,1.4-8.3,1.4-12.2-0.1
		c-1.8-0.6-3.3-1.2-5.1,0c-0.5,0.3-1.3,0.2-1.9,0.3c-1.3,0.2-2.5,0.4-3.8,0.6c-0.1,0-0.1,0-0.2,0c-0.7,0.2-1.2,0.9-1.1,1.6
		c0.1,5.9-2.1,11-5.1,15.8c-3.8,6.3-8.2,12.2-13.1,17.7c-2.4,2.7-4.7,5.5-7,8.3c-0.6,0.7-1.1,1.4-1.7,2.1c1.9,3.7,4.1,7,6.5,9.8
		c2.9,3.5,5.6,7.1,8.1,10.3c0.8-0.5,1.9-0.5,2.7,0.1c1,0.6,1.5,1.6,1.3,2.7c-0.1,0.6-0.3,1.3-0.5,1.9c0.1,0.2,0.3,0.4,0.4,0.6
		c0.8,1,1.4,2.2,2.1,3.4c0.7,1.3,1.4,2.6,2.4,3.8c0.7,1.2,1.6,2.2,2.4,3.1c0.7-0.5,1.6-1,2.5-1.3c0.6-0.3,1.2-0.5,1.9-0.6
		c1.6-0.3,3.3-0.3,4.7-0.4c2.4,0.3,4.7,0.9,6.8,1.9c0.6-0.6,1.1-1.2,1.6-1.9l1.7-2l0.8-1c0.3-0.4,0.6-0.7,0.9-1l1.8-1.9
		c0.6-0.6,1.2-1.3,1.8-1.9c1.2-1.3,2.5-2.5,3.7-3.7l0.5-0.5l0.5-0.4l1-0.9c0.6-0.5,1.2-1.1,1.9-1.7l2-1.7l1-0.8l1-0.8l2.1-1.6
		l0.5-0.4l0.5-0.4l1.1-0.8l2.1-1.5l2.2-1.4c5.8-3.7,11.9-6.9,18.3-9.5c4.3-4,9.2-7.3,14.6-9.7c0.5-0.2,0.9-0.5,1.3-0.7
		c4.4-2.3,8-5.9,10.5-10.2c1.3-2.2,2.4-4.5,3.4-6.9c4-9.8,7.6-19.7,9.2-30.2c0.2-1.5,1-2.3,2-2.3s1.7,0.8,2,2.3
		c0.1,0.6,0.2,1.1,0.2,1.7c0.1,2,0.1,4-0.2,6c-1.2,8.5-2.6,16.9-2.9,25.5c-0.1,1.9-0.3,3.7-0.7,5.5c-0.7,3.3-1.7,6.7-3.1,9.8
		c1.4-0.2,2.9-0.3,4.4-0.5c4.5-0.5,9-0.7,13.5-0.8c0.9,0,1.9,0,2.8,0c0.1-2,0.4-4,0.6-6.1c0.4-2.8,1-5.7,1.5-8.4
		c0.6-3.2,1.3-6.4,1.7-9.7c0-0.1,0-0.2,0-0.3c0-0.8,0.3-1.7,0.9-2.5c2.5-2.4,3.8-5.7,3.8-10v-6C748.7,537.5,746.7,530,742.6,522.5z"
		/>
	<path class="st2" d="M603.3,334.7c2.4,4.1,4.8,8.3,7.1,12.5c1.8,3.1,3.7,6.2,5.8,9.1c0.9,1.3,2.3,2.2,3.8,2.7
		c2.7,0.6,5.2,1.7,7.4,3.3c5.5,4.3,10.8,8.9,14.8,14.9c4.5,6.9,6.6,14.1,5.2,22.3c-0.6,2.7,0,5.5,1.5,7.8c1.6,2.6,2.6,5.5,3,8.5
		c0.7,4.3,1.1,8.6,1.4,12.9c0,1.3,0.2,2.6,0.6,3.8c2.7-0.8,3.6-0.4,4.6,2.2c0.4,1,0.7,2,1,3c1.9,8.2,4.1,16.4,6.6,24.5
		c2,6.1,2.2,12.7,0.7,19c-0.3,1.3-0.6,2.7-0.8,4c-0.9,6-3.6,11.7-7.7,16.2c-3.5,3.8-7.4,7.3-10.7,11.3c-0.6,0.6-1,1.3-1.3,2
		c-1.8,6.9-6.3,12.4-10,18.2c-0.3,0.5-1,0.8-0.8,1.7c3.1,1.4,6.3,2.3,9.6,3.4c0.9,0.3,1.5-0.2,2.1-0.7c2.6-2.3,5.3-4.6,7.8-7.1
		c3.8-3.8,6.9-8.1,9.3-12.8c2.1-4.1,3.9-8.4,5.4-12.8c2.9-8.6,3.9-17.5,4.2-26.5c0.4-7.6-0.1-15.1-1.5-22.5c-0.4-1.6-0.5-3.3-0.3-5
		c0.3-2,0.2-4-0.2-6c-0.4-3.7,0.1-7.4,1.3-10.9c0.5-1.8,2.2-2.9,4-2.7c0.1,0,0.3,0,0.5,0.1c0.8,0.2,1.3,0.6,1.7,1.3
		c0.1-0.1,0.2-0.2,0.3-0.2c0.5-0.5,0.7-1.2,0.6-1.9c-0.3-3.4-0.3-7-0.3-10.5c0-1.7,0-3.3,0-5c0.1-5,0.2-10.2-0.5-15.5
		c-0.1-0.5-0.1-0.9,0-1.4c0.1-0.7,0.2-1.6,0.2-2.4c0-0.6-0.2-1.1-0.6-1.6c-0.1,0.3-0.1,0.5-0.2,0.8c-0.2,0.8-1,1.3-1.8,1.2
		c-0.8-0.1-1.3-0.7-1.3-1.5c-0.1-0.8-0.2-1.7-0.2-2.6c-0.4-7.9,0.2-15.8,1.6-23.5c1.2-5.1,1.4-10.4,0.8-15.7
		c-0.2-1.8-0.5-3.7,0.5-5.4c0.2-0.4,0.2-0.8,0.1-1.2c-0.6-5.1,0-10.1,0.5-15.1c0.5-4.8,0.8-9.6,0.8-14.4c0-4.7,0.1-9.4-0.9-14.2
		c-1.6-7.6-3-15-8-21.3c0-0.1-0.1-0.1-0.1-0.2c-1.9-3.6-4.9-6.7-8.5-8.8c-0.7-0.5-1.7-0.6-2.4-0.1c-2.9,1.7-5.5,3.7-7.8,6
		c-4,3.8-6.5,8.2-6.8,13.8c-0.1,3.7-1,7.3-0.5,11c0.4,2.2,0.5,4.5,0.5,6.7c0,1.3,0.1,2.7,0.4,4c1.7,8,3.4,16,8,23
		c0.3,0.4,0.5,0.9,0.7,1.3c1.6,3,2.5,6.4,2.3,9.9c-0.1,0.5-0.1,1.1-0.1,1.6c0,0.2,0,0.5,0,0.7c-0.1,1.3,0,2.5,0.3,3.7
		c0.9,4.1,1.6,8.3,2,12.5c0.3,1.5,0.2,3.1-0.3,4.5c-0.3,1-0.3,2,0,3c1.2,4.9,1.1,9.8,1.3,14.8c0,0.2,0,0.3,0,0.5
		c-0.1,0.5-0.1,1-0.8,1.1c-0.7,0.2-1-0.4-1.2-0.9c-0.4-1.6-0.8-3.1-1.2-4.7c-0.8-3.8-2.5-7.3-5-10.3c-2.3-2.7-4.7-5.5-7-8.2
		c-1.3-1.5-2.9-2.8-4.7-3.7c-2.1-1.2-4.1-2.4-6.1-3.8c-2.2-1.4-3.9-3.4-4.9-5.8c-0.3-0.8-1-1.6-1.8-2.1c-1.9-1.2-3.5-2.9-4.6-4.8
		c-2.4-3.9-4.2-8.2-5.5-12.6c-0.5-1.6-0.7-3.3-0.4-5c0.2-1.6,0.4-3.2,0.4-4.8c0.2-2.6,1-3.4,3.5-2.9c1.5,0.3,3,0.7,4.4,1.2
		c2.2,0.7,2.3,0.7,3.6-1.2c4.1-5.6,5.9-12.1,7-18.9c0.8-5.3,0.7-10.6,1.4-15.8c0.8-6.6,2.4-13.1,6.3-18.6c-0.3-0.2-0.7-0.4-1-0.5
		l-0.6,0.5c-2.5,2.2-5,4.5-7.4,6.8c-2.5,2.7-5.5,4.9-8.9,6.4c-1.3,0.6-2.5,1.5-3.2,2.8c-0.9,1.4-1.3,3.1-1.1,4.8
		c0.4,4.5,1,8.9,0,13.4c-0.1,0.4,0,0.8,0.2,1.1c1.4,2.3,1.4,2.8-0.3,4.7c-2.1,2.4-4.7,4.4-7.5,5.9c-2.5,1.4-5.6,1.4-8.1,0
		c-5.1-2.8-9.9-6.1-12.9-11.2c-2-3.6-4.6-6.7-7.8-9.3c-0.7-0.6-1.4-1.3-2-2.1c-1.7-2-3.6-3.7-5.6-5.3c-7-5.4-14.6-10-21.7-15.4
		c-6.9-5.3-15.1-7.3-23.4-8.7c-3.4-0.5-6.8-0.7-10-1.5c-6.9-1.7-14-2.7-21.1-3.1c-6.9-0.4-9.2-2.4-10.5-9.2
		c-0.1-0.6-0.1-1.2-0.2-1.7c-0.2-0.8-0.3-1.5-0.6-2.3c-2.4-5.9-1.2-11.4,1.6-16.8c1.5-3.2,4.2-5.8,7.6-7c0.3,0,0.5-0.2,0.6-0.5
		c0-0.1,0-0.1,0-0.2s0-0.1,0-0.2l-0.1-0.1c-0.9-1.1-1.9-2.3-3-3.3c-3.1-2.9-5.1-6.8-5.5-11.1c-0.5-6.9,0.1-13.8,3.2-20.3
		c0.3-0.6,0.6-1.2,0.9-1.7c0.6-0.7,0.6-1.8,0-2.6c-0.4-0.8-1.1-1.5-1.9-2c-2-1-3.7-2.7-4.7-4.7c-3.1-6.1-4.7-12.4-2.9-19.2
		c1.1-4.2,2.2-8.4,3.5-12.5c0.9-2.6,0.5-5.5-1.1-7.7c-1.2-1.8-2.4-3.8-3.3-5.8c-0.3-0.7-0.8-1.4,0-2c0.9-0.6,1.3,0.3,1.7,0.8
		c0.8,1,1.6,2,2.3,3.1c1.6,2.3,3.3,4.4,5.1,6.4c0.9-0.3,1.5-1.2,2.5-0.6c1,0.6,0.6,1.7,0.6,2.6c0,0.2,0,0.3,0,0.5
		c-0.3,5.6,0.2,11.3,1.3,16.9c0.1,1,0.9,1.7,1.9,1.7c1.8,0.2,3.7,0.2,5.5,0.1c1,0,1.9-0.5,2.3-1.4c1.2-2.2,2.6-4.2,4.1-6.2
		c2.5-3.6,5.8-6.4,9.7-8.4c4.3-2.2,8.8-3.8,13.5-4.9c1.3-0.2,2.5-0.5,3.8-0.6c1.2-0.2,2.4-0.2,3.6-0.1c2.7-2.4,3.2-5.7,1.4-9.1
		c-0.6-1.1-1.4-2.1-2.1-3.1c-0.2-0.3-0.5-0.7-0.7-1c-1.1,0.2-2.2,0.4-3.2,0.5c-2,0.2-4,0.1-6-0.2c-4.5-0.8-8.9-1.5-13-3.8
		c-2.2-1.2-4.8-1.8-6.8-3.5c-0.7-0.4-1.5-0.6-2.3-0.5c-2.4-0.1-4.6-0.7-6.7-1.8c-0.3-0.2-0.5-0.3-0.8-0.5c-4.8-3.1-6.1-9.6-2.7-14.4
		c0.4-0.6,0.9-1.1,1.4-1.6c0.3-0.4,0.8-0.7,1.3-0.8c1.5-0.4,3,0.5,3.3,2c0.4,0.9,0.5,1.8,0.9,3.1c4.3-7.9,15.3-7.3,19.8-0.7
		c1.1,1.7,2.1,3.6,2.9,5.5c1,2.6,2.8,4.8,5.1,6.2c0.2,0.2,0.4,0.3,0.6,0.5c0.1,0.1,0.3,0.3,0.5,0.4c0.4,0.4,0.8,0.7,1.2,1
		c0.2-0.2,0.4-0.5,0.5-0.7c0.8-1.9,1.4-3.7,1.9-5.5c0.3-1.2,0.3-2.5,0-3.6c-1.8-6.6-5.4-11.6-10.8-14.7c-1.4-0.8-2-1.4-2.2-2.2
		c-0.3-1.2-0.4-2.4-0.4-3.4c0-2.1-0.6-4.1-1.7-6c-1.8-3.3-5.3-5.3-9-5.4c-3.7-0.2-7.2,1.4-9.3,4.4c-1.3-0.8-2.6-1.5-3.9-2.1
		c-1.3-0.7-2.6-1.3-3.7-2c-2.9-1.8-6.1-3-9.2-3.5c-6-0.8-12.1,0.7-17.3,4.1c-3.3,2.3-6.6,4.5-9.8,6.6c-0.8,0.5-1.8,0.9-2.7,1.2
		c-2.4,0.6-5.1,0.5-7.8-0.1c-0.5-0.1-0.9-0.1-1.3,0.1c0.3,0.8,0.5,1.7,0.5,2.7c-0.1,2.8-1.9,5.2-4.5,6.2c-2.1,0.9-4.5,1.2-6.8,1
		c-1-0.2-2-0.3-3-0.4c-0.3,0-0.7,0-1-0.1c-0.5-0.1-0.9-0.1-1.4-0.2c-0.3,0.7-0.6,1.6-0.8,2.5c-0.6,3.3-0.8,6.7-0.3,10
		c0.1,3.6,1.4,6.9,3.7,9.8c0.5,0.6,0.8,1.4,0.7,2.1v0.1c-0.1,0.8-0.2,1.4-0.5,2c0,0.1,0,0.1-0.1,0.2c-0.9,2.6-1.9,4.8-2.9,6.8
		c-0.7,1.2-1.2,2.6-1.3,4.2c0,0.1,0,0.2,0,0.4c0.1,0,0.3,0,0.4,0.1c0.5,0,1.1,0.1,1.6,0.1c4.4,0.2,8.4-0.6,11.5-4.3
		c1.1-1.5,2.3-2.7,3.7-3.8c0.7-0.6,1.2-1.3,1.4-2.2c0.7-2.1,1.3-4.3,1.8-6.5c1.1-4.2,3.7-7.9,7.3-10.3c4.4-3.1,10.4-2.9,14.5,0.6
		c3.6,2.7,4.5,7.8,2.1,11.8c-1.3,2.2-3.2,3.9-5.5,4.9c-4.2,2.1-8.5,4.1-12.7,6.2c-1.4,0.6-2.7,1.4-4,2.2c-1,0.6-1.7,1.5-2.2,2.5
		c-0.8,2.3-2.4,4.4-4.4,5.8c-1.2,0.8-2.5,1.4-3.9,1.8c-2.9,3.8-6,6.3-9.7,7.6c-1,0.3-1.9,0.7-2.9,1c-0.9,0.3-1.9,0.6-2.8,1
		c-0.5,0.1-1.3,0.3-2,0.8c-1.7,0.8-2.7,2.6-2.5,4.5c0,0.1,0,0.1,0,0.2c0.7-0.1,1.4-0.2,2-0.2c3.8-0.3,7.7-0.3,11.5,0.2
		c5.8,0.7,11.4,1.8,16.4,5c0.3,0.3,0.8,0.4,1.3,0.4c2.2-0.4,4.3-0.1,6.5-0.3c1.1-0.1,2.2-0.6,3-1.3c1.5-1.2,2.9-2.5,4.1-4
		c1-1.2,1.6-2.6,1.8-4.1c0.2-1.8,0.6-3.6,1-5.4c0.3-1.2,0.9-2.4,1.8-3.3c0.4-0.4,1.1-0.5,1.6-0.3c0.5,0.3,0.9,0.8,0.8,1.4
		c0,0.4-0.1,0.8-0.2,1.2c-0.4,2-0.3,4.1,0.4,6.1c0.9,2.1,1,4.5,0.4,6.8c-0.2,0.9-0.3,1.8-0.3,2.8c0.1,1.6-0.1,3.2-0.5,4.8
		c-1.1,4.2-1.7,8.4-1.9,12.6c0.1,1.4-0.2,2.8-0.8,4c-0.4,0.7-0.4,1.7,0.2,2.4c1.7,3.1,2.6,6.6,2.8,10.1c0.4,5.1-0.7,10.2-3.1,14.8
		c-0.6,0.9-0.8,2.1-0.6,3.2c0.6,2.1,0.6,4.3,0,6.4c-0.3,1-0.2,2.1,0.4,3c2.9,4.3,3.5,9.2,4.3,14.1c0.4,2.3,0.2,4.7-0.4,6.9
		c-2.3,8.7-8.2,14-16.3,17.2c-1.9,0.7-3.8,1.2-5.5,2.4c-0.7,0.4-1.5,0.6-2.3,0.6c-2.9,0.3-5.8,0.2-8.6-0.3
		c-3.9-0.5-7.9-0.3-11.7,0.5c-4.7,0.9-9,2.8-13.5,4.3c-4.9,1.6-9.5,4-13.6,7c-2.5,1.8-4.9,3.6-7.3,5.5c-3.7,2.9-7,6.3-9.8,10.1
		c-1.8,2.6-3.9,4.9-6.2,7c-5.6,4.9-10.1,11-13,17.9c-0.3,0.8-0.9,1.4-1.6,1.7c-2.3,1-4.7,1.7-7.1,2c-0.8,0.1-1.7,0.1-2.5,0.1
		c-1.6,3.4-3.1,7-4.6,10.5c-1.7,4-3.2,8.3-4.7,13.1c-1.2,3.9-2.1,8-2.9,12.4c0.1,0.2,0.2,0.5,0.3,0.7c0.4,0.7,0.6,1.5,1.3,1.9
		c0.9,0.4,1.6,1.1,1.9,2c1,1.9,2.4,2,3.9,0.3c0.5-0.6,1-1.3,1.5-1.9c3.2-4.4,5.8-9.2,7.7-14.3c2.4-6.2,4.4-12.6,6.7-18.8
		c0.3-1.2,0.8-2.3,1.6-3.2c2.8-3,5.3-6.2,7.6-9.6c1.1-1.5,2.2-2.9,3.4-4.3c0.3-0.5,0.7-1,1.1-1.5c2.5-3,5.3-5.7,8.4-8
		c4.4-4,9.1-7.8,14-11.3c7.4-5.4,15.8-9.2,24.7-11.3c4.4-0.9,8.8-2.4,13.2-3.4c2.9-0.5,5.7-1.2,8.4-2.1c1.9-0.7,3.9-1.2,5.8-1.7
		c0.4-0.1,33.4-4.9,48.3-0.8c3.6,0.5,7,1.8,10.5,2.5c8.8,1.8,17.4,4.5,25.6,8.1c1.5,0.6,2.9,1.3,4.4,1.9l0.6,0.1
		c3,0.7,5.9,2.1,8.3,4l0.2,0.2c2.3,1.1,4.6,2.2,6.9,3.4c5.7,2.9,10.9,6.7,15.5,11.2c1.7,1.8,3.6,3.4,5.7,4.8c1.5,1,2.9,2.3,4,3.7
		c1.5,2.2,3.3,4.2,5.2,6c1.3,1.1,2.2,2.6,2.6,4.2c0.5,2.4,1.2,4.7,2.1,6.9C598.5,325.5,600.7,330.2,603.3,334.7z"/>
	<path class="st2" d="M530.8,598.1c1.3-0.1,2.5,0.4,3.4,1.2c2.9,2.5,7,3.1,10.3,1.5c1.6-0.7,2.8-1.6,3.8-2.8c0-1.8,0-3.7,0-5.5
		c0-2.1-0.1-4.2-1.8-5.8l-0.1-0.2c-0.2-0.3-0.4-0.7-0.5-1.1c-1.2-3.7-4.1-6-7.5-7.3c-4.1-1.6-8.3-3.4-12.3-5.4l-16.4-1.4
		c-3.9-0.4-8-0.4-12.2,0.2c-1.1,0.2-2.1,0.2-3.1,0.3c-0.4,0-0.8,0-1.1,0.1l-3.2,0.2c1.3,2,2.3,4.3,2.9,6.7c1.2,4.4-0.1,9.1-3.3,12.4
		c-0.9,0.9-1.4,2.1-1.2,3.4c0.3,1.6,0.2,3.2,0,4.8c-0.1,1.6-1,3.1-2.4,4c-1.6,0.9-3.3,0-3.1-1.8c0.3-2.4-0.8-4.4-1.7-6.4
		c-0.3-0.6-0.8-1.2-1.5-1.5c-3.8-1.7-5.7-5-6.8-8.8c-0.2-0.8-0.6-1.5-1.1-2.1c-2.1-2.3-4.2-4.7-6.4-7.1c-0.9-1-2.1-2-3.3-2.7
		c-0.6-0.4-1.3-0.6-2-0.4c-1.2,0.5-2.5,0.4-3.8,0.6c-4.5,0.9-8.9,2-12.1,5.7c-4.1,4.9-9.6,8.4-15.7,10.2c-3.2,1-5.3,2.9-5.7,6.3
		c0,0.2-0.1,0.3-0.1,0.5c-1.6,6.7-1.4,13.6-1.3,20.5c0.1,0.8,0.3,1.5,0.8,2.2c0.7,1.2,1.4,2.4,2,3.6c0.4,0.8,0.8,1.5,1.1,2.3
		c0.6-0.5,1-1.2,1-2v-2.3c0-2,0.5-4,1.5-5.7c1.7-3,3.3-6.2,4.8-9.3c0.6-1.1,1.1-2.3,1.7-3.4c1.3-2.3,3.1-4.1,5.3-5.2
		c0.9-0.4,1.8-0.4,2.7-0.1c0.1,0,0.2,0.1,0.3,0.1c1,0.2,2,0.7,3.1,1.1l0.3,0.1c5.1,2.7,10.3,5.5,14.2,9.7c1.8,1.8,3.3,4,4.2,6.5
		c1.6,4.3,4.5,8.4,8.1,11.6c1.9,1.6,4.1,2.8,6.6,3.5c1.7,0.6,3.5,0.8,5.2,0.8c2.6,0,5.2-0.6,7.6-1.8c4.5-2.3,7.8-6.2,9.4-11
		c0.3-0.9,0.6-1.9,0.9-2.8c0.3-0.9,0.5-1.8,0.8-2.7c2.1-6.6,6.9-10.7,15.1-12.7c1.3-0.4,2.7-0.5,3.9-0.4c0.1,0,0.2,0,0.3,0
		c1.3-0.1,2.7-0.1,4.1-0.1C527.8,598.2,529.3,598.2,530.8,598.1z"/>
	<path class="st2" d="M401.3,614.9c0.3-1.1,0.2-2.2-0.4-3.2c-0.5-1.1-1-2.3-1.4-3.5c-1-3.5-1.7-7-2-10.6c-0.3-2.9-0.7-5.7-1-8.6
		c-0.2-1.3-1.1-2.5-2.3-3c-4.2-2.3-8.5-2.5-13-1.5c-0.9,0.1-1.7,0.6-2.2,1.3c-2.7,4-6.3,7.3-10.6,9.5c-2.2,1.2-3.9,3.1-4.9,5.4
		c-0.3,0.6-0.5,1.3-0.7,2c-0.1,0.4-0.2,0.8-0.3,1.2c2.9,4.2,4.5,9,6.1,14.8c0.2,0.7,0.2,1.3,0,2c-1.2,4.4-2.1,8.7-3,13.4
		c-0.9,4-1.4,7-1.6,9.9c-0.3,3.6-0.4,6.8-0.1,9.7c1.1,1.7,2.2,3.2,3.3,4.8c0.8,1.2,1.6,2.3,2.5,3.5l0.7,0.9l0.1,0.1
		c0.5,0.5,1.1,1,1.6,1.5c1,0.8,2,1.6,3,2.3l0.7,0.4h20.6c-1.4-4.7-1.7-9.5-0.9-14.3c0.3-1.8,0.5-3.7,0.5-5.5c0-4.2,1.5-7.8,4.8-10.3
		c1.7-1.3,2.7-3.3,2.7-5.5c0.2-4.3-0.3-8.6-1.7-13C401.2,617.5,401,616.2,401.3,614.9z"/>
	<path class="st2" d="M439,647.2c-0.4-0.6-1-1-1.6-1.2c-0.1,0.8-0.1,1.6-0.3,2.3c0,0.2-0.1,0.5-0.1,0.7c-1.2,5.3-4.4,9.4-8.5,12.7
		c-2,1.6-4.1,3.1-6.3,4.4c-0.5,0.3-1,0.6-1.4,0.9h19.5c1.5-4,1.3-8.2,1.1-12C441.3,652.5,440.5,649.7,439,647.2z"/>
	<path class="st2" d="M559.1,660c0-1.3-0.6-1.7-1.7-1.7c-1.4,0-2.7-0.4-3.9-1.1c-0.5-0.3-1-0.7-0.8-1.3c0.1-0.6,0.6-0.6,1.1-0.7
		c1.5-0.3,3-0.7,4.5-1.1c0.8-0.2,1.5-0.5,2.3-0.7c-0.1-0.4-0.3-0.8-0.6-1.1c-1-1.1-2.1-2.2-3.1-3.2c-3.5-3.5-8-5.6-13-6
		c-6.4-0.6-12.9-0.3-19.2,0.9c-0.9,0.2-1.6,0.8-1.9,1.7c2.9,1,5.9,1.6,9,2.1c2,0.3,4,0.3,6,0.2c0.6,0,1.1,0,1.7,0
		c0.7,0,1.2,0.5,1.3,1.2c0.1,0.6-0.2,1.3-0.8,1.6s-1.2,0.5-1.8,0.7c-3.5,1.1-7.1,1.5-10.7,1.1c-1.4-0.1-2.2,0-2.4,1.5
		c0,0.4-0.1,0.8-0.4,1.1c-2.1,2.2-1.7,4.9-1.6,7.5c0,0.8,0.1,1.7,0,2.4s-0.1,1.5-0.1,2.2h42.1c-0.6-0.4-1.3-0.7-1.9-1
		C560.7,665,559.1,662.9,559.1,660z"/>
	<path class="st2" d="M361.5,550.1c-0.6-1-1.5-1.8-2.7-2.1c-2.4-0.7-4.7-1.6-6.9-2.7c-5.7-2.6-11.2-5.6-16.4-9l-0.1-0.1
		c-2.3-1.4-4.5-2.9-6.7-4.3c-3.3-2.1-6.3-4.8-8.6-8c-4.3-5.7-7.8-11.8-10.5-18.4c-0.3-0.7-0.6-1.5-0.8-2.2c-1.2,0.4-1.9,1.5-1.7,2.7
		c0.7,4.6,1.6,8.9,2.9,12.9c1.5,4.9,3.4,9.7,5.5,14.4c0.9,2,0.2,2.9-0.5,3.5c-1.2,0.7-2.3,1.7-3.3,3c-1.4,1.9-2.8,3.7-4.2,5.5
		c-4,5.1-7.6,10.8-10.8,16.9c-4.5,8.9-7,18.4-7.6,28.3c-0.1,1.2-0.2,2.5-0.2,3.8l1.4,0.4l1.1,0.3h0.2l1.3,0.4l2.5,0.8l1.2,0.4
		c0.4,0.2,0.8,0.3,1.2,0.5l2.5,0.9l1.2,0.5c0.4,0.2,0.8,0.3,1.2,0.5c3.9,1.6,7.8,3.4,11.6,5.5c0.8,0.4,1.5,0.8,2.3,1.3
		c0.2-0.3,0.3-0.5,0.5-0.8c0.2-0.4,0.5-0.7,0.7-1.1l0.5-0.8c1.4-2.3,2.8-4.5,4.8-6c1.4-1,2.8-2,4.3-3.1c1.2-0.8,2.5-1.7,3.8-2.7l0,0
		c0.5,0.4,1.1,0.7,1.6,1.1c0.5,0.3,0.9,0.6,1.4,0.9c1.5,1.2,3.2,2.3,5.2,3.3c4.4,2.3,9.1,3.6,13.9,4.1c0.1,0,0.1,0,0.2,0
		c0-1,0-1.9,0-2.9c0.1-4,0.7-7.9,1.8-11.7c2-6.7,4.2-13.4,6.6-20c0.6-1.6,1.1-3.2,1.5-4.8C364,557.4,363.4,553.5,361.5,550.1z
		 M335.5,536.5l-0.1-0.1L335.5,536.5L335.5,536.5z"/>
	<path class="st2" d="M487.1,659.3c-1.9,0.9-4,1.1-6.1,0.7c-2-0.3-3.7-1.7-4.6-3.5c-0.4-0.8-0.5-1.8-0.3-2.7c0.3-1,1-1.8,2-2.1
		c0.2-0.1,0.3-0.2,0.4-0.2c0.9-0.3,1.7-0.7,2.4-1.3c0.4-0.3,0.8-0.6,1.2-1c0.2-0.2,0.4-0.4,0.6-0.5c-0.7-0.8-1.8-1.2-2.8-0.8
		c-1.2,0.4-2.3,1-3.2,1.7c-0.1,0.1-0.3,0.2-0.5,0.4c-0.4,0.4-0.7,1-0.7,1.5c-0.5,0.1-1,0.4-1.4,0.8c-0.9,1.1-2.2,1.8-3.7,2.7
		c-0.7,0.4-1.4,0.8-2.1,1.3c-2.9,1.8-4.8,4.7-5.3,8.1v0.1v0.1c-0.1,0.8-0.2,1.6-0.1,2.5H494c-1.3-2.4-2.6-4.7-4.1-6.9
		C488.9,658.6,488.9,658.6,487.1,659.3z"/>
	<path class="st2" d="M672.9,192.8c0.7,2.6,1.5,5.5,3.5,8.1c0.7,1,2.3,3.6,3.7,6.2l0.9,1.6c0.5,0.8,1.3,1.3,2.3,1.2
		c-0.1-0.5-0.3-1-0.4-1.5c-0.1-0.3-0.2-0.6-0.2-0.9c-0.1-0.7,0-1.6,0.3-2.3c0.1-0.4,0.4-0.7,0.7-0.9c0.8-0.5,1.9-0.3,2.4,0.5
		c0.4,0.6,0.8,1.3,1.1,1.9c3.4,6.1,8.6,10.3,14.4,13.8c1.3-2.9,1.9-6,1.8-9.2c-0.1-4.9-0.5-9.8-1.3-14.6c-1.7-9.1-5-17.9-9.5-26
		c-2.4-4.5-5.8-8.5-9.8-11.7c-1.9-1.5-3.8-3-5.8-4.5c-0.6-0.4-1.2-0.8-1.8-1.2c-0.1,0.3-0.2,0.7-0.2,1c0,2.6,0,5.1,0.1,7.7
		c0,3.2-0.5,6-1.6,8.8c-0.6,1.6-1.1,3.1-1.4,4.4c-0.9,2.6-1.3,5.1-1.2,7.7v0.1C671.2,186.4,671.9,189.6,672.9,192.8z"/>
	<path class="st2" d="M318.5,371.1l-0.6,1.6c-1.3,3.4-2.5,6.6-3.9,9.7c0.3,0.3,0.4,0.7,0.6,1.1l0.8,2.4c0.4,1.4,0.8,2.7,1.2,4
		c3.1,10.7,4.6,21.5,3.2,32.7c-0.9,7.3-1.5,14.8-1.7,22.2c-0.1,3.8-0.6,7.7-1.5,11.4c-0.2,0.8-0.2,1.7-0.1,2.6
		c1.7,10.8,4.9,21.2,9.7,31c0.4,0.9,0.9,1.8,1.6,2.5c0.5-0.4,0.3-0.8,0.3-1.2c-0.3-2.4-0.3-4.9-0.2-7.4c0.7-11.7,0.6-23.4,2.3-35
		c0.7-4.9,0.4-9.9-1-14.7c-2-6.7-2.2-13.7-2.1-20.7c0-3.6,0.7-7.2,2-10.6c2.9-7.1,4.8-14.4,7.6-21.5c0.6-1.1,0.3-2.5-0.7-3.3
		c-4-4.1-7.3-8.8-8.7-14.4c-0.9-3.6-2.1-7.2-3.3-10.7c-0.8-2.4-1.5-4.8-1.9-7.2c-0.6-3.5-1.1-7-1.8-10.5c-0.2-1.1-0.4-2.3-0.7-3.4
		c-0.8,0.3-1.4,1-1.5,1.8c-0.7,3-1.2,5.9-1.4,8.6c-0.5,5.9-0.1,11.6,1.1,17.6c0.7,3.1,1.1,6.3,1.1,9.4c0,0.8-0.1,1.3-0.3,1.8
		C318.5,371,318.5,371,318.5,371.1z"/>
	<path class="st2" d="M582.4,89c1.7,3.7,4,7.1,6.9,9.9c6.5,6.4,13.4,12.3,20.7,17.8c1.6,1.1,3.1,2.5,4.4,4c1.1,1.3,1.9,2.8,2.1,4.5
		c0.1,1.5,0.9,2.1,2,2.7l2.5,1.4c0.8,0.4,1.5,0.9,2.3,1.3c1.3-1.3,2.3-2.9,2.7-4.7v-0.1c0.5-2.7,0.4-5.2-0.4-7.5
		c-1.6-6.6-5.3-12.3-8.8-17c-2.7-3.8-6.7-6.9-11.3-8.6c-3-1-5.9-1.7-8.9-2.1c-0.9-0.1-1.8-0.5-2.3-1.2c-1-1.3-2.4-2.4-4.2-3.3
		c-1.4-0.7-3.9-1.9-6.6-0.8c-0.8,0.3-1.5,0.7-2.2,1.2c0,0.1,0.1,0.1,0.1,0.2C581.8,87.5,582.1,88.2,582.4,89z"/>
</g>
<g>
	<path class="st3" d="M387.2,229.2c0.2,0.8,0.3,1.7,0.3,2.6c-0.1,6.1-5,11-11.1,11c-5.1,0-9.3-3.4-10.6-8c-0.3-1-0.5-2-0.5-3
		s0.2-2,0.4-2.9c-2.6,4.2-2.6,9.5,0.2,13.6c1.1,1.7,2.5,3,4.1,3.9c0.2,0.1,0.4,0.2,0.5,0.3s0.3,0.1,0.4,0.2c0.2,0.1,0.5,0.2,0.7,0.3
		s0.3,0.1,0.5,0.2c0.2,0.1,0.5,0.2,0.7,0.2s0.3,0.1,0.5,0.1c0.2,0.1,0.5,0.1,0.7,0.2c0.2,0,0.3,0.1,0.5,0.1s0.5,0.1,0.7,0.1
		c0.1,0,0.3,0,0.4,0c0.3,0,0.5,0,0.8,0c0.1,0,0.2,0,0.3,0c0.3,0,0.7,0,1-0.1h0.1c3.6-0.4,7-2.4,9.1-5.7c0.5-0.8,0.9-1.6,1.3-2.5
		v-0.1c0.1-0.2,0.2-0.4,0.2-0.7c1-3.4,0.6-7.3-1.5-10.5C387.1,228.8,387.1,229,387.2,229.2z"/>
	<path class="st3" d="M606.3,229.9c0.2,0.9,0.4,1.9,0.4,2.9c0,6.1-5,11.1-11.1,11.1c-3.6,0-6.8-1.8-8.9-4.4
		c-1.4-1.8-2.3-4.1-2.3-6.7c0-1,0.2-2,0.4-2.9c-3.5,5.9-1.9,13.4,3.9,17.2c1.8,1.2,3.9,1.8,5.9,2l0,0c0.3,0,0.6,0,0.9,0
		c0.3,0,0.6,0,0.9,0l0,0c2-0.2,4.1-0.8,5.9-2C608.2,243.3,609.8,235.7,606.3,229.9z"/>
</g>
<g>
	<path class="st4" d="M376.4,224.8c-1.6,0.6-2.9,2.1-3.3,3.8c-0.6,2.2,0,4.7,1.7,6.4c1.8,1.6,4.3,2.1,6.5,1.3
		c2.4-0.6,4.1-2.8,3.9-5.3C385.6,227.1,379.2,223.6,376.4,224.8z"/>
	<path class="st4" d="M597.7,225.4c-3.1,0-5.7,2.6-5.7,5.8c0,3.1,2.5,5.7,5.7,5.6c3.1,0,5.7-2.5,5.7-5.7
		C603.4,228,600.9,225.4,597.7,225.4z"/>
</g>
<g>
	<path class="st5" d="M431.9,334.6c1.4-0.3,2.8-0.7,4.2-1c3.6-0.6,7.4-0.1,10.8,1.3c2.1,0.8,4.1,0.3,6.1-0.5c-1-2.3-3-4.1-5.4-5
		c-2.5-0.8-4.1-3.1-3.9-5.7c0.1-0.6,0-1.2-0.3-1.8c-1-1.5-0.6-2.9,0.3-4.3c1.4-2.4,3.8-4,6.5-4.5c4.3-0.7,8.2-0.1,11.8,2.8
		c3.2,2.4,5.5,5.8,6.6,9.7c1.3,4.4,0.7,8.8-0.4,12.7c-0.3,1.3-1.2,2.4-2.3,3c-6.4,4.1-12.9,4.9-19.8,1.4c-0.8-0.5-1.6-0.8-2.5-0.8
		c-1.9,0-3.7-0.2-5.5-0.6c-1.6-0.3-3.3,0-4.7,0.7c-1.1,0.5-1.1,1-0.6,2c1.5,2.9,3.8,5.3,6.7,7c4.3,2.4,8.8,4.5,13.5,6.2
		c7.2,2.4,14.2,5.2,20.3,9.7c0.3,0.4,0.8,0.4,1.2,0.2c0-2.1,0.2-4.2,0.8-6.3c0.7-2,1.5-4.1,2.4-6c1.1-2.3,1.7-4.8,1.9-7.4
		c0.2-2.7,0.7-5.4,1.5-8c0.4-1.5,1.7-2.4,3.2-2.3c1.4,0,2.5,1,2.7,2.3c0.3,0.8,0.6,1.5,0.7,2.3c1.8,10,4.3,19.8,3.9,30.2
		c2.2-0.6,4.3-1.7,6.1-3.2c1.7-1.3,3.4-2.6,5.3-3.7c5.6-3,10.8-6.5,16.7-9c5-2.2,9.2-5.7,12.1-10.3c0.8-1,1.4-2.1,1.8-3.3
		c-0.2-0.1-0.3-0.2-0.3-0.2c-0.4,0.1-0.7,0.2-1.1,0.4c-2.6,1.2-5.6,1.6-8.4,0.9c-4.2-1.1-8.7-0.8-12.7,0.9c-1.1,0.4-2.2,0.8-3.4,1
		c-4.3,1.1-8.9-0.4-11.7-3.8c-1.6-1.8-2.9-4-3.6-6.4c-0.9-2.4-0.8-5.1,0.1-7.5c1.1-2.7,2.4-5.4,4.1-7.8c1.4-2.1,3.4-3.7,5.8-4.5
		c2-0.5,4-1,6.1-1.3c3.2-0.6,6.5,1.1,7.8,4.2c2,4.1,0.8,9.1-2.9,11.8c-0.6,0.5-1.2,0.8-1.8,1.2c-1.2,0.8-1.2,1.3,0,2.2
		c0.2,0.2,0.4,0.3,0.6,0.4c4.4,2,9.2,2.8,14,2.2c1.1-0.3,2.2-0.7,3.1-1.3c1.6-0.9,3.1-1.7,4.8-2.3c2.8-0.9,4.5-2.6,4.1-5.8
		c0-0.2,0-0.3,0-0.5c0.2-1-0.3-1.9-1.2-2.4c-1.3-0.8-2.5-1.7-3.7-2.6c-2.2-1.6-3.6-4.1-3.8-6.9c0-0.7-0.3-1.4-0.7-2
		c-3.6-4.8-8.1-8.4-14.2-9.4c-1.5-0.3-3-0.5-4.5-0.8c-0.9-0.1-2.2-0.2-2.2-1.4c0-1.4,1.4-1.2,2.2-1.3c7-0.4,13.9,0.1,20.3,3.4
		c0.7,0.5,1.6,0.7,2.5,0.4c-0.1-1.1-0.5-2.3-1.2-3.3c-3.1-5.8-7.9-10.7-13.8-13.9c-4.1-2.2-8.3-4.1-12.6-5.9c-2.7-1.1-5.5-1.7-8.4-2
		c-11.2-1.3-22.3,0.2-33.4,2c-8.2,1.2-15.9,4.7-22.1,10.2c-2.1,1.7-3.7,4-4.6,6.6c-0.5,1.8-1.5,3.4-2.8,4.7
		c-0.6,0.4-0.9,1.1-0.8,1.8c0.5-0.4,0.8-0.6,1.1-0.9c3.1-3.3,7.5-5.2,12-5.3c2.1-0.1,4.3-0.4,6.4-0.6c2.3-0.1,4.6-0.1,6.9,0.1
		c0.6,0,1.1,0.4,1.2,1c0.2,0.6-0.1,1.3-0.7,1.6c-0.7,0.4-1.4,0.7-2.2,0.9c-1.6,0.5-3.1,0.8-4.7,1.1c-5.9,1-11.3,3.8-15.4,8.2
		c-1.6,1.7-3.1,3.4-3.6,5.8c-0.3,1.7-1.2,3.2-2.6,4.2c-0.6,0.4-1,1.1-1,1.8c-0.5,4-0.6,8-0.4,12C430.3,335,430.5,334.9,431.9,334.6z
		"/>
	<path class="st5" d="M538.1,503.1c1,0.8,1.9,1.7,2.8,2.6c3.5,3.7,7.7,3.8,12.4,2.5c1.1-0.4,1.6-0.9,1.4-2.1c-0.3-1-0.4-2.1-0.5-3.1
		c-1.9-14.9-1.9-14.9-6.8-26.7c-0.2-0.5-0.4-1-0.6-1.5c-0.2-0.3-0.3-0.6-0.7-0.6c-0.1,0-0.2,0-0.2,0.1c-0.2,0.3-0.2,0.6-0.3,0.9
		c-0.6,4-2.3,7.8-4.9,10.8c-1.8,2.3-3.8,4.3-6,6.2c-0.8,0.6-1.4,1.2-1.1,2.4C534.5,497.8,535.5,500.8,538.1,503.1z"/>
	<path class="st5" d="M641,434.7c0-0.1,0-0.2,0-0.3s0-0.2,0-0.3c-0.1-0.5-0.2-1-0.3-1.5v-0.1c-0.1-0.1-0.1-0.2-0.1-0.3
		c-0.5-1.6-1.3-3.2-2.5-4.4c-3.3-3.6-4.8-8.5-4-13.3c0.2-1.6,0.6-3.1,0.9-4.7c0.2-0.7,0.1-1.5-0.2-2.1c-2-3.3-2.8-7-3.6-10.8
		c-1.3-7.3-4.8-14-10-19.3c-4.2-4.2-8-8.8-11.8-13.3c-2.8-3.2-5.2-6.7-7.3-10.4c-4.9-8.9-9.5-17.9-13-27.5
		c-3-8.1-7.3-15.7-12.9-22.3c-0.8-1.1-1.8-2-3-2.7c-0.5-0.4-1.3-0.4-1.8-0.1c-1.4,0.8-3,1-4.6,0.7c-1.3-0.1-2.7-0.3-4-0.5
		c-4.4-0.8-8.2,1.2-12.5,2.3c0.7,0.7,1.5,1.1,2.4,1.2c3,0.9,5.8,2.2,8.5,3.8c15.3,9.5,23.4,23.4,24.6,41.3c0,2.2,1.2,4.2,3.1,5.2
		c8.3,5.2,14.2,12.8,19.3,21c0.9,1.5,1.6,3.1,2.1,4.8c2.1,6.1,3.6,12.3,4.3,18.7c0.2,2.3,1,4.6,2.3,6.5c1.5,2.3,3.2,4.4,4.8,6.6
		c7.3,10,8.6,20.9,4.5,32.5c-1.4,3.8-4.5,6.8-8.4,8c-0.5,0.2-1.2,0.1-1.5,0.7c0.3,0.9,1.2,1.4,1.8,2.1c3.9,4.6,3.9,10.6,0.6,14.5
		c-0.3,0.4-0.6,0.8-0.8,1.2c-1.7,2.6-1.7,2.7,0.1,5.3c1.5,2.1,3,4.1,4.4,6.3c3,4.4,5,9.4,5.9,14.6c0.7,5.3,0.7,10.6-0.3,15.8
		c-0.6,3-1.7,5.8-3.4,8.4c-0.4,0.7-0.9,1.3-1.5,1.9c-0.9,0.8-1.7,0.7-2.4-0.3c-1.1-1.5-2.6-2.8-4.4-3.6c-1.1-0.5-2-1.3-2.7-2.3
		c-3.3-4.1-6.4-8.3-9.4-12.7c-3.1-4.3-4.6-9.6-4.2-14.9c0.2-3.8,0.5-7.7,0.6-11.5c0.5-13.9-3.5-26-14.5-35.2c-1.2-1-2.1-2.3-2.5-3.8
		c-0.3-0.9-0.6-1.8-0.9-2.7c-4.7-13.9-13.2-24.3-27-30.1c-4.1-1.7-8.3-3.2-12.6-4.6c-3.9-1.3-7.9-2.1-12-2.5
		c-1.4-0.2-2.8-0.1-4.1,0.2c0.5,0.6,1.2,1,2,1c9,2.1,17.5,5.6,25.8,9.5c4.5,2.1,8.6,5.1,12,8.7c5.2,5.6,8.8,12.5,10.4,20
		c0.8,4.1,2.8,7.9,5.9,10.7c1.9,1.7,3.4,3.7,4.4,6c2.2,4.3,3.7,8.9,4.5,13.6c0.4,2.8,0.8,5.6,1.5,8.3c1.1,4.4,1.5,9,1,13.5
		c-0.3,5.5,0.3,10.9,2.8,15.9c0.9,1.8,1.6,3.7,2.2,5.6c1.1,3.2,2.1,6.4,3.4,9.5c0.7,1.6,1.1,3.3,1.7,5.2c-2.4-0.5-4.8-1.4-7-2.8
		c-12.5-7.2-19.6-18.3-23.4-31.8c-0.3-0.8-0.4-1.7-0.5-2.6c-0.2-3-1.5-5.8-3.7-7.8c-4.6-4.6-7.3-10.8-7.2-17.3
		c-0.2-4.9-0.8-9.8-1.9-14.5c-1.4-7.1-5.4-13.5-11.3-17.7c-7.2-5.2-14.9-9.6-23.7-11.8c-3.1-0.8-6.1-1.6-9.1-2.3
		c-6.8-1.6-13.3-3.9-19.1-8c-2.8-2.1-6-3.1-9.3-4.9c-0.3,2.8,0.5,5.7,2.2,8c4,5.6,9.6,9.9,16,12.5c3.8,1.6,7.8,2.8,11.7,4.3
		c5.5,2,10.7,4.7,15.4,8.2c4.3,3.3,8.1,7.1,10.3,12.1c1.5,3.4,3.9,6.2,5.9,9.3c1.9,2.9,3.7,5.8,5.4,8.6c3.8,8,6.3,16.5,7.6,25.2
		c0.9,5.4,1.9,10.8,4.1,15.7c1.9,4.6,4.6,8.9,8,12.5c6,6,13.1,10.8,20.9,14.1c1.9,0.8,3.9,1.4,6,1.7c1.5,0.3,3.2,0,4.5-1
		c1.2-0.9,2.4-1.8,3.6-2.8c1.7-1.4,3.5-2.6,5.8-2.6c1-0.1,1.9-0.4,2.7-0.9c1.1-0.5,2.2-0.9,3.4-1.1c2.7-0.5,5.5-1.4,7.5-3.4
		c3-3.1,5.8-6.3,6.8-10.6c0.3-1.3,0.7-2.6,1.1-3.9c0.8-2.9,1-6,0.6-9c-0.6-5.9-2-11.7-4.3-17.2c-1.6-3.6-2-7.6-1.2-11.5
		c0.7-3.5,2.1-6.8,3.9-9.8c1.6-2.6,2.8-5.4,3.5-8.4c0.5-2.1,1-4.2,1.6-6.3c0.7-2.7,0.8-5.4,0.4-8.1
		C641.5,439.5,641.2,437.1,641,434.7z"/>
	<path class="st5" d="M417.1,513.2c0.6-1.8,1-3.6,1.2-5.4c0.7-6.4,1-12.8,0.8-19.2c-0.2-6.7,0.6-13.4,2.5-19.9
		c0.6-2.3,0.7-4.8,0.2-7.1c-0.6-3.3-1.3-6.5-0.6-9.8c0.2-0.9-0.3-1.2-1.1-1.5c-0.8-0.2-1.7-0.5-2.5-0.8c-1.3-0.4-2.1-1.6-2.1-2.9
		c0-1.5,1-2.7,2.4-3c1.1-0.3,2.2-0.4,3.3-0.3c2.6,0.2,5.3,0,7.8-0.7c6.7-1.8,13.1-4.8,18.8-8.8c1.3-1,2.3-2.3,4.2-1.8
		c0.2,0.1,0.7-0.3,1-0.5c3.8-2.4,8-4,12.4-4.9c2-0.5,3.9-1.4,5.6-2.6c3.4-2.5,5.9-6,7.2-10c0.9-2.2,1.3-4.4,1.2-6.7
		c-0.3,0-0.4,0-0.4,0c-0.9,0.7-1.9,1.4-2.8,2.2c-4.8,3.9-10.3,7-16.2,9.1c-1.6,0.5-3,1.3-4.2,2.5c-5.5,5.9-13,9.6-21,10.5
		c-2.1,0.3-4.2,0.7-6.2,1c-6.1,1-11.8,3.6-17.6,5.5c-0.8,0.3-1.6,0.9-2.1,1.6c-2.2,2.6-4.1,5.5-5.5,8.7c-0.9,1.9-1.1,4-0.7,6.1
		c0.8,4.3,2.6,8.3,5.1,11.8c0.9,1.3,1.9,2.5,2.9,3.8c3.3,4.3,5.2,9.4,5.7,14.8c0.7,8.8-0.4,17.7-3.4,26
		c-3.6,10.2-10.3,17.8-19.6,23.1c-3,2-6.8,2.2-10.1,0.7c-2.7-1.3-6.6-8.4-8.1-9.6c-0.5-0.5-1.1-0.8-1.7-1.3
		c-2.4-1.9-4.3-4.4-5.4-7.2c-2.3-5.7-2.7-12.1-1.2-18.1c0.7-3,2.2-5.6,4.3-7.7c4.1-3.7,5.9-8.4,6.4-13.8c0.1-2.7,0.5-5.3,0.9-7.9
		c1.5-7.6,3.7-15,4.5-22.8c0.1-1.5,0.9-3,2-4c2.2-2.1,3.8-4.8,4.6-7.7c1.1-3.6,3.4-6.7,6.4-9c2.6-2,5.3-3.8,8.1-5.6
		c2.1-1.3,4.4-2.1,6.8-2.3c2.7-0.2,5.4-0.6,8.1-0.7c2.6,0,5-1.6,6-4c0.8-1.9,2.3-3.3,4.2-4c3.7-1.4,6.9-3.9,10.7-5.3
		c0.8-0.3,1.6-0.7,2.3-1.2c3.5-2.6,7.2-4.8,11.7-5c0.9,0,1.1-0.7,0.4-1.3c-0.9-1-2.3-1.5-3.7-1.2c-1.7,0.3-3.3,1-4.8,2
		c-2.6,1.7-5,3.7-8.1,4.5c-1.1,0.4-2.3,0.4-3.4,0c-1.5-0.8-3.2-1.1-4.9-0.9c-3.9,0.4-7.6,2.1-10.5,4.8c-0.5,0.6-1.2,1.1-1.9,1.4
		c-2.8,1.1-5.5,2.5-8.4,3.5c-9.7,3.4-17.7,9.4-24.9,16.6c-2.3,2.2-4,4.8-5.2,7.7c-1.6,3.8-2.8,7.7-3.5,11.7
		c-0.5,2.9-0.7,5.9-1.5,8.7c-2.2,7-3.8,14.2-4.7,21.5c-0.2,2.8-1.2,5.4-3,7.5c-4.4,4.9-7,11.1-7.6,17.6c0,0.4,0.2,1.1-0.6,1.3
		c-0.5-0.8-0.9-1.7-1.1-2.6c-0.7-2.1-1.3-4.3-1.6-6.5c-1.1-7.2-1.3-14.5-0.8-21.8c0.2-1.8-0.3-3.7-1.3-5.2c-0.4-0.4-0.6-0.9-0.5-1.5
		c0.6,0.3,1.2,0.6,1.9,0.8c0.4,0.1,0.8,0.1,1.2,0.1c1.7-0.1,2.9-1.6,2.8-3.3c-0.1-0.8-0.3-1.7-0.7-2.5c-0.5-1.3-1.2-2.6-1.6-4
		c-4.1-12.1-4.9-25.1-2.5-37.6c1.7-8.9,5.2-16.9,11.6-23.5c4.5-4.7,8.7-9.6,13.6-13.9c1.5-1.3,2.9-2.8,4.3-4.2
		c6-6.2,9.8-14.2,10.7-22.8c0.5-4.4,0.8-8.8,1.1-13.2c0.1-3.2,0.9-6.2,2.1-9.1c1.5-3.3,2.9-6.7,4.5-10c0.7-1.1,0.6-2.5-0.4-3.4
		c-1-1.2-2-2.4-3-3.5c-0.3-0.3-0.6-0.6-0.9-0.8c-1.8-1.2-4.3-0.7-5.5,1.1c-7,8.8-12.1,18.4-14.7,29.4c-2,8.5-5.8,16.5-11.2,23.4
		c-2.4,3.2-4.7,6.6-7,10c-7,10.4-12.5,21.8-16.3,33.8c-1.6,5-2,10.4-1.1,15.6c1.3,7.1,2.3,14.2,1.5,21.5c-0.3,2.3-0.7,4.7-0.9,7.1
		c-0.8,10.1-0.9,20.3-0.3,30.4c0.2,2.2,0.6,4.4,1.1,6.6c2.4,10.8,8,20,14.8,28.7c3.3,4.4,7.5,7.9,12.4,10.4c3.7,1.8,7.3,3.8,11,5.8
		c1.1,0.6,2.1,1.2,3,2c7.2,6.9,21.8,1.9,23.7-0.2c3.8-4.7,6.2-10.3,7-16.3C415,520.1,415.8,516.6,417.1,513.2z"/>
	<path class="st5" d="M585.6,557.4c-2.6-0.5-4.8-0.4-6.9,1.6c-2.2,2.2-5.1,3.6-8.2,4.2c-4.3,0.8-8.6,1.2-12.9,1.2
		c-2.9,0-5.7-0.8-8.2-2.3c-0.2-0.2-0.5-0.3-0.7-0.5c-3.6-2.6-4.3-7.6-1.7-11.2c0.6-0.9,1.3-1.7,2-2.4c2.2-2.3,1.4-5.1-1.7-6
		c-1.4-0.4-2.8-0.7-4.2-0.9c-4.5-0.8-8.6-2.4-11.7-6c-0.6-0.8-1.2-0.9-2-0.3c-2.6,2-6.1,2.9-8.5,5.3c-0.3,0.3-0.6,0.5-1,0.6
		c-4.1,1.6-8.4,2.9-12.7,3.8c-0.8,0.1-1.7,0.2-2.6,0.1c-5.4-0.4-8.5-5.2-6.5-10.3c0.4-1.1,0.5-2.2,0.2-3.3c-0.5-1.5-0.6-3-0.5-4.5
		c0.2-2.3,0.4-4.6,0.7-6.9c0.2-1.7,1-3.3,2.2-4.4c1.8-1.8,2.2-1.8,3.6,0.3c1.3,2.3,2.4,4.7,3.2,7.2c0.5,1.3,1.2,2.3,2.7,2.4
		c1.7,0.2,3.5,0.1,5.2-0.3c1.3-0.2,2.4-1,3-2.1c0.5-1.1,1.4-2.1,2.4-2.7c2.5-1.6,3.5-4,4.2-6.7c0.7-3.1,1.1-6.2,1.1-9.3
		c0.1-0.5,0-1-0.2-1.4c-1.5-3.5-3.4-6.7-7-8.5c-2-1-4.1-1.8-6.1-2.8c-4.1-2.1-8.8-2.8-13.3-2c-1.5,0.2-3.2,0.1-4.7-0.3
		c-2.6-0.4-5.5-0.8-8,0.2c-2.6,1-5.3,1.7-8.1,2c-6.6,0.7-13.1,1.2-19.6,2c-4.1,0.6-8.2,0.6-12.2,0h-0.1c-0.9-0.3-1.8,0.3-2.1,1.2
		c-1,2.8-1.9,5.7-3.1,8.5c2.9-1,5.9-1.6,9-1.8c2.6-0.3,5.2,1.1,6.3,3.5c0.4,0.7,0.7,1.5,1,2.2c1.7,4.1,3.2,8.3,4.4,12.6
		c0.1,1,0.5,2,1.2,2.9c0.8-1.7,1-3.4,1.8-5c2-3.7,5.9-4,8.4-0.7c0.8,1.2,1.3,2.4,1.5,3.8c0.2,0.9,0.4,1.8,0.5,2.8
		c0.6,3.4,1.9,6.2,5.3,8c2.8,1.5,4.4,4.6,3.9,7.7c-0.2,3-2.2,5.7-5,6.8c-1.3,0.6-2.9,0.9-4.4,0.8c-0.8-0.1-1.5,0.3-1.9,1
		c-3.2,4.6-7.5,5.9-12.2,3.2c-0.9-0.5-1.8-0.8-2.7-1.1c-4.8-1.6-9.4-3.4-13-7c-0.6-0.6-1.3-1-1.9-1.5c-0.8-0.8-2.2-0.8-3,0
		c-3.7,2.8-8.6,3.6-13,2.2c-1.8-0.5-3.7-0.7-5.5-0.5c-1,0-1.8,0.7-2.1,1.6c-0.8,2-1.9,3.9-3.3,5.5c-1.7,2-3.5,3.8-5.4,5.5
		c-1.6,1.4-1.5,1.4,0,2.9c2.8,2.7,6.3,3.9,10,4.8c1.7,0.4,3.5,0.5,5.2,0.1c3.2-0.7,6.3-1.6,9.4-2.7c4.3-1.4,8.8-1.9,13.3-1.3
		c9.5,1.2,19,2.1,28.5,3.6c3.9,0.6,7.7,1.2,11.6,1.9c1,0.1,2.1,0.4,3,0.9c0.2,0.2,0.4,0.4,0.5,0.7c0.1,0.1,0.1,0.3,0,0.5
		c-0.1,0.4-0.5,0.7-0.9,0.7c-1,0-2.1-0.1-2.9-0.1c-0.9,0-1.7-0.4-2.6,0c0.2,0.9,0.8,1.3,1.3,1.8c0.8,0.9,1.5,1.9,2.2,2.9l3.2-0.2
		c0.4,0,0.8,0,1.1-0.1c0.9,0,2-0.1,3.1-0.3c4.2-0.5,8.3-0.6,12.2-0.2l16.4,1.4c-1.4-0.7-2.9-1.4-4.3-2.1c-3.4-1.7-6.9-3.2-10.5-4.5
		c-1.8-0.6-3.7-1.1-5.6-1.5c-0.8-0.1-1.6-0.3-1.6-1.2s0.6-1.3,1.2-1.7c1.4-0.7,3-1.1,4.6-1.1c4.4-0.3,8.9,0.1,13.1,1.3
		c2.2,0.6,4.5,1.2,6.7,1.8c10.4,2.6,20.7,5.2,31.4,5.5c3.1,0.2,6.2-0.3,9.2-1.3c3-1.1,6-2.1,9.1-3c2.7-0.8,4.8-2.6,7.1-4
		c1-0.7,0.6-1.6,0.6-2.4C587.1,557.5,586.3,557.5,585.6,557.4z"/>
	<path class="st5" d="M569.9,256.4c0.8,0.7,1.5,1.7,1.9,2.7c0.3,1,1.1,1.6,2.1,1.8c2.1,0.6,4.2,1.1,6.3,1.6c3.5,0.6,6.8,2.4,9.3,5
		c1.3,1.5,3.2,2.5,5.3,2.8c1,0.2,2,0.5,3,0.7c3.2,0.7,6.5,0.6,9.5-0.5c1.7-0.6,3.3-1.3,4.9-2c1.8-0.8,3.4-2.1,4.6-3.7
		c2.2-2.9,4.5-5.7,6.7-8.5c1.9-2.6,4.6-4.5,7.6-5.6c1.1-0.2,2.1-0.7,3-1.4c-0.5-0.7-1.2-0.6-1.9-0.9c-1.1-0.3-2.1-0.8-3-1.5
		c-1.4-1.2-1.5-1.2-2.9,0c-2.6,2.1-5,4.5-7.4,6.8c-4.5,4.5-10.4,7.2-16.7,7.7c-7.9,0.8-15.9-0.6-23.1-4c-4.7-2.5-9.1-5.3-13.3-8.7
		c-0.7-0.7-1.5-1.2-2.4-1.5c0.2,1.1,0.7,2,1.4,2.8C566.4,252.3,568.1,254.4,569.9,256.4z"/>
	<path class="st5" d="M347.5,260.3c1.2,0.6,2.4,1.2,3.6,1.9c4.5,2.6,9.4,4.3,14.6,5c7.2,1.4,14.6,0.5,21.3-2.6
		c1.5-0.7,3-1.4,4.6-1.9c4.2-1.2,7.8-3.8,10.3-7.4c1.9-2.7,4.2-5.2,6.2-8.2c-1.2-0.3-2.5,0.1-3.4,0.9c-1.9,1.4-3.8,2.8-5.6,4.2
		c-8,6-17.7,9.3-27.7,9.4c-7.8,0.2-15.4-2.7-21-8.2c-1.6-1.5-3.2-3.1-4.9-4.6c-0.8-0.8-1.6-1.9-2.6-2c-1-0.2-1.2,1.3-2.1,1.7
		c-1,0.3-1.7,1.3-1.6,2.4c0,1,0.3,2,0.8,2.9C341.9,256.6,344.4,258.9,347.5,260.3z"/>
	<path class="st5" d="M314.7,86.5c-5.8,4.1-8,8.3-19,28.9c-8.1,15.2-9,16.8-9.9,20.6c-2.3,9.8-0.1,14.9,0.8,25.7
		c1.7,19.9-2.8,36.4-7.1,52.2c-3.9,14.3-6,15.5-8.3,28.1c-2.4,13.1-0.3,13-2.8,28.1c-2.5,15.1-5.7,22.6-1.6,26.5
		c2,1.9,5.8,3,8.3,1.6c6.8-3.9-2.8-22.3,0.4-45.5c1.9-14.1,6.3-13.4,13.4-33.6c4.4-12.4,3.7-15.3,11.1-64.1
		c5.1-33.6,6.6-39.3,11.1-47.1c8.7-14.9,21-23.9,19-26.5C328.7,79.5,320.7,82.3,314.7,86.5z"/>
	<path class="st5" d="M751.4,293.9c-0.5-4.7-5.5-6-11.9-11.5c-6.6-6.1-11.7-13.5-15-21.8c-3.3-8.8-3.1-16.5-2.8-27.7
		c0.2-5.9,0.8-11,1.6-18.2c1.1-9.1,1.8-12.2,2.4-17c1.4-10.8,4-30.7-5.5-47.9c-2.1-4.1-4.9-7.7-8.3-10.7c-5.7-4.8-8.4-3.7-18.6-8.7
		c-7.4-3.6-15.4-7.7-19.8-15.8c-0.7-1.2-1.4-2.9-2.8-6.3c-3.6-8.8-3.3-10.1-5.5-14.6c-2.2-4.2-5-8.1-8.3-11.5
		c-4.1-4.5-6.2-6.8-9.9-7.9c-3.4-1-9.4-1.5-11.1,1.2c-2.1,3.3,4,8.7,13.7,23.3c10.6,15.9,11.3,21.6,20.6,28.9
		c5.3,4.2,6.1,3.1,11.9,7.1c19.6,13.6,26.7,36.5,30.8,49.9c2.5,8.1,4.5,14.7,4,23.7c-0.5,8.8-2.9,9.9-3.2,19
		c-0.3,9.6,2.2,10.2,3.6,24.5c1.3,12.9-0.7,13.8,1.6,21c0.2,0.7,3.3,6.2,9.5,17c3.1,5.5,6.2,10.7,11.9,13.5c1.2,0.7,2.6,1,4,0.8
		C748.4,303.6,751.8,298.2,751.4,293.9z"/>
	<path class="st5" d="M387.8,211.6c1.3-0.3,3.8-0.9,5.9,0.4c3.7,2.3,2.3,8.5,3.6,8.7c1.9,0.4,8.7-12.4,4.3-22.9
		c-0.9-2.1-2.6-5-4-4.8c-2.1,0.3-1.2,7.1-5.5,10.3c-2.7,2.1-6,1.7-7.5,1.6c-14.2-0.8-34.1,16.1-33.6,17
		C351.5,222.8,374.6,214.9,387.8,211.6z"/>
	<path class="st5" d="M571.8,220.7c1.4-0.2-0.1-6.4,3.6-8.7c2-1.3,4.7-0.7,5.9-0.4c13.1,3.4,36.3,11.2,36.7,10.3
		c0.5-0.9-19.4-17.8-33.6-17c-1.5,0.1-4.8,0.4-7.5-1.6c-4.2-3.3-3.4-10-5.5-10.3c-1.5-0.2-3.1,2.7-4,4.8
		C563.1,208.2,569.9,221,571.8,220.7z"/>
</g>
</svg>
