<?xml version="1.0" encoding="utf-8"?>
<!-- Generator: Adobe Illustrator 24.0.1, SVG Export Plug-In . SVG Version: 6.00 Build 0)  -->
<svg version="1.1" id="New_group_1_" xmlns="http://www.w3.org/2000/svg" xmlns:xlink="http://www.w3.org/1999/xlink" x="0px"
	 y="0px" viewBox="0 0 990 781.2" style="enable-background:new 0 0 990 781.2;" xml:space="preserve">
<style type="text/css">
	.st0{fill:#FFFFFF;}
	.st1{fill:#8F8F8F;}
	.st2{fill:#525358;}
	.st3{fill:#E3706A;}
	.st4{fill:#909090;}
</style>
<g>
	<path d="M185.7,747.3c-0.5,2.1-0.9,3.8-1.3,5.5c-0.8,4.1-3.4,7.2-5.9,10.3c-1.5,1.8-3.8,1.7-5.8,1.2c-3.2-0.9-6.3-1.9-9.1-3.7
		c-3-1.9-5.8-4-8-6.8c-1.2-1.5-2.5-2.9-3.9-4.3c-3.2-3.3-5.6-7.2-8.1-11c-1.1-1.7-2.5-3-4.3-4.1c-2.5-1.5-5-2.9-7.1-5
		c-6.9-6.8-13-14.1-15.5-23.8c-0.9-3.5-2.2-6.8-2.7-10.4c-0.8-5.7-0.6-11.5-0.3-17.2c0.4-6.6,1.8-13,3.6-19.3
		c2.7-9.2,7.5-16.9,14.8-23.1c8.4-7.2,17-14.1,26.1-20.4c13.8-9.6,29-15.4,45.7-17.5c0.5-0.1,0.9-0.2,1.4-0.2
		c1.5-0.1,2.1-0.9,2.5-2.4c3.4-15,7.4-29.8,11.7-44.5c3-10.2,7.1-19.9,10.9-29.7c2.3-5.8,4.4-11.7,6.6-17.5c1-2.6,1.1-5,0.3-7.7
		c-2.8-9.3-3.4-18.8-3.3-28.5c0.1-5,0.2-9.9,0.9-14.8c0.1-0.4,0.1-0.8,0-1.2c-0.1-0.6-0.4-0.9-1-0.6c-0.6,0.2-1.2,0.5-1.7,0.8
		c-3.1,1.7-6.4,2.9-9.8,3.7c-5.2,1.3-10.4,1.2-15.6-0.4c-4.7-1.4-9.1-3.4-13.3-6c-3.1-1.9-5.6-4.3-7.5-7.3
		c-2.5-3.8-3.3-7.9-2.6-12.4c0.5-3.3,1.5-6.6,2.9-9.6c3.1-6.7,4.4-13.8,4.6-21.2c0.2-10.9-1.2-21.7-3.7-32.3
		c-2.1-8.6-3.6-17.4-3.4-26.3c0.2-10,2-19.7,6.1-28.9c0.8-1.9,2-3.6,3.1-5.4c0.9-1.4,0.8-1.7-0.8-2.1c-1.9-0.4-3.8-0.7-5.5-1.5
		c-2.5-1.1-4.5-2.6-5.6-5.3c-0.8-2-0.8-3.9,0.4-5.7c2.2-3.4,4.2-7,6.2-10.6c3.8-6.6,6.8-13.6,9.1-20.9c0.7-2.3,1.5-4.6,2.5-6.8
		c1.3-3,1.7-6.1,1.8-9.4c0.3-7.8,0.3-15.7,1.9-23.4c1.4-6.9,3.8-13.4,8.3-18.9c2.8-3.5,6.4-6.2,9.7-9.3c6.3-5.8,13.7-10,21.5-13.3
		c6.6-2.7,11.7-7,15.5-13.1c4.7-7.5,9.6-14.9,14.3-22.5c2.3-3.6,3.7-7.6,5.5-11.5c3.6-7.8,6.8-15.7,10.6-23.4
		c2.7-5.5,6.1-10.5,10-15.2c1.1-1.4,2.4-2.6,3.8-3.7c3.3-2.5,6.4-5.3,9.2-8.4c2.6-2.9,5.7-5.3,8.8-7.7c1.5-1.2,2.9-2.5,4-4.1
		c4-6,9.6-9.8,16.4-11.8c11.6-3.5,23.4-5.9,35.4-7.4c4.7-0.6,9.4-0.2,14.1,0.4c6.6,0.8,13.2,1.7,19.7,2.6c2.9,0.4,5.6-0.2,8-1.9
		c1.3-0.9,2.6-1.8,3.9-2.7c3.7-2.6,7.8-4.1,12.3-3.9c1.9,0.1,3.8,0.2,5.8,0.2c1.4,0,1.7-0.2,1.7-1.6c0-1-0.1-2.1-0.2-3.1
		c-0.3-1.8,0-3.5,0.4-5.2c1.1-4.2,4.6-6.9,9.2-7c2.6-0.1,5.1,0.5,7.6,0.7c5.8,0.4,11.5,2.1,17.3,2.9c3.7,0.5,7.5,0.6,11.2,1.1
		c3.4,0.4,6.2-1.4,8.7-3.4c2.3-1.9,4.5-3.8,6.8-5.7c2.5-2.1,5.1-3.9,8-5.2c6.2-2.7,11.7-1.2,16.9,2.7c2.1,1.6,2.8,4,3.5,6.4
		c0.9,3.2,0.9,3.2,4,2.2c4.2-1.4,8.5-2,12.9-2.5c1.1-0.1,2.2-0.4,3.3-0.7c8.5-2.9,17.4-4.4,26.1-6.3c5.2-1.1,9.5,3.1,9.2,8.6
		c-0.1,2.7-0.8,5.4-1.4,8c-0.2,0.8-0.4,1.6-0.6,2.3c-0.6,2.3,0,4.1,1.9,5.7c6.3,5.2,13.1,9.4,20.8,12.2c9.2,3.3,18.3,6.8,27.8,9
		c5.7,1.3,11.5,2.2,17.2,3.4c11.5,2.5,22.5,6.6,33.3,11.3c12.6,5.5,23.6,13.3,33.8,22.5c5.2,4.6,10,9.6,15.1,14.4
		c7.6,7.1,13.2,15.5,18.3,24.5c6.9,12.2,10.7,25.3,13.1,38.9c1.8,10.3,4.4,20.3,8.1,30.1c5.8,15.4,16.2,26.6,30.9,33.9
		c6.9,3.4,11.3,8.9,14.6,15.7c2.8,5.9,4.1,12.3,4.8,18.7c1.4,12.3,0.9,24.5-2.3,36.4c-2.9,10.4-7.3,20.3-13,29.5
		c-4.5,7.3-8.5,14.8-12,22.7c-3.9,8.6-6,17.7-6.7,27.1c-0.6,7.3,0.3,14.5,0.9,21.8c0.5,4.9,1.4,9.8,1.1,14.8
		c-0.3,7.7-2.3,14.9-7.2,21c-5.2,6.5-11.9,10-20.3,10.3c-3.4,0.1-6.9,0.2-10.3-0.4c-0.4-0.1-0.8-0.1-1.2-0.1
		c-2.5-0.2-2.9,0.2-2.9,2.8c0,2.1,0.4,4.1,0.9,6.2c1.5,6.8,4.6,13,8.2,18.8c4.5,7.3,8.6,14.8,12.7,22.3c5.3,9.7,10.7,19.3,15.9,29
		c5.5,10.2,10.8,20.6,13.9,31.8c2.7,9.5,5.2,19.1,7,28.9c0.3,1.8,1,3,2.9,3.6c13.2,4.5,24.4,12.5,35.9,20.1c4.5,3,8,6.7,11.2,11
		c5.9,8.1,11.6,16.3,16,25.3c0.3,0.7,0.7,1.5,1,2.2c3.2,6.3,3.2,12.9,2,19.7c-1.6,9.5-4.3,18.7-7.9,27.6c-1.7,4.3-4.5,8.1-7.4,11.7
		c-3.8,4.8-8.3,8.9-13.7,11.9c-1.9,1.1-3.3,2.5-4.4,4.4c-3.5,6-8.1,11.1-12.8,16.1c-4.3,4.6-9.6,7.4-15.6,9c-3.4,0.9-5.2,0-7.5-2.8
		c-2.9-3.5-4.5-7.5-5.3-11.9c-0.3-1.8-0.6-1.9-2-0.6c-2,1.8-4,3.7-5.9,5.6c-1.4,1.4-3.1,2.5-4.8,3.6c-3.4,2-7.2,1.3-9.6-1.8
		c-1.1-1.4-1.8-3-2.5-4.6c-1.6-4.1-2.3-8.3-1.9-12.7c0.2-2.4-0.8-4-2.7-5.1c-1.4-0.8-2.7-1.7-4.2-2.3c-4.9-1.9-8.2-5.4-9.8-10.5
		c-0.1-0.3-0.2-0.6-0.3-0.9c-0.5-1.2-0.9-1.3-2-0.6c-0.7,0.5-1.3,1.1-1.9,1.8c-1.5,1.8-2.5,3.9-3.2,6.1c-2.1,6.9-6,12.6-11.6,17.2
		c-4.4,3.6-10.2,1.8-12.9-2c-1.9-2.7-3.2-5.7-3.8-9c-0.2-1.3-0.4-2.5-0.6-3.8c-0.2-1.7-1.1-3-2.5-3.9c-0.3-0.2-0.5-0.4-0.8-0.5
		c-6.2-3-10.6-8.2-15.4-12.9c-1.2-1.2-2.2-2.5-2.8-4.1c-0.5-1.4-1.4-1.8-2.7-1.7c-0.6,0.1-1.3,0-1.9,0c-135.4,0-270.8,0-406.2,0
		c-0.6,0-1.1,0.1-1.7,0c-1.7-0.2-2.7,0.5-3.3,2.1c-0.5,1.4-1.5,2.7-2.5,3.8c-3.2,3.3-6.4,6.5-9.9,9.4c-1.6,1.3-3.3,2.3-5.1,3.2
		c-2.4,1.3-3.8,3.1-4,5.8c-0.2,2.3-0.7,4.6-1.6,6.8c-0.8,2-1.8,3.9-3.2,5.6c-2.2,2.9-8.1,4.7-12,1.5c-5.4-4.5-9.4-9.8-11.6-16.4
		c-0.8-2.6-1.7-5.2-3.6-7.2c-0.3-0.3-0.5-0.6-0.8-0.9c-1.7-1.7-2.6-1.5-3.3,0.7c-1.5,4.8-4.5,8.2-9.2,10.1c-1.7,0.7-3.3,1.7-4.8,2.6
		c-1.9,1.1-2.8,2.6-2.6,4.9c0.4,4.2-0.4,8.3-1.8,12.2c-0.5,1.4-1.1,2.8-1.9,4.1c-2.5,4.1-6.6,5.1-10.7,2.8c-2.2-1.3-4.2-2.9-6-4.7
		C189.8,751.3,187.9,749.4,185.7,747.3z"/>
</g>
<g>
	<path class="st0" d="M389.1,245.9c-4.2-2.6-7.4-6-9.2-10.7c-0.8-2.1-2-4-3.2-6.2c-0.4,0.5-0.6,0.6-0.6,0.8c-0.6,2.5-0.9,5-2.1,7.3
		c-0.3,0.5,0,1,0.3,1.4c1.2,1.8,2.5,3.5,4.4,4.6c1.8,1,3.6,2,5.4,2.9c2,1,3.9,1.2,6.1,0.9c0-0.1,0-0.2-0.1-0.3
		C389.8,246.4,389.4,246.2,389.1,245.9z"/>
	<path class="st0" d="M411.9,224.4c-0.5-0.4-1.3-0.1-1.5,0.4c-0.1,0.4-0.2,0.8-0.2,1.2c0,2.5-0.7,4.8-1.8,7.1
		c-0.6,1.3-1.2,2.6-1.8,3.9c-0.5,1-0.2,1.7,0.9,2.2c0.7,0.3,1.4,0.4,2.1,0.2c1.4-0.3,2.3-1.2,3-2.5c1-1.9,1.5-4,2.1-6.1
		c0.1-0.4,0.1-0.8,0.2-1.4C414.4,227.6,413.5,225.8,411.9,224.4z"/>
	<path class="st0" d="M401.7,215.1c-1.8-2-4.2-2.4-6.7-2.4c-2.1,0-3.3,1.4-4.4,2.9c-0.1,0.2-0.3,0.3-0.4,0.5
		c-0.9,0.9-1.2,2.1-1.2,3.3c0.1,2.8,1.6,6.4,3.4,8.5c2.8,3.2,7.9,1.9,9.2-1.3c0.6-1.5,1.4-3,2-4.5c0.6-1.4,0.5-2.8-0.1-4.2
		C403.2,216.9,402.5,216,401.7,215.1z"/>
	<path class="st0" d="M609.6,220.8c1.4-0.1,2.4-0.8,2.8-2c0.7-2.1,1.5-4.3,1.4-6.5c-0.1-1.1-0.2-2.1-0.4-3.2
		c-0.1-0.7-0.5-1.1-1.1-1.3c-2.9-1-5.9-1.7-9-0.8c-2.6,0.7-4.5,3.9-3.9,6.4C600.6,218.3,604.7,221.2,609.6,220.8z"/>
	<path class="st0" d="M625.1,227.8c-1.3-0.8-2.4-1.9-3.5-3c-0.6-0.6-1-0.5-1.3,0.4c-0.8,2.9-2.3,5.5-4.6,7.5c-2.2,2-4.6,3.7-7.5,4.6
		c-1.4,0.4-2.7,0.9-4.4,1.5c5,2.1,9.4,1.4,13.7-1c3.5-2,6-4.9,7.8-8.4C625.7,228.8,625.8,228.3,625.1,227.8z"/>
	<path class="st0" d="M584.8,217.9c1.2-3.2-3.9-2.7-3.9-2.7s-2.7,5.8,2.6,10.4c5.2,4.6,8.1,6.7,8.1,6.7S583.6,221.1,584.8,217.9z"/>
</g>
<g>
	<path class="st1" d="M442,461.9c0.4-0.5,0.7-1,1-1.5c2.9-4.4,5-9.2,7.4-13.8c4.7-9,9.2-18.1,13.7-27.2c1.8-3.6,3.3-7.3,4.4-11.1
		c0.2-0.8,0.5-1.7,0.7-2.5c-0.8,1.5-1.7,2.8-2.8,4.1c-2.3,2.8-4.5,5.6-6.9,8.2c-4.8,5.3-8.9,11-12.1,17.3c-0.8,1.6-1.8,3.2-2.9,4.7
		c-1.5,2.1-3.4,3.8-5.7,5c-1,0.5-2,0.9-3.2,1.2c-3.7,0.8-6.8-1-7.9-4.6c-0.4-1.3-0.4-2.6-0.4-4c-0.1-2.5,0.6-4.9,1.5-7.2
		c1.2-2.9,2.7-5.7,4.4-8.5c0.6-0.9,0.5-1.2-0.5-1.6c-4.6-1.8-7.4-5.3-9.6-9.5c-2.4-4.6-3.7-9.6-4.2-14.7c-0.4-4-0.4-8,0.2-12
		c0.3-2,0.1-3.9-0.4-5.7c-0.5-1.8-1-3.6-1.3-5.4c-0.3-1.7-0.5-3.4-0.6-5.2c-0.1-2,0-4.1,0.2-6.1c0-0.3,0.1-0.7,0.1-1
		c0.2-1.5,0.5-3,1.1-4.4c0.4-0.9,1-1.8,1.9-2.4c1.3-0.9,2.5-0.4,2.5,1.2c0.1,4,1,7.9,1.9,11.8c0.6,2.8,1.9,5,4.1,7
		c5,4.8,10.8,8.5,17,11.5c4.3,2.1,8.9,2.9,13.6,3.7c2.1,0.3,4.1-0.2,6-1.1c0.4-0.2,0.7-0.4,1.1-0.6c1.7-1,3.4-0.8,4.7-0.1
		c-0.3-1-0.8-1.8-1.4-2.7c-1.3-1.7-2.9-3.1-5.1-3.7c-5.9-1.7-11.3-4.7-16.5-8c-5.3-3.4-9.9-7.6-14.3-12.1c-1.9-1.9-3.5-4-4.7-6.4
		c-1.2-2.5-2.5-4.9-3.7-7.4c-1.8-4-3.3-8.2-3.5-12.6c0-0.8-0.3-1.6-0.4-2.4c-0.1-0.7,0.1-1.5-0.3-2.5c-2.2,3.1-3.8,6.2-5.3,9.3
		c-3.1,6.4-5.5,13-7.4,19.8c-0.8,2.7-1.5,5.4-1.9,8.2c0.6,2.1,1.4,4.2,2.3,6.3c3,6.3,3.7,12.7,1.9,19.5c-0.8,2.9-1.4,5.8-2.2,8.7
		c-1.9,7-2.1,14.1-1.3,21.4c0.9,8.5,3,16.5,6.5,24.3c1.3,3,2.9,5.9,4.7,8.6c2.6,3.8,5.9,6.8,9.6,9.4c1.2,0.9,2.3,0.9,3.7,0.1
		c3-1.7,6.3-2.4,9.6-3.1C441.3,462.1,441.7,462,442,461.9z"/>
	<path class="st1" d="M392.3,346.2c0.5-3.2,1.1-6.4,1.7-9.7c1.2-6.9,3.3-13.5,6.2-19.9c4.5-9.9,10.9-18.5,19.4-25.4
		c0.8-0.6,1.5-1.4,2.3-2.1c1-0.9,1.6-2,1.9-3.4c1-3.6,1.5-7.2,2.5-10.8c-1.8,2.8-3.9,5.5-6,8.1c-0.9,1.1-2,2-3.2,2.8
		c-5.6,3.7-9.9,8.9-14.8,13.4c-0.9,0.8-1.4,1.8-1.5,2.9c-0.3,1.7-1.2,3-2.6,4c-1.5,1-2.4,2.4-3.3,4c-6.2,10.4-11.5,21.3-17,32.1
		c-0.3,0.6-0.6,1.3-1,1.9c-2,3.2-6,3.4-8.2,0.4c-0.7-0.9-1.1-1.9-1.6-3c-2.2-5.1-2.8-10.5-2.6-16c0.1-4.2,0.6-8.4,2-12.4
		c0.3-0.8-0.1-1.2-0.8-1.2c-0.4,0-0.8-0.1-1.2,0c-0.2,0-0.3,0-0.5,0c-0.5,1.6-1,3.3-1.5,4.9c-1.1,3.6-1.5,7.4-2,11.1
		c-0.3,2.3,0.3,4.7,0.4,7c0.2,2.6,0.5,5.1,1.1,7.6c0.5,2,0.5,4.1,0,6.1c-0.3,1.3-0.4,2.6-0.4,4c0,0.7,0,1.4-0.1,2.1
		c-1,5.1-0.2,10.2,0.5,15.3c0.6,3.8,1.8,7.4,3.5,10.8c0.1,0.2,0.2,0.4,0.3,0.6c1.2-6.7,3-13.3,5.4-19.7c0.3-0.8,0.4-1.8,1.3-2.4
		c0.7,0,0.5,0.6,0.5,0.9c0.5,4.6,1.1,9.2,1.5,13.8c0.1,0.8,0,1.6-0.1,2.4c-1.9,16.9,1.3,32.9,8.2,48.3c1.7,3.8,4,7.1,6.4,10.5
		c0.2,0.2,0.4,0.4,0.6,0.6c0.7-0.1,0.5-0.6,0.5-0.9s-0.1-0.6-0.1-0.9c-0.8-4.7-0.9-9.4-0.5-14.1c0.6-6.5,1.8-12.8,4.3-18.8
		c0.8-1.9,0.9-3.7,0.4-5.7c-0.4-1.7-0.9-3.4-1.4-5.1c-2.2-7.6-1.9-15.2,0.6-22.7c0.2-0.5,0.3-1,0.4-1.5c-1.1-3.7-1.5-7.5-1.5-11.5
		c0-2.1,0-4.1,0.1-6.2C392.2,347.6,392.2,346.9,392.3,346.2z"/>
	<path class="st1" d="M308.7,321.4c2,4.6,4.4,9,5.9,13.8c0.1,0.2,0.1,0.4,0.2,0.6c0.4-1.7,0.9-3.4,1.5-5c0.5-1.5,0.9-2.9,1.1-4.5
		c0.7-4.5,1.9-8.8,3.3-13.1c1.5-4.8,2.9-9.6,3.5-14.6c0.1-0.4,0.1-0.8,0.2-1.2c0.1-0.6-0.2-1-0.7-1.3c-0.1,0-0.2-0.1-0.3-0.1
		c-6.3-2.5-11.2-6.8-15.8-11.5c-6.5-6.6-10.7-14.5-12.3-23.7c-0.3-1.9-0.5-3.9-0.4-5.8c0.1-1.3,0.4-2.4,1-3.5
		c1.6-2.7,4.9-3.4,7.5-1.7c1,0.7,1.9,1.6,2.6,2.6c1.2,1.6,2.4,3.3,3.7,4.9c0.2,0.3,0.5,0.6,0.8,0.9c0.8-0.3,0.5-0.9,0.6-1.3
		c0.5-7.7,2.6-14.9,6.8-21.5c2-3.2,4.1-6.4,6.1-9.6c0.4-0.6,0.8-1.2,1.1-1.8c0.3-0.5,0.1-1-0.5-1.3s-1.1-0.5-1.7-0.8
		s-1.3-0.7-1.8-1.1c-3.9-2.9-4.4-7.5-1.3-11.3c1.2-1.4,2.7-2.5,4.4-3.4c0.3-0.1,0.5-0.3,0.8-0.4c-0.9-2.4-1.9-4.7-3.4-6.9
		c-1.9-2.8-3.9-5.5-6.9-7.3c-1.7-1-3.5-1.6-5.3-1.6c-2.4,3.9-4.8,7.8-7.3,11.7c-6.4,10.2-11.1,21-14.7,32.4
		c-3,9.5-4.7,19.1-4.1,29.1c0.3,5.1,1.1,10,2.7,14.8c1.7,4.9,3.4,9.8,5.1,14.6c0.7,1.6,1.5,3.1,2.2,4.7c2.2,4.6,4.7,9.1,7.5,13.4
		c2,3.2,4.1,6.4,6.8,9.1C308,320.1,308.4,320.7,308.7,321.4z"/>
	<path class="st1" d="M623.6,331.5c0.6,0.5,1.2,1.1,1.8,1.7c0.5,0.5,1,1.1,1.8,1.2c1.5,0.3,2.5,1.3,3.6,2.3c1.7,1.6,3.6,3.1,5.2,4.8
		c0.8,0.9,1.6,1.8,2.4,2.7c0-2.5-0.1-5-0.5-7.5c-0.7-3.7-1.1-7.5-1.7-11.2c-0.1-0.7-0.2-1.4-0.3-2.1c-0.6-1.4-1.1-2.8-1.5-4.4
		c-0.6-2.7-0.9-5.5-1.2-8.2c-0.6-6.1-1-12.3-2.6-18.2c-0.4-1.6-1.3-2.4-2.6-3.2c-0.4-0.2-0.8-0.2-1.1,0.1c-2.1,2.4-3.5,4.9-3.2,8.3
		c0.7,6.5,1.2,13.1,0.8,19.7c0,0.6-0.1,1.2-0.5,1.7c-0.3,0.4-0.6,0.2-0.7,0c-0.3-0.5-0.6-1.1-0.7-1.7c-1.5-5.8-3.9-11.2-5.9-16.8
		c-0.4-1.1-0.9-2.1-1.4-3.1c-0.1-0.1-0.3-0.3-0.5-0.2c-0.2,0-0.4,0.2-0.5,0.3c-0.5,1.1-1,2.3-1.6,3.3c-2.8,4.2-7.9,4.1-10.6-0.2
		c-0.4-0.7-0.7-1.5-1-2.2c-0.4-1.1-0.7-2.2-1-3.2c-2.4-9-6.4-17.3-12.4-24.5c-0.7-0.9-1.5-1.7-1.9-2.8c-2-5.1-5.3-9.2-9.3-12.8
		c-2.6-2.3-5.4-4.4-8.3-6.3c0.8,0.9,1.6,1.7,2.4,2.6c3.5,3.9,6.4,8.2,8.5,13.1c0.9,2.1,1.7,4.2,2.5,6.3c1.9,4.9,3.6,9.8,4.7,14.9
		c1.2,5.6,1.9,11.3,2.7,16.9c-0.4,3.2,0.6,6,2.6,8.6c0.3,0.4,0.5,0.9,0.7,1.4c1.3,2.2,2.6,4.4,4,6.5c1.3,2.1,2.9,4,4.2,6.1
		c2.8,4.6,4.9,9.4,5.8,14.8c0.1,0.7,0.3,1.4,0.5,2.1c0-0.6,0-1.2,0-1.7c0.6-0.2,0.8,0.2,1,0.5c1.8,2,3.1,4.3,4.3,6.7
		c1.9,3.8,3.7,7.6,5.5,11.4c2.4,5.1,3.8,10.6,5,16.1c0.6,2.6,1.3,5.2,1.9,7.8c0.4,1.6,1.1,3.1,2.2,4.3c3.5,4.1,6.7,8.6,9.2,13.4
		c0.1,0.2,0.3,0.2,0.5,0.4c0.6-0.1,0.3-0.6,0.3-1s-0.1-0.8-0.1-1.2c-0.7-5.5-1.6-11-2.8-16.4c-1.3-6-2.6-12-3.8-18.1
		c-0.8-4-1.9-8-3.3-11.8c-1-2.7-1.8-5.5-1.9-8.4c-0.1-2.3-0.6-4.5-1.3-6.6c-0.5-1.8-1.1-3.5-1.1-5.4c0-0.3,0.2-0.6,0.4-0.8
		C623.1,331.1,623.4,331.3,623.6,331.5z"/>
	<path class="st1" d="M618.5,417.3c-1.5-6.6-3.7-13-7-19c-1.5-2.8-3.3-5.4-5.7-7.6c-0.7-0.6-1.3-1.3-2-1.9c-1.7-1.5-2.3-3.5-2.4-5.8
		c-0.1-3,0.5-5.9,0.9-8.8c0.7-5.8,0.5-11.4-2.2-16.8c-0.1-0.2-0.2-0.4-0.3-0.6c-1.8-4.7-4.8-8.6-8.5-11.9c-2.4-2.1-2.7-1.6-3.5,0.8
		c-1.4,4.2-3.4,8.1-6.2,11.6c-2.3,2.8-4.7,5.4-7.3,7.9c-1.4,1.3-2.6,2.8-3.8,4.3c0,0,0,0,0.1,0c3.6-1.2,5.6,1,6.2,3.6
		c0.5,2.3,0.1,4.5-1.2,6.5c-0.9,1.3-1.9,2.4-2.9,3.6c-0.4,0.5-1,0.8-1,1.6c3.3,1.1,6.3,2.8,9,5.1c0.7,0.6,1.4,1.2,1.9,2
		c2.4,3.1,1.4,7-2.1,8.8c-1,0.5-2.1,0.8-3.2,1c-0.7,0.1-1.5,0-1.9,0.9c0.3,0.3,0.5,0.6,0.8,0.8c2.9,2.1,5.5,4.6,7.9,7.3
		c2.9,3.2,6,6.1,9.5,8.7c2.1,1.6,4.1,3.4,6,5.3c1.8,1.9,3.1,4.1,3.5,6.7c0.5,3.4-0.5,6-3.5,7.9c-4,2.5-8.4,3.2-13,1.9
		c-2.1-0.6-4.1-1.5-5.9-2.7c-0.3-0.2-0.6-0.4-0.8-0.6c-0.2-0.1-0.4-0.3-0.6-0.4c-2.6-1.8-4.9-3.9-7-6.1c0,0.1,0.1,0.2,0.1,0.3
		c2.3,6,4.5,12.1,6.4,18.2c0.7,2.3,1.3,4.7,1.6,7.1c4.1,3.3,8.8,5.6,13.9,7.2c1.9,0.6,3.8-0.5,5.4-1.6c0.2-0.2,0.5-0.4,0.6-0.7
		c2.9-3.6,6.2-6.8,9.4-10.1c1.8-1.8,2.9-3.9,3.5-6.4c0.2-0.9,0.5-1.8,0.7-2.7c0.1-0.4,0.2-0.7,0.3-1.1c1.1-5.9,2.4-11.6,4.6-17.1
		c0.4-1,0.5-2,0.4-3C619,420.2,618.8,418.7,618.5,417.3z"/>
	<path class="st1" d="M533.5,221.2c-0.6-1.4-1.6-2.3-3-3c-1.7-0.9-3.5-1.1-5.4-0.5c-1.6,0.5-3,0.3-4.3-0.8c-1-0.9-2.1-1.7-3.3-2.3
		c-1.7-0.9-2.6-2.1-3-4c-1.1-5-2.6-9.9-3.3-15c-0.3-2.4-0.6-4.7-0.2-7c0.4-2.4,0.3-4.7,0.4-7c0.1-1.6-0.3-3.1-1.5-4.2
		c-0.6-0.6-0.9-1.3-1.1-2.2c-0.2-1.1-0.6-2.1-0.6-3.3c0-1-0.4-1.8-0.9-2.6c-1.1-1.5-2.7-1.9-4.6-1.3c-1.6,0.5-2.5,1.7-3.5,2.9
		c-0.9,1.1-1.5,2.4-2.4,3.7c-0.8-0.5-0.8-1-0.9-1.5c-0.6-2.3-1.2-4.6-2.4-6.6c-0.7-1.3-1.8-1.7-3.4-1.4c-1.2,0.2-2.1,1.2-2.2,2.6
		c-0.1,1.3-0.4,2.6-0.5,3.9c-0.2,1.7-0.3,3.5,0.2,5.2c0.2,0.8,0.3,1.6,0.3,2.4c0,5.1,0.1,10.3,0,15.4c0,2.3-0.4,4.7-0.6,7
		c0,0.4-0.2,0.8-0.4,1.2c-1,1.9-0.9,3.9-0.5,6c0.1,0.7,0.3,1.5,0.2,2.1c-0.9,4.1-1.1,8.3-3.5,12c-0.3,0.5-0.6,1.1-0.8,1.7
		c-0.6,2-1.7,3.6-3.1,5.2c-2.6,2.9-3,6.4-1.3,10c1,2,2.5,3.2,4.9,3c1-0.1,2-0.3,2.9-0.8c2.1-1.1,4.4-1.7,6.6-2.3
		c1.5-0.4,3-0.8,4.4-1.2c3.6-1.2,7.1-2.5,10.9-2.8c1.7-0.2,3.5-0.3,5.2,0c0.7,0.1,1.4,0.3,2.1,0.4c2.7,0.1,5.3,0.7,7.9,1.1
		c2.3,0.3,4.7,0.4,7-0.3c4.6-1.4,7.2-7.5,5.1-11.4C534.5,223.9,534.1,222.6,533.5,221.2z"/>
	<path class="st1" d="M352.8,443.4c0.4,0.7,0.7,1.5,1,2.3c0.6,1.8,1.1,3.6,1.8,5.3c-0.1-0.5-0.2-1-0.3-1.5
		C354.7,447.3,354,445.2,352.8,443.4z"/>
	<path class="st1" d="M346.3,436.7c-2.3-1.8-4.3-3.8-6.3-5.8c-1.7-1.6-3.3-3.4-5.1-4.9c-2.3-2-4.7-4-7-6c-1.5-1.3-3-2.5-4.4-3.8
		c-3.6-3.5-7.3-6.9-10.3-10.9c-1.9-2.5-3.8-5-5.8-7.6l0,0c-0.1,0.2-0.1,0.5-0.2,0.7c-2,5.4-2.2,10.8-0.6,16.3
		c1.9,6.8,4.6,13.2,7.8,19.4c0.3,0.6,0.7,1.3,1,1.9c1.6,2.7,3.4,5.2,5.4,7.5c3.6,4.1,7.9,7.5,13,10.2c3.5,1.9,7,3.9,10.4,5.9
		c2.1,1.2,2.8,1,3.6-1.1c0.2-0.5,0.2-1,0.3-1.5c0.3-1.4,0.7-2.8,1.4-4.1c1.2-2.2,1.6-4.6,1.6-7.1c0-0.9-0.1-1.8-0.1-2.8
		c0-0.3,0-0.7,0.4-0.7c0.3,0,0.5,0.2,0.7,0.4c0.2,0.2,0.3,0.4,0.5,0.6c-0.3-0.4-0.6-0.9-0.9-1.3
		C350.1,440.1,348.3,438.3,346.3,436.7z"/>
	<path class="st1" d="M603.2,494.1c-0.5-0.9-1.2-1.6-2.2-2c-0.4-0.2-0.8-0.1-1.1,0.3c-0.5,0.9-0.9,1.9-1.3,2.8
		c-0.9,1.8-1.9,3.4-3.4,4.7c-1.5,1.3-3.3,1.8-5,1.6c-1.1,1.9-2.2,3.9-3.3,5.8c-2.1,3.9-4.2,7.7-6.4,11.5c-0.1,0.2-0.2,0.4-0.3,0.6
		c2.1,2.4,3.4,5.4,3.8,6.4c1.2,3.1-5.6,10.2-6.3,10.7c-2.4,1.7-7.8,3-11.4,3c-0.6,0-1.2,0-1.7-0.1c-0.7-0.1-1.3-0.6-2.1-0.2
		c0,0.8,0.7,1,1.2,1.3c0.3,0.2,0.6,0.3,0.9,0.4c1.9,0.9,3.9,1.6,5.9,2.4c4.4,1.7,8.8,1.5,13.3,0.5c1.3-0.3,2.5-0.9,3.4-2
		c1.2-1.4,2.5-2.7,3.8-4c2.1-2.1,4.2-4.2,6-6.6c2.1-2.8,4-5.7,5.1-9.1c2.3-7.5,3.2-15.2,2.6-23.1
		C604.6,497.3,604.1,495.7,603.2,494.1z"/>
	<path class="st1" d="M705.7,231.5c-0.1-0.6-0.2-1.2-0.3-1.8c0-1.1-0.1-2.2-0.3-3.2c0-0.2-0.1-0.5-0.1-0.7c-0.3-1.9-0.9-3.8-1.7-5.6
		c-0.2-0.5-0.4-1-0.4-1.5c0-0.6,0-1.3-0.1-1.9c-1-3.2-2.3-6.4-3.7-9.5c-0.3-0.6-0.4-1.4-1.2-1.6c-0.1,0.2-0.3,0.3-0.3,0.5
		c-0.1,0.5-0.2,1-0.3,1.5c-0.2,3.9-1.8,7.3-3.8,10.6c-1.4,2.2-3.5,3.3-5.6,2.9c-0.1,0.8-0.3,1.6-0.4,2.4c-0.9,4.6-1.9,9.2-3.8,13.5
		c-2.8,6.4-6.6,12-11.5,16.9c-0.1,0.1-0.3,0.3-0.4,0.4c-0.1,1-0.2,2.1-0.4,3.1c-0.2,1.5-0.3,3.1,0.1,4.6c0.4,1.5,0.6,1.7,2,1.9
		c3.4,0.4,6.7,0.1,9.8-1.6c3-1.6,5.7-3.6,8.5-5.6c3.9-2.8,7.1-6.2,9.3-10.5c0.7-1.5,1.5-3,2.7-4.1c0.5-0.4,0.8-0.9,1.1-1.3
		c0.3-2,0.6-4,0.8-6.1c0-0.3,0-0.6,0-0.8C705.8,233.2,705.8,232.4,705.7,231.5z"/>
	<path class="st1" d="M582.8,242c3.9,5.8,9.1,10.2,15.4,13.3c3.2,1.6,6.6,2.3,10.3,2.2c0.5,0,1.1,0,1.7,0c3.4-0.2,6.5-1,9-3.4
		c1.1-1.1,2.4-1.9,3.6-2.9c3.9-3.1,7.3-6.6,9.5-11.1c0.6-1.2,1.3-2.3,2-3.4c1-1.6,1.7-3.3,2.5-4.9c0.6-1.3,0.4-2.8,0.9-4.1
		c0-0.1-0.1-0.4-0.3-0.5c-0.1-0.2-0.3-0.3-0.4-0.4c-0.1,0-0.4,0.1-0.5,0.3c-0.2,0.4-0.2,0.8-0.3,1.2c-1.2,3.9-11.3,14.2-12.2,15.1
		c-5,4.9-11.4,5.4-18,4.2c-3.3-0.6-6.5-2-9.4-3.7c-1.8-1.1-3.5-2.1-5.3-3.2c-1.8-1.1-3.9-2-5.3-3.7c-1.4-1.6-3.4-2.3-4.7-3.9
		c-0.1-0.1-0.3-0.3-0.5-0.3c-0.1,0-0.2,0-0.3,0.1s-0.2,0.3-0.2,0.5c-0.2,1.2-0.1,2.4,0.1,3.5C580.8,238.7,581.8,240.4,582.8,242z"/>
	<path class="st1" d="M472.4,536.1c-7.5-0.6-13.7-4-18.9-9.3c-0.9-0.9-1.7-2-2-3.4c0-0.3-0.1-0.6-0.1-0.8c-1.7-1.2-3.3-2.4-4.9-3.7
		c-2-1.6-3.9-3.3-5.8-4.9c-0.2,0.4-0.5,0.8-0.8,1.2c-0.6,0.6-1.1,1.2-1.7,1.7c-0.9,0.7-1.1,1.6-1,2.7c0.2,3.2,1.2,6.2,2.7,9.1
		c3.7,7,9.2,12.2,15.7,16.6c3.1,2.1,6.4,3,10.2,2.3c1-0.2,1.9-0.5,2.8-1.2c2.4-1.9,4.3-4.1,5.8-6.7
		C476.6,536.1,476.6,536.5,472.4,536.1z"/>
	<path class="st1" d="M399.5,134.1c0.9,1,1.7,2.1,2.4,3.2c3.2,4.9,6.4,9.8,9.6,14.7c1,1.5,1.8,3,2.4,4.6c0.4,1.1,1,2.3,1.7,3.3
		c1.5,2.2,3.9,2.4,5.8,0.6c1.3-1.3,2.6-2.6,3.9-4c0.9-0.9,1.8-1.7,2.9-2.2c3.9-1.7,7.4-4.4,11.8-5.1c0.1,0,0.2,0,0.3-0.1
		c3.7-1.4,5-5.3,2.7-8.5c-1.6-2.3-3.3-4.7-5.1-6.9c-1.2-1.5-2.6-3-4.1-4.1c-3.8-2.8-7.6-2.4-10.3,1c-0.4,0.6-0.7,1.2-1.1,1.9
		c-0.4,0.6-0.9,0.8-1.5,0.6c-1.2-0.5-2.4-1.2-3.5-2c-2.3-1.8-4.6-3.8-7.1-5.3c-2.4-1.4-5-2.3-7.8-2.3c-0.6,0-1.2-0.1-1.8,0
		c-3,0.5-4.5,3-3.6,5.9C397.5,131,398.3,132.6,399.5,134.1z"/>
	<path class="st1" d="M412.9,254.5c0-0.1,0-0.2,0-0.2c-0.2-0.1-0.3,0-0.3,0.2C413,254.4,412.7,254.8,412.9,254.5z"/>
	<path class="st1" d="M370.5,254.8c1.6,2.9,3.9,5.1,6.5,6.9c4.6,3.1,9.6,4.5,15.1,4.1c4.6-0.4,8.8-1.9,12.9-3.7
		c1.8-0.8,3.4-2,4.7-3.4c1.1-1.2,2.5-2.4,2.9-4.1c-0.3,0-0.6-0.1-0.8,0c-4.6,1.4-9.4,2.1-14.1,2.9c-2.7,0.5-5.5,0.9-8.3,0.5
		c-7.8-1.1-15.1-3.6-21.4-8.6c-0.3-0.3-0.6-0.8-1.2-0.5c0,0.7,0.5,1.1,0.8,1.6C368.5,251.9,369.6,253.3,370.5,254.8z"/>
</g>
<g>
	<path class="st2" d="M667.6,410.9c0.7,0.9,1.2,1.9,1.9,2.8c0.5,0.7,1.1,0.7,1.4,0.1c2.5-5,6-9.3,9.4-13.6c2.1-2.7,4.2-5.3,6-8.1
		c2.4-3.7,4.5-7.6,5.9-11.8c1.1-3.2,1.7-6.5,2.1-9.9c0.3-2.9,0.5-5.7,0.5-8.6c0-3.8-0.5-7.5-1-11.3c-0.1-0.6-0.1-1.2-0.1-1.8
		c0-3.4-0.7-6.7-1.8-9.9c-1.3-3.9-2.8-7.7-4.5-11.4c-2.4-5.5-4.9-10.9-6.4-16.7h-0.1c-0.7,0-1.4-0.5-2-0.1c-0.1,0.1-0.2,0.2-0.2,0.3
		c-0.1,0.5-0.1,1-0.2,1.5c-0.6,5.6-1.6,11.2-3.5,16.5c-1.6,4.5-3.2,9.1-4.8,13.6c-0.5,1.4-1.1,2.9-1.7,4.3c-0.4,0.9-1,1.8-1.6,2.6
		c-2,2.2-4.7,2.5-7.2,0.9c-1.2-0.8-2.2-1.9-2.9-3.1c-0.9-1.4-1.7-2.8-2.5-4.2c-1.8-3.1-4-5.7-6.7-7.9c-1.9-1.5-3.8-3.2-5.8-4.6
		c-2.7-1.9-4.6-4.2-5.8-7c0.1,0.7,0.2,1.4,0.3,2.1c0.5,3.7,1,7.5,1.7,11.2c0.5,2.5,0.5,5,0.5,7.5c3.5,4.1,6.5,8.4,8,13.7
		c1,3.5,2,6.9,2.8,10.4c1,4.3,3.1,8,5.6,11.6c0.9,1.2,1.2,1.3,2.5,0.4c1.4-0.9,2.6-2,3.6-3.3c5.2-6.6,8.6-13.9,10.1-22.1
		c0.8-4.4,1.9-8.8,2.8-13.2c0.2-1,0.6-2,1.2-2.8c1.8-2.5,5.3-2.4,7,0.2c0.5,0.8,0.8,1.6,1,2.6c0.2,1.5,0.5,3.1,0.5,4.6
		c0.2,6.8,0.4,13.5,0.6,20.3c0.1,3.8-0.6,7.6-1.7,11.2c-0.6,2-1.5,3.8-2.7,5.5c-2.7,3.7-5.6,7.4-8.8,10.7c-1.5,1.6-6.1,4.5-7.7,6.6
		c-1.6,2.1-2.8,4.6-4.7,6.5c-0.2,0.2-0.4,0.5-0.5,0.8l0,0C661.4,407,664.8,407.4,667.6,410.9z"/>
	<path class="st2" d="M586.7,162.4c3.7-1.9,7.5-3.2,11.7-3.6c5.6-0.6,11.1,0,16.6,0.5c2.6,0.2,5,1.2,7,2.9c2.3,2,4.9,3.3,7.7,4.3
		c1,0.3,1.9,0.7,2.8,1.3c2.8,1.8,5.8,3.1,8.7,4.6c2.3,1.2,4.5,2.5,6.7,3.8c8.3,5.1,14.2,12.3,17.8,21.4c4,10,6.4,20.4,6.8,31.1
		c0.3,8.6,0.3,17.2-0.6,25.8c0.1-0.1,0.3-0.3,0.4-0.4c4.9-4.9,8.7-10.5,11.5-16.9c1.9-4.4,2.9-8.9,3.8-13.5c0.2-0.8,0.3-1.6,0.4-2.4
		c-1-0.2-2.1-0.7-3-1.5c-3.5-3-5.8-6.9-7-11.4c-0.8-2.9-0.1-5.7,0.4-8.5c0.9-4.9,1-9.8-1.5-14.4c-0.6-1.1-1-2.2-1.5-3.4
		c-2.2-4.9-3.4-10.1-3.5-15.5c0-1.7-0.1-3.5-0.3-5.2c-0.7-6.2-1.9-12.4-3.5-18.4c0,0,0,0,0-0.1c-1.6-2.7-3.6-5.1-6-7.3
		c-0.7-0.7-1.1-0.6-1.8,0.1c-0.3,0.3-0.6,0.6-0.9,0.9c-2.3,2-4.9,2.1-7.2,0.1c-1.5-1.3-2.9-2.6-3.9-4.3c-2-3.1-4.4-5.9-6.8-8.7
		c-1.7-2-4.1-3.4-6.5-4.6c-3.7-1.8-7.4-3.4-11.2-4.8c-0.3,0.5-0.6,1-0.9,1.5c-0.7,1.4-0.7,1.5,0.5,2.6c3.1,2.9,6.1,5.8,9.1,8.8
		c3.7,3.8,6.5,8.2,8.2,13.2c1.3,3.7,2.6,7.4,3.9,11c0.3,0.9,0.5,1.8,0.5,2.7c-0.1,4.1-4.3,6.6-7.9,4.7c-0.9-0.5-1.7-1.1-2.4-1.9
		c-0.6-0.7-1.1-1.5-1.7-2.2c-2.8-3.7-6.3-6.4-10.6-8.2c-7.8-3.3-15.8-3.7-23.8-1c-6.6,2.2-12.2,5.9-14.3,13.2
		c-0.1,0.4-0.3,0.8-0.4,1.2c-0.5,1.4-1.3,2.7-1.4,4.3C584.1,164.4,585.3,163.1,586.7,162.4z"/>
	<path class="st2" d="M705.2,558.1c-1.2-3.4-1.8-6.9-1.7-10.5c0.1-2.5,0.1-4.9,0-7.4c0-1.2,0-2.4,0.1-3.7c-0.8-0.1-1.5-0.3-2.2-0.7
		c-1.6-1-2.5-2.4-3-4.1c-0.5-1.5-0.7-3-0.8-4.5c-0.4-5.3-0.4-10.6-0.1-16c0.1-2.6-0.2-5.2-1.1-7.6c-1.1-2.9-2-5.8-3-8.7
		c-0.1-0.4-0.2-0.8-0.4-1.1c-0.1-0.2-0.4-0.5-0.6-0.6c-0.3-0.1-0.5,0.2-0.7,0.5c-2.2,5.8-4.5,11.7-6.7,17.5c-0.4,1-0.7,2.1-1,3.1
		c-1.5,4.6-2.4,9.5-2.5,14.3c-0.2,7.6,0.9,14.8,5.9,20.8c0.7,0.9,1.2,1.9,1.8,2.8c0.3,0.5,0.6,1.1,0.9,1.6c1.6,3.8,0.1,7.3-3.8,8.6
		c-3.1,1-6.3,0.9-9.3-0.4c-1.7-0.8-3.2-1.9-4.6-3.1c-0.7-0.6-1.2-1.4-2.4-1.8c-0.6,1.3-1.1,2.6-1.3,4c-0.9,6.8-1.9,13.6-2.3,20.5
		c-0.5,8.3,0.3,16.6,1.4,24.9c0.6,4.5,1.2,9,1.7,13.4c0.3,2.2,0.2,4.3-0.2,6.3l0,0c0,0,0,0,0,0.1c-0.3,1.7-0.8,3.4-1.5,5
		c-0.7,1.7-1.5,3.2-2.4,4.8c-0.6,1.6-1.4,3.2-2.1,5c0.3-0.3,0.5-0.6,0.8-0.9l1.9-2c0.6-0.7,1.3-1.3,1.9-2c1.3-1.3,2.6-2.6,4-3.9
		l0.5-0.5l0.5-0.5l1-0.9c0.7-0.6,1.4-1.3,2.1-1.9l2.1-1.8l1.1-0.9c0.4-0.3,0.7-0.6,1.1-0.9l2.2-1.7l0.6-0.4l0.6-0.4l1.1-0.8l2.3-1.6
		l2.3-1.5c5.7-3.7,11.8-6.9,18.1-9.5c0.4-1.8,0.8-3.6,1.3-5.4c1.6-6.9,2.1-14,1.6-21C709.6,574.3,708,566,705.2,558.1z"/>
	<path class="st2" d="M628.9,597.8c0.3-1-1-1.7-1.7-0.9l0,0c-1.3,1.3-2.6,2.6-3.9,3.9c-4.9,4.8-8.2,10.5-9.9,17.1
		c-0.4,1.7-0.7,3.4-1.2,5.1c-1,3.6-3.6,5.7-6.8,5.6c-3.1-0.1-5.5-2.2-6.2-5.8c-0.7-3.1-1.6-6.2-2-9.3c0-0.4-0.2-0.8-0.6-1
		c-0.2,0-0.4,0.1-0.6,0.2c-2.1,1.4-3.9,3.2-5.5,5.2c-2.7,3.5-6.4,5.2-10.7,5.3c-0.9,0-1.9,0-2.8-0.1c-3.3-0.4-6.5-0.8-9.8-1.3
		c-3.5-0.6-7.1-1.3-10.6-1.9c-1.5-0.3-2.8-0.1-3.9,1.1c-1.1,1.1-2.5,1.8-3.9,2.3c-4.1,1.5-6.1,4.7-7.3,8.6c-0.4,1.3-0.6,2.6-0.9,3.9
		c-0.7,2.8-1.1,5.6-2.3,8.3c-0.8,1.8-1.8,3.6-3.4,4.8c-2.8,2.2-6.7,1.7-9.1-0.9c-0.8-0.9-1.4-2-1.7-3.1c-0.3-1-0.5-2-0.7-3
		c-0.5-2.6-0.9-5.3-1.3-7.9c-0.2-1.1-0.7-1.8-1.8-2.2c-4.7-1.4-9.4-2.8-14.4-3.3c-3.5-0.3-7-0.6-10.5-0.8c-4.8-0.2-9.6-0.8-14.3-1.9
		c-6.4-1.4-12.8-2.9-18.5-6.3c-0.2-0.1-0.4-0.2-0.5-0.3c-0.3-0.1-0.6-0.1-0.9-0.1c-1.8,0.4-3.8,2.6-3.5,4.5c0.2,1.9,0,4,1.1,5.8
		c0.7,1,1.1,2.2,1.6,3.3c0.4,0.9,0.8,1.8,1.1,2.7c0.2,0.6,0.4,1.2,0.5,1.8c0.5,3.9-1.7,6.7-5.6,7.2c-2.1,0.2-4.1-0.3-5.9-1.2
		c-5.7-2.9-10.3-7-13.7-12.5c-2.5-4.1-4.2-8.5-4.5-13.3c-0.1-1.7-0.2-3.5-0.2-5.2c0-0.9-0.3-1.5-1.2-1.9c-1-0.4-2-1-3-1.5
		c-1.7-0.9-3.3-2.3-5.1-2.8c-1.8-0.6-3.9-0.2-5.8-0.6c-2-0.4-3.1,0.2-4,1.8c-0.7,1.2-1.3,2.3-1.5,3.7c-0.4,2.3-0.5,4.7-0.1,7
		c0.2,1,0.4,2,0.5,3c0.3,2-0.3,3.7-2,4.8c-1.8,1.1-3.5,0.8-5.2-0.4c-4.3-3.2-7.8-7-9.9-12c-1.3-3-2.4-6.1-3-9.4
		c-0.3-1.5-0.5-3-0.7-4.6c-0.1-0.8-0.5-1.3-1.4-1.3c-0.4,0-0.8-0.1-1.2-0.1c-5.2-0.7-10.4-1.6-15.4-3.2c-8.7-2.8-16.6-7.1-23.8-12.5
		c1.6,3.6,3.1,7.1,4.5,10.8c1.6,4.1,3.5,8.1,5.7,11.9c2.1,3.6,3.9,7.4,5.3,11.4c0.4,1.1,0.7,2.1,1.2,3.2c0.2,0.3,0.3,0.7,0.4,1.1
		c1,0.9,2.1,1.8,3.2,2.6c2.4,1.8,4.9,3.4,7.3,5.1c4.2,2.8,8.4,5.5,12.5,8.4c11.5,8,23.5,15.1,35.7,21.8c0.9,0.5,1.9,0.7,2.5,1.7
		c-1.1,0.8-2.1,0.1-3.1-0.1c-1.4-0.3-2.7-0.8-4.1-1.4c-3-1.2-5.9-2.4-8.8-3.6c-7.5-3.2-15-6.5-22.8-9.3c-9.2-3.2-18-7.5-26.1-13
		c-0.3-0.2-0.6-0.6-1-0.1c0,0.2,0,0.4,0.1,0.6c2.9,5.1,6,10.1,10.3,14.1c1.2,1.1,2.3,2.3,3.3,3.6c2.3,2.9,3.2,6.1,2.6,9.8
		c-0.2,1.2-0.4,2.4-0.6,3.6c-0.9,5.6-1.1,11.2-0.6,16.9h254.6c0.2-0.2,0.5-0.3,0.7-0.5c0.1-0.1,0.2-0.1,0.2-0.2
		c-2-3.6-6.2-12.7-10.7-31.4C618.5,636.2,625.2,610.4,628.9,597.8z"/>
	<path class="st2" d="M736.4,389.3c-0.1-1.6-0.2-3.3-0.6-4.9c-2.6-10.8-2.9-21.7-1.9-32.7c0.5-5.5,0.8-11.1,1.5-16.5
		c0.4-3.1-0.3-5.3-2.6-7.3c-3.3-3.1-5.1-7.2-6.5-11.4c-1.2-3.5,1.1-6.4,4.8-6.5c0.9,0,1.8,0.3,2.7-0.2c-3.5-3.1-6.1-6.8-8.4-10.9
		c-2.8-5.1-4.8-10.4-6.6-15.9c-0.2-0.7-0.2-1.5-1-1.9c-0.2,0.2-0.5,0.3-0.6,0.6c-2.4,4.9-5.1,9.6-7.1,14.7c-1.3,3.4-1.2,6.6,0.4,9.8
		c4.4,8.4,7.4,17.3,10.2,26.4c2.7,8.9,3.7,18.1,3,27.4c-0.3,4.6-0.9,9.1-1.5,13.7c1,2.2,1.9,4.5,2.3,7c0.2,1.5,0.8,3,1.4,4.4
		c1.2,2.9,2.5,5.8,3.7,8.8c1,2.6,2.6,4.8,4.5,6.9c1.8,1.9,3.7,3.8,6,5.2C738.1,400.5,736.9,395.1,736.4,389.3z"/>
	<path class="st2" d="M297.5,180c0.4,1.7,0.6,3.4,0.7,5.2c0,1,0.1,2.1,0.1,3.1c0,0.6,0.3,1,0.8,1.2c0.7,0.3,1.2,0.1,1.6-0.4
		c0.1-0.2,0.3-0.3,0.4-0.5c4.9-6,9.6-12,13.1-18.9c0.3-0.5,0.6-1.1,0.9-1.6c0.2-0.3,0.3-0.5,0.6-0.7c0.3-0.3,0.7-0.6,1.1-0.3
		c0.2,0.1,0.5,0.5,0.4,0.7c-0.1,1.3-0.1,2.7-0.3,4c-0.5,2.8-1.4,5.6-2.5,8.2c-1.4,3.4-3.2,6.7-5.1,9.8l0,0c1.8,0,3.6,0.6,5.3,1.6
		c3,1.8,5,4.5,6.9,7.3c1.5,2.2,2.5,4.5,3.4,6.9c1.3-0.7,2.6-1.2,4-1.6c1.1-0.3,1.8-0.9,2.1-2c0.3-1,0.7-1.9,1.1-2.9
		c0.3-0.7,0.3-1.4,0.3-2.1c-0.1-8.3,0.6-16.6,2.6-24.7c1.6-6.4,5.3-11.2,10.3-15.3c2-1.7,4.3-2.7,6.8-3.4c5.6-1.6,11.1-1.5,16.8-0.4
		c8.7,1.7,16.6,5.3,24.3,9.4c2,1.1,3.8,2.4,5.3,4.2c0.5,0.7,1.2,1.1,1.9,1.5c4.8,2.2,8.1,5.9,10.6,10.4c0.1,0.3,0.3,0.5,0.5,0.8
		c0.1,0.1,0.2,0.1,0.3,0.2c0.6-0.2,0.5-0.7,0.6-1.2c0.2-0.7,0.2-1.4,0.4-2.1c1-3.4,3.6-5.5,7.2-4.7c1.4,0.3,2-0.2,2.8-1.2
		c1.9-2.7,4.2-5,6.7-7.2c1.9-1.7,4.1-3.1,6.5-4c2.6-1,5.4-1.5,8.2-0.8c3.1,0.9,5.5,0.3,7.5-2.5c0.7-1.1,1.9-1.8,3-2.6
		c0.7-0.6,1.1-1.1,1-2.1c-0.5-3.7-1-7.3-1.5-11c-0.1-0.8-0.2-1.6-0.2-2.4c0.2-2.8,2.5-4.6,5.3-4.1c1.3,0.2,2.3,0.9,3.2,1.8
		c1.4,1.3,2.4,2.8,3.2,4.5c1,2.1,2,4.3,2.9,6.4c1.8,4.4,4.1,8.5,6.6,12.5c1,1.6,2,3.1,2.8,4.7c2.7,4.9,3.9,10.1,4.1,15.6
		c0,0.7,0,1.4-0.1,2.1c-0.5,3.3-2.1,5.2-5.5,5.7c-1.7,0.3-1.9,0.3-2,2.3c-0.1,2.8-0.2,5.5,0.1,8.3c0.3,2.4,1.1,4.6,2.5,6.6
		c0.7,1,1.4,2,2,3.1c2.1,4,0.3,7.9-4.1,9.1c-4.4,1.3-11,0-14.6-5.4c-0.3-0.5-0.6-1.1-1-1.6c-0.5-0.7-0.9-0.8-1.4-0.1
		c-0.3,0.3-0.5,0.6-0.8,1c-0.7,1.2-2.3,1.9-2.3,3.6c0,2.5,0.3,4.9,1.7,7.1c0.6,0.9,1.3,1.6,1.9,2.4c0.6,0.8,1.3,1.6,1.9,2.4
		c1.3,2,1.8,4.1,1.2,6.4c-0.4,1.4-0.3,1.5,1.1,1.9c0.9,0.3,1.8,0.5,2.6,1c2.6,1.4,3.1,3.9,1.2,6.1c-0.6,0.7-1.3,1.4-2.1,1.8
		c-2.4,1.4-4.8,2.8-7.2,4.1c-1.7,0.9-3.6,1.4-5.6,1.5c-1.6,0.1-3,0.6-4.4,1.3c-3.6,1.7-6.8,4.2-10.1,6.5c-0.6,0.4-1,1-1.3,1.7
		c-2.2,3.7-4.5,7.4-6.3,11.3c-1,2-2.1,3.9-3.3,5.7c-1,3.6-1.5,7.2-2.5,10.8c-0.4,1.4-0.9,2.5-1.9,3.4c-0.8,0.7-1.5,1.4-2.3,2.1
		c-8.5,6.9-14.9,15.5-19.4,25.4c-2.9,6.3-5,13-6.2,19.9c-0.6,3.2-1.2,6.4-1.7,9.7c-0.1,0.7-0.1,1.4-0.1,2.1c0,2.1,0,4.1-0.1,6.2
		c-0.1,3.9,0.4,7.8,1.5,11.5c0.4-1.6,0.6-3.1,0.5-4.8c-0.1-3.6,0.4-7.2,1.3-10.7c0.6-2.4,1.6-4.7,3.1-6.6c2.2-2.8,4.2-5.8,6.2-8.8
		c0.7-1,1.5-2,2.2-2.9c0.7-0.8,1.4-1.4,2.6-1.2l0,0l0,0l0,0l0,0h0.1h-0.1c0,1.1-0.5,2-0.8,2.9c-0.7,1.8-1.4,3.6-2.1,5.5
		c-1,2.7-1.6,5.5-1.6,8.4c0,1.2-0.1,2.5-0.2,3.7c-0.5,5.4-0.1,10.6,1.3,15.6c0.5-2.7,1.2-5.5,1.9-8.2c1.9-6.8,4.3-13.5,7.4-19.8
		c1.5-3.1,3.1-6.2,5.3-9.3c0.4,1,0.2,1.8,0.3,2.5c0.1,0.8,0.4,1.6,0.4,2.4c0.2,4.5,1.6,8.6,3.5,12.6c1.2,2.5,2.5,5,3.7,7.4
		s2.8,4.5,4.7,6.4c4.4,4.5,9,8.7,14.3,12.1c5.2,3.3,10.6,6.3,16.5,8c2.2,0.6,3.8,2,5.1,3.7c0.6,0.8,1.2,1.7,1.4,2.7
		c1.2,0.7,2.1,1.8,2.5,3c0.6,1.9,0.6,3.9-0.3,5.7c-1.1,2.3-1.8,4.8-2.7,7.2c-0.3,0.8-0.6,1.5-1,2.2c-0.2,0.8-0.4,1.7-0.7,2.5
		c-1.1,3.8-2.7,7.5-4.4,11.1c-4.5,9.1-8.9,18.2-13.7,27.2c-2.4,4.6-4.5,9.4-7.4,13.8c-0.3,0.5-0.7,1-1,1.5c1.7-0.5,3.2-1.4,4.5-2.7
		c2.5-2.5,4.7-5.1,6.3-8.3c1.7-3.2,3.6-6.2,5.5-9.2c1.6-2.4,3.2-4.8,4.4-7.4c4.2-8.6,10.9-15.1,18.6-20.5c1.9-1.4,3.9-2.7,5.8-4
		c2.6-1.8,5-3.9,7.2-6.2c1.9-2,3.4-4.3,4.5-6.9c0.3-0.8,0.7-1.5,0.5-2.4c-0.6-2.5-0.9-5-1.9-7.4c-0.6-1.5-1.6-2.6-3.1-3.3
		c-6.3-2.8-12.4-5.9-19-7.9c-5.5-1.7-10.8-3.9-16-6.2c-5.5-2.4-10.5-5.7-15.2-9.3c-3.2-2.4-5.9-5.4-8-8.9c-3.9-6.3-6.6-13-8-20.2
		c-1.4-7.3-1.3-14.7,0-22.1c0.7-4.1,1.5-8.3,2.2-12.4c0.6-3.6,1.7-7,3.5-10.1c2.2-3.8,4.2-7.8,6.8-11.3c4.1-5.5,9-10.1,14.2-14.4
		c1.8-1.5,3.9-2.7,6.1-3.5c7.9-2.9,15.9-5.6,24.2-7.1c6-1.1,12.2-1.6,18.4-1.4c4.5,0.2,9-0.2,13.5-0.4c5.3-0.2,10.5,0.2,15.6,1.1
		c1.2,0.2,2.4,0.3,3.7,0.4c2.1,0.2,4.3,0.3,6.4,0.5c3.2,0.3,6.2,1.3,9,2.9c5.7,3.4,10.6,7.7,14.8,12.9c4,4.9,7.7,10.1,11.1,15.5
		c3.5,5.7,5.7,11.8,6.2,18.5c0.4,5.1,1.5,10.1,2,15.3c0.3,3.2,0.6,6.3,0.7,9.5c0.3,8.7-2.6,16.3-7.9,23.1
		c-4.4,5.5-9.6,10.2-15.6,13.8c-5.4,3.2-10.8,6.3-16.3,9.3c-4.2,2.3-8.5,4.6-12.5,7.3c-2.8,1.9-5.8,3.5-8.8,5c-1,0.5-2,1-3,1.6
		c-2.1,1.2-2.6,2.2-2,4.6c0.5,2.2,1.1,4.4,1.8,6.5c0.4,1.3,0.9,2.5,1.4,3.7c1.8,4.6,4.9,8,8.9,10.7c4.8,3.1,9.7,6.2,14.5,9.4
		c1.3,0.8,2.5,1.8,3.7,2.8c4.8,4.1,9.4,8.3,13.5,13.1c0.5,0.5,0.9,1.1,1.5,1.6c4.3,3.8,7.3,8.6,9.5,13.8c0.7,1.7,1.6,3.1,2.9,4.3
		c0.7,0.7,1.5,1.4,2.3,2c-0.3-2.4-0.9-4.7-1.6-7.1c-1.9-6.2-4.2-12.2-6.4-18.2c0-0.1-0.1-0.2-0.1-0.3c-1.6-1.7-3.1-3.5-4.4-5.4
		c-4.2-6.1-8.9-11.8-13.8-17.3c-0.9-1-1.8-2-2.7-2.9c-2.3-2.3-4.9-4.1-7.8-5.3c-1.3-0.6-2.6-1.2-3.8-1.9c-1.6-1-2.8-2.5-3.2-4.4
		s0.2-3,2-3.5c0.8-0.3,1.5-0.5,2-1.2c0.8-1.1,2-1.8,3.3-2.1c1.1-0.3,2-0.9,2.9-1.6c3.2-2.6,6.6-4.9,10-7.2c1.5-1,3-2.1,4.5-3.2
		c1.9-1.4,3.9-2.7,5.8-4c1.1-0.7,2.3-1.3,3.5-1.7c1.1-1.5,2.4-3,3.8-4.3c2.6-2.5,5-5.1,7.3-7.9c2.8-3.4,4.9-7.3,6.2-11.6
		c0.8-2.5,1.1-2.9,3.5-0.8c3.7,3.3,6.7,7.2,8.5,11.9c0.1,0.2,0.2,0.4,0.3,0.6c2.6,5.3,2.9,11,2.2,16.8c-0.4,2.9-1,5.8-0.9,8.8
		c0.1,2.3,0.7,4.2,2.4,5.8c0.7,0.6,1.3,1.3,2,1.9c2.4,2.1,4.2,4.8,5.7,7.6c3.3,6,5.5,12.3,7,19c0.3,1.4,0.5,2.8,0.7,4.2
		c0.1,1,0,2-0.4,3c-2.2,5.5-3.5,11.3-4.6,17.1c0.9-3.5,2.3-6.9,4.1-10c2.9-4.9,3.8-10.3,3.4-16c-0.1-1.7-0.4-3.5-0.5-5.2
		c-0.6-6.4-2.7-12.4-5.8-18c-0.9-1.6-1.8-3.2-2.8-4.8c-1.5-2.5-2.1-5.1-1.8-8c0.3-2.1,0.5-4.3,0.9-6.4c0.8-5.3,0.2-10.5-2.5-15.2
		c-2.1-3.7-2.8-7.6-2.5-11.8c0.1-1.4,0.1-2.9,0-4.3c-0.2-0.7-0.4-1.4-0.5-2.1c-0.9-5.3-3-10.2-5.8-14.8c-1.3-2.1-2.8-4-4.2-6.1
		s-2.7-4.3-4-6.5c-0.3-0.4-0.4-0.9-0.7-1.4c-1.9-2.5-3-5.4-2.6-8.6c-0.8-5.7-1.5-11.3-2.7-16.9c-1.1-5.1-2.8-10-4.7-14.9
		c-0.8-2.1-1.6-4.2-2.5-6.3c-2-4.9-4.9-9.1-8.5-13.1c-0.8-0.9-1.6-1.8-2.4-2.6c-0.9-0.6-1.8-1.1-2.7-1.7c-1-0.6-2-1.1-3.1-1.2
		c-3.8-0.4-7-2.3-9.9-4.6c-4.1-3.3-5.3-7.7-4.4-12.7c0.5-2.9,2.2-5,5.1-6c0.4-0.1,1,0,1.3-0.8c-1.1-0.8-2.3-1.5-3.5-2.3
		c-1.1-0.8-2.2-1.6-3.1-2.5c-1.1-1-2.1-2-3-3.1s-1.7-2.3-2.5-3.5s-1.5-2.5-2.1-3.8c-0.6-1.2-1-2.5-1.5-3.7c-0.5-1.3-0.5-2.8-1.2-4.1
		c-1,0.6-1.2,1.6-1.7,2.3c-0.8,1.4-1.7,2.8-2.8,4c-2.3,2.2-4.4,2.3-6.8,0.3c-2.3-1.9-3.7-4.4-4.5-7.2c-1.7-5.6-2-11.3-1.1-17
		c0.8-4.8,2.8-9.2,5-13.5c0.8-1.6,1.7-3.3,2.5-5c1.1-2.4,2.2-4.8,3.6-7.1c1.7-2.8,3.2-5.7,3.1-9.2c0-0.4,0.1-0.8,0.1-1.2
		c0.8-5.3,2.4-10.4,5-15.1c2-3.6,4.9-6.3,8.1-8.8c1.6-1.2,3.4-1.4,5.2-0.5s2.7,2.5,2.8,4.5c0.1,1.1-0.1,2.3-0.5,3.3
		s-0.9,2.1-1.3,3.1c-0.9,2.2-1.7,4.4-2,6.8c-0.4,2.4-0.4,2.4,2.2,2.2c0.7-0.1,1.4-0.1,2.2-0.1c3.2,0.2,5.7,1.7,7.2,4.5
		c0.6,1.1,0.9,2.3,1.4,3.4c0.1,0.4,0.2,0.8,0.8,0.8c0.7-0.5,0.8-1.3,1.2-2c1.3-2.3,2.3-4.8,3.8-7c1.6-2.4,2.4-4.9,2.4-7.8
		c0-1,0.1-2.1,0.1-3.1c0.1-2.4-0.9-4.4-2.7-5.9c-1.2-1-2.4-1.9-3.6-2.9c-2.6-2-4.5-4.4-5.4-7.6c-0.1-0.2-0.1-0.4-0.2-0.6
		c-0.2-0.7-0.7-1-1.3-1.1c-1.6-0.2-3.3-0.3-4.9-0.1c-0.7,0.1-1.4,0.2-2.1,0.2c-2.4-0.1-4.2-2.1-6.7-2.1c-0.5,0-1.1-0.5-1.6-0.8
		c-1.2-0.8-2.1-2-2.6-3.3c-0.8-1.8-1.4-3.6-1.9-5.5c-0.7,0-1.3,0.3-2,0.8c-1.8,1.5-3.5,3.1-4.9,5c-4.4,6.1-7.6,12.9-10.4,19.8
		c-1,2.6-1.9,5.2-2.8,7.8c-0.5,1.6-1.1,3.2-2.6,4.2c0,0.6,0,1.2,0,1.8c0,2.3-0.1,4.5-0.5,6.7c-0.6,3.1-2,5.8-4.4,7.9
		c-3.7,3.3-8.5,3.7-12.8,1.1c-2.4-1.5-4.1-3.7-5.5-6.1c-1.9-3.4-3.6-6.9-5.1-10.5c-0.3-0.7-0.6-1.5-1.1-2.7c-0.7,0.9-1.1,1.5-1.6,2
		c-2,2.1-5.1,2.4-7.2,0.3c-3.4-3.4-6.8-6.8-9.4-10.8c-2.1-1-4.2-2-6.3-3.1c-3.3-1.8-6.5-3.9-9.2-6.6c-3.7-3.9-7.9-7.2-12.5-9.8
		c-0.4-0.2-0.8-0.5-1.2-0.7c1.2,3.6,1.8,7.4,1.8,11.2c0,0.8,0,1.6-0.1,2.5c-0.1,0.7-0.3,1.4-0.6,2c-1.3,2.6-4,3.1-6.1,1.2
		c-1.1-1-1.9-2.2-2.5-3.5c-0.8-1.8-1.7-3.5-2.4-5.3c-1.6-3.8-4-7.1-6.8-10.2c-0.3-0.3-0.6-0.6-0.9-0.8c-0.1-0.1-0.2,0-0.6-0.1
		c0.8,1.8,1.6,3.2,2.2,4.7c1.4,3.2,0.3,6.2-1,9.2c-0.7,1.5-2.5,2.1-4.3,1.7c-1.2-0.3-2.3-0.8-3.4-1.3c-1.3-0.7-2.5-1.5-3.6-2.3
		c-3.7-2.7-7.8-4.5-12-6.2c-4-1.6-7.6-0.8-11.1,1.4c-1.1,0.7-2,1.7-2.7,2.9c-0.7,1.1-1,2.2-0.5,3.5c0.6,1.8,0.7,3.6,0.4,5.5
		c-0.4,3.3,1,6,2.3,8.8c0.3,0.6,1,1,1.5,1.5c1.5,1.2,3,2.4,4.4,3.9c1.7,1.8,3.1,3.8,4.1,6.1c0.3,0.7,0.5,1.3,0.7,2
		c0.9,3.9-2.1,7-6,6.2c-2.1-0.4-3.9-1.3-5.4-2.7c-1.4-1.3-3.1-2-4.9-2.3c-3.9-0.8-7.8-1.9-11.8-2.2c-2.5-0.2-4.9-0.2-7.2,1
		c-1.5,0.8-3.1,1.1-4.7,1.2c-9.5,0.9-18.8,3.2-27.9,6.1c-2.9,0.9-5.9,1.8-8.8,2.6c-1.5,0.4-3,0.5-4.6,0.4c-3.5-0.2-6.2-2.2-7.3-5.6
		c-0.5-1.5-0.7-3-0.7-4.5c0-0.9,0-1.8,0-2.7l-0.1,0.1c-4.2,6.3-7.6,13.1-10.4,20.2c-1.7,4.2-3.1,8.4-4.4,12.7
		c0.1,0.1,0.2,0.2,0.2,0.3C296.6,177.1,297.2,178.5,297.5,180z M483.3,222.9c2.4-3.6,2.6-7.9,3.5-12c0.1-0.7-0.1-1.4-0.2-2.1
		c-0.4-2.1-0.5-4.1,0.5-6c0.2-0.4,0.3-0.8,0.4-1.2c0.2-2.3,0.6-4.7,0.6-7c0.1-5.1,0-10.2,0-15.4c0-0.8-0.1-1.6-0.3-2.4
		c-0.4-1.7-0.3-3.5-0.2-5.2c0.1-1.3,0.4-2.6,0.5-3.9c0.1-1.4,1-2.4,2.2-2.6c1.6-0.3,2.7,0.1,3.4,1.4c1.2,2.1,1.8,4.3,2.4,6.6
		c0.1,0.5,0.1,1,0.9,1.5c0.8-1.3,1.5-2.5,2.4-3.7s1.9-2.4,3.5-2.9c1.8-0.6,3.5-0.2,4.6,1.3c0.5,0.8,1,1.6,0.9,2.6
		c0,1.2,0.4,2.2,0.6,3.3c0.2,0.8,0.5,1.5,1.1,2.2c1.1,1.2,1.5,2.6,1.5,4.2c-0.1,2.3,0,4.7-0.4,7s-0.1,4.7,0.2,7
		c0.7,5.1,2.2,10,3.3,15c0.4,1.8,1.3,3.1,3,4c1.2,0.6,2.3,1.4,3.3,2.3c1.3,1.1,2.6,1.4,4.3,0.8c1.8-0.6,3.6-0.4,5.4,0.5
		c1.3,0.7,2.4,1.6,3,3c0.6,1.3,1,2.7,1.7,3.9c2.2,3.9-0.5,10-5.1,11.4c-2.3,0.7-4.7,0.6-7,0.3c-2.6-0.4-5.2-1-7.9-1.1
		c-0.7,0-1.4-0.2-2.1-0.4c-1.7-0.3-3.4-0.1-5.2,0c-3.8,0.3-7.4,1.7-10.9,2.8c-1.5,0.5-3,0.8-4.4,1.2c-2.3,0.6-4.5,1.2-6.6,2.3
		c-0.9,0.5-1.9,0.7-2.9,0.8c-2.4,0.2-3.9-0.9-4.9-3c-1.7-3.6-1.4-7,1.3-10c1.4-1.6,2.5-3.2,3.1-5.2C482.7,224,483,223.4,483.3,222.9
		z M399.5,134.1c-1.3-1.4-2.1-3-2.6-4.8c-0.8-2.9,0.7-5.4,3.6-5.9c0.6-0.1,1.2,0,1.8,0c2.8,0.1,5.4,0.9,7.8,2.3
		c2.6,1.5,4.8,3.5,7.1,5.3c1.1,0.8,2.2,1.4,3.5,2c0.6,0.3,1.2,0.1,1.5-0.6c0.3-0.6,0.6-1.3,1.1-1.9c2.7-3.5,6.5-3.9,10.3-1
		c1.5,1.1,2.9,2.6,4.1,4.1c1.8,2.2,3.5,4.6,5.1,6.9c2.2,3.2,1,7.1-2.7,8.5c-0.1,0-0.2,0.1-0.3,0.1c-4.4,0.7-7.9,3.4-11.8,5.1
		c-1.1,0.5-2.1,1.3-2.9,2.2c-1.3,1.3-2.5,2.7-3.9,4c-1.9,1.8-4.3,1.6-5.8-0.6c-0.7-1-1.2-2.1-1.7-3.3c-0.6-1.6-1.4-3.2-2.4-4.6
		c-3.2-4.9-6.4-9.8-9.6-14.7C401.2,136.1,400.4,135,399.5,134.1z"/>
	<path class="st2" d="M453.4,519c1.4-0.9,3-0.7,4.4-0.1c1,0.4,2,1,3,1.6c1.3,0.7,2.5,1.4,3.8,2.1c1.2,0.6,2.5,1,3.9,0.7
		c2.8-0.5,5.5-1.5,8.3-2.7c-0.2-0.5-0.2-0.6-0.3-0.7c-0.4-0.3-0.8-0.7-1.2-1c-7.5-5.4-13.1-12.4-17.2-20.6
		c-1.8-3.7-3.6-7.4-5.4-11.1c-0.4-0.7-0.6-1.5-1.3-2c-2.2-1.5-4.4-3-6.8-4.1c-0.9-0.4-1.7-0.4-2.6,0c-2.3,1.2-4.4,2.8-5.7,5
		c-3.1,4.9-3.9,10.1-0.9,15.4c1,1.8,2.3,3.4,3.5,5c0.6,0.8,1.3,1.6,1.7,2.5c0.8,1.7,0.9,3.3,0.1,4.8c1.9,1.6,3.9,3.3,5.8,4.9
		c1.6,1.3,3.2,2.6,4.9,3.7c0-0.5,0-1.1-0.1-1.6C451.3,520.3,452.4,519.6,453.4,519z"/>
	<path class="st2" d="M395.4,202c5.2,0.5,9.9,2.6,14.3,5.4c0.6,0.4,1,1,1.8,0.9c0.1-0.5-0.2-0.9-0.5-1.3c-3-3.6-6-7-10.1-9.4
		c-1.1-0.6-2.1-1.4-3-2.1c-2.1-1.7-4.6-2.8-7.2-3.4c-6.4-1.6-12.1-0.3-16.7,4.4c-6.6,6.8-10.9,14.8-12.4,24.3
		c-0.7,4.5-1.3,8.9-1.9,13.4c-0.1,0.8-0.1,1.6,0.2,2.4c0.1,0.2,0.2,0.3,0.4,0.4c0.3,0.2,0.6,0,0.8-0.2c1.7-2.4,3.6-4.7,4.6-7.6
		c0.7-2.1,1.7-4.2,2.5-6.3c0.3-0.7,0.4-1.4,1.1-1.8c0.9-0.5,1.1-1.4,1.5-2.3c2.5-6.3,6.9-10.8,12.7-14.2
		C387,202.4,391,201.6,395.4,202z"/>
	<path class="st2" d="M480.8,340.5c7.8-1.8,15.8-9.2,20.1-13.7c0.7-1.5,1.3-3,1.8-4.6c0.3-1.1,0.7-2.2,1.1-3.2
		c1.5-4.1,2.1-8.3,2-12.7c0-1.2-0.2-2.4-0.5-3.6c-0.9-3.8-1.8-7.6-2.1-11.5c-0.1-1.6-0.7-2.5-2.2-2.9c-1.9-0.6-3.7-1.1-5.7-1.2
		c-3.7-0.2-7.4-0.4-11.1-0.8c-1.8-0.2-3.7-0.4-5.5-0.6c-8.2,0.7-7,2.2-19.5,10.3c-4,2.6-7.1,5.3-9.4,8c-2.1,2.3-5.8-0.1-4.5-3
		c0.1-0.3,0.3-0.5,0.4-0.8c0-0.1,0-0.1,0-0.2c-0.1-1.2-0.1-2.5-0.3-3.7c0-0.3-0.4-0.5-0.7-0.2c-0.3,0.3-0.5,0.6-0.8,0.9
		c-2.5,3.4-3.5,7.4-4.2,11.4c-0.9,5.4-0.7,10.8-0.6,16.3c0,2.6,0.7,4.9,2.1,7c1.6,2.4,3.3,4.7,4.9,7.1c1.9,2.6,4.2,4.7,6.8,6.6
		c6.1,4.6,12.9,8,19.6,11.4c0.4,0.2,0.9,0.3,1.4,0.5l0,0c-0.4-1.6-1.7-2.6-2.8-3.5c-3.5-3-6.9-6.1-10.6-8.9c-2.8-2.1-4.6-5-6.3-7.8
		c-0.2-0.3-0.3-0.5-0.4-0.8l-2.2-2.7C451.8,333.6,469.3,343.2,480.8,340.5z M466,333.3c-0.7-0.2-1.4-0.5-2-0.9
		c-3.4-2.5-7.2-4.3-11-6.1c-1.9-0.9-3.3-2.4-4.4-4.2c-0.1-0.2-0.2-0.4-0.3-0.6c-0.1-0.4-0.1-0.8,0.2-1.2c0.3-0.3,0.7-0.4,1.1-0.3
		s0.8,0.3,1.1,0.5c1.6,1.3,3.5,1.6,5.5,1.8c2.3,0.2,4.5-0.1,6.7-0.6c2.1-0.4,3.5-1.7,4.4-3.5s1.3-3.7,1.3-5.7s0.2-3.9,0.7-5.8
		c1.1-4.5,3.7-7.6,8.1-9.4c5.3-2.2,11.9-0.3,15,5c1.9,3.2,2.7,6.7,2.6,10.3c-0.1,3.1-0.7,6.1-1.9,9c-2.1,5.1-5.7,8.7-11.1,10.3
		c-3.4,1.1-6.9,1.9-10,1.9C469.6,334.1,467.8,334,466,333.3z"/>
	<path class="st2" d="M555.1,285.3c-1.3,0.6-2.6,0.6-3.9,0.4c-1.8-0.4-3.6-0.7-5.4-1.2c-3.9-0.9-7.9-1.2-11.9-0.6
		c-3.8,0.6-7.4,1.7-11,2.8c-3.2,1-5.2,3.2-6.5,6.1c-0.8,1.8-1.4,3.7-1.5,5.6c-0.3,4.1-0.6,8.2-0.5,12.3c0.2,5,0.8,10,2.2,14.9
		c0.9,2.9,2.3,5.2,5,6.7c1,0.6,1.9,1.2,2.9,1.8c1.6,0.9,3.2,1.8,4.8,2.7c0.3,0.1,0.5,0.3,0.8,0.4c4.4,1.9,9.6,3.5,15.2,4.3
		c8,1.1,15.2-0.3,19.2-1.4c0.3-0.4,0.6-0.7,0.8-1.1c1-1.6,1.8-3.2,3-4.6c2.3-2.7,3.8-5.8,5.2-9c0.6-1.3,0.9-2.7,1-4.2
		c0.2-3.1,0.3-6.2-0.1-9.2c-1.2-9.4-4-18.4-8.2-27c-0.5-1-1.1-2-1.7-2.9c-2.2-3.1-4.4-6.2-6.6-9.3c-0.9-1.2-1.9-2.4-2.9-3.6
		c-2-2.2-4.4-3.7-7.3-4.3c-1.8-0.4-3.6-0.9-5.4-1.3c-7.9-1.7-15.9-3-23.9-4.4c-4.3-0.8-8.6-0.7-12.4-1c-9,0.4-17.5,1.1-25.9,2.5
		c-5.7,0.9-11.2,2.3-16.3,5.3c-1.6,0.9-3.3,1.7-4.9,2.5c-0.6,0.3-1,0.7-1,1.4c0,0.5-0.2,1-0.2,1.5c0,0.3,0,0.5,0,0.6
		c3.7,0.8,11.1,2.2,17.3,1.6c8.5-0.8,36.9-3.1,41.8-3c4.8,0.1,34.8,4.9,34.8,4.9s4.9,0.6,6.3,3.9c0.6,1.6,0.1,2.7-0.6,3.4
		C556.9,284.1,556.2,284.9,555.1,285.3z M569.7,318.5c0,0-4,8.9-8,10.9c-2.1,1.1-6.1,2.4-10.6,3.1c-0.3,0.1-0.7,0.1-1,0.1
		c-1.2,0.1-2.5,0.2-3.7,0.3c-1.1,0.2-2.2,0.3-3.4,0.5c-4.1,0.5-8-0.3-11.7-2.1c-3.6-1.7-6-4.7-7.4-8.3c-2.6-7-2.8-14-0.6-21.1
		c0.2-0.8,0.6-1.5,0.9-2.3c3.5-7.1,12.1-9.3,18.5-4.7c4.4,3.1,6.1,8.9,4.2,14.3c-0.5,1.4-1.1,2.6-2.1,3.8c-0.8,1-1.7,2-2.7,3
		c-0.4,0.4-0.8,0.8-1,1.1c1.6,3,4.5,7.3,8.6,7.6C556.2,325.1,569.7,318.5,569.7,318.5z"/>
	<path class="st2" d="M412.1,208.8c-0.2-0.2-0.3-0.5-0.7-0.5C411.5,208.8,411.8,208.9,412.1,208.8z"/>
	<path class="st2" d="M412.2,209C412,209,412.2,209.1,412.2,209L412.2,209z"/>
	<path class="st2" d="M351.8,442.1c0.4,0.4,0.7,0.8,0.9,1.3c0,0,0,0.1,0.1,0.1c1.2,1.8,1.9,3.9,2.5,6.1c0.1,0.5,0.2,1,0.3,1.5
		c0.1,0.3,0.2,0.5,0.3,0.8c1.2,2.8,1.7,5.7,1.6,8.7c-0.2,3.3,0.2,6.6,0.6,9.8c0.2,1.6,0.3,3.3,0.5,4.9c0.6,6.5,1.8,12.8,4.3,18.9
		c0.8,2,1.6,4,2.4,6c5.5,13.5,14.2,24.6,25.2,34.1c1.5,1.3,3,2.5,4.4,3.9c3.8,3.7,6,8.2,6.8,13.5c0.3,1.7,0.5,3.5,0.7,5.2
		c0.8,6.2,3.1,11.9,6.9,16.9c2.4,3.2,4.7,6.5,6.9,9.8c1.2,1.8,2.5,3.5,4,5.1c0.4,0.4,0.8,1,1.7,1c0.7-0.8,1.5-1.8,2.1-2.8
		c1-1.5,1.4-3.1,0.1-4.8c-1.8-2.5-2.9-5.4-3.7-8.4c-0.1-0.5-0.5-1.1,0.3-1.7c0.8,0.6,1.5,1.4,2.3,1.9c1.9,1.1,3.4,2.7,4.9,4.1
		c1.8,1.8,3.7,3.6,5.6,5.3c9,7.8,19.3,13.6,30.1,18.4c5.9,2.7,12.1,4.6,18.6,5.1c11.4,0.9,22.8,0.2,33.7-3.7
		c2.1-0.8,4.3-1.3,6.5-1.7c3.9-0.6,7.6-1.8,11.1-3.5c1.8-0.8,3.5-1.7,5.3-2.4c5.4-1.9,10-5.1,14.3-8.9c2.8-2.5,5.5-5.2,8-8.1
		c0.6-0.7,1-1.6,2.1-1.5l0,0l-0.2-0.2l0.1,0.1l0,0l0,0v0.1l0,0c-0.4,1.5-1,2.9-1.7,4.2c-0.5,0.9-1,1.8-1.3,2.8c-1,3.2-2.6,6-4.4,8.8
		c-1,1.6-2.1,3.1-3.1,4.6c-0.3,0.4-0.6,0.8-0.3,1.4c0.1,0,0.2,0.1,0.3,0.1c2.5,0.1,4.9,0.3,7.4,0.4c10,0.6,10.1,0.6,19.7-2.3
		c3.2-0.9,6.2-2.1,9.1-3.6c2.1-1.1,4.2-2.2,6.3-3.2c2.6-1.2,4.8-2.7,6.8-4.7c1.7-1.6,3.3-3.4,4.8-5.2c2.3-2.8,4.2-5.8,5.8-9
		c0.2-0.4,0.3-1.2,1.3-1c-0.4,4.4-2.4,8.4-3.9,12.4c0.6,0.3,1,0,1.3-0.2c1.6-1,3.2-2,4.8-3c2.8-5.1,6.3-9.8,9-15
		c1.3-2.5,2.2-5.1,2.8-7.8c0.5-2.4,0.7-4.9,0.7-7.3c-0.1-3.5-0.1-7,0-10.5c0-1.6-0.4-3.1-0.5-4.6c0-0.2,0-0.5,0-0.7
		c-1,0.2-1.9,0.2-2.9-0.1c-2.3-0.6-4-2.4-4.4-5c-0.3-2.5-0.1-4.9,0.3-7.4c0.7-4.1,1.4-8.1,3.3-11.8c0.4-0.7,0.5-1.6,0.5-2.4
		c0-4.4-2.2-7.5-5.5-10.4c-0.6,1.5-1.1,2.9-1.9,4c-0.5,0.7-0.3,1.6-0.3,2.4c0.1,3.7,0,7.4-0.5,11.1c-0.7,5-1.9,9.9-3.7,14.6
		c-0.3,0.8-0.6,1.5-0.8,2.3c-0.3,1.1-0.3,1.3,0.6,1.7c3.8,1.8,4.9,4.1,4,8.2c-0.5,2.1-1.3,4.1-2.5,5.9c-1,1.6-1.8,3.2-2.7,4.8
		c-2.4,4.7-5.5,8.9-9.2,12.6c-3.6,3.6-7.9,5.8-12.7,7.2c-3.3,1-6.7,0.9-10.1,0.1c-3-0.7-6-1.6-8.8-2.7c-3.3-1.3-6.2-3.1-8.8-5.6
		c-0.4-0.4-0.8-0.6-1.2-1c-0.4,0.3-0.7,0.5-1,0.8c-2.1,2.6-4.6,4.7-7.2,6.7c-2.3,1.7-4.5,3.6-6.8,5.3c-5,3.7-10.5,6-16.6,6.8
		c-1.6,0.2-3.3,0.3-4.9,0.2c-3.8-0.1-7.1,1.1-10.1,3.2c-1.2,0.8-2.3,1.7-3.5,2.6c-1.2,0.9-2.5,1.9-3.7,2.7c-2.3,1.5-4.7,2.4-7.4,2.8
		c-4.4,0.8-8.8,0.5-13.2-0.2c-10.3-1.5-19.8-5.2-28.5-11c-4.6-3-8.6-6.7-11.9-11c-3.5-4.5-6.5-9.2-8.9-14.3
		c-0.7-1.5-1.5-2.8-3.1-3.7s-2.7-2.4-3.8-3.9c-4.1-5.6-6.4-11.9-7.1-18.8c-0.4-4.2-0.6-8.4-0.2-12.6c0.1-1.6-0.3-2.7-1.5-3.8
		c-4.5-4.1-6.8-9.4-7.6-15.4c-0.3-3-0.6-5.9,0-8.9c0.1-0.3-0.1-0.6-0.1-0.9c-0.8-0.1-1.1,0.5-1.5,0.9c-0.8,1-1.2,2.1-1.5,3.4
		c-1.1,4.8-1.3,9.5-0.4,14.3c1,5,2.2,10,3.9,14.9c1.4,4.2,2.8,8.4,4.2,12.5c0.2,0.6,0.4,1.2,0.5,1.8c0.6,3.3-1.4,5.8-4.7,5.5
		c-2.8-0.2-5.3-1.4-7.6-3.1c-2.8-2.2-5.2-4.7-7-7.7c-2.9-4.8-5.4-9.9-8.2-14.8c-1.7-3.1-2.5-6.5-2.9-10c-0.2-2.1-1.1-3.6-2.6-5
		c-3.5-3.1-6.4-6.6-9-10.5c-4.5-6.8-7-14.3-8-22.4c-0.4-3.5-0.7-6.9-1-10.4c-0.2-2.5-0.2-4.9,0.1-7.4c0.1-1,0.2-2,0.2-3.1
		c-0.1-1.7,0.2-3.3,1.2-4.7c1.4-1.9,1.3-4.3,1.9-6.4c0.2-0.5-0.1-1.2-0.3-1.8c-0.5-1.6-1-3.1-1.6-4.6c-4.9-13.2-6.4-26.9-5.1-40.9
		c0.3-2.7,0.6-5.4,1.1-8.1c-0.1-0.2-0.2-0.4-0.3-0.6c-1.7-3.4-2.9-7-3.5-10.8c-0.8-5.1-1.5-10.1-0.5-15.3c0.1-0.7,0.1-1.4,0.1-2.1
		c0.1-1.3,0.1-2.6,0.4-4c0.4-2,0.4-4.1,0-6.1c-0.6-2.5-0.9-5-1.1-7.6c-0.2-2.3-0.7-4.7-0.4-7c0.4-3.7,0.8-7.5,2-11.1
		c0.5-1.6,1-3.3,1.5-4.9c-1.7,0.2-3.3,0.3-5,0.5c-0.6,0-0.9,0.3-1.2,0.8c-0.1,0.3-0.3,0.6-0.4,0.8c-2.5,6.7-4.5,13.4-5.2,20.5
		c-0.5,5.5,0.1,10.9,1.1,16.2c0.2,1,0.7,1.9,1.1,2.9c1.4,3.5,0.7,6.6-1.9,8.6c-2.6,1.9-6,1.6-8.8-0.6c-1-0.8-1.9-1.9-2.7-3
		c-4.2-5.5-7-11.6-8.8-18.2c-0.3-1.2-0.7-2.3-1.1-3.5c0-0.1-0.1-0.1-0.4-0.3c-1.1,1-1.5,2.3-1.5,3.7c-0.2,5.6-0.2,11.3,0.2,16.9
		c0.8,10.3,3.7,19.9,8.3,29.1c2.1,4.1,4.2,8.2,6.3,12.3c0.9,1.8,2.1,3.3,3.7,4.5c1.2,0.9,2.4,1.9,3.5,3c1.6,1.5,2.5,3.3,1.9,5.5
		c-0.2,0.8-0.1,1.4,0.3,2c0.3,0.4,0.5,0.9,0.7,1.4c0.4,1-0.2,1.9-1.2,2.1s-2.1,0.1-3-0.3c-0.7-0.4-1.5-0.7-2.1-1.2
		c-1.7-1.4-3.6-2.3-5.5-3.3c-4.1-2.2-7.9-4.7-11.6-7.5c-6.8-5.1-11.5-11.6-14.2-19.6c-3.4-9.8-5-19.9-4.3-30.3
		c0.4-6.5,1.4-12.9,3-19.1c-0.1-0.2-0.1-0.4-0.2-0.6c-1.5-4.8-3.8-9.3-5.9-13.8c-0.3-0.6-0.7-1.3-1.2-1.8c-2.7-2.7-4.8-5.8-6.8-9.1
		c-2.7-4.3-5.3-8.8-7.5-13.4c-0.7-1.6-1.5-3.1-2.2-4.7c1,3,2.1,5.9,3.1,8.9c1.4,4.1,2.9,8.1,4,12.3c2.6,9.7,4,19.5,4.7,29.4
		c0.3,3.4,0.3,6.8-0.4,10.1c-0.2,1.3-0.3,2.7-0.3,4c0,5.8-0.7,11.5-2.6,17c-0.1,0.4-0.2,0.8-0.4,1.2c-0.3,0.8-0.1,1.6,0.4,2.3
		c0.7,0.9,1.3,1.8,2.1,2.7c1.2,1.4,2.5,2.7,3.8,4c3,3.1,3.8,6.7,2.7,10.8c-0.2,0.9-0.5,1.7-0.8,2.5l0,0c1.9,2.5,3.8,5,5.8,7.6
		c3.1,4,6.7,7.5,10.3,10.9c1.4,1.3,2.9,2.5,4.4,3.8c2.3,2,4.7,3.9,7,6c1.8,1.6,3.4,3.3,5.1,4.9c2.1,2,4.1,4,6.3,5.8
		C348.3,438.3,350.1,440.1,351.8,442.1z"/>
	<path class="st2" d="M509.6,374.6c1-0.8,1.5-1.9,1.6-3.2c0.1-1.6,0.2-3.3,0.2-4.9c0-3.3,0-6.6,0.3-9.8c0.1-1.2,0.2-2.5,0.2-3.7
		c0.2-3.6,0.1-7.2-0.1-10.8c-0.1-1.1-0.2-2.3-0.9-3.2c-0.7-1-1.6-1.5-2.9-1.4c-1.1,0.1-1.9,0.7-2.4,1.7c-0.5,1.1-0.7,2.4-0.5,3.6
		c0.5,2.3,0.3,4.7,0.4,7.1c0,1.9,0,3.9,0.4,5.8c0.3,1.5,0.2,3.1,0,4.6c-0.4,3.3-0.9,6.5-1.3,9.8c-0.1,0.9-0.2,1.9,0,2.8
		C505.1,375.4,507.6,376.2,509.6,374.6z"/>
	<path class="st2" d="M587.6,483.9c0.5-0.6,1.1-1.2,1.6-1.8c-0.2-0.6-0.7-0.8-1.2-1c-1.7-0.9-3.5-1.8-5.2-2.7c-1-0.5-2-1-3.1-1.4
		c-1.1-0.5-2.2-0.3-3.2,0.4c-1.2,0.8-1.8,1.8-2.1,3.2c-0.7,3.8-1.5,7.6-2.4,11.4c-0.7,2.9-1.8,5.7-3.7,8.1c-2.5,3.3-5,6.5-7.6,9.7
		c-3.1,3.7-6.8,6.8-11.2,9c-1.6,0.8-1.9,0.8-1.4,3.1c0.1,0.5,0.3,1,0.5,1.4c0.1,0.3,0.4,0.6,0.6,0.6c1.9,0.3,18.7-4.8,20.8-6.3
		c4.1-2.9,7.6-0.9,10,1.9c0.1-0.2,0.2-0.4,0.3-0.6c2.2-3.8,4.3-7.7,6.4-11.5c1.1-2,2.2-3.9,3.3-5.8c-1.8-0.2-3.5-1.2-4.7-2.9
		c-1.4-2-1.9-4.3-1.6-6.7C584.5,488.9,585.6,486.2,587.6,483.9z"/>
	<path class="st2" d="M622.2,189.2c-3-4.8-6.8-8.7-11.8-11.4c-2.1-1.2-4.1-1.2-6.1-0.1c-1.3,0.8-2.7,1.5-3.9,2.4
		c-4.2,3-7.6,6.9-9.8,11.7c-0.3,0.7-0.8,1.4-0.4,2.3c0.3,0.5-0.2,1-0.5,1.4c-1.1,1.3-2.2,2.5-3.2,3.7c-1.6,2-2.2,3.3-2.8,6.3
		c2.3-2.3,4.7-4.1,7.1-5.8c2.1-1.5,4.4-2.7,6.8-3.5c4.6-1.6,9.2-2.1,13.7,0.3c0.7,0.4,1.5,0.6,2.3,0.9c2.7,1.2,4.9,3,6.4,5.5
		c0.5,0.9,1,1.8,1.4,2.7c0.9,1.9,1.9,3.6,3.3,5.2c0.7,0.8,1.3,1.8,2,2.8c2,2.9,4.5,5.2,7.4,8c-0.7-2.6-1.2-4.7-1.7-6.8
		C630.1,205.8,627.1,197.1,622.2,189.2z"/>
</g>
<g>
	<path class="st3" d="M558.6,467.9c0.1-0.7,0.1-1.5,0.7-2c0.7-0.5,0.7-1.2,0.5-1.9c-0.3-1.6-0.7-3.2-1-4.8c-0.3-1.6-0.9-3.2-0.8-4.8
		c0-3.1-1.2-5.6-2.9-7.9c-3.6-4.9-7.6-9.5-12.1-13.5c-1.2-1.1-2.5-2.1-3.9-2.9c-1.6-1-3.3-2-4.9-3c-0.5-0.3-1-0.6-1.5-0.9
		c-2.1-1.2-4.2-2.5-6.2-3.7c-3.1-1.8-6.1-3.7-8.3-6.7c-0.9-1.3-2.3-1.1-3.3,0.2c-0.9,1.2-1.3,2.6-1.6,4c-0.4,2.1-0.7,4.2-0.8,6.4
		c-0.3,8.6,0.9,17,2.8,25.3c1.3,5.6,2.8,11.1,4.2,16.7c0.6,2.3,1.1,4.6,1,7c-0.1,2.9-1.3,5.3-3.3,7.4c-1,1-2.1,1.6-3.5,1.8
		c-3.6,0.5-6.7-0.6-9.4-2.8c-1.6-1.3-2.6-2.9-2.6-5c-0.1-1.8-0.1-3.7,0-5.5c0.8-8.4,1.6-16.7,2.5-25.1c0.6-5.8,1.1-11.6,1.3-17.5
		c0.1-2.8-0.2-5.5-0.3-8.3c-0.1-1.1-0.2-2.2-0.9-3.2c-0.4-0.6-5.2-0.1-5.7,0.3c-3,2.4-6.2,4.3-9.5,6.2c-0.7,0.4-1.4,0.8-2.1,1.2
		c-1.6,0.8-2.8,2-3.9,3.5c-2.4,3.2-4.4,6.7-5.9,10.4c-2.8,6.7-6.2,12.9-10.8,18.5c-0.5,0.6-0.8,1.2-1.3,1.7
		c-1.2,1.2-1.4,2.6-1.4,4.2c0.1,3.8,0.3,7.6,0.9,11.3c1.3,7.9,4,15.3,9.4,21.4c1.9,2.1,3.9,4,6.3,5.3c2.3,1.3,4.6,2.6,7,3.9
		c1.1,0.6,2.2,1.1,3.3,1.4c0,0,0,0,0.1,0c1.6,0.4,3.3,0.7,4.9,0.9c2.5,0.3,5,0.2,7.5-0.5c4.6-1.2,9.3-1.7,14-1.5
		c3.1,0.1,6.2,0.1,9.2,0.2c2.2,0,4.3,0,6.5-0.1c3.5-0.3,6.8-1.4,9.8-3.3c1.4-0.9,2.7-1.9,3.7-3.2c3.2-4.3,6.1-8.8,7.9-13.8
		C556.1,479.3,557.8,473.7,558.6,467.9z"/>
</g>
<g>
	<path class="st4" d="M647.3,532.6c-2.6-3.6-2.2-7.4,1-10.5c1.1-1.1,2.4-1.9,3.8-2.7c1.6-0.9,3.3-1.7,4.9-2.5c2.9-1.6,5-3.8,5.8-7.2
		c0.2-1,0.7-1.9,1.2-2.8c1.3-2.8,2.3-5.7,3.1-8.7c0.9-3.7,1.8-7.4,2.7-11.1c1-4.1,1.7-8.2,2.3-12.4c0.5-3.6,0.8-7.1,1.6-10.6
		c0.3-1.2,0.2-2.4-0.1-3.6c-1-3.7-2-7.3-3-11c-1.8-6.9-1.2-13.6,1.2-20.3c1.1-3,2.7-5.8,4.7-8.2c2-2.4,4.1-4.7,6.5-6.6
		c0.9-0.7,1.7-1.4,2.5-2.2c1.4-2.2,2.9-4.3,4.5-6.4c0.7-0.9,1.4-1.9,2.1-2.9c0.1-0.1,0.1-0.2,0.2-0.3c1.4-3,2.8-5.9,3.9-9
		c1-2.8,2-5.6,3-8.4c3.3-8.6,5.3-17.5,6.6-26.5c1.1-7.4,1.2-14.7-0.5-22c-0.3-1.3-0.6-2.6-1-3.9c-1.5-3.6-3.3-7.1-4.9-10.7
		c-0.4-1-1-2-1.6-3c-2.2-4.1-4.6-8.2-6.7-12.4c-1-2-1.9-4-2.4-6.2c-0.6-0.5-1.3-0.9-2.1-1.1c-0.3,0.9,0.2,1.7,0.3,2.5
		c0.2,2.1,0.2,4.1-0.8,6c-1,2-2.5,3.1-4.8,3c1.5,5.8,4,11.2,6.4,16.7c1.6,3.8,3.1,7.6,4.5,11.4c1.1,3.2,1.8,6.5,1.8,9.9
		c0,0.6,0.1,1.2,0.1,1.8c0.5,3.7,1,7.5,1,11.3c0,2.9-0.2,5.7-0.5,8.6c-0.4,3.4-1,6.7-2.1,9.9c-1.5,4.2-3.6,8-5.9,11.8
		c-1.8,2.9-3.9,5.5-6,8.1c-3.4,4.4-6.9,8.6-9.4,13.6c-0.3,0.7-1,0.6-1.4-0.1c-0.6-0.9-1.2-1.9-1.9-2.8c-2.8-3.4-6.2-3.9-9.6-3.1
		c-1,3.3-2.6,6.4-3.5,9.8c-1.2,4.6-1.7,9.2-0.4,13.9c1,3.6,1.7,7.2,2.8,10.7c0.9,2.8,1.3,5.8,1.6,8.8c0.4,4,0.8,8,0.5,12
		c-0.8,10.6-2.5,21-6.1,31c-2.1,6-4.4,11.9-7.2,17.6c-2,4-4.3,7.7-7.4,10.9c-2.1,2.3-3.9,4.7-5.3,7.5c-1,1.9-2.9,3.2-5,3.5
		c0,0.2,0,0.5,0,0.7c0,1.5,0.5,3,0.5,4.6c0,3.5,0,7,0,10.5c0,2.5-0.2,4.9-0.7,7.3c-0.6,2.7-1.5,5.3-2.8,7.8c-2.7,5.2-6.2,9.9-9,15
		c2.4-1.5,4.8-3,7.2-4.5c2.5-1.6,4.9-3.4,7.1-5.4c1.9-1.7,3.4-3.5,4.7-5.7c2.7-4.6,5.5-9.2,8.2-13.8c1.8-3,3.4-6.1,5.2-9.1
		c0.8-1.4,1-2.9,0.8-4.4C649.2,535,648.2,533.8,647.3,532.6z"/>
	<path class="st4" d="M770.5,551.3c-0.1-0.3-0.2-0.6-0.4-0.8c-0.1-0.1-0.3-0.2-0.5-0.3s-0.4,0.1-0.4,0.3c0,0.8-0.1,1.6-0.1,2.5
		c-0.3,5.7-1.1,11.2-2.7,16.7c-1.2,4-2.4,8.1-3.6,12.1c-1.2,3.9-2.6,7.8-4.5,11.4c-0.6,1.2-1.1,2.5-1.2,3.8c0,0.2,0,0.4-0.1,0.6
		c5.9-0.5,11.9-0.6,17.9-0.4c3.7,0.3,7.5,0.6,11.2,1.2c0.3,0,0.6,0.1,1,0.1c-1.9-9.3-4.2-18.6-8-27.4c-0.3-0.8-0.6-1.5-0.9-2.3
		C776.1,562.7,773.4,557,770.5,551.3z"/>
	<path class="st4" d="M707.4,609.1c0.6-0.3,1.2-0.5,1.8-0.7c0.4-0.2,0.9-0.4,1.3-0.5l1.3-0.5l2.6-1c0.4-0.2,0.9-0.3,1.3-0.5l1.3-0.4
		l2.7-0.9l1.3-0.4c0.1,0,0.2,0,0.3-0.1c3.6-3.5,7.3-6.8,11.4-9.7c2-1.4,3.8-2.9,5.5-4.6c1.9-1.9,3.2-4.1,4.1-6.6
		c0.3-0.9,0.6-1.8,0.9-2.7c1.6-5.4,3.1-10.8,4.7-16.3c1-3.6,1.5-7.2,1.4-11c-0.1-3.4-0.2-6.8-0.5-10.1c-0.7-7.8-2.1-15.4-4.7-22.8
		c-3.8-10.5-7.3-21.1-10.9-31.7c-0.9-2.7-1.8-5.5-2.4-8.3c-1.4-5.6-2.2-11.3-1-17.1c0-0.2,0.1-0.4,0.1-0.6c0-0.5-0.1-1-0.6-1.3
		c-0.3-0.2-0.7-0.5-1-0.7c-4.6-2.8-8.7-6.2-12-10.5c-0.2-0.3-0.5-0.7-1-0.5c-0.4,1,0,2,0.1,3c0.5,4.5,1.2,9,1.4,13.5
		c0.4,8.4,0.7,16.8,0.9,25.2c0.2,6.3-0.2,12.7-0.9,19c-0.3,2.9-0.9,5.7-1.8,8.5c-1.4,4.2-3.2,8.2-4.4,12.5c-0.4,1.5-1.2,2.8-2.4,3.9
		c-1.2,1.1-2.8,1.6-4.4,1.4c-0.1,1.2-0.1,2.4-0.1,3.7c0,2.5,0,4.9,0,7.4c-0.1,3.6,0.5,7.1,1.7,10.5c2.8,8,4.4,16.2,5,24.6
		c0.6,7.1,0.1,14.1-1.6,21C708.2,605.5,707.8,607.3,707.4,609.1z"/>
	<path class="st4" d="M801.3,294.7c-0.4,7.9-2.3,15.4-5.1,22.7c-1.1,3-2.6,5.8-4.8,8.2c-4.1,4.5-7.8,9.3-12.2,13.5
		c-1.6,1.5-3,3.1-4.3,4.8c-1.3,1.7-2.7,3.4-4.1,5c-6.8,7.7-11.6,16.4-13.1,26.7c-0.6,3.8-1,7.5-1.6,11.3c-1.1,6.9-1.6,13.9-1,20.9
		c0.4,4.7,1.1,9.4,2.2,14c0.2,0.9,0.5,1.8,0.7,2.7c0.1,0.4-0.1,0.9-0.6,0.9c-1.5-0.2-3.1,0.4-4.2-1.5c-0.7-1.3-2.3-2-3.4-3.1
		c-4.2-4.6-7.4-9.6-9.6-15c-2.3-1.4-4.2-3.3-6-5.2c-1.9-2-3.5-4.3-4.5-6.9c-1.2-2.9-2.5-5.8-3.7-8.8c-0.6-1.4-1.2-2.9-1.4-4.4
		c-0.3-2.5-1.3-4.8-2.3-7c0,0.3-0.1,0.7-0.1,1c-1.3,11-3.7,21.8-7.8,32.2c-0.4,1.1-0.6,2.2-0.2,3.3c0.2,0.8,0.4,1.6,0.6,2.4
		c2.1,7.6,6.1,14.1,11.1,20c0.5,0.5,1,1,1.6,1.5c5.2,4.1,10.8,7.4,17,9.8c6.1,2.4,12.4,2.7,18.8,1.8c2.2-0.3,4.1-1.3,5.6-3
		c2.1-2.2,3.3-4.9,4-7.9c0.9-3.8,0.9-7.7,0.5-11.6c-0.4-4.4-0.9-8.8-1.2-13.2c-1-14.8,1-29.3,6.2-43.3c3.3-9,7.5-17.5,12.3-25.8
		c3.8-6.6,6.9-13.5,9.8-20.5c3.1-7.4,5-15,5.7-22.9c0.4-4.3,0.9-8.6,0.4-12.9c-0.1-0.5,0.1-1-0.5-1.3c-0.1,0-0.3,0-0.3,0
		c-1,1.1-2.1,2.3-3.1,3.4c-0.9,0.9-1.3,2-1.2,3.3C801.4,291.4,801.4,293,801.3,294.7z"/>
	<path class="st4" d="M627.7,100.7c1.8,2.5,2,5.5,0.3,8.1c-0.6,0.9-1.3,1.6-1.9,2.4c-0.9,1-1.7,2.1-2.5,3.2c3.8,1.3,7.6,3,11.2,4.8
		c2.4,1.2,4.7,2.5,6.5,4.6c2.4,2.8,4.8,5.6,6.8,8.7c1,1.7,2.5,3,3.9,4.3c2.3,2,4.9,1.9,7.2-0.1c0.3-0.3,0.6-0.6,0.9-0.9
		c0.8-0.7,1.1-0.7,1.8-0.1c2.4,2.1,4.4,4.6,6,7.3c-0.7-2.7-1.6-5.3-2.4-7.9c-0.4-1.4-0.7-2.8-0.5-4.2c0.3-2.2,1.8-3.8,4-4.1
		c1.4-0.2,2.7,0.3,3.7,1.2c0.9,0.8,1.7,1.7,2.5,2.7c5.6,6.9,9.8,14.6,13.9,22.5c1.2,2.4,2.4,4.8,3.6,7.2c0.3,0.5,0.4,1.2,1.2,1.3
		c0.5-0.4,0.3-0.9,0.2-1.4c-0.1-1.4-0.2-2.9-0.3-4.3c-0.1-2,0-3.9,0.4-5.8c1.5-6.5,7.6-8.6,12.7-4.3c2.2,1.8,3.7,4.1,4.8,6.7
		c1.6,3.7,2.8,7.5,3.3,11.5c0.8,6,2.1,11.9,3.5,17.8c0.4,1.5,0.9,2.9,2,4.1c1.5,1.8,2.9,3.8,3.8,6c1.1,3.1,3.2,5.5,5.6,7.6
		c0.5,0.5,1,1,1.6,1.5c5,4.5,7.7,10,8.4,16.6c0.5,4.8,1.1,9.6,1.8,14.4c1,6.9,3,13.6,6,20c1.8,3.6,4.1,6.9,6.9,9.8
		c2,2,4.1,3.8,6.3,5.5c1.3,1,2.6,2,3.9,3c2.9,2.3,5.3,5.2,6.8,8.6c5.1,11.5,3.3,23.1-5.3,32.6c-0.5,0.5-1.2,0.8-1.2,1.6
		c0.3,0.3,0.6,0.2,0.9,0.1c3.5-1.4,7-3.1,10-5.4c0.9-0.7,1.8-1.3,2.7-2c1.4-0.9,2.9-1.5,4.5-1.9c0.7-0.1,1-0.6,1.1-1.3
		c0-0.5,0.1-1,0.1-1.5c0.7-6.5,3.1-12.3,6.5-17.7c0.8-1.3,1.8-2.5,2.3-4c0.5-1.2,1.3-2.2,2.5-2.5c1.9-0.5,2.6-1.9,3.1-3.5
		c0.4-1.5,0.6-3,0.8-4.5c0.3-1.8-0.2-3.5-0.9-5.1c-0.4-0.9-1-1.5-1.9-1.8c-1.5-0.4-2.9-0.9-4.4-1.3c-7-1.9-13-5.4-18.4-10.2
		c-6.9-6.2-12.2-13.6-16.4-21.8c-3-6-5.4-12.2-7.3-18.6c-2.9-9.8-5.2-19.8-6.8-30s-4.5-20-9.1-29.3c-3.5-7.1-7.8-13.5-13.4-19
		c-5-5-9.9-10.1-14.9-15.2c-3.1-3.2-6.5-6-9.9-8.8c-7.9-6.3-16.7-10.8-25.8-14.9c-0.4-0.2-0.9-0.5-1.1-0.3c-1.3,0.7-2.1-0.2-3.1-0.7
		c-1.9-0.9-3.7-1.8-5.6-2.6c-7.3-2.9-14.8-4.8-22.6-5.6c-4.1-0.4-8.1-1.1-12-2.4c-5.6-1.9-11.2-4-16.7-6.3c-1.5-0.6-3-1.4-4.4-2.1
		c-4.5-2.3-8.3-5.4-10.8-9.8c-0.5-1-1.3-1.6-2.2-2c-2.2-1.1-4.5-2-6.8-2.7c-4.7-1.4-8.9-3.8-12.9-6.5c-2-1.4-3.5-3.2-4.5-5.3
		c-0.3-0.6-0.6-1.3-0.8-2c-0.3-0.9-0.9-1.3-1.9-1.2c-3.6,0.1-7.2-0.3-10.8-0.6c-1.8-0.1-3.7-0.1-5.5,0.1c-6.7,0.8-13,2.7-19.1,5.7
		c-2,1-4,2-6.1,3c-1,0.5-2.1,0.9-3.2,1.1c-3.9,0.5-7-2.6-6.5-6.6c0.1-0.9,0.5-1.8,0.9-2.6c1.2-2.2,1.7-4.6,2.1-7
		c0.1-0.7,0.4-1.4-0.2-2.1c-0.3,0.1-0.6,0.1-0.8,0.2c-2.9,2-5.7,4-8.6,6c-0.4,0.3-0.8,0.7-1.1,1c-2.3,2.7-4.8,5.4-7,8.2
		c-4,5.1-8.1,10.1-11.4,15.6c-1.1,1.8-2.7,2.9-4.9,2.6c-2.3-0.3-3.1-2.1-3.5-4.1c-0.3-1.3-0.4-2.6-0.5-4c-0.3-2.4-0.9-4.6-2-6.8
		c-0.8-1.5-1.7-3.1-2-4.8c-0.2-0.7-0.6-1.3-1.3-1.6c-4.2-2.1-8.6-3.4-13.3-3.6c-1.2-0.1-1.5,0.2-1.4,1.4c0.3,2.4,0.8,4.9,1,7.3
		c0.5,6.2-3.6,10.7-9.8,10.9c-1.4,0-2.9-0.2-4.3-0.3c-3.4-0.3-6.7-0.7-10.1-1c-1.8-0.2-3.4,0.3-4.8,1.5c-1.4,1.2-2.9,2.3-4.4,3.3
		c-4.8,3.2-10,4.7-15.8,4.2c-1.9-0.2-3.9-0.3-5.8-0.6c-7.1-1-14.2-2-21.4-2.4c-2.6-0.2-5.1-0.2-7.7,0c-5.1,0.4-10.2,1.2-15.3,1.8
		c-3.4,0.4-6.7,0.9-10.1,1.4c-1,0.1-2,0.4-2.8,1.1c-3.2,2.3-6.6,4.1-10.1,5.9c-9.9,5.2-18.2,12.2-25.7,20.3
		c-1.7,1.8-3.3,3.7-4.3,5.9c-0.3,0.8-0.9,1.4-1.6,1.8c-1,0.5-1.4,1.4-1.9,2.4c-2.2,4.6-4.4,9.3-6.2,14.1c-4.2,11-9.4,21.6-14.1,32.4
		c0,0.1-0.1,0.2-0.1,0.3c-3.7,6.9-7.3,13.8-11.2,20.5c-5.4,9.4-13,16.3-23.2,20.2c-1.2,0.5-2.5,1-3.7,1.5c-1.4,0.6-2.9,1.2-4.2,1.9
		c-5.7,3-10.9,6.6-14.6,12c-2.6,3.7-4.4,7.8-5.8,12.2c-2.5,7.9-3.6,16-4.2,24.2c-0.5,5.8-0.8,11.7-1.7,17.5c-1.4,8.6-5,16-11,22.3
		c-1.1,1.1-2,2.3-2.9,3.6c-1,1.3-0.9,1.6,0.6,2.2c1.4,0.7,2.8,1.2,4.2,1.8c0.6,0.2,1.2,0.4,1.7,0.6c1.9,0.8,2.9,2.1,3,4.2
		c0.1,2-0.4,3.9-1.6,5.5c-1.5,2.2-3.1,4.4-4.6,6.5c-1.9,2.7-3.3,5.7-4.2,8.8c-1.7,6-2.4,12.1-1.7,18.3c0.9,7.6,2.6,14.9,4.8,22.2
		c1.3,4.2,2.6,8.4,3.8,12.7c2.3,8.3,3.9,16.8,4.1,25.5c0.3,11.2-2.9,21.3-9.6,30.2c-0.4,0.6-0.9,1.1-1.3,1.7
		c-0.8,1.2-0.7,2.3,0.1,3.4c0.9,1.2,2,2.1,3.3,2.7c2.4,1.1,4.9,2,7.5,2.8c2,0.6,4,0.8,6.1,0.6c5.4-0.4,10.5-1.9,15.2-4.5
		c0.2-0.1,0.4-0.2,0.5-0.3c0.6-0.4,0.8-0.9,0.4-1.6c-0.8-1.5-1.7-3.1-2.4-4.6c-2.2-4.4-3.9-9.1-4.5-14c-1-8.8-1.2-17.6,0.3-26.4
		c0.2-1.3,0.3-2.7,0.3-4c-0.1-3.1-0.1-6.2-0.5-9.2c-0.3-2.1-0.2-4.3,0.2-6.4c0.7-4.8,2.1-9.4,3.9-13.9c0.3-0.7,0.6-1.3,0.8-2
		c0.1-0.3-0.1-0.6-0.4-0.7c-0.6-0.1-1.2-0.1-1.8-0.1c-5.2-0.1-10.1-1.5-14.8-3.8c-2.1-1.1-4-2.4-5.7-4.2c-1.3-1.4-2.3-2.9-2.9-4.7
		c-1.1-3.2-0.2-5.9,2.5-7.9c0.8-0.6,1.8-1.1,2.7-1.5c2.6-1.4,5.2-2.9,7.9-4.1c3.2-1.4,5.3-3.8,6.9-6.8c2.3-4.1,3.9-8.6,4.9-13.2
		c1.4-6.6,1.6-13.2,1-19.9c-0.4-4.3-0.9-8.6-1.3-12.9c-0.8-9.6,0.1-19.1,3.5-28.2c3-8.3,7.1-16.1,12.3-23.3c3.6-5,8-9,13-12.6
		c2.5-1.8,5.3-3.3,8.3-3.8c1.8-0.3,2.9-1.3,4-2.6c6-7.4,10.7-15.5,14.5-24.2c0.4-0.8,0.7-1.7,1.2-2.5c2.1-3.5,6.1-3.8,8.7-0.7
		c1.3-4.3,2.7-8.5,4.4-12.7c2.9-7,6.2-13.8,10.4-20.2l0.1-0.1c0.3-7,2.5-13.5,5.8-19.6c0.3-0.5,0.6-1.1,0.9-1.6
		c2.8-3.8,4.9-8,7.2-12.1c4.1-7.6,9.5-14.1,15.9-19.9s13.6-10.1,22.1-12.3c2.8-0.7,5.5-1.5,8.3-2.1c3.8-0.9,7.7-1,11.6-0.5
		c2.3,0.3,4.7,0.6,7,0c1.1-0.3,2.2-0.2,3.4-0.1c5.8,0.5,11.6,1.3,17.2,3.3c0.6,0.2,1.2,0.4,1.8,0.5c3.5,0.5,6.7,2,9.7,3.8
		c3.6,2.1,6.9,4.5,9.9,7.3c3.1,2.8,5.4,6.2,6.8,10.1c0.8,2.1,1.8,4.1,2.6,6.3c0.2,0.5,0.3,0.9,0.5,1.4c0.4,0.2,0.8,0.5,1.2,0.7
		c4.7,2.6,8.8,5.9,12.5,9.8c2.7,2.8,5.8,4.9,9.2,6.6c2.1,1.1,4.2,2.1,6.3,3.1c-0.2-0.4-0.5-0.7-0.7-1.1c-4.9-8.3-8.6-17-11.6-26.1
		c-0.6-1.7-1-3.4-1.1-5.1c-0.1-0.9-0.1-1.9,0-2.8c0.5-4.5,4.4-7,8.7-5.4c1.2,0.5,2.4,1.2,3.5,2c3.2,2.2,6,5,8.6,7.9
		c1.4,1.6,2.8,3.3,4.1,5c0.4,0.5,0.7,1,1.6,1.3c0.2-1.2,0.5-2.3,0.6-3.4c0.3-1.8,0.6-3.6,1.2-5.4c2.2-6.3,8.6-8.4,14.2-4.7
		c0.8,0.6,1.6,1.3,2.4,1.9c1.3,1.1,1.3,1.1,3.5,1.7c0.6-0.6,0.7-1.5,0.9-2.2c0.9-3.6,2.5-6.9,4.3-10.2c0.3-0.6,0.7-1.3,1.2-1.8
		c2.2-2.3,5.7-2,7.4,0.7c0.5,0.8,0.8,1.7,0.9,2.6c0.3,1.9,0.4,3.9,0.3,5.8c-0.2,4.5-0.6,9-1.2,13.5c-0.9,6.5-1.4,13.1-1.3,19.6
		c0.1,5.4,0.1,10.9,0.1,16.3c1.5-1,2-2.6,2.6-4.2c0.9-2.6,1.8-5.2,2.8-7.8c2.8-7,6-13.7,10.4-19.8c1.4-1.9,3.1-3.5,4.9-5
		c0.7-0.5,1.3-0.8,2-0.8c-1.6-5.5-2.1-11.2-1.4-17.1c0.4-3.2,1.7-6.1,3.7-8.7c1.6-2.2,3.6-4,6-5.2c3.6-1.8,7.3-0.6,9.2,3
		c0.8,1.6,1.3,3.3,1.3,5c0.1,2.2,0,4.3,0,6.5c0,0.6-0.3,1.2,0.5,1.7c0.6-0.3,1.2-0.6,1.8-0.8c1.9-0.8,3.7-1.7,5.7-2.4
		c2.8-1,5.7-1.8,8.5-2.7c4.6-1.4,9.3-1.4,14-1.2c0.4,0,0.8,0.1,1.2,0.2c3.6,0.9,5.5,3.7,5,7.3c-0.1,0.7-0.6,1.3,0,2.1
		c0.6,0,1.2,0,1.8,0c2.1,0,4.1,0,6.1,0.4c8.5,1.5,15.9,5.4,22.3,11.2C626.8,99.6,627.3,100.1,627.7,100.7z"/>
	<path class="st4" d="M364.6,616.4c-1.3-4-3.1-7.8-5.3-11.4c-2.3-3.8-4.2-7.8-5.7-11.9c-1.4-3.6-2.9-7.2-4.5-10.8
		c-0.7-0.6-1.5-1.1-2.2-1.7c-1.9-1.6-3.7-3.3-5.3-5.3c-4.2-5.2-8-10.7-10.9-16.7c-0.2-0.5-0.3-1.2-1-1.4c-0.8,0.3-0.9,1.1-1.3,1.7
		c-1.5,2.6-3.3,4.9-5.3,7.2c-1.6,1.9-3.6,3.4-5.7,4.6c-1.1,0.6-2.2,1-3.4,1.3c-3.1,0.6-5.8-1-6.7-4c-0.4-1.4-0.4-2.8-0.2-4.3
		c0.4-3.2,1.2-6.2,2-9.3c1.3-5.1,1.8-10.3,1.5-15.5c-0.2-2.9-0.4-5.8-0.7-8.6c-0.8-7.6-2.7-14.9-5.5-22c-0.2-0.5-0.4-1-1.1-1.1
		c-0.4,0.8-0.8,1.6-1.1,2.5c-1.8,4.4-3.8,8.6-6.1,12.8c-0.4,0.8-0.9,1.7-1.4,2.4c-1.6,2-4.2,1.6-5.1-0.8c-0.3-1-0.5-2-0.6-3
		c-0.3-2.9-0.5-5.7-0.7-8.6c-0.6-9.1-2.5-17.9-5.9-26.3c-1.4-3.4-2.9-6.8-4.3-10.2c-2-4.7-3.7-9.6-4.9-14.6c-0.4-1.6-1-3.1-1.7-4.6
		c-2.2-4.1-3.2-8.4-3.4-13c-0.2-3.7-0.9-7.3-1.7-10.9c-0.6-2.5-1.1-5-0.9-7.6c0-0.3,0.1-0.8-0.7-0.8c-1.7,3-3.4,6.2-5.1,9.3
		c-2.2,4-3.6,8.2-4.6,12.7c-1.9,8.9-1.7,18-0.9,27c0.8,8.7,2.4,17.3,4.5,25.8c2.7,10.7,5.2,21.3,6.6,32.3c0.3,2.3,0.6,4.7,0.8,7
		c0.8,7.6,0,15-2.2,22.2c-0.3,0.9-0.9,1.8-0.5,3c1.3-0.1,2.4-0.8,3.4-1.4c3.2-1.8,6.2-4,9.1-6.3c2-1.5,3.7-3.2,5.3-5.2
		c0.4-0.6,0.9-1.1,1.4-1.6c3.1-2.9,7.5-1.9,9,2c0.4,1.1,0.5,2.2,0.6,3.3c0.2,3,0.3,5.9,0.5,8.9c0.3,5.6,1.4,11,3.5,16.2
		c3.9,9.6,9.5,18.2,16.2,26c3.5,4.1,7.6,7.8,11.7,11.4c0.4,0.4,0.8,0.9,1.7,0.8c0.3-1.7,0.6-3.5,1-5.3c1.2-5.5,3.3-10.8,5.6-15.9
		c0.8-1.8,1.5-3.6,1.6-5.6c0-0.8,0.3-1.6,0.6-2.4c0.5-1.6,1.5-2.7,3.2-3s3,0.5,3.9,1.8s1.7,2.6,2.5,3.9c0.7,1.2,1.4,2.5,2.7,3.3
		c1,0.7,1.8,1.8,1.9,3c0.2,2.1,1.3,3.7,2.5,5.3c2.8,3.6,5.7,7,8.3,10.7c1.9,2.8,4.2,5.2,6.7,7.4c-0.1-0.4-0.2-0.7-0.4-1.1
		C365.4,618.6,365,617.5,364.6,616.4z"/>
	<path class="st4" d="M244.3,567c0.4-1.1,0.9-2.1,1.3-3.1c4.1-12.7,5-25.5,1.7-38.5c-0.1-0.4,0-1-0.7-1.2c-0.2,0.2-0.4,0.4-0.5,0.7
		c-1.6,3.7-3.2,7.3-4.6,11.1c-4.1,10.4-6.4,21.2-8.5,32.1c-1.4,7.4-2.2,14.8-3,22.3c-0.3,2.3-0.5,4.6-0.7,7c2.9,0.2,5.8,0.4,8.6,0.7
		c5.5,0.6,10.9,1.5,16.3,2.6c0.8-1.6,1.6-3.3,2.5-4.8c0.4-0.6,0.7-1.3,0.9-2c1.6-4.8,3.8-9.3,6.4-13.6c0.3-0.4,0.6-0.9,0-1.3
		c-1.7,0.4-3.4,0.9-5.1,1.3c-2.9,0.6-5.9,0.9-8.9,0.3c-4.8-1.1-7.6-5.2-6.7-10.1C243.5,569.1,243.9,568,244.3,567z"/>
	<path class="st4" d="M858.7,657.8c-2.1-4.2-4.7-8.2-7.7-11.9s-6.4-7-10.1-10c-3.7-2.9-7.7-5.5-11.9-7.5l0,0l-6.3-2.8
		c-0.7-0.6-1.3-1.2-2-1.8c-1.6-1.3-3.2-2.6-5-3.6c-7.4-4.1-15.7-6.5-24-7.8c-4.2-0.7-8.4-1.1-12.6-1.4c-2.8-0.2-5.6,0-8.3-0.5
		c-3-0.5-5.8-1.8-8.9-2c-1.2-0.1-2.4,0-3.5,0.2c-9.6,1-19.3,2.4-28.6,5.3c-4.7,1.4-9.3,3.2-13.6,5.4c-4.2,2.1-7.9,5.2-12.3,6.9
		c-1.1,0.4-2.1,0.9-3.1,1.3c-22.3,9.6-42.2,28.4-50,51.7l0,0c2-0.4,4.4,0.3,6-1c0.6-0.5,1-1.3,1.4-2.1c3.6-7.7,7.1-15.8,13.2-21.8
		c7.4-7.4,19.2-10.3,28-3.5v-0.1c0,0.1,0.1,0.1,0.1,0.2c0.5,0.4,1,0.8,1.5,1.3c0,0,0,0,0.1,0.1c0.2,0.1,0.3,0.3,0.5,0.4
		c0.6,0.5,1.1,1.1,1.6,1.7c0.1,0.1,0.2,0.2,0.3,0.4c-0.7,0-1.5,0-2.2,0.1c-1.6,0.2-3.2,0.6-4.7,1.1c-3,1.1-5.8,2.8-8.4,4.6
		c-0.7,0.5-1.3,0.9-2,1.4l-1,0.7l-1.8,1.3l-0.9,0.7c0,0,1-0.3,1.1-0.3c4.6-1.2,9.2-1.3,13.6,0.8c0.3,0.2,0.7,0.4,1,0.5
		c0.3,0.2,0.7,0.4,1,0.6c0.7,0.4,1.3,0.9,1.9,1.4c1.2,1,2.2,2.2,3.2,3.5c1,1.4,1.9,2.9,2.7,4.5l0,0c-0.1,0.4-0.3,0.9-0.4,1.3
		c-0.1,0.3-0.1,0.5-0.2,0.8v0.1c-0.1,0.5-0.2,1-0.2,1.5c0,0.1,0,0.2,0,0.4c0,0.1,0,0.2,0.1,0.4c0,0.2,0.1,0.5,0.1,0.7v-0.1v0.1
		c0,0,0,0,0,0.1c0,0,0,0,0-0.1c0.2,0.8,0.3,1.7,0.5,2.5c0.2,1,0.4,2,0.7,3c1.2,2.1,2.5,4.1,3.3,6.4c0.1,0.2,0.1,0.4,0.2,0.7
		c0,0.1,0,0.1,0.1,0.2c0.1,0.2,0.1,0.4,0.2,0.6l0,0c0.1,0.2,0.1,0.4,0.1,0.7c0,0.1,0,0.1,0,0.2c0,0.2,0.1,0.4,0.1,0.6v0.1
		c0,0.2,0.1,0.4,0.1,0.6c0,0.1,0,0.2,0,0.3c0,0.2,0,0.3,0.1,0.5c0,0.1,0,0.2,0,0.3c0,0.2,0,0.3,0,0.5c0,0.1,0,0.2,0,0.3s0,0.2,0,0.3
		c0,0.2,0,0.5,0,0.7c0,0.1,0,0.1,0,0.2c0,0.2,0,0.3,0,0.5l0,0c0,0.3,0,0.7,0,1c0.1,0.2,0.3,0.3,0.4,0.5c0.7,0.8,1.3,1.6,2,2.4
		c0.3,0.3,0.7,0.7,1,1c2.9,2.5,5.8,4.8,9.6,5.6c5.9,1.3,12-0.6,18-0.1c1.2,0.1,2.4,0.3,3.5-0.2c2.1-0.9,3.4-4.2,4.4-6
		c1.7-2.8,3-5.8,4.2-8.9c2.2-5.8,3.5-12,4-18.2c0.7-9.8-1-19.7-4.9-28.7c-2-4.5-4.4-8.8-7.3-12.8c-2.9-4-6.2-7.6-9.8-10.9
		c-0.4-0.4-0.9-0.8-1.4-1.2l-2.4-2l0,0l0,0h0.1l0.2,0.1l0.4,0.1l0.9,0.2l1.4,0.3l0.5,0.1l0.4,0.1l0.9,0.3c2.4,0.7,4.7,1.7,6.9,2.8
		c20.4,10.6,29.2,32.1,30.5,53.9c0,0.1,0,0.3,0,0.4c0,0.6,0,1.3,0,1.9c0,0.6,0,1.2-0.1,1.8c0,0.6-0.1,1.1-0.1,1.7c0,0.1,0,0.1,0,0.2
		c-0.1,0.4-0.1,0.8-0.2,1.2c0,0.3-0.1,0.8-0.2,1.1c0,0.3-0.1,0.5-0.1,0.8c-0.5,3.6-1.8,7.2-2.9,10.7c-1.2,3.7-3.3,7.2-1.8,11.1
		c3.2,8.2,10.5,10.8,18.5,12.1c1.1,0.2,2.1,0.3,3.2,0.4c1.3,0.2,2.6,0.3,4,0.4c1.5,0.1,3.1,0.3,4.6,0.5c0.3,0,0.6,0,0.9,0.1
		c0.3,0,0.5,0,0.8,0.1c0.5,0,1.1,0,1.6,0c0-0.1,0-0.1,0-0.2c0.7-3.1,2.3-5.8,3.8-8.6c6.7-13,9.3-28.7,7.2-43.5
		c-2-13.8-9.7-26.6-19.4-36.4c-0.9-0.9-2-2.2-1.8-3.5c3.4,0.9,7.1,3.8,10.1,5.6c3.7,2.3,7.2,4.7,10.6,7.5c6,5,11.7,11.5,12.9,19.5
		c2.4,15.3,6.6,16.3,4.6,31.7c-0.5,4.1-3,7.8-3.9,11.9c-1.1,5.7-1.5,11.1-3.6,16.6c-0.1,0.3-0.3,0.7-0.4,1c-0.1,0.4-0.3,3.3-1,3
		c2.8,0.9,16.1,3.5,16.8-1.3l0.4-2.7l3.3-18.5c3.2-18.2,3.7-36.3-4.5-53.4c-1.8-3.6-4.8-10.5-7.2-12.7c0.3,0.3,0.6,0.5,0.8,0.8
		c4.5,4.3,8.7,8.3,12.1,13.6c3.9,6.2,7.3,13.2,9.9,20c0.2,0.5,0.4,1.1,0.6,1.7c0.7,2.2,1.3,4.5,1.8,6.7c0.9,4.5,1.4,9.1,1.4,13.7
		c-0.1,4.6-0.6,9.2-1.6,13.6c-0.3,1.4-0.7,2.7-1.1,4c0.4-0.1,0.8-0.2,1.2-0.4c1.1-0.5,2.1-1.3,2.9-2.2c0.8-0.9,1.5-1.9,2-3
		c0.6-1.1,1-2.2,1.4-3.3c0.2-0.6,0.3-1.1,0.5-1.7C867.4,689,865.9,672.1,858.7,657.8z M709.5,623.3
		C709.5,623.3,709.5,623.2,709.5,623.3c0.1-0.1,0.1-0.1,0.2-0.1C709.6,623.2,709.6,623.2,709.5,623.3z"/>
	<path class="st4" d="M289.5,627.5c-1-0.4-2.1-0.9-3.1-1.3c-4.4-1.7-8.1-4.7-12.3-6.9c-4.4-2.2-9-4-13.6-5.4
		c-9.3-2.8-19-4.3-28.6-5.3c-1.2-0.1-2.4-0.2-3.5-0.2c-3,0.2-5.9,1.6-8.9,2c-2.8,0.4-5.5,0.3-8.3,0.5c-4.2,0.2-8.4,0.7-12.6,1.4
		c-8.3,1.4-16.6,3.7-24,7.8c-1.8,1-3.5,2.3-5,3.6c-0.7,0.6-1.3,1.2-2,1.8l-6.3,2.8l0,0c-4.2,2.1-8.2,4.6-11.9,7.5
		c-3.7,3-7.1,6.3-10.1,10s-5.6,7.7-7.7,11.9c-7.2,14.3-8.7,31.2-4.5,46.7c0.2,0.6,0.3,1.1,0.5,1.7c0.4,1.1,0.8,2.2,1.4,3.3
		c0.6,1.1,1.2,2.1,2,3s1.8,1.7,2.9,2.2c0.4,0.2,0.8,0.3,1.2,0.4c-0.4-1.3-0.8-2.7-1.1-4c-1-4.4-1.5-9-1.6-13.6
		c0-4.6,0.5-9.2,1.4-13.7c0.5-2.3,1.1-4.5,1.8-6.7c0.2-0.6,0.4-1.1,0.6-1.7c2.6-6.8,6-13.8,9.9-20c3.4-5.3,7.6-9.4,12.1-13.6
		c0.3-0.3,0.6-0.5,0.8-0.8c-2.3,2.1-5.4,9-7.2,12.7c-8.2,17-7.8,35.1-4.5,53.4l3.3,18.5l0.4,2.7c0.7,4.8,14,2.2,16.8,1.3
		c-0.7,0.2-1-2.6-1-3c-0.1-0.4-0.3-0.7-0.4-1c-2.2-5.5-2.5-10.8-3.6-16.6c-0.8-4.1-3.3-7.8-3.9-11.9c-2-15.4,2.2-16.3,4.6-31.7
		c1.2-8,6.9-14.5,12.9-19.5c3.3-2.8,6.9-5.2,10.6-7.5c3-1.9,6.7-4.7,10.1-5.6c0.2,1.3-0.9,2.6-1.8,3.5c-9.7,9.8-17.4,22.6-19.4,36.4
		c-2.1,14.8,0.5,30.5,7.2,43.5c1.4,2.8,3.1,5.5,3.8,8.6c0,0.1,0,0.1,0,0.2c0.5,0,1.1,0,1.6,0c0.3,0,0.5,0,0.8-0.1
		c0.3,0,0.6,0,0.9-0.1c1.5-0.2,3.1-0.4,4.6-0.5c1.3-0.1,2.7-0.3,4-0.4c1.1-0.1,2.1-0.3,3.2-0.4c8-1.3,15.2-3.8,18.5-12.1
		c1.5-3.9-0.6-7.4-1.8-11.1c-1.1-3.5-2.4-7-2.9-10.7c0-0.3-0.1-0.5-0.1-0.8c-0.1-0.3-0.2-0.8-0.2-1.1c-0.1-0.4-0.1-0.8-0.2-1.2
		c0-0.1,0-0.1,0-0.2c0-0.6-0.1-1.1-0.1-1.7c-0.1-0.6,0-1.2-0.1-1.8c0-0.6,0-1.3,0-1.9c0-0.1,0-0.3,0-0.4
		c1.3-21.8,10.1-43.3,30.5-53.9c2.2-1.1,4.5-2.1,6.9-2.8l0.9-0.3l0.4-0.1l0.5-0.1l1.4-0.3l0.9-0.2l0.4-0.1l0.2-0.1h0.1l0,0l0,0
		l-2.4,2c-0.5,0.4-0.9,0.8-1.4,1.2c-3.6,3.3-6.9,7-9.8,10.9c-2.9,4-5.3,8.3-7.3,12.8c-3.9,9-5.7,18.9-4.9,28.7
		c0.5,6.2,1.8,12.3,4,18.2c1.2,3.1,2.5,6,4.2,8.9c1.1,1.9,2.3,5.2,4.4,6c1.1,0.4,2.3,0.3,3.5,0.2c6-0.5,12.2,1.4,18,0.1
		c3.8-0.9,6.7-3.2,9.6-5.6c0.3-0.3,0.7-0.7,1-1c0.7-0.8,1.4-1.6,2-2.4c0.1-0.2,0.3-0.3,0.4-0.5c0-0.3,0-0.7,0-1l0,0
		c0-0.2,0-0.3,0-0.5c0-0.1,0-0.1,0-0.2c0-0.2,0-0.5,0-0.7c0-0.1,0-0.2,0-0.3s0-0.2,0-0.3c0-0.2,0-0.3,0-0.5c0-0.1,0-0.2,0-0.3
		c0-0.2,0-0.3,0.1-0.5c0-0.1,0-0.2,0-0.3c0-0.2,0.1-0.4,0.1-0.6v-0.1c0-0.2,0.1-0.4,0.1-0.6c0-0.1,0-0.1,0-0.2
		c0-0.2,0.1-0.4,0.1-0.7l0,0c0.1-0.2,0.1-0.4,0.2-0.6c0-0.1,0-0.1,0.1-0.2c0.1-0.2,0.1-0.4,0.2-0.7c0.8-2.3,2.1-4.4,3.3-6.4
		c0.2-1,0.4-2,0.7-3c0.2-0.8,0.3-1.7,0.5-2.5c0,0,0,0,0,0.1c0,0,0,0,0-0.1v-0.1v0.1c0-0.2,0.1-0.5,0.1-0.7c0-0.1,0-0.2,0.1-0.4
		c0-0.1,0-0.2,0-0.4c-0.1-0.5-0.1-1-0.2-1.5v-0.1c-0.1-0.3-0.1-0.5-0.2-0.8c-0.1-0.4-0.2-0.9-0.4-1.3l0,0c0.8-1.6,1.6-3.1,2.7-4.5
		c0.9-1.3,2-2.4,3.2-3.5c0.6-0.5,1.2-1,1.9-1.4c0.3-0.2,0.7-0.4,1-0.6c0.3-0.2,0.7-0.4,1-0.5c4.4-2.1,9-2,13.6-0.8
		c0.1,0,1.1,0.3,1.1,0.3l-0.9-0.7l-1.8-1.3l-1-0.7c-0.6-0.5-1.3-0.9-2-1.4c-2.6-1.8-5.4-3.5-8.4-4.6c-1.5-0.5-3.1-0.9-4.7-1.1
		c-0.7-0.1-1.5-0.1-2.2-0.1c0.1-0.1,0.2-0.2,0.3-0.4c0.5-0.6,1-1.2,1.6-1.7c0.2-0.1,0.3-0.3,0.5-0.4c0,0,0,0,0.1-0.1
		c0.5-0.5,1-0.9,1.5-1.3c0-0.1,0.1-0.1,0.1-0.2v0.1c8.8-6.8,20.5-3.8,28,3.5c6.1,6,9.6,14,13.2,21.8c0.4,0.8,0.7,1.5,1.4,2.1
		c1.6,1.3,4,0.5,6,1l0,0C331.7,655.9,311.8,637.1,289.5,627.5z M280.5,623.1l0.1,0.1l0,0C280.6,623.2,280.5,623.2,280.5,623.1z"/>
</g>
</svg>
