<?xml version="1.0" encoding="utf-8"?>
<!-- Generator: Adobe Illustrator 24.0.1, SVG Export Plug-In . SVG Version: 6.00 Build 0)  -->
<svg version="1.1" id="Layer_1" xmlns="http://www.w3.org/2000/svg" xmlns:xlink="http://www.w3.org/1999/xlink" x="0px" y="0px"
	 viewBox="0 0 990 781.2" style="enable-background:new 0 0 990 781.2;" xml:space="preserve">
<style type="text/css">
	.st0{fill:#FFFFFF;}
	.st1{fill:#686868;}
	.st2{fill:#874F00;}
	.st3{fill:#EA8724;}
	.st4{fill:#F44E4E;}
</style>
<g>
	<path d="M890.3,751c-1.7,0.6-2.7,2.1-3.9,3.3c-2.3,2.2-4.5,4.5-7.3,6.2c-5.3,3.4-10.2,2.3-13.3-3.3c-2.2-4-3.3-8.3-3.6-12.8
		c-0.1-1.4-0.1-2.9,0-4.3c0-2.1-0.9-3.7-2.6-4.8c-1.6-1-3.3-2-5-2.8c-5-2.1-8.6-5.5-10.4-10.7c-0.2-0.5-0.4-0.9-0.6-1.3
		c-0.4-0.7-1.4-0.8-2.1-0.4c-1.3,0.8-2.1,2-2.7,3.3c-1,2.2-1.8,4.4-2.7,6.6c-2.5,6.5-6.2,12.2-11.7,16.6c-5,4.1-11.1,2.3-14.3-1.9
		c-2.2-2.9-3.4-6.1-4.2-9.6c-0.3-1.2-0.5-2.5-0.7-3.8c-0.2-2.6-1.5-4.5-3.8-5.7c-5.2-2.7-9.3-6.7-13.4-10.8
		c-4.7-4.6-3.3-4.5-10.9-4.5c-188.6,0-377.1,0-565.7,0c-0.6,0-1.3,0.1-1.9,0c-3.1-0.3-5.6,0.8-7.6,3.2c-1.1,1.3-2.4,2.5-3.7,3.7
		c-3.1,3-6.3,5.9-10.2,7.9c-2.8,1.4-4.4,3.5-4.7,6.7c-0.1,1.1-0.4,2.2-0.6,3.3c-0.6,2.8-1.6,5.5-3.1,8c-0.9,1.5-2.1,2.8-3.5,3.9
		c-2.6,2-7.4,2.8-11.2,0c-5.9-4.4-9.7-10.1-12.3-16.8c-0.6-1.6-1.2-3.3-1.8-4.9c-0.8-1.9-1.9-3.7-3.5-5.1c-0.9-0.7-2-0.6-2.4,0.3
		c-0.4,0.8-0.8,1.8-1.1,2.6c-1.6,3.7-4.2,6.4-7.8,8.1c-1.7,0.8-3.4,1.8-5.1,2.6c-3.2,1.6-4.9,3.9-4.5,7.6c0.4,4.2-0.7,8.2-2.1,12.2
		c-0.6,1.8-1.4,3.6-2.7,5.1c-3,3.6-7,4.4-11.1,2.2c-2.5-1.4-4.7-3.3-6.8-5.3c-1.7-1.7-3.4-3.3-5.2-5.1c-1.5,1.2-1.5,2.7-1.8,4
		c-0.9,4-2.9,7.4-5.4,10.5c-2.2,2.8-4.9,3.5-8.1,2.7c-6.2-1.5-11.8-4.2-16.2-8.8c-5.1-5.3-10.2-10.6-13.9-17
		c-1.6-2.8-3.8-5.1-6.6-6.7c-9.1-5.4-15.3-13.5-20.4-22.4c-2.5-4.3-3.7-9.2-4.7-14c-2.6-11.6-2.2-9.8,0-19.3
		c1.2-5.3,2.7-10.5,4.8-15.6c1.1-2.7,1.5-5.6,1.8-8.4c0.7-5.7,2.8-10.8,5.7-15.6c5.2-8.5,11.7-16,19.4-22.3
		c3.6-2.9,7.1-5.9,10.8-8.7c16-11.8,33.9-19,53.6-21.7c6.2-0.8,12.4-1.5,18.6-1.4c4.6,0,9.3,0.3,13.9,0.8c11,1.2,21.8,3,32.5,5.9
		c1.4,0.4,2.8,0.8,4.1,1.2c1.6,0.5,2.8,0,3.7-1.4c1.7-2.7,3.4-5.5,5.1-8.1c2.8-4.3,5.6-8.5,8.5-12.8c3.1-4.5,6.5-8.7,10.5-12.4
		c2.7-2.5,4.3-5.5,5.2-9c5.6-22,15.8-41.8,29.3-59.9c5.6-7.6,10.7-15.5,14.7-24.1c3.2-7,7.1-13.6,11.5-19.9c1.5-2.1,3.1-4,5.3-5.5
		c3.1-2.2,4.5-5.3,3.5-9.2c-0.9-3.2-1.5-6.5-1.7-9.9c-0.2-3.1-1.5-5.9-3.2-8.4c-2.9-4.2-5.7-8.5-8.8-12.5c-8.4-11-13-23.4-14.7-37
		c-0.9-7-1.6-14-2.4-20.9c-0.2-1.4-0.3-2.9-0.2-4.3c0.6-6.5,1.1-13,2.5-19.5c2.1-9.3,5.8-17.9,10.9-25.9c0.7-1.1,1.4-2.1,2.1-3.2
		c3.9-5.7,5.8-12.1,6.2-18.9c0.7-12-0.1-24-2-35.8c-0.1-0.6-0.2-1.3-0.5-1.9c-0.2-0.4-0.5-0.9-0.9-1c-0.8-0.3-1.1,0.5-1.3,1
		c-2.5,5.7-4.8,11.5-7.4,17.2c-3.9,8.8-8,17.4-13.1,25.5c-2.9,4.5-6,8.6-10.5,11.6c-2.5,1.7-5.2,3.2-8,4.3
		c-6.3,2.4-11.4,0.8-14.8-4.9c-2.3-3.8-4.4-7.8-6.4-11.8c-5.4-10.7-11.1-21.2-17.6-31.3c-1.5-2.3-2.9-4.6-4.6-6.8
		c-4.8-6.5-8.8-13.3-11.5-20.9c-0.6-1.8-1.4-3.7-2.5-5.2c-4-5.4-4.6-11.5-4-17.8c0.4-4.3,1.2-8.5,2.7-12.6c1.2-3.3,2.3-6.6,3.4-10
		c1.6-5.2,3.9-10.1,6.6-14.9c3.3-5.7,6.7-11.3,9.9-16.9c4.5-7.8,9.9-14.9,15.8-21.7c3.1-3.6,5.9-7.6,8.1-11.8
		c3.6-6.8,7.8-13.2,13-18.9c1.4-1.5,2.6-3.3,3.6-5.1c5.1-8.7,12.2-15.1,21.1-19.7c4-2.1,8.2-3.7,12.3-5.3c6.7-2.6,13.4-5.3,20-8.1
		c4.2-1.7,8-4,11.4-7c5-4.5,10.8-7.9,16.9-10.8c8-3.8,16.1-7.1,24.7-9.1c4.4-1.1,8.7-1.8,13.2-0.6c3.1,0.8,6,2.2,8.6,4
		c2.3,1.6,4.7,2.7,7.4,3.2c1.3,0.2,2.5,0.3,3.8,0.2c6.2-0.8,12.4-0.5,18.6,0.4c6.1,0.9,12.4,1.2,18.6,2c7.6,0.9,15.3,1.2,23,1.2
		c4.2,0,8.3-0.1,12.3-1.4c2-0.6,3.9-1.3,5.9-2.1c4.2-1.6,8.4-3,12.8-3.9C469,23,474.6,23,480,26c2.4,1.3,4.7,1.5,7.4,0.6
		c2.2-0.8,4.6-1.3,7-1.7c4.9-0.8,9.8-0.9,14.7,0.8c4.4,1.6,9,2.1,13.7,2c7.2-0.1,14.3-0.4,21.5-0.9c11.3-0.8,22.4-3.2,33.7-4.7
		c1.1-0.2,2.2-0.3,3.3-0.4c4.5-0.4,8.9-1,13.2-2.4c4.4-1.4,8.8-1.7,13.2-0.3c4.4,1.4,8.5,0.9,12.4-1.4c3.3-1.9,7-3.1,10.7-4
		c4.2-1,8.2-0.8,12.2,0.9c1.9,0.8,3.8,1.7,5.6,2.7c12.7,6.9,26,12.2,39.5,17.3c4.4,1.6,8.9,2.4,13.5,3.2c7.5,1.3,15.1,2.5,22.7,3.7
		c2.4,0.4,4.8,0.2,7.1-0.5c3.7-1,7.4-1.8,11.2-2.4c8.8-1.2,16.8,0.8,24.2,5.4c4.6,2.9,8.7,6.4,12.8,10c10.5,9.3,21,18.7,31.6,27.9
		c4.6,4,8,8.5,10,14.4c1.5,4.4,3.3,8.6,5,12.9c3,7.6,5.5,15.4,7.1,23.4c2.4,11.6,3.5,23.4,2.7,35.3c-0.5,7.3-2.7,14.1-6.4,20.4
		c-3.3,5.6-6.6,11.3-10.2,16.8c-7,10.9-13.8,21.9-20,33.3c-1.5,2.8-2.9,5.7-3.7,8.8c-1.5,5.7-3,11.4-4.5,17.2
		c-1.7,6.8-4.8,12.8-9,18.4c-4,5.4-9.3,8.3-16.1,7.9c-6.5-0.4-5.7,0.9-4.7,5.4c2.7,11.3,1.8,22.5-0.6,33.7c-1.2,6-3,11.8-5.6,17.3
		c-3,6.4-5.3,13-6,20.1c-0.3,3.3-1.2,6.6-2.2,9.8c-1,3.2-2.5,6.2-4.8,8.8c-2,2.2-3.2,4.7-4.1,7.5c-1.7,5.5-3.5,11-5.8,16.2
		c-0.7,1.4-1.1,3-1.5,4.5c-1.1,3.9-2.5,7.6-4.4,11.1c-0.4,0.7-0.7,1.4-1.1,2.1c-0.6,1.3-0.5,2.5,0.4,3.5c0.3,0.4,0.6,0.7,1,1.1
		c5.9,5.7,9.7,12.7,12.7,20.1c3.5,8.5,5.6,17.3,7.4,26.2c1.9,9.6,3.1,19.2,4.5,28.9c0.6,4.4,0.8,8.9,1.2,13.4
		c0.6,5.7,1.3,11.4,2,17.1c0.6,4.9,2.5,9.2,5.7,13c6,7,10.7,14.7,14.6,23c3.7,7.8,8.8,14.8,13,22.4c0.2,0.3,0.3,0.5,0.5,0.8
		c0.7,0.8,1.5,1.2,2.5,0.9c0.9-0.2,1.8-0.6,2.7-0.9c13.4-4.9,27.3-7.8,41.5-9.5c10-1.2,20.1-1.5,30.1-0.6
		c16.6,1.5,32.3,5.9,46.9,14.2c11.5,6.5,21.8,14.5,31.1,23.8c5.2,5.2,9.7,11.1,13.2,17.6c2.3,4.2,4,8.7,4.5,13.5
		c0.3,3.5,1.2,6.9,2.5,10.2c2.5,6.4,4,13.1,5.5,19.8c0.4,1.9,0.5,3.8,0.1,5.7c-0.7,3.4-1.5,6.9-2.2,10.3c-1.9,8.8-6.6,16.2-12.3,23
		c-3.5,4.2-7.6,7.8-12.2,10.6c-2.5,1.5-4.6,3.5-6,6c-3.4,5.8-8.1,10.7-12.5,15.7c-4.8,5.5-10.8,8.9-17.8,10.7
		c-3.6,0.9-6.5,0-8.8-3.1s-4.2-6.4-5-10.2C891.5,753.4,891.5,752,890.3,751z"/>
</g>
<g>
	<path class="st0" d="M383.5,204.3c3,1.4,6.1,2.7,9.2,3.9c1.6,0.6,4.6-1.2,5.1-2.7c0-0.1,0-0.1,0.1-0.2c0.1-0.4,0.1-0.9-0.1-1.2
		c-1.8-3.6-3.7-7.1-8.7-6.7c-0.6,0-1.2-0.1-2.2-0.2c-0.6,0.1-1.6,0-2.5,0.3c-1.6,0.5-2.3,1.7-2.5,3.2c0,0.2-0.1,0.5-0.1,0.7
		C381.8,202.7,382.3,203.8,383.5,204.3z"/>
	<path class="st0" d="M408.8,217.4c-0.1-0.3-0.2-0.5-0.3-0.8c-0.3-0.6-0.6-1.3-0.9-1.8l0,0c0-0.1-0.1-0.1-0.1-0.1
		c-0.2-0.1-0.4-0.2-0.7-0.2l0,0c-0.3,0-0.6,0.3-0.7,0.5l0,0l0,0c-0.1,0.2-0.1,0.4-0.2,0.5c-0.1,0.4-0.2,0.8-0.2,1.3
		c-1.1,4.9-3.6,8.8-7.5,11.9c-0.5,0.4-0.9,0.9-1.3,1.4c-0.2,0.2-0.2,0.7-0.1,0.9s0.5,0.2,1.1,0.5l0,0c4.1-0.8,8.5-1.7,12.8-2.6
		c1.4-0.3,1.8-1.2,1.2-2.5C410.5,223.5,409.7,220.4,408.8,217.4z"/>
	<path class="st0" d="M610.8,219c-4.3-4.8-5.6-10.5-4.8-16.8c0.1-0.8,0.6-1.8-0.5-2.8c-0.2,0.2-0.4,0.4-0.6,0.6
		c-1.3,1.4-1.9,3.2-2.6,5c-1.5,4.1-2.7,8.2-4.7,12c-0.8,1.6-0.3,2.5,1.5,3.2c3.8,1.4,7.9,0.6,11.8,1.2c0.3,0,0.5-0.3,0.6-0.6
		c0-0.2,0.1-0.4,0-0.6C611.4,219.8,611.1,219.3,610.8,219z"/>
	<path class="st0" d="M366.2,223.5c-2.3-4.7-3.8-9.5-2.1-14.8c-0.1-0.4-0.1-1-0.4-1.3l-0.1-0.1l0,0l-0.1-0.1c-0.5-0.3-1,0-1.5,0.3
		c-2.1,1.5-4.2,2.9-6.6,3.9c-1.7,0.7-1.9,1.6-0.9,3c2.8,4.3,6.3,8,10.4,11.1c0.1,0,0.1,0.1,0.2,0.1c0.2,0.1,0.5,0.3,0.7,0.3
		c0.2,0.1,0.6,0,0.8-0.2c0.2-0.2,0.3-0.6,0.2-0.9C366.6,224.4,366.4,223.9,366.2,223.5z"/>
	<path class="st0" d="M399,221.4L399,221.4c0.9-1.2,1.6-2.3,1.9-3.8l0,0c0-0.1,0-0.3,0-0.4c0-0.4-0.1-0.7-0.5-0.7
		c-0.1,0-0.1,0-0.2,0c-0.2,0-0.5,0.2-0.6,0.3c-1.7,1.9-3.2,4-5.1,5.7c-0.6,0.5-1.2,1-1.8,1.4c-0.9,0.6-2,1-3,1.3
		c-0.7,0.2-1.4,0.4-2.1,0.4c-1.1,0.1-2.2,0.1-3.2,0c-0.7-0.1-1.4-0.3-2.1-0.5s-1.4-0.5-2-0.9c-0.7-0.4-1.3-0.8-1.9-1.2
		c-4.2-3.4-6.6-7.7-6.5-13.2c0-1.1,0.5-2.4-0.3-3.6l0,0c-1.5,0.3-1.5,1.6-1.8,2.6c-0.2,0.8-0.4,1.6-0.4,2.4s0.1,1.6,0.3,2.4
		c1,3.9,2.5,7.7,5.4,10.5c4,3.9,8.8,5.8,14.4,4.1C393.2,227,396.5,224.7,399,221.4z"/>
	<path class="st0" d="M626.3,199.6c1.1,1,2.7,0.8,5.5-0.4c1-0.4,2.1-0.8,3-1.4c0.6-0.5,1.3-1.2,1.3-1.9c0-0.3-0.2-0.7-0.4-1.1
		c-0.2-0.3-0.4-0.6-0.7-0.9c-2-1.7-4.6-1.9-7.1-2.3c-2.6-0.3-3.8,0.9-3.3,3.4C625,197.4,625.5,198.9,626.3,199.6z"/>
	<path class="st0" d="M641.5,203.2c-0.1-0.9-0.6-1.5-1.4-1.8c-1.8-0.7-2.8-0.4-3.3,1.4c-0.3,1.1-0.4,2.2-0.7,3.3
		c-0.1,0.3-0.2,0.5-0.2,0.8c-0.2,0.5-0.3,1-0.5,1.5c-0.3,0.8-0.5,1.5-0.9,2.2c-1.8,3.6-4.6,5.4-8.8,5.3c-5.6-0.2-9.7-2.9-13-7.1
		c-0.3-0.4-0.5-0.8-0.8-1.3c-0.1-0.1-0.1-0.2-0.2-0.3c-0.2-0.4-0.5-0.9-0.8-1.3c-0.2-0.4-0.7-0.9-1.1-0.6c-0.3,0.2-0.4,0.8-0.5,1.3
		l0,0c-0.1,0.6,0,1.3,0.1,1.9c1.4,6.7,7.3,11.5,14.1,11.6c8.7-0.2,15.2-5.7,17.5-12.6c0.1-0.2,0.1-0.5,0.2-0.7
		C641.5,205.6,641.7,204.4,641.5,203.2z"/>
	<path class="st0" d="M651,200.1c-1.6-2-3.1-4-4.1-6.4c-0.2-0.4-0.6-0.8-1-1s-0.9-0.3-1.3-0.2l0,0c-0.1,0.1-0.3,0.5-0.3,0.8
		c0.1,0.7,0.3,1.5,0.4,2.3c0.9,4.8,0.5,9.3-1.1,13.9c-0.4,1.2-0.9,2.4-1.6,3.5c-0.3,0.4-0.5,1-0.7,1.5c0,0.1-0.1,0.1-0.1,0.2
		c-0.1,0.2,0.2,0.5,0.3,0.8c0,0.1,0.2,0.1,0.4,0.1c0.3-0.2,0.7-0.2,0.9-0.4c0.1-0.1,0.3-0.3,0.4-0.4c3.8-3.3,6.4-7.4,8.3-12
		c0.1-0.2,0.1-0.3,0.1-0.4C651.8,201.5,651.6,200.8,651,200.1z M642.9,215c-0.2,0.2-0.6,0.3-0.9,0.4l1.3-0.8
		C643.2,214.7,643.1,214.9,642.9,215z"/>
</g>
<g>
	<path class="st1" d="M555.5,369.4c-2.3,0.7-4.3,1.9-6.4,3.2c-1.9,1.2-3.9,2.3-5.9,3.2c-4.4,1.8-7.2,1.2-10.4-2.2
		c-0.8-1-1.6-2-2.5-2.9c-0.2-0.2-0.7-0.3-0.9-0.2c-0.3,0.1-0.5,0.4-0.5,0.7c0,2.4,1.1,4.3,2.2,6.3c0.4,0.7,1.1,1.4,0.7,2.2
		c-0.6,1-1.7,0.7-2.6,0.7c-2.3-0.1-3.9-1.4-5.2-3.1c-0.2-0.2-0.3-0.4-0.5-0.7c-1.3-2.1-1.9-4.5-2.1-6.9c-0.1-1.4,0-2.9-0.3-4.3
		c-0.9-4.1,0.1-7.9,1.5-11.7c1.6-4.3,4.8-7,9.2-8.4c2.7-0.8,5.4-0.7,8.1-0.2s5.4,1.2,8,1.8c0.8,0.1,1.6,0.7,2.2-0.2
		c0.6-0.8,0.2-1.7-0.3-2.4c0-0.1-0.1-0.1-0.1-0.2c-0.9-1.5-2.4-2.5-3.7-3.7c-0.1-0.1-0.1-0.2-0.2-0.2c-0.9-1-0.5-2.2,0.9-2.7
		c1.8-0.7,3.5-0.4,5.2,0c1.4,0.3,2.8,0.7,4.2,0.8c1.9,0.1,3.3-1.8,2.7-3.6c-0.3-0.9-0.7-1.7-1.2-2.5v-0.1c-3.4-5.1-8.1-8.6-14.1-10
		c-1-0.2-1.9-0.5-2.7-1c-5.6-3.7-11.9-4.6-18.3-4.9c-2.2-0.1-4.5,0.1-6.7,0.1c-12.2,0.2-23.8,2.6-34.8,7.9c-1.8,0.8-3.5,1.6-5.4,2
		c-4.2,0.9-7.5,3.4-10.4,6.5c-3.2,3.5-5,7.7-6.4,12.2c-0.9,3-0.3,5.4,1.4,7.6c0.2,0.3,0.4,0.5,0.7,0.8c2,2.3,3.2,2.5,5.8,0.9
		c2.4-1.5,4.8-3.1,7.1-4.8c5.5-4,11.6-5,18.2-4.5c2,0.2,4,0.7,6.1,1c2,0.3,3.6,1.3,5,2.7c1.9,1.8,3.4,3.7,4.6,5.8
		c1.9,3.3,3.1,7.1,3.6,11.1c0.2,1.7,0.2,3.5,0.7,5.2c1.6,5.3,3.2,10.7,4.2,16.2c0.1,0.6,0.3,1.1,0.7,1.6c0.3,0.4,0.6,0.8,1,1.2
		c3.3,2.6,8.1,2.8,11.6,0.4c2.4-1.6,4.8-3.1,8.1-3.9c0,0.1,0,0.2,0,0.4c-0.6,4.6-1,5.7-3.8,8.4c-3.4,3.4-7.3,6.3-11.5,8.6
		c-7.1,3.8-14.1,3.2-20.9-1c-1.3-0.8-2.5-1.9-3.7-3c-3.9-3.5-7.5-7.4-11.8-10.5c-0.2-0.2-0.5-0.6-0.7-0.9c-0.1-0.1-0.1-0.1-0.2-0.2
		c-0.3-0.4,0.1-1.6,0.5-2c0.9,0,1.9-0.1,2.8,0.1c3,0.6,6.1,0.5,9.1,0.6c2.4,0.1,4-1.1,5-3.1c0.4-1,0.8-2.1,1-3.2
		c1.2-6.2,0.1-11.9-2.3-17.5c-0.1-0.2-0.2-0.4-0.3-0.7c-0.1-0.1-0.2-0.3-0.3-0.4c-0.4-0.6-0.8-1.2-1.5-0.9c-0.4,0.2-0.8,0.6-0.9,1
		c-0.7,2.3-1.5,4.6-2.1,6.9c-0.2,1-0.6,1.8-1.3,2.5c-3.1,3.5-6.7,5.9-11.7,5.4c-1.2-0.1-2.3-0.1-3.4-0.1c-2.7-0.1-5-1.1-7.1-2.7
		c-1.1-0.9-2.2-1.9-3.3-2.8c-2.9-2.2-6.1-2-8.7,0.5c-3.5,3.3-4.3,7.7-2.2,11.5c0.4,0.7,0.9,1.5,1.5,2.2c0.8,1,1.8,1.8,2.8,2.6
		c4.4,3.5,9.3,6.2,14.6,8.1c7.6,2.7,14.8,6.2,21.2,11.1c1.9,1.4,4,2.7,6.1,3.8c5.7,2.9,11.8,2.2,17.8,1.4c0.9-0.2,1.8-0.8,2.6-1.2
		c1.8-1,3.4-2.4,5-3.7c1.9-1.5,3.7-3.2,5.7-4.4c7.4-4.5,13-10.8,17.8-17.9c2-2.9,3.7-6,6.6-8.1c0.7-0.6,1.3-1.4,1.4-2.4
		c0.1-0.9-0.1-1.8-0.5-2.6C559.9,370.1,557.6,368.8,555.5,369.4z"/>
</g>
<g>
	<path class="st2" d="M190.2,211.3c6.6,11.1,13.1,22.3,19.8,33.4c2.1,3.5,3.8,7,5.2,10.8c0.7,1.9,1.5,3.8,2.3,5.8
		c0.2,0.4,0.3,0.9,0.5,1.3c0.7,1.6,1.3,3.3,2,4.9c0.3,0.6,0.5,1.1,0.8,1.7c0.3,0.5,0.6,1,0.9,1.5c0.1,0.2,0.3,0.4,0.4,0.6
		s0.3,0.3,0.4,0.5c1.3,1.3,2.9,1.4,4.6,0.1c1.5-1.1,2.7-2.6,3.7-4.3c3.1-5.3,6.1-10.5,9.1-15.8c1.9-3.4,3.6-6.8,5.6-10.1
		c3.7-6,6.6-12.4,8.6-19.2c1.7-5.9,3-11.8,4.5-17.7c1.4-5.5,0.8-10.7-1.6-15.9c-0.6-1.2-1-2.5-1.5-3.8c-0.9-2.8-1.5-5.7-1.8-8.7
		c0-0.2,0-0.4-0.1-0.6c-0.6-5.6,0.2-11.1,2.4-16.3c0.9-2.1,1.3-4.2,1.4-6.3c0-1.3-0.1-2.6-0.3-4c-0.2-1.2-0.3-2.4-0.4-3.6
		c-0.1-1.2,0-2.4,0.2-3.6c1.3-8.4,3.4-16.7,7.6-24.1c0.9-1.6,1.8-3.2,2.6-4.9c1.7-3.4,3.1-6.8,4.2-10.5c0.2-0.6,0.3-1.2,0.5-1.8
		c1.2-4.6,3.5-8.6,6.2-12.4c6.8-9.4,15.4-17.1,24.7-23.9c4-2.9,8.2-5.5,12.7-7.6c5-2.4,10.1-3,15.4-1.6c6,1.6,12,1.3,18-0.1
		c2.4-0.5,4.6-1.3,6.6-2.7c3.3-2.3,6.8-4.2,10.4-5.9c0.9-0.4,1.7-0.9,2.5-1.4c0.2-0.2,0.3-0.5,0.4-0.8c0-0.3-0.1-0.7-0.5-0.8
		c-0.4-0.2-0.8-0.5-1.3-0.6c-5.9-1.4-11.8-2.9-17.7-4.3c-2.3-0.6-4.7-0.4-7.1-0.1c-5.9,0.8-11.4,2.9-16.7,5.7
		c-4.2,2.3-8.3,4.8-12.4,7.3c-4.6,2.9-9.4,5.3-14.5,7.3c-3.3,1.3-6.5,2.7-9.7,4.2c-5,2.3-9.3,5.5-12.8,9.8c-1.7,2-3.4,4-5.3,5.6
		c-5.7,4.7-11,9.9-16.1,15.2c-0.1,0.1-0.1,0.1-0.2,0.2c0.3-1.7,1.2-3.2,2-4.7c2.5-4.7,5.5-9,8.7-13.2c0.9-1.1,1.7-2.3,2.5-3.5
		c0.1-0.1,0-0.5-0.2-0.7c0,0,0,0,0-0.1c-0.1-0.1-0.6-0.2-0.8-0.1c-0.8,0.4-1.7,0.8-2.5,1.3c-3.3,2.2-6.6,4.6-9.6,7.2
		c-4.6,4-9.1,8-13.8,11.9c-5.4,4.5-9.8,10-13.4,16.1c-2.2,3.7-3.8,7.7-5.5,11.7c-4.5,10.3-10,20-15.4,29.8c-1.6,2.8-3.6,5.3-5.5,7.9
		c-3.1,4.3-6.3,8.5-9.4,12.7c-2.8,3.9-5.2,8.1-7.1,12.5c-3.2,7.6-2.5,15,1.8,22C187.5,206.9,188.9,209.1,190.2,211.3z M202.1,169.4
		c1.8-3.7,4.2-7.1,6.9-10.3l0,0l0,0c4.7-5.4,8.6-11.5,12.2-17.7l0,0l0,0c4.5-7.7,8.6-15.6,13-23.4c1.3-2.2,2.7-4.3,4.6-6.1l0,0l0,0
		c0.7-0.6,1.5-1.3,2.3-1.7l0,0c3.2-1.7,6.5-0.4,7.9,2.9l0,0c0.6,1.5,0.7,3.1,0.4,4.7c-0.9,3.9-0.8,7.9-0.8,11.9
		c0,1.7-0.3,3.5-0.5,5.2c-0.5,3.5-2.5,5.7-5.8,6.9l0,0c-0.3,0.1-0.6,0.2-0.9,0.3c-0.6,0.2-1.2,0.4-1.8,0.6c-0.3,0.1-0.6,0.3-0.9,0.4
		l0,0c-2.8,1.5-4.8,3.5-5.9,6.6c-3.5,9.6-7.2,19.1-10.2,28.9c-1.1,3.5-2.4,6.9-4.1,10.2l0,0c-0.3,0.5-0.6,1-0.9,1.5
		c-0.9,1.4-2,2.7-3.2,3.8c-1.3,1.1-2.8,1.7-4.2,1.7c-1.8,0-3.6-0.9-5-2.7c-0.3-0.3-0.5-0.7-0.7-1c-0.6-1-1-2.2-1.1-3.4
		c-0.2-2.1-0.8-4-1.8-5.9c-0.9-1.9-1.3-3.9-1.2-6.1C200.3,174.2,201,171.8,202.1,169.4z M200.2,205.9L200.2,205.9
		c1.4,0.4,1.5,1.5,1.9,2.3c1.5,2.7,3.2,5.2,5.3,7.4c0.5,0.5,1,1,1.5,1.5c0.6,0.6,1.3,1.1,2.1,1.5c0.3,0.2,0.6,0.3,0.9,0.5
		c1.3,0.6,2.4,1,3.4,1c2.2,0.1,3.9-1.1,6-3.8c0.8-1.1,1.3-2.5,1.7-3.9c1.7-5.4,3.2-10.8,4-16.3c0.7-4.5,2.3-8.6,4.4-12.5
		c0,0,0,0,0-0.1c1.5,0.8,1,2.1,1.2,3.1c0.2,1.1,0.2,2.2,0.4,3.3c0.5,2.3-0.8,5,1.4,6.9c0,0,0,0,0.1,0.1c1.9-1.9,1.2-4.5,1.5-6.7
		c1.1-9.1,3.7-17.8,5.2-26.8c0.4-2.3,1-4.6,2.2-6.6c0,0,0,0,0-0.1c0.4,0.4,0.8,0.6,0.8,0.8c0.6,4.3,2.1,8.3,3.5,12.4
		c1,2.9,1.1,5.9,1.4,9c0.5,7.8,1,15.6-0.5,23.4c-0.6,2.9-1.4,5.9-2.1,8.8c-0.9,3.8-1.8,7.5-2.8,11.2c-0.8,3.1-1.6,6.2-2.7,9.2
		c-2.2,5.8-4.7,11.6-7.1,17.3c-0.8,2.1-2,4-3.5,5.7c-1.2,1.3-2.5,2-3.8,2.1c-1.2,0.1-2.5-0.3-3.9-1.2c-1.5-1-2.5-2.3-3.4-3.9
		c-1.2-2.1-2-4.4-2.6-6.7c-1-3.9-2.7-7.5-4.5-11.1c-2.9-5.7-6.4-11.1-8.4-17.2c-0.4-1.2-1.2-2.2-1.9-3.3
		C200.5,211,200,208.6,200.2,205.9z"/>
	<path class="st2" d="M333.9,84.1c-5.6,6.8-10.7,14-16,21c-5.1,6.7-8.6,14.3-13,21.3c-0.3,0.5-0.6,1.1-0.8,1.6
		c-0.5,1.1-0.8,2.2-1.2,3.3c-0.6,1.8-1.3,3.7-2,5.5c-1.9,4.9-4.1,9.7-6.5,14.3c-0.8,1.7-1.6,3.4-2.3,5.1c-1.9,4.6-3.2,9.3-3.9,14.4
		c-1.4,10.5-1.8,21-1,31.6c0.6,8.9,0.8,17.9-0.1,26.8c-0.1,1.6-0.2,3.2,0.1,4.8c0.4,2.4,0.8,4.7,1.1,7.1c1,6.7,1.7,13.4,1.3,20.1
		c-0.2,3.3-0.6,6.5-1.7,9.6c-0.6,1.6-1.3,3.1-2.3,4.5c-1.6,2.3-2.8,4.7-3.7,7.2c-0.5,1.4-0.9,2.8-1.2,4.2c-0.4,1.7-0.9,3.3-1.5,5
		c-1.3,3.9-2.7,7.6-4.5,11.2c-1.7,3.6-3.8,6.9-6.3,10.1c-1.2,1.5-2.1,3.1-2.8,4.9c-0.4,0.9-0.6,1.9-0.8,2.9
		c-0.9,5.1-1.2,10.2-0.7,15.3c1,11.1,3.3,21.8,6.5,32.4c2.1,6.9,5.9,12.7,10.8,17.9c3.4,3.6,7.3,6.7,10.3,10.2
		c0.7,0.9,1.8,0.6,2.2-0.6c0.2-0.5,0.2-1,0.4-1.4c0.4-1,0.7-2,0.8-2.9c0.2-1.8-0.2-3.5-1.4-5.3c-1.3-1.7-1.6-3.8-1.7-5.9
		c0-1.4,0-2.9-0.1-4.3c-0.2-3.2-1.2-6-3.8-8.4c-4.5-4.1-7.7-9.4-10.9-14.5c-0.7-1.2-1.2-2.6-1.6-4c-1.1-3.9-1.7-7.9-1.7-11.8
		c0-2.6,0.2-5.1,0.8-7.7c1.3-6.8,4-13.2,6.4-19.6c3.3-9,6.9-17.9,13.5-25.2c1-1.1,1.8-2.3,2.9-3.2c1.8-1.6,3.6-1,4.4,1.3
		c0.4,1.2,0.5,2.4,0.7,3.7c0.5,4,1.1,7.9,1.3,11.9c0.3,6.1,3.2,10.9,6.8,15.5c1,1.3,2.3,2.1,3.9,2.5c5.7,1.4,11.1,0.4,16.1-2.6
		c7-4.2,13.5-9.1,19.5-14.7c3.4-3.2,5.9-7,6.5-11.9c0.1-0.9,0.4-1.9,0.6-2.8c0.2-1.3,1-1.9,2.3-1.9c3.4,0,6.6-0.7,9.7-2.3
		c1.9-0.9,4-1.2,6.1-0.8c2.5,0.5,4.8-0.2,7-1.2c2-1,4-2,5.9-3.2c3.7-2.3,6.9-5.2,9.9-8.3c2-2,4.1-4,6.6-5.5
		c7.6-4.5,15.3-8.8,22.9-13.2c0.6-0.4,1.4-0.6,2.2-0.8c0.9-0.2,1.7,0,2.2,0.7c0.3,0.4,0.4,0.9,0.4,1.3c0,0.3-0.1,0.6-0.3,0.9
		c-0.9,1.3-1.9,2.6-2.9,3.8c-2,2.3-4.1,4.5-6.1,6.8c-4.7,5.7-8.7,11.9-12,18.5c-1.8,3.8-3.8,7.6-7.1,10.2c-4,3.1-6.1,7.1-8,11.6
		c-3.7,9-10.6,14.6-20.1,16.9c-1.7,0.4-3.4,0.8-5.2,0.2c-1.4-0.5-2.8-0.2-4.1,0.5c-5.6,3.1-11.2,6.1-16.7,9.4
		c-3.4,2.1-6.8,4.2-10.5,5.8c-2.4,1-4.5,2.4-6.5,4c-3.1,2.5-6.3,5-9.3,7.6c-4.9,4.2-9.1,9.1-12.5,14.5c-3.4,5.2-5.3,10.9-5.2,16.9
		c0,1.3,0.1,2.7,0.4,4.1c0.2,1.1,0.3,2.3,0.3,3.3c0,2.9-0.8,5.6-2.7,8.1c-2.6,3.5-3.4,7.3-3,11.3c0.1,1.1,0.3,2.3,0.6,3.4
		c1.4,5.6,3.2,11.1,6.6,15.9c0.3,0.5,0.9,0.9,0.7,1.7c0,0.2-0.1,0.4-0.3,0.7c-1.7-1.5-3.3-3-5.1-4.3c-1.3-1-2.5-3.3-4.3-2.2
		c-0.6,0.4-0.7,1-0.7,1.8c0.1,0.9,0.4,1.9,0.5,2.7c2.7,17.2,9.6,32.7,19.6,46.9c9,12.7,20.5,22.8,32.1,32.9c0.6,0.5,1.3,0.9,2,1.2
		c0.4,0.2,0.9-0.1,1-0.5c0,0,0,0,0-0.1c0-0.6-0.1-1.3-0.4-1.8c-1-2-2-3.9-3.1-5.9c-2.8-5.2-5.6-10.4-7.8-15.8
		c-0.1-0.3-0.2-0.6-0.4-0.9c2,1.4,3.5,3.2,4.9,5.1c5.2,7.3,11,14.1,15.4,22c3.4,6.1,8.2,11,13.9,15c4,2.8,7.2,6.3,10.3,10
		c4.4,5.3,8.9,10.5,13.4,15.7c2.7,3.1,5.8,6,9.6,7.8c5.5,2.6,11.1,5.1,16.8,7.1c5.6,1.9,11.4,3.2,17.1,4.7c0.6,0.2,1.3,0.3,1.9,0.3
		c0.3,0,0.7-0.1,0.9-0.3c0.1-0.1,0.1-0.2,0.1-0.3c0.1-0.4,0-0.8-0.2-1c-2.6-2.7-4.4-5.9-6.2-9.1c-0.7-1.1-1.6-2.1-2.2-3.2
		c-1.1-1.9-2.7-2.5-4.8-2.3c-2,0.1-3.9,0-5.8,0.1c-4.3,0.2-8.3-0.7-12.3-1.9c-6.1-1.9-11.3-5.2-15.3-10.3c-1.8-2.4-3.7-4.8-5.2-7.4
		c-2.2-3.8-4.9-7.1-8.2-10c-5-4.3-9.4-9.2-12.6-15c-1-1.7-2.1-3.3-4.1-3.9c-1.1-0.4-1.8-1.3-2.5-2.2c-1-1.3-2.1-2.5-3.2-3.6
		c-7.9-8.2-14.7-17.2-20.1-27.3c-1.5-2.9-3.2-5.5-5.4-7.9c-4.1-4.5-7.7-9.4-9.2-15.5c-0.6-2.5-1.8-4.8-3.3-6.9
		c-4.3-6-7.5-12.6-9.6-19.7c-0.5-1.7-1.2-3.3-1.9-4.9c-2.5-6.2-3.4-12.4-2.1-18.8c0.2-1.1,0.5-2.1,0.8-3.2c1.4-4.4,2.5-8.9,3.6-13.4
		c1.4-6.1,3.9-11.8,7.5-17c3.4-4.8,7.6-9,12.1-12.9c2.2-1.8,4.6-3.3,7.4-4.3c3.8-1.4,7.5-2.8,11.3-4.1c1.3-0.4,2.7-1,4.1-1.2
		c4.1-0.7,8.1-1.6,11.9-3.4c1.7-0.8,1.8-0.7,4.5,0.1c-0.2,0.1-0.3,0.3-0.5,0.4c-1.5,1.3-2.9,2.5-3.7,4.2c-1.6,3.3-4.4,5-7.9,5.6
		c-2.3,0.4-4.2,1.3-6,2.7c-6.9,5.2-13.4,10.8-18.9,17.6c-1.4,1.8-2.9,3.5-4.4,5.1c-6.3,6.5-9.1,14.3-10,22.7
		c-0.2,1.6-0.3,3.3-0.4,4.9c0,1.3,0,2.7,0.5,3.8c1.8,4.3,3.6,8.6,6.7,12.1c4.4,5,7.7,10.7,9.9,16.9c2.1,5.7,4.2,11.5,5.4,17.4
		c1.8,8.7,6.1,16.1,10.2,23.7c0.3,0.5,0.7,0.8,1.2,0.5c0.1-0.1,0.2-0.2,0.3-0.4c0.1-0.1,0.1-0.3,0.1-0.4c-0.2-3.8-0.5-7.7,0.1-11.5
		c0.5-2.9,0.3-5.6-0.8-8.4c-0.8-1.9-1.1-4.1-1.4-6.1c-0.5-2.9-0.8-5.8-1.2-8.6c-0.7-4.3-2.1-8.3-4.9-11.8c-2.6-3.3-4.9-6.8-7.1-10.3
		c-2.5-3.9-4.3-8.2-5.6-12.7c-1.3-4.6-1.5-9.1-0.7-13.5c0.6-3.5,1.8-6.9,3.5-10.2c2.2-4.5,5.4-8.3,9-11.8c3.2-3.1,7-5.1,11.1-6.5
		c0.9-0.3,1.9-0.5,2.8-0.6c3.7-0.4,7,1.6,8.3,5.1c0.6,1.5,0.7,2.8,0.4,4c-0.4,1.5-1.4,2.8-3.2,4.2c-1.1,0.8-2,1.6-2.5,2.8
		c-1,2.6-3,4.4-5.1,6.2c-1.2,1.1-2.5,2-3.7,3.1c-0.4,0.4-0.7,0.8-0.7,1.2c0,0.4,0.3,0.8,0.8,1.1c0.6,0.5,1.4,0.8,2,1.3
		c2,1.5,2.6,3.7,1.7,5.7c-0.3,0.6-0.7,1.3-1.2,1.8c-1.3,1.3-2.8,2.1-4.5,2.7c-1,0.4-2.1,0.7-3.2,1c-1.4,0.4-2,0.9-2.1,2
		c0,0.3,0,0.8,0.1,1.2c1.2,6.8,4.5,12.3,10.5,15.9c1.5,0.9,3.1,1.7,4.7,2.3c5.4,1.9,7.7,6,8.3,11.3c0.3,2,0.7,3.6,2,5.2
		c4.3,5.4,8.1,11.1,11.8,16.9c1.4,2.2,3.1,4.1,4.8,6c3.6,4,8.3,6.5,12.8,9.2c6.1,3.6,12.7,5.3,19.7,5.3c10.1,0.1,19.7-2.1,28.9-6.1
		c3.9-1.7,7.8-3.6,11.8-5.3c8.5-3.7,17-7.3,25.6-10.9c3.4-1.5,6.7-3.2,9.7-5.3c5.6-3.9,9.9-8.5,11.4-14.8c0.4-1.5,0.6-3.1,0.6-4.8
		c0-0.4,0-0.7,0.1-1c0.6-3.2,0.7-4.4-3.6-5.2c-0.3,0-0.6-0.1-0.9-0.2c-1.9-0.3-2.4-0.1-2.9,1.6c-2.4,8-7.6,13.6-15,17.1
		c-8.7,4.1-17.8,7.3-27.2,9.3c-3.7,0.8-7,2-10,4.3c-2.1,1.5-4.4,2.6-6.9,3.3c-4.6,1.3-9.2,2.5-13.8,3.9c-3.7,1.2-7.5,1.4-11.4,1.2
		c-4.7-0.2-8.6-2.2-12.1-5.2c-0.6-0.5-1-1.2-1.4-1.9c-0.2-0.3-0.2-0.6-0.2-1c0-1,0.8-1.8,1.8-1.8c1.3,0,2.6,0.1,3.8,0.3
		c4,0.8,7.9,0.8,11.9,0c3.7-0.7,7.3-1,11-0.2c1.6,0.4,3.1,0.2,4.6-0.6c1.9-1,4.1-1.8,5.9-3.1c5.8-4.1,12.4-6.5,19.2-8.4
		c5.3-1.5,10.3-3.5,15.3-5.7c6-2.6,10.9-6.8,15.9-10.7c0.7-0.5,1.3-1.3,1.9-2.1c0.4-0.5,0.6-0.9,0.7-1.3c0.3-1-0.1-1.8-1.4-2.6
		c-0.8-0.4-1.7-0.8-2.6-1.2c-1.1-0.5-2.1-0.4-3,0.6c-2.8,3.4-6.7,4.9-10.8,5.8c-3.4,0.8-6.7,1.9-10,3.2c-4,1.6-8,3.1-12.1,4.5
		c-7.9,2.6-16,4.3-24.4,4.5c-4.5,0.1-8.9-0.8-13.3-1.4c-2.9-0.4-5.6-1.4-8.1-2.9c-0.8-0.5-1.6-1.1-1.5-2.2l0,0
		c0.1-1.4,1.1-2,2.2-2.3c1.9-0.6,3.8-0.7,5.7-0.6c4.1,0.3,7.9,1.3,11.7,2.6c2.1,0.7,4.2,1.6,6.3,2.2c6.3,1.9,12.3,1.1,17.9-2.4
		c3.4-2.1,6.9-4.1,10.3-6.2c1.6-1,3.2-2.1,4.6-3.4c3.4-3,6.6-6.1,10.7-8c0.2-0.1,0.3-0.3,0.3-0.4c0.2-0.4,0.1-1-0.3-1.2
		c-2.3-1.2-4.6-2.4-6.9-3.4c-5.3-2.3-10.3-5.1-14.9-8.6c-10.9-8.2-15.4-19.3-13.3-32.8c0.2-1.1,0.4-2.1,0.6-3.2
		c1.6-8.1,4.2-15.8,7.6-23.3c1.3-2.8,3-5.3,4.6-7.9c5-7.9,12.2-12.6,20.7-15.6c4.6-1.7,9.4-2.9,14.2-4.3c4.2-1.2,8.4-1.8,12.8-1.8
		c5.4,0,10.9-0.1,16.3-0.1c3,0,6,0.3,9,0.9c6.3,1.4,12.4,3.3,18.3,5.7c8,3.3,14.2,8.6,17.7,16.7c1.6,3.7,3.4,7.3,5.1,10.9
		c2.3,4.8,3.2,9.8,2.9,14.8c-0.2,2.8-0.7,5.6-1.5,8.5c-3,9.7-7.5,18.7-12.8,27.3c-3,4.9-6.7,9.4-11.9,12.2c-0.3,0.2-0.5,0.4-0.8,0.6
		c-0.4,0.4-0.6,0.8-0.7,1.2c0,0.4,0.2,0.9,0.7,1.2c7.6,5.3,15.4,10.3,23.6,14.6c3.2,1.7,6.7,2.4,10.2,1.7c3.8-0.8,7.6-0.8,11.4-0.7
		c3.9,0.1,7.8-0.1,11.4-1.3c4.9-1.7,10-1.7,15.1-1.8c2.1-0.1,4.1-0.1,6.2-0.2c-0.1,0.2-0.2,0.3-0.4,0.5c-1.3,1.7-3.1,2.9-5.1,3.8
		c-1.4,0.6-2.6,1.2-3.9,1.9c-4.9,2.6-10.2,3.8-15.7,4c-6.2,0.3-12.4,0.1-18.6-1c-5-0.9-10-1.9-14.5-4.6c-0.8-0.5-1.7-0.8-2.6-1.2
		c-8.2-3.3-16.3-6.7-23.8-11.4c-2.7-1.7-5.5-1.4-8,0.6c-1.5,1.2-2.9,2.5-4.3,3.8c-1,0.9-1.5,1.5-1.6,2.2c-0.1,0.6,0.1,1.3,0.5,2.4
		c0.8,1.9,2,3.2,4.1,3.6c3.6,0.6,7,2,10.3,3.7c7,3.7,14.1,7.4,21.2,11.1c1.3,0.7,2.5,1.5,3.9,1.8c4.3,0.9,8.7,2,13.2,2.2
		c5.1,0.3,10.2,0.7,15.3,1c0.3,0,0.6,0,0.9,0.2s0.5,0.4,0.6,0.7s0,0.6-0.1,0.9c-0.1,0.1-0.2,0.3-0.4,0.3c-0.7,0.3-1.4,0.7-2.2,0.8
		c-4.1,0.8-8.2,1.5-12.3,2.1c-1.6,0.3-3.2,0.2-4.8,0c-14.4-2.1-27.9-6.6-39.7-15.6c-3.1-2.3-6.4-4.3-10.2-5.2
		c-2.5-0.6-4.7-1.9-6.5-3.8c-0.4-0.4-0.9-0.9-1.4-1.3c-1.3-1-3-0.3-3.4,1.2c0,0.1-0.1,0.3-0.1,0.4c-0.1,2,0,3.9,0,5.8
		c-0.1,6.9,3.4,11.4,9.2,14.5c1.5,0.9,3.2,1.4,4.9,1.9c7.2,2.1,14.1,5,20.7,8.7c2.8,1.5,5.8,2.8,8.6,4.3c10.2,5.2,21.1,8.2,32.4,9.8
		c7.3,1,13.8-0.7,18.9-6.1c4.5-4.7,9.7-8.3,15.5-11.1c1-0.5,1.9-1.1,2.9-1.7c6.9-4.2,12.1-9.9,15.5-17.2c1.8-4,4-7.9,5.7-12
		c0.3-0.6,0.5-1.3,0.7-1.9c0.3-0.7,0.5-1.4,0.8-2.1c2.4-5.3,6.1-9.2,10.9-12.6c3.1-2.2,4.5-3.6,5-5.1c0.6-1.7,0.1-3.5-0.4-6.7
		c-0.8-4.6-2.2-9-4.1-13.3c-1.6-3.6-2.6-7.3-1.3-11.2c1.1-3.3,0.2-3.7-2.9-4.6c-0.9-0.2-1.8-0.3-2.8-0.3c-2.5-0.1-5.1-0.1-7.6,0.6
		c-0.8,0.3-2,0.7-2.4-0.6c-0.1-0.2-0.1-0.4-0.1-0.5c0.1-0.7,1-1.1,1.6-1.6c0.3-0.2,0.8-0.5,1.2-0.7c5.9-3.1,12.1-4,18.6-2.9
		c4.4,0.8,8.2,2.5,10.6,6.6c0.6,1.1,1.7,1.9,2.7,2.7c3.5,2.8,5.6,6.6,7,10.7c1.1,3.1,1.1,6-0.3,8.8c-0.2,0.3-0.3,0.6-0.5,0.9
		c-1.1,1.9-2.2,3.8-3.1,5.9c-0.2,0.4-0.3,0.8-0.5,1.2c-0.1,0.1-0.1,0.3-0.2,0.4c-0.7,1.5-1.7,2.8-2.9,4c-0.8,0.8-1.4,1.6-1.9,2.7
		c-0.1,0.3-0.2,0.6-0.3,0.9c-1,3.7-1.1,7.2,1.1,10.6c0.8,1.1,1.2,2.3,1.9,3.4c2.6,3.7,3.4,7.8,2.7,12.3c-0.1,0.8-0.1,1.6-0.2,2.4
		c-0.5,6.1-1.7,11.9-3.8,17.4c-2.5,6.6-6.3,12.6-11.5,18c-4,4.2-7.6,8.6-10.4,13.6c-2.3,4-5.2,7.7-9.2,10.3
		c-1.4,0.9-2.2,2.3-3.1,3.6c-4.4,6.8-8.9,13.7-13.2,20.6c-2.9,4.8-6.4,9.1-9.9,13.5c-3.6,4.5-8.7,6.9-13.3,10
		c-0.4,0.2-0.8,0.5-1.3,0.5c-3.4,0.2-5,2.4-6.1,5.2c-0.8,2.1-2,4-3,6c-0.4,0.7-0.6,1.3-0.9,2c-0.1,0.2-0.2,0.5-0.2,0.7
		c-0.1,0.4,0,1.1,0.3,1.3s1,0.3,1.3,0.1c3.7-2.3,7.6-4.2,11.4-6.2c6.3-3.4,12.8-6.6,18.3-11.4c5.3-4.7,10.2-9.6,14.7-15.1
		c2.2-2.6,4.3-5.1,6.6-7.6c3.5-3.8,6.4-7.9,8.2-12.8c0.3-0.7,0.5-1.5,0.8-2.3c0.7-2.4,1.6-4.8,2.6-7c3.2-7.2,7.9-13.5,13.7-19.2
		c1.7-1.6,3.5-3.2,5.3-4.8c5.1-4.4,9.7-9.3,14.2-14.3c3.3-3.7,5.9-7.8,7.8-12.2c1.2-2.7,2-5.6,2.7-8.6c0.9-4.4,1-8.9,1.7-13.3
		c0.8-5.5,0.7-11.2,2.1-16.6c0.5-2.2,0.8-4.3,0.7-6.6c-0.1-3.3,0.4-6.4,1.7-9.4c0.1-0.1,0.1-0.3,0.2-0.4c0.4-0.9,0.7-1.7,1-2.6
		c3.1-8.2,4.5-16.8,5.5-25.4c1-9.4,0.1-18.5-4.5-27c-0.7-1.2-1.2-2.6-1.8-3.9c-1.1-2.7-1.3-5.1-0.3-7.7c0.2-0.5,0.4-1,0.7-1.5
		c1.8-3.5,3.3-7,4.4-10.6c2.5-8.4,3.2-17.1,2.1-26.1c-0.1-0.5-0.3-1.1-0.1-1.7c0.1-0.4,0.3-0.8,0.7-1.2c2.5,6.2,5.2,12.2,5.9,18.7
		c0.4,3.3,1.5,6,3.6,8.6c4.8,5.8,7.2,12.6,7.4,20.3c0.2,5.3,0.3,10.5-0.2,15.8c-0.1,0.6-0.1,1.4,0.7,1.5c0.3,0.1,0.9-0.3,1.1-0.6
		c1.1-1.5,2.4-3,3.3-4.7c0.7-1.3,1.4-2.6,2-3.9c4.5-9.6,6-19.8,4.5-30.4c-1.5-10.9-5.3-21.1-10.2-30.8c-2.7-5.4-6.2-10.3-11.2-14.1
		c-5.9-4.6-9.5-10.7-10.9-18.1c-1.5-8.2-2.1-16.5-1.8-24.8c0.1-2.1,0.3-4.2,0.8-6.2c0.8-3.2,0.2-5.9-1.4-8.7
		c-2.4-3.9-4.5-8-6.6-12.2c-4.2-8.5-7.6-17.3-8.3-26.9c-0.1-2.4-0.8-4.8-1.6-7c-2.9-8.3-5.9-16.6-7.7-25.2c-0.5-2.2-1.6-3.9-3.5-5
		c-5.1-2.9-10.4-4.9-16.4-3.6c-2.7,0.5-5.4,0.6-8.1-0.2c-5-1.6-9.4-4-12.7-8.2c-1.2-1.5-2.4-3-3.6-4.5c-2.8-3.6-6.1-6.5-10.3-8.4
		c-2.6-1.1-5-2.7-7.2-4.6c-3-2.8-6.5-3.1-10.3-2.2c-1.5,0.3-3,1-4.5,1.5c-1.5,0.6-3.1,0.9-4.7,1c-2.1,0.1-3.8-0.7-5.3-1.9
		c-0.8-0.6-1.2-1.5-1.1-2.5c0.1-1.1,0.3-2.2,0.7-3.2c0.5-1.3,1.3-2.5,2.4-3.6c2.3-2.3,4.8-4.3,7.4-6.1c7.2-4.9,14.8-5.8,22.8-2.5
		c4.1,1.6,8.3,3.3,12.4,5.1c1.8,0.8,3.7,0.9,5.6,0.9c0.8,0,1.4-0.2,1.8-0.7c0.3-0.4,0.4-1,0.2-1.8c-1-4.6-3-8.8-6.3-12.2
		c-1.6-1.6-3.2-3.2-4.6-4.9c-0.4-0.5-0.5-1.2-0.4-1.7c0.2-0.8,0.8-1.4,1.7-1.7c2.1-0.5,4.2-0.3,6.2,0.2c4.1,1,7.6,3.2,10.5,6.3
		c1.2,1.3,2.5,2.5,4,3.4c6.7,4.3,13.3,8.8,19.8,13.5c4.3,3.2,8.2,6.6,10.9,11.2c0.5,1,1.3,1.9,1.9,2.8c4,5.5,6.5,11.7,7.7,18.4
		c1,5.9,1.4,11.8,1.6,17.7c0.3,11.5,0.8,23,1.9,34.5c0.7,7.2,3.8,13.4,7,19.7c0.2,0.4,0.7,0.8,1.1,0.5l0.1-0.1
		c0.2-0.3,0.3-0.8,0.2-1.2c-0.5-3.3-1.1-6.6-1.6-9.9c-0.6-3.2-0.5-6.3,0.1-9.5c1.2-6.9,3.1-13.5,5.6-20c0.8-2.2,1.8-4.4,2.7-6.5
		c0.3-0.7,0.6-1.5,0.9-2.2c1.1-2.8,1.9-5.7,2.5-8.7c0.5-2.4,0.8-4.8,1.3-7.1c1.3-6.2,1.4-12.4,0.8-18.6c-1-10-5-18.4-13.1-24.7
		s-16.7-11.7-26.5-15.1c-1.9-0.6-3.9-1.4-5.8-2.2c-4.3-1.9-8.7-3.9-13-6c-2.8-1.4-5.3-3-7.4-5.3c-0.2-0.2-0.5-0.7-0.5-1
		c0-0.1,0-0.1,0-0.2c0.3-0.8,1-0.6,1.6-0.4c5.2,2,10.7,3.2,16.1,4.6c3.9,1,7.8,1.9,11.6,3c11.3,3.3,21.8,8.2,31,15.7
		c5.6,4.7,10.2,10.2,12.6,17.2c2.1,6.3,3.7,12.9,5.6,19.3c0.8,2.7,0.5,5.3-0.7,7.9c-0.1,0.1-0.1,0.3-0.2,0.4c0,0.1,0,0.1-0.1,0.2
		c-2.3,5.4-4.1,11-5.5,16.7c-0.9,3.9-1.7,7.9-1.2,11.9c0.8,6,1.8,12,2.7,18c0.2,1.1,0.6,2.2,1,3.2c0.2,0.4,0.8,0.8,1.1,0.2
		c0.8-1.3,1.4-1,2.2-0.1c3.2,3.8,7.4,6,12.1,7.3c4,1.1,8.1,2.2,12.2,2.6c6.8,0.7,13-1,17.5-6.7c5.6-7.2,10.8-14.6,14.1-22.9
		c1.5-3.9,2.7-8,3.2-12.4c0,0,0,0,0-0.1c0.1-0.4,0.3-0.8,0.9-0.7c0.2,0,0.5,0.3,0.6,0.6c1.4,5.9,3.3,11.7,3.6,17.8
		c0.5,9-0.9,17.8-4.1,26c-1,2.6-2.2,5.2-3.6,7.7c-3.7,6.6-7.2,13.2-9.9,20.2c-0.5,1.1-0.9,2.1-1.4,3.1c-2.6,5.5-5,11-7.1,16.7
		c-1.2,3.3-2.4,6.7-3.4,10.1c-0.7,2.6-1.7,5.2-2.7,7.7c0,0.1-0.1,0.1-0.1,0.2c-1.3,3.1-3.7,4.1-6.8,2.7c-3-1.2-4.9-3.5-6.3-6.3
		c-2.5-5-4.8-10.1-6.1-15.6c-1.2-5.2-3.4-9.9-6.3-14.4c-1.7-2.7-3.5-5.4-5.2-8.1c-3.4-5.2-6-10.8-8-16.8c-3-9-4.6-18.3-5.6-27.7
		c-0.1-1.1,0.2-2.3-0.8-3.1c-0.6,0.1-0.9,0.5-1.1,1c-0.1,0.3-0.2,0.5-0.2,0.8c-0.4,1.7-0.7,3.5-1,5.2c-1.2,5.9-1.1,11.7,0.6,17.5
		c3.2,10.8,6.2,21.5,9.3,32.3c2.2,7.9,5.9,15.2,9,22.7c2.4,5.9,5.3,11.6,8.4,17.2c2.5,4.3,5.2,8.4,8.7,12c1,1,2.1,1.9,3.2,2.8
		c0.8,0.6,2,0.4,2.5-0.5c0.8-1.4,1.6-2.8,2.3-4.2c2.6-5.2,5.1-10.4,7.5-15.7c0.1-0.2,0.1-0.3,0.2-0.5c0.7-1.5,1.4-3.1,2-4.6
		c0.6-1.4,1.2-2.9,1.8-4.3c0.1-0.3,0.3-0.6,0.4-0.9c0.7-1.6,1.3-3.1,1.9-4.7c0.1-0.2,0.2-0.5,0.3-0.7c0.6-1.6,1.3-3.1,1.9-4.7
		c0.1-0.2,0.2-0.5,0.3-0.7c0.7-1.8,1.4-3.6,2.1-5.4c0.1-0.1,0.1-0.3,0.2-0.4c2.3-5.8,5.3-11.2,9-16.3c3.7-5.2,7.3-10.5,10.7-15.9
		c1.4-2.2,2.6-4.4,3.6-6.7c4.9-10.7,6.2-22.2,5-34.3c-0.2-2.1-0.5-4.1-0.6-6.2c-0.2-5.4-1-10.8-1.7-16.2c-0.4-2.8-1.1-5.4-2.1-7.9
		c-1.2-3-2-6-2.1-9.3c-0.1-1.9-0.5-3.8-0.8-5.7c-0.5-3-2-5.2-4.5-7c-5.7-4.1-11.9-7.5-18-11c-9.4-5.3-17.7-12-24-20.9
		c-2-2.8-4.5-5.1-6.9-7.4c-2.9-2.8-6.2-3.9-10.1-2.8c-1.1,0.3-2.2,0.4-3.3,0.7c-6.5,2.1-13.2,2.8-19.9,2.9
		c-8.2,0.2-16.2-0.4-24.2-2.7c-14.8-4.2-29-9.9-42.5-17.4c-4.8-2.7-9.5-5.8-14.4-8.5c-5.6-3.1-11.1-2.8-16,1.5
		c-3.4,3-7.1,4.1-11.5,3.3c-6.4-1.1-12.7-0.5-18.8,2c-5.9,2.5-12.2,3.6-18.6,4.3c-12.5,1.4-25,3.3-37.7,3.2c-0.4,0-0.7,0.1-1,0.1
		c-6.4,0.6-12.8,0.5-19.2,0.7c-5.4,0.2-10.5-0.8-15.3-3.2c-4.1-2-8.3-2.1-12.6-1.1c-3.2,0.7-6.5,1.5-9.6,2.9
		c-3.3,1.4-6.8,1.7-10.3,1c-2.4-0.5-4.8-0.6-7.2-0.7c-5.5-0.1-10.8,1-16,2.7c-4.4,1.5-8.8,1.7-13.3,1c-4.6-0.8-9.2-1.3-13.8-1.9
		c-8.1-1-16.2-0.7-24.3,0.8c-4.2,0.8-8.4,1.7-12.8,1.4c-3.4-0.2-6.6,0.6-9.8,1.7c-9.5,3.4-17.7,9-24.6,16.2
		C345,70.8,339.3,77.4,333.9,84.1z M741.9,76.5c0.3-0.5,0.8-1,1.4-1.2c1.1-0.3,2.2-0.2,3.2,0.1c0.4,0.1,0.7,0.3,1.1,0.5
		c0.3,0.1,0.7,0.3,1,0.4c2,0.8,4,1,6.2,0.6c2.9-0.5,5.6-0.2,8.3,0.6c1.6,0.5,3.1,1.3,4.6,2.3c5.5,3.4,10,7.9,14.1,12.8
		c1.8,2.1,3.6,4,5.8,5.7c3.8,3,7.1,6.5,10.3,10c2.1,2.3,3.5,4.9,3.6,8.1c0.1,2.6-0.7,4.7-2.7,6.4c-0.4,0.3-0.7,0.6-1.1,0.9
		c-4.6,2.9-7.2,7.1-8.6,12.3c-0.4,1.4-0.9,2.7-1.4,4.1c-2.6,7.2-7.5,12.5-14.3,16c-4.7,2.5-9.8,3.9-14.8,5.4c-1.6,0.5-3,0.5-4.2,0.1
		c-1.6-0.5-3-1.7-4.3-3.2c-2-2.5-2.5-5.5-2.3-8.6c-0.2-3.2,0.5-6.3,1.8-9.3c1.9-4.6,3.5-9.2,4.9-14c2.1-7.2,3.2-14.4,2.8-21.8
		c-0.4-7.1-2-13.9-6.8-19.5c-1.7-1.9-3.5-3.8-5.7-5.1c-1-0.6-1.9-1.2-2.5-1.9C741.8,77.8,741.6,77.1,741.9,76.5z M303.4,259.8
		c-0.5-0.1-1.1-0.6-1.3-1.1c-0.1-0.2-0.2-0.5-0.2-0.7c0.1-0.4,0.2-0.9,0.4-1.3c1.8-2.9,2.3-6.2,3-9.5c1-4.9,2.2-9.7,5.4-13.7
		c0.7-0.9,0.7-1.8,0.3-2.6c-0.1-0.2-0.2-0.3-0.3-0.5c-0.7-0.9-1.3-1.9-1.9-2.8c-1-1.5-1.9-3.1-2.6-4.7c-2.4-5-3.6-10.4-3.7-16.1
		c-0.2-10.7,1.5-21.1,4.9-31.1c1.8-5.1,2.8-10.2,2.7-15.5c0-4.9,0.7-9.6,2.1-14.2c0.3-1,0.5-2.1,1.8-3.3c0,0.1,0,0.2,0.1,0.2
		c1.2,4.5,2.3,8.6,3.3,12.7c0.8,2.7,1.8,5.3,3.1,7.7c2.1,3.9,4.9,7.3,8.3,10.3c2.5,2.2,5.1,4.3,7.7,6.5c0.5,0.4,0.7,0.7,0.8,1.1
		c0.2,0.5-0.2,1-1,1.5c-1.9,1.2-3.7,2.5-5.4,4c-3.1,2.8-5.1,6-5.8,10.2c-1,5.9-1.5,11.6-0.4,17.6c0.9,4.5,1.8,8.8,3.6,12.9
		c1.6,3.6,1.1,6.8-2.1,9.4c-1.3,1.1-2.1,2.4-3,3.7c-2.3,3.3-4.6,6.5-7,9.7c-2.9,3.8-6.6,6.4-10.6,8.9
		C305,259.5,304.3,259.9,303.4,259.8z M344.8,287.3c-0.5,0.9-1.2,1.7-2.1,2.4c-1,0.8-1.9,1.7-2.9,2.5c-0.6,0.5-1.1,0.9-1.7,1.4
		c-1.5,1.4-2.8,2.9-3.9,4.7c-1.2,1.8-2.6,3.4-4.1,4.9c-0.5,0.5-1,1-1.6,1.4c-4.9,4.1-10.7,3.6-14.9-1.2c-2.9-3.3-3.9-7.3-3.4-11.6
		c0.5-3.7,0.3-7.2-0.1-10.9c-0.8-6.5,1.5-12.2,6-17c0.4-0.4,0.8-0.8,1.2-1.2c0.1-0.1,0.3-0.3,0.4-0.4c0.3-0.3,0.6-0.6,0.9-0.9l0,0
		c2.2-2,4.7-3.8,7-5.7c0.4-0.3,0.8-0.7,1.3-1c3.4-2.8,7.2-2.4,10.4,0.6c0.8,0.7,1.7,1.6,2.1,2.6c2.3,5.4,5.4,10.5,5.3,16.7
		c0,2.5,0.6,5.1,0.9,7.6C345.9,284.1,345.6,285.8,344.8,287.3z M365.4,251.6c-0.9,5-4.7,7.3-9.8,6.7c-6.9-0.9-14.6-9.1-14.3-18.5
		c0-1.2,0-2.5,0.6-3.7c0.4-0.7,1-1,1.7-0.9c0.2,0,0.5,0.1,0.7,0.2c1.1,0.6,1.9,1.6,2.6,2.7c2.5,4.2,6.5,6,11,6.9
		c1.5,0.3,3.1,0.6,4.6,1.2c0.7,0.3,1.3,0.7,1.8,1.2c0.1,0.1,0.2,0.2,0.3,0.3l0,0c0.5,0.6,0.8,1.3,0.9,2.1c0,0.1,0,0.2,0,0.3
		c0,0.2,0,0.3,0,0.5C365.5,251,365.5,251.3,365.4,251.6z M418.1,245.4c-0.3,0.5-0.7,1-1.2,1.5c-6.6,7.5-6.6,7.5-14.5,13.1
		c-4.6,3.2-9.3,6.3-13.8,9.6c-4.3,3.1-9.2,4.3-14.2,5.4c-1.5,0.3-2.6-0.1-3.6-0.9c-0.3-0.3-0.6-0.6-0.8-1c-1.6-2.2-2.3-4.6-2.3-7.7
		c0-1.4,0-2.9,0.6-4.2c1-2.1,2-4.3,2.7-6.6c0.7-2.6,3-3.5,5.5-4c3.7-0.7,7.5-1.4,11.3-1.9c5.9-0.8,11.7-1.7,17.3-3.9
		c3.1-1.3,6.5-1.9,9.7-2.7c0.4-0.1,0.9-0.1,1.4-0.1c0.7,0,1.2,0.3,1.6,0.7C418.5,243.4,418.7,244.5,418.1,245.4z M416.9,233.1
		c-2.9,1.4-6,2.1-9.1,2.8c-1.5,0.3-3.2,0.4-4.6,1.1c-2.3,1.1-4.6,1.9-7,2.5c-0.4,0.1-0.8,0.2-1.2,0.3c-3.7,0.9-7.5,1.6-11.2,2.5
		c-0.9,0.2-1.8,0.2-2.2,0.2c-0.1,0-0.1,0-0.2,0c-8-0.4-14.3-2.5-19.2-8.1c-2-2.3-4.3-4.2-6.4-6.4c-1.9-2.1-3.8-4.3-5.7-6.4
		c-3.4-3.7-4.6-8.3-5.5-13.1c-0.3-1.9,0.3-3.5,1.5-4.9c1.1-1.3,2.5-2.4,4.1-3.2c9.7-5,19.6-9.4,30.1-12.3c1.9-0.5,3.7-0.8,5.6-0.8
		c3-0.1,5.9,0.3,9,1.1c11.2,3.2,17.7,11,22,21.1c1.6,3.6,2.5,7.5,2.4,11.6c-0.1,2.1,0.4,4.1,0.7,6.2
		C420.4,230,419.3,231.9,416.9,233.1z M421,199.2c0,0-0.1,0-0.1,0.1c-0.1,0-0.1,0-0.2,0.1c-0.4,0.1-0.9,0-1.3-0.2
		c-3.5-1.5-6.9-3.3-9.1-6.7c-0.8-1.2-1.7-2.3-2.6-3.5c-3.3-4.1-7.6-6.3-12.8-6.5c-2.4-0.1-4.8,0-7.2,0c-1.9,0-3.9,0.1-5.7-0.3
		c-3.7-0.9-7.3,0-10.9,0.7c-1,0.2-1.9,0.5-2.8,0.9c-1.2,0.5-2.4,1.1-3.5,1.9c-1.2,0.8-2.5,1.7-3.7,2.5c-0.3,0.2-0.6,0.4-0.9,0.6
		c-1.2,0.8-2.5,1.7-3.7,2.5c-0.9,0.6-1.8,1.1-2.8,1.6s-2,0.9-3.1,1.1c-5.4,1.2-8.9-2.4-7.1-7.7c0.5-1.7,1.3-3.3,2-4.9
		c0.9-1.9,0.9-3.5-0.6-5.3c-2.5-3-2.4-6.5-0.6-9.9c0.5-1,1.2-1.8,1.9-2.4l0,0c0.1-0.1,0.2-0.2,0.3-0.2c1.6-1,3.5-1.1,5.6-0.4
		c2.4,0.9,4.6,2.1,6.5,3.9c1.5,1.4,3,2.4,5.1,2.4c1.3,0,2.5,0.6,3.4,1.5c1.5,1.5,3.3,1.7,5.3,1.7c3.1,0,6.1-0.4,9-1.4
		c5.5-1.8,10.8-1.5,16.5-0.2c6.8,1.5,12.5,4.9,18.4,8c3.5,1.8,6.3,4.4,7.8,8.1c0.7,1.6,1.2,3.3,1.2,5
		C425.4,195.5,423.6,197.6,421,199.2z M379.5,156.1c0.2,0.3,0.3,0.5,0.4,0.7c0.3,0.9-0.1,1.9-0.8,2.8c-1.5,2.1-3.2,3.6-6,3.2
		c-0.8-0.1-1.6,0-2.4,0v0.1c0,0.1,0,0.1,0,0.2c-1.7-0.1-3.5,0-5.2-0.4c-2.7-0.6-4.3-2.3-4.4-4.3c-0.1-1.2,0.4-2.6,1.5-3.9
		c2.2-2.7,4.8-4.8,8-6c4.1-1.6,8.1-3.1,11.6-5.7c0.3-0.2,0.6-0.3,0.9-0.3s0.6,0.1,0.9,0.2c0.6,0.4,0.6,1.1,0.6,1.7
		c-0.1,2.4-0.7,4.7-2.8,6.3c-0.7,0.6-1.4,1.3-2,2c-0.6,0.6-0.9,1.3-0.9,2.1C379,155.2,379.1,155.6,379.5,156.1z M414.6,149.1
		c0.6-0.1,1.3-0.1,1.9,0c9.2,1.2,17.4,4.2,23.3,11.8c2.2,2.9,3.7,6,3.5,9.6l0,0c0,3.1-0.6,5.8-1.8,8.5c-1.6,3.5-3.6,4.5-7.3,3.8
		c-2-0.4-4.1-1-6.1-1.3c-3.2-0.5-5.5-2.3-7.3-4.9c-0.5-0.8-1-1.6-1.5-2.4c-1.3-2.3-3.2-3.9-5.8-4.7c-3.6-1.1-6.1-3.4-7.9-6.6
		c-1.5-2.7-2.2-2.8-5-2.1c-2.6,0.6-4.9,2.1-7.2,3.6c-1.5,1-2.7,1.1-2.8,0.3c-0.1-0.3-0.1-0.6,0-0.9c0.2-0.6,0.6-1.1,1-1.6
		c1.3-1.6,2.7-3.1,4.1-4.7c1.8-2.1,4-3.7,6.5-4.8C406.2,150.9,410.4,150,414.6,149.1z M408.5,126.4c0-0.5,0.2-1.2,0.6-2
		c0.8-1.4,1.9-2.6,3.2-3.5c4.3-2.8,8.5-5.7,12.8-8.5c5.6-3.6,12-5.4,18.5-6.3c9-1.2,19.3,4.8,20,16c0.1,2,0.3,4,0.6,6.1
		c0.5,3.4,1.3,6.7,2.3,9.9c1.1,3.5,1.3,7.2,1.6,10.8c-0.3,4.7-0.8,9.3-2.8,13.6l0,0c-0.6,1.3-1.4,2.5-2.3,3.6l0,0
		c-0.7,0.9-1.7,1.2-2.5,1.1c-0.9-0.1-1.7-0.7-2.2-1.7l0,0c-0.6-1.2-0.8-2.5-1.1-3.6c0,0,0,0,0-0.1c-0.6-2.7-1-5.4-1.6-8
		c-2.1-8.7-7.3-14.5-16-16.8l0,0c-3.2-0.8-6.5-1.6-9.7-2.6l0,0l0,0c-6.4-1.9-12.8-4-19.2-6l0,0c-0.9-0.3-1.5-0.6-1.8-1.1
		C408.6,127.1,408.5,126.7,408.5,126.4z M430.9,231.5c-0.2-0.1-0.4-0.2-0.7-0.3c-0.3-0.1-0.6-0.3-0.9-0.4c-0.5-0.2-0.9-0.5-1.4-0.9
		c-2.5-1.9-3.1-4.5-1.6-7.2c0.6-1,1.3-1.8,2-2.7c1-1.2,2-2.5,3.1-3.6c2.9-2.9,4.1-6.5,4.4-10.4c0.1-0.6,0.1-1.3,0.2-1.9
		c0.3-1.6,1.2-2.6,2.5-3c0.2,0,0.4-0.1,0.6-0.1c0.1,0,0.1,0,0.2,0c0.5,0,1.1,0,1.8,0.2c1.2,0.4,2.3,1,3.4,1.7
		c0.8,0.5,1.6,0.7,2.3,0.6c0.7-0.1,1.5-0.4,2.2-0.8c2.4-1.5,4-3.5,4.6-6.4c0.9-4.4,2.8-8.5,4.6-12.6c1-2.3,2.5-4.4,4.8-5.8
		c0.5-0.3,0.9-0.5,1.4-0.6c3.4-0.9,7.3,1.5,7.4,5.1c0.1,1.3-0.1,2.6-0.4,3.8c-1.8,8.5-5.9,15.8-12.2,21.8c-2,1.9-4,3.7-5.2,6.2
		c-0.7,1.5-2,3.2-0.6,4.9c0.7,0.9,1.4,1,2.1,0.9c0.9-0.2,1.7-0.9,2.6-1.3c0.2-0.1,0.3,0,0.5,0s0.4,0,0.7,0
		c0.8,7.5-0.2,14.6-4.2,21.1c-0.9,1.5-2.2,2.7-3.7,3.7c-1.6,1.1-3.1,1.7-4.4,1.9c-3,0.5-5.3-1-7.6-4.6c-0.5-0.9-1-1.9-1.6-2.9
		C436.1,235.1,434,232.8,430.9,231.5z M397.1,312.2c3.6-5.7,7.4-11.2,11.1-16.8c1.9-3,4.1-5.7,6.7-8.1c2.5-2.3,4.7-4.8,6.4-7.7
		c1-1.8,2.5-3.3,4.1-4.7c0.5-0.4,0.9-0.5,1.2-0.5c0.6,0.1,1.1,0.7,1.4,1.7c0.4,1.3-0.1,2.2-0.9,3c-3.5,3.5-5.8,7.7-7.3,12.3
		c-0.4,1-0.9,2.1-0.9,3.2c-0.1,4.7-1.8,9-3,13.5c-0.4,1.6-0.8,3.1-1,4.7c-0.3,2,0.1,3.8,2,5c0.4,0.3,0.8,0.6,1.1,0.9
		c1.6,1.5,1.6,3.1,0,4.5c-0.9,0.9-2,1.6-3.1,2.2c-4.9,2.6-8.5,6.6-11.8,11c-1.1,1.4-2,3-3.2,4.2c-1,1.1-2.2,1.6-3.2,1.7
		c-1.7,0.1-3.2-1.2-4-3.5c-0.3-1.1-0.6-2.2-0.7-3.3c-0.2-1.9-0.3-3.8-0.4-5.7C390.9,323.1,393.7,317.5,397.1,312.2z M384,360
		c1.2-1.2,2.7-1.6,4.4-1.5c8.5,0.4,14.2-4.1,18.6-10.7c0.3-0.5,0.6-0.9,0.8-1.4c0.5-0.9,1-1.8,1.5-2.7c0.2-0.4,0.5-0.9,0.8-1.3
		c4-6.9,10.3-11.2,17.3-14.6c1.2-0.5,2.5-0.8,3.7-1c0.6-0.1,1.2,0,1.8,0.4c0.2,0.1,0.4,0.3,0.5,0.5c0.5,0.8,0.3,1.6-0.2,2.2
		c-0.9,1.1-1.9,2.2-3,3.1c-3.3,2.5-5.6,5.7-7.3,9.4c-1.4,2.9-3.2,5.5-4.2,8.6l-3.2,18.4c-0.9,4.1-2.4,8-4.9,11.4
		c-2.2,3.1-4.5,6.1-6.8,9.2c-1.1,1.4-2.5,2.5-4.2,3.1c-1.5,0.5-2.9,0.4-3.9-0.3c-0.1-0.1-0.3-0.2-0.4-0.3l-0.1-0.1
		c-0.7-0.6-1.2-1.5-1.4-2.5c-0.1-0.4-0.2-0.9-0.2-1.4c-0.2-2.9-1.4-5.2-3.4-7.2c-1.7-1.7-3.1-3.6-4.5-5.6c-2.3-3.3-3.2-6.9-3.2-11
		C382.4,363.1,382.6,361.3,384,360z M450.4,403.8c1.6,0.7,3.3,1.2,4.8,2.1c3.8,2.2,4,5.9,0.7,8.6c-1.5,1.2-3.1,2.3-5,2.8
		c-6.8,1.7-13.3,4.3-20.3,5.5c-1.2,0.2-2.4,0.4-3.6,0.5c-1.1,0.1-2.2,0.2-3.3,0.2c-0.1,0-0.2,0-0.2,0c-6.5,0.2-12.3-2-18.2-3.9
		c-1.1-0.3-2.1-0.8-3.2-1c-0.1,0-0.2,0-0.4,0l0,0c-0.7-0.2-1.3,0.4-1.2,1.1c0.2,2.1,1,4.1,1.7,6c1.1,3,1.3,5.9,0,8.9
		c-1.6,3.9-4.7,6.1-8.4,6.2c-1.2,0-2.4-0.2-3.7-0.7c-4.9-1.8-8.5-5.2-10.5-9.9c-1.6-3.7-2.8-7.5-4-11.3c-0.9-2.9-1.6-5.8-2.7-8.7
		c-1.4-3.5-1.7-7.1-0.4-10.8c1-2.7,2.7-4.7,5.3-5.9c1.2-0.6,2.3-0.8,3.4-0.7c1.6,0.2,3,1.3,4,3c0.7,1.4,1.2,2.9,1.8,4.4
		c0.7,2,2.2,2.9,4.1,2.8c0.3,0,0.5,0,0.8,0c4-0.4,7.9-0.9,11.7-2.4c2.3-0.9,4.2-2.2,5.7-4.3c2-2.7,4.3-5.1,7.2-7
		c2-1.3,3.1-3.1,3.8-5.3c0.7-2.3,1.5-4.5,2.5-6.7c1.2-2.9,3.1-5.2,5.7-7c1.4-1,2.8-1.3,4.1-1.2c1.5,0.3,2.9,1.4,3.9,3.3
		c0.5,0.8,0.8,1.8,1,2.7c1.1,4.8,2.3,9.6,2.1,14.6c0,1.4,0.1,2.9,0.2,4.3c0.3,3.3,1.9,5.7,4.4,7.2
		C446.2,402.2,448.3,402.9,450.4,403.8z M442.6,295.6c-2,1.7-3.2,3.8-3.8,6.4c-0.2,0.8-0.4,1.7-0.6,2.5c-0.1,0.4-0.2,0.8-0.4,1.2
		s-0.3,0.8-0.5,1.2c-0.7,1.7-2.1,2.7-4.1,2.7c-0.2,0-0.3,0-0.5,0c-0.6,0-1.2,0-1.7,0c-3.6-0.1-4.7-1.8-4.5-7.1
		c0.8-6.4,2.7-13.5,7.2-19.8c0,0,0,0,0-0.1c1.3-1.8,2.6-3.6,4-5.4c2.6-3.5,4-7.3,3.8-11.6l0,0c0-0.4,0-0.8,0-1.2
		c0.2-2.7,1.4-5,2.9-7.2c2.6-4,7.6-3.4,10.1-1.3c0.4,0.4,0.9,0.8,1.2,1.2c0,0,0,0,0,0.1c0.3,0.4,0.6,0.7,0.9,1.1
		c0.1,0.2,0.2,0.4,0.4,0.5c0.1,0.2,0.2,0.4,0.4,0.6c0.2,0.3,0.4,0.7,0.5,1c0.2,0.3,0.3,0.7,0.4,1c0.2,0.6,0.4,1.2,0.6,1.8
		c0.6,2.2,0.9,4.4,0.9,6.7c0.1,1.7,0.4,3.1,1.6,4.4c0.6,0.6,1,1.3,1.3,2c0.6,1.2,0.9,2.3,0.9,3.4c0,0.5,0,1-0.1,1.4
		c-0.1,0.3-0.1,0.6-0.2,0.9c-0.1,0.4-0.3,0.8-0.5,1.1c-0.3,0.5-0.6,0.9-1,1.4c-0.5,0.5-1,1-1.6,1.4l0,0c-1.6,1.1-3.4,1.6-5.2,2.3
		l0,0l0,0C450.4,290.1,446.3,292.4,442.6,295.6z M557.8,309.1c-0.4,0.4-1,0.7-1.6,1c-1.8,0.7-3.7,1-5.6,0.6
		c-2.2-0.5-4.3-1.3-6.3-2.4c-3.5-1.8-7.1-3.7-10.7-5.5c-7.6-3.7-15.6-5.5-24.1-5.1c-3.5,0.2-7,0.8-10.4,1.7
		c-12,3.1-23.5,7.3-33.9,14.1c-0.7,0.4-1.4,0.8-2.1,1.2c-2.3,1.1-4.6,1.6-6.8-0.1c-2.3-1.8-3.5-4.2-3-7.1c0.4-2.2,1.1-4.2,2.1-6.1
		c0.5-0.9,1.2-1.8,1.9-2.7c0.2-0.2,0.3-0.4,0.5-0.6c0.8-0.9,1.6-1.7,2.4-2.6c0.8-0.8,1.7-1.6,2.6-2.4c0.5-0.4,1-0.9,1.4-1.4
		c3.1-3.1,5.3-6.8,6.8-11c1.5-4.1,1.7-8.1,0.4-12.2c-0.5-1.7-1-3.4-1.7-5c-3.6-8.6-1.3-16.3,3.4-23.6c0.1-0.1,0.1-0.1,0.2-0.2
		c2.9-2.6,2.9-6,2.5-9.5c-0.2-2-0.1-4.1-0.2-6c-1.5-0.5-2.3,0.6-3.3,0.9c-2.4,0.6-4.5-0.4-5.3-2.8c-0.6-1.6-0.3-3.1,0.2-4.7
		c0.5-1.4,1-2.7,1.6-4c1.3-2.5,2.8-5,4.5-7.3c0.2-0.3,0.4-0.5,0.6-0.8c1.3-1.8,2.8-3.5,3.5-5.7c0.3-0.9,0.8-1.7,1.5-2.3
		c0.2-0.2,0.5-0.4,0.7-0.6c0.7-0.4,1.2-0.9,1.6-1.5c1.1-1.6,1.1-3.4,0.5-5.4c-0.6-2.1-1.4-4.2-2.4-6.3c-1.3-2.8-2.2-5.7-2.7-8.7
		c-0.4-2.2-0.3-4.5,0.4-6.6c0.7-2.4,2.2-4.3,4.1-5.4c1.8-1.1,4.1-1.5,6.5-1.2c4.5,0.7,8.1,2.9,10.8,6.5c1.9,2.6,3.7,5.3,4.8,8.3
		c0.4,1,0.9,2,1.4,3c0.7,1.2,1.6,1.5,2.7,0.6c1-0.7,2-1.6,2.9-2.5c6.1-5.9,12.6-4.3,17.1,2c2.3,3.2,3.3,6.9,3.5,10.8
		c0.2,4.3,1.5,8.5,2.2,12.7c0.3,1.7,1.3,2.9,2.2,4.2c2.3,3.4,4.7,6.9,7,10.3c2.4,3.5,3.8,7.4,4,11.6c0.2,2.5,0.9,4.6,2.7,6.4
		c2.5,2.6,3.8,5.9,5,9.2c2,5.7,3.2,11.5,2.3,17.8c-1.1,7.6-1.7,15.2-3.6,22.7c-1,3.9-0.2,7.5,2.1,10.9c1,1.6,2.1,3.2,3,4.9
		c0.6,1,1,2,1.2,3.2C559.5,306.3,559,308,557.8,309.1z M477,131.7c1.5-2.2,2.2-4.5,2.4-7.1c0.3-4.3,1.3-8.4,3.6-12.2
		c0.3-0.4,0.5-0.7,1.1-0.8h0.1c1.3,3,1.7,6.3,1.8,9.6c0,2.1,0.1,4.1,0.1,6.2c0.1,3.3,0.6,6.6,1.7,9.8c0.5,1.3,0.9,2.7,1.3,4.1
		c0.2,1.3,0.3,2.6,0.1,3.8c-0.5,3.1-2.7,5.1-5.3,5.5c-1.4,0.2-3,0-4.5-0.8c-2.9-1.5-4.5-4-4.9-7.2C474,138.7,474.7,134.9,477,131.7z
		 M499.5,129.1c-0.6-5.9-1-11.8-1.4-17.7c-0.3-5-1-9.9-1.3-14.8c-0.4-6.3-0.1-12.7-0.1-19.1c0-0.1,0.1-0.2,0.1-0.2
		c0.1-0.1,0.3-0.3,0.5-0.4c0.3-0.1,0.7,0.1,0.8,0.3c1.1,1.6,1.3,3.5,1.7,5.4c0.7,3.6,1.4,7.2,1.9,10.8c0.8,5.8,2.7,11.3,5.9,16.1
		c5.6,8.5,8.1,17.9,9.2,28.2c0.7,5.1,0.3,10.1-1.7,15c-0.7,1.9-1.2,3.9-1.8,5.9c-0.3,0.9-0.5,1.8-1,2.7c-0.2,0.4-0.4,0.8-0.7,1.2
		c-1.9,2.5-5,2.6-7,0.3c-0.6-0.7-1.1-1.6-1.4-2.5c-2.7-7-3.6-12.1-3.3-20.3C500.3,136.7,499.9,132.9,499.5,129.1z M549.6,162.5
		c1.6,4.1,2.5,8.3,3,12.6c0.7,5.3,1.8,10.4,3.2,15.5c0.7,2.1,1,4.3,0.8,6.6c-0.4,3.9-3,6.2-6.3,6.2c-1.1,0-2.3-0.3-3.5-1
		c-3.2-1.8-5.4-4.5-6.9-7.8c-1.8-4-2.8-8.2-3.1-12.6c-0.2-4,0-7.9,0.8-11.9c1-5.3,2.5-10.6,4.3-15.7c1.3-3.7,3.1-7.3,6-10.8
		c0,0.1,0.1,0.2,0.1,0.2c0.6,1.4,0.1,2.2,0,3.1C547.4,152.2,547.6,157.4,549.6,162.5z M559.6,219c0.3-6.1,1.5-11.5,4.4-16.4
		c3-5.1,8-7.6,13.5-9.1c0.2,0,0.3-0.1,0.5-0.1c1.7-0.2,3.4,0.4,4.8,1.4c2,1.4,2.7,3.5,1.8,5.9s-2,4.7-3.5,6.8
		c-2.2,2.9-4,6.1-5.1,9.7c-0.8,2.6-2.1,5-3.7,7.2c-1.1,1.5-2.4,2.5-4.1,3.1c-0.2,0.1-0.5,0.2-0.7,0.2c-3.8,0.8-7.2-1.4-7.7-5.3
		C559.6,221.1,559.6,219.8,559.6,219z M600.4,226.2c-1.5-0.6-3-1-4.6-1.1c-1.5-0.2-3.1-0.4-4.7-0.7c-1.1-0.3-2.1-0.8-2.8-1.5
		c-1.2-1.3-1.8-3.1-1.2-5c0.4-1.6,1.2-3,2.1-4.3c1-1.3,1.9-2.6,2.8-3.9c1-1.3,1.5-2.7,1.7-4.4c0.7-5.6,3-10.7,5.1-15.9
		c0.7-1.8,2-3.3,3.6-4.4c5-3.5,10.5-6.1,16.8-6.1c2.3,0,4.5,0,5.9,0c7-0.7,12.9,0.4,18.7,2.5c4.2,1.5,7.6,3.8,10.2,7.2
		c0.3,0.5,0.7,0.9,1,1.4c1.9,3,4.1,5.7,6.1,8.6c1.9,2.9,1.8,4-0.3,6.9c-4.7,6.5-10.4,12.1-15.9,17.9c-1.4,1.5-3,2.9-4.6,4.2
		c-3.7,2.9-8,4.5-12.8,4.6c-5,0.1-9.9-0.4-14.8-2C608.6,228.9,604.4,227.9,600.4,226.2z M609,250.5c-1.4,2-3.3,3.5-5.5,4.6
		c-3.6,1.8-7.4,3-11.5,3.2c-2.3,0.1-4.5-0.3-6.4-1.6c-5.1-3.4-8.9-7.7-10-14c-0.2-0.9-0.2-1.8-0.2-2.6c0-2.5,0.8-4.6,3.1-6.4
		c0.4-0.3,0.7-0.7,1.4-1.5c2.7,4.1,6.3,5.4,10.6,5.1c3-0.2,5.2,0.9,7,3.3c1.2,1.5,2.5,2.9,3.9,4.2c1.9,1.8,4.2,2.9,6.8,3.5
		c0.5,0.1,0.9,0.4,1,0.8C609.4,249.5,609.3,250,609,250.5z M622.8,165.2c-0.2,0.8-0.9,1.3-1.7,1.5c-1.4,0.3-2.8,0.7-4.2,0.8
		c-4.5,0.2-8.2,2.1-11.7,4.8c-2.5,2-4.9,4.1-6.8,6.7c-0.1,0.2-0.3,0.3-0.4,0.5c-0.5,0.6-1.1,1.1-1.8,1.3c-0.5,0.2-1.1,0.3-1.8,0.4
		c-3.4,0.2-6.5,1.5-9.5,3.1c-2.8,1.6-5.5,3.2-8.3,4.8c-1.4,0.8-2.3,0.8-2.9,0.2c-0.3-0.4-0.5-1-0.6-1.8c0-0.5-0.1-1-0.1-1.6l0,0
		c0.1-0.8,0.1-1.8,0.4-2.7c3.1-11,9.8-18.9,20.5-23c4.2-1.6,8.5-1.6,12.7-0.1c3,1.1,6,1.8,9.3,1.6c1.9-0.2,3.8,0.4,5.5,1.3
		c0.7,0.4,1.4,0.9,1.4,1.8C622.8,164.9,622.8,165.1,622.8,165.2z M572.8,303.7c-0.2-0.3-0.5-0.6-0.7-0.9c-0.1-0.1-0.1-0.1-0.2-0.2
		c-1.9-2.2-4.1-4-6.4-5.8c-0.1-0.1-0.2-0.1-0.3-0.2l-0.1-0.1c-0.5-0.3-1-0.6-1.5-0.9c-0.4-0.3-0.8-0.5-1.1-0.7
		c-2.6-2-2.6-3.6-0.4-6.6c1.1-1.3,2.2-2.7,3.4-4c1.6-1.8,2.4-3.8,2.9-6c1.7-6.7,1-13.3-0.4-19.9c-0.2-1.3-0.5-2.5-0.7-3.8
		c0-0.2,0.1-0.3,0.3-0.9c0.1,0.1,0.2,0.1,0.3,0.2c2.1,1.4,3.9,2.6,5.6,3.8c2.7,1.9,4.7,4.4,5.7,7.5c1.2,4,2.5,8,3.4,12
		c1.1,4.7,1.4,9.5-1.2,14c-0.6,0.9-0.4,1.8,0.3,2.6c2.7,2.9,4,6.4,4.9,10.2c0.4,1.9,1.1,2.8,2.3,3.1c0.7,0.2,1.5,0.1,2.6-0.1
		c0.2,0,0.3-0.1,0.5-0.1c3.9-1,5.5-0.9,5.2-6.3c-0.1-1.1,0-2.2,0.2-3.3c0.3-1.5,1.5-2.2,2.9-1.6l0,0c3.8,1.7,7.7,3.7,9.8,7.4
		c2.5,4.4,6,8.1,8.4,12.7c1.5,2.8,2.6,5.8,3.3,8.9c0.8,3.4,1.1,6.9,2.5,10.2c1.7,4.1,3.6,8.1,5.5,12.2c0.8,1.7,2.1,2.8,3.6,3.7
		c0.5,0.3,1,0.6,1.5,0.8c0.1,0.1,0.2,0.1,0.3,0.2c0,0,0.1,0,0.1,0.1c0.2,0.1,0.4,0.2,0.6,0.3c1.7,0.7,3.6,1.2,5.1,2.5
		c1.1,0.9,1.2,1.9,0.2,2.8c-2,2.1-4.5,2.3-7.1,1.6c-0.6-0.2-1.2-0.3-1.7-0.5c-4.2-1.3-8-3.4-11.1-6.7c-2-2.1-3.8-4.3-5.5-6.6
		c-4-5.5-8.7-10.3-13-15.4c-2.2-2.7-5.2-4.6-8-6.8c-0.7-0.6-1.6-1-2.5-1.2c-0.3-0.1-0.7-0.2-1-0.2c-1.3-0.1-2.5-0.3-3.8-0.4
		c-1.1-0.1-2.1-0.3-3-0.7c-2.9-1-5.1-3.2-6.7-6.1c-0.7-1.4-1.4-2.9-1.8-4.4C575.3,307.7,574.2,305.6,572.8,303.7z M618.5,401.6
		c-2.2,1.8-4.7,2.6-7.4,2.3c-7.4,0.3-13.8-5.8-14-13.3c0-0.5,0-1,0.1-1.6c0-0.7,0.1-1.3,0.3-1.9c0.5-1.5,1.8-2.4,3.3-2.2
		c1.9,0.2,3.8,0.8,5.2,2.2c2.5,2.4,5.4,3.8,8.8,4.5c1.3,0.2,2.5,0.8,3.5,1.5c1.6,1.2,2.4,2.7,2.4,4.3
		C620.7,398.9,620,400.5,618.5,401.6z M655.7,392.9c0,0.1,0,0.3,0,0.4c-0.2,2.7-1.1,5.5-2.9,8c-1.2,1.6-2.9,3.1-5,4.3
		c-2.5,1.4-5,2.8-7.5,4.2c-0.8,0.5-1.7,0.8-2.7,0.7c-0.3,0-0.5-0.1-0.6-0.2c-0.1,0-0.1-0.1-0.1-0.2l-0.1-0.1v-0.1c0-0.1,0-0.2,0-0.3
		c0-0.1,0-0.2,0-0.2c0-0.1,0-0.1,0-0.2s0.1-0.3,0.2-0.4c1.1-1.5,1.4-3.1,1.2-4.8c-0.1-0.6-0.2-1.1-0.4-1.7c-0.4-1.2-0.4-2.5-0.4-3.8
		c0-0.8,0-1.5,0-2.3c0,0,0,0,0-0.1l0,0c0-1.6,0-3.2-0.1-4.8c0-1.4-0.7-2.5-2.1-2.9c-2.3-0.7-4.3-2-6.1-3.6c-1.5-1.3-3.5-1.5-5.4-1.6
		c-6.3-0.3-12.3-1.8-18.3-3.7c-3.7-1.2-7.5-1.9-11.2-2.8c-1.9-0.4-3.6,0.3-4.2,2.2c-1.2,4-2.9,7.8-4.6,11.6
		c-0.3,0.7-0.5,1.5-0.5,2.2c0,1.2,0.3,2.3,1,3.4c0.9,1.4,1.9,2.6,3.2,3.5c2.1,1.5,4.1,3,6.2,4.5c2.2,1.6,4.3,3.3,5.7,5.8
		c0.6,1,0.8,2,0.8,3c-0.1,1.6-1,2.9-2.7,3.9c-3,1.7-6.2,2.7-9.7,2.2c-3.1-0.4-6.3-1-9.4-1.6c-2.9-0.6-5.4-2.1-7.6-4
		c-3-2.6-4.6-6.1-4.1-9.6c0.2-1.5,0.9-3,2-4.4c2.6-3.4,4-7.2,5.4-11.1c1.2-3.3,2.2-6.7,3.3-10c0.5-1.5,0.7-3.1,0.7-4.7
		c0.1-6.4,0.1-12.8,0.2-19.2l0,0c0,0,0,0,0-0.1c0-2.2-0.5-4.1-1.7-5.9c-1.6-2.6-2.2-5.4-2.1-8.3c0-0.4,0-0.8,0-1.3
		c0.1-2.1,1-4,2.1-5.8c1.5-2.3,3.8-3,6.3-1.9c1.3,0.6,2.6,1.3,3.7,2.2c2.8,2.4,5.6,4.8,7.4,8.1c0.8,1.5,2,2.5,3.5,3.1
		c2.9,1.3,5,3.4,6.6,6.1c1.8,3,4.2,5.2,7.2,6.8c2.1,1.1,4.2,2.4,6.3,3.5c4.6,2.5,9.2,5.2,12.8,9.2c1.5,1.7,3.3,2.1,5.5,2.2
		C647.7,372.8,655.6,381.1,655.7,392.9z M708.6,303.5c-1.8,4.2-4.3,7.5-7.8,9.7c-0.1,0.1-0.3,0.2-0.4,0.3c-0.1,0.1-0.3,0.2-0.4,0.2
		c-1.3,0.7-2.8,1.3-4.4,1.7c-3,0.7-5.7,1.9-8.3,3.4c-0.6,0.4-1.3,0.8-1.9,1.2c-0.5,0.3-1.1,0.7-1.6,0.9c-0.5,0.3-1,0.5-1.6,0.8
		c-3.4,1.4-6.2,0.8-8.6-2.1c-2.6-3.1-3.5-6.7-3.2-10.7c0.2-2.3,0.5-4.7,0.7-7.1c0.1-2,0.7-3.8,1.6-5.5c1.3-2.4,1.3-4.8,0.6-7.4
		c-0.6-2.2-1.3-4.4-2.6-6.2c-3-4-3.4-8.1-0.9-12.5c0.7-1.2,1.1-2.6,1.1-4.1c0.1-2.6,1.1-5,2.2-7.3s2.3-4.5,3.1-7
		c0.5-1.8,1.6-2.9,3-3.6c0.9-0.4,1.9-0.6,3-0.6c4.4,0,8.6,1.1,12.2,3.6c3.9,2.6,7.2,5.9,9.3,10.1c0.6,1.3,1.3,2.6,2,3.8
		c4.1,7.3,5.8,15.2,5.7,24.2C711.8,293.8,710.7,298.7,708.6,303.5z M694.9,211.2c0.3-0.9,0.6-1.8,1-2.6c0.3-0.6,0.6-1.1,1-1.7
		c0.3-0.4,0.6-0.8,1-1.1c1.9-1.6,2.7-3.6,2.7-5.9c0-0.3,0-0.7,0-1c0-0.2,0-0.3,0-0.5c0-0.6,0.2-1.1,0.3-1.7c0-0.1,0.2-0.3,0.3-0.3
		c0.3,0,0.7,0,0.9,0.2c0.3,0.3,0.6,0.8,0.7,1.2c0.9,3,2.2,5.6,4.5,7.8c1.7,1.7,2.2,4.1,2.2,6.5c0,0.3,0,0.6,0,0.9
		c0.2,4.7-1.9,8.1-5.7,10.4c-3.4,2-6.6,0.7-8-3c-0.7-1.9-1.3-3.7-1.4-5.7C694.3,213.6,694.5,212.4,694.9,211.2z M654.6,172.6
		c3.6-0.4,7.2-1.1,10.8-2c1.7-0.4,3.3-1,4.8-1.7c2.5-1.2,4.6-2.9,6.3-5.3c0.4-0.6,0.8-1,1.3-1.1c0.7-0.2,1.4,0.1,2.2,1
		c3.1,3.3,4.8,7.3,4.4,11.8c-0.2,2.7,0.3,5.1,1.5,7.4c0.7,1.5,1.1,3,1.7,4.5c0.4,1.1,0.6,2.3,1.3,3.1c3.7,4.7,3.3,10,2.4,15.2
		c-0.4,2.7-1.7,5.2-2.7,7.7c-0.7,1.9-2.1,3.2-3.7,4.3c-1.5,1-1.4,1.5-0.3,3.1c1.4,2,3.2,3.6,5.4,4.6c4.3,2,7.6,5.4,10.6,8.9
		c3.4,3.9,4.9,8.4,5.1,13.4v0.1c-1.1,0.4-1.3-0.4-1.7-0.8c-3.4-3.9-7.4-7-12.1-9.2c-1.1-0.5-2.3-1-3.4-1.7
		c-3.4-2.2-8.4-2.1-12.6-0.2c-1.4,0.7-2.7,1.5-3.8,2.6c-2.6,2.5-5,5-6.9,8c-3.7,5.8-7.3,11.6-9.3,18.3c-0.5,1.5-1,3-2.2,4.2
		c-1.6,1.7-1.6,3.7-1,5.8c0.7,2.1,1.7,4.1,3.1,5.9c1.1,1.4,2.2,2.7,3.3,4.1c3.7,4.6,4.6,9.7,2.4,15.3c-0.8,2.1-1.7,4.2-2.7,6.2
		c-3.3,6.9-1.9,13.1,2.8,18.7c0.5,0.6,1.2,1.1,1.6,1.8c2.2,3.9,5.8,4.8,10,5.2c6.7,0.6,12.8,3,18.3,6.7
		c10.3,6.8,15.5,16.7,17.4,28.6c1.1,6.6,0.3,13-2.5,19.2c-2.6,5.6-4.8,11.5-8.5,16.6c-0.3,0.4-0.7,0.9-1.5,1.9
		c-0.1,0.2-0.2,0.3-0.4,0.5c-0.2-4-0.3-6.9,0.4-9.7c1.1-4.7,1.8-9.4,2.1-14.2c0.6-9.3-1-18.2-5.8-26.3c-2.5-4.4-6-7.9-10.3-10.5
		c-3-1.8-6.3-3.2-9.4-4.8c-1.9-1-4-1.1-6.1-1.2c-4.6-0.3-8.7-1.6-12.8-3.7c-2.4-1.2-4.2-2.8-5.5-5.1c-3.2-5.6-5.7-11.5-8.1-17.4
		c-1.5-3.9-2.8-7.8-4.1-11.8c-1.7-5.3-4.1-10.1-7.2-14.6c-0.9-1.3-1.9-2.5-3.2-3.5c-2.6-1.9-5.7-2.2-8.4-1c-0.5,0.2-1,0.5-1.5,0.8
		c-0.7,0.5-1.1,1-1.8,1.4l-0.1,0.1c-0.6,0.5-1.7,0.1-2-0.7c-0.3-0.7-0.5-1.5-0.5-2.3c0.1-1,0.3-2,0.7-2.8c1.5-2.9,1.3-5.8,0.9-8.9
		c-0.7-5.5,1.2-8.9,6.1-11.3c0.3-0.1,0.5-0.3,0.8-0.4c0.9-0.4,1.7-0.8,2.6-1.2l0,0c0.1-0.1,0.2-0.3,0.4-0.6
		c-0.4-0.9-0.9-1.9-1.3-2.9c-1.2-3.1-0.7-5.5,1.9-7.7c0.7-0.5,1.4-1,2.1-1.4c0.6-0.4,1.3-0.7,2-1.1c0.2-0.1,0.5-0.2,0.7-0.3
		c1.3-0.6,2.7-1.2,4-1.8c0.3-0.1,0.5-0.2,0.8-0.3s0.7-0.3,1-0.5c0.2-0.1,0.4-0.2,0.5-0.3c0,0,0.1,0,0.1-0.1
		c10.4-5.4,19.5-12.2,25.5-22.4c0.7-1.1,1.4-2.2,2.4-3c3.6-2.7,5.1-6.8,6.7-10.8c0.5-1.2,0.3-2.2-0.1-3.3c-1.1-3.2-2.5-6.2-4.5-9
		c-4.6-6.4-10.3-11.3-17.5-14.5c-2.1-1-4.3-1.8-6.6-3.6c0.2-0.1,0.3-0.1,0.5-0.1c2.2-0.7,4.1-0.2,5.5,0
		C649.5,172.7,652,172.8,654.6,172.6z M644.9,142.7c1,0.7,1.8,1.8,2.4,2.9c1,1.8,0.1,4-1.9,4.6c-1.8,0.5-3.7,0.7-5.4,1l0,0
		c-1.7-0.2-3.1-0.4-4.5-0.6c-7.7-1-15.4-2.2-22.8-4.9c-1.8-0.6-3.6-1-5.4-1.1c-1.8-0.1-3.6,0.2-5.4,0.9c-0.6,0.2-1.2,0.3-1.8,0.5
		c-0.4,0.2-0.9,0.3-1.3,0.3c-1,0.1-2-0.3-2.8-1.1c-1.2-1.3-1.4-2.9-0.7-4.5c0.5-1.1,1.2-2.3,2-3.2c2-2.3,4.2-4.4,6.3-6.6
		c1.2-1.2,2.6-2,4.1-2.5c0.1,0,0.1,0,0.2,0c2.4-0.8,4.3,0.4,4.6,2.9c0.1,0.6,0,1.3,0,1.9c0,1,0.8,1.3,1.6,1.3s1.6-0.2,2.4-0.3
		C627.4,132.4,636.6,136.2,644.9,142.7z M542.7,68.1c1.5-1,2.4-2.5,3.3-4c2.9-5.1,7.3-8.3,12.8-10.3c5.3-1.9,10.6-3.1,16.3-3
		c0.8,0,1.5,0,2.3,0c5.2,0,10.4-0.4,15.5-1.1c1.6-0.2,3.1-0.6,4.7-1.1c6.4-2,12.9-3.4,19.7-4c0.1,0,0.3,0,0.4,0
		c4.2-0.2,8.1,0.7,12.1,1.7c2.4,0.7,3.5,2.4,3.7,5c0.3,3.7-1,6.6-4.1,8.6c-3.2,2.1-6.7,3.5-10.5,4.4c-5.4,1.3-10.8,2.6-16.1,4.6
		c-3,1.2-5.9,2.5-8.7,4.1c-2.3,1.3-2.4,2.4-1.3,4.2c2.1,3.3,2.5,6.8,1.6,10.6c-0.6,2.5-0.9,5-1.5,7.5c-0.5,2.2-0.7,4.5-0.7,6.7
		c0,1.3,0.3,2.5,0.8,3.7c1.1,2.3,2.2,3.2,4.1,3.3c0.6,0,1.4,0,2.2-0.2c3.3-0.6,6.6-1.3,9.9-1.9c1.2-0.2,2.3-0.3,3.4-0.3
		c3.5,0,6.8,0.9,10.1,1.9c1.5,0.5,2.9,1.4,4,2.5c3,2.9,2.5,7.2-1.1,9.3c-1.4,0.8-2.9,1.2-4.4,1.1c-0.2,0-0.3,0-0.5-0.1
		c-1.4-0.3-2.8-0.6-4.2-0.9c-2.9-0.7-5.7-0.9-8.3-0.5c-4.3,0.5-8.3,2.5-11.8,5.9c-5.1,4.9-9.7,10.1-13.8,15.9
		c-2.4,3.5-3.6,7.5-4.7,11.5c-0.6,2.4-1.2,4.7-1.8,7c-0.4,1.6-1.1,3-2.1,4.3c-1.6,2-3.7,3.1-5.7,3.2c-2.6,0.1-5.2-1.4-6.8-4.2
		c-1.2-2.3-1.7-4.8-1.8-7.4c-0.3-5.5,0.9-10.8,2.6-16c0.2-0.8,0.6-1.5,0.9-2.2c1.1-3.2,1.6-4.3-2-6.2c-2.1-1.1-3.3-3-4.1-5.1
		c-0.7-1.9-1.9-2.7-3.7-2.7c-0.6,0-1.2,0-2,0.2c-1.8,0.4-3.3,1.3-4.6,2.5c-5.7,5.2-10.1,11.1-11.3,19c-0.3,1.9-0.9,3.8-1.4,5.6
		c-0.3,1.2-0.9,2.4-1.8,3.3c-1.1,1.1-2.3,1.5-3.5,1.5c-0.8-0.1-1.6-0.4-2.4-0.9c-1.9-1.3-3.1-3.2-3.8-5.4c-0.9-2.9-1.4-5.9-1.2-9
		c0.4-6.2,1-12.4,2.9-18.4c0.4-1.4,0.9-2.7,1.4-4.1c0.7-2,0.3-3.7-1.3-5.2c-4.5-3.9-4.6-8.9-3.3-14.1c1.4-5.3,3.8-10.2,7-14.6
		C532.2,78.3,536.6,72.4,542.7,68.1z M470.8,63.3c3.5-1.7,6.7-3.8,9.4-6.5c0.8-0.8,1.7-1.4,2.6-2.1c2.8-2,5.9-3.2,9.3-2.9
		c4.1-0.1,7.4,1.2,9.9,4.2c1.6,1.9,3.5,3.2,5.7,4.3c3.2,1.5,6.1,3.4,8.7,5.9c1.5,1.5,2.7,3.1,3.5,4.8c1.4,2.7,2,5.7,2,9
		c0,0.8-0.1,1.7-0.3,2.4c-1.3,4.2-5.5,5.3-8.6,2.3c-1.2-1.1-2-2.5-2.9-3.8c-1.5-2.2-2.9-4.5-4.4-6.8c-1.1-1.6-2.4-3-3.9-4.2
		c-2.6-2.2-5.6-3.1-8.9-2c-3.2,1.1-6.5,1.5-9.7-0.2c-0.8-0.4-1.6-0.1-2.3,0.2c-4.7,2.2-9.9,3.4-14.4,6.3c-1.9,1.3-4.2,1.7-6.4,2
		c-0.4,0.1-0.8-0.2-1-0.6c-0.1-0.3-0.2-0.6-0.2-1c0-1.4,0.9-2.4,1.8-3.3C463.7,68.2,466.9,65.2,470.8,63.3z M361.4,71.5
		c6.7-9.5,16.3-14,27.4-15.9c9.9-1.7,19.7-1.5,29.6,0.3c3.9,0.7,7.9,1,11.9,1.5c2.8,0.3,5.4-0.5,8-1.2c3.9-1,7.7-2.1,11.6-3
		c2.8-0.7,5.7-0.7,8.5,0.4c1.1,0.4,2.2,0.9,3,1.7c0.5,0.5,0.8,1.1,1,1.9c0.5,2.4-1.2,3.8-2.9,5.1c-0.5,0.4-1,0.8-1.6,1.1
		c-3.9,2.1-6.9,5-9.5,8.6c-2.4,3.3-5.4,5.9-9.2,7.5c-1.5,0.6-2.9,1.2-4,2.3c0.1,0.3,0.3,0.5,0.4,0.6c0.4,0.5,0.9,0.6,1.4,0.7
		c3.4,0.4,6.4,1.8,9.5,3.3c6.6,3.3,12.3,2.5,17.4-2.8c3.5-3.6,7.5-5.7,12.5-6.3c1.3-0.1,2.4,0.2,3.3,0.9c1.4,1.2,2.2,3.2,1.9,4.8
		c-0.2,1.1-0.7,2.2-1.1,3.2c-0.7,1.7-1.6,3.5-2.4,5.2c-2.2,4.5-4,9.1-4.5,14.1c-0.1,1.5-0.6,2.9-1.1,4.2c-0.6,1.5-1.6,2.5-3.2,2.6
		c-1.2,0.1-2-0.4-2.7-1.1c-0.2-0.3-0.5-0.6-0.7-0.9c-0.5-0.8-0.9-1.7-1.2-2.6c-0.6-1.5-1.5-2.8-2.5-3.8c-1.1-1.1-2.4-1.9-3.9-2.5
		c-1.7-0.8-3.5-1.5-5.3-2.2c-2.5-1.1-5-1.1-7.5-0.1c-1.3,0.5-2.6,1.1-4,1.5c-2.2,0.7-4.4,0.8-6.3-0.9c-2-1.8-4-1.6-6.3-0.8
		c-5.8,2-11.2,4.6-15.4,9.3c-2,2.3-4.5,4.1-7.2,5.5c-4.8,2.5-6.2,6.7-5.6,11.7c0.3,2.1,0.9,4.1,1.3,6.1c0.4,2.2,0.5,4.2-1.5,5.7
		c-2,1.4-4,0.9-5.9-0.2c-3-1.7-5.4-4-7-6.9c-0.5-1-1-2-1.4-3c-0.6-1.7-1.1-3.3-1.9-4.9c-0.2-0.4-0.4-0.7-0.7-1
		c-0.7-0.8-1.8-1.1-3-0.8c-1,0.2-2.1,0.6-3.1,1.1c-6.3,2.8-12,6.6-17.2,11.2c-3.3,3-6.6,6-10,8.9c-2.1,1.8-4.2,3.5-6.6,4.8
		c-3.5,1.9-7,2-10.5,0.1c-3.3-1.9-5.9-4.3-7.8-7.6c-0.3-0.7-0.7-1.3-0.9-2.1c-1.8-5-2.4-10-1-15.2c5.3-18.7,15.5-33.9,32-44.5
		C357.8,75.6,359.8,73.7,361.4,71.5z"/>
	<path class="st2" d="M269.6,204.7c0.1,0.4,0.2,0.7,0.5,1.1c0.2,0.3,0.5,0.7,0.6,1c1,1.4,1.9,2.8,2.8,4.1c1.6,2.5,3.2,4.9,4.5,7.4
		c0.1,0.2,0.2,0.3,0.3,0.4c0.3,0.4,0.7,0.7,1.2,0.5c0.4-0.2,0.7-0.7,0.8-1.1c0.7-3,1.4-5.9,2-8.9c0-1-0.2-2-0.6-2.7
		c-0.3-0.5-0.8-1-1.5-1.3c-1.2-0.6-2.1-1.4-2.8-2.4c-0.8-1.1-1.4-2.5-1.9-3.9c-0.6-1.9-1.3-3.9-1.9-5.9c-0.4-1.5-0.9-2.8-1.6-4.2
		c-1.9-4.2-4.5-7.9-7.2-11.6c-0.5-0.7-1.3-1.4-2-2c-0.3-0.2-1-0.4-1.3-0.2s-0.5,0.9-0.4,1.3c0.7,3.4,1.9,6.5,3.4,9.5
		c1.4,2.9,2.8,5.9,2.9,9.1C267.6,198.3,269.3,201.3,269.6,204.7z"/>
	<path class="st2" d="M405.7,505.5c-0.3,0-0.5,0-0.8,0c-0.2,0-0.3-0.1-0.5-0.1c-0.3-0.1-0.5-0.1-0.8-0.2h-0.1
		c-0.8-0.2-1.6-0.5-2.3-0.9c-0.4-0.2-0.8-0.5-1.1-0.8c-4.3-3.7-9.4-6.5-13.8-10.1c-5-4-9-9-12-14.8c-0.6-1.2-1.2-2.3-1.8-3.4
		c-0.2-0.4-0.7-1-1.2-1c-0.1,0-0.2,0-0.3,0.1c-0.5,0.2-0.9,0.8-1.1,1.4c-0.8,2-0.7,4.1,0,6.1c1.2,3.5,2.4,7,3.7,10.4
		c1.3,3.3,3.1,6.3,5.4,9c1.4,1.6,2.6,3.3,3.6,5.1c1.2,2.3,2.9,4.1,4.9,5.8c3.3,2.7,6.5,5.7,10,8.2c6.1,4.3,12.9,7.1,20.1,8.7
		c0.1,0,0.3,0,0.4,0.1l0,0c0.1,0,0.3,0,0.4,0s0.3,0,0.4,0h0.1c0.4,0,0.7,0,0.8,0c2.8,0,4.8,0,6.8-0.9c1.3-0.5,2.1-1.3,2.2-2.8
		c0.1-1.4,0.2-2.9,0.4-4.3c0.2-1.5-0.2-2.8-1.3-3.9c-1.4-1.3-2.7-2.7-3.9-4.2c-1.7-2.2-2.5-3.4-4.2-3.2c-0.8,0.1-1.8,0.5-3.2,1.2
		c-0.9,0.5-1.8,0.6-2.5,0.3c-1.2-0.4-1.9-1.7-1.7-3.4c0.2-1.1,0.5-2.2,0.8-3.3c0.5-1.7,1.2-3.4,1.5-5.1c0.6-3.1-0.4-5.2-3.1-6.9
		c-1-0.6-1.9-0.9-2.7-1c-1.8-0.1-3.2,1.3-3.6,3.8c-0.2,1.1,0.2,1.9,0.6,2.8c0.6,1.3,1.5,2.5,2,3.8
		C408.6,503.7,407.5,505.3,405.7,505.5z"/>
	<path class="st2" d="M948.9,650.4c-2.3-4.5-5.1-8.8-8.3-12.8c-3.3-4-6.9-7.6-10.9-10.8c-4-3.1-8.3-5.9-12.9-8.1l-6.8-3
		c-0.7-0.6-1.5-1.3-2.2-1.9c-1.7-1.5-3.4-2.8-5.4-3.9c-8-4.5-16.9-7-25.9-8.5c-4.5-0.7-9-1.2-13.6-1.5c-3-0.2-6,0-9-0.5
		c-3.2-0.5-6.3-2-9.6-2.2c-1.3-0.1-2.5,0.1-3.8,0.2c-10.4,1.1-20.8,2.7-30.9,5.7c-5,1.5-10,3.4-14.7,5.8c-4.6,2.3-8.6,5.5-13.3,7.4
		c-1.1,0.4-2.3,0.9-3.4,1.4c-24.1,10.4-45.6,30.7-54,55.9c0,0,0,0,0.1,0c2.2-0.5,4.7,0.3,6.4-1.1c0.7-0.5,1.1-1.4,1.5-2.2
		c3.9-8.4,7.6-17.1,14.2-23.6c8-8,20.7-11.1,30.2-3.8v-0.1c0,0.1,0.1,0.1,0.1,0.2c0.6,0.4,1.1,0.9,1.6,1.4c0.1,0.1,0.1,0.1,0.1,0.1
		c0.2,0.2,0.3,0.3,0.5,0.5c0.6,0.6,1.2,1.2,1.7,1.9c0.1,0.1,0.2,0.3,0.3,0.4h-0.1c-0.8,0-1.5,0-2.3,0.1c-1.8,0.2-3.5,0.6-5.1,1.2
		c-3.3,1.2-6.3,2.9-9.1,4.9c-0.7,0.5-1.4,1-2.1,1.5l-1,0.8l-1.9,1.4l-1,0.8c0,0,0.2-0.1,0.4-0.1c0.3-0.1,0.6-0.2,0.7-0.2
		c5-1.3,10-1.3,14.7,0.9c0.3,0.2,0.7,0.4,1.1,0.6c0.4,0.3,0.8,0.5,1.1,0.7c0.7,0.4,1.3,1,2,1.5c1.2,1.2,2.4,2.4,3.4,3.8
		c1.1,1.5,2.1,3.2,2.9,4.9v0.1c-0.1,0.4-0.3,0.8-0.4,1.3c-0.1,0.3-0.1,0.6-0.2,0.9c0,0.1,0,0.1,0,0.2l0,0l0,0c0,0.2-0.1,0.4-0.1,0.6
		c0,0.2-0.1,0.5-0.1,0.8c0,0.1,0,0.2,0,0.3c0,0,0,0.1,0,0.2c0,0.1,0,0.2,0,0.2c0.1,0.1,0.1,0.3,0.1,0.4c0,0.3,0.1,0.5,0.1,0.8v0.1
		c0.2,0.9,0.4,1.8,0.6,2.7c0.2,1.1,0.5,2.2,0.7,3.3c1.3,2.3,2.7,4.5,3.6,7c0.1,0.2,0.1,0.5,0.2,0.7c0.1,0.1,0.1,0.1,0.1,0.2
		c0.1,0.2,0.1,0.5,0.2,0.7c0,0.1,0,0.1,0,0.1c0.1,0.2,0.2,0.5,0.2,0.7c0,0.1,0,0.1,0,0.2c0,0.2,0.1,0.4,0.1,0.6v0.1
		c0,0.2,0.1,0.5,0.1,0.7c0,0.1,0,0.2,0,0.3c0.1,0.1,0.1,0.3,0.1,0.5c0,0.1,0,0.2,0,0.3s0,0.3,0,0.5s0,0.3,0,0.4c0,0.2,0,0.3,0,0.4
		c0,0.3,0,0.5,0,0.8c0,0.1,0,0.1,0,0.2s0,0.3,0,0.5c0,0.3,0,0.7,0,1.1c0.1,0.1,0.3,0.3,0.4,0.5c0.7,0.9,1.5,1.7,2.2,2.6
		c0.4,0.3,0.7,0.7,1.1,1.1c3,2.7,6.2,5.2,10.3,6.1c6.4,1.4,13-0.6,19.5-0.1c1.3,0.1,2.6,0.3,3.8-0.2c2.3-0.9,3.6-4.5,4.8-6.5
		c1.8-3.1,3.3-6.3,4.5-9.6c2.4-6.3,3.8-12.9,4.3-19.6c0.1-1.3,0.2-2.6,0.2-3.9c0.1-9.2-1.8-18.6-5.5-27.1c-2.2-4.9-4.8-9.5-7.9-13.8
		s-6.7-8.2-10.6-11.8c-0.5-0.4-1-0.9-1.5-1.3l-2.2-1.9l-0.4-0.3h0.1l0.2,0.1l0.5,0.1l1,0.2l1.5,0.4l0.5,0.1l0.5,0.1l1,0.3
		c2.5,0.8,5,1.8,7.4,3c22,11.4,31.5,34.7,32.9,58.2c0,0.2,0,0.3,0,0.5c0,0.7,0,1.4,0,2.1l0,0c0,0.7,0,1.3-0.1,2
		c-0.1,0.6-0.2,1.2-0.2,1.8c0,0.1,0,0.1,0,0.2l0,0l0,0c-0.1,0.5-0.1,0.9-0.2,1.3c0,0.1,0,0.2,0,0.3c0,0.3-0.1,0.6-0.2,0.9
		c0,0,0,0,0,0.1c0,0.3-0.1,0.6-0.1,0.9c-0.6,3.9-2,7.8-3.2,11.5c-1.1,3.3-2.8,6.4-2.5,9.7c0.1,0.8,0.2,1.5,0.5,2.3
		c3.5,8.8,11.4,11.6,20,13c1.1,0.2,2.3,0.3,3.4,0.5c1.4,0.2,2.9,0.4,4.3,0.5c1.7,0.1,3.3,0.3,5,0.5c0.4,0,0.7,0.1,1,0.1
		c0.3,0.1,0.6,0.1,0.9,0.1c0.6,0,1.2,0,1.8,0l0,0l0,0c0-0.1,0-0.1,0-0.2c0.8-3.4,2.6-6.3,4.1-9.3c5.5-10.6,8.4-22.6,8.6-34.8
		c0.1-4.1-0.2-8.2-0.8-12.2c-2.2-14.9-10.6-28.7-21-39.3c-0.8-0.9-1.9-2.2-1.9-3.5c0-0.1,0-0.2,0-0.3c3.7,1,7.7,4.1,10.9,6.1
		c3.9,2.5,7.8,5.1,11.4,8.1c6.5,5.4,12.7,12.4,14,21.1c2.4,15.6,6.7,17.4,5.3,31.4c-0.1,0.9-0.2,1.8-0.3,2.8
		c-0.6,4.4-3.3,8.5-4.2,12.9c-1.2,6.2-1.6,12-3.9,17.9c-0.1,0.3-0.3,0.7-0.4,1.1c-0.1,0.5-0.3,3.6-1.1,3.3c0.1,0,0.2,0.1,0.3,0.1
		c3.6,1.1,17.1,3.5,17.8-1.5l0.4-2.9l3.6-20c1.3-7.4,2.2-14.8,2.3-22.1c0.2-12.2-1.7-24.1-7.2-35.6c-1.7-3.5-4.5-9.7-6.8-12.7
		c-0.3-0.4-0.6-0.7-0.9-1c0.3,0.2,0.6,0.5,0.9,0.8c4.9,4.7,9.5,9,13.1,14.8c4.2,6.7,7.9,14.2,10.7,21.6c0.2,0.6,0.4,1.2,0.6,1.8
		c0.7,2.4,1.4,4.8,1.9,7.3c1,4.9,1.6,9.8,1.6,14.8v0.1c-0.1,5-0.6,9.8-1.7,14.6c-0.4,1.5-0.7,3-1.2,4.4c0,0,0,0,0.1,0
		c0.5-0.1,0.9-0.2,1.2-0.4c1.3-0.5,2.3-1.3,3.2-2.3s1.6-2.1,2.2-3.2c0.6-1.2,1.1-2.4,1.5-3.6c0.2-0.7,0.3-1.3,0.5-1.9
		c0.6-2.1,1-4.1,1.4-6.2C957.8,680,955.7,664.2,948.9,650.4z M787.7,613.3L787.7,613.3C787.6,613.3,787.6,613.3,787.7,613.3
		C787.7,613.3,787.7,613.2,787.7,613.3C787.8,613.2,787.8,613.3,787.7,613.3z"/>
	<path class="st2" d="M745.8,592.5c3.4,2.7,6.4,5.7,9.4,8.9c2.9,3.1,5,6.7,6.4,10.4l1.6-1.1l2.5-1.7c2.2-1.5,4.5-2.8,6.8-4.1
		c-0.2-0.2-0.3-0.4-0.5-0.6c-3.3-4.7-6.7-9.4-10.1-14c-2.5-3.4-5-7-7.2-10.7c-4.4-7.4-9.4-14.5-14.4-21.5c-0.6-0.8-1.1-1.9-1.9-2.1
		c-1.8-0.5-2-1.6-2.2-3.1c-0.7-4.1-0.7-8.2-0.8-12.4c0-3.3-0.6-6.7-1-10c-1.1-8.4-2-16.9-3.5-25.2c-2.2-12-5.6-23.7-10.1-35
		c-0.7-1.8-4.6-8.4-7.7-14.5c-0.7,1.4-1.4,2.9-2,4.3c-1.2,2.5-2.6,4.8-4.3,6.9c-6.7,8.4-13.9,16.3-22.3,23c-2.4,1.9-4.8,3.7-7.5,5.2
		c-2.2,1.2-3.7,3-4.6,5.3c-2.6,7-6.4,13.3-10.6,19.3c-0.7,0.9-1.3,2-1.6,3c-1.1,3.6-3.3,6.6-6,9.1c-4.5,4.1-8.3,8.9-12,13.7
		c-5.2,6.7-11.5,12.3-18.3,17.5c-5.6,4.3-11.3,8.4-17.7,11.4c-3.1,1.5-5,3.9-5.6,6.9c-0.1,0.4-0.2,0.9-0.2,1.3
		c-0.1,0.8-0.2,1.5-0.3,2.2c-0.1,0.6-0.2,1.1-0.3,1.6v0.1c-1,4.8-3,9.2-5,13.7c-1.9,4.4-3.8,8.8-5.7,13.2c-3.1,7.2-7.9,13.1-12.9,19
		c-1.5,1.8-3.5,3.2-5.8,4.1c-2.1,0.8-4,1.9-5.9,3.1c-0.7,0.5-1.4,0.9-2.1,1.2c-9.7,3.8-19.3,7.8-29.9,8.3c-0.8,0.1-1.6,0.1-2.4,0.2
		c-9.1,1.7-17.8-0.3-26.6-2.1c-1.4-0.3-2.8-0.7-4.1-1.3c-5.5-2.3-10.9-4.6-16.3-7c-4.3-1.9-7.7-5.1-10.8-8.6
		c-8.6-9.6-16-19.9-22.2-31.2c-3-5.4-6.1-10.9-9.3-16.2c-4.2-6.9-4.5-7.2-12.6-9c-7.4-1.6-14.5-3.9-21.5-6.7
		c-5.2-2-9.7-4.9-13.5-8.9c-6.7-7.1-13.8-13.9-20.1-21.3c-1.7-2-3.4-3.9-5.1-5.8c-1.1-1.2-2.3-2.2-3.9-2.7c-4.3-1.4-8-4-11.6-6.6
		c-2.1-1.5-4.1-3.1-6.1-4.7c-2.4-1.9-4.8-3.6-7.8-4.6c-2.6-0.8-4.9-2.4-7-4.1c-7.6-6.2-14.2-13.3-20.1-21.2c-2-2.7-3.9-5.5-6-8.1
		c-5.9-7.4-10.8-15.3-14.6-23.8c-4,7.6-15.7,22.6-18,26c-2.5,3.7-4.9,7.5-7.5,11.1c-8,11-14.7,22.8-21.6,34.5
		c-1.5,2.5-2.7,5.2-3.8,7.8c-2.7,6.5-5.3,13-8,19.5c-2.6,6.3-4.6,12.8-5.6,19.5c-0.3,2.4-0.6,4.9-0.6,7.4
		c-0.1,5.3-0.5,10.5-0.7,15.8c0,0.7-0.1,1.4-0.1,2c-0.1,0.9-0.3,1.7-0.8,2.6c-1.4,2.5-4.8,3-6.9,0.9c-1-1-1.6-2.1-2-3.3
		c-0.6-1.8-1.1-3.7-1.7-5.5c-0.4-1.2-0.7-2.4-1.2-3.6c-0.6-1.5-1.6-1.6-2.9-0.4c-0.1,0.1-0.2,0.2-0.3,0.3c-2.5,2.8-4.9,5.8-6.9,8.9
		c-0.1,0.2-0.3,0.4-0.4,0.6c5.7,2.5,11.2,5.5,16.5,8.9l2.5,1.7l2.5,1.8l1.2,0.9l0.6,0.4l0.6,0.5l2.4,1.9c0.4,0.3,0.8,0.6,1.2,0.9
		l1.2,1l2.3,1.9c0.7,0.6,1.5,1.3,2.2,2l1.1,1l0.6,0.5l0.5,0.5c1.5,1.4,2.9,2.7,4.3,4.2c0.7,0.8,1.4,1.5,2.1,2.2l2,2.2
		c0.3,0.4,0.7,0.7,1,1.1l1,1.1l2,2.3c1.3,1.5,2.6,3,3.8,4.6c3.2,4,6.2,8.2,9.1,12.4c0.1,0.1,0.1,0.1,0.2,0.2c0.7,1,1.4,1.9,2,2.9
		c0.2,0.4,0.4,0.7,0.6,1.1c0.6,0.9,1.3,1.9,1.9,2.8c2.2,3.3,4.4,6.6,6.8,9.7c0.3,0.3,0.5,0.7,0.8,1l0.1,0.1c0.6,0.6,1.3,1.2,1.9,1.8
		c1.1,1,2.3,1.9,3.5,2.7c0.3,0.1,0.5,0.3,0.8,0.5h10.2c-1.6-1.2-3.3-2.4-4.9-3.7c-3.1-2.4-5.7-5.1-8.1-8.2
		c-7.9-10.3-14.1-21.3-17.7-33.8c-0.3-0.9-0.7-1.8-0.9-2.7c-0.6-2.3-2-4-4.1-5.1c-7.8-4.3-11.6-11.2-13.5-19.5
		c-1.3-5.6-1.8-11.3-1.4-17.1c0.7-11.1,3.7-21.7,7.1-32.2c2.1-6.4,5.6-12.2,9.8-17.5c2.8-3.5,5.1-7.3,6.7-11.5
		c3.6-9.2,8-18.1,12.5-26.9c1.2-2.4,2.5-4.8,2.8-7.6c0.2-1.8,1.2-3.3,2.4-4.6c1-1.1,2.1-2.1,2.8-3.3c0.8-1.5,1.7-2.5,3-2.3
		c0.1,0,0.1,0,0.2,0s0.3,0.1,0.4,0.1c0.2,0.1,0.4,0.2,0.6,0.3c0.1,0.1,0.2,0.1,0.3,0.1c0.6,0.3,1.5,0.1,2.3,0c1.9-0.2,3.6,0.2,5.1,1
		c0.9,0.5,1.7,1.1,2.5,1.8c1.9,1.8,3.5,3.7,4.6,6.1c1.6,3.2,2.8,6.5,3.7,9.9c2.4,8.6,4.8,17.2,9,25.2c1.4,2.7,2,5.7,2,8.8
		c0,1.8,0,3.5,0,5.3c0,3.8-0.5,7.7-0.7,11.5c-0.4,8-0.6,15.9,0.4,23.9c0.8,6.5,2.1,12.9,4.1,19.2c3.2,9.5,8.9,17.3,16.5,23.7
		c1.4,1.2,2.9,2.3,4.4,3.4c2.8,2.1,5.8,3.9,9,5.5c0,0,0.1,0,0.1,0.1c0.1,0.1,0.3,0.1,0.4,0.2c1,0.5,2,1.1,2.8,1.7c2.9,2,5,4.8,6,8.5
		c0.7,2.3,1,4.7,0.5,7.1c-1,5.2-2.2,10.3-3.9,15.3c-1.2,3.7-2.1,7.4-2.8,11.2c-0.4,2.1-0.5,4.1-0.2,6.1h0.3h59.7
		c-0.1-0.2-0.2-0.3-0.3-0.5c-0.7-1.1-1.3-2.3-1.7-3.5c-0.1-0.3-0.2-0.6-0.4-1c-2.8-8.3-6.6-16.3-9.1-24.7c-0.1-0.4-0.3-0.8-0.4-1.1
		c-0.5-1.1-1-2.1-1.8-3.1c-2.3-2.9-4-6.1-5.4-9.4c-0.1-0.2-0.2-0.5-0.3-0.7c-0.1-0.2-0.2-0.4-0.2-0.6c-0.2-0.5-0.4-1-0.6-1.5
		c-0.8-2.3-1.9-4.6-3-6.8c-0.5-0.9-0.9-1.9-1.4-2.8c-1.3-2.3-2.2-4.9-3.3-7.4c-0.4-0.9-1.3-1-1.9-0.3c-0.7,0.7-1.2,1.5-1.9,2.1
		c-2.2,1.9-5.4,1.5-7.1-0.9c-0.7-0.9-1.2-2-1.5-3c-0.2-0.8-0.4-1.6-0.4-2.4c-0.2-2.7-0.3-5.4-0.4-7.5c0.3-3.4,0.4-6.1,0.7-8.8
		c0.2-1.6,0.2-3.2-0.4-4.7c-0.1-0.1-0.1-0.3-0.2-0.4c-1.3-3.1-2.6-6.2-3.9-9.3c-0.8-1.8-1.9-1.8-3.3-0.2c-1.7,2-3.1,4.1-4.1,6.5
		c-1.4,3.2-2.5,6.5-3.8,9.8c-0.5,1.2-0.9,2.4-1.5,3.5c-0.6,1.2-1.8,1.8-3.2,1.5c-1.2-0.2-1.9-1-2.4-2.1c0-0.1,0-0.2-0.1-0.3
		c-0.4-1.2-0.3-2.3-0.2-3.5c0.7-8.3,2.4-16.4,6.1-24c1.1-2.2,1.8-4.7,2.7-7.1c0.2-0.7,0.3-1.5,0-2.1c-0.1-0.2-0.3-0.4-0.5-0.5
		c-0.8-0.6-1.8-0.5-3,0.5s-2.3,2.1-3.5,3.2c-0.5,0.5-1.1,1.1-1.7,1.6c-1.9,1.4-4.1,0.8-4.8-1.4c0-0.1-0.1-0.2-0.1-0.3
		c-0.6-2.2-0.3-4.5-0.1-6.7c0.1-0.9,0.3-1.9,0.6-2.8c1.5-4,2.4-8,2-12.2c0-0.2,0.2-0.7,0.4-0.8c0.5-0.3,1,0,1.2,0.4
		c1.1,2,2.9,2.6,5.2,2.5c2-0.1,3.8,0.6,5.5,1.6c1.8,1,3.5,2.2,5.2,3.4c3.2,2.4,6.3,4.9,9.9,6.7c2.2,1,3.7,3,5,5
		c3.7,5.7,8.3,10.6,12.6,15.7c1.7,2,3.7,3.6,5.6,5.3c6.5,5.6,11.8,12.1,16.1,19.5c1,1.8,2.1,3.6,3.3,5.3c2.5,3.4,4.5,7,6.3,10.8
		c3,6.5,5,13.3,5.9,20.6c0.5,4.3,1.1,8.5,1.7,12.8c0.1,0.6,0.1,1.3,0.3,1.9l0,0c0.1,0.4,0.4,1,0.7,1.1c0.7,0.3,1.1-0.4,1.5-0.9
		c0.6-0.9,1.2-1.9,1.8-2.8c0.9-1.2,1.8-2.4,3.5-2.1c1.1,0.2,1.6,0.8,2,1.6c0.2,0.5,0.4,1,0.5,1.6c0.5,1.6,0.4,3.2,0.3,4.8
		c-0.6,7-2.5,13.8-5.1,20.3c-0.1,0.2-0.1,0.3-0.2,0.5h163.7c-0.5-0.8-0.7-1.7-0.9-2.8c-1.4-9.1-1.3-18.2,0.4-27.2
		c0.3-1.5,0.4-2.9,0.6-4.3c0.1-0.3-0.2-0.7-0.4-0.8c0,0,0,0-0.1,0c-0.2,0-0.6,0.1-0.7,0.3c-1.2,1.7-1.8,3.7-2.5,5.7
		c-1.2,3.6-2.4,7.3-3.7,10.9c-0.5,1.3-1,2.7-2.1,3.7c-1,1-2.5,0.9-3.4-0.1c-0.1-0.1-0.2-0.3-0.3-0.4c-0.8-1.2-1.2-2.5-1.4-4
		c-0.6-3.9-0.3-7.7,0.4-11.5c1.6-9.3,5.1-17.8,10.8-25.4c4.7-6.3,9.4-12.6,15.2-17.9c1.7-1.5,3-3.3,4-5.3c1.6-3.2,3.5-6.1,5.8-8.8
		c2.2-2.6,3.9-5.5,5.2-8.6c4.8-11.8,12.4-21.9,21.4-30.9c0.9-0.9,1.7-1.9,2.8-2.6c4.1-2.6,6.9-6.5,10.5-9.7c1-1,1.7-2.3,2.5-3.5
		c1.4-2.1,3.3-3.6,5.6-4.4c2.2-0.7,4-0.4,5.2,0.8c0.7,0.8,1.2,1.9,1.2,3.3c0.1,1.7-0.1,3.5-0.4,5.2c-2.2,10.7-2.1,21.3,1,31.8
		c2.6,8.8,1.8,17.4-2.7,25.5c-1.6,3-3.2,5.9-4.9,8.8c-0.8,1.4-1.8,2.6-3.2,3.5s-2.8,0.7-3.9-0.5c-0.1-0.2-0.3-0.3-0.4-0.5
		c-0.8-1-1.3-2.1-1.6-3.3c-0.4-1.4-0.8-2.8-1.3-4.1c-0.1-0.3-0.3-0.5-0.5-0.7c-0.5-0.5-1.2-0.5-1.8,0.2c-1.6,1.8-3.3,3.5-4.8,5.4
		c-4.3,5.4-8.4,10.8-13.3,15.7c-2.1,2.1-3.3,4.7-3.6,7.7c-0.5,4.3-1.1,8.6-0.7,13.8c0,0.9,0.1,2.6,0,4.4c0,1.1,0,2.2-0.3,3.3
		c-1.1,4.5-5.4,6.7-9.7,5c-2.2-0.9-3.9-2.2-5.5-3.8c-0.8-0.8-1.5-1.6-2.1-2.6c-0.8-1.2-1.5-2.5-2.3-3.7c-0.1-0.1-0.2-0.2-0.3-0.3
		c-0.3-0.2-0.6-0.3-0.9-0.2c-0.4,0.1-0.8,0.5-0.9,0.9c-1.2,3.8-1.6,7.8-2,11.8c-0.6,5.9-1.1,11.8-0.9,17.7c0,0.6,0,1.2-0.1,1.8
		c0,0.2,0,0.3,0,0.5h91.8c0.3-0.1,0.5-0.3,0.8-0.5c1-0.6,1.9-1.4,2.8-2.1c0.1-0.1,0.3-0.2,0.4-0.4c-0.1-0.7-0.1-1.4-0.1-2.2
		c-0.4-7.7,1.4-15.2,3.9-22.5c0.8-2.4,1.5-4.8,1.9-7.4c0.6-4.3,2-8.4,3.6-12.4c0.6-1.6,1.2-3.3,1.7-5c0.4-1.4,0.3-2.8-0.3-4.2
		c-0.4-1.1-1.1-1.9-1.9-2.4c-1.2-1-2.7-1.3-4.5-0.8c-2.3,0.6-4.6,1.6-6,3.7c-2.3,3.5-5.6,5.6-9.1,7.6c-2.3,1.3-4.7,1.8-7.4,1.9
		c-2,0.1-3.8-0.6-5.3-1.7c-2.5-2-3.8-5.2-3.3-7.9c1.1-6.1,2-12.3,6.1-17.4c1.4-1.7,2.1-3.6,2.4-5.7c1.1-7.6,2.7-15.1,4.3-22.6
		c0.4-2,0.4-4.1,0.4-6.2c0.1-3.2-0.1-6.4-0.1-9.6c0-1.8-0.1-3.6,0.3-5.3c1.2-4.8,1-9.5,0.8-14.3c-0.3-9.7,0.5-19.5,2.1-29.1
		c0.9-5.4,2.5-10.6,4-15.8c1.2-3.8,5.4-6.5,9.3-6.3c1,0.1,1.9,0.3,2.7,0.7c1.3,0.7,2.4,1.9,3.1,3.4c0.9,1.9,1.3,3.9,1.2,6.1
		c-0.1,1.8-0.3,3.5-0.4,5.3c-0.1,4.7,0.3,9.2,1.9,13.7c2,5.3,2.2,10.9,2.8,16.5c0.3,3,0.5,6.1,1.1,9c2,10.4,4.2,20.7,8.4,30.5
		C734.1,580.7,739.1,587.3,745.8,592.5z"/>
	<path class="st2" d="M235.4,636.8c-8.7-7.9-18.8-14.4-29.4-19c-1.1-0.5-2.3-1-3.4-1.4c-4.7-1.8-8.8-5.1-13.3-7.4
		c-4.7-2.4-9.6-4.3-14.7-5.8c-10-3.1-20.5-4.6-30.9-5.7c-1.3-0.2-2.5-0.3-3.8-0.2c-3.3,0.2-6.4,1.7-9.6,2.2c-3,0.5-6,0.3-9,0.5
		c-4.5,0.3-9.1,0.8-13.6,1.5c-8.9,1.5-17.9,4-25.9,8.5c-1.9,1.1-3.7,2.4-5.4,3.9c-0.8,0.6-1.5,1.3-2.2,1.9l-6.8,3
		c-4.6,2.2-8.9,4.9-12.9,8.1s-7.7,6.9-10.9,10.8c-3.2,3.9-6,8.2-8.3,12.8c-7.2,14.2-9,30.8-5.8,46.3c0.3,1.4,0.6,2.8,1,4.2
		c0.1,0.7,0.3,1.3,0.5,1.9c0.4,1.3,0.9,2.5,1.5,3.6c0.6,1.1,1.3,2.2,2.2,3.2c0.9,0.9,2,1.8,3.2,2.3c0.4,0.2,0.9,0.3,1.3,0.4v-0.1
		c-0.5-1.5-0.9-2.8-1.2-4.3c-1.1-4.8-1.6-9.7-1.7-14.7c0,0,0,0,0-0.1c0.1-4.9,0.6-9.9,1.6-14.7c0.2-0.9,0.4-1.8,0.6-2.7
		c0.3-1.1,0.6-2.2,0.9-3.3c0.1-0.4,0.2-0.8,0.4-1.2c0.2-0.6,0.4-1.2,0.6-1.8c2.8-7.4,6.5-14.9,10.7-21.6c3.7-5.8,8.2-10.2,13.1-14.8
		c0.1-0.1,0.2-0.1,0.3-0.2c0.2-0.2,0.4-0.4,0.6-0.6c-2.5,2.3-5.8,9.8-7.7,13.7c-5,10.3-7,21.1-7.2,32c-0.2,8.5,0.8,17.1,2.3,25.7
		l3.6,20l0.4,2.9c0.7,5.2,15.1,2.4,18.1,1.4c-0.1,0-0.1,0-0.2,0c-0.6-0.3-0.8-2.9-0.9-3.3c0-0.1,0-0.1,0-0.2c0-0.1,0-0.2-0.1-0.2
		c-0.1-0.2-0.2-0.4-0.3-0.7c-2.3-5.9-2.7-11.7-3.9-17.9c-0.9-4.4-3.6-8.5-4.2-12.9c-0.1-0.6-0.1-1.2-0.2-1.7
		c-1.6-14.9,2.8-16.5,5.2-32.5c1.3-8.7,7.5-15.7,14-21.1c3.6-3,7.4-5.6,11.4-8.1c3.3-2,7.2-5.1,10.9-6.1l0,0
		c0.3,1.4-0.9,2.8-1.9,3.8c-3.7,3.7-7.1,7.8-10.1,12.2c-4.8,7.1-8.5,15-10.3,23.4c-0.1,0.3-0.1,0.6-0.2,0.9l0,0
		c-0.2,0.9-0.3,1.8-0.5,2.7c-0.6,4-0.8,8-0.8,12.1c0.2,12.2,3.1,24.3,8.6,34.9c1.6,3,3.3,6,4.1,9.3c0,0.1,0,0.1,0,0.2
		c0.6,0,1.2,0,1.8,0c0.3-0.1,0.6-0.1,0.9-0.1c0.4-0.1,0.7-0.1,1-0.1c1.7-0.2,3.3-0.4,5-0.5c1.4-0.1,2.9-0.3,4.3-0.5
		c1.1-0.2,2.3-0.3,3.4-0.5c8.7-1.3,16.5-4.1,20-13c0.3-0.8,0.5-1.6,0.5-2.4c0.2-3.3-1.5-6.4-2.5-9.6c-1.3-3.7-2.6-7.6-3.2-11.5
		c0-0.3-0.1-0.6-0.1-0.9v-0.1c0-0.3-0.1-0.8-0.2-1l0,0c-0.1-0.5-0.1-0.9-0.2-1.3c0-0.1,0-0.1,0-0.2c-0.1-0.6-0.1-1.2-0.2-1.8
		c-0.1-0.7-0.1-1.3-0.1-2s0-1.4,0-2.1c0-0.2,0-0.3,0-0.5l0,0c1.4-23.5,10.9-46.7,32.9-58.2c2.3-1.2,4.8-2.2,7.4-3l1-0.3l0.7,0.2
		l0.5-0.1l1.5-0.4l0.9-0.2h0.1l0.5-0.1l0.2-0.1h0.1l-2.6,2.2c-0.5,0.4-1,0.8-1.5,1.3c-3.9,3.5-7.5,7.5-10.6,11.8
		c-3.2,4.3-5.8,8.9-7.9,13.8c-4.2,9.7-6.1,20.4-5.3,31c0.5,6.7,1.9,13.3,4.3,19.6c0.9,2.3,1.9,4.6,3,6.9c0.5,0.9,1,1.8,1.5,2.7
		c1.2,2,2.5,5.6,4.8,6.5c1.2,0.5,2.5,0.3,3.8,0.2c6.5-0.5,13.1,1.6,19.5,0.1c4-1,7.2-3.4,10.3-6.1c0.4-0.3,0.7-0.7,1.1-1.1
		c0.8-0.8,1.5-1.7,2.2-2.6c0.1-0.1,0.3-0.3,0.4-0.5c0-0.3,0-0.7,0-1.1c0-0.1,0-0.3,0-0.5c0-0.1,0-0.1,0-0.2c0-0.3,0-0.5,0-0.8
		c0-0.2,0-0.3,0-0.4c0-0.2,0-0.3,0-0.4s0-0.3,0-0.5c0-0.1,0-0.2,0-0.3c0.1-0.2,0.1-0.3,0.1-0.5c0-0.1,0-0.2,0-0.3
		c0-0.2,0.1-0.5,0.1-0.7v-0.1c0-0.2,0.1-0.4,0.1-0.6c0-0.1,0-0.1,0-0.2c0.1-0.2,0.1-0.5,0.2-0.7c0-0.1,0-0.1,0-0.1
		c0.1-0.2,0.1-0.5,0.2-0.7c0.1-0.1,0.1-0.1,0.1-0.2c0-0.2,0.1-0.5,0.2-0.7c0.9-2.5,2.3-4.7,3.6-7c0.2-1.1,0.5-2.2,0.7-3.3
		c0.2-0.9,0.4-1.8,0.6-2.7c0-0.1,0-0.1,0-0.1c0-0.3,0.1-0.5,0.1-0.8c0.1-0.1,0.1-0.3,0.1-0.4c0-0.1,0-0.3,0-0.4
		c0-0.6-0.1-1.2-0.2-1.7c0-0.1,0-0.1,0-0.2c-0.1-0.3-0.1-0.6-0.2-0.9c-0.1-0.4-0.3-0.9-0.4-1.4c0.9-1.7,1.8-3.4,2.9-4.9
		c1-1.4,2.1-2.7,3.4-3.8c0.6-0.5,1.3-1,2-1.5c0.4-0.3,0.7-0.5,1.1-0.7c0.3-0.2,0.7-0.4,1.1-0.6c4.7-2.3,9.7-2.2,14.7-0.9
		c0.1,0,1.1,0.3,1.1,0.3l-0.3-0.2l-0.7-0.6l-1.9-1.4l-1-0.8c-0.7-0.5-1.4-1-2.1-1.5c-2.8-1.9-5.8-3.7-9.1-4.9
		c-1.7-0.6-3.4-1-5.1-1.2c-0.8-0.1-1.6-0.1-2.4-0.1c0,0,0.1-0.1,0.1-0.2c0.1-0.1,0.1-0.2,0.2-0.2c0.5-0.7,1.1-1.3,1.7-1.9
		c0.1-0.2,0.3-0.3,0.5-0.5c0.1-0.1,0.1-0.1,0.1-0.1c0.5-0.5,1-1,1.6-1.4c0-0.1,0.1-0.1,0.1-0.2v0.1c9.5-7.3,22.1-4.2,30.1,3.7
		l0.1,0.1c0.1,0.1,0.3,0.3,0.4,0.5c0.2,0.2,0.4,0.5,0.7,0.7c0.2,0.3,0.5,0.5,0.7,0.8c0.1,0.2,0.3,0.3,0.4,0.5
		c5.2,6.2,8.6,13.8,12,21.2c0.4,0.7,0.7,1.4,1.3,2c0.1,0.1,0.1,0.1,0.2,0.2c1.7,1.5,4.3,0.6,6.5,1.1
		C255.5,659.6,246.6,647,235.4,636.8z"/>
	<path class="st2" d="M652.5,450.2c-0.2,0.1-0.4,0-0.5,0.1c-4.9,4.7-9.7,9.6-14.7,14.3c-1.7,1.5-2.5,3.2-2.6,5.4
		c-0.1,2.9-1.1,5.6-2.4,8.2c-2.2,4.4-4.5,8.9-6.4,13.4c-1.2,2.8-2.6,5.4-4.3,8c-2.2,3.5-4.2,7.2-6.2,10.8c-0.6,1.1-1,2.4-1.3,3.6
		c0,0.1,0,0.3,0,0.4c0,0.3,0.1,0.7,0.3,0.9c0.4,0.4,0.9,0.2,1.3-0.1c1-0.8,1.9-1.7,2.8-2.6c2.1-2.2,4.3-4.3,6.9-5.9
		c1.8-1.2,3-2.8,4.1-4.6c4.6-7.7,10-14.7,16.6-20.9c2.2-2.1,4.4-4.2,6.3-6.5c4.4-5.2,6.7-11.5,8.2-18.1c0-0.1,0.1-0.3,0.1-0.4
		c0.2-0.8,0.3-1.7-0.3-2.3c-1.1-0.9-1.7,0.4-2.4,0.8c-2.8,1.6-4.5,0.9-5-2.3c0-0.1,0-0.1,0-0.2c0-0.3,0.1-0.6,0.1-0.9
		C653.1,450.9,653,450.5,652.5,450.2z"/>
</g>
<g>
	<path class="st3" d="M745.8,592.5c-6.7-5.2-11.7-11.8-15-19.6c-4.2-9.8-6.4-20.1-8.4-30.5c-0.6-2.9-0.8-6-1.1-9
		c-0.6-5.6-0.8-11.2-2.8-16.5c-1.6-4.5-2-9-1.9-13.7c0.1-1.8,0.3-3.5,0.4-5.3c0.1-2.2-0.3-4.2-1.2-6.1c-0.7-1.5-1.8-2.7-3.1-3.4
		c-0.8-0.4-1.7-0.6-2.7-0.7c-3.9-0.2-8.1,2.5-9.3,6.3c-1.5,5.2-3.1,10.4-4,15.8c-1.6,9.6-2.4,19.4-2.1,29.1
		c0.2,4.8,0.4,9.5-0.8,14.3c-0.4,1.7-0.3,3.5-0.3,5.3c0,3.2,0.2,6.4,0.1,9.6c0,2.1,0,4.2-0.4,6.2c-1.6,7.5-3.2,15-4.3,22.6
		c-0.3,2.1-1,4-2.4,5.7c-4.1,5.1-5,11.3-6.1,17.4c-0.5,2.7,0.9,6,3.3,7.9c1.5,1.1,3.3,1.8,5.3,1.7c2.7-0.1,5.1-0.6,7.4-1.9
		c3.5-2,6.8-4.1,9.1-7.6c1.4-2.1,3.7-3.1,6-3.7c1.8-0.5,3.3-0.2,4.5,0.8c0.8,0.6,1.5,1.4,1.9,2.4c0.6,1.4,0.7,2.8,0.3,4.2
		c-0.5,1.7-1.1,3.4-1.7,5c-1.6,4-3,8.1-3.6,12.4c-0.4,2.6-1.1,5-1.9,7.4c-2.5,7.3-4.3,14.8-3.9,22.5c0,0.7,0.1,1.4,0.1,2.2
		c0.1-0.1,0.2-0.2,0.3-0.2c0.6-0.6,1.3-1.2,1.9-1.8l0.1-0.1c0.3-0.3,0.5-0.7,0.8-1c2.3-3.2,4.6-6.4,6.8-9.7c0.6-0.9,1.3-1.9,1.9-2.8
		c0.2-0.4,0.4-0.7,0.6-1.1c0.6-1,1.3-2,2-2.9c0-0.1,0.1-0.1-0.1,0.5c2.9-4.2,5.9-8.4,9.1-12.4c1.3-1.5,2.5-3.1,3.8-4.6l2-2.3l1-1.1
		c0.3-0.4,0.7-0.7,1-1.1l2-2.2c0.7-0.8,1.4-1.5,2.1-2.2c1.4-1.4,2.9-2.8,4.3-4.2l0.5-0.5l0.6-0.5l1.1-1c0.7-0.7,1.4-1.3,2.2-2
		l2.3-1.9l1.2-1c0.4-0.3,0.8-0.6,1.2-0.9l2.4-1.9l0.6-0.5l0.6-0.4l1.2-0.9l0.4-0.3l0.5-0.4c-1.5-3.8-3.5-7.3-6.4-10.4
		C752.2,598.2,749.2,595.2,745.8,592.5z"/>
	<path class="st3" d="M355.8,628.3c-0.9-0.6-1.8-1.2-2.8-1.7c-0.1-0.1-0.3-0.1-0.4-0.2c0,0-0.1,0-0.1-0.1c-3.2-1.6-6.2-3.4-9-5.5
		c-1.5-1.1-2.9-2.2-4.4-3.4c-7.6-6.4-13.3-14.2-16.5-23.7c-2-6.3-3.3-12.7-4.1-19.2c-1-8-0.8-15.9-0.4-23.9
		c0.2-3.8,0.7-7.7,0.7-11.5c0-1.8,0-3.5,0-5.3c0-3.1-0.6-6.1-2-8.8c-4.2-8-6.6-16.6-9-25.2c-0.9-3.4-2.1-6.7-3.7-9.9
		c-1.1-2.4-2.7-4.3-4.6-6.1c-0.8-0.7-1.6-1.4-2.5-1.8c-1.6-0.8-3.3-1.2-5.1-1c-0.8,0.1-1.7,0.3-2.3,0c-0.1-0.1-0.2-0.1-0.3-0.1
		c-0.2-0.1-0.4-0.2-0.6-0.3c-0.1,0-0.3-0.1-0.4-0.1s-0.1,0-0.2,0c-1.3-0.1-2.2,0.9-3,2.3c-0.7,1.2-1.8,2.2-2.8,3.3
		c-1.2,1.3-2.2,2.8-2.4,4.6c-0.3,2.8-1.6,5.2-2.8,7.6c-4.5,8.8-8.9,17.7-12.5,26.9c-1.6,4.2-3.9,8-6.7,11.5
		c-4.2,5.3-7.7,11.1-9.8,17.5c-3.4,10.5-6.4,21.1-7.1,32.2c-0.4,5.8,0.1,11.5,1.4,17.1c1.9,8.3,5.7,15.2,13.5,19.5
		c2.1,1.1,3.5,2.8,4.1,5.1c0.2,0.9,0.6,1.8,0.9,2.7c3.6,12.5,9.8,23.5,17.7,33.8c2.4,3.1,5,5.8,8.1,8.2c1.6,1.3,3.3,2.5,4.9,3.7h0.2
		h63.8c-0.3-2-0.2-4,0.2-6.1c0.7-3.8,1.6-7.5,2.8-11.2c1.7-5,2.9-10.1,3.9-15.3c0.5-2.4,0.2-4.8-0.5-7.1
		C360.8,633.1,358.6,630.3,355.8,628.3z"/>
	<path class="st3" d="M557.7,301.2c-0.9-1.7-2-3.3-3-4.9c-2.3-3.4-3.1-7-2.1-10.9c1.9-7.5,2.5-15.1,3.6-22.7
		c0.9-6.3-0.3-12.1-2.3-17.8c-1.2-3.3-2.5-6.6-5-9.2c-1.8-1.8-2.5-3.9-2.7-6.4c-0.2-4.2-1.6-8.1-4-11.6c-2.3-3.4-4.7-6.9-7-10.3
		c-0.9-1.3-1.9-2.5-2.2-4.2c-0.7-4.2-2-8.4-2.2-12.7c-0.2-3.9-1.2-7.6-3.5-10.8c-4.5-6.3-11-7.9-17.1-2c-0.9,0.9-1.9,1.8-2.9,2.5
		c-1.1,0.9-2,0.6-2.7-0.6c-0.5-1-1-2-1.4-3c-1.1-3-2.9-5.7-4.8-8.3c-2.7-3.6-6.3-5.8-10.8-6.5c-2.4-0.4-4.7,0.1-6.5,1.2
		c-1.9,1.2-3.3,3-4.1,5.4c-0.7,2.1-0.8,4.4-0.4,6.6c0.5,3,1.4,5.9,2.7,8.7c1,2.1,1.8,4.2,2.4,6.3c0.5,2,0.6,3.8-0.5,5.4
		c-0.4,0.5-0.9,1-1.6,1.5c-0.3,0.2-0.5,0.4-0.7,0.6c-0.7,0.7-1.2,1.5-1.5,2.3c-0.7,2.2-2.2,3.9-3.5,5.7c-0.2,0.3-0.4,0.5-0.6,0.8
		c-1.7,2.4-3.2,4.8-4.5,7.3c-0.6,1.3-1.2,2.6-1.6,4c-0.5,1.6-0.8,3.1-0.2,4.7c0.8,2.4,2.9,3.4,5.3,2.8c1-0.3,1.8-1.4,3.3-0.9
		c0.1,1.9,0,4,0.2,6c0.4,3.5,0.4,6.9-2.5,9.5c-0.1,0.1-0.1,0.1-0.2,0.2c-4.7,7.3-7,15-3.4,23.6c0.7,1.6,1.2,3.3,1.7,5
		c1.3,4.1,1.1,8.1-0.4,12.2c-1.5,4.2-3.6,7.9-6.8,11c-0.5,0.5-0.9,0.9-1.4,1.4c-0.9,0.8-1.7,1.6-2.6,2.4c-0.8,0.8-1.6,1.7-2.4,2.6
		c-0.2,0.2-0.4,0.4-0.5,0.6c-0.7,0.8-1.3,1.7-1.9,2.7c-1.1,1.9-1.7,3.9-2.1,6.1c-0.5,2.9,0.7,5.3,3,7.1c2.2,1.7,4.5,1.2,6.8,0.1
		c0.7-0.4,1.4-0.8,2.1-1.2c10.4-6.8,21.9-11,33.9-14.1c3.4-0.9,6.9-1.5,10.4-1.7c8.5-0.4,16.5,1.4,24.1,5.1
		c3.6,1.8,7.2,3.7,10.7,5.5c2,1.1,4.1,1.9,6.3,2.4c1.9,0.4,3.8,0.1,5.6-0.6c0.6-0.2,1.1-0.6,1.6-1c1.3-1.2,1.7-2.8,1.1-4.7
		C558.7,303.2,558.3,302.2,557.7,301.2z"/>
	<path class="st3" d="M325.4,138.9c1.8,3.3,4.5,5.8,7.8,7.6c3.5,1.9,7,1.8,10.5-0.1c2.4-1.3,4.5-3,6.6-4.8c3.4-2.9,6.7-5.9,10-8.9
		c5.2-4.6,10.9-8.4,17.2-11.2c1-0.5,2.1-0.9,3.1-1.1c1.2-0.3,2.3,0,3,0.8c0.3,0.3,0.5,0.6,0.7,1c0.8,1.6,1.3,3.2,1.9,4.9
		c0.4,1.1,0.8,2.1,1.4,3c1.7,2.9,4,5.1,7,6.9c1.9,1.1,3.9,1.6,5.9,0.2c2-1.5,1.9-3.5,1.5-5.7c-0.4-2-1-4-1.3-6.1
		c-0.6-5,0.8-9.2,5.6-11.7c2.7-1.4,5.2-3.2,7.2-5.5c4.2-4.7,9.6-7.3,15.4-9.3c2.3-0.8,4.3-1,6.3,0.8c1.9,1.7,4.1,1.6,6.3,0.9
		c1.4-0.4,2.7-1,4-1.5c2.5-1,5-1,7.5,0.1c1.8,0.7,3.6,1.4,5.3,2.2c1.5,0.6,2.8,1.4,3.9,2.5c1.1,1,1.9,2.3,2.5,3.8
		c0.3,0.9,0.7,1.8,1.2,2.6c0.2,0.3,0.4,0.6,0.7,0.9c0.7,0.7,1.6,1.2,2.7,1.1c1.6-0.1,2.6-1.1,3.2-2.6c0.5-1.3,1-2.7,1.1-4.2
		c0.5-5,2.3-9.6,4.5-14.1c0.8-1.7,1.7-3.5,2.4-5.2c0.4-1,0.9-2.1,1.1-3.2c0.3-1.6-0.4-3.6-1.9-4.8c-0.9-0.7-2-1.1-3.3-0.9
		c-5,0.6-9,2.7-12.5,6.3c-5.1,5.3-10.8,6.1-17.4,2.8c-3.1-1.5-6.1-2.9-9.5-3.3c-0.5-0.1-1-0.2-1.4-0.7c-0.2-0.2-0.3-0.4-0.4-0.6
		c1.1-1.1,2.5-1.7,4-2.3c3.8-1.6,6.8-4.2,9.2-7.5c2.6-3.6,5.6-6.5,9.5-8.6c0.6-0.3,1.1-0.7,1.6-1.1c1.7-1.3,3.4-2.7,2.9-5.1
		c-0.1-0.8-0.5-1.4-1-1.9c-0.8-0.8-1.9-1.3-3-1.7c-2.8-1.1-5.7-1.1-8.5-0.4c-3.9,0.9-7.7,2-11.6,3c-2.6,0.7-5.2,1.5-8,1.2
		c-4-0.5-8-0.8-11.9-1.5c-9.9-1.8-19.7-2-29.6-0.3c-11.1,1.9-20.7,6.4-27.4,15.9c-1.6,2.2-3.6,4.1-5.9,5.6
		c-16.5,10.6-26.7,25.8-32,44.5c-1.4,5.2-0.8,10.2,1,15.2C324.8,137.5,325.1,138.2,325.4,138.9z"/>
	<path class="st3" d="M563.2,137.9c-0.3,0.7-0.7,1.4-0.9,2.2c-1.7,5.2-2.9,10.5-2.6,16c0.1,2.6,0.6,5.1,1.8,7.4
		c1.5,2.9,4.1,4.3,6.8,4.2c2.1-0.1,4.2-1.2,5.7-3.2c1-1.3,1.7-2.7,2.1-4.3c0.6-2.3,1.2-4.6,1.8-7c1.1-4,2.3-8,4.7-11.5
		c4.1-5.8,8.7-11,13.8-15.9c3.5-3.4,7.5-5.4,11.8-5.9c2.6-0.3,5.4-0.2,8.3,0.5c1.4,0.3,2.8,0.6,4.2,0.9c0.2,0,0.3,0.1,0.5,0.1
		c1.5,0.1,3-0.3,4.4-1.1c3.6-2.1,4.1-6.4,1.1-9.3c-1.1-1.1-2.5-2-4-2.5c-3.3-1-6.6-1.9-10.1-1.9c-1.1,0-2.3,0.1-3.4,0.3
		c-3.3,0.6-6.6,1.3-9.9,1.9c-0.8,0.2-1.6,0.2-2.2,0.2c-1.9,0-3-1-4.1-3.3c-0.5-1.2-0.8-2.4-0.8-3.7c0-2.2,0.2-4.5,0.7-6.7
		c0.6-2.5,0.9-5,1.5-7.5c0.9-3.8,0.5-7.3-1.6-10.6c-1.1-1.8-1-2.9,1.3-4.2c2.8-1.6,5.7-2.9,8.7-4.1c5.3-2,10.7-3.3,16.1-4.6
		c3.8-0.9,7.3-2.3,10.5-4.4c3.1-2,4.4-4.9,4.1-8.6c-0.2-2.6-1.3-4.3-3.7-5c-4-1-7.9-1.9-12.1-1.7c-0.1,0-0.3,0-0.4,0
		c-6.8,0.6-13.3,2-19.7,4c-1.6,0.5-3.1,0.9-4.7,1.1c-5.2,0.7-10.4,1.2-15.5,1.1c-0.8,0-1.5,0-2.3,0c-5.7-0.1-11,1.1-16.3,3
		c-5.5,2-9.9,5.2-12.8,10.3c-0.9,1.5-1.8,3-3.3,4c-6.1,4.3-10.5,10.2-14.6,16.2c-3.2,4.4-5.6,9.3-7,14.6c-1.3,5.2-1.2,10.2,3.3,14.1
		c1.6,1.5,2,3.2,1.3,5.2c-0.5,1.4-1,2.7-1.4,4.1c-1.9,6-2.5,12.2-2.9,18.4c-0.2,3.1,0.3,6.1,1.2,9c0.7,2.2,1.9,4.1,3.8,5.4
		c0.8,0.5,1.6,0.8,2.4,0.9c1.2,0,2.4-0.4,3.5-1.5c0.9-0.9,1.5-2.1,1.8-3.3c0.5-1.8,1.1-3.7,1.4-5.6c1.2-7.9,5.6-13.8,11.3-19
		c1.3-1.2,2.8-2.1,4.6-2.5c0.7-0.2,1.4-0.2,2-0.2c1.8,0,3,0.8,3.7,2.7c0.8,2.1,2,4,4.1,5.1C564.8,133.6,564.3,134.7,563.2,137.9z"/>
	<path class="st3" d="M637.4,372.4c-2.2-0.1-4-0.5-5.5-2.2c-3.6-4-8.2-6.7-12.8-9.2c-2.1-1.1-4.2-2.4-6.3-3.5
		c-3-1.6-5.4-3.8-7.2-6.8c-1.6-2.7-3.7-4.8-6.6-6.1c-1.5-0.6-2.7-1.6-3.5-3.1c-1.8-3.3-4.6-5.7-7.4-8.1c-1.1-0.9-2.4-1.6-3.7-2.2
		c-2.5-1.1-4.8-0.4-6.3,1.9c-1.1,1.8-2,3.7-2.1,5.8c0,0.4,0,0.8,0,1.3c0,2.9,0.5,5.7,2.1,8.3c1.2,1.8,1.7,3.7,1.7,5.9c0,0,0,0,0,0.1
		l0,0c-0.1,6.4-0.1,12.8-0.2,19.2c0,1.6-0.2,3.2-0.7,4.7c-1.1,3.3-2.1,6.7-3.3,10c-1.4,3.9-2.8,7.7-5.4,11.1c-1.1,1.4-1.7,2.9-2,4.4
		c-0.5,3.4,1.1,6.9,4.1,9.6c2.2,1.9,4.7,3.4,7.6,4c3.1,0.6,6.3,1.2,9.4,1.6c3.5,0.5,6.7-0.5,9.7-2.2c1.7-1,2.6-2.3,2.7-3.9
		c0-0.9-0.2-1.9-0.8-3c-1.4-2.5-3.5-4.2-5.7-5.8c-2.1-1.5-4.1-3-6.2-4.5c-1.3-0.9-2.3-2.1-3.2-3.5c-0.7-1.1-1-2.3-1-3.4
		c0-0.7,0.2-1.4,0.5-2.2c1.7-3.8,3.4-7.6,4.6-11.6c0.6-1.9,2.3-2.6,4.2-2.2c3.7,0.9,7.5,1.6,11.2,2.8c6,1.9,12,3.4,18.3,3.7
		c1.9,0.1,3.9,0.3,5.4,1.6c1.8,1.6,3.8,2.9,6.1,3.6c1.4,0.4,2.1,1.5,2.1,2.9c0.1,1.6,0.1,3.2,0.1,4.8l0,0c0,0,0,0,0,0.1
		c0,0.8,0,1.5,0,2.3c0,1.3,0.1,2.6,0.4,3.8c0.2,0.6,0.3,1.2,0.4,1.7c0.2,1.7-0.1,3.3-1.2,4.8c-0.1,0.1-0.2,0.3-0.2,0.4s0,0.1,0,0.2
		s0,0.2,0,0.2c0,0.1,0,0.2,0,0.3v0.1c0,0,0,0.1,0.1,0.1c0,0.1,0.1,0.1,0.1,0.2c0.1,0.1,0.4,0.2,0.6,0.2c1,0.1,1.9-0.2,2.7-0.7
		c2.5-1.4,5-2.8,7.5-4.2c2.1-1.2,3.8-2.7,5-4.3c1.8-2.5,2.7-5.3,2.9-8c0-0.1,0-0.3,0-0.4C655.6,381.1,647.7,372.8,637.4,372.4z"/>
	<path class="st3" d="M797.9,108.3c-3.2-3.5-6.5-7-10.3-10c-2.2-1.7-4-3.6-5.8-5.7c-4.1-4.9-8.6-9.4-14.1-12.8
		c-1.5-0.9-3-1.7-4.6-2.3c-2.7-0.9-5.4-1.1-8.3-0.6c-2.2,0.4-4.2,0.2-6.2-0.6c-0.3-0.1-0.7-0.2-1-0.4s-0.7-0.3-1.1-0.5
		c-1-0.3-2.1-0.5-3.2-0.1c-0.6,0.2-1.1,0.7-1.4,1.2c-0.3,0.6-0.1,1.3,0.4,1.7c0.6,0.7,1.5,1.3,2.5,1.9c2.2,1.3,4,3.2,5.7,5.1
		c4.8,5.6,6.4,12.4,6.8,19.5c0.4,7.4-0.7,14.6-2.8,21.8c-1.4,4.8-3,9.4-4.9,14c-1.3,3-2,6.1-1.8,9.3c-0.2,3.1,0.3,6.1,2.3,8.6
		c1.2,1.6,2.6,2.7,4.3,3.2c1.3,0.3,2.7,0.3,4.2-0.1c5-1.5,10.1-2.9,14.8-5.4c6.8-3.5,11.7-8.8,14.3-16c0.5-1.4,1-2.7,1.4-4.1
		c1.4-5.2,4-9.4,8.6-12.3c0.4-0.3,0.7-0.6,1.1-0.9c2-1.7,2.8-3.8,2.7-6.4C801.4,113.2,800,110.6,797.9,108.3z"/>
	<path class="st3" d="M455.2,405.9c-1.5-0.9-3.2-1.4-4.8-2.1c-2.1-0.9-4.2-1.6-6.2-2.6c-2.5-1.5-4.1-3.9-4.4-7.2
		c-0.1-1.4-0.2-2.9-0.2-4.3c0.2-5-1-9.8-2.1-14.6c-0.2-0.9-0.5-1.9-1-2.7c-0.9-1.8-2.3-2.9-3.9-3.3c-1.3-0.2-2.8,0.2-4.1,1.2
		c-2.6,1.8-4.5,4.1-5.7,7c-1,2.2-1.8,4.4-2.5,6.7c-0.7,2.2-1.8,4-3.8,5.3c-2.9,1.9-5.2,4.3-7.2,7c-1.5,2.1-3.4,3.4-5.7,4.3
		c-3.8,1.5-7.7,2-11.7,2.4c-0.3,0-0.6,0-0.8,0c-1.9,0-3.3-0.9-4.1-2.8c-0.6-1.5-1.1-3-1.8-4.4c-1-1.8-2.4-2.8-4-3
		c-1.1-0.1-2.2,0.2-3.4,0.7c-2.6,1.2-4.3,3.2-5.3,5.9c-1.3,3.7-1,7.3,0.4,10.8c1.1,2.9,1.8,5.8,2.7,8.7c1.2,3.8,2.4,7.6,4,11.3
		c2,4.7,5.6,8.1,10.5,9.9c1.3,0.5,2.5,0.7,3.7,0.7c3.7-0.1,6.8-2.3,8.4-6.2c1.3-3,1.1-5.9,0-8.9c-0.7-1.9-1.5-3.9-1.7-6
		c-0.1-0.7,0.5-1.3,1.2-1.1l0,0c0.1,0,0.2,0,0.4,0c1.1,0.2,2.1,0.7,3.2,1c5.9,1.9,11.6,4.1,18.2,3.9c0.1,0,0.2,0,0.2,0
		c1.1,0,2.2-0.1,3.3-0.2c1.2-0.1,2.4-0.3,3.6-0.5c7-1.2,13.5-3.8,20.3-5.5c1.9-0.5,3.5-1.6,5-2.8C459.2,411.8,459,408.1,455.2,405.9
		z"/>
	<path class="st3" d="M683.7,320.9c0.5-0.3,1.1-0.6,1.6-0.9c0.6-0.4,1.3-0.8,1.9-1.2c2.6-1.5,5.3-2.7,8.3-3.4c1.6-0.4,3.1-1,4.4-1.7
		c0.1-0.1,0.3-0.2,0.4-0.2c0.2-0.1,0.3-0.2,0.4-0.3c3.5-2.2,6-5.5,7.8-9.7c2.1-4.8,3.2-9.7,2.7-14.2c0.1-9-1.6-16.9-5.7-24.2
		c-0.7-1.2-1.4-2.5-2-3.8c-2.1-4.2-5.4-7.5-9.3-10.1c-3.6-2.5-7.8-3.6-12.2-3.6c-1.1,0-2.2,0.2-3,0.6c-1.4,0.7-2.4,1.9-3,3.6
		c-0.8,2.5-2,4.7-3.1,7s-2.1,4.7-2.2,7.3c0,1.5-0.4,2.9-1.1,4.1c-2.5,4.4-2.1,8.5,0.9,12.5c1.3,1.8,2,4,2.6,6.2
		c0.7,2.6,0.7,5-0.6,7.4c-0.9,1.7-1.5,3.5-1.6,5.5c-0.2,2.4-0.5,4.8-0.7,7.1c-0.3,4,0.6,7.6,3.2,10.7c2.4,2.9,5.2,3.5,8.6,2.1
		C682.6,321.5,683.2,321.2,683.7,320.9z"/>
	<path class="st3" d="M242.3,141.8L242.3,141.8c3.3-1.2,5.3-3.4,5.8-6.9c0.2-1.7,0.5-3.5,0.5-5.2c0-4-0.1-8,0.8-11.9
		c0.3-1.6,0.2-3.2-0.4-4.7l0,0c-1.4-3.3-4.7-4.6-7.9-2.9l0,0c-0.8,0.4-1.6,1.1-2.3,1.7l0,0l0,0c-1.9,1.8-3.3,3.9-4.6,6.1
		c-4.4,7.8-8.5,15.7-13,23.4l0,0l0,0c-3.6,6.2-7.5,12.3-12.2,17.7l0,0l0,0c-2.7,3.2-5.1,6.6-6.9,10.3c-1.1,2.4-1.8,4.8-1.7,7.3
		c-0.1,2.2,0.3,4.2,1.2,6.1c1,1.9,1.6,3.8,1.8,5.9c0.2,1.2,0.5,2.3,1.1,3.4c0.2,0.3,0.4,0.7,0.7,1c1.4,1.8,3.2,2.7,5,2.7
		c1.4,0,2.9-0.6,4.2-1.7s2.3-2.4,3.2-3.8c0.3-0.5,0.6-1,0.9-1.5l0,0c1.7-3.3,3-6.7,4.1-10.2c3-9.8,6.7-19.3,10.2-28.9
		c1.1-3.1,3.1-5.1,5.9-6.6l0,0c0.3-0.2,0.6-0.3,0.9-0.4c0.6-0.2,1.2-0.4,1.8-0.6C241.7,142,242,141.9,242.3,141.8z"/>
	<path class="st3" d="M310.2,291.8c-0.5,4.3,0.5,8.3,3.4,11.6c4.2,4.8,10,5.3,14.9,1.2c0.5-0.5,1.1-1,1.6-1.4
		c1.5-1.5,2.9-3.1,4.1-4.9c1.1-1.7,2.4-3.3,3.9-4.7c0.5-0.5,1.1-1,1.7-1.4c1-0.8,1.9-1.7,2.9-2.5c0.8-0.7,1.5-1.5,2.1-2.4
		c0.9-1.5,1.2-3.2,0.9-5.1c-0.3-2.5-0.9-5.1-0.9-7.6c0.1-6.2-3-11.3-5.3-16.7c-0.4-1-1.3-1.9-2.1-2.6c-3.2-3-7-3.4-10.4-0.6
		c-0.4,0.3-0.8,0.7-1.3,1c-2.3,1.9-4.8,3.7-7,5.7l0,0c-0.3,0.3-0.6,0.6-0.9,0.9c-0.1,0.1-0.3,0.3-0.4,0.4c-0.4,0.4-0.8,0.8-1.2,1.2
		c-4.5,4.8-6.8,10.5-6,17C310.5,284.6,310.7,288.1,310.2,291.8z"/>
	<path class="st3" d="M371.1,182.8c3.6-0.7,7.2-1.6,10.9-0.7c1.8,0.4,3.8,0.3,5.7,0.3c2.4,0,4.8-0.1,7.2,0c5.2,0.2,9.5,2.4,12.8,6.5
		c0.9,1.2,1.8,2.3,2.6,3.5c2.2,3.4,5.6,5.2,9.1,6.7c0.4,0.2,0.9,0.3,1.3,0.2c0.1,0,0.1,0,0.2-0.1c0,0,0.1,0,0.1-0.1
		c2.6-1.6,4.4-3.7,4.3-7.1c0-1.7-0.5-3.4-1.2-5c-1.5-3.7-4.3-6.3-7.8-8.1c-5.9-3.1-11.6-6.5-18.4-8c-5.7-1.3-11-1.6-16.5,0.2
		c-2.9,1-5.9,1.4-9,1.4c-2,0-3.8-0.2-5.3-1.7c-0.9-0.9-2.1-1.5-3.4-1.5c-2.1,0-3.6-1-5.1-2.4c-1.9-1.8-4.1-3-6.5-3.9
		c-2.1-0.7-4-0.6-5.6,0.4c-0.1,0.1-0.2,0.2-0.3,0.2l0,0c-0.8,0.6-1.4,1.4-1.9,2.4c-1.8,3.4-1.9,6.9,0.6,9.9c1.5,1.8,1.5,3.4,0.6,5.3
		c-0.7,1.6-1.5,3.2-2,4.9c-1.8,5.3,1.7,8.9,7.1,7.7c1.1-0.2,2.1-0.6,3.1-1.1s1.9-1,2.8-1.6c1.2-0.8,2.5-1.6,3.7-2.5
		c0.3-0.2,0.6-0.4,0.9-0.6c1.2-0.8,2.5-1.7,3.7-2.5c1.1-0.8,2.3-1.4,3.5-1.9C369.2,183.3,370.1,183,371.1,182.8z"/>
	<path class="st3" d="M415.9,308.1c1.2-4.5,2.9-8.8,3-13.5c0-1.1,0.5-2.2,0.9-3.2c1.5-4.6,3.8-8.8,7.3-12.3c0.8-0.8,1.3-1.7,0.9-3
		c-0.3-1-0.8-1.6-1.4-1.7c-0.4,0-0.8,0.2-1.2,0.5c-1.6,1.4-3.1,2.9-4.1,4.7c-1.7,2.9-3.9,5.4-6.4,7.7c-2.6,2.4-4.8,5.1-6.7,8.1
		c-3.7,5.6-7.5,11.1-11.1,16.8c-3.4,5.3-6.2,10.9-5.5,17.6c0.1,1.9,0.2,3.8,0.4,5.7c0.1,1.1,0.4,2.2,0.7,3.3c0.7,2.3,2.3,3.6,4,3.5
		c1.1-0.1,2.2-0.6,3.2-1.7c1.2-1.2,2.1-2.8,3.2-4.2c3.3-4.4,6.9-8.4,11.8-11c1.1-0.6,2.2-1.3,3.1-2.2c1.6-1.4,1.6-3,0-4.5
		c-0.3-0.3-0.7-0.6-1.1-0.9c-1.9-1.2-2.3-3-2-5C415.1,311.2,415.5,309.7,415.9,308.1z"/>
	<path class="st3" d="M374.4,275c5-1.1,9.9-2.3,14.2-5.4c4.5-3.3,9.2-6.4,13.8-9.6c7.9-5.6,7.9-5.6,14.5-13.1c0.5-0.5,0.9-1,1.2-1.5
		c0.6-0.9,0.4-2-0.3-2.7c-0.4-0.4-1-0.7-1.6-0.7c-0.5,0-1,0-1.4,0.1c-3.2,0.8-6.6,1.4-9.7,2.7c-5.6,2.2-11.4,3.1-17.3,3.9
		c-3.8,0.5-7.6,1.2-11.3,1.9c-2.5,0.5-4.8,1.4-5.5,4c-0.7,2.3-1.7,4.5-2.7,6.6c-0.6,1.3-0.6,2.8-0.6,4.2c0,3.1,0.7,5.5,2.3,7.7
		c0.3,0.4,0.5,0.7,0.8,1C371.8,274.9,372.9,275.3,374.4,275z"/>
	<path class="st3" d="M572.3,224.4c1.6-2.2,2.9-4.6,3.7-7.2c1.1-3.6,2.9-6.8,5.1-9.7c1.5-2.1,2.6-4.4,3.5-6.8s0.2-4.5-1.8-5.9
		c-1.4-1-3.1-1.6-4.8-1.4c-0.2,0-0.3,0.1-0.5,0.1c-5.5,1.5-10.5,4-13.5,9.1c-2.9,4.9-4.1,10.3-4.4,16.4c0,0.8,0,2.1,0.2,3.4
		c0.5,3.9,3.9,6.1,7.7,5.3c0.2-0.1,0.5-0.1,0.7-0.2C569.9,226.9,571.2,225.9,572.3,224.4z"/>
	<path class="st3" d="M703.8,223.4c3.8-2.3,5.9-5.7,5.7-10.4c0-0.3,0-0.6,0-0.9c0-2.4-0.5-4.7-2.2-6.5c-2.3-2.2-3.6-4.8-4.5-7.8
		c-0.1-0.4-0.4-0.9-0.7-1.2c-0.2-0.2-0.6-0.2-0.9-0.2c-0.1,0-0.3,0.2-0.3,0.3c-0.1,0.6-0.3,1.2-0.3,1.7c0,0.2,0,0.3,0,0.5
		c0,0.3,0,0.7,0,1c0,2.3-0.9,4.3-2.7,5.9c-0.4,0.3-0.7,0.7-1,1.1c-0.4,0.5-0.7,1.1-1,1.7c-0.4,0.8-0.7,1.7-1,2.6
		c-0.4,1.2-0.6,2.4-0.5,3.5c0.1,1.9,0.7,3.8,1.4,5.7C697.2,224.1,700.4,225.4,703.8,223.4z"/>
</g>
<g>
	<path class="st4" d="M591.1,542.6c-0.5-5.7-1.1-11.1-1.6-16.5c-0.3-3.8-0.7-7.6-1.5-11.4c-2-8.8-5.6-16.9-10.3-24.6
		c-2.2-3.5-5-6.2-8.6-8.1c-2-1-4-1.9-6.2-2.6c-3-1-6-2-8.9-3.5c-2.7-1.4-5.7-1.9-8.8-2.3c-0.8-0.1-1.7-0.2-2.4,0
		c-1.9,0.6-3.7,1.3-5.4,2.1c-2.8,1.4-5.4,3.3-7.3,6.3c-2.5,3.8-4.5,7.7-5.6,12.1c-1.2,4.8-1.8,9.7-1.5,14.7
		c0.2,4.5,0.7,8.9,0.9,13.4c0.7,14.1,1.3,28.1,1.9,42.2c0.1,2.5,1.4,4.5,3.5,6.2c1.1,1,0.8,2.5,1,4c0.2,1.6-0.7,3.3-2.1,4
		c-0.2,0.1-0.4,0.2-0.6,0.3c-0.4,0.2-0.9,0.2-1.3,0.2c-8.5,1.4-10.9-4.8-7.5-10.7c3-19.4,0.6-58.6-0.8-67.9
		c-0.4-2.9-0.4-5.3-1.3-7.7c-0.5-0.9-1-1.7-1.6-2.6c-2-2.7-4.1-5.3-6.2-7.9c-1.4-1.8-3.3-3.1-5.4-3.9c-3.3-1.2-6.3-3.3-9.9-3.5
		c-0.9-0.1-1.9-0.5-2.7-1.1c-1.5-1-3.1-1-4.6-0.5c-9.3,2.6-18.3,5.9-26.1,11.8c-3,2.3-5.6,5-7.6,8.1c-1.2,1.9-2.1,4.1-2.8,6.4
		c-2.1,6.9-3.6,13.9-4.2,21.1c-0.8,9.7,0,19.2,3.3,28.4c2.5,6.9,5.1,13.8,7.4,20.8c4.7,14.3,12,27.2,20.3,39.6
		c3.2,4.9,7,9.1,11.4,12.9c6.2,5.3,13.1,9.2,21.1,10.8c7.3,1.5,14.6,1.9,22,1.1c4-0.4,8-0.8,12-1.2c0.2,0,0.3,0,0.5,0
		c1.5-0.4,3.1-0.8,4.5-1.3c1.1-0.4,2-0.3,2.9,0.1c0.1,0,0.1,0,0.2,0c4.3-1.1,8.1-3.2,11.3-6.4c0.4-0.5,0.9-0.9,1.3-1.5
		c4.5-5.6,8.6-11.6,11.7-18.1c4-8.6,6.7-17.6,9.9-26.5c0.4-1,0.6-2.2,0.8-3.3c1.5-7,2.9-14.1,4.5-21.1
		C591.6,550.9,591.7,546.7,591.1,542.6z"/>
</g>
</svg>
