<?xml version="1.0" encoding="utf-8"?>
<!-- Generator: Adobe Illustrator 24.0.1, SVG Export Plug-In . SVG Version: 6.00 Build 0)  -->
<svg version="1.1" id="New_group_1_" xmlns="http://www.w3.org/2000/svg" xmlns:xlink="http://www.w3.org/1999/xlink" x="0px"
	 y="0px" viewBox="0 0 990 781.2" style="enable-background:new 0 0 990 781.2;" xml:space="preserve">
<style type="text/css">
	.st0{fill:#7A490F;}
	.st1{fill:#2B1B08;}
	.st2{fill:#E4716B;}
	.st3{fill:#F5F5F5;}
</style>
<g>
	<path d="M830,749.3c-0.9,0.1-1.4,1-2,1.5c-2.2,2.1-4.3,4.3-6.6,6.2c-1.2,1-2.5,2-3.9,2.7c-4.4,2.3-8.8,1.1-11.3-3.2
		c-1.1-1.8-1.8-3.8-2.4-5.8c-1.1-3.7-1.7-7.5-1.4-11.4c0.2-2.4-0.7-4-2.7-5.2c-1.6-0.9-3.1-2-4.8-2.6c-5-2-8.4-5.5-10.1-10.6
		c-0.9-2.8-1.5-2.9-3.6-0.7c-1.7,1.8-2.9,3.8-3.6,6.2c-0.9,3.1-2.1,6-3.7,8.8c-2.3,4.1-5.3,7.5-9,10.5c-4.5,3.7-10.5,1.8-13.1-1.9
		c-1.6-2.3-3-4.8-3.7-7.5c-0.5-1.9-0.9-3.7-1.1-5.6c-0.2-2.4-1.2-4.3-3.4-5.4c-5.9-3.1-10.5-7.8-15.1-12.4c-1.6-1.6-3-3.3-3.9-5.4
		c-0.4-1-1.2-1.5-2.2-1.4c-0.6,0-1.3,0-1.9,0c-146,0-292,0-438,0c-0.6,0-1.3,0-1.9,0c-1.1-0.1-1.8,0.4-2.3,1.4
		c-1.4,2.8-3.5,5.2-5.8,7.2c-0.9,0.8-1.7,1.7-2.6,2.5c-3,2.9-6.1,5.7-9.8,7.6c-2.6,1.4-4,3.4-4.3,6.4c-0.4,4.3-1.8,8.3-4.2,11.9
		c-1.5,2.2-3.4,3.8-6,4.4c-2.4,0.6-4.6,0.4-6.6-1.1c-4.9-3.4-8.5-8-11-13.3c-1.1-2.4-2-4.9-2.8-7.4c-0.8-2.4-2.3-4.4-4.1-6.1
		c-1.4-1.3-2-1.1-2.7,0.7c-0.2,0.6-0.4,1.2-0.7,1.8c-1.7,4.1-4.4,7.2-8.5,8.9c-2,0.8-3.9,1.9-5.7,3c-2.1,1.2-3,2.8-2.9,5.3
		c0.4,5.7-0.7,11.1-3.2,16.3c-1,2.1-2.5,3.7-4.6,4.7s-4.1,1.1-6.2,0c-2.2-1.1-4.3-2.6-6-4.3c-1.9-1.8-3.8-3.7-5.7-5.5
		c-0.6-0.5-1-1.3-1.9-1.4c-0.6,0.3-0.5,1-0.6,1.5c-0.4,1.7-0.8,3.4-1.2,5.1c-0.8,3.8-3.4,6.5-5.7,9.3c-1.4,1.7-3.6,2-5.8,1.4
		c-5.1-1.4-10.1-3.3-14.1-6.9c-5-4.5-9.5-9.5-13.4-15c-1.2-1.6-2.3-3.3-3.3-5c-1.2-2-2.9-3.4-4.8-4.6c-7.7-4.3-13.1-10.8-18-18
		c-3.1-4.6-4.8-9.7-6.5-14.9c-2.9-8.8-3.1-17.7-2.3-26.8c0.6-7.1,1.9-14.1,3.9-20.9c2.8-9.5,7.9-17.4,15.4-23.8
		c9.9-8.4,20-16.7,31-23.8c13.9-9,29.1-14.2,45.5-16.3c14-1.8,27.9-1.1,41.8,1.2c2.7,0.5,5.4,0.9,8,1.4c7.5,1.5,14.6,4.3,21.8,6.6
		c6.2,2,12.2,4.8,18.1,7.8c2,1,2.1,1,3.3-0.8c0.1-0.1,0.2-0.3,0.3-0.4c4.3-6.4,4.2-6.4,4.5-14.2c0.4-9.7,0.9-19.3,1.4-29
		c0.1-2.1,0.1-4.2,0.1-6.2c0.3-8.5,0.7-17.1,1-25.6c0-1,0.2-1.9,0.3-2.9c0.2-2-0.2-2.3-2.2-1.7c-1.8,0.6-3.6,1.2-5.5,1.8
		c-3.8,1.2-7.7,2-11.8,2.2c-9,0.4-17.2-2.3-24.7-7.1c-1.8-1.2-3.6-2.4-5.4-3.6c-1.9-1.2-3.2-3.1-4.7-4.8c-5-5.7-8.7-12.1-9.7-19.7
		c-0.7-5.4-0.2-10.9,0.9-16.2c1.1-5.4,2.7-10.7,4.2-16c0.5-1.9,0.1-3.2-1.1-4.8c-5.1-6.7-11.5-12.2-17.1-18.5
		c-7.8-8.7-15.8-17.2-22.2-27c-4.5-7-9.3-13.8-13.6-20.9c-1.5-2.6-2.8-5.4-3.9-8.2c-2.9-7-5.8-14.1-8.6-21.1
		c-4.5-11.2-6.6-22.8-6.5-34.9c0.1-17.4,4.3-33.9,11-49.8c5.1-12,13.2-21.6,23.2-29.8c8.8-7.3,16.9-15.4,24.1-24.3
		c3.1-3.8,5.5-8.2,8.7-12.1c6-7.2,10.6-15.4,14.8-23.8c5.5-11,11.8-21.6,17.6-32.5c3.4-6.4,6.9-12.8,10.8-18.9
		c6.8-10.4,14.3-20.3,23.2-28.9c5.7-5.5,12.2-9.8,19.4-13.1c7.1-3.3,13.3-7.7,18.8-13.1c8.3-8.4,17.5-15.6,27.4-22.1
		c6.1-4.1,12.5-7.4,19.5-9.7c7.2-2.4,14.3-5.2,21.4-7.8c6.8-2.5,13.9-4.3,21-5.8c8.3-1.7,16.4-4.2,24.8-5.4
		c6.3-0.9,12.7-1.5,19.1-1.7c9.1-0.4,18.2-0.2,27.3-0.5c9.2-0.3,18.4-0.9,27.5-1.6c5.8-0.4,11.7-0.4,17.5,0.1
		c9,0.7,17.7,2.7,26.6,3.7c6.4,0.7,12.9,1.4,19.3,2.2c16.5,2,32,7,45.7,16.8c6.7,4.8,13.5,9.5,19.7,14.9c2.8,2.4,5.3,5.1,7.9,7.7
		c1,1,1.6,2.2,2.2,3.4c0.6,1.4,1.6,2.3,3,2.9c3.8,1.5,7.6,2.8,11.7,3.4c3.8,0.5,7.6,1.2,11.3,2c3.7,0.9,7.2,2.3,10.3,4.5
		c6.4,4.5,12.8,9.1,19.1,13.8c2.4,1.8,4.5,3.8,6.5,6c4.8,5.4,9.7,10.6,14.8,15.7c8,8,16.6,15.2,25.5,22.2c4.9,3.9,9.6,8,14.1,12.3
		c3.4,3.3,6.4,6.9,9,10.9c8.6,12.8,16.6,26,24.2,39.5c4.9,8.7,11,16.5,17.1,24.3c2.4,3,5.6,5,9,6.6c6.4,3.2,12.3,7.1,17.9,11.6
		c7.8,6.4,13.3,14.4,16.3,24.1c2.6,8.4,3.9,17,3.4,25.8c-0.4,7.5-2,14.7-5.5,21.5c-2.9,5.6-5.6,11.3-8.4,17
		c-2.4,4.9-5.2,9.5-8.6,13.9c-2.2,2.9-4.2,5.9-5.8,9.1c-2.9,5.5-6.5,10.4-10.6,15.1c-5.6,6.4-11.5,12.4-17.7,18.2
		c-4.5,4.3-9.7,7.9-14.4,11.9c-7.1,6.1-13.7,12.8-17.9,21.3c-2.5,5-3.9,10.3-4.3,15.9c-0.4,7.2-0.9,14.4-2.3,21.4
		c-1.4,7.2-3.8,14-8.6,19.8c-1.8,2.1-3.9,3.8-6.3,5.2c-1.6,0.9-3.2,1.8-4.8,2.6c-5.8,2.9-10.9,6.7-15.4,11.3
		c-5,5.1-10.1,10.3-15,15.5c-6.2,6.5-13.8,9.9-22.5,11.2c-2.1,0.3-4.1,0.5-6.2,0.5c-2.2,0-2.6,0.4-2.7,2.4c-0.1,3.1-0.2,6.2,0,9.4
		c0.6,9.6,2.8,19,6.1,28c1.1,3,2.1,6,3.2,9c1.9,5.1,4.6,9.8,8,14.1c2.3,2.9,4.4,5.9,6.5,8.9c1.2,1.7,1.2,1.7,3.1,0.8
		c8.3-4,16.9-7.4,25.8-9.8c8.7-2.4,17.6-3.9,26.6-5.1c5.9-0.8,11.8-1.1,17.7-1.2c7.2-0.1,14.4,0.6,21.5,1.8c8.7,1.5,17,4.3,25.3,7.3
		c9.9,3.6,18.8,8.9,27.5,14.6c4.6,3,9.2,6.1,13.7,9.3c1.4,1,2.7,2.2,3.8,3.6c6.9,8.7,13.2,17.7,18.6,27.4c3,5.4,5.6,11,6.4,17.2
		c0.4,3.7-0.2,7.3-0.8,11c-1.3,8.2-3.8,16-6.3,23.8c-3,9.1-8.5,16.4-15,23.1c-2.3,2.5-5.1,4.3-8,6c-2.5,1.5-4.6,3.4-6.1,6
		c-3.2,5.6-7.7,10.2-11.9,15c-4.7,5.3-10.5,8.6-17.1,10.5c-2.9,0.8-6,0.3-8.4-2.8c-2.9-3.9-4.6-8-5.3-12.6
		C830.6,750.3,830.7,749.7,830,749.3z"/>
</g>
<g>
	<path class="st0" d="M852.2,276.6c-0.5-1.5-1.3-2.8-2.1-4.2c-2.7-4.3-5.9-8.3-10.1-11.3c-3.3-2.4-6.6-4.6-10.4-6.2
		c-1.9-0.9-3.8-1.7-5.7-2.7c-4.1-2.1-8-4.5-11-8.1c-7-8.1-13.8-16.4-18.8-25.9c-6.5-12.3-13-24.7-20.5-36.4
		c-4.4-6.9-9.4-13.2-15.5-18.5c-5.1-4.4-10.2-8.9-15.5-13.2c-4-3.3-7.8-6.9-11.4-10.7c-3.2-3.6-6.7-7-10.2-10.3
		c-2.4-2.3-4.9-4.7-7-7.3c-3.9-4.7-8.5-8.5-13.4-12c-3.2-2.3-6.4-4.5-9.4-7c-3.7-3-7.7-5.3-12.2-6.8c-2.1-0.7-4.2-1.5-6.3-2.1
		c-5.3-1.4-10-3.7-13.9-7.7c-0.9-0.9-1.8-1.3-3.2-1.3c-4.2,0.2-7.5-1.8-10.4-4.7c-3.2-3.2-6.6-6-10.1-8.6c-2.1-1.5-4.3-2.8-6.5-4.4
		c-4.7-3.6-9.9-6.4-15-9.1c-3.2-1.7-6.7-2.9-10.2-3.9c-6.2-1.7-12.5-2.8-18.7-3.9c-9.1-1.6-18.3-3.1-27.3-5.2
		c-9.4-2.2-19-3.2-28.7-3.2c-16,0-32.1-0.2-48.1-0.2c-5.4,0-10.7,0-16,0.2c-3.6,0.2-7.3,0.4-10.9,1c-7,1.3-13.8,2.4-20.7,4.3
		c-1.7,0.5-3.3,0.7-5,1c-8.8,1.5-17.3,3.6-25.9,5.8c-5.1,1.3-10,2.8-14.9,4.6c-5.8,2.1-11.2,4.8-16,8.9c-0.9,0.8-1.8,1.5-2.8,2.2
		c-6,4.3-10.9,9.6-14.5,16.1c-3.2,5.8-8,10.3-13.8,13.6c-6.3,3.6-12.7,7.3-19.5,9.8c-1.3,0.5-2.6,1.2-3.9,1.8
		c-7.9,4.3-14.7,9.9-20.4,16.8c-7.8,9.5-14.5,19.8-20.3,30.6c-2.3,4.3-4.7,8.8-7,13.1c-5.2,9.3-10.3,18.7-15,28.4
		c-2.1,4.2-4.3,8.4-6.9,12.2c-5.1,7.4-10.4,14.8-15.5,22.1c-0.7,1-1.6,2.1-2.4,3.1c-7.3,8.2-14.6,16.3-23.2,23.2
		c-3.1,2.4-6.2,4.8-8.8,7.7c-6.5,7.3-12.1,15.1-15.6,24.2c-1.6,4-3.1,8.1-4.3,12.2c-3,10.1-3.8,20.5-3.2,31
		c0.5,9.5,3.1,18.5,6.8,27.2c2.4,5.5,4.9,11,7.3,16.4c1.8,4.1,4,7.9,6.7,11.4c2.8,3.6,5.5,7.3,8.1,11c4.4,6.4,9.6,11.9,15.3,17.1
		c7.5,6.9,15.3,13.5,21.6,21.6c0.8,0.9,1.6,1.7,3,1.4c2-0.3,3.2,0.9,4,2.4c0.9,1.6,1.4,3.3,1.8,5.1c0.8,4,0.2,7.8-0.6,11.6
		c-1.3,6.2-2.8,12.5-3.8,18.8c-1.3,7.8,0.3,14.9,4.4,21.7c3,5.1,7.3,8.1,12.6,9.8c2.6,0.9,5.3,1.4,8.1,1.3c6.6-0.4,12.5-3.5,18.5-6
		c0.3-0.2,0.6-0.4,0.9-0.6c3.7-2.9,7.3-5.9,10-9.8c1.3-1.8,2.7-3.6,4-5.3c-0.3,0.2-0.6,0.5-0.9,0.7c-1.9,1.4-4,2.5-6.2,3.1
		c-1.4,0.3-2.8,0.4-3.8-1.2c-1.2-1.9-3.1-2.9-5.1-3.8c-5.3,4.3-12,4.2-17.1-0.5c-1.4-1.3-2.7-2.8-3.6-4.6c-3.1-5-4.8-10.4-5.1-16.3
		c-0.2-4.3,0.2-8.6,0.9-12.9c1.9-11.9,4.8-23.5,11.2-33.9c1.7-2.7,3.1-5.5,4.7-8.1c2.1-3.6,2-7-0.5-10.2c-1.7-2.3-3.7-4.3-6.1-6
		c-3.1-2.1-5.5-4.8-7.4-8c-1-1.6-1.8-3.2-2.6-5c-0.4-0.8-0.7-1.6-1-2.4c-2.1-5.1-4-10.3-5.5-15.5c-0.3-1.1-0.6-2.2-0.9-3.3
		c-1.2-4.3-2.2-8.6-3.2-13c-0.2-1.2-0.5-2.3-0.6-3.5c-0.2-1.5-0.4-3.1-0.5-4.7c-0.5-13.2,0.2-26.3,3.2-39.3
		c1.2-5.1,1.6-10.3,1.3-15.6c-0.2-7-0.4-14.1-0.1-21.1c0.5-11,1.7-21.8,3.7-32.6c1-5.5,1.9-11.1,2.9-16.6c0.3-1.8,0.5-3.7,1.5-5.2
		c1.2-1.7,1.6-3.6,2.2-5.4c1.7-5.2,3.2-10.4,5-15.6c0.4-1.1,0.8-2.2,1.3-3.2c1-1.7,3.1-1.7,4.1,0c0.3,0.6,0.6,1.2,0.7,1.8
		c0.2,1.3,0.3,2.6,0.2,3.9c-0.4,3.6-0.9,7.3-1.4,10.8c-1.4,10.2-2.9,20.4-3.3,30.7c-0.1,2.2,0,4.4,0.3,6.6
		c1.1,6.3,2.1,12.6,3.1,18.9c0.7,4.7,1.3,9.3,2.6,13.8c0.3,0.9,0.6,2,0.9,2.9c1.3-0.7,2.3-1.7,2.8-3.3c0.3-1.1,0.8-2.2,0.9-3.4
		c0.8-6.5,1.4-12.9,1.6-19.4c0.1-4.3,0.9-8.5,1-12.8c0.1-2.1,0.3-4.4,0.7-6.6c0.5-2.6,0.6-5.1,0.9-7.7c0.7-4.2,1.4-8.5,2.1-12.6
		c0.9-6,2.2-12,3.7-17.9c1.8-7,3.9-14.1,6.6-20.8c3.9-9.8,8-19.4,13.6-28.5c1.7-2.6,3.5-5.1,5.5-7.5c0.6-1.6,1.3-3.2,2-4.7
		c1.3-3,2.8-5.9,4.7-8.5c1.5-2,3.3-3.6,5.6-4.8c5.2-2.8,9.2,0.4,9,5.9c0,0.4-0.1,0.8-0.2,1.2c-0.4,3.3-1.6,6.3-3.9,8.8
		c-2.1,2.1-3.4,4.6-4.3,7.3c-0.3,1.1-0.8,2.2-1.2,3.3c-4,9.7-6.6,19.8-9.4,29.8c-0.6,2-0.9,4.1-1.2,6.2c-1.3,8.5-2.2,17.1-2.8,25.7
		c-0.5,6-0.6,12,0.1,18c0.8,7.7,1.7,15.3,2.5,22.9c1.3,11,1.2,21.9-1.1,32.7c-1.7,8.1-2.4,16.3-2.3,24.5c0.2,11.4,2.5,22.1,8.4,32.2
		c4.5,7.8,9.4,15.3,15.2,22.3c1.4,1.7,2.8,3.4,4.1,5.1c0.4-0.2,0.7-0.4,0.8-0.6c1.6-3.4,2.9-7,3.6-10.7c0.3-2.2,0.9-4.4-0.2-6.6
		c-1.3-2.7-1.7-6-4.7-7.8c-1.6-0.9-2.5-2.6-3.4-4.3c-0.6-1-1-2.1-1.7-3.1c-2.1-3.4-3-7.2-3.2-11.1c-0.1-1.3-0.1-2.6-0.2-3.9
		s-0.1-2.6-0.1-3.9c-0.1-0.5-0.2-0.9-0.3-1.3c-0.5-2.1-1.3-4.3-1.1-6.5c0.2-1.9,0.6-3.9,0.9-5.8c1.4-6.5,3.3-12.8,4-19.4
		c0.4-3.7,0.6-7.5-0.2-11.2c-1.3-6.1-4.1-11.5-7.2-16.8c-3.6-6.2-6.6-12.7-8.4-19.7c-0.3-1.2-0.6-2.4,0.1-3.9
		c1.7,1.1,3.3,1.8,5.1,2.4c1.8,0.6,3.6,0.4,5.3-0.3c0.7-0.3,1.3-0.6,2-1c-1.3-2.1-2.3-4.6-2.8-7.4c-0.3-1.8-0.4-3.6-0.1-5.5
		c0.7-3.7,1.6-7.4,3.6-10.7c0.5-0.8,0.8-1.7,1.3-2.4c1.4-2.5,1.7-5.2,1-8c-1.7-6.2-1-12.4,0.9-18.5c0.5-1.5,0.7-3.1,0.7-4.6
		c0.1-3.6,0.7-7,1.7-10.4c4.1-14.1,10.5-27.2,19.8-38.7c3.9-4.7,8.7-8.3,14.3-10.7c4.1-1.7,8.5-2.8,12.9-3.2
		c4.9-0.6,9.6,0.4,13.9,3.1c2.9,1.8,7.2-0.5,7.8-4.3c0.1-0.3-0.1-0.8-0.3-1.1c-0.6-0.9-1.2-1.7-1.8-2.5c-0.9-1.2-1.7-2.3-2.6-3.5
		c-2.8-4-2.9-8.2-0.9-12.6c0.3-0.7,0.7-1.4,1-2.1c0.1-0.2,0.3-0.6,0.6-0.9c0.9-1.5,2-2.8,3.2-4.1c4.3-4.7,12.2-7.6,20.1-4
		c1.7,0.8,3.3,1.4,5.1,2c1.5,0.4,3,0.6,4.6,0.1c0-0.6-0.2-1.3-0.5-2c-0.8-1.7-1.8-3.1-3.2-4.4c-1.6-1.7-1.3-3.6-0.7-5.5
		c0.5-1.6,1.9-1.9,3.4-2.1c4.6-0.8,9.2-1.7,13.8-2.5c5.5-0.9,11-1.7,16.5-2.5c0.6-0.1,1,0.2,1.1,0.8s0.1,1.3,0.1,1.8
		c2,0.6,4,0.9,5.9,1.3c8.9,1.8,17.6,1.3,26.2-1.3c3.2-0.9,6.4-2.1,9.3-4c2.3-1.4,5-2.3,7.5-3.2c2.8-0.9,5.2-0.2,7.4,1.3l0,0
		c1.9,0.6,3.9,0.6,5.8,0.5c5.1-0.3,10.1,0.9,15.2,0.9c0.5,0,1,0.2,1.5,0.3c7,1.7,14.1,3.5,21.2,5.2c3.3,0.9,6.3,2.4,9.2,4.1
		c0.8,0.5,0.9,1.1,0.4,2c-0.3,0.6-0.8,1-1,1.7c-3.2,6.7-2,14,4.7,18.7C585,92,589,94,593.5,95c3.3,0.7,6.7,1,10,1.3
		c4,0.3,8,1.3,12,0.9c0.4,0,0.8,0.2,1.2,0.2c3.1,0.4,6.2,0.9,9.2,1.3c2.6,0.2,5.1,0.8,7.6,1.5c4.8,1.3,9.2,3.4,13.8,5.5
		c1,0.5,2.1,1,3.1,1.7c4,2.6,3.8,2.8,3.5,6.2c0.9-1.3,2.1-2.2,3.8-2.7c2.5-0.6,4.6,0.4,6.3,2.2c0.8,0.9,1.4,1.8,2,2.8
		c1.8,3.4,2.9,7,2.4,10.9c-0.3,2.3,0.4,4.1,1.6,5.8c0.9,1.2,1.7,2.3,2.8,3.3c1.5,1.7,3.1,3.2,4.6,4.8c6.4,6.6,9.8,14.6,10.7,23.8
		c0.6,6.6,1.1,13.3,1.6,19.9c0.9,12.5,0.8,25.1,0.4,37.5c-0.5,15.3-1,30.5-2.7,45.7c-0.6,5.1-1.6,10-3.7,14.7
		c-2.4,5.4-4.8,10.7-7.3,16c-0.8,1.8-1.6,3.6-1.7,5.6c-0.3,5.6-0.2,11.2,0.9,16.8c0.2,1.1,0.5,2.3,1,3.4c2.5,5.5,4.6,11.1,7.7,16.3
		c2.1,3.6,3.6,7.5,5.2,11.4c0.7,1.6,0.9,3.2,1,5c0.5,12.3-2.7,23.5-10.4,33.3c-2.4,3.1-5,6-7.7,8.9c-5,5.3-9,11.1-11.9,17.7
		c-2.8,6.2-4.6,12.6-5.1,19.2c-1.4,17,1,33.5,7.2,49.6c4.2,10.9,11.3,19.6,20.3,26.8c1.3,1,2.8,2,4.3,2.7c3.6,1.7,7.3,2.9,11.3,2.4
		c6.7-0.9,12.8-3.1,17.5-8.5c4.3-4.9,8.9-9.5,13.5-14.1c5.4-5.4,11.1-10.3,17.5-14.3c2.2-1.3,4.2-3.2,6.2-4.7
		c0.9-0.7,1.7-1.6,2.3-2.7c1.8-3.6,3.6-7.3,4.3-11.3c1-5.8,2.1-11.5,2.4-17.4c0.6-8.4,2.6-16.3,5.8-23.9c0.6-1.4,1.3-2.8,1.9-4.2
		c1-2.1,2.4-4.1,3.9-6c0.2-0.2,0.2-0.3,0.4-0.5c6.3-7.5,13.1-14.5,21.3-20.2c8.9-6.2,16.9-13.4,24.5-21.3c3.9-4,7.2-8.2,9.6-13.2
		c2-4,4.3-7.7,7.1-11.2c2.6-3.2,4.7-6.6,6.3-10.3c2.1-4.7,4.1-9.3,6.5-13.8c4-7.7,5.9-15.8,6.1-24.4
		C855.5,289,854.1,282.8,852.2,276.6z M244.1,406.2c-1.7,4.8-5.8,7.5-10.9,7c-2.2-0.2-4.3-0.9-6.3-2c-5-2.5-9.1-6.1-12.4-10.6
		c-9-12-15.3-25.1-17.3-40.1c-1.7-12.4-2.9-24.9-2.9-37.4c0-0.6,0-1,0-1.6h0.1c0.1-5,0.2-9.9,0.3-14.9c0.1-4.2,0.6-8.3,1.4-12.4
		c0.6-2.8,1.8-5.5,3.7-7.7c4.6-5.5,11.2-6.3,17.1-2.2c3,2.1,5.1,4.9,6.5,8.1c2.2,4.9,3.5,10.1,4.1,15.4c1,9.7,1.7,19.5,2.3,29.2
		c0.9,13.2,3,26.2,6.4,38.9c1.4,5.3,3.3,10.4,5.7,15.4c0.9,2,1.9,4,2.4,6.2C244.9,400.5,245,403.4,244.1,406.2z M836.5,314.6
		c0.6,2.4-0.1,4.7-0.7,6.9c-2,6.6-4.3,13.1-7.3,19.4c-2.8,5.9-6.9,10.7-12.3,14.3c-4.2,2.8-8.5,5.1-13,7c-2.6,1.1-5.2,1.5-8,1.3
		c-1.3-0.1-2.6-0.4-3.7-1.1c-0.5-0.3-0.9-0.7-1.3-1.1c-0.9-0.2-1.7-0.4-2.5-0.5c-2.1-0.3-3.2-1.6-3.4-3.7c-0.2-1.6-0.4-3.1-0.8-4.6
		c-0.9-3.2-3.6-4.8-6.7-4.3c-3.2,0.6-5.7,2.4-8.1,4.4c-7.7,6.5-11.6,15.2-14.1,24.7c-1.6,6.1-1,12.1,0.4,18.1
		c0.4,1.7,0.8,3.3,1.3,4.9c0.4,1.1,0.3,2-0.2,3c-1.1,2-1.9,4-2.3,6.2c-0.2,0.6-0.3,1.3-0.9,1.6c-2.8,1.1-4.1,3.2-5,5.5
		c2.9,11.3,2.4,22.6-1.1,34c-1.3,4.3-2.8,8.4-4.6,12.5c-1.7,4.1-4.3,7.3-8.4,9.4c-1.8,0.9-3.6,2.1-5.3,3.3c-3.7,2.4-6.9,5.5-9.4,9.2
		c-0.9,1.4-2,2.8-3,4.1c-2.8,3.5-6.2,5.8-10.3,7.6c-2.1,0.9-4.3,1.3-6.5,1c-10.8-1.3-19.1-5.9-22.9-18.8
		c-3.4-11.5-4.4-23.3-2.1-35.2c0.7-3.7,1.1-7.5,1.7-11.2c0.2-0.9,0.2-1.8,0.4-2.7c0.9-5.5,2.6-10.7,5-15.6c1.8-3.8,3.7-7.5,5.8-11.1
		c0.8-1.3,1.7-2.7,2.5-4c2.4-3.6,4.6-7.3,6.6-11.1c3.1-5.8,4.8-12.1,6.2-18.5c1.1-5.2,1.9-10.5,3.2-15.7c1.1-4,0.4-8.1-0.4-12
		c-0.4-1.9-1.1-3.8-1.7-5.6c-0.6-1.9-1.3-3.7-1.7-5.6c-0.9-3.9-2.4-7.4-4.6-10.7c-2.3-3.6-4.2-7.3-6.9-10.7c0-0.1-0.1-0.1-0.1-0.2
		c-0.8-0.9-1.1-2.1-1.2-3.2c-0.4-3.8,0-7.6,1.2-11.2c0.9-2.6,1.8-5.1,3.2-7.6c1.4-2.6,2.8-5.1,4.3-7.7c0.6-1.1,1.3-2.1,1.9-3.2
		c3.2-5.1,5.6-10.6,7.8-16.1c4.3-10.6,6.6-21.7,7.3-33.1c1-14,0.4-27.9-2.1-41.7c-1.5-8.4-3.7-16.5-6.6-24.6
		c-1.5-4.4-3.2-8.9-4.7-13.3c-2.1-5.7-4.6-11.1-7.5-16.3c-1.3-2.4-0.2-4.6,2.7-4.8c1.7-0.2,3.1,0.5,4.3,1.4c2.5,1.9,4.8,4,6.7,6.6
		c2.1,2.7,4.2,5.4,6.1,8.1c3.1,4.5,6.6,8.7,10,13c0.6,0.8,1.3,1.6,2.2,2.2c4.7,3.4,8.9,7.3,13.5,10.7c3.8,2.8,7.3,5.9,10.6,9.2
		c4.6,4.5,7.3,10,8.9,16.3c0.7,2.8,1.3,5.6,2.2,8.3c0.6,1.8,0.9,3.8,0.9,5.8c0.2,5.6,0.1,11.2-0.4,16.8c-0.3,4-0.7,7.9-1,11.9
		c0.3,1.3,0.6,2.5,1,3.9c1.4,5.1,3.1,10.2,5,15.2c1.3,3.6,3.2,6.9,5.6,9.8c5.8,7,12.6,12.7,21.7,15.3c6.3,1.7,12.3,1.5,18.2-1.3
		c1.7-0.9,3.1-0.8,4.7,0.2c0.3,0.2,0.7,0.4,1,0.6c0.3-0.6,0.7-1.2,1.1-1.7c0.8-1.1,1.6-2.1,2.7-2.8c2.4-1.7,5.3-1.7,7.7-0.1
		c1.4,0.9,2.4,2.3,3.3,3.8c1,1.8,1.7,3.8,2.1,5.8c1.3,6.8,2.1,13.7,2.5,20.5c-0.2,1.9-0.3,3.9-0.5,5.8
		C836.6,312.5,836.3,313.6,836.5,314.6z"/>
	<path class="st0" d="M332,545.3c-1.3-2.5-2.4-5.1-3.5-7.8c-1.2-3.2-2-6.5-1.8-9.9c0.2-7.7-0.6-15.3,0.6-23c0.3-1.9,0.2-3.9,0.6-5.8
		c0.8-3.6,1.3-7.4,1.7-11.1c0.2-2.3,0.2-4.7,0.2-7c0-0.6-0.3-0.9-0.8-0.9c-0.7,2.4-1.6,4.7-2.8,7c-1.8,3.2-2.9,6.6-3.7,10.3
		c-2.8,12.6-5.7,25.2-7.2,38c-2.1,16.7-3.4,33.5-3.2,50.3c0,2.1-0.2,4.3-0.5,6.3c3.7,0.9,7.3,0,10.8-2.1c1.6-0.9,2.9-2.1,4.3-3.4
		c1-1,3.3-3.6,3.5-4c0.1-0.1,0.1-0.2,0.2-0.3c2.9-4.1,4.4-8.9,5.5-13.7c0.8-3.9,0.8-7.8,0.1-11.6C335.1,552.5,333.8,548.8,332,545.3
		z"/>
	<path class="st0" d="M675.8,564c-0.6-3.6-1-7.1-1.4-10.7c-0.8-7-1.8-14-2.1-21c-0.1-3.2-0.6-6.2-1.1-9.3c-0.2-1.2-0.6-2.2-1.6-3.1
		c-0.4-0.4-0.9-0.8-1.3-1.2c-0.3-0.3-0.6-0.6-1-0.9c-6.6-6.2-11.8-13.4-15.7-21.5c-0.4-0.9-0.9-1.8-1.3-2.7
		c-0.6-1.3-1.3-2.6-1.2-4.1s-0.8-2.4-1.8-3.2c-0.2-0.2-0.6-0.5-0.9-0.6c-1-0.8-2.1-1.5-3.2-2.1c-0.2,1.9-0.2,3.8-0.7,5.6
		c-0.1,0.4-0.1,0.8,0,1.2c0.7,4.1,1.6,8.2,3.6,11.9s4.1,7.3,6.7,10.5c1.3,1.7,2.4,3.6,2.5,5.6c0.3,3.1,1.1,6.2,1,9.2
		c-0.1,8.5,0,16.9-0.1,25.4c0,4,0.5,7.7,1.4,11.5c0.7,2.8,1.7,5.4,3,7.7c2.8,5.1,7,9.1,12.9,11.8c1.8,0,3.6,0,5.5,0
		c-0.2-0.9-0.5-1.8-0.6-2.8C677.6,575.4,676.7,569.7,675.8,564z"/>
	<path class="st0" d="M365.1,166.5c2.3-4.1,5-8,8-11.5c4.6-5.5,10.5-8.4,17.6-8.6c1.3-0.1,2.6,0,3.9-0.1c6.2-0.3,10.7,2.6,14.3,7.3
		c1.6,2.1,2.8,4.3,4,6.7c1.7,3.6,3.7,7.2,5.6,10.7c0.5,0.9,1.1,1.7,1.7,2.5c0.2,0.3,0.6,0.3,1,0.2c1.2-0.5,1.6-1.3,1.2-2.4
		c-0.3-0.9-0.6-1.7-0.9-2.5c-3.4-6.9-6.8-13.8-10.3-20.6c-1.1-2.2-2.7-4.1-4.9-5.5c-2.6-1.6-4.9-3.5-7.1-5.5
		c-1.5-1.4-3.2-2.7-5.1-3.6c-1.8-0.8-3.7-1.3-5.5-2.1c-2.3-0.9-4.3-0.6-6.1,1.1c-7.1,6.4-13,13.8-17.9,22c-1.3,2.3-2.1,4.7-2,8.1
		c0,0.2,0.1,1.2,0.2,2.1c0.1,0.5,0.3,0.9,0.6,1.4C363.9,167,364.7,167.2,365.1,166.5z"/>
	<path class="st0" d="M419.9,187.2c-1.3,1.1-2.3,2.6-3.8,3.4c-2.4,1.3-4.5,3.1-6.7,4.7c-3.8,2.8-8.1,4.3-12.8,3.7
		c-1.6-0.2-3.1-0.4-4.7-0.5c-6.4-0.4-11.8-2.9-16.5-7.1c-3.2-2.8-6.6-5-10.2-7.2c-0.2-0.2-0.5-0.3-0.7-0.4c-0.4-0.1-0.7,0-1,0.3
		c-0.7,0.9-0.9,1.8-0.8,2.9c0.5,2.2,1.1,4.3,2.7,6c1.9,2,3.6,4.1,5.5,6.1c0.9,0.9,1.7,2,2.8,2.6c3.4,1.9,6.8,3.9,10.4,5.5
		c4.1,1.7,8.5,2.4,13.3,2.8c0.6-0.1,1.4-0.2,2.3-0.5c1.7-0.5,3.2-1.1,4.8-1.5c3.6-0.9,6.3-3,8.6-5.8c1.3-1.5,2.6-2.8,4.3-4
		c2.2-1.5,3.8-3.6,5.1-5.8c1.3-2.1,0.9-3.6-0.8-5.2C421.2,186.5,420.6,186.5,419.9,187.2z"/>
	<path class="st0" d="M623.3,160.9c0.2-5.5-1.8-10.3-5.1-14.5c-6.5-8.5-15.3-12.7-25.7-13.8c-2.4-0.2-4.7,0-6.9,0.9
		c-2.3,0.9-4.5,2.1-7,2.5c-0.7,0.2-1.4,0.7-2,1.2c-6.4,5.1-8.6,12.2-9.2,20.2c1.5-3.4,4-6.1,6.2-9c4-5.5,9.5-7.9,16.2-7.9
		c5.7,0,11.1,1,16.4,3.3c4.5,2,8.4,4.8,11.3,8.7C619.5,155.3,621.4,158.2,623.3,160.9L623.3,160.9z"/>
	<path class="st0" d="M627,173.2c-2.1,2.6-4.6,4.6-7.1,6.6c-4.3,3.6-8.9,6.8-13.7,9.8c-4.3,2.8-9,3.7-14.2,2.8
		c-4-0.6-7.8-1.8-11.7-3.1c-4.9-1.7-9.1-4.4-12.6-8.4c-1.3-1.4-1.7-1.4-3.2-0.2c-0.5,0.4-0.6,0.9-0.2,1.3c1.5,2,3,4,5,5.5
		c5.5,4.3,11.1,8.2,17.5,11c5.4,2.3,10.8,2.4,16.4,1.6c1.7-0.2,3.2-1.1,4.4-2.4c1.7-1.7,3.6-3.5,5.3-5.2c1.3-1.4,2.8-2.7,4.7-3.5
		c1.7-0.8,3-2.1,4.1-3.5c1.8-2.3,3.3-4.7,4.5-7.3c0.7-1.6,1.5-3.3,1.2-5.2C627.2,173.2,627,173.2,627,173.2z"/>
	<path class="st0" d="M623.2,161.1C623.2,161.2,623.2,161.3,623.2,161.1L623.2,161.1z"/>
</g>
<g>
	<path class="st1" d="M297.2,316.7c0.2,0.3,0.6,0.6,0.9,0.8c0.1,0.1,0.6-0.2,0.6-0.3c0.1-0.9,0.1-1.8,0-2.7
		c-0.4-7.7-0.5-15.4,0.9-23c0.9-5.4,2.2-10.7,3.4-16c1-4.7,2-9.5,2-14.3c0-10.7-0.5-21.4-1.1-32.1c-0.3-4.6-0.5-9.1,0.1-13.7
		c0.4-3.6,0.5-7.3,0-10.9c-0.6-4.3-0.6-8.6-0.2-12.9c0.9-13.6,3.2-26.9,7.7-39.8c1.8-5.1,3.6-10.4,5.6-15.4c-2,2.4-3.8,4.9-5.5,7.5
		c-5.7,9-9.8,18.7-13.6,28.5c-2.7,6.8-4.7,13.8-6.6,20.8c-1.5,5.9-2.8,11.9-3.7,17.9c-0.6,4.2-1.4,8.5-2.1,12.6
		c-0.4,2.5-0.5,5.1-0.9,7.7c-0.4,2.1-0.6,4.4-0.7,6.6c-0.2,4.3-0.9,8.5-1,12.8c-0.2,6.5-0.9,13-1.6,19.4c-0.2,1.2-0.6,2.3-0.9,3.4
		c-0.5,1.6-1.5,2.7-2.8,3.3c0.9,2.9,1.7,5.8,2.5,8.7c0.9,3.2,2.2,6.1,3.9,8.9c1.7,3,3.5,6.2,5.1,9.2
		C291.3,308.4,294.3,312.5,297.2,316.7z"/>
	<path class="st1" d="M319.1,451.8c0.7-4.9,1.4-9.8,2.5-14.6c1.6-7,2-13.9,1.7-21c-0.1-2.4-0.3-5-0.3-7.4c0-3.6-0.6-7-1.3-10.4
		c-1.8-9.2-4.8-18.2-6.8-27.3c-0.1-0.4-0.2-0.7-0.9-0.8c-0.5,1.3-0.3,2.7-0.3,4.1c-0.2,9-0.3,18-0.9,26.9
		c-1.3,20.4-4.8,40.4-11.3,59.8c-2.5,7.7-6.1,15-9.7,22.2c-1.3,2.4-2.9,4.7-5.1,6.4l0,0c2.1,0.8,4,1.9,5.1,3.8
		c0.9,1.6,2.4,1.6,3.8,1.2c2.3-0.6,4.3-1.7,6.2-3.1c0.3-0.2,0.6-0.5,0.9-0.7c0.2-0.3,0.5-0.6,0.7-0.9c3.1-4.3,6.2-8.8,8.2-13.8
		C314.9,468.2,317.8,460.2,319.1,451.8z"/>
	<path class="st1" d="M436.3,76.5c0.3,0.7,0.5,1.3,0.5,2c0.2-0.1,0.6-0.2,0.8-0.3c4.1-2.1,7.7-1,11.3,1.7c8,5.9,13.6,13.6,16.8,23
		c1.9,5.5,3.7,11.1,5,16.8c0.8,3.3,1.7,6.6,3,9.7c1.2,2.7,1.2,5.1,0.4,7.5c1.5-0.9,3.1-1.7,4.7-2.3c2.2-0.9,4.5-1.7,6.8-2.3
		c1.5-0.4,3.1-0.8,4.7-1c2.4-0.4,4.7-0.6,7.1-0.7c1.9-0.1,3.7,0,5.5,0.2c1.4,0.2,2.8,0.5,4.3,0.9c1,0.3,2.1,0.6,3.1,1.1
		s2,0.9,2.9,1.6c0.3,0.2,0.6,0.4,0.9,0.6c0.7,0.6,1.5,0.9,2.3,1.3c0.2,0.1,0.6,0.2,0.8,0.3c1.4,0.6,2.8,1.1,4.1,1.8
		c1.6,0.8,3,1.7,4.4,2.8c0.2-1.4,0.9-1.7,3-3.2c2.6-1.8,4.3-4.2,5.1-7.2c1-3.6,0.2-6.7-2.6-9.2c-1.3-1.1-2.7-2.1-4.1-2.9
		c-3.7-2.2-7-5-10.5-7.5c-1.3-0.9-1.8-2.1-1.9-3.6c0-2.8,0.2-5.8,0.7-8.5c1.7-7.4,4.4-14.5,9-20.6c4.5-6,10.4-9.7,17.6-11.5
		c4.4-1.2,8.4,0.7,10.4,4.8c0.7,1.5,1.2,3.2,1.3,4.9c0.1,1.6,0.1,3.2,0.2,4.7c0,2,0.2,4,0.9,5.8c0.8,2.3,1.7,4.5,4.7,4.5
		c7.8,3,14.3,7.5,17.8,15.4c0.2,0.6,0.6,1.2,0.8,1.8c0.3,0.8,0.9,1.3,1.8,0.9c3-0.9,6.2-1.2,9.2-1.6c1.3-0.2,2.6-0.2,3.9-0.2
		c6.2,0.4,12.5,1.3,18.5,3c4.3,1.2,8.4,3,12.2,5.1c5.4,3.1,9.2,7.5,12,13c2.7,5.4,4.7,11.1,6.2,16.8c1.3,5.5,3.1,10.8,3.4,16.4
		c0.1,0.9,0.6,1.3,1.3,1.7c5.2,2,7.6,6,8.5,11.2c0.6,3.5,0.5,7,0.6,10.5c0.2,5.2-0.5,10.4-1.2,15.6c-0.6,4.4-0.6,8.8-0.1,13.3
		c0.8,6.3,1.1,12.7,2,19c1.2,8.9,1.2,17.7,1.4,26.6c0.1,2.4,0,4.7-0.6,7c-0.2,1-0.3,2.1-0.3,3.1c0,4.8-1.6,9.2-3.6,13.5
		c-1.6,3.4-4.3,5.8-7,8.3c-0.8,0.7-1.1,1.3-0.6,2.3c3.1,7.5,3.7,15.4,4.2,23.4c0.1,1,0.2,2.1-0.1,3.2c-1.3,6.6-1.1,13.3-2.1,19.8
		c-0.2,1.2-0.4,2.3-0.7,3.5c-1,3.5-2.2,7-3.2,10.5c-0.6,2.3-2,4-4,5.1c-2.6,1.6-5.8,0.9-7-1.8c-0.6-1.4-1.3-2.8-1.9-4.2
		c0.2,1.8,0.5,3.6,0.9,5.5c1.5,5.9,3.4,11.8,5.8,17.4c1.9,4.5,4.2,8.8,7.4,12.5c2.4-1.6,5.1-3,8-4c1.8-0.6,3.6-1,5.4-0.4
		c2,0.7,3.2,0.1,4.6-1.2c1.1-0.9,2.3-1.7,3.4-2.6c3-2.1,5.5-4.7,7.7-7.7c3.8-5.1,5.8-10.7,6.3-17c0.1-1.2,0-2.3-0.6-3.4
		c-1.2-2.4-2.2-5.1-4-7.1c-4.4-5.1-7.5-11-10.8-16.7c-1.7-3.1-3-6.3-3.7-9.9c-1.1-5.8-1.8-11.6-2.1-17.5c-0.2-2.9,0.4-5.7,1.4-8.5
		c2.3-6.1,4.9-12.1,8.4-17.6c2.1-3.2,3.4-6.8,3.8-10.6c0.2-2.3,0.6-4.7,0.7-7c0.1-0.9,0.2-1.8,0.2-2.8c0.3-4.3,0.6-8.7,0.9-13.1
		c0-0.6,0.1-1.1,0.1-1.7c0.3-6.5,1.1-13,0.9-19.5c-0.2-4.8-0.2-9.6-0.3-14.5c-0.2-8.8-0.2-17.5-2.4-26.1c-0.2-0.9-0.2-1.8-0.4-2.7
		c-0.6-3.7-1.2-7.5-1.8-11.2c-0.8-4.5-2.7-8.5-5.5-11.9c-0.6-0.7-1.1-1.4-1.7-2.1c-5.1-6.2-7.4-13.4-8.1-21.2
		c-0.2-1.6-0.5-3-1.2-4.5c-0.7-1.4-1.2-2.9-1.7-4.4c-0.6-2.1-0.7-4.1-0.2-6.2c0.2-0.9,0.6-1.7,1-2.4c0.2-3.5,0.5-3.6-3.5-6.2
		c-0.9-0.6-2-1.2-3.1-1.7c-4.5-2.1-9-4.1-13.8-5.5c-2.5-0.7-5.1-1.3-7.6-1.5c-3.1-0.3-6.2-0.8-9.2-1.3c-0.4-0.1-0.8-0.2-1.2-0.2
		c-4,0.3-8.1-0.6-12-0.9c-3.3-0.2-6.7-0.6-10-1.3c-4.5-1-8.6-3-12.3-5.6c-6.6-4.7-7.8-11.9-4.7-18.7c0.2-0.6,0.7-1.1,1-1.7
		c0.5-0.9,0.4-1.5-0.4-2c-2.9-1.7-5.9-3.3-9.2-4.1c-7-1.8-14.1-3.5-21.2-5.2c-0.5-0.2-1-0.3-1.5-0.3c-5.1,0-10.1-1.2-15.2-0.9
		c-1.9,0.1-3.9,0.1-5.8-0.5l0,0c0.5,0.3,0.9,0.6,1.3,0.9c0.7,0.6,0.8,1.7,0.2,2.4c-0.2,0.3-0.6,0.6-0.9,0.8
		c-6.2,5-10.8,11.2-15.2,17.8c-1.6,2.4-3.2,4.7-4.7,7.2c-0.6,1-1.4,1.4-2.6,1.3c-1.2-0.2-2.4-0.2-3.5-0.2
		c-5.4,0.2-10.6,1.2-15.8,2.6c-1.8,0.5-3.2,0.3-4.7-0.9c-2.8-2.2-5.6-4.2-8.5-6.3c-3.6-2.7-5.4-6.2-5.2-10.7c0.1-1.7,0-3.4,0-5.1
		c0-1.2,0-2.4,0.6-3.4c0.3-0.6,0.8-1,1.6-0.8c0.3,0.1,0.6,0.2,0.9,0.3c0-0.6,0-1.3-0.1-1.8c-0.1-0.6-0.6-0.9-1.1-0.8
		c-5.5,0.8-11.1,1.7-16.5,2.5c-4.6,0.8-9.2,1.7-13.8,2.5c-1.5,0.2-3,0.6-3.4,2.1c-0.6,1.9-0.9,3.9,0.7,5.5
		C434.5,73.4,435.6,74.9,436.3,76.5z"/>
	<path class="st1" d="M329,251.1c3.1,5.3,5.8,10.7,7.2,16.8c0.9,3.8,0.6,7.5,0.2,11.2c-0.7,6.6-2.7,13-4,19.4
		c-0.4,1.9-0.8,3.8-0.9,5.8c-0.2,2.2,0.6,4.3,1.1,6.5c0.1,0.5,0.2,0.9,0.3,1.3c0.2-6.3,2-12.2,5.3-17.9c1.7-2.8,3.3-5.6,4.8-8.5
		c2.6-5.1,4.4-10.3,4.3-16c-0.1-3.1,0.3-6.2,0.6-9.3c0.6-6,5.2-9.2,11.1-7.8c0.8,0.2,1.5,0.4,2.2,0.8c5.3,2.5,8.5,6.7,9.6,12.5
		c0.2,1.3,0.4,2.6,0.8,3.8c0.8,2.5,1,5.1,0.8,7.7c-0.3,3.2-0.6,6.5-0.3,9.8c0.2,2.5-0.4,4.9-1.3,7.3c-0.9,2.2-1.8,4.3-3.1,6.3
		c-3.4,5.3-6.9,10.4-11.5,14.9c-1.7,1.7-3.2,3.5-4.3,5.5c-3.3,5.7-2.5,14.4,1.5,18.7c0.9,0.9,1.7,1.9,2.3,2.8
		c0.2-0.2,0.3-0.6,0.4-0.8c0.6-1.2,1.3-2.4,2.1-3.5c2.4-3.5,5.1-6.6,8.4-9.2c2.2-1.8,4.3-3.7,6.3-5.8c0.1-0.1,0.2-0.2,0.2-0.2
		c0.1-0.3,0.2-0.6,0.4-0.9c1.3-2,2.3-3.4,4.1-5c2.7-2.3,6.8-4.3,8-7.5c1.6-4.3,3.6-9.2,4.5-13.7c0.2-1,0.7-2.8,0.4-3.8
		c-0.2-0.6,0.2,0.1,0-0.5c-1.1-3.1-2.4-6.1-2.9-9.3c-0.1-0.4-0.2-0.8-0.2-1.2c-0.6-6.6-3.2-12.6-5.7-18.6c-2-4.6-5.6-7.5-10.4-8.5
		c-3.9-0.8-7.1-2.4-9.8-5.2c-2.4-2.6-5.1-4.9-7.6-7.3c-2.7-2.6-5.7-4.4-9.4-5.3c-5.1-1.2-8.8-3.7-11.2-7.5c-0.6,0.4-1.2,0.8-2,1
		c-1.8,0.7-3.5,0.8-5.3,0.3c-1.7-0.5-3.4-1.3-5.1-2.4c-0.7,1.4-0.4,2.7-0.1,3.9C322.5,238.5,325.5,244.9,329,251.1z"/>
	<path class="st1" d="M816.8,279.4c-1.7-0.9-3-1-4.7-0.2c-5.8,2.9-11.9,3.2-18.2,1.3c-9.1-2.5-15.9-8.1-21.7-15.3
		c-2.4-2.9-4.3-6.2-5.6-9.8c-1.9-5-3.6-10-5-15.2c-0.4-1.3-0.7-2.5-1-3.9c-0.6,6.7-0.9,13.4-1.1,20.2c-0.1,2.8-0.2,5.5-0.6,8.2
		c-0.2,2.4,0.2,4.7,1,6.9c0.9,2.4,2.1,4.7,3.8,6.8c1.9,2.4,4,4.8,6,7.3c6.6,7.9,9.5,17,8.8,27.2c-0.1,0.8-0.2,1.6-0.3,2.3
		c-1.7,7.5-3.9,14.9-7.2,21.9c-0.8,1.7-1.7,3.2-2.7,4.7c-1.6,2.6-3.6,4.7-6,6.6c-6.2,4.7-12.2,4.1-17.1-1.8
		c-1.3-1.6-2.4-3.4-3.6-5.1c-0.5-0.7-0.7-1.7-2-1.9c-1.7,2.9-2.3,6.2-2.7,9.6c-1.8,16.2-0.2,32,4.4,47.6c1.3,4.6,2.9,9.2,4.6,13.8
		c0.7,2,1.3,4,1.9,5.9c0.9-2.4,2.3-4.4,5-5.5c0.6-0.2,0.9-0.9,0.9-1.6c0.4-2.2,1.2-4.3,2.3-6.2c0.6-0.9,0.6-1.9,0.2-3
		c-0.6-1.6-0.9-3.2-1.3-4.9c-1.4-6-2-12.1-0.4-18.1c2.5-9.5,6.4-18.2,14.1-24.7c2.4-2.1,4.8-3.9,8.1-4.4c3.2-0.6,5.9,1.1,6.7,4.3
		c0.4,1.5,0.6,3,0.8,4.6c0.2,2.1,1.3,3.4,3.4,3.7c0.9,0.2,1.7,0.3,2.5,0.5c-1.1-1.3-1.4-2.9-0.9-4.7c0.4-1.2,1-2.4,1.7-3.5
		c1.8-2.7,3.6-5.5,5.5-8.1c6.7-8.9,10.4-18.9,12.5-29.6c1.3-6.9,2.5-13.8,3.9-20.7c0.7-3.7,2-7.3,3.2-10.8c0.5-1.3,1-2.6,1.7-3.9
		C817.4,279.9,817.1,279.6,816.8,279.4z"/>
	<path class="st1" d="M679.4,583.8c-1.8,0-3.6,0-5.5,0c-5.8-2.7-10.1-6.6-12.9-11.8c-1.3-2.4-2.3-4.9-3-7.7
		c-0.9-3.8-1.5-7.6-1.4-11.5c0.1-8.5,0-16.9,0.1-25.4c0-3.2-0.7-6.2-1-9.2c-0.2-2.1-1.2-3.9-2.5-5.6c-2.6-3.2-4.7-6.9-6.7-10.5
		c-2.1-3.6-2.9-7.7-3.6-11.9c-0.1-0.4-0.1-0.8,0-1.2c0.6-1.8,0.6-3.7,0.7-5.6c-2.5-1.4-5.3-2.5-8.1-3.3c-5.7-1.6-11.3-1.6-16.8,0.9
		c-2.4,1-4.7,2.4-6.8,3.8c-2.2,1.5-4,3.3-5.2,5.7c-2.3,4.4-4.9,8.6-7.9,12.6c-4.7,6.5-16.4,15.5-23.9,18.5c-1.4,0.6-2.9,1.1-4.3,1.7
		c-1.7,0.6-3.4,1.3-5.1,2.1c-2.1,0.9-4.1,2-5.4,3.8c-2.5,3.6-5.8,6.2-9.7,8.2c-1.3,0.7-2.4,2.1-4.2,1.7c-0.4-0.1-0.9,0.4-1.3,0.8
		c-4.6,4.1-10,6.6-15.7,8.5c-2.4,0.8-5,1.4-7.4,2.4c-4.2,1.5-8.5,2.4-12.9,3.2c-6.6,1.2-13.2,1.7-19.8,2.2
		c-5.8,0.5-11.5,0.3-17.1-0.8c-6.2-1.3-12.5-2.8-18.3-5.5c-4-1.7-7.8-3.6-11.8-5.2c-3.2-1.3-6.2-2.8-8.9-4.9c-0.9-0.7-2-1.2-3.1-1.7
		c-2.1-1-3.8-2.4-5.1-4.6c-3.2-5.4-7.3-10.1-12.2-14.1c-3.3-2.8-7.1-4.9-11.3-5.9c-4.2-0.9-8.4-1.9-12.6-2.5
		c-6.2-0.8-11.9-2.7-17.6-5.1c-3.6-1.6-6.9-3.7-9.7-6.4c-1.8-1.7-3.3-3.6-4.4-5.9c-2.8-5.9-5.6-11.8-7.9-17.9c-0.7-2-1.4-4-2.5-5.7
		c-2.6-4.3-6.2-6.7-11-5.3c-1.4,0.4-2.2,1.1-2.6,2.5c-1.1,4-2.3,8-3.5,12c-0.1,0.2-0.2,0.5-0.2,0.6c0.5,0,0.8,0.3,0.8,0.9
		c0,2.4,0.1,4.7-0.2,7c-0.4,3.7-0.9,7.4-1.7,11.1c-0.4,2-0.3,3.9-0.6,5.8c-1.3,7.7-0.4,15.3-0.6,23c-0.1,3.4,0.6,6.7,1.8,9.9
		c1,2.7,2.2,5.3,3.5,7.8c1.7,3.6,3.1,7.2,3.7,11.1c0.7,3.9,0.7,7.8-0.1,11.6c-1,4.8-2.6,9.6-5.5,13.7c-0.1,0.1-0.2,0.2-0.2,0.3
		c-0.2,0.3-2.5,3-3.5,4c-1.3,1.3-2.7,2.4-4.3,3.4c-3.6,2.1-7.2,3-10.8,2.1c-0.4,2.3-0.9,4.5-1.7,6.7c1.1-0.2,2.1,0.1,3.2,0.6
		c1.3,0.6,2.4,1.6,3.5,2.4c1.7,1.4,2.2,3,1.4,5.1c-0.6,1.6-0.7,3.3-0.8,5c-0.3,6.2,2.2,11.1,7,14.9c4.7,3.7,10.2,2.9,13.6-2.1
		c1.1-1.7,2.3-2.2,4.1-2.1c1.6,0.2,3.2-0.1,4.7,0.3c0.9,0.2,1.7,0.3,2.6,0.3c1.4,0,2.8-0.2,4.3-0.7l0,0c2.3,2.4,4.7,4.8,7,7.3
		c2.8,2.9,5.9,5.4,9.3,7.5c4,2.4,8,4.8,11.9,7.2c-0.2,0.6-0.6,0.8-1.2,0.9c-2.1,0.2-4.2,0.4-6.2,0.6c-5.8,0.6-9,5-7.9,10.7
		c0.4,2,1.1,3.7,2.1,5.5c2.4,4,4.1,8.4,4.8,13.1c0.2,1.2,0.4,2.3,0.6,3.5h23.6c0.9-4.2,2.7-8.1,5.3-11.5c0.9-1.2,1.7-2.4,2.5-3.8
		c1.3-2.2,2.3-4.5,2.9-7l0,0c0.4-0.1,0.8-0.1,1.2-0.2c2.6-0.9,4.6,0.2,6.1,2.2c0.6,0.7,1,1.5,1.5,2.3c3,5.4,6.9,10.1,11.2,14.4
		c1.2,1.2,2.3,2.4,3.4,3.6h37.9c-0.3-0.3-0.6-0.7-0.9-1c-0.4-0.5-0.9-1-1.2-1.6c-0.6-1.2-1.5-1.6-2.9-1.3
		c-6.4,0.9-11.4-4.5-10.3-11.3c0.6-4.2,2.7-7.6,5.8-10.3c1.2-1,2.6-1.7,4.2-2c1.1-0.2,1.8-0.7,2.6-1.6c3.1-3.6,6.9-4.3,11.3-2.6
		c0.5,0.2,0.9,0.5,1.5,0.6c4.2,0.6,7,3.2,9.6,6.2c3.2,3.9,5.7,8.1,7,13c0.4,1.5,0.6,3.1,0.6,4.2c0,3-0.6,5.5-1.7,7.7H565
		c1.3-3.6,2.4-7.3,3.2-11.1c0.6-3.1,1.4-6.1,1.7-9.2c0.5-4,0.6-8.1,0.7-12.1c0-0.6,0.1-1.2,0.2-1.7c0.2-0.6,0.4-1.1,0.8-1.6
		c1.4-0.8,2.4-2.1,3.5-3.2c0.2-0.2,0.3-0.3,0.5-0.5c3.2-3.5,5.9-7.3,8.5-11.2c5.5-8.4,11-16.8,16.4-25.1c0.3,0.2,0.7,0.4,0.9,0.6
		c0.3,0.6,0.6,1.2,0.9,1.7c2.2,3.6,6.1,5,10.1,3.4c2.2-0.9,4.1-2.2,5.9-3.7c1.7-1.4,3.4-1.8,5.7-1.5c6.7,0.9,12.6-1.1,17.3-6
		c3-3.1,5.1-6.9,6.2-11.1c0.1-0.4,0.2-0.7,0.3-1.1c0.2-0.4,0.2-0.7,0.4-1.1l0,0c0.3,0.2,0.6,0.4,0.8,0.6c1.8,1.4,3,3.4,4.6,5.1
		c2.1,4,4.6,7.9,7.1,11.6c0.6,0.9,1.4,1.8,1.6,3.1c0.4,3.6,0.7,7.3,0.3,10.9c-0.1,1.1-0.4,2-1.3,2.6c-2.2,1.5-3.6,3.8-4.4,6.2
		c-0.6,1.6-1.1,3.2-1.5,4.8c-1.3,6.2-0.8,12.5,0.2,18.7c0.4,2.3,1.1,4.6,2.5,6.5c2.3,3.2,5.8,4.3,8.9,3.2c0.2-0.2,0.3-0.4,0.5-0.6
		c0.1-0.1,0.1-0.2,0.2-0.2c2.6-3.7,5.3-7.4,8.1-11.1c0.2-0.3,0.5-0.6,0.8-1c1.2-1.5,2.4-3,3.6-4.5l1.9-2.2l0.9-1.1
		c0.3-0.4,0.6-0.7,0.9-1.1l2-2.1c0.6-0.6,1.3-1.3,1.8-1.9c0.1-0.1,0.1-0.2,0.2-0.2c1.3-1.4,2.8-2.8,4.1-4.1l0.6-0.5l0.6-0.5l1.1-0.9
		c0.7-0.6,1.4-1.3,2.2-2l2.2-1.9l1.1-0.9c0.4-0.3,0.8-0.6,1.2-0.9l1.8-1.4c-3.6-3.8-7.3-7.6-10.8-11.5
		C685.9,599.9,681.7,592.4,679.4,583.8z M360.6,558.6c-0.2-0.2-0.4-0.4-0.6-0.6c-2.6-3.4-5.5-6.6-7.8-10.1c-3.2-4.7-4.7-10-4.7-15.8
		c0-1.4,0.2-2.8,0.9-4.2c1.6-3.5,4.9-4.8,8.4-3.3c2.8,1.2,5.1,3.1,6.9,5.6c3.3,4.9,5.7,10.2,7.2,15.9c0.3,1.3,0.3,2.8,0.5,4.3
		c0,2.4-0.4,4.7-1.5,6.8C367.8,561.2,364,561.8,360.6,558.6z M398.4,628.5c-2.3,5.1-7.4,6.4-11.9,3.2c-2.1-1.5-3.8-3.5-5.4-5.6
		c-0.9-1.3-1.9-2.8-2.8-4.3c-0.8-1.3-1.7-2.5-2.9-3.6c-3.8-3.3-5.2-7.7-5.1-12.6c0.2-6.4,6.1-10.6,12.3-9c2.5,0.6,4.8,2,6.8,3.7
		c6.3,5.8,9.6,13.1,10.1,21.7C399.6,624.3,399.4,626.5,398.4,628.5z M482.9,597.6c-1.3,1.3-1.9,2.8-2.1,4.4
		c-0.2,1.4-0.6,2.8-1.3,4.1c-2.8,5.7-9.6,6.8-14,2.3c-0.8-0.8-1.4-1.8-2.1-2.8c-0.6-0.9-0.9-1.9-1.9-2.6c-0.4,0.3-0.9,0.6-1.2,0.9
		c-2.8,2.9-6.2,5.2-9.6,7.2c-1.1,0.6-2.3,1.3-3.3,2.1c-2.1,1.7-4.7,2.2-7.3,2.6c-4.8,0.6-8.4-3.1-7.3-7.5c0.2-1.1,0.2-2.3,0.3-3.5
		c0.4-5.2,2.4-9.6,6.7-12.6c0.7-0.6,1.4-1.1,2.2-1.6c2.4-1.3,4.6-3,6.5-4.9c0.7-0.7,1.6-1.3,2.4-2c4.7-3.6,10-4.7,15.8-3.3
		c3.6,0.9,7.3,1.7,10.7,3.4c1.6,0.9,3.2,1.7,4.5,3C485.7,590.1,485.5,595.2,482.9,597.6z M543.4,643.4c-2.9,5.8-10.2,6.6-14,1.1
		c-0.5-0.6-0.9-1.3-1.2-2c-0.8-1.7-1.9-3-3.6-4c-2.1-1.3-3.2-3.3-4.1-5.5c-1.1-2.9-1.7-6-2-9.1c-0.1-1.2,0-2.4,0.2-3.5
		c1.3-6.2,7.3-9.3,13.2-6.9c2.6,1.1,4.6,2.9,6.3,5.1c2.2,2.8,3.8,5.9,5.2,9.2c1.3,2.8,0.8,5.9,1.1,8
		C544.9,639,544.5,641.3,543.4,643.4z M597.8,570.7c-0.1,2.5-1,4.8-2.7,6.8c-1,1.2-1.6,2.5-1.8,4.2c-0.4,3.6-2.3,6.6-5.1,8.9
		c-2.1,1.7-4.4,3.2-7,4.1c-2.6,0.9-5.2,1.7-7.8,2.4c-2.1,0.5-3.2,1.6-3.8,3.5c-0.6,1.7-1.2,3.4-1.8,5.1c-0.6,1.9-1.4,3.6-2.7,5.2
		c-4,5.2-11.1,6.2-16.4,2.2c-1.5-1.1-2.7-2.4-3.7-4c-3.7-5.7-5.8-11.9-5.8-18.9c0.1-0.9,0-2,0.2-3c0.3-2.1,0.4-4.1,0.2-6.2
		c-0.2-1.1,0-2.4,0.2-3.5c0.8-3.7,3.1-6.2,6.6-7.7c1.1-0.4,2.2-0.6,3.4-0.9c0.7-0.2,1.2-0.5,1.3-1.3c0.2-2.1,1.6-3.2,3.2-4.2
		c7.3-4.7,15.1-8.7,23.1-12.2c1.6-0.7,3.2-1.1,4.9-1.2c5.8-0.4,10.8,2.4,13.3,7.7C597.3,561.8,598,566.3,597.8,570.7z M641.2,542.1
		c-0.2,1.6-0.5,3.2-1.7,4.3c-1.3,1.2-2,2.7-2.7,4.3c-1.4,3.1-3.7,5.4-6.7,6.8c-4.6,2.2-9.1,1.2-12.2-2.8c-2.4-3.2-3.9-6.8-4.2-10.7
		c-0.2-2.1-0.3-4.1-0.6-6.2c-0.7-4.8,1.6-8.9,5.8-10.9c1.5-0.7,2.2-0.9,4.4-0.9c1.7-0.1,3.4,0.3,5.1,1.1c3.6,1.8,7,4.2,9.8,7
		C640.4,536.2,641.4,538.9,641.2,542.1z"/>
	<path class="st1" d="M593.1,656.3c-2.1-3-5.3-3.8-8.5-1.9c-0.7,0.4-1.3,0.9-1.9,1.3c-2.7,2.3-5.1,4.9-7.2,7.7c-2,2.6-2.5,5.9-3.6,9
		c-0.2,0.8-0.1,1.8,0.2,2.7c0.3,1.1,0.4,2.2,0.3,3.3h20.7c0-0.2-0.1-0.4-0.1-0.6c-0.5-2.4-0.5-4.6,0.9-6.6c1.3-1.9,1.9-4,1.7-6.1
		C595.7,661.8,594.6,658.4,593.1,656.3z"/>
	<path class="st1" d="M431.4,310.3c3.5,0.6,6.9,1.3,10.5,0.6c2.5-0.6,5.1-0.9,7.7-0.9c1.4,0,2.1-0.7,2.1-2.1
		c-0.2-1.9-1.1-3.4-2.4-4.8c-2.7-2.8-2.9-5.9-0.9-9.2c2.7-4.4,7.3-5.8,12.6-4.3c5.3,1.6,9.5,4.8,12.1,9.9c1.6,3,2.7,6.2,3.5,9.6
		c0.5,2,0.4,3.9-0.1,5.8c-0.7,2.8-1.8,5.5-3.6,7.7c-2.5,3.2-5.8,5.2-10.1,4.9c-3.4-0.2-6.7,0.1-10.1,0.6c-3.2,0.5-6.4,1.3-10.2,0.7
		c1.3,2.8,2.2,4.9,3.1,7c0.4,1,1.1,1.7,1.9,2.4c1.3,1,2.8,1.7,4.6,2.1c5.8,1.3,11.5,3.5,17.1,5.5c2.4,0.9,4.9,1.7,7.3,2.7
		c1.1,0.4,2,0.4,2.8-0.4c0.5-0.5,1-0.8,1.6-1.1c0.7-0.5,0.9-1.2,0.7-2.1c-0.7-2.3-1-4.6-0.9-7c0.2-8-0.1-15.9,0.9-23.9
		c0.2-2.1-0.6-17.7-0.6-17.7s-1.5-9.6-6-12.5c-1.3-0.9-2.7-1.6-4-2.4c-5.1-3.1-10.4-3.7-16.2-2.6c-2.6,0.6-5,1.5-6.9,3.5
		c-2.4,2.4-4.7,4.9-7,7.3c-0.7,0.7-1.4,1.5-2.2,2.1c-1.3,0.9-2.4,0.8-3.5-0.4c-1.4-1.5-2-3.3-1.6-5.4c1.4-6.9,4.3-13.1,8.4-18.8
		c2.4-3.3,5.4-6,8.6-8.5c2.4-1.9,5.5-2.5,8.3-3.2c2.1-0.5,3.9,0.9,4.1,3.2c0.1,0.8,0,1.6,0,2.4c0.1,1.8,0.5,2.4,2.1,2.8
		c2.3,0.5,4.6,1,7,0.9c1.6-0.2,3.2-0.2,4.7-0.2c6.4,0.2,12.7-1.2,19-1.6c2.4-0.2,4.7-0.7,7-0.7c4,0,8.1-0.7,12.1-1.2
		c1.1-0.2,2-0.5,2.4-1.7c0.8-2.2,2.6-3.2,4.7-3.6c0.6-0.2,1.3-0.2,1.9-0.3c3.3-0.8,5.8,0.4,8,2.8c0.8,0.9,1.3,2,2.4,2.6
		c3.3,2,5.2,5.1,6.8,8.4c2.6,5.6,4.4,11.5,4.3,17.7c0,1.2,0,2.4-0.6,3.4c-0.9,1.7-2.4,2.4-4.3,1.7c-1.7-0.6-3.2-1.7-4.7-2.8
		c-3-2.5-6.4-4.5-9.6-6.7c-6.3-4.3-13.3-5.1-20.6-3.6c-7,1.3-11.1,5.8-12.9,12.6c-1.2,4.7-1.4,9.6-1,14.4c0.2,2.8,0.3,5.8,0.2,8.6
		c-0.5,11.1,1.6,22,2.8,33.1c0.1,0.9,0.7,1.3,1.7,0.9c2.8-0.9,5.7-1.9,8.5-2.9c2.8-1.1,5.6-2,8.6-2.5c2.4-0.4,4.9-0.8,7.3-1.3
		c8.5-1.7,15.7-5.5,21.1-12.4c0.3-0.4,0.7-0.7,0.4-1.3c-0.8-0.2-1.6,0.1-2.2,0.4c-4,1.5-8.1,1.7-12.3,1.4c-3.6-0.2-7-0.9-10.4-2
		c-1.3-0.4-2.4-0.8-3.7-1.1c-3.7-0.8-7.1-2.4-10.6-3.9c-0.9-0.4-1.8-1-2.6-1.7c-3-2.6-4.3-5.8-3.2-9.8c0.8-2.7,0.9-5.4,1.1-8.1
		c0.2-3.7,1.1-7.2,2.9-10.4c1.2-2,2.7-3.6,4.9-4.3c3.2-1.2,6.4-1.2,9.6,0.1c2.6,1.1,5,2.7,5.8,5.5c0.9,3.3,1.7,6.9,1.3,10.4
		c-0.2,1.2,0.3,1.7,1.2,2.1c1.2,0.5,2.4,1,3.7,1.2c3.1,0.6,6.2,0.9,9.3,1.3c4,0.6,7.7-0.5,11.5-1.7c0.8-0.2,1.3-0.8,1.4-1.7
		c1.1-7.7,0.9-15.3-0.5-23c-1.7-10-6.1-18.7-12.8-26.4c-4.4-5-9.8-8.1-16.1-9.6c-4.8-1.2-9.6-2.1-14.5-3.3c-3.1-0.8-6.1-1.3-9.2-1.7
		c-9.8-1-19.5-0.9-28.8,2.8c-1.6,0.6-3.2,1.1-4.8,1.6c-3.2,0.9-6.1,2.2-9,3.7c-10.8,5.8-17.7,14.7-21.6,26.2
		c-2.6,7.9-3.6,16-3.4,24.3c0.1,2.9,0.5,5.7,1.1,8.5C430.4,309.6,430.7,310.1,431.4,310.3z"/>
</g>
<g>
	<path class="st2" d="M425.4,471c0.1,6,0.7,11.9,2,17.9c0.6,2.9,0.9,5.9,1.3,8.9c0.6,4.7,1.7,9.2,4.3,13.2c2.2,3.4,5,6.3,7.5,9.6
		c4.1,5.2,9.2,8.7,15.5,10.7c1.3,0.4,2.4,0.9,3.7,1.3c5.1,1.6,10.2,3.1,15.5,4c4.1,0.6,8.1,1.8,12.3,2.1c9.2,0.6,18.3-0.1,27.2-2.1
		c1.3-0.3,2.5-0.5,3.8-0.6c3.1-0.9,6.1-1.8,9-2.9s5.6-2.7,8.1-4.6c0.6-0.5,1.2-0.9,1.8-1.4c3.2-4.2,5.3-8.9,6.3-14.1
		c1.3-6.4,1.8-12.9,1.7-19.4c-0.2-12.6-0.7-25.1-0.4-37.6c-0.1-1.1-0.2-2.2-0.3-3.2c-0.1-0.2-0.1-0.3-0.2-0.6
		c-0.6-2.2-1.3-4.5-1.7-6.8c-0.6-3.8-1.8-7.3-4-10.5c-0.8-1.2-1.5-2.4-2.2-3.7c-0.6-1.2-1.4-2.1-2.7-2.8c-2.5-1.4-4.7-3.3-6.5-5.5
		c-1.8-2.3-4.1-3-6.9-2.8c-8.1,0.5-15.2,3.4-20.9,9.4c-1.3,1.3-2.1,2.9-2.4,4.8c-0.9,4.5-1.6,9-1.7,13.6c-0.2,8.9-0.2,17.7-0.5,26.6
		c-0.1,2.9,0.1,5.7,0.6,8.5c0.6,3.2,1.3,6.4,1.9,9.6c0.3,1.5,0.6,3.1,0.6,4.7c0.1,1.7-0.2,3.4-1.6,4.7c-1.9,1.9-4.1,3.2-6.9,3.2
		c-4.7,0.1-8.3-2.4-9.7-7c-1-3.3-1.1-6.6-0.6-10c0.7-4.8,2-9.4,3.1-14.1c1.9-7.7,3.6-15.5,2.1-23.6c-0.5-2.3-0.7-4.7-0.9-7
		c-0.5-4.4-1.8-8.7-3.6-12.7c-1.3-3.1-3.4-5.8-6.6-6.9c-4.9-1.8-10-2.8-15.3-2c-2.5,0.4-4.7,1.4-6.3,3.5c-1.3,1.7-2.9,3.4-4.4,5
		c-4.3,4.5-9.3,7.4-15.6,8.1c-1.7,0.2-3.3,0.6-5.1,0.8c0.8,2.4,0.6,4.7,0.2,7.1C425.4,454.2,425.2,462.6,425.4,471z"/>
</g>
<g>
	<path class="st3" d="M658,653.9c-1.4-2-2.2-4.2-2.5-6.5c-1-6.2-1.6-12.4-0.2-18.7c0.3-1.7,0.9-3.2,1.5-4.8c0.9-2.4,2.2-4.7,4.4-6.2
		c0.9-0.6,1.3-1.5,1.3-2.6c0.4-3.6,0.1-7.3-0.3-10.9c-0.2-1.3-0.9-2.1-1.6-3.1c-2.6-3.8-5-7.6-7.1-11.6c-1.6-1.6-2.8-3.6-4.6-5.1
		c-0.2-0.2-0.6-0.4-0.8-0.6l0,0c-0.2,0.4-0.2,0.7-0.4,1.1s-0.2,0.7-0.3,1.1c-1.2,4.2-3.2,8-6.2,11.1c-4.7,4.9-10.6,7-17.3,6
		c-2.3-0.3-4,0.2-5.7,1.5c-1.8,1.5-3.7,2.8-5.9,3.7c-4,1.5-7.9,0.2-10.1-3.4c-0.3-0.6-0.6-1.2-0.9-1.7c-0.2-0.3-0.6-0.5-0.9-0.6
		c-5.5,8.4-11,16.8-16.4,25.1c-2.6,4-5.4,7.7-8.5,11.2c-0.2,0.2-0.3,0.3-0.5,0.5c-1,1.2-2.1,2.4-3.5,3.2c-0.4,0.5-0.6,1-0.8,1.6
		s-0.2,1.1-0.2,1.7c-0.2,4-0.2,8.1-0.7,12.1c-0.3,3.1-1.2,6.1-1.7,9.2c-0.7,3.9-1.7,7.6-3.2,11.1h7.5c0.1-1.1,0-2.2-0.3-3.3
		c-0.2-0.9-0.4-1.9-0.2-2.7c1-3,1.6-6.3,3.6-9c2.1-2.8,4.5-5.4,7.2-7.7c0.6-0.5,1.3-0.9,1.9-1.3c3.2-1.8,6.4-1.1,8.5,1.9
		c1.5,2.1,2.5,5.5,2.5,8.7c0.2,2.1-0.5,4.2-1.7,6.1c-1.4,2.1-1.5,4.2-0.9,6.6c0.1,0.2,0.1,0.4,0.1,0.6h17c2-5.5,3.8-11.1,5.5-16.8
		c2.8-9.6,6.2-19.1,10.3-28.3c1.2-2.6,2.4-5.2,4-7.6c1-1.5,2.1-2.9,3.6-4.1c4.3-3.5,9.4-2.7,12.4,2.1c0.9,1.4,1.5,3,2,4.7
		c0.9,3.3,1.2,6.6,1.3,10c0.5,10-0.2,20.1-1.9,30c-0.6,3.3-1.1,6.6-1.7,10h4c0.2-0.2,0.5-0.3,0.7-0.5c1.2-0.8,2.3-1.7,3.4-2.6
		c0.6-0.6,1.3-1.1,1.8-1.7l0.1-0.1c0.2-0.3,0.6-0.7,0.8-1c2.3-3.1,4.4-6.2,6.6-9.4c0.6-0.9,1.3-1.8,1.8-2.7c0.2-0.3,0.4-0.7,0.6-1
		c0.5-0.8,1-1.5,1.5-2.2C663.7,658.2,660.3,657.1,658,653.9z"/>
	<path class="st3" d="M416.7,660.3c-0.5-0.8-0.9-1.6-1.5-2.3c-1.5-2.1-3.4-3.2-6.1-2.2c-0.4,0.2-0.8,0.2-1.2,0.2l0,0
		c-0.6,2.5-1.7,4.8-2.9,7c-0.8,1.3-1.6,2.5-2.5,3.8c-2.6,3.6-4.3,7.3-5.3,11.5h34c-1.1-1.3-2.2-2.4-3.4-3.6
		C423.5,670.4,419.7,665.7,416.7,660.3z"/>
	<path class="st3" d="M360.2,629.4c-2.3-2.4-4.7-4.8-7-7.3l0,0c-1.4,0.6-2.8,0.8-4.3,0.7c-0.9,0-1.7-0.2-2.6-0.3
		c-1.5-0.4-3.1-0.2-4.7-0.3c-1.8-0.2-3,0.4-4.1,2.1c-3.4,5-8.9,5.7-13.6,2.1c-4.7-3.8-7.3-8.7-7-14.9c0.1-1.7,0.2-3.4,0.8-5
		c0.8-2.1,0.4-3.7-1.4-5.1c-1.1-0.9-2.1-1.9-3.5-2.4c-1-0.5-2.1-0.8-3.2-0.6c-0.4,1.2-0.9,2.4-1.4,3.6c-1.6,3.5-3.2,6.8-5.3,10
		c-1.2,1.8-2.4,3.7-3.6,5.5l0.2,0.2l2.3,1.8c0.4,0.3,0.8,0.6,1.2,0.9l1.1,0.9l2.2,1.9c0.7,0.6,1.4,1.3,2.2,2l1.1,0.9l0.6,0.5
		l0.6,0.5c1.4,1.3,2.8,2.7,4.1,4.1c0.7,0.7,1.3,1.4,2.1,2.1l2,2.1c0.3,0.4,0.6,0.7,0.9,1.1l0.9,1.1l1.9,2.2c1.2,1.5,2.4,3,3.6,4.5
		c3.1,4,6,8,8.9,12c0.1,0.1,0.1,0.2,0.2,0.2c0.7,0.9,1.3,1.8,2,2.8c0.2,0.3,0.4,0.7,0.6,1c0.6,0.9,1.3,1.8,1.8,2.7
		c2.1,3.2,4.3,6.3,6.6,9.4c0.1,0.1,0.2,0.2,0.2,0.3c2,0.6,3.7,1.6,5.5,2.8c1.2,0.9,2.2,1.8,3.2,2.8h18.3c-0.2-1.2-0.5-2.3-0.6-3.5
		c-0.6-4.7-2.3-9.1-4.8-13.1c-1-1.7-1.7-3.5-2.1-5.5c-1.1-5.8,2.1-10,7.9-10.7c2.1-0.2,4.2-0.4,6.2-0.6c0.6-0.1,0.9-0.2,1.2-0.9
		c-4-2.4-8-4.7-11.9-7.2C366.1,634.9,363,632.3,360.2,629.4z"/>
	<path class="st3" d="M535.8,410.7c2.4,3.4,5.1,6.6,8.1,9.5c1.5,1.5,3.2,2.7,5.2,3.2c1.1,0.3,2.2,0.7,3.4,0.9c3,0.6,5.9,0.4,8.6-1.4
		c2.1-1.4,4.2-2.6,6-4.3c2.5-2.4,5.5-3.9,9-4.5c0.9-0.2,1.8-0.4,2.7-0.5c0.9-0.2,1.5-0.5,1.9-1.2c1.9-3.6,4.3-6.9,5.5-10.7
		c1.2-3.7,2.5-7.4,3.3-11.2c0.6-2.8,1.8-5.2,3.6-7.3c3.6-4.3,9.8-4.9,14-1.4c2.4,2,3.2,4.9,2.1,7.7c-0.8,2.1-2.4,3.5-4.6,3.9
		c-1.8,0.3-3.1,1.3-4.2,2.6c-0.6,0.8-1.3,1.7-2.1,2.4c-1.9,1.9-3.1,4.1-4,6.6c-1.2,3.5-2.8,6.7-5,9.7c-1,1.4-1.4,2.9-1.6,4.7
		c-0.4,6-0.9,11.9-1.5,17.9c-0.3,3.4-1,6.7-2.1,9.9c-0.8,2.3-2.1,4.2-3.7,5.9c-2.8,2.8-6.4,4.5-10,5.8c-4.3,1.7-8.6,1.7-13,0.3
		c-0.7-0.2-1.3-0.8-2.1-0.2c-0.1,0.2-0.2,0.5-0.2,0.8c-0.8,10-0.2,20.1,0.1,30.1c0,0.4,0,0.8,0.2,1.2c0.2,0.3,0.3,0.8,0.6,0.9
		c1.4,0.6,2.7,1.8,4.3,1.5c4.3-0.7,8.5-1.3,12.2-3.9c7.7-5.2,13.8-11.9,17.7-20.4c2.8-6.4,4.3-13.1,3.6-20.2
		c-0.5-4.2,0.1-8.3,0.7-12.5c0.2-1.8,0.9-3.6,2-5.1c1.7-2.4,3.4-5,5.1-7.3c1.1-1.5,2.5-2.7,4.3-3.3c4.3-1.6,8.1,1,8.1,5.5
		c0,1.5-0.4,2.8-1.2,4.1c-0.4,0.6-0.9,1.3-1.3,2c-0.1,0.2-0.1,0.6,0,0.7c0.2,0.2,0.5,0.3,0.6,0.3c0.6,0,1-0.1,1.5-0.2
		c3.3-1.2,6.5-2.7,9.5-4.7c3.2-2.1,5.5-5.1,6.8-8.8c1.4-4.2,2.7-8.5,3.3-12.9c0.4-3,1.3-5.8,2.6-8.5c0.9-1.9,2.1-3.6,3.6-5.1
		c1.7-1.5,3.5-2.8,5.4-4c-3.2-3.7-5.5-8-7.4-12.5c-2.4-5.7-4.2-11.5-5.8-17.4c-0.5-1.8-0.8-3.6-0.9-5.5c-2-4.6-3.7-9.2-4.5-14.2
		c-0.3-2.2-0.2-4.4,0.2-6.6c0.2-0.6,0.3-1.3,0.4-1.9c2.1-10-0.5-18.7-6.5-26.8c-3.2-4.3-5.8-9.2-6.4-14.9c-0.6-5.2-2.9-9.7-4.6-14.5
		c-0.5-1.3-1.5-2.4-2.7-3.3c-1.3-0.9-2.2-2.2-3.2-3.5c-1.7-2.4-3.9-4.6-6.1-6.6c-4.5-4.3-9.3-8.4-13.4-13c-0.2-0.3-0.6-0.6-0.9-0.8
		c-7.4-6.2-13.9-13.4-21.1-19.8c-3.6-3.2-7.5-6.1-11.3-9c-1.6-1.2-3.1-2.4-4.3-3.9c-3.2-3.9-5.1-8.1-4.8-13.3
		c0.1-1.7,0.1-3.4,0.1-5.1c0.1-1.9,0.6-3.6,2.4-4.6c0.2-0.2,0.5-0.2,0.6-0.5c1.8-1.5,1.8-3-0.1-4.4c-6-4.6-10.7-10.3-14-17.1
		c-2.1-4.3-3.2-9.1-3.8-13.9c-0.5-3.9-0.8-7.7-1.3-11.6c-0.2-1.6-0.3-2.6-0.2-3.3c-1.4-1-2.8-2-4.4-2.8c-1.3-0.7-2.7-1.3-4.1-1.8
		c-0.3-0.1-0.6-0.2-0.8-0.3c-0.8-0.3-1.6-0.7-2.3-1.3c-0.3-0.2-0.6-0.5-0.9-0.6c-0.9-0.6-1.9-1.1-2.9-1.6s-2.1-0.8-3.1-1.1
		c-1.4-0.4-2.8-0.6-4.3-0.9c-1.8-0.2-3.6-0.3-5.5-0.2c-2.4,0.1-4.8,0.3-7.1,0.7c-1.6,0.2-3.1,0.6-4.7,1c-2.3,0.6-4.6,1.4-6.8,2.3
		c-1.7,0.7-3.2,1.5-4.7,2.3c-0.5,1.4-1.3,2.8-2.4,4.2c-0.9,1.3-2.1,2.3-3.2,3.4c-1.7,1.8-3.4,3.6-5.1,5.5c-2.1,2.4-3.5,5.2-3.8,8.4
		c-0.5,4.4-0.9,8.9-1.3,13.2c-0.2,2.1-0.7,4.1-1.6,6c-1.3,2.8-3.2,5-6.5,5.8c-2,0.5-2.3,1.2-1.9,3.1c0.2,1.3,0.8,2.4,1.7,3.4
		c3.3,3.3,3.2,7.2,1.8,11.2c-1,2.9-2.8,5.3-5.2,7.2c-1.8,1.4-3.8,2.8-5.8,4c-3,2.1-6.1,4-9.2,6c-1.7,1.1-3.1,2.4-4.1,4.1
		c-5.5,8.8-10.7,17.6-13.5,27.7c-1.3,4.3-2.1,8.6-2.1,13c-0.1,4-0.3,8.1-0.6,12.1c-0.2,2.7-0.8,5.4-1.3,8.1
		c-0.2,1.6-0.6,3.1-0.7,4.7c-0.5,5.6-0.9,11.2-1.3,16.8c-0.2,1.7,0.2,3.2,1.1,4.8c2.8,4.8,4.3,10,5.8,15.3c0.3,1.1,0.3,2.3-0.1,3.5
		c-0.6,1.7-2.4,2.4-4.1,1.7c-1.1-0.6-1.9-1.3-2.6-2.3c-1.1-1.4-2-3.1-2.8-4.7c-0.3-0.7-0.3-1.6-1.5-2.1c-0.9,2.5-1.7,5.1-2.8,7.4
		c-2.1,5-5.7,8.7-10.4,11.2c-7,3.6-16,0.6-16.8-7.2c-0.2-2.6-1.7-6.7-0.9-9.4c-0.1,0.1-0.2,0.2-0.2,0.2c-2,2.1-4,4-6.3,5.8
		c-3.3,2.6-6,5.8-8.4,9.2c-0.8,1.1-1.5,2.3-2.1,3.5c-0.2,0.2-0.3,0.6-0.4,0.8c3.2,4.8,3.8,10.4,2.2,16.4c-1.2,4.6-2.4,9.1-4.3,13.4
		c-2.3,5.7-2.8,11.6-2.1,17.7c0.4,3.6,1.3,7.2,1.8,10.8c0.3,2.8,1.4,5.2,3,7.5c2.3,3.5,5.5,5.9,9.1,7.7c7.2,3.7,7.2,3.7,12.2,9
		c1-1.4,2.1-2.7,2.9-4.1c3.2-5.1,3.4-10.6,2.1-16.2c-0.2-0.9-0.7-1.7-1.7-2c-2.5-0.9-4.6-2.4-6.3-4.4c-0.2-0.2-0.6-0.2-0.9-0.3
		c0,1.1,0,2.3-0.1,3.4c-0.1,0.9-0.2,1.8-0.6,2.7c-1,2.4-3.5,3.2-5.8,1.8c-1.5-0.9-2.6-2.1-3.3-3.7c-2.7-5.8-2.5-11.7-0.3-17.5
		c1.4-3.8,5.3-5.8,9-5.5c2.2,0.2,4,1.2,5.5,2.8c1.4,1.5,2.8,3.2,4,4.8c0.9,1.3,2,2.1,3.5,2.2c0.6,0.1,1.3,0.2,1.9,0.4
		c5.5,1.5,9.6,4.6,12,9.8c0.5,1,1,2.1,1.4,3.2c0.9,2.4,1.9,4.9,2.8,7.3c1.5,4,4,7.3,7.5,9.8c3.6,2.5,7.4,4.3,11.6,5.4
		c5.3,1.3,10.1,0.5,14.3-3.2c4-3.4,7.6-7.2,10.4-11.6s5.7-8.7,8.6-13c3.7-5.4,8.5-9.5,14.5-12.2c2.4-1.2,5-2.4,7.3-3.6
		c4.2-2.2,6.8-5.6,7.6-10.3c0.2-1.4,0.3-2.8,0.6-4.3c0.2-1-0.2-1.7-1.1-2.3c-3-2.1-6-4.1-8.9-6.2c-3.1-2.3-6.6-3.6-10.3-4.6
		c-1.3-0.3-2.5-0.6-3.8-0.9c-11-1.9-19.9-7.7-27.5-15.5c-4.7-4.8-7.2-11.1-9.3-17.5c-1.2-3.6-1.8-7.3-2.5-11.1
		c-0.6-3.1-1-6.2-1.1-9.3c0-3.2-0.2-6.5-0.2-9.8c-0.1-5.2,0.1-10.4,1.3-15.6c3.2-13.4,11.3-23.2,22.3-31.1c0.9-0.6,1.8-1,2.8-1.4
		c0.9-0.5,1.8-0.9,2.4-1.8c1.8-2.4,4.3-3.8,6.8-5.1c4.6-2.3,9.3-4,14.4-4.7c7.5-1.2,15-1.7,22.5-2.4c1.7-0.2,3.4-0.1,5.1-0.1
		c7.9,0.2,15.4,2.3,22.8,5c1.5,0.6,2.9,1.3,4,2.4c2.2,2.2,4.8,3.7,7.7,4.9c3.3,1.4,6.2,3.8,9.1,6c5,3.8,8.9,8.5,11.5,14.1
		c0.9,1.9,1.8,3.8,2.7,5.7c2.5,5.5,4,11.3,4.8,17.2c0.9,7.8,0.7,15.6,0.2,23.5c-0.7,11.1-5.8,20.4-13,28.7c-0.5,0.6-1.2,1-1.7,1.6
		c-0.9,0.8-1.9,1.4-2.6,2.4c-2.4,2.8-5.5,4.7-8.7,6.6c-3.8,2.2-7.7,3.6-11.9,4.6c-2.8,1.2-5.8,2.1-8.9,2.1c-0.6,0-1.3,0-1.9-0.1
		c-1,0.2-2.1,0.4-3,0.6c-1.7,0.3-2.8,1.2-3.8,2.4c-0.9,1.3-1.8,2.5-2.7,3.8c-0.8,1-1.5,2.3-2.8,2.6c-2.4,0.6-3.8,2.7-5.8,3.8
		c-0.5,0.2-0.8,0.7-0.7,1.3c0.2,2.4,0.1,5.1,0.9,7.3c1.7,4,4,7.7,7.3,10.4c3.7,3.1,7.6,5.9,11.9,8.2
		C523,396.8,530.1,402.9,535.8,410.7z M584.8,297.5c0.2-4.3,4.2-6.6,8.1-4.5c3.2,1.7,5.7,4.1,7.1,7.5c1.3,3,2.2,6.2,2.3,9.4
		c0.1,1.8,0.6,3.2,2.1,4.3c2.8,2.3,4.7,5.3,5.9,8.6c2.4,6.1,3.9,12.4,4,19c0.1,6.8-1.8,13.1-5.5,18.8c-1.2,1.9-2.4,3.6-3.2,5.8
		c-0.2,0.4-0.3,0.7-0.6,1c-1.6,2.6-3.6,3.1-6.2,1.7c-0.6-0.3-0.9-0.7-1.7-0.7c-2.4,0.1-2.4,0-2.1-2.4c0.9-8.7,1.4-17.4-0.2-26.1
		c-1.3-7.1-3.2-14-6.2-20.5c-2.4-4.9-3.3-10.1-3.8-15.4C584.4,301.9,584.7,299.7,584.8,297.5z"/>
	<path class="st3" d="M397.6,434.1c-2.9-2.4-4.6-5.6-5.4-9.3c-0.1-0.6-0.1-1.3-1.1-1.5c-2.1,2.9-4.8,5.4-7.4,7.8
		c-1.5,1.4-2.8,3-4,4.8c-2.4,4.3-1.7,8.4,2.2,11.5c1,0.8,2.1,1.5,3.2,2.1c4.4,2.5,6.6,6.5,7.3,11.4c0.2,1.7,0.2,3.4,0.3,5.1
		c0.3,6.7,2.7,12.6,6.4,18.2c0.9,1.4,2,2.8,3.4,3.7c4,2.5,8.3,4.2,13,4.5c0.6-1,0.3-1.9,0.3-2.8c0-2.8-0.2-5.8,0.2-8.6
		c0.8-7.4,0.9-14.8-0.2-22.2c-0.2-1.5-0.2-3.1-0.3-4.7c-0.1-1.7,0-3.2,0-5c-0.9,0.2-0.9,0.9-1.1,1.5c-0.4,1.1-0.6,2.3-1,3.4
		c-1.7,4-5.8,5.1-8.7,1.8c-4.7-5.2-7.9-11.1-6.2-18.4C399.1,436,398.8,435,397.6,434.1z"/>
	<path class="st3" d="M567.7,605.7c0.6-1.7,1.3-3.4,1.8-5.1c0.6-1.9,1.8-3,3.8-3.5c2.7-0.6,5.3-1.5,7.8-2.4c2.6-0.9,5-2.3,7-4.1
		c2.8-2.4,4.7-5.3,5.1-8.9c0.2-1.7,0.7-3,1.8-4.2c1.7-1.9,2.6-4.3,2.7-6.8c0.2-4.5-0.5-8.9-2.4-12.9c-2.5-5.3-7.4-8.1-13.3-7.7
		c-1.7,0.1-3.3,0.5-4.9,1.2c-8,3.6-15.7,7.5-23.1,12.2c-1.6,1-2.9,2.2-3.2,4.2c-0.1,0.8-0.6,1.1-1.3,1.3c-1.1,0.2-2.3,0.5-3.4,0.9
		c-3.5,1.4-5.8,4-6.6,7.7c-0.2,1.1-0.4,2.4-0.2,3.5c0.2,2.1,0.1,4.1-0.2,6.2c-0.2,1-0.2,2.1-0.2,3c0.1,7,2.1,13.2,5.8,18.9
		c1,1.5,2.2,2.8,3.7,4c5.3,4,12.3,3,16.4-2.2C566.3,609.3,567.1,607.5,567.7,605.7z"/>
	<path class="st3" d="M579.2,159c0,0-0.2-0.2-0.2-0.1c-0.1,0.1-0.2,0.2-0.2,0.2C579,159.3,579.1,159.2,579.2,159z"/>
	<path class="st3" d="M591.8,170.3c0.6-0.1,1-0.2,1.8-0.2c0.9,0,2.1,0.1,3.2,0c2.4-0.2,4.4-2,4.8-4.4c0.7-4-1.3-7-3.6-9.9
		c-0.1-0.1-0.2-0.2-0.3-0.2c-2.5-1.2-5.1-2.1-7.8-0.5c-0.5,0.2-0.9,0.5-1.4,0.6c-4.8,1.9-5.6,7.9-3.2,11.5
		C587.1,169.5,589,170.8,591.8,170.3z"/>
	<path class="st3" d="M616,163c-0.7-1-1.3-2.2-2.1-3.3c-0.3-0.5-0.6-1.2-1.6-0.9c0.9,6.2,0.5,12.4-1.3,18.4c-0.1,0-0.1,0.1-0.2,0.2
		c0,0.1-0.1,0.2-0.1,0.3c-0.1,0.6,0,1,0.2,1.4c2-1.7,3.6-3.6,4.7-5.9c0.2-0.6,0.4-1.3,0.8-1.7c0.1-0.2,0.2-0.2,0.2-0.4
		C617.8,168.2,617.8,165.6,616,163z"/>
	<path class="st3" d="M576.1,178.6c1.3,1.2,2.7,2.4,4.1,3.6c0.7,0.6,1.6,0.9,2.4,1.3c1.6,0.6,3,0.5,3.2-0.2c0.3-1.1-0.7-1.6-1.2-2.3
		c-0.3-0.4-0.6-0.8-0.9-1.3c-2.9-4.1-5-8.5-5-13.7c0-2.3,0-4.5,0-6.8c-3.5,2.8-5.2,6.6-5.1,11.1c0,0.9-0.1,1.8,0,2.7
		C573.6,175.2,574.4,177.1,576.1,178.6z"/>
	<path class="st3" d="M461.6,603.2c1,0.7,1.3,1.7,1.9,2.6c0.7,0.9,1.3,2,2.1,2.8c4.4,4.5,11.1,3.4,14-2.3c0.6-1.3,1.1-2.7,1.3-4.1
		c0.2-1.7,0.7-3.2,2.1-4.4c2.7-2.4,2.8-7.6-0.7-10.8c-1.3-1.3-2.9-2.1-4.5-3c-3.4-1.7-7-2.5-10.7-3.4c-5.8-1.4-11.1-0.2-15.8,3.3
		c-0.8,0.6-1.7,1.3-2.4,2c-2,2-4.1,3.6-6.5,4.9c-0.8,0.5-1.5,1-2.2,1.6c-4.3,3.1-6.3,7.5-6.7,12.6c-0.1,1.2-0.1,2.4-0.3,3.5
		c-1.1,4.4,2.4,8.1,7.3,7.5c2.6-0.3,5.1-0.9,7.3-2.6c1-0.8,2.1-1.4,3.3-2.1c3.6-2,6.9-4.2,9.6-7.2
		C460.7,603.7,461.2,603.5,461.6,603.2z"/>
	<path class="st3" d="M488.8,653.4c-2.5-3.1-5.5-5.6-9.6-6.2c-0.5-0.1-0.9-0.3-1.5-0.6c-4.3-1.8-8.1-1-11.3,2.6
		c-0.7,0.9-1.4,1.4-2.6,1.6c-1.6,0.2-3,0.9-4.2,2c-3.2,2.8-5.2,6.2-5.8,10.3c-1,6.8,3.9,12.3,10.3,11.3c1.3-0.2,2.2,0.2,2.9,1.3
		c0.3,0.6,0.7,1.1,1.2,1.6c0.3,0.3,0.6,0.7,0.9,1h25.5c1.2-2.3,1.7-4.8,1.7-7.7c0-1.1-0.2-2.7-0.6-4.2
		C494.5,661.5,492.1,657.2,488.8,653.4z"/>
	<path class="st3" d="M399.7,622.1c-0.6-8.5-3.8-15.8-10.1-21.7c-1.9-1.7-4.2-3.1-6.8-3.7c-6.2-1.6-12,2.5-12.3,9
		c-0.2,4.9,1.3,9.2,5.1,12.6c1.2,1,2.1,2.2,2.9,3.6c0.9,1.4,1.8,2.8,2.8,4.3c1.5,2.1,3.2,4.1,5.4,5.6c4.5,3.2,9.6,1.9,11.9-3.2
		C399.4,626.5,399.6,624.3,399.7,622.1z"/>
	<path class="st3" d="M628.3,527c-1.7-0.8-3.5-1.2-5.1-1.1c-2.2,0-2.8,0.2-4.4,0.9c-4.2,2-6.5,6.1-5.8,10.9c0.3,2.1,0.5,4.1,0.6,6.2
		c0.3,4,1.7,7.6,4.2,10.7c3.1,4,7.6,5.1,12.2,2.8c3.1-1.4,5.3-3.7,6.7-6.8c0.7-1.6,1.4-3,2.7-4.3c1.2-1.1,1.6-2.7,1.7-4.3
		c0.2-3.2-0.8-5.9-3.1-8.1C635.3,531.1,631.9,528.8,628.3,527z"/>
	<path class="st3" d="M543.7,627.8c-1.4-3.2-3-6.4-5.2-9.2c-1.7-2.1-3.7-4-6.3-5.1c-5.8-2.4-11.9,0.6-13.2,6.9
		c-0.2,1.1-0.4,2.4-0.2,3.5c0.2,3.2,0.9,6.2,2,9.1c0.9,2.2,2.1,4.3,4.1,5.5c1.7,1,2.8,2.3,3.6,4c0.3,0.7,0.8,1.3,1.2,2
		c3.8,5.5,11.1,4.7,14-1.1c1.1-2.1,1.5-4.4,1.3-7.7C544.5,633.6,544.8,630.4,543.7,627.8z"/>
	<path class="st3" d="M360.2,558.1c0.2,0.2,0.3,0.4,0.6,0.6c3.3,3.2,7.2,2.5,9.2-1.5c1.1-2.1,1.5-4.4,1.5-6.8
		c-0.2-1.4-0.2-2.8-0.5-4.3c-1.5-5.7-3.9-11.1-7.2-15.9c-1.7-2.5-4.1-4.4-6.9-5.6c-3.5-1.5-6.8-0.2-8.4,3.3
		c-0.6,1.3-0.8,2.8-0.9,4.2c-0.2,5.8,1.4,11.1,4.7,15.8C354.7,551.4,357.5,554.7,360.2,558.1z"/>
	<path class="st3" d="M410.9,185c2.4-2.1,2.3-2,1-4.4c-0.4-0.7-0.6-1.4-0.9-2.1c-0.4-0.7-0.2-1.8-1.3-2.2c-2.1,3.9-4.8,7.1-7.6,11
		C405.6,187.6,408.4,187.2,410.9,185z"/>
	<path class="st3" d="M375.4,180.8c0.3,0.2,0.7,0.3,0.9,0.5c0.6-0.1,0.8-0.4,0.7-0.8c-0.2-1.6-0.9-3-0.9-4.6
		c-0.2-3.4,0.2-6.7,1.3-10c0.3-0.9,0.6-1.7,0.1-2.6c-0.3-0.6-1.2-0.9-1.6-0.5c-3.2,3.3-5.8,7-7.6,11.2c-0.2,0.6,0,1,0.4,1.4
		C371,177.3,373.2,179.1,375.4,180.8z"/>
	<path class="st3" d="M396.2,172.9c2.8,1.5,5.3,1,7.3-1.3c2.1-2.6,2.1-5.5,0.9-8.4c-1.2-3-3.5-4.3-7.1-4.2c0,0-0.4,0-0.8,0
		c-4.1,0-6.7,3.5-5.5,7.9C391.9,169.5,393.7,171.6,396.2,172.9z"/>
	<path class="st3" d="M888.2,653.7c-2.2-4.4-5-8.6-8.1-12.5c-3.2-3.9-6.7-7.3-10.6-10.4s-8.1-5.7-12.5-7.9l0,0l-6.6-2.9
		c-0.7-0.6-1.4-1.3-2.1-1.9c-1.7-1.4-3.4-2.7-5.3-3.8c-7.7-4.3-16.4-6.8-25.2-8.2c-4.3-0.7-8.8-1.2-13.2-1.4c-2.9-0.2-5.8,0-8.8-0.5
		c-3.2-0.5-6.2-1.9-9.3-2.1c-1.3-0.1-2.4,0-3.7,0.2c-10.1,1-20.2,2.5-30,5.5c-4.9,1.5-9.7,3.3-14.3,5.7c-4.4,2.2-8.3,5.4-12.9,7.2
		c-1.1,0.4-2.2,0.9-3.3,1.3c-23.4,10-44.3,29.7-52.5,54.2l0,0c2.1-0.5,4.7,0.3,6.3-1c0.7-0.6,1.1-1.3,1.4-2.1
		c3.8-8.1,7.4-16.6,13.8-22.8c7.8-7.7,20.2-10.8,29.4-3.7v-0.1c0.1,0.1,0.1,0.2,0.2,0.2c0.6,0.4,1,0.9,1.6,1.3l0.1,0.1
		c0.2,0.2,0.3,0.3,0.5,0.5c0.6,0.6,1.2,1.2,1.7,1.8c0.1,0.2,0.2,0.2,0.2,0.4c-0.8,0-1.6,0-2.4,0.1c-1.7,0.2-3.3,0.6-4.9,1.2
		c-3.2,1.2-6.1,2.9-8.9,4.8c-0.7,0.5-1.3,0.9-2.1,1.4l-1,0.7l-1.8,1.4L703,661c0,0,1-0.2,1.1-0.3c4.8-1.3,9.7-1.3,14.3,0.9
		c0.4,0.2,0.7,0.4,1.1,0.6c0.3,0.2,0.7,0.4,1,0.6c0.7,0.5,1.3,0.9,2,1.5c1.3,1.1,2.4,2.3,3.3,3.6c1.1,1.5,2,3.1,2.8,4.7l0,0
		c-0.2,0.5-0.2,0.9-0.4,1.4c-0.1,0.3-0.2,0.6-0.2,0.9c0,0.1,0,0.1,0,0.2c-0.1,0.6-0.2,1-0.2,1.6c0,0.2,0,0.2,0,0.4s0.1,0.2,0.1,0.4
		c0.1,0.2,0.1,0.5,0.2,0.7c0-0.1,0-0.1,0-0.2c0,0.1,0,0.1,0,0.2v0.1v-0.1c0.2,0.9,0.4,1.7,0.6,2.7c0.2,1,0.5,2.1,0.7,3.2
		c1.3,2.2,2.7,4.3,3.5,6.8c0.1,0.2,0.2,0.5,0.2,0.7c0,0.1,0,0.2,0.1,0.2c0.1,0.2,0.2,0.5,0.2,0.6c0,0,0,0,0,0.1
		c0.1,0.2,0.1,0.5,0.2,0.7c0,0.1,0,0.2,0.1,0.2c0,0.2,0.1,0.4,0.1,0.6c0,0.1,0,0.1,0,0.2c0,0.2,0.1,0.5,0.1,0.6s0,0.2,0,0.2
		c0,0.2,0,0.3,0.1,0.5c0,0.1,0,0.2,0,0.3c0,0.2,0,0.3,0.1,0.6c0,0.1,0,0.2,0,0.3s0,0.2,0,0.3c0,0.2,0,0.5,0,0.7c0,0.1,0,0.1,0,0.2
		c0,0.2,0,0.3,0,0.6c0,0,0,0,0,0.1c0,0.4,0,0.7,0,1.1c0.2,0.2,0.3,0.3,0.4,0.6c0.7,0.9,1.4,1.7,2.1,2.6c0.4,0.4,0.7,0.7,1.1,1.1
		c3,2.6,6.1,5,10,5.9c6.2,1.4,12.6-0.6,19-0.1c1.2,0.1,2.5,0.3,3.6-0.2c2.2-0.9,3.6-4.3,4.7-6.3c1.7-3,3.2-6.1,4.4-9.3
		c2.3-6.1,3.7-12.6,4.2-19c0.8-10.3-1.1-20.7-5.2-30.1c-2.1-4.7-4.6-9.2-7.6-13.4s-6.5-8-10.3-11.5c-0.5-0.5-0.9-0.9-1.4-1.3
		l-2.5-2.1h-0.1c0,0-0.1,0,0,0h0.1l0.2,0.1l0.5,0.1l0.9,0.2l1.4,0.3l0.5,0.1l0.5,0.2l0.9,0.3c2.4,0.8,4.9,1.7,7.2,2.9
		c21.4,11.1,30.6,33.7,32,56.6c0,0.2,0,0.3,0,0.5c0,0.7,0.1,1.3,0,2.1c0,0.6,0,1.3-0.1,1.9c-0.1,0.6-0.1,1.2-0.2,1.8
		c0,0.1,0,0.2,0,0.2c-0.1,0.4-0.2,0.8-0.2,1.3c-0.1,0.3-0.2,0.9-0.2,1.2c0,0.2-0.1,0.6-0.1,0.9c-0.6,3.8-1.9,7.5-3.1,11.2
		c-1.3,3.9-3.5,7.6-1.9,11.7c3.4,8.6,11,11.3,19.4,12.6c1.1,0.2,2.2,0.3,3.3,0.5c1.4,0.2,2.8,0.3,4.2,0.5c1.7,0.2,3.2,0.3,4.8,0.5
		c0.3,0,0.6,0.1,0.9,0.1c0.3,0,0.6,0.1,0.9,0.1c0.6,0,1.2,0,1.7,0c0-0.1,0-0.2,0-0.2c0.7-3.2,2.4-6.1,4-9c7-13.7,9.8-30.1,7.6-45.7
		c-2.1-14.5-10.2-27.9-20.3-38.2c-0.9-0.9-2.1-2.3-1.9-3.7c3.6,0.9,7.4,4,10.6,5.9c3.9,2.4,7.6,5,11.1,7.8
		c6.3,5.3,12.3,12.1,13.6,20.5c2.4,16.1,7,17.1,4.8,33.3c-0.6,4.3-3.2,8.2-4,12.5c-1.2,6-1.6,11.6-3.8,17.4
		c-0.2,0.4-0.4,0.7-0.4,1.1c-0.1,0.4-0.3,3.4-1.1,3.2c2.9,0.9,16.9,3.7,17.6-1.3l0.4-2.8l3.5-19.4c3.4-19.1,3.9-38.2-4.7-56
		c-1.8-3.8-5.1-11.1-7.5-13.3c0.3,0.2,0.6,0.6,0.9,0.8c4.7,4.5,9.2,8.8,12.7,14.3c4.1,6.5,7.7,13.8,10.4,21c0.2,0.6,0.4,1.2,0.6,1.7
		c0.8,2.3,1.4,4.7,1.9,7.1c0.9,4.7,1.5,9.6,1.5,14.4c-0.1,4.8-0.6,9.6-1.7,14.3c-0.3,1.4-0.7,2.8-1.2,4.3c0.4-0.1,0.9-0.2,1.3-0.4
		c1.2-0.5,2.2-1.3,3.1-2.3c0.9-0.9,1.6-2,2.1-3.1s1.1-2.3,1.5-3.5c0.2-0.6,0.3-1.2,0.6-1.8C897.2,686.5,895.7,668.7,888.2,653.7z
		 M731.6,617.4L731.6,617.4c0.1-0.1,0.2-0.1,0.2-0.2C731.7,617.3,731.6,617.3,731.6,617.4z"/>
	<path class="st3" d="M280.7,621.8c-1.1-0.5-2.2-0.9-3.3-1.3c-4.6-1.8-8.5-5-12.9-7.2c-4.6-2.3-9.4-4.2-14.3-5.7
		c-9.8-2.9-19.9-4.5-30-5.5c-1.3-0.2-2.4-0.2-3.7-0.2c-3.2,0.2-6.2,1.7-9.3,2.1c-2.9,0.5-5.8,0.3-8.8,0.5c-4.4,0.2-8.9,0.7-13.2,1.4
		c-8.7,1.4-17.5,3.9-25.2,8.2c-1.9,1-3.6,2.4-5.3,3.8c-0.7,0.6-1.4,1.3-2.1,1.9l-6.6,2.9l0,0c-4.4,2.2-8.6,4.8-12.5,7.9
		c-3.9,3.1-7.4,6.6-10.6,10.4c-3.2,3.9-5.8,8.1-8.1,12.5c-7.6,15-9.1,32.8-4.7,49c0.2,0.6,0.3,1.2,0.6,1.8c0.4,1.2,0.9,2.4,1.5,3.5
		s1.3,2.1,2.1,3.1c0.9,0.9,1.9,1.7,3.1,2.3c0.4,0.2,0.8,0.3,1.3,0.4c-0.5-1.4-0.8-2.8-1.2-4.3c-1.1-4.7-1.6-9.5-1.7-14.3
		c0.1-4.8,0.6-9.6,1.5-14.4c0.5-2.4,1.1-4.7,1.9-7.1c0.2-0.6,0.4-1.2,0.6-1.7c2.8-7.2,6.3-14.5,10.4-21c3.6-5.6,8-9.8,12.7-14.3
		c0.3-0.2,0.6-0.6,0.9-0.8c-2.4,2.2-5.7,9.5-7.5,13.3c-8.6,17.9-8.1,36.9-4.7,56l3.5,19.4l0.4,2.8c0.7,5.1,14.7,2.3,17.6,1.3
		c-0.7,0.2-1-2.8-1.1-3.2s-0.3-0.7-0.4-1.1c-2.3-5.8-2.6-11.4-3.8-17.4c-0.9-4.3-3.5-8.2-4-12.5c-2.1-16.1,2.4-17.1,4.8-33.3
		c1.3-8.5,7.3-15.3,13.6-20.5c3.5-2.9,7.3-5.5,11.1-7.8c3.2-2,7-5,10.6-5.9c0.2,1.4-0.9,2.7-1.9,3.7c-10.1,10.3-18.3,23.7-20.3,38.2
		c-2.2,15.6,0.6,32,7.6,45.7c1.5,2.9,3.2,5.8,4,9c0,0.1,0,0.2,0,0.2c0.6,0,1.2,0,1.7,0c0.3,0,0.6-0.1,0.9-0.1s0.6-0.1,0.9-0.1
		c1.6-0.2,3.2-0.4,4.8-0.5c1.4-0.1,2.8-0.3,4.2-0.5c1.1-0.2,2.2-0.3,3.3-0.5c8.4-1.3,16-4,19.4-12.6c1.6-4.1-0.6-7.8-1.9-11.7
		c-1.2-3.6-2.5-7.3-3.1-11.2c-0.1-0.3-0.1-0.6-0.1-0.9c-0.1-0.3-0.2-0.9-0.2-1.2c-0.1-0.4-0.2-0.8-0.2-1.3c0-0.1,0-0.2,0-0.2
		c-0.1-0.6-0.1-1.2-0.2-1.8c-0.1-0.6-0.1-1.3-0.1-1.9c0-0.7,0-1.3,0-2.1c0-0.2,0-0.3,0-0.5c1.3-22.8,10.6-45.4,32-56.6
		c2.3-1.2,4.7-2.2,7.2-2.9l0.9-0.3l0.5-0.2l0.5-0.1l1.4-0.3l0.9-0.2l0.5-0.1l0.2-0.1h0.1l0,0h-0.1l-2.5,2.1
		c-0.5,0.4-0.9,0.8-1.4,1.3c-3.8,3.5-7.3,7.3-10.3,11.5s-5.5,8.7-7.6,13.4c-4.1,9.4-6,19.8-5.2,30.1c0.5,6.5,1.9,13,4.2,19
		c1.2,3.2,2.7,6.3,4.4,9.3c1.1,2,2.4,5.5,4.7,6.3c1.1,0.5,2.4,0.2,3.6,0.2c6.3-0.6,12.7,1.5,19,0.1c4-0.9,7-3.3,10-5.9
		c0.4-0.4,0.7-0.7,1.1-1.1c0.7-0.9,1.4-1.7,2.1-2.6c0.2-0.2,0.2-0.3,0.4-0.6c0-0.4,0-0.7,0-1.1c0,0,0,0,0-0.1c0-0.2,0-0.3,0-0.6
		c0-0.1,0-0.1,0-0.2c0-0.2,0-0.5,0-0.7c0-0.1,0-0.2,0-0.3s0-0.2,0-0.3c0-0.2,0-0.3,0.1-0.6c0-0.1,0-0.2,0-0.3c0-0.2,0-0.3,0.1-0.5
		c0-0.1,0-0.2,0-0.2c0-0.2,0.1-0.5,0.1-0.6s0-0.1,0-0.2c0-0.2,0.1-0.4,0.1-0.6c0-0.1,0-0.2,0.1-0.2c0.1-0.2,0.1-0.5,0.2-0.7
		c0,0,0,0,0-0.1c0.1-0.2,0.1-0.5,0.2-0.6c0-0.1,0-0.2,0.1-0.2c0.1-0.2,0.2-0.5,0.2-0.7c0.9-2.4,2.2-4.6,3.5-6.8
		c0.2-1,0.5-2.1,0.7-3.2c0.2-0.9,0.4-1.7,0.6-2.7v0.1v-0.1c0-0.1,0-0.1,0-0.2c0,0.1,0,0.1,0,0.2c0.1-0.2,0.1-0.5,0.2-0.7
		c0-0.2,0-0.2,0.1-0.4c0-0.2,0-0.2,0-0.4c-0.1-0.6-0.2-1.1-0.2-1.6c0-0.1,0-0.1,0-0.2c-0.1-0.3-0.2-0.6-0.2-0.9
		c-0.1-0.5-0.2-0.9-0.4-1.4l0,0c0.8-1.7,1.7-3.2,2.8-4.7c0.9-1.3,2.1-2.5,3.3-3.6c0.6-0.5,1.3-1,2-1.5c0.3-0.2,0.7-0.4,1-0.6
		c0.4-0.2,0.7-0.4,1.1-0.6c4.6-2.1,9.5-2.1,14.3-0.9c0.1,0,1.1,0.3,1.1,0.3l-0.9-0.7l-1.8-1.4l-1-0.7c-0.7-0.5-1.3-0.9-2.1-1.4
		c-2.8-1.9-5.7-3.6-8.9-4.8c-1.6-0.6-3.2-0.9-4.9-1.2c-0.8-0.1-1.6-0.2-2.4-0.1c0.1-0.2,0.2-0.2,0.2-0.4c0.5-0.6,1-1.3,1.7-1.8
		c0.2-0.2,0.3-0.3,0.5-0.5l0.1-0.1c0.5-0.5,1-0.9,1.6-1.3c0.1-0.1,0.1-0.2,0.2-0.2v0.1c9.2-7.1,21.6-4,29.4,3.7
		c6.4,6.3,10,14.8,13.8,22.8c0.4,0.8,0.8,1.6,1.4,2.1c1.7,1.3,4.2,0.6,6.3,1l0,0C325,651.6,304,631.9,280.7,621.8z M271.2,617.2
		c0.1,0,0.1,0.1,0.2,0.1l0,0C271.3,617.3,271.2,617.3,271.2,617.2z"/>
</g>
</svg>
