<?xml version="1.0" encoding="utf-8"?>
<!-- Generator: Adobe Illustrator 24.0.1, SVG Export Plug-In . SVG Version: 6.00 Build 0)  -->
<svg version="1.1" id="New_group_1_" xmlns="http://www.w3.org/2000/svg" xmlns:xlink="http://www.w3.org/1999/xlink" x="0px"
	 y="0px" viewBox="0 0 990 781.2" style="enable-background:new 0 0 990 781.2;" xml:space="preserve">
<style type="text/css">
	.st0{fill:#E4716B;}
	.st1{fill:#54555A;}
	.st2{fill:#CF6E24;}
	.st3{fill:#E39229;}
	.st4{fill:#FFFEFE;}
</style>
<g>
	<path d="M168.1,740.6c-0.7,0.9-0.8,1.8-0.9,2.7c-0.6,4.2-2.9,7.6-5.6,10.7c-1.2,1.4-3,1.8-4.8,1.3c-5.3-1.4-10.1-3.6-13.9-7.6
		c-4.5-4.7-9-9.6-12.4-15.2c-0.9-1.5-2-2.6-3.6-3.5c-8-4.4-13.4-11.3-17.9-19c-0.6-1-1-2.2-1.4-3.3c-2.2-6.3-4.3-12.6-4.3-19.3
		c0-12.4,1.7-24.6,7.6-35.7c2.4-4.5,5.9-8.2,9.7-11.5c7-5.9,14.2-11.7,21.7-17c6-4.3,12.5-7.8,19.4-10.3c1.8-0.6,2.6-1.6,2.7-3.5
		c0.1-1.7,0.3-3.3,0.5-5c0.2-2.1-0.2-4.1-1.2-6c-1.1-2.1-2.3-4.2-3.5-6.3c-8.4-15.4-14-31.7-16.2-49.1c-0.7-5.2-1-10.5-1.1-15.8
		c-0.2-5.7-0.2-11.3,0-17c0.7-14.8,2.6-29.5,7.5-43.6c0.7-1.9,1.5-3.7,2.3-5.5c0.7-1.5,1-3.1,0.6-4.7c-1.5-5.8-0.7-11.6-0.2-17.4
		c0.7-7.9,2.5-15.6,5.1-23.1c0.7-2,0.2-2.5-1.8-2.3c-1.9,0.2-3.8,0.6-5.6,1.3c-5.7,2.2-11.6,3.6-17.3,5.8c-1.6,0.6-3.3,0.7-5,0.8
		c-3.7,0.1-6.6-2.1-7.7-5.7c-0.3-0.9-0.5-1.9-0.6-2.8c-0.1-2.5-0.4-4.9-0.9-7.4c-0.2-0.9-0.1-1.9,0.1-2.9c2.2-10,3.8-20.1,6.5-30
		c4.2-15.3,10.4-29.7,19.1-43c3.2-4.8,6-9.8,9.6-14.3c5-6.2,10.7-11.6,16.9-16.6c0.1-0.1,0.1-0.1,0.2-0.1c5-4.3,4.6-3.1,5.9-9.3
		c1.5-7.2,4.7-13.5,10.5-18.4c2.3-2,4.4-4.2,6.6-6.3c1-0.9,0.9-1.5-0.4-1.8c-3.2-0.7-6.4-1.2-9.7-1.8c-0.5-0.1-1.1-0.1-1.7-0.3
		c-3.8-0.9-5.4-3.7-4.2-7.4c0.2-0.8,0.5-1.5,0.9-2.2c4.1-7.4,8.9-14.4,14.9-20.5c5.6-5.6,11.9-10.2,18.8-14c1.8-1,3.7-1.5,5.6-2
		c1.9-0.5,2.1-0.8,1.6-2.7c-0.6-2.3-1-4.7-1.4-7.1c-0.7-5.1,0.1-9.9,2.8-14.3c1.5-2.5,2.9-5.2,4.8-7.5c1-1.3,1-1.8-0.1-3.1
		c-1.7-2-3-4.1-4.4-6.3c-2.6-4.2-4.7-8.6-5.7-13.4c-0.6-2.7-1.5-5.4-2.3-8.1c-2.6-8.1-3-16.3-0.1-24.5c0.1-0.3,0.2-0.6,0.3-0.9
		c1.6-4.1,5.2-5.5,9.1-3.5c1.9,1,3.7,2.2,5.5,3.4c0.5,0.3,1.1,0.7,1.6,1c0.4,0.2,0.9,0.5,1.3,0.2c0.4-0.4,0.2-0.9,0.1-1.4
		c-0.8-3.7-1.7-7.5-2.6-11.2c-1.2-4.9-2-9.9-1.8-15c0.2-7.2-0.1-14.4,0.8-21.6C231,63,237,49.1,248.7,38c8.2-7.8,18-12,29.3-12.9
		c9.7-0.8,19.1,0.3,28.3,3.6c5.6,2,11.2,3.9,16.5,6.5c1.2,0.6,2.3,1,3.7,0.6c8.3-2.1,16.2-0.5,24,2.4c6.6,2.5,12.8,5.8,18.3,10.3
		c2.4,1.9,2.5,1.9,3.8-0.9c2.5-5.3,6.2-9.6,10.5-13.5c0.6-0.5,1.3-1,2-1.3c3.3-1.8,6.7-0.8,8.7,2.4c0.9,1.4,1.4,2.9,2,4.4
		c2.2,5.9,4.5,11.8,8,17.1c5.6,8.4,12.6,15.5,21.2,20.9c2.4,1.5,4.8,2.3,7.7,1.4c2.9-0.9,6-0.6,9.1-0.4c3,0.2,6,0.6,9.1,1
		c4.5,0.6,8.9,0.7,13.3-0.5c1.6-0.4,3.3-0.6,5-0.9c5.8-0.9,11.2-3.2,16.5-5.7c7.5-3.6,15.3-6.1,23.5-7.2c10.5-1.4,20.4-0.1,29.2,6.4
		c1.7,1.3,2.4,1.1,3.8-0.6c3.8-4.7,7.6-9.5,11.5-14.1c3.3-3.9,7.3-7,11.7-9.5c5.3-3,10.5-6.1,16.6-7.2c1.9-0.3,3.8-0.7,5.7-0.8
		c3.2-0.1,5,1.7,5.2,5c0.1,1.8-0.3,3.5-0.7,5.2c-0.3,1.4-0.5,2.8-0.4,4.3c0.1,1.8,0.6,2.1,2.3,1.3c6.1-3.1,12.5-4.8,19.1-6.2
		c3.9-0.9,7.8-1.7,11.7-2.7c7.1-1.7,13.9-4.2,20.4-7.7c8-4.3,16.2-8.3,24.3-12.5c0.8-0.4,1.6-0.8,2.3-1.2c7-4.3,14.1-4,21.3-0.5
		c3.3,1.6,6.2,3.6,9,6c2.2,1.9,4.4,3.7,6.6,5.6c3.5,2.9,6.4,6.3,9,9.9c3.7,5.2,7.4,10.4,10.5,16.1c5.8,10.7,9.2,22.1,10.9,34.1
		c1.1,7.3,1.8,14.7,3.1,22.1c0.5,2.9,0.4,5.9,0.7,8.8c0.2,2.3,0.6,2.7,3,2.8c1.8,0.1,3.5-0.3,5.2-0.6c1.2-0.3,2.3-0.5,3.5-0.7
		c6.1-0.8,10,3.8,9.7,9.6c0,0.8-0.2,1.6-0.4,2.4c-1.1,4.4-2,8.9-3.2,13.3c-1.7,5.6-4.2,10.7-9,14.4c-0.1,0-0.1,0.1-0.2,0.2
		c-0.6,0.6-1.6,1.1-1.3,2.1c0.3,0.9,1.3,0.8,2.1,0.9c5.3,1.4,10.7,2.7,16.1,4c1.3,0.3,2.6,0.7,3.8,1.4c4.5,2.4,6,6.8,3.6,11.3
		c-1.3,2.4-2.7,4.7-4.1,7.1c-1,1.7-2.1,3.4-3,5.2c-0.9,1.6-0.7,2,0.9,2.7c1.8,0.7,3.6,1.4,5.4,2.1c12.1,4.7,20.9,12.8,26.3,24.6
		c2.9,6.2,5.6,12.4,6.7,19.2c0.6,3.7,2.1,6.3,5,8.5c4.9,3.7,7.9,9,11.3,13.9c8.4,12.2,12,26.2,14.8,40.5c1.8,9.3,2.4,18.7,3.4,28.1
		c0.7,6.8,1.9,13.5,5.2,19.6c1.5,2.7,2.2,5.6,2.8,8.6c0.3,1.7,1,3.2,2.2,4.5c1.8,2.1,3.5,4.4,5.3,6.5c2.1,2.5,3.2,5.3,3.6,8.5
		c1.2,10.3,2.3,20.6,3.2,31c0.2,2.3,0.5,4.6,0.5,6.9c0,5.8,1,11.5,1.8,17.2c0.9,6.5,1.8,13,2.6,19.5c0.2,1.9,0.3,3.9,0,5.7
		c-0.6,3.5,0,6.8,0.4,10.3c0.2,1.3,1.2,3-0.1,3.8c-1.1,0.6-2.2-1-3.2-1.7c-2.1-1.5-3.9-3.2-5.7-5.1c-3.5-3.7-7.8-6.3-12.3-8.7
		c-4-2.1-8.2-3.6-12.4-5.2c-0.4-0.1-0.7-0.3-1.2-0.1c-0.5,0.6,0.1,1,0.3,1.5c0.3,0.5,0.6,1,0.9,1.4c7.2,9.9,11.6,21.1,16,32.4
		c2.6,6.7,3.5,13.8,3.9,20.9c1.1,21.1-2.1,41.6-8.9,61.5c-3.4,9.9-7.5,19.4-12.8,28.4c-0.5,0.9-1.1,1.8-1.9,2.5
		c-3.5,3.2-8.5,1.6-9.4-3c-0.4-1.9-0.4-3.8-0.8-5.7c-0.6-3.3-1.3-6.6-2-9.9c-0.1-0.4-0.2-0.8-0.6-1c-0.7,0.3-0.7,1-0.9,1.6
		c-1,3-1.9,6.1-3.5,8.9c-0.7,1.2-0.7,2.4-0.3,3.7c0.9,2.9,1.8,5.8,2.7,8.7c0.4,1.2,1.1,2,2.3,2.5c6,2.5,11.6,5.8,17,9.4
		c4.4,2.9,8.7,5.9,13.1,8.9c1.5,1,2.9,2.3,4,3.8c6.4,8.2,12.6,16.6,17.4,25.8c1.4,2.6,2.6,5.3,3.6,8.1c1.5,3.8,1,7.7,0.4,11.6
		c-1.3,8.5-3.8,16.7-6.9,24.7c-1.4,3.5-3.5,6.6-5.8,9.6c-3.6,4.6-7.6,8.8-12.9,11.7c-1.7,0.9-3,2.2-3.9,3.8
		c-3.2,5.5-7.6,10.1-11.9,14.7c-3.8,4.1-8.7,6.4-14,7.9c-2.4,0.7-4.2-0.3-5.9-2.2c-2.8-3.2-4.5-6.9-5.1-11.2c0-0.2-0.1-0.5-0.2-0.7
		c-0.1-0.1-0.2-0.3-0.3-0.4c-0.8-0.1-1.1,0.5-1.6,1c-1.9,1.8-3.8,3.6-5.8,5.4c-0.9,0.8-1.9,1.5-2.9,2.1c-3.7,2.3-7.4,1.4-9.7-2.3
		c-1.1-1.8-1.9-3.7-2.4-5.7c-0.7-2.8-1.3-5.6-1-8.5c0.2-2.4-0.8-3.9-2.7-5.2c-1.4-0.9-2.8-1.6-4.2-2.3c-3.9-1.7-6.5-4.5-7.9-8.5
		c-0.9-2.6-1.6-2.6-3.5-0.5c-1.5,1.7-2.4,3.6-3,5.7c-1.2,4-3.1,7.5-5.7,10.7c-1.5,1.8-3.1,3.4-5,4.8c-3.6,2.6-8,2-10.8-1.5
		c-1.6-2-2.7-4.4-3.3-6.9c-0.4-1.6-0.8-3.3-0.9-4.9c-0.2-1.9-1-3.2-2.6-4c-4.7-2.4-8.4-6.1-12.1-9.8c-1.6-1.6-3.1-3.2-4.1-5.3
		c-0.5-1-1.2-1.4-2.3-1.4c-0.8,0-1.6,0-2.4,0c-151,0-302,0-453,0c-0.4,0-0.8,0-1.2,0c-2-0.2-3.6,0.3-4.3,2.4
		c-0.1,0.4-0.5,0.9-0.8,1.2c-4.2,4.4-8.2,9-13.6,12c-2.4,1.3-3.9,3.1-4.1,6c-0.3,3.3-1.2,6.4-3.1,9.3c-0.5,0.8-1.1,1.6-1.8,2.2
		c-3,2.9-6.6,3.1-9.9,0.6c-4.9-3.7-8.4-8.5-10.3-14.4c-0.5-1.4-1-2.7-1.5-4c-0.6-1.5-1.6-2.7-2.9-3.8c-1.1-0.9-1.5-0.7-2.1,0.6
		c-0.1,0.2-0.2,0.4-0.2,0.7c-1.4,4.2-4.2,7.1-8.2,8.9c-1.8,0.8-3.4,1.7-4.9,2.9c-1.3,1-1.9,2.2-1.8,3.9c0.3,4.8-0.6,9.4-2.7,13.7
		c-0.7,1.5-1.7,2.7-3.1,3.6c-2,1.3-4,1.5-6.1,0.4c-1.9-1-3.5-2.2-5-3.7c-1.4-1.4-2.8-2.8-4.3-4.2
		C169.5,741.6,169.1,740.9,168.1,740.6z"/>
</g>
<g>
	<path class="st0" d="M530.8,509c-0.3-1.9-0.5-3.8-0.8-5.6c-0.2-1.7-0.4-3.2-0.6-4.9c-0.2-1-0.2-2-0.4-2.9c-0.2-1.7-0.7-3.4-1.2-5
		c-0.8-2.7-2.2-5.2-3.9-7.4c-1-1.2-2.1-1.9-3.8-1.7c-1.7,0.2-3.4,0.2-5.1,0.3c-3.9,0.2-7.8,0.4-11.7-0.2c-3.6-0.5-7.2-1.1-10.9-1.6
		c-1.7-0.2-2-0.1-2.5,1.4c-0.9,2.6-1.6,5.3-1.9,8.2c-0.6,5.5-0.7,11-1.1,16.5c-0.2,3.7-0.3,7.4,0.2,11c0.3,2.4-0.2,4.6-0.8,6.8
		c-0.5,1.9-1.8,2.5-3.8,2.6c-1.4,0.2-2.2-0.8-3.2-1.4c-3.2-1.5-4.3-4.1-4.3-7.5c0-1.6,0-3.2,0-4.7c0.1,0,0.2,0,0.2,0
		c-0.2-2.3-0.1-4.7-0.4-6.9c-0.5-3.1-0.9-6.2-1.7-9.2c-0.8-2.9-2-5.6-2.9-8.3c-0.9-2.7-0.2-6.5-3.9-7.1c-1.2-0.2-2.2,0.2-3.2,0.6
		c-1.2,0.5-2.5,0.8-3.7,1c-5.7,1.1-11.4,1.1-17.1,0.1c-4.7-0.8-4.7-0.8-5.3,3.9c-0.1,0.8-0.2,1.4-0.2,2.2c0.2,8.2,0.9,16.3,3.7,24.1
		c1.4,3.9,2.7,7.9,3.5,11.9c0.2,1.2,0.7,2.3,1.4,3.3c3.2,4.1,6.7,8.1,11.3,10.9c2.4,1.4,4.7,3.2,7.1,4.5c3.8,2.1,7.8,4.1,12.3,4.5
		c3,0.3,6.1,0.5,9.1,1c1,0.2,2,0.2,2.9,0.1c5.1-0.3,10.2-1,15.2-2.2c2.9-0.7,5.6-1.7,8-3.5c1.5-1.1,3.2-1.8,5-2.3
		c2-0.5,3.6-1.4,5.2-2.6c3.1-2.5,5.5-5.6,6.7-9.4c0.5-1.7,1-3.3,1.4-5C530.9,519.5,531.6,514.3,530.8,509z"/>
</g>
<g>
	<path class="st1" d="M486.7,383.8c3.1-0.1,6-0.8,9-1.7c-0.4-0.9-0.8-1.1-1.3-1.3c-3.3-1.4-6.7-2.1-10.3-2.3
		c-4.9-0.2-9.7,0.5-14.6,0.7c-5,0.2-9.9,1.2-14.7,2.4c-0.5,0.2-1.2,0.2-1.4,0.9c0.1,0.1,0.1,0.2,0.2,0.2c0.6,0.1,1.2,0.2,1.8,0.2
		c7.1,0.8,14.1,1.2,21.1,0.8C479.9,383.8,483.4,383.9,486.7,383.8z"/>
	<path class="st1" d="M456,393.5c-2-0.4-4.1-0.8-6.2-0.9c-3.5-0.3-6.2,1.1-8.3,3.8c-0.2,0.3-0.5,0.8-0.3,1c0.3,0.5,0.8,0.3,1.2,0.2
		c1.9-0.8,3.9-0.6,5.8-0.3c2.9,0.5,5.6,1.7,7.6,4.1c3.1,3.8,3.2,11.6,0.3,15.6c-1.2,1.6-2.9,2.3-4.6,2.8c-1.6,0.5-2.9-0.2-4.1-0.9
		c-1.1-0.6-2.2-1.1-3.4-1.4c-2.7-0.8-5.1-0.1-6.8,2.3c-0.9,1.3-2,2.6-2.2,4.7c0.7-0.4,1-0.5,1.3-0.7c3.1-2,4.4-1.9,7.2,0.5
		c1.1,0.8,2,1.8,2.9,2.8c0.5,0.5,0.9,0.8,1.6,0.8c2.8,0.3,5.3-0.1,7.4-2.1c1.1-1.1,2.1-2,3.2-3c1.2-1.1,2-2.4,2.6-4
		c3-8.6,0.8-16.3-3.6-23.7C457.3,394.2,456.8,393.7,456,393.5z"/>
	<path class="st1" d="M509.4,419.8c-1-0.1-2-0.2-2.9-0.2c-2.2,0.1-4.4,0.2-6.6,0.3c-2.6,0.2-5.7-0.8-7.5-2.7c-1-1-1.6-2.3-2.2-3.6
		c-1-2.2-2-4.4-2.4-6.7c-0.6-3.6,0.5-7.1,4-8.6c2-0.8,3.9-2,6.4-3.2c-3.9-1.4-7.1-1.4-10.3,0.1c-2.9,1.3-4.7,3.4-4.9,6.7
		c-0.2,2.2-0.2,4.4,0.5,6.5c0.7,2.3,1,4.8,1.1,7.2c0.1,1.2,0.2,2.4,0.5,3.6c0.8,4.1,3.5,6.5,6.7,8.7c0.5,0.3,1.1,0.5,1.7,0.6
		c3.2,0.8,6.5,0.5,9.1-1.5s4.9-4.4,7.3-6.6C510,420.4,509.7,419.8,509.4,419.8z"/>
	<path class="st1" d="M472.2,422.7c-0.1-2.4-0.2-4.8-0.2-7.1c-1.4,6.6-2.1,13.3-2.9,19.9c-0.5,3.5-0.5,7.1-0.2,10.6
		c0.3,4.3,0.3,3.7,4.4,3.8c2,0.1,2.9-0.9,3.2-2.8c0.2-1.4,0.2-2.9-0.5-4.3C473.2,436.3,472.4,429.5,472.2,422.7z"/>
	<path class="st1" d="M570.8,479.5c-2.7,0.4-5,1.7-7.4,2.9c-4.1,2.3-7.3,5.3-9,9.6c-0.1,0.2-0.2,0.5-0.3,0.7c-1.4,2.8-3.2,5.2-5.7,7
		c-1.1,0.8-2.3,1.9-3.3,2.8c0.2,1.4,0.5,2.9,0.7,4.3c0.7,3.5,0.8,7.1-0.8,10.4c-0.1,0.2-0.2,0.5-0.2,0.7c0,0.4,0.2,0.8,0.7,0.6
		c2.4-0.6,4.7-1.4,6.8-2.6c0.4-0.2,0.8-0.5,1.1-0.9c2.6-3.1,5.4-5.9,7.5-9.5c3.5-5.9,6.8-11.9,9.2-18.3c0.8-2.2,1.7-4.4,2-6.8
		C572.3,479.7,571.8,479.4,570.8,479.5z"/>
	<path class="st1" d="M422.7,497.9c-0.9-0.8-1.9-0.8-2.8-1.1c-4-1.1-7-3.3-9.1-6.8c-1.1-1.8-2.2-3.7-2.4-5.7
		c-0.3-2.3-1.5-2.9-3.5-3.2c-2.6-0.4-5.2-1.2-7.8-1.8c-0.5-0.1-1-0.3-1.5,0.1c0.1,0.3,0.1,0.7,0.3,0.9c1.8,2.8,3.2,5.7,4.5,8.7
		c0.5,1.1,1.1,2.2,1.7,3.2c1.7,2.7,3.4,5.4,4.9,8.1c1.6,2.8,3.6,5.2,6.1,7.3c3.7,3.1,7.7,5.6,11.9,7.7c0.5,0.2,1.1,0.8,1.7,0
		c-1-2.8-2.1-5.6-3.1-8.5C422.7,503.9,422.8,500.8,422.7,497.9z"/>
</g>
<g>
	<path class="st2" d="M369.4,365.2C369.4,365.4,369.5,365.3,369.4,365.2L369.4,365.2z"/>
	<path class="st2" d="M676.5,321.9c2.3-1.8,4.6-3.6,6.8-5.3c0.2-1.1-0.7-1.7-1-2.4c-1.1-2.5-0.3-4.9,2.1-6.2c1.1-0.6,2.3-1,3.5-1.1
		c5.3-0.4,10.4,0.5,15.1,3.4c3.9,2.4,8.3,2.6,12.8,2.3c1-0.1,1.8-0.6,2.6-1.2c2.6-2,5.4-3.2,8.6-3.9c1-0.2,1.9-0.5,2.8-0.8
		c3.2-1.2,6.5-1.8,10.1-1.3c1.6,0.2,1.7-0.1,1.5-1.9c-0.2-1.7-0.4-3.4-0.4-5.1c-0.1-3.7,1.5-6.6,4.4-8.9c4.1-3.2,8.6-4.5,13.8-4
		c2.7,0.3,5.3,0.5,8,0.8c1.4,0.2,2.9,0.5,4.3,0.9c5.8,2.2,11,5.1,15.3,9.6c1.8,2,3.8,3.8,5.7,5.6c1.6,1.5,3.1,3.1,4.6,5.2
		c-1.7-0.2-2.5-1-3.4-1.4c-2.4-1.4-4.9-2.8-7.4-3.9c-1.7-0.7-3.2-1-4.9,0c-1.5,0.9-3.3,0.8-5,1c-3.9,0.3-7.8,0.7-11.6,1.8
		c-1.1,0.3-1.7,0.8-1.9,2c-0.2,1.6-0.7,3.1-1.5,4.5s-0.6,2.8,0,4.2c1.2,3,2.9,5.6,4.9,8.2c0.8,1,1.6,1.9,2.3,2.9
		c1.3,2,1.5,4.1,0.1,6.2c-1.4,1.9-3.3,2.5-5.5,2.1c-3.4-0.6-6.7-1.4-10-2.4c-4.6-1.4-9.2-2.5-14-2.9c-3.3-0.3-6.6-0.4-9.8,0.7
		c-1.5,0.5-1.7,0.8-1.7,2.3c0,0.8,0.1,1.5,0,2.2c-0.5,4.6-4.7,7.5-9.2,6.5c-1.4-0.3-2.7-1.1-4-1.8c-4.7-2.6-9.8-4.4-14.7-6.5
		c-0.1-0.1-0.2-0.1-0.4-0.1s-0.5,0.1-0.6,0.2c-0.2,0.2-0.2,0.5-0.2,0.7s0.2,0.5,0.3,0.7c1.3,2.1,1.6,4.4,0.8,6.7
		c-0.3,0.8,0.1,1.4,0.8,1.8c0.5,0.2,0.8,0.5,1.3,0.7c8.3,4.3,15.6,10,22.4,16.4c1.1,1,2.3,1.8,3.5,2.6c3.8,2.3,7.1,5.2,9.8,8.7
		c1.1,1.4,2.2,2.7,3.4,3.8c9.6,9.2,16.1,20.5,21.4,32.5c1.3,2.9,2.4,5.9,3.4,8.9c0.6,2,1.4,3.9,2.1,5.9c0.5,1.4,1.1,2.8,1.4,4.1
		c0.4,1.6-0.2,2.5-1.7,3.2c-0.8,0.4-1.5,0.4-2.3-0.2c-1.5-1.2-3.1-2.4-4.4-3.8c-1.5-1.6-3.1-3.2-4.7-4.7c-0.7-0.7-1.5-1.3-2.3-1.8
		c-0.4-0.3-0.9-0.5-1.4-0.2s-0.4,0.9-0.2,1.3c0.6,1.2,1.1,2.5,1.8,3.6c2,3.2,3.4,6.5,4.7,9.9c1,2.5,1.7,5.1,2.2,7.7
		c0.3,1.6,0.8,3.1,1.4,4.6c1.5,3.9,2.6,7.9,3.6,11.9c0.2,0.9,0.4,2,0.4,2.9c0,0.6-0.5,1.1-1.1,1.4c-0.6,0.2-1.3,0.2-1.7-0.3
		c-0.5-0.5-0.8-1-1.2-1.6c0.4,3.2,0.4,6.3,0.1,9.6c-0.8,7.4-2.9,14.4-6.3,20.9c-0.3,0.5-0.5,1.1-0.7,1.7l0,0
		c0.7,0.3,1.2,0.8,1.7,1.4c0.2,0.2,0.3,0.4,0.5,0.6c2.9,4.7,5.8,9.3,6.8,14.8c0.1,0.5,0.4,0.9,0.6,1.4c0.1,0.2,0.3,0.3,0.5,0.5
		c0.7-0.1,1-0.7,1.4-1.1c2-1.7,3.8-1.9,5.9-0.3c1.7,1.4,3.3,2.9,4.6,4.7c0.3,0.4,0.5,0.8,1,1c0.5-1.6,0.7-2.4,0.5-3.3
		c-1.1-5.5-2.2-11-3.8-16.3c-0.7-2.3-1.8-4.3-2.8-6.4c-1.4-2.7-2.5-5.6-3.2-8.5c-0.7-2.8,0.1-5,1.9-7.1c0.3-0.4,0.7-0.8,1.1-1.1
		c0.9-0.8,1.2-1.8,1.2-2.9c-0.2-2.9,0.4-5.9-0.5-8.7c-0.5-1.8,0.7-3.5,2.6-3.7c2-0.2,3.8-0.2,5.7,0.8s3.6,2,5.2,3.4
		c4,3.2,7.7,6.8,10.7,11c2.5,3.5,5,6.9,7.4,10.4c2.6,3.7,4.8,7.7,6.2,11.9c3.4,9.9,6.4,19.9,8.3,30.2c0.9,4.9,2.3,9.7,3.2,14.6
		c0.5,2.6,1.6,5.1,0.9,7.8c-0.8,0.2-1.2-0.3-1.5-0.8c-2.8-4.5-6.1-8.5-10-12.1c-0.5-0.5-1-0.8-1.2-1.4c-1.4-3.2-4-5.2-6.3-7.5
		c-1.9-2-3.8-3.8-5.7-5.7c-1.3,1.8-1.3,2-1.6,3.9c-0.5,3.4-0.7,6.8-1.4,10.1c-0.8,3.4-2,6.2-5,8.2c-0.7,0.5-1,1.1-1,1.8
		c0,1-0.2,2,0.1,2.9c1,3.4,0.7,6.8,0.5,10.2c-0.2,3.8-0.8,7.5-2.6,10.9c-1.3,2.4-2.1,5-1.8,7.7c0.2,2.7-1.4,4.8-2.6,7.1
		c-0.2,0.5-1,0.5-1.3,0.2c-1.8-2-3.5-4.1-4.2-6.8c-0.3-1.3-0.5-2.6-0.9-3.9c-0.2-0.6-0.3-1.2-0.9-1.5c-0.7,0.2-0.5,0.8-0.5,1.1
		c0,3.4,0,6.8,0,10.2c0,1.8,0.2,3.7-0.5,5.4c-0.2,0.3-0.2,0.8-0.2,1.1c0.1,6-1.3,11.9-2.7,17.7c3.6-0.2,7.2-0.2,10.8,0
		c0.5,0.1,1.1,0.1,1.7,0.2c4.9-5,9.1-10.5,13-16.3c2.5-3.7,4.1-7.7,5.1-12.1c0.7-2.9,1-5.8,1-8.7c0-2.2,0-4.4,0.7-6.5
		c0.9-3,2.8-5.2,5.9-5.9c3.2-0.8,5.8,0.4,7.9,2.8c1,1.1,1.8,2.3,2.6,3.5c2.9,4.4,5.7,8.8,8.6,13.2c0.2,0.4,0.5,1,1.1,0.7
		c0.2-0.2,0.5-0.5,0.5-0.8c1.1-3.8,1.9-7.6,3.2-11.3c2.9-8.4,2.9-17.1,2.6-25.7c0-1-0.2-2-0.5-2.9c-1.7-7.6-3.2-15.3-5.9-22.7
		c-0.7-1.7-1.1-3.5-1.6-5.3c-2.6-8.7-5.9-17.1-9.8-25.2c-1.4-2.8-2.9-5.3-4.9-7.7c-4.7-5.8-9.4-11.6-14.1-17.4
		c-1.1-1.4-2.3-2.9-3.3-4.4c-0.8-1.4-1.8-2-3.2-1.9c-1.7,0.1-3.1-0.5-4.6-1.1c-1.1-0.4-1.6-1.7-1.1-2.7c0.3-0.6,0.8-1.3,1.4-1.7
		c1.1-0.8,2.3-1.6,3.5-2c4.4-1.7,8.9-3.2,13.7-3.9c4.2-0.6,8.5-0.9,12.7-1.6c3.7-0.6,7.3-0.8,11-0.5c5.6,0.4,11.2,1.2,16.2,4.1
		c0.8,0.5,1.6,0.7,2.3,1c1.4,0.5,1.9,0.2,1.7-1.2c-0.2-2-0.3-3.9-0.6-5.9c-1.3-9.9-2.6-19.8-3.9-29.8c-1.2-9.6-1.3-9.5-6.4-17.6
		c-5.3-8.3-11.2-16.2-16.2-24.9c-4.1-7.2-8-14.6-11.3-22.2c-1.2-2.8-2.4-5.6-3.8-8.3c-1.9-3.5-3.7-7.2-6.5-10.1
		c-4.4-4.4-9.5-8-14.9-11c0,0,0,0-0.1,0l-0.1-0.1l0.2-0.1c0,0-0.1,0.1-0.1,0.2l0,0c0.9-0.5,1.9-0.3,2.8,0.1c1.7,0.8,3.4,1.4,5,2.3
		c2.7,1.4,5.4,2.9,8,4.4c0.9,0.5,1.7,0.9,2.7,0.3c1.4-0.8,2.9-0.6,4.3-0.1c5.5,2,11,4,15.3,8.3c0.3,0.3,0.8,0.5,1.1,0.8
		c0.6-1.1-0.1-1.8-0.5-2.5c-2.6-5.6-4.9-11.4-7-17.3c-0.3-0.8-0.6-1.6-1-2.3c-5.7-11.7-12.1-22.9-21.3-32.3
		c-4.5-4.6-9.4-8.5-15.4-10.9c-1.8-0.8-3.6-1.6-5.3-2.5c-2.1-1.1-3.8-2.6-5.2-4.6c-1.1-1.7-1.9-3.5-1.7-5.5c0.2-2.7,2-4.6,4.7-4.7
		c1.2-0.1,2.4,0.2,3.6,0.3c3.4,0.5,6.8,0.9,10.1,1.4c0.5,0.1,1.2,0.4,1.5-0.5c-0.1-0.3-0.1-0.5-0.2-0.8c-3.5-5.4-7.6-10.1-12.9-13.8
		c-3.6-2.5-7.1-5.1-10.7-7.7c-3.5-2.7-7.4-4.7-11.6-6.2c-2.8-1-5.5-2.1-8.2-3.2c-1.7-0.8-3.2-1.7-4.6-3c-3.4-3.2-4.3-7.5-2.3-11.7
		c0.5-1.1,1.1-2.2,1.9-3.2c1.4-1.9,2.9-3.7,4.3-5.5c0.5-0.7,1.3-1.1,1.3-2.1c-0.5-0.6-1.1-0.9-1.9-1.1c-5.1-1.2-9.9-3.4-15.1-4.4
		c-0.8-0.2-1.7-0.5-2.4-0.8c-2.4-1.1-3.5-3.3-3.2-6c0.2-1.5,0.8-2.9,1.9-3.8c1-0.9,2-1.7,3-2.7c2.2-2.1,4.6-4.1,6-6.8
		c1.6-3.2,3-6.4,4.4-9.6c0.4-0.8,1-1.7,0.5-2.9c-3.2-0.2-6.2,0.5-9.4,1c-1.2,0.2-2.4,0.6-3.6,0.7c-6.2,0.5-10.8-4.7-9.8-10.7
		c0.2-1.2,0.7-2.3,1.1-3.5c0.6-1.6,1.1-3.2,1.8-4.8c3.1-7.4,3.8-15.1,3.1-23c-1.2-14.3-4.7-27.9-10.7-40.9
		c-2.9-6.2-6.4-12.1-10.7-17.5c-2.9-3.7-6.6-6.2-11.1-7.4c-6.3-1.7-12.5-1.7-18.6,0.9c-2,0.8-4,1.8-5.9,2.8
		c-4.3,2.1-8.6,4.2-12.8,6.3C636.8,63.5,621,67.5,605.1,71c-2.8,0.6-5,1.7-7.1,3.5c-1.5,1.3-2.9,2.6-4.5,3.7
		c-4.7,3-17.4,18.4-21.6,6.8c-0.2-0.5-0.2-1-0.4-1.4c-0.6-2.3-0.2-4.6,0.3-6.9c0.4-1.4,0.8-2.8,1.1-4.3c0.2-1.1,0.9-2.7-0.2-3.4
		c-0.9-0.5-1.9,0.8-2.8,1.4c-4.1,2.7-7.7,6.1-11,9.7c-2.6,2.9-5.4,5.9-8.3,8.5c-2.7,2.5-6.7,3.6-10.3,2.8c-1.9-0.4-3.6-1.3-5.4-1.9
		c-3.7-1.1-7.4-0.3-11-1.2c-4.6-1.1-9.2-1.4-13.8-1.1c-7.7,0.5-15.2,2-22.5,5c-13.2,5.3-26.8,6.3-40.7,4.2c-2.2-0.4-4.4-0.7-6.6-1
		c-1.6-0.2-3.3-1.1-4.9-0.3c-2,0.9-2.3,3.2-4.1,4.2c-2.3,1.3-4.8,1.1-7-0.2c-1.3-0.8-2.4-1.7-3.5-2.6c-1.8-1.7-3.8-3.1-5.9-4.4
		c-6.6-4.4-12.6-9.6-17.4-16.1c-2.9-3.9-5.9-7.8-8-12.2c-0.2-0.5-0.4-1.4-1.1-1.1c-0.7,0.2-0.8,0.9-0.9,1.5c-0.7,2.2-1.4,4.4-2,6.6
		c-0.4,1.3-0.9,2.6-1.7,3.6c-2.4,3-6.7,3.2-9.4,0.5c-0.4-0.4-0.7-0.8-0.9-1.1c-1-1.7-2.5-2.6-4.1-3.6c-6.7-4.1-13.5-7.8-20.4-11.5
		c-2.3-1.2-4.7-2.2-7.1-2.8c-2.9-0.7-5.7-1.4-8.5-2.2c-2.7-0.8-5.1-0.8-7.6,1.1c-2.9,2.1-6,1.7-8.9-0.5c-1-0.7-1.8-1.7-2.6-2.6
		c-5.7-6.2-12.5-10.4-21-11.7c-1.6-0.2-3.2-0.5-4.7-0.7c-5.9-0.6-11.7-0.5-17.4,1.2c-2.5,0.8-4.9,1.6-6.8,3.3
		c-4,3.5-7.4,7.5-9.3,12.5c-2.7,7.1-4.7,14.4-5.3,22c-0.5,6.8,0,13.7,0.8,20.5c1.3,11,3.5,21.9,7.4,32.5c1.1,2.8,2,5.6,2.9,8.3
		c0.4,1.1,0.7,2.1,0.8,3.2c1.1,6.5-3,11.6-9.5,12.1c-2.5,0.2-4.9-0.2-7.2-1c-2.3-0.7-4.7-1.5-7-2.2c-0.5-0.2-1.1-0.5-1.8,0.2
		c3.8,6.2,7.4,12.5,12.1,18.3c2.6,3.2,5,6.3,7.6,9.5c2,2.6,4.4,5,6.8,7.2c3.6,3.5,7.2,6.9,10.8,10.4c1,0.9,1.9,2,2.6,3.1
		c1.6,2.5,0.8,4.8-2,5.9c-1.8,0.7-3.5,0.8-5.4,0.4c-5.1-1.1-10.2-2.4-15.3-3.9c-4.1-1.2-7.7-3.1-11.1-5.5c-0.6-0.5-1.2-0.9-1.8-1.3
		c-0.5-0.3-1.3,0-1.4,0.7c-0.2,0.8-0.2,1.7-0.2,2.6c0.2,3.1,0.4,6.1,0,9.2c-0.2,1.1,0.3,1.9,1.1,2.6c1.4,1.2,3,2,4.6,3
		c1.2,0.8,2.1,1.8,3.4,2.4c1.4,0.7,2.8,1.4,3.8,2.5c1.4,1.4,2.2,3.3,1.7,5.1c-0.5,1.6-1.9,2.7-3.5,3.2c-1.8,0.7-3.8,0.4-5.6,1
		c-2.3,0.7-4.5,1.2-6.7,1.8c-4.4,1.2-8.7,2.4-13.1,3.6c-5.5,1.5-10.4,4-14.7,7.9c-1.7,1.5-3.3,2.9-5,4.3c-0.5,0.4-1,0.8-1.1,1.4
		c0.1,0.1,0.2,0.2,0.2,0.3c0.3,0.2,0.7,0.4,1,0.5c5.5,0.7,10.4,2.8,14.9,5.8c1.1,0.8,2.3,1.4,3.5,2.1c4.1,2.8,8.3,5.6,11.9,9.2
		c1,0.9,2,2,2.6,3.1c2.1,3.7-0.4,7.7-4.7,7.6c-0.5,0-1-0.2-1.4-0.2c-1.7-0.2-3.4-0.2-5.1,0.2c-5.4,1-10.7,2.3-15.9,4.2
		c-2.5,0.9-5,2-7.7,2.5c-0.7,0.2-1.4,0.4-2,0.9c-0.9,0.8-2.2,1.7-2,2.9c0.2,1.4,2,1.1,3.1,1.4c1.6,0.4,3.1,0.7,4.7,1.1
		c0.7,0.2,1.4,0.5,2,0.8c2.3,1.2,3.5,3.1,3.4,5.6c-0.2,2.6-1.5,4.4-3.8,5.3c-1.3,0.5-2.6,0.8-3.9,0.8c-3.5-0.2-7.1,0.6-10.6,1
		c-2,0.2-3.8,0.9-5.4,2.1c-7.1,5-13.7,10.7-19.3,17.4c-6.5,7.7-12.4,15.7-17.6,24.3c-4,6.6-7.2,13.6-9.5,21
		c-2.1,7.1-3.8,14.1-5.2,21.3c-0.5,2.8-1,5.6-1.4,8.3c-0.2,1,0.3,1.4,1.2,1.4c2.6,0.1,5.2-0.2,7.7,0.2c3.3,0.5,6.5,0.1,9.8-0.5
		c4.4-0.7,8.7-1.4,13.1-1.4c5,0,10,0.1,15,0.2c2.6,0,5.1,0.6,7.5,1.6c6.5,2.6,6.6,9.4,1.7,12.6c-1.7,1.1-2.9,2.6-4.1,4.1
		c-3.9,5.2-7.1,10.7-10,16.6c-1.9,3.8-2.9,7.7-3.6,11.9c-0.4,2.3-0.4,4.7,0.2,6.9c0.9,3.4,0.4,6.5-1.7,9.4c-3.7,5.2-5.6,11-6.9,17.2
		c-1.7,7.9-2.6,15.9-3.2,24c-1.1,13.8-1.3,27.6,0.2,41.3c1.8,16.7,6.6,32.5,13.7,47.7c2.6,5.6,5.4,11.2,7.7,17
		c0.2,0.6,0.5,1.1,0.8,1.7c2.8-0.4,5.6-0.6,8.3-0.8c1.4-0.1,2.9-0.1,4.4-0.1c1.8-8.7,5.1-16.7,10.7-23.8c4.2-5.4,8.6-10.7,11.9-16.7
		c1.9-3.5,5.9-4.8,9.5-4c0.8,0.2,1.4,0.5,2.1,0.8c0-1,0.1-2,0.4-2.9c0.2-0.6,0.3-1.2,0.3-1.8c-0.3-3.7,0.5-7.3,0.9-10.9
		s1.2-7.2,2.2-10.7c1.4-5.2,2.9-10.4,5.1-15.3c-7.5,6.1-14,13.3-19.2,21.5c1.5-16.8,3-33.6,4.5-50.4c1.5-16.7,3-33.7-0.9-50
		c-3.9,4.8-7.7,9.7-11.6,14.5c6.1-23.8,22.5-44.9,44-56.6c-1.3,0.6-2.9,0.9-4.4,1.3c-1.5,0.5-3,0.9-4.5,1.4c-3,0.9-6,1.8-9,2.7
		c-2.9,0.8-4.9,2.3-7.3,3.9c-1.4,0.9-2.8,1.8-4.1,2.6c-1.3,0.8-2.8,2.2-4.2,2.6c0.3-1.1,1.3-2.2,1.9-3.1c0.7-1.1,1.4-2,2.1-3.1
		c1.4-2,2.9-4,4.6-5.9c3.2-3.8,6.7-7.3,10.5-10.5c7.5-6.5,16.2-11.6,25.3-15.3c0.1-0.1,0.3-0.2,0.5-0.2c18.6-7.3,39.7-8.1,58.8-2.3
		c-0.2,0.1-0.5,0.1-0.8,0.2c4.7-0.2,9.5,0.2,14.4,1.1c6.2,1.1,12,2.9,17.8,5.4c8,3.5,16.3,5.8,24.9,7.1c0.8,0.2,1.6,0.2,2.3,0.2
		c1-0.1,2-0.1,2-0.1c5.8,0.6,13.8-6.5,18.3-9.5c5.9-4.1,11.4-8,16.5-13.1c2.6-2.6,9.5-7.9,13.6-5.3c5.4-3.2,11.3-5,17.4-6.2
		c11.3-2.1,22.8-2.9,34.3-2.5c11.7,0.4,22.7,3.2,32.8,8.6c1.2-0.9,2.6-1,3.8-0.6c1.9,0.7,3.8,0.8,5.8,0.6
		c9.1-0.8,10.4,5.6,15.1,11.4c4.4,5.4,11.5,5.9,16.9,10.1c4.9,3.8,10.1,5.3,16.1,3.4c2.1-0.7,6.7-3.7,8.8-4.3c1-0.3,5.4-2.6,6.6-2
		c2.8-0.8,5.6-0.9,8.5-0.4c2.4,0.5,4.8,1,7.1,1.5c1,0.2,1.9,0.5,2.9,0.5c1.7,0.2,3.3-0.3,4.7-1.4c3.3-2.6,6.4-5.4,9.2-8.5
		c-1.1,0.4-2.2,0.7-3.4,0.9c-0.2,0-0.5-0.2-0.7-0.2c-0.2-0.8,0.4-1.1,0.8-1.6c1.7-2.2,3.5-4.4,5.2-6.6c2.9-3.9,5-8.1,5.9-12.9
		c0.4-2.1,1.1-4,2.3-5.7c1.7-2.6,3.2-5.2,4.8-7.8c0.5-0.8,1.1-1.7,1.4-2.6c1-2.1,0.8-3.3-0.9-5c-1.5-1.4-3-2.9-4.4-4.4
		c-5.3-6-11.6-10.7-17.7-15.9c-6.5-5.4-14.1-8.6-22.1-11.1c-8.4-2.6-17.1-4.3-25.9-4.4c-1,0-2,0-2.9-0.3c-2.9-1.1-5.8-0.8-8.6-0.1
		c-1.4,0.3-2.9,0.7-4.3,1c-0.8,0.2-1.1-0.3-1.3-1c-0.3-1.3,0.1-2.4,0.8-3.5c0.8-1.4,2-2.6,3.1-3.6c0.9-0.8,0.8-2.1,1.4-3.3
		c1.3-2.9,2.3-5.1,3.9-7.1c-1.5-0.7-3.2-1-4.3-2.5c-0.9-1.2-1.7-2.3-2-3.8c-0.5-2.6-1.5-5.2-1.8-7.8c-0.8-5.7,1.1-10.6,5.3-14.5
		c1.2-1.1,2.6-1.9,4.3-0.8c0.8,0.5,1.4,0.2,2-0.2c2.6-1.7,5.5-3.2,7.6-5.7c0.8-1,1.9-1.9,3-2.7c2.6-1.9,5-4,7.3-6.1
		c5.7-5.3,12.2-9.2,19.5-11.9c3.7-1.4,7.5-2.4,11.4-1.8c4.7,0.8,9.3,1.7,13.8,4.8c-4,1-7.3,2.6-10.9,3.2c-2.2,0.4-4.3,1.1-6.2,2.3
		c-0.6,0.4-0.7,1.1-0.1,1.4c2.3,1.6,4.6,3.2,7,4.7c4.7,3.1,9.3,6.3,13.3,10.3c2.5,2.4,4.3,5.3,6,8.3c0.8,1.4,1.4,2.9,1.3,4.5
		c-0.2,2.1-1.2,3.5-3.2,3.9c-0.7,0.2-1.4,0.2-2.2,0.2c-2.4-0.2-4.9-0.4-7.3-0.8c-6.9-1.1-13.6-0.2-20.1,2.2c-1.5,0.5-3,1.1-4.5,1.6
		c0.2,0.6,0,1.4-0.6,1.7c-0.9,0.4-1.8,0.7-2.8,1c-4,1.4-7.7,3.2-10.7,6.2c-0.4,0.4-1,0.8-0.8,1.5c0.8,0.6,1.7,0.2,2.4,0.2
		c6.3-0.5,12.1,0.9,17.5,4.2c0.6,0.4,1.3,0.8,1.9,1.1c3.7,2.4,7.7,3.8,12,4.1c5.6,0.5,11,2.3,16.1,4.7c4.4,2,8,5.1,10.6,9.3
		c1.5,2.5,3.3,4.8,5.2,7.1c2.6,3.1,4.4,6.8,6.5,10.1c1.6,2.3,2.1,5.2,2.7,8c0.2,1.2,0.6,1.4,1.8,1.2c3.4-0.5,6.7-1.5,10-2.4
		C675.4,322.6,676,322.3,676.5,321.9z M791.3,352.6c1.7,0.8,3.5,1.1,5.3,1c4.2-0.4,7.2,1.6,9.8,4.6c1.2,1.4,1.1,2.9,0.7,4.4
		c-0.2,0.4-0.6,0.8-1,1c-0.5,0.2-1.1,0.3-2,0.5c1.3,2.9,3.5,4.7,5,7.1c2.9,4.5,5.9,8.9,7.9,14c0.8,2,1.7,4.1,2.6,6
		c2,4.2,3.5,8.6,5,12.9c0.7,2.1,1.2,4.2,1.7,6.3c0.5,2.3-1.5,4.7-3.8,4.8c-1.7,0.1-3.2-0.5-4.4-1.6c-1-0.9-2-1.9-2.9-2.8
		c-5.6-5.7-11.9-10.7-18.6-15.3c-2.9-2-5.6-4.4-8.7-6c-2.6-1.4-5.2-2.7-7.8-4.1c-0.7-0.3-1.4-0.5-2.3,0c1.8,1.4,3.5,2.7,5.3,4
		c2.9,2.1,5.2,4.8,7.5,7.4c3.5,3.8,5.6,8.5,8,13.1c0.4,0.8,0.8,1.4,1.2,2.2c0.1,0.2-0.2,0.5-0.3,0.6s-0.3,0.1-0.4,0
		c-0.5-0.3-1.1-0.6-1.4-1.1c-5.4-6.1-12.2-10.4-19.2-14.4c-2-1.1-4.2-2-6.4-2.6c-4.1-1.1-6.9-3.7-9.2-6.9
		c-4.2-6.1-8.9-11.9-12.6-18.3c-0.5-0.8-1-1-1.7-1.1c-2.5-0.4-4.1-2-5.3-4.1c-0.8-1.4-0.6-2.7,0.2-4.1c1.7-3.2,4.7-5,7.9-6.1
		c3.1-1.1,6.3-1.8,9.5-2.7c3.5-1.1,7.1-1.2,10.7-1.8c1.9-0.3,3.9-0.4,5.8,0.3c0.6,0.2,1.2,0.3,1.8,0.3
		C783.6,349.7,787.6,351.1,791.3,352.6z M273.2,138.4c-0.6-3.5-1.8-6.8-3.5-9.9c-2.3-4.2-3.9-8.6-4.7-13.5c-0.8-4.6-0.8-9.2-1-13.9
		c0-1,0.2-2,0.7-2.9c0.6-1.2,1.4-2.1,2.5-2.6c-0.3-0.9-0.5-1.8-0.7-2.8c-1.1-5.5-1.7-11-0.7-16.6c0.5-2.4,0.8-4.8,1.5-7.1
		c1.7-5.4,5.6-8.7,10.6-10.9c6-2.7,11.9-1.8,17.7,0.8c6.7,3,12.8,7.1,18.7,11.4c3,2.2,5.9,4.7,8.5,7.5c0.6,0.7,1.1,1.7,2.3,1.7
		c0.6-0.7,0.3-1.4,0.4-2.1c0.5-3.7,4.2-6.7,7.8-6c3.8,0.7,7.6,1.7,11.1,3.5c5.4,2.8,10.7,5.8,16,8.7c3.6,2,7.3,3.9,11,5.9
		c1.3,0.7,2.5,1.5,3.8,2.3c1.8,1,3,2.5,3.8,4.4c1.1,2.7,2.1,5.5,1.1,8.5c-0.2,0.5-0.3,1.2-0.2,1.7c1.1-0.8,2.2-1.6,3.4-2.3
		c0.8-0.5,1.2-1.1,1.3-2c0.2-2,0.5-4.1,0.7-6.2c0.1-0.5,0.1-1,0.2-1.4c0.9-3.4,3.5-4.8,6.7-3.4c2.5,1.1,5,2.1,7.2,3.5
		c2,1.2,4.1,2.2,6.2,3c2.4,1,4.6,2.3,6.5,4.1c0.7,0.7,1.4,1.4,1.7,2.4c0.8,2.2-0.5,4.1-2.8,3.8c-1.3-0.2-2.6-0.7-3.8-1.1
		c-1.7-0.5-3.2-1.1-4.9-1.6c-0.5-0.2-1,0.1-1.1,0.6c-0.1,0.4-0.2,0.7-0.3,1.1c-0.6,3.7-2.9,6-6.4,6.8c-7.8,2-12.6,7.3-15.9,14.1
		c-4.7,9.5-7.3,19.4-6.7,30.1c0.1,1.2,0.2,2.5,0,3.7c-0.5,5.9-6.2,8.8-11.3,5.8c-2.6-1.5-5-3.2-7.4-4.7c-1.7-1.1-3.5-1.8-5.4-2.1
		c-0.7-0.2-1.4-0.2-2.2-0.2c-2.8,0.4-3.5,1.4-2.9,4.2c0.2,1.2,0.6,2.4,0.8,3.6c0.8,5.3-1.4,9.5-6.5,11.4c-2.6,1-4.3,2.7-5.6,5
		c-1.6,2.6-2.6,5.5-3.3,8.5c-0.9,4.1-1.4,8.2-1.2,12.4c0.1,1.8,0.2,3.7-0.2,5.5c-1,4.5-4.9,7.3-9.2,6.4c-2.6-0.5-4.4-2-5.7-4.2
		c-1.1-1.7-1.6-3.6-2-5.5c-0.8-3.8-0.9-7.8-0.5-11.6c0.2-2-0.5-3.5-2-4.8c-3.2-2.9-6.4-5.7-9.8-8.3c-6.2-4.9-11.3-10.6-14.7-17.9
		C278.4,156.4,274.8,147.7,273.2,138.4z M229.9,290.4c0.9-0.5,1.8-0.8,2.8-1c3.2-0.7,6.2-2,9.4-2.9c1.8-0.5,3.3-1.4,4.7-2.6
		c2.8-2.4,5.9-4.4,9.5-5.2c2.3-0.5,4.7-1.1,7.1-1.1c4.1-0.2,8.3-0.1,12.5-0.1c0.8,0,1.4,0.1,2.2,0.2c0.6,0.1,1.2,0.5,1.6-0.3
		c0.3-0.6,0-1.2-0.4-1.7c-0.3-0.5-0.8-1-1.2-1.4c-3.4-2.3-6.6-5-10.2-7c-1.4-0.8-2.7-1.7-4-2.6c-3.1-2-6.3-3.6-9.7-5.1
		c-5-2.1-9.8-4.5-14.6-6.8c-0.8-0.4-1.5-0.8-2-1.5c-1.5-2.2-1-5,1.6-6.6c1.5-1,3.2-1.8,4.9-2.4c4.1-1.5,8.4-2.3,12.7-3.1
		c3.9-0.8,7.7-0.6,11.6-0.7c1.1,0,2.2,0.1,3.3-0.1c2.1-0.2,2.6-0.8,3.1-2.8c1-4.7,4-8.1,11.2-8.1c2.1,0.2,4.8,0.6,7.5,1.3
		c3.3,0.9,6.5,2,9.6,3.4c1.4,0.6,1.7,0.6,2.4-0.6c2.1-3.3,5.1-3.1,8-1.6c1.4,0.7,2.4,1.7,3.5,2.6c2.6,2,5.3,3.9,7.5,6.4
		c1.8,2,2.9,4.1,2.9,6.8c0.1,2.4-0.8,4.4-2.9,5c-2.9,0.9-3.2,2.6-3.1,5.3c0.2,3.8-1.5,6.5-5,8.1c-1.7,0.8-3.2,1.7-5,2.4
		c-1.2,0.5-2,1.4-2.3,2.6c-1.5,4.7-1.4,9.2,1.8,13.2c2,2.5,3.5,5.3,5.3,7.9c1.8,2.8,2.6,6,3.1,9.3c0.1,0.4-0.1,0.8,0.1,1.1
		c1.4,3.8-0.4,7.1-1,10.7c-2.5,5.2-6.2,9-11.9,10.4c-0.8,0.2-1.4,0.2-2.2,0c-4.7-1.3-9.4-2.6-13.8-4.7c-5.1-2.3-10.4-4-16-4.7
		c-4.2-0.6-8.4-1-12.6-1.5c-4.7-0.6-9.5-0.5-14.1-1.4c-2-0.4-4-1.1-5.9-1.8c-3.6-1.4-7.1-3.1-10.7-4.6c-0.7-0.3-1.4-0.6-2-1
		c-2.2-1.4-3.7-3.2-3.5-6C225.8,293.4,227.4,291.5,229.9,290.4z M215.9,407.1c-0.9,3.4-1.8,6.8-3.4,10c-2,4.1-4.3,8-5.8,12.2
		c-1.9,5.3-3.5,10.6-4.6,16.2c-0.5,2.4-1.1,4.7-1.3,7.1c-0.2,3.5-0.3,7.1,0,10.6c0.2,1.7,0.5,3.4,0.6,5c0.1,1.1,0.5,2.1,0.8,3.2
		c1.1,3.7,1.7,7.4,1.4,11.2c-0.3,3.6-1.8,6.9-4.2,9.5c-1.4,1.6-2,2.9-1.1,4.9c0.5,1.1,0.3,2.4,1.3,3.3c1.1-0.2,1.4-1.2,2-2
		c1.1-1.7,2.3-3.5,3.9-4.8c1.4-1.1,2.9-1.8,4.7-1.4c2,0.5,3.4,2,3.6,4.1c0.2,1.1,0,2.2-0.3,3.2c-1.2,4.2-2.3,8.4-3.5,12.7
		c-0.8,2.7-1.2,5.4-1.4,8.3c-0.1,2-0.7,3.8-0.9,5.7c-0.4,3.1-1.7,5.8-3.1,8.5c-3.6,7.2-6,14.9-7.7,22.8c-1.1,5.4-1.6,10.8-1.4,16.3
		c0.1,1.4,0.1,2.7-0.1,4.1c-0.2,1.9-1,3.7-2.9,4.2c-2,0.5-4.1,0.5-5.6-1.5c-0.2-0.3-0.5-0.5-0.7-0.9c-3.3-5.7-6.5-11.4-8.3-17.8
		c-1.7-6.2-3.5-12.3-4.5-18.8c-0.8-5.4-1.5-10.8-1.4-16.3c0.1-3.4,0.1-6.8,0-10.3c-0.1-4.5,0.8-8.9,1.3-13.4
		c0.6-6.1,2.5-11.9,4.1-17.7c1.2-4.4,3.1-8.8,5.6-12.6c1.4-2,1.7-3.9,1.1-6.2c-0.7-2.6-0.5-9.9,0-12.7c1.1-5.4,2.9-10.6,5.3-15.6
		c0.3-0.7,0.7-1.4,0.8-2c0.8-3.5,2.3-6.6,3.6-9.9c2.2-5.5,5.4-10.4,8.7-15.2c1.7-2.5,3.6-4.9,5.8-7.1c0.7-0.7,1.4-1.3,2.4-1.7
		c2.4-1.1,4.8,0.3,5.2,2.9C216.1,405.9,216.1,406.5,215.9,407.1z M428.3,346.7c-0.9,2.4-1.9,4.7-3.6,6.7
		c-5.1,5.9-10.4,11.6-16.7,16.5c-1.7,1.3-3.3,2.6-4.9,3.8c-4.6,3.8-9.9,5.6-15.9,5.9c-0.2,0-0.2,0-0.4,0c-8.2,1.3-15.2-1.7-21.3-6.8
		c-4.1-3.3-8-6.8-11.8-10.4c-2-2-4.4-3.5-6.5-5.3c-0.5-0.5-1.1-0.6-1.7-0.5c-2.3,0.3-4.7,0.1-6.9-0.4c-1.7-0.3-3.2,0-4.5,1
		c-0.1,0.1-0.2,0.2-0.3,0.2c-3.3,2.7-7,2.5-10.7,1.3c-2-0.6-3.9-1.4-5.9-2.1c-4.1-1.4-8.3-1.7-12.6-0.7c-1.1,0.3-2,0.7-2.9,1.5
		c-1.4,1.4-2.9,2.6-4.5,3.8c-2.2,1.7-4.2,3.3-6.2,5.1c-3.4,3.1-7.4,3.9-11.6,2c-5-2.3-9.9-2.3-15-0.8c-1.9,0.5-3.8,1.1-5.6,1.5
		c-1.2,0.3-2.4,0.5-3.6,0.5c-2,0-3.2-1.9-2.6-3.9c0.4-1.2,1.1-2.2,1.9-3.2c0.7-0.8,1.4-1.7,2.1-2.6c0.7-0.8,1.7-1.4,2-2.6
		c-2.5-1.4-5.9-2.1-8.6-1.7c-2.8,0.4-5.5,1.4-8.1,2.3c-3.5,1.2-6.8,2.6-10.4,3.2c-1.1,0.2-2.3,0.9-3.3,1.4c-2,1.1-3.8,2.3-5.9,3
		c-1.1,0.4-1.8,1.2-2.6,1.9c-0.8,0.7-1.5,1.6-2.6,2c-0.6-1.1,0.1-1.7,0.5-2.4c1.4-2.7,2.6-5.5,3.5-8.4c1-3.2,3-5.6,5.5-7.7
		c2.2-1.8,3.5-3.9,3.8-6.8c0.2-1.3,0.8-2.6,1.1-3.8c0.7-2.1,0.2-3.8-1.5-5.3c-5.4-4.7-11.6-5.3-18.3-3.9c-1.3,0.3-2.4,1.1-3.6,1.8
		c-1,0.5-1.9,1.1-2.8,1.7c0.6,0.2,1.3,0.5,1.8,0.8c1.7,1,2.2,2.6,1.6,4.4c-0.5,1.4-1.4,2.5-2.5,3.5c-3.6,3.5-6.5,7.5-9.5,11.6
		c-2.3,3.2-3.1,6.8-3.8,10.5c-0.2,0.5,0.1,1.2,0.2,1.8c0.2,1.1,0.5,2.1,0.8,3.2c0.9,2.7-0.2,4.7-2.2,6.5c-1.6,1.4-3.4,1.9-5.4,1.2
		c-2.4-0.8-4.9-1.4-7.4-2c-6.8-1.6-13.3-0.5-19.6,2.2c-0.5,0.2-1.1,0.5-1.7,0.7c-2.3,0.5-4.7-0.7-5.4-2.6c-1.1-1.7-1.1-3.2,0.5-4.6
		c3.7-3.5,6.1-7.9,9.3-11.6c0.1-0.1,0.2-0.2,0.2-0.3c0.2-0.3,0.2-0.8,0.3-1.1c0.1-0.1,0.2-0.1,0.2-0.2c0.1-0.1,0-0.2,0.1-0.2
		c-0.1,0.1-0.2,0.2-0.3,0.3c-1.1-0.1-1.7,0.8-2.6,1.2c-0.2,0.1-0.5-0.1-0.6-0.2c-0.2-0.2-0.2-0.5-0.2-0.6c0.3-0.5,0.7-1,1.1-1.4
		c3.5-3.7,7.5-6.9,11.6-9.9c4.1-2.9,8.2-5.7,12.5-8.3c3.4-2,6.8-3.7,10.7-4.5c3.2-0.7,6.2-0.4,9.4-0.4c0.2-1.3,0.5-1.4,2.6-4
		c1.2-1.4,2.4-2.8,3.5-4.3s2.6-2.6,3.9-3.8c-0.2-0.5-0.2-0.8-0.3-1.1c-1.2-3.4-1.7-3.7-5.4-3.3c-7,0.8-13.2,3.2-18.7,7.6
		c-0.5,0.5-1.1,1.1-1.8,0.8v0.1l-0.1-0.1h0.1c0-0.1,0-0.2,0.1-0.3c2.6-3.9,5.2-7.7,8.4-11c2.6-2.6,5.6-4.4,8.9-5.6
		c1.4-0.5,2.7-1.1,3.9-2c4-3,12.6-2,15.9,1.7c1.1,1.3,2.4,2,4,2.3c6,1.4,11.4,4.3,16.6,7.4c2.2,1.4,4,3.2,5.4,5.4
		c0.7,1.1,1.4,2,2,3.1c1.6,2.4,1,2.7,4.6,2c3.2-0.6,6.6-0.4,9.8-0.1c3.9,0.4,7.7,0.8,11.6,1.3c6.3,0.8,11.9,3.4,16.8,7.5
		c0.5,0.5,1.1,1,1.7,1.5c0.9,0.8,1.9,1.1,3,0.8c3.7-0.8,7.4-1.8,10.7-3.8c3.2-1.9,6-4.1,8.9-6.4c0.9-0.8,1.4-1.7,1.6-2.8
		c1.3-8.1,5.1-14.9,10.5-21c6.9-7.8,15.3-13.7,24.3-18.6c1.4-0.8,2.9-1.3,3-3.3c0.1-1.2,1.1-2.1,2-2.9c0.8-0.7,1.9-1.1,2.4-2.3
		c-1.7-1.4-3.6-2.5-5.6-3.5c-2.1-1.1-4.2-2-6.2-3c-1.4-0.6-2.8-1-4.2-1.1c-1.1-0.1-2.2-0.2-3.2-0.3c-0.4-0.7,0-0.9,0.4-1.3
		c0.7-0.6,1.4-1.2,2.2-1.7c-3.7-0.1-7.3,0.1-10.8,1.4c-0.5,0.2-1.2,0.2-1.8,0.2c-1.7-0.1-3.4,0.4-5,1.1c-0.6,0.3-1.6,1-1.9,0.1
		c-0.2-0.8-1.2-1.3-1.1-2.2c0.1-0.5,0.2-1,0.5-1.4c0.6-0.8,1.3-1.5,2-2.1c2.6-2,5.3-3.9,8.5-5c1.1-0.4,2-0.8,2.8-1.7
		c2.4-2.6,5.6-3.9,8.8-5c2.8-1,5.6-1.7,8.5-2.2c0.3-0.1,0.8-0.1,0.8-0.5c0-0.3-0.2-0.8-0.4-1c-0.6-0.6-1.3-1.1-2-1.6
		c-0.8-0.6-1.7-1.1-2.3-1.7c-2.2-2-2.4-4.9-0.8-7.3c0.9-1.2,2-2.1,3.3-2.9c2.9-1.7,6.1-2.5,9.4-2.6c5.4-0.3,10.7,0.2,16,1.5
		c3.8,0.9,7.4,2.6,10.6,4.9c0.4-0.2,0.8-0.4,1-0.6c4.1-5.2,4.7-10.8,1.7-16.8c-0.9-1.8-1.8-3.5-2.9-5.2c-0.3-0.2-0.5-0.3-0.8-0.5
		c-2.6-1.4-4.1-3.4-4.7-6.2c-0.6-3-1.4-5.9-2.9-8.6c-0.1-0.2,0.1-0.5,0.1-0.7c0.1,0,0.2-0.2,0.3-0.1c3.5,2.3,7.1,4.3,9.3,8
		c1.1,1.7,2.6,2.5,4.6,2.5c1.5,0,2.9-0.1,4.4-0.4c4.6-1.1,8.9-0.1,13.2,1.8c1.4,0.7,2.8,1.5,3.9,2.7c3.6,3.8,6.5,8,7.3,13.2
		c0.5,3,0.7,6.1,0.6,9.1c-0.1,2-0.7,3.8-2.5,5c-1,0.7-1.5,1.6-2,2.6c-0.4,0.6-0.8,1.1-1.4,1.6c0.5,1.7,1,3.3,1.3,5.1
		c1.3,6.9,1.1,13.8-0.5,20.7c-0.6,2.7-1.9,5-4.1,6.8c-2.1,1.7-4.4,2.4-7.1,1.5s-2.7-0.8-4,1.5c-0.5,1-1.1,1.9-1.8,2.7
		c-1.7,1.7-3.4,2.4-5,1.9c0,0,0,0,0,0.1c0.9,1.6,0.3,2.8-1.5,3.4c-2.5,0.8-5,0.9-7.6,1c-3.5,0.2-7.1,0.1-10.5,1.1
		c-8.5,2.3-16.8,5.2-24,10.4c-5.2,3.7-9.1,8.5-12.5,13.8c-1.4,2-2.3,4.4-2.9,6.7c-0.6,2.2-0.8,4.4-0.2,6.5c0.9,2.9,0.5,5.6-1.6,7.8
		c-0.5,0.5-0.8,1.2-1.2,1.8c-0.3,0.5-0.5,1.2-0.1,1.7s1.1,0.6,1.7,0.5c2-0.2,3.9-0.5,5.3-2.2c1.1-1.3,2.6-1.9,3.8-2.9
		c4.3-3.8,8.5-7.7,12.2-12.2c5.3-6.4,12-11,19.8-14c10.7-4.1,21.2-0.3,28,7.1c2.3,2.4,4.3,5,6.4,7.6c0.7,0.8,1.4,1.7,1.8,2.7
		c0.9,2.3,2.6,3.8,4.4,5.3c1.2,1,2.6,2,3.7,3C428.5,340.6,429.5,343.3,428.3,346.7z M449.3,323.1c-2.8,2.7-5,6-8.4,8.1
		c-2,1.3-4.1,2.7-6.2,3.9c-2.3,1.3-4.4-0.1-4.5-2.8c0-0.2,0-0.2,0-0.4c0.4-1.9-0.3-3.5-1.1-5.3c-2.2-4.5-1.2-7.6,3.1-10.2
		c0.8-0.5,1.5-0.8,2.3-1.1c1.9-0.5,2.6-1.8,3.2-3.6c1.6-4.7,3.2-9.5,4.1-14.4c0.5-2.8,1.1-5.5,1.1-8.3c0-1.7-0.5-3.2-1.3-4.7
		c-0.5-0.8-2.1-5.1,0.4-4.4c1.5,0.4,2.6,1.2,3.6,2.4c1.1,1.4,1.9,2.9,2.1,4.6c0.3,2.1,1.1,4,2.1,5.8s1.6,3.8,2,5.9
		c0.7,4.4,1.7,8.9,1.7,14.1C453.6,316.4,452.3,320.1,449.3,323.1z M500.2,306.4c-0.2,0.7-0.4,1.4-0.8,2c-1.6,2.6-1.8,5.5-2,8.4
		c-0.1,1.8,0,3.7-0.1,5.5c0,0.8-0.8,1.3-1.6,1c-1.3-0.5-2.4-1.1-3.3-2.2c-0.7-0.8-1.5-1.1-2.5-1.4c-3.3-1.2-6.5-1.5-9.9-0.2
		c-1.2,0.5-2.6,0.3-4,0.3c-3,0-5.8,0.7-8.1,2.7c-1.6,1.4-3.4,1.1-5.2,0.8c-1-0.2-1.6-1.1-2-2c-1-2.5-1.1-5-0.5-7.5
		c0.2-1,0.5-1.9,0.5-2.9c0.1-3.2,0.2-6.3,0.6-9.5c0.5-3.8,0.1-7.6,0.2-11.3c0.1-2.3-0.5-4.6-0.9-6.8c-0.3-1.4-0.8-2.7-2.3-3.6
		c-1.7-1.1-2.6-2.9-3.5-4.6c-1.3-2.6-0.9-5.3-0.2-7.8c0.5-1.7,3.1-2.3,4.1-0.8c1,1.4,2.3,2,3.7,2.8c2.6,1.7,5.5,3.2,7.1,6.2
		c0.6,1.1,1.7,1.8,2.8,2.3c1,0.5,2,0.8,2.9,1.5c2.2,1.5,4,1.1,5.9-0.5c2.9-2.5,6.1-4.5,9.2-6.6c1.7-1.1,3.4-1.9,5.3-2.3
		c1.7-0.3,3.3-0.8,4.7-1.9c0.8-0.6,1.7-0.8,2.8-0.8c2.2,0.1,3.6,2,2.9,4.1c-0.2,0.5-0.4,0.9-0.6,1.3c-2.7,3.9-4.7,8.2-6.5,12.5
		c-1.1,2.5-1.7,5-1.7,7.7c1.9-3.1,3.6-6.1,5.6-8.9c1.4-1.9,2.6-3.8,4.1-5.6c1.1-1.4,2.4-2.8,4.2-3.5c1.9-0.7,3.8,0.4,4.1,2.4
		c0.2,1.4,0.1,2.7-0.7,3.9c-1.7,2.8-3.2,5.8-5.2,8.3C505.3,294.6,502.1,300.1,500.2,306.4z M530.5,280.1c-0.3,0.9-0.8,1.8-1.4,2.6
		c-3.2,4.5-4.7,9.6-5.9,14.9c-0.5,1.9-0.3,3.6,0.5,5.3c1.6,3.3,2.6,6.8,3.8,10.3c1.2,3.2,0.7,6.2-1.3,8.9c-0.9,1.3-1.8,2.6-3.1,3.6
		c-2,1.7-4.3,3.2-6.1,5.3c-0.5,0.6-1.3,0.6-2,0.2c-0.5-0.3-1.1-0.6-1.5-1c-2.6-2.9-4.4-6.1-4.5-10.1c-0.1-1.7,0.3-3.2,1.1-4.6
		c0.9-1.4,1.1-2.9,1.4-4.5c0.8-5.8,1.7-11.6,3.9-17.1c1.2-3.1,2-6.3,3.4-9.2s3.2-5.4,6.1-7.1c0.5-0.3,1.1-0.6,1.6-0.9
		c1.1-0.5,2.2-0.5,3,0.4C530.6,277.9,530.9,279,530.5,280.1z M526.3,228.8c-2,3.8-4.4,7.3-5.9,11.3c-1.1,3.1-2.7,6-4.6,8.7
		c-2.9,4.1-7.9,3.9-10.4-0.4c-1.4-2.3-2.3-4.9-2.7-7.5c-0.6-3.3-2-4.9-5.9-3.3c-2,0.8-4.1,0.9-6.1,0.8c-1.1,0-1.9-0.4-2.6-1.1
		c-2-1.7-3.5-3.8-4.3-6.2c-0.3-0.9-0.6-1.9-0.9-2.8c-1.4-4.1-4-7.2-7.2-9.9c-0.5-0.5-1.4-0.2-1.4,0.5c-0.1,0.8-0.1,1.7-0.1,2.6
		c0,4.5,0,9-0.1,13.5c-0.1,3,0.2,6.1-0.6,9.1c-0.3,0.9-0.1,2-0.1,2.9c0,0.6,0,1.2-0.1,1.8c-0.2,1.4-1.7,3.2-3,3.3
		c-1.7,0.2-2.4-1.1-2.9-2.3c-1-2.6-2-5.3-2.7-8c-1.3-5-3.1-9.8-5.5-14.3c-0.8-1.4-1.6-2.7-3.2-3.6c-0.6,0.5-1.1,1.1-1.7,1.5
		c-2.3,2-4.5,1.7-5.9-1.1c-1.1-2-2-4.2-2.8-6.4c-1.9-4.7-3.5-9.6-5.5-14.4c-1.9-4.7-4.7-8.9-7.6-12.9c-2.7-3.8-5.6-7.4-8.9-10.6
		c-4.4-4.3-9.3-7.9-14.6-10.9c-4.6-2.6-8.6-6-12.2-9.8c-1.1-1.2-1.9-2.8-1.7-4.3c0.2-1.8,0.9-3.6,2.6-4.6c2.3-1.4,4.8-2.2,7.6-2.3
		c6.2-0.4,12.1,0.9,17.9,2.9c0.7,0.2,1.4,0.5,2.1,0.7c1.7,0.5,2,0.4,2.7-1.4c0.8-1.7,1.7-3.2,3.5-4.1c2.5-1.3,4.9-0.7,6.9,0.8
		c4.9,3.6,10.4,6.5,14.4,11.1c0.2,0.2,0.3,0.4,0.5,0.5c0.8,0.6,1.4,1.7,2.5,1.1c1-0.5,0.6-1.5,0.8-2.3c0.5-2.5,1-5,1.4-7.5
		c0.2-0.8,0.3-1.4,0.8-2c1.2-1.4,2.9-1.5,4.1-0.2c0.8,0.8,1.2,1.8,1.6,2.9c0.8,2,1.6,4.1,2.3,6.2c0.3,0.9,0.8,1.5,1.7,1.7
		c1.4,0.3,2.4,1.1,3.5,1.8c2,1.3,4.1,2,6.5,2c1.7,0,3.4,0.2,5,0.5c2.5,0.5,5,0.6,7.5-0.5c2.4-1.1,3.6-3.2,4.7-5.4
		c0.7-1.4,1.3-2.9,1.7-4.4c0.5-1.6,1.4-2.9,2.3-4.1c1.4-2,3.5-2.6,5.8-1.7c0.6,0.2,1.1,0.5,1.7,0.8s1,0.1,1.4-0.2
		c0.5-0.5,1.1-1,1.5-1.6c1.9-3,4.8-5.2,6.8-8c1.1-1.6,2.6-2.8,4.3-4s3-2.8,4.6-4.2c0.8-0.8,1.6-1.6,2.5-2.1c2-1.3,4.2-0.5,4.9,1.9
		c0.5,1.7,1,3.2,1,5c-0.1,3.5,0.6,7,1.3,10.4c0.4,1.9,0.6,3.8,1,5.7c0.3,1.5,0.9,1.7,2.3,1.4c6.2-1.7,12.5-3.3,18.7-5
		c3.3-0.9,6.7-1.3,10.1-1.2c1.5,0.1,2.9,0.5,4.2,1c1,0.3,1.1,1.9,2.3,1.7c0.9-0.2,1.7-1.1,2.6-1.4c1.8-0.7,3.7-1.3,5.6-1.8
		c0.2-0.1,0.4,0.2,0.8,0.4c-2.3,2.3-3.9,5-5.9,7.4c-3.2,4-5,8.3-4.8,13.5c0.2,3.4-1.4,5.9-4.1,7.7c-0.9,0.6-1.9,1.2-2.8,1.8
		c-3.5,2.3-6.3,5.3-9,8.5c-4.5,5.6-8.9,11.3-13.1,17.1c-2.6,3.5-4.9,7-7.1,10.6C532.7,217.4,529.4,223,526.3,228.8z M561.8,309.4
		c4.6-2.3,9.4-3.4,14-3.3c2.7-0.1,4.9,0.1,7.1,0.6c2.3,0.5,4.7,1.1,7.2,1.2c8,0.5,14.3,4.5,19.4,10.5c4.4,5.1,8.4,10.4,11.3,16.6
		c0.8,1.8,1.6,3.5,2,5.5c0.5,1.9,0.8,3.8,1.4,5.6c0.5,1.5,0.3,2.8-0.8,3.7c-2.1,1.6-3.4,3.8-5.1,5.7c-5.9,6.4-12.4,12.1-20.8,15.2
		c-2,0.8-3.8,1.5-5.8,2.3c-4.2,1.5-8.3,1.6-12.4-0.5c-1.3-0.7-2.8-1-4.1-1.4c-3.4-1.1-6.8-2-10.1-3.2c-5.3-1.8-9.8-4.8-13.9-8.6
		c-2-2-3.9-4-5.9-6c-2-2.1-4.2-4.1-6.9-5.3c-1.4-0.6-2.8-1.5-4.1-2.5c-1.7-1.4-2.1-3.2-1.3-5.3c0.1-0.2,0.1-0.2,0.2-0.3
		c3-4,4.6-8.9,7.6-12.9c3.4-4.7,7.4-8.8,12.1-12.1C555.6,312.8,558.7,311,561.8,309.4z M602.2,212c-2.7,3.4-5.9,6.1-10.2,7.3
		c-1.1,0.3-2.1,0.7-3.2,1c-2.2,0.6-4.1,1.6-5.9,2.8c-1.4,0.9-2.6,1.7-4.1,2.5c-1.1,0.6-2,1.3-2.5,2.5c-1.1,2.3-2.9,3.5-5.3,4.2
		c-1.5,0.5-3,0.9-4.5,1.4c-2.7,0.9-5,2.5-6.8,4.7c-0.7,0.8-1.4,1.7-2.3,2.4c-1.1,0.9-2.8,0.5-3.4-0.9c-0.4-0.8-0.5-1.7-0.5-2.5
		c0.1-0.8,0.1-1.5,0.4-2.2c1.7-4.3,2.9-8.8,5.9-12.5c0.9-1.1,1.3-2.3,1.6-3.6c0.8-5.1,2.9-9.8,5.9-14.1c3.4-4.9,8.5-6.7,13.8-7.3
		c2.2,0.2,4,0.4,5.6,1.4c1.3,0.8,2.4,0.7,3.8,0.2c2.4-0.9,4.8-1.7,7.4-2c4.6-0.6,6.7,1.1,7.1,5.6C605.4,206.4,604.3,209.4,602.2,212
		z M645.3,153.1c-0.8-1.1-1.8-1.6-3.2-1.4c-1.7,0.1-3.5,0.1-5.1,0.3c-5.6,0.8-11.1,1.7-16.5,3.2c-2,0.6-4.1,1-6.2,0.8
		c-5.4-0.5-8.8-5.5-7-10.5c1.3-3.7,0.5-7.1-1.1-10.2c-1.3-2.5-3.2-4.7-4.8-6.9c-0.9-1.2-2.2-1.9-3.6-2.4c-3.5-1.3-6.9-1.4-10.4-0.4
		c-2.7,0.8-5.3,1.8-8,2.8c-1.6,0.6-3.2,1.2-4.9,1.5c-6,1.1-11.3-2.1-13.2-7.9c-0.5-1.7-0.8-3.3-1.3-5c-0.5-1.5-1-2.9-2.9-3.3
		c-1.7-0.4-2.4-2.2-2-4.1c0.8-4.3,4.7-7,8.9-6.2c1.6,0.3,3,0.9,4.4,1.9c0.8,0.5,1.7,1.1,2.3,1.7c1,0.8,2,0.9,3.1,0.5
		c2.2-0.7,4.5-1.2,6.8-1.5c5-0.8,10-0.2,14.8,1.4c2.7,0.9,2.7,0.9,4.6-1.3c1.4-1.7,2.7-3.5,4.1-5.2c1.1-1.4,2.2-2.9,3.3-4.4
		c3.9-5.1,8.8-9.1,14.5-12.1c6.8-3.5,13.7-7.1,20.7-10.2c0.2-0.3,0.5-0.5,0.8-0.8c4.4-3.2,7.9-7.3,11.6-11.1
		c2.9-2.9,6.2-4.7,9.8-6.1c1.4-0.5,2.8-0.9,4.1-1.4c2.9-1.1,5.7-1.1,8.6-0.4c1.7,0.4,3.3,0.7,5,1.2c3.6,1.2,6.4,3.4,9,6
		c2.6,2.7,4.1,6,5,9.6c0.7,2.9,1.2,5.8,0.8,8.7c-0.8,4.6-0.5,9.2-1.2,13.8c-0.5,2.9-0.3,5.8,0.2,8.7c0.9,5.7,3.3,11,4.4,16.6
		c0.6,3.2,1.3,6.5,1.8,9.6c0.2,0.7,0.2,1.5,0,2.2c-0.9,4.1-1.1,8.2-2.6,12.1c-1.6,4.4-3.6,8.5-6.4,12.2c-3.3,4.4-5.4,9.5-6.4,15
		c-0.5,2.6-0.7,5-0.7,7.6c0,1.1-0.2,2.1-0.7,3c0.2,0.5,0.3,0.9,0.5,1.4c1.7,4.4-3.7,5.6-6.7,4.2c-2-0.9-3.5-2.6-5-4.1
		c-2.3-2.3-5.3-4-8.3-5.1c-1.8-0.7-3.8-1.6-5.7-2c-2.4-0.5-5-0.5-7.4-1c-2-0.5-4-1.1-5.8-2.2c-0.8-0.5-1.3-0.9-1.4-1.4
		c-0.4-0.8,0.2-1.7-0.1-3.3c-0.3-2.9,1.1-5.2,3.4-6.9c0.7-0.5,1.6-0.6,2-1.5c0-0.8-0.7-0.9-1.1-1.3
		C648.2,156.3,646.6,154.9,645.3,153.1z M674.5,276.6c3.8-6.6,8.2-12.4,15-16c1.4-0.7,2.3-1.7,3.2-3c0.1-0.1,0-0.2-0.1-0.5
		c-0.3-0.1-0.7-0.3-1-0.2c-2.9,0.5-5.8,0.8-8.6,1.7c-4.8,1.7-9.7,3.2-14.6,4.9c-2,0.7-3.7,0.5-5.7,0c-5.2-1.4-8.6-8.7-3.5-14.1
		c1.6-1.7,3.1-3.5,5.2-4.7c0.2-0.1,0.2-0.4,0.3-0.6c0.1-0.3-0.2-0.5-0.5-0.5c-1.8,0-3.7-0.1-5.5,0c-2.9,0.1-5.3-1.1-7.4-2.8
		c-1.7-1.4-2.7-3.5-2.9-5.7c-0.2-2-0.2-3.9,0-5.9c0.3-3.3,2-5.9,4.1-8.4c1.4-1.7,2.9-3.3,4.2-5c0.8-1,0.2-2.9-1.1-3.2
		c-0.2-0.1-0.5,0-0.7,0.1c-0.5,0.5-1.1,0.9-1.6,1.5c-1.3,1.7-3.2,1.7-5,1.6c-1.6-0.2-2.6-1.3-2.9-2.9c-0.2-1.8,0.5-3.7,0.4-5.4
		s-0.5-3.3,0-5c0.3-0.9,0.3-2,0.3-2.9c0.2-5.1,4.8-8.8,9.3-9.3c2.4-0.2,4.1,1.4,5.3,3.4c0.2,0.4,0.3,0.9,0.5,1.4
		c0.3,0.6,0.9,1,1.5,0.7c1.5-0.6,2.9-0.4,4.2,0.4c1.5,0.9,3.1,0.8,4.6,0.4c3.7-1.1,7.2-0.5,10.7,0.8c1.4,0.5,2.8,1,4.1,1.7
		c1.9,1,3.8,0.8,5.7,0.5c8.3-1.4,15.9,0,23,4.6c1.6,1.1,2.7,2.3,3.3,4.2c0.4,1.2,0.2,2.1-0.3,3.2c-0.8,1.3-1.7,2.3-3.1,3
		c-0.7,0.4-1.7,0.3-2.2,1.1c1.7,1.4,3.6,2.5,5.1,4.1c2,2.1,3,4.7,3.7,7.4c0.3,1.2-0.2,2.4-0.5,3.5c-0.4,1.5-1.4,2.9-1.2,4.5
		c1.4,0.9,2.6,1.8,4,2.6c5,2.8,9.7,6.2,13.6,10.4c2.6,2.9,5.4,5.6,7.4,9c0.6,1,1.4,1.7,2.3,2.3c4.7,2.7,8.6,6.4,12.8,9.8
		c0.5,0.4,0.9,0.8,1.2,1.4c0.6,1.1,1.4,2,2.5,2.6c0.5,0.3,0.6,0.8,0.5,1.3c-0.2,0.5-0.7,0.7-1.1,0.8c-0.2,0-0.5,0.1-0.8,0
		c-3.4-0.3-6.5,0.4-9.6,1.6c-0.8,0.3-1.7,0.6-2.5,0.6c-3.5-0.2-7,0.6-10.5,0.8c-2.1,0.2-4.1,0.8-5.9,1.8c-3.5,2-7.2,2.9-11.2,2.6
		c-1.6-0.1-3.2,0.1-4.7,0c-3.3-0.2-6.5,0.8-9.8,1.1c-5.1,0.5-9.5,2.7-14.2,4.6c-3.3,1.4-6.6,2.4-9.8,4.1c-2,1.1-4.4,0.9-6.5,0.3
		c-3.2-1-4.4-3.7-4.7-6.8C672.3,282.5,672.8,279.5,674.5,276.6z"/>
	<path class="st2" d="M369,365.1c0.1,0.1,0.1,0.1,0.2,0.2c0-0.1,0-0.1,0.1-0.2C369.1,365.1,369.1,365.1,369,365.1z"/>
	<path class="st2" d="M369.2,365.2C369.2,365.2,369.2,365.3,369.2,365.2C369.2,365.3,369.2,365.2,369.2,365.2L369.2,365.2z"/>
	<path class="st2" d="M856.9,660.5c-1.9-3.8-4.2-7.3-6.8-10.5s-5.6-6.2-8.9-8.8s-6.8-4.8-10.5-6.7l0,0l-5.6-2.5
		c-0.6-0.5-1.2-1.1-1.8-1.6c-1.4-1.2-2.9-2.3-4.4-3.2c-6.5-3.7-13.9-5.7-21.3-6.9c-3.7-0.6-7.4-1-11.1-1.2c-2.5-0.2-5,0-7.4-0.4
		c-2.6-0.5-5.2-1.7-7.9-1.8c-1.1-0.1-2.1,0-3.2,0.2c-8.6,0.9-17.1,2.2-25.3,4.7c-4.1,1.3-8.2,2.9-12.1,4.7c-3.8,1.9-7,4.6-10.9,6.1
		c-0.9,0.4-1.9,0.8-2.8,1.1c-19.8,8.5-37.4,25.1-44.3,45.8l0,0c1.8-0.4,3.9,0.3,5.3-0.9c0.6-0.5,0.9-1.1,1.2-1.8
		c3.2-6.8,6.3-14,11.6-19.3c6.6-6.5,17-9.1,24.8-3.2v-0.1c0,0.1,0.1,0.1,0.1,0.2c0.5,0.4,0.9,0.8,1.3,1.1c0,0,0,0,0.1,0.1
		c0.2,0.2,0.3,0.2,0.5,0.4c0.5,0.5,1,1,1.4,1.5c0.1,0.1,0.2,0.2,0.2,0.3c-0.7,0-1.4,0-2,0.1c-1.4,0.2-2.8,0.5-4.1,1
		c-2.7,1-5.1,2.5-7.4,4.1c-0.6,0.4-1.1,0.8-1.7,1.2l-0.8,0.6l-1.6,1.2l-0.8,0.6c0,0,0.8-0.2,0.9-0.2c4.1-1.1,8.2-1.1,12.1,0.8
		c0.3,0.2,0.6,0.3,0.9,0.5c0.3,0.2,0.6,0.4,0.9,0.5c0.6,0.4,1.1,0.8,1.7,1.3c1.1,0.9,2,2,2.8,3.1c0.9,1.3,1.7,2.6,2.3,4l0,0
		c-0.2,0.4-0.2,0.8-0.3,1.2c-0.1,0.2-0.2,0.5-0.2,0.8c0,0.1,0,0.1,0,0.2c-0.1,0.5-0.2,0.9-0.2,1.4c0,0.1,0,0.2,0,0.3
		s0.1,0.2,0.1,0.3c0,0.2,0.1,0.4,0.1,0.6c0-0.1,0-0.1,0-0.2c0,0.1,0,0.1,0,0.2v0.1c0,0,0,0,0-0.1c0.2,0.8,0.3,1.5,0.5,2.3
		c0.2,0.9,0.4,1.8,0.6,2.7c1.1,1.9,2.3,3.7,2.9,5.7c0.1,0.2,0.2,0.4,0.2,0.6c0,0.1,0,0.1,0.1,0.2c0.1,0.2,0.1,0.4,0.2,0.5
		c0,0,0,0,0,0.1c0.1,0.2,0.1,0.4,0.2,0.6c0,0.1,0,0.2,0,0.2c0,0.2,0.1,0.4,0.1,0.5s0,0.1,0,0.2c0,0.2,0.1,0.4,0.1,0.5s0,0.2,0,0.2
		c0,0.2,0,0.3,0.1,0.5c0,0.1,0,0.2,0,0.3c0,0.2,0,0.3,0,0.5c0,0.1,0,0.2,0,0.3s0,0.2,0,0.3c0,0.2,0,0.5,0,0.6s0,0.1,0,0.2
		c0,0.2,0,0.3,0,0.5c0,0,0,0,0,0.1c0,0.3,0,0.6,0,0.9c0.2,0.2,0.2,0.3,0.4,0.5c0.6,0.8,1.2,1.4,1.8,2.2c0.3,0.3,0.6,0.6,0.9,0.9
		c2.6,2.2,5.1,4.2,8.5,5c5.2,1.2,10.7-0.5,16-0.1c1.1,0.1,2.1,0.2,3.1-0.2c1.9-0.8,2.9-3.7,3.9-5.3c1.4-2.5,2.7-5.1,3.7-7.9
		c2-5.2,3.1-10.6,3.5-16.1c0.7-8.6-0.9-17.4-4.4-25.4c-1.7-4-3.9-7.8-6.5-11.3s-5.5-6.8-8.6-9.7c-0.4-0.4-0.8-0.8-1.2-1.1l-2.1-1.8
		h-0.1l0,0h0.1l0.2,0.1l0.4,0.1l0.8,0.2l1.2,0.3l0.4,0.1l0.4,0.2l0.8,0.2c2.1,0.7,4.1,1.5,6.1,2.5c18,9.4,25.9,28.4,27,47.7
		c0,0.2,0,0.2,0,0.4c0,0.6,0,1.1,0,1.7c0,0.5,0,1.1-0.1,1.7c-0.1,0.5-0.1,1-0.2,1.5c0,0.1,0,0.2,0,0.2c-0.1,0.4-0.1,0.7-0.2,1.1
		c-0.1,0.3-0.2,0.8-0.2,1s-0.1,0.5-0.1,0.7c-0.5,3.2-1.6,6.4-2.6,9.5c-1.1,3.3-2.9,6.4-1.6,9.8c2.9,7.3,9.3,9.5,16.4,10.7
		c0.9,0.2,1.9,0.2,2.9,0.4c1.2,0.2,2.3,0.3,3.5,0.4c1.4,0.1,2.7,0.3,4.1,0.5c0.2,0,0.5,0,0.8,0.1c0.2,0,0.5,0,0.7,0.1
		c0.5,0,1,0,1.4,0c0-0.1,0-0.1,0-0.2c0.6-2.7,2-5.1,3.3-7.6c5.9-11.6,8.3-25.4,6.4-38.6c-1.7-12.2-8.6-23.5-17.1-32.2
		c-0.8-0.8-1.7-2-1.6-3.2c3,0.8,6.2,3.3,8.9,5c3.2,2,6.4,4.2,9.3,6.6c5.3,4.4,10.4,10.2,11.5,17.3c2.1,13.6,5.9,14.4,4.1,28
		c-0.5,3.6-2.7,6.9-3.4,10.6c-1.1,5-1.4,9.8-3.2,14.7c-0.2,0.3-0.3,0.6-0.4,0.9c-0.1,0.4-0.3,2.9-0.9,2.7c2.5,0.8,14.3,3.2,14.9-1.1
		l0.3-2.4l2.9-16.4c2.9-16.2,3.3-32.2-4-47.3c-1.6-3.2-4.3-9.3-6.3-11.2c0.2,0.2,0.5,0.5,0.8,0.7c4,3.8,7.7,7.4,10.7,12.1
		c3.5,5.5,6.5,11.6,8.8,17.7c0.2,0.5,0.3,1,0.5,1.5c0.7,2,1.2,4,1.6,5.9c0.8,4.1,1.2,8.1,1.3,12.2c-0.1,4.1-0.5,8.1-1.4,12
		c-0.3,1.2-0.6,2.4-1,3.6c0.4-0.1,0.8-0.2,1.1-0.3c1.1-0.5,1.9-1.1,2.6-1.9c0.8-0.8,1.3-1.7,1.8-2.6c0.5-0.9,0.9-2,1.2-2.9
		c0.2-0.5,0.3-1,0.5-1.5C864.6,688.2,863.3,673.2,856.9,660.5z M724.8,629.9C724.8,629.9,724.9,629.9,724.8,629.9
		c0.1-0.1,0.1-0.1,0.2-0.1C725,629.9,724.9,629.9,724.8,629.9z"/>
	<path class="st2" d="M258.7,633.7c-0.9-0.4-1.9-0.8-2.8-1.1c-3.9-1.5-7.1-4.2-10.9-6.1c-3.9-2-8-3.5-12.1-4.7
		c-8.3-2.5-16.8-3.8-25.3-4.7c-1.1-0.1-2.1-0.2-3.2-0.2c-2.7,0.2-5.2,1.4-7.9,1.8c-2.4,0.4-4.9,0.3-7.4,0.4
		c-3.8,0.2-7.4,0.6-11.1,1.2c-7.4,1.2-14.7,3.3-21.3,6.9c-1.6,0.9-3.1,2-4.4,3.2c-0.6,0.5-1.2,1.1-1.8,1.6l-5.6,2.5l0,0
		c-3.8,1.8-7.3,4.1-10.5,6.7c-3.2,2.6-6.2,5.6-8.9,8.8c-2.6,3.2-5,6.8-6.8,10.5c-6.4,12.7-7.7,27.7-4,41.3c0.2,0.5,0.3,1.1,0.5,1.5
		c0.3,1,0.8,2,1.2,2.9c0.5,0.9,1.1,1.8,1.8,2.6s1.6,1.5,2.6,1.9c0.4,0.2,0.7,0.2,1.1,0.3c-0.4-1.2-0.7-2.4-1-3.6
		c-0.9-3.9-1.4-8-1.4-12c0-4.1,0.5-8.1,1.3-12.2c0.5-2,1-4,1.6-5.9c0.2-0.5,0.3-1,0.5-1.5c2.3-6.1,5.3-12.2,8.8-17.7
		c3-4.7,6.7-8.3,10.7-12.1c0.2-0.2,0.5-0.5,0.8-0.7c-2,1.9-4.8,8-6.3,11.2c-7.3,15-6.8,31.1-4,47.3l2.9,16.4l0.3,2.4
		c0.6,4.3,12.4,2,14.9,1.1c-0.6,0.2-0.8-2.3-0.9-2.7c-0.1-0.3-0.2-0.6-0.4-0.9c-1.9-4.9-2.2-9.6-3.2-14.7c-0.8-3.6-2.9-6.9-3.4-10.6
		c-1.8-13.6,2-14.4,4.1-28c1.1-7.1,6.1-12.8,11.5-17.3c2.9-2.5,6.1-4.6,9.3-6.6c2.6-1.7,5.9-4.2,8.9-5c0.2,1.2-0.8,2.3-1.6,3.2
		c-8.6,8.7-15.4,20-17.1,32.2c-1.9,13.2,0.5,27,6.4,38.6c1.3,2.5,2.7,4.9,3.3,7.6c0,0.1,0,0.1,0,0.2c0.5,0,1,0,1.4,0
		c0.2,0,0.5,0,0.7-0.1c0.2,0,0.5-0.1,0.8-0.1c1.4-0.2,2.7-0.3,4.1-0.5c1.2-0.1,2.3-0.2,3.5-0.4c1-0.2,1.9-0.2,2.9-0.4
		c7.1-1.1,13.5-3.4,16.4-10.7c1.4-3.5-0.5-6.6-1.6-9.8c-1-3.1-2.1-6.2-2.6-9.5c0-0.2-0.1-0.5-0.1-0.7c-0.1-0.3-0.2-0.8-0.2-1
		c-0.1-0.4-0.1-0.7-0.2-1.1c0-0.1,0-0.2,0-0.2c-0.1-0.5-0.1-1-0.2-1.5c-0.1-0.5-0.1-1.1-0.1-1.7c0-0.6,0-1.1,0-1.7
		c0-0.2,0-0.2,0-0.4c1.1-19.3,8.9-38.3,27-47.7c2-1,4-1.8,6.1-2.5l0.8-0.2l0.4-0.2l0.4-0.1l1.2-0.3l0.8-0.2l0.4-0.1l0.2-0.1h0.1l0,0
		H230l-2.1,1.8c-0.4,0.4-0.8,0.7-1.2,1.1c-3.2,2.9-6.1,6.2-8.6,9.7c-2.6,3.5-4.7,7.3-6.5,11.3c-3.5,8-5,16.8-4.4,25.4
		c0.5,5.5,1.6,11,3.5,16.1c1.1,2.7,2.3,5.3,3.7,7.9c1,1.7,2.1,4.6,3.9,5.3c1,0.4,2,0.2,3.1,0.2c5.3-0.5,10.7,1.3,16,0.1
		c3.3-0.8,5.9-2.8,8.5-5c0.3-0.3,0.6-0.6,0.9-0.9c0.6-0.8,1.2-1.4,1.8-2.2c0.2-0.2,0.2-0.3,0.4-0.5c0-0.3,0-0.6,0-0.9c0,0,0,0,0-0.1
		c0-0.2,0-0.3,0-0.5c0-0.1,0-0.1,0-0.2c0-0.2,0-0.5,0-0.6s0-0.2,0-0.3s0-0.2,0-0.3c0-0.2,0-0.3,0-0.5c0-0.1,0-0.2,0-0.3
		c0-0.2,0-0.3,0.1-0.5c0-0.1,0-0.2,0-0.2c0-0.2,0.1-0.4,0.1-0.5s0-0.1,0-0.2c0-0.2,0.1-0.4,0.1-0.5s0-0.2,0-0.2
		c0.1-0.2,0.1-0.4,0.2-0.6c0,0,0,0,0-0.1c0.1-0.2,0.1-0.4,0.2-0.5c0-0.1,0-0.1,0.1-0.2c0.1-0.2,0.2-0.4,0.2-0.6
		c0.7-2,1.9-3.8,2.9-5.7c0.2-0.9,0.4-1.8,0.6-2.7c0.2-0.8,0.3-1.5,0.5-2.3c0,0,0,0,0,0.1v-0.1c0-0.1,0-0.1,0-0.2c0,0.1,0,0.1,0,0.2
		c0.1-0.2,0.1-0.4,0.1-0.6c0-0.1,0-0.2,0.1-0.3c0-0.1,0-0.2,0-0.3c-0.1-0.5-0.1-0.9-0.2-1.4c0-0.1,0-0.1,0-0.2
		c-0.1-0.2-0.1-0.5-0.2-0.8c-0.1-0.4-0.2-0.8-0.3-1.2l0,0c0.7-1.4,1.4-2.8,2.3-4c0.8-1.1,1.7-2.2,2.8-3.1c0.5-0.5,1.1-0.9,1.7-1.3
		c0.3-0.2,0.6-0.4,0.9-0.5c0.3-0.2,0.6-0.3,0.9-0.5c3.9-1.8,8-1.8,12.1-0.8c0.1,0,0.9,0.2,0.9,0.2l-0.8-0.6l-1.6-1.2l-0.8-0.6
		c-0.6-0.5-1.1-0.8-1.7-1.2c-2.3-1.6-4.8-3.1-7.4-4.1c-1.4-0.5-2.7-0.8-4.1-1c-0.7-0.1-1.4-0.1-2-0.1c0.1-0.1,0.2-0.2,0.2-0.3
		c0.4-0.5,0.9-1.1,1.4-1.5c0.2-0.2,0.3-0.2,0.5-0.4c0,0,0,0,0.1-0.1c0.4-0.4,0.8-0.8,1.3-1.1c0-0.1,0.1-0.1,0.1-0.2v0.1
		c7.8-6,18.2-3.4,24.8,3.2c5.3,5.3,8.5,12.5,11.6,19.3c0.3,0.7,0.7,1.4,1.2,1.8c1.4,1.2,3.5,0.5,5.3,0.9l0,0
		C296.1,658.8,278.4,642.2,258.7,633.7z M250.7,629.9c0.1,0,0.1,0.1,0.2,0.1l0,0C250.8,629.9,250.8,629.9,250.7,629.9z"/>
</g>
<g>
	<path class="st3" d="M818.6,525.5c-1.9-10.3-4.9-20.4-8.3-30.2c-1.4-4.3-3.7-8.3-6.2-11.9c-2.4-3.5-5-6.9-7.4-10.4
		c-3-4.2-6.7-7.7-10.7-11c-1.7-1.4-3.4-2.4-5.2-3.4c-1.9-1-3.8-1.1-5.7-0.8c-1.9,0.2-3.1,1.9-2.6,3.7c0.9,2.9,0.4,5.8,0.5,8.7
		c0.1,1.1-0.3,2.2-1.2,2.9c-0.4,0.3-0.7,0.7-1.1,1.1c-1.8,2-2.6,4.3-1.9,7.1c0.8,3,1.9,5.8,3.2,8.5c1,2.1,2.1,4.1,2.8,6.4
		c1.7,5.3,2.8,10.8,3.8,16.3c0.2,1,0,1.7-0.5,3.3c-0.5-0.1-0.8-0.5-1-1c-1.3-1.8-2.8-3.4-4.6-4.7c-2.1-1.6-3.9-1.4-5.9,0.3
		c-0.5,0.4-0.8,1-1.4,1.1c-0.2-0.2-0.4-0.3-0.5-0.5c-0.2-0.5-0.5-0.9-0.6-1.4c-1.1-5.5-4-10.1-6.8-14.8c-0.2-0.2-0.3-0.4-0.5-0.6
		c-0.5-0.6-1-1.1-1.7-1.4l0,0l0,0c-0.8,1.1-1.4,2-2.2,3c0.3,1.9,0.4,3.5,0.1,4.7c-0.4,1.4-0.5,2.9-0.8,4.3c-0.1,0.5-0.3,0.9-0.8,1.1
		c-0.2-0.2-0.4-0.3-0.5-0.5c-0.9-4.4-3.2-8.2-5.9-11.6c-4.1-5.5-16.5-23.1-23.2-24.9c-3.8-1.1-7.5-1-11.1,0.7
		c-3.2,1.5-6,3.7-8.4,6.3c-0.8,0.8-0.9,1.7-0.7,2.7c0.7,3,1.3,5.9,1.4,9c0.2,4.2,1.2,8.2,2.6,12.2c0.8,2.1,1.5,4.1,2.3,6.2
		c0.3,0.9,0.8,1.7,0.6,2.7h0.1l0,0l0,0l0,0l-0.1,0.1v-0.1c-1.3-0.6-2-1.8-2.6-2.9c-1.6-2.5-3.1-5-4.6-7.5c-0.7-1.1-1.3-2-2.1-3
		c-2.3-2.9-12.9-7.1-16.8-6.2c-0.2,0.1-0.5,0.1-0.8,0.1c-2.6,0.2-4,1.6-4.5,4.1c-1,4.6-1.1,9.2,0.3,13.8c1.7,5.5,3.2,11,4.8,16.5
		c0.4,1.4,0.7,2.9,1.7,4.1c3.6,4.5,7,9.6,11.4,13.4c1.3,1.1,2.6,2.3,3.8,3.5c0.5,0.5,3.3,3.5,1,2.5c-5.1-2.3-9.9-5.1-14.7-7.9
		c-4.4-2.6-8.5-4.6-11.5-8.8c-1.9-2.7-3.7-5.5-5.5-8.3c-1.5-2.4-2.9-4.9-3.3-7.7c-0.3-1.8-1.4-2.7-3-3.4c-0.5-0.2-1,0.1-1.1,0.6
		c-0.2,1.1-0.2,2.2-0.2,3.3c-0.3,5,0.9,10,1.1,15c0,0.7,0.4,1.1,0.8,1.6c0.6,0.6,1.3,1.1,2,1.7c6.8,5.9,12.8,12.5,17.9,19.8
		c2.7,3.8,4.7,8,6,12.5c1.7,6.2,2.6,12.4,3,18.8c0.8,11.6,1.3,23.2-1.2,34.6c-0.6,2.9-0.2,5.6,0.5,8.3c0.2,0.6,0.5,1.2,0.8,1.6
		c1.8,1.9,2.5,4.2,3.1,6.6c0.1-0.1,0.2-0.2,0.3-0.2l1.9-1.6l1-0.8c0.3-0.2,0.7-0.5,1-0.8l2-1.5l0.5-0.4l0.5-0.4l1-0.8l1.1-0.8
		c0.1-0.4,0.2-0.8,0.3-1.2c1.2-4.9,2.8-9.6,4.7-14.3c0.5-1.1,1-2.3,1.8-3.2c0.1-0.1,0.2-0.2,0.2-0.2c0.3-0.4,0.7-0.7,1.1-0.9
		c1.3-0.8,2.9-0.6,4.2,0.4c1.2,0.9,2,2.2,2.6,3.5c1,2.1,1.7,4.2,2,6.5c1.2-0.5,2.4-1.1,3.7-1.6c0.4-0.2,0.8-0.3,1.1-0.5l1.1-0.5
		l2.3-0.8c0.4-0.2,0.8-0.3,1.1-0.5l1.2-0.4l2.3-0.8l1.2-0.4c0.4-0.2,0.8-0.2,1.2-0.3l2.4-0.7l1.2-0.3l0.6-0.2l0.6-0.2l2.4-0.5
		c6.4-1.5,12.9-2.6,19.4-3.3c3-0.3,6-0.5,9-0.7c1.4-5.8,2.8-11.6,2.7-17.7c0-0.4,0-0.8,0.2-1.1c0.7-1.7,0.5-3.6,0.5-5.4
		c0-3.4,0-6.8,0-10.2c0-0.4-0.3-1,0.5-1.1c0.6,0.3,0.8,0.9,0.9,1.5c0.3,1.3,0.6,2.6,0.9,3.9c0.6,2.7,2.4,4.7,4.2,6.8
		c0.3,0.4,1.1,0.3,1.3-0.2c1.1-2.3,2.8-4.4,2.6-7.1c-0.2-2.8,0.5-5.3,1.8-7.7c1.8-3.5,2.3-7.1,2.6-10.9c0.2-3.4,0.5-6.8-0.5-10.2
		c-0.3-0.9-0.1-2-0.1-2.9c0-0.8,0.3-1.4,1-1.8c2.9-2,4.2-4.9,5-8.2s0.9-6.8,1.4-10.1c0.3-2,0.2-2.1,1.6-3.9c1.9,1.9,3.8,3.8,5.7,5.7
		c2.3,2.3,4.9,4.4,6.3,7.5c0.2,0.5,0.8,1,1.2,1.4c3.8,3.6,7.2,7.6,10,12.1c0.3,0.5,0.8,1,1.5,0.8c0.8-2.7-0.4-5.3-0.9-7.8
		C820.8,535.2,819.4,530.4,818.6,525.5z"/>
	<path class="st3" d="M303.6,506.5c-0.2-0.5-0.5-0.8-0.8-1.2c-1.8-2.8-3.9-5.4-5.9-8c-2.1-2.6-4.7-5.6-8-5.9c-3.7-0.5-7,2.1-9.7,4.7
		c-12.2,11.7-21.3,26.5-26.5,42.5c0.1-8.6,0.1-17.1,0.2-25.6c-4.4,2.5-8.6,5.3-12.5,8.5c-2.2,4.9-3.8,10.1-5.1,15.3
		c-0.9,3.5-1.7,7.1-2.2,10.7c-0.4,3.6-1.2,7.2-0.9,10.9c0.1,0.6-0.1,1.2-0.3,1.8c-0.3,1-0.4,2-0.4,2.9c2.5,1.3,4.3,3.8,4.7,7
		c0.3,1.7,0.1,3.4,0,5.1c-0.1,2-0.2,3.9,0.4,5.8c2.2,6.6,4.1,13.3,7.1,19.6c1.9,3.8,3.7,7.7,5.4,11.6c0.7,1.6,1.4,3.1,2.2,4.7
		c6.1,2.5,11.9,5.5,17.4,9l2.1,1.4l2,1.4l1,0.8l0.5,0.4l0.5,0.4l2,1.5c0.3,0.2,0.7,0.5,1,0.8l1,0.8l1.9,1.6c0.6,0.5,1.2,1.1,1.8,1.7
		l0.9,0.8l0.5,0.5l0.5,0.5c1.2,1.1,2.4,2.3,3.5,3.5c0.2,0.2,0.2,0.2,0.4,0.4c1.7-3.1,3.5-6.2,5.2-9.3c2-3.5,4.2-6.6,7-9.4
		c0.9-0.9,1.8-1.7,2.8-2.6c-0.4-0.8-0.8-1.7-1.2-2.5c-1.1-3.8-2.2-7.4-3.4-11.2c-2.4-7.7-3.2-15.5-2.5-23.3
		c-1.1,2.1-2.2,4.2-3.3,6.3c4.5-18.4,9-36.8,13.5-55.2c1.4-5.6,2.7-11.3,1.9-16.9C307.4,513.7,305.8,510,303.6,506.5z"/>
	<path class="st3" d="M576.5,146.7c-0.9,0.4-1.7,1.2-2.6,1.4c-1.1,0.3-1.3-1.4-2.3-1.7c-1.4-0.5-2.7-1-4.2-1
		c-3.5-0.2-6.8,0.3-10.1,1.2c-6.2,1.7-12.5,3.3-18.7,5c-1.4,0.4-2,0.2-2.3-1.4c-0.4-1.9-0.6-3.8-1-5.7c-0.7-3.5-1.4-6.9-1.3-10.4
		c0.1-1.7-0.5-3.4-1-5c-0.7-2.3-2.9-3.2-4.9-1.9c-0.9,0.6-1.7,1.4-2.5,2.1c-1.5,1.4-2.9,3-4.6,4.2c-1.6,1.2-3.2,2.4-4.3,4
		c-2.1,2.9-5,5-6.8,8c-0.4,0.6-1,1.1-1.5,1.6c-0.4,0.4-0.8,0.5-1.4,0.2c-0.5-0.2-1.1-0.6-1.7-0.8c-2.3-0.8-4.4-0.3-5.8,1.7
		c-0.9,1.3-1.8,2.6-2.3,4.1s-1.1,3-1.7,4.4c-1.1,2.2-2.3,4.3-4.7,5.4c-2.5,1.1-5,1-7.5,0.5c-1.7-0.3-3.4-0.5-5-0.5
		c-2.4,0.1-4.6-0.7-6.5-2c-1.1-0.8-2.3-1.5-3.5-1.8c-0.9-0.2-1.4-0.9-1.7-1.7c-0.7-2.1-1.5-4.1-2.3-6.2c-0.4-1.1-0.8-2-1.6-2.9
		c-1.3-1.3-3-1.1-4.1,0.2c-0.5,0.6-0.7,1.3-0.8,2c-0.5,2.5-0.9,5-1.4,7.5c-0.2,0.8,0.2,1.8-0.8,2.3c-1.1,0.5-1.7-0.5-2.5-1.1
		c-0.2-0.2-0.4-0.3-0.5-0.5c-4.1-4.7-9.5-7.5-14.4-11.1c-2-1.5-4.4-2.1-6.9-0.8c-1.7,0.9-2.7,2.3-3.5,4.1s-1.1,1.9-2.7,1.4
		c-0.7-0.2-1.4-0.5-2.1-0.7c-5.8-1.9-11.7-3.2-17.9-2.9c-2.8,0.2-5.3,1-7.6,2.3c-1.7,1-2.5,2.9-2.6,4.6c-0.1,1.5,0.6,3.1,1.7,4.3
		c3.6,3.8,7.5,7.2,12.2,9.8c5.3,3,10.2,6.6,14.6,10.9c3.3,3.2,6.2,6.8,8.9,10.6c2.9,4.1,5.7,8.3,7.6,12.9c2,4.7,3.6,9.5,5.5,14.4
		c0.8,2.2,1.7,4.3,2.8,6.4c1.4,2.7,3.7,3.1,5.9,1.1c0.5-0.5,1.1-1,1.7-1.5c1.6,0.9,2.4,2.2,3.2,3.6c2.4,4.5,4.2,9.3,5.5,14.3
		c0.7,2.7,1.7,5.3,2.7,8c0.5,1.3,1.3,2.5,2.9,2.3c1.3-0.1,2.8-1.9,3-3.3c0.1-0.6,0.1-1.2,0.1-1.8c0-1-0.2-2,0.1-2.9
		c0.9-3,0.6-6.1,0.6-9.1c0.1-4.5,0-9,0.1-13.5c0-0.8,0-1.7,0.1-2.6c0.1-0.7,0.8-0.9,1.4-0.5c3.3,2.6,5.9,5.9,7.2,9.9
		c0.3,0.9,0.6,1.9,0.9,2.8c0.9,2.5,2.3,4.6,4.3,6.2c0.8,0.7,1.6,1.1,2.6,1.1c2.1,0.1,4.1,0,6.1-0.8c4-1.7,5.3,0,5.9,3.3
		c0.5,2.6,1.4,5.2,2.7,7.5c2.6,4.3,7.6,4.4,10.4,0.4c1.9-2.7,3.5-5.6,4.6-8.7c1.5-4.1,3.9-7.6,5.9-11.3c3.1-5.8,6.5-11.4,9.9-17.1
		c2.3-3.6,4.6-7.1,7.1-10.6c4.2-5.8,8.6-11.5,13.1-17.1c2.6-3.2,5.5-6.2,9-8.5c0.9-0.6,1.9-1.1,2.8-1.8c2.7-1.9,4.1-4.4,4.1-7.7
		c-0.2-5.1,1.7-9.5,4.8-13.5c2-2.5,3.5-5.2,5.9-7.4c-0.5-0.2-0.7-0.5-0.8-0.4C580.2,145.4,578.3,146,576.5,146.7z"/>
	<path class="st3" d="M375,91.9c-1.3-0.8-2.5-1.5-3.8-2.3c-3.6-2-7.4-3.8-11-5.9c-5.3-3-10.6-6-16-8.7c-3.5-1.8-7.3-2.8-11.1-3.5
		c-3.7-0.7-7.4,2.3-7.8,6c-0.1,0.7,0.2,1.4-0.4,2.1c-1.1-0.1-1.7-1-2.3-1.7c-2.6-2.9-5.4-5.3-8.5-7.5c-5.9-4.3-12-8.3-18.7-11.4
		c-5.8-2.6-11.6-3.5-17.7-0.8c-5,2.2-8.9,5.5-10.6,10.9c-0.8,2.3-1.1,4.7-1.5,7.1c-1.1,5.6-0.5,11.1,0.7,16.6
		c0.2,0.9,0.5,1.9,0.7,2.8c1.9-1,4.3-0.8,6.2,0.8c0.8,0.7,1.4,1.4,1.7,2.3c1.1,2.5,2.9,4.6,4.6,6.6s3.3,3.9,5,5.9
		c1.4,1.6,3.1,2.8,5.1,3.5c1.4,0.5,2.6,0.5,3.6-0.8c0.6-0.8,1.3-1.5,2-2.2c0.9-1,1.8-2,2.8-2.9c4.1-3.6,8.9-5,14.3-4.4
		c4.1,0.5,7.3,2.7,9.5,6.2c1.3,2.1,2.1,4.4,2.9,6.7c0.5,1.7,1,3.3,1.5,4.9c0.8,2.6,2,5,3.6,7.2c3.1,4.4,7.2,6.8,12.6,7.1
		c2.4,0.1,4.9,0,7.4,0.1c1.1,0,1.9-0.4,2.6-1.2s1.4-1.7,2.3-2.4c1.7-1.7,3.7-2.3,6-1.4c0.3,0.2,0.7,0.1,1,0.2c0.9-0.8,1-1.8,1.4-2.6
		c1.2-2.8,2.3-5.6,3.6-8.4c1.9-4.1,4.6-7.5,8-10.3c1.7-1.4,3.5-2.7,5.2-4.1c0-0.6,0.1-1.2,0.2-1.7c1.1-3,0-5.8-1.1-8.5
		C378,94.5,376.7,93,375,91.9z"/>
	<path class="st3" d="M668.4,263.5c4.8-1.7,9.7-3.2,14.6-4.9c2.8-1,5.7-1.1,8.6-1.7c0.3-0.1,0.7,0.2,1,0.2c0,0.2,0.1,0.4,0.1,0.5
		c-0.8,1.3-1.8,2.3-3.2,3c-6.8,3.6-11.3,9.5-15,16c-1.7,2.9-2.2,5.9-1.8,9.2c0.4,3.1,1.6,5.8,4.7,6.8c2.1,0.7,4.4,0.8,6.5-0.3
		c3.2-1.7,6.5-2.7,9.8-4.1c4.6-1.9,9.1-4.1,14.2-4.6c3.2-0.3,6.5-1.3,9.8-1.1c1.6,0.1,3.2-0.1,4.7,0c4,0.2,7.7-0.7,11.2-2.6
		c1.8-1.1,3.8-1.7,5.9-1.8c3.5-0.2,7-1,10.5-0.8c0.8,0.1,1.7-0.3,2.5-0.6c3.1-1.2,6.3-1.9,9.6-1.6c0.2,0,0.5,0,0.8,0
		c0.5-0.1,1-0.2,1.1-0.8c0.2-0.5,0-1-0.5-1.3c-1.1-0.7-1.9-1.5-2.5-2.6c-0.3-0.5-0.8-1-1.2-1.4c-4.2-3.3-8.1-7-12.8-9.8
		c-1-0.6-1.7-1.3-2.3-2.3c-2-3.3-4.8-6.1-7.4-9c-3.9-4.3-8.6-7.6-13.6-10.4c-1.4-0.8-2.6-1.7-4-2.6c-0.2-1.7,0.8-3,1.2-4.5
		c0.3-1.2,0.8-2.3,0.5-3.5c-0.8-2.7-1.7-5.3-3.7-7.4c-1.5-1.6-3.5-2.6-5.1-4.1c0.6-0.8,1.5-0.8,2.2-1.1c1.4-0.8,2.3-1.7,3.1-3
		c0.5-1,0.7-2,0.3-3.2c-0.5-1.9-1.7-3.2-3.3-4.2c-7.1-4.6-14.8-6-23-4.6c-2,0.3-3.8,0.5-5.7-0.5c-1.3-0.7-2.6-1.2-4.1-1.7
		c-3.5-1.2-7.1-1.7-10.7-0.8c-1.6,0.5-3.2,0.5-4.6-0.4c-1.4-0.8-2.7-1.1-4.2-0.4c-0.6,0.2-1.2-0.1-1.5-0.7c-0.2-0.5-0.2-1-0.5-1.4
		c-1.2-2-2.9-3.6-5.3-3.4c-4.5,0.5-9.1,4.2-9.3,9.3c-0.1,1-0.1,2-0.3,2.9c-0.5,1.7-0.1,3.3,0,5c0.2,1.7-0.6,3.6-0.4,5.4
		c0.2,1.6,1.3,2.7,2.9,2.9c1.9,0.2,3.7,0.2,5-1.6c0.5-0.6,1.1-1.1,1.6-1.5c0.2-0.2,0.5-0.2,0.7-0.1c1.3,0.3,2,2.3,1.1,3.2
		c-1.4,1.7-2.9,3.3-4.2,5c-2,2.5-3.8,5.1-4.1,8.4c-0.2,2-0.2,3.9,0,5.9c0.2,2.3,1.1,4.3,2.9,5.7c2.1,1.7,4.5,2.9,7.4,2.8
		c1.8-0.1,3.7,0,5.5,0c0.3,0,0.5,0.2,0.5,0.5c0,0.2-0.2,0.5-0.3,0.6c-2,1.2-3.5,2.9-5.2,4.7c-5.1,5.4-1.7,12.8,3.5,14.1
		C664.8,264.1,666.5,264.2,668.4,263.5z"/>
	<path class="st3" d="M317.1,232.6c-1.1-0.9-2.3-1.9-3.5-2.6c-2.9-1.5-5.9-1.7-8,1.6c-0.8,1.2-1.1,1.2-2.4,0.6
		c-3.1-1.4-6.3-2.5-9.6-3.4c-2.7-0.8-5.5-1.1-7.5-1.3c-7.2,0-10.3,3.4-11.2,8.1c-0.5,2.1-1,2.6-3.1,2.8c-1.1,0.1-2.2,0-3.3,0.1
		c-3.9,0.1-7.7-0.1-11.6,0.7c-4.3,0.8-8.6,1.6-12.7,3.1c-1.7,0.6-3.4,1.4-4.9,2.4c-2.5,1.6-3.1,4.4-1.6,6.6c0.5,0.8,1.3,1.1,2,1.5
		c4.9,2.3,9.7,4.7,14.6,6.8c3.4,1.4,6.6,3.1,9.7,5.1c1.4,0.9,2.6,1.8,4,2.6c3.6,2,6.8,4.7,10.2,7c0.5,0.3,0.9,0.8,1.2,1.4
		c0.4,0.5,0.7,1.1,0.4,1.7c-0.4,0.8-1,0.4-1.6,0.3c-0.8-0.2-1.4-0.2-2.2-0.2c-4.1,0-8.3-0.2-12.5,0.1c-2.4,0.1-4.8,0.6-7.1,1.1
		c-3.7,0.8-6.8,2.8-9.5,5.2c-1.4,1.3-2.9,2.1-4.7,2.6c-3.2,1-6.2,2.2-9.4,2.9c-1,0.2-1.9,0.5-2.8,1c-2.5,1.2-4.1,3-4.3,5.9
		c-0.2,2.8,1.4,4.6,3.5,6c0.6,0.4,1.3,0.7,2,1c3.6,1.6,7.1,3.2,10.7,4.6c1.9,0.8,3.9,1.4,5.9,1.8c4.7,1,9.4,0.8,14.1,1.4
		c4.2,0.5,8.4,0.9,12.6,1.5c5.6,0.8,10.9,2.4,16,4.7c4.4,2,9.1,3.3,13.8,4.7c0.8,0.2,1.4,0.2,2.2,0c5.8-1.4,9.4-5.3,11.9-10.4
		c0.6-3.5,2.3-7,1-10.7c-0.2-0.3,0-0.8-0.1-1.1c-0.6-3.2-1.4-6.5-3.1-9.3c-1.7-2.6-3.2-5.4-5.3-7.9c-3.2-3.9-3.3-8.5-1.8-13.2
		c0.4-1.2,1.1-2.1,2.3-2.6c1.7-0.8,3.2-1.7,5-2.4c3.5-1.6,5.3-4.4,5-8.1c-0.2-2.6,0.2-4.3,3.1-5.3c2-0.7,3-2.6,2.9-5
		c-0.1-2.8-1.2-4.9-2.9-6.8C322.4,236.6,319.7,234.6,317.1,232.6z"/>
	<path class="st3" d="M651.6,68.6c5.2-5.8,11.9-8.3,19.4-9.3c2.6-0.4,5.1-0.2,7.6,0.6c2.9,1,5.2,2.6,6.8,5.3c0.9,1.6,1.3,3.2,0.8,5
		c-0.5,1.9-1.2,3.7-1.9,5.6c-0.2,0.5-1,0.7-1.1,0.2c-0.7-2-2.4-2.6-4.1-3.4c-1.4-0.7-2.5-0.6-3.8,0.2c-5.6,3.5-10.5,7.9-14.6,13.2
		c-2,2.7-3.1,5.8-4,9c-0.3,1.1-1.1,2.3-0.8,3.5c0.4,1.3,1.8,1.5,2.8,2.2c6.2,4.2,8.6,12.9,6.9,18.4c-0.2,0.7-0.4,1.4-0.6,2.1
		c-1.4,4.7-1.7,3.9,2.4,7.2c1.1,0.8,2.1,1.7,3.1,2.6c1.4,1.2,2.6,2.6,3.5,4.2c3.2,5.1,3.1,9.8-0.7,14.6c-0.9,1.1-2,2.1-3.1,3.2
		c-0.6,0.5-0.9,1.2-0.8,2c0.3,1.7,0.7,3.4,1,5c0.2,0.6,0.5,1.1,1.1,1.4c0.6,0.4,1.3,0.8,1.9,1.2c3.8,2.6,6.9,5.8,9.2,9.8
		c1.3,2.1,2.3,4.4,2.6,6.8c0.1,0.6,0.2,1.2,0.4,1.8c0.5-0.9,0.7-1.9,0.7-3c0-2.6,0.2-5.1,0.7-7.6c1-5.5,3.1-10.5,6.4-15
		c2.8-3.8,4.8-7.9,6.4-12.2c1.4-3.9,1.7-8,2.6-12.1c0.2-0.7,0.2-1.5,0-2.2c-0.6-3.2-1.2-6.5-1.8-9.6c-1.1-5.6-3.4-10.9-4.4-16.6
		c-0.5-2.9-0.7-5.9-0.2-8.7c0.8-4.6,0.5-9.2,1.2-13.8c0.5-2.9-0.1-5.9-0.8-8.7c-0.9-3.6-2.3-6.8-5-9.6c-2.6-2.6-5.4-4.8-9-6
		c-1.7-0.5-3.3-0.8-5-1.2c-2.9-0.7-5.8-0.7-8.6,0.4c-1.4,0.5-2.8,0.9-4.1,1.4c-3.7,1.4-7.1,3.2-9.8,6.1c-3.8,3.8-7.2,8-11.6,11.1
		c-0.3,0.2-0.6,0.5-0.8,0.8c1.2-0.5,2.4-1.1,3.6-1.7C648.3,71.5,650.1,70.3,651.6,68.6z"/>
	<path class="st3" d="M210.9,402.4c-0.9,0.4-1.7,1-2.4,1.7c-2.2,2.1-4.1,4.6-5.8,7.1c-3.3,4.8-6.5,9.6-8.7,15.2
		c-1.3,3.3-2.9,6.5-3.6,9.9c-0.2,0.7-0.5,1.4-0.8,2c-2.4,5-4.2,10.1-5.3,15.6c-0.5,2.8-0.8,10.1,0,12.7c0.6,2.3,0.2,4.2-1.1,6.2
		c-2.6,3.9-4.4,8.2-5.6,12.6c-1.7,5.9-3.5,11.6-4.1,17.7c-0.5,4.4-1.4,8.9-1.3,13.4c0.1,3.4,0.1,6.8,0,10.3
		c-0.1,5.5,0.6,10.9,1.4,16.3c0.9,6.4,2.7,12.5,4.5,18.8c1.8,6.4,5,12.1,8.3,17.8c0.2,0.3,0.5,0.6,0.7,0.9c1.4,2,3.6,2.1,5.6,1.5
		c2-0.5,2.8-2.3,2.9-4.2c0.2-1.4,0.1-2.7,0.1-4.1c-0.2-5.5,0.3-11,1.4-16.3c1.7-7.9,4.1-15.6,7.7-22.8c1.4-2.7,2.7-5.4,3.1-8.5
		c0.2-2,0.8-3.8,0.9-5.7c0.1-2.9,0.6-5.6,1.4-8.3c1.1-4.2,2.3-8.5,3.5-12.7c0.3-1.1,0.5-2.2,0.3-3.2c-0.2-2.1-1.7-3.7-3.6-4.1
		c-1.8-0.4-3.4,0.2-4.7,1.4c-1.7,1.4-2.7,3.1-3.9,4.8c-0.5,0.8-0.9,1.8-2,2c-1-0.9-0.8-2.3-1.3-3.3c-0.8-2-0.3-3.3,1.1-4.9
		c2.4-2.7,3.8-5.9,4.2-9.5c0.3-3.8-0.2-7.5-1.4-11.2c-0.3-1.1-0.7-2.1-0.8-3.2c-0.2-1.7-0.5-3.4-0.6-5c-0.3-3.5-0.2-7.1,0-10.6
		c0.2-2.4,0.8-4.8,1.3-7.1c1.1-5.5,2.8-10.8,4.6-16.2c1.5-4.3,3.8-8.2,5.8-12.2c1.6-3.2,2.5-6.6,3.4-10c0.2-0.6,0.2-1.2,0.1-1.8
		C215.7,402.7,213.3,401.4,210.9,402.4z"/>
	<path class="st3" d="M826.3,410.4c-0.5-2.1-1-4.3-1.7-6.3c-1.4-4.4-3-8.8-5-12.9c-0.9-2-1.8-4-2.6-6c-1.9-5-5-9.5-7.9-14
		c-1.5-2.3-3.8-4.1-5-7.1c0.9-0.2,1.5-0.2,2-0.5c0.4-0.2,0.9-0.6,1-1c0.5-1.6,0.5-3.1-0.7-4.4c-2.6-3-5.6-5-9.8-4.6
		c-1.8,0.2-3.5-0.2-5.3-1c-3.8-1.6-7.7-2.9-12-2.7c-0.6,0-1.2-0.1-1.8-0.3c-1.9-0.6-3.9-0.6-5.8-0.3c-3.6,0.6-7.2,0.8-10.7,1.8
		c-3.2,0.9-6.4,1.7-9.5,2.7c-3.2,1.1-6.2,2.9-7.9,6.1c-0.8,1.4-0.8,2.8-0.2,4.1c1.1,2.2,2.7,3.8,5.3,4.1c0.8,0.2,1.4,0.4,1.7,1.1
		c3.7,6.5,8.3,12.2,12.6,18.3c2.3,3.2,5,5.9,9.2,6.9c2.3,0.5,4.4,1.4,6.4,2.6c6.9,4.1,13.8,8.4,19.2,14.4c0.4,0.5,1,0.8,1.4,1.1
		c0.1,0.1,0.3,0.1,0.4,0c0.2-0.2,0.4-0.5,0.3-0.6c-0.4-0.8-0.8-1.4-1.2-2.2c-2.3-4.6-4.5-9.2-8-13.1c-2.4-2.6-4.7-5.3-7.5-7.4
		c-1.7-1.3-3.5-2.6-5.3-4c1-0.5,1.7-0.4,2.3,0c2.6,1.4,5.2,2.6,7.8,4.1c3.2,1.7,5.9,4,8.7,6c6.5,4.7,12.9,9.6,18.6,15.3
		c1,1,1.9,1.9,2.9,2.8c1.2,1.1,2.6,1.7,4.4,1.6C824.8,415.1,826.8,412.8,826.3,410.4z"/>
	<path class="st3" d="M510.9,274.7c-1.8,0.7-3.1,2-4.2,3.5c-1.4,1.8-2.7,3.8-4.1,5.6c-2,2.9-3.8,5.9-5.6,8.9c0-2.7,0.7-5.3,1.7-7.7
		c1.9-4.4,3.9-8.6,6.5-12.5c0.3-0.4,0.5-0.8,0.6-1.3c0.8-2-0.6-4-2.9-4.1c-1.1-0.1-2,0.2-2.8,0.8c-1.4,1.1-3,1.5-4.7,1.9
		c-2,0.4-3.6,1.2-5.3,2.3c-3.2,2.1-6.3,4.1-9.2,6.6c-2,1.7-3.8,2-5.9,0.5c-0.9-0.6-2-1.1-2.9-1.5c-1.1-0.5-2.2-1.2-2.8-2.3
		c-1.7-2.9-4.4-4.4-7.1-6.2c-1.3-0.8-2.7-1.4-3.7-2.8c-1.1-1.6-3.7-1.1-4.1,0.8c-0.7,2.6-1.1,5.3,0.2,7.8c0.9,1.7,1.9,3.5,3.5,4.6
		c1.4,0.9,2,2.2,2.3,3.6c0.5,2.3,1.1,4.5,0.9,6.8c-0.2,3.8,0.3,7.6-0.2,11.3c-0.4,3.2-0.5,6.3-0.6,9.5c0,1-0.3,1.9-0.5,2.9
		c-0.5,2.6-0.5,5.1,0.5,7.5c0.4,1,1,1.8,2,2c1.8,0.5,3.6,0.7,5.2-0.8c2.3-2,5.1-2.7,8.1-2.7c1.4,0,2.8,0.2,4-0.3
		c3.4-1.3,6.6-1.1,9.9,0.2c0.9,0.4,1.8,0.6,2.5,1.4c0.9,1.1,2,1.7,3.3,2.2c0.8,0.2,1.5-0.2,1.6-1c0.1-1.8,0-3.7,0.1-5.5
		c0.2-2.9,0.3-5.8,2-8.4c0.4-0.6,0.5-1.4,0.8-2c1.9-6.2,5.1-11.8,9-17.1c2-2.6,3.5-5.6,5.2-8.3c0.8-1.2,0.9-2.6,0.7-3.9
		C514.8,275.1,512.8,274.1,510.9,274.7z"/>
	<path class="st3" d="M178.7,376.3c2.5,0.6,5,1.1,7.4,2c2,0.8,3.8,0.2,5.4-1.2c2-1.7,3.1-3.8,2.2-6.5c-0.3-1.1-0.6-2.1-0.8-3.2
		c-0.2-0.6-0.3-1.2-0.2-1.8c0.8-3.7,1.4-7.4,3.8-10.5c2.9-4,5.9-8,9.5-11.6c1.1-1.1,2-2.1,2.5-3.5c0.6-1.9,0.1-3.5-1.6-4.4
		c-0.5-0.3-1.2-0.7-1.8-0.8c-0.1,0.1-0.2,0.2-0.3,0.2c-0.1,0.1-0.2,0.1-0.4,0.1c0-0.1,0.1-0.2,0.1-0.3c-3.2,0-6.2-0.3-9.4,0.4
		c-3.9,0.8-7.4,2.6-10.7,4.5c-4.3,2.6-8.4,5.3-12.5,8.3s-8.1,6.2-11.6,9.9c-0.5,0.5-0.8,0.9-1.1,1.4c-0.1,0.2,0,0.5,0.2,0.6
		c0.2,0.2,0.5,0.2,0.6,0.2c0.9-0.4,1.5-1.3,2.6-1.2c0.1-0.1,0.2-0.2,0.3-0.3c0,0.1,0,0.2-0.1,0.2s-0.2,0.1-0.2,0.2
		c-0.1,0.4-0.2,0.8-0.3,1.1c-0.1,0.1-0.1,0.2-0.2,0.3c-3.2,3.8-5.6,8.2-9.3,11.6c-1.4,1.4-1.4,2.9-0.8,4.7c0.8,2,3.2,3.2,5.4,2.6
		c0.6-0.2,1.1-0.5,1.7-0.7C165.5,375.7,172,374.7,178.7,376.3z"/>
</g>
<g>
	<path class="st4" d="M762.3,460.6c-0.1-0.1-0.1-0.2-0.2-0.2c-2.4-4-4.9-7.9-7.2-11.9c-4.1-7.1-5.5-8.4-13-12.4c-1-0.5-2-1-2.9-1.5
		c-1.4-0.8-2.4-1.8-2.3-3.5c0.2-1.8,1.4-2.8,3.1-3.2c0.4-0.1,0.8-0.2,1.1-0.3c0.8-0.4,1.9-0.2,2.2-1.1c0.5-1.3,0.5-2.7-0.2-3.9
		c-1.6-2.6-3.2-5.2-5.8-7.1c-4.5-3.2-8.9-6.4-13.5-9.5c-1.1-0.8-2.3-1.5-3.3-2.3c-0.7-0.5-1.4-1.1-2-1.7c-1.7-1.6-1.6-3.5,1.1-4.4
		c4.4-1.4,8.8-2.1,13.4-1.4c0.8,0.1,1.5,0.2,2.2,0.1c2.5-0.8,4.8-0.4,7.2,0.4c0.3,0.1,0.8,0.2,1-0.2c0.2-0.3,0.2-0.8,0-1.1
		c-1.1-2.7-2.3-5.3-4.4-7.4c-3.8-3.7-7.3-7.6-11-11.3c-1.4-1.4-2.9-2.7-4.4-3.8c-3.7-2.6-7.4-5.1-11.1-7.8c-2.7-2-5.7-3.2-9-3.8
		c-1.7-0.3-3.3-0.8-4.9-1.6c-2.3-1.1-4.7-1.5-7.1-2c-8.9-1.8-17.7-3.3-26.8-4.4c-4.7-0.6-9.5-0.4-14.3-0.2
		c-5.2,0.2-8.9,6.2-12.2,9.6c-3.4,3.5-7.1,6.5-11.6,8.1c-2.8,3.1-5.9,5.9-9.2,8.5c-1.5,1.1-3,1.6-4.7,1.4c-1-0.1-1.9-0.4-2.9-0.5
		c-2.4-0.5-4.7-1.1-7.1-1.5c-2.9-0.5-5.7-0.5-8.5,0.4c0.1,0,0.2,0.1,0.2,0.1c1,1.1-6.2,6.5-6.8,7.3c-1,1.4-1.6,3.1-2,4.7
		c-0.8,3.5-2.8,6.2-5.4,8.5c-6.3,5.5-13.5,8.1-21.9,6.8c-3.8-0.6-6.7-2.2-7.7-6.2c-0.2-0.9-0.8-1.5-1.6-1.9
		c-0.2-0.1-0.5-0.2-0.7-0.3c-5.7-2.6-5.4-10-6.6-15.2c-1.7-6.8-6-12.4-11.5-16.7c-2.3-1.8-4.9-3.2-7.6-4.4c-0.7-0.3-1.4-0.5-1.9-1.2
		c0.1-0.1,0.2-0.2,0.2-0.2c-10.1-5.5-21.2-8.2-32.8-8.6c-11.5-0.4-22.9,0.3-34.3,2.5c-6.1,1.1-12,3-17.4,6.2
		c0.5,0.3,0.9,0.8,1.4,1.4c-0.5-0.6-11.3,11.9-12.1,12.8c-6.2,7.4-10.9,14.8-15.3,23.4c-2.2,4.3-6.3,7-9.2,10.7
		c-3.2,4.1-4.3,9.2-6,14.1c-0.4,1.1-0.8,2-1.4,3c-0.7,1.2-1.7,2.1-2.9,2.7c-3.4,1.6-6.5-0.6-6.3-4c0.2-2.1,0.4-4.1,0.5-6.2
		c0.1-1.1,0.2-2.2,0.4-3.3c0.5-3.2-1.1-5-3.7-6.5c-2.3-1.3-4.9-1.5-7.4-1.1c-1.4,0.2-2.6,0.7-3.9,0.8c-2.9,0.5-5.2,1.8-6.7,4.5
		c-1.1,1.9-2.7,3.5-4.4,4.9c-0.8,0.6-1.5,1.2-2.5,1.6c-1.5,0.5-3.1,0.2-4-1c-1.1-1.3-1.4-2.6-0.5-4.1c1.1-1.9,2.3-3.8,4.1-5.1
		c3.6-2.8,6.5-6.3,9.5-9.6c0.6-0.6,1.1-1.3,1.7-2c2.7-3.3,6.1-5.9,10.1-7.4c2.2-0.8,4.4-1.2,6.7-1.4c0.4-0.1,1.1-0.1,1.7-0.1
		c-0.8-0.1-1.6-0.2-2.3-0.2c-8.6-1.3-16.9-3.6-24.9-7.1c-5.8-2.5-11.6-4.2-17.8-5.4c-4.8-0.9-9.6-1.3-14.4-1.1
		c-15,2.9-28.6,11.9-37.2,24.6c-3,4.5-5.7,9.6-10.4,12.2c-5.2,2.8-11.7,1.8-17.1,4.1c-8.6,3.6-11.9,13.8-14.4,22.8
		c-1.3,4.9-2.6,9.9-2.4,15s2.3,10.3,6.5,13.2c6.2,4.2,14.7,2,21-2c6.3-3.9,11.7-9.5,18.6-12.3c6.8-2.9,16.3-2,19.8,4.6
		c3.9,7.3-1.6,17.3,2.9,24.3c2.6,4.2,8,5.7,12.7,7.3c4.7,1.6,9.9,4,11.3,8.8c1.2,4.1-0.8,8.5-2.9,12.2c-13,24.7-26.1,49.5-39.1,74.2
		c-0.7,7.7,0.2,15.6,2.5,23.3c1.1,3.7,2.3,7.4,3.4,11.2c0.4,0.8,0.8,1.7,1.2,2.5c0.2-0.2,0.5-0.5,0.8-0.6c1.9-1.5,3.8-3.2,5.6-4.7
		c0.9-0.8,1.4-1.6,1.4-2.9c0-1.7,0.1-3.5,0.2-5.1c1.6-18.4,7.9-35.2,18.5-50.3c1.2-1.7,2.4-3.4,4-4.8c1.5-1.4,2.5-3,3.3-4.8
		c1.5-3.5,3.1-6.9,4.7-10.3c2.9-6.1,6.7-11.6,11-16.8c3.8-4.5,8.5-7.7,14-9.7c0.9-0.3,1.8-0.7,2.9-0.5c1,0.2,1.5,0.9,1.2,1.8
		c-0.6,1.9-1.9,3.4-3.1,5c-2,2.4-3.9,4.7-5.5,7.3c-3.2,5.5-5.9,11.2-7.9,17.3c-1.3,4-2.3,8-3.1,12.1c-0.7,3.7-2,7-4.4,10
		c-2,2.6-3.6,5.5-5.1,8.5c-5.6,11.3-8.6,23.3-9.5,35.9c-0.5,6.6-0.5,13.2,0.7,19.8c1.5,7.8,3.8,15.4,6.7,22.8c0.8,2,2,3.9,3,5.9
		c5.1,9.5,13.2,16.2,21.6,22.6c1.2,0.9,1.4-0.5,1.7-1.4c0.5-1.7,1.1-3.4,1.7-5c1.2-2.9,2.9-5.4,4.7-7.9c1.5-2,3.2-3.9,4.8-5.8
		c1.7-1.7,3.5-3.3,4.7-5.4c0.7-1.3,1-2.7,1.8-3.9c0.6-0.8,1.5-1.1,2.5-1c1.4,0.2,2.2,1.1,2.5,2.3c0.2,1,0.5,2,0.5,2.9
		c-0.2,3.5,1.1,6.4,3.2,9.1c0.5,0.7,0.9,1.4,1.4,2.2c3.5,5.6,7.7,10.4,13,14.3c0.4,0.3,0.8,1.1,1.6,0.3c-0.8-2.3-1.4-4.6-1.4-7.1
		c0.1-2.5,0-4.9,0.2-7.4c0.2-2.3-0.5-4.8,1.2-7.4c0.4,1.6,0.7,2.7,0.9,3.9c0.8,3.4,2,6.5,4.4,9.2c1.1,1.3,2,2.8,2.9,4.2
		c1.4,2.1,2.9,4.2,4.4,6.2h142.7h30.2h26.6c6.2-4.9,13.9-11.3,17.6-15.1c0.6-0.6,1.1-1.4,1.9-1.7c5.3-6.4,10.3-13,15.5-19.5
		c1.3-1.6,2.4-3.3,4.4-4.4c1.1-0.6,1.7-1.8,2.3-2.8c0.5-0.8,0.9-1.7,2-2.5c0.2,2,0.4,3.6,0.5,5.3c0.1,0.8,0.2,1.5,0,2.2
		c-1,5.9-0.7,11.9-0.5,17.9c0.1,2.6-0.2,5.1-0.6,7.7c-0.3,1.6-0.7,3.2-1.1,4.7c2.4-3.4,4.7-6.6,5.1-7.3c1.4-2.1,2.9-4.1,4.4-6.2
		c1.1-1.7,1.9-3.4,2.3-5.3c1.7-7.9,3.3-15.8,3.8-23.8c0.6-8.6,0.3-17.4-1.4-26c-1.9-9.1-6.2-16.9-9.6-25.5
		c-1.7-4.4-3.8-8.5-6.3-12.4c-2.2-3.2-4.2-6.6-6.5-9.8c-5.9-8.1-12.3-15.8-20.8-21.5c-2.6-1.7-4.8-3.8-7.1-5.7
		c-1.1-0.8-2-1.9-2.9-2.9c-0.7-0.8-1.1-1.6-1.2-2.6c-0.1-0.8,0.5-1.6,1.2-1.6c3.5,0.2,5.6-2,7.6-4.4c2.6-3.1,4.7-6.5,6.2-10.3
		c0.4-1.1,0.6-2.2,1.4-2.9c1.9-1.7,2.6-4.1,3.8-6.3c-2.1-2.3-2.4-5-1.7-7.9c0.1-0.4,0.2-0.8,0.2-1.1c0.6-3.8,2.4-6.5,6.2-7.9
		c2.2-0.8,3.9-2,3.7-4.7c-0.1-0.7,0.3-1.4,0.5-2.2c1-6.6,4.7-11.1,10.6-14.1c1.4-0.8,2.9-1.4,4.3-2c2.9-1.4,5.6-3.2,6.5-6.5
		c0.1-0.4,0.3-0.7,0.5-1c2.9-5.8,8.6-8.9,15.1-8.2c0.8,0.1,1.7,0.2,2.6,0.4c2.2,0.5,3.7-0.2,4.8-2.2c2.4-4.2,6.3-6.4,11-7.1
		c3.2-0.5,6.3-0.3,9.5,0.3c1.8,0.4,3.5,1.1,5,2.2c3.7,2.7,7.3,5.4,10.9,8.1c1.6,1.2,2.9,2.6,4.1,4.1c0.3,0.4,0.6,0.8,0.2,1.4
		c-1.1,0-2-0.8-2.9-1.3c-2.5-1.3-5.1-2.3-7.8-3.1c-1.4-0.4-2.9-0.5-4.3-0.7c-0.1,0-0.3,0.1-0.3,0.2c-0.1,0.2-0.2,0.5-0.1,0.6
		c0.5,0.5,1.1,1,1.7,1.4c4.9,3.5,9.2,7.7,13.5,11.9c3.2,3.1,5.9,6.5,8,10.4c2.3,4.4,8.4,17.9,9.8,26.1c0.8-1.1,1.4-2,2.2-3l0,0
		c0.2-0.5,0.4-1.1,0.7-1.7c3.5-6.5,5.6-13.5,6.3-20.9C762.7,467,762.7,463.7,762.3,460.6z M586.4,603.8c-0.7,0.6-2.3-1.2-2.7-1.6
		c-2.8-2.6-5.9-3.5-9.6-3.5c-2.1,0-4.1-0.7-6-1.6c-3.9-1.9-7.4-5-9.6-8.7c-0.8-1.4-1.5-2.9-2-4.4c-0.2-0.8-0.5-1.7-0.6-2.5
		c-0.2-0.9-0.6-1.6-1.3-2.2c-2-1.7-3.8-3.4-5.6-5.5c-1.4,0.8-2.2,2-3.2,3c-1.1,1-2,2.1-3.2,3c-1.1,0.8-2.2,1.5-3.3,2.3
		c-1.3,0.8-2.6,1.4-3.8,2.2c0.2,0.5,0.2,0.8,0.5,1.1c4.1,4.7,6.6,10.2,7.8,16.3c0.8,3.6,1.4,7.2,2.1,10.8c0.3,1.8,0.5,3.6,0.8,5.4
		c0,0.2-0.2,0.4-0.2,0.6c-0.8-0.5-0.8-1.5-1-2.3c-1.5-4.8-3.5-9.3-6.7-13.4c-1.4-1.8-2.9-3.6-4.4-5.4c-0.9-1.1-2.3-4.1-4-4.1
		c-0.5,0.8-0.2,1.4,0.1,2.1c0.7,2.6,0.7,5.1,0.3,7.7c-0.8,5.3-1,10.7-1.1,16.1c-0.1,1.4-0.2,2.9-0.3,4.4c0,0.2-0.3,0.4-0.5,0.4
		s-0.5-0.2-0.5-0.4c-0.3-1.3-0.7-2.6-0.9-3.9c-0.9-5-2.6-9.7-4.4-14.4c-1-2.6-2.3-4.8-4.1-6.9c-1.7-2-3.5-4.1-5.3-6.2
		c-0.8-0.9-1.7-1.4-2.9-1.1c-1.8,0.4-3.6,0.6-5.4,0.9c-3.5,0.6-7.1,0.8-10.7,0.8c-1.8,0-3.6,0-5.3-0.1c-1.2,0-3.2-0.5-4.1,0.5
		c-0.3,0.3-0.5,0.8-0.8,1.1c-0.2,0.5-0.5,1.1-0.7,1.5c-1.1,2.3-2.4,4.4-3.8,6.5c-3.6,5.6-7.2,11.3-10.8,17
		c-3.3,5.2-5.9,10.7-8.2,16.4c-1.9,4.4-2.7,9.1-3.5,13.8c-0.5,3.2-1.1,6.5-1.6,9.8c0,0.2-0.2,0.5-0.3,0.6c0-0.1-0.1-0.2-0.1-0.3
		c-0.4-8.2-0.8-16.3-1.1-24.5c-0.1-1.1,0-2.2-0.2-3.3c-1.1-8.5,0-16.8,1.3-25.2c0.5-3.2,0.9-6.3,0.9-9.5c0-2.1-0.2-2.3-2.2-2.6
		c-7.1-1.1-13.8-3.5-20.1-6.4c-4.3-2-7.8-5-11-8.5c-0.8-0.9-1.4-2-2.5-2.5c-1,0.5-1.2,1.4-1.7,2.1c-2.3,3.5-5.2,6.5-8.8,8.7
		c-2.8,1.7-5.7,3.4-8.7,4.7c-1.4,0.7-2.9,1.4-4.3,2c-5.4,2.1-8.9,6.2-11.6,11.2c-1.4,2.6-2,5.5-2.3,8.4c-0.2,1.2,0.1,2.4-0.6,3.5
		c-0.9,0.1-0.8-0.6-0.8-1c-0.5-4.7-1-9.5-1.5-14.2c-0.3-3.2,0.3-6.3,1.2-9.4c1.7-5.6,4.7-10.7,8.1-15.6c1.8-2.5,3.7-4.9,5.6-7.2
		c1.2-1.4,2-3,2.4-4.9c0.5-2.2,1-4.3,1.4-6.5c0.6-3.8,0.1-7.3-2-10.5c-1.1-1.7-2.2-3.5-3.2-5.3c-2.3-3.7-3.2-7.7-2.9-11.9
		c0.2-1.9-0.2-3.4-1.4-4.7c-2.6-3.2-3.8-6.6-4-10.7c-0.2-3.8-1.3-7.4-2.9-10.9c-0.1-0.2-0.1-0.5,0.1-0.7c0.2-0.5,0.7-0.3,0.9-0.2
		c7.4,4.6,14.1,9.8,16.2,18.9c1.8,7.4,6,13.2,11.6,18.3c1.2,1.1,2.5,2,3.9,2.7c1.3,0.7,2.6,1.4,4,1.8c3.2,1,4.6,3.1,5.5,6.2
		c1.1,4.1,3.5,7.4,6.7,10.3c6.5,5.7,14.1,9.7,22.1,12.7c2.6,1,5.4,1.5,8.3,1.5c0.2,0,0.5,0,0.8,0c7.5-0.5,14.9,0.5,22.2,1.5
		c12,1.7,23.9,0.4,35.4-3.6c4.9-1.7,9.2-4.4,12.9-8.3c1.1-1.1,2.2-2.3,3.3-3.4c2.1-2.1,3.8-4.4,5-7.2c0.8-1.8,1.7-3.5,2.9-5
		c1.2-1.6,2.7-2.7,4.6-3.5c11.5-5.3,20.3-13.4,25.6-25.1c0.5-1.1,1.1-2.2,1.5-3.3c0.8-2,2-3.7,3.3-5.3c0.4-0.5,0.8-1,1.2-1.4
		c1.1-1.1,1.2-3,3.2-3.2c1,1.3,0.5,2.8,0.8,4.2c0.7,3.8,0,7.3-1.5,10.7c-2.2,5-4.7,9.6-8,14c-0.7,0.9-1.3,1.6-0.6,2.9
		c0.7,1.3,0,2.9-0.4,4.3c-1.2,4.7-2.3,9.5-3.5,14.2c-1.4,5.6-1.4,11.1-0.3,16.7c0.4,2,1.2,3.7,2.3,5.3c1.3,2,2.7,4.1,4.1,5.9
		c1,1.4,2.3,2.4,3.2,3.8c1.1,1.7,1.5,3.8,2.7,5.6c1.1,1.5,2.4,2.9,3.2,4.5C586.2,601.8,586.9,603.3,586.4,603.8z M624.8,548.4
		c3.8,5.9,6.2,12.1,5.6,19.2c-0.2,1.4-0.2,2.7-0.2,3.6c0,4.2,0,8-0.5,11.7c-0.2,1.2-0.2,2.4-0.9,3.5c-0.1,0.2-0.4,0.4-0.5,0.3
		c-0.2,0-0.5-0.2-0.5-0.5c-0.2-0.3-0.2-0.7-0.2-1.1c-0.1-3.2-1.3-5.9-3.2-8.3c-1.4-1.8-2.8-3.7-4.2-5.6c-1.8-2.3-4.1-3.8-6.8-4.8
		c-4.1-1.6-8.3-2.9-12.6-3.7c-1.3-0.2-2.6-0.6-3.8-1.1c-2.3-1-3.8-2.6-4.4-5.1c-0.5-2.1,0-4,1.8-5.2s4-2,5.6-3.4
		c1.7-1.4,2.9-3.2,4.7-4.5c3.6-2.7,7.5-3.2,11.7-1.7C620,543.3,622.8,545.3,624.8,548.4z M628.2,476.2c0,0.2-0.1,0.5-0.2,0.8
		c-2.1,5.5-3.8,11.1-7.2,15.9c-1,1.4-2,2.9-2.9,4.2c-2.2,3.2-5.1,5.2-9,5.6c-1.1,0.2-2.2,0.5-3.2,0.5c-2.9-0.1-5.1,1.4-7.1,3.3
		c-0.9,0.8-1.7,1.8-2.5,2.7c-0.3,0.4-0.8,0.8-1.2,0.6c-0.6-0.4-0.5-1.1-0.2-1.7c0.3-0.8,0.6-1.7,1.1-2.3c2.9-3.8,5.8-7.6,10.3-9.7
		c2.2-1.1,4.4-2.2,6.4-3.6c1.3-0.9,2.2-1.9,2.6-3.4c0.7-2.7,1.6-5.4,2-8.2c1-5.6,0.5-11.9-3.2-17.2c-1.9,0.8-3.5,2.2-5.6,2.8
		c-0.7,0.2-1,0.7-1.1,1.4c-0.3,2.7-1.5,4.9-3.5,6.6c-2.3,2-5,3-8,3.3c-1.4,0.2-3,0.5-4.4,0.2c-2.5-0.5-4.1,0.6-5,2.6
		c-1.1,2.2-2.2,4.4-2.8,6.8c-2,8-5,15.8-8.6,23.3c-3.5,7.3-8.8,13.2-14.8,18.5c-1.4,1.2-2.9,2.2-4.6,3c-4.1,2.1-8.2,4.4-12.6,5.9
		c-1.1,0.4-2,1-2.6,2c-1.4,2-3,3.8-4.7,5.6c-1.1,1.1-2.1,2.4-3.1,3.6c-1.4,1.7-3,3.2-4.9,4.4c-1.8,1.1-3.5,2.2-5.5,3
		c-7.4,3-15,5.7-23.2,6.5c-9.3,0.8-18.6,1-27.8-0.2c-9-1.2-17.2-4.4-23.7-11.3c-3.2-3.4-6.5-6.7-8.9-10.6c-0.8-1.1-1.7-1.7-2.9-2
		c-1.7-0.4-3.3-0.8-5-1.3c-9.4-2.7-16.7-8.4-22.8-15.9c-3.7-4.4-6.7-9.3-9.2-14.5c-1.6-3.3-3.4-6.5-5.3-9.6
		c-2.9-4.7-5.7-9.4-8.2-14.3c-2.1-4.1-6.3-6.3-10.8-5.7c-0.8,0.1-1.4,0.3-2.2,0.5c-0.8,0.2-1.7,0.3-2.6,0.5c-3.8,0.6-7-0.8-9.3-3.8
		c-1.1-1.4-2-2.7-3.2-4c-1.8-1.9-2.2-4.3-2-6.8c0.1-0.8-0.5-1.1-1.1-0.8c-2.6,1.2-4.7,3.1-6.3,5.4c-1.5,2.1-1.2,4.2,0.5,6.4
		c3.8,5,8.3,9.2,13.1,13.3c1.9,1.7,7.6,8.9,8.4,10.2c0.7,1.1,0.3,2-0.9,2.1c-1.9,0.2-3.7-0.1-5.5-0.5c-1.2-0.2-2.4-0.5-3.5-1
		c-4.3-1.7-8.6-3.5-12.9-5.3c-0.2-0.1-0.5-0.2-0.7-0.3c-7.4-5.1-12.5-11.6-12.5-21c0-2.9,0.5-5.6,2.6-7.8c1.1-1.1,1.4-2.3,1.1-3.7
		c-0.2-0.8-0.2-1.7-0.3-2.6c0-2.9,0.9-5.6,3.2-7.5c3.6-3.2,7.6-5.8,12.1-7.4c4.6-1.7,9-1.6,13.4,1.1c4.1,2.5,8.3,4.7,12.4,7.1
		c5.2,3,10.1,6.5,14.9,10.1c1.6,1.2,3.2,2.2,5.1,2.8c2.1,0.7,4.1,1.6,5.9,2.9c2.6,1.8,5.4,2.8,8.6,2.7c7.1-0.2,14.2-0.2,21.3,0.2
		c5.3,0.3,10.4,0.8,15.7,1.1c2.1,0.2,4.1,0.3,6.2,0.5c1.1,0.1,1.9-0.2,2.6-0.9c4.1-3.3,5-7.6,4.3-12.5c-0.2-1.1-0.9-1.8-1.7-2.3
		c-1.5-1.1-3-2.1-4.7-2.9c-5.3-2.6-9.9-6.2-14.3-10.1c-0.2-0.2-0.4-0.3-0.5-0.5c-3.6-3.4-10-13.3-11.9-17.9
		c-2.2-5.3-3.5-10.7-4.1-16.2c-1.1-8.9,1.1-17,6.8-23.9c3.2-3.8,6.9-7.4,10.9-10.3c4.7-3.4,10-5.6,15.9-5.9c1.2,0,2.4-0.2,3.6-0.5
		c4-0.8,8-1.4,11.9-1.7c5.3-0.4,10.5,0.2,15.6,1.6c4.5,1.2,8.9,2.3,13.5,3.6c3.2,0.8,5.8,2.6,7.7,5.2c1.7,2.3,3.5,4.4,5.3,6.5
		c1.2,1.4,2,3,2.5,4.8c0.3,1.2,0.8,2.3,1.4,3.4c1.3,2.4,2.1,4.9,2.5,7.6c0.5,3.6,1.4,7.2,1.4,10.9c0.1,3.1-0.2,6.1,0,9.2
		c0.2,3.3-1,6.5-3.1,9.2c-1.7,2.3-3.6,4.3-5.8,6.1c-2.2,1.8-4.4,3.5-6.5,5.4c-3.2,2.7-6.8,4.8-10.4,6.8c-1.4,0.8-2.9,0.1-4.1,1.1
		c-0.8,0.6-1.2,1.4-1.6,2.3c-0.8,1.7-1.1,3.5-1.5,5.3c-0.5,2.1-0.8,4.2-0.8,6.4c0,2.1,0.5,4.4,1.8,6.1c1.5,2.1,3.7,2.7,6.1,2.8
		c2.6,0.1,5.1,0.1,7.7,0.3c1.9,0.2,3.6-0.2,5.4-0.8c3.4-1.2,6.8-1.6,10.4-2c5.6-0.5,11.2-0.6,16.8-1.1c2.7-0.2,5.3-0.6,7.9-1.4
		c2.9-0.8,5.7-1.1,8.7-1.1c3.2,0.1,6.4,0,9.5-0.1c1.1,0,2.2-0.2,3.2-0.4c7.7-1.6,14.6-4.7,20.5-10c2.1-1.9,4.4-3.5,6.6-5.2
		c1.9-1.5,4-2.3,6.3-2.8c2.9-0.6,5.7-1.2,8.6-1.9c7.4-1.7,15.1,2.8,17.3,10.1c0.5,1.5,0.7,3.1,0.9,4.7c0.2,2,0.5,3.9,0.5,5.9
		C628.7,468.7,628.4,472.4,628.2,476.2z"/>
	<path class="st4" d="M330.4,271.9c1.6-0.7,3.2-1.1,5-1.1c0.6,0,1.3,0,1.8-0.2c3.5-1.4,7.1-1.5,10.8-1.4c4.2-2.9,9.1-4.2,14.2-4.8
		c1.4-0.2,2.7-0.2,4.1-0.3c3.8-0.2,7.4,0.6,11,2.3c3.1,1.5,5.9,3.4,9.1,4.7c1.8,0.8,3.2,2.3,4.4,3.8c1.5,1.7,3.1,3.5,4.6,5.2
		c2.4,2.6,4.1,5.7,5.9,8.8c1.7,0.5,3.4-0.1,5-1.9c0.8-0.8,1.3-1.7,1.8-2.7c1.3-2.3,1.3-2.4,4-1.5s5,0.2,7.1-1.5
		c2.2-1.7,3.5-4.1,4.1-6.8c1.5-6.8,1.7-13.8,0.5-20.7c-0.3-1.7-0.8-3.5-1.3-5.1c-2.2,1.7-5.5,1.4-7.3-1.7c-0.5-0.8-0.8-1.7-1.3-2.6
		c-2.9-6.1-6.3-11.9-11.2-16.5c-1.4-1.3-2.5-2.7-3.7-4.1c-1.8-2-3.7-3.7-6-5c1.1,1.7,2,3.5,2.9,5.2c3,5.9,2.3,11.6-1.7,16.8
		c-0.2,0.2-0.6,0.4-1,0.6c-3.2-2.3-6.8-4-10.6-4.9c-5.3-1.2-10.6-1.8-16-1.5c-3.3,0.2-6.5,0.9-9.4,2.6c-1.3,0.8-2.4,1.7-3.3,2.9
		c-1.7,2.4-1.4,5.3,0.8,7.3c0.7,0.7,1.6,1.1,2.3,1.7c0.7,0.5,1.4,1,2,1.6c0.2,0.2,0.4,0.6,0.4,1c0,0.5-0.5,0.5-0.8,0.5
		c-2.9,0.5-5.7,1.3-8.5,2.2c-3.2,1.1-6.4,2.5-8.8,5c-0.8,0.8-1.7,1.3-2.8,1.7c-3.2,1.1-5.8,3.1-8.5,5c-0.8,0.6-1.4,1.4-2,2.1
		c-0.3,0.4-0.5,0.9-0.5,1.4c-0.1,0.9,0.8,1.4,1.1,2.2C328.8,272.9,329.8,272.2,330.4,271.9z"/>
	<path class="st4" d="M557.5,269.7c0.3,1.5,1.1,2.6,2,3.8c1.1,1.5,2.8,1.8,4.3,2.5c0.9-1.1,2-2.1,3.3-3.1c3.1-2.2,9.6-6.6,12.9-8.6
		c5.3-3.2,11-3.2,17.4-2.8c1.6,0.1,2.5,1.1,3.9,1.7c0.5,0.2,1.1,0.6,1.5,1.1c0.2,0.2,0.3,0.3,0.4,0.5c1.5-0.5,3-1,4.5-1.6
		c6.5-2.4,13.2-3.2,20.1-2.2c2.4,0.4,4.8,0.5,7.3,0.8c0.8,0.1,1.5,0,2.2-0.2c2-0.5,3.1-1.8,3.2-3.9c0.1-1.7-0.5-3.2-1.3-4.5
		c-1.7-2.9-3.6-5.8-6-8.3c-4-4-8.6-7.2-13.3-10.3c-2.3-1.5-4.7-3.2-7-4.7c-0.6-0.5-0.5-1.1,0.1-1.4c1.9-1.2,4-2,6.2-2.3
		c3.6-0.6,6.9-2.3,10.9-3.2c-4.4-3.1-9.1-4.1-13.8-4.8c-4-0.7-7.7,0.5-11.4,1.8c-7.3,2.6-13.8,6.6-19.5,11.9
		c-2.3,2.2-4.7,4.3-7.3,6.1c-1.1,0.8-2.1,1.7-3,2.7c-2.1,2.5-5,4-7.6,5.7c-0.6,0.5-1.3,0.7-2,0.2c-1.7-1.1-3-0.4-4.3,0.8
		c-4.1,4-6,8.9-5.3,14.5C556,264.5,557,267.1,557.5,269.7z"/>
	<path class="st4" d="M602.8,358.7c2.7-2,5.3-4.2,7.7-6.7c2-2.2,2.5-5,3.3-7.6c0.5-1.4-1.1-2.9-1.5-4.4c-0.6-1.7-1.5-3.3-2.4-4.9
		c-1.1-2-2.5-3.8-3.2-5.9c-0.5,0.9-0.2,1.8,0.2,2.7c0.8,1.7,1.4,3.4,1.5,5.3c0.6,8-1.2,15.3-6.8,21.4
		C601.9,358.9,602.4,359,602.8,358.7z"/>
	<path class="st4" d="M601.5,358.7C601.4,358.7,601.4,358.7,601.5,358.7C601.4,358.7,601.5,358.7,601.5,358.7L601.5,358.7z"/>
	<path class="st4" d="M601.5,358.9C601.3,358.9,601.4,359,601.5,358.9L601.5,358.9z"/>
	<path class="st4" d="M606.6,329.3L606.6,329.3C606.6,329.2,606.6,329.2,606.6,329.3C606.6,329.2,606.6,329.2,606.6,329.3z"/>
	<path class="st4" d="M545.5,342.3c2.3,4.4,5.9,7.7,9.4,11.1c0.2,0.2,0.7,0.1,1,0.1c0,0.1-0.1,0.1-0.1,0.2c0.1,0,0.2,0,0.2-0.1
		c-1.5-2.3-2.2-4.9-2.4-7.6c-0.5-5.3,0.1-10.4,2.5-15.3c0.5-1.1,1-2.2,1.4-3.3c-0.5-0.1-0.7-0.2-0.8-0.1c-5.2,2.5-8.3,7.1-11.9,11.2
		c-0.5,0.5-0.5,1.1-0.2,1.7C544.9,341,545.2,341.6,545.5,342.3z"/>
	<path class="st4" d="M590.1,331.5c-2.6,0.5-4.7,1.8-6.3,4c-2.9,3.8-3.2,8-1.6,12.5c0.5,1.5,1.6,2.7,3.1,3.5
		c0.8,0.5,1.9,0.8,2.6,1.4c0.8,0.8,1.7,0.9,2.6,0.7c0.8-0.2,1.7-0.3,2.5-0.5c2.6-0.6,4.2-2.3,4.9-4.8c0.6-2.1,0.6-4.4,0.8-7.1
		c-0.2-1.1-0.2-2.9-0.5-4.5C597.2,332.7,593.9,330.8,590.1,331.5z"/>
	<path class="st4" d="M411.7,355.1c0.5,0.2,1.1,0.2,1.6-0.2c1.8-1.8,3.6-3.7,4.6-6.1c0.7-1.7,1.4-3.3,2.1-5c-1-1.6-1.9-3.2-2.9-4.7
		c-0.9-1.4-1.8-2.6-2.8-3.8c-1.4-2-3.5-2.9-5.6-4.1c-0.2-0.1-0.5,0-0.7,0.2c-0.4,0.2-0.3,0.7-0.1,0.9c0.6,0.8,1.4,1.4,2,2.2
		c0.7,0.8,1.4,1.7,1.8,2.7c1.3,3.5,2,7,1.4,10.7C412.6,350.4,412,352.7,411.7,355.1c0,0,0.1,0,0.2,0
		C411.7,355.1,411.7,355.1,411.7,355.1z"/>
	<path class="st4" d="M411.7,355.1L411.7,355.1C411.6,355.1,411.6,355.1,411.7,355.1L411.7,355.1z"/>
	<path class="st4" d="M384.5,336.7c-2.3-2-5.6-2.9-8.9-0.1c-1.1,1-2,2.1-2.6,3.5c-1.3,2.6-2,5.2-2,8c-0.1,1.6,0.1,3.2,0.7,4.7
		c1.4,3.3,4.2,5.1,7.7,4.8c3.3-0.3,6.3-2.8,6.8-6.1c0.3-2,0.9-4,1.4-6C388.2,342,387.1,339,384.5,336.7z"/>
	<path class="st4" d="M411.5,355.1C411.5,355.1,411.6,355.1,411.5,355.1L411.5,355.1C411.6,355.1,411.5,355.1,411.5,355.1z"/>
	<path class="st4" d="M363.7,336.1c-1.1,0.3-1.3,1.1-1.7,1.7c-1.8,2.8-2.8,5.9-3.9,9.1c-0.5,1.6-1.8,3.2-1.7,4.7
		c0.1,1.8,2.3,2.6,3.5,4.1c2.8,3.4,5.6,6.8,9.1,9.5c0.1,0,0.2,0,0.2,0c0.3-0.9-0.2-1.5-0.8-2.1c-1.6-1.9-2.9-3.9-4.1-6
		c-1.5-2.7-2.3-5.6-2.3-8.7s0.5-6.1,1.3-9C363.5,338.2,364,337.2,363.7,336.1z"/>
</g>
</svg>
