<?xml version="1.0" encoding="utf-8"?>
<!-- Generator: Adobe Illustrator 24.0.1, SVG Export Plug-In . SVG Version: 6.00 Build 0)  -->
<svg version="1.1" id="New_group_1_" xmlns="http://www.w3.org/2000/svg" xmlns:xlink="http://www.w3.org/1999/xlink" x="0px"
	 y="0px" viewBox="0 0 990 781.2" style="enable-background:new 0 0 990 781.2;" xml:space="preserve">
<style type="text/css">
	.st0{fill:#E4716B;}
	.st1{fill:#56565B;}
	.st2{fill:#ADADAC;}
	.st3{fill:#FFFFFF;}
</style>
<g>
	<path d="M503.8,722.9c-68.7,0-137.4,0-206.1,0c-1,0-1.9,0.1-2.9,0c-2-0.2-3.3,0.4-4.4,2.4c-1.7,3.2-4.7,5.4-7.3,7.9
		c-2.3,2.2-4.7,4.1-7.5,5.5c-2.2,1.1-3.2,2.9-3.3,5.4c-0.1,3.1-1.2,5.9-2.7,8.6c-0.6,1.1-1.4,2.1-2.4,2.9c-2.9,2.4-6.3,2.4-9.2,0.2
		c-5-3.7-8.2-8.7-10.2-14.5c-0.5-1.5-1-3-1.8-4.4c-0.6-1-1.2-1.9-2-2.7c-1.5-1.4-1.9-1.3-2.7,0.6c-0.3,0.8-0.6,1.7-1,2.4
		c-1.3,2.7-3.2,4.9-6.1,6.2c-1.8,0.8-3.6,1.8-5.2,2.9c-1.5,1-2.2,2.2-2,4c0.3,4.1-0.4,8.1-2,12c-0.4,1-0.8,1.9-1.4,2.8
		c-2.5,3.5-5.7,4.2-9.4,2c-2.9-1.7-5.2-4.2-7.6-6.5c-0.7-0.7-1.3-2-2.4-1.6c-0.9,0.3-0.7,1.7-0.9,2.6c-0.7,3.8-2.6,7-5.1,9.9
		c-1.3,1.5-3,2.2-5,1.6c-5.2-1.4-10-3.4-13.7-7.4c-4.1-4.4-8.2-8.7-11.2-14c-1.3-2.3-3-4.1-5.3-5.4c-5.4-3-9.2-7.6-12.8-12.4
		c-5.4-7.1-7.7-15.4-9.1-24c-0.6-3.4-0.3-6.9-0.1-10.3c0.4-6.2,1.5-12.2,3-18.2c2.4-9.3,7.5-16.7,14.9-22.7
		c7.3-5.9,14.4-11.9,22.2-17.2c8.3-5.7,17.5-9.6,27.2-12.1c5.8-1.5,11.7-2.5,17.7-3c5.8-0.5,11.7-0.4,17.5,0
		c7.5,0.6,14.9,1.8,22.3,3.4c2.3,0.5,2.7,0.2,3.1-2.1c0.3-1.6,0.6-3.3,0.7-5c0.1-1.9-0.7-2.6-2.6-2.7c-0.6,0-1.1,0-1.7,0
		c-6.6,0.1-13.1-0.1-19.7-0.4c-2.7-0.1-5.2-0.5-7.1-2.8c-1.3-1.5-3-2.2-5.2-1.9c-8.9,1.2-17.2-0.8-24.9-5.1c-2.6-1.4-5-3.1-7.4-4.8
		c-2.3-1.7-4.4-3.7-6.1-6c-1.6-2.2-3.3-4.3-4.9-6.5c-0.9-1.3-2-2-3.6-2.1c-5.4-0.5-10.2-2.5-14.4-6c-6.5-5.4-12.7-11-16.9-18.5
		c-2.2-3.9-3.6-8.2-5.6-12.2c-0.9-1.8-0.7-3.7-0.4-5.7c1.2-7.3,3.2-14.4,6.3-21.1c2.5-5.3,2.9-10.5,1.8-16.3
		c-2.4-12.4-2.2-25,0.2-37.4c1.2-6.4,3.5-12.3,7-17.7c1.5-2.3,1.8-4.4,1-7c-1.9-6-2-12.1-0.6-18.2c1-4.1,2.1-8.2,4-12
		c1.3-2.5,1.4-5,1-7.7c-0.5-3-0.8-6-1.5-9c-1.5-6.3-0.6-12.3,1.6-18.1c4.1-10.8,9.5-20.8,16.6-29.9c2.6-3.3,5.6-6.1,8.9-8.6
		c1.7-1.2,2.5-2.8,2.8-4.8c1-6.6,2.1-13.1,4.3-19.4c1.5-4.3,3.2-8.6,5.2-12.6c3.2-6.4,6.2-12.8,10.5-18.6c4.4-6,9.3-11.4,15-16.2
		c1.7-1.5,2.6-3,2.5-5.4c-0.3-5.4,0.5-10.7,2.1-15.8c0.4-1.2,0.6-2.5,0.7-3.8c0.5-7.4,3.2-14,7.4-20c4.9-7,10.6-13.2,17.3-18.5
		c4.5-3.5,9.5-6.2,15.2-7.3c2.2-0.4,3.3-1.5,3.4-4.4c0-1.4-0.3-2.7-1-3.9c-7.1-11.2-2.6-30.6,9.3-39.9c4.3-3.3,4.8-2.5,5.8-8.4
		c0.6-3.8,3-7,5.3-10.1c2.4-3.2,4.8-6.4,6.8-9.9c1.9-3.2,3-6.7,3.5-10.4c0.6-4.3,1.2-8.5,1.9-12.8c0.6-3.9,1.9-7.6,3.8-11
		c2.8-4.8,5.7-9.5,10.2-12.9c2-1.5,4.1-2.8,6.4-3.8c1.5-0.6,2.7-1.6,3.6-3c2.6-4.1,6.1-6.9,10.5-8.7c2.8-1.2,5.4-2.9,7.6-5
		c3.6-3.5,7.5-6.4,11.5-9.3c4.8-3.5,9.4-7.2,14.8-9.8c8.1-3.8,16-8,24.6-10.7c7.4-2.3,15.1-3.4,23-3.1c3.1,0.1,6.2,0.8,9.1,1.8
		c2.1,0.7,3.8,0.5,5.7-0.7c6.5-4.2,13.6-7.1,21.2-8.5c2-0.4,4-0.3,6-0.6c2.3-0.3,4.6-0.8,6.8-1.2c7.3-1.1,14.4-0.6,21,2.8
		c1.5,0.8,3.1,0.7,4.7,0.4c5.1-1,10.1-2.5,15.2-3.3c10.3-1.6,20.5-1.9,30.8,0.2c6.7,1.4,12.6,4.5,17.5,9.4c1.4,1.4,2.6,3.1,3.6,4.8
		c1.4,2.2,2.9,4.2,4.8,6c1.6,1.5,2.9,3.2,4.1,5c0.9,1.3,2,1.9,3.6,1.9c2.3-0.1,4.6-0.1,7-0.2c9.5-0.4,18.4,1.7,26.3,7.4
		c5.9,4.3,10.3,10,13.9,16.3c2.6,4.6,4.6,9.5,5.3,14.8c0.3,2.2,1,4.4,1.9,6.4c0.6,1.4,1.6,2.1,3.1,2.2c3,0.2,5.9,0.4,8.9,0.5
		c4.6,0.2,8.8,1.4,12.2,4.7c1.2,1.1,2.5,1.9,4,2.7c6.2,3.3,10.8,8.2,13.7,14.6c0.9,2,0.9,2,2.7,1.2c2.1-0.9,4.2-1,6.3-0.3
		c7.9,2.9,15.1,6.9,20.2,14c5.4,7.6,9.5,15.8,10.8,25.1c1.1,7.6,1.4,15.1-0.4,22.6c-0.5,2.1,0,3.5,1.5,4.9
		c7.1,6.9,12.6,14.9,16.6,23.9c2.7,6.1,3.9,12.7,4.5,19.3c0.2,1.9,0.9,3.1,2.6,3.9c3.4,1.8,6.7,3.7,10.1,5.5
		c7.8,4.1,14.5,9.7,19.9,16.6c7.1,9,13.3,18.6,17.7,29.3c3.5,8.6,5.5,17.5,6.5,26.7c1.5,13.5,1.5,27.1,1.4,40.7c0,5,1.6,9.2,6.1,12
		c1.7,1.1,3.2,2.4,4.8,3.6c3.6,2.9,6.3,6.5,8.2,10.8c2.5,6,5.1,12,6,18.4c0.5,3.1,0.5,6.2,0.7,9.3c0.1,1.8,0.7,3.2,2,4.5
		c6.2,6.1,10.4,13.3,12.8,21.6c1.4,4.8,3.4,9.5,5.6,14c2.4,4.8,3.9,9.8,3.7,15.2c0,2.2,0.6,4.3,1.6,6.2c1.3,2.5,2.7,4.9,4.1,7.3
		c3.8,6.6,5.6,13.8,5.6,21.3c-0.1,6.1-0.7,12.1-1.8,18.1c-0.4,2.1-0.3,4.1,0.5,6.1c2.5,6.3,3.7,12.9,4.2,19.6
		c0.5,6.3-1.9,11.8-6.2,16.4c-5.4,5.8-10.9,11.5-17,16.6c-1.7,1.5-3.6,2.7-5.9,2.9c-1.1,0.1-2,0.7-2.8,1.2c-3.1,1.9-6.3,3.5-9.7,4.8
		c-0.4,0.1-0.7,0.4-1.1,0.4c-3.2,0.4-5.8,2-8.4,3.9c-1.3,0.9-2.4,1.8-3.4,3c-3.5,4-7.8,6.6-12.8,8.2c-5.8,1.9-11.8,2.9-17.9,2.7
		c-1.7,0-2.8,0.4-3.8,1.9c-5.1,8.2-12.7,13-21.7,16c-0.4,0.1-0.8,0.2-1.2,0.3c-1.4,0.5-1.6,0.8-0.8,2.1c2,3.3,3.7,6.8,5.3,10.2
		c0.6,1.2,1.4,1.6,2.7,1.5c2.8-0.2,5.6-0.4,8.4-0.6c10.6-0.7,20.9,0.6,31.1,3.1c1.7,0.4,3.4,0.9,5.1,1.4c13.2,4,24.8,11,36.1,18.6
		c5.6,3.7,10,8.3,13.8,13.8c4.4,6.5,8.7,13,12.1,20.1c3,6.3,3.8,12.8,2.6,19.6c-1.5,8.5-3.7,16.7-7.2,24.6
		c-2.1,4.7-5.4,8.7-8.7,12.6c-2.6,3-5.7,5.4-9.1,7.4c-1.7,1-3.1,2.3-4,4c-2.9,5.4-7.2,9.8-11.2,14.3c-2.6,2.9-5.8,5-9.5,6.3
		c-1.4,0.5-2.7,1.1-4.1,1.5c-2.9,0.8-4.6,0-6.5-2.3c-2.5-3.1-3.9-6.5-4.6-10.4c-0.3-1.7-0.6-1.8-1.9-0.6c-1.8,1.7-3.6,3.4-5.5,5
		c-1,0.8-2,1.6-3.1,2.3c-3.7,2.4-7.6,1.5-9.8-2.3c-0.8-1.4-1.4-2.8-1.9-4.4c-0.9-3.3-1.6-6.7-1.4-10.2c0.1-1.8-0.6-3.1-2.1-4
		c-1.3-0.8-2.5-1.7-4-2.2c-4-1.5-6.5-4.5-8-8.4c-1-2.7-1.5-2.7-3.4-0.7c-1.6,1.7-2.6,3.8-3.3,6.1c-1.5,4.9-4.2,9.1-7.8,12.8
		c-0.7,0.7-1.5,1.4-2.4,2c-4,2.9-8.7,2-11.3-2.2c-1.5-2.5-2.6-5.1-3-8c-0.7-5.1-0.8-5.1-5.2-7.8c-1.4-0.8-2.7-1.7-3.9-2.8
		c-3.6-3.4-7.6-6.5-10.1-10.8c-0.4-0.7-1-1-1.8-1c-1,0-1.9,0-2.9,0C642.2,722.9,573,722.9,503.8,722.9z"/>
</g>
<g>
	<path class="st0" d="M458.7,493.6c-3.4,0.5-3.5,0.5-4.6,3.9c-3,9.2-4.8,18.6-6,28.2c-1,8.1-1.7,16.3-2.2,24.5
		c-0.1,2.7,0,5.2,0.5,7.8c1.4,6.4,3.2,12.7,5.3,19c0.7,2.1,1.6,4,2.5,6.1c4,9.1,10.9,15.7,18.5,21.8c1.2,1,2.6,1.5,4.2,1.8
		c7.5,1.6,14.8,1,22.1-0.8c4.7-1.2,9-3.5,13.1-6c0.7-0.4,1.3-0.9,1.8-1.4c3.6-3.4,7.2-6.7,10.6-10.3c3.8-3.9,6.7-8.3,8.3-13.6
		c0.4-1.4,0.8-2.7,0.8-4.2c-0.1-5.9-0.5-11.8-1.8-17.6c-1-4.2-2.7-8.3-4.2-12.4c-2.5-6.9-4.9-13.9-4-21.4c0.4-3.4-0.1-6.5-1-9.7
		c-1.2-3.8-1.4-7.7-0.5-11.7c0.1-0.5,0.1-1.1,0.2-1.6c0-0.4-0.3-0.6-0.5-0.6c-0.9,0-1.8,0-2.6,0.1c-2.6,0.4-5.2,0.6-7.9,0.4
		c-2.4-0.2-4.8-0.3-7.2-0.6c-5.1-0.6-10.2-1.5-14.7-4.1c-0.3-0.1-0.6-0.1-1.2-0.2c0.1,4.6-1.1,8.9-2.1,13.3
		c-0.8,3.1-1.3,6.2-1.6,9.4c-0.2,2.4-0.3,4.8-0.6,7.2c-0.2,2.1-0.2,4.1,0.1,6.2c0.5,2.8,0.8,5.6,1.4,8.4c0.6,3.4,1,6.7,0.1,10.1
		c-0.5,2-0.2,3.9,0.3,5.8c0.7,2.9,1.4,5.7,2.2,8.6c0.7,2.7,1.5,5.5,1.8,8.3c0.1,1.2,0.1,2.4-0.1,3.6c-0.3,1.4-1.1,2.4-2.5,2.8
		c-1.3,0.3-2.3-0.3-3.2-1.2c-1.3-1.4-2.2-3-2.9-4.7c-1.1-2.8-1.5-5.7-1.6-8.7c0-4.6,0.1-9.2,0.4-13.8c0.1-0.9,0.1-1.8,0.1-2.6
		c-0.2-4.6-0.8-9.1-2.1-13.6c-1.3-4.8-1.8-9.6-1.1-14.6c0.1-1,0-2-0.1-2.9c-0.6-3.2-1.2-6.4-1.8-9.6c-1-5-1.5-9.9,0.3-14.8
		c0.1-0.1-0.1-0.4-0.2-0.8c-1.3,0.9-2.6,1.6-3.9,2.5c-2.3,1.6-4.8,2.7-7.5,3.3C461.9,493.1,460.4,493.3,458.7,493.6z"/>
	<path class="st0" d="M440.1,439.1c2.8,5.7,7,10.1,12.7,12.9c4,2,7.9,4.2,11.5,7c1.9,1.4,3.9,2.8,5.9,4.2c0.3,0.3,0.8,0.5,1.1,0.6
		c0.3,0.1,0.7-0.1,0.8-0.4c0.1-1,0.3-1.9,0.3-2.9c0.3-3.7,0.5-7.4,0.8-11.2c0.3-5.1,2.2-9.8,4.3-14.4c0.1-0.1,0.3-0.2,0.7-0.5
		c0.1,1.2-0.3,2.2,0.3,3.2c1.8,3.4,2.5,7.3,3.2,10.9c0.5,2.4,1,4.7,1.9,7c1.3,3.3,2.1,6.6,2.1,10.2c0,0.2,0.2,0.3,0.3,0.5
		c0.7,0.1,1.3-0.1,1.8-0.4c2.1-1,4-2.2,5.9-3.5c1.4-1,2.8-2.1,4.3-2.9c4.7-2.5,9.1-5.6,13.5-8.8c2.3-1.7,4.3-3.7,5.9-6.1
		c1.4-2.2,2.7-4.5,3.7-7c1-2.3,1.3-4.7,1.5-7.3c-1,0.5-1.2,1.3-1.6,1.9c-1.4,2.3-3.5,3.9-6,4.8c-1.6,0.5-3.1,1-4.8,1
		c-1.5,0.1-3.1,0.3-4.6,0.3c-0.8,0.1-1.5,0.2-1.9,1c-1.4,2.4-3.8,3.4-6.2,4.6c-2.3,1.1-4.3,0.7-6.1-0.9c-4.1-3.6-6-8.2-5.6-13.5
		c0.3-5,2.9-9.2,7.2-11.9c1.7-1.1,3.6-1.5,5.7-1c2,0.4,3.4,1.6,3.8,3.6c0.8,3.5,1.2,6.9-2.2,9.8c4.9,1.4,9.6,2.5,14.4,2
		c1.4-0.1,2.7-0.8,3.8-1.8c3.4-2.8,4.1-6.6,4.2-10.6c0-1.3-0.2-2.7-0.8-3.8c-0.8-1.5-1.2-3-1.7-4.6c-1-3.8-3.1-7-6.3-9.3
		c-0.5-0.4-1-0.8-1.5-1.3c-4.7-4.4-10.3-7.3-16.6-8.8c-4.8-1.2-9.5-1.6-14.3-1.1c-3.7,0.4-7.4,0.7-11.1,1.2c-3.5,0.5-7,0.7-10.5,0.5
		c-1.4-0.1-2.9,0-4.2,0.4c-5.8,1.7-10.3,5.2-13.8,10.1c-0.3,0.5-0.8,1.1-1,1.7c-0.9,2.9-1.9,5.9-2.1,9c-0.2,4.2-0.1,8.6,0.6,12.8
		c0.2,1.2,0.6,2.3,1.2,3.4c0.7,1.3,1.6,2,3.2,1.6c1.4-0.3,2.8-0.5,4.2-0.6c4.2-0.5,3.4-1.2,2.1-3.7c-0.8-1.6-1.6-3.1-1.6-4.9
		c-0.1-2.3,1-4,3.2-4.7c2.1-0.8,3.9-0.1,5.6,1c1.1,0.7,2.2,1.5,3.3,2.2c4.6,3,6.3,8.3,4.4,13.5c-0.4,1.2-0.9,2.3-1,3.5
		c-0.1,2.1-1,3.8-2.1,5.5c-0.3,0.5-0.7,0.8-1.2,1c-1.6,0.9-3.1,0.8-4.7,0c-1.5-0.8-2.7-1.9-3.6-3.3c-0.5-0.8-1.1-1.3-2.1-1.3
		c-2.9,0-5.6-0.8-8.4-1.3c-0.8-0.1-1.5-0.5-2.2,0C440.1,438.7,440.1,438.9,440.1,439.1z"/>
</g>
<g>
	<path class="st1" d="M556.2,486.4c-0.8-0.3-1.4,0.2-1.9,0.5c-1.9,0.9-3.8,1.8-5.6,2.7c-3.8,1.9-7.6,3.9-11.8,4.9
		c-0.2,0.1-0.3,0.3-0.5,0.4c-0.1,0.7,0.4,1.2,0.7,1.8c1.5,3,2.3,6.2,2.5,9.4c0.2,3.3,0.1,6.6-0.3,9.8c-0.3,2.9-0.5,5.9-0.3,8.8
		c0.1,1.5,0.4,3,0.7,4.5c0.1,0.3,0.2,0.7,0.7,0.4c0.1-0.1,0.3-0.3,0.4-0.5c0.3-2.3,0.6-4.6,0.8-6.8c0.1-2.7,0.8-5.2,2.3-7.4
		c1.6-2.4,3.1-4.7,4.8-7c1.3-1.9,2.6-3.8,3.5-6c1.5-3.6,2.8-7.3,3.7-11.2C556,489.4,556.4,487.9,556.2,486.4z"/>
	<path class="st1" d="M438.3,491.4c-3.9-1.4-7.7-3-11.4-4.9c-0.1-0.1-0.4,0.1-0.8,0.1c0.3,1.3,1,2.4,1.9,3.4c1.9,2.1,2.3,4.4,1.6,7
		c-1.1,3.8-0.8,7.6,0.6,11.3c1.6,4.5,3.8,8.9,6,13.1c0.1,0.3,0.4,0.5,1,1.1c0.2-1.2,0.3-1.8,0.5-2.4c0.3-2.1,0.5-4.2,0.9-6.2
		c0.4-1.8,0.5-3.7,0.3-5.5c-0.5-5.1-0.2-10.1,0.6-15.1C439.6,492,439.5,491.8,438.3,491.4z"/>
</g>
<g>
	<path class="st2" d="M843.3,490.8c-0.2-0.4-0.4-0.8-0.7-1.1c-0.9-1-1.4-2.2-1.8-3.4c-0.5-1.6-1.2-3.3-1.8-4.9
		c-0.2-0.6-0.5-1.2-0.5-1.8c0-1.5-0.6-2.8-1.2-4.1c-1.4-3.4-2.9-6.6-4.3-9.9c-1.4-3.1-2.1-6.2-1.7-9.6c0.1-0.9,0.1-1.8,0-2.6
		c-1-4.2-1.7-8.3-3.4-12.3c-2.7-6.6-5.8-12.9-10.1-18.7c-1-1.4-1.8-2.7-2.5-4.2c-1.3-3-2.9-5.9-5-8.5c-1-1.3-1.6-2.5-1.1-4.2
		c0.3-1,0.3-2.2-0.5-3.1c-2-1.8-2.9-4.4-3.8-6.8c-0.9-2.3-1.7-4.7-2.7-7c-1.8-4.2-4-8-7-11.4c-2.9-3.4-5.6-7-8.8-10.1
		c-2.4-2.3-3.5-5.2-3.3-8.6c0.2-4.8,0.2-9.6,0.4-14.4c0.5-13.6-1.8-26.7-6.8-39.2c-0.3,4.2-1,8.3-1.9,12.5c-0.6,2.8-1.1,5.5-1.2,8.4
		c-0.2,2.7-0.5,5.4-0.8,8.1c-0.3,3.4-1,6.7-1,10.1c-0.2,6.6-0.1,13.1-0.1,19.7c0,1,0.1,2,0.3,2.9c0.8,4.9,2.5,9.5,4.7,14
		c2,4.2,4.4,8,6.8,12c1,1.6,2.1,3.3,2.6,5.4c-2.1,0.8-3.9,1.6-5.9,2.2c-2.3,0.8-4.5,0.7-6.8,0c-2.8-0.9-5.5-1.9-8.2-3.3
		c-1.4-0.8-2.7-1.8-4-2.9c-0.3-0.3-0.5-0.5-0.8-0.8c-0.2-0.2-0.3-0.4-0.5-0.5c-0.1-0.1-0.1-0.1-0.2-0.3c-0.2-0.3-0.4-0.5-0.7-0.8
		c0,0,0-0.1-0.1-0.1c-1.2-1.4-2.1-2.9-2.9-4.7c0,0.4-0.1,0.9-0.1,1.3c0.7,1.1,0.8,2,1,2.9c0.8,2.9,1.7,5.7,3.4,8.1
		c4,5.7,8.5,10.9,14.2,14.9c5.1,3.6,10.2,7.2,15.7,10.1c1.2,0.6,2.3,1.3,3.4,2c3.8,2.4,6.8,5.5,8.9,9.4c0.8,1.4,1.4,2.7,2.1,4.1
		c0.6,1.4,1.5,2.3,2.9,2.9c2.3,0.9,4.2,2.3,6,3.9c3.6,3.3,6.4,7.1,8.8,11.3c2.1,3.7,3,7.7,2.5,12c-0.3,2.2,0,4.4,0.2,6.6
		c0.1,1.2,0.5,2.1,1.6,2.7c1.6,1,3.1,2.1,4.7,3c1,0.6,1.9,1.4,2.5,2.5c0.8,1.6,2.1,2.8,3.6,3.8c1.2,0.8,2.2,1.8,3.1,2.9
		c0.3,0.4,0.7,0.8,1.1,1.2c0.3,0.3,0.8,0.4,1.2,0.1C843.4,491.9,843.5,491.4,843.3,490.8z"/>
	<path class="st2" d="M414.1,490.2c-1.5-3.1-2.2-6.4-2.4-9.9c-0.1-1.6-0.3-3.3-0.3-4.9c0.1-1.8-0.6-3.1-1.6-4.4
		c-2.4-3-4.4-6.2-6.2-9.6c-0.1,0.5-0.3,1-0.5,1.8c-0.1,0.5-0.3,1-0.5,1.6c-0.8,2.1-1.2,4.2-1.3,6.4c-0.2,2.6-0.5,5.2-0.9,7.8
		c-0.7,5.3-1.5,10.6-2.2,15.9c-0.1,1.3-0.2,2.7,0,3.9c0.2,1,0.3,1.9,0.3,2.9c0.2,0.3,0.3,0.7,0.5,1c1.6,2.7,3.4,5.1,5.5,7.3
		c1.1,1.1,2.1,2.2,2.9,3.6c3.1,5.4,7.4,10.1,9.9,15.8c0.1,0.3,0.3,0.5,0.5,0.8c3.1,3.6,4.8,8.1,6.4,12.5c0.3,0.8,0.5,1.7,0.9,2.5
		c1.1,1.9,1.9,4,2.1,6.2c0.3,2.7,1.8,4.3,4,5.5c0.9,0.5,1.7,1,2.6,1.4c1,0.5,1.5,0.2,1.5-0.8c0.1-4.8,0.1-9.6,0.7-14.4
		c0.1-1.2-0.3-2.1-1.3-2.8c-0.5-0.3-0.9-0.7-1.4-1c-5.3-3-9.5-7.3-13.2-12.1c-1.2-1.5-2.1-3.1-2.9-4.8c-2.4-5.7-4.4-11.7-5.3-17.9
		c-0.5-4-0.3-7.9,1.8-11.4C414.7,492,414.6,491.2,414.1,490.2z"/>
	<path class="st2" d="M577.6,478.2c0.5-1.4,1-2.7,2.1-3.6c0.5-0.5,1.3-1.1,2.1-0.9c1.9,0.6,3.1-0.5,4.3-1.6c1.4-1.3,2.9-2.6,4.4-3.9
		c2.3-2.1,4.2-4.4,5.8-7.1c2.1-3.7,4-7.5,5.6-11.4c-1.6,1.6-3.2,3.4-5,4.9c-1.7,1.5-3.6,2.8-5.5,4.1c-1.6,1-3.3,1.7-5.1,2.1
		c-0.8,0.1-1.3-0.3-1.3-1.1c0-0.9,0-1.8,0.1-2.6c0.6-3,1.3-6,2.5-8.8s2.5-5.8,3.8-8.8c2.7-6.2,5-12.6,4.9-19.6c0-0.3,0-0.7,0.1-1
		c0.3-1.5,0.4-3,0.5-4.6c-1.5,6.8-5,12.5-10.2,17.1c-0.3,0.2-0.5,0.4-0.8,0.6c-2.8,2.8-5.1,6-5.5,10.1c-0.3,2.9-0.9,5.8-1.6,8.7
		c-1.6,7.5-3.9,14.8-8.4,21.2c-1,1.4-1.4,2.9-1.5,4.6c-0.2,3.3-0.5,6.6-1,9.8c-1.2,8-4,15.5-7.7,22.6c-3.8,7.5-7.3,15.1-9.8,23.3
		c-1.4,4.5-3.9,8.6-7.4,11.8c-0.4,0.3-0.8,0.8-1.1,1.2c0.7,1.4,1.3,2.6,1.9,3.9c0.5,1.3,1,2.7,1.6,4c0.5,1.2,0.6,2.7,1.6,4
		c2-2.4,3.6-4.7,4.1-7.6c0.3-2.1,0.9-4.3,1.4-6.4c1.8-6.8,4.7-13.2,9.4-18.6c1.2-1.4,2.4-2.9,3.6-4.3c3.1-4,6.2-7.9,9.4-11.8
		c1.4-1.7,2-3.6,1.8-5.7c-0.2-2.2-0.2-4.4-0.3-6.6c-0.2-3.4-0.3-6.8-0.1-10.2C576.4,483.6,576.8,480.8,577.6,478.2z"/>
	<path class="st2" d="M242.8,407.1c-1.8-0.8-3.6-0.8-5.5-0.4c-3.3,0.7-6,2.3-8.6,4.5c-3.1,2.7-6.2,5.5-8.6,8.9
		c-0.2,0.3-0.4,0.5-0.7,0.7c-4.7,4.3-8.2,9.6-11.2,15.2c-1,1.9-2.1,3.8-3.4,5.6c-3.4,5.2-6.2,10.7-8.5,16.6c-1,2.7-2.1,5.5-3.2,8.2
		c-0.1,0.3-0.3,0.7-0.7,0.5c-0.3-0.1-0.5-0.3-0.7-0.6c-2.2-4.8-4-9.7-4-15.1c0-1.2,0.1-2.5-0.8-3.4c-0.5-0.5-0.8-1-0.8-1.6
		c-0.3,1.2-0.6,2.3-0.8,3.6c-0.5,3.5-0.6,7-0.5,10.5c0,1.2-0.1,1.3-1.6,1.5c-0.5,0.1-0.9,0-1,0.5c-0.8,2.9-2.2,5.7-1.9,8.9
		c0.3,3.8,0.5,7.7,0.8,11.4c0.3,3.6-0.1,7-1.2,10.3c-0.8,2.3-1.6,4.5-2.5,6.8c-0.8,2.1-1.7,4-2.3,6.2c-1.2,4.9-2.5,9.7-3.4,14.6
		c-1.2,6.4-1.6,12.8-1.8,19.3c-0.1,3.1,0.1,6.4,1,9.4c1.1,3.4,2.4,6.8,3.9,10.1c0.2,0.5,0.4,1,1.2,0.9c0.3-1.2,0.8-2.5,1.1-3.8
		c0.2-1.2,0.1-2.4,0.1-3.6c0.1-1.8,0.1-3.5,0.2-5.3c0.5-5.5,2.3-10.5,5.8-14.7c1.5-1.8,2.5-3.8,3.1-6c0.2-0.8,0.5-1.6,0.8-2.4
		c0.1-0.4,0.3-0.8,0.5-1.2c1.5-3.4,3.8-6.2,7-8.3c1.5-1,2.9-2.3,4.1-3.7c3.4-4.2,8.1-6.2,12.9-8.1c0.5-0.2,1-0.1,1.4,0.4
		c0.3,0.3,0.6,0.7,1,0.9c2.9,1.7,3.2,6.2,0.8,9c-1,1.2-2.3,1.9-3.7,2.6c-1.8,1-3.6,2-5.5,2.9c-1,0.5-1.6,1.4-2,2.5
		c-0.9,3.1-1.4,6.2-0.8,9.4c0.4,1.8,0.8,3.6,1.4,5.4c1.3,3.6,1.2,7-0.8,10.4c-1.5,2.6-2.2,5.5-2.7,8.3c-0.4,2.4-0.1,4.5,1.2,6.6
		c1.5,2.5,3.1,4.7,4.9,7c1.6,2.2,3.3,4.4,4.9,6.6c1.8,2.7,2.9,5.6,3.4,8.8c0.2,1.4,0.5,2.8,0.7,4.2c0.2,1.2,0.8,2.2,2,2.8
		c4,2.3,8.3,4,12.6,5.6c0.5,0.2,1-0.3,0.8-1c-0.2-0.6-0.4-1.2-0.6-1.8c-0.7-2.5-0.9-5.1,0-7.5c1.4-3.8,2.1-7.8,2.5-11.8
		c-0.1-0.1-0.1-0.3-0.3-0.4c-5.3-8.9-8.1-18.5-8.7-28.9c-0.1-0.8-0.1-1.6,0.1-2.3c0.6-2.5,0.6-5,1-7.5c1.1-7,3.9-13.1,8.3-18.5
		c-0.6-2.8-0.9-5.6-0.8-8.5c-0.2-3.4,0.2-6.6,1.2-9.7c0.5-1.6,0.5-3.2-0.1-4.8c-0.1-0.3-0.2-0.6-0.3-1c-0.4-3.4-1.8-6.2-4-8.8
		c-2.6-3.3-3.4-7.1-2-11.2c0.9-2.5,0.5-4.7-0.4-7c-0.8-2-2-3.6-3.2-5.3c-1.2-1.4-2.3-2.9-3.1-4.6c-2.1-3.7-2.3-7.5-0.8-11.4
		c1.8-4.6,3.6-9.2,5.8-13.5c3.3-6.4,7.5-12.1,13.1-16.6c1.4-1.2,3.1-2.1,4.9-2.7c0.6-0.2,1.3-0.3,1.9-0.1c0.1-0.3,0.1-0.7,0.1-1.1
		C245.7,409,244.6,407.8,242.8,407.1z"/>
	<path class="st2" d="M374.3,626.6c0.5-2.5-0.2-2.5-2.2-3c-0.5-0.1-1.1-0.1-1.6-0.1c-3.1,0.4-6.3,1-9.2,2.2c-1.9,0.8-3.4,2-3.9,4.1
		c-0.2,0.8-0.5,1.4-0.8,2.2c-2.1,5.2-6.3,7.3-10.5,6.8c-0.9-0.1-1.7-0.1-2.5,0.3c-2.3,2.5-7.9,3.4-13.7,2.8c-2.1,0.8-3.8,2.1-5.2,4
		c-0.9,1.2-1.9,2.4-3.1,3.4c-1.6,1.2-6.1,3.6-6.4,4.6c0.4,0.3,0.8,0.8,1.2,1.1l0.9,0.8l0.5,0.4l0.4,0.4c1.2,1.1,2.3,2.3,3.4,3.4
		c0.5,0.5,1.1,1.2,1.7,1.7l1.6,1.8c0.3,0.3,0.5,0.6,0.8,0.9l0.8,0.9l1.6,1.8c1,1.2,2.1,2.5,3,3.8c2.6,3.3,5,6.6,7.3,10
		c0.1,0.1,0.1,0.1,0.1,0.1c0.6,0.8,1.2,1.5,1.6,2.3c0.2,0.3,0.3,0.5,0.5,0.8c0.5,0.8,1,1.5,1.5,2.3c1.8,2.6,3.6,5.3,5.5,7.8
		c0.2,0.3,0.4,0.5,0.6,0.8l0.1,0.1c0.5,0.5,1,1,1.5,1.4c0.9,0.8,1.8,1.5,2.8,2.2c0.2,0.1,0.4,0.3,0.6,0.4h2.7
		c0.5-0.6,1.1-1.2,1.8-1.7c0.9-0.8,1.3-1.6,1.6-2.7c1.4-4.2,3.4-8.1,7.2-10.7c1.4-1,1.4-1,0.6-2.6c-1.7-3.6-2.8-7.3-3.6-11.2
		c-1.9-10.6,0.1-20.3,7.1-28.7c1.4-1.7,2.8-3.4,4.3-4.9c0.8-0.8,0.9-1.6,0.4-2.6C374.4,631.7,373.8,629.2,374.3,626.6z"/>
	<path class="st2" d="M694.5,646.9c0.1-0.6,0.2-1.3,0.3-1.9c0.3-1.2,0.5-2.3,0.8-3.5c0.2-1.2,0.5-2.4,0.3-3.6
		c-0.1-1-0.5-1.8-1.5-2.4c-1-0.7-2.2-0.9-3.4-1c-4.2-0.3-6.8-2.5-8.1-6.6c-0.4-1.2-0.7-2.5-1-3.8c-0.3-1-0.5-1.9-1.2-2.7
		c-0.7-1-1.6-1.4-2.8-1.1c-5.8,1.7-11.8,1.9-17.9,2.3c-3.6,0.2-7.2,0.3-10.8-0.1c-5.7-0.8-11.1-2.5-16.3-4.9c-1-0.5-1.8-1.2-3.1-1.2
		c-0.9,1.8-2.2,3.2-3.8,4.3c-1.4,1-2.1,2.4-2.5,4.1c-0.4,1.8-0.8,3.6-1.3,5.4c-1.7,6-5.3,10.8-10.6,14.1c-2,1.2-3.8,2.5-5.4,4.2
		c-1.8,1.8-3.8,3.3-6.1,4.4c-1.8,0.8-3.8,1.2-5.7,1c-2.6-0.3-4.4-1.7-5.9-3.8c-1-1.4-0.7-3.1-0.5-4.7c0.1-1.2,0.7-2.3,1.2-3.4
		c0.4-0.9,0.9-1.8,1.3-2.7c0.8-1.8,1-3.6,0.4-5.4c-0.2-0.5-0.3-1-0.5-1.6c-0.1-0.1-0.1-0.2-0.2-0.3c-0.6-1-1.1-2.1-1.1-3.4
		c0-0.2,0-0.3,0-0.5c-1-2.7-1.1-2.7-4.2-3.6c-0.3-0.1-0.6-0.2-1-0.3c-5.4-1.2-8.4-4.8-9.8-10c-0.2-0.8-0.1-1.8-0.8-2.4
		c-0.3,0-0.5-0.1-0.7-0.1c-3.5,1-6.2-0.1-8.5-2.9c-2.5-3.1-6-4.7-9.8-5.7c-2.3-0.7-4.5-0.8-6.4,1c-0.6,0.5-1.5,0.9-2.3,1.2
		c-1.6,0.6-3.4,1.1-5.1,0.7c-3.1-0.7-6.3-1-8.6-3.8c-0.6,0.5-1.2,0.9-1.6,1.3c-3.9,3.7-8.2,6.8-12.5,10.1c-1.8,1.4-3.8,2.5-6,3.4
		c-3.4,1.4-7,2.7-10.5,3.6c-4.2,1.1-8.4,1.6-12.7,1c-3.2-0.5-6.5-0.8-9.7-1.4c-8.8-1.8-17.4-4.4-25.1-9.3c-0.5-0.3-1.1-0.8-1.7-1
		c-0.5-0.2-0.9,0-1,0.5c-0.3,1.4-0.6,2.7-1,4.2c-0.6,2.7-2.2,4.5-4.9,5.2c-2.1,0.5-4.1,1.4-6.1,2.3c-3.6,1.8-7.1,3.8-10.5,6
		c-9.3,6.2-14.8,15.1-17.9,25.5c-0.9,2.9-1,5.8,0.8,8.6c0.1,0.2,0.2,0.4,0.3,0.6c1.6,3.9,0.5,7.4-3.1,9.6c-0.3,0.2-0.8,0.4-1.2,0.6
		c-6.9,3.9-11.1,12.5-10,20.3c0.2,1.7,0.8,3.1,2,4.4c0.5,0.5,1,1.1,1.4,1.7h5.3c0.1-1,0.1-2.1,0.1-3.1c0-2,0.1-4,1-5.7
		c0.7-1.5,1.4-2.9,1.8-4.5c0.4-1.4,1.4-2.5,2.6-3.3c1.5-1.1,3.1-2.1,4.9-2.7c0.7-0.3,1.5-0.5,2.1-0.9c1.8-1.4,3.8-1.5,5.9-1
		s4.2,0.4,6.2,0.1c2.5-0.4,5-0.3,7.5-0.3c1.3-0.1,2.3,0.4,3.2,1.3c1.6,1.7,3.4,3.5,5.1,5.1c6.5,5.8,13.9,9.4,22.9,8.8
		c6.7-0.5,12.5-2.9,17.4-7.5c2.5-2.3,4.1-5.1,5.6-8c2-3.8,2.9-4.2,7-3.3c4.6,1,9.2,1.7,14,1.6c5.6-0.1,11.1-1,16.5-2.2
		c1-0.2,1.9-0.3,2.8,0.3c1.4,0.8,3,1.2,4.7,1.5c3.6,0.6,7,1.3,10.3,3.2c2.3,1.4,2.6,1.8,2.3,4.4c-0.1,0.4-0.1,0.9-0.2,1.3
		c-1,5.1-0.8,10.1-0.3,15.2H564c-0.1-0.3-0.2-0.5-0.3-0.8c-2.7-5.7-0.8-9.5,3.1-12.4c2.1-1.6,4-3.4,4.9-6c0.5-1.2,0.6-2.3,0.2-3.5
		c-0.3-0.8-0.5-1.7-0.6-2.5c-0.4-2.7,0.8-5,3.4-6.2c0.6-0.3,1.2-0.5,1.8-0.5c3.7-0.5,7.3-0.1,10.5,1.6c1.9,1,3.6,2.4,5.3,3.8
		c2.1,1.8,3.5,4,4.4,6.5c0.5-0.8,1.4-1.4,2.4-2c2.5-1.4,4.9-3.4,6.9-5.5c5.2-5.2,9.8-10.9,12.7-17.8c0.6-1.4,1.4-2.7,2.3-4
		c3-4,6.4-7.7,10.1-11.2c1.1-1.1,2.3-1.5,3.8-1.4c3.3,0.3,6.5,0.8,9.6,1.6c2.7,0.8,5.5,1.5,8.3,2.1c4,0.8,7.9,1.8,11.8,2.9
		c1,0.3,2.1,0.4,2.5,1.4c1.3,2.7,3.6,4.7,5.7,6.7c0.7,0.7,1.3,1.4,1.8,2.3c0.4,0.9,0.4,1.6-0.2,2.4c-2.7,4.2-4.6,8.9-6.1,13.8
		c-0.8,2.7-0.5,5.2,0.8,7.6c0.2,0.4,0.4,0.8,0.5,1.2c2.1-2.9,4.1-5.7,6.4-8.6c1-1.3,2-2.5,3-3.8l1.6-1.8l0.8-0.9
		c0.3-0.3,0.5-0.6,0.8-0.9l1.6-1.8c0.5-0.6,1.1-1.2,1.7-1.7c1.1-1.2,2.3-2.3,3.4-3.4l0.4-0.4l0.5-0.4l0.9-0.8
		c0.6-0.5,1.2-1.1,1.8-1.6l1.8-1.6l1-0.8c0.3-0.2,0.6-0.5,0.9-0.7C695,649.7,694.4,648.5,694.5,646.9z"/>
	<path class="st2" d="M532.4,439.5c-0.9,4.9-3.1,9.1-6.8,12.5c-6.4,6-13,11.7-20.9,15.7c-4.8,2.4-9.4,5.2-14,7.9
		c-1.2,0.6-2.2,1.4-3.3,2.2c-0.7,0.5-0.6,1.4,0,2c0.1,0.1,0.3,0.3,0.5,0.4c4.1,2.8,8.6,4.8,13.5,5.4c7.3,1,14.6,0.8,21.9-0.6
		c10.1-2,19.1-6.2,26.7-13.3c2.9-2.7,5.7-5.7,8.6-8.6c1.4-1.4,2.6-3,3.6-4.7c1.1-2,2.3-4,3.3-6c2.6-5.5,4.7-11.1,4.9-17.2
		c0.1-2.3,0.4-4.4,0.8-6.7c-1.1-0.2-2.3,0.3-3.3,1.4c-0.7,0.8-1.2,1.8-1.8,2.7c-1,1.5-1.7,3.1-3.3,4c-2.4,1.4-4.9,2.3-7.8,2.1
		c-2.2-0.1-3.7-1.2-4.9-2.9c-1-1.4-1.5-2.9-1.8-4.6c-0.3-2.1-0.6-4.3-0.8-6.5c-0.4-6.4-1.9-12.5-4.9-18.2
		c-2.6-5.1-5.3-10.1-8.3-14.8c-1.5-2.4-2.2-4.9-1.6-7.8c0.4-2.1,0.3-4.4,0.1-6.6c-0.2-2.1-0.4-4.4-2-6.2c-0.1-0.1-0.2-0.2-0.3-0.3
		c-0.1,0.1-0.1,0.3-0.1,0.4c-0.5,1.8-1.4,3.6-1.8,5.6c-0.2,1.1-1,2-2.1,2.4c-1.3,0.5-2.5,1.1-3.7,1.9c-1,0.7-2.3,0.1-2.5-1.1
		c-0.1-0.8-0.1-1.5-0.1-2.3c0-1.5-0.4-2.8-1.4-3.9c-0.3-0.4-0.7-0.8-1-1.3c-1.4-1.9-1.7-4-0.6-6.2c0.7-1.4,1.2-2.7,1.5-4.2
		c-0.1-1.4-0.1-2.7,0-4c0-0.1,0.1-0.3,0.1-0.3c-0.1-0.8-0.3-1.5-0.5-2.2c-0.2-0.6-0.4-1.2-0.6-1.8c-0.6-2.1-0.5-4.1,0.3-6.1
		c0.5,0-0.1-1.9-1.2-2.7c-2.7-2.1-5.8-3.5-8.9-4.9c-1.6-0.7-3.2-1.4-4.7-2.4c-0.9-0.5-1.2-1.3-0.9-2.3c1-3.3,1.3-6.6,0.6-10
		c-0.1-0.2,0-0.4,0-0.7c0.1-1.7-0.6-3.2-1.5-4.6c-1.2-1.8-2.7-3.5-4.5-4.7c-2.9-1.9-6-2.9-9.6-1.8c-2.9,0.9-5.3,2.5-7.5,4.6
		c-1.7,1.8-3.5,1.9-5.6,1.2c-0.3-0.1-0.6-0.3-0.9-0.3c-2.9-0.8-5.9-1.6-8.8-2.5c-1.5-0.4-2.9-0.3-4.5,0.1c-5.7,1.8-9.4,7.9-8.8,14.2
		c0.1,0.8,0.5,1.2,1.3,1c1.5-0.3,3-0.7,4.4-1c1.6-0.3,3,0.1,4,1.6c0.6,0.9,1.1,1.8,2.1,2.5c0.2,0.1,0.4,0.6,0.3,0.9
		c-0.4,1.1-0.3,2.5-1.5,3.1c-0.7,0.4-1,1.2-1.4,1.8c-1.9,3.1-2.1,6.4-1.4,9.8c1,5.2,2.9,10.1,6.6,14.1c1,1.1,2,2,3.5,2.2
		c0.3,0.1,0.7,0.1,1,0.2c1.3,0.7,2.4,1.6,2.5,3.1c0.1,1.6-0.5,3-1.9,3.9c-0.7,0.4-1.4,0.8-2.1,1c-2.3,0.8-4.4,1.8-6.7,2.7
		c-5.2,2.1-9.9,4.9-14.3,8.3c2.7-1.4,5.8-2.5,9.2-3.1c2.1-0.4,4.3-0.7,6.5-1c5.7-0.9,11.4-1.1,17-0.5c2.7,0.3,5.3,0.5,8,0.8
		c0.7,0.1,1.4,0.1,2.1,0.2c3.3,0.3,6.5,0.8,9.8,1.1c1.3,0.1,2.6,0.5,3.8,0.8c5.5,1.4,10.9,3.4,15.3,7.2c0.1,0.1,0.2,0.1,0.3,0.2
		c4.5,2.9,7.8,6.8,9.6,11.7c1.4,4,2.7,8.1,3.5,12.2c1.2,6.2,1,12.4,0.4,18.6C533.2,436.1,532.8,437.8,532.4,439.5z"/>
	<path class="st2" d="M741.2,299.1c-0.2-0.2-0.4-0.5-0.6-0.8c-1.2-1.6-2.7-2.9-4.3-4c-3.8-2.5-8-4-12.5-4.8c-1.4-0.2-2.6-1.2-4-0.8
		c-0.3,1.4-0.5,2.7-0.8,4.2c0,0.1,0,0.2-0.1,0.3c-0.3,1.2,0.1,2.1,0.8,3.1c6.4,8.8,9.5,19,10.4,29.7c0.5,5.9,0.3,11.8,0.3,17.7
		c0,0.4-0.1,0.9-0.1,1.3c-0.5,6.8-1.6,13.5-3.2,20c-0.7,2.7-1.4,5.3-2,7.9c-1,4.3-1.3,8.6-1,13.1c0.1,2.5,0.7,4.7,1.6,7
		c0.5,1.2,1.1,2.3,1.4,3.6c-1,0-1.2-0.8-1.5-1.2c-1.2-1.5-2.3-3.4-3.7-4.6c-0.5-0.5-1.1-1-1.5-1.6c0.8,3.7,1.5,7.4,2.9,10.9
		c1.7,4.4,3.5,8.8,5.7,12.9c1.6,3.1,3.4,6.1,5.2,9.1c3.4,5.9,7.1,11.6,12.4,16c1.2,1,2.5,2.1,3.7,3.2c4.9,4.4,10.5,6.9,17,7.8
		c4,0.5,7.9,1.6,11.4,4h0.1c0.1,0,0.3-0.1,0.5-0.1l0,0c0-0.1,0-0.1,0.1-0.1c0.1-0.1,0.1-0.2,0.1-0.3c0-0.1,0-0.1,0-0.1
		c-0.8-4-2.3-7.5-5.3-10.3c-1.5-1.4-2.9-2.9-4.7-4.1c-2.5-1.8-4.9-3.6-7.3-5.5c-4.5-3.8-8.5-8.2-12-12.9c-3.5-4.6-5.8-9.7-8.1-14.9
		c-2.9-6.6-3.1-13.4-2.4-20.3c0.5-5,1.8-9.9,3.4-14.6c1.5-4.2,3-8.4,4.7-12.6c2.7-6.7,4.2-13.8,5.5-20.9c0.5-3.1,1-6.2,1.2-9.4
		c0.3-3.8,0.1-7.7-0.6-11.4c-0.3-1.6-0.6-3.1-1-4.7c-0.5,3.4-1.6,6.6-2.7,9.9c-0.6,0-0.8-0.3-0.8-0.6c-0.5-2.5-1.4-4.9-2.4-7.1
		c-0.7-1.6-1.5-3.2-1.7-4.9C744.6,304.5,743.7,301.5,741.2,299.1z"/>
	<path class="st2" d="M698.9,346.2c3.1,1.6,6.2,3.3,9.2,5c0.5,0.3,1,0.6,1.3,1c1.2,1.4,2.6,2.7,3.5,4.3c1.6,2.8,3.5,5.5,3.6,8.9
		c0.2-0.5,0.3-1,0.5-1.5c1.6-3.9,2-8.1,1.9-12.2c-0.1-4.6-0.7-9.2-1.8-13.6c-1-3.6-1.9-7.2-3.9-10.4c-2.2-3.6-4.5-7-6.8-10.5
		c-0.2-0.3-0.4-0.9-1-0.6c-0.2,0.1-0.4,0.5-0.5,0.8c-0.3,1.2-0.4,2.4-0.8,3.6c-0.2,0.8-0.6,1.6-1.1,2.4c-0.6,0.9-1.5,1.3-2.6,1.1
		c-1.1-0.2-1.7-1-2-2c-0.1-0.8-0.3-1.5-0.3-2.3c-0.5-5.3,0.4-10.5,2.4-15.4c0.6-1.4,0.8-2.9,0.5-4.4c-0.3-1.8-0.5-3.7-0.4-5.5
		c0.3-5.1-0.6-10.1-0.5-15.1c0-0.9-0.1-1.7-0.8-2.4c-1.2-1.2-1.8-2.7-2.3-4.3c-0.6-2-1.2-4-1.8-6c-0.6-2.1-1.8-4-3.3-5.6
		c-2.3-2.5-5-4.2-8-5.6c-2.4-1.1-4.9-1.9-7.5-2.6c-2.9-0.8-5.8-1.9-8.3-3.8c-1-0.8-2.2-1.2-3.3-1.9c-0.1,0.2-0.3,0.3-0.4,0.5
		c0.3,0.7,0.8,1.3,1.1,2c3.4,6.9,5.1,14.2,4.6,21.9c-0.2,3.3-0.5,6.6-1.4,9.7c-1.3,5-1.2,9.9,0.1,14.9c0.9,3.3,1.6,6.6,2.4,9.9
		c0.8,3.5,0.8,6.9-0.4,10.4c-0.7,2-1.2,4-1.8,6c-0.5,1.4-0.6,2.7-0.4,4.2c0.1,0.9,0.3,1.7,0.3,2.6c0.3,3.1,1.4,5.9,4,7.9
		c0.8,0.7,1.6,1.5,2.1,2.5c0.8,2-0.3,3.9-2.5,4c-0.8,0-1.5-0.1-2.3-0.3c-1.8-0.5-3.4-1.5-4.7-2.9c-4.8-5-8.5-10.6-9.2-17.7
		c-0.1-0.4-0.1-0.9-0.6-1c-0.1,0.1-0.4,0.2-0.5,0.4c-2.1,4-4.6,7.7-7.5,11.2c-1.4,1.6-2,3.6-1.5,5.8c0.3,1.3,0.5,2.6,0.8,3.8
		c0.5,1.8,1,3.6,1.3,5.4c1,6.9,0.3,13.5-4,19.4c-2.1,2.9-3.7,6.2-5.6,9.2c-1.8,2.8-2.2,5.6-1,8.7c0.3,0.6,0.3,1.2,0.5,1.9
		c0.7,2.4,1.6,4.8,1.5,7.4c0,0.5,0.2,1.1,0.4,1.6c1.6,3.1,3.5,6.1,6.6,8c1.4,0.8,2.7,1.8,4.2,2.7c3.6,2.4,6.5,5.5,8.7,9.2
		c2.5,4.3,4.4,8.8,5.3,13.7c0.8,4.7,2.3,9.3,3.4,14c0.5,2.3,1.3,4.4,1.8,6.6c0.8,3.4,2.8,6.2,4.9,8.9c1.3,1.7,1.3,3.4,0.8,5.2
		c-0.5,1.9-2.4,2.8-4.1,1.9c-3.8-2.1-7.1-4.9-8.1-9.4c-0.7-3.1-1.4-6.1-3.1-8.8c-0.7-1.1-0.8-2.5-1.4-3.6c-1.8-3.5-3.8-6.9-5.1-10.7
		c-0.3-0.8-0.7-1.4-1.4-1.8c-1.6-1-3.2-1.8-4.9-2.4c-0.6,0.8-0.1,1.4,0.1,1.9c1.2,3.3,2,6.7,2.4,10.2c0.6,5,0.9,10.1,1,15.1
		c0.1,6.9,0.1,13.8,0.1,20.7c0,5.2,0.5,10.3,3.1,14.9c1.2,2.1,0.7,4.2,0.5,6.4c0,0.2-0.1,0.4-0.3,0.6c-1.2,1.8-3.6,2.7-5.8,2.2
		c-1.3-0.3-2.5-0.9-3.6-1.6c-1.8-1.2-3.4-2.8-4.7-4.6c-4.3-5.6-6-12.1-5.7-19.1c0.2-4.7-1-9.1-3.1-13.3c-1.2-2.3-2.2-4.7-3-7.3
		c-1.8-5.9-5.3-10.7-9.9-14.8c-0.8-0.7-1.6-1.6-2.9-1.6c-0.1,0.4-0.3,0.8-0.4,1.2c-1.1,5.1-3.3,9.4-6.6,13.4
		c-0.8,0.8-1.2,1.8-1.5,2.9c-0.3,1-0.5,1.9-0.9,2.8c-2.1,6.1-5.1,11.6-10,16c-1.8,1.6-3.3,3.6-4.9,5.3c-0.8,0.8-1.1,1.6-1.1,2.6
		c-0.1,2.3-0.2,4.6-0.3,6.9c-0.6,10-2.6,19.5-8.1,28.1c-0.7,1-1.2,2.1-1.5,3.3c-0.9,3.7-1.8,7.4-2.5,11.2c-0.8,5,0,9.6,3,13.7
		c0.5,0.8,1.1,1.6,1.7,2.4c3.2,4.5,5.3,9.6,6.1,15.1c0.5,3.6,2.5,6.5,3.7,9.8c0.3,1,1.2,1,1.7,0.1c1.8-3,4-5.7,6.2-8.5
		c2.3-2.7,3-5.7,2.7-9.2c-0.1-0.8-0.1-1.5-0.2-2.3c-0.2-2.3-0.5-4.6-0.7-6.8c-0.3-3.7,0.3-7.2,2.9-10.1c1-1.1,1.5-2.4,1.8-3.8
		c1-3.8,2.9-7,5.5-9.9c0.3-0.4,0.7-0.9,1.4-0.7c-0.1,0.4-0.1,0.8-0.2,1.2c-1.1,3.8-1.4,7.7-1.3,11.7c0.1,3.3,1,6.5,1.6,9.7
		c1.2,5.3,2.1,10.7,1.7,16.3c-0.1,0.8,0,1.6,0.2,2.3c0.6,2.3,0.2,4.4-0.7,6.4c-0.8,1.8-1.6,3.6-2.4,5.4c-1.6,3.2-2.4,6.6-1.2,10.1
		c0.2,0.7,0.2,1.5,0.3,2.3s0.5,1.4,1,2c2.1,2.4,4.5,4.4,7.5,5.7c4.5,2,9,3.9,13.7,5.5c4.2,1.4,8.6,2.4,13.1,3.1
		c7.7,1.1,15.3,0.8,22.9-0.1c2.6-0.3,5.2-0.9,7.7-1.8c0.8-0.3,1-0.8,0.8-1.5c-0.1-0.3-0.2-0.6-0.3-1c-2.6-9.1-1.8-17.9,1.6-26.3
		c-2.5,1.8-4.7,3.8-6.4,6.5c-1.2,1.8-2.5,3.6-4.3,4.9c-6.6,4.9-13.8,5.2-21.1,1.8c-6.4-2.9-9.8-8.1-9.8-15.3c0-1.3,0.1-2.6,0.1-4
		c0-0.5-0.1-1.2-0.5-1.5c-1.4-1-2.4-2.6-4.4-2.7c-0.7-0.1-1.2-0.4-1.6-1.1c-1.6-3.4-3-6.8-2.9-10.6c0.1-5.3-0.1-10.7,0.6-16
		c0.6-4.1,1.5-8.1,3-12c1.6-4.3,3.5-8.5,5.3-12.7c0.4-1,1.1-1.8,1.7-2.8c0.3-0.5,0.9-0.6,1.4-0.7c1-0.1,1.6,0.4,2.1,1.2
		c1.1,1.8,2.1,3.6,3.5,5.1c3.3,3.6,7.4,5.8,11.7,7.7c1.5,0.7,2.9,1.4,4.4,2.2c3.4,1.9,7,3.1,10.8,3.5c2.9,0.3,5.9,0.1,8.8,0.1
		c2.4,0,4.7-0.6,7.1-1c2.9-0.4,4.3-2.5,4.9-5.1c0.3-1.2,0.3-2.6,0.1-3.9c-0.1-1.6-1-2.9-2.5-3.7c-0.8-0.4-1.6-0.8-2.4-1
		c-3.1-0.5-4.7-2.3-5.9-5.3c-2.6-6.6-4.3-13.2-4.4-20.3c-0.1-2.9,1.1-4.4,3.4-5.7c0.4-0.2,0.8-0.4,1.2-0.5c2.7-1.1,4.4-3.2,5.5-5.8
		c2.1-4.7,3.1-9.6,2.5-14.7c-0.3-2.9-1.2-5.7-3.1-8.1c-1.1-1.4-2.3-2.7-3.3-4.1c-4.9-6.8-7.7-14.4-9-22.6c-0.1-0.5,0-1.1,0.1-1.6
		c0.6-3.1,0.1-6-1.1-9c-1.3-3-2.4-6.1-3.4-9.2c-1.5-4.6-2.6-9.2-2.4-14.2c0.1-1.6,0.4-3.2,0.5-4.9c0.1-2.7,0.6-5.2,1.2-7.7
		c0.5-2.5,1.3-4.9,2.3-7.1c0.3-0.6,0.7-1.2,0.1-1.8c-0.5-0.5-0.6-0.8-0.2-1.3c1.2-1.4,2.3-2.9,3.6-4.2c2.5-2.5,3-2.5,5.4,0.3
		c1,1.2,1.9,2.4,2.9,3.6c1.5,1.9,4.7,2.2,6.5-0.4c1.2-1.7,2.1-3.6,2.7-5.6c0.5-1.7,0.7-3.5,0.3-5.2c-1-4.2-2.4-8.2-5.6-11.3
		c-0.2-0.2-0.3-0.5-0.3-0.8c0.9-0.7,1.8-0.8,2.8-0.8C694.8,344.7,697,345.2,698.9,346.2z"/>
	<path class="st2" d="M751.2,547.6c-0.9-6.1-3-11.8-5.9-17.3c-1.7-3.4-3.4-6.8-5.1-10.3c-1.2-2.3-1.6-4.7-1.9-7.3
		c-0.8-7.4-1.5-14.8-2.7-22.2c-1.1-7.2-3.4-14-7.2-20.3c-2.7-4.4-5.7-8.6-8.9-12.6c-1-1.3-2.1-2.5-3.2-3.6c-0.1,0.2-0.1,0.4-0.1,0.7
		c-0.1,1.1,0.1,2.1,0.5,3.2c2.5,8.4,5.5,16.6,8.4,24.8c1.2,3.4,1.2,6.6,0.7,10c-0.5,3.2-1.3,6.4-2.1,9.6c-1.2,5.4-2.3,10.9-2.8,16.4
		c-0.5,4.7-0.6,9.4-0.7,14.1c-0.1,5.1-0.3,10.3-0.8,15.4c-0.3,2.9-0.8,5.8-1.8,8.6c-0.4,1-0.8,1.2-1.7,0.7c-2.5-1.6-4.7-3.5-6.8-5.7
		c-0.8-0.8-1.4-1.7-2.5-2.1c-1.6-0.5-2.9-1.5-4.2-2.5c-0.8-0.5-1.4-1-2.3-1.2c-2.1-0.5-4.2-1.2-6.3-1.8c-1.3-0.3-2.7-0.5-4-0.8
		c0.4,0.4,0.8,0.8,1.1,1.2c0.5,0.7,1,1.4,1.8,1.8c1.8,0.8,2.6,2.3,3.1,4c0.5,1.6,0.8,3.1,1.1,4.8c0.8,4.5,0.8,9.2,1.2,13.8
		c0.5,5.7,1.7,11.2,3.6,16.6c1.3,3.8,3.6,7,6.8,9.5c1,0.8,2,1.2,3.2,1.4c5.7,0.7,11.3,1.2,17,1.4c3.8,0.1,7.7-0.1,11.5-0.8
		c0.5-0.1,1-0.1,1.6-0.3c1-0.2,1.7-0.7,2.3-1.6c0.7-1.1,1.9-1.9,2.3-3.1c0.3-0.8,0.3-1.6,0.4-2.4c0-0.6,0.1-1.2,0.1-1.8
		c0.1-0.9,0.4-1.7,0.6-2.5c0.3-1,0.6-1.8,0.9-2.8c4.4-14.6,3.9-12.7,3.4-26.1C752,553.7,751.7,550.6,751.2,547.6z"/>
	<path class="st2" d="M452.4,483.1c5.7-1.6,11.2-3.9,16.2-6.9c0.3-0.1,0.4-0.5,0.7-0.7c-0.2-0.7-0.8-1.1-1.2-1.5
		c-1.6-1.4-3.4-2.5-5.1-3.6c-4-2.4-8.1-4.7-12.1-7.3c-8.6-5.3-8.7-5.5-14.7-13.7c-4.5-6.1-6.8-12.9-7-20.5c-0.1-5.1,0.3-10.1,1.4-15
		c0.8-3.6,1.8-7,3-10.4c-1.2-0.5-2.4-1-3.3-2c-1-1-1.8-2.2-2.7-3.3c-0.7-0.9-1-1.9-1.4-2.9c-1-3.6-0.5-7.1,0.6-10.6
		c0.8-2.3,2-4.4,4-5.8c0.5-0.4,1-0.8,1.2-1.4c-0.9-0.8-1.4-1.8-1.6-3c-0.3-2.2-0.5-4.3-0.7-6.5c-0.2-6.2,2.8-10.9,7.2-14.8
		c0.5-0.5,1.2-0.8,1.8-1c0.3-1,0.5-2.1,0.5-3.1c0-1.4,0.2-2.8,0.5-4.2c0.4-1.6,0.3-3.2-0.3-4.9c-0.5-1.5-1.1-3.1-1.4-4.7
		c-0.1,0.3-0.3,0.7-0.4,1c-0.5,1.1-1,2.2-2.3,3.1c-1.8-2.1-3.8-3.8-5.3-6c-2.5-3.4-6-4.9-10.3-4.9c-1.8,0-3.7,0.2-5.4-0.8
		c-0.6-0.3-1.3-0.1-1.9,0.1c-7.1,1.8-13.3-0.5-19.3-4.2c-0.5-0.3-0.9-0.7-1.2-1.1c-0.1-0.1-0.2-0.2-0.3-0.3
		c-0.5-0.5-1.2-1.1-0.7-1.8c0.1-0.1,0.3-0.2,0.4-0.2c-2.8-0.5-7.5-0.1-8.1-0.4c-2.5-1.1-4.7-2.7-6.6-4.7c-1.8-1.8-3.4-3.8-4.9-5.7
		c-2.8-3.9-4.6-8.2-4.9-13c-0.1-1.3-0.3-2.6-0.6-3.9c-0.3-1.6-1.3-3-2.5-4.1c-0.7-0.6-1.4-0.9-2.4-1c-2.5-0.1-4.2,0.9-5.1,3.2
		c-1,2.5-1.8,4.9-1.8,7.6c0.1,2.6-0.1,5.3,0.1,7.9c0.3,3.5,0.8,7,2.3,10.2c1.9,4.3,4.1,8.5,6.8,12.3c3.2,4.6,7.4,8.1,12.7,9.9
		c1.6,0.5,2.9,1.3,4.1,2.6c1.7,1.9,3.7,3.4,6,4.5c1.4,0.7,2.3,1.5,2.9,2.9c0.4,1.1,1.2,1.8,2.3,2.1c0.5,0.1,1,0.4,1.5,0.7
		c0.8,0.5,1.4,0.1,2-0.5c0.5-0.6,0.9-1.3,1.4-1.8c1.7-2,3.8-3.5,6.4-3.4c2.1,0.1,4.1,0,6.3,0.4c-0.2,0.6-0.3,1.2-0.5,1.6
		c-0.5,1-1.4,1.6-2.2,2.4c-1.8,1.6-3.4,3.4-4.3,5.7c-1.8,5-2.7,10.1-2,15.4c0.5,4.7,0.4,9.4,0.3,14.1c0,0.5-0.2,1.1-0.3,1.6
		c-1,4.3-3.1,8.2-5.1,12.1c1.2-0.5,1.7-1.4,2.3-2.5c1-1.7,2.5-3.1,4.2-4c0.8-0.4,1.5-0.3,2.1,0.2c0.8,0.5,1,1.4,0.6,2.3
		c-0.3,0.8-0.8,1.6-1.2,2.3c-2.5,4.2-3.8,8.8-4.5,13.6c-0.3,1.6-0.5,3.2-0.3,4.9c0.5,5.2,1.2,10.4,2.4,15.5
		c1.9,8.1,5.6,15.6,10.2,22.6c1.8,2.8,4.2,5,7.5,6.2c3.2,1.2,5.4,3.6,6.7,6.8c1.5,3.7,3.7,6.9,6,10.1c1.4,2,3.1,3.8,5.4,4.7
		C441.7,483.9,446.9,484.5,452.4,483.1z"/>
	<path class="st2" d="M679.9,230.3c-0.1,1.6,0.3,3,1.1,4.4c1.2,2.2,2.7,4.2,4.3,6.2c3.4,4,7.6,7.3,11.4,10.9
		c0.2,0.2,0.5,0.5,0.8,0.5c1.6,0.1,2.9,1,4.4,1.3c3.1,0.6,5.6,2.3,7.9,4.5c2.4,2.5,4.4,5.2,5.9,8.2c1.3,2.8,3.4,4.8,5.5,6.8
		c1.1,1,2.3,1.6,3.8,1.6c1.4-0.1,2.9,0.1,4.2,0.3c5.7,1,10,4.2,13.7,8.4c0.8,1,1.7,1.9,2.5,2.9c-0.2-0.8-0.4-1.6-0.6-2.5
		c-1.1-4-3-7.5-5.3-10.9c-1.8-2.7-4.2-5.1-6.8-7c-1.6-1.2-2.9-2.5-3.8-4.4c-0.8-1.9-2.2-3.6-3.6-5c-4.1-4.1-8.6-7.7-13.4-11
		c-2.3-1.6-4.8-2.7-7.2-3.9c-3.5-1.8-6.8-4-9.4-7c-1.3-1.5-2.5-3.1-3.1-5c-0.3-0.1-0.5-0.3-0.8-0.5c-3-1.8-5.5-4.2-8-6.8
		c-0.5-0.5-1-1.1-1.6-1.6c-0.3-0.3-0.9-0.2-1,0.3C680.1,224.2,679.9,227.2,679.9,230.3z"/>
	<path class="st2" d="M839.1,516.3c-0.3-1.4-0.8-2.7-1.6-4c-1-1.8-1.8-3.7-2.5-5.7c-0.6-1.8-1.4-3.4-2.5-5c-1.3-1.9-2.8-3.4-5.4-2.9
		c-0.5,0.1-1.1,0-1.6-0.1c-3.8-0.3-7-1.9-9.2-5c-3.8-5.1-6.6-10.5-7.5-16.9c-0.1-0.6-0.1-1.4-0.3-1.9c-1.9-4-2.1-8.2-2.3-12.5
		c-0.1-1.8-0.1-3.7-0.3-5.5c-0.5-4.4-0.1-3.6-3.6-5.5c-2.3-1.2-4-3.1-4.8-5.6c-0.5-1.6-1.2-3-1.8-4.6c-0.5-1.6-1.3-3-2.1-4.4
		c-0.1,0.2-0.2,0.5-0.2,0.7c0,0.4,0.1,0.9,0.3,1.2c1.2,3.4,2.1,6.9,2.5,10.5c0.5,4.2,0.5,8.3,0,12.5c-0.4,3.2-1,6.5-1,9.8
		c0,3.6,0.1,7.2,0.5,10.8c0.4,3.8,1,7.6,2,11.3c1.7,6.3,3.6,12.6,5.4,18.9c0.4,1.5,0.7,2.9,0.8,4.5c0.1,1.4-0.3,2.5-1.4,3.5
		c-1.1,1-2,2-3,3c-3.6,3.4-6.4,7.4-8.8,11.8c-0.3,0.5-0.5,1-0.8,1.4c-1,1.7-2.7,2.5-4.5,3c-1.4,0.4-2.9,1.7-4,1
		c-1.7-1.2-3.7-1.8-5.7-2.5l0,0c-0.2-0.1-0.4-0.1-0.6-0.2c-0.1,0-0.1-0.1-0.1-0.1c-0.1,0-0.1-0.1-0.1-0.1l0,0
		c-1.6-0.7-3.1-1.4-4.4-2.7c-3.4-3.3-6.8-6.5-10.3-9.7c-1-1-2.1-1.9-3.2-2.8c-2.1-1.6-4.4-2.3-7-2.6c0.1,1.4,0.9,2.2,1.4,3.1
		c1.7,3,3.6,6,5.3,9.1c3.4,6.2,6.2,12.5,7.7,19.4c0.2,0.8,0.4,1.7,1,2.4c1.7,2.3,3.1,4.8,4.7,7.1c2.1,2.9,4,6,4.1,9.9
		c0,0.9,0.5,1.4,1.3,1.7c1.9,0.8,3.8,1.6,5.7,2.4c2,0.8,4,0.9,6.2,0.6c4.2-0.6,8-2.1,11.4-4.7c3-2.4,5.9-4.9,8.5-7.7
		c2.4-2.6,5.3-4.2,8.8-4.9c0.6-0.1,1.3-0.3,1.9-0.5c2.2-0.4,4.2-1.2,6.1-2.4c1.5-1,2.9-1.9,4.4-2.9c2.3-1.5,4.1-3.6,5.7-5.9
		c3.3-5,5.6-10.4,7.1-16.1c0.3-1.1,0.3-2.1,0.3-3.2C841.1,523.5,839.9,520,839.1,516.3z"/>
	<path class="st2" d="M729.6,614.9c-1.6,0.1-3.3,0-4.9,0.1c-4,0.1-8.1-0.3-12-1.3c-1.7-0.4-3.4-0.8-5.1-1.2
		c-0.9-0.2-1.2,0.2-0.9,1.1c1.8,5.1,1.8,10.3,0.9,15.5c-1,5.1-2.5,9.9-4.1,14.8c-0.1,0.5-0.3,1-0.5,1.4l1.3-0.8
		c5.5-3.5,11.3-6.5,17.3-9c0.3-0.1,0.8-0.3,1.1-0.5l1.2-0.4l2.3-0.8c0.4-0.1,0.8-0.3,1.2-0.4l1.2-0.3l2.3-0.8l1.2-0.3
		c0.4-0.1,0.8-0.2,1.2-0.3l2.3-0.6l1.2-0.3l0.6-0.1l0.6-0.1l1.6-0.3c-1.5-4.6-3.5-9-6.2-13.1C732.1,615.6,731.2,614.8,729.6,614.9z"
		/>
	<path class="st2" d="M410.1,582.9c-0.1-2.1,0-4.2,0.6-6.2c1-3.3,1.4-6.6,1.8-10c0.8-6.4,0.4-12.7-1.9-18.7
		c-1.4-3.6-2.9-7.1-4.2-10.7c-0.5-1.3-1.2-2.3-2.3-3.1c-1.7-1.4-3.4-2.7-5.1-4.1c-4.7-3.8-8.7-8.3-12.1-13.3
		c-6.2-9.3-7.7-19.6-6.6-30.4c0.4-4.2,1.2-8.5,2.1-12.7c0.1-0.5,0.3-1.1-0.2-1.9c-0.6,1.4-1.3,2.6-1.6,3.8c-1,3.6-2.9,6.8-4.7,10.1
		c-0.8,1.4-1.4,2.7-2.2,4c-2.7,4.8-3.8,9.9-3.6,15.5c0.2,4,0.6,7.9,1.1,11.8c0.4,3.5,0.3,7-0.8,10.4c-0.7,2.2-1,4.5-1,6.8
		c-0.2,4.9,0.9,9.6,3.6,13.7c1.7,2.5,3.1,5.3,4.2,8.1c0.3,0.9,0.8,1.8,1.2,2.7c2.5,4.9,1.3,12.3-2.4,16.2c-0.8,0.8-1.6,1.4-2.7,1.7
		c-1.3,0.3-2.7-0.4-3.1-1.7c-0.2-0.6-0.3-1.3-0.2-1.9c0.4-1.6-0.3-2.9-1-4.3c-1.2-2.1-2.7-4-4.6-5.5c-1.9-1.6-3.4-3.5-3.9-6
		c-0.3-1.5-0.6-3-0.7-4.5c-0.2-3.5-0.5-7-0.3-10.5c0.1-3.5-0.5-6.7-1.8-9.9c-0.3-0.9-0.7-1.8-1-2.8c-1.4-4.9-2.1-9.9-1-14.9
		c0.3-1.6,0.4-3.2,0.1-4.9c-0.8-4.9-0.3-9.8,1-14.6c0.5-1.7,0.8-3.4,1-5.1c0.1-0.8,0.5-1.6,0-2.2c-0.8-0.8-1.2,0.5-1.8,0.7
		c-0.5,0.1-1,0.4-1.6,0.5c-1.7,0.2-3.1-0.7-3.4-2.4c-0.1-0.8-0.1-1.5-0.1-2.3c0.2-2.8,1.1-5.3,2.4-7.8c1.8-3.6,4.1-7,6.8-10
		c0.8-0.8,1.5-1.6,2.3-2.4c1.2-1.2,2.2-2.7,2.7-4.4c0.4-1.6,1.1-3.1,1.9-4.5c1.2-1.8,1.6-3.8,1.7-5.9c0.1-1,0.1-2,0.3-2.9
		c0.3-1.6,0.1-3-0.5-4.4c-1.4-3.9-2.3-8-2.5-12.2c-0.1-2.1-0.1-4.2-0.2-6.2c0-0.8-0.1-1.5-0.7-2.1c-1.7-1.8-3.6-3.5-6.1-4.2
		c-1.7-0.5-3.4-0.8-5.1-1.1c-1.6-0.3-2.9,0.1-4,1.5c-3.5,4-6.2,8.4-7.8,13.5c-0.7,2.2-1.3,4.4-1.9,6.6c-1.2,4.3-3.9,7.3-7.9,9.1
		c-1.1,0.5-2.2,1-3.3,1.4c-9.9,4.7-16.1,12.2-17.9,23.1c-0.3,2.1-0.8,4.1-1.2,6.1c-0.8,3.6-1.4,7.1-1.3,10.7c0,1,0.1,1.9-0.3,2.8
		c-0.6,0-0.8-0.5-0.8-0.9c-0.5-1.8-1-3.6-1.4-5.4c-0.4-1.5-0.8-2.9-2.3-3.7c-1-0.5-1.4-1.6-2-2.5c-1-1.7-1.6-3.6-2-5.5
		c-2.1-9.9-0.6-19.2,4.9-27.7c2.5-4,5.5-7.7,9.2-10.6c2.1-1.7,3.6-3.8,4.7-6.2c1-2.3,2.1-4.6,3.1-6.9c2.2-4.8,5.2-9.1,8.8-13
		c2.6-2.8,5.5-5.4,8.4-7.8c4.2-3.4,8.7-5.8,14-7c0.8-0.1,1.5-0.4,2.1-0.8c3.6-2.2,6.3-5,7.7-9c1.6-4.7,2.9-9.4,3.5-14.3
		c0.1-0.6,0.2-1.4,0.1-2c-0.8-2.7-1.8-5.2-3.4-7.9c-0.5,1.1-0.9,1.8-1.2,2.7c-1.6,3.5-4.2,5.8-7.9,6.8c-2.4,0.7-4.9,1.3-7.3,1.8
		c-1.2,0.3-2.6-0.1-3.6,0.5s-1.7,1.9-2.6,2.9c-0.6,0.6-1.3,1.2-2,1.6c-2.3,1.4-3.6,3.4-4.7,5.7c-0.4,0.9-0.8,1.8-1.4,2.6
		c-0.9,1.3-2.2,1.7-3.4,1.2c-1.4-0.5-2.2-1.8-2-3.4c0.1-1,0.5-1.9,0.8-2.9c1-2.9,2.1-5.7,2.9-8.7c1-3.6,3.3-6.4,6.6-8.2
		c1.5-0.8,3.1-1.6,4.7-2.3c1.4-0.7,2.9-1.3,3.8-2.5c2.5-3,5.1-6,6.7-9.6c0.6-1.4,0.3-2.1-0.5-3.1c-2.9-3.2-5.5-6.8-7.5-10.7
		c-1.5-2.9-2.9-5.9-4.2-8.9c-0.5-1.2-1.2-2.3-2-3.4c-0.8-1.2-0.4-2.7-0.9-4.1c-1.1-2.9-1.9-6-2.9-9.1c-0.2-0.5-0.1-1.3-1.2-1.4
		c-0.3,0.2-0.7,0.5-1,0.8c-3.4,3.7-5.9,7.9-7,12.8c-0.5,2.3-1,4.7-1.6,7c-1.1,4.2-3.7,7.4-6.9,10.1c-0.8,0.8-1.8,1.3-2.9,1.4
		c-2.1,0.3-3.8-1.3-3.3-3.3c0.1-0.8,0.5-1.4,0.8-2.1c0.8-1.6,1-3.4,1.2-5.1c0-0.3-0.1-0.7-0.3-0.9c-0.3-0.3-0.6,0-0.8,0.2
		c-2.3,2.2-4.9,4-7.5,5.8c-0.8,0.5-1.3,1.2-1.8,1.9c-2.6,3.7-5.8,6.8-9.4,9.6c-0.6,0.5-1.2,0.9-1.8,1.4c-1.2,0.9-1.9,2.1-1.9,3.6
		c0,1.1-0.2,2.2-0.4,3.2c-0.6,2.9-0.8,5.8-0.1,8.8c0.1,0.8,0.2,1.5,0.1,2.3c-0.1,2-1.4,3.6-3.3,4c-1.8,0.5-3.2-0.2-4.4-2
		c-0.3-0.5-0.4-1.2-1.2-1.6c-2.7,2.2-4.7,4.9-6,8c-1.4,3.4-1.6,6.8-0.1,10.2c0.7,1.5,1.2,3.1,1.5,4.7c0.4,1.7,0.3,3.5-0.3,5.1
		c-0.8,1.8-2.2,2.9-3.8,3.1c1.4,0.3,2.7-0.2,4-1.2c0.4-0.3,0.9-0.7,1.2-1.2c0.8-1.1,1.8-1.5,3-1.8c0.6-0.1,1.2-0.3,1.9-0.5
		c2.5-0.8,4.4-2.3,5.9-4.4c1.2-1.8,2-3.9,2.6-6c0.3-1.2,0.7-2.5,1.1-3.8c0.3-0.8,0.7-1.7,1.5-2.1c3.1-1.6,6.2-3.4,9.4-4.4
		c4-1.4,8-0.3,11.8,1.4c2.5,1.1,4.2,3,5.7,5.2c0.9,1.2,1.1,2.6,0.3,4c-1.2,2.5-1.8,5.1-2.5,7.8c-0.3,1.5-0.8,2.9-1.3,4.4
		c-1.4,4-3.7,7.4-6.1,10.8c-0.8,1.2-2,2.2-2.3,3.6c-0.5,2.1-1.6,3.8-2.7,5.5c-1.6,2.6-3,5.3-4.2,8.1c-2.3,5.1-4.7,10.1-6.9,15.2
		c-1.8,4.1-3.6,8.2-4.9,12.5c-2.2,7.1-3.6,14.4-3.4,21.9c0.1,3.3,0.3,6.6,0.8,9.8c0.3,2.7,0.9,5.4,1.6,8c1.1,4.2,2.9,8.2,4.7,12.2
		c1.5,3.2,3.8,5.9,6.4,8.2c2.1,1.8,4.5,3,7.5,2.2c0.3-0.1,0.6-0.1,1,0.3c-0.7,3.5-1.6,7-2,10.7c-0.4,4.6-1.4,9.1-1.1,13.7
		c0.1,1.2,0.1,2.4-0.6,3.5c-0.5,0.9-0.5,1.8-0.3,2.9c0.6,3.4,1,6.8,0.3,10.4c-1.3,5.8-3,11.4-6.2,16.5s-7.3,9.3-11.4,13.5
		c-3.7,3.7-8.1,6.2-12.9,8.3c-1.4,0.7-3,0.9-4.5,0.4c-5.1-1.6-10.1-3.4-15.2-5.3c-0.7-0.3-1.4-0.6-1.9-1c1.7,2.7,3.6,5.2,5.6,7.7
		c2.1,2.5,4.4,4.5,7.3,6c4,2.1,8.1,3.8,12.6,4.6c2.7,0.5,5.3,1,8,1.7c2.1,0.5,4.1,0.6,6.2,0.3c3.2-0.4,6.2-1.4,9.4-1.6
		c0.3,0,0.7-0.1,1-0.1c0.4,0,0.8-0.1,1.2-0.1c2.5-0.2,4.9-1.5,7-2.8c2.1-1.2,3.1-3.6,4.4-5.6c1.5-2.3,2.9-4.4,4.4-6.7
		c1.2-1.7,2.3-3.5,2.8-5.5c0.3-1.4,0.2-2.8,0.3-4.2c0.1-1.2,0.5-2.5,0.6-3.7c0.5-3.6,0.4-6.9-1.8-10.1c-1.8-2.6-2.8-5.7-3.5-8.8
		c-1.3-6.2,1-10.9,5.7-14.8c0.5-0.3,1-0.5,1.5-0.1c0.5,0.3,0.6,1,0.5,1.5c-0.2,0.8-0.5,1.4-0.8,2.2c-0.3,0.7-0.6,1.4-0.5,2.2
		c0.4,2.9,0.8,5.8,2.1,8.6c0.4,1,1,1.6,2,2.1c0.9,0.4,1.7,1,2.5,1.5c2.9,2.1,4.4,5.1,5,8.6c0.5,3.4,0.8,6.9,2.6,10.1
		c0.6,1.1,0.8,2.5,1,3.8c0.6,4,0.2,7.9-0.6,11.7c-0.2,1-0.9,2-0.5,3.3c2.6,0.3,5.1,0.7,7.7,0.9c3.1,0.2,6-0.4,8.5-1.9
		c0.5-0.8,1-1.2,1.8-1.2c0,0,0,0,0.1,0c1.7-1.4,3.4-2.8,5.1-4.2c1.4-1.1,2.7-2.3,4-3.4c1.9-1.4,4-2.1,6.4-2c2,0.1,3.9,0.5,5.7,1.1
		c5.3,1.8,10.7,2.5,16.1,2.6c5.5,0.1,10.7-0.8,15.5-3.3C409.4,585.6,410.2,584.5,410.1,582.9z"/>
	<path class="st2" d="M577,172.5c-0.4-0.1-0.8-0.2-1.3-0.3c-0.6-0.1-1,0.1-1.4,0.5c-0.1,0.1-0.1,0.2-0.2,0.3
		c-2.2,3.5-5.3,5.1-9.4,5.9c-4.3,0.9-8.2,0.2-12.2-1.1c-2.8-1-4.8-2.9-6.1-5.6c-0.1-0.1-0.1-0.3-0.2-0.4c-0.3-0.1-0.8-0.2-1.2-0.2
		c-2.9,0-4.4,1.2-5.2,4c-0.1,0.4-0.1,0.9-0.3,1.3c-0.8,4-0.8,8,0,12c1.2,6,3.3,11.6,7.1,16.4c3.1,4,7.2,6.3,12.4,6.2
		c1.7-0.1,3.5,0.1,5.2-0.5c1-0.3,1.2-0.1,1.6,1c0.1,0.3,0.2,0.7,0.3,1c2.3-0.6,4-0.1,5.5,2c1.1,1.4,2.8,2.1,4.4,2.6
		c4.3,1.5,8.7,2.9,13.3,3.4c4.8,0.6,9.4-0.4,13.8-2.3c4-1.7,7.9-3.8,11.5-6.3c0.7-0.5,1.5-1,2.3-1.2c3-1.1,6.1,0.5,6.8,3.7
		c0.4,1.8,0.2,3.5-0.4,5.1c-0.7,1.8-1.8,3.6-3.1,5c-2,2.3-4,4.6-6.1,6.8c-1.3,1.4-2.7,2.9-3.7,4.6c-0.5,1-0.5,1.4,0.2,2
		c0.4,0.3,0.9,0.6,1.3,1c0.8,0.7,0.8,1.6-0.1,2.1c-2.1,1.2-4.3,2.1-6.8,2.1c-2.1,0-3.8-0.9-5.2-2.5c-0.6-0.8-1.4-1.5-1.6-2.4
		c-0.5-2.7-2.3-2.6-4.4-2.5c-3.4,0.3-6.8,0.3-10.3-0.2c0.1,0.3,0.3,0.5,0.6,0.6c0.9,0.3,1.6,0.8,1.9,1.7c0.9,2.5,2.7,4.2,4.2,6.2
		c3.6,4.7,8.1,7.9,14.2,8.6c0.9,0.1,1.7,0.3,2.5,0.6c3.1,0.9,6.4,1.3,9.7,1.2c1.3,0,2.7-0.1,3.9,0.2c7.2,2.1,13.6,5.3,17.5,12.2
		c1.6,2.7,2.6,5.5,2.8,8.6c0.3,4.4,0.3,8.8-0.6,13.1c-1.5,6.6-3.9,12.7-9,17.5c-0.8,0.8-1.4,1.6-2.1,2.5c-0.8,1.4-0.5,2.4,0.3,3.2
		c0.3-1.2,1.2-2.4,2.6-3.2c1.2-0.6,2.3-1.3,3.4-1.9c1.8-1,3.5-2.3,4.9-3.9c5.3-6.6,5-5.2,6.3-13.6c0.5-3,0.5-6.1,0.8-9.2
		c0.5-5.8-0.1-11.6-1.3-17.2c-1.2-5.9-3.9-10.9-8.4-14.8c-0.1-0.1-0.1-0.1-0.2-0.2c-0.8-1-1.8-1.6-3.1-1.5c-1,0.1-1.9-0.3-2.8-0.8
		c-1.7-1-2.1-2.9-0.8-4.4c0.7-0.8,1.5-1.3,2.4-1.6s1.8-0.7,2.8-1c1.2-0.3,2.3-0.9,3.1-1.8c2.9-2.9,5.3-6.1,6.8-9.9
		c1-2.5,1.3-5.1,0.1-7.7c-0.5-1.2-0.8-2.5-0.5-3.8c0.8-3.6,0.5-7.1-0.3-10.7c-0.3-1.4-0.8-2.5-1.8-3.4c-0.7-0.5-1.4-1.1-2-1.7
		c-0.7-0.7-1.4-1-2.3-1c-1.4-0.1-2.9-0.1-4.2-0.2c-2.1-0.1-4.1-0.5-6-1.6c-0.4-0.3-1-0.5-0.8-1.4c2.9,0.8,5.8,0.5,8.7-0.3
		c2.9-1,5.1-2.5,5.7-5.7c0.3-1.8,1.4-3.2,2.9-4.1c2.1-1.2,3.8-2.9,5.5-4.6c0.6-0.6,1.2-1.3,1.8-1.8c1.7-1.5,3.7-1.4,5.2,0.5
		c1.9,2.3,2.4,4.9,1.2,7.7c-0.7,1.5-1.2,3-1.7,4.6c-0.3,1-0.8,2.1-1.4,2.9c-1.2,1.7-1.1,3.4-0.5,5.3c1,3.2,3.2,5.1,6.2,6.2
		c3.4,1.3,7.2,0.6,9.6-2c2.9-3.1,5.1-6.6,6-10.6c-0.3-0.1-0.8-0.3-1.2-0.3c-1.1-0.2-2.2-0.3-3.2-0.7c-2.5-0.8-3.5-2.5-3.1-5.1
		c0.1-0.9,0.4-1.7,0.5-2.5c0.3-3.8,1.6-7.1,4.5-9.9c2.7-2.5,4.3-5.7,5-9.4c0.5-3-0.1-5.9-0.8-8.8c-1-3.9-2.9-7-6.6-8.9
		c-1.4-0.7-2-1.8-2.3-3.4c-0.8-4.9-3.6-8.6-7.3-11.7c-2.5-2-6.2-2.2-8.1-0.1c-1.6,1.6-3.5,2.8-5.3,4c0,0.1,0,0.2,0,0.3
		c0,4.2-0.5,8.3-2.1,12.2c-2.6,6.8-10.1,10.6-15.7,10.5c-2.1,0.1-4.1-0.3-6.1-1.2c-0.2-0.1-0.4-0.2-0.6-0.3l0,0
		c-1.6,0.1-3.3,0.4-4.9,0.5c-4.7,0.3-8.9-0.8-12.6-3.8c-1.4-1.1-2.7-2.3-4-3.4c-0.8-0.5-1.6-1-2.4-1.1c-0.4,5.9-2.2,11.4-6.5,15.7
		C590.3,172.3,584.1,173.6,577,172.5z"/>
	<path class="st2" d="M267.8,313.4c2.6-0.8,4.7-2.3,6.4-4.3c0.8-0.8,1.4-1.7,2.2-2.5c1.1-1,1.9-0.8,2.5,0.6c0.3,0.8,0.4,1.7,0.1,2.5
		c-0.6,1.9-1.4,3.7-2.4,5.4c-2.5,4.5-4.4,9.3-5.4,14.4c-0.2,1.1-0.6,2.1-1,3.1c-0.4,1.1-0.8,2.3-1.2,3.4c2.2-2.1,4.6-3.8,7.5-4.5
		c1.5-0.4,2.4-1.3,2.9-2.8c1.5-4.3,4.3-7.6,8.1-10c1.1-0.7,2.3-1.4,3.4-2.1c1.7-1.2,3.4-2.3,5.1-3.6c5.9-4.4,10.3-10,14.5-15.9
		c2.1-2.9,3.8-6.2,5.1-9.5c3.1-7.3,4.7-15,5.5-22.9c0.1-0.8,0.2-1.6,0-2.3c-0.5-1.9-0.9-3.8-1.2-5.8c-0.2-1.4-1.1-1.8-2.4-1.4
		c-6.4,1.8-12.4,4.3-17.7,8.3c-3.4,2.5-6.2,5.5-8.7,8.8c-3.1,4.2-5.1,8.9-4.8,14.3c0.1,2.8-1,4.9-3.6,6c-0.4,0.2-0.8,0.4-1.2,0.6
		c-3.1,1.3-5.6,3.8-8.7,5.3c-0.5,0.3-1,0.8-1.4,1.4c-1.8,2.1-2.9,4.6-3.2,7.4c-0.1,0.5-0.1,1.1-0.1,1.6c-0.3,1.4-1.3,2.4-2.6,2.5
		c-1.4,0.1-2.5-0.4-3.2-1.7c-0.2-0.4-0.3-0.8-0.5-1.2c-1.1-4.7-1.5-9.3-0.3-14c1.8-7.3,5.5-13.3,11.2-18.1c1.6-1.4,3.3-2.5,5.1-3.6
		c1.2-0.8,2-1.6,2.5-2.9c0.8-1.7,1.8-3.3,2.7-4.9c0.5-1,1.1-1.9,1.5-2.9c1.8-4.3,4.5-8,7.9-11.2c2.6-2.3,5.2-4.7,7.5-7.4
		c1-1.2,2.2-2.1,3.4-3.1c0.9-0.8,1.9-1.3,3.1-1.6c2.2-0.6,4.3-1.4,6.4-2.3c1.1-0.5,2-1.3,2.2-2.7c0.2-1.2,0-2.3-0.8-3.3
		c-1-1.1-1.8-2.2-3.1-2.8c-1.3-0.5-2.1-1.5-2.9-2.6c-1.4-1.8-2.8-3.6-4.2-5.5c-0.7-0.8-1.4-1.7-2.6-2.1c-2.8,2.5-6.4,3-10.1,3.1
		c-5.1,0.2-9.9,1.8-14.6,3.4c-0.3,0.1-0.6,0.3-0.9,0.5c-4.1,2.5-8,5.3-11.4,8.7c0.6,1.4,1.8,2.4,3.4,2.8c1.1,0.3,1.7,0.8,2.3,1.7
		c1,1.7,1.9,3.4,2.8,5.2c0.7,1.5,1.2,3.1,1.2,4.7c0.1,2.9,0.2,5.9-0.5,8.8c-0.3,1.2-0.2,2.6-0.2,3.9c0,0.8,0.1,1.5,0.1,2.3
		c0,1.8-0.6,3.1-2.3,4c-1.2,0.6-2.4,1.5-3.5,2.5c-5.5,4.8-9.1,10.8-10.8,17.9c-0.9,3.8-1.4,7.7-1.7,11.6c-0.3,4,0.3,7.9,2.8,11.2
		C260.3,313.3,263.9,314.6,267.8,313.4z"/>
	<path class="st2" d="M322.3,186.2c1.7,4.9,4.2,9.3,8.3,12.7c2,1.7,3.9,3.5,6.2,4.8c1.1,0.6,1.5,1.4,1.4,2.7c-0.1,1.8,0.1,3.5,1,5.1
		c1.6,2.7,3.7,4.9,6.7,6c1.8,0.6,3.7,1.4,5.4,2.3c0.9,0.4,1.8,0.8,2.7,1c0.4-0.5,0.9-1,1.5-1.4c0.5-0.3,1.3-0.8,1.8-0.4
		c0.9,0.8,1.8,0.5,2.8,0.5c1.2-0.1,2.1,0.4,2.9,1.2c1.5,1.4,2.9,2.9,4,4.7c1.4,2.4,3.6,3.1,6.2,2.7c2.5-0.4,4.9-1.2,7.2-2.3
		c0.2-0.1,0.4-0.2,0.6-0.3c6-3.4,6.3-2.9,9.2-9.6c0.2-0.5,0.5-1,0.7-1.5c0.3-0.8,0.9-1.2,1.8-1c2.2,0.7,4.1,0.3,5.8-1.2
		c1.9-1.7,2.9-3.8,2.9-6.4c0.1-2-0.8-3.6-2.1-5c-2.9-3.1-5-6.9-7-10.6c-1.2-2.2-1.5-4.2-1.1-6.2c-0.1-1-0.6-1.4-1.5-1.4
		c-0.8,0-1.4-0.5-2-1.1c-0.8-0.7-1.6-1.1-2.6-1.3c-3.6-0.8-6.4-3.1-9.2-5.4c-1-0.8-1.5-1.8-1.8-3c-0.3-1.4-0.5-2.9-0.5-4.4
		c-0.8,0.2-1.6,0.3-2.5,0.4c-1.4,0.1-2.9,0-4.2-0.2c-1.2-0.2-2.2-0.1-3.1,0.4c-2.9,1.6-5.5,1-7.9-0.8c-0.9-0.6-1.8-1.2-2.7-1.9
		c-1.2-0.8-2.3-1.8-2.2-3.4c0-0.8-0.5-1.4-1-2c-1.8-1.8-2.6-4-2.9-6.4c-0.2-1.6-0.7-3.2-0.5-4.3c0.3-3.1,0.5-5.6,1.2-8
		c0.4-1.4,1-2.7,2.4-3.4c1-0.5,1.4-1.3,1.6-2.3c0.3-1,0.6-1.9,1-2.8c-0.3-0.2-0.8-0.3-1.2-0.4c-1.6-0.3-3.1,0-4.4,1
		c-1.6,1.2-3.3,2.2-4.6,3.7c-1.2,1.4-2.8,2.5-4.2,3.6c-2.6,1.9-5.3,3.9-7.8,6c-3.2,2.7-5.3,6.3-7,10.1c-4.2,9.4-4.9,18.9-1.6,28.7
		C322,185.4,322.2,185.8,322.3,186.2z"/>
	<path class="st2" d="M507.1,165.7c4.2,4,9.6,5.4,15.3,5.7c1.8,0.1,3.5-0.3,5.2-0.5c5.6-0.8,10-3.6,13.4-8c1.4-1.8,2.8-3.6,4.1-5.5
		c0.9-1.3,2-1.9,3.5-2.2c2.1-0.4,4-0.9,6.1-1.4c7.8-1.8,13.9-6.2,18.3-12.8c1-1.4,2.1-2.4,3.6-3.1c2.2-1,4.4-2.1,6.3-3.5
		c7.6-5.8,13.1-13.1,15.7-22.4c1.4-5,2.2-10.1,0.8-15.2c-1.2-4.5-3.6-8.2-7.3-10.9c-1.4-1-3.1-2-4.9-1.7c-2.7,0.4-4.3-0.8-5.5-3
		c-0.1-0.2-0.3-0.3-0.4-0.5c-4.3-5.9-10.3-8.7-17.4-8.8c-2.9-0.1-5.9,0.4-8.8,0.8c-2.5,0.3-4.9,0.8-7.3,1.7c-1.2,0.5-2.4,1-3.3,2.1
		c-1.7,1.9-1.7,4,0.1,5.8c0.6,0.6,1.3,1.1,2.2,1.4c1.2,0.3,2.3,0.6,3.6,0.5c2.5-0.1,4.4,1,6.2,2.5c3.3,2.7,4.4,6.4,4.8,10.4
		c0.2,2.1,0,4.2-1.2,6c-0.2,0.3-0.4,0.8-0.5,1.2c-1.3,2.6-0.7,4.9,1.2,7c0.3,0.3,0.6,0.6,0.9,1c2.1,2.5,3,5.3,2.1,8.6
		c-0.2,0.8-0.4,1.5-0.5,2.3c-0.7,4.2-3.2,7.4-6.4,10c-2.7,2.1-5.7,3.5-9.2,3.8c-3.2,0.3-6.4,1.2-9.6,2c-2.3,0.6-4.1,2-5.5,3.9
		c-0.8,1.2-1.6,2.3-2.5,3.4c-1,1.2-2.2,2.5-3.8,2.9c-1.5,0.3-2.9,0.7-4.5,0.8c-3.8,0.2-7.6-0.4-11.4-1.2c-1.2-0.3-2-0.8-2.6-1.8
		c-0.5-0.8-1.1-1.4-1.6-2.1c-0.8-0.9-1.6-1-2.7-0.6c-2.3,0.8-3.6,2.5-3.7,5.2C499.3,156,502.5,161.3,507.1,165.7z"/>
	<path class="st2" d="M457,208.4c-0.3,4,1.1,7.5,3.1,10.9c0.5,1,1.2,1.8,1.6,2.9c2.3,5.3,6.4,8.8,11.3,11.4c2.9,1.6,6.2,2.1,9.5,1.2
		c2.4-0.6,4.5-1.6,6.5-2.9c0.9-0.6,1.8-1.2,3-1.2c3.9-0.1,7.6-1.1,11.1-2.5c4.6-1.9,8.6-4.7,11.7-8.6c1.4-1.8,2.7-3.7,3.8-5.7
		c0.4-0.8,1.1-0.8,1.4,0.1c0.7,1.5,1.3,3,1.9,4.5c0.5,1.2,0.7,2.5,0.3,3.8s-0.5,2.7-0.8,4.1c1,0,1.3-0.6,1.6-1.2
		c1.3-2.1,2.6-4.3,3.9-6.4c0.4-0.7,0.7-1.4,0.9-2.1c1.5-5.8,1-11.5-2-16.8c-0.6-1-1.2-2.1-1.8-3.1c-1.4-2.1-3.1-4-5.5-5.1
		c-1.9-0.8-3.8-1.8-5.5-2.7c-3.8-2-7.4-2.2-11.1,1.4c-0.7,0.7-1.5,1.2-2.3,1.8c-1.2,1-2.3,2.1-3.2,3.3c-1.2,1.7-2.2,3.5-2.8,5.5
		c-0.3,0.9-0.8,1.5-1.8,1.6c-0.8,0.1-1.5,0.3-2.2,0.6c-2.4,0.9-4.7,2.1-6,4.3c-1.3,2.1-2.9,3.6-5.1,4.9c-1.5,1-3.4,1.5-4.6,2.9
		c-0.3,0.3-0.8,0.3-1.2,0.4c-2.1,0.3-3.6-0.5-4.8-2.2c-3.3-4.9-4.2-10-1.3-15.4c0.1-0.1,0.1-0.1,0.1-0.2c0.1-0.2,0.1-0.5,0.1-0.7
		c-0.7-0.1-1.3,0-1.8,0.3c-1.1,0.8-2.1,1.5-3.2,2.2C458.5,201.6,457.2,204.7,457,208.4z"/>
	<path class="st2" d="M466.9,197L466.9,197L466.9,197L466.9,197z"/>
	<path class="st2" d="M553.2,320.2c-4.4,2.7-8.6,5.7-12,9.6c-2,2.3-2,2.3-4.9,3.8c-2.7-4-5.3-8-7.6-12.2c-0.1-0.3-0.3-0.5-0.3-0.8
		c-0.2,0.4-0.4,0.9-0.4,1.4c-0.1,1.3,0,2.6,0.3,3.9c0.6,2.7,1.2,5.3,1.7,8c1,5.4,2.6,10.6,4.7,15.7c0.4,0.9,0.8,1.8,1.3,2.7
		c0.9,1.5,2.1,2.5,4,2c0.6-0.2,1,0.3,1.5,0.5c0.5-1,0.8-2.1,1-3.1c0.4-2.2,1.6-4,3.1-5.7c0.6-0.7,1.2-1,2.3-0.8
		c5.5,1,11.1,0.6,16.5-1.1c2.1-0.7,4.2-1.3,6.3-1.8c7.7-1.8,13.8-6,18.7-12c2.6-3.2,4.8-6.8,7.1-10.2c1.6-2.5,2.5-5.3,3-8.3
		c0.3-1.8,0.1-3.7-1.1-5.3c-1.5-1.9-3.2-2.1-5-0.4c-0.5,0.5-1,1.2-1.6,1.7c-1.4,1.4-2.7,2.9-4.2,4.2c-2.9,2.6-6.2,4.3-10.2,4.9
		c-2.8,0.4-5.6,0.5-8.5,0.6c-1.8,0.1-3.7,0.1-5.5,0.4c-0.3,0.1-0.8,0.1-1.4,0.3l0,0c-3.1,0.9-5.5,1.2-6,1.4
		C555.1,319.6,554,319.8,553.2,320.2z"/>
	<path class="st2" d="M436.4,255.3c-0.7,0.5-1.4,1-2.1,1.6c-0.8,0.7-1.3,1.3-1.4,2c0.4,0.2,1,0.1,1.5,0.2c1.7,0.2,3.1,1,4.4,2
		c1.7,1.3,2.8,2.9,3.5,5c1,2.9,1.4,5.9,1.3,9c-0.1,2.7-0.4,5.4,0.8,8.1c0.1,0.3,0.2,0.5,0.2,0.9c0.5-0.3,0.9-0.8,1.4-1.3
		c0.7-0.7,1.4-1.4,2.1-2.1c1.4-1.6,2.9-2.2,5.1-1c1.7,1,3.8,1.2,5.5,2c2.2,1.1,4.1,2.8,6.3,3.9c0-0.5,0.1-1,0.3-1.4
		c0.8,0.1,1,0.7,1.2,1.1c0.5,0.8,1.3,1.4,2.1,2c1,0.7,2.1,0.5,3.1,0.5c1.3,0,1.6-1,2-1.8c0.8-1.5,1.8-2.7,3.4-3.5
		c1.6-0.9,2.8-0.7,4,0.8c1.4,1.9,3.5,2.9,5.2,4.4c0.2,0.2,0.6,0.3,0.9,0.3c1.2,0.1,2.4,0.1,3.6,0.2c0.3,0,0.6,0,0.9,0
		c0.2-0.2,0.4-0.4,0.6-0.7c0.4-0.5,1-1,1.4-1.3c2.3-1.8,2.4-4,1.4-6.4c-0.2-0.5-0.4-1-0.7-1.4c-0.3-0.5-0.5-1-0.9-1.4
		c-1.3-2.1-1.9-4.4-1.8-6.8c0.1-4,0.4-7.9,2.9-11.2c0.1-0.2,0.2-0.3,0.3-0.5c0.3-0.6,0.2-1.2-0.1-1.7c-1.2,1.2-2.5,2.1-4,2.9
		c-0.8,0.4-1.5,0.8-2.3,1.2c-1,0.5-1.9,1-2.5,2.1c-1.3,2.2-3.3,3.5-5.5,4.4c-4.2,1.6-8.6,2.3-13.1,2.4c-0.8,0-1.5-0.1-2.3-0.3
		c-3.8-0.9-7.3-2.4-10.4-4.7c-3.4-2.4-5.5-5.5-6.1-9.7c-0.1-0.9-0.3-1.7-0.3-2.6s-0.5-1.4-1.4-1.6c-3.2-0.5-5.7-2-7.9-4
		c-0.2,0.3-0.3,0.8-0.3,1.3c0,0.7,0,1.3,0.1,2C439.1,252.2,438.1,254,436.4,255.3z"/>
	<path class="st2" d="M419.1,122.1c-0.3-0.8-0.5-1.7-0.8-2.5c-1.2-2.9-4.7-3.5-6.6-1c-4.8,6.6-2.3,13.3,2.3,16.8
		c2.7,2.1,5.7,3.1,9,3.7c1.7,0.3,1.8,0.3,1.9,2c0.3,2.7,1,5.4,2.5,7.7c3.3,5.1,8.8,8.6,14.9,6.9c6.5-1.7,11.2-5.2,13.3-11.7
		c0.5-1.6,1.2-3,2.4-4.2c2-2.2,3.5-4.7,4.7-7.5c1-2.1,1.5-4.3,1.5-6.7c-0.2-4.3-1.2-8.3-3.9-11.9c-0.8-1-1.7-1.6-2.8-2.2
		c-1.4-0.7-2.7-0.7-3.9,0.5c-1.8,1.6-3.8,2.9-5.3,4.8c-0.9,1.1-2.1,1.9-3.3,2.7c-4.7,2.9-9.9,3.5-15.1,2.5c-2.9-0.5-5.3-0.7-7.7,1.2
		C421,124.2,419.7,123.6,419.1,122.1z"/>
	<path class="st2" d="M380.9,95.1c-0.3,6.1,3.7,11.6,10.1,14.3c1.2,0.5,2.2,0.3,3.1-0.5c0.8-0.8,0.8-1.8,0.5-2.7
		c-0.1-0.3-0.1-0.7-0.3-0.9c-0.9-1-0.7-2-0.4-3.1c0.1-0.5,0.1-1.1,0.1-1.6c-0.1-1.8,0.8-2.9,2.4-3.5s3.4-1.1,5.1-1.1
		c1.4,0,2.9,0,4.2-0.1c3-0.1,4.4-1.4,4.7-4.4c0.1-3,1.4-5.7,1.9-8.6c0.5-2.8,2.5-4.2,5.3-4.6c0.3-0.1,0.7-0.1,1-0.1
		c1.3,0,2.6-0.1,3.8-0.8c0.5-0.3,1-0.1,1.4,0.3c0.4,0.3,0.8,0,1-0.5c0.3-1.7,0.5-3.5,1-5.1c1.1-4-0.5-7.3-2.7-10.4
		c-0.4-0.6-1.1-1-1.8-1.4c-3.4-2.3-7.3-2.3-11-1.3c-4.9,1.3-9.2,3.8-13.2,7c-4.5,3.6-7,8.3-8.3,13.8c-0.4,1.8-0.8,3.6-0.8,5.5
		c0,1-0.3,1.3-1.1,1.1c-1.6-0.5-3-0.1-4.2,1s-1.8,2.5-1.8,4.1c0,0.9,0,1.8,0,2.6l0,0C380.9,94.5,381,94.7,380.9,95.1z"/>
	<path class="st2" d="M466.9,197L466.9,197c0.1-0.1,0.1-0.1,0.1-0.2C467,196.9,466.9,197,466.9,197z"/>
</g>
<g>
	<path class="st3" d="M774.8,537.7c-0.1,0-0.1-0.1-0.2-0.1l0,0C774.7,537.7,774.8,537.7,774.8,537.7z"/>
	<path class="st3" d="M549.5,293.1c2.3,1.3,4.4,2.9,6.4,4.4c0.9,0.7,1.8,1.3,2.7,1.9c1,0.7,2.1,1.2,3.3,1.4c2.6,0.3,5.2,0.3,7.8-0.5
		c4-1.2,7.5-3.1,10.6-5.7c2.2-1.8,4.1-3.9,5.5-6.4c1.9-3.2,3.8-6.4,5.1-9.9c-0.8-0.5-1.6-0.9-2.4-1.3c-0.3-0.1-0.6-0.1-1.1-0.2
		c-0.1,0.7-0.2,1.3-0.3,1.9s-0.2,1.3-0.4,1.9c-2,7.7-6.8,11.4-14.2,14.6c-8.4,3.7-18.1,0.5-20.8-8.2c-0.3-1.2-0.5-2.5-0.9-3.8
		c-0.7,0.2-0.9,0.7-1,1.2c-0.5,2-1.2,4-1.7,6C547.9,292,548,292.3,549.5,293.1z"/>
	<path class="st3" d="M668.4,670.7c1.5-4.9,3.4-9.4,6.1-13.8c0.5-0.9,0.5-1.6,0.2-2.4c-0.4-0.9-1-1.6-1.8-2.3
		c-2.1-2.1-4.4-4-5.7-6.7c-0.5-1-1.6-1.1-2.5-1.4c-3.9-1.1-7.8-2.2-11.8-2.9c-2.8-0.5-5.5-1.3-8.3-2.1c-3.1-0.8-6.4-1.2-9.6-1.6
		c-1.5-0.1-2.7,0.3-3.8,1.4c-3.6,3.5-7,7.2-10.1,11.2c-1,1.2-1.6,2.5-2.3,4c-2.9,6.8-7.5,12.5-12.7,17.8c-2.1,2.1-4.4,4-6.9,5.5
		c-1,0.5-1.8,1.2-2.4,2c0.2,0.6,0.4,1.2,0.5,1.8c0.5,1.8,0.6,3.6,0.8,5.9c0.2,2.7-1,5.1-3.4,7.1c-1.7,1.4-3.6,2.5-5.5,3.5
		c-1,0.5-2.1,1.1-3.1,1.6h33h8.9c-0.3-0.4-0.8-0.8-1.2-1.2c-0.5-0.4-0.8-1-1.1-1.6c-0.5-1.1-0.5-2.2-0.1-3.1
		c0.5-1.2,1.6-2.1,3.2-2.2c1.2-0.1,2.4,0,3.6,0.2c4.2,0.8,8.1,2.5,12.1,4.1c1.7,0.7,3.1,2,4.5,3.2c0.2,0.2,0.3,0.3,0.5,0.5h4.2
		c0.2-0.1,0.4-0.3,0.6-0.4c1-0.7,1.9-1.4,2.8-2.2c0.5-0.5,1-1,1.5-1.4l0.1-0.1c0.2-0.3,0.4-0.5,0.6-0.8c1.9-2.5,3.7-5.1,5.5-7.8
		c0.5-0.8,1-1.5,1.5-2.3c0.2-0.3,0.3-0.5,0.5-0.8c0.5-0.8,1.1-1.6,1.6-2.3c0.1-0.1,0.1-0.1,0.1-0.1c0.3-0.5,0.7-1,1-1.4
		c-0.1-0.4-0.3-0.8-0.5-1.2C667.9,675.8,667.5,673.4,668.4,670.7z"/>
	<path class="st3" d="M571.1,280.2c0.7,1.2,2,1.6,3.2,2.1c1.1,0.4,1.9-0.1,2.7-0.7c0.8-0.5,1.7-1,2.7-1c0.8-0.1,1-0.6,1.1-1.4
		c0-0.3,0-0.7,0-1.4c-0.2-3.8-1.6-8.3-7.5-8.9c-3.1-0.3-4.2,0.4-4.6,3.5c-0.1,0.4-0.1,0.9,0,1.3C569,276.1,569.9,278.2,571.1,280.2z
		"/>
	<path class="st3" d="M187.9,451.4c0,5.4,1.8,10.3,4,15.1c0.1,0.3,0.4,0.5,0.7,0.6c0.4,0.1,0.5-0.3,0.7-0.5c1.1-2.7,2.2-5.5,3.2-8.2
		c2.3-5.8,5-11.4,8.5-16.6c1.2-1.8,2.3-3.7,3.4-5.6c3-5.6,6.5-10.9,11.2-15.2c0.3-0.2,0.5-0.5,0.7-0.7c2.5-3.4,5.5-6.2,8.6-8.9
		c2.5-2.2,5.3-3.9,8.6-4.5c1.8-0.3,3.7-0.3,5.5,0.4c1.7,0.8,2.9,1.9,3,3.9c0,0.4,0,0.8-0.1,1.1c1.5,0.2,2.9,1.3,3.2,2.9
		c0.3,1.3,0.5,2.4-0.3,3.6c-2.1,3.2-3.9,6.6-5.9,9.9c-0.7,1.2-1.2,2.3-1.2,3.7c0,2-0.6,3.8-1.3,5.7c-2.1,6-1.8,12,0.8,17.9
		c0.8,1.7,1.5,3.4,2.4,5.1c1,1.7,1.7,2.3,3.7,1.1c1.6-1,3.3-1.7,5-2.4c1.1-0.4,2.1-0.5,3.2-0.3c2.5,0.4,3.7,3.1,2.4,5.3
		c-0.3,0.5-0.8,1-1.3,1.5c-5.7,5.8-9.2,12.7-10,20.8c-0.3,2.8-0.8,5.6-1,8.5c-0.4,5.1-2.3,9.8-3.8,14.6c-0.3,1-0.8,1.8-1.5,2.5
		c-1.2,1-1.4,2.2-1.2,3.6c0.3,2.1,0.5,4.1,0.8,6.2c0.1,0.9,0.2,1.7,0.2,2.6c-0.1,0.8-0.6,1.4-1.4,1.6s-1.6,0-2.1-0.7
		c-0.3-0.5-0.6-1.2-0.9-1.8c-0.9-2.1-1.6-4.3-2.1-6.5c-4.4,5.4-7.3,11.6-8.3,18.5c-0.4,2.5-0.4,5-1,7.5c-0.2,0.8-0.1,1.5-0.1,2.3
		c0.5,10.3,3.4,20,8.7,28.9c0.1,0.1,0.1,0.3,0.3,0.4c0-0.2,0.1-0.4,0.1-0.6c0.2-2.7,0.3-5.2-0.1-7.8c-0.9-5.2-0.7-10.3,2.1-15
		c2.8-4.6,5.7-9.1,9-13.3c1.2-1.4,2.4-2.8,4-3.9c0.3-0.2,0.8-0.5,1.2-0.1c0.1,0.7-0.5,1.2-0.8,1.7c-1.9,3.1-3.3,6.4-4.2,9.9
		c-0.7,2.6-0.8,5.1-0.2,7.8c0.3,1.5,0.8,3,0.9,4.5c0.3,2.6,0.7,5.2,1.5,7.7c0.8,2.4,0.6,4.8-0.6,7c-1,1.6-0.7,3.1,0.1,4.7
		c1.4,2.9,3,5.6,4.7,8.3c0.6,0.4,1.2,0.8,1.9,1c5,1.8,10.1,3.6,15.2,5.3c1.5,0.5,3,0.3,4.5-0.4c4.7-2.2,9.2-4.7,12.9-8.3
		c4.2-4.2,8.3-8.3,11.4-13.5c3.1-5.1,4.9-10.7,6.2-16.5c0.8-3.6,0.3-7-0.3-10.4c-0.2-1-0.2-2,0.3-2.9c0.6-1.1,0.7-2.3,0.6-3.5
		c-0.3-4.7,0.6-9.1,1.1-13.7c0.3-3.7,1.2-7.3,2-10.7c-0.3-0.5-0.7-0.5-1-0.3c-2.9,0.9-5.4-0.3-7.5-2.2c-2.7-2.3-4.9-5-6.4-8.2
		c-1.8-4-3.7-7.9-4.7-12.2c-0.7-2.7-1.2-5.3-1.6-8c-0.4-3.2-0.7-6.5-0.8-9.8c-0.2-7.5,1.2-14.8,3.4-21.9c1.3-4.3,3.1-8.4,4.9-12.5
		c2.3-5.1,4.6-10.2,6.9-15.2c1.3-2.8,2.7-5.5,4.2-8.1c1.1-1.8,2.3-3.5,2.7-5.5c0.3-1.4,1.4-2.4,2.3-3.6c2.4-3.4,4.7-6.8,6.1-10.8
		c0.5-1.4,1-2.9,1.3-4.4c0.6-2.7,1.2-5.3,2.5-7.8c0.7-1.4,0.5-2.8-0.3-4c-1.5-2.2-3.3-4.1-5.7-5.2c-3.8-1.6-7.7-2.7-11.8-1.4
		c-3.3,1.1-6.4,2.9-9.4,4.4c-0.8,0.4-1.2,1.2-1.5,2.1c-0.4,1.2-0.8,2.5-1.1,3.8c-0.6,2.1-1.4,4.1-2.6,6c-1.4,2.2-3.4,3.6-5.9,4.4
		c-0.6,0.2-1.2,0.4-1.9,0.5c-1.2,0.3-2.3,0.7-3,1.8c-0.3,0.5-0.8,0.8-1.2,1.2c-1.3,0.9-2.6,1.4-4,1.2c-0.9,0.1-1.9-0.1-2.9-0.6
		c-1.9-1-3.3-2.5-4.4-4.3c-1-1.7-1.6-3.6-2.1-5.5c-1.2-4.6-1.4-9.3-1.5-14c0-1.2,0-2.4-0.2-3.6c-1.2-7.8,0.1-15.3,3-22.5
		c1.4-3.5,3.5-6.6,6.2-9.2c0.1-0.1,0.3-0.3,0.5-0.5c0.4-1.1,0.8-2.3,1.2-3.4c0.3-1,0.8-2.1,1-3.1c1-5.1,2.9-9.9,5.4-14.4
		c1-1.7,1.8-3.5,2.4-5.4c0.3-0.9,0.3-1.7-0.1-2.5c-0.5-1.4-1.4-1.6-2.5-0.6c-0.8,0.8-1.4,1.6-2.2,2.5c-1.8,2-3.8,3.6-6.4,4.3
		c-3.8,1.2-7.5-0.1-9.9-3.3c-2.5-3.4-3.1-7.3-2.8-11.2c0.3-3.9,0.8-7.8,1.7-11.6c1.6-7.2,5.3-13.1,10.8-17.9c1.1-1,2.2-1.8,3.5-2.5
		c1.7-0.9,2.3-2.2,2.3-4c0-0.8-0.1-1.5-0.1-2.3c0-1.3-0.1-2.7,0.2-3.9c0.7-2.9,0.5-5.9,0.5-8.8c-0.1-1.6-0.5-3.2-1.2-4.7
		c-0.9-1.8-1.8-3.5-2.8-5.2c-0.5-0.9-1.2-1.4-2.3-1.7c-1.6-0.4-2.7-1.4-3.4-2.8c-0.5,0.5-1.1,1.1-1.6,1.7c-1.7,1.9-3,4-3.8,6.5
		c-1.1,3.6-1.8,7.2-2.5,10.9c-0.8,3.9-1.3,7.8-2.9,11.4c-1.5,3.2-2.6,6.5-3.6,9.9c-1,3.1-2.4,5.9-4.2,8.5c-1,1.4-2,2.7-2.9,4
		c-5.6,7.4-9.9,15.5-12.6,24.4c-1.4,4.4-2.5,8.8-3.8,13.3c-0.4,1.4-0.8,2.8-1.4,4c-0.8,1.4-0.8,2.9-0.7,4.4c0.1,2.7,0.2,5.5,0.2,8.2
		c-0.1,6.8-2.9,12.2-8.1,16.6c-1.7,1.4-3.4,2.7-5.2,4c-3.7,2.8-6.8,6.1-9.6,9.9c-5.1,7-8.9,14.5-11.6,22.7c-1.9,5.9-2.3,11.8-1,17.8
		c0.4,1.9,1,3.8,1.5,5.7c0.1,0.4,0.3,0.8,0.3,1.2c0.2,0.7,0.4,1.4,0.6,2.1c0.2,0.7,0.4,1.3,0.5,2c0.8,3,0.8,6.1-0.3,9
		c-1.4,4-2.5,8.1-4.4,12c-0.5,1-0.8,2-1.2,3c0.1,0.5,0.4,1.1,0.8,1.6C187.9,448.9,187.9,450.2,187.9,451.4z"/>
	<path class="st3" d="M317.1,623.4c0.4-0.9,0.2-1.3-0.7-1.3c-5.7,0.1-11.4,0.3-17,0.3c-1,0-1.8,0.3-2.7,1c-1.2,0.9-1.9,2-2.3,3.4
		c-0.9,3.8-1.6,7.7-2.3,11.5c3.8,1.8,7.4,3.8,10.9,6.1l2.1,1.4l2,1.4l1,0.7l0.5,0.3l0.5,0.3l1.9,1.5c0.3,0.3,0.6,0.5,1,0.8l1,0.8
		l1.8,1.6c0.2,0.1,0.3,0.3,0.5,0.5c0.4-1,4.8-3.4,6.4-4.6c1.2-0.9,2.3-2.1,3.1-3.4c1.4-1.9,3.1-3.2,5.2-4c-11-1-23-6.7-15.6-14.2
		C315.6,626.5,316.4,625,317.1,623.4z"/>
	<path class="st3" d="M586.3,460.7c1.8-0.3,3.6-1,5.1-2.1c1.9-1.3,3.8-2.6,5.5-4.1c1.8-1.5,3.4-3.2,5-4.9c0.3-0.6,0.5-1.2,0.7-1.9
		c0.6-1.8,1-3.6,1.1-5.5c0.1-4,0.4-8.1-0.4-12.1c-0.5-2.6,0.5-4.7,2.7-6.2c1-0.7,2-1.4,2.9-2.1c2.8-2,4.9-4.7,6.4-7.7
		c1.4-2.9,2.6-5.8,3.2-9c0.9-4.7,2.1-9.2,3.8-13.5c1.4-3.7,1.3-6.6-1.8-9.5c-1.9-1.8-1.6-3.9,0.3-5.7c1-0.9,2-1.7,2.9-2.7
		c1-1.2,2.7-1.6,3.3-3.1c0.5-1.4,0.6-3,1-4.4c0.7-2.7,1.4-5.3,2.1-7.9c0.6-2.3,0.5-4.5,0.1-6.8c-0.4-2.1-0.9-4.1-1.8-6
		c-1.4-2.9-1.8-5.8-0.1-8.8c0.1-0.2,0.1-0.4,0.2-0.6c0.5-2.3,1.9-4.2,3.6-5.8c1.1-1.1,2.2-2.2,3.3-3.2c0.9-0.8,1.2-1.8,1-2.9
		c-0.5-2.7-1.6-4.9-4.1-6.4c-1.9-1.2-2.7-3.1-2.3-5c-0.9-0.8-1.1-1.8-0.3-3.2c0.5-1,1.2-1.8,2.1-2.5c5.1-4.7,7.5-10.9,9-17.5
		c1-4.3,0.9-8.7,0.6-13.1c-0.2-3.1-1.2-5.9-2.8-8.6c-3.9-6.9-10.3-10.1-17.5-12.2c-1.2-0.3-2.6-0.3-3.9-0.2
		c-3.3,0.1-6.5-0.3-9.7-1.2c-0.8-0.3-1.7-0.5-2.5-0.6c-6.1-0.7-10.5-4-14.2-8.6c-1.5-2-3.4-3.8-4.2-6.2c-0.3-0.8-1-1.4-1.9-1.7
		c-0.3-0.1-0.5-0.3-0.6-0.6c-2.5-0.3-4.9-0.8-7.3-1.6c-1.2-0.4-2.3-0.5-3.5,0.1c-0.5,0.3-1,0.4-1.5,0.6c-5.2,1.8-9.9,1-14-2.8
		c-0.8-0.7-1.4-0.8-2.3-0.5c-1.6,0.5-3.4,0.7-5,0.9c-2.5-0.2-4.9-0.4-7.3-1.2c-0.7-0.3-1.4-0.6-2.1-1c-0.5-0.3-0.5-1,0-1.4
		c0.8-0.5,1.6-0.8,2.4-1c1.8-0.5,3.6-1,5.4-1.4c3.6-1,6.5-3,9.1-5.6c1-1,1.8-1.9,2.1-3.2c0.8-2.7,2.7-3.9,5.2-4.9
		c0.3-0.1,0.7-0.3,1-0.3c-0.1-0.3-0.2-0.7-0.3-1c-0.4-1.2-0.6-1.4-1.6-1c-1.7,0.5-3.5,0.5-5.2,0.5c-5.2,0.1-9.2-2.2-12.4-6.2
		c-3.8-4.9-6-10.4-7.1-16.4c-0.8-4-0.8-8,0-12c0.1-0.4,0.1-0.9,0.3-1.3c0.8-2.8,2.3-4,5.2-4c0.4,0,0.8,0.1,1.2,0.2
		c-0.2-0.5-0.3-1.2-0.3-1.8c0-1.2,0.5-1.6,1.6-1.2c5.5,1.8,10.8,1,16-1c2.5-0.9,4.2-2.6,5.7-4.7c0.5-0.7,0.9-1.5,1.3-2.2
		c0.7-0.5,1.3-0.1,1.9,0.1c1.3,0.2,2.6,0.1,3.9-0.3c3.7-1.1,6.8-3.1,9.1-6.1c3.1-4,4.7-8.6,5.2-13.5c0.1-0.4,0.1-0.8,0.2-1.2
		c4.5-0.8,7.1,2.2,9.6,4.9c1.2,1.2,1.4,2.9,1.4,4.6c0,0.6-0.1,1.3-0.1,1.9c0.8,0.1,1.6,0.5,2.4,1.1c1.4,1,2.7,2.3,4,3.4
		c3.7,2.9,7.9,4,12.6,3.8c1.6-0.1,3.3-0.3,4.9-0.5l0,0c-4.3-2.1-6.3-5.7-6.8-10.5c-0.1-1.2,0.1-2.4,0.9-3.4c0.8-1,1.7-1.2,2.9-0.8
		c0.4,0.2,0.8,0.4,1.2,0.6c3.2,1.7,6.5,1.7,9.8,0.3c2.4-1,4.7-2.3,6.8-4c2.7-2.1,4.2-4.9,5.3-8.1c0.4-1.2,1.1-1.4,2.1-0.7
		c0.9,0.7,1.6,1.5,1.8,2.6c0.2,0.8,0.4,1.5,0.4,2.3c1.8-1.2,3.7-2.4,5.3-4c1.9-2,5.7-1.8,8.1,0.1c3.7,3.1,6.5,6.8,7.3,11.7
		c0.3,1.6,0.9,2.7,2.3,3.4c3.7,1.8,5.7,5,6.6,8.9c0.7,2.9,1.3,5.7,0.8,8.8c-0.7,3.7-2.3,6.9-5,9.4c-2.9,2.7-4.2,6-4.5,9.9
		c-0.1,0.9-0.4,1.7-0.5,2.5c-0.4,2.5,0.6,4.2,3.1,5.1c1,0.3,2.1,0.5,3.2,0.7c0.5,0.1,0.8,0.2,1.2,0.3c0.2-1,0.3-2,0.4-3.1
		c0.1-2.5,1.1-4.7,2.5-6.6c1-1.4,2.2-2.7,3.4-4c1.6-1.6,3-3.5,4.2-5.5c0.6-1.2,1.3-2.3,2.1-3.4c2.5-3.7,3.6-7.7,3.4-12.1
		c-0.1-2.6-0.2-5.3-0.8-7.9c-1.3-6.4-3.7-12.3-7.8-17.5c-1.8-2.3-3.8-4-6.8-4c-0.4,0-0.9-0.1-1.3-0.2c-3.7-0.6-6.1-2.7-7.5-6.2
		c-0.5-1.3-1-2.7-1.4-4c-2.2-6-6.6-9.4-12.8-10.5c-5.6-1-11.4-1-17-0.4c-4.8,0.5-8-2-9.3-5.6c-0.5-1.6-1.2-3.1-1.6-4.7
		c-0.5-1.7-1.3-3.1-2.6-4.4c-2.3-2.4-3.8-5.3-4.3-8.7c-0.2-1.2-0.3-2.4-0.6-3.6c-0.1-0.8-0.3-1.5-0.5-2.3
		c-2.8-7.8-10.1-14.4-19.2-14.4c-2,0-4,0-5.9,0.2c-3.4,0.4-6.7,1-10,1.9c-1,0.3-2.1,0.5-3.2,0.6c-3.1,0.3-5.5-0.9-7.5-3.2
		c-1-1.1-1.6-2.3-2.1-3.7c-0.5-1.2-1-2.5-1.4-3.7s-1-2.4-2.1-3.3c-1-0.8-1.6-1.8-2.1-2.9c-1.6-3.6-4.4-5.9-7.7-7.9
		c-2.5-1.4-4.9-2.9-7.4-4.2c-5.5-2.8-11.4-3.8-17.5-3.2c-6.2,0.6-12.2,2.2-17.8,5.3c-2.5,1.4-5.1,2.5-7.7,3.7
		c-4.2,1.8-8.1,1.2-11.7-1.7c-0.8-0.6-1.4-1.3-2.2-2c-1.6-1.5-3.5-2.6-5.7-3.1c-2.3-0.5-4.4-1.2-6.8-1.4c-11.7-1.4-21.6,1.8-29,11.4
		c-0.4,0.5-0.8,1-1.2,1.6c-3.9,4.4-9.5,5.3-14.5,2.1c-1.2-0.8-2.3-1.7-3.4-2.7c-1.4-1.2-2.9-2-4.7-2.3c-3.8-0.7-7.6-0.9-11.4-0.2
		c-7.5,1.3-14.5,4.2-20.7,8.7c-2.3,1.7-4.2,3.8-6,6c-2,2.5-4,4.9-5.9,7.5c-3.2,4.3-7.4,6.7-12.9,6.8c-0.7,0-1.3,0.1-2,0.1
		c-1.3,0.2-2.7,0.1-3.8,0.8c-1.6,0.9-3.3,1-4.9,1.4c-4.6,1.2-8.9,3.1-13.1,5.2c-1.2,0.6-2.3,1.4-3,2.5c-1.6,2.7-3.9,4.7-6.6,6.2
		c-1.2,0.7-1.9,1.8-2.2,3.1c-0.3,1.7-0.4,3.5-0.3,5.2c0.1,2.1,0.2,4.2,0.3,6.2c0.2,3.7-0.5,7.2-2.1,10.5c-1.8,4.2-3.8,8.4-5.5,12.7
		c-1.7,4.2-4.5,7.5-8.1,10.1c-1,0.7-2,1.4-3,2.1c-3.1,1.8-4.6,4.7-4.6,8.2c0,1.3,0.1,2.6,0.1,3.9c0.2,4.2-1.1,6.4-5.1,8.2
		c-0.6,0.3-1.2,0.5-1.8,0.8c-3.4,1.4-5.5,3.8-6.6,7.3c-0.3,1.2-0.7,2.3-0.9,3.5c-0.8,3.6-0.8,7.2-1,10.7c-0.1,1.5,0.3,2.7,1.3,3.9
		c2.7,3.4,4.7,7.3,5.7,11.7c0.1,0.4-0.1,1,0.6,1.2c0.1-1,0.1-2.1,0.3-3c0.1-1,0.3-1.9,0.6-2.9c0.3-1.3,0.8-2.5,1.6-3.6
		c1.6-1.9,4.1-1.8,5.6,0.1c0.6,0.8,1,1.7,1.2,2.7c0.4,1.7,0.8,3.4,1.2,5.1c0.6,3.2,1.5,6.4,2.6,9.5c2.2,6,9.3,14.2,15,17.4
		c1.8-1.4,4.1-1.8,6.2-2.6c2.2-0.8,4.2,0.7,4.4,2.9c0.1,0.6-0.1,1.3-0.1,1.9c-0.4,3.6,0,7,1.7,10.1c1.9,3.4,4.7,5.7,8.4,6.9
		c2.2,0.7,4.4,1.2,6.6,1.9c3.1,1,5.3,2.9,6.6,6c1.1,2.6,0.8,5.1-0.8,7.5c-0.8,1.1-1.7,2-2.8,2.7c-2.7,1.9-5.5,3.7-8.6,4.7
		c-1.4,0.4-2.3,1.2-2.9,2.4c-0.5,1.1-1.1,2.2-1.5,3.3c-0.9,2.3-1.4,4.8-1.9,7.3c-0.6,3.2-0.8,6.5-1.6,9.7c-0.9,3.1-1,6.2-0.5,9.4
		c0.2,1.3,0.3,2.7,0.1,3.9c-0.3,1.6-0.1,3.1,0.3,4.5c0.8,2.9,1.5,5.7,2.3,8.6c1.4,4.9,3.6,9.4,6.2,13.8c1.8,3.1,4.2,5.8,7.1,8.1
		c4.3,3.4,8.7,6.6,13.7,9c1.3,0.6,2.5,1.3,3.7,2.1c0.9,0.6,1.8,1.3,2.5,2.1c1.2,1.2,1.8,2.6,1.5,4.2c-0.5,2.9-0.8,5.9-2.1,8.6
		c-0.8,1.7-1,3.4-1,5.1c0.1,3,0.7,5.9,2,8.6c0.7,1.4,1.3,2.7,2.1,4.1c1.6,3.1,1.6,6-0.1,9.1c-1.2,2.2-2.3,4.5-3.4,6.7
		c-1.3,2.7-2.1,5.5-2.7,8.4c-0.8,4.4-0.7,8.7-0.4,13.1c0.1,1.8,0.3,3.7-0.4,5.5c-0.3,0.8-0.2,1.5,0,2.3c2,7.8,4.7,15.3,9.3,22
		c2.4,3.4,4.7,6.9,7.3,10.1c2.7,3.3,3.5,6.6,1.9,10.6c-1.5,3.9-1.9,8.1-2.2,12.2c-0.4,6.6,0.9,12.8,4.1,18.5c-0.1-1-0.1-1.9-0.3-2.9
		c-0.3-1.2-0.2-2.6,0-3.9c0.7-5.3,1.5-10.6,2.2-15.9c0.3-2.6,0.7-5.2,0.9-7.8c0.1-2.2,0.5-4.3,1.3-6.4c0.2-0.5,0.4-1,0.5-1.6
		c0.2-0.8,0.3-1.3,0.5-1.8c-1.5-2.9-2.9-6-4-9.1c-0.8-2.3-1.6-4.5-2.4-6.8c-0.3-0.8-0.5-1.6-0.8-2.5c-0.3-1.2-0.8-2.5-1.3-3.6
		c-1-2.2-2.3-4.2-4-6c-1.4-1.5-2.7-3.2-3.4-5.2c-0.5-1.4-1.2-2.8-1.8-4.2c-1.4-2.7-1.6-5.5-1-8.6c0.2-1,0.5-2,0.8-2.9
		c1.1-3.1,2.8-6,4.8-8.6c1-1.2,2-2.5,3-3.6c0.3-0.4,0.8-0.9,1.3-1c0.1-0.1,0.3-0.1,0.4-0.1c2-3.9,4-7.8,5.1-12.1
		c0.1-0.5,0.3-1.1,0.3-1.6c0.1-4.7,0.3-9.4-0.3-14.1c-0.7-5.3,0.1-10.5,2-15.4c0.9-2.3,2.5-4,4.3-5.7c0.8-0.8,1.7-1.4,2.2-2.4
		c0.2-0.5,0.3-1,0.5-1.6c-2.2-0.4-4.3-0.3-6.3-0.4c-2.6-0.1-4.7,1.4-6.4,3.4c-0.5,0.5-0.9,1.2-1.4,1.8c-0.5,0.7-1.1,1-2,0.5
		c-0.5-0.3-1-0.5-1.5-0.7c-1.2-0.3-1.9-1-2.3-2.1c-0.5-1.4-1.5-2.3-2.9-2.9c-2.3-1.1-4.3-2.6-6-4.5c-1.2-1.3-2.5-2.1-4.1-2.6
		c-5.3-1.9-9.5-5.3-12.7-9.9c-2.7-3.9-4.9-8.1-6.8-12.3c-1.4-3.2-2-6.7-2.3-10.2c-0.2-2.6-0.1-5.3-0.1-7.9c-0.1-2.7,0.8-5.2,1.8-7.6
		s2.7-3.4,5.1-3.2c0.9,0.1,1.7,0.3,2.4,1c1.3,1.1,2.2,2.5,2.5,4.1c0.3,1.3,0.5,2.6,0.6,3.9c0.3,4.9,2.1,9.2,4.9,13
		c1.5,2.1,3.1,4,4.9,5.7c1.9,2,4,3.6,6.6,4.7c0.6,0.3,5.3-0.1,8.1,0.4c0.2,0,0.4,0.1,0.6,0.1c0.4,0.1,0.8,0.3,1.1,0.5
		c4.6,1.3,9.2,1.8,14,1.2c0.1,0,0.3-0.1,0.4-0.1c0.6-0.2,1.3-0.3,1.9-0.4c1.9-0.5,3.6-1.6,4.9-3.4c1-1.4,2.3-2.4,4.1-2.3
		c1.2,0,1.8-0.7,2.4-1.5c2.1-3.4,5.3-5.5,8.2-7.9c0.9-0.8,2.1-1.2,3.2-1.6c1.7-0.4,3.3-1.1,4.9-1.9c0.5-0.3,1.2-0.5,1.8-0.7
		c2.2-0.5,3.4,0.7,2.9,2.9c-0.3,1.2-0.8,2.3-1.5,3.3c-0.8,1.3-1.6,2.6-2.5,3.9c-1.4,2.5-1.8,5.1-1.2,7.9c0.4,1.6,0.9,3.1,1.4,4.7
		c1,3.4,1.2,6.8,0.1,10.2c0.3,1.6,0.8,3.1,1.4,4.7s0.7,3.2,0.3,4.9c-0.3,1.4-0.5,2.8-0.5,4.2c0,1.1-0.2,2.1-0.5,3.1
		c0.1,0,0.1,0,0.1-0.1c1.8-0.2,3.3,1,3.4,2.7c0,0.8-0.2,1.5-0.3,2.3c-0.2,1.2-0.5,2.3-0.6,3.6c-0.2,1.8,0.1,3.4,1,5.1
		c1.4,2.5,1.2,4-1.1,5.7c-1.8,1.4-3.3,3-3.9,5.1c-0.8,2.3-3.7,2.3-5.1,1l-0.1-0.1c-0.3,0.5-0.8,1-1.2,1.4c-2.1,1.4-3.3,3.5-4,5.8
		c-1.1,3.5-1.6,7-0.6,10.6c0.3,1.1,0.7,2.1,1.4,2.9c0.9,1.1,1.7,2.3,2.7,3.3c0.9,1,2.1,1.5,3.3,2c0.6-1.6,1.3-3.2,2.1-4.8
		c0.2-0.5,0.5-0.9,0.7-1.3c1-1.8,2.3-3.6,3.6-5.1c2.3-2.6,4.9-4.7,7.9-6.2c4.4-3.4,9.1-6.2,14.3-8.3c2.3-0.9,4.4-1.9,6.7-2.7
		c0.8-0.3,1.4-0.5,2.1-1c1.4-0.9,2.1-2.3,1.9-3.9c-0.1-1.6-1.2-2.5-2.5-3.1c-0.3-0.1-0.6-0.1-1-0.2c-1.5-0.2-2.5-1.1-3.5-2.2
		c-3.6-4-5.5-8.8-6.6-14.1c-0.7-3.4-0.5-6.8,1.4-9.8c0.4-0.6,0.7-1.4,1.4-1.8c1.2-0.7,1-2.1,1.5-3.1c0.1-0.2-0.1-0.8-0.3-0.9
		c-1-0.5-1.5-1.6-2.1-2.5c-1-1.4-2.3-1.9-4-1.6c-1.5,0.3-3,0.7-4.4,1c-0.8,0.1-1.2-0.2-1.3-1c-0.6-6.2,3.1-12.4,8.8-14.2
		c1.5-0.5,3-0.5,4.5-0.1c2.9,0.8,5.9,1.6,8.8,2.5c0.3,0.1,0.6,0.2,0.9,0.3c2.1,0.8,3.9,0.6,5.6-1.2c2.1-2.1,4.4-3.8,7.5-4.6
		c3.6-1,6.7-0.1,9.6,1.8c1.8,1.2,3.3,2.9,4.5,4.7c0.9,1.4,1.6,2.9,1.5,4.6c0,0.2,0,0.4,0,0.7c0.8,3.4,0.4,6.7-0.6,10
		c-0.3,1,0,1.6,0.9,2.3c1.4,1,3.1,1.7,4.7,2.4c3.1,1.4,6.2,2.7,8.9,4.9c1.1,0.8,1.6,2.7,1.2,2.7c0.5,0,0.9,0.1,1.3,0.1
		c1.7,0.3,3.1,1.2,4.4,2.5c0.2,0.3,0.5,0.5,0.7,0.7c4.8,4.5,6.8,9.2,6.8,15.9c0,1.1-0.2,2.5-0.5,3.8c0.1,0.1,0.2,0.2,0.3,0.3
		c1.6,1.8,1.7,4,2,6.2c0.2,2.2,0.3,4.4-0.1,6.6c-0.6,2.9,0.1,5.4,1.6,7.8c3,4.9,5.7,9.9,8.3,14.8c2.9,5.7,4.4,11.8,4.9,18.2
		c0.1,2.2,0.4,4.4,0.8,6.5c0.3,1.6,0.8,3.2,1.8,4.6c1.2,1.6,2.7,2.8,4.9,2.9c2.8,0.1,5.4-0.8,7.8-2.1c1.6-1,2.4-2.5,3.3-4
		c0.6-0.9,1-1.9,1.8-2.7c1-1.2,2.2-1.6,3.3-1.4c0-0.1,0.1-0.3,0.1-0.5c0.2-1.3,0.5-2.6,1.1-3.8c2.1-4.1,4.4-8.1,8.1-11.1
		c1-0.8,1.8-1.6,2.7-2.5c0.5-0.5,0.8-1,0.6-1.8c-0.3-1.4,0.2-2.6,0.5-3.8c0.8-3.4,1.2-6.7,0-10.3c-1.4-4.4-0.1-8.7,2.6-12.4
		c1.7-2.3,4.6-1.9,5.9,0.6c0.5,0.9,0.8,1.8,0.8,2.8c-0.1,3.5,0.8,7,0.1,10.5c-0.2,0.9,0.1,1.6,0.7,2.4c3.6,4.7,4,10.1,2.8,15.6
		c0,0.1,0,0.1,0,0.1c-0.1,1.5-0.2,3.1-0.5,4.6c-0.1,0.3-0.1,0.7-0.1,1c0.1,7-2.1,13.3-4.9,19.6c-1.2,2.9-2.5,5.8-3.8,8.8
		c-1.2,2.8-1.9,5.8-2.5,8.8c-0.2,0.8-0.1,1.7-0.1,2.6C585,460.4,585.6,460.9,586.3,460.7z M546.3,250.5c1.4-0.3,2.8-0.4,4.1,0.4
		c1,0.6,1.3,1.6,0.5,2.5c-0.5,0.7-1.3,1.2-0.9,2.3c0.5,1.2,1.6,1,2.5,1.1c0.5,0.1,1.2-0.1,1.6,0.1c2.2,1,4.2,0.3,6.3-0.3
		c4.6-1.2,9.1-0.6,13.5,0.9c2.6,0.9,5.1,2,7.5,3.3c2.6,1.4,4.9,3.2,6.9,5.5c2.3,2.5,4.5,5.1,6.8,7.5c0.3,0.3,0.6,0.6,1,0.8
		c1.2,0.8,1.5,1.8,1.1,3.1c-0.2,0.6-0.4,1.3-0.4,1.9c0.1,3.6-1.3,6.9-3.1,9.9c-3.1,5.4-6.4,10.7-10.7,15.3c-4,4.2-8.8,7-14.6,8.1
		c-1.5,0.3-3,0.3-4.6-0.1c-3.8-0.8-7.3-2.1-10.6-4.2c-2.3-1.4-4.4-3.3-6-5.5c-2.1-2.9-4.2-5.9-5.5-9.3c-0.3-0.7-0.7-1.4-1.2-1.9
		c-1.1-1.1-1.4-2.5-1.4-3.9c0-1,0-2,0.2-2.9c1-4.9,2.5-9.8,5.3-14c0.6-0.9,1.4-1.6,1.6-3c-2.1,0.3-4,1-5.4,2.3
		c-3.1,3-6.2,6.3-7,10.8c-0.3,1.8-1.8,2.9-2.7,4.6c-0.3-0.5-0.6-1-1-1.3c-2.2-1.8-2.3-4.1-1.8-6.6c0.3-1.6,0.8-3.1,1.5-4.7
		c1.4-2.9,2.9-5.6,5-8.1c1-1.2,1.6-2.5,1.8-4s0.8-3,1.4-4.4C539.9,253.4,542.7,251.4,546.3,250.5z M499.6,149.3
		c0.1-2.7,1.4-4.4,3.7-5.2c1-0.3,1.9-0.3,2.7,0.6c0.5,0.7,1.2,1.3,1.6,2.1c0.6,1,1.5,1.5,2.6,1.8c3.8,0.8,7.5,1.5,11.4,1.2
		c1.6-0.1,3-0.5,4.5-0.8c1.7-0.4,2.8-1.6,3.8-2.9c0.9-1.1,1.7-2.3,2.5-3.4c1.4-1.9,3.3-3.3,5.5-3.9c3.1-0.8,6.4-1.6,9.6-2
		c3.6-0.4,6.6-1.7,9.2-3.8c3.2-2.6,5.7-5.7,6.4-10c0.1-0.8,0.3-1.5,0.5-2.3c0.9-3.2,0-6-2.1-8.6c-0.3-0.3-0.6-0.6-0.9-1
		c-1.8-2.1-2.4-4.4-1.2-7c0.2-0.4,0.3-0.8,0.5-1.2c1.2-1.8,1.4-3.9,1.2-6c-0.4-4-1.5-7.7-4.8-10.4c-1.8-1.5-3.8-2.6-6.2-2.5
		c-1.2,0-2.4-0.2-3.6-0.5c-0.9-0.3-1.6-0.7-2.2-1.4c-1.8-1.8-1.8-3.9-0.1-5.8c0.9-1,2.1-1.6,3.3-2.1c2.4-0.9,4.9-1.4,7.3-1.7
		c2.9-0.4,5.9-0.9,8.8-0.8c7.2,0.1,13.1,2.9,17.4,8.8c0.1,0.2,0.3,0.3,0.4,0.5c1.2,2.2,2.8,3.4,5.5,3c1.8-0.3,3.4,0.7,4.9,1.7
		c3.8,2.7,6.2,6.4,7.3,10.9c1.4,5.1,0.5,10.2-0.8,15.2c-2.6,9.3-8.1,16.6-15.7,22.4c-1.9,1.4-4.1,2.5-6.3,3.5
		c-1.6,0.7-2.7,1.6-3.6,3.1c-4.4,6.6-10.5,11-18.3,12.8c-2,0.5-4,1-6.1,1.4c-1.4,0.3-2.6,1-3.5,2.2c-1.3,1.9-2.7,3.7-4.1,5.5
		c-3.4,4.4-7.8,7.2-13.4,8c-1.7,0.3-3.4,0.6-5.2,0.5c-5.7-0.2-11.1-1.6-15.3-5.7C502.5,161.3,499.3,156,499.6,149.3z M429.9,122
		c5.3,1,10.4,0.4,15.1-2.5c1.2-0.8,2.4-1.5,3.3-2.7c1.6-1.8,3.6-3.1,5.3-4.8c1.2-1.1,2.5-1.2,3.9-0.5c1.1,0.5,2.1,1.2,2.8,2.2
		c2.7,3.6,3.7,7.6,3.9,11.9c-0.1,2.3-0.5,4.6-1.5,6.7c-1.2,2.7-2.7,5.3-4.7,7.5c-1.1,1.2-1.8,2.7-2.4,4.2c-2.1,6.5-6.8,10-13.3,11.7
		c-6.1,1.6-11.6-1.8-14.9-6.9c-1.5-2.3-2.3-4.9-2.5-7.7c-0.1-1.6-0.2-1.7-1.9-2c-3.3-0.5-6.3-1.7-9-3.7c-4.7-3.5-7.1-10.3-2.3-16.8
		c1.8-2.5,5.3-2,6.6,1c0.3,0.8,0.5,1.7,0.8,2.5c0.6,1.5,1.9,2.1,3.1,1.1C424.6,121.3,427.1,121.4,429.9,122z M380.9,91.5
		c0-1.6,0.5-3,1.8-4.1c1.2-1.1,2.6-1.5,4.2-1c0.8,0.3,1.2-0.1,1.1-1.1c0-1.8,0.3-3.7,0.8-5.5c1.2-5.5,3.8-10.1,8.3-13.8
		c4-3.2,8.2-5.7,13.2-7c3.8-1,7.6-1,11,1.3c0.6,0.4,1.4,0.8,1.8,1.4c2.2,3.1,3.8,6.4,2.7,10.4c-0.5,1.6-0.6,3.4-1,5.1
		c-0.1,0.5-0.5,0.8-1,0.5c-0.5-0.4-0.9-0.5-1.4-0.3c-1.2,0.7-2.5,0.8-3.8,0.8c-0.3,0-0.7,0-1,0.1c-2.7,0.3-4.8,1.8-5.3,4.6
		c-0.5,2.9-1.8,5.6-1.9,8.6c-0.1,2.9-1.6,4.2-4.7,4.4c-1.4,0.1-2.9,0.1-4.2,0.1c-1.8,0-3.4,0.5-5.1,1.1c-1.6,0.6-2.5,1.6-2.4,3.5
		c0.1,0.5,0.1,1.1-0.1,1.6c-0.3,1.1-0.4,2.1,0.4,3.1c0.2,0.2,0.3,0.6,0.3,0.9c0.1,1,0.3,2-0.5,2.7c-0.9,0.8-1.9,1-3.1,0.5
		c-6.4-2.7-10.4-8.2-10.1-14.3c0-0.3,0-0.7,0-1l0,0C380.9,93.2,380.9,92.4,380.9,91.5z M369.2,242.7c-4.9-1-8.9-3.4-12.5-6.8
		c-2.8-2.7-4-6.2-4.2-10.1c-0.1-1.9,0.3-3.7,1.6-5.1c-1-0.2-1.8-0.5-2.7-1c-1.8-0.9-3.6-1.6-5.4-2.3c-3.1-1-5.1-3.2-6.7-6
		c-1-1.6-1.2-3.3-1-5.1c0.1-1.2-0.3-2.1-1.4-2.7c-2.3-1.3-4.2-3.1-6.2-4.8c-4-3.4-6.6-7.8-8.3-12.7c-0.1-0.4-0.3-0.8-0.4-1.2
		c-3.4-9.8-2.7-19.3,1.6-28.7c1.7-3.8,3.8-7.4,7-10.1c2.5-2.1,5.1-4,7.8-6c1.5-1.1,3-2.1,4.2-3.6c1.3-1.5,3-2.5,4.6-3.7
		c1.3-1,2.8-1.2,4.4-1c0.4,0.1,0.8,0.2,1.2,0.4c1-2.3,2.4-4.3,4.4-6c0.8-0.6,0.9-1.3,0.8-2.3c-0.7-4,0.1-7.9,1.8-11.5
		c0.5-1.2,1.3-2.3,2.4-3.1c0.5-0.3,1-0.5,1.5-0.5s1.1,0.5,1,1c-0.2,1-0.4,1.9-0.6,2.9c-0.8,4.2-0.5,8.1,2.1,11.6
		c0.3,0.3,0.5,0.8,0.7,1.1c1.3,2.5,0.5,5-2.1,5.8c-3.5,1.1-4.2,3.8-4.1,6.6c0.1,4.2,1.4,8.2,3.7,11.8c2.3,3.4,5.7,4.7,9.6,4.6
		c0.6,0,1-0.3,1.4-0.7c1.4-1.2,2.8-2.1,4.5-2.5c1.2-0.3,1.9-1.4,2.9-2.1c0.3-0.2,0.6-0.3,0.9-0.1c0.1,0.1,0.3,0.4,0.3,0.5
		c-0.2,2-0.1,3.9,0.1,5.9c0.1,1.6-0.3,3-1,4.4c-2.1,4-5.3,6.3-9.3,7.3c0.1,1.5,0.2,2.9,0.5,4.4c0.3,1.2,0.9,2.3,1.8,3
		c2.8,2.3,5.6,4.5,9.2,5.4c1,0.2,1.8,0.6,2.6,1.3c0.5,0.5,1.1,1,2,1.1c0.9,0,1.4,0.4,1.5,1.4c0.3-1.4,1-2.8,1.9-4.2
		c0.5-0.7,0.9-1.5,1.8-2.1c0.5,0.5,0.4,1,0.4,1.4c0,3.8,1.4,7,3.4,10.1c2.4,3.5,5.8,5.5,9.7,6.9c2.8,1,5.6,0.6,8.3-0.3
		c6-1.9,10.2-5.7,12.7-11.6c0.1-0.4,0.3-0.8,0.4-1.2c0.3-0.8,0.8-1.2,1.6-1.3c3-0.2,5.3-1.7,7.5-3.7c2.3-2.1,3.6-4.6,3.7-7.7
		c0-0.8-0.2-1.5,0.3-2.2c0.8,0.1,0.8,0.6,1,1.2c0.8,3.2,1,6.5,0.5,9.8c-0.1,1-0.1,1.9,0.3,2.8c2.7,5.3,1.4,10.2-1.2,15
		c-1.2,2.1-2.9,3.8-4.9,5.3c-4,3-8.7,4.6-13.6,5.1c-2.3,0.3-4.6,0-6.8-0.9c-1.2-0.5-2.3-0.4-3.4,0.2c-1.6,0.9-3.3,1.7-4.8,3
		c0.5,0.9,1.1,1.7,1.5,2.6c0.9,2,2.1,2.9,4.5,3c2.8,0.1,5.5,3.1,5.5,6c-0.1,7.3-3.1,12-9,14.2c-4.2,1.6-8.6,1.9-12.9,1.2
		c-1.7-0.3-2.9,0-4.2,1c-1.5,1.1-3.1,2.1-4.7,3c-3.6,2.1-7.5,3.1-11.6,3.1C375.9,243.6,372.6,243.3,369.2,242.7z M434,298.2
		c-1.7,2.3-4.1,3.6-6.2,5.3c-0.8,0.7-1.9,1.1-2.9,1.4c-3.6,1.2-6.8,2.8-9.9,5c-4.3,3.1-9.2,3.8-14.4,2.7c-2.1-0.5-4.2-1-6.4-1.2
		c-3.6-0.3-6.7-2.1-9.2-4.7c-4.5-4.7-8.1-10.1-9.2-16.7c-0.3-1.4-0.5-2.8-0.5-4.2c0-0.9,0.1-1.8-0.2-2.6c-0.4-1.6,0.1-3,1-4.3
		c0.5-0.6,1-1.2,1.5-1.7c2.1-1.7,3.5-3.9,5-6c1.2-1.8,2.5-3.6,4.1-5.1c2.7-2.7,5.9-4.1,9.8-3.8c1.6,0.1,3.3,0,4.9,0v0.1
		c1.3,0,2.6,0.1,4,0c4.7-0.3,8.8,1,12.2,4.4c1.5,1.6,2.9,3.3,4.6,4.7c3,2.5,3.9,5.9,4.9,9.3c0.5,1.6,0.8,3.2,1.2,4.7
		c0.9,3,2.6,5.5,4.8,7.7c0.2,0.2,0.5,0.4,0.8,0.7C435.6,295.4,435.4,296.2,434,298.2z M500.7,288.5c-0.6,1.8-1.2,3.6-2.1,5.2
		c-1.8,3.2-4.9,4.9-8.6,5.3c-2.5,0.3-4.8-0.4-6.9-1.6c-1.2-0.7-2.3-1-3.7-0.4c-2.7,1.1-4.9,0.1-6.8-1.8c-0.9-0.8-1.8-1.6-2.7-2.3
		c-1.9-1.4-3.3-3.2-4.2-5.3c-0.3-0.7-0.5-1.4-0.5-2.2c-2.2-1.1-4.1-2.8-6.3-3.9c-1.7-0.9-3.8-1.1-5.5-2c-2.2-1.2-3.6-0.7-5.1,1
		c-0.7,0.8-1.4,1.4-2.1,2.1c-0.4,0.4-0.9,0.9-1.4,1.3c0.1,1.3-0.9,2.6-2.2,3.1c-2.1,0.8-4.2,0.7-5.7-1c-4.3-4.6-6.7-9.2-3.1-16.3
		c0.9-1.7,0.9-2.8-0.3-4.4c-1.6-2.1-3.7-3.7-5.4-5.6c-0.2-0.2-0.4-0.5-0.8-1c2.3-0.5,4-0.8,5.8,0.2c0.1,0,0.1,0,0.1,0.1
		c0.1-0.6,0.6-1.3,1.4-2c0.7-0.5,1.4-1,2.1-1.6c1.7-1.4,2.7-3.1,2.4-5.5c-0.1-0.6-0.1-1.3-0.1-2c0-0.5,0.1-1,0.3-1.3
		c-1.4-1.4-2.7-3-3.9-4.7c-1.6-2.5-2.3-5.2-2.1-8.1c0-0.4,0.1-0.9,0.2-1.3c0.3-0.8,1.3-1.3,2.1-1c1.2,0.4,2,1.3,2.7,2.3
		c1.4,2.1,3.4,3.7,5.5,5.1c0.5,0.3,0.9,0.6,1.4,0.8c1.5,0.8,3.1,1.1,4.7,0.4c1.1-0.5,2.3-0.8,3.5-0.6c2.3,0.3,4.1,1.4,5.4,3.4
		c0.7,1.1,1.3,2.3,1.9,3.4c1.6,3,3.9,5.2,7,6.5c3.8,1.6,7.6,2.8,11.6,3.5c3.8,0.6,7.6,0.4,11.3-1c2.3-0.9,4.8-1.5,6.7-3.2
		c0.3-0.3,0.8-0.1,1.2,0h0.1l0,0c-0.2,0-0.2-0.1-0.1-0.1h0.1c0.1-0.1,0.2,0,0,0v0.1h0.1l0,0l-0.1,0.1h-0.1c-0.7,0.3-1,1-1.3,1.6
		c-0.6,1-1.4,2-2.2,2.8c0.3,0.5,0.4,1.1,0.1,1.7c-0.1,0.2-0.2,0.4-0.3,0.5c-2.5,3.4-2.9,7.2-2.9,11.2c0,2.5,0.5,4.7,1.8,6.8
		c0.3,0.5,0.6,0.9,0.9,1.4s0.5,1,0.7,1.4c1,2.5,0.8,4.7-1.4,6.4c-0.5,0.4-1,0.8-1.4,1.3c-0.2,0.3-0.4,0.5-0.6,0.7
		c2.3-0.1,4.3-0.8,6.2-2.2c0.8-0.6,1.6-1.2,2.5-1.8C501.4,285.6,501.1,287.1,500.7,288.5z M523.1,224.9c-0.3,0.5-0.7,1.2-1.6,1.2
		c0.3-1.4,0.4-2.8,0.8-4.1c0.4-1.4,0.3-2.6-0.3-3.8c-0.6-1.5-1.2-3-1.9-4.5c-0.3-0.8-1-0.8-1.4-0.1c-1.1,2-2.5,3.9-3.8,5.7
		c-3.1,4-7.1,6.8-11.7,8.6c-3.6,1.5-7.3,2.5-11.1,2.5c-1.2,0-2.1,0.6-3,1.2c-2.1,1.3-4.2,2.3-6.5,2.9c-3.4,0.9-6.6,0.4-9.5-1.2
		c-4.9-2.6-9.1-6-11.3-11.4c-0.4-1-1-1.9-1.6-2.9c-2.1-3.4-3.4-6.8-3.1-10.9c0.2-3.7,1.5-6.8,4.8-8.8c1.1-0.7,2.2-1.5,3.2-2.2
		c0.5-0.4,1.2-0.4,1.8-0.3l0,0h0.1h-0.1c0.1-0.1,0.1-0.1,0.1-0.2c-0.1,0.1-0.1,0.1-0.1,0.2c0,0,0,0-0.1,0c-0.1,0.2-0.1,0.5-0.1,0.7
		c0,0.1-0.1,0.1-0.1,0.2c-2.9,5.4-2.1,10.5,1.3,15.4c1.2,1.7,2.7,2.5,4.8,2.2c0.4-0.1,1-0.1,1.2-0.4c1.2-1.4,3.1-2,4.6-2.9
		c2.1-1.3,3.8-2.8,5.1-4.9c1.4-2.2,3.6-3.4,6-4.3c0.7-0.3,1.4-0.5,2.2-0.6c1-0.1,1.6-0.8,1.8-1.6c0.6-2,1.6-3.8,2.8-5.5
		c0.9-1.2,2-2.3,3.2-3.3c0.8-0.6,1.6-1.2,2.3-1.8c3.7-3.5,7.4-3.4,11.1-1.4c1.8,1,3.6,2,5.5,2.7c2.4,1,4,2.9,5.5,5.1
		c0.7,1,1.3,2.1,1.8,3.1c3,5.3,3.5,10.9,2,16.8c-0.2,0.8-0.5,1.4-0.9,2.1C525.7,220.6,524.4,222.8,523.1,224.9z M596.3,319.9
		c-2.3,3.4-4.4,7-7.1,10.2c-4.9,6-11,10.2-18.7,12c-2.1,0.5-4.2,1.1-6.3,1.8c-5.4,1.7-10.9,2.1-16.5,1.1c-1-0.2-1.6,0.1-2.3,0.8
		c-1.4,1.6-2.7,3.5-3.1,5.7c-0.2,1.1-0.5,2.1-1,3.1c-0.5-0.2-0.8-0.7-1.5-0.5c-1.9,0.5-3.1-0.5-4-2c-0.5-0.8-0.9-1.7-1.3-2.7
		c-2.1-5.1-3.6-10.3-4.7-15.7c-0.5-2.7-1-5.3-1.7-8c-0.3-1.3-0.5-2.6-0.3-3.9c0.1-0.5,0.2-1,0.4-1.4c-0.2-0.8-0.3-1.5-0.3-2.3
		c0-2.7,0-5.5,0.1-8.2c0-0.8-0.3-1.5-0.8-2.1c-0.7-0.7-1.4-1.3-2.1-2.1c-1-1-1.4-2.2-0.9-3.6s1.6-2,3.1-2.1c1.1-0.1,2.2,0,3.3,0.1
		c1.8,0.3,3.5,0.4,5.2-0.1c0.3-0.1,0.6-0.1,1-0.1c2.5-0.2,4.2,1.2,4.5,3.6c0.1,0.3,0.1,0.7,0.1,1c-0.5,2.3,0.8,3.8,2.3,5.1
		c1.8,1.4,3.5,2.9,5.1,4.6c0.8,0.8,1.6,1.4,2.7,1.7c0.3,0.1,0.5,0.2,0.9,0.3c1.5,0.6,7.7,1.4,9.5,1.3c0.5-0.1,1-0.2,1.4-0.3
		c1.8-0.3,3.7-0.3,5.5-0.4c2.8-0.1,5.6-0.2,8.5-0.6c4-0.5,7.3-2.3,10.2-4.9c1.4-1.3,2.8-2.8,4.2-4.2c0.5-0.5,1-1.2,1.6-1.7
		c1.8-1.7,3.5-1.6,5,0.4c1.2,1.6,1.4,3.4,1.1,5.3C598.9,314.6,598,317.4,596.3,319.9z"/>
	<path class="st3" d="M411.6,287.3c2.2,0.1,2.7-0.2,3-1.6c0.3-1.5,0.5-3,0.3-4.5c-0.1-1-0.2-1.9,0.1-2.9c0.5-2.1,0.5-2.1-1-3.1
		c-0.6-0.4-1.3-0.8-2-1.2c-1.7-0.9-2.7-0.8-4.1,0.5c-2.6,2.5-2.7,5.5-1.6,8.8C407.2,286.1,409.5,287.1,411.6,287.3z"/>
	<path class="st3" d="M547.9,678.3c-3.1-1.8-6.7-2.6-10.3-3.2c-1.6-0.3-3.2-0.7-4.7-1.5c-1-0.5-1.8-0.5-2.8-0.3
		c-5.5,1.2-10.9,2.1-16.5,2.2c-4.7,0.1-9.4-0.6-14-1.6c-4.2-0.9-5.1-0.5-7,3.3c-1.5,2.9-3.1,5.7-5.6,8c-4.9,4.6-10.7,7-17.4,7.5
		c-9,0.6-16.4-2.9-22.9-8.8c-1.8-1.6-3.5-3.4-5.1-5.1c-0.9-1-1.9-1.4-3.2-1.3c-2.5,0.1-5,0-7.5,0.3c-2.1,0.3-4.2,0.3-6.2-0.1
		c-2.1-0.5-4.1-0.4-5.9,1c-0.6,0.5-1.4,0.6-2.1,0.9c-1.8,0.6-3.4,1.6-4.9,2.7c-1.2,0.8-2.2,1.9-2.6,3.3c-0.5,1.6-1.2,3.1-1.8,4.5
		c-0.9,1.8-1,3.8-1,5.7c0,1,0,2.1-0.1,3.1h108.9c0.8-1.9,1.2-4,1-6.4c-0.1-1.4-0.3-2.8-0.7-4.2c-0.8-3.6,2.5-6.8,6.5-5.8
		c2.7,0.7,4.6,2.5,6.1,4.7c2.1,3.1,3.1,6.7,3.4,10.5c0.1,0.4,0.1,0.8,0.1,1.2h18.3c-0.5-5-0.7-10.1,0.3-15.2
		c0.1-0.4,0.1-0.9,0.2-1.3C550.5,680.1,550.3,679.6,547.9,678.3z"/>
	<path class="st3" d="M691.8,203.1c0.1,1.4,0.1,2.9,0.3,4.2c0.6,4,2.6,7.4,5,10.5c1.1,1.5,2.3,2.9,3.3,4.5c1.7,2.9,3.7,5.7,6.3,7.9
		c0.1,0.1,0.2,0.3,0.2,0.5c0,0.5-0.4,0.5-0.7,0.5c-2.2-0.5-4.3-0.3-6.4,0.5c-1.1,0.4-2.4,0.2-3.6-0.2c-1.5-0.5-2.9-1.2-4.2-1.9
		c0.7,1.8,1.8,3.4,3.1,5c2.6,3,5.9,5.2,9.4,7c2.4,1.3,4.9,2.4,7.2,3.9c4.8,3.3,9.3,6.9,13.4,11c1.5,1.5,2.8,3.1,3.6,5
		s2.2,3.3,3.8,4.4c2.7,1.9,5,4.2,6.8,7c2.3,3.4,4.2,6.9,5.3,10.9c0.2,0.8,0.4,1.6,0.6,2.5c0.1,0.2,0.3,0.3,0.5,0.5
		c4.3,4.8,7,10.3,7.2,16.8c0.1,2.3-0.1,4.7-0.5,6.9c0.4,1.6,0.8,3.1,1,4.7c0.7,3.8,0.9,7.6,0.6,11.4c-0.3,3.1-0.7,6.3-1.2,9.4
		c-1.2,7.1-2.7,14.2-5.5,20.9c-1.7,4.2-3.2,8.3-4.7,12.6c-1.6,4.7-2.9,9.6-3.4,14.6c-0.6,6.9-0.5,13.7,2.4,20.3
		c2.3,5.2,4.7,10.4,8.1,14.9c3.6,4.7,7.5,9,12,12.9c2.3,2,4.8,3.8,7.3,5.5c1.7,1.2,3.1,2.7,4.7,4.1c2.9,2.9,4.5,6.4,5.3,10.3
		c0,0.1,0,0.1,0,0.1c0,0.1-0.1,0.2-0.1,0.3c0,0.1-0.1,0.1-0.1,0.1l0,0c-0.1,0-0.3,0.1-0.5,0.1c-0.1,0-0.1,0-0.1,0
		c-3.4-2.3-7.3-3.4-11.4-4c-6.4-0.9-12.2-3.4-17-7.8c-1.2-1.1-2.5-2.1-3.7-3.2c-5.3-4.4-9-10.1-12.4-16c-1.8-3-3.6-6-5.2-9.1
		c-2.3-4.1-4-8.5-5.7-12.9c-1.4-3.5-2.2-7.2-2.9-10.9c-1-1.2-1.6-2.6-2.2-4c-0.6-1.6-1.4-3.2-2-4.9c-1.6-4.1-1.8-8.3-0.3-12.5
		c0.3-0.8,0.5-1.7,0.9-2.5c-0.1-3.3-2-6.1-3.6-8.9c-0.9-1.6-2.3-2.9-3.5-4.3c-0.3-0.4-0.8-0.8-1.3-1c-3.1-1.7-6.1-3.4-9.2-5
		c-2-1-4.1-1.4-6.4-1.4c-1,0-2,0.1-2.8,0.8c0.1,0.3,0.1,0.6,0.3,0.8c3.2,3.1,4.7,7,5.6,11.3c0.4,1.7,0.3,3.5-0.3,5.2
		c-0.7,2-1.4,3.9-2.7,5.6c-1.8,2.6-5,2.3-6.5,0.4c-1-1.2-1.8-2.5-2.9-3.6c-2.4-2.7-2.9-2.8-5.4-0.3c-1.3,1.3-2.5,2.8-3.6,4.2
		c-0.4,0.5-0.3,0.9,0.2,1.3c0.6,0.5,0.2,1.2-0.1,1.8c-1,2.3-1.8,4.7-2.3,7.1c-0.6,2.5-1.1,5.1-1.2,7.7c-0.1,1.6-0.4,3.2-0.5,4.9
		c-0.1,4.9,1,9.6,2.4,14.2c1,3.1,2.1,6.2,3.4,9.2c1.2,2.9,1.7,5.8,1.1,9c-0.1,0.5-0.2,1.1-0.1,1.6c1.3,8.2,4,15.9,9,22.6
		c1,1.4,2.1,2.7,3.3,4.1c2,2.3,2.8,5.1,3.1,8.1c0.6,5.1-0.3,10-2.5,14.7c-1.2,2.6-2.8,4.7-5.5,5.8c-0.4,0.1-0.8,0.3-1.2,0.5
		c-2.3,1.2-3.5,2.7-3.4,5.7c0.1,7.1,1.8,13.8,4.4,20.3c1.2,2.9,2.7,4.8,5.9,5.3c0.8,0.1,1.6,0.5,2.4,1c1.4,0.8,2.3,2.1,2.5,3.7
		c0.1,1.3,0.1,2.7-0.1,3.9c-0.6,2.6-2,4.6-4.9,5.1c-2.4,0.3-4.7,1-7.1,1c-2.9,0-6,0.2-8.8-0.1c-3.8-0.3-7.5-1.6-10.8-3.5
		c-1.4-0.8-2.9-1.5-4.4-2.2c-4.3-1.8-8.4-4.1-11.7-7.7c-1.4-1.6-2.4-3.4-3.5-5.1c-0.5-0.8-1.1-1.3-2.1-1.2c-0.5,0.1-1.1,0.1-1.4,0.7
		c-0.6,0.9-1.3,1.8-1.7,2.8c-1.8,4.2-3.7,8.4-5.3,12.7c-1.5,3.9-2.4,7.9-3,12c-0.8,5.3-0.5,10.7-0.6,16c-0.1,3.8,1.4,7.3,2.9,10.6
		c0.3,0.6,0.8,1,1.6,1.1c1.9,0.1,2.9,1.7,4.4,2.7c0.5,0.3,0.5,1,0.5,1.5c-0.1,1.3-0.1,2.6-0.1,4c0,7.2,3.4,12.4,9.8,15.3
		c7.3,3.3,14.4,3.1,21.1-1.8c1.8-1.3,3.2-3,4.3-4.9c1.7-2.7,4-4.7,6.4-6.5c0.5-1.1,1-2.2,1.5-3.4s1.2-2.3,1.8-3.5
		c1.2-2.5,2.1-5.1,2.3-7.8c0.1-1.3,0.3-2.6,0.4-3.9c0.1-0.8,0.2-1.6,1-2c1.4-0.7,1.2-1.6,0.7-2.7c-2.3-4.8-4.8-9.4-8.8-13
		c-0.4-0.3-0.7-0.8-1-1.2c-0.1-0.1,0-0.2,0.1-0.3s0.2-0.2,0.3-0.2c0.3,0.1,0.7,0.1,1,0.2c3.6,2,7.3,4,10.3,7c1.4,0.3,2.7,0.5,4,0.8
		c2.1,0.5,4.2,1.2,6.3,1.8c0.9,0.2,1.6,0.7,2.3,1.2c1.4,1,2.7,1.9,4.2,2.5c1.1,0.3,1.7,1.3,2.5,2.1c2.1,2.2,4.2,4.1,6.8,5.7
		c0.9,0.5,1.3,0.3,1.7-0.7c1-2.8,1.6-5.7,1.8-8.6c0.5-5.1,0.8-10.3,0.8-15.4c0.1-4.7,0.2-9.4,0.7-14.1c0.5-5.5,1.6-11,2.8-16.4
		c0.7-3.2,1.5-6.4,2.1-9.6c0.5-3.4,0.5-6.6-0.7-10c-2.9-8.2-6-16.4-8.4-24.8c-0.3-1.1-0.5-2.1-0.5-3.2c0-0.2,0.1-0.5,0.1-0.7
		c-1.6-1.6-3.4-2.9-5.3-4c-3.3-1.8-4.9-4.5-4.9-8.3c0.1-2.9-0.1-5.7-0.1-8.6c-0.2-6.8-2.1-12.9-6.3-18.3c-1.1-1.4-2.1-2.8-3.1-4.2
		c-0.3-0.4-0.9-0.7-0.5-1.3c0.5-0.3,1.1-0.1,1.6,0.1c2.1,0.8,3.9,2,5.4,3.6c3.9,3.9,6.4,8.6,7.7,13.9c0.7,2.9,1.2,5.8,1.4,8.8
		c0.1,1.5,0.1,3.1,2.1,3.6c0.3,0.1,0.6,0.6,0.9,1c1.6,2.5,3.9,4.4,6.1,6.4c6.6,6,12.5,12.5,17.9,19.6c3.1,4,5.1,8.4,5.8,13.4
		c0.2,1.5,0.5,3,0.8,4.5c0.4,2.7,0.8,5.4,1.2,8.1c0.4,2.6,1.5,4.8,3.6,6.4c1.5,1.1,2.9,2.3,4.4,3.4c3.6,2.7,6.8,5.8,9.9,9.2
		c1.5,1.7,2.9,3.6,3.9,5.7c2.8,5.7,4.9,11.7,6.6,17.9c0.1,0.4,0.2,0.8,0.3,1.2c0.1,0.6,0.4,1.3-0.2,2c1.9,0.8,3.9,1.3,5.7,2.5
		c1.1,0.8,2.6-0.5,4-1c1.8-0.5,3.5-1.2,4.5-3c0.3-0.5,0.5-1,0.8-1.4c2.4-4.3,5.2-8.3,8.8-11.8c1-1,2-2.1,3-3c1.1-1,1.4-2.1,1.4-3.5
		c-0.1-1.6-0.3-3-0.8-4.5c-1.8-6.3-3.7-12.6-5.4-18.9c-1-3.7-1.6-7.5-2-11.3c-0.4-3.6-0.4-7.2-0.5-10.8c0-3.3,0.5-6.5,1-9.8
		c0.5-4.2,0.5-8.3,0-12.5c-0.4-3.6-1.3-7.1-2.5-10.5c-0.1-0.4-0.3-0.8-0.3-1.2c0-0.3,0.1-0.5,0.2-0.7c-1.7-2.7-3.9-4.9-6.7-6.7
		c-5.5-3.5-10.3-7.8-15.1-12.2c-5.1-4.6-9.2-10-12.7-15.9c-0.9-1.6-1.7-3.2-2.3-4.9c-0.5-1.3-0.8-2.6-1-4c0-0.1-0.1-0.3-0.1-0.5
		c0-0.1,0-0.1-0.1-0.3c0-0.2-0.1-0.4-0.1-0.6c-0.1-1.2-0.1-2.6,0.1-4.2c0.1,0.1,0.1,0.2,0.1,0.3c0-0.5,0.1-0.9,0.1-1.3
		c0.8,1.7,1.7,3.2,2.9,4.7c0,0,0,0.1,0.1,0.1c0.2,0.3,0.4,0.5,0.7,0.8c0.1,0.1,0.1,0.1,0.2,0.3c0.2,0.2,0.3,0.4,0.5,0.5
		c0.3,0.3,0.5,0.5,0.8,0.8c1.2,1.2,2.5,2.2,4,2.9c2.7,1.3,5.4,2.4,8.2,3.3c2.3,0.7,4.4,0.8,6.8,0c2-0.6,3.9-1.4,5.9-2.2
		c-0.5-2.1-1.6-3.8-2.6-5.4c-2.3-4-4.8-7.8-6.8-12c-2.1-4.4-3.8-9-4.7-14c-0.1-1-0.3-1.9-0.3-2.9c0-6.6-0.1-13.1,0.1-19.7
		c0.1-3.4,0.7-6.7,1-10.1c0.3-2.7,0.6-5.4,0.8-8.1c0.2-2.9,0.7-5.6,1.2-8.4c0.9-4.1,1.6-8.3,1.9-12.5c-0.4-1-0.8-2-1.2-2.9
		c-1.8-4-3.6-8-5.2-12c-4.2-10.7-10.7-19.8-19.4-27.2c-4.4-3.8-8.8-7.5-13.3-11.2c-3.4-2.9-7-5.5-11-7.7c-1.7-1-3.4-2.1-4.9-3.4
		c-3.2-2.9-5.3-6.4-5.6-10.7c-0.1-1.5-0.3-3.1-0.4-4.6c-0.8-9.2-2-18.3-4.6-27.2c-0.5-2-0.8-4.2-1.9-5.9c-1-1.6-2.9-2.6-4.4-3.9
		c-3.7-3.1-2.5-3-5.6,0.9c-0.4,0.5-0.6,1.2-0.9,1.7c-1.2,2.6-2.6,5.1-4.4,7.3C692.2,199.3,691.7,201.1,691.8,203.1z"/>
	<path class="st3" d="M425.7,292.6c-0.2-0.5-0.4-1-0.6-1.5c-0.3-0.6-0.4-1.2-0.8-1.8c-0.3-0.5-0.2-1.3-1.2-1.4c-0.5,1-0.9,2-1.4,2.9
		c-0.8,1.7-1.7,3.3-2.9,4.8c-2.8,3.5-6.5,5.3-10.9,5.2c-6-0.2-11.4-2.2-15.9-6.2c-3.1-2.7-4.4-6.2-4.5-10.2c0-1.1,0-2.1,0-3.7
		c-1.4,1.2-2.3,2.1-3.4,2.7s-1.3,1.5-1.1,2.7c1.3,6.7,5.5,11.5,10.6,15.7c0.4,0.3,0.9,0.6,1.4,0.8c1.6,0.7,3.2,1.4,4.9,1.9
		c4.2,1.4,8.2,1,11.8-1.7c2.1-1.6,4.3-2.6,6.7-3.4c1.6-0.5,3.4-0.9,5.1-1.3c1.9-0.5,2.9-2,2.6-3.9
		C426.2,293.8,426,293.2,425.7,292.6z"/>
	<path class="st3" d="M851.6,678.7c-1.8-3.7-4.1-7.2-6.7-10.3c-2.6-3.2-5.5-6.1-8.8-8.7c-3.2-2.5-6.7-4.7-10.4-6.6l0,0l-5.5-2.4
		c-0.5-0.5-1.2-1-1.8-1.6c-1.4-1.2-2.8-2.3-4.4-3.1c-6.4-3.6-13.7-5.6-20.9-6.8c-3.6-0.6-7.3-1-10.9-1.2c-2.4-0.1-4.9,0-7.3-0.4
		c-2.6-0.4-5.1-1.6-7.7-1.8c-1-0.1-2.1,0-3.1,0.1c-8.4,0.9-16.8,2.1-24.9,4.6c-4.1,1.2-8.1,2.8-11.9,4.7c-3.7,1.8-6.9,4.5-10.7,6
		c-0.9,0.3-1.8,0.8-2.7,1.2c-19.4,8.3-36.8,24.7-43.5,45l0,0c1.8-0.4,3.8,0.3,5.3-0.9c0.5-0.5,0.9-1.2,1.2-1.8
		c3.1-6.7,6.2-13.8,11.5-19c6.5-6.4,16.7-9,24.4-3.1v-0.1c0,0.1,0.1,0.1,0.1,0.1c0.5,0.3,0.9,0.8,1.3,1.2c0,0,0,0.1,0.1,0.1
		c0.1,0.1,0.3,0.3,0.4,0.3c0.5,0.5,1,1,1.4,1.5c0.1,0.1,0.1,0.2,0.2,0.3c-0.7,0-1.3,0-2,0.1c-1.4,0.1-2.7,0.5-4.1,1
		c-2.6,1-5.1,2.4-7.3,4c-0.5,0.4-1.2,0.8-1.7,1.2l-0.8,0.6l-1.5,1.2l-0.8,0.6c0,0,0.8-0.2,0.9-0.3c4-1.1,8.1-1.1,11.9,0.7
		c0.3,0.1,0.6,0.3,0.9,0.5c0.3,0.2,0.6,0.3,0.9,0.5c0.5,0.3,1.1,0.8,1.6,1.2c1,0.9,1.9,1.9,2.7,3c0.9,1.2,1.6,2.5,2.3,4l0,0
		c-0.1,0.4-0.2,0.8-0.3,1.2c-0.1,0.2-0.1,0.5-0.1,0.7c0,0.1,0,0.1,0,0.1c-0.1,0.4-0.1,0.9-0.2,1.3c0,0.1,0,0.2,0,0.3
		s0.1,0.2,0.1,0.3c0,0.2,0.1,0.4,0.1,0.6c0-0.1,0-0.1,0-0.1c0,0.1,0,0.1,0,0.1v0.1v-0.1c0.1,0.8,0.3,1.5,0.5,2.2
		c0.2,0.9,0.3,1.8,0.5,2.6c1.1,1.8,2.2,3.6,2.9,5.6c0.1,0.2,0.1,0.4,0.2,0.5c0,0.1,0,0.1,0.1,0.1c0.1,0.2,0.1,0.3,0.1,0.5
		c0,0,0,0,0,0.1c0.1,0.2,0.1,0.4,0.1,0.6c0,0.1,0,0.1,0.1,0.2c0,0.1,0.1,0.3,0.1,0.5c0,0.1,0,0.1,0,0.1c0,0.2,0.1,0.3,0.1,0.5
		c0,0.1,0,0.1,0,0.2c0,0.1,0,0.3,0.1,0.4c0,0.1,0,0.2,0,0.3s0,0.3,0.1,0.4c0,0.1,0,0.2,0,0.3s0,0.2,0,0.3c0,0.2,0,0.4,0,0.6
		c0,0.1,0,0.1,0,0.1c0,0.1,0,0.3,0,0.4c0,0,0,0,0,0.1c0,0.3,0,0.6,0,0.9c0.1,0.1,0.2,0.3,0.3,0.4c0.5,0.8,1.2,1.4,1.8,2.1
		c0.3,0.3,0.6,0.6,0.9,0.9c2.5,2.1,5.1,4.2,8.3,4.9c5.1,1.2,10.5-0.5,15.7-0.1c1,0.1,2.1,0.3,3-0.1c1.8-0.8,2.9-3.6,3.8-5.3
		c1.4-2.5,2.7-5.1,3.6-7.7c1.9-5.1,3.1-10.4,3.5-15.8c0.6-8.6-0.9-17.2-4.3-25c-1.7-3.9-3.8-7.7-6.3-11.1c-2.5-3.4-5.4-6.6-8.6-9.5
		c-0.4-0.3-0.8-0.7-1.2-1.1l-2.1-1.8H742c0,0-0.1,0,0,0h0.1l0.2,0.1l0.4,0.1l0.8,0.2l1.2,0.3l0.4,0.1l0.4,0.1l0.8,0.2
		c2.1,0.6,4.1,1.4,6,2.5c17.7,9.2,25.4,28,26.5,46.9c0,0.1,0,0.3,0,0.3c0,0.5,0.1,1.2,0,1.7c0,0.5,0,1.1-0.1,1.6s-0.1,1-0.1,1.5
		c0,0.1,0,0.1,0,0.2c-0.1,0.3-0.1,0.7-0.1,1c-0.1,0.3-0.1,0.7-0.2,1c0,0.2-0.1,0.5-0.1,0.7c-0.5,3.1-1.6,6.2-2.5,9.3
		c-1.1,3.2-2.9,6.3-1.6,9.7c2.8,7.2,9.1,9.4,16.1,10.5c0.9,0.1,1.8,0.3,2.8,0.4c1.2,0.1,2.3,0.3,3.5,0.4c1.4,0.1,2.7,0.3,4,0.4
		c0.3,0,0.5,0.1,0.8,0.1c0.2,0,0.5,0,0.7,0.1c0.5,0,1,0,1.4,0c0-0.1,0-0.1,0-0.1c0.6-2.7,2.1-5.1,3.3-7.5c5.9-11.4,8.1-25,6.3-37.9
		c-1.7-12-8.5-23.1-16.9-31.7c-0.8-0.8-1.7-1.9-1.6-3.1c2.9,0.8,6.2,3.3,8.8,4.9c3.2,2,6.3,4.1,9.2,6.5c5.3,4.4,10.2,10.1,11.3,17
		c2.1,13.3,5.7,14.2,4,27.6c-0.5,3.6-2.7,6.8-3.4,10.4c-1,5-1.3,9.6-3.1,14.4c-0.1,0.3-0.3,0.6-0.3,0.9c-0.1,0.3-0.3,2.9-0.9,2.7
		c2.4,0.8,14,3.1,14.6-1.1l0.3-2.3l2.9-16.1c2.8-15.9,3.2-31.7-4-46.5c-1.5-3.1-4.2-9.2-6.2-11c0.3,0.2,0.5,0.5,0.8,0.7
		c3.9,3.8,7.6,7.3,10.5,11.9c3.4,5.4,6.4,11.5,8.6,17.4c0.2,0.5,0.3,1,0.5,1.4c0.6,1.9,1.2,3.9,1.6,5.9c0.8,4,1.2,7.9,1.2,12
		c-0.1,4-0.5,7.9-1.4,11.8c-0.3,1.2-0.6,2.3-1,3.5c0.3-0.1,0.7-0.1,1-0.3c1-0.4,1.8-1.1,2.5-1.9c0.7-0.8,1.3-1.6,1.8-2.6
		c0.5-0.9,0.9-1.9,1.2-2.9c0.1-0.5,0.3-1,0.4-1.5C859.2,705.9,857.9,691.1,851.6,678.7z M721.7,648.6L721.7,648.6
		C721.8,648.5,721.8,648.5,721.7,648.6L721.7,648.6z"/>
	<path class="st3" d="M293.1,652.3c-0.9-0.4-1.8-0.8-2.7-1.2c-3.8-1.5-7-4.1-10.7-6c-3.8-1.9-7.8-3.5-11.9-4.7
		c-8.1-2.5-16.5-3.7-24.9-4.6c-1-0.1-2.1-0.2-3.1-0.1c-2.7,0.2-5.1,1.4-7.7,1.8c-2.4,0.4-4.9,0.3-7.3,0.4c-3.7,0.2-7.3,0.6-10.9,1.2
		c-7.3,1.2-14.4,3.2-20.9,6.8c-1.6,0.9-3,2-4.4,3.1c-0.6,0.5-1.2,1-1.8,1.6l-5.5,2.4l0,0c-3.7,1.8-7.2,4-10.4,6.6s-6.2,5.5-8.8,8.7
		s-4.9,6.7-6.7,10.3c-6.3,12.5-7.5,27.2-3.9,40.6c0.1,0.5,0.3,1,0.4,1.5c0.3,1,0.8,2,1.2,2.9c0.5,0.9,1.1,1.8,1.8,2.6
		s1.6,1.4,2.5,1.9c0.3,0.1,0.7,0.3,1,0.3c-0.3-1.2-0.7-2.3-1-3.5c-0.9-3.9-1.3-7.9-1.4-11.8c0.1-4,0.5-8,1.2-12c0.4-2,1-4,1.6-5.9
		c0.1-0.5,0.3-1,0.5-1.4c2.3-6,5.2-12,8.6-17.4c2.9-4.7,6.6-8.1,10.5-11.9c0.2-0.2,0.5-0.5,0.8-0.7c-2,1.8-4.7,7.9-6.2,11
		c-7.2,14.8-6.8,30.6-4,46.5l2.9,16.1l0.3,2.3c0.6,4.2,12.2,1.9,14.6,1.1c-0.6,0.2-0.8-2.3-0.9-2.7c-0.1-0.3-0.2-0.6-0.3-0.9
		c-1.8-4.8-2.2-9.4-3.1-14.4c-0.7-3.6-2.9-6.8-3.4-10.4c-1.8-13.4,1.9-14.2,4-27.6c1.1-7,6-12.7,11.3-17c2.9-2.4,6-4.5,9.2-6.5
		c2.6-1.6,5.8-4.1,8.8-4.9c0.1,1.2-0.8,2.3-1.6,3.1c-8.4,8.6-15.2,19.7-16.9,31.7c-1.8,12.9,0.4,26.5,6.3,37.9
		c1.2,2.4,2.7,4.8,3.3,7.5c0,0.1,0,0.1,0,0.1c0.5,0,1,0,1.4,0c0.2,0,0.5,0,0.7-0.1c0.3,0,0.5-0.1,0.8-0.1c1.4-0.1,2.7-0.3,4-0.4
		c1.2-0.1,2.3-0.2,3.5-0.4c1-0.1,1.8-0.2,2.8-0.4c7-1.1,13.3-3.4,16.1-10.5c1.3-3.4-0.5-6.5-1.6-9.7c-1-3-2.1-6.1-2.5-9.3
		c-0.1-0.2-0.1-0.5-0.1-0.7c-0.1-0.3-0.1-0.7-0.2-1c-0.1-0.3-0.1-0.7-0.1-1c0-0.1,0-0.1,0-0.2c-0.1-0.5-0.1-1-0.1-1.5
		c-0.1-0.5-0.1-1.1-0.1-1.6s0-1.2,0-1.7c0-0.1,0-0.3,0-0.3c1.2-19,8.8-37.7,26.5-46.9c1.9-1,3.9-1.8,6-2.5l0.8-0.2l0.4-0.1l0.4-0.1
		l1.2-0.3l0.8-0.2l0.4-0.1l0.2-0.1h0.1l0,0h-0.1l-2.1,1.8c-0.4,0.3-0.8,0.7-1.2,1.1c-3.1,2.9-6,6.1-8.6,9.5
		c-2.5,3.5-4.7,7.2-6.3,11.1c-3.4,7.8-4.9,16.5-4.3,25c0.4,5.4,1.6,10.7,3.5,15.8c1,2.7,2.2,5.3,3.6,7.7c1,1.6,2.1,4.5,3.8,5.3
		c1,0.4,2,0.2,3,0.1c5.3-0.4,10.6,1.2,15.7,0.1c3.3-0.8,5.8-2.7,8.3-4.9c0.3-0.3,0.6-0.6,0.9-0.9c0.6-0.7,1.2-1.4,1.8-2.1
		c0.1-0.1,0.2-0.3,0.3-0.4c0-0.3,0-0.6,0-0.9c0,0,0,0,0-0.1s0-0.3,0-0.4c0-0.1,0-0.1,0-0.1c0-0.2,0-0.4,0-0.6c0-0.1,0-0.2,0-0.3
		s0-0.2,0-0.3s0-0.3,0.1-0.4c0-0.1,0-0.2,0-0.3s0-0.3,0.1-0.4c0-0.1,0-0.1,0-0.2c0-0.2,0.1-0.3,0.1-0.5c0-0.1,0-0.1,0-0.1
		c0-0.1,0.1-0.3,0.1-0.5c0-0.1,0-0.1,0.1-0.2c0.1-0.2,0.1-0.4,0.1-0.6c0,0,0,0,0-0.1c0.1-0.2,0.1-0.3,0.1-0.5c0-0.1,0-0.1,0.1-0.1
		c0.1-0.2,0.1-0.4,0.2-0.5c0.7-2,1.8-3.8,2.9-5.6c0.2-0.9,0.4-1.8,0.5-2.6s0.3-1.4,0.5-2.2v0.1V699c0-0.1,0-0.1,0-0.1
		c0,0.1,0,0.1,0,0.1c0.1-0.2,0.1-0.4,0.1-0.6c0-0.1,0-0.2,0.1-0.3c0-0.1,0-0.2,0-0.3c-0.1-0.5-0.1-0.9-0.2-1.3c0-0.1,0-0.1,0-0.1
		c-0.1-0.2-0.1-0.5-0.1-0.7c-0.1-0.4-0.2-0.8-0.3-1.2l0,0c0.7-1.4,1.4-2.7,2.3-4c0.8-1.1,1.7-2.1,2.7-3c0.5-0.4,1-0.9,1.6-1.2
		c0.3-0.2,0.6-0.3,0.9-0.5c0.3-0.1,0.6-0.3,0.9-0.5c3.8-1.8,7.9-1.8,11.9-0.7c0.1,0,0.9,0.3,0.9,0.3l-0.8-0.6l-1.5-1.2l-0.8-0.6
		c-0.5-0.4-1.1-0.8-1.7-1.2c-2.3-1.6-4.7-3-7.3-4c-1.3-0.5-2.7-0.8-4.1-1c-0.6-0.1-1.3-0.1-2-0.1c0.1-0.1,0.1-0.2,0.2-0.3
		c0.4-0.5,0.9-1,1.4-1.5c0.1-0.1,0.3-0.3,0.4-0.3c0,0,0-0.1,0.1-0.1c0.4-0.4,0.8-0.8,1.3-1.2c0-0.1,0.1-0.1,0.1-0.1v0.1
		c7.7-5.9,17.9-3.4,24.4,3.1c5.3,5.2,8.3,12.2,11.5,19c0.3,0.7,0.6,1.4,1.2,1.8c1.4,1.2,3.5,0.5,5.3,0.9l0,0
		C329.8,677,312.5,660.6,293.1,652.3z M285.2,648.5c0.1,0,0.1,0.1,0.1,0.1l0,0C285.3,648.6,285.3,648.5,285.2,648.5z"/>
</g>
</svg>
