<?xml version="1.0" encoding="utf-8"?>
<!-- Generator: Adobe Illustrator 24.0.1, SVG Export Plug-In . SVG Version: 6.00 Build 0)  -->
<svg version="1.1" id="Layer_1" xmlns="http://www.w3.org/2000/svg" xmlns:xlink="http://www.w3.org/1999/xlink" x="0px" y="0px"
	 viewBox="0 0 990 781.2" style="enable-background:new 0 0 990 781.2;" xml:space="preserve">
<style type="text/css">
	.st0{fill:#E4706B;}
	.st1{fill:#FEFDFD;}
	.st2{fill:#ADADAC;}
	.st3{fill:#525358;}
</style>
<g>
	<path d="M173.5,727.8c-0.3,1.6-0.6,2.6-0.7,3.6c-0.5,3.9-2.7,7-5.1,9.9c-1.2,1.5-3,1.6-4.6,1.1c-5.2-1.4-9.8-3.7-13.5-7.8
		c-4-4.3-7.9-8.6-10.9-13.7c-0.8-1.4-2-2.5-3.4-3.3c-7.3-4-12.2-10.4-16.5-17.4c-0.4-0.6-0.7-1.2-1-1.9c-1.7-4.6-3.3-9.2-4.1-14
		c-0.7-4.2-0.5-8.5-0.3-12.7c0.4-7.1,1.7-14.1,4.1-20.9c1.8-5.1,4.6-9.7,8.5-13.5c1.8-1.7,3.5-3.5,5.5-5.1
		c5.7-4.5,11.4-9.1,17.2-13.4c11.5-8.5,24.5-13.7,38.7-15.8c1.4-0.2,2.1-0.8,2.7-2c3.8-7.3,8.1-14.3,12.9-21
		c3.3-4.6,6.9-9,11.1-12.9c1.8-1.6,2.4-3.4,2.4-5.7c-0.1-3.8-0.1-7.5,0.4-11.3c0.7-5.6,2.5-10.9,4.8-16c3.6-7.9,8.3-15.1,13.7-21.9
		c1.7-2.1,3.6-4,5.9-5.6c2-1.4,4.1-2.5,6.6-2.7c1.7-0.1,2.1-0.5,2.3-2.2c1.2-8.4,4.1-16.4,7.2-24.3c3.7-9.3,7.3-18.6,10.9-27.9
		c3.6-9.2,8.3-17.8,15.2-25.1c1.2-1.2,1.9-2.8,2.7-4.3c1.6-2.9,3.2-5.7,6.2-7.5c1-0.6,1-1.3,0.3-2.2c-1.9-2.4-3.6-4.9-5.3-7.4
		c-0.2-0.3-0.5-0.7-0.8-0.9c-0.8-0.7-1.4-0.6-1.9,0.3c-0.1,0.1-0.1,0.3-0.2,0.5c-1.1,3.6-3.5,6.1-6.6,7.9c-3.7,2.1-7,4.6-10,7.8
		c-2.3,2.5-5.4,3.7-8.9,2.9c-1.3-0.3-2.5-0.1-3.8,0.3c-5.6,1.9-10.1,0.2-13.1-4.9c-0.7-1.2-1.4-2.5-2.1-3.8
		c-2.7-4.8-6.5-8.3-11.6-10.2c-7.1-2.6-13.3-6.5-19-11.5c-1.4-1.2-1.4-1.2-2.9,0c-0.3,0.2-0.6,0.5-0.9,0.8c-1.8,1.6-3.6,1.8-5.7,0.5
		c-1.8-1.1-3.7-2.2-5.4-3.5c-4.4-3.4-8.4-7.1-12.3-11.1c-4.6-4.7-8-10.1-10.4-16.2c-0.7-1.9-1.4-3.7-2.1-5.6c-0.7-2-0.9-2.1-3-1.5
		c-2.3,0.7-4.7,1-7.1,0.5c-4.3-1-6.9-4.7-6.3-9.1c0.4-2.5,1.3-4.8,2.5-7c1.7-3.2,2.6-6.7,2.6-10.4c0-3.1-0.7-5.8-2.4-8.4
		c-4.2-6.5-7.1-13.6-8.9-21.1c-1.5-6.3-2-12.8-1.6-19.3c0.2-3.1,1.1-6.1,2.6-8.9c0.9-1.6,0.9-3.1,0.3-4.8c-3-7.7-2.4-15.3,0.8-22.9
		c3.4-7.9,8.3-14.8,13.8-21.2c2-2.4,2-2.4-0.6-4c-5.7-3.7-8.7-8.8-7.9-15.8c0.5-3.9,3.2-6.5,7.1-7c2.6-0.4,5.3-0.3,7.9,0
		c6.2,0.6,10.4-2.2,13.3-7.4c0.9-1.5,1.6-3.1,2.4-4.7c1.7-3.3,3.8-6.3,6.2-9.1c2.2-2.6,4.8-4.7,7.8-6.2c4.8-2.4,9.3-5.3,13.8-8.2
		c4.3-2.8,7.8-6.3,10.8-10.5c1.5-2.1,3.1-4.3,4.7-6.3c5.5-6.9,12.8-10.7,21.5-11.7c7.8-1,14.8-3.8,21.4-8c1.9-1.3,3.7-2.8,5.3-4.5
		c1-1.1,2-2,3.2-2.9c2.2-1.5,3-3.6,2.5-6.3c-0.9-4.8,0.7-8.8,4.1-12.2c2.5-2.4,5.5-3.4,8.8-2.4c2.8,0.8,5.4,0.3,7.9-0.9
		c2.7-1.3,5-3.2,7-5.4c1.8-2,3.6-4.1,5.3-6.2c1.8-2.1,4.1-3.6,6.5-5.2c3.4-2.3,6.9-3,10.8-3.1c1.9,0,2.2-0.6,1.2-2.2
		c-1.2-2-2.1-3.9-2-6.3c0.1-2.6,1.3-4.5,3.6-5.4c3.6-1.5,7.3-2.4,11.2-1.3c1,0.3,2,0.2,3.1,0c10.8-2.4,21-6.6,31-11.4
		c1.1-0.6,2.3-1.1,3.4-1.7c1-0.5,1.8-1.1,2.3-2c1.1-1.9,2.9-3,4.9-3.6c10.5-3.2,21-3.2,31.4,0c4.3,1.4,7.8,4.3,11.4,6.9
		c2.2,1.6,4.5,3,7.1,4c4.4,1.7,8.9,1.9,13.4,0.6c5.1-1.5,10-3.4,15-5.2c3.2-1.1,6.5-2.2,9.9-2.7c4.8-0.8,9.4-0.1,13.9,1.6
		c0.6,0.2,1.2,0.4,1.8,0.7c3.2,1.5,6.3,1.2,9.7-0.1c7.4-2.9,14.9-5.4,22.4-7.7c5-1.6,10.3-2.2,15.6-2.1c4.8,0.1,9.4,0.9,13.8,2.7
		c3,1.2,6.1,2.5,9.1,3.8c3.3,1.4,6.7,2,10.3,1.2c7.3-1.5,14.5-0.6,21.5,1.7c5.7,1.9,10.4,5.2,14.5,9.5c0.7,0.7,1.3,1.4,2,2.1
		c1.5,1.4,3.3,1.9,5.3,1.3c1.9-0.6,3.7-1.4,5.5-2.3c3.3-1.6,6.6-3.3,9.9-4.9c2.1-1,4.3-1.8,6.6-2.2c5-0.9,9.7,1.1,12.3,5.5
		c1.7,2.7,2.3,5.8,2.4,8.9c0.1,2.1,0.1,4.2,0.1,6.2c0,2.4,1,3.9,3.4,4.4c1.6,0.3,3,1,4.5,1.5c1.8,0.7,3.7,1.3,5.1,2.6
		c3.2,2.7,7,4.3,10.7,6.2c6.4,3.3,11.4,8.2,15.6,13.9c2.3,3.2,4.7,6.3,6.9,9.6c2.8,4.1,6.6,6.9,11.2,8.7c6.3,2.5,12.8,4.5,19.4,6
		c7.1,1.7,13.7,4.4,20,7.9c5.4,2.9,10.1,6.7,14,11.5c3.6,4.4,7.2,8.8,10.9,13.1c3.5,4.2,7.8,7.1,12.8,8.9c6.6,2.4,13.1,5.1,18.8,9.4
		c4.1,3.1,7.7,6.7,10.3,11.3c1.4,2.5,2.4,5,2.9,7.8c0.5,3.1,1.3,6.1,2.4,9c0.8,2.2,1,4.5,0.6,6.9c-0.5,3.2-2.1,5.8-4.5,7.9
		c-1.7,1.5-1.7,1.6-0.5,3.6c3.2,5.4,5.3,11.2,6.1,17.5c0.6,5.1,0.1,10.1-0.5,15.1c-0.3,2.4-0.5,4.8-1.2,7.1
		c-0.3,1.2-0.2,2.4,0.4,3.5c0.8,1.7,1.6,3.5,2.4,5.2c3,6.5,5.7,13.2,7.4,20.2c1.3,5.5,1.4,11.1,0.8,16.7c-0.3,2.2-1,4.4-2.2,6.3
		c-1,1.7-1,3.3-0.3,5.2c4,9.7,2,18.3-5,25.9c-2.9,3.2-6.6,5.6-10.6,7.3c-2.2,0.9-3.3,2.4-3.7,4.8c-2.1,13.1-7.1,25.2-14.3,36.3
		c-2.9,4.6-6.8,8.3-11.5,10.9c-3.6,2-7.2,4.2-11.3,5c-0.9,0.2-1.4,0.7-1.7,1.5c-0.2,0.6-0.5,1.2-0.7,1.8c-2.4,6-6.5,10.6-11.9,14
		c-3.5,2.2-7.3,3.1-11.5,2.6c-2.6-0.3-4.9-1.4-6.9-3.1c-1.6-1.3-1.7-1.3-3,0.4c-0.3,0.4-0.6,0.8-0.8,1.2c-3.6,5.4-8.5,9-14.7,11
		c-0.2,0-0.3,0.1-0.5,0.2c-2.1,0.8-2.2,0.9-1.2,2.9c1.4,2.7,2.6,5.5,3.3,8.5c1.6,6.2,1.3,12.4,0.7,18.6c-0.3,2.8-0.5,5.6,0,8.4
		c0.5,2.4,1.5,4.5,3.1,6.4c9.4,10.8,15.3,23.3,17.9,37.4c0.6,3,1,6,1.2,9c0.1,1.5,0.4,2.8,1.1,4.1c4,7.3,5.7,15.2,6.6,23.4
		c0.9,8.3,0.7,16.6,0.9,24.9c0.1,4,0.4,8,1.5,11.9c1,3.4,2.5,6.6,4.4,9.5c0.6,1,1.3,1.3,2.6,1.2c7-0.8,14-1.2,21.1-0.7
		c9.7,0.6,19.1,2.8,28.2,6.1c13.3,4.7,24.7,12.6,36,20.7c0.6,0.4,1.1,0.9,1.5,1.5c5.5,6.9,10.6,14,14.9,21.7
		c0.9,1.6,1.7,3.3,2.5,4.9c2.8,5.5,3.4,11.2,2.4,17.2c-1.4,8.1-3.8,16-6.7,23.7c-1,2.6-2.6,4.8-4.2,7c-3.4,4.8-7.2,9.2-12.5,12.1
		c-2.2,1.2-3.8,2.8-5.1,4.9c-2.9,5-6.8,9.1-10.7,13.2c-3.6,3.8-8.1,5.9-13,7.3c-2.5,0.7-3.9-0.2-5.5-2.2c-2.9-3.4-4.2-7.5-4.7-11.7
		c-0.9-0.4-1.2,0.2-1.6,0.6c-1.6,1.5-3.2,3.1-4.8,4.7c-1.3,1.2-2.6,2.3-4.2,3.2c-3,1.7-5.9,1.2-8.1-1.4c-0.8-0.9-1.3-2-1.7-3.1
		c-1.4-3.6-2.2-7.4-1.9-11.3c0.2-2.1-0.6-3.5-2.4-4.5c-1.5-0.8-2.9-1.7-4.4-2.3c-3.6-1.6-5.9-4.3-7.1-8c-0.9-2.6-1.5-2.7-3.4-0.7
		c-1.6,1.7-2.6,3.8-3.2,6.1c-1.1,3.8-3.1,7.2-5.6,10.2c-1.2,1.5-2.6,2.8-4.2,3.9c-3.5,2.6-7.7,1.9-10.2-1.6c-1.6-2.2-2.5-4.6-3-7.2
		c-0.2-1.1-0.5-2.2-0.5-3.3c-0.1-1.8-1-3.1-2.5-3.8c-4.5-2.3-8-5.8-11.5-9.3c-1.6-1.6-3.2-3.2-4-5.3c-0.3-0.8-0.9-1-1.7-1
		c-0.6,0-1.3,0-1.9,0c-154.3,0-308.5,0-462.8,0c-0.5,0-1,0-1.4,0c-1.2-0.1-2,0.2-2.4,1.5c-0.2,0.6-0.6,1.2-1,1.6
		c-3.7,4.3-7.6,8.4-12.6,11.4c-0.6,0.4-1.3,0.7-1.9,1.1c-1.4,0.8-2.3,1.9-2.4,3.6c-0.2,1.7-0.5,3.3-0.9,4.9
		c-0.5,2.1-1.4,4.1-2.7,5.8c-2.6,3.6-6.8,4.2-10.3,1.6c-4.8-3.6-7.9-8.3-9.7-14c-0.7-2.1-1.4-4.1-2.8-5.8c-0.3-0.4-0.6-0.7-1-1.1
		c-1.5-1.4-2.1-1.3-2.7,0.8c-1.3,4.2-3.9,7.1-7.9,8.7c-1.4,0.6-2.7,1.4-4,2.2c-1.7,1-2.4,2.3-2.2,4.4c0.4,4.1-0.5,7.9-2,11.7
		c-0.4,1-0.8,1.9-1.5,2.7c-1.7,2-4.6,3.7-8.1,1.4c-2.2-1.4-4.2-3.2-6.1-5.1C176.5,730.6,175.2,729.4,173.5,727.8z"/>
</g>
<g>
	<path class="st0" d="M553.9,528.5c-1.6-6.3-1.5-12.6-0.6-19c1.5-9.9,5.7-19,9.7-28.6c-12.1,0.8-21.7-4.7-30.5-12
		c-0.9,0.5-1,1.2-1.3,1.7c-2.6,5.1-7,7-12.5,5.4c-3.1-0.9-5.7-2.6-8.2-4.6c-0.9-0.7-1.5-1.6-2.9-2.1c0.3,2.4,1.1,4.6,1.8,6.7
		c2.7,7.7,3.2,15.4,1.6,23.4c-1.8,9.4-3.1,18.9-3.7,28.5c-0.4,5.2-0.6,10.5-1.6,15.7c-0.4,1.9-0.1,3.4,0.8,5s1.8,3.2,2.3,5
		c1,3.6-0.1,6.6-2.7,9c-2.1,2-4.7,1.7-6.4-0.7c-0.5-0.7-0.8-1.4-1.1-2.2c-1.1-2.8-1.6-5.7-1.2-8.7c0.6-5.5,0.3-11-0.1-16.6
		c-0.9-13.4-2.3-26.8-2.1-40.3c0-2.4-0.2-4.8-0.5-7.2c-0.6-4.6-0.9-9.2-0.7-13.8c0-0.7,0.4-1.6-0.6-2.3c-0.4,0.4-0.8,0.7-1.3,1.1
		c-7.5,6.5-15.2,7.2-23.6,2c-2.2-1.4-2.3-1.5-4.2,0.2c-4,3.5-8.7,5.9-13.7,7.5c-0.8,0.3-1.3,0.6-1.1,1.5c0.9,4.9,0.8,9.9,2.5,14.7
		c0.8,2.2,1.4,4.4,2.1,6.6c2.1,6.6,2.5,13.3,1.4,20.2c-1.5,8.7-2.3,17.5-3.1,26.4c-1.3,15.2,3.4,28.7,11.9,41.1
		c1.3,1.8,2.7,3.5,4.4,5c3.6,3.3,7.7,5.9,11.9,8.5c4.2,2.6,9,3.6,13.6,5.1c6.6,2.2,13.6,2,20.5,0c1.9-0.6,3.9-1.1,5.9-1.7
		c5-1.4,9.3-3.8,13.2-7.2c4.3-3.7,7.8-8.1,11.3-12.5c3.2-4,5.6-8.4,7.3-13.3c2.8-8.4,5.2-16.9,5.4-25.9c0.1-3.4,0.3-6.9-0.8-10.2
		C555.7,536.4,554.9,532.4,553.9,528.5z"/>
</g>
<g>
	<path class="st1" d="M707.8,506.6c-0.1-0.7-0.2-1.3-0.3-2c0-0.1-0.1-0.3-0.1-0.4c-0.2-1,0-2-0.1-3.1c-0.1-1-0.4-2-0.6-3.1
		c0-0.3-0.1-0.5-0.1-0.8c-0.1-0.6-0.1-1.3-0.2-1.9c-0.2-1-0.4-2-0.6-3.1c0-0.3-0.1-0.5-0.1-0.8c0-0.4-0.1-0.8-0.1-1.2
		c-0.1-0.8-0.2-1.5-0.3-2.3c0-0.3-0.1-0.6-0.1-0.9c0-0.2-0.1-0.4-0.1-0.6c0-0.1,0-0.1,0-0.2c0-0.7,0-1.3,0-2l0,0c0-1,0-2.1,0-3.1
		c0-0.3,0-0.6,0-1s0-0.7,0-1.1c0-0.3,0-0.7,0.1-1c0-0.1,0-0.1,0-0.2s0.1-0.2,0.1-0.4c0-0.1,0-0.1,0.1-0.2c0,0,0,0,0.1-0.1
		c0,0-0.1,0-0.1,0.1c-0.7,0-1.3,0.3-1.5,1.1c-1.4,0.8-2.7,1.6-4,2.4s-2.7,1.6-4.1,2.2c-0.1,0-0.2,0.1-0.3,0.2
		c-0.3,0.2-0.6,0.3-0.9,0.4c-1.5,0.5-2.9,1.2-4.1,2c-1.6,1-3,2.3-4.1,3.7c-0.3,0.4-0.6,0.7-0.8,1.1c-1.1,1.5-2,3.1-2.8,4.8
		c-0.4,0.9-0.8,1.7-1.1,2.6c-0.4,0.9-0.7,1.8-1,2.7c-0.2,0.6-0.4,1.2-0.4,1.8c-0.2,1.8,0.1,3.7,0.7,5.5c0.2,0.5,0.3,1.1,0.5,1.6
		s0.4,1,0.6,1.5c0.9,2.1,1.4,4.3,1.6,6.4c0.1,1.4,0.1,2.9,0,4.3c-0.2,2.1-0.7,4.3-1.5,6.5c-1.4,3.8-2.9,7.5-5.6,10.6
		c-0.2,0.2-0.3,0.3-0.5,0.5c-1.1,1.1-2.4,1.6-3.6,1.8c-0.5,0.1-1.1,0.1-1.7,0.1c-0.9,0-1.9-0.2-2.9-0.4c-0.3-0.1-0.5-0.1-0.8-0.3
		c-0.2-0.1-0.5-0.2-0.7-0.4c-0.4-0.3-0.8-0.7-1.1-1.1c-0.5-0.6-0.8-1.4-1.1-2.2c-0.1-0.3-0.2-0.5-0.3-0.8c-0.2-0.5-0.3-0.9-0.5-1.4
		c-0.3-0.9-0.7-1.8-1.1-2.7c-0.2-0.4-0.4-0.9-0.7-1.3c-0.3-0.5-0.6-1-0.9-1.5c-0.3-0.5-0.7-1-1.1-1.4c-0.5-0.5-0.9-0.6-1.3-0.4
		c-0.1,0.1-0.3,0.3-0.4,0.5c0,0.1-0.1,0.2-0.1,0.4c-0.4,1.8-0.7,3.6-1.3,5.3c-0.9,2.6-2.2,5-4.1,7c-0.3,0.3-0.5,0.6-0.8,0.9
		c-0.8,0.8-1.6,1.6-2.4,2.4l0,0c0.4,3.6,0.8,7.2,1,10.7c0.5,10.2-4.7,17.9-11.8,24.6c-0.5,0.4-1,0.8-1.6,1.1
		c-0.9,0.4-1.8,0.4-2.6-0.4c-0.8-0.7-0.8-1.6-0.4-2.6c0.2-0.5,0.5-1,0.8-1.4c1.1-1.7,2-3.6,2.7-5.5c-1.8,0.2-3.8-0.1-6-1
		c-0.5-0.2-1.1-0.4-1.6-0.4c-3.9-0.5-7.8-0.8-11.6-0.1c-4.4,0.8-7.7,3.7-10.4,7.3c-1.8,2.3-3.5,4.7-5.3,7.1c-3.7,5-8,9.4-13.3,12.8
		c-2.1,1.4-4.3,2.6-6.6,3.7c-1.1,0.5-2.3,1-3.5,1.4c-0.6,0.2-1.2,0.4-1.8,0.6c-0.6,0.2-1.2,0.3-1.9,0.4c-0.3,0.1-0.7,0.1-1,0.2
		c-0.3,0-0.7,0.1-1,0.1c-0.7,0-1.4,0.1-2.1,0c-0.7,0-1.4,0-2.1-0.1c-0.7,0-1.4-0.1-2.1-0.1c-0.2,0-0.4,0-0.5-0.1
		c-2.7-0.9-2.7-0.9-3.6,1.8c-0.7,2-1.6,3.9-2.8,5.7c-2,2.8-3.8,5.6-5.8,8.4c-2.5,3.7-5.9,6.4-9.7,8.4c-6.5,3.4-12.9,7-19.2,10.7
		c-3.8,2.2-7.3,4.6-10.5,7.6c-2.9,2.7-5.6,5.6-7.9,8.9c-4.2,6-4.7,12.3-2.1,18.7h85.4c-0.3-2.2-0.5-4.5-0.1-6.7
		c0.1-0.9-0.4-1.3-1.2-1.5c-1.4-0.3-2.9-0.8-4.2-1.5c-2.4-1.3-4.3-3.2-5.6-5.6c-1.7-3.2-2.5-6.7-3.3-10.2c-0.1-0.4-0.1-0.9-0.1-1.4
		c0.1-1.4,0.6-2.6,1.9-3.1c1.4-0.6,2.7-0.3,3.8,0.9c2.2,2.4,4.8,4.3,7.3,6.4c1.4,1.2,2.8,2,4.8,1.2c0.6-0.2,1.3-0.3,1.9-0.1
		c2.4,0.5,4.4-0.4,6.3-1.5c3.8-2.1,6.9-4.6,8.6-8.9c1.4-3.6,3.5-6.9,5.6-10.2s3.8-6.7,5.8-10.1c0.7-1.1,0.8-2.2,0.8-3.5
		c0-2.9,0-5.7,0-8.6l0,0c0-2.5,0-5,0-7.5c0-0.7,0-1.5,0.1-2.2c0.5-3.6,3.3-5,6.4-3c1.7,1.1,2.8,2.6,3.8,4.3c1.2,2,2,4.2,2.4,6.5
		c0.2,1.1,0.3,2.2,0.5,3.3c0.1,0,0.1,0,0.2,0c0.4,0,0.7,0,1.1,0.1c1.4,0.2,2.8,0.9,3.7,2c0.3,0.4,0.6,0.8,0.9,1.2
		c0.1,0.1,0.2,0.3,0.2,0.4c0.9,2.1,2.1,3.9,3.5,5.6c0.4,0.4,0.7,0.8,1.1,1.2c1.1,1.2,2.4,2.3,3.6,3.5c1.8,1.7,3.4,3.5,4.7,5.5
		c0.3,0.5,0.7,1,1,1.5c0.6,1,1.1,2.1,1.6,3.3c0.2,0.6,0.5,1.1,0.7,1.7c0.2,0.5,0.3,1.1,0.5,1.7c0.4,1.7,0.5,3.4,0.9,5.1
		c-0.1,0.5,0,0.9,0.4,1.2l0,0c0.1,0.3,0.1,0.6,0.2,1c-0.1,0.5-0.1,0.9,0.4,1.2c0.1,0.5,0.1,1.1,0.2,1.6c-0.1,0.8-0.4,1.6,0.4,2.3
		c0,2.2,0,4.4,0,6.6c-0.9,1.1-0.5,2.2-0.4,3.4c0,0.3,0,0.6,0,0.9s0.1,0.6,0.1,0.8s0.1,0.4,0.2,0.6c0.4,1.4,1,2.8,1.3,4.2
		c0,0,0,0,0.1,0s0.1,0,0.2,0.1l0,0c-0.1,0-0.2-0.1-0.3-0.1c-0.1,0.2-0.1,0.5,0,0.7s0.2,0.4,0.4,0.5c0,0.3,0.1,0.7,0.1,1
		c-0.1,0.6-0.2,1.3,0.4,1.7c0.1,0.8,0.1,1.6,0.2,2.4l0,0h4.9c0.2-0.1,0.4-0.3,0.6-0.4c0.9-0.7,1.8-1.3,2.7-2.1
		c0.5-0.5,1-0.9,1.5-1.4c0,0,0,0,0.1-0.1c0.2-0.3,0.4-0.5,0.6-0.8c1.8-2.4,3.6-5,5.3-7.5c0.5-0.7,1-1.4,1.5-2.2
		c0.2-0.3,0.3-0.5,0.5-0.8c0.5-0.8,1-1.5,1.6-2.2c0-0.1,0.1-0.1,0.1-0.2c2.3-3.3,4.6-6.5,7.1-9.6c0.2-0.2,0.3-0.4,0.5-0.6
		c-1.3-3.7-2.6-7.4-4.3-10.9c-1.1-2.3-2-4.6-2.1-7.1c-0.1-1-0.5-1.7-1.3-2.3c-1.1-0.9-2.1-1.8-3-2.9c-2.5-2.9-1.9-6.5,1.5-8.4
		c2.6-1.5,5.5-2,8.5-2c1,0,1.6-0.1,1.8-1.1c1.1-7.4,4.1-14.4,5.4-21.7c1.3-7.4,1.6-14.8,1.6-22.3c0-0.9-0.4-1.5-1-2.2
		c-1.3-1.3-2.7-2.5-4.4-3.3c-1.3-0.7-2.6-1.4-3.7-2.4c-3.9-3.4-4.3-8.6-1.1-12.7c0.9-1.2,2-2.1,3.2-3c2.2-1.6,3.8-3.7,5.8-5.5
		c0.8-0.8,1-1.7,1-2.8c0.1-6.7,0.6-13.5-0.3-20.2c-0.2-1.4-0.4-2.8-0.1-4.1c0.5-3.4,3.3-5,6.6-3.8c1.5,0.6,2.7,1.5,3.7,2.8
		c0,0,0,0,0,0.1c0-0.5,0-1,0-1.5C707.9,506.9,707.8,506.7,707.8,506.6z M663,666.4L663,666.4L663,666.4L663,666.4L663,666.4z
		 M663,666.4c0,0.1,0.1,0.1,0.1,0.2C663,666.5,663,666.5,663,666.4L663,666.4z M662.5,666.1L662.5,666.1
		C662.6,666.1,662.6,666.1,662.5,666.1L662.5,666.1L662.5,666.1z M662.6,666.1L662.6,666.1c0.1,0,0.2,0.1,0.2,0.1l0,0l0,0
		c0.1,0,0.1,0.1,0.2,0.1l0,0c0,0-0.1-0.1-0.2-0.1C662.7,666.2,662.6,666.2,662.6,666.1z"/>
	<path class="st1" d="M555.9,431.2c-0.1,0.4,0,0.9,0.4,1.2c0.6,2.1,1.2,4.2,2.1,6.1c1.2,2.9,2.8,5.7,4.6,8.3
		c1.3,1.8,2.7,3.5,4.3,5.2c0.5,0.5,1.1,1.1,1.6,1.6l0,0c0.3-1.7,0.7-3.5,0.7-5.3c0-1.5,1.1-2.3,2.6-2.3c0.7,0,1.5,0.1,2.2,0.4
		c3,1.2,6.1,2.2,8.8,4c0.6,0.4,1.3,0.8,2,1c1.6,0.5,2.1,0.2,2.3-1.5c0.3-2.2-0.2-4.4-0.4-6.6c-0.2-2.1-0.4-4.2-0.3-6.2l0,0
		c-0.1-0.1-0.2-0.1-0.2-0.2c-0.3-0.3-0.7-0.6-1-0.9c-0.6-0.6-1.2-1.3-1.7-2c-0.3-0.3-0.5-0.7-0.8-1.1c-0.2-0.4-0.5-0.7-0.7-1.1
		c-1-1.4-2-2.9-3.2-4.1c-0.3-0.3-0.6-0.6-0.9-0.9c-0.6-0.6-1.3-1.1-2.1-1.6c-0.7-0.4-1.4-0.8-2.1-1.1c-0.7-0.3-1.4-0.5-2.2-0.7
		c-0.7-0.2-1.5-0.3-2.3-0.3s-1.6,0-2.4,0.1c-0.5,0.1-1,0.1-1.4,0.1c-1.4,0.1-2.9,0-4.3,0.4c-0.1,0-0.2,0.1-0.3,0.1
		c-0.2,0.1-0.4,0.1-0.7,0.2c-0.2,0.1-0.4,0.2-0.6,0.3c-0.3,0.2-0.5,0.4-0.7,0.8c-1.2,0.5-2.3,1.2-2.8,2.1c-0.1,0.1-0.2,0.3-0.2,0.5
		c-0.1,0.3-0.2,0.7-0.2,1.1c0,0.2,0,0.4,0.1,0.7c0,0.4,0,0.7,0,1.1C556,430.9,555.9,431.1,555.9,431.2z"/>
	<path class="st1" d="M622.8,496.6c1.3,1,2.6,1.7,4,2.4c0.8,0.4,1.6,0.8,2.4,1.2c0,0,0,0,0-0.1c0.1-0.2,0.1-0.3,0.1-0.5
		c0.1-0.3,0.1-0.6,0-0.9c0-0.1-0.1-0.3-0.1-0.4c-0.1-0.4-0.4-0.8-0.7-1.2c-0.1-0.1-0.2-0.3-0.4-0.4c-0.6-0.6-1.2-1.2-1.8-1.8
		c-1.9-1.7-3.8-3.3-5.7-5c-0.2-0.7-0.4-1.5-1.3-1.4c-0.6,0.1-0.5,0.9-0.6,1.4c-0.7,0.8-1.4,1.7-2.1,2.5c-0.5,0.5-1,0.9-1.5,1.3
		c-1.5,1.1-3.2,1.5-4.9,1.4c-0.5-0.1-1.1-0.2-1.6-0.3c-0.5-0.2-1-0.4-1.5-0.7c-0.7-0.5-1.4-1.1-2-1.9c-0.2-0.3-0.4-0.5-0.6-0.8
		c-1.4-2.4-2.5-4.9-3.7-7.4c-0.1-0.2-0.2-0.5-0.3-0.8s-0.1-0.6-0.1-0.8c0-0.2,0-0.3,0-0.5s0-0.3,0-0.5c0-0.3,0-0.5,0-0.8
		c-0.1-1-0.5-1.9-1.1-2.8c-0.4-0.6-1-1.2-1.6-1.7c-0.1-0.4-0.2-0.8-0.4-1.1c-0.2-0.3-0.5-0.5-0.9-0.7c0-0.3,0-0.7,0-1
		c0,0.3,0,0.6,0,1c-0.4,0.4-0.7,0.8-1,1.3c-0.1,0.2-0.1,0.3-0.2,0.5l0,0c-0.4,0.5-0.9,1-1.3,1.6c-0.4,0.5-0.9,1-1.4,1.5
		c-0.2,0.2-0.3,0.4-0.5,0.6c-0.3,0.4-0.4,0.9-0.5,1.4c0,0.2-0.1,0.5-0.1,0.8c0,0.6,0,1.3-0.1,1.9c-0.2,1.9-0.6,3.7-1.3,5.4
		c-0.4,1-0.8,2.1-1.1,3.2s-0.6,2.1-0.8,3.2s-0.4,2.2-0.6,3.2c-0.2,1.1-0.4,2.2-0.5,3.3c-0.4,2.3-0.9,4.6-1.5,6.9
		c-0.4,1.5-0.8,3-1.3,4.5s-1,3-1.6,4.4c-0.3,0.7-0.6,1.4-0.9,2.2c-1.4,3.1-2.7,6.3-4,9.4c-0.4,0.8-0.7,1.7-1.2,2.5
		c-0.2,0.4-0.5,0.8-0.8,1.1c-0.3,0.4-0.6,0.7-0.9,1c-0.2,0.2-0.5,0.4-0.7,0.6c-0.7,0.5-1.4,0.8-2.1,0.9c0,0.1,0,0.1,0,0.2
		c-0.4,9.5-1.2,19-5.3,27.8c-0.7,1.5-1.5,3.1-1.2,4.8c0.3,2-0.3,3.6-0.9,5.3c-0.2,0.6-0.6,1.1-0.2,2.1c2.5-1.3,5.1-2.5,7.5-3.9
		c8.5-5,14.6-12,18.4-21.1c1.4-3.5,2.8-7,4.1-10.6c1.8-4.9,5.1-8.4,10.2-9.8c4.1-1.1,8.3-1.6,12.6-0.5c0.4,0.1,0.9,0.3,1.4-0.2
		c-0.3-1-1.1-1.8-1.8-2.7c-1.9-2.2-3.8-4.3-5.7-6.4c-0.7-0.8-1.4-1.7-1.7-2.8c-0.4-1.5-0.1-1.9,1.4-1.6c4.1,0.7,8.1,1.5,12.2,2.3
		c0.9,0.2,1.8,0.4,2.7,0.5c0.5,0.1,0.9,0,1.1-0.6c0.9-3.2,1.3-6.3-1.2-9.1c-1.1-1.2-2.2-2.5-3.3-3.8c-1-1.1-1.9-2.2-2.8-3.4
		c-0.9-1.1-1.2-2.5-1.1-3.9C619,496.1,620.9,495.1,622.8,496.6z"/>
	<path class="st1" d="M401.3,657.6c-0.2-1.5-0.3-2.9-0.3-4.4c-3.8-0.2-7.3-1.6-10.6-3.7c-1.3-0.8-2.2-0.8-3.4,0.3
		c-1.8,1.7-3.9,3.2-6.1,4.3c-3,1.5-6.1,2.1-9.4,1.5c-1.7-0.3-3.3-1-4.8-2.1c-0.3-0.2-0.5-0.4-0.8-0.6c-0.7,0.6-1.5,1.1-2.3,1.6
		c-2.5,1.3-3.4,4.7-2.5,8.3c0.3,1.1,1,2,0.8,3.2c-0.1,0.5-0.2,1-0.4,1.4c-0.1,0.2-0.1,0.3-0.2,0.5s-0.2,0.5-0.4,0.7
		c-0.1,0.1-0.2,0.3-0.3,0.4c-0.5,0.6-1.2,1.1-2.1,1.3c-0.6-0.1-1.2-0.2-1.6,0.3c-4-1.6-8.1-3.1-10.5-7c-1.6-2.5-2.5-5.2-2.7-8.2
		c-0.2-3.1-0.1-6.3,0.1-9.4c0.1-1.8,0.9-3.3,1.5-4.9c0.4-1.1,0.7-2,0.6-3.2c-0.2-4.4,0.1-8.8,1.5-13.1c0.3-1,0.4-2-0.7-2.7
		c-3.2-2.2-5.3-5.5-6.7-9c-1-2.4-2-4.9-2.5-7.5c-0.3-1.5-1-2.8-2-4.1c-0.4-0.5-0.7-0.9-1.1-1.4s-0.7-0.9-1-1.4
		c-0.6-1-1.1-2.1-1.3-3.3c-0.6-2.1-0.7-2.1-2.2-1.6c-0.4,0.1-0.8,0.1-1.1,0.2c-1.7,0-3.4-0.4-5,0.3c-3.5-1.3-5.6-3.6-5.6-7.5
		c0-3.7,0.7-7.2,1.6-10.8s2.6-6.7,4.3-9.8c1.3-2.3,3-4.5,4.7-6.7c2.6-3.3,5.2-6.5,7.7-9.9c0.2-0.3,0.4-0.6,0.6-0.9
		c0.5-1,0.8-2,1.2-3c0.2-0.2,0.3-0.4,0.5-0.6c0.3-0.3,0.5-0.6,0.5-1c-4.2-3.9-6.4-9.4-6.2-15c-0.7-0.6-1.3-1.6-2-3.1
		c-1.4-3.1-2.2-6.4-3.4-9.6c-1.5-3.9-4-7.1-7-10c-0.8-0.8-2.1-1-2.9-2c-0.5-0.6-1.5-0.2-2.3,0.1c-2.3,0.8-3.9,2.4-5.1,4.2
		c0,0.3,0.1,0.6,0.1,0.9c0.7,3.5,0.2,6.8-2.3,9.6c-0.6,0.6-0.9,1.4-1.1,2.2c-0.6,3.1-0.9,6.2-0.4,9.4c0.4,2.8,1.5,5.1,4.6,6
		c1.7,0.5,3.2,1.5,4.6,2.4c1.2,0.8,2.3,1.6,3.2,2.7c3,3.4,1.8,7.6-2.5,8.9c-0.5,0.2-1.1,0.3-1.6,0.4c-2.9,0.3-5.1,2.5-7.9,3.2
		c-0.2,0.1-0.4,0.4-0.6,0.6c-3.2,2.9-5.3,6.9-9,9.3c-0.3,0.2-0.5,0.6-0.6,0.9c-1.7,3.6-3.2,7.3-2.2,11.5c0.4,1.9,0.3,3.8,0,5.8
		c-1,6.2-1.5,12.4-1.4,18.7c0.1,3.4,0.5,6.6,1.5,9.8c1.2,4.2,5.3,7,9.6,6.8c1.5-0.1,3-0.2,4.4,0.1c6.4,1.1,8.8,7.9,4.7,12.9
		c-0.5,0.6-1.2,1.2-1.4,2c-0.5,2.6-2,4.7-3.5,6.8c-2.3,3.1-3.7,6.7-3.8,10.5c-0.1,2.6,0.5,5.1,1.1,7.6c0.1,0.2,0.3,0.5,0.4,0.7
		c0.5,0.7,1,1.4,1.5,2.2c1.7,2.5,3.5,5.1,5.3,7.5c0.2,0.3,0.4,0.5,0.6,0.8c0,0,0,0,0.1,0.1c0.5,0.5,1,0.9,1.5,1.4
		c0.9,0.8,1.8,1.4,2.7,2.1c0.2,0.1,0.4,0.3,0.6,0.4h91.3c-1.7-1.8-3-4-4.6-5.9C403.1,664.1,401.7,661.1,401.3,657.6z"/>
	<path class="st1" d="M661.4,410.9c1,2.1,1.7,4.3,2.8,6.3c1.2,2.1,2.7,3.8,4.5,5.2c0.9,0.7,1.8,1.4,2.8,2s2,1.2,3,1.7
		c0.4,0.2,0.9,0.5,1.3,0.7c0.8,0.5,1.6,1,2.3,1.6c0.4,0.3,0.7,0.6,1,0.9c3.6,3.3,5.4,7.6,5.7,12.8c0,0.2,0,0.4,0,0.7
		c0.4-0.6,0.6-1.3,0.4-2.1c-0.7-3.2-0.8-6.4-1-9.6c-0.4-5.1-1.3-10.1-3.4-14.8c-0.7-1.5-1.2-3.1-1.7-4.7c-0.7-2-1-4,0.4-5.8
		c0.5-0.6,0.3-1.2-0.1-1.7c-2.4-3.1-2.2-6.5-1.5-10c0.7-3.4,2.1-6.5,3.7-9.5c0.8-1.5,1.6-2.9,2-4.5c-0.4-0.3-0.8-0.2-1.1-0.2
		c-2.5-0.1-3.3-1.1-2.7-3.5c0.4-1.4,0.9-2.8,1.4-4.2c1.5-4.5,2.9-9.1,3.6-13.9c0.7-4.5-0.6-8-4.4-10.5c-0.3-0.2-0.5-0.3-0.8-0.5
		c0.1,0.4,0.2,0.9,0.3,1.3c0,0.3,0,0.6,0,1c-0.1,1-0.4,1.9-0.9,2.7c-0.2,0.3-0.3,0.6-0.5,0.9s-0.4,0.6-0.6,0.8
		c-0.2,0.2-0.4,0.5-0.6,0.7c-0.4,0.5-0.8,0.9-1.3,1.3c-0.2,0.2-0.5,0.4-0.7,0.5c-0.8,0.5-1.4,1.1-1.9,1.8c-0.6,0.9-1,1.9-1.3,3.1
		c-0.1,0.3-0.1,0.6-0.2,0.8c-0.9,3.9-1.7,7.9-2.6,11.8c-0.4,1.7-0.8,3.4-1.5,4.9c-0.2,0.5-0.5,1-0.8,1.5c-0.5,0.8-0.9,1.6-1.3,2.4
		c-2,4.1-3.2,8.4-4.2,12.8c-0.4,1.8-0.8,3.5-1.1,5.3c-0.2,0.9-0.3,1.7-0.3,2.6c-0.1,1.7,0,3.3,0.5,4.9
		C660.8,409.3,661.1,410.1,661.4,410.9z"/>
	<path class="st1" d="M507.1,291.4c2.8-2.6,6.1-4.4,9.6-6s7.8,0.6,9.7,4.7c0.7,1.5,1.2,3.1,1.7,4.7c0.4,1.3,0.8,2.5,1.5,3.6
		c0.2,0.4,0.5,0.7,0.8,1.1c0.3,1.3,0.9,2,2.2,1.1c2,0.1,3.8-0.6,5.7-0.9c1.2-0.2,1.9-1,2.8-1.7c3.8-3.5,7.7-6.9,12.2-9.5
		c2.3-1.3,4.6-2.3,7.1-2.9c2.5-0.7,5-1,7.6-1.1c1.9-0.1,3.5,0.7,5,1.7c0.2,0.1,0.4,0.3,0.6,0.5c1.5,1.2,2.3,2.9,2.2,4.8
		c0,1.1-0.3,2.3-0.9,3.5c-0.7,1.4-1.2,2.9-1.6,4.4c-0.3,1-0.5,2-0.6,3c-0.2,1-0.3,2-0.5,3.1c-0.1,0.5-0.1,1-0.2,1.5
		c0,0.1,0,0.2,0,0.3c0,0.3,0.1,0.7,0.2,1c-0.2,0.6-0.3,1.2,0.2,1.7l0,0c-0.2,3.8,1.6,6.8,3.9,9.4c1.5,1.7,3,3.4,4.6,5.1
		s3.2,3.3,4.8,4.9c1.4,1.4,3.1,2.3,4.9,2.8c0.3,0.1,0.6,0.2,0.9,0.3c0.3,0.1,0.6,0.2,1,0.2c1.3,0.3,2.5,0.5,3.7,0.9
		c0.6,0.2,1.2,0.4,1.8,0.6c1.2,0.4,2.4,0.9,3.5,1.5c1.7,0.8,3.3,1.9,4.7,3.2c2.8,2.4,5.1,5.2,6.7,8.4c1,1.9,1.7,4,2.1,6.2
		c0,0.3,0.1,0.5,0.1,0.7c0,0.5,0,0.9,0,1.3c-0.1,0.6-0.3,1.2-0.5,1.6c-0.2,0.3-0.4,0.6-0.6,0.8c-1,1-2.4,1.4-3.9,1.3
		c-0.3,0-0.6-0.1-0.9-0.1c-0.6-0.1-1.2-0.2-1.7-0.4c-0.3-0.1-0.6-0.2-0.8-0.3c-1.2-0.5-2.3-0.8-3.6-0.9c-0.4,0-0.8,0-1.3,0.1
		c-0.6,0-1.1,0-1.7,0c-0.5,0-1,0.1-1.6,0.2c-0.5,0.1-1,0.2-1.5,0.4c-1,0.3-2,0.7-3,1c-1.2,0.4-1.7,1.3-2,2.4
		c-0.1,0.3-0.2,0.7-0.3,1.1c-0.7,0.9-0.1,1.2,0.6,1.6c0.5,0.6,1.1,1.1,1.8,1.5c0.6,0.4,1.3,0.8,2,1.2c1.2,0.7,2.3,1.5,3.4,2.3
		c2.2,1.7,4.3,3.5,6.3,5.3c1,0.9,2.1,1.8,3.1,2.7c0.4,0.4,0.8,0.8,1.2,1.2c3.8,3.5,1.4,7.7-1.6,9.7c-0.5,0.3-1,0.6-1.5,0.9
		c-0.8,0.4-1.6,0.6-2.4,0.8c-0.6,0.1-1.1,0.2-1.7,0.3c-0.3,0-0.6,0.1-0.9,0.1c-4.3,0.2-8.5,0.7-12.6,1.5c-1.7,0.3-3.3,0.7-5,1.1
		c-0.8,0.2-1.7,0.4-2.5,0.7c-1.3,0.4-1.9,0.6-2.2,1c-0.1,0.2-0.2,0.5-0.2,0.8c3.3,3.3,5.9,7.2,7.8,11.6c3.1,7,5.8,14.1,8.2,21.4
		c0.3,1,0.8,2.1,0.6,3.2c-0.3,1.5,0.5,2.4,1.5,3.3c2.4,2,4.7,4.1,6.6,6.7c1.2,1.6,2.6,2.4,4.4,3.1c6.6,2.5,13.4,4.9,18.2,10.6
		c0.7,0.8,1.3,0.7,2.1,0.2c2.8-2,4.5-4.6,5.2-7.9c1.2-5.4,1.9-10.9,1.5-16.5c-0.2-2.8-0.9-5.4-2.5-7.8c-2.3-3.2-4.2-6.7-6.2-10.1
		c-0.5-0.9-1-1.8-1.4-2.7c-0.2-0.5-0.4-1.1,0.1-1.5c0.5-0.5,1,0,1.5,0.2c4.2,1.8,8.2,3.9,11.3,7.3c0.4,0.5,0.8,1,1.6,1
		c3.4-0.1,4.6-1.3,4.9-4.7c0.1-0.9,0-1.8-0.3-2.7c-0.8-2.9-1.6-5.9-2.3-8.8c-0.8-3.4-1.3-6.9-1-10.4c0.4-4.9-0.7-9.3-3.3-13.4
		c-1.5-2.3-3.2-4.5-5-6.6c-1-1.1-1.9-2.3-2.7-3.5c-0.8-1.1-1.4-2.4-1.6-3.8c-0.2-1.1,0-2.1,1-2.7c1.1-0.7,2.1-0.5,3.1,0.2
		c0.7,0.5,1.4,1.4,2.2,1.6c3,0.8,6,1.4,9.1,2.4c-0.1-1.2-0.6-1.9-1.1-2.6c-3.1-4.9-6.3-9.8-10.2-14.1c-1.1-1.2-2.2-2.5-3.2-3.8
		c-1.6-2.1-2.5-4.5-2.9-7.1c-0.2-1.4,0.1-2.6,1.4-3.4c1.1-0.7,2.3-0.6,3.4,0c1.2,0.6,2.1,1.6,3,2.4c0.6,0.5,1,1.2,2.1,1.2
		c-0.9-6-4-10.7-7.9-14.8c-2.8-3-5.7-5.7-8.8-8.4c-3.7-3.2-7.4-6.4-11-9.7c-1.9-1.7-3.6-3.5-4.6-5.8c-1-2.4-1-4.7,0.7-6.8
		c0.4-0.5,1-0.9,0.8-1.7c-0.4-0.1-0.9-0.1-1.3-0.2c-5.7-0.8-10.5-3.4-14-8.1c-1.3-1.7-2.7-3.3-4.1-4.9c-5-5.6-11.1-9-18.5-10.8
		c-10.5-2.5-19.7-0.4-28.3,5.6c-0.8,0.5-1.5,1-2.3,1.6c-0.9,0.6-1.9,1-2.7,0c-0.8-0.9-0.2-1.7,0.3-2.5c1.1-1.6,2.6-2.9,4.1-4.1
		c2.8-2.3,5.9-4.1,9-5.9c0.7-0.4,1.7-0.6,1.6-1.6c-0.1-2.3,1.1-4,2.2-5.9c0.6-0.9,1.7-2,1-3c-0.8-1-2.2-0.2-3.3,0
		c-4.1,0.8-7.6,2.6-10.8,5.3c-3.5,2.8-6.9,6-11.6,7.2c0.2-2,0.4-3.8,0.5-5.6c0.1-2,0.4-4.2-0.4-6c-1.1-2.5-1.6-5.1-2.3-7.6
		c-0.3-1-0.8-1.8-1.8-2.3c-1.4,1.8-2.6,3.5-4,5.1c-2.4,2.8-4,6-4.9,9.5c-1.3,4.9-1.8,10-3.3,14.8c-0.2,0.6,0.1,1.4-0.9,1.6
		c-1.5-4.6-3.3-9.2-5.9-13.4c-0.3-0.5-0.4-1-0.5-1.6c-0.6-2.9-1.9-5.6-3.4-8.1c-0.6-1.1-1.3-1.9-2.4-2.6c-2.4-1.5-4.8-3-7.1-4.8
		c-1.4-1.1-3-2.3-5-2.7c0.2,2.8,0.3,3.8,1.7,5.9c3,4.4,4.2,9.1,3.4,14.4c0,0.3,0,0.6,0,0.8c-0.2,1.1,0.6,2.8-1,3
		c-1.4,0.2-1.7-1.4-2.2-2.5c-0.6-1.2-0.9-2.7-2-3.6c-1.9-1.5-3.4-3.4-4.9-5.2c-1.7-2.2-3.9-3.3-6.7-3.1c-0.8,0.1-1.7,0-2.5,0.1
		c-4.5,0.2-7.9,2.4-10.3,6c-1.5,2.2-1.2,3.5,0.9,5.1c4.4,3.6,7.3,8,8,13.7c0.2,1.7,0.5,3.5,0.7,5.2c0.1,1.7,0.3,3.4,0.1,5.1
		c-1,0-1.2-0.5-1.6-0.9c-7.6-7.7-6-6.2-15.4-9c-0.4-0.1-0.9-0.2-1.3-0.4c-0.6-0.2-1.3-0.1-1.9,0c-4.2,1.2-8.4,2.3-12.5,3.5
		c-2.3,0.7-4.3,2-5.9,3.8c0.2,0.3,0.3,0.5,0.4,0.6s0.3,0.2,0.4,0.4c1.8,1.6,1.7,2.8-0.1,4.2c-1,0.8-2.1,1.1-3.2,1.6
		c-14.5,5.6-27,14.4-37.7,25.6c-0.5,0.5-1.2,0.9-1,1.9c0.4,0,0.9,0,1.3,0c2.6,0,4.7,0.9,6,3.3s0.6,4.7-0.8,6.8
		c-1.1,1.6-2.5,3-4.1,4.1c-3.3,2.4-6.5,4.8-9.8,7.2c-1.1,0.8-1.9,1.7-2.6,2.8c-1.5,2.5-3.5,4.5-6,6c-1.2,0.7-2,1.5-2.6,2.7
		c-3.3,6.5-6.1,13.2-8.2,20.2c-0.2,0.5-0.5,1.1,0.1,1.9c1.5-1.7,3-3.1,4.8-4.3c2-1.2,4.2-1.9,6.6-1.5c3.6,0.6,5.6,4,4.5,7.5
		c-0.5,1.5-1.5,2.7-2.7,3.8c-1.5,1.4-2.9,2.9-4.1,4.5c-0.8,1-1.3,1.9-0.9,3.3c0.3,1.3,0,2.6-0.3,3.8c-0.8,3.5-2,6.9-3.3,10.2
		c-1.3,3.2-2.6,6.5-3.7,9.8c-2.5,7.2-2.7,14.2,1,21.2c1.9,3.6,2.5,7.5,2.5,11.5c0,2-0.1,4.1,0,6.1c0,0.7-0.3,1.5,0.5,2.1
		c2.5-0.6,5-1,7.6-0.4c2,0.5,2,0.5,2.4-1.6c0.9-4.9,3-9.1,7-12.2c1.2-0.9,1.9-2.2,2.5-3.6c1.9-4.1,4.6-7.5,8.5-10
		c0.9-0.5,1.7-1.1,2.7-1.4c3.6-1.2,6.6,1.4,5.8,5.2c-0.2,1-0.6,1.9-1,2.9c-1.1,2.6-2.3,5.2-3.4,7.9c-2.5,6-3.6,12.2-2,18.7
		c0.7,2.9,1.8,5.8,2.6,8.7c0.2,0.6,0.5,0.9,1.1,1.1c3.5,1,6.9,2.6,10.6,3.2c1.6,0.2,3.1,0.1,4.5-0.7c3.5-1.9,7.3-3.2,11.2-3.8
		c1.3-0.2,2.2-0.8,3.2-1.5c1.3-0.9,2.1-2.3,3.1-3.4c0.2-2.2,1.3-3.9,2.4-5.7c0.9-1.3,1.7-2.6,2.6-3.9c2.1-3.3,2.5-7,3.2-10.7
		c0.1-0.6,0.1-1.1-0.3-1.6c-3-2.9-3.1-6.5-3-10.2c0-0.1,0-0.2,0-0.3c0.1-0.3,0.1-0.8-0.2-0.8c-0.3-0.1-0.5,0.4-0.6,0.7
		c-1-0.1-1.8,0.5-2.5,1.1c-6.2,4.8-10.6,10.9-13.8,18c-0.9,1.9-1.6,3.9-3.1,5.5c-2.2,2.4-5.7,2.3-7.6-0.4c-0.8-1.1-1.4-2.2-1.5-3.5
		c-0.3-3.4-0.2-6.8,1-10.1c2.3-6.5,5.8-12.3,9.6-18c3.1-4.8,6-9.7,10.3-13.7c0.2-0.2,0.3-0.5,0.4-0.7c0.5-0.2,1.2-0.4,1-1.1
		c-0.1-0.4-0.8-0.2-1.2-0.2c-0.2,0-0.4,0.1-0.5,0.1c-6.8,1.3-13.8,1.9-19.7,6.2c-0.7,0.5-1.6,0.9-2.5,1.2c-2.7,0.9-5.3-0.8-5.5-3.6
		c0-0.4-0.1-0.8-0.1-1.2c-0.1-2.7,0.4-5.4,0.9-8.1c0.3-0.4,0.5-0.9,0.7-1.3c0.1-0.2,0.1-0.5,0.2-0.7c0-0.2,0-0.5,0-0.7
		c-1.2,0.9-2.3,1.8-3.5,2.7c-0.9,0.2-1.8,0.1-2.6-0.1c-2.3-0.6-3.8-2.5-4.4-4.8c-0.2-0.7-0.2-1.4-0.2-2.2c0.3-4.2,1.5-8.1,3.2-11.9
		c3.6-8,8.6-15.2,14.6-21.7c1.4-1.5,2.9-2.8,4.4-4.1c0.8-0.4,1.7-0.6,2-1.8c-0.6-0.5-1.3-0.5-2.1-0.5c-1.2-0.3-2.3-0.5-3.4-0.6
		c-1.9-0.2-3.8,0-5.7,0.9c-1.5,0.7-2.7,0.1-3.7-1.1c-2.7-3.5-3.5-7.4-2.2-11.7c0.5-1.6,1.3-3.1,2.5-4.3c3.8-3.7,7.2-7.8,12-10.4
		c5.6-3,11.4-4.7,17.7-4.3c0.7,0,1.5,0.1,2.2,0.1c3.2-0.2,5.7-1.4,7.1-4.4c0.6-1.3,1.4-2.6,2.3-3.8c1.1-1.4,2.3-2.4,3.5-2.8
		c0.6-0.2,1.2-0.4,1.8-0.4c1.5,0,3,0.6,4.7,1.8c0.3,0.4,0.5,0.8,0.8,1.1c1.2,1,1.5,0.8,1.8-1.1c0.5-1.8,0.8-3.6,1.4-5.3
		c1.5-4,4.9-5.5,8.9-4.2c1.5,0.5,2.9,1.2,4.2,2c2,1.2,4,2.4,6.4,2.5c2.1,0.1,2.5-0.2,3.1-2.2c0.4-1.4,0.7-2.9,0.9-4.3
		c0.2-1.4,0.5-2.7,1.1-4c2.2-5.3,6.3-6.9,11.7-4.9c2.4,0.8,4.3,2.5,6.4,3.8C505.2,293.2,505.2,293.2,507.1,291.4z"/>
	<path class="st1" d="M295.6,513.6c1.1-0.4,1.3-1.1,1.3-2.1c0-2.2,0.6-4.4,1.6-6.4c1.2-2.3,1.1-2.8-0.8-4.8
		c-1.6-1.7-2.2-3.6-1.9-5.8c0.2-1.4,0.5-2.7,0.8-4.1c0.4-1.8,1-3.5,1.2-5.4c0.9-10.9,1-21.7-0.1-32.6c-0.4-3.7-1.3-7.4-2.9-11.1
		c-1.5,1.4-2.2,3-2.9,4.6c-3,6.9-5,14.1-6.3,21.4c-0.7,3.8-0.8,7.7-0.5,11.6c0.2,2.3,0.5,4.6,1.1,6.8c0.2,0.8,0.4,1.6,0.6,2.4
		c1.1,5.7-0.5,9.6-5.4,12.8c-2.6,1.6-5.2,3.2-7.3,5.5c-6.2,6.7-11.8,13.9-16.5,21.8c-3,5.1-5.3,10.5-6.6,16.3
		c-2.8,12.5-2.7,25.1-1.1,37.7c0.2,1.3,0.8,1.9,2,2.2c1.6,0.4,3.2,0.9,4.7,1.5c6.2,2.1,10.4,6.1,11.7,12.8c0.5,2.7,2.1,4.9,3.6,7.1
		c0.8,1.2,1.9,2.2,3.9,2.8c-0.4-4.9-0.4-9.4,0.4-13.9c0.2-1-0.3-1.5-1-2c-2.9-1.9-4.2-4.8-4.5-8.2c-0.6-6,0.7-11.6,3.6-16.8
		c1.7-3.1,3.5-6.4,5.7-9.1c2.8-3.5,4.7-7.4,6.7-11.3c1.7-3.4,2.4-6.7,2.1-10.3c-0.2-2.5-0.5-5.1,0.4-7.4c1.3-3.4,1.8-6.9,2.8-10.4
		c0.2-0.8,0.6-1.6,0.9-2.3C293.3,515.3,294.1,514.1,295.6,513.6z"/>
	<path class="st1" d="M643.9,483c-0.1,0.4-0.2,0.9-0.1,1.4c-0.4,0.3-0.4,0.7-0.2,1.1c-0.1,0.6-0.2,1.3-0.3,1.9
		c2.6-5.3,6.4-9.9,11.6-13.5c2.5-1.7,5.2-3.2,8-4.4c1.2-0.5,2.4-1.1,3.5-1.6c1-0.4,1.6-1.1,1.9-2.2c0.5-2.8,2.2-4.9,4.4-6.5
		c1.1-0.8,1.9-1.7,2.6-2.8c0.3-0.6,0.7-1.2,1-1.7c-0.1,0-0.1,0-0.2-0.1c-0.7-0.3-1.5-0.6-2.2-0.8c-0.6-0.1-1.1-0.2-1.7-0.3
		c-0.5,0-1.1-0.1-1.6,0c-1.1,0-2.2,0.2-3.3,0.4l0,0c-0.4,0.1-0.9,0.2-1.3,0.3c-0.4-0.2-0.8-0.1-1.1,0.3c-0.4,0-0.8,0-1.2,0
		s-0.8,0-1.2,0s-0.8,0-1.2,0s-0.8,0-1.2-0.1c-0.2,0-0.4,0-0.6,0c-0.4,0-0.7,0.1-1,0.2s-0.6,0.2-0.9,0.4c-0.4,0.3-0.7,0.6-1.1,1.1
		c-0.4,0.6-0.8,1.2-1.2,1.8c-0.2,0.3-0.4,0.6-0.6,0.9c-0.5,0.9-1,1.8-1.4,2.8c-0.3,0.7-0.5,1.3-0.6,2.1c-0.2,0.9-0.4,1.8-0.7,2.7
		c-0.5,1.8-1.1,3.5-1.8,5.2c-0.3,0.9-0.7,1.7-1,2.6c-0.7,1.7-1.6,3.3-2.7,4.9c-0.4,0.5-0.7,1-1.1,1.5c-0.3,0.4-0.7,0.8-1,1.3
		C644.2,482.2,644,482.6,643.9,483z"/>
	<path class="st1" d="M354.1,531c5.5,0.2,9.4,2.9,12.1,7.6c1.4,2.5,2.3,5.2,2.6,8.1c0.8,7.8-0.8,15-4.7,21.8
		c-0.5,0.8-1.3,1.5-1.2,2.8c3.9,0.9,7.7,2,11.8,1.5c3.1-0.4,5.9-1.1,8.5-3c0.6-0.4,1.1-0.7,1.7-0.9l0.1-0.1c0.8-0.8,1.6-1.5,2.3-2.4
		c0.2-0.2,0.4-0.5,0.6-0.7c0.4-0.5,0.8-1,1-1.6c0.1-0.3,0.2-0.6,0.2-1c0.5-0.4,0.5-0.7,0-1.1c-1.7-4.8-3.3-9.6-4.2-14.6
		c-0.2-1.4-0.5-2.7-0.7-4.1c-0.1-1.2-0.8-1.8-1.9-2c-0.5-0.1-1.1-0.3-1.6-0.4c-6.7-1.2-10.7-5.7-13.6-11.5c-0.6-1.1-1.1-2.4-1.3-3.6
		c-0.1-0.7-0.3-1.4-0.6-2c-0.8-1.8-2.1-3.3-3.7-4.6c-1.2-1.5-1.2-1.5-3.4,0c-1.1,0.2-2.2,0.5-3.3,0.7c-0.6-0.2-1.1-0.2-1.7,0
		c-0.3,0-0.7-0.1-1-0.1c0,0,0,0,0,0.1c-0.6,2.1-1.5,4.2-1.8,6.4C349.9,529.6,350.9,530.9,354.1,531z"/>
	<path class="st1" d="M608.2,258.1c2.4-1.4,3.8-2.8,5-4.6c1.3-2,2.7-4,4.5-5.6c0.8-0.8,1-1.4,0.2-2.3c-1.5-1.5-2.4-3.4-3.4-5.3
		c-1-1.9-2.2-3.8-4.4-4.9c1.6,3.7,2.7,7.4,2.3,11.4C612,250.8,609.9,254.2,608.2,258.1z"/>
	<path class="st1" d="M592.5,242.1c1.2,0.8,2.6,0.8,3.9,0c2.1-1.4,3.1-3.3,3-5.7c0-3.1-0.5-3.4-3.2-2.3c-1.6,0.7-3.1,1.6-4.5,2.6
		c-0.5,0.4-1.1,0.8-1,1.5C590.7,239.8,591.2,241.2,592.5,242.1z"/>
	<path class="st1" d="M436.2,549.7c-4.8-7.9-9.1-16.1-9.4-25.7c-0.1-2.4-0.7-4.7-1.9-6.8c-1.8-3.1-3-6.5-4.1-9.9
		c-0.8-2.5-1.9-4.8-3.3-7c-3.5-5.5-4.7-11.1-3.3-16.8c-2.3,0.9-4.6,0.4-7.2-1.5c-0.4-0.3-0.7-0.7-1.6-0.6c0,1.9,0,3.8,0,5.6
		c0,1.9-0.3,3.9-1.9,5c-1.8,1.2-1.8,2.5-1.3,4.3c0.3,1.1,0.5,2.1,0.8,3.2c0.2,0.9,0.7,1.2,1.6,0.9c1.2-0.4,2.5-0.6,3.8-0.3
		c1.8,0.5,2.3,1.9,1.2,3.3c-3.8,4.6-5.4,10.2-6.7,15.9c-1.2,5.8-1.2,5.9,3.7,9c4,2.5,6,6.1,6.4,10.7c0.1,1.3,0.2,2.6,0.3,3.9
		c0.2,3.5,1.1,6.7,2.6,9.8c3.2,6.7,7.6,12.4,12.7,17.6c0.4,0.4,0.7,1.1,1.7,0.7c0.6-4.3,1.9-8.4,4.2-12.1c0.9-1.4,1.3-2.8,1.3-4.4
		C436,552.8,436.1,551.2,436.2,549.7z"/>
	<path class="st1" d="M407.9,580.2c-4.1-0.3-8.2-0.9-12.1-2.2c-1.5-0.5-3.1-0.5-4.6-0.5c-0.9,0-1.7,0-2.6,0
		c-1.5,2.7-3.7,4.9-6.4,6.5c-4.4,2.7-9.3,4.7-14.4,5.6c-4.8,0.9-9.5,0.5-14-1c1.1,2.5,2.2,5,3.8,7.3c0.1,0.2,0.3,0.4,0.4,0.6
		c0.5,0.6,1,1.1,1.7,1.5c0.6,0.9,1.3,1.7,2.3,2.1c1.7,1.8,3.8,2.9,5.7,4.3c0.9,0.6,1.8,0.8,2.9,0.8c0.6,0,1.3,0,1.9,0
		c0.9-3.4,3.2-6.2,6.6-8c0.6-0.3,1.2-0.6,1.8-0.8c1.9-0.6,3-0.5,3.4,0.7c0.1-0.1,0.2-0.1,0.3-0.2l0,0c-0.1,0-0.2,0.1-0.3,0.2l0,0
		l0,0c0.1,0.2,0.1,0.5,0.2,0.7c0.6,0,1.2,0,1.9-0.1c1,0.3,1.9,0.7,2.9,1.1c1.6,0.7,3.1,1.4,4.9,1.4c0.9,0.6,1.9,0.6,2.8,0
		c3.8-0.3,7.2-1.2,10.5-3.4c1.3-0.9,2.3-1.8,2.9-2.9c0.6-1.1,0.9-2.3,1-3.8c0.4-0.3,0.4-0.7,0.2-1.1c0.4-1.4,0.2-2.7,0.2-4.1
		C411.9,582.6,410.3,580.4,407.9,580.2z M385,596.8L385,596.8C384.9,596.8,384.9,596.8,385,596.8C384.9,596.8,384.9,596.8,385,596.8
		C384.9,596.8,384.9,596.8,385,596.8z M384.9,596.8L384.9,596.8c-0.1,0-0.1,0-0.2,0l0,0C384.7,596.9,384.8,596.9,384.9,596.8z
		 M384.6,596.9C384.6,596.9,384.7,596.9,384.6,596.9C384.7,596.9,384.7,596.9,384.6,596.9C384.7,596.9,384.6,596.9,384.6,596.9
		L384.6,596.9z M385,596.8L385,596.8c0.1,0,0.2,0,0.3,0C385.2,596.9,385.1,596.8,385,596.8z"/>
	<path class="st1" d="M471.6,666.7c-2.2-3.3-4.6-6.4-7-9.5c-0.2-0.3-0.4-0.7-0.5-1c-0.4-1.1-0.3-2.3-0.9-3.4c0-1.1-0.3-2-1-2.8
		c0-0.3-0.1-0.7-0.1-1c0.1-0.5,0.1-0.9-0.4-1.2c-0.1-0.9-0.2-1.8-0.2-2.7c0.2-0.8,0.4-1.6-0.4-2.3c0-4.1-0.1-8.1,0-12.2
		c0-1.8-0.5-3.2-2-4.3c-1.7-1.3-3.1-2.9-4.9-4.1c-1-0.7-1.7-0.6-2.2,0.5c-0.2,0.4-0.5,0.8-0.6,1.2c-2.5,6.3-6.9,11-12.4,14.9
		c-0.6,0.4-1.1,0.9-1.7,1.3c0.1,0.7,0,1.4-0.2,2.1c-2.9,8.8-0.8,16.7,4.2,24.1c1.5,2.2,3.6,3.4,6.3,3.6c1.9,0.2,3.9,0.3,5.8,0.4
		c2.1,0.2,4.2,0.5,6.2,1.2c0.6,0.2,1.2,0.5,1.7,0.7h18.1c-2.1-1.3-4.1-2.9-6.2-4.2C472.6,667.8,472,667.3,471.6,666.7z"/>
	<path class="st1" d="M576.4,246.4c2.3,1.4,4,3.3,5.4,5.4c0.6,0.8,1,1.8,2.1,2.4c-2-5.4-3.4-11-1.9-17.2c-3.4,2-5.2,4.6-6.5,7.5
		C575,245.6,575.6,246,576.4,246.4z"/>
	<path class="st1" d="M405.7,393.6C405.7,393.7,405.7,393.7,405.7,393.6C405.7,393.7,405.8,393.7,405.7,393.6L405.7,393.6z"/>
	<path class="st1" d="M423.4,253.9c0.3,0,0.4,0,0.4,0c2.3-2.8,4.2-6,7.6-7.8c0.6-0.3,0.5-0.9,0.3-1.5c-1.3-3.1-3.2-5.7-6.6-7.6
		c0.8,3.1,0.8,5.9,0.5,8.7C425.3,248.5,424.1,251.1,423.4,253.9z"/>
	<path class="st1" d="M409.8,241.3c0.8,0.8,1.7,1.4,2.8,1.3c2,0,3.1-1,3.8-3.1c0.5-1.6,0.3-2-1.6-3.3c-0.7-0.5-1.4-0.9-2.1-1.3
		c-1.4-0.7-3.2-2.1-4.3-1.1c-1.2,1.2-0.7,3.5-0.2,5.3C408.5,240,409.1,240.7,409.8,241.3z"/>
	<path class="st1" d="M389.5,247.8c1.9,1.7,3.3,3.7,4.7,5.8c1.1,1.8,2.6,3.2,4.7,4c-0.8-1.7-1.7-3.4-2.5-5.1
		c-0.8-1.9-1.3-3.8-1.5-5.9c-0.3-2,0.1-3.8,0.5-5.8c0.3-1.9,1.8-3.5,2.1-5.8c-2.2,1.3-3.4,3-4.4,4.9c-1.1,2-2.1,4.1-3.7,5.8
		C388.5,246.5,388.7,247.1,389.5,247.8z"/>
	<path class="st1" d="M405.9,393c0,0.2-0.1,0.4-0.1,0.6C406,393.5,406.4,393.3,405.9,393z"/>
	<path class="st1" d="M405.7,393.6C405.7,393.6,405.8,393.7,405.7,393.6C405.8,393.7,405.8,393.6,405.7,393.6
		C405.8,393.6,405.7,393.6,405.7,393.6z"/>
</g>
<g>
	<path class="st2" d="M556.3,427.4c0.5-1,1.6-1.6,2.8-2.1c0.2-0.4,0.4-0.6,0.7-0.8c0.2-0.1,0.4-0.2,0.6-0.3c0.2-0.1,0.4-0.1,0.7-0.2
		c0.1,0,0.2-0.1,0.3-0.1c1.4-0.4,2.9-0.3,4.3-0.4c0.5,0,1-0.1,1.4-0.1c0.8-0.1,1.6-0.2,2.4-0.1c0.8,0,1.5,0.1,2.3,0.3
		c0.7,0.2,1.5,0.4,2.2,0.7c0.7,0.3,1.4,0.7,2.1,1.1c0.8,0.5,1.5,1,2.1,1.6c0.3,0.3,0.6,0.6,0.9,0.9c1.2,1.3,2.2,2.7,3.2,4.1
		c0.2,0.4,0.5,0.7,0.7,1.1s0.5,0.7,0.8,1.1c0.5,0.7,1.1,1.4,1.7,2c0.3,0.3,0.6,0.6,1,0.9c0.1,0.1,0.2,0.1,0.2,0.2
		c0.1-1.5,0.3-3,0.9-4.4c0.5-1.3,0.5-2.1-0.1-3.3c-4.2-8.6-9.9-16.2-15.2-24c-1.9-2.8-4.5-4.6-8.1-4.5c-1.2,0-2.4-0.2-3.6-0.3
		c-1.3-0.1-2.1,0.2-2.4,1.7c-0.2,1.3-0.7,2.5-1.1,3.7c-1.2,3.5-3.5,6.2-5.8,9.1c-2.4,3-3,6.6-2.5,10.2c0.3,2,1.1,4,1.8,6
		c0.3,0.8,0.6,1.6-0.1,2.3c-0.7,0.7-1.5,0.4-2.3,0.1c-3.6-1.4-7.3-2.7-10.2-5.3c-1-0.9-1.9-0.7-2.9,0c-2,1.3-3.8,2.9-5.3,4.8
		c-1.9,2.3-4,4.4-6.3,6.2c-4.5,3.7-9.4,6.5-15.3,7.1c-0.4,0-0.7,0.2-1,0.6c4,5,8.6,9.4,13.5,13.7c1.1-1.2,0.9-2.6,1.2-3.8
		c1.2-5.4,5.9-8.1,11.1-6.2c1.4,0.5,2.7,1.2,3.9,2.1c1.9,1.4,3.9,2.8,5.8,4.3c3.9,3,8,5.6,12.2,8c2.8,1.6,5.9,2.6,9.1,3.2
		c2.2,0.4,2.4,0.2,2.8-1.9c0.3-1.6,0.7-3.1,1.4-4.5c0.2-0.5,0.5-1,0.4-1.6c-0.4-2.3,0-4.5,0.4-6.8c-2.2-2.1-4.2-4.4-5.9-6.8
		c-1.8-2.6-3.4-5.3-4.6-8.3c-0.8-2-1.5-4-2.1-6.1c-0.4-0.4-0.5-0.8-0.4-1.2c0-0.1,0.1-0.3,0.1-0.5c0-0.4,0-0.7,0-1.1
		c0-0.2-0.1-0.5-0.1-0.7c0-0.4,0-0.8,0.2-1.1C556.2,427.7,556.2,427.5,556.3,427.4z"/>
	<path class="st2" d="M399.7,396.3c0.8,0.2,1.6,0.2,2.6,0.1c1.2-0.9,2.3-1.8,3.5-2.7c0,0,0,0,0-0.1l0,0l0,0c0,0,0,0,0.1,0
		c0-0.2,0.1-0.4,0.1-0.6c0.4,0.4,0.1,0.5-0.1,0.6c0,0,0,0,0,0.1l0,0c0,0.2,0,0.5,0,0.7s-0.1,0.5-0.2,0.7c-0.2,0.5-0.4,0.9-0.7,1.3
		c-0.5,2.7-1,5.4-0.9,8.1c0,0.4,0,0.8,0.1,1.2c0.3,2.8,2.8,4.5,5.5,3.6c0.9-0.3,1.7-0.7,2.5-1.2c5.9-4.2,12.9-4.9,19.7-6.2
		c0.2,0,0.4-0.1,0.5-0.1c0.4,0,1.1-0.2,1.2,0.2c0.2,0.7-0.5,0.8-1,1.1c-0.1,0.2-0.2,0.5-0.4,0.7c-4.2,4-7.2,8.9-10.3,13.7
		c-3.7,5.7-7.3,11.5-9.6,18c-1.2,3.3-1.2,6.7-1,10.1c0.1,1.3,0.7,2.5,1.5,3.5c1.9,2.7,5.3,2.9,7.6,0.4c1.5-1.6,2.2-3.6,3.1-5.5
		c3.1-7.1,7.5-13.3,13.8-18c0.7-0.5,1.4-1.2,2.5-1.1c0.1-0.3,0.2-0.8,0.6-0.7c0.4,0.1,0.3,0.5,0.2,0.8c0,0.1,0,0.2,0,0.3
		c-0.1,3.7,0,7.4,3,10.2c0.4,0.4,0.4,1,0.3,1.6c-0.7,3.7-1.1,7.5-3.2,10.7c-0.8,1.3-1.7,2.6-2.6,3.9c-1.1,1.8-2.3,3.5-2.4,5.7
		c0.3-0.4,0.7-0.7,1-1c3.4-2.6,6.8-5.3,10.7-7.4c1.3-0.7,2.7-1.2,4.3-0.7c-0.1,0.5-0.1,0.8-0.2,1.2c-1.1,5.1-3,9.9-4.7,14.8
		c-0.4,1.1-0.8,2.1-0.7,3.2c0.2,2,2.2,3.7,4,3.3c0.2,0,0.4-0.1,0.6-0.1c2.3-0.5,4.6-1.1,6.6-2.3c0.5-0.3,0.9-0.6,1.4-1
		c1.8-1.5,3.9-2.5,5.9-3.6c2.3-1.2,4.6-1.4,6.9-0.4c1.4,0.7,3,0.9,4.5,1.3c2.6,0.8,4.9,0.2,7.1-1.4c2.3-1.7,4.6-3.5,6.8-5.3
		c0.2-0.2,0.4-0.4,0.6-0.6c1.4-1.2,2.7-2.4,4-3.7c0.6-0.6,0.9-1.2,0.9-2c0-1.8,0.2-3.5,1.3-5.2c-0.1-0.3-0.2-0.6-0.3-0.9
		c-3.4-0.8-6.2-2.1-8.8-3.8c-3.6-2.4-7-5.2-9.7-8.6c-1.2-1.6-2.5-1.9-4.3-1.5c-2.8,0.7-5.3,2.1-7.4,4.1c-1.8,1.8-3.6,3.7-5.5,5.5
		c-1.7,1.6-3.2,1.8-4.9,0.5c-1.9-1.6-3.7-3.4-4.1-6.1c-0.4-2.6-0.6-5.3-0.3-8c0.3-2.9,1-5.8,2-8.6c0.6-1.6,0.3-2.8-1-3.9
		c-1.3-1.2-2.4-2.6-3.3-4c-1.6-2.5-2.6-5.3-1.8-8.2c1.1-3.7-0.1-7.1-0.5-10.6c-0.1-1-0.6-1.5-1.6-1.3c-1.5,0.2-2.9-0.3-4.2-1.1
		c-1-0.6-2-0.8-3.1-1.1c-3.2-0.8-6.5-0.2-9.6-0.9c-0.5-0.1-1.1,0.2-1.6,0.4c-4.2,1.2-7,4.3-9.5,7.6c-0.5,0.7-1,1.4-1.5,2
		c-0.5,0.5-1.1,0.7-1.8,0.4c-0.7-0.3-1-0.9-0.9-1.6c0.2-1,0.4-2,0.7-3c1.1-3.5,3.2-6.4,5.1-9.4c2.1-3.4,4.9-6,8.4-7.9
		c3.8-2,7.5-3.9,11.3-5.9c0.5-0.3,1.3-0.3,1.5-1.2c-2.7-1.6-5.4-3.1-8.9-2.7c-4,0.5-8,1.2-11.9,2.5c-0.9,0.3-1.8,0.5-2.4-0.5
		s0-1.8,0.7-2.4c0.5-0.4,1-0.9,1.5-1.2c1.9-1,3.7-2,5.6-3c2.2-1,4.3-2.1,6.2-3.6c2.4-1.9,5.4-2.8,8.4-3.3c1.2-0.2,2.7,0.4,3.5-0.4
		c0.9-0.8-0.3-2.2,0-3.4c0.3-1.6-0.4-2.6-1.5-3.6c-2.1-1.8-4.1-3.7-6.2-5.5c-4.8-4.1-10.3-5.5-16.5-4.7c-1.1,0.1-2.2,0.2-3.3,0.3
		c-1.2,0.1-2.1-0.3-2.9-1.2c-2.5-2.7-2.3-6,0.9-8c2.8-1.8,5.9-3.1,9.2-3.7c1.6-0.3,3.2-0.6,4.6,0.1c2.5,1.2,5,0.9,7.6,0.7
		c5.5-0.4,10.6,0.9,15.2,4.1c0.5,0.4,1,0.9,1.7,0.8c0.9-2.4,0.9-2.4-0.4-4.8c-2.1-3.8,0-7.4,4.4-7.5c1.2,0,2.4,0.2,3.5,0.6
		c4,1.3,7.2,3.7,9.9,6.8c1.2,1.3,2.3,2.6,3.5,3.9c1.4,1.5,3.1,2.2,5.1,2.5c0.1-0.4,0.1-0.7,0.1-1c0-0.4-0.2-0.7-0.2-1.1
		c-0.2-3.2,2.7-5.2,5.3-3.5c2.2,1.4,4.8,1.9,6.9,3.5c1.1,0.8,1.9,0.4,2.7-0.3c1.5-1.4,2.7-3,3.7-4.8c1-1.9,1.6-4.1,3-5.5
		c1.6-1.7,1.6-3.4,1.4-5.3c-0.1-1.3-0.2-2.6-0.6-3.8c-0.8-2.5,0-4.5,1.3-6.4c0.6,0.4,0.7,0.9,0.9,1.4c1.4,3.7,2.6,7.5,3.4,11.4
		c0.2,0.7,0.3,1.5,0.6,2.1c2.5,4.7,6,8.6,10.3,11.8c0.5,0.4,1.1,0.8,1.7,0.9c3.2,1,6.5,1.9,9.7,2.8l0,0c0.3,0.1,0.5,0.1,0.8,0.2
		c0.2,0.1,0.4,0.1,0.6,0.2c1.8,0.5,3,0,3.7-1.4c0.2-0.4,0.3-0.8,0.4-1.4c1.2-6.8,3.9-13,7.9-18.7c0.7-1,1.2-2.1,1.5-3.3
		c1-4,2.9-7.6,4.8-11.1c3.2-5.9,8.7-8.9,14.3-11.8c3.6-1.8,7.4,1.4,6.9,5.4c-0.2,1.4-0.7,2.7-1.5,3.8c-1,1.5-2,2.9-2.9,4.4
		c-3.2,4.6-5.8,9.4-6.2,15.2c-0.1,1.8-0.8,3.4-2,4.7c-0.8,0.8-1,1.7-0.7,2.8c0.6,3,1.2,6,1.9,8.9c0.5,2,0.6,2,2.4,1.2
		c5-2.3,10.3-3.5,15.6-4.6c2-0.4,4-0.3,6,0.4c1.6,0.6,2.8,1.6,2.7,3.5c-0.1,1.7-0.6,3.3-2.6,3.8c-1.5,0.4-2.7,1.4-3.6,3.1
		c2.6,0.1,4.8-0.2,6.9,0.4c8.1,2.3,15.7,5.9,23.2,9.6c0.9,0.5,1.7,1.2,2,2.2c0.4,1.2-0.3,1.9-1.5,1.8c-7.4-0.5-14.7-1.1-22.1-1.1
		c-4,0-7.6,1.4-11.1,3.1c-0.9,0.4-1.4,1.1-1.4,2.2c0.1,1.6-0.6,3-1.8,4.6c0.9,0.3,1.5,0.5,2.1,0.7c7.4,2.3,14.5,5.4,21.5,8.9
		c2.1,1.1,4.2,2.3,6,3.9c1,0.8,1.9,1.7,2.6,2.8c0.7,1,0.9,2.1,0.1,3.1c-0.8,1-1.9,1-3,0.6c-0.3-0.1-0.5-0.2-0.7-0.4
		c-4.9-2.6-10.2-3.7-15.6-4.5c-2.2-0.3-4.4-0.5-6.6-0.4c-1.2,0.1-1.7,0.6-2.1,1.7c-1.3,3.4-1.6,6.8-1.1,10.3c0.2,1.3,0.6,2.2,1.6,3
		s2,1.7,2.9,2.7c0-0.4,0-0.6,0.2-0.8c0.3-0.4,0.9-0.7,2.2-1c0.8-0.2,1.6-0.5,2.5-0.7c1.7-0.4,3.3-0.8,5-1.1
		c4.2-0.8,8.4-1.3,12.6-1.5c0.3,0,0.6,0,0.9-0.1c0.6-0.1,1.2-0.1,1.7-0.3c0.8-0.2,1.7-0.5,2.4-0.8c0.5-0.2,1-0.5,1.5-0.9
		c3-2.1,5.3-6.2,1.6-9.7c-0.4-0.4-0.7-0.8-1.2-1.2c-1.1-0.9-2.1-1.8-3.1-2.7c-2.1-1.8-4.1-3.7-6.3-5.3c-1.1-0.8-2.2-1.6-3.4-2.3
		c-0.7-0.4-1.3-0.8-2-1.2c-0.6-0.4-1.3-0.9-1.8-1.5c-0.7-0.3-1.3-0.7-0.6-1.6c0.1-0.4,0.2-0.7,0.3-1.1c0.3-1,0.8-2,2-2.4
		c1-0.3,2-0.7,3-1c0.5-0.1,1-0.3,1.5-0.4s1-0.2,1.6-0.2s1.1,0,1.7,0c0.4-0.1,0.8-0.1,1.3-0.1c1.2,0,2.4,0.4,3.6,0.9
		c0.3,0.1,0.6,0.2,0.8,0.3c0.6,0.2,1.1,0.3,1.7,0.4c0.3,0,0.6,0.1,0.9,0.1c1.5,0.2,2.9-0.3,3.9-1.3c0.2-0.2,0.5-0.5,0.6-0.8
		c0.3-0.5,0.4-1,0.5-1.6c0.1-0.4,0.1-0.9,0-1.3c0-0.2-0.1-0.5-0.1-0.7c-0.4-2.2-1.2-4.3-2.1-6.2c-1.6-3.2-3.9-6-6.7-8.4
		c-1.5-1.3-3-2.3-4.7-3.2c-1.1-0.6-2.3-1-3.5-1.5c-0.6-0.2-1.2-0.4-1.8-0.6c-1.2-0.3-2.5-0.6-3.7-0.9c-0.3-0.1-0.6-0.1-1-0.2
		c-0.3-0.1-0.6-0.2-0.9-0.3c-1.9-0.6-3.5-1.4-4.9-2.8c-1.6-1.6-3.2-3.3-4.8-4.9c-1.6-1.7-3.1-3.4-4.6-5.1c-2.3-2.7-4.1-5.7-3.9-9.4
		l0,0c-0.5-0.5-0.5-1.1-0.2-1.7c0-0.3-0.2-0.7-0.2-1c0-0.1,0-0.2,0-0.3c0.1-0.5,0.1-1,0.2-1.5c0.1-1,0.3-2,0.5-3.1
		c0.2-1,0.4-2,0.6-3c0.4-1.5,0.9-3,1.6-4.4c0.6-1.2,0.9-2.4,0.9-3.5c0-1.9-0.8-3.6-2.2-4.8c-0.2-0.2-0.4-0.3-0.6-0.5
		c-1.4-1-3.1-1.7-5-1.7c-2.6,0.1-5.2,0.4-7.6,1.1c-2.5,0.7-4.8,1.6-7.1,2.9c-4.5,2.6-8.4,6-12.2,9.5c-0.8,0.8-1.6,1.5-2.8,1.7
		c-1.9,0.3-3.7,1-5.7,0.9c-1.4,0.9-1.9,0.1-2.2-1.1c-0.3-0.3-0.6-0.7-0.8-1.1c-0.7-1.1-1.1-2.3-1.5-3.6c-0.5-1.6-1-3.2-1.7-4.7
		c-1.9-4.1-6.1-6.3-9.7-4.7c-3.4,1.5-6.8,3.3-9.6,6c-1.9,1.8-1.9,1.8-4.2,0.3c-2.1-1.4-4-3-6.4-3.8c-5.4-1.9-9.5-0.3-11.7,4.9
		c-0.5,1.3-0.9,2.6-1.1,4c-0.2,1.5-0.5,2.9-0.9,4.3c-0.5,2.1-1,2.4-3.1,2.2c-2.4-0.2-4.4-1.3-6.4-2.5c-1.3-0.8-2.7-1.6-4.2-2
		c-4.1-1.2-7.4,0.3-8.9,4.2c-0.7,1.7-1,3.5-1.4,5.3c-0.3,1.8-0.7,2-1.8,1.1c-0.3-0.3-0.5-0.7-0.8-1.1c-1.7-1.2-3.2-1.8-4.7-1.8
		c-0.6,0-1.2,0.1-1.8,0.4c-1.2,0.5-2.3,1.4-3.5,2.8c-0.9,1.1-1.6,2.5-2.3,3.8c-1.5,3-4,4.2-7.1,4.4c-0.7,0-1.5,0-2.2-0.1
		c-6.3-0.4-12.1,1.3-17.7,4.3c-4.8,2.6-8.2,6.7-12,10.4c-1.2,1.1-2,2.7-2.5,4.3c-1.4,4.3-0.5,8.2,2.2,11.7c0.9,1.2,2.2,1.8,3.7,1.1
		c1.9-0.9,3.8-1,5.7-0.9c1.1,0.1,2.3,0.3,3.4,0.6c0.7,0,1.4,0,2.1,0.5c-0.3,1.1-1.3,1.3-2,1.8c-1.5,1.4-3,2.7-4.4,4.1
		c-6,6.5-10.9,13.6-14.6,21.7c-1.7,3.8-3,7.7-3.2,11.9c0,0.7,0,1.5,0.2,2.2C395.9,393.8,397.5,395.7,399.7,396.3z"/>
	<path class="st2" d="M613.8,494.2c-0.9,0.7-2,1-3.1,0.5c-1-0.5-1.4-1.5-1.4-2.5c0-1.3,0.1-2.6,0.3-3.9s0.2-2.6-0.3-3.8
		c-2.2-5.1-5.1-9.6-9.2-13.3c-0.6-0.6-1.4-1.1-2.1-1.5c-0.1,0.1-0.2,0.2-0.2,0.3c-0.7,1-1.1,2.1-1.1,3.4c0,0.3,0,0.6,0,1
		c0.4,0.2,0.7,0.4,0.9,0.7c0.2,0.3,0.4,0.7,0.4,1.1c0.6,0.5,1.2,1.1,1.6,1.7c0.6,0.8,0.9,1.7,1.1,2.8c0,0.3,0,0.5,0,0.8
		c0,0.2,0,0.3,0,0.5s0,0.3,0,0.5c0,0.3,0,0.5,0.1,0.8s0.2,0.5,0.3,0.8c1.2,2.5,2.2,5.1,3.7,7.4c0.2,0.3,0.4,0.6,0.6,0.8
		c0.6,0.8,1.2,1.4,2,1.9c0.5,0.3,1,0.6,1.5,0.7c0.5,0.2,1.1,0.3,1.6,0.3c1.6,0.2,3.3-0.3,4.9-1.4c0.5-0.4,1-0.8,1.5-1.3
		c0.8-0.8,1.4-1.7,2.1-2.5c0.1-0.5,0-1.3,0.6-1.4c0.9-0.2,1.1,0.7,1.3,1.4c1.9,1.7,3.9,3.3,5.7,5c0.6,0.6,1.2,1.2,1.8,1.8
		c0.1,0.1,0.2,0.3,0.4,0.4c0.3,0.4,0.6,0.8,0.7,1.2c0.2,0.6,0.2,1.2,0,1.9c0,0,0,0,0,0.1c3.1,1.6,6,3.5,8.1,6.6c0,0.1,0.2,0,0.4,0.1
		c0.7-3.4,1.3-6.9,2.2-10.2c0.8-3.3,1.9-6.4,3.4-9.3c0-0.6,0.1-1.3,0.3-1.9c-0.2-0.4-0.1-0.8,0.2-1.1c-0.1-0.5-0.1-1,0.1-1.4
		c0.1-0.4,0.3-0.8,0.6-1.2c0.3-0.5,0.6-0.9,1-1.3c0.4-0.5,0.8-1,1.1-1.5c1.1-1.5,2-3.1,2.7-4.9c0.4-0.8,0.7-1.7,1-2.6
		c0.7-1.7,1.3-3.4,1.8-5.2c0.3-0.9,0.5-1.8,0.7-2.7c0.2-0.7,0.4-1.4,0.6-2.1c0.4-1,0.8-1.9,1.4-2.8c0.2-0.3,0.4-0.6,0.6-0.9
		c0.4-0.6,0.8-1.2,1.2-1.8c0.3-0.5,0.7-0.8,1.1-1.1c0.3-0.2,0.5-0.3,0.9-0.4c0.3-0.1,0.6-0.2,1-0.2c0.2,0,0.4,0,0.6,0
		c0.4,0,0.8,0.1,1.2,0.1s0.8,0,1.2,0s0.8,0,1.2,0s0.8,0,1.2,0c0.3-0.4,0.7-0.5,1.1-0.3c0.4-0.1,0.9-0.2,1.3-0.3l0,0
		c1.1-0.2,2.2-0.4,3.3-0.4s2.2,0,3.3,0.3c0.7,0.2,1.5,0.4,2.2,0.8c0.1,0,0.1,0,0.2,0.1c2.4-4,5-7.9,8.2-11.4
		c0.1-0.1,0.2-0.2,0.3-0.4c0-0.2,0-0.5,0-0.7c-0.3-5.2-2.2-9.5-5.7-12.8c-0.3-0.3-0.7-0.6-1-0.9c-0.7-0.6-1.5-1.1-2.3-1.6
		c-0.4-0.3-0.8-0.5-1.3-0.7c-1-0.5-2-1.1-3-1.7s-1.9-1.3-2.8-2c-1.7-1.4-3.3-3.1-4.5-5.2c-1.2-2-1.8-4.2-2.8-6.3
		c-0.4-0.8-0.7-1.6-0.9-2.4c-0.4-1.6-0.6-3.3-0.5-4.9c0.1-0.8,0.2-1.7,0.3-2.6c0.3-1.8,0.7-3.6,1.1-5.3c1-4.4,2.2-8.7,4.2-12.8
		c0.4-0.8,0.8-1.6,1.3-2.4c0.3-0.5,0.5-1,0.8-1.5c0.7-1.6,1.1-3.3,1.5-4.9c0.9-3.9,1.7-7.9,2.6-11.8c0.1-0.3,0.1-0.6,0.2-0.8
		c0.3-1.1,0.7-2.1,1.3-3.1c0.5-0.7,1.1-1.3,1.9-1.8c0.2-0.2,0.5-0.3,0.7-0.5c0.5-0.4,0.9-0.8,1.3-1.3c0.2-0.2,0.4-0.5,0.6-0.7
		c0.2-0.3,0.4-0.6,0.6-0.8c0.7-1.1,1.3-2.3,1.4-3.6c0-0.3,0-0.6,0-1s-0.1-0.8-0.3-1.3c-1.5-0.9-3.1-1.7-4.9-2.1
		c-2-0.5-3.8-1.3-5.4-2.7c-1.3-1.1-2.7-1.9-4.3-2.5c-3.5-1.2-6.8-2.8-10.1-4.5c-2.9-1.5-6.2-2.1-9.7-2.9c0.7,4.1,1.1,7.7,0.3,11.4
		c-0.2,1.2,0.5,1.9,1.2,2.6c2.5,2.6,4.6,5.6,5.9,9c3.7,9.3,6.1,19,6,29.1c0,2.6,0,5.2-1.9,7.3c-0.3,0.3-0.4,0.8-0.5,1.3
		c-0.6,3.2-1.2,6.3-1,9.6c0.3,3.6,0.6,7.2,0.6,10.8c-0.1,3.4,1.1,6.1,3,8.7c0.5,0.7,1,1.5,1.6,2.2c2.1,2.6,4.3,5.2,8.2,4.7
		c0.5-0.1,1.1,0.2,1.6,0.4c3,1.3,3.6,5.1,1.2,7.3c-1,0.9-2.2,1.4-3.5,1.5c-4.6,0.1-9-0.6-12.4-4.3c-1.2-1.3-2.3-2.6-3.5-3.9
		c-1.2,0.7-0.7,1.7-0.5,2.5c0.9,4.1,0.3,8.1-1.4,11.9c-0.4,0.9-0.8,1.9-1.1,2.8c-3,8.7-8.2,15.9-14.8,22c-4.4,4.1-9.2,6.1-15.2,2.6
		c0.3,1.5,0.5,2.8,0.8,4.2c1.1,6.2-0.6,11.7-4.5,16.5C614.8,493.3,614.4,493.8,613.8,494.2z"/>
	<path class="st2" d="M662.8,668.2c0-0.3-0.1-0.7-0.1-1c-0.2-0.1-0.4-0.3-0.4-0.5c-0.1-0.2-0.1-0.4,0-0.7c-0.3-1.4-0.9-2.8-1.3-4.2
		c-0.1-0.2-0.1-0.4-0.2-0.6c-0.1-0.3-0.1-0.5-0.1-0.8s0-0.6,0-0.9c-0.1-1.2-0.5-2.4,0.4-3.4c0-2.2,0-4.4,0-6.6
		c-0.8-0.7-0.5-1.5-0.4-2.3c-0.1-0.5-0.1-1.1-0.2-1.6c-0.5-0.3-0.5-0.7-0.4-1.2c0-0.3-0.1-0.6-0.2-1l0,0c-0.5-0.3-0.5-0.7-0.4-1.2
		c-0.4-1.7-0.6-3.4-0.9-5.1c-0.1-0.6-0.3-1.1-0.5-1.7c-0.2-0.6-0.4-1.2-0.7-1.7c-0.5-1.1-1-2.2-1.6-3.3c-0.3-0.5-0.6-1-1-1.5
		c-1.3-2-2.9-3.8-4.7-5.5c-1.2-1.1-2.4-2.3-3.6-3.5c-0.4-0.4-0.7-0.8-1.1-1.2c-1.4-1.7-2.7-3.5-3.5-5.6c-0.1-0.1-0.1-0.3-0.2-0.4
		c-0.2-0.4-0.6-0.8-0.9-1.2c-0.9-1.1-2.2-1.8-3.7-2c-0.4-0.1-0.7-0.1-1.1-0.1c-0.1,0-0.1,0-0.2,0c0.5,3.8,0.8,7.7,0.2,11.6
		c-0.2,1.1,0.3,1.9,0.9,2.8c1.6,2.1,3.5,3.8,5.3,5.7c1.8,1.8,3.5,3.6,4.6,5.9c2,4.2,2.7,8.4,0.6,12.8c-1.8,3.6-5.1,5.1-8.9,4
		c-0.6-0.2-1.2-0.5-1.8-0.7c-2-0.5-3.5,0.6-3.6,2.6c-0.1,1.8,0.2,3.5,0.5,5.2c0.2,1.1,0.6,2.2,0.6,3.3c0,2.3,0.7,3.9,2.5,5.4
		c1.5,1.2,1.5,3,0.6,4.5h26c-0.1-0.8-0.1-1.6-0.2-2.4C662.6,669.5,662.7,668.9,662.8,668.2z"/>
	<path class="st2" d="M372.5,605.2c-0.6,0-1.3,0-1.9,0c-1.1,0-2-0.2-2.9-0.8c-2-1.3-4.1-2.5-5.7-4.3c-1-0.4-1.7-1.2-2.3-2.1
		c-0.7-0.4-1.2-0.9-1.7-1.5c-0.2-0.2-0.3-0.4-0.4-0.6c-1.6-2.3-2.8-4.8-3.8-7.3c-1.7-0.6-3.4-1.3-5.1-2.2
		c-6.9-3.7-8.8-10.6-5.1-17.4c0.8-1.5,1.8-3,2.9-4.4c3.2-4.3,4.1-9.4,4.5-14.6c0.1-1.4-0.4-2-1.9-2c-2.8,0-5.4-0.9-7.8-2.5
		c-0.8-0.5-1.5-1.1-2.1-1.7c0,0.4-0.2,0.7-0.5,1c-0.2,0.2-0.3,0.4-0.5,0.6c-0.4,1-0.8,2.1-1.2,3c-0.2,0.3-0.3,0.6-0.6,0.9
		c-2.5,3.4-5.1,6.6-7.7,9.9c-1.7,2.1-3.4,4.3-4.7,6.7c-1.7,3.1-3.4,6.3-4.3,9.8c-0.9,3.6-1.6,7.1-1.6,10.8c0,4,2.1,6.3,5.6,7.5
		c1.6-0.7,3.3-0.3,5-0.3c0.4-0.1,0.8-0.1,1.1-0.2c1.5-0.5,1.5-0.5,2.2,1.6c0.2,1.2,0.7,2.3,1.3,3.3c0.3,0.5,0.7,1,1,1.4
		c0.4,0.5,0.7,0.9,1.1,1.4c1,1.3,1.7,2.7,2,4.1c0.5,2.6,1.5,5.1,2.5,7.5c1.5,3.5,3.5,6.7,6.7,9c1,0.7,1,1.7,0.7,2.7
		c-1.4,4.3-1.7,8.6-1.5,13.1c0.1,1.1-0.2,2.1-0.6,3.2c-0.6,1.6-1.5,3.2-1.5,4.9c-0.2,3.1-0.3,6.2-0.1,9.4c0.2,3,1.2,5.7,2.7,8.2
		c2.4,3.9,6.5,5.4,10.5,7c0.5-0.5,1.1-0.4,1.6-0.3c0.9-0.3,1.6-0.7,2.1-1.3c0.1-0.1,0.2-0.3,0.3-0.4c0.1-0.2,0.3-0.4,0.4-0.7
		c0.1-0.2,0.1-0.3,0.2-0.5c0.2-0.4,0.3-0.9,0.4-1.4c0.2-1.1-0.5-2.1-0.8-3.2c-0.9-3.6,0-7,2.5-8.3c0.9-0.4,1.6-1,2.3-1.6
		c-6-5.2-7-15.5-1.6-21.3c1.7-1.8,2.3-3.5,2.7-5.6c0.6-3.3,2.2-6.3,4.3-8.9c1.4-1.6,1.7-3.1,1.2-5.2
		C372,609.5,372,607.2,372.5,605.2z"/>
	<path class="st2" d="M709.8,476.3c-0.2-1.5-0.4-2.9-0.6-4.4c-0.1-0.5-0.1-1.1-0.3-1.6c-0.4-1-1.1-1.2-1.8-0.3c-2.5,3.5-6,4.3-10,4
		c-2.1-0.2-4.2-0.3-6.3-0.5c-1.2-0.1-2.1,0.1-2.9,1.2c-4.6,6.2-10.9,10.1-18.3,12.3c-2.9,0.9-5.2,2.7-7.1,5
		c-3.5,4.3-6.8,8.7-10.5,12.8c-1.9,2.1-3.2,4.6-3.6,7.6c-0.4,4.1-1.8,7.9-3.6,11.6c-0.6,1.2-0.6,2.1,0.3,3.3
		c1.9,2.4,3.2,5.3,3.4,8.3c0.2,2.8,0.5,5.5,0.9,8.2c0.8-0.8,1.6-1.6,2.4-2.4c0.3-0.3,0.6-0.6,0.8-0.9c1.8-2,3.1-4.4,4.1-7
		c0.6-1.8,0.9-3.5,1.3-5.3c0-0.1,0.1-0.3,0.1-0.4c0.1-0.2,0.2-0.4,0.4-0.5c0.4-0.3,0.8-0.2,1.3,0.4c0.4,0.4,0.7,0.9,1.1,1.4
		c0.3,0.5,0.6,1,0.9,1.5c0.2,0.4,0.5,0.8,0.7,1.3c0.4,0.9,0.8,1.8,1.1,2.7c0.2,0.5,0.3,0.9,0.5,1.4c0.1,0.3,0.2,0.5,0.3,0.8
		c0.3,0.8,0.6,1.5,1.1,2.2c0.3,0.4,0.7,0.8,1.1,1.1c0.2,0.2,0.4,0.3,0.7,0.4c0.2,0.1,0.5,0.2,0.8,0.3c1,0.2,1.9,0.4,2.9,0.4
		c0.6,0,1.1,0,1.7-0.1c1.3-0.2,2.5-0.8,3.6-1.8c0.2-0.2,0.3-0.3,0.5-0.5c2.8-3.1,4.3-6.8,5.6-10.6c0.8-2.2,1.3-4.3,1.5-6.5
		c0.1-1.4,0.2-2.9,0-4.3c-0.2-2.1-0.7-4.3-1.6-6.4c-0.2-0.5-0.4-1-0.6-1.5c-0.2-0.5-0.3-1.1-0.5-1.6c-0.6-1.8-0.9-3.7-0.7-5.5
		c0.1-0.6,0.2-1.2,0.4-1.8c0.3-0.9,0.7-1.8,1-2.7c0.4-0.9,0.7-1.8,1.1-2.6c0.8-1.7,1.7-3.3,2.8-4.8c0.3-0.4,0.6-0.7,0.8-1.1
		c1.2-1.4,2.5-2.7,4.1-3.7c1.2-0.8,2.6-1.4,4.1-2c0.3-0.1,0.6-0.3,0.9-0.4c0.1-0.1,0.2-0.1,0.3-0.2c1.4-0.6,2.8-1.4,4.1-2.2
		c1.3-0.8,2.6-1.6,4-2.4c0.2-0.7,0.8-1,1.5-1.1c0,0,0.1,0,0.1-0.1c0.2-0.3,0.7-0.4,1-0.5c0.2,0,0.4,0,0.6,0c0.2,0,0.4,0.1,0.6,0.2
		c0.3,0.1,0.6,0.2,0.9,0.2c0.2,0,0.4-0.1,0.5-0.2c0.2-0.1,0.3-0.2,0.5-0.4l0.1-0.1C709.8,476.3,709.8,476.3,709.8,476.3z"/>
	<path class="st2" d="M327.7,516.1c1.2,3.2,2.1,6.5,3.4,9.6c0.7,1.5,1.3,2.5,2,3.1c0.1-2.3,0.6-4.6,1.6-6.8c0.3-0.7,0.9-1.4,0.8-2.3
		c-0.3-2.8,0.6-5.5,0.8-8.2c0.3-3,0-5.9-0.9-8.7c-0.7-2.3-1.9-4.4-3-6.5c-2-4-3.8-8-3.5-12.6c0.1-1.2-0.5-1.4-1.5-1.3
		c-3,0.3-6,0.8-9,1.7c-0.8,0.2-1.5,0.7-2.1,1.3c-2.7,2.6-4.6,5.5-4.7,9.4c-0.1,3.3-0.3,6.6-1,9.9c-0.3,1.4-0.4,2.7-0.2,4
		c1.3-1.9,2.9-3.4,5.1-4.2c0.8-0.3,1.8-0.7,2.3-0.1c0.8,1,2.1,1.2,2.9,2C323.6,509,326.2,512.2,327.7,516.1z"/>
	<path class="st2" d="M637.6,570.4c0.3-0.8,0.5-1.5,0.8-2.3c1.5-5-0.5-10.7-4.6-13.8c-1.6-1.2-3.3-2.3-5.1-3.3
		c-0.7-0.4-1.5-0.7-2.4-0.5c-3.4,0.9-6.4-0.1-9.2-1.8c-2.8-1.8-5.9-1.9-9.1-1.7c-1.9,0.1-3.1,1-3.6,3.1c-0.9,4.1-2,8.2-3.2,12.3
		c-1.6,5.4-4.5,10.1-8.7,14c-7.3,6.8-16.2,10.5-25.6,13.1c-2.3,0.6-4.8,0.7-7-0.7c-1.3-0.8-1.8-0.2-2.4,0.8
		c-1.4,2.3-2.9,4.5-4.8,6.4c-4,4.1-7.6,8.5-11.4,12.8c-4.3,4.8-9.2,9.1-15.5,11.4c-3.9,1.4-7.9,2.7-11.8,3.9
		c-2.4,0.8-4.8,1.1-7.4,1.2c-8.4,0.4-16.3-1.4-24-4.7c-8.9-3.7-16.9-9-24.4-15c-2.2-1.8-4.6-3.5-6.8-5.6c-0.2-0.1-0.3-0.2-0.5-0.4
		c-1.4-1.3-2.6-2.8-3.7-4.5c-1.5,2.5-2.6,4.5-4.2,6.4c-3.8,4.6-8.6,7.2-14.5,7.7c-2.7,0.2-5.1-0.5-7.1-2.5c-2.2-2.2-2.8-5.4-1.2-7.8
		c0.4-0.6,0.9-1.2,1.3-1.8l-0.1-0.1c0.1,0,0.1,0,0.2,0c1.3-1.6,2.6-3.1,4-4.6c1-1.1,2.1-2.1,3.2-3.1c1.5-1.4,2-3.2,2.3-5.2
		c0.1-1-0.1-1.5-1.2-1.7c-3.7-0.6-7-2.3-10-4.5c-4.8-3.4-9.2-7.2-12.9-11.6c-5.8-7-9.3-15.1-9.6-24.2c-0.1-2.2-0.6-3.7-2.4-5.1
		c-4-3-6.2-7-5.9-12.2c0-0.4,0-0.7-0.3-1c-0.7-0.2-1.2,0.3-1.8,0.4c-4.5,1.2-8-1.2-8.3-5.9c-0.1-1,0-2-0.1-3
		c-0.5-5.8,1.3-10.9,4.9-15.4c0.8-0.9,1.6-1.8,2.3-2.7c0.4-0.5,0.9-1,0.9-1.7c0-2.9-0.9-5.6-1.8-8.3c-0.4-1.1-1.4-1-2,0.1
		c-0.6,1-1.1,1.9-1.6,2.9c-2.8,5.2-6.6,9.3-11.9,11.9c-5.2,2.5-10.4,4.8-16.3,4.8c-1.8,0-1.6,1.4-2.3,2.2c-0.9,1,0,1.5,0.5,2
		c1.1,1.2,1.6,2.7,1.6,4.3s-0.4,3.1-0.9,4.5c0.3,0,0.7,0.1,1,0.1c0.6-0.2,1.1-0.2,1.7,0c1.1-0.2,2.2-0.5,3.3-0.7
		c2.2-1.5,2.2-1.5,3.4,0c1.6,1.3,2.9,2.7,3.7,4.6c0.3,0.6,0.5,1.3,0.6,2c0.2,1.2,0.8,2.5,1.3,3.6c2.9,5.8,6.9,10.2,13.6,11.5
		c0.5,0.1,1.1,0.3,1.6,0.4c1.1,0.3,1.8,0.8,1.9,2c0.2,1.4,0.5,2.7,0.7,4.1c0.9,5,2.5,9.8,4.2,14.6c0.5,0.4,0.5,0.7,0,1.1
		c0,0.3-0.1,0.7-0.2,1c-0.2,0.6-0.6,1.1-1,1.6c-0.2,0.2-0.4,0.5-0.6,0.7c-0.8,0.8-1.5,1.6-2.3,2.4l-0.1,0.1c1.3-0.4,2.6-0.1,3.7,0.7
		c1.5,1.2,2,3.1,1.2,5.3c-0.2,0.5-0.4,1-0.6,1.5c-0.2,0.4-0.4,0.8-0.6,1.1c0.9,0.1,1.7,0.1,2.6,0c1.6,0,3.1,0,4.6,0.5
		c3.9,1.3,8,1.9,12.1,2.2c2.4,0.2,4,2.4,3.9,4.8c-0.1,1.4,0.1,2.8-0.2,4.1c0.2,0.4,0.1,0.8-0.2,1.1c-0.1,1.5-0.4,2.7-1,3.8
		s-1.6,2-2.9,2.9c-3.3,2.2-6.7,3.1-10.5,3.4c-0.9,0.6-1.9,0.6-2.8,0c-1.8,0-3.3-0.7-4.9-1.4c-0.9-0.4-1.9-0.8-2.9-1.1
		c-0.6,0-1.2,0-1.9,0.1c0.1,0.4,0.1,0.8,0.1,1.4c0,0.4,0,0.7-0.1,1.1c-0.7,3.2,0.5,5.8,2.8,8c2.9,2.8,4.6,6,3.8,10.1
		c-0.1,0.8,0.1,1.4,0.6,2.1c1.7,2.2,3.4,4.4,5.8,5.9c7,4.1,10.1,10.5,10.2,18.4c0,1.5,0.2,2.8,1.4,4c1.8,1.8,1,3.6-1.5,4.2
		c-1.5,0.4-3.1,0.3-4.9,0.3c-0.6,0-1.2,0-1.7,0c0,1.4,0.1,2.9,0.3,4.4c0.4,3.4,1.8,6.4,3.9,8.9c1.6,1.9,2.9,4,4.6,5.9h15
		c-0.3-1.4-0.5-2.9-0.6-4.4c-0.4-6.7,0-13.5,1.5-20.1c0.5-2.3,1.3-4.4,2.6-6.4c1.1-1.6,2.5-3,4.4-3.6c1.4-0.5,2.8-0.3,3.8,0.8
		c0.4,0.5,0.7,1,0.8,1.5c0.5-0.5,1.1-0.9,1.7-1.3c5.4-3.9,9.8-8.6,12.4-14.9c0.2-0.4,0.4-0.8,0.6-1.2c0.5-1.1,1.2-1.2,2.2-0.5
		c1.8,1.2,3.2,2.8,4.9,4.1c1.5,1.1,2,2.5,2,4.3c-0.1,4.1,0,8.1,0,12.2c0.7,0.7,0.5,1.5,0.4,2.3c0.1,0.9,0.2,1.8,0.2,2.7
		c0.4,0.3,0.5,0.7,0.4,1.2c0,0.3,0.1,0.7,0.1,1c0.7,0.8,1,1.8,1,2.8c0.6,1,0.5,2.3,0.9,3.4c0.1,0.4,0.3,0.7,0.5,1
		c2.4,3.1,4.8,6.2,7,9.5c0.4,0.6,1,1.1,1.6,1.4c2.2,1.3,4.1,2.9,6.2,4.2h25.8c-2.6-6.4-2.1-12.7,2.1-18.7c2.3-3.3,5-6.2,7.9-8.9
		c3.2-3,6.7-5.4,10.5-7.6c6.3-3.7,12.7-7.3,19.2-10.7c3.9-2,7.2-4.8,9.7-8.4c1.9-2.8,3.8-5.7,5.8-8.4c1.2-1.8,2.1-3.7,2.8-5.7
		c0.9-2.7,0.9-2.7,3.6-1.8c0.2,0.1,0.4,0.1,0.5,0.1c0.7,0,1.4,0,2.1,0.1c0.7,0,1.4,0.1,2.1,0.1c0.7,0,1.4,0,2.1,0
		c0.3,0,0.7-0.1,1-0.1s0.7-0.1,1-0.2c0.6-0.1,1.3-0.3,1.9-0.4c0.6-0.2,1.2-0.4,1.8-0.6c1.2-0.4,2.4-0.9,3.5-1.4
		c2.3-1.1,4.4-2.3,6.6-3.7c5.3-3.3,9.5-7.8,13.3-12.8c1.8-2.4,3.5-4.7,5.3-7.1c2.7-3.5,6-6.4,10.4-7.3c3.8-0.7,7.7-0.4,11.6,0.1
		c0.5,0.1,1.1,0.2,1.6,0.4C633.8,570.3,635.8,570.6,637.6,570.4z"/>
</g>
<g>
	<path class="st3" d="M629.6,238.4c0-0.1-0.1-0.1-0.2-0.1c-1.6,1.6-3.1,3.2-4.8,4.8c0.2,0.3,0.5,0.6,0.8,1c1.8,2.6,1.5,4.7-1.3,6.3
		s-4.5,3.9-6.2,6.5c-5.3,8-12.6,12.2-22.4,11.7c-0.9,0-1.8-0.3-3,0.1c1,1.3,2.3,2.3,3.7,3c1.2,0.4,2.5,0.8,3.8,1.1
		c2.2,0.2,4.5-0.2,6.6-1.5c4.8-2.9,9.6-5.9,14.4-8.8c2.7-1.6,5.1-3.6,6.7-6.4c0.5-0.8,1-1.3,2.1-1.4c1.7-0.1,2.2-0.8,2.3-2.5
		c0-0.8,0.1-1.7-0.1-2.5C631,246,629.9,242.3,629.6,238.4z"/>
	<path class="st3" d="M415.9,270.9c0.6-1.2,2.1-1.9,2.9-3.5c-1.3,0.3-2.1,0.6-3,0.7c-8.4,1.5-15.9,0.1-22.3-6
		c-2.1-2-3.8-4.3-5.3-6.7c-1-1.6-2.1-3.2-4.3-4.2c0.3,8.2-0.3,8.5,4,15.6c0.3,0.5,0.6,0.9,0.9,1.4c1,1.5,2.3,2.6,3.9,3.5
		c2.1,1,4.2,1.9,6.4,2.5c1.1,0.3,2.1,0.4,3.3,0.1c2.2-0.5,4.5-1,6.8-0.7C412.1,274,414.4,273.7,415.9,270.9z"/>
	<path class="st3" d="M573.2,235.7c1.3-2,3.1-3.7,5.2-4.8c3.4-1.9,6.8-3.7,10.1-5.6c0.8-0.5,1.7-0.6,2.6-0.6c3.8,0,7.5,0.3,11.2,1.2
		c4.6,1.2,8.9,2.9,12.6,6c0.4,0.4,0.8,1,1.5,0.9c0.2-0.4,0.1-0.8,0-1.1c-1.2-2.6-2.3-5.2-3.8-7.7c-1.6-2.6-3.8-4.4-7-4.9
		c-3.1-0.5-6.2-1.1-9.1-2.1c-3.5-1.2-6.5-0.2-9.4,1.6c-1.8,1.1-3.5,2.4-5.4,3.4c-5.7,3.2-10.7,7.2-13.7,13.2c-1,2-1.1,3.9-0.9,6.4
		C569.7,239.9,571.7,238,573.2,235.7z"/>
	<path class="st3" d="M387,238.2c3.3-5.6,8.2-9.1,14.2-11.2c3-1,6.1-1.6,9.2-2.1c3.3-0.5,6.6-0.6,9.8,0.9c5.2,2.4,9.5,5.8,11.8,11.2
		c1.2,3,3.2,5,5.7,7c0.5-0.8,0.2-1.3-0.1-1.8c-0.8-1.5-1.4-3-1.9-4.6c-1.2-3.9-3.2-7.3-5.8-10.6c-4.8-6.3-11.3-8.6-18.8-8.8
		c-1.9,0-3.7,0.3-5.4,1.1c-3.9,1.7-7.7,3.6-11.4,5.6c-6.3,3.4-10.1,8.7-12.5,15.2c-0.2,0.7-0.7,1.3,0.2,1.9c0.9,0.5,1.5,0.4,2.2-0.4
		C385.3,240.5,386.3,239.5,387,238.2z"/>
	<path class="st3" d="M648.8,249.6c1.1,3.8,1.9,7.7,1.4,11.7c-0.1,0.6-0.4,1.2,0.1,1.9c0.9-0.6,1.3-1.5,1.7-2.2c1-2,2-3.9,3-5.9
		c1-2,1.5-4.1,1.6-6.4c0.2-4-0.1-7.9-0.3-11.9c0-0.6-0.1-1.1-0.2-1.6c0-0.5,0.3-0.9,0.8-1.1c0.5-0.2,0.9,0,1.2,0.4
		c0.6,0.7,0.9,1.6,1.2,2.5c0.4,1.4,0.8,2.8,1.4,4.7c0.8-2,0.7-3.6,0.8-5.1c0.2-2.8,0.7-5.5,2.2-7.9c4.4-6.8,5.1-14.3,3.2-22
		c-0.7-3.1-2.6-5.6-5.6-7.1c-2.8-1.4-2.9-4.4-0.3-6.2c1.2-0.9,2.7-1.2,4.1-1.5c0.8-0.2,1.6-0.1,2.3-0.8c1.2-1.2,2.5-2.2,3.6-3.4
		c2.5-2.7,3.6-5.9,2.4-9.6c-1.6-5.2-3.9-10-7.2-14.2c-3.7-4.7-5.3-10-5-16c0.4-6.5-0.6-12.7-4.2-18.3c-0.6-1-1-2.1-0.1-3.1
		s2-0.7,3.1-0.3c3.1,1,4.9,3.4,5.7,6.3c1.3,4.7,4.3,7.4,8.8,8.5c0.3,0.1,0.5,0.2,0.8,0.3c8.7,3.7,13.6,10.7,16.7,19.3
		c0.2,0.5,0.4,1.1,0.3,1.6c-0.1,1.6,0.7,2.3,2.1,2.8c4.6,1.9,9.1,3.9,13.4,6.6c2,1.3,4.2,2.2,6.3,3.3c0.4-0.5,0.2-0.8,0.2-1.2
		c-0.3-1.2-0.6-2.5,0.3-3.4c1.4-1.4,2.1-3.6,4.1-4.4c1.3-0.5,2.5-0.2,3.7,0.4c1.3,0.8,2.2,1.9,3.1,3.2c1.3,1.9,2.3,4,3.2,6.1
		c0.4,1.1,1,1.9,2.3,2.2c2.1,0.5,3.9,1.7,5.4,3.2c0.8,0.7,1.6,1.2,2.7,1.3c4,0.1,7.9,1.1,11.8,1.7c10,1.6,18.1,6.6,24.3,14.6
		c3.7,4.8,4.7,10.1,3.6,15.9c-0.2,1-0.4,2-1,2.9c-1.8,2.9-5.3,3.2-7.4,0.7c-0.8-0.9-1.3-2-1.9-3c-1.2-2.1-2.8-3.9-4.6-5.4
		c-2.2-1.8-4.8-2.7-7.9-3.7c0.4,0.8,0.5,1.1,0.7,1.3c7.5,9.5,11.9,20.3,13,32.4c0.1,1.4,0.6,1.9,2,2c5.1,0.5,10,1.7,14.8,3.3
		c4.3,1.5,7.9,4,10.5,7.8c5,7.4,7.9,15.6,8.3,24.6c0,0.7-0.1,1.5,0.3,2.2c1.6,2.9,1.6,6,1.4,9.2c-0.9,12-3.9,23.4-9.1,34.3
		c-0.9,2-1.9,4-2.6,6.1c-2.5,7-5.1,14.1-7.9,21c-2.5,6.1-6.2,11.6-11,16.1c-3.1,2.9-6,5.9-8.5,9.4c-2.8,3.8-7.5,3.6-10.2-0.4
		c-1.2-1.8-1.8-3.8-2.3-5.9c-0.3-1.4-0.6-2.9-1.3-4.2c-1.2-2.4-2.9-3.8-5.8-4c-2-0.1-3.8,0.6-5.7,0.8c-0.6,0.1-0.9,0.6-0.9,1.2
		c0,0.7,0.1,1.5,0.1,2.2c0.5,7.2,1,14.4,0.2,21.6c-0.8,7.7-2.2,15.2-6.2,21.9c-0.1,0.2-0.2,0.5,0.2,0.7c0.9-0.1,1.6-0.7,2.5-1.1
		c1.8-0.8,3.8-1.7,5.6-1c3.1,1.2,5.3-0.1,7.4-2.1c0.3-0.3,0.7-0.6,1.1-0.8c4.8-2.7,7.9-6.8,9.2-12.2c0.2-1.1,0.8-2.1,1.2-3.1
		c0.4-0.9,1-1.8,1.6-2.5c2.8-3,7-2.9,9.7,0.2c0.8,0.9,1.3,2,1.8,3.1c0.3,0.8,0.8,1.2,1.7,0.9c6.1-1.7,11.7-4.2,15-10
		c1.3-2.2,2.7-4.4,4.1-6.6c5-7.8,7.5-16.4,7.8-25.6c0.2-5.4,2.1-9.6,6.2-13c1-0.8,2-1.7,2.4-3c1.4-5,3.1-10,1-15.4
		c-1.7-4.4-2.1-9.2-2.5-13.8c-0.2-2.5-0.2-5,0.8-7.4c1.5-3.6,5.2-4.4,8.1-1.8c0.6,0.5,0.9,1.4,2,1.7c-0.4-2.8-1.2-5.4-2.5-7.8
		c-2.9-5.3-4.8-11-7-16.5c-1.3-3.2-1.4-6.6-0.9-10.1c0.5-3.7,0.6-7.5-0.1-11.3c-1.4-7.8-4.5-15-8.6-21.7c-2.5-4.1-4.8-8.3-7.1-12.5
		c-1.2-2.1-2-4.4-2.1-6.8c-0.2-5,2.8-8.7,7.6-9.8c0.5-0.1,1.1,0.1,1.6-0.9c-1.6-2.6-3.4-5.2-5.4-7.7c-0.5-0.6-1.3-0.7-2-0.9
		c-11.8-3.5-21.7-9.6-28.8-19.9c-2.2-3.2-4.9-6-7.9-8.5c-5.9-4.9-12-9.5-18.7-13.4c-4.5-2.6-9.2-4.7-14.2-6.1c-4-1.1-8-2.4-12-3.4
		c-6.1-1.7-11.7-4.6-16.9-8.1c-2.7-1.8-5-4.1-6.8-6.8c-0.4-0.5-0.8-1-1.3-1.4c-3.4-1.9-5.5-4.9-7.3-8.1c-2.6-4.6-6-8.4-10.3-11.4
		c-1.8-1.3-3.5-2.7-5.3-4.1c-2.6-2.2-5.6-3-9-2.7c-4.8,0.4-7-1-8.5-5.7c-0.8-2.5-2.2-4.4-4.3-5.9c-2.4-1.7-4-4.1-4.7-7
		c-0.5-1.9-0.9-3.8-1.2-5.7c-0.4-2.3-0.4-2.3-2.6-1.1c-1.9,1.1-3.9,2.2-5.8,3.2c-3.7,1.8-7.5,3.2-11.7,2.9c-1.2-0.1-1.5,0.6-2,1.4
		c-1,2-2.7,2.7-4.9,2.2c-1.6-0.3-2.9-1.2-4.1-2.2c-1.8-1.5-3.6-3.1-5.5-4.6c-5.3-4.2-11.1-7.6-18.1-8.4c-3.7-0.4-7.4-0.3-11.1,0
		c-3.9,0.4-7.7-0.1-11.5-1.1c-3.8-1-7.6-2.2-11.3-3.7c-6.6-2.6-13.5-2.5-20.4-2.6c-0.8,0-1.6,0.3-2.4,0.4c-3.9,0.8-7.6,2.3-11.3,3.7
		c-4.7,1.8-9.5,3-14.5,3.2c-0.6,0-1.3,0.1-1.9,0.3c-5.4,1.3-10.8,1.4-16.1-0.1c-1.9-0.5-3.7-1-5.6-1.6c-2.2-0.7-4.4-0.6-6.5,0.3
		c-2.3,1-4.6,2-6.8,3c-5,2.2-10.2,2.5-15.4,0.7c-4.4-1.5-8.7-3-12.9-5c-4.7-2.2-9.7-3.6-14.7-4.9c-8.7-2.2-17.3-2.2-25.8,1.1
		c-2,0.8-3.8,1.7-5.3,3.2c-4.8,5-10.7,8.4-16.9,11.3c-2.8,1.3-5.8,2-8.8,2.2c-4.5,0.4-9,0.6-13.6,0.4c-0.6,0-1.3-0.3-1.9,0.5
		c0.6,0.8,1.3,1.7,1.9,2.6c2,3.1,1.2,6.9-1.9,8.9c-1,0.7-2.2,1-3.3,1.3c-2.5,0.6-5.1,0.9-7.6,1.2c-4.5,0.6-8.9,1.8-12.3,5.1
		c-5.3,5.3-11.7,8.6-18.9,10.3c-0.9,0.2-1.8,0.2-2.5,0.7c-0.2,0.6,0,1,0.2,1.4c1.2,4.3-1.4,9.5-6.9,9.9c-2.3,0.2-4.4,1.4-6.6,2
		c-2.1,0.6-3.7,1.9-5,3.7c-2.1,3-4.4,5.7-7.1,8.1c-3.3,2.9-6.9,5.3-10.4,7.8c-0.6,0.4-1.4,0.6-1.6,1.4c0.1,0.1,0.1,0.2,0.1,0.3
		c0.2,0.1,0.4,0.1,0.5,0.1c5.9,0.7,11.1-0.9,15.9-4.2c0.7-0.5,1.3-1,2-1.4c2.5-1.5,4.9-0.3,5.3,2.5c0.2,1.5-0.2,2.9-0.8,4.3
		c-1,2.2-2.6,4.1-4.5,5.5c-3.5,2.6-6.7,5.5-9.8,8.6c-4.7,4.6-10.3,5.9-16.6,3.6c-0.5-0.2-1.1-0.3-1.6-0.6c-1.1-0.6-2.1-0.5-3.2-0.1
		c-2.5,1-5,2-7.5,2.8c-1.9,0.7-3.7,1.4-5.3,2.9c-1.6,1.6-3.5,1.7-5.1,0.6c-1.5-1-2.1-2.6-1.7-4.6c0.1-0.6,0.6-1.3,0-2.2
		c-2.3,2.4-4.8,4.4-7.4,6c-2.7,1.7-5.3,3.3-8,4.9c-4.2,2.5-8.4,5-12.8,7.2c-4.5,2.3-6.9,6.2-8.8,10.6c-0.4,0.8-0.3,1.4,0.8,1.5
		c0.4,0,0.7,0,1.1,0.1c4.6,0.7,6.6,5,3.9,8.9c-1.6,2.2-3.5,4.1-6,5.3c-5.5,2.6-11.2,4.3-17.4,3.8c-3.9-0.3-7.7,0.4-11.6,1.2
		c0.6,1,1.4,1.4,2.2,1.8c2.4,1.2,4.5,3,7.6,2.4c1.6-0.3,3,0.9,3.7,2.5c0.7,1.5,0.2,2.9-0.7,4.1c-0.3,0.4-0.6,0.7-0.9,1
		c-6.8,7.4-11.7,15.9-15.2,25.2c-2.5,6.7-3.1,13.4-1,20.3c0.7,2.2,0.6,4.4-0.2,6.5c-0.7,1.8-1.8,3.2-3,4.6c-2,2.4-3.1,5.2-3.4,8.3
		c-0.7,5.7,0,11.2,1.1,16.8c0.1,0.4-0.1,1.2,0.8,1.2c0.6-0.7,0.7-1.7,1-2.6c1.6-4.6,2.3-9.3,3.3-14c0.5-2.3,1.6-4.2,4.1-4.6
		s4.2,1,5.6,2.9c1.3,1.7,1.9,3.8,2.5,5.8c1.5,5.8,1.7,11.7,0.8,17.6c-0.5,3.7-1.2,7.3-1.2,11c0,4.5,0.3,9-0.3,13.5
		c-0.1,0.9,0,1.6,1.1,1.9c3.6,0.9,5.1,3.6,5.9,7c2.5,11.3,7.6,21.5,13.9,31.2c0.4,0.7,0.8,1.5,1.6,1.8c0.5-0.3,0.7-0.8,1-1.3
		c2.3-3.3,5.9-4.2,9.5-2.5c1.3,0.6,2.5,1.6,3.5,2.6c2,2.1,4,4.1,5.9,6.2c3.7,4.1,8,7.4,13,9.7c3.1,1.4,5.9,3.4,8.5,5.6
		c2.3,2,4.3,4.3,6.2,6.6c0.2-0.2,0.4-0.3,0.5-0.4c2.5-3.7,5.2-3.7,7.7,0c0.5,0.7,0.9,1.6,1.7,2.1c4.6-3.8,4.6-3.8,10.9-5.1
		c0.7-0.1,1.4-0.4,2-0.9c1.8-1.9,3.5-3.8,5.3-5.7c0.8-0.9,0.5-1.5-0.6-1.7c-2.8-0.6-5.5-1.5-8.1-2.8c-0.8-0.4-1.6-0.1-2.4,0.1
		c-2.9,0.9-5.6,0.6-8.4-0.4c-4.3-1.5-8.2-3.8-11.5-7c-1.7-1.6-3.2-3.3-5-4.8c-4-3.4-7.3-7.3-10-11.7c-4.9-8.1-12.1-13.6-20.1-18.2
		c-6.6-3.8-10.2-10.3-9.3-18c0.2-2.2,1.1-3.9,3.3-4.7c2.2-0.8,4,0.1,5.5,1.6c1.2,1.3,2.3,2.6,3.5,3.9c3.5,3.8,7.8,5.1,12.8,4.2
		c1.9-0.3,2.1-0.7,0.9-2.3c-2.2-2.9-4.1-5.9-5.4-9.3c-0.5-1.3-1.4-1.8-2.7-2c-2.9-0.4-5.5-1.7-7.6-3.7c-1.5-1.4-3.1-2.3-5-2.9
		c-1-0.4-2.1-0.8-3.1-1.1c-5.7-2-9.1-6-10.5-11.9c-1.3-5.3-1.2-10.6-0.9-16c0.3-4.7,2-9,4.9-12.7c0.6-0.8,1.3-1.6,2-2.2
		c2.5-2.1,5.4-1.2,6.1,1.9c0.3,1.2,0.4,2.6,0.5,3.8c0.1,2.7,0.3,5.3,0.3,8c0.1,4.1,1.6,7.2,5.4,9.2c3,1.7,4.9,4.4,5.6,7.9
		c0.1,0.6,0.4,1.2,0.6,1.8c0.3-1.5,0.3-2.8,0.3-4.2c0-1.5,0.3-2.9,0.6-4.4s0.8-3,1.8-4.3c2.2-2.7,5.5-2.3,6.8,0.9
		c0.2,0.4,0.3,0.9,0.4,1.3c1.3,3.2,3.3,6,6.1,8c2.5,1.9,5.1,3.1,7.9,0.5c0.2-0.2,0.5-0.3,0.7-0.4c1.8-0.8,3.4-0.5,4.8,0.8
		c4.1,3.6,8.1,7.2,12.2,10.8c1.3,1.2,2.8,2.1,4.3,3c0.5,0.3,1,0.7,1.7,0.5c0-0.3,0.1-0.5,0.1-0.7c-0.2-0.6-0.4-1.2-0.6-1.8
		c-2.3-5.8-3.1-11.7-2.3-17.9c0.2-1.3,0.1-2.6,0.3-3.9c0.5-3.3-0.6-5.9-3.2-8.1c-2-1.6-3.6-3.7-4.8-6c-3.1-5.5-4-11.5-3.5-17.7
		c0.7-7.9,2.7-15.4,6-22.6c6.1-13.5,14.4-25.5,25.3-35.7c0.8-0.7,1.7-1.4,2.1-2.3c-0.4-0.5-0.8-0.4-1.1-0.4
		c-3.1,0.4-6.1,0.3-9.1-0.5c-3.6-1-7-0.2-10.3,0.6c-6.1,1.6-10.7,5.6-14.9,10.2c-3.3,3.6-4.4,8-4.9,12.7c-0.5,4.8-2.3,9.1-5.8,12.5
		c-0.7,0.7-1.2,1.4-1.4,2.3c-1.6,6.5-2.7,13-0.8,19.7c0.1,0.5,0.3,1.1,0.3,1.6c0,1.9-1.3,2.9-3.1,2.5c-0.6-0.2-1.3-0.4-1.7-0.8
		c-4.2-3.3-7.7-7.2-8.5-12.8s0.3-10.8,2.7-15.9c0.6-1.2,2.1-2.5,1.6-3.7c-0.6-1.4-2.6-0.7-4-1.1c-2.3-0.7-4.1,0.3-5.7,2
		c-1.4,1.6-2.5,3.4-3.6,5.2c-0.6,1-1.2,2.1-2.2,2.9c-1.4,1.1-2.8,0.9-3.8-0.5c-2.1-3.2-3.7-6.6-3.2-10.6
		c1.4-11.3,5.6-21.1,15.2-27.8c5.6-4,11.5-7.7,17.8-10.6c1.4-0.6,2.5-1.5,3.5-2.6c1.9-2.1,4-3.9,6.5-5.1c6.7-3.3,13.8-5.3,21.2-5.6
		c2.7-0.1,4.5-0.9,6.2-2.7c6.4-6.6,14.2-10.2,23.5-9.8c3,0.1,6.1-0.1,9-1.2c4.1-1.5,8.2-2.9,12.1-4.8c5.1-2.6,10.5-4,16.2-4.1
		c2.1,0,3.4-0.8,4.6-2.4c0.5-0.7,1-1.3,1-2.2c0-1.6,0.5-3.1,1-4.6c2.1-6.6,4.8-12.8,8.7-18.7c4.1-6.2,8.5-12,14.2-16.8
		c0.4-0.4,0.9-0.6,1.1-1.2c-2.5-3-2.7-4.9-0.3-7.8c4.8-5.8,10.8-10,18-12.4c0.9-0.3,2-0.5,3-0.6c6.4-0.8,12.2,1.3,17.8,4.2
		c2.4,1.2,4.8,1.4,7.6,2.1c-0.4-1.9-1.5-3.2-2.3-4.6c-0.8-1.2-1.6-2.3-1.9-3.7c-0.7-2.8,1.2-4.8,4-4.3c0.5,0.1,1.1,0.3,1.6,0.5
		c6.5,2.5,9.7,7.7,10.7,14.3c0.4,2.7,0.8,5.4,1.4,8.1c0.8,3.4-1.1,6-4.5,6.6c-1.5,0.3-2.9,0-4.4-0.1c-3.6-0.3-7.2-0.6-10.8-0.8
		c-2.7-0.1-4.3,1.5-4.7,4c-0.2,1.1,0.3,2,0.6,2.9c0.9,3-0.6,5.6-3.7,6.1c-0.9,0.1-1.9,0.1-2.8,0c-6.9-1-13.8-0.7-20.5,1.3
		c-2,0.6-4,1-6,0.7c-1.3-0.2-2.1,0.4-2.9,1.2c-3.4,3.4-5.9,7.3-7.7,11.7c-0.2,0.5-0.5,1-0.1,1.7c0.9,0,1.8-0.7,2.7-0.9
		c1.2-0.2,2.8-1.8,3.6,0.1c0.7,1.5-1.2,2.1-2.2,2.7c-3.5,2.2-7,4.5-10.1,7.3c-2.6,2.3-5,4.9-6.9,7.9c-0.5,0.8-0.9,1.5-0.4,2.5
		c1.3,2.3,0.7,4.6-0.3,6.9c-0.9,1.9-1.7,3.9-2.6,5.8c-1.6,3-1.8,5.8-0.4,9.1c2.6,6.1,1.1,11.6-3.7,16.1c-1.3,1.3-2.8,2.4-4.3,3.5
		c-1.5,1.2-2.6,2.6-3.3,4.3c-1.1,2.5-1.7,5.2-2.2,7.9c-1,5.3-1,10.5-0.1,15.7c0.6,3.6,2.4,6.3,6,7.6c2,0.7,3.2,2.2,3.3,4.3
		c0.1,2.2-1,3.7-2.8,4.7c-1.4,0.8-2.8,1.4-4.2,2.2c-3.4,2-6.8,4.2-9.3,7.3c-2.3,2.9-4.5,5.9-6.8,8.7c-5.3,6.4-9.3,13.5-11.7,21.5
		c-0.4,1.3-0.9,2.6-1.3,3.9c-5.6,17.2-6.8,34.5-1.6,52c0.4,1.4,0.7,2.9,1,4.3c0.7,3.1,0.7,6.2,0,9.3c-0.5,2-1,3.9-1.3,5.9
		c-2.3,15.5-1.5,30.7,4.6,45.4c2.8,6.7,6.3,12.7,11.4,17.8c0.5,0.5,1.1,1,1.5,1.6c1.2,1.8,0.4,3.8-1.7,4.3c-0.7,0.2-1.5,0.1-2.2,0
		c-2.5-0.4-2.6-0.2-2.4,2.3c0,0.6,0.1,1.1,0.2,1.6c0.7,4.7,2,9.2,3.8,13.5c2.5,6.1,4.1,12.4,3.6,19.1c0,0.5-0.3,1.1,0.5,1.5
		c1-1.1,2-2.4,3.6-2.7c1.9-0.3,3.4-1.2,4.9-2.2c3.7-2.5,7.9-1.5,10.3,2.2c1,1.6,1.7,3.3,2.1,5.1c0.4,1.8,0.7,3.6,1.1,5.4
		c1.2,5,4.4,8.5,8.7,10.8c3.4,1.8,6.7,3.5,8.6,6.9c0.3-0.1,0.5-0.1,0.6-0.1c6.3-4.3,8.9-10.6,9.4-18c0-0.6-0.1-1.1-0.7-1.4
		c-2.6-1.6-2.7-4-2.1-6.6c0.2-1.1,0-1.7-0.9-2.3c-2.1-1.5-3.2-3.8-3.9-6.2c-0.6-2.2-0.7-4.6-0.8-6.9c0-1.4-0.5-2.7-1.2-3.9
		c-2.6-4-4.8-8.1-6.9-12.3c-1.6-3.2-2.6-6.5-3.1-10c-0.1-0.6,0.1-1.3-0.7-1.8c-2.9,1.4-5.9,2.9-8.4,5.1c-1.6,1.5-2.4,3.1-1.7,5.4
		c0.8,2.7,1.3,5.4,2.4,7.9c0.5,1.2,0.7,2.4-0.5,3.2c-1.2,0.8-2.3,0.4-3.3-0.4c-1.5-1-2.5-2.5-3.2-4.1c-2.2-4.6-4.5-9.1-6.4-13.8
		c-2.9-7.3-2.3-14.5,2.4-21c0.8-1.1,0.6-1.8-0.5-2.4c-0.7-0.4-1.3-1-2-1.5c-5.2-3.9-8.9-8.8-11.2-14.8c-3.1-8.4-4.5-17.1-3.6-26.1
		c0.4-3.5,1.2-6.9,3.3-9.9c0.7-1.1,1-2.1,0.7-3.4c-0.6-2.5-0.5-5.1-0.2-7.7c0.4-3.6,1.5-7,2.6-10.4c0.4-1,0.8-2,0.4-3.2
		c-0.9-3.2-0.9-6.6-0.7-9.9c0-0.6,0.4-1.3-0.4-1.7c-0.8,0.3-1.3,1.1-1.9,1.6c-0.9,0.9-2,1.4-3.3,0.9c-1.4-0.5-2-1.7-2.1-3
		c-0.2-1.9,0.4-3.7,1.1-5.3c0.6-1.3,1.2-2.5,1.5-3.9c1.3-5.1,3.9-9.5,7.8-13.1c0.4-0.4,1.1-0.6,1-1.5c-1.7,0.1-3.2,1-4.8,1.4
		c-2.5,0.6-4.5-0.8-4.5-3.1c0-1.2,0.4-2.3,1.3-3c3.1-2.4,4.7-5.9,7-8.8c1.9-2.4,2.9-5,3.6-7.9c2.7-10.2,7.6-19.2,14.7-26.9
		c2.5-2.7,4.6-5.8,7.3-8.3c0.9-0.9,0.8-1.7,0.3-2.7c-1.8-3.9-1.7-7.8-0.7-11.9c1.2-4.7,3.5-8.7,7-12c1.8-1.8,3.9-3.5,1.8-6.5
		c-0.7-1,0.1-2,1.3-2.1c5-0.7,8.9,3.9,7.4,8.6c-0.5,1.7-1.5,3.2-2.5,4.6c-1.4,2-2.9,4-4.3,6.1c-2.5,3.8-3.4,8-2.3,12.4
		c0.8,3.1-0.2,5.3-2.6,7.2c-3.1,2.5-5.9,5.4-7.7,9c-5.1,9.8-6.6,20.1-3.8,30.8c0.3,1.3,0.8,2,2.3,2.2c4.1,0.4,7.3,2.5,9.8,5.6
		c1.1,1.4,1.5,1.4,2.8,0.3c0.5-0.4,0.9-0.9,1.2-1.5c1.2-2.3,3-4,4.8-5.7c0.7-0.6,1.4-1.2,2-1.9c0.6-0.6,0.6-1.3-0.2-1.8
		c-2.8-1.9-3.5-4.8-3.9-7.9c-1.4-10.7,2.9-19.2,10.1-26.7c0.6-0.6,1.2-1.4,2-1.3c1.6,0.2,1.8-0.8,2.1-1.9c0.3-1.1,0.6-2.1,0.9-3.2
		c2.1-6.4,5.8-11.4,11.8-14.8c3.7-2.1,7.3-4.3,11.5-5.4c0.5-0.1,1.1-0.3,1.5-0.7c2-1.8,4.4-3,6.9-4c0.5-0.2,1.1-0.5,1.1-1.1
		c0.1-0.9-0.9-0.8-1.4-1c-3.1-1.2-4.8-3.3-5.1-6.6c-0.1-0.5,0.1-1.1-0.4-1.5c-2.7,0.5-3.9,1.2-5.8,3.3c-1,1.1-1.9,2.2-3.2,3.1
		c-4.2,2.9-9.1,1.1-10.5-3.8c-1-3.6,0.1-6.8,2.6-9.4c2.6-2.8,5.9-4.2,9.6-5.1c5.3-1.3,10.6-1.1,16-1.1c1.5,0,2.8-0.3,4.2-1
		c4.9-2.6,9.9-2.7,14.9-0.2c0.7,0.4,1.5,0.8,2.3,0.9c4.4,0.8,7.8,3.1,10.6,6.6c1.7,2.1,3.4,4.1,5.1,6.1c1.1-0.8,1.4-1.9,1.8-2.9
		c1.3-3.4,0.5-5.8-2.5-7.9c-0.8-0.6-1.7-1.1-2.6-1.7c-0.7-0.5-1.6-0.9-1.1-1.9c0.4-0.8,1.2-0.7,2-0.6c4.8,0.7,9,2.6,11.8,6.9
		c3.7,5.5,4.7,13,0.4,19c-0.4,0.5-0.9,0.9-0.9,1.6c0.1,0.1,0.1,0.2,0.1,0.3c0.6,0.3,1.1,0.6,1.7,0.9c5.4,2.6,9.3,6.5,10.9,12.5
		c0,0.2,0.1,0.4,0.2,0.5c0.5,1.2,1.9,2,3,1.4c2.5-1.4,5.2-2,8.4-1.8c-0.6-1.2-0.9-2-1.3-2.8s-1-1.5-1.5-2.3
		c-1.8-3.4-0.5-6.5,3.2-7.7c0.7-0.2,1.4-0.4,2.2-0.4c9.6-0.5,17.5,3.7,20.8,12.8c1.3,3.6,3.9,6.5,5.6,9.9c0.9,1.8,2.9,1.3,4.5,1.4
		c1.3,0,1.2-1.4,1.4-2.4c1.1-4.6,3.6-8.6,5.5-12.9c0.6-1.4,1.7-2.4,2.8-3.4c3.2-2.5,6.9-1.7,8.9,1.9c0.9,1.6,1.1,3.3,1.5,5
		c0.3,1.4,0.2,2.9,1.3,4.3c3-2.9,5.7-5.9,8.2-9.1c0.6-0.8,0.7-1.7,0.9-2.6c0.6-2.9,1.2-5.8,1.9-8.6c1-4.1,3-7.5,6.2-10.3
		s5.6-3,9.3-0.8c0.1,0.1,0.3,0,0.6-0.1c0.2-0.4,0.5-0.9,0.7-1.4c4.5-11.1,21.3-18.8,34.7-9.4c1.8,1.3,3.5,1.8,5.6,1.8
		c5.2,0,10.3,0,15.4,1.3c0.6,0.2,1.2,0.2,1.9-0.1c4.9-2.3,10.1-1.9,15.2-0.9c2.4,0.4,4.5,1.7,6.4,3.2c1.7,1.3,2.8,3.1,3.3,5.3
		c0.6,2.4-0.6,4.4-3,5.2c-0.4,0.1-0.9,0-1.4,0.6c3.6,6,4.7,12.8,6.1,19.6c0.7,3.4-0.1,5-3.5,6c-0.3,0.1-0.5,0.2-0.6,0.7
		c0.8,2.2,1.8,4.6,2.2,7.1c0.3,2.5,0.2,5,0.3,7.5c0,0.9-0.1,1.9,0.6,2.6c2.2,2.4,2.7,5.8,4.9,8.3C648.5,248.3,648.7,249,648.8,249.6
		z M496.3,202.6c-0.1,0.4-0.3,0.7-0.5,1c-0.4,0.6-0.8,1.1-1.6,0.9c-0.8-0.2-0.9-0.8-1-1.5c-0.1-1.7-0.2-3.5-0.5-5.2
		c-0.6-4.5-2.4-6.4-6.9-6.9c-3.9-0.5-6.8-2-8.3-5.8c-1.3-3.1-3.8-4.9-7-5.8c-1.1-0.3-2.1-0.6-3.1-1.1c-2.8-1.2-4.5-3.4-5.1-6.5
		c-0.6-3.8,1.7-7,5.7-7.9c6.3-1.5,13.9,2,17.3,7.8c1.1,1.9,1.9,4,2.4,6.2c0.3,1.2,0.9,1.8,2.1,2.2c5.6,1.9,8.4,6,8.4,12.7
		C497.9,195.6,497.3,199.1,496.3,202.6z M501.1,159.4c-1.9,0.2-3.4-0.8-3.4-2.3c-0.1-3.1-1.7-4.9-4.1-6.7
		c-5.3-3.9-11.4-5.5-17.6-6.9c-2.8-0.6-5.7-0.4-8.5,0.6c-1,0.4-1.8,0.8-1.8,2.1c0,0.5-0.2,1.2-0.5,1.5c-1.9,1.8-2.9,4.3-4.5,6.2
		c-2.6,3.1-6.4,3.4-9.6,1c-0.5-0.4-1-0.8-1.4-1.3c-2.2-2.6-5-4.3-8.5-4.8c-1.3-0.2-2.3-0.7-2.7-2c-0.4-1.4,0.2-2.5,1.4-3.3
		c2.1-1.5,4-3.3,6.4-4.3c1.8-0.7,3.6-0.9,5.4-0.8c0.9,0.1,1.6,0,1.9-1.1c0.8-3.1,2.7-5.4,4.9-7.6c0.2-0.2,0.3-0.5,0.5-0.9
		c-2.2-1.7-4.6-2.7-7.2-3.5c-4.5-1.3-9-2.1-13.6-0.8c-1,0.3-2-0.3-3-0.2c-11,0.8-20.7,4.5-28.4,12.6c-2.4,2.5-3.8,5.7-4.9,8.9
		c-0.6,1.9-1.2,3.9-1.8,5.8c-1.1,3.4-3.4,5.7-6.7,6.9c-1,0.4-2.1,0.7-3.2,1c-4.8,1-9.3,3.1-13.7,5.1c-1.5,0.7-2.9,1.6-4.3,2.5
		c-3,2.1-5.1,4.7-5.8,8.4c-0.3,1.9-0.9,3.8-2.2,5.3c-2.1,2.5-4.6,2.3-6.2-0.5c-0.7-1.3-0.9-2.6-0.8-4c0.5-7.7,3.4-14.5,7.8-20.7
		c0.4-0.6,1-1.1,1.3-1.8c1.6-3.6,4.5-5.8,7.9-7.5c4-2,8-4.3,12.4-5.4c1-0.2,1.6-0.9,2-1.7c0.8-1.4,1.5-2.8,2.3-4.1
		c3.1-5.2,7.4-8.9,13.4-10.4c1.8-0.4,3.7-0.5,5.5-0.2c1,0.1,1.9,0,2.9-0.5c6.9-4,14.4-6.1,22.2-7.4c1.7-0.3,3.1-0.8,4.2-2.2
		c1.9-2.4,4.5-3.8,7.5-4.3c2.4-0.4,4.6-1.4,7-1.6c0.7,0,1.7,0.1,1.7-1s0.7-2.4-0.7-3.3c-0.5-0.3-1.1-0.6-1.7-0.9
		c-3-1.6-5.7-3.5-7.3-6.6c-0.5-1-1.2-1.2-2.3-1.1c-1,0.2-2,0.4-3,0.4c-2,0.1-3.5-0.8-4-2.3c-0.6-1.8-0.1-3.3,1.2-4.5
		c2.7-2.4,6-3.2,9.4-3.7c3.9-0.5,7.7,0.2,11.6,0.7c3.1,0.4,6.2,0.8,9.3,1.5c6.9,1.8,10.8,6.2,12.2,13.2c0.8,4.4,1.2,8.9,2.3,13.3
		c0.2,0.6,0.4,1.2,0.7,1.8c2.3,4,4.7,7.9,6.5,12.2c0.8,1.9,2.6,3.4,3.4,5.3c1,2.4,2.4,4.3,4.6,6c2.8,2.1,4.1,5.5,4.5,8.9
		c0.4,2.7,0.4,5.5,0.4,8.3C502.5,158,502.6,159.3,501.1,159.4z M514.2,113.1c-0.8,0.7-1.6,1.2-2.5,1.6c-3.1,1.4-5.8-0.1-6.1-3.6
		c-0.1-1.8,0.2-3.5,0.7-5.2c0.5-1.8,1-3.5,1.5-5.3c0.5-1.7,0.6-3.4,0.6-5.2c-0.1-1.6-0.6-3-1.9-4.1c-0.8-0.7-1.5-1.4-2.1-2.2
		c-1.7-2.6-0.3-5.8,2.8-6.3c1.2-0.2,2.4,0,3.5,0.5c0.9,0.4,1.9,0.9,2.5,1.7c2.2,3,5.5,4.7,8.6,7.2c0.3-1,0.5-1.8,0.8-2.6
		c1.2-3.6,3.1-6.8,6.2-8.9c2-1.4,3.6-3.1,5.1-5c2.5-3.2,5.5-5.4,9.7-5.8c1.1-0.1,2.2-0.1,3.3,0.2c3.5,0.8,5.5,3.5,5.1,7.1
		c-0.3,2.7-1.4,4.9-3.2,6.9c-1.4,1.5-3,2.7-4.7,3.8c-1.6,1-3.3,2-4.9,3c-4.3,2.6-7.4,6.3-9.3,11c-1.2,3-2.9,4.9-6.3,4.7
		c-0.7,0-1.2,0.4-1.7,0.8C519.3,109.4,516.6,111.1,514.2,113.1z M567.7,167.1c-1.2,2.2-3.4,2.9-5.3,1.3c-1.2-1-2.3-1.1-3.7-0.9
		c-9.6,1.3-15.8,7.3-21.2,14.7c-0.6,0.8-1,1.7-1.6,2.6c-2.3,3.2-5.1,3.9-8.7,2.2c-0.3-0.2-0.7-0.3-1.1-0.4c-1.1,2.2-1.1,4.5-1.6,6.8
		c-0.2,0.9,0.1,2.4-1.1,2.6c-1.1,0.2-1.6-1.1-2.2-1.8c-2.9-3.7-3-8-2.5-12.4c0.4-3.4,1.4-6.7,2.7-9.8c1.7-4,4.3-7,8.1-9.1
		c2.7-1.5,5.2-1.6,7.8,0.3c1.6,1.2,3.2,0.7,3.8-1.2c1.7-5,5.6-7.7,9.9-9.9c4.6-2.3,8.4-1.7,12.2,1.7c3.1,2.7,5.3,5.9,5.1,10.3
		C568.5,165.1,568.3,166.2,567.7,167.1z M643.9,166.3c-2.5-0.3-4.3-1.4-5.7-3.4c-0.5-0.8-1.2-1.4-1.7-2.2c-2.4-3.8-6.2-5.3-10.6-6.2
		c0.8,1.4,1.6,2.8,2.4,4.3c2.7,4.9,2.8,10,1.4,15.3c-0.4,1.5-1.2,2.7-2.9,2.9s-3.4-0.7-3.4-2.4c0-6.8-4.5-11-8.8-15.3
		c-1.2-1.2-2.5-2.1-3.8-3.2c-0.8-0.7-1.5-1.4-2.2-2.1c-1.5-1.9-1.3-4,0.4-5.7c0.5-0.5,1-0.9,1.5-1.2c1.8-1,2.8-2.4,3.2-4.5
		c0.2-1.2,0.1-1.8-0.9-2.5c-12.3-8.6-25.8-12.4-40.8-10.7c-4.3,0.5-8.6,1-12.8,2c-5.9,1.5-11.4,3.8-15.5,8.5
		c-1.5,1.7-3.4,2.4-5.7,2.3c-6-0.3-10.6,2.6-14.7,6.5c-0.7,0.7-1.4,1.5-2.2,2.1c-1.2,1-2.7,0.4-2.5-1c0.5-3.9-0.3-8,2.1-11.5
		c0.8-1.2,1-2.6,1.1-3.9c0.4-2.8,0.9-5.5,2.3-7.9c1-1.6,2.2-2.9,4-3.6c3.5-1.4,6.1,0.4,6.1,4.2c0,0.7-0.4,1.4,0.1,2.1
		c0.6,0.2,0.9-0.3,1-0.7c1.4-3,3.7-5.3,6.3-7.2c1.5-1,2-2.2,2-3.9c0-8,3.3-14.5,9.5-19.4c3.6-2.9,7.8-5,12.3-6
		c3.8-0.9,7.8-1.5,11.7-2.2c2.5-0.5,5-0.2,7.4,0c1.9,0.1,3.3,1.2,3.9,3c0.6,1.7,0,3.3-1.2,4.5c-1.5,1.5-3.3,2.7-5.1,3.8
		c-1,0.7-2.3,1.2-3,2.4c0.4,0.2,0.7,0.4,1.1,0.5c4.2,1.1,7.9,3,11.2,5.8c0.8,0.7,1.3,0.8,2.3,0c7.1-6,15.2-7.5,23.8-4.6
		c10.6,3.6,18.6,10.4,23,20.9c2.4,5.6,4.4,11.3,5.4,17.4c0.4,2.3,0.4,4.6,0.3,6.9c-0.1,1.6,0.1,3.1,0.9,4.5c1.1,2.1,1.6,4.3,1.8,6.6
		C649.5,164.7,647.1,166.7,643.9,166.3z"/>
	<path class="st3" d="M353.7,325.7c1.6-1.6,3.3-3.2,5.1-4.7c2.7-2.3,4-5.2,4.1-8.7c0.1-2.7-0.1-5.2-2.9-6.5
		c-0.3-0.2-0.6-0.4-0.8-0.7c-0.9-1-1.9-1.2-3.2-0.7c-4.7,1.7-9.1,4-13.1,7.1c-1.5,1.1-2.7,2.5-3.7,4.1c-5,8.1-7.8,16.9-8,26.4
		c-0.1,4,0.2,7.6,3.3,10.7c2,2,1.2,4.9-1.3,6.2c-1.1,0.6-2.2,0.8-3.4,1.1c-2.6,0.5-2.7,0.5-3.1,3c-1,7.1,0.8,13.7,4.3,19.9
		c0.1,0.2,0.3,0.5,0.8,0.3c0.9-0.7,1.8-1.6,2.8-2.4c3.4-2.5,7.1-4.3,10.8-6.2c1.2-0.6,2.1-1.3,2.5-2.7c0.6-2.2,1.8-4,3.4-5.6
		c2.5-2.6,3.6-5.7,3.2-9.3c-0.3-3.6,0-7.2,0.7-10.7c0.1-0.7,0.5-1.4-0.1-2.2c-1,0.5-1.6,1.5-2.3,2.3c-1.2,1.1-2.4,1.7-4,1.1
		s-2.3-1.8-2.5-3.4c-0.1-0.7-0.1-1.5,0-2.2C346.9,335.5,349.2,330.1,353.7,325.7z"/>
	<path class="st3" d="M686.5,289.5c-1.8-3.9-3.7-7.9-7.4-10.5c-6.7-4.8-8.8-11.1-6.9-18.9c0.1-0.4,0.2-0.7,0.2-1.1
		c0.1-0.9,0.4-1.8-0.1-2.8c-1.9,1.5-3.3,3.1-4.4,5c-2.5,4.2-5.7,7.7-10.1,10c-1.2,0.6-2.1,1.5-2.9,2.5c-1.9,2.1-3.9,3.9-6.7,4.6
		c-0.9,0.3-1.4,0.6-1.2,1.7c0.6,5,1.7,9.8,5.1,13.8c2,2.4,3.8,5,5.6,7.6c1.1,1.5,1.9,3.2,1.3,5.1c-0.3,0.9,0.2,1.3,0.9,1.7
		c2.1,0.9,4.1,2.1,5.9,3.6c0.5,0.4,1.1,0.6,1.8,0.5c4.2-1.1,8,0.2,11.7,1.9c1.7,0.8,1.7,0.8,2.6-0.9c1.1-2.4,1.9-5,2.4-7.6
		c0.8-4.5,1.3-9.1,2.4-13.6C686.9,291,686.9,290.2,686.5,289.5z"/>
	<path class="st3" d="M690.4,394.7c-1,1.4-2,2.7-0.1,4.2c0.7,0.5,0.6,1.5,0.8,2.3c0.3,0.9,0.2,2,1.5,2.9c1.3-6,5.8-9.6,9.6-13.6
		c4.2-4.4,7.8-9.1,10.9-14.2c1.6-2.6,2.8-5.4,3.2-8.5c0.5-3.2,1-6.4,1.3-9.6c0.7-5.5,3.1-10,7.6-13.3c0.9-0.7,1.7-1.4,2.2-2.4
		c1.2-2.8,2.5-5.5,3.8-8.3c1.4-3.1,1.8-6.3,1.7-9.7c-0.3-6.9-2.6-13.2-5.3-19.4c-0.8-1.9-1.8-3.6-2.6-5.5c-0.7-1.6-0.4-2.9,0.7-3.8
		c1-0.9,2.4-1,3.9-0.1s2.9,2,4,3.4c6.5,7.7,11.6,16.2,13.6,26.2c0.4,2,0.9,2.5,2.9,2.6c0.9,0.1,1.6-0.2,2.4-0.5
		c1.9-0.9,3.8-1.8,5.8-2.6c7.6-3.1,11.3-9.1,12.7-16.9c0.5-2.6,0.4-5.4,0.7-8c0.8-5.7-1.6-10-5.4-13.8c-0.1-0.1-0.3-0.3-0.4-0.4
		c-1-1.2-2.2-1.8-3.8-1.8c-1.5,0-2.9-0.3-4.4-0.7c-1.3-0.3-2.7-1.4-3.9-1.1c-1.4,0.3-1.5,2.3-2.4,3.5c-2.3,3.2-5.3,4.9-9.3,4.1
		s-6-3.6-7-7.4c-0.2-0.6-0.2-1.3-0.3-1.9c-0.2-2.9-0.3-5.7-0.6-8.6c-0.3-3.8-0.7-7.6-2.8-10.9c-1.7-2.7-3.5-5.4-5.8-7.8
		c-2.6-2.8-5.6-4.8-9.2-5.8c-3.6-1-7.1-1.9-10.8-2.3c-0.8-0.1-1.8,0-2.4-0.4c-2.6-1.7-5.6-0.4-8.3-2c0.1,1.5,1,1.8,1.6,2.3
		c4.7,4,7.9,9,9.4,15c1,4,2.6,7.7,4.5,11.3c0.4,0.7,0.7,1.5,1,2.3c0.2,0.5,0.1,1.1-0.4,1.5c-0.5,0.5-1.1,0.5-1.8,0.2
		c-0.8-0.3-1.4-0.9-2-1.5c-4.6-4.8-9.9-8.9-13-15c-0.8-1.6-2.1-2.9-4-4.2c0.2,3.1,0.4,5.7,0,8.2c-0.5,3.1,0.1,6,0.9,9
		c1.4,5.1,3.4,9.7,6.7,13.8c2.2,2.7,3.7,5.8,4.2,9.2c1.1,7.5,1.5,14.9-2.5,21.8c-0.8,1.5-1,3,0,4.7c3.9,7.1,4.1,14.5,1.2,21.9
		c-1.5,3.8-2.9,7.5-4.8,11.2c-1.3,2.5-1.6,5.1-0.2,8.1c3.9,8.5,3.3,17.1-1.2,25.3C693.6,390.1,692,392.4,690.4,394.7z"/>
	<path class="st3" d="M591,466.1c-0.2-0.2-0.7-0.2-1.1-0.2c-2.3,0.1-4.6,0.1-6.9-0.2c-0.8-0.1-1.1,0.2-1.4,1
		c-2.6,6.2-2.9,12.2,1.8,17.6c1.3,1.5,2.5,3,3.6,4.6c1.8,2.4,2.2,5,1,7.8c-0.9,2.1-1.7,4.3-2.7,6.4c-0.5,1.1-1.1,2.1-1.7,3.1
		c-0.5,0.8-1.2,1.2-2.1,0.9c-0.8-0.3-0.9-1.1-0.8-1.9c0-0.3,0.1-0.5,0.1-0.8c0.2-2.3-0.9-3.9-3-4.6c-0.8-0.3-1.6-0.6-2.3-0.8
		c-2-0.7-2-0.7-2.4,1.4c-0.3,1.7-0.5,3.5-0.8,5.2c-0.1,0.5,0,1.3-0.7,1.3c-1.6-0.1-1.3,0.9-1.3,1.8c0.1,1.8,0.1,3.5,0.3,5.2
		c0.8,7.3,2,14.5,1.7,21.8c0.7-0.2,1.4-0.5,2.1-0.9c0.3-0.2,0.5-0.4,0.7-0.6c0.3-0.3,0.7-0.7,0.9-1c0.3-0.4,0.5-0.7,0.8-1.1
		c0.5-0.8,0.8-1.6,1.2-2.5c1.3-3.1,2.6-6.3,4-9.4c0.3-0.7,0.6-1.4,0.9-2.2c0.6-1.5,1.1-2.9,1.6-4.4s0.9-3,1.3-4.5
		c0.6-2.3,1.1-4.6,1.5-6.9c0.2-1.1,0.4-2.2,0.5-3.3c0.2-1.1,0.4-2.2,0.6-3.2c0.2-1.1,0.5-2.1,0.8-3.2s0.6-2.1,1.1-3.2
		c0.7-1.7,1.1-3.6,1.3-5.4c0.1-0.6,0.1-1.2,0.1-1.9c0-0.3,0-0.5,0.1-0.8c0.1-0.5,0.2-0.9,0.5-1.4c0.1-0.2,0.3-0.4,0.5-0.6
		c0.5-0.5,0.9-1,1.4-1.5c0.4-0.5,0.9-1.1,1.3-1.6l0,0c0-0.2,0.1-0.4,0.2-0.5c0.2-0.5,0.6-0.9,1-1.3c0-0.3,0-0.7,0-1
		c0.1-1.3,0.5-2.4,1.1-3.4c0.1-0.1,0.2-0.2,0.2-0.3c-0.3-0.2-0.5-0.3-0.8-0.5C595.2,468.1,592.8,467.7,591,466.1z"/>
	<path class="st3" d="M441.7,513.4c0-0.6,0.2-1.3-0.3-1.9c-1-1.3-1.3-2.8-1.4-4.4c0-1-0.4-1.8-0.9-2.5c-3.4-4.9-8.7-5.4-12.9-1.2
		c-1.2,1.2-2.4,2.4-3.6,3.7c-0.5-1-0.3-1.7-0.2-2.4c0.5-6.8,2-13.3,4.4-19.6c0.4-0.9,1.1-1.9,0.6-2.9c-1.2-2.2-2.1-4.4-2.7-7
		c-0.9,0.5-1.5,0.8-2,1.2c-1.8,1.3-3.4,2.8-4.9,4.5c-1.2,1.3-2.4,2.1-3.6,2.6c-1.4,5.7-0.2,11.4,3.3,16.8c1.4,2.2,2.5,4.5,3.3,7
		c1.1,3.4,2.3,6.8,4.1,9.9c1.2,2.1,1.8,4.4,1.9,6.8c0.3,9.6,4.6,17.8,9.4,25.7c0.3-4.5,0.9-8.9,1.5-13.4c0.3-2.4,1-4.6,2.3-6.7
		c1.8-2.8,2.4-6,2-9.3C441.8,518,441.7,515.7,441.7,513.4z"/>
	<path class="st3" d="M547.4,373.8c-0.9-0.3-1.8-0.7-2.7-0.6c-4.6,0.6-8.8-2-13.4-1.6c-0.8,0.1-1.5-0.3-1.7-1.2
		c-0.2-0.9,0.3-1.4,1-1.8c1.4-0.8,2.9-1.7,4.3-2.6c1.8-1.2,3.2-2.7,3.9-4.8c0.3-1,0.7-1.9,1.2-2.8c0.5-0.8,0.3-1.3-0.4-1.9
		c-1.7-1.3-3.5-2.4-5.4-3.4c-8.4-4.3-17.5-6.1-26.7-7.8c-1.9-0.3-3.8-0.6-5.8-0.4c-7.2,1-14.3,2.9-21.3,4.9c-3.5,1.1-6.9,2.7-10,4.6
		c-3,1.8-3.2,2.7-1.4,5.7c0.3,0.6,0.7,1.1,1.2,1.5c2.3,2.2,5,3.7,7.7,5.4c0.6,0.4,1.2,0.3,1.9,0.3c4.2-0.3,8.2,1.2,12.3,1.7
		c1.1,0.1,2.2,0.8,3.3,1.3c0.3,0.2,0.5,0.5,0.5,0.9s-0.3,0.7-0.7,0.8c-1.2,0.4-2.4,0.4-3.6,0.3c-4.5-0.4-8.8,0.6-13,2.2
		c-1.9,0.7-3.9,1.2-5.9,1.6c-4.4,1-7.8-0.3-10.2-4.2c-1.4-2.2-2.4-2.3-4.7-0.8c-0.8,0.6-1.7,1.2-2.7,1.2c-1.1,0-1.4,0.6-1.4,1.6
		c0,5.7,0.5,11.4,0.9,17.1c0,0.6,0.1,1.4,0.9,1.6c1.5,0.4,2.4,1.7,3.5,2.6c1.3,1.1,2.9,1.8,4.6,1.6c3.1-0.4,6.2-0.8,9.1-2.1
		c2.8-1.2,2.9-1.3,2.6-4c-0.4-3.9,1.5-6.7,4.9-8.6c5.1-2.8,12.4,2,12.5,8.3c0.1,3.8-0.9,7.3-3.4,10.3c-5.8,6.8-13.4,8.5-21.3,4.5
		c-3.1-1.5-6.5-1.7-9.7-3.3c0.2,1.9,2,2.4,2.4,3.5c0.9,2.5,2.9,3.7,4.8,5.2c4.4,3.5,8.4,7.4,13.2,10.5c0.8,0.6,1.5,1.4,2.3,2
		c2.7,2.4,5.4,4.8,8.1,7.2c2.3,2,4.9,3.2,8,3.6c0.3-1.2,0.6-2.3,1-3.4c2.4-7.2,3.3-14.6,2.4-22.1c-0.3-2.7-0.1-5.3,0.5-8
		c0.2-1.1,0.5-2.2,1.2-3c0.4-0.5,1-0.9,1.7-0.6c0.6,0.2,0.7,0.8,0.7,1.4c0,4.8,1.2,9.5,1.3,14.3c0,3.1,0.6,6.3,1.7,9.2
		c1.4,3.9,2,7.8,1,11.9c-0.1,0.2,0.1,0.5,0.2,0.7c4.1-0.9,7.7-2.5,10.9-5.2c3.6-3.1,7-6.4,10.2-9.8c0.2-0.2,0.4-0.4,0.5-0.6
		c0.2-0.7,0.5-1.3,0.9-1.7c0.4-0.4,0.7-0.5,1.1-0.4c3-3,6.2-5.9,9.6-8.4c1.3-1,2.2-2.2,2.8-4.2c-6.1,1.1-11.6,0.5-17.1-1.1
		c-4.5-1.3-7.9-3.9-10.6-7.6c-1.7-2.4-2-5.1-1-7.9c1.1-2.8,3.1-4.7,5.9-5.8c3.7-1.4,7.2-0.5,9.5,2.7c1,1.4,1.6,2.9,2.1,4.5
		c0.5,1.7,1.6,3,3.2,3.7c4.1,1.9,8.3,2.9,12.8,1.3c1.7-0.6,2.5-1.4,2.6-3.4c0.1-4.7,0.5-9.4,0.8-14.1c0.1-1.1,0.3-2.3-0.4-3.7
		C551.2,374.8,549.3,374.4,547.4,373.8z"/>
	<path class="st3" d="M708.6,615c-0.9,2.9-0.7,5.6,1.1,8.1c0.3,0.4,0.5,0.8,0.8,1.2l0.7-0.6l0.5-0.4l0.5-0.3l1-0.7l1.9-1.4l2-1.3
		c5.3-3.4,10.9-6.3,16.7-8.6c0.4-0.1,0.7-0.3,1.1-0.4l1.1-0.4l2.2-0.8c0.4-0.1,0.7-0.3,1.1-0.4l1.1-0.4l2.2-0.7l0.5-0.2
		c-0.1-0.4-0.2-0.7-0.4-1.1c-4.4-8.3-5.5-17.3-4.8-26.6c0.4-4.9,0.8-9.7,0.9-14.6c0-4-1.2-7.6-3.4-10.9c-1-1.5-2.1-2.8-3.1-4.2
		c-1.6-2.3-3.4-4.1-6.4-4.3c-0.3,0-0.5-0.1-0.8-0.2c-2.9-1.2-3.5-4.3-1.2-6.5c1-1,2.3-1.6,3.7-1.7c3.4-0.4,6.8-0.6,10.2,0.4
		c1,0.3,2,0.5,3,0.6c0.8,0.1,1.3-0.2,1.3-1.1c0.1-4,0.6-8.2-0.5-12.1c-3-10.5-7.9-20.1-16.4-27.3c-2-1.7-3.8-3.8-5.9-5.4
		c-5.4-4.2-8.2-9.7-9.1-16.4l-0.1,0.1c-0.1,0.2-0.3,0.3-0.5,0.4s-0.3,0.2-0.5,0.2c-0.3,0-0.6,0-0.9-0.2c-0.2-0.1-0.4-0.1-0.6-0.2
		c-0.2,0-0.4,0-0.6,0c-0.3,0-0.8,0.2-1,0.5c0,0,0,0-0.1,0.1c0,0.1-0.1,0.1-0.1,0.2c-0.1,0.1-0.1,0.2-0.1,0.4c0,0.1,0,0.1,0,0.2
		c-0.1,0.3-0.1,0.7-0.1,1c0,0.4,0,0.7,0,1.1c0,0.3,0,0.6,0,1c0,1,0,2.1,0,3.1l0,0c0,0.7-0.1,1.3,0,2c0,0.1,0,0.1,0,0.2
		c0,0.2,0,0.4,0.1,0.6c0.1,0.3,0.1,0.6,0.1,0.9c0.1,0.8,0.2,1.5,0.3,2.3c0,0.4,0.1,0.8,0.1,1.2c0,0.3,0.1,0.5,0.1,0.8
		c0.2,1,0.4,2,0.6,3.1c0.1,0.6,0.2,1.3,0.2,1.9c0,0.3,0,0.5,0.1,0.8c0.1,1,0.5,2,0.6,3.1c0.1,1-0.1,2.1,0.1,3.1
		c0,0.1,0.1,0.3,0.1,0.4c0.1,0.7,0.2,1.3,0.3,2c0,0.2,0.1,0.3,0.1,0.5c0,0.5,0,1,0,1.5c0.1,0.1,0.2,0.3,0.3,0.4
		c4.2,6.1,7.1,12.7,6.9,20.5c-0.1,5.1-0.8,10.3-3.6,15c-0.5,0.9-0.7,1.9-0.8,2.9c-0.1,2.4-0.6,4.8-1.6,7c-0.4,1-0.4,1.9-0.2,2.9
		c0.7,4.8,2.8,9.4,3,14.3c0,0.9,0.4,1.8,0.7,2.7c3.3,9.3,3.4,18.6,0.1,27.9C711.3,606.4,709.9,610.7,708.6,615z"/>
	<path class="st3" d="M859,652.7c-1.8-3.5-4-6.9-6.5-10s-5.3-5.9-8.4-8.4c-3.1-2.5-6.5-4.6-10-6.3l0,0l-5.3-2.3
		c-0.6-0.5-1.1-1-1.7-1.5c-1.3-1.1-2.7-2.2-4.2-3c-6.2-3.5-13.2-5.4-20.1-6.6c-3.5-0.6-7-1-10.6-1.2c-2.3-0.1-4.7,0-7-0.4
		c-2.5-0.4-4.9-1.5-7.5-1.7c-1-0.1-2,0-3,0.1c-8.1,0.8-16.2,2-24,4.4c-3.9,1.2-7.8,2.7-11.4,4.5c-3.5,1.8-6.6,4.3-10.3,5.8
		c-0.9,0.3-1.8,0.7-2.6,1.1c-18.7,8-35.4,23.8-42,43.4l0,0c1.7-0.4,3.7,0.3,5.1-0.8c0.5-0.4,0.9-1.1,1.1-1.7c3-6.5,6-13.2,11-18.3
		c6.2-6.2,16.1-8.7,23.5-3c0,0,0,0,0-0.1l0.1,0.1c0.4,0.3,0.9,0.7,1.2,1.1c0,0,0,0,0,0.1c0.1,0.1,0.3,0.2,0.4,0.4
		c0.5,0.4,0.9,0.9,1.3,1.5c0.1,0.1,0.1,0.2,0.2,0.3c-0.6,0-1.3,0-1.9,0.1c-1.3,0.1-2.7,0.5-3.9,0.9c-2.5,0.9-4.9,2.3-7.1,3.8
		c-0.6,0.4-1.1,0.8-1.6,1.2l-0.8,0.6l-1.5,1.1l-0.8,0.6c0,0,0.8-0.2,0.9-0.2c3.9-1,7.8-1.1,11.4,0.7c0.3,0.2,0.6,0.3,0.9,0.5
		c0.3,0.2,0.6,0.3,0.8,0.5c0.6,0.4,1.1,0.8,1.6,1.2c1,0.9,1.9,1.9,2.7,2.9c0.9,1.2,1.6,2.5,2.2,3.8l0,0c-0.1,0.4-0.2,0.7-0.3,1.1
		c-0.1,0.2-0.1,0.5-0.2,0.7v0.1c-0.1,0.4-0.1,0.9-0.2,1.3c0,0.1,0,0.2,0,0.3s0,0.2,0.1,0.3c0,0.2,0.1,0.4,0.1,0.6v-0.1v0.1
		c0,0,0,0,0,0.1c0,0,0,0,0-0.1c0.1,0.7,0.3,1.4,0.4,2.1c0.2,0.8,0.4,1.7,0.6,2.5c1,1.7,2.1,3.5,2.8,5.4c0.1,0.2,0.1,0.4,0.2,0.6
		c0,0.1,0,0.1,0,0.2c0.1,0.2,0.1,0.4,0.1,0.5l0,0c0,0.2,0.1,0.4,0.1,0.6c0,0.1,0,0.1,0,0.2c0,0.2,0.1,0.3,0.1,0.5v0.1
		c0,0.2,0.1,0.4,0.1,0.5s0,0.1,0,0.2c0,0.1,0,0.3,0,0.4c0,0.1,0,0.2,0,0.3s0,0.3,0,0.4c0,0.1,0,0.2,0,0.3s0,0.2,0,0.3
		c0,0.2,0,0.4,0,0.6v0.1c0,0.1,0,0.3,0,0.4l0,0c0,0.3,0,0.6,0,0.9c0.1,0.1,0.2,0.3,0.3,0.4c0.5,0.7,1.1,1.4,1.7,2.1
		c0.3,0.3,0.6,0.6,0.9,0.9c2.4,2.1,4.9,4,8,4.7c4.9,1.1,10.1-0.5,15.1-0.1c1,0.1,2,0.2,2.9-0.1c1.8-0.7,2.8-3.5,3.7-5
		c1.4-2.4,2.5-4.9,3.5-7.4c1.8-4.9,2.9-10,3.3-15.3c0.6-8.2-0.9-16.5-4.1-24.1c-1.6-3.8-3.7-7.4-6.1-10.7c-2.4-3.3-5.2-6.4-8.2-9.2
		c-0.4-0.4-0.8-0.7-1.2-1l-2-1.7l0,0l0,0h0.1h0.2l0.4,0.1l0.7,0.2l1.1,0.3l0.4,0.1l0.4,0.1l0.7,0.2c2,0.6,3.9,1.4,5.8,2.4
		c17.1,8.9,24.5,26.9,25.6,45.2c0,0.1,0,0.2,0,0.4c0,0.5,0,1.1,0,1.6s0,1-0.1,1.5c0,0.5-0.1,1-0.1,1.4c0,0.1,0,0.1,0,0.2
		c0,0.3-0.1,0.7-0.2,1c0,0.3-0.1,0.7-0.2,0.9c0,0.2-0.1,0.4-0.1,0.7c-0.5,3-1.5,6-2.5,8.9c-1,3.1-2.8,6.1-1.5,9.4
		c2.7,6.9,8.8,9.1,15.5,10.1c0.9,0.1,1.8,0.2,2.7,0.4c1.1,0.1,2.2,0.3,3.3,0.4c1.3,0.1,2.6,0.3,3.9,0.4c0.2,0,0.5,0,0.7,0.1
		c0.2,0,0.5,0,0.7,0c0.5,0,0.9,0,1.4,0v-0.1c0.6-2.6,2-4.9,3.1-7.2c5.6-10.9,7.8-24.1,6.1-36.5c-1.6-11.6-8.2-22.3-16.3-30.5
		c-0.8-0.8-1.7-1.8-1.5-3c2.8,0.7,5.9,3.2,8.4,4.7c3.1,1.9,6.1,4,8.9,6.3c5.1,4.2,9.8,9.7,10.9,16.4c2,12.9,5.6,13.7,3.8,26.6
		c-0.5,3.4-2.5,6.6-3.2,10c-1,4.8-1.3,9.3-3.1,13.9c-0.1,0.3-0.3,0.6-0.3,0.9c-0.1,0.3-0.3,2.7-0.9,2.5c2.3,0.8,13.5,3,14.1-1.1
		l0.3-2.2l2.8-15.5c2.7-15.3,3.1-30.5-3.8-44.8c-1.5-3-4.1-8.9-6-10.6c0.2,0.2,0.5,0.4,0.7,0.6c3.8,3.6,7.3,7,10.2,11.5
		c3.3,5.2,6.1,11.1,8.3,16.8c0.2,0.5,0.3,0.9,0.5,1.4c0.6,1.9,1.1,3.8,1.5,5.7c0.8,3.8,1.2,7.7,1.2,11.5c-0.1,3.9-0.5,7.7-1.3,11.4
		c-0.3,1.1-0.6,2.3-0.9,3.4c0.3-0.1,0.7-0.2,1-0.3c1-0.4,1.8-1.1,2.5-1.8c0.7-0.8,1.2-1.6,1.7-2.5s0.9-1.8,1.2-2.8
		c0.2-0.5,0.3-1,0.4-1.4C866.3,678.9,865.1,664.7,859,652.7z M733.8,623.7L733.8,623.7C733.9,623.7,733.9,623.6,733.8,623.7
		C733.9,623.6,733.9,623.7,733.8,623.7z"/>
	<path class="st3" d="M260.3,627.2c-0.9-0.4-1.7-0.8-2.6-1.1c-3.7-1.4-6.8-4-10.3-5.8c-3.7-1.8-7.5-3.3-11.4-4.5
		c-7.8-2.4-15.9-3.6-24-4.4c-1-0.1-2-0.2-3-0.1c-2.6,0.2-4.9,1.3-7.5,1.7c-2.3,0.4-4.7,0.3-7,0.4c-3.5,0.2-7.1,0.6-10.6,1.2
		c-7,1.2-13.9,3.1-20.1,6.6c-1.5,0.8-2.9,1.9-4.2,3c-0.6,0.5-1.1,1-1.7,1.5l-5.3,2.3l0,0c-3.5,1.7-6.9,3.9-10,6.3
		c-3.1,2.5-5.9,5.3-8.4,8.4c-2.5,3.1-4.7,6.4-6.5,10c-6.1,12-7.3,26.2-3.8,39.2c0.1,0.5,0.3,1,0.4,1.4c0.3,1,0.7,1.9,1.2,2.8
		c0.5,0.9,1,1.7,1.7,2.5s1.5,1.4,2.5,1.8c0.3,0.1,0.7,0.2,1,0.3c-0.4-1.1-0.7-2.2-0.9-3.4c-0.9-3.7-1.3-7.6-1.3-11.4
		c0-3.8,0.4-7.7,1.2-11.5c0.4-1.9,0.9-3.8,1.5-5.7c0.2-0.5,0.3-0.9,0.5-1.4c2.2-5.7,5-11.6,8.3-16.8c2.8-4.5,6.4-7.9,10.2-11.5
		c0.2-0.2,0.5-0.4,0.7-0.6c-1.9,1.8-4.5,7.6-6,10.6c-6.9,14.3-6.5,29.5-3.8,44.8l2.8,15.5l0.3,2.2c0.6,4,11.8,1.8,14.1,1.1
		c-0.6,0.2-0.8-2.2-0.9-2.5c-0.1-0.3-0.2-0.6-0.3-0.9c-1.8-4.6-2.1-9.1-3.1-13.9c-0.7-3.4-2.8-6.6-3.2-10
		c-1.7-12.9,1.9-13.7,3.8-26.6c1-6.7,5.8-12.2,10.9-16.4c2.8-2.3,5.8-4.4,8.9-6.3c2.5-1.6,5.6-4,8.4-4.7c0.2,1.1-0.7,2.2-1.5,3
		c-8.1,8.2-14.6,19-16.3,30.5c-1.8,12.5,0.4,25.6,6.1,36.5c1.2,2.3,2.6,4.6,3.1,7.2v0.1c0.5,0,0.9,0,1.4,0c0.2,0,0.4,0,0.7,0
		c0.2,0,0.5,0,0.7-0.1c1.3-0.1,2.6-0.3,3.9-0.4c1.1-0.1,2.2-0.2,3.3-0.4c0.9-0.1,1.8-0.2,2.7-0.4c6.7-1.1,12.8-3.2,15.5-10.1
		c1.3-3.3-0.5-6.2-1.5-9.4c-1-2.9-2-5.9-2.5-8.9c0-0.2-0.1-0.4-0.1-0.7c-0.1-0.3-0.1-0.7-0.2-0.9c-0.1-0.3-0.1-0.7-0.2-1
		c0-0.1,0-0.1,0-0.2c0-0.5-0.1-1-0.1-1.4c0-0.5,0-1-0.1-1.5c0-0.5,0-1.1,0-1.6c0-0.1,0-0.2,0-0.4c1.1-18.3,8.5-36.3,25.6-45.2
		c1.8-1,3.8-1.7,5.8-2.4l0.7-0.2l0.4-0.1l0.4-0.1l1.1-0.3l0.7-0.2l0.4-0.1h0.2h0.1l0,0l0,0l-2,1.7c-0.4,0.3-0.8,0.7-1.2,1
		c-3,2.8-5.8,5.9-8.2,9.2s-4.5,6.9-6.1,10.7c-3.3,7.5-4.8,15.9-4.1,24.1c0.4,5.2,1.5,10.4,3.3,15.3c1,2.6,2.1,5.1,3.5,7.4
		c0.9,1.6,2,4.3,3.7,5c0.9,0.4,1.9,0.2,2.9,0.1c5-0.4,10.2,1.2,15.1,0.1c3.2-0.7,5.6-2.6,8-4.7c0.3-0.3,0.6-0.6,0.9-0.9
		c0.6-0.7,1.1-1.4,1.7-2.1c0.1-0.1,0.2-0.3,0.3-0.4c0-0.3,0-0.6,0-0.9l0,0c0-0.1,0-0.3,0-0.4v-0.1c0-0.2,0-0.4,0-0.6
		c0-0.1,0-0.2,0-0.3s0-0.2,0-0.3s0-0.3,0-0.4c0-0.1,0-0.2,0-0.3s0-0.3,0-0.4c0-0.1,0-0.1,0-0.2c0-0.2,0-0.4,0.1-0.5v-0.1
		c0-0.2,0.1-0.3,0.1-0.5c0-0.1,0-0.1,0-0.2c0-0.2,0.1-0.4,0.1-0.6l0,0c0-0.2,0.1-0.4,0.1-0.5s0-0.1,0-0.2c0.1-0.2,0.1-0.4,0.2-0.6
		c0.7-1.9,1.8-3.7,2.8-5.4c0.2-0.8,0.4-1.7,0.6-2.5c0.1-0.7,0.3-1.4,0.4-2.1c0,0,0,0,0,0.1c0,0,0,0,0-0.1v-0.1v0.1
		c0-0.2,0.1-0.4,0.1-0.6c0-0.1,0-0.2,0.1-0.3c0-0.1,0-0.2,0-0.3c0-0.4-0.1-0.9-0.2-1.3v-0.1c0-0.2-0.1-0.5-0.2-0.7
		c-0.1-0.4-0.2-0.7-0.3-1.1l0,0c0.6-1.3,1.4-2.6,2.2-3.8c0.8-1.1,1.7-2,2.7-2.9c0.5-0.4,1-0.8,1.6-1.2c0.3-0.2,0.6-0.3,0.8-0.5
		c0.3-0.2,0.6-0.3,0.9-0.5c3.7-1.7,7.6-1.7,11.4-0.7c0.1,0,0.9,0.2,0.9,0.2l-0.8-0.6l-1.5-1.1l-0.8-0.6c-0.5-0.4-1.1-0.8-1.6-1.2
		c-2.2-1.5-4.5-2.9-7.1-3.8c-1.3-0.5-2.6-0.8-3.9-0.9c-0.6-0.1-1.3-0.1-1.9-0.1c0.1-0.1,0.1-0.2,0.2-0.3c0.4-0.5,0.9-1,1.3-1.5
		c0.1-0.1,0.3-0.2,0.4-0.4c0,0,0,0,0-0.1c0.4-0.4,0.8-0.8,1.2-1.1l0.1-0.1v0.1c7.4-5.7,17.2-3.2,23.5,3c5.1,5,8,11.8,11,18.3
		c0.3,0.6,0.6,1.3,1.1,1.7c1.3,1.1,3.4,0.5,5.1,0.8l0,0C295.8,651.1,279,635.3,260.3,627.2z M252.8,623.6l0.1,0.1l0,0
		C252.9,623.7,252.8,623.6,252.8,623.6z"/>
</g>
</svg>
