<?xml version="1.0" encoding="utf-8"?>
<!-- Generator: Adobe Illustrator 24.0.1, SVG Export Plug-In . SVG Version: 6.00 Build 0)  -->
<svg version="1.1" id="Layer_1" xmlns="http://www.w3.org/2000/svg" xmlns:xlink="http://www.w3.org/1999/xlink" x="0px" y="0px"
	 viewBox="0 0 990 781.2" style="enable-background:new 0 0 990 781.2;" xml:space="preserve">
<style type="text/css">
	.st0{fill:#FFFFFF;}
	.st1{fill:#FF6957;}
	.st2{fill:#C4984B;}
	.st3{fill:#6B6B6B;}
</style>
<g>
	<path d="M757.2,230.7c-0.4,0.4-0.3,0.8-0.2,1.1c1.3,4.4,2.7,8.7,4.5,12.9c2.7,6.1,5.4,12.1,8.2,18.1c2.3,5.1,3.7,10.4,4.1,16
		c0.3,4.8,0.5,9.7,0.9,14.5c0.5,7.3,2.3,14.4,4.9,21.3c2.2,6,4.8,12.1,8.1,17.7c6.1,10.4,9.9,21.5,11.4,33.5
		c0.9,7.4,1.5,14.8,0.7,22.3c-0.8,7.2-1.7,14.2-3.5,21.2c-0.8,3.1-1.9,6-3.5,8.8c-2.3,4.2-4.8,8.4-7.2,12.6c-0.3,0.6-0.7,1.2-1,1.8
		c-0.8,1.2-0.5,2.3,0.3,3.4c4.4,5.2,7.9,11,11.6,16.7c4.1,6.3,6.8,13.2,8.5,20.6c2.2,10.3,4.1,20.6,3.5,31.2
		c-0.3,5.1-0.5,10.2-1.2,15.3c-0.8,6.1,0.2,11.8,3.2,17.2c3.4,6,6.7,12.1,10.1,18c4.2,7.3,7.6,15,10.9,22.8
		c1.6,3.8,3.3,7.6,4.8,11.5c1,2.7,2.7,4.3,5.4,5.3c4.9,1.7,9.8,3.6,14.4,6.2c7.4,4.2,14.6,8.9,21.8,13.7c5.8,3.8,10.4,8.5,14.3,14.2
		c5.1,7.3,10.2,14.4,14.2,22.4c5.8,11.5,6,15.4,3.9,27.6c-1.5,8.3-4.1,16.3-7.1,24.2c-1.3,3.4-3.2,6.5-5.4,9.3
		c-4.2,5.7-8.6,11.1-14.9,14.7c-2.9,1.6-5.2,4-7,6.9c-3.6,6-8.4,11-13.1,16c-4.2,4.3-9.3,6.7-15,8.4c-3.1,0.9-5.6,0.2-7.6-2.6
		c-2.6-3.5-4.8-7.1-5.4-11.5c-0.1-0.4-0.2-0.8-0.4-1.1c-0.3-0.6-0.9-0.8-1.4-0.4c-1.3,1-2.5,2.2-3.6,3.4c-2,2-4,3.8-6.3,5.3
		c-5.3,3.3-9.8,2.1-12.7-3.5c-2.2-4.4-3.4-9.2-3.3-14c0.1-4.2-1.7-6.5-5.2-8c-1.3-0.6-2.5-1.2-3.7-1.9c-3.5-1.8-5.9-4.5-7.3-8.1
		c-0.3-0.8-0.6-1.5-1-2.2c-0.3-0.6-1.3-0.7-1.8-0.3c-1.6,1.1-2.6,2.8-3.5,4.6c-0.6,1.4-1,2.8-1.5,4.2c-2.2,6-5.4,11.1-10.4,15.2
		c-1.5,1.3-3.2,2.7-5.4,2.8c-3.7,0.3-6.8-0.9-9-4c-1.7-2.5-2.9-5.4-3.6-8.3c-0.3-1.5-0.7-2.9-0.9-4.5c-0.2-2-1.2-3.4-2.8-4.3
		c-1.2-0.7-2.4-1.4-3.5-2.2c-5-3.5-9.3-7.8-13.3-12.3c-0.6-0.7-1.1-1.5-1.5-2.4c-0.7-1.2-1.6-1.8-3-1.8c-1.1,0-2.2,0-3.3,0
		c-159.3,0-318.7,0-478,0c-5.9,0-5.1-0.3-7.7,3.9c-0.6,1-1.3,1.8-2.1,2.6c-4.4,4.4-8.6,8.9-14.3,11.8c-2.2,1.1-3.4,2.8-3.6,5.2
		c-0.2,1.1-0.4,2.2-0.5,3.3c-0.5,3.2-1.8,6-3.5,8.8c-3.1,4.8-9.7,5.9-14,2.1c-4.9-4.3-8.7-9.2-10.9-15.4c-0.4-1.3-0.9-2.6-1.4-3.9
		c-0.6-1.5-1.4-3-2.5-4.2c-1.6-1.9-2.6-1.7-3.6,0.4c-0.3,0.5-0.4,1-0.6,1.5c-1.6,3.8-4.3,6.4-7.9,8.1c-1.8,1-3.6,1.9-5.4,2.9
		c-2.1,1.2-3.1,3-2.9,5.5c0.3,4.1-0.4,8-1.6,11.8c-0.6,1.7-1.3,3.4-2.3,4.8c-2.9,4-7,4.8-11.2,2.2c-1.4-0.9-2.7-1.9-4-3
		c-1.4-1.2-2.6-2.4-3.9-3.7c-4.2-4.3-3.9-2.8-4.9,1.5c-0.9,4.1-3.4,7.3-6,10.3c-1.7,2.1-4,2.2-6.5,1.6c-5.4-1.5-10.4-3.7-14.4-7.7
		c-4.9-4.8-9.6-9.9-13.3-15.8c-0.5-0.8-1.1-1.5-1.6-2.4c-1-1.7-2.3-3-4.1-4c-8.6-4.8-14.6-12.1-19.7-20.3c-0.3-0.3-0.4-0.7-0.6-1
		c-3.4-7.6-6.1-15.4-6.6-23.8c-0.4-9.7,0.4-19.3,2.8-28.8c2.7-11.2,8.1-20.9,17-28.2c9-7.3,17.9-14.9,27.6-21.2
		c9.2-6.1,19.1-10.5,29.7-13.5c0.5-0.2,1-0.3,1.6-0.3c1.6-0.3,2.6-1.4,3.3-2.8c4.1-8.7,8.6-17.4,12.4-26.2
		c4.3-9.8,9.7-18.9,15.7-27.7c0.6-1,1.2-1.8,1.9-2.8c1.4-1.9,1.8-3.9,1.2-6.2c-0.5-2.2-0.9-4.3-1.2-6.5c-1.1-8-0.9-16-0.3-24
		c0.7-7.8,1.9-15.4,4.2-22.7c0.8-2.5,1.7-4.9,2.7-7.4c0.7-1.6,1.6-3.3,2.1-4.9c2.9-8.4,8-15.4,12.9-22.6c0.9-1.4,1-2.3,0.4-3.7
		c-1.3-2.4-2.5-4.9-3.7-7.4c-3.2-6.5-5.4-13.3-6.5-20.5c-1.4-8.7-2.4-17.5-1.8-26.4c0.4-5.4,0.9-10.7,1.6-16.1
		c1-8,2.2-15.9,3.9-23.8c1.1-5,2.3-10,4.5-14.6c1.4-2.9,1.6-5.8,1.3-8.9c-0.2-1.9-0.5-3.8-0.9-5.7c-0.3-1.5-1.1-1.9-2.4-1.3
		c-1,0.5-2,1-2.9,1.5c-4.3,2.3-9,3.7-13.8,4.1c-5.5,0.5-10.7-0.9-15.6-3.5c-8.6-4.8-14.6-12.1-18.7-21c-3.7-8.1-5.7-16.7-6.9-25.5
		c-0.5-3.8-0.9-7.7-0.9-11.6c-0.2-8.2,0.8-16.2,2.2-24.3c1.4-8.2,2.8-16.3,3.9-24.5c0.9-6,0.7-11.8,0.4-17.8
		c-0.3-5,0.2-9.9,0.6-14.9c0.3-2.9,0.8-5.8,1.4-8.6c1.3-6.4,4.1-12,8.2-17c4.4-5.4,9.4-10.1,14.7-14.5c5.8-4.9,11.6-9.8,17.2-14.9
		c7.4-6.8,14.7-13.8,21.9-20.8c10.5-10.1,22-18.8,35.3-25.1c3.9-1.8,7.7-3.9,11.6-5.6c7.2-3.3,14.8-5.4,22.5-6.6
		c5.4-0.8,10.6-1.7,16-2.2c5.9-0.5,11.8-1.3,17.8-0.5c3.7,0.5,7.4,0.3,11.1,0.8c4.1,0.6,8.1,1.5,12.2,2.2c6.2,1.3,12.4,2.7,18.7,4.1
		c4.1,0.9,8.2,0.8,12.4,0.1c2.7-0.4,5.4-0.9,8.2-1.3c1.6-0.3,3.3-0.6,4.8-1c11.9-3.4,24-6.5,35.6-11.1c10.5-4.2,21.6-6.9,32.6-9.2
		c6.5-1.4,13-2.4,19.6-3.1c4.8-0.5,9.7-0.9,14.4-1c6.5-0.2,13-0.2,19.4,0.1c5.5,0.2,11,0.8,16.5,1.2c3.7,0.3,7.4,0.7,11.1,1
		c5.8,0.3,11.6,0.6,17.4,1c6,0.4,12.1,1,18.1,1.4c1.1,0.1,2.2,0.2,3.3,0.2c3.6,0.1,7.2,0.3,10.7,0.7c5.4,0.6,10.7,0.7,16-1.1
		c1.5-0.5,3.2-0.9,4.8-1.2c3.5-0.8,6.9-2,10.1-3.6c9.8-5,20.1-8.3,31-10.1c2.3-0.4,4.7-0.8,7-0.9c5.1-0.3,10.2-1,15.3-1.2
		c3.9-0.1,7.7-0.2,11.6,0c5.8,0.4,11.1,1.9,16,5.1c4.4,2.9,8.6,6,12.3,9.8c5,5,10,9.9,15,14.9c4.5,4.5,9.1,8.9,13.8,13.1
		c3.5,3,7.3,5.4,11.2,7.8c6.6,3.8,13.2,7.6,19.7,11.4c6.7,3.9,13.6,7.4,20.4,11.1c6.7,3.5,13.4,6.7,19.8,10.4
		c8.9,5.3,16.7,11.8,23.5,19.5c6.1,6.9,9.7,14.9,10.9,24.2c1.5,11.4,0.3,22.6-2.8,33.6c-4.8,16.5-11.5,32.2-19.9,47.3
		c-1.5,2.8-3.4,5.4-5.4,7.9c-0.4,0.5-1,1-1.4,1.6c-5.7,6-12.7,8.2-20.7,6.7c-7.9-1.4-15-4.5-21.2-9.9c-2-1.7-3.9-3.5-5.9-5.3
		C758.3,231.3,757.9,230.7,757.2,230.7z"/>
</g>
<g>
	<path class="st0" d="M603.5,238.2c-0.3,0-0.7,0.1-1,0.4c-1.4,1-2.2,2.4-3.1,3.8c-5.6,8.4-9.8,17.5-15.5,25.8
		c-0.2,0.3-0.3,0.4-0.4,0.7l0,0c-1,1.9-1.1,3.5-0.5,4.8c0.3,0.7,0.8,1.3,1.5,1.8c0.3,0.2,0.5,0.4,0.8,0.4l0,0
		c0.3,0.2,0.6,0.3,0.9,0.4c0.5,0.2,1,0.4,1.5,0.5c2.1,0.6,4.2,1.3,6.3,1.9c3,0.9,6,1.9,9.4,2.2c-2.6-4.9-4.2-9.9-4.8-14.8
		c-0.1-0.4-0.1-0.9-0.2-1.3c-0.9-8.9,1.2-17.7,5.4-26.5C603.7,238.2,603.6,238.2,603.5,238.2z"/>
	<path class="st0" d="M376.8,272.3c-0.3,0.7-0.4,1.2-0.4,1.8c0,0.9,0.3,1.7,0.4,2.6c0.9,3.7,1.1,7.6,1,11.4c-0.2,2.3-0.5,4.6-1,6.8
		c-0.7,3-1.7,5.9-2.9,8.6c-0.1,0.2-0.2,0.4-0.4,0.7c-0.2,0.3-0.4,0.6-0.6,1c-0.4,0.5-0.7,1.1-1.1,1.7s-0.8,1.3-1,1.8
		c-0.2,0.4-0.4,0.8-0.5,1.1c-0.1,0.2-0.1,0.4-0.2,0.5c0,0.2-0.1,0.3-0.1,0.4c0,0.3,0,0.5,0.1,0.6c0.4,0.5,0.8,0.7,1.2,0.7
		c0.8-0.1,1.6-0.5,2.4-0.7c2.6-0.6,4.9-1.8,6.6-3.9c2.5-2.9,5-5.9,7.3-9c1-1.4,1.6-3.1,2.4-4.8c0.9-1.7,0.7-3.3-0.4-5
		C386,283.1,381.5,277.9,376.8,272.3z"/>
	<path class="st0" d="M358.4,267.2c-0.3-0.3-0.6-0.4-1-0.7c-3.1-2.1-6.6-3.7-9.8-5.5c-0.3-0.2-0.6-0.3-0.9-0.4
		c-0.2-0.1-0.3-0.1-0.4-0.2c-0.4-0.1-0.7-0.2-1-0.2c-0.2,0-0.4,0-0.5,0c-0.4,0-0.7,0.1-1,0.2c-0.2,0.1-0.4,0.2-0.5,0.3
		c-0.3,0.1-0.4,0.3-0.7,0.4c-0.3,0.2-0.4,0.4-0.7,0.6c-1,0.9-2.2,1.5-3.3,2.2c-5.2,3.5-7.3,8.6-8.5,14.4c-0.1,0.4-0.2,0.9-0.2,1.4
		c-0.1,1.3,0.1,2.7,0.5,4c0.2,0.4,1.5,2.1,2.9,4.1c0.3,0.1,0.5,0.2,0.8,0.3s0.5,0.2,0.8,0.2s0.5,0,0.8,0c0.8,0,1.5-0.2,2.4-0.5
		c0.4-0.2,0.6-0.3,0.9-0.4c0.4-0.2,0.6-0.4,0.9-0.5c2.3-1.6,5-2.2,7.9-2.4c4.1-0.4,7.4-1.8,10.2-4.7c0.4-0.4,0.8-0.9,1.1-1.3
		c3.1-4.1,3.5-6.9,0.8-9.8C359.5,268.1,359,267.6,358.4,267.2z"/>
	<path class="st0" d="M653.8,248.5L653.8,248.5c-0.5-1.5-1.5-2.6-2.6-3.7c-1.9-2-3.9-3.9-5.7-6c-0.5-0.6-1-1.2-1.6-1.6
		c-0.5-0.4-1-0.7-1.5-1c-0.3-0.2-0.6-0.3-0.9-0.4c-1.3-0.4-2.7-0.6-4.3-0.4c-1.2,0.1-2.5,0-3.7,0.1c-1.8,0.1-3.5,0.6-5.2,1.6
		c-1.4,0.7-2.3,1.6-3,2.6c-1.3,2.2-1,5.1,1.3,7.3c0,1,0.1,2.1,0.2,3.1c0,0.9,0.1,1.9,0.3,2.9c1,4.2,3.2,8.5,6.5,11.2
		c2.2,1.8,4.9,3,7.7,3c1.6,0,3.3-0.4,4.8-1.5c3.2-2.1,4.9-5.5,6.8-8.8c0.4-0.8,0.7-1.5,0.8-2.2c0.2-1.1-0.1-2.2-0.5-3.1l0.1-0.1
		v-0.1c0.2-0.2,0.3-0.4,0.5-0.6l0,0C654,250.2,654,249.3,653.8,248.5z"/>
	<path class="st0" d="M498.6,288.8c4.1-4,9.1-6.2,14.9-6.2c3.1,0,6.3,0.2,9.4,0.3c0.1-0.4-0.1-0.9-0.3-1.1c-1.8-1.7-8.5-1.9-9.9-2.2
		c-4.5-0.6-8.9-1.5-13.4-2c-6.4-0.6-12.1,0.4-18.3,1.5c-1.6,0.3-3.2,0.6-4.8,0.9c-1,0.2-2.1,0.4-3.1,0.6c-1.5,0.3-3.1,0.6-4.6,1
		c-1,0.3-2,0.5-2.9,0.9c-3,1-5.9,2.2-8.7,3.9c-3.7,2.2-6.3,5.7-7.8,9.9c-0.4,1.2-0.7,2.4-0.1,4c0.9-1.4,1.6-2.3,2.2-3.3
		c3.5-6.6,9.8-9,16.5-10.5c0.5-0.1,1.1-0.1,1.6,0c4.9,0.8,9.4,2.2,12.9,5.8c0.5,0.5,1,1.1,1.5,1.7c1.3,1.6,2.5,3.3,3.4,5.2
		c0.2,0.4,0.4,0.8,0.5,1.2c0.3,0.3,0.4,0.6,0.7,1c0.1,0.2,0.3,0.4,0.4,0.4c0.4,0.3,1,0.4,1.5,0.3c0.1,0,0.2-0.1,0.4-0.1
		c0.9-0.4,1.4-0.9,1.9-1.5c1.1-1.5,2-3,2.3-4.8C495.4,292.9,496.7,290.6,498.6,288.8z"/>
	<path class="st0" d="M486.9,356.8c-0.2-0.1-0.4-0.2-0.5-0.2c-0.5-0.2-1-0.2-1.5-0.3c-0.2,0-0.4,0-0.5,0c-6-0.6-11.7-3.2-16.8-6.5
		c-4.1-2.7-7.8-5.8-11.5-9c-0.1-0.2-0.2-0.4-0.3-0.5c-1.4-2.4-2.6-4.9-3.5-7.5c-1-2.6-1.7-5.3-2.2-8c-0.1-0.7-0.3-1.4-0.4-2.1
		s-0.2-1.4-0.4-2.1c-0.2-0.7-0.4-1.4-0.7-2.1c-0.4-0.7-0.9-1.3-1.5-1.6c-0.2-0.1-0.4-0.2-0.5-0.3c-0.5-0.2-1.1-0.4-1.6-0.3
		c-0.9,0.1-1.5,0.6-2,1.3c-0.4,0.7-0.6,1.5-0.6,2.2s0,1.4,0.2,2.1c0.6,2.8,1.4,5.4,2.4,8c1.8,4.5,4.3,8.5,7.4,12.2
		c6.1,10.6,18,17.8,30.5,18c0.8,0,1.5,0,2.3,0c1.1-0.1,2.4-0.4,2.8-1.4c0.1-0.2,0.1-0.4,0.1-0.6
		C487.9,357.7,487.5,357.1,486.9,356.8z"/>
	<path class="st0" d="M504.5,336.6c1.8,0.4,3.7,0.4,5.5,0c3.2-0.6,6.1-2.2,8.5-4.5c0.3-0.4,0.6-0.6,0.9-1c0.5-0.7,1.2-1.5,1.4-2.6
		c0.1-0.4-0.1-0.9-0.3-1.2c-0.1-0.1-0.2-0.2-0.3-0.3c-0.5-0.4-1.1-0.4-1.6-0.2c-0.5,0.2-1,0.4-1.3,0.7l-1.1,0.8l-2.2,1.6l-0.8,0.6
		c-0.6,0.2-1.1,0.5-1.7,0.7c-1.7,0.4-3.3,0.4-4.8-0.4c0,0,0,0-0.1,0c-0.2-0.1-0.4-0.3-0.6-0.4c-0.1,0-0.1-0.1-0.2-0.2
		c-0.2-0.1-0.4-0.3-0.5-0.4c-0.7-0.6-1.4-1.2-2-1.9c-1.9-1.9-3.5-4-4.5-6.6c-0.1-0.3-0.2-0.5-0.4-0.8c-0.4-0.7-0.9-1.4-1.3-2
		c-0.1-0.2-0.3-0.3-0.4-0.4c-0.4-0.4-1-0.7-1.7-0.4c-0.2,0.1-0.3,0.2-0.4,0.3c-0.4,0.4-0.5,0.8-0.4,1.3c0.1,4.6,0.9,9.1,3,13.1
		c0.2,0.4,0.4,0.6,0.5,0.9c1.2,1.5,2.9,2.3,4.8,2.5C503.3,336.2,503.9,336.4,504.5,336.6z"/>
	<path class="st0" d="M535.6,303.9c-0.1-0.3-0.3-0.6-0.5-0.8c-0.3-0.2-0.6-0.3-1-0.3c-0.3,0-0.5,0.2-0.8,0.4
		c-0.2,0.2-0.3,0.4-0.3,0.7l-0.1,5.5l-0.1,5.5v0.1c-0.3,1.7-0.6,3.6-1,5.4c-0.8,3.5-1.8,7.1-3.2,10.5c-0.7,1.8-1.5,3.5-2.5,5.3
		l-0.1,0.1c-0.1,0.1-0.1,0.2-0.2,0.2l0,0l0,0c0,0.1-0.1,0.2-0.1,0.2c-0.5,0.6-1.1,1.3-1.7,1.9c-0.6,0.6-1.2,1.2-1.8,1.8
		c-1.9,1.8-3.9,3.5-6,5c-2.8,2-5.7,3.7-8.8,5.2c-0.8,0.4-1.5,0.7-2.3,1l-2.4,0.9c-0.8,0.3-1.6,0.6-2.3,1.1c-0.3,0.2-0.4,0.4-0.7,0.5
		c-0.2,0.3-0.4,0.4-0.5,0.8c0,0,0,0-0.1,0c0,0,0,0,0,0.1c0,0,0,0-0.1,0.1l0,0c-0.1,0.2-0.3,0.4-0.4,0.5c-0.1,0.2-0.1,0.4-0.1,0.6
		c0.1,1,0.9,1.5,1.7,1.8c0.9,0.3,1.8,0.1,2.6-0.2s1.6-0.6,2.4-0.9c3.2-1.3,6.4-2.5,9.4-4.1s5.8-3.6,8.2-6c1-1.1,2-2.4,2.8-3.7
		l0.1-0.1c0.1-0.1,0.1-0.1,0.2-0.2c1.1-1.4,2.2-2.9,3.2-4.5c2-3.1,3.6-6.4,5-9.9c1.2-3,2-6.1,2.4-9.3c0.5-4.1,0.3-8.3-0.5-12.4
		C536.1,305.7,535.9,304.8,535.6,303.9z"/>
	<path class="st0" d="M473.4,338.1c1.4,0.3,2.9,0.2,4.4-0.3l0,0c3.3-1,6.4-3.5,7.5-6.4c0.3-0.8,0.5-1.6,0.4-2.4
		c-0.2-2.9-0.5-5.7-0.8-8.5c-0.3,0-0.4,0-0.6,0c-0.2,0.1-0.3,0.2-0.4,0.4c0,0.1-0.1,0.1-0.1,0.2l0,0c-0.4,1-0.6,2.2-1.1,3.1
		c-1.5,3.1-3.5,5.7-6.6,6.9l0,0l0,0c-1,0.4-2.2,0.8-3.5,0.9l0,0c-1.5,0.2-3-0.1-4.5-0.4c-2.7-0.7-5.4-1.4-7.8-2.9l0,0
		c-0.1-0.1-0.4,0-0.6,0.1c-0.2,0.2-0.2,0.5,0,0.7c0.1,0.3,0.3,0.5,0.4,0.7C463.7,334.3,468.1,337,473.4,338.1z"/>
</g>
<g>
	<path class="st1" d="M497.1,628.9c6.4,2.9,13.3,4.6,20.2,5.8c1.8,0.3,3.6,0.4,5.4,0.4c3-0.1,6-0.6,8.9-1.5c3.7-1.1,6.7-3.1,8.9-6.4
		c1.6-2.6,3.3-5.1,4.9-7.7c4.2-6.6,7.3-13.7,9.1-21.2c3.5-14.5,6.8-29,8.5-43.9c0.6-4.9,0.9-9.8,0.4-14.9c-0.3-3.3-0.7-6.6-1-9.8
		c-0.4-3.9-1.2-7.7-2.2-11.4c-0.3-1.2-0.7-2.3-1.1-3.5c-1.3-3.7-2.6-7.5-3.2-11.5c-0.1-0.7-0.2-1.4-0.3-2.1
		c-0.6-5.8-1.7-11.5-2.6-17.2c-0.3-1.7-0.6-3.5-1-5.3l0,0c-0.4-1.7-1-3.5-1.6-5.2l0,0c-0.4-1.1-0.9-2.3-1.2-3.5
		c-0.3-1.1-0.6-2.3-0.7-3.5l0,0c0-0.3-0.1-0.5-0.1-0.8l0,0c-0.2-0.7-0.4-1.4-0.9-2c-3.3-5.6-7.5-10.2-13.7-12.8
		c-3.5-1.5-7.1-2.2-10.9-2.1c-2.1,0.1-3.7,0.9-4.4,3c-1.2,3.5-2.5,7-3.7,10.5c-0.3,0.9-0.3,1.9-0.3,2.9c0.1,11,1.4,21.8,2.3,32.6
		c0.7,7.3,1.2,14.6,0.7,21.9c-0.2,2.1-0.1,4.2,0.2,6.2c0.7,5.2,1.3,10.5,1,15.7c-0.3,6.2,0.3,12.2,1.8,18.1l0,0
		c0.3,0.8,0.4,1.6,0.7,2.4l0,0c0.3,0.9,0.5,1.7,0.7,2.6l0,0c1.1,4.1,1.9,8.2,2.6,12.3l0,0c0.5,3.1,0.3,6-0.6,9
		c-0.5,1.8-1.5,2.3-3.1,2.3c-0.3,0-0.4,0-0.7-0.1c-2.2-0.2-3.5-1.2-4-3.2l0,0c-0.1-0.3-0.2-0.6-0.2-1l0,0c-0.2-1.2-0.3-2.5-0.4-3.7
		c-0.3-5.1-0.4-10.2-0.7-15.3c-0.2-2.8-0.3-5.5-0.7-8.3c-0.8-7-1.9-14-1.3-21.1c0.1-1.4-0.1-2.8-0.3-4.2c-0.7-5.6-1-11.2-1.1-16.9
		c-0.1-11.8-1.6-23.4-4.1-34.9c-0.4-1.7-0.9-3.5-1.5-5.2c-0.4-1.1-1-2.3-1.6-3.3c-2.7-3.8-5.4-7.6-8.1-11.4c-0.7-1-1.5-1.8-2.5-2.3
		c-0.3-0.2-0.5-0.3-0.8-0.4c-0.4-0.1-0.7-0.3-1-0.3c-1.3-0.2-2.7-0.4-4-0.4c-2.2,0-4.4,0.3-6.6,1c-6.7,2.4-12.5,6.3-18.2,10.5
		c-3.4,2.5-6.6,5-9.6,8c-1.8,1.8-3,3.9-3.5,6.5l0,0c-0.1,0.6-0.1,1.1,0,1.7l0,0c0,0.1,0.1,0.3,0.1,0.4c2.8,6,4.6,12.4,6.9,18.7
		c1.4,3.6,2.6,7.3,3.6,11.1c1.7,6,2.9,12.3,3.4,18.7c0.6,7.2,0.4,14.3,0.3,21.5c0,3.5,0,6.9,0,10.4c-0.1,2.9,0.1,6.1,0.4,9.4
		c0,0.1,0,0.1,0,0.2c0.2,1.5,0.4,2.9,0.5,4.4c0.3,1.8,0.6,3.6,1,5.4l0,0c1,4.8,2.3,9.3,4,13.7l0,0l0,0c1.2,3.1,2.7,6.1,4.3,9.2
		c1.3,2.2,2.7,4.5,4.3,6.7C483.5,620.7,489.7,625.5,497.1,628.9z"/>
</g>
<g>
	<path class="st2" d="M778.2,364.8c-1.5-6.3-3-12.6-6.3-18.3c-1-1.6-1.4-3.6-2-5.4c-0.5-1.5-1-3.2-1.5-4.8c-0.2-0.4-0.3-0.7-0.4-1
		c-0.1,0-0.1,0-0.2-0.1h-0.1c-2.4,1.5-4.2,1.9-5.7,1c-0.7-0.4-1.3-0.9-2-1.6c-0.4-0.4-0.9-1-1.3-1.7c-1.5-2.4-2-5.1-2-8
		c0.2-9.7-0.2-19.4,0.7-29c0.5-5.5-0.2-11.1-1.2-16.5c-1.3-6.5-3.4-12.8-4.9-19.3c-0.2-0.9-0.4-1.7-0.7-2.5
		c-0.1-0.3-0.2-0.5-0.3-0.8c-0.2-0.6-0.3-1.1-0.5-1.7c-0.1-0.4-0.2-0.7-0.3-0.9c-0.2-0.5-0.3-1-0.5-1.5c-0.1-0.4-0.3-0.7-0.3-1
		c-0.2-0.5-0.3-0.9-0.5-1.5c-0.2-0.4-0.3-0.7-0.4-1c-0.2-0.4-0.3-0.9-0.6-1.4c-0.2-0.4-0.3-0.7-0.5-1c-0.2-0.4-0.4-0.9-0.6-1.3
		c-0.2-0.4-0.3-0.7-0.5-1c-0.3-0.4-0.4-0.9-0.7-1.3c-0.2-0.4-0.4-0.7-0.6-1c-0.3-0.4-0.5-0.9-0.8-1.4c-1.5-2.3-2.6-4.8-3.5-7.5
		c0-0.1-0.1-0.3-0.1-0.4c0-0.1-0.1-0.2-0.1-0.3c-0.3-0.8-0.4-1.6-0.7-2.3s-0.5-1.6-0.7-2.3c-0.3-0.9-0.5-1.8-0.7-2.7
		c-0.2-0.8-0.4-1.6-0.6-2.3c-0.3-0.9-0.4-1.8-0.6-2.8c-0.2-0.8-0.3-1.6-0.5-2.2c-0.2-0.9-0.3-1.9-0.5-2.8c-0.2-0.8-0.3-1.5-0.4-2.2
		c-0.2-0.9-0.3-1.9-0.4-2.9c-0.1-0.7-0.3-1.5-0.3-2.2c-0.2-1-0.3-2-0.3-3c-0.1-0.7-0.2-1.4-0.3-2.1c-0.1-1.1-0.2-2.3-0.3-3.5
		c0-0.5-0.1-1.1-0.2-1.6c-0.1-1.7-0.2-3.5-0.3-5.2c-0.1-3.5-1-6.7-2.6-9.9c-1-2-2.2-4-3.3-6c-1-1.6-1.9-3.2-2.8-4.8
		c-0.4-0.8-1-1.5-1.4-2.2c-0.8-1.2-1.5-2.4-2.2-3.5c-0.7-1-1.3-2.2-1.9-3.2c-0.8-1.3-1.5-2.6-2.2-3.9c-0.1-0.2-0.3-0.4-0.3-0.6
		c-0.1-0.2-0.3-0.4-0.3-0.4c-0.3-0.4-0.4-0.6-0.7-0.9c-0.2-0.3-0.4-0.5-0.6-0.9c-0.3-0.4-0.5-0.9-0.8-1.3c-0.2-0.3-0.3-0.5-0.5-0.8
		c-0.3-0.4-0.5-0.9-0.9-1.5c-0.2-0.3-0.3-0.4-0.4-0.7c-0.4-0.7-0.8-1.5-1.1-2.2c-1-2.1-2.2-4.1-3.3-6.2c-0.3-0.4-0.5-0.8-0.8-1.1
		c-0.3-0.4-0.7-0.7-1.1-1c-8.2-5.9-16.6-11.5-25-16.9c-8.1-5.3-15.6-11.3-22.7-18c-4.4-4.2-9.4-7.7-15.3-9.6
		c-0.2-0.1-0.4-0.2-0.6-0.3c0,0-0.1-0.1-0.2-0.1c-0.2-0.1-0.3-0.1-0.4-0.2c-0.1-0.1-0.2-0.1-0.3-0.2c-0.1,0-0.3-0.1-0.3-0.2
		c-0.1-0.1-0.2-0.1-0.3-0.2s-0.2-0.2-0.3-0.3c0,0-0.1-0.1-0.2-0.2s-0.2-0.2-0.3-0.3c-0.1-0.1-0.1-0.2-0.2-0.3
		c-0.1-0.1-0.2-0.2-0.3-0.3l-0.1-0.1c-0.1-0.1-0.2-0.2-0.2-0.3c-0.1-0.1-0.2-0.2-0.3-0.3s-0.1-0.2-0.2-0.3c-0.1-0.1-0.2-0.2-0.2-0.3
		c-0.1-0.1-0.1-0.2-0.2-0.3c-0.1-0.1-0.1-0.2-0.2-0.3c-0.1-0.1-0.1-0.3-0.2-0.3c0,0,0,0,0-0.1c-0.8-2.4,0.7-5.1,3.4-5.5
		c0.3,0,0.4-0.1,0.7-0.1c0.1,0,0.1,0,0.2,0h0.9c0.5,0.1,1,0.2,1.5,0.3c0.1,0,0.1,0.1,0.2,0.1h0.1c2.5,0.9,4.8,1.9,6.8,3.8
		c4.1,3.8,8.5,7,13.8,8.9c1.3,0.5,2.5,1.1,3.8,1.6c0.5,0.2,1,0.4,1.5,0.6s0.9,0.3,1.4,0.3c2.9,0.6,6,1.1,9,1.6c1,0.2,2.2,0.5,3,0
		c0.2-0.4,0.2-0.7,0-0.9c-0.5-0.6-1-1.2-1.6-1.9c-0.2-0.3-0.4-0.4-0.6-0.7c-0.4-0.4-1-0.9-1.4-1.5c-0.3-0.3-0.5-0.6-0.8-0.9
		l-0.2-0.1c-0.3-0.4-0.8-0.9-1.1-1.2c-0.3-0.3-0.6-0.6-0.9-0.9c-0.4-0.3-0.8-0.8-1.2-1.2c-0.3-0.3-0.6-0.6-1-0.9
		c-0.4-0.4-0.8-0.8-1.2-1.2c-0.3-0.3-0.6-0.6-1-0.9s-0.8-0.8-1.2-1.1c-0.3-0.3-0.7-0.6-1-0.9c-0.4-0.4-0.8-0.8-1.2-1.1
		c-0.3-0.3-0.7-0.6-1-0.9c-0.4-0.3-0.8-0.6-1.2-0.9c-0.3-0.3-0.5-0.4-0.8-0.6l-0.1-0.1c-0.3-0.2-0.5-0.3-0.8-0.5
		c-0.2-0.1-0.3-0.2-0.4-0.3s-0.3-0.2-0.4-0.3c-0.3-0.1-0.5-0.3-0.8-0.3c-0.1,0-0.2-0.1-0.3-0.1c-0.2-0.1-0.3-0.1-0.4-0.2
		c-0.1,0-0.2-0.1-0.3-0.1c-1.9-0.6-3.8-1.2-5.7-1.8c-0.9-0.3-1.7-0.5-2.6-0.8c-1.1-0.3-2.2-0.7-3.4-1s-2.3-0.7-3.5-1
		c-0.8-0.3-1.6-0.5-2.4-0.8c-2-0.6-4-1.1-6-1.7c-0.4-0.1-0.8-0.3-1.2-0.3c-0.2,0-0.3-0.1-0.5-0.1c-0.2-0.1-0.4-0.1-0.7-0.2
		c-0.2,0-0.3-0.1-0.5-0.1c-0.3-0.1-0.5-0.1-0.8-0.2c-0.2,0-0.3-0.1-0.5-0.1c-0.3,0-0.5-0.1-0.8-0.1c-0.2-0.1-0.3-0.1-0.5-0.1
		s-0.4-0.1-0.7-0.1h-2.5c-0.3,0-0.4,0.1-0.6,0.1c-0.3,0-0.4,0.1-0.7,0.1h-0.3c-2,0.3-3.9,0.5-5.9,0.3H622c-0.1,0-0.3,0.1-0.3,0.1
		c-0.1,0.1-0.2,0.1-0.3,0.1s-0.3,0.1-0.3,0.1c-0.1,0-0.2,0.1-0.3,0.1c-0.1,0.1-0.3,0.1-0.3,0.2c-0.1,0-0.2,0.1-0.3,0.1
		c-0.1,0.1-0.3,0.1-0.3,0.2c-0.1,0-0.2,0.1-0.3,0.1s-0.3,0.1-0.3,0.2c0,0-0.1,0.1-0.2,0.1c-0.3,0.1-0.4,0.3-0.6,0.3
		c-2.2,1.6-3.5,3.8-4.5,6.3c-0.6,1.6-1.1,3.1-1.8,4.6s-1.8,2.5-3.5,2.7c-1.3,0.2-2.6,0-3.9-0.4c-0.4-0.1-0.9-0.3-1.2-0.4
		c-1-0.4-1.7-1.1-2.2-1.9c-1.3-1.4-1.7-3.3-2.2-5.1c-0.5-2,0.7-3.2,1.8-4.3c4.3-4.2,8.5-8.7,13.1-12.7c1.7-1.5,3.6-2.8,5.5-3.9v-0.1
		h0.2c0,0,0.1,0,0.2-0.1l0,0c-0.1,0-0.2,0.1-0.2,0.1h-0.2l1.4-4c0.1-0.3,0.2-0.5,0.3-0.8c0.1-0.5,0.2-1,0.2-1.5v-0.3
		c0-0.6-0.2-1.2-0.4-1.8c-0.2-0.3-0.3-0.7-0.4-1c-0.3-0.6-0.8-1.1-1.3-1.6s-1-0.8-1.6-1.1c-0.1,0-0.2-0.1-0.2-0.1l0,0
		c-0.1,0-0.2-0.1-0.3-0.1c-0.1-0.1-0.2-0.1-0.3-0.1c-0.2-0.1-0.3-0.1-0.5-0.2c-0.7-0.2-1.4-0.3-2-0.5c-0.3-0.1-0.5-0.1-0.8-0.2
		c-0.3-0.1-0.4-0.1-0.6-0.3c-0.1,0-0.2-0.1-0.3-0.1c-0.3-0.1-0.7-0.3-1-0.4l-8.3-4c-0.5,0.3-1,0.6-1.5,1c-2.9,2.4-6.5,4.2-8.9,7.3
		c-0.9,1.2-2.3,1.9-3.6,2.7c-3.4,1.8-6.9,2.8-10.7,2.9c-8.1,0.3-16.3,0.5-24.5,0c-7.3-0.4-14.7-0.9-21.9-1.5
		c-4.2-0.3-8.2-0.8-12.3-1.3c-0.8-0.1-1.6-0.3-2.4-0.3c-0.3-0.1-0.6-0.1-1-0.2c-0.5,0-1-0.1-1.5-0.2c-0.7-0.1-1.4-0.2-2.1-0.3
		c-0.3-0.1-0.7-0.1-1-0.2c-0.4,0-1-0.1-1.5-0.2c-0.4-0.1-0.7-0.1-1-0.2c-0.4-0.1-1-0.1-1.4-0.2c-0.4,0-0.7-0.1-1-0.1
		c-0.4-0.1-1-0.1-1.4-0.2c-0.4,0-0.7-0.1-1-0.1c-0.4,0-1-0.1-1.4-0.1c-0.4-0.1-0.7-0.1-1-0.1c-0.7,0-1.4-0.1-2.2-0.1
		c-4.8-0.1-9.6-0.4-14.4-0.8c-0.6,0-1.3-0.1-1.9-0.1c-0.4,0-0.8-0.1-1.1-0.1c-0.6-0.1-1.1-0.1-1.6-0.1h-3.9c-0.9,0-1.8,0.1-2.7,0.1
		c-17.5,0.6-34.5,3.8-51.4,8.4c-1.2,0.3-2.4,0.7-3.6,1c-0.5,0.2-1,0.3-1.5,0.4c-0.8,0.3-1.5,0.4-2.2,0.7c-1.1,0.3-2.2,0.7-3.4,1
		c-0.4,0.2-1,0.3-1.4,0.4c-0.8,0.3-1.5,0.4-2.3,0.7c-0.4,0.2-1,0.3-1.5,0.4c-0.8,0.2-1.5,0.4-2.2,0.6c-0.5,0.2-1,0.3-1.5,0.4
		c-0.7,0.2-1.4,0.3-2.1,0.5c-0.5,0.1-1.1,0.3-1.6,0.3c-0.7,0.1-1.4,0.3-2.1,0.4c-0.5,0.1-1,0.3-1.6,0.3c-0.5,0.1-1,0.2-1.5,0.3
		c-2.3,0.4-4.6,0.9-6.8,1.5c-0.2,0.1-0.4,0.1-0.6,0.2c-0.1,0.1-0.1,0.1-0.2,0.1c-0.4,0.1-0.8,0.2-1.2,0.3c-0.6,0.1-1.1,0.3-1.6,0.3
		c-0.6,0.2-1.1,0.3-1.7,0.4c-0.5,0.1-1,0.3-1.5,0.3c-0.6,0.1-1.1,0.3-1.7,0.3c-0.5,0.1-1,0.3-1.5,0.3c-0.6,0.1-1.2,0.3-1.8,0.3
		c-0.4,0.2-1,0.3-1.5,0.3c-0.7,0.1-1.3,0.3-1.9,0.3c-0.5,0.1-1,0.2-1.5,0.3c-0.7,0.1-1.3,0.3-2,0.3l-1.3,0.3
		c-0.7,0.1-1.4,0.3-2.2,0.3c-0.4,0.1-0.8,0.1-1.1,0.2c-1.1,0.2-2.2,0.3-3.4,0.4c-8.4,1-16.8,1.3-25.2,0.7
		c-8.7-0.7-17.4-1.6-25.9-3.3c-1.4-0.3-2.7-0.5-4,0.4c-1.1,0.8-2.4,0.8-3.6,0.7c-1.6-0.1-3.3-0.3-4.9-0.4s-3.2-0.3-4.8-0.4h-0.3
		c3.3,1.9,6.5,3.9,9.9,5.6c2,1,4.1,1.9,6.1,2.7c6.4,2.2,13.3,2.8,19.3,0c0.2-0.1,0.4-0.2,0.6-0.3c-0.1,0.1-0.2,0.2-0.3,0.3
		c0.2-0.1,0.4-0.2,0.5-0.3c-1.7,2.2-3.6,4.3-5.4,6.5c1,0.3,1.5,0.9,1.7,2c0.4,0.7,0.5,1.6,0.4,2.7c-0.7,4.9-2.2,9.4-6.2,12.7
		c-0.5,0.4-1,0.9-1.5,1.3c-0.4,0.3-0.9,0.8-1.4,1.2c-0.1,0-0.1,0.1-0.2,0.1c-2.2,1.9-4.2,3.9-6.1,6.1l-0.1,0.1l-0.1,0.1
		c0,0.1-0.1,0.1-0.1,0.2s0,0.1,0,0.1s-0.1,0.1-0.1,0.2v0.1c0,0.1,0,0.1,0,0.2v0.1c0,0.1,0,0.1,0,0.2v0.1l0,0
		c3.7-0.9,7.5-1.7,10.8-4.2c1.3-1,2.8-1.8,4.2-2.6c2.3-1.3,4.6-2.6,7.3-2.6c0.9,0,1.5-0.3,2.2-0.8c0.2-0.1,0.4-0.2,0.4-0.3
		c0.1,0.1,0.1,0.2,0.1,0.2v0.1c0,0,0,0-0.1,0c0,0.1,0,0.2,0,0.2c0.1-0.1,0.2-0.2,0.4-0.2c0.1,0.1,0.1,0.2,0.1,0.2s0,0,0,0.1
		c0,0,0,0-0.1,0c0.1,0.6-0.1,1.1,0,1.6c0.3,0.3,0.4,0.8,0.5,1.1c1.1,2.3,0.4,4.5-1.1,6.4c-0.4,0.5-0.8,0.9-1.2,1.5
		c-0.1,0.2-0.3,0.3-0.4,0.4c-0.3,0.3-0.6,0.7-0.9,1c-0.1,0.2-0.3,0.3-0.4,0.5c-0.3,0.3-0.5,0.6-0.8,0.9c-0.2,0.2-0.4,0.3-0.5,0.5
		c-0.3,0.3-0.5,0.5-0.8,0.8c-0.2,0.2-0.4,0.3-0.6,0.5c-0.3,0.2-0.5,0.4-0.8,0.7c-0.3,0.2-0.4,0.3-0.7,0.5c-0.3,0.3-0.5,0.5-0.8,0.7
		s-0.4,0.3-0.7,0.5c-0.3,0.3-0.6,0.4-0.9,0.6s-0.5,0.3-0.8,0.4s-0.5,0.3-0.8,0.4c-4.5,2.4-8.5,5.5-12.1,9.1c-0.4,0.4-0.7,0.7-1,1
		c-0.4,0.3-0.6,0.6-1,0.9c-0.4,0.4-0.7,0.8-1,1.1c-0.4,0.3-0.6,0.6-1,0.9c-0.4,0.4-0.7,0.8-1,1.2c-0.3,0.3-0.6,0.6-0.9,0.9
		c-0.4,0.4-0.7,0.8-1,1.2c-0.4,0.3-0.6,0.6-0.9,0.9c-0.4,0.4-0.7,0.9-1,1.3c-0.3,0.4-0.5,0.6-0.8,0.9c-0.4,0.4-0.7,0.9-1,1.4
		c-0.3,0.4-0.4,0.6-0.7,0.9c-0.4,0.5-0.8,1-1.1,1.6c-0.3,0.3-0.4,0.5-0.6,0.8c-0.5,0.8-1.1,1.6-1.6,2.4c-2.9,4.4-5.7,8.8-6.6,14.2
		c-0.3,1.6-1,3.2-1.7,4.7c-0.5,0.9-1.1,1.9-1.9,2.7c-1.6,1.7-3.7,1.9-5.2,0.6c-0.7-0.4-1.3-1.2-1.7-2.2c-0.1,0-0.1-0.1-0.1-0.2
		c-0.1-0.3-0.2-0.4-0.3-0.7c-0.6-1.8-0.8-3.8-0.8-5.7V159c-2,0.7-3.3,1.9-4.9,2.9c-4.8,2.5-8.6,6.1-12,10.1
		c-9,10.8-15.5,22.8-18.8,36.5c-0.1,0.4-0.2,0.9-0.3,1.2c0.1,0,0.3,0,0.4-0.1c5.2-3.4,10.6-6.5,14.5-11.5c0.6-0.8,1.4-1.4,2.2-2
		c1.4-1.2,3-1.9,4.8-2.3c0.7-0.2,1.2,0,1.5,0.4c0.4,0.2,0.5,0.5,0.5,1c0.4,0.3,0.4,0.8,0.3,1.4c-0.8,2.7-2,5.2-3.5,7.5
		c-2.9,4.5-6,9-8.9,13.5c-0.9,1.4-2.2,2.4-3.5,3.4c-3.1,2.2-6.2,4.6-9.4,6.7c-0.4,0.2-0.6,0.4-0.9,0.6c0,0-0.1,0.1-0.2,0.2
		c-0.2,0.1-0.4,0.3-0.5,0.4l-0.3,0.3c-0.1,0.2-0.3,0.3-0.4,0.4c-0.1,0.1-0.2,0.3-0.3,0.4c-0.2,0.2-0.3,0.3-0.4,0.4
		c0,0.1-0.1,0.3-0.2,0.4c-0.1,0.2-0.2,0.3-0.3,0.4c-0.1,0.1-0.1,0.3-0.2,0.4c-0.1,0.2-0.2,0.4-0.3,0.5s-0.1,0.3-0.2,0.4
		c-0.1,0.2-0.1,0.4-0.2,0.5c0,0.1-0.1,0.3-0.1,0.4c-0.1,0.2-0.2,0.4-0.2,0.5s0,0.1,0,0.1c-2.2,9.4-5,18.6-8.9,27.4
		c-0.2,0.4-0.4,0.8-0.5,1.2c-0.1,0.2-0.2,0.4-0.3,0.7c-0.2,0.4-0.3,0.7-0.4,1c0,0.3-0.1,0.4-0.2,0.7c-0.1,0.4-0.2,0.8-0.3,1.2
		c-0.1,0.3-0.2,0.4-0.2,0.6c-0.2,0.6-0.3,1.2-0.4,1.8c-1.2,7.3-1.1,14.6-1.3,21.9c-0.1,3.1,0.4,6.2,1.5,9.1c0.4,1,0.9,1.9,1.5,2.8
		c0.6,1,0.9,2,1.4,3c0.3,0.5,0.5,0.9,0.9,1.2c0.2,0.1,0.3,0.2,0.4,0.3c0.9,0.4,1.4,0.7,1.8,1c0.7,0.4,0.9,0.9,0.9,1.5
		c0.5,0.7,0.4,1.5-0.1,3c-0.6,2.3-1.8,4.3-3.2,6.2c-3.4,4.6-6.4,9.3-9.2,14.2c-3.4,6-5.1,12.4-6.6,19.1c-3.7,15.7-4.1,31.4-0.6,47.2
		c0.7,3.8,1.6,7.5,2.8,11.2c1.4,4.4,2.9,8.7,4.3,13c4.8,14.8,13,27.7,22.6,39.8c2.9,3.5,6,6.9,8.7,10.5c1.7,2.2,3.6,4.3,5.7,6.2
		c3.5,3,7.2,5.6,11.2,7.9c2.5,1.4,5.1,2.9,7.6,4.2c1.1,0.7,2.2,1.5,3.2,2.3c1.2,0.9,2.2,2,3.1,3.3c0.8,1.1,1.6,2.1,2.6,2.9
		c2,1.5,4.3,2.5,6.8,3.2c1.3,0.4,2.7,0.5,4,0.5c-3.2-2.7-6.3-5.5-9.3-8.5c0,0,0,0-0.1-0.1c-2.9-2.9-5.6-5.9-8.3-9
		c-0.4-0.4-0.6-0.8-1-1.1c-1.4-1.7-2.7-3.5-4-5.2c-0.3-0.4-0.4-0.6-0.7-1c-2.5-3.5-4.8-7.3-6.8-11.2c-0.4-0.6-0.6-1.2-0.9-1.8
		c-2.8-5.6-4.9-11.6-6.3-17.6c-0.1-0.3-0.2-0.6-0.2-0.9c-0.3-1-0.4-2.1-0.6-3.2c0-0.3-0.1-0.4-0.1-0.7c-0.2-1.1-0.4-2.2-0.5-3.4
		c-0.1-0.8-0.2-1.5-0.3-2.4c-0.1-1.3-0.2-2.5-0.2-3.8v-0.1c-0.1-5.4,0.4-10.6,1.6-15.9c5-20.9,23.8-38.9,45.4-39
		c-6.6-3.2-13.2-6.4-19.9-9.6c-0.4-0.9-0.6-1.7-1-2.6c-1.4-3.7-2.8-7.3-4.1-11.1c-0.9-4.7-1.8-9.2-2.7-13.9
		c-0.4-2.1-0.8-4.1-1.2-6.1c-1-4.8-1.8-9.6-2.8-14.4c-0.1-0.6-0.3-1.2-0.4-1.8c-0.4-1.8-0.7-3.5-1-5.4c-0.2-1.1-0.4-2.2-0.5-3.4
		c0-0.2-0.1-0.4-0.1-0.5c-0.3-1.7-0.5-3.5-0.7-5.2c-0.1-1.1-0.3-2.3-0.4-3.5c0-0.1,0-0.2,0-0.3c-0.1-1.7-0.2-3.5-0.2-5.3l0,0
		c0-1.2,0-2.4,0.1-3.6v-0.4l0.1,0.1c-0.1-0.4-0.2-0.7-0.2-1.1c-0.7-1.6-1.1-3.5-1.2-5.4c-0.1-1.6,0.2-3.3,0.6-5
		c0.7-2.4,2.1-4.8,4.4-5.8c0.5-0.2,1-0.5,1.5-0.8c2.4-6,5.8-11.6,9.9-16.7c0.3-0.7,0.5-1.5,0.8-2.2c0.7-2.3,1.5-4.4,2.3-6.7
		c2.4-6.8,5.9-13.1,9.9-19.1c3.7-5.5,8.7-9.2,15.2-10.8c2.3-0.6,4.6-1.1,6.9-1.5c0.4-0.1,0.9-0.2,1.3-0.3c0.1-0.1,0.1-0.1,0.2-0.1
		c0.4-0.2,0.9-0.3,1.2-0.4c0,0,0.1-0.1,0.2-0.1c0.4-0.1,0.8-0.4,1.1-0.5c0.1,0,0.1-0.1,0.2-0.1c0.4-0.3,0.8-0.5,1.1-0.8
		c0.3-0.3,0.4-0.4,0.7-0.6c0.4-0.4,1-0.8,1.5-1c0.1,0,0.3-0.1,0.4-0.2c0.1-0.1,0.2-0.1,0.3-0.2c0.1,0,0.2-0.1,0.3-0.2
		c0-0.1,0.1-0.1,0.2-0.2c0.1-0.1,0.1-0.2,0.2-0.3s0.1-0.1,0.2-0.2c0.1-0.1,0.1-0.2,0.2-0.3c0,0,0.1-0.1,0.1-0.2
		c0-0.1,0.1-0.2,0.1-0.3c0,0,0.1-0.1,0.1-0.2c0.1-0.1,0.1-0.3,0.1-0.4c0,0,0-0.1,0-0.2v-0.4l0,0c0-0.2-0.1-0.4-0.1-0.6
		c-0.1-0.7-0.1-1.4-0.1-2.1c0.1-4.9,3-9.4,8.6-11.8c7-2.9,14.2-4.2,21.9-2.8c0.6,0.2,1.2,0.3,1.8,0.4c0.2,0.1,0.4,0.1,0.6,0.2
		c0.4,0.1,0.8,0.3,1.2,0.4c0.3,0,0.4,0.1,0.7,0.2c0.4,0.1,0.8,0.3,1.1,0.4c0.3,0.1,0.4,0.2,0.7,0.3c0.4,0.2,0.9,0.3,1.3,0.4
		c0,0,0.1,0.1,0.2,0.1c1.7,0.5,3.4,1.1,5,1.6c0.9,0.3,1.5,0.7,2.3,1.1c0.2,0.1,0.3,0.1,0.4,0.2c0.1,0,0.1,0,0.1,0
		c0.2,0.1,0.3,0.1,0.4,0.1h0.1c0,0,0.1,0,0.2,0h0.1c0.1,0,0.1-0.1,0.2-0.1l0.1-0.1l0.1-0.1l0.1-0.1c0-0.1,0.1-0.1,0.1-0.2
		c0.1,0,0.1-0.1,0.1-0.1v-0.6c-0.3-1.3-0.8-2.6-1-4c0-0.3-0.1-0.5,0-0.8c0-1.6,1-2.7,2.6-3c0.8-0.2,1.5-0.2,2.2-0.2
		c0.9,0,1.8,0.2,2.7,0.4c1.2,0.3,2.5,0.9,3.8,0.6c0.3-0.7,0.3-1.3,0.3-2c0-0.5-0.1-0.9-0.1-1.5c0-0.2,0-0.4,0-0.5
		c0.2-2.1,1.5-3.2,3.6-3c0.2,0,0.4,0.1,0.5,0.1s0.1,0,0.1,0c0.1-0.1,0.2-0.1,0.2-0.2c0.4-0.4,1-0.4,1.5-0.3
		c7.1,1.3,13.1,6.8,15.2,13.6c1.3,4.5,1,9.2,1,13.9s0.3,9.6,2.6,13.6c0.2,0.3,0.3,0.4,0.4,0.7c0.1,0,0.1,0.1,0.2,0.2
		c0.2,0.2,0.3,0.3,0.4,0.4c0,0.1,0.1,0.2,0.2,0.3c0.2,0.1,0.3,0.3,0.4,0.4c0.1,0.1,0.2,0.2,0.3,0.3c0.2,0.1,0.3,0.3,0.4,0.4
		c0.1,0.1,0.2,0.2,0.3,0.3c0.1,0.2,0.3,0.3,0.4,0.4c0.1,0.1,0.2,0.2,0.3,0.3s0.3,0.2,0.4,0.3l0.3,0.3c0.1,0.1,0.3,0.2,0.4,0.3
		c0.2,0,0.3,0.1,0.4,0.2c0.1,0,0.3,0.1,0.4,0.2c0,0.1,0.1,0.1,0.1,0.1c0.3-0.1,0.4-0.2,0.5-0.3c0-0.4,0.1-0.8,0.1-1
		c0.5-4.3,1-8.6,1.5-13c1-9.1,2-18.2,5.2-26.8c0.1-0.1,0.1-0.3,0.2-0.4c2.5-6.6,6.5-12.8,11.9-17.2c0.4-0.4,0.8-0.6,1.2-0.9l0.2-0.2
		c0-0.3-0.1-0.5-0.1-0.8c0,0.3,0.1,0.5,0.1,0.8l0.1-0.1c0-0.3-0.1-0.4-0.1-0.7v-0.3c-0.1-1.1-0.3-2.2-0.4-3.4
		c-0.4-2.7-1.5-5-3.5-6.9c-1.2-1.2-2.6-2.1-4.3-2.3c-0.4,0-0.7-0.1-1-0.1c-2.4,0-4.1,1.2-5.7,3.9c-0.9,1.4-1.1,1.7-2.1,1.6
		c-0.3,0-0.6,0-1.1-0.1c-3.9-0.6-6.8-2.8-9.3-5.7c-3.8-4.5-5.5-9.8-6-15.6c-0.1-0.8-0.1-1.5-0.1-2.2c-0.1-5,1-9.9,2.8-14.3
		c2.2-5.7,5.4-10.8,9.7-15.3c2.9-3.2,6.1-6,9.4-8.7c0.2-0.2,0.5-0.5,0.8-0.3c0.1,0,0.1,0.1,0.2,0.2s0.1,0.3,0.1,0.3
		c0.1,0.3-0.1,0.6-0.3,0.9c-0.4,0.5-0.8,1.1-1.2,1.6c-3.9,5.1-5.4,10.7-5.3,16.7c0,2,0.2,4,0.5,6.1c1.5,9.2,7,15,14.4,19.7
		c1.9,1.2,3.7,2.3,5.5,3.6c4,2.9,6,6.7,6.2,11.6c0.2,2.3,0.5,4.7,0.7,7c0.1,0.6,0.1,1.2,0.1,1.8c0.1,1.7-0.1,3.5-0.3,5.3
		c-0.7,6.8-2.8,13.5-3.5,20.3c-0.5,4.7-1.5,9.2-2.8,13.7c-0.2,0.8-0.5,1.6-0.9,2.3c0,0,0,0.1-0.1,0.1c-0.2,0.7-0.8,1.3-1.1,1.9
		c-0.1,0.2-1,0.9-1.2,1.1l-0.1,0.1c0.1,0.4,0.9,0.9,1.2,0.9c0.7,0.2,0.7,0.5,0.8,0.8c0,0,0,0,0,0.1c0.1,0.2,0.2,0.4,0.3,0.5l0.1,0.1
		c1,1.6,1.9,3,3.4,4.3c0.7,0.5,1.5,0.9,2.2,1.4h0.4c1-0.2,2.1-0.4,3.2-0.6h0.1c0.2,0,0.3-0.1,0.4-0.1c1-0.2,1.8-0.4,2.8-0.5
		c0.4-0.1,1-0.2,1.4-0.3c0.1,0,0.1,0,0.2,0c2.9-0.5,5.9-0.9,8.9-1.4c1.5-1.1,2.9-2.4,4.3-3.8s2.7-2.9,3.9-4.3c0.2-0.5,0.4-0.9,0.6-1
		l0,0c0,0,0,0,0.1-0.1c0,0,0-0.1-0.1-0.1c0-0.1-0.1-0.2-0.1-0.3c-0.4-0.8-0.8-1.6-1.2-2.2c-2.3-3.5-4.1-7.2-5.7-11
		c-1.5-3.6-2.7-7.3-3.6-11.1c-0.8-3.1-1.3-6.2-1.5-9.4c-0.2-3.7,0.7-7.1,3.9-9.6c2.3-1.8,3.4-4.4,3.8-7.2c0.8-4.4,2-8.6,3.6-12.7
		c0.2-0.4,0.4-0.8,0.4-1.1c0.2-0.5,0.4-0.9,0.4-1.2c-0.1-0.1-0.2-0.2-0.3-0.2c0,0,0,0-0.1,0s-0.1-0.1-0.2-0.1c0,0-0.1,0-0.1-0.1
		c-0.1-0.1-0.2-0.1-0.3-0.2c-0.4-0.2-0.8-0.4-1.1-0.5c-1.8-0.9-3.4-2-4.7-3.3c-2.2-2.1-3.9-4.7-5-7.8c-0.1-0.4-0.3-0.6-0.4-0.9
		c-0.9-2.5-1.8-4.9-2.6-7.4c-1-3.2-1-6.6-0.4-9.8c0.5-2.5,1.8-4.3,4.1-5.4l0,0l0,0c0.1,0,0.2-0.1,0.3-0.1l0,0l0,0h0.1
		c0-0.1,0-0.1,0-0.1c0.1,0.1,0.1,0.1,0.1,0.1c0.1,0,0.1,0,0.1,0s0.5-0.1,0.8-0.2c0.7-0.2,1.3-0.1,1.7,0.3c0.2,0.2,0.4,0.3,0.4,0.6
		c0.4,0.7,0.7,1.5,1,2.2c0,0,0,0,0,0.1c0.1,0.2,0.2,0.4,0.3,0.6c0.9,0.5,1.7,0.9,2.6,1.2c0.5,0.2,1.1,0.3,1.6,0.3
		c1,0,1.8-0.2,2.7-0.6c0.3-0.2,0.6-0.4,0.9-0.6c0.1-0.1,0.2-0.2,0.3-0.3c0.2-0.1,0.4-0.3,0.5-0.4s0.2-0.3,0.3-0.3
		c0.1-0.2,0.3-0.3,0.4-0.5s0.2-0.3,0.3-0.4s0.2-0.3,0.3-0.5c0-0.2,0.1-0.3,0.2-0.4l0.3-0.5c0.1-0.2,0.1-0.3,0.2-0.5
		c0-0.3,0.1-0.4,0.2-0.6s0.1-0.3,0.2-0.5s0.1-0.4,0.2-0.6s0.1-0.4,0.2-0.6c0.1-0.3,0.2-0.5,0.3-0.8c0-0.3,0.1-0.4,0.2-0.7
		c0.1-0.2,0.1-0.3,0.2-0.5c0-0.2,0.1-0.4,0.2-0.6s0.1-0.3,0.2-0.5c0.1-0.3,0.2-0.4,0.3-0.6c0-0.2,0.1-0.3,0.2-0.5l0.3-0.5
		c0.1-0.2,0.2-0.3,0.3-0.4c0.2-0.2,0.3-0.3,0.4-0.5s0.2-0.3,0.3-0.4s0.2-0.3,0.4-0.4c0.1-0.1,0.2-0.3,0.3-0.3
		c0.2-0.2,0.4-0.3,0.5-0.4c0.2-0.1,0.3-0.2,0.4-0.3c0.3-0.2,0.5-0.3,0.8-0.4c0.2-0.1,0.3-0.1,0.4-0.2c0.7-0.3,1.4-0.4,2.2-0.4
		c0.3,0,0.5,0,0.7,0c1.6,0,3.2,0.6,4.5,1.6c0.4,0.3,0.6,0.5,1,0.8c0.1,0.1,0.3,0.2,0.4,0.3c0.1,0.1,0.1,0.1,0.2,0.2l0.1,0.1
		c0.3,0.3,0.5,0.6,0.7,0.9c0.1,0.1,0.1,0.2,0.2,0.3c0.3,0.3,0.4,0.7,0.6,1c0,0,0,0,0,0.1c0.2,0.3,0.4,0.7,0.5,1
		c0,0.1,0.1,0.2,0.1,0.3c0.2,0.3,0.3,0.6,0.4,0.9l0,0c0,0,2.2-0.8,3.3-1.2c2.9-0.9,5.4-0.6,7.3,0.9c0.6,0.5,1.2,1.2,1.6,2
		c0.7,0.9,1.2,2.2,1.5,3.6c0.3,1.2,0.4,2.5,0.4,3.7c0,3.9-0.5,7.7-1.8,11.4c-2.2,6.5-5.6,12.3-10.2,17.4c-4.1,4.6-8,9.2-11.9,13.8
		c-1.4,1.6-2.5,3.3-3.2,5.3c-0.8,2.3-1.5,4.8-2.3,7.1c-0.4,1-0.2,1.9,0.4,2.8c2.3,3.7,3.2,7.9,3.4,12.2c0.1,3.8,0.2,7.7,0.1,11.6
		c-0.2,5.9,1.1,11.4,3.2,16.8c3.7-0.7,4.7-2.3,8.9-3.3c7.1-1.6,13.1-1.3,13.9-4.3c1.2-4.9,1.4-8.8,1.6-13c0.2-2.1,0.4-4.2,0.7-6.6
		c0.7-4.7,3.6-9.8,8.4-10.3v-0.1c0-0.1,0.1-0.3,0.1-0.4c0.1-0.6,0.3-1.2,0.4-1.8c0.5-1.9,1.8-2.8,3.7-2.4c0.8,0.2,1.5,0.4,2.2,0.7
		c1.1,0.5,2.1,1.3,2.8,2.3c0.8,1,1.5,2,2.3,2.9s1.5,2,2.2,2.9c3,4.8,4.2,10.2,3.5,16c-0.6,6.3-3.4,11.9-6.7,17.2
		c-0.2,0.3-0.3,0.5-0.5,0.8c-0.1,0.2-0.3,0.4-0.3,0.5c-0.1,0.1-0.1,0.2-0.2,0.3l0.1,0.1c0.1,0,0.1-0.1,0.2-0.2
		c2.2,0.5,4.5,0.5,6.7-0.3c6.9-2.5,10-10.2,15.2-15.3c3.7-3.6,8.7-5.9,13.9-6.6c0,0,0,0.1,0.1,0.1c0,0,0,0,0.1,0
		c0-0.1-0.1-0.1-0.1-0.2c-0.1-0.1-0.1-0.2-0.2-0.3c-1.1-2-2.2-4.1-3.4-6.1c-1.9-3.5-1.7-6.9-0.2-10.4c0.7-1.4,1.5-2.7,2.3-3.8
		c0-0.4,0.1-0.7,0.1-1.1c0.1-2.2,0.2-4.6,0.6-5c2.8-3.3,6.2-8.1,9.7-10.7c7.3-5.4,14.9-12.1,17.1-20.2c0.6-2.3,0.8-4.8,0.3-7.3
		c-0.4-2-1-4.1-1-6.1c0.1,0.2,0.2,0.3,0.3,0.4c0-0.1,0-0.1,0-0.2c-0.1-0.1-0.2-0.2-0.2-0.3l-0.1-0.1c-0.3-0.3-0.4-0.7-0.7-1
		c-0.3-0.4-0.5-0.9-0.8-1.3c-1-1.6-1.7-3.2-2.4-4.9c-0.3-0.8-0.7-1.6-1-2.3c-1.1-2.4-2.6-4.7-4-7c-3.2-5.1-7.8-8-13.5-9.6
		c-0.8-0.2-1.6-0.3-2.4-0.6c-1-0.4-1.6-1-2.1-1.9c-0.4-0.8-0.6-1.7-0.4-2.6c0.3-1.6,1.7-2.8,3.6-2.8c0.3,0,0.6,0,1,0
		c1.9,0,3.6,0.4,5.3,1.1c1.9,0.9,3.9,1.6,5.9,2.1c3.4,0.9,6.3,2.4,8.7,4.8c0.8,0.8,1.5,1.6,2.2,2.6c0.3,0.4,0.6,0.9,0.9,1.3
		c0.4,0.6,1,1.3,1.5,1.9c2.3,3,4.9,5.8,7.6,8.6c0.2,0.2,0.3,0.3,0.5,0.5s0.3,0.3,0.4,0.5c0.1,0.1,0.2,0.2,0.3,0.3
		c1.8,2.1,2.9,4.6,3.5,7.2c0.4,2,1.4,3.6,2.6,4.9c0.8,0.8,1.5,1.4,2.5,2c0.3,0.2,0.5,0.3,0.7,0.5c0.1,0.1,0.3,0.2,0.3,0.2
		c0.3,0.2,0.4,0.3,0.7,0.3c0.5,0.3,1,0.7,1.5,1c0.1,0,0.1,0.1,0.2,0.1l0.1,0.1c0.2,0.1,0.3,0.2,0.3,0.3c0.2,0.2,0.3,0.3,0.4,0.4
		c2.2,1.9,3,4.4,2.4,7.3c-0.1,0.4-0.2,0.8-0.3,1.2v0.1c-0.1,0.4-0.2,0.7-0.3,1.1c0,0.1-0.1,0.2-0.1,0.4c-0.1,0.3-0.2,0.5-0.3,0.8
		c0,0.1-0.1,0.3-0.2,0.4c-0.2,0.4-0.3,0.9-0.5,1.3c-0.6,1.2-1.3,2.4-2.2,3.5c-3.1,3.7-6.1,7.5-9.5,11c0.1,0.2,0.1,0.4,0.2,0.6
		c0.1-0.1,0.1-0.1,0.2-0.2c0,0.1,0.1,0.1,0.1,0.2c0.1-0.1,0.2-0.2,0.2-0.2c0.2,0.6,0.4,1.1,0.7,1.6c0.5,0.9,1.3,1.7,2.2,2.4
		c2.8,1.9,6.7,2.9,9.5,5c0.3,0.3,0.8,0.5,1.1,0.9c0.9,0.9,1.5,1.7,2.1,2.8c1-0.1,2-0.1,3,0.1c0.9,0.1,1.8,0.4,2.7,0.7
		c1,0.4,1.6,0.9,2.1,1.6c1,1.1,1,2.6-0.2,4.2c-0.3,0.5-1,0.8-1.1,1.5c0.2,0.1,0.3,0.2,0.5,0.3c1.9,0.8,3.9,1.6,5.8,2.4
		c0.6,0.3,1.3,0.6,1.9,0.9h0.4c0.1,0,0.1,0.1,0.2,0.1l0,0c-0.1,0-0.1-0.1-0.2-0.1c-0.2,0-0.3-0.1-0.4-0.2c5.3,0.3,10.6,1.2,15.7,2.6
		c1.3,0.4,2.6,0.8,3.9,1.2c18.8,6.2,35.2,19.6,45.6,36.4l-0.4-0.4c0.1,0.2,0.3,0.4,0.3,0.6c0.5,0.4,1,0.9,1.4,1.5
		c2.3,2.5,3.9,5.5,4.5,9.3v0.1c2.1,4.8,3.7,9.7,4.8,14.8c2.2,10.8,2.4,21.9,2.6,32.8c0.1,6.9,0.2,13.7,0.3,20.6
		c0.1,6.7,0.2,13.7-2.8,19.8c-1.5,3-3.9,5.8-6.8,7.5c-2.8,1.7-6,2.5-9.1,1.8c31.3,20.8,49.5,59.9,45.4,97.4
		c-1.7,15.2-7,30.3-16.5,42.2c-0.1,0.5-0.2,1-0.3,1.5c-0.4,2.2-1,4.5-1.5,6.7c-0.2,0.9-0.5,1.7-0.6,2.6c1.1-0.4,2-1.3,2.8-2.1
		s1.5-1.5,2.2-2.2c0.3-0.3,0.6-0.6,1-0.9c0.4-0.4,1-0.9,1.4-1.2s0.9-0.8,1.2-1.1c0.3-0.4,0.8-0.7,1.1-1c0.4-0.4,0.8-0.7,1.2-1
		s0.8-0.7,1.2-1c0.3-0.3,0.5-0.4,0.8-0.7c0.9-0.8,1.7-1.5,2.6-2.2c0.4-0.4,1-0.8,1.4-1.2c0.3-0.3,0.6-0.5,1-0.8
		c0.5-0.4,1-0.9,1.5-1.3c0.3-0.4,0.7-0.6,1-1c0.4-0.4,0.9-0.8,1.3-1.2l0.5-0.5c1.2-1.1,2.8-2.8,3.7-4c0.8-1,1.5-1.9,2.2-2.9
		c0.6-0.8,1.2-1.5,1.8-2.2c0.8-1,1.5-2.1,2.4-3.2c0.5-0.7,1.1-1.5,1.6-2.2c0.9-1.2,1.7-2.4,2.6-3.5c0.4-0.6,0.9-1.2,1.3-1.8
		c1.3-1.8,2.6-3.6,3.8-5.4c5.3-7.7,9.7-15.8,13.7-24.1c2.8-5.7,5-11.8,6-18C780.4,382.6,780.4,373.6,778.2,364.8z M407.4,93.1
		c-2.7,2.6-4.8,5.6-6.9,8.7c-3.2,4.8-6.6,9.5-10,14.2c-1.5,2.1-2.6,4.2-3.4,6.7c-1.4,4.2-2.4,8.6-3.2,12.9c-1,5.7-3.7,10.5-7.4,14.9
		c-3.9,4.6-6.4,9.9-8.5,15.6c-0.9,2.3-0.8,4.8-1,7.3c-0.1,0.7-0.4,1.1-0.8,1.3c-0.3,0.2-0.6,0.3-1,0.2c-0.7-0.1-1.3-0.2-1.9-0.4
		c-0.1-0.1-0.3-0.1-0.4-0.1c-0.4-0.2-0.6-0.4-0.9-0.5c-0.6-0.4-1.1-0.8-1.5-1.3l-0.2-0.2l-0.1-0.1c0,0,0-0.1-0.1-0.1
		c0-0.1-0.1-0.1-0.1-0.2c-0.1-0.1-0.2-0.3-0.2-0.4c-0.1-0.1-0.2-0.3-0.3-0.4c-0.2-0.3-0.3-0.5-0.4-0.8c0-0.1-0.1-0.2-0.1-0.3
		c-0.1-0.4-0.3-0.8-0.3-1.1v0h-1l0,0l0,0l0,0c-2.2-11.7-10-22.3-9.2-34c0.6-7.9,5.2-15.1,11-20.5s13-9.2,19.9-12.9
		c1.8-0.9,4.1-1.9,6.1-1.9c0.6,0,1.2,0.1,1.7,0.3l0,0c0.9-1.2,1.8-2.3,2.8-3.5c0.4-0.4,0.8-0.9,1.2-1.3c1.8-1.9,3.8-3.4,6-4.4
		s4.6-1.7,7.3-1.9c1.6-0.1,3.3-0.2,5.1-0.3v0.1h0.1C409.7,90.6,408.5,91.9,407.4,93.1z M511.7,78.1c-0.2,0.8-0.4,1.5-0.8,2.1l0,0
		c-1,1.9-2.8,2.9-4.9,3.5l0,0c-1,0.3-2.2,0.3-2.9,0.4c-0.7,0-1.1,0-1.5-0.1s-0.7-0.2-1-0.3c-0.3-0.2-0.4-0.4-0.5-0.8
		c-0.3-0.9-0.4-1.6-0.7-2.4c-1-2.8-2.9-5.3-5.3-6.8c-2.2-1.5-5.1-2.2-8.6-1.9c-0.4,0-0.9,0-1.2,0.2c-1.7,0.5-3.3,0.7-4.5-0.1
		c-0.2-0.1-0.4-0.2-0.5-0.3c-0.2-0.1-0.3-0.3-0.4-0.3c-0.4-0.3-0.6-0.8-0.9-1.3c-0.1-0.2-0.3-0.3-0.4-0.5c-0.4-0.4-1-0.7-1.5-0.9
		c-0.6-0.4-1.1-0.9-1.5-1.2l0,0c-0.4-0.6-0.4-1.4-0.2-2c0.2-0.6,0.7-1,1.4-1.1c1.7-0.3,3.5-0.4,5.4-0.5c1.2-0.1,2.4,0,3.6-0.5
		c3-1.3,6-1.2,8.9-0.3c0.5,0.2,1,0.3,1.5,0.5c0.3,0.1,0.5,0.3,0.8,0.3c0.7,0.3,1.4,0.6,2.1,0.9c0.6,0.3,1.1,0.5,1.7,0.9
		c3.3,1.6,6.4,3.5,9.3,5.9l0.1,0.1C511.2,73.2,512.3,75.3,511.7,78.1z M558.5,131.1c-0.7,6.1-2.8,11.5-6.4,16.4
		c-1,1.5-1.9,3-2.9,4.5c-0.8,1.1-1.5,2.3-2.4,3.4c-2,2.4-10.7,9.2-13.5,10.8c-0.5,0.3-1,0.5-1.5,0.7c-0.3,0.1-0.4,0.2-0.7,0.2
		c-0.4,0.1-0.9,0.2-1.3,0.2c-1.2,0.1-2.3-0.2-3.5-0.8c-2-0.9-3-2.7-3-4.6v-0.1c0-0.7,0.2-1.3,0.4-2l0,0c1-2.6,2.3-5,4-7.3
		c0.4-0.6,0.8-1.1,1.1-1.7c0.9-1.6,1.4-3.4,1.8-5.3c0-0.2,0.1-0.4,0.1-0.6s0.1-0.3,0.1-0.4c0.1-0.6,0.3-1.2,0.3-1.8
		c0.1-0.4,0.2-0.9,0.3-1.4c0.4-3.3,1-4.4,1-5.9l0,0c-0.1-1.2-0.3-2.6-1.2-5.4c0,0,0,0,0-0.1c-0.1-0.4-0.2-0.8-0.3-1.1
		c-0.5-2-0.8-4.1-0.8-6.2c0-1.2,0.1-2.3,0.3-3.5c0-0.1,0-0.2,0-0.3c0-0.1,0-0.2,0-0.2c0.2-1.7,0-3.3-0.4-5c-1.1-3.5-1.5-7-0.6-10.4
		c0.1-0.5,0.3-0.9,0.4-1.5l0,0c0.1-0.4,0.3-0.9,0.3-1.3l0,0c0.2-0.9,0.3-1.8,0.3-2.8c-0.1-2.8-1.2-5.4-2.7-8l0,0
		c-0.9-1.5-2.1-2.5-3.5-3.5c-0.7-0.4-1.5-0.8-2.2-1.2c-0.4-0.3-0.6-0.9-0.5-1.4c0-0.4,0.3-0.9,0.8-1.1c0.3-0.1,0.5-0.2,0.9-0.3
		c0.1,0,0.2-0.1,0.3-0.1c9.8-1.3,18.5,4.4,21.6,12.5c1.3,3.3,1.6,4.8,1.6,7.1c0,0.5,0,1.1-0.1,1.8c-0.1,0.4-0.1,0.9-0.2,1.2
		c-0.1,0.9-0.1,1.5,0.3,2.1l0,0c0.1,0.2,0.3,0.4,0.4,0.5l0.1,0.1c0.2,0.2,0.3,0.3,0.5,0.4l0,0c2.4,1.6,4.3,3.8,6.1,6.1
		c3.2,4.2,4.8,8.7,4.9,13.7C558.7,128.7,558.7,129.9,558.5,131.1z M721.7,199.4c-0.4,3.2-0.4,6.3-0.5,9.5c0,1.8-0.2,3.5-0.4,5.4
		c-0.1,0.7-0.3,1.4-0.5,2c-0.3,0.6-0.8,1-1.3,1.3c-1,0.4-2,0.2-2.8-0.7c0-0.1,0-0.1,0-0.1c-0.1,0-0.2,0-0.2-0.1
		c-0.9-0.9-1.3-2.1-1.3-3.4c0.1-2.2,0-4.5,0.3-6.6c0.6-4.8-0.6-9.2-2.1-13.7c-0.3-0.9-1-1.6-1.6-2.3c-1.5-1.8-3.3-3.6-4.9-5.5
		c-0.6-0.7-1.1-1.3-1.7-1.9c-1.7-1.7-3.6-3.4-5.6-4.9c-0.3-0.3-0.8-0.6-1.1-0.9c-0.5-0.4-1-0.8-1.5-1.2c-1.6-1.3-3.3-2.8-4.8-4.2
		l0,0c-1-0.9-1.9-1.7-2.8-2.6l0,0c-1.5-1.4-3-2.8-4.8-3.9c-0.7-0.4-1.4-0.9-2-1.4l0,0c-0.3-0.2-0.4-0.4-0.6-0.5l0,0
		c-0.3-0.3-0.7-0.5-1-0.8l0,0c-1.1-0.9-2.2-2.1-3.2-3.2l0,0l-0.1-0.1c-0.9-0.9-1.7-1.8-2.7-2.7c-0.7-0.6-1.3-1.3-1.8-2.2
		c-0.3-0.4-0.6-0.9-1-1.5l0,0l0,0c2.8-0.1,4.7,0.8,6.5,1.6c4.9,2.3,9.8,4.7,14.6,7c0.4,0.2,0.8,0.4,1.1,0.6
		c7.5,5.1,15.3,9.9,21.9,16.2c0.1,0.1,0.1,0.1,0.2,0.2c3.4,3.2,5.5,7.2,5.9,12C721.9,193.7,722,196.6,721.7,199.4z"/>
	<path class="st2" d="M255.3,541.9C255.2,541.7,255.1,541.9,255.3,541.9L255.3,541.9z"/>
	<path class="st2" d="M687.3,633.8l1.8-2.2l1-1c0.3-0.3,0.6-0.7,1-1l1.9-2.1c0.1,0,0.1-0.1,0.2-0.2c0.6-0.6,1.2-1.2,1.8-1.8
		c0.6-0.8,1.3-1.4,2-2.1c0.3-0.3,0.6-0.5,1-0.9c0.1-0.1,0.1-0.1,0.2-0.2c0.3-0.3,0.7-0.6,1-1l0.5-0.5l0.5-0.4l1-1
		c0.7-0.6,1.4-1.3,2.1-1.9l2.2-1.8l1.1-1c0.3-0.3,0.8-0.6,1.1-0.9l2.2-1.7l0.5-0.4l0.6-0.4l1.1-0.9l2.3-1.6l2.4-1.5
		c6.4-4.1,13.1-7.6,20.2-10.5c0.4-0.2,0.9-0.3,1.3-0.5l1.3-0.5l2.7-1c0.4-0.2,0.9-0.3,1.3-0.5l1.4-0.4l2.7-0.9l1.4-0.4
		c0.4-0.2,1-0.3,1.4-0.3l2.8-0.8l1.4-0.3l0.7-0.2l0.7-0.2l2.8-0.6c7.3-1.7,14.8-3,22.3-3.8s15.1-1.1,22.7-0.8
		c2.2,0.2,4.5,0.3,6.7,0.6c-2.1-5.9-4.2-11.6-6.7-17.3c-1.7-3.9-3.5-7.8-6.7-10.9c-0.9-0.9-1.5-2-2.2-3c-3.6-5.7-7.4-11.3-11.7-16.6
		c-3-3.8-4.3-8.3-4.6-13.1c-0.1-0.7-0.1-1.4-0.1-2.1c-0.1-4.7,0.6-9.4,1.3-14.1c1.6-12,3.1-24.1,3.5-36.3c0.1-5.3-1.8-7.6-3.2-12.9
		c-0.2-0.6-5.4-7.1-8.7-11.5C764,459,756,469,747.3,478.8c-3.7,4.1-7.7,8-11.9,11.5c-0.3,0.3-0.7,0.6-1,0.9
		c-9.3,7.6-18.6,15.3-27.9,22.9c-1,1-2,1.8-2.8,2.8c-0.1,0.1-0.2,0.2-0.3,0.3c-2.7,3.7-5.8,7-9.2,9.9c-1.1,1-2.2,1.9-3.4,2.8
		c-2.2,1.7-4.2,3.6-6.5,5.2c-0.3,0.3-0.7,0.5-1.1,0.8c-1.2,0.9-2.4,1.7-3.5,2.7c-4.6,3.5-8.9,7.3-13.1,11.3
		c-0.1,0.1-0.2,0.2-0.3,0.3c-7.8,7.3-16.3,13.7-24.8,20c-1.8,1.4-3.7,2.8-5.6,4.2c-1.5,1.1-3,2.2-4.6,3.5c-0.2,0.2-0.4,0.3-0.6,0.4
		s-0.3,0.3-0.4,0.3c-0.3,0.2-0.4,0.3-0.6,0.5c-9.5,7.3-19.9,13-31.5,16.1c-2,0.5-4,1.1-5.9,1.9c-5.3,2.1-10.7,3.6-16.3,4.6
		c-2.2,0.3-4.6,1-6.9,0.2c-0.5-0.2-1-0.1-1.3,0.3c-0.2,0.2-0.3,0.5-0.4,0.8c-0.3,0.7-0.4,1.3-0.6,2c-3.3,10.4-8.5,19.7-14.8,28.6
		c-1.1,1.5-2.2,2.9-3.5,4.2c-5.3,5.4-12,8.3-19.7,9.7c-5.6,1-11.2,0.7-16.8-0.4c-8.5-1.6-16.5-4.3-24.1-8.5
		c-7.5-4.2-13.8-9.6-18.8-16.7c-4.3-6.3-8.5-12.6-10.9-20c-0.4-1.5-1.4-1.8-2.8-2c-16.2-1.5-31.4-6.7-46-14
		c-4.8-2.4-9.7-4.6-14.8-6.5c-2.7-1-5.4-2.1-8.1-3c-10.2-3.5-19.2-9.2-27.4-16.1c-0.4-0.4-0.8-0.8-0.8-1.2c0-0.3,0.1-0.5,0.4-0.9
		c0.1-0.1,0.2-0.3,0.2-0.3c0-0.3-0.3-0.5-0.5-0.6c-3.3-1.6-6.4-3.7-10.4-3.8c-2.5-0.1-4.8-1-7.2-1.9c-1.8-0.8-3.6-1.4-5.6-1.1
		c-1.7,0.3-3.4-0.3-4.8-1c-2.5-1.1-5.1-2.3-7.4-3.7c-8.2-4.8-16.7-9.3-25.3-13.3c-3-1.4-5.9-3.1-8.5-5.1
		c-8.1-6.1-16.5-12.1-24.5-18.5c-9.4-7.5-17.8-16.1-25.1-25.7c-4.2-5.6-8.5-11.2-12.6-16.9c-1-1.5-2.2-2.8-3.6-4
		c-3.7-3.2-7.2-6.7-10.3-10.4c-0.7,1-1.5,2.2-2.4,3.6c-2.8,4-6.3,9-8.7,12.8c-0.7,1.1-1.3,2.1-1.7,2.9c-0.1,0.1-0.1,0.3-0.2,0.4
		c-0.1,0.1-0.1,0.2-0.2,0.3c-0.1,0.2-0.2,0.4-0.2,0.5c-0.1,0.2-0.1,0.3-0.1,0.4c-2.2,6.9-3.2,13.9-3.3,21.1c0,2.3,0.1,4.8,0.3,7.1
		c0.6,7,0.9,14.1,2.2,21c0.3,1.2,0.4,2.4,0.3,3.6c-0.1,3.5-1.2,6.7-2.9,9.9c-5.6,10-11,20.1-16,30.5c-3.1,6.3-5.9,12.7-8.4,19.2
		c6.2-0.1,12.4,0.3,18.5,1c7.5,0.8,14.9,2.2,22.3,3.8l2.8,0.6l0.7,0.2l0.7,0.2l1.4,0.3l2.8,0.8c0.4,0.1,0.9,0.3,1.4,0.3l1.4,0.4
		l2.7,0.9l1.4,0.4c0.4,0.2,0.9,0.3,1.3,0.5l2.7,1l1.3,0.5c0.4,0.2,0.9,0.3,1.3,0.5c7,2.8,13.8,6.3,20.2,10.5l2.4,1.5l2.3,1.6
		l1.1,0.9l0.6,0.4l0.5,0.4l2.2,1.7c0.4,0.3,0.8,0.6,1.1,0.9l1.1,1l2.2,1.8c0.7,0.6,1.4,1.3,2.1,1.9l1,1l0.5,0.4l0.5,0.5
		c1.4,1.3,2.8,2.6,4.1,4c0.7,0.7,1.3,1.4,2,2.1l1.9,2.1c0.4,0.3,0.6,0.7,1,1l1,1l1.8,2.2c1.2,1.5,2.4,2.8,3.5,4.4
		c3,3.8,5.8,7.7,8.5,11.7c0.1,0.1,0.1,0.1,0.2,0.2c0.7,0.9,1.4,1.7,1.9,2.7c0.2,0.3,0.4,0.7,0.6,1c0.6,0.9,1.2,1.7,1.8,2.6
		c2.1,3,4.2,6.1,6.4,9.1c0.3,0.3,0.5,0.7,0.8,1l0.1,0.1c0.6,0.5,1.2,1.1,1.8,1.6c1,1,2.2,1.7,3.3,2.5c0.3,0.2,0.5,0.3,0.7,0.5h344.8
		l0.1-0.1c0.2-0.1,0.3-0.2,0.4-0.3c0.1-0.1,0.1-0.1,0.2-0.2c1.1-0.8,2.2-1.6,3.3-2.5c0.6-0.5,1.2-1.1,1.8-1.6
		c0.1-0.1,0.1-0.1,0.2-0.2c0.2-0.3,0.3-0.5,0.5-0.7l0.1-0.1c2.2-2.9,4.3-6,6.4-9.1c0.6-0.9,1.2-1.7,1.8-2.6c0.2-0.3,0.4-0.7,0.6-1
		c0.5-1,1.2-1.8,1.9-2.7c0-0.1,0.1-0.1,0.1-0.1c2.8-4,5.5-7.9,8.5-11.8C684.9,636.6,686.1,635.2,687.3,633.8z M448,652.2
		c-1.5,0.3-3,0.4-4.6,0.4c-1.5,0-3-0.1-4.6-0.3c-5.4-0.9-11-1.3-16.5-1.4c-7.2-0.2-14.3-0.9-21.2-3c-2.6-0.8-5.4-0.6-8.2-0.9
		c-0.4,0-0.9,0.1-1,0.3c-0.1,0.1-0.2,0.3-0.2,0.3c0,0.4,0.4,0.7,0.6,1c2.2,2.2,4,4.6,6.6,6.2c1,0.7,1.9,1.6,2.3,2.8
		c0.3,0.8,0.2,1.5-0.3,2.1c-0.3,0.4-0.7,0.8-1.3,0.9l0,0c-0.2,0-0.3,0.1-0.4,0.1c0,0,0,0-0.1,0l0,0c-0.8,0-1.6-0.2-2.4-0.3
		c-0.2-0.1-0.4-0.1-0.6-0.2c-0.8-0.2-1.5-0.4-2.2-0.6c-0.3-0.1-0.5-0.2-0.8-0.3c-1.4-0.4-2.8-1-4.1-1.5c-1-0.4-2.2-1-3.2-1.5
		c-2.5-1.4-5.1-2.8-7.6-4.2c-0.4-0.2-0.9-0.3-1.3-0.4c-0.3,0-0.5,0.1-0.8,0.3c0,0.1,0,0.1,0,0.1c1,1.2,1.7,2.6,2.3,4
		c0.4,0.7,0.5,1.5,0.5,2.4c0,0.1,0,0.1,0,0.1c0.1,1.8-1.2,3.2-2.8,3c-0.3,0-0.5-0.1-0.8-0.1c-3.5-1-7.1-2.3-9.9-4.9
		c-2-1.8-4-3.8-6-5.7c-1-1-1.9-1.9-2.8-2.7c-1,0-0.8,0.8-1,1.2c-0.8,1.4-1.4,2.1-2.3,2.2c-0.5,0.1-1.2-0.1-2.1-0.4
		c-2.1-0.8-4.1-1.6-6-2.7c-2.7-1.5-5.3-3.1-7.9-4.7c-1.6-1-3.1-2.2-4.4-3.7c-0.9-0.9-1.6-1.8-2.5-2.8c-4.3-4.7-8.7-9.1-14.3-12.3
		c-3.6-2.1-7.1-4.8-10.5-7.3c-12.2-8.6-22.3-19.3-31.9-30.7c-3.4-4-6-8.3-8.6-12.7c-3.4-5.7-6.9-11.3-10.6-16.8
		c-0.4-0.5-0.8-1.1-1.1-1.7c-5.3-9.6-11.8-18.3-17.6-27.6c-0.3-0.4-0.6-0.9-0.9-1.4c-0.3-0.6-0.4-1.2-0.4-1.7c0-0.9,0.5-1.7,1.4-2.4
		c1.6-1.3,3.5-1.5,5.4-1.5l0,0c0,0,0,0,0.1,0c0.6,0,1.5,0.3,1.8,0.8c1.2,1.5,2.9,2,4.6,2.7c8.7,3.8,17.1,8.5,25.2,13.3
		c2.6,1.5,5.1,3.3,7.5,5.2c1.2,0.9,2.2,2.2,3,3.4c2.3,3.1,4.4,6.4,6.3,9.8c1.5,2.8,3.2,5.5,4.8,8.3c0.8,1.3,1.5,2.7,1.7,4.2
		c0,0.2,0,0.4,0,0.6c0,1.3-1,2.2-2.2,2.2c-0.2,0-0.4,0-0.6-0.1c-1.3-0.4-2.6-1-3.7-1.8c-5-3.4-10.2-6.6-14.7-10.7
		c-2.9-2.7-5.7-5.2-8.7-7.7c-0.1-0.1-0.1-0.1-0.2-0.2c-3-2.5-6.1-5-9.2-7.3c-0.5-0.4-1-0.9-1.6-1.4c0.1,0.6,0.2,1.1,0.4,1.6
		c0.5,1,1.1,1.9,1.7,2.8c7.1,9.8,14.2,19.8,22.3,28.8c6.6,7.3,13.2,14.9,20,22.1c6.7,7.1,14.2,13.1,22.5,18c1.6,1,3.3,1.9,4.5,3.6
		c0.6,0.9,1.6,1.4,2.6,2c3.7,2.4,7.8,4.2,11.9,5.7c4.7,1.7,9.3,3.5,13.9,5.2c1.8,0.7,3.7,1.1,5.6,1.2c5.5,0.3,11,1.5,16.4,2.2
		c9.7,1.5,19.4,2.8,29.2,3.5c1.8,0.1,3.6,0.1,5.4,0.1c10.7-0.1,21.2,1.7,31.6,3.9c1.4,0.3,2.6,0.8,3.6,1.5c1,0.6,1.8,1.5,2.7,2.5
		C451.8,649.5,451,651.5,448,652.2z M681.8,597.6c0-0.1,0-0.2,0-0.3c0-0.3,0-0.6,0-0.9s0-0.5,0.1-0.8c0-0.1,0-0.2,0-0.3
		c0-0.3,0.1-0.6,0.1-0.9c0-0.1,0-0.2,0-0.3c0-0.3,0.1-0.5,0.1-0.8c-1.2,0.1-1.7,1-2.5,1.5c-5.4,4.1-10.8,8.1-16.2,12.2
		c-7.2,5.3-14.8,9.7-23,13c-2.2,1-4,2.2-5.5,4.2c-3.9,4.5-8,8.8-11.8,13.3c-2.8,3.1-6.5,4.6-9.9,6.6c-0.4,0.3-1,0.4-1.4,0.4
		c-0.8,0-1.5-0.3-2.2-0.9c-1-0.8-1.2-1.7-1.1-2.8c0-0.3,0.1-0.8,0.2-1.2c0.5-1.9,1.5-3.5,2.7-5.1c1-1.4,2.2-2.9,3.3-4.4
		c-0.3-0.3-0.7-0.4-1-0.5c-0.5,0-1,0.3-1.5,0.4c-4.2,0.9-8.4,1.7-12.5,2.7c-4,0.9-8,0.5-12,0.7l0,0h-0.1c-0.3,0-0.5-0.1-0.8-0.2
		c-0.4-0.2-0.8-0.7-0.7-1.2c0-0.3,0-0.5,0.2-0.8c0.9-1.2,2.2-1.6,3.5-2c4.4-1.2,8.5-3,12.9-4.5c12.5-4.4,24.3-10.4,36-16.6
		c3.8-2,7.4-4.2,11-6.7c6.1-4.3,12.2-8.5,18.2-13c9.3-6.7,17.7-14.5,25.7-22.8c2.8-2.8,5.7-5.6,8.2-8.7c3.5-4.3,7.2-8.4,11.1-12.2
		c2.4-2.3,4.3-5.4,6.5-8c0.1-0.1,0.1-0.3,0.1-0.6c-0.3,0-0.7,0-1,0c-2.4,0.1-4.8,0.9-7.1,1.3c-1.2,0.3-2.4,0.6-3.6,0.6h-0.1l0,0
		c-1.5,0.1-2.7-0.7-3.3-2.2c-0.3-0.7-0.3-1.4-0.3-2c0.1-0.8,0.4-1.5,1-2.1c0.3-0.3,0.6-0.5,1-0.8c5.4-3.5,10.3-7.5,15.9-10.5
		c3.2-1.7,6.2-3.6,9.2-5.5c1.2-0.8,2.4-1.8,3.5-2.8c2.2-1.9,4.2-3.9,6.5-5.8c1.1-1,2.3-1.9,3.9-2.2c0.3-0.1,0.6-0.1,1-0.1
		c2-0.1,3.6,1.4,3.8,3.5c0,0.2,0,0.3,0,0.4c0.1,1-0.1,2.1-0.6,3.1c-1.3,3-2.5,6.1-3.9,9.2c-1.6,3.5-3.4,7-6.1,9.8
		c-1,0.9-1.4,2.1-1.9,3.2c-2.9,6.1-5.1,12.5-6.7,19.1c-0.3,1.4-0.6,2.7-1,4.1c-0.2,0.8-0.4,1.6-0.8,2.3c-0.4,1.2-1.2,1.7-2.2,1.7
		c-0.2,0-0.3,0-0.4,0c-1.1-0.1-1.6-0.9-2-1.9c-0.5-1.8-0.7-3.8-1.6-5.5c-1,0.2-1,1-1.2,1.8c-1.5,5-2.8,10.1-4.3,15.1
		c-0.5,1.7-1,3.5-2.2,4.8c-0.8,1-1.8,1.4-2.8,1.4c-1.2,0-2.3-0.7-2.9-2.2c-0.9-1.9-1-4.1-1.2-6c-0.1-0.3-0.2-0.5-0.4-0.5
		c-0.3,0.1-0.5,0.2-0.7,0.3c-0.2,0.2-0.3,0.4-0.4,0.7c-1.8,3.1-3.5,6.2-4.7,9.7c-1.6,4.8-3.6,9.2-6.2,13.5c-1.4,2.2-3,4.2-4.8,6.3
		c-1.1,1.3-2.4,2.2-4,2.8c-0.5,0.2-1,0.3-1.4,0.2C683.4,601.3,682,600,681.8,597.6z"/>
	<path class="st2" d="M889,647.3c-2.2-4.3-4.8-8.4-7.9-12.1c-3-3.7-6.5-7.1-10.2-10.1c-3.8-2.9-7.9-5.5-12.1-7.7l-6.4-2.8
		c-0.7-0.6-1.4-1.2-2.1-1.8c-1.6-1.4-3.3-2.6-5.1-3.6c-7.5-4.2-16-6.6-24.4-8c-4.2-0.7-8.5-1.1-12.8-1.4c-2.8-0.2-5.7,0-8.5-0.4
		c-3-0.5-6-1.9-9.1-2.1c-1.2-0.1-2.4,0-3.6,0.2c-9.8,1-19.6,2.5-29.1,5.4c0,0,0,0-0.1,0c-4.6,1.5-9.1,3.1-13.4,5.2
		c-0.1,0-0.1,0-0.2,0.1c0,0,0,0-0.1,0c-3.5,1.8-6.7,4.2-10.2,6c-0.1,0.1-0.3,0.1-0.3,0.2c-0.7,0.3-1.5,0.8-2.2,1
		c-1,0.4-2.2,0.9-3.2,1.3l0,0c-2,0.9-4,1.8-5.8,2.8l0,0c-0.1,0-0.2,0.1-0.2,0.1c-19.9,10.5-37,28.1-44.1,49.4h0.1
		c1.7-0.4,3.5,0,5.1-0.5l0,0c0.1-0.1,0.2-0.2,0.3-0.2c0.7-0.5,1-1.3,1.4-2.1c3.6-7.9,7.3-16.1,13.4-22.2c2.2-2.2,4.8-4,7.6-5.3
		c6.8-3.4,14.9-3.7,21.5,1.4V640l0,0l0,0c0,0.1,0.1,0.1,0.1,0.2c0.5,0.3,1,0.9,1.5,1.3c0.1,0.1,0.1,0.1,0.1,0.1
		c0.2,0.2,0.3,0.3,0.5,0.4c0.6,0.5,1.2,1.1,1.6,1.7c0.1,0.1,0.2,0.3,0.3,0.3l0,0l0,0c-0.3,0-0.6,0-1,0c0.1,0.1,0.2,0.3,0.3,0.3l0,0
		l0,0c-0.8,0-1.5,0-2.2,0.1c-1.6,0.2-3.2,0.6-4.8,1.1l0,0c-0.7,0.3-1.3,0.5-2,0.8l0,0c-2,1-4,2.2-5.9,3.5c-0.7,0.4-1.3,0.9-2,1.4
		l-1,0.7l-1.8,1.4l-1,0.7l1-0.3c4.8-1.2,9.4-1.2,13.9,0.9c0.3,0.2,0.7,0.3,1,0.5s0.7,0.3,1,0.6c0.7,0.4,1.3,1,1.9,1.5
		c1.2,1,2.2,2.2,3.2,3.5c1,1.4,1.9,2.9,2.7,4.6c-0.1,0.4-0.3,1-0.3,1.4c-0.1,0.3-0.1,0.6-0.2,0.9c0,0.1,0,0.1,0,0.2
		c-0.2,0.5-0.2,1-0.3,1.5c0,0.1,0,0.3,0,0.3c0.1,0.1,0.1,0.3,0.1,0.3c0,0.3,0,0.4,0.1,0.7c0.2,0.9,0.3,1.7,0.5,2.6
		c0.3,1,0.4,2.1,0.7,3.1c1.2,2.2,2.6,4.2,3.4,6.6c0.1,0.3,0.2,0.4,0.3,0.7c0.1,0.1,0.1,0.1,0.1,0.2c0.1,0.2,0.1,0.3,0.2,0.6
		c0,0.1,0,0.1,0,0.1c0.1,0.3,0.1,0.4,0.2,0.7c0,0,0,0.1,0,0.2c0,0.2,0.1,0.4,0.1,0.6c0,0.1,0,0.1,0,0.2c0,0.2,0.1,0.4,0.1,0.6
		c0,0.1,0,0.2,0,0.3c0.1,0.2,0.1,0.3,0.1,0.5c0,0.1,0,0.3,0,0.3c0,0.2,0,0.3,0,0.5c0,0.1,0,0.3,0,0.3c0,0.1,0,0.3,0,0.3
		c0,0.2,0,0.4,0,0.7c0,0.1,0,0.1,0,0.2c0,0.2,0,0.3,0,0.5c0,0.1,0,0.1,0,0.1c0,0.3,0,0.7,0,1c0.2,0.2,0.3,0.3,0.4,0.5
		c0.7,0.9,1.4,1.7,2.1,2.5c0.3,0.3,0.7,0.7,1,1c2.9,2.5,6,4.8,9.8,5.7c6,1.4,12.2-0.6,18.3-0.1c0,0,0,0,0.1,0
		c1.2,0.1,2.3,0.2,3.4-0.2l0,0c0.7-0.4,1.3-1.1,1.8-1.9c0.8-1.3,1.5-2.8,2.1-3.9l0,0c1.6-2.8,3.1-5.9,4.2-9c2.2-6,3.5-12.2,4.1-18.5
		c0.8-9.9-1-20-5-29.2c-2-4.6-4.5-8.9-7.4-13s-6.3-7.8-9.9-11.1c-0.4-0.4-1-0.9-1.4-1.2L761,611l0,0l0,0l0.3,0.1l0.4,0.1l0.9,0.3
		l-0.9-0.8l0,0l0,0l0.3,0.1l0.4,0.1l1,0.3l1.4,0.3l0.4,0.1l0.4,0.2l0.9,0.3c2.4,0.8,4.8,1.7,7,2.8c20.7,10.8,29.7,32.7,31,54.8
		c0,0.2,0,0.3,0,0.4c0,0.7,0,1.3,0,2s0,1.3-0.1,1.9s-0.1,1.1-0.2,1.7c0,0,0,0.1,0,0.2c-0.1,0.4-0.1,0.8-0.2,1.2
		c-0.1,0.3-0.2,0.8-0.3,1.1c0,0.3-0.1,0.5-0.1,0.8c-0.6,3.6-1.9,7.3-3,10.8c-0.1,0.3-0.2,0.4-0.3,0.7c-0.3,1-0.7,1.8-1,2.8v0.1
		c-0.3,0.7-0.4,1.3-0.6,2c-0.5,1.9-0.6,3.8,0.2,5.8c3.2,8.4,10.6,11,18.8,12.3c1,0.2,2.1,0.3,3.2,0.4c1.4,0.2,2.7,0.3,4.1,0.4
		c1.5,0.2,3.1,0.3,4.7,0.5c0.3,0,0.6,0.1,0.9,0.1c0.3,0.1,0.5,0.1,0.8,0.1s0.7,0,1,0c0.7-3,2.2-5.8,3.7-8.5l0,0
		c1.3-2.5,2.4-5.1,3.4-7.7c4.2-11.5,5.7-24.2,4-36.5c-2-14.1-9.9-27-19.7-37.1c-1-1-2-2.2-1.8-3.6l0,0l0,0c0.3,0.1,0.4,0.2,0.7,0.3
		c0-0.3,0-0.4,0-0.6l0,0l0,0c3.5,0.9,7.2,3.8,10.2,5.7c3.7,2.3,7.3,4.8,10.7,7.6c6.1,5.1,11.9,11.7,13.1,19.9
		c2.4,15.6,6.7,16.6,4.7,32.2c-0.2,1.5-0.7,3-1.2,4.6c-0.6,1.5-1.2,2.9-1.7,4.5c-0.3,1-0.7,2-0.9,3c-1.2,5.9-1.5,11.2-3.7,16.8l0,0
		l0,0c-0.1,0.2-0.2,0.3-0.3,0.5s-0.2,0.3-0.2,0.5c-0.1,0.3-0.2,1.8-0.5,2.6c-0.2,0.3-0.3,0.6-0.5,0.5l0,0c2,0.6,8.9,2.1,13.3,1.4
		c0.6-0.1,1.2-0.3,1.7-0.4l0,0c0.7-0.4,1.2-1,1.4-1.9l0.3-2.8l3.4-18.8c3.3-18.5,3.8-37-4.6-54.2c-1.8-3.7-4.9-10.7-7.3-12.9l0,0
		l0,0c0.3,0.3,0.6,0.5,0.9,0.8c0.7,0.7,1.5,1.4,2.2,2.1c-0.8-1.4-1.6-2.5-2.3-3.2l0,0l0,0c0.3,0.3,0.6,0.5,0.9,0.8
		c4.6,4.4,8.8,8.5,12.3,13.9c4,6.3,7.4,13.4,10.1,20.4c0.3,0.6,0.4,1.1,0.6,1.7c0.7,2.2,1.3,4.5,1.8,6.8c1,4.7,1.5,9.3,1.5,14
		c-0.1,4.7-0.6,9.3-1.6,13.8c-0.3,1.4-0.7,2.8-1.1,4.2c0.4-0.1,0.8-0.2,1.2-0.3c0.9-0.5,1.6-1.1,2.3-1.8c0.9-1,1.5-2,2.1-3
		c0.3-0.5,0.5-1,0.8-1.6c0.1-0.3,0.2-0.5,0.3-0.8v-0.1c0.1-0.3,0.2-0.6,0.3-0.9c0.2-0.6,0.3-1.1,0.5-1.7
		C897.8,679,896.3,661.8,889,647.3z"/>
	<path class="st2" d="M284.6,651.7L284.6,651.7L284.6,651.7c0-0.3-0.4-1-0.7-1.5c-1.3-2-2.8-3.8-4.2-5.7c-0.5-0.6-1-1.2-1.5-1.8
		c-1-1.2-2.1-2.3-3.1-3.5c-2.2-2.3-4.4-4.5-6.8-6.6c-0.5-0.4-1-0.9-1.5-1.4l0,0c-0.5-0.3-1-0.8-1.5-1.2l0,0
		c-1.8-1.4-3.7-2.8-5.7-4.2c-1.3-1-2.6-1.8-4-2.6c-1.3-0.8-2.7-1.5-4.1-2.3c-2.8-1.5-5.5-2.8-8.4-4.1c-1-0.4-2.2-0.9-3.2-1.3
		c-2.8-1.1-5.4-2.8-7.9-4.3c-1.6-1-3-1.9-4.7-2.7c-4.5-2.2-9.2-4-13.9-5.4c-1.1-0.3-2.3-0.7-3.5-1c-4.8-1.2-9.6-2.2-14.5-2.9
		c-3.7-0.5-7.3-1-11.1-1.4c-1.2-0.2-2.4-0.3-3.6-0.2c-3.1,0.2-6.1,1.5-9.1,2.1c-0.7,0.2-1.4,0.2-2.1,0.3c-1.7,0.1-3.5,0.1-5.3,0.2
		c-0.4,0.1-0.7,0.1-1,0.1c-1,0.1-2.2,0.2-3.2,0.3c-2.2,0.2-4.2,0.4-6.4,0.7c-1,0.2-2.2,0.3-3.2,0.5c-3.1,0.6-6.3,1.2-9.4,2.1
		c-2.1,0.5-4.1,1.1-6.1,1.9c-3,1.1-6,2.4-8.8,4c-0.5,0.3-0.9,0.5-1.4,0.8c-1.4,0.9-2.6,1.8-3.8,2.8c-0.7,0.6-1.4,1.2-2.1,1.8
		l-6.4,2.8c-4.2,2.2-8.3,4.8-12.1,7.7c-3.7,3-7.2,6.4-10.2,10.1c-2.3,2.8-4.3,5.8-6.1,8.9c-0.6,1-1.2,2.2-1.7,3.2
		c-0.9,1.9-1.8,3.7-2.5,5.6c-2.6,6.6-4.1,13.7-4.4,20.7c0,0.9-0.1,1.8-0.1,2.7c-0.1,6.2,0.7,12.4,2.3,18.5c0.2,0.6,0.3,1.1,0.5,1.7
		c0.3,1.1,0.8,2.3,1.4,3.4s1.2,2.1,2.1,3c0.4,0.3,0.8,0.7,1.2,1l0,0c0.4,0.3,0.9,0.5,1.3,0.7l0,0c0.2,0.1,0.4,0.2,0.6,0.2
		c0.2,0.1,0.4,0.1,0.6,0.2c-0.4-1.4-0.8-2.8-1.1-4.2c-1-4.5-1.6-9.2-1.6-13.8l0,0l0,0c0-2.3,0.2-4.7,0.4-7c0.3-2.3,0.6-4.7,1-7
		c0.5-2.3,1.1-4.6,1.8-6.8c0.2-0.6,0.3-1.1,0.6-1.7c2.7-7,6.1-14.1,10.1-20.4c0.4-0.7,0.9-1.3,1.3-2c0.9-1.3,1.9-2.5,2.8-3.6
		c1-1.1,2.1-2.2,3.1-3.4c1.6-1.6,3.3-3.3,5-4.8c0.3-0.3,0.6-0.5,0.9-0.8l0,0l0,0l0,0c-0.7,0.7-1.5,1.7-2.2,2.9c0,0,0,0,0,0.1l0,0
		c0.6-0.6,1.2-1.2,1.8-1.7l0,0c0.3-0.3,0.6-0.5,0.9-0.8l0,0l0,0c-2.3,2.2-5.4,9.2-7.3,12.9c-4.8,9.7-6.7,19.8-6.8,30.1
		c0,1.4,0,2.7,0.1,4.1c0,0.3,0,0.8,0,1.1c0.1,1.7,0.2,3.5,0.3,5.2c0.3,4.6,1,9.2,1.8,13.8l3.4,18.8l0.3,2.8c0.1,0.5,0.3,1,0.6,1.3
		c0.3,0.2,0.6,0.3,0.9,0.5c1.1,0.4,2.7,0.6,4.2,0.6c0.7,0,1.4,0,2.2-0.1c0.5,0,0.9-0.1,1.5-0.1c0.7-0.1,1.4-0.2,2.1-0.3
		c0.3,0,0.4-0.1,0.7-0.1c0.4-0.1,0.9-0.2,1.3-0.3c1.4-0.3,2.5-0.5,3.1-0.8c-0.7,0.3-0.9-2.7-1-3.1c0-0.1,0-0.2-0.1-0.3
		c-0.1-0.2-0.2-0.3-0.3-0.5c0-0.1-0.1-0.2-0.1-0.3c-2.2-5.6-2.5-11-3.7-16.8c-0.4-2.1-1.3-4.1-2.1-6c-0.4-1-0.8-2-1.1-3
		c-0.2-0.5-0.3-1-0.4-1.5s-0.3-1-0.3-1.5c-0.1-0.7-0.2-1.3-0.3-1.9c0-0.2,0-0.3-0.1-0.4c-0.1-0.6-0.1-1.1-0.2-1.7
		c0-0.4-0.1-0.8-0.1-1.2c0-0.6-0.1-1.2-0.1-1.8c0-0.2,0-0.3,0-0.5c0-0.7,0-1.4,0.1-2c0.1-1,0.2-1.8,0.3-2.7c0.2-1.4,0.5-2.7,0.9-4
		c0.2-0.5,0.3-1,0.4-1.5c1.1-3.7,2.5-7.7,3.5-14.5c1.2-8.2,7-14.8,13.1-19.9c3.4-2.8,7-5.3,10.7-7.6c0.4-0.3,0.8-0.5,1.2-0.8
		c0.8-0.5,1.6-1.1,2.5-1.6s1.7-1.1,2.6-1.6c1.3-0.8,2.7-1.4,4-1.7l0,0c0,0.2,0,0.4,0,0.6c0.2-0.1,0.4-0.1,0.5-0.2c0,0.2,0,0.3,0,0.4
		c-0.1,1-0.8,2-1.5,2.8c-0.1,0.1-0.3,0.3-0.4,0.3c-0.6,0.6-1.2,1.3-1.8,1.9c-1.2,1.3-2.3,2.6-3.5,4c-0.5,0.7-1.1,1.4-1.6,2.1
		c-4.2,5.6-7.9,11.9-10.2,18.7c-1.1,3.3-2,6.7-2.5,10.3c-0.5,3.8-0.8,7.6-0.7,11.4c0.2,11.5,2.9,22.8,8,32.8
		c0.9,1.8,1.9,3.5,2.7,5.4l0,0c0.3,0.7,0.5,1.4,0.8,2.1c0.1,0.3,0.2,0.7,0.3,1c0.4,0,0.9,0,1.2,0s0.5,0,0.8-0.1
		c0.3,0,0.6-0.1,0.9-0.1c1.6-0.2,3.1-0.3,4.7-0.5c0.7-0.1,1.4-0.1,2-0.2c0.6-0.1,1.4-0.2,2-0.3c1.1-0.2,2.2-0.3,3.2-0.4s2-0.3,3-0.5
		c0.9-0.2,2-0.4,2.9-0.7c0.4-0.2,0.9-0.3,1.4-0.4c1.4-0.5,2.7-1,3.9-1.7c0.8-0.4,1.6-1,2.3-1.5c0.4-0.3,0.7-0.6,1-1
		c0.7-0.7,1.3-1.4,1.9-2.2c0.9-1.2,1.6-2.6,2.2-4.2c0.4-0.9,0.5-1.8,0.5-2.7c0-0.3,0-0.6,0-0.9c-0.2-1.9-0.9-3.8-1.6-5.7
		c-0.3-0.7-0.5-1.4-0.8-2.1c-1.1-3.5-2.4-7.2-3-10.8c0-0.3-0.1-0.5-0.1-0.8c0-0.2-0.1-0.3-0.1-0.6c0-0.2-0.1-0.4-0.1-0.6
		c-0.1-0.4-0.1-0.8-0.2-1.2l0,0c0-0.1,0-0.2,0-0.2c-0.1-0.6-0.1-1.1-0.2-1.7s-0.1-1.2-0.1-1.9l0,0c0-0.3,0-0.8,0-1.1l0,0
		c0-0.3,0-0.6,0-0.9l0,0c0-0.2,0-0.3,0-0.4l0,0c1.3-22.1,10.3-44,31-54.8c1.1-0.6,2.2-1.1,3.5-1.5c1.2-0.5,2.3-0.9,3.5-1.3l0.9-0.3
		l0.4-0.2l0.4-0.1l1.4-0.3l0.9-0.3l0.4-0.1l0.3-0.1l0,0l0,0l-0.9,0.8l0.8-0.2l0.4-0.1l0.3-0.1l0,0l0,0l-2.4,2.1
		c-0.4,0.3-0.9,0.8-1.4,1.2c-3.6,3.4-7,7.1-9.9,11.1c-2.9,4.1-5.4,8.4-7.4,13c-2.5,5.7-4.1,11.8-4.8,18c-0.3,2.3-0.4,4.7-0.4,7
		c0,0.8,0,1.5,0.1,2.3c0,0.7,0,1.3,0.1,1.9c0.5,6.3,1.8,12.5,4.1,18.5c0.9,2.3,1.9,4.6,3,6.8c0.4,0.7,0.8,1.5,1.2,2.2
		c0.2,0.3,0.4,0.8,0.6,1.2c0.3,0.6,0.6,1.2,0.9,1.8c0.2,0.3,0.4,0.6,0.5,0.9l0,0c0.3,0.4,0.6,0.9,0.9,1.2l0,0l0,0
		c0.3,0.3,0.6,0.4,0.9,0.6l0,0c0.9,0.3,1.7,0.3,2.6,0.3c0.3,0,0.6-0.1,0.9-0.1c0.4,0,0.8-0.1,1.1-0.1s0.8,0,1.1,0
		c1.1,0,2.3,0.1,3.5,0.2c0.8,0.1,1.6,0.1,2.3,0.2c0.8,0.1,1.6,0.2,2.3,0.2c1.9,0.2,3.8,0.2,5.7,0c0.8-0.1,1.5-0.2,2.2-0.3
		c0.5-0.1,0.9-0.3,1.4-0.4s0.9-0.3,1.3-0.5c0.9-0.3,1.7-0.9,2.5-1.3c0.7-0.4,1.4-1,2-1.4c0.1-0.1,0.2-0.2,0.4-0.3
		c0.8-0.6,1.5-1.2,2.2-1.8c0.4-0.3,0.7-0.7,1-1c0.7-0.8,1.4-1.6,2.1-2.5c0.2-0.2,0.3-0.3,0.4-0.5c0-0.3,0-0.7,0-1l0,0c0,0,0,0,0-0.1
		l0,0c0-0.2,0-0.3,0-0.5l0,0c0-0.1,0-0.1,0-0.2l0,0c0-0.3,0-0.5,0-0.7l0,0c0-0.1,0-0.3,0-0.3l0,0c0-0.1,0-0.3,0-0.3l0,0
		c0-0.2,0-0.3,0-0.5l0,0c0-0.1,0-0.3,0-0.3l0,0c0-0.2,0-0.3,0.1-0.5c0-0.1,0-0.2,0-0.3c0-0.2,0.1-0.4,0.1-0.6c0-0.1,0-0.1,0-0.2l0,0
		c0-0.2,0.1-0.4,0.1-0.6c0-0.1,0-0.2,0-0.2c0.1-0.3,0.1-0.4,0.2-0.7c0,0,0,0,0-0.1c0.1-0.3,0.1-0.4,0.2-0.6c0-0.1,0-0.1,0.1-0.2
		c0.1-0.3,0.2-0.4,0.3-0.7c0.4-1.2,0.9-2.2,1.6-3.4c0.3-0.5,0.6-1,0.9-1.6c0.4-0.5,0.6-1,0.9-1.5c0.3-1,0.4-2.1,0.7-3.1
		c0.2-0.9,0.4-1.7,0.5-2.6c0.1-0.3,0.1-0.4,0.1-0.7c0-0.1,0-0.3,0.1-0.3c0-0.1,0-0.3,0-0.3c-0.1-0.5-0.1-1-0.3-1.5l0,0l0,0
		c0-0.1,0-0.1,0-0.2c-0.1-0.3-0.1-0.5-0.2-0.9c-0.1-0.4-0.3-1-0.4-1.4l0,0l0,0c0.6-1.2,1.2-2.4,2-3.5c0.3-0.3,0.5-0.8,0.8-1.1
		c0.5-0.6,0.9-1.3,1.6-1.8c0.5-0.6,1.1-1.1,1.7-1.6c0.6-0.5,1.2-1,1.9-1.5c0.2-0.1,0.4-0.3,0.5-0.3c0.2-0.1,0.4-0.2,0.5-0.3
		c0.4-0.2,0.7-0.3,1-0.5c4.5-2.1,9.2-2.1,13.9-0.9c0.1,0,0.4,0.1,0.6,0.2c0.1,0,0.3,0.1,0.4,0.1h0.1l-0.4-0.3l-1.8-1.4l-1-0.7
		c-0.7-0.4-1.3-1-2-1.4c-0.7-0.5-1.4-1-2.1-1.4s-1.4-0.8-2.1-1.2s-1.4-0.8-2.2-1.1c-0.7-0.3-1.5-0.7-2.2-1c-1.6-0.5-3.1-1-4.8-1.1
		c-0.7-0.1-1.5-0.1-2.2-0.1l0,0l0,0c0.1-0.1,0.2-0.3,0.3-0.3l0,0c0,0,0-0.1,0.1-0.1l0,0c-0.3,0-0.6,0-0.9,0l0,0l0,0
		c0.1-0.1,0.2-0.3,0.3-0.3c0.3-0.3,0.5-0.6,0.8-1c0.3-0.3,0.5-0.6,0.9-0.9c0.2-0.2,0.4-0.3,0.5-0.4c0,0,0,0,0.1-0.1
		c0.4-0.4,0.9-1,1.5-1.3c0-0.1,0.1-0.1,0.1-0.2l0,0v0.1c0.9-0.6,1.7-1.2,2.6-1.6c0.3-0.2,0.6-0.3,0.9-0.4c1.8-0.9,3.6-1.4,5.5-1.6
		c0.4,0,0.6-0.1,0.9-0.1c0.6-0.1,1.3-0.1,1.9-0.1c5,0.1,10,2.1,14.2,5.3l0,0c1,0.8,2.1,1.6,2.9,2.6l0,0c6.1,6.1,9.8,14.3,13.4,22.2
		c0.3,0.6,0.6,1.3,1.1,1.8l0,0c1.5,1,3.6,0.4,5.5,0.8c0.1,0,0.2,0,0.4,0.1C290.7,662.6,288,657,284.6,651.7L284.6,651.7z"/>
</g>
<g>
	<path class="st3" d="M519.1,223.2c1.5,1.6,2.7,3.3,4.1,4.8c0.1,0.1,0.2,0.2,0.3,0.3c0.4,0.4,1,0.6,1.5,0.9c2.9,1,5.5,2.6,8.1,4.1
		s5.3,2.3,8.3,2.2c3.6-0.1,7.3-0.4,10.7,0.8c2.2,0.8,3.9,0.2,5.8-0.9c1.4-0.8,2-1.7,1.9-3.2c0-0.3,0-0.5,0-0.7c0-0.6,0-1.2,0-1.9
		c0.1-4.1,0.2-8.3,0.3-12.4c0.2-3.4,1.2-6.5,2.7-9.5c0.4-0.9,1-1.6,1.4-2.5c0.7-1.7,1.1-3.5,1.2-5.1c0-1.7-0.4-3.4-1.4-5.1
		c-0.4-0.9-1-1.7-1.4-2.7c0,0,0-0.1-0.1-0.1c-5.2,0.7-10.2,2.9-13.9,6.6c-5.2,5.1-8.3,12.8-15.2,15.3c-2.2,0.8-4.4,0.8-6.7,0.3
		c-0.1,0.1-0.1,0.2-0.2,0.2l0,0c-0.1-0.1-0.2-0.1-0.3-0.2l0,0C524.2,217.5,521.9,220.6,519.1,223.2L519.1,223.2z"/>
	<path class="st3" d="M358,169L358,169h1c0,0-0.1-0.1-0.2-0.2c-0.3-1.4,0-3,0.3-4.4c0.5-2.9,1-5.7,1.6-8.6c0.4-1.4,0.4-2.7-0.2-4.1
		c-2.2-5.9-1.5-11.7,0.7-17.4c0.9-2.4,2.1-4.7,3.5-6.8c1.7-2.7,3.6-5.2,5.9-7.4c2.6-2.5,5.4-4.8,9.2-5.3c0.5-0.1,0.9-0.3,1.1-0.5
		l0.1-0.1c0.2-0.3,0.4-0.5,0.4-0.8c0.2-0.3,0.3-0.7,0.4-1c0.4-1.1,0.9-2.3,1.3-3.5c0.2-0.3,0.3-0.6,0.4-0.9c1-2.6,2.2-4.8,3.5-7
		c0.3-0.4,0.4-0.8,0.7-1.1c-0.1,0-0.1,0-0.1,0v0.1c-0.5-0.2-1.1-0.3-1.7-0.3c-2,0-4.2,0.9-6,1.9c-6.9,3.7-14.1,7.5-19.9,12.9
		S349.6,127,349,135C348.1,146.7,355.9,157.3,358,169L358,169z"/>
	<path class="st3" d="M359.2,170.2c-0.1-0.4-0.2-0.7-0.3-1.1C359,169.4,359.1,169.9,359.2,170.2z"/>
	<path class="st3" d="M263.3,148.4c2.6-2.5,5.4-4.7,8.2-6.9c7.9-6.5,14-14.1,17.3-23.8c1.2-3.5,2.5-7,3.9-10.5
		c0.9-2.2,1.7-4.4,2.9-6.4c2.4-4.4,6.1-7.4,11-8.9c2-0.6,3.9-1.4,5.9-2.1c2.8-0.9,5.5-1.8,8.5-2.1c0.2,0,0.4,0,0.5,0
		c0.4,0,0.9,0.1,1.2,0.1c0.1-0.1,0.1-0.1,0.2-0.2c0,0,0,0,0.1,0l0,0c1.7-2.1,3.5-4.2,5.1-6.1c0.1-0.1,0.2-0.2,0.3-0.3
		c-0.2,0.1-0.4,0.2-0.6,0.3c-6,2.8-12.9,2.2-19.3,0c-2.2-0.8-4.4-1.7-6.4-2.8c-3.4-1.6-6.6-3.6-9.9-5.6c-0.1,0-0.3,0-0.4,0
		c-1,0-1.8-0.1-2.8-0.1c-0.4,0-1,0-1.4,0c-1,0-1.9,0-2.8,0.1c-1.4,0.1-2.8,0.2-4.1,0.4c-10.5,1.6-20.4,5-30,9.4
		c-0.9,0.4-1.8,0.9-2.6,1.4c-6.7,4.6-13.5,9.1-19.4,14.9c-3,2.9-6.1,5.9-9.2,8.8c-1,0.9-2.1,1.9-3.1,2.8c-0.9,0.9-1.9,1.8-2.9,2.7
		c-2.9,2.7-5.6,5.5-8.2,8.5c-2.9,3.3-6.1,6.3-9.5,9.2c-6.9,5.7-13.8,11.5-21,16.9c-0.3,0.3-0.6,0.4-0.9,0.7
		c-0.4,0.3-0.7,0.5-0.9,0.9c-2.7,2.8-5.4,5.5-8.2,8.2c-2.8,2.8-5.4,5.5-8.2,8.3c-0.9,0.9-1.6,1.9-2.2,3c-0.2,0.4-0.4,0.8-0.5,1.1
		c-0.4,1.1-0.9,2.3-1.2,3.5c-0.1,0.4-0.2,0.8-0.3,1.2c-0.2,0.8-0.4,1.6-0.4,2.4c-0.1,0.8-0.1,1.6-0.1,2.4c0.2,3.7,0.2,7.4,0.4,11.1
		c0.2,2.2,0.3,4.5,0.2,6.6c0.1,2.2,0,4.5-0.3,6.7c-0.8,8.2-1.6,16.5-2.4,24.7c-0.1,0.9-0.2,1.9-0.3,2.8c-0.3,2.8-0.4,5.5-0.4,8.3
		c0,11.1,1.6,21.9,5,32.6c2.2,7.2,6.1,13,11.2,18c1.2,1.1,2.4,2.2,3.8,3.4c0.9,0.8,1.9,1.3,2.9,1.7c1.7,0.7,3.5,1,5.5,0.8
		c4.6-0.4,8.5-2.1,11.8-4.9c0.5-0.4,0.9-0.9,1.4-1.3c3.6-3.6,7.3-7.2,10.8-10.8c1.6-1.5,2.9-3.4,3.9-5.4c4.4-8.5,8.7-17,11.4-26.2
		c1.1-3.8,2.2-7.6,3.2-11.4c0.8-3.5,1.6-7.1,2.6-10.5c0.1-0.4,0.2-0.9,0.3-1.3c2.1-8.9,3.8-17.8,5.7-26.8c2.4-11.4,7.4-21.6,14.2-31
		c4.8-6.6,10.4-12.2,17.4-16.4C261.4,149.9,262.5,149.3,263.3,148.4z M234.7,169.6c-0.9,1.6-1.6,3.2-2.1,4.9c-0.5,2.1-1,4.1-1.8,6
		c-3.6,8.9-7.1,18-11.8,26.4c-0.3,0.4-0.4,0.8-0.6,1.1c-0.4,1.1-0.8,2.2-1,3.3c-0.1,0.3-0.1,0.4-0.2,0.7c-0.2,0.6-0.3,1.3-0.4,1.9
		c-1,4.9-2,9.9-3.1,14.8c-0.4,1.8-0.9,3.7-1.4,5.5c-2.5,9-5.5,17.9-9.6,26.3c-2.2,4-4.8,7.7-8,11c-2.3,2.3-4.9,4.1-7.9,5.4
		c-1.5,0.6-2.9,1-4.2,1.4c-4,1-7.8,0.5-11.3-1c-2.2-1-4.5-2.3-6.6-4.1c-0.9-0.8-1.8-1.7-2.5-2.8c-4-5.7-7.3-11.7-8.6-18.7
		c-1.6-9.4-1.7-18.7,0.5-28c1.2-4.8,2.9-9.5,4.8-14.1c0.9-1.9,1.3-3.9,1.2-6.1c-0.2-3.5-0.2-7.2,0.9-10.7c0.3-0.9,0.2-1.9,0-2.9
		c-0.4-1.7-0.7-3.5-0.9-5.3c-0.4-2.9,0.1-5.8,1.5-8.4c0.4-0.7,0.9-1.5,1.5-2c0.8-0.8,1.6-1,2.3-1c0.4,0,0.9,0.1,1.3,0.3
		c0.7,0.2,1.4,0.7,1.8,1.6c0.3,0.5,0.4,1,0.6,1.6c1.2,3.5,3.4,6.2,6.7,7.9c0.4,0.3,0.9,0.5,1.4,0.9c0.7-1.6,0.6-2.7,0.8-3.9
		c0.3-1.8,0.7-3.5,1.5-5.1c0.6-1.2,1.7-1.7,2.8-1.6c0.4,0,0.7,0.1,1,0.3c0.4,0.1,0.9,0.4,1.3,0.8c0.6,0.6,1,1.4,1.6,2
		c0.8,0.9,1.5,2,2.3,2.9s1.3,1.3,1.7,1.6c0.2,0,0.4,0,0.5,0h0.1c0,0,0,0,0.1,0c0.4-0.2,0.9-0.4,1.6-0.8c2.2-1.2,4.6-2,7-2.4
		c4.1-0.7,7.4-2.8,10.1-6c1.8-2.1,3.7-4.1,5.5-6.1c4-4.2,7.3-9,10.2-14.1c3.4-5.9,7.2-11.5,10.9-17.1c2.2-3.2,4-6.6,5.5-9.9
		c-0.2-0.3-0.4-0.5-0.6-0.7c-0.1,0-0.3,0-0.4,0c-0.3,0-0.5,0-0.8,0c-0.1,0-0.2,0-0.2,0c-2.4-0.2-4.7-0.7-6.8-1.7c0,0,0,0-0.1,0
		c-0.1-0.1-0.3-0.1-0.4-0.2c-3.8-1.8-5.2-4.9-3.9-8.9c1.8-5.6,4.8-10.2,10.4-12.8c2.1-1,4.2-2.1,6.4-2.9c4.1-1.5,8-2.9,12.2-4
		c7-1.7,13.7-4.1,20.4-6.8c1.8-0.8,3.6-1.3,5.4-2c0.8-0.3,1.6-0.4,2.6-0.4c0.3,0,0.6,0,0.9,0c0.5,0,1.1,0.2,1.6,0.3
		c3,0.8,5,3.9,4.1,7.1c-0.4,1.5-1.2,2.8-2.2,4c-4.4,5.3-7.7,11.1-10.6,17.3c-2.1,4.4-4.3,8.7-6.4,13c-2.2,4.7-5.5,8.4-10.2,10.5
		c-3.3,1.6-6,3.9-8.6,6.3C246.5,151.3,240.5,160.4,234.7,169.6z"/>
	<path class="st3" d="M817.5,150.9c-0.7-7.7-3.7-14.4-9.2-19.9c-2.8-2.8-5.7-5.4-8.7-7.8c-0.9-0.7-1.8-1.4-2.8-2.1
		c-3.2-2.3-6.6-4.4-10.1-6.2c-0.1,0-0.2-0.1-0.2-0.1c-6-3-12.1-6.1-18.2-9c-10.8-5.4-21.2-11.4-31.6-17.3c-2.3-1.3-4.6-2.6-6.9-3.8
		c-0.2-0.1-0.3-0.2-0.5-0.3c-1.9-1-3.7-2.2-5.4-3.3c-0.9-0.5-1.6-1.1-2.5-1.7c-2.8-2.1-5.5-4.2-8.1-6.7c-2.9-2.8-5.7-5.8-8.2-9
		c-4.4-5.7-9.3-11-14.2-16.1c-3.5-3.6-7.3-6.7-11.2-9.8c-1-0.7-1.9-1.3-2.8-1.8c-2.9-1.5-6-2.3-9.4-2.6c-1-0.1-1.9-0.1-2.9-0.2
		c-8.1-0.2-16.2,0.8-24.5,1c-0.3,0-0.5,0.1-0.9,0.1c-10.5,1.5-20.6,4.3-30.4,8c-1.4,0.6-2.8,1-4.1,1.7l0,0c-0.3,0.2-0.5,0.3-0.8,0.4
		l0,0c-0.1,0-0.1,0.1-0.2,0.1l0.3,0.1l8.3,4c0.3,0.2,0.7,0.3,1,0.4c0.1,0,0.2,0.1,0.3,0.1c0.2,0.1,0.4,0.2,0.6,0.3s0.3,0.1,0.5,0.1
		c0.6,0.2,1.3,0.3,2,0.5c0.3,0.1,0.5,0.1,0.7,0.2c0.1,0,0.1,0,0.1,0.1c0.1,0,0.2,0.1,0.3,0.1s0.2,0.1,0.3,0.1l0,0c0,0,0,0,0.1,0
		l0.1,0.1c0.6,0.3,1.1,0.7,1.6,1.1c0.5,0.5,1,1,1.3,1.6c0.2,0.3,0.3,0.6,0.4,1c0.3,0.6,0.4,1.2,0.4,1.8v0.3c0,0.5-0.1,1-0.2,1.5
		c-0.1,0.3-0.2,0.5-0.3,0.8l-1.4,4h0.1h0.1c0,0,0.1,0,0.2-0.1c0.7-0.3,4.5-1.5,6.8-2.1c3.2-0.8,6.5-1.5,9.8-2
		c1.7-0.3,3.6-0.3,5.4-0.3l0,0c4,0.3,7.9,0.8,11.6,1.5l0,0l0,0c3.7,0.6,7.5,1.5,11.2,2.6l0,0c3,1,6,2,8.7,3.5
		c2.8,1.4,5.4,3.1,7.7,5.2c7.2,6.2,14,12.9,19.3,20.9c2.7,4.1,5.4,8.1,8,12.1c4.2,6.2,8,12.5,11.5,19.2c2.4,4.7,5.1,9.2,8.2,13.4
		c6.3,8.7,11.1,18.2,14.2,28.4c2.7,8.3,5.4,16.6,8.5,24.7c1.8,4.8,3.9,9.4,6,14.1c3.6,7.9,9.2,14.3,16,19.8c2.6,2.2,5.4,3.5,8.6,4.5
		c0.7,0.2,1.4,0.4,2.1,0.6c0.3,0.1,0.4,0.1,0.7,0.2l0,0c3.8,0.5,6.9-0.7,9.8-4.8l0,0c1.1-1.6,1.9-3.4,2.7-5.2
		c2.2-4.9,4.3-9.9,6.4-14.9c3.7-8.6,7-17.4,9.9-26.4c0.9-2.8,1.6-5.6,2.3-8.4C817.7,163.3,818.1,157.1,817.5,150.9z M809.8,180.2
		c-1,2.4-2,4.8-3.1,7.2c-0.7,1.5-1.5,2.9-2.5,4.3c-2.9,3.9-5.9,7.7-8.9,11.5c-0.6,0.8-1.3,1.5-1.9,2.2c-6,7-17.9,7.2-24.3-0.3
		c-0.3-0.4-0.7-0.9-1-1.3c-1-1.4-1.9-2.9-2.8-4.2c-0.5-0.8-1-1.6-1.5-2.3c0,0-0.1-0.1-0.1-0.2c-0.3-0.5-0.6-1-1-1.6
		c-0.2-0.3-0.3-0.6-0.5-0.9c-0.1-0.3-0.3-0.4-0.3-0.7c-0.1-0.2-0.2-0.4-0.3-0.5c-0.3-0.5-0.5-1-0.8-1.6c-0.3-0.4-0.5-0.9-0.8-1.5
		c-1-2-2.2-3.8-3.6-5.5c-0.7-0.8-1.3-1.6-1.9-2.4c-3.8-5.1-6.7-10.6-8.8-16.5c-1.1-3.1-2.1-6.3-2.8-9.6c-1.7-7.3-2.9-14.6-4.9-21.8
		c-0.3-0.9-0.5-1.8-0.8-2.8c-0.7-2.1-1.1-4.3-2-6.3c-0.2-0.3-0.3-0.5-0.4-0.7c-1.1-1.5-3.1-2.1-4.5-3.4c-1.3-1.1-2.7-2.3-3.9-3.5
		c-3.7-3.6-6.9-7.7-8.9-12.6c-0.9-2.2-1.7-4.4-1.9-6.7c-0.1-1.4-0.6-2.6-1.5-3.7c-0.1-0.1-0.1-0.2-0.2-0.3c-0.5-0.6-1-1.2-1.5-1.9
		c-0.3-0.5-0.5-0.9-0.6-1.4c0-0.2-0.1-0.3-0.2-0.5c0-0.1-0.1-0.2-0.1-0.3c-0.2-0.6-0.5-1-0.9-1.5c-0.9-0.9-2-1.6-3.2-2.3
		c-0.4-0.3-0.8-0.4-1.2-0.7c-0.6-0.3-1.1-0.8-1.7-1.2c-0.2-0.1-0.3-0.3-0.4-0.3c-0.3-0.3-0.6-0.5-0.9-0.9c-0.1,0-0.1,0-0.2-0.1
		c-0.7-0.8-1.5-1.6-2-2.6c-0.3-0.7-0.5-1.3-0.5-1.9c-0.1-1.6,1.1-2.8,3.1-2.8c0.6,0,1.2,0.1,1.8,0.2c0.4,0.1,0.8,0.2,1.2,0.3
		c0.2,0.1,0.4,0.1,0.6,0.2c2.3,0.7,4.4,1.7,6.4,3.1c1.1,0.8,2.2,1.7,3.2,2.8c1.3,1.3,2.7,2.3,4.2,3.2c4,2.1,7.6,4.4,10.5,7.9
		c3.4,3.9,7.3,7.1,11.3,10.3c2.2,1.7,4,3.8,5.8,5.9c2.8,3.2,5.9,6.2,8.9,9.2c5.3,2.8,9.1,7.6,13.7,11.2c0.7,0.5,1.4,1,2.1,1.5
		c4.8,3.3,10.2,5.7,15.5,8c1.1,0.4,2.4,0.6,3.6,0.8c2.7,0.4,2.7,0.4,3.1-2.6c0.4-2.6,1.8-3.5,4.4-2.9c1.8,0.4,3.4,1,4.8,2
		c1.4,0.9,2.6,2.2,3.5,3.9c3.5,6.3,5.4,13,5.2,20.3c0,0.4,0,0.9,0,1.3C813.8,168.7,812,174.5,809.8,180.2z"/>
	<path class="st3" d="M316.5,315.5c-0.4-0.4-0.7-0.9-1-1.3c-3.5-4.3-7.3-8.3-9.6-13.4c-0.1-0.1-0.2-0.3-0.3-0.4
		c-0.4-0.4-0.8-0.7-1.2-0.8c-0.2,0-0.3,0-0.4,0c-0.2,0-0.4,0.1-0.5,0.1c-0.9,0.2-1.5,0.4-1.9,0.8c-0.8,0.7-0.7,1.8,0.4,3.5
		c0.4,0.6,0.7,1.2,1.1,1.7c1.4,2.1,2.9,4.1,4,6.2c3.4,6.1,8.3,11,13.4,15.6c4.7,4.3,11.1,5.9,17.7,5.9c7.6,0,15.5-2,21.7-4
		c1.5-0.5,3.1-1.2,4.4-2.9c0.2-0.2,0.3-0.4,0.4-0.6c-1.1,0.4-5.2,0.5-6,0.6c-2.4,0.4-4.8,0.7-7.3,1c-2.3,0.3-4.7,0.4-7.1,0.4
		c-2.3,0-4.8-0.2-7-0.5C329.1,326.1,322,321.7,316.5,315.5z"/>
	<path class="st3" d="M523,268.9c1.4,0.4,2.7,0.8,3.9,1.5c0.8,0.4,1.5,0.9,2.2,1.5c0.8,0.7,1.5,1.2,2.4,1.6s1.8,0.8,2.8,1.1
		c2,0.7,3.9,1.5,5.7,2.4c3,1.5,5.8,3.5,8.2,6c0.6,0.6,1.1,1.1,1.8,1.4c0.7,0.4,1.5,0.5,2.3,0.5c0.1,0,0.2,0,0.2,0
		c2.1,0,4.1,0.3,6,0.7c0.8,0.2,1.5,0.3,2.3,0.4c2.8,0.6,5.4,1.1,8,1.6c0.8-1.2,0.3-2.5,0.4-3.7c0.1-0.6-0.2-1.1-0.6-1.5
		c-2.2-2.1-4-4.4-6.8-6c-3.5-1.8-6.7-4.2-9.8-6.9c-2.6-2.3-4.8-5.1-5.2-8.6c-0.3-2.6-1.5-4.4-3.5-5.9c-5.5-4.1-10.7-8.7-16.8-12.2
		c-1.8-1-3.5-2.2-5-3.7c-1-1-2.2-1.6-3.5-2.2c-5.4-2.9-11.3-3.9-16.9-6.1c0,0-0.1,0-0.1-0.1h-0.1c-0.1,0-0.1-0.1-0.2-0.1h0.3
		c-0.4,0-0.8-0.1-1.1,0c-2.3,0.6-4.6,1.3-6.4,2.9c-1.3,1-2,2.2-1.5,4c0.8,3.6,0.4,7.2-0.4,10.7c-0.1,0.4-0.2,0.8-0.3,1.2
		c-0.1,0.5,0.1,0.8,0.4,1c0.1,0,0.2,0.1,0.3,0.1c0.2,0.1,0.4,0.1,0.6,0.2c1.6,0.4,3.3,0.6,5,0.5c0,0,0,0,0.1,0
		c4.2-0.3,8,1.6,11.8,3.1c0,0,0,0,0.1,0c0,0,0.1,0,0.1,0.1c0.2,0,0.2,0.4,0.5,1.1h-0.1H510c-2.9-0.2-5.4,0.7-8,0.9
		c-1.3,0.1-2.3,0.4-3.3,1.5c-1.5,1.6-3.4,2.7-5.4,3.3c-1.1,0.4-2.2,0.5-3.5,0.6c-0.2,0-0.3,0-0.4,0c-2.8,0.3-5.5,0.4-8.3,0.5
		c-0.1,0-0.1,0-0.1,0c-1.2,0.1-2.5,0-3.6-0.5c-0.9-0.4-1.5-0.6-2.1-1c-2.5-1.3-2.2-2.3,0.4-5.2c1-1,2.1-1.8,3.1-2.7
		c0.4-0.4,1-0.7,1-1.3c0-2.9,0.4-5.8-0.9-8.6c-1.4-3.1-2.5-4.8-4.2-5.5c-0.8-0.4-1.7-0.5-2.9-0.5c-0.9,0-1.8,0.1-2.9,0.2
		c-1,0.1-2.1,0.3-3.1,0.3c-0.4,0-0.8,0-1.1-0.1c-0.3-0.1-0.5-0.1-0.8-0.1c-1.8-0.1-3.5,0.6-5,1.6c-1.9,1.3-3.9,2.7-5.8,4
		c-3,2.2-6.3,4.1-8.2,7.4c-0.3,0.4-0.5,0.7-0.9,0.9c-1.7,1.4-2.9,3.3-4.1,5.1c-1.2,1.8-2.4,3.5-4.1,5.7c1.6-0.3,2.9-0.4,4.1-0.6
		c1-0.2,1.8-0.3,2.7-0.2c1,0,1.8,0.2,2.8,0.4c0.5,0.2,1,0.4,1.5,0.6c3.2,1.6,3.9,5.4,1.4,8.3c-2.3,2.3-5,4.4-8.3,4.8
		c-0.3,0.1-0.4,0.1-0.7,0.1c-0.5,0-1,0-1.6-0.1c-0.3,0-0.4,0-0.7,0c-1.5,0-2.9,0.8-3.9,2.1c-2.2,2.5-4.4,4.9-6.6,7.4
		c-2.8,3.2-5.5,6.5-9.8,8c-1,0.4-1.8,1.2-2.6,2c-2.4,2.5-5.1,4.6-8,6.5c-6.7,4.3-12,10.2-17,16.2c-1.5,1.8-2.7,3.9-3.9,5.9
		c-3.4,5.5-5.9,11.6-8.4,17.5c-0.9,2-1.2,4-1,6c0.3,3.3,0.4,6.6,1,9.9c1,6.2,0.1,12.1-2.2,17.9c-0.6,1.4-1.3,2.8-1.5,4.3
		c0.8-0.4,1-1.4,1.4-2c1.7-3.6,3.4-7.3,4.3-11.1c1-4,2.1-8,3.1-12c2.9-11.1,7.3-21.3,14.1-30.7c3.8-5.2,8.1-9.8,14.2-12.4
		c2.3-1,4.2-2.7,5.6-4.8c2.4-3.5,5.3-6.7,8-10c8.2-9.8,18.5-16.4,30.7-20.1c1.5-0.4,2.9-1,4.1-1.9c1.5-1.1,3.3-2,5.2-2.5
		c2.8-0.8,5.5-1.6,8.4-2.3c7-1.7,14.1-2.8,21.3-2.7h0.1c5.7,0,11.3,0.1,17,0.3C514.9,267.1,518.9,267.9,523,268.9z"/>
	<path class="st3" d="M318.4,255c-6.6,4.8-11.7,10.5-16.1,17c-1.2,1.8-2.3,3.7-3.4,5.6c-1.3,2.2-1.8,4.7-1.8,7.2
		c0,3.7,1,4.8,4.6,5.6c0.4,0.1,0.8,0.2,1.2,0.3c0.4,0.1,0.6,0.1,0.8-0.1c0.1,0,0.2-0.1,0.2-0.1c0.1-0.1,0.2-0.3,0.2-0.4
		s0-0.3-0.1-0.4c-0.6-1.5-0.9-2.9-0.9-4.2c-0.1-2.9,1-5.8,2.6-8.6c0.8-1.5,1.5-2.9,2.5-4.2c2.8-3.8,5.7-7.4,8.5-11.1
		c1.1-1.4,2.4-2.7,3.8-3.7c0.3-0.2,0.5-0.4,0.8-0.6c2.3-1.6,4.7-3.1,7.1-4.7C324.8,251.8,321.5,252.7,318.4,255z"/>
	<path class="st3" d="M490.6,419.2c-0.3,0-0.5,0.2-0.7,0.4c-0.3,0.4-0.5,0.7-0.7,1c-1.7,3.7-4.8,6.1-8.4,7.7c-2,0.9-4.1,1.6-6.2,2.2
		c-2.2,0.7-4.6,1.2-6.8,1.8c-4.6,1.3-8.7,3.3-12,6.9c-4.2,4.8-8.5,9.4-12.7,14.2c-1.9,2.2-4,4.4-6,6.6c-2.7,2.7-5.4,5.3-8.3,7.8
		c-2.1,1.8-4.2,3.5-6.3,5.3c-0.8,0.6-1.5,1.3-2.2,2c-5.3,5.1-11.5,9-17.6,13c-6.7,4.4-14.2,6-21.9,6.6c-1.1,0.1-2.2-0.1-3.3-0.4
		c-7.1-2.2-13.7-5.2-19.6-9.7c-10-7.7-17.8-17.3-23.7-28.4c-0.4-0.7-0.8-1.4-1-2.2c-2.4-5-3.8-10.5-4.3-16l0,0
		c-0.1-0.4-0.1-0.9-0.1-1.3l0,0l0,0c-0.1-5.4,1.8-10.1,5.6-14c2-2.2,4.4-3.7,7.1-5c2.5-1.2,4.9-2.5,7.3-3.8c0.5-0.3,1.1-0.4,1.2-1.1
		c0,0,0,0,0-0.1v-0.1c-3.1-1-5.9-0.1-8.5,1.5c-2,1.2-4.1,2.3-6,3.5c-4,2.4-7.2,5.6-10.1,9.2c-2.3,2.9-3.8,6-4.1,9.8
		c-0.2,2.4-0.3,4.8-0.3,7.3c0,3.6,1,6.9,3.4,9.9l0,0c4.4,5.6,7.1,12.2,8.8,19c0.1,0.3,0.2,0.5,0.2,0.8c0.1,0.5,0.3,1,0.4,1.5
		c0.1,0.4,0.2,0.6,0.3,1c1,3.5,2.8,6.6,5.4,9.2c4.5,4.3,9.4,8.1,14.8,11.2c4.4,2.6,9.1,4.8,14.4,4.4c1.1-0.1,2.2,0.2,3.2,0.7
		c1.6,0.9,3.5,1,5.3,0.9c1.6-0.1,3.3-0.1,5-0.2c14.9-0.4,27.6-6.2,38.2-16.5c4.2-4.1,8.3-8.3,12.3-12.7l0,0c1.5-1.6,3-3.4,4.4-5.1
		l0,0c0.2-0.3,0.4-0.4,0.6-0.7c7.6-9.1,16.7-16.5,26.9-22.5c1-0.5,2-1.1,2.8-1.9c1.1-1,2.2-1.4,3.7-1.3c2.2,0.1,4.4-0.6,6.2-1.9
		c4.9-3.5,9.2-7.5,12.1-12.8c1.2-2.1,1.6-4.2,1.7-6.5c0-0.3,0-0.4,0-0.7C491,419.5,490.8,419.2,490.6,419.2z"/>
	<path class="st3" d="M450.4,418c0.1,0,0.2,0,0.4-0.1c0.2-0.1,0.2-0.1,0.3-0.2c1.6-1.2,3.5-2.2,5.4-3c1-0.4,1.9-0.7,2.9-1
		c1.1-0.4,2.2-0.9,3.3-1.3c1-0.4,2.1-0.8,3.1-1.1c2.3-0.8,4.5-2,6.5-3.5c0,0,0.1,0,0.1-0.1s0.1,0,0.1-0.1c0,0,0.1,0,0.1-0.1
		c1.6-1.4,2.7-3,2.8-4.9c0-2.8-1.5-4.6-4-4.8c-0.7-0.1-1.5-0.1-2.3,0.1c-0.1,0-0.2,0-0.2,0c-4,0.9-7.5,2.5-10,6
		c-2.8,3.8-5.4,7.6-8.6,11.1c-0.2,0.2-0.3,0.4-0.4,0.6s-0.2,0.4-0.2,0.6c-0.1,0.4,0.2,1,0.5,1.5C450,418,450.2,418,450.4,418z"/>
	<path class="st3" d="M529.6,399.9c-1-0.4-2.1-0.8-3.1-1c-1.1-0.3-2.1-0.6-2.9-1.4c-2.6-2.2-5.5-2.7-8.7-2.7l0,0c-0.4,0-1,0-1.4,0
		c-1.4,0.1-2.8,0.4-4,1.1c-0.4,0.3-0.7,0.5-1,0.8c-2.1,2-1.8,5.1,1,6.6c1,0.6,2.2,1,3.5,1.2c4.2,0.8,8.4,1.5,12.4,2.9
		c0.8,0.3,1.5,0.4,2.4,0.4h0.1c1.1,0.1,2.2,0.1,3.1,0.1c0.1,0,0.1,0,0.1,0c1.3-0.1,2.1,1.3,3.6,1.2c-0.4-1.8-0.9-3.3-1.2-4.8
		C532.9,402.2,531.5,400.8,529.6,399.9z"/>
	<path class="st3" d="M660.4,425.6c0.1-0.4-0.2-1-0.6-1.2l0,0c-1,0.5-1.1,1.5-1.4,2.4c-1.9,6.6-4.4,13-7.3,19.4
		c-3.7,8.4-8.3,16.2-14.9,22.7c-2.2,2.1-4.4,3.8-6.9,4.9c-0.1,0-0.1,0-0.2,0.1c-0.6,0.3-1.1,0.5-1.7,0.7c-0.3,0.1-0.5,0.2-0.8,0.3
		c-1.7,0.5-3.5,0.9-5.4,0.9c-0.9,0-1.7,0-2.6-0.2c-1-0.1-2-0.1-2.9-0.1c-4.6-0.2-9.2-0.4-13.7-1.1c-1.5-0.3-3-0.6-4.5-1
		c-4.4-1.2-8.5-3.3-11.9-6.6c-4.8-4.7-9.7-9.1-14.5-13.6c-3.2-3-6.3-6.1-9.7-9.1c-2.2-1.8-4.3-3.5-6.6-5.3l0,0
		c-5.8-4.3-11.8-8.2-18-11.7l0,0c-0.4-0.3-0.9-0.4-1.3-0.7c-1.5-0.8-3.2-1.5-4.8-1.9c-2.4-0.6-4.8-1-7.2-0.8
		c-1.5,0.1-2.8,0.3-4.3,0.7c-1.2,0.4-2.2,0.5-3.4,0.5c-1,0-2.1-0.2-3.1-0.5c-1.2-0.4-2.4-1-3.5-1.9l0,0c-0.4-0.4-0.9-0.6-1.3-0.9
		l0,0c-1.5-0.9-3.2-1.5-4.8-2.3c0,0-0.1,0-0.2,0c-0.2,0-0.4,0.1-0.5,0.2c-0.2,0.1-0.4,0.5-0.3,0.7c0.3,1,0.7,2.1,1,3.1
		c1.1,2.9,2.9,4.8,5.4,6.1l0,0c0.7,0.3,1.3,0.5,2.1,0.8l0,0c2.9,0.9,5.9,1.4,8.9,1.6c4.2,0.4,8.3,0.8,12.2,2.3c2.4,1,4.8,2,7.1,3.1
		s4.6,2.4,6.7,3.9c6,4,11.6,8.4,17.1,13c8.2,6.7,16.1,13.7,24.5,20c1.9,1.5,3.9,2.9,5.9,4.1c1.2,0.8,2.3,1.6,3.5,2.3
		c0.4,0.3,0.7,0.5,1,0.8c1.6,1.3,3.5,2.2,5.4,3s3.9,1.2,5.9,1.4c5.1,0.4,9.9,0,14.5-1.4s8.8-3.8,12.7-7.2c2.9-2.6,5.6-5.3,8-8.4
		c3-4,6.1-7.9,9.1-11.8c2.4-3.4,4.3-7.1,5.4-11.1C660.6,439.3,661.2,432.5,660.4,425.6L660.4,425.6z"/>
	<path class="st3" d="M437.8,524c-1.2-0.3-2.4-0.7-3.6-0.3c-0.4,0.2-0.6,0.2-0.9,0.2c-0.8-0.1-1.4-0.5-2-1.2
		c-1.1-1.2-2.2-2.4-3.4-3.6c-0.2-0.3-0.4-0.3-0.7-0.3c-0.4,0-0.8,0.2-1.1,0.5c-0.6,0.7-0.8,1.5-0.9,2.2c0,0.2,0,0.4,0,0.6
		c0.1,1.6,0.6,3,1.5,4.4c1.2,1.9,2.1,3.9,2.9,6c1,2.7,2.6,5.2,5.1,6.8c2.7,1.7,5.4,3.4,8,5c0.2,0.1,0.4,0.1,0.6,0.1
		c0.1,0,0.2,0,0.2,0c0.2,0,0.3-0.2,0.4-0.3s0.1-0.2,0.1-0.3l0,0c0-0.1,0-0.3,0-0.3c-0.3-1.5-0.4-3.1-0.4-4.8c0-1.6,0.3-3.2,0.8-4.8
		c0.1-0.3,0.1-0.5,0.1-0.8c0-0.2,0-0.3,0-0.3C444.6,527.8,442.6,525.2,437.8,524z"/>
	<path class="st3" d="M288.6,419.2c0.4-0.9,0.5-1.8,0.8-2.8c2.2-7.6,6.4-13.7,13.1-18c3.6-2.3,7.5-4.1,11.4-5.8
		c5.7-2.5,11.4-5,17-7.6c4.9-2.2,9.6-5,13.6-8.7c4.7-4.3,9.2-8.9,12.5-14.3c1.3-2.2,2.9-4.4,3.7-6.8c-8.5,8-18.8,12.8-29.9,15.8
		c-3.9,1-7.9,1.5-11.9,0.8c-2-0.4-4.1-0.5-6.1-0.8c-1.2-0.2-2.5-0.1-3.7-0.3c-1.2-0.2-2.2-0.7-2.8-1.5c-0.8-0.5-1.3-1.4-1.6-2.3
		c-0.1-0.4-0.2-0.8-0.2-1.1c0-1,0.5-2,1.4-2.8c0.4-0.4,1-0.6,1.2-1.2c-0.2-0.1-0.3-0.2-0.4-0.3c-2.2-1.3-4.2-2.9-6-4.5
		c-4.8-4.4-8.2-9.9-10.7-16.1c-2.7-6.5-4.2-13.4-4.8-20.5c-0.4-5.4-1.5-10.6-3.5-15.7c-0.6-1.5-1.3-2.5-2.3-3.3
		c-0.7-0.5-1.5-0.9-2.5-1.1c-2.3-0.6-4.2-1.7-5.7-3.3c-0.4-0.4-0.7-0.8-1.1-1.2c0,0-0.1-0.2-0.2-0.2c-0.3-0.4-1-1.8-1.2-2.2
		c0-0.1,0.1,1,0.1,1v0.4l0,0c-0.1,1.2-0.1,2.4-0.1,3.6l0,0c0,1.7,0.1,3.5,0.2,5.3c0,0.1,0,0.2,0,0.3c0.1,1.1,0.2,2.3,0.4,3.5
		c0.2,1.7,0.4,3.5,0.7,5.2c0,0.2,0.1,0.4,0.1,0.5c0.2,1.1,0.4,2.2,0.5,3.4c0.4,1.8,0.6,3.6,1,5.4c0.1,0.6,0.3,1.2,0.4,1.8
		c1,4.8,1.9,9.6,2.8,14.4c0.4,2.1,0.8,4.1,1.2,6.1c0.9,4.7,1.8,9.2,2.7,13.9c1.4,3.7,2.8,7.4,4.1,11.1c0.4,0.9,0.6,1.7,1,2.6
		c6.6,3.2,13.2,6.4,19.9,9.6l0,0c-21.5,0.1-40.3,18-45.4,39c-1.3,5.2-1.8,10.5-1.6,15.9v0.1c0,1.3,0.1,2.5,0.2,3.8
		c0.1,0.8,0.2,1.5,0.3,2.4c0.2,1.1,0.3,2.2,0.5,3.4c0,0.3,0.1,0.4,0.1,0.7c0.2,1,0.4,2.1,0.6,3.2c0.1,0.3,0.2,0.6,0.2,0.9
		c1.4,6,3.5,12,6.3,17.6c0.3,0.6,0.6,1.2,0.9,1.8c2,3.9,4.3,7.7,6.8,11.2c0.3,0.4,0.4,0.6,0.7,1c1.3,1.8,2.6,3.5,4,5.2
		c0.4,0.4,0.6,0.8,1,1.1c2.6,3.1,5.4,6.1,8.3,9c0,0,0,0,0.1,0.1c3,2.9,6.1,5.8,9.3,8.5c0.1,0,0.2,0,0.3,0c1.3-0.1,2.5-0.4,3.7-1.1
		c1-0.5,2.1-0.8,2.9-1.1c0.2-0.5,0.3-1,0.3-1.4c0.1-1.3-0.4-2.3-1.1-3.1c-0.4-0.3-0.8-0.5-1.3-0.8c-1.8-0.9-3.5-1.9-4.9-3.1
		c-1.8-1.4-3.4-3-4.8-4.9c-1.7-2.3-3.4-4.8-5-7.1c-0.9-1.3-1.4-2.6-1.5-4.2c-0.9-7.7-1.5-15.4-1.6-23.1c0-2.6,0.1-5.2,0.3-7.7
		C283.5,438.4,285,428.6,288.6,419.2z"/>
	<path class="st3" d="M691.3,215.6c1.6,0.9,3.2,2.2,4.5,3.4l0,0c0.2,0.2,0.3,0.3,0.4,0.4c-10.4-16.8-26.6-30.1-45.3-36.4
		c-1.3-0.4-2.6-0.9-3.9-1.2c-5.1-1.4-10.5-2.3-15.7-2.6c0.2,0.1,0.3,0.2,0.4,0.2c0.1,0,0.1,0.1,0.2,0.1c6.7,3.2,13.3,6.9,19.7,10.6
		c5.2,2.9,9.3,7,11.9,12.4c1.3,2.7,3.1,4.1,5.9,4.6c0.4,0.1,0.8,0.2,1.2,0.3C677.9,209.2,684.8,211.9,691.3,215.6L691.3,215.6z"/>
	<path class="st3" d="M691,327.9c3.1,0.7,6.3-0.1,9.1-1.8c2.8-1.7,5.4-4.5,6.8-7.5c2.9-6,2.8-13,2.8-19.8
		c-0.1-6.9-0.2-13.7-0.3-20.6c-0.2-11-0.3-22-2.6-32.8c-1-5.1-2.7-10-4.8-14.8c0.3,1.8,0.8,3.5,1.1,5.3c1,5.6,1.2,11.2,0.4,16.7
		c0,0.2-0.1,0.4-0.1,0.5c-0.3,1.6-0.6,3.3-1,4.9c-0.6,2.4-1.5,4.8-2.5,7.1c-1.2,2.9-2.7,5.4-4.9,7.6c-1.9,1.7-3.3,3.7-4.2,5.9
		c0,0,0,0,0,0.1c-0.2,0.5-0.4,1-0.5,1.6c-0.4,1.7-0.6,3.5-0.4,5.4c0.1,1,0.1,2,0.1,2.9c0.2,3.8-0.3,7.4-1.2,11.1
		c-0.3,1.2-0.7,2.4-1.1,3.5c-2.4,6.8-5.8,13.2-9.6,19.3c-1.5,2.3-3.3,4.4-5.3,6.4c-0.1,0.1-0.2,0.2-0.3,0.2c-0.6,0.4-1.3,1-1.5,1.8
		l0,0c0.2,0.2,0.4,0.4,0.7,0.6l0,0c1,0.6,1.5,1.4,1.9,2.3l0,0c0.9,1.5,1,3.5,0.2,5.1c-0.6,1.4-1.9,2.5-3.8,2.9
		c-2.8,0.7-5.4,1-8.2,0.7c-1.5-0.2-3-0.3-4.5,0.1l0,0c-0.3,0.1-0.5,0.4-0.6,0.7c0.5,0.5,1.1,1,1.7,1.5c0.3,0.3,0.7,0.4,1.1,0.6
		c0,0,0,0,0.1,0c1.3,0.5,2.5,1.1,3.6,1.9c4.2,2.9,9,4.8,14,6c1.2,0.3,2.2,1,3.5,1.4c1.5,0.7,2.4,1.9,3.2,3.4
		c0.2,0.3,0.3,0.5,0.4,0.9c0.9,2.1,1.1,4.2,1.2,6.5c0,0.7,0.2,1.3,0.4,1.8c0.6,1,1.4,1.9,2.1,2.9c1,1.4,2.5,0.9,3.8,1.1
		c0.4,0.1,0.9,0.1,1.2,0.2c5.3,0.8,9.6,3.2,12.8,7.7c1,1.4,1.9,2.9,2.6,4.3c2.2,4.1,3,8.7,2.6,13.6c-0.3,2.9-0.4,5.8-0.5,8.7
		c0,0.4,0,0.7,0,1c0,2.3,0.4,4.5,1.5,6.6l0,0l0,0c0.4,0.7,0.8,1.5,1.1,2.2l0,0c2.3,4.6,4.1,9.3,5.2,14.3c2.8,12.5,3.7,25.1,1.5,37.7
		c9.6-11.9,14.8-27,16.5-42.2C740.5,387.7,722.3,348.7,691,327.9z"/>
	<path class="st3" d="M604.5,506.9c-0.8-0.3-1.6-0.4-2.5-0.4c-0.3,0-0.5,0-0.8,0l0,0c-1.7,0.1-3.2,1-4,2.4l0,0
		c-0.2,0.4-0.3,1-0.4,1.5c-0.3,2.2,1.1,4.3,3.3,5.2c0.3,0.1,0.4,0.2,0.7,0.2c0.3,0.1,0.6,0.2,1,0.2c0.3,0,0.5,0.1,0.8,0.2
		c0.5-0.1,1.1-0.2,1.6-0.3c1.6-0.4,2.9-1.4,3.5-2.7c0.2-0.4,0.3-0.9,0.3-1.4C608.3,509.5,606.9,507.4,604.5,506.9z"/>
	<path class="st3" d="M593.3,528.1c0-0.2,0-0.3-0.1-0.4c-0.1-0.3-0.1-0.5-0.2-0.8c0-0.1-0.1-0.2-0.1-0.3s-0.1-0.3-0.1-0.3
		c0-0.1-0.1-0.2-0.1-0.3c-0.1-0.1-0.1-0.3-0.2-0.3c-0.3-0.7-0.6-1.4-1-2c-0.3-0.6-0.9-1.1-1.3-1.5c-0.5-0.4-1-0.9-1.5-1.1
		c-3.4-1.9-6.8-0.4-7.7,3.3c-0.3,1.4-0.7,2.6-1.2,3.9c-0.4,1.3-0.5,2.7-0.6,3.4c0,4.2,0.8,6.6,2.6,8.2s4.2,1.8,6,0.2
		c2.9-2.7,4.9-5.9,5.5-9.8v-0.1c0-0.3,0.1-0.5,0.1-0.8V529l0,0c0-0.1-0.1-0.2-0.1-0.3C593.3,528.5,593.3,528.3,593.3,528.1z"/>
	<path class="st3" d="M586.8,247.2L586.8,247.2c0.3-0.5,0.6-0.9,0.9-1.4c2-2.9,4.1-5.7,6.3-8.4c1.5-1.8,2.9-3.6,4.6-5.4
		s3.2-3.4,4.9-5c0.9-0.8,1.7-1.6,2.6-2.3c0.3-0.2,0.4-0.4,0.7-0.6l0,0c0.4-0.5,0.9-0.9,1.2-1.5l0,0l0,0c0.2-0.3,0.3-0.5,0.4-0.8
		c0.1-0.4,0.2-0.7,0.3-1c0-0.3-0.1-0.6-0.3-0.8c-0.5-0.8-1.3-1-2.2-0.9c-1.6,0.3-3,1.3-4.3,2.2c-3.9,2.9-7.5,6.1-10.7,9.7
		c-4.2,4.8-7.9,10.2-10.1,16.4c-0.4,1.3-0.9,2.5-1,3.9c0,0.2,0,0.3,0,0.4c0.1,0.4,0.1,1,0.3,1.6c0.1,0.4,0.4,0.8,0.7,0.9
		c0.5,0.3,1.1,0,1.5-0.5c0.5-0.7,0.9-1.4,1.3-2.1c0.5-0.8,1-1.5,1.5-2.2C585.8,248.6,586.3,247.9,586.8,247.2z"/>
	<path class="st3" d="M631,300.3c-1.1,0-2.3-0.1-3.5-0.2c-0.6-0.1-1.2-0.1-1.8-0.2s-1.2-0.2-1.8-0.3c-5.3-0.8-10-3-14.5-5.8
		c-0.3-0.2-0.7-0.4-1-0.6c-2.1-1.2-4.2-2.3-6.5-3.2c-0.9-0.4-1.7-0.7-2.6-1c-0.7-0.3-1.5-0.5-2.2-0.8c-1.7-0.6-3.5-1.2-5.3-1.9
		c-0.4-0.2-0.9-0.4-1.3-0.6c-1.3-0.6-2.6-1.3-3.8-2.1c0,0-0.1,0-0.1-0.1c-0.1,0-0.1-0.1-0.2-0.1h-0.1c-0.1,0-0.1,0-0.2,0
		c-0.4,0-0.9,0.4-1,0.8c-0.2,1.5,0.2,2.8,1.1,3.7c0,0,0.1,0,0.1,0.1c0.1,0.1,0.3,0.3,0.3,0.4c3.5,2.6,6.7,5.7,10.6,8
		c0.3,0.2,0.7,0.4,1.1,0.6c0.6,0.4,1.2,0.7,1.7,1c0.7,0.4,1.4,0.8,2.1,1.1c1.3,0.7,2.7,1.4,4,2c0.6,0.3,1.2,0.6,1.9,0.9
		c0.8,0.4,1.5,0.7,2.3,1c0.5,0.3,1.1,0.4,1.6,0.7c0.4,0.2,0.9,0.4,1.3,0.5c0.5,0.2,1,0.4,1.6,0.6s1.1,0.4,1.7,0.6
		c1.1,0.4,2.3,0.8,3.5,1.1c4.5,1.3,9.1,2.2,13.7,2.6c1.5,0.1,2.9,0.3,4.4,0l0,0c0.2,0,0.3-0.1,0.4-0.1c7.9-2.3,14.9-4.2,20-11
		c2-2.5,3.6-5.4,5.4-8.1c1.6-2.8,3.9-5.3,5.1-8.2c1.2-2.9,1.4-6.1,1.9-9.2c0.2-1.1,0.4-2.2,0.1-3.3c-0.1,0-0.2,0-0.3,0
		c-0.4,0-0.8,0.3-1.1,0.5c-1,0.9-1.4,2.1-1.9,3.2c-1.5,3.5-3.1,7.1-5.1,10.4c-0.9,1.5-5.4,6.9-6,7.4c-2,1.5-4.1,2.9-6.1,4.2
		C644.5,298.8,637.9,300.4,631,300.3L631,300.3z"/>
	<path class="st3" d="M665.8,216.2c-2.8-1.7-5.5-3.2-8.5-4.5c-1-0.4-2-0.9-2.9-1.2c-4.5-1.6-9.2-1.6-13.9-2.1l0,0
		c-0.5,0-1.1-0.1-1.6-0.2l0,0c-0.2,0-0.4,0-0.6,0l0,0c-1.4,0-2.8,0.4-4.1,1.2l0,0c-1.6,1-1.7,3-0.3,4.1c0.2,0.2,0.4,0.4,0.7,0.4
		c0.2,0.1,0.3,0.2,0.5,0.3c0.3,0.1,0.5,0.2,0.9,0.3c0.2,0.1,0.4,0.1,0.6,0.1c0.1,0,0.3,0,0.3,0.1c1.2,0.1,2.5-0.1,3.7,0
		c1.3,0.1,2.6,0.2,3.9,0.4c0.9,0.1,1.8,0.3,2.7,0.4c1.2,0.3,2.4,0.5,3.6,0.8c4.1,1.1,8,2.9,11.5,5.4c2.8,1.9,5.4,3.7,7.8,6.1l0,0
		c0.3,0.4,0.9,0.7,1.3,0.7l0,0l0,0c0.2-0.1,0.3-0.1,0.5-0.2l0,0c0.8-0.4,1.1-1.1,1.3-2c0.1-1-0.3-1.9-0.8-2.8
		C670.7,220.5,668.7,218,665.8,216.2z"/>
	<path class="st3" d="M379.6,255.1c-2.5-1.5-5-2.9-7.4-4.6c-1-0.7-1.9-1.2-2.9-1.7c-4.4-2.2-9.3-2.9-14-3.7
		c-1.5,0.3-2.9,0.4-4.3,0.6c-0.4,0-0.7,0.4-0.8,0.7c0,0.3,0.4,0.6,0.8,0.8c0.2,0.1,0.4,0.2,0.6,0.2c3.6,0.4,6.9,1.9,10.3,3
		c0.4,0.2,0.9,0.4,1.3,0.5c1.1,0.4,2.2,0.9,3.4,1.6c0.1,0,0.1,0.1,0.2,0.1c0.5,0.4,1.1,0.6,1.6,0.9c2.7,1.7,5.4,3.5,8,5.3
		c2.7,1.9,5.6,3.8,7.3,6.6c1.3,2.3,3.8,3.5,5.2,5.7c0.1,0.2,0.3,0.4,0.5,0.5c0.6,0.3,1.3,0.3,2-0.1c1-0.4,1.6-1.5,1.6-2.5
		c0-0.9-0.3-1.6-0.8-2.3c-0.8-1.1-1.5-2.2-2.5-3.3c-0.4-0.4-0.7-0.8-1-1.1c-0.4-0.4-0.7-0.9-1.1-1.2
		C385.1,258.8,382.5,256.8,379.6,255.1z"/>
	<path class="st3" d="M646.2,369.5c-1.5-4.2-3.8-7.9-6.9-11.1c-3.5-3.6-7.4-6.6-11.1-10c-2.8-2.6-5.9-4.4-9.3-6
		c-6.2-2.8-11.9-6.2-16.4-11.7c-2.9-3.5-6.1-6.7-9.6-9.7c-1-0.9-2-2-2.5-3.2c-0.4-1-1-1.6-1.9-2.1c-2.3-1.1-4.7-2.4-7.1-3.5
		c-2-0.9-4-1.5-6.7-1.6c2.2,3,4.7,5.1,7.3,6.9c3.7,2.4,7,5.4,9.8,8.9c1,1.2,2,2.3,3.1,3.4c2.1,1.9,3.8,4.1,5.3,6.4
		c1.6,2.6,3.3,5.1,4.4,8c0.9,2.2,2.3,3.5,4.6,4.4c3.6,1.4,7.1,3,10.5,4.8c4.2,2.1,8.1,4.8,11.3,8.2c3.5,3.8,7.1,7.5,9.8,11.8
		c2.5,4.1,5.4,8,8.3,11.8c1,1.3,1.9,2.7,2.8,4.1c2.2,3.3,3.6,6.8,4.1,10.7c0,0.2,0.1,0.4,0.1,0.6c0.1,0.5,0.2,1,0.3,1.5v0.1
		c0.2,0.5,0.3,1,0.4,1.5l0,0c0.4,1.3,1,2.6,1.5,3.8l0,0c0.2,0.4,0.3,0.8,0.9,0.9l0,0c0.2,0,0.3,0,0.6-0.1c0.6-1.7,1-3.5,1.5-5.3
		c0.4-2.2,0.9-4.3,1.1-6.5c0.4-3.2,0.8-6.4,1-9.7c-2.2-1-4.4-1.7-6.1-3.1C652.4,379.8,648.3,375.5,646.2,369.5z"/>
	<path class="st3" d="M473.6,219.3c-0.9-2.2-1.7-4.3-2.4-6.6c-0.1-0.4-0.3-0.6-0.4-0.9c-0.1-0.2-0.2-0.4-0.3-0.6l0,0
		c-0.3,0.2-0.4,0.5-0.6,1c-1.2,1.5-2.5,2.9-3.9,4.3s-2.9,2.7-4.4,3.9c-2.9,0.4-6,0.9-8.9,1.4c-0.1,0-0.1,0-0.2,0
		c-0.4,0.1-1,0.2-1.4,0.3c-1,0.2-1.8,0.4-2.8,0.5c-0.2,0-0.3,0.1-0.4,0.1h-0.1c-1,0.2-2.1,0.4-3.2,0.6h-0.4
		c-0.8-0.4-1.5-0.9-2.2-1.4c-1.5-1.2-2.3-2.7-3.4-4.3l-0.1-0.1c-0.1-0.2-0.2-0.4-0.3-0.5c0,0,0,0,0-0.1c-0.1-0.2-0.2-0.4-0.3-0.6
		h-0.1c-0.7-0.3-1.2-0.7-1.6-1.2l0,0c0,0,0,0,0-0.1c0,0,0,0-0.1,0.1c-0.9-1.6-1-3-1.2-4.5c-0.6-4.8-0.1-9.4,0.3-14.1
		c0.5-6.5,1-13,1.3-19.4c0.2-1.9,0-3.9-0.3-5.9c0-0.3-0.1-0.5-0.1-0.8c0,0.3,0.1,0.5,0.1,0.8l0,0c-0.1,0.1-0.2,0.2-0.3,0.3
		c-0.4,0.3-0.8,0.6-1.1,0.9c-5.4,4.4-9.4,10.5-11.9,17.2c-0.1,0.1-0.1,0.3-0.2,0.4c-3.2,8.6-4.1,17.7-5.2,26.8
		c-0.5,4.4-1,8.7-1.5,13c0,0.4-0.1,0.7-0.1,1c0,0,0,0,0,0.1c-0.3,0.1-0.4,0.2-0.6,0.3c0,0-0.1,0-0.1-0.1c-0.1-0.1-0.3-0.2-0.4-0.2
		c-0.1-0.1-0.2-0.2-0.4-0.2c-0.1-0.1-0.3-0.2-0.4-0.3l-0.3-0.3c-0.1-0.1-0.3-0.2-0.4-0.3s-0.2-0.2-0.3-0.3s-0.3-0.2-0.4-0.4
		c-0.1-0.1-0.2-0.2-0.3-0.3s-0.2-0.3-0.4-0.4c-0.1-0.1-0.2-0.2-0.3-0.3s-0.2-0.3-0.4-0.4c-0.1-0.1-0.2-0.2-0.2-0.3
		c-0.1-0.2-0.2-0.3-0.4-0.4c-0.1-0.1-0.1-0.2-0.2-0.2c-0.2-0.3-0.3-0.4-0.4-0.7c-2.3-4.1-2.6-9-2.6-13.6s0.3-9.4-1-13.9
		c-2.1-6.8-8.1-12.4-15.2-13.6c-0.7-0.1-1.1,0-1.5,0.2c-0.1,0.1-0.2,0.1-0.2,0.2c0.3,0.1,0.5,0.2,0.8,0.3c1.1,0.4,2.1,1,3,1.7
		c1.2,0.9,2.3,2,3.5,2.9c1.9,1.3,3.1,3.1,4.1,5.1c1.6,3.2,1.9,6.6,1.9,9.9c0,0.5,0,1,0,1.6c-0.1,2.8-1,5.2-2.7,7.3
		c-1,1.2-2.2,2.4-3.5,3.5c-0.7,0.6-1.5,1.2-2.2,1.8c-0.4,0.3-0.6,0.6-0.6,0.9c0,0.3,0.1,0.4,0.3,0.7c0.4,0.6,0.9,1.1,1.3,1.6
		c4.4,5.4,9.9,9.6,15.4,13.7c1.9,1.4,3.8,1.6,6.2,0.9c4.8-1.4,9.6-1.2,13.6,2.2c1.3,1,2.4,1.1,3.7,0.4c1.1-0.5,2.3-1.1,3.5-1.7
		c1-0.6,2.2-1.2,3.2-1.8c1.2-0.7,2.4-1.4,3.6-1.9c1.5-0.7,3-1.4,4.5-2.2c2.6-1.5,5.1-3,7.5-4.8c1.4-0.9,2.8-1.7,4.1-2.5
		c2.4-1.3,4.9-2.3,7.6-2.9c1.5-0.4,3.2-0.5,4.8-0.8c0-0.1,0-0.2,0-0.4C474.2,220.5,473.9,220,473.6,219.3z"/>
	<path class="st3" d="M483.4,213.1c0.4,1.1,0.9,2.2,1.4,3.2c0.2,0.4,0.3,0.6,0.4,0.9c0.3,0.6,0.6,1.2,1,1.7c0.3,0.5,0.8,0.7,1.4,0.6
		c0.4-0.1,0.8-0.3,1.2-0.4c6.3-1.7,12.5-2.2,18.7,0.6c1,0.4,1.6,0.2,2.2-0.6c2.6-3.7,4.7-7.8,6.6-11.9c0.3-0.9,0.6-1.8,1.2-2.6
		c1.4-1.6,2-3.5,2.1-5.4c0-1.1-0.1-2.3-0.3-3.5c-0.8-3-1.5-6.1-2.2-9.2c-0.5-1.9-0.7-3.7-0.6-5.5c0-1.8,0.3-3.6,0.7-5.4
		c-4.8,0.5-7.7,5.6-8.4,10.3c-0.4,2.4-0.5,4.6-0.7,6.6c-0.3,4.2-0.4,8.1-1.6,13c-0.8,3-6.8,2.8-13.9,4.3
		C488.1,210.7,487.1,212.3,483.4,213.1L483.4,213.1z"/>
	<path class="st3" d="M564.4,168.7c0.7-0.5,1.5-1,2.2-1.5c0.1,0,0.1,0,0.1,0c0.1-0.1,0.1-0.2,0.2-0.2c1.5-0.9,3.3-1.8,5-2.8
		c1.2-0.6,2.5-1.1,3.9-1.2c1.6-0.2,2.8,0.9,2.8,2.5c0,0.3,0,0.4-0.1,0.7c-0.3,1-0.8,2.1-1,3.1c0,0.1,0,0.2,0,0.3
		c0,0.3,0.2,0.5,0.4,0.6s0.5-0.1,0.7-0.2c1.7-1.6,3.8-2.7,6.2-3c2.9-0.4,4.2,0.2,4.8,3c0.8,3.9,2.8,6.8,5.9,9.2
		c0.9,0.6,1.5,0.6,2.2,0c3.5-2.9,7.3-5.5,11.1-7.9c2.2-1.3,4.4-2.3,6.8-2.9c0.3-0.1,0.6-0.2,1-0.2c-0.1-0.2-0.2-0.3-0.3-0.4
		c-0.6-1-1.3-2-2.2-2.9c-0.3-0.3-0.7-0.6-1.1-0.9c-2.8-2.2-6.7-3.1-9.5-5c-0.9-0.7-1.5-1.5-2.2-2.4c-0.3-0.4-0.4-0.9-0.6-1.5
		c0-0.1-0.1-0.1-0.1-0.2c0,0-0.1,0.1-0.2,0.2c-0.1,0.1-0.1,0.1-0.2,0.2c0,0,0,0,0,0.1c-0.5,0.6-1,1.1-1.6,1.7
		c-1,0.9-2.1,1.8-3.2,2.6c-2.1,1.2-4.2,1.8-6.3,1.7c-1.3-0.1-2.7-0.4-4.1-1.1c-1.8-0.9-3.6-2-5.7-3.1c0-0.1,0.1-0.1,0.1-0.1
		c-0.1-0.1-0.2-0.1-0.3-0.2c-0.1-0.1-0.2-0.1-0.3-0.2c-0.1-0.1-0.3-0.1-0.3-0.2c2-2.8,4.4-4.2,7.4-4.4c0.4,0,0.9,0,1.3,0
		c0.2,0,0.3,0,0.4,0c1-0.1,1.5-0.8,1.8-1.8c0.3-1.2,0.8-2.4,1.5-3.5c1.8-2.8,2.5-5.8,2.9-9c0.3-2.7,1.2-5.4-0.3-8
		c-0.2-0.2-0.2-0.5-0.2-0.8c0.3-1.7-0.3-2.9-1.4-3.9c-0.3-0.3-0.6-0.4-1-0.7c-0.3-0.2-0.6-0.4-0.9-0.7c-0.9-0.6-1.6-1.6-2.3-2.4
		c-0.1-0.2-0.2-0.3-0.3-0.4c0.1,2.1,0.6,4.2,1,6.1c0.4,2.6,0.3,5-0.3,7.3c-2.2,8.1-9.8,14.8-17.1,20.2c-3.5,2.6-6.8,7.4-9.7,10.7
		c-0.4,0.4-0.5,2.9-0.6,5c0,0.4-0.1,0.8-0.1,1.1l0.1-0.1C562.1,170.6,563.2,169.5,564.4,168.7z"/>
	<path class="st3" d="M465.9,119.2c0,1.5,0.4,3,0.8,4.5c0.6,2.4,1.5,4.7,3,6.7c0.4,0.4,0.7,0.9,1,1.2c1.6,1.7,3.7,2.9,6.1,3
		c1.3,0.1,2.6,0,3.5-1c1.5-1.8,3.2-3.6,3.2-6.1c0-0.3,0-0.7-0.1-1c-0.2-0.8-0.2-1.6-0.2-2.3c0-0.3,0-0.7,0-1.1c0-0.3,0-0.8,0-1.1
		l0,0c0,0,0,0,0-0.1c0-2.2,0.4-4.4,1-6.6c1.1-4.4,3.8-7.3,7.4-9.2c0,0,0-0.1,0.1-0.1c-0.2-0.3-0.3-0.6-0.4-0.9
		c0-0.1-0.1-0.2-0.1-0.3c-0.2-0.3-0.4-0.7-0.5-1c0-0.1,0-0.1,0-0.1c-0.2-0.3-0.4-0.7-0.6-1c-0.1-0.1-0.1-0.2-0.2-0.3
		c-0.2-0.3-0.4-0.6-0.7-0.9l-0.1-0.1c-0.1-0.1-0.1-0.1-0.2-0.2c-0.1-0.2-0.3-0.3-0.4-0.3c-0.4-0.3-0.6-0.5-1-0.8
		c-1.3-0.9-2.9-1.6-4.4-1.6c-0.3,0-0.5,0-0.7,0c-0.8,0-1.5,0.2-2.2,0.4c-0.2,0.1-0.3,0.1-0.4,0.2c-0.3,0.2-0.5,0.3-0.8,0.4
		c-0.1,0.1-0.2,0.2-0.4,0.3c-0.2,0.2-0.4,0.3-0.5,0.4s-0.2,0.3-0.3,0.3c-0.2,0.2-0.3,0.3-0.4,0.4s-0.2,0.3-0.3,0.4s-0.2,0.3-0.4,0.5
		c-0.1,0.2-0.2,0.3-0.3,0.4s-0.2,0.3-0.3,0.5s-0.2,0.3-0.2,0.5c-0.1,0.2-0.2,0.3-0.3,0.6c-0.1,0.2-0.1,0.3-0.2,0.5s-0.2,0.4-0.2,0.6
		c-0.1,0.2-0.1,0.3-0.2,0.5c-0.1,0.3-0.2,0.4-0.2,0.7c-0.1,0.3-0.2,0.5-0.3,0.8c-0.1,0.2-0.1,0.4-0.2,0.6s-0.1,0.4-0.2,0.6
		s-0.1,0.3-0.2,0.5s-0.2,0.3-0.2,0.6c-0.1,0.2-0.1,0.3-0.2,0.5l-0.3,0.5c-0.1,0.2-0.2,0.3-0.2,0.4c-0.1,0.2-0.2,0.3-0.3,0.5
		s-0.2,0.3-0.3,0.4s-0.3,0.3-0.4,0.5c-0.1,0.1-0.2,0.3-0.3,0.3c-0.2,0.2-0.4,0.3-0.5,0.4s-0.2,0.2-0.3,0.3c-0.3,0.2-0.6,0.4-0.9,0.6
		c-0.9,0.5-1.7,0.7-2.7,0.6c-0.6,0-1.1-0.1-1.7-0.3c-0.9-0.3-1.7-0.7-2.5-1.2c0.1,0.3,0.3,0.4,0.3,0.7
		C465.4,115.4,465.9,117.2,465.9,119.2z"/>
	<path class="st3" d="M358.1,450.4c-0.2-0.1-0.4-0.3-0.6-0.3s-0.4,0.1-0.5,0.4c0,0.4-0.1,0.9,0,1c3.3,6.8,8.5,11.2,14.7,14.6
		c3.5,0,6,2.4,9,3.7c1.4,0.7,2.9,1,4.3,1c3.1-0.3,6-2.1,7.5-5.5c2.2-5,6.7-6.5,10-10.8c6.3-5.1,9.6-4.8,15.9-9.9
		c3-1.2,8.2-8.9,10.6-11.5c0.4-0.4,1.5-2.3,1.8-3.5c0.1-0.3-0.2-0.4-0.4-0.4c-0.9,0.6-2.9,1.9-3.5,2.2c-4.2,2.8-8.1,6.6-12.4,9.2
		c-5.1,3.2-10.1,6.5-15.3,9.7c-1.9,1.2-4.1,2.2-6,3.2c-1.5,0.9-2.8,1-4.4,0c-1.8-1-4-1.6-6-0.9c-3.3,1.5-7,2.1-9.7,5.2
		c-0.1,0.1-0.1,0.3-0.2,0.3c-0.6,0.6-1.4,0.5-2.1,0C366.6,455.8,362.2,453,358.1,450.4z"/>
	<path class="st3" d="M546.8,414.7c0,0-0.2,0.7,0.2,1c3.5,2.6,6.2,5.9,9.2,9c10.3,11.1,22,20.5,34.3,29.2c0.9,0.6,1.7,1.2,2.5,1.8
		c1.3,0.9,2.5,1.8,3.7,2.8s2.3,2,3.4,3.2c1.8,2.1,4.2,2.9,7.6,2.9c3.7-0.3,15.6-3.4,17.8-3.2c1.8,0.1,2.9-2.8,3.8-4.3
		c0.5-0.9,1.4-1.8,0.8-2.7c-0.9-1.3-2-0.1-2.9,0.2c-1.4,0.4-3.9-1-4.8,0.1c-2,2.4-14-0.5-16.6-1.5c-1.3-0.5-14.5-7.7-15.7-8.4
		c-2.4-1.5-12.3-7.5-28.2-26.4C558.2,414.2,552,413.8,546.8,414.7z"/>
</g>
</svg>
