<?xml version="1.0" encoding="utf-8"?>
<!-- Generator: Adobe Illustrator 24.0.1, SVG Export Plug-In . SVG Version: 6.00 Build 0)  -->
<svg version="1.1" id="Layer_1" xmlns="http://www.w3.org/2000/svg" xmlns:xlink="http://www.w3.org/1999/xlink" x="0px" y="0px"
	 viewBox="0 0 990 781.2" style="enable-background:new 0 0 990 781.2;" xml:space="preserve">
<style type="text/css">
	.st0{fill:#E4716B;}
	.st1{fill:#535459;}
	.st2{fill:#BDBDBC;}
	.st3{fill:#AD6207;}
	.st4{fill:#FFFFFF;}
</style>
<g>
	<path d="M715.5,98.9c0.3,0.9,1.1,1,1.8,1.3c15.4,7.2,28.5,17.4,39.5,30.2c4.9,5.7,8.6,12.1,11.9,18.8c1,2.2,2,4.3,3.1,6.5
		c1.2,2.4,2.5,4.7,4.2,6.7c3.1,3.7,5.2,7.9,6.7,12.4c1.1,3.2,2.1,6.5,2.9,9.9c0.4,1.5,0.5,3,0.4,4.5c-0.2,3.5-2.4,5.6-5.8,5.9
		c-2.4,0.2-2.3,0.2-2,2.6c0.9,6.9,2,13.8,2.6,20.7c0.6,6.6,0.3,13.1-0.4,19.6c-1.4,13.1-3,26.2-2.6,39.5c0.6,18.3,4.7,35.8,13.5,52
		c1.9,3.4,3.9,6.8,5.9,10.1c1.6,2.8,3.1,5.6,4.3,8.6c0.8,2.1,1.4,4.3,1.4,6.5c0,4.3-1.5,6.8-5.5,8.3c-3,1.2-6.1,2-9.3,2.4
		c-8.4,1.1-16.7,1.4-25.1,0.1c-2.3-0.3-4.5-1-6.6-1.6c-0.6,0.7-0.2,1.2,0,1.7c5.3,10.5,9.1,21.6,11.6,33.2c0.9,4.2,2.4,8.3,3.1,12.6
		c1.1,7.1,1.6,14.3,1.8,21.5c0.2,6.6,0.1,13.3,0.1,19.9c0,1.4,0.1,2.7,0.5,4c2.1,6.2,3.8,12.5,5.6,18.8c1.8,6.2,4.5,11.9,8.3,17.2
		c7.3,10.2,13.8,21,19.6,32.1c7.2,13.6,10.4,28.1,10,43.4c-0.1,4,0.3,7.8,1.6,11.6c2.5,7,4,14.1,5,21.4c1.2,8.3,3.3,16.4,5.5,24.5
		c0.8,2.9,2.1,5.4,3.9,7.8c4.5,6.1,8.7,12.4,12.1,19.3c1.9,3.9,3.7,7.8,4.1,12.2c0.4,3.5-0.2,7-0.8,10.5c-1.4,8.4-4,16.4-7,24.4
		c-1,2.6-2.7,4.9-4.3,7.2c-3.9,5.4-8.1,10.5-14.1,13.8c-2.2,1.2-4,2.9-5.3,5.1c-3.1,5.5-7.5,10-11.7,14.5c-3.9,4.2-9,6.6-14.4,8.1
		c-2.8,0.8-4.2-0.2-6.1-2.5c-3.2-3.8-4.5-8.2-5.1-12.8c-0.8-0.3-1.2,0.2-1.5,0.6c-1.7,1.6-3.3,3.2-5,4.8c-1.6,1.5-3.2,2.9-5.1,4
		c-3.2,1.9-6.4,1.3-8.8-1.5c-0.8-1-1.4-2.1-1.9-3.3c-1.6-4-2.5-8.1-2.1-12.4c0.2-2.3-0.7-3.8-2.6-4.9c-1.6-0.9-3.2-1.8-4.9-2.6
		c-4-1.7-6.6-4.7-8-8.8c-0.3-0.8-0.1-2.2-1.3-2.2c-0.9,0-1.1,1.3-1.3,2.1c-1.6,5.5-4.5,10.2-8.4,14.3c-2.1,2.3-3.8,4.9-6.3,6.8
		c-4.6,3.5-9.3,2.7-12.4-2.2c-2-3.1-2.9-6.6-3.2-10.2c-0.2-2.4-1.3-4-3.4-5.1c-5.7-2.9-9.9-7.6-14.2-12c-1-1-1.8-2.3-2.3-3.6
		c-0.3-0.8-0.8-1.1-1.6-1.1c-0.6,0-1.1,0-1.7,0c-128.1,0-256.3,0-384.4,0c-0.6,0-1.1,0-1.7,0c-0.8,0-1.3,0.2-1.7,1
		c-0.8,2.2-2.4,3.9-4.1,5.6c-1.2,1.2-2.4,2.4-3.6,3.5c-2.6,2.5-5.3,4.9-8.6,6.5c-2.1,1.1-3.4,2.6-3.6,5.2c-0.3,3.5-1.2,6.9-3.1,10
		c-0.8,1.3-1.7,2.5-3,3.3c-2.8,1.8-5.8,1.8-8.5-0.2c-1.3-0.9-2.6-1.9-3.6-3.1c-2.9-3.5-6-6.9-8.4-10.7c-1.6-2.4-2.6-5.1-3.4-7.9
		c-0.3-0.9-0.4-2.2-1.5-2.3c-1.2,0-1.1,1.4-1.4,2.2c-1.4,4.1-3.9,7.1-7.9,8.8c-1.8,0.8-3.4,1.7-5.1,2.7c-1.7,1.1-2.6,2.4-2.4,4.6
		c0.4,4.6-0.6,9.1-2.4,13.3c-0.7,1.6-1.7,3.1-3.2,4.1c-2.2,1.5-4.4,1.7-6.8,0.4c-1.5-0.9-3-1.9-4.3-3.1c-1.8-1.7-3.6-3.5-5.4-5.2
		c-0.6-0.6-1.1-1.4-2.3-1.7c-0.2,1.1-0.5,2.3-0.7,3.4c-0.6,4.3-2.9,7.7-5.6,10.9c-1.3,1.6-3.2,1.7-5.1,1.2c-5.8-1.6-11-4.3-15.1-8.8
		c-4.3-4.7-8.6-9.5-11.9-15c-0.8-1.3-1.8-2.3-3-3c-0.6-0.3-1.1-0.7-1.6-1c-7.9-4.7-13.1-11.8-17.6-19.6c-0.3-0.5-0.6-1.1-0.8-1.8
		c-1.7-5.1-3.6-10.1-4.2-15.5c-0.5-3.9-0.4-7.8-0.2-11.7c0.4-8.3,1.9-16.5,4.7-24.4c2-5.5,5.1-10.3,9.2-14.5
		c1.9-1.9,3.7-3.7,5.8-5.4c6.3-5,12.7-10,19.1-14.9c3.4-2.6,7-4.8,10.8-6.7c1.4-0.7,2.3-1.8,3.1-3.2c4.3-8.3,7.1-17.1,9.2-26.2
		c4-17.3,7.3-34.7,11.1-52c2.9-13.4,6.8-26.5,13.3-38.6c2.4-4.5,5-8.9,7.9-13.1c0.4-0.6,0.8-1.2,1.2-1.8c3.9-5.3,6-11.1,5.8-17.8
		c-0.2-7.4,0.1-14.7-0.4-22.1c-0.5-7.6-0.1-15,2.5-22.2c0.3-0.8,0.5-1.7,0.6-2.6c0.5-3.9,1.5-7.7,3.1-11.3c0.2-0.5,0.7-1,0.2-1.5
		c-0.4-0.5-1-0.2-1.6,0c-5.1,1.7-10.3,1.9-15.6,1.7c-6.8-0.3-11.5-4.6-12.3-11.4c-0.5-4-0.1-7.8,1.2-11.6c2.8-7.8,5.4-15.7,8.9-23.3
		c0.5-1.1,0.8-2.2,1.1-3.4c0.5-2.5,0.5-5.1,0.9-7.6c0.2-1.1-0.1-2-1.4-2.4c-2.8-0.7-4.3-2.5-5-5.2c-0.6-2.5-1.8-4.8-2.9-7.1
		c-4.5-9.3-6.8-19.1-7.4-29.3c-0.2-4-0.6-8-0.9-12c-0.3-4.5-0.3-8.9,0.1-13.4c0.1-0.6,0.1-1.1,0.1-1.7c0-1-0.4-1.3-1.4-1.1
		c-2.2,0.5-4.4,1-6.5,1.5c-1.2,0.3-2.4,0.4-3.6,0.1c-3.9-0.7-6.1-3.7-5.7-7.6c0.1-1.5,0.6-3,1.1-4.4c5.3-13.7,10.4-27.5,15-41.5
		c1.7-5.2,4-10.1,6.6-14.9c0.4-0.7,0.8-1.4,1.2-2.1c6.9-14.3,15.5-27.6,23.8-41.1c3.5-5.7,7.4-11,12-15.8c3.7-3.9,7.5-7.9,11.3-11.8
		c1.4-1.5,3-2.9,4.6-4.2c0.5-0.4,1.4-0.6,1.1-1.4c-0.3-0.7-1.1-0.4-1.7-0.5c-0.8-0.2-1.6-0.2-2.3-0.4c-5.2-1.5-6.9-6-3.9-10.5
		c2-3,4.6-5.5,7.5-7.7c11.4-8.4,23.6-14.9,37.6-17.8c1-0.2,2-0.4,3-0.7c1.4-0.4,1.5-0.8,1-2.1c-0.4-0.9-0.8-1.7-1.2-2.6
		c-0.8-1.8-1.4-3.7-1.6-5.7c-0.6-5.9,3.1-10,9-9.8c3,0.1,5.9,0.3,8.8,1.2c5.3,1.6,10.8,1.4,16.2,0.9c5.4-0.5,10.7-1.8,16-3.1
		c1.3-0.3,2.4-0.9,3.3-1.8c3.3-3.2,7.2-5.5,11.4-7.4c11.2-5,22.9-8.5,35-10.5c8.4-1.4,16.7-3.1,25-4.6c10.4-1.8,20.8-3.4,31.4-4.1
		c14-1,28-2.5,41.9-4.6c10.3-1.5,20.5-1.6,30.8,0.7c3.8,0.9,7.4,2.2,10.5,4.4c1.8,1.3,3.8,1.7,5.9,1.3c3.8-0.7,7.5-0.4,11.2,0.5
		c3.9,1,7.8,1.5,11.8,2c5,0.7,9.8,2.4,14.6,3.7c8.9,2.3,17.8,4.7,26.9,5.8c4,0.5,7.7,2,11.2,4.1c4.2,2.6,8.9,4.5,12.8,7.6
		c0.7,0.5,1.5,0.6,2.3,0.6c16.4,0.7,30.9,6.9,44.4,15.7c3,1.9,5.9,3.8,9.1,5.3c5.3,2.5,10.9,4.2,16.8,4.6c2.3,0.2,4,1,4.8,3.3
		c0.8,2.2-0.1,3.9-1.6,5.4C717.4,97.3,716.4,98.1,715.5,98.9z"/>
</g>
<g>
	<path class="st0" d="M438.9,529.3c2.2,7.8,5.8,15,9.5,22.2c4.6,9.1,12,15.7,19.9,21.8c1.8,1.4,4,2.2,6,3.4c2.1,1.2,4.3,2,6.6,2.7
		c4.4,1.4,8.9,1.8,13.4,2.3c3.1,0.3,6,0.1,9-0.5c7.1-1.6,13.4-5.1,20-7.9c0.6-0.3,1.2-0.8,1.8-1.2c2.1-1.7,4.2-3.4,6.3-5.1
		c5.5-4.5,10.1-9.8,13.2-16.3c1.1-2.4,2.3-4.7,3.6-7c3.3-5.9,4.2-12.3,4-19c0-1.9-0.4-3.6-1.5-5.2c-0.9-1.4-1.4-3-1.9-4.6
		c-0.9-2.9-1-6-1.9-8.9c-1.6-5.3-1.9-10.7-0.5-16.1c0.3-1.1-0.1-1.5-1.1-1.4c-0.4,0-0.8,0-1.2,0.2c-3.4,1.2-6.8,1-10.2,0.4
		c-8.7-1.5-16.8-4.5-23.7-10.2c-0.7-0.6-1.6-1.1-2.4-1.6c-0.5-0.3-1-0.4-1.6,0c-2.8,2-5.8,3.6-8,6.4c-2.2,2.9-4,5.9-4.7,9.6
		c-0.2,1.1-0.5,2.2-0.8,3.3c-1.1,3.6-1.7,7.2-0.2,10.8c0.1,0.3,0.1,0.6,0.2,0.9c1.9,10.1,2.9,20.3,4.3,30.4c0.5,3.7,0.8,7.3,0.5,11
		c-0.2,2.4-0.7,4.8-1.9,6.9c-2.5,4.6-7.3,5.2-11,1.6c-1.6-1.6-2.7-3.5-3.5-5.7c-1.5-4.1-1.3-8.3-0.3-12.5c2.4-10.4,3.5-21,4.1-31.6
		c0.1-1,0-2.1-0.3-3.1c-1.4-4.2-3-8.3-5.3-12c-1.6-2.5-2.4-5.2-3-8c-0.4-1.6-0.4-3.3-0.6-5.1c-0.4,0-0.6-0.1-0.7-0.1
		c-0.5,0.1-0.9,0.3-1.4,0.5c-4.4,2-9,2.7-13.8,2.8c-4.3,0.1-8.6,0.6-12.9,0.9c-2.2,0.2-3.8,0.6-4.8,3.2c-0.8,2.3-2,4.5-2.4,7
		c-0.1,0.5-0.3,0.9-0.6,1.3c-1.3,2.1-1.9,4.4-2.4,6.7c-0.6,3-0.2,6.1-0.3,9.1C436.5,517.4,437.2,523.4,438.9,529.3z"/>
</g>
<g>
	<path class="st1" d="M482,454.4c-3.1,2.4-6.8,3.1-10.4,4c-2.7,0.7-5.4,0.2-7.5-1.6c-2.5-2-5.2-1.8-7.9-1.2
		c-1.1,0.2-2.2,0.8-2.9-0.5c-0.5-0.9,0-2.2,1.1-3.2c2.3-1.8,5-2.8,8-2.9c1.4,0,2-0.4,2.5-1.8c0.7-1.8,1.7-3.3,2-5.3
		c0.2-1.4,1.3-2.5,2.5-3.3c-0.1-0.3-0.1-0.5-0.2-0.6c-6.2-4.1-11.8-9.1-17.8-13.4c-1.5-1.1-3-2.1-4.5-3.2c-0.2,1.7-0.1,3.4,0,5.1
		c0.3,0.3,0.4,0.6,0.1,1c-0.1,1.2,0.7,2,1.1,3c1.2,2.6,0.3,5.3-2.3,6.5c-2.2,1-3.9,2.5-5.5,4.3c-1.2,1.3-2.3,2.7-3.9,3.4
		c-3.6,1.5-7.1,3.4-11.3,3c-1-0.1-1.9,0.3-2.7,0.7c-1.2,0.5-2.2,1.6-2.2,2.9c-0.1,4.1,0.9,7.9,4.1,10.7c1.1,1,2.1,1.9,3,3
		c0.1,0.1,0.3,0.3,0.4,0.4s0.3,0.2,0.4,0.3l0.1,0.1c0.1,0.1,0.2,0.1,0.3,0.2c0.1,0,0.1,0.1,0.2,0.1s0.2,0.1,0.3,0.1
		c0.1,0,0.1,0,0.2,0.1c0,0,0,0,0.1,0s0.1,0.1,0.2,0.1s0.1,0,0.2,0.1c0.1,0,0.2,0.1,0.3,0.1c0.1,0,0.1,0,0.2,0s0.2,0,0.3,0.1h0.1l0,0
		c0.3,0.1,0.7,0.1,1,0.2c0.5,0.1,0.9,0.2,1.4,0.3c0.4-0.2,0.7-0.1,1,0.1c1.9,0,3.8,0,5.8,0c1.6-0.6,3.2-0.4,4.7,0.1
		c0.9,0.3,0.4,0.8-0.3,1c-0.1,0.1-0.3,0.2-0.4,0.4l-0.1,0.1c-0.2,0.7-0.2,1.3-0.2,1.9c4.6-1.7,9.6-2.4,14.6-2.4
		c7,0,13.4-1.7,19.7-4.4c0.3-0.1,0.6-0.3,0.8-0.5c3-2,5.9-4.4,4-9.3C482.4,454.3,482.1,454.2,482,454.4z"/>
	<path class="st1" d="M456.2,350.9c0.1,1.2,1,2,1.9,2.7c2,1.5,4.1,2.7,6.8,2.6c1.8,0,3.7,0.3,5.5,0.4c1.9,0.1,16.3-0.3,27.5-0.7
		c7.9-0.3,14.9-5,18-12.2c0-0.1,0.1-0.1,0.1-0.2c0.4-0.9,0.2-1.3-0.7-1.6c-1.9-0.5-3.8-0.9-5.6-1.4c-6.3-2-12.8-2.7-19.3-2.4
		c-6.3-0.1-12.6,0.5-18.9,0.6c-2.5,0-4.9,0.3-7.4,0.4c-3,0.2-5.5,1.6-7.8,3.4c-0.5,0.4-0.8,0.9-0.9,1.6c-0.1,1.1,0.3,5.5,0.8,6.7
		V350.9z"/>
	<path class="st1" d="M493.5,426.3c1.2,0.4,2.5,0.7,3.8,0.6c1-0.1,1.9-0.2,2.9,0.1c1.1,0.4,1.8-0.1,2.6-0.8
		c3.3-2.8,6.8-5.4,10.6-7.5c1.3-0.7,2.5-1.7,3.6-2.8c1.7-1.9,3.6-3.7,5.4-5.4c0.6-0.6,1.4-1.1,1.6-2.1c-1.7-0.2-3.2-0.2-4.7-0.1
		s-3,0.1-4.5-0.4c-1.6-0.5-2.4-1.2-2.2-2.2c0.3-1.5,1.5-1.2,2.5-1.2c1.3,0,2.2-0.5,2.3-1.9c0.1-0.5,0.5-0.9,0.2-1.4
		c-2.8-0.4-5.7-0.5-8.6-0.2c-2.7,0.3-5.1-0.3-7.2-2c-1.5-1.2-8.2-4.7-8.8-5.7c-2-2.9-3.1-6.1-1.5-9.5c1.8-3.8,4.5-6.8,8.6-8.2
		c3-1.1,6-0.7,9-0.2c1.6,0.3,3,1.3,3.6,2.9c1.4,3.3,2.8,6.7,1,10.4c-0.5,1-0.1,1.5,0.7,1.9c1.3,0.7,2.6,1.6,4,2.2
		c5,2.3,10.1,0,11.9-5.3c0.4-1.1,0.7-2.2,1.3-3.1c0.7-1,0.8-2.1,0.6-3.2c-0.4-3-1.2-6-2.4-8.8c-0.6-1.3-1.3-2.4-3-2
		c-0.4,0.1-1-0.1-1.4-0.4c-2.9-1.9-6.1-2.1-9.5-2.1c-5.2,0-10.4-0.4-15.5-1.6c-6.7-1.6-13.5-1.7-20.3-1.5c-4.8,0.2-9.3,1.3-13.8,3
		c-3.2,1.2-6.1,2.7-9,4.5c-1.3,0.9-2.8,1.5-4.3,0.7c-1.2-0.7-2.5-0.9-3.8-1.4c-2.2-0.7-4.3-1.9-4.9-4.2c-0.7-2.4-2.1-4.5-2.6-6.9
		c-0.1-0.4-0.1-0.9-0.8-1c-2.4,4.2-2.8,8.9-3.3,13.6c0,0.2,0,0.5,0.1,0.7c1.2,2.4,1.6,5,2.6,7.4c0.8,1.9,1.6,3.9,2.7,5.6
		c2.6,3.9,7.8,5.7,11.9,4.2c0.1-0.3,0-0.5-0.2-0.7c-4-4.1-2.2-11.3,2.1-14.7c1.9-1.5,3.9-1.9,6.3-1.5s4.4,1.6,6.4,2.9
		c3.4,2.2,5.2,4.8,5.2,9c0,2.9-0.2,5.5-2.1,7.8c-1.6,2-3.2,2.8-5.6,2.1c-1.3-0.4-2.5-0.3-3.8,0c-1.7,0.4-3.4,0.8-5.1,1.2
		c-0.5,0.1-1.1,0-1.4,0.8c1.3,0.8,2.7,1.5,3.2,3c0.3,1-0.9,5.2-2.1,5.3c-3.7,0.2-7.2,1.1-11.5,0.9c3.4,4.5,6.9,7.9,11,10.8
		c5.2,3.6,11.1,6,16.5,9.3c0.7,0.4,1.3,0.4,2.1,0.2c2.3-0.6,3.8-1.8,4.2-4.3c0.7-4.3,1.2-8.5,1.5-12.9c0.4-6.9-0.7-13.7,0.1-20.6
		c0.2-1.6,0.3-3.2,0.5-5.3c1.2,1.2,1.1,2.3,1.1,3.3c0.2,4.1,0.6,8.1,1.1,12.2c0.6,4.6,2,9.1,3.6,13.4c0.9,2.4,2,4.7,2.4,7.3
		c0.2,1.7,1.2,3.1,1.6,4.7C492.5,425.9,493,426.1,493.5,426.3z"/>
	<path class="st1" d="M547.7,471.1c-3.7-1.2-7-3-9.8-5.6c-2.1-1.9-2.5-4.4-1.4-6.7c1-2,2.7-2.8,5.6-2.5c1.8,0.2,3.5,0.2,5.2-0.2
		c1.6-0.4,2.8-1.3,3.2-2.8c0.5-1.6,0-3-1.3-4.1c-0.4-0.3-0.9-0.6-1-1c-0.8-2-2.5-2.8-4.4-3.3c-0.5,0-1-0.1-1.5-0.4
		c-1.9-0.4-3.6-1.1-5.3-2c-1-0.5-2.3-0.8-3-1.9c-2.1-3.3-4-6.7-2.9-10.9c-0.2-0.4-0.1-0.7,0.1-1c0-0.6,0.1-1.3,0.4-1.9
		c-0.2-0.4-0.1-0.7,0.2-1c0.1-0.8,0.2-1.6,0.2-2.3c0-2.2-0.4-4.2-1.3-6c0,0,0,0-0.1,0.1c-0.2,0.2-0.5,0.4-0.7,0.7
		c-4.8,5.4-10.6,9.4-17.5,11.9c-2.2,0.8-4.2,2-6,3.7c1.6,1.6,1.9,3.5,2,5.5c0.1,2.2,0.9,3.8,3,4.7c1.6,0.6,2.7,1.9,3.8,3.2
		c1.8,2.2,4,3.4,7,2.4c0.3-0.1,0.8-0.2,0.9-0.1c0.9,1.1,1.8,1.2,3.2,0.8c0.7-0.2,0.9,0.7,0.7,1.4c-0.3,1-1.1,1.6-1.9,2.1
		c-3,1.8-6.2,3-9.7,3c-3.4,0-6.7-0.1-10-0.6c-2.3-0.4-4.5-1.1-6.3-2.6s-4-1.4-6.1-1.8c-1.2-0.2-1.6,0.6-1.1,1.8
		c0.7,1.6,1.4,3.2,2.1,4.8c0.3,0.7,0.9,1.1,1.5,1.5c1.1,0.5,2.2,1,3.4,1.2c3.1,0.4,6.1,1.4,9.1,2c5.3,0.9,10.4,2.7,15.5,4.1
		c2.3,0.7,4.4,1.8,6.5,3.1c4.4,2.9,9.2,4.8,14.4,5.6c4.2,0.6,8.4,1.1,12.5-0.9c0.1-0.1,0.2-0.1,0.3-0.2c-1.6-0.4-3.1-1-4.6-1.9
		C551,472.2,549.3,471.7,547.7,471.1z"/>
	<path class="st1" d="M589.6,495.9c-2.1-0.8-4.2-1.5-6.2-2.6c-1.4-0.8-2.1-0.6-2.8,0.8c-0.4,0.7-0.5,1.5-0.8,2.3
		c-1.6,4.7-3.7,9-7.1,12.6c-0.9,1-0.9,1.5,0,2.5c1.9,2.2,3.1,4.8,3.4,7.8c0.2,2.7-0.6,4.9-3,6.3c-0.9,0.6-1.2,1.3-1.5,2.3
		c-0.9,3.5-2,6.9-4.1,9.9c-2.5,3.5-2.7,4.3-2.9,8.6c-0.1,1.9-0.6,3.7-0.8,5.5c0.5,0.4,0.9,0.3,1.3,0.2c2.4-0.6,4.8-1.3,7.2-1.9
		c1-0.3,1.9-0.9,2.7-1.5c5.4-4.4,8.8-9.9,9.7-16.8c0.5-3.4,1.6-6.5,3.3-9.4c0.9-1.6,1.3-3.2,1.5-5c0.4-4.6,0.8-9.3,2.1-13.7
		c0.5-1.6,0.6-3.1,0.6-4.7C591.9,497.1,591,496.4,589.6,495.9z"/>
	<path class="st1" d="M420.9,532.3c0.2-2.4,0.3-4.8,0.7-7.2c0.2-1.3-0.1-2.4-0.5-3.5c-0.4-1-1.5-0.8-2.3-1.1
		c-3.1-1.1-5.1-3.9-4.9-6.9c0.1-2.6,1.4-4.6,3.4-6.1c0.6-0.5,1.4-0.8,2-1.3c1.1-0.8,1.4-2.5,0.5-3c-3.1-1.6-4.1-4.2-3.8-7.6
		c0.1-1.2-1.2-2.8-2.4-3c-2-0.3-3.9-0.7-6-0.4c-2.7,0.4-3.6,2.2-2.3,4.6c1.6,2.7,1.5,5.4-0.3,7.8c-1.9,2.6-2.5,5.5-2.8,8.5
		c-0.2,2,0.1,3.7,1.4,5.4c2.2,2.9,2.5,6.1,1.2,9.5c-0.4,1-0.7,2-1.1,2.9c-0.3,0.8-0.1,1.5,0.6,1.8c2.1,1,3.7,2.8,5.7,3.9
		c4.4,2.4,7.8,5.8,9.9,10.4c0.4,0.9,0.8,1.8,1.4,2.5c1.5,1.8,3.3,2.9,5.9,2.5c-0.3-1.3-1-1.9-1.5-2.6
		C422.1,544.5,420.3,538.7,420.9,532.3z"/>
</g>
<g>
	<path class="st2" d="M350.8,645.3c-0.4-1.4-0.9-2.7-1.3-4.1c-0.2-0.7-0.5-1.2-1.2-1.4c-1.6-0.5-3-1.5-4.6-2.4c-1,2.3-2,4.5-3,6.7
		c2.2,2.9,4.3,5.8,6.3,8.7c0,0.1,0.1,0.1,0.1,0.2c0.6,0.8,1.2,1.6,1.7,2.4c0.2,0.3,0.4,0.6,0.6,0.9c0.5,0.8,1.1,1.6,1.6,2.4
		c1.9,2.8,3.8,5.5,5.8,8.2c0.2,0.3,0.5,0.6,0.7,0.9l0.1,0.1c0.5,0.5,1.1,1,1.6,1.5c0.1,0.1,0.2,0.2,0.4,0.3h9
		c-1.1-0.9-2.2-1.9-3.3-2.8C358.5,661,353.6,653.9,350.8,645.3z"/>
	<path class="st2" d="M599.6,544.5c1.2-1,2.4-2.1,3.4-3.4c4.7-6.3,9.6-12.5,11.4-20.5c0-0.1,0-0.2,0.1-0.2c0.4-0.7,0.9-0.9,1.5-0.3
		c0.6,0.6,1.3,1.2,1.8,1.9c1.1,1.3,2.5,2.2,3.9,2.6c0.2-2.5,0.3-5,0.2-7.6c-0.2-3.4-0.9-6.6-1.8-9.9c-0.7-2.4-2.1-4.3-4-5.8
		c-2.7-2.2-5.7-2.6-8.8-1.1s-4.7,4-4.7,7.5c0,1,0,2,0.3,2.9c1.5,4.7,0,8.8-2.3,12.8c-1.2,2-2.5,3.9-3.9,5.7
		c-1.5,2.1-2.4,4.3-2.7,6.8c-0.7,5.7-3.1,10.7-6.9,15c-1.9,2.1-3.7,4.4-5.6,6.5c-4.5,5-10.4,7.3-16.9,8.3c-1.8,0.3-3.7,0.4-5.5,0.6
		c-1.5,0.1-2.7,0.6-3.9,1.6c-4.8,4-9.5,8.1-13.6,12.9c-2,2.3-4.4,3.9-7.1,5.1c-4.9,2.3-9.9,4.4-15.1,6.1c-3.3,1.1-6.6,2-10,2.2
		c-4.6,0.3-9.2,0.9-13.9,1c-3.8,0.1-7.5-0.1-11.2-1.1c-6.7-1.8-13.6-2.7-20.3-4.8c-4.4-1.4-8.8-3-12.9-5.1c-3.5-1.7-6.5-4-8.9-7.1
		c-2.4-3-5-5.8-7.9-8.3c-1.2-1-2.2-2.3-3.3-3.5c-0.9-0.9-1.8-1.3-3-0.7c-0.1,0.1-0.3,0.1-0.4,0.2c-6.6,2.6-12.3,1-16.5-4.7
		c-2.7-3.7-4.5-7.7-5-12.3c-0.2-1.6-0.9-2.3-2.3-2.8c-6.9-2.7-10.6-7.8-11.7-15.1c-0.1-0.4-0.1-0.8-0.2-1.4
		c-1.6,0.4-1.8,1.5-2.1,2.6c-0.7,2.5-1.5,5-2.6,7.5c-0.5,1.1-1,2.2-1.8,3.1c-2.1,2.7-5.3,3.1-8.1,1.1c-0.5-0.4-1-0.8-1.4-1.2
		c-2.5,2.6-4.6,5.5-6.4,8.6c-1,1.6-1.6,3.5-2.8,5c-2.8,3.2-3.8,7.2-4.1,11.2c-0.1,0.9-0.2,1.7-0.4,2.5c1.1-0.9,2.3-1.8,3.6-2.5
		c0.7-0.4,1.2-1,1.9-1.5c4.3-3.5,8.9-6.4,14-8.7c1.4-0.6,3-0.2,4.3-1.2c0.8-0.7,1.8-0.6,2.6,0.3c0.8,0.8,0.7,1.8,0.1,2.7
		c-0.4,0.6-0.9,1.1-0.9,1.9c-0.1,2.4-1.4,4.2-2.9,5.9c-1.3,1.4-2.6,2.8-4,4.2c-5.5,5.4-9.1,11.9-11.4,19.2c-2,6.2-2.5,12.3-0.9,18.7
		c0.3,1.4,0.9,2.3,2.2,2.9c3.7,1.9,7.1,4.2,10.6,6.6c3.4,2.3,6.2,4.9,7.4,9c0.2,0.8,0.6,1.5,1,2.2c1.9,3.6,3.7,7.3,4.8,11.2
		c0.3,1,0.9,1.8,1.7,2.6c1.8,1.6,3.5,3.3,5,5.2c1.7,2.2,3.6,3.9,6.1,5.2s4.3,3.3,5.4,5.9c0.5,1.1,0.7,2.1,0.5,3
		c0.3,0.2,0.3,0.5,0.3,1.1c-0.1,2.5,0.3,5,0.6,7.4h33.1c-0.3-1.2-0.9-2.2-1.8-3.2c-3.4-3.5-6.9-6.9-10.4-10.2
		c-5.4-5.1-10.3-10.7-15.1-16.4c-2-2.5-3.5-5.3-4.7-8.3c-0.3-0.7-0.6-1.5-1-2.2c-1.9-2.7-5.7-2.6-7.4,0.2c-0.3,0.5-0.6,1.1-0.9,1.9
		c-0.2-0.2-0.3-0.2-0.4-0.3c-4.3-7.3-8.3-14.8-10.5-23c-1-3.9,0.2-7.6,2.3-11c1.4-2.1,3.8-2.2,5.5-0.4c0.3,0.3,0.5,0.6,1,1.3
		c0.2-2.1,0.5-3.8,0.6-5.6c0.4-3.9,1.2-7.6,2.9-11.1c1-2,2.1-3.8,3.6-5.3c0.9-0.9,1.8-1.6,3-1.9c1.7-0.5,3.3,0.1,4.2,1.4
		c0.2-0.5,0.4-0.9,0.7-1.4c1-1.9,1-1.9,3.1-0.9c2.4,1.1,4.4,2.9,6.7,4.2c1.7,0.9,2.9,2.2,4.1,3.5c1.7,1.8,2.7,4.1,4.9,5.5
		c1.9,1.2,3.7,2.9,5.2,4.7c2.2,2.6,5.9,3.4,7.9,6.4c0.2,0.4,0.8,0.4,1.2,0.7c2.1,1.3,4.4,2.2,6.5,3.4c2.7,1.5,5.5,2.9,8.5,3.9
		c5.3,1.8,10.6,3.4,16.2,4.3c2.8,0.4,5.6,0.9,8.5,1c5.4,0.1,10.7-0.6,15.9-1.6c3.8-0.7,7.5-1.4,11.2-2.5c5-1.5,9.8-3.5,14.4-5.9
		c3.8-1.9,7.5-4,11.4-5.6c6.5-2.7,12.2-6.4,17-11.6c2.9-3.2,5.2-6.6,6.9-10.6c0.6-1.4,1.4-2.2,2.8-2.7c2.3-0.8,4.7-1.6,7-2.5
		c2.7-1,5.3-2.4,7.2-4.5c3.2-3.5,6.3-7,8.4-11.3C595.4,549.3,597.1,546.7,599.6,544.5z"/>
	<path class="st2" d="M288.1,551.7c-0.2-0.6-0.3-1.3-1.1-1.7c-1,1.4-2.2,2.6-3.7,3.6c-2.2,1.4-4.6,2.2-7.1,2.8
		c-3.1,0.7-5.9,2-8.3,4.1c-0.3,0.3-0.6,0.5-1,0.7c-1.5,1-3.1,0.9-4.2,0c-1.2-1-1.5-2.4-0.8-4.1c2.9-6.5,6-12.9,11.4-17.8
		c3.4-3.1,5.3-7.1,6.2-11.7c0.3-1.4,0.3-2.8,0-4.3c-0.7-3.3-1.4-6.6-2-9.9c-0.3-2.1-0.9-4-2.3-5.6c-1-1.1-1.7-2.5-2.4-3.8
		c-1.5-2.7-3.3-5.1-5.1-7.6c-2.7-3.7-6.3-6.5-9.6-9.5c-1,1-1.7,2.1-2.2,3.5c-0.4,1.1-0.8,2.3-1,3.4c-1.1,4.9-2.2,9.8-3.3,14.7
		c-1.3,5.9-2.6,11.8-4,17.7c-1.4,5.6-2.9,11.1-4.9,16.5c-1.7,4.5-3.4,9-5,13.5c-2.8,7.9-4.6,16.1-6.5,24.3c0.8-0.8,1.6-1.5,2.4-2.3
		c4.8-4.9,9.7-9.8,14.5-14.7c0.8-0.8,1.6-1.8,2.7-2.3c0.3,1-0.2,1.8-0.5,2.6c-0.6,1.9-1.1,3.8-1.6,5.7c0.1-0.1,0.2-0.2,0.4-0.2
		c3.6-2.1,6.9-4.6,10.3-6.9c0.6-0.4,1.1-1,1.9-0.7c0.3,0.5,0.3,1,0.2,1.4c-1.2,5.4-2,10.8-3.1,16.2c-1.2,5.6-2.6,11.2-4.1,16.7
		c5.9,0.7,11.7,1.8,17.4,3.1l2.5,0.6l0.6,0.1l0.6,0.2l1.2,0.3l2.5,0.7c0.4,0.1,0.8,0.2,1.2,0.3l1.2,0.4l2.4,0.8l1.2,0.4
		c0.4,0.1,0.8,0.3,1.2,0.4l2.4,0.9l1.2,0.4c0.4,0.1,0.8,0.3,1.2,0.5c0.7,0.3,1.3,0.6,2,0.8c2.6-5.3,5.2-10.6,7.7-15.9
		c1-2.1,1.9-4.2,2.5-6.5c0.5-1.7,0.3-3-0.7-4.5C296.9,570.5,291.8,561.5,288.1,551.7z"/>
	<path class="st2" d="M675.6,451.7c-2.1-5.3-5.2-9.9-9.7-13.4c-1.6-1.3-2.3-2.6-2.2-4.4c0.1-2.8-0.2-5.6-1.2-8.2
		c-0.2-0.4-0.2-0.9-0.3-1.4c-0.8-3-0.5-6.2-0.9-9.3c-0.9-6.6-3.1-12.7-6.3-18.4c-1.9-3.4-4.1-6.7-4.7-10.7c-0.3-2.1-1.2-3.8-2.1-5.5
		c-0.6-1-1.3-1.6-2.1-1.9c0,0.1,0,0.1,0,0.2c-0.6,2-1.3,3.6-3.5,4.7c-3.3,1.7-5.1,5-6.2,8.5c-1.1,3.7-1.3,7.6-1.1,11.4
		c0.3,5.4,0.6,10.9,1.2,16.3c0.6,5.7,2,11.3,4.4,16.6c0.7,1.5,1.4,3.1,2,4.6c1,2.3,0.5,4.5-0.4,6.7c-0.3,0.7-0.8,1.2-1.4,1.7
		c-2.1,1.7-4.3,0.8-4.7-1.8c-0.4-2.5-1.2-4.1-3-5.9c-0.5,2.8-1.1,5.5-1.8,8.1c-0.2,0.7,0.2,1.2,0.5,1.8c3.9,6.8,5.5,14.3,6.5,21.9
		c0.3,2.3-0.5,4.3-1.6,6.4c-1.9,3.3-2.9,6.9-1.8,10.8c0.5,1.9,0.9,3.9,0.9,5.9c-0.1,6.2-0.5,12.3-2.4,18.2c-0.4,1.1-0.8,2.3-1.2,3.4
		c0.4-0.6,0.9-1.1,1.7-1.3c3.9-1,6.6-3.5,8.7-6.9c2.8-4.5,4.9-9.2,5.6-14.6c0.4-3.1,0.9-6.1,1.2-9.2c0.4-3.6,0.3-7.3,0-11
		c-0.2-2.7-0.5-5.4-0.8-8.1c0-0.5,0-1,0-1.4c0-0.7,0.5-0.9,1.2-0.7c5,1.6,8.6,5,11.8,8.9c1.3,1.7,2,3.6,2.6,5.6
		c0.9,3.3,2,6.7,2.6,10.1c0.3,1.8,0.5,3.7,1.3,5.3c1.6,3.2,3.2,3.7,5.9,1.4c2.3-2,3.5-4.7,4.4-7.5c0.9-3,0.6-6.2,1.1-9.2
		c0.6-4,0-8-0.3-11.9C679.1,461.9,677.6,456.7,675.6,451.7z"/>
	<path class="st2" d="M270.1,438.3c0.4,3.5,0.5,7,1.8,10.3c0.7,1.8,0.8,3.5,0.6,5.3c0.5-0.8,1.1-1.5,2-1.9c1.9-1,5.5-3.8,6.3-3.9
		c1.5-0.1,2.9-0.5,4.3-1.1c-0.2,0.1,0.2,5.1,0.1,5.6c-0.9,10.8-0.6,21.6,0.2,32.4c0.7,9,2.1,18,4.2,26.8c1.6-1,2.9-2.7,3.6-5.1
		c0.8-3,0.9-6.1,1.3-9.2c0.6-3.9,1.3-7.8,2.4-11.7c0.2-0.8,0.6-1.4,1.3-1.6c0.5-0.2,1-0.4,1.3-0.7c0-0.7,0.1-1.3,0.1-2
		c0.2-1.7,0-3.3-0.8-4.9c-1.1-2.3-1.7-4.8-2.3-7.3c-0.4-1.7-0.5-3.5-0.2-5.2c0.8-4.2,1.7-8.3,3.3-12.2c1.3-3,2.1-6.2,2.7-9.4
		c0.5-2.5,0.4-5.1-0.4-7.6c-1.2-4-4.6-6.2-8.7-5.8c-4.2,0.4-7.4,2.4-9.9,5.7c-1,1.3-1.9,2.8-2.8,4.2c-0.5,0.7-0.9,0.8-1.5,0.2
		c-0.2-0.2-0.4-0.3-0.5-0.5c-2.1-2.9-3.3-6.1-2.9-9.8c0.1-0.6,0.1-1.3,0-1.9c-1.1-6.3-0.1-12.4,1.8-18.4c1-3.1,2-6.2,3.1-9.3
		c0.4-1.2,0.4-2.3,0.2-3.5c-1.5-6.3-1.7-12.7-0.5-19c0.1-0.6,0.6-1.3-0.3-1.7c-0.8-0.3-1.1,0.4-1.5,0.9c-0.2,0.3-0.4,0.7-0.6,1
		c-1.9,3.2-3.7,6.3-5.7,9.4c-0.8,3.3-1.4,6.7-1.9,10.1c-0.7,5.2-1.2,10.4-1.3,15.7c0,3.7,0,7.5,0.3,11.2
		C270,428.1,269.6,433.3,270.1,438.3z"/>
	<path class="st2" d="M574.8,657.1c-2.1,2.3-3.7,5-5.6,7.5c-1.4,1.8-2.9,3.5-4.6,5.1h17.2c2.2-7.7,1.5-15.4-0.1-23.2
		C580.4,650.7,577.7,653.9,574.8,657.1z"/>
	<path class="st2" d="M662.9,569.4c-2-0.3-3.6-1-4.9-2c-0.1,0.3-0.2,0.6-0.3,0.9c-0.4,1.2-0.3,2.4-0.1,3.6c0.5,3.2-1.7,5.8-1.6,8.8
		c-1.8,3-2.3,6.4-3.2,9.7c-0.6,2.2-2.1,3.5-4.3,3.7c-2.5,0.3-4.7,1.4-6.6,3c-2.5,2.2-3.8,5.1-5.3,7.9c-1.1,2.1-2.6,3.2-4.8,3.4
		c-1,0.1-2.1,0.2-3.1,0c-1.8-0.5-3.6-0.4-5.5-0.4c-0.1,0-0.1,0-0.2,0c-1.7,2.1-3.7,4-6,5.6c-2.9,2.1-4.3,4.6-4.6,8.1
		c-0.4,3.8-1.2,7.6-2.7,11.1c-1.5,3.7-3.6,7-6.4,9.8c-2.3,2.2-3.9,4.8-5.1,7.7c-1.9,4.3-3.7,8.7-5.9,12.8c-1.3,2.5-2.8,4.9-5,6.6
		h38.3c0.1-0.1,0.2-0.2,0.4-0.3c0.5-0.5,1.1-1,1.6-1.5l0.1-0.1c0.2-0.3,0.5-0.6,0.7-0.9c0.8-1.1,1.6-2.1,2.3-3.2
		c0.9-4.7,1.8-9.4,2.2-14.2c0-0.4,0.2-0.8,0.3-1.2c0.9-2.5,3.5-3.1,5.4-1.2c0.8,0.7,1.2,1.7,1.6,2.7c0,0.1,0.1,0.2,0.1,0.2
		c1-1.4,2-2.8,3.1-4.2c2-4.6,4.8-8.6,8.2-12.3c2.9-3.1,5.1-6.5,6.8-10.4c1.4-3.1,2.9-6.2,4.4-9.3c0.5-0.9,0.9-2,1.9-2.4
		c0.9-0.4,1.1-1.1,1.3-1.8c0.7-2.8,1.2-5.6,1.4-8.5c1-10.2-1.2-20.1-2.4-30.1C664.6,570,664,569.5,662.9,569.4z"/>
	<path class="st2" d="M520.9,240.1c1.9,1.5,2.4,3.1,2.2,5.3c-0.1,1.3,0.3,2.6-0.3,3.8c-1.3,3.2-2.7,6.3-4.3,9.3
		c-0.3,0.6-0.7,1.1-0.7,1.8c-0.1,3-0.6,6-0.6,9.1c0.1,6.1,3.2,10.4,7.7,13.9c0.8,0.6,1,1,1,1.9c-0.1,2.3-0.1,4.6-0.1,6.9
		c-0.1,2.8,1,4.9,2.8,6.8c0.6,0.6,1.1,1.1,1.6,1.8c0.8,1.1,2,1.7,3.2,1.8c1.7,0.2,3.4,0.3,5-0.1c2.9-0.7,5.8-0.8,8.8-0.8
		c4.9,0,9.7-0.1,14.5,0.9l0,0c-0.5-0.7-0.9-1.5-1.2-2.4c-0.2-0.7-0.4-1.4-0.6-2.1c-0.5-2.2-1.5-4.2-3.4-5.7
		c-0.9-0.7-1.7-1.5-2.5-2.3c-1.8-1.8-3.8-3-6.4-3.8c-6.1-1.9-9.6-6.4-10.8-12.6c-0.1-0.5-0.1-1-0.2-1.4c-0.1-0.7,0-1.5-0.5-2.1
		c-0.5-0.5-1.2-0.1-1.8-0.1c-2.7-0.2-4.3-2.6-3.6-5.3c0.4-1.8,1.5-3.1,2.8-4.4c2.7-2.7,2.6-6.2-0.3-8.7c-0.5-0.5-1.2-0.9-1.7-1.3
		c-1.2-1-2-2.3-2.2-3.9c-0.5-2.7,1.9-4.9,4.6-4.2c1.7,0.4,3.1,1.4,4.1,2.8c1.4,1.8,3.6,2.2,5.3,3.5c0.9,0.7,2.7-0.3,3.1-1.3
		c1.3-3.4,3.1-6.4,5.4-9c1.3-3.4,2.6-6.7,4.5-9.9c1.4-2.4,2.7-4.7,4.8-6.5c1.5-1.3,2.6-3,3.2-4.9c0.8-2.4,2.5-4,5-4.7
		c1.6-0.5,2.9-1.4,3.6-2.9c0.5-1.1,1.3-1.7,2.4-2.2c3.7-1.7,7.5-2.8,11.4-3.3c1.9-0.3,3.7,0,5.2,1.2c1.4,1,2.8,2.1,4.2,3.1
		c2.2,1.6,4.7,2,7.2,0.9c0.4-0.2,0.7-0.3,1-0.3c0.9-0.2,1.7,0.1,2.5,0.8c0.1-3.4-0.4-6.7-2.5-9.5c-1.3-1.8-2.8-3.4-4.2-5.2
		c-1.6-2.2-3.4-4.2-5.8-5.6c-2.3-1.3-2.2-4.3,0.1-5.7c1.2-0.7,2.5-1.2,3.8-1.4c1.2-0.3,2.4-0.5,4-0.8c-1.7-1.4-3.3-2.1-5.1-2.6
		c-3.4-0.9-6.7-2.1-9.7-4.1c-2.9-2-6-3.5-9.6-4c-2.3-0.3-4.5-1.3-6.3-2.7c-1.5-1.2-3-1.4-4.7-1c-1,0.3-2.1,0.3-3.1,0.3
		c-2,1-3.8,2.3-5.7,3.4c-2.2,1.3-4.3,2.7-7.1,3.2c-2,0.3-3.5,2.4-4.2,4.6c-0.6,1.9-1,3.7-3.2,4.4c-0.4,0.1-0.7,0.8-1,1.3
		c-1.7,2.6-2.8,5.4-3.5,8.3c-0.1,0.5-0.3,1.1-0.4,1.6c-0.1,0.4-0.3,0.8-0.8,0.7c-0.4,0-0.5-0.4-0.5-0.7c-0.1-0.7-0.2-1.4-0.1-2.1
		c0-2.5,0.3-4.9,1-7.3c0.5-1.7,0.9-3.4,1.3-5.1c0.3-1.2,0.5-2.5,0.3-3.8c-0.5-4.5,0.3-8.7,1.8-12.9c1.4-3.8,3-7.6,4.9-11.1
		c-0.1-0.3,0.1-0.6,0.4-0.8c1.3-2.3,2.7-4.6,4.4-6.7c0.4-0.5,0.6-1,0.8-1.6c0,0,0,0,0-0.1c-0.6-3.6-0.9-7.1-0.8-10.7
		c0.1-4.1-0.1-8.1,0.4-12.2c0.4-3.8,0.7-7.6,1.4-11.3c0.1-0.5,0.1-1,0.1-1.4c0-1.8-1.1-2.9-3-3s-3.2,0.8-4.4,2c-2.2,2-4.1,4.3-6,6.5
		c-2.1,2.6-4.2,5.2-5.7,8.2c-0.8,1.7-2,3-3.6,4c-2.7,1.7-4.7,4-6.3,6.7c-0.9,1.5-1.2,3.4-2.6,4.5c-2.9,2.1-4,5.2-5.6,8.1
		c-0.8,1.4-1.4,2.7-1.5,4.3c-0.1,2.6-0.1,5.2,1,7.5c1,2.1,2,4.3,3.1,6.4c0.8,1.5,1.9,2.6,3.7,2.7c1.8,0.1,3.7,0.6,4.9-1.6
		c0.7-1.3,1.9-0.1,2.8-0.2c0.9,0,0.8,0.8,0.8,1.5c0.1,2.3-0.3,4.6-0.4,6.9c-0.2,3.1-0.5,6.2-1.3,9.2c-1.3,5.1-2,10.3-1.7,15.6
		c0.1,1.5,0.7,2.8,1.6,3.9c0.5,0.6,1.1,1.2,1.6,1.7c1.3,1.5,1.3,1.5-0.6,2.3c-0.5,0.2-1,0.5-1.4,0.9c-2.2,2.3-3.6,4.9-3.7,8.3
		c-0.1,4.1,0.2,8.1,1.7,12c0.8,2.2,1.1,5,0.3,7.5c-1.8-3.6-4.7-6.2-7.4-8.9c-0.7-0.7-1.5-1.3-2.4-1.5c-1.7-0.3-2.9,0.3-3.1,2.1
		c-0.2,1.8-0.2,3.6,0.3,5.5C515.5,234.1,517.7,237.6,520.9,240.1z M543.1,222.9c0.2-1.9,0.9-3.6,2.1-5c1.6-1.9,2.9-4,4.3-6.1
		c1.4-2.1,3-3.9,5.2-5.3c0.7-0.4,1.4-0.8,2.1-1.1c2.5-0.9,4.8-0.2,6.1,1.9c1.3,2.2,0.8,5-1.2,6.7c-1,0.9-2.2,1.2-3.6,2
		c0.5,0.3,0.7,0.5,0.9,0.6c3,1.5,3.2,3.2,0.7,5.5c-1.9,1.7-4.2,2.6-6.8,2.7c-1.5,0.1-2.9,0.2-4.1,1.5c-1.3,1.4-2.9,0.3-4.2-0.2
		C543.3,225.6,542.9,224.3,543.1,222.9z"/>
	<path class="st2" d="M372.5,317.1c1.5-1.4,3.3-2.5,5.1-3.5c2.9-1.6,5.8-3.4,9.3-3.3c1.4,0,2.3,0.5,2.9,1.7c0.8,1.7,1.6,3.5,2.6,5.1
		c1.8,3.1,4.2,5.3,8.2,5.3c1.8,0,1.9,0.2,2.1,1.9c0,0.2,0,0.5,0,0.7c0.2,1.9,1.2,3.1,2.9,3.8c1.6,0.6,3.1,0.2,4.4-1
		c1-1,1.9-1.9,2.6-3.1c1.3-2.2,3.1-3.8,5.5-4.8c2.7-1.2,5.4-2.5,8-3.8c1.3-0.6,2.4-1.6,3.8-2c3.3-1.1,5.9-3.3,8.3-5.5
		c7.8-7.1,12.5-16,14-26.5c0.2-1.8,1-3.1,2.7-3.9c3.2-1.4,5.7-3.8,7.8-6.6c1.3-1.8,2.5-3.8,2.4-6.1c-0.1-3.2,0.1-6.4,0-9.5
		c-0.1-2.3-0.5-4.7-2.3-6.1c-2.7-2.1-2.6-4.7-2.5-7.5c0.1-1,0.4-2,0.7-3c0.3-1,0.4-1.9,0-2.8c-0.8-1.7-0.8-3.6-0.7-5.4
		c0.1-3.2,0.8-6.3,0-9.5c-0.2-0.7-0.1-1.5,0.1-2.1c0.7-2.4,0.4-4.8,0.4-7.2c-0.1-5.1-4.4-8.4-9.5-7.3c-2.2,0.5-2.3,0.5-3.4-1.5
		c-0.9-1.5-1.8-3-3-4.3c-2.4-2.5-5.3-4.3-8.3-6c-3.2-1.9-6.7-2.9-10.2-4.1c-4.3-1.5-8.7-2.5-13.2-3c-4-0.4-8,0.3-11.9,0.5
		c-1.5,0.1-3,0.5-4.3,1.4c-1.2,0.7-2.4,1.6-2.6,3c-0.6,3.3-0.8,6.5,2,9.1c1,1,2.2,1.9,2.3,3.5c0,0.7,0.6,1.2,1.2,1.7
		c1.2,0.9,1,1.4-0.4,1.8c-0.4,0.1-0.7,0.2-1.1,0.4c-1.1,0.4-2.1,0.9-2.9,1.7c1.4,1.5,2.9,3,4.3,4.5c0.8,0.9,0.7,1.3-0.3,1.8
		c-0.4,0.2-0.7,0.3-1.1,0.4c-4.6,1.2-8.2,3.7-11.3,7.2c-2.8,3.1-4.8,6.6-5.8,10.6c-0.2,0.6-0.3,1.2-0.4,1.9c0.3,0.5,0.4,1,0.3,1.5
		s-0.4,1-0.8,1.5c-0.8,4.3-1.1,8.6-0.8,13c0.2,2.5,0.1,5.2,0.5,7.7c1.8-1.8,3.5-3.6,5.1-5.6c1.1-1.3,1.8-2.9,2.3-4.5
		c1.3-4.2,4.1-7.6,6.7-11c0.8-1.1,2-1.9,3.2-2.5c4.5-2.4,9.3-3.8,14.5-3.6c0.4,0,0.8,0,1.2,0.1c5,1.5,10.4,1.9,15,4.5
		c1.8,1.1,3.3,2.5,4.6,4.2c1,1.3,1.8,2.6,3.3,3.7c0.8-1,0.8-2.7,2.2-3.1c1.3-0.4,1.9-1.6,2.9-2.4c2.8-2.2,6.1-1.6,8,1.5
		c1.4,2.4,1.9,5.1,1.5,7.9c-0.4,2.7-0.3,5.4,0.3,8.1c0.5,0.6,0.8,1.2,0.8,2.1c0,0.2,0.2,0.4,0.2,0.7c0.1,0.4,0.2,0.7,0.2,1.1
		c0.2,0.5,0.4,1.1,0.7,1.6c0.4,0.9,0.7,1.8,1,2.7c0.3,1.3,0,2.6-1.1,3.4c-1.1,0.9-2.4,0.9-3.6,0.3c-0.5-0.2-1-0.6-1.4-0.9
		c-0.7,0.4-0.8,1-0.8,1.6c-0.3,5.3-2.8,9.6-6.1,13.5c-2,2.4-4.3,4.8-7.2,6.3c-0.5,0.3-0.9,0.6-1.1,1.2c-0.1,0.1-0.1,0.3-0.2,0.4
		c-4.1,5.5-8.7,10.4-13.7,15c-2.6,2.4-5.9,1.2-6.5-2.3c-0.5-2.8-2.4-3.7-4.6-4.2s-4.3-1.3-6.1-2.6c-1-0.7-2.1-1.4-3.1-2
		c-0.1,0-0.2,0-0.3,0c-5.3,0.4-8.8,3.2-11.1,7.9c-1.4,2.8-3.2,5.3-5.9,7.1c-1.8,1.2-3.5,2.5-5.1,3.9c-0.4,0.3-0.7,0.6-1.1,0.9
		c-0.3,0.2-0.6,0.5-0.8,0.7c-0.8,0.7-1.5,1.5-1.8,2.6c0.3,0,0.6,0,0.9-0.2C372.3,317.2,372.4,317.2,372.5,317.1z M445.8,225.8
		c-0.5,1.1-0.9,2.2-1.3,3.3c-0.6,1.7-1.4,2.3-3.2,2.4c-0.7,0-1.4-0.1-2.1-0.3c-2.2-0.8-4.5-1.6-6.9-1.9c-0.7-0.1-1.4-0.4-1.9-0.9
		c-1-0.8-1.6-1.8-1.4-3.1c0.2-1.2,1-2,2.1-2.3c0.4-0.1,0.8-0.1,1.2-0.7c-2.4-1.8-3.7-4.3-5.9-6.2c-2.8-2.4-2.5-6-1.1-9.1
		c0.8-1.7,2.4-2.5,4.2-2.8c1-0.1,2.1-0.2,3.1,0.2c5.5,2.4,10.3,5.6,11.6,12c0.3,1.5,0.8,2.9,1.4,4.3
		C446.5,222.4,446.6,224.1,445.8,225.8z"/>
	<path class="st2" d="M776.5,512c-3.4-6.7-6.1-13.8-7.9-21.1c-0.4-1.4-1-2.5-2-3.4c-5.6-5.4-10.8-11.1-16.1-16.8
		c-0.4-0.4-0.7-1.1-1.6-1.1c0,0.8,0,1.6,0,2.3c0.1,3.8,0,7.7-0.5,11.5c-1.6,14-5.6,27.4-10.4,40.6c-2.9,7.7-6.1,15.3-9,23
		c-3.1,8.2-7,15.9-12.2,23.1c-3.2,4.3-5.9,8.9-8.5,13.6c-0.6,1.1-0.8,1.9-0.1,3.1c0.7,1.1,0.7,2.4,0.7,3.7c0,3.2,0,6.5-0.1,9.7
		l0.7-0.2l0.6-0.2l0.6-0.1l2.5-0.6c4.9-1.1,9.8-2.1,14.7-2.8c0.4-2.8,0.7-5.5,1.4-8.3c1.8-7.6,4.1-15,6.9-22.3
		c1.8-4.8,3.7-9.7,6.4-14.2c4.3-7,8.3-14.2,11.9-21.6c1.8-3.7,3.1-7.5,4.2-11.4c1.4-4.8,2.3-9.8,3.3-14.7c0.1-0.4-0.1-1.1,0.5-1.2
		c0.6-0.2,1,0.3,1.4,0.7c0.9,1,2,1.8,3.4,2c0.5,0.1,1.1,0.4,1.5,0.8c2.5,2.2,5.4,3.9,7.8,6.2C776.6,512.2,776.6,512.1,776.5,512z"/>
	<path class="st2" d="M683.4,356.8c0.3-5.3-0.8-10.3-2.8-15.1c-2.2-5-6.1-8.7-9.9-12.5c-2.6-2.6-5.7-4.6-8.4-7.1
		c-1.8-1.7-3.9-3.2-6.1-4.2c-3.5-1.6-6.7-3.7-10-5.5c-2.6-1.4-4.6-4.1-8-3.7c-0.3,0-0.7-0.4-1-0.6c-0.3-0.1-0.7-0.2-1-0.3
		c-1.1,3.6-2.2,7.2-4.1,10.4c-1,1.7-1.2,3.4-1.1,5.3c0.1,1.8,0.1,3.7,0.1,5.5c0,6.4-4,9.2-9.4,9.6c-4.1,0.3-8-0.8-11.6-2.6
		c-2.8-1.4-5.6-2.8-8.3-4.4c-3.1,0.9-4,4.4-1.6,6.9c1.2,1.2,2.3,2.4,3.2,3.9c0.6,1,1.2,2,2.2,2.8c0.9,0.7,0.9,2.1,0.2,3
		c-0.6,0.7-1.2,1.2-2,1.7c-3.1,2.2-6,4.7-9,7.1c-2.2,1.8-4.1,4.2-7.5,3.3c-0.8,0-1.7,0-2.5,0c0,0.9-0.1,1.9-0.4,2.9
		c-0.4,1.6-1.1,3.2-1.8,4.7c-0.4,0.9-0.4,1.6,0.3,2.4c1.8,2.1,2.8,4.4,2.2,7.3c-0.3,1.4,0.7,2.3,1.5,3.1c6.9,7.8,6.5,18.6-1.1,25.8
		c-1.4,1.3-2.5,2.6-3.5,4.2c-1.3,2-2.9,3.6-4.8,5c-0.7,0.5-1.4,1.1-2,1.7c2.3-0.9,4.6-1.7,6.8-2.6c3.3-1.4,6-4,9-5.9
		c7.1-4.5,12.8-10.5,18.5-16.5c0.9-0.9,2-1.9,2.1-3.4c0.2-3.8,1.4-7.5,2-11.3c0.1-0.8,0.2-1.8,1.3-2.1c1-0.3,1-1.1,1-1.9
		c0-1.2,0-2.4-0.1-3.6c0-0.7,0.1-1.4,0.6-2c2-2.6,3.4-5.4,3.8-8.6c0.1-0.5,0.2-0.9,0.8-1.1c1.9-0.7,3.1-2.2,4.3-3.7
		c0.9-1.2,1.9-2.4,3.4-3c1.3-0.5,2.7-0.9,4-1.5c1.1-0.5,2.1-0.5,3.3-0.3c4.1,0.7,8.3,0.6,12.4,0.1c2.2-0.3,3.7,0,4.9,1.9
		c0.8,1.3,1.7,1.7,3,0.9c1.5-0.9,2.8-0.7,4.1,0c5.6,2.6,10.7,6,14.7,10.8c1.7,2,3.1,4.3,3.8,6.9c0.5,1.9,1.2,3.8,1.6,5.7
		c0.1,0.7,0.5,1.4,1.4,1.3c0.8,0,1.3-0.6,1.6-1.2c0.1-0.2,0.2-0.5,0.2-0.7c0-2.2,0.2-4.3-0.1-6.5c-0.4-3.3-1.2-6.6-0.3-9.9
		C683.2,358.4,683.4,357.6,683.4,356.8z"/>
	<path class="st2" d="M347.4,524.8c3.4,0.2,6.5-0.6,8.8-3.3c1.1-1.2,1.6-2.7,2.2-4.2c0.4-0.9,0.5-2,1.5-2.9c1.2,1.4,1.5,3.1,2.9,4.2
		c0.5,0.4,1.1,0.8,1.6,1c0.5-0.9,1-1.8,1.6-2.7c0.6-1.1,0.9-2.2,0.9-3.4c0-3,0.8-5.8,2.1-8.5c0.4-0.7,0.8-1.4,1-2.2
		c0.7-3.6,1.5-7.2,2.5-10.7c0-0.1-0.1-0.3-0.2-0.6c-1.8,0.5-3.6,0.9-5.5,1.4c-0.8,0.2-1.4,0.8-1.6,1.6c-0.2,0.7-0.4,1.4-0.7,2
		c-0.5,1.3-1.3,2.2-2.8,2.3c-1.4,0.1-2.4-0.7-3.1-1.9c-0.7-1.1-0.9-2.4-1-3.7c-0.2-2-0.4-4-0.5-6c-0.2-3.1,0.7-6,2.3-8.7
		c1.7-3,4.1-5.5,6.7-7.7c5.5-4.7,9.4-10.6,12.6-17c0.6-1.1,1.4-2.3,1-3.6c-0.8-2.6-0.5-5.6-3-7.6c-2.4-2-4.7-4.1-7.1-6.1
		c-0.8-0.6-1.6-1-2.5-1.3c-4-1.7-7.8-3.7-10.7-7.1c-0.6-0.8-1.5-1.1-2.4-1.5c-4.7-1.7-7.8-5-9.3-9.7c-1.4-4.3-2.1-8.5-2-12.6
		c-0.5,0.7-1.1,1.4-1.6,2.1c-1,1.3-2.5,1.9-3.5,3.2c-3.5,4.8-5.6,10.1-5.7,16.2c0,1.9,0.3,3.8,0.5,5.7c0.3,2.8,1.3,5.2,3.5,7.1
		c0.6,0.5,0.9,1.1,0.8,1.9c0,1.6-0.2,3.2,1.5,4.2c0.2,0.1,0.3,0.5,0.4,0.8c0.9,3.6,3.2,6.2,6.4,7.9c3.8,2,4.5,5.7,5.5,9.3
		c0.4,1.3,0.1,2.9,0.1,4.3c0,0.6-0.1,1.2-0.5,1.8c-2.6,4-4.1,8.5-6.2,12.7c-0.7,1.4-1.4,2.9-1.9,4.4c-1,2.8-2,5.7-2.1,8.8
		c-0.1,3-0.9,6-0.9,9c0,1.8,0.4,3.7,0.4,5.5c0,4.7,1.8,8.9,3.9,12.9C344.4,523.4,345.6,524.7,347.4,524.8z"/>
	<path class="st2" d="M441.4,139.3c-0.1,3.1,0.9,5.8,2.1,8.5c0.6,1.2,1.2,2.4,1.8,3.6c0.3,0.7,0.7,1.3,0.4,2.1
		c-1.3,2.7-0.8,5.5-0.8,8.3c0,1.4,0,2.9,0,4.3c0.1,4.2,1.9,7.6,5.1,10.4c0.8,0.7,1.8,1.6,2.8,1.8c3.1,0.4,6.1,0.1,8.6-1.9
		c1.3-1,1.3-1,2.3,0.3c1.2,1.5,2.5,3,3.9,4.2s2.2,2.6,2.8,4.3c0.4,1.2,0.9,2.6,1.8,3.3c2.1,1.7,4.3,3.2,7.5,2.9
		c4.4-0.4,8-2.8,8.6-7.2c0.5-3.6,0.1-7.4,0-11.1c0-0.1-0.1-0.1-0.1-0.2c-1.2-3.3-1.3-6.7-1.1-10.1c0.1-3.5,0.6-7,0.5-10.5
		c0-0.2,0-0.5,0.1-0.7c0.5-2.9,0.7-5.8,0.9-8.8c0.2-3.4-0.2-6.9-0.5-10.3c-0.2-1.7-0.8-3.3-1.8-4.6c-2.5-3.2-7-3.8-10-0.7
		c-2.2,2.2-3.4,4.9-3.5,8.1c0,2.2-0.1,2.1-2.1,2.9c-1.1,0.4-2.2,0.9-3.3,1.4c-1.8,0.8-2.5,0.6-3.7-1c-2.4-3.3-3.5-7.1-4.4-11
		c-0.8-3.5-0.5-7-0.8-10.5c-0.3-4,0.1-8.1,0.5-12.2s1.2-8.2,1.7-12.3c0.3-2.3-1.3-3.8-3.6-3.6c-2.1,0.2-3.2,1.7-4.3,3.1
		c-2.1,2.5-3.3,5.4-4.9,8.2c-2.2,3.9-2.8,8.1-2.9,12.4c0,1.4-0.4,2.4-1.4,3.4c-2.3,2.2-3.4,5-3.4,8.1c0,2.9-0.3,5.8,0.7,8.7
		C441.5,134.8,441.5,137.2,441.4,139.3z"/>
	<path class="st2" d="M357.5,372c0,0.5,0,1,0.1,1.4c1.5,3.8,3.8,7,7.8,8.6c1.7,0.7,3.6,0.5,5.4,0.8c2.5,0.4,3.1,0.6,3.7,3.1
		c0.9,3.7,2.3,7.1,4.1,10.4c3.3,6.1,7.7,11.3,13.5,15.2c0.8,0.6,1.7,1.1,2.5,1.6c-0.4-2.4-0.4-4.9-0.6-7.3c0-0.5,0-1.1,0.1-1.8
		c0.6-3-0.4-5.9-0.4-8.8c0-1-0.9-1.3-1.5-1.7c-2.7-2.1-4.5-4.8-5.1-8.1c-0.6-3.1,0-6,1.7-8.7c0.7-1.1,1.6-2.2,2.5-3.2
		c2.6-2.8,4.9-5.9,6.3-9.6c1.6-4.1,3.9-7.6,7.2-10.6c1.3-1.2,2.5-2.4,3.8-3.6c-0.1-0.4-0.3-0.7-0.6-1c-0.6-0.6-1.4-0.5-2,0
		c-2.8,2.2-6.1,2.1-9.3,2c-3.6-0.2-7.1-0.9-10.2-2.9c-1.2-0.8-2.4-1.6-3.6-2.4c-4.1-2.7-8.2-2.7-12.3,0c-1.1,0.7-2.3,1.5-3.5,1.9
		c-1.5,0.5-2.6,1.6-3.4,2.8c-0.8,1.3-1.7,2.5-2.5,3.8c-2.3,4-4.3,8-3.9,12.8C357.6,368.4,357.5,370.2,357.5,372z"/>
	<path class="st2" d="M582.4,295.8c-0.6,0.3-1.3,0.7-1.9,0.9c4.5-1.3,8.4-3.5,11.8-6.8c3.1-3,5.5-6.6,8.2-9.9c0.3-0.4,0.7-0.8,1-1.2
		c1-1.2,1.9-2.4,2.4-3.9c-2.8-0.1-5.6-0.3-8.3-0.6c-0.9-0.1-1.5-0.2-1.9-0.5c-3.4,2.2-7.4,3.5-11.5,4.2c-1.6,0.3-3.1,0.3-4.2,1.8
		c-0.5,0.6-1.4,0.7-2.2,0.8c-1.4,0.1-2.9,0.2-4.3,0.3c-3.7,0.1-7.1-0.9-10.2-3.1c-0.6-0.4-1.4-1.1-2.1-0.6c-0.6,0.5-0.1,1.4,0.1,2
		c2.3,6.5,6.6,11.2,13,13.9c1.6,0.7,3.3,0.4,5,0.2c1.4-0.1,2.9-0.3,4.3-0.4c0.8-0.1,1.5,0.1,1.8,0.9
		C583.6,294.7,583.1,295.4,582.4,295.8z"/>
	<path class="st2" d="M370.4,318.4c-0.4,0-0.7,0.2-0.9,0.6c0.1,0,0.2,0,0.3,0C370.1,318.9,370.3,318.7,370.4,318.4z"/>
	<path class="st2" d="M371.4,317.5c-0.2,0.2-0.3,0.3-0.5,0.5c0.1,0,0.2-0.1,0.3-0.2C371.3,317.7,371.4,317.6,371.4,317.5z"/>
</g>
<g>
	<path class="st1" d="M282.9,322.4c-0.7,0.2-1.4,0.4-2.1,0.5c-0.9,0.2-1.9,0.5-2.8,0.6c-3.1,0.3-6-0.2-7.8-3.1
		c-1.7-2.7-0.9-5.5,0.8-7.9c2.2-3,3.9-6.3,5.5-9.7c-8.8,6-17.6,15.1-18.7,13.9c-1-1,6.2-7.3,5.8-16.9c-0.1-2.6-0.3-6.1-2.6-7.9
		c-3.8-3-9.2,1.6-11.6-0.5c-3.4-3.1,6-14.4,7.9-32.2c0.2-1.6,6.8-59,5.3-53.9c-11.5,38.4-27.7,54.4-29.5,57.6
		c-3.2,5.7-6.3,11.3-8.6,16.8c0.1,6.3,0.8,12.6,1.8,18.9c0.7,4.3,1.5,8.7,2.7,12.9c0.7,2.6,1.8,5,3.6,7.1c0.8-0.7,0.8-1.5,1.1-2.3
		c1.2-3.3,2.7-6.5,4.5-9.5c0.7-1.2,1.3-2.8,3.1-2.4c1.9,0.4,2.1,2,2.2,3.5c0.3,3.5,0.4,7,0.6,10.5c0.1,3.5,0,6.9-0.9,10.3
		c-1.1,4.4-1.5,8.8-1.6,13.3c0,1.2-0.2,2.4-0.2,3.6c-0.3,6.2-1.8,12.2-4.6,17.8c-0.9,1.8-1.4,3.6-1.6,5.5c-0.3,3-0.7,6-1.6,8.9
		c-0.4,1.2,0.1,1.5,1.1,1.8c2.2,0.5,4.3,0.2,6.3-0.7c5.1-2.1,10.1-4.4,14.8-7.4c7.3-4.9,13.4-10.9,17.4-18.8
		c3.3-6.6,6.6-13.2,10.3-19.5c1.3-2.2,2.4-4.5,3.1-7c0.4-1.3,1.6-2.9,0.6-3.7C286.2,321.7,284.4,322.1,282.9,322.4z"/>
	<path class="st1" d="M781.6,337.1c-5.2-9.7-10.2-19.4-11.9-30.5c-0.1-0.6-0.3-1.1-0.4-1.6c-1.9-6.4-3.1-12.9-4.1-19.5
		c-1.7-12-1.8-23.9,0.4-35.8c0.6-3.5,1.2-7,1.8-10.5c-0.8-4.2-1.7-8.1-2.7-10.4c-3.2-7.5-4.4-6.3-8.3-17.8
		c-0.7-2.1-17.9-33.6-20.3-33.6c-2.4,0,13.3,22,4.2,54.1c-0.6,2,0.8,24.9,0,26.9s6.2,13.6,6.2,17.5s4.4,12.3,5.5,19.8
		c1.2,7.5-2.4-0.4-7.5-2.4s-6.3-11.5-11.1-23.3c-2.7-6.8-11.1-14.4-17.7-19.8c0.5,3.1,0.8,6.3,1.6,9.3c2.9,11.3,6.4,22.4,12.2,32.7
		c1.6,2.9,3,5.8,4.4,8.8c2.1,4.2,4.6,8.1,7.7,11.5c0.8,0.9,1.5,1.8,2.1,2.9c1.9,3.7,0.7,6.3-3.3,7.4c-0.1,0-0.1,0.1-0.2,0.1
		c0,0.2,0,0.3,0.1,0.5c0.3,0.4,0.5,0.8,0.8,1.2c3,4.1,6.4,7.7,10.5,10.8c3.6,2.8,7.6,4.7,11.8,6.3c0.8,0.3,1.6,0.4,2.4,0.4
		c4.8-0.2,9.6-0.5,14.3-1.6C783,339.7,783,339.7,781.6,337.1z"/>
</g>
<g>
	<path class="st3" d="M410,263.7c-4.7-1.1-8.3-4.3-10.3-8.3c-0.3,0-0.6,0-0.9-0.1c-0.8-0.2-1.5-0.6-2.2-1c-0.4,7.3,4.4,14,11.8,15.8
		c8,2,16.1-2.7,18.5-10.5c-0.6-0.2-1.2-0.3-1.8-0.5C421.5,263.1,415.7,265.1,410,263.7z"/>
	<path class="st3" d="M587.9,254.4c-2.1,4.9-6.6,8.6-12.2,9.4c-5.3,0.7-10.4-1.4-13.7-5.2c-0.6,0.6-1.4,0.9-2.2,1.1
		c2.2,7,9.2,11.6,16.8,10.6c7.8-1,13.4-7.7,13.4-15.3C589.2,255,588.5,254.8,587.9,254.4z"/>
</g>
<g>
	<path class="st4" d="M697.8,544.6c-1.1-0.6-1.8-1.6-2.4-2.6c-1.7-2.6-3.3-5.3-5-7.9c-0.3-0.4-0.4-1.1-1.1-1
		c-0.5,0.7-0.3,1.6-0.5,2.3c-0.4,2-0.4,4.3-1.3,6.1c-1.8,3.7-3.6,7.5-6.3,10.7c-0.9,1.1-1.5,2.4-1.8,3.9c-0.4,1.9-0.7,3.8-0.8,5.7
		c0,1.8,0,3.5,0.1,5.3c0.1,1,0.3,2.2,1.7,2.3c1.7,0.1,2.3,1.2,2.6,2.6c0.6,2.3,0.9,4.7,1.4,7.1c0.9,4.4,1.9,8.7,2.8,13.1
		c1-0.5,1.1-1.2,1.3-1.9c3.8-8.5,8.1-16.6,13-24.5c4.1-6.6,8-13.3,10.5-20.7c2.8-8.4,5.7-16.8,8.7-25.1c3.1-8.6,5.1-17.3,6.3-26.3
		c0.1-0.8,0.5-1.7,0.2-2.6c-0.7,0.6-0.8,1.4-1.1,2.1c-1.6,4-3.8,7.8-6.4,11.2c-2.3,3-4.8,5.8-7.5,8.4c-2.6,2.7-5.2,5.4-7.9,8.1
		c-0.7,0.8-1.3,1.6-1.4,2.7c-0.5,4.1-1.1,8.2-1.7,12.3c-0.2,1.1-0.2,2.2,0.1,3.3c0.3,1.2,0.6,2.3,0.3,3.6
		C701.4,544.8,699.5,545.7,697.8,544.6z"/>
	<path class="st4" d="M249.1,485c-4,3-7.7,6.5-11.3,10.1c-1.4,1.4-2.7,3-3.6,4.8c-4.6,9.7-8.4,19.7-10.2,30.4
		c-1.8,10.9-2.8,21.9-4.3,32.8c-1,7.4-1.6,14.8-2.4,22.2c-0.2,1.5-0.6,3-0.5,4.5c0.3,0,0.5,0.1,0.6,0c0.4-0.2,0.9-0.4,1.3-0.6
		c4.5-2.3,8.6-5.2,12.3-8.6c1.9-8.2,3.6-16.4,6.5-24.3c1.6-4.5,3.3-9,5-13.5c2.1-5.4,3.6-10.9,4.9-16.5c1.4-5.9,2.7-11.8,4-17.7
		c1.1-4.9,2.2-9.8,3.3-14.7c0.3-1.2,0.6-2.3,1-3.4c0.5-1.3,1.3-2.5,2.2-3.5c-1.8-1.6-3.4-3.3-4.9-5.2
		C251.7,482.9,250.4,484,249.1,485z"/>
	<path class="st4" d="M298.3,484.2c-0.7,0.3-1.1,0.9-1.3,1.6c-1.1,3.8-1.8,7.7-2.4,11.7c-0.4,3.1-0.5,6.2-1.3,9.2
		c-0.7,2.4-2,4.1-3.6,5.1c0.6,2.4,1.2,4.8,1.9,7.1c6.7,22.1,15.8,43.1,27.3,63c0.2,0.3,0.3,0.7,1.1,1c-0.6-3.4-1.1-6.6-1.7-9.8
		c-1-6.2-0.7-12.3,1.3-18.3c1.1-3.3,2.2-6.7,3.4-10c1.1-3,2.3-6,4.1-8.6c0.6-0.9,0.8-1.9,1.2-2.9c0.5-1.2,0.3-2.1-0.6-3
		c-1-1-2-2.1-2.9-3.2c-0.6-0.7-1-0.8-1.7-0.1c-1.7,1.5-3.6,1.4-5.6,0.5c-2.4-1.2-4.6-2.6-6.5-4.5c-4.6-4.7-7.7-10.1-9.2-16.5
		c-1.8-7.6-2.7-15.2-2.2-23C299.2,483.8,298.8,484.1,298.3,484.2z"/>
	<path class="st4" d="M259.4,562.3c-3.4,2.3-6.8,4.8-10.3,6.9c-0.1,0.1-0.2,0.2-0.4,0.2c-1.2,4.4-2.2,8.9-2.7,13.5
		c-0.2,1.5-0.7,2.9-1.3,4.3c-1.1,2.5-2.2,5-3.3,7.5c3.4,0.1,6.7,0.4,10.1,0.7c0.9,0.1,1.8,0.2,2.7,0.3c1.5-5.5,2.9-11.1,4.1-16.7
		c1.1-5.4,1.9-10.8,3.1-16.2c0.1-0.5,0.1-1-0.2-1.4C260.5,561.3,259.9,561.9,259.4,562.3z"/>
	<path class="st4" d="M641.7,597c1.9-1.7,4.1-2.7,6.6-3c2.2-0.2,3.8-1.6,4.3-3.7c0.9-3.3,1.4-6.7,3.2-9.7c-0.1-3,2.1-5.6,1.6-8.8
		c-0.2-1.2-0.2-2.4,0.1-3.6c0.1-0.3,0.2-0.6,0.3-0.9c-1.5-1.2-2.5-3-2.9-5.3c-0.4-1.7-0.5-3.5-0.3-5.2c0.3-2.1,0-4.1-0.6-6.1
		c-0.4-1.4-0.8-2.8-1.2-4.1s-0.4-2.7-0.1-4c0.9-3.7,4.4-4.9,7.4-2.6c0.8,0.6,1.6,1.4,2.2,2.2c0.7,0.8,1.3,1,2.2,0.3
		c2-1.5,4-2.9,6-4.4c3.4-2.7,6-6.2,7.6-10.3c0.6-1.6,1.4-3.2,1.3-4.8c-0.3-3.8-0.4-7.7-1.8-11.3c-1.1-2.8-0.5-5.2,1.4-7.3
		c0.8-0.8,1.7-1.5,2.6-2.1c2-1.2,3.4-2.8,4.6-4.8c0.8-1.5,1.7-2.9,2.4-4.4c2-4,4.3-7.8,6.9-11.5c4.3-6.4,6.9-13.5,8.4-21
		c0.2-0.8,0.4-1.6,0.1-2.4c-0.2-0.8-0.4-1.6-1.4-1.7s-1.2,0.6-1.5,1.3c-0.9,1.7-1.7,3.4-2.9,4.9c-1.7,2.1-3.7,3.8-6.4,4.4
		c-1.9,0.5-2.2,0.2-1.7-1.7c1-3.3,1.7-6.7,1.9-10.1c0.4-6.4,0.1-12.8-2.5-18.8c-1.8-4-3.9-7.9-6.1-11.7c-1.9-3.4-3.7-6.9-5.6-10.3
		c-0.3-0.6-0.6-1.1-0.8-1.8c-0.7-2-0.2-3.9,1.3-5s3.6-1,5.3,0.4c0.5,0.4,1,0.8,1.4,1.3c0.6,0.7,1.2,0.9,2.1,0.9
		c2.4-0.1,4.6,0.7,6.6,1.9c2.4,1.4,4.6,2.8,7,4.2c1.4,0.8,2.8,1.6,4.2,2.4c0.9,0.5,1.6,0.4,2-0.7c1.2-2.9,1.6-8-2-11
		c-0.6-0.5-1.2-1.1-1.6-1.8c-0.8-1.6-0.3-3.3,1.3-4c1-0.5,2-0.4,3-0.1c2,0.6,3.6,1.7,5.1,3c0.6,0.5,1,1.2,1.6,1.3
		c0.5-0.2,0.6-0.4,0.6-0.6c0.1-5.4,0.7-10.7-0.2-16.1c-0.5-3.2-0.7-6.4-0.8-9.6c-0.2-3.6-0.6-7.2-1.2-10.7c-0.4-2.5-1-5-2.6-7.2
		c-1.4-2.1-2.4-4.5-3.3-6.9c-0.3-0.9-6.8-20.9-10.9-25.7c-1.3-1.5-2.4-3-3.6-4.5c-1.8-2.2-3.8-4.3-5.9-6.3c-2.4-2.2-5-4.3-7.8-6.1
		c-1.5-1-2.9-2-4.3-3.1c-0.7-0.5-1.3-1.2-1.9-1.9c-1.9-2.6-1.1-5.8,1.7-7.3c0.4-0.2,1-0.1,1.2-1.1c-4.3-2.4-6.7-7.2-11.2-9.7
		c-0.1-0.1-0.3-0.2-0.4-0.3c-2-1.7-1.5-4.5,0.9-5.4c0.7-0.3,1.6-0.4,2.3-0.5c3.3-0.4,5.1-1.8,5.6-5c0.4-3.1,0.8-6.3-0.1-9.5
		c-0.7-2.6,0.1-4.5,2.5-5.9c0.9-0.5,1.8-1,2.7-1.6c0.4-0.2,0.8-0.5,0.9-1.1c0.2-1.5-1.8-5-3.3-5.5c-1.4-0.5-2.8-0.8-4.1-1.2
		c-3.2-1-5.2-3.1-5.6-6.5c-0.2-1.5-0.7-2.8-1.5-4c-1.4-2.1-2.7-4.2-4.2-6.2c-2.2-2.8-5.1-4.3-8.7-4.1c-0.9,0-1.8,0.1-2.6-0.1
		c-2.3-0.5-3.8,0.5-5.3,2.3c2,1.6,3.2,3.9,5.5,5.2c2.8,1.6,5.1,3.9,7.5,6c0.7,0.6,1.4,1.3,0.9,2.3c-0.5,1.2-1.5,0.9-2.5,0.7
		c-0.5-0.1-1.1-0.2-1.6-0.3c-3.6-0.6-7.3-1-11-0.3c-0.4,0.1-1-0.1-1.1,0.7c2.7,2.5,6.8,3.5,8.5,7.3c-0.3,0-0.4,0.1-0.6,0.1
		c-3.9-1.6-7.6-3.8-11.6-5.1c-1-0.3-2-1.1-2.1-2.1c-0.2-2.6-1.9-4.4-3.1-6.4c-1.8-2.8-4.3-4.9-7.5-6.2c-1.3-0.5-2.5-1.1-3.7-1.7
		c-1-0.4-1.7-1.2-2.2-2.1c-0.2-0.4-0.4-0.8-0.1-1.3c1.3-2.4,2.8-4.6,5.4-5.5c1.9-0.7,3.4-1.7,4.8-3c0.5-0.5,1.1-0.9,1.7-1.3
		c7-4.8,14.7-4.7,22.6-3.1c0.2,0,0.5,0.2,0.6,0.3c0.4,0.3,0.3,0.8-0.1,0.9c-0.4,0.2-0.9,0.2-1.4,0.2c-2.5,0.3-4.9,0.9-7.2,1.7
		c-1.1,0.4-2.3,0.9-3,2.2c1,0,1.7,0,2.4,0c2.9,0,5.8,0.3,8.5,1.4c5.2,2.1,9.6,5.4,13.7,9.1c0.4,0.4,0.8,0.8,1.1,1.3
		c1.3,2.2,3.5,3.4,5.1,5.4c0.4,0.5,1,0.5,1.5,0.6c3.1,0.6,5.6,2.3,7.9,4.4c3.2,2.9,5.9,6.1,7.9,9.9c1.5,2.9,2.9,5.9,4.3,8.8
		c0.7,1.5,0.5,2.8-0.7,4.2c-2.6,2.9-4.4,6.2-4.5,10.3c0,2.7,0.4,5.3,1.7,7.7c1.8,3.7,2.7,7.5,1.9,11.6c-0.2,1.3-0.1,2.5,0.5,3.7
		c1.2,2.3,2,4.7,2.9,7.1c2.9,7.5,5.7,15.1,9.2,22.4c0.4,0.7,0.9,1.8,1.5,3.1c3.8,7.9,11.8,24.2,15.2,27.4
		c7.3,6.9,10.7,15.5,11.5,25.4c0.5,6.5,0.2,12.9-0.3,19.4c-0.5,5.9-0.4,11.8-0.1,17.7c0.2,4.5,1.2,8.9,3.9,12.7
		c5.4,7.4,10.8,14.7,18.2,20.3c0.4,0.3,0.6,0.8,1.2,0.5c0-0.2,0.1-0.5,0.1-0.7c-0.1-0.6-0.1-1.1-0.3-1.7c-1.1-4.5-1.3-9-1.2-13.6
		c0-5.4,0-10.7-0.1-16.1c-0.2-8.8,0.6-17.8-1.8-26.5c-0.2-0.8-0.3-1.6-0.4-2.4c-0.4-2.9-1.2-5.8-2.2-8.6c-2.1-5.9-4.6-11.6-7.4-17.1
		c-1.9-3.6-3.9-7.2-6-10.7c-3.4-5.5-6.4-11.1-9-17c-1.9-4.4-4.2-8.6-5.3-13.4c-0.8-3.2-1.2-6.4-1.1-9.7c0-1,0-2.2,0.8-2.9
		c2.1-1.8,3.5-4.6,7.2-4.9c-2.2-2.5-4-4.6-5.9-6.7c-3.1-3.3-6.1-6.8-8.7-10.5c-1.7-2.4-3.2-5-4.1-7.8c-1.3-4.2-3.4-8.1-5.7-11.9
		c-1.8-3-3.6-6-5.3-9.1c-2-3.8-3.4-7.8-4.1-12c-0.6-3.9-1.4-7.7-2.1-11.6c-1.4-7.1-3.4-14-4.8-21c-1.1-5.3-3.1-10-6.7-14.1
		c-1.9-2.2-3.7-4.4-5.6-6.6c-0.5-0.6-0.9-1.1-1.7-1.3c-4.4-1.7-8.3-4.2-12-6.9c-1.7-1.2-3.4-1.8-5.5-1.5c-3.7,0.4-6.7-1-9.3-3.5
		c-1.3-1.2-2.5-2.5-3.4-4c-0.5-0.7-1-1.2-1.9-1.3c-4.1-0.5-8.1-1.7-12.3-1.9c-5.1-0.2-10.2-0.9-15.3-0.4c-0.9,0.1-1.8-0.1-2.2-1.1
		c-0.4-0.9-0.2-1.7,0.4-2.5c0.6-0.8,1.3-1.4,2.2-1.8c1.2-0.6,2.5-1.1,3.8-1.4c8.5-1.8,17-3.2,25.7-2.7c5.5,0.3,10.6,1.6,15.2,4.5
		c1.3,0.8,2.5,1.7,3.7,2.6c0.7,0.5,1.5,0.9,2.4,0.8c2.2-0.3,4.5,0.1,6.7,0.4c1.1,0.1,2.2,0.5,3.3,0.2c0-1.8-0.6-3.4-1.1-5
		c-1.1-3.6-1.9-7.3-4.3-10.3c-2.6-3.3-5.1-6.8-7.7-10.1c-4.2-5.4-9.1-10.1-14.9-13.8c-0.5-0.3-1.1-0.7-1.5-1.2
		c-1.3-1.2-1.8-2.7-1.3-4.4c0.5-1.8,1.8-2.8,3.6-3.2c1.2-0.2,2.4-0.1,3.6,0.2c2.4,0.6,4.7,1.7,6.8,3c1.9,1.1,3.8,2,5.8,2.9
		c1.1,0.5,2.2,0.6,3.5,0.3c3.6-0.9,7.1-0.4,10.6,0.6c2.5,0.7,4.8,1.7,6.9,2.9c5.3,2.9,9.6,7.1,13.3,12.1c0.6,0.8,1.2,1.7,1.6,2.7
		c0.8,1.8,0.8,3.7-0.1,5.6c-0.6,1.5-2,1.8-3.3,1.9c-1.3,0.2-1.5-0.8-2.1-1.6c-1.1-1.5-2.3-2.9-3.3-4.4c-0.4-0.6-1-0.8-1.6-1
		c-3.6-1-7.1-1.7-10.8-2c-0.1,0-0.2,0.2-0.4,0.3c0.7,3,1.4,6,2.2,9c0.2,0.7,0.5,1.3,0.9,2c4.5,7.7,8,15.8,10.3,24.5
		c0.3,1.2,0.9,2.3,2,2.9c1.9,1,3,2.6,4.1,4.3c1.8,2.9,3.2,5.9,4.6,9c1,2.1,2.4,3.8,4.4,4.9c5.2,2.8,16.8,5.2,19,8
		c2,2.5,3.5,5.4,4.5,8.4c0.9,2.7,1.8,5.5,2.6,8.2c0.5,1.5,0.7,3.1,0.7,4.7c0,1-0.3,1.9-1.4,2.3c-1.1,0.4-1.9-0.1-2.5-0.9
		c-0.9-1.1-1.7-2.2-2.5-3.2c-5.9-7.1-13.8-11.5-22.2-15.3c0.1,0.9,0.6,1.5,0.9,2.2c3.6,7.1,6.4,14.5,7.7,22.4c0.1,0.5,0.2,1,0.2,1.6
		c6.7,5.3,15,13,17.7,19.8c4.7,11.9,5.9,21.4,11.1,23.3c5.1,2,8.7,9.9,7.5,2.4s-5.5-15.8-5.5-19.8s-7-15.6-6.2-17.5
		c0.8-2-0.6-24.9,0-26.9c9.1-32-6.6-54.1-4.2-54.1c2.4,0,19.6,31.5,20.3,33.6c4,11.5,5.1,10.3,8.3,17.8c1,2.3,1.9,6.2,2.7,10.4
		c1.5-10.1,2.2-20.2,1.5-30.5c0-0.2,0-0.5,0-0.7c0-3.7-0.4-7.3-1.2-11c-0.6-2.7-1.2-5.3-1.6-8c-0.6-3.9-2.8-6.7-5.9-8.9
		c-3.7-2.5-6.7-5.7-8.8-9.7c-0.2-0.4-0.5-0.9-0.6-1.3c-0.2-0.7-0.1-1.3,0.5-1.7c0.6-0.5,1.2-0.5,1.8-0.2c0.4,0.2,0.8,0.5,1.1,0.9
		c3.8,4.5,9.1,6.3,14.3,8.3c-1-1.6-2.1-3.1-3.2-4.6c-3.2-4.1-5.1-8.6-5.6-13.8c-0.2-2.5-0.9-4.9-1.9-7.2c-2.6-5.5-5.4-10.9-9.5-15.5
		c-10.5-11.7-22.8-20.7-37.3-26.8c-3.6-1.5-7-2.9-10.9-3.3c-1.3-0.1-2.7-0.5-3.8-1.3c-2.5-1.6-2.5-4.7,0-6.4c1.1-0.7,2.3-1,3.6-1.4
		c0.6-0.2,1.3-0.1,1.6-1c-2.1-0.6-4.1-1.3-6.2-1.9c-4.3-1.1-8.2-3.1-11.7-5.9c-3.4-2.7-6.8-5.2-10.2-7.8c-0.1-0.1-0.2-0.1-0.3-0.2
		c-0.5-0.4-1-1.1-1.7-0.9c-0.1,0-0.2,0.1-0.3,0.1c-1,0.6-1.8,0.1-2.7-0.3c-1-0.5-2.1-1-3.1-1.5c-4.4-1.9-9.1-2.9-13.9-3.3
		c-1.1-0.1-2.2-0.2-3.1,0.7c-0.8,0.7-1.9,0.9-2.9,0.9c-2.8,0-5.6-0.1-8.3-1c-1.7-0.6-3.4-0.7-5.2-0.4c-2.8,0.4-5.7,0.8-8.5,1.4
		c-4.5,1-8.5,0-12.1-2.9c-1.2-1-2.4-1.9-3.6-2.9c-0.2,0-0.5,0.1-0.7,0.2c-0.1-0.3-0.1-0.6-0.2-0.8c-2.3-1.9-4.6-3.8-6.8-5.9
		c-3.7-3.6-8-6-12.8-7.6c-0.3-0.1-0.7-0.2-1-0.3c-8-2.3-16.2-3.9-24.5-4.1c-2.2,0-4.3-0.1-6.4,0.5c-4.9,1.2-9.5,0.5-13.8-2.3
		c-2.4-1.6-5-2.3-7.8-2.9c-6.7-1.4-13.4-1.3-20.1-0.6c-5.7,0.5-11.3,1.4-16.9,1.7c-9.2,0.6-18.4,1-27.6,1.4
		c-9.8,0.5-19.7,1.1-29.3,3.2c-2.7,0.6-5.3,1.1-8,1.7c-9.2,1.9-18.3,3.6-27.6,5.2c-10.8,1.9-21.3,5.2-31.2,10
		c-2.9,1.4-5.3,3.3-7.1,5.9c-0.9,1.4-2,2.7-3.2,3.8c-0.6,0.5-2.5,1.2-5.2,1.9c-6.4,1.8-16.7,3.8-20.7,4.3c-2.7,0.3-5.4,0.4-8.1,0.4
		c0,1.5,0.3,2.7,0.1,3.8c-0.2,0.7,0.1,1.2,0.8,1.6c1.3,0.8,1.9,2,1.6,3.5c-0.4,1.7-1.6,2.5-3.2,2.8c-1.3,0.2-2.5,0.4-3.8,0.6
		c-6.5,1.3-12.8,3.4-19.2,5.4c-6.8,2.1-13,5.3-18.8,9.3c-0.5,0.3-1.1,0.6-1.4,1.4c2.6,0.9,4.6,2.7,7.5,2.4c1.4-0.2,2.5,0.9,3.1,2.2
		c0.6,1.4,0.2,2.7-0.7,3.8c-0.8,1-1.9,1.7-3,2.4c-4.1,2.5-7.7,5.5-11.2,8.6c-7.8,6.7-14.7,14.2-21.5,21.9
		c-5.3,6.2-10.7,12.3-14.9,19.4c-6.7,11-12.8,22.4-17.8,34.3c-4.2,10-7.3,20.3-9.1,31c-0.4,2.3-0.8,4.5-0.9,6.9
		c2.3-0.2,2.7-0.4,3.6-2.2c1.1-2.2,2.2-4.3,4-6c1.2-1.1,2.5-2.1,4.1-2.4c2.5-0.4,4,1.1,3.6,3.6c-0.3,1.6-0.9,3.1-1.6,4.5
		c-0.2,0.6-3,11.5-3.1,12.5c-0.9,6.2-1.9,12.3-2.2,18.6c-0.1,1.6-0.1,3.2-0.1,4.7c2.3-5.6,5.4-11.1,8.6-16.8
		c1.8-3.2,18.1-19.3,29.5-57.6c1.5-5.1-5.1,52.3-5.3,53.9c-1.9,17.7-11.3,29.1-7.9,32.2c2.4,2.1,7.8-2.4,11.6,0.5
		c2.4,1.8,2.5,5.3,2.6,7.9c0.4,9.6-6.8,15.9-5.8,16.9c1.1,1.2,9.9-7.9,18.7-13.9c0.4-0.9,0.8-1.8,1.2-2.7c0.5-1.2,1.1-2.5,1.6-3.7
		c3-6.2,3.9-12.8,4.7-19.5c0.2-2.1-0.2-3.9-1.4-5.7c-0.9-1.3-1.5-2.8-2.2-4.3c-1.8-3.9-2.1-8-1-12.2c1.1-4.5,2.8-8.7,5.2-12.6
		c1.8-2.8,2.5-5.8,2.3-9.1c-0.3-5.6-0.2-11.2-0.2-16.8s0.9-11,2.9-16.2c2-5.6,4.3-11,7-16.3c4.6-9.1,10-17.5,17.9-24.1
		c5.4-4.6,11.1-8.7,17.3-12.1c1.8-1,3.6-2.1,5.2-3.4c1.8-1.4,3.8-2.5,5.8-3.5c2.6-1.2,5.4-2.2,8.2-3.2c1.4-0.5,3-0.6,4.5,0
		c1.2,0.5,1.3,1.4,0.2,2.1c-3.3,2.1-6.3,4.6-9.7,6.6c-1.7,1-3.3,2-4.7,3.3c-5.4,4.8-10.7,9.9-15.3,15.5c-0.5,0.6-1.1,1.1-1.3,2.3
		c1.2-0.5,2.1-0.9,3.1-1.3c3.1-1.3,6.3-2.4,9.7-2.3c2.7,0.1,5.4,0,8.2-0.1c2.4,0,4.8,0.1,7.2,0.3c1.5,0.1,2.3,0.7,2.5,1.8
		c0.2,1.2-0.5,2-2.1,2.4c-1.5,0.4-3,0.6-4.5,0.9c-0.5,0.1-1.2,0.1-1.6,0.5c-1.8,2.1-4.4,2.9-6.8,4c-2.3,1.1-4.3,2.5-5.8,4.5
		c-0.5,0.7-0.8,1.2-0.6,2.1c0.8,3.9-0.6,6.3-4.3,7.7c-3.1,1.1-5.7,3.2-8.8,4.3c-0.9,0.3-1.3,1.1-1.6,2c-0.1,0.4-0.4,0.8-0.1,1.1
		c1.2,1.1,1.3,3,2.3,4.1c1.8,2,1,4.7-1.5,5.9c-2.8,1.4-5.6,2.7-8.6,3.7c-2.7,0.9-4.8,2.6-6.7,4.9c-3.3,4-5.2,8.6-6.4,13.5
		c-0.2,1-0.2,1.9,0,2.8c0.5,2.4,0.9,4.9,1.4,7.3c0.5,2.7,0.1,5.3-1,7.7c-0.5,1.3-1.1,2.5-1.8,3.7c-0.7,1.2-0.9,2.4-0.6,3.7
		c0.6,2.7,0.6,5.4,0.2,8.1c-0.2,1.3,0,2.5,0.4,3.8c1.6,5.7,3.9,11.4,4.1,17.4c0,0.3,0.1,0.6,0.2,0.9c1.5,5.5,1,10.8-2,15.7
		c-1.3,2.1-0.5,4.4-0.2,6.6c0,0.3,0.3,0.5,0.6,0.7c3.3,2.4,4.4,5.9,5.3,9.7c0.1,0.5,0,1.1,0.9,1.5c2.3-4,4.9-7.8,6.7-12.1
		c0.4-0.9,0.6-2.1,2-2c0.8,0.1,2.1,2,2,3c0,0.6-0.2,1.3-0.3,1.9c-0.4,1.6-0.8,3.3-1.4,4.8c-4.5,11.1-6.6,22.9-10.1,34.3
		c-3.4,11.1-5.6,22.5-6.4,34.1c-0.2,2.7-0.4,5.4-0.5,8.1c-0.2,3.6-0.2,7.2,0.2,10.9c0.2,1.7,0.7,3.1,2.6,3.5c1.2,0.3,1.9,1,2.2,2.3
		c1,3.6,3.1,6.6,5.7,9.3c2.8,2.9,5.3,6,8,9c1,1.1,1.6,2.4,1.5,3.9c-0.2,3.9-0.2,7.8-0.6,11.7c-0.8,7.3,4.1,13.1,11.5,13.1
		c0.3,0,0.7,0,1,0c2.1-0.5,3,0.7,3.8,2.4c1.3,2.8,1.9,5.8,2.4,8.8c0.5,3.1,1.6,6,3.3,8.7c0.6,0.9,1.1,2,1.4,3
		c0.6,1.9-0.3,3.1-2.3,3.2c-0.2,0-0.5,0-0.7-0.1c-0.7-0.1-1,0.1-1.3,0.7c-0.9,3-2.2,5.8-2.8,8.9c-1.9,9.1-1.8,18.1,0.2,27.1
		c0.5,2.3,1.2,4.7,1.6,7c1.2,5.9,3.3,11.3,8,15.5c1.3,1.2,1.9,2.8,1.3,4.6c-1.2,3.5-2.3,7.1-4.9,10c-3.1,3.6-5,7.8-5.6,12.5
		c-0.5,3.6-0.7,7.2-0.5,10.8c0.1,1.7,0.2,3.4,0.8,5c0.9,2.7,1.5,5.4,1.9,8.2c0.9,5.6,3.7,10.2,7.4,14.3c0.3,0.4,0.6,1,1.3,0.7
		c0.4-0.6,0.3-1.2,0.4-1.9c1.2-7.8,3.6-15.1,8.2-21.6c0.9-1.3,1.7-2.7,2.4-4.1c1.6-3,3.6-5.7,6.1-7.9c0.2-0.8,0.3-1.7,0.4-2.5
		c0.3-4,1.3-8,4.1-11.2c1.3-1.4,1.9-3.3,2.8-5c1.9-3.1,3.9-6,6.4-8.6c-1.8-1.8-2.9-4.2-3-6.9c-0.1-1.9,0.3-3.8,0.7-5.7
		c0.1-0.6,0.5-1.2,0.3-2.1c-1.2,0.4-1.9,1.4-2.5,2.4c-1.7,2.6-2.7,5.6-3.6,8.6c-0.4,1.3-0.8,2.6-1.9,3.5c-1.2,1.1-2.9,0.7-4.3,1.4
		c-0.4,0.2-0.7-0.3-0.9-0.6c-2.3-3.1-2.7-6.6-1.9-10.3c0.5-2.5,1.6-4.8,2.9-7.1c0.9-1.7,1.9-3.3,2.9-4.9c-0.5-0.3-1.1-0.6-1.6-1
		c-1.4-1.1-1.7-2.8-2.9-4.2c-1,0.9-1.1,2-1.5,2.9c-0.6,1.5-1.2,3-2.2,4.2c-2.3,2.7-5.4,3.5-8.8,3.3c-1.8-0.1-3-1.4-3.9-2.9
		c-2.2-4-4-8.1-3.9-12.9c0-1.8-0.4-3.6-0.4-5.5c-0.1-3.1,0.7-6,0.9-9c0.1-3.1,1.1-5.9,2.1-8.8c0.5-1.5,1.2-3,1.9-4.4
		c2.1-4.2,3.6-8.7,6.2-12.7c0.4-0.6,0.5-1.2,0.5-1.8c0-1.4,0.3-3-0.1-4.3c-1-3.6-1.7-7.3-5.5-9.3c-3.2-1.7-5.5-4.3-6.4-7.9
		c-0.1-0.3-0.2-0.7-0.4-0.8c-1.7-1-1.5-2.6-1.5-4.2c0-0.8-0.2-1.3-0.8-1.9c-2.2-1.8-3.2-4.2-3.5-7.1c-0.2-1.9-0.5-3.8-0.5-5.7
		c0.1-6,2.2-11.3,5.7-16.2c0.9-1.3,2.5-1.9,3.5-3.2c0.5-0.7,1.1-1.4,1.6-2.1c0.1-5.7,1.7-11.2,4.6-16.6c0.1-0.1,0.2-0.2,0.4-0.4
		c1.1,1.9,1.8,3.9,2.6,5.9c1.3,3.5,3.2,6.8,4.8,10.2c1,2.1,2.8,3.2,4.8,4.4c2.6,1.5,4.9,0.9,7.4,0.5c0.9-0.2,1.4-0.4,1.7-1.3
		c0.4-1.1,0.9-2.2,1.7-3.1c1.8-2.1,4.2-1.7,5.3,0.8c0.6,1.4,0.7,2.9,0.9,4.4c0.2,1.8,0.4,3.7,0.6,5.5c0.4,3.6,1.9,6.3,5.5,7.7
		c5.5,2.2,7.8,6.6,7.8,12.3c0,5.7,1,11.3,1.9,16.9c0.8,4.8,3.1,8.8,6.1,12.5c4.9,6,10.9,10,18.3,12.1c3.6,1.1,7.2,1.2,10.9,0.5
		c3.9-0.8,7.6-2.1,11.2-4c1.3-0.7,2.6-1.3,3.9-1.8c0-0.6,0-1.3,0.2-1.9c0,0,0-0.1,0.1-0.1c0.1-0.1,0.3-0.2,0.4-0.4
		c0.7-0.2,1.1-0.7,0.3-1c-1.5-0.5-3.1-0.7-4.7-0.1c-1.9,0-3.8,0-5.8,0c-0.3-0.2-0.7-0.3-1-0.1c-0.4-0.1-0.9-0.2-1.4-0.3
		c-0.3-0.1-0.7-0.1-1-0.2l0,0h-0.1c-0.1,0-0.2,0-0.3-0.1c-0.1,0-0.1,0-0.2,0s-0.2-0.1-0.3-0.1c-0.1,0-0.1,0-0.2-0.1
		c-0.1,0-0.1,0-0.2-0.1c0,0,0,0-0.1,0s-0.1,0-0.2-0.1c-0.1,0-0.2-0.1-0.3-0.1c-0.1,0-0.1-0.1-0.2-0.1c-0.1-0.1-0.2-0.1-0.3-0.2
		l-0.1-0.1c-0.1-0.1-0.3-0.2-0.4-0.3c-0.1-0.1-0.3-0.3-0.4-0.4c-0.8-1.2-1.9-2.1-3-3c-3.2-2.9-4.1-6.6-4.1-10.7c0-1.3,1-2.4,2.2-2.9
		c0.8-0.3,1.7-0.8,2.7-0.7c4.1,0.4,7.7-1.5,11.3-3c1.6-0.7,2.8-2.1,3.9-3.4c1.6-1.8,3.3-3.2,5.5-4.3c2.6-1.2,3.4-3.9,2.3-6.5
		c-0.4-1-1.3-1.8-1.1-3c0.3-0.4,0.2-0.7-0.1-1c-0.1-1.7-0.2-3.4,0-5.1c-1.8-1.3-3.6-2.6-5.5-3.8c-3.4-2.3-6-5.3-7.7-9
		c-0.6-1.4-1.3-2.8-2-4.1c-4.2-7.8-5.1-16.2-4.5-24.9c0.2-2.8,1-5.5,1.7-8.2c0.4-1.5,0.6-3,0.6-4.5c-0.3-5.2,1.1-10,3.6-14.5
		c1.7-3,3.5-5.9,5.7-8.6c4.9-6.2,11.2-9.8,19-11.6c7.8-1.7,15.7-1.9,23.6-2.7c4.4-0.5,8.8-0.8,13.2-0.9c7.9-0.3,15.4,1.1,22.7,4.3
		c1.4,0.6,2.8,1.1,4.2,1.7c5.2,1.9,9.3,5.3,12.5,9.7c0.6,0.9,1.3,1.6,2.3,2.1c3.5,1.9,5.9,4.9,7.4,8.5c1.3,3.2,2.3,6.5,2.7,9.9
		c0.3,2.3,0.6,4.6,0.9,6.9c0.7,6.4-0.2,12.7-2.2,18.7c-2,5.9-4,11.8-6.9,17.4c-1.9,3.7-4.5,6.9-7.4,9.9c1,1.8,1.3,3.8,1.3,6
		c0,0.8-0.1,1.6-0.2,2.3c-0.2,0.3-0.3,0.6-0.2,1c-0.3,0.6-0.4,1.2-0.4,1.9c-0.3,0.3-0.3,0.6-0.1,1c-1.1,4.2,0.8,7.6,2.9,10.9
		c0.7,1.1,2,1.3,3,1.9c1.7,0.9,3.4,1.6,5.3,2c0.4,0.4,0.9,0.4,1.5,0.4c1.9,0.5,3.6,1.2,4.4,3.3c0.2,0.4,0.7,0.7,1,1
		c1.3,1.1,1.8,2.5,1.3,4.1c-0.5,1.5-1.6,2.5-3.2,2.8c-1.7,0.4-3.5,0.4-5.2,0.2c-2.9-0.4-4.6,0.4-5.6,2.5c-1.1,2.3-0.6,4.8,1.4,6.7
		c2.9,2.6,6.2,4.4,9.8,5.6c1.7,0.5,3.3,1.1,4.8,2s3,1.5,4.6,1.9c1.7-0.8,3.5-1.4,5.4-0.7c0.6,0.2,1.2-0.3,1.8-0.6
		c5.4-3.5,10.8-7.2,15.8-11.3c1-0.9,1.8-2,2.7-3c0.7-0.8,1.2-1.7,1.9-2.4c5-5.3,8.6-11.5,11.4-18.1c1.4-3.3,3-6.5,4.6-9.8
		c1.7-3.5,4.2-6.4,6.9-9.2c2.9-3,6-6,9-9c0.7-0.7,1.3-1.4,1.9-2.2c0.9-1.1,1.4-2.2,0.6-3.7c-0.9-1.7-0.4-3.5,0.8-5
		c0.9-1.2,1.4-2.5,1.7-3.9c0.7-3.2,1.3-6.4,2-9.6c0.4-1.9,1.1-3.6,2.6-5c0.8-0.7,1.5-1,2.6-0.5c3,1.3,5.8,0.6,8.3-1.3
		c3.2-2.3,5.4-5.4,7.1-8.9c0.3-0.6,0.4-1.4,1.2-2c1.4,3.2,1.9,6.4,1,9.8c0.8,0.2,1.6,0.8,2.1,1.9c1,1.7,1.8,3.5,2.1,5.5
		c0.6,3.9,2.8,7.3,4.7,10.7c3.2,5.8,5.4,11.8,6.3,18.4c0.4,3.1,0.1,6.2,0.9,9.3c0.1,0.5,0.1,1,0.3,1.4c1,2.7,1.3,5.4,1.2,8.2
		c-0.1,1.9,0.6,3.2,2.2,4.4c4.5,3.5,7.6,8.1,9.7,13.4c2,5,3.4,10.2,3.8,15.5c0.3,3.9,0.9,7.9,0.3,11.9c-0.5,3-0.2,6.2-1.1,9.2
		c-0.8,2.9-2.1,5.5-4.4,7.5c-2.7,2.3-4.3,1.9-5.9-1.4c-0.8-1.6-1-3.5-1.3-5.3c-0.6-3.4-1.7-6.7-2.6-10.1c-0.5-2-1.3-4-2.6-5.6
		c-3.2-4-6.8-7.4-11.8-8.9c-0.7-0.2-1.1,0-1.2,0.7c0,0.5,0,1,0,1.4c0.3,2.7,0.6,5.4,0.8,8.1c0.3,3.7,0.4,7.4,0,11
		c-0.3,3.1-0.8,6.1-1.2,9.2c-0.7,5.3-2.8,10.1-5.6,14.6c-2.1,3.4-4.8,5.9-8.7,6.9c-0.9,0.2-1.3,0.7-1.7,1.3c-0.5,1.2-1,2.4-1.6,3.5
		c-1.9,3.4-3.6,6.9-4.8,10.7c-0.6,1.9-1.4,3.7-2.2,5.6c-0.6,1.3-1.3,2.6-2,3.8c-0.9,1.5-1.8,2-2.8,1.5s-1.1-1.4-0.6-3.2
		c1.5-5,2.7-10.1,3.2-15.3c-1.5-0.4-2.8-1.3-3.9-2.6c-0.6-0.7-1.2-1.3-1.8-1.9c-0.6-0.6-1.1-0.4-1.5,0.3c0,0.1-0.1,0.1-0.1,0.2
		c-1.8,8-6.7,14.1-11.4,20.5c-0.9,1.3-2.2,2.4-3.4,3.4c-2.5,2.1-4.2,4.8-5.7,7.6c-2.2,4.2-5.3,7.8-8.4,11.3c-2,2.2-4.5,3.5-7.2,4.5
		c-2.3,0.9-4.6,1.7-7,2.5c-1.4,0.5-2.2,1.2-2.8,2.7c-1.7,3.9-4,7.4-6.9,10.6c-4.8,5.2-10.5,9-17,11.6c-3.9,1.6-7.6,3.7-11.4,5.6
		c-4.6,2.4-9.4,4.4-14.4,5.9c-3.6,1.1-7.4,1.8-11.2,2.5c-5.3,0.9-10.5,1.6-15.9,1.6c-2.9,0-5.7-0.5-8.5-1
		c-5.6-0.8-10.9-2.5-16.2-4.3c-3-1-5.8-2.4-8.5-3.9c-2.1-1.2-4.4-2.2-6.5-3.4c-0.4-0.2-1-0.3-1.2-0.7c-2-3-5.7-3.8-7.9-6.4
		c-1.6-1.8-3.3-3.5-5.2-4.7c-2.3-1.5-3.2-3.8-4.9-5.5c-1.2-1.3-2.4-2.6-4.1-3.5c-2.3-1.3-4.2-3.1-6.7-4.2c-2.1-0.9-2.1-1-3.1,0.9
		c-0.2,0.5-0.5,0.9-0.7,1.4c0.2,0.3,0.4,0.7,0.6,1.1c0.3,0.8,0.4,1.7,0.4,2.6c0.1,3.1,0.2,6.2,0.2,9.4c0,3,0.6,5.9,1.6,8.7
		c1,2.7,1.8,5.5,2.8,8.2c1.5,4,3.5,7.7,5.8,11.3c1.4,2.1,2.8,2.3,4.8,0.7c0.9-0.7,1.8-1.6,2.8-2.2c3.1-2,5.5-1,6.2,2.6
		c0.2,1.1,0.3,2.2,0.4,3.3c0.3,3.8,1.4,7.3,3.3,10.7c2,3.7,4.2,7.1,7.5,9.8c1.8,1.5,2.7,3.5,3,5.8c0.5,3.3,0.5,6.5,0,9.8
		c-0.4,2.7-0.8,5.4-1.2,8.1c-0.2,1.5-0.2,2.9,0,4.4h12.7c-0.4-1.8-0.8-3.5-1.2-5.3c-2-8.6-2-17.4-2.3-26.2c-0.1-2,0-4,1.5-5.7
		c0.3-0.3,0.3-0.9,0.4-1.3c0.3-1.2,0.9-2.2,1.7-3.1c1.2-1.4,2.3-1.2,3.2,0.3c0.5,0.9,0.7,1.8,0.7,2.7c0.2,6.7,1.8,13.1,5,19.1
		c0.5,0.8,0.9,1.7,1.3,2.6c3.2,6.4,8.6,9.8,15.5,10.6c4.6,0.6,8.5-1,11.7-4.3c1.5-1.5,2.6-3.2,4.1-4.8c0.4,1.9,0,3.7-0.2,5.4
		c-0.2,1.5-0.5,3-1,4.4c-0.6,1.8-1.1,3.7-1.6,5.5h33.9c0.2-1.1,0.3-2.3,0.5-3.4c0.3-1.9,0.5-3.8,1.2-5.6c1.4-3.7,0.7-7.2-0.5-10.8
		c-0.2-0.5-0.4-1-0.6-1.6c-0.4-1.5,0.2-2.9,1.3-3.6c1.1-0.7,2.6-0.7,3.8,0.2c0.9,0.7,1.7,1.6,2.6,2.4c1.8,1.6,3.7,3,6.2,3.5
		c1,0.2,1.9,0.2,2.6-0.7c5.3-6.6,10-13.6,11.7-22c1.5-7.3,1.8-14.8,0.5-22.2c-0.4-2.2-0.4-2.2,1.8-3.1c1.8-0.7,3.1-1.9,4-3.6
		c1.8-3.2,3-6.7,4.1-10.2c0.4-1.1,0.7-2.1,1-3.2c0.8-2.6,2.5-3.6,5.1-2.7c2.3,0.8,4.3,2,5.9,4c3.2,4.2,5.8,8.8,7.4,13.9
		c0.1,0.4,0.2,0.8,0.3,1.2c0.2,0.8,0.6,1,1.4,0.9c1.3-0.2,2.4-0.7,3.3-1.7c1.6-1.8,3.1-3.7,4.2-5.8c1.7-3.2,3.5-6.5,5.1-9.8
		c1.6-3.4,2.8-7,2.6-10.8c-0.1-0.9,0-1.8,0.3-2.6c1.2-3.2,2.9-6.3,4.9-9c2.2-3.1,6.7-2.7,9.2,0.3c1.1,1.4,1.7,3.1,1.9,4.8
		c1.2,9,0.1,17.7-3.2,26.1c-1.9,4.9-4.3,9.4-7.5,13.2c0.1,0,0.1,0,0.2,0c1.8,0,3.7-0.1,5.5,0.4c1,0.2,2.1,0.1,3.1,0
		c2.2-0.2,3.7-1.3,4.8-3.4C637.9,602.1,639.2,599.2,641.7,597z M391,133.5c1.1-0.8,2.4-1,3.6-1c2.6,0.1,5.3,0.1,7.9,0.4
		c4,0.5,8,0.3,12,0.7c0.1,0,0.2,0,0.3,0l0.1-0.1c0.3-0.3,0.6-0.1,0.8,0.2l0,0c1.2,0.1,2.3,0.2,3.5,0.4c5.3,0.9,9,4,10.9,9
		c0.8,2,1.2,4,1.5,6c0.1,0.9,0.2,1.9,0.2,2.9c0.1,3.9,0.6,7.6,2.1,11.2c1,2.5,1.2,5.3,0.8,8c-0.2,1.4-0.5,2.9-2,3.6
		c-0.8,0.3-0.6,1-0.8,1.6c-0.5,1.6-1.6,2.2-3.1,1.5c-3.4-1.7-7-3.3-9.3-6.5c-1.9-2.6-4.8-3.6-7.5-5.1c-0.8-0.4-1.6-0.7-2.3-1.2
		c-0.8-0.5-1.2-1.3-1.1-2.2c0.2-1,0.9-1.7,1.9-1.9c0.8-0.2,1.5-0.1,2.3,0c0.5,0.1,1,0.2,1.5,0.3c2.8,0.5,5.6,1,8.5,1.6
		c-0.1-0.4,0-0.7-0.1-0.9c-1.6-2.2-2.2-4.7-2.9-7.3c-0.9-3.2-2.9-6-5.4-8.4c-1.2-1.2-2.5-2.3-3.6-3.5c-2.2-2.5-5.2-3.4-8.2-4.1
		c-1.9-0.5-3.9-1-5.8-1.4c-1.6-0.3-3.2-0.9-5-0.7c-0.8,0.1-1.5-0.1-1.7-0.9C389.8,134.6,390.3,134,391,133.5z M317.4,274.5
		c-1.4,1.3-2.6,2.8-3.7,4.4c-0.3,0.4-0.5,0.8-0.8,1.2c-0.4,0.6-1,1.1-1.8,0.8c-0.8-0.3-1-1.1-0.9-1.8c0.3-1.8,0.2-3.7,1-5.4
		c1.2-2.8,2.5-5.6,4.2-8.1c1.4-2,2.5-4.1,3.5-6.3c0.8-1.9,1.8-3.6,2.8-5.3c1.4-2.3,2.7-4.7,3.7-7.2c2.6-6.5,6.2-12.4,10.3-18.1
		c1.5-2,2.7-4.1,4.1-6.2c2.4-3.7,5.6-6.4,9.6-8.1c2.6-1.1,5-2.5,7.7-3.3c1.7-0.5,3.4-0.9,5.2-0.5c1.3,0.3,2.4,0.9,2.7,2.4
		c0.3,1.4-0.4,2.5-1.6,3.2c-3.1,1.7-6.2,3.4-9.3,5c-1.4,0.7-1.8,0.4-2.5-1.5c-1.3,0.5-2,1.4-2.7,2.2c-6.3,7.9-10.9,16.6-13,26.5
		c-0.8,3.9-1.2,7.9-0.1,11.9c0.3,1-0.3,1.5-0.9,1.9c-1.9,1.2-3.8,2.4-5.7,3.5C324.7,268.1,321,271.3,317.4,274.5z M350,357.1
		c-2.2,0.9-3.3,2.3-3.8,4.5c-0.5,2.1-1.2,4.1-1.8,6.2c-0.4,1.6-1.1,3-2.9,3.4c-2,0.4-3.4-0.6-4.5-2.1c-0.5-0.6-0.9-1.4-1.1-2.1
		c-1.4-5-3.1-9.9-3.6-15.1c-0.2-1.9-0.2-3.7-0.4-5.8c-1.1,0.6-1.3,1.6-1.8,2.2c-1,1.3-2.3,1.8-3.5,1.3c-0.1-0.1-0.2-0.1-0.4-0.2
		c-1-0.6-1.4-1.8-1-3.3c0.6-2.3,1.5-4.6,2.9-6.6c2-2.9,4.1-5.9,7.1-8.1c0.3-0.2,0.6-0.6,0.8-0.9c2.8-4.1,5.7-8.1,8.8-11.9
		c0.7-0.9,1.2-1.8,1-3.1c-0.5-2.7-0.4-5.4-0.3-8.1c0.1-1.6-0.2-2-1.8-2.1c-0.8-0.1-1.6,0.1-2.4,0.2c-1.4,0.1-2.5-0.4-3.2-1.7
		c-0.7-1.3-0.5-2.6,0.4-3.8c1.1-1.4,2.5-2.5,4-3.5c2.4-1.7,4.7-3.6,6.8-5.7c2-2,4.1-4,7.1-4.7c0.4-0.1,0.8-0.2,1.2-0.3
		c2.2-0.2,3.5,1.5,2.7,3.5c-0.2,0.6-0.6,1.1-1,1.6c-2.7,4.1-4.5,8.6-5.4,13.5c-0.4,1.8-0.3,1.8,1.4,2.4c1.7,0.6,2.5,2.2,1.6,3.9
		c-1.4,2.6-1.8,5.4-2.2,8.3c-0.2,1.2-0.6,2.3-1.2,3.4c-2.1,4.2-2.3,8.9-3.3,13.2c0.8,0.6,1.3,0.3,1.8,0.1c2.4-0.6,4.8-1.2,7.3-1
		c0.7,0.1,1.4-0.2,2.1-0.5c0.3-0.1,0.6-0.2,0.9-0.3c1.5-0.4,3-0.5,4.5-0.8c0.7-0.1,1.5-0.1,1.8,0.7c0.3,0.8-0.1,1.4-0.6,1.9
		c-0.9,1-1.8,2.1-2.7,3c-2.3,2.3-4.1,4.9-5.5,7.8c-0.6,1.2-1.2,2.4-1.9,3.6C356.1,353.6,353.3,355.8,350,357.1z M416.4,432
		c-2.7-0.6-5.5-1.3-8-2.6c-1.6-0.9-3.2-1.8-4.8-2.7c-2.3-1.3-4-3.1-5.2-5.5c-0.1-0.1-0.1-0.3-0.2-0.4c-2.1-2.3-3-4.9-3.5-7.7
		c-0.8-0.5-1.7-1.1-2.5-1.6c-5.8-3.9-10.2-9-13.5-15.2c-1.8-3.3-3.2-6.7-4.1-10.4c-0.6-2.6-1.2-2.8-3.7-3.1
		c-1.8-0.3-3.7-0.2-5.4-0.8c-4-1.5-6.3-4.7-7.8-8.6c-0.2-0.4-0.1-0.9-0.1-1.4c0-1.8,0.1-3.5-0.1-5.3c-0.4-4.8,1.5-8.9,3.9-12.8
		c0.8-1.3,1.7-2.5,2.5-3.8c0.9-1.3,2-2.3,3.4-2.8c1.3-0.5,2.4-1.2,3.5-1.9c4.1-2.6,8.2-2.6,12.3,0c1.2,0.8,2.4,1.6,3.6,2.4
		c3.1,2,6.6,2.7,10.2,2.9c3.3,0.2,6.5,0.2,9.3-2c0.6-0.5,1.4-0.6,2,0c0.3,0.3,0.5,0.6,0.6,1c1-1,2.1-2.1,3.1-3.1
		c1.2-1.1,2.8-1.4,4.1-2.4c0.3-0.2,0.6-0.1,0.9,0.1c0.3,0.3,0.4,0.7,0.1,1.1c-0.4,0.5-0.8,1-1.3,1.4c-2.9,2.8-4.8,6.3-6.4,10
		c-0.3,0.7-0.8,1.4-1.2,2.1c-2.3,4-4.5,8.1-4.7,12.9c0,1.1-0.5,2.2-0.8,3.2c-1.3,3.9-0.7,7,2.4,9.5c4.3,3.5,6.8,8,8.7,13
		c1.6,4,1.4,8-0.7,11.8c-1.7,3-2.5,6.2-3.4,9.4c-0.4,1.4,0,2.3,1.1,3.1c0.9,0.7,1.7,1.4,2.7,2c0.8,0.5,1.6,1.9,2.6,0.2
		c0.2-0.4,0.9,0,1.3,0.3c1.7,1.5,2.4,3.4,2.4,5.6C419.7,431.5,418.3,432.4,416.4,432z M369.5,319c0.2-0.4,0.5-0.5,0.9-0.6
		c-0.1,0.3-0.3,0.5-0.6,0.5C369.7,318.9,369.6,319,369.5,319z M370.9,318c0.2-0.2,0.3-0.3,0.5-0.5c0,0.1-0.1,0.2-0.2,0.3
		C371.1,317.9,371,317.9,370.9,318z M465,265.4c0.1,2.3-1.1,4.4-2.4,6.1c-2.1,2.7-4.6,5.2-7.8,6.6c-1.8,0.8-2.5,2.1-2.7,3.9
		c-1.5,10.5-6.2,19.4-14,26.5c-2.4,2.2-5,4.4-8.3,5.5c-1.3,0.5-2.5,1.4-3.8,2c-2.7,1.3-5.3,2.6-8,3.8c-2.4,1-4.2,2.6-5.5,4.8
		c-0.7,1.2-1.7,2.1-2.6,3.1c-1.2,1.2-2.7,1.7-4.4,1c-1.7-0.7-2.7-1.9-2.9-3.8c0-0.2,0-0.5,0-0.7c-0.2-1.7-0.3-1.9-2.1-1.9
		c-3.9,0.1-6.3-2.1-8.2-5.3c-1-1.7-1.8-3.4-2.6-5.1c-0.6-1.2-1.5-1.7-2.9-1.7c-3.6-0.1-6.4,1.7-9.3,3.3c-1.8,1-3.6,2.1-5.1,3.5
		c-0.1,0.1-0.2,0.1-0.2,0.2c-0.3,0.1-0.5,0.2-0.9,0.2c0.4-1.1,1.1-1.9,1.8-2.6c0.3-0.2,0.5-0.5,0.8-0.7c0.4-0.3,0.7-0.6,1.1-0.9
		c1.6-1.4,3.4-2.7,5.1-3.9c2.7-1.8,4.5-4.3,5.9-7.1c2.3-4.6,5.9-7.4,11.1-7.9c0.1,0,0.2,0,0.3,0c-1.2-0.7-2.4-1.5-3.6-2.2
		c-1.6-0.9-3-2.1-3.7-3.9c4.1,1.9,8.3,2.7,12.6,3c0.2-0.1,0.3-0.1,0.5-0.1c0.1,0,0.3,0.1,0.4,0.1l0,0c1.1,0.1,2.2,0.1,3.3,0.1
		c2.9,0,5.7-0.7,8.6-0.3c0.7,0.1,1.2-0.3,1.8-0.6c2.3-1.4,4-3.7,5.3-6.9c-0.1-0.1-0.2-0.3-0.3-0.3c-5.6,1.4-10.8-0.6-16-2
		c-4.2-1.1-7.7-3.4-11-6.1c-1.1-0.9-2.2-1.9-3.3-2.8c-1.4-1-3-1.6-4.8-2c-3.4-0.7-7-1-10.3-2.1c-3-1-3.4-3.3-1.1-5.4
		c1.3-1.2,2.6-2.5,3.8-3.8c-0.5-2.6-0.4-5.2-0.5-7.7c-0.3-4.3,0-8.7,0.8-13c-0.5,0.6-1.2,1-2,1.3c-1.6,0.6-3.2,1.2-4.8,1.4
		c-4.1,0.5-6.6,2.9-8,6.6c-0.8,2-1.5,4-2.3,6.2c1,0.3,1.7,0.1,2.4,0c1-0.1,1.9-0.2,2.9-0.1c0.9,0.1,2.1,0,2.3,1.2
		c0.1,1.2-1,1.3-1.8,1.5c-3.7,0.7-6.2,3.1-8.4,5.9c-1.1,1.5-2.3,2.9-3.2,4.5c-1.9,3.2-1.3,3.4,1.3,5.5c0.5,0.4,1.3,0.6,1.9,1
		c0.9,0.5,1.4,1.3,1.2,2.4c-0.2,1.1-0.9,1.7-2,1.8c-2,0.2-4,0.4-6,0.6c-1.2,0.1-2.4-0.4-3.4-0.9c-3.1-1.5-6.2-1.8-9.6-1
		s-6.7,1.9-9.8,3.7c-2.9,1.7-5.9,3.2-8.6,5.2c-0.3,0.2-0.7,0.4-1,0.6c-0.3,0.1-0.6,0.2-0.9-0.1c-0.4-0.3-0.3-0.7-0.1-1.1
		c0.2-0.4,0.5-0.8,0.9-1.1c2.8-2.6,4.8-6,7.7-8.5c0.3-0.2,0.6-0.6,0.7-0.9c0.5-1.9,2-3,3.4-4.2c2.3-1.8,4.7-3.3,7.3-4.5
		c1.8-0.8,2.8-2.1,3-4c0.4-2.8,1.2-5.6,0.6-8.5c-0.4-2.3,0.7-4.1,2.9-4.9c2.1-0.8,3.8-1.9,5.3-3.6c0.4-0.5,0.9-0.9,1.5-1.2
		c4.8-3.1,9.9-5.5,15.2-7.6c1-0.4,2-0.5,3.1-0.5c1.7,0,3.3-0.1,4.8-1c1.3-0.7,3.3,0.2,4.1,1.6c0.1-0.6,0.3-1.2,0.4-1.9
		c1-4,3.1-7.5,5.8-10.6c3.1-3.5,6.8-6.1,11.3-7.2c0.4-0.1,0.8-0.2,1.1-0.4c1-0.5,1.1-1,0.3-1.8c-1.4-1.5-2.9-3-4.3-4.5
		c0.8-0.8,1.8-1.3,2.9-1.7c0.4-0.1,0.7-0.2,1.1-0.4c1.4-0.4,1.6-0.9,0.4-1.8c-0.6-0.5-1.2-1-1.2-1.7c-0.1-1.7-1.2-2.6-2.3-3.5
		c-2.8-2.6-2.6-5.9-2-9.1c0.2-1.4,1.5-2.2,2.6-3c1.3-0.8,2.8-1.3,4.3-1.4c4-0.2,7.9-0.9,11.9-0.5c4.5,0.4,8.9,1.4,13.2,3
		c3.4,1.2,7,2.3,10.2,4.1c3,1.7,5.9,3.5,8.3,6c1.2,1.3,2.2,2.7,3,4.3c1.1,2,1.2,2,3.4,1.5c5-1.1,9.3,2.2,9.5,7.3
		c0.1,2.4,0.3,4.8-0.4,7.2c-0.2,0.7-0.2,1.5-0.1,2.1c0.7,3.2,0,6.3,0,9.5c0,1.8-0.1,3.7,0.7,5.4c0.4,0.9,0.3,1.9,0,2.8
		c-0.3,1-0.6,2-0.7,3c-0.2,2.8-0.3,5.5,2.5,7.5c1.8,1.4,2.3,3.8,2.3,6.1C465.1,259.1,464.9,262.2,465,265.4z M488.6,142.7
		c-0.2,2.9-0.4,5.9-0.9,8.8c0,0.2-0.1,0.5-0.1,0.7c0.1,3.5-0.4,7-0.5,10.5c-0.1,3.4-0.1,6.9,1.1,10.1c0,0.1,0.1,0.1,0.1,0.2
		c0,3.7,0.5,7.5,0,11.1c-0.6,4.4-4.2,6.8-8.6,7.2c-3.2,0.3-5.3-1.2-7.5-2.9c-0.9-0.7-1.4-2.1-1.8-3.3c-0.6-1.7-1.4-3-2.8-4.3
		c-1.4-1.2-2.7-2.7-3.9-4.2c-1-1.3-1-1.3-2.3-0.3c-2.6,1.9-5.6,2.3-8.6,1.9c-1-0.1-2-1-2.8-1.8c-3.2-2.7-4.9-6.1-5.1-10.4
		c0-1.4,0-2.9,0-4.3c0-2.8-0.4-5.6,0.8-8.3c0.3-0.7,0-1.4-0.4-2.1c-0.6-1.2-1.3-2.4-1.8-3.6c-1.2-2.7-2.2-5.4-2.1-8.5
		c0.1-2.1,0.1-4.5-0.6-6.4c-1-2.9-0.7-5.8-0.7-8.7c0-3.1,1.1-6,3.4-8.1c1-1,1.4-2,1.4-3.4c0.1-4.3,0.7-8.5,2.9-12.4
		c1.6-2.8,2.8-5.7,4.9-8.2c1.2-1.4,2.3-2.9,4.3-3.1c2.3-0.2,3.9,1.3,3.6,3.6c-0.5,4.1-1.3,8.2-1.7,12.3c-0.4,4-0.8,8.2-0.5,12.2
		c0.3,3.5,0,7,0.8,10.5c0.9,3.9,2,7.7,4.4,11c1.1,1.6,1.8,1.7,3.7,1c1.1-0.5,2.2-0.9,3.3-1.4c2-0.7,2-0.7,2.1-2.9
		c0-3.2,1.3-5.9,3.5-8.1c3-3.1,7.6-2.5,10,0.7c1,1.3,1.7,2.9,1.8,4.6C488.4,135.8,488.8,139.2,488.6,142.7z M561.8,302.6
		L561.8,302.6c-4.8-1.1-9.7-1-14.6-1c-3,0-5.9,0.1-8.8,0.8c-1.6,0.4-3.4,0.2-5,0.1c-1.2-0.1-2.4-0.7-3.2-1.8c-0.5-0.6-1-1.2-1.6-1.8
		c-1.8-1.9-2.9-4-2.8-6.8c0.1-2.3,0-4.6,0.1-6.9c0-0.8-0.2-1.3-1-1.9c-4.5-3.5-7.6-7.8-7.7-13.9c-0.1-3.1,0.5-6,0.6-9.1
		c0-0.7,0.4-1.2,0.7-1.8c1.6-3,3-6.2,4.3-9.3c0.5-1.2,0.1-2.5,0.3-3.8c0.2-2.2-0.3-3.9-2.2-5.3c-3.3-2.6-5.4-6-6.6-10
		c-0.5-1.8-0.4-3.6-0.3-5.5c0.1-1.8,1.3-2.4,3.1-2.1c1,0.2,1.7,0.8,2.4,1.5c2.7,2.7,5.6,5.3,7.4,8.9c0.8-2.4,0.5-5.2-0.3-7.5
		c-1.5-3.9-1.8-7.9-1.7-12c0.1-3.3,1.5-6,3.7-8.3c0.4-0.4,0.8-0.7,1.4-0.9c1.9-0.8,1.9-0.9,0.6-2.3c-0.5-0.6-1.1-1.1-1.6-1.7
		c-0.9-1.1-1.5-2.4-1.6-3.9c-0.3-5.3,0.4-10.5,1.7-15.6c0.7-3,1.1-6.1,1.3-9.2c0.1-2.3,0.5-4.6,0.4-6.9c0-0.6,0.1-1.5-0.8-1.5
		c-0.9,0-2.1-1.2-2.8,0.2c-1.2,2.2-3.1,1.7-4.9,1.6c-1.8-0.1-2.9-1.2-3.7-2.7c-1.1-2.1-2.1-4.3-3.1-6.4c-1.1-2.3-1.2-4.9-1-7.5
		c0.1-1.6,0.8-3,1.5-4.3c1.6-2.9,2.7-6,5.6-8.1c1.4-1,1.7-3,2.6-4.5c1.7-2.7,3.7-5.1,6.3-6.7c1.6-1,2.8-2.4,3.6-4
		c1.5-3,3.6-5.6,5.7-8.2c1.9-2.3,3.8-4.6,6-6.5c1.3-1.1,2.6-2.1,4.4-2c1.9,0.1,3,1.2,3,3c0,0.5,0,1-0.1,1.4c-0.7,3.8-1,7.6-1.4,11.3
		c-0.4,4.1-0.3,8.1-0.4,12.2c-0.1,3.6,0.2,7.1,0.8,10.7c0,0,0,0,0,0.1c0.1-0.3,0.1-0.5,0.2-0.8c0.3-2.2,0.7-4.4,1.5-6.5
		c1.2-3.4,3.1-6.3,6.2-8.3c1.3-0.8,2.3-2,3.3-3.1c2-2.3,4.1-4.3,6.5-6c2.4-1.8,5-3.3,7.8-4.6c0.7-0.3,1.5-0.5,2.3-0.6
		c1.4-0.1,2.5,0.3,3.2,1.6c0.6,1.1,0.4,2.3-0.8,3.4c-1.4,1.3-2.7,2.8-3.7,4.4c-1,1.5-1.6,3.1-1.6,4.9c0,0.4,0.1,0.7,0.1,1
		c0.5,0.4,1,0.9,1.4,1.4c0.3,0.1,0.6,0.1,1.1,0.1c2.6,0.1,5.3,0,7.9-0.4c1.3-0.2,2.7-0.3,4.1,0c0.9,0.2,1.7,0.7,1.8,1.7
		c0.2,1-0.5,1.6-1.4,2c-1.4,0.7-3,1.2-3.8,2.8c-0.2,0.4-0.8,0.5-1.2,0.8c-6.3,3.5-12.1,7.5-16.7,13c-1.9,2.3-3.9,4.4-5.9,6.7
		c-1.3,1.5-2.3,3.2-2.8,5.1c0.7,0.6,1.4,0.5,2,0.4c3.2-0.2,6.4,0.5,9.6,0.5c0.1,0,0.2,0,0.2,0c0.7,0.1,1.6,0.1,1.6,1
		c0,0.8-0.8,0.8-1.4,1c-1.8,0.4-3.6,0.8-5.3,1.4c-1.6,0.5-3,1.1-4.4,1.9c1,0,2.1-0.1,3.1-0.3c1.6-0.4,3.1-0.2,4.7,1
		c1.8,1.4,4,2.4,6.3,2.7c3.6,0.5,6.7,2,9.6,4c3,2,6.3,3.2,9.7,4.1c1.8,0.5,3.4,1.2,5.1,2.6c-1.6,0.3-2.8,0.6-4,0.8
		c-1.3,0.3-2.6,0.7-3.8,1.4c-2.3,1.4-2.4,4.3-0.1,5.7c2.4,1.4,4.2,3.4,5.8,5.6c1.3,1.8,2.8,3.4,4.2,5.2c2.1,2.8,2.6,6.1,2.5,9.5
		c-0.8-0.8-1.5-1-2.5-0.8c-0.3,0.1-0.6,0.2-1,0.3c-2.5,1.1-5,0.7-7.2-0.9c-1.4-1-2.8-2.1-4.2-3.1c-1.6-1.2-3.4-1.4-5.2-1.2
		c-4,0.5-7.8,1.6-11.4,3.3c-1.1,0.5-1.9,1.1-2.4,2.2c-0.7,1.5-1.9,2.5-3.6,2.9c-2.5,0.7-4.2,2.3-5,4.7c-0.6,2-1.7,3.6-3.2,4.9
		c-2.1,1.8-3.4,4.2-4.8,6.5c-1.8,3.2-3.2,6.5-4.5,9.9c2.3-2.5,5-4.5,8.2-6.2c2.1-1.1,4.3-2,6.6-2.9c3.9-1.6,8-1.5,12-0.4
		c3.7,1.1,7.3,2.2,10.9,3.8c2.6,1.1,4.9,2.6,7,4.6c1.9,1.8,3.9,3.5,5.8,5.4c2.6,2.5,5.8,3.9,9.4,4.4c0.2,0,0.3,0.1,0.5,0.1
		c1,0.2,1.9,0.8,2.2,1.9c0.4,1.3-0.3,2.3-1.3,3.1c-3,2.3-5.2,5.2-7.2,8.3c-2.6,4-5.8,7.6-9.3,11c-1,0.9-2,1.7-3.1,2.5
		c0.4,0.3,1,0.4,1.9,0.5c2.8,0.3,5.5,0.5,8.3,0.6c-0.5,1.5-1.4,2.7-2.4,3.9c-0.3,0.4-0.7,0.8-1,1.2c-2.7,3.3-5.1,6.9-8.2,9.9
		c-3.4,3.3-7.3,5.5-11.8,6.8c-0.7,0.3-1.5,0.5-2.3,0.6c-0.9,0.1-1.8,0.2-2.6,0.4c-2.7,0.7-4.8,2-5.4,5c-0.7,3.3-2.9,4.1-5.7,2.3
		C563.4,304.4,562.5,303.6,561.8,302.6z M674.9,363.5c-4-4.8-9.1-8.2-14.7-10.8c-1.3-0.6-2.6-0.8-4.1,0c-1.3,0.8-2.1,0.4-3-0.9
		c-1.2-1.9-2.7-2.2-4.9-1.9c-4.1,0.5-8.3,0.6-12.4-0.1c-1.1-0.2-2.2-0.2-3.3,0.3c-1.3,0.6-2.7,1-4,1.5c-1.5,0.5-2.4,1.8-3.4,3
		c-1.2,1.5-2.4,3-4.3,3.7c-0.5,0.2-0.7,0.5-0.8,1.1c-0.3,3.3-1.8,6.1-3.8,8.6c-0.5,0.6-0.6,1.3-0.6,2c0,1.2,0,2.4,0.1,3.6
		c0,0.8-0.1,1.7-1,1.9c-1.1,0.3-1.2,1.3-1.3,2.1c-0.6,3.8-1.8,7.4-2,11.3c-0.1,1.5-1.2,2.4-2.1,3.4c-5.8,6-11.5,12-18.5,16.5
		c-3,1.9-5.6,4.5-9,5.9c-2.3,0.9-4.5,1.8-6.8,2.6c-0.4,0.4-0.8,0.8-1.1,1.3c-0.5,0.7-1.3,1.3-2.1,1.5c-1.5,0.3-2.9,0.6-4.5,1.7
		c0.2-1.4,0.8-2,1.2-2.8c6.9-12.4,8.2-25.5,4.7-39.2c-0.7-2.6-1.7-5.1-3.2-7.4c-1-1.6-1-1.6,0.3-3.1c0.4-0.5,0.7-1.1,1.2-1.5
		c2.2-1.7,1.9-4.1,1.5-6.3c-0.8-4.4-2.2-8.5-5.6-11.7c-0.9-0.9-1.6-2-2.4-3c-0.6-0.8-0.9-1.8-0.1-2.6c0.8-0.9,1.8-0.5,2.6,0.1
		c3.4,2.4,7,4.6,10,7.4c0.6,0.6,1.3,1.1,2.1,1.5c3.4,1.6,5.2,4,5.2,7.3c0.8,0,1.7,0,2.5,0c3.4,0.9,5.4-1.5,7.5-3.3
		c3-2.4,5.9-4.9,9-7.1c0.7-0.5,1.4-1.1,2-1.7c0.7-0.9,0.7-2.3-0.2-3c-1-0.7-1.6-1.8-2.2-2.8c-0.9-1.4-2-2.7-3.2-3.9
		c-2.4-2.4-1.5-5.9,1.6-6.9c-1.4-0.8-2.8-1.7-4.2-2.6c-1.3-0.9-2.7-1.7-4.3-1.9c-1.8-0.3-3.2-1.3-4.4-2.7c-1.8-2.1-3.2-4.4-5.1-6.4
		c-1.2-1.3-1.8-3.2-2.6-4.8c-0.3-0.6-0.4-1.2,0.1-2.2c3.3,3.5,7.6,4.9,11.5,7c0.3,0.2,0.7,0.4,1,0.6c3.7,3.3,8.1,3.9,12.8,2.9
		c6.7-1.4,12.3-4.8,17.1-9.5c1.2-1.2,2.1-2.6,3.7-3.4c0.4-0.2,0.7-0.9,0.9-1.4c0.8-1.6,1.6-3.3,2.5-4.9c0.4-0.8,0.9-1.7,1.5-2.5
		c0.6-0.9,1.5-1.5,2.6-1.3c1.2,0.2,2,1.1,2.3,2.2c0.4,1.4,0.4,2.9-0.1,4.3c-0.3,0.9-0.6,1.8-0.9,2.7c0.3,0.1,0.7,0.1,1,0.3
		c0.4,0.1,0.7,0.6,1,0.6c3.4-0.3,5.4,2.4,8,3.7c3.4,1.8,6.5,3.9,10,5.5c2.2,1,4.3,2.4,6.1,4.2c2.6,2.5,5.8,4.5,8.4,7.1
		c3.8,3.7,7.7,7.4,9.9,12.5c2.1,4.8,3.1,9.9,2.8,15.1c0,0.8-0.2,1.6-0.4,2.3c-0.9,3.3-0.2,6.6,0.3,9.9c0.3,2.2,0.1,4.3,0.1,6.5
		c0,0.2,0,0.5-0.2,0.7c-0.3,0.7-0.8,1.2-1.6,1.2c-0.9,0-1.3-0.7-1.4-1.3c-0.4-2-1-3.8-1.6-5.7C677.9,367.8,676.5,365.5,674.9,363.5z
		"/>
	<path class="st4" d="M272.4,386c-2.3,3.6-4.8,7-7.5,10.3c-0.9,1.1-1.6,2.4-2,3.8c-1.8,5.6-3.5,11.1-5,16.8
		c-1.5,5.8-1.9,11.6-1,17.6c0.7,4.7,1.4,9.3,2.3,14c1,5.3,2.2,10.7,4.3,15.7c0.4,1,0.7,2.1,1.7,3c1.8-3.4,4.3-6.2,5.8-9.7
		c0.5-1.1,0.9-2.3,1.5-3.3c0.2-1.8,0.1-3.6-0.6-5.3c-1.3-3.3-1.4-6.8-1.8-10.3c-0.6-5.1-0.2-10.2-0.6-15.3
		c-0.3-3.8-0.3-7.5-0.3-11.2c0-5.3,0.6-10.5,1.3-15.7C270.9,392.7,271.6,389.4,272.4,386z"/>
	<path class="st4" d="M767.4,505.3c-1.4-0.2-2.5-1-3.4-2c-0.4-0.4-0.8-0.9-1.4-0.7c-0.6,0.2-0.4,0.8-0.5,1.2
		c-1.1,4.9-2,9.8-3.3,14.7c-1.1,3.9-2.4,7.7-4.2,11.4c-3.6,7.4-7.7,14.5-11.9,21.6c-2.7,4.4-4.5,9.3-6.4,14.2
		c-2.8,7.3-5.1,14.7-6.9,22.3c-0.7,2.7-1,5.5-1.4,8.3c1.8-0.3,3.6-0.5,5.4-0.7c2.2-0.2,4.3-0.4,6.5-0.5c0.4-1.2,0.7-2.4,0.9-3.6
		c0.5-3.3,1-6.6,1.2-10c0.3-4.2,0.7-8.5,1.4-12.6c0.3-1.9,1.3-3.3,3.3-3.7c2-0.5,3.6,0.4,4.8,2c0.8,1,1.2,2.3,1.6,3.5
		c1.3,4.6,2.1,9.4,2.3,14.2c0.2,3.4,0.3,6.8,0.3,10.2c2.8,0.2,5.7,0.5,8.5,0.9c1.7,0.2,3.4,0.6,5.1,0.9c0.8,0.2,1.7,0.4,2.5,0.5
		c0.4,0.1,0.8,0.2,1.3,0.3l1.3,0.3l1.3,0.3l0.6,0.2l0.6,0.2l2.5,0.7c1.6,0.5,3.3,1,4.9,1.7c1.8,0.6,3.5,1.4,5.3,2.1
		c1.9,0.5,4,1.4,6.3,2.5c-1.3-1.9-2.5-3.8-3.7-5.7c-3-4.7-5.3-9.7-6.3-15.2c-0.7-3.9-0.8-7.8,0.3-11.6c0.4-1.2,0.8-2.4,1.8-3.4
		c1.9-2,4.6-1.8,6.1,0.6c0.6,1,1.1,2.1,1.5,3.3c1.5,4,3.7,7.6,6.3,11c0.3,0.4,0.5,1.1,1.3,1c-0.1-0.8-0.2-1.6-0.4-2.3
		c-0.6-3.1-1.2-6.3-1.7-9.4c-1.8-12.4-5.6-24.1-11.2-35.3c-4.4-8.7-8.8-17.4-13.2-26.1c-2.4-2.4-5.2-4.1-7.8-6.2
		C768.5,505.7,767.9,505.4,767.4,505.3z"/>
	<path class="st4" d="M580.9,256.9c3-2.1,3-8.2,0.9-11.2s-6.2-3.7-9.2-1.6s-3.7,6.2-1.6,9.2C573.1,256.2,577.9,259,580.9,256.9z"/>
	<path class="st4" d="M416.5,242.4c-3.6,0.7-5.9,4.2-5.2,7.7s4,8,7.5,7.3c3.6-0.7,6.1-6.3,5.4-9.9S420.1,241.8,416.5,242.4z"/>
	<path class="st4" d="M831.1,650.6c-2-3.9-4.3-7.6-7.1-10.9c-2.8-3.4-5.9-6.4-9.2-9.2c-3.4-2.7-7.1-5-11-6.9l0,0L798,621
		c-0.6-0.6-1.2-1.1-1.8-1.6c-1.4-1.2-3-2.4-4.6-3.3c-6.8-3.8-14.4-5.9-22.1-7.2c-3.8-0.6-7.7-1-11.6-1.3c-2.6-0.1-5.1,0-7.7-0.4
		c-2.8-0.4-5.4-1.7-8.2-1.9c-1.1-0.1-2.2,0-3.2,0.1c-8.9,0.9-17.8,2.2-26.3,4.8c-4.3,1.3-8.5,2.9-12.5,5c-3.9,1.9-7.3,4.7-11.3,6.3
		c-1,0.4-1.9,0.8-2.9,1.2c-20.5,8.8-38.8,26.1-46,47.5l0,0c1.9-0.4,4.1,0.3,5.5-0.9c0.6-0.5,0.9-1.2,1.3-1.9
		c3.3-7.1,6.5-14.5,12.1-20c6.8-6.8,17.6-9.5,25.7-3.2v-0.1c0,0.1,0.1,0.1,0.1,0.2c0.5,0.4,0.9,0.8,1.4,1.2c0,0,0,0,0.1,0.1
		c0.2,0.1,0.3,0.3,0.4,0.4c0.5,0.5,1,1,1.5,1.6c0.1,0.1,0.2,0.2,0.2,0.3c-0.7,0-1.4,0-2.1,0.1c-1.5,0.2-2.9,0.5-4.3,1
		c-2.8,1-5.3,2.5-7.7,4.2c-0.6,0.4-1.2,0.8-1.8,1.3l-0.9,0.7l-1.6,1.2l-0.8,0.6c0,0,0.9-0.2,1-0.3c4.2-1.1,8.5-1.2,12.5,0.7
		c0.3,0.2,0.6,0.3,1,0.5c0.3,0.2,0.6,0.4,0.9,0.6c0.6,0.4,1.2,0.9,1.7,1.3c1.1,1,2.1,2,2.9,3.2c0.9,1.3,1.7,2.7,2.4,4.2l0,0
		c-0.1,0.4-0.2,0.8-0.3,1.2c-0.1,0.2-0.1,0.5-0.2,0.8v0.1c-0.1,0.5-0.2,0.9-0.2,1.4c0,0.1,0,0.2,0,0.3s0,0.2,0.1,0.3
		c0,0.2,0.1,0.4,0.1,0.6v-0.1v0.1c0,0,0,0,0,0.1c0,0,0,0,0-0.1c0.2,0.8,0.3,1.6,0.5,2.3c0.2,0.9,0.4,1.8,0.6,2.8
		c1.1,1.9,2.3,3.8,3.1,5.9c0.1,0.2,0.1,0.4,0.2,0.6c0,0.1,0,0.1,0,0.2c0.1,0.2,0.1,0.4,0.2,0.6l0,0c0,0.2,0.1,0.4,0.1,0.6
		c0,0.1,0,0.1,0,0.2c0,0.2,0.1,0.4,0.1,0.5v0.1c0,0.2,0.1,0.4,0.1,0.6c0,0.1,0,0.2,0,0.2c0,0.1,0,0.3,0,0.4c0,0.1,0,0.2,0,0.3
		c0,0.2,0,0.3,0,0.5c0,0.1,0,0.2,0,0.3s0,0.2,0,0.3c0,0.2,0,0.4,0,0.7v0.1c0,0.2,0,0.3,0,0.5l0,0c0,0.3,0,0.6,0,1
		c0.1,0.2,0.2,0.3,0.4,0.5c0.6,0.8,1.2,1.5,1.8,2.3c0.3,0.3,0.6,0.6,0.9,1c2.6,2.3,5.3,4.4,8.8,5.2c5.4,1.2,11.1-0.5,16.6-0.1
		c1.1,0.1,2.2,0.3,3.2-0.2c1.9-0.8,3.1-3.8,4.1-5.5c1.5-2.6,2.8-5.3,3.8-8.2c2-5.4,3.2-11,3.7-16.7c0.7-9-0.9-18.1-4.5-26.4
		c-1.8-4.1-4-8.1-6.7-11.7c-2.7-3.6-5.7-7-9-10.1c-0.4-0.4-0.8-0.7-1.3-1.1l-2.2-1.9l0,0l0,0h0.1h0.2l0.4,0.1l0.8,0.2l1.2,0.3
		l0.4,0.1l0.4,0.1l0.8,0.2c2.2,0.7,4.3,1.5,6.3,2.6c18.7,9.8,26.8,29.5,28,49.5c0,0.1,0,0.3,0,0.4c0,0.6,0,1.2,0,1.8s0,1.1-0.1,1.7
		c0,0.5-0.1,1.1-0.1,1.6c0,0.1,0,0.1,0,0.2c-0.1,0.4-0.1,0.7-0.2,1.1c0,0.3-0.1,0.7-0.2,1c0,0.2-0.1,0.5-0.1,0.7
		c-0.5,3.3-1.6,6.6-2.7,9.8c-1.1,3.4-3.1,6.7-1.7,10.2c3,7.6,9.6,9.9,17,11.1c1,0.2,2,0.3,2.9,0.4c1.2,0.2,2.4,0.3,3.7,0.4
		c1.4,0.1,2.8,0.3,4.3,0.4c0.3,0,0.5,0,0.8,0.1c0.2,0,0.5,0,0.7,0.1c0.5,0,1,0,1.5,0c0-0.1,0-0.1,0-0.2c0.6-2.8,2.1-5.3,3.5-7.9
		c6.2-12,8.6-26.3,6.6-40c-1.8-12.7-8.9-24.4-17.8-33.5c-0.8-0.9-1.8-2-1.7-3.2c3.1,0.8,6.5,3.5,9.2,5.2c3.4,2.1,6.7,4.3,9.7,6.9
		c5.5,4.6,10.8,10.6,11.9,18c2.2,14.1,6.1,15,4.2,29.1c-0.5,3.8-2.8,7.2-3.5,11c-1.1,5.3-1.4,10.2-3.4,15.2c-0.1,0.3-0.3,0.6-0.4,1
		c-0.1,0.4-0.3,3-0.9,2.8c2.5,0.8,14.8,3.2,15.4-1.2l0.4-2.5l3-17c3-16.7,3.4-33.4-4.2-49.1c-1.6-3.3-4.5-9.7-6.6-11.7
		c0.3,0.2,0.5,0.5,0.8,0.7c4.2,3.9,8,7.7,11.1,12.5c3.6,5.7,6.7,12.1,9.1,18.4c0.2,0.5,0.3,1,0.5,1.5c0.7,2,1.2,4.1,1.7,6.2
		c0.8,4.2,1.3,8.4,1.3,12.6c-0.1,4.2-0.5,8.4-1.5,12.5c-0.3,1.3-0.6,2.5-1,3.7c0.4-0.1,0.7-0.2,1.1-0.3c1.1-0.4,2-1.2,2.7-2
		s1.4-1.8,1.9-2.7c0.5-1,0.9-2,1.3-3c0.2-0.5,0.3-1,0.5-1.6C839.1,679.3,837.8,663.7,831.1,650.6z M694,618.8L694,618.8
		c0.1,0,0.1-0.1,0.2-0.1C694.1,618.7,694,618.8,694,618.8z"/>
	<path class="st4" d="M299.1,622.7c-1-0.4-1.9-0.8-2.9-1.2c-4-1.6-7.4-4.4-11.3-6.3c-4-2-8.2-3.6-12.5-5c-8.6-2.6-17.4-3.9-26.3-4.8
		c-1.1-0.1-2.2-0.2-3.2-0.1c-2.8,0.2-5.4,1.4-8.2,1.9c-2.5,0.4-5.1,0.3-7.7,0.4c-3.9,0.2-7.7,0.6-11.6,1.3
		c-7.6,1.3-15.3,3.4-22.1,7.2c-1.7,0.9-3.2,2.1-4.6,3.3c-0.6,0.5-1.2,1.1-1.8,1.6l-5.8,2.6l0,0c-3.9,1.9-7.6,4.2-11,6.9
		s-6.5,5.8-9.2,9.2s-5.1,7-7.1,10.9c-6.6,13.2-8,28.7-4.1,42.9c0.1,0.5,0.3,1.1,0.5,1.6c0.3,1,0.8,2.1,1.3,3c0.5,1,1.1,1.9,1.9,2.7
		c0.7,0.8,1.6,1.6,2.7,2c0.4,0.1,0.7,0.3,1.1,0.3c-0.4-1.2-0.7-2.5-1-3.7c-0.9-4.1-1.4-8.3-1.5-12.5c0-4.2,0.5-8.4,1.3-12.6
		c0.4-2.1,1-4.2,1.7-6.2c0.2-0.5,0.3-1,0.5-1.5c2.4-6.3,5.5-12.7,9.1-18.4c3.1-4.9,7-8.6,11.1-12.5c0.3-0.2,0.5-0.5,0.8-0.7
		c-2.1,2-5,8.3-6.6,11.7c-7.6,15.6-7.1,32.3-4.2,49.1l3,17l0.4,2.5c0.6,4.4,12.9,2,15.4,1.2c-0.6,0.2-0.9-2.4-0.9-2.8
		c-0.1-0.3-0.2-0.6-0.4-1c-2-5-2.3-10-3.4-15.2c-0.8-3.8-3-7.2-3.5-11c-1.9-14.2,2.1-15,4.2-29.1c1.1-7.4,6.4-13.3,11.9-18
		c3-2.5,6.3-4.8,9.7-6.9c2.8-1.7,6.1-4.3,9.2-5.2c0.2,1.2-0.8,2.4-1.7,3.2c-8.9,9-16,20.8-17.8,33.5c-1.9,13.7,0.5,28,6.6,40
		c1.3,2.5,2.8,5,3.5,7.9c0,0.1,0,0.1,0,0.2c0.5,0,1,0,1.5,0c0.2,0,0.5,0,0.7-0.1c0.3,0,0.5,0,0.8-0.1c1.4-0.2,2.8-0.3,4.3-0.4
		c1.2-0.1,2.4-0.2,3.7-0.4c1-0.1,2-0.2,2.9-0.4c7.3-1.2,14-3.5,17-11.1c1.4-3.6-0.5-6.8-1.7-10.2c-1.1-3.2-2.2-6.5-2.7-9.8
		c0-0.2-0.1-0.5-0.1-0.7c-0.1-0.3-0.2-0.7-0.2-1c-0.1-0.4-0.1-0.7-0.2-1.1c0-0.1,0-0.1,0-0.2c0-0.5-0.1-1-0.1-1.6s0-1.1-0.1-1.7
		c0-0.6,0-1.2,0-1.8c0-0.1,0-0.3,0-0.4c1.2-20,9.3-39.8,28-49.5c2-1,4.1-1.9,6.3-2.6l0.8-0.2l0.4-0.1l0.4-0.1l1.2-0.3l0.8-0.2
		l0.4-0.1h0.2h0.1l0,0l0,0l-2.2,1.9c-0.4,0.4-0.9,0.7-1.3,1.1c-3.3,3-6.4,6.4-9,10.1c-2.6,3.7-4.9,7.6-6.7,11.7
		c-3.6,8.3-5.2,17.4-4.5,26.4c0.4,5.7,1.6,11.4,3.7,16.7c1.1,2.8,2.3,5.6,3.8,8.2c1,1.7,2.2,4.7,4.1,5.5c1,0.4,2.1,0.2,3.2,0.2
		c5.5-0.5,11.2,1.3,16.6,0.1c3.5-0.8,6.2-2.9,8.8-5.2c0.3-0.3,0.6-0.6,0.9-1c0.6-0.7,1.2-1.5,1.8-2.3c0.1-0.2,0.2-0.3,0.4-0.5
		c0-0.3,0-0.6,0-1l0,0c0-0.2,0-0.3,0-0.5v-0.1c0-0.2,0-0.4,0-0.7c0-0.1,0-0.2,0-0.3s0-0.2,0-0.3c0-0.2,0-0.3,0-0.5
		c0-0.1,0-0.2,0-0.3s0-0.3,0-0.4c0-0.1,0-0.2,0-0.2c0-0.2,0.1-0.4,0.1-0.6v-0.1c0-0.2,0.1-0.4,0.1-0.5s0-0.1,0-0.2
		c0-0.2,0.1-0.4,0.1-0.6l0,0c0-0.2,0.1-0.4,0.2-0.6c0-0.1,0-0.1,0-0.2c0.1-0.2,0.1-0.4,0.2-0.6c0.7-2.1,1.9-4,3.1-5.9
		c0.2-0.9,0.4-1.8,0.6-2.8c0.2-0.8,0.3-1.6,0.5-2.3c0,0,0,0,0,0.1c0,0,0,0,0-0.1v-0.1v0.1c0-0.2,0.1-0.4,0.1-0.6
		c0-0.1,0-0.2,0.1-0.3c0-0.1,0-0.2,0-0.3c0-0.5-0.1-0.9-0.2-1.4v-0.1c-0.1-0.3-0.1-0.5-0.2-0.8c-0.1-0.4-0.2-0.8-0.3-1.2l0,0
		c0.7-1.4,1.5-2.9,2.4-4.2c0.9-1.2,1.8-2.2,2.9-3.2c0.6-0.4,1.1-0.9,1.7-1.3c0.3-0.2,0.6-0.4,0.9-0.6c0.3-0.2,0.6-0.3,1-0.5
		c4-1.9,8.3-1.9,12.5-0.7c0.1,0,1,0.3,1,0.3l-0.8-0.6l-1.6-1.2l-0.9-0.7c-0.6-0.4-1.2-0.9-1.8-1.3c-2.4-1.7-5-3.2-7.7-4.2
		c-1.4-0.5-2.8-0.9-4.3-1c-0.7-0.1-1.4-0.1-2.1-0.1c0.1-0.1,0.2-0.2,0.2-0.3c0.4-0.6,0.9-1.1,1.5-1.6c0.1-0.1,0.3-0.3,0.4-0.4
		c0,0,0,0,0.1-0.1c0.4-0.4,0.9-0.8,1.4-1.2c0-0.1,0.1-0.1,0.1-0.2v0.1c8.1-6.2,18.9-3.5,25.7,3.2c5.6,5.5,8.8,12.9,12.1,20
		c0.3,0.7,0.7,1.4,1.3,1.9c1.5,1.2,3.7,0.5,5.5,0.9l0,0C337.9,648.8,319.6,631.5,299.1,622.7z M290.8,618.7l0.1,0.1l0,0L290.8,618.7
		z"/>
</g>
</svg>
