<?xml version="1.0" encoding="utf-8"?>
<!-- Generator: Adobe Illustrator 24.0.1, SVG Export Plug-In . SVG Version: 6.00 Build 0)  -->
<svg version="1.1" id="Layer_1" xmlns="http://www.w3.org/2000/svg" xmlns:xlink="http://www.w3.org/1999/xlink" x="0px" y="0px"
	 viewBox="0 0 990 781.2" style="enable-background:new 0 0 990 781.2;" xml:space="preserve">
<style type="text/css">
	.st0{fill:#ADADAC;}
	.st1{fill:#E4716B;}
	.st2{fill:#EAC88C;}
	.st3{fill:#535459;}
	.st4{fill:#FFFFFF;}
	.st5{fill:#9F3200;}
</style>
<g>
	<path d="M780.7,737.8c-0.8,0.1-1.3,0.9-1.8,1.4c-1.7,1.6-3.3,3.2-5,4.8c-1.3,1.2-2.7,2.3-4.2,3.2c-3.5,2.1-7,1.4-9.4-2
		c-1-1.5-1.6-3.1-2.2-4.8c-1.1-3.5-1.7-7.2-1.4-10.9c0.2-1.9-0.6-3.2-2.1-4.2c-1.6-1-3.3-2-5.1-2.7c-4.2-1.8-6.8-4.9-8.2-9.2
		c-0.8-2.5-1.5-2.6-3.3-0.8c-2,2-3.1,4.6-4,7.3c-1.3,4.4-3.6,8.2-6.6,11.6c-1.2,1.3-2.6,2.4-3.9,3.6c-3.8,3.4-9.2,1.5-11.5-1.9
		c-1.8-2.8-2.9-5.8-3.4-9.1c-0.8-5.2-0.8-5.3-5.4-7.9c-1.3-0.8-2.6-1.6-3.7-2.6c-2.8-2.4-5.4-5-8-7.6c-1.1-1.1-2.1-2.2-2.6-3.7
		s-1.5-1.9-2.9-1.7c-0.6,0.1-1.1,0-1.7,0c-127.4,0-254.8,0-382.2,0c-0.4,0-0.8,0.1-1.2,0c-1.8-0.3-3,0.3-3.6,2.2
		c-0.4,1.3-1.5,2.3-2.4,3.3c-2.7,2.7-5.4,5.4-8.4,7.9c-1.5,1.3-3.3,2.3-5,3.2c-2.1,1.1-3.3,2.7-3.5,5.3c-0.3,3.7-1.3,7.2-3.4,10.4
		c-1.5,2.3-3.4,3.7-6.2,4c-1.8,0.2-3.4-0.2-5-1.3c-5.5-4-9.1-9.4-11.1-15.8c-0.7-2.2-1.5-4.4-3.1-6.2c-0.3-0.3-0.5-0.6-0.8-0.9
		c-1.9-1.9-2.5-1.7-3.3,0.8c-1.4,4.3-4,7.4-8.2,9.2c-1.8,0.8-3.4,1.7-5.1,2.7c-1.6,1-2.4,2.4-2.2,4.4c0.4,4.4-0.4,8.6-2,12.7
		c-0.5,1.2-1,2.3-1.9,3.3c-2.4,2.9-5.6,3.4-8.8,1.5c-1.5-0.9-2.9-2-4.2-3.2c-1.7-1.7-3.4-3.3-5.2-5c-0.6-0.5-1-1.2-2-1.4
		c-0.7,1-0.6,2.2-0.8,3.3c-0.7,3.2-1.6,6.4-4,8.8c-0.2,0.2-0.3,0.4-0.4,0.6c-2,3.1-3.6,3.7-7.1,2.6c-6-1.8-11-4.9-15.2-9.6
		c-3.9-4.4-7.7-8.8-10.7-13.8c-0.8-1.4-1.9-2.6-3.4-3.3c-8-4.4-13.4-11.2-18.1-18.8c-0.5-0.8-1-1.7-1.3-2.5c-3-7.9-5.4-15.9-5-24.5
		c0.4-9.2,1.5-18.3,4.6-27.1c2.1-6,5.4-11.2,9.9-15.7c1.4-1.4,2.8-2.8,4.4-4.1c7.1-5.7,14.1-11.5,21.6-16.8
		c9.6-6.8,20.1-11.5,31.4-14.4c2.6-0.7,2.3-0.3,2.4-3c0.7-15.8,3.6-31.1,9.8-45.7c3.2-7.5,6.3-15,10.1-22.2
		c3.7-6.9,7.8-13.4,12.7-19.4c0.8-0.9,1.5-1.9,1.9-3c3.1-8.9,6.3-17.8,8.6-26.9c1.8-7.2,1.8-14.4,0.8-21.7c-0.1-0.5-0.3-1-0.2-1.4
		c0.6-2.1-0.4-3.9-0.9-5.8c-2.2-9.1-5.8-17.8-7.6-27c-1.9-10.1-1.9-20.2-0.6-30.3c1.3-9.5,4-18.6,7.7-27.4c3.4-8,6.9-16,9.5-24.3
		c1.4-4.5,2.5-9.1,3.3-13.7c0.2-1.4,0-2.5-0.7-3.6c-4.1-6.5-8.9-12.5-13.3-18.8c-0.8-1.1-1.8-2-3-2.7c-11-6.6-19.9-15.5-27.2-26
		c-10.9-15.8-17.8-33.2-20-52.3c-1.3-11.2-1.3-22.5-0.1-33.8c0.4-4,1.3-8,2-12.1c0.6-3.6,2.2-6.8,4.7-9.6c3-3.4,5.4-7.1,7.2-11.3
		c1.8-4.1,4.1-7.9,6.5-11.7c3.5-5.6,6.4-11.4,8.2-17.8c1-3.6,3.1-6.3,6.3-8.1c0.4-0.2,0.9-0.4,1.2-0.7c3.6-3.2,7.8-4.8,12.5-5.7
		c2.7-0.5,5.1-1.8,7.5-3.2c3.8-2.1,7.7-4.3,11.6-6.3c5.6-3,10.4-6.8,14.4-11.7c1.7-2,3.4-4.1,5-6.1c3.9-4.9,8.5-9.1,13.5-12.9
		c3.3-2.6,7.1-4.4,11.3-5.1c4-0.7,7.7-2,11.4-3.7c4-1.8,8.1-3.4,12.1-5.2c6-2.8,11.8-6.1,16.3-11.1c4.3-4.8,9.6-7.9,16.1-8.6
		c2.4-0.3,4.7-0.8,7-1.7c9.9-3.9,20.2-6.6,30.6-8.6c5.3-1,10.3-3.1,15.5-4.1c7.4-1.5,14.9-2.4,22.4-2c8.1,0.4,16.3,1.3,23.6,5.5
		c1.7,1,3.4,0.8,5.1,0.3c2.9-0.8,5.8-1,8.8-0.9c2.9,0.2,5.8,0.9,8.1,2.7c2.8,2.1,5.6,2.2,8.8,1.6c5.7-1.2,11.5-2.2,17.2-3.3
		c6.3-1.2,12.7-1.7,19-2.2c3.7-0.3,7.3-0.7,11-1c11-0.9,21.5,0.9,31.7,5c4.7,1.9,9.4,3.6,14,5.6c5.8,2.6,11.8,4.5,17.5,7.3
		c1.5,0.8,3.2,1,4.9,1.2c5.4,0.7,10.8,1.2,16.3,1.1c2.4,0,4.8,0.3,7.1,0.9c8.9,2.1,17.9,4.1,26.4,7.7c6.8,2.9,13.3,6.2,19.9,9.5
		c7.1,3.6,12.6,9,16.6,15.9c2.8,4.9,6.2,9.5,10.1,13.7c4.8,5.3,9.1,11,13.1,16.8c6.3,9.3,13,18.2,20.4,26.6
		c5,5.6,9.2,11.9,14.1,17.6c3.4,4,7.2,7.4,11.8,10.1c3,1.8,5.9,3.6,8.8,5.4c2.2,1.4,4.1,3,5.6,5.2c2.7,4.1,2.5,8.4-0.7,12.1
		c-0.9,1.1-2.1,2-3.1,3c-0.8,0.7-0.9,1.4-0.3,2.3c0.6,0.8,1.1,1.6,1.6,2.4c3.7,5.3,6.2,11.2,7.5,17.5c0.6,2.6,1.3,5.1,2.3,7.6
		c4.5,11.3,5.5,23.1,3.8,35.1c-1.8,12.7-6.1,24.5-11.7,35.8c-1,2.1-2.4,4-3.8,5.8c-2.4,3.1-4.8,6.2-7.2,9.3c-2.1,2.6-4,5.4-5.7,8.3
		c-3.7,6.1-8,11.8-13.1,16.8c-1.8,1.7-3.3,3.7-4.9,5.6c-0.9,1.1-1.4,2.3-1.5,3.7c-0.6,9.2-1.3,18.3,0.2,27.5
		c2.1,12.7,8,23.3,17.1,32.3c1,1,2.2,1.6,3.5,2c1.7,0.5,3.3,1.3,4.7,2.3c3.1,2.2,3.6,5.8,1.2,8.7c-0.9,1.1-2,1.8-3.2,2.6
		c-4.8,3.1-10.1,5.2-15.2,7.7c-0.4,0.2-0.9,0.4-1.3,0.6c-0.9,0.4-1.2,1-0.8,1.9c3,6.6,4,13.6,4.9,20.7c0.3,2.3,1.2,4.5,2.4,6.5
		c1.7,2.6,3.1,5.4,4.4,8.2c5.2,11.2,10.3,22.3,14,34.1c4,12.8,6.8,26,8.5,39.3c0.9,7.2,2,14.4,2.9,21.6c1.2,9.7,0.4,19.3-1.8,28.8
		c-1.3,5.5-2.8,10.8-4.6,16.1c-0.7,2-0.7,2.2,1.2,2.8c8.8,2.9,16.4,7.8,24.1,12.8c3.8,2.4,7.4,5.1,11.1,7.6c1.8,1.2,3.2,2.6,4.5,4.3
		c5.3,6.8,10.3,13.8,14.6,21.4c1.3,2.3,2.4,4.7,3.6,7c2.7,5.6,3.4,11.4,2.4,17.5c-1.5,9.2-4.1,18.1-7.5,26.7c-1.1,2.9-3,5.5-4.8,8
		c-3.7,5-7.8,9.8-13.4,12.9c-2.2,1.2-4,2.8-5.3,5.1c-3.1,5.5-7.4,10-11.7,14.6c-4.1,4.3-9.2,6.9-14.9,8.2c-2.5,0.6-3.9-0.3-5.5-2.3
		c-3-3.6-4.5-7.8-5.2-12.4C781.1,738.3,781.1,738,780.7,737.8z"/>
</g>
<g>
	<path class="st0" d="M595.7,461.3c0.2-1.5,0-2.9-0.9-4.4c-1.4,1.7-2.4,3.4-3.4,5c-1.5,2.5-2.9,5-4.6,7.4c-2.6,3.7-6.1,5.9-10.4,7.1
		c-5,1.3-9.8,0.5-14.3-1.9c-3.2-1.7-5.8-4-8.1-6.8c-2.8-3.4-5.4-7-7.8-11c-0.6,1-0.5,1.9-0.7,2.6c-2.8,15.6-10.4,27.9-24.4,35.9
		c-3.9,2.2-7.8,4.5-12.1,5.9c-9.5,3.1-19,2.7-28.4-0.2c-6.8-2.1-13.1-5.5-19.7-8.1c-3.6-1.4-6.2-4.2-7.7-7.8
		c-1.6-3.6-3.1-7.2-3.9-11.1c-0.5-1-1.2-1.9-2-2.6c-2,1.4-4.1,2.7-6.4,3.7c-0.8,0.3-0.9,1.1-1,1.8c-0.8,3.8-1.1,7.6-1.1,11.4
		c0,5.7,2,10.7,5,15.5c0.8,1.2,1.8,2.2,3.2,2.8c1.3,0.5,2.3,1.3,3,2.4c0.2,0.4,0.5,0.7,0.9,0.9c1.4,0.8,2,2.2,2.5,3.7
		c0.1,0.4,0.3,0.9,0.4,1.3c1.9,1,3.8,1.8,5.8,2.5c4.2,1.6,7.9,3.8,11,7.1c2.1,2.3,4.7,4.1,7.4,5.6c3.9,2.2,9,2.8,12.9-0.9
		c1.3-1.2,2.6-2.3,3.8-3.6c2.2-2.2,4.8-3.7,7.8-4.6c2.2-0.7,4.5-1,6.8-1.5c6-1.3,12-2.6,17.3-6c2.1-1.3,4.1-2.7,6.1-4.2
		c6.6-4.7,11.8-10.6,14.7-18.3c0.1-0.4,0.2-0.9,0.9-0.8c0.7,1.2,1.2,2.6,1.5,4c0.3,1.6,0.3,3.2-1,4.6c-1,1-1.5,2.5-1.5,4
		c0,1.6,0,3.2,0.2,4.8c0.3,1.7,0.4,3.5,0.1,5.2c-0.6,3.9-1.3,7.8-1.9,11.7c-0.2,1.4,0.1,2.6,0.7,3.8c0.2,0.3,0.4,0.6,0.7,0.9
		c4-2.8,7.7-6.1,10.9-10c1.5-1.8,3.2-3.6,4.8-5.3c3.8-4.2,7.3-8.6,9.4-14c0.3-0.9,1-1.6,1.6-2.3c2.3-2.5,3.9-5.4,4.1-8.9
		c0-0.4,0.1-0.7,0.5-0.9c2.5,0.5,4.7,1.7,6.5,3.5c0-0.1,0.1-0.2,0.1-0.3c1.5-3.6,3.2-7.1,5.7-10.2c2.3-2.9,4.3-5.9,6.2-9.1
		C595.7,468.5,595.2,465.1,595.7,461.3z"/>
	<path class="st0" d="M361.5,427.5c-1-1.2-1.9-2.5-3.7-2.8c-0.8-0.2-1.4-0.9-2-1.6c-1-1.1-1.9-2.2-2.8-3.3c-2.1-2.5-4.3-4.9-6.9-7
		c-1-0.8-2-1.6-3.2-2c-0.3,0.8,0.1,1.1,0.4,1.5c1.7,3,3.4,6.1,4.6,9.4c0.7,1.9,1.3,3.7,1.8,5.6c3.3,2.1,7,3.5,10.7,4.8
		c2.3,0.9,5,0.1,7.4,0.9C365.4,431.5,363.4,429.7,361.5,427.5z"/>
	<path class="st0" d="M416.3,502.9c2.5,2.8,4.9,5.7,7.2,8.7c3.3,4.2,7.7,6.7,12.6,8.6h0.1c0.9-0.4,1.5-0.2,2,0.6l0,0
		c0.4,0.1,0.8,0.2,1.2,0.3c1.4,0.3,1.5,0.1,1.5-1.3c-0.1-1.1-0.2-2.2-0.2-3.2s-0.3-1.6-1.3-2c-2.7-1.4-4.7-3.6-6.2-6.2
		c-2-3.6-3.4-7.3-4-11.4c-0.2-1.3-0.6-2.5-1.2-3.7c-2.9-5.6-5.8-11.2-8.8-16.7c-0.5-1-1.1-1.6-2.1-2c-6.7-2.9-12.5-7-17.1-12.7
		c-2.1-2.6-4.2-5.2-6-8c-2.5-3.8-5-7.7-7.2-11.6c-0.4-0.8-0.8-1.4-1.9-1.6c-3.2-0.5-6.3-1.6-9.2-2.9c1.1,0.7,2.3,1.4,3.5,2.1
		c3.8,2,6.2,5.2,8.3,8.6c2.5,4.2,4.4,8.7,6.7,13c0.7,1.4,1.4,2.8,2.2,4.2c1.7,2.9,4.2,5.1,6.5,7.5c2.5,2.5,4.4,5.4,5.2,8.9
		c0.5,2.5,0.9,5,1.3,7.5c0.1,0.7,0.2,1.5,0.3,2.2c0.3-0.6,0.5-1.1,0.9-1.7c0.5-0.7,1.1-0.9,1.9-0.6c0.7,0.3,0.9,0.9,0.9,1.6
		c0,1.2-0.1,2.3-0.2,3.5C413.3,497.6,414.1,500.5,416.3,502.9z"/>
	<path class="st0" d="M595.8,527.2c-2.1-0.7-3.4-2.3-4.5-4.2c-1-1.7-1.8-3.5-2.6-5.2c-1.2-2.7-2.9-5.2-5-7.3c-0.4-0.4-0.7-1-1.5-0.9
		c-0.6,0.9-0.9,1.9-1.3,2.9c-3.8,9.1-9.7,16.6-17.5,22.6c-5.9,4.5-12.2,8.5-18.5,12.4c-3.2,2-6.5,4-9.7,6.1c-1.5,1-3,2.2-4.6,3
		c-1.3,0.6-2.7,0.7-4.1,1.2c-3,0.9-3.8-0.3-5.3-2.6c-0.5-0.8-3.3-4.6-2.6-5.6c-2.7,3.5-6.1,5.3-9.4,7.3c-1.5,0.9-3,2-4.5,3.1
		c-1.7,1.3-2.9,2.8-3.5,5c-1.4,5-6.5,6.8-10.9,4c-1.3-0.8-2.6-1.6-4-2.1c-9-3.4-15.6-9.3-23.2-14.9c-2.8-2.1-5.4-6.6-9.2-6.6
		c-3.1,0-6.1-0.5-9-1.2c-7.7-2-14.9-5.2-21.4-9.9c-0.6-0.5-1.3-1-2.1-1.2c-3.7-0.9-7.2-2.6-10.9-3.7c-7-2.2-11.5-6.7-13.6-13.7
		c-1-3.3-2.3-6.6-3.3-9.9c-0.6-1.9-1.7-3-3.7-3.5c-0.3-0.1-0.6-0.2-0.9-0.3c-0.1,0.5-0.1,0.9-0.1,1.4c-0.2,4.2,0.6,8.4,1.6,12.4
		c0.8,2.9,0.9,5.9,2,8.8c1.8,4.5,4.1,8.7,6,13.2c1.1,2.6,2.8,4.9,3.9,7.5c0.5,1.1,1,2.2,1.6,3.3c3.1,5.7,7.4,10.4,12.7,14
		c2.9,2,5.5,4.2,7.9,6.7c1.1,1.1,2.3,2.2,3.6,3.1c2.3,1.7,4.8,2.5,7.7,1.3c3-1.3,4.1-3.7,4.1-6.8c0-1.4,0-2.8,0-4.1
		c0-1.7,0-1.7,1.8-2c0.4-0.1,0.7-0.2,1.1-0.2c2.5-0.3,4.9,0,7.2,1c1.3,0.6,2.5,1.4,3.7,2.2c1.6,1.2,3.7,1.7,5,3.3
		c3.1,3.9,6.6,7.5,9.7,11.3c0.6,0.2,1.1,0.7,1.7,1.4c2.3,2.8,5.2,5.2,8.1,7.5c1.3,1,2.7,2,4.2,2.7c3.5,1.7,6.7,3.7,10.1,5.5
		c1.9,1,3.4,2.4,4.8,3.9c2.4-1,3.7-2.6,4.3-6.4c0.5-3.5,1-7,3.2-10c1.3-1.8,2.4-3.7,3.6-5.7c0.4-0.7,1-1.5,1.6-2.1
		c2.2-2.1,4.4-4.1,6.6-6.2c1.2-1.2,2.7-1.7,4.4-1.2c1.1,0.3,2.3,0.3,3.5,0.2c3.7-0.6,7.2-1.8,10.3-3.7c1.2-0.7,2.6-1.3,3.8-2.1
		c0.4-0.2,0.8-0.4,1.2,0c0.1,0.7-0.4,1.2-0.7,1.8c-3.9,6.5-5.6,13.6-5.7,21.1c0,1.8,0.3,3.6,0.4,5.4c0.2,4.9,0.3,9.8,0.5,14.8
		c0.1,1.8,0.4,3.7,0.6,5.5c0.2-1.6,0.5-3.2,0.8-4.8c0.7-4,1.6-8.1,4.1-11.4c2.1-2.6,2.9-5.4,3.1-8.5c0-0.3,0.1-0.6,0.1-0.9
		c2.3-11.8,8-21.3,19-27c2.6-1.4,5.1-3,7.8-4.3c11.4-5.7,19.1-15.3,26.4-25.3C596.6,527.9,596.7,527.5,595.8,527.2z"/>
	<path class="st0" d="M772.7,560.4c-0.4-5.1-0.7-10.1-1.2-15.2c-0.9-10.7-2.5-21.3-5.7-31.6c-2.2-7.1-4.4-14.3-5.7-21.6
		c-0.1-0.3-0.2-0.5-0.5-0.6c-0.5,0.4-0.6,1-0.7,1.5c-4.1,11.5-10.1,22.4-18.2,31.7c-8.1,9.3-18.6,17.1-22.8,29.1
		c-1.1,3.1-1.7,6.4-2.4,9.7c-0.2,1.1-0.9,2.5-2,2.3c-0.6-0.1-1-0.8-1.2-1.3c-1.8-4-2.7-9.1-3.3-13.5c-0.9-6.4-0.3-12.6,1.6-18.4
		c-2.1,1-4.1,2.3-5.8,3.9c-0.4,0.4-0.8,0.8-1.6,0.7c-0.3-0.9-0.2-1.9-0.1-2.7c0.6-3.7,0.3-7.5,0.4-11.3c0-1.9,0.3-3.7,0.7-5.6
		c1.2-4.7,3.3-9,5.5-13.2c2.6-4.9,5-10,7.4-14.9c2.1-4.2,4.5-8.2,6.6-12.5c3.2-6.7,5.6-13.6,7.5-20.8c2.5-9.6,3.1-19.2,1.4-29
		c-0.1-0.4-0.1-0.9-0.2-1.3c-0.6-0.9-1.3-1.7-2-2.6c-2-2.2-2.6-4.9-1.4-7.7c1.1-2.7,3.1-4.1,5.8-4.6v-0.1c-1.6-3.8-4.6-6.3-8-8.2
		c-0.7-0.4-2-0.3-2.2-1.2c-0.2-1,0.9-1.6,1.4-2.3c2.1-3,4.1-6,4.7-9.7c0.3-1.5,0.2-2.8-0.1-4.1c-0.1,1.6-0.3,3.1-1.1,4.5
		c-1.4,2.6-3.8,3.9-6.6,4.5c-7.1,1.6-14.1,0.8-21.1-0.7c-0.8-0.2-1.6-0.7-2.5-0.4c0,0.7,0.3,1.2,0.6,1.7c1.9,3.8,3.2,7.8,4.1,11.9
		c0.6,2.8,1.4,5.5,2.4,8.1c1.3,3.4,1.7,6.9,1.5,10.4c-0.8,11.2-4,21.7-9.9,31.4c-3,4.9-5.8,9.9-8.7,14.8c-3.5,5.9-6,12.2-7.9,18.8
		c-1.1,4.1-1.5,8.2-1.2,12.5c0.4,5.3,1.3,10.5,3,15.5c2,5.9,2,12,2,18c0,1.2-0.2,2.3-0.7,3.4c-0.4,0.8-1,1.4-2.1,1.2
		c-0.9-0.2-1.2-0.9-1.3-1.8c-0.4-3.6-1.4-7-2.7-10.3c-3.1-7.6-7.3-14.4-14.5-19c-0.8-0.5-1.2-0.7-2,0c-4.9,4.3-10.5,9.2-13.2,15.3
		c-3.3,7.3-3.5,15.6-4.6,23.4c-0.2,1.2-1.5,2.9-2.7,1.4c-0.4-0.4-0.5-1-0.6-1.6c-0.2-1.3-0.5-2.6-0.5-3.9c-0.2-5.8,3-11.1,3.7-16.8
		c0.8-6.4,2-12.7,4-18.8c3.1-9.1,7.1-17.8,12.4-25.7c2.1-3.1,4.1-6.1,6.2-9.2c3.3-4.6,6.6-9.3,9.9-14c4-5.7,7.2-11.7,9.8-18.1
		c1.3-3.1,2-6.4,3.3-9.4c0.1-0.3,0.2-0.5,0.3-0.8c0.1-2.2,0.1-4.5,0.1-6.7c-1.3-6-2.8-11.9-4.5-17.8c-0.8-2.6-1.9-5-3.3-7.3
		c-1.5-2.4-3.2-4.6-4.5-7.2c-0.2-0.4-0.5-0.7-0.8-1c-2.2-2-5.1,5.1-6.3,6.6c-2.3,2.8-5.3,3.5-8,5.5c-2.9,2.1-4.8,5.2-7.3,7.7
		c-3.3,3.4-6.6,6.9-10,10.2l0,0c0.9,1.1,2,2,3.4,2.7c1.9,0.8,3.2,2,4.2,3.8c1.2,2.2,1.9,4.5,2.4,6.9c0.2,0.9,0,1.8-0.5,2.7
		c-1.4,2.2-2.4,4.6-2.6,7.3c-0.2,1.9-0.2,3.8-0.3,5.7c1.5-2.4,2.7-5,3.7-7.8c0.2-0.7,0.6-1.3,1-1.9c0.5-0.8,1.2-1.2,2.2-1
		c1.1,0.2,1.5,1,1.7,2c0.1,0.5,0,1,0,1.5c-0.1,1.4-0.5,2.9-0.9,4.2c-0.4,1.2-0.6,2.5-0.6,3.8c-0.1,3.7-0.1,7.4-0.6,11
		c-1.1,7.8-4.6,14.4-10.7,19.6c-3.1,2.7-6.5,5-10.2,6.5c-5.7,2.4-10.5,6.1-15,10.2c-0.9,0.8-1.5,1.7-2,2.8
		c-1.9,4.5-4.1,8.8-6.7,12.9c-0.6,0.9-0.7,1.8-0.5,2.9c1.1,4.3,1.5,8.7,1.8,13.1c0.5,8.9-2.2,16.7-8.7,23c-1.6,1.6-3.3,3.1-4.9,4.6
		c-0.3,0.3-0.9,0.5-0.8,1.2c1.9,0,3.5-0.5,5.7-1.8c1.1-0.6,2.1-1.4,3.1-2c1.3-0.8,2.8-0.9,4.1,0c0.4,0.2,0.6,0.5,0.9,0.8
		c0.2-0.1,0.4-0.1,0.7,0c2.2,0.5,4.3-0.2,6.3-1.1c4.5-2.1,8-5.4,10.6-9.6c0.4-0.6,0.6-1.3,1.4-1.5c1.3,0.9,2.6,1.6,2.4,3.5
		c-0.1,0.6,0.4,1.2,0.7,1.8c0.9,2.2,2.4,3.8,4.1,5.5c2.2,2.2,5.4,2.7,8,0.9c2.4-1.6,3.3-3.9,3.6-6.6c0.1-0.8,0.1-1.6,0.7-2.1
		c4.9,2.9,5.1,3,10.9,3.7c0.4-2.3,0.6-4.6,0.9-7c0.3-2.7,0.1-5.4-0.5-8c-0.1-0.3-0.1-0.6-0.2-0.8c-0.2-1.6,0.3-2.8,1.4-3.4
		c1.1-0.6,2.3-0.3,3.5,0.9c0.5,0.4,0.9,1,1.3,1.5c4.6,5.6,6.6,12.1,6.6,19.3c0.1,9.4-1.6,18.4-4.9,27.2c-1.7,4.5-3.6,9-5.6,13.5
		c-4.2,9.6-10.8,17.1-19.4,22.8c-2.3,1.6-4.8,3-7.2,4.5c-5.9,3.6-11.5,7.5-16.4,12.4c-0.3,0.3-0.5,0.5-0.8,0.8
		c-3.7,3.7-6.3,8-7.5,13.2c-1.6,6.6-2.7,13.2-3.7,19.8c-0.4,3-0.8,6-1.3,9H623c0.2-0.1,0.4-0.3,0.7-0.4c1-0.7,2-1.5,2.9-2.3
		c0.5-0.5,1.1-1,1.6-1.5l0.1-0.1c0.2-0.3,0.5-0.6,0.7-0.9c2-2.7,3.9-5.4,5.8-8.2c0.5-0.8,1.1-1.6,1.6-2.4c0.2-0.3,0.4-0.6,0.6-0.9
		c0.5-0.9,1.1-1.7,1.7-2.4c0-0.1,0.1-0.1,0.1-0.2c2.5-3.6,5-7.1,7.8-10.5c1-1.3,2.1-2.6,3.2-3.9l1.7-1.9l0.8-1
		c0.3-0.3,0.6-0.6,0.9-0.9l1.7-1.9c0.6-0.6,1.2-1.2,1.8-1.8c1.2-1.2,2.4-2.4,3.6-3.6l0.5-0.4l0.5-0.4l0.9-0.9
		c0.6-0.6,1.3-1.2,1.9-1.7l2-1.6l1-0.8c0.3-0.3,0.7-0.5,1-0.8l2-1.6l0.5-0.4l0.5-0.4l1-0.7l2.1-1.5l2.1-1.4c1.5-1,3.1-1.9,4.7-2.8
		l0,0c-0.8-0.7-1.6-1.3-2.3-1.9c-2.6-2.3-3.1-6.1-0.6-8.4c2.5-2.3,3.5-5,3.9-8.2c0.2-2,0.8-4,1.2-6c1.5-6.6,2.2-13.3,2.5-20
		c0.1-1.5,0.1-3,0.4-4.5c0.3-1.4,0.7-2.8,1.9-3.8c0.6-0.5,0.8-1.2,1.1-1.8c0.4-0.9,0.8-1.9,1.3-2.7c0.7-1.2,1.9-1.6,3.2-1.3
		c1.2,0.3,2,1.3,2.1,2.7c0,0.7-0.1,1.4-0.1,2.3c0,1.7-0.1,3.5,1.2,5c0.6,0.7,0.7,1.7,0.7,2.7c0.2,3.7,1.5,7,3.5,10.1
		c1.7,2.7,3.3,5.4,4.9,8.2c2.3,3.9,3.7,8.2,4.3,12.7c0.1,1,0.3,2.1,0.6,3.1h0.2l0.6-0.1l2.5-0.6c1-0.2,1.9-0.4,2.9-0.6
		c0.3-0.3,0.5-0.6,0.9-0.9c2.3-1.9,3.6-4.3,4.2-7.1c0.3-1.2,0.8-2.3,1.5-3.4c2.6-4.4,5-9,6.9-13.7c1.6-3.9,3-7.8,4.7-11.7
		c2.5-5.7,6-10.7,9.5-15.8c0.7-1.1,1.1-2.6,2.4-3c1.2-0.4,2.4,0.7,3.6,1.1c3.1,1,5.6,3,7.5,5.6c1,1.4,1.9,2.7,3,4
		c1,1.2,1.5,2.5,1.7,3.9c0.5,2.6,1.1,5.2,1.6,7.9c1.4,7,2.5,14.1,2.3,21.3c-0.1,3.2-0.1,6.4-0.1,9.6c0.6,0.1,1.3,0.2,1.9,0.3
		c0.9-4.3,1.7-8.6,2.4-13C772.4,578.7,773.5,569.6,772.7,560.4z"/>
	<path class="st0" d="M332.8,251.8c2.5,4.7,5.4,9.2,8.8,13.3c2.6,3.2,5.2,7.3,9.1,9c3.8,1.6,8.1,1.4,12.1,1.3
		c1.9-0.1,3.3,0.1,4.9-0.9c1.5-1,1.9-2.3,3.5-0.3c1,1.2,1.5,3.6,1.3,5.2c-0.3,1.5-0.7,3-1,4.4c-2,9.7-7.4,16.8-15.8,21.8
		c-1.8,1.1-3.6,2.1-5.2,3.5c-3.8,3.1-6.1,6.9-6.4,11.8c-0.5,6.1-1.2,12.1-2.6,18c-1.9,8.3-4.3,16.4-8.3,23.9c-2.8,3-2.2,6.3-0.9,9.6
		c0.1,0.1,0.1,0.3,0.1,0.4c2.1,5.4,5.1,9.6,11.1,11.2c4.8,1.2,8.3,4.4,10.4,8.9c2.1,4.6,5.6,7.8,9.8,10.4c2.3,1.4,4.6,2.8,6.8,4.2
		c1.4,0.9,3,1.1,4.8,1.4c0-0.5,0-0.8,0-1.1c-1-4.9-1.4-9.9-1.8-14.9c-0.5-6.2-2.4-11.9-6.6-16.7c-0.4-0.5-0.8-1.1-1.2-1.6
		c-4.5-5.8-8.4-11.9-11-18.8c-1.5-3.8-1.5-7.3,0.2-10.9c2.7-5.9,7.4-10.1,12.5-13.8c0-0.4-0.1-0.7-0.3-1.2c-0.3-0.5,0.3-1.1,0.5-1.6
		c1.4-3.4,3.6-6.4,5.7-9.4c1.6-2.2,3.1-4.5,4.1-7c-1.3,0.8-2.8,0.2-3-1.3c-0.1-0.6,0-1.2,0.1-1.7c0.4-3.1,1.6-5.9,3.4-8.4
		c1.7-2.4,3.5-4.6,5.9-6.3c0.7-0.5,1-1.2,1.3-1.9c1.8-4.5,4.2-8.6,7.5-12.1c2.2-2.4,3.7-5.3,5.4-8.1c0.1-0.1,0.1-0.3,0.2-0.4
		c1.5-1.5,2.2-3.2,1.5-5.4c-0.3-1.1,0.3-2.3,0.8-3.3c0.6-1.2,1.2-2.4,1.2-3.7c0-2.7,2.9-4.7,5.1-4.7c4.7-0.2,9.1-1.7,13.7-2.2
		c1.9-0.2,3-1.8,4.3-3.1c0-0.1,0.1-0.1,0.1-0.2c0.1-0.2,0.1-0.4-0.1-0.6c-0.6-0.8-0.4-1.8-0.4-2.7c0.3-3.7-1.2-6.5-4.3-8.4
		c-1.9-1.2-3.7-2.5-4.7-4.7c-0.3-0.7-0.9-0.6-1.5-0.4c-3.4,1.1-7,1.4-10.5,1.1c-4.4-0.3-8.6-1.4-12.1-4.2c-3.3-2.6-7.1-4.2-10.8-5.9
		c-0.9-0.4-1.3-0.1-1.2,0.9c0.3,3.2,1.8,5.6,4.6,7.2c0.8,0.5,1.6,1,2.4,1.5c0.4,0.3,0.7,0.8,0.3,1.3c-0.3,0.4-0.7,0.4-1.2,0.2
		s-1-0.3-1.4-0.5c-1.1-0.5-2.1-0.8-3.1,0.3c-0.7,0.8-1.8,0.8-2.9,0.5c-1.9-0.5-3.7-1.3-5.1-2.7s-3-2.8-4.5-4c-3.1-2.4-5.3-5.5-7.1-9
		c-0.4-0.8-0.7-1.6-1-2.4c-0.8-2.2-0.5-4.3,1.2-6.1c0.7-0.8,1.1-1.7,1.4-2.6c1-2.6,2-5.1,3.3-7.5c1.9-3.6,4-7.1,6.3-10.4
		c1-1.4,2-2.6,3.4-3.6c1.1-0.8,2.4-1.3,3.8-1.4c0.2,0,0.5,0,0.7,0.2c1.4-1.5,2.9-2.9,4.7-4.1c3.9-2.7,8-4.8,12.6-5.9
		c4-0.9,8-0.9,12.1-0.8c0.4,0,0.9,0,1.3,0.2c2.6,1.7,5.5,3.1,8,4.9c-0.2-0.7-0.2-1.4,0.3-2.1c0.7-1,1.8-1.3,2.9-1
		c2.4,0.7,4.6,1.6,6.6,3.2c0.6,0.5,1.2,1.2,1.3,1.9c0.2,1.8,1.4,2.7,2.8,3.6c2.9,1.9,4.7,4.7,5.6,8c0.2,0.8,0.5,1.7,0.9,2.4
		c2.1,3.8,2.4,7.8,1.6,12c-0.4,2.3-0.9,4.7-2,6.9c-0.5,1.1,0.1,1.6,0.7,2.3s1.1,0.4,1.7,0.1c3-1.3,6.1-0.7,8.3,1.7
		c0.7,0.8,1.5,1.6,2.2,2.4c0.5,0.6,0.9,1.3,1.3,2c0.5-1.3,0.8-2.7,0.5-4.2c-0.5-2.9-1.6-5.6-3.8-7.6c-1.8-1.6-3-3.4-3.4-5.8
		c-0.5-3-2.4-5.4-3.7-8c-1.4-2.8-1.7-5.7-0.6-8.6c0.9-2.6,1.8-5.2,3.2-7.5c0.5-0.8,0.9-1.6,1.3-2.5c-0.3-0.7-0.5-1.5-0.7-2.2
		c-0.4-1.2-0.9-2.5-1.3-3.7c-1.1-2.9-3.3-4.4-6.5-4.5c-0.6,0-1.2-0.2-1.7-0.5c-1.8-1.2-3.9-1.5-6-1.9c-1.1-0.2-2.3-0.5-3.4-0.8
		c-0.6-0.2-1.2-0.4-1.8-0.7c-1.2-0.7-1.9-1.8-1.8-3.2c0.1-1.5,1-2.4,2.3-2.9s2.7-0.6,4.1-0.3c0.8,0.2,1.4,0.1,1.8-0.7
		c2.1-3.8,7.6-5,11.8-3.7c1.4,0.4,2.6,1.6,4,1.6c1.3,0,2-1.7,3.3-2.3c1.2-0.5,2.4-0.9,3.8-0.9c0.2,0,0.4,0,0.5-0.1
		c0-0.5,0-0.9,0-1.4c-1.6-2.2-3.2-4.4-4.7-6.6c-0.3-0.5-0.6-1-0.9-1.5c-1.1-2.4-0.7-4.7,0.7-6.2c-1.6-1.3-3.6-2.2-5.6-2.6
		c-2.9-0.6-5.3,0.2-7.4,2c-1.9,1.6-2.7,3.7-3,6.1c-0.3,1.7-1.6,2.6-3.2,2c-2.4-0.9-4.3-0.2-5.9,1.5c-3.2,3.4-7.3,4.5-11.7,4.6
		c-3.6,0.1-7-1.1-10.3-2.2c-5.3-1.8-5.3-1.8-8.1-6.4c-0.5-0.8-0.9-1.7-1.3-2.5c-1.1-2.4-1.5-4.8-0.4-7.2c-2.3,0.7-4.5,1.6-6.6,2.8
		c-1.6,0.9-3,2-4,3.6c-0.5,0.9-1.2,1.7-2,2.3c-1.2,0.9-2.6,1.4-4,0.7c-1.5-0.7-2-2-2-3.6c0-2.1,0.9-3.9,2.3-5.2
		c3.8-3.5,7.2-7.3,11.5-10.2c2.3-1.6,4.7-2.8,7.4-3.4c0.7-0.2,1.3-0.4,1.9-0.9c2.7-2,5.6-3,8.4-3.1c-0.1,0-0.1,0-0.2-0.1
		c-1.6-0.5-3.3-0.4-4.9-0.7c-3.1-0.6-6.3-0.3-9.2,0.5c-5.2,1.5-10.5,3.1-15.1,6.1c-3.3,2.1-6.8,4.2-9.2,7.4
		c-0.2,0.3-0.5,0.6-0.8,0.9c0.5,0,1,0,1.5,0.1s0.9,0.3,0.8,0.8c-0.5,2-0.4,4.1-2.1,5.8c-1.5,1.5-2.9,3.3-4.3,4.9
		c-2.7,3.3-4.4,7-4.5,11.3c-0.1,2-0.3,3.9-0.4,5.9c-0.3,5-1.3,10.2-4.7,14.1c-4.3,4.9-9.3,8.9-11.9,15.1c-3.2,7.9-4.8,16.9-6.6,25.2
		c-0.2,1-0.1,1.9,0.2,2.8c1.1,3.5,2.2,7,3.7,10.4c0.7,1.5,1.5,3,2.5,4.3c1.4,1.9,3.6,2.1,5.2,1.2c2.1-1.2,4.5-1.6,6.4-3.2
		c1-0.8,2.2-0.7,3.3,0c1.1,0.8,1.5,1.9,1.3,3.2c-1.1,5.9-4.3,10.5-8.9,14.2c-1.1,0.9-2.4,1.5-3.8,2c-4.7,1.5-9,0.2-12-3.6
		c-1.2-1.5-2.1-3.2-2.9-4.9c-0.7-1.4-1.3-2.8-2.2-4c-0.3-0.4-0.5-0.9-1.3-0.7c0.6,4,0.9,8.1,2.9,11.7
		C330.2,247.4,331.6,249.5,332.8,251.8z M373.4,239.6c1.1-0.4,2.1-0.3,3.1,0.3c3.1,1.6,6.3,2.8,9.7,3.8c1.6,0.5,3.2,0.2,4.7-0.2
		c1.4-0.4,2.8-0.9,4.1-1.3c2.1-0.6,14.4-3.2,14.5-1c0,0.6-9.4,6.9-10,8.1c-0.9,1.9-2.1,3.4-3.8,4.7c-5,3.8-10.4,6.8-16.1,9.4
		c-0.9,0.4-1.9,0.7-2.9,0.8c-2.7,0.2-4.7-1.6-4.7-4.2c0-1.1,0.2-2.2,0.6-3.2c0.6-1.5,0.6-3.1,0.4-4.7c-0.4-2.7-1-5.4-1.5-8.1
		C371.1,241.9,371.8,240.2,373.4,239.6z M357,198.5c-0.1,0.1-0.1,0.3-0.2,0.4c-0.6,1-1.4,1-2,0c-0.6-1.1-1.2-2.4-1.2-3.7
		c-0.1-3.4,0.1-6.8,1.7-9.9c0.6-1.1,0.9-2.3,1-3.5c0.5-6.3,4.1-10.5,9.5-13.3c0.3-0.1,0.5-0.2,0.8-0.3c2.9-0.9,5.5-2.3,7.8-4.5
		c2.9-2.7,6.6-4.2,10.7-4c2.3,0.1,4.6,0.2,6.8,1.1c1,0.4,2.3,0.8,2.1,2.1c-0.2,1.5-1.6,1.2-2.7,1.1c-3.8-0.1-6.7,1.4-8.9,4.4
		c-2,2.7-3.8,5.4-4.7,8.7c-0.6,2.3-1.8,4.2-3.6,5.9c-1.4,1.3-3,2.3-5,2.3c-1,0-1.5,0.4-1.8,1.4c-0.5,1.7-1.6,2.9-3.1,3.8
		C360.9,192.4,358.9,195.3,357,198.5z"/>
	<path class="st0" d="M545.5,200.3c-1.6,3.4-3.8,6.5-3.7,10.5c0,1.1-0.6,1.8-1.4,2.5c-1.6,1.3-2.8,2.9-3.6,4.8
		c-0.7,1.7-0.5,3.7,0.4,5.3c0.3-0.9,0.8-1.8,0.8-3.1c1.9,1.9,3.7,3.2,5.8,4.1c1.8,0.7,3.5,1.7,5.2,2.6c2.8,1.5,4.9,3.7,5.8,6.7
		c1.5,4.6,4.6,8.2,7.2,12c0.6,0.9,1.5,1.1,2.4,1.2c3.9,0.5,7.4,1.9,10.7,3.9c0.5,0.3,0.9,0.6,1.4,0.9c1.5-0.1,2.9-0.1,4.4-0.3
		c1.1-0.2,2.4-0.4,3.4,0.3c0.6,0.4,1.2,0.8,1.9,1.1c-0.5-1.2-0.3-2.2,0.5-2.8c0.8-0.7,2-0.7,3.2,0.1c1,0.7,2,1.4,3,2.1
		c1.6,1,3.2,1.4,5.2,0.9c1.8-0.5,3.7-0.6,5.6-0.9c3.4-0.5,6.7,0.1,9.6,2c1.8,1.1,3.4,2.4,5.1,3.7c0.6,0.4,1.2,0.9,1.3,1.7
		c0.3,1.5,1.1,1.2,2.1,0.8c2.2-0.9,4.4-1.8,6.7-2.6c4.2-1.5,17.6,3.8,17.3-7c0.7-6.5-1.3-12.6-2.9-18.8c-0.5-1.8-1.3-3.4-3.5-3.9
		c-1.8-0.5-2.8-2.2-2.7-4s1.3-3.2,3.1-3.8c1.4-0.4,2.7-0.3,4.1-0.1c2.7,0.4,5.4,1.2,8.2,1c0.8-0.1,1.8,0.1,2.5,0.5
		c1.8,0.9,3.2,0.4,4.5-0.8c0.5-0.5,1.1-0.9,1.6-1.4c0.8-0.8,1.2-1.7,1.2-2.9c-0.2-5.2-1.5-10-5.4-13.7c-0.5-0.5-1.1-1-1.5-1.5
		c-4.6-5.7-10.2-10.5-13.3-17.3c-0.1-0.3-0.3-0.8-0.7-0.6c-1.6,0.7-3.8,0.2-4.7,2.5c-0.7,1.9-2.3,3-4.4,2.9
		c-2.1-0.1-3.4-1.4-4.2-3.3c-0.7-1.7-1.2-3.6-1.6-5.4c-0.4-1.9-1.3-3.1-3.2-3.7c-1.4-0.4-2.6-1.2-3.6-2.4c-0.8-1-1-2.1-0.5-3.3
		s1.5-1.8,2.7-1.9c0.5,0,1.1-0.1,1.5,0.1c4.7,2,9.2-0.2,14,0.1c4.6,0.3,8.2,4.4,12.4,4.9c4,0.4,5.7-3.4,6.5-7.3
		c2-10.5-2.7-21-6.1-30.6c-0.3-0.8-0.6-1.6-1.1-2.2c-3.1-3.4-12-3.1-16.1-5.6c-1.9-1.1-3.5-2.5-4.8-4.4c-1.7-2.6-2.4-5.3-1.1-8.2
		c0.4-1,0.2-1.7-0.3-2.6c-1.4-2.2-2.5-4.6-3.3-7.1c-1-3.1-1.4-6.2-1.2-9.4c-0.8-0.1-1.6,0-2.4,0.3c-2,0.7-3.6,2.5-3.9,4.5
		c-0.4,2.5-0.6,5.1-0.1,7.6c0.3,1.8,0.5,3.4-0.8,4.8c-0.3,0.3-0.3,0.8-0.5,1.2c-0.9,2.5-1,5.2-1.3,7.8c-0.2,1.7-0.1,3.5,0.3,5.2
		c0.3,1.2,0.5,2.4,0.9,3.6c0.2,0.8,0,1.2-0.9,1.2c-1.2,0-2.5,0-3.7,0c-2.4,0-3.7,1.5-4.5,3.5c-0.9,2.2,0,4.6,2.3,6.4
		c1.5,1.2,3.2,2.3,4.6,3.6c2,1.8,4.2,3.2,6.8,3.9c0.9,0.2,1.2,0.7,0.9,1.6c-0.5,1.3-1.1,2.7-1.2,4.2c0,0.6-0.5,0.8-1,1.1
		c-2,1-3.9,2.2-5.7,3.6c-1.1,0.8-2.3,1.2-3.6,1.2c-1.6,0-3.2-0.2-4.7-0.5c-2.6-0.4-5.1-0.3-7.4,1c-0.3,0.2-0.6,0.3-0.9,0.4
		c0.6,0.7,1,1.4,1.4,2c0.8,1.4,1.6,2.8,2.3,4.2c0.6,1.1,0.9,2.3,0.8,3.6c0,0.7-0.1,1.3-0.8,1.6s-1.3-0.1-1.8-0.5
		c-0.7-0.6-1.3-1.2-1.9-1.7c-1.7-1.5-3.4-3-5-4.5c-1.8-1.6-3.8-2.3-6.2-2c-1.7,0.2-3.3,0.4-4.9,0.8c-2.4,0.6-4.8,1.1-7.2,1.8
		c-3.5,0.9-14.1,7.4-16.9,8.7c-2.2,1-3.8,2.6-5.1,4.6c-1.5,2.3-2.8,4.7-3.9,7.3c-0.2,0.5-0.4,1.1-0.7,1.6c-0.1,0.1-0.1,0.2-0.2,0.3
		c0,0.5,0,0.9,0,1.4c0.1,1.7,0.3,3.3,1.2,4.8c0.6,0.9,0.5,1.8,0,2.6C546,199.4,545.8,199.8,545.5,200.3z M547.3,206.5
		c0.7-1.4,1.4-2.7,2.1-4c1.4-2.5,2.4-5.1,3.4-7.7c2.2-6.1,5.9-11.1,11.8-14.1c3.5-1.8,7.4-2,11.2-1.9c0.4,0,0.7,0.1,1,0.3
		c0.7,0.3,0.9,1,0.7,1.5c0.4,0,0.8,0.1,1.2,0.1c3.2,0.2,6.3,0.5,9.5,1c-0.5-1.1-0.1-2.4,1-3.5c1.2-1.2,3.3-1.9,6-1.9
		c2.6,0.2,5.6,1.3,8.2,3.3c0.5,0.4,1,0.9,1.6,1.2c2.6,1.3,4,3.5,5.1,6c1.1,2.4,0.8,4.6-0.8,6.7c-0.5,0.7-1,0.7-1.6,0.2
		c-0.4-0.3-0.8-0.6-1.1-0.9c0.2,0.2,0.3,0.5,0.5,0.7c0.1,0.2,0.3,0.4,0.4,0.6c0.2,0.3,0.4,0.6,0.6,0.9c0.1,0.2,0.3,0.4,0.4,0.6
		c0.2,0.3,0.4,0.6,0.5,0.9c0.1,0.2,0.3,0.4,0.4,0.7c0.2,0.3,0.3,0.6,0.5,0.9c0.1,0.2,0.3,0.5,0.4,0.7c0.2,0.3,0.3,0.6,0.4,0.9
		c0.1,0.2,0.2,0.5,0.3,0.7c0.1,0.3,0.3,0.7,0.4,1c0.1,0.2,0.2,0.5,0.3,0.7c0.1,0.4,0.3,0.7,0.4,1.1c0.1,0.2,0.1,0.4,0.2,0.6
		c0.2,0.6,0.3,1.2,0.5,1.8c0.7,1.2,1.3,2.4,1.9,3.7c0.5,1.1,1.1,2,2.2,2.5c1.9,1,3.4,2.6,5.6,3.2c1,0.3,1.5,1.3,1.5,2.4
		c-0.1,1.7-2.3,4.1-4,4.3c-4.3,0.5-8.5,1.8-12.6,3.3c-3.4,1.2-6.8,1.9-10.2,2.8c-0.9,0.2-1.8,0.5-2.6,1.1
		c-5.7,4.5-12.3,5.4-19.3,4.7c-0.7-0.1-1.4-0.4-2.3-0.1c1.2,1.5,2.5,2.2,4,2.7c4.2,1.4,8.4,2.7,12.8,3.5c0.4,0.1,0.9,0,1,0.6
		c0,0.5-0.4,0.7-0.9,0.8c-3,0.4-6,1.1-9.1,0.7c-1.7-0.2-3.3-0.4-5-0.6c-1.1-0.1-2.1-0.4-3.1-0.9c-1-0.4-2-0.8-3.1-1
		c-1.4-0.3-2.6-0.9-3.7-1.8c-1.1-0.8-2.2-1.6-3.3-2.4c-0.6-0.5-1.4-0.9-1.8-1.6c-2.2-3.3-4.9-6.3-6.6-9.9c-0.3-0.7-0.8-1.2-1.4-1.6
		c-1.5-1.1-2.9-2.4-4.1-3.9C545.9,214.3,545.4,210.5,547.3,206.5z"/>
	<path class="st0" d="M290.5,544.4c-2.5-0.5-4.5-2.2-5.3-4.9c-0.5-1.6-0.5-3.3-0.2-4.9c0.7-3.3,1.4-6.7,2.1-10
		c0.5-2.4,0.6-4.7-0.5-7c-0.5-1-0.7-2-1-3.1c-2.7-9.2-5.7-18.2-9-27.2c-0.3-0.8-0.5-1.8-1.2-2.5c-0.8,1.2-1.5,2.3-1.8,3.6
		c-0.6,2.5-1.5,4.9-2.6,7.2c0.6,0.9,0.4,1.8,0,2.8c-0.8,1.9-1.4,3.8-1.8,5.8c-0.8,4-1.6,7.9-2.4,11.9c-1.6,7.6-4.6,14.8-6.9,22.1
		c-0.8,2.6-1.7,5.2-2.8,7.7c-3.2,7-6.3,14-8.9,21.2c-3.2,8.7-5.3,17.6-4.9,26.9c0.1,1.9-0.3,3.6-1.1,5.1c3.5,0.1,7.1,0.4,10.6,0.8
		c5.9,0.6,11.7,1.6,17.5,2.9c1.9-2,3.8-3.8,5.9-5.6c1-0.9,2.2-1.7,3.4-2.3c1.2-2.8,2.1-5.7,2.7-8.8c0.7-4.3,1.3-8.6,2.6-12.7
		c1.1-3.3,2.2-6.6,3.3-9.9c2-5.9,3.2-12,2.8-18.3C290.6,544.8,290.5,544.6,290.5,544.4z"/>
	<path class="st0" d="M365,471.8c-0.7,0.2-1.2,0.8-1.7,1.3c-2.3,2-4.7,3.8-7.4,5.3c-3.3,1.7-6.7,2.7-10.4,2.9
		c-2.4,0.1-4.7-0.5-6.2-2.5c-1.9-2.5-3.1-5.4-2.3-8.7c1-3.8,1.4-7.7,2-11.6c0.8-5.5,1.4-11.1,0.1-16.6c-0.8-3.5-1.4-7-2.2-10.4
		c-0.5-2.1-1.1-4.2-2.1-6.2c-0.8-1.7-1.8-3.4-3.3-4.7c-0.2,0.1-0.4,0.1-0.5,0.2c-2.9,3.6-6.5,6.6-10.1,9.6c-2.8,2.3-4.4,5.3-5.8,8.5
		c-0.7,1.5-0.8,3.2-0.6,4.9c0.2,1.7-0.9,2.6-2.3,2.3c-0.7-0.2-1.3-0.7-1.7-1.2c-0.9-1.1-1.6-2.4-1.9-3.9c-0.6-3.1-1.7-6-2.5-9
		c-0.2-0.8-0.3-1.6-0.5-2.3c-1.2-6.8,0.1-13.3,2.6-19.5c0.8-2,1.8-4,2.4-6c1.8-5.5,2.2-11,0-16.6c-0.7-1.7-0.6-1.7-2.4-1.1
		c-0.2,0.1-0.4,0.1-0.6,0.2c-4.8,1.4-9,0.5-12.5-3.2c-0.6-0.6-1.2-1.1-1.9-1.5c-2.8-1.5-4.6-3.9-5.6-6.9c-1.1-3.2-1.8-6.4-2.1-9.7
		c-0.4-4.4-0.8-8.8-2.1-13.1c-0.4-1.2-0.7-2.5-1.5-3.5c-0.6,0.5-0.6,1.1-0.8,1.6c-0.8,2.7-1.7,5.4-2.5,8.1
		c-2.4,7.3-4.4,14.7-6.1,22.3c0.3,1,0.7,1.9,1.1,2.9c2.4,5.1,6.4,8.7,11,11.7c2,1.2,4,2.3,6,3.4c1.4,0.8,2.1,2.1,2.1,3.6
		c0.1,4.1,0.2,8.1-0.1,12.2c-0.4,4.9-0.3,9.7,1,14.4c1.5,6,4.1,11.6,7.1,17c2.4,4.4,6.3,7,11.5,7c3.2,0,5.5,1.3,7.4,3.6
		c1.5,1.8,1.4,1.9,0,3.6c-0.2,0.3-0.6,0.5-0.8,0.8c-0.2,0.4-0.6,0.8-0.5,1.4c0.4,3.6,0.2,7.2,1,10.8c0.9,4,1.6,8.1,1.5,12.2
		c0,5.5-1,10.8-2.1,16.1c-0.3,1.5-0.6,2.9-0.8,4.4c0.1,0.3,0.2,0.6,0.5,0.8c2,1.9,2.8,4.3,3.3,6.9c0.3,1.7,0.5,3.4,0.8,5.2
		c0.6,3.3,1,6.6,2.7,9.6c2.2,4,3.9,8.2,6.2,12.2c3.5,6,2.4,11.8-0.2,17.7c-0.4,0.9-0.9,1.6-1,2.6s-0.5,1.9-1.7,1.9
		c-0.4,0-0.7-0.1-1-0.3c0.6,3.8,1.9,7.4,3.5,11c2,4.3,4.7,8.2,7.2,12.1c1.2,1.8,2.2,3.7,2.9,5.7c1.2,1.4,2.5,2.9,3.2,4.7
		c0.8,2.1,2.1,4,3.6,5.7c0.5,0.5,0.9,1.1,1.8,1.5c0.3-1.6,0.6-3.1,0.8-4.5c0.8-5.3,2-10.4,3.7-15.5c-0.1-0.8-0.1-1.1,0.4-1.3
		c0.3-0.8,0.6-1.7,1-2.5c1.5-3.6,2.4-7.4,3.2-11.3c0.4-2,0.3-3.9-0.5-5.7c-0.7-1.7-1.2-3.4-2-5c-2.1-4.2-3.6-8.7-5.6-13
		c-1.4-3.2-2.3-6.5-2.4-10.1c-0.2-9.3,0.6-18.5,3.6-27.4c1.1-3.3,3.3-5.9,5.5-8.4c0.5-0.5,1-1,1.6-1.3c0.4-3.2,1.1-6.3,2-9.4
		c1-3.5,2.6-6.6,5.5-8.9c-0.5-1.4-0.9-2.9-1.2-4.4C365.5,473.2,365.6,472.4,365,471.8z"/>
	<path class="st0" d="M431.6,614.9c-0.5-1.2-0.8-2.5-0.6-3.8c0.3-1.7,0.6-3.4,1.1-5.1c0.5-1.8,0.7-3.5,0.7-5.4c0-2-0.6-3.7-1.7-5.2
		c-5.8-0.4-11.7-0.8-17.5-1.7c-6.5-1.1-12.7-2.8-18.9-4.8c-3.8-1.2-7.1-3.1-10.4-5.4c-0.6-0.4-1.1-0.9-1.9-1.1
		c-0.2,0.4-0.3,0.7-0.4,1c-1,3.7-2.6,7.1-4.9,10.1c-0.5,0.7-0.8,1.3-0.7,2.2c1,6.9-0.9,13.2-4.1,19.2c-0.6,1.1-1.2,2.2-1.8,3.2
		c-0.7,1.1-0.8,2.3-0.5,3.5c2.3,8.6,4.2,17.3,6.9,25.8c1.3,4,3.1,7.6,5.8,10.9c1,1.2,1.7,2.5,2.5,3.8c0.1,0.1,0.1,0.2,0.1,0.3
		c1.7-0.8,2.9-2,3.9-3.7c0.4-0.7,0.8-1.6,1.4-2.2c2.6-2.5,3.5-5.6,3.6-9c0-2,0-4.1,0-6.1h-0.1c0-2.5,0-4.9,0-7.4
		c0-0.7,0.1-1.4,1.1-1c3.1,1.1,6.1,2.5,8.8,4.3c3.5,2.4,6.4,5.5,9.1,8.8c0.1-0.6,0.3-1.3,0.4-1.9c0.7-2.4,1.2-4.8,2.1-7.1
		c0.4-0.9,0.8-1.7,1.3-2.5c0.8-1,1.8-0.9,2.3,0.3c0.3,0.6,0.4,1.2,0.6,1.9c1.4,8,5.3,15,9.6,21.7c0.2,0.2,0.3,0.5,0.5,0.7
		c0.1,0.1,0.2,0.1,0.5,0.3c2.4-2.2,5-4.3,7.3-6.7c4.7-4.7,9.3-9.5,13.4-14.8c-2.6-1.4-5.2-3-7.4-5
		C438.2,628.1,434.4,621.8,431.6,614.9z"/>
	<path class="st0" d="M658.8,323.5c0.2,1.1-0.5,1.6-1.2,2.1c-4.1,3.2-8.5,5.8-13.5,7.2c-0.7,0.2-1.4,0.3-2.1,0.4
		c-0.8,0.1-1.7,0.1-2.1-0.7c-0.4-1,0.1-1.7,0.9-2.2c0.3-0.3,0.7-0.5,1.1-0.7c0.5-0.3,0.9-0.7,1.2-1.2c1.3-2.7,2.7-5.4,4.2-8
		c-0.3,0.2-0.5,0.4-0.7,0.6c-2.7,2.4-5.4,4.8-7.9,7.4c-2,2.1-3.8,4.3-5.2,6.9c-1,3.2-2.6,6-4.8,8.6c-0.9,1.1-1.3,2.1-1.3,3.5
		c0.1,1.4-0.1,2.9-0.2,4.3c-0.5,5.9-2,11.7-3.6,17.4c-1.4,5.1-1.9,10.2-1.3,15.5c0.4,3.2,0.7,6.3,1.1,9.5c0.4,3,0.7,6,0.6,9.1
		c-0.1,3.4,0,3.3,2.6,5.4c0.9,0.7,1.5,0.7,2.3-0.1c5-4.8,9.9-9.6,14.7-14.5c4.7-4.9,8.1-10.7,10.1-17.3c0.3-1,0.6-2,0.7-3
		c0.5-4.7,1.1-9.4-0.2-14c-0.2-0.9,0.1-1.6,0.9-2c0.7-0.4,1.4-0.1,2,0.4s1.1,1.2,1.3,2c1.7,4.2,3.7,8.3,4.3,12.8
		c1.4-1.8,2.4-3.8,3.4-6c0.2-0.5,0.5-1,0.7-1.5c0.2-0.9,0.4-1.9,0.5-2.8c0.4-3,0.8-6,1.2-9c0.2-1.6,0.1-3.2-0.4-4.7
		c-0.9-2.6-1.5-5.3-2-8c-1.3-7.5-1.4-15-1.6-22.5c0-0.6,0.2-1.3-0.4-2c-1.5,2.3-2.9,4.5-4.7,6.4C659,322.8,658.7,323.1,658.8,323.5z
		"/>
	<path class="st0" d="M481,124.8c2.6,0.3,4.7-0.5,6-2.8c0.6-1,1-2.1,1.4-3.2c0.8-1.7,2-2.7,4.1-2.8c3.1-0.2,5.7,1.2,8.4,2.4
		c2.5,1.1,4.6,3,7,4.3c1.1,0.6,1.5,1.3,1.6,2.5c0.2,3.4,0.5,6.8,1.2,10.1c0.3,1.1,0.8,2,1.5,2.8c1.5,1.7,3.4,2,5.4,2
		s3.3-0.5,4.2-1.9c-0.5-0.1-0.7-0.5-0.8-1c-0.1-0.6-0.1-1.2-0.1-1.7c0-3.3,0-6.5,0-9.8c0-2,0.6-9.2,0.7-10c0.1-2.1-0.4-4.2-0.4-6.3
		c0-0.4,0-0.9-0.1-1.3c-2-5.4-1.1-10.7,0.1-16c1.4-6.1,4.5-11.4,8.2-16.4c2.1-2.8,4.9-4.5,8.4-5c1.3-0.2,2.5-0.1,3.5,0.2
		c-0.2-0.9-0.6-1.7-1.5-2.3c-3-1.9-6.3-2-9.6-1.4c-3.5,0.6-6.5,2.3-9.5,4.1c-2.7,1.6-5.5,2.6-8.5,2.9c-2.3,0.2-4.6,0.7-6.9,0.4
		c-3.6-0.4-6.9-1.5-9.5-4.2c-1.7-1.7-3.9-3-6.3-3.7c-1.5-0.4-2.8-0.1-3.8,0.6c1.7,2.8,2,5.9,1,9.1c-0.7,2.2-1,4.3-0.7,6.6
		c0.4,2.3-0.3,4.6-1.4,6.7c-0.5,0.9-1,1.9-1.7,2.8c-2,2.7-2.9,5.8-4.4,8.7c-0.3,0.6-0.4,1.2-0.4,1.9c0,1-0.3,1.9-0.7,2.7
		c-0.6,1.3-1.6,2.1-2.8,2.4c-0.2,3.9-0.3,7.7,0.8,11.5C476.4,122.6,477.9,124.4,481,124.8z"/>
	<path class="st0" d="M381.5,336.2c-0.7-0.3-1.4-0.3-2,0.2c-0.2,0.2-0.4,0.4-0.6,0.6c-1.1,2-2,4.2-2.2,6.5c-0.3,2.9-0.6,5.9-0.2,8.8
		c0.4,2.5,1.4,4.6,3.1,6.2c1.8,1.7,3.5,3.5,5.3,5.1c2.6,2.4,3.7,5.4,3.8,8.9c0.1,4.6-0.5,9.2-0.4,14.1c-0.1,4.4,0.5,9,1.1,13.6
		c0.4,2.6,1.2,5.1,1.5,7.6c0.4,3.4,1.7,6.5,3.5,9.2c2,3,4.1,6,6.8,8.6c3,2.9,6.3,4.8,10.5,5.2c3.1,0.3,5.8-1.9,6.3-3.9
		c0.7-2.7,2.2-4.8,3.3-7.2c1.5-3.4,3.4-6.5,5.5-9.6c0.4-0.6,0.8-1.2,1.1-1.9c1.3-3,0.1-5.2-3.2-5.5c-1-0.1-1.8-0.3-2.3-1.2
		c-0.3-0.5-0.8-0.9-1.2-1.2c-2-1.3-3.9-2.7-6.1-3.8c-2.4-1.2-4.6-2.7-6.1-5c-3-4.5-5.8-9.1-8.6-13.8c-0.5-0.8-0.7-1.6-0.7-2.5
		c0-2.3-0.1-4.6,0-7c0-1.7-0.4-3.3-1.2-4.8c-1.6-3.1-3.8-5.8-5.7-8.7c-0.3-0.5-0.8-1.2-1.4-0.8c-1.5,0.9-1.8-0.2-2.4-1.1
		c-1.3-2.1-2.7-4.1-4.8-5.2c-1.8-0.9-2.1-2.2-2.1-3.8c0-2.2,0-4.3,0-6.5C382.2,337.1,382.2,336.5,381.5,336.2z"/>
	<path class="st0" d="M602.7,370.4c1.9-7.6,3.5-15.2,3.3-23.7c0.2-3.2-0.2-6.9-1.5-10.5c-2.1-5.7-5.4-10.6-9.8-14.9
		c-0.6-0.5-1-0.5-1.5-0.1c-1.1,1-1.4,2.2-1.2,3.6c0.2,2.1,1.2,3.8,2.5,5.4c0.6,0.7,1.2,1.5,1.7,2.2c1.5,1.9,1.5,3.9,0.2,6
		c-0.8,1.2-1.3,2.6-2.1,3.8c-0.7,1.1-1.2,2.3-1.3,3.6c-0.6,6.9-1.3,13.8-2.2,20.7c-0.6,4.8-2.1,9.4-3.7,13.9
		c-2.1,5.8-5.9,10.8-7.3,16.9c-0.3,1.3-0.6,1.3-1.8,0.7c-2.6-1.3-5.3-1.9-8.2-1.7c-2.3,0.2-4.4,0.6-6.1,2.3
		c-1.2,1.3-1.3,1.9-0.4,3.4c2.1,3.3,4.4,6.6,7.3,9.4c1.2,1.1,2.1,2.3,3,3.7c0.7,1.1,1.4,2.4,2.4,3.3c2.2,2.1,4.4,4.1,6.4,6.5
		c0.6,0.7,1.3,1.2,2.2,1.4c3.3,0.4,6.3-0.2,8.6-2.8c2-2.2,3.6-4.6,4.3-7.6c0.2-1,0.7-2.1,1.1-3.1c0.9-2.2,1.4-4.5,1.6-6.9
		c0.2-2.3,0-4.5,0-6.7c-0.1-4.7-0.2-9.4,0.2-14.1C600.7,380.1,601.5,375.2,602.7,370.4z"/>
	<path class="st0" d="M564.4,274.1c0-4.6-2.4-7.9-6.4-9.7c-3.1-1.4-5.5-3.4-7.3-6.2c-0.7-1.2-1.3-2.4-2.2-3.4
		c-0.5-0.6-1.1-0.7-1.7-0.5c-0.7,0.3-1,1-0.8,1.6c0.7,2.1,0.2,4.5,1.3,6.5c0.3,0.5,0.8,1.3,0.3,2c-0.7,1.1-0.8,2.4-0.6,3.6
		c0.3,2.3-0.8,3.6-2.7,4.7c-2.8,1.6-5.8,2.8-8,5.3c-1.2,1.4-2,2.7-2.4,4.4c-0.3,1.3-0.1,2.3,0.8,3.1c0.6,0.5,0.8,1.3,0.7,1.9
		c-0.2,1.2,0.3,1.9,1.2,2.6c0.6,0.5,1.3,1,1.6,1.7c1.1,2.4,3,4.2,4.4,6.4c0.7,1.1,1.5,2.4,3,2.7c1.2,0.2,1.7,0.9,2.1,1.8
		c0.7,1.5,1.8,2.9,3.1,3.8c1.9,1.3,6,0.6,7.7-1c1.5-1.4,2.5-3.2,3.1-5.1c1.3-4.2,1.6-8.6,1.8-13c0.1-3-0.2-6.1,0.5-9.1
		C564.2,276.8,564.5,275.5,564.4,274.1z"/>
	<path class="st0" d="M452,286.9c0.8-0.4,1.8-0.9,1.7-2c-0.1-1-1.2-1.8-2.6-1.9c-0.5-0.1-1,0-1.5,0s-1,0.1-1.5-0.3
		c-0.9-0.8-2.1-1-3.2-1.4c-2.4-0.7-3.7-2.3-4.5-4.5s-1.3-4.4-1.7-6.7c-0.3-1.6-0.6-3.1-1.4-4.5c-0.8-1.2-1.8-2.1-3.3-2.1
		s-3-0.3-4.3,1.2c-1.1,1.2-1.7,2.7-2.7,3.9c-1.2,1.4-1.9,3-2.5,4.7c-1.7,4.6-2.4,9.3-2.3,14.2c0,2.3,0,4.5-0.5,6.7
		c-0.3,1.3-0.4,2.6-0.3,4.2c0,1,0.1,2.3,0.3,3.6c0.4,2.3,0.8,4.7,1,7.1c0.2,2.3,1.1,4.2,2.8,5.7c0.9,0.8,1.9,1.6,3.1,1.8
		c0.7,0.1,1.3,0.1,1.6-0.9c1.2-3.2,2.5-6.4,3.9-9.6c1.6-3.6,3.7-7,6.4-10C443.8,292.3,447.5,289.1,452,286.9z"/>
	<path class="st0" d="M403.7,86.9c1.2,3.1,3.7,5.2,5.9,7.6c0.7,0.7,1.7,1.1,2.7,1.2c0.8,0,1.6,0.2,2.4,0.3c3.7,0.4,7.3,0.9,11,1.3
		v-0.1c1-0.1,2-0.1,3-0.2c0.9-0.1,1.7-0.4,2.4-0.9c0.9-0.7,1.8-1.4,2.7-2.1c0.5-0.4,0.8-0.8,1.1-1.3c-0.6-0.3-1.2-0.6-1.9-0.8
		c-0.8-0.3-1.5-0.4-2.3-0.2c-2,0.6-4-0.1-6-0.2c-0.6,0-1-0.5-1.5-0.9c-4-3.3-8.4-5.9-13.5-7.2c-2.3-0.6-4.6-1.3-6.9-1.9
		c-0.6-0.2-1.3-0.3-1.9-0.5c0,0.9,0.2,1.8,0.8,2.5C402.6,84.4,403.2,85.6,403.7,86.9z"/>
	<path class="st0" d="M573.6,96.4c1.7,2,4,1.9,6.3,2c2.4,0.1,4.6-1.1,6.9-1.1c1.6,0,2.9-0.9,3.9-2.1c1.4-1.6,3.2-2.6,5.1-3.6
		c1.8-0.9,3.4-2.2,4.5-3.9c0.2-0.3,0.3-0.5,0.4-0.8c-1.1,0-2.1,0.1-3.2,0.3c-4.4,1-8.7,2.3-12.5,4.9c-2.3,1.6-4.8,2.1-7.3,0.4
		c-0.8-0.6-1.5-0.1-2.2,0.2c-1.7,0.9-3.2,2.1-4.5,3.4c0.2-0.1,0.3-0.1,0.5-0.2C572.4,95.7,573.1,95.8,573.6,96.4z"/>
</g>
<g>
	<path class="st1" d="M529.5,435.5c-0.6-0.3-1.1-0.7-1.7-1c-2.7-1.6-5.8-2.1-8.9-2.6c-5.9-0.8-11.8-1.7-17.7-2.6
		c-0.1,0.2-0.2,0.3-0.2,0.4c0.4,6.1,0.3,12.3,1.4,18.4c0.4,2.4,0.4,4.9-0.1,7.3c-0.8,3.5-3,5.5-6.4,6.3c-1,0.2-2,0.2-2.9,0.7
		c-0.4,0.2-0.9,0-1.1-0.4c-1-1.8-2.4-3.4-2.6-5.7c-0.5-5.8-1.4-11.5-1.3-17.3c0.1-3.5-0.5-6.9-1.5-10.3c-0.5-0.1-0.7,0.1-0.9,0.3
		c-4.1,4-9,6.9-14.2,9c-4.5,1.9-7.9,4.9-10.8,8.7c-0.7,0.9-1,1.7-0.9,2.8c0.1,2.6,0.1,5.2,0.2,7.8c0.3,5.4,0.9,10.6,2.8,15.7
		c1.5,4.2,4.3,7.1,8.2,9.1c10.6,5.4,21.7,8.3,33.7,6.8c2-0.3,4-0.7,5.8-1.8c2.7-1.6,5.4-3.2,8.1-4.7c2.3-1.3,4-3,5.4-5.2
		c3.1-4.6,5.1-9.7,6.3-15.2c1.3-5.9,1.5-11.9,1.4-17.9c0-1.4-0.3-3,0.2-4.3C532.3,437.7,531.4,436.5,529.5,435.5z"/>
</g>
<g>
	<path class="st2" d="M336.5,103.7c-2.4,0.8-4.7,1.7-7.1,2.5c-3.1,1.1-6.1,2.4-8.7,4.3c-0.4,0.3-0.8,0.6-1.2,1
		c0.1,0.3,0.1,0.4,0.2,0.4c4,2.8,2.5,7.3-0.4,9.5c-1.3,1-2.8,1.6-4.3,2.1c-2.1,0.7-4.1,1.4-6.1,2.2l0,0c-1.4,0.6-2.2,1.5-2.5,3
		c-0.3,1.3-0.7,2.7-1,4c-0.6,2.9-1.9,5.5-3.6,7.8c-3.5,4.7-7.6,8.8-11.8,12.7c-2.6,2.4-5.9,4-9.1,5.4c-2.3,1-3.9,2.5-5.2,4.6
		c-2.4,4-4.6,8-6,12.5c-0.1,0.3-0.2,0.7-0.4,1c-0.4,0.6-1.1,0.6-1.6,0s-0.5-1.4-0.4-2.1c0.5-3.6,1-7.2,1.7-10.7
		c0.7-3.3,2.2-6.3,4-9.1c0.7-1.1,1.3-2.3,1.6-3.5c1.1-3.4,2.8-6.5,5.1-9.3c3.7-4.4,7.3-8.8,11.1-13c1.1-1.2,2.3-2.5,3.4-3.7
		c0.6-0.6,1-1.2,1.4-1.9c2.4-4.7,5.9-8.4,10.2-11.4c1.1-0.8,2.1-1.6,2.9-2.6c0.3-0.4,0.7-0.8,1-1.1c-0.8,0.2-1.5,0.5-2.1,0.8
		c1.3-3.4,3-7.5,5.4-12.1c4.1-7.8,7.4-11.7,7.6-13.5c0,0-0.1,0-0.1,0.1c-0.8,0.5-1.7,0.9-2.5,1.4c-2.2,1.3-10.2,6.7-10.9,7.2
		c-3.1,2-5.9,4.4-7.8,7.7c-2.6,4.6-5.8,8.9-9.2,12.9c-10.7,12.7-23.8,21.1-40.6,22.7c-0.6,0.5-1.2,1.1-1.8,1.7
		c0.6,1.4,0.2,2.8-0.5,4.2c-0.8,1.8-1.8,3.5-2.8,5.1c-3.4,5.4-6.7,10.9-10.2,16.2c-5.6,8.5-9.6,17.7-12,27.6
		c-2.4,10.1-3.8,20.4-2.7,30.8c0.7,6.5,1.6,13,2.7,19.5c0.6-3.6,1.4-5.5,2.3-2.6c2.1,6.9,0.5,12.7,5.3,15.3
		c4.7,2.6,11.6,8.4,14.8,9.5s2.1,3.2,4.7,5.3c2.6,2.1,0-6.3,0-13.2c0-6.9,1.6-5.8,3.2-10.5c1.6-4.7-5.3-21.1-0.5-21.1
		c4.7,0,8.4,7.9,9,12.7s4.7,12.1,7.4,16.4c0.8,1.3,1.8,2.6,2.8,3.9c2.3-1.5,4-3.5,5.2-6c1.8-3.7,1.6-7.6,0.9-11.5
		c-0.7-4-2.5-7.7-2.7-11.8c-0.2,0-0.3,0-0.5,0c-0.6,0.6-1.1,1.3-1.7,1.9c-0.6,0.7-1.3,1.3-2.3,1.7c-2,0.7-3.7-0.3-3.9-2.4
		c-0.1-0.7,0.1-1.4,0.2-2.1c0.6-3.2,1.9-6.2,3.4-9.1c1.5-2.7,3-5.5,4.6-8.1c0.8-1.3,1.2-2.7,1.3-4.3c0.4-7.3,2.4-14.1,6.3-20.3
		c4.7-7.3,9.7-14.4,16.5-20.1c2.2-1.9,3-4.7,3.8-7.4s2.1-5,3.8-7.1c0.5-0.6,1-1.1,1.6-1.7c0.3-0.2,0.5-0.5,0.8-0.7
		c0.6-0.4,1.2-0.6,1.8-0.2c0.6,0.5,0.6,1.2,0.2,1.8c-1.5,2.3-1.4,4.7-1.2,7.3c0.3,4.1-0.9,7.9-3,11.4c-2.4,3.9-8.1,19.1-9,23.4
		c-0.4,2.1-0.7,4.3-0.8,6.5c-0.2,2.7-0.5,5.4-0.9,8.1c-0.3,2.2-0.8,4.4-1.3,6.5c-2.3,9.6-2.3,19.2,0.2,28.8c1.9,7.1,2,14.3,1.4,21.6
		c-0.4,5.1-0.4,10.1,1.1,15.1c0.2,0.7,0.3,1.4,0.8,2c0.7,0,0.8-0.6,1-1c0.9-1.9,1.7-3.8,2.6-5.8c0.8-1.7,1.7-3.4,3.3-4.5
		c0.5-0.3,0.9-0.9,1.3-1.4c3.5,1.8,3.6,2.1,2.9,5.9c-1,5.3-1.8,10.6-2.3,16c2.8-2.9,5.5-6.7,7.7-9.4c4.2-5.3,4.7-7.9,5.3-11.1
		s1.1-7.4,3.2-6.9c1,0.3,1.7-0.6,2.4-1.1c-1.5-3.8-3.1-7.5-4.9-11.1c-1.6-3.2-2.6-6.6-2.9-10.2c-0.7-8.4-1.7-16.8-2.5-25.3
		c-0.7-7.3-0.9-14.6,0-21.9c0.3-2,0.3-4,0.5-6.1c0.7-9.5,1.7-19,5.3-28.1c0.8-2-0.1-5-1.9-6.4c-2-1.6-2.7-3.7-2.5-6.2
		c0.1-1.1,0.3-2.1,0.5-3.2c2.4-10.7,8.7-18.6,17.3-24.9c1.6-1.2,3.5-2,5.5-2.6c1.9-0.6,3.9-1.1,5.8-1.8
		C343.7,108.7,340.4,105.3,336.5,103.7z"/>
	<path class="st2" d="M783.2,226.5c-0.2-1.3-0.7-2.5-1.3-3.7c-2.1-4.1-4.5-8.1-7.1-11.9c-3-4.4-6.4-8.4-9.6-12.6
		c-0.7-0.9-1.4-1.9-1.9-2.9c-1.6-3.1-1.1-6.1,1.3-8.6c1-1,2.3-1.8,3.5-2.5c0.6-0.4,1.4-0.5,1.6-1.4c-0.3-0.1-0.5-0.3-0.7-0.4
		c-9.2-3.9-17-9.8-23.6-17.3c-8.2-9.1-14.9-19.3-21.7-29.3c-2.9-4.2-5.4-8.6-8.7-12.5c-6.1-7.3-11-15.5-17.8-22.2
		c-0.7-0.7-1.2-1.5-1.8-2.2c-2.9-3.9-6.2-7.4-9.6-10.9c-3.3-3.4-7.2-6.1-11.5-8c-0.4-0.2-0.7-0.3-1.1-0.5c-0.1,0.4-0.3,0.7-0.6,1
		c-5,6.5-27.6-6-31.1-0.5c-1,1.6,0.6,3.1,3.7,11.6c0.6,1.8,1.7,4.8,2.8,8.6c3.9-0.3,7.9-0.2,11.9-0.4c4.2-0.2,7.5,2,11.1,4
		c-0.3,0.2-0.4,0.2-0.4,0.2c-0.2-0.1-0.4-0.1-0.6-0.2c-3.4-1.6-6.9-1.3-10.3,0c-2.1,0.8-4.2,1.5-6.4,2.2c-0.4,0.1-0.9,0.2-1.1,0.9
		c1.8,0.6,3.5,0.7,5.2,0.7c5,0.1,9.8,1.1,14.5,2.4c5,1.4,9.5,3.7,13.1,7.4c3.5,3.5,6.9,7,10.4,10.5c0.7,0.7,1.4,1.5,1.8,2.4
		c0,0.1,0.1,0.1,0.1,0.2c0.4,0.9,0.4,1.8-0.3,2.6c-0.4,0.5-0.9,0.7-1.4,0.8c-0.4,0.1-0.9,0-1.4-0.2c-0.6-0.2-1.2-0.6-1.8-0.9
		c-5.2-2.5-10.1-5.7-15.8-7.1c-4.7-1.2-9.4-2.3-14.2-3.2c-0.4-0.1-0.9-0.1-1.3-0.2c-0.7-0.1-1.1,0.1-1.1,0.9c0,1-0.3,2.1-0.9,2.8
		c-0.8,1-0.5,1.5,0.3,2.3c9.7,10.2,14.7,22.4,14.6,36.5c0,3.3-0.2,6.7-0.5,10c-0.4,4.2,0.5,8,2.7,11.6c1.9,3.2,3.5,6.5,4.8,10
		c4.4,11.2,6.8,22.9,7.3,34.9c0,0.2,0,0.4,0,0.6c1.6,0,3.9,0.6,5.5,4.1c2.6,5.8,2.6,16.9,5.3,21.1c2.6,4.2,4.7,5.3,9,9.5
		s3.2,6.9,5.8,9.5c1.3,1.3,3.9,2.6,6.5,3.7c0.2-1,0.3-1.9,0.5-2.9c0.1-0.6-0.1-1.1-0.3-1.7c-0.7-2.4-1.5-4.7-2.4-7
		c-1.4-3.1-2.2-6.4-2.7-9.8c-0.4-2.4-0.1-4.8,0.5-7.1c0.9-3.5,2.1-6.9,3.5-10.3c2.2-5.3,3.9-10.8,5.7-16.2c0.4-1.2,0.5-2.5,0.6-3.9
		c0.4-7.5-1.9-14.3-5.4-20.8c-1.7-3.2-3.7-6.2-5.5-9.4c-0.9-1.5-2.1-2.8-3.6-3.7c-1-0.6-2-1.4-3-2.2c-0.7,0.9-0.8,1.7-0.5,2.7
		c0.3,1.1,0.9,2,1.6,2.8c0.5,0.6,1,1.2,1.5,1.9c0.6,1,0.7,2,0.1,3.1c-0.6,1.1-1.6,1.5-2.8,1.4c-3.3-0.3-6.4-1.1-8.9-3.5
		c-0.4-0.4-0.8-0.8-1.1-1.2c-3.6-4-5.4-8.6-4.4-14.1c0.6-3.2,0.5-6.3,0.1-9.4c-0.7-5.1,0.6-9.9,2.1-14.7c0.6-1.9,1.8-3.3,3.6-4.2
		c0.4-0.2,0.9-0.4,1.3-0.5c1.7-0.4,3.3,0.4,4.1,2.3c0.6,1.3,0.8,2.8,0.8,4.3c0,3.8,1.3,7.2,3.7,10.2c1.4,1.8,2.6,3.7,3.7,5.6
		c1.7,2.7,3.8,4.9,6.3,6.8c1.6,1.2,3.5,1.8,5.2,2.7c2.9,1.6,5.6,3.3,8.1,5.5c2.2,1.9,4.3,3.8,6.5,5.8c3.7,3.4,6.4,7.6,9,11.9
		c0.9,1.5,0.8,3.1-0.1,4.5c-1,1.5-2.4,2.2-4.2,2.2c-0.7,0-1.4-0.2-2.4-0.4c0.3,1.9,0.7,3.5,0.8,5.1c0.3,2.8,0.2,5.6,0,8.5
		c-0.5,6,0.6,11.8,2.5,17.5c1.4,4,3,8,5,11.8c1.6,3,2.9,6.1,4.4,9.2c0.7,0.1,0.9-0.5,1.2-0.8c1.4-1.7,2.5-3.6,3.3-5.6
		c0.6-1.3,1.2-2.7,2-3.8c0.9-1.2,2.1-1.8,3.6-1.4c1.3,0.3,2.2,1.4,2.4,3c0,0.3,0,0.6,0.1,0.9c0.2,2.3,0.1,4.6-0.2,6.9
		c-0.3,2.7-0.7,5.3-1.2,7.9c-0.2,1.1-0.5,2.2-0.8,3.2c6.1-3.9,11.6-7.3,12.2-6.5c2.4,3.2,2.9,7,2.5,11c1.7-4.1,3.4-8.3,4.9-12.5
		c0.7-1.9,1.1-3.9,1.2-5.9C785.8,248.3,784.8,237.4,783.2,226.5z"/>
</g>
<g>
	<path class="st3" d="M454,310.5c-0.1,1.5,0.9,2.7,0.9,4.3c0.4-0.1,0.4-0.1,0.5-0.2c0.2-0.2,0.4-0.4,0.6-0.6c3.4-4.2,7.8-6.6,13-7.8
		c7.9-1.8,15.8-2.8,23.9-2.8c8.3,0,16.3,1.1,24.3,3.1c3.1,0.8,6,2,8.6,4.1c0.3,0.3,0.6,0.6,1.1,0.6c0.4-0.2,0.5-0.6,0.7-1
		c0.9-1.7,1.1-3.8,2.4-5.3c0.4-0.5-0.1-0.9-0.4-1.3c-4.2-4.5-9-8.2-15-9.9c-4.9-1.3-9.8-2.5-14.9-3c-3.7-0.4-7.5-1-11.2-0.3
		c-1.6,0.3-3.3,0.6-4.9,0.7c-5.1,0.3-9.9,2-14.8,3.3c-0.8,0.2-1.5,0.6-2.2,0.9c-3.9,2-7.4,4.6-10.3,7.8c-1.5,1.7-2.9,3.4-3.9,5.5
		C452.8,309.1,454.1,309.4,454,310.5z"/>
	<path class="st3" d="M497.8,375c0.9,1.7,1,1.8,2.8,1.2c1.7-0.5,3.2-1.3,4.7-2.2c0.4-0.3,3.5-1.3,4.4-2c2.8-2.3,5.8-4.3,9.3-5.5
		c0.5-0.2,0.9-0.4,1.3-0.7c2.8-2.1,5.6-4.1,8.4-6.2c1.2-0.9,2.2-2,2.7-3.7c-1.5-0.1-2.8-0.3-3.9-0.9c-1.1-0.6-2.2-0.6-3.4-0.4
		c-1.5,0.3-3,0.8-4.5,0.9c-5.9,0.2-11.2-0.8-14-6.9c-0.3-0.7-0.8-1.2-1.1-1.9c-2.3-4.4-2.1-8.7,0.5-12.8c2.5-3.9,7.2-5.2,11.2-3.4
		c4.1,1.9,6.1,6.5,4.7,11c-0.2,0.7-0.7,1.3-0.5,2.3c1.3-0.2,2.5-0.4,3.8-0.5c2.6-0.4,5-0.3,7.4,0.9c1.1,0.6,1.5,0.4,1.4-0.8
		c-0.4-4.2-0.4-8.5-1.9-12.6c-0.8-2.1-1.3-4.3-2.1-6.4c-0.7-2-1.3-4.1-2.9-5.5c-2.4-2.1-5.2-3.9-8.4-4.3c-6-0.8-12-1.2-18-1.3
		c-4.1-0.1-8.3,0.1-12.4,0c-6.5-0.2-13,0.4-19.5,1.2c-5.1,0.7-9.7,3.1-11.7,8.5c-0.5,1.3-1.3,2.1-2.5,2.9c-1.6,0.9-2.7,2.3-3.2,4.2
		c-1.1,4.3,0.1,8.4,0.6,12.6c0,0.4,0.3,0.8,0.5,1.2c0.3,0.7,0.7,0.8,1.4,0.4c2.5-1.5,5.2-1.5,8-1.1c1.2,0.2,2.4,0.5,3.7,0.4
		c-0.3-0.8-0.5-1.5-0.8-2.2c-1.4-4.4,0.6-9.1,4.7-11s8.9-0.5,11.4,3.5c2.6,4.2,2.6,8.5,0.3,12.8c-0.4,0.8-1,1.5-1.3,2.2
		c-1.5,3.1-4,4.9-7.2,5.7c-3.1,0.8-6.1,0.9-9.2,0.1c-1.4-0.4-2.9-1-4.5-0.3c-1.3,0.6-2.5,1-4,1.2c0.1,0.9,0.4,1.2,0.7,1.6
		c1.5,2,3.4,3.7,5.2,5.6c1.2,1.2,2.5,2.2,4.1,2.7c4.3,1.4,15.2,8.1,16.1,8.6c1,0.6,2,1.1,3.1,1.5c3,1.2,3.8,0.7,4.5-2.4
		c0.1-0.6,0.1-1.1,0.2-1.7c0.2-1.4,0.3-2.9,0.6-4.3c1.5-8,2.8-16.1,3.2-24.3c0-0.7-0.3-2,0.7-2c0.9,0,0.6,1.3,0.7,2
		c0.3,5.8,1.1,11.5,2,17.3c0.6,4.1,1.8,8.2,1.9,12.4C497.1,373.5,497.4,374.3,497.8,375z"/>
	<path class="st3" d="M482.9,386.7c0.2-0.5-0.1-0.8-0.3-1.2c-0.5-1.1-1.5-1.7-2.5-2.3c-5-2.3-9.9-4.9-15-7
		c-4.4-1.8-8.2-4.2-11.4-7.8c-0.5-0.6-1.1-1.1-1.7-1.7c-1.4-1.3-2.7-2.7-3.8-4.2c-0.9,0.7-1.6,1.7-1.9,2.9c-0.4,1.7-0.5,3.7,0.1,5.6
		c0.2,0.3,0.6,0.6,0.2,1c0.2,1.4,0.9,2.5,2.1,3.3c1.2,0.9,1.5,1.9,1.4,3.5c-0.2,3.4-0.4,6.8,1.6,9.9c0.3,0.5,0.2,0.9-0.4,1.2
		c-1.2,0.4-2.3,1-3.2,1.8c-2.3,2.1-3.5,4.6-2.6,7.8c0.8,2.8,2.7,4.5,5.6,4.7c0.3,0,0.8-0.1,0.8,0.5c-1.3,0.8-2.3,2.1-3.5,3.1
		c-3.4,2.8-6.2,6-8.3,9.9c-1,1.8-1.6,3.8-3.1,5.4c-1,1.2-2,2.4-3,3.7c-1.5,2-2.7,4-3.2,6.4c1.9-1.8,4-3.4,6-5c1.7-1.3,3.8-1.9,6.2-2
		c-0.4,1.4-1.4,1.6-2.2,1.9c-1.7,0.8-3.1,1.8-3.8,3.6c-0.1,0.3-0.4,0.6-0.3,0.8c0.9,1.4-0.1,2.6-0.2,4c-0.1,1.2-0.1,2.5,0.3,3.6
		c0.1,0.2,0.1,0.4,0.2,0.6c1.9,4.8,0.8,8.9-3.2,12.3c-0.6,0.5-0.8,1.2-1,1.9c-0.8,3.1-3.1,4.8-5.7,6.2c-2.3,1.2-5.8,0.6-7.7-1.2
		c-0.6-0.5-1.1-1.2-1.3-2c-0.2-0.6-0.2-1.1-0.1-1.5c-1.2,0.7-2.5,1.3-3.8,1.9c1.7,1.4,3.6,2.6,5.6,3.7c4.9,2.7,10,3.8,15.5,2.8
		c4.5-0.8,8.1-2.9,9.7-7.6c1.3-3.7,2.8-7.3,4.2-10.9c0.4-0.9,0.7-1.9,1.3-2.7c1.8-2.5,2.8-5.4,3.9-8.2c1.9-5.2,5.2-9.3,9.9-12.3
		c2.3-1.5,4.7-2.8,7.2-4.1c1.7-0.9,3.5-1.7,5.2-2.7c2-1.2,3.8-2.6,5.4-4.6c-1.3-0.2-2.6-0.1-3.5-0.7c-1.4-0.9-2.4-0.3-3.4,0.7
		c-1.9,2-4.3,3.1-6.8,4.2c-0.9,0.4-1.9,0.8-3.2-0.4c2.5-0.5,3.8-2.2,5.6-3.3c1.3-0.8,1.7-1.9,1.5-3.5c-0.5-3.5,1.4-6.7,4.9-7.4
		c2.9-0.6,5.7-1.8,8.7-1.8c0.7,0,0.9-0.2,0.9-0.9c-0.3-3.2-0.4-6.5-2.8-9.1C483,388.8,482.3,387.9,482.9,386.7z"/>
	<path class="st3" d="M589.8,440.7c-0.3-0.1-0.6-0.3-0.9-0.3c-0.2,0-0.4-0.1-0.5-0.1c-1.1,0-1.9,0.6-2.7,1.1c-1.5,1-3,1.9-4.6,2.6
		c0,0.1,0,0.2,0,0.2c0.2,3.6-4.1,7.9-8.3,6.7c-7.4-2-12.5-6.6-14.5-14.1c-0.9-3.5-2.3-6.7-4.2-9.7c-1.4-2.3-2.9-4.5-4.3-6.8
		c-0.3-0.4-0.5-0.9-0.8-1.3c-0.3-0.5-0.4-1.1,0.1-1.6c0.2-0.2,0.4-0.3,0.7-0.3c-0.4-0.3-0.8-0.5-1.2-0.8c-3.6-2.5-6.9-5.3-9.9-8.4
		c-1-1-1.6-2.2-2-3.5c-0.4-1.2-0.2-1.5,1-1.8c2.5-0.6,3.9-2.3,4.3-4.6c0.8-4-0.9-7.3-3.3-10.4c-2-0.8-2.3-2.4-2-4.3
		c0-0.4,0-0.7-0.1-1.1c-0.4-1.6,0-2.9,0.6-4.4c1.4-3.3,1.2-6.6-0.3-9.9c-0.7-1.4-1.6-2.5-2.8-3.2c-0.9,0.9-1.9,1.8-2.9,2.7
		c-2.9,2.5-6.2,4.5-9.3,6.8c-4.8,3.5-9.9,6.3-15.4,8.4c-0.5,0.2-1.1,0.4-1.5,0.8c-2.7,2.2-5.4,4.4-7.7,7c-1,1.1-1.2,2.8-0.4,4
		c0.5,0.7,0.8,1.5,1.2,2.3c0.7,1.7,1.7,2.8,3.8,2.4c0.6-0.1,1.2,0,1.7,0.1c2.7,0.4,4.8,1.7,5.8,4.3c0.6,1.6,1.6,2.3,3.1,2.7
		c1.8,0.5,3.7,0.7,5.6,0.9c0.3,0,0.8-0.1,0.9,0.4c0.1,0.5-0.3,0.7-0.8,0.9c-1.6,0.5-3.3,0.5-5,0.5c-1.5,0-3.1-0.3-4.5,0.1
		c-1.3,0.3-2.6,0.8-3.9,1.2c-1.3,0.4-2.7,0.3-3.9,0.3c-0.2,0.5,0,0.6,0.2,0.7c2.9,2.4,5.8,4.5,9.4,5.7c4.3,1.4,8.7,2.6,13.2,3.4
		c6.5,1.1,12.5,3.5,17.9,7.4c5.1,3.6,8.7,8.4,11.4,14c3,6.4,6.4,12.5,10.9,18c1.2,1.5,2.5,2.8,4.2,3.8c4.2,2.5,7.5,1.8,10.4-2.1
		c0.2-0.3,0.4-0.6,0.6-0.9c2.8-4.3,6-8.2,9.1-12.1c1.4-1.8,3-3.4,4.6-4.9C592.2,442.3,591,441.2,589.8,440.7z"/>
	<path class="st3" d="M328.2,268.6c-1.2-2.9-2.3-5.8-3.5-8.7c-0.8,0.5-1.4,1.3-2.4,1.1c-2.1-0.5-2.6,3.7-3.2,6.9s-1.1,5.8-5.3,11.1
		c-2.2,2.7-4.9,6.6-7.7,9.4c0,0.5-0.1,0.9-0.1,1.4c-0.1,1.8,0.1,3.4,0.8,5.1c1.5,4.1,3.5,7.9,5.5,11.8c0.2,0.4,0.3,0.8,0.8,1
		c0.6,0,0.9-0.7,1.3-1c2.1-1.6,4.6-1.4,6.3,0.3c0.3,0.3,0.7,0.7,0.9,1.2c1,1.7,1.3,3.5,1.4,5.4c0.1,3.9-1,7.6-1.9,11.3
		c-0.1,0.4-0.2,0.8-0.4,1.2c-1.5,4-2.9,8-3.5,12.3c-0.3,2.3-1.2,4.5-2.8,6.3c-0.8,1-1.8,1.7-3,1.7c-0.2,0-0.5,0-0.7-0.1
		c-1.7-0.4-2.4-1.7-2.8-3.3c-0.1-0.4-0.2-0.7-0.1-1.1c0.8-3.6-1.1-6.7-1.6-10.1c-0.4-3.4-0.8-6.8-1.4-10.1c-0.3-1.4-0.7-2.8-1.3-4.1
		c-2.7-5.1-5.7-10.1-9.5-14.5c-4.1-4.7-9-8.3-14.7-10.9c-1.3-0.6-2.5-1-3.9-1.3c-2.4-0.5-4.5-1.3-6.5-2.3c-3.1-1.7-5.7-4.3-7.7-7.8
		c-1.6-2.9-3.3-5.7-4.8-8.8c-0.3-0.7-0.6-1.4-0.8-2.1c-0.2-0.8-0.3-1.6-0.3-2.5c0.1-2.2-0.6-4.3-0.1-6.5c0.8-3.4,2.8-4.9,6.2-3.8
		c3,1,5.7,0.7,8.4-0.7c0.4-0.2,0.7-0.4,1.1-0.6c-1-1.3-2-2.6-2.8-3.9c-2.6-4.2-6.9-11.6-7.4-16.4s-4.2-12.7-9-12.7
		c-4.7,0,2.1,16.4,0.5,21.1c-1.6,4.7-3.2,3.7-3.2,10.5c0,6.9,2.6,15.3,0,13.2s-1.6-4.2-4.7-5.3c-3.2-1.1-10-6.9-14.8-9.5
		c-4.7-2.6-3.2-8.4-5.3-15.3c-0.9-2.9-1.7-1-2.3,2.6c0.8,4.7,1.6,9.3,2.5,14c0.3,1.8,0.7,3.6,1.7,5.1c3.5,5.8,7.3,11.3,12.3,15.9
		c3.4,3.1,6.8,6.2,10.4,8.9c5.3,4,10,8.6,13.9,14c2.9,4,6.3,7.5,9.9,10.9c15.2,14.6,23.9,32.4,24.5,53.7c0.1,1.9,0.1,3.8,0.3,5.7
		c0,0.3,0,0.7,0.1,1c0.1,1.8,0.6,2.4,2,2.7c0.2,0,0.4,0.1,0.6,0.1c2.3,0.5,4.6,0.1,6.8-0.6c0.3-0.3,0.9-0.5,1.5-0.6
		c2.1-0.9,4-2.1,6-3.2c6.8-3.8,11.1-9.5,13.5-16.9c3.6-11.4,6.6-22.9,7.1-35c0.5-11.1,0-22-2.8-32.7
		C330.9,278.6,330.2,273.4,328.2,268.6z"/>
	<path class="st3" d="M776.5,266.8c-0.6-0.8-6.1,2.6-12.2,6.5c-1.1,3.8-2.9,7.3-5.7,10.3c-4,4.3-7.2,9.1-9.6,14.4
		c-0.7,1.5-1.5,2.8-2.7,3.9c-1,1-3.3,1-5.5,0.7c-2.9-0.4-5.8-1.5-6.2-1.8c-1.7-1.5-3.3-3.1-4.4-5c0,0-0.1-0.1-0.2-0.1
		c-0.8,0.5-0.9,1.4-1.1,2.2c-0.6,3.8-2.2,7.2-4.2,10.4c-0.6,1-1.2,2-1.9,2.9c-3.3,4.2-4.4,9.2-4.8,14.4c-0.4,5.7,0,11.3,0.6,16.9
		c0.2,1.5,0.3,3,0.3,4.5c0.2,5.5-0.4,11-2,16.4c-0.2,0.7-0.4,1.4-0.7,2c-1.6,3-5.6,3.3-7.5,0.3c-0.6-0.9-7.3-12.1-8.9-15.3
		c-0.7-1.3-6.1-11.2-6.6-12.6c-0.7-2.1-1.3-4.2-1.7-6.3c-0.3-1.1-0.3-2.1-0.1-3.2c0.2-0.8,0.2-1.7,0.2-2.6c-0.1-8.6,1.4-17,4.3-25.1
		c0.7-2,1.3-4,1.8-6c0.5-2.4,1.4-4.6,2.8-6.6c0.3-0.5,0.7-1,1.2-1.4c0.1-0.1,0.1-0.2,0.2-0.2c2.2-1.9,5.2-1.2,6.2,1.4
		c0.7,1.8,0.8,3.8,1,5.8c0.2,2.4,0.3,4.8,1.5,7.3c2.1-2.2,3.9-4.4,5.1-7.1c1.3-3.2,2.4-6.5,3.7-9.7c0.5-1.3,0.8-2.7,1-4.1
		c-2.6-1-5.2-2.4-6.5-3.7c-2.6-2.6-1.6-5.3-5.8-9.5s-6.3-5.3-9-9.5c-2.6-4.2-2.6-15.3-5.3-21.1c-1.6-3.4-3.9-4.1-5.5-4.1
		c0.5,12.5-0.1,25.1-0.6,37.6c-0.3,6.5-1.1,13-2.6,19.4c-3.2,14.3-5.1,28.8-5.8,43.4c-0.5,11.3,1.3,22.2,5.1,32.8
		c2.5,7.1,7.4,12.3,14.3,15.3c5.7,2.5,11.8,3.3,18.1,2.9c3-0.2,3.1-0.3,3.2-3.3c0.4-7.5,2.1-14.6,5.1-21.5
		c2.6-6.2,5.6-12.2,9.3-17.9c7.3-11.4,15.4-22.3,24.4-32.5c4.9-5.6,9.3-11.5,13.5-17.5c2.1-3,3.9-6.3,5.4-9.6c0.5-1.1,1-2.3,1.5-3.4
		C779.4,273.8,778.9,270,776.5,266.8z"/>
</g>
<g>
	<path class="st4" d="M424.9,249.1c0,0.1-0.1,0.1-0.1,0.2l0,0C424.8,249.3,424.9,249.2,424.9,249.1z"/>
	<path class="st4" d="M726.8,402.6c3.5,2,6.4,4.5,8,8.2v0.1c0.2,0,0.5-0.1,0.7-0.1c1.4-0.2,2.9-0.1,4.3,0.2c1.4,0.3,2.7,0.6,4,0.9
		c3.4,0.7,6.7-0.3,10.1-1.1c-3.7-3.2-6.9-6.7-9.4-10.8c-2.5-4-4.7-8.1-6.2-12.7c-1.4-4.6-2-9.3-2.8-14.2c-0.9,0.7-1.3,1.7-2.3,1.8
		c-0.9,0.1-1.1,0.7-1.3,1.5c-0.5,2.8-1.3,5.7-1.3,8.6v0.1c0.3,1.3,0.3,2.7,0.1,4.1c-0.6,3.7-2.6,6.7-4.7,9.7
		c-0.5,0.7-1.6,1.4-1.4,2.3C724.8,402.3,726,402.2,726.8,402.6z"/>
	<path class="st4" d="M648.8,424.2c-1.4-0.6-2.5-1.6-3.4-2.7c-4.1,4.1-7.4,8.7-9.8,13.9c-1.6,3.3-3.1,6.7-4.2,10.3
		c-0.1,0.4-0.1,0.9-0.9,1.1c-1.8-2.4-2.6-5.2-3.4-8c-0.6,0.1-0.7,0.4-0.8,0.7c-1.9,3.9-4.1,7.7-5.9,11.6c-0.3,0.7-0.5,1.4-1.1,1.9
		c-1.2,1-1.9,2.4-2.4,3.8c-1,2.4-2,4.8-2.9,7.3c-1.8,5.2-3.7,10.3-6.6,15.1c-1,1.6-0.9,1.7-2.6,0.6c-3.6-2.3-6.2-5.1-7.8-8.4
		c-1.9,3.1-3.9,6.2-6.2,9.1c-2.5,3.1-4.2,6.6-5.7,10.2c0,0.1-0.1,0.2-0.1,0.3l0,0c2,1.9,3.7,4.1,5,6.5c1,1.9,2,3.7,3,5.5
		c0.8,1.4,1.8,2.8,3.2,3.8c2.3,1.8,4.8,1.6,6.8-0.5c0.4-0.4,0.7-0.9,1.1-1.4c1.9-2.5,3.7-5.1,5.7-7.4c3.6-4.1,6.3-8.8,8.6-13.8
		c1.1-2.5,2.3-5,3.6-7.4c1.6-3.2,3.9-5.7,7-7.5c1.4-0.8,2.9-1.6,4.4-2.4c1.8-1,3.7-2,5.5-3.1c5.5-3.4,10-7.5,13.3-12.7
		c0.1-1.9,0.1-3.8,0.3-5.7c0.3-2.7,1.3-5,2.6-7.3c0.5-0.9,0.7-1.7,0.5-2.7c-0.5-2.4-1.2-4.8-2.4-6.9
		C652,426.3,650.7,425.1,648.8,424.2z"/>
	<path class="st4" d="M380.3,186.5c-0.7,0.4-1.3,0.8-1.9,1.2c-1.1,0.8-1.9,1.8-2.5,2.8c-1.8,3-2.2,6.8-2.9,10.6c1.2-0.3,1.5-1,2-1.5
		c2.3-2.5,4.7-4.9,7.3-7.1c4.2-3.6,9-6,14.6-6.5c1.2-0.1,2.4-0.3,3.6-0.6c2.6-0.5,5.1-0.3,7.7,0.2c4,0.8,7.8,2.1,11.6,3.7
		c3.1,1.3,5.7,3.1,7.8,5.7c1,1.2,2,2.5,3.3,3.4c0.5-0.6,0-1-0.2-1.4c-0.8-1.6-1.6-3.3-2.4-4.9c-0.8-1.5-1.5-2.9-3.2-3.7
		c-0.9-0.4-1.5-1.2-1.8-2.1c-0.6-1.8-1.8-3.1-3-4.5c-0.3-0.4-0.7-0.8-1-1.2c-0.2-0.3-0.4-0.7-0.5-1c-2.6-1.8-5.4-3.2-8-4.9
		c-0.4-0.2-0.8-0.2-1.3-0.2c-4.1-0.1-8.1-0.1-12.1,0.8c-4.6,1.1-8.7,3.2-12.6,5.9c-1.8,1.2-3.3,2.6-4.7,4.1c0.1,0.1,0.2,0.2,0.2,0.3
		C380.8,186,380.6,186.3,380.3,186.5z"/>
	<path class="st4" d="M412.4,654.7c-0.2-2.8,0-5.7,0.5-8.4c-2.6-3.3-5.5-6.4-9.1-8.8c-2.7-1.9-5.7-3.2-8.8-4.3c-1-0.4-1.1,0.3-1.1,1
		c0,2.5,0,4.9,0,7.4h0.1c0,2,0,4.1,0,6.1c0,3.5-1,6.6-3.6,9c-0.6,0.6-1,1.4-1.4,2.2c-1,1.7-2.2,2.9-3.9,3.7c1.6,3.1,0.1,6.2-2.7,6.9
		c-0.4,0.1-0.8,0.3-1.2,0.5c-1.2,0.7-2.2,0.5-3.2-0.4c-0.1,0-0.1-0.1-0.2-0.1c-3.9-4.1-8.8-7.1-12.3-11.6c-2.2-2.8-4.8-5.2-7.3-7.7
		c-7-6.7-12.9-14.1-17.2-22.8c-0.3-0.6-0.6-1.3-1-1.9c-4-6.6-6.1-13.7-6.9-21.3c-0.4-3.2-1-6.4-0.5-9.7c0.2-1.1,0.4-2.1,0.8-3.2
		c1.3-3.2,5-3.9,7.2-1.4c0.3,0.3,0.5,0.6,0.8,0.9c-0.8-2-1.7-3.8-2.9-5.7c-2.6-3.9-5.2-7.8-7.2-12.1c-1.7-3.6-2.9-7.2-3.5-11
		c-0.4-0.3-0.7-0.8-0.8-1.3c-0.4-1.4-0.9-2.8-1.2-4.2c-1-4-3.3-7.2-6.5-9.8c-0.7-0.6-1.5-1.2-2.2-1.7c-3.8-2.6-7.1-5.8-10-9.3
		c-0.5-0.6-1-1.5-1.9-1.8c-0.4,0.7-0.9,1.3-1.3,2c-1.7,2.6-3.7,4.8-6.2,6.6c-1.2,0.8-2.5,1.5-3.9,1.8c-1.1,0.2-2.1,0.2-3.1,0.1
		c0,0.2,0,0.4,0,0.6c0.4,6.3-0.8,12.4-2.8,18.3c-1.1,3.3-2.2,6.6-3.3,9.9c-1.3,4.1-1.8,8.5-2.6,12.7c-0.5,3.1-1.4,6.1-2.7,8.8
		c0.9-0.5,1.9-1,3-1.3c1.7-0.6,2.6-0.4,3.1,0.4c0.5,0.9,0.1,1.8-1.4,2.8c-3.1,2-5.7,4.7-8,7.4l0.4,0.1l1.2,0.3l2.4,0.6
		c4.3-1.9,8.9-2.7,13.9-2c1.4,0.2,2.1,0.8,1.8,2.1c-0.4,1.7-0.6,3.5-1.1,5.1c5.5,2.4,10.8,5.2,15.9,8.4l2.1,1.4l2.1,1.5l1,0.7
		l0.5,0.4l0.5,0.4l2,1.6c0.3,0.3,0.7,0.5,1,0.8l1,0.8l2,1.6c0.6,0.6,1.3,1.1,1.9,1.7l0.9,0.9l0.5,0.4l0.5,0.4
		c1.2,1.2,2.5,2.4,3.6,3.6c0.6,0.6,1.2,1.2,1.8,1.8l1.7,1.9c0.3,0.3,0.6,0.6,0.9,0.9l0.8,1l1.7,1.9c1.1,1.3,2.2,2.6,3.2,3.9
		c2.7,3.4,5.3,7,7.8,10.5c0,0.1,0.1,0.1,0.1,0.2c0.6,0.8,1.2,1.6,1.7,2.4c0.2,0.3,0.4,0.6,0.6,0.9c0.5,0.8,1.1,1.6,1.6,2.4
		c1.9,2.8,3.8,5.5,5.8,8.2c0.2,0.3,0.5,0.6,0.7,0.9l0.1,0.1c0.5,0.5,1.1,1,1.6,1.5c0.9,0.8,1.9,1.6,2.9,2.3c0.2,0.1,0.4,0.3,0.7,0.4
		h55.1c-0.4-0.8-0.8-1.6-1.1-2.4C415,667.8,412.9,661.5,412.4,654.7z"/>
	<path class="st4" d="M549.9,673.4c-2.4-3.5-4.6-7.2-6.8-10.9c-3-5.2-5.5-10.7-6.9-16.6c-2.9-11.7-3-23.4-1.3-35.1
		c-0.1-1.8-0.5-3.7-0.6-5.5c-0.2-4.9-0.3-9.8-0.5-14.8c-0.1-1.8-0.4-3.6-0.4-5.4c0.1-7.5,1.8-14.6,5.7-21.1c0.3-0.5,0.8-1.1,0.7-1.8
		c-0.4-0.5-0.8-0.2-1.2,0c-1.3,0.7-2.6,1.3-3.8,2.1c-3.2,1.9-6.7,3.1-10.3,3.7c-1.1,0.2-2.3,0.2-3.5-0.2c-1.7-0.5-3.1,0-4.4,1.2
		c-2.2,2.1-4.4,4.1-6.6,6.2c-0.6,0.6-1.2,1.3-1.6,2.1c-1.1,1.9-2.2,3.9-3.6,5.7c-2.2,3-2.7,6.4-3.2,10c-0.6,3.8-1.9,5.4-4.3,6.4
		c0.5,0.6,1,1.1,1.4,1.7c3.8,5,5.7,10.7,6.4,16.8c1.2,11,0.4,22-1.5,32.9c-0.2,1.2-0.4,2.4-0.6,3.6c-0.4,2.1-1.7,3.3-3.4,3.4
		c-1.7,0-3.1-1.2-3.5-3.3c-0.5-2.9-1.4-5.6-2.3-8.4c-0.2-0.7-0.3-1.4-0.9-1.9c-0.5,0.1-0.7,0.5-0.9,0.9c-2.4,4-4.9,7.9-7.2,11.9
		c-3.4,6-6.7,12-10.2,17.9c-0.3,0.4-0.5,0.9-0.8,1.4h77.9v-0.1C551.2,675.3,550.5,674.3,549.9,673.4z"/>
	<path class="st4" d="M467.3,598.2c-0.2-0.8-0.5-1.7-0.7-2.5c-0.6-2.8-1.1-5.6-3.2-7.9c-0.9-1-1.3-2.3-1.5-3.6
		c-0.4-2.5,0.9-4.6,3.3-5.5c1.3-0.5,2.3-0.8,3.4-0.3c-3.1-3.9-6.5-7.5-9.7-11.3c-1.3-1.6-3.4-2.2-5-3.3c-1.2-0.8-2.4-1.7-3.7-2.2
		c-2.3-1-4.7-1.3-7.2-1c-0.4,0-0.7,0.2-1.1,0.2c-1.8,0.3-1.8,0.3-1.8,2c0,1.4,0,2.8,0,4.1c0,3.1-1.1,5.5-4.1,6.8
		c-2.9,1.3-5.4,0.5-7.7-1.3c-1.3-0.9-2.5-2-3.6-3.1c-2.4-2.5-5.1-4.7-7.9-6.7c-5.3-3.6-9.6-8.3-12.7-14c-0.6-1.1-1.1-2.2-1.6-3.3
		c-1.1-2.6-2.8-4.9-3.9-7.5c-1.9-4.4-4.3-8.7-6-13.2c-1.1-2.8-1.3-5.9-2-8.8c-1.1-4.1-1.8-8.2-1.6-12.4c0-0.5,0.1-0.9,0.1-1.4
		c-4.1-1.2-7.9-3.2-10.9-6.2c-5.2-5-9.1-10.8-11.3-17.6c-2.9,2.3-4.5,5.4-5.5,8.9c-0.9,3.1-1.7,6.2-2,9.4c0.7-0.3,1.4-0.5,2.2-0.5
		c1.4,0,2.1,1.1,1.2,2.1c-1.6,1.9-2,4.2-2.2,6.5c-0.7,8.4,0.1,16.6,2.6,24.7c0.5,1.7,1.1,3.3,2,4.8c0.3,0.5,0.6,1,1,1.4
		c0.5,0.5,1,0.2,1.1-0.4c0.1-0.5,0-1,0-1.5c-0.1-1.5,0-2.9,0.2-4.3c0.3-1.8,1-3.5,2.3-4.8c2.9-3,7.4-2.2,9.1,1.6
		c0.5,1.1,0.7,2.4,0.8,3.6c0.7,7.4,2.4,14.6,4.8,21.6c1.3,3.7,3.6,7,6.4,9.8c6.7,6.8,13.8,13.2,21.7,18.7c5.5,3.8,11.8,5.4,18.2,6.7
		c1.6,0.3,3.3,0.5,4.9,0.8c0.6,0.1,1.3,0.2,1.9,0.5c0.9,0.5,1.6,1.3,1.8,2.3c0.4,2.1-2.1,5.3-4.2,5.5c-1,0.1-2,0.1-3,0.1
		c-0.4,0-0.7-0.1-1.1-0.1c1.1,1.5,1.7,3.2,1.7,5.2c0,1.8-0.1,3.6-0.7,5.4c-0.5,1.6-0.8,3.4-1.1,5.1c-0.2,1.3,0.1,2.6,0.6,3.8
		c2.8,6.9,6.5,13.2,12.1,18.3c2.2,2,4.8,3.6,7.4,5c0.2-0.3,0.5-0.6,0.7-0.9c1.3-1.7,2.6-3.3,4.1-4.8c4.7-4.6,8.3-10,11.5-15.7
		c1.5-2.6,2.2-5,1.8-8C468.7,605.3,468.2,601.7,467.3,598.2z"/>
	<path class="st4" d="M242,599.1c0.8-1.5,1.2-3.2,1.1-5.1c-0.4-9.3,1.8-18.2,4.9-26.9c2.6-7.2,5.7-14.2,8.9-21.2
		c1.2-2.5,2-5.1,2.8-7.7c2.4-7.4,5.4-14.5,6.9-22.1c0.8-4,1.6-7.9,2.4-11.9c0.4-2,1-3.9,1.8-5.8c0.4-0.9,0.6-1.9,0-2.8
		c-1.3,2.8-2.8,5.5-4.6,8c-3.6,5.5-7.6,10.8-11.5,16.1c-13.8,18.8-20.4,40.2-22.7,63.2c-0.5,5.4-0.4,10.8,0.1,16.2
		C235.6,599,238.8,599,242,599.1z"/>
	<path class="st4" d="M273.9,437.2c0.9,3.7,10,17.3,11,19.2c1.3,2.5,2.5,5.1,3.7,7.7c2.4,5.2,4.7,10.4,7.1,15.6
		c1.2,2.6,2.3,5.3,3.2,8.1c2.2,6.7,3.4,13.5,2.5,20.5c-0.5,3.9-0.8,7.8-1.2,11.7c0.6-0.4,0.6-1.1,0.8-1.7c0.3-0.8,0.6-1.7,1.3-2.2
		c1.5-1.2,2.8-2.6,4.1-4c1.1-1.2,2.1-2.2,3-3.6c1-1.5,2.2-2.9,3.5-4.2c0.6-0.6,1.2-1.1,2-1.3c1.6-0.6,2.8,0.1,3.2,1.8
		c0,0.2,0.1,0.3,0.1,0.5c0.2-1.5,0.5-2.9,0.8-4.4c1.1-5.3,2.1-10.6,2.1-16.1c0-4.2-0.6-8.2-1.5-12.2c-0.8-3.6-0.6-7.2-1-10.8
		c-0.1-0.5,0.3-1,0.5-1.4c0.2-0.3,0.5-0.5,0.8-0.8c1.5-1.8,1.5-1.9,0-3.6c-1.9-2.3-4.2-3.6-7.4-3.6c-5.1,0-9.1-2.6-11.5-7
		c-2.9-5.4-5.5-11-7.1-17c-1.2-4.7-1.4-9.5-1-14.4c0.3-4,0.2-8.1,0.1-12.2c0-1.5-0.7-2.8-2.1-3.6c-2-1.1-4.1-2.2-6-3.4
		c-4.7-2.9-8.6-6.6-11-11.7c-0.5-0.9-0.8-1.9-1.1-2.9c-0.4,1.8-0.8,3.5-1.1,5.3c-2.2,11.6-2.8,23.3-0.7,35
		C271.8,426.2,272.7,431.7,273.9,437.2z"/>
	<path class="st4" d="M704.7,536.3c1.8-1.6,3.8-2.8,5.8-3.9c1.1-3.3,2.5-6.6,4.4-9.7c1.3-2.2,2.9-4.4,4.2-6.6
		c3.3-5.8,7.2-11.2,11.9-16c2.6-2.6,4.4-5.7,5.6-9.2c1.4-4.1,2.9-8.2,4.3-12.3c1-2.9,1.6-5.9,1.8-8.9c0.3-5.7,0.1-11.4-0.5-17.1
		c-0.3-3.4-0.5-6.8-1.7-10c-1.7-4.6-3.5-9.1-5.9-13.3c-0.7-1.2-1.4-2.4-2.2-3.5c0.1,0.4,0.1,0.9,0.2,1.3c1.6,9.8,1.1,19.4-1.4,29
		c-1.9,7.2-4.3,14.1-7.5,20.8c-2,4.2-4.5,8.3-6.6,12.5c-2.5,5-4.9,10-7.4,14.9c-2.2,4.2-4.3,8.5-5.5,13.2c-0.5,1.8-0.7,3.7-0.7,5.6
		c-0.1,3.8,0.2,7.5-0.4,11.3c-0.1,0.9-0.2,1.8,0.1,2.7C703.9,537.1,704.3,536.6,704.7,536.3z"/>
	<path class="st4" d="M351.3,463.3c2,1.3,2.8,1.4,4.2,0.2c3.8-3,7.1-6.4,8.5-11.2c0.9-3.2,3.7-5,6.7-4.9c3.1,0.1,5.6,2.3,6.4,5.5
		c0.2,1,0.2,2,0.5,3c0.5,1.9,0.6,4.1,2.5,5.3c2.9,1.8,5,4.3,7,7c4.7,6.2,8.6,12.9,12.1,19.8c0.5,1,1.1,2,2,2.8
		c2.7,2.4,4.6,5.4,5.7,8.8c0.2,0.5,0.2,1,0.8,1.5c0.5-2.6,0.6-5.1,1.3-7.4c0.2-0.6,0.4-1.3,0.7-1.9c-0.1-0.7-0.2-1.5-0.3-2.2
		c-0.3-2.5-0.8-5-1.3-7.5c-0.8-3.5-2.7-6.3-5.2-8.9c-2.3-2.4-4.8-4.6-6.5-7.5c-0.8-1.4-1.5-2.8-2.2-4.2c-2.2-4.4-4.2-8.8-6.7-13
		c-2-3.5-4.5-6.6-8.3-8.6c-1.2-0.6-2.3-1.3-3.5-2.1c-1.7-0.8-3.3-1.6-4.9-2.6c-1.1-0.6-2.2-1.3-3.2-2.1c-2.4-0.8-5-0.1-7.4-0.9
		c-3.7-1.4-7.4-2.8-10.7-4.8c3.1,10.9,3.5,22,1.1,33.3C350.6,461.6,350,462.6,351.3,463.3z"/>
	<path class="st4" d="M747,547.1c-1.3,0.4-1.6,1.9-2.4,3c-3.5,5-7,10.1-9.5,15.8c-1.7,3.8-3.2,7.8-4.7,11.7
		c-1.9,4.8-4.3,9.3-6.9,13.7c-0.6,1.1-1.2,2.1-1.5,3.4c-0.6,2.8-1.9,5.3-4.2,7.1c-0.3,0.3-0.6,0.6-0.9,0.9
		c5.7-1.2,11.4-2.2,17.3-2.8c6.8-0.7,13.7-1,20.5-0.7c3.4,0.2,6.9,0.5,10.3,1.1c0.6,0.1,1.2,0.2,1.7,0.3c0.1-3.2,0.1-6.4,0.1-9.6
		c0.1-7.2-0.9-14.3-2.3-21.3c-0.5-2.6-1.1-5.2-1.6-7.9c-0.3-1.4-0.7-2.8-1.7-3.9c-1.1-1.3-2-2.6-3-4c-1.9-2.7-4.4-4.6-7.5-5.6
		C749.4,547.8,748.2,546.7,747,547.1z"/>
	<path class="st4" d="M312.8,106.2c0.3-0.1,0.7-0.3,0.9-0.5c5.8-4.3,12.5-6.5,19.6-7.8c1.9-0.3,3.7-0.7,5.6-1
		c4-0.6,7.9-1.9,11.6-3.5c0.7-0.3,1.7-1.2,2.3-0.3c0.7,1-0.5,1.7-1.1,2.3c-2.7,3.1-6.2,5-9.9,6.4c-1.8,0.7-3.6,1.3-5.4,1.9
		c3.8,1.6,7.2,5,8.5,8.5c0.2-0.1,0.4-0.1,0.7-0.2c1.7-0.6,3.5-0.9,4.5-2.9c0.9-1.8,3.4-1.5,4.4,0.3c0.5,0.9,0.6,1.9,0.5,3
		c-0.2,1.5-0.8,2.8-1.6,4c-1.4,2.2-2.9,4.4-4.3,6.5c-0.9,1.3-1.5,2.8-2.2,4.2c-1.7,4.2-3.6,8.2-7.3,11.1c-1,0.8-1.8,1.7-2.6,2.6
		c-0.7,0.7-1.2,1.4-1.6,2.3c-2.4,5.5-4.4,11.2-5.2,17.2c-0.5,3.4-0.2,6.9-0.1,10.2c0.6,0.2,0.8-0.1,1-0.3c4.1-6,8.4-12,11.9-18.4
		c3.7-6.8,7.9-13.1,13.3-18.7c3-3,6.4-4.6,10.4-4.5c0.3-0.3,0.5-0.6,0.8-0.9c2.4-3.1,5.9-5.2,9.2-7.4c4.7-3,9.9-4.6,15.1-6.1
		c3-0.9,6.1-1.1,9.2-0.5c1.6,0.3,3.3,0.2,4.9,0.7c0.1,0,0.1,0,0.2,0.1c3.7-0.1,7.4,1.4,10.5,4.4c1.7,1.7,3.2,3.6,4.5,5.6
		c1.3,1.9,1.2,3.7,0.1,5c-1.2,1.5-3.6,2.3-5.3,1.2c-2.3-1.4-4.2-0.9-6.3-0.1c-2.5,1-5,0.3-7.4-0.4c-1.7-0.5-3.2-0.5-4.9,0
		c-1.4,0.4-2.8,0.8-4.1,1.3c-1.1,2.5-0.7,4.8,0.4,7.2c0.4,0.9,0.8,1.7,1.3,2.5c2.8,4.6,2.9,4.6,8.1,6.4c3.4,1.1,6.7,2.3,10.3,2.2
		c4.4-0.1,8.5-1.2,11.7-4.6c1.6-1.7,3.6-2.4,5.9-1.5c1.7,0.6,3-0.2,3.2-2c0.4-2.4,1.2-4.5,3-6.1c2.2-1.9,4.6-2.6,7.4-2
		c2,0.4,3.9,1.3,5.6,2.6c1-1.1,2.6-1.7,4.4-1.6c2,0.1,3.8,0.9,5.3,2.3c0.9,0.8,1.6,1.7,2.1,2.8c2,4.8,3.1,9.8,3.6,13.3
		c0.2,5.3-1,8.6-3.4,11.3c-1.6,1.8-2.7,3.7-2.8,6.2c-0.1,1.5-1.2,2.7-1.4,4c-0.3,1.3,0.5,2.6,0.3,4.1c-0.4,2.6-2.5,4.8-4.9,5.2
		s-4.5-0.8-5.8-3.3c-0.3-0.6-0.6-1.2-0.8-1.8c-0.4,0.9-0.8,1.7-1.3,2.5c-1.5,2.4-2.3,5-3.2,7.5c-1,2.9-0.7,5.8,0.6,8.6
		c1.3,2.6,3.2,5.1,3.7,8c0.4,2.4,1.6,4.2,3.4,5.8c2.2,2,3.3,4.8,3.8,7.6c0.3,1.5,0,2.9-0.5,4.2c0.3,0.6,0.5,1.2,0.5,1.9
		c0.3,2.3,0.1,2.7-2,3.6c-1.7,0.8-3.3,1.8-4.6,3.3c-1.2,1.3-1.2,1.3-2.9,1.9c0.8,3,0,5.9-1.2,8.6c-1.6,3.7-3.6,7.2-6.6,10.1
		c-0.3,0.3-0.5,0.5-0.7,0.8c-2.7,3.8-6.3,6.4-10.7,7.8c-0.7,0.2-1.1,0.7-1.2,1.4c-0.6,2.8-2.3,4.9-4.4,6.8c-1.8,1.6-3.3,3.4-5.1,5
		c-2.1,1.9-2.8,4.5-3.7,7c-0.2,0.7,0.1,1.1,0.4,1.6c2.2,3,2.6,6.4,1.8,9.9c-0.6,2.8-1.3,5.5-2.6,8c-1.1,2.2-2.7,4-5,4.8
		c-2.9,1.1-5.8,0.3-7.4-2.4c-1-1.6-1.8-3.3-3.3-4.5c-0.4-0.3-0.6-0.8-0.8-1.2c-0.7-0.1-0.9,0.4-1.3,0.7c-1.4,1.2-2.9,2.2-4.5,3
		c-4.1,2-7.3,5-9.4,9c-0.3,0.6-0.6,1.2-1.1,1.6c-0.1,0.1-0.2,0.1-0.2,0.2c-1,2.5-2.5,4.8-4.1,7c-2.2,3-4.3,6-5.7,9.4
		c-0.2,0.5-0.7,1.1-0.5,1.6c0.2,0.4,0.3,0.8,0.3,1.2c0.4-0.3,0.7-0.5,1.1-0.8c0.1-0.1,0.2-0.2,0.4-0.2c0.8-0.3,1.5-0.8,2.1-1.5
		c0.8-0.9,2-1.2,3.2-0.8c1.3,0.5,1.9,1.5,2,2.8c0.1,1.2-0.2,2.3-0.9,3.3c-1.7,2.3-2.6,5-3.5,7.7c-2.2,6.1-3.5,12.4-2.3,19
		c0.3,1.7,0.5,3.4,0.6,5.2c0.1,1.5,0.7,2.6,1.6,3.7c1.9,2.2,3.8,4.4,5.6,6.6c2.5,2.9,4.1,6.3,5,10c0.4,1.7,0.7,3.4,1,5.1
		c1.1,8.2,2.5,16.3,5.2,24.2c1.8,5.1,3,10.4,5.6,15.3c4.2,8,9.1,15.6,15,22.6c1.6,1.9,3.4,3.6,5.3,5.2c1.3-0.6,2.5-1.2,3.8-1.9
		c0.2-0.6,0.6-1,1.4-1.2c1.3-0.3,2.2-0.9,2.8-2.1c0.4-0.9,1.1-1.6,2-1.9c0.1,0,0.2-0.1,0.3-0.1c0.9-0.4,1.4-1,1.6-1.8
		c0.1-0.5,0.2-0.9,0.3-1.5c0.1-0.6,0-1.3,0-2c-0.1-1.5,0-3,0.2-4.6c0.4-3,1.6-5.5,3.7-7.6c0.2-0.2,0.4-0.4,0.6-0.6
		c0.5-2.4,1.7-4.5,3.2-6.4c1-1.3,1.9-2.5,3-3.7c1.4-1.6,2.1-3.6,3.1-5.4c2.1-3.9,4.9-7.1,8.3-9.9c1.2-1,2.2-2.3,3.5-3.1
		c-0.1-0.7-0.5-0.5-0.8-0.5c-3-0.3-4.9-1.9-5.6-4.7c-0.9-3.1,0.3-5.7,2.6-7.8c0.9-0.8,2-1.4,3.2-1.8c0.6-0.2,0.8-0.6,0.4-1.2
		c-1.9-3.1-1.8-6.6-1.6-9.9c0.1-1.6-0.2-2.6-1.4-3.5c-1.1-0.8-1.9-1.9-2.1-3.3c0.4-0.4,0-0.7-0.2-1c-0.6-1.8-0.6-3.8-0.1-5.6
		c0.3-1.2,1-2.2,1.9-2.9c-3.4-4.7-5.2-10.1-5.7-16.1c-0.2-2.2-0.5-4.4-1.7-6.4c-0.7-1.2-1.1-2.7-1.3-4.1c-1-7.1-0.8-14.1,2.3-20.8
		c2.3-4.9,4.9-9.5,8.2-13.8c6.6-8.8,15-15,26.3-16.6c9.7-1.4,19.4-0.7,29-0.5c0.5,0,1,0.1,1.5,0.2c3.2,0.5,6.2,1.2,9.1,2.2
		c0.7,0.2,1.3,0.5,2,0.8c0.4,0.2,0.8,0.4,1.2,0.5c0.3,0.1,0.5,0.2,0.8,0.3c3.8,1.9,7.4,4.4,10.5,7.7l0,0l0,0
		c0.1,0.1,0.1,0.1,0.2,0.2c5.2,5.5,9,11.8,12.3,18.5c1.6,3.3,2.7,6.9,2.9,10.6c0.3,4.6,0.4,9.2-1.2,13.5c-0.6,1.5-0.8,2.9-0.7,4.4
		c0.3,3.4-0.5,6.6-1.7,9.8c-1.7,4.7-4.7,8.5-8.1,11.8c1.2,0.7,2.2,1.7,2.8,3.2c1.5,3.3,1.7,6.6,0.3,9.9c-0.6,1.5-1,2.8-0.6,4.4
		c0.1,0.3,0.1,0.7,0.1,1.1c-0.2,1.9,0.1,3.4,2,4.3c2.4,3,4.1,6.4,3.3,10.4c-0.5,2.4-1.9,4-4.3,4.6c-1.2,0.3-1.4,0.7-1,1.8
		c0.4,1.3,1.1,2.5,2,3.5c3,3.2,6.3,5.9,9.9,8.4c0.4,0.3,0.8,0.5,1.2,0.8c0.4,0,0.7,0.2,1.1,0.5c0.4,0.3,0.8,0.7,1.1,1
		c2.7,2.8,5.4,5.6,8.1,8.4c1.8,1.9,3.2,4.3,4.5,6.6c0.3,0.6,0.6,1.2,0.9,1.7c0.5,0.8,0.9,1.3,2,0.7c1.6-0.9,3.4-0.7,5,0.2
		c1.3,0.8,2.7,1.3,4.2,1.8c2.6,0.9,4.2,3.1,4.3,5.9c1.6-0.7,3.1-1.6,4.6-2.6c0.8-0.6,1.6-1.1,2.7-1.1c0.2,0,0.4,0,0.5,0.1
		c0.3,0.1,0.6,0.2,0.9,0.3c1.2,0.6,2.4,1.6,2.9,2.8c1.1-1,2.3-2,3.5-2.8c4.7-3.3,7.9-7.8,10.9-12.5c0.4-0.6,0.7-1.3,0.9-2
		c1.6-6.1,3.3-12.1,3.8-18.5c0.5-6,0.1-12-0.3-18c-0.5-7.4,0.3-14.5,2.6-21.6c3.2-10,5.4-20.1,5.4-30.7c0-2.6-0.3-5.2-1.3-7.7
		c-1.2-3-2.2-6-3.3-9c-0.4-1.1-0.9-2.1-1.5-3.1c-0.8-1.1-1.4-2.4-1.5-3.8c-0.2-2.5-0.3-5.1-0.4-7.6c0-0.7,0.2-1.5,1-1.7
		c0.9-0.2,1.4,0.4,1.7,1.1c0.9,2.1,2.5,3.7,3.5,5.7c1.1,2.1,2.7,3.4,4.7,4.2c4.5,1.9,7.6,5.2,10.1,9.2c1.5,2.3,2,4.8,1.6,7.5
		c-0.2,1.1-0.4,2.1-0.7,3c1.3-2.6,3.2-4.8,5.2-6.9c2.5-2.6,5.2-5,7.9-7.4c0.2-0.2,0.5-0.4,0.7-0.6c1.7-3.1,3.5-6.1,5.3-9
		c1-1.6,1.8-3.3,2.7-5c0.8-1.6,1.2-3.4,1.3-5.2c0.2-8.9-1.4-17.3-5.8-25.1c-0.4-0.7-3.3-7.7-6-6.2c-5.8,3.2-11.9,3.9-18.3,2.8
		c-3.3-0.6-3.5-0.6-5.3,2.3c-0.4,0.7-0.7,1.4-1,2.1c-1.1,2.5-1.7,5.2-2.2,7.9c-0.3,1.8-0.8,3.5-1.9,5.1c-2,2.9-5.7,3.8-8.6,1.7
		c-2.2-1.6-17.2-3.3-19.2-3.3c-1.5,0-2.8-0.6-4-1.6c-4-3.3-5.3-10.2-2.7-14.7c0.3-0.5,0.6-1,1.1-1.3c1-0.8,1.9-0.5,2.3,0.7
		c0.1,0.4,5.4,2,7.4,2.7c0.9,0.3,1.3-0.1,1.6-0.9c0.5-1.2,0.7-2.5,0.9-3.8c0.2-1.5,0.7-2.8,1.8-3.9c1.2-1.2,1.1-1.6-0.4-2.3
		c-4.6-2.2-7.7-5.8-9.7-10.4c0-0.1,0-0.1-0.1-0.1c-0.7-0.3-1.3-0.7-1.9-1.1c-1-0.7-2.3-0.5-3.4-0.3c-1.4,0.2-2.9,0.3-4.4,0.3
		c0.7,0.5,1.5,1,2.2,1.5c0.8,0.6,1.3,1.3,1.5,2.3c0.5,2.5-0.2,4.8-1.9,6.6c-1,1.1-2.4,1.3-3.8,0.9c-1.1-0.3-2.2-0.9-3-1.7
		c-1.1-1.1-2.5-1.5-4-1.5c-1.9-0.1-3.8-0.1-5.6-0.3c-7.7-1.1-13.5-4.9-16.4-12.4c-1.5-3.8-2.9-7.7-4.3-11.6
		c-0.3-0.8-0.7-1.4-1.4-1.9c-1.9-1.2-2.8-2.8-2.3-5.1c0.1-0.4,0.1-0.9,0-1.3c-0.2-1.1-0.8-2.2-0.6-3.4c0-0.2,0.1-0.4,0.1-0.5
		c-0.9-1.6-1.1-3.6-0.4-5.3c0.8-1.9,2-3.5,3.6-4.8c0.8-0.7,1.4-1.4,1.4-2.5c-0.1-4,2.1-7.1,3.7-10.5c0.2-0.5,0.4-0.9,0.7-1.4
		c0.5-0.9,0.6-1.7,0-2.6c-0.9-1.5-1.1-3.1-1.2-4.8c0-0.5,0-1,0-1.4c-0.5,0.6-0.9,0.5-1.4-0.3c-0.2-0.4-0.4-0.8-0.6-1.2
		c-1.7-4.9-1.8-9.8,0.2-14.6c0.9-2.2,2.4-3.9,4.2-5.5c1.1-0.9,1-1,0.1-2c-1-1.1-2.1-2.1-3.5-2.8c-2.2-1.1-3.5-3.1-4-5.4
		c-1.4-6.5-0.8-12.8,2.2-18.8c1.1-2.2,2.9-3.8,5.3-4.5c2.5-0.8,4.9-0.4,6.8,1.5c1.9,1.9,2.2,4.3,1.4,6.8c-0.3,1-0.8,1.9-1.3,2.7
		c-1.4,2.4-2.4,5-3.2,7.7c1.5,0.6,3.3,0.7,4.5,1.8c0.5,0.4,0.9-0.1,1.3-0.4c1.1-0.8,2.2-1.7,3.3-2.4c3.9-2.4,8-3,12.2-1
		c1.4,0.7,3.1,0.8,4.4,1.7c0.5,0.3,1.1,0.2,1.7,0.2c1.2,0,2.3,0.1,3.5,0.3c4.3,0.8,9.8,4.6,13,8.4c0.3-0.1,0.6-0.2,0.9-0.4
		c2.3-1.3,4.8-1.4,7.4-1c1.6,0.2,3.2,0.5,4.7,0.5c1.3,0,2.5-0.4,3.6-1.2c1.8-1.3,3.7-2.6,5.7-3.6c0.5-0.2,0.9-0.5,1-1.1
		c0.1-1.5,0.6-2.8,1.2-4.2c0.4-0.9,0-1.3-0.9-1.6c-2.6-0.7-4.8-2.1-6.8-3.9c-1.5-1.3-3.1-2.4-4.6-3.6c-2.3-1.8-3.2-4.3-2.3-6.4
		c0.8-2,2.1-3.4,4.5-3.5c1.2,0,2.5,0,3.7,0c0.9,0,1.2-0.4,0.9-1.2c-0.3-1.2-0.6-2.4-0.9-3.6c-0.4-1.7-0.5-3.5-0.3-5.2
		c0.4-2.6,0.4-5.3,1.3-7.8c0.1-0.4,0.2-0.9,0.5-1.2c1.4-1.4,1.2-3,0.8-4.8c-0.5-2.5-0.3-5.1,0.1-7.6c0.4-2.1,1.9-3.8,3.9-4.5
		c0.8-0.3,1.6-0.4,2.4-0.3c0-0.1,0-0.3,0-0.4c0.4-4.2,4.2-6,7.8-4c2.9,1.7,4,4.7,6.5,6.8c2.3,2,5,2.5,7.9,1.9
		c1.2-0.2,2.5-0.4,3.7-0.5c-1.1-3.8-2.2-6.9-2.8-8.6c-3.1-8.5-4.7-10-3.7-11.6c3.6-5.5,26.1,7,31.1,0.5c0.2-0.3,0.4-0.7,0.6-1
		c-3.1-1.4-6.3-2.8-9.4-4.1c-4.2-1.8-8.6-3.1-13.1-3.8c-5.2-0.8-10.5-0.9-15.8-1.6c-6.7-0.9-13.3-2.5-18.9-6.5
		c-4.6-3.3-9.5-6.1-14.5-8.7c-7.2-3.7-14.7-6.9-22.4-9.5c-8.3-2.8-17-4.1-25.8-4.9c-8.9-0.7-17.8,0.1-26.7,1.2
		c-10.5,1.3-20.9,3.1-31.4,4.7c-5.5,0.8-11,1.5-16.6,1.4c-2,0-4.1-0.2-6-0.9c-1.2-0.4-12.5-4-16.9-4.9c-3.5-0.7-7-0.8-10.6-0.6
		c-6.1,0.4-12.3,0.7-18.4,0.8c-4.1,0-8.1,0.5-12.1,1.1c-3.1,0.5-6.1,1.2-9.2,1.6c-5.9,0.8-11.4,2.5-16.6,5.5
		c-3.9,2.2-8.2,3.7-12.8,3.8c-4.6,0.1-8.2,2.1-11.2,5.4c-1.3,1.4-2.6,2.9-4.1,4.2c-2.2,1.7-4.1,3.7-5.9,5.7
		c-2.3,2.7-5.2,4.5-8.5,5.8c-2.1,0.8-4.3,1.5-6.2,2.6c-4,2.2-8.3,3-12.7,3.4c-2.5,0.2-4.7,0.9-6.8,2.1c-0.2,1.8-3.5,5.6-7.6,13.5
		c-2.4,4.6-4.1,8.7-5.4,12.1c0.6-0.3,1.3-0.5,2.1-0.8C310.5,107.4,311.5,106.6,312.8,106.2z M427.8,408.4c-0.3,0.7-0.7,1.3-1.1,1.9
		c-2.1,3-3.9,6.2-5.5,9.6c-1.1,2.4-2.6,4.6-3.3,7.2c-0.5,2-3.2,4.2-6.3,3.9c-4.2-0.4-7.5-2.3-10.5-5.2c-2.7-2.6-4.8-5.6-6.8-8.6
		c-1.8-2.7-3.1-5.8-3.5-9.2c-0.3-2.6-1.1-5.1-1.5-7.6c-0.7-4.6-1.2-9.2-1.1-13.6c-0.1-4.8,0.6-9.4,0.4-14.1
		c-0.1-3.5-1.2-6.5-3.8-8.9c-1.8-1.7-3.5-3.4-5.3-5.1c-1.7-1.6-2.8-3.7-3.1-6.2c-0.4-3-0.2-5.9,0.2-8.8c0.3-2.3,1.1-4.4,2.2-6.5
		c0.1-0.2,0.4-0.5,0.6-0.6c0.6-0.5,1.3-0.5,2-0.2c0.6,0.3,0.7,0.9,0.7,1.5c0,2.2,0,4.3,0,6.5c0,1.7,0.2,2.9,2.1,3.8
		c2.2,1.1,3.6,3.1,4.8,5.2c0.5,0.9,0.9,2,2.4,1.1c0.5-0.3,1.1,0.4,1.4,0.8c1.9,2.9,4.1,5.6,5.7,8.7c0.8,1.5,1.2,3.1,1.2,4.8
		c-0.1,2.3,0,4.6,0,7c0,0.9,0.2,1.7,0.7,2.5c2.8,4.6,5.5,9.3,8.6,13.8c1.6,2.3,3.7,3.8,6.1,5c2.2,1.1,4.1,2.4,6.1,3.8
		c0.5,0.3,1,0.7,1.2,1.2c0.5,1,1.3,1.2,2.3,1.2C427.9,403.2,429.2,405.4,427.8,408.4z M452,286.9c-4.5,2.2-8.2,5.4-11.6,9
		c-2.8,2.9-4.8,6.3-6.4,10c-1.4,3.2-2.7,6.4-3.9,9.6c-0.4,1-0.9,1-1.6,0.9c-1.3-0.2-2.2-1-3.1-1.8c-1.7-1.5-2.6-3.4-2.8-5.7
		c-0.2-2.4-0.6-4.7-1-7.1c-0.2-1.3-0.3-2.6-0.3-3.6c0-1.6,0.1-2.9,0.3-4.2c0.5-2.2,0.6-4.4,0.5-6.7c-0.1-4.9,0.7-9.6,2.3-14.2
		c0.6-1.7,1.4-3.3,2.5-4.7c1-1.2,1.5-2.7,2.7-3.9c1.4-1.5,2.8-1.2,4.3-1.2s2.6,0.9,3.3,2.1c0.8,1.4,1.2,2.9,1.4,4.5
		c0.4,2.3,0.9,4.5,1.7,6.7c0.8,2.2,2.2,3.9,4.5,4.5c1.1,0.3,2.2,0.6,3.2,1.4c0.4,0.4,0.9,0.3,1.5,0.3c0.5,0,1,0,1.5,0
		c1.4,0.2,2.5,0.9,2.6,1.9C453.8,286.1,452.9,286.5,452,286.9z M562.6,103.3c0.1-0.6,0.2-1.3,0.5-1.9c2-5.3,3.8-10.6,6.9-15.4
		c0.3-0.5,0.5-1.1,0.6-1.6c0.6-1.8,1.5-3.5,2.8-4.9c5.3-5.5,11.4-9.8,18.9-11.8c1.5-0.4,3-0.7,4.5-0.6c1.7,0,3.3,0.5,4.6,1.6
		c2.5,2.2,2.3,5.5-0.4,7.4c-0.5,0.4-1.1,0.7-1.6,1c0.5,0.6,1.1,0.6,1.6,0.7c3.8,1.3,7.3,3.2,10.3,5.8c1.4,1.2,2.6,2.5,3.5,4.1
		c0.7,1.3,0.7,2.2,0,3c-0.7,0.7-1.7,0.8-3,0.1c-0.3-0.2-0.6-0.4-0.9-0.6c-2.2-1.4-4.7-2.3-7.2-3c-1-0.3-2-0.4-3.1-0.5
		c-0.1,0.3-0.2,0.5-0.4,0.8c-1.1,1.7-2.7,3-4.5,3.9c-1.9,0.9-3.6,2-5.1,3.6c-1,1.2-2.3,2.1-3.9,2.1c-2.4,0-4.5,1.3-6.9,1.1
		c-2.3-0.1-4.6,0-6.3-2c-0.5-0.6-1.2-0.7-2-0.4c-0.2,0.1-0.3,0.1-0.5,0.2c-1.2,1.2-2.2,2.5-3.2,3.8c-1,1.4-2,2.9-2.9,4.3
		c-0.4,0.6-0.9,1.2-1.8,0.9C562.4,104.8,562.5,104,562.6,103.3z M483.6,216.1c-2.6,1.2-5.3,2.3-8.3,1.7c-0.9-0.2-1.4,0.2-1.9,0.7
		c-1.5,1.2-3.1,2.2-4.8,3c-1.3,0.6-2.6,0.9-4,0.2c-1.1-0.5-2-1.3-2.3-2.5c-0.3-1.3-0.9-5.2-0.4-5.7c1.2-1.1,1-11,2.3-12.4
		c0.5-0.5,0.5-1.2,0.5-1.8c0.1-1,0.3-2,0.7-3c0.8-2,2.5-3.1,4.6-3c1.5,0.1,2.8,0.6,3.9,1.6c0.5,0.5,1.1,1,1.4,1.7
		c1.4,3.5,4.3,5.7,7,8.1c1.1,1,2.2,2.1,3.1,3.3C487.6,210.6,486.8,214.6,483.6,216.1z M475,155.8c-0.1-1.2-0.4-2.4-0.5-3.7
		c-0.1-0.7-0.1-1.4,0-2.2c0.1-0.6,0.1-1.2,0.7-1.5c0.7-0.3,1.2,0.2,1.7,0.7c0.7,0.6,1.1,1.5,1.5,2.3c2.2,4.2,3.4,8.7,4.5,13.3
		c0.7,3.1,0.9,6.3,1.1,9.8c0.6,2.6-0.4,5.5,0,8.4c0.1,0.6-0.5,0.9-1,0.9c-0.9,0.1-1.4,0.5-2,1.1c-0.8,1-2,1.1-3.2,0.8
		c-3-0.8-5.5-2.2-7.3-4.7c-2.9-4.1-1.5-9.2,3.1-11.2c0.9-0.4,1.1-0.9,1.2-1.8C475.6,164,475.5,159.9,475,155.8z M521.7,217.8
		c-0.4,0-3,0.1-3.8-0.6c-0.2-0.1-0.3-0.3-0.5-0.4c-0.1-0.1-0.1-0.1-0.2-0.2c-2.4-2.4-5.4-3.2-8.8-2.7c-2,0.3-6.9-1.5-7.6-1.4
		c-0.8,0.2-2.1-3.7,0.4-4.4c0.6-0.2,4.9-5.3,7.6-6.4c1.3-0.5,1.9-1.3,2.2-2.6c0.3-1.4,1.1-2.5,2.2-3.4c2.5-2.1,6-1.3,7.2,1.7
		c0.5,1.3,1.2,2.2,2.2,3.1c1.9,1.9,3.4,4.1,4.7,6.5C530,211.5,526.8,217.3,521.7,217.8z M505.3,162.1c1.7-5.4,6.7-14,8.8-15.6
		c1.8,3.2,2.3,6.7,2.4,10.4c0,0.7,0.2,1.4,0.3,2.1c0.1,1.5,0.9,2.4,2.3,3.1c3.8,1.7,5.4,4.9,4.8,9c-0.3,2.1-1.4,3.8-3.3,4.6
		c-3.7,1.5-6.9,3.9-10.7,5.2c-0.7,0.3-1.2,0.6-1.4,1.4c-0.3,1.2-1,2-2.2,2.3C503.4,177.2,502.8,169.7,505.3,162.1z M569.8,396.4
		c2.9-0.2,5.6,0.4,8.2,1.7c1.2,0.6,1.5,0.6,1.8-0.7c1.4-6.1,5.2-11.2,7.3-16.9c1.7-4.5,3.1-9,3.7-13.9c0.9-6.9,1.6-13.8,2.2-20.7
		c0.1-1.3,0.6-2.5,1.3-3.6c0.8-1.2,1.3-2.6,2.1-3.8c1.3-2.1,1.3-4-0.2-6c-0.6-0.7-1.1-1.5-1.7-2.2c-1.3-1.6-2.2-3.3-2.5-5.4
		c-0.2-1.4,0.1-2.7,1.2-3.6c0.5-0.4,0.9-0.4,1.5,0.1c4.4,4.3,7.7,9.2,9.8,14.9c1.3,3.6,1.8,7.3,1.5,10.5c0.1,8.5-1.4,16.1-3.3,23.7
		c-1.2,4.8-2,9.7-2.4,14.7c-0.4,4.7-0.4,9.4-0.2,14.1c0.1,2.2,0.3,4.4,0,6.7c-0.2,2.4-0.7,4.7-1.6,6.9c-0.4,1-0.8,2-1.1,3.1
		c-0.7,3-2.4,5.4-4.3,7.6c-2.3,2.6-5.3,3.3-8.6,2.8c-0.9-0.1-1.6-0.7-2.2-1.4c-1.9-2.3-4.2-4.4-6.4-6.5c-1-1-1.6-2.2-2.4-3.3
		c-0.9-1.3-1.8-2.6-3-3.7c-2.9-2.7-5.1-6-7.3-9.4c-0.9-1.5-0.8-2.1,0.4-3.4C565.3,397,567.5,396.5,569.8,396.4z M544.3,272.7
		c1.9-1.1,3-2.3,2.7-4.7c-0.2-1.2-0.1-2.5,0.6-3.6c0.5-0.8,0-1.5-0.3-2c-1-2.1-0.6-4.4-1.3-6.5c-0.2-0.6,0-1.3,0.8-1.6
		c0.7-0.3,1.2-0.1,1.7,0.5c0.9,1,1.5,2.3,2.2,3.4c1.8,2.8,4.1,4.8,7.3,6.2c4.1,1.8,6.4,5.1,6.4,9.7c0.1,1.4-0.3,2.7-0.6,4.1
		c-0.7,3-0.3,6-0.5,9.1c-0.2,4.4-0.5,8.8-1.8,13c-0.6,2-1.6,3.7-3.1,5.1c-1.7,1.6-5.8,2.2-7.7,1c-1.4-0.9-2.4-2.2-3.1-3.8
		c-0.5-1-0.9-1.6-2.1-1.8c-1.4-0.3-2.2-1.5-3-2.7c-1.4-2.2-3.3-4-4.4-6.4c-0.3-0.7-1-1.2-1.6-1.7c-0.8-0.7-1.3-1.4-1.2-2.6
		c0.1-0.7-0.1-1.4-0.7-1.9c-0.9-0.8-1.1-1.8-0.8-3.1c0.4-1.7,1.2-3,2.4-4.4C538.5,275.5,541.5,274.3,544.3,272.7z M454.1,68.7
		c1.8-1,3.8-1,5.7-0.7c3,0.5,5.7,1.7,8,3.7c1.6,1.4,3.2,2.9,4.8,4.4c0.4,0.3,0.7,0.7,1.1,1s0.9,0.2,1-0.4s0.1-1.3,0.1-1.9
		c0-1.9,0.3-3.8,0.5-5.6c0.4-2.7,1.9-4.3,4-4.8c2.3-0.5,4.7,0.5,6.1,2.8c0.1,0.1,0.1,0.2,0.2,0.3c1-0.7,2.3-1,3.8-0.6
		c2.4,0.6,4.6,1.9,6.3,3.7c2.7,2.7,5.9,3.8,9.5,4.2c2.3,0.2,4.6-0.2,6.9-0.4c3-0.3,5.8-1.3,8.5-2.9c3-1.7,6-3.5,9.5-4.1
		c3.3-0.5,6.6-0.5,9.6,1.4c0.9,0.6,1.3,1.4,1.5,2.3c1.7,0.5,3.2,1.5,4.4,3.2c1.9,2.7,1.7,5.6,0.1,8.4c-0.9,1.6-2.2,2.9-3.5,4.1
		c-2.3,2.2-4.7,4.3-7,6.5c-1.1,1.1-2.2,2.3-2.9,3.8c4.2-3.2,9.3-3.6,14.2-4.7c1.6-0.3,3.2-0.3,4.7,0.4c1.3,0.7,1.9,1.8,1.7,3
		c-0.2,1.1-1.1,2-2.5,2.1c-3.1,0.2-9.2,8.9-9.8,9.8c-1.4,1.9-2.8,3.9-4.2,5.8c-1.7,2.3-3.6,4.5-5.6,6.6c-2.7,2.9-4.5,6.4-5.5,10.2
		c-0.5,2-1,3.9-1.5,5.9c-0.1,0.5-0.3,1-0.5,1.4c-0.2,0.5-0.6,0.8-1.2,0.8c-0.1,0-0.1,0-0.2-0.1c-0.9,1.4-2.2,2-4.2,1.9
		c-2.1,0-4-0.4-5.4-2c-0.7-0.8-1.2-1.7-1.5-2.8c-0.8-3.3-1-6.7-1.2-10.1c-0.1-1.2-0.4-1.9-1.6-2.5c-2.4-1.3-4.4-3.2-7-4.3
		c-2.7-1.1-5.2-2.5-8.4-2.4c-2.2,0.1-3.4,1.1-4.1,2.8c-0.5,1.1-0.9,2.1-1.4,3.2c-1.3,2.3-3.4,3.1-6,2.8c-3.1-0.4-4.7-2.2-5.4-5
		c-1.1-3.8-1-7.7-0.8-11.5c-0.5,0.1-1.1,0.2-1.6,0.1c-1.8-0.3-3-1.8-3.1-3.9c-0.1-1.4,0-2.9,0-4.5c0.9-3,0-5.8-1.9-8.4
		c-0.8-1.2-1.3-2.6-2-3.8c-1.9-3.4-4.3-6.3-7.5-8.6c-2.3-1.6-4.3-3.5-5.7-5.9C451.7,71.3,452.1,69.8,454.1,68.7z M380.4,80.7
		c0.3-1,1-1.6,1.7-2.2c1.3-1,2.8-1.8,4.4-2.3c4.4-1.5,8.8-3.3,13.7-3.2c0.5,0,1-0.1,1.4-0.5c2.4-3.1,5.9-3.3,9.3-3.6
		c4.5,0.1,8.4,1.8,11.8,4.5c0.4,0.3,0.8,0.7,1.2,1c0.4,0.3,0.7,0.4,1.1,0c4.2-3.3,8.8-2.7,12,1.7c1.2,1.6,2.2,3.3,3,5
		c0.5,1.1,1.2,1.9,2.2,2.6c2.5,1.6,4,3.9,4.7,6.8c0.2,0.7,0.4,1.5,0.2,2.1c-0.5,1.7-0.2,3.3-0.1,5c0.2,2.4,0.3,4.8,0.1,7.2
		c0,0.4-0.1,0.9-0.2,1.3c-0.2,0.7-0.4,1.5-1.4,1.4c-0.8-0.1-1-0.8-1-1.5c-0.2-2.1-0.7-4.1-1.2-6.2s-1.7-3.6-3.6-4.7
		c-1.5-0.9-3.1-1.7-4.7-2.4c-0.2,0.5-0.6,0.9-1.1,1.3c-0.9,0.7-1.8,1.4-2.7,2.1c-0.7,0.6-1.5,0.9-2.4,0.9c-1,0.1-2,0.1-3,0.2v0.1
		c-3.7-0.4-7.3-0.9-11-1.3c-0.8-0.1-1.6-0.3-2.4-0.3c-1.1-0.1-2.1-0.5-2.7-1.2c-2.2-2.3-4.7-4.4-5.9-7.6c-0.5-1.3-1.1-2.5-2-3.6
		c-0.6-0.8-0.8-1.6-0.8-2.5c-4.2-0.9-8.4-0.9-12.7-0.3c-1.8,0.2-3.5,0.8-5.2,1.5c-0.5,0.2-0.9,0.5-1.4,0.5
		C380.7,82.6,380.1,81.7,380.4,80.7z"/>
	<path class="st4" d="M652.1,584.3c1.6-4.1,3.5-8.1,5.4-12.1c3.2-6.9,5.1-14.1,6.2-21.6c-5.8-0.7-6-0.8-10.9-3.7
		c-0.6,0.6-0.6,1.4-0.7,2.1c-0.3,2.7-1.3,5-3.6,6.6c-2.6,1.7-5.8,1.3-8-0.9c-1.7-1.7-3.2-3.3-4.1-5.5c-0.2-0.6-0.8-1.2-0.7-1.8
		c0.3-1.9-1-2.7-2.4-3.5c-0.8,0.2-1,0.9-1.4,1.5c-2.6,4.2-6.1,7.5-10.6,9.6c-2,0.9-4,1.7-6.3,1.1c-0.3-0.1-0.5,0-0.7,0
		c2.2,2.5-0.2,6.9-1.9,9.2c-1.3,1.8-3,3.3-4.7,4.9c-3.3,3.3-6.9,6.8-11.1,8.9c-2.4,1.2-4.9,1.6-7.6,1.3c-3.5-0.4-7.1-0.7-10.5-1.6
		c-2.5-0.6-4.5-0.1-6.4,1.6c-0.4,0.4-0.9,0.7-1.3,1.1c-5.9,5.5-10.9,11.8-14.7,19c-0.9,1.7-1.3,3.5-1,5.4c0.2,1.7,0.5,3.4,0.6,5.2
		c0.1,1.7-0.1,3.6-1.8,4c-2.1,0.5-2,1.9-2.2,3.4c-0.1,1.1-0.3,2.1-0.5,3.2c-0.4,2.6-0.7,5.1,0.1,7.7c1,3.3,1.7,6.7,2.5,10.1
		c2.2,9.8,4.4,19.6,7.7,29.2c0.9,2.6,2,5.2,3.1,7.6h13.3c-0.9-1.9-1.6-3.9-2.1-6c-1.5-6.4-2.6-12.8-2.6-19.3c0-3.7-0.4-7.4-0.7-11.1
		c-0.5-5-0.1-10,1.1-14.9c0.3-1.3,0.7-2.5,1.4-3.6c1.6-2.2,4-2.6,6-0.7c3.8,3.7,6.3,8.1,7.8,13.1c0.5,1.6-0.1,2.1-2.4,2.3
		c0.5,3.5,1.4,6.8,3.1,9.8c2.6,4.5,5.4,8.8,7.8,13.3c0.1,0.1,0.2,0.2,0.4,0.3c0.5-0.7,0.3-1.5,0.3-2.3c0.1-3.4,0.2-6.8,0.9-10.2
		c2-9.5,6.8-17.3,13.5-24.1c6.1-6.2,12.7-11.6,20-16.3c2.9-1.9,5.7-4,8.2-6.4C645.9,595.9,649.6,590.6,652.1,584.3z"/>
	<path class="st4" d="M488,552c0.9,0.6,1.6,0.8,2.3-0.3c1.6-2.3,3.9-3.9,6.2-5.4c3.5-2.3,7.3-3.8,11.3-4.8c2.4-0.6,4.5-1.5,6.4-3.1
		c2.8-2.3,5.5-4.7,7.9-7.5c0.6-0.7,1.2-1.4,1.6-2.3c1.2-2.4,3.6-2.7,5.4-0.7c0.9,1,1.4,2.2,2,3.4c0.7,1.4,1.4,2.9,2.1,4.3
		c0.4,0.7,0.8,0.9,1.6,0.4c1.4-0.9,2.8-1.8,4.3-2.5c2.8-1.3,5.5-2.9,8-4.6c-0.3-0.2-0.5-0.5-0.7-0.9c-0.6-1.1-1-2.4-0.7-3.8
		c0.7-3.9,1.3-7.8,1.9-11.7c0.3-1.7,0.2-3.5-0.1-5.2c-0.3-1.6-0.2-3.2-0.2-4.8c0-1.5,0.5-2.9,1.5-4c1.4-1.4,1.3-3,1-4.6
		c-0.3-1.4-0.7-2.8-1.5-4c-0.7-0.1-0.8,0.4-0.9,0.8c-2.9,7.7-8.1,13.6-14.7,18.3c-2,1.4-4,2.8-6.1,4.2c-5.3,3.4-11.3,4.8-17.3,6
		c-2.3,0.5-4.6,0.8-6.8,1.5c-2.9,1-5.6,2.4-7.8,4.6c-1.2,1.2-2.5,2.4-3.8,3.6c-3.9,3.7-9,3.1-12.9,0.9c-2.7-1.5-5.3-3.4-7.4-5.6
		c-3.1-3.3-6.8-5.5-11-7.1c-2-0.8-3.9-1.6-5.8-2.5c0.5,1.6,1.1,3.3,1.6,4.9c0.6,1.8,1.7,3.3,3.4,4.3c1.1,0.7,2.2,1.5,2.8,2.6
		c1.5,2.7,3.6,5.1,5.1,7.8c1,1.8,2.4,3.3,3.9,4.6c3.3,3,6.9,5.8,10.5,8.4C483.6,549,485.8,550.4,488,552z"/>
	<path class="st4" d="M605.8,197.9c1.4,1.7,3,3.1,4.6,4.5c0.9,0.8,1.7,1.8,2.3,2.8c-0.1-0.6-0.3-1.2-0.5-1.8
		c-0.1-0.2-0.1-0.4-0.2-0.6c-0.1-0.4-0.2-0.8-0.4-1.1c-0.1-0.2-0.2-0.5-0.3-0.7c-0.1-0.3-0.3-0.7-0.4-1c-0.1-0.2-0.2-0.5-0.3-0.7
		c-0.1-0.3-0.3-0.6-0.4-0.9c-0.1-0.2-0.2-0.5-0.4-0.7c-0.2-0.3-0.3-0.6-0.5-0.9c-0.1-0.2-0.3-0.5-0.4-0.7c-0.2-0.3-0.3-0.6-0.5-0.9
		c-0.1-0.2-0.3-0.4-0.4-0.6c-0.2-0.3-0.4-0.6-0.6-0.9c-0.1-0.2-0.3-0.4-0.4-0.6c-0.2-0.2-0.3-0.5-0.5-0.7c0.3,0.3,0.7,0.6,1.1,0.9
		c-0.5-0.5-1.1-1-1.5-1.6c-1.1-1.9-2.7-3.2-4.3-4.5c-0.6-0.5-1.2-1-1.8-1.5c-0.1-0.1-0.1-0.1-0.2-0.2c-0.1-0.1-0.3-0.2-0.4-0.3
		c-0.6-0.3-1.3-0.4-2-0.4c-1.9-0.2-3.9-0.5-5.8-1c-0.6-0.2-1.3-0.4-1.8-0.7c-0.8-0.4-1.3-1-1.6-1.7c-3.1-0.5-6.3-0.8-9.5-1
		c-0.4,0-0.8-0.1-1.2-0.1c-0.1,0.2-0.3,0.4-0.6,0.5c-2.8,0.9-4.8,3-7.2,4.4c-1.6,0.9-3.1,2.1-4.4,3.5c0.7,0.5,1.2,0,1.7-0.1
		c8.7-2.4,17.4-2.2,25.7,1.4c4.1,1.7,8.3,3.5,11.6,6.6C604.9,197.1,605.4,197.4,605.8,197.9z"/>
	<path class="st4" d="M831.8,654.9c-2-3.9-4.3-7.5-7.1-10.9s-5.9-6.4-9.2-9.1c-3.4-2.7-7.1-5-10.9-6.9l0,0l-5.8-2.6
		c-0.6-0.6-1.2-1.1-1.8-1.6c-1.4-1.2-3-2.4-4.6-3.3c-6.8-3.8-14.4-5.9-22-7.2c-3.8-0.6-7.7-1-11.6-1.3c-2.6-0.1-5.1,0-7.6-0.4
		c-2.8-0.4-5.4-1.7-8.2-1.9c-1.1-0.1-2.2,0-3.2,0.1c-8.9,0.9-17.7,2.2-26.3,4.8c-4.3,1.3-8.5,2.9-12.5,4.9
		c-3.9,1.9-7.3,4.7-11.3,6.3c-1,0.4-1.9,0.8-2.9,1.2c-20.5,8.8-38.8,26.1-45.9,47.5l0,0c1.9-0.4,4.1,0.3,5.5-0.9
		c0.6-0.5,0.9-1.2,1.3-1.9c3.3-7.1,6.5-14.5,12.1-20c6.8-6.8,17.6-9.5,25.7-3.2v-0.1c0,0.1,0.1,0.1,0.1,0.2c0.5,0.4,0.9,0.8,1.4,1.2
		c0,0,0,0,0.1,0.1c0.2,0.1,0.3,0.3,0.4,0.4c0.5,0.5,1,1,1.5,1.6c0.1,0.1,0.2,0.2,0.2,0.3c-0.7,0-1.4,0-2.1,0.1
		c-1.5,0.2-2.9,0.5-4.3,1c-2.8,1-5.3,2.5-7.7,4.2c-0.6,0.4-1.2,0.8-1.8,1.3l-0.9,0.7l-1.6,1.2l-0.8,0.6c0,0,0.9-0.2,1-0.3
		c4.2-1.1,8.5-1.2,12.5,0.7c0.3,0.2,0.6,0.3,1,0.5c0.3,0.2,0.6,0.4,0.9,0.6c0.6,0.4,1.2,0.9,1.7,1.3c1.1,1,2,2,2.9,3.2
		c0.9,1.3,1.7,2.7,2.4,4.2l0,0c-0.1,0.4-0.2,0.8-0.3,1.2c-0.1,0.2-0.1,0.5-0.2,0.8v0.1c-0.1,0.5-0.2,0.9-0.2,1.4c0,0.1,0,0.2,0,0.3
		s0,0.2,0.1,0.3c0,0.2,0.1,0.4,0.1,0.6v-0.1v0.1c0,0,0,0,0,0.1c0,0,0,0,0-0.1c0.2,0.8,0.3,1.6,0.5,2.3c0.2,0.9,0.4,1.8,0.6,2.8
		c1.1,1.9,2.3,3.8,3.1,5.9c0.1,0.2,0.1,0.4,0.2,0.6c0,0.1,0,0.1,0,0.2c0.1,0.2,0.1,0.4,0.2,0.6l0,0c0,0.2,0.1,0.4,0.1,0.6
		c0,0.1,0,0.1,0,0.2c0,0.2,0.1,0.4,0.1,0.5v0.1c0,0.2,0.1,0.4,0.1,0.6c0,0.1,0,0.2,0,0.2c0,0.1,0,0.3,0,0.4c0,0.1,0,0.2,0,0.3
		c0,0.2,0,0.3,0,0.5c0,0.1,0,0.2,0,0.3s0,0.2,0,0.3c0,0.2,0,0.4,0,0.7v0.1c0,0.2,0,0.3,0,0.5l0,0c0,0.3,0,0.6,0,1
		c0.1,0.2,0.2,0.3,0.4,0.5c0.6,0.8,1.2,1.5,1.8,2.2c0.3,0.3,0.6,0.6,0.9,1c2.6,2.3,5.3,4.4,8.8,5.2c5.4,1.2,11-0.5,16.6-0.1
		c1.1,0.1,2.2,0.3,3.2-0.2c1.9-0.8,3.1-3.8,4.1-5.5c1.5-2.6,2.8-5.3,3.8-8.2c2-5.4,3.2-11,3.7-16.7c0.7-9-0.9-18.1-4.5-26.4
		c-1.8-4.1-4-8.1-6.7-11.7c-2.6-3.6-5.7-7-9-10.1c-0.4-0.4-0.8-0.7-1.3-1.1l-2.2-1.9l0,0l0,0h0.1h0.2l0.4,0.1l0.8,0.2l1.2,0.3
		l0.4,0.1l0.4,0.1l0.8,0.2c2.2,0.7,4.3,1.5,6.3,2.6c18.7,9.8,26.8,29.5,28,49.5c0,0.1,0,0.3,0,0.4c0,0.6,0,1.2,0,1.8s0,1.1-0.1,1.7
		c0,0.5-0.1,1.1-0.1,1.6c0,0.1,0,0.1,0,0.2c-0.1,0.4-0.1,0.7-0.2,1.1c0,0.3-0.1,0.7-0.2,1c0,0.2-0.1,0.5-0.1,0.7
		c-0.5,3.3-1.6,6.6-2.7,9.8c-1.1,3.4-3.1,6.7-1.7,10.2c3,7.5,9.6,9.9,17,11.1c1,0.2,1.9,0.3,2.9,0.4c1.2,0.2,2.4,0.3,3.7,0.4
		c1.4,0.1,2.8,0.3,4.3,0.4c0.3,0,0.5,0,0.8,0.1c0.2,0,0.5,0,0.7,0.1c0.5,0,1,0,1.5,0c0-0.1,0-0.1,0-0.2c0.6-2.8,2.1-5.3,3.4-7.9
		c6.2-12,8.6-26.3,6.6-40c-1.8-12.7-8.9-24.4-17.8-33.4c-0.8-0.9-1.8-2-1.7-3.2c3.1,0.8,6.5,3.4,9.2,5.2c3.4,2.1,6.7,4.3,9.7,6.9
		c5.5,4.6,10.8,10.6,11.9,18c2.2,14.1,6.1,14.9,4.2,29.1c-0.5,3.8-2.8,7.2-3.5,11c-1.1,5.3-1.4,10.2-3.3,15.2
		c-0.1,0.3-0.3,0.6-0.4,1c-0.1,0.4-0.3,3-0.9,2.8c2.5,0.8,14.8,3.2,15.4-1.2l0.4-2.5l3-17c3-16.7,3.4-33.4-4.2-49
		c-1.6-3.3-4.4-9.7-6.6-11.7c0.3,0.2,0.5,0.5,0.8,0.7c4.1,3.9,8,7.6,11.1,12.5c3.6,5.7,6.7,12.1,9.1,18.4c0.2,0.5,0.3,1,0.5,1.5
		c0.7,2,1.2,4.1,1.7,6.2c0.8,4.2,1.3,8.4,1.3,12.6c-0.1,4.2-0.5,8.4-1.5,12.5c-0.3,1.2-0.6,2.5-1,3.7c0.4-0.1,0.7-0.2,1.1-0.3
		c1.1-0.4,2-1.2,2.7-2s1.4-1.8,1.9-2.7c0.5-1,0.9-2,1.3-3c0.2-0.5,0.3-1,0.5-1.6C839.8,683.6,838.4,668,831.8,654.9z M694.8,623.1
		L694.8,623.1c0.1,0,0.1-0.1,0.2-0.1C694.9,623,694.8,623.1,694.8,623.1z"/>
	<path class="st4" d="M300.1,627c-1-0.4-1.9-0.8-2.9-1.2c-4-1.6-7.4-4.4-11.3-6.3c-4-2-8.2-3.6-12.5-4.9c-8.5-2.6-17.4-3.9-26.3-4.8
		c-1.1-0.1-2.2-0.2-3.2-0.1c-2.8,0.2-5.4,1.4-8.2,1.9c-2.5,0.4-5.1,0.3-7.6,0.4c-3.9,0.2-7.7,0.6-11.6,1.3c-7.6,1.3-15.3,3.4-22,7.2
		c-1.7,0.9-3.2,2.1-4.6,3.3c-0.6,0.5-1.2,1.1-1.8,1.6l-5.8,2.6l0,0c-3.9,1.9-7.6,4.2-10.9,6.9c-3.4,2.7-6.5,5.8-9.2,9.1
		c-2.7,3.4-5.1,7-7.1,10.9c-6.6,13.2-8,28.7-4.1,42.9c0.1,0.5,0.3,1.1,0.5,1.6c0.3,1,0.8,2.1,1.3,3c0.5,1,1.1,1.9,1.9,2.7
		c0.7,0.8,1.6,1.6,2.7,2c0.4,0.1,0.7,0.3,1.1,0.3c-0.4-1.2-0.7-2.5-1-3.7c-0.9-4.1-1.4-8.3-1.5-12.5c0-4.2,0.5-8.4,1.3-12.6
		c0.4-2.1,1-4.2,1.7-6.2c0.2-0.5,0.3-1,0.5-1.5c2.4-6.3,5.5-12.7,9.1-18.4c3.1-4.9,7-8.6,11.1-12.5c0.3-0.2,0.5-0.5,0.8-0.7
		c-2.1,2-5,8.3-6.6,11.7c-7.6,15.6-7.1,32.3-4.2,49l3,17l0.4,2.5c0.6,4.4,12.9,2,15.4,1.2c-0.6,0.2-0.9-2.4-0.9-2.8
		c-0.1-0.3-0.2-0.6-0.4-1c-2-5-2.3-9.9-3.3-15.2c-0.8-3.8-3-7.2-3.5-11c-1.9-14.1,2-15,4.2-29.1c1.1-7.4,6.3-13.3,11.9-18
		c3-2.5,6.3-4.8,9.7-6.9c2.8-1.7,6.1-4.3,9.2-5.2c0.2,1.2-0.8,2.4-1.7,3.2c-8.9,9-16,20.8-17.8,33.4c-1.9,13.6,0.5,28,6.6,40
		c1.3,2.5,2.8,5,3.4,7.9c0,0.1,0,0.1,0,0.2c0.5,0,1,0,1.5,0c0.2,0,0.5,0,0.7-0.1c0.3,0,0.5,0,0.8-0.1c1.4-0.2,2.8-0.3,4.3-0.4
		c1.2-0.1,2.4-0.2,3.7-0.4c1-0.1,2-0.2,2.9-0.4c7.3-1.2,14-3.5,17-11.1c1.4-3.6-0.5-6.8-1.7-10.2c-1.1-3.2-2.2-6.5-2.7-9.8
		c0-0.2-0.1-0.5-0.1-0.7c-0.1-0.3-0.2-0.7-0.2-1c-0.1-0.4-0.1-0.7-0.2-1.1c0-0.1,0-0.1,0-0.2c0-0.5-0.1-1-0.1-1.6s0-1.1-0.1-1.7
		c0-0.6,0-1.2,0-1.8c0-0.1,0-0.3,0-0.4c1.2-20,9.3-39.7,28-49.5c2-1,4.1-1.9,6.3-2.6l0.8-0.2l0.4-0.1l0.4-0.1l1.2-0.3l0.8-0.2
		l0.4-0.1h0.2h0.1l0,0l0,0l-2.2,1.9c-0.4,0.4-0.9,0.7-1.3,1.1c-3.3,3-6.3,6.4-9,10.1c-2.6,3.6-4.9,7.6-6.7,11.7
		c-3.6,8.3-5.2,17.4-4.5,26.4c0.4,5.7,1.6,11.3,3.7,16.7c1.1,2.8,2.3,5.6,3.8,8.2c1,1.7,2.2,4.7,4.1,5.5c1,0.4,2.1,0.2,3.2,0.2
		c5.5-0.5,11.2,1.3,16.6,0.1c3.5-0.8,6.2-2.9,8.8-5.2c0.3-0.3,0.6-0.6,0.9-1c0.6-0.7,1.2-1.5,1.8-2.2c0.1-0.2,0.2-0.3,0.4-0.5
		c0-0.3,0-0.6,0-1l0,0c0-0.2,0-0.3,0-0.5v-0.1c0-0.2,0-0.4,0-0.7c0-0.1,0-0.2,0-0.3s0-0.2,0-0.3c0-0.2,0-0.3,0-0.5
		c0-0.1,0-0.2,0-0.3s0-0.3,0-0.4c0-0.1,0-0.2,0-0.2c0-0.2,0.1-0.4,0.1-0.6v-0.1c0-0.2,0.1-0.4,0.1-0.5s0-0.1,0-0.2
		c0-0.2,0.1-0.4,0.1-0.6l0,0c0-0.2,0.1-0.4,0.2-0.6c0-0.1,0-0.1,0-0.2c0.1-0.2,0.1-0.4,0.2-0.6c0.7-2.1,1.9-4,3.1-5.9
		c0.2-0.9,0.4-1.8,0.6-2.8c0.2-0.8,0.3-1.6,0.5-2.3c0,0,0,0,0,0.1c0,0,0,0,0-0.1v-0.1v0.1c0-0.2,0.1-0.4,0.1-0.6
		c0-0.1,0-0.2,0.1-0.3c0-0.1,0-0.2,0-0.3c0-0.5-0.1-0.9-0.2-1.4v-0.1c-0.1-0.3-0.1-0.5-0.2-0.8c-0.1-0.4-0.2-0.8-0.3-1.2l0,0
		c0.7-1.4,1.5-2.9,2.4-4.2c0.9-1.2,1.8-2.2,2.9-3.2c0.6-0.4,1.1-0.9,1.7-1.3c0.3-0.2,0.6-0.4,0.9-0.6c0.3-0.2,0.6-0.3,1-0.5
		c4-1.9,8.3-1.9,12.5-0.7c0.1,0,1,0.3,1,0.3l-0.8-0.6l-1.6-1.2l-0.9-0.7c-0.6-0.4-1.2-0.9-1.8-1.3c-2.4-1.7-5-3.2-7.7-4.2
		c-1.4-0.5-2.8-0.9-4.3-1c-0.7-0.1-1.4-0.1-2.1-0.1c0.1-0.1,0.2-0.2,0.2-0.3c0.4-0.6,0.9-1.1,1.5-1.6c0.1-0.1,0.3-0.3,0.4-0.4
		c0,0,0,0,0.1-0.1c0.4-0.4,0.9-0.8,1.4-1.2c0-0.1,0.1-0.1,0.1-0.2v0.1c8.1-6.2,18.9-3.5,25.7,3.2c5.6,5.5,8.8,12.9,12.1,20
		c0.3,0.7,0.7,1.4,1.3,1.9c1.5,1.2,3.7,0.5,5.5,0.9l0,0C338.9,653.1,320.6,635.8,300.1,627z M291.9,623l0.1,0.1l0,0L291.9,623z"/>
	<ellipse class="st4" cx="588" cy="205" rx="6.3" ry="5.1"/>
	<ellipse class="st4" cx="411.6" cy="205" rx="6.3" ry="5.1"/>
</g>
<g>
	<path class="st5" d="M597.4,215.7c-0.8-0.8-1.5-1.7-2.1-2.7c-2.8,4.1-7.4,6.8-12.7,6.8c-6.5,0-12.1-4.1-14.3-9.9
		c-1-0.2-2.1-0.5-3-1c0,0.2,0,0.4,0,0.5c0,9.4,7.6,17.1,17.1,17.1c7,0,13-4.2,15.7-10.3C597.8,216,597.6,215.9,597.4,215.7z"/>
	<path class="st5" d="M418.9,213c-2.8,4.1-7.4,6.8-12.7,6.8c-6.5,0-12.1-4.1-14.3-9.9c-1-0.2-2.1-0.5-3-1c0,0.2,0,0.4,0,0.5
		c0,9.4,7.6,17.1,17.1,17.1c7,0,13-4.2,15.7-10.3c-0.2-0.1-0.4-0.3-0.6-0.5C420.1,214.9,419.4,214,418.9,213z"/>
</g>
</svg>
