<?xml version="1.0" encoding="utf-8"?>
<!-- Generator: Adobe Illustrator 24.0.1, SVG Export Plug-In . SVG Version: 6.00 Build 0)  -->
<svg version="1.1" id="Layer_1" xmlns="http://www.w3.org/2000/svg" xmlns:xlink="http://www.w3.org/1999/xlink" x="0px" y="0px"
	 viewBox="0 0 990 781.2" style="enable-background:new 0 0 990 781.2;" xml:space="preserve">
<style type="text/css">
	.st0{fill:#E4706B;}
	.st1{fill:#535459;}
	.st2{fill:#FFFFFF;}
	.st3{fill:#BBBBBA;}
</style>
<g>
	<path d="M207.6,732.6c-0.3,1.3-0.5,2.1-0.6,2.9c-0.5,4.1-2.6,7.3-5.1,10.4c-1.3,1.6-3.1,1.7-4.8,1.2c-5.2-1.4-9.8-3.8-13.5-7.8
		c-3.9-4.3-7.8-8.5-10.7-13.5c-0.8-1.4-2-2.5-3.4-3.3c-7.3-4.1-12.2-10.5-16.4-17.4c-0.3-0.5-0.6-1.1-0.9-1.7
		c-3-7.7-5.1-15.6-4.5-24.1c0.5-6.8,1.3-13.5,3.2-20.1c2-6.9,5.4-12.9,10.7-17.9c1.5-1.4,3-2.9,4.6-4.2c6.7-5.1,13.1-10.8,20.2-15.4
		c0.8-0.5,1.3-1.1,1.6-2c2.6-8,5.4-15.9,8.6-23.6c0.2-0.4,0.5-0.9,0.1-1.5c-1-0.2-1.7,0.5-2.5,1c-3.3,1.9-6.4,4-9.9,5.4
		c-1.7,0.7-3.4,1.3-5.3,1.3c-4.7,0-7.6-4.2-5.7-8.6c0.7-1.7,1.8-3.2,3-4.6c4.2-5.3,8.3-10.6,12.6-15.7c7.8-9.4,13.5-20.2,19-31
		c4.6-8.9,8.2-18.2,10.6-27.9c0.8-3.2,1.8-6.3,3.4-9.2c0.6-1,0.7-2,0.5-3.2c-0.5-2.8-0.6-5.7-0.8-8.6c-0.1-2.1-0.3-2.2-2.2-1.6
		c-4.9,1.4-8.9-0.6-10.9-5.3c-1.2-2.8-1.6-5.9-1.9-8.9c-1.4-14.7-0.3-29.2,4.1-43.4c2.1-6.9,5.2-13.4,8.8-19.6
		c0.4-0.6,1.1-1.2,0.7-1.9c-0.5-0.9-1.4-0.4-2.2-0.3c-3.7,0.5-7.5,0.6-11.3,0.4c-1.9-0.1-3.8-0.5-5.5-1.4c-5-2.6-6.3-8.3-2.8-12.7
		c1-1.3,2.3-2.2,3.6-3.2c1.5-1.2,3.1-2.3,4.6-3.4c0.9-0.7,1.4-1.4,1-2.7c-0.9-2.7-0.6-5.4,0.2-8c1.3-4.2,1.6-8.5,1.8-12.8
		c1.2-23.5,9-44.8,21.6-64.5c2.1-3.3,4.4-6.5,7.1-9.4c0.8-0.8,1.3-1.8,1.7-2.8c0.7-2,0.7-3.5-1.2-5.1c-3-2.5-3.5-5.9-2.4-9.6
		c1.5-4.9,3.8-9.5,6.4-13.9c5.3-9,12.1-16.7,19.6-23.8c2.3-2.2,4.7-4.4,7-6.6c1.6-1.6,1.6-1.9,0.1-3.6c-1.3-1.4-2.6-2.8-4-4.2
		c-2-2-3.1-4.4-3.5-7.2c-0.4-2.7,0.7-4.8,2.9-6.4c1.5-1.1,3.3-1.6,5.1-2c2-0.5,4-1.2,5.7-2.4c1.1-0.8,2.3-1.1,3.5-1.5
		c3.3-1,5.1-3.7,6.9-6.4c0.6-0.8,0.3-1.8,0.1-2.8c-1.3-5.6-2-11.4-1.6-17.1c0.8-11.9,3.1-23.4,7.7-34.5c1.4-3.3,3.1-6.5,5.3-9.4
		c2.2-2.9,4.9-5.3,8.3-6.6c2-0.8,3-2.2,3.5-4.2c1.1-4.8,2.2-9.5,3.4-14.2c1.1-4.7,2.6-9.2,4.6-13.6c5.5-12.2,12.2-23.7,21.1-33.9
		c3.2-3.7,6.3-7.4,9.6-11.1c4.5-5.2,9.7-9.6,15.7-12.8c6.1-3.3,12.5-4.8,19.4-3.9c5,0.7,9.3,2.9,12.8,6.5
		c13.2,13.5,24.9,28.2,34.7,44.3c5.6,9.2,9.7,19.1,12.8,29.4c0.1,0.4,0.2,0.8,0.4,1.1c0,0.1,0.2,0.2,0.4,0.5
		c1.4-0.6,2.5-1.6,3.5-2.7c1.6-1.6,3.4-2.9,5.5-3.8c3.6-1.6,6-0.3,6.6,3.5c0.2,1.4,0.6,2.6,1.2,3.8c1.1,2.1,1.5,4.4,1.9,6.7
		c0.8,4.4,2.3,8.5,4.7,12.2c1.8,2.8,2.4,3.1,5.7,2.5c1.9-0.3,3.8-0.5,5.7-0.7c1.9-0.2,3.7,0.2,5.4,1c4.5,2.1,9,1.8,13.5-0.1
		c2.3-1,4.7-2.1,7-3.1c4.4-1.8,9-2.8,13.8-2.3c1.9,0.2,2.3,0,2.7-1.9c1.1-5.2,4-9.6,6.7-14c0.9-1.5,2.3-2.5,4.1-2.6
		c0.9-0.1,1.7-0.4,2.2-1.2c3.4-4.9,7.7-9,11.1-13.8c1.9-2.8,3.9-5.5,5.8-8.2c7.8-10.8,11.7-23.2,13.9-36.1c0.6-3.7,1.9-7.1,4.9-9.6
		c2.1-1.8,4.4-2.8,7.2-2.6c1.4,0.1,2.7-0.1,4-0.6c7.4-2.9,14.8-2.7,22.3-0.6c23.1,6.7,42.3,19.4,57.9,37.5
		c7.6,8.8,14.4,18.2,19.4,28.8c4.2,8.9,6.7,18.3,8.9,27.8c1.7,7.6,2.5,15.3,4.4,22.8c0.1,0.5,0.3,1.1,0.3,1.6
		c0.1,1.1,0.8,1.3,1.7,0.9c1.1-0.5,2.2-0.8,3.5-0.9c5-0.3,8.9,3.9,8.2,8.9c-0.3,2.2-1.2,4.1-2.4,6c-2,2.9-4,5.8-5.9,8.7
		c-1.4,2-1.3,2.2,0.8,3.1c5.6,2.4,10.5,5.8,14.5,10.3c1.7,2,3.8,3.6,5.7,5.5c2.1,2,4,4.2,4,7.4c0,1.1,0.9,1.8,1.9,2.3
		c1.6,0.8,3.1,1.6,4.6,2.6c7.7,4.9,12.2,12.1,13.8,21c0.7,3.7-0.7,6-4.2,7.3c-1,0.4-2,0.6-3,1c-0.8,0.3-1,0.8-0.5,1.4
		c0.1,0.1,0.2,0.2,0.3,0.4c6.3,6.6,12,13.8,18.8,19.9c1.1,1,2,2.1,2.7,3.3c1.2,2.3,1.5,4.6,0.2,6.9c-0.6,1.1-0.7,2-0.2,3.2
		c0.9,2.5,0.9,5,0.7,7.6c-0.1,2,0,3.9,1.8,5.2c0.3,0.2,0.5,0.6,0.6,1c1.8,4.7,4.1,9.2,4.6,14.3c0.2,1.8,0.8,3.4,1.4,5.1
		c5.1,13,6.8,26.6,6.5,40.5c0,2.3-0.3,4.6-1,6.9c-0.5,1.7-0.2,3.1,0.7,4.5c8.3,13.5,14.1,28.1,18,43.5c1.6,6.2,2.7,12.5,4.1,18.7
		c0.3,1.2,0.3,2.4,0.3,3.6c-0.1,5.1-2.9,8.4-7.8,9.4c-2.1,0.4-2.2,0.6-1.2,2.4c7.8,14.8,12.9,30.6,16.9,46.8c0.7,3,1.1,6,1.3,9
		c0.8,17.4,0.5,34.9,0.4,52.3c0,0.2,0,0.5,0,0.7c-0.2,2.1-0.4,2.3-2.5,1.5c-1.3-0.5-2.5-0.9-3.8-1.4c-0.8-0.3-1.5-0.5-2.5-0.2
		c0.2,1.5,0.9,2.7,1.5,4c8.4,17.2,16.6,34.6,24.6,52c2.4,5.2,5.3,10.2,8.2,15.2c2,3.4,3.8,6.9,4.9,10.7c0.6,2,1,4,0.8,6.1
		c-0.2,2.9-1.5,5.2-4.1,6.6c-1.4,0.8-1.4,0.8-0.5,2.3c2.1,3.3,4.2,6.6,6.1,10.1c1.6,3,3,6.2,4,9.5c1.2,4.2,0.6,8.4-0.1,12.6
		c-1.3,7.6-3.6,14.9-6.3,22.1c-0.9,2.3-2.3,4.4-3.8,6.4c-3.5,5.1-7.5,9.8-13,12.8c-2,1.1-3.6,2.6-4.7,4.6c-2.9,5-6.8,9.1-10.7,13.2
		c-3.5,3.8-8.1,6-13,7.3c-2.5,0.7-3.9-0.2-5.6-2.2c-2.9-3.4-4.2-7.5-4.7-11.7c-0.9-0.3-1.2,0.3-1.6,0.6c-1.3,1.3-2.6,2.6-4,3.8
		c-1.4,1.4-2.9,2.7-4.6,3.8c-3.5,2.2-7.1,1.4-9.1-2.3c-2-3.6-3.2-7.6-2.8-11.7c0.4-3.8-1.3-5.7-4.3-7c-0.8-0.4-1.6-0.8-2.4-1.1
		c-3.7-1.6-6-4.3-7.3-8.1c-0.8-2.4-1.5-2.5-3.3-0.6c-1.7,1.8-2.6,4-3.3,6.3c-1.8,5.5-4.7,10.1-9.3,13.7c-4,3.1-8.3,2.2-11-2.1
		c-1.8-2.8-2.7-6-3-9.3c-0.2-2.2-1.2-3.7-3.1-4.7c-5.1-2.6-8.8-6.8-12.8-10.8c-1-1-1.7-2.1-2.2-3.4c-0.3-0.7-0.7-1-1.5-1
		c-0.6,0-1.1,0-1.7,0c-133.2,0-266.3,0-399.5,0c-0.6,0-1.3,0-1.9,0c-0.5,0-0.9,0.2-1.1,0.7c-1.8,4.3-5.6,6.9-8.8,10
		c-1.6,1.6-3.5,3.1-5.6,4c-2.5,1.1-3.7,3-3.9,5.8c-0.2,2.9-1.1,5.6-2.6,8.2c-0.5,0.9-1.1,1.8-1.9,2.5c-2.6,2.3-6,2.5-8.8,0.5
		c-4.8-3.5-8-8.2-9.8-13.9c-0.7-2.1-1.4-4.3-2.9-6c-0.3-0.4-0.6-0.7-1-1.1c-1.5-1.3-2.1-1.2-2.7,0.6c-1.3,4.3-4,7.2-8.1,8.9
		c-1.4,0.6-2.7,1.5-4,2.2c-1.5,0.9-2.2,2.1-2,4c0.3,4-0.4,7.8-1.9,11.5c-0.4,1.1-1,2.2-1.7,3.1c-2.2,2.6-5,3.1-7.9,1.4
		c-2.2-1.3-4.1-3.1-5.9-4.9C210.7,735.6,209.3,734.3,207.6,732.6z"/>
</g>
<g>
	<path class="st0" d="M539.1,546.1c-0.7-3.4-2-6.7-2.1-10.1c-0.1-3.9,0.1-7.6-2.1-11.1c-0.6-0.9-0.9-1.7-1.8-2.3
		c-3.8-2.5-7.2-5.4-10.1-8.8c-0.6-0.7-1.3-1.4-2.1-1.9c-2.7-1.8-5.4-3.5-7.2-6.8c-1.2,1.6-2.8,1.6-3.7,2.8
		c-3.2,4.3-6.2,8.8-7.5,14.1c-0.9,3.7-1.5,7.5-1.6,11.4c-0.1,4.2,0,8.5-0.8,12.7c-0.5,2.4-2,3.8-3.8,3.5s-2.7-1.8-2.4-4.3
		c0.2-1.7,0.5-3.5,0.4-5.3c-0.3-5.6-0.1-11.2-0.1-16.8c0-7.2-4.6-14-11.3-16.7c-4-1.6-4-1.6-6.6,1.8c-0.6,0.8-1.2,1.5-1.7,2.3
		c-3.9,5.4-8.8,9.7-14.5,13.2c-1.8,1.1-3.8,2.1-5.8,2.9c-0.7,0.3-1.3,0.5-1.1,1.5c0.4,2.4-0.2,4.8-0.6,7.1
		c-1.1,6.1-2.5,12.2-2.9,18.5c-0.3,3.9-0.2,7.8,0.9,11.6c3.2,11.1,14.8,22.3,27.4,24.3c5.4,0.9,10.7,1.8,16.1,2.4
		c8.8,1,17.2,0.1,25.4-3.3c8.2-3.4,15.5-7.9,19.9-16.1c2-3.8,3-7.8,2.5-12C541.4,555.9,540.1,551,539.1,546.1z"/>
</g>
<g>
	<path class="st1" d="M441.7,530.4c-1.3,0.3-2.7,0.5-4,0.7c-5.4,1.1-10.8,1.2-16.1-0.6c-0.3-0.1-0.6-0.2-1.2,0.2
		c0.9,2.4,2.8,3.8,4.7,5.1c5.4,3.7,9.2,8.6,12,14.4c0.6,1.3,1.3,2.6,2,3.8c0.4,0.7,0.7,1.6,1.7,1.4c1.1-0.2,0.7-1.3,0.7-2
		c0.1-6.3,0.6-12.4,2.2-18.5c0.3-1,0.2-2,0-3.1C443.5,530.7,443,530.1,441.7,530.4z"/>
	<path class="st1" d="M538.9,418.7c-0.9-2.4-2.1-4.5-4.4-5.8c-5.3-2.9-10.5-5.8-16.6-6.5c-0.8-0.1-1.7-0.2-2.5-1
		c5.3-1.3,10.4-0.6,15.9-0.3c-0.5-0.6-0.7-0.8-1-1c-0.1-0.1-0.2-0.2-0.3-0.3c-0.4,0.2-0.6,0-0.8-0.5c-0.4-0.2-0.6-0.4-0.7-0.7
		c-2.5-1.9-5.3-3.2-8.4-4.1c-4.8-1.3-9.6-2.3-14.7-2c-4.7,0.3-9.4,0.2-14.1,0.1c-3.1-0.1-6.1-0.2-9.1,0.3
		c-7.1,1.1-13.7,3.1-18.9,8.5c-0.6,0.6-1.5,1-1.7,2.1c2.6-0.6,5.1-0.4,7.7-0.2c3.7,0.4,7.3,0.4,11-0.4c0.8-0.2,1.7-0.4,2.6-0.2
		c-0.2,0.5-0.7,0.5-1,0.6c-6.9,1.6-12.6,5.8-19.2,8.1c-2,0.7-3.8,1.7-5.9,1.7c-1,0-1.4,0.5-1.7,1.4c-0.6,1.8-0.9,3.6-0.8,5.4
		c0.2,3.9,0.5,7.8,1.3,11.7c0.2,1.2,0.1,2.4,0.3,3.6c0.2,0.9,0.4,1.6,1.7,1.4c4.7-0.8,8.7-3.1,12.8-5.5c-0.5-0.8-0.9-1.4-1.3-2.1
		c-2.2-3.8-1.8-8,0.9-11.4c1-1.2,2.1-2.2,3.4-3c5.4-3.5,11.9-1.7,14.9,4c1.2,2.4,1.8,5,1.9,7.6c0.4,7.9-3.4,12.4-11.3,13.1
		c-3.2,0.3-6.1,1.1-9,2.4c-2.8,1.4-5.8,2.4-9,2.2c-0.1,0-0.2,0.2-0.3,0.3c1.8,2.6,4.3,4.8,8.6,6.7c7.1,3.1,14,6.7,20.9,10.2
		c0.7,0.3,1.3,0.9,2.3,0.7c0.5-2.1,0.9-4.2,1.5-6.3c1.2-4.1,2.5-8.1,2.6-12.4c0-1.1,0.3-2.2,1.3-2.9c0.7,0.6,0.6,1.4,0.7,2.1
		c0.4,4.8,1.7,9.3,3.5,13.7c0.4,1,0.8,2.1,1.1,3.2c0.6,2.4,0.7,2.5,2.8,1.4c6.4-3.4,12.8-6.6,19.4-9.4c3-1.3,5.8-3.2,8-5.7
		c0.3-0.4,1-0.7,0.5-1.5c-2.1,0.2-4.3,0-6.3-1c-4.5-2.1-9.2-3.5-14.2-4c-4.3-0.4-7.1-3.2-8.2-7.4c-1.2-4.5-0.8-8.9,1.4-13.1
		c3-5.6,9.3-7.3,14.7-4c1.2,0.8,2.3,1.7,3.3,2.8c3,3.5,3.4,7.8,1.1,11.8c-0.4,0.7-1.1,1.2-1.1,2.2c3.9,2,7.7,4.5,12.3,5.2
		c1.5,0.2,1.9,0.1,2.1-1.3c0.2-1.1,0.1-2.2,0.3-3.3c0.6-3.4,0.8-6.8,1.2-10.2c0.1-1.3,0-2.5-0.6-3.7
		C539.6,420.8,539.3,419.8,538.9,418.7z"/>
	<path class="st1" d="M529.2,403.2c0,0.1,0,0.1,0,0.2c0.1,0,0.1,0,0.2,0C529.3,403.3,529.2,403.2,529.2,403.2z"/>
	<path class="st1" d="M563.2,531.9c-6.1-0.5-12-1.8-17.8-3.5c-0.5-0.2-1-0.5-1.8-0.2c0,0.9,0.4,1.6,0.6,2.4c0.6,1.9,1.2,3.8,1.4,5.8
		c0.3,5.5,1.8,10.7,3.2,15.9c0.1,0.4,0.1,1,0.8,1c1.2-0.4,1.6-1.5,2.1-2.5c1.6-3.1,3.7-5.7,6.4-8c1.4-1.2,2.8-2.4,4.1-3.7
		c1.6-1.5,2.5-3.3,2.6-5.5C564.8,532.2,564.7,532.1,563.2,531.9z"/>
</g>
<g>
	<path class="st2" d="M419.5,674.7c-0.8-0.4-2.1-7-2.4-7.6c-0.3-0.7-1.6-0.1-2.2,0.1c-0.7,0.3-6.6,2.8-7.9,2.8
		c-0.9,0-5.9,1.7-8.9,2.7c-1.3,1.1-2.7,2.2-4.2,3c-0.7,0.4-1.6,1.2-2.3,0.2c-0.7-1,0.5-1.5,1.1-2c2.8-2.3,5.5-4.8,7.9-7.5
		c0.6-0.9,1.3-1.9,2-2.9c-0.2,0.2-0.3,0.3-0.3,0.3l0.8-2.6l0.7-2.2c-0.3,0.2-0.5,0.4-0.5,0.4s-2.9,0.5-4.2,0.5
		c-1.3,0-3.7-1.7-5.1-3.2s-4.6-4.1-5.9-5.8s-3-5.9-3.3-10.9c-0.1-2,0.6-4.3,1.5-6.3c-0.2-0.8-0.3-1.6-0.4-2.4c0-0.5-0.1-0.9-0.2-1.4
		c0-0.1-0.1-0.3-0.1-0.4c-3.9,1.7-10.6,4.7-15.8,6.7c-7.9,2.9-27.3-6.1-29.3-11.2c-1.1-2.9,0.3-7.4,1.7-10.9
		c-6.9,4.2-14.1,7.8-21.7,10.5c-3,1.5-8.4,4.1-10.9,5.2l0.8,0.6c0.3,0.2,0.6,0.5,0.9,0.7l0.9,0.7l1.8,1.5c0.6,0.5,1.2,1,1.7,1.6
		l0.9,0.8l0.4,0.4l0.4,0.4c1.1,1.1,2.2,2.1,3.3,3.3c0.5,0.6,1.1,1.1,1.6,1.7l1.6,1.7c0.3,0.3,0.5,0.6,0.8,0.9l0.8,0.9l1.5,1.8
		c1,1.2,2,2.4,2.9,3.6c2.5,3.1,4.8,6.3,7,9.6c0,0.1,0.1,0.1,0.1,0.2c0.6,0.7,1.1,1.4,1.6,2.2c0.2,0.3,0.3,0.5,0.5,0.8
		c0.5,0.7,1,1.4,1.5,2.1c1.7,2.5,3.4,5,5.3,7.5c0.2,0.3,0.4,0.5,0.6,0.8c0,0,0,0,0.1,0.1s0.3,0.3,0.4,0.4c0.3,0.3,0.7,0.6,1,1
		c0.9,0.7,1.7,1.4,2.7,2.1c0.2,0.1,0.4,0.3,0.6,0.4h3.8h66.8l0,0c0-0.4-0.1-0.8-0.1-1.2C420.7,675.4,419.9,674.9,419.5,674.7z"/>
	<path class="st2" d="M580.2,375.3c0.1,0,0.2,0.1,0.3,0.1c0-0.1-0.1-0.1-0.1-0.2C580.3,375.3,580.3,375.3,580.2,375.3L580.2,375.3z"
		/>
	<path class="st2" d="M449.3,341.9c-0.8-4.6-2.8-8.8-5.2-12.7c-0.3-0.4-0.4-1.1-1.4-1c1.5,7.2-1,13.2-6,18.6c4-1.3,8-1.9,11.8-3.3
		C449.4,343.2,449.5,342.8,449.3,341.9z"/>
	<path class="st2" d="M596.9,488.9c2-5,4.1-9.9,6.7-14.6c1.5-2.8,2.3-5.9,3.1-9.1c0.3-1,0-1.7-0.7-2.3c-1.3-1.2-2.3-2.7-3-4.3
		c-0.5-1-0.8-2.1-0.9-3.2v-0.1c-0.1-0.1-0.2-0.2-0.2-0.3c-0.5-0.5-0.9-1.1-1.2-1.8c-0.2-0.3-0.4-0.6-0.5-1c-0.3-0.7-0.5-1.3-0.7-2
		c-0.1-0.5-0.1-0.9-0.1-1.4s0.1-0.9,0.2-1.4c0-0.2,0.1-0.5,0.2-0.7c0.1-0.3,0.2-0.7,0.3-1s0.3-0.7,0.5-1c0.4-0.7,0.8-1.3,1.4-2
		c1.1-1.3,2.5-2.5,4-3.4c0.8-0.5,1.6-0.9,2.5-1.3c2.6-1.1,5.5-1.6,8.2-1c1.8,0.4,3.6,0.3,5.5,0.3c0.7,0,1.3-0.1,1.9-0.2
		c0.9-0.2,1.8-0.5,2.7-0.9c0.6-0.3,1.1-0.6,1.6-1c0.3-0.2,0.5-0.4,0.8-0.6c3.1-2.5,5.1-5.7,6.3-9.4c0.2-0.5,0.3-1.1,0.5-1.6
		c0.1-0.5,0.2-1,0.3-1.5c0.1-0.7,0.1-1.5,0.3-2.2c0.1-0.5,0.2-1,0.3-1.4c0.1-0.2,0.2-0.5,0.3-0.7c0.1,0,0.3,0,0.4,0
		c0.1,0,0.2,0,0.3,0.1c0.2,0.1,0.4,0.2,0.6,0.3c0.2,0.1,0.4,0.2,0.6,0.3c0.6,0.3,1.2,0.5,1.9,0.6c0.2,0,0.4,0,0.6,0.1
		c0.4,0,0.9,0,1.3-0.1c0.2,0,0.4-0.1,0.7-0.1c0.3-0.1,0.5-0.1,0.7-0.1c0.1,0,0.2,0,0.3,0c0.4,0.1,0.7,0.4,1,0.8
		c0.1,0.1,0.2,0.3,0.3,0.5s0.2,0.3,0.3,0.5s0.3,0.3,0.5,0.4s0.5,0.2,0.8,0.1c-0.1-1.5,0-3.1,0.1-4.6s0.3-3,0.4-4.5
		c0-0.3,0-0.6-0.1-0.9c-1.5-5.8-4-10.8-7.9-14.8c-1.8-1.8-3.9-3.4-6.4-4.7c-1.8-0.9-2.8-2.1-3.5-4c-0.2-0.4-0.3-0.8-0.5-1.3
		c-0.2-0.4-0.4-0.8-0.6-1.2c-0.4-0.8-0.8-1.6-1.3-2.3c-1-1.5-2.3-2.7-4-3.6s-3.5-1.8-5.4-2.2c-0.6-0.2-1.3-0.3-2-0.3
		c-0.5,0-1-0.1-1.5-0.3s-0.9-0.4-1.4-0.7c-0.3-0.2-0.5-0.4-0.8-0.5c-0.1-0.1-0.3-0.1-0.5-0.1s-0.3,0-0.5,0c-0.8,0.1-1.7,0.3-2.5,0.4
		c-1.2,0.2-2.5,0.4-3.7,0.6s-2.4,0.6-3.6,1c-5,1.8-10,3.4-15,5.2c0.2,1.3,0.1,2.7-0.4,4.2c-0.7,2.1-1.6,4.2-3,5.9
		c-0.8,1-1.7,1.7-2.9,2c-0.7,0.2-1.3,0.1-1.8-0.4s-0.4-1.1-0.2-1.8c0.7-1.9,0.8-1.9-0.7-3c-1.4-1-2.5-2.5-4.1-3.3
		c-0.9-0.5-1.7-0.8-2.4,0.3c-0.7,1-1.8,1.2-3,1.2c-2,0-3.8-0.5-5.6-1.2c-0.7-0.3-1.3-0.9-2.2-0.7c-0.4,0.7-0.2,1.4-0.3,2.1
		c-0.4,1.9-1.7,3.2-3.5,3.4c-1.7,0.2-3.5-0.7-4.1-2.4c-0.8-2.3-1.7-4.7-1.7-7.2c0-2,0.7-3.7,2.3-5c0.6-0.5,1.2-1,1.5-1.8
		c0.2-0.4,0.4-0.7,0.6-1c-1.1-0.8-1.9-1.8-2.7-3.1c-1-1.6-1.9-3.3-2.7-5.1c-0.7-1.6-1.5-3.2-1.8-4.9c-2.7-2.5-4.9-5.5-6.6-9
		c-0.7-1.5-1.6-2.6-3.5-3.2c-3.1-0.9-4.8-3.9-4.5-6.9c0.2-2,1.3-3.7,3.1-4.8c-0.1,0-0.3,0.1-0.4,0.1c-6.4,2.1-12.6-1.6-15.2-6.5
		c-0.8-1.6-1.5-3.4-1.9-5.2c-0.2-0.9-0.2-1.9-0.9-2.6c-4.4,3.1-8.2,2.1-10.7-2.7c-0.2-0.4-0.4-0.7-0.5-1.1
		c-1.9-3.8-5.8-5.7-10.1-5.1c-1.8,0.2-3.6,0.5-5.4,0.2c-2.4-0.4-3.3,0.5-4.1,2.8c-1.7,4.9-3.9,9.5-8.3,12.6
		c-0.8,0.5-1.3,1.3-1.8,2.2c-1,2.4-4.6,2.9-6.4,0.9c-1.9-2-3.9-3.7-6-5.4c-1.3-1.1-2.7-2-4.4-2.4c-2.9-0.6-3-1.4-4.9,1.6
		c-0.2,0.3-0.4,0.5-0.6,0.7c-1.1,0.8-1.2,1.8-0.5,2.9c0.4,0.5,0.6,1.1,0.9,1.7c0.9,2.5,2,4.9,2,7.5c1.3,0.8,1.8,2.4,2,4
		c0.2,2.2-0.1,4.5-0.6,6.7c-0.2,1.1-0.8,2.1-1.6,2.9c0.1,1.2,0,2.5-0.5,3.8c-0.7,1.9-1.6,3.7-2.8,5.2c-3.4,4.3-7,8.3-11,12
		c-0.9,0.8-1.9,1.5-3,2.1c0.7,0.6,1.6,1,1.4,2.1c-0.2,1.2-1.1,1.9-1.7,2.9c-1.8,2.6-2.9,5.5-3.8,8.5c-0.5,1.9-1.4,3.6-2.6,5.1
		c-1.8,2.1-4.1,1.9-5.5-0.4c-1-1.7-1.4-3.6-1.4-5.5c0-1-0.4-1.4-1.4-1.4c-2.9-0.2-4.7-1.9-5.4-4.7c-0.3-1.2-0.8-1.6-2-1.4
		c-1.1,0.2-2.2,0.4-3.3,0.6c-2.1,0.4-4.2,0.3-6-1c-1-0.7-1.6-1.8-1.7-2.8c-1.6,0.1-3.1,0.1-4.7,0.2c-0.9,0-1.7,0.1-2.6,0.2
		c-3.9,0.6-7.5,2.2-11.2,3.5c-1.2,0.4-2.1,1.1-3,2c-2.5,2.4-4.5,5.2-6.4,8.1c-0.7,1.1-1.5,1.7-2.7,1.6c-1.5-0.1-3,0.2-4.5,0.5
		c-4.5,0.8-8.5,2.5-11.9,5.7c-2.5,2.3-2.2,7.3,1.3,8.3c1.1,0.3,1,1,0.4,1.8c-1.4,1.8-2.6,3.6-3.6,5.6c-2,4.1-3.3,8.4-3.6,13
		c-0.4,5.4,0,10.5,2.5,15.3c2.9,5.7,9.5,7.6,15.5,5.8c1.9-0.6,3.5-1.8,5.2-2.9c2.4-1.5,5.1-1.5,7.5-0.2c2.3,1.3,3.7,3.4,3.5,6.3
		c0,0.8-0.1,1.6-0.2,2.3c0.7,0.6,1.2,1.4,1.4,2.6c0.4,2,0.7,4-0.9,5.7c-0.6,0.6-0.4,1.4-0.2,2c0.8,3.1,1.6,6.2,3.1,9.1
		c2.5,4.6,4.6,9.3,6.5,14.2c2,5.1,4.6,9.8,7.4,14.5c1.9,3.3,4.4,6,7.7,8.1c1.5,0.9,3,1.9,4.4,3c0.8-0.7,1.6-0.8,2.7-0.5
		c4.7,1.3,9.2,0.3,13.3-2.2c2.4-1.4,4.5-3.3,6.3-5.5c3.8-4.4,7.1-9.3,11.4-13.2c0.7-0.6,1-1.4,1.5-2.2c0.5-0.9,0.4-1.6-0.3-2.4
		c-1.4-1.9-2.9-3.8-4-5.9c-2.8-5.4-2.6-10.6,0.8-15.6c0.9-1.3,0.9-2.3,0.4-3.8c-0.9-2.4-1.1-4.8-0.4-7.3c0.1-0.3,0.2-0.6,0.3-0.9
		c0-0.1,0.1-0.3,0.1-0.4s0.1-0.3,0.1-0.4c0.1-0.2,0.2-0.4,0.2-0.5s0.1-0.1,0.1-0.2c0.1-0.2,0.2-0.3,0.3-0.5l0.1-0.1
		c0.1-0.2,0.2-0.3,0.3-0.5c0,0,0-0.1,0.1-0.1c0.1-0.2,0.3-0.3,0.4-0.5l0,0c0.1-0.2,0.3-0.3,0.5-0.4l0,0c0.2-0.1,0.3-0.3,0.5-0.4l0,0
		l0,0l0,0c-2.2-4.2-3.3-8.9-3.4-14c-0.1-4.4,0.2-8.8-0.1-13.2c-0.2-2.6-0.1-5.1,0.3-7.6c1.1-5.8,4.3-10.4,8.3-14.6
		c3.8-4,7.9-7.5,13.3-9c0.6-0.2,1.2-0.5,1.7-0.8c7.2-4.4,15.1-4.9,23.2-4.2c1.3,0.1,2.5,0.2,3.8,0.1c8.3-0.8,16.3-0.3,23.7,4.2
		c0.5,0.3,1.1,0.6,1.7,0.8c6.8,2.1,11.6,6.9,16,12.2c2.7,3.3,4.4,7.1,5.6,11.3c1,3.3,1.2,6.5,0.4,9.9c-0.6,2.8-0.4,5.7-0.3,8.6
		c0.1,3.5-0.2,6.9-1.1,10.2c-1.4,5.3-4,9.7-7.4,13.3c0,0.3,0,0.7,0,1c0,0.4,0,0.8,0.4,1.1c3.3,2.7,3.4,6.2,2.3,9.8
		c-0.6,2-0.9,3.9-0.8,5.9c0.1,0.9-0.1,1.7-0.6,2.5c-0.8,1.5-0.6,2.5,0.9,3.2c2.8,1.2,3.6,3.5,4.4,6.1c2.5,7.9,7.7,13.5,14.8,17.5
		c1.9,1.1,3.7,2,5.7,2.8c1.9,0.8,3.9,1.5,6,2.1c0.7,0.2,1.3,0.3,2,0.4c0.2,0,0.3,0.1,0.5,0.1c0.7,0.1,1.3,0.2,2,0.2c0.5,0,1,0,1.5,0
		c2,0,4-0.3,6-0.8c0.5-0.1,1-0.2,1.5-0.4h0.1c2-1.6,3.5-3.6,4.8-5.8C592.3,498.7,594.9,493.9,596.9,488.9z"/>
	<path class="st2" d="M591.3,338.9c2.8-0.9,2.9-1,1.7-3.8c-0.4-1-0.8-1.9-1.4-2.8c-1.1-1.7-2.5-3-4.8-4.1c0.8,5,0.5,9.5-1.6,13.7
		C587.4,340.8,589.2,339.6,591.3,338.9z"/>
	<path class="st2" d="M407.5,328.5c-3.8,1.7-5.2,5.1-6.3,8.8c-0.2,0.6,0.2,0.9,0.7,1c2.8,0.6,5.1,2,7.7,3.4c-2.3-4.2-1.9-8.7-1.7-13
		C407.6,328.6,407.5,328.5,407.5,328.5z"/>
	<path class="st2" d="M545.6,342.2c-0.2,1.1,0.5,1.2,1.2,1.4c3.7,1.1,7.4,2.1,11,3.2c0.1,0,0.2-0.2,0.4-0.4
		c-5-5.2-7.6-11.2-6.1-18.6C548.9,332.2,546.6,336.9,545.6,342.2z"/>
	<path class="st2" d="M582.3,329.5c0-2.9-3.3-5.3-7.3-5.3s-7.3,2.4-7.3,5.3s3.3,5.3,7.3,5.3S582.3,332.5,582.3,329.5z"/>
	<ellipse class="st2" cx="431" cy="328.3" rx="7.3" ry="5.3"/>
	<path class="st2" d="M647.5,646.2c-0.1-0.1-0.1-0.2-0.2-0.4c-0.9-1.7-1.2-6.2-0.1-10c1.4-4.5,4.9-7.9,12.2-4.7l0,0
		c0.1,0.1,0.4,0.2,0.7,0.3c0.6,0.3,1.3,0.7,1.6,0.8c1.3,0.1,2.5,0.4,3,1.8c0.6,0.2,1.3,0.5,1.9,0.8c1.4,0.6,2.7,1.4,4.1,2.1
		c0.2-0.2,0.4-0.4,0.6-0.5l0.4-0.4l0.4-0.4l0.9-0.8c0.6-0.5,1.1-1,1.7-1.6l1.8-1.5l0.9-0.7c0.3-0.2,0.6-0.5,0.9-0.7l1.8-1.4l0.5-0.4
		l0.5-0.3l0.9-0.7l1.9-1.4l1.9-1.3c5.2-3.4,10.8-6.2,16.6-8.6c0.4-0.1,0.7-0.3,1.1-0.4l1.1-0.4l0.4-0.2c-0.5-0.3-1-0.6-1.3-1.1
		c-1.2-1.8-2-3.8-2.8-5.8c-0.2-0.6-0.5-1.2-0.8-1.8c-0.5-0.4-0.9-0.8-1.4-1.1c-0.8-0.7-1.7-1.3-2.6-2c-1.3-1-2.7-1.9-4-2.8
		c-1.8-1.3-3.6-2.5-5.2-4.1c-0.3-0.3-0.6-0.6-0.9-0.9c-0.2-0.2-0.4-0.4-0.6-0.6c-0.1-0.1-0.3-0.2-0.4-0.3c-0.5-0.3-0.9-0.6-1.5-0.8
		c-0.2-0.1-0.3-0.3-0.5-0.4c0-0.1-0.1-0.1-0.1-0.2c-0.1-0.2-0.3-0.4-0.4-0.5c-1.8-0.9-3.3-2.1-4.8-3.4c-0.5-0.4-1-0.9-1.4-1.3
		c-0.2-0.2-0.6-0.2-0.9-0.3c-0.2-0.1-0.3-0.3-0.5-0.4c-0.1-0.3-0.3-0.6-0.6-0.7c-0.2-0.2-0.5-0.3-0.9-0.3c-0.2-0.1-0.3-0.3-0.5-0.4
		c-2.4-2.1-4.8-4.2-7.5-5.9c-0.2,0-0.5,0.1-0.7,0.1c0,0.9,0.1,1.7,0.3,2.5c0.3,1,0.7,2,1.3,3c0.2,0.2,0.3,0.5,0.5,0.7
		c1.3,1.8,2.4,3.7,3.5,5.7c1,2,2,4,3.1,5.9c0.8,1.5,1.7,2.9,2.6,4.4c0.9,1.4,1.8,2.9,2.7,4.3c0.9,1.4,1.9,2.8,2.9,4.2s2,2.7,3.1,4
		c1,1.2,1.6,2.5,1,4c-0.1,0.2-0.2,0.4-0.3,0.5c-0.2,0.3-0.5,0.6-0.8,0.8c-0.4,0.3-1,0.4-1.5,0.5c-0.2,0-0.4,0-0.6,0
		c-0.2,0-0.4,0-0.6,0c-0.6-0.1-1.2-0.1-1.8-0.3c-0.3-0.1-0.6-0.2-0.8-0.3c-0.3-0.1-0.5-0.2-0.8-0.4c-0.9-0.5-1.7-1-2.6-1.5
		c-0.4-0.2-0.9-0.5-1.3-0.7c-0.4-0.2-0.9-0.5-1.3-0.8c-4.6-3-9.6-5.3-14.8-7.1c-0.5-0.2-1-0.4-1.6-0.6c-1.6-0.6-3.1-1.2-4.7-1.7
		c-0.4-0.1-0.7-0.2-1-0.2c-0.1,0-0.2,0-0.3,0c-0.3,0-0.6,0.1-0.8,0.4c-0.1,0.1-0.2,0.2-0.3,0.3c-0.3,0.3-0.6,0.6-0.9,0.8
		c-0.7,0.4-1.4,0.7-2.1,0.9c-0.4,0.1-0.8,0.2-1.1,0.3c-1.3,0.4-2.7,0.7-4.1,0.9c-1.4,0.2-2.8,0.4-4.1,0.6c-0.3,0-0.6,0-1,0
		c-0.6-0.1-1.2-0.2-1.8-0.3c-0.4-0.1-0.9-0.2-1.3-0.2c-0.4-0.1-0.8-0.1-1.2-0.2c-0.1,0-0.2,0-0.4,0c-0.3,0-0.6-0.1-0.9-0.1
		c-0.1,0-0.2,0-0.4,0c-0.4,0-0.8,0-1.2,0c-1.3,0-2.2-0.8-3.4-1c-0.8-0.2-1.6-0.2-2.5-0.4c-0.8-0.1-1.6-0.2-2.5-0.5
		c-0.5-0.1-1.1-0.3-1.6-0.6c-0.2-0.1-0.5-0.2-0.8-0.3c-1.5-0.7-3.1-1.3-4.4-2.3c-0.2-0.2-0.4-0.3-0.7-0.5l-0.1-0.1
		c-0.1-0.1-0.2-0.2-0.3-0.2c-0.3-0.2-0.5-0.3-0.8-0.1c-0.1,0.1-0.2,0.1-0.3,0.2c-0.1,0.1-0.1,0.3-0.1,0.5c0,0.1,0,0.2,0,0.4
		c0,0.1,0,0.1,0,0.2c0,1,0,2-0.2,2.9c-0.1,0.6-0.3,1.2-0.4,1.8s-0.4,1.1-0.7,1.7c-0.3,0.5-0.5,1.1-0.9,1.6c-0.3,0.5-0.7,1-1.1,1.5
		c-0.4,0.5-0.8,0.9-1.2,1.4c-0.7,0.7-1.4,1.3-2.2,1.9c-0.4,0.3-0.9,0.7-1.3,1s-0.9,0.7-1.3,1c-0.8,0.5-1.4,1.1-1.8,1.8
		c-0.2,0.4-0.4,0.9-0.4,1.4c-0.1,0.8,0.1,1.6,0.5,2.5s0.9,1.7,1.4,2.5c3.3,5.3,7.2,10.3,11,15.3c0.5,0.7,1.1,1.4,1.6,2.1
		c1,1.3,1.9,2.6,2.8,4c0.9,1.4,1.7,2.8,2.5,4.2c0.1,0.2,0.3,0.5,0.4,0.7c0,0.1,0.1,0.1,0.1,0.2c0.1,0.2,0.2,0.4,0.2,0.6
		c0,0.1,0.1,0.1,0.1,0.2c0.1,0.3,0.2,0.5,0.3,0.8s0.1,0.6,0.2,0.8c0.1,0.7,0.1,1.4-0.1,2.1c-0.1,0.4-0.2,0.8-0.4,1.1
		c-0.9,2.1-2.8,3.2-5.3,3.2c-0.4,0-0.8,0-1.3-0.1c-4.1-0.4-8-1.9-11.9-3.1c-1-0.3-1.9-0.6-2.9-1c-1.9-0.7-3.7-1.5-5.6-2.2
		c-0.9-0.4-1.9-0.7-2.8-1c-0.3-0.1-0.6-0.2-0.9-0.2s-0.6-0.1-0.9-0.1c-0.2,0.3-0.5,0.4-0.8,0.5c-0.1,0-0.2,0-0.3,0
		c0,0.5,0.1,1,0.1,1.4c0.4,0.2,0.5,0.4,0.3,0.7c-0.1,0.1-0.1,0.2-0.3,0.3c0,0.2,0,0.4,0,0.6c0.1,0.6,0.3,1.2,0.4,1.8
		c0.2,0.1,0.4,0.3,0.4,0.4c0,0.1,0,0.2-0.1,0.2c-0.1,0.1-0.1,0.2-0.3,0.3c0.2,1.4,0.4,2.7,0.6,4.1c0.7,3.6,1.6,7.1,2.4,10.7h40.6
		h4.8c0.2-0.1,0.4-0.3,0.6-0.4c0.9-0.7,1.8-1.3,2.7-2.1c0.5-0.4,1-0.9,1.5-1.4c0,0,0,0,0.1-0.1c0.2-0.3,0.4-0.5,0.6-0.8
		c0.6-0.8,1.2-1.6,1.7-2.4c1.2-1.7,2.4-3.4,3.5-5.1c0.5-0.7,1-1.4,1.5-2.1c0.2-0.3,0.3-0.5,0.5-0.8c0.5-0.8,1-1.5,1.6-2.2
		c0-0.1,0.1-0.1,0.1-0.2c0.9-1.3,1.8-2.6,2.7-3.8C651.7,651.9,647.6,646.4,647.5,646.2z"/>
	<path class="st2" d="M783.8,554.3c-0.1-0.4-0.1-0.8-0.6-1.1c-0.9,0.2-1.8,0.7-2.8,1.2c0.1,1.9,0.3,3.9,0.7,5.8
		c0.4,2.2,0.9,4.4,1.5,6.5c0.6,2.6,1.3,5.2,2,7.8s1.3,5.2,2,7.8c1,3.9,2.1,7.7,3.3,11.6c0.4,1.3,0.8,2.6,1.2,3.8
		c0.1,0.2,0.1,0.4,0.2,0.6c0,0.2,0.1,0.4,0.1,0.6c0,0.4,0.1,0.9,0.1,1.3c0.2,1.3-0.3,2.4-1.2,3.1c-0.2,0.2-0.5,0.3-0.8,0.4
		s-0.6,0.2-0.9,0.2c-0.2,0-0.3,0-0.5,0c-0.5,0-1.1-0.1-1.6-0.4c-1.2-0.5-2.3-1-3.3-1.7s-2-1.4-3-2.2c-0.6-0.6-1.3-1.1-1.9-1.6
		c-0.7-0.5-1.4-0.9-2.1-1.3c-1.1-0.5-1.8-1.4-2.7-2.1c-0.4-0.3-0.8-0.6-1.3-0.8c-0.2-0.1-0.3-0.3-0.5-0.4c-0.1-0.2-0.3-0.3-0.4-0.5
		c-1.1-1.1-2.6-1.5-3.8-2.4c-2-1.6-4.3-2.7-6.6-3.7c-1.4-0.6-2.8-1.2-4.2-1.8c-0.2-0.1-0.4-0.1-0.5-0.2c-1-0.2-1.7,0.4-2.2,1.4
		c0,0.5-0.1,0.8-0.5,0.9c-0.1,0-0.3,0.1-0.4,0.1c-0.1,0.1-0.2,0.2-0.2,0.3c-0.6,0.7-0.9,1.5-0.6,2.5c0.8,0.2,0.9,0.9,1.1,1.5
		c0,0.2,0.1,0.4,0.1,0.6c0,0.1,0.1,0.3,0.2,0.4c0.1,0.3,0.2,0.6,0.3,0.9c0.2,0.5,0.3,0.9,0.3,1.4c0,0.3,0,0.6-0.2,1l0,0
		c0,0.3,0.1,0.6,0.1,0.9c0.4,0.1,0.6,0.4,0.7,0.7c0,0.1,0.1,0.2,0.1,0.3c0.5,1.3,0.9,2.7,1.2,4.1c0.3,1.4,0.6,2.8,1.1,4.1
		c0,0.1,0,0.2,0,0.2c0,0.2-0.2,0.4-0.4,0.6l0,0l0,0l0,0c0,0.1,0,0.1,0,0.2l0,0c0.1,0,0.1,0,0.2,0c3.1,0.2,6.2,0.5,9.3,1
		c1.5,0.2,3.1,0.5,4.6,0.8c0.8,0.2,1.5,0.3,2.3,0.5c0.4,0.1,0.8,0.2,1.1,0.3l1.1,0.3l1.1,0.3l0.6,0.1l0.6,0.2l2.3,0.7
		c1.5,0.5,3,1,4.5,1.5c1.6,0.6,3.2,1.2,4.8,1.9c2.7,0.8,6,2.3,9.6,4.2c6.2,2.7,12.4,5.4,18.9,7.6c0.8,0.3,1.6,0.7,2.7,0.6
		c-0.9-2.1-2.1-3.8-3.4-5.3c-6.1-7.6-11-15.9-15.1-24.7c-5.2-11.1-10.1-22.3-15.1-33.5C785.5,560.4,784.4,557.4,783.8,554.3z"/>
	<path class="st2" d="M710.1,612.6c-0.1,0.3-0.3,0.7-0.4,1l1.4-0.4l1.1-0.4c0.4-0.1,0.7-0.2,1.1-0.3c-0.8-0.8-1.6-1.6-2.4-2.4
		C710.7,610.9,710.4,611.8,710.1,612.6z"/>
	<path class="st2" d="M769.4,545.8c2.4-1.4,4.8-2.9,7.2-4.3c0.4-0.3,1.1-0.4,1.2-1.3c-0.5-0.4-1.1-0.9-1.7-1.5
		c-0.2-0.2-0.3-0.3-0.5-0.5c-0.2,0-0.4-0.1-0.5-0.1c-0.5-0.1-1-0.2-1.4-0.2c-1.8-0.3-3.5-0.7-5.3-1.2c-1.7-0.5-3.4-1.1-5.1-1.7
		c-2-0.8-4-1.6-5.9-2.5c-1.6-0.7-3.1-1.4-4.7-2.2c-3.1-1.5-6.2-3-9.2-4.7c-1.5-0.8-3-1.6-4.5-2.5c-0.4-0.2-0.8-0.4-1.2-0.6
		c-0.8-0.4-1.7-0.6-2.6-0.8c-0.4-0.1-0.9-0.2-1.4-0.3c-0.9-0.2-1.4,0-1.4,0.6c0,0.2,0.1,0.5,0.2,0.8c0.2,0.7,0.4,1.4,0.5,2.1
		s0.1,1.4,0,2c-0.1,0.7-0.2,1.3-0.4,2s-0.5,1.3-0.8,2c-1,2.1-2.5,3.3-4.3,4c-1.4,0.5-2.9,0.8-4.5,0.9c-2.3,0.1-4.6,0.1-6.8-0.2
		c-0.9-0.1-1.9-0.2-2.8-0.4c-0.8-0.1-1.7-0.3-2.5-0.5c-0.2-0.1-0.5-0.1-0.7-0.2c-0.6-0.1-1.2-0.3-1.8-0.4c-0.2-0.1-0.5-0.1-0.7-0.2
		c-0.8-0.2-1.6-0.5-2.5-0.7c-1.6-0.5-3.3-1.1-4.9-1.6c-1.6-0.5-3.3-1.1-4.9-1.6c-0.1,0-0.3-0.1-0.4-0.1c-0.1-0.1-0.3-0.1-0.4-0.1
		c-0.3-0.1-0.6-0.2-0.9-0.1c-0.2,0-0.4,0.1-0.7,0.2c0,0.2,0.1,0.4,0.1,0.5c0.2,0.9,0.7,1.7,1.1,2.4c0.2,0.3,0.4,0.6,0.6,0.9
		c0.2,0.4,0.4,0.7,0.7,1.1c0.9,1.4,2,2.7,3.1,3.9c0.6,0.6,1.1,1.2,1.7,1.9c0.3,0.3,0.6,0.6,0.8,0.9c1.4,1.6,2.9,3,4.4,4.5
		c13.1,4.3,26.5,6.7,40.3,6.8C754.4,552.6,762.2,550.1,769.4,545.8z"/>
	<path class="st2" d="M221.5,399.3c3,0.1,5.9-0.3,8.8-0.7c5.5-0.8,9.1,3.7,7.1,8.9c-0.3,0.9-0.8,1.7-1.3,2.6
		c-0.8,1.4-1.7,2.7-2.5,4.1c-10.5,16.3-14.4,34.4-13.6,53.5c0,0.5-0.2,1.1,0.5,1.5c0.6-0.1,0.9-0.7,1.2-1.1c3-3.8,6.2-7.5,8.4-11.9
		c1.3-2.5,3.1-4.7,6-5.5c0.8-0.2,1.3-0.9,1.8-1.5c1.2-1.2,2.3-2.5,3.7-3.3c2.1-1.3,4.3,0,4.4,2.4c0,1.4-0.5,2.7-1.1,3.9
		c-0.8,1.6-1.6,3.1-1.4,5c0.1,1-0.4,2-0.9,2.9c-4.5,8.6-5.9,18-6.1,27.6c-0.1,3.7,0.5,7.3,2.5,10.6c1.6,2.7,2.7,5.6,3.5,8.7
		c1.4,5.6,3.8,10.8,6.6,15.9c3.1,5.7,5.1,11.9,5.4,18.3c0.6-1.6,1.2-3.1,2.1-4.6c2.1-3.3,2.6-7,2.9-10.7c0.3-4.5,0.9-8.9,1-13.4
		c0-2.8-0.4-5.6-0.5-8.4c0-1.1-0.6-2-1.1-2.9c-1-1.5-2.1-3-3.2-4.5c-1-1.4-2.5-2.2-4.2-2.4c-4.6-0.5-7.1-4.1-6-8.7
		c0-0.1,0-0.2,0.1-0.2c2.2-6,2.9-12.2,3.8-18.4c0.9-5.8,2.5-11.4,4.3-16.9c2-6,3.9-12,6.5-17.8c0.1-0.2,0.2-0.4,0.3-0.7
		c0.2-0.8-0.2-1.2-1.1-0.9c-0.6,0.2-1.2,0.5-1.7,0.8c-5.3,2.7-10.6,5.3-15.9,8c-1.1,0.6-2.3,1.1-3.5,1.4c-2.3,0.6-4.4,0.3-6.1-1.6
		c-1.7-1.9-1.5-3.9-1-6.1c0.4-1.4,1.3-2.6,2-3.8c1.4-2.3,3.2-4.4,5-6.4c3.1-3.3,5.6-7,8.1-10.7c4.3-6.4,9-12.4,14.5-17.8
		c0.3-0.3,0.7-0.7,1-1.1c0.1-0.1,0.1-0.3,0.2-0.6c-0.5-0.5-1.1-0.3-1.7-0.1c-1,0.4-1.9,0.7-3,0.9c-2.8,0.7-5.3,0-7.1-2.3
		c-1.8-2.2-1.6-4.8-0.5-7.3c1.2-2.9,3.6-4.9,5.9-6.8c2.3-2,4.4-4.2,6.5-6.4c4.9-5,8.7-10.8,12.9-16.4c2.1-2.7,4.5-5.2,6.7-7.8
		c5.6-6.7,12.5-12.1,19.5-17.3c0.7-0.5,1.4-1.1,1.9-2c-0.8-0.5-1.7-0.3-2.5-0.3c-3.8,0.1-7.7,0.1-11.3-1.5
		c-6.4-2.8-13.4-3.6-20.1-5.2c-1.8-0.4-3.7-0.1-5.5-0.5c-4.1-1-5.3-4.6-2.7-7.8c1.5-1.9,3.7-3.1,5.8-4.2c3.9-2.1,8-4,11.9-6.2
		c5.4-2.9,9.6-7.1,13.6-11.6c0.2-0.3,0.5-0.6,0.7-0.9c0.2-0.4,0.4-0.8,0.7-1.2c0.5-0.6,0.9-1.2,1.5-1.7c0.1-0.1,0.2-0.3,0.3-0.4
		c0.6-0.8,1.3-1.6,2.2-2.2c0.4-0.3,0.7-0.5,1.1-0.6c0.2-0.1,0.3-0.3,0.5-0.4c3.4-2.6,6.4-5.5,10.1-7.8c0.8-0.5,0.8-1,0.2-1.7
		c-1.3-1.5-2.6-3-3.9-4.6c-1-1.2-1.7-2.5-2-4c-0.5-2.1,0-4,1.6-5.5s3.6-1.7,5.6-1.1c0.8,0.2,1.5,0.6,2.1,1.1
		c5,3.1,10.6,4.3,16.3,5.2c-1.8-1.7-3.4-3.5-5-5.2s-2.2-3.5-1.3-5.7c0.9-1.9,2.8-3,5.4-2.9c1.4,0.1,2.7,0.4,4,0.9
		c3.3,1.1,6.3,2.7,9.3,4.5c1.4,0.8,2.9,1.6,4.4,2.4c0.5-0.7-0.1-1.1-0.3-1.5c-1.1-2.1-2.5-4.1-3.4-6.3c-1.8-4.2,1.3-8.5,5.7-8.2
		c1.8,0.1,3.4,1,4.6,2.3c1.7,1.7,3,3.6,4,5.7c0.2-0.1,0.4-0.3,0.6-0.4c0.4-0.4,0.9-0.5,1.4-0.5c0.2,0,0.4,0,0.6,0
		c0.7,0,1.3,0.2,2,0.1c0.6-0.5,1.2-1.1,1.7-1.6c2.4-2.7,5.4-3.1,8.7-2.5c1.4,0.2,2.7,0.7,4,1.2s2.6,1,3.9,1.5
		c0.1-0.1,0.1-0.2,0.2-0.2c0.2-0.2,0.5-0.2,0.8-0.3c0.3-2.1,1.7-3.8,3.1-5.3c0.4-0.5,0.7-0.9,0.9-1.4c0.4-0.8,0.5-1.6,0.4-2.5
		c-0.5-0.3-0.6-0.6-0.1-1c0.1-1.1-0.2-2.2-0.4-3.4c-0.5-0.5-0.7-0.9-0.4-1.4c0.1-0.2,0.2-0.3,0.4-0.5c0.2-4.2-0.7-8.3-0.5-12.4
		c0.1-1.9,0.4-3.8,0.7-5.7c0.2-1.4,1.1-2.4,2.5-3c3.1-1.3,5.8-0.3,8.3,1.6c4,2.9,7.7,6.2,11.5,9.4c4.4,3.7,8.6,7.6,12.7,11.7
		c1,1,1.9,2,2.8,2.9c0.7,0.7,1.4,1.1,2-0.1c0.7-1.5,2.3-1.3,3.5-1.8c0-0.3,0-0.6-0.1-0.9c-0.2-1.2-0.1-2.2,1.2-2.7
		c1.3-0.5,2.4-0.6,3.5,0.5c0.9,0.9,1.7,1.9,2.4,2.9c3.6,5.1,8.1,9.3,13.1,12.9c0.9,0.7,1.7,1.4,2.6,2.1c0.2,0,0.5-0.1,0.7-0.1
		c0.1,0,0.2,0.1,0.3,0.2c-0.1-0.1-0.2-0.1-0.3-0.2c0-0.2-0.1-0.4-0.2-0.6s-0.1-0.4-0.2-0.6c-0.2-0.4-0.4-0.8-0.7-1.1
		c-2.8-3.9-4.1-8.3-3.9-13.2c0.1-2.6,2.4-4.8,5.1-5.1c0.3,0,0.6-0.1,0.9-0.1c2.2-0.1,4.2,0.4,6.3,1.1c0.2,0,0.4-0.1,0.6-0.2
		c0.2-0.1,0.4-0.2,0.5-0.4c0-1.2-1.1-1.7-1.4-2.7c-1.4-4.4-1.9-8.9-1.3-13.4c0.2-1.5-0.1-3.1,0.7-4.5c0.1-0.2,0.3-0.3,0.4-0.5
		c0.4-0.1,0.6-0.4,0.8-0.6c0.4-0.5,0.6-1,1.3-1.2c2-0.7,3.8-0.5,5.4,0.9c1,0.9,1.9,1.9,2.5,3.2c2.9,5.6,5.5,11.3,7.3,17.4
		c0.3,0.9,0.6,1.7,0.9,2.5c0.2,0.6,0.5,1.2,0.8,1.9c0.4,0.8,0.7,1.6,1.1,2.4c0.1,0.2,0.2,0.4,0.3,0.6c0.4,0.8,0.8,1.6,1.3,2.4
		c0.5,0,0.9,0,1.4,0c1.8-1.4,3.7-1.3,5.6-0.3c1.2,0.6,2.3,1.4,3.3,2.3c0.4,0.3,0.8,0.6,1.2,0.9c1.2,0.9,2.4,1.7,3.8,2.4
		c0.3,0,0.7,0,1-0.1c0.3-3.1-0.5-6.1-0.5-9.2c0-1.4,0.1-2.9,0.3-4.3c0-0.4,0.1-0.7,0.1-1.1c0-0.5,0.1-0.9,0.1-1.4c0-0.1,0-0.2,0-0.4
		c0-0.5,0-1,0-1.4c-0.2-0.2-0.3-0.4-0.3-0.5c0-0.2,0.2-0.3,0.4-0.5c0.3-1.4,0.6-2.9,0.9-4.3c-0.1-0.1-0.1-0.2-0.2-0.2c0,0,0,0,0-0.1
		c0,0,0-0.1-0.1-0.1l0,0c0-0.1,0-0.1,0-0.1l0.1-0.1c0.1-0.1,0.2-0.1,0.3-0.2c0.1,0,0.1,0,0.2-0.1c1.3-9.7,5.9-17.9,11.5-25.6
		c1.1-1.5,2.1-3.1,3.6-4.4c3.7-3.2,9.6-1.7,10.5,2.9c0.4,1.9,0.3,4-0.1,6c-1,4.8-2.1,9.6-3.1,14.5l0,0c0.3,0.3,0.4,0.5,0.3,0.6
		c-0.1,0.2-0.3,0.3-0.6,0.3c-1.3,4.7-1.3,9.6-1.1,14.5c0,0.6-0.3,1.4,0.5,1.7s1.4-0.2,1.7-0.9c1.4-2.5,3.9-3.9,5.7-6
		s4.6-3.2,7.4-3.4c3-0.2,5.5,2.3,5.3,4.9c-0.1,1-0.1,2.1-0.2,3.1l0.1,0.1c1,0.1,1.6-0.6,2.4-0.9c3.5-1.3,7.1-1.7,10.7-2.4
		c2.2-0.4,4.6,1.1,5.3,2.8c0.9,2,0.3,4-1.6,5.8c-1,0.9-2.3,1.6-3.1,2.7c-0.1,0.2-0.2,0.3-0.3,0.5l0,0c0,0.3,0.1,0.6,0.3,0.8
		c0.1,0.1,0.2,0.1,0.3,0.2c2.9-1.4,6.1-1.8,9.2-2c0.3,0,0.5-0.1,0.8-0.1c0.5-0.1,1-0.2,1.5-0.4c0.2-0.1,0.5-0.2,0.7-0.3
		c0.7-0.3,1.5-0.5,2.2-0.7c0.3-0.1,0.5-0.1,0.8-0.1c0.4-0.1,0.9-0.1,1.3-0.2c0.7-0.1,1.3-0.1,2-0.1c0.6,0,1.3,0.1,1.9,0.3
		c0.2,0.1,0.4,0.1,0.6,0.1c0.6,0,1-0.2,1.5-0.6c0.4-0.3,0.8-0.6,1.1-1c0.8-0.6,1.5-1.3,2.3-1.8c0.4-0.3,0.8-0.5,1.3-0.8
		c0.2-0.1,0.4-0.3,0.6-0.4c0.3-0.3,0.6-0.7,0.9-1.1c0.1-0.2,0.3-0.4,0.4-0.6c0.8-1,1.8-1.8,2.8-2.6c0.5-0.4,1-0.8,1.4-1.3
		s0.9-0.9,1.4-1.3c0.5-0.5,1.1-0.8,1.7-0.9s1.3-0.1,2.1,0.1c0.5,0.1,0.9,0.2,1.4,0.4c0.8,0.3,1.4,0.6,1.9,1.1
		c0.3,0.3,0.6,0.7,0.8,1.1c0.3,0.6,0.5,1.3,0.5,2.1c0.1,1.5,0.1,3.1-0.1,4.6c-0.1,0.6-0.2,1.2-0.4,1.8c-0.1,0.3-0.2,0.6-0.3,0.9
		c-0.2,0.6-0.4,1.3-0.7,1.9c-0.2,0.6-0.5,1.3-0.7,1.9c-0.5,1.3-1,2.5-1.7,3.7c-0.2,0.4-0.5,0.9-0.7,1.3c-0.7,1.3-1.2,2.7-1.9,4.1
		c0,0.2,0,0.4,0.1,0.6c1.5-0.1,2.7-1,4.1-1.3c0.7-0.2,1.4-0.2,2-0.2s1.2,0.2,1.8,0.4c0.5,0.2,1,0.6,1.4,1s0.7,0.9,1,1.5
		c0.1,0.2,0.2,0.5,0.2,0.7c0.4,1.4,0.3,2.8,0,4.2c0,0.2-0.1,0.5-0.2,0.7c-0.5,1.9-1.1,3.8-1.7,5.7c-0.1,0.2-0.1,0.4-0.2,0.6
		c0,0.2-0.1,0.3-0.1,0.5c-0.1,0.4,0,0.6,0.3,0.8c0.1,0.1,0.2,0.1,0.4,0.2c0,0,0.1,0,0.1,0.1c0.2,0.1,0.3,0.1,0.5,0.2
		s0.3,0.1,0.5,0.2c0.1-0.1,0.2-0.2,0.2-0.3c0.1-0.1,0.2-0.1,0.2-0.1c0.2,0,0.3,0.1,0.5,0.4c0.3,0,0.6,0,0.8,0c0.8,0,1.7,0,2.5-0.2
		c0-0.1,0.1-0.2,0.1-0.3l0,0c0-0.1,0.1-0.1,0.1-0.2l0,0c0.1-0.2,0.3-0.2,0.5,0c0.1,0,0.1,0.1,0.2,0.2l0,0c0.6-0.1,1.3-0.1,1.9-0.2
		c0.2-0.5,0.4-0.9,1-0.3c0.5,0,0.9-0.1,1.4-0.1c0.1-0.4,0.3-0.8,0.7-0.6c0.1,0.1,0.2,0.1,0.3,0.3c0.6-0.1,1.3-0.1,1.9-0.2
		c0.2-0.6,0.6-0.9,1-0.7c0.1,0.1,0.3,0.2,0.5,0.3c1-0.1,1.9-0.1,2.9-0.2c0.7-0.8,1-1,1.4-0.6c0.2,0.1,0.3,0.3,0.6,0.6
		c0.6,0,1.3,0.1,1.9,0.1c0.3-0.3,0.6-0.3,0.7-0.2c0.1,0,0.1,0.1,0.1,0.2v0.1c0,0.1,0.1,0.2,0.1,0.3c0.9,0.2,1.7,0.6,2.4,1
		c0.3,0.2,0.5,0.3,0.7,0.5s0.4,0.4,0.6,0.6c0.1,0.1,0.1,0.1,0.2,0.2c0.1,0.1,0.3,0.3,0.4,0.4c0.1,0.1,0.1,0.2,0.2,0.2
		c0.1,0.1,0.2,0.3,0.3,0.4s0.1,0.2,0.2,0.3c0.1,0.1,0.2,0.3,0.3,0.4s0.1,0.2,0.2,0.3c0.1,0.2,0.2,0.3,0.2,0.5c0,0.1,0.1,0.2,0.1,0.3
		c0.1,0.2,0.1,0.4,0.2,0.6c0,0.1,0.1,0.2,0.1,0.3c0.1,0.3,0.2,0.6,0.3,0.9c0.2,0.2,0.3,0.3,0.4,0.5c0,0.1,0.1,0.1,0.1,0.2
		c0.1,0.1,0.1,0.3,0.2,0.4c0,0.1,0,0.1,0.1,0.2c0.1,0.2,0.1,0.4,0.1,0.6s0,0.5,0,0.7s-0.1,0.4-0.1,0.6c-0.1,0.4-0.3,0.8-0.6,1.1
		c-0.1,0.6-0.3,1.3-0.5,1.9c-0.5,1.5-1.1,3-1.5,4.6c-0.1,0.3-0.2,0.6-0.3,0.9c0,0.1-0.1,0.2-0.1,0.4c-0.2,0.8-0.4,1.6-0.6,2.3
		c0.2,0.1,0.3,0.4,0.5,0.5c0,0,0.1,0,0.1,0.1c0.1,0.1,0.2,0.1,0.3,0.1s0.3,0,0.4-0.1c0.1,0,0.2-0.1,0.3-0.1c0.2,0,0.4,0.1,0.5,0.2
		s0.1,0.1,0.2,0.2c0.6-0.2,1.3-0.4,1.9-0.7c0.6-0.2,1.2-0.5,1.9-0.7c1.3-0.4,2.5-0.8,3.9-1.1c2.8-0.5,5.7-0.4,8.5-0.4
		c0.9,0,1.7,0,2.6,0l0,0c0.2-0.2,0.3-0.4,0.5-0.3c0.1,0,0.2,0,0.2,0.1c0.1,0.1,0.2,0.2,0.2,0.3c1.2,0.1,2.4,0.3,3.6,0.4
		c0.6,0.1,1.2,0.2,1.8,0.3c1.8,0.3,3.5,0.6,5.3,1.1c1.2,0.3,2.3,0.7,3.4,1.1c1,0.4,2,0.8,2.9,1.3c2.8,1.5,5.2,3.5,7.7,5.6
		c0.2,0.1,0.3,0.3,0.4,0.4c0.3,0.5,0.5,1.1,0.5,1.7c0,1-0.1,1.9-0.1,2.9c0,0.2,0,0.4,0.1,0.5c2.3-0.1,4.5-0.1,6.7,0.1
		c1.5,0.1,3,0.2,4.5,0.4c2.2,0.2,4.5,0.5,6.7,0.9c0.4,0.1,0.8,0.1,1.3,0.2c1.3,0.2,2.5,0.3,3.8,0.5s2.5,0.4,3.8,0.7
		c0.4,0.1,0.8,0.2,1.2,0.4c1.5,0.5,3,1.1,4.5,1.7c0.7,0.3,1.4,0.7,2.1,1c2.8,1.4,5.5,3.1,8.1,5c0.6,0.5,1.3,1,1.9,1.4
		c1.3,1,2.5,1.9,3.8,2.9c0.1,0.1,0.3,0.2,0.4,0.3c0.4,0.3,0.8,0.6,1,1c1.1,2,2.5,3.6,3.6,5.5c0.3,0.5,0.5,1,0.7,1.4
		c0.7,1.9,0.3,3.5-0.6,4.9c-0.2,0.3-0.5,0.7-0.8,1s-0.7,0.6-1,0.8c-0.4,0.3-0.8,0.5-1.2,0.7c-0.8,0.4-1.7,0.7-2.6,0.9
		s-1.8,0.3-2.7,0.4c-1,0.1-2.1,0.2-3.1,0.3c-0.5,0-1,0.1-1.5,0.1c-0.6,0-1.3,0.1-1.9,0.1c-0.6,0-1.2,0-1.7,0c-0.2,0-0.3,0-0.5,0
		c-0.4,0-0.9,0-1.3-0.1c-0.2,0-0.3,0-0.5,0c-0.6-0.1-1.2-0.1-1.8-0.2c-0.2,0.2-0.3,0.3-0.5,0.3l0,0c-0.1,0-0.2,0-0.2-0.1
		c-0.1-0.1-0.1-0.2-0.2-0.3l0,0c-1.1-0.1-2.2-0.2-3.3-0.2c0,0.3-0.1,0.5-0.1,0.8c1.9,1.1,3.9,2.2,5.8,3.3c5.2,3.1,10.4,6.1,15.3,9.6
		c0.7,0.5,1.4,1,2.1,1.6c0.7,0.6,1.4,1.1,2,1.8c1.3,1.2,2.5,2.6,3.6,3.9c0.6,0.7,1.1,1.4,1.7,2.1c0.7,0.8,1.3,1.6,1.9,2.4
		s1.2,1.7,1.8,2.5c0.2,0.3,0.4,0.6,0.6,1c0.4,0.7,0.7,1.3,0.8,2.1c0.1,0.4,0.1,0.8,0.1,1.2c-0.1,1.2-0.6,2.3-1.3,3.1
		c-0.6,0.6-1.3,1-2.2,1.2c-0.3,0.1-0.6,0.1-0.9,0.1c-0.8,0-1.7,0-2.5-0.1c-0.5-0.1-1.1-0.2-1.6-0.4c-0.8-0.2-1.5-0.6-2.2-1.1
		c-0.1-0.1-0.3-0.2-0.4-0.2c-0.4-0.2-0.9-0.2-1.4-0.3c0,0.2,0,0.3-0.1,0.5c0,0.1,0,0.1,0,0.2c0.4,0.9,1,1.7,1.6,2.5
		c0.4,0.5,0.8,1,1.2,1.5c0.6,0.8,1.2,1.5,1.8,2.3c1.4,2.1,2.7,4.2,3.8,6.4c0.4,0.7,0.8,1.5,1.1,2.2c0.4,0.7,0.6,1.4,0.6,2
		c0,0.4,0,0.8-0.1,1.2c-0.2,0.6-0.5,1.1-1,1.6c-1,1.1-2.7,1.4-4.4,0.9c-0.2-0.1-0.5-0.2-0.7-0.3c-2.5-1.1-4.6-2.7-6.7-4.4
		c0,0.2-0.1,0.5-0.1,0.7c0.4,2.1,0.8,4.2,1.6,6.1c0.3,0.7,0.6,1.3,0.9,1.9c0.2,0,0.3,0,0.4,0.1c0.2,0.1,0.4,0.3,0.5,0.5
		c0,0.1,0,0.3,0,0.4c0.1,0.1,0.2,0.2,0.2,0.3c0.4,0.5,0.9,1,1.3,1.6c0.7,0.1,1.1,0.4,1.3,0.9c0.1,0.2,0.1,0.4,0.1,0.6
		c2,2.7,3.9,5.4,5.8,8.1c0.3,0,0.5,0.1,0.7,0.3c0.1,0.1,0.1,0.2,0.1,0.3c0,0.1,0,0.3,0,0.4l0,0c0,0.1,0,0.2,0.1,0.4
		c0.5,0,0.8,0.3,0.8,0.6c0,0.1,0,0.3,0,0.4c0.8,2.2,2.4,3.9,3.6,5.9c0.9,1.6,1.9,3.1,2.9,4.7c1.9,3.1,3.9,6.2,5.8,9.3
		c1,1.6,1.9,3.1,2.8,4.7c2.1,3.5,4.1,7.2,5.3,11.1c0.2,0.6,0.3,1.1,0.5,1.7v0.1c0,0.1,0.1,0.2,0.1,0.2v0.1c-0.4,3.4,1.9,5.8,3.5,8.4
		c0.1,0.3,0.3,0.5,0.4,0.8c0.3,0.5,0.6,1,0.8,1.6c0.1,0.3,0.2,0.6,0.3,0.9s0.2,0.7,0.2,1c0,0.1,0,0.2-0.1,0.4
		c-0.2,0.8-0.4,1.4-0.7,1.9c-0.1,0.2-0.1,0.3-0.2,0.4c-0.1,0.3-0.3,0.5-0.4,0.6c-0.3,0.3-0.6,0.4-1,0.3c-0.2,0-0.4-0.1-0.7-0.2
		c-0.1-0.1-0.2-0.1-0.4-0.2c-0.4-0.2-0.8-0.6-1.4-1c-0.4-0.3-0.8-0.6-1.2-0.8c-0.4-0.2-0.8-0.5-1.2-0.7s-0.8-0.4-1.2-0.7
		c-0.8-0.5-1.5-1-2.1-1.6c-0.3-0.3-0.7-0.6-1-1c-0.6-0.6-1.2-1.2-1.9-1.7s-1.4-1-2.1-1.6c-3.2-2.8-6.4-5.4-9.7-8.1
		c-0.9-0.7-1.7-1.7-2.8-2.1c-0.1,0.1-0.2,0.2-0.3,0.2l0,0c1,3.3,3.1,6.1,4.8,9c0.9,1.5,1.8,2.9,2.7,4.3c1,1.4,2,2.7,3,4.1
		c1.6,2,3.2,3.9,4.8,5.9c0.5,0.6,1.1,1.3,1.7,1.9c0.7,0.8,1.3,1.5,1.9,2.3c0.9,1.2,1.8,2.4,2.4,3.7c0.2,0.4,0.4,0.9,0.6,1.3
		c0.4,0.9,0.7,1.9,0.9,2.9c0.3,1.5-0.2,3.1-1.2,4.2c-0.5,0.5-1,0.9-1.6,1.1c-0.5,0.2-1,0.3-1.5,0.3c-0.6,0-1.1,0-1.7-0.1
		c-0.2,0-0.3,0-0.5-0.1c-0.4-0.1-0.8-0.1-1.2-0.2c-0.2,0-0.3-0.1-0.5-0.1c-0.5-0.1-1-0.3-1.5-0.5s-1-0.4-1.5-0.7
		c-1-0.5-1.9-1.2-2.7-2.1c-0.8-0.8-1.6-1.8-2.2-2.9c-0.4-0.6-0.8-1.2-1.4-1.6c-0.3,0-0.6,0-1,0.1c0.2,0.9,0.4,1.7,0.7,2.5
		c0.2,0.8,0.5,1.7,0.8,2.5c0.6,1.7,1.2,3.3,1.8,4.9c0.2,0.6,0.4,1.1,0.6,1.7c0.6,1.7,1,3.4,1.5,5.2c0.5,1.7,0.9,3.5,1.5,5.2
		c0.2,0.6,0.4,1.1,0.6,1.7c1.3,3.3,2.8,6.4,4.6,9.4c0.3,0.5,0.6,1.1,0.9,1.7c0.6,1.1,1.2,2.2,1.9,3.3c0.3,0.5,0.7,1.1,1.1,1.6
		c0.1,0.1,0.2,0.3,0.3,0.4c0.7,0.9,1.6,1.6,2,2.7c0.1,0,0.1,0,0.2,0.1l0,0c-0.5-1.8-0.3-2.7,0.8-3.2c1.1-0.4,1.9,0,2.9,1.8
		c1.4,2.3,2.8,4.5,4.7,6.3c6.3,6.4,13.9,10.8,22.6,12.9c1.8,0.5,1.9,0.4,2-1.5c0.2-7.9,0.3-15.8-0.6-23.7
		c-1.5-14.3-4.1-28.5-6.4-42.7c-1.4-8.4-4.9-16.1-10.1-22.8c-5.9-7.5-11.7-15.2-17.9-22.5c-1-1.2-2-2.5-2.4-4.1
		c-0.7-2.4-0.2-4.6,1.6-6.4s4-2.2,6.4-1.4c0.9,0.3,1.8,0.8,2.6,1.2c2.6,1.5,4.9,3.3,7.3,5.1c2.7,2.1,5.5,4.1,8.4,6
		c0.4,0.3,0.8,0.8,1.5,0.5c0-0.2,0.1-0.3,0.1-0.5c-0.7-6.6-2.2-13.1-4.8-19.3c-4.2-10.1-9-19.8-14.4-29.3
		c-5.2-9.2-10.3-18.6-16.3-27.4c-0.9-1.3-1.5-2.6-2.2-4c-0.3-0.5-0.5-1-0.6-1.6c-0.3-1.8,0.7-3.1,2.6-3.3c1.1-0.1,2.1,0.2,3,0.7
		c1.2,0.7,2.4,1.5,3.6,2.3c0.5,0.3,0.9,1,1.4,0.8c1.2-0.5,1.6,0.4,2.1,1c2.1,2.6,4.2,5.3,6.3,7.9c0.3,0.4,0.5,1.1,1.2,0.9
		c0.3-0.5,0.2-0.9,0.2-1.4c0.2-3.8-0.5-7.5-1-11.2c-1.1-8.6-4-16.6-7.2-24.6c-0.4-1-1-2-1.6-2.9c-5.7-9.1-13-16.6-23-21
		c-1.1-0.5-2.2-1.1-3.2-1.6c-6.4-3-11.4-7.9-16.6-12.5c-0.4-0.4-0.7-0.9-1-1.3c-0.5-0.8-0.9-1.7-1-2.7c-0.1-0.8,0.1-1.6,0.9-2.1
		c0.8-0.5,1.6-0.3,2.2,0.3c1,0.8,2.1,1.5,3.2,2.1c4.4,2.3,9.2,3.6,14,4.9c0.8,0.2,1.6,0.2,2.4,0c2.3-0.7,4.7-0.8,7.1-0.8
		c2.5,0,5-0.1,7.4-0.1c0.8,0,1.7,0.1,2.4-0.6c-0.1-0.2-0.2-0.4-0.3-0.5c-1.2-0.4-2.4-0.9-3.6-1.3c-6.6-2.5-13-5.4-18.1-10.6
		c-4.2-4.2-8.2-8.5-12.8-12.3c-4.5-3.7-3.1-9.4,2.5-11.2c1.8-0.6,3.6-0.8,5.4-1c3.6-0.4,7.1-1.3,10.3-3c0.5-0.2,1.1-0.3,1.2-1.1
		c-0.9-1.3-2.2-2-3.6-2.6c-5.1-2.2-9.9-4.8-14.7-7.5c-2.4-1.4-5-2.8-6.8-4.9c-1.3-1.4-2.6-1.8-4.4-1.7c-1.7,0.2-3.4-0.1-5-0.4
		c-0.9-0.2-1.7-0.7-1.8-1.7c-0.1-1.1,0.5-1.8,1.5-2.1c0.3-0.1,0.6-0.2,0.9-0.3c3-0.8,6-1.6,9-2.4c1-0.3,2.2-0.4,3.1-0.9
		c-0.1-0.2-0.1-0.4-0.2-0.5c-5-4.7-10.9-7.2-17.9-6.3c-0.6,0.1-1.3,0.2-1.9,0.2c-6.7,0.5-10.6-4.9-8.1-11.2c0.8-2,2-3.8,3.1-5.7
		c0.2-0.4,0.8-0.8,0.3-1.5c-1.3,0.4-2.6,0.9-3.9,1.1c-3.6,0.5-5.8-2.4-4.4-5.8c0.4-1.1,1.1-2,1.9-2.8c0.9-0.9,1.8-1.8,2.8-2.6
		c0.7-0.6,0.8-1.1,0.2-1.8c-1.7-1.9-2.5-4.2-3.3-6.6c-1.6-4.7-2.6-9.6-3.4-14.5c-1.4-8.5-3.3-16.9-6.1-25.2
		c-2.4-7.2-5.8-13.9-10.3-20c-4.3-5.8-8.8-11.6-13.5-17.2c-7-8.5-15.4-15.4-25-20.6c-6-3.3-12.1-6.5-18.6-9s-13-2-19.5,0.3
		c-1.2,0.4-2.1,1.1-2.4,2.4c-1.2,4.8-3,9.5-3.9,14.3c-0.9,4.6-2.4,9.1-4.5,13.4c-3.2,6.6-6.9,13-11.5,18.8
		c-3.6,4.5-6.9,9.2-9.5,14.4c-0.5,0.9-1,1.8-1.1,2.9c-0.3,3.6-0.8,7.2-0.4,10.8c0.7,5.8,1.8,11.5,3.2,17.2c0.7,3.1,1,6.2,0.4,9.3
		c-0.7,3.1-1.4,6.2-2.4,9.3c-0.4,1.1-0.8,2.3-1.6,3.2c-1,1.2-2.1,1.7-3.1,1.3c-1.3-0.6-1.2-1.7-1.2-2.8c0-2.2,0.1-4.5,0-6.7
		c0-1.4-0.2-2.9-0.4-4.3c-0.3-2-0.9-3.7-2.6-4.9c-1.3-1-2.3-2.2-3.3-3.5c-1.8-2.3-4-4.4-6.3-6.3c-0.9-0.7-1.5-0.9-2.5-0.2
		c-1.6,1.2-3.4,1.8-5.4,1.7c-0.9,0-1.7,0.3-2.4,0.9c-2.1,1.9-4.7,2.6-7.5,2.6c-2.2,0-4.5-0.1-6.7-0.1c-2.7,0-5.2,0.4-7.7,1.3
		c-3.6,1.3-7,3.2-10.5,4.7c-3.6,1.6-7.1,2.3-11,1.2c-1.1-0.3-1.5,0.1-1.6,1.1c-0.1,0.9-0.1,1.8-0.1,2.6c0,1.5-0.1,3-0.6,4.5
		c-1.5,4-5.5,5.7-9.4,4c-1-0.4-1.8-1-2.6-1.7c-6-5.6-9.7-12.4-10.3-20.7c-0.2-2.3,0.8-4.7-0.1-6.9s-2.3-4.2-3.3-6.4
		c-0.2-0.5-0.2-1.2-1.1-1.1c-1.4,2.8-2.2,5.8-2.5,8.9c-0.1,1-0.2,1.9-0.5,2.8c-0.7,1.7-1.9,2.8-3.8,2.9c-1.8,0.1-3.2-0.8-4.1-2.4
		c-0.6-1-0.7-2.1-0.8-3.2c-0.2-3.3,0.2-6.5,1.1-9.7c0.3-1,0.5-1.9-0.4-2.9c-0.4,0.4-0.7,0.6-1,0.9c-4.3,4.5-8.4,9.2-10.4,15.3
		c-0.3,0.9-0.7,1.8-1.2,2.6c-0.2,0.5-0.5,1-0.9,1.4c-1,1.2-2.4,0.9-3.1-0.5c-0.4-0.8-0.4-1.7-0.3-2.6c0.3-2.1,0.5-4.3,0.9-6.4
		c0.3-1.7,0.8-3.3,1.8-4.7c1.4-1.9,2.1-4.1,2.8-6.3c2.1-6.2,3.2-12.5,3.5-19c0.2-3.2-0.6-5.9-2-8.7c-3.5-6.6-8.2-12.4-12.8-18.2
		c-3.1-3.9-6.1-7.8-8.6-12.1c-0.9-1.6-2-3.1-3.2-4.5c-1.8-2.1-3.5-4.3-5.1-6.7c-2.3-3.3-5-6.3-7.5-9.4c-2.8-3.5-6.5-4.2-10.6-3.5
		c-1.2,0.2-2.3,0.6-3.4,1c-6.8,2.5-12.4,6.5-17.2,11.8c-3.9,4.3-7.8,8.7-11.1,13.5c-9.4,13.5-17,27.8-19.5,44.4
		c-0.4,2.6-0.8,5.2-1.2,7.8c-0.4,2.8-0.8,5.5-1.7,8.2c-1.4,4.1-4.1,7-8.2,8.4c-0.5,0.2-0.9,0.3-1.4,0.5c-2.6,0.8-4.4,2.4-5.8,4.8
		c-1.5,2.6-2.6,5.3-3.5,8.1c-2.6,8.3-4.4,16.9-5.5,25.5c-1,7.5-1.8,14.9-0.8,22.5c0.9,6.4,1.9,12.8,5.1,18.6
		c0.2,0.3,0.3,0.7,0.5,1.1c0.4,1.3,0.2,2.5-0.9,3.5c-1,0.9-2.4,1.1-3.8,0.3c-0.7-0.4-1.3-0.9-1.9-1.4c-1.3-1.1-2.4-2.4-3.3-3.8
		c-0.5-0.8-1-1.1-2-0.6c-1.9,0.9-3.9,1.4-5.9,1.8c-1.4,0.3-2.7,0.8-4,1.6c1.5,2.2,3,4.2,3.8,6.5c0.2,0.6,0.7,0.8,1.2,1.2
		c2.5,2.1,2.8,4.8,0.7,7.3c-1.1,1.3-2.5,2.2-3.9,3.2c-10.1,6.4-18.3,14.7-24.9,24.6c-2.1,3.1-3.9,6.4-5.3,9.9
		c-0.6,1.5-0.5,1.7,1,2.4c1,0.5,2,0.5,3,0.8c2.5,0.7,3.8,2.7,3.3,5.1c-0.2,1-0.8,1.9-1.4,2.8c-1.7,2.4-3.6,4.7-5.6,6.9
		c-2.4,2.6-4.6,5.3-6.7,8.2c-5.4,7.8-10.1,15.9-14.2,24.5c-1.9,4-3.3,8.2-4.3,12.4c-2,8.3-1.9,16.7-1.7,25.1c0,0.2,0.2,0.4,0.3,0.5
		c0.5,0,0.8-0.3,1.1-0.6c3.4-3.2,6.8-6.6,10-10c2.6-2.8,4.8-6,6.5-9.4c1.7-3.6,4.1-6.8,6.8-9.9c3.1-3.6,6.9-5.9,11.6-6.7
		c2.6-0.5,4.1-0.1,4.9,1.3s0.4,2.8-1.4,4.7c-1.2,1.3-2.9,2.3-3.2,4.3c0,0.2-0.3,0.4-0.5,0.5c-2.1,0.5-2.5,2.3-3.2,3.9
		c-2,4.5-4.1,8.8-6.7,13c-7.8,12.2-16.3,23.9-26.6,34.2c-2.3,2.3-4.5,4.6-6.7,6.9c-0.4,0.4-1,0.6-0.8,1.3
		C220.4,399.5,221,399.3,221.5,399.3z M670.5,240c4,2.4,8.1,3.2,12.4,0.5c0.8-0.5,1.7-0.6,2.4,0.2c0.7,0.7,0.8,1.7,0.1,2.4
		c-2.1,2.3-3.6,5.1-6.4,6.6c-1.8,1-3.9,1.4-5.9,1.8c-0.3,0.1-0.6,0.2-0.9,0.2c0,0.8,0.6,0.7,1,0.8c1.6,0.4,3.1,0.7,4.7,1.1
		c3.6,1.1,7.3,0.9,10.9,0.2c0.3-0.1,0.6-0.2,0.9-0.3c0.7-0.1,1.3,0,1.7,0.6c0.5,0.7,0.3,1.4-0.1,2c-0.9,1.1-2.1,1.7-3.3,2.3
		c-2.8,1.3-5.8,1.9-8.7,2.8c-0.6,0.2-1.3,0.2-1.8,0.7c0.4,0.9,1.3,1.1,2,1.5c1.7,1.2,3.5,2.2,5,3.7c0.6,0.6,0.9,1.4,0.3,2.1
		c-0.5,0.7-1.2,0.6-2,0.3c-2.5-1-5.1-1.9-7.6-2.8c-3.1-1.1-6.3-1.7-9.6-1.7c-3.2,0-6.4-0.4-9.6-0.8c-3.3-0.4-5.9-1.9-7.9-4.5
		c-0.3-0.4-0.7-0.9-1-1.3c-1.3-2.4-2.8-4.3-5.8-4.8c-1.5-0.3-2.7-1.4-3.8-2.5c-3.9-4.2-6.4-8.9-4.3-15c0.8-2.4,1.5-4.9,2.2-7.3
		c0.5-1.8,1.3-3.4,2.6-4.8c1.2-1.3,2.7-2,4.5-1.5s2.8,1.8,3.2,3.6c0.2,1,0.2,1.9,0,2.9c-0.1,0.8-0.6,1.5-0.3,2.4
		c1.2-0.7,2.1-1.8,3.1-2.6c1.9-1.6,3.8-3.2,5.7-4.7c1.4-1.1,1.6-1,2.4,0.5c0.2,0.4,0.4,0.6,0.8,0.9c1.8,1.3,2.2,3.1,1.7,5.1
		c-0.3,1.2-0.3,2,1,2.5c0.7,0.3,1.4,0.8,1.6,1.4c0.7,1.9,2.3,2.4,4,3.1C667.4,238.1,668.9,239,670.5,240z M565.7,150.1
		c1.5-2.7,2.9-5.5,4.6-8.1c1.1-1.7,2-3.4,2.4-5.4c0.2-0.8,0.4-1.5,0.6-2.3c0.6-2.6,2.2-4.6,4.5-6c1-0.6,2-1.3,3-1.9
		c1.7-0.9,2.6-2.4,2.9-4.2c1.1-7,3-13.9,4-21c0.3-2.2,0.3-4.5,0-6.7c-0.3-2.7-0.7-5.4-0.7-8.1c0-0.7,0-1.5,0.2-2.1
		c0.6-2.5,2.7-3.8,4.8-3.4c0.1-0.2,0.2-0.4,0.3-0.6c0.2-0.3,0.5-0.6,0.7-0.9c1.3-1.1,3.2-1.5,5.3-0.7c1.9,0.8,3.6,1.7,5.1,2.8
		c1,0.7,2,1.6,2.9,2.5c1.3,1.4,2.5,2.9,3.5,4.7c0.5,0.9,1.1,1.8,1.6,2.7c0.5,0.9,1,1.8,1.4,2.8c0.1-0.2,0.3-0.3,0.4-0.5
		c0.2-0.2,0.3-0.3,0.5-0.5c0.2-1.4,1.3-1.8,2.4-1.8c0.9,0,1.7,0.4,2.3,0.9c0.4,0.3,0.7,0.8,0.9,1.2c0.3,0.6,0.6,1.2,0.8,1.8
		c0.1,0.2,0.1,0.4,0.2,0.6c0.8,3.4,2.2,6.5,3,9.9c0.3,1.1,0.5,2.3,0.5,3.4c0.1,1,0.7,1.7,1.4,2.4c2,1.9,3.7,4,5.1,6.3
		c-0.1-0.4-0.2-0.8-0.2-1.2c-0.2-0.8-0.9-1.9,0.3-2.3c1.2-0.5,1.7,0.6,2.1,1.5c0.8,2.1,1.7,4.2,2.3,6.3c1,3.7,3,6.4,6.4,8.2
		c5.5,3,9,7.7,10.9,13.7c1.4,4.4,2.7,8.9,3,13.6c0.1,0.9,0.4,1.7,0.7,2.5c1,2.4,1.4,4.9,1,7.5c-0.3,1.8,0,3.5,0.8,5.1
		c0.5,1.1,1,2.2,1.6,3.2c2.4,4.3,2.7,8.8,1.3,13.5c-0.6,2.1-1.4,4.1-2.3,6.1c-0.5,1.1-0.3,1.4,0.9,1.6c1.1,0.1,2.2-0.1,3.3-0.2
		c0.9-0.1,1.7-0.3,2.6-0.2c1.6,0.2,2.4,1.1,2.5,2.7c0.1,1.2-0.2,2.2-0.7,3.2c-3.2,5.9-7.8,9.5-14.7,9.3c-1,0-1.9,0.2-2.9,0.2
		c-4.1,0.2-6-2.3-4.6-6.1c0.3-0.7,0.3-1.3,0-2c-0.7-1.8-1.4-3.6-2.1-5.4c-0.6-1.6-1.6-2.5-3.3-2.7c-1-0.1-2.1-0.3-3-0.7
		c-3-1.3-4.3-4.1-3.4-7.3c0.4-1.5,1.4-2.7,2.4-4.4c-5.2,0.2-9.8,0.7-14.3,2.1c-1.4,0.4-2.7,0.9-4.1,1.2c-4.3,1-7.7-1.5-8-5.9
		c-0.1-1.4,0.1-2.9,0.4-4.3c0.2-0.7,0.5-1.3,0.2-2.3c-2.1,0.2-3.9,1.1-5.5,2.4c-0.6,0.5-1.2,1-1.9,1.5c-1.8,1.2-3.7,1.6-5.7,0.5
		c-1.9-1-2.9-2.6-2.8-4.7c0.2-6.6-2.5-12.3-5.5-17.9c-0.1-0.2-0.3-0.4-0.5-0.6c-1.5,0.8-2.4,1.9-2.7,3.6c-0.7,3.5-1.7,6.8-2.8,10.2
		c-0.9,2.7-2.1,5.2-3.7,7.5c-0.6,0.9-1,1.8-1.4,2.8c-0.3,1-0.7,2-1.3,2.8c-1.1,1.7-2.7,2.8-4.8,2.5c-2.1-0.2-3.5-1.5-4.2-3.5
		c-0.8-2.1-0.8-4.2-0.7-6.4c0.4-6.9,0.8-13.7,4.2-20.2c-1.6-0.3-2.9-0.6-3.9-1.8C565.3,152.2,565,151.3,565.7,150.1z M321.6,206.1
		c1.3-0.3,1.1-1.2,1-2c-0.2-2-0.5-4-1-5.9c-2.1-8.4-2-16.9-1.1-25.5c0.1-1.3,0.3-2.5,0.9-3.7c0.8-1.7,1.9-2.5,3.3-2.3
		c0.8,0.1,1.4,0.5,1.9,1.1c0.3-2.2,0.8-4.3,1.5-6.4c0.8-2.3,1.8-4.5,3.3-6.3c1.4-1.7,2.1-3.5,2.3-5.6c0.5-4.2,1.8-8.2,2.6-12.4
		c0.3-1.3,0.4-2.7,0.4-4c0-3.8-0.2-7.5,0.5-11.2c0.3-1.6,0.8-3.1,1.6-4.5c0.5-1,1.3-1.7,2.5-1.5c1.1,0.2,1.9,1,2.1,2
		c0.4,1.7,0.9,3.4,1.1,5.1c0.2,2.2,0.7,4.4,2.2,6.2c0.3,0.3,0.5,0.6,1,0.7c0.7-0.6,0.8-1.5,1-2.3c0.5-1.9,0.9-3.7,1.6-5.5
		c0.3-0.8,0.4-1.5,0.4-2.3c-0.3-10.1,2-19.8,4.8-29.4c0.2-0.8,0.4-1.7,0.8-2.5c0.8-1.6,1.8-2.7,3.8-2.9c2-0.1,3.4,0.7,4.4,2.3
		c0.3,0.5,0.5,1.2,0.9,1.9c1.8-2,3-4.1,3.9-6.5c0.9-2.2,2.1-4.2,3-6.3c0.2-0.4,0.4-0.7,0.7-1c1-1.2,2.1-1.8,2.9-1.4l0,0
		c0.4-1,1.1-1.8,2.3-1.9c1.3-0.1,2.1,0.6,2.7,1.7c0.3,0.6,0.5,1.2,0.7,1.8c0.7,2.2,1.4,4.4,2.1,6.6c0.3,1.1,0.9,2,1.9,2.7
		c2,1.3,3,3.5,4.5,5.3c0.2,0.3,0.3,0.7,0.4,1.1c1.1,6.7,4.2,12.6,7.5,18.3c2,3.4,4.8,6.2,8.1,8.4c3.3,2.3,4.1,4.1,2.8,7.9
		c-1.3,3.9-1.4,7.9-1.7,11.8c-0.1,0.7,0.3,1.4,0.6,2c1.6,3.5,3.7,6.7,6.4,9.5c1.6,1.7,3,3.5,4.3,5.5c0.7,1.1,0.8,2.1,0.1,3.1
		c-0.7,1.1-2,1.6-3.4,1.3c-1.1-0.2-1.9-0.8-2.7-1.5c-4.5-3.5-8.4-7.7-11.1-12.7c-0.2-0.3-0.4-0.7-0.9-1.4c-0.8,2.2-1.1,4.1-1.2,6
		c-0.3,3.7-0.2,7.3,0.2,11c0.7,5.3-2.2,8.5-7.5,8.4c-0.5,0-1,0-1.4-0.1c-1.7-0.1-2.9,0.6-3.8,2c-1.6,2.4-2.6,5.1-3.4,7.9
		c-1.2,4.4-2,8.9-2.8,13.4c-0.2,1.3-0.5,2.5-0.9,3.7c-0.7,2-2.1,3.2-4.3,3.3c-2.2,0.1-3.6-0.9-4.7-2.7c0-0.1-0.1-0.1-0.1-0.2
		c-0.7-3.5-3.2-5.3-6.3-6.5c-0.6-0.3-1.2-0.8-1.8-1.2c-1,0.9-1.6,2.1-2.2,3.2c-4.4,8.5-8.4,17.1-11.3,26.2c-0.5,1.7-1.6,2.7-3,3.5
		c-3.7,2.1-7.2,4.5-10.4,7.2c-0.8,0.7-1.7,1.5-2.5,2.3c-2.3,2.3-3.7,2.3-6,0.1c-0.9-0.9-1.7-1.7-1.9-3c-0.2-0.9-0.8-1.5-1.5-2.1
		c-2-1.9-3.2-4.2-3.8-6.8c-0.7-2.9-1.2-5.8-1.4-8.7C318.2,207.8,318.9,206.8,321.6,206.1z"/>
	<path class="st2" d="M209.6,577.3c1.8-0.8,3.7-1.4,5.8-1.6c4.4-0.2,7.2,3.4,5.8,7.6c-0.2,0.6-0.5,1.2-0.7,1.8
		c-1.6,4-3.9,7.7-6.4,11.3c-3.4,4.9-6.3,10-8.5,15.5c0.9-0.3,1.8-0.6,2.7-0.9l2.3-0.7l0.6-0.2l0.3-0.1c0.1-2.2,0.8-4.3,1.6-6.3
		c2.8-7,6.3-13.6,10.8-19.7c3.9-5.3,7.2-10.9,10.4-16.6c1-1.8,2-3.5,3.2-5.2c-1.2-1.3-1.9-3.1-2-5.1c0-1.6,0.3-3.2,0.7-4.7
		c1.2-4.4,1.4-8.8,1.6-13.3c0.1-1.4-0.3-2.5-1.1-3.5c-2.6-3.3-5.1-6.8-7.1-10.6c-0.2-0.3-0.3-0.8-1-0.7c-3.7,9.8-6.5,20.1-11.8,29.4
		c-5.2,9.2-10.4,18.5-16.6,27.6c1.6,0,2.5-0.6,3.4-1C205.6,579.3,207.6,578.3,209.6,577.3z"/>
	<path class="st2" d="M827.1,657.6c-1.8-3.5-3.9-6.9-6.4-9.9s-5.3-5.8-8.4-8.3c-3.1-2.4-6.4-4.6-9.9-6.3l0,0l-5.2-2.3
		c-0.6-0.5-1.1-1-1.7-1.5c-1.3-1.1-2.7-2.2-4.2-3c-6.2-3.4-13.1-5.4-20-6.5c-3.5-0.6-7-1-10.5-1.2c-2.3-0.1-4.6,0-6.9-0.4
		c-2.5-0.4-4.9-1.5-7.4-1.7c-1-0.1-2,0-2.9,0.1c-8.1,0.8-16.1,2-23.9,4.4c-3.9,1.2-7.7,2.7-11.4,4.5c-3.5,1.8-6.6,4.3-10.3,5.7
		c-0.9,0.3-1.8,0.7-2.6,1.1c-18.6,8-35.3,23.7-41.7,43.1l0,0c1.7-0.4,3.7,0.3,5-0.8c0.5-0.4,0.8-1.1,1.1-1.7c3-6.5,5.9-13.2,11-18.2
		c6.2-6.2,16-8.6,23.3-2.9c0,0,0,0,0-0.1l0.1,0.1c0.4,0.3,0.8,0.7,1.2,1.1l0,0c0.1,0.1,0.3,0.2,0.4,0.4c0.5,0.4,0.9,0.9,1.3,1.4
		c0.1,0.1,0.1,0.2,0.2,0.3c-0.6,0-1.2,0-1.9,0.1c-1.3,0.1-2.6,0.5-3.9,0.9c-2.5,0.9-4.8,2.3-7,3.8c-0.5,0.4-1.1,0.8-1.6,1.2
		l-0.8,0.6l-1.5,1.1l-0.8,0.6c0,0,0.8-0.2,0.9-0.2c3.9-1,7.7-1,11.4,0.7c0.3,0.1,0.6,0.3,0.9,0.5c0.3,0.2,0.6,0.3,0.8,0.5
		c0.6,0.3,1.1,0.8,1.6,1.2c1,0.9,1.9,1.8,2.6,2.9c0.9,1.2,1.6,2.5,2.2,3.8l0,0c-0.1,0.4-0.2,0.7-0.3,1.1c-0.1,0.2-0.1,0.5-0.2,0.7
		v0.1c-0.1,0.4-0.1,0.8-0.2,1.3c0,0.1,0,0.2,0,0.3s0,0.2,0.1,0.3c0,0.2,0.1,0.4,0.1,0.6V677v0.1c0,0,0,0,0,0.1l0,0
		c0.1,0.7,0.3,1.4,0.4,2.1c0.2,0.8,0.4,1.7,0.5,2.5c1,1.7,2.1,3.5,2.8,5.4c0.1,0.2,0.1,0.4,0.2,0.6c0,0.1,0,0.1,0,0.2
		c0.1,0.2,0.1,0.4,0.1,0.5l0,0c0,0.2,0.1,0.4,0.1,0.6c0,0.1,0,0.1,0,0.2c0,0.2,0.1,0.3,0.1,0.5v0.1c0,0.2,0.1,0.4,0.1,0.5
		s0,0.1,0,0.2c0,0.1,0,0.3,0,0.4c0,0.1,0,0.2,0,0.3s0,0.3,0,0.4c0,0.1,0,0.2,0,0.3s0,0.2,0,0.3c0,0.2,0,0.4,0,0.6v0.1
		c0,0.1,0,0.3,0,0.4l0,0c0,0.3,0,0.6,0,0.9c0.1,0.1,0.2,0.3,0.3,0.4c0.5,0.7,1.1,1.4,1.7,2c0.3,0.3,0.6,0.6,0.9,0.9
		c2.4,2.1,4.8,4,8,4.7c4.9,1.1,10-0.5,15.1-0.1c1,0.1,2,0.2,2.9-0.1c1.7-0.7,2.8-3.5,3.7-5c1.4-2.4,2.5-4.9,3.5-7.4
		c1.8-4.9,2.9-10,3.3-15.2c0.6-8.2-0.9-16.5-4.1-24c-1.6-3.8-3.7-7.3-6.1-10.6c-2.4-3.3-5.2-6.4-8.2-9.1c-0.4-0.4-0.8-0.7-1.1-1
		l-2-1.7l0,0l0,0h0.1h0.2l0.4,0.1l0.7,0.2l1.1,0.3l0.4,0.1l0.4,0.1l0.7,0.2c2,0.6,3.9,1.4,5.7,2.3c17,8.9,24.3,26.8,25.4,45
		c0,0.1,0,0.2,0,0.4c0,0.5,0,1.1,0,1.6s0,1-0.1,1.5c0,0.5-0.1,1-0.1,1.4c0,0.1,0,0.1,0,0.2c0,0.3-0.1,0.7-0.1,1s-0.1,0.7-0.2,0.9
		c0,0.2-0.1,0.4-0.1,0.7c-0.5,3-1.5,6-2.5,8.9c-1,3.1-2.8,6.1-1.5,9.3c2.7,6.9,8.8,9,15.4,10.1c0.9,0.1,1.8,0.2,2.7,0.4
		c1.1,0.1,2.2,0.3,3.3,0.4c1.3,0.1,2.6,0.3,3.9,0.4c0.2,0,0.5,0,0.7,0.1c0.2,0,0.4,0,0.7,0c0.5,0,0.9,0,1.4,0v-0.1
		c0.6-2.6,1.9-4.9,3.1-7.2c5.6-10.9,7.8-23.9,6-36.3c-1.6-11.5-8.1-22.2-16.2-30.4c-0.8-0.8-1.7-1.8-1.5-2.9
		c2.8,0.7,5.9,3.1,8.4,4.7c3.1,1.9,6,3.9,8.8,6.2c5,4.2,9.8,9.6,10.8,16.3c2,12.8,5.5,13.6,3.8,26.4c-0.5,3.4-2.5,6.5-3.2,10
		c-1,4.8-1.2,9.2-3,13.8c-0.1,0.3-0.3,0.6-0.3,0.9c-0.1,0.3-0.3,2.7-0.8,2.5c2.3,0.8,13.4,3,14-1.1l0.3-2.2l2.8-15.4
		c2.7-15.2,3.1-30.3-3.8-44.5c-1.5-3-4-8.8-6-10.6c0.2,0.2,0.5,0.4,0.7,0.6c3.8,3.6,7.3,6.9,10.1,11.4c3.3,5.2,6.1,11,8.3,16.7
		c0.2,0.5,0.3,0.9,0.5,1.4c0.6,1.9,1.1,3.7,1.5,5.6c0.8,3.8,1.2,7.6,1.2,11.5c-0.1,3.8-0.5,7.6-1.3,11.3c-0.3,1.1-0.6,2.3-0.9,3.4
		c0.3-0.1,0.7-0.2,1-0.3c1-0.4,1.8-1.1,2.4-1.8c0.7-0.8,1.2-1.6,1.7-2.5s0.9-1.8,1.2-2.8c0.2-0.5,0.3-1,0.4-1.4
		C834.3,683.7,833.1,669.5,827.1,657.6z M702.6,628.8C702.6,628.7,702.6,628.7,702.6,628.8C702.7,628.8,702.7,628.7,702.6,628.8
		C702.7,628.7,702.6,628.7,702.6,628.8z"/>
	<path class="st2" d="M293.2,632.3c-0.9-0.4-1.7-0.7-2.6-1.1c-3.7-1.4-6.7-4-10.3-5.7c-3.6-1.8-7.5-3.3-11.4-4.5
		c-7.8-2.4-15.8-3.6-23.9-4.4c-1-0.1-2-0.2-2.9-0.1c-2.5,0.2-4.9,1.3-7.4,1.7c-2.3,0.4-4.6,0.2-6.9,0.4c-3.5,0.2-7,0.6-10.5,1.2
		c-6.9,1.2-13.9,3.1-20,6.5c-1.5,0.8-2.9,1.9-4.2,3c-0.6,0.5-1.1,1-1.7,1.5l-5.2,2.3l0,0c-3.5,1.7-6.9,3.8-9.9,6.3
		c-3.1,2.5-5.9,5.3-8.4,8.3c-2.5,3.1-4.6,6.4-6.4,9.9c-6,12-7.2,26.1-3.7,39c0.1,0.5,0.3,1,0.4,1.4c0.3,0.9,0.7,1.9,1.2,2.8
		c0.5,0.9,1,1.7,1.7,2.5c0.7,0.7,1.5,1.4,2.4,1.8c0.3,0.1,0.7,0.2,1,0.3c-0.4-1.1-0.7-2.2-0.9-3.4c-0.9-3.7-1.3-7.5-1.3-11.3
		s0.4-7.7,1.2-11.5c0.4-1.9,0.9-3.8,1.5-5.6c0.2-0.5,0.3-0.9,0.5-1.4c2.2-5.7,5-11.5,8.3-16.7c2.8-4.4,6.3-7.8,10.1-11.4
		c0.2-0.2,0.5-0.4,0.7-0.6c-1.9,1.8-4.5,7.6-6,10.6c-6.9,14.2-6.5,29.3-3.8,44.5l2.8,15.4l0.3,2.2c0.6,4,11.7,1.8,14,1.1
		c-0.6,0.2-0.8-2.2-0.8-2.5c-0.1-0.3-0.2-0.6-0.3-0.9c-1.8-4.6-2.1-9-3-13.8c-0.7-3.4-2.8-6.5-3.2-10c-1.7-12.8,1.9-13.6,3.8-26.4
		c1-6.7,5.8-12.1,10.8-16.3c2.8-2.3,5.8-4.3,8.8-6.2c2.5-1.6,5.6-3.9,8.4-4.7c0.2,1.1-0.7,2.2-1.5,2.9c-8.1,8.2-14.6,18.9-16.2,30.4
		c-1.8,12.4,0.4,25.4,6,36.3c1.2,2.3,2.6,4.6,3.1,7.2v0.1c0.5,0,0.9,0,1.4,0c0.2,0,0.4,0,0.7,0c0.2,0,0.5,0,0.7-0.1
		c1.3-0.1,2.6-0.3,3.9-0.4c1.1-0.1,2.2-0.2,3.3-0.4c0.9-0.1,1.8-0.2,2.7-0.4c6.7-1.1,12.7-3.2,15.4-10.1c1.3-3.3-0.5-6.2-1.5-9.3
		c-1-2.9-2-5.9-2.5-8.9c0-0.2-0.1-0.4-0.1-0.7c-0.1-0.3-0.1-0.7-0.2-0.9c-0.1-0.3-0.1-0.7-0.1-1c0-0.1,0-0.1,0-0.2
		c0-0.5-0.1-0.9-0.1-1.4s0-1-0.1-1.5c0-0.5,0-1.1,0-1.6c0-0.1,0-0.2,0-0.4c1.1-18.2,8.4-36.1,25.4-45c1.8-1,3.8-1.7,5.7-2.3l0.7-0.2
		l0.4-0.1l0.4-0.1l1.1-0.3l0.7-0.2l0.4-0.1h0.2h0.1l0,0l0,0l-2,1.7c-0.4,0.3-0.8,0.7-1.1,1c-3,2.8-5.8,5.8-8.2,9.1
		c-2.4,3.3-4.4,6.9-6.1,10.6c-3.3,7.5-4.7,15.8-4.1,24c0.4,5.2,1.5,10.3,3.3,15.2c1,2.6,2.1,5,3.5,7.4c0.9,1.6,2,4.3,3.7,5
		c0.9,0.4,1.9,0.2,2.9,0.1c5-0.4,10.1,1.2,15.1,0.1c3.1-0.7,5.6-2.6,8-4.7c0.3-0.3,0.6-0.6,0.9-0.9c0.6-0.7,1.1-1.3,1.7-2
		c0.1-0.1,0.2-0.3,0.3-0.4c0-0.3,0-0.6,0-0.9l0,0c0-0.1,0-0.3,0-0.4v-0.1c0-0.2,0-0.4,0-0.6c0-0.1,0-0.2,0-0.3s0-0.2,0-0.3
		s0-0.3,0-0.4c0-0.1,0-0.2,0-0.3s0-0.3,0-0.4c0-0.1,0-0.1,0-0.2c0-0.2,0-0.4,0.1-0.5v-0.1c0-0.2,0.1-0.3,0.1-0.5c0-0.1,0-0.1,0-0.2
		c0-0.2,0.1-0.4,0.1-0.6l0,0c0-0.2,0.1-0.4,0.1-0.5s0-0.1,0-0.2c0.1-0.2,0.1-0.4,0.2-0.6c0.7-1.9,1.8-3.6,2.8-5.4
		c0.2-0.8,0.4-1.7,0.5-2.5c0.1-0.7,0.3-1.4,0.4-2.1l0,0c0,0,0,0,0-0.1v-0.1v0.1c0-0.2,0.1-0.4,0.1-0.6c0-0.1,0-0.2,0.1-0.3
		c0-0.1,0-0.2,0-0.3c0-0.4-0.1-0.9-0.2-1.3v-0.1c0-0.2-0.1-0.5-0.2-0.7c-0.1-0.4-0.2-0.7-0.3-1.1l0,0c0.6-1.3,1.4-2.6,2.2-3.8
		c0.8-1.1,1.7-2,2.6-2.9c0.5-0.4,1-0.8,1.6-1.2c0.3-0.2,0.6-0.3,0.8-0.5c0.3-0.2,0.6-0.3,0.9-0.5c3.7-1.7,7.5-1.7,11.4-0.7
		c0.1,0,0.9,0.2,0.9,0.2l-0.8-0.6l-1.5-1.1l-0.8-0.6c-0.5-0.4-1.1-0.8-1.6-1.2c-2.2-1.5-4.5-2.9-7-3.8c-1.3-0.4-2.6-0.8-3.9-0.9
		c-0.6-0.1-1.2-0.1-1.9-0.1c0.1-0.1,0.1-0.2,0.2-0.3c0.4-0.5,0.8-1,1.3-1.4c0.1-0.1,0.3-0.2,0.4-0.4l0,0c0.4-0.4,0.8-0.7,1.2-1.1
		l0.1-0.1v0.1c7.3-5.7,17.1-3.2,23.3,2.9c5.1,5,8,11.7,11,18.2c0.3,0.6,0.6,1.3,1.1,1.7c1.3,1.1,3.3,0.5,5,0.8l0,0
		C328.5,656,311.8,640.3,293.2,632.3z M285.7,628.7l0.1,0.1l0,0C285.8,628.7,285.8,628.7,285.7,628.7z"/>
</g>
<g>
	<path class="st3" d="M330.6,178.9c1.5,2.2,3.2,4.1,5.9,5.1c3,1.1,5.1,0.3,6.4-2.7c0.6-1.5,1.2-2.9,2.1-4.3c1.4-2.3,3.4-4,5.7-5.3
		c3.5-1.9,3.4-2.1,2.1-5.8c-2.4-6.5-3.8-13.2-3.5-20.2c0.1-2.4,0.9-4.5,2.1-6.5c1.6-2.6,4.1-2.6,5.7,0c0.7,1.1,1.2,2.3,1.8,3.4
		c3.3,6,10,9.6,16.6,8.7c0.1-0.1,0.2-0.3,0.1-0.4c-2.3-4.5-2.9-9.4-3.4-14.4c-0.2-1.9,0.4-3.5,2.1-4.5c1.6-0.9,3.1-0.6,4.5,0.5
		c0.2,0.1,0.4,0.2,0.7,0.3c0.7-1.3,0.5-2.7,0.5-4c0.1-8.3-1-16.4-2.2-24.6c-0.3-2.3-0.9-4.5-1.3-6.8c-1.3-6.9-1.5-14-1.2-21
		c0-0.8,0.3-1.6,0.6-2.3c-0.8-0.4-1.9,0.2-2.9,1.4c-0.3,0.3-0.5,0.6-0.7,1c-1,2.1-2.2,4.1-3,6.3c-0.9,2.3-2.2,4.5-3.9,6.5
		c-0.3-0.8-0.5-1.4-0.9-1.9c-1-1.6-2.4-2.5-4.4-2.3c-2,0.1-3,1.3-3.8,2.9c-0.4,0.8-0.5,1.7-0.8,2.5c-2.8,9.6-5.1,19.3-4.8,29.4
		c0,0.8-0.1,1.6-0.4,2.3c-0.7,1.8-1.1,3.7-1.6,5.5c-0.2,0.8-0.3,1.7-1,2.3c-0.5,0-0.7-0.4-1-0.7c-1.5-1.8-2-4-2.2-6.2
		c-0.2-1.8-0.7-3.4-1.1-5.1c-0.3-1.1-1-1.9-2.1-2c-1.2-0.2-1.9,0.5-2.5,1.5c-0.7,1.4-1.3,2.9-1.6,4.5c-0.7,3.7-0.5,7.5-0.5,11.2
		c0,1.4-0.1,2.7-0.4,4c-0.8,4.1-2.1,8.2-2.6,12.4c-0.3,2.1-0.9,3.9-2.3,5.6c-1.5,1.8-2.5,4-3.3,6.3c-0.8,2.1-1.3,4.2-1.5,6.4
		c0.3,0.5,0.6,1.1,0.7,1.9C327.7,173,328.8,176.1,330.6,178.9z"/>
	<path class="st3" d="M596.6,85.8c3.1,7.4,4.1,15.1,2.5,23c-1.3,6.1-0.9,12,0.1,18.1c1,6.2,3,11.9,6,17.3c1.6,2.8,4.1,4.7,6.8,6.3
		c0.9,0.5,2,0.7,3,0.8c2.1,0.2,4.3,0.4,6.4,1c4.6,1.3,7.9,4,9.4,8.7c0.4,1.1,0.8,2.3,1.2,3.4c0.4,0.9,1,1.6,1.8,2.2
		c0.7,0.5,1.4,0.6,2.2,0c1.5-1.2,3.2-2.2,4.7-3.4c3.1-2.6,4.4-6,4.3-10c0-0.5-0.1-1-0.3-1.4c-1.9-4.4-3.9-8.6-7.3-12.1
		c-1-1-2-2.1-2.9-3.2c-1.8-2.1-2.7-4.4-2.7-7.2c0-3.8-0.8-7.6-1.5-11.3c-1.4-2.2-3.1-4.3-5.1-6.3c-0.7-0.7-1.4-1.4-1.4-2.4
		c-0.1-1.2-0.3-2.3-0.5-3.4c-0.8-3.3-2.3-6.5-3-9.9c0-0.2-0.1-0.4-0.2-0.6c-0.2-0.6-0.5-1.2-0.8-1.8c-0.3-0.5-0.6-0.9-0.9-1.2
		c-0.6-0.6-1.4-0.9-2.3-0.9c-1.1,0-2.2,0.4-2.4,1.8c-0.2,0.2-0.3,0.3-0.5,0.5c-0.1,0.2-0.3,0.3-0.4,0.5c-0.4-1-0.9-1.9-1.4-2.8
		s-1.1-1.8-1.6-2.7c-1-1.8-2.1-3.3-3.5-4.7c-0.9-0.9-1.9-1.7-2.9-2.5c-1.6-1.1-3.3-2-5.1-2.8c-2.1-0.9-4-0.5-5.3,0.7
		c-0.3,0.3-0.5,0.5-0.7,0.9c-0.1,0.2-0.2,0.4-0.3,0.6c0.8,0.1,1.6,0.5,2.3,1.1C595.4,83,596,84.3,596.6,85.8z"/>
	<path class="st3" d="M550,663.1c-3.1-3-5.8-6.2-8.5-9.4c-3.1-3.7-4.6-8-5.3-12.7c-0.2-1.5-0.8-2.4-2.2-3c-2-0.8-4-1.6-5.8-2.9
		c-0.5-0.4-1-0.4-1.6-0.4c-6.3,0.7-12.5,0.2-18.6-0.7c-3.2-0.5-6.3-0.8-9.5-1.2c-1-0.1-1.9,0.1-2.8,0.3c-3.9,0.8-7.7,2.2-11.7,2.6
		c-0.8,0.1-1.3,0.4-1.7,1.1c-1.6,2.6-3.9,4.7-6,6.8c-3,2.9-4.5,6.4-4.8,10.6c-0.2,3.4-0.1,6.7-0.3,10.1c-0.1,1.4,0.1,2.9,0.3,4.3
		c0.6,3.2,0.2,6-0.9,8.5H562c-0.7-1-1.5-2-2.2-2.9C556.8,670.3,553.6,666.5,550,663.1z"/>
	<path class="st3" d="M713.9,594c-0.5-0.5-1.1-1.1-2.1-0.9c0,0.5,0,0.9,0.1,1.2c0.7,2.7,1.1,5.3,0.7,8.1c-0.3,2.6-0.9,5.2-1.7,7.7
		c0.8,0.8,1.6,1.7,2.4,2.4l0,0l2.2-0.6l1.1-0.3l0.6-0.2l0.6-0.1l2.3-0.5c2.7-0.6,5.5-1.2,8.2-1.7c-0.6-1-1.2-1.9-2-2.8
		C722.6,601.8,718.3,597.9,713.9,594z"/>
	<path class="st3" d="M732.7,528.9c0.2-0.7,0.3-1.3,0.4-2c0.1-0.7,0-1.3,0-2s-0.2-1.4-0.5-2.1c-0.1-0.3-0.2-0.6-0.2-0.8
		c0-0.6,0.4-0.8,1.4-0.6c0.5,0.1,0.9,0.2,1.4,0.3c0.9,0.2,1.8,0.5,2.6,0.8c0.4,0.2,0.8,0.4,1.2,0.6c1.5,0.8,3,1.7,4.5,2.5
		c3,1.6,6.1,3.2,9.2,4.7c1.5,0.7,3.1,1.5,4.7,2.2c2,0.9,3.9,1.7,5.9,2.5c1.7,0.6,3.4,1.2,5.1,1.7c1.7,0.5,3.5,0.9,5.3,1.2
		c0.5,0.1,0.9,0.1,1.4,0.2c0.2,0,0.4,0.1,0.5,0.1c-4.6-4.3-8.9-9-13.1-13.7c-3.1-3.5-5.6-7.4-7.1-11.9c0-0.1-0.1-0.3-0.1-0.4
		c-0.1,0-0.1,0-0.2-0.1c-0.4-1.1-1.3-1.8-2-2.7c-0.1-0.1-0.2-0.2-0.3-0.4c-0.4-0.5-0.7-1.1-1.1-1.6c-0.7-1.1-1.3-2.2-1.9-3.3
		c-0.3-0.6-0.6-1.1-0.9-1.7c-1.8-3-3.4-6.1-4.6-9.4c-0.2-0.6-0.4-1.1-0.6-1.7c-0.6-1.7-1-3.4-1.5-5.2c-0.5-1.7-0.9-3.5-1.5-5.2
		c-0.2-0.6-0.4-1.1-0.6-1.7c-0.6-1.6-1.3-3.3-1.8-4.9c-0.3-0.8-0.5-1.7-0.8-2.5c-0.2-0.8-0.5-1.7-0.7-2.5c0.3,0,0.6,0,1-0.1
		c0.6,0.4,1,1,1.4,1.6c0.7,1.1,1.4,2,2.2,2.9c0.8,0.8,1.7,1.5,2.7,2.1c0.5,0.3,1,0.5,1.5,0.7s1,0.3,1.5,0.5c0.1,0,0.3,0.1,0.5,0.1
		c0.4,0.1,0.8,0.1,1.2,0.2c0.2,0,0.3,0,0.5,0.1c0.5,0.1,1.1,0.1,1.7,0.1c0.5,0,1-0.1,1.5-0.3c0.6-0.3,1.2-0.7,1.6-1.1
		c1-1.1,1.6-2.7,1.2-4.2c-0.2-1-0.5-2-0.9-2.9c-0.2-0.5-0.4-0.9-0.6-1.3c-0.7-1.3-1.5-2.5-2.4-3.7c-0.6-0.8-1.2-1.6-1.9-2.3
		c-0.6-0.6-1.1-1.3-1.7-1.9c-1.6-1.9-3.3-3.9-4.8-5.9c-1-1.3-2-2.7-3-4.1s-1.9-2.8-2.7-4.3c-1.7-2.9-3.8-5.7-4.8-9l0,0
		c0.1-0.1,0.2-0.1,0.3-0.2c1.2,0.4,1.9,1.3,2.8,2.1c3.3,2.7,6.5,5.3,9.7,8.1c0.7,0.6,1.4,1.1,2.1,1.6c0.7,0.5,1.4,1.1,1.9,1.7
		c0.3,0.4,0.6,0.7,1,1c0.7,0.6,1.4,1.2,2.1,1.6c0.4,0.2,0.8,0.5,1.2,0.7s0.8,0.5,1.2,0.7s0.8,0.5,1.2,0.8c0.5,0.4,1,0.7,1.4,1
		c0.1,0.1,0.3,0.2,0.4,0.2c0.2,0.1,0.5,0.2,0.7,0.2c0.4,0.1,0.7,0,1-0.3c0.2-0.2,0.3-0.4,0.4-0.6c0.1-0.1,0.1-0.3,0.2-0.4
		c0.2-0.5,0.4-1.1,0.7-1.9c0-0.1,0.1-0.3,0.1-0.4c0-0.4-0.1-0.7-0.2-1c-0.1-0.3-0.2-0.6-0.3-0.9c-0.2-0.6-0.5-1.1-0.8-1.6
		c-0.1-0.3-0.3-0.5-0.4-0.8c-1.5-2.6-3.9-5-3.5-8.4v-0.1c0-0.1-0.1-0.1-0.1-0.2v-0.1c-0.1-0.6-0.3-1.1-0.5-1.7
		c-1.2-3.9-3.2-7.6-5.3-11.1c-0.9-1.6-1.9-3.2-2.8-4.7c-1.9-3.1-3.9-6.2-5.8-9.3c-1-1.6-1.9-3.1-2.9-4.7c-1.2-2-2.8-3.7-3.6-5.9
		c0-0.2,0-0.3,0-0.4c-0.1-0.4-0.4-0.6-0.8-0.6c0-0.1-0.1-0.2-0.1-0.4l0,0c0-0.2,0-0.3,0-0.4s-0.1-0.2-0.1-0.3
		c-0.1-0.2-0.4-0.3-0.7-0.3c-1.9-2.7-3.9-5.4-5.8-8.1c0-0.2,0-0.4-0.1-0.6c-0.2-0.5-0.6-0.8-1.3-0.9c-0.4-0.5-0.9-1-1.3-1.6
		c-0.1-0.1-0.2-0.2-0.2-0.3c0-0.2,0-0.3,0-0.4c-0.1-0.2-0.2-0.4-0.5-0.5c-0.1,0-0.3-0.1-0.4-0.1c-0.4-0.6-0.7-1.3-0.9-1.9
		c-0.8-2-1.2-4.1-1.6-6.1c0-0.2,0.1-0.5,0.1-0.7c2.1,1.7,4.2,3.3,6.7,4.4c0.2,0.1,0.5,0.2,0.7,0.3c1.6,0.5,3.4,0.1,4.4-0.9
		c0.5-0.5,0.8-1,1-1.6c0.1-0.4,0.2-0.8,0.1-1.2c0-0.6-0.2-1.3-0.6-2c-0.4-0.7-0.7-1.5-1.1-2.2c-1.2-2.2-2.4-4.4-3.8-6.4
		c-0.6-0.8-1.2-1.6-1.8-2.3c-0.4-0.5-0.8-1-1.2-1.5c-0.6-0.8-1.1-1.6-1.6-2.5c0-0.1,0-0.1,0-0.2c0-0.2,0-0.3,0.1-0.5
		c0.5,0.1,0.9,0.1,1.4,0.3c0.1,0.1,0.3,0.1,0.4,0.2c0.7,0.5,1.5,0.9,2.2,1.1c0.5,0.2,1.1,0.3,1.6,0.4c0.8,0.1,1.6,0.1,2.5,0.1
		c0.3,0,0.6-0.1,0.9-0.1c0.8-0.2,1.6-0.6,2.2-1.2c0.8-0.8,1.3-1.9,1.3-3.1c0-0.4,0-0.8-0.1-1.2c-0.1-0.7-0.4-1.4-0.8-2.1
		c-0.2-0.3-0.4-0.6-0.6-1c-0.6-0.9-1.2-1.7-1.8-2.5s-1.2-1.7-1.9-2.4c-0.6-0.7-1.1-1.4-1.7-2.1c-1.2-1.4-2.3-2.7-3.6-3.9
		c-0.7-0.6-1.3-1.2-2-1.8c-0.7-0.5-1.4-1-2.1-1.6c-4.9-3.5-10.1-6.6-15.3-9.6c-1.9-1.1-3.8-2.2-5.8-3.3c0-0.3,0.1-0.5,0.1-0.8
		c1.1,0.1,2.2,0.2,3.3,0.2l0,0c0.1,0.1,0.1,0.2,0.2,0.3c0.1,0.1,0.2,0.1,0.2,0.1l0,0c0.2,0,0.3-0.1,0.5-0.3c0.6,0.1,1.2,0.2,1.8,0.2
		c0.2,0,0.3,0,0.5,0c0.4,0,0.9,0.1,1.3,0.1c0.2,0,0.3,0,0.5,0c0.6,0,1.2,0,1.7,0c0.6,0,1.3,0,1.9-0.1c0.5,0,1-0.1,1.5-0.1
		c1-0.1,2.1-0.2,3.1-0.3c0.9-0.1,1.8-0.2,2.7-0.4s1.8-0.5,2.6-0.9c0.4-0.2,0.8-0.5,1.2-0.7c0.4-0.3,0.7-0.5,1-0.8s0.6-0.6,0.8-1
		c1-1.4,1.3-3.1,0.6-4.9c-0.2-0.5-0.4-0.9-0.7-1.4c-1.1-1.9-2.6-3.6-3.6-5.5c-0.2-0.4-0.6-0.7-1-1c-0.1-0.1-0.3-0.2-0.4-0.3
		c-1.2-1-2.5-1.9-3.8-2.9c-0.6-0.5-1.3-1-1.9-1.4c-2.6-1.9-5.3-3.6-8.1-5c-0.7-0.4-1.4-0.7-2.1-1c-1.5-0.7-2.9-1.2-4.5-1.7
		c-0.4-0.1-0.8-0.3-1.2-0.4c-1.2-0.3-2.5-0.5-3.8-0.7s-2.5-0.3-3.8-0.5c-0.4-0.1-0.8-0.1-1.3-0.2c-2.2-0.4-4.4-0.7-6.7-0.9
		c-1.5-0.2-3-0.3-4.5-0.4c-2.2-0.1-4.5-0.2-6.7-0.1c0-0.2,0-0.4-0.1-0.5c0-1,0.1-1.9,0.1-2.9c0-0.6-0.2-1.2-0.5-1.7
		c-0.1-0.2-0.3-0.3-0.4-0.4c-2.4-2-4.9-4-7.7-5.6c-0.9-0.5-1.9-1-2.9-1.3c-1.1-0.4-2.3-0.8-3.4-1.1c-1.7-0.5-3.5-0.8-5.3-1.1
		c-0.6-0.1-1.2-0.2-1.8-0.3c-1.2-0.2-2.4-0.3-3.6-0.4c-0.1-0.1-0.2-0.2-0.2-0.3c-0.1-0.1-0.2-0.1-0.2-0.1c-0.2,0-0.3,0.1-0.5,0.3
		l0,0c-0.9,0-1.7,0-2.6,0c-2.8,0-5.7,0-8.5,0.4c-1.3,0.2-2.6,0.6-3.9,1.1c-0.6,0.2-1.2,0.5-1.9,0.7c-0.6,0.2-1.2,0.5-1.9,0.7
		c-0.1-0.1-0.1-0.2-0.2-0.2c-0.2-0.1-0.3-0.2-0.5-0.2c-0.1,0-0.2,0-0.3,0.1c-0.2,0.1-0.3,0.1-0.4,0.1c-0.1,0-0.2-0.1-0.3-0.1
		c0,0-0.1,0-0.1-0.1c-0.2-0.1-0.3-0.4-0.5-0.5c0.2-0.8,0.4-1.6,0.6-2.3c0-0.1,0.1-0.2,0.1-0.4c0.1-0.3,0.2-0.6,0.3-0.9
		c0.5-1.5,1.1-3,1.5-4.6c0.2-0.6,0.3-1.2,0.5-1.9c0.3-0.4,0.5-0.7,0.6-1.1c0.1-0.2,0.1-0.4,0.1-0.6s0-0.5,0-0.7s-0.1-0.4-0.1-0.6
		c0-0.1,0-0.1-0.1-0.2s-0.1-0.3-0.2-0.4c0-0.1-0.1-0.1-0.1-0.2c-0.1-0.2-0.3-0.4-0.4-0.5c-0.1-0.3-0.2-0.6-0.3-0.9
		c0-0.1-0.1-0.2-0.1-0.3c-0.1-0.2-0.1-0.4-0.2-0.6c0-0.1-0.1-0.2-0.1-0.3c-0.1-0.2-0.1-0.3-0.2-0.5c-0.1-0.1-0.1-0.2-0.2-0.3
		c-0.1-0.1-0.2-0.3-0.3-0.4s-0.1-0.2-0.2-0.3c-0.1-0.1-0.2-0.3-0.3-0.4s-0.1-0.2-0.2-0.2c-0.1-0.1-0.2-0.3-0.4-0.4
		c-0.1-0.1-0.1-0.1-0.2-0.2c-0.4-0.4-0.9-0.7-1.4-1c-0.7-0.4-1.5-0.7-2.4-1c0-0.1-0.1-0.2-0.1-0.3v-0.1c0-0.1-0.1-0.2-0.1-0.2
		c-0.1-0.1-0.3-0.1-0.7,0.2c-0.6,0-1.3-0.1-1.9-0.1c-0.2-0.3-0.4-0.4-0.6-0.6c-0.5-0.4-0.7-0.2-1.4,0.6c-1,0.1-1.9,0.1-2.9,0.2
		c-0.2-0.2-0.3-0.3-0.5-0.3c-0.4-0.2-0.8,0-1,0.7c-0.6,0.1-1.3,0.1-1.9,0.2c-0.1-0.1-0.2-0.2-0.3-0.3c-0.4-0.2-0.5,0.1-0.7,0.6
		c-0.5,0-0.9,0.1-1.4,0.1c-0.6-0.6-0.8-0.2-1,0.3c-0.6,0.1-1.3,0.1-1.9,0.2l0,0c-0.1-0.1-0.1-0.1-0.2-0.2c-0.2-0.2-0.4-0.2-0.5,0
		l0,0c0,0.1-0.1,0.1-0.1,0.2l0,0c0,0.1-0.1,0.2-0.1,0.3c-0.8,0.2-1.7,0.2-2.5,0.2c-0.3,0-0.6,0-0.8,0c-0.2-0.2-0.3-0.4-0.5-0.4
		c-0.1,0-0.2,0-0.2,0.1c-0.1,0.1-0.2,0.1-0.2,0.3c-0.2-0.1-0.4-0.1-0.5-0.2c-0.2-0.1-0.4-0.1-0.5-0.2c0,0-0.1,0-0.1-0.1
		c-0.1-0.1-0.3-0.1-0.4-0.2c-0.3-0.2-0.3-0.4-0.3-0.8c0-0.1,0.1-0.3,0.1-0.5s0.1-0.4,0.2-0.6c0.6-1.9,1.2-3.8,1.7-5.7
		c0.1-0.2,0.1-0.5,0.2-0.7c0.3-1.4,0.4-2.8,0-4.2c-0.1-0.2-0.1-0.5-0.2-0.7c-0.2-0.6-0.6-1.1-1-1.5s-0.9-0.7-1.4-1
		c-0.5-0.2-1.1-0.4-1.8-0.4c-0.6,0-1.3,0-2,0.2c-1.4,0.3-2.6,1.2-4.1,1.3c0-0.2,0-0.4-0.1-0.6c0.6-1.4,1.2-2.7,1.9-4.1
		c0.2-0.4,0.4-0.9,0.7-1.3c0.6-1.2,1.2-2.4,1.7-3.7c0.2-0.6,0.5-1.3,0.7-1.9c0.2-0.6,0.4-1.3,0.7-1.9c0.1-0.3,0.2-0.6,0.3-0.9
		c0.2-0.6,0.3-1.2,0.4-1.8c0.2-1.5,0.2-3.1,0.1-4.6c-0.1-0.8-0.2-1.4-0.5-2.1c-0.2-0.4-0.5-0.8-0.8-1.1c-0.5-0.5-1.1-0.9-1.9-1.1
		c-0.5-0.1-0.9-0.3-1.4-0.4c-0.7-0.1-1.4-0.2-2.1-0.1s-1.2,0.4-1.7,0.9c-0.4,0.5-0.9,0.9-1.4,1.3s-1,0.8-1.4,1.3
		c-1,0.8-1.9,1.7-2.8,2.6c-0.2,0.2-0.3,0.4-0.4,0.6c-0.3,0.4-0.5,0.8-0.9,1.1c-0.2,0.2-0.4,0.3-0.6,0.4c-0.4,0.2-0.9,0.5-1.3,0.8
		c-0.8,0.6-1.6,1.2-2.3,1.8c-0.4,0.3-0.7,0.6-1.1,1c-0.5,0.4-1,0.6-1.5,0.6c-0.2,0-0.4,0-0.6-0.1c-0.6-0.2-1.3-0.3-1.9-0.3
		c-0.6,0-1.3,0-2,0.1c-0.4,0-0.9,0.1-1.3,0.2c-0.3,0-0.5,0.1-0.8,0.1c-0.8,0.2-1.5,0.4-2.2,0.7c-0.2,0.1-0.5,0.2-0.7,0.3
		c-0.5,0.2-1,0.3-1.5,0.4c-0.3,0-0.5,0.1-0.8,0.1c-3.2,0.3-6.3,0.6-9.2,2c-0.1-0.1-0.2-0.1-0.3-0.2c-0.2-0.2-0.3-0.5-0.3-0.8l0,0
		c0.1-0.2,0.2-0.4,0.3-0.5c0.8-1.1,2.1-1.8,3.1-2.7c1.9-1.8,2.4-3.8,1.6-5.8c-0.7-1.8-3.1-3.3-5.3-2.8c-3.6,0.7-7.2,1.1-10.7,2.4
		c-0.8,0.3-1.5,1-2.4,0.9l-0.1-0.1c0-1,0-2.1,0.2-3.1c0.3-2.6-2.3-5.1-5.3-4.9c-2.8,0.2-5.6,1.3-7.4,3.4c-1.8,2.1-4.3,3.5-5.7,6
		c-0.4,0.7-0.9,1.2-1.7,0.9s-0.5-1.1-0.5-1.7c-0.1-4.9-0.2-9.7,1.1-14.5c0.3-0.1,0.5-0.2,0.6-0.3c0.1-0.2,0-0.4-0.3-0.6l0,0
		c1-4.8,2.1-9.6,3.1-14.5c0.4-2,0.5-4,0.1-6c-0.9-4.6-6.8-6.1-10.5-2.9c-1.5,1.3-2.5,2.9-3.6,4.4c-5.6,7.7-10.2,15.9-11.5,25.6
		c-0.1,0-0.1,0-0.2,0.1s-0.2,0.1-0.3,0.2l-0.1,0.1v0.1l0,0c0,0,0,0.1,0.1,0.1c0,0,0,0,0,0.1s0.1,0.1,0.2,0.2
		c-0.3,1.4-0.6,2.9-0.9,4.3c-0.2,0.1-0.4,0.3-0.4,0.5s0.1,0.3,0.3,0.5c0,0.5,0,1,0,1.4c0,0.1,0,0.2,0,0.4c0,0.5-0.1,0.9-0.1,1.4
		c0,0.4-0.1,0.7-0.1,1.1c-0.1,1.4-0.3,2.8-0.3,4.3c0,3.1,0.8,6.1,0.5,9.2c-0.3,0-0.7,0-1,0.1c-1.3-0.7-2.6-1.5-3.8-2.4
		c-0.4-0.3-0.8-0.6-1.2-0.9c-1-0.9-2.1-1.7-3.3-2.3c-1.9-1-3.8-1.1-5.6,0.3c-0.5,0-0.9,0-1.4,0c-0.4-0.8-0.9-1.6-1.3-2.4
		c-0.1-0.2-0.2-0.4-0.3-0.6c-0.4-0.8-0.8-1.6-1.1-2.4c-0.3-0.6-0.5-1.2-0.8-1.9c-0.3-0.8-0.6-1.7-0.9-2.5c-1.9-6-4.4-11.8-7.3-17.4
		c-0.6-1.2-1.5-2.3-2.5-3.2c-1.6-1.4-3.4-1.6-5.4-0.9c-0.6,0.2-0.9,0.8-1.3,1.2c-0.2,0.3-0.5,0.5-0.8,0.6c-0.1,0.2-0.3,0.3-0.4,0.5
		c-0.8,1.4-0.5,3-0.7,4.5c-0.6,4.6-0.1,9,1.3,13.4c0.3,1,1.4,1.5,1.4,2.7c-0.1,0.2-0.3,0.4-0.5,0.4c-0.2,0.1-0.4,0.1-0.6,0.2
		c-2.1-0.7-4.1-1.2-6.3-1.1c-0.3,0-0.6,0-0.9,0.1c-2.7,0.3-5,2.5-5.1,5.1c-0.3,4.8,1.1,9.2,3.9,13.2c0.3,0.4,0.5,0.7,0.7,1.1
		c0.1,0.2,0.2,0.4,0.2,0.6s0.1,0.4,0.2,0.6c0.1,0,0.2,0.1,0.3,0.2c-0.1-0.1-0.2-0.1-0.3-0.2c-0.2,0-0.5,0.1-0.7,0.1
		c-0.9-0.7-1.7-1.5-2.6-2.1c-5-3.7-9.5-7.8-13.1-12.9c-0.7-1-1.5-2-2.4-2.9c-1.1-1-2.3-1-3.5-0.5c-1.3,0.5-1.5,1.5-1.2,2.7
		c0.1,0.3,0.1,0.6,0.1,0.9c-1.3,0.5-2.8,0.3-3.5,1.8c-0.6,1.3-1.3,0.9-2,0.1c-1-1-1.9-2-2.8-2.9c-4-4.1-8.3-8-12.7-11.7
		c-3.8-3.2-7.5-6.5-11.5-9.4c-2.5-1.8-5.1-2.9-8.3-1.6c-1.4,0.6-2.4,1.6-2.5,3c-0.2,1.9-0.6,3.8-0.7,5.7c-0.2,4.2,0.7,8.3,0.5,12.4
		c-0.2,0.2-0.3,0.3-0.4,0.5c-0.2,0.5-0.1,1,0.4,1.4c0.2,1.1,0.5,2.2,0.4,3.4c-0.5,0.4-0.4,0.7,0.1,1c0.1,0.9,0,1.7-0.4,2.5
		c-0.2,0.5-0.5,0.9-0.9,1.4c-1.3,1.5-2.7,3.1-3.1,5.3c-0.3,0-0.6,0.1-0.8,0.3c-0.1,0.1-0.1,0.1-0.2,0.2c-1.3-0.5-2.6-1-3.9-1.5
		s-2.6-0.9-4-1.2c-3.3-0.6-6.3-0.2-8.7,2.5c-0.5,0.6-1.1,1.1-1.7,1.6c-0.7,0.1-1.3-0.1-2-0.1c-0.2,0-0.4,0-0.6,0
		c-0.5,0-0.9,0.2-1.4,0.5c-0.2,0.1-0.4,0.3-0.6,0.4c0.2,0.4,0.4,0.8,0.6,1.3c1.3,3.3,2.5,6.6,3.6,9.9c1,2.8,0.3,4.8-2,6.5
		c-0.6,0.4-0.9,0.6-0.5,1.5c0.6,1.5,0,2.2-1.6,2.3c-0.7,0-1.4,0-2.2,0c-4.3-0.1-8.1,1.8-11.8,3.5c-2.4,1.1-4.6,2.6-6.7,4.2
		c-3,2.4-6.4,4.3-9.2,6.9c-0.7,0.7-1.2,1.3-1.3,2.4c-0.1,4.1-2.2,6.3-6.4,6.5c-2.6,0.1-5.3,0.3-7.9,0.6c-3.3,0.4-6.5,0.8-9.5,2.3
		c-3,1.4-6.2,0.5-8-1.8c-1.6-2-1.8-4.7-0.6-7c-0.2,0.3-0.5,0.6-0.7,0.9c-3.9,4.6-8.2,8.7-13.6,11.6c-3.9,2.1-8,4.1-11.9,6.2
		c-2.1,1.1-4.2,2.3-5.8,4.2c-2.7,3.3-1.4,6.8,2.7,7.8c1.8,0.5,3.7,0.1,5.5,0.5c6.8,1.6,13.7,2.4,20.1,5.2c3.6,1.6,7.5,1.5,11.3,1.5
		c0.8,0,1.7-0.3,2.5,0.3c-0.5,0.9-1.2,1.4-1.9,2c-7,5.2-13.9,10.5-19.5,17.3c-2.2,2.6-4.6,5.1-6.7,7.8c-4.2,5.5-8,11.4-12.9,16.4
		c-2.1,2.2-4.2,4.4-6.5,6.4c-2.3,2-4.7,4-5.9,6.8c-1.1,2.4-1.3,5,0.5,7.3c1.8,2.2,4.3,3,7.1,2.3c1-0.2,2-0.5,3-0.9
		c0.6-0.3,1.2-0.4,1.7,0.1c-0.1,0.3-0.1,0.5-0.2,0.6c-0.3,0.4-0.6,0.7-1,1.1c-5.5,5.4-10.2,11.4-14.5,17.8c-2.5,3.7-5,7.4-8.1,10.7
		c-1.8,2-3.6,4.1-5,6.4c-0.7,1.2-1.7,2.4-2,3.8c-0.6,2.2-0.7,4.2,1,6.1s3.9,2.1,6.1,1.6c1.2-0.3,2.4-0.9,3.5-1.4
		c5.3-2.6,10.6-5.3,15.9-8c0.6-0.3,1.1-0.6,1.7-0.8c0.9-0.3,1.3,0.1,1.1,0.9c-0.1,0.2-0.2,0.4-0.3,0.7c-2.6,5.8-4.5,11.8-6.5,17.8
		c-1.8,5.5-3.4,11.1-4.3,16.9c-0.9,6.2-1.6,12.5-3.8,18.4c0,0.1-0.1,0.2-0.1,0.2c-1.1,4.6,1.4,8.2,6,8.7c1.8,0.2,3.2,0.9,4.2,2.4
		c1.1,1.5,2.2,3,3.2,4.5c0.6,0.9,1.1,1.8,1.1,2.9c0.1,2.8,0.6,5.5,0.5,8.4c-0.1,4.5-0.6,8.9-1,13.4c-0.3,3.8-0.8,7.4-2.9,10.7
		c-0.9,1.5-1.6,3-2.1,4.6c0.1,1.7,0.1,3.4-0.1,5.2c0,0.4-0.1,0.8,0.4,1.2c4.2-1.2,8.4-2.6,11.9-5.7c2.1-1.9,4.2-3.7,5.8-6
		c0.3-0.4,0.6-0.8,0.9-1.1c0.7-0.5,1.6-0.6,1.9,0.1c0.5,1.4,1.3,2.3,2.7,2.7c0.6,0.2,0.7,1.1,0.5,1.7c-0.1,0.5-0.4,1-0.6,1.6
		c-1.2,3.4-2.4,6.8-2.5,10.5c-0.2,7.1-1.4,14-2,21c-0.2,2.3-0.9,4.5-1.2,6.8c0.9,0.5,1.7,0.1,2.4,0c2.6-0.5,5.2-0.6,7.9-0.5
		c2.3,0.1,4.1,1,4.9,3.2c0.8,2,0.1,4.1-1.9,5.7c-1.2,1-2.4,1.8-3.6,2.8c-7.3,5.5-13,12-16.6,19.9c0.9,0.2,1.8,0.4,2.8,0.6l2.3,0.5
		l0.6,0.1l0.6,0.2l1.1,0.3l2.2,0.6c0.4,0.1,0.8,0.2,1.1,0.3l1.1,0.4l2.2,0.7l1.1,0.4c0.4,0.1,0.7,0.3,1.1,0.4l2.2,0.8l1.1,0.4
		c0.4,0.1,0.7,0.3,1.1,0.4c4.4,1.8,8.6,3.9,12.7,6.2c0.7,0.4,1.4,0.9,2.1,1.3c0.6,0.3,1.1,0.7,1.7,1l1.9,1.3l0.3,0.2l0.2,0.1
		l0.4,0.3l0,0l0.9,0.7l0.9,0.7l0.5,0.3l0.5,0.4l1,0.8c2.5-1.2,7.9-3.8,10.9-5.2c7.7-2.6,14.8-6.3,21.7-10.5c-1.4,3.5-2.8,8-1.7,10.9
		c2,5.1,21.4,14.1,29.3,11.2c5.3-1.9,11.9-4.9,15.8-6.7c0,0.1,0.1,0.3,0.1,0.4c0.1,0.5,0.2,0.9,0.2,1.4c0.1,0.8,0.2,1.6,0.4,2.4
		c-0.9,2-1.6,4.3-1.5,6.3c0.3,5,2,9.2,3.3,10.9s4.5,4.4,5.9,5.8s3.8,3.2,5.1,3.2c1.3,0,4.2-0.5,4.2-0.5s0.2-0.1,0.5-0.4l-0.7,2.2
		l-0.8,2.6c0,0,0.1-0.1,0.3-0.3c-0.7,1-1.4,1.9-2,2.9c1.4-1.6,2.7-3.3,3.9-5.1c0.1-0.1,0.2-0.2,0.2-0.3c3.7-5.7,7.9-11.1,11.3-16.9
		c1.4-2.3,1.8-4.6,0.8-7.1c-1.1-2.8-0.8-5.7,0.2-8.4c0.6-1.5,1.2-3,1.9-4.4c2.3-4.4,3.4-9.3,5.2-13.9c0.2-0.6,0-1.1-0.3-1.6
		c-1.2-1.7-2.4-3.4-3.5-5.1c-0.3-0.5-0.7-0.8-1.4-0.7c-4.2,0.5-8.1,1.7-11.1,4.9c-0.3,0.3-0.7,0.5-0.8,0.8c-1,2.9-3.8,4.6-4.6,7.6
		c-0.2,0.9-0.6,2.1-2,2c-0.9-0.1-4.3-7.2-4.2-8.6c0.2-1.9,0.4-3.8,0.5-5.7c0.1-0.9,0.2-1.7-0.1-2.6c-0.8-0.2-1.1,0.5-1.5,0.9
		c-2.2,2.1-4.3,4.3-6.7,6.2c-3.1,2.5-6.6,4.3-10.5,5.1c-1.3,0.3-2.7,0.4-4.1,0.2c-2.1-0.3-3.8-1.4-4.4-3.5c-0.7-2.1,0-4,1.8-5.3
		c7.3-5.1,11.9-12.4,16.7-19.6c0.7-1,1-2,0.9-3.3c-0.2-3.1,1.2-5.8,3.2-8c0.7-0.8,1.6-1.5,2.4-2.3c0.3-0.2,0.6-0.3,0.9-0.1
		c0.3,0.3,0.2,0.6,0,0.8c-0.4,0.6,9.9,5.4,11.4,5c4.9-1.1,9.2,0.1,12.9,3.4c2.8,2.5,5.1,5.5,6.8,8.9c0.8,1.6,1.7,3.3,2.5,4.9
		c1.3,2.7,3.1,4.9,5.4,6.7c9.3,7,18.9,13.5,29.9,17.5c3.1,1.1,6.2,2,9.6,2c2.1,0,4.1,0.3,6.2,0.3c0.9,0,1.8,0.1,2.6-0.1
		c7-2,14.1-1.7,21.2-0.7c10.5,1.4,20.4-0.4,29.5-5.9c0.8-0.5,1.5-0.9,2.3-1.3c5.2-2.7,9.2-6.6,12.5-11.5c3.2-4.8,7-9.1,10.3-13.8
		c2.3-3.3,5.7-5.6,8.6-8.3c0.9-0.9,2.2-1.5,3.5-1.5c2.9,0,5.9-0.5,8.8,0.1c1.3,0.3,2.5,0.1,3.7-0.5c2.9-1.4,6-1.7,9.1-1.3
		c2.7,0.4,4.8,1.6,6.5,3.8c1.5,2,3,4.1,4.5,6.2c0.4,0.5,0.7,1.1,1,1.6c1.2,2.7,0,4.9-2.9,5.1c-0.5,0-1.1,0-1.9,0
		c1,1.9,2,3.4,2.5,5.1c0.3,0.9,0.5,1.9,0.4,2.8c-0.1,0.8-0.4,1.4-1.1,1.7c-0.8,0.3-1.4,0-1.9-0.6c-0.4-0.4-0.7-0.9-1-1.3
		c-2.8-3.7-6.6-5.5-11.1-5.7c-1.1,0-1.6,0.3-1.6,1.4c-0.2,6-1.1,11.9-2.7,17.8c-0.3,1-0.1,1.9,0.2,2.8c1,3.1,2.3,6.1,3.8,9.1
		c0.4,0.8,0.9,1.7,1.2,2.6c0.5,1.3,0.1,2.4-0.8,3c-1.1,0.7-2.1,0.6-3.1-0.1c-0.5-0.4-1-0.8-1.5-1.3c-2.9-2.6-5.3-5.5-7.8-8.5
		c-1.4-1.7-2.9-3.2-4.9-4c-0.7,0.5-0.7,1.1-0.8,1.7c-0.3,1.8-0.6,3.6-1,5.4c-0.6,3.1-0.6,6,0.9,8.9c0.4,0.7,0.5,1.5,0.7,2.3
		c3.2,13.1,8.9,25.1,14.9,37.1c0.3,0.6,0.6,1.1,0.8,1.7c0.3,0.8,0.2,1.5-0.1,2.1h6.5c-0.9-3.5-1.8-7.1-2.4-10.7
		c-0.3-1.4-0.5-2.7-0.6-4.1c0.1-0.1,0.2-0.2,0.3-0.3s0.1-0.2,0.1-0.2c0-0.2-0.2-0.3-0.4-0.4c-0.1-0.6-0.3-1.2-0.4-1.8
		c0-0.2,0-0.4,0-0.6c0.1-0.1,0.2-0.2,0.3-0.3c0.2-0.3,0-0.5-0.3-0.7c0-0.5-0.1-1-0.1-1.4c0.1,0,0.2,0,0.3,0c0.3,0,0.6-0.1,0.8-0.5
		c0.3,0,0.6,0,0.9,0.1s0.6,0.1,0.9,0.2c1,0.3,1.9,0.6,2.8,1c1.9,0.7,3.7,1.5,5.6,2.2c0.9,0.4,1.9,0.7,2.9,1
		c3.9,1.1,7.8,2.6,11.9,3.1c0.4,0,0.9,0.1,1.3,0.1c2.5-0.1,4.3-1.1,5.3-3.2c0.2-0.4,0.3-0.7,0.4-1.1c0.2-0.7,0.2-1.4,0.1-2.1
		c-0.1-0.6-0.2-1.1-0.4-1.6c0-0.1-0.1-0.1-0.1-0.2c-0.1-0.2-0.2-0.4-0.2-0.6c0-0.1-0.1-0.1-0.1-0.2c-0.1-0.2-0.2-0.5-0.4-0.7
		c-0.8-1.4-1.6-2.8-2.5-4.2s-1.8-2.7-2.8-4c-0.5-0.7-1.1-1.4-1.6-2.1c-3.8-5-7.7-9.9-11-15.3c-0.5-0.8-1-1.6-1.4-2.5
		s-0.6-1.8-0.5-2.5c0-0.5,0.2-1,0.4-1.4c0.4-0.7,0.9-1.3,1.8-1.8c0.5-0.3,0.9-0.7,1.3-1s0.9-0.7,1.3-1c0.8-0.6,1.5-1.2,2.2-1.9
		c0.4-0.4,0.9-0.9,1.2-1.4c0.4-0.5,0.7-1,1.1-1.5c0.3-0.5,0.6-1,0.9-1.6c0.3-0.5,0.5-1.1,0.7-1.7s0.3-1.2,0.4-1.8
		c0.2-0.9,0.2-1.9,0.2-2.9c0-0.1,0-0.1,0-0.2c0-0.1,0-0.2,0-0.4s0-0.4,0.1-0.5s0.1-0.2,0.3-0.2c0.3-0.2,0.6-0.1,0.8,0.1
		c0.1,0.1,0.2,0.1,0.3,0.2l0.1,0.1c0.2,0.2,0.4,0.4,0.7,0.5c1.3,1,2.9,1.6,4.4,2.3c0.3,0.1,0.5,0.2,0.8,0.3c0.5,0.2,1,0.4,1.6,0.6
		c0.8,0.2,1.6,0.3,2.5,0.5c0.8,0.1,1.7,0.2,2.5,0.4c1.2,0.2,2.1,1,3.4,1c0.4,0,0.8,0,1.2,0c0.1,0,0.2,0,0.4,0c0.3,0,0.6,0.1,0.9,0.1
		c0.1,0,0.2,0,0.4,0c0.4,0.1,0.8,0.1,1.2,0.2c0.4,0.1,0.9,0.2,1.3,0.2c0.6,0.1,1.2,0.2,1.8,0.3c0.3,0,0.6,0,1,0
		c1.4-0.2,2.8-0.4,4.1-0.6c1.4-0.2,2.7-0.5,4.1-0.9c0.4-0.1,0.8-0.2,1.1-0.3c0.8-0.2,1.5-0.5,2.1-0.9c0.3-0.2,0.6-0.5,0.9-0.8
		c0.1-0.1,0.2-0.2,0.3-0.3c0.3-0.2,0.5-0.3,0.8-0.4c0.1,0,0.2,0,0.3,0c0.3,0,0.6,0.1,1,0.2c1.6,0.5,3.1,1.1,4.7,1.7
		c0.5,0.2,1,0.4,1.6,0.6c5.2,1.8,10.2,4.1,14.8,7.1c0.4,0.3,0.8,0.5,1.3,0.8c0.4,0.2,0.9,0.5,1.3,0.7c0.9,0.5,1.8,0.9,2.6,1.5
		c0.3,0.2,0.5,0.3,0.8,0.4c0.3,0.1,0.6,0.2,0.8,0.3c0.6,0.1,1.2,0.2,1.8,0.3c0.2,0,0.4,0,0.6,0c0.2,0,0.4,0,0.6,0
		c0.6-0.1,1.1-0.2,1.5-0.5c0.3-0.2,0.6-0.4,0.8-0.8c0.1-0.2,0.2-0.3,0.3-0.5c0.7-1.5,0-2.8-1-4c-1.1-1.3-2.1-2.6-3.1-4
		s-2-2.8-2.9-4.2s-1.8-2.8-2.7-4.3c-0.9-1.4-1.7-2.9-2.6-4.4c-1.1-1.9-2.1-3.9-3.1-5.9s-2.1-3.9-3.5-5.7c-0.2-0.2-0.3-0.5-0.5-0.7
		c-0.6-1-1.1-1.9-1.3-3c-0.2-0.8-0.3-1.6-0.3-2.5c0.2,0,0.5-0.1,0.7-0.1c2.7,1.7,5.1,3.8,7.5,5.9c0.2,0.1,0.3,0.3,0.5,0.4
		c0.3,0,0.6,0.1,0.9,0.3c0.2,0.2,0.4,0.4,0.6,0.7c0.2,0.1,0.3,0.3,0.5,0.4c0.3,0.1,0.7,0.1,0.9,0.3c0.5,0.5,1,0.9,1.4,1.3
		c1.5,1.3,3,2.5,4.8,3.4c0.2,0.1,0.3,0.3,0.4,0.5c0,0.1,0.1,0.1,0.1,0.2c0.2,0.1,0.3,0.3,0.5,0.4c0.6,0.2,1.1,0.4,1.5,0.8
		c0.2,0.1,0.3,0.2,0.4,0.3c0.2,0.2,0.4,0.4,0.6,0.6c0.3,0.3,0.6,0.6,0.9,0.9c1.6,1.6,3.4,2.8,5.2,4.1c1.3,0.9,2.7,1.9,4,2.8
		c0.9,0.6,1.7,1.3,2.6,2c0.5,0.4,0.9,0.8,1.4,1.1c-1.4-3.1-3.1-6-5.5-8.6c-1-1.1-1.8-2.2-2.4-3.5c-1.8-3.8-0.8-7.5,2.9-9.4
		c3.3-1.8,4.8-4.5,5.3-8c0.5-3.1,0-6.3,0.6-9.3c0.8-4-0.4-7.2-3.3-9.9c-0.2-0.2-0.4-0.5-0.6-0.7c-2.6-3-5.2-5.8-7.4-9.1
		c-0.6-0.9-1.3-1.9-1.5-3c-0.8-3,1.2-5.7,4.3-5.8c1.1,0,2.2,0.3,3.2,0.7c2.1,0.9,3.9,2.1,5.6,3.7c0.8,0.8,1.7,1.4,2.8,1.7
		c0.5,0.2,1,0.3,1.5,0.5c-1.5-1.5-3-3-4.4-4.5c-0.3-0.3-0.6-0.6-0.8-0.9c-0.6-0.6-1.1-1.2-1.7-1.9c-1.1-1.2-2.2-2.5-3.1-3.9
		c-0.2-0.3-0.5-0.7-0.7-1.1c-0.2-0.3-0.4-0.6-0.6-0.9c-0.5-0.7-0.9-1.5-1.1-2.4c0-0.2-0.1-0.4-0.1-0.5c0.2-0.1,0.5-0.1,0.7-0.2
		c0.3,0,0.6,0,0.9,0.1c0.1,0,0.3,0.1,0.4,0.1c0.1,0.1,0.3,0.1,0.4,0.1c1.6,0.5,3.3,1.1,4.9,1.6c1.6,0.5,3.3,1.1,4.9,1.6
		c0.8,0.3,1.6,0.5,2.5,0.7c0.2,0.1,0.5,0.1,0.7,0.2c0.6,0.2,1.2,0.3,1.8,0.4c0.2,0.1,0.5,0.1,0.7,0.2c0.8,0.2,1.7,0.3,2.5,0.5
		c0.9,0.1,1.9,0.3,2.8,0.4c2.3,0.2,4.5,0.3,6.8,0.2c1.6-0.1,3.1-0.3,4.5-0.9c1.8-0.7,3.2-1.9,4.3-4
		C732.2,530.2,732.5,529.6,732.7,528.9z M668.2,337.7c5-1.2,10.1-1.8,15.2-0.7c6.5,1.3,11.7,4.7,15.1,10.4c0.7,1.1,1.3,2.2,1.9,3.3
		c0.3,0.5,0.3,1.1-0.2,1.5c-0.5,0.5-1.1,0.3-1.5-0.1c-0.6-0.4-1.2-0.9-1.7-1.3c-2.1-1.6-4.6-1.7-7.1-1.9c-1-0.1-1.4,1-0.7,1.6
		c4.5,4.3,7,10.1,10.4,15.2c0.6,1,1.4,1.8,2.3,2.3c5.8,3.5,8.6,8.9,9.6,15.3c0.4,2.3,0.7,4.6,1.6,6.7c0.4,0.9,0.6,1.8,0.5,2.8
		c0,0.9-0.3,1.6-1.2,1.9c-0.8,0.3-1.4-0.1-1.9-0.7c-1.2-1.5-2.4-3-3.6-4.5c-1.4-1.7-2.9-3.2-5.6-4.1c1.1,2.5,1.7,4.6,3,6.5
		c2.8,4.1,4.1,8.8,5.4,13.5c1.6,6.1,2.2,12.4,3.1,18.7c0.1,0.9,0.3,1.8-0.7,2.4c-0.6,0.4-3.1-0.3-3.7-1.1c-0.5-0.6-0.8-1.4-1-2.2
		c-1.3-5.2-3.9-10-6.4-14.7c-1.2-2.3-2.8-4.3-4.7-6.2c-0.5-0.5-1.1-1.1-1.7-1.6c0.1,0.6,0.3,1.3,0.4,1.9c0,0.2,0.1,0.5,0.1,0.7
		c0.1,0.5,0,1-0.5,1.2c-0.7,0.3-1.1-0.1-1.3-0.6c-1.1-2.3-2.4-4.6-4.3-6.3c-2.1-2-3.9-4.3-6.7-5.6c-1.3-0.6-2.6-1.1-4.1-1
		c-2.6,0.2-4.6-1.1-5.7-3.3c-1.3-2.7-3.4-4.5-5.9-6.1c-2.3-1.5-4.5-3.1-6.8-4.5c-2.8-1.7-5.7-2.9-8.9-3.4c-1.2-0.2-2.4-0.5-3.4-1.1
		c-2.1-1.3-3-3.3-3-5.7c0-1.7-0.4-3.3-1-4.9c-0.4-0.9-1-1.5-2-1.9c-4.6-1.7-9.1-3.4-13.7-5.2c-3.1-1.2-6.2-2.6-8.8-4.8
		c-0.9-0.8-2.3-0.8-3.2-1.5c0.8-0.8,1.8-0.9,2.6-1.2c4.6-1.8,6.9-4.9,6.8-9.9c-0.1-3.8-0.3-7.7-1.5-11.4c-0.3-1.1-0.1-1.5,0.9-1.6
		c1.7-0.2,3.3-0.4,5-0.4c1.1-0.1,2.2,0,3.3-0.1c2.8-0.4,4.8,0.8,6.2,3.2c0.9,1.5,1.4,3.2,1.9,4.9c0.7,2.3,2.1,3.7,4,5.1
		c2.9,2.2,5.9,2.7,9.4,2.3C659.2,339.2,663.7,338.8,668.2,337.7z M559.1,298.9c1.7-2.6,0.9-5.8,2.2-8.4c0.1-0.1,0.1-0.3,0.1-0.5
		c0.7-2.2,1.9-3.3,3.7-3.2c1.8,0.1,3.1,1.5,3.4,3.7c0.1,0.5,0.1,1,0.1,1.4c0.1,0.6,0.4,0.9,1,0.7c1.7-0.5,3.5-0.4,5.2-0.3
		c2.8,0.2,4.2-1.1,5.1-3.6c1.1-2.6,2.8-4.8,5.1-6.6c1-0.8,2-1.3,3.3-0.7c1,0.6,1.4,1.7,1,3.4c-0.4,1.9-1.3,3.6-2.1,5.4
		c3.9-2,7.6-4.2,11.5-6c2.2-1,4.4-1.9,6.8-2.4c3.3-0.6,6.5-0.4,9.7,0.7c1.2,0.4,2.2,1,2.4,2.4s-0.6,2.3-1.6,3
		c-0.6,0.4-1.3,0.7-1.8,1.4c1.8,1.2,3.6,2.4,4.9,4.1c0.2,0.2,0.5,0.4,0.8,0.5c2.5,0.8,5,1.7,7.6,2.3c3.5,0.8,6.6,2.3,9.7,4
		c2.2,1.3,4.1,2.9,5.2,5.2c1.4,2.8,3.7,4.6,6.2,6.1c1,0.6,1.9,1.1,2.9,1.8c1.7,1.2,2.3,2.1,3,4.3c-0.7,0.2-1-0.4-1.4-0.6
		c-2.9-1.9-6-3.3-9.5-3.9c-2.7-0.5-5.3-1.2-8-1.5c-4.4-0.5-8.9-0.8-13.3,0.9c-1.4,0.6-3.2,0.4-4.7,0.6c-0.5,0.1-0.9-0.2-1.2-0.6
		c-2.6-3.3-6.2-4.3-10.1-4.9c-3.2-0.5-6.1-1.7-8.8-3.6c-0.9-0.6-1.9-1.2-2.9-1.6c-0.6-0.3-1.4-0.7-2.1-0.5c-1.9,0.7-3.4-0.3-5-0.9
		c-3-1.2-6.1-1.2-9.1-0.1c-1.2,0.4-2.3,0.4-3.5,0c-1.9-0.8-4-1.1-6.1-1.4c-2.9-0.3-5.7-0.3-8.5,0.9c-1,0.5-1.4,0.1-1.4-1
		C559.1,299.3,559,299.1,559.1,298.9z M526.4,287.8c0.8-1.2,1.5-2.4,2.8-3.3c1.5-1,3.1-1.3,4.7-0.4c1.5,0.9,2.3,2.4,1.9,4.1
		c-0.8,3.7-1.8,7.3-5.6,9.2c-2.7,1.4-5.2,3.2-7.3,5.3c-0.3,0.3-0.5,0.6-1.4,0.6C523.1,298,523.4,292.5,526.4,287.8z M462.5,280.4
		c0.5-0.6,1-0.2,1.4,0.2c0.9,0.9,1.8,1.8,2.5,2.9c2.2,3.2,5,5.8,7.7,8.5c0.2,0.2,0.5,0.6,0.7,0.6c3.1,0.2,2.9,2.6,3.2,4.7
		c0,0.2,0,0.3,0,0.9c0,1.7-0.5,3.9-1.3,5.9c-0.9,2.3-2.9,2.7-4.4,0.7c-0.9-1.2-1.8-1.4-3.2-1.3c-3.6,0.4-5.1-1-5.6-4.6
		c-0.5-3.9-1.6-7.7-2.4-11.5c-0.1-0.6-0.2-1.3-0.4-1.9C459.9,283.3,461.3,281.9,462.5,280.4z M359.5,311.5c0.4-1,1-1.8,1.7-2.6
		c3.1-3.3,6.7-5.9,10.6-8.2c0.5-0.3,1.2-0.5,1.8-0.7c1.5-0.4,3-0.8,4.2-2.1c0.9-1,2.5-1,4.2-1c0.8,0.1,1.9,0.2,3,0.5s1.8,0,2.5-0.8
		c3.7-4.1,8.7-5.8,13.8-7.2c2.8-0.7,5.5-0.4,8.2,0.6c1.9,0.7,2,0.6,2.2-1.4c0.1-0.5,0-1,0.2-1.4c1.2-3.8-0.2-7.2-1.8-10.6
		c-0.3-0.7-0.8-1.4-1-2.2c-0.3-0.9-0.1-1.8,0.7-2.4c0.7-0.7,1.7-0.7,2.4-0.2c1.4,0.9,3,1.4,4.6,2.1c3.3,1.3,5.6,3.7,7.1,6.8
		c0.8,1.7,1.7,3.3,2.3,5c1.3,3.3,2.7,6.5,4.6,9.4c0.4,0.7,0.7,1.4,0.9,2.2c0.3,1.1,0,2.1-0.9,2.8c-0.8,0.6-1.7,0.7-2.7,0.2
		c-3.3-1.6-6.8-1.6-10.3-1c-0.7,0.1-1.1,0.4-1.5,1c-1.8,3-3.4,3.6-6.5,2.5c-1.6-0.5-2.3-0.3-3.2,1c-0.2,0.3-0.3,0.7-0.5,1.1
		c-0.9,1.8-2.4,2.7-4.4,2.6c-1,0-2-0.3-2.8,0.3c-2.1,1.6-4.8,1.7-7.2,2.5c-1.7,0.6-3.4,1-5,1.6c-3,1.1-5.1,0.5-6.2-2.5
		c-0.8-2-2-2.3-3.8-2.5c-3.8-0.5-7.1,0.5-10.3,2.5c-1.7,1.1-3.4,2.1-4.9,3.4c-0.5,0.4-1.1,0.7-1.7,0.2
		C359.1,312.8,359.2,312.1,359.5,311.5z M295,440.5c-1.2,3.1-3,5.8-5.7,7.8c-1.5,1.1-3.1,1.9-5,2.2c-0.9,0.1-1.7,0.1-2.6-0.2
		c-2.2-0.7-3-2.3-2-4.5c1-2.1,2.3-4,3.8-5.8c1-1.2,1.7-2.4,1.8-4c0.1-1.3,0.7-2.5,1.2-3.6c0.3-0.8,0.8-1.6,0.9-2.8
		c-1.6,0.4-2.8,1-4.2,1.2c-1.2,0.2-2.4,0.1-3.6-0.2c-2.5-0.8-3.3-3.5-1.8-5.6c0.7-1,1.7-1.7,2.7-2.3c3.1-1.8,5.9-4.1,8.8-6.2
		c1.1-0.8,1.9-1.9,2.3-3.2c1.5-5,3.9-9.4,6.9-13.6c3.7-5.1,7.5-10.2,12.2-14.5c2.7-2.5,4.8-5.5,7.1-8.5c1.2-1.6,1.6-3.6,2.4-5.7
		c-1.1,0.2-1.9,0.3-2.8,0.4c-5.4,0.6-10.9,0.7-16.1-1.3c-2.4-0.9-4.7-2-6.3-4.2c-0.5-0.7-1.3-1.3-0.8-2.3s1.5-0.8,2.3-0.7
		c5.8,0.5,11.5-0.4,17.1-1.7c3.3-0.8,6.3-2.3,9.4-3.5c0.4-0.1,0.8-0.4,1-0.7c1.1-1.6,2.5-2.7,4.4-3.1c0.8-0.2,1-0.8,1.2-1.4
		c0.9-2.7,2.8-4.1,5.4-5c8.1-2.6,15.4-6.6,22.1-11.8c2.1-1.7,4.3-2.9,7-3.5c1.1-0.2,2.3-0.6,3.7-1c-0.5,1.6-0.8,2.8-1.2,4
		c-1.4,4.2-0.5,7.9,1.8,11.6c2.9,4.8,7,7,12.5,7.1c0.6,0,1.1,0,1.7,0.1c1.5,0.1,1.9,0.8,1.4,2.2c-0.2,0.4-0.4,0.8-0.6,1
		c-1.9,1.7-3.4,3.8-5.7,5c-2.2,1.2-4.3,2.4-6.2,4.1c-1.1,1-2.4,1.3-3.8,0.6c-1.5-0.7-1.9-2.1-1.8-3.6c0-0.6,0.1-1.1,0.3-1.7
		c0.5-2.1,0.5-1.9-1.5-3c-2.2-1.1-4.3-0.9-6.5,0c-3.3,1.3-6.2,3-8.4,5.8c-1.1,1.4-2.2,2.7-3.4,4.1c-0.6,0.8-0.8,1.4,0.3,1.8
		c0.1,0.1,0.3,0.2,0.4,0.3c2.2,1.8,2.1,4.4-0.3,6c-1.7,1.1-3.2,2.4-4.6,3.8c-2.2,2.1-3.5,4.6-3.2,7.9c0.3,2.8-0.7,4.2-3.5,4.9
		c-4.1,1.2-7.8,3.3-12,4.2c-0.7,0.1-1.1,0.5-1.6,1c-1.5,1.4-3,2.8-4.6,4.2c-0.8,0.8-1.4,1.7-1.9,2.8c-0.9,2-1.7,4-2.3,6
		c-0.5,1.6-1.1,3.2-2.4,4.4c-0.6,0.5-0.5,0.9-0.1,1.6c1.2,1.8,1.1,2.9-0.3,4.5c-0.6,0.7-1.2,1.3-1.9,1.8c-1.7,1.6-3.4,3.1-5.2,4.7
		C299.7,431.8,296.8,435.8,295,440.5z M374.2,506.6c-1.6,2.5-3.8,4.5-6.1,6.4c-3.6,2.9-6.5,6.4-9.2,10c-5.4,7.3-7.9,15.6-8.7,24.5
		c-0.3,3.1-0.5,6.2-0.5,9.3c0,2.2-0.1,4.3-0.4,6.5c-0.2,1.4-0.6,2.6-1.3,3.8c-2.1,3.5-6.5,3.7-9,0.5c-1-1.3-1.5-2.8-2-4.3
		c-1.4-4.2-2.2-8.5-3-12.8c-0.4-2-0.9-4.1-1.6-6c-0.4-1.1-0.9-2.2-1.7-3.2c-0.8-1.1-1.9-1.6-3.3-1.4c-2.3,0.3-4.4,0.7-6.3,2
		c-1.8,1.2-3.7,2.2-5.7,3.1c-0.9,0.4-1.8,0.8-2.7,0.9c-3.6,0.6-6.3-1.8-6.2-5.4c0.1-1.6,0.6-3.1,1.3-4.6c0.7-1.6,1.4-3.2,1.5-5
		c0-0.2,0.1-0.5,0.2-0.7c1.5-4.3,2-8.8,2.1-13.4c0-1,0.3-2,0.4-3.1c-0.2-0.1-0.3-0.1-0.5-0.2c-1.1,1-2.3,2-3.4,3
		c-0.5,0.4-1,0.8-1.5,1.2c-1.3,1-2.8,1.3-4.3,0.4c-1.3-0.8-1.9-2.3-1.6-4.2c0.4-2.3,1.5-4.2,3.1-5.8c4.3-4.4,9.2-7.9,15.1-9.9
		c2.8-0.9,5.5-1.4,7.8,1c0.3,0.3,0.6,0.6,1,0.5c2-0.3,3,1.3,4.3,2.2c0.9,0.7,0.9,1.6,0.4,2.6c-0.5,0.8-1.4,1.5-1.5,2.4
		c-0.5,2.2-1.3,4-3.2,5.4c-0.8,0.6-1.1,1.8-1.4,2.9c2-1.2,4-2.3,5.8-3.7c2.1-1.6,4.4-2.6,6.8-3.4c1-0.3,2-0.7,3-0.9
		c4.7-1.2,9-3.2,13.1-5.7c3-1.9,6.2-3.4,9.6-4.2c1.8-0.4,3.6-0.8,5.4-0.4C374.8,497.7,376.9,502.5,374.2,506.6z M624,437.1
		c-0.6,0.1-1.3,0.2-1.9,0.2c-1.8,0-3.6,0-5.5-0.3c-2.7-0.6-5.6-0.1-8.2,1c-0.9,0.4-1.7,0.8-2.5,1.3c-1.6,1-3,2.2-4,3.4
		c-0.5,0.6-1,1.3-1.4,2c-0.2,0.3-0.3,0.7-0.5,1c-0.1,0.3-0.2,0.7-0.3,1c-0.1,0.2-0.1,0.5-0.2,0.7c-0.1,0.5-0.1,1-0.2,1.4
		s0,0.9,0.1,1.4c0.1,0.7,0.3,1.4,0.7,2c0.2,0.3,0.3,0.6,0.5,1c0.4,0.6,0.8,1.2,1.2,1.8c0.1,0.1,0.2,0.2,0.2,0.3
		c-0.2-3.9,2.5-6.7,6.4-6.5c4.7,0.2,10,4.3,11.4,8.8c0.3,0.8,0.7,1.6,1,2.5c0.7,2.2,0.3,4.1-1.1,5.8c-2.3,2.6-4.5,5.4-5.7,8.5
		c-1.9,5-4.4,9.9-5.1,15.3c-0.6,4.9-2.6,9.4-4.3,13.9c-0.1,0.4-0.2,0.9-0.6,1c-1.6,0.2-1.8,1.6-2.3,2.7c-2.9,6-7.1,10.8-12.8,14.3
		c-3.7,2.3-7.4,4.7-11.2,7c-1.1,0.6-1.3,1.5-1.4,2.6c-0.3,3.4-0.7,6.8-1.5,10.2c-1.6,6.9-5.1,12.6-10.8,16.8c-4,3-8.1,6-12.5,8.5
		c-0.6,0.4-1,0.8-1.1,1.5c-1.3,6.5-4.9,11.8-9.4,16.4c-8.1,8.3-18,13.5-29,16.6c-4.2,1.1-8.5,1.6-12.7,1.6
		c-5.2-0.4-10.2-0.8-15.2-1.7c-1.8-0.3-3.6-0.6-5.5-0.8c-5.2-0.6-10-2.3-14.7-4.3c-0.8-0.4-1.6-0.7-2.3-1.2
		c-9.6-6.7-17.3-14.9-19.8-26.9c-0.3-1.2-0.9-1.7-2-2.1c-5.2-2.1-9.9-5-13.6-9.2c-2.2-2.4-4.6-4.4-7-6.5c-5.8-5.1-9.4-11.2-9.6-18.5
		c0-0.9,0-1.8,0.1-2.7s0.2-1.8,0.3-2.7c0.3-1.5-0.3-2.2-1.5-2.9c-4.5-2.5-8.6-5.6-11.7-9.8c-0.1-0.2-0.3-0.5-0.5-0.5
		c-2.4-0.1-2.2-2.3-3.1-3.7c-1.5-2.5-3.1-5.1-4.5-7.6c-2.4-4.2-4.6-8.5-5.5-13.2c0-0.2,0-0.4-0.1-0.5c-1.8-1.7-0.8-3.5-0.2-5.4
		c0.2-0.5,0.3-1.1,0.4-1.6c0.4-1.8,0.3-2.2-1.2-3.2c-1-0.7-2-1.4-3-1.9c-2.7-1.5-4.2-5.7-4.1-9.5c0-0.8,0.1-1.6,0.3-2.3
		c0.4-1.6,1.1-3,2.2-4c1-0.9,1.8-1.8,2.4-2.9c0.9-1.4,2.2-2.3,3.8-2.8c1.5-0.5,3-0.2,4,0.6c0.1-0.8,0.2-1.5,0.2-2.3
		c0.1-2.9-1.2-5-3.5-6.3c-2.4-1.3-5.1-1.3-7.5,0.2c-1.7,1.1-3.3,2.3-5.2,2.9c-5.9,1.7-12.5-0.1-15.5-5.8c-2.5-4.8-2.9-10-2.5-15.3
		c0.4-4.6,1.6-8.9,3.6-13c1-2,2.3-3.9,3.6-5.6c0.6-0.8,0.8-1.5-0.4-1.8c-3.5-1-3.7-6-1.3-8.3c3.4-3.2,7.5-4.8,11.9-5.7
		c1.5-0.3,3-0.6,4.5-0.5c1.2,0.1,2-0.5,2.7-1.6c1.9-2.9,3.9-5.6,6.4-8.1c0.9-0.9,1.8-1.6,3-2c3.7-1.3,7.3-2.9,11.2-3.5
		c0.9-0.1,1.7-0.2,2.6-0.2c1.6-0.1,3.1,0,4.7-0.2c-0.1-0.6,0-1.2,0.2-1.8c0.6-1.6,2-2.5,4.1-2.4c0.9,0,1.9,0.3,2.9,0.7
		c3.4,1.2,6.8,0.8,10-0.7c2.2-1.1,4.2-1.5,6,0.6c0.5,0.5,1,0.4,1.5,0.2c1.6-0.5,3.3-0.6,5-0.5c1.3,0,2.4,0.4,3,1.5
		c0.1,0.3,0.4,0.5,0.6,0.7c1.1-0.6,2.1-1.2,3-2.1c4-3.7,7.7-7.7,11-12c1.2-1.6,2.1-3.3,2.8-5.2c0.5-1.3,0.6-2.6,0.5-3.8
		c-0.5,0.5-1.1,1-1.8,1.3c-2.5,1.4-4.7,3.3-6.9,5.1c-5.3,4.3-11.4,6.4-18.3,4.6c-0.3-0.6,0.5-0.8,0.5-1.2c-0.2-2.6,1.6-3.1,3.6-3.6
		c2-0.4,3.7-1.3,5.6-2.1c2.5-1.1,4.1-2.9,5-5.7c-1.4,0.2-2.4,0.9-3.5,1.5c-6.2,3.5-12.8,4.3-19.7,3.1c-4.4-0.7-8.5-2.2-12-5.1
		c-0.6-0.5-1.1-0.9-1.7-1.3c-1.5-1.1-2.9-1.9-4.9-2.1c-3.5-0.4-6.8-1.9-9.8-3.8c-1.6-1-2.2-2.7-1.5-4.8c0.7-2.1,1.4-4.1,2.2-6.1
		c1.9-4.4,4.4-8.5,7.6-12.1s7.3-6,12.2-6.6c2.1-0.2,4.3-0.3,6.4-0.5c0.8-0.1,1.7-0.1,2.5-0.5c0-0.1,0-0.2-0.1-0.3
		c-0.6-0.6-2.1-0.7-1.5-2c0.4-1,1.6-0.5,2.4-0.4c3.2,0.4,6.5,0.9,9.7,1.5c4,0.7,7.1,2.9,9.9,5.6c5.3,5.2,9,11.4,10.9,18.6
		c0.4,1.5,0.8,2.5,2.5,3c0.3,0.1,0.6,0.2,0.9,0.4c0-2.7-1-5.1-2-7.5c-0.2-0.6-0.5-1.2-0.9-1.7c-0.7-1.1-0.7-2.1,0.5-2.9
		c0.3-0.2,0.5-0.4,0.6-0.7c1.9-3,2-2.3,4.9-1.6c1.7,0.4,3.1,1.3,4.4,2.4c2.1,1.7,4.2,3.5,6,5.4s5.4,1.4,6.4-0.9c0.4-1,1-1.7,1.8-2.2
		c4.4-3.1,6.6-7.7,8.3-12.6c0.8-2.2,1.7-3.1,4.1-2.8c1.9,0.3,3.7,0.1,5.4-0.2c4.3-0.6,8.2,1.3,10.1,5.1c0.2,0.4,0.3,0.7,0.5,1.1
		c2.4,4.8,6.3,5.8,10.7,2.7c0.7,0.7,0.7,1.7,0.9,2.6c0.4,1.8,1.1,3.5,1.9,5.2c2.6,4.9,8.8,8.7,15.2,6.5c0.1,0,0.3-0.1,0.4-0.1
		c0.8-0.5,1.7-0.8,2.8-0.9c1.4-0.2,1.9-0.8,2.2-2c1.8-6.2,5.2-11.5,9.7-16.1c3.6-3.7,7.8-6.3,13.2-6.6c2.1-0.1,4.1-0.7,6.1-1
		c0.9-0.1,1.8-0.3,2.6-0.2c0.9,0.1,1.1,0.9,0.5,1.6c-0.4,0.5-1.2,0.5-1.5,1.4c2.6,0.2,5,1,7.6,0.7c1-0.1,2.1,0.1,3.1,0.4
		c4.9,1.3,8.9,3.9,11.9,8c3.6,4.9,6.5,10.2,8.3,16.1c0.8,2.8,0.3,4.3-2.3,5.7c-3.2,1.8-6.6,3.2-10.4,3.4c-0.6,0-1.1,0.3-1.5,0.7
		c-1.1,0.8-2.2,1.6-3.3,2.4c-4.2,3.3-9,5.1-14.4,5.3c-3.1,0.1-6.2,0-9.3-0.1c-1.5-0.1-2.8-0.5-4.2-1.1c-0.9-0.4-1.9-0.8-2.8-1.2
		c0,0.1-0.1,0.3-0.1,0.4c0.6,0.5,1.3,1,1.9,1.4c2.5,1.7,5.2,3.1,7.4,5.2c2,1.9,4.6,2.5,7.4,1.8c0.4-0.1,0.8-0.2,1.2-0.2
		c0.5,0,1,0.1,1.2,0.6s0.1,1-0.3,1.3c-0.6,0.5-1.3,1.1-2,1.3c-2.6,0.9-5.3,2-8,2.5c-3.4,0.6-6.7-0.6-9.6-2.4
		c-2.2-1.3-4.2-2.8-5.9-4.5c0.3,1.7,1,3.3,1.8,4.9c0.8,1.7,1.7,3.4,2.7,5.1c0.8,1.2,1.6,2.3,2.7,3.1c0.9-1.1,2.3-1.6,3.8-1.2
		c3,0.7,6,0.5,9,1.4c2.2,0.7,4.4,0.5,6.7,0.4c2-0.2,3.8,0.2,5.6,0.9c0.1,0,0.1,0,0.2,0c0,0.1,0.1,0.1,0.1,0.2
		c0.9,0.4,1.8,0.9,2.7,1.6c2,1.5,3.2,3.3,3.5,5.3c5-1.8,10-3.4,15-5.2c1.2-0.4,2.4-0.7,3.6-1s2.5-0.4,3.7-0.6
		c0.8-0.1,1.7-0.2,2.5-0.4c0.2,0,0.3,0,0.5,0s0.3,0.1,0.5,0.1c0.3,0.1,0.6,0.3,0.8,0.5c0.4,0.3,0.9,0.6,1.4,0.7s1,0.3,1.5,0.3
		c0.7,0.1,1.3,0.2,2,0.3c1.9,0.5,3.7,1.3,5.4,2.2c1.7,0.9,3,2.2,4,3.6c0.5,0.7,0.9,1.5,1.3,2.3c0.2,0.4,0.4,0.8,0.6,1.2
		c0.2,0.4,0.3,0.8,0.5,1.3c0.7,1.8,1.7,3,3.5,4c2.5,1.3,4.6,2.9,6.4,4.7c4,4,6.4,9,7.9,14.8c0.1,0.3,0.2,0.6,0.1,0.9
		c-0.1,1.5-0.3,3-0.4,4.5c-0.1,1.5-0.1,3-0.1,4.6c-0.3,0-0.6-0.1-0.8-0.1c-0.2-0.1-0.4-0.2-0.5-0.4c-0.1-0.2-0.2-0.3-0.3-0.5
		s-0.2-0.3-0.3-0.5c-0.3-0.4-0.6-0.7-1-0.8c-0.1,0-0.2,0-0.3,0c-0.2,0-0.4,0-0.7,0.1c-0.2,0.1-0.4,0.1-0.7,0.1
		c-0.4,0.1-0.9,0.1-1.3,0.1c-0.2,0-0.4,0-0.6-0.1c-0.6-0.1-1.3-0.3-1.9-0.6c-0.2-0.1-0.4-0.2-0.6-0.3c-0.2-0.1-0.4-0.3-0.6-0.3
		c-0.1,0-0.2-0.1-0.3-0.1s-0.3,0-0.4,0c-0.1,0.2-0.2,0.5-0.3,0.7c-0.2,0.5-0.3,1-0.3,1.4c-0.1,0.7-0.2,1.5-0.3,2.2
		c-0.1,0.5-0.1,1-0.3,1.5c-0.1,0.6-0.3,1.1-0.5,1.6c-1.2,3.7-3.2,6.9-6.3,9.4c-0.3,0.2-0.5,0.4-0.8,0.6c-0.5,0.4-1.1,0.7-1.6,1
		C625.9,436.6,625,437,624,437.1z M714.6,520c-0.7,0.2-1.2-0.4-1.7-0.7c-2.1-1.3-4.3-2.4-6.7-3.2c-1.4-0.5-2.6-1.2-3.6-2.3
		c-3-3.3-6.8-5.5-10.9-7.2c-5.1-2.1-10.4-3.5-15.9-4.5c-1.6-0.3-3.2-0.3-4.8-0.1c-2.9,0.5-5.8,1.2-8.5,2.5
		c-4.9,2.2-7.8,7.3-7.1,12.7c0,0.3,0.2,0.7,0,0.9c-1.1,2.1-0.1,4.1,0.4,6c1.1,3.9,2.8,7.5,4.5,11.1c2.3,5,4.5,10.1,5.3,15.6
		c0.3,2.3,1.4,4.6,2.2,6.8c0.6,1.9,1.1,3.8,1.4,5.8c0.1,0.9,0.1,1.7-0.9,1.9c-1,0.3-1.5-0.4-1.8-1.2c-0.1-0.2-0.2-0.4-0.3-0.7
		c-7-15-16.3-28.6-26.9-41.2c-1.3-1.5-2.6-3-3-5.1c-0.5-2.6-0.5-4.9,0.8-7.4c1.7-3.4,3.5-6.8,5.8-9.9c0.5-0.7,0.9-1.5,1.4-2.2
		c1.7-2.6,2.5-5.4,2.3-8.6c-0.2-4.9-0.1-9.8-1.6-14.5c-0.4-1.4-1.1-2.3-2.5-3c-4.7-2.3-8.6-5.8-12.1-9.7c-1.6-1.7-2.8-3.7-3.4-6
		c-0.6-2-0.4-4,1-5.7c0.7-0.8,1.4-1.1,2.5-0.6c5.4,2.1,11,3.5,16.6,4.7c2.8,0.6,5.4,1.6,7.9,2.7c0.4,0.1,0.8,0.3,1,0.6
		c4.6,5.5,10.7,9.2,16.5,13.3c0.1,0.1,0.3,0.1,0.7,0.1c0-0.6,0-1.1,0.1-1.5c0.4-2.6,2.8-4.1,5.3-3.4c0.2,0.1,0.5,0.1,0.7,0.3
		c4.2,2.7,9,4.5,12.8,7.9c1.7,1.5,3.2,3.2,4.4,5.1c1.8,2.8,3.8,5.5,5,8.7c0.4,1,0.9,2,1.5,3c5.6,8.6,8.3,18.5,11.7,28
		C714.6,519.5,714.6,519.8,714.6,520z"/>
	<path class="st3" d="M253.7,560.8c-3.1,1.4-6.1,2.8-9.4,3.5c-2.7,0.5-5.1-0.3-6.7-2c-1.1,1.7-2.2,3.4-3.2,5.2
		c-3.2,5.7-6.5,11.3-10.4,16.6c-4.5,6.1-8,12.7-10.8,19.7c-0.8,2-1.5,4.1-1.6,6.3l0.3-0.1l1.1-0.3l1.1-0.3c0.4-0.1,0.8-0.2,1.1-0.3
		c0.8-0.2,1.5-0.3,2.3-0.5c1.5-0.3,3.1-0.6,4.6-0.8c2.3-0.4,4.7-0.6,7.1-0.8c0.7-0.1,1.5-0.1,2.2-0.2c1.1,0,2.1-0.1,3.1-0.1
		c4.4-0.1,8.7,0.1,13,0.5c0.2-2.7,1-5.3,2.5-7.8c0.5-0.8,0.8-1.5,0.8-2.5c-0.1-3.7,0.2-7.4,0.5-11.1c0.2-2.2,0.4-4.3,0.5-6.5
		c0.1-0.9,0.1-1.9,0.2-2.8c0.2-5.3,1.5-10.3,3.5-15.1c0.2-0.5,0.7-1.1,0.3-1.9C255.1,560.2,254.4,560.5,253.7,560.8z"/>
	<path class="st3" d="M791.4,600.2c-0.1-0.4-0.1-0.9-0.1-1.3c0-0.2,0-0.4-0.1-0.6c0-0.2-0.1-0.4-0.2-0.6c-0.4-1.3-0.8-2.6-1.2-3.8
		c-1.2-3.8-2.3-7.7-3.3-11.6c-0.7-2.6-1.4-5.2-2-7.8c-0.7-2.6-1.3-5.2-2-7.8c-0.5-2.2-1.1-4.3-1.5-6.5c-0.4-1.9-0.6-3.8-0.7-5.8
		c-0.2,0.1-0.4,0.2-0.6,0.3c-5.4,3-10.9,5.7-17,7.1c-0.7,0.2-1.4,0.5-2,0.7c-5.5,2-10.8,4.4-16.1,6.9c-3.1,1.5-6.3,2.4-9.6,2.8
		c-0.7,0.1-1.4,0.2-2.1,0.3c-0.5,0.1-1,0.2-1.1,0.8c-0.4,1.5-1.2,2.9-0.6,4.6c1,3.2,1.4,6.6,1.7,9.9c0.7,6.8,1.8,13.6,5.1,19.8
		c0.1,0,0.3,0,0.4,0c6.1-0.7,12.3-0.9,18.5-0.7c0-0.1,0-0.1,0-0.2l0,0l0,0l0,0c0.2-0.2,0.3-0.4,0.4-0.6c0-0.1,0-0.2,0-0.2
		c-0.4-1.4-0.7-2.8-1.1-4.1c-0.3-1.4-0.7-2.8-1.2-4.1c0-0.1-0.1-0.2-0.1-0.3c-0.1-0.3-0.3-0.6-0.7-0.7c0-0.3-0.1-0.6-0.1-0.9l0,0
		c0.1-0.3,0.2-0.7,0.2-1c0-0.5-0.1-0.9-0.3-1.4c-0.1-0.3-0.2-0.6-0.3-0.9c-0.1-0.1-0.1-0.3-0.2-0.4c-0.1-0.2-0.1-0.4-0.1-0.6
		c-0.1-0.6-0.3-1.3-1.1-1.5c-0.4-1,0-1.8,0.6-2.5c0.1-0.1,0.2-0.2,0.2-0.3c0.2,0,0.3,0,0.4-0.1c0.4-0.1,0.5-0.5,0.5-0.9
		c0.5-0.9,1.2-1.6,2.2-1.4c0.2,0,0.3,0.1,0.5,0.2c1.4,0.6,2.8,1.2,4.2,1.8c2.3,1,4.6,2.2,6.6,3.7c1.2,0.9,2.7,1.4,3.8,2.4
		c0.2,0.2,0.3,0.3,0.4,0.5c0.2,0.1,0.3,0.3,0.5,0.4c0.5,0.2,0.9,0.5,1.3,0.8c0.9,0.7,1.6,1.6,2.7,2.1c0.8,0.4,1.5,0.8,2.1,1.3
		c0.7,0.5,1.3,1,1.9,1.6c0.9,0.8,1.9,1.6,3,2.2c1,0.7,2.1,1.2,3.3,1.7c0.6,0.2,1.1,0.3,1.6,0.4c0.2,0,0.3,0,0.5,0
		c0.3,0,0.6-0.1,0.9-0.2s0.5-0.2,0.8-0.4C791.1,602.7,791.6,601.5,791.4,600.2z"/>
	<path class="st3" d="M664.7,634.1c-0.6-1.4-1.8-1.6-3-1.8c-0.3,0-1-0.5-1.6-0.8c-0.3-0.1-0.5-0.3-0.7-0.3l0,0
		c-7.3-3.3-10.8,0.2-12.2,4.7c-1.2,3.8-0.8,8.3,0.1,10c0.1,0.1,0.1,0.3,0.2,0.4c0.1,0.2,4.3,5.7,7,9.6c1.4-1.9,2.8-3.9,4.3-5.8
		c0.9-1.2,1.9-2.4,2.9-3.6l1.5-1.8l0.8-0.9c0.3-0.3,0.5-0.6,0.8-0.9l1.6-1.7c0.5-0.6,1.1-1.1,1.6-1.7c0.9-0.9,1.8-1.8,2.7-2.7
		c-1.4-0.7-2.7-1.4-4.1-2.1C665.9,634.6,665.3,634.3,664.7,634.1z"/>
	<path class="st3" d="M492.7,475.9c-7.6-2.3-14.4-6.5-21.8-9.4c-4.4-1.7-8.3-4-11.8-7.2c-3-2.7-5.3-5.6-7-8.8l0,0l0,0
		c-0.2,0.1-0.3,0.2-0.5,0.4l0,0c-0.2,0.1-0.3,0.3-0.5,0.4l0,0c-0.1,0.1-0.3,0.3-0.4,0.5c0,0,0,0.1-0.1,0.1c-0.1,0.2-0.2,0.3-0.3,0.5
		l-0.1,0.1c-0.1,0.2-0.2,0.3-0.3,0.5c0,0.1-0.1,0.1-0.1,0.2c-0.1,0.2-0.2,0.3-0.2,0.5c-0.1,0.1-0.1,0.3-0.1,0.4s-0.1,0.3-0.1,0.4
		c-0.1,0.3-0.2,0.6-0.3,0.9c-0.6,2.5-0.4,4.9,0.4,7.3c0.5,1.4,0.4,2.5-0.4,3.8c-3.3,5-3.5,10.3-0.8,15.6c1.1,2.1,2.6,4,4,5.9
		c0.6,0.8,0.7,1.5,0.3,2.4c-0.4,0.8-0.8,1.6-1.5,2.2c-4.3,4-7.6,8.8-11.4,13.2c-1.8,2.1-3.9,4.1-6.3,5.5c-4.1,2.4-8.6,3.5-13.3,2.2
		c-1.1-0.3-2-0.2-2.7,0.5c0.3,0.2,0.5,0.4,0.8,0.6c5.6,4.8,12.1,5.9,19.1,5.1c9-1,16.9-4.8,24-10.1c1.3-1,2.4-2.1,3.4-3.4
		c3.3-4,7-7.7,10.4-11.6c3.4-3.8,7.4-6.4,12.4-7.2c3.2-0.5,4.2-2.9,5.3-5.2c0.7-1.4,0.6-3.1,1-4.7
		C493.8,476.7,493.5,476.2,492.7,475.9z"/>
	<path class="st3" d="M583.1,509.6c-2,0.5-4,0.8-6,0.8c-0.5,0-1,0-1.5,0c-0.7,0-1.3-0.1-2-0.2c-0.2,0-0.3-0.1-0.5-0.1
		c-0.7-0.1-1.3-0.3-2-0.4c-2.1-0.5-4-1.2-6-2.1c-1.9-0.8-3.8-1.8-5.7-2.8c-7.1-4-12.3-9.6-14.8-17.5c-0.8-2.6-1.6-4.9-4.4-6.1
		c-1.5-0.7-1.6-1.7-0.9-3.2c0.4-0.8,0.6-1.6,0.6-2.5c-0.1-2,0.2-3.9,0.8-5.9c1.1-3.6,0.9-7.1-2.3-9.8c-0.3-0.3-0.4-0.7-0.4-1.1
		c0-0.3,0-0.7,0-1c-2.5,2.6-5.5,4.8-9,6.6c-7.6,3.8-15.4,7-23.2,10.5c-0.7,0.3-1.4,0.5-2,0.7c-2.6,0.9-2.6,0.9-2.1,3.5
		c0.3,1.6,0.5,3.2,0.8,4.7c0.3,1.9,1,2.8,3,3.2c1.7,0.3,3.4,0.8,5.1,1.2c3.1,0.9,5.7,2.5,7.9,4.8c3.4,3.5,6.9,6.9,9.9,10.8
		c6.5,8.2,15.1,12.8,25.1,15.2c3.5,0.8,7.1,1.1,10.7,1c3.8-0.1,7.2-1.2,10.3-3.4c3-2.1,6-4.2,9-6.3c0.4-0.3,0.8-0.6,1.2-0.9h-0.1
		C584,509.3,583.5,509.4,583.1,509.6z"/>
	<path class="st3" d="M437.6,636.7c-2.9,5.7-6.5,11-10.7,15.9c-3.8,4.6-8.5,8-14,10.3c-1.8,0.7-3.6,1.5-5.3,2.2
		c-0.5,0.2-0.9,0.4-1.4,0.7c-1.2,0.7-2.3,1.5-3.4,2.5c-1.6,1.5-3.2,2.9-4.8,4.4l0,0c3-1,8-2.7,8.9-2.7c1.3,0,7.3-2.5,7.9-2.8
		c0.7-0.3,2-0.8,2.2-0.1c0.3,0.7,1.6,7.3,2.4,7.6c0.4,0.2,1.2,0.8,2.1,1.3c0,0.4,0.1,0.8,0.1,1.2h11c0.2-3.6-0.1-7.3-1.2-11
		c-1.1-4-0.7-7.8,1.1-11.4c1-2.1,2.1-4.1,3.1-6.2c1.9-4,3.3-8.2,3.4-12.6c0-0.3,0-0.6-0.1-1.1C438,635.2,437.9,636,437.6,636.7z"/>
</g>
</svg>
