<?xml version="1.0" encoding="utf-8"?>
<!-- Generator: Adobe Illustrator 24.0.1, SVG Export Plug-In . SVG Version: 6.00 Build 0)  -->
<svg version="1.1" id="New_group_1_" xmlns="http://www.w3.org/2000/svg" xmlns:xlink="http://www.w3.org/1999/xlink" x="0px"
	 y="0px" viewBox="0 0 990 781.2" style="enable-background:new 0 0 990 781.2;" xml:space="preserve">
<style type="text/css">
	.st0{fill:#FFFFFF;}
	.st1{fill:#7B7B7B;}
</style>
<g>
	<path d="M698.1,330.4c0.1,2.3,0.1,4.5,0.3,6.6c1,9.4,0.9,18.8,0,28.2c-1,9.5-1.9,19.1-2.9,28.6c-0.1,0.6-0.1,1.3-0.1,1.9
		c-0.1,1.3,0.6,2.1,1.7,2.6c0.2,0.1,0.4,0.2,0.7,0.3c10.5,4.3,18.6,11.6,25.5,20.5c2.2,2.8,4.2,5.8,6.3,8.8
		c5.1,7.4,7.6,15.6,7.7,24.6c0.1,6.3,0,12.5-1.8,18.5c-0.4,1.4-0.2,2.8,0.3,4.2c0.8,2.3,1.6,4.7,2.4,7c2.5,7.2,3.2,14.6,2.6,22.2
		c-0.7,9.7-2.6,19.2-5.4,28.4c-0.8,2.7-1.8,5.3-2.8,7.9c-0.5,1.3-0.4,2.3,0.6,3.3c4.5,4.5,8.2,9.6,11.8,14.8
		c6.5,9.3,13,18.6,17.6,29.1c2,4.5,3.8,9,5.4,13.6c0.8,2.4,0.8,2.4,3.4,2.4c13.9-0.2,27.2,2.7,40.2,7.7c10.4,4,19.7,9.8,28.9,16
		c1.9,1.3,3.7,2.7,5.7,4c2.3,1.5,4.1,3.5,5.8,5.7c5.4,7.1,10.5,14.3,14.7,22.1c1.6,2.9,2.8,5.9,4,9c1.4,3.7,1.3,7.6,0.8,11.4
		c-1.1,9.8-4,19.3-7.7,28.4c-1.7,4.1-4.5,7.7-7.3,11.2c-3.2,3.9-6.9,7.3-11.4,9.8c-1.7,0.9-3,2.3-4.1,4c-3.2,5.4-7.4,10-11.7,14.6
		c-4,4.2-8.9,6.8-14.3,8.3c-2.9,0.8-4.7-0.1-6.6-2.5c-2.7-3.4-4.3-7.2-4.9-11.5c0-0.3-0.2-0.6-0.4-1.2c-1.3,1.2-2.4,2.3-3.5,3.4
		c-2.1,2.2-4.4,4.2-7,5.8c-3.6,2.3-7.5,1.5-9.7-2.2c-2.1-3.5-3.2-7.3-3.4-11.4c-0.1-1.6,0-3.2,0-4.8c0-1.2-0.4-2.1-1.5-2.8
		c-1.5-1-3-2.1-4.8-2.8c-4.3-1.8-7.3-4.7-8.8-9.2c-0.7-2.1-1.6-2.2-3-0.6c-1.5,1.7-2.6,3.7-3.2,5.8c-1.3,4.5-3.6,8.5-6.6,12.1
		c-1.3,1.6-2.9,2.9-4.5,4.2c-3.6,3-8.5,1.4-10.7-1.4c-2.1-2.7-3.3-5.8-4-9.2c-0.1-0.7-0.3-1.4-0.3-2.1c0-2.8-1.8-4.2-4-5.5
		c-6.2-3.6-11.4-8.4-15.4-14.5c-0.5-0.8-1.1-1.3-2.1-1.3c-0.8,0-1.6,0-2.4,0c-141.7,0-283.4,0-425.2,0c-0.4,0-0.8,0-1.2,0
		c-1.7-0.2-2.9,0.4-3.6,2c-0.4,0.9-1.1,1.8-1.8,2.5c-2.3,2.4-4.7,4.8-7.2,7.1c-1.8,1.7-3.8,3.1-6.1,4.2c-2.3,1.1-3.7,2.8-3.9,5.6
		c-0.3,3.7-1.4,7.2-3.6,10.3c-1.2,1.8-2.9,3-5,3.5c-2.2,0.6-4.2,0.4-6.1-1.1c-5.2-4-8.8-9-11-15.1c-0.4-1.1-0.7-2.1-1.1-3.2
		c-0.6-1.7-1.6-3.1-2.9-4.4c-1.5-1.4-2-1.3-2.6,0.5c-1.5,4.7-4.6,8-9.2,9.7c-1.4,0.5-2.7,1.4-4,2.2c-1.7,1-2.2,2.4-2,4.3
		c0.6,3.9-0.3,7.6-1.6,11.3c-0.3,1-0.8,1.9-1.3,2.9c-2.4,4.6-6.5,5.7-10.8,2.8c-2.5-1.7-4.7-3.8-6.9-5.9c-1-0.9-1.7-2.7-3-2.3
		c-1.1,0.3-0.8,2.2-1.1,3.5c-0.8,3.8-2.9,6.9-5.4,9.8c-1.3,1.5-3.1,1.9-5,1.4c-5.2-1.3-10-3.5-13.8-7.4c-4.2-4.3-8.5-8.7-11.7-14
		c-1.8-3-4.1-5.2-7.2-6.9c-4.6-2.5-7.8-6.5-11.1-10.5c-6.2-7.6-9.1-16.5-10.2-26c-1-8.1-0.1-16.3,1.6-24.3c1.2-5.6,2.8-11,5.5-16
		c3-5.5,7.2-10,12-13.9c6.7-5.4,13.4-10.9,20.5-15.8c14.3-9.9,30.3-15.4,47.6-17.1c7-0.7,14-0.5,21.1,0.2c3.8,0.3,7.6,0.8,11.4,1.5
		c1.4,0.2,2.2-0.2,2.9-1.5c6-10.7,12.7-20.9,19.1-31.3c5.6-9.1,11.9-17.6,19.4-25.3c0.2-0.2,0.5-0.4,0.7-0.7c0.8-1,0.8-1.4-0.3-1.8
		c-4.6-1.4-7.5-4.7-10.2-8.4c-8.6-12.1-14.2-25.4-16.3-40.1c-1.4-10-1.2-20.1,1.3-30c0.8-3,1.6-5.9,3.2-8.5c1.1-1.9,1.2-3.7,0.7-5.7
		c-1.1-4.3-1.9-8.7-2.2-13.2c-0.4-4.6,0.1-9.1,1.3-13.5c3.6-12.3,9-23.8,17-33.9c3.3-4.1,7-7.9,10.9-11.5c3-2.7,6.8-4.2,10.4-5.8
		c3-1.3,6.1-2.4,9.2-3.4c2.2-0.7,2.2-0.8,1.2-2.8c-4.2-8.1-7-16.6-7.9-25.8c-0.1-1-0.3-1.9-0.4-2.8s-0.6-1.1-1.3-0.5
		c-0.6,0.6-1.2,1.3-1.8,2c-2.9,3.4-5.5,7.1-8.6,10.3c-5.2,5.4-11.5,9.3-17.7,13.4c-4.1,2.7-8.4,5-12.6,7.4
		c-9.6,5.4-19.9,6.7-30.6,4.7c-8.1-1.4-13.1-6.5-16.4-13.7c-1.5-3.1-2.4-6.4-3.1-9.8c-1.3-6.4-2-13-3.6-19.3
		c-2.7-11-6.7-21.5-11.2-31.9c-5.4-12.1-11.1-24.1-16.8-36.1c-2.6-5.5-4.7-11.2-6.5-17c-1.4-4.8-3.1-9.4-4.8-14.1
		c-3.8-10.2-6.3-20.8-7.5-31.6c-0.7-6.7-1.6-13.3-2.1-20c-0.3-4.8-0.6-9.6-0.4-14.4c0.2-5.2,0.3-10.4,1.1-15.5
		c1.5-10.1,5.5-19,12.4-26.6c2.8-3.1,6.4-5.2,10.4-6.7c2.6-0.9,5.1-1.9,7.7-2.6c6.6-1.7,13-4.1,19.2-6.8c4.8-2.2,9.7-4.1,14.7-5.8
		c6.4-2.2,12.1-5.9,17.9-9.1c7.8-4.4,15.2-9.4,23.4-13.2c9.4-4.3,18.8-8.5,29.1-10.1c6-1,12-1.8,18-2.6c1.9-0.3,3.8-0.6,5.3-2
		c0.6-0.6,1.4-0.8,2.2-1c3.6-0.9,7.3-1.6,11.1-1.8c2.8-0.1,2.8-0.1,3.6-2.6c3-9.2,8.1-17.2,15-24c4.3-4.3,8.9-8.3,13.9-11.8
		c1.3-0.9,2.6-1.6,3.9-2.3c4.4-2,8.2-0.4,9.8,4.2c0.9,2.6,1.7,5.3,2.5,8c0.9,2.7,1.9,5.3,3.5,7.6c2.6,3.8,6.1,6.3,10.7,7.1
		c1.4,0.2,2.7,0.2,4-0.1c8.4-1.7,16.7-3.7,24.7-6.7c9.5-3.5,19.4-6,29.3-8.1c8.7-1.9,17.5-3.7,26.3-5.7c4-0.9,8.1-1.4,12.1-1.6
		c12.2-0.6,24.5-1.1,36.7-0.5c21.4,1,42.5,4.1,63,10.6c5.8,1.8,11.4,4.1,16.9,6.7c5.5,2.6,11.1,5,16.1,8.6c1.6,1.2,1.9,1,2.9-0.8
		c1.1-2.1,2.1-4.3,3.2-6.5c0.5-1,0.9-2.1,1.5-3c1.4-2.3,3.9-3.1,6.5-2.3c1.7,0.5,3.1,1.6,4.5,2.6c8.3,6.2,17.4,11.1,26.5,15.9
		c4.5,2.3,9.4,3.7,14.3,4.9c5,1.3,10,2.7,14.6,5.2c1.2,0.6,2.4,0.8,3.7,0.8c3.2,0.1,6.4-0.3,9.5-0.8c8.2-1.5,16.5-2.2,24.8-1.7
		c10.4,0.6,20.1,3.6,28.8,9.5c5,3.4,9.9,6.8,14.2,11c4.2,4,7.6,8.6,10.6,13.6c3.3,5.5,6.7,10.9,10,16.4c2,3.3,4.6,6,7.8,8
		c4.8,3,9.8,5.8,14.6,8.7c5.2,3.1,9.8,6.9,13.4,11.8c4.1,5.6,6,11.9,6.5,18.8c0.5,7.6-0.2,15-1.9,22.4c-1.7,7.3-3.9,14.5-6.1,21.7
		c-4.8,15.2-9.9,30.2-15.8,45c-4.3,10.8-8.2,21.7-11.8,32.7c-3.8,11.6-5,23.4-4.7,35.5c0.2,7.7,0.9,15.3,1.4,23
		c0.4,5.8-0.8,11.3-4.5,16c-2.2,2.7-4.9,4.6-8.2,5.5c-4.9,1.4-9.9,1.8-14.9,0.8c-5.7-1.1-11.5-1.9-17.2-3c-4.8-0.9-9.4-2.6-13.8-4.9
		c-9-4.6-17.8-9.5-26.1-15.2c-6.2-4.3-12-9-16.6-15.1C699.4,331.3,699.1,330.8,698.1,330.4z"/>
</g>
<g>
	<path class="st0" d="M607.2,254.3c2.1,0.9,4.4,1,6.6,0.3c3.5-1.1,6.4-3.2,8.5-6.2c1.5-2.1,2-4.4,1.5-7c-1.1-5.7-6.3-9.6-12-8.9
		c-5.6,0.6-9.9,5.4-9.9,12.1c0.1,1.8,0.8,4.3,1.9,6.6C604.5,252.6,605.7,253.6,607.2,254.3z"/>
	<path class="st0" d="M590.6,269.9c-0.8-0.9-1.6-1.9-2.4-2.8c-0.5-0.6-1.1-1.2-1.7-1.6c-1-0.7-2.3-0.2-2.8,0.9
		c-0.3,0.6-0.3,1.3-0.1,2c0.3,1.2,0.7,2.4,1.5,3.4c2.2,3.2,4.9,5.9,8.5,7.5c4.4,2,9,3.5,13.6,3.4c4.5,0.1,7-0.4,10.8-2.2
		c2.5-1.1,4.6-2.8,6.9-4.2c5.3-3.2,8.1-8.2,10.3-13.7c0.3-0.8,0.5-1.7,0.5-2.6c0.1-2.4-1.6-4.6-3.7-4.9c-2.4-0.4-4.6,1.1-5.3,3.6
		c-0.2,0.9-0.3,1.8-0.4,2.7c-0.3,1.9-0.6,3.8-1.5,5.5c-3.8,6.4-9.5,9.7-17,9.6c-4.4-0.1-8.6-1.4-12.6-3.2
		C593.3,272.3,591.9,271.3,590.6,269.9z"/>
	<path class="st0" d="M393.1,265.6c2.9-1.2,4.6-3.4,5.9-6.1c1.9-4.2,1.1-8.2-2.4-11.2c-2.1-1.8-4.6-2.6-7.3-2.9
		c-3.4-0.4-5.6,1.1-7.2,3.8c-1.2,2-1.7,4.1-1.6,6.5c-0.1,1.6,0.2,3.3,0.8,4.9C383.1,265.3,388.5,267.6,393.1,265.6z"/>
	<path class="st0" d="M366.8,277.8c-2.2-3-3.7-6.4-4.5-10c-0.2-1-0.5-2-0.8-2.9c-0.2-0.5-0.7-0.9-1.3-0.9c-0.8,0-1.2,0.5-1.5,1.1
		c-0.2,0.4-0.3,0.9-0.3,1.3c0,1,0.1,2,0.3,3c0.7,3.2,2,6.1,3.3,9.1c2.3,5.2,6.2,8.4,11.2,10.5c3.1,1.3,6.3,2.4,9.5,3.2
		c2.5,0.6,5,1.3,6.6,1.3c4.8,0,10-2.1,12.5-4.8c2-2.1,3.3-4.5,2.6-7.6c-0.1-0.5-0.1-1.1-0.1-1.7c-0.1-1.7-0.3-1.9-1.7-1.2
		c-2.2,1.1-4.2,2.3-6.2,3.9c-2.5,1.9-5.5,3-8.7,3.3c-6.7,0.6-12.8-1.5-18.5-5C368.3,279.7,367.5,278.8,366.8,277.8z"/>
	<path class="st0" d="M664.6,103.9c2.8,1.9,5.3,4,9,4.3c3.8,0.3,7.5,1.2,11.3,2c10.2,2.1,19.8,5.6,28.5,11.5c3.2,2.1,6.3,4.3,9,7.1
		c1,1,2.1,2,3.4,2.8c4.6,2.7,7.8,6.7,10.1,11.4c2.1,4.5,4.1,9,6.2,13.5c1.1,2.4,1.7,4.9,2.1,7.4c0.2,1.1,0.2,2.2-0.2,3.3
		c-0.8,2.5-3.4,3.5-5.7,2.3c-0.6-0.3-1.1-0.7-1.6-1.2c-1.9-1.9-4-3.7-5.7-5.7c-4.6-5.4-9.8-10.2-15.4-14.5c-1-0.7-1.8-1.8-3.1-1.9
		c-0.6,1.5,0.6,2.5,1.2,3.6c0.6,1.2,1.5,2.2,2.4,3.2c3.5,3.8,6.5,8,9.2,12.4c8.5,14,14.9,28.9,19.1,44.8c2.4,9.4,5.8,18.4,10.3,27
		c0.4,0.8,0.8,1.6,1,2.5c0.4,1.8-0.2,3.4-1.7,4.5c-1.4,1-2.9,1.2-4.5,0.4c-0.8-0.4-1.6-0.9-2.2-1.6c-0.8-0.9-1.7-1.8-2.4-2.8
		c-1.4-1.9-3-3.6-4.6-5.3c-3.3-3.4-6.5-6.9-9.7-10.3c-0.6-0.7-1.1-1.5-1.8-2c-2-1.3-3.2-3.1-4.2-5.1c-0.4-0.7-0.7-1.7-1.8-1.7
		c-0.1,0.3-0.3,0.6-0.3,0.9c-0.2,3.7-0.5,7.4-1,11.1c-0.4,2.6-0.1,5.2,0.9,7.6c0.5,1.4,1,2.7,1.6,4.1c5,10.3,11.8,19.3,20.1,27.2
		c1.3,1.2,2.7,2.4,4.2,3.4c3.2,2.3,7.9,1.6,10.3-1.4c1.4-1.7,2.9-3.4,4.3-5.2c2.3-3.1,5.1-5.7,8-8.1c0.8-0.7,1.8-1.3,2.9-1.8
		c1.5-0.7,2.9-0.4,4,0.7c1.1,1.1,1.3,2.4,0.8,3.7c-0.2,0.6-0.5,1.2-0.8,1.8c-4.3,9.5-7.1,19.4-8,29.7c-0.4,4.4-0.6,8.7-0.6,13.1
		c0,7.2,0.7,14.3,2.2,21.4c0.2,1,0.5,2,0.6,3c0.2,1.6-0.4,2.9-1.8,3.7c-0.7,0.4-1.4,0.8-2,1.2c-2.8,2-4.6,2-7.4,0.1
		c-1.6-1.1-3.2-2.1-4.8-3.1c-6.2-3.9-12-8.3-17.5-13.1c-1.9-1.7-3.7-3.6-5.3-5.7c-2.6-3.4-5.3-6.7-7.8-10.1
		c-2.8-3.7-5.2-7.6-6.9-11.9c-1.2-3.2-2.5-6.3-3.6-9.5c-1.4,0-1.5-0.2-2-1.9c-1.3-4.2-2.6-8.3-3.8-12.5c-1.4-5-2.4-10.2-3.3-15.3
		c-1.2-4.2-2.4-8.5-3.7-12.7c-0.5-1.6-0.8-3.3-1.2-4.9c-0.3-1.4-0.4-2.9,0.2-4.3c0.6-1.4,0.3-2.3-0.8-3.3c-3.7-3.4-7.7-6.5-12.1-9.1
		c-0.4-0.2-0.7-0.6-1.3-0.1c0.2,1,1,1.6,1.6,2.4c3.4,5.1,6.4,10.3,7.9,16.3c0.7,2.6,1.3,5.2,1.9,7.9c0.9,4.5,1.3,9.1,0.5,13.7
		c-0.5,3.3-1.3,6.6-2.3,9.8c-0.8,2.6-0.8,5.1,0,7.6c0.3,1.2,0.7,2.4,1,3.6c1.4,4.9,4,9,7.8,12.4c1,0.9,2,1.9,2.3,3.2
		c0.6,2.4,2,4.5,3.2,6.7c1.8,3.4,3.8,6.6,5.4,10.1c3.7,8.2,9,15.2,15.5,21.4c0.2,0.2,0.3,0.3,0.5,0.5c3.1,3.3,6.7,6,10.6,8.2
		c5.4,3,10.8,5.9,16.3,8.8c1.6,0.8,3.3,1.5,4.9,2.1c3,1.2,6.1,1.5,9.2,1.5c2.3,0,3-0.5,3.7-2.7c0.3-0.9,0.5-2,0.6-2.9
		c0.1-1.5,0.1-2.9,0.1-4.4c-0.1-3.8-0.3-7.6-0.3-11.4c-0.4-19.8,3.2-38.9,10.6-57.2c5.4-13.4,11.4-26.6,17.4-39.8
		c1.8-3.9,3.4-7.8,4.7-11.9c3.9-12.3,7.4-24.7,9.6-37.5c0.7-4,0.8-8,0.1-12c-0.4-2.3-1.3-4.2-3.2-5.7c-2-1.5-3.9-3.1-5.8-4.6
		c-7.6-6-14.1-12.9-19.3-20.9c-6.3-9.7-12.4-19.5-17.8-29.7c-1-1.9-2-3.8-3.4-5.4c-3.5-4.3-7.4-8.1-11.9-11.4c-2-1.5-4.3-2.4-6.7-3
		c-3.7-0.8-7.4-0.5-11.1-0.3c-4.1,0.2-8.3,0.6-12.4,0.8c-2.2,0.1-4.5,0-6.7-0.1c-5.7-0.5-11.3-1.5-16.9-2.7c-9-1.9-18-4.3-27-6.3
		c-0.1,0.4-0.1,0.9,0,1.4c0.1,1.3,0.5,2.7,1.5,3.7c1.6,1.7,3.2,3.5,5.1,4.8c0.4,0.3,1,0.5,0.9,1.2c-3.7,2.6-7.8,4.3-12.3,5.3
		c-3.2,0.7-6.3,1.5-9.1,3.1c0.1,0.6,0.2,1.2,0.4,1.7C664,103,664.2,103.6,664.6,103.9z M764.6,132.1c0.6-0.6,1.4-0.7,2.2-0.6
		c0.8,0.1,1.5,0.6,2.1,1.1c5.9,4.5,11.6,9.3,16.8,14.5c2.7,2.7,4.8,5.9,6.3,9.5c0.4,1,0.9,2,1.5,3c4.8,7.6,7.2,15.9,7.5,24.8
		c0,1.1,0,2.2,0,3.4c0.3,9.2-1.6,18.1-5.6,26.4c-0.8,1.7-1.6,3.5-2.4,5.2c-1.9,4.4-4.4,8.5-7,12.6c-0.2,0.4-0.6,0.7-0.9,0.9
		c-0.3,0.2-0.6,0.2-0.9-0.2c-0.1-0.1-0.1-0.2-0.2-0.3c-1.2-4.1-3-8-3.3-12.3c-0.5-6.1-2.1-11.9-4.3-17.6c-0.9-2.2-2.2-4.2-3.5-6.1
		c-1.1-1.7-2.3-3.3-3.3-5.1c-1.9-3.1-2.2-6.5-1.4-10.1c0.7-3,1.7-5.8,2.8-8.6s2.1-5.7,3.2-8.5c0.5-1.3,0.9-2.6,1.9-3.5
		c0.8-0.8,0.7-1.6,0.2-2.4c-3.4-7.2-6.2-14.7-10.8-21.3c-0.5-0.7-1-1.5-1.3-2.3C763.6,133.7,763.9,132.8,764.6,132.1z"/>
	<path class="st0" d="M526.1,217.1c0.2,3.3,0.6,6.5,1.3,9.7c0.6,2.7,2.8,4.2,4.3,6.2c0.1,0.2,0.4,0.2,0.6,0.3c1.5,0.5,3,1,4.6,0.7
		c3.4-0.6,3.2-0.4,3.2-3.4c0.1-9.8,3-18.8,8.1-27.1c1-1.7,2.1-3.5,2.8-5.4c0.3-0.8,0.8-1.6,1.3-2.4c1-1.4,2.4-2.1,4.1-1.8
		c1.8,0.4,3,1.5,3.3,3.4c0.2,1,0.2,2,0.2,3c0,1.8,0,3.6,0,5.4c-0.1,0-0.2,0-0.2,0c0,2-0.1,4,0,6.1c0.1,1.6,0.3,3.1,0.6,4.7
		c0.1,0.8,0.7,1.1,1.4,1.1c0.8,0,1.5-0.1,2.1-0.9c0.9-1.3,1.9-2.4,2.3-4.1c0.7-3,1.9-5.7,3.1-8.5c2.6-6,6.7-10.5,12.4-13.7
		c6.2-3.5,12.9-5.7,20-6.6c2-0.3,4-0.4,6-0.6c7.2-0.6,14.4,0,21.3,1.9c2,0.5,3.9,0.9,5.9,1c2.6,0.2,5.1,0.3,7.7,0.6
		c4.4,0.5,8.5,2,12.7,3.2c5.5,1.5,10.9,3.6,15.7,6.8c1.7,1.1,3.4,1.5,5.4,0.9c3.3-0.9,6.7-0.7,10-0.1c4.8,1,9.1,3.1,13,6
		c0.9,0.7,1.8,1.3,2.7,1.9c0.4,0.3,0.9,0,0.9-0.5c0-1.2-0.1-2.5-0.2-3.7c-0.4-4.4-1.1-8.7-1.9-13.1c-0.8-0.2-1.5-0.7-2-1.4
		c-0.6-0.8-1.1-1.7-1.6-2.5c-0.7-1.2-1.2-2.4-2-3.5c-2.7-3.7-5.5-7.4-8.9-10.5c-2.1-1.9-4.1-3.9-6-5.9s-4-3.6-6.2-5.1
		c-1.5-1-3-1.9-4.5-2.9c-5.9-3.6-12.4-5.7-19.2-6.6c-2.5-0.3-4.9-0.5-7.4-0.6c-0.2,0-0.4-0.2-0.4-0.3c0-0.2,0.1-0.5,0.2-0.6
		c2.3-1.6,4.8-2.3,7.6-2.4c3.7-0.1,7.4-0.4,11,0.6c0.8,0.2,1.1,0.1,2.4-0.5c-0.3-0.4-0.6-0.7-0.9-1c-3.2-2.7-6.9-4.6-10.6-6.5
		c-1-0.5-2.1-0.7-3.3-0.7c-2,0-4-0.1-6.1-0.1c-4.6,0-9.1,0.1-13.7,0.6c0.8,1.1,1,2.6,0.5,4.1c-0.6,1.8-1.8,3.1-3.4,4
		c-1.5,0.8-3,1.5-4.5,2.3c-6.5,3.6-12.7,7.6-18.8,11.9c-4.1,2.8-7.8,6.1-10.6,10.2c-0.8,1.2-1.8,2.3-2.8,3.4c-3.1,3.6-7,5-11.7,4.5
		c-1.4-0.2-2.9-0.2-4.4-0.3c-1.4-0.1-2.5,0.5-3.5,1.5c-1.6,1.7-3.4,3.2-4.9,5c-2.1,2.3-5.2,1.7-6.6-1.1c-0.8-1.5-1-3.2-0.8-4.9
		c0.3-2.6,0.8-5.1,1.8-7.5c1.7-3.9,3.4-7.8,5.5-11.5c-4.8,2.4-9,5.5-12.7,9.4c-0.7,0.7-1.2,1.5-2.1,1.9c-0.4-0.4-0.2-0.7,0-1
		c1.7-3.3,3.4-6.6,5.1-9.8c1.6-3,3.1-6,4.6-9c0.5-1.1,1-2.3,1.2-3.5c0.1-0.5,0.1-0.9,0-1.4c-3.5,2.2-6.8,4.6-9.8,7.6
		c-2.7,2.7-5.3,5.5-7.8,8.4c-1.4,1.6-2.8,3.3-3.9,5c-4.3,6.5-8.1,13.2-11.2,20.3c-0.6,1.4-1.3,2.9-1.6,4.4
		c-1.1,5.5-1.8,11.1-1.4,16.7C525.8,211.5,525.9,214.3,526.1,217.1z"/>
	<path class="st0" d="M716.9,604c-0.8-0.1-1.5-0.4-2.2-0.7c-1.9-0.8-3.7-1.6-5.6-2.4c-3.3-1.4-6.5-3.1-9.4-5.3
		c-2.4-1.8-4.7-3.8-7.1-5.7c-0.4-0.3-0.8-0.8-1.6-0.5c-0.2,2.2-0.4,4.6-0.6,6.9c-0.1,0.9,0,1.8,0.1,2.7c1.4,8.4,3.2,16.8,6.5,24.7
		c0.3,0.6,0.5,1.2,0.7,1.8l0.4-0.3l2.1-1.4c5.7-3.6,11.7-6.7,18-9.3c0.4-0.2,0.8-0.3,1.2-0.5l1.2-0.4l2.4-0.9
		c0.4-0.1,0.8-0.3,1.2-0.4l1.2-0.4l2.4-0.8l1.2-0.4c0.4-0.1,0.8-0.2,1.2-0.3l2.4-0.7l1.2-0.3l0.6-0.2l0.6-0.1l2.4-0.6
		c2.9-0.7,5.9-1.3,8.8-1.8c-1.6-2.9-3.2-5.8-4.7-8.6c-4.8-8.7-10.2-16.9-16.2-24.8c-3.4-4.5-7.1-8.7-11.2-12.6
		c-0.5-0.4-0.8-1.1-1.8-0.9c-2.2,2.6-4.4,5.2-6.7,7.9c-0.5,0.6-0.5,1.2-0.3,1.9c0.5,2,1.2,3.9,2,5.7c3.1,6.8,7,13.1,12.2,18.4
		c0.7,0.7,1.4,1.4,2,2.3c1.2,1.8,1.4,3.8,0.2,5.7C720.9,603.6,719.1,604.3,716.9,604z"/>
	<path class="st0" d="M666.2,582.1c3.2-6.9,6.3-13.9,8.3-21.3c1.7-6.3,2.7-12.7,1.8-19.3c-0.6-4.3-1.5-8.6-1.8-13
		c-0.2-2.7-0.1-5.4,0.5-8.2c1.1,0.4,1.6,1.3,2.5,1.7s1.8,0.9,2.5,1.4c1,0.7,1.9,1.6,2.9,2.5c5.4,5.2,9,11.4,11.6,18.3
		c0.7,1.9,0.9,3.9,2.1,5.6c2.1-1,2.9-3.2,4.4-4.9c0.6-0.7,1-1.5,1.5-2.2c0.4-0.6,0.7-1.2,1.2-1.6c2.7-2.7,4.9-5.9,7-9.1
		c4.8-7.3,8.2-15.1,9.3-24c0.7-6.5,1.2-13,0.1-19.5c-0.9-5.7-2.6-11.1-4.5-16.6c-0.8-2.5-2.1-4.7-3.6-6.8c-0.8-1.2-1.8-2.4-2.4-3.6
		c-1.6-3.2-4.1-5.6-6.9-7.7c-2.1-1.5-4.2-3-6.4-4.4c-0.7-0.5-1.5-1-2.2-1.5c-0.1-0.1-0.2-0.4-0.2-0.6c0-0.1,0.3-0.3,0.5-0.3
		c0.4,0,0.9,0,1.3,0.1c1.4,0.4,2.8,0.7,4.2,1.2c5.9,2.2,11.8,4.4,17.6,6.6c0.3,0.1,0.6,0.2,0.9-0.3c-0.2-0.4-0.4-1-0.6-1.5
		c-5.6-11.2-13.3-20.8-23.4-28.2c-4.2-3.1-8.3-6.2-13.5-7.3c-0.3-0.1-0.6-0.2-0.9-0.4c-2.9-1.1-5.2-3.1-6.7-5.9
		c-0.9-1.7-1.6-3.4-2.4-5.2c-0.8-2-1.5-4-2.3-6c-2.7-6.7-6.4-12.9-10-19.1c-0.8-1.4-2-2.7-3.1-4c-2.6-2.9-5.3-5.8-8-8.7
		c-6.9-7.6-14.9-13.9-23.5-19.5c-5.7-3.7-11.4-7.1-17.2-10.5c-7.3-4.3-15.2-7.1-23.6-8.4c-4.1-0.7-8.3-0.6-12.4-0.6
		c-8.3-0.1-16.6,0.5-24.8,2.1c-6.1,1.2-12,2.9-17.4,6.1c-1.6,1-3.3,2-4.9,2.9c-1.6,0.9-3.3,1.4-5.2,1.2c-2-0.2-3.7-1.3-4.6-3
		c-0.4,0-0.8-0.1-1.2-0.2c-1-0.4-1.7-1-2.5-1.7c-1.9-1.9-3.8-3.8-5.7-5.7c-0.7-0.7-1.1-1.6-1.5-2.5c-0.9-2.1-2.5-2.9-4.6-2.6
		c-0.7,0.1-1.3,0.3-1.8,0.8c-0.9,0.8-1.8,1.7-2.4,2.8c-1.8,3.1-3.7,6.2-5.6,9.2c-0.8,1.2-1.7,2.4-2.5,3.5c-0.3,0.4-0.9,0.2-1.1-0.3
		c-1-2.9-1.9-5.7-2.9-8.6c-1.4-4.2-2.8-8.5-4.8-12.6c-1.3-2.6-3.3-4.8-5.1-7.1c-0.3-0.3-0.6-0.7-1-0.9c-2.6-1.8-5.4-1.3-6.7,2.1
		c-0.6,1.5-0.5,3.1-0.5,4.6c0,4.1-0.6,8.2-1.6,12.2c0.2,0.9,0.5,1.8,0.7,2.8c0.8,3.2,1.4,6.4,2,9.6c0.3,1.5-0.6,2.7-2.1,2.9
		c-1.6,0.3-3.1,0.1-4.7-0.2c-1.9-0.4-3.7-0.9-5.6-1.2c-8.7-1.5-17.3-3.6-25.9-5.8c-6.3-1.6-12.8-2.6-19.2-3.4
		c-7.3-0.9-14.6-0.2-21.8,1.1c-14.9,2.8-28.6,8.3-40.6,17.8c-4.1,3.2-7.7,6.9-10.8,11.1c-2.6,3.5-5,7.2-7.1,11
		c-1.3,2.2-2.5,4.5-3.9,6.7c-1.9,3-4.6,4.9-8.2,5.4c-6,0.8-11,3.6-15.6,7.5c-6.9,5.8-12.1,12.9-15.8,21.1c-1.7,3.7-3.2,7.4-4.8,11.1
		c-1.1,2.6-1.9,5.3-2.5,8c-0.1,0.6-0.1,1.3-0.1,2c0,0.1,0.1,0.3,0.1,0.3c0.2,0,0.5,0.1,0.6,0c0.4-0.4,0.8-0.8,1.1-1.3
		c1.3-1.7,2.6-3.4,4-5c5.3-6.4,11.6-11.6,18.5-16c2.4-1.5,4.9-2.8,7.7-3.2c0.9-0.1,1.8-0.2,2.7,0c1.4,0.3,1.7,0.8,1.4,2.7
		c0.7,0.6,1.8,0,2.5,1c-0.7,1.6-1.9,2.9-3.2,4.2c-5.6,5.9-11,12.1-16.2,18.5c-2,2.6-4.3,4.9-6.7,7.1c-2,1.8-3.9,3.7-5.9,5.5
		c-1.4,1.3-2.3,3-3,4.8c-4.1,11-5.8,22.3-5.7,34c0.1,7.8,2,15.3,4.9,22.6c0.3,0.7,0.4,1.5,1.2,1.8c0.1-0.1,0.2-0.1,0.3-0.2
		c0.2-0.7,0.4-1.5,0.6-2.3c1.1-4.6,3.3-8.6,6.6-11.9c1.2-1.2,2.5-2.2,4.2-2.8c2.6-0.9,5.1,0.3,6,2.8c0.4,1.2,0.6,2.4,0.6,3.6
		c-0.1,2.6-0.1,5.2-0.3,7.7c-0.1,2.1,0,4.3,0.6,6.3c1.3,3.7,2.6,7.4,4.4,10.9c1.8,3.6,4.2,6.6,7.3,9.1c1.2,1,2.3,1.5,3.9,1.4
		c2.3-0.1,4.1,0.8,5.3,2.4c0.4,0.6,0.8,1.3,1.1,2.2c0.5,1.6,1.3,2.5,2.6,3.3c7.8,5.1,15,11,22.5,16.5c2.1,1.5,3.9,3.4,5.6,5.4
		c0.8,0.9,1.1,2.5,2.5,2.5c1.2,0,1.9-1.5,2.8-2.3c0.7-0.6,1.2-1.3,1.9-1.9c5.5-5.5,9.9-11.9,15.2-17.6c0.6-0.6,0.4-1.2-0.1-1.7
		c-0.8-0.8-1.5-1.6-2.4-2.3c-1.5-1.1-2.4-2.5-3-4.3c-0.5-1.7-2.5-2.5-3-4.4c-0.5-2.2-1.3-4.3-1.7-6.5c-0.5-2.7-0.2-5.3,1.4-7.8
		c1.1-1.6,1.6-1.9,3.2-0.9c0.5,0.3,1,0.6,1.4,1c1.5,1.6,3.5,2.5,5.4,3.3c2.3,0.9,4.5,2,6.8,2.9c3.1,1.2,6.2,1.8,9.5,1.3
		c3.5-0.5,6.8-1.4,10-2.7c3.6-1.5,7.2-3.1,10.8-4.8c6-2.8,12.3-4.9,19.1-4.5c0.7,0,1.3-0.1,2-0.2c3-0.4,6-0.8,9-0.8
		c2.4,0,4.7-0.6,6.8-1.8c4.1-2.4,8.4-4.4,12.6-6.4c4-1.9,7.4-4.6,10.5-7.8c0.6-0.6,1.3-1.2,1.2-2.3c-0.7-0.3-1.3-0.6-1.9-0.8
		c-5.5-2.2-10.8-5-15.5-8.7c-1.5-1.2-3.1-2.2-4.7-3.3c-3.7-2.4-7.1-5.1-10.3-8.2c-2.8-2.7-5.6-5.5-8.4-8.3c-0.6-0.6-1.1-1.1-1.7-1.7
		c-0.4-0.4-0.9-0.7-1.5-0.7c-3.8,0.2-7.6,0-11.4,1c-9.6,2.7-18.5,6.8-25.8,13.9c-1.3,1.2-2.6,2.6-4.1,3.5c-1.7,0.9-2.8,2.2-3.9,3.6
		c-1,1.3-2,2.7-3.2,3.9c-2.4,2.3-5.4,1.8-7-1.2c-1.1-2-1.5-4.2-1.1-6.5c0.2-1.2,0.5-2.4,0.8-3.6c0.2-0.8,0.4-1.5,0.6-2.3
		c0.2-0.6,0.5-1.3-0.3-1.8c-0.6-0.4-1,0-1.5,0.4c-0.7,0.4-1.3,0.9-2,1.2c-8.7,4.7-16.1,11.1-22.6,18.4c-5.4,6.1-9.3,12.9-11,20.9
		c-0.1,0.6-0.2,1.4-1,1.7c-0.8-1.9-0.9-3.9-1.2-5.9c-1-5.9-1.3-11.8-0.7-17.8c0.5-5,0.9-10.1,0.9-15.1c0-6.6,0.9-13,3.9-18.9
		c0.2-0.5,0.6-1,0-1.6c-0.3,0.1-0.6,0.2-0.9,0.4c-1.9,1.2-3.6,2.6-5.2,4.2c-1.7,1.8-3.2,3.7-4.5,6c-0.5,0.9-1,1.8-1.7,2.5
		c-2.7,2.5-6.9,1.8-8.5-1.6c-0.5-0.9-0.6-1.9-0.7-2.9c-0.1-6.9,0.1-13.7,2.1-20.4c4.1-14.2,10.1-27.6,18.7-39.7
		c6.9-9.7,15.3-17.5,25.6-23.5c8.6-5,17.8-8.5,27.5-10.6c1.5-0.3,3.1-0.7,4.6-1.1c0.5-0.1,0.6-0.7,0.2-1.1c-2.2-2.3-4.9-4-7.7-5.3
		c-1.5-0.7-3.1-1.4-4.6-2.1c-1.3-0.6-2.6-1.4-3.5-2.5c-2.1-2.5-1.7-5.8,0.9-7.7c0.7-0.5,1.5-0.9,2.4-1.2c1.5-0.5,3-1,4.5-1.4
		c4.5-1,9-2,13.5-2.8c10.8-2.1,21.7-1.7,32.4,0.6c9.5,2.1,18.3,6,26.1,12c4.7,3.6,9.7,6.8,15,9.6c5,2.7,10.4,4.1,16.1,4.4
		c3.7,0.2,7.4,0.2,11.1,1c0.5,0.1,1.1,0.1,1.7,0c2.8-0.4,5.1-1.5,7-3.7c2.2-2.5,4.6-5,6.9-7.4c2.5-2.7,5.4-5.1,8.6-6.9
		c1.9-1.1,3.9-1.9,5.9-2.3c2.9-0.7,5.1,1.7,4.4,4.6c-0.2,0.9-0.6,1.7-0.9,2.5c-0.6,1.7-1.4,3.3-1.9,5s-1,3.5-0.9,5.3
		c0,0.4,0.4,0.6,0.7,0.4c0.6-0.3,1.1-0.7,1.6-1.1c4.7-3.6,9.5-7.2,14.4-10.5c4.4-2.9,8.8-5.8,13.6-8.1c4.2-2,8.5-3.3,13.2-3.9
		c3.5-0.4,6.9-0.4,10.4-0.4c2.4,0,4.7,0.1,7.1,0.2c1.8,0.1,3.4,0.6,4.1,2.4c0.7,1.7,0.2,3.3-0.9,4.7c-0.8,1-1.6,1.9-2.5,2.8
		c-1.9,2-3.7,3.9-5.6,5.8c-0.5,0.6-1.1,1.2-1.6,1.8c-0.3,0.4,0,1,0.5,1c0.7,0,1.3,0,2,0c2.7,0,5.4,0.2,8.1,0.6
		c6.9,1,13.5,3.2,20.1,5.3c3,1,5.8,2.3,8.5,4c3.7,2.3,7.2,4.9,10.5,7.8c6.2,5.5,11.4,11.8,16.3,18.3c3.5,4.6,6.2,9.7,7.9,15.2
		c1.6,5.2,3.1,10.6,4.6,15.8c0.3,1,0.4,2,0.3,3c-0.2,3.1-3.2,5-6.1,3.9c-1-0.4-2-1-2.9-1.6c-2.9-1.8-5.8-3.4-9-4.4v-0.1
		c-0.6,1.1,0.4,1.7,0.9,2.3c4.1,4.6,7.1,9.8,9.3,15.5c1.9,4.9,3.6,9.9,4.9,15c1.4,5.1,2,10.4,2,15.7c0,0.5,0,1.1,0,1.6
		c-0.1,10.9-2.3,21.4-5.4,31.8c-0.1,0.4-0.3,0.8-0.8,1c-0.8-0.6-0.8-1.5-0.9-2.4c-0.6-4.4-2-8.5-3.8-12.5c-2.3-5-4.8-9.9-7.6-14.6
		c-3.5-5.9-8-10.8-13.4-15c-5.2-4-11-6.9-17.3-9c-5-1.7-10-3.4-14.8-5.5c-3.8-1.7-7.8-2.8-11.9-3.7c-3.3-0.8-6.6-1.2-10-1.1
		c-0.5,0-1.2-0.2-1.4,0.6c0.2,0.2,0.4,0.6,0.6,0.7c4.8,3.3,8.2,8,11.7,12.5c0.6,0.8,1.2,1.7,1.5,2.6c0.6,1.7,0.2,3.4-1.2,4.6
		c-1.3,1.1-2.8,1.5-4.4,0.8c-0.7-0.3-1.4-0.7-2.1-1c-4.2-2.2-8.3-4.4-13-5.6c-5-1.3-10.1-2.3-15.2-2.8c-4.2-0.4-8.5-0.9-12.6,1
		c-0.9,0.4-2,0.4-2.9-0.3c-0.7-0.6-1.2-0.2-1.7,0.4c-3.1,4.3-7.1,7.8-11.1,11.2c-0.8,0.6-1.5,1.3-2.3,2c-3.2,3-6.7,5.6-10.5,7.8
		c-6.6,4-13.8,5.7-21.5,5.4c-0.9,0-1.2,0.4-0.7,1.3c0.7,1.2,1.3,2.3,2.1,3.4c5.6,8.2,13.6,12.9,22.9,15.5c4.8,1.3,9.7,1.6,14.7,2
		c2,0.1,4,0,5.8,1.4c0.4,0.3,1,0.4,1.6,0.5c2.4,0.5,4.8,1.1,7.2,1.6c9.6,1.7,19.1,4.1,28.3,7.3c3.4,1.2,6.8,2.5,9.6,4.7
		c2,1.6,4.2,2.5,6.6,3c1.6,0.3,3.3,0.9,4.9,1.3c2.9,0.8,5.9,1.4,8.9,1.8c1.7,0.3,3.4,0.3,5-0.1c4.7-1.1,9-2.8,12.5-6.2
		c1.1-1.1,2.2-2.3,3.7-2.9c1.5-0.6,2.3-1.9,3.7-3c0.4,1.5,0.9,2.6,0.9,3.8c-0.1,3.5-0.2,7-1.5,10.3c-0.9,2.3-1.5,4.7-2.6,6.9
		c-0.7,1.4-0.2,2.4,1.4,2.8c1.9,0.6,3.8,1.4,5.6,2.3c3.5,1.8,6.9,3.7,10.4,5.6c4.6,2.5,8.5,5.8,12,9.7c2.9,3.2,5.5,6.6,7.7,10.2
		C665.2,583.2,665.7,583.2,666.2,582.1z"/>
	<path class="st0" d="M616,566.1c-4.1,2.3-8.6,2.6-13.1,1.5c-7.1-1.7-13.5-4.8-18.4-10.5c-1.7-2-3.4-3.9-5.3-5.6
		c-1.5-1.4-3.1-2.6-5.1-3.3c-6.8-2.4-13.4-5.1-20.4-6.8c-4.2-0.9-8.3-2.1-12.4-3.2c-7.9-2.2-16-3.6-24.2-3.9
		c-4.7-0.2-9.4-0.4-14.1-1.2c-7.6-1.2-14.6-3.6-20.3-8.9c-0.2-0.2-0.6-0.2-0.8-0.3c-2.3,2-4.5,4-6.7,5.8c-3.5,2.8-7.4,4.6-11.9,5.1
		c-1.6,0.2-3.1,0.2-4.7,0.2c-2.8,0-5.6,0-8.4,0.6c-3.8,0.8-7.7,1.6-11.6,2.2c-6.2,1-12.4,1.7-18.6,3c-0.5,0.1-1.1,0.2-1.7,0.2
		c-2.8-0.2-5.3,0.8-7.7,1.9c-1.7,0.8-3.4,1.7-5.2,2.3c-1.9,0.7-2.8,1.9-3.3,3.8c-1.4,5.7-4.4,10.5-8.5,14.7c-1.7,1.7-3.6,3.4-5.5,5
		c-2.6,2.1-5.3,4.1-8,6.1c-1.3,1-1.4,1.2-0.3,2.3c1.9,2,4,3.6,6.3,5c5.4,3.1,11.2,5.1,17.4,6c1.2,0.2,2.4,0.5,3.6,0
		c0.2-0.9-0.4-1.6-0.7-2.3c-1.1-2.6-2.1-5.2-3.2-7.8c-0.5-1.3-0.8-2.6-0.5-4c0.4-2.3,2.5-3.4,4.5-2.2c0.9,0.5,1.6,1.2,2.4,1.9
		c1.6,1.6,3.1,3.2,4.7,4.8c4.7,5,10.4,8.5,16.9,10.6c0.4,0.1,0.9,0.3,1.3,0.3c0.4,0.1,0.9-0.3,0.8-0.8c-0.3-1.6-0.8-3.3-1-4.9
		c-0.4-4.7,1.2-9.1,3.1-13.3c0.1-0.3,0.3-0.6,0.6-0.8c2-2.6,5.2-2.9,7.7-0.8c1,0.9,1.8,2,2.3,3.3c0.4,1.1,0.8,2.1,1.1,3.2
		c0.6,2.4,1.7,4.6,3.3,6.6c0.9,1.1,1.7,2.3,2.6,3.6c1.5,2.2,3.5,3.7,6.1,4.6c3.7,1.3,7.4,2.6,11.1,3.8c1.9,0.6,3.9,1,5.9,1.4
		c0.5,0.1,0.9-0.2,0.8-0.7c0-0.6-0.2-1.1-0.3-1.6c-0.7-4.4-0.7-8.7,0.2-13c0.2-0.9,0.5-1.7,0.8-2.5c0.9-1.9,2.3-3.1,4.4-3.1
		s3.6,1.1,4.5,3c0.5,1,0.9,2.1,1.1,3.2c0.6,2.9,1.7,5.5,2.9,8.2c1.6,3.8,4.4,6.4,8,8.3c1,0.6,2.1,0.8,3.2,0.7
		c3.5-0.4,6.9-1,10.2-2.1c1.9-0.6,3.4-1.7,4.7-3.1c2.4-2.7,4.5-5.6,6.5-8.5c1.7-2.5,3.5-5,5.2-7.4c0.8-1.1,1.7-2.1,2.9-2.8
		c2.5-1.4,5.2-0.8,6.9,1.4c0.6,0.8,1,1.7,1.3,2.7c0.4,1.6,0.7,3.3,0.6,5c-0.2,3.3-0.5,6.5-1.6,9.6c-0.3,0.7-0.5,1.5-0.8,2.2
		c-0.1,0.4,0.3,0.9,0.7,0.8c1.7-0.2,3.3-0.8,4.8-1.5c4.6-2.3,9.3-4.5,13.9-6.9c3.5-1.8,6.6-4.3,9.2-7.3c1.6-1.9,3.6-3,6-3.5
		c2.7-0.7,4.9,1.6,4.1,4.3c-0.3,1-0.7,1.9-0.9,2.9c-0.7,3-1.6,5.8-3.3,8.4c-0.2,0.2-0.1,0.6-0.2,1c1.9,0.3,3.6-0.3,5.4-0.5
		c8.4-1,16-4.1,23.1-8.8c1.8-1.2,3.5-2.4,5.3-3.6c4.7-3.1,8.7-7.1,12.3-11.4c0.4-0.4,0.7-0.9,1-1.4c0.2-0.3,0.1-0.7-0.2-0.9
		C617.9,566,617.1,565.5,616,566.1z"/>
	<path class="st0" d="M317.9,570.9c-1.6-3.1-3.9-5.7-6.5-7.9c-0.3,0-0.4,0-0.5,0.1c-1.7,1.5-3.4,3-5,4.4c-9,8-17,16.9-24.4,26.4
		c-4.7,6.1-9.2,12.4-13.7,18.6c0.2,0.1,0.5,0.2,0.7,0.2l2.4,0.9l1.2,0.4c0.4,0.1,0.8,0.3,1.2,0.5c6.3,2.5,12.3,5.6,18,9.3l2.1,1.4
		l2.1,1.5l1,0.7l0.5,0.4l0.5,0.4l2,1.6c0.3,0.3,0.7,0.5,1,0.8l1,0.8l1.9,1.6c0.6,0.5,1.3,1.1,1.9,1.7l0.9,0.8l0.5,0.4l0.5,0.4
		c1.2,1.2,2.4,2.3,3.6,3.5c0.6,0.6,1.2,1.2,1.7,1.8l1.7,1.9c0.3,0.3,0.6,0.6,0.8,0.9l0.8,0.9l1.6,1.9c1.8-6.1,3.9-12,6.4-17.9
		c1.9-4.4,3.5-9,4.7-13.7c0.4-1.3,0.7-2.6,0.8-3.9c0.2-7-0.2-13.9-2.4-20.6C324.6,584.1,321.4,577.4,317.9,570.9z"/>
	<path class="st0" d="M173,204.7c1,8.6,3.2,17,6.5,25c2.5,6.1,4.9,12.3,7.2,18.5c1.7,4.3,3.5,8.5,5.6,12.6c2.5,4.7,4.9,9.3,7.2,14.1
		c4.3,9.3,9.3,18.2,14.6,26.9c3.8,6.3,6.7,12.9,8.8,19.9c2.7,8.9,4.8,18,6.6,27.1c0.5,2.5,1,5.1,1.5,7.6c0.3,1.6,0.8,1.8,2.4,1.4
		c0.9-0.2,1.7-0.5,2.6-0.8c2.7-0.9,5.2-2,7.7-3.3c5.8-3,11.2-6.6,16.6-10.3c5-3.5,9-8,12.7-12.9c1.6-2,3-4.2,4.5-6.3
		c0.3-0.4,0.8-0.8,0.4-1.7c-0.5,0.4-1,0.8-1.5,1.2c-1.5,1.5-3,3.1-4.5,4.6c-3.6,3.7-8.1,6.4-12.6,8.9c-2.8,1.6-6.2,0.7-9,2.3
		c-0.9,0.5-2.2,0.3-3.3,0.4c-3.6,0.4-6.3-1.2-8.2-4.2c-1.7-2.6-3-5.3-3.7-8.2c-1.2-4.7-2.2-9.4-3.2-14.1c-0.1-0.6-0.1-1.4,0-2
		c0.2-1.2,1-2,2.1-2.4c1.2-0.4,2.2,0.1,3,0.9c0.5,0.6,0.9,1.3,1.3,1.9c1.8,2.8,3.9,5.2,6.6,7.1c4.1,2.9,4.6,2,6.9-0.9
		c3.1-4,5.5-8.4,7.8-12.9c0.6-1.1,0.8-2.3,0.9-3.6c0.9-6.7,1.1-13.4,1.3-20.1c0.2-4.9-0.4-9.6-1.3-14.4c-0.1-0.5,0-1.1-0.7-1.5
		c-1,1-1.1,2.4-1.4,3.7c-1.2,4.2-2.2,8.5-3.3,12.7c-0.4,1.6-1,3.2-1.7,4.7c-1.1,2.2-3.3,2.9-5.3,3.8c-0.1,0.1-0.4-0.1-0.6-0.1
		c-3-1-5.1-2.8-6-5.8c-0.3-0.9-0.5-1.7-0.7-2.6c-1.8-8.6-1.9-17.2-0.2-25.8c2.3-11.9,5.2-23.7,8.8-35.3c3.7-11.8,8.6-23.1,15.4-33.6
		c2-3.1,3.9-6.3,5.8-9.5c0.6-0.9,0.3-1.4-0.9-1.4c-0.3,0-0.7,0-1,0c-9.1,0.2-17.4,3.2-25.2,7.6c-1,0.5-1.8,1.4-2.7,2
		c-0.8,0.6-1.6,1.2-2.5,1.6c-2.2,1-4.4,0.8-6.3-0.8c-1.9-1.7-2.3-3.8-1.5-6.1c0.3-0.8,0.7-1.6,1.2-2.4c5.5-8.8,12.1-16.7,19.6-23.9
		c2.1-2,4.4-3.9,6.8-5.5c6.5-4.4,13.3-8.1,20.5-10.8c0.5-0.6,1.1-1.2,1.6-1.9c1.7-1.9,3.5-3.8,5.1-5.8c0.6-0.8,1.1-1.7,1.5-2.6
		c0.8-1.8,0.5-2.9-0.9-4.2c-1.1-1-2.4-1.2-3.8-0.6c-2.8,1.2-5.7,2.1-8.2,3.9c-0.3,0.2-0.8,0.6-1.2,0.1c-0.3-0.4,0-0.8,0.2-1.2
		c0.8-1.4,1.5-2.8,2.3-4.1c3-4.9,6.8-9.2,10.7-13.4c4-4.4,8.7-8.1,13.2-12c3.1-2.6,6.2-5,9.9-6.7c-1.2-0.1-2.5-0.2-3.7-0.3
		c-2.5-0.2-4.9-0.3-7.4,0c-6.9,1-13.4,3-19.3,6.5c-11.4,6.6-22.3,13.8-31.5,23.4c-2.2,2.3-4.6,4.3-7.2,6.1
		c-7.6,5-15.7,9.1-24.5,11.6c-3.2,0.9-6.5,1.6-9.9,2c-7.1,0.7-14.3,1.4-21.4,2.1c-1.6,0.2-3.1,0.4-4.7,0.7c-3.4,0.7-5.7,2.6-6.7,5.9
		c-0.4,1.4-0.8,2.8-1.1,4.2c-2.4,11.6-2.2,23.2-1,34.9C171.3,192.9,172.2,198.8,173,204.7z M180.3,183.2c0.3-6,1.9-11.7,4.7-17.1
		c1.9-3.6,4-7,6.7-10.1c1.5-1.7,3.1-3.2,5-4.5c1.6-1,3.4-1.8,5.2-2.2c4-0.7,7.1,1.5,7.8,5.5c0.3,1.6,0.1,3.1,0,4.8
		c0,2.9,0.3,5.9,1.2,8.8c1.5,4.7,1.5,9.5,1.8,14.3c0.2,2.6-0.7,5.1-1.6,7.5c-1.6,4.4-2.8,9-4,13.5c-1.7,6.5-1.3,12.9,0.6,19.2
		c1.8,5.9,3.7,11.8,5.9,17.5c0.5,1.4,1.1,2.7,1.1,4.2c0.1,3.6-2.3,5.9-5.9,5.6c-1.6-0.1-3-0.8-4.4-1.6c-6.4-3.7-11.1-9-14.5-15.5
		c-1.1-2.2-2-4.5-2.7-6.9c-2.2-8-4.5-16-5.9-24.2C180.4,196,180,189.6,180.3,183.2z"/>
	<path class="st0" d="M296.1,225.2c-1.3,5.2-2.6,10.4-4.3,15.5c-1.2,3.7-2.2,7.6-2.3,11.5c0,0.1,0,0.2,0,0.3
		c0.4,3.1,1.1,6.2,1.9,9.3c0.6,2.2,1.5,4.2,3.4,6.4c0.4-1.6,0.6-2.4,0.8-3.3c0.5-2.4,0.9-4.8,1.5-7.3c1.8-8.2,4.9-15.8,9.5-22.9
		c2.5-3.8,5.8-6.9,9.9-8.8c2.4-1.1,4.9-2.3,7.4-3.1c1.9-0.6,3-1.7,3.6-3.6c0.9-2.8,2.5-5.3,4.3-7.6c4.2-5.5,9.4-9.6,15.6-12.5
		c6.8-3.2,14-4.9,21.4-5.3c2.7-0.1,5.3-0.6,7.9-1.4c6-2,12.2-3,18.6-2.5c2.3,0.2,4.7,0.3,7,0.6c2.9,0.4,5.8,0.9,8.5,2
		c5.8,2.4,11.9,4.2,17.1,7.9c0.2,0.2,0.7,0.3,0.9,0.2c0.2-0.1,0.4-0.5,0.4-0.8c0-2.4-0.6-4.7-1.1-7c-0.2-1-0.4-2-0.5-3
		c-0.1-1.1,0.5-2,1.4-2.5c1.1-0.6,2.2-0.5,3.2,0.3c0.8,0.7,1.4,1.5,2,2.2c2,2.4,3.8,5,5.9,7.4c6.2,7,8.9,15.5,10.9,24.3
		c0.1,0.6,0.2,1.3,0.2,2c-0.1,2.5,0.3,2.4,2.5,3.2c1.7,0.6,3.1,0.2,4.2-1.2c0.7-0.9,1.3-1.8,1.9-2.8c1.4-2.6,2.3-5.3,2.9-8.2
		c1.5-7.1,2-14.2,2.3-21.4c0.2-5.5-0.8-10.7-3.3-15.6c-0.8-1.5-1.6-3-2.2-4.5c-1.3-3.2-1.5-6.3,0.6-9.3c0.8-1.1,0.5-1.8-0.2-2.7
		c-2.6-3.2-5.4-6-8.7-8.4c-4.9-3.5-10-6.8-15.3-9.7c-2.4-1.3-4.8-2.4-7.3-3.4c-2.5-0.9-5-1.9-7.5-2.9c1.5,1.2,2.9,2.5,4.2,3.9
		c0.7,0.7,1.5,1.3,2.3,2c0.8,0.8,1.7,1.5,2.4,2.3c1,1.1,1.9,2.2,2.8,3.3c0.6,0.7,1.2,1.3,1.6,2.1c2.9,5.2,4.9,10.8,5.9,16.7
		c0.6,3.2,0.4,6.5,1.1,9.7c0.3,1.3,0.1,2.7,0,4c0,0.4-0.7,0.7-1,0.4c-0.6-0.5-1.2-1-1.7-1.6c-3.7-4.7-7.1-9.6-10.3-14.6
		c-0.1,2-0.6,4-1.7,6c-1,2-2.2,3.9-3.7,5.6c-2.9,3.4-6,3.9-9.8,1.5c-0.8-0.5-1.4-1.1-2.4-1.2c-2.5-0.3-4.7-1.5-6.9-2.6
		c-2.5-1.4-5-2.6-7.6-3.6c-1.4-0.5-1.5-0.6-2.2,0.6c-1,1.8-2.5,3.1-3.9,4.6c-1.7,2-4.1,2.2-6.5,1.5c-2-0.7-4-1.6-5.9-2.5
		c-2.6-1.3-5.3-2.3-8.1-3.2c-7-2.3-14.1-2.4-21.2-0.4c-3.2,0.9-6.5,1.7-9.7,2.6c-0.6,0.2-1.3,0.4-2,0.4c-2.7,0.2-4.5-2.1-3.6-4.6
		c0.1-0.3,0.2-0.5,0.4-0.8c-1,0.7-2,1.5-3,2.2c-4,3.1-8,6.2-11.4,9.9c-2.2,2.4-3.8,5-4.1,8.3c-0.1,1.3-0.1,2.7-0.1,4
		c0,1-0.2,1.7-1,2.4s-1.5,1.4-2.2,2.1c-1.6,1.6-3.3,3.1-4.6,4.9C302,209.3,298.3,216.8,296.1,225.2z"/>
	<path class="st0" d="M853.7,659.4c-1.9-3.8-4.3-7.4-7-10.8c-2.7-3.3-5.8-6.3-9.1-9c-3.3-2.6-7-4.9-10.8-6.8l0,0l-5.7-2.5
		c-0.6-0.5-1.2-1.1-1.8-1.6c-1.4-1.2-2.9-2.3-4.6-3.3c-6.7-3.7-14.2-5.8-21.7-7.1c-3.8-0.6-7.6-1-11.4-1.3c-2.5-0.1-5,0-7.5-0.4
		c-2.7-0.4-5.3-1.7-8.1-1.9c-1.1-0.1-2.1,0-3.2,0.1c-8.7,0.9-17.5,2.2-25.9,4.8c-4.2,1.3-8.4,2.9-12.3,4.9
		c-3.8,1.9-7.2,4.7-11.1,6.2c-1,0.4-1.9,0.8-2.8,1.2c-20.2,8.7-38.2,25.7-45.3,46.8l0,0c1.8-0.4,4,0.3,5.5-0.9
		c0.6-0.5,0.9-1.2,1.2-1.9c3.3-7,6.4-14.3,11.9-19.7c6.7-6.7,17.4-9.3,25.3-3.2v-0.1c0,0.1,0.1,0.1,0.1,0.2c0.5,0.4,0.9,0.8,1.3,1.2
		c0,0,0,0,0.1,0.1s0.3,0.3,0.4,0.4c0.5,0.5,1,1,1.4,1.6c0.1,0.1,0.2,0.2,0.2,0.3c-0.7,0-1.4,0-2,0.1c-1.4,0.2-2.9,0.5-4.2,1
		c-2.7,1-5.3,2.5-7.6,4.1c-0.6,0.4-1.2,0.8-1.8,1.3l-0.9,0.6l-1.6,1.2l-0.8,0.6c0,0,0.9-0.2,1-0.3c4.2-1.1,8.4-1.1,12.3,0.7
		c0.3,0.2,0.6,0.3,0.9,0.5c0.3,0.2,0.6,0.3,0.9,0.6c0.6,0.4,1.1,0.8,1.7,1.3c1.1,0.9,2,2,2.9,3.2c0.9,1.3,1.7,2.7,2.4,4.1l0,0
		c-0.1,0.4-0.2,0.8-0.3,1.2c-0.1,0.2-0.1,0.5-0.2,0.7v0.1c-0.1,0.5-0.1,0.9-0.2,1.4c0,0.1,0,0.2,0,0.3s0,0.2,0.1,0.3
		c0,0.2,0.1,0.4,0.1,0.6v-0.1v0.1c0,0,0,0,0,0.1c0,0,0,0,0-0.1c0.2,0.8,0.3,1.5,0.5,2.3c0.2,0.9,0.4,1.8,0.6,2.7
		c1.1,1.9,2.3,3.7,3,5.8c0.1,0.2,0.1,0.4,0.2,0.6c0,0.1,0,0.1,0,0.2c0.1,0.2,0.1,0.4,0.2,0.6l0,0c0,0.2,0.1,0.4,0.1,0.6
		c0,0.1,0,0.1,0,0.2c0,0.2,0.1,0.4,0.1,0.5v0.1c0,0.2,0.1,0.4,0.1,0.6c0,0.1,0,0.2,0,0.2c0,0.1,0,0.3,0,0.4c0,0.1,0,0.2,0,0.3
		s0,0.3,0,0.4c0,0.1,0,0.2,0,0.3s0,0.2,0,0.3c0,0.2,0,0.4,0,0.6v0.1c0,0.1,0,0.3,0,0.4l0,0c0,0.3,0,0.6,0,0.9
		c0.1,0.1,0.2,0.3,0.4,0.5c0.6,0.8,1.2,1.5,1.8,2.2c0.3,0.3,0.6,0.6,0.9,0.9c2.6,2.2,5.2,4.3,8.7,5.1c5.3,1.2,10.9-0.5,16.3-0.1
		c1.1,0.1,2.2,0.3,3.1-0.2c1.9-0.8,3-3.8,4-5.4c1.5-2.6,2.7-5.3,3.8-8c2-5.3,3.2-10.8,3.6-16.5c0.7-8.9-0.9-17.9-4.5-26
		c-1.8-4.1-4-8-6.6-11.6s-5.6-6.9-8.9-9.9c-0.4-0.4-0.8-0.7-1.2-1.1l-2.1-1.9l0,0l0,0h0.1h0.2l0.4,0.1l0.8,0.2l1.2,0.3l0.4,0.1
		l0.4,0.1l0.8,0.2c2.1,0.7,4.2,1.5,6.2,2.5c18.4,9.6,26.4,29.1,27.6,48.8c0,0.1,0,0.3,0,0.4c0,0.6,0,1.2,0,1.8s0,1.1-0.1,1.7
		c0,0.5-0.1,1-0.1,1.5c0,0.1,0,0.1,0,0.2c-0.1,0.4-0.1,0.7-0.2,1.1c0,0.3-0.1,0.7-0.2,1c0,0.2-0.1,0.5-0.1,0.7
		c-0.5,3.3-1.6,6.5-2.7,9.6c-1.1,3.4-3,6.6-1.6,10.1c2.9,7.4,9.5,9.8,16.7,10.9c1,0.2,1.9,0.3,2.9,0.4c1.2,0.2,2.4,0.3,3.6,0.4
		c1.4,0.1,2.8,0.3,4.2,0.4c0.3,0,0.5,0,0.8,0.1c0.2,0,0.5,0,0.7,0.1c0.5,0,1,0,1.5,0c0-0.1,0-0.1,0-0.2c0.6-2.8,2.1-5.3,3.4-7.8
		c6.1-11.8,8.4-25.9,6.5-39.4c-1.8-12.5-8.8-24.1-17.6-33c-0.8-0.8-1.8-2-1.6-3.2c3.1,0.8,6.4,3.4,9.1,5.1c3.3,2.1,6.6,4.3,9.6,6.8
		c5.5,4.6,10.6,10.4,11.7,17.7c2.1,13.9,6,14.7,4.1,28.7c-0.5,3.7-2.8,7.1-3.5,10.8c-1,5.2-1.4,10-3.3,15c-0.1,0.3-0.3,0.6-0.4,0.9
		c-0.1,0.4-0.3,3-0.9,2.7c2.5,0.8,14.6,3.2,15.2-1.2l0.3-2.4l3-16.7c2.9-16.5,3.4-32.9-4.1-48.3c-1.6-3.3-4.4-9.6-6.5-11.5
		c0.3,0.2,0.5,0.5,0.8,0.7c4.1,3.9,7.9,7.5,11,12.4c3.5,5.6,6.6,11.9,9,18.1c0.2,0.5,0.3,1,0.5,1.5c0.7,2,1.2,4,1.6,6.1
		c0.8,4.1,1.3,8.3,1.3,12.4c-0.1,4.2-0.5,8.3-1.5,12.3c-0.3,1.2-0.6,2.5-1,3.7c0.4-0.1,0.7-0.2,1.1-0.3c1-0.4,1.9-1.1,2.7-2
		c0.7-0.8,1.3-1.7,1.8-2.7s0.9-2,1.3-3c0.2-0.5,0.3-1,0.4-1.6C861.5,687.7,860.2,672.3,853.7,659.4z M718.6,628.1L718.6,628.1
		C718.7,628.1,718.7,628,718.6,628.1L718.6,628.1z"/>
	<path class="st0" d="M280.9,631.9c-0.9-0.4-1.9-0.8-2.8-1.2c-4-1.6-7.3-4.3-11.1-6.2c-4-2-8.1-3.6-12.3-4.9
		c-8.4-2.6-17.2-3.9-25.9-4.8c-1.1-0.1-2.1-0.2-3.2-0.1c-2.8,0.2-5.3,1.4-8.1,1.9c-2.5,0.4-5,0.3-7.5,0.4c-3.8,0.2-7.6,0.6-11.4,1.3
		c-7.5,1.2-15,3.4-21.7,7.1c-1.6,0.9-3.1,2-4.6,3.3c-0.6,0.5-1.2,1.1-1.8,1.6l-5.7,2.5l0,0c-3.8,1.9-7.4,4.2-10.8,6.8
		c-3.3,2.7-6.4,5.7-9.1,9c-2.7,3.3-5,6.9-7,10.8c-6.5,13-7.8,28.3-4.1,42.3c0.1,0.5,0.3,1,0.4,1.6c0.3,1,0.8,2,1.3,3
		s1.1,1.9,1.8,2.7s1.6,1.5,2.7,2c0.3,0.1,0.7,0.2,1.1,0.3c-0.4-1.2-0.7-2.4-1-3.7c-0.9-4-1.4-8.2-1.5-12.3c0-4.2,0.5-8.3,1.3-12.4
		c0.4-2.1,1-4.1,1.6-6.1c0.2-0.5,0.3-1,0.5-1.5c2.4-6.2,5.4-12.5,9-18.1c3-4.8,6.9-8.5,11-12.4c0.2-0.2,0.5-0.5,0.8-0.7
		c-2.1,1.9-4.9,8.2-6.5,11.5c-7.5,15.4-7,31.8-4.1,48.3l3,16.7l0.3,2.4c0.6,4.4,12.7,2,15.2,1.2c-0.6,0.2-0.9-2.4-0.9-2.7
		c-0.1-0.3-0.2-0.6-0.4-0.9c-2-5-2.3-9.8-3.3-15c-0.7-3.7-3-7.1-3.5-10.8c-1.8-13.9,2-14.8,4.1-28.7c1.1-7.3,6.3-13.1,11.7-17.7
		c3-2.5,6.2-4.7,9.6-6.8c2.7-1.7,6-4.3,9.1-5.1c0.2,1.2-0.8,2.3-1.6,3.2c-8.7,8.9-15.8,20.5-17.6,33c-1.9,13.4,0.4,27.6,6.5,39.4
		c1.3,2.5,2.8,5,3.4,7.8c0,0.1,0,0.1,0,0.2c0.5,0,1,0,1.5,0c0.2,0,0.5,0,0.7-0.1c0.3,0,0.5,0,0.8-0.1c1.4-0.2,2.8-0.3,4.2-0.4
		c1.2-0.1,2.4-0.2,3.6-0.4c1-0.1,1.9-0.2,2.9-0.4c7.2-1.1,13.8-3.5,16.7-10.9c1.4-3.5-0.5-6.7-1.6-10.1c-1-3.1-2.2-6.4-2.7-9.6
		c0-0.2-0.1-0.5-0.1-0.7c-0.1-0.3-0.2-0.7-0.2-1c-0.1-0.4-0.1-0.7-0.2-1.1c0-0.1,0-0.1,0-0.2c0-0.5-0.1-1-0.1-1.5s0-1.1-0.1-1.7
		c0-0.6,0-1.2,0-1.8c0-0.1,0-0.3,0-0.4c1.2-19.7,9.1-39.2,27.6-48.8c2-1,4.1-1.9,6.2-2.5l0.8-0.2l0.4-0.1l0.4-0.1l1.2-0.3l0.8-0.2
		l0.4-0.1h0.2h0.1l0,0l0,0l-2.1,1.9c-0.4,0.4-0.8,0.7-1.2,1.1c-3.3,3-6.3,6.3-8.9,9.9c-2.6,3.6-4.8,7.5-6.6,11.6
		c-3.5,8.1-5.1,17.1-4.5,26c0.4,5.6,1.6,11.2,3.6,16.5c1,2.8,2.3,5.5,3.8,8c1,1.7,2.1,4.7,4,5.4c1,0.4,2.1,0.2,3.1,0.2
		c5.4-0.5,11,1.3,16.3,0.1c3.4-0.8,6.1-2.9,8.7-5.1c0.3-0.3,0.6-0.6,0.9-0.9c0.6-0.7,1.2-1.5,1.8-2.2c0.1-0.2,0.2-0.3,0.4-0.5
		c0-0.3,0-0.6,0-0.9l0,0c0-0.1,0-0.3,0-0.4V698c0-0.2,0-0.4,0-0.6c0-0.1,0-0.2,0-0.3s0-0.2,0-0.3s0-0.3,0-0.4c0-0.1,0-0.2,0-0.3
		s0-0.3,0-0.4c0-0.1,0-0.2,0-0.2c0-0.2,0.1-0.4,0.1-0.6v-0.1c0-0.2,0.1-0.4,0.1-0.5s0-0.1,0-0.2c0-0.2,0.1-0.4,0.1-0.6l0,0
		c0-0.2,0.1-0.4,0.2-0.6c0-0.1,0-0.1,0-0.2c0.1-0.2,0.1-0.4,0.2-0.6c0.7-2.1,1.9-4,3-5.8c0.2-0.9,0.4-1.8,0.6-2.7
		c0.2-0.8,0.3-1.5,0.5-2.3c0,0,0,0,0,0.1c0,0,0,0,0-0.1v-0.1v0.1c0-0.2,0.1-0.4,0.1-0.6c0-0.1,0-0.2,0.1-0.3c0-0.1,0-0.2,0-0.3
		c0-0.5-0.1-0.9-0.2-1.4v-0.1c-0.1-0.2-0.1-0.5-0.2-0.7c-0.1-0.4-0.2-0.8-0.3-1.2l0,0c0.7-1.4,1.5-2.8,2.4-4.1
		c0.8-1.1,1.8-2.2,2.9-3.2c0.6-0.4,1.1-0.9,1.7-1.3c0.3-0.2,0.6-0.4,0.9-0.6c0.3-0.2,0.6-0.3,0.9-0.5c4-1.9,8.2-1.8,12.3-0.7
		c0.1,0,1,0.3,1,0.3l-0.8-0.6l-1.6-1.2l-0.9-0.6c-0.6-0.4-1.2-0.8-1.8-1.3c-2.4-1.6-4.9-3.1-7.6-4.1c-1.4-0.5-2.8-0.8-4.2-1
		c-0.7-0.1-1.4-0.1-2-0.1c0.1-0.1,0.2-0.2,0.2-0.3c0.4-0.6,0.9-1.1,1.4-1.6c0.1-0.1,0.3-0.3,0.4-0.4c0,0,0,0,0.1-0.1
		c0.4-0.4,0.9-0.8,1.3-1.2c0-0.1,0.1-0.1,0.1-0.2v0.1c8-6.1,18.6-3.5,25.3,3.2c5.5,5.4,8.7,12.7,11.9,19.7c0.3,0.7,0.7,1.4,1.2,1.9
		c1.4,1.2,3.6,0.5,5.5,0.9l0,0C319.1,657.6,301.1,640.6,280.9,631.9z M272.7,628l0.1,0.1l0,0C272.9,628.1,272.8,628,272.7,628z"/>
</g>
<g>
	<path class="st1" d="M529.2,145.2c1.4-2.5,1.8-5.3,1-8.1c-0.4-1.4-1-1.7-2.5-1.7c-1.8,0.1-3.3,0.7-4.5,1.9
		c-1.6,1.4-2.9,3.1-4.1,4.9c-1,1.6-1.9,3.3-3,4.9c-3.2,4.5-5.6,9.4-7.1,14.8c-0.1,0.4-0.3,0.8-1,1c-1.2-1.2-2.1-2.8-2.9-4.4
		c-0.8-1.6-2.6-2.5-3.3-4.2c-0.6-1.4-1.5-2.8-2.2-4.1c-3.2-5.9-6-12-7.9-18.5c-0.5-1.7-1-3.4-1.6-5.1c-0.2-0.5-0.3-1.1-1.1-1.2
		c-0.2,0.5-0.5,0.9-0.7,1.5c-2.1,5.1-3.4,10.4-3.5,16c0,1.2-0.1,2.5-0.5,3.6c-1.2,3-4.7,3.9-7.2,1.8c-0.8-0.6-1.4-1.5-1.9-2.3
		c-1.7-2.6-3.5-5.2-5-8c-3.5-6.1-7.8-11.5-12.4-16.7c-0.4-0.4-0.8-0.8-1.2-1.2c-0.5-0.5-1.1-0.3-1.2,0.4c-0.5,2.6-0.4,5.1,0.2,7.7
		c0.7,2.5,1.4,5,2.1,7.4c0.9,2.9,1.8,5.8,2.2,8.8c0.3,2,1.1,3.6,2.3,5.1c2.8,3.7,5.4,7.4,7.3,11.7c0.3,0.7,0.7,1.4,1.3,2
		c3.4,3.8,5.2,8.4,6.1,13.3c1.1,5.8,1.7,11.8,0.6,17.7c-0.2,1-0.4,2-0.5,3c-0.1,0.7-0.2,1.4,0.2,2c1,1.5,2,3,3,4.5
		c0.4,0.6,1.1,0.7,2.2,1c-0.5-6.7,1.4-12.8,1.8-19c0-0.3,0.1-0.7,0.2-1c0.4-1.5,1.4-2.6,2.9-2.9c1.5-0.4,2.9,0,4,1.2
		c0.5,0.6,0.9,1.3,1.2,2c0.5,1.2,0.9,2.5,1.3,3.8c1.9,6.2,4.3,12.3,6.8,18.3c1.1,2.7,2.9,5,4.8,7.3c0.2,0.3,0.5,0.5,0.9,0.3
		c0.2-0.2,0.3-0.5,0.4-0.8c0.1-0.6,0.1-1.1,0.2-1.7c0.6-5.8,1.2-11.7,3.6-17.1c2.4-5.5,4.2-11.1,5.4-16.9c0.1-0.3,0.2-0.6,0.3-1
		c0.1-0.5,0.3-1.1,0.2-1.7c-0.4-1.5,0.2-2.9,0.7-4.2C520.1,162.2,524.5,153.6,529.2,145.2z"/>
	<path class="st1" d="M655.4,605.6c-2.5-6.1-5.2-12.2-7.8-18.2c-0.1-0.3-0.5-0.4-0.7-0.7c-0.6,0.6-0.7,1.5-0.9,2.2
		c-1.3,5.3-3.8,10.1-7.3,14.2c-3.1,3.7-6.2,7.4-9.3,11.1c-3.3,3.9-5.7,8.3-7.5,13.1c-0.6,1.5-1.1,3-1.6,4.4
		c-1.9,4.8-3.7,9.6-6.1,14.2c-2.4,4.7-5.6,8.6-9.9,11.7c-5,3.6-10.2,7-15.5,10.2c-1.2,0.7-2.4,1.3-3.7,1.6c-3.2,0.8-6.3-0.2-8.1-2.7
		c-1.7-2.4-1.9-5.7,0.1-8.2s3.1-5.4,4.5-8.2c5.6-11.3,7.8-23.4,8.7-35.8c0.1-1.1-0.3-1.9-1.1-2.7c-1.4-1.4-3.2-2.1-5.1-2.4
		c-1.5-0.3-3.1-0.5-4.7-0.7c-1.6-0.2-3.1-0.7-4.2-1.9c-1.1-1.1-2.3-1.3-3.7-1.3c-2.8-0.1-5.6-0.5-8.2-1.8c-1.9-1-3.3-0.6-4.9,0.5
		c-3.7,2.4-7.7,4.2-12,5.3c-9.4,2.4-18.7,1.9-28-0.4c-1.7-0.4-3-0.4-4.4,0.5c-0.8,0.5-1.6,0.8-2.4,1.2c-5.8,2.9-11.9,3.8-18.3,3.6
		c-9.7-0.4-19.2-2-28.3-5.5c-1.4-0.5-2.8-0.7-4.3-0.4c-4.7,0.9-9.4,1-14.1,0.3c-3.2-0.5-6.4-0.9-9.7-1.4c-1-0.1-2-0.5-3,0
		c0.1,0.3,0,0.7,0.2,0.9c3.5,5.1,6.6,10.5,11,14.9c8.1,8.3,16.6,16.1,26.6,22.1c4.9,3,9.8,5.8,14.8,8.6c5.6,3.1,11.3,6,17.2,8.4
		c1.7,0.7,3.3,1.5,4.8,2.5c3.8,2.5,6.3,6.1,7.3,10.5c0.3,1.2,0.5,2.4,0.7,3.6c0.1,0.5,0.1,1,0.2,1.5h131c0.2-0.1,0.4-0.3,0.6-0.4
		c1-0.7,2-1.5,2.9-2.3c0.5-0.5,1.1-1,1.6-1.5l0.1-0.1c0.2-0.3,0.4-0.6,0.7-0.9c0.5-0.7,1-1.4,1.5-2.1c-0.2-1.5-0.3-3.1-0.1-4.7
		c0.3-3.4,1-6.7,1.9-9.9c1.7-6.4,2.8-12.9,3.5-19.5c0.4-4.2,0.7-8.5,0.1-12.8C659.6,619.4,658.1,612.3,655.4,605.6z"/>
	<path class="st1" d="M699.7,182c-1.4-5.5-3.4-10.7-6.3-15.5c-4.7-7.7-10-14.9-16.1-21.5c-2.9-3.1-6.2-5.9-9.9-8
		c-4.5-2.5-9-5-13.5-7.6c-9.3-5.2-19.4-6.8-29.9-6.1c-4.1,0.3-8.3,0.9-12.3,1.7c-6.1,1.3-12.2,2.8-18.1,5.3
		c-4.1,1.8-8.1,3.9-11.8,6.4c-2.1,1.4-4.3,3-6.9,3.4c-2.6,0.4-4.9,1.5-7.2,2.7c-2.1,1.1-4.2,2.2-6.2,3.4c0,0.4,0,0.9,0,1.4
		c-0.2,1.2-0.6,2.4-1.2,3.5c-1.5,3-3.1,6-4.6,9c-1.7,3.3-3.4,6.6-5.1,9.8c-0.2,0.3-0.4,0.6,0,1c0.9-0.4,1.5-1.2,2.1-1.9
		c3.7-3.9,7.9-7,12.7-9.4c0.3-0.6,0.7-1.2,1-1.7c1.1-1.7,2.2-3.4,3.5-5c1.1-1.4,2.5-2.6,4.2-3.2c2.6-1,4.8,0.6,4.7,3.4
		c0,0.7-0.7,1.4-0.1,2.4c2.2-1.7,4.5-3.2,6.7-5.1c2.3-2,4.6-3.9,7.1-5.7c5.4-3.9,11.5-6.6,18.1-7.8c4.3-0.8,8.7-1.1,13.1-1.1
		c1.2,0,2.5,0.2,3.6,0.6c1.1,0.4,1.9,1,2.4,1.8c4.6-0.5,9.1-0.6,13.7-0.6c2,0,4,0.1,6.1,0.1c1.2,0,2.3,0.2,3.3,0.7
		c3.7,1.9,7.3,3.8,10.6,6.5c0.3,0.3,0.6,0.6,0.9,1c-1.3,0.6-1.6,0.7-2.4,0.5c-3.6-0.9-7.4-0.7-11-0.6c-2.7,0.1-5.3,0.8-7.6,2.4
		c-0.1,0.1-0.2,0.4-0.2,0.6c0,0.1,0.3,0.3,0.4,0.3c2.5,0.1,4.9,0.2,7.4,0.6c6.9,0.9,13.3,3,19.2,6.6c1.5,0.9,3.1,1.9,4.5,2.9
		c2.2,1.5,4.4,3.1,6.2,5.1c1.9,2,3.9,4,6,5.9c3.4,3.1,6.2,6.7,8.9,10.5c0.8,1.1,1.3,2.4,2,3.5c0.5,0.9,1,1.8,1.6,2.5
		c0.5,0.7,1.2,1.3,2,1.4C700.6,186.1,700.2,184.1,699.7,182z"/>
	<path class="st1" d="M312,197.6c0.7-0.7,1.4-1.4,2.2-2.1c0.7-0.6,1-1.4,1-2.4c0-1.3-0.1-2.7,0.1-4c0.3-3.3,1.9-5.9,4.1-8.3
		c3.4-3.7,7.4-6.8,11.4-9.9c1-0.8,2-1.5,3-2.2c0.2-0.4,0.5-0.9,0.8-1.2c4.2-5.4,9.1-9.9,15.2-13.1c2.3-1.2,4.6-2.3,7.2-2.8
		c3.1-0.7,6-1.7,9-2.8c5.2-1.8,10.5-3.1,16.1-3.3c0.3,0,0.7,0,1,0c5.2,0.6,10.5,0,15.8,0.9c0.3,0.1,0.7,0.1,1,0.1
		c1.2,0.1,1.3,0,1.6-1.1c1.1-4.1,3.7-5.7,7.7-4.7c2.9,0.7,5.5,2,7.8,3.8c4.9,3.8,8.4,8.7,10.6,14.5c0.7,1.9,1.1,3.9,1,5.8
		c3.2,5,6.6,9.9,10.3,14.6c0.5,0.6,1.1,1.1,1.7,1.6c0.3,0.3,1,0,1-0.4c0-1.3,0.3-2.7,0-4c-0.7-3.2-0.5-6.5-1.1-9.7
		c-1.1-5.9-3-11.5-5.9-16.7c-0.4-0.8-1.1-1.4-1.6-2.1c-0.9-1.1-1.9-2.3-2.8-3.3c-0.8-0.8-1.6-1.6-2.4-2.3c-0.7-0.7-1.6-1.3-2.3-2
		c-1.3-1.4-2.7-2.7-4.2-3.9c-1-0.4-1.9-0.8-2.9-1.1c-9.1-3.6-18.4-5.5-28.3-5.2c-10.9,0.4-21.4,2.6-31.5,6.4c-2.1,0.8-4.1,1.8-6,3.1
		c-3.7,2.4-7.1,5.1-10.4,8c-2.4,2-4,4.5-4.8,7.5c-0.2,0.8-0.5,1.5-0.6,2.3c-0.6,2.6-2.1,4.3-4.6,5.4c-3.2,1.5-6.4,3.2-9.6,4.9
		c-3.6,1.8-6.9,4.2-9.8,7.1c-8.9,8.8-15.6,19.1-19.1,31.2c-3.8,13.4-5.6,27-4.5,40.9c0.1,1.8,0.3,3.5,0.6,5.3c0-0.1,0-0.2,0-0.3
		c0.2-3.9,1.1-7.8,2.3-11.5c1.7-5.1,2.9-10.3,4.3-15.5c2.1-8.4,5.9-15.9,11.2-22.7C308.7,200.7,310.4,199.2,312,197.6z"/>
	<path class="st1" d="M313,134.4c1.1,0.2,2,0.1,2.8-0.7c0.5-0.6,1.1-1.2,1.7-1.6c1.6-1.2,2.1-2.8,1.7-4.7c-0.2-0.9-0.4-1.7-0.6-2.6
		c-0.2-0.7-0.4-1.3-0.5-1.9c-0.5-2.6,2-6.1,5.4-4.8c3.1,1.1,6,2.6,7.7,5.7c0.5,1,1.1,1.9,1.8,2.8c1.8,2.3,2.1,2,2.8-0.3
		c0.1-0.3,0.2-0.6,0.4-0.9c1.8-4.1,3.4-8.3,6.7-11.6c1.3-1.3,2.2-2.8,3-4.4c4-8,9.6-14.9,17-20c0.5-0.4,0.9-0.9,1.3-1.4v-0.1h0.1
		c0.1,0,0.2,0.1,0.2,0.1c-0.1,0-0.1-0.1-0.2-0.1l0,0c0.4,1.6,0.2,3.2-0.2,4.9c-1,4.7-1.7,9.5-1,14.4c0.6,4.6,2.5,8.3,6.6,10.8
		c1,0.6,1.9,1,3.1,0.7c3.7-1,7.5-1.5,11.3-1.8c9-0.8,17.9-0.6,26.8,1.6c1.6,0.4,3.3,0.8,4.9,1.2c0.7,0.2,1.4,0.2,1.9-0.3
		c1.6-1.2,3.2-2.5,4.4-4.2c0.8-1.1,0.9-2.3,0.6-3.5c-0.4-2.5-1.4-4.7-3.2-6.6c-2.3-2.3-4.7-4.5-6.9-6.9c-2.4-2.5-5.1-4.4-8.5-5.1
		c-1-0.2-1.9-0.6-2.7-1.4c-1.9-1.9-1.2-4.9,1.4-5.6c1-0.2,2-0.2,3-0.3c1.1,0,2.3,0.1,3.4-0.1c7.7-0.8,14.9,1.1,22,3.9
		c1.3,0.5,2.5,0.9,3.9,0.6c4.1-0.8,8.2-1,12.4-0.8c0.6,0,1.1,0,1.7,0c1.1,0,1.9-0.5,2.2-1.7c0.1-0.6,0.2-1.1,0.4-1.6
		c0.6-1.8,1.8-3.1,3.5-3.9c1.5-0.6,3-0.8,4.6-0.5c2.8,0.5,5.4,1.5,7.9,2.8c3.1,1.6,6.3,2.9,9.7,3.8c1,0.3,2,0.4,3,0.6
		s1.8-0.1,2.4-0.9c1.1-1.3,2.1-2.6,3.1-3.9c2.3-3.1,5-5.7,8.3-7.8c2-1.3,4.2-2.1,6.5-2.6c2.5-0.5,4.4,0.3,5.9,2.3
		c0.6,0.9,1.2,1.9,1.7,2.9c1.7,3.2,2.8,6.6,3.8,10c1.3,4.3,3.1,8.4,5,12.5c0.2-0.1,0.3-0.1,0.4-0.1c0.3-0.3,0.6-0.6,0.9-1
		c2.6-4.4,6.1-8,9.7-11.6c0.6-0.6,1.3-1.2,2.1-1.6c1.5-0.8,3.1-0.7,4.4,0.4c1.3,1.1,1.5,2.5,1.1,4c-0.1,0.5-0.4,1-0.6,1.6
		c-0.4,1.2-0.9,2.3-1.2,3.5c-0.8,3.7-1.3,7.5-1.5,11.3c0,0.5-0.3,1.1,0.4,1.5c2.7-1.2,2.8-1.3,4.6-3.2c2.4-2.4,4.7-4.8,7.2-7.1
		c8.8-8.3,19.3-14.2,30-19.8c1.9-1,4-1.6,6.1-1.8c0.8-0.1,1.6-0.1,2.3-0.4c1.7-0.5,3.1-0.1,4.4,0.9c1.4,1,2.7,2,4,3.1
		c1,0.8,1.5,1.8,1.8,3.1c1.1,4.2,0.5,8-2.4,11.3c-0.7,0.8-1.3,1.5-1.6,2.5c-0.6,2.6-1.3,5.2-2,7.8c-0.5,1.7-0.1,3.1,1,4.4
		c0.6,0.7,1.2,1.3,1.9,1.9c0.8,0.8,1.7,1.2,2.7,0.9c4.6-1.2,9.4-0.1,14.1-1.1c0.2,0,0.5-0.1,0.7,0c1.6,0.8,3.1,0.1,4.6-0.2
		c3.2-0.6,6.4-1.3,9.6-1.8c7.3-1.3,14.5-1.3,21.8-0.1c0.8,0.1,1.5,0.3,2.3,0.4c0.6,0.1,1.1-0.2,1.2-0.8c0.1-0.3,0.2-0.7,0.2-1
		c0.4-3,1.7-5.6,3.2-8.1c2.1-3.4,4.8-6.2,7.2-9.3c1.2-1.5,2.7-1.8,4.2-1.1c1.6,0.7,2.3,2.1,2.3,3.8c0,0.9-0.3,1.8-0.4,2.7
		c-0.3,1.5-0.4,3.1-0.1,4.6c2.8-1.6,5.9-2.5,9.1-3.1c4.4-0.9,8.5-2.6,12.3-5.3c0.1-0.7-0.5-0.9-0.9-1.2c-2-1.3-3.5-3.1-5.1-4.8
		c-1-1-1.4-2.3-1.5-3.7c0-0.5,0-0.9,0-1.4c-1.7-0.4-3.4-0.8-5.1-1.1c-3.3-0.7-6.6-1.1-10-0.9c-5,0.3-9.8-0.7-14.5-2.4
		c-2-0.7-4-1.4-6-2.1c-1.7-0.5-3.5-0.8-5.3-0.5c-1.3,0.2-2.3,0.7-3.2,1.7c-1.3,1.6-2.5,3.1-3.9,4.6c-3,3.2-6.6,4.1-10.7,2.7
		c-1.4-0.5-2.7-1-4-1.7c-2.4-1.3-4.6-2.7-7-4.1c-2.8-1.7-5.6-3.4-8.4-5c-11.1-6.1-22.3-10.3-33.7-14.1c-13.4-4.5-27.1-7.2-41.2-7.9
		c-5.2-0.2-10.3-0.3-15.5-0.2c-11.6,0.2-23.1,0.2-34.7,0.4c-6.4,0.1-12.8,0.7-19.1,1.5C444,53.9,433,56.8,422,60.3
		c-1.4,0.4-2.7,1-3.9,1.9c-1.9,1.4-4.1,2.4-6.3,3c-2.1,0.6-4.3,1.2-6.1,2.7c-0.6,0.6-1.6,0.8-2.4,1.1c-2.5,0.8-5,1.3-7.6,1.3
		c-11.5-0.2-20.5-5.1-27.2-14.3c-1.4-2-2.6-4.2-3.7-6.4c-0.4-0.8-0.5-1.7-1.4-2.2c-0.5,0-0.8,0.3-1.1,0.6c-2,2.2-4,4.6-5.7,7.1
		c-2.3,3.5-3.8,7.4-4.5,11.5c-0.7,3.7-0.8,7.4-0.8,11.1c0,1.1,0,2.3-0.1,3.4c-0.8,5.3-5.3,7.8-10.2,5.5c-1.2-0.5-2.1-0.5-3.1,0
		c-3.6,1.6-7.5,2.3-11.4,2.8c-5.8,0.7-11.6,0.8-17.4,0.5c-3.6,1.7-6.8,4.1-9.9,6.7c-4.5,3.9-9.2,7.6-13.2,12
		c-3.9,4.2-7.6,8.5-10.7,13.4c-0.8,1.3-1.5,2.7-2.3,4.1c-0.2,0.4-0.5,0.8-0.2,1.2c0.4,0.5,0.8,0.1,1.2-0.1c2.5-1.8,5.4-2.7,8.2-3.9
		c1.3-0.6,2.6-0.4,3.8,0.6c1.4,1.3,1.7,2.4,0.9,4.2c-0.4,0.9-0.9,1.8-1.5,2.6c-1.6,2-3.3,3.9-5.1,5.8c-0.6,0.6-1.1,1.2-1.6,1.9
		c2.1-0.8,4.2-1.5,6.4-2.1C294.2,133.4,303.5,132.6,313,134.4z"/>
	<path class="st1" d="M423.2,265c0-0.3,0-0.6,0-0.9l0,0C423.2,264.4,423.2,264.7,423.2,265z"/>
	<path class="st1" d="M683.5,278c-0.7-2.3-2-4.3-3.7-5.9c-2.6-2.5-5.2-4.9-8.3-6.8c-2.7-1.7-5-3.9-6.7-6.5
		c-5.6-8.2-9-17.3-10.2-27.1c-0.1-1-0.2-2-0.6-3c-1.3-3.2-2.5-6.5-4.2-9.5c-1.4-2.6-3.2-4.9-5.4-6.8c-1.4-1.2-2.7-2.3-4-3.6
		c-4.3-4.6-10-6.2-15.9-7.4c-0.6-0.1-1.3-0.1-2,0c-3.3,0.4-6.7,0.8-10,1.4c-11,2.1-20.9,6.8-30.5,12.2c-2.4,1.3-4.4,3.1-6.3,5
		c-4.1,4.3-6.6,9.3-6.8,15.3c0,0.7,0,1.3-0.1,2c-0.3,2.8-1.7,4.8-4.2,6.1c-0.5,0.2-1,0.5-1.5,0.7c-1.5,0.5-2.4,1.6-3,3
		c-0.4,0.9-0.6,1.9-1.1,2.8c-0.6,1.4-0.5,2.5,0.3,3.8c1.8,2.9,2.9,6.1,3.1,9.5c0,0.4,0.1,0.9,0.2,1.3c1.5,4.3,1.4,8.8,1.4,13.3
		c0,1.2-0.6,2.6,0.1,3.6c0.8,1.1,2.4,1,3.7,1.3c7.4,1.7,13.9,5.1,19.3,10.4c1.8,1.7,3.3,3.8,5.3,5.1c2,1.3,4.6,1.7,6.9,2.5
		c2.2,0.7,4.5,1.5,6.7,2.1c6.7,1.7,13.6,1.5,20.4,0.6c2.2-0.3,4.4-1,6.5-1.8c2.2-0.8,3.9-2.1,5-4.3c0.4-0.8,0.9-1.5,1.4-2.3
		c1.2-1.8,2.9-2.7,5.1-2.8c0.9,0,1.8,0.1,2.7,0.2c1.4,0.1,2.7,0.4,3.6,1.5c1.3,1.4,1.4,3.3,2.2,4.8c0.1,0.2,0,0.4-0.1,0.6
		c-1.2,2.3-1.8,4.8-3.2,7c-2.5,3.9-4.7,7.9-7,11.9c-0.7,1.2-0.8,2.5-0.5,3.9c0.7,2.8,1.6,5.4,3.1,7.8c1.6,2.6,3.3,5.1,5,7.6
		c3.3,5.1,6.4,10.3,8.1,16.2c0.4,1.2,0.9,2.3,1.7,3.2c3.6,4,7.1,8.1,10.6,12.2c0.7,0.8,1.2,0.6,1.6-0.5c1.5-4.4,3-8.7,4.3-13.1
		c0.7-2.2,1.3-4.5,1.6-6.9c1.4-8.8,1.4-17.6,0.8-26.5c-0.4-6-2.1-11.5-5.1-16.5c-1.5-2.5-2.3-5.3-3.5-8c-0.6-1.3-0.1-2.4,1-3.3
		c1.4-1.1,2.8-2.2,4.3-3.3c1.4-1,3-1.6,4.7-1.8c1.4-0.1,2.9-0.2,4.4-0.3c1-0.1,2,0.2,2.9-0.4c0-0.2,0.1-0.5,0-0.7
		C685.7,284.8,684.5,281.4,683.5,278z M654.9,267.4c-0.7,3.4-2.9,5.5-6.6,6.2c-0.8-2.2-1.7-4.5-2.6-6.8c-1.1,0.7-1.4,1.7-1.8,2.6
		c-2.8,5.8-6.4,11.1-10.5,16c-3.6,4.2-8.1,7.4-13.3,9.4c-2,0.8-4.1,1.2-6.2,1.3c-6.5,0.3-12.8-0.9-18.7-3.5
		c-5.6-2.5-10.1-6.6-13.9-11.4c-1.1-1.4-2.2-2.9-3.3-4.3c-1.7-2.1-3.6-4.1-5.8-5.6c-2.3-1.5-3.3-3.5-3.1-6.3c0.2-1.8,0-3.6-0.1-5.4
		c-0.1-2.7,0.1-5.4,0.7-8c2.2-8.5,5.8-16.3,11.6-22.9c5.9-6.7,13.1-11.5,21.9-13.8c4.6-1.2,9.3-1.6,14-0.6c3.1,0.7,5.9,2,8.6,3.6
		c3.7,2.3,7.4,4.6,11.1,7c2.5,1.6,4.7,3.5,6.8,5.4c1.2,1,2.3,2.2,3.1,3.6c2.9,4.7,5.4,9.6,6.4,15.1c0.6,3.9,1.3,7.7,1.8,11.6
		C655.4,263,655.4,265.2,654.9,267.4z"/>
	<path class="st1" d="M445.4,674.7c-4.3-0.9-7.9-3.1-11.5-5.5c-7.8-5.1-14.2-11.6-20-18.9c-2.9-3.6-5.5-7.4-7.6-11.5
		c-3.2-6.4-6-13-7.7-20.1c-0.2-0.7-0.2-1.3-1.1-1.9c-3,2-5.9,4.3-8.5,6.9c-3.5,3.4-5.9,7.4-7.2,12c-0.4,1.4-0.7,2.8-1.2,4.2
		c-0.3,1-0.6,1.9-1.1,2.8c-1.3,2.4-3.4,3.6-6.1,3.5c-2.8-0.2-4.8-1.8-5.7-4.5c-0.4-1.1-0.5-2.2-0.7-3.3c-0.8-5.8-1.8-11.5-2.4-17.3
		c-0.8-7.1-1.3-14.3-0.4-21.5c0.6-4.7,1.5-9.3,2.6-13.9c0.2-0.8,0.8-1.6,0.4-2.5c-0.7-0.1-1.1,0.4-1.5,0.7c-2.8,2.3-5.1,5-6.7,8.4
		c-1.1,2.4-2.2,4.9-3.2,7.4c-2.6,6.5-4.1,13.3-4.4,20.3c-0.3,6.7,0.4,13.2,1.9,19.7c2.4,10.4,5.2,20.7,10.3,30.2
		c2,3.7,4.1,7.3,6.2,10.9h81.1c-0.9-1.3-1.8-2.5-2.7-3.8C447.5,675.8,446.7,675,445.4,674.7z"/>
	<path class="st1" d="M361.2,306.4c9.4,1.4,18.8,0.8,28.2-0.2c1.1-0.1,2.2-0.6,3.2-1c0.3-0.1,0.6-0.4,0.6-0.7
		c0.1-0.5-0.4-0.4-0.7-0.4c-0.6,0-1.1,0-1.7,0.1c-3.7,0.2-7.4-0.1-11.1-0.7c-7.3-1.2-14.1-3.6-19.9-8.5c-1.9-1.6-4-2.9-5.9-4.4
		c-5.5-4.3-11-8.4-15.1-14.3c-1.3,0.8-2,2-2.9,3c-0.8,0.8-1.4,1.7-2.3,2.4c-3.2,2.6-7.4,1.3-8.6-2.6c-0.5-1.5-0.4-3.1,0-4.6
		c0.7-3.3,2.1-6.4,3.9-9.3c2.8-4.7,5.8-9.3,9.4-13.5c1.2-1.4,2.4-2.7,3.7-3.9c1.2-1.2,2.3-2.5,3.3-3.8c7.7-10,17.2-16.9,30.2-18.1
		c8.1-0.7,15.6,1.1,22.7,4.8c2,1,3.8,2.4,5.4,4c7.1,7,13.3,14.6,17,24c0.6,1.6,1.2,3.1,1.7,4.7c0.2,0.5,0.4,0.8,0.9,0.7
		c-0.3-6,0.6-11.8,2.5-17.5c0.6-1.8,1.2-3.5,3-4.7c1.2-0.8,1.5-2.2,0.8-3.6c-1.1-2.2-1.6-4.6-2.4-7c-0.7-2.2-1.5-4.5-2.4-6.7
		c-1-2.6-2.7-4.9-4.7-6.9c-0.5-0.6-1.1-1.2-1.8-1.5c-1.9-0.8-3.5-2.1-5.1-3.2c-1.7-1.1-3.5-2-5.4-2.6c-7.5-2.2-15.1-3.3-22.9-1.6
		c-13.9,3.1-26.1,9.4-36.3,19.4c-2.1,2.1-3.8,4.4-5.5,6.8c-0.5,0.8-0.8,1.6-0.9,2.5c-0.2,3.3-1.8,6-4.1,8.2
		c-1.7,1.6-3.4,3.3-5.1,4.9c-1.8,1.7-3.7,3.2-5.8,4.5c-1.7,1.1-3.6,1.8-5.6,2.3c-1.1,0.3-2.2,0.3-3.2-0.4c-0.4-0.3-0.8-0.8-1.6-0.4
		c-1.9,2.4-3.2,5-2.3,8.3c0.3,1.1,0.2,2.2,0.2,3.4c0.3,8.3-0.8,16.4-3,24.3c-2.1,7.6-5,14.9-10.3,21c-0.3,0.3-0.5,0.7-0.3,1.2
		c2.1,1.3,4.3,1.5,6.8,0.9c2.2-0.5,4.3-1.3,6.4-2.2c1.7-0.8,3.5-1.5,5.3-2.2c2.1-0.8,4.3-1.2,6.6-1c4.5,0.3,7.7,3.6,8,8.1
		c0.1,1-0.1,2-0.2,3c-0.3,2-1,3.9-1.9,5.7c-3.1,6.7-6.3,13.4-9.8,19.9c-0.4,0.8-0.7,1.6-0.5,2.6c0.2,1.1,0.4,2.2,0.7,3.3
		c0.1,0.3,0.3,0.7,0.6,0.7c0.2,0.1,0.6-0.2,0.8-0.4c1.1-1.2,2-2.4,3.1-3.5c3.7-4,7.9-7.3,12.4-10.4c1.4-0.9,2.2-2,2.6-3.7
		c0.8-3.5,2.5-6.7,4.6-9.6c0.3-0.5,0.7-0.9,1-1.3c0.5-0.6,0.4-1.2-0.1-1.8c-0.2-0.2-0.3-0.3-0.5-0.5c-4.2-4.2-6.7-9.5-9.3-14.8
		c-0.5-1-0.8-2.1-1.1-3.2c-0.5-2-0.7-4-0.2-6c1.1-4.7,4.1-5.5,7.9-3.1c0.8,0.5,1.5,1.4,2.1,2.1c1.1,1.3,2.2,2.5,3.3,3.8
		c0.9,1.2,2.1,2,3.4,2.7C355.5,305.3,358.3,306,361.2,306.4z"/>
	<path class="st1" d="M518.1,449c-0.5,1-0.2,1.4,1,1.5c4.9,0.3,9.6-0.9,14.4-1.5c0.2,0,0.4-0.1,0.6-0.2c1.5-0.5,2.4-1.3,2.7-3
		c1.3-6.2,2.3-12.4,2.4-18.7c0-3.7-0.3-7.4-2.5-10.6c-0.5-0.7-0.8-1.6-1.2-2.4c-2.2-5.8-5.8-10.6-10.3-14.8
		c-5.3-5-11.6-7.1-18.8-6.7c-3.2,0.2-6.5,0.7-9.7,1.3c-6.9,1.5-13.8,1.4-20.7-0.1c-3.9-0.9-7.9-1.6-11.9-2.5
		c-1.8-0.4-3.6-0.6-5.3-0.5c-9.2,0.3-16.6,4.3-22.2,11.6c-2,2.6-3.5,5.5-5.2,8.2c-1,1.6-1.6,3.4-1.9,5.4c-0.7,4.9-0.7,9.8-0.8,14.8
		c-0.1,3.5,0.7,6.9,1.6,10.3c0.3,1.2,0.9,2,1.9,2.7c1.3,1,2.7,1.6,4.3,1.7c2.7,0.1,5.4,0,8-0.5c1.9-0.4,2.9-1.4,3.2-3.3
		c0.3-1.5,0.6-3.1,1.1-4.6c2.4-6.1,10.1-7.6,14.7-2.9c1.2,1.2,2.1,2.7,2.6,4.3c0.6,2,1.2,4.1,1.6,6.2c0.6,3.1,0.2,6-2.2,8.4
		c-0.5,0.5-0.8,1.1-1.2,1.6c-2,2.9-4.8,4.6-8.2,5.6c-2.8,0.9-5.7,1-8.7,0.4c-1.9-0.4-3.7-0.9-5.6-1.3c-0.5-0.1-1-0.5-1.4,0.1
		c0.1,0.7,0.6,1.2,1,1.7c3.8,4.5,8.2,8.4,13.2,11.3c4.3,2.5,8.7,4.6,13.1,6.9c0.1,0.1,0.4,0,0.6,0c0.1-0.9-0.6-1.4-1.1-1.9
		c-2.4-2.5-4.7-5.1-7.3-7.4c-2.1-1.8-2.4-3.9-1.4-5.7c1-1.7,2.8-2.3,5.3-1.6c1.3,0.3,2.6,0.6,4,0.4c3.1-0.3,4.8-2.1,5.1-5.2
		c0.3-2.9,0.6-5.8,0.7-8.7c0.1-2.9-0.1-5.9-1.1-8.6c-1.4-3.6-3-7-4.8-10.4c-1.1-2.1-2.7-3.5-4.9-4.4c-2.1-0.9-4.2-1.6-6.4-2.1
		c-1.6-0.4-3.1-0.4-4.7-0.1c-2.1,0.4-4.1,1.2-6.1,1.8c-1.6,0.5-3.3,0.9-5,0.8c-5-0.2-8-4-6.9-9c0.7-3.4,2.4-6.3,4.9-8.7
		c1-1,2.2-1.9,3.4-2.7c2.3-1.4,4.1-0.6,5,1.9c0.1,0.4,0.2,0.9,0.3,1.3c0.4,1.2,1.1,1.9,2.3,2.2c1.3,0.3,2.7,0.4,4,0.3
		c2.6-0.1,5.1,0.4,7.5,1.4c2.6,1.1,5.2,2.1,7.8,3.2c1.8,0.8,3.6,1,5.6,0.7c2.1-0.2,4.3-0.5,6.4-0.5c4.5,0.1,8.9-0.7,13.2-2.1
		c3.1-1,6.3-1.3,9.6-0.9c3.7,0.4,7.4,0.3,11.1,0.9c1.3,0.2,2.7,0.2,4-0.4c1.5-0.6,2.6-1.5,3.3-3.1c1.2-2.6,3.4-3.3,5.8-1.9
		c0.7,0.4,1.3,0.9,1.8,1.5c4,4.1,4.6,10.1,1.6,14.9c-0.7,1-1.4,2.1-2,3.1c-2,2.9-4.8,3.6-7.9,2.2c-1.5-0.7-2.6-1.7-3.8-2.7
		c-1-0.9-2-1.9-3-2.6c-4-2.8-9.2-2.2-12.5,1.3c-1.3,1.4-2.6,2.8-3.9,4.2c-3.4,3.8-5.3,8.3-6,13.3c-0.7,4.9-0.2,9.8,0.9,14.7
		c1.2,5,5.7,9.7,12.2,9.5c2.6-0.1,5.2-0.1,7.7-0.1c1,0,2-0.2,2.9,0.4c0.3,0.2,0.5,0.6,0.2,0.9s-0.6,0.6-1,0.9
		c-5.5,3.3-10.9,6.7-16.6,9.6c-1.7,0.9-3.5,1.6-5.3,2c-1.2,0.3-1.6,0.2-2.2-0.9c-0.4-0.6-0.7-1.2-0.9-1.8c-1.4-3.7-2.8-7.3-3.4-11.2
		c-0.3-1.8-1.2-3-3.3-4.3c-0.1,5.5-0.4,10.8,0.4,16.2c0.5,3.3,2.2,5.6,4.6,7.5c1,0.8,2.2,1.2,3.5,0.7c1.2-0.4,2.4-0.7,3.5-1.2
		c4.3-1.8,8.8-3.5,12.9-5.7c5.6-2.9,11.3-5.6,15.5-10.5c0.4-0.4,0.8-0.8,1.3-1.1c4.9-3.6,7.1-8.8,8.7-14.4c0.1-0.3-0.1-0.6-0.1-1
		c-1.8,0.2-3.1,1.2-4.4,2.2c-2,1.7-4.2,3-6.7,3.8c-3.3,1.1-6.7,1.9-10.1,2.4c-2.5,0.4-5,0.1-7.2-1.2c-2.2-1.4-4.3-2.9-6-4.9
		c-5-6.3-5.3-11.9-0.9-17.8c0.9-1.2,1.8-2.3,2.9-3.3c1.4-1.4,3-2.4,4.7-3.2c5.6-2.5,11,0.7,12.7,5.4c0.7,1.8,1,3.7,0.7,5.6
		C519.4,445.4,518.9,447.3,518.1,449z"/>
	<path class="st1" d="M548.4,286.8c1.1-2.3,2.2-4.6,3.5-6.9c1-1.9,1.5-3.7,0.5-5.8c-0.3-0.7-0.4-1.5-0.6-2.3
		c-1.5-9.5-7.4-15.9-14.9-21c-0.1-0.1-0.2,0-0.6,0c-0.6,1.8-1.2,3.7-1.8,5.6c-0.9,2.7-2,5.3-3.6,7.6c-1.6,2.2-3.6,3.6-6.5,3.7
		c-0.7,0-1.3,0.2-2,0.3c-1.4,0.2-1.9-0.3-1.7-1.6c0.4-2.9,0.2-5.8,0.3-8.7c0.1-4.9-2.3-8.8-5-12.6c-2.2-3-5.3-4.4-8.7-5.3
		c-2.2-0.6-4.4-1-6.5-1.6c-2-0.5-3.9-1-5.7-2c-2.4-1.2-4.6-2.8-6.5-4.8c-1.4-1.5-1.5-1.5-3-0.2c-1.6,1.3-3.1,2.6-4.7,3.8
		c-5.5,3.9-9.6,9-13.1,14.7c-2.5,4.1-3.4,8.5-3.2,13.2c0,0.8,0.2,1.6,0.1,2.3c-0.1,3.1-2.9,5.2-5.8,4.4c-1-0.2-1.9-0.7-2.8-1.2
		c-1.8-1-3.6-1.9-5.3-3c-4.1-2.7-8.9-3.7-13.3-5.5c-0.1,0-0.2,0-0.4,0.1c-0.1,0.6-0.2,1.3-0.2,1.9c0.1,4.6,1,9.1,2.6,13.5
		c0.7,1.9,1.6,3.7,2.8,5.3c0.4,0.5,0.9,1.1,1.1,1.7c0.7,1.6,0.7,3.3-0.4,4.8s-2.7,2-4.5,1.7c-1.1-0.2-2.1-0.7-3.1-1.3
		c-0.9-0.6-1.9-1.2-2.9-1.8c-1-0.7-2.1-0.7-3.2-0.3c-1.6,0.6-3,1.5-4.3,2.6c-8.4,7.8-14.3,16.9-16.8,28.2c-0.3,1.5-0.6,3.1-0.9,4.6
		c-0.1,0.5,0.2,0.9,0.6,1.1c0.3,0.1,0.6,0.2,1,0.2c5.5,0.6,10.8,2,16.1,3.6c0.5,0.2,1.1,0.3,1.6,0.4s0.8-0.2,0.9-0.7
		c0.1-1.1-0.4-2-0.8-2.9s-0.9-1.8-1.2-2.8c-0.5-2,0.1-3.8,1.7-5.1c1.6-1.3,3.7-1.5,5.7-0.3c0.6,0.3,1.1,0.8,1.6,1.2
		c1.8,1.6,3.8,2.8,5.8,4c1.1,0.7,1.6,0.4,1.7-0.9c0.1-1.1,0.2-2.2,0.2-3.4c0-2,0-4,0-6.1c0-0.9,0-1.8,0.1-2.7
		c0.2-1.4,0.9-2.6,2.3-3.1c1.5-0.5,2.9-0.2,4,1c1.1,1.3,2.4,2.4,3.6,3.5c1.8,1.7,3.2,3.8,4.3,6c1.1,2.2,1.9,4.5,2.6,6.9
		c1,3.6,2,7.2,2.9,10.9c1-4,1.6-8,1.6-12.2c0-1.6,0-3.1,0.5-4.6c1.2-3.4,4.1-3.9,6.7-2.1c0.4,0.3,0.7,0.6,1,0.9
		c1.8,2.3,3.7,4.4,5.1,7.1c2,4,3.3,8.3,4.8,12.6c1,2.9,1.9,5.7,2.9,8.6c0.2,0.5,0.8,0.6,1.1,0.3c0.9-1.2,1.8-2.3,2.5-3.5
		c1.9-3,3.7-6.1,5.6-9.2c0.6-1.1,1.5-2,2.4-2.8c0.5-0.4,1.1-0.7,1.8-0.8c2-0.3,3.7,0.6,4.6,2.6c0.4,0.9,0.8,1.8,1.5,2.5
		c1.9,1.9,3.8,3.8,5.7,5.7c0.7,0.7,1.5,1.3,2.5,1.7c0.4,0.2,0.8,0.2,1.2,0.2c-0.2-0.4-0.4-0.8-0.5-1.2c-0.3-1.1-0.4-2.2-0.3-3.3
		c0.1-1.3,0.2-2.7,0.4-4c0.1-1.1,0-2.2-0.6-3.2c-0.6-1.1-1-2.3-1.5-3.4c-0.7-1.5-1.3-3.1-2-4.6c-0.4-0.8-0.8-1.7-1.7-2.1
		c-1.7-0.8-2.8-2.2-4-3.6c-1,0.8-2,1.6-3,2.3c-1.3,1-2.8,1.5-4.4,1.3c-2.6-0.3-4.2-2.6-3.3-5.1c0.4-1.2,1-2.2,1.6-3.3
		c0.6-1.1,1.1-2.2,1.4-3.4c0.3-1.4,0.7-2.8,1.1-4.2c0.7-2.8,1.5-5.7,1.6-8.6c0.3-6.8,0.4-13.7-0.4-20.5c-0.1-0.6-0.1-1.1-0.1-1.7
		c0.1-1.4,1.1-2.6,2.5-2.8c1.4-0.3,2.4,0.3,3.2,1.3c0.4,0.5,0.6,1.2,0.9,1.8c3.6,7.8,6.8,15.6,8.8,24c0.1,0.5,0.4,1.1,0.6,1.6
		c0.1,0.2,0.3,0.3,0.5,0.4c0.9-0.3,1.2-1.3,1.7-2c1.8-2.4,3.5-5,5.4-7.3c1.2-1.5,3.1-1.8,4.6-1s2.3,2.2,1.9,3.9
		c-0.3,1.5-0.1,2.9,0.1,4.3c0.3,1.9,0.5,3.8,0.8,5.7c0.4,2.2,0.9,4.4,1.9,6.4c2,3.9,4.5,7.3,9.1,8.2c1,0.2,1.9,0.6,2.9,0.9
		c1.8,0.6,3.7,1,5.4,1.9c1.5,0.7,2.9,0.9,4.5,0.5c10.5-2.3,21.1-2.9,31.8-2c0.3,0,0.7,0.1,1,0.1s0.7,0.1,0.8-0.3
		c0-0.3-0.1-0.7-0.3-0.9c-2.6-3.1-5.3-6.1-8-9.1c-3-3.3-6.3-6.4-9.9-9.1c-1.5-1.2-3.1-2.2-4.9-2.9c-3.2-1.3-6.5-1.8-9.8-0.4
		c-0.4,0.2-0.9,0.3-1.3,0.4c-2.9,0.2-5.6-1.2-4.6-5.1C547.7,288,548.1,287.4,548.4,286.8z"/>
</g>
</svg>
