<?xml version="1.0" encoding="utf-8"?>
<!-- Generator: Adobe Illustrator 24.0.1, SVG Export Plug-In . SVG Version: 6.00 Build 0)  -->
<svg version="1.1" id="Layer_1" xmlns="http://www.w3.org/2000/svg" xmlns:xlink="http://www.w3.org/1999/xlink" x="0px" y="0px"
	 viewBox="0 0 990 781.2" style="enable-background:new 0 0 990 781.2;" xml:space="preserve">
<style type="text/css">
	.st0{fill:#525358;}
	.st1{fill:#FFFFFF;}
	.st2{fill:#8E6008;}
	.st3{fill:#CB9837;}
</style>
<g>
	<path d="M193.7,721.2c-0.7,1.4-0.7,2.9-1,4.4c-0.7,2.7-1.6,5.2-3.5,7.2c-0.3,0.3-0.6,0.8-0.8,1.2c-1.6,2.4-3.3,3.2-6.1,2.4
		c-5.8-1.6-10.9-4.4-15-9c-4.1-4.6-8.2-9.2-11.4-14.5c-0.7-1.2-1.7-2.1-2.9-2.8c-0.4-0.2-0.8-0.5-1.2-0.8
		c-7.9-4.5-13.1-11.6-17.6-19.2c-0.3-0.5-0.6-1.1-0.8-1.7c-1.7-5-3.5-9.9-4.2-15.2c-0.5-4-0.4-8-0.2-12c0.4-8.3,1.9-16.3,4.8-24.1
		c1.9-5,4.7-9.4,8.4-13.3c2.3-2.4,4.8-4.7,7.4-6.8c5.2-4.1,10.4-8.2,15.7-12.3c8.5-6.5,17.9-11.5,28.1-14.8c2-0.7,2.1-0.7,1.9-2.9
		c-0.6-7.3-0.6-14.7-0.5-22.1c0.3-31,10.9-58.1,30.4-82c3.9-4.8,7.8-9.5,11.6-14.4c2.1-2.8,3.7-5.8,4.6-9.1c2.5-8.4,4.3-17,5.8-25.7
		c1-5.7,1.8-11.4,4-16.7c2.8-6.6,6.7-12.4,11.5-17.5c1.3-1.4,1.8-2.9,1.7-4.8c-0.3-3.5-0.6-7-1.6-10.4c-2-6.6-2.8-13.3-3.1-20.1
		c-0.4-10.2,0.5-20.3,1.1-30.4c1.2-19.4,6.2-37.9,12.4-56.2c2.5-7.5,4.9-15,8.4-22.2c1.1-2.3,1.7-4.8,1.6-7.4
		c-0.1-2.6,0-5.1-0.1-7.7c-0.1-2.9-0.7-5.7-1.8-8.4c-4.3-10.1-5.5-20.6-5.1-31.5c0.2-4.8,0.7-9.6,1.9-14.2c0.3-1.2,0.2-2.4-0.3-3.5
		c-0.8-1.7-1.6-3.3-3-4.6c-5.8-5.9-8.7-13.1-9.9-21.1c-1.1-7.1-0.9-14.2-0.1-21.3c0.3-3,0.7-6,1-9.1c0.3-2.4,0.8-4.7,1.6-7
		c0.5-1.3,0.4-2.4-0.2-3.7c-1.5-2.9-1.7-6-0.9-9.1c1.1-4.4,2.9-8.5,5.6-12.1c3.8-5.1,8.7-8.6,14.8-10.5c3.3-1,6.7-1.7,10-2.4
		c1.5-0.3,2.9-0.7,4.3-1.3c5-2.2,10-4.6,14.9-7.1c5.8-3,11-6.8,15.9-11c6.7-5.7,14.3-9.5,23.1-11.1c7.9-1.4,15.6-0.6,23.3,1.5
		c2.8,0.7,5.6,1.5,8.3,2.3c1.2,0.3,2.3,0.4,3.5,0.1c1.7-0.5,3.5-0.6,5.2-0.4c6.4,0.7,12.6,0.2,18.6-2.3c3.9-1.5,7.9-2.4,12.1-2.9
		c10-1.2,19,1.3,27.3,6.9c0.9,0.6,1.6,1.3,2.3,2.1c2.3,2.7,5.5,2.5,8.6,2.7c0.7,0,1.2-0.7,1.8-1.2c4.9-4.1,10.5-7.1,16.9-8.1
		c9.2-1.5,18.2-0.4,26.5,4c1.3,0.7,2.2,0.5,3.2-0.4c4.7-4,9.9-7,16-8.4c7-1.6,14.1-2.9,21.3-2.8c4.3,0.1,8.4,0.8,12.4,2.3
		c2.9,1.1,5.9,1.9,9.1,1.7c1.9-0.1,3.7,0.4,5.4,1.1c1.4,0.6,2.6,0.4,3.7-0.8c4.3-4.5,9.8-6.4,15.9-7.1c7.7-1,15.1,0.2,22.3,3
		c5.6,2.2,11.3,4.1,17,5.9c6.6,2.1,13.2,2,19.9,0.4c5.1-1.2,10.1-2.2,15.4-2.4c7.2-0.3,14.2,0.7,20.9,3.3c8.7,3.4,15,9.5,19.4,17.7
		c1.6,3.1,3,6.4,4.2,9.7c1.7,4.4,3.2,8.9,4.6,13.4c2,6.3,2.3,12.6,0.3,18.9c-0.5,1.5-0.4,2.7,0.4,4.1c1.6,2.7,1.9,5.7,2.4,8.7
		c0.5,3.4,1,6.8,1.4,10.2c0.7,7-1.7,12.9-6.3,18c-1.2,1.3-2.8,2.1-4.5,2.7c-1.9,0.7-3.8,1.3-5.7,1.9c-3.4,1.1-5.1,3.6-6.2,6.8
		c-0.5,1.3,0.3,2.1,1.3,2.8c3.5,2.2,6.4,5.1,8.9,8.3c4.7,5.8,7.5,12.4,8.2,19.9c0.5,5.3-0.8,10.3-3.5,14.9c-1.8,3.1-3.8,5.9-6,8.7
		c-3.2,4.1-4.2,8.6-3.7,13.7c0.5,4.8,1.6,9.4,3.4,13.9c4.6,11.4,9.2,22.8,14.2,34.1c5.9,13.1,9.3,26.8,11.1,41
		c0.6,4.8,0.9,9.5,1.2,14.3c0.3,5.7-0.3,11.3-2,16.8c-0.9,3.1-1.9,6.1-2.9,9.1c-1.3,4.2-1.5,8.5-0.9,12.8c0.7,4.8,1.4,9.6,1.6,14.5
		c0.4,11.9-1.5,23.4-5.5,34.6c-0.9,2.4-0.9,4.6-0.1,7c2.9,8.9,4.6,17.9,4.2,27.3c-0.3,5.7-1.2,11.3-3.7,16.5c-0.8,1.7-1.9,3.3-2.9,5
		c-1.2,1.9-0.8,2.8,1.2,3.6c16.4,6.3,29.2,16.9,38.3,31.9c3.3,5.4,5.1,11.4,6.6,17.4c1.9,7.6,3.2,15.3,3.2,23.2
		c0,9.5-2.2,18.5-6.5,27c-0.3,0.6-0.6,1.3-0.9,1.9c-0.1,0.1,0,0.3,0,0.5c0.7,0.5,1.5,0.3,2.3,0.3c12.3,0.4,24,3.1,35.5,7.4
		c13.6,5.1,25.2,13.3,37,21.6c0.6,0.4,1.1,0.9,1.6,1.5c6.3,7.9,12.2,16.1,16.9,25c2,3.8,3.8,7.7,4.8,12c0.8,3.3,0.3,6.5-0.2,9.8
		c-1.3,9.3-4.1,18.2-7.5,26.9c-1,2.5-2.7,4.7-4.3,6.9c-3.7,5.1-7.8,10-13.5,13.1c-2.2,1.2-4,2.9-5.3,5.1c-3.1,5.4-7.4,9.8-11.6,14.3
		c-3.9,4.2-8.8,6.5-14.3,8c-2.7,0.7-4.1-0.3-5.9-2.5c-2.9-3.5-4.3-7.4-4.9-11.8c-0.1-0.4-0.1-0.8-0.8-1.1c-1.4,1.3-2.8,2.7-4.2,4.1
		c-1.9,1.8-3.8,3.7-6,5.1c-4,2.5-7.8,1.6-10.1-2.5c-2-3.6-2.9-7.4-3.1-11.5c-0.1-1-0.1-1.9,0-2.9c0.3-2.1-0.6-3.5-2.3-4.6
		c-1.6-1-3.2-1.9-4.9-2.6c-4-1.7-6.6-4.7-7.9-8.8c-0.1-0.5-0.3-0.9-0.5-1.4c-0.3-0.8-0.8-0.9-1.5-0.6c-0.7,0.4-1.3,0.9-1.8,1.5
		c-1.8,2-2.7,4.3-3.5,6.8c-2,6-5.4,10.9-10.4,14.9c-3.6,2.9-8.8,1.5-11-1.7c-1.7-2.5-2.8-5.2-3.4-8.1c-0.2-1.1-0.5-2.2-0.5-3.3
		c-0.1-1.9-1-3.4-2.7-4.2c-5.1-2.5-9-6.6-13-10.5c-1.5-1.5-3-3.1-3.8-5.2c-0.3-0.8-0.8-1.1-1.6-1.1c-0.6,0-1.3,0-1.9,0
		c-138.1,0-276.2,0-414.4,0c-0.6,0-1.1,0-1.7,0c-0.9-0.1-1.5,0.2-1.8,1.2c-0.3,0.7-0.7,1.5-1.2,2.1c-3.8,4.5-8,8.7-13,12
		c-0.7,0.4-1.4,0.8-2.1,1.2c-2,1-3.1,2.6-3.3,4.9c-0.3,3.7-1.3,7.2-3.4,10.4c-1.5,2.3-3.4,3.7-6.2,4c-1.8,0.2-3.3-0.2-4.7-1.3
		c-5.3-3.9-8.7-9-10.9-15.1c-0.4-1.1-0.7-2.1-1.1-3.2c-0.6-1.6-1.6-3-2.8-4.2c-1.8-1.9-2.6-1.8-3.3,0.7c-1.4,4.3-4.1,7.3-8.3,9.1
		c-1.6,0.7-3.1,1.6-4.6,2.5c-1.6,1-2.5,2.3-2.3,4.4c0.4,4.5-0.5,8.7-2.2,12.9c-0.4,1-0.9,2-1.7,2.9c-2.4,2.9-5.5,3.4-8.8,1.5
		c-1.6-0.9-3-2.1-4.4-3.4c-1.7-1.7-3.4-3.3-5.2-5C194.9,721.8,194.5,721.2,193.7,721.2z"/>
</g>
<g>
	<path class="st0" d="M498.5,419.2c0,6.9,0,13.8,0.1,20.7c0,3,0.5,5.9,1.4,8.8c1.1,3.5,1.4,7.2,1.9,10.7c0.6,0.3,1.2,0.1,1.7,0
		c6.2-1.3,11.8-3.9,16.7-7.9c2.6-2.1,5.1-4.3,7.9-6c5.3-3,9.3-7.3,13-12c2.8-3.6,5.1-7.5,6.8-12.4c-2.8,0.8-5.1,0.3-7.4-0.5
		c-0.5-0.2-1-0.2-1.5-0.2c-4.3-0.4-8.5-0.4-12.8,0.7c-1.6,0.4-3.3,0.5-4.9,0.6c-7.8,0.5-15.1-6.5-15.4-13.2
		c-0.4-7,1.7-13.3,5.2-19.2c1.6-2.6,4.6-3.3,7.4-2c0.8,0.4,1.5,0.9,2.3,1.3c3.6,1.7,5,4.7,5.2,8.4c0.1,3-0.7,5.7-2.1,8.3
		c-0.8,1.5-0.5,2.7,0.3,3.9c0.9,1.3,2.1,2.1,3.7,2.1c4.2,0.1,8.4-0.5,12.6-0.6c1.8-0.1,3.1-1.5,4.5-2.4c0.2-0.2,0.3-0.6,0.3-0.9
		c0.1-1.8,0.7-3.4,1-5.1c0.8-3.9,0.3-7.5-2.2-10.7c-1.3-1.7-1.9-3.6-2-5.8c-0.1-3.8-1.2-7.2-4.4-9.6c-2.1-1.5-3.5-3.7-4.8-5.9
		c-1.2-2.1-2.8-3.8-4.5-5.4c-2.5-2.4-5.5-3.9-8.5-5.6c-6.2-3.6-13-4-19.8-3.3c-2,0.2-3.8,0.3-5.8,0c-4.3-0.6-8.7-0.6-13,0.5
		c-0.8,0.2-1.7,0.2-2.2,0.8c-1.5,1.8-3.6,2.5-5.6,3.1c-5.3,1.8-9.2,5.3-12,10c-1.3,2.1-2.6,4.2-4.6,5.7c-3.2,2.4-4.4,5.8-4.5,9.5
		c0,2.5-0.8,4.6-2.3,6.5c-1.5,2-2.1,4.2-2.1,6.6c0,2.3,0.9,4.5,1,6.7c0.1,2.6,1.5,3.6,3.4,4.7c0.9,0.5,1.8,0.7,2.7,0.7
		c2.1,0.1,4.2,0.3,6.3,0.4c1.9,0.1,3.9,0.2,5.8,0.1c3.1-0.2,4.8-3.3,3.6-6c-1-2.1-1.7-4.2-2-6.5c-0.4-3.8,0.6-7.1,3.9-9.4
		c1.1-0.7,2.2-1.4,3.4-1.9c2.9-1.4,5.9-0.7,7.6,2c3.3,5.6,5.2,11.5,5.2,18.2c0,8.1-8.6,15.1-16.4,14c-2.3-0.3-4.5-0.6-6.7-1
		c-1.5-0.3-3.1-0.5-4.7-0.5c-4.7-0.1-9.2,1.6-13.8,1.5c0,0.3-0.1,0.5,0,0.7c0,0.3,0.1,0.5,0.2,0.7c3.5,8.2,8.7,15.1,15.9,20.4
		c3.9,2.8,7.9,5.5,11.6,8.5c4.7,3.8,10.1,6.2,16,7.4c1.8,0.4,1.8,0.4,2.1-1.5c0.5-3.8,1.1-7.6,2.3-11.3c0.4-1.2,0.6-2.6,0.6-3.9
		c0-2.6,0.1-5.2,0.2-7.9c0.1-7-1-18.8,1.2-26.9C497.3,407.6,498.5,417.3,498.5,419.2z"/>
	<path class="st0" d="M483.5,498.5c0.5-0.9,0.9-1.9,0.9-3c0.2-5.1,1.6-9.8,5-13.8c0.8-0.9,0.5-1.3-0.7-1.6c-1.7-0.4-3.1,0.3-4.5,1.1
		c-3.3,1.8-6.8,2.3-10.4,1.3c-4.1-1.2-8.3-2-12.1-4.3c-0.6-0.4-1.3-0.5-2-0.5c-5.2-0.1-10.1,1-14,4.8c-1.3,1.2-2.3,1.3-3.3,0.6
		c-1-0.7-1.1-1.8-0.4-3.3c1.2-2.8,3.2-5,5.8-6.6c3.1-2,6.5-3.4,10-4.6c6.2-2.2,12.4-4.1,18.7-7c-2-1.8-3.8-3.5-5.5-5.2
		c-1.1-1.1-2.3-1.8-3.8-2.1c-4.7-1-9.3-2.6-13.6-4.8c-8.6-4.3-14.3-11.1-16.1-20.7c-0.7-3.6-1-7.3-0.9-11c0-0.7,0.1-1.4-0.1-2.1
		c-1.2-3.6-1.4-7.5-3-11.1c-0.7-1.6-1.2-3.3-1.8-4.9c-1.9-5.4-2.9-11-2.3-16.7c0.3-3.1,1.1-6,1.9-9c0.2-0.7,0.4-1.4,0.5-2
		c0-1.2-1-1.8-2.1-1.2c-1.8,0.9-3.8,1.3-5.7,1.8c-2.1,0.5-4,1.3-5.5,2.9c-4.9,5.4-8.3,11.5-8.4,19c0,2.8-0.5,5.6-1.2,8.3
		c-1.8,6.8-5.8,11.7-12.7,13.9c-0.7,0.2-1.3,0.5-1.9,0.8c-1,0.5-2,0.6-2.9-0.1c-0.8-0.7-0.9-1.7-0.7-2.7c1.3-4.6,2.3-9.4,5.1-13.4
		c0.6-0.9,0.9-1.8,1-2.9c0.5-5.1,1.4-10.2,3.2-15.1c1.7-4.5,3.1-9.2,6.5-12.7c0.7-0.7,0.8-1.4,0.4-2.4c-0.8-1.9-1.1-3.8-1.3-5.9
		c-0.6-8.1,1.8-15.2,7-21.4c1.9-2.4,3.9-4.8,5.4-7.4c3.9-6.5,8.3-12.5,14.3-17.2c1.3-1.1,2.7-2.1,4.1-3c-0.1,0.1-0.3,0.1-0.4,0.2
		c-8.8,4.4-16.2,10.5-22.6,18c-2.2,2.5-4.6,4.7-8.4,4.5c-2.2-0.1-3.9-0.8-5-2.7c-0.4-0.7-0.8-1.4-1.2-2.1c-0.7,1.7-1.3,3.4-1.9,5.1
		c-1.7,4.8-2.2,9.7-2.6,14.7c-0.3,3.3-0.9,6.6-1.9,9.8c-0.9,2.9-2.3,3.9-5.4,3.8c-0.3,0-0.7,0-1,0c-1,0.2-1.3-0.4-1.6-1.2
		c-1.6-4-1.4-8.1-0.9-12.1c0.8-5.9,1.6-11.8,2.5-17.6c0.2-1.5,0.5-2.9,0.8-4.4c-2.5,1.7-4.2,3.9-5.7,6.3c-4.2,7-7.8,14.3-9.9,22.2
		c-0.5,1.8-1.1,3.5-2.4,4.9c-3.7,3.9-7.2,7.8-11.6,10.9c-7.8,5.7-14,12.8-17.9,21.8c-1.4,3.2-2.7,6.5-3.8,9.8
		c-3.2,9.2-4.2,18.7-2.7,28.4c0.7,4.3,1.6,8.6,2.4,12.9c0.4,1.9,0.2,3.9,0.4,6.1c1.2-0.7,1.5-1.6,2.1-2.4
		c4.7-6.7,8.4-14.1,12.5-21.2c1.7-2.9,3.4-5.9,5.1-8.9c1.2-2.2,1.9-4.5,1.1-7c-0.2-0.7-0.2-1.4-0.2-2.1c0-3.8,0.9-7.3,4-9.8
		c2.2-1.8,4.7-2.3,7.4-1c2.3,1.2,3.5,3.7,3.1,6.7c-0.1,0.7-0.2,1.4-0.5,2c-1.8,4.6-2.9,9.4-4.3,14c-0.9,3-1.9,6-3.7,8.6
		c-1.9,2.8-3.1,5.8-4.2,9c-3.5,10.6-8.7,20-17.6,27.1c-2.6,2.1-4.3,4.8-5.5,7.8c-1.9,4.8-3.4,9.8-4.4,14.8c-0.9,4.4-1.1,9-1.1,13.6
		c0,2.2,1.2,4.4,0,6.6c-0.1,0.2,0,0.5,0,0.8c0.4,3.7,1,7.5,2.4,11c2.5,6.2,5.3,12.2,9.2,17.7c5.5,7.8,11.5,15.2,17.6,22.5
		c1.6,2,3.5,3.7,5.7,4.9c4.9,2.8,10.1,4.8,15.6,6.1c1.1,0.3,2.1,0.1,3.1-0.1c2.1-0.5,4.2-1.1,6.4-1.5c8-1.6,15.9-1.8,23.5,2
		c4.4,2.2,9.5,2.4,14.4,1.5c4.4-0.8,8.7-1.8,13.1-2.7c5.3-1.1,10.5-2.6,15.5-4.7c6.4-2.6,11.9-6.2,15.8-12c1-1.5,1.9-2.9,2.2-4.6
		c1.3-6.2,1.5-12.5,2.7-18.7c0.6-3.5,0.5-6.8-0.6-10.1c-1.4-4.3-0.9-8.2,1.5-12C479.8,506.6,481.5,502.4,483.5,498.5z M349.8,499
		c0.5-6.3,2.4-12.1,5.6-17.5c0.3-0.4,0.5-0.9,0.6-1.4c0.3-3.4,1.9-6.2,3.8-8.8c0.8-1.2,0.9-2,0.2-3.3c-2.4-4.2-2.2-8.5-0.4-12.9
		c1.5-3.6,4.3-5.6,8-6.6c0.4-0.1,0.9-0.2,1.3-0.1c0.9,0.1,1.7,0.5,2,1.4c0.3,0.8,0,1.5-0.6,2.2c-2.7,3.3-2.5,6.8,0.8,9.5
		c2.2,1.8,4.5,3.2,7.7,3.5c3.7,0.4,6.1,3.2,7.5,6.6c0.4,1,0.6,2.2,0.8,3.3c0.3,2,1.3,3.4,3.1,4.2c4.8,2.2,9.7,4.5,15.1,5
		c0.9,0.1,1.9,0.3,2.8,0.6c1.9,0.6,3.1,2,3.4,4c0.3,2.1-0.6,3.7-2.3,4.9c-0.9,0.6-1.9,1-2.9,1.2c-2.2,0.5-4.5,0.7-6.7,0.8
		c-4.3-0.2-8.3-1.2-12.3-2.5c-2.2-0.7-4.5-1.4-6.7-2.2c-1.2-0.4-2-0.2-2.9,0.6c-2,1.6-3.9,3.2-5.6,5.1c-0.4,0.4-0.8,0.8-0.9,1.2
		c-0.4,2.2-2,3.2-3.8,3.9c-1.3,0.5-1.8,1.3-1.9,2.8c-0.2,2.2-0.6,4.3-1.1,6.4c-0.7,2.9-3.7,4.4-6.9,3.7c-1.1-0.3-2.2-1.3-3.4-0.2
		c-0.3,0.3-0.8-0.1-1.1-0.5c-0.2-0.2-0.3-0.4-0.4-0.7C351.2,508.6,349.4,504.1,349.8,499z M422.7,560.2c-1.8,1.3-4,1.8-6.1,2.2
		c-1.9,0.4-3.8,0.7-5.6,1.4c-1.8,0.7-3.7,0.9-5.7,0.8c-2.1,0-4.2-0.3-6.2-0.7c-6.4-1.3-12.8-2.6-18.9-5.3c-2.5-1.1-5.3-1.7-7.7-3.2
		c-1.4-0.9-2.8-1.7-4-2.9c-0.9-0.9-1.9-1.4-3.2-1.6c-1.5-0.3-3.1-0.7-4.6-1.1c-5.4-1.5-8.8-5.9-8.4-11.5c0.2-3.2,0-6.4,0-9.7
		c0-0.3-0.1-0.5,0-0.8c0.2-1.2-0.3-2.9,1-3.6c1.8-0.9,3.7-1.7,5.8-0.7c5.3,2.5,10.1,5.5,12.5,11.3c0.3,0.7,0.7,1.4,1.2,2
		c3.4,3.4,6.5,7.1,10.4,9.9c4.5,3.3,9.3,4.4,14.8,2.4c3.1-1.2,6.3-2,9.6-2.4c2.6-0.3,5.1,0,6.9,2.2c0.5,0.6,1.1,0.7,1.9,0.7
		c1,0,2.1-0.1,3.1,0c2.7,0.2,4.8,1.9,5.5,4.5C425.9,556.3,425,558.6,422.7,560.2z M466.5,531.6c-0.9,1.5-1.2,2.7-0.1,4.2
		c1.2,1.7,1.6,3.6,1.3,5.7c-0.5,3.9-3.9,6.6-7.8,6c-1.2-0.2-2.1-0.1-3.1,0.7c-1.9,1.6-4.3,1.8-6.5,2.5c-1.4,0.4-2.9,0.8-4.3,1
		c-1.9,0.3-2.5-0.1-3.2-1.8c-0.3-0.7-0.7-1.2-1.1-1.8c-1.3-1.9-1.2-4,0.2-5.8c0.3-0.4,0.7-0.8,1.1-1.1c3.7-2.7,5.9-6.6,7.6-10.8
		c0.7-1.7,1.4-3.4,2.3-5c1.7-3,4.1-5.2,7.7-5.7c0.6-0.1,1.2-0.2,1.7-0.6c1.5-1.1,3-1.3,4.6-0.3c1.5,0.9,2.2,2.6,2.1,4.8
		C468.7,526.5,468,529.2,466.5,531.6z"/>
	<path class="st0" d="M654.6,462.7c-1.7-5.4-1.8-10.8-0.2-16.3c2.1-6.9,0.8-13.6-1.9-19.9c-4.1-9.4-9-18.4-16.3-25.8
		c-0.9-0.9-1.6-1.8-2.3-2.8c-2.3-3.3-5.1-6-8.3-8.3c-3.3-2.5-6.1-5.5-8.1-9.2c-2.2-3.9-3.9-8-5.4-12.2c-0.6-1.8-1-3.7-0.8-5.7
		c0.1-1.5,0.6-2.9,1.7-4c1.2-1.1,2.5-0.9,3.2,0.6c0.4,0.7,0.6,1.4,1.1,2c0.5,0.6,1.1,1.2,1.6,1.7c-2-3.2-4.4-6.1-6.9-9
		c-5.1-5.8-9.6-12-13.9-18.3c-3.5-5.1-7.5-9.6-12.4-13.4c-3.3-2.6-7-4.3-10.9-5.6c0.7,0.4,1.4,0.8,2.1,1.1c0.1,0,0.1,0.1,0.2,0.2
		c1.5,1.2,1.7,3.3,3.1,4.5c1.3,1.1,2.9,2,3.8,3.5c0.9,1.5,1.8,3.1,1.3,4.9c-0.3,1.2,0.1,2,0.8,2.9c2.1,2.6,1.9,5.3,0.6,8.1
		c-1.2,2.5-3.7,3.3-6.2,2.2c-1.5-0.7-2.5-1.9-3.5-3.1c-1.6-2-3.3-3.9-5.3-5.4c-1.7-1.4-2-1.3-3.2,0.5c-1,1.6-2.2,3-3.9,3.8
		c-2.8,1.2-5.2,0-5.1-3c0.1-3.5-1.5-6-3.4-8.8c-1.8-2.7-3.7-4.1-7.1-4.3c-2.7-0.1-4.7-2-5.4-4.7c-0.8-2.8,0.1-5.2,2.2-7.1
		c0.4-0.4,0.7-0.7,1.1-0.9c-3.1-2.2-6.4-4-9.9-5.3c-2.8-1-5.7-1.9-8.3-3.1c-8.1-3.8-16.6-4.5-25.3-3.4c-2.2,0.3-4.5,0.2-6.8-0.1
		c-3.2-0.4-6.4-0.8-9.6-0.6c-5.5,0.4-10.9,1.2-16.3,1.8c-5.8,0.6-11.3,2.2-16.6,4.4c-3.3,1.4-6.6,2.9-9.8,4.6
		c2.2-0.7,4.5-1.1,6.8-1.1c0.7,0,1.4,0.1,2.1,0.2c0.9,0.2,1.6,0.8,1.6,1.8c0,0.9-0.6,1.4-1.4,1.7c-0.6,0.2-1.2,0.3-1.8,0.4
		c-3.8,0.8-7,2.7-9.8,5.2c-2.4,2.2-3.8,4.8-3.5,8.1c0.2,2.7-0.6,5.1-2.4,7c-2.1,2.2-2.6,4.8-2.6,7.7c0,1.5,0.5,2.7,1,4
		c0.7,1.9,1.4,3.8,2.1,5.7c0.4,1.3,1.1,2.4,1.9,3.4c1.6,2,2.6,2,4.1-0.1c3-4.4,6.9-7.6,11.6-9.9c2.9-1.4,6-2.4,9.1-3.4
		c9-3,18.2-4,27.6-4.1c2.8,0,5.5,0.7,8.4,0.4c5.3-0.7,10.6-0.4,15.9,0.2c6.3,0.7,12.5,2.1,18.7,4.1c8.1,2.6,15,6.6,19.6,14
		c0.5,0.8,1,1.8,2.2,2.4c0.4-1.1,0.6-2,0.9-2.9c0.8-2.2,2.3-3.7,4.7-4c2.4-0.3,4.2,0.8,5.5,2.8c2.1,3.1,2.7,6.3,1.5,10
		c-1,2.8-2.5,5.2-4.2,7.5c-0.7,1-0.9,2-0.5,3.2c0.4,1.2,0.7,2.5,1,3.8c1.7,6.3,1.7,12.6-0.1,18.9c-1.1,3.8-2.6,7.4-3.8,11.1
		c-1,3.2-1.9,6.4-2.1,9.7c-0.2,3.7-0.5,7.5-0.9,11.2c-0.3,2.7-1.2,5.3-2.4,7.7c-2.6,5.3-6.6,9.4-11.6,12.5c-1,0.6-1.9,1.2-2.7,2.1
		c-3.6,4.1-7,8.3-12.1,10.7c-0.8,0.4-0.7,0.9-0.2,1.4c0.4,0.4,0.7,0.7,1.2,1.1c3.9,3,8,5.3,13.2,5c2.7-0.2,4.9,1.1,6.4,3.4
		c0.4,0.6,0.8,1.1,1.2,1.7c1.3,2,3.2,3.2,5.5,3.7c3.5,0.8,6.9,1.9,10.6,1c0.7-0.2,1.4-0.1,1.8,0.7c0.3,0.7-0.1,1.4-0.6,1.9
		c-0.6,0.6-1.2,0.9-2,1.3c-0.5,0.3-1.2,0.5-1.5,0.9c-2.6,3.2-6.4,3.7-10.1,4.3c-1.9,0.3-3.9,0-5.6-1.1c-3.1-1.9-6.6-2.8-10.2-3.1
		c-5.1-0.4-9.2-2.6-12.8-5.9c-1.7-1.5-3.6-2.4-5.6-3.3c-1.1-0.5-1.9-0.4-2.9,0.3c-2.1,1.5-4.5,2.1-7.2,1.9c-1.8-0.2-1.8-0.1-1.8,1.8
		c-0.1,8.1,0.3,16.3,1.6,24.3c0.6,3.8,1.6,7.5,3.5,10.9c1.2,2,1.8,4.2,2.1,6.4c0.2,1.2,0.5,2.2,1.2,3.2c3.4,5.3,6.4,10.8,9.4,16.4
		c2.4,4.6,5.4,8.8,9.2,12.4c3.9,3.8,8.1,7.2,12.5,10.4c3.9,2.8,8.1,4.4,12.9,4.4c2.4,0,4.7,0.4,7,0.9c4.4,0.9,8.1,3.2,11.7,5.8
		c5.5,4,11.6,5.9,18.5,5.4c3.2-0.3,6.4-0.5,9.7-0.8c2.5-0.2,5-1,7.3-1.9c7.8-3,14.4-7.5,19.6-14c1.7-2.1,3.4-4.2,5.1-6.4
		c1.1-1.5,2.1-3,2.9-4.7c1.3-2.8,2.2-5.7,1.6-8.9c-0.5-2.4,0.1-4.9,0.9-7.2c0.6-1.9,1.3-3.8,2-5.7c0.9-2.7,1.4-5.4,1.3-8.2
		c-0.2-8-1.2-15.8-5.5-22.9c-2.6-4.4-4.4-9.3-4.9-14.6c-0.4-4.6-0.7-9.2-1.1-13.9c-0.6-6.8-2.5-13.2-5.6-19.2
		c-0.4-0.8-0.9-1.4-1.7-1.9c-3.3-2.3-3.3-6.7-0.1-9c0.9-0.7,1.4-1.4,1.9-2.4c0.9-1.8,0.7-3.7,0.7-5.6c0.1-2.4-0.5-4.7-1.7-6.8
		c-1-1.7-1.9-3.5-2.6-5.5c-0.7-2.1-0.4-3.6,0.9-4.6c1.4-1.1,3-0.8,4.4,0c3,1.6,5.4,3.9,6.8,7c0.8,1.9,1.4,3.9,2.4,5.7
		c0.8,1.4,0.8,3,0.6,4.6c-0.7,4.1-0.3,8.2,0.7,12.2c0.6,2.5,1.3,5.1,1.9,7.6c1.3,5.5,1.4,11.1-0.1,16.6c-0.2,0.8-0.3,1.5-0.1,2.3
		c0.7,2,1.2,4,2,6c1.3,3.2,5.1,7.4,7.7,8.6c1.1-3.3,1.8-6.6,1.8-10C656.5,470.9,655.8,466.8,654.6,462.7z M557.7,546.1
		c-0.6,1-1.5,1.4-2.7,1.2c-0.6-0.1-1.2-0.2-1.8-0.4c-5.9-1.9-10.6-5.5-14.9-9.9c-2.4-2.5-3.6-6-3.8-10.5c0-1.5,0.9-3.6,1.9-5.8
		c0.7-1.4,1.6-1.5,2.6-0.2c0.5,0.7,0.9,0.9,1.6,1c2.4,0.3,3.9,1.7,5.1,3.7c0.9,1.6,1.5,3.3,2.1,5c1.5,4.6,4.2,8.4,7.9,11.4
		c0.5,0.4,0.9,0.8,1.3,1.2C558.1,543.9,558.3,544.9,557.7,546.1z M580.1,505.6c-0.7-2.9-1-5.8-0.9-8.8c0-1,0.1-1.9,0.7-2.7
		c0.8-1,2.2-1,2.4,0.2c0.3,1.5,1.2,2.7,1.6,4.1c1.3,4.5,5.5,7.8,10.2,8.2c0.8,0.1,1.6-0.1,2.3-0.4c1.8-0.8,3.6-1.7,5.5-2.5
		c3.1-1.4,6-1,8.4,1.4c0.9,0.9,1.7,1.4,2.9,1.3c0.4-0.1,0.9,0,1.3,0.2c1.5,0.8,2.7,0.3,3.6-1c0.1-0.1,0.1-0.1,0.2-0.2
		c0.7-0.6,1.3-1.3,2.3-0.6c0.8,0.5,0.7,1.3,0.6,2.1c-0.4,1.7-0.7,3.4-1.4,5c-0.4,1-0.4,1.8,0.1,2.7c1.3,2.4,0.7,4.6-0.9,6.5
		c-0.5,0.6-1.1,1.2-1.8,1.5c-4.2,1.9-8.2,4.3-12.7,5.5c-0.8,0.2-1.5,0.2-2.4,0.4c-2.2-0.4-4.1-0.9-5.3-3.1c-1.2-2.2-2.4-4.4-3.3-6.8
		c-0.5-1.6-1.6-2.7-3.3-3.1c-0.5-0.1-1-0.3-1.5-0.5C584,513.5,581.2,510.3,580.1,505.6z M629.4,532.8c0-0.1,0.2-0.3,0.4-0.5
		c0.9,0.5,0.9,1.4,0.9,2.2c0,11.9-2.9,22.5-12.5,30.4c-2.8,2.3-6,3.1-9.5,3.3c-2.4,0.1-4.9,0.1-7.3,0.6c-3,0.5-5.9,0-8.9-0.1
		c-0.9,0-1.7-0.1-2.6-0.1c-3.2,0.1-5.9-2.5-5.8-5.5c0.1-2.9,2.7-5,6.1-4.8c0.2,0,0.4,0,0.5,0.1c2.3,1.2,4.1,0.2,6-1
		c2.5-1.5,5.2-2,8.1-1.4c1.9,0.3,3.8,0.7,5.6,1.1c2.5,0.6,4.9,0.4,7.2-0.7c4.7-2.1,8.2-5.3,9.5-10.5
		C628.1,541.6,629.4,537.3,629.4,532.8z M628.2,471.1c0.5,1.6,0.6,3.3,0.7,4.9c-0.2,1.7-0.2,3.5-0.7,5.2c-0.7,2.3-2,4.1-4.4,4.9
		c-0.1,0-0.2,0-0.2,0.1c-3.1,3-7,2.5-10.8,2.6c-2,0-3.8-0.4-5.5-1.3c-1-0.6-2-0.9-3.2-1.1c-3.5-0.3-6.8-1.4-9.9-3.2
		c-1.2-0.7-2.5-1.1-4-0.9c-1.6,0.2-2.9-0.3-4-1.5c-0.5-0.5-0.9-1-1.6-1.3c-4.9-1.8-7.9-5.8-11.2-9.6c-0.2-0.2-0.3-0.4-0.4-0.7
		c-0.4-0.7-0.7-1.5-0.1-2.2c0.6-0.7,1.4-0.7,2.2-0.3c1.6,0.8,3.1,1.6,4.6,2.5c1.8,1,3.5,1.8,5.6,2.1c2.5,0.3,4.7-0.2,6.7-1.7
		c2.1-1.6,4.3-2.3,6.8-2.2c3.8,0.1,7.4-0.9,10.9-2.3c2.6-1.1,5.3-1.8,8.1-1.8C623.4,463.1,626.7,465.6,628.2,471.1z"/>
	<path class="st0" d="M550.5,374c1.5-0.6,2.3-2.3,1.8-3.6c-1.5-3.9-3.3-7.7-6.6-10.6c-5-4.2-9.9-8.5-15.6-12
		c-3.2-1.9-6.3-3.8-9.9-4.6c-3-0.7-6.1-0.6-9.1-0.9c-2.3-0.2-4.6,0.1-7-0.2c-4.5-0.5-9.1-0.6-13.6,0c-2.2,0.3-4.5,0.4-6.7,0.3
		c-3.3-0.2-6.4,0.2-9.6,0.8c-3.7,0.8-6.9,2.8-10.1,4.8c-5.9,3.6-11,8-16.1,12.6c-3,2.7-4.5,6.4-5.9,10.1c-0.5,1.4,0.7,2,1.4,2.8
		c0.7,0.7,1.4,0.3,2.1-0.1c1.2-0.7,2.2-1.6,3.1-2.8c4-5.3,8.7-9.7,15.1-12.2c3.7-1.4,7.1-3.4,11.2-3.4c0.3,0,0.7-0.1,1-0.3
		c4.3-1.5,8.8-1.4,13.2-0.9c2.7,0.3,5.3,1.3,8,1.3c2.6,0,5.3-1,8-1.3c4.8-0.5,9.6-0.7,14.2,1.3c4.3,1.9,8.6,3.9,12.6,6.5
		c0.6,0.4,1.2,0.7,1.8,1c2.9,1.1,5.4,3,7.2,5.5c1.6,2.1,3.8,3.6,5.3,5.8c0.4,0.6,1,0.7,2.2,0.6C548.8,374.4,549.7,374.3,550.5,374z"
		/>
	<path class="st0" d="M497.2,520.8c-0.1,0.1-0.3,0.1-0.4,0.3c-0.2,0.3-0.3,0.6-0.4,1c-2.5,8.1-6.1,15.8-10.4,23.1
		c-1.6,2.7-2.4,5.3-2.3,8.4c0.1,4.8-0.9,9.4-3.5,13.5c-0.1,0.2-0.1,0.5-0.2,1.1c2.9-1.1,5.8-1.2,8.5-2.1c2.9-0.9,5.8-1.2,8.8-1.1
		c9.3,0.2,18.5,1,27.4,3.7c0.9,0.3,1.9,0.4,2.8,0.3c0.5-0.1,1.1-0.1,1.2-0.7C512.1,556.4,501.1,540.9,497.2,520.8z"/>
	<path class="st0" d="M345.8,265.8c1.2-0.9,2.5-1.4,4-1.4c1.1,0,2.3,0.1,3.4,0.1c2.4,0,3.9,1.8,5.7,3c0.3,0.2,0.4,0.8,0.3,1.2
		c-0.3,1,0.1,1.9,0.1,2.8c0.3,4.2,2.5,7,6.2,8.7c0.9,0.4,1.8,1,2.7,1.6c4.9,3.1,11.6,2.7,16.2-0.8c1.9-1.4,3.7-2.9,5.6-4.3
		c2.5-1.9,3.6-4.6,4.9-7.4c-1.7-0.2-3,0.4-4.3,0.7c-2.7,0.6-5.3,0.9-8,0.9c-5.8,0-10.5-2.4-14.3-6.6c-0.8-0.9-1.6-1.9-2.3-2.9
		c-1.6-2.1-3.4-3.7-6-4.4c-0.3-0.1-0.7-0.2-1-0.4c-2.5-1.2-3.5-3.5-2.2-5.8c4.4-7.7,8.5-15.5,16.3-20.5c2.8-1.8,5.7-3,8.9-3.6
		c1-0.2,2-0.4,3.2-0.6c-1-2.3-2.1-4.3-2.8-6.6c-0.2-0.6-0.7-0.7-1.3-0.6c-2.2,0.5-4.5,0.8-6.3,2.4c-3.2,2.6-6.7,4-10.9,3.4
		c-1.2-0.2-2.2,0.3-3.2,1c-1.9,1.3-3.6,2.8-4.7,4.8c-1.6,2.7-3.1,5.5-3.8,8.6c-0.2,1-0.5,2-1.8,1.8c-1.2-0.1-1.5-1.1-1.6-2.1
		c-0.2-1.4-0.1-2.8,0.2-4.2c0.9-4.2,2.4-8.2,4.5-11.9c-0.1,0.1-0.3,0.2-0.4,0.3c-0.7,1.1-1.8,1.9-2.6,2.9c-0.3,0.3-0.5,0.7-0.7,1.1
		c-3.6,6.8-4.8,13.8-2.4,21.2c1,3.1,1.2,5.7-0.6,8.6C345.1,259.8,344.7,262.9,345.8,265.8z"/>
	<path class="st0" d="M635.4,256.7c-0.3,0.1-0.6,0.3-1,0.4c-2.4,0.6-4.2,2.1-5.7,4c-0.8,1-1.6,2.1-2.5,3.1
		c-3.8,4.3-8.4,6.7-14.2,6.7c-2.7,0-5.4-0.3-8.1-0.9c-1.8-0.4-3.6-1.1-6.1-1.2c4.3,3.7,8.9,5.5,14,5.4c4.2-0.1,8.2,0.2,12.2,1
		c3.9,0.7,7.5,0,11-1.4c2-0.8,3.6-2,4.8-3.9c0.8-1.3,1.6-2.5,2.8-3.4c1.3-1,2.5-0.9,3.5,0.3c1-1.4,1.9-2.9,2.6-4.5
		c1.6-3.3,2.3-6.8,1-10.4c-0.9-2.3-1.7-4.6-2.9-6.7c-3.2-5.8-7.1-11.1-11.6-15.8c0.2,0.9,0.5,1.7,0.7,2.6c0.2,0.7,0.5,1.8-0.5,2.1
		c-1.1,0.3-1.1-0.9-1.4-1.5c-1.8-4.6-5.1-7.6-10-8.8c-1.1-0.3-2.2-0.7-3.2-1.1c-3.2-1.3-6.4-1.5-9.8-0.7c-1.3,0.3-2.5,0.9-3.8,1
		c-2.3,0.3-3.5,1.9-5.1,3.6c1.3,0.6,2.4,0.5,3.5,0.3c5.8-0.9,11,0.8,15.9,4c7.6,4.9,11.6,12.6,15.9,20.1
		C639.1,253.2,638,255.5,635.4,256.7z"/>
</g>
<g>
	<path class="st1" d="M392.4,242.4c-0.6-2.2-1.5-3.9-4.2-3.6c-0.4,0.1-0.9-0.1-1.2-0.3c-1.4-0.7-2.1,0.1-2.7,1.2
		c-0.7,1.5-1.1,3.1-1.1,5.5c-0.1,1.8,0.9,3.7,3.3,4.7c2.4,1.1,4.6,0.6,6.7-0.8c1-0.7,1.2-1.7,0.8-2.8
		C393.4,245,392.7,243.7,392.4,242.4z"/>
	<path class="st1" d="M366.6,249.8c-0.1,0.7-0.1,1.3,0.3,1.7c1.4,1.8,3.1,3.3,5.9,4c-2.8-5.6-1.7-10.5,1.3-15.3
		C370.9,241.8,367.2,246.6,366.6,249.8z"/>
	<path class="st1" d="M608.4,235.4c-3.4-0.2-3.9,0.3-3.8,3.3c0.1,1.2,0.3,2.4,0.8,3.6c1.2,2.9,4.9,4.8,7.9,3.9
		c1.6-0.5,2.3-1.4,2.2-3.1c-0.1-1.4-0.7-2.5-1.3-3.7C612.9,236.8,611.4,234.7,608.4,235.4z"/>
	<path class="st1" d="M628.1,250.2c-0.5-1.8-1.1-3.5-2.7-5.1c-0.5,4.1-2.5,7.2-4,10.8c2.6-0.6,4.3-2.1,5.9-3.6
		C627.9,251.7,628.3,250.9,628.1,250.2z"/>
</g>
<g>
	<path class="st2" d="M486.5,629.5c0.2-2.1,0.5-4.2,0.7-6.2c0.4-3.1-0.2-6.1-1.7-8.9c-0.8-1.5-1.7-3.1-2.6-4.6
		c-0.7-1.3-1.4-2.6-1.6-4.1c-0.1-1.1-0.6-2-1.1-2.9c-1.8-3.2-3.8-6.3-4.5-10c-0.1-0.7-0.7-1.2-1.2-1.7c-1.4-1.5-3.2-2.1-5.2-2.3
		c-5.1-0.3-10.1-0.8-15.2-0.5c-3.8,0.3-7.7,0.3-11.5,0.2c-0.8,0-1.7,0.1-2.3-0.3c-1.9-1.2-3.9-0.6-5.8-0.3
		c-5.1,0.8-10.2,1.6-15.4,0.7c-2.1-0.4-4.1-0.7-6.1-1.4c-1.1-0.4-1.6,0-2,1c-1,2.5-1.3,5.1-0.5,7.7c1.8,6.2,3.8,12.4,7.2,17.9
		c0.1,0.1,0.1,0.2,0.2,0.3c0.2,0.1,0.4,0.3,0.5,0.4c6.9,4.5,14.5,5.8,22.5,4.6c2.8-0.4,5.4-0.3,7.8,1.3c2.7,1.9,5,4.3,7.3,6.8
		c0.9,0.9,1.6,2.1,2,3.4c1,3.7,1.7,7.5,1.7,11.3c0,1.7-0.3,3-1.7,4.2c-1,0.8-1.8,1.9-2.8,2.7c-0.7,0.6-1.1,1.3-1.3,2.1
		c3.6-1.1,7-2.6,10.4-4.4c6.3-3.4,12.8-6.4,19.9-8.1c0.8-0.2,1.5-0.5,2.2-0.7c0.9-0.3,1.4-0.7,0.8-1.7
		C486,634.1,486.2,631.8,486.5,629.5z"/>
	<path class="st2" d="M383.6,588.9c0-2.4-0.3-2.3-2.6-2.1c-5.9,0.7-11.6-0.2-17.2-2.6c-7.3-3.1-13.4-7.9-18-14.4
		c-3.9-5.4-7.7-10.8-11.8-16.1c-4.7-6.2-8.6-13-11.9-20c-4.7-10-6.2-20.4-3.3-31.1c1.7-6.5,1.7-13.1,1.5-19.8c0-1-0.4-1.7-1.3-2
		c-0.6-0.2-1.1-0.5-1.7-0.7c-5.3-1.5-10.3-3.9-15.3-6.1c-6.3-2.8-11.7-6.5-16.1-11.8c-0.3-0.4-0.6-1.1-1.5-0.8
		c-0.1,0.2-0.2,0.5-0.2,0.7c-1.4,8.7,0,16.9,4.8,24.4c2.5,3.8,5,7.6,7.5,11.4c3,4.7,5,9.8,6,15.3c0.4,2.2,0.7,4.5,1,6.7
		c0.8,5.8,2.6,11.2,5.6,16.2c3.6,6,7.4,11.8,12.2,17c2.1,2.3,3.9,4.7,5.5,7.3c1,1.7,0.8,3.2-0.2,4.4c-1.1,1.2-2.6,1.4-4.3,0.6
		c-0.9-0.4-1.7-0.9-2.6-1.4c0.2,0.4,0.5,0.7,0.7,1c1,1.2,2.1,2.4,3.3,3.3c2.3,1.8,4.3,3.8,6,6.1c2.2,2.8,4.1,5.8,6.7,8.4
		c1.6,0,3.2,0.7,4.5,2.2c0.7,0.8,0.6,1.8-0.6,2c-2.8,0.6-3.3,2.8-3.8,5c-1.6,6.4-2.3,12.9-1.7,19.5c0.4,4.7,2.3,8.8,5.4,12.3
		c1,1.2,2.2,2.3,3.2,3.4c1.5,1.6,3,3.1,4.5,4.8c1.1,1.3,2.1,2.6,3,3.9c0.1,0,0.1,0,0.2-0.1c0,0.1,0,0.2-0.1,0.3
		c4.3,6.5,5.9,13.8,4.7,22c-0.1,0.7-0.2,1.4-0.3,2.2H389c1.3-7,1.3-14.1,0.3-21.3c-0.9-7.3-2.9-14.5-3.9-21.8
		c-0.3-2.5-0.1-3.5,2.2-4.7c1.9-1,3.7-1.9,5.7-2.7c1.8-0.7,3-1.8,3.6-3.2c-2.9-2-5.7-4.1-8.2-6.7
		C385.7,596.9,383.6,593.3,383.6,588.9z"/>
	<path class="st2" d="M686.3,567.7c-0.4-0.6-0.7-1.2-1.5-1.4c-2.6-0.8-3.9-2.8-5.2-4.9c-3.9-5.7-0.3-13.1,4.4-14.9
		c1.1-0.4,1.7-1,2.2-1.8c0.6-4-0.1-8-2.7-12c-0.8-1.2-1.1-2.6-0.8-4c0.3-1.7,0.4-3.5,0.7-5.2c0.7-4.8,0.8-9.7,0.1-14.4
		c-0.7-5.1-0.8-10.2-0.9-15.4c0-1.6,0.5-2.9,1.6-4c1.5-1.5,2.5-3.3,3.2-5.4c1.8-5.3,2.3-10.7,2-16.2c0-0.8-0.3-1.5-0.5-2.3
		c-0.2-0.6-0.5-1.1-0.8-1.6c-1.7,1.5-3.4,3-5,4.5c-3,2.9-5,5.9-5.7,10.2c-0.9,6.3-5.5,8.9-11.6,7.2c-0.9-0.2-1.3-0.1-1.7,0.6
		c-1,1.7-1.9,3.3-2.9,5c-0.5,0.8-0.5,1.4-0.1,2.2c2.3,4.6,2.5,9.6,2,14.6c-0.1,1.3-0.3,2.6-0.3,3.9c0.1,7.9-1.1,15.5-4.5,22.7
		c-0.6,1.3-0.7,2.6-0.4,4.1c0.9,3.8,0.5,7.5-0.9,11.1c-3,7.8-6.9,15.1-12.7,21.2c-3.1,3.3-6.3,6.3-9.9,9c-1,0.7-1.4,1.4-0.6,2.5
		c0.7,1,1,2.2,1.2,3.4c0.5,3.2,1,6.4,1.4,9.6c0.2,1.8,0.2,3.6,0.1,5.3c1.4,0.6,2.7,1.5,3.8,2.6c1.4,1.3,1.8,2.6,1.2,4.5
		c-0.6,2-1.2,4.1-1.3,6.1c-0.3,5.7-0.2,11.3,1.4,16.9c2.1,7,3.6,14.2,2.8,21.6c-0.1,0.6,0.1,1.2,0.1,1.8c0.1,0.8,0.2,1.6,0.2,2.4
		c0.4-0.3,0.7-0.7,1.1-1c0,0,0.1-0.1,0.1-0.1c0.2-0.3,0.4-0.6,0.7-0.9c2-2.6,3.8-5.4,5.7-8.1c0.5-0.8,1.1-1.6,1.6-2.3
		c0.2-0.3,0.4-0.6,0.5-0.9c0.5-0.8,1.1-1.6,1.7-2.4c0-0.1,0.1-0.1,0.1-0.2c2.5-3.5,5-7,7.6-10.4c1-1.3,2.1-2.6,3.1-3.9l1.6-1.9
		l0.8-0.9c0.3-0.3,0.6-0.6,0.8-0.9l1.7-1.9c0.6-0.6,1.2-1.2,1.7-1.8c1.1-1.2,2.4-2.4,3.6-3.5l0.5-0.4l0.5-0.4l0.9-0.8
		c0.6-0.6,1.2-1.1,1.9-1.7l1.9-1.6l1-0.8c0.3-0.3,0.7-0.5,1-0.8l2-1.5l0.5-0.4l0.5-0.4l1-0.7l2.1-1.5l2.1-1.4c1.6-1,3.3-2,4.9-3
		c0.1-4.7-0.7-9.5-2.5-14.3C693.1,579.9,689.9,573.7,686.3,567.7z"/>
	<path class="st2" d="M615.6,597.5c-1.1-1.5-2.1-3-2.5-4.8c-0.5-2-0.6-2-2.6-1.6c-7.4,1.3-14.8,1-22.2-0.4c-5.1-1-9.9-2.8-14.3-5.7
		c-0.6-0.4-1.1-0.9-2-1c-0.2,0.8-0.4,1.6-0.6,2.5c-0.7,2.6-1.4,5.2-3,7.5c-0.5,0.6-1,1.2-1.5,1.7c0.4,0.6,0.8,1.2,1.1,1.9
		c1.6,5.2,5.4,8.3,10.2,10.2c2.6,1,3.3,2.9,3.7,5.2c0.1,0.9,0,1.7,0.1,2.6c0.5,5.8,2.7,11,6.3,15.5c2.1,2.6,4.4,4.9,7,7
		c4.7,3.8,9.8,5.8,16,4.1c3.3-0.9,6.9-5.3,6.4-8.6c-0.2-1.2-0.2-2.4-0.1-3.5c-5.1-5.6-5.8-14.3-0.9-20.7c0.6-0.8,1.3-1.7,2.1-2.4
		c0.9-0.9,1-1.7,0.5-2.8C618.2,601.6,617,599.5,615.6,597.5z"/>
	<path class="st2" d="M298,599.2c-2.2-5-1.6-10.3-0.5-15.4c0.8-4,2-7.9,3-11.9c1-4,1.4-7.9-0.8-11.7c-0.3-0.5-0.5-1.1-0.5-1.8
		c0.1-3.7-0.9-7.2-1.6-10.7c-1.6-1.9-3-4.1-4.2-6.4c-3.3-6.6-5.4-13.4-5.8-20.8c-0.1-1.8-0.3-3.7-0.5-5.5
		c-0.5-5.7-3.2-10.5-6.1-15.2c-0.3-0.6-1-1-1.5-1.5c-4.9-4.4-8.7-9.4-11.2-14.9c-0.5,0.6-1,1.4-1.4,2.4c-0.4,1.2-0.7,2.5-0.8,3.8
		c-0.1,2.2,0.3,4.4,0.7,6.5c1.4,7.1,3.2,14.1,3.7,21.3c0.2,2.8,0.4,5.5-0.2,8.3c-1.5,6.9-3.8,13.4-7.8,19.3
		c-2.6,3.8-5.9,6.6-10.3,8.1c-2.4,0.8-4.8,1.6-7.1,2.6c-4.4,1.9-8.1,4.7-10.2,9.3c-1.7,3.6-2.5,7.2-2.4,11.3
		c-0.2,2.8,0.5,5.5,1.2,8.3c1.9,0.1,3.8,0.3,5.7,0.5c6.7,0.7,13.3,1.9,19.8,3.4l2.4,0.6l0.6,0.1l0.6,0.2l1.2,0.3l2.4,0.7
		c0.4,0.1,0.8,0.2,1.2,0.3l1.2,0.4l2.4,0.8l1.2,0.4c0.4,0.1,0.8,0.3,1.2,0.4l2.4,0.9l1.2,0.4c0.4,0.1,0.8,0.3,1.2,0.5
		c6.3,2.5,12.3,5.6,17.9,9.3l2.1,1.4l2.1,1.5l1,0.7l0.5,0.4l0.1,0.1c-0.1-0.2-0.2-0.4-0.4-0.6C300.5,604.6,299.2,601.9,298,599.2z"
		/>
	<path class="st2" d="M511.6,153.6c0.8,1.1,0.9,2.4,1,3.7c0.1,1.2,0.4,2.2,0.8,3.3c0.4-0.3,0.8-0.7,1.1-1.1c1.1-1.2,1.7-2.4,1.4-4.2
		c-0.5-3.3,0.3-6.6,1.7-9.7c2.1-4.6,5.1-8.5,9-11.8c3.1-2.6,6.7-4,10.7-4.3c6-0.4,11.6,0.6,16.8,3.9c3.4,2.2,7.1,3.8,10.8,5.3
		c0.7,0.3,1.5,0.6,2.2,0.7c9.9,2,19.7,4.5,29.6,6.8c0.8,0.2,1.7,0.3,2.5,0.5c0.7-0.5,1.5-1,2.4-1.4c2.7-1,4.7-2.9,6.7-4.9
		c0.4-0.4,0.9-1,0.4-1.6c-0.4-0.5-1-0.1-1.4,0.1c-1.7,1-3.3,1-4.9-0.3c-0.6-0.5-1.4-0.8-2.1-1c-2.7-0.6-4.7-2.2-6.5-4.2
		c-2.4-2.6-4.9-4.9-8.1-6.5c-1-0.5-1.8-1.3-2.7-2.1c-3.3-2.8-5.2-6.5-7.3-10.1c-1.5-2.5-3.1-4.9-5.1-6.9c-2.1-0.5-4.3-1-6.4-1.5
		c-3.2-0.7-6.4-1.1-9.6-0.7c-10.7,1.6-21.2,3.6-31.1,7.9c-0.8,0.3-1.6,0.7-2.5,0.9c-0.4,0.1-0.8,0.1-1.2,0c-1.4,2.3-2.5,4.7-2.6,7.6
		c-1.2-0.1-1.8-0.7-2.4-1.1c-2-1.3-4.2-2.1-6.7-2c-1.2,0.1-2.4,0-3.7,0c-0.9,0-1.7-0.1-2.5-0.7c-4.5-3.2-8.2-7-8.8-13
		c-0.3-2.9-0.9-5.9-2.4-8.5c-2.2-4.1-7.6-5.8-11.2-3.5c-2.5,1.6-3.4,4.1-3.7,6.9c-0.3,3.1-0.1,6.3,0.7,9.4c0.7,3,1.1,6.2,3.1,8.8
		c0.5,0.7,0.3,1.3,0,1.9c-1,1.9-2,3.9-2.3,6.1c-0.1,0.5-0.4,1-0.7,1.4c-2.6,3.3-6.2,4.8-10.3,5.5c-2.3,0.4-3.3-1.6-5-2.3
		c-0.7-0.3-1.4-0.8-2.1-1.1c-1.6-0.5-3.3-1.2-5.1-0.4c-3.1,1.4-6.1,3.1-9,4.9c-3.2,2-4.8,5.4-5.6,9.1c-0.7,3.6,1,6.9,4.5,8
		c3,1,5.5-0.1,7.7-1.9c2-1.6,3.6-3.6,4.6-5.9c0.6-1.4,1.5-1.9,2.9-1.5c2.1,0.6,4.2,0.5,6.2,0.4c1.9-0.1,3.3,0.6,4.7,1.9
		c2.4,2.3,4.1,5.2,6,7.9c2,2.8,4.5,4.7,7.7,5.7c2.2,0.7,4.8,0.8,6.8-0.6c1.8-1.3,3.9-1.9,5.9-2.6c1.3-0.4,2.6-1,3.8-1.8
		c1.5-1.1,3.3-1.6,5.1-1.9C507.9,151,510.1,151.6,511.6,153.6z"/>
	<path class="st2" d="M679.6,316.8c0.9-5.6,2-11.2,0.8-16.8c-0.4-2.2-0.9-4.5-2.5-6.2c-2.1,4.5-4.8,8.6-8,12.4
		c-2.3,2.8-4.5,5.6-6.3,8.7c-2.8,4.7-3.7,9.5-1.2,14.7c3.4,7,3.8,14.3,1.3,21.7c-0.6,1.8-1.2,3.6-1.9,5.5c-1,3-2.1,5.9-3,8.9
		c-2,6.1-2.6,12.5-2.2,18.9c0.2,3,0.4,5.9,0.6,8.9c0.1,1.7,0.3,3.5-0.4,5.2c-0.6,1.5-0.2,2.8,0.3,4.3c3,7.7,6.2,15.4,8.3,23.5
		c1.5,5.8,1.9,11.7,0.5,17.6c-0.1,0.6-0.4,1.3,0.1,2.2c2.2-3.1,4.4-5.9,7-8.4c1.7-1.7,3-3.6,3.9-5.8c3.4-8.1,4.7-16.4,3.2-25.1
		c-0.4-2.2-0.8-4.3-1.1-6.5c-0.4-3-0.6-6-0.5-8.9c-1.3,1.3-2.5,2.5-3.8,3.8c-1.1,1.1-1.3,1-2.1-0.4c-1.6-3.1-2.6-6.4-2.8-10
		c-0.2-2.5,0.1-5,0-7.5c-0.1-5.7,0.9-11.3,2.3-16.8c1.2-4.7,2.4-9.4,3.2-14.2c0.9-5.4,1.7-10.8,1.4-16.4c0-0.9-0.1-1.7,0.2-2.6
		C678.4,324,679,320.4,679.6,316.8z"/>
	<path class="st2" d="M327.1,337c1.7-4.8,2.8-9.7,3.2-14.8c0.2-3,0.2-6.1,1.4-9c0.3-0.8,0-1.5-0.4-2.2c-2-3.7-3.4-7.7-4.8-11.6
		c-1.6-4.4-3.6-8.5-6.2-12.4c-2-3.1-3.8-6.3-5.1-9.7c-1.5-3.8-2.2-7.7-1.7-11.8c0.1-0.9,0.3-1.7,0.4-2.6c0,0-0.1,0-0.1,0
		c-0.7,0.5-1.3,1.2-1.6,2c-0.5,1.3-1.2,2.5-1.6,3.8c-2.6,7-2.6,13.8,1.2,20.4c3.1,5.2,5.5,10.7,8.7,15.8c1,1.7,1.6,3.5,1.3,5.5
		c-0.3,2-0.5,4-1.2,5.9c-2.6,8.3-6,16.4-9.2,24.5c-1.8,4.6-3.9,9.1-6.8,13.2c-1.3,1.9-2.7,3.7-5.4,3.5c-0.6,0-1.3,0.1-1.9,0.4
		c0.2,6.5,1.4,13,3.7,19.4c3,8.5,6.2,16.9,8.8,25.5c2.5,8.3,4.7,16.7,7.8,24.7c0.4,0.9,0.5,2,1.3,2.7c0.5-0.3,0.5-0.7,0.5-1
		c-0.2-6.1,0.9-12,3-17.7c2.2-6,3.5-12,3.7-18.4c0-0.5,0.1-1,0.2-1.6c0.8-5.3,1.1-10.6,0-15.9c-0.7-3.3-1.3-6.7-2.2-10
		c-1.5-5.5-1.6-11-0.4-16.6C324.5,345,325.7,341,327.1,337z"/>
	<path class="st2" d="M622.2,83.4c3.3,4,7.1,7.7,10.6,11.6c6.4,6.9,11.8,14.5,15.6,23.2c0.4,1,1.3,1.5,1.5,2.7
		c0.4,3.2,1.6,6.3,2.5,9.3c0.6,1.8,1.4,3.7,3,4.9c5.7,4.2,10.7,5.2,16.6,1.2c0.9-0.6,1.8-1.3,2.7-2c4-3.2,8-6.5,12-9.8
		c3.1-2.6,6.3-5,10-6.7c4.1-2,7.3-5,10.2-8.4c1.8-2.2,2.8-4.6,3-7.4c0.2-2.6,0.1-5.2-0.2-7.8c-4.3-2.9-9-3.2-13.8-1.7
		c-5.8,1.8-10.8,4.9-14.9,9.3c-2.5,2.7-5.6,4.1-8.9,5.2c-1.3,0.4-2,0.2-2.9-0.9c-1.6-2.1-3.4-4-5.8-5.2c-4.1-2.1-8.1-4.5-12.2-6.6
		c-6.1-3-12.5-5.2-19-7.5c-2.6-0.9-4.7-2.3-6.2-4.5c-1.4-1.9-3.2-3.5-5.1-4.9c-0.5-0.4-1.1-0.6-1.7-0.8c0.3,0.8,0.5,1.6,0.7,2.4
		C620.6,80.7,621.2,82.1,622.2,83.4z"/>
	<path class="st2" d="M279.7,116.1c2.6,4,4.8,8.3,6.7,12.8c2,4.7,3.6,9.6,5,14.6c1.3,4.6,4.2,8.2,7.5,11.5c0.2,0.2,0.3,0.3,0.5,0.4
		c1.4-0.1,2.7-0.4,4-0.9c1.1-0.8,2-1.8,2.6-3c1-1.8,1.9-3.6,2.7-5.4c2.4-5,4.8-10.1,7.9-14.8c3.8-5.8,8.1-11.2,14.4-14.6
		c7.1-3.9,13.2-9.1,19-14.7c4-3.9,7.5-8.2,10.2-13.2c0.1-0.2,0.2-0.4,0.3-0.5c-0.1-0.3-0.3-0.5-0.6-0.7c-0.8-0.4-1.3,0.1-1.8,0.6
		c-1.2,1.2-2.5,2.5-3.7,3.7c-0.6,0.5-1.1,1.2-1.8,1.6c-4.7,2.9-9.7,4.9-15.3,5.6c-6.9,0.8-13.8,1.9-20,5.5c-3.2,1.9-6.3,3.7-9.3,5.8
		c-5.6,4-11.6,3.6-17.7,1.4c-2.3-0.8-4.4-2-6.7-2.8c-2.1-0.7-4-0.7-5.5-0.1c-0.8,1.6-0.8,3.2,0.2,4.8
		C278.6,114.3,279.1,115.2,279.7,116.1z"/>
	<path class="st2" d="M416.4,270.9c3.6-2.5,7-5.2,10.9-7.3c1-0.5,2-1,1.1-2.6c-0.5-0.8-0.1-1.9,0.1-2.8c0.1-0.4,0.2-0.8,0.3-1.2
		c-1.5-1.2-3.5-1.8-5.4-0.9c-1.6,0.7-3.1,1.4-4.7,2.1c0,0.4-0.1,0.7-0.2,1.1c-0.6,2.1-1.9,3.6-3.9,4.3c-1.4,0.5-2.3,1.4-3.3,2.4
		c-1.8,1.9-3.9,3.5-5.6,5.5c-1.7,1.8-3.3,3.7-4.5,5.8c-1.7,2.9-4,5.3-6.7,7.3c-0.7,0.5-1.4,1-2.1,1.6c-4.9,4.5-10.9,6.4-17.4,6.9
		c-0.3,0-0.6,0-0.9,0c-1,2.6-1.5,5.3-1.9,7.9c-0.8,4.2-1.9,8.1-4.5,11.6c-5,6.9-9,14.3-12.3,22.1c-2.7,6.3-3.3,12.8-2,19.5
		c0.1,0.7,0.5,1.4,0.9,2c0.2-0.1,0.4-0.1,0.5-0.2c1.3-0.6,2.3-1.4,3.1-2.7c2.8-4.6,4.5-9.6,6.3-14.7c1.3-3.6,2.9-6.9,4.9-10.1
		c2.3-3.9,5.5-7,8.4-10.3c4.4-4.9,9.9-7.6,16.2-8.9c1-0.2,1.5-0.6,1.8-1.5c0.6-2.4,1.5-4.7,1.9-7.1c0.9-6.4,3.1-12.2,7.2-17.2
		c0.8-1,1.5-2.1,2.3-3.2C409.4,276.7,412.6,273.5,416.4,270.9z"/>
	<path class="st2" d="M548,591.8c-2.4-2.8-5.5-4.2-9.1-4.8c-1.9-0.3-8,2.2-8.8,2.4c-1.7,0.5-3.3,1-5,1.4c-5.2,1.2-10.4,2.2-15.5,3.7
		c-2.5,0.7-2.5,0.7-2.3,3.4c0.2,2.3,0.4,4.5,0.6,6.8c0.6,7,3.8,13,6.9,19.1c0.1,0.2,0.3,0.4,0.4,0.6c0.8,1.3,1.8,1.7,3.3,1.1
		c1.5-0.6,3.2-0.9,4.7-1.6c4-1.7,8-2.4,11.9-1c0-0.7-0.1-1.5-0.2-2.2c-0.5-2.8-0.7-5.5,0.9-8.1c2.7-4.3,6.1-7.8,10.4-10.4
		c2.1-1.3,4-2.8,5.2-5c0.2-0.4,0.4-0.7,0.6-1.1C550.6,594.7,549.3,593.2,548,591.8z"/>
	<path class="st2" d="M724.9,329.7c-0.3-3.2-0.6-6.4-0.9-9.7c-0.2-1.8-0.4-3.7-0.6-5.5c-0.2-0.6-0.3-1.2-0.4-1.8c0-0.5,0-1-0.1-1.4
		c-0.6-4-1.4-8-2.8-11.8c-3.6-10-7.3-20-11.3-29.8c-0.9,2.4-1.9,4.7-3.4,6.8c-0.5,0.7-1.2,1.7-2.1,1c-1.6-1.2-3.3-0.9-5-0.8
		c-4.2,0.1-7.8,3.7-7.9,7.8c-0.1,2.1,0.2,4,1.3,5.8c0.8,1.3,1.1,2.7,0.6,4.2c-0.5,1.4-0.3,2.7,0.1,4.1c0.9,3.1,2.6,5.7,4.7,8
		c3.7,4,7.6,7.9,11.4,11.9c2.2,2.4,3.9,5,4.7,8.3c0.8,3.3,1.2,6.7,2,10c1.7,7,2.5,14.2,2.5,21.5c0,0.7,0,1.4,0,2.1
		c0.8-2.6,1.8-5.2,3-7.8C724.3,345.5,725.6,337.7,724.9,329.7z"/>
	<path class="st2" d="M409.3,200.6c0.9-0.7,1.9-1.3,2.7-2c0.5-0.4,1-0.8,0.6-1.5c-0.3-0.6-0.9-0.7-1.6-0.7c-0.3,0-0.7,0-1,0.1
		c-4.4,1-7.9,3.3-10.1,7.2c-2.1,3.7-1.5,9.1,1.6,11.2c2.9,2,6,3.7,8.9,5.8c2.9,2.1,6.3,1.7,9.5,0.5c2.2-0.8,4-0.5,5.9,0.7
		c2,1.2,4.1,2.5,6.5,2.8c6.1,0.5,11.8-0.6,17.1-3.8c1.2-0.8,2.5-1.7,2.9-3.2c0.5-1.5,1.6-2.4,2.6-3.5c2.4-2.3,4.9-4.7,5.8-8.2
		c0.9-3.6,1.1-7.1,0.6-10.8c-0.6-4.6-2.5-8.3-6-11.2c-3.1-2.6-9.3-3-11.1,2.3c-0.3,0.9-0.3,1.7-0.4,2.6c-0.2,2-0.6,3.9-1.8,5.6
		c-2.2,3.2-5.2,5.1-8.8,6.1c-3.8,1.1-7.7,1.4-11.5,2.2c-2.1,0.5-4.1,0.7-6.2,0.1c-1.1-0.3-2.2-0.1-3.4,0.2c-2.4,0.6-4.2,1.9-6,4.5
		C406.2,204.2,407.3,202.2,409.3,200.6z"/>
	<path class="st2" d="M296.1,191.2c0.9,4.8,2,9.6,4.7,13.8c0.7,1.1,0.9,2.2,1.1,3.4c0.7,3.9,1.3,7.8,3.1,11.4c0-2.3-0.2-4.7-0.3-7
		c-0.2-4.8,0.3-9.6,1.9-14.2c1.6-4.4,4-8.2,8-10.7c0.8-0.5,1.4-1.1,1.8-1.9c1.2-2.2,3-3.8,5.3-4.9c0.3-0.2,0.6-0.3,1-0.5
		c0-0.5-0.1-1-0.2-1.5c-0.4-2-0.5-4.1-0.7-6.2c-0.3-3.1,0.5-6,1.9-8.8c1.5-3,3.5-5.6,5.9-7.9c0.8-0.8,1.3-1.7,1.6-2.7
		c-4,0.3-8.1-0.1-12.3-0.9c-2-0.4-2-0.4-3,1.5c-0.8,1.5-1.5,3-2.3,4.4c-1.3,2.3-3.1,4.2-5.3,5.7c-5.7,3.9-11.2,3.5-16.1-1.3
		c-0.3-0.3-0.5-0.5-0.7-0.8c-0.6,1.3-0.5,2.9,0.4,4.4c0.6,1.1,1.3,2,2.3,2.9c0.7,0.6,1,1.3,1.1,2.3c0.3,1.6,0.4,3.3,0.4,4.9
		C295.7,181.4,295.1,186.3,296.1,191.2z"/>
	<path class="st2" d="M646.9,349.1c0.2,0.4,0.3,0.8,0.9,0.9c0.3-0.7,0.5-1.5,0.7-2.3c-0.2-5.3-2.9-13-6.1-17.2c-1.8-2.4-3.1-5-3.5-8
		c-0.4-2.7-0.4-5.4-0.8-8c-1.1-6.3-2.6-12.3-7.2-17c-0.5-0.5-0.8-1.2-1.1-1.7c-2.2-3.4-5.3-5.8-9.2-6.4c-3.4-0.5-7-0.4-10.5-0.1
		c-0.9,0.1-1.7,0.3-2.4,0.7c4.9,4.9,7.9,11,9.5,18c0.8,3.6,1.2,7.2,1.4,10.9c0.1,3,1.4,5.1,4,6.6c2.7,1.6,5.3,3.4,7.9,5.1
		C637.7,335.1,643.1,341.5,646.9,349.1z"/>
	<path class="st2" d="M405,146.5c2.8-1.3,5.2-3.2,7.4-5.3c4-3.8,7.6-7.9,10.6-12.6c2.3-3.6,5-6.8,8-9.5l2.3-2c1.9-1.5,3.9-2.8,6.1-4
		c-0.4-0.7-1.2-0.7-2-0.7c-3.7-0.1-7.3,0.7-10.8,1.8c-1.6,0.5-3.1,1.1-4.8,1.3c-3.1,0.4-5.9,1.6-8.5,3.2c-4.3,2.6-7.7,6.3-10.9,10.1
		c-0.9,1.1-1.8,2.1-3,2.8c-6.3,3.8-12.6,7.8-19,11.5c-5.4,3.2-9.4,7.7-12.6,13c-0.9,1.4-1.2,3.1-1.4,4.7c3-0.8,5.9-1.7,8.9-2.5
		C385.7,155.6,395.4,151.1,405,146.5z"/>
	<path class="st2" d="M492.9,261.9c-3.8-1.6-7.8-2.1-12-1.7c-5,0.5-9.8,1.4-14.3,3.8c-1.4,0.8-2.9,1.1-4.5,1.1
		c-3.3,0-6.2,1.2-9.2,2.6c-5.4,2.6-8.3,7.3-11,12.2c-0.5,0.9-0.9,1.9-0.7,3c0.4,1.8-0.5,3-1.8,4.1c-1.9,1.7-3.4,3.8-4.7,5.9
		c-1.1,1.7-1.9,3.5-1.9,5.6c0,1,0.3,1.9,1.2,2.4c1,0.5,1.9,0.2,2.7-0.4c0.5-0.3,0.9-0.8,1.3-1.3c0.5-0.6,1-1.3,1.6-1.8
		c2.5-2,4.8-4.3,7.5-6.1c2.2-1.5,4.5-2.6,7-3.4c8.7-2.7,17.7-2.5,26.6-3.6c4.5-0.5,8.7-1.6,12.5-4.2c3.5-2.5,5.2-6,5.8-10
		c0.2-1.8-0.5-3.3-1.5-4.7C496.4,263.9,494.8,262.7,492.9,261.9z"/>
	<path class="st2" d="M538,92.8c0,0.6-0.3,1.2,0.3,1.7c1.2,0,2.2-0.7,3.2-1.1c7.4-2.8,15-4.3,22.8-3.7c9.6,0.7,17.9,4.3,25.2,10.2
		c1.6-0.2,2.3-1.3,1.9-3c-0.3-1.3-1-2.4-1.9-3.4c-2.6-3-6-5-9.1-7.4c-4.3-3.3-9.1-5-14.2-6.3c-2.4-0.6-4.9-1.2-7.2-2.3
		c-3.6-1.7-7.5-2.8-11.5-3.3c-4-0.5-7.8,0.6-11.5,1.9c-1.7,0.6-3.2,0.9-5,0c-1.5-0.8-3.4-0.7-4.6,0.6c-0.1,0.2-0.3,0.3-0.4,0.5
		c2.4,1.3,4.6,2.8,6.7,4.5C536.2,84.5,538.2,88.1,538,92.8z"/>
	<path class="st2" d="M574.2,225.4c3.4-4.3,5.1-9.3,6.5-14.5c0.7-2.7,0.2-5.6-2.1-7.4c-2.4-1.9-5.3-3.1-8.3-3.5
		c-3.9-0.4-7.8-0.3-11.5,1.5c-0.8,0.4-1.7,0.5-2.5,0.8c-0.7,0.2-1.4,0.3-2,0c-3.2-1.2-6.3-0.5-9.4,0.6c-3.7,1.3-5.3,0.7-7.5-2.5
		c-1.8-2.7-3.6-5.3-4.2-8.6c-0.1-0.7-0.5-1.1-1.2-1.3c-0.8-0.2-1.4,0.1-1.8,0.8c-0.4,0.7-0.7,1.4-0.7,2.2c0,1,0,1.9,0,2.9
		c-0.1,5.8,1.2,9.3,3.9,13c3.3,4.6,7.8,5.9,13,5.4c1.7-0.2,3.2,0.1,4.4,1.1c1.6,1.2,3.1,2.6,3.9,4.5c0.6,1.3,1.2,2.5,1.9,3.7
		C561.1,231.7,568.7,232.4,574.2,225.4z"/>
	<path class="st2" d="M590.5,158.1c-1.1,0.1-2.1,0.5-3.3,0.3c-4.4-0.7-8.8-1.1-13.3-0.9c-0.8,0-1.5,0.1-2.3,0.5
		c-2.3,1-4.5,2.3-6.4,4c-2.2,1.9-3.7,4.4-4.6,7.2c-0.3,0.9,0,1.5,0.7,2.1c0.7,0.6,1.4,0.2,1.9-0.2c1-0.8,1.9-1.8,2.9-2.7
		c2.4-2.2,5.2-3.4,8.5-3.5c2.6-0.1,4.7,1.3,7,1.9c4.3,1.2,7.2,3.8,8.2,8.3c1.1,5,4.6,7.3,9.1,8.8c1,0.3,2,0.4,3.1,0.1
		c2.9-0.7,5.5-2.1,8.2-3.4c2.8-1.3,5.4-3.4,8.4-2.2c3.8,0,6-2.7,5.1-6c-0.6-2.4-1.7-4.5-3.4-6.4c-2.5-2.8-5.6-4.4-9.1-5.5
		C604.5,158.6,597.6,157.8,590.5,158.1z"/>
	<path class="st2" d="M569.6,307.3c0.7-0.4,0.9-1.1,0.7-1.8c-0.1-0.5-0.4-1-0.6-1.4c-0.7-1.1-1.4-2.2-2.4-3.1
		c-3.4-3.3-6.8-6.5-10.9-8.9c-2.3-1.3-4-3.1-4.7-5.7c-0.2-0.9-0.7-1.8-1.2-2.6c-5.5-9.2-17.2-10.1-24.4-6.2c-2.9,1.5-4.8,4-5,7.6
		c0.4,2.8,1.5,5.3,4.1,7.1c3.3,2.2,6.8,3.9,10.3,5.7c2.8,1.5,5.7,2.6,9,2.2c0.4,0,0.9-0.1,1.3,0.1c3.5,1.1,7.1,1.1,10.6,0.9
		c2.1-0.1,3.9,0.4,5.8,1.4c2.2,1.2,4.2,2.5,5.8,4.3C568.4,307.4,569,307.7,569.6,307.3z"/>
	<path class="st2" d="M411.6,105.1c2.1-7.5,5.3-14.4,11.7-19.4c6.3-4.9,13.7-6.8,21.6-6.8c2.4,0,4.9,0.2,7.3,0.4
		c1.2,0.1,1.8-0.2,2-1.4c0.2-1.1,0.5-2.1,0.9-3.1c-3.8-2.6-8.2-3.8-12.8-4.2c-3.8-0.4-7.5,1.2-11.4,1.3c-0.3,0-0.5,0.2-0.7,0.2
		c-3.1,0.9-6.1,2.2-8.7,4.1c-4.1,2.9-7.7,6.3-9.5,11.2c-1.5,4.1-1.5,8.5-2,11.9c-0.1,2.9,0.2,5,1.5,6.6
		C411.5,105.6,411.5,105.3,411.6,105.1z"/>
	<path class="st2" d="M347.9,210.4c-1.2,1.8-2.2,3.5-2.9,5.5c-0.2,0.6-0.4,1.6-1.3,1.3c-0.8-0.3-0.6-1.1-0.6-1.8c0-0.1,0-0.1,0-0.2
		c-0.7,0.9-1.3,1.9-1.9,2.9c-1.3,2.1-2.6,4.3-3,6.8c1.1,0.3,1.4-0.5,1.9-0.9c2.1-2.2,4.6-2.9,7.6-2c0.7,0.2,1.4,0.4,2,0.7
		c1.1,0.4,2.3,0.6,3.6,0.5c0.1-0.1,0.3-0.2,0.4-0.3c0.2-0.3,0.4-0.6,0.6-1c1.9-3.2,4.4-5.8,7.9-7.5c0.9-0.4,1.6-1,2.3-1.7
		c4-3.6,8.5-5,13.8-3.8c0.4,0.1,0.9,0.2,1.4-0.2c-0.3-2-0.5-4.1-0.8-6.4c-3,0.6-5.8,1.1-8.6,1.6c-2.2,0.4-4.3,0.4-6.5,0
		C357.1,202.6,351.7,204.6,347.9,210.4z"/>
	<path class="st2" d="M686.3,223.9c4-3.7,6.1-8.3,6.2-13.9c0.1-5.1-1.3-9.8-3.5-14.3c-1.2-2.5-3-4.6-5.3-6
		c-4.4-2.7-9.3-4.4-14.6-4.3c-1,0-1.9-0.1-2.9,0c-1,0.1-1.8,0.5-2.6,1c1.4,0.7,2.7,1.6,3.9,2.6c2,1.7,4,3.4,6,5
		c6.2,5,9.9,11.5,11.5,19.2C686,216.8,686.4,220.3,686.3,223.9z"/>
	<path class="st2" d="M546.4,251.5c-5.9,1.6-10.2,5.1-11.9,11.3c-0.3,1-0.5,2,0.4,2.8c2.3-0.9,4.8-1.4,7.3-1.9
		c5.5-1,10.6-0.1,15.4,2.7c0.8,0.5,1.5,1.2,2.6,1.3c1.3-1.8,1.6-4,2.1-6.1c0.1-0.5-0.1-1-0.3-1.5c-2.1-5.8-6.2-9.9-11.5-12.8
		c-1-0.6-2.1-0.8-3.3-0.9c-0.1,1.1,0.1,2.2,0.4,3.3C548,250.7,547.7,251.1,546.4,251.5z"/>
</g>
<g>
	<path class="st3" d="M663.4,302c3.3-4.6,5.9-9.5,6.8-15.1c0.7-4.3,1.1-8.6-0.1-12.9c-0.3-1.2-0.6-2.5-0.2-3.6c0.8-2-0.1-3-1.5-4.2
		c-3-2.5-4.3-5.8-4.3-9.7c0.1-3.6,0.6-7.1,1.7-10.6c0.6-1.9,1.5-3.6,3-4.8c0.8-0.6,1-1.3,1.1-2.2c0.3-2.9,1-5.7,1.9-8.4
		c0.8-2.5,1-5,0.6-7.5c-1.1-6.6-2.5-13-5.9-18.9c-2.9-4.9-5.5-9.9-8.3-14.9c-0.5-1-0.9-1.9-0.2-2.9c0.7-0.9,1.6-1,2.6-0.8
		c0.8,0.2,1.7,0.4,2.5,0.8c0.2,0.1,0.3,0.1,0.4,0.2c0.7-0.5,1.6-0.8,2.6-1c0.9-0.1,1.9,0,2.9,0c5.3-0.1,10.1,1.6,14.6,4.3
		c2.3,1.4,4.1,3.5,5.3,6c2.2,4.5,3.6,9.2,3.5,14.3c-0.1,5.5-2.2,10.2-6.2,13.9c0,3.8-0.5,7.6-1.4,11.4c-0.7,2.9-1.4,5.8-1,8.8
		c0.5,4.2-1.1,7.9-2,11.8c-0.1,0.5-0.5,0.9-0.8,1.4c-1.2,1.5-1.2,1.5,0.4,2.8c3.2,2.4,4.9,5.6,5.3,9.6c0.5,4.9-1.1,9.1-4.3,12.8
		c-0.8,0.8-1.5,1.7-1.7,2.9c-0.6,3-1.6,5.8-2.9,8.5c1.6,1.7,2,4,2.5,6.2c1.2,5.7,0.1,11.2-0.8,16.8c-0.6,3.6-1.3,7.2-2.6,10.6
		c-0.3,0.9-0.3,1.7-0.2,2.6c0.2,5.5-0.5,10.9-1.4,16.4c-0.8,4.8-2,9.5-3.2,14.2c-1.4,5.5-2.4,11.1-2.3,16.8c0.1,2.5-0.2,5,0,7.5
		c0.3,3.6,1.3,6.8,2.8,10c0.7,1.4,0.9,1.5,2.1,0.4c1.3-1.2,2.6-2.5,3.8-3.8c0.2-6.9,2-13.6,5.8-19.9c2.1-3.5,4-7.2,6.1-10.7
		c1.4-2.5,2.2-5.1,2.6-7.9c0.7-5.9,0.9-11.9,0.8-17.8c-0.1-4.2-0.5-8.4-1.4-12.5c-1.1-4.8-2.7-9.4-4.2-14c-0.4-1.1-0.8-2.2-0.7-3.3
		c0.1-0.9,0.5-1.7,1.4-2c0.8-0.3,1.6-0.1,2.2,0.5c0.3,0.3,0.6,0.6,0.9,1c2.7,3.8,5.5,7.7,7.5,12c4.8,10.2,6.8,21,7,32.3
		c0.1,7.7-1.3,14.9-4.8,21.8c-0.7,1.3-1.3,2.7-1.9,4c-1.8,3.7-3,7.6-3.7,11.7c-1.1,6.2-1.1,12.5-1.3,18.8c-0.1,4.2-0.5,8.4-1.2,12.5
		c-2.3,12.7-6.1,24.8-14.3,35c-0.6,0.7-1.1,1.6-1.6,2.4c-0.4,0.7-1,1.3-0.7,2.4c1.7-1.4,3.2-2.8,4.9-4c6.9-4.9,12.5-11.2,17.6-17.8
		c5.1-6.5,8.8-13.6,10.6-21.8c0.9-4.3,2-8.5,3-12.8c0.8-3.2,1.4-6.5,1.7-9.8c0.4-6.7,1-13.4,1.2-20.2c0.1-3.8,0.8-7.5,1.8-11.1
		c0-0.7,0-1.4,0-2.1c0-7.2-0.8-14.4-2.5-21.5c-0.8-3.3-1.3-6.7-2-10c-0.8-3.3-2.4-5.9-4.7-8.3c-3.8-4-7.6-7.9-11.4-11.9
		c-2.2-2.3-3.9-4.9-4.7-8c-0.4-1.4-0.6-2.7-0.1-4.1c0.5-1.5,0.2-2.9-0.6-4.2c-1.1-1.8-1.4-3.7-1.3-5.8c0.2-4.1,3.7-7.8,7.9-7.8
		c1.7,0,3.4-0.4,5,0.8c0.9,0.7,1.6-0.3,2.1-1c1.5-2.1,2.5-4.4,3.4-6.8c-0.9-2.3-1.9-4.6-2.9-6.9c-2.6-6.1-4.7-12.4-6.6-18.8
		c-0.8-2.9-1.3-5.8-1.7-8.7c-0.6-5.7,0.6-11.1,2.4-16.5c0.3-0.9,0.7-1.8,0.3-2.8c-1.8-4.4-1-8.6,0.9-12.9c2.1-4.7,2.5-9.6,0.1-14.5
		c-1.6-3.2-3.7-6.1-5.8-9c-1.4-1.9-3-3.3-5.3-4c-1.4-0.4-2.8-1.1-4.1-1.8c-2.6-1.4-4.8-3.5-5.5-6.4c-0.7-2.7-2.5-3.8-4.9-4.4
		c-1.8-0.5-3.5-1-5.2-1.7c-2.6-1.1-3.8-3.5-3.2-5.9c0.6-2.4,2.7-3.8,5.6-3.6c1.2,0.1,2.4,0.1,3.7,0c4-0.4,7.2,0.8,9.6,4.1
		c1.6,2.1,4.8,3.9,6.8,4.3c0.3-0.5,0.1-1,0.1-1.5c-0.3-5,1.6-9,5.6-12.1c2.2-1.6,4.4-3.1,6.9-4.3c2.5-1.2,4.4-4.4,4-7
		c-0.5-2.6-1.2-5.2-1.9-8c-2,1.1-3.8,2.2-5.6,3.1c-4.6,2.2-8.8,5-12.8,8.2c-3.1,2.5-6.4,4.9-9.7,7.1c-2.4,1.6-4.9,3-7.7,3.9
		c-5.6,1.9-11,1.5-16.1-1.6c-1.6-0.9-3.1-1.9-4.6-3c-5.1-3.4-8.4-8.1-9.8-14.1c-1.4-6.4-4.4-12.1-8.3-17.4
		c-3.7-4.9-7.5-9.7-11.3-14.4c-4.7-5.9-9.3-11.8-12.1-18.9c-0.2-0.6-0.6-1-1.2-1.3c-2.2-1.4-4.1-3.2-5.9-5.1
		c-2.3-2.4-4.8-4.9-8.6-4.6c-0.4,0-0.8-0.2-1.2-0.5c-1.9-1.5-4.3-2.2-6.6-2.3c-2.5-0.1-4.7-1-7.1-1.7c-3-1-5.4-2.4-5.3-6.2
		c-0.6,0.1-0.9,0.2-1.2,0.3c-5.3,2.9-11,3.1-16.8,2.3c-3.2-0.5-6.5-0.4-9.7,0.2c-4.6,0.8-9.2,1.1-13.8,1.1c-1.8,0-3.7,0-5.5,0.2
		c-2.2,0.1-4.3,0.6-6.4,1.2c-0.8,0.2-1.3,0.6-0.8,1.5c1.4,2.5,2,5.2,2.8,7.9c0.5,1.6,1.4,2.7,2.9,3.5c0.3,0.1,0.5,0.3,0.7,0.4
		c0.1-0.2,0.2-0.3,0.4-0.5c1.3-1.3,3.1-1.4,4.6-0.6c1.8,0.9,3.3,0.6,5,0c3.7-1.3,7.5-2.3,11.5-1.9c4,0.5,7.9,1.6,11.5,3.3
		c2.3,1.1,4.7,1.7,7.2,2.3c5.1,1.3,9.9,3.1,14.2,6.3c3.1,2.4,6.5,4.4,9.1,7.4c0.9,1,1.6,2,1.9,3.4c0.4,1.7-0.4,2.8-1.9,3
		c1,0.9,2.1,1.8,3.1,2.7c1.7,1.6,3.2,3.2,5.4,4c4,1.6,6.8,4.6,9,8.1c0.7,1.1,1.2,2.3,1.4,3.7c0.1,0.8,0.6,1.9-0.5,2.3
		c-1.2,0.5-1.3-0.8-1.7-1.5c0-0.1-0.1-0.2-0.1-0.2c-2.2-3.8-5.1-6.4-9.9-6c-2.8,0.2-5.6-0.3-8.3-1c-5.8-1.4-11.6-2.7-17.3-4
		c2,2,3.6,4.4,5.1,6.9c2.1,3.6,4,7.4,7.3,10.1c0.9,0.7,1.7,1.6,2.7,2.1c3.2,1.6,5.7,4,8.1,6.5c1.8,1.9,3.8,3.5,6.5,4.2
		c0.7,0.2,1.5,0.5,2.1,1c1.6,1.2,3.2,1.3,4.9,0.3c0.4-0.3,1-0.6,1.4-0.1c0.5,0.6,0,1.2-0.4,1.6c-2,2-4,3.9-6.7,4.9
		c-0.9,0.3-1.7,0.9-2.4,1.4c2.4,0.3,4.9,0.4,7.4,0.3c1.3,0,2.4-0.5,3.5-1c0.9-0.4,1.9-0.9,2.9-1.3c1.1-0.4,2.2-0.7,3.1,0.5
		c0.6,0.9,0.3,1.7-1.2,2.8c-3.9,2.8-8.2,4.7-13,5.3c-4,0.5-7.9,0-11.6-1.2c-2.8-0.9-5.7-1.6-8.7-1.6c-2.3,0-4.5-0.6-6.4-2
		c-1.8-1.2-3.7-1.5-5.7-1.1c-3.3,0.6-6.5,1.2-9.9,1.2c-2.7,0-5.4-0.4-8-1.2c-5.4-1.7-10.5-1-15.2,2.3c-1.2,0.8-2.1,1.9-2.7,3.1
		c-1.9,3.9-2.2,8.1-0.8,12c0.9,2.5,2.9,4.7,5.3,6.3c0.6,0.4,1.4,0.4,1.8,1.4c-1.5,0.7-2.7,0-3.9-0.4c-2.1-0.7-4-1.7-6-2.5
		c-3.1-1.2-6.3-1.5-9.5-1.7c-1.4-0.1-2.8,0.1-4.1-0.6c-0.6-0.4-1.2-0.1-1.7,0.2c-0.8,0.4-1.5,0.9-2.3,1.3c-0.9,0.5-1.8,0.9-2.7,0.1
		c-0.9-0.8-0.7-1.7-0.3-2.6c1-2.1,2-4.1,3.8-5.6c0.1-0.1,0.1-0.1,0.2-0.2c-0.4-1.1-0.7-2.1-0.8-3.3c-0.1-1.3-0.2-2.6-1-3.7
		c-1.5-2.1-3.7-2.6-6-2.3c-1.8,0.3-3.6,0.8-5.1,1.9c-1.1,0.8-2.4,1.4-3.8,1.8c-2,0.7-4.1,1.3-5.9,2.6c-2,1.5-4.6,1.4-6.8,0.6
		c-3.1-1-5.7-2.9-7.7-5.7c-1.9-2.7-3.6-5.5-6-7.9c-1.3-1.3-2.8-2-4.7-1.9c-2.1,0.1-4.2,0.2-6.2-0.4c-1.4-0.4-2.3,0.1-2.9,1.5
		c-1,2.4-2.6,4.3-4.6,5.9c-2.2,1.8-4.8,2.9-7.7,1.9c-3.5-1.1-5.3-4.4-4.5-8c0.8-3.8,2.4-7.2,5.6-9.1c2.9-1.8,5.9-3.5,9-4.9
		c1.8-0.8,3.4-0.1,5.1,0.4c0.7,0.2,1.4,0.8,2.1,1.1c1.7,0.7,2.6,2.7,5,2.3c4.1-0.7,7.7-2.2,10.3-5.5c0.3-0.4,0.6-0.9,0.7-1.4
		c0.4-2.2,1.3-4.1,2.3-6.1c0.3-0.7,0.5-1.3,0-1.9c-2-2.6-2.4-5.8-3.1-8.8c-0.7-3.1-1-6.2-0.7-9.4c0.3-2.8,1.1-5.3,3.7-6.9
		c3.6-2.3,9-0.5,11.2,3.5c1.5,2.7,2.1,5.6,2.4,8.5c0.6,6,4.2,9.7,8.8,13c0.7,0.5,1.6,0.7,2.5,0.7c1.2,0,2.4,0,3.7,0
		c2.5-0.1,4.6,0.7,6.7,2c0.7,0.4,1.2,1,2.4,1.1c0.1-2.9,1.2-5.3,2.6-7.6c-1.4-0.2-2.4-1.3-2.5-3c-0.1-1.7,0.6-3.1,1.6-4.3
		c1.2-1.6,2.8-2.9,4.4-4.1c0.9-0.7,1.8-1.4,2.3-2.4c1.5-2.8,0.8-5-2.1-6.3c-2.6-1.1-5.1-2.3-7.4-3.8c-3.7-2.5-5.9-5.9-6.6-10.2
		c-0.4-2.6-0.5-5.2-0.4-7.8c0.1-2.6-0.9-4.5-2.7-6.2c-2.6-2.4-5.6-4-9.2-4.8c-6.2-1.3-12.3-1.1-18.2,1.4c-0.8,0.3-1.8,0.5-2,1.5
		c-0.2,1.4-1.2,1.9-2.2,2.3c-2.7,1.1-4.7,3-6.4,5.3c-2.2,3-4.1,6.1-5.2,9.7c-1.4,4.9-3.7,9.4-4.3,14.5c0,0.1-0.3,0.2-0.4,0.3
		c-0.4-0.1-0.8-0.3-1.2-0.5c-2.9-1.3-5.7-3.2-9.1-2.2c-0.2,0-0.3,0-0.5,0c-2.1-0.3-4.2,0-6.2,0.5c-8.2,1.8-15,6-21,11.8
		c-3.3,3.2-6.8,6.3-10.2,9.5c-1.3,1.2-2.6,2.3-4.3,3c-1.1,0.4-2.3,0.9-3.1-0.3c-0.8-1.2,0.2-1.9,0.9-2.7c2.2-2.5,4.3-5.1,6.5-7.6
		c0.6-0.7,0.9-1.5,1.2-2.3c-1.2-1.7-1.6-3.7-1.5-6.6c0.5-3.3,0.5-7.7,2-11.9c1.8-4.9,5.4-8.3,9.5-11.2c2.6-1.9,5.6-3.2,8.7-4.1
		c0.3-0.1,0.5-0.2,0.7-0.2c3.8-0.1,7.5-1.6,11.4-1.3c4.5,0.4,8.9,1.6,12.8,4.2c0.7-2,1.6-4,2.6-5.9c0.2-0.3,0.6-0.7,0.1-1.2
		c-1.3,0.3-2.7,0.5-4-0.2c-2.5-1.2-5.2-2-7.9-2.8c-7.7-2.3-15.1-2.2-22.4,1.6c-2.5,1.3-4.5,3-5.9,5.4c-1.9,3.3-4.3,6.1-7.6,8.2
		c-0.6,0.4-1.1,0.8-0.9,1.7c0.3,1.2-0.4,2-1.3,2.6c-1.5,1-3.1,2-4.6,3c-7.1,4.3-14.2,8.6-20.9,13.5c-0.8,0.6-1.9,1.2-2.3,2.1
		c-1.3,2.7-4,4.1-5.5,6.6c-0.4,0.7-1.1,1.3-1.9,0.7c-0.7-0.5-0.5-1.3-0.1-1.9c2.5-4,3.4-8.8,6.5-12.5c0.8-0.9,1.4-2.1,1.3-3.4
		c-0.2-2.1-0.6-4.3-0.9-6.5c-1.2,0.2-1.8,0.9-2.4,1.4c-2.7,2.3-4.7,5.2-6.5,8.2c-3.1,5.2-6.6,10.1-10.9,14.4c-7,7-14.6,13-23.8,17
		c-1.9,0.8-3.7,1.9-5.3,3.3c-0.9,0.8-0.8,1.5-0.1,2.3c0.4,0.4,0.9,0.9,1.4,1.2c3.3,1.8,6.6,3.3,10.5,2.3c0.7-0.2,1.4-0.2,2.1-0.2
		c8-0.6,14.8-3.8,20.3-9.7c0.8-0.9,1.6-1.8,2.4-2.7c0.6-0.6,1.2-1.1,2.1-0.7c1,0.4,1.1,1.3,0.9,2.2c-0.2,1-0.6,2-1.1,2.9
		c-4.2,6.4-8.8,12.4-15.1,17c-3.4,2.4-7.1,4-10.8,5.9c-3.8,1.9-7.8,2.9-11.8,3.2c-0.2,1-0.8,1.9-1.6,2.7c-2.4,2.3-4.5,4.8-5.9,7.9
		c-1.4,2.8-2.1,5.7-1.9,8.8c0.2,2.1,0.3,4.2,0.7,6.2c0.1,0.5,0.2,1,0.2,1.5c1.7-0.9,3.4-1.8,5.1-2.7c0.5-0.2,0.9-0.5,1.4-0.7
		c0.5-0.2,1-0.3,1.4,0.2c0.5,0.6,0.3,1.1,0,1.7c-0.2,0.4-0.5,0.7-0.8,1c-2.3,2.4-4.1,4.8-4.5,8.5c-0.5,3.9-1.3,7.7-1.3,11.7
		c-0.1,3.9-0.4,7.7-1,11.5c-1.1,6.8-3,13.3-6.4,19.3c-0.8,1.5-1.5,2.9-2.1,4.5c-2.3,6.4-5.9,12.1-10.3,17.2
		c-2.4,2.8-5.4,5.1-9.3,5.5c-1.1,0.1-1.4,0.8-1.9,1.6c-5.7,10.2-10,21-13.7,32c-2.1,6.2-3.7,12.6-4.7,19.1
		c-2.3,14.8-2.6,29.8-1.4,44.7c0.8,9.7,2.6,19.2,7.7,27.8c4.6,7.7,8.1,15.9,11.4,24.2c2.4,5.9,3.9,11.9,4,18.3
		c0,8.2,3.6,15.2,8.2,21.7c0.2,0.3,0.4,0.5,0.9,0.6c0.1-1-0.3-1.9-0.6-2.8c-1.6-5.9-2.6-11.8-2-17.9c0.3-2.8,0.1-5.6-0.2-8.4
		c-0.1-1.5-0.1-2.9-0.6-4.4c-3.6-11.2-7.1-22.5-10.4-33.8c-2.7-9.5-2.5-19-2.9-28.6c1.3-6.4,0.9-13.1,3.1-19.4
		c0.5-1.3,0.5-2.7,0.5-4.1c0.1-4.9,1.3-9.7,1.9-14.5c0-0.3,0.1-0.5,0.2-0.8c0.7-2,2.8-2.5,4.4-1.1c0.9,0.8,1.3,1.9,1.5,3
		c0.4,2.7,0.7,5.4,1,8.1c0.6,4.3-0.1,8.5-1.5,12.7c-0.5,1.4-1,2.8-1.3,4.3c-1.1,5.8-1.6,11.6-1.4,17.3c0.6-0.2,1.3-0.4,1.9-0.4
		c2.7,0.2,4-1.6,5.4-3.5c2.9-4.1,5-8.6,6.8-13.2c3.2-8.1,6.5-16.2,9.2-24.5c0.6-1.9,0.9-3.9,1.2-5.9c0.3-2-0.2-3.8-1.3-5.5
		c-3.2-5.1-5.6-10.7-8.7-15.8c-3.9-6.6-3.8-13.4-1.2-20.4c0.5-1.3,1.1-2.6,1.6-3.8c0.4-0.8,0.9-1.5,1.6-2c0,0,0.1,0,0.1,0
		c1.4-7.7,4.5-14.6,9.5-20.7c2.5-3.1,5.8-5,9.6-6.1c2.5-0.7,4.5,0,6.1,2c0.4,0.5,0.8,1,0.4,1.6c-0.3,0.6-0.9,0.5-1.4,0.3
		c-1.9-0.5-3.4,0.4-4.7,1.6c-2,1.8-3.6,3.8-4.8,6.2c-2,3.7-3,7.8-3.8,11.9c-1,5.4-0.4,10.6,2.3,15.5c1.4,2.5,2.7,5.1,4.2,7.6
		c1.7,2.8,3.1,5.7,4.1,8.8c2.2,6.8,4.3,13.7,6.2,20.6c1.8,6.7,2,13.4,0.1,20.2c-0.5,1.9-0.8,3.9-1.2,5.9c-0.4,1.9-0.1,3.6,0.6,5.4
		c1.9,4.6,4.8,8.4,8.5,11.8c1.6,1.4,3,1.6,4.7,1c-0.4-0.6-0.8-1.3-0.9-2c-1.3-6.7-0.7-13.2,2-19.5c3.4-7.8,7.3-15.3,12.3-22.1
		c2.5-3.5,3.7-7.4,4.5-11.6c0.5-2.7,0.9-5.4,1.9-7.9c-3.4,0.1-6.6-0.6-9-3.1c-3.7-3.7-8.1-6.7-11.3-10.9c-0.1-0.1-0.3-0.1-0.5-0.2
		c-0.6,0.5-0.5,1.2-0.6,1.9c-0.2,2.4-0.3,4.7,0.2,7.1c0.8,3.9,0.8,7.8,1.4,11.7c0.1,0.4,0.1,0.9,0,1.3c-0.2,1.1-1.1,1.4-1.9,0.8
		c-0.6-0.5-1-1.2-1.4-1.9c-1.5-2.5-2.7-5.1-5.1-6.9c-1-0.8-1.6-2.1-2.2-3.3c-2.8-6.2-3.6-12.6-1.2-19.1c0.6-1.8,1.6-3.3,3-4.5
		c0.1-0.1,0.2-0.1,0.3-0.2c-1.1-3-0.7-6,1.1-8.9c1.9-3,1.7-5.6,0.6-8.6c-2.5-7.4-1.2-14.4,2.4-21.2c0.2-0.4,0.5-0.8,0.7-1.1
		c0.8-1,1.9-1.8,2.6-2.9c-1.2,0.2-2.4-0.1-3.6-0.5c-0.7-0.2-1.4-0.5-2-0.7c-3-0.9-5.5-0.2-7.6,2c-0.4,0.5-0.8,1.2-1.9,0.9
		c0.5-2.5,1.8-4.7,3-6.8c0.6-1,1.3-2,1.9-2.9c0.2-2.3,1-4.5,2.3-6.4c2.8-4.4,6.2-8.3,11.2-10.3c1-0.4,1.8-1,2.5-1.8
		c5.2-5.8,11.7-5.9,18.5-3.8c1.1,0.3,2.1,1.5,3.1,1c0.8-0.4,1.1-1.7,1.7-2.6c2.3-3.5,5.4-6.1,8.8-8.6c4-2.9,8.1-5.8,13.1-7
		c2.7-0.7,5.5-1.2,8.3-0.4c1,0.3,2,0.7,2.8,1.3c0.7,0.5,1.1,1.2,0.7,2c-0.3,0.7-1,1-1.8,0.8c-1.3-0.3-2.6-0.4-3.9-0.2
		c-1.8,0.3-3.6,0.9-5.2,1.8c-5.3,3.1-9.8,7.1-12.6,12.7c-2.1,4.3-2.5,8.9-0.7,13.5c0.8,2,1.4,4.1,1.7,6.3c0.5,3.5,1.6,6.8,4,9.5
		c1.1,1.2,2.3,2,3.9,2.5c7,2.3,13.2,8.6,14.3,16.5c0,0.3,0.2,0.8,0.1,1c-1.5,2.6,0.4,5.1,0.2,7.6c-0.1,0.9,0.7,1.4,1.1,2
		c1.2,1.7,1.7,3.6,1.5,5.6c1.6-0.7,3.2-1.4,4.7-2.1c1.9-0.9,3.9-0.3,5.4,0.9c0.6-2.3,1.7-4.4,2.8-6.5c4.1-7.2,8.9-13.8,14.9-19.5
		c2.5-2.4,5-4.9,7.1-7.7c2-2.6,4.4-4.7,7.2-6.4c2.3-1.3,4.4-2.9,6.3-4.7c2.7-2.4,4.4-5.4,5.1-9c1-5.5,0.3-10.8-1.4-16
		c-2.3-7.2-6.5-10.3-14.1-10.8c-1.3-0.1-2.6-0.3-3.9-0.5c-1.1-0.2-2.3-0.5-3.1-1.3c-1.3-1.3-2.7-1.3-4.3-1.3c-5,0-10-0.1-14.8-1.5
		c-3.6-1-6.4-3.2-8.6-6.1c-0.9-1.1-1.4-2.4-1.5-3.9c-0.1-2.9,1.8-4.7,4.7-4.1c4.3,0.9,8.7,1,12.9,2.4c2.1,0.7,4.2,1,6.4,1.5
		c1.4,0.3,2.7,0.4,4.1-0.1c5.7-2.1,5.8-2,9.3-7c0.3-0.4,0.5-0.7,0.8-1c1-1.2,2.3-1.9,3.8-2.2c3.4-0.7,6.1,1.5,6.1,5
		c0,3.4-2.5,6.7-6.2,7.5c-2.1,0.5-3.3,1.8-4.6,3.1c0.6,0.6,1.1,0.3,1.6,0.3c6.7-0.2,12.3,2.2,16.6,7.4c2.2,2.6,4,5.4,5.3,8.4
		c6.4,14.3,6.2,28.1-2.7,41.4c-4.2,6.3-10.1,9.7-17.9,9.6c-5.9-0.1-10.9,1.9-15.2,6c-5.6,5.3-9.9,11.5-13.6,18.2
		c-0.3,0.6-0.9,1.2-0.4,2c0.5-0.3,0.9-0.5,1.3-0.8c2.6-1.5,4.9-3.4,7.2-5.2c7.8-6,16.9-8.7,26.4-10.2c7.8-1.2,15.1,0.6,21.8,4.8
		c1,0.6,1.5,1.4,1.3,2.6c-0.2,1.1-1.1,1.6-2.1,1.7c-0.9,0.1-1.7,0-2.6-0.1c-3.5-0.4-6.9-0.9-10.4-0.8c-10,0.2-18.6,3.7-25.4,11.1
		c-6,6.5-12.5,12.2-20.5,16c-2.7,1.3-5.2,2.9-7.6,4.6c-5.9,4.3-9.9,9.7-11.2,17.1c-1.4,8.2-3.9,16.1-8.1,23.4
		c-1.2,2.1-2.2,4.3-3,6.5c0.4,0.7,0.8,1.4,1.2,2.1c1.1,1.9,2.8,2.6,5,2.7c3.8,0.2,6.2-2,8.4-4.5c6.4-7.4,13.9-13.5,22.6-18
		c0.1-0.1,0.3-0.1,0.4-0.2c1.7-1.2,3.4-2.2,5.4-3.1c0.9-0.4,1.7-0.7,2.6-1c3.2-1.6,6.4-3.2,9.8-4.6c5.3-2.2,10.9-3.8,16.6-4.4
		c5.5-0.6,10.9-1.5,16.3-1.8c3.2-0.2,6.4,0.2,9.6,0.6c2.3,0.3,4.5,0.4,6.8,0.1c8.8-1.1,17.2-0.4,25.3,3.4c2.7,1.3,5.5,2.1,8.3,3.1
		c3.6,1.3,6.9,3.1,9.9,5.3c2.4-1.7,5.4-2.1,8.9-2.2c4.3,0.5,9.1,1.4,13.5,3.7c0.2,0.1,0.3,0.2,0.4,0.3c1.7,1.3,3.3,2.8,5.1,3.9
		c3.9,1.3,7.6,3,10.9,5.6c4.8,3.8,8.9,8.3,12.4,13.4c4.3,6.4,8.9,12.5,13.9,18.3c2.5,2.8,4.8,5.8,6.9,9c1.6,1.7,3.2,3.5,4.8,5.2
		c3.2,3.4,6.7,6.4,10.9,8.5c3,1.6,5.8,3.6,8.3,6c0.4,0.4,0.7,1.1,1.8,0.6c0.1-2,0.2-4,0.3-6.1c0.2-6.4-0.3-12.7-2.1-18.9
		c-2.1-7.3-6.5-12.4-13.3-15.7c-1.5-0.7-3-1.3-4.6-1.9c-3.8-1.4-7.6-2.7-11.3-4.1c-5.4-1.9-8.7-5.8-9.6-11.4
		c-0.8-4.9-2.4-9.7-3.6-14.5c-1.1-4.4-3.4-7.8-6.7-10.7c-5.5-4.6-10.9-9.3-16.5-13.8c-3.3-2.7-6.8-4.9-10.5-6.9
		c-0.8-0.4-1.4-0.8-2.3,0c-3.3,2.7-5.8,2.7-9.2,0.1c-1.6-1.2-3.1-2.6-4.7-3.8c-5.1-3.7-10.6-5.6-17-4.6c-1.5,0.2-2.9,0.4-4.4,0.3
		c-1,0-1.9-0.3-2.7-0.8c-0.3-0.2-0.5-0.5-0.4-0.9c0.1-0.2,0.4-0.4,0.6-0.4c1.2,0.1,2.2-0.4,3.2-1.1c1.6-1.1,3.4-2,5.2-2.7
		c-0.8-0.8-0.7-1.7-0.4-2.8c1.7-6.2,5.9-9.7,11.9-11.3c1.3-0.3,1.5-0.8,1.2-2c-0.3-1.1-0.6-2.2-0.4-3.3c-0.3,0-0.5,0-0.8,0
		c-2,0-3.5-1-4.7-2.5c-0.5-0.6-0.8-1.3-1.2-2c-2.1-3.8-3.1-8.2-6.4-11.3c-0.2-0.2-0.3-0.5-0.3-0.7c0-1.3-0.9-1.2-1.8-1.1
		c-3.9,0.5-7-0.9-9.7-3.7c-2.5-2.6-4.9-5.2-7-8.1c-2.1-2.9-3.9-6.1-4.8-9.6c-1.6-6.2-2.2-12.4-1.1-18.7c0.6-3.6,1.6-7.2,3.6-10.3
		c1.1-1.7,2.4-3.3,4.2-4.3c0.8-0.4,1.6-0.7,2.5-0.2c0.9,0.6,0.7,1.5,0.5,2.4c-0.4,2.1-0.8,4.3-1,6.5c-0.9,7.9,0.2,15.6,3.8,22.7
		c2.4,4.7,5.7,8.8,9,12.9c1.1,1.4,2.5,2.5,4.2,3c5.1,1.7,9.3,4.8,13.2,8.3c0.7,0.6,1.4,1,2.2,1.3c3.2,0.9,5.8,2.8,7.7,5.5
		c0.8,1.1,1.7,1.7,2.9,2c0.7,0.2,1.4,0.4,2,0.6c3.1,1.3,4.4,3.9,3.6,7.2c-0.3,1.2-0.8,2.3-1.1,3.5c-0.6,2-0.8,3.9,0.3,5.8
		c0.7,1.3,1.1,2.8,1.3,4.2c0.2,2,1.1,3.7,2.3,5.2c3.1,4.3,7.6,6.1,12.8,7.6c-0.5-2.2-0.7-4-2.2-5.5c-1.2-1.2-2-2.6-3-3.9
		c-1.9-2.4-2.6-5.5-5-7.6c-0.6-0.6-0.8-1.6-0.8-2.4c-0.1-1.8-0.1-3.5,0.2-5.2c0.3-1.7,1.2-3.1,2.5-4.2c1.2-0.9,2.4-1.7,3.8-2.3
		c0.7-0.3,1.4-0.7,1.9-1.3c1.6-1.9,3.4-3.8,3.9-6.4c0.2-0.9,0.7-1.8,1.3-2.6c1.3-1.7,2-3.6,2.6-5.7c1-3.7,2.6-7,5.1-10
		c1-1.2,1.8-2.6,2.4-4c1.5-3.6,1.6-7.1-0.7-10.5c-0.5-0.7-0.6-1.5-0.9-2.2c-0.8-2-1.2-4.1-3.4-5.3c-2.5-1.4-5-1.8-7.8-1.2
		c-4.1,0.8-8.1,2.2-12.3,2.4c-4.1,0.1-6-2.8-4.3-6.6c0.7-1.6,1.9-2.7,3.3-3.6c7.3-5.2,19-5.6,26.8,1.9c0.8,0.7,1.5,1.5,2.1,2.3
		c0.9,1.1,1.6,1.2,2.8,0.3c3.1-2.4,6.8-3.8,10.7-3.5c6.8,0.5,13.5,1.9,19.4,5.6c2.3,1.4,4.5,3,6.6,4.7c9.1,7.3,10.9,8.2,14.9,22.8
		c0.1,0.3,0.1,0.5,0.2,0.8c1.1,4.2-0.2,8.1-1.8,12c-0.3,0.7-0.8,1.4-1.8,1.2c-0.8-0.2-1-0.9-1-1.6c-0.1-2.6-1-5-1.5-7.4
		c-1.7-8.2-5-15.4-12-20.6c-0.8-0.6-1.5-1.2-2.2-1.8c-3.4-2.9-7.4-3.8-11.7-3.6c-5.4,0.2-10.2,2.3-15,4.3c-1.1,0.5-0.8,1.2-0.5,1.9
		c0.9,2.8,1.9,5.6,2,8.6c0.1,1.2,0.8,1.2,1.6,1c3.1-0.5,6.1-0.1,9.1,0.5c9.5,1.9,14.1,7.4,16.5,15.7c4.5,4.7,8.4,10,11.6,15.8
		c1.2,2.1,2,4.4,2.9,6.7c1.4,3.6,0.6,7.1-1,10.4c-0.8,1.6-1.7,3.1-2.6,4.5c0.1,0.1,0.2,0.3,0.3,0.4c0.4,0.7,0.7,1.4,1.3,1.9
		c2,1.9,3,4.3,3.4,6.9c0.9,5.7-0.3,11.1-2.1,16.4c-0.4,1.1-0.7,2.2-1.5,3c-0.8,0.8-1.5,1.9-2.8,1.6c-1.2-0.3-0.9-1.5-1.2-2.4
		c-1.3-4.4-3.2-8.5-7-11.4c-1.1-0.8-2-1-3.4-0.5c-3.2,1.2-6.5,2.1-10,2.1c-0.5,0-1.1,0-1.5,0.4c-1.2,1.3-2.7,1-4.2,0.8
		c-3.2-0.4-6.4-0.9-9.6-1.2c-2.4-0.2-4.8-0.9-7.2-0.6c0.2,1,0.9,1.2,1.5,1.5c2,1.3,3.8,2.8,5.3,4.4c0.7-0.3,1.6-0.6,2.4-0.7
		c3.5-0.4,7-0.5,10.5,0.1c3.9,0.6,7,3,9.2,6.4c0.4,0.6,0.7,1.3,1.1,1.7c4.7,4.7,6.1,10.8,7.2,17c0.5,2.7,0.4,5.4,0.8,8
		c0.4,3.1,1.7,5.6,3.5,8c3.2,4.2,5.9,11.9,6.1,17.2c0-0.2,0.1-0.3,0.1-0.5c0.9-5.2,1.1-10.4,1.1-15.7c0-6.2,1.7-11.7,5.2-16.8
		C657.7,310.6,660.4,306.2,663.4,302z M421.8,202.7c3.8-0.8,7.7-1.2,11.5-2.2c3.6-1,6.6-2.9,8.8-6.1c1.2-1.7,1.6-3.6,1.8-5.6
		c0.1-0.9,0.1-1.7,0.4-2.6c1.8-5.3,8-4.9,11.1-2.3c3.5,2.9,5.4,6.6,6,11.2c0.5,3.7,0.3,7.3-0.6,10.8c-0.9,3.5-3.4,5.8-5.8,8.2
		c-1.1,1-2.2,2-2.6,3.5c-0.5,1.5-1.7,2.5-2.9,3.2c-5.2,3.2-11,4.3-17.1,3.8c-2.4-0.2-4.5-1.5-6.5-2.8c-1.9-1.2-3.7-1.5-5.9-0.7
		c-3.2,1.3-6.6,1.6-9.5-0.5c-2.9-2.1-6-3.8-8.9-5.8c-3.1-2.2-3.7-7.6-1.6-11.2c2.3-3.9,5.7-6.2,10.1-7.2c0.3-0.1,0.7-0.1,1-0.1
		c0.6,0,1.3,0.1,1.6,0.7c0.3,0.7-0.2,1.2-0.6,1.5c-0.9,0.7-1.9,1.3-2.7,2c-2,1.6-3.1,3.6-3.1,6.9c1.8-2.5,3.6-3.8,6-4.5
		c1.1-0.3,2.3-0.5,3.4-0.2C417.7,203.4,419.7,203.2,421.8,202.7z M432.6,133.3c-2.3,3.1-4.7,6.1-7,9.2c-2.7,3.6-5.8,6.7-9.7,9.1
		c-6.1,3.8-12.1,7.7-18.6,10.7c-9,4.1-18.6,6-28.2,7.9c-2.1,0.4-4.3,0.7-6.5,1c-6.7,1.1-10.1,5.7-12.3,11.5c-0.3,0.9,0,1.7,0.4,2.5
		c0.3,0.7,0.2,1.4-0.4,1.9c-0.7,0.6-1.5,0.5-2.2,0c-1.9-1.3-2.2-3.3-2-5.3c0.6-5.9,2.9-10.9,7.7-14.7c3.5-2.7,7.4-4.7,11.6-5.9
		c0.4-0.1,0.8-0.2,1.2-0.3c0.2-1.6,0.6-3.3,1.4-4.7c3.2-5.3,7.1-9.8,12.6-13c6.4-3.7,12.7-7.7,19-11.5c1.2-0.7,2.1-1.8,3-2.8
		c3.2-3.8,6.6-7.4,10.9-10.1c2.6-1.6,5.4-2.8,8.5-3.2c1.6-0.2,3.2-0.8,4.8-1.3c3.5-1.2,7-2,10.8-1.8c0.8,0,1.6,0.1,2,0.7
		c0.2-0.1,0.4-0.3,0.7-0.4c3.5-1.9,7.1-3.3,11.3-3.4c5.6,0.3,10.9,1.8,16,4.3c3.7,1.9,5.1,6.3,4.3,10.7c-0.1,0.7-0.5,1.1-1.2,1.2
		c-0.7,0.1-1.2-0.3-1.4-1c-0.3-0.7-0.5-1.5-0.7-2.2c-0.8-2.4-2.4-3.7-4.9-4.1c-5.3-1-10.2-0.3-15,2.2
		C442.4,123.7,436.8,127.6,432.6,133.3z M499.1,270.2c-0.7,4.1-2.4,7.6-5.8,10c-3.7,2.7-8,3.7-12.5,4.2c-8.9,1-17.9,0.9-26.6,3.6
		c-2.5,0.8-4.8,2-7,3.4c-2.7,1.8-5,4-7.5,6.1c-0.6,0.5-1,1.2-1.6,1.8c-0.4,0.4-0.8,0.9-1.3,1.3c-0.8,0.6-1.7,0.9-2.7,0.4
		c-0.9-0.5-1.2-1.4-1.2-2.4c0-2.1,0.8-3.9,1.9-5.6c1.4-2.1,2.8-4.2,4.7-5.9c1.2-1.1,2.1-2.3,1.8-4.1c-0.2-1.1,0.2-2.1,0.7-3
		c2.7-4.9,5.6-9.6,11-12.2c2.9-1.4,5.9-2.6,9.2-2.6c1.6,0,3.1-0.4,4.5-1.1c4.5-2.4,9.3-3.3,14.3-3.8c4.2-0.4,8.1,0.1,12,1.7
		c1.9,0.8,3.5,2,4.7,3.7C498.6,266.9,499.3,268.4,499.1,270.2z M526.1,277.6c7.2-3.8,18.9-3,24.4,6.2c0.5,0.8,0.9,1.7,1.2,2.6
		c0.7,2.6,2.4,4.4,4.7,5.7c4.1,2.4,7.5,5.6,10.9,8.9c1,0.9,1.7,2,2.4,3.1c0.3,0.4,0.5,0.9,0.6,1.4c0.2,0.7,0.1,1.4-0.7,1.8
		c-0.6,0.3-1.2,0.1-1.6-0.4c-1.7-1.8-3.7-3.2-5.8-4.3c-1.8-1-3.7-1.4-5.8-1.4c-3.6,0.2-7.1,0.2-10.6-0.9c-0.4-0.1-0.9-0.1-1.3-0.1
		c-3.3,0.4-6.2-0.7-9-2.2c-3.5-1.8-7-3.5-10.3-5.7c-2.6-1.7-3.7-4.3-4.1-7.1C521.3,281.6,523.2,279.1,526.1,277.6z M570.3,200.1
		c3,0.3,6,1.6,8.3,3.5c2.3,1.8,2.8,4.7,2.1,7.4c-1.4,5.1-3.1,10.2-6.5,14.5c-5.5,7-13.1,6.2-17.7-1.2c-0.7-1.2-1.3-2.5-1.9-3.7
		c-0.9-1.9-2.3-3.3-3.9-4.5c-1.3-1-2.7-1.2-4.4-1.1c-5.2,0.5-9.7-0.8-13-5.4c-2.6-3.7-4-7.1-3.9-13c0-1,0-1.9,0-2.9
		c0-0.8,0.3-1.5,0.7-2.2c0.4-0.7,1-0.9,1.8-0.8c0.7,0.1,1,0.6,1.2,1.3c0.6,3.3,2.4,6,4.2,8.6c2.2,3.2,3.9,3.8,7.5,2.5
		c3.1-1.1,6.2-1.8,9.4-0.6c0.7,0.3,1.4,0.2,2,0c0.8-0.3,1.7-0.5,2.5-0.8C562.4,199.8,566.4,199.7,570.3,200.1z M618.5,178.5
		c-3-1.2-5.6,0.8-8.4,2.2c-2.7,1.3-5.3,2.6-8.2,3.4c-1.1,0.3-2,0.2-3.1-0.1c-4.5-1.5-8-3.9-9.1-8.8c-1-4.5-3.9-7.1-8.2-8.3
		c-2.3-0.7-4.4-2-7-1.9c-3.3,0.1-6.1,1.3-8.5,3.5c-1,0.9-1.8,1.9-2.9,2.7c-0.5,0.4-1.2,0.8-1.9,0.2c-0.7-0.6-1-1.2-0.7-2.1
		c0.9-2.8,2.4-5.3,4.6-7.2c1.9-1.7,4.1-3,6.4-4c0.7-0.3,1.5-0.4,2.3-0.5c4.5-0.2,8.9,0.2,13.3,0.9c1.2,0.2,2.2-0.2,3.3-0.3
		c7-0.3,13.9,0.5,20.6,2.5c3.4,1.1,6.6,2.7,9.1,5.5c1.7,1.9,2.8,4,3.4,6.4C624.5,175.8,622.3,178.5,618.5,178.5z M651.2,176.3
		c-0.4-0.6-0.8-1.2-1-1.8c-1.4-3.4-4.2-5.3-7.5-6.4c-2.9-1-5.7-2.1-8.2-3.9c-1.3-1-2.5-2.1-3.3-3.7c-0.3-0.6-0.6-1.3-0.6-2
		c0-1.2,0.9-1.7,2-1.2c0.3,0.2,0.6,0.4,0.8,0.7c2.6,2.8,6,3.7,9.7,3.8c2.6,0,5.2,0,7.7,1c0.9,0.3,1.9,0.2,2.9,0.1
		c2.4-0.2,4.7,0.2,6.9,1.1c3.5,1.5,5.1,4.3,5.2,7.6c0,4.4-2.2,7.5-5.5,8.5C656.9,180.9,653.3,179.5,651.2,176.3z"/>
	<path class="st3" d="M713.6,494.8c-0.2-0.2-0.4-0.3-0.7-0.1c-0.5,0.6-0.7,1.4-1,2.1c-1.5,3.9-2.4,7.9-3,11.9
		c-1.9,11.8-5.6,22.9-12,33c-2.7,4.3-5.1,8.7-8.1,13.3c2.6,0.4,4.3,1.7,6.2,2.6c6.8,2.9,11,8.1,13.4,15c2.4,7,3.8,14.1,4.3,21.4
		l0.9-0.3l2.4-0.9c0.4-0.1,0.8-0.3,1.2-0.4l1.2-0.4l2.4-0.8l1.2-0.4c0.4-0.1,0.8-0.2,1.2-0.3l2.4-0.7l1.2-0.3l0.6-0.2l0.6-0.1
		l2.4-0.6c4.2-1,8.3-1.8,12.6-2.4c0.7-2.9,1.6-5.7,2.7-8.5c2.3-5.8,3.3-11.9,4.3-18.1c0.8-5,0.8-9.9,0-14.9c-0.5-3.5-1.2-7.1-2-10.6
		c-2.2-11-8.2-19.5-17.2-26.1c-3.1-2.3-6.2-4.5-9.4-6.7C718.5,499.4,715.7,497.5,713.6,494.8z"/>
	<path class="st3" d="M605.8,61.9c7.1,2.7,11.3,8,13.6,14.7c0.6,0.2,1.1,0.4,1.7,0.8c1.9,1.4,3.7,2.9,5.1,4.9
		c1.6,2.2,3.6,3.6,6.2,4.5c6.4,2.2,12.9,4.4,19,7.5c4.1,2.1,8.1,4.4,12.2,6.6c2.4,1.2,4.2,3.1,5.8,5.2c0.8,1.1,1.6,1.4,2.9,0.9
		c3.3-1.1,6.4-2.5,8.9-5.2c4.1-4.4,9.1-7.6,14.9-9.3c4.9-1.5,9.5-1.2,13.8,1.7c-0.1-1.4-0.3-2.8-0.4-4.2c-0.1-0.8-0.5-1.5-0.9-2.1
		c-3.6-5.8-7.7-11.3-12.6-16.1c-6.9-6.9-15.3-9.8-25.1-8.2c-2.7,0.4-5.3,1-8,1.6c-8.1,1.8-16.2,2.8-24.5,1.8
		c-9.6-1.1-18.8-4-27.7-7.8c-1.9-0.8-3.8-1.7-5.8-2.4c-3.6-1.2-7.4-1.8-11.3-0.9c3.7,1.2,6.9,3.1,10,5.2
		C604.3,61.3,605,61.6,605.8,61.9z"/>
	<path class="st3" d="M283.4,108.7c2.3,0.8,4.5,2,6.7,2.8c6.1,2.2,12.1,2.6,17.7-1.4c3-2.1,6.2-3.9,9.3-5.8c6.2-3.6,13.1-4.7,20-5.5
		c5.6-0.7,10.6-2.6,15.3-5.6c0.7-0.4,1.2-1,1.8-1.6c1.3-1.2,2.5-2.4,3.7-3.7c0.5-0.5,1.1-1,1.8-0.6c0.3,0.2,0.5,0.4,0.6,0.7
		c2.8-5.1,6.6-9.4,10.9-13.2c4.6-4,9.9-6.2,16.1-5.8c0.6,0,1.4,0.3,2.3-0.4c-1.5-1.2-3-2.2-4.4-3.3c-1.3-1-3-1.9-3.5-3.4
		c-0.8-2.5-2.7-2.9-4.8-3.1c-1.1-0.1-2.3-0.3-3.4-0.4c-12.4-1.6-23.1,2.2-32.1,10.8c-2.8,2.6-5.5,5.4-8.4,7.9
		c-11.9,10.2-24.9,18.3-40.9,20.5c-0.5,0.1-1,0.2-1.5,0.3c-6.1,1.2-9.9,5.1-12.8,10.3c0,0.1-0.1,0.1-0.1,0.2
		C279.4,108,281.3,108,283.4,108.7z"/>
	<path class="st3" d="M456.1,627.4c-2.2-2.4-4.5-4.9-7.3-6.8c-2.4-1.7-5-1.7-7.8-1.3c-8.1,1.2-15.7-0.2-22.5-4.6
		c-0.2-0.1-0.4-0.3-0.5-0.4c0.9,1.5,1.6,3,2.4,4.5c0.6,1.2,0.5,2.4-0.4,3.4c-1,1.1-2.2,1.2-3.6,0.7c-1.8-0.7-3.4-1.7-4.9-3
		c-2.3-2-4.3-4.3-6.2-6.7c-1.4-1.8-3.1-3.3-5.1-4.5c-1.1-0.7-2.2-1.4-3.2-2.1c-0.6,1.4-1.7,2.6-3.6,3.2c-2,0.7-3.8,1.7-5.7,2.7
		c-2.3,1.2-2.6,2.1-2.2,4.7c1,7.3,3,14.5,3.9,21.8c0.9,7.2,1,14.3-0.3,21.3h38.1c3.2-3.4,7.4-5.7,12.9-6.9c1.9-0.4,3.8-0.8,5.7-1
		c2.8-0.2,5.6-0.8,8.2-1.6c0.1-0.8,0.6-1.5,1.3-2.1c1-0.9,1.8-1.9,2.8-2.7c1.4-1.1,1.7-2.5,1.7-4.2c0-3.9-0.7-7.6-1.7-11.3
		C457.7,629.4,456.9,628.3,456.1,627.4z"/>
	<path class="st3" d="M277.3,143.3c0.6,8.1,2.4,15.9,7.1,22.7c0.6,0.9,1.1,2,1.6,3c1.6,3.5,2.1,7.2,1.6,11
		c-1.2,8.1-1.1,16.2-0.1,24.3c0.3,2.1,0.4,4.3,1.1,6.4c2.7-1.2,3.9-1,5.9,1.2c1.4,1.6,2.4,3.4,3.2,5.4c2.1,5.4,2.7,11,2.3,16.7
		c-0.1,1-0.3,2-0.1,3c0.7-0.1,0.9-0.6,1-0.9c1.2-4,2.7-7.9,3.5-11.9c0.3-1.5,0.4-3,0.5-4.5c-1.8-3.6-2.4-7.5-3.1-11.4
		c-0.2-1.2-0.4-2.4-1.1-3.4c-2.7-4.2-3.7-9-4.7-13.8c-1-4.8-0.4-9.7-0.5-14.6c0-1.7-0.2-3.3-0.4-4.9c-0.1-0.9-0.4-1.7-1.1-2.3
		c-0.9-0.8-1.7-1.8-2.3-2.9c-0.9-1.5-1-3-0.4-4.4c-4.2-4.3-7.2-9.3-8.4-15.4c-0.9-4.9-2.2-9.7-4.7-14.1c-0.3-0.5-0.3-1.2-1.1-1.2
		c-0.5,0.5-0.3,1-0.3,1.5C277,136.3,277,139.9,277.3,143.3z"/>
	<path class="st3" d="M217.6,584.5c0.6,0,1.1-0.1,1.7-0.1c4.8-0.2,9.7-0.1,14.5,0.2c-0.7-2.8-1.4-5.5-1.2-8.3
		c-0.2-4.1,0.7-7.8,2.4-11.3c2.2-4.5,5.8-7.3,10.2-9.3c2.3-1,4.7-1.8,7.1-2.6c4.4-1.5,7.6-4.3,10.3-8.1c4-5.9,6.3-12.4,7.8-19.3
		c0.6-2.8,0.4-5.5,0.2-8.3c-0.6-7.2-2.4-14.2-3.7-21.3c-0.4-2.1-0.8-4.3-0.7-6.5c0.1-1.3,0.4-2.6,0.8-3.8c0.4-1,0.8-1.8,1.4-2.4
		c-2.4-5.1-3.7-10.7-3.8-16.8c-0.2-11.3,2.1-22,8.1-31.8c3.4-5.6,4.4-11.9,3.4-18.4c-0.3-2.4-1.4-4.4-3.1-6.4
		c-2.1,3.1-3.9,6.1-5.6,9.1c-1.2,2.2-1.8,4.4-1.8,7c-0.1,14.1-3.2,27.5-9.7,40.1c-2.9,5.7-6.1,11.2-9.6,16.5
		c-3.1,4.7-6.4,9.4-9.5,14.2c-8.7,13.7-15.1,28.4-18.1,44.4c-2.5,13.2-2.5,26.6-1.4,40C217.3,582.4,217.4,583.5,217.6,584.5z"/>
	<path class="st3" d="M323.5,568.5c-1.2-1-2.3-2.1-3.3-3.3c-0.3-0.3-0.5-0.7-0.7-1c-0.7-0.4-1.3-0.8-2-1.2
		c-4.5-3.1-8.9-6.2-13.4-9.3c-2.5-1.7-4.7-3.6-6.5-5.9c0.8,3.5,1.8,7,1.6,10.7c0,0.6,0.1,1.2,0.5,1.8c2.2,3.8,1.8,7.7,0.8,11.7
		c-1,4-2.2,7.9-3,11.9c-1.1,5.2-1.7,10.4,0.5,15.4c1.2,2.7,2.5,5.4,4,8c0.1,0.2,0.2,0.4,0.4,0.6l0.4,0.3l2,1.5
		c0.3,0.3,0.7,0.5,1,0.8l1,0.8l1.9,1.6c0.6,0.5,1.2,1.1,1.9,1.7l0.9,0.8l0.5,0.4l0.5,0.4c1.2,1.2,2.4,2.3,3.6,3.5
		c0.6,0.6,1.2,1.2,1.7,1.8l1.7,1.9c0.3,0.3,0.6,0.6,0.8,0.9l0.8,0.9l1.6,1.9c0.4,0.5,0.8,0.9,1.2,1.4c-2.4-5.6-3.1-11.7-2.2-18.1
		c1-7.2,3-14,6.5-20.3c1.1-2,2.4-3.9,4.1-5.4c1.3-1.2,2.7-1.8,4.1-1.8c-2.6-2.5-4.5-5.5-6.7-8.4
		C327.8,572.3,325.8,570.3,323.5,568.5z"/>
	<path class="st3" d="M644.4,653.1c0.8-7.4-0.7-14.5-2.8-21.6c-1.6-5.5-1.7-11.2-1.4-16.9c0.1-2.1,0.7-4.1,1.3-6.1
		c0.5-1.8,0.1-3.2-1.2-4.5c-1.2-1.1-2.4-1.9-3.8-2.6c-0.4,4.3-1.8,8.3-4.7,11.9c-1.4,1.9-2.8,3.8-4.2,5.7c-1,1.3-1.3,2.6-1,4.1
		c0.4,1.9,0.8,3.8,1.1,5.7c0.3,1.6,0,3.2-1.5,4.2c-1.6,1.1-3.2,0.7-4.7-0.2c-1.5-0.9-2.8-1.9-3.9-3.2c-0.1,1.2-0.1,2.4,0.1,3.5
		c0.5,3.3-3.1,7.7-6.4,8.6c-6.2,1.7-11.3-0.2-16-4.1c-2.6-2.1-4.9-4.4-7-7c-3.7-4.5-5.8-9.7-6.3-15.5c-0.1-0.9,0.1-1.8-0.1-2.6
		c-0.4-2.3-1.1-4.1-3.7-5.2c-4.8-1.9-8.6-5-10.2-10.2c-0.2-0.7-0.6-1.3-1.1-1.9c-4.1,3.9-9.9,4.2-14.6,0.5c-0.1-0.1-0.1-0.1-0.2-0.2
		c-0.2,0.4-0.4,0.7-0.6,1.1c-1.1,2.3-3,3.7-5.2,5c-4.3,2.6-7.8,6.1-10.4,10.4c-1.6,2.6-1.4,5.3-0.9,8.1c0.1,0.8,0.2,1.5,0.2,2.2
		c1.1,0.4,2.2,0.9,3.3,1.7c3.1,2.1,4.9,5.4,4.1,9.1c-0.7,3.4-3.6,5.9-7.3,6c-6.3,0.3-12.4,0-17.7-4.1c-0.5-0.4-1.2-0.6-1.9-0.9
		c-4-1.9-7.2-4.7-9.4-8.4c-0.9-1.4-1.7-2.9-2.6-4.3c-0.3-0.5-0.4-1.2-1.3-1.1c-0.2,0.9-0.1,2-0.5,2.8c-1,2.3-1.1,4.7-1.6,7.1
		c-1,5.7-3.7,10.3-8.5,13.6c-1.9,1.3-3.8,2.4-5.8,3.7c-5.7,3.6-11,7.6-15.7,12.5H555c-0.9-0.7-1.8-1.4-2.8-2
		c-0.8-0.5-1.6-1.1-2.2-1.9c-1.1-1.5-1.4-3.2-0.5-4.9c0.9-1.6,2.3-2.3,4.1-2.3c0.9,0,1.7,0.3,2.5,0.7c3.5,1.8,7.2,3.2,10.9,4.6
		c3.1,1.2,5.5,3.1,7.4,5.8h66.3c0.2-0.1,0.4-0.3,0.6-0.4c1-0.7,2-1.5,2.9-2.3c0.2-0.2,0.3-0.3,0.5-0.5c-0.1-0.8-0.2-1.6-0.2-2.4
		C644.4,654.3,644.3,653.7,644.4,653.1z"/>
	<path class="st3" d="M686.7,543.6c2.5-5.8,4.7-11.7,6.7-17.6c2.2-6.4,3.4-13,3-19.8c-0.1-1.8-0.1-3.7-0.1-5.5
		c0.1-11.1,2.8-21.3,10.1-29.9c2.3-2.7,3.7-5.9,4.4-9.4c1-5.1,2.1-10.1,3.1-15.2c0.2-1.1,0.6-2.3,0.4-3.5c-0.8-0.1-1.1,0.4-1.4,0.8
		c-5.6,6-11.8,11.1-18.5,15.9c-2.2,1.6-4.4,3.3-6.4,5c0.3,0.5,0.6,1,0.8,1.6c0.3,0.7,0.5,1.5,0.5,2.3c0.3,5.5-0.2,11-2,16.2
		c-0.7,2-1.7,3.8-3.2,5.4c-1.1,1.1-1.6,2.4-1.6,4c0.1,5.1,0.1,10.2,0.9,15.4c0.7,4.7,0.6,9.6-0.1,14.4c-0.3,1.7-0.3,3.5-0.7,5.2
		c-0.3,1.4,0,2.8,0.8,4c2.6,4.1,3.3,8.1,2.7,12C686.4,544.4,686.5,544,686.7,543.6z"/>
	<path class="st3" d="M846.3,639.2c-1.9-3.8-4.3-7.4-7-10.7c-2.7-3.3-5.8-6.3-9.1-9c-3.3-2.6-7-4.9-10.8-6.8c0,0,0,0,0,0l-5.7-2.5
		c-0.6-0.5-1.2-1.1-1.8-1.6c-1.4-1.2-2.9-2.3-4.5-3.3c-6.7-3.7-14.2-5.8-21.7-7.1c-3.8-0.6-7.6-1-11.4-1.3c-2.5-0.1-5,0-7.5-0.4
		c-2.7-0.4-5.3-1.7-8-1.9c-1.1-0.1-2.1,0-3.2,0.1c-8.7,0.9-17.5,2.2-25.9,4.8c-4.2,1.3-8.4,2.9-12.3,4.9c-3.8,1.9-7.2,4.7-11.1,6.2
		c-1,0.4-1.9,0.8-2.8,1.2c-20.2,8.7-38.2,25.7-45.2,46.8c0,0,0,0,0,0c1.8-0.4,4,0.3,5.5-0.9c0.6-0.5,0.9-1.2,1.2-1.9
		c3.3-7,6.4-14.3,11.9-19.7c6.7-6.7,17.3-9.3,25.3-3.2c0,0,0-0.1,0-0.1c0,0.1,0.1,0.1,0.1,0.2c0.5,0.4,0.9,0.8,1.3,1.2
		c0,0,0,0,0.1,0.1c0.1,0.1,0.3,0.3,0.4,0.4c0.5,0.5,1,1,1.4,1.6c0.1,0.1,0.2,0.2,0.2,0.3c-0.7,0-1.4,0-2,0.1c-1.4,0.2-2.9,0.5-4.2,1
		c-2.7,1-5.2,2.5-7.6,4.1c-0.6,0.4-1.2,0.8-1.8,1.3l-0.9,0.6l-1.6,1.2l-0.8,0.6c0,0,0.9-0.2,1-0.3c4.2-1.1,8.4-1.1,12.3,0.7
		c0.3,0.2,0.6,0.3,0.9,0.5c0.3,0.2,0.6,0.3,0.9,0.6c0.6,0.4,1.1,0.8,1.7,1.3c1.1,0.9,2,2,2.9,3.1c0.9,1.3,1.7,2.7,2.4,4.1
		c0,0,0,0,0,0c-0.1,0.4-0.2,0.8-0.3,1.2c-0.1,0.2-0.1,0.5-0.2,0.7c0,0,0,0.1,0,0.1c-0.1,0.5-0.1,0.9-0.2,1.4c0,0.1,0,0.2,0,0.3
		c0,0.1,0,0.2,0.1,0.3c0,0.2,0.1,0.4,0.1,0.6c0,0,0-0.1,0-0.1c0,0,0,0.1,0,0.1c0,0,0,0,0,0.1c0,0,0,0,0-0.1c0.2,0.8,0.3,1.5,0.5,2.3
		c0.2,0.9,0.4,1.8,0.6,2.7c1.1,1.9,2.3,3.7,3,5.8c0.1,0.2,0.1,0.4,0.2,0.6c0,0.1,0,0.1,0,0.2c0.1,0.2,0.1,0.4,0.2,0.6c0,0,0,0,0,0
		c0,0.2,0.1,0.4,0.1,0.6c0,0.1,0,0.1,0,0.2c0,0.2,0.1,0.4,0.1,0.5c0,0,0,0.1,0,0.1c0,0.2,0.1,0.4,0.1,0.6c0,0.1,0,0.2,0,0.2
		c0,0.1,0,0.3,0,0.4c0,0.1,0,0.2,0,0.3c0,0.1,0,0.3,0,0.4c0,0.1,0,0.2,0,0.3c0,0.1,0,0.2,0,0.3c0,0.2,0,0.4,0,0.6c0,0,0,0.1,0,0.1
		c0,0.1,0,0.3,0,0.4c0,0,0,0,0,0c0,0.3,0,0.6,0,0.9c0.1,0.1,0.2,0.3,0.4,0.4c0.6,0.8,1.2,1.5,1.8,2.2c0.3,0.3,0.6,0.6,0.9,0.9
		c2.6,2.2,5.2,4.3,8.7,5.1c5.3,1.2,10.9-0.5,16.3-0.1c1.1,0.1,2.2,0.3,3.1-0.2c1.9-0.8,3-3.8,4-5.4c1.5-2.6,2.7-5.3,3.8-8
		c2-5.3,3.2-10.8,3.6-16.4c0.7-8.9-0.9-17.8-4.5-26c-1.8-4.1-4-7.9-6.6-11.5c-2.6-3.6-5.6-6.9-8.9-9.9c-0.4-0.4-0.8-0.7-1.2-1.1
		l-2.1-1.8l0,0c0,0,0,0,0,0l0.1,0l0.2,0l0.4,0.1l0.8,0.2l1.2,0.3l0.4,0.1l0.4,0.1l0.8,0.2c2.1,0.7,4.2,1.5,6.2,2.5
		c18.4,9.6,26.4,29,27.6,48.7c0,0.1,0,0.3,0,0.4c0,0.6,0,1.2,0,1.8c0,0.5,0,1.1-0.1,1.7c0,0.5-0.1,1-0.1,1.5c0,0.1,0,0.1,0,0.2
		c-0.1,0.4-0.1,0.7-0.2,1.1c0,0.3-0.1,0.7-0.2,1c0,0.2-0.1,0.5-0.1,0.7c-0.5,3.3-1.6,6.5-2.7,9.6c-1.1,3.3-3,6.6-1.6,10.1
		c2.9,7.4,9.5,9.8,16.7,10.9c1,0.2,1.9,0.3,2.9,0.4c1.2,0.2,2.4,0.3,3.6,0.4c1.4,0.1,2.8,0.3,4.2,0.4c0.3,0,0.5,0,0.8,0.1
		c0.2,0,0.5,0,0.7,0.1c0.5,0,1,0,1.5,0c0-0.1,0-0.1,0-0.2c0.6-2.8,2.1-5.3,3.4-7.8c6.1-11.8,8.4-25.9,6.5-39.4
		c-1.8-12.5-8.8-24-17.5-32.9c-0.8-0.8-1.8-2-1.6-3.2c3.1,0.8,6.4,3.4,9.1,5.1c3.3,2.1,6.6,4.3,9.6,6.8c5.5,4.6,10.6,10.4,11.7,17.7
		c2.1,13.9,6,14.7,4.1,28.6c-0.5,3.7-2.7,7.1-3.5,10.8c-1,5.2-1.3,10-3.3,15c-0.1,0.3-0.3,0.6-0.4,0.9c-0.1,0.4-0.3,3-0.9,2.7
		c2.5,0.8,14.6,3.2,15.2-1.2l0.3-2.4l3-16.7c2.9-16.5,3.4-32.9-4.1-48.3c-1.6-3.3-4.4-9.5-6.5-11.5c0.3,0.2,0.5,0.5,0.8,0.7
		c4.1,3.9,7.9,7.5,10.9,12.3c3.5,5.6,6.6,11.9,9,18.1c0.2,0.5,0.3,1,0.5,1.5c0.7,2,1.2,4,1.6,6.1c0.8,4.1,1.3,8.3,1.3,12.4
		c-0.1,4.1-0.5,8.3-1.5,12.3c-0.3,1.2-0.6,2.4-1,3.7c0.4-0.1,0.7-0.2,1.1-0.3c1-0.4,1.9-1.1,2.7-2c0.7-0.8,1.3-1.7,1.8-2.7
		c0.5-1,0.9-2,1.3-3c0.2-0.5,0.3-1,0.4-1.5C854.2,667.5,852.8,652.2,846.3,639.2z M711.4,608C711.4,608,711.4,608,711.4,608
		c0.1,0,0.1-0.1,0.1-0.1C711.5,607.9,711.4,608,711.4,608z"/>
	<path class="st3" d="M286.3,611.8c-0.9-0.4-1.9-0.8-2.8-1.2c-4-1.5-7.3-4.3-11.1-6.2c-4-2-8.1-3.6-12.3-4.9
		c-8.4-2.5-17.2-3.9-25.9-4.8c-1.1-0.1-2.1-0.2-3.2-0.1c-2.8,0.2-5.3,1.4-8,1.9c-2.5,0.4-5,0.3-7.5,0.4c-3.8,0.2-7.6,0.6-11.4,1.3
		c-7.5,1.2-15,3.4-21.7,7.1c-1.6,0.9-3.1,2-4.5,3.3c-0.6,0.5-1.2,1.1-1.8,1.6l-5.7,2.5c0,0,0,0,0,0c-3.8,1.9-7.4,4.2-10.8,6.8
		c-3.3,2.7-6.4,5.7-9.1,9c-2.7,3.3-5,6.9-7,10.7c-6.5,13-7.8,28.3-4.1,42.2c0.1,0.5,0.3,1,0.4,1.5c0.3,1,0.8,2,1.3,3
		c0.5,1,1.1,1.9,1.8,2.7c0.7,0.8,1.6,1.5,2.7,2c0.3,0.1,0.7,0.2,1.1,0.3c-0.4-1.2-0.7-2.4-1-3.7c-0.9-4-1.4-8.1-1.5-12.3
		c0-4.1,0.5-8.3,1.3-12.4c0.4-2.1,1-4.1,1.6-6.1c0.2-0.5,0.3-1,0.5-1.5c2.4-6.2,5.4-12.5,9-18.1c3-4.8,6.9-8.5,10.9-12.3
		c0.2-0.2,0.5-0.5,0.8-0.7c-2.1,1.9-4.9,8.2-6.5,11.5c-7.5,15.4-7,31.8-4.1,48.3l3,16.7l0.3,2.4c0.6,4.4,12.7,2,15.2,1.2
		c-0.6,0.2-0.9-2.4-0.9-2.7c-0.1-0.3-0.2-0.6-0.4-0.9c-1.9-5-2.3-9.8-3.3-15c-0.7-3.7-3-7.1-3.5-10.8c-1.8-13.9,2-14.8,4.1-28.6
		c1.1-7.3,6.3-13.1,11.7-17.7c3-2.5,6.2-4.7,9.6-6.8c2.7-1.7,6-4.3,9.1-5.1c0.2,1.2-0.8,2.3-1.6,3.2c-8.7,8.9-15.8,20.4-17.5,32.9
		c-1.9,13.4,0.4,27.6,6.5,39.4c1.3,2.5,2.8,5,3.4,7.8c0,0.1,0,0.1,0,0.2c0.5,0,1,0,1.5,0c0.2,0,0.5,0,0.7-0.1c0.3,0,0.5,0,0.8-0.1
		c1.4-0.2,2.8-0.3,4.2-0.4c1.2-0.1,2.4-0.2,3.6-0.4c1-0.1,1.9-0.2,2.9-0.4c7.2-1.1,13.8-3.5,16.7-10.9c1.4-3.5-0.5-6.7-1.6-10.1
		c-1-3.1-2.2-6.4-2.7-9.6c0-0.2-0.1-0.5-0.1-0.7c-0.1-0.3-0.2-0.7-0.2-1c-0.1-0.4-0.1-0.7-0.2-1.1c0-0.1,0-0.1,0-0.2
		c0-0.5-0.1-1-0.1-1.5c0-0.5,0-1.1-0.1-1.7c0-0.6,0-1.2,0-1.8c0-0.1,0-0.3,0-0.4c1.2-19.7,9.1-39.1,27.6-48.7c2-1,4.1-1.9,6.2-2.5
		l0.8-0.2l0.4-0.1l0.4-0.1l1.2-0.3l0.8-0.2l0.4-0.1l0.2,0l0.1,0c0,0,0,0,0,0l0,0l-2.1,1.8c-0.4,0.4-0.8,0.7-1.2,1.1
		c-3.3,3-6.2,6.3-8.9,9.9c-2.6,3.6-4.8,7.5-6.6,11.5c-3.5,8.1-5.1,17.1-4.5,26c0.4,5.6,1.6,11.2,3.6,16.4c1,2.8,2.3,5.5,3.8,8
		c1,1.7,2.1,4.7,4,5.4c1,0.4,2.1,0.2,3.1,0.2c5.4-0.5,11,1.3,16.3,0.1c3.4-0.8,6.1-2.9,8.7-5.1c0.3-0.3,0.6-0.6,0.9-0.9
		c0.6-0.7,1.2-1.5,1.8-2.2c0.1-0.2,0.2-0.3,0.4-0.4c0-0.3,0-0.6,0-0.9c0,0,0,0,0,0c0-0.1,0-0.3,0-0.4c0,0,0-0.1,0-0.1
		c0-0.2,0-0.4,0-0.6c0-0.1,0-0.2,0-0.3c0-0.1,0-0.2,0-0.3c0-0.1,0-0.3,0-0.4c0-0.1,0-0.2,0-0.3c0-0.1,0-0.3,0-0.4c0-0.1,0-0.2,0-0.2
		c0-0.2,0.1-0.4,0.1-0.6c0,0,0-0.1,0-0.1c0-0.2,0.1-0.4,0.1-0.5c0-0.1,0-0.1,0-0.2c0-0.2,0.1-0.4,0.1-0.6c0,0,0,0,0,0
		c0-0.2,0.1-0.4,0.2-0.6c0-0.1,0-0.1,0-0.2c0.1-0.2,0.1-0.4,0.2-0.6c0.7-2.1,1.9-3.9,3-5.8c0.2-0.9,0.4-1.8,0.6-2.7
		c0.2-0.8,0.3-1.5,0.5-2.3c0,0,0,0,0,0.1c0,0,0,0,0-0.1c0,0,0-0.1,0-0.1c0,0,0,0.1,0,0.1c0-0.2,0.1-0.4,0.1-0.6c0-0.1,0-0.2,0.1-0.3
		c0-0.1,0-0.2,0-0.3c0-0.5-0.1-0.9-0.2-1.4c0,0,0-0.1,0-0.1c-0.1-0.2-0.1-0.5-0.2-0.7c-0.1-0.4-0.2-0.8-0.3-1.2c0,0,0,0,0,0
		c0.7-1.4,1.5-2.8,2.4-4.1c0.8-1.1,1.8-2.2,2.9-3.1c0.6-0.4,1.1-0.9,1.7-1.3c0.3-0.2,0.6-0.4,0.9-0.6c0.3-0.2,0.6-0.3,0.9-0.5
		c4-1.9,8.2-1.8,12.3-0.7c0.1,0,1,0.3,1,0.3l-0.8-0.6l-1.6-1.2l-0.9-0.6c-0.6-0.4-1.2-0.8-1.8-1.3c-2.4-1.6-4.9-3.1-7.6-4.1
		c-1.4-0.5-2.8-0.8-4.2-1c-0.7-0.1-1.4-0.1-2-0.1c0.1-0.1,0.2-0.2,0.2-0.3c0.4-0.6,0.9-1.1,1.4-1.6c0.1-0.1,0.3-0.3,0.4-0.4
		c0,0,0,0,0.1-0.1c0.4-0.4,0.9-0.8,1.3-1.2c0-0.1,0.1-0.1,0.1-0.2c0,0,0,0.1,0,0.1c8-6.1,18.6-3.5,25.3,3.2
		c5.5,5.4,8.7,12.7,11.9,19.7c0.3,0.7,0.7,1.4,1.2,1.9c1.4,1.2,3.6,0.5,5.5,0.9c0,0,0,0,0,0C324.5,637.5,306.4,620.5,286.3,611.8z
		 M278.1,607.9c0,0,0.1,0.1,0.1,0.1c0,0,0,0,0,0C278.2,608,278.2,607.9,278.1,607.9z"/>
</g>
</svg>
