<?xml version="1.0" encoding="utf-8"?>
<!-- Generator: Adobe Illustrator 24.0.1, SVG Export Plug-In . SVG Version: 6.00 Build 0)  -->
<svg version="1.1" id="Layer_1" xmlns="http://www.w3.org/2000/svg" xmlns:xlink="http://www.w3.org/1999/xlink" x="0px" y="0px"
	 viewBox="0 0 990 781.2" style="enable-background:new 0 0 990 781.2;" xml:space="preserve">
<style type="text/css">
	.st0{fill:#DBAA2D;}
	.st1{fill:#535459;}
	.st2{fill:#AF741F;}
	.st3{fill:#FFFFFF;}
	.st4{fill:#E4716B;}
</style>
<g>
	<path d="M206.1,732.6c-0.8,1.6-0.9,3-1.1,4.3c-0.6,3.5-2.7,6.1-4.8,8.7c-1.1,1.4-2.7,1.5-4.4,1.1c-5.2-1.4-9.8-3.8-13.5-7.8
		c-3.8-4.1-7.5-8.3-10.4-13.1c-0.8-1.4-2-2.5-3.4-3.3c-7.2-4-11.9-10.2-16.1-17c-0.4-0.6-0.7-1.3-1-1.9c-2.7-7.2-4.8-14.4-4.4-22.2
		c0.4-8.2,1.5-16.2,4.2-24c1.9-5.2,4.7-9.8,8.7-13.7c1.5-1.5,3.1-3.1,4.8-4.4c5.7-4.5,11.3-9.1,17.2-13.4
		c12.7-9.3,27.1-14.5,42.8-16.1c2.5-0.2,5.1-0.4,7.6-0.6c0.2-0.7-0.3-0.9-0.6-1.3c-1-1.4-1.3-2.8-0.9-4.5c0.6-2.2,1.4-4.4,2.3-6.6
		c2.4-5.9,4.8-11.8,7.2-17.8c0.2-0.4,0.3-0.7,0.4-1.1c0.2-0.4,0.5-0.9,0.1-1.3c-0.4-0.5-0.9-0.1-1.3,0c-1.5,0.4-2.9,0.8-4.4,1.2
		c-4.1,1.1-8.3,1.6-12.6,1.2c-2.6-0.2-5.1-0.1-7.6,0.8c-3.1,1.1-6.4,0-8.2-2.4c-1.8-2.3-1.8-5.5-0.1-8.3c0.6-1,1.4-2,2.3-2.7
		c3-2.4,5.1-5.5,7-8.7c4.9-8.4,8.7-17.3,12-26.4c3.6-10,6.6-20.2,9.4-30.5c1.8-6.7,1.8-13.5,0.9-20.3c-2-15.5-3.2-31-3.6-46.6
		c-0.3-14.5,2.5-28.4,7.8-41.9c4.6-12,10-23.6,17.6-34c1.5-2.1,2.8-4.3,4.2-6.4c0.4-0.7,1-1.3,0.9-2.2c-0.7-0.5-1.6-0.2-2.3-0.2
		c-4.5,0.2-8.9-0.4-13.3-1.4c-2-0.5-3.8-1.3-5.4-2.4c-1.1-0.8-2.1-1.8-2.5-3.1c-0.3-1.2-1.1-1.9-2-2.5c-1.1-0.7-2.3-1.5-3.4-2.3
		c-1.1-0.7-2-1.6-2.7-2.7c-2.4-3.7-1.2-8,2.7-9.9c1.8-0.8,3.7-1,5.6-1.4c3.6-0.6,7.1-1,10.7-1.7c9-1.7,17.1-5.8,24.8-10.4
		c2.1-1.3,4.1-2.7,6.2-4c-0.3-1.1-1-0.7-1.4-0.7c-8.6,1.1-17.1-0.1-25.4-2.2c-3-0.7-5.8-2.2-8.5-3.8c-4.3-2.6-8.6-5.3-13.3-7.2
		c-1-0.4-1.8-1-2.4-1.9c-0.9-1.4-0.6-2.8,0.9-3.7c1-0.6,2.1-0.8,3.2-0.9c4.1-0.4,8-1.7,11.8-3.1c4.9-1.9,9.8-4,14.4-6.6
		c0.5-0.3,1.2-0.4,1.3-1.2c-0.6-0.5-1.2-0.1-1.8,0c-1.6,0.3-3.1,0.7-4.7,1c-5.1,0.8-8.3-3.3-6.5-8.1c0.1-0.3,0.2-0.6,0.4-0.9
		c2.3-4.5,3.9-9.3,5.3-14.1c3.7-12.9,9.6-24.7,17.3-35.6c3.1-4.4,6.6-8.5,10.9-11.8c2-1.6,4.2-2.9,6.5-4c1.8-0.9,1.8-1.2,0.2-2.4
		c-2.3-1.7-4.7-3.3-7.1-4.9c-2.5-1.7-5.1-3.3-7.7-4.9c-1.6-1.1-3.2-2.2-4.4-3.7c-2.7-3.2-2.5-6.9,0.5-9.8c1.4-1.3,2.9-2.6,4.3-3.8
		c1.6-1.3,2.2-3,2.1-5.1c-0.2-8.7-0.9-17.4-0.5-26.1c0.8-15.9,1-31.8,2.4-47.7c1-11.6,2.7-23,6.5-34.1c0.9-2.5,1.4-5.1,2-7.6
		c1.5-6,5.4-7.5,10.5-3.9c0.9,0.6,1.7,1.4,2.5,2.2c1.6,1.5,3.1,3,4.7,4.4c1,0.9,2.2,1.7,3.5,2c9.1,1.8,17.9,4.9,26.9,7
		c2.4,0.6,4.8,1,7.3,1.6c3.5,0.7,6.8,1.8,10,3.2c18.7,8.2,35,19.5,47.4,36c2,2.7,4.3,5.2,6.5,7.7c1,1.2,1.4,1.1,1.8-0.5
		c0.8-3.7,2-7.4,2.3-11.3c0.1-0.9,0.3-1.9,0.6-2.8c1.2-3,4.4-3.8,6.9-1.8c1.2,0.9,1.9,2.2,2.5,3.5c1.4,3.1,2.8,6.1,4.1,9.2
		c1.2,2.7,2.9,5,5.2,6.7c6.7,5.1,12.1,11.4,16.3,18.6c2.6,4.5,5.6,8.7,9,12.7c2.8,3.4,5.5,6.8,8.3,10.2c1.5,1.8,1.5,1.8,3.6,1
		c2.6-1,5.3-1.2,8-1.6c8.9-1.4,17.9-2.7,26.9-3.2c8.9-0.5,17.7-1,26.6,0.7c3.7,0.7,7.3,1.8,10.8,3.1c0.4,0.2,0.9,0.4,1.3,0.5
		c1.4,0.4,1.7,0.2,1.5-1.3c-0.4-3.8-0.9-7.6-1.4-11.4c-0.3-2.2-0.7-4.4-1-6.6c-0.5-3.9-1.5-7.7-2.8-11.4c-0.6-1.6-0.9-3.2-0.8-4.9
		c0.2-3.1,2.6-5,5.8-4.6c1.4,0.2,2.6,0.8,3.7,1.6c3.4,2.2,6.2,5.1,8.5,8.4c1,1.4,1.9,2.8,2.8,4.2c0.4,0.6,0.8,1.4,1.6,1.6
		c0.8-0.3,0.8-1.1,1-1.6c3.1-9.3,8.2-17.5,13.8-25.4c0.3-0.5,0.7-0.9,1.1-1.2c2.6-2.3,6.1-1.5,7.6,1.6c0.5,1,0.7,2.1,0.7,3.3
		c0.2,3,0.2,6.1,0,9.1c-0.2,2.8,0.3,5.6,0.9,8.3c0.1,0.6,0.3,1.3,1,1.5c0.9,0.2,1.3-0.3,1.8-0.9c0.2-0.3,0.4-0.7,0.7-1
		c8.1-12.7,17.9-24.1,28.6-34.8c8-8,16.2-15.9,25.1-23c11.2-8.9,23.2-16.5,35.8-23.1c10.7-5.6,22.1-8.8,33.9-10.7
		c6.3-1,12.7-1.3,19.1-1.9c1.4-0.1,2.9-0.1,4.3,0c3.4,0.3,5.6,2.3,6.3,5.6c0.8,4.2,1.4,8.4-0.1,12.5c-0.2,0.7-0.3,1.4-0.3,2.1
		c-0.3,5-0.7,10.1-0.9,15.1c-0.4,6.7,0.4,13.2,2,19.7c1.9,7.4,3.5,14.9,4.2,22.6c1.2,12.9,0.3,25.7-3.3,38.2
		c-2.1,7.1-4.3,14.2-7.2,21.1c-3.6,8.5-8,16.6-13.7,23.8c-1.5,1.8-1.4,2,0.8,2.7c6.4,2.1,12.4,5.1,18.2,8.5c3.4,2,6.4,4.5,9.1,7.4
		c8.1,9.1,14.5,19.1,18.1,30.8c1.6,5.2,3.6,10.3,5.8,15.2c0.6,1.5,1.2,3,1.1,4.6c-0.1,3.7-3.1,6.2-6.6,5.2
		c-5.2-1.5-10.6-1.7-15.9-1.7c-0.7,0-1.8-0.4-2.1,0.6c-0.2,0.8,0.8,1.3,1.4,1.8c3.4,2.6,6.3,5.7,8.8,9.1c2.9,4.1,6.1,8.1,9.2,12
		c2.2,2.8,4.3,5.6,5.9,8.8c0.7,1.4,1.3,2.9,1.6,4.5c0.4,2.5-0.8,4-3.4,4.1c-1.5,0.1-2.9,0-4-1.1c-0.6-0.6-1.5-0.6-2.3-0.6
		c-3.8-0.3-7.4-1.3-10.8-3c-1.1-0.5-2.3-0.8-3.5-0.7c-4,0.2-7.9,1.1-11.6,2.2c-0.2,0.7,0.1,0.9,0.5,1.1c5.9,2.5,10.6,6.5,15.2,10.7
		c1.4,1.3,2.9,2.5,4.6,3.5c1.8,1,2.6,2.5,2.4,4.6c-0.2,2-1.4,3.3-3.3,4c-1,0.4-2.2,0.3-3.1,1c0,0.7,0.5,1,0.9,1.4
		c3.4,3.2,6,6.8,8.2,10.8c2,3.7,4,7.4,6.1,11.2c0.5,0.9,1,1.8,1.2,2.9c0.1,0.6,0.2,1.3-0.5,1.7c-0.7,0.4-1.2-0.1-1.6-0.6
		c-4.6-5.6-10.6-9.1-17.2-11.8c-0.6-0.3-1.3-0.7-2-0.4c-0.4,0.7,0.2,1.1,0.5,1.5c2.5,3.3,4.4,6.9,6,10.6c1.9,4.5,3.9,8.9,5.8,13.4
		c2.8,6.9,6.4,13.4,10.6,19.6c2.6,3.9,5.1,7.9,7.4,12.1c3.4,6.2,6.1,12.7,7.9,19.5c1.6,5.9,3.6,11.6,6.2,17.1
		c0.4,0.8,0.6,1.6,0.6,2.5c0,5.9,0,11.8,0,17.8c0,1.8-0.5,2.1-2.1,1.4c-2-0.8-3.7-2.2-5.3-3.7c-2.5-2.2-5-4.2-7.8-5.9
		c-0.7-0.4-1.3-0.9-2.1-1c-0.7,0.7-0.1,1.2,0.1,1.8c3.7,8.3,6.2,16.9,7.4,26c0.8,6.4,0.7,12.7,0.2,19.1c-0.6,8.8-1.6,17.5-4.7,25.8
		c-1.5,4-2.9,8.1-4.5,12.1c-3.9,9.7-5.5,19.8-5.4,30.3c0.1,12.5,1,24.9,3.1,37.2c0.5,3.1,1.2,6.1,1.7,9.2c0.1,0.9,0.5,1.3,1.3,1.4
		c5,1.1,9.7,3.2,14.5,4.9c3.2,1.2,6.3,2.7,9.3,4.4c7.4,4.2,14.4,8.9,21.3,13.9c0.7,0.5,1.2,1,1.7,1.6c5.4,6.8,10.4,13.8,14.6,21.4
		c1.2,2.2,2.2,4.4,3.3,6.7c1.9,4.3,2.3,8.8,1.7,13.4c-1.2,8.6-3.7,16.8-6.8,24.9c-1,2.6-2.6,4.8-4.2,7c-3.3,4.5-7,8.8-12,11.5
		c-2,1.1-3.6,2.6-4.8,4.6c-2.8,4.9-6.7,9-10.5,13c-3.6,3.8-8.1,6-13,7.2c-2.2,0.6-3.6-0.2-5-1.9c-2.5-3.1-4.1-6.6-4.6-10.6
		c-0.1-0.4,0-1-0.7-1.4c-1.1,1-2.2,2.1-3.4,3.2c-1.8,1.8-3.6,3.6-5.8,5c-3.8,2.4-7.4,1.5-9.4-2.4c-1.7-3.4-2.6-7-2.6-10.9
		c0-0.7,0-1.4,0-2.2c0.2-1.6-0.5-2.7-1.8-3.6c-1.3-0.9-2.7-1.7-4.2-2.3c-4-1.7-6.7-4.5-7.9-8.7c-0.1-0.4-0.3-0.7-0.5-1.1
		c-0.1-0.1-0.2-0.2-0.4-0.3c-1.1,0-1.8,0.8-2.5,1.6c-1.5,1.7-2.3,3.8-3,5.9c-1.8,5.5-4.8,10.1-9.4,13.6c-3.5,2.7-7.6,2-10.2-1.7
		c-1.9-2.7-3-5.7-3.2-8.9c-0.2-3-1.7-4.6-4.1-5.9c-5-2.7-8.7-6.9-12.5-11.1c-0.3-0.3-0.6-0.6-0.6-1c-0.5-2.2-2.1-2.3-4-2.3
		c-136.3,0-272.6,0-408.9,0c-0.5,0-1,0-1.4,0c-1.2-0.1-1.9,0.3-2.3,1.5c-0.2,0.6-0.6,1.2-1,1.6c-3.6,4.1-7.4,8.2-12.2,11.1
		c-0.5,0.3-1.1,0.6-1.7,1c-1.6,0.9-2.4,2.1-2.6,4c-0.3,3.3-1.1,6.5-2.9,9.3c-1.1,1.8-2.5,3.1-4.5,3.7c-1.9,0.6-3.8,0.4-5.5-0.8
		c-4.9-3.5-8.1-8.3-10-14c-0.7-2.1-1.4-4.2-3-5.9c-0.4-0.5-0.9-1-1.4-1.3c-1.1-0.7-1.4-0.6-1.9,0.7c-0.2,0.5-0.4,1.1-0.5,1.6
		c-1.2,3.1-3.2,5.5-6.3,6.9c-1.7,0.8-3.3,1.6-4.9,2.6c-1.6,1-2.5,2.3-2.3,4.3c0.4,4-0.5,7.8-2,11.5c-0.6,1.4-1.3,2.7-2.6,3.7
		c-2,1.6-4.2,1.8-6.5,0.5c-2.2-1.2-4-2.9-5.8-4.6C209.2,735.6,207.8,734.2,206.1,732.6z"/>
</g>
<g>
	<path class="st0" d="M692.4,177.4c-2.5,1.2-5.1,2.4-7.8,3.1c-1.6,0.4-3.2,0.7-4.9,0.4c-4.2-0.6-6.7-4.4-5.3-8.5
		c0.4-1.1,1-2.1,1.6-3c2.1-3.1,4.5-5.9,7.3-8.3c1.9-1.7,3.8-3.4,5.6-5.1c0.7-0.7,1.5-1.3,1.7-2.2c-0.2-0.6-0.6-0.5-0.9-0.5
		c-11.8,0.8-23.4-0.4-35.1-1.8c-4.3-0.5-8.7-1-13-0.5c-5.1,0.5-9.8,2.4-14.5,4.5c-1.1,0.5-2.2,1.1-3.4,1.3c-2.7,0.6-5.2-0.3-6.5-2.3
		c-1.5-2.2-1.4-4.5-0.1-6.7c1.3-2.1,2.8-4,4-6.2c2.9-5.1,5.8-10.3,8.8-15.4c0.2-0.3,0.5-0.7,0.3-1.2c-0.7,0-1.1,0.6-1.6,0.9
		c-7.6,5.4-14.5,11.5-21,18.2c-0.8,0.8-1.3,1.8-1.7,2.9c-1.4,3.8-3,7.6-4.5,11.4c-0.3,0.7-0.5,1.4-0.8,2.1c-0.4,1-0.4,1.7,0.7,2.2
		c0.4,0.2,1,0.5,1.2,0.9c1.1,2.2,3.1,2.5,5.3,2.5c1.1,0,2.1,0.4,3.1,0.9c2.8,1.4,5.5,2.9,8.2,4.4c0.5,0.3,1,0.6,1.2,1.2
		c0.2,0.4,0.2,0.8-0.1,1.2c-0.3,0.3-0.7,0.5-1.1,0.2c-1.2-0.9-1.9-0.5-2.3,0.9c-2.7,1.2-4.9,3.2-7.5,4.4c-0.4,0.2-1,0.1-1.5,0.1
		c-3.7-0.1-7.4,0.4-11,0.9c-1.4,0.2-2.8,0.3-4.2,0.3c-2.3,0.1-4.4-0.6-6-2.3c-0.7-0.7-1.4-1.1-2.4-0.9c-7.1,1-13.8,3.1-18.4,9.2
		c-0.2,0.3-0.4,0.6-0.6,0.8c-1,0.9-2.2,0.4-2.3-0.9c-0.2-1.2,0.2-2.3,0.8-3.3c2.2-3.7,4.7-7.1,7.9-10c0.6-0.5,1.4-0.9,1.4-1.9
		c0.1-2.2,1.4-3.8,2.8-5.4c1.8-2.1,3.7-4.1,5.7-6.1c0.2-2.5,0.8-5,1.3-7.5c0.3-1.1,0.6-2.2,0.9-3.3c-0.6,0.9-1.4,1.5-2.6,1.4
		c-1.3-0.1-2.1-1-2.4-2.7c-0.4-2.3-0.8-4.7-0.7-7.1c0.2-4.3-0.2-8.5-1.1-12.7c-0.4-2.2-0.3-4.5-0.9-6.8c-1,0.5-1.1,1.3-1.5,2
		c-3.4,6.9-5.6,14.2-6.4,21.9c-0.1,1.1-0.2,2.1-0.6,3.1c-0.5,1.5-1.6,2.5-3.3,2.6c-1.6,0.1-2.9-0.6-3.6-2c-0.3-0.6-0.6-1.4-0.8-2
		c-0.6-1.6-1.2-3.2-2-4.8c-1.1-2.4-2.7-4.5-4.7-6.8c-0.2,1.2,0.2,1.9,0.4,2.6c1.4,5,2.2,10.1,1.4,15.3c-0.4,2.5-0.6,5-0.4,7.6
		c0.1,1,0,2-0.2,2.9c-0.7,3.5-3.2,5.3-6.8,5c-1.1-0.1-2.3-0.3-3.4-0.6c-10.7-2.4-21.6-3.3-32.5-3.5c-9.6-0.1-19.2,0.4-28.7,1.9
		c-4.3,0.7-8.6,1-12.6,3c-1.6,0.8-3.4,0.9-5,0.3c-1-0.4-1.8-0.4-2.8,0.2c-3.9,2.3-7.7-0.5-7.2-4.5c0.2-1.4-0.1-2.8-0.6-4.1
		c-1.2-3.4-2.6-6.7-4.7-9.7c-1.2-1.7-2.4-3.5-3.5-5.3c-5.4-9-13.2-15.8-21.2-22.4c-1.8-1.5-3.8-2.9-5.2-4.8c-0.2-0.3-0.5-0.7-1-0.4
		c-0.4,2.1-0.7,4.2-0.7,6.3c0,4.3,0.2,8.5,0,12.8c-0.1,2.2,0.6,3.5,2.4,4.7c5.7,3.7,10.4,8.5,14.6,13.8c1.1,1.4,2.2,2.8,2.9,4.5
		c0.7,1.8,0.7,3.2-0.3,3.9c-1.4,1-2.5,0.1-3.6-0.6c-3-1.8-5.8-4.1-8.5-6.3c-3-2.5-6-5.1-9.8-6.4c-0.4-0.2-0.9-0.5-1.2-0.8
		c-2.4-2.6-5.3-4.4-8.4-6c-8.2-4.3-16.7-7.9-25.5-11c-2.7-0.9-5.5-1.7-8.3-2.2c-1.6-0.3-3.1-0.8-5-0.7c0.4,1,1.3,1.3,1.9,1.7
		c3.3,2.1,6.7,4.2,9.6,6.9c1.8,1.6,3.4,3.5,5.9,4.4c1.5,0.6,2.2,2,2.1,3.6s-1.1,2.7-2.6,3.2c-1.3,0.5-2.7,0.8-4.1,0.8
		c-2.1,0.1-4.1,0.6-6.1,0.9c-7.2,1.3-14.2,3.2-21.5,4.3c-7.9,1.2-15.7,0.8-23.2-2.3c-0.4-0.2-0.9-0.5-1.4-0.2c0,0.5,0.3,0.8,0.5,1.1
		c4,4.5,8.3,8.7,13,12.4c1.4,1.1,3,1.9,4.8,2.3c0.9,0.2,1.7,0.5,2.5,1c3.3,1.8,3.5,5.9,0.4,8.2c-1.2,0.9-2.6,1.3-4.1,1.5
		c-2,0.3-4.1,0.4-6.1,0.4c-4,0-7.6,1.4-11.5,2.4c0.3,0.4,0.3,0.6,0.4,0.6c0.8,0.6,1.8,0.7,2.8,1c0.9,0.3,1.6,0.7,2.2,1.2
		c0.8-0.1,1.6-0.2,2.4-0.3c5.4-0.6,10.8-0.6,16.2,0c6.2,0.7,12.3,1.5,18.4,3.2c4.4,1.2,8.7,2.3,13.2,2.9c0.5,0.1,1,0.2,1.4,0.4
		c1,0.4,1.6,1.1,1.6,2.2c0,1.1-0.6,1.8-1.6,2.2c-2.6,1-5,2.4-7.4,3.8c-3.8,2.3-6.9,5.5-9.3,9.3c-0.3,0.5-0.5,1.1-0.5,1.7
		c3.8-1.1,7.6-2,11.5-2.7c5.2-1,10.3-1.2,15.3,0.5c0.9,0.3,1.8,0.3,2.7,0.3c4.8,0,9.5,0.8,14,2.2c5.7,1.8,11.2,4.2,16.8,6.4
		c0.8,0.3,1.6,0.9,2.9,0.7c-1.2-1.3-2.1-2.5-3.1-3.5c-2.5-2.5-5.1-4.9-7.6-7.4c-0.6-0.6-1.3-1.2-1.8-2c-1.1-2.1,0.1-4.3,2.4-4.5
		c0.6-0.1,1.3,0,1.9,0.2c5.9,1.7,11.6,3.6,16.2,7.9c0.1,0.1,0.4,0.3,0.7-0.1c-0.1-0.3-0.1-0.7-0.2-1.1c-1-4.2-2.4-8.4-3.1-12.7
		c-0.2-1-0.5-2,0.5-2.7s1.9-0.3,2.7,0.3c3.5,2.5,7,4.9,10.4,7.4c4.3,3.2,7.7,7.1,9.9,11.8c0.1-0.1,0.1-0.2,0.2-0.2
		c0.7-0.9,1.2-1.9,1.8-2.9c1.9-3.6,4.9-5.6,8.9-6.3c0.2,0,0.4,0,0.6,0c0-0.5,0-0.9,0.2-1.4c0.6-1.5,2.3-2.3,4.3-1.9
		c1.8,0.3,3.3,1.2,5.1,2.2c-0.1-2-0.7-3.6-1.9-5c-1-1.2-2.1-2.3-2.8-3.8c-0.4-0.7-0.7-1.5,0-2.3c0.8-0.8,1.5-0.4,2.2,0.1
		c0.8,0.5,1.5,1,2.3,1.5c2.1,1.2,4.3,2.4,6.7,3.1c3.8,1.1,7.3,2.9,10.4,5.4c0.3,0.3,0.6,0.6,1.5,0.6c0-1.5,0-2.9,0-4.2
		c0-0.7,0-1.5,0.2-2.2c0.3-1.3,1.3-2.1,2.4-2.1c1.2,0,2,0.6,2.5,1.7c0.3,0.6,0.4,1.2,0.6,1.9c0.1,0.5,0.2,1.1,0.3,1.7
		c0.8,0.1,1-0.5,1.4-0.9c3.3-3.2,6.8-6.2,10.7-8.6c3.7-2.3,7.9-3,12.2-3.5c1.3-0.1,2.4,0.4,3,1.6c0.5,1.2,0.2,2.4-1,3.5
		c-4.4,3.7-8,8.3-11.4,12.9c-2.5,3.3-3.6,7.1-4.1,11.2c0.8,0.1,1-0.6,1.2-1c4.9-6.9,11.8-11.3,18.8-15.6c0.8-0.5,1.6-0.8,2.6-0.8
		c1.2,0,1.8,0.9,1.3,2c-0.4,0.8-1,1.5-1.6,2.1c-0.8,0.8-1.6,1.6-2.4,2.3c0.6,0.7,1.4,0.3,2.2-0.2c1.8-1.1,3.6-0.7,5.3,0.3
		c1.6,0.9,2.1,2.6,2.3,4.2c0.2,1.4,0.7,1.8,2,1.7c0.8-0.1,1.6,0,2.5,0c2.2-0.1,3.9,0.9,5.5,2.3c0.7,0.6,1,1.3,1,2.2
		c0,0.1,0,0.3,0,0.4c1-1.2,2-2.3,3.1-3.4c1.9-1.8,3.9-3.5,6.4-4.6c2.8-1.3,5.3-1,6.9,0.7c1.5,1.6,1.5,3.8,0,6.7
		c-1.2,2.2-2.4,4.3-3.6,6.4c-0.3,0.5-0.8,1-0.4,1.9c2-0.3,3.9-1,5.9-1.5c4.3-1.2,8.6-2,13.1-1.3c1.3,0.2,2.4-0.1,3.4-1
		c1.7-1.5,3.5-3,5-4.7c5.2-5.7,12.5-6.6,19.4-8.1c2.6-0.6,4.2,2.2,3,4.6c-0.5,1.1-1.4,1.8-2.2,2.6c-0.5,0.5-1.3,0.9-1.4,2
		c1.2-0.4,2.2-0.7,3.2-1.1c6.1-2.1,12.2-3.9,18.5-5c4.2-0.7,8,0,11.6,1.8c-1.4-1.6-2.8-3.1-4.4-4.6c-2.3-2.1-2.9-5.5-1.6-8.1
		c1.3-2.7,4.4-4.2,7.6-3.7c2.9,0.5,5.7,1.5,8.6,1.8c2.3,0.3,4.6,0.2,6.9,0.1c5-0.3,9.9-1.2,14.8-2.2c0.8-0.2,1.6-0.4,2.4-0.6
		c0.1,0,0.1,0,0.2,0c0.6-0.3,1.2-0.7,1.7-1.1c2.2-3.1,4.2-6.2,6.5-9.2c1.1-1.5,2.1-3.1,2.7-4.9C693.5,176.5,693,177.2,692.4,177.4z"
		/>
	<path class="st0" d="M658.8,237.5c-0.5-0.3-1-0.6-1.4-0.9c-4.7-2.8-9.7-4.4-15.3-3.3c-3.5,0.7-7.1,1.5-10.5,2.5
		c-0.9,0.2-1.9,0.5-2.6,1.3c0.3,0.1,0.5,0.2,0.6,0.2c10.8-0.9,20.6,2.1,29.6,8c2.7,1.7,5.5,3.3,8.1,5.2c0.4,0.3,0.8,0.6,1.3,0.9
		c0.6-0.6,1.4-1.1,2.2-1.6c1.6-0.9,3.5-1.2,4.9-2.5c-0.4-1-1.3-1.1-2-1.6c-4-2.7-5.3-6.5-3.5-10.9c0.4-1.1,0.5-1.7-0.6-2.4
		c-6.4-3.8-11-9.5-15.3-15.5c-0.6-0.8-1.2-1.7-1.8-2.5c-0.3,0.5-0.8,1.1-1.5,1.7c-0.6,0.5-1.2,0.9-1.8,1.3c-2,1.3-4,2.6-6,3.9
		c-0.5,0.3-1.2,0.5-1.3,1.4c0.3,0.1,0.6,0.3,0.9,0.4c4.9,1.6,9.3,4.1,13.5,6.9c1.5,1,2.8,2.3,3.9,3.8c0.4,0.5,0.7,1.1,0.9,1.7
		c0.3,0.7,0.1,1.3-0.4,1.8C660.1,237.7,659.4,237.8,658.8,237.5z"/>
	<path class="st0" d="M683,525.6c-0.9-3.3-2.4-6.3-4.4-9c-2.1-2.8-4.5-5.4-6.9-8c-2.1-2.3-3.8-4.7-4.9-7.6c-1.6-4.2,0-6.9,4.4-7.5
		c0.7-0.1,1-0.3,1.1-1c0.3-1.9,0.4-3.7-0.1-5.6c-1.1-4.6-1.6-9.2-1.4-13.9c0.1-3.5-0.2-7-0.7-10.5c-0.3-1.7-0.8-3.1-1.9-4.4
		c-1.8-2-3.3-4.3-4.6-6.7c-1.7-3.4-3.6-6.6-5.6-9.8c-1.3-2.2-2.5-4.4-3.8-6.6c-0.3-0.6-0.5-1.3,0.2-1.7c0.6-0.4,1.1,0.1,1.5,0.5
		c1.1,1.2,2.1,2.5,3.1,3.8c2.4,2.9,4.5,6.2,7.6,8.4c4.3,3.2,8.4,6.7,13.2,9c0.5,0.2,0.9,0.8,1.5,0.4c-0.1-0.9-0.6-1.7-1.1-2.5
		c-1.9-3.5-3.7-7.1-5.3-10.8c-1.2-2.9-2.9-5.5-4.9-7.9c-4.4-5.5-8.6-11.2-12.4-17.1c-2.2-3.5-4.6-6.8-7-10.1
		c-1.6-2.2-3.3-4.3-4.6-6.7c-0.4-0.7-0.8-1.2-1.5-1.6c-3.9-1.7-6.7-5-10-7.5c-1.2-1-2.3-2.1-3.4-3.2c-2.3-2.4-1.3-5.6,2-6.3
		c0.6-0.1,1.3-0.2,2-0.2c1.6,0,3.3-0.1,4.9-0.1c0.8,0,1.3-0.2,1.1-1.1c-0.2-1.2,0.2-2,0.8-2.9c1-1.4,0.9-2.9,0.5-4.5
		c-0.3-1.4-1-2.6-1.6-3.9c-1.4-2.8-2.8-5.6-4.2-8.4c-0.5-1.1-1-2.3-1.3-3.4c-0.4-1.7-0.1-2,1.7-1.8c2.3,0.3,4.5,0.7,6.8,0.9
		c4.4,0.4,7.1-2.1,7.7-6.4c0.6-4.3-0.5-7.9-3.7-10.9c-3-2.9-5.8-6.1-9.6-8c-0.5-0.3-1.1-0.5-0.9-1.3c0.2-0.6,0.9-0.8,1.4-0.8
		c1.6-0.1,3.1-0.1,4.7-0.1c1.7,0,3.3-0.2,4.8-0.7c2.7-1,3.8-3,3.2-5.8c-0.3-1.3-0.9-2.5-1.6-3.6c-1.6-2.8-3.8-5.2-5.9-7.5
		c-2.6-2.8-4.5-6.1-5.6-9.8c-0.8-2.7-1.3-5.5-2-8.7c5.1,1.8,9.4,4.4,13.7,7.2c-1.6-2.3-3-4.8-5.1-6.7c-2.8-2.5-5.6-4.8-8.6-7
		c-2.6-1.9-5.5-3.3-8.5-4.4c-2.6-0.9-5.2-2.1-7.8-3c-3.5-1.3-5.4-3.6-6.1-7.3c-1.1-5.6-3.9-10.4-8.3-14.2c-0.4-0.4-1.2-0.6-1-1.6
		c4.6-1.1,9.1,0.6,14,1c-1.8-2-3.8-2.7-5.8-3.5c-5.5-2.1-11.1-3.4-16.9-4.1c-1.4-0.2-2.5-0.7-3.4-1.8c-0.7-0.8-1.4-1.6-2-2.5
		c-2.7-3.4-6.4-5.1-10.6-5.6c-1.7-0.2-3.4-0.2-5.1,0.2c-0.7,0.2-1.3,0.2-1.9-0.6c-1.2-1.8-2.2-2-4.2-1.3c-2.4,0.9-4.6,2.2-6.5,3.8
		c-1.3,1-2.5,2.1-4.1,2.8c-3.9,1.7-6.2,4.7-7.7,8.5c-0.9,2.1-2.2,4-3.6,5.9c-0.8,1.1-1.7,1.6-3.1,1.4c-3.1-0.4-6,0.4-8.8,1.8
		c-2.4,1.2-4.6,2.5-6.8,3.9c-2.4,1.5-3.4,1.1-3.8-1.9c-0.1-0.6-0.1-1.2-0.1-1.7c0.6-7.2,3.1-13.4,9.9-17c1.8-0.9,2.9-2.2,3.8-4
		c1.6-3.5,3.6-6.8,5.7-10c-0.7,0.3-1.3,0.5-2,0.8c-2.8,0.9-5.6,1.9-8.3,3c-2.7,1.2-5.2,2.7-7.7,4.3c-1.6,1.1-3.1,2.4-5,3.1
		c-1.1,0.4-1.4,1.4-1.6,2.3c-1,5.5-2.1,10.9-3.4,16.3c-0.7,2.8,0,5.7,0.6,8.5c1.1,5.7,1.7,11.4,1.8,17.3c0.1,4.2,0.6,8.3,1.2,12.4
		c0.4,2.3,0.8,4.7,1.2,7c0.3,1.6,0.9,3.2,1.8,4.5c0.5,0.8,1.1,1,2,0.3c3-2.2,5.6-1.6,7.5,1.7c1,1.7,1.5,3.6,1.5,5.6
		c0,3.5,0.1,7.1,0,10.6c-0.1,3.6,0.4,7.2,1.2,10.7c0.2,0.8,0.3,1.6,0.3,2.4c0,0.6-0.1,1.2-0.3,1.8c2.7,1.8,3,4.6,0.6,7.1
		c-1.9,2-3.1,2.4-5.6,1.3c-5.1-2.3-10.5-3.3-15.9-4c-1.4-0.2-2.8-0.3-4.2,0c-4.2,0.8-8.4,1.6-12.4,3c-2.5,0.9-4.8,2.2-6.6,4.1
		c-0.8,0.8-1.5,0.8-2.3,0.1c-2.7-2-3.6-5.8-2.1-9.1c0.9-1.9,2.3-3.2,4-4.4c-0.2-0.3-0.4-0.6-0.6-1c-1.5-2.5-1.9-5.4-2.4-8.2
		c-0.3-1.8-0.7-3.5-0.1-5.3c0.6-2,1.8-3.5,3.7-4.3c0.9-0.3,1.2-0.8,1.4-1.7c0.8-3.7,0.4-7.3-0.9-10.8c-0.7-1.7-1.6-3.4-2.6-5
		c-1.1-1.8-1.8-3.7-2.6-5.6c-0.8-1.9-0.2-3.5,1.1-4.7c1.3-1.1,2.9-1.7,4.8-1.1c1.8,0.6,3.3,1.5,4.5,2.8c0.8,0.8,1.5,1.7,2.1,2.4
		c1.2-0.3,0.9-0.9,0.9-1.3c0-5.7,0-11.3,0.1-17c0-0.7,0-1.5-0.3-2.2c-1.3-3.2-1.5-6.7-1.7-10.1c-0.2-3-1.1-5.9-2.3-8.7
		c-0.8-1.8-1.6-3.5-2.7-5.2c-1.1-1.7-2.2-3.5-3-5.4c-2.5-5.6-6.7-9.4-12.5-11.3c-3.5-1.1-6.5-2.8-9.1-5.3c2.8,3.6,5.5,7.3,8.5,10.8
		c0.7,0.7,1.3,1.5,2.2,2c1.9,1.1,3,2.8,3.7,4.8c0.9,2.4,1.7,4.8,2.6,7.2c0.2,0.5,0.4,0.9,0,1.5c-2.1-1.2-4.3-2.3-6.8-2.7
		c-2.3-0.4-4.7-0.5-6.6,1.1c-1.6,1.3-3,1-4.5,0.1c-1.3-0.7-2.4-1.8-3.1-3.1c-0.5-1-1.2-1.9-2.1-2.7c-2.3-1.8-4.6-3.7-7-5.5
		c-2.6-2-5.4-3.4-8.6-4.2c-0.7-0.2-1.4-0.4-1.7,0.7c-0.2,0.8-1,0.7-1.7,0.5c-0.9-0.2-1.8-0.4-2.6-0.8c-2.4-1.2-4.7-1.4-6.7,0.9
		c-0.3,0.3-0.7,0.4-1,0.6c-2.9,2-4.7,4.8-5.9,8c-0.6,1.5-0.5,3,0.1,4.6c0.4,1.1,0.8,2.2,1.1,3.3c1,3.1-0.6,5.2-3.8,4.5
		c-4.4-0.9-8,0.8-11.6,2.8c0.2,0.8,0.8,1.2,1.1,1.7c2,3,1.1,6.9-2.1,8.7c-0.9,0.5-1.8,0.8-2.8,0.9c-4.1,0.6-7.9,2.2-11.6,3.9
		c-0.5,0.2-1.3,0.4-1.4,1.2c0.8,0.5,1.6,0.3,2.4,0.4c1.7,0.2,3.4,0.2,5.1,0.7c1.2,0.4,2.9,0.4,2.8,2.2c0,1.6-1.6,1.6-2.7,2
		c-2.1,0.6-4.3,1-6.3,2.1c-3.5,1.9-6.6,4.3-9.6,6.9c-0.9,0.7-1.1,1.4-0.9,2.5c0.5,2.2-0.4,4-2.1,5.5c-0.7,0.6-1.5,1.1-2.2,1.6
		c-7.2,4.6-8.4,6.9-7.9,15.4c0.1,2,0.7,3.4,2.3,4.6c1.9,1.4,3.6,3.1,4.8,5.2c0.8,1.5,1.1,1.5,2.7,0.6c2.9-1.7,6.1-2.8,9.2-4
		c1.3-0.5,2.7-0.6,4.1-0.6c2.1,0.1,2.5,0.6,1.3,2.3c-1.9,2.9-3,6-3.2,9.4c-0.2,3-1.4,5.7-3.7,7.8c-2.8,2.6-5.1,5.6-7.3,8.7
		c-1.8,2.5-3.9,4.6-6.5,6.2c-2.1,1.3-4,2.9-5.6,4.8c-0.3,0.4-1,0.7-0.5,1.5c2.7-0.5,5.5-0.8,8.3-0.9s5.2-1.8,8-1.5
		c0.2,0.6-0.1,0.9-0.3,1.1c-3.1,3-4.5,6.8-5.3,10.9c-0.5,2.7-0.3,5.2,1,7.6c0.5,1,1,2.1,1.3,3.2c0.5,2,1.8,3.5,3.5,4.6
		c1.2,0.8,2.6,1.5,3.9,2.1c3.3,1.4,6,3.6,8.4,6.3c2.4,2.6,3.7,5.7,3.1,9.2c-0.6,3.7-0.5,7.3,0.2,10.9c0.6,3.3-0.8,6.1-3.7,8
		c-4.9,3.3-9.8,3.4-14.7,0.1c-5.7-3.8-8.6-9.1-8.4-16c0.1-1.6-0.2-3-1-4.4c-1.2-2-1.9-4.2-1.9-6.6c0-1.7-0.8-2.4-2.3-3
		c-1.1-0.5-1.6-0.3-2.2,0.6c-1.5,2.2-3,4.3-4.3,6.6c-0.4,0.7-0.9,1.4-1.4,2c-0.9,1-2.1,1.3-3.4,0.8s-1.9-1.5-1.9-2.9
		c0-1,0.2-2,0.1-2.9c-0.4-5.4,0.9-10.4,3.2-15.3c0.5-1,0.9-2.1,1.1-3.3c0.2-1.9-0.7-2.5-2.4-1.8c-4.8,2.1-8.9,5.2-13.1,8.3
		c-4.9,3.7-8.9,8.2-12.3,13.3c-0.1,0.2-0.3,0.4-0.1,0.7c0.4,0.2,0.8-0.6,1.3,0c-0.1,0.2-0.2,0.5-0.3,0.7
		c-5.3,7.8-10.3,15.8-15.8,23.5c-2.1,2.9-4.2,5.9-5.6,9.2c-0.2,0.6-0.6,1.1-0.4,2c2-0.9,4-1.8,6-2.4c4.2-1.3,8.5-2.6,12.7-3.8
		c4.7-1.4,9.5-2.7,14.2-4.1c1.2-0.3,2.2-0.2,2.8,0.9c0.6,1.1,0.2,2.1-0.7,2.8c-1.1,0.9-2.2,1.7-3.5,2.4c-3.2,1.9-6.4,3.6-9.6,5.5
		c-2.3,1.3-4.2,3.1-5.9,5.1c-5.6,7-10.6,14.4-15.6,21.8c-0.3,0.4-0.9,0.8-0.4,1.5c0.8-0.7,1.5-1.3,2.3-2c3.1-2.7,6.4-5.1,10.2-6.8
		c0.5-0.2,1.1-0.5,1.6-0.7c0.6-0.2,1.2-0.1,1.5,0.5c0.4,0.6,0.3,1.3-0.2,1.8c-0.7,0.6-1.4,1.1-2.2,1.6c-6.5,4.8-11.3,10.7-14,18.5
		c-2.4,7.1-3.6,14.5-5.3,21.7c-0.9,3.6-2,6.9-3.9,10c-2.4,3.8-4.8,7.7-7.1,11.5c-0.3,0.5-0.9,1-0.7,1.8c2.9-1,5.4-2.4,7.5-4.5
		c3.8-4,7.6-8,10.5-12.7c0.7-1.1,1.5-2.2,3-2.2c0.5,1.1,0.4,2.2,0.6,3.2c0.6,4.7,1.7,9.4,1.7,14.2c0,4.3-0.2,8.5-0.4,12.8
		c-0.2,3.3-0.8,6.5-1.7,9.7c-1.6,6-4.1,11.8-6.3,17.6c-0.3,0.8-0.7,1.5-0.6,2.8c1.7-1.9,3.1-3.6,4.6-5.2
		c5.9-5.8,12.6-10.7,18.7-16.4c1.5-1.4,3.4-2.3,5.5-2.6c2.6-0.3,4.3,1.1,4.5,3.7c0.1,1.7-0.5,3.2-1.1,4.7c-0.5,1-1.2,2-1.2,3.2
		c-0.1,2.8-1.1,5.5-2,8.1c-2.3,6.9-3.8,13.9-4.8,21.1c-0.8,5.8-0.9,11.6-1.1,17.4c-0.1,5-1.7,9.3-5,13c-2.4,2.7-4.4,5.7-6.5,8.6
		c-1.6,2.3-2.7,4.8-3.3,7.6c-0.5,2.2-1,4.4-1.4,6.7c0.4,0.4,0.9,0.9,1.3,1.3l1.5,1.7c0.3,0.3,0.5,0.6,0.8,0.8l0.7,0.9l1.5,1.7
		c1,1.2,1.9,2.3,2.9,3.5c2.4,3.1,4.7,6.2,6.9,9.4c0,0.1,0.1,0.1,0.1,0.2c0.6,0.7,1.1,1.4,1.6,2.2c0.2,0.3,0.3,0.5,0.5,0.8
		c0.5,0.7,1,1.4,1.4,2.1c1.4,2,2.8,4,4.2,5.9c0.7-0.6,1.3-1.1,2-1.6c2.2-1.8,4.2-3.6,6.2-5.6c-2.6-7.2-4-14.7-5.1-22.2
		c-0.5-3.4-1-6.8-1.7-10.2c-0.2-1.1-0.6-1.9-1.5-2.7c-2-1.8-2.3-3.9-1.1-6.2c0.5-1.1,1.2-2.2,1.9-3.2c1.6-2.2,1.9-4.7,1.7-7.3
		c-0.2-2.1-0.2-4.3,0-6.4c0.3-4.1,0.6-8.2,1-12.3c0.4-4.2,1.5-8.2,2.9-12.2c1.1-3.3,2.3-6.5,3.1-9.8c1.1-3.9,3.6-7.2,5.6-10.6
		c0.2-0.3,0.5-0.6,0.8-0.9c0.5-0.4,1.1-0.5,1.6-0.2c0.6,0.4,0.6,1,0.3,1.5c-0.3,0.8-0.6,1.5-1,2.2c-1.7,3-2.3,6.2-1.9,9.5
		c0.8,7.7,1.4,15.4,3.3,22.9c1.6,6.4,3.8,12.7,6,19c1.6,4.8,3.2,9.7,3.4,14.8c0,0.5-0.1,1.1,0.6,1.7c1.1-0.7,1.8-1.8,2.5-2.8
		c3.5-4.6,6.9-9.4,10.2-14.1c0.9-1.3,1.8-2.6,2.7-3.8c1.3-1.8,2.7-2.2,3.9-1.5c1.2,0.7,1.4,2,0.6,4c-1.1,2.6-2.2,5.1-3.4,7.7
		c-1.9,4-3.9,8-5.9,11.9c-0.8,1.5-1.5,3.1-1.8,4.8c-0.9,5.1-2.3,10.1-4.2,14.9c-0.7,1.7-1,3.5-0.8,5.3c0.1,0.9,0,1.8,1.1,2.3
		c0.6,0.3,0.6,0.8,0.4,1.5c-0.1,0.1-0.1,0.3-0.2,0.4c2.1-1.6,3.9-3.6,5.3-5.9c4.1-6.5,8.8-12.5,13-18.9c2.1-3.2,4.5-6.2,7.2-9.2
		c0.9,0.8,1.6,1.6,2.7,1.7c2.2,0.2,4.2,1.2,6.2,2.2c2.3,1.1,4,2.6,5.2,4.6c2.1,3.6,4.7,6.7,7.3,9.9c4,5.1,8.3,10,13,14.4
		c0.4,0.4,0.9,0.8,1.3,1.2c1.3-2.1,2.4-4.3,3-6.8c0.8-2.9,0.9-6,1.6-9c0.2-0.8-0.3-1.4-0.6-2.1c-1.3-2.6-2.4-5.2-3.4-7.9
		c-1.8-4.5-2.5-9.2-2.3-14c0-0.7,0-1.5,0-2.2c0-0.1-0.1-0.3-0.2-0.4c-0.7-0.1-0.9,0.6-1.3,1c-1.1,1.4-2.1,2.8-3.1,4.1
		c-0.6,0.8-1.2,1.6-2.1,2.1c-1,0.5-1.9,1.5-3.1,0.7c-1.3-0.9-2.1-2.1-1.8-3.8c0.3-1.9,1-3.6,1.9-5.3c1.5-2.8,2.6-5.9,4.1-8.7
		c1.8-3.3,2.2-6.6,1.5-10.4c-0.9-4.7-1.9-9.3-3.2-13.9c-0.1-0.5-0.3-0.9-0.5-1.4c-1.1-3-1.7-3.4-4.8-3.5c-4.4-0.1-5.7-2-4.2-6.1
		c0.3-0.7,0.5-1.4,0.9-2c2.1-3.9,4.2-7.8,6.3-11.7c0.4-0.8,0.8-1.9,1.8-1.7c1.1,0.2,1.2,1.4,1.3,2.4c0.1,1,0.3,1.9,1,2.7
		c2.8,3.7,5.7,7.2,9.4,10.1c1.6,1.2,3.2,2.1,5.3,2.2c2.2,0.1,4.2,0.8,6,2.1c2.3,1.7,3.4,4,3.4,7c0,1.3-0.1,2.5-0.3,3.7
		c0.9-0.8,1.8-1.6,2.7-2.4c3.4-2.6,6.9-4.9,11.1-4.2c-0.1-0.3-0.2-0.6-0.2-1c-0.7-3.3-0.9-6.7-0.8-10c0-1.2-0.2-2-1.5-2.5
		c-1.6-0.6-2.7-1.8-3.7-3.1c-4.2-5.4-7.7-11.2-9.8-17.8c-1.2-3.9-2.4-7.9-3.1-11.9c-1.4-1.5-3-2.7-5.3-2.9c-0.7-0.1-1.1-0.6-1.5-1.1
		c-1-1.4-1.9-2.9-2.5-4.5c-2-5-3.7-10.2-5.8-15.1c-0.6-1.5-1.3-3-2-4.5c-1.1-2-2-4.1-2.5-6.4c-1.1-4.8-3.7-8.9-5.8-13.3
		c-0.5-1.1-1.5-2-2.3-2.9c-3.1-3.5-4.5-7.7-5.3-12.2c-0.7-3.7-0.4-7.3,0.1-11c0.8-6,1.7-12,3.3-17.8c0.5-1.7,1.1-3.4,1.7-5.1
		c-0.1-0.3-0.2-0.7-0.3-1c-0.5-1.7-1-3.1-2.5-4.3c-2.2-1.8-2.3-4.8-0.5-7.6c1.3-1.9,2.8-3.7,4.3-5.3c0.7-0.7,1.1-1.3,1.2-2.3
		c0.3-1.6,0.7-3.2,1.2-4.8c0.2-0.6,0.6-1.2,1.4-1.1c0.8,0.2,0.9,0.9,0.8,1.5c-0.1,1.1-0.3,2.3-0.4,3.4c-0.3,5.2,0.5,10.3,1.8,15.3
		c0.4,1.6,1.2,3,2.2,4.4c2.5,3.2,2.8,6.7,1.4,10.5c-0.1,0.4-0.3,0.8-0.4,1.1c-2.4,5.3-2.6,10.8-1.9,16.4c0.1,1.1,0.4,2.3,0.5,3.4
		c0.8,5.6,2.9,10.7,6.2,15.4c4.6,6.7,9.7,12.9,16.9,16.9c1.4,0.8,2.7,1.5,4.1,2.1c0.4-0.7,0.8-1.5,0.9-2.4c0.3-2.1,0-4.1-0.3-6.1
		c-0.5-3.5-1-6.9-0.4-10.5c0.4-2.9,1.8-4.8,4.4-6.1c2.5-1.2,4.9-2.6,6.9-4.7c1.6-1.6,2.5-3.5,2.7-5.7c-0.7-0.7-1.4-1.4-2.1-2.1
		c-2.1-2.1-3.8-4.6-5.3-7.1c-2.5-4.3-3-8.9-2.5-13.8c0.4-4.4,1.3-8.8,2-13.1c0.3-2,1.1-3.9,2.8-5.3c1.1-0.9,1.9-2,2.7-3.2
		c2.4-3.6,5.7-6.4,9.4-8.5c1.3-0.7,2.5-1.6,3.5-2.7c1.4-1.6,3-2.7,4.8-3.8c2.2-1.4,4.5-2.7,6.5-4.4c0.5-0.4,1.1-0.7,1.7-0.9
		c3.9-1.3,7.2-3.5,10.3-6.2c1.6-1.4,3.6-1.9,5.3-3.1c0.7-0.6,1.7-0.3,2.5,0.2c0.9,0.6,1.8,1.1,2.6,1.8c4.2,3.6,9.2,5.9,14.1,8.4
		c2.6,1.3,5.1,2.6,7.7,3.9c1.2,0.6,1.9,1.6,2.4,2.7c0.8,1.7,1.9,2.9,3.3,4.2c2.9,2.5,5.7,5.2,8.4,8c2.3,2.4,3.9,5.2,4.8,8.5
		c1.2,4.1,2.3,8.2,1.9,12.5c0,2.6-0.2,5-0.8,7.4c-0.2,0.8-0.2,1.6-0.2,2.4c0,3.8-1.1,7.3-3.1,10.5c-1.4,2.1-2.9,4.1-4.6,6
		c0.1,0.7,0.3,1.3,0.5,2c0.6,2.3,2.2,4,4.1,5.4c0.8,0.6,1.6,1.1,2.5,1.6c1.5,0.8,2.4,1.9,2.8,3.5c1.2,5.3,3.6,10,7.3,14
		c0.3,0.4,0.6,0.8,0.7,1.3c0.1,1.5,0.5,3,1,4.4c5.5-3.3,10-7.6,14.1-12.5c3-3.6,5.5-7.6,5.9-12.5c0.1-1.4,0.6-2.7,1-4.1
		c1.7-5.7,1-11.2-1.6-16.5c-0.6-1.3-1.4-2.6-2-3.9c-1.5-3.2-1.6-6.5,0.2-9.7c0.7-1.2,0.9-2.4,0.8-3.8c-0.1-2.9,0.3-5.7,0.8-8.6
		c0.8-4.7,1.4-9.4,2.1-14.1c0.1-0.9,0.3-1.8,0.8-2.6c0.6-1,1.5-1.6,2.7-1.4s1.8,0.9,2.2,2.1c0.1,0.4,0.1,0.7,0.2,1.1
		c1,0.2,2,1.2,2.4,2.5c0.3,1.2,0.5,2.4,0.6,3.6c0.2,2.4,0.5,4.9,0.5,7.4c0,2,0.4,3.9,1.4,5.7c1.2,2.3,2.4,4.5,3.4,6.8
		c0.8,1.6,1.3,3.4,0.8,5.2c-0.2,0.9,0.2,1.8,0.3,2.7c1,6.1,0.4,12.1-0.7,18.1c-0.7,4.2-1.2,8.4-1.7,12.7c-1,8.7-3.3,16.9-8.8,23.9
		c-4,5.2-6.6,11.1-9.5,16.9c-2.9,5.9-6.6,11.2-11.4,15.7c-0.8,1.3-1.7,2.5-2.7,3.6c-1.6,1.9-3.2,3.7-5.1,5.3
		c-1.3,1.1-2.1,2.5-2.5,4.1c-0.1,0.6-0.4,1.3-0.5,1.9c-1.3,5.3-3,10.4-6.5,14.7c-1.1,1.4-1.4,2.8-1.3,4.6c0.3,3.8,0.2,7.7-0.5,11.4
		c0,0,0.1,0,0.1,0.1c3.7,2.2,6,5.5,6.4,10c0.4,3.8,0.5,7.5,1.3,11.2c1.6,8,4.5,15.6,8.2,22.8c1.4,2.7,2.7,5.5,3.6,8.4
		c2.3,7.3,5.1,14.4,8.1,21.4c0-0.3,0-0.6,0-1c0.1-1.1,0.4-2.2,1.6-2.5c1.1-0.3,1.8,0.4,2.4,1.3c3.8,6.1,7.5,12.2,10.3,18.7
		c0.5,1.2,1,2.5,1.6,3.7h16.8c1.5-4.1,3.9-7.8,6.8-11.3c2.5-3.1,4.8-6.2,6.8-9.6c0.6-1.1,1.3-2.2,2-3.3c-0.9-1.5-1.9-2.9-2.9-4.3
		c-0.6,0.9-0.2,1.5-0.2,2.1c0,0.5-0.1,1.1-0.6,1.2c-0.6,0.1-0.9-0.3-1.1-0.8c-0.6-1.4-0.9-2.8-1.1-4.3c-0.4-3.1-0.6-6.2-1.8-9.1
		c-0.6-1.7-0.9-3.5-0.6-5.3c0.2-1.2,0.7-2.2,2-2.5s2.2,0.3,2.9,1.4c0.7,1.1,1.3,2.3,1.9,3.4c1.1,1.9,2.5,3.6,4.5,5.3
		c-0.1-4.1,0.6-7.7,1.5-11.2c0.4-1.7,0.8-3.6,2.2-4.5c2.2-1.4,2.2-3.3,2.1-5.5c0-1.4,0.2-2.8,0.2-4.2c0.4-9.8,0.9-19.7,0.3-29.5
		c-0.1-2-0.5-3.9-1.3-5.7c-0.7-1.7-1.3-3.4-1.4-5.2c0-1,0.1-2,0.8-2.8c0.9-1,1.6-1.1,2.4,0c1,1.3,2,2.7,2.9,4.1
		c1.4-4.4,5.8-7.3,10.4-6.6c-1-3.8-1.9-7.7-2.8-11.5c-1.5-6.9-2.6-13.9-2.5-21c0-2.6,0.9-4.7,3.1-6.1c0.9-0.6,1.2-1.2,1.2-2.2
		c0.1-3.3,0.3-6.6,0.4-9.8c0-1.6,0.5-2.9,2.1-3.5s2.9,0,4,1.2c0.8,1,1.6,2.1,2.3,3.2c3.7,5.3,7.6,10.5,12.7,14.7
		c1.2,1,2.4,2,3.7,2.6c0.3-0.3,0.2-0.6,0.1-0.8c-1.5-3.7-2.9-7.5-5.1-10.9c-0.6-0.9-1.1-2-1.6-3c-0.3-0.6-0.4-1.3,0.3-1.8
		c0.7-0.4,1.3-0.1,1.7,0.4c1.2,1.3,2.4,2.7,3.6,4.1c0.7,0.9,1.5,1.7,2.5,2.3c2.9,1.8,5.2,4.2,7.2,7c0.6,0.9,1.1,2,2.1,2.7
		c0.3-0.5,0.1-0.8,0-1.2C684.6,532.5,683.9,529,683,525.6z M417.9,511.4c1.9,1,3.6,2.2,5.6,3.1c2.5,1.1,3.8,3.3,4.5,5.8
		c0.2,0.8,0.5,1.5,1.2,2.1c1,0.8,1.7,1.8,2.1,3c1.6,3.7,3.1,7.4,4.6,11.1c0.5,1.2,1,2.5-0.3,3.6c-0.9,0.7-2.1,0.4-3.7-1
		c-1-0.9-1.9-1.8-2.7-2.9c-1.4-1.8-3-3.4-4.5-5.1c-2.6,4.3-5.6,8.1-9.4,11.4c-4.7,4.1-9.6,8-13.3,13.1c-2,2.8-3.8,5.7-5.6,8.7
		c-1.5,2.5-3.1,4.8-4.8,7.2c-3,4.4-5.1,9.3-6.2,14.6c-0.4,2-1.2,3.9-1.9,5.8c-0.5,1.3-1.5,2.1-2.8,2.1c-1.6-0.1-2.7-1.1-3.2-2.6
		c-1-2.7-1.8-5.4-2.4-8.3c-0.7-3.8-1.5-7.6-1-11.4c0.6-4.5,0-9,0.8-13.5c0.4-2.6,0-5.4,0.6-8.1c0.4-2,0.6-4,0.9-6.3
		c-2,0.8-3.7,1.8-5.2,3.1c-1.7,1.6-3,3.4-4,5.6c-0.5,1.1-1.1,2.2-2.1,3c-1.6,1.3-3.6,0.8-4.4-1.1c-0.8-2.1-1.2-4.3-0.9-6.5
		c0.5-4.7,1.2-9.4,4.1-13.4c0.2-0.3,0.4-0.6,0.5-0.9c0.4-3.3,1.8-6.4,1.8-9.8c0-1-0.1-1.6-1.4-1.2c-0.6,0.2-1.3,0.2-1.9,0.1
		c-1.9-0.2-3.5,0.5-5.2,1.2c-2.8,1.3-5.8,2.2-8.3,4.2c-1.4,1.1-2.9,2.2-4.4,3.1c-3.4,2-5.6,4.9-7.6,8.2c-0.5,0.8-1,1.5-1.6,2.1
		c-1.8,1.6-3.8,1.1-4.8-1.1c-0.1-0.3-0.3-0.6-0.3-0.9c0.1-4.6-0.4-9.2,0.3-13.7c0.3-2,0.3-4.1,0.5-6.1c1.1-7.8,3.5-15.1,8-21.7
		c0.3-0.5,0.7-0.9,1-1.4c0.5-0.9,1.5-1.7,1.4-2.8c0-1.2-1.4-1.3-2-2c-2.3-2.4-3.2-5.2-2.7-8.4c-0.2-0.3,0-0.5,0.1-0.7
		c0-0.1,0-0.1,0-0.2c1.2-5.1,4.5-8.9,8.4-12.1c2.1-1.7,4.3-3.1,6.7-4.3c3.6-3.1,7.4-6.1,11.5-8.6c5.9-3.6,12.5-4.8,19.2-5.6
		c0.6-0.1,1.1,0.1,1.6,0.4c2.9,1.5,5.8,3,8.7,4.5c2.1,1.1,3.8,2.5,4.1,5.1c0.1,0.9,0.8,1.4,1.4,2c3.4,3.2,4.3,7.1,3.1,11.5
		c-1,3.8-0.1,7.5,0.4,11.2c0.6,4.4,1.7,8.7,3.6,12.7C409,504.5,412.8,508.6,417.9,511.4z M460.3,393.9c0.5,2.3,1.2,4.6,1.1,7
		c-0.1,4.7-1.3,9.2-2.8,13.6c-0.5,1.5-1.1,3.1-1.8,4.6c-0.3,0.8-0.4,1.6-0.3,2.4c0.4,4.5-0.9,8.6-3,12.5c-1.2,2.2-2.3,4.5-3.3,6.9
		c-1.4,3.3-1.4,6.7-1,10.1c0.1,0.8,0.4,1.5-0.4,2s-1.8,0.4-2.5-0.3c-4.1-3.6-7.2-7.6-7.8-13.4c-0.4-3.7,0-7.3,0.1-11
		c0.1-1.2-0.1-2.4-0.5-3.6c-1.2-3.7-1.7-7.5-1.9-11.3c-0.1-1.9-0.7-3.2-2.3-4.3c-1.7-1.1-3.4-2.3-4.9-3.7c-0.7-0.7-1.6-1.2-2.5-1.6
		c-2.9-1.2-5.1-3.2-6.8-5.8c-0.7-1.1-1-1.1-1.7,0c-1.6,2.4-2.7,5-3.5,7.8c-0.5,2-1.9,3.1-3.9,3.1c-1.9,0-2.9-0.7-3.5-2.5
		c-0.8-2.8-1.1-5.6-1-9.1c0.1-1.2-0.2-3-0.7-4.7c-0.9-2.9-1.5-4-3.7-6.2c-2.3-2.3-3.5-5.2-3.9-8.3c-0.5-4.2,0.1-8.2,2.6-11.7
		c1.1-1.5,1.5-2.9,0.3-4.7c-1-1.6-1.1-3.6-1.5-5.4c-0.3-1.2,0.5-2.6,1.3-3c1-0.4,2.1,0,3,1.1c0.1,0.1,0.2,0.3,0.3,0.4
		c0.1-0.9,0.7-1.2,1.6-0.6c7.2,4.9,15.1,5.8,23.5,4.1c4.5-0.9,8.8-2.1,12.8-4.2c0.4-0.2,0.9-0.4,1.4-0.6c1.5-0.6,2.2-0.5,2.8,0.9
		c0.5,1.3,1.3,2.4,2.4,3.3c1,0.9,1.3,2.1,1.3,3.3c0.6,0,1.2,0.2,1.7,0.4c2.8,1.1,4.2,3.3,4.6,6.2c0.1,0.6,0.1,1.3,0,2
		c-0.2,2.2,0.4,4,2.1,5.7c2.2,2.2,3.4,5.2,3.4,8.5c0,2.6,0.2,5.3-1.2,7.7C459.8,392.3,460.1,393,460.3,393.9z M471.6,324.1
		c-0.4,3.1-1.7,6-2.8,8.9c-0.6,1.4-1.6,2.5-2.9,3.2c-1.1,0.5-1.3,1.2-1.2,2.4c0.2,1.9,0.1,4-1.4,5.3c-2.6,2.2-5.1,4.6-8.6,5.6
		c-1.9,0.6-3.3-0.5-4.9-1c-0.5-0.2-0.5-0.8-0.3-1.3c0.3-0.5,0.5-1,0.7-1.6c-2.4,2.3-5.3,3.8-8.3,5c-5.8,2.4-12,3-18.3,2.6
		c-2.7-0.2-5.2-1.3-7.6-2.7c-3.6-2.2-7.4-4.4-9.6-8.2c-1.6-2.8-2.7-5.8-3.3-8.9c-0.8-3.7-1.8-7.5-1.8-11.3c0-1.5,0-2.3,0.4-2.8
		c-1.1-2.6-0.8-4.8,0.4-6.9c-0.4-0.3-0.7-0.8-0.7-1.5c-0.1-1.7,0.1-3.4,0.8-5c3.1-6.6,7.4-12,14.1-15.5c3.7-2,7.4-3.5,11.4-4.6
		c0,0,0,0,0-0.1c-0.2-1.1,1.2-1.4,2.1-1.8c1.5-0.6,3-0.7,4.6-0.7c3,0,6.1,0.4,9.1,0.7c5.3,0.6,9.4,3.4,13.2,6.7
		c4.8,4.2,9.1,8.9,12.2,14.7C471.8,311.3,472.5,317.5,471.6,324.1z M550.5,280.5c0.2-3,1.9-5.4,4-7.4c1.3-1.2,2.4-2.4,3.5-3.8
		c2.7-3.6,6.5-4.9,10.9-4.5c2.7,0.2,5.3,1.2,7.8,2.2c0.6,0.2,1.3,0.5,1.2,1.4c-0.1,1-0.9,1-1.7,1.1c-1.1,0.1-2.1,0.1-3.2,0.2
		c-1.2,0.1-2.2,0.6-3.1,1.3c-1.4,1.2-1.5,1.2-0.6,3c0.3,0.7,0.5,1.4,0.6,2.1c0.2,2.2-0.1,2.6-2.3,2.7c-3,0.2-5.8,0.9-8.5,2.2
		c-3,1.4-6.3,2.3-9.3,3.9C550.4,283.4,550.4,282,550.5,280.5z M601.2,403.1c0.2-1-0.1-1.8-0.6-2.5c-1.3-2-2.6-4-4-5.9
		c-1.1-1.6-1.6-1.8-3.3-1c-1.8,0.8-3.7,1.3-5.6,1.8c-2,0.6-3.4,1.7-4.1,3.8c-1.9,5.5-4.8,10.4-7.7,15.4c-1.7,3-2.5,6.2-2.8,9.6
		c-0.2,2.4-0.5,4.7-1.3,7c-1.3,3.5-5.1,4.5-8,2.1c-1.8-1.5-2.8-3.6-3.9-5.6c-2.5-4.5-4.8-9.1-8.2-13.1c-2.8-3.4-4-7.6-4-11.9
		c0-2.9,0.3-5.9,2.1-8.4c0.3-0.4,0.6-1,0.6-1.6c0.6-4.7,0.6-9.5,0.5-14.2c-0.1-1.7-0.8-3.3-2.1-4.6c-1.5-1.7-2.6-3.5-2.3-6
		c0.2-1.6,0.9-2.7,2.2-3.6c1.9-1.2,3.9-1.4,6.1-1.4c2.6,0.1,2.8-0.3,2.5-2.8c-0.2-1.2-0.6-2.4-0.9-3.6c-0.6-2.2-0.6-4.5-1.4-6.7
		c-0.5-1.4-1.1-2.5-2-3.6c-4.6-5.7-8.2-12.1-9.8-19.3c-0.8-3.7-0.7-7.4-0.4-11.2c0.1-1.8,0.4-3.5,0.9-5.1c-0.4-2.6,0.2-5,1.7-7.2
		c0.7-1.1,1.6-2,2.6-2.8c0.3-0.6,0.6-1.1,0.8-1.7c2.5-5,7.2-8,11.9-10.7c3.6-2.1,7.3-4,11.3-5.4c3.6-1.3,7.3-1.5,10.5-2
		c8.6,0.4,15.1,3.8,20,10c1.5,1.9,3.2,3.5,4.9,5.2c2.3,2.4,4.7,4.8,6.3,7.8c1.2,2.1,1.9,4.3,2.5,6.6c0.3,1.1,0,2.3-0.8,2.9
		c-0.5,0.4-0.7,0.8-0.9,1.2c0,0.3,0,0.5-0.1,0.8c0,0,0,0,0,0.1c0,0.4,0.1,0.9,0.2,1.3c0.6,2.1,1,4.2,1.1,6.2c0.1,2.3-0.2,4.7-0.6,7
		c-0.9,5.3-3.7,9.7-6.9,13.9c-2.3,3-5,5.6-8.2,7.7c-1.2,0.8-2.5,1.6-3.9,2c-1.4,0.5-2,1.5-2.5,2.7c-0.3,0.8-0.3,1.4,0.1,2.1
		c0.2,0.3,0.3,0.6,0.5,0.8c1.5,2.4,1.5,2.4,4.4,1.9s5.6-0.1,7.4,2.6c0.6,0.9,1.4,1.4,2.1,2c0.7,0.6,0.9,1.3,0.4,2.2
		c-0.7,1.2-1.1,2.6-2.3,3.5c-1,0.8-1.3,1.8-1.2,3c0.1,2.9,0.1,5.7,0,8.6c0,2.3,0.6,4.5,1.5,6.6c0.7,1.6,1.4,3.2,2.1,4.7
		c1,2.1,0.9,4.3,0.8,6.5c-0.2,1.9-3.1,4.9-5,5.3C602.3,406.8,600.7,405.4,601.2,403.1z M609.2,584.9c-1.3,0.7-2.6,0.4-3.6-0.6
		c-1.3-1.3-2.8-2.3-4.2-3.4c-0.3-0.2-0.5-0.4-0.8-0.6c-2.3-1.6-2.4-1.5-3.5,1.1c-1.3,3.2-3,6.2-3.9,9.5c-1.7,5.7-2.5,11.5-2.6,17.4
		c-0.1,2.8,0.9,5.5,1.5,8.2c0.7,3,1.6,6,2.4,9c0.4,1.4,1.1,2.7,1.8,4c1.7,3.1,2.7,6.5,3.3,10c0.3,1.6-0.1,3.1-1,4.5
		c-0.6,1-1.2,1-1.8,0c-0.8-1.5-1.7-3-2.1-4.7c-0.6-2.6-1.8-4.9-3.3-7.1c-3-4.3-6.1-8.5-9.4-12.6c-0.9-1.2-2-2.1-3.5-2.6
		c-5.3-1.9-9.6-5.3-13.2-9.5c-1.5-1.8-1.9-4.2-2.3-6.4c-0.5-3.1-0.6-6.4-0.8-9.2c0.2-1.9,0.3-3.5,0.5-5c0.2-2.7,1.7-4.6,4.1-5.7
		c0.8-0.4,1.6-0.9,2.5-1c2.9-0.3,4.7-2.2,6.4-4.2c1.6-2,2.9-4.2,3.8-6.6c0.6-1.5,1.3-2.9,2.5-3.9c0.8-0.6,0.9-1.3,0.6-2.2
		c-0.3-1-0.6-2-0.9-3.1c-0.7-3.3,1.3-5.7,4.7-5.4c1.7,0.2,3.1,1,4.4,2c1.2,0.9,2.2,2,3.1,3.1c0.9,1.1,2,1.9,3.1,2.7
		c5.6,4.3,10.3,9.4,12.9,16.1c0.3,0.8,0.6,1.7,0.7,2.6C610.9,583,610.5,584.3,609.2,584.9z M660.3,469.3c-1.2-2.3-3.1-3.8-5.3-4.9
		c0,0.1,0.1,0.2,0.1,0.3c2.2,7.6,1.6,14.9-1.9,21.9c-1.6,3.2-3.8,5.9-6.1,8.6c-1.1,1.2-1.7,2.6-2,4.2c-0.7,4.4-2.8,8.2-6,11.3
		c-0.5,0.5-1,1.1-1.6,1.6c-1.4,1.1-1.8,2.6-1.8,4.3c0,8.8,0,17.6,0,26.3c0,1.8,0.7,3.5,0.6,5.4c0,0.6,0.1,1.3-0.3,1.9
		c-0.7,1.1-1.7,1.3-2.6,0.4c-0.3-0.3-0.6-0.8-0.8-1.2c-2-3.2-4.6-6-6.2-9.4c-0.1-0.3-0.4-0.6-0.6-0.8c-0.8-0.8-1.4-0.7-1.8,0.4
		c-0.7,2.1-1.4,4.2-1.8,6.4c-0.8,4.3-1.2,8.7-1.7,13.1c-0.3,2.4,0.3,4.7,0.7,7c0.1,0.6,0.2,1.1,0.2,1.7c-0.1,0.7-0.5,1.2-1.1,1.5
		c-0.7,0.3-1.1-0.2-1.5-0.6c-1-1-1.8-2.2-2.3-3.5c-1.1-3-3.1-5.6-4.3-8.5c-0.2-0.4-0.5-0.9-0.8-1.2c-3.9-3.7-6.4-8.5-9-13.1
		c-1.6-2.8-3.3-5.5-5.2-8.1c-0.3,0.6-0.7,1.2-1.1,1.7c-1.3,1.7-2.2,2.3-3.3,1.7c-1.2-0.5-1.5-1.7-1.1-3.6c0.7-2.9,1.3-5.7,1-8.7
		c-0.2-2.2,0.4-4.4,1.2-6.5c1.6-4,3-8,3.9-12.2c0.5-2.4,2-4.1,4.2-5.1c2.2-1.1,4.6-1.9,7-2.1c2.1-0.2,3.2-1.2,3.8-3.2
		c0.5-2,0.8-4,0.3-6.1c-0.7-2.7-1.2-5.4-1.8-8.2c-0.5-2.2-0.6-4.4-0.3-6.6c0.2-1.9,0.7-3.7,0.2-5.6c-0.3-0.9,0.2-1.9,0.7-2.8
		c1.5-2.6,2.2-5.4,2.2-8.5c0-1.9,0.4-3.7,1.1-5.5c1.9-5.4,6.7-8.7,12.5-8.5c1.1,0,2.3,0.1,3.4,0.4c3.9,1,7.8,1.8,11.7,2.9
		c7.2,2.2,12.5,7,17.5,12.3c0.4,0.4,0.7,0.9,0.9,1.5c0.9,3.2,0.7,6.5,1.2,9.8C661,471,660.7,470,660.3,469.3z"/>
</g>
<g>
	<path class="st1" d="M783.1,421.7c-2-6-4.7-11.7-7.9-17.2c-4.2-7.2-9-13.9-13.4-20.9c-3.2-5.1-6.1-10.3-9.8-15.1
		c-2.7-3.6-5.1-7.4-7.4-11.3c-3.9-6.5-8.3-12.8-14-18c-0.7-0.6-1.3-1.2-1.9-2c-2.2-3-1.3-6.6,2.1-8.2c0.9-0.4,1.8-0.8,2.7-1.1
		c3.6-1.3,7.3-2.5,10.9-3.8c0.6-0.2,1.2-0.3,1.7-0.8c-0.6-0.8-1.5-0.9-2.2-1.3c-11.2-5.9-21.9-12.6-31.2-21.3
		c-1.6-1.5-3.2-2.8-5.3-3.5c-1.7-0.6-3.3-1.5-4.8-2.5c-5.2-3.6-9.8-8-13.8-12.9c-1.2-1.4-2.1-3-2.7-4.7c-0.3-0.7-1.1-1.6-0.1-2.1
		c0.9-0.4,1.2,0.7,1.5,1.2c1.2,2,2.8,3.6,4.6,5.1c2.5,2.1,5.2,3.7,8,5.3c1.9,1.1,3.9,1.7,6,2c4.1,0.6,8.3,0.8,12.4,1.7
		c0.7,0.1,1.3,0,2-0.1c3-0.1,5.7-1.4,8.7-1.6c8-0.6,16-1.3,24.1-1.4c1.5,0,3,0,4.6,0c-2-3.9-5.1-7.2-9.4-9.4
		c-6.8-3.5-13.4-7.4-20.1-10.9c-7.2-3.7-13.4-8.5-18.4-14.9c-0.8-1-1.5-1.9-2.1-3.1c-0.4-0.9-0.7-1.9-0.3-2.9
		c0.3-1.1,1.1-1.4,2.1-0.9c0.4,0.2,0.6,0.5,1,0.7c4.4,3,8.9,5.5,14.2,6.4c2.8,0.5,5.5,0.7,8.3,1c8.3,1,16.6,2.1,24.9,3.2
		c0.7,0.1,1.4,0.4,2.2-0.2c-1.2-2.9-2.5-5.9-3.7-8.8c-3-7.6-7-14.7-11.6-21.4c-6.8-9.9-15.7-17.3-26.6-22.5
		c-1.6-0.8-2.9-0.9-4.5,0.3c-1.9,1.5-4.3,2.5-6.6,3.3c-2.9,1.1-5.5-0.4-6-3.5c-0.2-1-0.1-2,0.1-2.9c0.4-1.7,1-3.3,1.9-4.8
		c2-3,3.9-6.1,6.4-8.8c0.9-1,1.8-2.1,2.7-3.2c0.4-0.5,0.6-1-0.1-1.4c-2.5-1.7-2.6-4.2-1.9-6.8c1-3.9,1.9-7.8,2.9-11.7
		c1.6-6,1.7-12.1,0.6-18.1c-1.1-5.7-1.1-11.5-0.8-17.2c0.2-4.4-0.4-8.6-1.5-12.9c-0.5-2-0.6-2.1-2.7-1.7c-4.1,0.7-7.9,2-11.5,4.2
		c-2.2,1.4-4.6,2.4-6.6,4.2c-0.2,0.2-0.5,0.4-0.8,0.5c-0.6,0.3-1.1,0.2-1.6-0.2c-0.5-0.4-0.6-1-0.4-1.6c0.2-0.6,0.6-1.2,1-1.7
		c3.9-5,7.7-10.2,12.9-14.1c0.5-0.4,1.3-0.7,1.5-1.9c-4.9,0.6-9.6,0.4-14.3,1.3c-8.7,1.5-15.5,5.7-19.4,13.9
		c-0.7,1.4-1.7,2.3-3.3,2.1c-1.6-0.2-2.5-1.2-2.8-2.7c-0.5-2.5-0.9-5-1.4-7.5c-0.7-3.3-0.2-6.5,0.8-9.7c1.9-5.3,3.7-10.7,8.2-14.6
		c-0.9-1-2-1.5-3.1-1.8c-3-0.8-5.8-0.5-8.6,0.8c-2.7,1.2-4.9,3.3-7.7,4.3c-5.8,2.2-10.5,6-14.7,10.5c-1.2,1.2-2.1,1.5-3,0.9
		s-1.1-1.6-0.6-3.1c0.6-1.8,1.6-3.4,2.8-4.9c1.8-2.2,3.8-4.3,5.6-6.6c2.9-3.7,6.5-6.8,10.7-8.9c3.6-1.8,4.8-5.3,6.8-8.2
		c-0.4-0.1-0.6,0-0.8,0.1c-1,0.6-1.9,1.3-2.8,2c-14.5,10.8-27.7,23.1-40.3,36.1c-8.7,8.9-16.7,18.6-24.3,28.4c-1.6,2-3.1,4-4.2,6.4
		c-0.9,2-1.8,4-3,5.8c-0.1,0.2-0.2,0.3-0.3,0.4c-0.4,1.1-0.7,2.2-0.9,3.3c-0.6,2.5-1.2,5-1.3,7.5c0.9-0.9,1.9-1.8,2.9-2.7
		c1.6-1.4,3-3,4.1-4.9c0.1-0.1,0.2-0.3,0.3-0.4c8.2-10.5,16.8-20.7,27.6-28.6c6.5-4.7,12.2-10.2,18-15.6c1.5-1.4,3.1-2.6,4.8-3.9
		c2.5-1.9,5.4-2.2,8.4-2.5c2.4-0.3,4,2,3.3,4.5c-0.3,1.2-1,2.2-1.7,3.3c-3.2,5-6.4,9.9-9.6,14.9c-1.8,2.8-3.6,5.7-4.9,8.8
		c-0.2,0.4-0.4,0.7-0.2,1.5c2.4-0.8,4.7-1.1,6.8-2.4c1.2-0.8,2.5-0.8,3.7,0.2c1.1,1,1.3,2.2,0.9,3.6c-0.4,1.3-1.1,2.4-1.8,3.5
		c-0.5,0.8-1.3,1.5-1.4,2.5c0.2,0.1,0.3,0.2,0.4,0.2c5.1-1.8,10.4-0.9,15.6-0.7c6.5,0.3,12.9,0.8,19.4,1.3c4.9,0.4,9.8,0.9,14.6,2.2
		c4,1.1,8.1,1.1,12.2,0.6c2.2-0.3,2.7,0.2,2.8,2.5c0.1,1.6-0.6,3-1.3,4.4c-1.7,3.1-3.8,6-5.8,8.8c-0.5,0.7-1.1,1.2-1.3,2
		c0.1,0.4,0.3,0.4,0.6,0.4c4,0.2,6.1,2.1,6.8,6.1s0.2,7.9-1.2,11.6c-1.7,4.4-4.1,8.4-7.2,11.9c-1.2,1.4-2.6,2.6-4.1,3.5
		c-2.5,1.5-5,2.9-7.5,4.3c-1.1,0.6-2.2,1.1-3.5,1.2c-2.1,0.2-3.4-1.3-2.9-3.4c0.4-1.5,1.3-2.7,2.2-3.8c0.7-0.8,1.3-1.6,1.9-2.5
		c-0.4,0.1-0.7,0.1-1.1,0.2c-0.1,0-0.1,0-0.2,0c-0.8,0.2-1.6,0.4-2.4,0.6c-4.9,1-9.8,1.9-14.8,2.2c-2.3,0.1-4.5,0.2-6.9-0.1
		c-2.9-0.4-5.7-1.4-8.6-1.8c-3.2-0.5-6.3,1-7.6,3.7s-0.7,6,1.6,8.1c1.6,1.4,3,3,4.4,4.6c0.6,0.3,1.2,0.6,1.9,1
		c1.9,1.1,2.4,2.2,1.8,3.5c0.6,0.8,1.2,1.7,1.8,2.5c4.3,6,8.9,11.6,15.3,15.5c1.1,0.7,1.1,1.3,0.6,2.4c-1.8,4.4-0.5,8.2,3.5,10.9
		c0.7,0.4,1.5,0.6,2,1.6c-1.4,1.3-3.3,1.6-4.9,2.5c-0.8,0.5-1.5,1-2.2,1.6c2.3,1.7,4.6,3.5,7.5,4.2c1,0.2,2,0.7,3,1.2
		c2.8,1.2,5.3,2.9,8.2,4c0.6,0.2,1.1,0.7,1.6,1.1c0.6,0.5,0.8,1.3,0.4,2c-0.4,0.8-1.1,0.8-1.9,0.5c-1.8-0.7-3.5-0.5-5.3,0.2
		c-4.6,1.6-9.2,3.1-13.7,4.7c-1.8,0.6-3.8,1-5.3,2.5c0.5,0.9,1.3,1,2,1.4c2,1.2,3.9,2.5,5.4,4.2c3,3.5,6,7,8.4,10.9
		c0.2,0.4,0.5,0.7,0.6,1c0.3,0.6,0.3,1.3-0.2,1.8s-1.1,0.6-1.8,0.4c-1-0.4-1.9-1-2.7-1.7c-1.8-1.4-3.5-2.9-5.5-4.1
		c-1-0.6-2-1.3-3.4-1.2c0.2,0.3,0.2,0.5,0.3,0.5c4.4,2.9,7.8,6.8,10.2,11.5c0.4,0.8,1.1,1.4,2,1.8c4.5,2,8.3,5,11.7,8.4
		c2.9,2.9,5.8,5.8,8.6,8.8c7.1,7.5,13.1,15.7,17.8,25c2.3,4.5,3.9,9.2,6.4,13.5c0.6,1.1,1,2.4,1.1,3.8c0,1.1-0.3,1.9-1.3,2.5
		s-1.9,0.3-2.7-0.4c-0.4-0.4-0.8-0.8-1.2-1.2c-1.3-1.6-2.9-2.9-4.4-4.3c-3.6-3.2-7.9-5.2-12.3-7.2c-0.5-0.2-0.9-0.6-1.7-0.3
		c1.2,4.2,1.6,8.4,2.4,12.6c0.8,4.9,2.6,9.3,5.4,13.3c2.4,3.4,4.5,7,6.7,10.6c2.4,4,4.1,8.2,5.1,12.7c0.2,1.1,0.6,2,1.1,3
		c2.8,5.2,5,10.7,7.4,16.1c0.8,1.7,0.7,3.4-0.7,4.8s-3,1.4-4.8,0.8c-0.8-0.3-1.5-1-2.3-1.1c-0.3,0.3-0.2,0.5-0.1,0.7
		c2,4.7,3.2,9.7,4.8,14.5c2.3,6.7,3.2,13.7,4.2,20.7c0.3,2-0.5,3.3-2,3.7c-1.3,0.4-3.1-0.5-4-1.8c-0.2-0.3-0.2-0.6-0.4-0.9
		c-2.7-5.4-5.2-10.9-8.5-16.1c-4.2-6.7-9.4-12.4-15.2-17.7c-0.4-0.3-0.7-0.8-1.6-0.8c2.6,3.3,4.9,6.4,7,9.6c5.3,8,9.3,16.5,13,25.4
		c5.3,12.7,8.8,25.7,11.1,39.2c0.4,2.2,0.8,4.4,0.5,6.6c-0.1,1-0.5,1.9-1.6,2.2c-1.1,0.3-1.9-0.2-2.6-1c-1-1.3-1.9-2.7-2.6-4.2
		c-1.2-2.6-2.6-5.1-4.1-7.5c-2.2-3.4-4.5-6.9-6.7-10.3c-3.1-5-6.8-9.7-10.7-14.1c-0.4-0.5-0.7-1.2-1.6-1.1c0.2,2.2,0.3,4.4,1.5,6.4
		c1.6,2.7,2.5,5.7,3.2,8.8c1.6,7.4,3.2,14.8,4.7,22.1c0.7,3.6,1.8,7,3.3,10.3c5.8,12.1,12.1,23.8,19.4,35.1
		c4.1,6.3,8.8,12.1,14.5,17c0.9,0.8,1.8,1.7,2.6,2.6c0.8,0.9,1.2,2,0.5,3.2c-0.6,1.1-1.7,1.6-2.9,1.4c-1-0.1-2-0.3-2.9-0.5
		c-9.1-2.3-18-5.2-26.9-7.9c-0.5-0.1-0.9-0.5-1.7-0.2c2.8,2.3,5.6,4.3,8.4,6.2c1.8,1.3,3.6,2.6,4.9,4.5c0.6,0.9,1.3,1.8,0.9,2.9
		c-0.4,1.1,0.2,1.5,1,1.8c1.8,0.9,3.7,1.8,5.5,2.7c5.6,2.7,11,5.9,16.8,8.2c4.5,1.8,8.8,4,12.9,6.7c0.6,0.4,1.1,1,2,0.8
		c0.2-0.5,0-1-0.1-1.5c-1.5-8.3-2.5-16.7-2.9-25.2c-0.6-10.5,0-21,2.2-31.3c1.4-6.7,3.9-13,6.5-19.3c2.2-5.3,3.6-10.7,4.2-16.4
		c0.1-1.1,0.2-2.1,0.4-3.2c2.5-16.6,0.1-32.5-5.6-48.1c-0.7-1.9-1.6-3.6-3.1-5c-4.7-4.6-8.4-9.9-11.5-15.6c-2-3.8-4.3-7.4-6.7-10.9
		c-1.8-2.6-3.4-5.4-4.6-8.4c-0.3-0.7-0.7-1.4-0.7-2.1c0.1-1.4,0-2.7-1-3.9c-0.3-0.4-0.4-1,0.1-1.3s0.9,0,1.3,0.3
		c0.8,0.6,1.3,1.5,2.4,1.6c1.6,0.2,2.7,1.1,3.8,2.2c2,1.9,3.7,4.2,5.4,6.4c1.2,1.6,2.6,2.9,4.2,4.1c8.4,5.9,16.8,11.8,26.2,16.1
		c0.3,0.2,0.6,0.6,1.3,0C786.4,432.4,784.9,427,783.1,421.7z"/>
	<path class="st1" d="M703.5,575.2c0,2.5,0.2,5.1,0.5,7.6c0.4,3.8,1.3,7.6,1.3,11.5c0,3.1-1.6,4-4.3,2.4c-0.9-0.6-1.7-1.3-2.3-2.2
		c-0.7-1.1-1.4-2.2-2-3.4c-1.8-3.6-4.6-6.5-5.9-10.3c-0.1,0.4-0.1,0.7,0,1c1,4.8,2.2,9.6,3.1,14.4c1.2,6.1,1.9,12.3,4.6,18.1
		c0.8,1.7,0.3,3.1-0.9,3.9c-1.2,0.8-2.7,0.6-4-0.7c-1.3-1.2-2.3-2.6-3.2-4c-2.7-4-5.4-8.1-7.8-12.3c-1.6-2.8-3.4-5.5-5.2-8.6
		c-0.1,0.5-0.2,0.8-0.1,1c1.2,6.2,2.5,12.4,5.6,18c1.4,2.6,2.8,5.2,4.1,7.8c0.4,0.8,0.8,1.6,1.1,2.5c0.3,0.7,0.2,1.5-0.5,2
		c-0.6,0.5-1.2,0.3-1.8,0c-5-2.3-9.5-5.5-12.7-9.9c-4.3-5.9-8.4-12-12-18.3c-2.7-4.7-4.6-9.8-6.5-14.9c-1.5-3.7-2.7-7.6-3.7-11.4
		c-4.7-0.7-9.1,2.2-10.4,6.6c0.7,1.1,1.4,2.2,1.9,3.4c2.7,5.8,5.6,11.5,8.2,17.4c1.4,3.1,3.2,5.7,5.5,8.1c3.9,4,7.7,8.1,11.5,12.2
		c1.3,1.4,2.5,2.9,2.6,4.9c0.2,3.9,1.8,7.5,3.1,11.1c0.9,2.5,2.1,4.8,3.5,7.1c0.8-0.8,1.6-1.6,2.4-2.4l0.4-0.4l0.4-0.4l0.8-0.8
		c0.6-0.5,1.1-1,1.7-1.5l1.7-1.5l0.9-0.7c0.3-0.2,0.6-0.5,0.9-0.7l1.8-1.4l0.5-0.4l0.5-0.3l0.9-0.7l1.9-1.3l1.9-1.3
		c5.1-3.3,10.6-6.1,16.3-8.4c0.4-0.1,0.7-0.3,1.1-0.4l1.1-0.4l2.2-0.8c0.4-0.1,0.7-0.3,1.1-0.4l1.1-0.3l0.6-0.2
		c-0.8-1.1-2-2.1-2.5-3.4c-0.1-0.3-0.3-0.6-0.3-0.9c-0.3-1.2-0.2-2.4,0.5-3.5c1.1-1.7,2.5-2.1,5-1.3c2.2,0.7,4.1,2.1,5.8,3.6
		c0.9,0.8,1.8,1.7,2.8,2.5c2.8-0.6,5.7-1.2,8.5-1.7c-11.7-11.9-22.5-24.4-32.3-37.8C703.4,573.9,703.5,574.5,703.5,575.2z"/>
	<path class="st1" d="M385,191.5c-0.4-0.2-0.9-0.3-1.4-0.4c-4.5-0.6-8.8-1.7-13.2-2.9c-6-1.6-12.2-2.5-18.4-3.2
		c-5.4-0.6-10.8-0.6-16.2,0c-0.8,0.1-1.6,0.2-2.4,0.3c2,1.7,2.6,4.4,1.5,7.1c-0.4,0.9-0.9,1.7-1.6,2.5c-4.4,5.1-9.5,9-16.2,10.7
		c-0.7,0.2-1.4,0.2-1.8,1c-1.1,2.3-3.2,2.7-5.4,2.5c-1.1-0.1-2.2-0.2-3.1-0.7c-2.5-1.2-4.6-0.5-6.7,0.7c-1.4,0.8-2.7,1.6-3.8,2.7
		c-4.5,4.2-8.8,8.6-12.2,13.8c-1.8,2.8-3.6,5.5-5.5,8.2c-3.4,4.8-5.9,10-7.8,15.6c-0.7,2.2-1.5,4.3-2.3,6.5
		c-0.3,0.8-0.5,1.6,0.1,2.3c0.7,0.8,1.7,0.6,2.5,0.2c1.6-0.7,3.1-1.4,4.7-2.1c3.2-1.5,6.5-2.8,9.9-3.8c5.2-1.5,10.5-1.8,15.8-1.1
		c5.8,0.8,11.5,1.7,17.3,2.6c1.1,0.2,2.3,0.2,3.3,1.4c-1.4,0.2-2.5,0.4-3.6,0.6c-11.9,1.8-22.5,6.4-31.4,14.7
		c-2.8,2.6-5.6,5.1-8.2,7.8c-3.6,3.6-7.3,7-12.1,9.1c-3.4,1.5-6.6,3.3-10.1,4.6c-0.8,0.3-1.8,0.4-2.4,1.1c0.2,0.6,0.8,0.6,1.2,0.7
		c8.7,2.2,17.4,2.4,26.1,0.6c7.5-1.5,14.7-4.2,21.2-8.4c2.5-1.6,5.1-2.9,8.1-3.6c2-0.4,2.8,0.3,2.7,2.3c-0.1,1.9-1.1,3.4-2.3,4.8
		c-3.2,3.7-6.1,7.7-9,11.7c-7.5,10.6-17.3,18.6-28.5,24.9c-5.9,3.3-12.1,5.8-18.8,7.1c-0.6,0.1-1.2,0.1-1.6,0.7
		c2,1.1,4.3,1.2,6.5,1.2c7.3,0.3,14.2-2.1,21.2-3.7c1.6-0.4,2.7-1.6,4.1-2.3c1.4-0.7,2.9-1.3,4.4-1.7c4.8-1.4,9.7-2.3,14.7-3.1
		c2.4-0.3,4.8-0.5,7,0.5c1.5,0.6,2.9,1.4,4.6,1.8c1.2,0.3,1.7,1.4,0.9,2.2c-1.5,1.7-2.5,3.8-5,4.4c-3.9,1-7.3,2.9-10.1,5.8
		c-1.3,1.3-2.8,2.3-4.2,3.4c-4.3,3.4-8.7,6.8-12.8,10.5c-10.1,9.1-18.2,20-26.8,30.5c-1,1.3-1.9,2.7-2.8,4c-0.7,1-1.2,2-1.5,3.1
		c-3.4,10.9-5.6,21.9-5.5,33.4c0,7.3,0.4,14.6,0.8,21.9c0.5,10.2,1.1,20.5,1.7,30.7c0.2,4.1-0.1,8.2-0.7,12.3
		c-1.6,10.7-4.3,21.2-6.9,31.7c-3.1,12.8-7.1,25.3-12.2,37.4c-0.1,0.3-0.3,0.6,0.3,1c3.9-1.5,8-2.9,12.1-4.5
		c3.8-1.5,7.2-3.8,10.4-6.5c3.8-3.3,7.1-7.1,10.2-11c0.9-1.1,1.7-2.2,3-2.8c1-0.5,1.4-1.2,1.6-2.3c0.4-2.1,1-4.1,1.8-6.1
		c0.3-0.7,0.7-1.3,0.4-2.1c-0.5-0.2-0.8,0.1-1.1,0.3c-1.4,1.1-2.8,2.2-4.3,3.3c-1.8,1.4-3.7,2.8-5.8,3.7c-1.5,0.7-3.1,1-4.8,0.7
		c-2.2-0.4-3-2.5-1.8-4.3c0.4-0.5,0.9-1,1.4-1.4c0.6-0.5,1.1-1.2,1.4-2c3.4-7.7,7.5-14.9,10.8-22.6c0.5-1.1,0.9-2.2,1-3.5
		c0.9-13.6,2.1-27.2,7-40.1c0.4-1,0.3-1.9,0-2.9c-1.7-4.7-1.9-9.6-1.2-14.6c0.1-1.1,0.5-2.2,0.3-3.2c-0.4-0.2-0.6-0.1-0.8,0.1
		c-1.1,0.8-1.9,2-2.9,3c-1.3,1.4-2.7,1.6-3.9,0.7c-1.1-0.8-1.5-2.2-0.7-3.8c1.1-2.3,2.3-4.5,3.4-6.8c2.5-5.4,5.7-10.3,9.5-14.9
		c3.3-4,6.5-8.1,9.7-12.1c0.3-0.4,0.9-0.7,0.6-1.6c-6.2,1.7-11.7,4.4-16.3,8.9c-0.7,0.7-1.4,1.4-2.2,2c-1,0.7-2.2,0.7-3.2-0.1
		c-1-0.7-1.3-1.7-1.1-2.8c0.1-0.5,0.3-0.9,0.5-1.4c1.1-2.4,2.2-4.8,3.3-7.1c2.3-4.5,4.9-9,8.4-12.7c4.4-4.6,8.8-9.3,13.8-13.3
		c7.8-6.3,15.7-12.4,23.6-18.6c0.7-0.5,1.5-0.9,1.9-1.8c-0.7-0.5-1.6-0.3-2.2-0.6c-1.7-0.8-3.1-0.3-4.6,0.5c-2.7,1.4-5.5,2.5-8,4.3
		c-1.4,0.9-2.7,0.8-3.6-0.2s-0.9-2.4,0-3.6c0.3-0.5,0.7-0.9,1.2-1.3c2-2,4.2-3.6,6.7-5c6.2-3.6,12.4-7.1,19.2-9.4
		c0.9-0.3,1.3-0.8,1.6-1.6c3.1-8.6,6.3-17.3,9.4-25.9c0.1-0.4,0.3-0.8-0.1-1.1c-0.8-0.2-1.6,0.1-2.4,0.2c-2.5,0.4-5,0.9-7.6,0.7
		c-3.6-0.2-7.2,0.3-10.8,0.8c-1.4,0.2-2.8,0.3-4.2,0.4c-0.5,0-1,0-1.5-0.1c-0.6-0.1-1-0.5-1.2-1.1c-0.1-0.6,0.1-1.1,0.7-1.5
		c0.5-0.3,1-0.5,1.6-0.7c5.1-2.2,10.4-4,14.8-7.7c0.3-0.3,0.7-0.4,1.1-0.6c3.1-1.7,5.8-3.9,8.8-5.9c2.4-1.6,3.5-3.7,3.4-6.6
		c-0.1-6,2.3-11.1,6.2-15.7c4.4-5.2,9.5-9.5,15.4-12.8c0.7-0.4,1.6-0.7,2.2-1.6c-1.7-1.1-2.9-2.5-2.8-4.4c0-1.4-0.7-1.7-1.8-1.6
		c-1.3,0.1-2.6,0-3.9,0.2c-4,0.6-7.9,1.6-11.6,3.1c-0.8,0.3-1.7,0.6-2.5,0.9c-0.7,0.2-1.3,0-1.7-0.6c-0.5-0.7-0.2-1.5,0.4-2
		c0.8-0.6,1.5-1.2,2.4-1.7c7.2-4.4,14.4-8.8,22.7-11.1c0.8-0.2,1.6-0.6,2.8-1c-2.3-1-4.2-1.9-5.7-3.3c-1.7-1.6-3.5-4.5-2.1-7
		c0.5-0.9,0.9-1.9,0.9-3.2c-2,0-3.8,0.1-5.7,0c-9-0.3-17.4,1.6-25.2,6.3c-0.6,0.4-1.3,0.7-2,1c-0.3,0.1-0.7,0.2-0.9-0.2
		c-0.3-0.4-0.2-0.8,0.1-1.1c0.6-0.5,1.2-0.9,1.7-1.4c0.4-0.4,1.1-0.6,1-1.3c-0.3-1.6,0.9-2.2,1.9-2.8c6.2-4,12.6-7.9,19.4-10.6
		c5.7-2.3,11.5-4.4,17.4-6.2c0-0.6,0.2-1.1,0.5-1.7c2.4-3.8,5.5-6.9,9.3-9.3c2.4-1.4,4.8-2.9,7.4-3.8c1-0.4,1.6-1,1.6-2.2
		C386.6,192.6,386,192,385,191.5z"/>
	<path class="st1" d="M401.4,112.9c-1-1.4-2.1-2.7-3.5-3.7c-2.5-1.8-5-3.5-7.3-5.4c-2.6-2.2-5.4-3.7-8.6-4.6
		c-3.3-0.9-6.7-1.7-10-2.6c-0.3-0.1-0.6-0.2-1.1,0.4c3.5,2.4,6.4,5.6,10.1,7.6c0.9,0.5,1.8,0.7,2.7,1.1c1.1,0.4,1.8,1.2,1.9,2.4
		c0.1,0.7-0.1,1.5-0.8,1.6c-1.4,0.2-2.9,1.1-4.3,0.1c-1.2-0.9-2.6-0.9-4-0.9c-3.1-0.1-6.2,1.2-9.4,0.5c-0.2,0-0.3,0-0.5,0.1
		c-6.4,1.1-12.7,0.7-19.1-0.3c-9.1-1.5-18-3.6-26.8-6.2c-2-0.6-3.3,0-4.6,1.2c-1.1,1-1.4,2.4-1.5,3.8c-0.1,2.9,0.4,5.7,0.7,8.6
		c0.2,2,1,3.6,2.7,4.7c4.6,3.2,8.2,7.9,13.2,10.7c1.2,0.7,1.7,2,1.5,3.4c-0.2,1.5-1.1,2.5-2.6,3c-0.9,0.3-1.9,0.4-2.9,0.3
		c-1.9-0.2-3.7-0.9-5.3-1.8c-3.4-2-7.2-3.3-10.7-4.9c-1.9-0.9-2.7-0.6-3.9,1.2c-1.1,1.7-1.9,3.4-2.3,5.4c-0.8,3.9-1.2,7.8-1.1,11.7
		c0.1,3.6,1.7,6.6,4.6,8.9c0.4,0.3,0.8,0.6,1.2,0.9c2.6,2.5,2,6.4-1.1,8c-1.4,0.7-2.8,0.9-4.3,0.7c-2-0.2-3.8-0.8-5.6-1.9
		c-1.3-0.8-2.6-1.6-3.9-2.3c-0.6,0.4-0.4,0.8-0.4,1.2c0.5,4.2-1,7.7-3.3,11.1c-0.5,0.7-0.9,1.4-1.2,2.1c-1.2,2.5-1.2,2.7,0.8,4.4
		c5.3,4.4,11.2,7.7,18.2,8.6c1,0.1,2.1,0.7,3.1,0.4c2.6-0.9,5.3-1.6,8-3.2c-0.4-0.4-0.5-0.6-0.7-0.7c-2-1-3.9-2-5.9-3
		c-1.9-1-3.8-1.9-5.5-3.3c-2.9-2.4-2.3-6.4,1.1-8c1.2-0.5,2.5-0.7,3.8-0.8c4.9-0.3,9.6-1.5,14.2-2.9c0.6-0.2,1.3-0.2,1.6-0.9
		c-0.1-0.7-0.6-1.1-0.9-1.5c-3.1-3.6-5.3-7.7-6.7-12.2c-0.7-2.3-1.3-4.7-2.7-6.8c-0.2-0.3-0.3-0.8-0.4-1.2c-0.4-2.3,1.3-3.9,3.5-3.4
		c0.5,0.1,1,0.2,1.4,0.5c3.5,1.8,7.4,2.6,11.2,3.6c2.9,0.7,5.8,0.8,8.8,0.4c6.2-1,12.3-2.8,18.5-4c0.5-0.1,1.2-0.1,1.4-0.9
		c-2.1-1.9-4.2-3.8-5.9-6.2c-0.8-1.1-1.7-2-2.7-2.9c-5.7-5-11.5-9.8-17.5-14.4c-0.7-0.6-1.4-1.1-1.9-1.9c-0.9-1.5-1-3-0.1-4.4
		c0.9-1.5,2.3-2,4-1.9c1.2,0.1,2.2,0.6,3.2,1.2c2.3,1.4,4.7,2.7,7.2,3.8c1.5,0.7,3,1.1,4.7,0.6s3.6-0.6,5.4-0.6
		c4.8-0.2,9.7-0.5,14.5-0.8c2.5-0.1,5.1-0.2,7.6,0.2c9.3,1.3,18.1,3.8,26.4,8.3c0.4,0.2,0.8,0.6,1.3,0.5c0.5-0.6,0.3-1.1-0.1-1.6
		C406,120.5,404.1,116.5,401.4,112.9z"/>
	<path class="st1" d="M445.5,528c-2-3.9-3.7-7.9-6-11.6c-2.7-4.3-3.7-8.7-3.1-13.6c0.2-1.7-0.3-2.9-1.3-4.2
		c-7.6-9.7-12.7-20.4-14.2-32.7c-0.2-1.6-0.4-3.2-1-4.8c-1.7-4.5-1.5-9,0-13.5c0.5-1.6,0.6-3,0.1-4.5c-0.3-0.9-0.5-1.8-0.8-2.8
		c-0.6,1.7-1.2,3.4-1.7,5.1c-1.6,5.9-2.5,11.8-3.3,17.8c-0.5,3.7-0.8,7.3-0.1,11c0.9,4.5,2.2,8.7,5.3,12.2c0.8,0.9,1.8,1.7,2.3,2.9
		c2,4.4,4.7,8.5,5.8,13.3c0.5,2.2,1.5,4.3,2.5,6.4c0.8,1.4,1.4,3,2,4.5c2.1,5,3.8,10.1,5.8,15.1c0.6,1.6,1.5,3.1,2.5,4.5
		c0.4,0.5,0.8,1.1,1.5,1.1c2.3,0.2,3.9,1.4,5.3,2.9c-0.3-1.8-0.6-3.5-0.7-5.3C446.5,530.5,446.1,529.2,445.5,528z"/>
	<path class="st1" d="M464.7,522.9c-0.1-3.5-2.1-5.5-4.9-6.6c-3.6-1.5-7.3-2.9-10.7-5c-0.2-0.1-0.4-0.2-0.7,0c0,0.7,0.6,1.3,0.9,1.9
		c2.6,5.1,5.1,10.3,5.9,16.1c0.4,2.8,0.5,5.5,0.7,8.3c0.2,3.4,0.9,6.7,2,9.9c1.3,4,4.1,6.9,7.2,10.2c0.4-4,0.7-7.5,1-11
		c0.2-2.5,0.4-5,0-7.4C465.2,533.9,464.9,528.4,464.7,522.9z"/>
	<path class="st1" d="M543.7,438.6c-0.4-1.1-0.8-1.6-2.1-1.3c-4,1.1-7.8-0.2-11.4-1.9c-0.6-0.3-1-0.6-1-1.2c0-0.8,0.6-1.2,1.3-1.3
		c1.6-0.1,3.2-0.5,4.8,0c1.7,0.5,3.5,0.8,5.3,0c0.8-0.4,1.2-0.9,0.7-1.9c-2.5-5.3-5.9-9.9-11.4-12.5c-3.1-1.5-6.3-2.7-9.6-3.9
		c-0.8-0.3-1.6-0.4-2.4-0.4c-5.6-0.1-11.2,0-16.7,1c-9.6,1.7-18.4,5.5-26,11.6c-0.5,0.4-1.1,0.7-1.4,1.4c-0.7,2.3,2.1,5.6,4.5,5.2
		c1.5-0.3,3-0.8,4.5-1.2c2.4-0.6,4.7-1.4,7.2-1.6c-0.1,0.6-0.5,0.7-0.8,1c-2.4,1.6-4.9,3.1-6.8,5.2c-0.3,0.3-0.8,0.5-1.2,0.8
		c-2.4,1.3-4.8,2.6-7.1,3.9c-2.2,1.2-2.6,1.2-4.1-0.7c-0.2-0.3-0.4-0.6-0.5-0.8c-0.3-0.3-0.6-0.6-1-0.5c-0.5,0.1-0.5,0.6-0.6,1
		c-0.5,3.1-0.6,6.2-0.6,9.3c0,3.1,1.4,5.7,3,8.2c0.5,0.7,1,0.9,1.8,0.8c3.3-0.3,6.5-0.5,9.8-0.8c0.5,0,1.2,0.1,1.5-0.6
		c-0.3-0.5-0.7-1.1-1-1.6c-2.4-4.4,0.2-8.9,5.2-9c4.5-0.1,8.1,2.7,9.3,7c1.2,4.5-0.8,9.4-4.6,11.4c-2.7,1.4-5.7,2.2-8.8,2.2
		c-1,0-2.1-0.2-3.4,0.6c7.3,6.4,15.4,11,24.1,15.4c0.2-2.2,0.4-4,0.5-5.9c0.2-4.6,1.2-9.1,0.6-13.7c-0.5-3.3-0.5-6.7-1.6-9.9
		c-0.2-0.7-0.3-1.5-0.3-2.2c-0.2-3.6,2-6.1,5.6-6.4c2.8-0.2,5,1.2,5.7,4c0.4,1.5,0.4,3.1,0.2,4.6c-0.4,4.3-1.3,8.4-1.9,12.6
		c-0.2,1.2-0.2,2.3,0.2,3.4c1.3,3.4,1.3,6.9,0.8,10.4c-0.3,1.9-0.4,3.9-0.7,5.9c6.2-1.1,22-13.6,26.2-20.7c-0.9,0-1.6-0.1-2.2,0
		c-3.8,0.5-7.3-0.6-10.8-1.9c-6.3-2.2-6.9-8.2-5.2-13.2c0.5-1.6,1.6-3,3.1-4c2.1-1.4,4.3-1.5,6.5-0.2c2,1.2,2.7,3.2,2.4,5.5
		c0,0.4-0.2,0.8-0.3,1.2c-0.2,0.7,0.2,1.1,0.9,1.2c2.2,0.3,4.2,1.3,6.3,2.1c2.7,1.1,5.5-1,5.5-3.9c0-3-0.4-5.9-0.8-8.8
		C544.6,441.7,544.3,440.2,543.7,438.6z"/>
	<path class="st1" d="M561,516.8c-2.2,0.6-4.5,1-6.7,1.4c-1.6,0.3-3.6-0.2-4.6,1c-1.1,1.3-0.6,3.3-0.6,5c0.2,6.3,0,12.6-0.4,18.9
		c-0.3,4.3-0.3,8.7,0,13c0.1,1.1,0,2.3,0.8,3.7c1.1-2.7,1.6-5.2,2.1-7.7c0.9-4.8,2.6-9.2,6.6-12.3c1.1-0.9,1.5-2.1,1.9-3.4
		c1.2-4.4,1.8-9,2.4-13.6c0.3-2.2,0.6-4.3,0.9-6.5C562.3,516.1,561.6,516.6,561,516.8z"/>
	<path class="st1" d="M602.4,448.1c0.5-1.9,0-3.6-0.8-5.2c-1.1-2.3-2.3-4.5-3.4-6.8c-0.9-1.8-1.3-3.7-1.4-5.7
		c-0.1-2.5-0.3-4.9-0.5-7.4c-0.1-1.2-0.3-2.4-0.6-3.6c-0.4-1.3-1.3-2.3-2.4-2.5c0,0.4,0,0.9-0.1,1.3c-0.6,5.4-1.2,10.8-1.5,16.2
		c-0.2,4.2,0.2,8.1,2.9,11.6c1.8,2.4,2.2,5.2,2.1,8.2c-0.1,2-0.2,3.9-0.5,5.9c-0.6,3.7-0.2,7.4,0.5,11c0.4,1.9,0.4,3.8,0,5.6
		c-1,4.2-2.1,8.3-3.8,12.2c-1.5,3.6-3.6,6.8-6.1,9.7c-3,3.4-5.9,6.8-9.6,9.5c-1.1,0.8-1.1,1.9-1,3.1c0.2,5.4-0.5,10.6-1.4,15.9
		c-0.7,4-2.1,7.6-4.2,10.9c4.8-4.5,8.4-9.9,11.4-15.7c2.9-5.8,5.5-11.8,9.5-16.9c5.5-7,7.8-15.2,8.8-23.9c0.5-4.2,0.9-8.4,1.7-12.7
		c1.1-6,1.6-12,0.7-18.1C602.6,449.9,602.2,449,602.4,448.1z"/>
</g>
<g>
	<path class="st2" d="M420.4,526.4c-3,0-5.5-1.2-8.1-2.7c-9.1-5.2-14.7-12.8-16.9-23c-1.4-6.4-3-12.8-3.4-19.4
		c0-0.4-0.1-0.8-0.2-1.2c-0.1-0.5-0.4-0.9-1-0.7c-1,0.3-2.2,0.4-2.9,1.3c-1.1,1.3-2.5,2-3.9,2.9c-2,1.2-3.2,3-4.5,4.8
		c-0.7,0.9-1.2,2.1-2.7,1.6c-0.9-0.3-0.9-1.3-0.4-3.1c0.7-2.3,2.7-4,3.1-6.4c0.4-2.2,0.3-4.6,1.5-6.6c0.5-1,0.5-2,0-3.2
		c-6.7,2.7-13.9,4.2-19.6,9.2c0.6-2.3,1.8-4.1,3.1-5.9c1.3-1.8,3-3.4,4.2-5.7c-2.9,0.2-5.8,0.2-8.6,0.8c-2.1,0.4-4.4,0.7-6.4,1.6
		c-4,1.6-7.2,4.3-10,7.4c-1.8,2-4,3.7-6,5.5c-0.1-0.1-0.2-0.2-0.2-0.3c-0.5,3.2,0.4,6,2.7,8.4c0.7,0.7,2,0.8,2,2
		c0,1.1-0.9,1.9-1.4,2.8c-0.3,0.5-0.6,1-1,1.4c-4.5,6.5-6.9,13.8-8,21.7c-0.3,2-0.2,4.1-0.5,6.1c-0.7,4.6-0.3,9.2-0.3,13.7
		c0,0.3,0.1,0.6,0.3,0.9c0.9,2.2,3,2.6,4.8,1.1c0.7-0.6,1.2-1.4,1.6-2.1c2-3.2,4.2-6.2,7.6-8.2c1.6-0.9,3-2,4.4-3.1
		c2.5-2,5.5-2.9,8.3-4.2c1.7-0.8,3.3-1.4,5.2-1.2c0.6,0.1,1.3,0.1,1.9-0.1c1.3-0.4,1.4,0.2,1.4,1.2c0,3.4-1.4,6.5-1.8,9.8
		c0,0.3-0.3,0.6-0.5,0.9c-2.9,4-3.6,8.7-4.1,13.4c-0.2,2.2,0.1,4.4,0.9,6.5c0.8,2,2.7,2.4,4.4,1.1c1-0.8,1.6-1.8,2.1-3
		c0.9-2.1,2.3-4,4-5.6c1.4-1.4,3.1-2.3,5.2-3.1c-0.3,2.3-0.5,4.3-0.9,6.3c-0.5,2.7-0.1,5.4-0.6,8.1c-0.7,4.5-0.1,9-0.8,13.5
		c-0.5,3.8,0.2,7.7,1,11.4c0.5,2.8,1.4,5.6,2.4,8.3c0.6,1.5,1.7,2.6,3.2,2.6c1.3,0.1,2.3-0.8,2.8-2.1c0.7-1.9,1.4-3.8,1.9-5.8
		c1.1-5.3,3.2-10.2,6.2-14.6c1.6-2.4,3.3-4.7,4.8-7.2c1.8-2.9,3.6-5.9,5.6-8.7c3.7-5.1,8.6-9,13.3-13.1c3.8-3.3,6.9-7.2,9.4-11.4
		c-1.1-1.2-2.1-2.6-2.9-4.1C421.6,526.4,421,526.4,420.4,526.4z"/>
	<path class="st2" d="M347.5,470.6c1.7-1.6,3.5-3.1,5.2-4.6c-2.3,1.2-4.6,2.7-6.7,4.3c-3.9,3.2-7.2,6.9-8.4,12.1c0,0.1,0,0.1,0,0.2
		c0.1-0.1,0.2-0.2,0.2-0.3C340.4,477.9,343.7,474.1,347.5,470.6z"/>
	<path class="st2" d="M519.1,244.3c0.2-0.9,0.4-1.9,1.6-2.3c1.9-0.7,3.4-2,5-3.1c2.5-1.6,5-3.1,7.7-4.3s5.5-2.1,8.3-3
		c0.7-0.2,1.4-0.5,2-0.8c0.6-1,1.3-1.9,1.9-2.9c0.9-1.4,2-2.6,3.3-3.7c1.1-0.8,1.8-1.9,2.5-3c1.7-2.7,3.5-5.2,5.6-7.6
		c0-0.1,0-0.3,0-0.4c0-0.9-0.3-1.6-1-2.2c-1.6-1.3-3.3-2.4-5.5-2.3c-0.8,0-1.6-0.1-2.5,0c-1.3,0.1-1.9-0.3-2-1.7
		c-0.2-1.6-0.7-3.2-2.3-4.2c-1.7-1-3.5-1.5-5.3-0.3c-0.8,0.5-1.6,0.8-2.2,0.2c-1.2,1.2-2.4,2.4-3.6,3.6c-4.5,4.6-8.2,9.8-10.2,16
		c-1.2,3.8-3.5,6.7-7.3,8.1c-2.2,0.9-3.5,2.9-5.5,4.6c0.1-2.9-0.5-5.5-0.6-8.6c-1.2,1.3-1.2,2.7-1.9,3.7c-0.7,1-1.4,2-2.1,3
		c-0.9-0.1-0.9-0.9-1.1-1.4c-1.1-2.4-2.6-4.6-4.4-6.5c-0.9-1-1.9-1.8-3.1-2.4c-3.9-1.9-7.3-0.8-9.3,3.1c-0.2,0.4-0.2,1-0.8,1.3
		c-1.1-0.6-1.5-1.7-1.7-2.8c-1.1-6.7-4.9-11.9-8.7-17.2c-0.7-1-1.7-1.5-2.7-2.1c-1.2-0.8-1.8-1.8-1.9-2.7c-0.2,0-0.4,0-0.6,0
		c-4,0.7-7,2.7-8.9,6.3c-0.5,1-1,2.1-1.8,2.9c-0.1,0.1-0.1,0.2-0.2,0.2c0.6,1.4,1.2,2.8,1.6,4.3c1.2,4.2,2.7,8.3,3.7,12.5
		c0.2,0.7,0.4,1.4,0.9,2s1,1.3,1.6,2c2.5,2.5,5.6,4.2,9.1,5.3c5.9,1.9,10,5.7,12.5,11.3c0.8,1.9,1.9,3.7,3,5.4
		c1.1,1.6,2,3.4,2.7,5.2c1.2,2.8,2.1,5.7,2.3,8.7c0.2,3.4,0.4,6.9,1.7,10.1c0.3,0.7,0.3,1.4,0.3,2.2c0,5.7,0,11.3-0.1,17
		c0,0.4,0.3,1-0.9,1.3c-0.6-0.7-1.3-1.6-2.1-2.4c-1.3-1.3-2.8-2.2-4.5-2.8c-1.9-0.7-3.5-0.1-4.8,1.1s-1.8,2.8-1.1,4.7
		c0.8,1.9,1.5,3.8,2.6,5.6c1,1.6,1.9,3.3,2.6,5c1.4,3.5,1.7,7.1,0.9,10.8c-0.2,0.9-0.6,1.4-1.4,1.7c-1.9,0.8-3.1,2.3-3.7,4.3
		c-0.6,1.8-0.3,3.5,0.1,5.3c0.5,2.8,1,5.7,2.4,8.2c0.2,0.3,0.4,0.7,0.6,1l0.1-0.1c1.3-0.9,2.7-1.6,4.1-2.2c2.4-1,4-2.8,5.2-5
		c2.4-4.2,4.2-8.7,5.6-13.3c0.3-0.9,0.5-1.8,0.9-2.5c1.9-3.3,2.2-6.8,2.1-10.5c0-0.5,0-1,0-1.4c0.2,0,0.3,0,0.5,0
		c0.6,1.8,1.2,3.6,1.8,5.3c2.2,6.1,5.1,11.9,8.7,17.3c3.8,5.8,8.9,10.5,14.9,14c0.2,0.1,0.3,0.2,0.5,0.3c0.2-0.5,0.3-1.1,0.3-1.8
		c0-0.8-0.1-1.6-0.3-2.4c-0.8-3.5-1.4-7-1.2-10.7c0.1-3.5,0-7.1,0-10.6c0-2-0.5-3.9-1.5-5.6c-1.9-3.3-4.5-3.9-7.5-1.7
		c-1,0.7-1.5,0.4-2-0.3c-0.9-1.4-1.5-2.9-1.8-4.5c-0.4-2.3-0.8-4.7-1.2-7c-0.6-4.1-1.2-8.3-1.2-12.4c-0.1-5.8-0.7-11.6-1.8-17.3
		c-0.6-2.8-1.2-5.7-0.6-8.5C517,255.2,518.2,249.8,519.1,244.3z"/>
	<path class="st2" d="M601.2,403.1c-0.4,2.3,1.2,3.7,3.5,3.2c1.9-0.4,4.8-3.5,5-5.3c0.2-2.2,0.2-4.4-0.8-6.5
		c-0.7-1.6-1.4-3.1-2.1-4.7c-0.9-2.1-1.6-4.3-1.5-6.6c0-2.9,0-5.7,0-8.6c0-1.2,0.2-2.3,1.2-3c1.1-0.9,1.6-2.3,2.3-3.5
		c0.5-0.9,0.3-1.5-0.4-2.2c-0.7-0.6-1.5-1.2-2.1-2c-1.8-2.7-4.5-3.1-7.4-2.6s-2.9,0.5-4.4-1.9c-0.2-0.3-0.3-0.6-0.5-0.8
		c-0.4-0.7-0.4-1.3-0.1-2.1c0.5-1.2,1.1-2.2,2.5-2.7s2.7-1.2,3.9-2c3.2-2.1,5.9-4.7,8.2-7.7c3.2-4.2,6-8.6,6.9-13.9
		c0.4-2.3,0.7-4.7,0.6-7c-0.1-2.1-0.5-4.2-1.1-6.2c-0.1-0.4-0.2-0.8-0.2-1.3c-2.1,8.2-4.6,16.2-10.5,22.7c-1.3,1.4-2.6,2.8-4.2,3.8
		c-5.1,2.9-10.2,5.9-16,7.5c-2.5,0.7-5,0.6-7.5-0.3c-5.6-2-10.5-5.2-15-9.1c-2.3-2-4.7-3.9-6.8-6c-2.6-2.5-5.3-4.9-6.7-8.5
		c-0.2-0.6-0.7-1.2-0.7-1.8c-0.5-4.3-2.5-8.3-3.1-12.6c0-0.1,0-0.2,0-0.3c-0.5,1.6-0.8,3.3-0.9,5.1c-0.3,3.8-0.4,7.5,0.4,11.2
		c1.6,7.3,5.2,13.6,9.8,19.3c0.9,1.1,1.5,2.2,2,3.6c0.7,2.2,0.7,4.5,1.4,6.7c0.3,1.2,0.7,2.4,0.9,3.6c0.4,2.6,0.1,2.9-2.5,2.8
		c-2.2-0.1-4.2,0.2-6.1,1.4c-1.4,0.9-2.1,2-2.2,3.6c-0.3,2.4,0.8,4.3,2.3,6c1.2,1.3,2,2.9,2.1,4.6c0.2,4.7,0.2,9.5-0.5,14.2
		c-0.1,0.5-0.3,1.1-0.6,1.6c-1.8,2.5-2.1,5.6-2.1,8.4c0,4.3,1.2,8.5,4,11.9c3.4,4,5.7,8.6,8.2,13.1c1.1,2,2.1,4.1,3.9,5.6
		c2.8,2.4,6.7,1.4,8-2.1c0.8-2.2,1.1-4.6,1.3-7c0.3-3.4,1.1-6.6,2.8-9.6c2.8-5,5.8-9.9,7.7-15.4c0.7-2.1,2.1-3.2,4.1-3.8
		c1.9-0.5,3.8-1,5.6-1.8c1.7-0.8,2.2-0.6,3.3,1c1.4,1.9,2.7,3.9,4,5.9C601.1,401.3,601.3,402.1,601.2,403.1z M598.6,363.5
		c-5,2.9-10.1,5.3-16.2,4.4c-2.3-0.3-4.7,0-7.1,0c-0.7,0-1,1.2-0.3,1.7c0.6,0.5,1.4,0.9,2,1.4c1,0.7,0.8,1.6-0.3,2
		c-0.9,0.4-1.8,0.5-2.7,0.2c-2.4-0.7-4.6-1.7-5.8-4.2c-0.4-0.8-0.8-1.6-1.1-2.5c-0.6-1.4-1.4-2.6-2.7-3.5c-3-2.2-4.8-5.3-6.1-8.7
		c-0.5-1.2-0.6-2.4,0.3-3.8c1.1,0.7,2.1,1.5,3.3,1.9c7,2.5,13.7,5.8,20.8,8.1c5,1.6,10,2.3,15.2,1.2c0.4-0.1,1-0.4,1.3,0.2
		C599.5,362.7,599.1,363.2,598.6,363.5z"/>
	<path class="st2" d="M549,299c-0.3,0.6-0.6,1.1-0.8,1.7c1.1-0.9,2.3-1.7,3.5-2.4c0.4-0.2,0.9-0.4,1.4-0.5s1,0,1.3,0.4
		c0.3,0.5,0.2,0.9-0.1,1.4c-0.4,0.5-0.9,1-1.2,1.5c-1.1,1.6-1.5,3.1-0.3,5c1,1.5,1.8,3.1,3.4,4.6c1.3-3,2.8-5.5,4.6-7.8
		c7.1-9.6,14.6-12.5,25.9-9.4c8,2.1,15.4,6,21.1,12.4c1.6,1.8,3.4,3.6,5.2,5.3c1.1,1,1.7,2.2,1.6,3.6c0.1-0.4,0.4-0.8,0.9-1.2
		c0.8-0.6,1.1-1.8,0.8-2.9c-0.6-2.3-1.3-4.5-2.5-6.6c-1.7-3-4-5.3-6.3-7.8c-1.6-1.7-3.4-3.3-4.9-5.2c-4.9-6.3-11.4-9.6-20-10
		c-3.1,0.4-6.9,0.7-10.5,2c-4,1.4-7.7,3.3-11.3,5.4C556.1,291,551.5,294,549,299z"/>
	<path class="st2" d="M655.1,464.6c0-0.1-0.1-0.2-0.1-0.3c-0.3-0.1-0.5-0.3-0.8-0.4c-4.6-2.4-9.3-4.5-14-6.7c-1.9-0.9-2-0.9-3.2,0.8
		c-0.8,1-1.5,2.1-2.4,3.1c-0.6,0.8-0.7,1.3,0.2,2c5.8,4.8,8.3,11.2,8.4,18.6c0.1,4.9-0.3,9.7-0.9,14.5c-0.1,0.8-0.4,1.6-0.6,2.4
		c-0.3,0.8-0.9,1.5-1.8,1.3c-0.9-0.1-1.1-0.9-1.2-1.6c-0.2-1.7-0.8-3.3-1.3-5c-1.2-4.5-4.8-6.7-8.4-8.8c-0.8-0.5-1.4-0.2-2,0.3
		c-1.9,1.6-3.6,3.3-3.8,6.1c-0.3,3.5-1.8,6.4-4.2,9c-1.7,1.8-2.7,4.1-4.4,5.9c-0.6,0.6-0.6,1.5-0.6,2.3c0,2,0.2,3.9,0.8,5.8
		c0.7,2,0.4,3.4-0.8,4.2c-1.2,0.9-2.9,0.7-4.5-0.5c-1.2-0.9-2.3-2.1-4.1-2.8c-0.5,2.2-0.9,4.2-1.3,6.1c-0.6,2.9-1.7,5.6-3.8,7.9
		c-1.4,1.5-2.2,3.4-3.2,5.2c1.9,2.6,3.6,5.3,5.2,8.1c2.6,4.6,5.1,9.4,9,13.1c0.3,0.3,0.6,0.8,0.8,1.2c1.3,2.9,3.2,5.5,4.3,8.5
		c0.5,1.3,1.3,2.5,2.3,3.5c0.4,0.4,0.8,0.9,1.5,0.6c0.6-0.3,1-0.8,1.1-1.5c0.1-0.6-0.1-1.1-0.2-1.7c-0.4-2.3-1-4.7-0.7-7
		c0.5-4.4,0.8-8.8,1.7-13.1c0.4-2.2,1.1-4.3,1.8-6.4c0.4-1.1,1-1.2,1.8-0.4c0.2,0.2,0.4,0.5,0.6,0.8c1.6,3.4,4.2,6.2,6.2,9.4
		c0.3,0.4,0.5,0.9,0.8,1.2c0.9,0.9,2,0.8,2.6-0.4c0.4-0.6,0.2-1.3,0.3-1.9c0.1-1.8-0.6-3.5-0.6-5.4c0.1-8.8,0.1-17.6,0-26.3
		c0-1.8,0.5-3.2,1.8-4.3c0.6-0.5,1-1,1.6-1.6c3.2-3.1,5.3-6.8,6-11.3c0.3-1.5,0.9-2.9,2-4.2c2.4-2.6,4.5-5.4,6.1-8.6
		C656.8,479.5,657.3,472.2,655.1,464.6z"/>
	<path class="st2" d="M461.4,383.8c0-3.3-1.2-6.2-3.4-8.5c-1.7-1.7-2.3-3.4-2.1-5.7c0.1-0.6,0.1-1.3,0-2c-0.4-2.9-1.7-5-4.6-6.2
		c-0.5-0.2-1.1-0.3-1.7-0.4c0,0.2,0,0.3,0,0.5c-0.1,2.6-1,5-2.5,7.1c-1.5,2.3-3,4.5-4,7c-0.5,1.2-1.4,2-2.8,2
		c-1.5-0.1-2.4-0.9-3-2.2c-0.1-0.1-0.1-0.3-0.1-0.5c-0.4-2.8-0.8-5.5-0.4-8.5c-2.1-0.1-4,0.7-6,0.9c-2,0.1-4,0.3-6-0.7
		c-1.4-0.7-3.2-0.5-4.8-0.8c-6-0.9-11.1-3.4-14.9-8.3c-0.6-0.8-1.3-1.5-1.2-2.6c0-0.1,0-0.3,0-0.4c-0.1-0.1-0.2-0.3-0.3-0.4
		c-0.9-1.2-2-1.5-3-1.1c-0.8,0.4-1.6,1.7-1.3,3c0.4,1.8,0.5,3.8,1.5,5.4c1.2,1.8,0.7,3.3-0.3,4.7c-2.5,3.5-3.2,7.5-2.6,11.7
		c0.4,3.1,1.6,6,3.9,8.3c2.2,2.2,2.8,3.2,3.7,6.2c0.6,1.8,0.8,3.5,0.7,4.7c-0.1,3.5,0.2,6.3,1,9.1c0.5,1.9,1.6,2.5,3.5,2.5
		s3.3-1,3.9-3.1c0.7-2.8,1.9-5.4,3.5-7.8c0.7-1,1-1.1,1.7,0c1.7,2.6,3.9,4.6,6.8,5.8c0.9,0.4,1.8,0.9,2.5,1.6
		c1.5,1.4,3.2,2.6,4.9,3.7c1.7,1,2.2,2.4,2.3,4.3c0.2,3.8,0.7,7.7,1.9,11.3c0.4,1.2,0.6,2.4,0.5,3.6c-0.2,3.7-0.5,7.3-0.1,11
		c0.6,5.8,3.6,9.8,7.8,13.4c0.8,0.7,1.7,0.7,2.5,0.3c0.8-0.5,0.5-1.2,0.4-2c-0.4-3.4-0.4-6.8,1-10.1c1-2.3,2.1-4.6,3.3-6.9
		c2.1-3.9,3.4-8,3-12.5c-0.1-0.8-0.1-1.6,0.3-2.4c0.6-1.5,1.2-3,1.8-4.6c1.5-4.4,2.8-8.9,2.8-13.6c0-2.4-0.6-4.7-1.1-7
		c-0.2-0.8-0.5-1.6,0-2.4C461.6,389.1,461.4,386.4,461.4,383.8z"/>
	<path class="st2" d="M402.1,312.3c0.6-1,1.4-2,2.3-2.9c1.4-1.4,3.1-2.4,4.8-3.4c1.2-0.7,2.3-1.5,3.4-2.4c0.8-0.6,1.5-1.2,2.3-1.8
		c0.2-0.2,0.4-0.3,0.6-0.4c4.4-3.1,9.3-5.4,14.7-6.7c5.6-1.4,10.7,0.4,15.4,3.4c5,3.3,9,7.6,12.2,12.7c0.8,1.2,1.5,2.5,2.5,3.6
		c0-4.6-0.4-9.1-3-13c-2.9-4.4-6.7-8-11.2-10.5c-4.9-2.8-10.3-4.6-16.2-4.5c-0.8,0-2.1,0.5-2.3-0.5c-4,1.1-7.7,2.6-11.4,4.6
		c-6.6,3.6-10.9,8.9-14.1,15.5c-0.8,1.6-1,3.3-0.8,5C401.4,311.4,401.6,311.9,402.1,312.3z"/>
	<path class="st2" d="M425.8,346.3c-5-2-9.3-5.2-12.8-9.4c-0.6-0.7-1.2-1.4-1.6-2.1c-2.2-4.3-5-8.1-7.7-12c-0.6-0.8-0.9-1.7-1.4-2.6
		c-0.2-0.4-0.4-0.7-0.5-1c-0.4,0.5-0.4,1.2-0.4,2.8c0,3.9,1.1,7.6,1.8,11.3c0.7,3.1,1.7,6.2,3.3,8.9c2.2,3.8,5.9,6,9.6,8.2
		c2.3,1.4,4.9,2.5,7.6,2.7c6.2,0.4,12.4-0.1,18.3-2.6c3-1.3,5.9-2.7,8.3-5c0.3-0.8,0.6-1.5,1.3-2.1c0.3-0.3,0.5-0.6,0.3-1.2
		c-1,0.8-1.9,1.6-2.9,2.2C441.5,348.8,433.7,349.5,425.8,346.3z"/>
</g>
<g>
	<path class="st3" d="M446.8,319.3c-0.8,7.5-7.4,12.9-15,12.3c-7.3-0.6-12.7-6.8-12.6-14c-0.5,1.2-0.8,2.5-0.9,3.9
		c-0.7,8,5.2,15,13.2,15.7s15-5.2,15.7-13.2C447.3,322.4,447.2,320.8,446.8,319.3z"/>
	<path class="st3" d="M595.7,313.8c0.8,7.5-4.6,14.2-12.1,15.1c-7.3,0.9-13.9-4-15.3-11c-0.2,1.3-0.2,2.6-0.1,4
		c1,7.9,8.2,13.6,16.1,12.6c7.9-1,13.6-8.2,12.6-16.1C596.9,316.7,596.4,315.2,595.7,313.8z"/>
	<path class="st3" d="M587.9,322.4c3.7,0,6.6-3,6.6-6.6c0-3.7-3-6.6-6.6-6.6s-0.9,3.2-0.9,6.9C587,319.7,584.2,322.4,587.9,322.4z"
		/>
	<path class="st3" d="M437.5,323.2c3.7,0,6.6-3,6.6-6.6c0-3.7-3-6.6-6.6-6.6c-3.7,0-0.9,3.2-0.9,6.9
		C436.6,320.5,433.8,323.2,437.5,323.2z"/>
	<path class="st3" d="M627.4,653.7c-0.7,1.1-1.4,2.2-2,3.3c-2,3.4-4.3,6.6-6.8,9.6c-2.9,3.5-5.3,7.2-6.8,11.3h27.6
		c-3-7.7-6.7-15-10.7-22.2C628.2,655,627.8,654.4,627.4,653.7z"/>
	<path class="st3" d="M421.5,647.3c-2.5-3.2-5.2-6.4-7.3-9.9c-1.2-2.1-2.9-3.6-5.2-4.6c-2-0.9-3.9-2-6.2-2.2c-1.1-0.1-1.8-1-2.7-1.7
		c-2.7,3-5.1,6-7.2,9.2c-4.2,6.4-8.9,12.4-13,18.9c-1.4,2.3-3.3,4.2-5.3,5.9c-0.9,2.3-1.7,4.6-3,6.7c-1.7,2.8-3.1,5.6-4.4,8.5h22.1
		c0.3-0.4,0.6-0.8,1-1.1c1.7-1.6,3.3-3.2,5-4.7c1.6-1.4,3.5-2.5,5.5-3.1c1-0.3,2-0.4,2.7,0.5c0.7,0.8,0.7,1.8,0.3,2.8
		c-0.6,1.4-1.4,2.6-2.3,3.8c-0.5,0.6-1,1.3-1.5,1.9h25.6c2-3.2,4.1-6.3,6.3-9.4c1.3-1.8,2.7-3.7,3.8-5.6c-0.5-0.4-0.9-0.8-1.3-1.2
		C429.8,657.2,425.5,652.4,421.5,647.3z"/>
	<path class="st3" d="M642.8,650.2c-0.8,1-0.6,2-0.7,2.9c-0.9,8.4,0.4,16.6,1.6,24.8h2.1c0.2-0.1,0.4-0.3,0.6-0.4
		c0.9-0.6,1.8-1.3,2.6-2.1c0.5-0.4,1-0.9,1.4-1.3c0,0,0,0,0.1-0.1c0.2-0.3,0.4-0.5,0.6-0.8c1-1.3,1.9-2.6,2.8-3.8
		c-1.7-4.5-3.9-8.8-6.4-13C646.1,654.3,644.6,652.1,642.8,650.2z"/>
	<path class="st3" d="M579.7,660.6c-0.2-1-0.5-1.9-0.5-2.9c-3-7-5.7-14.1-8.1-21.4c-0.9-2.9-2.2-5.6-3.6-8.4
		c-3.7-7.3-6.6-14.8-8.2-22.8c-0.7-3.7-0.9-7.5-1.3-11.2c-0.4-4.4-2.7-7.8-6.4-10c0,0-0.1,0-0.1-0.1c-0.1,0.3-0.1,0.5-0.2,0.8
		c-1.2,5.6-3.7,10.7-7.6,15c-5.1,5.6-11.3,9.8-18.2,12.7c-7.8,3.2-15.8,2.4-23.7,0.7c-4.1-0.9-8.1-2.2-12-3.6
		c-4.4-1.6-8.3-3.9-11.7-7.2c-0.9-0.9-1.8-1.7-2.7-2.5c-4.9-4.4-7.7-10-9.1-16.3c-4.2-0.7-7.7,1.6-11.1,4.2c-1,0.8-1.9,1.5-2.7,2.4
		c-0.4,3-1.2,5.9-2.1,8.8c-2.2,7.1-4.3,14.3-5.4,21.7c-0.9,6-1.6,12-1.2,18.1c0.1,1.6,0.5,2.6,2,3.5c5.3,3.3,8.5,8.1,9.4,14.3
		c0.4,2.8-0.2,5.6-1.1,8.2c-0.8,2.3-1.2,4.6-1.2,7c0,2.1-0.2,4.2-0.7,6.1h38.9c0.2-1.8,0.4-3.6,0.7-5.4c1-6.9,4.2-12.9,7.9-18.6
		c0.5-0.8,1.2-1.4,2-1.8c3.2-1.8,6.8,0.1,6.9,3.8c0.1,1.3-0.1,2.6,0.3,3.9c0.3,1,0.7,1.7,1.9,1.8c1.9,0.2,3.4,1.2,4.7,2.5
		c1.9,1.8,3.8,3.6,5.6,5.6c0.9,1,1.8,1.2,3,0.5c2.3-1.2,4.2-2.4,5.5-4.9c1.8-3.6,4.1-6.9,6.2-10.4c1.4-2.3,3.1-4.4,5-6.4
		c3.2-3.4,7.4-2.7,9.4,1.5c0.3,0.7,0.4,1.4,1,2c0.1,0.1,0.3,0.1,0.6,0.2c0-1.8-0.4-3.6-0.6-5.3c-0.1-0.8-0.3-1.6-0.1-2.4
		c0.2-1,0.7-1.9,1.8-2.1c1.2-0.3,2.1,0.2,2.7,1.2c1.7,3,3.7,5.8,4.9,9.1c2.6,6.7,4.9,13.4,6.2,20.5c0.3,1.7,0.8,3.4,1.4,5h16.5
		c-1.1-3.9-2.3-7.8-3.6-11.7C580.6,664.4,580.1,662.5,579.7,660.6z"/>
	<path class="st3" d="M669.6,647.8l0.7-0.8c-0.4-1.1-0.8-2.1-1.3-3.1c-0.9-1.9-1.5-4-2.2-6c-0.2-0.7-0.5-1.4-1-2
		c-1.5-2-2.9-4-4.4-5.9c-3.8-4.7-7.1-9.6-10.3-14.7c-0.4-0.7-0.6-1.5-1.5-1.8c-0.5,0.5-0.5,1.2-0.6,1.8c-1.3,8-1,15.9,0.6,23.7
		c1.1,5.3,2.6,10.4,5.1,15.3c1.4,2.8,2.5,5.7,3.4,8.6c0.5-0.7,1-1.4,1.5-2.1c0-0.1,0.1-0.1,0.1-0.2c2.2-3.2,4.5-6.3,6.9-9.4
		C667.7,650.1,668.7,649,669.6,647.8z"/>
	<path class="st3" d="M351,668.9c-0.6-1.4-1.2-2.7-1.7-4.1c-1.9,2-4,3.8-6.2,5.6c-0.7,0.5-1.3,1.1-2,1.6c0.3,0.5,0.7,0.9,1,1.4
		c0.2,0.3,0.4,0.5,0.6,0.8c0,0,0,0,0.1,0.1c0.5,0.5,0.9,0.9,1.4,1.3c0.8,0.7,1.7,1.4,2.6,2.1c0.2,0.1,0.4,0.3,0.6,0.4h5.7
		c-0.5-2.3-1.1-4.6-1.5-7C351.6,670.3,351.3,669.5,351,668.9z"/>
	<path class="st3" d="M455.8,495.9c0.3,2,0.6,4.1,0.3,6.1c-0.1,0.9-0.5,1.7-0.9,2.4c8.2,4,15.8,5.4,25.9,5.2
		c7.2-0.6,15.2-1.3,23.1-2.8c1.6-0.3,3-0.2,4.6,0.3c2.7,0.9,5.6,1.3,8.4,1.8c7,1.2,14.1,1.1,21.1,0.9c5.7-0.2,11.3-0.7,16.9-1.7
		c3.8-0.6,7.1-2.5,10.4-4.4c0.2-0.1,0.5-0.3,0.7-0.4c-0.5-1.4-0.9-2.9-1-4.4c0-0.5-0.3-0.9-0.7-1.3c-3.6-4-6-8.7-7.3-14
		c-0.4-1.6-1.3-2.8-2.8-3.5c-0.9-0.5-1.7-1-2.5-1.6c-1.9-1.4-3.5-3.1-4.1-5.4c-0.2-0.7-0.3-1.3-0.5-2c-0.8,0.9-1.7,1.8-2.6,2.7
		c-3.9,3.7-7.9,7.2-12.5,10c-3.3,2-5.9,4.9-9.3,6.9c-2.5,1.5-5,3.1-7.6,4.6s-5.4,1.3-8.1,0.4c-2.4-0.7-4.5-1.9-6.7-3.1
		c-6.5-3.8-12.6-8-18.6-12.5c-4.6-3.4-8.7-7.2-12.8-11.2c-0.2,2.2-1.1,4.1-2.7,5.7c-2,2-4.4,3.4-6.9,4.7c-2.6,1.2-3.9,3.2-4.4,6.1
		C454.9,489,455.3,492.5,455.8,495.9z"/>
	<path class="st3" d="M415,326.7c0.1-0.7,0.1-0.9,0.1-1.2c-0.2-4-0.5-8,1.2-11.9c0.1-0.2,0.2-0.5,0.2-0.7c0.1-0.8-0.4-1-1.1-1
		c-0.5,0-1,0.3-1.3,0.7c-1.2,1.6-2.4,3.2-3.4,4.8c-0.7,1-0.8,2.2-0.2,3.3C411.8,322.7,413,324.7,415,326.7z"/>
	<path class="st3" d="M446.6,332.2c-0.3,0.5-0.6,1-0.1,1.6c0.6,0.6,1.2,0.3,1.8,0c0.2-0.1,0.4-0.3,0.6-0.4c1.9-1.5,3.7-3.3,5.3-5.1
		c1.2-1.3,1.3-2.9,0.9-4.6c-0.8-3.8-3.5-6.3-5.8-9.5c-0.1,0.6-0.2,0.7-0.2,0.7c0,0.2,0.1,0.5,0.2,0.7c1.5,4.7,1.1,9.2-1.1,13.6
		C447.7,330.2,447.1,331.2,446.6,332.2z"/>
	<path class="st3" d="M561.1,328.4c2.1,1.2,4.2,2.5,6.4,3.7c0.6,0.3,1.2,0.9,2.4,0.7c-1.6-1.7-3.1-3.1-4.4-4.7
		c-1.4-1.6-2.1-3.5-2.5-5.5c-0.4-1.9-0.2-4-0.2-6.2c-2.7,1.7-3.5,4.1-4.7,6.3c-0.3,0.4-0.2,1-0.1,1.4
		C558.6,325.9,559.5,327.5,561.1,328.4z"/>
	<path class="st3" d="M601.8,310.9c-0.6-0.4-1.2-0.5-1.8-0.1c-0.7,0.4-0.6,1.1-0.5,1.7c0.5,3.9,1,7.8,1.1,12.1
		c3.2-2.3,4.4-5.2,4.4-8.8C604.9,313.5,603.5,312.1,601.8,310.9z"/>
	<path class="st3" d="M707.1,677.8L707.1,677.8L707.1,677.8L707.1,677.8z"/>
	<path class="st3" d="M832.2,658.7c-1.8-3.5-3.9-6.7-6.3-9.7c-2.5-3-5.2-5.7-8.2-8.2c-3-2.4-6.3-4.5-9.8-6.2l0,0l-5.1-2.3
		c-0.5-0.5-1.1-1-1.6-1.5c-1.3-1.1-2.6-2.1-4.1-3c-6.1-3.4-12.9-5.3-19.7-6.4c-3.4-0.6-6.9-0.9-10.3-1.1c-2.3-0.1-4.6,0-6.8-0.4
		c-2.5-0.4-4.8-1.5-7.3-1.7c-1-0.1-1.9,0-2.9,0.1c-7.9,0.8-15.8,2-23.5,4.3c-3.8,1.2-7.6,2.6-11.2,4.4c-3.4,1.7-6.5,4.2-10.1,5.6
		c-0.9,0.3-1.7,0.7-2.6,1.1c-18.3,7.9-34.6,23.3-41,42.4l0,0c1.7-0.4,3.6,0.3,4.9-0.8c0.5-0.4,0.8-1.1,1.1-1.7
		c3-6.3,5.8-12.9,10.8-17.9c6.1-6,15.7-8.5,22.9-2.9c0,0,0,0,0-0.1l0.1,0.1c0.4,0.3,0.8,0.7,1.2,1.1l0,0c0.1,0.1,0.3,0.2,0.4,0.4
		c0.5,0.4,0.9,0.9,1.3,1.4c0.1,0.1,0.1,0.2,0.2,0.3c-0.6,0-1.2,0-1.8,0.1c-1.3,0.1-2.6,0.5-3.8,0.9c-2.5,0.9-4.8,2.3-6.9,3.8
		c-0.5,0.4-1.1,0.8-1.6,1.1l-0.8,0.6l-1.4,1.1l-0.8,0.6c0,0,0.8-0.2,0.9-0.2c3.8-1,7.6-1,11.2,0.7c0.3,0.1,0.6,0.3,0.9,0.4
		c0.3,0.2,0.6,0.3,0.8,0.5c0.5,0.3,1,0.8,1.5,1.2c1,0.9,1.8,1.8,2.6,2.9c0.8,1.2,1.6,2.4,2.2,3.7l0,0c-0.1,0.4-0.2,0.7-0.3,1.1
		c-0.1,0.2-0.1,0.4-0.2,0.7v0.1c-0.1,0.4-0.1,0.8-0.2,1.3c0,0.1,0,0.2,0,0.3s0,0.2,0.1,0.3c0,0.2,0.1,0.4,0.1,0.6v-0.1v0.1l0,0
		c0.1,0.7,0.3,1.4,0.4,2.1c0.2,0.8,0.4,1.6,0.5,2.5c1,1.7,2.1,3.4,2.7,5.3c0.1,0.2,0.1,0.4,0.2,0.5v0.1c0,0.2,0.1,0.3,0.1,0.5l0,0
		c0,0.2,0.1,0.4,0.1,0.6c0,0.1,0,0.1,0,0.2c0,0.2,0.1,0.3,0.1,0.5v0.1c0,0.2,0.1,0.3,0.1,0.5c0,0.1,0,0.1,0,0.2c0,0.1,0,0.3,0,0.4
		c0,0.1,0,0.2,0,0.3s0,0.3,0,0.4c0,0.1,0,0.2,0,0.3s0,0.2,0,0.3c0,0.2,0,0.4,0,0.6v0.1c0,0.1,0,0.3,0,0.4l0,0c0,0.3,0,0.6,0,0.9
		c0.1,0.1,0.2,0.3,0.3,0.4c0.5,0.7,1.1,1.3,1.6,2c0.3,0.3,0.6,0.6,0.8,0.9c2.3,2,4.8,3.9,7.8,4.6c4.8,1.1,9.9-0.5,14.8-0.1
		c1,0.1,2,0.2,2.8-0.1c1.7-0.7,2.7-3.4,3.6-4.9c1.4-2.3,2.5-4.8,3.4-7.3c1.8-4.8,2.9-9.8,3.3-14.9c0.6-8-0.8-16.2-4.1-23.5
		c-1.6-3.7-3.6-7.2-6-10.5s-5.1-6.3-8-9c-0.4-0.4-0.8-0.7-1.1-1l-1.9-1.7l0,0l0,0h0.1h0.2l0.4,0.1l0.7,0.2l1.1,0.3l0.4,0.1l0.4,0.1
		l0.7,0.2c1.9,0.6,3.8,1.4,5.6,2.3c16.7,8.7,23.9,26.3,25,44.2c0,0.1,0,0.2,0,0.4c0,0.5,0,1.1,0,1.6s0,1-0.1,1.5
		c0,0.5-0.1,0.9-0.1,1.4c0,0.1,0,0.1,0,0.2c0,0.3-0.1,0.6-0.1,1c0,0.3-0.1,0.7-0.2,0.9c0,0.2-0.1,0.4-0.1,0.6
		c-0.4,3-1.5,5.9-2.4,8.7c-1,3-2.7,5.9-1.5,9.1c2.6,6.7,8.6,8.9,15.1,9.9c0.9,0.1,1.7,0.2,2.6,0.4c1.1,0.1,2.2,0.3,3.3,0.4
		c1.3,0.1,2.5,0.3,3.8,0.4c0.2,0,0.5,0,0.7,0.1c0.2,0,0.4,0,0.7,0c0.5,0,0.9,0,1.4,0v-0.1c0.6-2.5,1.9-4.8,3.1-7
		c5.5-10.7,7.6-23.5,5.9-35.7c-1.6-11.3-8-21.8-15.9-29.8c-0.8-0.8-1.6-1.8-1.5-2.9c2.8,0.7,5.8,3.1,8.2,4.6c3,1.9,5.9,3.9,8.7,6.1
		c4.9,4.1,9.6,9.4,10.6,16c1.9,12.6,5.4,13.3,3.8,26c-0.4,3.4-2.5,6.4-3.2,9.8c-0.9,4.7-1.2,9.1-3,13.6c-0.1,0.3-0.3,0.6-0.3,0.9
		c-0.1,0.3-0.3,2.7-0.8,2.5c2.3,0.8,13.2,2.9,13.8-1l0.3-2.2l2.7-15.1c2.6-14.9,3-29.8-3.7-43.7c-1.4-3-4-8.6-5.9-10.4
		c0.2,0.2,0.5,0.4,0.7,0.6c3.7,3.5,7.2,6.8,9.9,11.2c3.2,5.1,6,10.8,8.1,16.4c0.2,0.4,0.3,0.9,0.5,1.4c0.6,1.8,1.1,3.7,1.5,5.5
		c0.8,3.7,1.1,7.5,1.2,11.3c-0.1,3.8-0.5,7.5-1.3,11.1c-0.3,1.1-0.6,2.2-0.9,3.3c0.3-0.1,0.7-0.2,1-0.3c0.9-0.4,1.7-1,2.4-1.8
		c0.7-0.7,1.2-1.6,1.7-2.4c0.5-0.9,0.8-1.8,1.1-2.7c0.2-0.5,0.3-0.9,0.4-1.4C839.3,684.3,838.1,670.4,832.2,658.7z M709.8,630.4
		C709.8,630.4,709.9,630.4,709.8,630.4C709.9,630.4,709.9,630.3,709.8,630.4C709.9,630.3,709.9,630.3,709.8,630.4z"/>
	<path class="st3" d="M290.7,633.8c-0.9-0.4-1.7-0.7-2.6-1.1c-3.6-1.4-6.6-3.9-10.1-5.6c-3.6-1.8-7.3-3.3-11.2-4.4
		c-7.6-2.3-15.5-3.5-23.5-4.3c-1-0.1-1.9-0.2-2.9-0.1c-2.5,0.2-4.8,1.3-7.3,1.7c-2.3,0.4-4.5,0.2-6.8,0.4c-3.5,0.2-6.9,0.6-10.3,1.1
		c-6.8,1.1-13.6,3-19.7,6.4c-1.5,0.8-2.8,1.8-4.1,3c-0.6,0.5-1.1,1-1.6,1.5l-5.1,2.3l0,0c-3.5,1.7-6.7,3.8-9.8,6.2
		c-3,2.4-5.8,5.2-8.2,8.2s-4.6,6.3-6.3,9.7c-5.9,11.7-7.1,25.6-3.7,38.3c0.1,0.5,0.2,0.9,0.4,1.4c0.3,0.9,0.7,1.8,1.1,2.7
		c0.5,0.9,1,1.7,1.7,2.4s1.5,1.4,2.4,1.8c0.3,0.1,0.6,0.2,1,0.3c-0.3-1.1-0.6-2.2-0.9-3.3c-0.8-3.6-1.2-7.4-1.3-11.1
		c0-3.8,0.4-7.5,1.2-11.3c0.4-1.9,0.9-3.7,1.5-5.5c0.2-0.5,0.3-0.9,0.5-1.4c2.1-5.6,4.9-11.3,8.1-16.4c2.8-4.4,6.2-7.7,9.9-11.2
		c0.2-0.2,0.5-0.4,0.7-0.6c-1.9,1.8-4.4,7.4-5.9,10.4c-6.8,14-6.4,28.8-3.7,43.7l2.7,15.1l0.3,2.2c0.6,3.9,11.5,1.8,13.8,1
		c-0.6,0.2-0.8-2.2-0.8-2.5s-0.2-0.6-0.3-0.9c-1.8-4.5-2-8.9-3-13.6c-0.7-3.3-2.7-6.4-3.2-9.8c-1.7-12.6,1.8-13.4,3.8-26
		c1-6.6,5.7-11.9,10.6-16c2.7-2.3,5.7-4.3,8.7-6.1c2.5-1.5,5.5-3.9,8.2-4.6c0.2,1.1-0.7,2.1-1.5,2.9c-7.9,8-14.3,18.5-15.9,29.8
		c-1.7,12.2,0.4,25,5.9,35.7c1.2,2.3,2.5,4.5,3.1,7v0.1c0.5,0,0.9,0,1.4,0c0.2,0,0.4,0,0.7,0c0.2,0,0.5,0,0.7-0.1
		c1.3-0.1,2.5-0.3,3.8-0.4c1.1-0.1,2.2-0.2,3.3-0.4c0.9-0.1,1.7-0.2,2.6-0.4c6.5-1,12.5-3.2,15.1-9.9c1.3-3.2-0.5-6.1-1.5-9.1
		c-0.9-2.8-2-5.8-2.4-8.7c0-0.2-0.1-0.4-0.1-0.6c-0.1-0.3-0.1-0.7-0.2-0.9c0-0.3-0.1-0.6-0.1-1c0-0.1,0-0.1,0-0.2
		c0-0.5-0.1-0.9-0.1-1.4s0-1-0.1-1.5c0-0.5,0-1.1,0-1.6c0-0.1,0-0.2,0-0.4c1.1-17.9,8.3-35.5,25-44.2c1.8-0.9,3.7-1.7,5.6-2.3
		l0.7-0.2l0.4-0.1l0.4-0.1l1.1-0.3l0.7-0.2l0.4-0.1h0.2h0.1l0,0l0,0l-1.9,1.7c-0.4,0.3-0.8,0.6-1.1,1c-3,2.7-5.7,5.7-8,9
		c-2.4,3.3-4.3,6.8-6,10.5c-3.2,7.4-4.7,15.5-4.1,23.5c0.4,5.1,1.5,10.1,3.3,14.9c0.9,2.5,2.1,5,3.4,7.3c0.9,1.5,1.9,4.2,3.6,4.9
		c0.9,0.4,1.9,0.2,2.8,0.1c4.9-0.4,10,1.2,14.8,0.1c3.1-0.7,5.5-2.6,7.8-4.6c0.3-0.3,0.6-0.6,0.8-0.9c0.6-0.7,1.1-1.3,1.6-2
		c0.1-0.1,0.2-0.3,0.3-0.4c0-0.3,0-0.6,0-0.9l0,0c0-0.1,0-0.3,0-0.4v-0.1c0-0.2,0-0.4,0-0.6c0-0.1,0-0.2,0-0.3s0-0.2,0-0.3
		s0-0.3,0-0.4c0-0.1,0-0.2,0-0.3s0-0.3,0-0.4c0-0.1,0-0.1,0-0.2c0-0.2,0-0.3,0.1-0.5v-0.1c0-0.2,0.1-0.3,0.1-0.5c0-0.1,0-0.1,0-0.2
		c0-0.2,0.1-0.4,0.1-0.6l0,0c0-0.2,0.1-0.3,0.1-0.5v-0.1c0.1-0.2,0.1-0.4,0.2-0.5c0.7-1.9,1.7-3.6,2.7-5.3c0.2-0.8,0.4-1.6,0.5-2.5
		c0.1-0.7,0.3-1.4,0.4-2.1l0,0c0,0,0,0,0-0.1v-0.1v0.1c0-0.2,0.1-0.4,0.1-0.6c0-0.1,0-0.2,0.1-0.3c0-0.1,0-0.2,0-0.3
		c0-0.4-0.1-0.8-0.2-1.3v-0.1c0-0.2-0.1-0.4-0.2-0.7c-0.1-0.4-0.2-0.7-0.3-1.1l0,0c0.6-1.3,1.3-2.5,2.2-3.7c0.8-1,1.6-2,2.6-2.9
		c0.5-0.4,1-0.8,1.5-1.2c0.3-0.2,0.5-0.3,0.8-0.5s0.6-0.3,0.9-0.4c3.6-1.7,7.4-1.7,11.2-0.7c0.1,0,0.9,0.2,0.9,0.2l-0.8-0.6
		l-1.4-1.1l-0.8-0.6c-0.5-0.4-1.1-0.8-1.6-1.1c-2.2-1.5-4.4-2.8-6.9-3.8c-1.2-0.4-2.5-0.8-3.8-0.9c-0.6-0.1-1.2-0.1-1.8-0.1
		c0.1-0.1,0.1-0.2,0.2-0.3c0.4-0.5,0.8-1,1.3-1.4c0.1-0.1,0.3-0.2,0.4-0.4l0,0c0.4-0.4,0.8-0.7,1.2-1.1l0.1-0.1v0.1
		c7.2-5.6,16.8-3.2,22.9,2.9c5,4.9,7.8,11.5,10.8,17.9c0.3,0.6,0.6,1.3,1.1,1.7c1.3,1.1,3.3,0.4,4.9,0.8l0,0
		C325.3,657.1,308.9,641.7,290.7,633.8z M283.3,630.3l0.1,0.1l0,0C283.4,630.3,283.3,630.3,283.3,630.3z"/>
</g>
<g>
	<path class="st4" d="M543.9,565.8c-0.6-2.4-1.4-4.7-2.1-7.1c-0.8-2.6-1.4-5.2-1.7-7.9c-0.5-4.4-0.8-8.8-1.1-13.3
		c-0.3-5.9-1-11.8,0.6-17.6c0-0.1-0.1-0.3-0.2-0.7c-9.8,0.3-19.6-0.2-28.9-3.3c-0.4,0.3-0.3,0.5-0.3,0.8c1,3.5,0.8,6.9,0.6,10.5
		c-0.4,6.4-0.2,12.8,1.7,19c1.1,3.5,2.1,7.1,3.2,10.6c1.1,3.5,0.1,6.7-2.2,9.4c-1.1,1.3-2.6,1.8-4.2,1.3c-1.7-0.5-2.7-1.8-2.6-3.5
		c0.1-3.1-0.8-6-1.1-9c-0.5-3.9-0.4-7.7,0.4-11.5c0.3-1.5,0.4-3.1,0.2-4.7c-0.7-6.9-1.2-13.9-1.4-20.9c0-0.7,0.1-1.5-0.5-2.2
		c-9.3,2.3-18.7,4.2-28.7,3.8c0.1,0.7,0.1,1.1,0.1,1.5c1.5,9.1,2,18.3,1.6,27.5c-0.3,6.3-0.8,12.6-1.4,18.9
		c-0.2,1.9-0.1,3.7,0.3,5.6c1,4.9,2.8,9.6,4.9,14.1c3.4,7.1,8.8,12,16,14.7c0.6,0.2,1.2,0.4,1.8,0.6c2.6,0.8,5.2,1.5,7.8,2
		c1.6,0.4,3.3,0.7,4.9,0.9c6.9,1.1,13-0.6,18.4-5c5.4-4.5,9.5-9.9,12.5-16.3C545.1,578.2,545.6,572.1,543.9,565.8z"/>
</g>
</svg>
