<?xml version="1.0" encoding="utf-8"?>
<!-- Generator: Adobe Illustrator 24.0.1, SVG Export Plug-In . SVG Version: 6.00 Build 0)  -->
<svg version="1.1" id="Layer_1" xmlns="http://www.w3.org/2000/svg" xmlns:xlink="http://www.w3.org/1999/xlink" x="0px" y="0px"
	 viewBox="0 0 990 781.2" style="enable-background:new 0 0 990 781.2;" xml:space="preserve">
<style type="text/css">
	.st0{fill:#E4706A;}
	.st1{fill:#535459;}
	.st2{fill:#BBBBBA;}
	.st3{fill:#DC8A12;}
	.st4{fill:#FDBA57;}
	.st5{fill:#FFFFFF;}
</style>
<g>
	<path d="M207.1,733.4c-0.8,0.7-0.8,1.4-0.9,2.1c-0.4,3.9-2.4,7.1-4.7,10c-1.1,1.4-2.6,1.8-4.3,1.3c-5.1-1.3-9.6-3.6-13.1-7.5
		c-3.7-4-7.3-8-10.1-12.8c-0.8-1.3-1.9-2.4-3.2-3.1c-6.9-3.8-11.5-9.8-15.5-16.3c-0.4-0.6-0.7-1.3-1-1.9c-1.6-4.2-3-8.4-3.8-12.9
		c-0.7-4-0.5-8-0.3-12c0.3-6.3,1.5-12.5,3.4-18.6c1.8-5.7,4.9-10.6,9.2-14.7c0.9-0.8,1.7-1.7,2.6-2.5c6.7-5.5,13.4-11.1,20.6-16
		c10.8-7.4,22.9-11.6,35.8-13.4c12.6-1.7,25-0.6,37.4,1.8c3.5,0.7,3.4,0.7,4.7-2.5c3.4-8.6,6-17.5,8.8-26.4
		c3.6-11.6,7.9-23,11.4-34.6c0.6-2.2,0.6-3.9-0.6-5.9c-4.5-7.4-6.8-15.6-8.6-24c-1.6-7.5-1.2-14.9,0.2-22.4
		c2.5-13.8,3.7-27.7,2.9-41.8c-0.2-2.9-0.3-5.8,0.8-8.5c0.3-0.7,0.1-1.4-0.2-2.1c-0.5-1.2-0.9-2.4-1.4-3.6c-5-10-7.8-20.7-10-31.7
		c-1.8-9.1-2.5-18.2-1.8-27.4c0.5-6.3,1.4-12.6,2.1-18.8c0.7-6.4,1.5-12.7,2.1-19.1c0.6-7.7-0.3-15.3-2.6-22.7
		c-0.6-1.9-1.3-3.8-1.6-5.8c-0.4-3.7,0.1-7.2,1.7-10.5c1.3-2.7,3-5.1,4.8-7.4c1.3-1.6,2.3-3.4,2.9-5.5c1.4-4.7,3-9.3,4.2-14
		c0.4-1.4,0.5-2.8,0.1-4.3c-0.2-1-0.2-2.1-0.2-3.1c0.2-8-0.8-16-1.6-23.9c-0.1-1.5-0.7-2.8-1.8-3.8c-2.6-2.5-4.6-5.3-6.5-8.3
		c-0.4-0.7-0.8-1.4-1.3-2c-5.2-6.1-6.5-13.5-7.6-21.1c-0.7-5.2-0.7-10.3-0.1-15.5c0.7-5.9-0.1-11.6-1-17.4
		c-1.4-8.5-2.4-17.1-3.2-25.7c-0.3-3-0.8-6-1.7-8.9c-2.4-8.1-4-16.3-3.9-24.8c0-1.8,0.2-3.7,0.3-5.5c0.3-5.5,0.5-11,0.3-16.5
		c-0.2-5.7,0.4-11.4,1.7-16.9c2.2-9.5,4.8-18.9,8.1-28.1c3.1-8.4,8-15.6,15.3-21c5-3.7,10.2-4.5,16.1-2.6c3.5,1.2,6.6,2.9,9.4,5.2
		c5.2,4.2,9.9,9.1,14.1,14.3c1.8,2.2,3.6,4.3,5.6,6.2c5.5,5.3,10.9,10.8,16.2,16.4c4.3,4.7,9.5,7.8,15.8,9
		c6.4,1.2,12.5,3.4,18.6,5.5c4.1,1.5,7.7,3.9,10.9,6.9c3.5,3.4,7.3,6.2,11.6,8.3c3.7,1.8,7.1,4.4,10.5,6.7
		c7.2,4.7,14.7,8.7,22.7,11.9c3.1,1.2,6.3,2.3,9.7,2.8c0.4,0,0.8,0.1,1.2,0.3c2.3,1.5,4.7,0.9,7.2,0.3c10.1-2.2,20.1-4.4,30.4-5.8
		c14.7-2,29.4-2.8,44.3-1.7c8,0.6,15.9,1.7,23.7,3.5c3.8,0.9,7.4,2.1,10.7,4c2.5,1.4,4.9,1.6,7.6,1.1c5.1-1,9.8-2.8,14.3-5.3
		c5.8-3.1,11.5-6.4,17.1-9.7c4.1-2.4,7.8-5.3,11.2-8.6c5.4-5.1,10.7-10.4,15.5-16c2.2-2.5,4.6-4.9,7.1-7.1
		c6.6-5.8,13.2-11.4,20.2-16.6c5.4-4,10.3-8.6,15.2-13.2c6.2-5.8,12.8-11.1,20.2-15.4c4.7-2.8,9.8-4.4,15.3-4.4
		c8.5,0.1,15.5,3.3,21,9.9c4.3,5.2,6.8,11.1,8.7,17.5c2.5,8.6,3.8,17.3,4.8,26.1c0.7,6.9,1.3,13.8,1.8,20.8c0.7,9.9,0.1,19.8-2,29.6
		c-1.1,5.3-1.8,10.6-1.7,15.9c0.1,5.5,0.2,11,0.4,16.5c0.1,2.8,0.7,5.6,1.4,8.2c3.2,11.2,1.2,21.5-5,31.2c-2,3.1-4.2,6-6.6,8.8
		c-3.5,4.2-6.4,8.8-9.7,13.1c-1.8,2.3-2.5,5.2-2.6,8.1c-0.2,4-0.1,8,0.6,11.9c0.3,1.5,0.4,3,0.3,4.5c-0.1,1.9,0.4,3.6,1.3,5.3
		c1.9,3.7,3.9,7.3,6.3,10.7c1.7,2.4,3.1,5,4.5,7.6c1.5,2.9,2.4,5.9,2.7,9.1c0.2,2.5,0.8,4.9,2,7.1c3.4,6.6,5,13.8,6.2,21.1
		c0.9,5.3,1.6,10.6,2.4,15.9c0.4,2.9,1.3,5.6,3.1,8c2.4,3.2,3.2,6.8,2.9,10.6c-0.8,9.3-2.1,18.6-4.6,27.6c-1.3,4.7-1.4,9.6-1.8,14.5
		c-0.7,8.8-1.3,17.7-1.9,26.6c-0.6,9.7,0.2,19.3,2,28.9c2.1,11.1,2.7,22.2,1.9,33.4c-0.3,4.1-0.7,8.1-1.3,12.2
		c0,0.3-0.2,0.7-0.1,0.9c0.7,2.9-0.3,5.5-1,8.2c-2.1,8.7-1.7,17.5,0.6,26.1c3,11.6,7.6,22.5,13,33.2c4.7,9.3,9.8,18.3,13.5,28.1
		c3.1,8.2,6.3,16.4,9.4,24.6c0.6,1.7,1.5,2.3,3.2,2.7c11.6,2.3,22.5,6.5,32.6,12.8c5.3,3.3,10.5,6.8,15.5,10.4c0.7,0.5,1.4,1,2,1.7
		c5.6,7,10.8,14.3,15,22.2c0.8,1.5,1.4,3,2.2,4.6c2.1,4.3,2.4,8.9,1.7,13.6c-1.2,8-3.5,15.7-6.4,23.3c-1,2.6-2.7,4.9-4.3,7.2
		c-3.2,4.3-6.7,8.4-11.5,11c-1.9,1-3.4,2.4-4.4,4.3c-2.7,4.7-6.4,8.6-10,12.5c-3.5,3.7-7.9,5.9-12.8,7.1c-2.1,0.5-3.4-0.2-4.8-1.9
		c-2.7-3.3-4.1-7.1-4.6-11.3c-0.9-0.2-1.3,0.4-1.7,0.8c-1.4,1.3-2.8,2.7-4.1,4c-1.2,1.1-2.4,2.1-3.7,3c-3.4,2.1-6.7,1.3-8.7-2.2
		c-1.7-3-2.5-6.2-2.7-9.6c-0.1-1.2-0.1-2.4,0-3.6c0.1-1.2-0.4-2.1-1.4-2.9c-1.4-1-3-1.9-4.6-2.6c-3.7-1.5-6.1-4.2-7.3-8.1
		c-0.1-0.4-0.2-0.8-0.4-1.1c-0.2-0.5-0.6-0.6-1.2-0.4c-0.7,0.3-1.2,0.8-1.7,1.4c-1.6,1.7-2.3,3.8-3,5.9c-1.7,5.1-4.5,9.5-8.8,12.8
		c-3.6,2.7-7.6,2-10.1-1.7c-1.5-2.2-2.3-4.5-2.7-7.1c-0.1-0.4-0.1-0.8-0.1-1.2c0-2.9-1.7-4.5-4.1-5.9c-5.3-3.2-9.9-7.3-13.1-12.7
		c-0.4-0.7-0.9-1-1.7-1c-0.6,0-1.1,0-1.7,0c-137.2,0-274.3,0-411.5,0c-0.6,0-1.3,0-1.9,0c-0.7,0-1.1,0.3-1.5,1
		c-3.1,5.2-7.6,9-12.5,12.4c-0.6,0.4-1.2,0.7-1.9,1.1c-1.7,0.9-2.6,2.2-2.7,4.2c-0.3,3.1-1.1,6.1-2.8,8.8c-0.7,1.1-1.5,2.1-2.6,2.8
		c-2.4,1.4-4.8,1.6-7.2-0.2c-4.6-3.4-7.7-7.9-9.4-13.3c-0.7-2.1-1.4-4.1-2.9-5.7c-0.4-0.4-0.7-0.8-1.2-1.2c-1.1-0.9-1.5-0.7-2.1,0.6
		c-0.1,0.4-0.2,0.8-0.4,1.1c-1.2,3.2-3.2,5.7-6.4,7.1c-1.5,0.7-3,1.5-4.5,2.3c-1.7,1-2.4,2.3-2.2,4.4c0.4,3.6-0.4,7.2-1.8,10.5
		c-0.4,1.1-1,2.2-1.8,3.1c-2.1,2.3-4.7,2.7-7.3,1.1c-2-1.2-3.7-2.8-5.4-4.4C209.8,736,208.5,734.7,207.1,733.4z"/>
</g>
<g>
	<path class="st0" d="M547.5,573.2c-0.3-5.3-0.6-10.5-2.1-15.7c-1.1-3.8-2-7.6-3-11.4c-2.6-10-4-20.1-2.8-30.4
		c0.6-5.5,0.8-11,1-16.5c0.1-2.6-0.5-3.3-2.8-4.4c-1.3-0.6-2.8-0.2-3.9-1c-1.2-0.9-2.6-0.8-3.9-0.8c-7.7-0.2-15.4,0.4-23-0.5
		c-1.3-0.1-1.4,0.7-1.7,1.5c-2.4,9.1-4,18.4-4.9,27.8c-0.7,6.6-1,13.2-1.5,19.9c-0.5,6.4-0.8,12.8-0.4,19.2c0.5,7.5,1.5,15,3.6,22.2
		c1.1,3.8,1,7.7,0.2,11.6c-0.7,3.2-2.7,5.2-5.3,5.4c-2.6,0.1-4.6-1.4-5.5-4.7c-1-3.9-1.9-7.8-1.8-11.8c0.1-4.4,0.3-8.8,1-13.2
		c0.5-3.6,1.1-7.1,0.9-10.7c-0.4-6.8-0.9-13.6-1.1-20.4c0-1.8,0-3.7,0-5.5c0.2-10-0.4-20-2.5-29.8c-0.8-3.8-2.1-7.4-4-10.7
		c-0.6-1.1-1.3-1.5-2.7-1.1c-4.7,1.5-9.5,2.1-14.4,2.7c-5.9,0.7-11.8,0.6-17.7,0.1c-1.7-0.1-1.8,0-1.6,1.4c1,5.4,1,10.8,1.5,16.2
		c1.2,12.6,1,25.1-1.1,37.5c-1.2,7.1-2,14.3-4.5,21.1c-0.3,0.7-0.3,1.6-0.4,2.4c-0.7,9.1-0.5,18.2,1.1,27.2
		c1.5,8.7,4.5,16.6,9.6,23.8c0.3,0.5,0.6,0.9,0.9,1.4c3.5,5.8,8.5,10.2,14.3,13.6c10.6,6.3,22.2,8.4,34.4,7c9.6-1.1,18-4.7,25.4-11
		c3.7-3.2,6.2-7.3,8.9-11.2c2.6-4,4.4-8.3,5.5-13c1.8-7.6,2.8-15.4,3.7-23.2C547.2,583.5,547.8,578.3,547.5,573.2z"/>
</g>
<g>
	<path class="st1" d="M497.4,440.2c-1.2-1-2.6-0.6-3,0.9c-0.2,0.7-0.3,1.4-0.3,2.1c0,4.1-0.1,8.3,0,12.4c0,3.1,0.3,6.2,0.4,9.3
		c1.1-0.1,2.1-0.1,3-0.2c2.4-0.1,2.8-0.4,2.7-2.8c-0.1-2.8,0.1-5.6,0.4-8.4c0.4-3.8-0.3-7.5-1.7-11
		C498.6,441.7,498.1,440.9,497.4,440.2z"/>
	<path class="st1" d="M539.6,433.2c-0.9-0.3-1.8-0.8-2.7-0.7c-3.3,0.5-6.7,0.1-10,0.9c-0.8,0.2-1.7,0.2-2.3,0.2c-0.9,0-1.4,0-2,0
		c-5.2-0.5-7.4-2.6-7.9-8.1c-0.3-2.9,1.4-4.6,4.3-4.7c2.6-0.1,4.9,0.4,6.9,2.2c0.5,0.5,1,1.2,1.8,0.7c0.9-0.5,0.4-1.4,0.4-2.2
		c0-0.6-0.5-1-0.8-1.4c-1-1.5-2.6-2.1-4.2-2.7c-3.9-1.4-7.6-1.4-11.1,1.3c-3.1,2.3-5.1,5.3-6.4,8.7c-1.3,3.4-0.3,6.6,2,9.3
		c0.8,1,2.1,1.5,3.1,2.2c4.5,3,9.4,3.3,14.4,1.5c0.7-0.3,1.5-0.6,2.3-0.6c3.7-0.2,7.2-1.5,10.6-2.8c0.8-0.3,1.5-0.7,2-1.3
		C540.7,434.7,540.6,433.6,539.6,433.2z"/>
	<path class="st1" d="M512.2,406.2c2.8-1.3,4-3.6,3.4-6.6c-0.4-2.1-1.5-3.8-3.2-5.2c-2.1-1.8-4.6-2.8-7.3-3.4
		c-8-1.9-15.7-0.4-23.2,2.6c-2.2,0.9-4.1,2.1-5.7,3.9c-3.4,4-1.8,9.1,3.3,10.4c2.3,0.6,4.6,0.4,6.9,0.2c5.9-0.6,11.8,0,17.7-1
		c0.5-0.1,1,0,1.4,0.1C508.1,407.2,510.6,406.9,512.2,406.2z"/>
	<path class="st1" d="M479.5,416c-1.2-0.6-2.4-0.8-3.7-0.6c-1.7,0.3-3.5,0.5-5.2,1c-2.7,0.8-4.7,2.6-5.5,5.4
		c-0.4,1.5,0.2,3.4,1.4,4.3c0.7,0.5,1.4,0.4,2-0.2c0.3-0.3,0.6-0.8,0.8-1.2c1.2-2.4,3.3-3.6,5.8-4.2c3.8-0.9,6.7,1.8,5.9,5.6
		c-0.1,0.6-0.3,1.2-0.5,1.9c-0.7,2.5-2.6,4-5.1,4.1c-3.4,0.1-6.7,0.6-10,1.2c-1.4,0.2-2.9,0-4.3-0.2c-0.7-0.1-1.4-0.5-2.3-0.2
		c0.3,1.8,1.3,3.2,1.9,4.8c0.8,2.2,2.4,2.9,4.4,2.9c0.6,0,1.3,0.1,1.9-0.2c3.7-1.5,7.6-1.7,11.5-1.4c0.4,0,0.8,0,1.2-0.1
		c2.1-0.7,4.2-1.3,5.8-3.1c3.8-3.9,2-11.7-0.2-15.1C484.1,418.6,481.8,417.2,479.5,416z"/>
	<path class="st1" d="M609.6,441.9c-3.5,5.8-7.7,10.3-12,14.7c-3.7,3.7-6.3,8-8.2,12.8c-0.8,2-1.8,3.9-3.3,5.5
		c-1.2,1.4-2.3,2.9-3.3,4.4c-0.7,1.1-1.5,2.3-2.5,3.2c-2.1,2-3.4,4.4-4.9,6.8c-1.3,2.2-2.2,4.6-3.2,7c-2.8,6.6-6.5,12.4-12.2,17
		c-2.6,2.1-5,4.4-7.9,6.3c-1.8,1.2-2.8,3-2.4,5.3c0.4,2.7,0.8,5.4,1.2,8.1c0.1,0.5,0,1.1,0.6,1.4c5.8-2.9,10.7-6.9,15.7-11
		c4.9-4,9.1-8.8,13.4-13.4c0.7-0.8,1.4-1.6,1.7-2.6c0.9-2.9,2.4-5.6,3.3-8.5c0.7-2.3,1.6-4.3,3.4-5.9c0.7-0.6,1-1.4,1.4-2.2
		c2.9-5.4,6.2-10.6,9.6-15.8c4.1-6.3,7.7-12.9,10.5-19.9C612.4,450.5,610.7,446.6,609.6,441.9z"/>
	<path class="st1" d="M437.3,524.9c-1-0.5-1.8-1.4-2.4-2.3c-0.5-0.8-1-1.6-1.7-2.3c-2.7-2.4-4.9-5.3-7.1-8.1
		c-2.6-3.3-5-6.8-6.6-10.8c-1.1-2.7-2.3-5.4-3.8-8c-1.4-2.5-3.2-4.5-5.7-6c-1.7-0.9-2.9-2.3-3.3-4.2c-0.2-0.8-0.6-1.2-1.3-1.5
		c-2.8-1.4-3.9-3.8-3.6-6.7c0.2-1.9-0.5-3-1.8-4c-7.4-5.9-12.3-13.6-15.5-22.4c-2.3-6.1-4.4-12.3-7.1-18.3c-1.3-2.8-3.3-4.2-5.8-6.1
		l0,0c0.4,3.3,0.9,6.1,1.9,8.8c1.1,3.2,2,6.4,2.7,9.7c1.3,6.8,3.2,13.5,5.7,20c1.3,3.4,2.5,6.8,5.1,9.5c3.6,3.9,6.8,8.1,9.7,12.5
		c2,3,4.2,5.8,6.7,8.5c5.5,6,10.4,12.3,14.6,19.3c0.6,1,1.2,1.9,2,2.7c4.5,5.2,8.9,10.5,13.4,15.6c2.3,2.6,4.8,5.1,7.4,7.9
		c1.2-4,1.4-7.5-0.8-10.9C439.2,526.6,438.6,525.5,437.3,524.9z"/>
</g>
<g>
	<path class="st2" d="M391.3,538.5c-0.2,4.3,0.1,8.6,0.9,12.9c1,5.3,3.2,9.9,6.3,13.8c4.2,2.6,8.7,4.5,13.1,6.8
		c5.1,2.8,10.4,5.4,15.3,8.5c0.7,0.5,1.5,0.8,2.3,1c1.3,0,2.7-0.5,3.9-1.2c-2.4-2.9-2.8-6.8-4.8-9.8c-2.4-3.5-3.3-7.6-4.3-11.6
		c-0.8-3.6-2.4-6.8-5.2-9.2c-1-0.9-1.5-2.1-2.3-3.1c-0.5-0.6-0.7-1.3-0.2-2c0.6-0.8,1.4-0.5,2.2-0.1c1.9,1,3.7,2.2,5.3,3.7
		c1.5,1.5,3.5,2.1,5.8,3c-1.4-3.8-2.5-7.3-5.8-9.5c-0.7-0.4-1.3-0.9-2-1.3c-5.4-3.2-8.9-8-10.9-13.8c-1-2.8-1.9-5.6-2.8-8.4
		c-2-6.1-5-11.6-8.9-16.7c-1.9-2.6-3.9-5.1-5.8-7.7c-4.2-4.9-8.3-9.9-12.3-15c-1.8-1.9-3.6-3.9-5.2-5.9c-2.6-3.2-4.6-6.7-5.9-10.7
		c-2-6.4-4.5-12.7-5.9-19.3c-1-5.1-1.9-10.2-1.6-15.5c0-0.2-0.1-0.4-0.2-0.9c-1,1.1-1.1,2.4-2,3.7c-0.9-2.3-1.3-4.5-1.7-6.6
		c-0.5-2.7-0.8-5.4-1-8.1c-0.4-4.4,0-5.7,2.2-9.5c-1.1-0.4-1.5-1.3-1.8-2.5c-1.5-7.7-9.3-12.6-16.9-10.7c-2.3,0.6-4.2,1.8-5.8,3.7
		c-0.4,0.5-0.9,1.1-1.3,1.7c-0.8-0.3-0.9-1-1.1-1.6c-2.1-5.1-0.4-11.5,3.8-15c0.9-0.7,1.7-1.4,2.6-2.1c2.4-1.9,5.1-2.5,8.1-2.2
		c1.7,0.1,3,1,4.1,2.3c1.5,1.8,3.3,3.3,4.5,5.3c0.5,0.8,1.1,1,2,0.8c3.2-0.7,6.5-0.7,9.8-0.6c1.1,0,2.1,0.2,3.1,0.5
		c0.6-1.5,0.7-3.1,0.4-4.8c-1.6-7.1-7.7-13.8-16.1-13.5c-2.7,0.1-5.5,0.2-7.7-1.7c-0.2-0.1-0.5-0.1-0.7-0.2
		c-3.2-1.3-6.5-1.2-9.6-0.3c-6.8,2-12.3,5.7-14.3,13.1c-0.2,0.7-0.5,1.4-1,1.9c-3.1,3.2-4.1,7.1-3.9,11.4c0.3,6.4,3.3,11,8.8,14.1
		c2.8,1.6,5.5,1.3,8.1-0.6c1-0.7,1.9-1.5,2.8-2.3c1.4-1.1,1.8-1.1,2.7,0.6c0.2,0.4,0.4,0.7,0.5,1.1c3.9,7.6,6.9,15.6,10.2,23.5
		c0.3,0.8,0.7,1.6,1.2,2.3c1.1,1.5,1.8,3.1,1.9,5.1c0.1,1.2,0.3,2.5,0.5,3.8c1.4,6.7,2.6,13.5,4.6,20c1.8,5.7,3.6,11.4,6.8,16.6
		c7,11.2,13.7,22.5,21,33.5c0.3,0.5,0.7,0.9,0.7,1.5c-0.3,0.2-0.6,0.1-0.9,0.1c-2.3-0.4-4.7-1-7.1-1.3c-3.4-0.4-6.6-1.1-9.6-2.7
		c-1.1-0.6-2.2-1.3-3.3-1.9c-1.1-0.6-2.4-0.4-3.1,0.4c-0.8,0.8-0.8,1.8,0,3.1c0.8,1.3,1.6,2.6,2.3,3.9c3.2,6.6,8.2,11.3,15.1,14
		c1.6,0.6,3.1,1.3,4.5,2.3C389.2,531,391.5,534,391.3,538.5z"/>
	<path class="st2" d="M652.6,399c1.4-1.7,2.7-3.6,3.6-5.7c0.4-0.9,0.8-1.7,1.1-2.7c0.3-0.9,0.5-1.8,0.7-2.7c0.1-0.9,0.2-1.8,0.1-2.8
		c-0.1-2.6-0.7-5.1-1.4-7.6c-0.3-1-0.6-2-0.9-3c-0.2-0.5-0.3-1-0.5-1.5s-0.3-1-0.5-1.5c-0.4-1-0.9-1.9-1.4-2.7
		c-1.4-2.1-3.2-3.9-5.3-5.4c-1.2-0.9-2.4-1.6-3.7-2.1c-2.2-1-4.5-1.4-6.9-1.4c-0.3,0-0.7,0-1,0.1c-0.7,0.1-1.4,0.2-2.1,0.3
		c-0.7,0.1-1.4,0.3-2.1,0.6c-1.7,0.6-3.3,1.2-4.8,2c-4.5,2.4-8,6-10.4,10.9c-0.5,1.1-0.9,2.2-1.3,3.3c-0.2,0.6-0.4,1.2-0.5,1.8
		c1.1-0.6,2.3-1.1,3.5-1.6c0.8-0.3,1.4-0.7,1.9-1.4c3.1-4.8,7.9-6.3,13.2-6.3c7.3,0,13.8,5.2,15.7,12.2c0.9,3.4,1.4,6.7-0.1,10.1
		c-0.4,1-0.9,1.9-1.8,2.4c-1,0.6-1.8,0.1-1.7-1c0.1-1.2,0.2-2.4-0.1-3.6c-0.5-2-1.8-3.1-3.9-3.3c-1.4-0.1-2.9,0-4.3,0.4
		c-1.9,0.6-3.4,1.7-4.1,3.7c-1.8,4.8-3.1,9.7-3,15c0.1,5.8,0.5,11.5,0.1,17.3c-0.4,6.3-1.7,12.3-4.7,18c-0.5,0.9-0.9,1.9-1.4,2.8
		c-1.2,2.3-1.9,4.7-1.7,7.4c0.2,3.1-0.7,5.9-2.1,8.5c-0.6,1.1-1.1,2.3-1.4,3.5c-2,6.7-5.1,12.8-9.7,18.1c-3.1,3.5-6.1,7-9.1,10.5
		c-1.2,1.4-2.2,2.9-3.1,4.6c-2.1,4.2-3.8,8.5-5.3,12.8c-2.8,8.2-7.6,14.8-14.6,20c-5.4,4-9.6,9.2-13.9,14.2c-0.8,2.6-2.6,5-2,7.9
		c0.3,1.2,0.5,1.4,1.6,0.8c1.9-1.2,4-2,6.1-2.7c1.1-0.4,2-1.2,3.1-1.9c0.6-0.4,1.3-0.7,2,0c0.5,0.5,0.4,1.2,0.1,1.8
		c-0.8,1.8-1.8,3.6-2.9,5.3c-1.5,2.3-3.1,4.5-4.7,6.7c-0.6,0.8-0.9,1.6-0.9,2.6c0,4.6-0.7,9.1-1.5,13.6c-0.2,1.3-0.4,2.5-0.6,3.8
		c-0.2,1,0,1.9,0.5,2.8c0.7,1.4,0.9,1.4,2.4,0.7c1.4-0.8,2.9-1.2,4.5-1.7c2.5-0.8,4.6-2.1,6.4-4.1c3.4-3.6,6.9-7.1,11.6-9.2
		c2.2-1,4-2.7,5.8-4.3c1.5-1.3,2.9-2.6,4.4-3.9c0.5-1.6,0.9-3.3,0.9-4.2c0-1.4-0.2-2.7-0.4-3.9c-0.1-0.6-0.3-1.3-0.5-1.9
		c-0.2-0.6-0.4-1.2-0.7-1.9c-0.2-0.5-0.4-1-0.6-1.5c-0.2-0.5-0.3-1-0.4-1.5c-0.1-0.5-0.2-1-0.2-1.6s0-1.1,0-1.6
		c0.4-3.1,1.1-6.2,1.9-9.2c0.5-1.8,1.1-3.6,1.7-5.4c0.2-0.5,0.4-1.1,0.5-1.6c0.2-0.5,0.3-1.1,0.5-1.6c0.3-1.1,0.5-2.2,0.7-3.3
		c0.2-1.8,0.7-3.6,1.3-5.3c0.2-0.6,0.5-1.1,0.7-1.7c0.3-0.7,0.7-1.5,1.1-2.2c1.9-3.2,3.8-6.5,5.6-9.8c1.5-2.6,2.9-5.3,4.4-7.9
		c0.7-1.3,1.4-2.7,2.1-4c1.4-2.7,2.7-5.4,3.9-8.1c0.6-1.4,1.2-2.8,1.8-4.1c1.1-2.8,2.2-5.6,3.1-8.5c0.9-3,1.8-5.9,2.6-8.9
		c1.6-6,2.8-12,3.9-18.1c0.5-3,1-6.1,1.4-9.1c0.9-6.6,2.1-13.1,3.1-19.6c0.2-1.3,0.5-2.6,1-3.8c0.4-1.2,1-2.4,1.7-3.6
		c0.5-0.9,1.1-1.4,2.1-1.7c0.9-0.3,1.8-0.7,2.7-1.1c0.4-0.2,0.8-0.4,1.2-0.6c0.8-0.4,1.6-0.9,2.3-1.4
		C650.2,401.5,651.5,400.3,652.6,399z"/>
	<path class="st2" d="M517.2,467.5c0.2,2.3,1.9,3.4,4,3.9c2.8,0.7,5.6,1.4,8.5,1.4c0.8,0,1.6-0.1,2.6,0.5c-1.4,0.9-2.6,2-4,2.7
		c1.9-0.1,3.7-0.3,5.5-0.7c6.6-1.3,12.8-3.8,18.5-7.5c7.3-4.7,13.4-10.8,19.6-16.8c0.3-0.3,0.6-0.7,0.9-1.1c2.2-2.8,4.1-5.8,6-8.7
		c0.6-1,1.3-2,1.9-3c0.2-0.3,0.4-0.7,0.6-1s0.3-0.7,0.4-1.1c0.1-0.2,0.1-0.4,0.1-0.6s-0.1-0.4-0.3-0.5c-0.1-0.1-0.2-0.2-0.3-0.2
		s-0.1,0-0.2,0c-0.1,0-0.2,0-0.3,0.1c-0.1,0-0.2,0.1-0.3,0.2l-0.1,0.1c-1.8,2.1-4,3.5-6.3,4.8c-1.4,0.8-2.8,1.5-4.1,2.3
		c-6.8,4-13.9,7.5-21.9,8.7c-2,0.3-3.9,0.3-5.8-0.7c-1.2-0.7-2.5-1.2-3.7-1.6c-0.6-0.2-1.1-0.3-1.7-0.4c-0.5,0.7-0.9,1.4-1.3,2.2
		c-0.6,1.2-1.3,2.2-2.8,2.2c-0.2,0-0.5,0.1-0.6,0.3c-5.7,4-11.4,7.9-16.4,12.9c0,0,0,0.1-0.1,0.4
		C516.1,466.3,517.1,466.3,517.2,467.5z"/>
	<path class="st2" d="M404.6,436.3c0.9,3.9,3.3,7.1,5.3,10.4c1.7,2.7,3.3,5.5,5.7,7.6c5,4.4,10.6,7.9,17.1,9.7
		c1.1,0.3,2.2,0.7,3.2,1.6c2.6,2.3,5.5,4.1,8.5,5.8c2,1.2,4.3,2.1,6.7,2.5c1.8,0.3,3.6,0.7,5.3,1.2c1.6,0.5,3.3,1,4.9,0.7
		c0.4-0.1,0.7-0.1,1.1-0.2c-1.6-0.4-3.1-1.1-4.6-2.4c2.3-1.1,4.6-1.8,6.1-3.6c0.4-0.4,1-0.4,1.6-0.4c3.3-0.1,6.3-1.7,9.4-2.5
		c0.2-0.1,0.5-0.1,0.6-0.3c1.2-2.1,3.5-2.2,5.5-2.8c-0.1-0.8-0.8-0.8-1.3-1c-1.5-0.7-3-1.5-4.5-2.3c0,0-1.7-0.8-1.8-1
		c-2.4-1.3-4.7-2.7-7.2-4c-1.4-0.7-2.5-1.8-3.6-2.8c-0.5-0.4-0.9-0.9-1.4-1.3c-1.7-0.2-3.4,0.1-5.2,0.8c-0.4,0.2-0.9,0.4-1.4,0.4
		c-2.9-0.1-5.8,0.3-8.6-0.5c-2.2-0.7-4.4-0.6-6.6,0.3c-2.6,1.1-5.1,1.2-7.9,0.9c-8.8-1-15.8-5.1-21.3-12c-1.9-2.4-4-4.7-6.4-7.5
		c0,0.8-0.1,1.2-0.1,1.5C404.4,435.3,404.5,435.8,404.6,436.3z"/>
	<path class="st2" d="M696.7,398.7c-0.1-1-0.1-1.9-0.1-2.9c0-0.6-0.2-1.2-0.5-1.7c-0.5,2.6-1.4,5.1-2.7,7.4c-0.9,1.6-1.3,3.2-1,5.1
		c0.6,3.8,0,7.3-2,10.6c-0.5,0.8-0.7,1.8-1,2.7c-1.1,3.2-3,5.8-5.7,7.8c-5.5,4.3-11.7,6-18.6,5.6c-2.9-0.2-5.7,0.3-8.6,0.5
		c-2.3,0.2-4.4,1.7-6.6,2.8c-0.3,0.1-0.6,0.3-1,0.5c-0.2,0.2-0.3,0.4-0.5,0.6c-0.9,1.2-1.4,2.5-1.7,3.9c-0.1,0.5-0.1,1-0.1,1.5
		c0,0.6,0,1.1,0,1.7s0,1.1,0,1.7c0,0.9,0,1.9,0.1,2.8c0.1,2.8,0.5,5.6,1.3,8.3c0.3,1,0.8,1.8,1.7,2.2c0.1,0.1,0.3,0.1,0.4,0.1
		c0.1,0,0.3,0.1,0.4,0.1c0.4,0,0.8-0.1,1.1-0.3c0.2-0.1,0.4-0.3,0.6-0.5c0.2-0.2,0.3-0.4,0.5-0.6c0.9-1.3,2-2.3,3.2-3.2
		c0.4-0.3,0.7-0.6,1.1-0.9c0.3-0.4,0.6-0.7,0.9-1.1c0.7-0.9,1.3-1.7,2.1-2.4c2.2-2.3,4.6-4.2,7.6-5.6c1.1-0.5,2.1-1.2,3.1-1.7
		c0.5-0.3,1-0.6,1.5-0.9c1-0.6,2-1.2,3-1.9c0.5-0.3,1-0.6,1.5-1c1.5-1,2.9-2,4.4-2.9c0.5-0.3,1-0.6,1.5-0.9s1-0.6,1.4-0.9
		c0.9-0.6,1.8-1.3,2.6-2c2-1.8,3.7-4,5.2-6.4c0.9-1.5,1.6-3,2.3-4.5c1.9-4.6,2.8-9.5,3-14.6c0-0.5,0-1,0-1.5
		C697.2,403.6,696.9,401.2,696.7,398.7z"/>
	<path class="st2" d="M577,680.3c-0.9-0.2-1.8-0.5-2.7-0.8s-1.8-0.5-2.7-0.8s-1.8-0.6-2.7-0.8c-2.8-0.8-5.2-2.2-7.2-4
		c-1.2-1.1-2.2-2.5-3.1-4c-0.6-1-0.9-2-0.6-3.2c0.5-1.9,0.9-3.9,1.4-5.8c0.3-1.3,0.7-2.6,1.1-3.9c0.2-0.6,0.4-1.3,0.6-1.9
		c0.4-1.3,0.9-2.5,1.4-3.8c0.3-0.8,0.6-1.6,0.9-2.5c0.3-0.8,0.5-1.7,0.7-2.5c0.1-0.5,0.2-0.9,0.4-1.4s0.4-0.8,0.7-1.2
		c0.2-0.3,0.4-0.5,0.6-0.8c0.7-0.9,1.5-1.7,2.3-2.6c1.5-1.7,3.1-3.3,4.7-4.9c0.8-0.8,1.5-1.7,2.3-2.5c0.7-0.8,1.3-1.6,1.9-2.4
		c0.4-0.5,0.7-1,1.1-1.5c1-1.5,2-3,2.8-4.6c-0.4-0.4-0.6-1-0.7-1.6c-0.1-0.7-0.1-1.4-0.1-2.2c0-1,0-2.1-0.5-3
		c-0.3-0.6-0.4-1.2-0.4-1.9c0-3.2-0.6-6.4-0.9-9.6c0-0.5-0.1-1-0.3-1.4c-0.6-1.3-1.5-1.5-2.5-0.4c-5.1,5.6-10.5,11-14.9,17.3
		c-5,7.1-11.5,12.3-19.4,16c-0.7,0.3-1.2,0.8-1.6,1.4c-8.6,12.2-21,17.4-35.3,18.4c-13.8,1-26.9-2.1-38.7-9.5
		c-6.6-4.1-12.4-9-16.7-15.6c-1.2-1.9-3.1-3-4.9-4.2c-2.5-1.8-4.5-4-6.8-6c-3.5-3-7.3-5.4-11.5-7.3c-3.5-1.6-6.8-3.4-9.9-5.8
		c-1.5-1.2-2.9-2.5-4.1-3.9c-0.1,1.2,0,2.4,0.4,3.6c0.5,1.2,1.2,2.2,2,3.2c0.9,1.2,1.8,2.5,2.4,3.9c0.6,1.3,0.7,2.5,0.5,3.9
		c-0.6,3.3-1.3,6.6-1.2,10c0.1,2.1-0.2,4.2-0.6,6.2c-1.1,6.5-0.2,12.5,2.7,18.4c1.6,3.2,3.3,6.4,5.1,9.5c0.7,1.2,0.5,1.8-0.8,2
		c-4,0.8-8,1-11.9,0.3c-5.2-0.9-9.8-3.2-13.8-6.8c-1.2-1.1-2.4-2.1-3.6-3.2c-1.3-1.1-2.6-2.1-4.3-2.5c-0.8-0.2-1.4-0.1-2.1,0.3
		c-0.6,0.3-1,0.7-1.3,1.1c2,2.8,3.9,5.6,5.7,8.5c2.6,4.2,5.3,8.2,8.3,12.1c0.9,1.2,2,2.3,3.2,3.2c1.1,0.8,2.1,1.5,3.1,2.3h175.4
		c-0.3-0.1-0.7-0.2-1-0.2C578.8,680.7,577.9,680.5,577,680.3z"/>
</g>
<g>
	<path class="st3" d="M641.1,330.1c2-2.1,3.6-4.4,5-7c-0.4-0.4-0.6-0.9-0.7-1.5c-0.1-0.5-0.1-1,0-1.4c0.8-4.4,2.3-8.5,5.7-11.7
		c6.8-6.4,14.8-10.1,24.2-10.2c3.2,0,6.2-0.5,9.1-1.7c3.2-1.3,6.5-1.8,9.9-1.4c4.4,0.5,8.6,1.7,12.6,3.6s6.8,5,8.2,9.3
		c0.3,0.9,0.4,1.9,1.3,2.9c0-3.6,0.1-6.8-0.9-9.9c-1.2-3.8-2.5-7.6-3.9-11.3c-0.3-0.8-0.8-1.6-1.3-2.3c-3.3-4.3-5.6-9.1-8.4-13.7
		c-1-1.6-1.5-3.3-2.2-5c-3.8-9.4-4.6-19.4-5.6-29.3c-0.2-1.8-0.1-3.9,1-5.3c1.8-2.3,2.5-4.8,3-7.6c0.4-2.3,2.1-4.1,3.6-5.9
		c1.7-1.8,3.2-3.8,4.5-5.9c1.2-1.8,2.5-3.6,3.8-5.2c2.1-2.6,4-5.4,5.8-8.2c1.7-2.7,2.7-5.6,3.2-8.7c0.7-4.8,0.3-9.4-1.1-14
		c-1.5-4.8-2-9.7-1.7-14.7c0.2-2.5,0.1-5,0-7.4c-0.5-6.9-0.3-13.7,1.7-20.5c0.9-3.1,1.9-6.3,2.2-9.6c0.9-7.7,2-15.4,1.7-23.2
		c-0.2-5.4-0.4-10.9-0.7-16.3c-0.4-6.8-1.2-13.5-2.7-20.2c-1.2-5.4-3.1-10.6-5.9-15.4c-2.2-3.9-5.5-6.9-9.4-8.7
		c-5-2.3-10.3-2-15.3,0.5c-4.6,2.4-9,5.3-12.8,8.8c-10.2,9.3-20.3,18.6-31.4,26.7c-0.4,0.3-0.7,0.6-1.1,0.9c-3.2,2.9-6.6,5.5-10.2,8
		c-3.2,2.2-6,4.8-8.5,7.7c-3.8,4.4-7.9,8.6-12,12.7c-2.2,2.1-4.3,4.3-6.2,6.7c-4.4,5.3-9.5,10-14.3,14.8c-2.5,2.5-5.3,4.4-8.6,5.6
		c-1.9,0.7-3.7,1.5-5.6,2.1c-5,1.8-10.2,2-15.4,1.3c-3.1-0.4-6.1-1.2-9.2-1.7c-0.8-0.1-1.7-0.3-2.2-0.9c-1.4-1.6-3.3-2-5.1-2.4
		c-7.1-1.8-14.2-3-21.5-3.6c-13-1.1-26-2.1-39-1.2c-6.9,0.5-13.9,0.8-20.7,2.4c-7.3,1.7-14.8,2.8-22,4.7c-5.5,1.5-11.1,3.2-16.9,3.6
		c-0.4,0-0.8,0.1-1.1,0.3c-2,1.1-3.7,0.4-5.3-1c-0.9-0.8-1.8-1.8-2.6-2.8c-1.4-1.6-2.8-3.2-4.6-4.2c-6.1-3.6-11.9-7.8-18.2-11.2
		c-3.3-1.8-6.6-3.7-9.4-6.3c-3.5-3.1-7.4-5.6-11.4-8c-6.9-4.2-13.9-7.9-21.8-9.6c-0.9-0.2-1.9-0.5-2.8-0.8
		c-7.5-2.1-13.7-6-18.5-12.3c-0.8-1-1.6-2-2.4-3c-3.7-4.5-7.3-9.2-11.5-13.2c-6.7-6.5-13.2-13.3-20.2-19.4c-2.5-2.2-5.3-3.5-8.4-4.4
		c-0.7-0.2-1.4-0.3-2.1,0c-2.5,1-4.9,2-6.9,3.8c-4,3.7-7,8.1-9,13.2c-1.3,3.4-2.4,6.8-3.4,10.2c-3.3,11.1-5.8,22.3-5.2,34
		c0.2,3.8-0.1,7.7-0.5,11.5c-0.8,8.3-0.3,16.4,1.3,24.6c1.4,7.1,2.9,14.3,2.7,21.6c-0.2,8,1.1,15.8,3.5,23.4c1,3.2,1.6,6.5,1.8,9.9
		c0.1,2.4,0.3,4.8,1,7.1c0.8,2.7,1.3,5.4,1.9,8.2c0.8,3.8,1.8,7.5,3.4,11c4,8.3,9.6,15.5,16.4,21.6c0.9,0.8,1.8,1.5,2.8,2.3
		c0.4,0.3,0.8,0.7,1.3,0.5c2.4-0.9,5-1.1,6.2-4.2c0.9-2.4,2.8-3.9,5.1-4.3c-0.9-0.6-1.8-1.3-2.7-2c-2.3-1.8-4.2-3.9-5.6-6.5
		c-1.7-2.9-3.3-5.8-5-8.7c-4.3-7.5-6.4-15.6-7.3-24c-1.2-1.7-2.6-3.3-4.4-4.7c-0.3-0.2-0.6-0.5-0.9-0.8c-0.9-1.1-1.4-2.3-0.9-3.8
		c0.6-1.5,1.8-2.3,3.3-2.3c0.7,0,1.4,0,2.2,0c0-5.5,0.5-11,1.3-16.5c0.5-3.2,1.5-6.4,2-9.6c1.1-7.6,1.1-15-0.3-22.2
		c0-0.1-0.1-0.2-0.1-0.3c-2.5-5.2-5.8-9.7-11.1-12.5c-4-2.1-5-5.5-2.3-9.2c1.9-2.7,1.9-5.3,1.1-8.2c-0.7-2.4-1.7-4.7-2.7-6.9
		c-1.4-3.3-1.9-6.8-1.1-10.3c0.6-2.4,1.1-2.6,3.5-3.2c0.2-0.1,0.4-0.1,0.7-0.1c-0.1-1.1-0.1-2.3-0.1-3.5c0.1-3.8,0.5-7.5,1-11.2
		c0.2-1.2,0.5-2.3,1.1-3.4c2.4-4.6,7.9-5.5,11.8-2.1c4,3.3,7.7,7,11.8,10.2c5.1,4,10.3,7.9,16,11c5.9,3.2,10.8,7.5,14.7,12.9
		c5.1,7.1,11.5,12.6,19.2,16.7c2,1,3.9,2.1,5.9,3.1c0.1,0.1,0.1,0.1,0.2,0.1c0.2,0.1,0.3,0.2,0.6,0c0-0.1,0-0.2-0.1-0.3
		c-0.1-0.1-0.2-0.2-0.3-0.2l0,0l0,0c-0.4-0.9-0.9-1.9-1.3-2.8c-0.9-2.2-0.9-4.3,0.8-6c1.7-1.7,3.8-1.9,6-1c2.9,1.1,5.3,3,7.4,5.2
		c1.9,2,3.7,4.2,5.5,6.3c2.9,3.4,4.5,7.6,5.8,11.8c0.5,1.8,1.4,3.1,3,4.1c1.9,1.3,3.7,2.8,5.7,4c0.3,0,0.6,0,0.9,0.1
		c2.1,0.1,2.6-0.8,1.7-2.8c-0.5-1.1-1.2-2.1-1.7-3.2c-0.4-0.9-0.8-1.9,0-2.7c0.9-0.8,1.9-0.5,2.9-0.1c0.8,0.4,1.6,0.9,2,1.6
		c0.8,1.2,1.9,1.5,3.2,1.6c2.8,0.1,5.5,0.8,8,2.4c3.6,2.4,5.7,5.5,5,9.9c0.2,5.7-2.7,9.4-7,12.2c-2,1.3-4.2,2.4-6.5,3.1
		c-2.1,0.6-3.7,1.7-5.1,3.4c-0.8,1-1.6,2-2.5,3c1.4-0.8,2.8-1.5,4.2-2.3c6-3.2,12.4-4.7,19.1-5c1.5-0.1,3-0.5,4.5-0.2
		c1,0.2,2.1,0.3,2.4,1.6c0.2,1.2-0.6,1.9-1.5,2.4s-1.9,0.9-2.8,1.3c-4.5,1.8-9,3.7-13.5,5.5c-2.4,1-4.5,2.3-6.3,4.3
		c-1.8,2.1-3.9,4-5.9,6c-3.5,3.4-6.1,7.4-7.4,12.1c-1.2,4.4-4.1,7.7-7.6,10.5c-2.4,1.9-4.8,3.7-7,5.8c-3.2,3.1-5.5,6.6-7,10.8
		c-0.9,2.6-2,5.2-2.9,7.9c-0.4,1.2-1.2,1.8-2.3,2.2c-1.3,0.5-2.6,0.7-3.9,1c-5.4,1-8.6,4.2-14.1,3.9c-6-0.4-12,2.1-17.6,5.1
		c-1.1,1.1-2.3,2.3-3.4,3.4c-1.4,1.4-3.1,2.6-5.2,2.8c-1,0.1-1.5,0.7-1.7,1.7c-0.4,1.8-0.9,3.6-1.7,5.2c-1.4,2.8-3.6,4.9-6.7,5.8
		c-1.8,0.5-3.5,0.6-4.7-1.5c-1,1.1-1.4,2.2-1.7,3.2c-1,2.6-1.9,5.3-2.9,7.9c-1.1,2.8-2.3,5.7-4.3,8c-1.1,1.3-1.4,2.6-1.4,4.2
		c0.1,5-0.2,9.9-1,14.8c-0.8,5.3-1.5,10.6-3.4,15.7c-0.8,2.2-0.8,2.3,1.1,3.8c0.5,0.4,1.1,0.7,1.6,1c1.6,1,3.1,1.3,5,0.5
		c1.4-0.6,2.9-0.9,4.4-1.2c1.2-0.2,2.1-0.8,2.8-1.7c0.8-0.9,1.3-2,1.7-3.1c1.5-4.5,4.3-7.8,8.8-9.5c1.8-0.7,3.2-1.9,4.3-3.6
		c3-4.7,8.6-6,13.4-3.2c1,0.6,2,0.9,3.1,1c2,0.2,3.9,0.8,5.6,2c2.9,1.9,5.3,4.4,7.7,6.8c1.1,1.1,1.8,2.5,1.9,4.1
		c0.1,0.6,0,1.1-0.4,1.5c4.3,3.9,7.5,8.7,10,14.2c1,2.3,2,4.7,3.2,7c1.7,3.6,4.1,6.5,7,8.9c-0.2-1.4-0.2-2.7-0.1-4.1
		c0.1-0.8,0.3-1.6,0.8-2.2c0.7-1,2-1,2.5,0.1c0.3,0.7,0.5,1.5,0.6,2.3c0.6,2.9,2,5.2,4.2,7.1c1.7,1.4,3.7,2.2,5.9,2.2
		c5,0,9.9,0,14.9,0c2.6,0,5.1,0.3,7.5,1.1c1.2,0.4,2.3,0.5,3.4-0.3c0.8-0.5,1.7-0.9,2.7-0.9c1.1,0,2-0.1,2.8-1
		c0.3-0.4,0.8-0.5,1.3-0.2c0.6,0.4,0.5,1,0.2,1.5c-0.8,1.4-1.2,3-1.8,4.4c-1.3,2.7-2.6,5.5-4.1,8.1c-1.7,3.1-3.8,5.7-6.4,7.6
		c0,0.1,0,0.3,0,0.4c0.2,10,4.1,18.3,11.8,24.7c0.9,0.8,2,1.4,3.1,1.8c0.1-1,0.5-2,1.1-3c1.8-3.1,4-6,6.8-8.3
		c0.2-0.2,0.4-0.3,0.6-0.5c1-0.7,0.9-1.9,0.7-2.8c-0.2-0.9-1.1-1-1.9-1.1c-3.4-0.5-4.4-2.4-3.1-5.5c0.5-1.2,1.3-2.2,2.1-3.2
		c1.4-1.5,2.8-3.1,4.3-4.5c1.6-1.5,2.9-3.2,4-5.1c1.5-2.6,3.4-4.8,5.7-6.7c1.1-0.9,2-2,3.1-3c0.4-0.4,0.9-0.8,1.5-0.6
		c0.7,0.3,0.3,1,0.1,1.5c-1,4.7-1.3,9.3-0.8,13.9c0.9-0.9,1.9-1.7,3-2.3c1.2-0.7,2.5-1.4,3.7-2.2c3.5-2.1,6.5-4.7,8.3-8.4
		c2-4.1,5.2-7.2,8.7-10.1c5.4-4.5,11.8-6.4,18.6-6.8c7.3-0.5,14.7-0.5,22,1.2c3.5,0.8,7.1,0.8,10.7,1.5c5.4,1.1,10.1,3.5,13.9,7.5
		c1.1,1.1,2.3,2.3,3.4,3.4c1.1,1.2,2.4,2.1,3.8,2.8c3.3,1.7,6.2,4,8.6,6.8c0.3,0.3,0.6,0.6,0.8,0.9c-1.1-4-2.5-7.8-4.4-11.5
		c-0.3-0.5-0.5-1-0.7-1.5c0-0.1,0-0.2,0.1-0.3c0.6-0.6,1.3-0.3,2,0c2.6,0.9,5.3,1.8,7.9,2.8c0.4,0.2,0.9,0.4,1.3,0.7
		c3.4,2.6,5.9,6,7.8,9.8c0.4,0.8,0.5,1.8,0.3,2.8c0.1,0,0.1,0,0.2,0c1.6-0.2,3.2,0.2,4.7,0.8c0.8,0.3,1.5,0.9,2.4,1
		c0.7-0.5,0.6-1.3,0.8-2c2-5.8,6.1-9.3,12.4-9.5c1,0,2.1-0.1,3.1-0.1c-0.9-0.9-1.7-1.8-2.2-3c-0.3-0.6-0.6-1.1-0.8-1.7
		c-0.6-1.8-0.3-3.3,0.8-4.2c1-0.9,2.3-0.8,4,0.2c2.8,1.5,5.8,1.5,8.9,1.5c3.8,0,7.4-1,10.8-2.8c6.5-3.4,12.5-7.4,17-13.4
		c0.9-1.2,1.9-1.6,3.3-1.2c3.8,1.1,7.2,2.6,10.1,5C637.2,333.5,639.4,332,641.1,330.1z M360.6,274.5c-1.4,2.6-1.9,5.3-2.1,8.2
		c-0.3,4.9-2.4,7.9-6.5,8.9c-2.5,0.6-5.4-0.2-6.7-2.5c-0.7-1.2-1.5-1.6-2.8-1.6c-2.3-0.2-4.2-1.4-6.1-2.6c-3.7-2.3-7.6-4-12.3-3.6
		c-3-0.3-5.9,0.6-8.9,1c-0.9,0.1-1.6,0.6-2.3,1.2c-2.4,2.3-4.7,4.5-6.6,7.2c-0.2,0.3-0.4,0.7-0.7,1c-0.6,0.7-1.4,0.7-2.2,0.5
		c-0.8-0.2-1-1-1-1.7c-0.2-2.2,0.6-4.3,1.4-6.2c0.7-1.5,1.4-3,2.4-4.4c3-4.2,5.4-8.8,8.6-12.9c3.8-4.9,8.8-7.8,14.6-9
		c4.9-1,9.6,0.3,13.5,4c2.4,2.2,4,4.9,5.7,7.6c0.9,1.4,1.5,1.5,2.4,0.1c0.8-1.1,1.4-2.3,1.3-3.8c-0.1-0.9-0.1-1.8,0-2.6
		c0.2-2.7,2.7-4,5-2.5c1.2,0.8,2.2,1.8,2.9,3.1C362.3,267.5,362.5,271,360.6,274.5z M572.4,147.6c0.9-0.2,1.7-0.4,2.4-1
		c2.9-2.4,6.2-4.2,9.6-5.8c3-1.4,5.8-3,7.9-5.7c1.7-2.2,4.1-3.3,6.9-3.2c2,0.1,3.1,0.7,3.8,2.6c1.7-2.4,3.8-4.7,6.2-6.6
		c4.5-3.6,8.9-7.3,14.1-10c2.6-1.4,4.9-3.3,7.3-5c1.7-1.3,2.8-3,3.1-5.2c0.8-4.8,2.3-9.3,4.9-13.4c1.4-2.3,2.9-4.4,4.9-6.1
		c2.5-2.1,3.3-2.2,6.1-0.4c0.6,0.4,0.9,0.2,1.2-0.2c3.2-3.4,6.6-6.6,9.2-10.4c1.3-1.8,2.7-3.6,4-5.4c4.3-5.9,9.8-10.3,15.8-14.1
		c0.9-0.6,1.9-1.2,2.8-1.9c1.1-0.8,2.3-1.5,3.6-1.9c5.2-1.7,9.7,0.7,11,6.1c0.2,0.9,0.3,1.9,0.3,2.8c0.1,2.5-0.2,5-0.6,7.5
		c1.8,0.4,3.2,1.8,4.1,4.2c0.9,2.4,1,4.8,0.7,7.3c-0.2,1.1-0.4,2.2-0.7,3.3c-1.6,5-3,10.1-4.9,15c0.7,2.4,1.5,4.8,2.3,7.2
		c1.5,4.8,2.8,9.7,3.9,14.6c0.5,2.3,1,4.7,1.8,7c1.9,5.8,2.1,11.7,1.5,17.8c-0.4,3.9-0.4,7.8-1.2,11.7c-0.2,0.8,0,1.4,0.5,2
		c2.1,2.8,2.9,6,2.8,9.5c0,1.3,0.3,2.5,0.9,3.7c2,3.8,2.2,7.8,0.6,11.8c0.8,1.3,1.3,3,1.5,4.9c0.2,1.8,0.1,3.7-0.2,5.5
		c-0.2,1.4-0.7,2.6-2,3.4c-0.6,0.4-1.2,0.6-1.8,0.2c-0.7-0.5-0.3-1.1,0-1.7c0.3-0.6,0.4-1.3,0.4-2c-0.5,1.4-1.1,2.7-1.9,3.9
		c-0.8,1.3-2.2,2.1-3.6,2.7c-8.2,3.2-13,9.5-15.9,17.5c-0.4,1.2-0.6,2.3-0.3,3.5c1.2,4.6,0.2,8.9-2,13c-1,1.8-2.1,3.6-3.4,5.3
		c0.7,0.6,1.4,1.2,2.1,1.8c4.4,3.9,7.2,8.5,7.3,14.6c0,3.2,1,6.1,2.3,9c0.3,0.7,0.7,1.3,0.7,2c0,1-0.8,1.6-1.8,1.2
		c-0.9-0.4-1.6-1.1-2.2-1.8c-2.2-2.6-4.3-5.4-5.7-8.6c-0.6-1.3-1.4-2.1-2.6-2.5c0.1,0.3,0.2,0.5,0.3,0.8c-0.9-0.3-1.5-0.7-1.9-1.3
		c-1-0.3-2.1-0.6-3.2-0.7c-3.2-0.3-6-1.6-8.4-3.7c-0.8-0.7-1.6-1.3-2.4-2c-1.4-1.1-3-1.8-4.8-2.1c-1.6-0.2-3.2-0.6-4.6-1.3
		c-4.4-2.1-6.7-5.6-7.3-10.2c-4.6-2-9.1-4.2-13-7.5c-2.2-1.8-4.1-3.8-5-6.6c-1.6-4.9-4.7-8.7-8.7-11.8c-1.4-1.1-2.6-2.4-3.7-3.7
		c-1.2-1.5-2.6-2.6-4.3-3.4c-3.7-1.7-7.6-3.1-11.7-2.9c-1.2,0-2.2-0.4-3.1-1c-3.7-2.3-6.9-5.2-9.4-8.8c-1.6-2.2-3.1-4.4-4.8-6.6
		c-3.8-5-7.2-10.3-13.1-13.3c2.3-0.4,4.5,0,6.6,0.4c4.5,0.8,9,1.5,13.1,3.7c3.5,1.9,6.5,4.3,9,7.4c0.9,1.1,1.8,2.3,2.7,3.4
		c1,1.2,2.3,1.9,4,1.9c2.1,0,4.1,0.5,6.1,1.2c0.8,0.3,1.5,0.4,2.2-0.1c0.1-0.1,0.2-0.1,0.3-0.2c-0.7-1.2-1.3-2.4-1.9-3.6
		c-2.9-5.8-7.5-9.9-13.1-13c-3.7-2-7.2-4.1-10.2-7c-1-0.9-2.2-1.4-3.4-1.8c-2.1-0.7-4.2-1.5-6.1-2.8c-1.2-0.8-2.7-1-4.1-1.3
		c-1.7-0.3-3.3-0.5-4.9-1.2c-2.5-1.2-3.9-3.3-3.7-5.6C567.8,150.2,569.6,148.2,572.4,147.6z M549,168.2c2.5,1.6,4.3,3.8,5.2,6.6
		c0.9,3.2-0.2,6-3.2,7.4c-3.2,1.5-6.5,1.7-9.8,0.4c-2.8-1.1-5.3-2.6-7.8-4.2c-2.6-1.7-5.1-3.5-7.5-5.5c-1.3-1.1-2.7-2-4.2-2.8
		s-3.1-1.2-4.9-0.9c-0.4,0.1-0.8,0.1-1.2,0.2c-2.1,0.2-3.5-0.6-4.1-2.1s-0.1-3.1,1.5-4.4c2-1.6,4.3-2.5,6.7-2.9
		c2.3-0.4,4.6-0.6,7.2-0.5c4.9-0.5,9.5,1.1,13.9,3.7C543.6,164.8,546.3,166.5,549,168.2z M438.5,155.7c0.6-1.2,1.3-2.4,2.5-3.2
		c0.5-0.4,1.1-0.7,1.3-1.3c0.7-2,2.4-2.9,4.2-3.6c11.2-4.3,22.6-7.9,34.3-10.4c5.4-1.2,10.9-2.3,16.4-3c2-0.2,4,0,6,0
		c4.5-0.2,8.9,0.3,13.3,1c2.4,0.4,4.8,1.3,7,2.3c2.1,0.9,4.2,1.5,6.5,1.5c2.8,0.1,5.4,1,7.4,2.8c2.5,2.3,1.9,5.4-1.4,6.5
		c-1.5,0.5-3.1,0.8-4.7,0.6c-3.2-0.4-6.5-0.9-9.7-1.2c-4.3-0.4-8.6-0.3-12.8,1.1c-1.2,0.4-1.9,1.5-3,1.9c-2.6,0.9-3.6,2.8-4.5,5.3
		c-1.8,4.7-5.9,6.4-10.7,5.7c-2.4-0.4-4.6-1.2-6.7-2.4c-1.7-1-3.2-2.2-3.7-4.2c-0.2-0.9-0.7-1.2-1.6-1.5c-4.7-1.5-9.5-1.6-14.2-1.3
		c-4.5,0.4-9.1,0.1-13.6,0.9c-3.4,0.6-7,1.1-9.6,3.8c-0.2,0.2-0.4,0.3-0.6,0.4c-0.6,0.4-1.3,0.7-2,0.1
		C438.2,157.1,438.2,156.3,438.5,155.7z M415,191.1c0.2-1.3,0.5-2.5,1-3.7c2-4.8,5.1-8.7,9.7-11.2c4-2.2,7.3-5.2,10.2-8.6
		c3.4-4,7.7-6.1,13-6.2c1.8-0.1,3.5-0.2,5.3-0.3c0.4,0,0.8,0,1.2,0.1c0.6,0.1,1.1,0.3,1.6,0.6c0.2,0.1,0.5,0.2,0.7,0.4
		c1.4,1,2.2,2.6,2.2,4.6c0,0.8-0.1,1.6-0.4,2.3c-0.1,0.2-0.2,0.5-0.3,0.7c-1.8,4-4.6,7.1-8.8,8.7c-0.9,0.3-1.8,0.7-2.7,0.9
		c-6.4,1.5-12.4,4.1-18.5,6.5c-3.3,1.3-6,3.3-7.8,6.4c-0.2,0.4-0.5,0.8-0.8,1.2c-1.1,1.2-2.4,1.6-3.6,1.1
		C415.6,194.1,414.8,192.7,415,191.1z M426.4,340c-0.7,0.7-1.5,1-2.5,0.2c-2.5-1.9-5.2-3.8-8.2-4.9c-0.2-0.1-0.5-0.2-0.6-0.3
		c-0.6-1.6-1.7-1.3-2.9-0.9c-0.2,0.1-0.5,0.1-0.7,0.1c-5.4-0.2-10.8,0.9-16.3,0.6c-2.1-0.1-4.1-0.4-6.1-1c-3.1-0.8-5.7-2.3-8-4.6
		c-8.5-8.2-8.8-9-11.8-20.3c-0.8-2.8-2.3-5-4.7-6.7c-1.4-1-1.5-1.4-0.1-2.5c1.5-1.2,2.9-2.5,4.8-3.1c2.2-0.8,4-0.2,4.5,1.7
		c2.1,7.4,7.4,12.1,13,16.7c0.6,0.5,1.3,0.9,1.9,1.5c3.7,3.6,8.3,5.4,13.1,6.8c5.7,1.7,11.5,3,17.5,2.7c2.7-0.1,5.4-0.5,8.1-0.9
		c1.9-0.3,2.3,0,2.4,1.8c0,0.5,0,1,0,1c-0.3,1.4,0,2.5,0.1,3.5C430.4,335,428.7,337.6,426.4,340z M463.2,302.1
		c-0.6,3.6-0.2,7.3-0.9,10.9c-0.2,1.4-0.9,2.6-1.6,3.7c-0.5,0.8-0.9,1.5-1.1,2.4c-1.4,6.5-5.2,11.2-10.4,14.9
		c-1.1,0.8-1.8,1.7-2.1,3c-0.3,1.4-0.9,2.5-2.3,3.2c-0.8,0.3-1,1.2-1.5,1.8c-0.3,0.3-0.6,0.5-1.1,0.3c-0.4-0.1-0.5-0.5-0.5-0.8
		c0-0.9-0.1-1.7-0.7-2.5c-0.3-0.4-0.2-0.9-0.1-1.4c0.5-2.2,0.9-4.5,1.5-6.8c0.6-2.1,0.8-4.2,0.7-6.4c-0.2-2.6,0.4-5.1,0.6-7.6
		c0.3-2.9,2.2-4.7,4.3-6.4c3.6-3,7.3-5.9,10.2-9.7c0.7-0.9,1.4-1.8,2.7-1.6C462.5,299.2,463.5,300.3,463.2,302.1z M472.9,271.1
		c-0.6,1.1-1.7,1.4-2.8,1.6c-2.3,0.6-4.6,1.4-6.6,2.8c-1.8,1.2-3.4,2.6-5.2,3.7c-1.5,0.9-2.5,2.9-3.2,4.7c-1.1,2.8-1.9,5.6-3.9,7.9
		c-0.4,0.5-0.4,1-0.4,1.6c0,0.9-0.3,1.7-0.6,2.6c-0.5,1.2-1.3,2.1-2.3,2.6c0.1,0.1,0.2,0.2,0.3,0.3c0.9,0.8,0.8,1.3,0,2.1
		c-2.1,2.1-4.4,4-6.7,5.8c-1.8,1.4-3.5,2.8-5.1,4.4c-1.1,1.2-2.6,1.8-4.1,2.4c-3.3,1.3-6.7,2.3-10.1,2.9c-1.9,0.4-3.8,0.4-5.8,0.1
		c-6.1,0.2-11.7-2.1-17.4-4.1c-1.2-0.4-2.3-1.1-3.3-1.9c-3.8-3.1-7.6-6.1-10.6-10c-2.3-3.1-4.6-6.2-6.8-9.3
		c-0.4-0.6-0.9-1.1-0.2-1.9c2.9-2.9,4.8-6.6,7.5-9.6c0,0,0,0,0.1-0.1c-0.5-0.6-0.9-1.3-1.1-2.1c-0.5-1.7-0.7-3.4-0.9-5.2
		c-0.1-1.3-0.1-2.6-0.2-3.8c-0.2-2.1,0.4-3.9,1.7-5.6c0.3-0.3,0.5-0.6,0.8-1c-0.1-0.7,0-1.4,0.3-2.1c1-2.7,2.5-5.2,4.8-7
		c2.2-1.7,4.4-3.4,6.7-5.1c2.4-1.8,5-2.9,7.7-3.6c0.2-0.5,0.5-1,1-1.6c1.1-1.3,1-1.3,0-2.6c-3.2-3.9-4.8-8.2-2.8-13.1
		c0.6-1.6,1.5-3.1,2.5-4.6c-0.9-0.3-1.7-0.9-2.3-1.7c-1.4-1.9-1.4-4.3,0.1-6.5c1.2-1.8,2.9-3,4.9-3.7c1.3-0.5,2.6-0.8,3.9-1.1
		c1.6-0.4,3.3-0.6,4.7-0.5c0.9,0,1.5,0.1,2,0c5-1.1,9.9-0.2,14.8,0.5c2.1,0.3,4.1,0.7,5.9,1.7c3.7,2.2,7.7,3.8,11.6,5.7
		c5.2,2.6,8.4,6.5,9.2,12.3c0.2,1.7,0.9,2.4,2.6,3.1c10.6,4.2,12.7,14.5,9.1,21.5c-0.3,0.6-0.6,1.2-0.9,1.7
		c-0.1,0.2-0.2,0.4-0.3,0.5c0.2,0.3,0.3,0.7,0.5,1c0.4,0.8,0.8,1.6,1.2,2.3C475.7,263.3,475.2,267.2,472.9,271.1z M499.3,239.2
		c-1.2,1.9-2.7,3.5-5.4,3.4c-1.4-0.1-2.5-0.5-3.4-1.4c-1.3-1.3-2.4-2.8-3-4.6c-1.9-5.4-5-10.1-8-14.9c-0.5-0.9-1.3-1.4-2.3-1.6
		c-2-0.5-3.3-1.9-4.2-3.7c-1-1.9-1.9-3.9-3.1-5.7c-1.3-2.1-3-3.7-4.7-5.4c-0.8-0.8-1.9-1.2-3-1.2c-0.9,0-1.8,0.1-2.6-0.1
		c-1.3-0.2-2.3-1.2-2.5-2.3c-0.2-1.4,0.2-2.6,1.4-3.4c1.2-0.8,2.6-1.2,4.1-1c2.8,0.3,4.5-1,5.8-3.3s2.9-4.2,5.4-5.6
		c2.6-1.4,6.7-0.3,8.8,3.2c0.4,0.7,0.6,1.7,1.5,2.3c1-0.8,1.9-1.7,3-2.3c4.5-2.5,9.4-3.3,14.6-2.6c2.8,0.4,5.7,0.9,8.4,1.6
		c1.7,0.4,3.2-0.1,4.6-0.9c2.2-1.1,4.6-1.7,7-2.5c1-0.4,2-0.3,3,0c3.6,0.8,6.6,2.8,9.8,4.5c1,0.5,1.5,1.5,1.4,2.6
		c-0.1,1.2-0.8,2.1-1.9,2.5c-0.1,0-0.1,0.1-0.2,0.1c-2.3,0.3-4.2,0.9-3.6,3.9c-1.1,2.6-2.3,5.1-3.8,7.5c-1.6,2.8-3.6,5.3-6,7.5
		c-1.7,1.5-3,3.3-4.1,5.3c-2.5,4.6-5.7,8.5-10.1,11.2C503.1,233.9,501,236.3,499.3,239.2z M553.9,342.9c-0.4,0-0.9,0-1.1-0.3
		c-2.1-1.8-5-2.6-6.9-4.7c-0.3-0.4-0.7-0.7-1.2-0.7c-3-0.1-4.5-2.3-5.9-4.4c-1.8-2.8-3.4-5.8-4.8-8.8c-1.8-4-4.7-7.2-8.2-9.8
		c-1.7-1.3-2.4-3-2.8-4.8c-0.5-2.3,2.1-4.4,4.5-3.7c0.9,0.3,1.8,0.7,2.6,1.3c4.7,3.8,10.2,6.4,15.5,9.4c1.8,1,3.1,2.5,4.2,4.2
		c0.5,0.8,0.5,1.7,0.5,2c0,1.3,0,2.1-0.4,2.9c-0.8,1.7-0.5,3.4,0.4,5c1.6,3.1,3.2,6.3,4.5,9.5c0.2,0.4,0.4,0.7,0.5,1.1
		C555.6,342.2,555.1,342.9,553.9,342.9z M563.4,318.1c-5.7-0.5-10.5-3.1-14.8-6.7c-0.7-0.6-1.3-1.3-2.1-1.5
		c-2.2-0.7-3.8-2.3-5.6-3.6c-0.9-0.7-1-1.3-0.6-2.2c1.2-2.6,2.4-5.2,3.5-7.9c-1.3-0.5-2.1-2.1-2.3-3.9c-0.2-2.5-2-4.3-3-6.4
		c-0.1-0.3-0.5-0.2-0.8-0.1c-2.3,0.7-4.6,1.4-6.8,2.1c-2.3,0.8-4.5,0.9-6.8,0.3c-1.3-0.3-2.2-1-2.8-2.1c-0.8-1.3-1.3-2.8-1.4-4.3
		c-0.3-2.8-0.6-5.6-0.5-8.4c0-0.6,0.2-1.2-0.1-1.6c-1.5-2.6-2.1-5.6-3.7-8c-0.4-0.7-0.9-1.3-1.3-2c-0.6-1-1-2.1-1.4-3.1
		c-1.1-0.6-1.8-1.6-2.3-2.8c-0.9-2-1.1-4.2-0.8-6.3c0.4-2.5,1.1-4.8,2.3-7c0.4-0.8,0.8-1.6,1.6-2.1c2.7-1.6,3.8-4.4,4.5-7.1
		c1.4-5.5,4.5-9.7,8.9-13c2.4-1.8,4.4-3.8,6.1-6.3c1.4-2.1,3.2-4,5.5-5.2c0.7-0.3,1.3-1,1.9-1.5c3-2.5,6.4-4.5,10-6.1
		c6-2.6,11.8-2,17.2,1.5c3.5,2.2,7,4,10.9,5.3c4.3,1.5,8,4,11.5,6.8c1.4,1.2,2.4,2.8,3.3,4.4c0.2,0.4,0.3,0.8-0.1,1.1
		c-0.4,0.3-0.8,0.2-1.1,0c-1.8-1.3-3.8-2-5.8-2.5c-0.3,1.2-1.2,1.8-2.5,1.8c-1.7-0.1-1.9,0-2.1,1.7c-0.2,1.2-0.3,2.4-0.2,3.6
		c0.3,6-1.9,11.1-5.5,15.7c-1.2,1.5-2.4,3-3.5,4.6c-1.5,2.3-1.1,3.5,1.4,4.7c2.4,1.1,4.6,2.6,6.6,4.3c0.9,0.8,1.8,1.7,2.3,2.8
		c1.7,0.6,3.4,1.3,5,2.1c3.7,1.7,5.9,4.7,8.2,7.8c0,0.1,0.1,0.2,0.1,0.2c1.7,1.2,3.3,2.4,5,3.5c2.3,1.6,4.4,3.4,6.2,5.6
		c1.1,1.3,2.3,2.4,3.8,3.2c0.6,0.3,1.2,0.7,1.8,1.1c1.3,0.9,2,2,1.8,3.6c-0.1,1-0.6,1.8-1.2,2.4c0.3-0.1,0.5-0.3,0.8-0.5
		c0.4-0.3,0.8-0.5,1.3-0.1c0.4,0.4,0.4,0.9,0.2,1.3c-0.6,1.8-1.2,3.6-2.1,5.3c-3.9,7.2-8.6,13.8-14.7,19.4
		c-3.5,3.3-7.2,6.3-11.9,7.8c-1,0.3-1.6,1.3-2.8,1.2c-1-0.1-2.1,0-2.9,0c-2.7,0.2-5.1,0-7.5-0.9C570.7,319,567.1,318.4,563.4,318.1z
		 M626.2,309c-0.6,2.8-2,5.4-4.1,7.5c-1.8,1.8-3.4,3.8-5,5.8c-4.8,6.1-11.1,9.8-18.8,10.8c-2.4,0.3-4.7,0.7-6.2,0.6
		c-6.2-0.1-11.1-1.4-16.1-2.7c-0.6-0.2-1.3-0.2-1.3-1.1c0.1-1,1-2.1,1.9-2.1c1,0,2.1,0.2,3.1,0.1c6.9-1.1,13.7-2.4,20.3-4.6
		c2.5-0.9,4.6-2.3,6.3-4.2c2.6-2.9,5.3-5.8,7.9-8.7c3.6-3.9,6.4-8.4,8.8-13.1c0.3-0.5,0.5-1,0.8-1.5c0.5-0.7,1.3-0.6,1.4,0.2
		C625.8,300.3,627.1,304.6,626.2,309z M626.6,266.7c-4.8-3.4-10-6.3-15.6-8.4c-1.5-0.5-2.9-1.3-4.3-2.1c-2.4-1.3-3-2.7-2.6-5.3
		c0.1-0.5,0.3-1-0.3-1.3c-0.5-0.3-0.7,0.2-1,0.4c-1.4,1.2-3,1.7-4.6,0.8c-1.7-0.9-2.3-2.7-2-4.5c0.9-4.4,2.5-8.3,7-10.5
		c1.6-0.8,3.2-1.9,4.4-3.4c0.5-0.7,1.2-1.3,1.8-1.9c2.4-2.2,5.1-1.8,6.5,1.1c1.3,2.5,2.9,4.8,4.5,7c1.4,2,3.1,3.7,5.2,4.8
		c3.5,1.8,6.3,4.5,9.4,7c1.5,1.3,3.1,2.5,4.6,3.8c1.8,1.5,3.2,3.3,4.4,5.3c0.9,1.6,2.1,2.5,3.9,3.2c3.3,1.3,6.7,2,10.1,3.1
		c1.7,0.6,3,1.4,3.5,3.3c0.2,0.7,0.6,1.1,1.1,1.5c0.4,0.4,0.9,0.6,1.3,1c0.8,0.7,2,1.5,1.6,2.7c-0.4,1.3-1.8,0.7-2.8,0.8
		c-0.4,0-0.8,0-1.6,0c-1.3,0.1-3-0.2-4.6-0.7c-3.2-1.1-6.5-0.9-9.7-0.6c-2.1,0.2-3.7,1.7-5.4,2.9c-0.3,0.2-0.6,0.6-0.9,0.8
		c-2.9,2.1-6.1,1-6.7-2C632.9,271.1,629.7,268.9,626.6,266.7z"/>
	<path class="st3" d="M743.2,610.5c-5.4-11.7-9.7-23.8-14.4-35.8c-1.9-4.8-3.4-9.7-4.9-14.5c-2.4-7.8-4.2-15.8-4.9-23.9
		c0-0.6,0.1-1.3-0.6-1.8c-1,1.2-1.6,2.5-2.3,3.9c-3.9,8-8.3,15.7-12.8,23.4c-2,3.4-3.8,6.9-5.3,10.5c-3,6.8-5.7,13.7-8.5,20.6
		c-0.6,1.4-1.1,2.8-1.8,4.2c-0.8,1.7-1.5,2.3-2.3,1.9c-1.3-0.7-0.7-1.8-0.4-2.8c0.4-1.6,0.9-3.2,1.3-4.9
		c3.5-12.5,7.7-24.7,11.4-37.1c1.1-3.8,2-7.6,2.8-11.4c2-10.3,4.7-20.4,9.8-29.7c4-7.4,5.9-15.3,5.7-23.8
		c-0.1-5.2,0.2-10.4,0.6-15.6c0.4-4.9,0.4-9.8,0-14.6c-0.6-7-1-14-0.8-21.1c0-0.5,0.3-1.1-0.5-1.5c-1.6,1.9-3,3.9-4.8,5.6
		c-4.7,4.4-7.7,9.7-10.2,15.5c-0.6,1.5-1.4,2.9-2,4.4c-3,6.9-6.6,13.5-11.1,19.5c-7.3,9.8-14.7,19.5-22.8,28.7
		c-0.2,1.8-0.5,3.5-0.8,5.3c-0.8,4.9-1.6,9.8-2.6,14.6c-2,9.1-6,17.3-10.8,25.2c-1.5,2.5-3,4.9-4.7,7.2c-1.3,1.8-2.1,3.9-2.7,6.1
		c-1.8,6.7-1.5,13.4-0.1,20.2c1.1,5.1,2.4,10.1,3.2,15.2c0.8,5,0.1,9.7-1.5,14.4c-2.2,6.2-5.3,12-9.1,17.4c-0.4,0.6-0.8,1.2-1.2,1.8
		c0,0.1,0,0.2,0,0.4c0.8,0.3,1.5-0.2,2.2-0.4c3.7-1.1,7.4-2.1,11.2-2.5c2.1-0.2,4.2-0.2,6.2,0.3c1,0.2,1.9,0.6,2.7,1
		c0.1,0,0.2-0.1,0.3-0.1c1.4-0.6,2.5-1.6,3.7-2.6c0.5-0.4,0.9-0.9,1.5-1.2c1-0.6,2,0.1,1.6,1.1c-0.3,1.1,0,1.7,0.6,2.5
		c1,1.2,0.8,2.5,0.2,3.8c-0.6,1.2-1.5,2.3-2.4,3.3c-4,4.4-7.9,8.8-11.9,13.1c-0.3,2-0.2,4,0.5,6.1c0.4,1.3,0.8,2.6,0.7,4
		c0,3.7,0.5,7.1,1.4,10.2c1.7-2.2,3.3-4.6,4.9-6.9c0.5-0.7,0.9-1.4,1.4-2c0.2-0.3,0.3-0.5,0.5-0.8c0.5-0.7,1-1.4,1.5-2.1l0.1-0.1
		c2.1-3.1,4.3-6.1,6.7-9.1c0.6-0.7,1.1-1.4,1.7-2.1c0.1-0.4,0.3-0.7,0.6-1c0.1-0.1,0.3-0.2,0.4-0.2l1.4-1.7l0.7-0.8
		c0.2-0.3,0.5-0.5,0.7-0.8l1.5-1.6c0.5-0.5,1-1.1,1.5-1.6c1-1.1,2.1-2.1,3.1-3.1l0.4-0.4l0.4-0.4l0.8-0.7c0.5-0.5,1.1-1,1.6-1.5
		l1.7-1.4l0.8-0.7c0.3-0.2,0.6-0.5,0.9-0.7l0.1-0.1c0-1,0-2,0-3.1c0.1-5.8,1.6-11.4,4.2-16.6c2-4.2,4.4-8.2,7.3-11.8
		c1.8-2.3,3.1-4.8,3.9-7.6c0.3-1,0.7-2.1,1.4-2.8c1.4-1.3,1.8-2.9,2.2-4.7c1-4.1,2.1-8.2,3.2-12.3c0.1-0.2,0.1-0.5,0.2-0.7
		c0.8-2.2,2.3-3.3,4.1-2.9c1.8,0.4,3,2.5,2.7,4.7c-0.4,2.7-0.4,5.4,0.1,8.1c0.1,0.7,0.1,1.4,0.1,2.2c0,2.1,0.5,3.8,1.9,5.5
		c1.6,1.9,2,4.5,1.9,7c-0.1,4.5,0.6,8.9,2.4,13.1c0.6,1.3,1.2,2.6,1.8,3.9h0.1l2.1-0.5c5.7-1.3,11.5-2.3,17.3-3
		c0.8-0.1,1.6-0.1,2.4-0.2C744.6,613.5,743.9,612,743.2,610.5z M684.1,542.8c-1.1,4.8-2,9.7-2.7,14.5c-0.5,3.3-0.7,6.6-1.1,10
		c-0.6,5.1-0.5,10.2-1.4,15.2c-0.7,4.1-2.4,7.8-5.3,10.5c-4,3.8-5.8,8.5-6.8,13.7c-0.3,1.6-0.8,3.2-1.3,4.8c-0.7,2.1-1.8,2.7-4,2.6
		c-1.7-0.1-2.4-1-2.9-3.2c-0.4-1.7-0.5-3.5-0.4-5c-0.2-3.5,0.6-6.6,0.5-9.8c-0.1-1.2-0.1-2.2-1.1-3c-0.7-0.6-1-1.5-1.1-2.3
		c-0.8-3.9-1.6-7.8-1.6-11.8c-0.1-5.4,1.1-10.4,3.2-15.3c2.6-6.3,5.8-12.2,9.9-17.7c2.5-3.4,4.3-7.3,6.1-11.1
		c1.4-3.1,2.4-6.4,3.4-9.7c2.5-7.9,6.4-15.1,10.6-22.2c2.1-3.5,4.3-6.9,5.1-11c0.4-2,1.7-3.8,2.6-5.7c0.3-0.5,0.7-1.2,1.3-1.4
		c1.3-0.4,2-1.4,2.8-2.4c0.4-0.6,1-1.1,1.8-0.7c0.9,0.5,0.8,1.3,0.5,2.1c-2.6,7.3-4.2,14.9-7.2,22.1c-0.8,1.9-1.1,4-1.6,6
		c-1.4,6.1-3.2,12-5.7,17.7C685.9,533.8,685.1,538.3,684.1,542.8z"/>
	<path class="st3" d="M365.5,567.5c-0.1-1.1-0.5-2-1-2.9c-3.7-7.6-8.1-14.9-10.8-23c-0.3-1-0.8-1.9-1.3-2.8
		c-0.1,0.2-0.2,0.3-0.4,0.4c-1.3,0.9-2.1-0.2-2.8-1c-3.8-3.8-7.5-7.6-11-11.8c-3.2-3.8-6.8-6.9-11-9.6c-2.5-1.6-4.9-3.4-7.1-5.3
		c-3.2-2.8-6.6-5.3-9.9-7.9c-7.2-5.5-13.9-11.5-19-19.2c-0.2-0.3-0.4-0.8-1-0.5c0.2,6.7,0.3,13.4,0.5,20.1c0.1,4.4,1,8.7,2.5,12.9
		c2.1,6,4.1,12.1,6.3,18.1c1.9,5.1,3.2,10.4,3.9,15.8c0.4,3.3,0.8,6.7,1.1,10c1.3,15.3,6.9,29,15.8,41.4c0.7,1,1.5,1.8,2.4,2.7
		c2.1,2,4.1,4,6.2,6c4.6,4.3,8.6,9,11.8,14.4c1,1.7,1.4,3.2,0.1,5c-1.4,1.9-1.7,2.1-3.4,0.6c-2.9-2.7-5.8-5.5-8.4-8.6
		s-5.8-5-9.5-6.1c-5.3-1.5-9.8-4.3-13.4-8.5c-4.9-5.7-9.5-11.6-12.9-18.4c-0.5-1-1.1-1.7-2.1-2.3s-2-1.3-3-2
		c-0.8-0.6-1.3-0.6-1.6,0.4c-1.6,3.8-3.4,7.5-3.6,11.8c-0.3,7.2-0.8,14.4-1.1,21.6c-0.1,1.6-0.1,3.2-0.2,4.8
		c5.2,2.2,10.2,4.8,15,7.8l1.8,1.2l1.1,0.8c-0.1-1.3-0.3-2.5-0.4-3.8c-0.2-2.8-0.5-5.5-0.8-8.3c-0.2-1.5,0.1-2.8,1.3-3.6
		c1.2-0.8,2.4-0.4,3.6,0.2c2.2,1.2,3.5,3.2,5.1,5c2.4,3,5,5.8,7.7,8.5c2,2,4.2,3.9,5.9,6.3c0.8,1,1.8,1.8,3,2.4
		c2.6,1.4,4.5,3.6,6.2,5.9c2.3,3.2,5.1,5.9,7.8,8.7c4.1,4.4,7.1,9.4,9.1,15c1.6,4.3,1.1,8-1.2,11.2h22.6c0-1,0.1-2,0-3
		c-0.3-3.8-0.3-7.7-0.4-11.5c0-0.6,0-1.3-0.2-1.9c-1.4-4.1-2.7-8.3-4.9-12.1c-0.1-0.2-0.2-0.4-0.3-0.5c-0.1-0.2-0.2-0.4-0.3-0.5
		c-0.7-1.1-1.3-2.2-1.2-3.5c0-1.9-0.7-3.4-2.3-4.4c-0.9-0.6-1.7-1.2-2.3-2.1c-1-1.4-1.3-2.9-0.5-4.5s2.1-2.5,4.1-2.4
		c3.6,0.2,6.7,1.2,9.5,3.3c-0.3-1.8-0.9-3.4-1.7-5c-1.1-2.1-2.1-4.1-3.2-6.2c-2.3-4.7-3.6-9.7-4-15c-0.3-5-0.5-10.1-0.2-15.1
		c0.1-1.3-0.1-2.5-0.6-3.8c-0.2-0.6-0.4-1.2-0.6-1.8c-0.5-1.5-0.2-2.9,1-4s2.6-1.1,4-0.6c0.8,0.3,1.5,0.7,2.2,0.9
		c1.1,0.3,2.2,0.3,3.3,0c1.8-0.5,1.9-0.8,0.9-2.4C368.1,579.5,366,573.8,365.5,567.5z M346.1,600.1c-1.1,0.4-2.2-0.1-3-1.4
		c-0.9-1.4-1.8-2.8-2.7-4.2c-1.6-2.3-3.8-3.6-6.3-4.5c-2.3-0.8-4.5-1.7-6.6-2.8c-1.4-0.7-2.5-1.7-3.4-3c-2.3-3.5-4.7-6.8-6.8-10.4
		c-0.2-0.4-0.5-0.8-0.7-1.3c-0.2-0.6-0.1-1.1,0.5-1.5c0.6-0.3,1.1-0.2,1.5,0.3c0.6,0.8,1.1,1.8,2.5,2.3c0.4-4.2,0-8-1.1-11.7
		c-0.3-1.1-0.7-2.1-1.1-3.2c-0.3-0.7-0.5-1.3-0.2-2.1s0.1-1.5-0.1-2.3c-0.8-3.1-1-6.3-1.3-9.4c-0.4-3.5-0.5-7-0.7-10.5
		c-0.2-3.3-1-6.2-2.1-9.2c-0.6-1.6-1-3.2-0.9-4.9c0-0.7,0-1.4,0.7-1.6c0.9-0.3,1.3,0.5,1.6,1.1c1,1.8,1.9,3.7,2.8,5.6
		c0.7,1.4,1.5,2.6,2.9,3.4c1.6,1,2.6,2.6,3.4,4.3c1.7,4.1,4.4,7.4,7.6,10.4c3.4,3.1,5.4,7.1,6.5,11.5c1.2,5.1,2.3,10.3,3.3,15.4
		c0.3,1.6,1,3,1.9,4.3c1,1.5,1.8,3,1.1,4.9c-0.1,0.2-0.1,0.5,0,0.7c0.6,2,0.4,4,0.3,6c-0.1,2.4,0.5,4.9,1.4,7.2
		c0.5,1.2,0.7,2.4,0.7,3.7C347.7,598.6,347.4,599.6,346.1,600.1z"/>
	<path class="st3" d="M358.8,120.3l-0.1-0.1C358.6,120.3,358.7,120.4,358.8,120.3C358.8,120.4,358.9,120.3,358.8,120.3z"/>
</g>
<g>
	<path class="st4" d="M721.5,614.8c-1.8-4.2-2.5-8.6-2.4-13.1c0.1-2.5-0.3-5.1-1.9-7c-1.4-1.7-1.9-3.4-1.9-5.5c0-0.7,0-1.5-0.1-2.2
		c-0.5-2.7-0.5-5.4-0.1-8.1c0.3-2.2-0.9-4.3-2.7-4.7s-3.3,0.7-4.1,2.9c-0.1,0.2-0.1,0.5-0.2,0.7c-1.1,4.1-2.1,8.2-3.2,12.3
		c-0.4,1.7-0.8,3.4-2.2,4.7c-0.7,0.7-1.1,1.7-1.4,2.8c-0.8,2.8-2,5.3-3.9,7.6c-2.9,3.6-5.3,7.6-7.3,11.8c-2.6,5.2-4.1,10.7-4.2,16.6
		c0,1,0,2,0,3.1l1.6-1.3l0.4-0.3l0.4-0.3l0.9-0.6l1.8-1.3l1.8-1.2c5-3.2,10.2-5.9,15.7-8.1c0.3-0.1,0.7-0.3,1-0.4l1-0.4l2.1-0.8
		c0.3-0.1,0.7-0.3,1-0.4l1.1-0.3l2.1-0.7l1.1-0.3c0.4-0.1,0.7-0.2,1.1-0.3l2.1-0.6l1.1-0.3l0.5-0.1l0.4-0.1
		C722.7,617.4,722.1,616.1,721.5,614.8z"/>
	<path class="st4" d="M669.2,653.3c0.3-0.4,0.7-0.8,1-1.3l0,0c-0.1,0.1-0.3,0.1-0.4,0.2C669.5,652.6,669.3,652.9,669.2,653.3z"/>
	<path class="st4" d="M338.8,654.9c-2.7-2.8-5.5-5.6-7.8-8.7c-1.7-2.3-3.5-4.5-6.2-5.9c-1.1-0.6-2.2-1.3-3-2.4
		c-1.7-2.3-3.9-4.3-5.9-6.3c-2.7-2.7-5.2-5.6-7.7-8.5c-1.5-1.8-2.8-3.9-5.1-5c-1.2-0.6-2.4-1-3.6-0.2c-1.3,0.8-1.5,2.1-1.3,3.6
		c0.3,2.8,0.6,5.5,0.8,8.3c0.1,1.3,0.2,2.5,0.4,3.8l0.7,0.5l0.9,0.6l0.4,0.3l0.4,0.3l1.7,1.4c0.3,0.2,0.6,0.4,0.9,0.7l0.8,0.7
		l1.7,1.4c0.6,0.5,1.1,1,1.6,1.5l0.8,0.7l0.4,0.4l0.4,0.4c1,1,2.1,2,3.1,3.1c0.5,0.5,1,1,1.5,1.6l1.5,1.6c0.2,0.3,0.5,0.5,0.7,0.8
		l0.7,0.8l1.4,1.7c0.9,1.1,1.9,2.2,2.7,3.4c2.3,3,4.5,6,6.7,9.1l0.1,0.1c0.5,0.7,1,1.4,1.5,2.1c0.2,0.3,0.3,0.5,0.5,0.8
		c0.5,0.7,0.9,1.4,1.4,2c1.6,2.4,3.3,4.8,5,7.1c0.2,0.3,0.4,0.5,0.6,0.8c0,0,0,0,0.1,0.1c0.5,0.4,0.9,0.9,1.4,1.3
		c0.8,0.7,1.7,1.4,2.5,2c0.2,0.1,0.4,0.2,0.6,0.4h4.3c2.3-3.2,2.7-6.8,1.2-11.2C345.9,664.3,342.9,659.3,338.8,654.9z"/>
	<path class="st4" d="M530,200.7c-0.6-3,1.3-3.6,3.6-3.9c0.1,0,0.2-0.1,0.2-0.1c1.2-0.4,1.9-1.3,1.9-2.5c0.1-1.1-0.4-2.1-1.4-2.6
		c-3.2-1.6-6.2-3.6-9.8-4.5c-1.1-0.3-2-0.3-3,0c-2.3,0.8-4.7,1.5-7,2.5c-1.4,0.7-3,1.2-4.6,0.9c-2.8-0.6-5.6-1.1-8.4-1.6
		c-5.2-0.8-10,0.1-14.6,2.6c-1.1,0.6-2,1.5-3,2.3c-0.9-0.6-1-1.5-1.5-2.3c-2.1-3.5-6.2-4.6-8.8-3.2c-2.5,1.3-4.1,3.3-5.4,5.6
		s-3,3.6-5.8,3.3c-1.5-0.2-2.9,0.2-4.1,1s-1.5,2-1.4,3.4c0.1,1.1,1.1,2.1,2.5,2.3c0.9,0.1,1.8,0.1,2.6,0.1c1.2,0,2.2,0.4,3,1.2
		c1.7,1.7,3.5,3.3,4.7,5.4c1.2,1.8,2.1,3.8,3.1,5.7c0.9,1.8,2.2,3.1,4.2,3.7c0.9,0.3,1.7,0.7,2.3,1.6c3,4.8,6.2,9.5,8,14.9
		c0.6,1.7,1.6,3.3,3,4.6c1,0.9,2.1,1.3,3.4,1.4c2.6,0.1,4.2-1.5,5.4-3.4c1.7-2.9,3.9-5.2,6.7-7c4.5-2.7,7.7-6.6,10.1-11.2
		c1.1-2,2.4-3.8,4.1-5.3c2.4-2.2,4.3-4.7,6-7.5C527.6,205.8,528.8,203.3,530,200.7z"/>
	<path class="st4" d="M693.4,511.9c0.5-2,0.8-4.1,1.6-6c2.9-7.2,4.5-14.8,7.2-22.1c0.3-0.8,0.4-1.6-0.5-2.1
		c-0.8-0.4-1.4,0.1-1.8,0.7c-0.8,1-1.5,2-2.8,2.4c-0.5,0.2-1,0.8-1.3,1.4c-0.9,1.9-2.2,3.6-2.6,5.7c-0.8,4.1-3.1,7.5-5.1,11
		c-4.2,7.1-8.1,14.3-10.6,22.2c-1,3.3-2,6.5-3.4,9.7c-1.7,3.9-3.5,7.7-6.1,11.1c-4.1,5.5-7.3,11.4-9.9,17.7c-2,4.9-3.3,10-3.2,15.3
		c0.1,4,0.9,7.9,1.6,11.8c0.2,0.8,0.4,1.7,1.1,2.3c1,0.8,1,1.8,1.1,3c0.2,3.2-0.6,6.4-0.5,9.8c-0.1,1.5,0,3.2,0.4,5
		c0.5,2.2,1.2,3.1,2.9,3.2c2.2,0.2,3.3-0.5,4-2.6c0.5-1.6,1-3.2,1.3-4.8c0.9-5.2,2.8-9.9,6.8-13.7c2.9-2.8,4.6-6.5,5.3-10.5
		c0.9-5,0.8-10.2,1.4-15.2c0.4-3.3,0.7-6.7,1.1-10c0.7-4.9,1.6-9.7,2.7-14.5c1-4.4,1.8-8.9,3.6-13.1
		C690.2,523.9,692,518,693.4,511.9z"/>
	<path class="st4" d="M450.9,153.3c4.5-0.8,9.1-0.6,13.6-0.9c4.8-0.4,9.6-0.3,14.2,1.3c0.9,0.3,1.4,0.6,1.6,1.5c0.5,2,2,3.2,3.7,4.2
		c2.1,1.2,4.3,2,6.7,2.4c4.8,0.7,8.9-1,10.7-5.7c0.9-2.5,2-4.4,4.5-5.3c1.1-0.4,1.8-1.5,3-1.9c4.2-1.5,8.4-1.6,12.8-1.1
		c3.2,0.3,6.5,0.8,9.7,1.2c1.6,0.2,3.2-0.1,4.7-0.6c3.2-1.1,3.9-4.2,1.4-6.5c-2.1-1.9-4.7-2.8-7.4-2.8c-2.3,0-4.4-0.6-6.5-1.5
		c-2.2-1-4.6-1.9-7-2.3c-4.4-0.7-8.8-1.2-13.3-1c-2,0-4-0.2-6,0c-5.5,0.7-11,1.8-16.4,3c-11.7,2.5-23.1,6.2-34.3,10.4
		c-1.8,0.7-3.5,1.6-4.2,3.6c-0.2,0.6-0.8,1-1.3,1.3c-1.1,0.8-1.9,1.9-2.5,3.2c-0.3,0.6-0.3,1.4,0.3,2c0.7,0.6,1.3,0.3,2-0.1
		c0.2-0.1,0.4-0.2,0.6-0.4C443.9,154.4,447.5,154,450.9,153.3z"/>
	<path class="st4" d="M661.3,275.2c0.8,0,1.2,0,1.6,0c1-0.1,2.4,0.5,2.8-0.8c0.4-1.2-0.8-2-1.6-2.7c-0.4-0.4-0.9-0.6-1.3-1
		c-0.5-0.4-0.9-0.8-1.1-1.5c-0.4-1.8-1.7-2.7-3.5-3.3c-3.3-1.1-6.8-1.8-10.1-3.1c-1.8-0.7-3-1.7-3.9-3.2c-1.2-2-2.6-3.8-4.4-5.3
		c-1.5-1.3-3.1-2.5-4.6-3.8c-3-2.5-5.9-5.2-9.4-7c-2.2-1.1-3.8-2.8-5.2-4.8c-1.6-2.3-3.3-4.5-4.5-7c-1.4-2.9-4.1-3.3-6.5-1.1
		c-0.7,0.6-1.3,1.2-1.8,1.9c-1.2,1.5-2.7,2.6-4.4,3.4c-4.5,2.1-6.1,6-7,10.5c-0.4,1.9,0.2,3.6,2,4.5c1.6,0.9,3.3,0.4,4.6-0.8
		c0.3-0.2,0.5-0.7,1-0.4s0.3,0.8,0.3,1.3c-0.4,2.6,0.2,4,2.6,5.3c1.4,0.8,2.8,1.6,4.3,2.1c5.6,2.1,10.7,5,15.6,8.4
		c3.2,2.3,6.4,4.5,7.4,8.9c0.7,3,3.9,4,6.7,2c0.3-0.2,0.6-0.6,0.9-0.8c1.7-1.2,3.3-2.8,5.4-2.9c3.3-0.2,6.6-0.5,9.7,0.6
		C658.3,275,659.9,275.3,661.3,275.2z"/>
	<path class="st4" d="M344.1,574.8c-0.9-1.3-1.6-2.7-1.9-4.3c-1-5.1-2.1-10.3-3.3-15.4c-1.1-4.4-3.1-8.4-6.5-11.5
		c-3.2-3-5.9-6.3-7.6-10.4c-0.7-1.7-1.8-3.3-3.4-4.3c-1.4-0.8-2.2-2-2.9-3.4c-0.9-1.9-1.8-3.7-2.8-5.6c-0.3-0.6-0.8-1.4-1.6-1.1
		c-0.7,0.2-0.7,1-0.7,1.6c-0.1,1.7,0.4,3.3,0.9,4.9c1.1,3,2,5.9,2.1,9.2c0.2,3.5,0.3,7,0.7,10.5c0.3,3.2,0.5,6.3,1.3,9.4
		c0.2,0.8,0.4,1.6,0.1,2.3s-0.1,1.4,0.2,2.1c0.4,1,0.8,2.1,1.1,3.2c1.2,3.8,1.5,7.6,1.1,11.7c-1.4-0.5-1.9-1.5-2.5-2.3
		c-0.4-0.5-0.9-0.7-1.5-0.3c-0.6,0.3-0.7,0.9-0.5,1.5c0.2,0.4,0.4,0.9,0.7,1.3c2.1,3.6,4.5,7,6.8,10.4c0.9,1.3,2,2.2,3.4,3
		c2.1,1.1,4.3,2,6.6,2.8c2.6,0.9,4.7,2.2,6.3,4.5c1,1.4,1.9,2.8,2.7,4.2c0.8,1.3,1.9,1.8,3,1.4c1.3-0.4,1.5-1.5,1.5-2.7
		c0-1.3-0.2-2.5-0.7-3.7c-0.9-2.3-1.5-4.8-1.4-7.2c0.1-2.1,0.3-4-0.3-6c-0.1-0.2,0-0.5,0-0.7C346,577.8,345.2,576.3,344.1,574.8z"/>
	<path class="st4" d="M357.4,260.9c-2.3-1.5-4.8-0.2-5,2.5c-0.1,0.9,0,1.8,0,2.6c0.1,1.5-0.5,2.7-1.3,3.8c-1,1.3-1.5,1.2-2.4-0.1
		c-1.7-2.7-3.4-5.4-5.7-7.6c-3.8-3.6-8.6-5-13.5-4c-5.8,1.2-10.8,4.1-14.6,9c-3.2,4.1-5.6,8.7-8.6,12.9c-1,1.4-1.7,2.9-2.4,4.4
		c-0.9,2-1.6,4-1.4,6.2c0.1,0.8,0.2,1.5,1,1.7s1.6,0.2,2.2-0.5c0.3-0.3,0.5-0.6,0.7-1c1.9-2.7,4.3-5,6.6-7.2
		c0.6-0.6,1.4-1.1,2.3-1.2c3-0.5,5.9-1.3,8.9-1c4.6-0.4,8.6,1.3,12.3,3.6c1.9,1.2,3.8,2.4,6.1,2.6c1.3,0.1,2.1,0.4,2.8,1.6
		c1.3,2.2,4.2,3.1,6.7,2.5c4.1-1,6.2-4,6.5-8.9c0.2-3,0.7-5.6,2.1-8.2c1.8-3.5,1.6-7-0.3-10.5C359.6,262.8,358.6,261.7,357.4,260.9z
		"/>
	<path class="st4" d="M460.8,299.1c-1.2-0.2-2,0.7-2.7,1.6c-2.9,3.8-6.5,6.8-10.2,9.7c-2.1,1.7-4,3.5-4.3,6.4
		c-0.2,2.5-0.8,5-0.6,7.6c0.2,2.2-0.1,4.3-0.7,6.4c-0.6,2.2-1,4.5-1.5,6.8c-0.1,0.5-0.2,1,0.1,1.4c0.6,0.7,0.7,1.6,0.7,2.5
		c0,0.3,0.1,0.6,0.5,0.8c0.4,0.2,0.8,0,1.1-0.3c0.5-0.6,0.8-1.5,1.5-1.8c1.4-0.6,2-1.8,2.3-3.2c0.3-1.3,1-2.2,2.1-3
		c5.2-3.8,9.1-8.5,10.4-14.9c0.2-0.9,0.6-1.6,1.1-2.4c0.7-1.1,1.4-2.3,1.6-3.7c0.7-3.6,0.2-7.3,0.9-10.9
		C463.5,300.3,462.5,299.2,460.8,299.1z"/>
	<path class="st4" d="M554.7,339.9c-1.4-3.2-2.9-6.4-4.5-9.5c-0.9-1.6-1.2-3.3-0.4-5c0.4-0.7,0.4-1.5,0.4-2.9c0-0.4,0-1.2-0.5-2
		c-1.1-1.7-2.4-3.2-4.2-4.2c-5.3-3-10.7-5.6-15.5-9.4c-0.7-0.6-1.7-1-2.6-1.3c-2.4-0.8-5.1,1.3-4.5,3.7c0.4,1.9,1.1,3.6,2.8,4.8
		c3.5,2.6,6.3,5.8,8.2,9.8c1.4,3.1,3,6,4.8,8.8c1.4,2.1,2.9,4.3,5.9,4.4c0.5,0,0.9,0.4,1.2,0.7c1.9,2.2,4.7,2.9,6.9,4.7
		c0.3,0.2,0.8,0.3,1.1,0.3c1.2,0,1.7-0.7,1.3-1.9C555.1,340.6,554.9,340.3,554.7,339.9z"/>
</g>
<g>
	<path class="st5" d="M645.4,562.4c1.7-2.3,3.2-4.8,4.7-7.2c4.8-7.9,8.8-16.1,10.8-25.2c1-4.8,1.9-9.7,2.6-14.6
		c0.3-1.8,0.6-3.5,0.8-5.3c-2.6,3-5.3,5.8-8,8.7c-0.3,0.4-0.6,0.9-1.4,0.7c0.4-2,0.8-4,1-6c0.2-2.3,1.1-4.3,2.5-6.1
		c2.1-2.9,4.2-5.8,5.9-9c3.5-6.6,7.3-12.9,11.5-19.1c0.8-1.1,1.4-2.3,1.7-3.7c1.8-6.5,4.5-12.7,7.1-18.9c1.5-3.5,3.4-6.9,5.6-10
		c2.6-3.8,5.6-7.4,8.7-10.9c2.1-2.4,4.2-4.9,5.6-7.8c3.3-7.2,7-14.2,9.5-21.7c4.1-12.1,7.2-24.4,11.1-36.5
		c1.7-5.2,1.2-10.6,0.3-15.9c-0.4-2.3-1-4.3-3.2-5.6c-1.2-0.7-2.1-2-2.8-3.2c-1.9-2.9-2.7-6.1-3.1-9.5c-0.1-0.9-0.2-1.9-0.3-2.7
		c-0.7-0.2-0.8,0.4-1.1,0.6s-0.5,0.4-0.9,0.2c-0.4-0.2-0.5-0.6-0.4-1c0.1-0.3,0.2-0.6,0.3-0.9c1.9-6.9,0.7-13.5-1.7-19.9
		c-0.8-2.3-2.5-3.6-4.7-4.4c-3.6-1.2-7.2-1.5-10.9-1.1c-2.9,0.3-5.6,1.4-8.1,2.8c-3.7,2-7.6,2.4-11.6,1.3c-1.6-0.4-3.3-0.7-4.9-1.1
		c-8.3-1.9-20.8,3.5-23,12.9c-0.2,0.9-0.7,1.7-1.8,1.5c-0.4,0-0.7-0.2-0.9-0.4c-1.3,2.5-3,4.9-5,7c-1.8,1.9-3.9,3.4-6.6,3.6
		c1.3,1.1,2.5,2.4,3.5,4c1.7,2.5,2.4,4.2,2.2,7.2c-3.9-2.1-8-3-12-4.1c-3.7-1-6.7-0.3-9.3,2.6c-2.4,2.6-5.2,4.7-8.3,6.5
		c-0.8,0.5-1.5,0.9-2.1,1.6c-0.5,0.6-1.1,1-1.8,1.2c-3.7,1.2-7.1,3.2-11.3,3.8c0.7,1.4,2,1.7,3,2.3c0.6,0.4,1.5,0.6,1.2,1.5
		c-0.3,0.8-1.1,0.9-1.8,0.8c-5-0.8-10-1.6-13.5-5.8c-0.6-0.7-1.2-1.3-1.8-2c-1,0-2.1,0.1-3.1,0.1c-6.4,0.3-10.4,3.7-12.4,9.5
		c-0.2,0.7-0.1,1.5-0.8,2c-0.9-0.1-1.6-0.7-2.4-1c-1.5-0.6-3.1-1-4.7-0.8c-0.1,0-0.1,0-0.2,0c0,0.1,0,0.2,0,0.2
		c-0.3,0.9-0.1,1.5,0.9,1.8c2.7,0.7,4.4,2.6,5.8,5c3.3,5.7,6.5,11.4,7.6,18c0.2,1.5,0.3,3,0.2,4.5c0,0.4-0.2,0.8-0.7,0.8
		c-0.4-0.1-0.4-0.4-0.5-0.7c-0.7-5-2.9-9.2-6.5-12.8c-0.8-0.8-1.5-1.7-2.2-2.6c-2.4-3.1-5.8-4.7-9.2-6.3c-0.5-0.2-1.1-0.2-1.6-0.3
		c-1.3-0.2-2.7-0.3-4-0.6c-2.9-0.6-3-0.9-3-3.7c0-1.1-0.1-2.2-0.4-3.3c-0.2-0.9-0.4-1.8-0.7-2.6c-0.3-0.3-0.6-0.6-0.8-0.9
		c-2.4-2.8-5.3-5.1-8.6-6.8c-1.4-0.7-2.7-1.7-3.8-2.8c-1.1-1.1-2.3-2.3-3.4-3.4c-3.9-4-8.5-6.4-13.9-7.5c-3.5-0.7-7.2-0.7-10.7-1.5
		c-7.3-1.7-14.6-1.7-22-1.2c-6.8,0.4-13.2,2.3-18.6,6.8c-3.5,2.9-6.7,6-8.7,10.1c-1.9,3.7-4.8,6.3-8.3,8.4c-1.2,0.7-2.5,1.4-3.7,2.2
		c-1.1,0.7-2.1,1.5-3,2.3c0.2,2.5,0.7,5,1.3,7.4c0.7,2.5,0.3,5.3-1.1,7.6c-1.4,2.3-3,4.5-5.2,6.2c-1.3,0.9-2.5,2-3.7,3.1
		c-1.7,1.5-2.8,3.2-3.4,5.4c-0.4,1.5-1.1,2.8-2.1,4c-1.2,1.3-2.7,2-4.5,2c-2.9-0.1-5.2-2.3-5.5-5.3c0-0.5,0-0.9,0.1-1.4
		c-1.1-0.5-2.1-1.1-3.1-1.8c-7.7-6.4-11.6-14.7-11.8-24.7c0-0.1,0-0.3,0-0.4c-2,1.5-4.4,2.7-7.1,3.4c-2.1,0.5-4.2,1.1-6.3,1.3
		c-0.8,0.1-1.7,0-2-0.9c-0.4-1,0.3-1.6,1.2-2.1c1.8-0.9,3.7-1.8,5.5-2.8c0.9-0.5,1.9-0.9,2.4-2.4c-4.6,0.5-8.6-0.5-12.5-2.4
		c-7.9-3.8-12.6-10.3-15.2-18.5c-0.1-0.4-0.2-0.9-0.3-1.4c-2.9-2.4-5.2-5.4-7-8.9c-1.1-2.3-2.1-4.7-3.2-7c-2.4-5.5-5.7-10.2-10-14.2
		c-0.1,0.1-0.1,0.1-0.2,0.2c-0.7,0.4-1.2,0.1-1.7-0.4s-1.1-0.9-1.6-1.5c-1.1-1.3-2.5-1.8-4.2-1.9c-3.5-0.3-7,0.1-10.5,0.2
		c-6.1,0.3-11.1,2.7-13.8,8.6c-1.2,2.6-2.8,5.1-4.7,7.2c-3.6,4.1-7.2,8.2-10,12.9c-1.3,2.2-3.3,3.3-5.9,3.8
		c-2.9,0.5-5.2,2.2-6.6,4.6c-1.4,2.2-2.5,4.6-3.8,7c-0.8,1.6-1.4,3.2-1.7,5c-0.5,3,0.1,5.7,2.3,8c0.8,0.9,1.7,1.7,2.5,2.6
		c2,2,2.9,4.3,3,7.1c0,1.2,0,2.4-0.1,3.6c-0.4,6.4,1,12.4,4.7,17.7c3.9,5.7,8.5,10.6,13.7,15c1.2,1,2.5,1.7,4,1.9
		c3.4,0.5,5.9,2.4,7.6,5.3c2.1,3.4,4.3,6.7,6.3,10.2c1.1,1.8,2.4,3.1,4.4,3.8c3.2,1.1,4.5,2.5,7-2.5c1.5-3,4.7-4.5,7.8-3.9
		c1.7,0.3,1.8,0.5,1.8,2.2c-0.1,2.4-0.2,4.8,0.1,7.2c1.2,9.6,3,19.1,6.1,28.3c2.4,7.1,4.9,14.2,7.4,21.3c0.2,0.7,0.7,1.4,0.6,2.3
		c-0.7-0.3-0.9-0.8-1.3-1.3c-2.5-3.4-5.1-6.6-7.7-9.8c-1.8-2.2-4-4.2-5.4-6.7c-1.3-2.2-3.1-3.6-5.2-4.8c-3-1.8-6-3.7-9.3-5
		c-6.3-2.6-10.2-7-12-13.7c-1.2-4.7-4.1-8.7-7.7-12c-3-2.8-6-5.5-8.6-8.6c-0.7-0.9-1.6-1.6-2.7-1.9c-4.8-1.5-8.6-4.4-12-8.1
		c-3.5-3.9-7-7.9-9.5-12.6c-0.4-0.7-0.7-1.5-1.8-1.9c0.1,0.6,0.1,1,0.2,1.4c0.5,4.6,2,9.1,2.8,13.6c0.9,5,1.7,10.1,3.3,15
		c3.3,9.9,6.9,19.6,11.3,29c1.4,3,3.1,5.8,5.3,8.2c3.5,4,6.9,8,10.7,11.7c3.7,3.7,6.8,7.8,9.1,12.6c1.1,2.3,2.5,4.5,4,6.5
		c3.9,5.4,7.8,10.8,11.8,16c5.3,6.7,10.6,13.5,15.8,20.2c1,1.3,1.3,2.1,0.9,2.7c0.5,0.9,1,1.8,1.3,2.8c2.7,8.1,7.1,15.4,10.8,23
		c0.5,0.9,0.9,1.8,1,2.9c0.5,6.3,2.7,12,6,17.3c1,1.7,0.9,1.9-0.9,2.4c-1.1,0.3-2.2,0.3-3.3,0c-0.8-0.2-1.5-0.6-2.2-0.9
		c-1.4-0.5-2.9-0.5-4,0.6s-1.4,2.4-1,4c0.2,0.6,0.4,1.2,0.6,1.8c0.5,1.2,0.7,2.5,0.6,3.8c-0.3,5-0.1,10.1,0.2,15.1
		c0.3,5.3,1.6,10.3,4,15c1,2.1,2.1,4.1,3.2,6.2c0.8,1.6,1.4,3.3,1.7,5c0.7,0.5,1.3,1,1.9,1.6c0.7,0.7,1.4,1.5,2.4,1.9
		c1.3,0.5,2.1,1.7,2.9,2.8c2.5,3.6,5.1,7.2,7.6,10.9c0.3-0.4,0.7-0.8,1.3-1.1c0.7-0.3,1.3-0.5,2.1-0.3c1.7,0.4,3,1.4,4.3,2.5
		c1.2,1.1,2.4,2.1,3.6,3.2c4,3.5,8.7,5.8,13.8,6.8c3.9,0.7,8,0.5,11.9-0.3c1.3-0.3,1.6-0.8,0.8-2c-1.8-3.1-3.6-6.3-5.1-9.5
		c-2.9-5.8-3.8-11.9-2.7-18.4c0.3-2,0.7-4.1,0.6-6.2c-0.2-3.4,0.6-6.7,1.2-10c0.2-1.5,0.1-2.7-0.5-3.9c-0.6-1.4-1.5-2.7-2.4-3.9
		c-0.8-1-1.6-2-2-3.2s-0.6-2.4-0.4-3.6c-1.9-2.1-3.4-4.4-4.6-7.1c-1-2.3-2.1-4.5-3-6.8c-3.4-8.1-8.1-15.4-13.8-22.1
		c-0.6-0.7-1.3-1.2-2-1.6c-4.4-2.3-7.1-6.4-10-10.2c-0.4-0.5-0.7-1.1-0.3-1.8c0.6-0.7,1.2-0.3,1.9-0.2c4.3,0.6,7.4,3.2,10.5,5.8
		c1.4,1.1,2.9,2,4.7,2.2c1,0.1,1.9,0.5,2.7,1c0.3,0.2,0.6,0.4,0.9,0.6c-3.1-3.9-5.3-8.4-6.3-13.8c-0.8-4.3-1.2-8.6-0.9-12.9
		c0.2-4.5-2.1-7.5-5.4-10c-1.3-1-2.9-1.7-4.5-2.3c-6.9-2.7-11.9-7.4-15.1-14c-0.7-1.4-1.5-2.7-2.3-3.9c-0.8-1.2-0.7-2.2,0-3.1
		c0.7-0.7,2-0.9,3.1-0.4c1.1,0.6,2.2,1.3,3.3,1.9c3,1.6,6.3,2.3,9.6,2.7c2.4,0.3,4.7,0.8,7.1,1.3c0.3,0.1,0.6,0.1,0.9-0.1
		c0-0.6-0.4-1-0.7-1.5c-7.3-11-14-22.3-21-33.5c-3.2-5.1-5-10.9-6.8-16.6c-2.1-6.6-3.3-13.3-4.6-20c-0.3-1.3-0.4-2.5-0.5-3.8
		c-0.1-1.9-0.8-3.6-1.9-5.1c-0.5-0.7-0.9-1.5-1.2-2.3c-3.3-7.9-6.4-15.9-10.2-23.5c-0.2-0.4-0.3-0.7-0.5-1.1
		c-0.9-1.7-1.3-1.7-2.7-0.6c-0.9,0.7-1.8,1.5-2.8,2.3c-2.5,1.9-5.2,2.2-8.1,0.6c-5.5-3.1-8.5-7.7-8.8-14.1
		c-0.2-4.3,0.8-8.2,3.9-11.4c0.5-0.5,0.8-1.2,1-1.9c2-7.4,7.4-11.1,14.3-13.1c3.2-0.9,6.5-1,9.6,0.3c0.2,0.1,0.5,0.1,0.7,0.2
		c2.3,2,5,1.9,7.7,1.7c8.4-0.4,14.5,6.3,16.1,13.5c0.4,1.7,0.2,3.3-0.4,4.8c1.4,0.4,2.8,1.1,4,2.1c1.8,1.5,3.8,2.9,5.4,4.7
		c1,1.1,1.8,2.2,2.4,3.6c0.4,0.9,0.4,1.7-0.4,2.4c-0.8,0.7-1.7,0.5-2.4-0.1c-1.6-1.1-3.2-2.1-5-2.8c-0.7-0.3-1.4-0.5-2.1-0.6
		s-1.4,0-1.9,0.6c-0.1,0.5,0.2,0.7,0.5,0.9c3.8,3.2,5.8,7.4,6.4,12.2c0.2,1.7,0.6,3.2,1.5,4.7c2.4,4.2,4.3,8.8,6.1,13.3
		c5.4,13.4,12.2,25.9,21.6,36.9c5.3,6.2,11.6,11,18.7,14.8c17.8,9.8,36.4,11,55.7,4.9c2.9-0.9,5.9-1.4,8.6-2.9
		c1.4-0.8,1.4-1,0.7-2.4c-0.4-0.9-1-1.1-1.9-0.7c-2.8,1.2-5.7,1.3-8.7,0.5c-1.7-0.5-3.5-0.6-5.2-0.4c-2.9,0.3-5.7,0.1-8.5-0.9
		c-0.9-0.3-1.9-0.4-2.8-0.6c-0.4-0.1-0.8-0.2-1.2-0.3c-0.4,0.1-0.7,0.2-1.1,0.2c-1.7,0.3-3.3-0.2-4.9-0.7c-1.8-0.5-3.5-0.9-5.3-1.2
		c-2.4-0.4-4.7-1.2-6.7-2.5c-2.9-1.8-5.9-3.5-8.5-5.8c-0.9-0.8-2-1.2-3.2-1.6c-6.5-1.8-12.1-5.3-17.1-9.7c-2.4-2.1-4-4.9-5.7-7.6
		c-2.1-3.3-4.4-6.5-5.3-10.4c-0.1-0.5-0.3-0.9-0.3-1.4c0-0.3,0-0.6,0.1-1.5c2.4,2.8,4.4,5.1,6.4,7.5c5.5,6.9,12.5,11,21.3,12
		c2.8,0.3,5.4,0.2,7.9-0.9c2.1-0.9,4.3-0.9,6.6-0.3c2.8,0.8,5.7,0.4,8.6,0.5c0.4,0,0.9-0.2,1.4-0.4c1.7-0.7,3.4-0.9,5.2-0.8
		c-0.5-0.5-1.1-1-1.6-1.5c-5.6-4.6-8.9-10.6-10.7-17.5c-0.8-3.1-0.8-6.2-0.6-9.3c0.2-3.2,0.3-6.4-0.1-9.6c-0.4-2.8,0.1-5.6,1.3-8.2
		c2.4-5.2,5.7-9.6,10.2-13.2c3.8-3,7.8-5.6,12-7.8c3.7-1.9,7.7-2.7,11.7-3.5c8.3-1.5,16.7-1.7,25,0.1c10.1,2.2,19.2,6.6,26.8,13.7
		c1.5,1.4,3,3,3.9,4.8c1.9,3.8,3.9,7.5,5.4,11.5c0.8,2.2,1.2,4.5,1.1,6.8c-0.2,6.7-0.9,13.4-2.8,19.9c-1,3.3-2.5,6.2-4.8,8.7
		c-0.5,0.6-1,1.1-1.4,1.7c0.5,0.1,1.1,0.2,1.7,0.4c1.3,0.5,2.5,1,3.7,1.6c1.9,1,3.8,1,5.8,0.7c8-1.2,15.1-4.7,21.9-8.7
		c1.4-0.8,2.8-1.5,4.1-2.3c2.3-1.3,4.5-2.7,6.3-4.8l0.1-0.1c0.1-0.1,0.2-0.2,0.3-0.2s0.2-0.1,0.3-0.1s0.1,0,0.2,0
		c0.1,0,0.2,0.1,0.3,0.2c0.2,0.1,0.3,0.3,0.3,0.5s0,0.4-0.1,0.6c-0.1,0.4-0.3,0.7-0.4,1.1s-0.3,0.7-0.6,1c-0.7,1-1.3,2-1.9,3
		c-1.9,3-3.8,5.9-6,8.7c-0.3,0.4-0.6,0.8-0.9,1.1c-6.2,6-12.3,12.1-19.6,16.8c-5.7,3.7-11.9,6.2-18.5,7.5c-1.8,0.4-3.7,0.6-5.5,0.7
		c-0.3,0.1-0.6,0.3-0.9,0.4c-5,1.6-10,2.9-15.2,2.8c-4,0-7.8-0.5-10.7-3.3c-0.6,0-0.7,0.2-0.8,0.4c-1.9,4.4-1.9,3.4,2.1,4.6
		c7.6,2.3,15.3,4.1,23.1,5.3c2,0.3,4,0.2,5.9-0.5c2.3-0.8,4.6-1.3,7-1.5c3.4-0.3,6.6-1.4,9.6-2.8s6-3,9.1-4.4
		c9.2-4.4,17.1-10.5,24.1-18c6.3-6.7,12.4-13.6,17.2-21.5c2.3-3.8,3.9-7.9,5.6-11.9c0.3-0.8,0.5-1.7,0.5-2.6
		c0.6-6.1,2.5-11.7,5.9-16.8c0.8-1.2,1.2-2.3,0.4-3.7c-0.9-1.6-1-3.3-0.6-5.1c0.2-0.6,0.4-1.3-0.2-1.8c-0.7-0.5-1.4-0.1-2,0.2
		c-0.3,0.1-0.6,0.3-0.8,0.5c-2,0.9-3.4,0.3-4.3-1.6c-0.2-0.4-0.3-0.9-0.6-1.3c-1.3-2.7-0.6-5.5,2.1-7c1.3-0.8,2.5-1.7,3.7-2.6
		c2.2-1.7,4.4-3.2,6.8-4.5c0.2-0.6,0.3-1.2,0.5-1.8c0.4-1.1,0.8-2.3,1.3-3.3c2.3-4.9,5.9-8.5,10.4-10.9c1.5-0.8,3.1-1.5,4.8-2
		c0.7-0.2,1.4-0.4,2.1-0.6c0.7-0.1,1.4-0.2,2.1-0.3c0.3,0,0.7,0,1-0.1c2.4-0.1,4.7,0.4,6.9,1.4c1.3,0.5,2.5,1.3,3.7,2.1
		c2.1,1.5,3.9,3.3,5.3,5.4c0.6,0.8,1,1.7,1.4,2.7c0.2,0.5,0.4,1,0.5,1.5c0.2,0.5,0.3,1,0.5,1.5c0.3,1,0.6,2,0.9,3
		c0.7,2.5,1.2,5,1.4,7.6c0.1,0.9,0,1.9-0.1,2.8s-0.4,1.8-0.7,2.7c-0.3,0.9-0.7,1.8-1.1,2.7c-1,2.1-2.2,4-3.6,5.7
		c-1.2,1.3-2.5,2.5-3.9,3.6c-0.7,0.5-1.5,1-2.3,1.4c-0.4,0.2-0.8,0.4-1.2,0.6c-0.9,0.4-1.7,0.8-2.7,1.1c-1,0.3-1.6,0.8-2.1,1.7
		c-0.7,1.2-1.2,2.3-1.7,3.6c-0.4,1.2-0.8,2.5-1,3.8c-0.9,6.5-2.2,13-3.1,19.6c-0.4,3.1-0.9,6.1-1.4,9.1c-1,6.1-2.3,12.1-3.9,18.1
		c-0.8,3-1.6,6-2.6,8.9c-0.9,2.9-2,5.8-3.1,8.5c-0.6,1.4-1.2,2.8-1.8,4.1c-1.2,2.7-2.6,5.4-3.9,8.1c-0.7,1.3-1.4,2.7-2.1,4
		c-1.4,2.6-2.9,5.3-4.4,7.9c-1.8,3.3-3.7,6.5-5.6,9.8c-0.4,0.7-0.8,1.4-1.1,2.2c-0.3,0.6-0.5,1.1-0.7,1.7c-0.6,1.7-1.1,3.5-1.3,5.3
		c-0.1,1.1-0.4,2.2-0.7,3.3c-0.1,0.5-0.3,1.1-0.5,1.6s-0.3,1.1-0.5,1.6c-0.6,1.8-1.2,3.6-1.7,5.4c-0.8,3-1.5,6.1-1.9,9.2
		c-0.1,0.6-0.1,1.1,0,1.6s0.1,1.1,0.2,1.6c0.1,0.5,0.3,1,0.4,1.5c0.2,0.5,0.4,1,0.6,1.5c0.3,0.6,0.5,1.2,0.7,1.9
		c0.2,0.6,0.4,1.3,0.5,1.9c0.3,1.3,0.4,2.6,0.4,3.9c0,0.9-0.4,2.6-0.9,4.2c0.1-0.1,0.1-0.1,0.2-0.2c2-1.7,4-3.4,5.9-5.1
		c3.5-3,7.4-5.6,11.3-8.1c0.5-0.4,1.1-0.8,1.7-0.9c1.3-0.2,2.2-0.7,3.1-1.5c0.5-0.4,1.1-0.8,1.7-0.3c0.7,0.5,0.6,1.2,0.4,1.9
		c-0.5,1.3-1.3,2.4-2.2,3.4c-2.4,2.9-4.8,5.8-7.2,8.7c-2.3,2.9-4.4,5.9-5.8,9.3c-3.1,7.2-6.8,14.1-10.3,21.1
		c-4.1,7.9-7.2,16.2-9.5,24.8c-0.6,2.2-1.3,4.5-2,6.7c-0.3,1-0.7,2-1.4,2.8c-0.8,0.9-1.8,1.4-3,1.1c-0.7-0.1-1.2-0.4-1.5-0.9l0,0
		c-0.8,1.6-1.8,3.1-2.8,4.6c-0.3,0.5-0.7,1-1.1,1.5c-0.6,0.8-1.2,1.6-1.9,2.4c-0.7,0.9-1.5,1.7-2.3,2.5c-1.6,1.7-3.2,3.3-4.7,4.9
		c-0.8,0.8-1.5,1.7-2.3,2.6c-0.2,0.3-0.4,0.5-0.6,0.8c-0.3,0.4-0.5,0.8-0.7,1.2s-0.3,0.9-0.4,1.4c-0.2,0.9-0.4,1.7-0.7,2.5
		s-0.6,1.7-0.9,2.5c-0.5,1.2-0.9,2.5-1.4,3.8c-0.2,0.6-0.4,1.3-0.6,1.9c-0.4,1.3-0.7,2.6-1.1,3.9c-0.5,1.9-1,3.9-1.4,5.8
		c-0.3,1.2,0,2.1,0.6,3.2c0.9,1.5,1.9,2.9,3.1,4c2,1.9,4.4,3.2,7.2,4c0.9,0.3,1.8,0.6,2.7,0.8s1.8,0.6,2.7,0.8
		c0.9,0.3,1.8,0.5,2.7,0.8c0.9,0.2,1.8,0.4,2.8,0.6c0.4,0.1,0.7,0.1,1,0.2h3.2c1.8-1.1,3.5-2.3,5.3-3.5c8.1-5.4,16.6-9.9,25.7-13.4
		c3.2-1.2,6.3-2.8,9.4-4.3c1.4-0.7,2.7-1.7,3.9-2.7c6.7-6,13.9-11.3,21-16.7c2.2-1.6,4.4-3.1,6.9-4.2c-0.8-0.5-1.7-0.8-2.7-1
		c-2-0.5-4.1-0.5-6.2-0.3c-3.8,0.3-7.5,1.3-11.2,2.5c-0.7,0.2-1.4,0.7-2.2,0.4c0-0.2,0-0.3,0-0.4c0.4-0.6,0.8-1.2,1.2-1.8
		c3.8-5.4,6.9-11.1,9.1-17.4c1.7-4.7,2.3-9.4,1.5-14.4c-0.8-5.2-2.2-10.2-3.2-15.2c-1.4-6.7-1.7-13.5,0.1-20.2
		C643.3,566.3,644.1,564.2,645.4,562.4z M646.8,441.4c0.2-1.4,0.8-2.8,1.7-3.9c0.1-0.2,0.3-0.4,0.5-0.6c-0.5,0.3-1.1,0.6-1.9,1
		c0.9-2.8,2-5,2.9-7.1c0.4-0.8,1.2-1,1.9-1.4c2-1,4-2,6-3c1-0.6,2.2-1.1,3-2c1.8-2,4.1-3,6.5-3.7c9-2.9,13.5-9.2,14-18.5
		c0.2-3.2,0.8-6.4,1.8-9.4c0.8-2.6,1.9-5.3,2.8-7.9c1.1-2.8,2-5.7,3-8.6c0.2-0.6,0.4-1.2,0.7-1.8c1-1.8,3.1-1.9,4.4-0.2
		c0.4,0.6,0.7,1.2,0.9,1.9c1.7,5.7,2.4,11.6,1.3,17.5c0,0.2-0.1,0.3-0.1,0.5c0.3,0.5,0.4,1.1,0.5,1.7c0,1,0.1,2,0.1,2.9
		c0.2,2.4,0.4,4.9,0.5,7.3c0,0.5,0,1,0,1.5c-0.2,5.1-1.1,10-3,14.6c-0.6,1.5-1.4,3.1-2.3,4.5c-1.4,2.4-3.1,4.6-5.2,6.4
		c-0.8,0.7-1.7,1.4-2.6,2c-0.5,0.3-0.9,0.6-1.4,0.9s-1,0.6-1.5,0.9c-1.5,0.9-3,1.9-4.4,2.9c-0.5,0.3-1,0.6-1.5,1c-1,0.6-2,1.3-3,1.9
		c-0.5,0.3-1,0.6-1.5,0.9c-1.1,0.6-2.1,1.2-3.1,1.7c-3,1.3-5.5,3.2-7.6,5.6c-0.7,0.8-1.4,1.6-2.1,2.4c-0.3,0.4-0.6,0.8-0.9,1.1
		c-0.3,0.4-0.7,0.7-1.1,0.9c-1.3,0.9-2.4,1.9-3.2,3.2c-0.2,0.2-0.3,0.4-0.5,0.6s-0.4,0.4-0.6,0.5c-0.3,0.2-0.7,0.3-1.1,0.3
		c-0.1,0-0.3,0-0.4-0.1c-0.1,0-0.3-0.1-0.4-0.1c-0.9-0.4-1.3-1.2-1.7-2.2c-0.8-2.7-1.2-5.5-1.3-8.3c0-0.9-0.1-1.9-0.1-2.8
		c0-0.6,0-1.1,0-1.7s0-1.1,0-1.7C646.6,442.4,646.7,441.9,646.8,441.4z"/>
	<path class="st5" d="M650.3,662.2c-0.6-2.1-0.8-4.1-0.5-6.1c-5.8,6.4-11.7,12.8-17.6,19.1c0,0.1,0.1,0.2,0.1,0.2
		c0.1,0.3,0.3,0.6,0.3,0.9c0.1,0.3,0.1,0.6,0.1,1c0,0.7-0.1,1.4-0.4,2c-0.2,0.5-0.4,1-0.5,1.4c0,0.1,0,0.1,0,0.2h15.4
		c0.2-0.1,0.4-0.2,0.6-0.4c0.9-0.6,1.7-1.3,2.5-2c0.5-0.4,0.9-0.9,1.4-1.3c0,0,0,0,0.1-0.1c0.2-0.3,0.4-0.5,0.6-0.8
		c0-0.1,0.1-0.1,0.1-0.2c-1-3.2-1.5-6.6-1.4-10.2C651,664.8,650.7,663.5,650.3,662.2z"/>
	<path class="st5" d="M584.1,184.4c1.6,2.2,3.2,4.4,4.8,6.6c2.5,3.6,5.7,6.4,9.4,8.8c1,0.6,2,1,3.1,1c4.2-0.1,8,1.2,11.7,2.9
		c1.7,0.8,3.1,1.9,4.3,3.4c1.1,1.4,2.3,2.6,3.7,3.7c4,3.2,7.1,6.9,8.7,11.8c0.9,2.8,2.8,4.7,5,6.6c3.9,3.3,8.4,5.5,13,7.5
		c0-0.3-0.1-0.6-0.1-1c-0.1-1.5-0.5-2.6-2-3.5c-3.2-1.9-4.5-5.1-4.8-8.7c-0.2-1.6-0.6-3.1-1.3-4.5c-1.1-2.3-2.1-4.7-3.1-7
		c-0.2-0.4-0.4-0.9-0.5-1.4s0-1,0.5-1.3s0.9-0.2,1.3,0.2c0.4,0.4,0.8,0.8,1.1,1.2c1.4,1.8,2.8,3.5,4.1,5.3c0.9,1.2,2,2.3,3.3,3.1
		c3.5,2.2,6.9,4.6,10.9,5.9c1.3,0.4,2.5,0.6,3.9,0.1c3.6-1.2,6.4-0.1,8.4,3.1c0.6,0.9,1,2,1.5,3c1.4,2.9,3,5.6,5.7,7.5
		c1.1,0.7,2.1,1.6,3.1,2.5c1.3-1.7,2.4-3.4,3.4-5.3c2.2-4.1,3.2-8.4,2-13c-0.3-1.2-0.2-2.3,0.3-3.5c2.9-8,7.8-14.3,15.9-17.5
		c1.4-0.6,2.8-1.4,3.6-2.7s1.4-2.6,1.9-3.9c0.1-1.7-0.6-3.4-1.8-4.6c-0.8-0.7-1.5-0.9-2.3-0.2s-1.6,1.3-2.4,2
		c-3.3,3.1-7.1,5.1-11.8,5.2c-1,0-1.4,0.5-1.7,1.3c-0.7,1.6-1.4,3.2-2.1,4.8c-1,2.3-2.3,4.4-3.8,6.4c-2.1,2.7-5.1,3.9-8.2,4.5
		c-5,1-9.9,0.2-14.3-2.5c-2.2-1.4-3.7-3.3-4.1-5.9c-0.2-1.1-0.4-2.2-0.7-3.3c-0.8-3.2-2.8-5.5-5.8-6.8c-1.7-0.7-3.4-1.3-5.1-2
		c-3.4-1.4-5.5-4-6.4-7.6c-0.9-3.4-1.1-6.8-0.2-10.2c0.2-0.9,0.4-1.9,0.5-2.8c0.1-1.7-0.2-3.2-1.5-4.4c-2.6-2.3-3.3-5-2-8.2
		c0.3-0.7,0.1-1.7,0.5-2.3c1.3-2.4,1.1-4.7-0.1-7.1c-0.8-1.7-1-3.7-1-5.6c0-1.1,0-2.2-0.1-3.4c-0.1-1.4-0.7-2.6-2-3.4
		c-1.2-0.7-2.3-1.7-3.3-2.8c-2-2.3-2.5-5-1.4-7.8c2.4-6.1,6.5-10,13.4-10.1c1.1,0,1.6-0.5,1.8-1.4c0.6-2,1.4-3.9,1.5-6
		c0.3-3.7,1.8-6.8,4.4-9.6c2.6-2.7,4.7-5.8,7-8.8c3.8-4.9,8.6-8.6,13.6-12c0.1,0,0.1-0.1,0.2-0.1c0.7-0.3,1.5-1.2,2.1-0.2
		c0.5,0.8-0.5,1.2-1,1.7c-1.8,1.7-3.6,3.4-5.4,5.1c-1.5,1.5-2.8,3-4.1,4.7c-2.3,3.1-2.7,4.1-3.6,8.6c1.8-0.7,3.2-1.6,4.5-2.6
		c3.4-2.6,6.8-5,10.4-7.4c1.5-1,2.8-2.1,4-3.4c1.4-1.6,3-3.1,4.9-4.1c1.5-0.8,2.4-2.1,3.2-3.5c2.1-3.7,5.3-6.3,9-8.4
		c1.7-1,3.3-1.3,4.7-1c0.5-2.4,0.7-4.9,0.6-7.5c0-1-0.1-1.9-0.3-2.8c-1.3-5.4-5.8-7.8-11-6.1c-1.3,0.4-2.5,1.1-3.6,1.9
		c-0.9,0.6-1.8,1.3-2.8,1.9c-6,3.9-11.6,8.3-15.8,14.1c-1.3,1.8-2.7,3.6-4,5.4c-2.7,3.8-6.1,7-9.2,10.4c-0.3,0.4-0.6,0.6-1.2,0.2
		c-2.8-1.8-3.6-1.7-6.1,0.4c-2,1.7-3.6,3.9-4.9,6.1c-2.5,4.1-4.1,8.7-4.9,13.4c-0.4,2.2-1.4,3.9-3.1,5.2c-2.4,1.8-4.7,3.7-7.3,5
		c-5.2,2.7-9.6,6.4-14.1,10c-2.4,1.9-4.5,4.2-6.2,6.6l0,0c0.5,1.5,0.5,3,0.5,4.5c0,3-0.7,5.9-1.2,8.8c-0.3,1.9,0.3,3.1,1.8,4.1
		c2.1,1.4,4.3,2.8,6.8,3.4c1.1,0.3,2.1,0.7,3.1,1.2c2.4,1.3,3.2,3.6,2.1,6.1c-0.3,0.7-0.7,1.3-0.9,1.9c-0.8,2.2-1.1,4.3-0.3,6.6
		c0.4,1,0.6,2.2,1.1,3.2c2,4.5,2.6,9.4,3.8,14.1c0.4,1.4-1,3.2-2.4,3.3c-0.9,0.1-1.3-0.5-1.6-1.2c-0.3-0.6-0.6-1.1-0.9-1.7
		c-0.1,0-0.2,0.1-0.3,0.2c-0.8,0.5-1.5,0.4-2.2,0.1c-1.9-0.8-4-1.3-6.1-1.2c-1.7,0-2.9-0.7-4-1.9c-0.9-1.1-1.8-2.2-2.7-3.4
		c-2.5-3.1-5.5-5.5-9-7.4c-4.1-2.2-8.6-2.9-13.1-3.7c-2.2-0.4-4.3-0.8-6.6-0.4C576.8,174.1,580.3,179.4,584.1,184.4z"/>
	<path class="st5" d="M693.8,105.5c-1.4,2.9-1.8,6.1-2.6,9.2c-1.5,5.7-2.7,11.5-3.5,17.4c-0.8,5.6-1,11.3-0.5,17
		c0.3,3.6,0.6,7.2,0.6,10.8c0,2.8,1.2,4.8,3.1,6.5c4.7,4.2,5.8,8.1,3.8,14.1c-0.2,0.5-0.6,1-0.3,1.6c0.5,0.3,0.9,0,1.4-0.2
		c1.1-0.4,2.3-0.7,3.5-0.8c4.5-0.6,8,0.9,9.9,4.1c1.5-4,1.4-8-0.6-11.8c-0.6-1.2-0.9-2.4-0.9-3.7c0.1-3.4-0.7-6.7-2.8-9.5
		c-0.5-0.6-0.7-1.3-0.5-2c0.8-3.8,0.8-7.8,1.2-11.7c0.6-6,0.4-11.9-1.5-17.8c-0.7-2.3-1.2-4.6-1.8-7c-1.1-4.9-2.4-9.8-3.9-14.6
		c-0.7-2.4-1.5-4.8-2.3-7.2C695.4,101.8,694.7,103.7,693.8,105.5z"/>
	<path class="st5" d="M287.2,168.8c-0.9,5.5-1.3,11-1.3,16.5c3,0.1,6,0.6,8.8,2c0.8,0.4,1.7,1,2.5,1.4c1.3,0.7,2.6,1.3,4.3,1.2
		c0.3-2-0.2-3.7-0.5-5.4c-1-5-2.1-10-2.9-15.1c-0.9-6-3.1-11.6-4.3-17.4c-1.1-5.2-2.6-10.2-4.8-15c1.4,7.2,1.5,14.5,0.3,22.2
		C288.6,162.4,287.7,165.5,287.2,168.8z"/>
	<path class="st5" d="M284,89.1c1.4,1.5,3,2.9,4.5,4.4c3.9,3.9,8.8,4.8,14,5.2c0.3-0.9-0.3-1.5-0.5-2.1c-0.6-1.4-1.1-2.9-1-4.4
		c0.1-2.2,1.9-3.3,3.9-2.4c1,0.5,1.9,1.1,2.8,1.8c3,2.2,6.2,4,9.7,5.1c3.6,1.2,6.9,2.9,10.1,5c3.3,2.1,5.7,5,6.7,8.8
		c0.8,2.7,2.3,4.9,4.5,6.6c1.8,1.4,3.4,2.9,4.7,4.8c0.4,0.5,0.7,1.1,1,1.6c0.4,0.8,0.2,1.6-0.5,2.2c-0.6,0.6-1.4,0.8-2.2,0.4
		c-0.6-0.3-1.1-0.6-1.7-1c-2.4-1.4-4.9-2.7-7.6-3.9c-1.7,5.4-3.6,10.5-4.5,16c-0.2,1.5,0.2,2.6,1.3,3.6c1.9,1.7,4.1,3,6.6,3.9
		c2.4,0.9,4.8,1.8,7.1,2.8c2.2,0.9,4.1,2.1,5.9,3.6c1,0.8,1.9,1.8,2.5,2.9c2.4,3.9,0.9,7.8-3.5,9c-2.3,0.6-4.7,0.7-7.1,0.9
		c-0.2,0.8,0.4,1.2,0.8,1.7c1.9,2.5,4,4.8,5.7,7.4c4.3,6.3,6,13.2,4.6,20.7c-0.9,4.9-3.4,9-7.6,11.8c-4.6,3.1-8.7,6.7-12.5,10.8
		c-2.8,3-6,5.5-9.7,7.4c-1.7,0.9-3.5,1.5-5.4,1.8c-2.7,0.3-5.1-0.3-6.9-2.4c-0.5-0.6-1-1-1.8-1.1c-2.8-0.7-5.1-2.3-6.9-4.5
		s-3.8-4.3-6-6.2c-2.4-2.2-3.8-5.1-5.2-8c-1.1-2.2-2.3-4.3-3.7-6.2c0.9,8.4,3,16.5,7.3,24c1.7,2.9,3.3,5.8,5,8.7
		c1.4,2.5,3.3,4.7,5.6,6.5c0.9,0.7,1.8,1.4,2.7,2c1.4-0.2,2.9,0,4.4,0.6c0.9,0.4,1.8,1,2.7,1.6c1.1,0.8,2.2,0.9,3.4,0.4
		c1.4-0.6,2.7-1.3,4.1-1.9c0.9-0.4,1.9-0.8,2.9-1.2c0.6-0.2,1.3-0.2,1.7,0.5c0.4,0.6-0.1,1-0.5,1.4c-1,1-2,2-3,3.1
		c5.5-3.1,11.5-5.5,17.6-5.1c5.5,0.3,8.7-2.9,14.1-3.9c1.3-0.3,2.7-0.5,3.9-1c1.1-0.4,1.9-1.1,2.3-2.2c0.9-2.6,2-5.2,2.9-7.9
		c1.5-4.2,3.8-7.7,7-10.8c2.2-2.1,4.7-3.9,7-5.8c3.5-2.8,6.3-6.1,7.6-10.5c1.3-4.8,4-8.7,7.4-12.1c2-2,4-3.9,5.9-6
		c1.7-2,3.9-3.3,6.3-4.3c4.5-1.8,9-3.7,13.5-5.5c1-0.4,1.9-0.8,2.8-1.3c1-0.5,1.8-1.2,1.5-2.4c-0.2-1.3-1.3-1.5-2.4-1.6
		c-1.5-0.2-3,0.2-4.5,0.2c-6.7,0.4-13.1,1.8-19.1,5c-1.4,0.8-2.8,1.5-4.2,2.3c-2.4,2.7-5,5.3-7.5,7.9c-3.1,3.2-6.5,5.9-9.9,8.7
		c-0.8,0.6-1.7,1.3-2.7,1.6c-1.1,0.3-2.1,0.2-2.9-0.7s-0.8-1.9-0.2-2.9c0.7-1.3,1.4-2.5,2.2-3.7c1.4-2,2.2-4.2,2.6-6.6
		c0.7-3.9,1.3-7.7,1.6-11.6c0.3-4.9,1.6-9.4,3.6-13.8c2.3-5.2,6.4-7.6,12-7.4l0,0c-2-1.1-3.8-2.7-5.7-4c-1.6-1-2.4-2.3-3-4.1
		c-1.3-4.2-2.9-8.3-5.8-11.8c-1.8-2.1-3.6-4.3-5.5-6.3c-2.1-2.2-4.5-4.1-7.4-5.2c-2.2-0.9-4.3-0.7-6,1c-1.8,1.7-1.7,3.8-0.8,6
		c0.4,0.9,0.9,1.9,1.3,2.8l0,0l0,0c0.1,0,0.2,0.1,0.3,0.2c0.1,0.1,0.1,0.2,0.1,0.3c-0.2,0.1-0.4,0.1-0.6,0c-0.1,0-0.1-0.1-0.2-0.1
		c-2-1-3.9-2.1-5.9-3.1c-7.7-4.1-14.1-9.6-19.2-16.7c-3.9-5.4-8.8-9.7-14.7-12.9c-5.7-3.1-10.9-7-16-11c-4.1-3.2-7.8-6.9-11.8-10.2
		c-3.9-3.3-9.4-2.4-11.8,2.1c-0.6,1.1-0.9,2.2-1.1,3.4c-0.5,3.7-0.9,7.5-1,11.2c0,1.2,0,2.3,0.1,3.5C279.7,85.7,281.9,86.9,284,89.1
		z M358.7,120.2c0.1,0,0.1,0.1,0.1,0.1v0.1C358.7,120.4,358.6,120.3,358.7,120.2z"/>
	<path class="st5" d="M539.1,217.7c-4.8,4.8-8.7,10.2-10.2,17c-0.7,2.9-2.1,5.3-4.4,7.2c-5,4.2-7.9,9.7-10.3,15.7
		c-0.1,0.4-0.3,0.7-0.4,1.1c0,0.1-0.1,0.1-0.3,0.2c-0.2-0.1-0.4-0.1-0.5-0.2c0.3,1,0.8,2.1,1.4,3.1c0.4,0.7,0.8,1.4,1.3,2
		c1.7,2.5,2.2,5.5,3.7,8c0.2,0.4,0.1,1.1,0.1,1.6c-0.1,2.8,0.2,5.6,0.5,8.4c0.2,1.5,0.6,3,1.4,4.3c0.6,1.1,1.5,1.8,2.8,2.1
		c2.3,0.5,4.6,0.4,6.8-0.3c2.3-0.8,4.6-1.4,6.8-2.1c0.3-0.1,0.7-0.2,0.8,0.1c1,2.1,2.8,3.9,3,6.4c0.1,1.8,1,3.4,2.3,3.9
		c0-0.1,0.1-0.1,0.1-0.2c2.3-5.4,5.3-10.3,8.9-14.9c2.5-3.2,5.2-6.1,8.7-8.2c3.2-1.9,6.5-2.9,10.3-2.3c0.8,0.1,1.6,0,2.4,0.1
		c6.3,0.3,12.3,1.7,17.9,4.8c4.1,2.3,7.8,5.3,11.6,8c2.1,1.5,4.3,2.8,6.9,3.3c1.1,0.2,2.3,0.4,3.3-0.1c0.7-0.6,1.1-1.3,1.2-2.4
		c0.2-1.6-0.5-2.8-1.8-3.6c-0.6-0.4-1.2-0.8-1.8-1.1c-1.5-0.8-2.8-1.8-3.8-3.2c-1.8-2.2-3.9-4-6.2-5.6c-1.7-1.2-3.3-2.3-5-3.5
		c0.2,0.3,0.3,0.7,0.3,1.1c0.1,1.1-0.8,1.6-1.7,1.2c-0.4-0.2-0.8-0.5-1.2-0.8c-3.5-3.1-7.7-4.1-12.2-4.1c-1.1,0-2.2,0-2.8,0
		c-3.9,0.1-7.1,0.1-10.3-0.8c-0.7-0.2-1.4-0.2-2.1,0.1c-1.1,0.3-2.2,0.6-3.2,1.1c-6.1,3-11.5,6.8-16.2,11.7
		c-0.2,0.2-0.4,0.5-0.6,0.7c-0.7,0.7-1.5,1-2.4,0.5s-1.1-1.4-0.7-2.3c1.1-2.8,2-5.7,3.8-8.2c1.6-2.1,3-4.3,4.4-6.5
		c1.8-2.8,4.2-5,6.8-7c2.8-2.1,5.9-2.8,9.3-2.1c0.7,0.1,1.4,0.3,2.1,0.5c4.4,1.7,8.9,3.1,13.3,4.8c-0.5-1.1-1.4-2-2.3-2.8
		c-2-1.7-4.2-3.2-6.6-4.3c-2.5-1.1-2.9-2.3-1.4-4.7c1-1.6,2.3-3.1,3.5-4.6c3.6-4.6,5.8-9.7,5.5-15.7c-0.1-1.2,0-2.4,0.2-3.6
		c0.2-1.7,0.4-1.8,2.1-1.7c1.4,0.1,2.2-0.5,2.5-1.8c-3-0.7-6.2-0.8-9.4-0.9c-1.5-0.1-3-0.1-4.6,0c-1.4,0.1-2.8-0.3-3.8-1.2
		c-1.5-1.3-3.3-1.9-5.1-2.5c-2.6-0.8-5.1-1.9-7.9-2.1C549.2,210.8,543.6,213.2,539.1,217.7z"/>
	<path class="st5" d="M552.4,298.5c-0.5,0.6-0.5,1.1,0.2,1.6c1.8,1.3,3.3,3.1,4.9,4.6c1.2,1.1,2.5,2,4.2,2.5l0.1-0.1
		c0.3-0.3,0.5-0.6,0.8-0.8c-1.2-2.5-2.3-4.7-3.2-7c-1.1-2.6-0.9-5.5-0.7-8.9C556.3,293.5,554.3,296,552.4,298.5z"/>
	<path class="st5" d="M581.6,291c1.8,0.7,4.4,0.5,5.7-2.1c0.4-0.9,0.9-1.7,1.3-2.5c0.5-0.9,0.3-1.6-0.5-2.3c-2.6-2-5.5-3.2-8.4-3.5
		c-3-0.1-4.1,1-4.1,3.7c0,0.2,0.1,0.5,0.1,0.7C576.2,288.6,578.9,289.9,581.6,291z"/>
	<path class="st5" d="M604.9,293.2c-1.7-0.4-3-0.6-4.2-1c-1.3-0.4-2.4-1.1-4-1.7c0.5,5.6-0.9,10.4-4.1,14.7
		C597.6,302.1,600.9,297.5,604.9,293.2z"/>
	<path class="st5" d="M453.2,235.4c-0.9-2.3-2.2-4.2-4-5.9c-2-2-3.9-4.2-6.1-6.1c-2.4-2.1-5.3-3.5-8.4-4.5c-0.8-0.3-1.7-0.3-2.6-0.6
		c-4.2-1.6-8.3-1-12.5,0.1c-1.7,0.4-3.3,1.2-4.8,2.1c-1.6,0.9-3.2,1.8-5,2.3c-1.4,0.3-2.6,0.3-3.7-0.2c-0.9,1.5-1.8,3-2.5,4.6
		c-2,4.9-0.4,9.2,2.8,13.1c1.1,1.3,1.1,1.3,0,2.6c-0.5,0.6-0.8,1.1-1,1.6c3.6-0.9,7.4-1,11.3-0.8c2.1,0.1,4.1,0.9,5.7,2.4
		c3.3,3.2,7.3,5.4,10.9,8.2c1.6,1.2,3,2.7,4.3,4.1c1.3,1.5,1.5,2.8,0.7,3.6c-0.8,0.8-1.8,0.6-3.3-0.8c-2.2-2.1-4.8-3-7.6-3.9
		c-3.9-1.2-8-1.7-12.1-1.5c-2.4,0-4.8,0.1-7.2,0.3c-5.7,0.5-10.1,3.7-14.8,6.5c-0.8,0.5-1.6,1.1-2.4,1.5c-1.6,0.8-3,0.7-4-0.2
		c-0.5-0.5-0.8-1.1-0.9-1.7c-0.2,0.3-0.5,0.7-0.8,1c-1.3,1.6-1.9,3.5-1.7,5.6c0.1,1.3,0.1,2.6,0.2,3.8c0.1,1.8,0.3,3.5,0.9,5.2
		c0.2,0.8,0.6,1.5,1.1,2.1c1.9-2.1,3.9-4.2,5.8-6.3c0.2-0.5,0.5-1,1-1.4c0.3-0.2,0.6-0.4,0.9-0.6l0,0c3-3.1,6.7-5.1,11-5.9
		c2.4-0.4,4.8-1.1,7.2-1.6c2.2-0.5,4.4-0.5,6.6,0.1c4.6,1.3,8.9,3.2,12.1,6.9c3.3,3.7,6.3,7.6,8.1,12.4c1.7,4.6,3.9,8.9,7.1,12.7
		c0.7,0.9,1.4,1.8,2.3,2.5c1-0.5,1.8-1.4,2.3-2.6c0.3-0.8,0.6-1.7,0.6-2.6c0-0.6,0-1.1,0.4-1.6c2-2.3,2.8-5.2,3.9-7.9
		c0.7-1.8,1.7-3.7,3.2-4.7c1.9-1.1,3.5-2.5,5.2-3.7c2-1.4,4.2-2.2,6.6-2.8c1.1-0.3,2.2-0.5,2.8-1.6c2.2-3.9,2.8-7.7,0.3-11.7
		c-0.5-0.7-0.8-1.5-1.2-2.3c-0.2-0.3-0.3-0.7-0.5-1c-0.6,0.9-1.4,1.6-2.7,1.5c-1.4-0.1-2-1.1-2.5-2.3c-0.5-1.4-1-2.7-1.3-4.1
		c-1-4-3.3-7.1-6.6-9.4C456,240.1,454.3,238,453.2,235.4z"/>
	<path class="st5" d="M387.5,290.3c2.9,2,4.5,4.9,6.8,7.1c-0.6-4-0.5-7.9,1-12.2C392.3,287,390.4,289,387.5,290.3z"/>
	<path class="st5" d="M418.3,289.8c1.4-0.8,2.8-1,4.3-0.7c1.9,0.1,3-1.4,2.2-3.1c-0.5-1.2-1.3-2.2-1.8-3.4c-1.2-2.9-3.7-3.8-6.4-4.4
		c-0.9-0.2-1.5,0.2-2.1,0.8c-2.7,2.8-2.5,7.6,0.4,10.1C416,289.9,417.1,290.5,418.3,289.8z"/>
	<path class="st5" d="M435.2,300.7c-2-2.3-3.3-4.8-4.7-7.4c-0.7,2.3-1.3,4.6-2.3,6.7s-2.5,3.9-3.8,6.3c4-0.9,7.3-2.6,10.5-4.7
		C435.1,301.2,435.2,300.9,435.2,300.7z"/>
	<path class="st5" d="M373.8,298.3c-0.6-2-2.3-2.5-4.5-1.7c-1.9,0.6-3.3,1.9-4.8,3.1c-1.3,1.1-1.3,1.5,0.1,2.5
		c2.4,1.7,3.9,3.9,4.7,6.7c3,11.3,3.3,12,11.8,20.3c2.3,2.2,4.9,3.8,8,4.6c2,0.5,4.1,0.9,6.1,1c5.5,0.3,10.8-0.8,16.3-0.6
		c0.2,0,0.5,0,0.7-0.1c1.2-0.5,2.3-0.7,2.9,0.9c0.1,0.2,0.4,0.3,0.6,0.3c3,1.2,5.6,3,8.2,4.9c1,0.8,1.8,0.6,2.5-0.2
		c2.3-2.4,4-5,3.5-8.5c-0.1-1-0.4-2-0.1-3.5c0-0.1,0-0.6,0-1c-0.1-1.8-0.5-2.1-2.4-1.8c-2.7,0.4-5.4,0.8-8.1,0.9
		c-6,0.3-11.8-1-17.5-2.7c-4.7-1.4-9.4-3.3-13.1-6.8c-0.6-0.6-1.3-1-1.9-1.5C381.3,310.4,375.9,305.7,373.8,298.3z"/>
	<path class="st5" d="M416.1,187.4c-0.5,1.2-0.9,2.4-1,3.7c-0.2,1.6,0.6,3,1.9,3.5c1.2,0.5,2.5,0.1,3.6-1.1c0.3-0.4,0.6-0.7,0.8-1.2
		c1.8-3.1,4.6-5.1,7.8-6.4c6.1-2.5,12.1-5,18.5-6.5c0.9-0.2,1.8-0.5,2.7-0.9c4.2-1.6,7-4.7,8.8-8.7c0.1-0.2,0.2-0.5,0.3-0.7
		c0.3-0.7,0.4-1.5,0.4-2.3c0-2-0.8-3.6-2.2-4.6c-0.2-0.2-0.4-0.3-0.7-0.4c-0.5-0.3-1-0.5-1.6-0.6c-0.4-0.1-0.8-0.1-1.2-0.1
		c-1.8,0-3.5,0.2-5.3,0.3c-5.3,0.2-9.6,2.2-13,6.2c-2.9,3.4-6.2,6.4-10.2,8.6C421.2,178.7,418.1,182.7,416.1,187.4z"/>
	<path class="st5" d="M515.7,169.5c0.4,0,0.8-0.1,1.2-0.2c1.7-0.3,3.3,0.1,4.9,0.9c1.5,0.8,2.9,1.7,4.2,2.8c2.4,2,4.9,3.8,7.5,5.5
		c2.5,1.6,5,3.1,7.8,4.2c3.3,1.3,6.6,1.1,9.8-0.4c3-1.4,4.1-4.2,3.2-7.4c-0.9-2.9-2.7-5-5.2-6.6c-2.7-1.7-5.4-3.4-8.1-5
		c-4.4-2.6-9-4.2-13.9-3.7c-2.6,0-4.9,0.1-7.2,0.5c-2.5,0.4-4.8,1.3-6.7,2.9c-1.6,1.3-2.1,2.9-1.5,4.4
		C512.2,168.9,513.6,169.6,515.7,169.5z"/>
	<path class="st5" d="M574.8,329.9c-0.1,0.9,0.7,1,1.3,1.1c4.9,1.3,9.9,2.6,16.1,2.7c1.4,0.1,3.8-0.3,6.2-0.6
		c7.7-1,14-4.7,18.8-10.8c1.6-2,3.1-4,5-5.8c2.1-2.1,3.5-4.6,4.1-7.5c0.9-4.4-0.4-8.7-0.8-13.1c-0.1-0.8-0.9-0.8-1.4-0.2
		c-0.3,0.5-0.5,1-0.8,1.5c-2.4,4.7-5.2,9.2-8.8,13.1c-2.6,2.9-5.3,5.8-7.9,8.7c-1.8,1.9-3.9,3.4-6.3,4.2c-6.6,2.3-13.4,3.5-20.3,4.6
		c-1,0.2-2.1-0.1-3.1-0.1C575.8,327.8,574.9,328.9,574.8,329.9z"/>
	<path class="st5" d="M826.9,662.5c-1.7-3.3-3.7-6.5-6.1-9.4c-2.4-2.9-5-5.5-8-7.9c-2.9-2.3-6.1-4.3-9.4-5.9l0,0l-4.9-2.2
		c-0.5-0.5-1.1-0.9-1.6-1.4c-1.2-1.1-2.5-2-4-2.8c-5.8-3.3-12.4-5.1-19-6.2c-3.3-0.5-6.6-0.9-10-1.1c-2.2-0.1-4.4,0-6.6-0.4
		c-2.4-0.4-4.6-1.5-7-1.6c-0.9-0.1-1.9,0-2.8,0.1c-7.6,0.8-15.3,1.9-22.6,4.2c-3.7,1.1-7.3,2.5-10.8,4.3c-3.3,1.7-6.3,4.1-9.7,5.4
		c-0.8,0.3-1.7,0.7-2.5,1c-17.6,7.6-33.4,22.4-39.5,40.9l0,0c1.6-0.3,3.5,0.3,4.8-0.8c0.5-0.4,0.8-1,1.1-1.6
		c2.8-6.1,5.6-12.5,10.4-17.2c5.9-5.8,15.2-8.1,22.1-2.8c0,0,0,0,0-0.1l0.1,0.1c0.4,0.3,0.8,0.7,1.2,1l0,0c0.1,0.1,0.3,0.2,0.4,0.3
		c0.4,0.4,0.9,0.9,1.2,1.4c0.1,0.1,0.1,0.2,0.2,0.3c-0.6,0-1.2,0-1.8,0.1c-1.3,0.1-2.5,0.5-3.7,0.9c-2.4,0.9-4.6,2.2-6.7,3.6
		c-0.5,0.4-1,0.7-1.5,1.1l-0.8,0.6l-1.4,1l-0.7,0.6l0.8-0.2c3.7-1,7.3-1,10.8,0.6c0.3,0.1,0.6,0.3,0.8,0.4c0.3,0.2,0.5,0.3,0.8,0.5
		c0.5,0.3,1,0.7,1.5,1.1c0.9,0.8,1.8,1.7,2.5,2.8c0.8,1.1,1.5,2.3,2.1,3.6l0,0c-0.1,0.4-0.2,0.7-0.3,1.1c-0.1,0.2-0.1,0.4-0.2,0.6
		v0.1c-0.1,0.4-0.1,0.8-0.2,1.2c0,0.1,0,0.2,0,0.3s0,0.2,0.1,0.3c0,0.2,0.1,0.4,0.1,0.6v-0.1v0.1c0,0,0,0,0,0.1l0,0
		c0.1,0.7,0.3,1.3,0.4,2c0.2,0.8,0.3,1.6,0.5,2.4c1,1.6,2,3.3,2.6,5.1c0.1,0.2,0.1,0.4,0.2,0.5v0.1c0,0.2,0.1,0.3,0.1,0.5l0,0
		c0,0.2,0.1,0.4,0.1,0.5s0,0.1,0,0.2c0,0.2,0.1,0.3,0.1,0.5v0.1c0,0.2,0,0.3,0.1,0.5c0,0.1,0,0.1,0,0.2c0,0.1,0,0.3,0,0.4
		c0,0.1,0,0.2,0,0.3s0,0.3,0,0.4c0,0.1,0,0.2,0,0.3s0,0.2,0,0.3c0,0.2,0,0.4,0,0.6v0.1c0,0.1,0,0.3,0,0.4l0,0c0,0.3,0,0.5,0,0.8
		c0.1,0.1,0.2,0.3,0.3,0.4c0.5,0.7,1,1.3,1.6,1.9c0.3,0.3,0.5,0.6,0.8,0.8c2.3,2,4.6,3.8,7.6,4.4c4.6,1.1,9.5-0.5,14.3-0.1
		c0.9,0.1,1.9,0.2,2.7-0.1c1.7-0.7,2.6-3.3,3.5-4.8c1.3-2.2,2.4-4.6,3.3-7c1.7-4.6,2.8-9.5,3.1-14.4c0.6-7.7-0.8-15.6-3.9-22.7
		c-1.5-3.6-3.5-6.9-5.7-10.1c-2.3-3.1-4.9-6-7.7-8.6c-0.3-0.3-0.7-0.6-1.1-1l-1.9-1.6l0,0l0,0h0.1h0.2l0.4,0.1l0.7,0.2l1.1,0.3
		l0.4,0.1l0.4,0.1l0.7,0.2c1.9,0.6,3.7,1.3,5.4,2.2c16.1,8.4,23.1,25.4,24.1,42.6c0,0.1,0,0.2,0,0.3c0,0.5,0,1,0,1.5s0,1-0.1,1.4
		c0,0.5-0.1,0.9-0.1,1.4c0,0.1,0,0.1,0,0.2c0,0.3-0.1,0.6-0.1,0.9c0,0.2-0.1,0.6-0.2,0.9c0,0.2-0.1,0.4-0.1,0.6
		c-0.4,2.9-1.4,5.7-2.3,8.4c-1,2.9-2.6,5.7-1.4,8.8c2.5,6.5,8.3,8.5,14.6,9.5c0.8,0.1,1.7,0.2,2.5,0.3c1,0.1,2.1,0.3,3.1,0.3
		c1.2,0.1,2.4,0.2,3.7,0.4c0.2,0,0.5,0,0.7,0.1c0.2,0,0.4,0,0.6,0c0.4,0,0.9,0,1.3,0v-0.1c0.5-2.4,1.8-4.6,3-6.8
		c5.3-10.3,7.4-22.7,5.7-34.4c-1.5-10.9-7.7-21-15.3-28.8c-0.7-0.7-1.6-1.7-1.4-2.8c2.7,0.7,5.6,3,7.9,4.4c2.9,1.8,5.7,3.7,8.3,5.9
		c4.8,4,9.3,9.1,10.2,15.4c1.9,12.1,5.2,12.9,3.6,25c-0.4,3.2-2.4,6.2-3,9.4c-0.9,4.5-1.2,8.8-2.9,13.1c-0.1,0.3-0.3,0.5-0.3,0.8
		c-0.1,0.3-0.2,2.6-0.8,2.4c2.2,0.7,12.7,2.8,13.3-1l0.3-2.1L814,701c2.5-14.4,2.9-28.7-3.6-42.2c-1.4-2.9-3.8-8.3-5.7-10
		c0.2,0.2,0.4,0.4,0.7,0.6c3.6,3.4,6.9,6.6,9.6,10.8c3.1,4.9,5.8,10.4,7.8,15.8c0.2,0.4,0.3,0.9,0.5,1.3c0.6,1.8,1,3.5,1.4,5.3
		c0.7,3.6,1.1,7.2,1.1,10.8c-0.1,3.6-0.5,7.2-1.3,10.7c-0.2,1.1-0.5,2.1-0.9,3.2c0.3-0.1,0.6-0.2,0.9-0.3c0.9-0.4,1.7-1,2.3-1.7
		s1.2-1.5,1.6-2.3c0.4-0.8,0.8-1.7,1.1-2.6c0.2-0.4,0.3-0.9,0.4-1.4C833.8,687.2,832.6,673.8,826.9,662.5z M709,635.2L709,635.2
		C709.1,635.2,709.1,635.1,709,635.2C709.1,635.2,709.1,635.2,709,635.2z"/>
	<path class="st5" d="M287.6,638.6c-0.8-0.4-1.6-0.7-2.5-1c-3.5-1.4-6.4-3.8-9.7-5.4c-3.5-1.7-7.1-3.1-10.8-4.3
		c-7.4-2.2-15-3.4-22.6-4.2c-0.9-0.1-1.9-0.2-2.8-0.1c-2.4,0.2-4.7,1.2-7,1.6c-2.2,0.3-4.4,0.2-6.6,0.4c-3.3,0.2-6.7,0.5-10,1.1
		c-6.6,1.1-13.1,2.9-19,6.2c-1.4,0.8-2.7,1.8-4,2.8c-0.5,0.5-1.1,0.9-1.6,1.4l-4.9,2.2l0,0c-3.3,1.6-6.5,3.6-9.4,5.9
		c-2.9,2.3-5.6,5-8,7.9s-4.4,6.1-6.1,9.4c-5.7,11.3-6.8,24.7-3.5,36.9c0.1,0.5,0.2,0.9,0.4,1.4c0.3,0.9,0.7,1.8,1.1,2.6
		c0.4,0.8,1,1.6,1.6,2.3s1.4,1.3,2.3,1.7c0.3,0.1,0.6,0.2,0.9,0.3c-0.3-1.1-0.6-2.1-0.9-3.2c-0.8-3.5-1.2-7.1-1.3-10.7
		c0-3.6,0.4-7.3,1.1-10.8c0.4-1.8,0.8-3.6,1.4-5.3c0.2-0.4,0.3-0.9,0.5-1.3c2.1-5.4,4.7-10.9,7.8-15.8c2.7-4.2,6-7.4,9.6-10.8
		c0.2-0.2,0.4-0.4,0.7-0.6c-1.8,1.7-4.3,7.2-5.7,10c-6.5,13.4-6.1,27.8-3.6,42.2l2.6,14.6l0.3,2.1c0.5,3.8,11.1,1.7,13.3,1
		c-0.6,0.2-0.8-2.1-0.8-2.4c0-0.3-0.2-0.6-0.3-0.8c-1.7-4.3-2-8.6-2.9-13.1c-0.6-3.2-2.6-6.2-3-9.4c-1.6-12.2,1.8-12.9,3.6-25
		c1-6.3,5.5-11.5,10.2-15.4c2.6-2.2,5.4-4.1,8.3-5.9c2.4-1.5,5.3-3.7,7.9-4.4c0.2,1.1-0.7,2.1-1.4,2.8c-7.6,7.8-13.8,17.9-15.3,28.8
		c-1.7,11.7,0.4,24.1,5.7,34.4c1.1,2.2,2.4,4.3,3,6.8v0.1c0.4,0,0.9,0,1.3,0c0.2,0,0.4,0,0.6,0c0.2,0,0.5,0,0.7-0.1
		c1.2-0.1,2.4-0.3,3.7-0.4c1.1-0.1,2.1-0.2,3.1-0.3c0.8-0.1,1.7-0.2,2.5-0.3c6.3-1,12.1-3,14.6-9.5c1.2-3.1-0.5-5.9-1.4-8.8
		c-0.9-2.7-1.9-5.6-2.3-8.4c0-0.2-0.1-0.4-0.1-0.6c-0.1-0.2-0.1-0.6-0.2-0.9c0-0.3-0.1-0.6-0.1-0.9c0-0.1,0-0.1,0-0.2
		c0-0.4-0.1-0.9-0.1-1.4s0-1-0.1-1.4c0-0.5,0-1,0-1.5c0-0.1,0-0.2,0-0.3c1-17.2,8-34.2,24.1-42.6c1.7-0.9,3.6-1.6,5.4-2.2l0.7-0.2
		l0.4-0.1l0.4-0.1l1.1-0.3l0.7-0.2l0.4-0.1h0.2h0.1l0,0l0,0l-1.9,1.6c-0.4,0.3-0.7,0.6-1.1,1c-2.9,2.6-5.5,5.5-7.7,8.6
		c-2.3,3.1-4.2,6.5-5.7,10.1c-3.1,7.1-4.5,15-3.9,22.7c0.4,4.9,1.4,9.8,3.1,14.4c0.9,2.4,2,4.8,3.3,7c0.9,1.5,1.9,4.1,3.5,4.8
		c0.9,0.4,1.8,0.2,2.7,0.1c4.8-0.4,9.6,1.1,14.3,0.1c3-0.7,5.3-2.5,7.6-4.4c0.3-0.3,0.5-0.6,0.8-0.8c0.5-0.6,1.1-1.3,1.6-1.9
		c0.1-0.1,0.2-0.3,0.3-0.4c0-0.3,0-0.6,0-0.8l0,0c0-0.1,0-0.3,0-0.4v-0.1c0-0.2,0-0.4,0-0.6c0-0.1,0-0.2,0-0.3s0-0.2,0-0.3
		s0-0.3,0-0.4c0-0.1,0-0.2,0-0.3s0-0.3,0-0.4c0-0.1,0-0.1,0-0.2c0-0.2,0-0.3,0.1-0.5v-0.1c0-0.2,0.1-0.3,0.1-0.5c0-0.1,0-0.1,0-0.2
		c0-0.2,0.1-0.4,0.1-0.5l0,0c0-0.2,0.1-0.3,0.1-0.5v-0.1c0.1-0.2,0.1-0.4,0.2-0.5c0.6-1.8,1.7-3.4,2.6-5.1c0.2-0.8,0.4-1.6,0.5-2.4
		c0.1-0.7,0.3-1.3,0.4-2l0,0v-0.1v0.1c0-0.2,0.1-0.4,0.1-0.6c0-0.1,0-0.2,0.1-0.3c0-0.1,0-0.2,0-0.3c0-0.4-0.1-0.8-0.2-1.2V679
		c0-0.2-0.1-0.4-0.2-0.6c-0.1-0.4-0.2-0.7-0.3-1.1l0,0c0.6-1.2,1.3-2.5,2.1-3.6c0.7-1,1.6-1.9,2.5-2.8c0.5-0.4,1-0.8,1.5-1.1
		c0.3-0.2,0.5-0.3,0.8-0.5s0.5-0.3,0.8-0.4c3.5-1.6,7.1-1.6,10.8-0.6c0.1,0,0.8,0.2,0.8,0.2l-0.7-0.6l-1.4-1l-0.8-0.6
		c-0.5-0.4-1-0.7-1.5-1.1c-2.1-1.4-4.3-2.7-6.7-3.6c-1.2-0.4-2.4-0.7-3.7-0.9c-0.6-0.1-1.2-0.1-1.8-0.1c0.1-0.1,0.1-0.2,0.2-0.3
		c0.4-0.5,0.8-1,1.2-1.4c0.1-0.1,0.3-0.2,0.4-0.3l0,0c0.4-0.4,0.8-0.7,1.2-1l0.1-0.1v0.1c7-5.4,16.2-3,22.1,2.8
		c4.8,4.7,7.6,11.1,10.4,17.2c0.3,0.6,0.6,1.2,1.1,1.6c1.3,1,3.2,0.4,4.8,0.8l0,0C321,661,305.2,646.1,287.6,638.6z M280.5,635.1
		l0.1,0.1l0,0C280.6,635.2,280.5,635.2,280.5,635.1z"/>
</g>
</svg>
