<?xml version="1.0" encoding="utf-8"?>
<!-- Generator: Adobe Illustrator 24.0.1, SVG Export Plug-In . SVG Version: 6.00 Build 0)  -->
<svg version="1.1" id="New_group_1_" xmlns="http://www.w3.org/2000/svg" xmlns:xlink="http://www.w3.org/1999/xlink" x="0px"
	 y="0px" viewBox="0 0 990 781.2" style="enable-background:new 0 0 990 781.2;" xml:space="preserve">
<style type="text/css">
	.st0{fill:#E4706A;}
	.st1{fill:#845C1A;}
	.st2{fill:#535458;}
	.st3{fill:#FFFFFF;}
	.st4{fill:#C4A669;}
</style>
<g>
	<path d="M148,749.2c-0.8,0.9-0.9,1.7-1,2.5c-0.7,5.2-3.2,9.5-6.4,13.5c-1.5,1.9-3.6,2.4-5.9,1.9c-6.8-1.6-12.9-4.7-17.7-10
		c-1.4-1.6-2.8-3.3-4.4-4.8c-3.9-3.9-6.7-8.6-9.7-13.1c-0.8-1.2-1.7-2.1-2.9-2.8c-1.8-1.1-3.5-2.3-5.2-3.4c-2.5-1.7-4.7-3.6-6.6-5.9
		c-2.5-3-5.1-5.9-7.3-9.2c-2.2-3.4-4.2-6.8-5.3-10.7c-1.2-4.1-2.6-8.1-3.3-12.3c-1.1-6.3-0.9-12.6-0.3-18.9
		c0.6-7.3,1.9-14.4,4.1-21.4c2.9-9.2,7.9-16.9,15.2-23.1c8.3-7.1,16.9-13.9,25.8-20.4c12.3-9,26-14.9,41-17.9
		c4.6-0.9,9.1-1.7,13.7-2c2-0.1,2.1-0.4,1.3-2.1c-0.8-1.7-1.5-3.5-2.1-5.4s-0.2-3.5,1.2-4.8c0.4-0.4,0.8-0.8,1.2-1.1
		c7.8-6.5,12.6-14.8,14.6-24.7c1.3-6.1,2.4-12.2,3.7-18.3c1.7-8.5,3.6-16.9,6.7-25c0.7-1.8,0.6-3.4-0.2-5.1
		c-2.1-3.9-3.4-8.1-4.3-12.4c-0.4-2-1.3-3.5-3.2-4.5c-0.6-0.3-1.1-0.7-1.5-1.1c-1.8-1.8-3.9-2-6.2-1.3c-0.6,0.2-1.2,0.3-1.8,0.5
		c-9.4,3.2-18.3,1.8-26.9-2.8c-15-8-26.5-19.6-35.1-34.2c-2.7-4.6-4.6-9.7-6.4-14.7c-3.4-9.5-5.6-19.4-7.2-29.3
		c-1.2-7.3-2.7-14.5-3.6-21.8c-0.9-6.9-0.9-13.7,0.4-20.5c0.5-2.7,0.5-5.3-0.9-7.9c-1.2-2.3-1.3-5-1-7.5c0.3-3.3,0.3-6.6,0.3-9.8
		c-0.1-17.1,2.6-33.8,7.6-50.1c3.1-10,6.9-19.8,9.9-29.8c4.3-14.3,10-28,15.9-41.7c6.2-14.4,14.5-27.6,24-40
		c6.3-8.2,13.4-15.7,21-22.6c9.3-8.4,18.5-16.8,28.4-24.4c11.1-8.5,22.6-16.2,34.7-23.1c5.2-2.9,10.2-6.3,15.4-9.4
		c1.7-1,3.5-1.9,5.2-2.9c3.8-2.1,6.3-5.6,9.1-8.8c5.1-5.7,10.1-11.3,16-16.2c5.4-4.4,11.2-8.3,17.6-11.2c9-4.1,18.1-7.6,27.9-9.4
		c4.9-0.9,9.9-0.9,14.8-0.7c2.4,0.1,4.4-0.5,6.2-2.1c3.9-3.4,8.4-5.9,12.8-8.4c13.1-7.5,27-13.2,41.8-16.6
		c8.5-1.9,17.1-3.1,25.8-3.7c8-0.6,16-0.4,24-0.3c11.4,0.2,22.4,2.3,32.8,7c1.3,0.6,2.6,0.6,3.9,0c8.4-4.1,17.4-5.4,26.7-5.8
		c6.3-0.3,12.6,0.1,18.9,0.2c5.9,0.1,11.8,1.1,17.6,1.9c8.4,1.2,16.8,2.3,25.1,3.7c6.6,1.2,12.9,3.2,19,5.7
		c7.6,3.1,15.2,6.4,22.6,10c2.9,1.4,5.9,2.9,8.6,4.7c1.6,1.1,3.3,1.4,5.2,0.9c4.4-1,8.8-1.6,13.3-1.5c11.6,0.3,22.7,2.4,33.1,7.6
		c7.7,3.8,15.2,7.8,22,13.2c4.9,3.8,9,8.4,13.1,13c7.3,8,13.9,16.5,19.5,25.8c3.1,5.1,6,10.2,8.4,15.6c2,4.4,4.6,8.2,8.2,11.4
		c7.2,6.4,13.8,13.4,19.4,21.2c8.9,12.4,16.2,25.7,21.2,40.2c3.9,11.5,6.8,23.3,9.6,35.2c0.9,3.7,1.6,7.3,2.4,11
		c0.3,1.7,1.1,3.1,2.4,4.3c6.7,5.9,12.9,12.5,19,19c3.1,3.3,6.5,6.4,9.3,10c4.9,6.2,9.1,12.7,12.3,20c0.6,1.5,1.4,2.9,2.3,4.2
		c6.8,11.2,11.5,23.2,14.4,35.9c2.2,9.7,3.9,19.4,6.3,29.1c0.8,3.2,1,6.5,1.2,9.7c0.3,4.6,0.6,9.3,1.1,13.9
		c0.7,6.6,0.4,13.3,0.4,19.9c0.1,6.7,0.1,13.4-0.5,20.1c-0.4,3.8-0.9,7.6-1.4,11.4c-1.6,10.8-3.1,21.7-4.8,32.5
		c-1.7,11-5,21.5-9.8,31.5c-3.7,7.8-8.9,14.7-15.3,20.4c-4.9,4.4-10.8,6.5-17.4,5.8c-1.7-0.2-3.1,0.6-4.3,1.7
		c-2.4,2.4-4.9,4.8-7.3,7.2c-3.9,3.8-8,7.4-13.1,9.6c-1.2,0.5-1.5,1.4-1.3,2.5c0.1,0.7,0.4,1.4,0.6,2.1c2.6,9.2,7.5,17.1,13.7,24.2
		c1.8,2,3.5,4.2,5.3,6.2c2.1,2.4,4.5,4.4,7.9,5.1c4.1,0.9,6.5,4.9,6,9.2c-0.1,0.6-0.2,1.1-0.3,1.6c-0.2,0.9,0.2,1.5,1.1,1.8
		c1.1,0.4,2.3,0.7,3.4,1.1c11.1,3.7,21.7,8.6,31.5,15.1c5.9,3.9,11.8,7.7,17.4,11.9c1,0.7,1.9,1.5,2.6,2.4
		c7,8.9,13.7,17.9,19.2,27.8c1.4,2.4,2.5,5,3.8,7.5c3.3,6.4,3.5,13.1,2.3,20.1c-1.7,9.7-4.4,19-7.9,28.1c-2.1,5.3-5.7,9.8-9.2,14.2
		c-3.9,4.9-8.5,8.8-14,11.9c-1.4,0.8-2.4,1.8-3.2,3.1c-3.9,6.7-9,12.4-14.3,18c-4.5,4.8-10.1,7.8-16.4,9.5c-3.6,1-5.4-0.1-7.7-3.1
		c-3.1-3.9-4.8-8.2-5.6-13.1c-0.2-1.4-0.6-1.5-1.7-0.6c-1.6,1.4-3,2.8-4.5,4.3c-2.1,2-4.1,4-6.6,5.5c-3.5,2.1-6.9,1.7-9.9-1.1
		c-1.2-1.2-2.1-2.6-2.7-4.2c-2-4.9-3-10-2.6-15.2c0.1-1.9-0.6-3.2-2.1-4.3c-1.9-1.3-3.8-2.3-5.9-3.2c-4.9-2.1-8.1-5.5-9.6-10.6
		c-0.1-0.2-0.1-0.5-0.2-0.7c-0.6-1.5-1.1-1.7-2.4-0.6c-1.9,1.7-3.3,3.7-4,6.1c-0.9,2.7-1.8,5.5-3.2,8c-2.5,4.7-5.8,8.7-10,12.1
		c-5,4.1-11.6,1.1-13.9-2.8c-1.9-3.3-3.1-6.8-3.7-10.6c-0.1-0.4-0.1-0.8-0.1-1.2c-0.1-3-1.7-4.8-4.3-6.1c-6.6-3.5-11.6-9-16.5-14.4
		c-0.6-0.7-1.2-1.5-1.5-2.4c-0.6-1.5-1.6-1.9-3-1.7c-0.6,0.1-1.3,0-1.9,0c-157.2,0-314.3,0-471.5,0c-0.3,0-0.6,0-1,0
		c-2.1-0.3-3.6,0.3-4.5,2.5c-0.6,1.6-2,2.9-3.2,4.2c-2.9,3-5.9,5.8-9.1,8.6c-1.6,1.5-3.5,2.5-5.5,3.5c-2.4,1.2-3.7,3-4,5.8
		c-0.4,4-1.4,7.9-3.5,11.4c-1.9,3.2-4.5,5.3-8.5,5.5c-2.3,0.1-4-0.7-5.7-2c-4.9-3.8-8.5-8.6-11-14.3c-0.8-1.8-1.4-3.6-1.9-5.4
		c-0.7-2.2-1.9-4.1-3.3-5.8c-0.3-0.4-0.7-0.7-1-1c-1.2-0.9-1.7-0.7-2.3,0.7c-0.1,0.4-0.3,0.8-0.4,1.1c-1.4,4.5-4.3,7.8-8.6,9.8
		c-2,1-4,1.9-6,3c-2.1,1.2-3,2.9-2.9,5.3c0.3,5.6-0.7,11-3.1,16.1c-0.4,0.9-1,1.8-1.7,2.6c-3.1,3.4-6.9,4-10.7,1.4
		c-2.5-1.7-4.7-3.6-6.8-5.7C151.3,752.4,149.7,750.9,148,749.2z"/>
</g>
<g>
	<path class="st0" d="M465.3,434.7c-2.7,0.7-5.4,1.8-8,2.9c-6.4,2.7-12.9,4.9-19.9,6c-2.6,0.4-3.3,1-3.5,3.6c-0.6,5-1,10.1,0.1,15
		c2.4,12,6.5,23.2,14,33.1c5.1,6.7,11.3,12.1,19.5,14.7c1.5,0.5,3.1,1,4.7,1.5c4.1,1.4,8.3,1.6,12.5,1.2c8.7-0.9,17-3.3,24.9-7.3
		c3.8-2,6.4-5,8.4-8.5c3.3-6,5.4-12.5,8-18.7c0.4-1,0.6-2.1,0.8-3.1c0.8-4.7,2.3-9.2,3.7-13.8c0.2-0.6,0.4-1.3,0.6-2
		c0.2-0.6,0.3-1.1,0.5-1.8c0.4-1.4,0.8-2.8,1.2-4.3c0.1-0.2,0.2-0.5,0.2-0.6c0.1-0.3,0.2-0.6,0.3-0.9c0.1-0.2,0.2-0.4,0.2-0.6
		c0.6-2,0-3.3-1.5-4.6c-2.2-1.7-4.6-2.9-7.1-3.9c-5.5-2.3-11.3-3.9-16.6-6.6c-0.6-0.3-1.3-0.4-1.9-0.4c-2-0.2-4.1-0.2-6.1-0.3
		c-1.8-0.1-3.5,0.2-5.1,1c-3.7,1.8-5.8,4.7-6.5,8.8c-1.6,9.1-1.4,18.1-0.4,27.2c0.6,6,1.4,11.9,1.2,17.9c-0.1,1.8-0.1,3.5-0.7,5.2
		c-1.2,2.9-4.5,3.9-7.1,2.1c-1.9-1.4-2.8-3.8-2.1-6.1c0.4-1.3,0.9-2.6,1.5-3.8c0.8-1.5,1-3.1,1-4.7c-0.1-3.2-0.2-6.5-0.2-9.7
		c-0.3-8.9-1-17.9-2.2-26.8c-0.9-7.1-1.2-6.5-6-9.7c-0.2-0.2-0.5-0.3-0.7-0.4C469.2,433.6,469.2,433.6,465.3,434.7z"/>
</g>
<g>
	<path class="st1" d="M690.7,562.1c-4.7-2.6-6.4-6.8-6.1-12c0-0.6,0.1-1,0.2-1.6c0.5-4.6,0.5-9.2,0.4-13.8c0-0.6-0.1-1.4-0.2-2
		c0-0.1-0.2-0.2-0.2-0.2c-0.2-0.2-0.5-0.2-0.7,0.2c-0.3,0.6-0.7,1.1-1,1.8c-4.1,8.4-10.1,15.4-16.6,22c-3.9,4-8.7,6.9-13.4,10
		c-2.7,1.8-4.9,3.8-6.4,6.7c-1.3,2.4-3.3,4-6,4.3c-1.7,0.2-2.3,1-2.7,2.4c-2.3,8-5.8,15.5-10,22.7c-0.7,1.2-1.4,2.4-2,3.5
		c3.7,0.7,7.4-0.1,10.9-1.6c6-2.5,10.8-6.8,15.4-11.2c5.4-5.1,9.9-11.1,14.4-17.1c0.4-0.6,0.8-1.1,1.3-1.6c0.2-0.2,0.5-0.2,0.7-0.2
		c0.2,0.1,0.4,0.3,0.4,0.6c0.1,0.6,0.2,1.4,0,2c-1,3.5-0.7,7.2-1.4,10.9c-1.1,5.9-1.8,11.7-3.5,17.5c-1.6,5.5-3.5,10.9-7,15.4
		c-1.6,2.1-3.5,3.9-5.2,5.6c-4.5,4.5-9.1,8.9-13.1,13.9c-0.2,0.2-0.3,0.5-0.5,0.6c1.4-0.9,2.8-1.8,4.3-2.5
		c6.6-3.1,12.5-7.2,17.6-12.3c0.8-0.7,1.6-1.4,2.4-2.2c3.8-3.4,7.1-7.2,9.9-11.3s5.5-8.4,8.4-12.5c3.1-4.7,5.3-9.7,6.9-15.1
		c2-6.7,3.1-13.5,4.4-20.3C692.5,563.3,691.8,562.7,690.7,562.1z"/>
	<path class="st1" d="M675.3,652.4c-1.8,0.2-3.4,0.9-4.9,1.8c-6.8,3.5-13.9,5.5-21.5,5.9c-3.4,0.2-6.8-0.2-10.1-1.4
		c-1-0.4-1.8-0.9-2.6-1.4c0.6,1,1.2,2,2.1,2.9c3,3,6.7,4.7,10.6,5.7c4.2,1,8.5,1.5,12.9,1.7c2.3,0.1,4.7,0.1,7,0.1
		c0.9-1.2,1.7-2.5,2.6-3.7c0.6-0.9,1.2-1.8,1.8-2.7c0.2-0.3,0.4-0.6,0.6-1c0.6-1,1.3-1.8,2-2.8c0.1-0.1,0.1-0.2,0.2-0.2
		c1.8-2.6,3.6-5.1,5.5-7.6c-0.5,0.2-1,0.5-1.4,0.8C678.7,651.3,677.1,652.2,675.3,652.4z"/>
	<path class="st1" d="M775.5,551.4c-0.9-3.4-1.5-6.8-1.8-10.3c-0.2-1.3,0-2.7-1-4c-2.3,0.8-4.6,1.5-6.8,2.3
		c-0.6,0.2-1.2,0.8-1.4,1.3c-1,2.1-2,4.2-1.7,6.6c0.8,5.3,0.4,10.6,0,15.8c-1,13.1-5.1,25-12.6,35.6l0.5-0.2l1.4-0.5
		c0.5-0.2,1-0.2,1.4-0.4l2.8-0.8l1.4-0.4l0.7-0.2l0.7-0.2l2.8-0.6c3.2-0.7,6.4-1.4,9.7-2c1.4-6.8,2-13.7,2-20.7
		c0-2.7,0.3-5.5-0.3-8.1c-0.5-1.8-0.3-3.8-0.5-5.6c-0.1-1.1,0.1-2.2,0.8-3.1C774.5,554.7,775.1,553.1,775.5,551.4z"/>
	<path class="st1" d="M835.3,393.9c-1-3.9-0.6-7.8-1.4-11.7c-1-4.3-1.4-8.8-2.2-13.2c-0.9-5.2-2.3-10.3-3.8-15.4
		c-2.9,1.6-6.3,1.4-9-0.6c-3-2.2-5.5-4.8-7.5-8c-1.8-2.9-4.2-4.9-7.3-6.2c-1.4-0.6-2.7-1.3-4.1-1.8c-2.7-1-5.4-0.5-7.9,0.8
		c-2.3,1.1-2.3,3.5-2.7,5.6c-0.1,0.4-0.2,0.8-0.2,1.2c-0.4,1.7,0,3.1,1.1,4.5c3.8,4.7,6.5,10,9.2,15.4c4.6,9.2,7.7,18.8,10.5,28.7
		c1.1,4.2,2.2,8.4,2.7,12.7c0.2,1.8,0.6,3.5,0.9,5.2c0.1,0.2,0.2,0.5,0.5,0.6c0.4,0.2,0.7,0,1-0.4c2.9-4.9,6.3-9.5,9.7-14.2
		c2.5-3.5,4.4-4.2,8.3-2.7c0.9,0.3,1.7,0.6,2.6,0.7C835.4,394.7,835.3,394.3,835.3,393.9z"/>
	<path class="st1" d="M240.3,282.6c-1.1-2.2-2-4.7-2.7-7.5c-3.5,4.5-6,9.5-7.4,15c-0.2,0.9-0.3,1.8-0.4,2.6c1.8,3,4,5.9,6.4,8.5
		c0.6,0.7,1.4,1.2,2.2,1.8c1.6,1.3,3.4,0.3,5.1,0.2c1.4-0.1,1.4-1.4,1.9-2.3c2.6-5.5,6-10.3,10.1-14.7c3.4-3.6,7.5-6,12.3-6.6
		c1.6-0.2,2.7-0.9,3.8-2.1c4-4.2,8.6-7.4,13.8-10.1c2.2-1.1,4.4-2.1,6.6-3.1c5.4-2.5,10.9-5,16.7-6.4c1.3-0.3,3-0.1,3.8-1.2
		c0.6-1,0.7-2.3,1-3.5c3.2-10.6,9-19.7,16.2-28c1.9-2.2,4.2-3.9,6.6-5.4c2.1-1.3,4.3-2.3,5.9-4.3c0.5-0.6,1.3-1,2-1.3
		c3.9-1.6,8-2.7,12.3-2.1c5,0.6,10,1.4,14.7,3c1.9,0.6,3.9,1.4,6,1.3c2.4-0.1,3.4-1.8,2.3-3.9c-1.7-3.1-4.3-5.2-7.6-6.5
		c-1.1-0.5-2.3-0.8-3.4-1.3c-0.1-0.1-0.2-0.6,0-0.6c0.3-0.2,0.7-0.3,1.1-0.4c4.6-0.6,9.2-1,13.8-1c11.1-0.1,20,4.3,26.9,12.9
		c1.6,2.1,3.7,3.5,5.7,5.1c0.5,0.4,1.2,0.1,1.3-0.4c0.3-3.1,0.6-6.2-1-9.2c-0.4-0.8-1.1-1.5-0.8-2.7c7.2-2.3,13.9-1.5,20.3,2.6
		c1.4,1,3,1.9,4.4,2.9c1.8,1.2,3.5,2.7,5.5,3.4c2.3,0.8,3.5,2.4,4.7,4.3c2.6,4.3,3.1,8.9,2.7,13.8c-0.4,4.2-1.2,8.4-2.7,12.3
		c-1,2.5-1,2.6,1.4,3.7c1,0.5,2,0.9,3,1.3c3.3,1.2,6.4,0.8,9.2-1.4c2.2-1.7,4.1-3.6,5.8-5.7c1.4-1.8,2.9-3.6,4.4-5.3
		c1.8-2,3.9-3.3,6.7-3.6c1.4-0.2,2.7-0.3,4-0.5c4.6-0.5,8.6,0.8,12.1,3.9c1.5,1.4,3.1,2.7,4.5,4.1c1.5,1.6,3.2,2.3,5.5,1.9
		c2.8-0.5,5.6-0.8,8.4-1.2c4.8-0.6,8.5,1.2,10.9,5.4c1.4,2.3,2.5,4.8,3.6,7.2c0.9,2,2,3.9,3.6,5.4c2.3,2.1,1.8,1.9,4.5,0.5
		c0.2-0.1,0.3-0.4,0.6-0.7c-0.2-0.4-0.4-0.9-0.6-1.4c-1.6-2.5-2.1-5.3-2.5-8.1c-0.2-1.8,0.1-3.8,1.8-4.6c2.3-1,2.3-2.6,2.3-4.6
		c0-1.8,0.1-3.5,0.2-5.3c0.3-3.3,1-6.4,2.6-9.4c0.5-1,1-1.9,1.7-2.7c2.3-2.6,5.5-1.8,6.8,1.3c0.3,0.9-0.1,1.9,0.7,2.7
		c1.1-0.8,1.7-2.1,2.4-3.2c4.2-6,8.9-11.3,14.8-15.6c1.2-0.9,2.5-1.8,3.9-2.3c2.7-1,5.3,0.7,5.5,3.6c0.1,1.5-0.1,3-0.6,4.4
		c-0.6,1.5-1.1,3.1-1.7,4.6c-0.2,0.6,0.3,1,0.9,0.9c1.8-0.5,3.5-1.3,5.2-2.2c3.2-1.8,6.7-3,10.3-3.6c4-0.7,8.1-1,12.1-0.9
		c11.1,0.5,21.9,2.4,32.1,6.8c1,0.4,1.9,0.7,2.9,0.5c-1-0.3-1.6-1.1-2.4-1.7c-7.1-5.1-14.6-9.7-22.8-12.5c-13.1-4.4-26.6-6.6-40.5-6
		c-8.3,0.4-16.1,2.3-22.9,7.3c-0.6,0.5-1.4,1-2.1,1.3c-1.4,0.6-2.9,0.7-4.3-0.3c-1.3-1-1.7-2.4-1.4-4c0.2-1,0.6-2.1,1-3.1
		c0.2-0.6,0.6-1.2,0.8-1.8c-1.9,0.6-3.6,2.2-5.1,4.2c-3.9,5.2-7.7,10.5-11.1,16c-1.2,2-2.4,3.5-5.1,2.3c-0.9-0.4-2.2-0.2-3.2-0.1
		c-2,0.2-4,0.6-6,1s-2,0.4-3.2-1.4c-1-1.6-2-3.2-3.2-4.7c-0.3-0.4-0.7-0.8-1-1.1c-0.1,0-0.2,0-0.2,0c-1.4,0.1-2.7-0.2-3.9-0.8
		c-3.6-1.9-7.2-1.9-11-0.4c-0.7,0.3-1.5,0.6-2.3,0.7c-3.5,0.7-6.8,0.2-9.3-1.8c-0.2,0.2-0.4,0.3-0.6,0.6c-2.3,2-4.7,3.7-7.1,5.4
		c-0.1,0.1-0.2,0.2-0.3,0.2c-0.3,0.2-0.8,0.2-1.2,0.2c-4,0.2-11.7-4.1-12.9-7.4c-1.2-3.6-9.9-12-12.5-13.9
		c-3.4-2.5-9.6-2.3-12.1-5.5c-1.6-2-3.4-3.9-5.5-5.3c-1,1.2-2.6,1.8-4.5,1.5c-3-0.4-6-0.9-8.8-1.4c-7.2-1.5-14.6-1.8-21.9-2.1
		c-6.7-0.2-13.4,0-19.9,0.4c-2.3,0.2-4.3,0.6-6.2,1.8c-3.1,1.8-6.1,3.5-9.2,5.2c-3.8,2.2-7.6,4.3-11.3,6.4c-3.1,1.7-6.4,2.2-9.9,1.5
		c-1.4-0.2-2.8-0.9-4-1.7c-2.7,2.8-5.8,5.3-8.8,7.7c-5.1,4.3-10,8.8-13.3,14.7c-1,1.7-2.2,2.5-4.2,2.8c-1.1,0.2-2.2,0.4-3.2,0.6
		c0.1,1.2-0.4,2.3-1.4,3.1c-0.6,0.6-1.4,0.9-2.1,1.3c-7.6,4.1-14.2,9.4-19.8,16.1c-3.1,3.8-6.4,7.5-8.9,11.7c-1.4,2.4-2.8,5-4,7.6
		c-1.4,3.1-3.6,5.1-6.8,5.9c-0.6,0.2-1.3,0.4-1.9,0.6c-2.5,0.7-4.3,2.2-5.6,4.4c-0.7,1.3-1.5,2.6-2.3,3.9c-1.1,1.7-2.1,3.7-4.5,3.6
		C242.2,286.6,241.3,284.5,240.3,282.6z"/>
	<path class="st1" d="M585,566.5c-0.1-0.2-0.2-0.5-0.3-0.7c-1.1-2.7-3.1-4.8-5.8-6c-1.2-0.6-2.4-1.3-3.5-1.9
		c-0.8-0.5-1.5-0.3-2.3,0.2c-0.7,0.6-1.4,1.3-2.2,1.8c-4.3,3.3-8.7,6.6-13.9,8.4c-1.9,0.6-2.4,1.8-2.3,3.6c0.2,1.9,0,3.8-0.1,5.7
		c-0.1,1.4-0.1,2.8-0.6,4c-1.8,3.7-1.7,7.4-1.2,11.4c0.6,5,0.2,10.1,0.2,15c0,6.1-2.1,11.7-4.5,17.2c-0.4,0.9-0.9,1.7-1.4,2.4
		c-3.2,4.5-8.7,4.1-11.2-0.8c-0.7-1.4-1.2-3.1-1.6-4.6c-2.5-9.8-7.6-18.3-13.8-26.1c-1.3-1.6-2.7-3.1-4.3-4.3
		c-0.6-0.4-1.3-0.6-1.8,0.1c-3,3.5-7.2,4.2-11.2,5.5c-3,1-5.9,0.6-8.8-0.6c-4.3-1.6-8-3.9-11.3-7.2c-1.4-1.4-2.7-2.7-4-4
		c-0.5-0.5-1-1-1.7-1c-2.7-0.3-5.4-0.9-8-1c-6.2-0.2-11.3-2.7-15.6-7c-3.4-3.5-6.9-6.9-9.7-11c-0.2-0.3-0.6-0.5-1-0.9
		c-0.9,1.3-1.6,2.6-2.7,3.6c-3.9,3.8-5.5,8.6-6.4,13.8c-0.6,3.5-0.9,7-1,10.5c-0.1,1.8-0.2,3.5-0.6,5.2c-1,3.7-4.4,5.3-8,4
		c-0.7-0.2-1.4-0.7-2.2-1c-4.3-2.3-7.7-5.5-10.6-9.4c-6.1-8.2-10.2-17.3-11.2-27.6c-0.2-2.1-1.1-3.1-2.9-3.9
		c-5.5-2.5-10.7-5.3-15.9-8.2c-6.3-3.5-12.6-7-18.9-10.5c-0.8-0.4-1.5-1.2-2.6-0.7c-0.5,0.9-0.3,1.8-0.4,2.8
		c-0.1,3.3,0.5,6.5,1.3,9.7c0.3,1.4,0.6,2.7,0.5,4c-0.2,3.7-3.1,6-6.8,5.2c-0.8-0.2-1.5-0.5-2.3-0.9c-2.3-1.3-4.2-3-5.9-5
		c-2.3-2.9-4.2-6-5.6-9.4c-0.3-0.8-0.3-1.9-1.5-2.3c-0.5,1.4-0.2,2.7,0,4c0.3,2.6,0.7,5.1,1.1,7.6c1.2,7.2,2.6,14.5,3.7,21.7
		c1.4,8.7,4.3,16.8,8.7,24.4c3.6,6.1,7.9,11.7,12.4,17.2c2.9,3.5,6.4,6.2,10.1,8.8c0.7,0.5,1.4,0.2,1.4-0.6c-0.1-2-0.2-4.1-0.5-6.1
		c-0.3-2.5-0.4-5.1-0.2-7.6c-0.2-0.2-0.2-0.2-0.4-0.4c-2.7-2.1-3.6-5-4.2-8.1c-0.4-2.1-0.9-4.3-1.2-6.4c-1-5.6-1.8-11.2-2.1-16.9
		c-0.1-1.2-0.2-2.4-0.4-3.6s0.2-1.9,1.3-2.2c2.7-0.5,5.1-1.4,7.5-3c1.5-1,3.1-0.6,4.5,0.6c2.8,2.7,5.7,5.5,7.6,8.9
		c2.6,4.7,5.4,9.4,8.6,13.8c2.5,3.4,4.9,6.8,8.4,9.3c3.1,2.3,6.2,4.3,9.7,5.8c1.4,0.6,2.8,1,4,1.8c2.6,1.7,5.3,1.8,8.2,1.7
		c1.7-0.1,3.2-0.6,4.5-1.8c2.3-1.9,4.3-4.2,4.9-7.3c0.4-2,1.1-4,1.1-6c0-5.1,0.7-10.3,0.9-15.4c0.1-2.3,0.7-4.3,1.7-6.2
		c0.3-0.7,1.1-0.7,1.6-0.1c0.2,0.2,0.3,0.5,0.4,0.7c4.7,8.4,10.1,16.4,16.1,24c2.7,3.5,5.3,7.2,9.1,9.8c0.3,0.2,1.3,0.2,2.4,0.2
		c0.1-1,0.2-1.8,0.3-2.8c0.5-3.6,3.1-5,6.6-3.9c1.4,0.5,2.7,1.3,3.7,2.4c1,1.1,1.9,2.3,2.9,3.4c3.1,3.9,6.3,7.9,9.5,11.7
		c7.6,9.1,16.4,17.1,25.9,24.1c1.7,1.3,3.5,2.2,5.5,2.3c4.2,0.3,8.4,0.6,12.6-0.1c0.1,0,0.2,0,0.2,0c-4.4-3.9-8-8.7-11.7-13.6
		c1.3-0.4,2.3,0.4,3.3,0.6c3.9,1,7.8,1,11.6-0.3c4.7-1.6,8.1-5,10.8-9c5.1-7.6,8.6-16,10.6-24.9c0.6-2.9,1.5-5.8,2.4-8.6
		c1.4-4.4,3.5-8.5,6-12.4c0.9-1.4,1.9-1.4,2.9-0.1c1.6,2.5,3.4,4.9,4.4,7.8c1.4,3.7,2.1,7.6,3.1,11.3c0.7,2.8,2,5.3,4.3,7.2
		c1.9,1.5,4.1,2.4,6.4,3.4c0.2-2.3,0.4-4.6,0.7-6.9c1.4-12.3-1.5-23.8-5.8-35C586.1,569.4,585.5,567.9,585,566.5z"/>
	<path class="st1" d="M754.9,409.4c-0.7-3.1-1.4-6-2.3-9c-1-3.2-2.4-6.4-2.6-9.8c-0.2-4.7-1.6-9.1-3.7-13.2
		c-2.2-4.2-4.4-8.4-6.1-12.9c-1-2.6-2.3-4.9-4.3-6.8c-1.4-1.3-2.9-2.4-4.9-2.7c-1.9-0.2-3.4,0.6-4.7,1.8c-0.9,0.9-1.5,0.7-2.5-0.1
		c-1-0.9-1.9-1.8-3-2.8c-1.9-1.8-3.5-3.7-5.8-5.1c-4.7-3.1-9.5-6.4-14.2-9.4c-0.3-0.2-0.6-0.4-1-0.6c0.4,0.5,0.8,0.9,1.2,1.4
		c6,7.3,11.9,14.9,16.1,23.5c0.9,1.8,1.8,3.6,2.9,5.4c4.4,7.4,7.1,15.5,9.5,23.8c0.7,2.5,1.2,5,1.1,7.6c0,1.5-0.2,3-1,4.3
		c-1.7,3-4,2.8-6.4,0.9c-0.5-0.4-0.9-1-1.3-1.6c-2.3-3.4-4.5-6.8-6.1-10.6c-0.9-2-1.8-3.9-3-5.8c-2.4-3.9-4.8-7.9-7.4-11.7
		c-3.4-5-7.2-9.5-11.6-13.3c0.2,0.7,0.5,1.5,0.7,2.3c0.7,2.3,1.2,4.7,1,7.2c-0.3,4-0.5,8.1-1.1,12.1c-0.6,3.8-1.3,7.5-2.8,11
		c-0.6,1.4-1.8,1.7-3,0.7c-1.6-1.3-2.9-2.9-3.8-4.7c-3-6.3-7-11.9-11-17.5c-1.4-2-3.1-3.8-4.8-5.5c-3.1-2.9-6.6-4.9-10.9-4.3
		c-2.3,0.2-3.9-0.7-5.4-2.2c-2.7-2.5-5.5-4.9-8.4-6.9c4.2,3.8,7.2,8.3,9.4,13.5c2.3,5.4,4.6,10.8,7.1,16c5.1,10.5,7.6,21.8,9.4,33.2
		c0.6,3.5,1,7,1.8,10.5c1.4,7.2,1.6,14.3,0.2,21.5c-1.9,9.3-6.3,17.4-13.4,23.6c-1.6,1.4-2.7,2.9-3.2,5c-2,6.9-4.3,13.8-7.6,20.2
		c-7.4,14.3-15.8,27.9-26.7,39.9c-1.4,1.5-1.4,1.6-0.2,3c2.9,3.1,5.9,6.2,8.3,9.7c0-3.8,16.7-29,20.3-30.7c0.7-0.3,1.5-0.5,2.3-0.8
		c1.8-0.7,3.6-1.3,5.2-2.2c6-3.5,11.6-7.5,17.4-11.4c0.3-0.2,0.6-0.6,0.9-0.8c0.1-0.1,0.2-0.2,0.2-0.3c2-7.4,3.5-15,4.5-22.6
		c0.2-1,0.2-2.1,0.2-3.1c-0.1,0-0.1,0.1-0.2,0.1c0.1-0.2,0.1-0.3,0.2-0.5c0.1-1.7,0.1-3.3-0.1-5c-0.5-6.4-0.6-12.8,0.6-19.1
		c0.3-1.8,0.7-3.7,1.7-5.4c1.4-2.5,3.9-3.4,6.6-2.6c1.4,0.4,2.7,1.2,3.9,2.3c0.6,0.6,1,1.3,1.7,1.8c3.1,2,4.5,5,5.6,8.3
		c2.1,5.6,3.4,11.4,4.2,17.4c1,6.9,0.9,13.8,1.4,20.8c0.3,5.1,0.2,10.1-0.2,15c0.1-0.1,0.2-0.2,0.2-0.2c1.1-1.4,2.3-2.7,3.3-4.1
		c3.2-4.1,6-8.4,8.1-13.1c3.4-7.4,5.5-15.3,7-23.3c1.4-7.5,2.8-14.9,6.1-21.8c2.4-5,5.5-9.3,10.2-12.3c2.2-1.3,3.7-3.1,5.1-5.1
		c3.6-5,6.2-10.5,8.3-16.2C755.2,413.8,755.5,411.7,754.9,409.4z"/>
	<path class="st1" d="M300.9,528.6c0.6,1,1.4,2,2,3.1c1.3,2.1,3,3.7,5,5c0.1-0.1,0.2-0.2,0.3-0.2c2.9-1.8,6-3.1,9.6-3.2
		c1.4-0.1,3.2,0.8,4.2-0.6c0.9-1.2,0.3-2.9,0.3-4.3c0-3.8-0.3-7.6,0.2-11.4c0.6-4.8,1.2-9.7,3.1-14.2c0.1-0.2,0.2-0.4,0.2-0.6
		c0.7-1.8,0.6-2.3-0.6-3.4c-0.2-0.2-0.6-0.5-1-0.7c-4.2-3-7.4-6.8-9.5-11.5c-2-4.6-3.9-9.2-5.3-14.1c-1-3.1-1.8-6.2-3.3-9.2
		c-0.5,0.1-0.9,0.2-1.3,0.2c-3.1,0.6-4.2,0.2-5.8-2.3c-1-1.5-1.7-3.1-2.2-4.8c-0.8-2.7-0.9-5.4-1-8c-0.1-5.1,1-10,2.2-14.9
		c0.7-2.9,1.4-5.8,2.1-8.8c-1.4,0.2-1.5,1.3-2.2,1.9c-0.9,1-1.6,2.2-2.7,3.1c-3.6,3.3-8,2.8-10.9-1.2c-0.7-1-1.3-2.1-1.7-3.2
		c-1-2.4-1.3-5-1-7.6c0.9-6.9,2.5-13.7,5.5-19.9c2.9-5.9,6.2-11.4,9.9-16.6c-4.7,2.7-8.1,6.4-10.9,10.9c-2.1,3.5-4.1,7-5.5,10.9
		c-0.4,1-1,1.9-2.3,1.9c-2.3,0-3.7,1.5-5.3,2.7c-1.7,1.3-3.3,2.8-5.1,4c-3.2,2.3-6.8,4-10.3,5.7c-1.1,0.6-2.3,0.8-3.5,0.2
		c-4.3-2.2-8.3-4.7-8.2-10.5c0-0.6-0.2-1.4-0.4-2c-0.1-0.2-0.2-0.4-0.2-0.6c-2.6,5.9-4.6,12-6.5,18.1c-0.8,2.6-0.9,5-0.1,7.6
		c1.2,4.2,2.7,8.3,4.3,12.3c0.5,1.1,1,2.2,1.7,3.2c0.8,1.3,1.3,1.4,2.6,0.2c0.7-0.6,1.4-1.4,2.1-1.9c2.1-1.6,4-1.4,5.7,0.6
		c0.6,0.7,1.1,1.6,1.4,2.4c0.6,1.2,1,2.6,1.4,3.9c1.9,7,5,13.5,8.5,19.8c4.1,7.4,9.8,13.4,16.6,18.2c1.9,1.4,3.9,2.5,6.1,3.1
		c0.9,0.2,1.8,0.5,2.7,0.6c1.2,0.2,2.1-0.4,2.7-1.5c0.4-0.9,0.6-1.8,1-2.7c1.5-3.1,5-3.2,6.8-0.3c1,1.5,1.3,3.3,1.6,5
		c0.6,4.3,0.3,8.7-0.3,13c-0.3,2.3-0.7,4.6-1.4,6.8c-2.7,8.8-10.7,14.5-19.4,13.8c-4.3-0.3-8.1-2-11.7-4.4c-2.3-1.6-4.4-3.6-6.2-5.9
		c-5.5-6.4-10.4-13.3-14.2-20.8c-1.9-3.9-4.3-7.6-6.5-11.3c-1-1.6-2.3-3.1-3.4-4.6c-1.1-1.5-2.5-2.2-4.5-2.2c-2.5,0-4.9-0.6-7.2-1.4
		c0.1,0.5,0.2,1,0.2,1.4c1.4,6.7,3.3,13.1,7.2,18.8c1.4,2,3.1,3.8,4.7,5.6c4.9,5.9,10.1,11.3,16.2,15.9c3.2,2.5,16.6,14.6,20.2,14.9
		C299.9,535,300,527.4,300.9,528.6z"/>
	<path class="st1" d="M398.2,668.5c-1-1-2.1-1.8-3.5-2c-5-0.9-9.7-2.8-14.4-4.4c-15.8-5.5-29.1-14.5-40.1-26.9
		c-1.4-1.6-1.8-1.7-3.7-0.2c-3.6,2.8-7.6,4.7-12.1,5.7c-4.1,1-8.3,1.5-12.5,1.9c-4.5,0.4-8.9-0.4-13.3-1.6c-1-0.3-2-0.6-3-1l0.6,0.6
		c1.2,1.5,2.5,3,3.6,4.5c1.2,1.4,2.3,3,3.5,4.5c1.8,2.5,3.6,5,5.4,7.5c0.1,0.1,0.1,0.2,0.2,0.2c0.7,0.9,1.4,1.8,2,2.8
		c0.2,0.3,0.4,0.6,0.6,1c0.6,0.9,1.2,1.8,1.8,2.7c2.2,3.1,4.3,6.3,6.6,9.3c0.2,0.3,0.5,0.6,0.8,1l0.1,0.1c0.6,0.6,1.2,1.1,1.8,1.7
		c1,1,2.2,1.8,3.4,2.7c0.2,0.2,0.5,0.3,0.7,0.5h5.1h69.9h5.4c-0.8-1-1.5-2-2.3-3C402.7,673.4,400.5,670.9,398.2,668.5z"/>
	<path class="st1" d="M615.8,422.8c-1.1-2.5-0.7-4.8,1.1-6.8c2-2.1,4.6-2.9,7.4-2.1c1.2,0.3,2.3,0.7,3.5,1.3
		c1.8,0.8,3.6,1.8,5.7,2.1c1.2,0.2,2.3,1,2.9,2.1c0.7,1.2,1.6,2.2,2.7,3c2.7,2,5.5,1.2,6.6-1.7c-0.4,0-0.8-0.2-1.1-0.6
		c-0.7-0.8-1.4-1.6-2-2.6c-1.4-2.2-2.7-4.4-3.9-6.7c-0.9-1.8-1.9-3.1-3.5-4.3c-3.4-2.6-6.6-5.3-9.2-8.5c-2.9-3.5-6.6-6-10.5-8.2
		c-1-0.5-2-1-2.7-1.7c-1.7-1.5-1.4-4.3,0.6-5.4c-1.1-0.8-2.3-1.6-3.4-2.4c-4.3-3.1-9.2-5.1-13.9-7.6c-0.2-0.1-0.5-0.2-0.6-0.3
		c0,0.2,0,0.3,0,0.5c-0.1,1.4-0.8,2.4-2.2,3.2c-2.7,1.5-5.4,1.9-8.2,1.1c-2.7-0.7-5.5-1.7-8.1-2.6c-1.9-0.6-3.8-1.5-6-1.3
		c0.2,1.4,1.2,2.3,1.8,3.2c1.7,2.8,3.4,5.6,4.3,8.8c0.6,1.8,0.2,3.5-1.1,4.9c-1.4,1.4-3.2,1.4-5,0.7c-1.4-0.5-2.7-1.3-3.9-2.3
		c-1.9-1.7-3.9-3.4-5.7-5.2c-3.5-3.7-7.7-6.4-12.2-8.8c-0.5-0.2-1-0.5-1.5-0.2c-0.5,0.8-0.2,1.5,0,2.3c1,4.1,3.4,7.4,6.3,10.3
		c5.2,5.2,9.7,11.1,13.8,17.1c8.4,11.8,15,24.6,19.9,38.2c1.6,4.3,2.7,8.8,3.5,13.4c0.2,1.2,0.3,2.5,0.2,3.6
		c-0.4,3.2-3.1,4.4-5.6,2.7c2.3,2.8,4.5,5.2,5.4,5.2c8.6-0.5,9.5-9.4,8.7-16.3c-0.4-3.1-1.1-5.8-1.6-7.2c-0.6-1.4-1-2.8-1.4-4.3
		c-0.2-0.6-0.7-1.3,0-1.8c0.6-0.5,1.3-0.1,1.9,0.2c1.7,0.6,3.4,1.1,5.1,1.6c2.7,0.8,5.5,1.4,8.4,1.1c4.4-0.5,8.3-4.1,6.9-9.3
		C617.9,428.4,617.1,425.6,615.8,422.8z"/>
	<path class="st1" d="M387.5,410.9c3.5-6.4,8.3-11.8,12.8-17.4c1.4-1.8,3.5-3.1,5.5-4.2c3.2-1.8,6.4-3.5,9.6-5.5
		c1.1-0.7,2.3-1.5,3.2-2.4c0.6-0.5,0.7-1.2,0.5-1.8c-0.3-0.9-1-1.3-1.9-1.2c-2.1,0.1-3.9,0.8-5.8,1.8c-4,2.3-8,4.5-12.1,6.8
		c-1.4,0.8-3,1.4-4.4,2.1c-1.1,0.5-2.3,0.6-3.6,0.6c-1.1-0.1-2.1-0.3-2.9-0.8c-4.2,3.2-7.8,7-10.9,11.3c-0.9,1.2-1.8,2.4-2.5,3.7
		c-0.6,0.9-1.1,1.4-2.3,1c-2.3-0.6-4.3,0.2-6.3,1.1c-2.8,1.3-5,3.2-6.6,5.8c-0.1,0.2-0.5,0.4-0.6,0.3c-0.5-0.1-0.5-0.6-0.4-0.9
		c1.1-4.9,2.3-9.7,3.5-14.6c0.6-2.7,1.5-5.5,1.3-8.4c-0.3-3.2-1.5-6.1-4.7-7.5c-2.3-1-4.7-0.9-7.1,0.2c-2.7,1.2-5.1,3.1-7.3,5.1
		c-2.9,2.5-5.2,5.5-7.4,8.6c-0.3,0.5-0.6,0.9-1,1.4c1-0.7,2.2-0.9,3.3-0.5c1.7,0.6,2.7,1.8,2.8,3.7c0.1,0.6,0,1.4-0.2,2
		c-0.2,1-0.6,2.1-0.8,3.1c-3.1,11.6-5.3,23.3-5.2,35.3c0,2,0.1,4.1,0.2,6.1c0.1,1.2,0.2,2.4,0.9,3.5c1.1-0.3,1.4-1.4,1.8-2.2
		c1.4-2.3,2.6-4.7,3.9-7.1c1-1.8,2.3-3.4,3.8-4.7c1.6-1.4,3.3-2.5,5.5-1.7c2,0.8,2.7,2.6,2.8,4.6c0.2,2.8,0.5,5.7,0.6,8.5
		c0.2,4.7,0.4,9.5,0.7,14.2c0.5,6,1.4,11.7,3,17.4c0.4-0.2,0.8-0.5,1.1-0.8c1.3-1,2.7-1.9,3.8-3c1.7-1.5,2.3-1.6,3.9,0.5
		c0.3,0.4,0.6,1,0.9,1.4c2,3.1,4.2,6,5.8,9.3c1,2.2,3.1,3.2,5.2,3.5c0.5,0.1,0.9,0,1.4,0c-0.8-2.9-1.6-5.8-2.2-8.7
		c-1.1-6-1.6-12.1-2.4-18.2c-1.1-9.3-0.5-18.5,1.8-27.5C380.5,426.5,383.3,418.5,387.5,410.9z"/>
	<path class="st1" d="M230.2,158.4c1.6-1,2.7-2.3,2.7-4.2c0-0.6,0.1-1.1,0.2-1.8c0.4-2.5,1.3-4.9,2.3-7.2c2.4-6.3,5.5-12.1,9.1-17.8
		c0.9-1.4,1.6-3.1,3-4.2c-1.2-0.7-2,0.2-2.9,0.8c-7.3,5.1-14.6,10.3-22,15.5c-7,5-13.5,10.5-19.4,16.8c-2.3,2.3-4.6,4.7-6.9,6.9
		c-5.8,5.5-10.9,11.7-15.8,18c-1.8,3.6-3.5,7.3-5,11.1c-1.1,2.9-2,5.9-2.7,8.9c-1.1,5.1-2.1,10.3-3.1,15.5c0,0.2-0.1,0.4-0.1,0.6
		c0.8-1.4,1.7-2.7,2.6-3.9c8.4-12.4,17.7-24,29.2-33.9c1.2-1,2.4-2.2,3.6-3.3c2.9-2.7,6-5.1,9.3-7.2c4.8-3.2,9.7-6.5,14.5-9.7
		C229.3,159,229.7,158.7,230.2,158.4z"/>
	<path class="st1" d="M247.5,123.2L247.5,123.2C247.4,123.2,247.4,123.3,247.5,123.2C247.4,123.3,247.5,123.2,247.5,123.2z"/>
	<path class="st1" d="M208.5,323.8c0.2-1.2,0.2-2.4,0.3-3.6c0.1-1.3-0.1-2.7-1.3-3.2c-1.1-0.5-2.3,0.2-3.4,1
		c-2.7,1.8-4.5,4.3-5.8,7.2c-1.5,3.5-3.5,6.8-5.3,10.1c-3.9,7.2-7.9,14.3-11.6,21.6c-4.3,8.1-7.7,16.6-10.7,25.3
		c0.1,0.1,0.2,0.2,0.2,0.2c2.4,1.9,3.1,4.5,3.5,7.5c0.4,3.6,0.9,7.2,1.7,10.8c1.9,8,4,16,6,24c0.6,2.7,1.3,5.2,1.2,8
		c0,0.1,0,0.1,0,0.2c0.2-1.4,0.3-2.7,0.5-4c0.9-7.2,2.7-14.2,4.7-21.1c0.8-2.7,1.4-5.5,1.8-8.3c0.1-0.6,0.2-1.1,0.2-1.7
		c0-0.4,0.1-0.9,0.2-1.3c0.7-7.5,2.3-14.7,4.3-21.9c3.1-11,6.6-21.9,13.1-31.4c1-1.5,1.2-3.1,0.8-5
		C207.8,333.3,207.6,328.7,208.5,323.8z"/>
	<path class="st1" d="M511.7,164.8c1.6,2.9,3.8,5,7.2,5.3c0.2-1.5,0.5-3.1,0.9-4.5c0.6-2.7,1.7-5.5,2.6-8.1c0.7-2.1,1.8-3.9,3.9-5
		c0.8-0.4,1.3-1,1.3-1.8c0-0.6-0.1-1.1,0.1-1.6c1.9-5.5,1.4-11.3,3-16.8c1.5-5.5,2.8-11.1,4.5-16.5c3.9-12.5,9.2-24.4,16.8-35.1
		c2.4-3.5,5.1-6.7,8.4-9.5c0.2-0.2,0.6-0.5,0.8-0.7c-0.6-4.9-4.7-8.7-10.1-8.8c-4,0-7.4,1.7-10.4,4.1c-5.8,4.7-10,10.7-13.2,17.4
		c-1.4,2.9-2.6,6-3.8,9c-3.1,7.8-5.9,15.8-7.3,24c-0.7,4.1-1.4,8.3-2.7,12.3c-2.6,8-3.7,16.3-3.7,24.8c0,1.9,0,3.8,0,5.7
		C510.2,161.1,510.7,163.1,511.7,164.8z"/>
	<path class="st1" d="M420.4,518.5c1.4,1.9,2.9,3.8,4.6,5.5c2.7,2.7,5.5,5.3,8.4,7.6c3.5,2.8,7.3,5.1,11.6,6.6
		c4.5,1.6,9,1.8,13.4-0.3c1.3-0.6,2.3-0.4,3.5,0.2c1.8,1,3.7,1.8,5.7,1.9c1.8,0.2,3.4,1,4.9,1.8c2,1.1,4,2.3,6,3.4
		c1.2,0.6,2.4,1.3,3.4,2.3c2.1,2.1,4.7,3.2,7.5,3.9c2.6,0.6,5.1,0.7,7.5-0.9c1.7-1.2,3.5-2.1,5.3-3c1.9-0.9,3.4-2.2,4.4-4
		c0.5-0.8,1-1.6,1.4-2.4c2.5-5,5.1-9.9,6.5-15.3c0.2-0.5,0.5-0.9,0.8-1.4c1,0.5,1.1,1.3,1.7,1.9c1.6,2,3.5,3.6,6.2,4.4
		c2.3,0.7,4.3,0.2,6.1-1.1c0.9-0.6,1.6-2.7,2.3-3.3c0.2-0.2,0.5-0.2,0.7,0.1c1.1,1.6,3.1,4.8,5.5,5.3c1.4,0.2,1.4-8.4,2.7-9.2
		c2.7-1.5,4.5-3.9,6-6.5c3.2-5.3,6.7-10.5,8.8-16.5c0.3-1,1-1.9,1.7-2.7c0.2-0.2,3.1-1.7,4-1.8c-0.4-1.8-1-3.5-1.7-5.3
		c-0.2-0.6-0.3-1.6-1.6-1.5c-2.4,5.1-6,9.2-10.1,13.1c-1.7,1.6-3.1,3.4-4.4,5.3c-2.6,3.7-5.1,7.4-7,11.5c-0.6,1.4-1.4,2.7-2.5,3.7
		c-2.4,2.2-5.7,1.7-7.2-1.1c-0.5-1-0.8-2-1-3.1c-0.5-2.3-0.9-4.5-1.4-6.8c-0.1-0.4-0.2-0.6-0.2-0.9c-0.2-0.4-0.4-0.6-0.6-0.6
		c-0.3-0.1-0.7,0.2-1.2,0.6c-3.5,3.5-8,5.6-12.4,7.8c-1.4,0.7-3.1,1.1-4.6,1.7c-1.8,0.7-1.9,2.8-3.3,4c-2.3,2-4.1,4.3-5.5,7.1
		c-0.3,0.6-0.7,1.1-1.2,1.6c-2.2,2.3-5.5,2.3-7.5-0.2c-0.9-1.1-1.5-2.6-2.3-3.9c-0.6-1-1-2.3-1.5-3.4c-0.4-0.8-1-1.2-1.9-1.2
		c-1.1,0-2.2,0-3.3,0.1c-6.7,0.2-13.3-0.7-19.7-2.5c-1.5-0.4-3.1-0.9-4.6-1.4c-0.7,1-0.3,1.9-0.1,2.8c0.4,1.3,0.6,2.7,0.4,4
		c-0.2,2.7-2.2,4.4-4.9,4.5c-1.2,0-2.4-0.2-3.5-0.8c-1.9-0.9-3.4-2.3-4.7-3.9c-3.3-4-6-8.4-8-13.2c-0.8-2-1.7-4-2.7-6
		c-0.8-1.6-1-1.5-2.8-0.9c-3.1,1.1-6.3,1.7-9.7,1c-0.5,3.1,0.1,5.9,0.9,8.5C419.9,516.7,420.2,517.6,420.4,518.5z"/>
	<path class="st1" d="M544.2,678.8h0.6C544.7,678.8,544.4,678.8,544.2,678.8z"/>
	<path class="st1" d="M462.9,55.9c9.5,10.6,16.6,22.5,19.5,36.6c1,4.5,1.4,9.2,1.5,13.8c0.2,11.6-0.8,23.1-4.3,34.3
		c-0.4,1.4-0.8,2.9-1.5,4.2c-3.1,6-3.9,12.6-5.1,19.1c-0.2,1.2-0.5,2.5-0.7,3.7c1.8-0.9,3.2-2.1,4.7-3.3c3.9-3.2,7.6-6.7,10.2-10.9
		c2.7-4.4,4.7-9.2,6.8-13.9c0.8-2,1.7-4,2.3-6.1c1.9-6.7,3.1-13.4,2.7-20.4c0-0.2,0-0.2,0-0.4c0-0.8,0-1.6,0-2.4
		c-0.1-2.8,0.1-5.7-0.4-8.5c-0.6-3.7-1.8-7.4-2.8-11c-2.9-10.1-8.3-18.8-14.4-27.2c-1.1-1.5-2.3-3.1-3.6-4.3c-6-5.5-13-8.4-21.2-8.7
		C458.8,51.8,461,53.7,462.9,55.9z"/>
	<path class="st1" d="M268.2,150.6c1.3-1.5,2.5-3.2,3.6-4.9c3.6-5.1,7.4-10.1,11.5-14.8c1.7-1.9,3.6-3.7,5.7-5.2
		c8.5-6.4,17.9-11,28.1-14.4c0.2-2.7-0.6-5.3-3.1-7.3c-2.1-1.6-4.6-2.7-7.2-2.3c-3.7,0.5-7.5,1-11,2.7c-8.1,3.7-14.4,9.5-19.9,16.4
		c-3.3,4.2-5.8,8.8-8.3,13.4c-1.6,3-3,6-3.9,9.3c-1.2,4.4-2.2,8.9-2.1,13.6c0,1.1,0.2,2.3,0.4,3.3
		C263.4,157,265.5,153.7,268.2,150.6z"/>
	<path class="st1" d="M228,524.4c-0.4-0.7-0.8-1.4-1.4-2c-0.4-0.5-1-0.6-1.4,0c-1.7,2.1-3.2,4.4-5,6.4c-2.1,2.3-3.4,5-3.9,8
		c1,4.8,2.6,9.5,5.5,13.5c1.4,1.9,1.8,3.9,1.2,6.1c-0.1,0.2-0.2,0.6-0.2,0.8c-0.4,1.8-0.4,3.8-0.5,5.6c0,0.4,0,0.8,0,1.2
		c-0.6,6.8,3.3,10.7,8.4,13.8c1.8-6.4,4.8-12.2,9.1-17.7c2.6-3.2,5.5-6,9.3-7.8c0.6-0.2,1.4-0.4,1.3-1.4c-0.4-0.4-0.9-0.9-1.4-1.3
		C240.6,542.4,233.6,534,228,524.4z"/>
	<path class="st1" d="M374,104.2c6.7-0.3,12.5,2.3,18.2,5.2c7.7,4,14.9,8.9,21.2,15c4.2,4,7.6,8.4,10.1,13.7
		c0.7,1.6,1.6,3.1,2.4,4.7c2,3.6,3.3,7.4,4.2,11.4c0.3,1.4,0.4,2.8,0.4,4.3c0.5-0.8,0.6-1.8,0.6-2.8c-0.1-0.8,0-1.6,0-2.4
		c-0.1,0-0.1,0-0.2,0c0-1.2,0.2-2.5,0-3.6c-0.6-3.2-1.2-6.4-1.9-9.6c-2.1-8.8-5.4-17.1-9.6-25c-0.5-1-1.1-1.8-1.7-2.7
		c-2.9-4.4-6.9-7.6-11.3-10.4c-5.9-3.7-12.4-5.5-19.2-6c-4.6-0.2-9.2,0.6-13.4,2.7c-1.5,0.7-2.7,1.8-3.8,3.1c-0.6,0.8-1,1.6-1.1,2.5
		c0.2,0,0.3-0.1,0.5-0.1C371,104.1,372.6,104.2,374,104.2z"/>
	<path class="st1" d="M680.6,116.5c2.3-0.6,4.5-0.1,6.8,0.6c10.1,3,18.2,9,25.2,16.6c1,1.1,2,2.2,3.1,3.3c5.6,5.6,10,12.1,13.7,19.1
		c0.6,1,1.2,2.2,1.9,3.1c0.1,0.1,0.1,0.2,0.2,0.2c0.6-1.6,1-3.2,1.2-4.9c0.2-2.7-0.6-5.1-1.7-7.4c-2.9-5.9-6.6-11.1-10.7-16.2
		c-6.8-8.5-15.2-15-25.1-19.5c-3.5-1.6-7-3-11.3-2.5c-0.8,0-2-0.2-3.2,0c-3.4,0.4-6.8,3.3-7.3,6.2c-0.1,0.2-0.1,0.5-0.1,0.7
		c0.5,0.1,1,0.2,1.4,0.4C676.6,116.8,678.5,117.1,680.6,116.5z"/>
	<path class="st1" d="M581.7,140.8c0.2,0.5,0.5,0.5,0.8,0.3c8.1-2.6,16.4-2.9,24.8-2.5c-0.1-1.8-0.6-3.5-1.7-4.7
		c-1.2-1.4-2.3-3-3.5-4.4c-3.5-4.3-3.5-4.3-1-9.2c0.3-0.6,0.6-1.2,1-1.8c0.5-0.9,0.8-1.8,1-2.9c-0.3,0.2-0.6,0.3-0.9,0.6
		c-6.4,3.9-11.2,9.4-15.8,15.1c-2.1,2.6-3.5,5.5-4.6,8.6C581.7,140.1,581.7,140.5,581.7,140.8z"/>
</g>
<g>
	<path class="st2" d="M504.8,356.7c-3.5-2.3-5-5.6-5.4-9.7c-0.2-1.9,0.3-3.8,0.7-5.6c0.2-0.8,0.7-1.5,0.1-2.3
		c-0.4-0.5-1.5,0.2-2.3,1.2c-1,1.4-1.6,2.8-2.2,4.3c-0.8,2.3-0.9,4.8-1.1,7.9c0.1,0.7,0.2,2.1,0.2,3.5c0.2,1.8,1,3.1,2.7,3.8
		c4.5,2,9.2,3.5,14.1,3.8c0.5,0,1-0.2,1.5-0.3c0.4-0.1,0.6-1.1,0.2-1.4c-0.6-0.4-1.1-0.7-1.7-1C509.5,359.5,507,358.3,504.8,356.7z"
		/>
	<path class="st2" d="M516.4,371.7c-1.6,0.2-3.2,0.7-4.8,0.9c-4,0.3-7.6,1.8-10.9,4c-0.6,0.4-1.1,0.7-1.8,1
		c-2.6,1.2-5.2,2.3-8.1,2.6c-1.1,0.1-1.6-0.3-1.5-1.3c0.1-1.2,0.2-2.4,0.4-3.6c0.3-2.6,0.2-5.1-0.5-7.7c-0.2-1.2-0.7-2.3-1.5-3.3
		c-1.5-1.8-3.9-1.6-5.1,0.6c-0.6,1-0.7,2-0.8,3.1c-0.2,3-0.2,6,0.4,8.9c0.4,1.9-0.3,2.6-2.2,2.3c-4.7-0.8-9.2-2.3-13.2-5.1
		c-2.7-2-5.5-3.9-8-6.4c-1.9-1.9-4.3-3.1-7.3-2.8c-1.4,0.2-2.3,0.8-2.4,2.3c-0.2,1.1,0,2.2,0.7,3.1c1,1.4,2.1,2.9,3.4,4.1
		c4.5,4.4,9.4,8.2,15.1,10.9c4.2,2,8.4,3.9,13.2,3.8c2.7-0.2,5.4-0.4,8.1-0.6c6.9-0.6,12.9-3.2,17.9-7.8c1.7-1.5,3.5-3,5.5-4.2
		c0.9-0.6,1.8-1.1,2.7-1.8c0.6-0.4,1-0.9,1.1-1.6C517.2,372.3,516.8,371.6,516.4,371.7z"/>
	<path class="st2" d="M463.7,361c0.5,0.3,1,0.6,1.4,0.7c2.7,0.3,5.4,0.5,8-0.4c2.3-0.8,4-2.3,4.7-4.7c0.3-1.3,0.7-2.7,0.8-3.9
		c0.2-2.4,0.4-4.9,0.6-7.3c0,0,0,0,0.1,0c0-0.2,0-0.6,0.1-0.8c0.1-3.8-1.6-6.5-4.9-8.3c-0.4-0.2-0.8-0.2-1,0.1
		c-0.3,0.3-0.2,0.7,0,1.1c0.2,0.5,0.6,1,0.8,1.4c0.6,1.9,1.5,3.9,1.2,6c-1,6.1-3.8,11-10,13.3c-0.5,0.2-1,0.3-1.5,0.6
		C463,359.1,462.8,360.4,463.7,361z"/>
	<path class="st2" d="M466.7,316.9c2,1.3,4,2.8,6.5,3.1c3,0.4,5.9,1,8.8,1.1c2.4,0.1,4.8,0.3,7.3,0.5c3.5,0.2,7,0.9,11.1,0.7
		c1.3-0.1,3.2-0.2,5.1-0.5c1.8-0.2,3.5-0.7,4.9-1.8c2.1-1.4,2.4-4.1,0.9-6c-1-1.4-2.4-2.3-3.9-2.7c-1.3-0.4-2.6-0.7-3.9-1
		c-5.1-0.9-10.2-1.4-15.2-2.5c-5.1-1-10-0.7-15,0.2c-3,0.5-5.2,2.2-7,4.5C465.1,314.1,465.3,316,466.7,316.9z"/>
	<path class="st2" d="M533.1,351.6c0.8-3.6,1.4-7.2,1.3-10.9c-0.2-2.3-0.4-4.6-0.6-6.9c-0.4-5-2.4-9.5-5-13.7
		c-0.9-1.4-2-2.6-3.1-3.8c-0.6-0.8-1.6-1-2.6-1c-0.6,0-1.2,0.2-1,0.9c0.8,3.3,1.3,6.8,2.6,9.8c1.8,4.6,2.5,9.1,1.8,13.9
		c-0.3,2.4-0.7,4.8-0.8,7.3c-0.1,3.5,1.4,5.1,3.7,6.2C531.3,354.2,532.6,353.7,533.1,351.6z"/>
	<path class="st2" d="M452,355.3c0.5-1.2,0.4-2.3,0.2-3.6c-0.6-3.4-1.1-6.7-1.4-10.1c-1-9.6-0.8-19,4.1-27.7c0.1-0.1,0-0.2,0-0.7
		c-1.4,0.1-2.3,0.7-3,1.5c-1.1,1.2-2.3,2.3-3.4,3.5c-5.5,6.4-9.3,13.6-10.1,22.1c-0.6,6.8,2.1,12.1,6.9,16.6
		C447.4,359.1,450.8,358,452,355.3z"/>
	<path class="st2" d="M411.6,294.8c-2.3,1.7-4.6,3.4-6.8,5.1c-4,3.2-8.4,5.6-13.5,6.3c-4.8,0.6-9.7,1.2-14.6,1
		c-3.1-0.2-6.3-0.4-9.2-1.4c-7.1-2.3-14.6-3-21.6-5.6c-0.1,0-0.2,0.1-0.6,0.2c0.6,1.4,1.8,2.4,2.8,3.4c4,3.5,8.4,6.5,13.9,7
		c1.4,0.2,3,0.4,4.3,1c3.9,1.5,8,2.4,12.1,3.4c5.5,1.4,10.8,0.7,15.8-1.7c2.8-1.4,5.5-3.1,8-5c4.1-3.1,7-7.2,9.2-11.7
		C411.8,296,412.1,295.4,411.6,294.8z"/>
	<path class="st2" d="M412.5,294.2c-0.2,0.2-0.6,0.4-0.8,0.6C412.2,294.9,412.4,294.6,412.5,294.2z"/>
	<path class="st2" d="M670.9,275.7c0.6,0,1.4,0.2,2,0.3c0.4,0.1,0.9,0.2,1.3,0.2c-0.6-1-1.4-1.9-2.7-2.6c-1.8-1-3.6-1.8-5.8-1.8
		c-3,0-6-0.2-8.9,0.6c-1,0.2-1.8,0.2-2.8,0c0.5,0.6,1,1.1,1.5,1.7c0.7,0.7,1.4,1,2.4,1.1c1.8,0.2,2.3,1.3,1.6,2.8
		c-0.9,1.7-1.8,3.3-2.7,5c-5.8,11-14.4,19.1-25.8,23.8c-5.6,2.3-11.3,4.7-17.2,6.2c-0.8,0.2-1.5,0.6-3.1,1.3c4.9,1.2,8.9,2.3,13,3.3
		c1,0.2,1.8-0.1,2.8-0.3c4.7-1.2,9.2-3.1,13.8-5.1c6.8-3.1,12.3-7.9,16.9-13.8c1.6-2,3.1-4.1,4.7-6.1c1.2-1.5,2.4-3.1,3.9-4.5
		c1-1.1,2.3-2.1,3.5-2.9c0.3-0.2,0.7-0.5,1.1-0.6c1-0.5,0.8-1.3,0.4-2.1c-0.6-1.2-1.4-2.3-1.9-3.5
		C668.1,277.2,669.2,275.6,670.9,275.7z"/>
	<path class="st2" d="M548.8,462.9c-0.1-0.2-0.4-0.3-0.6-0.4c-0.5-0.1-0.6,0.4-0.8,0.7c-1.2,3.9-2.4,7.7-4.1,11.4
		c-2.1,4.6-5,8.4-10.1,10.1c-0.4,0.2-0.7,0.3-1.1,0.5c-1,0.4-1.4,1.1-1.8,2.1c-0.6,1.9-1.2,3.9-1.8,5.8c-0.2,0.7,0.3,1.2,1.1,1
		c4-1.3,7.7-3.1,10.9-6.1c4-3.9,7.2-8.5,10.9-12.5c0.5-0.5,0.8-1.1,0.7-2.2C551.4,470,550.8,466.2,548.8,462.9z"/>
	<path class="st2" d="M427.3,478.4c-5.3-4-9.2-9.1-12.1-15c-0.3-0.6-0.4-1.3-1.4-1.5c-0.4,1-0.8,2.1-1.1,3.2
		c-1.8,6.9-2.3,6.8,3.5,12.3c3.9,3.7,8.1,7.2,12.2,10.7c1.5,1.3,3.1,2.7,5.8,3.6c-1-2.9-2-4.9-2.6-7.2
		C431,481.9,429.5,480,427.3,478.4z"/>
</g>
<g>
	<path class="st3" d="M642.5,271.8c-0.1-0.9-0.4-1.6-0.9-2.3c-1.5-2.1-3.1-4.1-4.7-6.1c-0.3-0.4-0.7-0.7-1.5-0.6
		c1.2,4.7,1.4,9.6,1,14.5c-0.5,4.9-3,9.2-4,14c2.4-1.4,4.5-3.3,6.1-5.4C641.5,281.7,643,277,642.5,271.8z"/>
	<path class="st3" d="M585,293.1c-2.6-2.8-4.5-6-5.7-9.7c-2-5.7-2.3-11.6-0.7-17.5c0.3-1.2,0.9-2.5,0.4-3.8l0,0
		c-5.1,4-7.7,9.5-9.4,15.6c-0.2,1-0.1,1.8,0.4,2.7c2.7,4.9,6,9.3,10.6,12.6c1.9,1.4,4,2.7,6.5,2.7
		C586.9,294.5,585.8,293.9,585,293.1z"/>
	<path class="st3" d="M617.7,256.4c-2.5-0.6-5-1-7.5-1.7c-1.7-0.4-2.8,0.2-3.9,1.5c-2.7,3.1-3.8,6.8-4,11.3c-0.1,2.7,1,4,4.1,4.7
		c1.8,0.3,3.5,0.2,5.2,0.1c2.4-0.2,4.8-0.3,7.2,0.6c2.3,0.8,4.2-0.1,5.5-2.2c1-1.4,1.6-3.1,1.9-4.9c0.3-1.8-0.2-3.5-1.4-4.8
		C622.9,258.8,620.5,257.1,617.7,256.4z"/>
	<path class="st3" d="M411.6,262.6c-0.6-0.8-1-1.8-2.5-2.3c0.5,10.7-1.1,20.8-6.5,30.2c0.6-0.3,1.2-0.6,1.7-1c2-1.6,3.9-3.3,6-4.9
		c1.5-1.2,2.7-2.7,3.4-4.5c0.5-1.3,1-2.5,1.6-3.7c2-5.1,2-5.1-0.7-9.7C413.5,265.3,412.5,263.9,411.6,262.6z"/>
	<path class="st3" d="M397.3,254.1c-4.6-2.7-9.7-4.3-14.6-6.2c-1.2-0.5-2.3-0.1-3.4,0.7c-3.6,3-4.6,6.8-4.2,11.3
		c0.2,2.1,0.9,3,3.1,3.1c4.4,0.4,8.4,2.1,12.1,4.4c1,0.6,2.1,1.2,3.1,1.3c4.7,0.5,8.9-4.2,8-8.6C401,257.6,399.8,255.6,397.3,254.1z
		"/>
	<path class="st3" d="M349.1,277.8c-0.2-1.6-0.2-3.2-0.2-4.8c-0.1-1.4,0.3-2.8-0.2-4.8c-2.3,4.6-3.2,8.9-4.2,13.2
		c-0.1,0.6,0.2,1,0.6,1.4c2.1,1.4,4.1,3,7.2,4.4c-1-2.3-1.7-3.7-2.2-5.1C349.7,280.6,349.3,279.2,349.1,277.8z"/>
</g>
<g>
	<path class="st4" d="M765.1,525.3c0,0.2,0.3,0.5,0.5,0.5c0.4,0,0.8-0.2,1.1-0.3c2-1.4,3.8-3.1,5.5-4.9c2.7-3.1,5.6-3.3,9-1
		c0.7,0.5,1.4,1,2,1.7c0.3,0.3,0.7,0.6,1,1c0.6,0.6,1.2,1.4,1.9,2.1c4.3,3.8,9.1,5.3,14.6,2.8c1.8-0.9,3.6-1.8,5.4-2.8
		c1.9-1,3.4-2.7,4.2-4.8c0.6-1.9,1.4-3.8,2.1-5.7c1.2-3.6,3.1-7,4.8-10.4c1.7-3.3,4.6-5,8.4-4.7c1.4,0.1,3,0.2,4.4,0.6
		c1.8,0.4,3.6,1,5.5,1.6c2.3,0.7,3.3,0.5,4.5-1.5c1.4-2.4,2.9-4.9,4.1-7.6c2.8-6.6,5.5-13.3,8.2-19.9c0.7-1.8,1.3-3.9,1.8-5.8
		c3.7-13.9,6.4-28.1,7.5-42.5c0.9-11.7,1.4-23.3-1.2-34.9c-2.4-10.7-4-21.6-7.5-32.2c-1.3-3.9-2.5-7.7-3.7-11.7
		c-6.3-20.7-16.8-39.2-30.2-56.1c-5.2-6.6-10.7-13-17-18.7c-3-2.7-5.6-5.5-6.5-9.7c-0.1-0.5-0.4-1-0.7-1.4c-2.3-3.3-3.2-7.2-3.9-11
		c-0.2-1.2-0.2-2.4-1.5-3.8c0,8.4,0.1,16.2,0,24.1c0,1.8,0.5,3,2.1,3.9c5.5,3.5,10.1,7.8,13.8,13.1c2.7,3.8,5.5,7.5,8.1,11.3
		c2.6,3.7,4.8,7.6,6.8,11.6c3.2,6.4,5.6,13.3,8,20c1.9,5.7,2,11.7,3.2,17.6c0.6,2.7-0.3,5.1-2.6,6.9c-0.4,0.3-0.7,0.6-1.1,0.7
		c1.5,5.1,3,10.1,3.8,15.4c0.7,4.4,1.2,8.8,2.2,13.2c0.8,3.9,0.4,7.9,1.4,11.7c0.1,0.4,0.2,0.9,0.2,1.3c0.2,0,0.4,0,0.6,0
		c2.5-0.2,3.8,1.1,4.7,3.2c1,2.4,1.5,4.9,1.9,7.5c1.4,8.8,1,17.6-1.2,26.3c-1,3.9-1.6,8-1.9,12.1c-0.2,3.5-1,7-2,10.4
		c-3,9.5-6.6,18.7-10.9,27.7c-2.7,5.5-5.9,10.7-9.9,15.4c-6,6.9-13.8,10.5-22.8,11.4c-0.8,0.1-1.6,0.1-2.4,0c-3.7-0.2-6.8-2-8.7-4.7
		c-1.8-2.6-2.7-5.8-1.8-8.9c0.6-2.3,1-4.5,1.6-6.8c1.6-6.2,2.7-12.5,3.2-18.8c0.2-2.3-0.1-4.3-1.4-6.2c-0.2-0.3-0.6-0.7-1-0.5
		c-0.2,0.2-0.5,0.6-0.5,1c-0.3,2-0.5,4-0.8,6c-0.6,4.7-1.2,9.5-2.6,14c-3.9,13.4-7.8,26.9-14,39.5
		C765.3,524.3,765.1,524.7,765.1,525.3z"/>
	<path class="st4" d="M674.4,505.8c-5.7,3.9-11.3,8-17.4,11.4c-1.6,1-3.5,1.5-5.2,2.2c-0.7,0.3-1.6,0.4-2.3,0.8
		c-3.6,1.7-20.4,26.9-20.3,30.7c0.1,0.1,0.1,0.2,0.2,0.2c0.6,1,1.7,1.8,2.6,2.6c2,1.8,4.3,3.1,7,3.5c0,0,0.1,0,0.1-0.1
		c3.5-2.5,7.2-4.6,11.1-6.4c0.6-0.9,1.3-1.8,1.8-2.8c0.6-1,1.4-2,2.2-3c4-5,7.6-10.3,11.1-15.6c3.3-5.1,6-10.4,7.9-16.1
		c1-2.9,1.8-5.8,2.7-8.7c-0.1,0.1-0.2,0.2-0.2,0.3C675.1,505.3,674.8,505.6,674.4,505.8z"/>
	<path class="st4" d="M532.1,547.7c0.6,1.2,1.3,2.4,2.1,3.5c1,1.5,2.5,2.3,4.4,2.4c3.5,0.3,6.7-0.9,9.7-2.4
		c4.3-2.3,7.3-5.9,8.5-10.5c2.7-10.1,4.9-20.3,5.5-30.8c0.1-1.8,0.2-3.5,0.1-5.3c-0.1-3.3-0.5-6.6-1.3-9.8c-1,0.1-3.9,1.6-4,1.8
		c-0.6,0.9-1.3,1.8-1.7,2.7c-2.1,6-5.5,11.2-8.8,16.5c-1.5,2.5-3.3,5-6,6.5c-1.4,0.7-1.4,9.4-2.7,9.2c-2.4-0.5-4.3-3.7-5.5-5.3
		c-0.2-0.2-0.5-0.2-0.7-0.1c-0.6,0.6-1.4,2.7-2.3,3.3c-1.8,1.3-3.8,1.8-6.1,1.1c-2.6-0.8-4.5-2.3-6.2-4.4c-0.5-0.6-0.7-1.4-1.7-1.9
		c-0.3,0.6-0.6,1-0.8,1.4c-1.4,5.4-4,10.4-6.5,15.3c-0.4,0.8-1,1.6-1.4,2.4c-1,1.8-2.5,3.1-4.4,4c-1.8,0.9-3.6,1.8-5.3,3
		c-2.3,1.6-4.9,1.5-7.5,0.9c-2.7-0.7-5.4-1.8-7.5-3.9c-1-1-2.2-1.6-3.4-2.3c-2-1.1-4-2.3-6-3.4c-1.5-0.8-3.1-1.6-4.9-1.8
		c-2-0.2-3.9-1-5.7-1.9c-1.1-0.6-2.2-0.8-3.5-0.2c-4.4,2.2-8.8,1.9-13.4,0.3c-4.3-1.5-8-3.8-11.6-6.6c-3-2.4-5.7-5-8.4-7.6
		c-1.7-1.7-3.2-3.5-4.6-5.5c1.4,4.4,2.8,8.8,4.3,13.3c0.6,1.9,1.6,3.7,2.7,5.5s2.7,3.1,4.7,3.7c1.9,0.6,3.9,1.3,5.7,2.3
		c3.7,1.8,7.6,3,11.5,3.9c1,0.2,1.8,0.4,2.8,0.6c2.1,0.5,3.6,1.7,4.7,3.6c1,2.1,2.1,4.1,3.3,6.1c1.9,3.3,4.5,6,7.6,8.4
		c1.3-1.4,2.4-2.5,3.5-3.8c0.6-0.8,1.1-1.8,1.7-2.8c1.4-2.6,3.9-3.5,6.5-2.1c3.8,1.9,7.2,4.3,9.6,8c2.7,4.3,5,8.7,7.1,13.3
		c1.6,3.7,1.8,3.7,4.4,0.8c4.2-4.5,7.6-9.6,11.2-14.5c1.4-1.9,2.4-3.9,3.1-6.1c1-3.1,2.2-6.2,3.3-9.2c0.8-2.1,1.9-3.9,3.6-5.3
		c2.6-2.1,5.7-2,8.1,0.2C530.7,545.3,531.4,546.5,532.1,547.7z"/>
	<path class="st4" d="M688.6,396.2c1.1,0.9,2.4,0.6,3-0.7c1.4-3.5,2.2-7.2,2.8-11c0.6-4,0.8-8,1.1-12.1c0.2-2.4-0.2-4.8-1-7.2
		c-0.2-0.7-0.5-1.5-0.7-2.3c-3.1-2.6-6.4-4.7-10.1-6.5c-2.7-1.2-5.3-2.7-7.9-4.3c-6.4-3.9-13.1-7.2-20-10c-5.2-2-10.6-3.3-16.3-2.9
		c-1.9,0.2-3.8,0.2-5.6-0.4c-0.6-0.2-1.4-0.3-1.9,0.2c-1,0.9-1.8,2-2.3,3.3c-0.2,0.6,0,1.1,0.4,1.4c0.5,0.4,1.1,0.8,1.7,1.1
		c4.4,2.7,8.3,6.2,12.1,9.6c0.2,0.2,0.2,0.2,0.4,0.4c3.1,2,5.8,4.4,8.4,6.9c1.5,1.4,3.1,2.5,5.4,2.2c4.3-0.5,7.9,1.5,10.9,4.3
		c1.8,1.7,3.5,3.5,4.8,5.5c4,5.6,8,11.3,11,17.5C685.8,393.3,687,394.9,688.6,396.2z"/>
	<path class="st4" d="M770,406.8c-1.3-9.4-4.3-18.2-9.1-26.4c-1-1.6-2-3.3-2.7-5c-2.3-5.7-5.9-10.7-9.7-15.4
		c-2.9-3.6-5.5-7.5-7.5-11.7c-2.8-6-6.5-11.3-11.8-15.4c-1.5-1.1-2.9-2.5-3.5-4.4c-0.5-1.8-1.8-3-3.4-3.9c-3.8-2.1-7.6-4.3-11.3-6.4
		c-3.8-2.1-7.8-3.8-12.1-4.9c-1.8-0.5-3.7-0.8-5.6-0.2c-1.7,0.6-3.5,0.4-5.2,0.4c-4.3,0-8.4,0.8-12.2,2.7c-1.4,0.7-2.9,1.4-3.9,2.8
		c0.7,1,1.8,1.2,2.8,1.7c3.4,1.5,6.6,3.2,9.6,5.5c2.3,1.7,4.6,3.5,6.8,5.1c3.1,2.3,6,4.9,8.6,7.8c0.3,0.2,0.6,0.4,1,0.6
		c4.8,3.1,9.5,6.3,14.2,9.4c2.2,1.4,3.9,3.4,5.8,5.1c1,0.9,1.9,1.9,3,2.8c1,0.8,1.6,1,2.5,0.1c1.4-1.3,2.8-2.1,4.7-1.8
		c2,0.2,3.5,1.3,4.9,2.7c2.1,1.9,3.5,4.3,4.3,6.8c1.7,4.5,3.9,8.6,6.1,12.9c2.1,4.2,3.5,8.4,3.7,13.2c0.2,3.4,1.6,6.6,2.6,9.8
		c0.9,3,1.6,6,2.3,9c0.6,2.3,0.2,4.3-0.5,6.4c-2.2,5.7-4.7,11.3-8.3,16.2c-1.4,2-3.1,3.8-5.1,5.1c-4.7,3-7.9,7.3-10.2,12.3
		c-3.4,6.9-4.7,14.4-6.1,21.8c-1.4,8-3.6,15.8-7,23.3c-2.2,4.7-5,9-8.1,13.1c-1,1.4-2.2,2.7-3.3,4.1c-0.1,0.1-0.2,0.2-0.2,0.2
		c-0.6,6.9-1.6,13.8-2.5,20.6c-0.4,3-1,5.9-1.8,8.8c-0.1,0.3-0.1,0.8,0.1,1.1c0.2,0.4,0.7,0.2,1,0c5.8-3.3,11.5-6.8,16.3-11.3
		c6.4-6.2,11.6-13.3,15.8-21.1c1-1.9,2-3.9,3.2-5.6c1.4-2.2,2.8-4.3,3.5-6.8c0.6-2,1.8-3.9,4.1-3.9c2,0,3.3,1.7,4.2,3.5
		c1,1.9,1.6,4,2.1,6.2c0.3,1.6,0.7,3.2,1,4.7c0.2,0.6,1,0.8,1.3,0.4c0.8-1,1.7-2.2,2.3-3.3c2.4-4.1,4.3-8.4,5.9-12.9
		c3.4-9.8,5.9-19.8,8.1-29.8c2.7-12.6,3.3-25.3,1.8-38.1C771.7,418.3,770.8,412.5,770,406.8z"/>
	<path class="st4" d="M208.9,486.4c0.6,1,1.1,2.2,1.7,3.2c1.4,2.8,3.3,5.3,5.1,7.8c0.6,0.7,1,1.6,2.3,1.5c0.5-1.4,0.9-2.7,1.4-4.1
		c1-2.3,2.5-3.8,5.1-4.3c1-0.2,1.8,0,2.7,0.5c2.4,1.4,3.6,3.6,4.4,6.1c1.1,3.7,2.9,7,4.7,10.4c1.3,2.4,2.5,4.8,3.5,7.4
		c1,2.6,2.3,4.9,4.3,6.9c4.8,5,9.6,10.1,14.4,15c2.7,2.7,5.5,5.2,8.8,7.3c2.7,1.7,5.4,3.1,8.4,3.9c2.7,0.7,2.8,0.6,3.2-2.3
		c0.1-0.6,0.2-1.4,0.3-2c1.4-5,3.9-7.2,9.3-7.4c2.9-0.1,5.6,0.6,8.2,2c1.8,1,3.7,1.7,5.7,2.2c1.4,0.3,2.7,0.2,3.4-1.4
		c0.5-1,1.2-1.8,2.2-2.5c-2-1.3-3.7-2.8-5-5c-0.6-1-1.4-2-2-3.1c-0.9-1.3-1,6.4-23.1,4.1c-3.5-0.3-16.9-12.4-20.2-14.9
		c-6.1-4.6-11.3-10.1-16.2-15.9c-1.5-1.8-3.2-3.6-4.7-5.6c-3.9-5.7-5.8-12.1-7.2-18.8c-0.1-0.5-0.2-1-0.2-1.4
		c-1.3-0.4-2.5-1-3.8-1.4c-1.2-0.5-2.1-1.2-2.7-2.3c-3.3-6.4-6.4-13-7.4-20.2c-0.9-6.6-0.7-13.3,0.9-19.9c1.6-6.4,3.1-12.9,5.5-19.1
		c0.4-1.1,0.7-2.3,0.9-3.5c0.8-4.2,1.9-8.2,3.2-12.2c1-2.9,2.3-5.5,4.1-8c1.8-2.3,3.3-4.7,4.6-7.2c0.3-0.6,0.6-1.2,1-1.8
		c8.4-11.6,17.7-22.4,30.3-29.8c5.9-3.5,11.8-6.7,18.4-8.6c1.8-0.6,3.8-1.4,5.9-1c0,1.1-0.8,1.5-1.4,2.1c-16.2,15-28.4,33.2-39,52.4
		c-1.6,3-3.1,6-4.4,9.1c0.1,0.2,0.2,0.4,0.2,0.6c0.2,0.6,0.4,1.3,0.4,2c-0.1,5.7,3.9,8.3,8.2,10.5c1.2,0.6,2.3,0.3,3.5-0.2
		c3.5-1.7,7.2-3.4,10.3-5.7c1.8-1.3,3.4-2.7,5.1-4c1.6-1.2,3.1-2.7,5.3-2.7c1.4,0,1.9-0.9,2.3-1.9c1.4-3.9,3.4-7.4,5.5-10.9
		c2.7-4.5,6.2-8.3,10.9-10.9c2.9-4.1,6.1-8,9.7-11.7c8.4-8.9,17.5-17.1,27-24.9c9.8-8.1,20.6-14.6,32.7-18.7c0.5-0.2,1-0.5,1.8-1
		c-0.8-0.4-1.2-0.6-1.5-0.7c-1.4-0.5-2.8-0.9-4.2-1.5c-1.2-0.6-2.3-0.5-3.5,0.1c-10.9,4.7-21.2,10.4-30.1,18.5c-1.1,1-2.3,2-3.4,2.9
		c-0.9,0.6-1.8,1.4-2.7,1.8c-2.7,1.4-5.5,0.6-7.2-1.9c-1.4-2.3-1.5-4.7-0.7-7.1c0.8-2.7,2.3-4.9,4.2-6.9c1-1,2-2.2,3.1-3.2
		c2.6-2.6,1.8-7.1-2.1-8.8c-4-1.8-8-2.3-12,0.5c-0.6,0.4-1.1,0.7-1.7,1.1c-2.4,1.6-5,2.7-7.7,3.5c-5.2,1.6-10.6,2.1-16,2.7
		c-0.2,0-0.3,0-0.4,0c-0.4-0.2-0.7-0.5-0.6-0.9c0.2-0.6,0.5-1.3,0.8-1.8c2.2-3.7,5.2-6.6,8.7-9.1c3.9-2.8,7.6-5.6,11.5-8.4
		c0.8-0.6,1.3-1.4,1.3-2.4c0.2-3.9-0.1-7.9-1-11.7c-0.2-1.1-1-1.5-2.2-1.1c-3.5,1.2-7,2.3-10.4,3.6c-5.3,2.2-10.1,5.3-14.3,9.2
		c-3.2,3.1-6.3,6.4-9.2,9.8c-5.5,6.6-10.4,13.6-12.1,22.4c-0.2,1.4-0.9,2.6-1.8,3.6c-2.5,3-6.8,2.7-8.9-0.4c-1.2-1.8-1.9-3.9-2.3-6
		c-0.2-1-0.3-1.8-0.5-2.8c-0.2-0.8,0.1-1.8-0.6-2.6c-1,0.6-1.1,1.4-1.4,2.2c-1,3.1-2,6.2-2.8,9.3c-1.2,4.7-3,9-5.3,13.2
		c-2.7,4.7-5.2,9.5-7.6,14.4c-5.6,11.5-10.7,23.2-13.2,35.9c-0.5,2.3-1,4.5-1.5,6.8c-2,9.3-4,18.6-4.7,28.1
		c-0.4,4.9-0.6,9.7-0.9,14.6c-0.4,5.7-0.3,11.4,0.2,17.1C204.3,474.9,205.3,481,208.9,486.4z"/>
	<path class="st4" d="M385.7,530.5c6.8,3.5,13.6,6.8,20.3,10.3c3.1,1.5,6.3,2.6,9.5,3.6c0.6,0.2,1.3,0.4,1.9-0.4
		c-1-2.1-2.2-4.3-3.3-6.4c-1.9-3.8-3.5-7.7-3.7-12c-0.1-1.4-0.6-2.7-1-3.9c-1.6-4.4-2.3-8.9-1.4-13.6c0.4-2.3-0.1-4.3-1.1-6.3
		c-0.9-1.7-1.6-3.5-2.3-5.2c-3.5-8.6-3.5-17.5-2.7-26.5c0.8-9.4,4.4-18.2,8.4-26.7c2.5-5.4,7.1-8.8,12.4-11.3c1.8-0.9,3.7-1,5.1,0.8
		c0.7,0.9,1.5,1.6,2.7,1.7c2.3,0.2,4.5,0.5,6.8,0.4c0.9-0.1,1.8-0.2,2.6-0.3c6-1.4,11.9-3.2,17.3-6.2c1.5-0.8,3-1.7,4.4-2.7
		c2-1.4,4-2.9,6.3-3.9c2.7-1.1,3.5-3.1,4.1-5.6c0.3-1.4,0.5-3,0.3-4.4c-0.2-2.2-1.1-3.3-3.3-3.3c-2.2-0.1-4.3-0.5-6.4-0.9
		c-2.3-0.4-4,0.5-5.1,2.4c-0.7,1.3-1.4,2.7-1.9,4c-1,2.6-2.5,4.8-4.3,6.9c-3.1,3.7-6.1,4.1-10.4,1.6c-2.7-1.6-5.8-2.1-8.7-3.3
		c-3.9,0.5-7.9,0.2-11.6,1.8c-4,1.7-8,3.6-11.5,6.1c-7.4,5.3-12.9,12.1-14.6,21.3c-0.5,2.6-0.9,5.1-1.1,7.6
		c-0.5,4.4-0.9,8.9-1.3,13.4c-1.1,12.1-0.9,24.1,3,35.9c0.5,1.4,1,2.8,0.7,4.6c-2.7-1.5-5.5-2.7-7.2-5.2c-1.9-2.7-3.6-5.4-4.7-8.5
		c-0.8-2.3-1.5-4.6-2.3-7c-0.4,0.1-0.9,0.1-1.4,0c-2.1-0.2-4.2-1.3-5.2-3.5c-1.6-3.3-3.7-6.3-5.8-9.3c-0.3-0.5-0.6-1-0.9-1.4
		c-1.6-2.2-2.2-2-3.9-0.5c-1.2,1.1-2.6,2-3.8,3c-0.4,0.3-0.7,0.6-1.1,0.8c1.9,7,4.6,13.8,8,20.3c1,2.1,1.9,4.2,2.7,6.4
		c0.5,1.3,0.2,2-1,2.7c-1.8,1.2-3.9,1.1-5.9,0.6c-2.7-0.6-5.1-1.9-7.2-3.7c-3.7-3.2-7.1-6.8-9.8-10.9c-3.7-5.5-7.2-11.2-10-17.2
		c-0.6-1.4-1.4-2.7-2.1-3.9c-0.5-0.8-1.2-1-2.1-0.6c-0.2,0.2-0.5,0.2-0.7,0.4c-3.4,2.3-3.9,1.4-5.6-1.8c-2.2-4.1-3.4-8.6-4.3-13.1
		c-2-9.5-1.5-18.9,0.5-28.3c1.6-7.4,4-14.6,7-21.6c1.6-3.8,3.8-7.2,6.2-10.5c0.3-0.4,0.6-0.7,1-1c0.3-0.5,0.6-0.9,1-1.4
		c2.2-3.1,4.6-6.1,7.4-8.6c2.3-1.9,4.6-3.9,7.3-5.1c2.3-1,4.7-1.1,7.1-0.2c3.2,1.4,4.4,4.3,4.7,7.5c0.3,2.9-0.6,5.6-1.3,8.4
		c-1.1,4.9-2.3,9.7-3.5,14.6c-0.1,0.4-0.1,0.8,0.4,0.9c0.2,0,0.6-0.2,0.6-0.3c1.6-2.7,3.9-4.5,6.6-5.8c2-1,4-1.7,6.3-1.1
		c1.1,0.3,1.8-0.2,2.3-1c0.8-1.3,1.6-2.5,2.5-3.7c3.1-4.3,6.8-8,10.9-11.3c-2.4-1.4-3.4-4.3-1.8-7.2c1-2.1,2.6-3.8,4.4-5.2
		c1.9-1.5,3.9-2.9,6-4.3c2-1.4,3.5-3.3,4.9-5.6c-1.1-0.2-1.8-0.2-2.7-0.4c-3-0.7-4.4-3.3-3.6-6.3c0.5-1.6,1.4-3,2.6-4.1
		c1.1-1,2.3-2,3.5-2.8c4.1-2.7,7.9-5.8,12.3-8c1.1-0.6,1.2-1.2,0.7-2.3c-1.1-2.4-0.3-4.5,1.1-6.4c1-1.3,2.3-2.4,3.5-3.3
		c1.1-0.7,1.7-1.7,1.9-3c0.9-4.2,3-7.9,4.8-11.7c0.4-0.8,0.9-1.8,1.6-2.3c4.2-3.3,8.4-6.5,13.4-8.5c5.5-2.1,10.9-4,16-6.9
		c1.6-1,3.5-1.6,5.2-2.2c9.5-3.1,19.2-3.4,29-2.8c6.5,0.4,12.9,1.8,19.4,2.5c6.5,0.7,12.1,3.2,16.9,7.4c2.5,2.2,5.2,3.9,8,5.5
		c3.2,1.8,6.4,3.5,9.8,5c4.3,2,8,5,12,7.7c2.7,1.8,2.7,5,0.6,7.5c-0.4,0.5-0.9,1-1.4,1.4c-2.6,1.8-3.3,4.6-3.6,7.5
		c-0.2,1,0.3,1.5,1.4,1.4c3.4-0.5,6.8-0.5,10.1,0.1c8.8,1.4,16.2,5.5,21.7,12.5c2.8,3.6,5.1,7.6,7,11.9c0.6,1.5,1.1,3.1,1.6,4.6
		c0.2,0.6,0.2,1.3,0.2,1.9c0.2,0.1,0.5,0.2,0.6,0.3c4.7,2.4,9.6,4.4,13.9,7.6c1.1,0.8,2.3,1.6,3.4,2.4c0.1,0,0.1-0.1,0.2-0.1
		c0.7-0.3,1.5-0.5,2.3-0.5c2.2-0.1,4.3,0.3,6.4,1.2c0.6,0.2,1.1,0.8,2-0.1c-0.8-2.7-1.5-5.6-3.1-8.2c-4.2-7.2-9.2-13.8-15.1-19.7
		c-2.1-2-4.3-3.6-7-4.8c-2.3-1-4.6-2.3-6.8-3.6c-2-1.1-3.8-2.7-4.6-5c-0.2-0.7-1.2-1.1-1-2.1c1-1.6,2.6-2.7,4.3-3.6
		c-0.2-0.6-0.3-1.2-0.6-1.6c-3.5-4.5-6.8-9.2-11.3-12.7c-3.8-2.8-7.8-5.5-11.6-8.4c-3.3-2.5-6.7-4.7-10.5-6.1
		c-3.1-1.1-5.2-3.2-6.6-6.3c-0.6-1.5-1.4-2.9-2.3-4.3c-2.5-4.5-6-8-10-11.2c-4.1-3.2-8.9-3.7-13.8-4.4c-1.6-0.2-2.8,0.3-3.9,1.7
		c-1.3,1.6-2.9,2.9-4.2,4.4c-0.9,1.1-1.9,1.4-3.2,1.3c-3.5-0.3-6.7-1.5-9.4-3.6c-3.4-2.7-7.2-4.3-11-6.1c-3.9-1.9-8.2-2.7-12.6-2.9
		c-4.1-0.2-7,1.7-9.2,5c-0.5,0.8-0.9,1.7-1.3,2.6c-0.7,1.8-1.4,3.5-2.2,5.3c-1.4,3.5-3.7,4.7-7.4,4.3c-1.2-0.2-2.4-0.4-3.6-0.7
		c-2.6-0.8-5.1-0.7-7.6-0.4c-2.2,0.2-4.2,1-5.9,2.5c-2.2,1.9-4.4,3.6-6.6,5.5c-2.1,1.8-4.4,3.1-7,4.1c-4.3,1.6-8,4.1-11.1,7.5
		c-1,1-2.1,2.2-3.1,3.2c-4.3,4.4-8.4,8.8-12.7,13.2c-0.7,0.8-1.6,1.4-2.4,2.3c-1.4,1.3-2.9,1.8-4.8,1.8c-4.6,0.1-9.2,0.6-13.8,1.4
		c-5.9,1.1-11.1,3.5-15.5,7.6c-1.7,1.6-3.4,3.1-5.1,4.7c-0.5,0.5-1,0.9-0.7,1.8c1.2,0.5,2.4,0,3.6,0.1c2.7,0.2,5.5,0.3,7.9,1.8
		c3.1,1.8,3.1,5.5,0,7.2c-1.6,0.9-3.5,1.4-5.3,2.1c-2,0.7-4.1,1.4-6.1,2.2c-2.7,1-5.2,2.3-7.8,3.5c-1.6,0.7-3.2,1.4-4.7,2.5
		c-5.8,4.5-11.4,9.2-16.5,14.6c-3.9,4.2-7.2,8.8-9.7,14c-1.3,2.7-2.5,5.4-3.7,8.2c-5.1,12-7,24.5-6,37.5c0.6,9,3.3,17.6,6.4,26.1
		c2.1,5.8,5.6,10.9,8.3,16.3c0.1,0.2,0.3,0.5,0.5,0.6c0.5,0.6,1,0.9,1.7,0.3c1-0.8,1.8-1.8,3.2-1.3c1.3,0.4,1.8,1.5,2.5,2.6
		c0.6,1,1,1.9,1.6,2.8c1.4,2.3,3,4.5,4.8,6.5c6.3,6.7,13.5,12.2,20,18.5c0.5,0.5,1,0.9,1.6,1.2c6.8,4.6,13.4,9.2,20.2,13.8
		C383.5,529.3,384.6,530,385.7,530.5z"/>
	<path class="st4" d="M417.4,249.3c-6.4-8.6-15-14.4-24.6-18.9c-0.9-0.4-1.8-0.7-2.7-0.9c-5.5-0.9-11.1-1-16.5,0.7
		c-6.7,2.2-12.6,5.6-18.2,9.8c-6,4.5-10.9,10.3-15.5,16.1c-0.2,0.3-0.5,0.6-0.7,1c-3.3,4.7-4.7,10-5.1,15.7c0,0.6,0,1.1,0.2,1.6
		c0.1,0.2,0.2,0.5,0.5,0.6c0.2,0.1,0.6,0,0.7-0.2c2-3.7,4.2-7.3,6-11.1c2.2-4.6,5.1-8.6,8.8-12.1c1.6-1.4,3.2-2.9,4.9-4.3
		c5.4-4.7,12-6.8,18.8-8.2c0.6-0.1,1-0.2,1.6-0.2c3.7,0.1,7.3,0.1,11,0.4c8.4,0.7,15.7,4.3,22,9.7c3.9,3.4,7.3,7.2,8.8,12.5
		c0.6,2,1.5,3.9,3,6c1.1-2.9,1.5-5.5,0.9-8.2c-0.3-1.2-0.6-2.4-0.7-3.6C420.2,253.3,418.9,251.3,417.4,249.3z"/>
	<path class="st4" d="M631.4,439.7c1.4-1.1,2.9-1.3,4.6-0.6c1,0.5,1.8,1.1,2.7,1.8c1.5,1.6,2.7,3.5,3.5,5.5c1,2.3,1.7,4.8,2.3,7.4
		c0.2,1,0.3,2.3,1.4,3.5c0.4-1.8,0.7-3.1,1-4.4c0.3-1.8,0.5-3.8,0.8-5.6c0.7-3.9,3-5.9,6.9-6.2c0.2,0,0.6,0,0.8,0
		c1.5-0.2,2.3-0.7,2.4-2.3c0.2-1,0.2-2.2,0.1-3.2c-0.2-3.5-0.3-7.1-0.6-10.6c-0.6-5.8-1-11.7-2.7-17.3c-2.2-6.8-4.3-13.8-6.5-20.6
		c-1.1-3.5-2.6-6.8-3.9-10.3c-3.4-8.3-9.2-14.6-15.4-20.8c-1.4-1.4-3.2-2.5-5.1-3.5c-0.3-0.2-0.7-0.3-1.1-0.3
		c-0.2,0-0.5,0.4-0.5,0.4c0.4,0.7,0.7,1.4,1.3,2.1c2.1,2.3,3.9,4.8,5.7,7.5c7.1,10.6,12,22.2,15.7,34.3c0.2,0.6,0.3,1.3,0.5,2
		c0.7,3.5,1.5,6.9,2.2,10.4c0.5,2.7,1.3,5.3,1.1,8c-0.1,1-0.1,1.8-0.6,2.7c-0.5,0.7-1.2,1.1-1.9,1c-1.1,2.9-3.9,3.7-6.6,1.7
		c-1.1-0.8-2-1.8-2.7-3c-0.6-1.1-1.7-1.8-2.9-2.1c-2.1-0.3-3.9-1.3-5.7-2.1c-1.1-0.5-2.3-1-3.5-1.3c-2.9-0.8-5.4,0.1-7.4,2.1
		c-1.9,1.9-2.3,4.3-1.1,6.8c1.2,2.7,2.1,5.5,2.9,8.4c1.4,5.3-2.4,8.9-6.9,9.3c-2.9,0.3-5.7-0.3-8.4-1.1c-1.7-0.5-3.4-1-5.1-1.6
		c-0.6-0.2-1.3-0.6-1.9-0.2c-0.7,0.6-0.2,1.2,0,1.8c0.4,1.4,0.8,2.9,1.4,4.3s1.3,4,1.6,7.2c0.8,6.9-0.1,15.8-8.7,16.3
		c-0.9,0.1-3.1-2.3-5.4-5.2c-0.1-0.1-0.2-0.1-0.3-0.2c-1.7-1.3-2.7-3-3.5-4.9c-0.3-0.7-0.6-1.4-1-2.3c-0.1-0.2-0.2-0.4-0.2-0.6
		c-1-2.2-1.9-4.3-2.7-6.6c-1.5-3.9-3.6-7.6-6.3-10.9c-1.8-2.3-3.6-4.8-5.5-7.1c-1.4-1.8-3.1-3.5-4.7-5.1c-3.5-3.1-7-6-10.6-8.9
		c-2.3-1.8-4.9-3.4-7.4-5.1c-0.4-0.3-1-0.6-1.4,0.2c1,2.2,2.4,4.2,3.9,6.1c1.5,2.1,3.1,4.1,4.6,6.3c0.6,1,1.2,2.1,1.7,3.2
		c0.1,0.2-0.1,0.6-0.2,0.7c-0.2,0.1-0.6,0.1-0.7-0.1c-0.9-0.6-1.7-1.3-2.6-2c-4.2-3.5-8.6-6.7-13.9-8.3c-0.9-0.2-1.8-0.7-2.7-1.1
		c-3-1.4-6-2.5-9.2-3.2c-5.9-1.3-11.7-2.4-17.5-3.7c-1-0.2-1.6,0.2-2.2,0.7c-0.8,1-1.4,2-1.4,3.3c0,1.4,0.1,2.7,0,4.1
		c-0.1,1.5,0.5,2.4,1.9,3.1c2.5,1.1,5,2.3,7.1,4c3.9,3.2,8.3,5.1,12.8,7.1c1.8,0.8,3.9,1.4,5.5,2.5c3.3,1.8,6.8,2.6,10.5,2.7
		c2.9,0.1,5.4,1,7.6,2.6c5.7,4.1,10.7,8.8,13.6,15.4c2.1,4.8,4.2,9.7,6.4,14.6c3.9,8.8,6.1,18,6.8,27.6c0.6,7.8,0.3,15.5-0.9,23.2
		c-1,6.2-2.6,12.2-3.9,18.3c-0.2,1-0.4,2.1-0.5,3.2c-0.1,0.4,0.1,0.8,0.5,1s0.9,0.1,1.1-0.2c0.7-0.8,1.4-1.6,2.2-2.4
		c3.9-4.6,6.4-10.1,9.2-15.4c1.5-3,2.5-6,2.6-9.3c0.1-3.4,0.5-6.8,0.7-10.1c0.1-1.4,0.4-2.7,1-3.9c1-2.1,2.9-2.7,5.1-2
		c1.6,0.6,2.9,1.4,3.8,2.9c1,1.6,1.8,3.4,2.4,5.1c1.7,4.4,3.5,8.8,5.1,13.3c0.5,1.1,1,2.3,1.6,3.3c0.3,0.5,0.5,1.4,1.4,1.2
		c0.6-0.1,0.7-0.7,0.9-1.3c0.5-1.4,0.9-2.8,1.4-4.3c0.6-1.9,1.1-3.9,1.8-5.9c0.9-2.7,1.5-5.5,1.8-8.4c0.3-3.6,0.5-7.3,1-10.9
		c0.8-6,0.6-11.9,0.7-17.9c0.1-2.5-0.3-4.8-1-7.2c-1.3-4.3-2.5-8.6-4.4-12.7c-0.6-1.2-1-2.5-1.3-3.9c-0.2-1.3,0-2.5,1.2-3.2
		c1.2-0.8,2.3-0.5,3.4,0.2c1.4,1,2.7,2.3,3.5,3.9c0.7,1.4,1.5,2.9,2.4,4.3c7.2,10.5,12.2,22.1,14.8,34.6c0.2,1.3,0.6,2.6,1,4
		c0.5-0.3,1-0.5,1.2-0.7c1.5-2,2.2-4.3,2.4-6.8c0.6-7.9,0.1-15.8-0.5-23.6c-0.4-5.7-1.5-11.3-3.4-16.7c-0.5-1.3-1.1-2.5-1.5-3.8
		C629.8,442.4,630.1,440.8,631.4,439.7z"/>
	<path class="st4" d="M668.6,574.3c-0.2-0.1-0.6,0.1-0.7,0.2c-0.5,0.5-0.9,1-1.3,1.6c-4.5,6-9,11.9-14.4,17.1
		c-4.6,4.4-9.3,8.7-15.4,11.2c-3.6,1.5-7.2,2.3-10.9,1.6c-0.9,1.7-1.8,3.3-2.7,5c-2.9,5.4-6.2,10.5-10.3,15.1c-2.3,2.7-5,5-8.1,6.8
		c-1.9,1-3.9,1.8-6.2,1.7c-3.5-0.2-6-2.2-6.6-5.5c-0.3-1.8-0.4-3.8-0.5-5.7c-0.2-3.5-0.1-7.1,0.2-10.6c-2.2-1-4.4-1.8-6.4-3.4
		c-2.3-1.8-3.6-4.3-4.3-7.2c-1-3.8-1.7-7.6-3.1-11.3c-1-2.8-2.8-5.3-4.4-7.8c-0.9-1.4-2-1.3-2.9,0.1c-2.5,3.9-4.6,8-6,12.4
		c-0.9,2.8-1.8,5.7-2.4,8.6c-2.1,8.9-5.5,17.3-10.6,24.9c-2.7,3.9-6,7.4-10.8,9c-3.9,1.3-7.7,1.3-11.6,0.3c-1-0.2-1.9-1-3.3-0.6
		c3.5,4.9,7.2,9.6,11.7,13.6c5.2-0.8,10.5-0.6,15.6,0.2c4.4,0.8,8.7,2.3,12.4,4.9c3.5,2.5,4.7,6,4.5,9.2c-0.2,3.1-1.6,6-3.8,7.8
		c-1.4,1.1-2.8,2.2-4.4,2.9c-2.5,1.2-5.1,2.1-7.7,2.6H577h70.6h10.5c0.2-0.2,0.5-0.3,0.7-0.5c0,0,0,0,0.1-0.1
		c1.1-0.8,2.3-1.7,3.3-2.6c0.6-0.6,1.2-1.1,1.8-1.7l0.1-0.1c0.2-0.3,0.5-0.6,0.8-1c1.4-1.8,2.7-3.7,4-5.6c-2.3,0-4.7,0-7-0.1
		c-4.3-0.2-8.7-0.6-12.9-1.7c-3.9-1-7.6-2.7-10.6-5.7c-0.9-0.9-1.5-1.8-2.1-2.9c-2.9-2.3-4.2-5.7-3.4-9.3c0.6-2.5,1.9-4.5,4-6
		c0.4-0.3,0.8-0.6,1.3-0.8c0.2-0.2,0.3-0.5,0.5-0.6c4-5,8.6-9.4,13.1-13.9c1.8-1.8,3.7-3.5,5.2-5.6c3.5-4.7,5.5-10,7-15.4
		c1.7-5.7,2.4-11.7,3.5-17.5c0.6-3.6,0.4-7.3,1.4-10.9c0.2-0.6,0.1-1.4,0-2C669,574.6,668.8,574.4,668.6,574.3z"/>
	<path class="st4" d="M771.4,593.7c4.4-0.8,8.8-1.4,13.3-1.9c6.4-0.7,12.7-1,19.1-1c-0.4-0.4-0.7-0.9-1-1.4
		c-1.1-1.7-2.7-2.6-4.3-3.5c-7.5-3.6-13.1-9.2-16.3-16.9c-1-2.4-1.9-4.7-2.9-7.2c-1.4-3.5-2.7-7-3.5-10.5c-0.4,1.7-1,3.4-2.1,4.7
		c-0.7,0.9-0.9,1.9-0.8,3.1c0.2,1.9,0,3.8,0.5,5.6c0.6,2.7,0.3,5.4,0.3,8.1C773.4,580,772.9,586.9,771.4,593.7z"/>
	<path class="st4" d="M223.5,277.8c1.4,5.3,3.5,10.2,6.4,14.8c0.1-0.9,0.2-1.7,0.4-2.6c1.4-5.5,4-10.5,7.4-15c-0.6-2.9-1-6-1-9.2
		c0.2-4.7,1-9.9,2.4-15c2.2-7.6,4.6-15.1,7.4-22.4c1.3-3.3,2.8-6.5,4.5-9.6c1.4-2.5,1.8-5,1.5-7.8c-0.6-5-0.6-10.1,0.1-15
		c0.7-5.9,2.1-11.5,4.5-16.9c1.5-3.4,2.6-6.9,3-10.5c0.3-2.8,1-5.5,1.9-8c-0.2-1-0.3-2.2-0.4-3.3c-0.1-4.7,0.9-9.2,2.1-13.6
		c0.9-3.3,2.3-6.4,3.9-9.3c2.5-4.7,5.1-9.3,8.3-13.4c5.4-6.9,11.7-12.7,19.9-16.4c3.5-1.6,7.2-2.2,11-2.7c2.7-0.3,5.1,0.6,7.2,2.3
		c2.6,2,3.3,4.6,3.1,7.3h0.1c1.8-0.6,3.7-0.7,5.6-0.7c1,0,1.8,0.3,2.7,1c1.6,1.2,2,3.1,0.6,4.7c-1.2,1.4-2.7,2.7-4.1,3.9
		c-2.5,2.1-5,4.2-7.1,6.8c-4.3,5.1-7.6,10.9-10.7,16.8c-1.8,3.6-3.6,7.3-5.5,10.9c-1,1.9-2,3.9-3.2,5.6c-4.3,6.5-7.5,13.6-9.7,21
		c-2.9,9.6-2.7,19.3-0.3,29c1.4,5.3,4.3,9.2,9.5,11.5c1.8,0.8,3.6,1.9,5.2,3.1c0.7,0.6,1.4,1.3,1.8,2.2c0.2,0.6,0.4,1.1,0.4,1.6
		c1-0.2,2.2-0.5,3.2-0.6c1.9-0.3,3.2-1.1,4.2-2.8c3.4-5.9,8.1-10.5,13.3-14.7c3.1-2.5,6.1-4.9,8.8-7.7c-3-2-4.9-5.5-4.8-9.7
		c0.2-2.4,1.2-5,3-7.3c1.5-2.1,3.5-3.7,5.8-5.1c6.4-4.1,13.5-6.4,20.8-7.9c8.3-1.8,16.6-2.7,25.1-1.8c4,0.4,8.1,0.9,12.1,1.4
		c4.4,0.6,8.8,1.3,13.3,2.3c3.5,0.8,7.1,2,10.5,3.1c4,1.3,7.1,4,9.7,7.2c1,1.3,1.8,2.7,1.3,4.5c-0.2,0.6-0.5,1.2-0.9,1.7
		c2.2,1.4,3.9,3.3,5.5,5.3c2.6,3.3,8.8,3.1,12.1,5.5c2.6,1.9,11.3,10.3,12.5,13.9c1.1,3.4,8.8,7.6,12.9,7.4c0.5,0,0.9-0.1,1.2-0.2
		c0.1-0.1,0.2-0.1,0.3-0.2c2.5-1.7,4.9-3.4,7.1-5.4c0.2-0.2,0.4-0.4,0.6-0.6c-0.6-0.6-1.3-1.2-1.8-2c-2.7-3.7-4.8-7.9-6.8-12.1
		c-0.7-1.4-1.4-3-1.9-4.5c-0.6-1.6,0-3.1,1.3-3.9c1.3-0.9,2.6-0.7,3.8,0.2c0.6,0.5,1.2,1,2.5,2.1c0.1-2.5,0.2-4.3,0.2-6
		c-0.1-2.5,0.4-4.8,0.8-7.2c0.7-4.2,6.6-6.3,10-3c1,1,1.8,2,2.4,3.3c0.2,0.5,0.6,0.9,0.8,1.4c1-0.2,1.1-0.9,1.3-1.4
		c0.6-2.3,1.1-4.7,1.8-7.1c0.8-3.1,1.6-6,2.5-9c0.8-2.5,2.1-4.7,3.8-6.7c2.3-2.7,5.6-2.3,7.4,0.8c0.6,1,1,2.3,1,3.5
		c0.2,2.3,0.4,4.6,0.3,6.9c-0.4,6.9-0.6,13.8-1.9,20.7c-0.2,0.6-0.2,1.4-0.2,2c-0.2,0.9,0.1,1.6,1.1,1.8c0.4,0.1,0.8,0.2,1.2,0.2
		c2.3,0.5,3.7,3.1,3.4,5.3c-0.1,0.6-0.2,1.4-0.4,2c-1,3.4-1.4,6.9-1.7,10.5c-0.1,0.6-0.1,1.1-0.2,1.6c-0.5,1.8-1.6,2.9-3.5,3.1
		c0.3,0.3,0.7,0.7,1,1.1c1.2,1.4,2.2,3.1,3.2,4.7c1.2,1.8,1.1,1.8,3.2,1.4c2-0.4,4-0.7,6-1c1-0.2,2.3-0.3,3.2,0.1
		c2.7,1.1,3.9-0.3,5.1-2.3c3.5-5.5,7.2-10.9,11.1-16c1.5-2,3.1-3.5,5.1-4.2c0.2-0.4,0.3-0.8,0.4-1.2c0.2-1.2,0.9-1.9,1.7-2.7
		c2.7-2.3,5.8-4,9.1-5.3c6.9-2.8,14-5.2,21.2-7.4c12.4-3.7,25-5.1,37.9-3.9c11.3,1,22.2,3.9,33.1,6.8c0.8,0.2,1.5,0.5,2.3,0.9
		c3.1,1.6,3.6,5,1.4,7.6c-0.8,0.9-2.1,1.3-2.6,2.4c0.1,0.2,0.2,0.3,0.2,0.4c0.9,0.4,1.7,0.8,2.6,1.2c9.6,3.9,18.1,9.4,25.3,16.9
		c4.3,4.4,8.3,9,12.3,13.6c3.1,3.5,5.6,7.3,7.7,11.4c2.7,5.1,4.5,10.5,4.7,16.3c0.1,1,0.2,1.8,0.5,2.8c0.6,2.8,0.5,5.7,0.1,8.5
		c-0.3,2.3-1.3,4.2-3.7,4.9c-2.2,0.6-4-0.2-5.5-1.7c-1.6-1.6-3.2-3.3-4.8-4.9c-3.3-3.3-7.2-5.8-11.1-8.2c-3.5-2.1-6.9-2-10.3,0.3
		c-0.6,0.5-1.4,1-2.1,1.2c-1.8,0.7-3.5,0.6-5-0.6c-0.6-0.5-1.2-1.1-1.8-1.7c-3.5-3.6-6.9-7.3-10.4-10.9c-2.4-2.6-5.1-4.8-8.2-6.7
		c-6-3.6-12.2-6.5-18.9-8.4s-13.5-2.8-20.4-3.5c-3-0.3-5.6,0.2-8.4,1c-4.7,1.5-8.3,4.5-11,8.5c-2.3,3.5-4.6,7.1-6.9,10.6
		c-0.4,0.6-1,1.3-0.8,2.1c1-0.2,1.5-1,2.3-1.5c1.7-1.4,3.2-3,4.9-4.3c8.8-6.9,18.7-10.3,30.1-8.7c7.7,1.1,15.1,3.1,22.1,6.7
		c7.6,3.9,13,9.8,15.8,17.8c1.2,3.5,3.1,6.4,5.4,9.2c1,0.2,1.8,0.2,2.8,0c2.9-0.8,6-0.6,8.9-0.6c2.1,0,4,0.7,5.8,1.8
		c1.2,0.7,2.1,1.6,2.7,2.6c2.5,0.6,4.8,1.6,7.2,2.7c1.7,0.9,3.5,1.5,5.3,2c8.7,2.3,17,5.8,24.9,10.1c3.6,1.9,6.9,4.3,9.7,7.4
		c3.2,3.5,6.7,6.8,9.3,10.8c0.6,0.8,1.2,1.4,2,2c3.3,2.2,6.6,4.3,9.9,6.4c3.1,1.9,6.5,3.3,10.2,3.9c5,0.8,6.4-0.9,8.2-4.8
		c0.2-0.5,0.4-1,0.5-1.5c0.5-3,1.5-5.8,2.6-8.6c0.6-1.7,1-3.4,1.2-5.1c0.3-3.2,0.6-6.5,1-9.7c0.7-5.5,2-10.9,3.2-16.4
		c1.2-5.1,2.6-10.3,2.8-15.6c0.8-13.8,0-27.4-3.1-40.9c-1.3-5.7-2.7-11.3-3.7-17.1c-1.4-8.5-4.2-16.6-8.1-24.2
		c-5.1-10.1-10.2-20.1-15.4-30.2c-1-2.1-2.2-4.1-3.4-6c-4.7-7.5-8.6-15.4-14.3-22.3c-0.3-0.4-0.6-0.9-0.9-1.4
		c-4.5-6.8-9.3-13.4-15-19.2c-2.3-2.4-4.7-5-6.8-7.6c-2.9-3.4-6-6.6-9.3-9.7c-11.1-10.7-24-18-39.2-21.3c-3.2-0.7-6.4-1-9.7-1
		c-3.4,0.1-6.8,0.3-9.7,2.3c-2.1,1.4-4.4,1.2-6.6-0.1c-2-1.2-3.9-2.5-5.7-3.9c-2.9-2.3-6.1-4-9.5-5.5c-4.6-2-9.2-4-13.8-6.2
		c-8.6-4.1-17.6-7.2-27.1-8.6c-4.8-0.7-9.7-1.1-14.6-1.8c-9.3-1.1-18.7-1.7-28.1-0.5c-6.4,0.8-12.6,1.8-18.7,3.8
		c-3.8,1.2-7.4,2.7-10.9,4.3c-3.4,1.6-7,2.3-10.7,1.4c-4.7-1-9.2-2.1-13.8-3.4c-9.7-2.6-19.5-4.6-29.7-5.2
		c-8.8-0.6-17.6,0.2-26.5,1.1c-5.3,0.6-10.5,1.4-15.6,3c-15,4.6-27.7,12.9-40.4,21.7c-0.6,0.5-1.4,0.9-1.5,1.8
		c-0.2,1.7-1.2,2.3-2.8,2.3c-0.6,0-1.4,0.2-1.9,0.6c-1.7,1.2-3.5,1.1-5.5,0.8c-1.8-0.2-3.5-0.3-5.3-0.2c-15.6,1.2-30,6.2-43.1,14.7
		c-12,7.9-22.6,17.4-31.7,28.6c-4.9,6-8.7,12.5-11.1,19.8c-1.8,5.1-4,10.1-6.6,14.9c-2.9,5.4-5.5,10.9-7.5,16.7
		c-1,3.1-1.8,6.3-2,9.6c-0.4,4.3-1,8.6-0.9,13c0,1.1-0.3,2.1-1,3c-1,1.1-1.9,2.3-2.9,3.5c-2.9,3.3-5.1,7-7.2,10.9
		c-7.6,14.4-10.6,29.8-11.3,45.9c-0.2,3.5-0.2,7.1,0.2,10.6C220.4,264.6,221.7,271.2,223.5,277.8z M660.2,116.5
		c0.4-0.2,0.8-0.3,1.1-0.3c3.9-0.6,7.9-1.2,11.8-0.3c0-0.2,0-0.5,0.1-0.7c0.5-2.9,3.9-5.8,7.3-6.2c1.2-0.2,2.4,0,3.2,0
		c4.3-0.5,8,0.9,11.3,2.5c9.9,4.5,18.3,10.9,25.1,19.5c4.1,5.1,7.8,10.4,10.7,16.2c1.1,2.3,1.9,4.7,1.7,7.4
		c-0.2,1.7-0.6,3.4-1.2,4.9c2.1,2.6,3.9,5.4,5.3,8.4c3.9,8,8,16.1,11.3,24.4c2.5,6.2,3.9,12.7,5.2,19.2c1.4,7.2,2.4,14.5,3.6,21.7
		c1.1,6.8,1.6,13.8,1.4,20.8c-0.1,5.3,0.2,10.6,1.2,15.8c0.4,2.3,0.5,4.6,0.1,6.9c-0.6,3.5-0.5,7-0.1,10.5c0.5,3.8,0.5,7.6-0.2,11.3
		c-0.8,4.6-3.8,7.1-7.6,8.9c-1.5,0.7-3.3,0-4.4-1.2c-1-1-1.8-2.3-2.7-3.6c-5.1-8.4-10.9-16.2-17.1-23.8c-3.1-3.7-6.3-7.2-9.8-10.4
		c-2.5-2.3-4.9-4.7-6.9-7.5c-1.8-2.3-3-4.8-3.4-7.7c-0.6-5.1,2.8-8.4,7.2-8.2c1,0.1,2.2,0.5,3.5-0.2c-1.2-5.5-2.5-11-5.6-15.8
		c-3.7-5.7-7.5-11.3-11.2-17.1c-2-3.1-4.2-6-7-8.4c-1-0.8-1.8-1.7-2.3-2.8c-1.2-2.7,0.4-5,3.4-4.8c1.4,0.1,2.7,0.6,3.9,1.1
		c1,0.6,2.1,1.3,3.5,0.6c1.6-0.8,3.1-1.7,3.6-3.6c0.3-1.2,0.6-2.4,0.6-3.6c0.4-5.8-0.2-11.4-3.4-16.5c-5.3-8.4-4-8.7-13.6-15.9
		c-2.2-1.6-4.2-3.5-6.3-5.2c-0.8-0.7-1.8-1.4-2.2-2.4c-0.6-2.3-2.4-3.5-3.5-5.4c-1.4-2.3-2.9-4.7-3.9-7.2
		c-2.2-5.5-6.2-9.2-10.7-12.5c-1.1-0.8-2.3-1.5-3.2-2.5c-0.7-0.6-1.3-1.4-1.8-2.2C657.9,119.1,658.6,117.2,660.2,116.5z
		 M510.2,153.3c0-8.4,1-16.7,3.7-24.8c1.3-4,2-8.1,2.7-12.3c1.4-8.4,4.2-16.2,7.3-24c1.2-3.1,2.3-6,3.8-9
		c3.2-6.7,7.4-12.7,13.2-17.4c3-2.4,6.4-4.2,10.4-4.1c5.3,0,9.4,3.9,10.1,8.8c2.5-2,5.3-3.4,8.5-3.9c0.6-0.1,1.4-0.2,2-0.2
		c3.4,0.1,5.2,2.7,4,5.9c-0.6,1.5-1.4,2.9-2.2,4.3c-1,1.9-2.2,3.8-3.3,5.6c-0.3,0.6,0,1.1,0.6,1.3c0.8,0.2,1.6,0.3,2.4,0.5
		c4.5,1.1,6.9,4,7.2,8.6c0.1,1.5-0.1,3-0.4,4.4c-0.6,2.6-1.2,5.2-1.8,7.7c0.9,0.6,1.5,0.2,2.1-0.1c9.2-3.9,18.8-5.1,28.7-3.9
		c2.2,0.2,4.3,0.2,6.4,1c1.7,0.6,3.3,1.3,4.6,2.5c1.2,1,1.8,2.4,1.4,4c-0.4,1.8-1.6,2.9-3.3,3.2c-2,0.4-4,0.6-6,0.9
		c-3.4,0.3-6.4,1.5-9.3,3.3c-0.2,1-0.5,1.9-1,2.9c-0.3,0.6-0.6,1.2-1,1.8c-2.5,4.8-2.5,4.8,1,9.2c1.2,1.5,2.3,3,3.5,4.4
		c1,1.2,1.5,2.9,1.7,4.7c0.6,0,1.2,0.1,1.8,0.1c12.7,0.7,24.5,4.5,36,9.7c5.4,2.4,10.2,5.7,14.9,9.2c2.3,1.8,4.7,3.2,7.3,4.3
		c4.7,1.9,8.9,4.6,12.7,8c2.3,2,4.1,4.3,5.3,7.2c0.9,2.1,1.4,4.2-0.2,6.2c-1.6,2-3.9,2.4-6.3,2c-1.6-0.3-3.1-0.8-4.7-1.5
		c-4-1.9-8.1-3.8-12.1-6c-12.5-6.8-25.7-10.9-39.7-13.2c-5-0.8-10-1.2-15-1.7c-2.7-0.2-5.4-0.1-8.1,0.4c-3.9,0.7-7.8,1.2-11.7,1.1
		c-2.3-0.1-4.6,0.4-6.8,1c-1,0.3-2.1,0.6-3.1,1c-9.6,3.8-19.1,8-28.1,12.9c-2.3,1.3-4.1,3.1-6,4.8c-1.8,1.7-3.5,3.5-5.3,5.1
		c-0.7,0.6-1.4,1.3-2.2,1.8c-4.4,3.2-9.4,2.7-13.3-1.1c-1.8-1.9-2.9-4.3-3.5-6.8c-1-4.4-1.2-8.8-0.6-13.2c-3.5-0.3-5.5-2.4-7.2-5.3
		c-1-1.8-1.5-3.8-1.5-5.9C510.2,157,510.2,155.2,510.2,153.3z M398.7,84.5c2.1-2.5,4.7-4,7.8-4.8c3.2-0.9,6.4-0.9,9.7-0.5
		c1.8,0.2,3.5,0.4,5.2,0.6c0.7,0.1,1.3-0.4,1.4-1.1c0.3-1.7,0.6-3.5,1-5.1c0.3-1.3,0.6-2.7,1.2-3.9c1.5-3.1,3.9-5.1,7.6-5.3
		c0.4,0,0.8-0.1,1.2-0.1c0.1,0,0.2-0.2,0.6-0.5c-0.2-2.1-0.5-4.2-0.6-6.2c-0.1-1-0.1-2.2,0.1-3.2c0.6-5.9,5.3-9.3,11.3-8.5
		c3.5,0.5,6.8,1.8,9.9,3.6c0.5,0.2,0.9,0.6,1.3,0.9c8.1,0.2,15.2,3.1,21.2,8.7c1.4,1.3,2.5,2.8,3.6,4.3c6.1,8.4,11.6,17.1,14.4,27.2
		c1,3.6,2.2,7.3,2.8,11c0.5,2.8,0.3,5.7,0.4,8.5c0,0.8,0,1.6,0,2.4c0,0.2,0,0.2,0,0.4c0.4,7-0.8,13.8-2.7,20.4
		c-0.6,2.1-1.4,4.1-2.3,6.1c-2,4.7-4,9.5-6.8,13.9c-2.7,4.3-6.4,7.8-10.2,10.9c-1.4,1.2-3,2.4-4.7,3.3c-0.8,3.9-1.9,7.8-3.5,11.6
		c-0.9,2.2-1.9,4.3-3.3,6c-2.8,3.6-6.4,3.2-8.2-1c-0.6-1.4-1-2.8-1.4-4.3c-0.6-2.3-1.1-4.7-1.8-7.1c-1.1-4.1-2.8-7.9-5.2-11.4
		c-2.1-3.1-4.3-6.4-6.4-9.5c-1-1.4-1.8-3.1-2.1-4.8c-0.5-3.6,2.6-6,6-4.6c1,0.4,1.9,1,2.7,1.8c1.4,1.1,2.6,2.4,3.9,3.5
		c0.6,0.5,1,1.4,1.8,1.4c0.6-0.6,0.3-1.2,0.2-1.8c-2-8.9-5.3-17.4-10.5-25c-4.8-6.9-9.9-13.6-16.2-19.3c-3.8-3.4-7.9-6.3-12.5-8.4
		c-4.3-2-8.8-3.8-13.2-5.3c-1.1-0.4-2.3-0.8-3.4-1.4C397.9,87.2,397.7,85.7,398.7,84.5z M347.4,129c0.3-1.8,1.3-3.2,2.6-4.5
		c1.6-1.5,3.5-2.6,5.5-3.3c4.7-1.6,9.5-2.4,14.4-2.3c2.2,0.1,4.3-0.1,6.5-0.5c0.2,0,0.5-0.3,0.5-0.5s-0.2-0.6-0.3-0.6
		c-1.8-0.8-3.7-1.6-5.6-2.4c-1.6-0.7-3.2-1.4-4.8-2.3c-0.8-0.4-1.6-1-2.3-1.7c-1.7-1.7-1.4-3.9,0.6-5.2c1.4-0.9,2.9-1.3,4.5-1.5
		c0.1-0.8,0.5-1.7,1.1-2.5c1-1.3,2.3-2.3,3.8-3.1c4.2-2.1,8.8-3.1,13.4-2.7c6.8,0.4,13.4,2.3,19.2,6c4.4,2.7,8.4,6,11.3,10.4
		c0.6,0.9,1.2,1.8,1.7,2.7c4.2,8,7.4,16.2,9.6,25c0.7,3.1,1.4,6.4,1.9,9.6c0.2,1.2,0,2.4,0,3.6c0.1,0,0.1,0,0.2,0
		c0,0.8-0.1,1.6,0,2.4c0.1,1-0.2,2-0.6,2.8c-0.1,1.8-0.4,3.6-0.9,5.4c-0.6,2.1-1.9,3.1-4.1,3.4c-4,0.4-5.1,0-7.6-3.4
		c-1.8-2.5-3.6-5.1-5.4-7.7c-3.9-6.1-9.6-10.3-15.8-13.9c-1-0.6-2-0.7-3.1-0.9c-6.8-0.9-13.5-1.1-20.3-1.4
		c-4.6-0.2-9.2-0.3-13.8-0.9c-2.6-0.3-5.1-0.6-7.6-1.7C348.4,136,346.7,132.7,347.4,129z"/>
	<path class="st4" d="M118.3,327.2c0.7-1.3,1.4-2.6,2.1-3.9c2.3-4.5,5.2-8.6,8.9-12.1c1.7-1.6,3.6-2.9,5.8-3.8
		c4.2-1.6,7.7,1,7.8,5.5c0,1.4-0.2,2.7-0.8,3.9c-0.6,1.5-1.3,3-2,4.5c-1.7,3.7-3.5,7.3-5.1,11.1c-4.2,9.5-7.3,19.3-8.9,29.6
		c-1.1,7.2-1.7,14.6-2.4,21.9c-1.2,12.1-0.3,24.2,1.1,36.2c0.4,3.6,0.8,7.3,2.3,10.7c2.3,5.2,5.1,10.2,9.1,14.4
		c3.7,3.9,7.5,7.9,11.6,11.5c4,3.5,8.2,6.8,12.9,9.2c5.3,2.8,10.9,4.7,17.1,4.5c3.1-0.1,3-0.2,3.7-3.2c0.2-1,0-2.2,0-3.2
		c-0.1-2.6-0.3-5.1-0.2-7.7c0.3-7.9,1.2-15.8,2.1-23.6c0-0.1,0-0.1,0-0.2c0.1-2.7-0.5-5.4-1.2-8c-2-8-4.2-16-6-24
		c-0.8-3.5-1.4-7.2-1.7-10.8c-0.3-3-1-5.5-3.5-7.5c-0.1-0.1-0.2-0.2-0.2-0.2c-0.9,2.5-1.7,5.1-2.5,7.6c-2.7,9-4,18.3-5.2,27.6
		c-1,7.6-1.1,15.2-0.2,22.8c0.2,1,0.2,2.2,0.2,3.2c0,0.5,0.1,1.1-0.8,1.2c-0.3-0.3-0.6-0.7-1-1.2c-8.7-11.7-15-24.5-19.1-38.5
		c-4-13.6-6-27.3-3.6-41.4c1.3-7.6,3.2-14.9,7-21.6c0.9-1.6,1.5-3.1,1.8-4.9c0.8-6,2.5-11.7,4.8-17.2c1.5-3.8,3.3-7.5,5-11.2
		c0.2-0.6,0.6-1.1,0.7-1.7c0.2-0.6,0.3-1.1,0.3-1.8c-0.1-6.3,0.5-12.5,1.4-18.7c0.2-0.9-0.2-1.6-1.2-1.8c-0.6-0.2-1.1-0.3-1.6-0.5
		c-3.5-1.3-5.4-4.2-6.8-7.6c-1.2-3.1-1.5-6.4-1.3-9.7c0.2-3.8,1-7.6,2.3-11.2c3.5-11,8.1-21.6,14.3-31.4c1.4-2.3,2.8-4.5,4.2-6.7
		c0-0.2,0.1-0.4,0.1-0.6c1-5.1,1.9-10.4,3.1-15.5c0.7-3.1,1.5-6,2.7-8.9c1.5-3.8,3.1-7.6,5-11.1c-1.2,1.5-2.3,3.1-3.5,4.7
		c-10.9,15-20.6,30.6-29.8,46.7c-11.5,20-20.3,41.2-25.5,63.7c-2.2,9.6-3.9,19.1-4.1,29C117.6,325.9,117.1,326.7,118.3,327.2z"/>
	<path class="st4" d="M314.4,579.9c-1.7,0.8-3.4,1.8-5.1,2.6c-2.6,1.2-5.3,2-8.3,2c-1.5,0-3-0.2-4.3-1c-3.1-1.7-4.1-5.5-2.2-8.4
		c0.6-0.9,1.4-1.6,2.3-2.3c0.6-0.6,1.4-1,1.9-1.4c0.2-0.1,0.2-0.6,0.2-0.6c-0.3-0.2-0.7-0.6-1-0.5c-0.7,0.2-1.4,0.6-2.2,1.1
		c-4,2.7-8.4,4.5-12.9,5.8c-1.9,0.6-3.9,1-6,1.4c-1.8,0.4-3.8,0.7-5.6,0.9c-3.1,0.3-5.7,1.6-8.1,3.4c-1.8,1.4-3.5,3-5.1,4.7
		c-1.9,2.3-3.9,4.6-5.9,6.8c-2.3,2.5-3.8,5.3-4.3,8.6c0,0.2-0.1,0.3-0.1,0.6c6.4,2.7,12.5,6,18.3,9.7l2.4,1.6l2.4,1.7l1.2,0.9
		l0.6,0.4l0.6,0.5l2.3,1.8c0.3,0.2,0.6,0.5,0.9,0.6c0.2-0.2,0.5-0.6,0.8-0.8c1-0.7,2.1-1.3,3.2-1.7c1.5-0.6,3.1-0.9,4.7-1.2
		c4.2-1,8-2.7,11.3-5.5c2.4-2,4.9-4,7.2-6.2c0.4-0.3,0.7-0.6,1.1-1c6.8-6.4,10.2-14.6,11.7-23.6c0.1-0.4-0.1-0.8-0.1-1.1
		C315.5,579.2,315,579.7,314.4,579.9z"/>
	<path class="st4" d="M486.9,652.4c-5.1-7.6-9.1-15.8-12.9-24.1v-0.1c-0.6-1.3-1.2-2.6-1.8-3.9c-1.6-3.4-1.8-6.8-1.6-10.4
		c-1.1,0.1-2.1,0.1-2.4-0.2c-3.8-2.6-6.4-6.3-9.1-9.8c-6-7.6-11.4-15.5-16.1-24c-0.2-0.2-0.2-0.5-0.4-0.7c-0.5-0.6-1.2-0.6-1.6,0.1
		c-1,1.9-1.6,4-1.7,6.2c-0.2,5.1-1,10.2-0.9,15.4c0,2-0.6,4-1.1,6c-0.6,3.1-2.5,5.4-4.9,7.3c-1.3,1-2.7,1.6-4.5,1.8
		c-2.9,0.2-5.7,0-8.2-1.7c-1.2-0.8-2.7-1.3-4-1.8c-3.5-1.4-6.7-3.5-9.7-5.8c-3.5-2.6-5.9-6-8.4-9.3c-3.2-4.3-6-9-8.6-13.8
		c-1.9-3.5-4.8-6.2-7.6-8.9c-1.4-1.3-3-1.6-4.5-0.6c-2.3,1.5-4.8,2.4-7.5,3c-1.1,0.2-1.4,0.9-1.3,2.2c0.2,1.2,0.3,2.4,0.4,3.6
		c0.2,5.7,1.1,11.3,2.1,16.9c0.3,2.2,0.8,4.3,1.2,6.4c0.6,3.1,1.5,6,4.2,8.1c0.2,0.1,0.2,0.2,0.4,0.4c0.1-0.9,0.2-1.7,0.5-2.6
		c1-3.7,3.2-6.2,6.9-7.4c3.1-1,6-0.3,8.2,2.1c1,1.1,1.8,2.4,2.5,3.7c1.6,3,3.1,6,4.6,9.1c1.7,3.6,3.7,6.9,6.1,10.1
		c1.4,1.8,2.9,3.6,4.2,5.5c1.4,1.9,2.9,3.5,5.5,3.8c1.3,0.2,2.6,0.9,3.7,1.6c3.5,1.9,7.2,3.9,10.6,6c3.1,1.8,6,4.2,8.7,6.8
		c5.5,5.3,9.1,11.8,10.5,19.4c0.3,1.8,0.6,3.8,0.8,5.6c0,0.2,0,0.5,0,0.7h8.4h14.7h33.5c-3.8-4.3-7.3-8.9-10.6-13.8
		C492.3,660.9,489.8,656.6,486.9,652.4z"/>
	<path class="st4" d="M191.3,587c4.1,2.1,8.1,4.4,12.9,4.9c2.3,0.2,4.7,0.7,7,1.3c4,0.6,8,1.4,11.9,2.4l2.8,0.6l0.7,0.2l0.7,0.2
		l1.4,0.4l0.8,0.2c-0.3-1.8-0.6-3.6-0.6-5.5c0-4.9,0.6-9.6,1.9-14c-5.1-3.1-9-7-8.4-13.8c0-0.4,0-0.8,0-1.2c0-1.9,0.1-3.8,0.5-5.6
		c0.1-0.2,0.2-0.6,0.2-0.8c0.6-2.2,0.2-4.2-1.2-6.1c-2.9-4-4.6-8.7-5.5-13.5c-0.1,0.4-0.2,0.7-0.2,1.1c-0.1,0.4-0.2,0.8-0.2,1.2
		c-1.8,9.3-4,18.6-7.5,27.5c-3,7.6-7.8,13.3-14.6,17.5c-0.8,0.5-1.7,1-2.5,1.4C190.6,585.9,190.6,586.6,191.3,587z"/>
	<path class="st4" d="M895.9,654.3c-2.3-4.4-4.9-8.6-8-12.5s-6.7-7.3-10.5-10.4c-3.9-3.1-8-5.7-12.5-7.9l0,0l-6.5-2.9
		c-0.7-0.6-1.4-1.3-2.1-1.8c-1.6-1.4-3.4-2.7-5.2-3.8c-7.7-4.3-16.4-6.8-25.1-8.2c-4.3-0.7-8.8-1.2-13.2-1.4c-2.9-0.2-5.8,0-8.7-0.5
		c-3.1-0.5-6.1-1.9-9.3-2.2c-1.2-0.1-2.5,0-3.7,0.2c-10.1,1-20.2,2.6-29.9,5.5c-4.9,1.4-9.7,3.3-14.2,5.6c-4.4,2.3-8.3,5.4-12.9,7.2
		c-1.1,0.4-2.2,0.9-3.3,1.4c-23.3,10.1-44.2,29.7-52.3,54l0,0c2.1-0.5,4.7,0.3,6.3-1c0.6-0.6,1-1.4,1.4-2.2
		c3.8-8.1,7.4-16.5,13.8-22.8c7.8-7.7,20-10.8,29.3-3.7v-0.1c0.1,0.1,0.1,0.1,0.2,0.2c0.6,0.4,1,0.9,1.5,1.4l0.1,0.1
		c0.2,0.2,0.3,0.3,0.5,0.5c0.6,0.6,1.2,1.1,1.7,1.8c0.1,0.2,0.2,0.2,0.2,0.4c-0.8,0-1.5,0-2.3,0.1c-1.7,0.2-3.3,0.6-4.9,1.1
		c-3.1,1.1-6,2.9-8.8,4.8c-0.7,0.5-1.4,1-2,1.4l-1,0.7l-1.8,1.4l-1,0.7c0,0,1-0.2,1.1-0.3c4.8-1.3,9.7-1.3,14.2,0.9
		c0.4,0.2,0.7,0.4,1.1,0.6c0.3,0.2,0.7,0.4,1,0.6c0.7,0.4,1.3,1,1.9,1.4c1.2,1.1,2.3,2.3,3.3,3.6c1,1.4,2,3.1,2.8,4.7l0,0
		c-0.2,0.5-0.2,1-0.4,1.4c-0.1,0.3-0.2,0.6-0.2,0.9c0,0.1,0,0.1,0,0.2c-0.1,0.6-0.2,1-0.2,1.6c0,0.2,0,0.2,0,0.4s0.1,0.2,0.1,0.4
		c0.1,0.2,0.1,0.5,0.2,0.7c0-0.1,0-0.1,0-0.2c0,0.1,0,0.1,0,0.2v0.1v-0.1c0.2,0.9,0.3,1.8,0.6,2.7c0.2,1,0.5,2.1,0.7,3.1
		c1.3,2.2,2.7,4.3,3.5,6.8c0.1,0.2,0.2,0.5,0.2,0.7c0,0.1,0,0.2,0.1,0.2c0.1,0.2,0.2,0.4,0.2,0.6c0,0,0,0,0,0.1
		c0.1,0.2,0.1,0.5,0.2,0.7c0,0.1,0,0.2,0.1,0.2c0,0.2,0.1,0.4,0.1,0.6c0,0.1,0,0.1,0,0.2c0,0.2,0.1,0.4,0.1,0.6c0,0.1,0,0.2,0,0.2
		c0,0.2,0,0.3,0.1,0.5c0,0.1,0,0.2,0,0.3c0,0.2,0,0.3,0.1,0.5c0,0.1,0,0.2,0,0.3s0,0.2,0,0.3c0,0.2,0,0.5,0,0.7c0,0.1,0,0.1,0,0.2
		c0,0.2,0,0.3,0,0.5c0,0,0,0,0,0.1c0,0.4,0,0.7,0,1.1c0.2,0.2,0.2,0.3,0.4,0.5c0.7,0.9,1.4,1.7,2.1,2.6c0.3,0.4,0.7,0.7,1,1.1
		c3,2.6,6,5,10,5.9c6.1,1.4,12.5-0.6,18.9-0.1c1.2,0.1,2.5,0.3,3.6-0.2c2.2-0.9,3.5-4.3,4.7-6.3c1.7-3,3.1-6.1,4.3-9.2
		c2.3-6.1,3.7-12.5,4.2-19c0.8-10.2-1-20.6-5.1-30c-2-4.7-4.6-9.2-7.6-13.4c-3.1-4.2-6.4-8-10.2-11.4c-0.5-0.5-1-0.9-1.4-1.3
		l-2.5-2.2h-0.1c0,0-0.1,0,0,0h0.1l0.2,0.1l0.5,0.1l1,0.2l1.4,0.3l0.5,0.1l0.5,0.2l1,0.2c2.5,0.8,4.9,1.8,7.2,3
		c21.3,11.1,30.5,33.6,31.8,56.4c0,0.2,0,0.3,0,0.5c0,0.6,0.1,1.4,0,2c0,0.6,0,1.3-0.1,1.9c-0.1,0.6-0.1,1.2-0.2,1.8
		c0,0.1,0,0.2,0,0.2c-0.1,0.4-0.2,0.8-0.2,1.2c-0.1,0.3-0.2,0.8-0.2,1.2c0,0.2-0.1,0.6-0.1,0.8c-0.6,3.8-1.8,7.5-3.1,11.2
		c-1.3,3.9-3.5,7.6-1.9,11.7c3.4,8.6,10.9,11.3,19.3,12.6c1.1,0.2,2.3,0.3,3.3,0.5c1.4,0.2,2.7,0.3,4.2,0.5c1.6,0.2,3.2,0.3,4.8,0.5
		c0.3,0,0.6,0.1,1,0.1c0.2,0,0.6,0.1,0.8,0.1c0.6,0,1.1,0,1.7,0c0-0.1,0-0.1,0-0.2c0.7-3.2,2.4-6.1,3.9-9c7-13.7,9.7-30,7.6-45.5
		c-2-14.5-10.2-27.8-20.3-38c-1-1-2.1-2.3-1.8-3.7c3.5,1,7.4,3.9,10.5,5.9c3.9,2.4,7.6,4.9,11,7.8c6.3,5.2,12.2,12.1,13.5,20.4
		c2.5,16,6.9,17.1,4.8,33.1c-0.6,4.3-3.2,8.2-4,12.5c-1.2,6-1.5,11.6-3.8,17.3c-0.2,0.3-0.3,0.7-0.4,1.1c-0.1,0.4-0.3,3.4-1,3.1
		c2.9,1,16.8,3.7,17.5-1.4l0.4-2.8l3.5-19.3c3.4-19.1,3.9-38-4.7-55.8c-1.8-3.8-5.1-11-7.5-13.3c0.3,0.2,0.6,0.6,0.9,0.8
		c4.7,4.5,9.2,8.7,12.6,14.2c4.1,6.5,7.6,13.8,10.4,20.9c0.2,0.6,0.4,1.1,0.6,1.8c0.7,2.3,1.4,4.7,1.8,7.1c1,4.7,1.4,9.6,1.5,14.4
		c-0.1,4.8-0.6,9.6-1.7,14.2c-0.3,1.4-0.7,2.8-1.1,4.3c0.4-0.1,0.9-0.2,1.3-0.4c1.2-0.5,2.3-1.4,3.1-2.3c0.9-1,1.5-2,2.2-3.1
		c0.6-1.1,1-2.3,1.4-3.5c0.2-0.6,0.3-1.2,0.5-1.8C904.9,687,903.4,669.3,895.9,654.3z M739.8,618.2
		C739.9,618.2,739.9,618.2,739.8,618.2c0.1-0.1,0.2-0.1,0.2-0.2C740,618.1,739.9,618.1,739.8,618.2z"/>
	<path class="st4" d="M254.2,622.6c-1.1-0.5-2.2-1-3.3-1.4c-4.6-1.8-8.4-5-12.9-7.2c-4.6-2.3-9.3-4.2-14.2-5.6
		c-9.7-3-19.9-4.4-29.9-5.5c-1.2-0.2-2.5-0.2-3.7-0.2c-3.2,0.2-6.2,1.6-9.3,2.2c-2.9,0.5-5.8,0.3-8.7,0.5c-4.4,0.2-8.8,0.7-13.2,1.4
		c-8.7,1.4-17.4,3.9-25.1,8.2c-1.9,1-3.6,2.3-5.2,3.8c-0.7,0.6-1.4,1.2-2.1,1.8l-6.5,2.9l0,0c-4.4,2.2-8.6,4.8-12.5,7.9
		c-3.9,3.1-7.4,6.6-10.5,10.4c-3.1,3.9-5.8,8-8,12.5c-7.6,15-9.1,32.7-4.7,48.8c0.2,0.6,0.3,1.2,0.5,1.8c0.4,1.2,0.9,2.3,1.4,3.5
		s1.3,2.2,2.2,3.1c0.9,1,1.8,1.8,3.1,2.3c0.4,0.2,0.8,0.3,1.3,0.4c-0.4-1.4-0.8-2.8-1.1-4.3c-1-4.7-1.6-9.4-1.7-14.2
		c0.1-4.8,0.6-9.6,1.5-14.4c0.5-2.4,1.1-4.7,1.8-7.1c0.2-0.6,0.4-1.1,0.6-1.8c2.7-7.2,6.3-14.5,10.4-20.9c3.5-5.5,8-9.8,12.6-14.2
		c0.3-0.2,0.6-0.6,0.9-0.8c-2.4,2.3-5.6,9.5-7.5,13.3c-8.6,17.8-8.1,36.8-4.7,55.8l3.5,19.3l0.4,2.8c0.7,5.1,14.6,2.3,17.5,1.4
		c-0.7,0.2-1-2.7-1-3.1c-0.1-0.4-0.3-0.7-0.4-1.1c-2.3-5.7-2.6-11.3-3.8-17.3c-0.9-4.3-3.5-8.2-4-12.5c-2.1-16.1,2.3-17.1,4.8-33.1
		c1.3-8.4,7.2-15.2,13.5-20.4c3.5-2.9,7.2-5.5,11-7.8c3.1-1.9,7-4.9,10.5-5.9c0.2,1.4-0.9,2.7-1.8,3.7c-10.1,10.3-18.3,23.6-20.3,38
		c-2.2,15.5,0.5,31.8,7.6,45.5c1.5,2.9,3.2,5.7,3.9,9c0,0.1,0,0.1,0,0.2c0.6,0,1.1,0,1.7,0c0.2,0,0.6-0.1,0.8-0.1
		c0.3,0,0.6-0.1,1-0.1c1.6-0.2,3.2-0.4,4.8-0.5c1.4-0.1,2.8-0.2,4.2-0.5c1.1-0.2,2.3-0.2,3.3-0.5c8.4-1.3,15.9-4,19.3-12.6
		c1.6-4.1-0.6-7.8-1.9-11.7c-1.2-3.6-2.5-7.3-3.1-11.2c-0.1-0.2-0.1-0.6-0.1-0.8c-0.1-0.3-0.2-0.8-0.2-1.2c-0.1-0.4-0.2-0.8-0.2-1.2
		c0-0.1,0-0.2,0-0.2c-0.1-0.6-0.1-1.2-0.2-1.8c-0.1-0.6-0.1-1.3-0.1-1.9s0-1.4,0-2c0-0.2,0-0.3,0-0.5c1.4-22.8,10.5-45.3,31.8-56.4
		c2.3-1.2,4.7-2.2,7.2-3l1-0.2l0.5-0.2l0.5-0.1l1.4-0.3l1-0.2l0.5-0.1l0.2-0.1h0.1l0,0h-0.1l-2.5,2.2c-0.5,0.4-1,0.8-1.4,1.3
		c-3.8,3.5-7.2,7.3-10.2,11.4c-3,4.2-5.5,8.6-7.6,13.4c-4.1,9.4-6,19.8-5.1,30c0.5,6.5,1.8,12.9,4.2,19c1.2,3.2,2.7,6.4,4.3,9.2
		c1.1,1.9,2.4,5.4,4.7,6.3c1.1,0.5,2.4,0.2,3.6,0.2c6.3-0.5,12.7,1.4,18.9,0.1c3.9-0.9,7-3.3,10-5.9c0.3-0.4,0.7-0.7,1-1.1
		c0.7-0.8,1.4-1.7,2.1-2.6c0.2-0.2,0.2-0.3,0.4-0.5c0-0.4,0-0.7,0-1.1c0,0,0,0,0-0.1c0-0.2,0-0.3,0-0.5c0-0.1,0-0.1,0-0.2
		c0-0.2,0-0.5,0-0.7c0-0.1,0-0.2,0-0.3s0-0.2,0-0.3c0-0.2,0-0.3,0.1-0.5c0-0.1,0-0.2,0-0.3c0-0.2,0-0.3,0.1-0.5c0-0.1,0-0.2,0-0.2
		c0-0.2,0.1-0.5,0.1-0.6s0-0.1,0-0.2c0-0.2,0.1-0.4,0.1-0.6c0-0.1,0-0.2,0.1-0.2c0.1-0.2,0.1-0.5,0.2-0.7c0,0,0,0,0-0.1
		c0.1-0.2,0.1-0.5,0.2-0.6c0-0.1,0-0.2,0.1-0.2c0.1-0.2,0.2-0.5,0.2-0.7c0.8-2.4,2.2-4.6,3.5-6.8c0.2-1,0.5-2.1,0.7-3.1
		c0.2-0.9,0.4-1.8,0.6-2.7v0.1v-0.1c0-0.1,0-0.1,0-0.2c0,0.1,0,0.1,0,0.2c0.1-0.2,0.1-0.5,0.2-0.7c0-0.2,0-0.2,0.1-0.4
		c0-0.2,0-0.2,0-0.4c-0.1-0.6-0.2-1-0.2-1.6c0-0.1,0-0.1,0-0.2c-0.1-0.3-0.2-0.6-0.2-0.9c-0.1-0.5-0.2-1-0.4-1.4l0,0
		c0.8-1.6,1.7-3.2,2.8-4.7c1-1.3,2.1-2.6,3.3-3.6c0.6-0.5,1.3-1,1.9-1.4c0.3-0.2,0.7-0.4,1-0.6c0.3-0.2,0.7-0.4,1.1-0.6
		c4.6-2.2,9.4-2.1,14.2-0.9c0.1,0,1.1,0.3,1.1,0.3l-1-0.7l-1.8-1.4l-1-0.7c-0.6-0.5-1.4-1-2-1.4c-2.7-1.9-5.6-3.6-8.8-4.8
		c-1.6-0.6-3.2-1-4.9-1.1c-0.8-0.1-1.5-0.2-2.3-0.1c0.1-0.2,0.2-0.2,0.2-0.4c0.5-0.6,1-1.3,1.7-1.8c0.2-0.2,0.3-0.3,0.5-0.5l0.1-0.1
		c0.5-0.5,1-1,1.5-1.4c0.1-0.1,0.1-0.1,0.2-0.2v0.1c9.2-7.1,21.5-4,29.3,3.7c6.4,6.3,10,14.7,13.8,22.8c0.4,0.8,0.7,1.6,1.4,2.2
		c1.7,1.4,4.2,0.6,6.3,1l0,0C298.4,652.3,277.5,632.6,254.2,622.6z M244.8,618c0.1,0,0.1,0.1,0.2,0.1l0,0
		C244.9,618.1,244.9,618.1,244.8,618z"/>
</g>
</svg>
