<?xml version="1.0" encoding="utf-8"?>
<!-- Generator: Adobe Illustrator 24.0.1, SVG Export Plug-In . SVG Version: 6.00 Build 0)  -->
<svg version="1.1" id="Layer_1" xmlns="http://www.w3.org/2000/svg" xmlns:xlink="http://www.w3.org/1999/xlink" x="0px" y="0px"
	 viewBox="0 0 990 781.2" style="enable-background:new 0 0 990 781.2;" xml:space="preserve">
<style type="text/css">
	.st0{fill:#535459;}
	.st1{fill:#E4716B;}
	.st2{fill:#AF794F;}
	.st3{fill:#ADADAC;}
	.st4{fill:#FFFFFF;}
	.st5{fill:#7A4622;}
</style>
<g>
	<path d="M205.9,735c-0.7,0.8-0.8,1.7-0.9,2.4c-0.5,3.9-2.5,7-4.8,10c-1.2,1.5-2.9,1.6-4.6,1.2c-4.9-1.3-9.2-3.5-12.7-7.3
		c-3.7-4.1-7.5-8.1-10.3-12.9c-0.8-1.4-1.9-2.5-3.4-3.3c-7-3.9-11.6-9.9-15.7-16.5c-0.3-0.5-0.6-1.1-0.9-1.7
		c-1.6-4.3-3.1-8.6-3.9-13.1c-0.7-4.2-0.6-8.5-0.3-12.7c0.4-6.9,1.7-13.6,4.1-20.1c1.7-4.6,4.3-8.7,7.8-12.2c1.7-1.8,3.5-3.5,5.5-5
		c5.1-4,10.1-8.1,15.3-12c12.8-9.6,27.3-14.9,43.2-16.4c13.3-1.3,26.3,0.3,39.3,3.2c5.6,1.3,11.1,2.9,16.5,5c1.6,0.6,1.6,0.6,2.2-1
		c0.3-0.7,0.6-1.5,0.8-2.3c2.3-8.5,6.4-16,11.7-22.9c3.8-5,7.7-10,11.4-15.1c5-6.8,9.6-13.8,13-21.5c3.4-7.8,5-16,5.9-24.4
		c1.7-15.2,1.3-30.5,0.6-45.8c-0.6-12.3-1.9-24.5-2.8-36.8c-0.3-3.6-1.3-6.7-3.3-9.7c-5-7.7-7.7-16.3-9.5-25.2
		c-0.6-3.1-1.1-6.3-1.6-9.4c-0.8-0.3-1.1,0.3-1.4,0.7c-1.1,1.4-2.2,2.8-3.1,4.2c-4.1,6.4-9.2,11.9-14.5,17.2
		c-5.1,5.1-11.4,8.2-18.3,10.1c-2.1,0.6-4.1,0.4-6.1-0.4c-5.4-2.3-9.2-6.2-10.6-11.9c-1.6-6.7-2.3-13.5-1.6-20.5
		c1.3-13.5-0.2-26.8-3.4-40c-1.8-7.4-3.4-14.8-6.5-21.8c-0.3-0.7-0.6-1.5-1-2.2c-5-10-10.7-19.7-17.4-28.7
		c-3.2-4.4-7.2-8.1-11.6-11.4c-13.3-10.2-22.6-23.1-27.5-39.2c-2.7-9.1-3.1-18.4-2.9-27.8c0.1-7.7,1.1-15.2,4.1-22.3
		c2.5-6,4.3-12.4,8.4-17.7c0.9-1.2,0.7-1.5-0.8-1.9c-1.1-0.3-2.2-0.6-3.2-0.9c-0.9-0.3-1.8-0.7-2.7-1.1c-4.3-2.3-5.2-6.2-2.5-10.2
		c0.9-1.3,1.9-2.3,3.1-3.3c1.1-0.8,2.2-1.6,3.3-2.4c3.7-2.7,7.1-5.8,9.9-9.3c4.7-5.8,10.3-10.7,15.8-15.7c1.3-1.2,2.9-2,4.3-3
		c1.4-1,1.5-1.3,0.2-2.2c-4.2-2.6-6.2-7.9-1.2-13.3c1.8-1.9,3.8-3.5,5.8-5c15.4-11.5,28.5-25.2,40-40.5c1.1-1.4,2.1-2.8,3.3-4.2
		c3.6-4.4,8-7.8,13.1-10.2c2.7-1.3,5.4-2.5,8.1-3.7c0.7-0.3,1.6-0.5,1.9-1.3c-0.3-0.8-1-1.2-1.6-1.7c-2.1-1.9-4.2-3.7-6.3-5.6
		c-2.3-2-4.3-4.3-6-6.9c-2.1-3.3-0.8-6.7,3-7.5c1.6-0.3,3.1-0.6,4.8-0.6c9.3,0.4,18.7,0.3,28,1.7c4.1,0.6,8.3,1,12.4,1.6
		c5.3,0.7,10.3,2.5,15,5c7.8,4.1,16,6.9,24.3,9.6c3.8,1.3,6.8,0.7,10.1-1.2c15.6-8.9,31.8-16.5,48.9-22.1
		c14.5-4.7,29.4-8.3,44.6-10.3c15.1-2,30.3-2.1,45.5-0.8c14,1.2,27.9,3.6,41.6,6.8c7.4,1.7,14.4,4.3,21.2,7.6
		c5.6,2.6,11.1,5.4,16.4,8.5c4,2.3,8.2,3.2,12.7,2.6c6-0.8,11.7,0.3,16.8,3.4c4.6,2.7,9.2,2.9,14,1c2.8-1.1,5.5-2.5,8.2-4
		c4.6-2.6,9.2-5.2,13.8-7.8c4-2.3,8.2-3.9,12.6-5.1c2.5-0.6,5.1-0.7,7.6-0.4c4.7,0.7,7.2,4.5,6,9.1c-0.5,1.9-1.5,3.5-2.3,5.3
		c-0.7,1.5-0.5,1.7,1.2,1.9c8.5,0.8,16.6,3.1,24.5,6.2c7.3,2.9,13,7.8,16.7,14.7c0.7,1.3,1.3,2.6,1.7,4c1.2,4.5-1.1,8.3-5.7,9
		c-3.4,0.5-6.8,0.6-10.3,1c-0.9,0.1-2.3-0.3-2.6,0.6c-0.4,1,1.1,1.4,1.7,1.9c2.6,2.2,4.7,4.8,6.4,7.7c4,7.3,7.9,14.6,11.4,22.2
		c5.1,11.2,11.7,21.5,20.5,30.2c1.8,1.7,3.5,3.5,5.1,5.4c2.8,3.2,6.1,5.6,9.8,7.6c10.8,5.8,21.8,11,33.7,14.2
		c1.5,0.4,2.9,0.9,4.4,1.3c2.1,0.7,3.8,2,5.1,3.8c2.6,3.6,2,7.7-1.6,10.3c-2.5,1.8-5.4,2.3-8.3,2.7c-3.7,0.5-7.5,0.8-11.2,1.3
		c-0.7,0.1-1.8-0.2-2.1,0.7s0.8,1.2,1.3,1.8c7.3,7.8,12.6,16.9,16,27c1.5,4.6,3.5,8.9,6.4,12.8c0.2,0.3,0.5,0.7,0.7,1
		c2.8,4.6,0.3,9.3-5,9.5c-1.7,0.1-3.4-0.1-5-0.2c-0.9,0-1.9-0.3-2.9,0c-0.3,1.1,0.6,1.6,1.2,2.2c4.1,4.6,8.2,9.2,11.9,14.1
		c2.2,2.9,3.9,6,5.3,9.4c0.7,1.8,1.1,3.7,1.1,5.6c0.1,12.4-1.7,24.5-6.6,36.1c-2.9,6.8-6.8,12.9-12.4,17.7c-1,0.9-1.8,2-2.7,3.1
		c-4.4,5.7-8.7,11.4-13.1,17.2c-1.5,2-2.9,4-4.3,6.1c-5,7.9-9.4,16.2-13.6,24.5c-3.2,6.4-4.6,13.2-5.5,20.2
		c-0.6,4.9-1.7,9.8-3.7,14.3c-1.3,2.9-2.9,5.5-5,7.9c-3.3,3.9-7.6,5.5-12.6,5c-6.4-0.6-12.3-2.8-17.4-6.8c-4.6-3.6-8.9-7.6-12.7-12
		c-7.1-8-13.9-16.3-20.3-24.9c-0.5-0.6-0.7-1.5-1.6-1.6c-0.5,0.2-0.4,0.7-0.4,1c1.5,9.3,0.2,18.3-2.2,27.3c-1.3,5-3,9.8-5.1,14.5
		c-1,2.1-1.5,4.3-1.6,6.7c-0.7,14.5-1,28.9,0.2,43.4c0.7,7.8,2.9,15,8.5,20.9c0.9,1,1.7,2.1,2.7,3.1c11.3,11.7,19.5,25.5,26.6,40
		c5,10.3,10.2,20.4,15.9,30.4c5.6,9.8,10,20.2,14,30.7c0.2,0.6,0.5,1.2,0.7,1.8c0.3,0.8,0.8,1.1,1.6,1c1-0.1,2.1-0.1,3.1-0.2
		c14.8-1.2,29.1,0.8,43,6.1c12.1,4.6,22.4,11.8,32.8,19.1c0.6,0.4,1.1,0.9,1.5,1.5c5.1,6.5,9.9,13.1,14,20.3
		c0.9,1.5,1.6,3.1,2.4,4.7c2.8,5.4,3.4,11,2.4,17c-1.4,7.7-3.6,15.1-6.4,22.3c-1,2.6-2.6,4.8-4.2,7c-3.2,4.4-6.8,8.5-11.7,11.2
		c-2,1.1-3.6,2.6-4.7,4.6c-2.7,4.7-6.4,8.6-10.1,12.5c-3.4,3.6-7.7,5.7-12.4,7c-2.4,0.7-3.8-0.1-5.4-2c-2.5-3-3.8-6.4-4.4-10.2
		c-0.1-0.4-0.1-0.8-0.4-1.1c-0.7,0-1.1,0.6-1.5,1c-1.5,1.4-2.9,2.8-4.3,4.2c-1.1,1.1-2.3,2-3.6,2.8c-3.4,2.1-6.8,1.4-8.8-2.2
		c-1.7-3-2.5-6.2-2.7-9.6c-0.1-1.2-0.1-2.4,0-3.6c0.1-1.4-0.5-2.4-1.6-3.2c-1.5-1-3-1.9-4.6-2.6c-3.6-1.5-5.9-4.2-7.2-7.9
		c-0.7-2.3-1.3-2.4-3-0.6c-1.7,1.7-2.6,3.8-3.3,6.1c-1,3.3-2.7,6.3-4.8,9.1c-1.3,1.7-2.9,3-4.4,4.4c-3,2.6-7.6,1.5-9.7-1.5
		c-1.6-2.3-2.6-4.9-3.1-7.7c-0.1-0.6-0.2-1.1-0.2-1.7c0-2.6-1.5-4-3.7-5.1c-4.9-2.6-8.5-6.7-12.2-10.7c-0.3-0.3-0.7-0.8-0.8-1.2
		c-0.6-2-2-2.3-3.8-2.3c-137.7,0-275.4,0-413.2,0c-0.5,0-1,0-1.4,0c-0.9-0.1-1.5,0.2-1.9,1.1c-0.7,1.9-2.2,3.3-3.6,4.7
		c-3.4,3.3-6.6,6.7-11,8.9c-1.5,0.7-2.4,1.9-2.6,3.8c-0.3,3.4-1.1,6.6-3,9.5c-1.3,2-3,3.3-5.4,3.5c-1.6,0.2-3-0.2-4.3-1.1
		c-4.7-3.4-7.8-8-9.6-13.5c-0.7-2-1.3-3.9-2.7-5.6c-0.4-0.4-0.7-0.9-1.1-1.2c-1.3-1.1-1.9-1-2.4,0.6c-1.2,4.3-4,7.2-8.1,8.8
		c-1.2,0.5-2.2,1.2-3.3,1.9c-1.6,0.9-2.2,2.1-2.1,4c0.3,3.8-0.4,7.5-1.9,11c-0.3,0.8-0.7,1.6-1.2,2.3c-2,3-5.1,3.6-8.2,1.8
		c-2.2-1.3-3.9-3-5.7-4.8C208.4,737.4,207.1,736.3,205.9,735z"/>
</g>
<g>
	<path class="st0" d="M450,305.9c0.3,0.1,0.8,0.1,1.2,0c3.9-0.3,7.9-0.5,11.8-1.1c2.4-0.4,4.9-0.6,6.9-0.5c5.5,0,10.4,1,15.2,2.2
		c4,1,8.1,2.1,12.3,2.4c4.6,0.4,9,0,13.2-2.1c0.9-0.5,1.7-0.9,1.7-2.1s0.5-2.3,1.2-3.2c0.6-0.7,0.4-1.3-0.2-1.9
		c-5.3-5.9-11.6-10.1-19.5-11.7c-5.3-1.1-10.7-1.3-16.1-1c-10.1,0.5-19.6,2.8-28.6,7.3c-2.1,1-3.7,2-3.3,4.8
		C446.1,301.1,448.1,305.1,450,305.9z"/>
	<path class="st0" d="M467.1,402.3c-2.8-1.2-4.8-3.4-6.9-5.5c-3.3-3.3-6.8-6.2-10.8-8.5c-3.6-2.1-6.9-4.7-9.9-7.6
		c-0.6-0.5-1.1-1.1-1.7-1.6c-1.1,1.6-1,5.2,0.4,6.4c1.1,1,2.1,2.4,3.4,2.7c1.8,0.5,2.2,1.9,3,3c0.9,1.1,0,2.8-1.4,3
		c-1.9,0.2-3.3,1.1-4.7,2.3c-2.1,1.8-2.7,4.2-3,6.8c-0.3,3,0.4,5.6,2.9,7.4c2.6,2,5.4,2.2,8.4,0.9c0.7-0.3,1.4-0.7,2.1-1.1
		c0,1.8-0.2,3.6,0.1,5.2c0.3,1.7-0.4,2.4-1.9,3c-0.7,0.3-1.4,0.4-2.1,0.6c-1.7,0.4-3.4,0.9-4.8,2c-1.1,0.9-2.4,1.8-3.8,2.3
		c-1.2,0.4-2.1,1.2-3,2c-2.2,1.9-4.4,3.8-6.6,5.7c-0.1,0.1-0.3,0.2-0.4,0.3c2.1,0.3,4.2,0.4,6.3-0.2c5.7-1.6,11.4-3.2,16.9-5.3
		c5-1.9,9.7-4.8,15.1-5.9c1-0.2,1.6-0.9,1.9-2c1.3-4.7,1.6-9.5,1.6-14.4C468.1,403.2,467.8,402.7,467.1,402.3z"/>
	<path class="st0" d="M520.5,405.5c-0.6,0-1.1,0.3-1.7,0.3c-2.1,0-4.1,0-4.9-2.6c-0.2-0.7-0.7-1.5-1.3-1.7c-2.7-1.2-2.6-3-1.4-5.2
		c0.1-0.1,0.1-0.3,0.1-0.5c-0.3-1-0.4-1.9-0.2-2.9c0.2-0.2,0.2-0.4,0.1-0.5c-0.4-2-1.8-3.6-1.7-5.8c-0.1-0.1-0.1-0.1-0.2-0.2
		c-4.9,3.9-10.2,7.4-16.1,9.7c-3.1,1.2-5.9,2.8-8.5,4.9c-1.4,1.1-2.9,2.2-4.7,2.6c-1.2,0.2-1.4,0.9-1.4,1.9c0,2.2,0.5,4.4,0.9,6.6
		c0.3,1.3,0.8,2.3,1.8,3.1c2.8,2.5,5.7,5,8.6,7.3c1.5,1.2,3.1,2,5,2.7c3.1,1.1,6.2,2.1,9.3,3.2c2.3,0.8,4.5,1.1,6.9,0.6
		c1.6-0.3,3.4-0.4,5,0.4c1.3,0.6,2.8,0.9,4.2,1.3c0.2,0.1,0.5,0.1,0.7,0.2c-4.2-2.2-8.4-4.5-12.8-6.2c-1.4-0.5-2.6-1.4-3.9-2.1
		c-0.8-0.5-1.4-1.1-1.7-2c-1.1-2.9-1.7-5.8-1.8-8.9c0-0.5-0.2-1.1,0.3-1.3c0.6-0.3,1.2,0.1,1.5,0.5c2,2.2,4.5,2.1,7,1.3
		c1.8-0.6,3.5-1,5.5-0.8c1.4,0.2,2.8-0.3,4-0.9c1.1-0.6,2.1-1.3,2.7-2.4C522.9,406.6,522.1,405.4,520.5,405.5z"/>
	<path class="st0" d="M525,328.1c0.1-1.3-0.5-2.1-1.5-2.8c-3-2.1-6.4-3.4-9.8-4.5c-0.4-0.1-0.8-0.2-1.2-0.1c-4.6,1.2-8.8,0-12.9-1.9
		c-2-1-4-1.2-6.2-1.1c-5.2,0.2-10.3-0.2-15.5-1c-10-1.5-20.1-2.1-30.1,0.4c-1.3,0.3-2.5,0.7-3.7,1.3c-3.2,1.6-5.6,4.3-8.4,6.4
		s-4.4,5-5.2,8.4c-0.3,1.2-0.5,2.4-0.8,3.6s-0.2,2.6-1.4,3.6c-0.4,0.4-0.1,0.9,0,1.4c0.7,2.5,2,4.7,4.3,6.1c1.9,1.2,3.8,2.3,5.7,3.5
		c0.5,0.3,1,0.7,1.6,0.5c2.8-1,5.6-1.8,8.3-3.2c0.5-0.2,0.8-0.6,0.6-1.2c-0.7-1.8-1.1-3.9-2.2-5.4c-1.6-2.1-2.3-4.2-2.6-6.7
		c-0.3-2,0.3-3.5,1.8-4.5c3.5-2.6,7.5-3.6,11.6-1.6c4.8,2.4,8.3,6.3,10.4,11.3c0.4,0.9,0.7,1.9,0.2,2.9c-0.5,0.9-0.4,1.9-0.6,2.9
		c-1,5.6-3.5,10.1-9.2,12.1c-3.4,1.3-7,1.6-10.7,1.1c-2.6-0.4-5.2-0.8-7.8-0.9c-3.4-0.1-6.7-0.7-9.7-2.3c-0.1,0-0.3,0.1-0.4,0.1
		c-0.1,0.6,0.3,1.1,0.6,1.6c2.5,4.6,6,8.4,10.2,11.5c9.2,6.7,18.9,12.4,28.7,18.8c1-4.6,1.8-9,2.8-13.4c0.9-3.9,0.9-7.8,0.2-11.7
		c-0.5-2.5-0.5-5.1-0.2-7.6c0.1-1.1,0.3-2.3,0.7-3.4c0.3-1,1.1-1.6,2.3-1.5c1.1,0.1,1.7,0.9,1.9,1.9c0.1,0.4,0.1,0.8,0,1.2
		c-0.2,3.1,0.3,6.2,0.8,9.3c1,5.5,1.9,11,1.5,16.6c-0.2,3.2,0.7,6.2,1.6,9.1c0.4,1.2,1,1.3,2,1c1.3-0.5,2.5-1.2,3.6-2.2
		c2.1-1.9,4.5-3.3,7-4.5c3.4-1.6,6.8-3.3,10.2-5c2.6-1.3,4.9-3,7-5c5-4.9,9.4-10.3,13.3-16.1c0.3-0.4,0.8-0.8,0.4-1.6
		c-3.1,1.8-6.3,3-9.8,3.4c-0.6,0.1-1.1,0.4-1.6,0.6c-4.3,1.9-8.7,2.1-13.2,1.5c-8.4-1.1-18.5-12.7-13.5-22.6
		c0.4-0.7,0.6-1.4,0.1-2.3c-0.6-1.2,0-2.2,0.8-3.1c2.5-2.6,8.8-3.8,12-2c4.4,2.4,7.4,5.9,7.4,11.3c0,2.2-0.3,4.4-0.7,6.6
		c-0.1,0.6-0.5,1.4,0.1,1.9c1.1,0.9,2.1,1.9,3.7,1.4c2.1-0.6,4.3-1,6.5-1.6c2.6-0.7,4.9-1.9,7.1-3.3c2.5-1.6,3.5-4.1,2.8-6.8
		C524.9,336.3,524.8,332.2,525,328.1z"/>
	<path class="st0" d="M421.6,457.2c-0.5-1.1-1.2-2.1-2.4-2.7c-1-0.6-1.8-1.5-2.2-2.6c-0.4-1.3-1.2-2.2-2.3-3.1
		c-2.6-2.1-3.6-4.8-3.2-8.1c0.3-2.1,0.2-2.1-1.7-2.8c-5-1.7-9.5-4.1-13.6-7.4c-0.3-0.3-0.7-0.8-1.4-0.5c-0.2,1.3,0.3,2.3,1.5,3
		c1.4,0.9,2.8,2,4.2,3.1c3.4,2.6,5.7,5.9,7,9.9c0.7,2,1.4,4.1,1.8,6.1c2.1,9.7,9.3,14.3,17.3,18.5c0.5-0.9,0.2-1.6-0.1-2.3
		C424.9,464.7,423.2,460.9,421.6,457.2z"/>
	<path class="st0" d="M554.6,445.8c-0.3-1-0.7-1.4-1.7-0.9c-1.6,0.7-3.2,1.2-5,1.4c-1.4,0.1-2.3,0.7-3.1,1.9
		c-2.5,3.7-5.8,6.3-10.3,7.5c-4.7,1.2-7.9,5.5-7.8,10.3c0.2,4.7,1.1,9.4,2.2,14.2c0.9-0.1,1.3-0.6,1.7-1c3.1-3,5.6-6.4,6.8-10.7
		c0.9-3.2,2.7-5.6,5.7-7c1.1-0.5,1.9-1.3,2.5-2.3c1.6-2.5,3.6-4.7,6-6.5c1.1-0.8,1.8-1.9,2.6-3C555,448.6,555,447.3,554.6,445.8z"/>
</g>
<g>
	<path class="st1" d="M519.4,479.1c-0.5-4.9-1.5-9.7-1.3-14.7c0.2-4.4-0.4-8.7-0.9-13c-0.1-1.3-0.7-2.2-2-2.9c-2.1-1-4.2-2-6.5-2.3
		c-6.9-1-13-4.3-19.4-6.8c-1.5-0.6-2.7-2.2-4.4-1.7c-1.5,0.5-2.8,1.6-4.2,2.5c-1.1,0.6-1.5,1.5-1.5,2.8c0,4.8-0.1,9.5-0.4,14.3
		c-0.4,8.4-0.3,16.7,0.4,25.1c0.3,3.2,0.4,6.4,0.1,9.6c-0.1,1.5-0.6,3.1-0.3,4.6c0.5,2.3-0.4,4.4-1,6.5c-0.5,1.8-2.1,2-3.4,0.7
		c-0.3-0.3-0.4-0.8-0.8-0.9c-2.4-1.3-3-3.6-3.4-6c-0.5-2.8-0.6-5.5-0.3-8.3c0.5-4.8,1.1-9.6,1.2-14.5c0.2-6,0-12-0.3-18
		c-0.1-3.8-1.1-7.3-2.4-10.8c-0.5-1.3-1.2-2.4-2.5-2.9c-2.9-1.1-5.7-2.5-8.3-4.2c-1.7-1.1-3.4-1.3-5.4,0c-2.9,2-6.2,3.4-9.8,3.8
		c-1.8,0.2-2.8,1.1-3.6,2.5c-1.2,2.2-1.7,4.6-2.2,7c-1.3,7.6-1.3,15.3-1.5,23.6c0,0.6,0,1.2,0,1.8c0,0.2,0,0.4,0,0.6
		c0.1,4.5,0.1,9.7,0.4,15c0.4,5.7,2.5,10.6,5.5,15.3c0.8,1.3,1.9,2.3,3.1,3.1c3.6,2.2,7.1,4.4,10.6,6.6c4.3,2.7,8.9,4.6,13.8,5.6
		c2.2,0.5,4.3,1,6.5,1.4c8.6,1.7,17,1.6,25-2.5c0.7-0.4,1.5-0.7,2.3-1c1.4-0.5,2.5-1.5,3.5-2.6c3.7-3.8,6-8.6,8.5-13.2
		C519.2,497.3,520.4,488.4,519.4,479.1z"/>
</g>
<g>
	<path class="st2" d="M542.4,356.2c0.9-0.7,1.5-0.5,2.4,0.1c1.2,0.8,2.5,1.2,4,0.9c1.4-0.3,2.7-0.5,4.1,0.1c1,0.4,2,0,2.5-1
		c2.6-5.1,1-9.8-4.3-10.1c-1-0.1-1.4-0.5-1.7-1.4c-0.6-2.5-2.3-4.1-4.5-5.3c-0.2-0.1-0.5-0.2-0.7-0.3c-1.5-1-1.7-2.3-0.3-3.5
		c1.4-1.3,2.2-2.9,2.3-4.8c0.1-1.8,0.5-3.3,1.1-5c2-5.6-0.3-11.3-5.6-13.8c-0.9-0.4-1.2-1-1.4-1.8c-2.2-7.2-6-13.4-11.2-18.9
		c-0.3-0.3-0.6-0.6-0.6-1.1c1.6-1.6,3.3-3.1,5.8-3.6c3-0.7,4.5-3.1,4.8-6.2c0.3-3.7-1.2-6.8-3.8-9.3c-3.1-2.9-7.6-2.3-9.7,1.4
		c-0.7,1.1-1.2,1.4-2.5,1c-4.4-1.2-6.6-0.2-9.2,3.6c-0.6,0.8-1,1.8-2,2.5c0-4.8-0.1-5.2-3.5-8.9c-0.6-0.7-0.8-1.4-1-2.2
		c-0.5-2.3-1.8-4.1-3.8-5.5c-5.7-4-15.3-3.2-20.4,1.4c-0.4,0.4-0.8,0.8-1.2,1.3c-1.5,1.7-2.4,3.7-2.8,6.1c-4.1-4.2-8.5-6.9-14.2-7.1
		c0.1-1,0.8-1.1,1.3-1.5c1.2-0.9,2.3-1.9,3.2-3.1c2.1-2.7,1.4-5.3-1.8-6.7c-1.9-0.8-3.8-1-5.8-0.6s-4,0.7-6.1,0.9
		c-2.5,0.2-4.9,1.1-7,2.6c-1.3,1-2.3,2.5-3.8,3.1c-2.8,1.3-4.6,3.6-6.6,5.6c-2.2,2.2-2,6.6,0,9c1.1,1.3,1.1,1.7,0.2,3.2
		c-0.2,0.4-0.6,0.9-0.6,1.3c-0.1,1-0.7,1.5-1.6,1.9c-1.1,0.5-2,1.3-3.1,1.9c-1.6,0.8-3.2,1.4-4.6,2.5c-2.7,2-4.8,4.6-6.8,7.4
		c-1.8,2.5-3.3,5.2-3.6,8.3c-0.1,0.8-0.4,1.5-0.8,2.2c-0.9,1.7-2.1,3.3-2.1,5.3c0,0.9-0.7,1.1-1.5,1.1c-1.8,0-3.5,0.4-4.8,1.9
		c-1.7,1.9-2.6,3.9-1.8,6.5c0.3,1.1,0.7,2.6-0.1,3.6c-1.6,1.8-2,3.9-2.4,6.2c-0.9,5.5-0.2,10.7,2.8,15.5c0.6,0.9,0.7,1.7,0.7,2.7
		c-0.2,3.9,1,7.5,2.7,11c0.4,0.9,1.2,1.6,1.8,2.3c0.6,0.8,0.4,1.5-0.2,2.2c-0.5,0.6-1,0.9-1.7,0.4c-2.3-1.8-4.9-1.6-7.5-1.4
		c-2.5,0.1-4.1,1.3-5.2,3.4c-2.1,3.8-2.1,7.9-0.6,11.8c1.6,4.4,6.3,5,9.5,2.9c1-0.7,2.1-1.2,3.3-1.5c2.2-0.4,3.8-1.8,5.2-3.4
		c1.1-1.3,0.9-3.4,2.1-4.3s3.1-1,4.4-2c0.5-0.3,0.9-0.7,1.3-1.1c-1.1-1.7-2.1-3.6-2.9-5.5c-3.3-8.2-5.4-16.6-2-25.3
		c0.1-0.3,0.2-0.6,0.2-1c1.3-6.2,2.9-12.3,4.9-18.3c4.4-13.2,12.6-23.2,25.1-29.6c8.4-4.3,17.4-6.1,26.8-6.5
		c6.7-0.3,13.1,0.6,19.4,2.7c4,1.3,7.8,3,11.7,4.6c5.6,2.3,10.1,6.2,14.4,10.2c6.2,5.8,10.3,13.1,11.6,21.8c0.1,0.9,0,1.9,0.7,2.6
		c1.8,1.9,2.3,4.3,2.8,6.7c1.3,6.3,1.7,12.7,1.4,19.1c-0.1,2.9-0.6,5.7-1.3,8.3c0.2,0.1,0.3,0.3,0.5,0.4
		C538.5,357.5,540.5,357.6,542.4,356.2z"/>
	<path class="st2" d="M480.5,46.7c0.8,0.3,0.8,0.8,0.5,1.8c-1.2,3.2-1.5,6.5-0.4,9.8c0.7,2.1,2.1,4.1,3.9,4.9c2.4,1,3.5,2.7,4.9,4.5
		c3.2,4.3,7.5,5.9,12.8,4.9c8.7-1.6,18.4-10.9,18.5-20.7c0-1.1,0.3-1.7,1.5-1.7c0.3,0,0.6-0.1,1-0.2c2-0.6,3.2-2,3.5-4
		c0.3-1.6-0.5-3-1.9-4.1c-8.6-1.2-17.3-1.8-26-2c-9-0.2-18,0.5-26.9,1.6c1,1,2.1,1.7,3.4,2.3C477.1,44.6,478.6,45.9,480.5,46.7z"/>
	<path class="st2" d="M510.9,130.5c2.8-1.3,4.1-3.6,4.5-6.6c0.2-1.4,0.5-2.7,1.2-4c1.8-3.1-0.5-7.4-4.7-7.5c-1.8,0-3.5,0.5-4.9,1.7
		c-1.2,1-2.3,2.2-2.9,3.6c-1.4,2.9-3.6,5.2-5.3,7.9c-0.4,0.6-0.5,1.4-1.4,1.7c-0.4-1.1-0.7-2.1-1.1-3.1c-1.6-3.7-5.9-5.1-8.7-2.7
		c-1.7,1.5-2.9,3.6-3.2,5.6c-0.6,4.4-0.4,8.9,2.4,12.9c1.3,1.8,2.3,3.8,2.2,6.1c-0.2,4-1,7.8-2,11.6c-0.8-0.1-1-0.5-1.2-0.8
		c-1.7-2.1-3.9-3-6.6-2.4s-4.3,2.5-5.2,5.1c-0.8,2.5-0.9,5-0.5,7.5c0.2,1.1,0.4,2.1,0.4,3.2c0,1,0.4,1.8,0.9,2.7
		c1.6,3,4,4.7,7.6,4.4c0.9-0.1,1.8,0,2.5,0.7c1.5,1.4,3.3,1.1,5,0.5c1.9-0.7,2.9-2.3,3.8-4c1.6-2.9,2.5-6,3.7-9.1
		c1.4-3.5,2.6-7.2,5-10.1c2.4-3,4.3-6.2,5.8-9.6c1.9-4.4,3.1-9,1.8-13.8C509.8,131.2,510.2,130.8,510.9,130.5z"/>
	<path class="st2" d="M489.6,223.6c4,1.6,7.7-0.2,9-4.4c0.6-2,0-3.7-1.3-5.2c-1.3-1.4-3-1.6-4.8-1c-0.5,0.2-1,0.2-1.4,0.4
		c-0.9,0.4-1.4-0.2-1.9-0.7c-0.6-0.6-0.5-1.4-0.5-2.1c0.1-2.2-0.4-4.2-1.2-6.2c-0.8-1.9-1.9-3.6-3.7-4.8c-1.2-0.8-2.7-1.5-4.1-0.5
		c-1.4,0.9-1.6,2.4-1.3,3.9c0.3,1.7,0.5,3.4,0.9,5.1c0.2,1.3,0.1,2.4-0.6,3.5c-0.7,1-0.9,2-0.9,3.2c0,1-0.1,2.1-0.2,3.1
		c-0.8,0.4-1.4,0-2-0.3c-2.5-1.4-5.3-2-7.7-3.6c-0.9-0.6-1.9-0.9-2.9-1.2c-2.5-0.7-5,0.4-6.2,2.7c-1.6,2.8-1.6,5.9-1.3,9
		c0.1,1.2,0.5,2.2,1.4,3s1.4,1.7,1.3,3c-0.1,0.6,0.1,1.1,0.2,1.7c0.6,3.5,3,5.5,6.6,5.3c1.1-0.1,2.1,0.1,3.1,0.5
		c1.7,0.9,3.6,1.2,5.5,0.6c1.4-0.4,1.8,0.1,2.3,1.3c0.8,1.9,2.3,3.4,4.3,4.1c2.8,0.9,5.9-0.4,7.4-2.9c1.7-2.9,1.4-5.4-0.9-7.8
		c-0.3-0.3-0.6-0.6-0.9-0.9c-0.7-0.6-0.9-1.3-0.8-2.3c0-2.4,1.3-4.5,1.3-7C488.9,223.3,489.2,223.4,489.6,223.6z"/>
	<path class="st2" d="M461.6,96.9c0.6,1.4,1.1,2.9,1.5,4.3c0.8,2.9,2.4,5.4,4.6,7.5c1.8,1.7,4,2.3,6.4,1.3c2.3-0.9,3.3-2.8,3.5-5.2
		c0-0.2,0-0.5,0-0.7c-0.2-1.2,0.2-1.8,1.6-1.7c1.6,0.1,3.3,0,4.9-0.3c0.8-0.1,1.4-0.4,2.2,0.1c0.9,0.5,1,1.2,1.2,2
		c0.3,1.4,0.6,2.7,1.2,4c2.1,4.4,5.8,6.7,10.7,4.6c2-0.8,3.3-2.4,4.5-4c1.3-1.8,2-3.9,3.1-5.8c2-3.4,1.3-9.4-1.9-12.5
		c-2.6-2.6-6.9-2.6-9.5-0.2c-1,0.9-2.2,1.6-3.2,2.6c-1.1,1-1.7,0.9-2.9-0.2c-0.5-0.4-0.9-0.9-1.5-1.3c-1.2-0.8-2.5-1.6-3.9-1.1
		c-2.1,0.8-4.6,0.9-5.9,3.1c-1.6-1.1-2.4-2.4-3-4.1c-0.7-1.9-1.7-3.8-3.3-5.1c-2.2-1.8-4.6-2.8-7.5-1.7c-2.5,0.9-3.8,2.9-4.1,5.4
		C459.9,91,460.4,94.1,461.6,96.9z"/>
	<path class="st2" d="M555.3,369c-1.4,2.1-1.4,2.1-3.4,0.7c-0.3-0.2-0.7-0.5-1-0.7c-2.8-1.6-5.5-2-8.2,0.2c-0.3,0.3-0.7,0.4-1,0.6
		c-2.9,1.3-4.4,5.3-3.1,8.3c0.9,2,3,3.2,5.2,2.7c1.2-0.3,2.4-0.2,3.6,0c2.9,0.5,5.2-0.5,6.8-3c0.4-0.7,0.8-1.4,1.1-2.2
		c0.3-0.6,0.7-0.9,1.3-0.4c0.9,0.6,1.9,1,3.5,0.9c-0.1,0,0.3,0,0.7-0.1c1.9-0.5,3.4-1.7,4-3.7c0.5-1.6,0-3.1-1.2-4.3
		C561.2,365.7,557.1,366.2,555.3,369z"/>
	<path class="st2" d="M455.3,72.8c1,0.1,1.8-0.1,2.6-0.4c2.2-0.9,3.7-3.2,3.6-5.6c-0.1-2.8-1.8-5.2-4.3-5.9
		c-0.6-0.2-1.3-0.3-1.9-0.5c-2.1-0.7-3.7,0.2-4,2.4c-0.2,1.7-0.2,3.4-0.4,5.1c-0.2,1.6,0.8,2.5,1.6,3.5
		C453.3,72.5,454.3,72.7,455.3,72.8z"/>
	<path class="st2" d="M584.7,166.5c2.1,0.4,4.2,0.7,6.2,1.5c1,0.4,2,0.4,3.1,0.2c3.1-0.5,6.2-0.6,9.3,0c4.4,0.9,8.3,2.9,12.1,5.3
		c3,1.9,5.5,4,7,7.3c1.3,3,3.6,5.4,5.7,7.9c1,1.2,2.1,2.1,3.8,1.6s3.1-2.2,3.1-4c0-2,0.2-3.9-0.3-5.9c-0.2-1-0.3-2.2-0.1-3.2
		c0.6-2.6,0.3-5.2,0.4-7.9c-0.2-2.3,0.1-4.7-0.3-7.1c-0.7-4.6-2.1-9-2.8-13.7c-0.5-3.7-2.2-7-5.2-9.5c-2.3-2-5-2.3-7.5-0.8
		c-2.3,1.4-3.3,4-2.6,6.8c0.4,1.5,0.7,3,1.1,4.5c0.5,1.8,0.2,2.3-1.7,2.5c-2,0.1-3.9-0.6-5.6-1.6c-3-1.8-4.3-4.8-5.5-7.9
		c-0.7-1.9-1.3-3.9-2.1-5.8c-1.6-3.7-3.2-7.4-6.4-10.1c-4.3-3.6-8.5-7.2-13.6-9.6c-1.7-0.8-1.7-0.9-1-2.6c1.5-3.7,4.5-5.9,8.3-6.6
		c2-0.4,3.1-1.2,3.8-2.9c1.5-3.7,4.4-6,8-7.6c7-3.2,14.2-5.4,22-5.5c0.5,0,1.2,0.2,1.5-0.5c0.3-0.8-0.3-1.2-0.8-1.6
		c-0.5-0.3-1-0.6-1.5-0.8c-2.2-1.1-4.3-2.4-6.2-3.9c-6-4.7-12.2-9.1-19.4-11.8c-5.5-2.1-11-3.9-16.9-3.4c-2.4,0.2-4.7,0.5-7,1
		c-0.9,0.2-1.8,0.5-1.2,1.8c0.3,0.8,0.1,1.6-0.4,2.3c-1.6,2.2-2.1,4.8-2,7.5c0.1,3.6-0.1,7.2-0.5,10.8c-0.3,2.9-1.2,5.5-3.2,7.8
		c-2.1,2.3-3.9,4.8-5.2,7.7c-2.4,5.2-2.7,10.6-2.3,16.1c0.1,1.7,0.4,3.5,1.8,4.7c1.5,1.3,2.1,2.7,2.3,4.6c0.2,1.5-0.2,2.1-1.3,2.7
		c-4.8,2.4-8.7,5.8-12.3,9.7c-2.8,3-4.8,6.4-5.3,10.5c-0.1,0.8-0.4,1.6-0.7,2.3c-1.5,3.3-2.2,6.7-1.2,10.3c0.1,0.3,0.1,0.7,0.2,1
		c0.2,0.5,0.1,1-0.4,1.2c-2.4,1.2-3.7,3.4-5.1,5.5c-0.3,0.4-0.4,1.2-1.2,1c-0.6-0.2-0.4-0.8-0.4-1.3c0-2.3,0-4.6,0-6.9
		c0-1.1-0.5-2-1.5-2.2c-1.2-0.3-2,0.3-2.6,1.3c-2.1,3.7-2.5,7.8-2.5,11.8c0,2.7,0.8,5.5,1.4,8.2c0.6,2.8,1.3,5.6,3.1,8
		c2.1,2.8,5.5,3.4,8.5,1.6c2.5-1.5,3.7-3.9,4.8-6.4c2-4.6,4.2-9,6.6-13.4c1.3-2.4,2.6-3.9,5.4-4.3c2.6-0.4,4.9-2.2,7.3-3.4
		c3.8-2,7.7-3.5,12-4.2C579.8,166.7,582.2,166,584.7,166.5z"/>
	<path class="st2" d="M786.7,310.9c-1.1-0.2-1.3,1.1-1.5,1.9c-0.7,3-2.2,5.6-3.7,8.2c-0.7,1.1-1.1,2.4-2.5,3.1
		c-0.3-0.5-0.2-0.8-0.1-1.1c2.3-5.7,3.1-11.8,4.9-17.7c0.7-2.3,1-4.6,0.8-7c-0.2-2.1-0.5-4.2-0.9-6.3c-1.1-5.4-2.8-10.6-5.9-15.3
		c-1.5-2.3-3.2-4.6-5-6.7c-1.8-2.2-3.9-4.2-6.5-5.5c-0.7-0.3-1.5-0.6-2.1,0.1c-0.6,0.8,0.2,1.3,0.7,1.8c0.6,0.6,1.2,1.2,1.7,1.7
		c1.7,1.7,2.9,3.7,4.1,5.8c0.6,1.1,0.9,2.1-0.1,3.1c-0.4,0.5-0.7,1.1-0.8,1.8c-0.1,0.9,0,1.9-1.2,2.1s-1.8-0.6-2.3-1.5
		c-0.3-0.5-0.6-1-1-1.4c-2-2.5-3.6-5.3-6.3-7.1c-2.2-1.5-4.3-3-6-5c-0.6-0.7-1.4-1.1-2.4-1.2c-1.9-0.2-3,0.6-3,2.6
		c0,0.4,0,0.8,0,1.2c-0.1,3,0.3,6,0.5,9.1c0.4,5.7-0.3,11.4-1,17.1c-0.5,4.1-1.9,7.9-5,10.9c-1.6,1.5-2.8,3.2-3.8,5.1
		c-2.7,5.4-5.7,10.7-8,16.4c-2.2,5.6-3.5,11.4-3.3,17.5c0.2,3.9,1.3,7.3,5.6,8.5c1.3,0.4,1.3,1.3,1.2,2.3c-0.3,4.6,0.2,9.1,1.5,13.6
		c1.4,4.8,3,9.5,6.3,13.4c0.8,0.9,1.5,1.9,1.9,3.1c0.2,0.8,0.8,1.4,1.6,1.8c0.7,0.4,1.4,0.4,2.1,0c0.7-0.4,1-1.1,0.9-1.9
		c-0.1-0.5-0.2-1-0.4-1.4c-1.1-3.2-1.1-6.3-0.4-9.6c1.2-5.1,3.5-9.5,6.3-13.8c3.5-5.5,7.5-10.7,13.1-14.5c1.7-1.1,3.2-2.6,4.6-4.1
		c1.6-1.7,3.1-3.6,4.6-5.4c3.3-4,6.3-8.2,8.4-12.9c1.6-3.4,2.9-7,3.2-10.8C787.7,312.3,787.9,311.1,786.7,310.9z"/>
	<path class="st2" d="M602.1,296.2c1.4,0.6,1.7,1.9,2.2,3.1c0.9,2.1,1.6,4.3,2.6,6.4c0.5,1.2,0.8,2.6,1.9,3.9
		c0.9-6,0.7-11.6,0.2-17.2c-0.1-1.1-0.5-2.1,0.4-3.2c1,1.1,1.1,2.4,1.4,3.5c1.2,4.5,2,9.1,4.5,13.2c1.3,2.1,2.2,4.4,2.9,6.8
		c1.3,4.4,3.5,8.4,5.8,12.4c0.5,1,1,0.9,1.7,0.2c1.6-1.7,2.3-3.7,2.5-6c0.2-3.2-0.4-6.3-1.2-9.5c-0.7-2.7-1.3-5.4,0-8.1
		c2.7-5.5,5.5-11,7.5-16.8c0.1-0.2,0.3-0.4,0.6-0.7c0.8,0.8,1.1,1.7,1.4,2.5c0.7,1.6,1.6,3,2.6,4.4c0.8,1.1,1.9,1.6,3.2,1.3
		c1.3-0.3,1.8-1.4,2.1-2.5c0.1-0.5,0.1-1.1,0.1-1.7c-0.1-5.4-1.3-10.7-2.2-16c-0.8-4.5-2.4-8.9-1.3-13.5c0.2-1,0.3-2.2,0-3.2
		c-0.5-1.5-0.2-2.9,0.2-4.3c0.6-2.7-0.3-9.8-1.7-12.1c-0.9-1.4-1.4-2.9-1.9-4.5c-0.7-2.4-1.7-4.6-3.7-6.2c-3-2.5-8-1.5-9.7,2
		c-0.6,1.2-1.2,2.5-1.4,3.9c-0.9,4.7-2.9,8.9-5.9,12.5c-3.7,4.5-8,8.2-13.7,10c-3.8,1.3-7.6,2.6-10.9,5c-0.9,0.6-1.6,0.6-2.5,0.2
		c-1.3-0.5-2.8-1-4.1-0.4c-1.5,0.7-3,0.9-4.5,0.8c-0.8,0-1.6,0.3-2.4,0.6c-1.8,0.8-2.1,2.5-0.9,4c0.5,0.6,1,1.1,1.6,1.5
		c2.6,1.6,4.8,3.7,7.2,5.5c0.8,0.6,1.5,1.3,2,2.2c1.3,2.5,3.2,4.5,5,6.7c3.1,3.7,6.2,7.4,7.8,12.1
		C601.6,295.4,601.7,296,602.1,296.2z"/>
	<path class="st2" d="M637.1,341c-0.7,1-1.5,2-2.5,2.7c-1.8,1.4-3.6,2.9-5.3,4.3c-3.2,2.7-6.9,4.4-11.3,4c-5.8-0.6-11-2.3-13-8.6
		c0-0.1-0.2-0.2-0.4-0.4c-1,1.3-1.7,2.9-2,4.4c-0.6,2.7-1.1,5.4-1.6,8.2c-0.3,2-0.9,4,0.3,6c0.9,1.5,0.9,3.2,0.5,4.8
		c-0.5,2.4-0.4,4.7-0.3,7.1c0.2,3.6,3.4,6.8,6.9,7.2c7.2,0.6,13-2.1,17.5-7.6c3.3-4,6.5-8,9.7-12c4.5-5.6,8.4-11.5,9.5-18.8
		c0.6-4.5-0.2-8.7-1.9-13.3C641.5,333.4,639.6,337.3,637.1,341z"/>
	<path class="st2" d="M714.9,397.7c-1.2-1.8-2.5-3.4-3.6-5.3c-1.8-2.9-4.2-5.5-4.7-9.1c0-0.4-0.4-0.7-0.6-1
		c-3.1-5.6-5.5-11.5-7.1-17.7c-1.4-5.6-2.3-11.2-3.4-16.8c-0.9-4.6-2.3-9.1-4.9-13c-0.8-1.2-1.2-2.3-1-3.6c0.4-2.8-0.1-5.5-0.4-8.2
		c-0.3-2.6-1.2-5.1-1.1-7.7c0-3.5-0.6-7-1.2-10.4c-0.6-3.4-1.8-6.6-2.7-9.9c-2.1-7.9-2.3-16-3-24c-0.2-2.4-0.4-4.7-0.7-7.5
		c-0.7,0.6-0.8,1-0.7,1.4c0.3,3.5-0.6,7-0.5,10.5c0,0.6-0.1,1.1-0.2,1.7c-0.3,2.5-0.7,5-0.8,7.5c-0.1,4.8-0.1,9.7,0,14.5
		c0,2.3,0.2,4.6,0.6,6.8c0.5,2.3,0.3,4.3-0.4,6.5c-1.1,3.2-1.8,6.4-1.8,9.8c0.1,6.1,1.8,11.9,3.2,17.8c0.9,3.8,3,7.3,5,10.6
		c3.4,5.7,5.1,12,7.7,18.1c2.1,4.9,4.3,9.7,7.3,14.2c3.6,5.2,7.5,10.1,11.5,14.9c0.8,1,1.7,2,2.9,2.6c0.4,0.2,0.9,0.5,1.4,0.1
		c0.6-0.5,0.3-1,0-1.5C715.5,398.5,715.2,398.1,714.9,397.7z"/>
	<path class="st2" d="M677.2,153.8c0.9,4.7,3.3,8.5,6.5,11.9c3.2,3.3,6,6.9,8.7,10.6c2.7,3.8,5.3,7.7,7.9,11.6
		c0.4,0.7,0.7,1.5,1.7,1.5c0.5-0.6,0-1-0.2-1.4c-0.8-1.6-1.7-3.2-2.6-4.7c-4.2-7.2-8.1-14.6-12.9-21.5c-1.8-2.6-3-5.4-3.7-8.5
		c-0.8-3.8-1.7-7.7-2.4-11.5c-2.3-11.9-5-23.7-9-35.1c-2.3-6.4-4.7-12.8-8.8-18.3c-0.4-0.6-0.7-1.3-0.9-2c-0.6-2.8-2.1-4-4.9-4.1
		c-1.8-0.1-3.4,0.4-4.9,1.3c-2.6,1.5-4.7,3.8-7.6,4.9c-1.1,0.4-1.2,2.3-0.1,3.1c1.8,1.2,3.1,3,5.1,3.8c1.2,0.5,2.4,1.2,3.2,2.2
		c3.8,4.8,7.5,9.7,9.8,15.5c1.7,4.4,4.1,8.6,5.6,13.1c1.5,4.6,3.2,9.1,5.4,13.4c1,1.9,1.6,3.9,2.1,6
		C676,148.2,676.7,151,677.2,153.8z"/>
	<path class="st2" d="M737,192.2c1,0.9,2,1.9,3.4,2.3c1.2,0.3,1.7,1.1,2,2.3c0.3,1.6,1.1,3.1,1.9,4.5c2,3.4,4,6.8,5.7,10.3
		c0.3,0.7,0.7,1.3,1.2,1.8c0.4,0.3,0.7,0.7,1.3,0.5c0.6-0.3,0.8-0.8,0.6-1.5c-0.4-1.3-0.7-2.5-1.1-3.8c-1.4-4.3-3.2-8.4-4-12.9
		c-0.4-2.4-1-4.8-0.5-7.3c0.2-1.1,0.3-2.3,0.3-3.8c0.6-3.1-1.4-5.2-3.8-7.1c-4.2-3.3-8-7-11.9-10.6c-3.5-3.4-6.8-7.1-9.9-10.9
		c-4.8-5.6-9.2-11.5-13.2-17.7c-0.5-0.8-1.2-1.6-1.9-2.2c-0.7-0.6-1.5-0.6-2.3-0.2c-0.9,0.5-0.9,1.3-0.7,2.2c0.1,0.5,0.5,1,0.7,1.6
		c1.5,4.2,4.2,7.8,5.7,11.9c0.5,1.5,1.1,2.9,1.9,4.2c2.1,3.6,4.2,7.2,6.5,10.7c3.3,5.3,6.8,10.6,10.1,16
		C731.1,186.2,733.8,189.4,737,192.2z"/>
	<path class="st2" d="M677.3,253.4c0.5-5,1.1-10.1,3-14.8c2.4-6,5.3-11.7,11.5-14.7c0.6-0.3,1.1-0.9,2-0.6c0.8,0.3,1.2-0.4,1.2-1.1
		c-0.1-1.3,0.5-2.4,1-3.5c0.4-1.1,0.8-2.2,0.4-3.3c-0.7-2.1-1.2-4.2-2-6.3c-0.4-1.2-1-2.4-2.1-3.3c-1-0.8-1.2-1.8-1.3-3
		c0-1.3-0.3-2.6-0.5-3.9c-0.1-0.6-0.6-1.2-1.3-1.2c-0.6,0-0.8,0.5-1.1,0.9c-3.2,5.1-6.4,10.3-9.6,15.4c-3.3,5-4.8,10.4-4.7,16.5
		c0.1,3.2-0.7,6.5,0.1,9.7c0.1,0.2,0,0.5,0,0.7c-0.6,2-0.4,4.1-0.4,6.6c-0.3,2.8,0.7,6.1,0.5,9.5c0,0.5,0.2,0.9,0.3,1.4
		c0.2,0.7,0.6,1.2,1.4,1.1c0.8-0.1,1.2-0.6,1.2-1.4C676.7,256.4,677.2,254.9,677.3,253.4z"/>
	<path class="st2" d="M361.3,173.8c0.4,1.3,0.7,3,2.2,0.6c0.1-0.2,0.8-0.2,1.2-0.2c1.5-0.1,2.6-1,3.5-2s1.6-2.1,2.4-3.1
		c0.5-0.7,1-1.3,2-1.3c1.5,0,2.7-0.8,3.8-1.6c1.1-0.9,2.4-1.3,3.8-1.7c5.5-1.6,11.1-1.7,16.8-1.7c4.1,0,7.9,1.1,11.6,2.8
		c4,1.8,7.3,4.6,10.5,7.6c2.7,2.5,4.1,2.7,7.2,0.8c0.1-0.1,0.3-0.1,1-0.3c-1,2.2-0.2,4,0.4,5.9c0.7,2.3,1.2,4.6,1.6,6.9
		c0.7,3.4,1.2,6.9,2.2,10.3c1.4,4.7,5,6.7,9,8.2c2.5,0.9,4.8-0.4,6.4-2.9c1.8-2.9,2.1-6.2,3-9.3c1.3-4.4,1.3-8.7,0.2-13.1
		c-0.4-1.6-0.5-3.3-0.1-4.9c1.4-4.7-4.8-11.3-10.2-9.9c-1.9,0.5-3.9,0.5-5.8,0c-4.7-1.2-7.8-6.6-6.7-11.9c0.3-1.2,0.6-2.4,1-3.5
		c0.3-0.8,0.2-1.4-0.4-2c-0.5-0.4-0.9-0.9-1.5-1.3c-7.7-5.2-11.8-17.4-7.5-26.8c1.2-2.6,2.2-5.3,3.2-8c1-2.9,0.8-3.1-1.5-5
		c-2.8-2.3-5.7-4.4-7.7-7.5c-1.8-2.8-2.8-5.9-3.8-9c-1.8-5.9-2.4-11.8-0.2-17.8c0.4-1.1,0.2-1.6-0.8-2.1c-3.1-1.6-6.2-1-9.3,0
		c-1.6,0.5-3.2,1.3-4.7,2c-7.1,3.1-13.7,7-19.2,12.6c-0.8,0.8-1.4,1.6-2.3,2.2c-4.4,3-6.8,7.5-8.9,12.1c-0.7,1.6-0.8,3.4-0.6,5.1
		c0.2,1.9,1.2,3.3,3.1,4.1c2,0.8,3.8,0.2,5.7-0.5c6.1-2.6,12-2.1,17.6,1.4c2.1,1.4,4.3,2.7,6.6,3.9c2.7,1.4,4.1,0.7,4.7-2.3
		c0-0.2,0.2-0.2,0.6,0c1.4,3.4,1.8,7.1,0.7,10.8c-0.6,2-1.5,4-2.2,6c-0.7,2-0.9,2.3-3.1,2.3c-1.7,0-3.4-0.1-5.2,0
		c-6.8,0.2-12.3,3.2-16.6,8.3c-1.6,1.9-2.7,4.4-1.6,7.1c0.3,0.7,0,1.2-0.4,1.8c-2.7,3.5-5.3,7.1-8.6,10.1c-2.2,2-3.6,4.5-4.7,7.1
		c-1.3,3.2-1.5,6.4,1.4,9.1C361,173.4,361.3,173.6,361.3,173.8z"/>
	<path class="st2" d="M400.6,258.5c-2,0.1-4.1,0.5-5.9,1.4c-6.5,3.4-13.3,4.2-20.5,2.8c-5.5-1-9.8-3.9-13-8.5
		c-2-2.9-4.7-5.1-7.7-6.7c-2.4-1.3-4.6-2.8-6.4-4.9c-0.8-0.9-1.8-1.6-3-2.1c-1.9-0.9-2.7-0.7-3.7,1.2c-0.4,0.8-0.5,1.5-0.5,2.4
		c0.2,3.9,1.4,7.6,3.7,10.8c0.9,1.3,1.5,2.4,0.6,4c-0.6,1.2-1,2.6-0.9,4c0.2,2-0.4,3.6-2.1,4.9s-2.8,3.2-1.9,5.6
		c0.2,0.5,0.1,1.1,0.1,1.7c0,1.8,0.6,3.3,1.5,4.8c1.1,1.8,2.7,3.1,4.1,4.5c1.6,1.6,3,3.2,4.1,5.2c1,1.7,1.7,3.5,1.5,5.6
		c-0.1,0.9-0.1,1.6-1.3,1.6c-1.1,0-1.6,0.6-1.7,1.7c-0.1,0.8-0.4,1.6-0.4,2.4c-0.3,4.2-0.5,8.5-1.1,12.7c-0.2,1.8-0.3,3.6-0.5,5.4
		c-0.5,3.3-1,6.7-0.8,10c0.3,3.1,0.2,6.2,0.7,9.3c0.4,1.9,0.2,3.7-0.9,5.4c-0.5,0.8-0.8,1.6-1.2,2.4c-1.6,3.2-2.2,6.7-2.6,10.2
		c-0.4,3,1.2,5.3,3.8,6.1c2.5,0.8,4.7-0.1,6.4-2.7c1.3-1.9,1.8-4,2.5-6.1c1.3-3.7,2.6-7.4,5.4-10.4c1.2-1.3,1.8-3.1,1.9-5
		c0.1-0.7,0-1.5,0.4-2.1c0.9-1.5,1.1-3.2,1.1-4.9c0-3.2,0-6.4,0-9.6c0-1,0.2-1.9,0.4-2.9c0.2-1-0.3-2.1,0.8-3.3
		c1.9,4.4,3.3,8.7,4.4,13.1c0.8-0.1,1.1-0.7,1.3-1.2c1.2-2.8,2.3-5.6,3-8.6c0.9-4.2,1.8-8.5,2.8-12.7c1.5-6.6,5-12.4,8-18.4
		c0.2-0.4,0.5-0.8,0.9-1.2c4.1-4.2,8-8.6,11.8-13.2c2.9-3.4,5.2-7.1,7.3-11C404.3,260.2,403.1,258.3,400.6,258.5z"/>
	<path class="st2" d="M248,155.3c-0.3,0.2-0.6,0.5-1,0.8c-1.9,1.5-3.8,3.2-5.8,4.5c-4.5,2.8-8.8,5.9-14,7.5
		c-0.2,0.1-0.4,0.2-0.7,0.3c-2.1,1-2.1,1.2-1.7,3.4c0.3,1.8,0.8,3.6,0.6,5.3c-0.2,2.7-0.7,5.3-1.8,7.9c-2.3,5.7-5.3,11.1-7.5,16.8
		c-3.3,8.9-7.1,17.6-8,27.2c-0.6,6.6-0.5,13.2,1,19.7c1.3,5.5,3.7,10.7,5.5,16c1.3,3.8,3.6,6.9,6.1,10c1.9,2.3,4,4.3,5.9,6.6
		c0.4,0.5,0.7,0.9,1.1,1.4c1.2,1.3,2.5,2.6,4.1,3.4l0,0c0.1,0.1,0.2,0.1,0.2,0.2c-0.1-0.1-0.1-0.1-0.2-0.2c0-0.5,0-1-0.3-1.4
		c-2.5-5.2-3.8-10.8-5.2-16.3c-0.5-2.1-0.5-4,0-6c0.4-1.4,1-2.8,1.6-4.1c2.9-6,4.7-12.3,5.4-19c0.3-2.5,0.2-5.1,0.5-7.6
		c0.7-5.5,2.4-10.7,4.5-15.8c0.9-2.1,1.7-4.3,2.5-6.4c0.2-0.5,0.5-1.1-0.2-1.5c-0.6-0.3-1.1,0.2-1.5,0.6c-0.1,0.1-0.2,0.3-0.3,0.4
		c-1.1,1.4-2.1,2.9-3.2,4.3c-0.5,0.6-0.9,1.3-1.9,1.7c0.4-1.9,0.9-3.5,1.2-5.2c0.6-2.9,1.4-5.8,1.2-8.7c-0.2-2.4-0.6-4.9-1.2-7.2
		c-1.5-5.8-2.6-11.7-0.8-17.6c0.2-0.5,0.4-1.3-0.2-1.6c-0.7-0.4-0.9,0.4-1.2,0.8c-0.2,0.2-0.3,0.6-0.9,0.3c0.8-3.6,2.8-6.4,5.6-8.6
		c3.7-3,7.2-6.2,10.5-9.6c0.3-0.4,0.7-0.7,0.9-1.1c0.2-0.3,0.1-0.6-0.2-0.9C248.6,155.2,248.3,155.1,248,155.3z"/>
	<path class="st2" d="M315.8,336.1c-1.9-6.2-3.1-12.5-4-18.9c-0.4-3.1-0.9-6.1-1.4-9.2c-0.2-1.4-0.5-2.8-1.4-3.9c-1-1.2-2-1-2.6,0.4
		c-0.4,0.9-0.5,1.9-0.5,2.9c0,2.3,0,4.6-0.1,6.9c-0.1,1.9-0.2,3.7-2.2,4.8c-1,0.5-1.4,1.8-1.8,2.9c-0.8,2.4-1.5,4.9-2.6,7.2
		c-2,4.5-3.7,9.1-5.1,13.8c-0.7,2.3-1,4.6-1.3,7c-0.3,2.6-0.1,5.2-0.5,7.8c-0.7,4.8-1.4,9.5-2.4,14.2c-1.1,4.9-1.9,10-3.8,14.7
		c-0.7,1.8-1.9,3.5-1.2,5.6c0.1,0.2-0.2,0.6-0.3,0.9c-2.3,5.4-4.5,10.7-7.7,15.6c-0.6,0.9-1.3,1.9-1.2,3.2c0,0.7-0.1,1.5,0.8,1.9
		c0.8,0.4,1.6,0.4,2.3-0.2c0.9-0.7,1.6-1.6,2.4-2.5c3.4-4.3,5.7-9.2,8.4-13.9c1.6-2.8,2.8-5.8,4.8-8.3c2.5-3.1,4.9-6.3,7.3-9.5
		c4-5.3,8.1-10.5,11-16.5c2.7-5.5,4.4-11.1,3.9-17.3C317,342.5,316.8,339.3,315.8,336.1z"/>
	<path class="st2" d="M331.3,121.2c-0.3,0.2-0.5,0.4-0.8,0.6c-5.4,4.6-10.2,9.7-15.2,14.7c-0.9,0.9-1.5,2.1-2.3,3.2
		c-0.4,0.6-0.9,1.3-1.8,0.9c-1.9-0.7-3.4,0.3-4.8,1.2c-2,1.3-3.9,2.6-5.6,4.3c-3.4,3.4-6.9,6.8-10.3,10.3c-1.9,1.9-3.5,4.2-4.8,6.5
		c-1.5,2.8-0.3,6.5,3.3,5.9c0.2,0,0.5,0,0.7,0c1.3,0.1,1.5,0.3,1,1.5c-2.3,6.3-3.6,12.8-4,19.4c-0.6,7.9-0.1,15.9,1.6,23.7
		c0.8,3.9,2.2,7.6,4.7,11.3c0.1-3.4,0.1-6.5,0.4-9.6c0.4-4,1.1-7.9,2.3-11.7c1.8-5.3,4-10.4,7.4-14.9c0.7-0.9,1.3-1.8,1.2-3.1
		c-0.2-2.5,0.5-5,0.6-7.6c0.1-1.6,0.3-3.2,0.6-4.9c0.8-5.1,2.4-10,4.1-14.9c3-8.2,7.2-15.8,12.3-22.8c2.9-4,6.2-7.6,9.4-11.3
		c0.4-0.5,1-0.9,1-1.6c0-0.3,0-0.7-0.3-0.9C331.9,121.1,331.6,121.1,331.3,121.2z"/>
	<path class="st2" d="M331.2,93c-1.8-1.3-2.7-3-3.5-4.9c-0.7-1.8-1.1-3.6-1.7-5.4c-0.8-2.7-1.9-5.2-3.3-7.7c-1-1.9-3.2-2.8-4.9-2.3
		c-2,0.6-3,2.1-3.1,4.5c0,1.2,0.2,2.3,0.5,3.4c1,2.9,1.5,6,1.9,9c-0.2,0.1-0.3,0.1-0.5,0.2c-0.1-0.2-0.3-0.4-0.4-0.6
		c-2.8-4.1-9.3-5.7-13.7-3.8c-3.3,1.4-6.3,3.2-8.8,5.7c-5.6,5.6-11.4,11.1-15.8,17.8c-3.8,5.8-8.5,11-12.6,16.6
		c-1.3,1.9-2.5,3.8-3.6,5.9c-0.4,0.9-0.2,1.6,0.5,2.2c0.9,0.7,1.4,0,1.8-0.6c1-1.1,1.9-2.3,2.9-3.3c4.1-4.4,8.5-8.4,13.4-11.9
		c3.8-2.8,7.7-5.7,12-7.6c5.2-2.3,10.4-4.4,15.9-5.9c5-1.4,10-2.9,15.2-3.7c2.1-0.3,4.2-0.5,6.3-0.3c1.9,0.2,3.9,0,6.1,0.6
		C335.3,97.3,333.6,94.8,331.2,93z"/>
</g>
<g>
	<path class="st3" d="M440.4,655.5c-2.7-5.7-4-11.6-3.9-17.9c0.1-5.3-1.5-10.2-3.5-15c-0.2-0.5-0.2-1.2-1.3-1.1
		c-0.4,2.7-2,4.6-4.4,6c-1.8,1-3.1,0.8-4.1-1c-0.6-1.1-0.9-2.3-1-3.5c-0.4-3.3-0.7-6.5-1-9.8c-0.2-2.2-0.2-4.4-1.5-6.4
		c-0.3-0.4-0.4-1.1-0.4-1.7c0.1-1.1-0.5-1.8-1.2-2.6c-1.8-1.8-3.8-3.4-5.9-4.9c-0.1,0.1-0.2,0.3-0.3,0.4c-0.7,0-1.2-0.4-1.8-0.8
		c-1.5-0.9-2.8-2-4-3.1c-1-0.4-2-0.7-3-0.8c-1.7-0.3-1.9-0.1-2,1.5c-0.1,1.9-0.1,3.8-0.1,5.7c0,1,0,2-0.2,2.9
		c-0.4,1.9-1.6,3.3-3.6,3.6s-3.5-0.5-4.6-2.2c-0.6-1-0.9-2.1-1.2-3.2c-0.7-3.6-0.7-7.2-0.7-10.8c0-1.2-0.2-2.2-0.7-3.3
		c-1.2-2.5-2.3-5.1-2.9-7.8c-0.2-0.8-0.4-1.5-0.6-2.3c-0.2,2.5-0.4,5-0.7,7.5c-0.5,4-1.2,7.9-1.7,11.9c-0.8,7-2.3,13.7-4.7,20.3
		c-1.9,5.4-6.8,8.5-12.2,8.2c-3.1-0.2-5.8-1.6-8.2-3.6c-1.1-0.9-2.3-1.6-3.6-2c-3.6-1.3-6.7-3.3-9.5-6c-3.3-3.2-5.4-7.2-7.7-11
		c-0.4-0.7-0.6-2-1.7-1.9c-1.1,0-1.3,1.3-1.8,2.1c-0.1,0.2-0.2,0.4-0.3,0.7c-1.8,5.4-3.9,10.6-5.4,16.1c-3.3,11.6-6.5,23.3-8.4,35.3
		c0.5,0.6,0.9,1.2,1.4,1.8c2.4,3,4.6,6.1,6.7,9.2c0,0.1,0.1,0.1,0.1,0.1c0.5,0.7,1.1,1.4,1.5,2.1c0.2,0.3,0.3,0.5,0.5,0.8
		c0.5,0.7,0.9,1.4,1.4,2.1c1.7,2.4,3.3,4.8,5,7.1c0.2,0.3,0.4,0.5,0.6,0.8c0,0,0,0,0.1,0.1c0.5,0.4,0.9,0.9,1.4,1.3
		c0.8,0.7,1.7,1.4,2.6,2c0.2,0.1,0.4,0.3,0.6,0.4h10.2h7.8H384h7h45c1.1-2.4,3.1-3.5,5.9-3.4c0.6,0,1.3,0.1,2,0.2
		c0.9,0.2,1.2-0.1,1.3-0.9c0.1-1.2,0.3-2.4,0.4-3.7c0.1-0.7,0.2-1.5,0.2-2.2c0.3-2.2,0-4.2-0.8-6.3
		C443.6,662.7,442.1,659,440.4,655.5z"/>
	<path class="st3" d="M695.7,593.1c-0.1-2.1-0.6-4.2-1.5-6.2c-4.2-9.3-9.2-18.1-15.9-25.9c-4.3-4.9-7.8-10.2-9.6-16.7
		c-1.4-5.2-2.8-10.3-3.1-15.6c-0.3-5.2-0.2-10.5-0.5-15.7c-0.1-1.2-0.1-2.5-0.1-3.7c-1.1-2.7-2-5.5-2.5-8.5
		c-1.4-7.1-1.5-14.2-0.6-21.3c0.5-4.1,1-8.2,1.5-12.5c-0.9,0.7-1,1.6-1.3,2.3c-3.3,7.9-5.3,16.2-7.3,24.5
		c-2.5,10.6-4.6,21.3-5.8,32.2c-0.1,0.6-0.1,1.1-0.3,1.7c-0.2,1-0.8,1.7-1.8,1.7c-0.8,0-1.2-0.4-1.5-0.9c-0.1,0.1-0.1,0.2-0.2,0.2
		c-1.3,1.1-1.7,2.7-2.1,4.3c-0.6,2.8-0.9,5.7-1.1,8.5c-0.5,6.4-0.7,12.8-1.5,19.1c-0.8,6.2-2.9,11.9-6.3,17.1
		c-0.7,1.1-1.6,1.8-2.7,2.4c-2.2,1.1-4.3,2.5-5.9,4.4c-2.8,3.3-5.5,6.7-8.3,10c-1.1,1.2-2,2.6-3.2,3.7c-5,4-9.7,8.2-14,13
		c-5.2,5.8-11.4,10.6-17,16c-3.1,3-6.3,5.7-9.7,8.3c-5.4,4.1-9.2,9.5-11.2,16.1c-0.9,2.8-1,5.6-0.3,8.5c0.3,1.1,0.7,2.1,1.8,2.5
		c1.2,0.3,1.9-0.5,2.6-1.4c0.8-1,1.7-2,2.7-2.9c4.6-4.3,9.4-8.4,15.3-11c1.5-0.7,1.5-0.8,2.4,0.6c2.5,4,6.2,6.1,10.8,7
		c2.1,0.4,4.2,0.8,6.2,1.7c6.7,2.9,13.3,6,19.4,10c4.6,3,9.4,5.3,14.8,6.3c2.8,0.5,5.7,1.1,8.5,0.5c5.1-1,8.1-4.3,9.4-9.3
		c0.7-2.7,0.9-5.5,0.9-8.3c0.1-4.3,0-8.5,0.1-12.8c0-0.8-0.2-1.6,0.3-2.3c0.7,0.1,0.9,0.6,1.2,1c3.4,5.1,7,10.1,10,15.4
		c0.1-0.2,0.3-0.3,0.4-0.5c0.9-1.2,1.8-2.3,2.8-3.4l1.4-1.7l0.7-0.8c0.2-0.3,0.5-0.5,0.7-0.8l1.5-1.6c0.5-0.5,1-1.1,1.5-1.6
		c1-1.1,2.1-2.1,3.2-3.1l0.4-0.4l0.4-0.4l0.8-0.7c0.1-0.1,0.3-0.2,0.4-0.4c-1.6-5.7-4-11-6.6-16.3c-2-3.9-3.6-7.9-4.6-12.2
		c-1.1-4.8-1.6-9.7-2.1-14.6c-0.3-2.5-0.4-5.1-0.5-7.6c-0.1-1,0.4-1.3,1.4-0.9c2.8,1,5.6,1.9,8.3,3c3,1.2,5.7,2.7,7.7,5.5
		c1.3,1.9,2.8,3.6,4.3,5.4c1.1,1.3,2.5,2.1,4.3,1.4c1.7-0.7,2.1-2.2,2.1-3.8C696.6,598.7,695.9,595.9,695.7,593.1z"/>
	<path class="st3" d="M570.5,517.6c0.2,0.3,0.4,0.4,0.5,0.7c1.9,5.1,3.4,10.2,3.5,15.7c0.1,9.8-0.7,19.5-1.2,29.2
		c-0.1,1.7-0.3,3.5-0.7,5.1c-1.7,6.7-4.2,13.1-8.1,18.9c-0.3,0.5-0.6,1-0.8,1.5c-0.1,0.2-0.1,0.4-0.1,0.6c6.1-7,11-14.6,14.2-23.4
		c1-2.7,2.1-5.3,3.3-8c5.8-13.6,11.6-27.2,16.8-41c0.6-1.7,1-3.4,0.8-5.3c-0.4-3.8-1-7.5-1.6-11.2c-1.1-6.8-3.3-13.2-5.6-19.6
		c-0.7-2.1-1.5-4.2-3.5-5.5c-0.7-0.5-0.9-1.3-1.1-2.1c-1-3-3-5.2-5.3-7.2c-0.4-0.4-0.8-0.3-1.3-0.1c-4.1,1.7-7.6,4.1-10.5,7.5
		c-2,2.3-4,4.6-6.1,6.8c-0.6,0.7-1.2,1.5-2.2,1.5c-1.2-0.1-1.6,0.7-2,1.5c-1.7,3-3.3,6-5,9c-1.4,2.5-2.9,5-5.2,6.8
		c-3.6,2.8-7.3,5.6-11.5,7.5c-2.8,1.2-5.5,2.6-8.2,4c-0.9,0.5-1.6,1.1-2.2,1.9c-1.6,2.5-3.4,4.9-5.7,6.8c-2.6,2.2-4.9,4.6-6.9,7.3
		c-1.4,1.9-3.3,3.2-5.7,3.5c-1.3,0.2-2.5,0.7-3.6,1.5c-3.3,2.3-7,3.8-11,4.1c-6.4,0.4-12.8,0.7-19.2-0.3c-7.5-1.1-14.8-3.2-21.5-6.7
		c-2.3-1.2-4.5-2.3-6.9-3.3c-7.3-2.9-12.3-8.3-16.2-14.8c-0.5-0.9-1.2-1.5-2.1-1.9c-2.6-1.2-5.2-2.4-8-3.1c-2.4-0.6-4.7-1.5-6.6-3.2
		c-2.6-2.3-5.3-4.7-7.3-7.6c-1.7-2.4-4-3.8-6.7-4.7c-0.2-0.1-0.4-0.1-0.7-0.2c-0.6,2.7,0.1,5.3,0,8c-0.1,4.4,1.2,8.6,4,12.1
		c3,3.7,5.4,7.8,7.5,12.1c2.5,5,5.6,9.7,9.7,13.5c1.2,1.2,1.8,2.4,1.7,4.1c-0.3,4.1,0.4,8,1.9,11.8c2.3,5.8,4.5,11.6,7.4,17.1
		c0.8,1.5,1.5,3.1,2.1,4.7c1.3,3.6,2.7,7.2,4.8,10.5c0.7,1.1,0.9,2.2,1.1,3.5c0.3,3,1,5.8,2.9,8.2c1,1.3,2.3,2.4,2.6,4.1
		c0.2,0.7,0.8,1,1.6,0.9c0.8-0.1,1.1-0.6,1.2-1.3c0-0.6,0.1-1.2,0-1.7c-0.4-2.8-0.7-5.7-1.2-8.5c-0.3-1.8-0.3-3.6-0.1-5.4
		c0.2-2.1,0.5-4.2,1-6.3c0.3-1.3,0.1-2.9,1-4s1-2.5,0.8-3.7c-0.6-3.4-0.3-6.9-0.3-10.3c0-2.6-0.2-5.1-0.7-7.6
		c-0.6-2.9-1.2-5.8-1.7-8.7c-0.3-2.1-0.5-4.2,0.3-6.3c0.5-1.4,0.8-1.6,1.8-0.6c3.6,3.6,7.9,5.7,12.6,7.4c5.1,1.8,10.2,3.4,15.7,4
		c2.6,0.3,5.3,0.1,7.8,0.5c3.3,0.6,6.5,0,9.8-0.4c3.9-0.5,7.4-2.2,10.9-3.8c0.7-0.3,1.3-1,2.5-0.6c-0.5,1.5-0.4,3-0.5,4.5
		c0,1.6,0.1,3.2,0.7,4.6c1.5,3.4,0.8,6.3-0.7,9.6c-2.4,5.1-3.9,10.5-4.3,16.1c-0.3,4.3-0.3,8.5-0.3,12.8c1.7-2.8,3.5-5.5,5.6-8.1
		c2.1-2.7,4.2-5.5,5.7-8.6c2.9-5.6,7-10,12.4-13.3c3-1.9,6-3.8,9.1-5.3c4.5-4.5,9-9,13.9-13.1c7.6-6.5,13.9-14.1,19.3-22.5
		C569.2,518.8,569.5,517.8,570.5,517.6z"/>
</g>
<g>
	<path class="st4" d="M665.6,528.7c0.3,5.3,1.8,10.5,3.1,15.6c1.7,6.5,5.3,11.8,9.6,16.7c6.8,7.7,11.7,16.6,15.9,25.9
		c0.9,2,1.3,4,1.5,6.2c0.2,2.9,0.9,5.7,0.9,8.5c0,1.7-0.3,3.1-2.1,3.8s-3.2-0.1-4.3-1.4c-1.5-1.7-3-3.5-4.3-5.4
		c-1.9-2.7-4.7-4.3-7.7-5.5c-2.7-1.1-5.6-2-8.3-3c-0.9-0.3-1.5-0.1-1.4,0.9c0.1,2.5,0.3,5.1,0.5,7.6c0.5,4.9,1,9.8,2.1,14.6
		c0.9,4.3,2.6,8.3,4.6,12.2c2.6,5.3,5,10.6,6.6,16.3c0.4-0.4,0.8-0.8,1.3-1.1l1.7-1.4l0.9-0.7c0.3-0.2,0.6-0.5,0.9-0.7l1.8-1.4
		l0.4-0.3l0.5-0.3l0.9-0.6l1.8-1.3l1.9-1.2c5-3.2,10.3-5.9,15.8-8.2c0.3-0.1,0.7-0.3,1-0.4l1-0.4l2.1-0.8c0.3-0.1,0.7-0.3,1-0.4
		l1.1-0.3l2.1-0.7l1.1-0.3c0.4-0.1,0.7-0.2,1.1-0.3l2.2-0.6l1.1-0.3l0.5-0.1l0.5-0.1l2.2-0.5c0.6-0.1,1.2-0.3,1.9-0.4
		c-1.7-5.5-3.6-11-5.8-16.4c-1.1-2.8-2.4-5.4-4.1-7.8c-3.7-5.5-7.7-10.9-11.1-16.6c-7.1-12-14.3-24-21.3-36c-2.1-3.6-4.4-7.1-7-10.4
		c-3.8-4.8-7.3-9.7-10.7-14.8c-1.6-2.4-2.9-4.8-3.9-7.4c0,1.2,0.1,2.5,0.1,3.7C665.4,518.2,665.3,523.5,665.6,528.7z"/>
	<path class="st4" d="M563.6,589.3c0-0.2,0-0.4,0.1-0.6c0.2-0.5,0.5-1,0.8-1.5c3.9-5.8,6.4-12.2,8.1-18.9c0.4-1.7,0.6-3.4,0.7-5.1
		c0.5-9.7,1.3-19.5,1.2-29.2c-0.1-5.5-1.6-10.6-3.5-15.7c-0.1-0.2-0.3-0.4-0.5-0.7c-1,0.2-1.3,1.2-1.7,1.9
		c-5.4,8.4-11.7,16.1-19.3,22.5c-4.9,4.1-9.4,8.6-13.9,13.1c2.2-1.1,4.4-2.1,6.8-2.7c0.7-0.2,1.3-0.7,1.9-1.1c1.3-0.8,2.6-1.7,4-2.4
		c0.7-0.4,1.4-0.3,2,0.3s0.6,1.3,0.4,2.1c-0.3,0.8-0.8,1.4-1.4,2c-6.8,7.2-11.1,16-15.6,24.7c-2.7,5.2-4.1,10.9-4.6,16.8
		c-0.1,1.8-0.4,3.6-0.7,5.4c-1.4,8.2-5.4,14.7-12.9,18.7c-1.3,0.7-2.6,1.5-3.8,2.2c-1.4,0.8-2.1,2-2.3,3.6c-0.3,2.4-0.8,4.9-0.9,7.3
		c-0.1,4.1-2.6,7.1-4.4,10.5c-1.5-5.1-1.1-10.4-1.2-15.6c0-5.2-0.4-10.5,0.1-15.9c-1,0.2-1.3,1-1.8,1.5c-2,1.7-4.5,0.9-5.1-1.6
		c-0.3-1.5-0.1-3.1,0.2-4.6c1.3-5.7,3.5-10.8,6.3-15.7c0.1-4.3,0-8.6,0.3-12.8c0.4-5.6,1.9-11,4.3-16.1c1.5-3.2,2.1-6.2,0.7-9.6
		c-0.6-1.4-0.8-3-0.7-4.6c0-1.5,0-3.1,0.5-4.5c-1.1-0.5-1.8,0.2-2.5,0.6c-3.5,1.6-7,3.3-10.9,3.8c-3.2,0.5-6.5,1-9.8,0.4
		c-2.6-0.4-5.2-0.2-7.8-0.5c-5.4-0.6-10.6-2.2-15.7-4c-4.7-1.6-9.1-3.8-12.6-7.4c-1-1-1.2-0.8-1.8,0.6c-0.8,2.1-0.7,4.2-0.3,6.3
		c0.5,2.9,1.1,5.8,1.7,8.7c0.5,2.5,0.7,5,0.7,7.6c0,3.4-0.3,6.9,0.3,10.3c0.2,1.3,0.1,2.6-0.8,3.7c-0.9,1.2-0.6,2.7-1,4
		c-0.5,2.1-0.8,4.2-1,6.3c-0.2,1.8-0.2,3.6,0.1,5.4c0.5,2.8,0.8,5.7,1.2,8.5c0.1,0.6,0,1.1,0,1.7c0,0.7-0.4,1.2-1.2,1.3
		c-0.7,0.1-1.4-0.2-1.6-0.9c-0.4-1.7-1.6-2.8-2.6-4.1c-1.9-2.4-2.6-5.3-2.9-8.2c-0.1-1.3-0.4-2.4-1.1-3.5c-2.1-3.2-3.5-6.9-4.8-10.5
		c-0.6-1.6-1.2-3.2-2.1-4.7c-3-5.5-5.1-11.4-7.4-17.1c-1.5-3.8-2.2-7.7-1.9-11.8c0.1-1.7-0.4-3-1.7-4.1c-4.2-3.8-7.2-8.4-9.7-13.5
		c-2.1-4.3-4.5-8.4-7.5-12.1c-2.9-3.5-4.2-7.8-4-12.1c0.1-2.6-0.6-5.3,0-8c-0.9-0.3-1.8-0.5-2.6-0.8c-2.6-0.8-5.2-1.6-5.7-4.9
		c-0.1-0.8-0.6-1.5-1.8-1.2c-1.1,0.3-1.8-0.6-2.5-1.3c-3.7-4.1-7.9-7.6-12.4-10.8c-1.9-1.4-3.8-2.9-5.6-4.4
		c-0.4-0.3-0.8-0.9-1.5-0.8c-0.3,0.5-0.1,1-0.1,1.4c0.4,4.4,1.3,8.8,3,12.9c1.3,3.1,1.7,6.3,1,9.6c-0.6,2.7,0.7,5.2,1.2,8.2
		c1.3-1.2,2.3-2.2,3.4-3.1c2.1-1.6,4.8-1.6,6.6-0.2c1.8,1.4,2.3,3.6,1.2,6.2c-3.1,7.6-3.4,15.4-1.6,23.2c3.2,13.8,9.6,26,18.7,36.7
		c2.9,3.4,5.7,6.8,8.2,10.4c3.7,5.4,8,10.2,13,14.4c2.6,2.2,5.2,4.3,8.2,5.9c3.5,1.8,6.6,4,9.3,6.8c0.5,0.5,0.9,1.1,1.6,1.1
		c1.6,0.1,2.5,1.2,3.3,2.3c4.5,5.6,5.4,12,4.6,18.8c-0.1,1.3-0.1,2.2,0.8,3.1c1,1,1.8,2.1,2.7,3.2c6.1,7.5,10.4,15.9,13.1,25.2
		c1.3,4.7,1.8,9.5,1.4,14.4c-0.5,5.5-1.5,10.9-3.1,16.2c0,0.1,0,0.1-0.1,0.2h53.4c-1.5-8.5-0.8-17,1.1-25.5
		c2.2-9.7,6.2-18.7,11.6-27c1.4-2.2,2.7-4.5,3.5-7c0.5-1.8,1.4-3.5,2.4-5.1c0.9-1.4,2.1-2.6,3.8-2.9c0.8-0.1,1.3-0.6,1.8-1.2
		c6.8-8,14.3-15.4,21.3-23.2C562.8,590.2,563.2,589.8,563.6,589.3z"/>
	<path class="st4" d="M528.6,670.1c-0.1-0.5-0.1-1-0.2-1.5c-1.7,4.6-2.9,9.3-4.2,14h9.8c-0.9-1.4-1.8-2.7-2.5-4.2
		C530.1,675.8,528.9,673.1,528.6,670.1z"/>
	<path class="st4" d="M425.4,480c-2.1-0.8-4.2-1.5-6.2-2.4c-9.5-4.1-15.7-11-18.3-21.1c-0.5-2.1-1.1-4.3-1.6-6.5
		c-0.4-1.8-1.3-3.1-3.2-3.7c-1.6-0.5-2.9-1.5-3.9-2.9c-0.9-1.1-1.6-2.3-2.2-3.5c-1.9,0.1-3.8,0.1-5.7,0.1c-2.7-0.1-5.4-0.4-7.4-0.8
		c-0.3-0.1-0.5-0.1-0.7-0.2c0.4,1.9,1,3.5,2,4.8c2,2.8,4,5.6,6.6,8c0.1,0.1,0.2,0.2,0.3,0.3c1.4-0.7,3-0.3,4.4,1.1
		c0.7,0.8,1.5,1.6,2,2.5c1.9,4,4.6,7.6,6.6,11.5c1.7,3.4,3.7,6.6,6.1,9.5c3.2,3.9,6.9,7.3,10.3,10.9c3.2,3.5,7.2,5.9,11.2,8.4
		c0.3,0.2,0.6,0.2,1-0.2c-0.3-4.7-0.9-9.5-0.2-14.3C426.7,480.7,426.2,480.3,425.4,480z"/>
	<path class="st4" d="M576.9,428.5c-3.1,1.3-6.2,2.5-9.4,3.7c-0.1,0.2-0.3,0.3-0.4,0.5c-0.9,1-1.4,2.1-1.5,3.5
		c-0.3,4-1.5,7.7-3.3,11.3c-0.4,0.7-0.7,1.5-0.8,2.3c-0.5,3.5-2.4,6.1-5.2,8c-0.7,0.5-1.4,1.1-2.1,1.7c-3.4,2.6-5.7,6.1-7,10.2
		c-0.3,0.9-0.6,1.9-0.9,2.8c-0.9,2.9-2.5,5.3-5,7.1c-0.7,0.5-1.4,0.9-1.7,1.7c-1.9,3.8-4.7,6.7-8.6,8.5c-0.6,0.3-0.9,0.7-0.9,1.3
		c0.2,2.9,0,5.9-0.8,9.1c2-1.2,3.7-2,5.2-3.1c4.3-2.9,8.5-5.9,11.5-10.3c2-2.9,4.3-5.6,6.8-8.1c5.5-5.5,10-11.7,13.1-18.9
		c1.1-2.5,2.6-4.8,4.2-6.9c2.1-2.6,4.1-5.3,6.2-7.9c2.8-3.5,5.7-6.7,9.2-9.5c5.5-4.3,11.6-2.6,13.5,3.8c0.1,0.3,0.2,0.5,0.2,0.8
		c0.1,0.4,0.1,0.8,0.2,1.2c0.1,0.5-0.1,1.2,0.5,1.5c0.2,0,0.4,0,0.5-0.1c1.9-1.3,3.8-2.4,5.8-3.3c3.6-1.6,7.5-2.5,11.6-3.1
		c4.2-0.6,8-2.3,11.4-4.9c1.9-1.4,3.7-2.9,5.5-4.4c2-2.6,3.5-5.4,4.3-8.7c0.5-2.3,1.8-4.3,3-6.6c-1.4-0.3-2.6-0.5-3.7-0.8
		c-3.2-0.8-6.2-2.2-8.6-4.6c-0.5-0.5-0.9-1-1.3-1.5c-5.9,4.2-11.5,8.9-15.6,15c-1.4,2.1-3,4.1-4.6,6c-0.8,0.9-1.5,2.3-3,1.7
		c-1.5-0.7-0.8-2.2-0.6-3.3c1.2-7.5,4.5-14.2,8.6-20.5c1.9-2.9,4.1-5.5,6.2-8.2c0,0,0-0.1,0.1-0.1c-0.4,0.2-0.8,0.4-1.1,0.6
		c-4.1,2.2-7.8,4.8-11.4,7.7c-2.8,2.4-5.7,4.7-8.6,7c-1.2,0.9-2.1,2.1-3,3.3C590.7,421.1,584.2,425.4,576.9,428.5z"/>
	<path class="st4" d="M658,641.8c-0.3-0.4-0.4-0.9-1.2-1c-0.5,0.7-0.3,1.6-0.3,2.3c0,4.3,0.1,8.5-0.1,12.8c-0.1,2.8-0.3,5.6-0.9,8.3
		c-1.3,5-4.3,8.3-9.4,9.3c-2.8,0.6-5.7,0-8.5-0.5c-5.4-1-10.3-3.3-14.8-6.3c-6.1-4-12.7-7.1-19.4-10c-2-0.8-4.1-1.2-6.2-1.7
		c-4.6-0.9-8.3-3-10.8-7c-0.9-1.5-0.9-1.3-2.4-0.6c-5.9,2.6-10.7,6.7-15.3,11c-1,0.9-1.8,1.9-2.7,2.9c-0.7,0.9-1.4,1.7-2.6,1.4
		c-1.1-0.3-1.5-1.4-1.8-2.5c-0.8-2.9-0.6-5.7,0.3-8.5c2.1-6.5,5.8-11.9,11.2-16.1c3.4-2.6,6.7-5.3,9.7-8.3c5.6-5.4,11.8-10.2,17-16
		c4.3-4.8,9.1-9,14-13c1.3-1,2.2-2.4,3.2-3.7c2.8-3.3,5.5-6.8,8.3-10c1.6-1.9,3.7-3.3,5.9-4.4c1.2-0.6,2-1.3,2.7-2.4
		c3.4-5.2,5.5-11,6.3-17.1c0.9-6.3,1-12.7,1.5-19.1c0.2-2.9,0.5-5.7,1.1-8.5c0.3-1.6,0.8-3.2,2.1-4.3c0.1-0.1,0.2-0.2,0.2-0.2
		c-0.1-0.2-0.2-0.5-0.3-0.8c-0.1-0.6-0.1-1.1-0.1-1.7c-0.2-6.5,0.3-13,1.1-19.4c1.3-10.8,3.3-21.4,5.3-32.1
		c1.3-7.2,2.9-14.2,5.1-21.1c0,0,0,0-0.1-0.1c-1.1-1.2-1.8-2.7-2.5-4.1c-0.4-0.1-0.6,0-0.7,0.2c-2.5,3.3-5.8,5.2-9.6,6.5
		c-3.5,1.2-7,2.3-10.5,3.5c-1.8,0.6-3.6,1.2-5.2,2.2c-3.2,2-4.4,5-4,8.7c0.2,1.9,0.7,3.7,1.2,5.5c0.2,0.6,0.3,1.3,0.5,1.9
		c0.6,0.2,1,0.9,1.3,2c0.4,1.9,0.4,3.8,0.4,5.6c0,7.4-0.5,14.8-1,22.1c-0.3,4.9-1.3,9.6-2.9,14.2c-1.7,4.9-3.5,9.7-4.8,14.7
		c-1.6,5.9-2.1,11.7-1.2,17.8c0.4,2.7,0.7,5.3,1.2,8c0.2,1.3,0.3,2.6-0.1,3.9c-0.5,1.6-1.1,2-2.7,1.7c-1.9-0.3-3.6-0.9-5.3-1.9
		c-2.7-1.6-5.2-3.4-7.7-5.2c-1.3-1-2.6-2-4-2.9c-2-1.3-4.1-0.8-5.5,1.1c-1.8,2.5-3.7,4.8-6.3,6.5c-1.2,0.8-1.9,1.7-2.4,2.9
		c-5.1,11.6-10.8,23.1-16.7,34.3c-4.2,8-10.1,14.8-18.5,18.8c-1,0.5-1.8,1.1-2.8,1.6c-1.1,0.5-1.5,1.3-1.5,2.6
		c0.1,5.9,0,11.8,0.5,17.7c0.7,9,3,17.5,7.9,25.1c0.6,1,1.1,2,1.7,3c2,3.6,3.3,7.3,3.9,11.2h89.1c0.2-0.1,0.4-0.2,0.6-0.4
		c0.9-0.6,1.7-1.3,2.6-2c0.5-0.4,0.9-0.9,1.4-1.3c0,0,0,0,0.1-0.1c0.2-0.3,0.4-0.5,0.6-0.8c1.8-2.3,3.4-4.7,5-7.1
		c0.5-0.7,0.9-1.4,1.4-2.1c0.2-0.3,0.3-0.5,0.5-0.8c0.5-0.7,1-1.4,1.5-2.1c0-0.1,0.1-0.1,0.1-0.1c2-2.9,4.1-5.8,6.4-8.7
		C665,651.8,661.4,646.8,658,641.8z"/>
	<path class="st4" d="M391.9,410.6c4.5,6.8,10.7,11.7,17.4,16.1c1,0.7,2.2,1.1,3.4,1.5c3.3,1,6.6,2,10,2.8c1.2,0.3,2.4,0.6,3.6,0.7
		c0-0.1,0-0.1,0-0.1c0.1-0.2,0.2-0.2,0.5-0.1c2.2-1.9,4.4-3.8,6.6-5.7c0.9-0.8,1.8-1.5,3-2c1.4-0.5,2.6-1.4,3.8-2.3
		c1.4-1.2,3.1-1.6,4.8-2c0.7-0.2,1.4-0.3,2.1-0.6c1.4-0.6,2.1-1.3,1.9-3s-0.1-3.4-0.1-5.2c-0.7,0.4-1.4,0.8-2.1,1.1
		c-3,1.2-5.8,1-8.4-0.9c-2.4-1.9-3.2-4.4-2.9-7.4c0.3-2.6,0.9-5,3-6.8c1.4-1.2,2.9-2.1,4.7-2.3c1.4-0.2,2.3-1.9,1.4-3s-1.3-2.5-3-3
		c-1.3-0.3-2.3-1.8-3.4-2.7c-1.4-1.2-1.4-4.9-0.4-6.4c-1.4-1.2-2.9-2.4-4.4-3.3c-4.2-2.5-7.5-5.7-9.9-9.6c-0.4,0.3-0.9,0.7-1.3,1.1
		c-1.4,1-3.2,1.1-4.4,2c-1.2,0.9-1,3-2.1,4.3c-1.4,1.6-3,3.1-5.2,3.4c-1.2,0.2-2.3,0.8-3.3,1.5c-3.2,2.1-7.9,1.5-9.5-2.9
		c-1.4-4-1.5-8,0.6-11.8c1.1-2.1,2.7-3.3,5.2-3.4c2.7-0.2,5.3-0.4,7.5,1.4c0.7,0.5,1.2,0.2,1.7-0.4c0.6-0.7,0.8-1.5,0.2-2.2
		c-0.6-0.8-1.3-1.4-1.8-2.3c-1.7-3.5-2.9-7.1-2.7-11c0.1-1-0.1-1.8-0.7-2.7c-3-4.8-3.7-9.9-2.8-15.5c0.4-2.3,0.8-4.4,2.4-6.2
		c0.8-0.9,0.4-2.4,0.1-3.6c-0.8-2.6,0.1-4.6,1.8-6.5c1.3-1.5,3-1.9,4.8-1.9c0.9,0,1.6-0.1,1.5-1.1c0-2.1,1.2-3.7,2.1-5.3
		c0.4-0.7,0.7-1.4,0.8-2.2c0.3-3.2,1.7-5.8,3.6-8.3c2-2.7,4-5.3,6.8-7.4c1.5-1.1,3.1-1.7,4.6-2.5c1.1-0.5,2-1.3,3.1-1.9
		c0.9-0.4,1.5-0.9,1.6-1.9c0.1-0.5,0.4-0.9,0.6-1.3c0.9-1.5,0.9-1.8-0.2-3.2c-2-2.4-2.2-6.8,0-9c2-2,3.8-4.4,6.6-5.6
		c1.4-0.7,2.4-2.1,3.8-3.1c2.1-1.5,4.5-2.3,7-2.6c2-0.2,4.1-0.5,6.1-0.9s3.9-0.2,5.8,0.6c3.2,1.3,3.9,3.9,1.8,6.7
		c-0.9,1.2-2,2.1-3.2,3.1c-0.5,0.4-1.2,0.6-1.3,1.5c5.7,0.1,10.2,2.9,14.2,7.1c0.4-2.3,1.3-4.4,2.8-6.1c0.4-0.4,0.7-0.9,1.2-1.3
		c5.1-4.6,14.8-5.3,20.4-1.4c2,1.4,3.3,3.2,3.8,5.5c0.2,0.8,0.4,1.5,1,2.2c3.3,3.7,3.5,4.1,3.5,8.9c1-0.7,1.4-1.7,2-2.5
		c2.6-3.8,4.7-4.7,9.2-3.6c1.3,0.3,1.8,0.1,2.5-1c2.1-3.6,6.6-4.3,9.7-1.4c2.6,2.5,4.1,5.6,3.8,9.3c-0.2,3.1-1.8,5.5-4.8,6.2
		c-2.5,0.6-4.1,2-5.8,3.6c0,0.5,0.3,0.8,0.6,1.1c5.2,5.4,9,11.7,11.2,18.9c0.3,0.8,0.6,1.4,1.4,1.8c5.3,2.5,7.6,8.2,5.6,13.8
		c-0.6,1.6-1.1,3.2-1.1,5c-0.1,1.8-0.8,3.5-2.3,4.8c-1.3,1.2-1.2,2.5,0.3,3.5c0.2,0.1,0.4,0.2,0.7,0.3c2.2,1.2,3.9,2.8,4.5,5.3
		c0.2,0.9,0.6,1.3,1.7,1.4c5.3,0.3,7,5,4.3,10.1c-0.5,1-1.5,1.4-2.5,1c-1.4-0.6-2.7-0.4-4.1-0.1c-1.4,0.3-2.8-0.1-4-0.9
		c-0.9-0.6-1.5-0.7-2.4-0.1c-1.9,1.4-3.9,1.3-5.7,0c-0.2-0.1-0.3-0.3-0.5-0.4c-1.7,5.8-4.9,11-9.6,15.4c-4.5,4.2-9.1,8.3-13.7,12.4
		c-1,0.9-2.1,1.8-3.2,2.6c0,0.1-0.1,0.3-0.1,0.4c-0.1,2.1,1.3,3.8,1.7,5.8c0.1,0.1,0,0.3-0.1,0.5c-0.2,1-0.2,1.9,0.2,2.9
		c0,0.2,0,0.3-0.1,0.5c-1.2,2.2-1.3,4,1.4,5.2c0.6,0.3,1.1,1.1,1.3,1.7c0.8,2.6,2.9,2.6,4.9,2.6c0.6,0,1.1-0.3,1.7-0.3
		c1.6-0.1,2.4,1.1,1.6,2.6c-0.6,1.1-1.6,1.9-2.7,2.4c-1.3,0.6-2.7,1.1-4,0.9c-1.9-0.3-3.7,0.2-5.5,0.8c-2.5,0.8-5,0.9-7-1.3
		c-0.4-0.4-1-0.8-1.5-0.5s-0.3,0.9-0.3,1.3c0.2,3,0.7,6,1.8,8.9c0.3,0.9,0.9,1.6,1.7,2c1.3,0.7,2.5,1.6,3.9,2.1
		c4.4,1.7,8.6,4,12.8,6.2c3,0.7,6.1,1.3,9,2.3c4.6,1.6,9.4,2.2,14.2,2.8c1.1,0.1,2.1,0,3.2-0.2c3.1-0.6,5.6-2.1,7.9-4.2
		c6.5-5.7,11.5-12.6,16.7-19.4c1-1.4,1.9-2.9,2.7-4.4c1.6-3,3.2-6.1,4.8-9.2c1.8-3.5,2.9-7.1,3.4-11c0.3-2.7,0.5-5.4,0.8-8.1
		c0.7-5.9-1.3-11-4.8-15.6c-5.5-7.2-8.7-15.4-10.9-24c-1-3.9-1.5-7.9-2.3-11.8c-0.6-3.2-1-6.5-1.2-9.8c-0.1-1.7-0.1-3.4,0-5.2
		c0-0.9,0.2-1.9,1.4-2.1c1.1-0.2,1.6,0.7,1.9,1.6c0.3,0.8,0.7,1.7,0.9,2.5c1.5,5,3.9,9.4,7.9,12.8c1-4.1,2.1-8.3,3.5-12.3
		c1.6-4.9,2.4-9.9,2-15c-0.1-1.8-0.5-3.6-1.3-5.2c-1.1-2.1-2.7-3.7-5.1-4.4c-4.8-1.4-8.8-4.4-12.7-7.4c-2.3-1.8-3.9-4.2-5.3-6.7
		c-1.6-3-2.9-6.1-4-9.3c-0.5-1.4-1-2.8-1.6-4.1c-0.6-1.4-1.6-2.5-2.9-3.3c-8.6-5.1-16.4-11.2-24.1-17.5c-2.6-2.1-4.7-4.8-6.6-7.6
		c-2.9-4.2-5.8-8.5-8.1-13c-1.5-3-3.1-6.1-3.7-9.6c-0.8-4.3-2.2-8.4-3.1-12.7c-1.3-6-1.2-11.9,0.4-17.8c1.2-4.6,2.1-9.3,3.6-13.8
		c1-3,2.1-5.9,3.9-8.6c2.4-3.5,4.4-7.4,6.4-11.1c1.7-3,2.8-6.3,3.5-9.7c0.6-2.9,1.2-5.8,1.9-8.6c0.3-1.1,0.7-2.3,1.2-3.4
		s1-2.3,1.5-3.4c0-0.1,0-0.2,0-0.2c0-0.1,0-0.1,0.1-0.2s0.2-0.1,0.4-0.1c0.7-0.8,1.1-1.8,1.5-2.8c1.7-4.4,5.2-6.7,9.6-7.8
		c1.9-0.5,2.8-1.5,3.4-3c1-2.6,2.5-5,3.4-7.7c0.7-2.3,2-4.3,4.1-5.7c0.7-0.5,0.4-1.2,0.4-1.8c-0.2-5.5-0.3-11-0.5-16.5
		c-0.2-4.7,0.7-9.4,2.2-13.8c1.9-5.5,4.5-10.7,7.9-15.4c-2.3-0.6-4.5-1.2-6.8-1.6c-3.1-0.6-6.3-1.3-9.4-2
		c-5.8-1.3-11.6-2.3-17.4-3.1c1.4,1.1,2.1,2.5,1.9,4.1c-0.3,2-1.5,3.4-3.5,4c-0.3,0.1-0.6,0.2-1,0.2c-1.2,0-1.5,0.6-1.5,1.7
		c-0.1,9.9-9.8,19.1-18.5,20.7c-5.2,1-9.6-0.6-12.8-4.9c-1.3-1.8-2.5-3.5-4.9-4.5c-1.8-0.7-3.2-2.8-3.9-4.9
		c-1.1-3.3-0.8-6.6,0.4-9.8c0.3-0.9,0.3-1.4-0.5-1.8c-1.9-0.8-3.4-2.1-5.3-3c-1.3-0.6-2.4-1.3-3.4-2.3c-6.4,0.8-12.7,1.9-19,3.2
		c-8.4,1.8-16.7,3.9-24.9,6.4c0.6,1.1,0.9,2.5,0.8,4.1c-0.1,1.5-0.4,2.9-0.6,4.4c-0.9,7.8,0.7,15.2,3.1,22.5
		c1.2,3.5,2.7,6.9,4.2,10.2c0.4,0.9,0.8,1.8,1.8,2.2c4.3,1.8,6.3,5.5,7.9,9.5c1.3,3.3,2.4,6.7,3.7,10.1c1.3,3.2,3,6.2,5.6,8.5
		c1.5,1.4,2.6,3,3.4,4.9c0.4,1.1,0.8,2.2,1,3.4c0.1,0.1,0.2,0.1,0.3,0.2c0.2,0.2,0.1,0.5-0.1,0.8c0.1,1.8,0.3,3.6,0.4,5.4
		c0.1,0.2,0.2,0.3,0.3,0.5c0.2,0.5,0.1,1-0.2,1.5c0.1,3.5,0.6,7.1,0.3,10.6c-0.2,2.6-0.3,5.2-0.7,7.8c-0.2,1.7,0.1,3.1,1,4.6
		c2.6,4.3,3.6,9.1,3.8,14.1c0.3,8.9-1.2,17.6-3.7,26.2c-2.3,7.8-5.8,15.1-9.8,22.1c-2.4,4.2-5.7,7.6-9.4,10.7
		c-1.2,1-2.6,1.8-4.1,2.2c-1.6,0.4-2.8,1.3-3.8,2.5c-2.5,2.8-4.5,5.8-5.9,9.3c-2.6,6.8-6.2,13-11,18.5c-4.6,5.2-7.3,11.4-10.2,17.6
		c-1.1,2.4-2.1,5-3.2,7.5c-1.9,4.6-4.9,8.3-8.5,11.7c-0.2,0.2-0.4,0.4-0.6,0.5c-0.6,4-0.3,8,1.3,11.8c1,2.3,1.3,4.5,0.8,6.9
		c-1.2,5.8-3.2,11.3-6.1,16.5c-0.7,1.3-1.3,2.6-1.6,4.1c-0.4,2.2-1.2,4.3-2.8,5.9c-1,1-1.5,2.1-1.9,3.4c-2.2,7.2-3.3,14.6-3.5,22.1
		c-0.1,3.7-0.2,7.4,0.8,11C383.4,395.3,387,403.2,391.9,410.6z M563.6,368.1c1.2,1.2,1.7,2.6,1.2,4.3c-0.6,1.9-2,3.1-4,3.7
		c-0.4,0.1-0.8,0.1-0.7,0.1c-1.6,0.1-2.6-0.3-3.5-0.9c-0.7-0.4-1-0.2-1.3,0.4c-0.3,0.7-0.7,1.5-1.1,2.2c-1.6,2.4-3.9,3.5-6.8,3
		c-1.2-0.2-2.4-0.3-3.6,0c-2.3,0.5-4.3-0.7-5.2-2.7c-1.3-2.9,0.2-7,3.1-8.3c0.4-0.2,0.7-0.4,1-0.6c2.7-2.2,5.4-1.9,8.2-0.2
		c0.4,0.2,0.7,0.5,1,0.7c2.1,1.4,2.1,1.4,3.4-0.7C557.1,366.2,561.2,365.7,563.6,368.1z M516.6,120c-0.7,1.2-1.1,2.6-1.2,4
		c-0.4,2.9-1.7,5.3-4.5,6.6c-0.7,0.3-1.1,0.6-0.8,1.5c1.3,4.9,0,9.4-1.8,13.8c-1.5,3.5-3.3,6.7-5.8,9.6c-2.4,2.9-3.6,6.6-5,10.1
		c-1.2,3-2.1,6.2-3.7,9.1c-0.9,1.7-2,3.3-3.8,4c-1.7,0.7-3.4,0.9-5-0.5c-0.7-0.7-1.6-0.8-2.5-0.7c-3.6,0.3-5.9-1.3-7.6-4.4
		c-0.5-0.9-0.9-1.7-0.9-2.7c0-1.1-0.2-2.1-0.4-3.2c-0.4-2.6-0.3-5.1,0.5-7.5c0.8-2.6,2.5-4.5,5.2-5.1c2.6-0.6,4.8,0.4,6.6,2.4
		c0.3,0.3,0.4,0.7,1.2,0.8c0.9-3.9,1.8-7.7,2-11.6c0.1-2.3-0.9-4.3-2.2-6.1c-2.8-4-3-8.4-2.4-12.9c0.3-2,1.5-4.1,3.2-5.6
		c2.7-2.4,7.1-1,8.7,2.7c0.4,1,0.7,2,1.1,3.1c0.9-0.3,1-1.1,1.4-1.7c1.7-2.7,3.9-5,5.3-7.9c0.7-1.4,1.8-2.5,2.9-3.6
		c1.4-1.3,3.1-1.8,4.9-1.7C516.1,112.6,518.4,116.9,516.6,120z M457.9,72.4c-0.8,0.3-1.6,0.4-2.6,0.4s-2-0.2-2.8-1.3
		c-0.8-1.1-1.8-1.9-1.6-3.5c0.2-1.7,0.2-3.4,0.4-5.1c0.3-2.3,1.8-3.2,4-2.4c0.6,0.2,1.3,0.3,1.9,0.5c2.5,0.7,4.2,3.1,4.3,5.9
		C461.6,69.2,460.1,71.5,457.9,72.4z M463.1,101.3c-0.4-1.5-0.9-2.9-1.5-4.3c-1.2-2.9-1.7-6-1.4-9.1c0.2-2.5,1.6-4.5,4.1-5.4
		c2.9-1.1,5.3-0.1,7.5,1.7c1.6,1.3,2.6,3.2,3.3,5.1c0.6,1.6,1.4,3,3,4.1c1.3-2.2,3.8-2.4,5.9-3.1c1.4-0.5,2.7,0.3,3.9,1.1
		c0.5,0.4,1,0.9,1.5,1.3c1.2,1.1,1.8,1.2,2.9,0.2c1-1,2.2-1.7,3.2-2.6c2.7-2.3,6.9-2.3,9.5,0.2c3.2,3.2,3.9,9.2,1.9,12.5
		c-1.1,1.9-1.8,4-3.1,5.8c-1.2,1.6-2.5,3.2-4.5,4c-4.9,2-8.6-0.3-10.7-4.6c-0.6-1.3-0.9-2.6-1.2-4c-0.2-0.8-0.3-1.5-1.2-2
		c-0.8-0.5-1.4-0.3-2.2-0.1c-1.6,0.3-3.3,0.4-4.9,0.3c-1.4-0.1-1.7,0.5-1.6,1.7c0,0.2,0,0.5,0,0.7c-0.2,2.4-1.2,4.3-3.5,5.2
		c-2.4,1-4.5,0.4-6.4-1.3C465.5,106.7,463.9,104.2,463.1,101.3z M458.9,215.5c1.2-2.2,3.7-3.4,6.2-2.7c1,0.3,2.1,0.6,2.9,1.2
		c2.4,1.6,5.2,2.2,7.7,3.6c0.5,0.3,1.2,0.7,2,0.3c0.1-1,0.2-2,0.2-3.1c0-1.2,0.3-2.3,0.9-3.2c0.7-1.1,0.9-2.2,0.6-3.5
		c-0.3-1.7-0.5-3.4-0.9-5.1c-0.3-1.6-0.2-3,1.3-3.9s2.9-0.3,4.1,0.5c1.7,1.2,2.9,2.9,3.7,4.8c0.8,2,1.3,4,1.2,6.2
		c0,0.7-0.1,1.5,0.5,2.1c0.5,0.5,1,1.1,1.9,0.7c0.5-0.2,0.9-0.3,1.4-0.4c1.8-0.6,3.5-0.4,4.8,1s1.9,3.2,1.3,5.2
		c-1.3,4.2-5,6.1-9,4.4c-0.4-0.2-0.7-0.3-1.3-0.5c0,2.5-1.3,4.6-1.3,7c0,1,0.1,1.7,0.8,2.3c0.3,0.3,0.6,0.6,0.9,0.9
		c2.3,2.4,2.6,5,0.9,7.8c-1.5,2.5-4.6,3.9-7.4,2.9c-2-0.7-3.5-2.2-4.3-4.1c-0.5-1.2-1-1.7-2.3-1.3c-1.9,0.6-3.8,0.2-5.5-0.6
		c-1-0.5-2-0.6-3.1-0.5c-3.6,0.2-5.9-1.7-6.6-5.3c-0.1-0.6-0.3-1.2-0.2-1.7c0.2-1.3-0.4-2.2-1.3-3s-1.3-1.8-1.4-3
		C457.2,221.3,457.3,218.3,458.9,215.5z"/>
	<path class="st4" d="M380.9,554.2c-0.2-0.4-0.2-1.2-1.1-1.1c-0.1,0.3-0.2,0.5-0.2,0.7c0,2.3,0.1,4.6,0.1,6.9c0,0.9,0.1,1.8,0,2.7
		c-0.2,1.3-0.9,2.3-2.2,2.7c-1.3,0.4-2.6-0.1-3.4-1.4c-0.7-1.1-1.3-2.3-1.6-3.6c-1.3-5-3.5-9.7-5.2-14.6c-1.4-4.1-2.9-8.2-4.7-12.2
		c-1.7-3.8-2.7-7.9-3.2-12.1c-0.7-5.8-0.1-11.6,0.4-17.4c0.1-1.6-0.1-2.8-1.1-4.1c-2.4-2.9-3.7-6.4-3-10.1c0.6-3.1,0-5.7-1.6-8.3
		c-1.8-3-2.5-6.4-3.3-9.7c-1.7-6.9-3.6-13.6-5.9-20.3c-2.1-6.2-3.8-12.4-3.1-19c0.1-0.9-0.2-1.6-0.8-2.2
		c-4.6-5.1-9.2-10.3-14.7-14.5c-0.6-0.5-1.1-1.2-2-1.2c0,0.2-0.1,0.4-0.1,0.5c0.1,0.6,0.3,1.1,0.5,1.6c2.9,7.9,6.1,15.8,10.2,23.2
		c4.2,7.8,6.9,16.1,8.1,24.9c0.9,7.1,1.6,14.2,2.6,21.3c1.1,8.3,3,16.5,4.5,24.7c1.1,6.1,1.9,12.3,3.6,18.3
		c2.5,8.4,3.9,17.1,4.5,25.9c0.4,4.7,0.8,9.5,1.7,14.2c0.5,2.2,0.7,4.5,0.5,6.9c-0.3,4.1-0.5,8.2-0.9,12.3c-0.2,2.7-0.6,5.4-1.1,8
		c-0.2,1.3-0.9,2.5-2.5,2.8c-1,0.1-1.6-1.1-1.8-3c-0.6-5.1-1.2-10.2-3.3-14.8c-2.5-5.6-4.7-11.4-7.2-17c-1.9-4.3-3.6-8.6-4.6-13.2
		c-0.1-0.4,0-1-0.5-1.3c-0.1,0.1-0.3,0.2-0.3,0.4c-0.2,0.6-0.3,1.3-0.4,1.9c-1.2,7.5-3.9,14.4-8,20.7c-3.8,5.9-8,11.4-12.4,16.9
		c-7,8.7-12.1,18.5-15.6,29.2c-1.5,4.6-2.8,9.2-4.1,13.8l0.4,0.2l1.8,1.3l0.9,0.6l0.5,0.3l0.4,0.3l1.8,1.4c0.3,0.2,0.6,0.5,0.9,0.7
		l0.9,0.7l1.7,1.4c0.6,0.5,1.1,1,1.7,1.5l0.8,0.7l0.4,0.4l0.4,0.4c1.1,1,2.1,2,3.2,3.1c0.5,0.5,1,1.1,1.5,1.6l1.5,1.6
		c0.2,0.3,0.5,0.5,0.7,0.8l0.7,0.8l1.4,1.7c0.5,0.6,0.9,1.1,1.4,1.7c1.9-12,5.1-23.7,8.4-35.3c1.6-5.4,3.6-10.7,5.4-16.1
		c0.1-0.2,0.2-0.5,0.3-0.7c0.5-0.8,0.8-2.1,1.8-2.1s1.2,1.2,1.7,1.9c2.3,3.9,4.4,7.9,7.7,11c2.8,2.7,5.9,4.7,9.5,6
		c1.3,0.5,2.5,1.1,3.6,2c2.4,2,5.1,3.4,8.2,3.6c5.3,0.4,10.3-2.8,12.2-8.2c2.3-6.6,3.9-13.3,4.7-20.3c0.4-4,1.2-7.9,1.7-11.9
		c0.3-2.5,0.5-5,0.7-7.5c-1.4-5.6-2.9-11.2-4-16.9C382.3,558.4,382,556.2,380.9,554.2z"/>
	<path class="st4" d="M599.6,226.6c4-3.8,4.9-8.4,3.9-13.5c-0.1-0.6-0.5-1-1-1.3c-1.7-1.1-3.3-2.4-5-3.7
		C600,214,602.3,220,599.6,226.6z"/>
	<path class="st4" d="M581.2,216.8c1.5,1.3,3.2,2.3,4.9,3.2c1.5,0.8,3.1,1.1,4.7,0.4c0.8-0.3,1.6-0.4,2.2-0.4c1.1,0,2.4,0.7,2.2-1.1
		c-0.5-4.3-2.7-11.3-9.1-12.8c-2-0.5-2-0.6-3.4,1.1c-0.6,0.7-1.2,1.3-1.9,1.9C578.4,211.8,578.5,214.4,581.2,216.8z"/>
	<path class="st4" d="M555.8,224.2c-0.2,0.6,0,1.1,0.4,1.5c2.8,3.3,5.9,6.4,9.9,8.3c1.5,0.8,3.1,1.4,4.9,1.6
		c-7.2-5.2-10.4-12.2-9.6-21.2C558.8,217.4,557.1,220.7,555.8,224.2z"/>
	<path class="st4" d="M371.5,221.4c1,1.7,2.1,3.3,3.3,4.8c0.4,0.5,0.8,1,1.2,1.4c0.7,0.7,1.3,1.6,2.6,2.2c-4.8-6.9-5.1-14-2.6-21.5
		c-0.8-0.1-1.1,0.3-1.3,0.5c-2.1,2-3.4,4.6-5.3,6.8c-0.5,0.6-0.2,1,0.1,1.6C370.1,218.7,370.8,220.1,371.5,221.4z"/>
	<path class="st4" d="M405.3,232.5c4.5-2,8.4-4.8,11.4-8.7c3.5-4.7,3.4-3,0.3-8.4c-0.6-1.1-1.1-2.2-2.3-3.2
		c-0.5,8.7-4.8,15-10.8,20.4C404.5,232.8,404.9,232.6,405.3,232.5z"/>
	<path class="st4" d="M397.7,213.5c1.2,0.9,2.5,1.2,3.9,0.4s2.2-1.9,2-3.3c-0.2-2.5-0.4-4.7-1.7-6.6c-0.3-0.4-0.5-0.9-1-1
		c-1.3-0.3-2.6-0.8-4.1-0.7c-2,0.1-3.3,1.3-4.2,3c-0.9,1.6-0.2,3,0.8,4.3C394.6,211.1,396.1,212.3,397.7,213.5z"/>
	<path class="st4" d="M829.4,663.9c-1.7-3.4-3.8-6.6-6.1-9.5c-2.4-2.9-5.1-5.6-8-7.9c-2.9-2.3-6.1-4.4-9.5-6l0,0l-5-2.2
		c-0.5-0.5-1.1-1-1.6-1.4c-1.3-1.1-2.6-2.1-4-2.9c-5.9-3.3-12.5-5.2-19.2-6.3c-3.3-0.6-6.7-0.9-10.1-1.1c-2.2-0.1-4.4,0-6.6-0.4
		c-2.4-0.4-4.7-1.5-7.1-1.6c-0.9-0.1-1.9,0-2.8,0.1c-7.7,0.8-15.4,1.9-22.8,4.2c-3.7,1.1-7.4,2.5-10.9,4.3c-3.4,1.7-6.3,4.1-9.8,5.5
		c-0.8,0.3-1.7,0.7-2.5,1c-17.8,7.6-33.7,22.6-39.9,41.3l0,0c1.6-0.4,3.5,0.3,4.8-0.8c0.5-0.4,0.8-1,1.1-1.6
		c2.9-6.2,5.7-12.6,10.5-17.4c5.9-5.9,15.3-8.2,22.3-2.8c0,0,0,0,0-0.1l0.1,0.1c0.4,0.3,0.8,0.7,1.2,1l0,0c0.1,0.1,0.3,0.2,0.4,0.3
		c0.5,0.4,0.9,0.9,1.3,1.4c0.1,0.1,0.1,0.2,0.2,0.3c-0.6,0-1.2,0-1.8,0.1c-1.3,0.1-2.5,0.5-3.7,0.9c-2.4,0.9-4.6,2.2-6.7,3.7
		c-0.5,0.4-1,0.7-1.6,1.1l-0.8,0.6l-1.4,1.1l-0.7,0.6l0.8-0.2c3.7-1,7.4-1,10.9,0.6c0.3,0.1,0.6,0.3,0.8,0.4
		c0.3,0.2,0.5,0.3,0.8,0.5c0.5,0.3,1,0.7,1.5,1.1c0.9,0.8,1.8,1.8,2.5,2.8c0.8,1.1,1.5,2.4,2.1,3.6l0,0c-0.1,0.4-0.2,0.7-0.3,1.1
		c-0.1,0.2-0.1,0.4-0.2,0.7v0.1c-0.1,0.4-0.1,0.8-0.2,1.2c0,0.1,0,0.2,0,0.3s0,0.2,0.1,0.3c0,0.2,0.1,0.4,0.1,0.6v-0.1v0.1l0,0
		c0.1,0.7,0.3,1.3,0.4,2c0.2,0.8,0.3,1.6,0.5,2.4c1,1.7,2,3.3,2.7,5.1c0.1,0.2,0.1,0.4,0.2,0.5v0.1c0,0.2,0.1,0.3,0.1,0.5l0,0
		c0,0.2,0.1,0.4,0.1,0.5s0,0.1,0,0.2c0,0.2,0.1,0.3,0.1,0.5v0.1c0,0.2,0,0.3,0.1,0.5c0,0.1,0,0.1,0,0.2c0,0.1,0,0.3,0,0.4
		c0,0.1,0,0.2,0,0.3s0,0.3,0,0.4c0,0.1,0,0.2,0,0.3s0,0.2,0,0.3c0,0.2,0,0.4,0,0.6v0.1c0,0.1,0,0.3,0,0.4l0,0c0,0.3,0,0.6,0,0.8
		c0.1,0.1,0.2,0.3,0.3,0.4c0.5,0.7,1.1,1.3,1.6,2c0.3,0.3,0.5,0.6,0.8,0.8c2.3,2,4.6,3.8,7.6,4.5c4.7,1.1,9.6-0.5,14.4-0.1
		c0.9,0.1,1.9,0.2,2.8-0.1c1.7-0.7,2.7-3.3,3.5-4.8c1.3-2.3,2.4-4.6,3.3-7.1c1.8-4.6,2.8-9.6,3.2-14.5c0.6-7.8-0.8-15.7-3.9-22.9
		c-1.6-3.6-3.5-7-5.8-10.2s-4.9-6.1-7.8-8.7c-0.3-0.3-0.7-0.7-1.1-1l-1.9-1.6l0,0l0,0h0.1h0.2l0.4,0.1l0.7,0.2l1.1,0.3l0.4,0.1
		l0.4,0.1l0.7,0.2c1.9,0.6,3.7,1.3,5.5,2.2c16.3,8.5,23.3,25.6,24.3,43c0,0.1,0,0.2,0,0.3c0,0.5,0,1,0,1.6c0,0.5,0,1-0.1,1.5
		c0,0.5-0.1,0.9-0.1,1.4c0,0.1,0,0.1,0,0.2c0,0.3-0.1,0.6-0.1,0.9c0,0.2-0.1,0.6-0.2,0.9c0,0.2-0.1,0.4-0.1,0.6
		c-0.4,2.9-1.4,5.7-2.3,8.5c-1,3-2.7,5.8-1.4,8.9c2.6,6.6,8.4,8.6,14.7,9.6c0.8,0.1,1.7,0.2,2.5,0.3c1.1,0.1,2.1,0.3,3.2,0.4
		c1.2,0.1,2.5,0.2,3.7,0.4c0.2,0,0.5,0,0.7,0.1c0.2,0,0.4,0,0.6,0c0.4,0,0.9,0,1.3,0v-0.1c0.6-2.5,1.9-4.6,3-6.9
		c5.4-10.4,7.4-22.9,5.8-34.7c-1.6-11-7.8-21.2-15.5-29.1c-0.7-0.7-1.6-1.8-1.4-2.8c2.7,0.7,5.6,3,8,4.5c2.9,1.8,5.8,3.8,8.4,6
		c4.8,4,9.4,9.2,10.3,15.6c1.9,12.2,5.3,13,3.7,25.3c-0.4,3.3-2.4,6.3-3.1,9.5c-0.9,4.6-1.2,8.8-2.9,13.2c-0.1,0.3-0.3,0.5-0.3,0.8
		c-0.1,0.3-0.2,2.6-0.8,2.4c2.2,0.7,12.8,2.8,13.4-1l0.3-2.1l2.6-14.7c2.6-14.5,3-29-3.6-42.6c-1.4-2.9-3.9-8.4-5.7-10.1
		c0.2,0.2,0.4,0.4,0.7,0.6c3.6,3.4,7,6.6,9.7,10.9c3.1,4.9,5.8,10.5,7.9,16c0.2,0.4,0.3,0.9,0.5,1.3c0.6,1.8,1.1,3.6,1.4,5.4
		c0.7,3.6,1.1,7.3,1.1,11c-0.1,3.7-0.5,7.3-1.3,10.9c-0.3,1.1-0.5,2.2-0.9,3.2c0.3-0.1,0.6-0.2,1-0.3c0.9-0.4,1.7-1,2.3-1.7
		s1.2-1.5,1.6-2.4c0.4-0.8,0.8-1.7,1.1-2.6c0.2-0.5,0.3-0.9,0.4-1.4C836.3,688.8,835.1,675.3,829.4,663.9z M710.3,636.3L710.3,636.3
		C710.4,636.3,710.4,636.2,710.3,636.3C710.4,636.2,710.3,636.2,710.3,636.3z"/>
	<path class="st4" d="M707.6,682.5L707.6,682.5C707.6,682.4,707.6,682.4,707.6,682.5L707.6,682.5z"/>
	<path class="st4" d="M287.3,639.7c-0.8-0.4-1.7-0.7-2.5-1c-3.5-1.4-6.5-3.8-9.8-5.5c-3.5-1.8-7.1-3.2-10.9-4.3
		c-7.4-2.2-15.1-3.4-22.8-4.2c-0.9-0.1-1.9-0.2-2.8-0.1c-2.4,0.2-4.7,1.3-7.1,1.6c-2.2,0.3-4.4,0.2-6.6,0.4
		c-3.4,0.2-6.7,0.6-10.1,1.1c-6.6,1.1-13.3,3-19.2,6.3c-1.4,0.8-2.8,1.8-4,2.9c-0.5,0.5-1.1,0.9-1.6,1.4l-5,2.2l0,0
		c-3.4,1.7-6.6,3.7-9.5,6c-2.9,2.4-5.6,5-8,7.9s-4.4,6.1-6.1,9.5c-5.8,11.4-6.9,24.9-3.6,37.3c0.1,0.5,0.2,0.9,0.4,1.4
		c0.3,0.9,0.7,1.8,1.1,2.6c0.4,0.8,1,1.7,1.6,2.4s1.4,1.3,2.3,1.7c0.3,0.1,0.6,0.2,1,0.3c-0.3-1.1-0.6-2.1-0.9-3.2
		c-0.8-3.5-1.2-7.2-1.3-10.9c0-3.7,0.4-7.3,1.1-11c0.4-1.8,0.9-3.6,1.4-5.4c0.2-0.4,0.3-0.9,0.5-1.3c2.1-5.5,4.8-11,7.9-16
		c2.7-4.2,6.1-7.5,9.7-10.9c0.2-0.2,0.4-0.4,0.7-0.6c-1.8,1.7-4.3,7.2-5.7,10.1c-6.6,13.6-6.2,28-3.6,42.6l2.6,14.7l0.3,2.1
		c0.5,3.8,11.2,1.8,13.4,1c-0.6,0.2-0.8-2.1-0.8-2.4c0-0.3-0.2-0.6-0.3-0.8c-1.7-4.4-2-8.6-2.9-13.2c-0.7-3.3-2.6-6.2-3.1-9.5
		c-1.6-12.3,1.8-13,3.7-25.3c1-6.4,5.5-11.6,10.3-15.6c2.6-2.2,5.5-4.2,8.4-6c2.4-1.5,5.3-3.8,8-4.5c0.2,1.1-0.7,2.1-1.4,2.8
		c-7.7,7.8-13.9,18-15.5,29.1c-1.7,11.9,0.4,24.3,5.8,34.7c1.1,2.2,2.4,4.4,3,6.9v0.1c0.4,0,0.9,0,1.3,0c0.2,0,0.4,0,0.6,0
		c0.2,0,0.5,0,0.7-0.1c1.2-0.1,2.5-0.3,3.7-0.4c1.1-0.1,2.1-0.2,3.2-0.4c0.8-0.1,1.7-0.2,2.5-0.3c6.4-1,12.2-3.1,14.7-9.6
		c1.2-3.1-0.5-5.9-1.4-8.9c-0.9-2.8-1.9-5.6-2.3-8.5c0-0.2-0.1-0.4-0.1-0.6c-0.1-0.2-0.1-0.6-0.2-0.9c0-0.3-0.1-0.6-0.1-0.9
		c0-0.1,0-0.1,0-0.2c0-0.5-0.1-0.9-0.1-1.4s0-1-0.1-1.5c0-0.5,0-1,0-1.6c0-0.1,0-0.2,0-0.3c1-17.4,8.1-34.5,24.3-43
		c1.8-0.9,3.6-1.7,5.5-2.2l0.7-0.2l0.4-0.1l0.4-0.1l1.1-0.3l0.7-0.2l0.4-0.1h0.2h0.1l0,0l0,0l-1.9,1.6c-0.4,0.3-0.7,0.6-1.1,1
		c-2.9,2.6-5.5,5.6-7.8,8.7c-2.3,3.2-4.2,6.6-5.8,10.2c-3.1,7.2-4.5,15.1-3.9,22.9c0.4,5,1.4,9.9,3.2,14.5c0.9,2.4,2,4.8,3.3,7.1
		c0.9,1.5,1.9,4.1,3.5,4.8c0.9,0.4,1.8,0.2,2.8,0.1c4.8-0.4,9.7,1.1,14.4,0.1c3-0.7,5.4-2.5,7.6-4.5c0.3-0.3,0.5-0.6,0.8-0.8
		c0.5-0.6,1.1-1.3,1.6-2c0.1-0.1,0.2-0.3,0.3-0.4c0-0.3,0-0.6,0-0.8l0,0c0-0.1,0-0.3,0-0.4v-0.1c0-0.2,0-0.4,0-0.6
		c0-0.1,0-0.2,0-0.3s0-0.2,0-0.3s0-0.3,0-0.4c0-0.1,0-0.2,0-0.3s0-0.3,0-0.4c0-0.1,0-0.1,0-0.2c0-0.2,0-0.3,0.1-0.5v-0.1
		c0-0.2,0.1-0.3,0.1-0.5c0-0.1,0-0.1,0-0.2c0-0.2,0.1-0.4,0.1-0.5l0,0c0-0.2,0.1-0.3,0.1-0.5v-0.1c0.1-0.2,0.1-0.4,0.2-0.5
		c0.6-1.8,1.7-3.5,2.7-5.1c0.2-0.8,0.4-1.6,0.5-2.4c0.1-0.7,0.3-1.3,0.4-2l0,0c0,0,0,0,0-0.1v-0.1v0.1c0-0.2,0.1-0.4,0.1-0.6
		c0-0.1,0-0.2,0.1-0.3c0-0.1,0-0.2,0-0.3c0-0.4-0.1-0.8-0.2-1.2v-0.1c0-0.2-0.1-0.4-0.2-0.7c-0.1-0.4-0.2-0.7-0.3-1.1l0,0
		c0.6-1.3,1.3-2.5,2.1-3.6c0.7-1,1.6-1.9,2.5-2.8c0.5-0.4,1-0.8,1.5-1.1c0.3-0.2,0.5-0.3,0.8-0.5s0.6-0.3,0.8-0.4
		c3.5-1.6,7.2-1.6,10.9-0.6c0.1,0,0.8,0.2,0.8,0.2l-0.7-0.6l-1.4-1.1l-0.8-0.6c-0.5-0.4-1-0.7-1.6-1.1c-2.1-1.4-4.3-2.8-6.7-3.7
		c-1.2-0.4-2.5-0.7-3.7-0.9c-0.6-0.1-1.2-0.1-1.8-0.1c0.1-0.1,0.1-0.2,0.2-0.3c0.4-0.5,0.8-1,1.3-1.4c0.1-0.1,0.3-0.2,0.4-0.3l0,0
		c0.4-0.4,0.8-0.7,1.2-1l0.1-0.1v0.1c7-5.4,16.4-3.1,22.3,2.8c4.8,4.8,7.6,11.2,10.5,17.4c0.3,0.6,0.6,1.2,1.1,1.6
		c1.3,1.1,3.2,0.4,4.8,0.8l0,0C321,662.3,305.1,647.3,287.3,639.7z M280.1,636.2l0.1,0.1l0,0C280.2,636.2,280.2,636.2,280.1,636.2z"
		/>
</g>
<g>
	<path class="st5" d="M801.3,290.9c-0.1-1.8-0.7-3.5-1.7-5.1c-1.2-1.9-2.5-3.6-3.9-5.4c-3-3.8-6.3-7.3-9.5-11
		c-3.4-3.8-6.6-7.8-8.3-12.7c-1.3-3.8-3.4-7.1-5.9-10.2c-0.7-0.9-1.4-1.8-1.9-2.9c-1.2-3.1,1.1-6,4.4-5.4c1.7,0.3,3.3,0.9,4.9,1.6
		c0.6,0.3,1.2,0.7,1.8,0.7c3,0.2,5.5,1.6,8,3c1,0.6,2.1,1.2,3.5,1.3c-0.8-2-1.6-3.7-2.2-5.5c-1.4-4.4-3.7-8.2-6.4-11.9
		c-3.6-4.9-7.9-9-12.6-12.7c-2.4-1.8-4.9-3.6-7.3-5.5c-1.4-1.1-2.7-2.2-3.7-3.6c-2.2-3.1-1.2-6.4,2.3-7.8c1.6-0.6,3.3-1,4.9-1.7
		c4.7-2.2,9.6-2.5,14.7-2.1c1.1,0.1,2.2,0.3,3.6,0c-0.8-0.9-1.8-0.9-2.6-1.1c-11.8-3.7-22.9-9.1-32.7-16.8
		c-15.9-12.7-27.9-28.3-34.9-47.7c-2.9-8-7-15.3-13.3-21.3c-2.9-2.7-5.9-4.9-9.7-6c-2.7-0.8-5.4-1.9-8.1-2.9c-1.7-0.7-2.6-2-2.6-3.8
		c0-1.7,1.2-3.2,3-3.8c0.4-0.1,0.8-0.2,1.2-0.3c6.8-1.3,13.7-2.6,20.5-4.3c0.5-0.1,1.2,0,1.6-0.7c-0.3-0.7-1-1-1.6-1.3
		c-2.9-1.8-5.7-3.5-8.6-5.3c-7.4-4.7-15.5-6.6-24.2-5.2c-2.3,0.4-4.6,0.3-6.9-0.2c-2.8-0.7-4.1-2.8-3.3-5.6c0.7-2.2,1.7-4.3,3.2-6.1
		c1.4-1.7,3-3.2,4.6-4.8c0.7-0.6,1.5-1.2,1.9-2.4c-1.9,0.3-3.4,1.2-4.9,1.9c-7.7,3.9-15.3,7.9-23,11.8c-1.6,0.8-3.2,1.6-4.9,2.3
		c-3.6,1.4-7.4,2.2-11.3,1.8c-0.8-0.1-1.4-0.1-1.9,0.7c-0.7,1.1-1.7,0.9-2.6,0.4c-0.6-0.3-1.3-0.8-1.8-1.3c-2-2-4.4-3.5-6.6-5.1
		c-2.7-1.9-5.5-2.7-8.8-1.8c-5.5,1.4-10.7,0.2-15.7-2.3c-3.9-2-7.9-3.7-11.7-5.7c-7.1-3.6-14.4-6.6-22-8.7c-3.4,4.7-6,9.9-7.9,15.4
		c-1.5,4.4-2.4,9-2.2,13.8c0.2,5.5,0.4,11,0.5,16.5c0,0.6,0.3,1.3-0.4,1.8c-2.1,1.4-3.4,3.4-4.1,5.7c-0.8,2.7-2.4,5.1-3.4,7.7
		c-0.6,1.5-1.6,2.6-3.4,3c-4.3,1.1-7.8,3.4-9.6,7.8c-0.4,1-0.8,2-1.5,2.8c-0.2,0-0.3,0.1-0.4,0.1c0,0-0.1,0.1-0.1,0.2s0,0.1,0,0.2
		l0,0c-0.5,1.1-1.1,2.3-1.5,3.4c-0.5,1.1-0.9,2.3-1.2,3.4c-0.7,2.8-1.3,5.7-1.9,8.6c-0.7,3.4-1.8,6.7-3.5,9.7c-2,3.8-4,7.6-6.4,11.1
		c-1.8,2.7-2.9,5.7-3.9,8.6c-1.5,4.5-2.5,9.2-3.6,13.8c-1.5,5.9-1.6,11.8-0.4,17.8c0.9,4.3,2.3,8.4,3.1,12.7
		c0.6,3.5,2.2,6.6,3.7,9.6c2.3,4.6,5.2,8.8,8.1,13c1.9,2.8,4,5.4,6.6,7.6c7.7,6.3,15.6,12.4,24.1,17.5c1.3,0.8,2.3,1.9,2.9,3.3
		c0.6,1.4,1.2,2.7,1.6,4.1c1.1,3.2,2.3,6.3,4,9.3c1.4,2.5,3,4.9,5.3,6.7c3.9,3,7.9,5.9,12.7,7.4c2.4,0.7,3.9,2.3,5.1,4.4
		c0.9,1.6,1.2,3.4,1.3,5.2c0.4,5.1-0.4,10.1-2,15c-1.3,4.1-2.4,8.2-3.5,12.3c0.3,0.3,0.6,0.5,0.9,0.8c3,2.3,3.5,5.6,2.1,9.1
		c-0.4,1.1-1,2.1-1.4,3.1c-1,2.7-1.2,5.2,1.1,7.5c1.2,1.2,2.4,2.5,3.8,3.5c1.8,1.3,3.5,2.7,5.1,4.2c6.4,5.9,8.9,13.2,7.9,21.8
		c-0.1,0.9-0.4,1.8-0.1,2.7c0.7,1.9,0.3,3.8-0.4,5.5c-1.6,4-2.6,8.2-4.4,12c-4,8.5-8.9,16.4-14.9,23.7c-2.9,3.5-5.9,6.9-8.9,10.3
		c3.1-1.2,6.3-2.4,9.4-3.7c7.4-3.1,13.9-7.4,18.6-14.1c0.8-1.2,1.8-2.3,3-3.3c2.9-2.3,5.7-4.7,8.6-7c3.5-3,7.3-5.5,11.4-7.7
		c0.4-0.2,0.8-0.4,1.1-0.6c2.3-3,5-5.5,8.1-7.7c4.4-3.1,9-6,13.8-8.5c2.5-1.3,4.9-2.6,7.1-4.4c1-0.8,1.7-1.7,2.3-2.9
		c3.4-7.5,6.4-15.3,10.1-22.7c0.3-0.7,0.5-1.4,0.8-2.1c0.5-1.1,0.6-2.2,0.2-3.3c-1.5-5.3-2.2-10.8-2.9-16.2
		c-0.5-4.4-0.8-8.8-1.3-13.2c-1.4-12.1-3-24.3-3.5-36.5c-0.1-2.9-0.1-5.8,0.6-8.6c1.1-4.6,1.3-9.2,1.2-13.9c-0.1-2.6-0.5-5-1.7-7.4
		c-1.1-2.2-2-4.5-2.8-6.8c-1.3-4.1-1.2-8.1,0.8-11.9c1.1-2.3,2.2-4.6,3.4-6.8c1.4-2.5,2-5.2,2.3-8c0.2-2.5,0.4-5.1,0.7-7.6
		c0.3-3,0-5.9-0.8-8.8c-0.6-2.5-1.5-4.9-2.8-7.1c-2-3.5-2.4-7.4-3.4-11.2c-0.4-1.5-0.7-2.9-1.7-3.9c-1-1.1-1.7-2.1-1.7-3.7
		c0-1-0.7-1.6-1.4-2.2c-0.9-0.9-1.8-1.7-2.4-2.8c-0.8-1.4-0.8-2.8,0.1-4.2c0.9-1.4,2-2.2,3.8-1.8c1.7,0.3,3.3,1,4.7,2
		c1.9,1.3,3.7,2.7,5.6,4c2,1.4,4,2.8,6.3,3.9c1.9,0.9,3.9,1.4,6.1,1.3c0-1.3-0.2-2.3-0.4-3.3c-0.5-2-1.2-3.9-2-5.8
		c-2.6-6.1-5.5-11.9-9.2-17.4c-4.3-6.5-7.7-13.6-10.4-20.9c-0.9-2.3-1.6-4.7-2.1-7.1c-0.3-1.5-0.4-3.1-0.1-4.6
		c0.1-0.6,0.4-1.1,1.1-1c0.6,0.1,0.7,0.6,0.7,1.1c0,3.5,1.4,6.7,2.8,9.9c3.5,8,8.1,15.4,13.5,22.2c5.6,7,9.9,14.8,12.3,23.4
		c2.8,10.2,2.1,20.5-0.6,30.7c-1.9,7.2-5.1,13.8-8.9,20.2c-2.4,4-4.8,8.1-6.9,12.2c-1.1,2.1-1.2,4.2-0.2,6.4c1,2.1,1.9,4.2,3.4,5.9
		c1.6,1.9,2.5,4,2.8,6.4s0.5,4.7,0.7,7.1c0.2,2.5,0.1,4.9-0.5,7.3c-0.5,2.2-0.8,4.4-0.7,6.6c0.4,9.4,1.4,18.7,3.4,27.8
		c0.3,1.2,0.7,2.4-0.6,3.4c-0.4,0.3-0.3,0.9-0.3,1.4c-0.1,4.2-0.5,8.4-0.4,12.5c0.2,10.8,1.8,21.4,5.7,31.6
		c2.7,7.2,5.9,14.1,8.8,21.1c3.3,7.8,7.2,15.3,12.5,22c1.8,2.3,3.5,4.8,5.2,7.2c5.7,7.6,11.9,14.9,18.5,21.7c3.9,4,8.3,7.6,13.7,9.4
		c6,2,8.1,2.1,12.3-4.8c1.7-2.8,2.5-6.1,3.1-9.3c1.1-6.2,1.6-12.5,2.9-18.7c3.9-18.9,12-35.5,26.3-48.8c2.3-2.1,4.3-4.5,6.1-7.1
		c4.3-6,8-12.4,11.9-18.7c1.3-2.1,2.2-4.4,3.1-6.7C801.5,308,801.6,299.5,801.3,290.9z M704.7,136c0.8-0.4,1.6-0.4,2.3,0.2
		c0.8,0.6,1.4,1.4,1.9,2.2c4,6.2,8.4,12.1,13.2,17.7c3.2,3.7,6.4,7.5,9.9,10.9c3.8,3.7,7.7,7.3,11.9,10.6c2.4,1.9,4.4,4,3.8,7.1
		c0,1.5-0.1,2.6-0.3,3.8c-0.4,2.5,0.1,4.9,0.5,7.3c0.8,4.5,2.6,8.6,4,12.9c0.4,1.2,0.8,2.5,1.1,3.8c0.2,0.6,0,1.2-0.6,1.5
		c-0.5,0.2-0.9-0.2-1.3-0.5c-0.6-0.5-0.9-1.1-1.2-1.8c-1.7-3.6-3.7-6.9-5.7-10.3c-0.8-1.4-1.6-2.9-1.9-4.5c-0.2-1.2-0.8-1.9-2-2.3
		c-1.4-0.4-2.4-1.4-3.4-2.3c-3.1-2.8-5.9-5.9-8.1-9.5c-3.3-5.3-6.8-10.6-10.1-16c-2.2-3.5-4.4-7.1-6.5-10.7
		c-0.8-1.3-1.4-2.8-1.9-4.2c-1.5-4.2-4.3-7.8-5.7-11.9c-0.2-0.5-0.5-1-0.7-1.6C703.8,137.4,703.8,136.5,704.7,136z M541.2,198.8
		c-3,1.8-6.4,1.2-8.5-1.6c-1.8-2.4-2.4-5.2-3.1-8c-0.6-2.7-1.4-5.5-1.4-8.2c0-4.1,0.4-8.2,2.5-11.8c0.6-1,1.5-1.6,2.6-1.3
		s1.5,1.1,1.5,2.2c0,2.3,0,4.6,0,6.9c0,0.5-0.2,1.1,0.4,1.3c0.8,0.2,0.9-0.5,1.2-1c1.4-2.1,2.7-4.4,5.1-5.5c0.5-0.3,0.6-0.7,0.4-1.2
		c-0.1-0.3-0.1-0.6-0.2-1c-1-3.6-0.3-7,1.2-10.3c0.3-0.7,0.6-1.5,0.7-2.3c0.5-4.2,2.5-7.5,5.3-10.5c3.6-3.9,7.5-7.3,12.3-9.7
		c1.1-0.6,1.5-1.2,1.3-2.7c-0.2-1.9-0.8-3.4-2.3-4.6c-1.4-1.2-1.7-3-1.8-4.7c-0.4-5.5,0-11,2.3-16.1c1.3-2.9,3.1-5.4,5.2-7.7
		c2-2.3,2.9-4.9,3.2-7.8c0.4-3.6,0.6-7.2,0.5-10.8c-0.1-2.7,0.4-5.2,2-7.5c0.5-0.7,0.7-1.5,0.4-2.3c-0.6-1.3,0.3-1.6,1.2-1.8
		c2.3-0.5,4.6-0.9,7-1c6-0.5,11.5,1.4,16.9,3.4c7.2,2.7,13.4,7.1,19.4,11.8c1.9,1.5,4,2.9,6.2,3.9c0.5,0.2,1.1,0.5,1.5,0.8
		c0.5,0.4,1.1,0.9,0.8,1.6s-1,0.5-1.5,0.5c-7.8,0.1-15,2.3-22,5.5c-3.5,1.6-6.5,3.9-8,7.6c-0.7,1.7-1.9,2.5-3.8,2.9
		c-3.8,0.7-6.8,2.9-8.3,6.6c-0.7,1.7-0.7,1.8,1,2.6c5.1,2.4,9.3,6,13.6,9.6c3.2,2.7,4.7,6.4,6.4,10.1c0.8,1.9,1.4,3.9,2.1,5.8
		c1.2,3.1,2.5,6.1,5.5,7.9c1.7,1,3.6,1.7,5.6,1.6c1.9-0.1,2.2-0.6,1.7-2.5c-0.4-1.5-0.8-3-1.1-4.5c-0.7-2.8,0.3-5.4,2.6-6.8
		c2.5-1.5,5.2-1.1,7.5,0.8c3,2.5,4.7,5.8,5.2,9.5c0.6,4.6,2.1,9.1,2.8,13.7c0.4,2.4,0.1,4.7,0.3,7.1c-0.2,2.7,0.1,5.3-0.4,7.9
		c-0.2,1-0.1,2.2,0.1,3.2c0.5,2,0.3,3.9,0.3,5.9c0,1.8-1.4,3.5-3.1,4c-1.7,0.5-2.9-0.4-3.8-1.6c-2.1-2.5-4.4-5-5.7-7.9
		c-1.5-3.3-4-5.4-7-7.3c-3.8-2.4-7.7-4.3-12.1-5.3c-3.1-0.7-6.2-0.6-9.3,0c-1.1,0.2-2.1,0.2-3.1-0.2c-2-0.8-4.1-1.1-6.2-1.5
		c-2.5-0.4-4.9,0.2-7.3,0.6c-4.2,0.7-8.2,2.2-12,4.2c-2.4,1.2-4.7,3-7.3,3.4c-2.8,0.4-4.1,1.9-5.4,4.3c-2.4,4.4-4.7,8.8-6.6,13.4
		C544.9,194.9,543.8,197.3,541.2,198.8z M610,191.2c-0.7,1.2-2.1,1.8-3.1,0.9c-2.9-2.4-6.5-3.3-9.8-5c-2.3-1.1-4.6-1.8-7.1-1.8
		c-6.5-0.1-12.9,0.4-19,3c-4.5,2-9,4-12.7,7.4c-0.3,0.3-0.7,0.5-1,0.7c-0.1,0.1-0.3,0-1,0.1c1.3-2.7,2.6-5.1,4.5-7
		c3.2-3.3,6.6-6.5,10.4-9c5.3-3.6,11.2-5.4,17.6-5.4c3.1,0,6,0.9,8.9,1.8c2.3,0.7,4.6,1.8,6.8,2.8c4.1,1.8,5.5,5.4,6,9.5
		C610.5,189.8,610.4,190.6,610,191.2z M572.8,254.5c-4.7-1.1-9-2.9-12.5-6.4c-2.8-2.8-5.4-5.7-7.6-9c-2-3.1-4.2-6.1-6.3-9.1
		c-1.1-1.5-1.9-3-2.1-4.9c-0.2-2,0.3-3.8,1.9-5.1c0.9-0.8,1.4-1.7,2-2.7c3.4-5.8,7.2-11.3,12.3-15.9c1.7-1.5,3.4-3.1,5.1-4.6
		c7.6-6.4,15.9-7.2,24.8-3c5.2,2.4,10,5.5,14.4,9.3c1.9,1.6,4.2,2.9,6.3,4.3c1.6,1.1,3.2,2.4,4.5,3.8c1.4,1.6,1.6,2.8,0.6,4.7
		c-3.3,6.1-6.9,12.1-10.9,17.8c-0.9,1.4-2.1,2.5-3.5,3.4c-5.9,4-12.1,7.2-18.9,9.3c-3.7,1.1-7.3,0.8-10.8-0.8
		c-0.5-0.3-1.2-1-1.7-0.2c-0.5,0.7,0.3,1.2,0.8,1.6c2.6,2.1,5.5,3.6,8.7,4.3c1.9,0.4,3.9,0.4,5.9,0.6c1.9,0.3,3.7-0.4,5.5-0.8
		c-0.7,1.8-2.3,2.4-3.9,2.6c-3,0.4-6,0.8-9,1.3C576.5,255.5,574.6,255,572.8,254.5z M645.1,342.1c-1,7.4-5,13.2-9.5,18.8
		c-3.2,4-6.4,8.1-9.7,12c-4.5,5.5-10.3,8.2-17.5,7.6c-3.6-0.3-6.8-3.5-6.9-7.2c-0.1-2.4-0.2-4.7,0.3-7.1c0.3-1.6,0.4-3.3-0.5-4.8
		c-1.2-1.9-0.6-4-0.3-6c0.5-2.7,1-5.5,1.6-8.2c0.4-1.6,1-3.1,2-4.4c0.2,0.2,0.3,0.3,0.4,0.4c2.1,6.3,7.2,8,13,8.6
		c4.3,0.5,8-1.3,11.3-4c1.8-1.5,3.5-2.9,5.3-4.3c1-0.8,1.8-1.7,2.5-2.7c2.5-3.7,4.4-7.6,6.1-12.1
		C644.9,333.4,645.7,337.6,645.1,342.1z M644.3,288.1c0,0.6,0.1,1.2-0.1,1.7c-0.3,1.1-0.8,2.2-2.1,2.5s-2.4-0.2-3.2-1.3
		c-1-1.4-1.9-2.9-2.6-4.4c-0.4-0.8-0.6-1.7-1.4-2.5c-0.3,0.3-0.5,0.5-0.6,0.7c-2,5.9-4.8,11.3-7.5,16.8c-1.4,2.7-0.7,5.4,0,8.1
		c0.8,3.1,1.4,6.2,1.2,9.5c-0.2,2.3-0.9,4.3-2.5,6c-0.6,0.7-1.1,0.8-1.7-0.2c-2.2-4-4.5-8-5.8-12.4c-0.7-2.4-1.6-4.7-2.9-6.8
		c-2.4-4.1-3.3-8.7-4.5-13.2c-0.3-1.2-0.4-2.4-1.4-3.5c-0.9,1.1-0.5,2.2-0.4,3.2c0.4,5.6,0.6,11.3-0.2,17.2
		c-1.1-1.3-1.4-2.7-1.9-3.9c-0.9-2.1-1.7-4.3-2.6-6.4c-0.5-1.2-0.8-2.5-2.2-3.1c-0.5-0.2-0.6-0.7-0.7-1.2c-1.6-4.7-4.7-8.4-7.8-12.1
		c-1.8-2.1-3.7-4.2-5-6.7c-0.5-0.9-1.2-1.6-2-2.2c-2.5-1.8-4.6-3.9-7.2-5.5c-0.6-0.4-1.1-0.9-1.6-1.5c-1.3-1.5-0.9-3.2,0.9-4
		c0.7-0.3,1.5-0.6,2.4-0.6c1.6,0.1,3-0.1,4.5-0.8c1.3-0.6,2.8-0.2,4.1,0.4c0.9,0.4,1.6,0.4,2.5-0.2c3.3-2.4,7.1-3.8,10.9-5
		c5.6-1.9,10-5.5,13.7-10c3-3.7,5-7.8,5.9-12.5c0.3-1.4,0.8-2.7,1.4-3.9c1.6-3.5,6.7-4.5,9.7-2c2,1.7,3,3.9,3.7,6.2
		c0.5,1.6,0.9,3.1,1.9,4.5c1.5,2.3,2.4,9.4,1.7,12.1c-0.3,1.4-0.7,2.8-0.2,4.3c0.3,1,0.3,2.2,0,3.2c-1.1,4.7,0.5,9.1,1.3,13.5
		C643,277.4,644.3,282.7,644.3,288.1z M677.2,153.8c-0.6-2.8-1.3-5.6-1.9-8.4c-0.5-2.1-1.2-4.1-2.1-6c-2.2-4.3-4-8.8-5.4-13.4
		c-1.4-4.5-3.8-8.7-5.6-13.1c-2.3-5.8-6.1-10.6-9.8-15.5c-0.8-1-2-1.8-3.2-2.2c-2.1-0.8-3.4-2.6-5.1-3.8c-1.1-0.8-1.1-2.7,0.1-3.1
		c2.9-1.1,5-3.3,7.6-4.9c1.5-0.9,3.1-1.3,4.9-1.3c2.8,0.1,4.3,1.3,4.9,4.1c0.2,0.7,0.5,1.4,0.9,2c4,5.6,6.5,11.9,8.8,18.3
		c4.1,11.4,6.8,23.2,9,35.1c0.7,3.8,1.6,7.7,2.4,11.5c0.6,3.1,1.8,5.9,3.7,8.5c4.9,6.8,8.7,14.2,12.9,21.5c0.9,1.6,1.8,3.1,2.6,4.7
		c0.2,0.4,0.6,0.8,0.2,1.4c-1,0-1.2-0.8-1.7-1.5c-2.6-3.9-5.2-7.7-7.9-11.6c-2.6-3.8-5.5-7.3-8.7-10.6
		C680.5,162.3,678.2,158.4,677.2,153.8z M675.6,259.4c-0.8,0.1-1.2-0.3-1.4-1.1c-0.1-0.5-0.4-1-0.3-1.4c0.1-3.4-0.8-6.7-0.5-9.5
		c0.1-2.6-0.2-4.6,0.4-6.6c0.1-0.2,0.1-0.5,0-0.7c-0.8-3.2,0-6.5-0.1-9.7c-0.1-6,1.4-11.4,4.7-16.5s6.4-10.2,9.6-15.4
		c0.3-0.4,0.5-0.9,1.1-0.9c0.7,0,1.2,0.6,1.3,1.2c0.3,1.3,0.5,2.6,0.5,3.9c0,1.2,0.3,2.2,1.3,3c1.1,0.8,1.7,2,2.1,3.3
		c0.7,2.1,1.3,4.2,2,6.3c0.4,1.2,0,2.3-0.4,3.3c-0.4,1.1-1,2.2-1,3.5c0,0.7-0.4,1.4-1.2,1.1c-0.9-0.3-1.3,0.3-2,0.6
		c-6.2,3.1-9.1,8.8-11.5,14.7c-1.9,4.7-2.5,9.8-3,14.8c-0.1,1.5-0.6,3-0.5,4.6C676.8,258.7,676.4,259.3,675.6,259.4z M715.7,400.5
		c-0.5,0.4-0.9,0.1-1.4-0.1c-1.2-0.6-2.1-1.6-2.9-2.6c-4-4.8-8-9.7-11.5-14.9c-3-4.4-5.3-9.2-7.3-14.2c-2.5-6-4.3-12.4-7.7-18.1
		c-2-3.4-4-6.8-5-10.6c-1.4-5.9-3.1-11.7-3.2-17.8c0-3.4,0.7-6.7,1.8-9.8c0.7-2.2,0.9-4.2,0.4-6.5c-0.4-2.2-0.6-4.5-0.6-6.8
		c-0.1-4.8-0.1-9.7,0-14.5c0.1-2.5,0.5-5,0.8-7.5c0.1-0.6,0.2-1.1,0.2-1.7c-0.1-3.5,0.8-7,0.5-10.5c0-0.4,0.1-0.8,0.7-1.4
		c0.3,2.8,0.5,5.1,0.7,7.5c0.7,8,0.9,16.2,3,24c0.9,3.3,2.1,6.5,2.7,9.9c0.6,3.5,1.3,6.9,1.2,10.4c0,2.7,0.9,5.1,1.1,7.7
		c0.3,2.7,0.8,5.5,0.4,8.2c-0.2,1.3,0.2,2.4,1,3.6c2.6,3.9,4,8.4,4.9,13c1.1,5.6,2,11.3,3.4,16.8c1.6,6.2,4,12.1,7.1,17.7
		c0.2,0.4,0.6,0.7,0.6,1c0.4,3.6,2.9,6.2,4.7,9.1c1.1,1.8,2.4,3.5,3.6,5.3c0.3,0.4,0.6,0.8,0.8,1.2
		C716.1,399.4,716.3,400,715.7,400.5z M734.5,401.4c-0.7,0.6-1.4,0.3-2-0.1c-0.6-0.5-1.2-0.9-1.7-1.5c-5.6-6.8-11.2-13.5-15.8-21
		c-2.4-4-3.9-8.5-5.1-13c-0.8-3.3-2-6.4-3.5-9.4c-3-6.4-5.7-12.9-7.6-19.7c-1.9-6.7-2.2-13.4-1.2-20.2c0.2-1.4,0.4-2.8,0.6-4.1
		c0.3-2.6,0.1-5.3-0.8-7.8c-1.1-3-2.1-6.1-3.3-9c-4.1-9.8-4.8-19.9-3.3-30.2c0.6-4.2,1.3-8.4,1.2-12.7c0-2.1,0.3-4.1,0.7-6.1
		c0.4-1.8,0.8-3.7,0.9-5.6c0-0.2,0-0.5,0.1-0.7c0.4-2.7,1.9-4.4,4-4.6c2.1-0.3,4.1,1,4.9,3.6c0.8,2.9,2.5,5.1,4.4,7.3
		c1,1.1,2.3,1.8,3.7,2.4c1,0.4,1.4,0.1,1.5-0.9c0.7-4.3,1.2-8.6,0.5-13c-1.1-6.6-3.2-12.7-7.9-17.7c-0.5-0.5-0.9-1.2-1.3-1.8
		c-0.7-1.2-0.7-2.5,0.2-3.7c0.9-1.1,2.1-1.5,3.5-1.2c0.7,0.2,1.4,0.4,2.1,0.8c1.5,0.8,3.1,1.6,4.5,2.5c1.2,0.7,2.3,1.5,3.8,1.5
		c1.1,0,2.1,0.6,2.8,1.4c1,1.2,2.3,1.8,3.7,2.4c1.9,0.8,3.7,1.7,5.6,2.6c0.7,0.3,1.4,0.9,2.4,0.8c0.4-1.2-0.1-2.2-0.4-3.3
		c-1.5-5.1-4-9.9-6.7-14.5c-2.5-4.3-5.3-8.5-8.1-12.6c-7.1-10.6-14.2-21.1-21-31.9c-3.7-5.8-6.5-12-8.4-18.5
		c-1.6-5.4-3.3-10.8-4.8-16.3c-0.4-1.3-0.5-2.6-0.8-3.9c-0.1-0.5,0.1-1,0.7-1.2c0.6-0.1,0.9,0.3,1.1,0.8c2.4,7.7,6.8,14.6,9.7,22
		c1.6,4.1,4.1,7.9,6.6,11.5c3.9,5.9,8,11.6,12.2,17.3c7.1,9.6,14,19.2,19.6,29.8c2.7,5.1,4.6,10.5,6.2,16c0.5,1.7,0.7,3.4,0.6,5.1
		c-0.3,4.2-2.5,6.1-6.8,5.7c-0.1,0-0.3,0.1-0.5,0.2c4.1,6.8,5.2,14.4,5.9,22.1c0.8,9.2,2.1,18.2,3.6,27.3c0.2,1.5,0.3,2.9,0.3,4.4
		c0,0.7,0,1.3-0.3,1.9c-0.2,0.4-0.6,0.8-1.1,0.8c-0.6-0.1-0.9-0.5-0.9-1c-0.1-1.8-0.7-3.5-1.2-5.3c-1.6-6.3-4.2-12.1-8.1-17.3
		c-2.4-3.2-4.7-6.5-7.1-9.5c-0.6,0-0.7,0.4-0.8,0.7c-0.9,4.5-2.8,8.6-4.4,12.8c-0.3,0.8-0.7,1.7-1.2,2.4c-2,2.9-5.6,3.1-8.1,0.6
		c-0.7-0.7-1-1.7-2-2.2c-0.6,0.9-0.7,1.8-0.3,2.8c3.4,7.6,5.9,15.5,9.5,23c3.7,7.6,7.2,15.3,12,22.3c0.5,0.8,1.9,2,0.9,2.7
		c-1,0.8-1.7-0.9-2.3-1.6c-5.2-6.4-10.3-12.8-15.5-19.2c-1.6-2-3.3-3.8-5.1-5.8c-0.4,0.9,0,1.5,0.2,2.1c1.5,4.3,3.1,8.6,5.1,12.8
		c2.5,5.4,4.3,11.2,6.1,16.9c1.3,4.4,1.3,9,1.4,13.4c0.2,11,1.9,21.7,4.3,32.4c2,8.9,4.8,17.6,9.6,25.4c1,1.7,1.9,3.5,2.8,5.2
		c0.1,0.2,0.2,0.4,0.3,0.7C734.9,400.3,735.1,400.9,734.5,401.4z M787.6,313.1c-0.3,3.8-1.6,7.3-3.2,10.8c-2.1,4.7-5.1,8.9-8.4,12.9
		c-1.5,1.8-2.9,3.7-4.6,5.4c-1.4,1.5-2.9,2.9-4.6,4.1c-5.6,3.7-9.5,8.9-13.1,14.5c-2.7,4.3-5.1,8.7-6.3,13.8
		c-0.8,3.3-0.7,6.4,0.4,9.6c0.2,0.5,0.3,0.9,0.4,1.4c0.1,0.8-0.1,1.4-0.9,1.9c-0.7,0.4-1.4,0.4-2.1,0c-0.7-0.4-1.4-1-1.6-1.8
		c-0.3-1.2-1.1-2.2-1.9-3.1c-3.3-3.9-4.9-8.6-6.3-13.4c-1.3-4.4-1.8-9-1.5-13.6c0.1-1,0-2-1.2-2.3c-4.3-1.2-5.5-4.6-5.6-8.5
		c-0.2-6.1,1.1-11.9,3.3-17.5s5.2-11,8-16.4c1-1.9,2.2-3.7,3.8-5.1c3.2-3,4.5-6.8,5-10.9c0.7-5.7,1.4-11.4,1-17.1
		c-0.2-3-0.6-6-0.5-9.1c0-0.4,0-0.8,0-1.2c0.1-1.9,1.1-2.8,3-2.6c0.9,0.1,1.8,0.5,2.4,1.2c1.7,2,3.9,3.5,6,5
		c2.7,1.8,4.3,4.6,6.3,7.1c0.4,0.4,0.7,0.9,1,1.4c0.5,0.9,1.1,1.7,2.3,1.5s1.2-1.2,1.2-2.1c0-0.7,0.3-1.3,0.8-1.8
		c1-1.1,0.7-2.1,0.1-3.1c-1.2-2.1-2.4-4.1-4.1-5.8c-0.6-0.6-1.2-1.1-1.7-1.7c-0.5-0.5-1.3-1.1-0.7-1.8c0.5-0.6,1.4-0.4,2.1-0.1
		c2.6,1.3,4.7,3.3,6.5,5.5c1.8,2.1,3.4,4.4,5,6.7c3.1,4.6,4.8,9.8,5.9,15.3c0.4,2.1,0.7,4.2,0.9,6.3c0.3,2.4-0.1,4.8-0.8,7
		c-1.8,5.9-2.6,12-4.9,17.7c-0.1,0.3-0.3,0.6,0.1,1.1c1.4-0.7,1.8-2,2.5-3.1c1.6-2.6,3.1-5.2,3.7-8.2c0.2-0.8,0.4-2.1,1.5-1.9
		C787.9,311.1,787.7,312.3,787.6,313.1z"/>
	<path class="st5" d="M460.3,162.2c-0.9-1.5-1.3-2.9-1-4.6c0.4-2.6,0.4-5.2,0.7-7.8c0.3-3.5-0.2-7-0.3-10.6c0.3-0.5,0.4-1,0.2-1.5
		c-0.1-0.2-0.2-0.3-0.3-0.5c-0.1-1.8-0.3-3.6-0.4-5.4c0.3-0.3,0.3-0.5,0.1-0.8c-0.1-0.1-0.1-0.1-0.3-0.2c-0.2-1.2-0.6-2.4-1-3.4
		c-0.7-1.8-1.8-3.5-3.4-4.9c-2.6-2.4-4.4-5.3-5.6-8.5c-1.3-3.3-2.4-6.7-3.7-10.1c-1.6-4-3.6-7.8-7.9-9.5c-1-0.4-1.4-1.3-1.8-2.2
		c-1.5-3.4-3-6.7-4.2-10.2c-2.4-7.3-4-14.7-3.1-22.5c0.2-1.5,0.5-2.9,0.6-4.4c0.1-1.6-0.2-3-0.8-4.1c-13.2,4-26.1,8.9-38.7,14.7
		c-4.3,2-7.8,4.7-10.9,8.2c-4,4.6-8.5,8.7-13.9,11.6c-5,2.8-10.1,2.1-14.2-1.9c-1.6-1.6-2.8-3.4-4.1-5.2c-0.6-0.8-1.2-1.5-2.1-2
		c-10.1-6.3-20.7-11.4-31.9-15.3c-4.5-1.6-9-2.3-13.7-2.6c-1.2-0.1-2.4,0-3.7,0.7c0.5,0.6,0.9,1.1,1.4,1.5c1.8,1.8,3.8,3.5,4.9,5.8
		c1,1.9,2.3,3.1,4.2,3.9c2.1,0.9,2.9,2.2,2.7,3.7c-0.2,1.6-1.5,2.7-3.7,3.1c-0.2,0-0.3,0.1-0.5,0.1c-1.5,0-2.7,0.6-3.8,1.5
		c-2.6,2.1-5.4,3.9-8.4,5.6c-3.3,1.8-6.3,4.1-9.1,6.6c-2.3,2.2-4.4,4.5-6.9,6.6c-3,2.6-5.4,5.7-7.6,9c-2.3,3.3-4.7,6.6-7.1,9.7
		c-7.6,9.9-16.5,18.3-27.5,24.3c-0.4,0.2-0.8,0.3-0.9,0.8c0.2,0.1,0.3,0.3,0.5,0.4c2,0.9,4.1,1.1,6.3,0.6s4.3-1.1,6.4-1.7
		c2.5-0.7,4,0.7,3.6,3.3c-0.2,1.6-1.1,2.9-2,4.2c-0.6,0.8-1.2,1.6-1.6,2.4c-0.8,1.6-2,2.8-3.6,3.6c-1.8,0.9-3.7,1.7-5.6,2.5
		c-4.4,2-8.9,3.8-12.6,7c-4,3.5-7.8,7.1-11.1,11.2c-3.6,4.6-7.5,9-12.3,12.3c-0.4,0.3-1.1,0.6-0.7,1.4c1.6,0.5,3.3,0.5,5.1,0.4
		c1.6-0.1,3,0.2,3.8,1.7s0.2,2.8-0.7,3.9c-2.2,2.6-3.7,5.6-5.8,8.3c-3.2,4.1-5.1,8.7-6.2,13.8c-1.7,7.6-2.6,15.2-0.4,22.9
		c0.1,0.3,0.2,0.6,0.2,1c0,1.4-0.8,2.3-2.2,2.4c-0.5,0-0.9-0.4-1.5,0.1c-0.2,1.9,0.2,3.8,0.4,5.8c0.8,8.6,3,16.6,8.3,23.6
		c1.4,1.9,2.7,3.9,4.1,5.9c1.9,2.6,4,5,6.5,7c4.4,3.6,8.4,7.6,12.1,11.9c1.1,1.3,2.3,2.6,3.6,3.7c7.2,6.5,12.6,14.5,17.6,22.7
		c2.3,3.7,4.5,7.4,7.2,10.8c3.5,4.4,6.2,9.3,8.4,14.4c5.3,12.1,8.5,24.7,9.9,37.7c1,9.5,1.1,19-0.9,28.4c-0.8,3.7-1.7,7.3-1.1,11.2
		c0.3,2,1.2,3.5,2.7,4.7c0.2,0.2,0.4,0.3,0.6,0.4c0.6,0.3,1.3,0.3,2.1,0c0.5-0.2,1.1-0.5,1.6-0.7c2.3-1.1,4.5-2.4,6.2-4.3
		c4.8-5.5,9.8-10.8,13.7-17c2.1-3.3,4.5-6.5,6.7-9.7c2.5-3.6,5-7.3,7.1-11.2c1.8-3.4,3.6-6.7,5.5-10c7.2-12.2,11.6-25.5,12.8-39.7
		c0.4-4.9,0.3-9.7-1.3-14.3c-0.7-1.9-1.1-4-1.5-6c-0.8-4.6-2.2-9.1-3.9-13.5c-1.4-3.5-2.3-7.2-2.7-11c-1.1-10.3-2.8-20.5-5.4-30.5
		c-2.9-11.1-3.5-22.3-2.6-33.7c0.7-9.3,1.8-18.5,2.5-27.7c1.3-15.7,5-30.7,10.9-45.3c0.6-1.4,1.3-2.9,1.6-4.4
		c0.9-4.2,2.9-7.8,5-11.5c0.7-1.2,1.2-2.3,1.4-3.7c1.2-8.5,6.5-13.9,13.9-17.5c1.3-0.6,2.6-1,4-0.9c1.1,0.1,2.3,0.2,2.5,1.5
		s-1,1.4-2,1.7c-2.7,1.1-4.5,3-5.7,5.7c1.1,0.4,1.8-0.2,2.6-0.3c1.9-0.3,3.7-0.2,5.4,1c5.9,4.1,8.1,10.3,6.1,17.3
		c-0.3,1-0.7,2-1.1,3c-2.5,6.2-6.9,10.8-12.2,14.8c-6.6,5-10.6,11.8-12.2,19.9c-1.2,6.2-1.5,12.5-0.2,18.8c0.3,1.7,0.5,3.4,0.5,5.1
		c-0.1,2.1-1.1,3.7-2.8,4.2c-1.7,0.6-3.4,0-4.8-1.7c-0.7-0.9-1.3-1.9-1.8-2.9c-0.3-0.5-0.3-1.3-1.2-1.7c-2.8,15.2-3.1,30.3-1.7,45.4
		c0.7,0.4,0.9,0.1,1.2,0c2.4-0.9,4.3-0.2,5.5,2.2c0.7,1.4,0.9,3,0.7,4.6c-0.1,0.8-0.1,1.6,0.2,2.4c0.7,1.5,0.8,3.2,0.6,4.8
		c-0.4,2.8-0.9,5.5-1.3,8.3c-0.3,2.2-0.8,4.4-0.6,6.6c0.5,3.5,0.9,7,1.6,10.5c0.2,0.7,0.4,1.5,0.2,2.2c-0.4,1-0.1,1.9,0.1,2.9
		c0.4,1.3,0.8,2.7,1.1,4c1.8,6.6,3.9,13.2,4.9,20.1c0.4,3.1,0.2,6.2,0.7,9.3c0.7,4.2,1,8.5,0.8,12.8c-0.5,11.6-2.9,22.8-7.8,33.3
		c-0.7,1.5-2,3.1-1.8,4.8c0.2,1.7,1.8,2.9,2.8,4.2c1.1,1.5,2.1,3,3.4,4.3c0.5,0.5,1,1,1.6,1.5c0.2,0.2,0.5,0.3,0.7,0.5
		c4.8,3.6,9.7,6.9,14.6,10.3c8.6,6,15,13.5,17,24.1c0.1,0.6,0.3,1.3,0.5,1.9c1.8,7.3,3.7,14.6,6.5,21.7c1.8,4.8,5.7,7.4,9,10.7
		c0.9-0.8,0.5-1.5,0.5-2.2c0-1.7,0.5-3.1,2.1-3.9l0,0c-0.1-0.1-0.2-0.2-0.3-0.3c-2.5-2.4-4.5-5.2-6.6-8c-1-1.4-1.7-2.9-2-4.8
		c0.2,0.1,0.5,0.1,0.7,0.2c2,0.4,4.7,0.7,7.4,0.8c1.9,0.1,3.9,0.1,5.7-0.1c0-0.1-0.1-0.1-0.1-0.2c-1.4-2.6-2.3-5.4-2.7-8.4
		c-0.3-2-0.3-4.1,0.3-6.1c0.4-1.2,0.3-2.5-0.7-3.7c-6.6-7.5-10.3-16.3-11.5-26.2c-0.5-4.1-1.1-8.3-2.5-12.3c-0.2-0.7-0.4-1.6-0.9-2
		c-2.1-1.3-3-3.6-4.7-5.3c-2.5-2.6-2.6-5.6-0.2-8.4c1.6-1.9,3.3-3.7,5.7-4.6c0.6-0.2,0.8-0.6,0.7-1.1c-0.1-0.6-0.2-1.3-0.4-1.9
		c-1.6-8.4-0.8-16.5,3.3-24.1c0.9-1.6,1.9-3,3.2-4.4c2.4-2.6,4.2-5.8,6.8-8.4c0.4-0.4,0.5-1,0.8-1.5c0.4-0.9,0.8-1.8,1.4-2.6
		c0.8-1.1,0.9-2.2,0.8-3.5c-0.1-0.9-0.5-1.9,0-2.7c1.2-1.8,1-3.9,1.4-5.9c0.5-2.1,1.1-4.1,2.1-6c0.3-0.5,0.6-1,1-1.4
		c0.2-0.2,0.5-0.3,0.8-0.2c3.4-2.8,6.8-2,8.6-6.3c1-2.5,2-5,3.2-7.5c2.9-6.1,5.6-12.4,10.2-17.6c4.8-5.5,8.4-11.7,11-18.5
		c1.4-3.5,3.4-6.5,5.9-9.3c1.1-1.2,2.2-2.1,3.8-2.5c1.5-0.4,2.9-1.2,4.1-2.2c3.7-3,7-6.5,9.4-10.7c4-7,7.5-14.3,9.8-22.1
		c2.5-8.6,4-17.3,3.7-26.2C463.9,171.4,462.9,166.5,460.3,162.2z M234.1,231.5c-0.3,2.5-0.2,5.1-0.5,7.6c-0.7,6.7-2.4,13-5.4,19
		c-0.7,1.3-1.2,2.7-1.6,4.1c-0.6,2-0.6,4,0,6c1.4,5.5,2.7,11.1,5.2,16.3c0.2,0.5,0.3,0.9,0.3,1.4c0.1,0.1,0.1,0.1,0.2,0.2
		c-0.1-0.1-0.2-0.1-0.2-0.2l0,0c-1.7-0.8-3-2-4.1-3.4c-0.4-0.4-0.8-0.9-1.1-1.4c-1.9-2.3-4-4.3-5.9-6.6c-2.5-3.1-4.8-6.2-6.1-10
		c-1.9-5.3-4.3-10.5-5.5-16c-1.5-6.5-1.6-13.1-1-19.7c0.9-9.6,4.8-18.3,8-27.2c2.1-5.8,5.1-11.2,7.5-16.8c1-2.5,1.5-5.2,1.8-7.9
		c0.2-1.7-0.3-3.6-0.6-5.3c-0.4-2.2-0.4-2.4,1.7-3.4c0.2-0.1,0.4-0.2,0.7-0.3c5.1-1.7,9.5-4.7,14-7.5c2.1-1.3,3.9-3,5.8-4.5
		c0.3-0.3,0.6-0.6,1-0.8c0.3-0.2,0.6-0.1,0.9,0.2c0.3,0.3,0.4,0.6,0.2,0.9c-0.3,0.4-0.6,0.8-0.9,1.1c-3.3,3.4-6.7,6.7-10.5,9.6
		c-2.8,2.2-4.8,5-5.6,8.6c0.6,0.2,0.7-0.1,0.9-0.3c0.3-0.5,0.5-1.2,1.2-0.8c0.6,0.3,0.4,1.1,0.2,1.6c-1.8,6-0.7,11.8,0.8,17.6
		c0.6,2.4,1,4.8,1.2,7.2c0.3,3-0.6,5.8-1.2,8.7c-0.3,1.7-0.8,3.3-1.2,5.2c1.1-0.3,1.5-1,1.9-1.7c1.1-1.5,2.1-2.9,3.2-4.3
		c0.1-0.1,0.2-0.3,0.3-0.4c0.4-0.4,0.8-0.9,1.5-0.6c0.7,0.4,0.4,1,0.2,1.5c-0.8,2.1-1.6,4.3-2.5,6.4
		C236.5,220.8,234.9,226,234.1,231.5z M274.5,353.6c-0.2-1.6-0.1-3.1,0.2-4.7c0.3-1.4,0.4-2.8,0.1-4.2c-1.3-6-1.2-12.1-0.7-18.1
		c1.1-13.9,3-27.7,5.8-41.4c0.2-0.8,0.3-1.6,0.3-2.4c-0.5-5-1.1-9.9-2.1-14.8c-0.9,0.2-0.7,0.9-0.9,1.4c-2.3,8.2-4.5,16.5-6.8,24.7
		c-0.5,1.7-1,3.3-1.6,4.9c-0.2,0.5-0.5,1-0.8,1.5c-0.3,0.4-0.7,0.8-1.2,0.6c-0.7-0.2-0.7-0.8-0.6-1.4c0.5-2.4,0.9-4.8,1.4-7.3
		c0.9-4.8,1.7-9.5,2.1-14.4c0.5-7.3-0.2-14.4-2.3-21.4c-0.8-2.9-2.4-5.4-4.4-7.6c-1.8-2.1-3.4-4.2-4.7-6.6c-1.3-2.4-2-5-2.5-7.8
		c-1.1,0.3-1.2,1.3-1.6,2c-3.8,7.8-6.5,16-8,24.5c-0.8,4.5-1.7,9-2.5,13.6c-0.1,0.7-0.3,1.5-0.5,2.2c-0.3,0.9-0.9,1.4-1.8,1.4
		c-1.1,0-1.6-0.6-1.9-1.6c-0.1-0.5-0.2-1-0.2-1.5c-0.1-1.2-0.1-2.5-0.1-3.7c0.4-13.1,1.6-26,4.2-38.9c2.1-10.4,5.6-20.2,9.5-30
		c0.2-0.5,0.5-1.1,0.7-1.6c0.1-0.1,0-0.3,0-0.7c-0.7-0.2-1.2-0.3-1.7-0.5c-1.9-0.8-2.8-2.2-2.8-4.2c0-0.8,0.2-1.6,0.4-2.4
		c4.9-15.1,11.2-29.4,19.3-43c2.7-4.6,6-8.5,9.9-12.2c7.6-7.3,16.7-12.2,26.5-15.8c1.1-0.4,2.4-0.7,3.6-0.8c1.6-0.1,2.4,1.1,1.9,2.6
		c-0.3,0.9-0.9,1.5-1.5,2.2c-1,1-1.9,1.9-2.9,2.9c0.8,0.7,1.6,0.2,2.2,0.7c0.5,0.3,0.6,0.8,0.1,1.2c-0.2,0.1-0.4,0.3-0.7,0.3
		c-2.9,0.6-5.2,2.3-7.6,3.9c-2.8,1.8-5.5,3.9-8,6.1c-11.8,10.6-21.6,22.9-28.5,37.3c-0.9,2-1.9,4-2.5,6.3c2.1-0.3,4.1-0.5,6-1.3
		c2.7-1,5.5-1.7,8.3-2.3c2.7-0.6,4.8,1.2,4.3,4c-0.2,1.6-1,3-1.6,4.4c-1.8,3.9-3.4,7.8-4.3,12c-1.7,8-1,16,0.8,23.9
		c0.7,3,1.4,5.9,2.5,8.7c0.4,0.9,0.8,1.8,1.3,2.6c0.5,0.9,1.3,1.2,2.3,0.8c0.8-0.3,1.6-0.8,2.5-1.1c3.2-1.2,5.8,0.2,6.7,3.4
		c0.3,1.1,0.3,2.3,0.3,3.4c0,4.3-0.2,8.5-0.1,12.8c0.1,3.9,0.6,7.7,1.4,11.5c1,4.6,1.4,9.3,2.1,13.9c0.3,1.6,0.6,3.2,1.1,4.8
		c0.3,0.9,0.7,1.8,1.5,2.5c1.5,1.2,2.1,2.9,2.3,4.7c0.6,5.3,0.5,10.5-0.9,15.6c-1.5,5.3-2.8,10.6-4.2,16
		c-2.7,10.5-6.7,20.6-11.7,30.2c-0.5,1-1.1,2-1.8,2.9c-1,1.3-2.2,1.3-3.4,0.2C275.2,357.2,274.7,355.4,274.5,353.6z M310.4,308
		c0.5,3.1,1,6.1,1.4,9.2c0.9,6.4,2.1,12.7,4,18.9c1,3.2,1.2,6.4,1,9.7c0.4,6.2-1.3,11.8-3.9,17.3c-2.9,6-7,11.3-11,16.5
		c-2.4,3.2-4.8,6.4-7.3,9.5c-2,2.4-3.2,5.5-4.8,8.3c-2.7,4.7-5,9.6-8.4,13.9c-0.7,0.9-1.5,1.8-2.4,2.5c-0.7,0.6-1.5,0.6-2.3,0.2
		s-0.7-1.2-0.8-1.9c0-1.2,0.6-2.2,1.2-3.2c3.3-4.9,5.5-10.3,7.7-15.6c0.1-0.3,0.4-0.7,0.3-0.9c-0.8-2.1,0.4-3.8,1.2-5.6
		c2-4.7,2.8-9.7,3.8-14.7c1-4.7,1.7-9.5,2.4-14.2c0.4-2.6,0.2-5.2,0.5-7.8c0.3-2.4,0.6-4.7,1.3-7c1.4-4.7,3-9.3,5.1-13.8
		c1-2.3,1.8-4.8,2.6-7.2c0.4-1.1,0.7-2.3,1.8-2.9c2-1.1,2.1-2.9,2.2-4.8c0.1-2.3,0.1-4.6,0.1-6.9c0-1,0.1-2,0.5-2.9
		c0.6-1.4,1.6-1.6,2.6-0.4C309.9,305.2,310.2,306.6,310.4,308z M332.5,122.2c0,0.7-0.6,1.1-1,1.6c-3.2,3.7-6.5,7.4-9.4,11.3
		c-5.1,7.1-9.3,14.6-12.3,22.8c-1.8,4.8-3.4,9.7-4.1,14.9c-0.2,1.6-0.4,3.3-0.6,4.9c-0.2,2.5-0.8,5-0.6,7.6c0.1,1.3-0.6,2.2-1.2,3.1
		c-3.3,4.5-5.6,9.6-7.4,14.9c-1.3,3.8-1.9,7.7-2.3,11.7c-0.3,3.1-0.3,6.2-0.4,9.6c-2.5-3.6-3.9-7.3-4.7-11.3
		c-1.7-7.8-2.1-15.8-1.6-23.7c0.5-6.6,1.7-13.1,4-19.4c0.4-1.2,0.2-1.4-1-1.5c-0.2,0-0.5,0-0.7,0c-3.6,0.6-4.8-3.1-3.3-5.9
		c1.3-2.4,2.9-4.6,4.8-6.5c3.4-3.5,6.8-6.9,10.3-10.3c1.7-1.7,3.7-3,5.6-4.3c1.4-0.9,2.9-1.9,4.8-1.2c0.9,0.3,1.4-0.3,1.8-0.9
		c0.7-1.1,1.4-2.3,2.3-3.2c5-5,9.8-10.1,15.2-14.7c0.2-0.2,0.5-0.4,0.8-0.6s0.6-0.2,0.9,0C332.5,121.5,332.5,121.8,332.5,122.2z
		 M330,100.1c-2.1-0.2-4.2,0-6.3,0.3c-5.2,0.8-10.2,2.3-15.2,3.7c-5.5,1.5-10.7,3.6-15.9,5.9c-4.4,1.9-8.2,4.8-12,7.6
		c-4.9,3.5-9.3,7.5-13.4,11.9c-1,1.1-1.9,2.3-2.9,3.3c-0.5,0.5-1,1.3-1.8,0.6c-0.7-0.6-1-1.3-0.5-2.2c1-2.1,2.2-4,3.6-5.9
		c4.1-5.6,8.7-10.8,12.6-16.6c4.4-6.7,10.2-12.2,15.8-17.8c2.5-2.5,5.6-4.3,8.8-5.7c4.3-1.8,10.9-0.3,13.7,3.8
		c0.1,0.2,0.3,0.4,0.4,0.6c0.2-0.1,0.3-0.1,0.5-0.2c-0.5-3-1-6.1-1.9-9c-0.4-1.1-0.6-2.2-0.5-3.4c0.1-2.3,1.1-3.9,3.1-4.5
		c1.7-0.5,3.9,0.5,4.9,2.3c1.4,2.4,2.5,5,3.3,7.7c0.5,1.8,1,3.6,1.7,5.4c0.7,1.9,1.7,3.6,3.5,4.9c2.4,1.8,4.1,4.3,4.9,7.7
		C333.9,100.1,331.9,100.3,330,100.1z M403.2,262.3c-2.1,3.9-4.4,7.6-7.3,11c-3.8,4.5-7.7,9-11.8,13.2c-0.3,0.3-0.7,0.7-0.9,1.2
		c-2.9,6-6.5,11.8-8,18.4c-1,4.2-1.8,8.5-2.8,12.7c-0.6,3-1.8,5.8-3,8.6c-0.2,0.5-0.5,1-1.3,1.2c-1.1-4.4-2.5-8.7-4.4-13.1
		c-1.1,1.2-0.6,2.3-0.8,3.3c-0.2,1-0.4,1.9-0.4,2.9c0,3.2,0,6.4,0,9.6c0,1.7-0.2,3.4-1.1,4.9c-0.4,0.7-0.3,1.4-0.4,2.1
		c-0.1,1.9-0.7,3.6-1.9,5c-2.8,3-4.1,6.7-5.4,10.4c-0.7,2.1-1.3,4.2-2.5,6.1c-1.8,2.5-3.9,3.5-6.4,2.7c-2.6-0.9-4.2-3.1-3.8-6.1
		c0.4-3.5,1-7,2.6-10.2c0.4-0.8,0.7-1.7,1.2-2.4c1.1-1.7,1.2-3.6,0.9-5.4c-0.6-3.1-0.5-6.2-0.7-9.3c-0.3-3.3,0.3-6.7,0.8-10
		c0.2-1.8,0.3-3.6,0.5-5.4c0.5-4.2,0.8-8.5,1.1-12.7c0.1-0.8,0.3-1.6,0.4-2.4c0.1-1,0.6-1.7,1.7-1.7c1.2,0,1.2-0.7,1.3-1.6
		c0.2-2.1-0.6-3.9-1.5-5.6c-1.1-1.9-2.5-3.6-4.1-5.2c-1.5-1.4-3-2.8-4.1-4.5c-0.9-1.5-1.6-3.1-1.5-4.8c0-0.6,0.1-1.2-0.1-1.7
		c-0.9-2.4,0.2-4.3,1.9-5.6c1.7-1.3,2.3-2.8,2.1-4.9c-0.1-1.4,0.2-2.8,0.9-4c0.8-1.6,0.3-2.7-0.6-4c-2.3-3.2-3.4-6.8-3.7-10.8
		c-0.1-0.8,0.1-1.6,0.5-2.4c1-1.9,1.8-2.1,3.7-1.2c1.1,0.5,2.1,1.2,3,2.1c1.8,2,4,3.6,6.4,4.9c3.1,1.6,5.7,3.8,7.7,6.7
		c3.2,4.6,7.5,7.5,13,8.5c7.1,1.4,14,0.6,20.5-2.8c1.8-1,3.9-1.3,5.9-1.4C403.1,258.3,404.3,260.2,403.2,262.3z M427.4,220.9
		c-0.1,0.7-0.3,1.4-0.5,2.1c-3.2,12.7-11.2,21.3-23.5,26.3c-4.5,1.8-9.1,2.7-13.8,3.2c-3.9,0.4-7.7-0.1-11.4-1.1
		c-1.6-0.5-3-1.3-4-2.7c-1.8-2.2-3.4-4.6-4.5-7.3c-0.2-0.4-0.3-0.8-0.4-1.1c-0.1-0.5-0.1-1,0.4-1.2s0.8,0.1,1.1,0.4
		c0.7,0.9,1.3,1.9,2.1,2.8c0.4,0.5,0.7,1.2,1.5,0.5c0.3-0.3,0.6-0.1,0.9,0.1c0.4,0.2,0.7,0.4,1.1,0.6c1.6,0.8,2.9,2.2,4.8,2.3
		c3.6,0.2,7.3,0.7,11-0.4c-0.7-0.6-1.5-0.5-2.2-0.6c-14.6-1.4-25.7-12.5-28.3-26.4c-0.3-1.7-0.1-3.3,0.6-4.8c0.2-0.5,0.6-1.2,1.2-1
		c1.2,0.4,1.6-0.4,2.1-1.1c0.8-1.1,1.3-2.2,1.7-3.5c4.7-14,20.2-21.5,34-16.4c2.8,1,5.4,2.4,7.9,4c2.4,1.6,4.8,3.2,7.2,4.8
		c3,2,5.2,4.8,5.7,8.5c0.1,0.9,0.6,1.5,1.2,2.1c0.5,0.5,1,1.1,1.4,1.6c0.6,0.8,1.3,1.5,1.8,2.4C427.4,216.8,427.8,218.8,427.4,220.9
		z M364.1,189.2c0.3-0.6,0.7-1.1,1.1-1.6c4.4-5.8,10.1-9.8,16.8-12.4c6.7-2.7,13.1-1.3,19.1,2.3c6.2,3.8,11.3,8.9,15.5,14.9
		c1.1,1.6,1.5,3.4,1,5.4c-1-2.1-2-4-3.4-5.9c-1.9-2.6-4.3-4.5-7.1-6c-1.7-0.9-3.4-1.6-5.1-2.4c-5.9-2.6-12-2.4-18.1-0.8
		c-3,0.8-6,1.8-8.9,2.7c-3.3,1.1-6.2,2.9-8.8,5.3c-0.6,0.6-1.2,1.3-2.1,0.5C363.4,190.7,363.7,189.9,364.1,189.2z M449.9,192.9
		c-0.9,3.1-1.3,6.4-3,9.3c-1.6,2.5-3.9,3.8-6.4,2.9c-4.1-1.5-7.6-3.6-9-8.2c-1-3.4-1.6-6.8-2.2-10.3c-0.5-2.3-1-4.6-1.6-6.9
		c-0.6-1.9-1.4-3.7-0.4-5.9c-0.7,0.2-0.9,0.2-1,0.3c-3.1,1.9-4.5,1.7-7.2-0.8c-3.2-3-6.5-5.8-10.5-7.6c-3.7-1.7-7.5-2.8-11.6-2.8
		c-5.7,0-11.3,0-16.8,1.7c-1.3,0.4-2.6,0.8-3.8,1.7c-1.1,0.8-2.3,1.6-3.8,1.6c-0.9,0-1.5,0.6-2,1.3c-0.8,1.1-1.5,2.1-2.4,3.1
		s-2,1.9-3.5,2c-0.4,0-1,0-1.2,0.2c-1.5,2.3-1.8,0.7-2.2-0.6c-0.1-0.2-0.3-0.4-0.5-0.6c-2.8-2.7-2.7-5.8-1.4-9.1
		c1.1-2.7,2.5-5.1,4.7-7.1c3.3-3,5.9-6.5,8.6-10.1c0.4-0.6,0.7-1,0.4-1.8c-1.1-2.7,0-5.1,1.6-7.1c4.3-5.1,9.8-8.1,16.6-8.3
		c1.7-0.1,3.4,0.1,5.2,0c2.2,0,2.4-0.3,3.1-2.3s1.5-4,2.2-6c1.2-3.7,0.7-7.4-0.7-10.8c-0.4-0.2-0.5-0.2-0.6,0
		c-0.6,3-1.9,3.7-4.7,2.3c-2.2-1.2-4.4-2.5-6.6-3.9c-5.6-3.5-11.5-4-17.6-1.4c-1.8,0.8-3.7,1.4-5.7,0.5c-1.9-0.8-2.8-2.2-3.1-4.1
		c-0.2-1.7-0.1-3.4,0.6-5.1c2.1-4.7,4.5-9.1,8.9-12.1c0.9-0.6,1.5-1.5,2.3-2.2c5.5-5.6,12.1-9.5,19.2-12.6c1.6-0.7,3.1-1.5,4.7-2
		c3.1-1,6.2-1.6,9.3,0c1,0.5,1.2,1.1,0.8,2.1c-2.2,5.9-1.6,11.9,0.2,17.8c1,3.1,2,6.2,3.8,9c2,3.1,4.9,5.3,7.7,7.5
		c2.3,1.9,2.5,2.1,1.5,5c-1,2.7-2,5.4-3.2,8c-4.3,9.3-0.2,21.5,7.5,26.8c0.5,0.4,1,0.9,1.5,1.3c0.6,0.6,0.7,1.2,0.4,2
		c-0.4,1.2-0.8,2.3-1,3.5c-1.1,5.3,2,10.7,6.7,11.9c1.9,0.5,3.9,0.5,5.8,0c5.4-1.4,11.5,5.1,10.2,9.9c-0.5,1.6-0.3,3.2,0.1,4.9
		C451.2,184.2,451.1,188.5,449.9,192.9z"/>
	<path class="st5" d="M669.8,382.5c-2.5,2.3-4,4.9-5.3,7.7c-0.5,1.1-0.8,2.1-0.5,3.3c0.2,1.3,0.1,2.5-0.8,3.5
		c-2.3,2.7-4.8,5.1-8.4,6.1c-3.8,1.1-7.4,0.9-11.1-0.6c-4.4-1.8-8.7-2-12.9,0.8c-0.8,0.6-1.7,1.2-2.5,1.7c0.4,0.5,0.8,1,1.3,1.5
		c2.4,2.3,5.4,3.7,8.6,4.6c1.2,0.3,2.3,0.5,3.7,0.8c-1.1,2.3-2.5,4.3-3,6.6c-0.7,3.3-2.3,6.1-4.3,8.7c1.9-1.6,3.8-3.3,5.6-5
		c1.5-1.5,2.6-1.8,3.7-1.1c1.1,0.8,1.2,2,0.2,4c-0.8,1.7-1.9,3.2-3.1,4.7c-3.3,4.3-7,8.3-10.9,12.1c-5.5,5.4-11.9,9.5-18,14
		c-1.1,0.8-2.5,1.3-3.7,1.9c-2.3,1.2-4.6,2.5-7,3.6c-1.6,0.8-2.3,1.8-2.2,3.7c0.3,3.6,0.2,7.2,1.3,10.7c0.4,1.2,0.6,2.4,0.6,3.6
		c0,3.3,1.2,6.2,2.1,9.9c0.5-1.9,0.9-3.2,1.3-4.5c0.5-1.6,1.1-3.3,2.2-4.6c1.1-1.4,2.6-2,4.4-1.7c1.8,0.3,2.9,1.5,3.3,3.3
		c0.2,0.8,0.3,1.6,0.4,2.4c0.1,1.6,0,3.1-0.2,4.7c-1.5,10.4-2.7,20.8-3.8,31.3c-0.3,2.5,0.3,4.9,1,7.4c0.7-0.3,0.6-0.7,0.7-1.1
		c1.1-4,2.4-8,3.8-11.9c2.8-7.3,4.4-14.9,5.5-22.7c0.6-4,1.3-7.9,1.6-12c0.1-1,0.3-2,1.5-2.2c0.3,0,0.5,0,0.7,0
		c-0.1-0.6-0.3-1.3-0.5-1.9c-0.5-1.8-1-3.7-1.2-5.5c-0.4-3.6,0.8-6.6,4-8.7c1.6-1,3.4-1.6,5.2-2.2c3.5-1.2,7-2.3,10.5-3.5
		c3.8-1.3,7.2-3.3,9.6-6.5c0.2-0.2,0.4-0.3,0.7-0.2c0.7,1.4,1.4,2.9,2.5,4.1c0,0,0,0,0.1,0.1c1.5-4.7,3.2-9.2,5.2-13.7
		c4-8.9,6.7-18.1,9.1-27.5c1.5-5.8,2-11.6,1.2-17.6C671.3,390.6,670.8,386.8,669.8,382.5z"/>
</g>
</svg>
