<?xml version="1.0" encoding="utf-8"?>
<!-- Generator: Adobe Illustrator 24.0.1, SVG Export Plug-In . SVG Version: 6.00 Build 0)  -->
<svg version="1.1" id="Layer_1" xmlns="http://www.w3.org/2000/svg" xmlns:xlink="http://www.w3.org/1999/xlink" x="0px" y="0px"
	 viewBox="0 0 990 781.2" style="enable-background:new 0 0 990 781.2;" xml:space="preserve">
<style type="text/css">
	.st0{fill:#E3706A;}
	.st1{fill:#875218;}
	.st2{fill:#B06B1F;}
	.st3{fill:#3D3C3C;}
	.st4{fill:#ACACAB;}
	.st5{fill:#FFFFFF;}
</style>
<g>
	<path d="M204.3,722.2c-0.7,0.5-0.7,1-0.7,1.3c-0.4,4-2.2,7.4-4.7,10.6c-1.3,1.6-3,1.8-4.8,1.3c-4.9-1.3-9.2-3.6-12.7-7.4
		c-3.6-4-7.2-7.9-10-12.6c-0.8-1.3-1.9-2.4-3.2-3.1c-6.8-3.8-11.4-9.7-15.3-16.2c-0.8-1.3-1.3-2.7-1.8-4.2
		c-5.5-15.1-3.8-29.9,1.8-44.5c1.2-3.2,3.2-6,5.6-8.6c2-2.3,4.2-4.4,6.6-6.3c5-4,10-8,15.1-11.8c12-9,25.5-14,40.4-15.8
		c8.5-1,16.9-0.6,25.4,0.3c2,0.2,2,0.3,2.6-1.7c1.5-5,3-10,4.4-14.9c1.9-6.3,4.4-12.3,7.7-18c0.6-1.1,1.3-2.2,1.9-3.4
		c5.5-11.2,13-20.9,21.7-29.7c11.1-11.4,22.9-22.1,35.3-32.1c10.2-8.2,17.6-18.5,21.6-31.1c2-6.1,4-12.1,6-18.2
		c1.9-5.9,3.7-11.9,5.7-17.8c1-2.9,1.3-5.7,1.1-8.7c-0.7-8-1.8-15.9-3.1-23.8c-1.4-8.2-3.4-16.3-4.2-24.6c-1-10.1-1.4-20.2-1.1-30.4
		c0.2-8.9,1.6-17.7,2.4-26.5c0.1-1.2-0.1-2.2-0.4-3.3c-1.8-5.4-4.7-9.9-8.8-13.8c-8.6-8.2-16.1-17.4-21.9-27.7
		c-6.6-11.6-10.5-24.2-12-37.4c-0.7-5.4,0.2-10.9,1.1-16.2c0.4-2.3,0.9-4.5,1.3-6.8c0.1-0.6,0.3-1.3,0.3-1.9
		c0.2-2.2-0.2-2.7-2.3-3.1c-6.4-1.3-12.4-3.6-18.5-5.8c-5.2-1.8-9.6-5-13.6-8.7c-2.4-2.2-5.1-3.7-8.2-4.9c-1.7-0.6-3.1-0.4-4.4,0.9
		c-3.9,3.8-8.3,6.8-13.2,9c-1.2,0.6-2.3,1.5-3.3,2.4c-7.7,7-16.5,12.4-25.6,17.3c-5.4,2.9-11.4,4.1-17.3,5.4
		c-2.6,0.6-5.3,0.1-7.7-1.1c-2-1-3-2.5-3-4.8c0-1.9,0.3-3.8,0.8-5.7c4.3-15.8,4.8-31.9,3.8-48.1c-0.7-11.4-2.1-22.8-2.3-34.2
		c0-1.8,0-3.7,0-5.5c-0.1-2.4,0.8-4.4,2.4-6.1c4.5-4.4,8.8-9.1,14.4-12.3c1.1-0.6,2.1-1.4,3.1-2.3c4.3-3.8,9.2-6.7,14.5-8.8
		c5-2,9.6-4.7,13.8-8.1c5-4,9.7-8.3,14.1-13c6.6-7.1,13.5-13.9,19.8-21.2c2.1-2.5,4.7-4.5,7.2-6.7c4.7-4,10.1-6.4,16.3-7.1
		c8.7-0.9,17.2-0.5,25.4,3.1c5.9,2.6,11.8,4.9,17.7,7.3c7.6,3,15.3,5.5,23.4,6.8c3.7,0.6,7.2,2,10.6,3.7c1.2,0.6,2.2,1.3,3.1,2.3
		c2.1,2.5,4.3,4.7,6.6,6.9c2.9,2.8,5.3,6,7.9,9c1.4,1.6,1.8,1.7,3.6,0.6c4.5-2.8,9.4-4.9,14.4-6.5c4.7-1.5,9.3-3.3,14.2-4.2
		c1.4-0.3,2.9-0.4,4.3-0.4c9.7,0,19.4,0,28.9,1.7c1.2,0.2,2.4,0,3.5-0.4c1-0.3,1.9-0.8,2.8-1.4c7.6-5.3,15.5-4.7,23.5-1.1
		c2.3,2.3,4.9,1.7,7.6,1.1c4.3-0.9,8.7-1,13.1,0c1.8,0.4,3.5,0.2,5.2-0.1c5.9-0.8,11.8-0.7,17.7,0.4c3.8,0.7,7.8,1,11.6,1.7
		c4.3,0.7,8.6,1.8,12.8,3c1.7,0.5,3.2,0.4,4.8-0.6c1.9-1.2,4-1.9,6.1-2.9c3.4-1.5,6.3-3.7,9.3-5.8c8-5.5,15.4-11.7,23.8-16.6
		c6.4-3.6,13.2-6,20.5-7.2c3.1-0.5,6.2,0.2,9.3,0.3c2.7,0.2,5.4,0.5,8.1,0.9c3.6,0.5,7,1.6,10.2,3.2c10.3,5.2,20.1,11.3,28.9,18.8
		c1.8,1.6,3.8,2.9,5.7,4.4c4.5,3.5,9.4,6,14.8,7.6c3.8,1.1,7.6,2.5,11.4,3.8c2.2,0.7,4.3,1.7,6.3,3c2.6,1.6,5.3,3,8.1,4.1
		c5.3,2.1,9.4,5.6,12.8,10.2c6,8.1,11.6,16.4,17.3,24.8c4.8,7.1,9.7,14.1,14.8,21c6.2,8.3,13.3,15.5,22.4,20.7
		c2,1.2,3.9,2.6,5.5,4.3c3,3.1,4.4,6.8,3.6,11.2c-1,5.4-3,10.4-5.3,15.4c-1.2,2.5-3.8,3.7-6.9,3.2c-4.5-0.7-9-1.7-13.4-2.4
		c-6.9-1.2-13.8-1.9-20.8-1.4c-7.2,0.5-14.4-0.2-21.5-1c-4.4-0.5-8.7-1.1-13-2.3c-9-2.6-16.9-7.2-23.4-13.9c-1.5-1.6-3.2-2.6-5.3-3
		c-1.7-0.4-3.4-0.9-5-1.6c-2-0.9-4.1-0.7-6.1-0.4c-1.4,0.2-2.1,1.2-2.2,3c-0.1,2.1-0.3,4.1-0.7,6.2c-1.2,5.5-4.2,9.8-9.2,12.5
		c-1.5,0.8-3.1,1.7-4.7,2.4c-4.8,2-6.7,5.9-7.2,10.8c-0.3,3.2,0,6.4,0.6,9.6c2.2,12.3,2.7,24.6,1.2,37c-1.4,11-5.3,21.2-11.7,30.3
		c-2.1,2.9-4.2,5.9-6.3,8.8c-2,2.8-4,5.6-5.5,8.7c-0.9,1.7-1.9,3.3-3.1,4.8c-1.3,1.7-2,3.6-2.1,5.8c-0.1,2.4-0.4,4.8-1.1,7.1
		c-0.5,1.9-0.6,3.8-0.3,5.7c1.1,8.6,1.4,17.2,2.3,25.8c0.3,2.7,0.7,5.4,1,8.1c0.8,8.5-0.1,16.9-1.5,25.3c-1.1,6.4-1.6,12.8-1.8,19.3
		c-0.2,7.1-0.3,14.2-0.3,21.3c0,3.9,0.4,7.7,1.6,11.3c0.7,2.1,0.9,4.4,1.3,6.6c1.2,7.1,3.9,13.7,7.3,19.9c2.2,4.2,4.6,8.2,6.6,12.5
		c2.2,4.5,4.1,9,5.7,13.7c5.4,16,12.1,31.5,17.8,47.3c1.4,3.8,3,7.6,4.9,11.2c2.3,4.5,4.6,8.9,6.9,13.4c1.9,3.7,4.1,7.3,6.7,10.5
		c8.4,10.5,15.4,22,22,33.7c0.2,0.3,0.4,0.7,0.6,1c0.9,1.6,0.9,1.6,2.6,1.1c7.2-2.4,14.6-4,22.2-5.2c18-2.8,35.6-1.6,52.8,5.3
		c11.5,4.6,21.5,11.5,31.5,18.6c0.5,0.4,0.9,0.9,1.3,1.4c5.2,6.5,10,13.3,14,20.6c1,1.9,1.9,3.9,2.8,5.8c2,4.3,2.3,8.8,1.7,13.4
		c-1.2,8-3.5,15.7-6.4,23.3c-1,2.6-2.7,4.9-4.4,7.1c-3.1,4.1-6.4,8-11,10.5c-2,1.1-3.6,2.6-4.8,4.6c-2.7,4.6-6.3,8.4-9.9,12.3
		c-3.3,3.6-7.6,5.6-12.2,6.8c-2.4,0.6-3.6-0.1-5.2-2c-2.8-3.2-3.9-7.1-4.5-11.2c-1.2,0.2-1.7,1.1-2.4,1.7c-2,1.9-3.9,4-6.2,5.6
		c-4.3,3-7.9,2-10-2.8c-1.5-3.4-2.4-7-2-10.7c0.3-2.4-0.7-3.8-2.7-4.8c-1.2-0.6-2.4-1.3-3.6-1.9c-3.4-1.5-5.7-4-6.8-7.6
		c-0.7-2.3-1.4-2.4-3.1-0.6c-1.6,1.7-2.4,3.7-3.1,5.9c-1.7,5.1-4.5,9.5-8.8,12.9c-3.6,2.7-7.6,2-10.1-1.8c-1.7-2.7-2.6-5.7-2.9-8.8
		c-0.2-2.1-1.1-3.6-3-4.5c-4.8-2.4-8.3-6.4-12-10.2c-0.6-0.6-1.2-1.4-1.5-2.2c-0.5-1.5-1.5-2.1-3.1-1.9c-0.7,0.1-1.4,0-2.2,0
		c-135.6,0-271.3,0-406.9,0c-0.4,0-0.8,0-1.2,0c-2.1-0.3-3.7,0.1-4.7,2.5c-0.9,2.1-3,3.5-4.6,5.1c-2.4,2.3-4.8,4.8-7.9,6.2
		c-2.3,1.1-3.5,2.8-3.7,5.4c-0.2,2.9-1.1,5.6-2.7,8.1c-0.7,1.2-1.6,2.2-2.9,2.8c-2.3,1.2-4.5,1.3-6.8-0.4c-4.5-3.3-7.5-7.8-9.3-13.1
		c-0.7-2.1-1.4-4.1-2.9-5.7c-0.4-0.5-0.9-0.9-1.4-1.3c-0.8-0.6-1.5-0.5-1.8,0.6c-0.1,0.5-0.4,1-0.6,1.6c-1,3-3,5.1-5.7,6.5
		c-1.6,0.8-3.3,1.6-4.9,2.6c-1.6,1-2.3,2.2-2.2,4.1c0.3,3.6-0.5,7.2-1.8,10.5c-0.4,1-0.9,2.1-1.6,2.9c-2,2.4-4.8,2.9-7.5,1.3
		c-2-1.2-3.7-2.8-5.4-4.4C206.9,724.7,205.6,723.4,204.3,722.2z"/>
</g>
<g>
	<path class="st0" d="M342.1,140.4c-1.2-1.4-2.4-2.8-3.1-4.6c-0.3-0.8-0.8-0.9-1.6-0.6c-4.4,1.6-8.6,0.6-12.7-1.3
		c-2.7-1.3-5.2-2.8-7.8-4.2c-2.4-1.3-4.9-2.2-7.5-2.9c-1.2-0.3-1.7,0-1.9,1.2c-0.6,3.5-2.4,6.2-5.3,8.3c-0.8,0.6-1,1.2-0.5,2.1
		c0.6,1.1,1.1,2.3,1.4,3.5c1.7,5.4-0.7,9.9-6.2,11.6c-2.8,0.8-5.7,0.7-8.5-0.1c-1.7-0.5-3.4-1-5-1.6c-0.9-0.3-1.6-0.2-2.1,0.7
		c-1,1.6-2.2,3.2-3.6,4.5c-0.5,0.4-0.6,1-0.7,1.6c-0.4,3.2-0.4,3.2-3.5,3.8c1.6,2.7,3.9,4.6,6.5,6.2c4,2.6,8.1,5,12.7,6.5
		c5.1,1.6,10.1,1.5,15.2,0.5c1.8-0.3,3.1-1.5,4.4-2.8c1.9-1.8,3.9-3.4,5.9-5.1c4.3-3.7,9.4-5.2,15-4.7c2.4,0.2,3.8-0.6,4.7-2.8
		c1.1-2.5,2.4-4.8,3.6-7.2c1.4-2.9,1.9-6.1,1.8-9.3C343.2,142.4,342.9,141.3,342.1,140.4z"/>
	<path class="st0" d="M299.7,113.5c4.9-2.2,10-1.9,15.1-0.7c4.3,1,8.2,2.9,11.8,5.5c2.2,1.6,4.3,3.2,6.6,4.6
		c2.6,1.7,5.7,0.9,7.4-1.7c0.2-0.3,0.3-0.7,0.5-0.8c2.3-0.9,1.7-2.8,1.3-4.4c-1.1-4.2-3.4-7.8-5.7-11.5c-0.5-0.8-1.4-1.1-2.3-1.5
		c-6.3-2.6-12.9-3.8-19.5-4.6c-1.5-0.2-3-0.3-4.5-0.4c-5.9-0.7-11.1,1-15.5,5c-2.3,2.1-4.7,4.1-7,6.2c-0.6,0.5-1.4,1-1.4,2.2
		c3.8,0.1,7.4,1.1,11,2.3C298.2,114,298.9,113.9,299.7,113.5z"/>
	<path class="st0" d="M680.9,153.9c-2.2,1.3-4.6,2-7.2,1.9c-4-0.2-7-2.1-8.4-5.8c-0.8-2.2-1-2.2-3.4-1.9c-2.3,0.3-4.7,0.6-7,1
		c-6,0.9-9.9-3-11.8-7.4c-1.2-2.7-0.8-5.5,1.1-7.8c1.9-2.4,4.5-3,7.5-2.5c1.6,0.3,3,1,4.6,1.7c0.4-0.8-0.3-1.3-0.5-1.8
		c-0.7-1.4-1.5-2.9-1.8-4.4c-0.2-1.1-0.9-1.7-1.9-2.1c-2.1-0.8-4.3-1.4-6.6-1.7c-2.6-0.3-4.6,0.6-6.2,2.6c-0.4,0.5-0.7,0.9-1.1,1.4
		c-0.9,0.9-2,1.3-3.2,0.8c-1.2-0.6-1.7-1.7-1.5-2.9c0.4-2.8,1.1-5.4,2.9-7.7c4.6-5.5,12.1-7.4,18.7-4.5c1.5,0.7,3.1,1.4,4.4,2.5
		c2,1.6,4,0.4,6,0.4c0.2,0,0.3-0.1,0.4-0.3c0-0.1,0-0.2,0-0.2c0-0.2,0-0.3-0.1-0.5c-0.2-0.9-0.7-1.7-1.3-2.4
		c-2.6-2.9-5.4-5.5-8.7-7.6c-2.8-1.7-5.6-3.4-8.3-5.3c-1.1-0.7-2.2-1.1-3.5-1c-2.3,0.3-4.6,0.5-6.8,1.6c-1.4,0.7-3,1-4.6,1.4
		c-2,0.5-3.9,1-5.8,1.8c-0.6,0.2-1.1,0.5-1.6,0.8c-4.7,2.5-7.7,6.4-8.7,11.9c-0.1,0.7-0.2,1.5-0.4,2.2c-0.2,1.2-0.5,2.3-1,3.3
		c-1.5,3.5-4.1,6-8.1,7.4c-4.8,1.7-5.9,7.5-2,10.9c1.7,1.5,3.5,2.5,5.7,3.1c3.7,1,7.3,2.6,10.8,4.2c4,1.9,7.1,4.8,9.1,8.7
		c0.8,1.6,1.7,3.1,2.5,4.7c1.6,3.1,3.9,5.6,7.1,7.3c1.5,0.8,3,1.6,4.3,2.6c2.5,1.9,5.4,2.6,8.4,3.3c1.1,0.3,1.9,0,2.7-0.8
		c6.4-6.4,14.4-9.8,22.8-12.3c1.3-0.4,2.7-0.5,4-0.2c1.1,0.2,1.4-0.3,1.5-1.1c0.4-2.3,0.6-4.6,0.7-7.5
		C683,152.7,682,153.3,680.9,153.9z"/>
</g>
<g>
	<path class="st1" d="M614,355.4c-2.3,3.1-3.8,6.4-4,10.4c-0.4,10.4-2,20.6-4.8,30.6c-0.5,1.6-0.9,3.3-1.7,4.7
		c-3,6.1-5.8,12.3-9.9,17.8c-0.3,0.3-0.5,0.7-0.7,1.1c1,1.2,1.6,2.6,2.1,4.2c0.5,1.5,1,3,1.7,4.5c2.1,4.9,5.1,9.2,8.6,13.2
		c0.1-0.2,0.1-0.3,0.2-0.5c2-4.4,2.8-9.2,2.8-14c0.1-6.4,0.9-12.7,2.9-18.9c1.1-3.4,1.4-6.9,1.6-10.4c0.3-9.3,1.7-18.6,2.2-27.9
		c0.2-3.9,0.3-7.9,0.4-11.8c0-1.2,0.1-2.4-0.3-3.5C614.5,354.5,614.3,355,614,355.4z"/>
	<path class="st1" d="M674,583.2c-3.3-4.4-6.1-9.3-8.7-14.2c-7.9-15.1-13.1-31.3-18.2-47.5c-0.6-1.9-1.2-3.9-1.8-5.8
		c-0.4,5.6-1,11.2-1.5,16.9c-0.6,7.7-0.4,15.3,1.8,22.7c3.5,11.5,7.2,23,12,34c6.6,14.9,11.3,30.3,13.3,46.4
		c0.2-0.2,0.4-0.4,0.6-0.6c1-1.1,2.1-2,3.1-3.1l0.4-0.4l0.4-0.4l0.8-0.7c0.5-0.5,1.1-1,1.6-1.5l1.7-1.4l0.8-0.7
		c0.3-0.2,0.6-0.4,0.9-0.7l1.7-1.3l0.4-0.3l0.4-0.3l0.9-0.6l1.8-1.3l1.8-1.2c2.5-1.6,5.1-3.1,7.7-4.4c-4.8-9.3-10.5-18.1-16.8-26.5
		C677.5,588,675.8,585.6,674,583.2z"/>
	<path class="st1" d="M375.6,391.3c-2.5-4.3-4.2-8.9-5-13.9c-0.5-3-0.3-6,0-9c0.1-0.8,0.2-1.5-0.3-2.2c-3.1-4.4-6.3-8.7-9.7-13.5
		c-1.6,3.7-4.2,6.6-3.5,10.8c1.5,8.9,2.4,17.8,4.3,26.6c1.3,5.9,3.1,11.7,4,17.7c1,6.8,2.2,13.6,3.1,20.4c1.2,9.2,0.3,18.3-1.9,27.3
		c-2.1,8.4-4.9,16.6-7.9,24.7c-3.1,8.3-5.4,16.9-7.2,25.5c2.4-4.5,5.3-8.7,8.5-12.7c8.4-10.4,15.4-21.8,21.3-33.9
		c1.8-3.7,3.6-7.4,5-11.3c3-8.7,4.1-17.6,4.2-26.8c0-1.2,0.2-2,0.6-2.5c-1-3.2-2.5-6.3-4.4-9.2C382.6,403.6,379.2,397.4,375.6,391.3
		z"/>
	<path class="st1" d="M783.9,177.4c-2-1.3-4.1-2.6-6.2-3.9c-9.5-5.8-17.9-12.8-25.2-21.2c-9.2-10.5-17.4-21.6-24-33.9
		c-3.4-6.4-8.1-11.9-12.5-17.7c-0.7-1-1.7-1.6-2.8-2.1c-2.2-1-4.5-1.9-6.9-2.5c-8.1-2.1-15.6-5.6-23-9.5c-1.7-0.9-3.5-1.7-5.4-2.1
		c-2.9-0.6-5.7-1.4-8.6-2.1c-8.6-1.8-16.4-5.6-23.5-10.7c-3.7-2.6-7.3-5.4-10.7-8.4c-1.8-1.7-3.9-2.9-6-4.1c-3.1-1.8-6.4-2.1-9.7-1
		c-4.3,1.4-8.3,3.3-11.9,5.9c-6.8,5-13.8,9.5-21.1,13.8c-1.3,0.8-2.5,1.6-3.7,2.6c-2.1,1.7-4.3,3.2-6.9,4.2c-2,0.8-3.1,2.2-3.5,4.2
		c-0.5,2.5-1.6,4.8-3.1,6.9c-0.5,0.7-1,1.4-1.6,2c-1.6,1.7-3.5,2.8-5.8,2.1c-2.5-0.8-4-2.6-4.7-5.2c-0.1-0.4-0.1-0.8-0.1-1.3
		c0.1-0.8-0.3-1.2-1.1-1.4c-2.7-0.8-5.3-1.7-8.3-1.5c-6.3,0.3-12.5-1-18.7-2.1c-5.9-1.1-11.7-2.4-17.5-3.7c-2.7-0.6-5.4-1.1-8.2-1.2
		c-3.2-0.1-6.4,0-9.2,1.9c-0.5,0.3-1.2,0.5-1.7,0.3c-1.6-0.7-3.3-0.6-4.9-1c-1.3-0.3-2.2-1.1-3.1-2c-2.9-3-8.3-3.2-11.4-0.6
		c-2.5,2.1-5.6,2.8-8.6,3.4c-5.1,1.1-10.3,1.7-15.4,2.7c-8,1.5-16,2.1-24.1,2.3c-7.1,0.1-14.3,0.7-21.2,2.9
		c-0.8,0.2-1.6,0.5-2.4,0.8c-0.9,0.3-1.5,0.8-1.5,1.8c0,0.2-0.1,0.3-0.1,0.5c-0.5,2.2-1.6,3.9-4,4.3c-2.4,0.4-4.1-0.9-5.2-2.8
		c-3.2-5.9-7.6-10.9-12-15.9c-3.9-4.4-8.8-7.5-15.1-7.5c-2.1,0-4.2-0.3-6.2-0.8c-8.4-2-16.8-4.2-24.8-7.5c-4.1-1.7-8.3-3.2-12.5-4.8
		c-6.5-2.6-13.3-3-20.1-2.7c-5.1,0.3-9.6,2.4-13.2,6c-3.3,3.3-6.5,6.8-9,10.8c-3.2,5-6.8,9.5-11.4,13.3c-2.8,2.3-5.3,5.1-7.9,7.7
		c-5.3,5.3-10.9,10.2-17.7,13.7c-1.6,0.8-3.1,1.7-4.8,2.2c-2.8,0.9-5.1,2.5-7.5,4c-9.2,5.9-16.4,13.9-22.9,22.5
		c-1.2,1.6-1.9,3.3-1.8,5.3c0,2.4,0.1,4.7,0.1,7.1c0.3,11.3,1.8,22.5,2.3,33.7c0.4,8.6,0.2,17.1-0.8,25.7c0,0.3,0,0.6,0.1,1.3
		c2.9-1.1,5.4-2.3,7.6-3.9c6-4.4,12.4-8,19.2-11c3.1-1.3,6-3.1,8.9-4.7c0.7-0.4,1.3-0.8,1.8-1.3c5-5.1,9.7-10.5,13.4-16.7
		c1.5-2.5,2.4-5.2,2.5-8.1c0.4-6.6,0.9-13.3,1.4-19.9c0.3-3.4,0.7-6.8,0.6-10.3c-0.1-4.7,1.1-9.3,2.7-13.8c1.1-3.1,1.6-6.2,1.6-9.6
		c-0.1-5.6,2.5-10.2,7-13.6c1.9-1.4,3.9-2.7,5.8-4c3.7-2.5,7.8-3.9,12.1-4.9c15.5-3.7,30.9-3,45.9,2.5c5.5,2,10.5,4.9,15.1,8.5
		c1.6,1.3,3.3,2.5,5.1,3.7c1,0.6,2,1.2,3.3,0.4c0.9-0.6,1.8-0.4,2.5,0.4c0.8,0.8,0.9,1.8,0.5,2.8c-0.7,1.9-2.2,2.9-4.1,3.5
		c-0.9,0.3-1.8,0.3-2.7,0.4c-1,0-1.4,0.3-1.3,1.3c0.3,5.9-1.4,11.3-4.3,16.3c-0.9,1.5-0.8,2.8-0.1,4.3c1.5,3.2,3,6.4,3.4,10
		c0.9,7.7-1.2,14.6-6,20.7c-1.9,2.4-4.6,3.6-7.6,4c-2,0.3-4,0.6-6,0.8c-2.5,0.3-4.5,1.3-6,3.3c-1.3,1.8-2.7,3.6-4,5.5
		c-3.4,5.3-8.3,8-14.5,8.5c-6.4,0.6-12.7,0.1-18.9-2c-5.3-1.8-10.6-3.8-15.3-7c-0.3-0.2-0.6-0.4-0.9-0.5c-3.2-1.9-3.2-1.9-4.4,1.7
		c-0.3,1-0.7,1.9-1,2.8c-0.7,2,0.1,3.5,2.1,4c1.1,0.3,2.3,0.4,3.5,0.4c6.1,0.4,11.7,1.9,16.9,5.2c4.6,2.9,9.9,4.1,15,5.9
		c2.6,0.9,5.3,1.5,7.8,3c0.8,0.5,1.4,0.3,2.1-0.1c1.6-0.9,3.1-0.5,4.5,0.4c2.6,1.6,4.2,3.8,4.8,6.8c1,5.3,0.7,10.6-0.7,15.7
		c-0.6,2.3-1.4,4.5-2.2,6.7c-0.6,1.6-0.9,3.2-0.9,4.9c0,6.3,0.3,12.6,1.7,18.8c1.5,6.6,3.9,12.8,8.3,18.2
		c4.6,5.6,9.1,11.2,14.1,16.4c2.6,2.7,5.1,5.6,7.4,8.6c2.3,2.9,4.4,5.9,4.5,9.9c0.1,1.8,0.7,3.6,1.4,5.3c1.6,3.9,2.4,8.1,3.4,12.1
		c0.3,1.2,0.6,2.5,1.1,3.6c3.4,7.9,6.5,15.9,10.8,23.3c0.3,0.6,0.5,1.2,1.3,1.7c0.5-0.2,0.6-0.9,0.8-1.3c0.5-1.1,0.9-2.4,1.6-3.4
		c2.5-3.5,4.3-7.4,6.2-11.2c0.9-1.8,2-3.5,3.4-5c1.1-1.2,2.3-1.6,3.3-1c1.2,0.6,1.5,1.8,0.9,3.5c-1.7,5.1-2.6,10.4-2.7,15.8
		c0,1.8-0.4,3.5-0.7,5.2c-1.4,8-2,16-0.9,24.1c0.7,5,2.1,9.9,4,14.5c1.5,3.7,3.9,7,7.4,9.4c1,0.7,1.9,1.4,2.9,2.1
		c-1.6-6.8-2.1-13.7-1.3-20.8c-0.2-0.7-0.1-1.3,0-2c0.3-2.7,0.8-5.5,0.9-8.2c0.4-6.8,3-13,5.9-19c0.7-1.4,1.7-2.5,3.1-3
		c0.3-2,1-4.1,2.2-6c0.4-0.6,0.7-1.3,1-2c0.5-0.9,0.7-1.9,0.7-2.9c0-2.1,0-4.2,0-6.3c0-0.8-0.1-1.5-0.1-2.3c0-0.8-0.1-1.5-0.1-2.3
		c0-0.9-0.1-1.9,0-2.8c0.2-1.9,1.1-3.1,2.5-3.4c0.3-0.1,0.7-0.1,1,0c1.9-8.4,7.1-14.6,16-18.5c2.9-1.3,5.5-2.9,7.7-5.1
		c1.9-1.9,4-3.7,6.3-5c1.8-1,3-2.4,4.1-4c1-1.5,1.8-3,2.5-4.6c2.9-6.9,5.8-13.8,5.7-21.5c0-4.2,1.2-8.3,1.9-12.4
		c1.9-11.4,3.7-22.9,6.5-34.1c1.2-4.8,1.9-9.6,2-14.5c0.3-13.8,1.4-27.5,2.3-41.3c0.1-2,0.5-3.9,1.5-5.8c1.8-3.5,3.1-7.3,3.5-11.3
		c0.5-5.2,2.6-9.9,4.8-14.5c0.5-1,1-2.1,2.3-2.7c0.9,1.5,1.5,2.9,2,4.4c3,9.9,6,19.8,7.5,30c1.7,11.6,4.2,23,9.2,33.7
		c0.4,0.8,0.6,1.7,0.6,2.7c0.5,8.5,1,16.9,1.6,25.4c0.1,2,0.1,4.1,0.7,6c1.2,3.8,1.4,7.6,1.2,11.5c-0.4,7.7,0.1,15.5,0.6,23.2
		c0.3,5,1.4,9.8,2.8,14.6c0.4,1.6,1.1,3,2.5,3.9c2.6,1.8,5.3,3.5,8.6,4c2.6,0.4,5,1.3,7.4,2.5c1.1,0.5,2.3,1.1,3.5,1.5
		c7,2,11.5,6.9,15,13c1.7,3.1,3.5,6.1,4.9,9.3c3.7,4.3,6.8,8.9,9,14.2c1.5,3.7,1.5,7-1,10.2c-0.4,0.6-0.9,1.2-1,1.9
		c0.2,1.9,0.5,3.8,1,5.7c1.2,2,2.4,3.9,3.7,5.9c1.1,1.3,1.9,2.8,3,4.1c0.3,0.4,0.7,0.9,1.1,1.3c5.8,5.5,10.1,12.1,14.7,18.6
		c2.6,3.6,4.1,7.7,4.8,12.1c0,0.1,0,0.2,0,0.3c0.8-1.4,1.4-2.9,1.9-4.5c2.4-8.2,3.3-16.6,2.2-25.2c-0.6-4.3-1.3-8.6-2.6-12.8
		c-0.8-2.5-1.2-5-1.5-7.6c-0.5-4.1-1.7-8.1-3.2-11.9c-0.2-0.4-0.3-0.8-0.5-1.2c-0.9-2.1-0.7-3.3,0.5-4c1.2-0.7,2.4-0.4,4,1.3
		c2,2,3.5,4.3,4.9,6.7c1.4,2.4,2.9,4.7,4.7,6.8c1.6,1.8,2.5,3.9,3.7,6c0.9-0.2,1-1,1.3-1.5c1.5-2.9,3.1-5.8,5-8.4
		c5.6-7.5,8.3-16.1,9.7-25.2c0.4-2.4,0.8-4.8,1.3-7.2c0.6-2.9,1.8-5.7,3.9-7.8c6.8-6.7,10.5-15.1,12.8-24.2c1.4-5.5,3.2-11,3.7-16.7
		c0.8-9.3,0.1-18.5-3.6-27.2c-1.7-4.2-2.9-8.4-2.4-13c0.5-4,1.5-7.7,3.1-11.4c2.1-4.7,6.1-7.2,10.4-9.5c1.1-0.6,2.4-0.6,3.2,0.5
		c0.9,1.2,1.6,0.8,2.6,0.3c2-1.1,4-2.2,5.8-3.6c0.8-0.6,1.7-1.1,1.9-2.2c-0.4-0.3-0.8-0.1-1.2,0.1c-3.2,1.3-6.4,1.1-9.7,0.4
		c-4.3-0.9-8.5-2.1-12.2-4.5c-1.3-0.8-2.9-1.4-4.3-2.1c-6.6-3.2-11.1-8.3-13.5-15.2c-0.4-1.1-0.8-2.2-1.1-3.4
		c-0.9-3.2-2.9-5.3-5.9-6.4c-2.4-0.9-4.7-1.7-7.1-2.5c-3.4-1.1-6.4-3-9-5.3c-8.2-7.3-6.5-19.7-0.8-25.7c1.4-1.5,3-2.8,5-3.3
		c2.2-0.6,3-2,3.5-4c1.1-4.5,3.2-8.5,6.6-11.7c0.8-0.7,1.8-1.3,2.3-2.2c-0.5-0.7-1.1-0.5-1.6-0.4c-7,0.4-12.4,3.7-16.7,9.1
		c-0.9,1.1-1.4,2.5-1.9,3.8c-0.2,0.6-0.3,1.1-0.6,1.7c-0.4,0.8-1,1.3-2,1.2c-1.1-0.1-1.7-0.8-1.8-1.8c-0.2-2,0.1-4,0.6-6
		c0.8-2.6,2.2-4.9,3.9-7c3.1-3.8,6.8-7,11-9.6c2.6-1.6,5.4-2.7,8.4-3.2c5.5-0.9,11-1.3,16.5,0.1c1.4,0.4,2.8,0.3,4.2-0.1
		c4.9-1.2,9.8-0.8,14.7,0.2c4.9,0.9,9.3,2.9,13.2,6c4,3.1,7.7,6.5,11.3,10.1c0.8,0.8,1.5,1.6,2.6,2c2.1,0.9,3.7,2.5,5.1,4.4
		c3.3,4.3,5.4,9.3,7.9,14.1c2.1,4,4,8.1,5,12.6c1.1,4.9,1.6,9.8,0.7,14.8c-0.6,3.4,0,6.5,2.2,9.5c3.5,4.7,6.8,9.6,11.4,13.4
		c5.5,4.5,11.9,7.3,18.8,8.7c9.8,2,19.8,2.7,29.8,2.3c5.8-0.2,11.6,0.5,17.2,2.2c4.1,1.2,8.3,0.5,12.5,0.3c0.8,0,1.4-0.5,1.6-1.4
		c0-0.1,0-0.2,0.1-0.2C788.8,181.5,788.3,180.2,783.9,177.4z M253.6,120.8c-0.7,4.9-1.3,9.8-2,14.7c-1,6.2-1.3,12.5-2.2,18.7
		c-0.9,6.6-3.5,12.5-8.7,16.9c-4.6,3.8-9.7,7-15,9.7c-1.9,1-3.5,1.9-4.2,4.2c-0.5,1.6-1.8,2-3.2,1.8c-1.3-0.2-2.2-1.3-2.4-2.9
		c-0.2-1.5,0.1-3,0.7-4.4c0.3-0.6,0.6-1.2,0.1-1.9c-0.9-1.3-0.8-2.7-0.9-4.1c-0.1-1.2,0.1-2.4-0.4-3.5c-1.1-2.4-1-4.9-1.2-7.4
		c-0.2-3,0.6-6,0.3-9c-0.8-4.5,0.8-8.2,3.9-11.5c2.3-2.6,4.9-4.8,8-6.5c3.3-1.8,6.5-3.8,8.6-7.2c0.6-1,1.6-2,2.6-2.7
		c1.7-1.2,2.9-2.8,4.1-4.4c1.1-1.4,2.1-2.8,3.1-4.3c1.3-1.8,3-2.7,5.2-2.2c2.3,0.5,3.2,2.3,3.6,4.4
		C253.7,119.7,253.7,120.2,253.6,120.8z M348.2,224.3c2.4-4.8,5.6-8.9,9.6-12.5c1.4-1.2,2.7-2.7,4.5-3.1c3.1-0.7,4.2-2.9,5.3-5.4
		c0.5-1.2,1-2.3,1.3-3.5c0.4-1.7,1.3-3.1,2.7-4.2c2.6-1.9,5.2-3.8,7.8-5.6c1.8-1.2,3.7-2,5.9-2.2c0.9-0.1,1.5-0.5,2.1-1.1
		c2.5-2.5,4.5-5.2,5.5-8.6c0.2-0.8,0.5-1.5,1.5-1.3c0.9,0.2,1.1,1,1.1,1.7c0.1,1.2,0,2.4-0.3,3.5c-1.1,3.3,0.3,5.7,2.7,7.7
		c1.2,1,2.5,2,3.6,3.2c2.3,2.6,3.2,5.6,1.4,8.8c-0.6,1-0.5,1.7,0.5,2.3c4.8,2.9,8.1,7.3,11.3,11.7c1.9,2.6,3,5.6,3.5,8.8
		c0,0.7,0.2,1.5-0.5,1.9c-0.8,0.4-1.1-0.5-1.5-1c-0.2-0.3-0.4-0.5-0.6-0.8c-3.8-5.5-9-9.2-14.7-12.4c-2.8-1.5-5.8-2.4-8.9-2.4
		c-7.1-0.1-14.1-0.1-20.8,2.7c-2.3,1-4.7,1.9-7.2,2.1c-2.8,0.2-3.9,3-6.2,4.1c-3.3,1.5-5.6,4.2-7.8,7c-0.6,0.7-1,2.5-2.3,1.7
		C346.5,226.5,347.7,225.2,348.2,224.3z M390.3,289.3c-3.5,1.6-7.4,1.3-10.6,2.1c-3,0.1-3.1,0.2-3.8,2.8c-1,3.6-0.8,7.1,0.7,10.6
		c0.3,0.6,0.7,1.3,0,1.8c-0.6,0.5-1.3,0.3-1.8-0.2c-3.3-2.7-7.2-4.7-10-8c-3.5-4-5.9-8.5-7.9-13.4c-0.7-1.7-1.5-3.3-2.7-4.8
		c-2.3-3-3.6-6.4-3.9-10.2c-0.1-0.7,0-1.5,0.1-2.2c0.1-0.7,0.7-1,1.3-0.8c0.5,0.2,1.2,0.4,1.5,0.8c1.7,2.2,4.1,3.7,6.1,5.6
		c1.9,1.9,3.8,3.8,5.8,5.6c5.9,5.6,12.9,8.6,21.1,8.8c1.3,0,2.5-0.4,3.7-0.5c0.7-0.1,1.7-0.2,1.9,0.7
		C391.8,289,390.9,289,390.3,289.3z M384.1,277.5c-7.9,0.4-14.4-3-19.6-9.1c-2.5-2.9-4.8-6.1-7.2-9.1c-3.5-4.3-7.4-8.3-9.3-13.7
		c-0.1-0.4-0.4-0.7-0.6-1.1c-1.9-3.2-1-6,2.4-7.3c1-0.4,1.8-0.9,2.5-1.6c2.4-2.6,5-4.9,7.6-7.3c5.8-5.4,12.5-9.3,20.2-11.4
		c7.1-1.9,14-1.5,20.2,3c1.6,1.1,3.2,2.2,4.6,3.5c5.5,4.6,10,10,12.2,16.9c0.9,2.8,2.3,5.1,4.4,7.2c2.7,2.6,2.9,4.8,0.5,7.8
		c-1.7,2.2-3.7,4.1-5.6,6.1c-3.3,3.6-7.3,6.1-11.3,8.8C399,274.5,392,276.7,384.1,277.5z M433,288.5c-0.1,0.2-0.3,0.4-0.5,0.6
		c-1.6,2.3-3.8,4.3-5.2,6.8c-2.2,4-5.2,6.9-9.3,8.8c-2.3,1.1-4.1,2.8-5.6,5c-1.4,2.1-2.9,4.1-4.4,6.1c-1,1.4-2.3,2-3.9,1.5
		c-1.6-0.5-2.1-1.8-2.4-3.3c-0.2-1-0.1-2-0.2-3c-0.2,0-0.3,0-0.5,0c-0.2,0.7-0.4,1.4-0.7,2.1c-0.3,0.7-0.9,1-1.6,0.9
		c-0.7-0.1-1-0.5-1.2-1.1c-0.1-0.2-0.1-0.5-0.1-0.7c-0.5-4,0.3-7.8,2-11.2c1.1-2.2,2.6-4.4,5.2-5.1c3.7-1,7.4-2.2,11-3.5
		c1.2-0.4,2.4-1.1,3.6-0.7c1.6,0.5,2.5-0.3,3.6-1.1c2.4-1.7,4.6-3.7,7.2-5.1c1.6-0.9,2.7-0.8,3.4,0.1
		C434.6,286.9,433.6,287.7,433,288.5z M438.7,270.1c-1.9,2.2-4,4.1-6.7,5.3c-4.6,1.9-9,4.2-13.3,6.6c-0.8,0.4-1.7,1.2-2.5,0.8
		c-1-0.4-1.7-1.4-2.8-1.9c-0.5-0.2-0.2-0.9,0.1-1.3c0.4-0.4,1-0.7,1.4-1c3.1-2.2,5.7-4.9,7.6-8.3c1.5-2.7,2.3-5.7,3.5-8.6
		c0.6-1.5,1.2-3,2.2-4.2c1.1-1.3,2.5-2.2,4.4-2.4c2.1-0.1,3.7,0.9,4.7,2.7c1.1,2,2,4,2.7,6.2C440.7,266.3,440.2,268.4,438.7,270.1z
		 M454.4,137.5c-0.5,4.4-1.7,8.6-3,12.7c-1.1,3.6-1.7,7.4-1.6,11.2c0.1,5.4,0.1,10.7,0.1,16.1c0,4.9-0.3,9.7-1.4,14.5
		c-1,4.4-2.8,8.4-5.9,11.8c-3.2,3.4-7.5,3.6-10.9,0.4c-0.6-0.6-1.1-1.3-2-1.4c-1.4-0.1-2.2-1-3-2.1c-3.4-4.7-5.8-9.8-7.2-15.4
		c-0.8-3.1-1.7-6.2-3-9.1c-3.7-8.4-8.7-15.7-17.4-19.7c-6.4-3-12.8-5-19.9-3c-1.5,0.4-3,0.8-4.8,1.3c0.4-1.2,1.1-1.5,1.7-1.9
		c6.2-4.2,13.1-7.2,19.9-10.2c5.2-2.3,10.5-4.6,15.4-7.5c3.1-1.8,5.9-4.2,8.9-6.2c3.2-2.1,5.6-4.9,7.2-8.3c2.3-5,4.6-10.1,5.2-15.7
		c0.2-2,0.4-2.2,2.4-2c7.2,0.6,12.8,3.7,16.1,10.4C454.9,121,455.3,129.2,454.4,137.5z M542.9,271.3c-1.8-1.1-3.7-2-5.6-2.8
		c-2.1-0.9-3.7-2.3-4.7-4.4c-0.7-1.5-1.4-3-2.2-4.5c-1.4-2.7,0.5-5.6,3.6-5.5c2.2,0.1,4.4,0.3,6.5,0.5c2.7,0.3,4.6,1.8,5.7,4.3
		c0.4,0.8,0.7,1.7,0.9,2.6c0.5,2.5,1.9,4.2,4,5.6c2.2,1.4,4.6,2.5,6.9,3.7c1,0.5,1.9,1.1,2.8,1.7c0.7,0.5,0.9,1.2,0.6,2
		c-0.3,0.7-0.9,0.9-1.8,0.9c-3.1-0.3-6.2-1-9.3-1.5C547.7,273.5,545.2,272.7,542.9,271.3z M586.6,297.7c-0.5,2.2-1,4.4-1.7,6.6
		c-0.5,1.5-1.2,2.9-2.1,4.3c-2.4,3.4-5.4,6.4-8,9.7c-0.2,0.3-0.5,0.5-0.7,0.7c-2.3,1.8-5.1,1-6.1-1.7c-0.3-0.8-0.5-1.6-0.6-2.4
		c-0.2-2.5-0.8-5-1.5-7.4c-1.4-4.9-3.4-9.4-7.4-12.9c-1.6-1.4-3.1-3.1-4.6-4.6c-0.7-0.7-1.2-1.4-1.6-2.3c-0.9-1.9-0.6-3.7,0.9-5
		c1.4-1.2,3-1.2,4.8,0c1.3,0.8,2.5,1.7,3.8,2.5c3.5,2.2,7.1,3.7,11.2,4.1c3.4,0.4,6.7-0.3,10-0.9c1.7-0.3,2.2-0.1,1.7,1.5
		c-0.4,1.2-0.1,2,0.7,3c0.8,1,1.4,2.1,1.3,4.1C586.7,296.7,586.7,297.2,586.6,297.7z M624.3,245.4c0.1-0.3,0.3-0.6,0.7-0.6
		c0.5,0,0.7,0.4,0.8,0.8c0.2,0.8,0.4,1.6,0.9,2.3c3.1,4.3,3.5,9.1,2.2,13.9c-1.1,4.3-2.9,8.4-5.4,12.1c-0.9,1.4-1.7,2.9-2.4,4.4
		c-1.9,4.6-4.9,8.2-9.4,10.4c-2.3,1.2-4.3,2.9-6.4,4.5c-1.9,1.5-3.5,3.4-4,6c-0.1,0.6-0.4,1.1-0.6,1.7c-0.2,0.6-0.6,1.1-1.3,1
		c-0.9-0.1-1-0.8-1-1.5c-0.1-4.3-0.6-8.6,0.7-12.7c0.6-1.8,1.3-3.4,2.1-5.1c0.7-1.5,1.2-3.1,0.5-4.9c-2.2,0.2-4.3,0.5-6.5,0.7
		c-0.7,0.1-1.3,0.2-2,0.2c-0.6,0-1.2,0.1-1.5-0.6c-0.3-0.8,0.2-1.3,0.8-1.6c1-0.6,2.1-1.1,3.1-1.6c4.7-2.3,9.2-4.9,13-8.5
		c6.2-5.9,11.9-12.3,15.3-20.4C624.2,245.7,624.2,245.5,624.3,245.4z M617.1,225c3.2,0.9,4.4,3.7,3,6.7c-0.5,1.1-0.9,2.1-1.3,3.3
		c-0.6,1.9-1.4,3.8-2.5,5.5c-3.8,5.8-7.5,11.8-11.6,17.4c-4.5,6.2-10.6,10-18.5,10.2c-11.7,0.4-21.5-4.4-30.8-10.8
		c-2.6-1.8-4.9-4-7.3-6.1c-0.9-0.8-1.7-1.6-2.4-2.6c-1.5-2.1-1.5-3.9,0-6c0.4-0.6,1-1.2,1.4-1.8c1.3-1.7,2.4-3.4,2.7-5.6
		c0.3-2.2,1.1-4.2,2-6.2c3-6.7,7.7-11.9,13.2-16.7c4.8-4.2,10.5-5.6,16.6-5.2c5.9,0.4,11.5,2.2,16.8,5c5.7,3,10.6,7,15.5,11.2
		C614.8,224,615.8,224.6,617.1,225z M599.4,182.3c0.6,1,1.3,1.7,2.3,2.2c3,1.7,5.3,4,6.9,7.1c0.4,0.8,0.8,1.7,1.5,2.3
		c2.8,2.1,3.3,5.6,5.4,8.1c0.4,0.5,0.4,1.3-0.1,1.9c-0.5,0.6-1.2,0.6-1.8,0.4c-0.6-0.2-1.2-0.6-1.8-0.9c-3.8-1.9-7.6-4-11.5-5.8
		c-3.8-1.8-7.8-2.4-12-1.3c-2.3,0.6-4.6,1-6.9,1.4c-0.7,0.1-1.3,0.1-1.8,0.7c-1,1.4-2.6,1.8-4,1.7c-3.4-0.2-6.3,1-9.4,2.1
		c-2.3,0.8-4,2-5.5,3.7c-0.5,0.6-1,1.2-1.5,1.7c-0.2,0.2-0.6,0.3-0.9,0.1c-0.3-0.2-0.4-0.5-0.4-0.9c0.1-0.4,0.2-0.8,0.3-1.2
		c1.5-3.3,3.3-6.4,6.3-8.6c3.5-2.6,6.7-5.6,9.2-9.2c0.6-0.8,1.3-1.6,1.9-2.3c2.3-2.4,2.5-4.3,1-7.3c-0.5-1.1-1.1-2.1-1.1-3.3
		c-0.1-2.6,1.9-4.4,4.5-4.2c2.3,0.2,4.4,1.1,6.3,2.4c3.1,2.1,6.2,4,9.4,5.9C597.2,180,598.6,180.9,599.4,182.3z M597.9,165.7
		c-1.7,0-2.8-0.5-3.8-1c-5.3-2.6-10.6-5-15.4-8.5c-0.7-0.5-1.6-1-2.4-1.4c-4.5-2.1-8.3-5-11-9.3c-0.5-0.8-1-1.4-2-0.6
		c-2.2,1.9-4.9,3-7.5,4c-2.1,0.8-3,2.6-3.7,4.5c-0.3,0.7-0.1,1.3,0.4,1.8c2.3,2.1,4,4.7,6.7,6.4c3.5,2.3,4.9,6.9,3.9,10.9
		c-0.8,2.9-2.6,4.8-5.2,6.2c-1.2,0.6-2.4,1.2-3.2,2.4c-1.3,2.1-2.9,3.9-4.7,5.6c-5.5,5.4-9.8,11.7-13.9,18.1
		c-1.1,1.7-2.2,3.4-3.6,4.8c-1,1-2.2,1.8-3.7,2.1c-1.7,0.3-2.2-0.1-1.9-1.8c0-0.3,0.2-0.6,0.2-1c0.8-4.1,1.3-8.3,1.5-12.5
		c0.5-7.5-0.1-14.9-0.4-22.4c-0.2-3.5-0.6-7-1.2-10.5c-1.1-6.7-2.6-13.3-4.4-19.9c-2.5-9.2-5.8-18.1-11.2-26
		c-1.2-1.8-2.2-3.7-3.4-5.8c2.1,0.1,3.4,1.3,4.8,2.1c3.1,1.8,6.2,3.3,9.7,4c2.5,0.4,4.7-0.3,6.2-2.3c1.6-2.2,1.4-4.5,0.1-6.9
		c-0.4-0.7-1.2-1.2-1.2-2.3c0.9-0.1,1.7,0.3,2.4,0.7c1.8,0.9,3.6,1.8,5.3,2.9c7.6,4.6,15.1,9.4,22.5,14.3c6.4,4.3,12.4,9,17.5,14.8
		c0.6,0.6,1.3,1.2,1.2,2.1c-0.1,1.5,0.8,2.3,2,2.9c2.5,1.4,4.6,3.3,6.4,5.6c0.7,0.9,1.5,1.8,2.3,2.7
		C591,156.4,594.1,161,597.9,165.7z M745.2,173c-4.5-0.6-9.5-0.8-14.5-1.6c-3.2-0.6-6.3-1.3-9.1-2.7c-6.8-3.3-9.8-9.3-11.2-16.4
		c-0.8-4.1-0.8-8.2-1-12.3c-0.5-9-4.3-16.6-9.9-23.5c-0.5-0.6-1.1-1.3-1.6-2c-0.6-1.1-0.7-2.2,0-3.3c0.8-1.1,2-1.3,3.4-0.8
		c0.5,0.2,0.9,0.5,1.3,0.7c3,1.6,5.5,3.9,7.7,6.4c1.7,2,3.3,4.1,4.6,6.3c0.6,1,1.3,1.6,2.6,1.5c1.8-0.2,3.2,0.7,4.6,1.7
		c2.2,1.8,3.9,4,5.3,6.4c2.6,4.3,5.4,8.5,8.6,12.4c2.5,3.1,4.8,6.5,8.1,8.9c3,2.2,4.9,5.3,6.9,8.2C754,167.6,751.1,172.7,745.2,173z
		"/>
	<path class="st1" d="M330.2,529.3c-0.3-4.5-0.2-8.9,1-13.3c0.1-0.4,0.3-0.8,0-1.2c-0.4-0.2-0.6,0.1-0.8,0.3
		c-9.5,9.1-18.8,18.5-28.1,27.9c-8.8,9-16.5,18.9-22,30.3c-0.4,0.8-0.7,1.5-1.2,2.2c-6.5,10.5-10,22.1-13.1,33.9l0.9,0.3
		c0.4,0.1,0.7,0.2,1.1,0.3l1,0.3l2.1,0.7l1,0.3c0.3,0.1,0.7,0.2,1,0.4l2.1,0.8l1,0.4c0.3,0.1,0.7,0.3,1,0.4c5.4,2.2,10.6,4.9,15.5,8
		l1.8,1.2l1.8,1.3l0.9,0.6l0.4,0.3l0.4,0.3l1.7,1.3c0.2,0.2,0.4,0.3,0.7,0.5c0.2-0.6,0.4-1.3,0.6-1.9c2.6-8.4,6.2-16.3,9.6-24.4
		c6-14.3,11-28.9,13.7-44.2c0.7-4,1.8-7.9,3.3-11.6c0.5-1.3,1.1-2.5,2.4-3.2c0.5-0.2,0.8-0.6,1.2-0.9c0-0.1,0-0.1,0-0.2
		C330.8,536.8,330.4,533,330.2,529.3z"/>
</g>
<g>
	<path class="st2" d="M399.1,156.6c8.8,4.1,13.7,11.3,17.4,19.7c1.3,2.9,2.2,6,3,9.1c1.4,5.6,3.9,10.7,7.2,15.4c0.7,1,1.5,2,3,2.1
		c0.9,0,1.4,0.8,2,1.4c3.4,3.2,7.7,3.1,10.9-0.4c3.1-3.4,4.9-7.4,5.9-11.8c1.1-4.8,1.4-9.6,1.4-14.5c0-5.4,0-10.7-0.1-16.1
		c-0.1-3.8,0.5-7.5,1.6-11.2c1.3-4.2,2.5-8.4,3-12.7c0.9-8.3,0.6-16.4-3.3-24.1c-3.3-6.6-8.9-9.8-16.1-10.4c-2-0.2-2.2,0-2.4,2
		c-0.6,5.6-2.8,10.7-5.2,15.7c-1.6,3.4-4,6.2-7.2,8.3c-3,2-5.8,4.4-8.9,6.2c-4.9,2.9-10.2,5.2-15.4,7.5c-6.8,3-13.7,6-19.9,10.2
		c-0.6,0.4-1.4,0.7-1.7,1.9c1.8-0.5,3.3-0.8,4.8-1.3C386.3,151.6,392.7,153.6,399.1,156.6z"/>
	<path class="st2" d="M522.6,143.7c1.8,6.6,3.3,13.2,4.4,19.9c0.6,3.5,1,7,1.2,10.5c0.3,7.5,0.9,14.9,0.4,22.4
		c-0.3,4.2-0.7,8.4-1.5,12.5c-0.1,0.3-0.2,0.6-0.2,1c-0.3,1.7,0.2,2.1,1.9,1.8c1.5-0.2,2.6-1,3.7-2.1c1.4-1.4,2.5-3.1,3.6-4.8
		c4.2-6.4,8.4-12.8,13.9-18.1c1.7-1.7,3.4-3.5,4.7-5.6c0.7-1.2,2-1.7,3.2-2.4c2.6-1.4,4.4-3.3,5.2-6.2c1.1-4-0.4-8.7-3.9-10.9
		c-2.7-1.7-4.4-4.3-6.7-6.4c-0.5-0.5-0.7-1.1-0.4-1.8c0.7-1.9,1.6-3.7,3.7-4.5c2.7-1,5.3-2.1,7.5-4c1-0.8,1.5-0.2,2,0.6
		c2.7,4.3,6.5,7.2,11,9.3c0.8,0.4,1.7,0.8,2.4,1.4c4.8,3.5,10.1,5.9,15.4,8.5c1,0.5,2.1,1,3.8,1c-3.7-4.7-6.9-9.2-10.6-13.3
		c-0.8-0.9-1.6-1.7-2.3-2.7c-1.8-2.3-3.9-4.2-6.4-5.6c-1.2-0.6-2.1-1.3-2-2.9c0.1-0.9-0.6-1.5-1.2-2.1c-5.1-5.8-11.1-10.5-17.5-14.8
		c-7.4-5-14.9-9.8-22.5-14.3c-1.7-1-3.5-1.9-5.3-2.9c-0.7-0.4-1.5-0.7-2.4-0.7c0,1.1,0.8,1.6,1.2,2.3c1.3,2.3,1.5,4.7-0.1,6.9
		c-1.5,2.1-3.7,2.8-6.2,2.3c-3.5-0.6-6.7-2.2-9.7-4c-1.4-0.8-2.7-1.9-4.8-2.1c1.2,2.1,2.2,4,3.4,5.8
		C516.8,125.6,520.1,134.5,522.6,143.7z"/>
	<path class="st2" d="M250,114.7c-2.2-0.5-3.9,0.4-5.2,2.2c-1,1.4-2,2.9-3.1,4.3c-1.2,1.6-2.5,3.2-4.1,4.4c-1,0.7-1.9,1.7-2.6,2.7
		c-2.1,3.4-5.2,5.4-8.6,7.2c-3.1,1.7-5.6,3.9-8,6.5c-3,3.3-4.7,6.9-3.9,11.5c0.4,3-0.5,6-0.3,9c0.2,2.5,0.1,5,1.2,7.4
		c0.5,1.1,0.3,2.3,0.4,3.5c0.1,1.4,0,2.9,0.9,4.1c0.5,0.7,0.1,1.3-0.1,1.9c-0.6,1.4-0.9,2.9-0.7,4.4c0.2,1.6,1.1,2.7,2.4,2.9
		c1.5,0.3,2.7-0.2,3.2-1.8c0.7-2.3,2.3-3.1,4.2-4.2c5.3-2.7,10.4-5.9,15-9.7c5.2-4.3,7.8-10.3,8.7-16.9c0.9-6.2,1.2-12.5,2.2-18.7
		c0.8-4.9,1.4-9.8,2-14.7c0.1-0.6,0.2-1.1,0-1.7C253.2,117,252.4,115.2,250,114.7z"/>
	<path class="st2" d="M750.9,163.1c-2-2.9-3.9-6-6.9-8.2c-3.2-2.4-5.6-5.8-8.1-8.9c-3.2-3.9-6-8.1-8.6-12.4
		c-1.4-2.4-3.1-4.6-5.3-6.4c-1.3-1.1-2.8-1.9-4.6-1.7c-1.3,0.1-2-0.5-2.6-1.5c-1.4-2.2-2.9-4.3-4.6-6.3c-2.2-2.5-4.7-4.8-7.7-6.4
		c-0.4-0.2-0.9-0.5-1.3-0.7c-1.4-0.5-2.6-0.2-3.4,0.8c-0.8,1.1-0.7,2.2,0,3.3c0.4,0.7,1,1.3,1.6,2c5.6,6.8,9.4,14.5,9.9,23.5
		c0.2,4.1,0.2,8.2,1,12.3c1.5,7,4.4,13,11.2,16.4c2.9,1.4,6,2.1,9.1,2.7c5,0.9,10,1.1,14.5,1.6C751.1,172.7,754,167.6,750.9,163.1z"
		/>
	<path class="st2" d="M574.2,319c0.3-0.2,0.5-0.4,0.7-0.7c2.5-3.3,5.5-6.3,8-9.7c0.9-1.3,1.7-2.7,2.1-4.3c0.6-2.2,1.1-4.4,1.7-6.6
		c0.1-0.5,0.1-1,0.1-0.9c0-1.9-0.6-3.1-1.3-4.1c-0.7-0.9-1.1-1.7-0.7-3c0.5-1.6,0.1-1.8-1.7-1.5c-3.3,0.6-6.5,1.3-10,0.9
		c-4.1-0.5-7.8-2-11.2-4.1c-1.3-0.8-2.5-1.7-3.8-2.5c-1.8-1.2-3.5-1.2-4.8,0c-1.5,1.3-1.8,3.1-0.9,5c0.4,0.8,0.9,1.6,1.6,2.3
		c1.5,1.5,3,3.2,4.6,4.6c4,3.5,6,8,7.4,12.9c0.7,2.4,1.3,4.9,1.5,7.4c0.1,0.8,0.3,1.7,0.6,2.4C569,320,571.9,320.8,574.2,319z"/>
	<path class="st2" d="M433,288.5c0.6-0.9,1.6-1.7,0.7-2.9c-0.7-0.9-1.9-1-3.4-0.1c-2.6,1.4-4.8,3.4-7.2,5.1
		c-1.1,0.8-2.1,1.5-3.6,1.1c-1.2-0.4-2.5,0.3-3.6,0.7c-3.6,1.3-7.3,2.5-11,3.5c-2.6,0.7-4.2,2.9-5.2,5.1c-1.7,3.5-2.5,7.3-2,11.2
		c0,0.2,0.1,0.5,0.1,0.7c0.2,0.6,0.6,1,1.2,1.1c0.8,0.1,1.3-0.2,1.6-0.9c0.3-0.7,0.4-1.4,0.7-2.1c0.2,0,0.3,0,0.5,0c0,1,0,2,0.2,3
		c0.2,1.5,0.8,2.8,2.4,3.3c1.7,0.5,3-0.1,3.9-1.5c1.5-2,3-4,4.4-6.1c1.4-2.2,3.2-3.9,5.6-5c4.1-1.9,7.2-4.8,9.3-8.8
		c1.4-2.5,3.5-4.5,5.2-6.8C432.7,288.9,432.9,288.7,433,288.5z"/>
</g>
<g>
	<path class="st3" d="M502.2,420.5c0.6-0.2,1.3-0.4,2-0.4c4.9-0.4,9.9-1,14.8-1.2c5.8-0.3,11.6-0.1,17.3,1.4
		c2.3,0.6,4.4,1.5,6.4,2.7c0.5-0.8,0-1.4-0.1-2c-0.8-3-1.9-5.9-3.2-8.8c-1.5-3.4-3.9-6-7.1-8c-5.4-3.5-11.3-5.2-17.7-4.9
		c-6.5,0.3-13.1-0.2-19.6,0.5c-2.5,0.3-5.1,0.4-7.6,0.3c-6.5-0.1-12.9,1-19.4,1.3c-6.7,0.3-12.8,2.7-18,7c-2.4,2-4.2,4.3-5.4,7.2
		c-1.3,3.4-2.2,6.9-2.8,10.4c-0.1,0.4-0.2,0.8,0.2,1.4c2-1.2,3.9-2.4,6.1-3.2c6.9-2.2,13.9-3.2,21.1-3c3.3,0.1,6.6-0.1,9.8-0.1
		c1,0,2,0,3,0.2c0.4,0.1,0.8,0.4,0.8,0.8c0,0.6-0.3,0.9-0.9,1.1c-0.6,0.1-1.2,0.2-1.7,0.3c-7.9,1.3-15.7,2.8-23.4,5.1
		c-3.1,0.9-5.9,2.5-8.6,4.2c-2.3,1.4-3.1,3.9-4.3,6.1c-0.2,0.3-0.1,0.6,0.1,1c2,4.4,4.1,8.8,7.6,12.4c2.9,3,6.6,4.4,10.5,5.3
		c0.5-0.9-0.3-1-0.6-1.2c-1.9-1.6-3.8-3.3-5.3-5.3c-1.6-2.1-2.4-4.4-2.2-7c0.4-4.5,4-7.4,8.4-7.1c5.4,0.4,10.2,2.5,14.8,5.3
		c4.3,2.6,7.4,6,9.7,10.3c0.3,0.6,0.6,1.2,0.7,1.9c0.2,1.4-0.3,2.4-1.9,2.8c-0.8,0.2-1.3,0.6-1.7,1.3c-2.4,4.4-6.5,6.1-11.1,7.1
		c-1.8,0.4-3.7,0.4-6,0.6c6.7,5.4,14.1,7.6,21.9,8.9c0,0,0.3-0.2,0.3-0.3c0-3.6,0.7-7.1,1.8-10.6c0.6-2,0.4-4.2,0.6-6.3
		c0-0.6,0.1-1.2,0.2-1.7c0.1-0.4,0.7-0.7,1-0.5c0.8,0.6,1.3,1,2.1,0c0.5-0.6,1.2,0.1,1.3,0.9c0.3,1.7,0.5,3.3,0.7,5
		c0.1,1.2,0.4,2.3,0.9,3.4c1.4,3,2.1,6.2,2.3,9.7c7.8-2,14.9-5,20.8-10.5c-0.4-0.8-1-0.4-1.6-0.4c-2.4,0.1-4.7-0.1-7-0.6
		c-3.4-0.7-6.3-2.3-8.4-5.1c-0.5-0.7-1.1-1.3-2.1-1.5c-1.8-0.3-2.5-1.6-2-3.3c0.4-1.3,0.8-2.6,1.5-3.7c2-3.2,4-6.4,7.4-8.4
		c0.9-0.5,1.6-1.2,2.4-1.8c3.8-3,8.3-4.5,13-5.2c4.8-0.7,8.9,4,8.2,9.1c-0.3,2.3-1.4,4.3-2.8,6.1c-1.4,1.8-2.9,3.4-4.5,4.9
		c0.4,0.5,0.7,0.5,1,0.3c3.7-1.3,7.1-3,9.5-6.3c2.4-3.3,4.1-6.9,5.5-10.7c0.9-2.4,0.3-4-1.1-5.8c-1.2-1.5-2.5-2.6-4.2-3.5
		c-5.4-2.7-11.2-3.5-17-4.2c-5.2-0.6-10.3-1.3-15.6-1.5c-0.3,0-0.5,0-0.8-0.1c-0.5-0.1-1-0.4-1-1C501.5,421,501.8,420.6,502.2,420.5
		z"/>
	<path class="st3" d="M482,486c-6-0.7-11.3-3.2-16.3-6.4c-0.9-0.6-1.8-1.2-2.7-1.8c0,0.2,0,0.5,0,0.8c-0.3,1.5-0.6,3-0.7,4.5
		c-0.1,1.8-0.7,3.2-2.5,4.2c-2.7,1.6-3.5,4.6-3,7.4c5,0.9,10,0.6,15.1-1.1c2.5-0.9,9.5-5.1,11.5-7.1C483.2,485.8,482.6,486,482,486z
		"/>
	<path class="st3" d="M538,480.7c-0.9-0.7-2-1.3-2.9-2c-1.4-0.9-2.4-2.1-2.1-3.9c0.1-1,0-2-0.5-2.9c-0.3-0.5-0.7-0.9-1.1-1.1
		c-1.1,0.9-2.1,1.8-3.3,2.6c-3.3,2.4-6.3,5.3-9.9,7.4c-3.6,2.1-7.4,3.5-11.5,4.3c0,0.9,0.7,1,1.2,1.3c3.4,1.7,6.6,3.8,10.2,4.8
		c7.7,2.1,15.2,1.1,22.1-2.3c0.2-0.5,0.4-1,0.5-1.6C541,484.5,540,482.4,538,480.7z"/>
	<path class="st3" d="M511.2,501.9c-3.7-1.2-7.2-2.8-10.6-4.7c-5.5-3-4.7-3.1-10.1,0.5c-4.6,3.1-9.3,5.7-14.7,7.2
		c1.1,0.5,2.2,1.2,3.3,1.9c3,2.3,6.7,3,10.4,3.3c3.7,0.3,7.3,0.2,11,1.1c4.3,1,8.5-0.4,12.4-2.4c1.9-1,3.9-1.9,6.1-2.3
		c1.8-0.3,3.6-0.9,5-2.2c0.4-0.3,0.7-0.7,0.9-1C520.3,503.9,515.7,503.4,511.2,501.9z"/>
</g>
<g>
	<path class="st4" d="M620.6,627.2c-0.2-0.5-0.5-0.8-1.2-0.9c-1-0.1-1.5,0.5-1.9,1.3c-0.5,1-1,2-1.5,2.9c-0.6,1.1-1.4,1.8-2.7,2.1
		c-2,0.4-3.3,1.7-4.5,3.3c-1.4,1.9-2.8,3.9-4.1,6c-2.3,3.7-5.7,6.3-9.1,8.9c-4.6,3.5-9.5,6.6-14.2,10c-1.6,1.2-3.3,2.3-4.7,3.7
		c-0.5,0.5-1.1,1-2.1,1c-0.1-2.5,0.6-4.9,0.8-7.2c0.7-7.6,0.5-15.1-1-22.5c-1.6-7.4-3.1-14.8-4.8-22.1c-0.9-4.1-2.1-8.1-3.1-12.2
		c-0.3-1.2-0.9-1.3-1.8-0.8c-2.2,1.2-4.3,2.5-5.7,4.8c-1.8,3.1-3.2,6.5-4.5,9.8c-0.3,0.7-0.3,1.5-1.2,2c-0.2-2.6,0.3-4.9,0.8-7.2
		c1.7-7.2,3.2-14.4,6.3-21.2c0.6-1.4,1-3,1.3-4.6c1.5-7.4,5.5-12.8,11.9-16.7c2.7-1.6,5.2-3.4,7.7-5.2c1.9-1.3,3.4-3,4.6-4.9
		c4.3-6.6,7.4-13.7,8.5-21.6c0.6-4.4,0.5-8.8-0.1-13.3c-0.6-4.1-1.2-8.1-1.8-12.2c-0.8-5.6-1.8-11.2-2.6-16.9
		c-0.5-3.8-1.1-7.6-1.6-11.5c-0.8-5.5-1.7-10.9-2.2-16.5c-0.5-5-0.9-10-0.6-15.1c-0.5,2.5-1.2,4.9-1.9,7.3
		c-2.3,7.4-4.4,14.8-8.3,21.6c-2.7,4.6-6,8.3-10.7,10.7c-2.2,1.1-4.1,2.6-5.6,4.6c-0.1,0.2-0.3,0.4-0.5,0.6c-3.4,2.7-5.8,6.3-7.9,10
		c-0.9,1.5-2,2.9-3.2,4.2c-1.7,1.8-3.4,3.5-4.7,5.5c-0.6,1-1.6,1.7-2.6,2.4c-5.8,3.9-11.8,7.4-18.1,10.5c-4,2-8.4,3.2-12.8,3.8
		c-7.6,1.2-15.3,2.1-23.1,1.5c-10.3-0.8-19.9-4-29-8.9c-1.3-0.7-2.6-1.6-3.8-2.5c-3-2.6-6.4-4.3-10-5.7c-8.8-3.3-15.1-9.5-19.6-17.6
		c-1.8-3.3-3.5-6.7-4.6-10.3c-0.7-2.6-2.3-4.7-4.4-6.4c-9.5-7.9-15.3-17.9-18.4-29.4c-0.2,1.3-0.4,2.6-0.3,3.9
		c0.3,4.2,0.2,8.4,0.9,12.6c0.6,3.7,0,7.5,0,11.3c0,3.3-0.2,6.7-0.4,10c-0.3,6.2,0.1,12.4,0.3,18.6c0,1.4,0.2,2.7-1,3.7
		c-0.2,0.2-0.4,0.6-0.4,0.9c-0.1,1.9-1.4,3.1-2.4,4.5c-3.8,5.2-7,10.7-8.2,17.1c-0.7,3.7-0.7,7.5,0,11.3c0.4,2.6,0.4,5.2,0.7,7.8
		c0.2,2.2,0.5,2.4,2.4,1.3c3.4-1.9,6.6-4,9.8-6.2c1-0.7,1.8-1.5,2.5-2.5c2-2.8,4.1-5.5,5.4-8.7c0.2-0.6,0.3-1.3,1.4-1.5
		c0.2,2.2-0.4,4.3-1,6.3c-1.1,3.6-2.3,7.2-3.1,10.9c-0.7,3.3-2.5,6-5.1,8.2c-2.3,2-4.5,4-7,5.7c-2.2,1.5-3.7,3.5-4.5,5.9
		c-1.7,5.2-3.1,10.5-2.8,16c0.3,4.6,1.5,8.9,3.3,13.1c0.9,2,2.3,3.7,4.1,5c2.4,1.8,4.6,3.7,6.8,5.6c0.9,0.7,1.9,1.4,2.9,2
		c4.9,2.9,7.5,7.3,8.8,12.7c1,4.3,0.7,8.7,0.4,13c-0.4,4.6-0.3,9.2,0.1,13.8c0.5,5.3,2.1,10.2,3.8,15.1h27.2h2.7h168.2
		c0-0.2,0-0.3-0.1-0.5c-1.2-7.4,0-14.5,2.1-21.6C616.3,641.2,618.2,634.1,620.6,627.2z"/>
	<path class="st4" d="M401.5,388.5c1.4,5.3,3.9,10,7.5,14c2.5,2.7,4.9,5.6,7.2,8.4c0.9,1,1.8,2,2.9,2.8c2.5,1.9,5.3,1.3,6.7-1.6
		c0.5-1,0.8-2.2,1.1-3.3c1.4-5.2,1.7-10.6,2.9-15.8c0.2-0.9,0.1-1.8-0.1-2.7c-0.6-2.3-0.3-4.5,0.9-6.5c0.7-1.2,1.3-2.4,1.9-3.5
		c-0.3,0.3-0.7,0.5-1.1,0.7c-1.1,0.5-1.9,1.5-3.1,1.7c-0.5,0.1-0.6,0.5-0.8,0.9c-1.3,3.5-3.5,6.5-5,9.8c-0.8,1.7-2.5,1.8-3.5,0.2
		c-1.6-2.7-3-5.4-2.3-8.8c0.3-1.6,0.1-3.4-0.7-4.9c-1.2-2.1-1.5-4.3-1.4-6.5c0-1.2,0.2-2.4-0.2-3.5c-1-3-1.5-6.2-2.8-9.2
		c-1.2-2.7-1.6-5.3-1.2-7.9c-1.4,0.5-2.5,1.5-3.1,3c-2.8,6.1-5.5,12.2-5.9,19c-0.1,2.7-0.6,5.5-0.9,8.2c-0.1,0.7-0.2,1.3,0,2
		C401.5,385.9,401.2,387.3,401.5,388.5z"/>
	<path class="st4" d="M437.4,415.7c0.2-0.7,0.5-1.4,0.7-2c1.4-3.6,3.5-6.9,6.5-9.5c1.6-1.4,3.1-2.8,4.7-4.2c2.5-2.3,5.3-4.1,8.5-5.3
		c5-1.9,9.9-3.6,15.3-4.2c3-0.4,5.8-1.8,8.8-2c7.9-0.6,15.9-1.7,23.8,0.1c1.7,0.4,3.5,0.3,5.3,0.5c5.1,0.4,10.1,1.8,15,3.4
		c0.6,0.2,1.1,0.4,1.6,0.7c3.6,2.1,7.1,4.3,10.3,6.9c0-0.7,0.2-1.4,0.6-2.1c0.5-0.9,0.4-2,0.1-3c-0.7-2.8-1.7-5.4-3.3-7.9
		c-2.4-3.9-4.9-7.8-6.5-12.2c-1.1-3-1.7-6.1-2.2-9.3c-0.6-4.2-0.9-8.5-1.2-12.9c-1.6,1.5-2.7,3.3-3.5,5.3
		c-2.2,5.9-4.6,11.7-7.7,17.2c-0.9,1.5-1.9,3-2.8,4.5c-0.6,1-1.3,1.3-2.5,0.8c-6.1-2.7-12.6-3.4-19.2-3c-2.5,0.1-5,0.4-7.5,1
		c-5.3,1.2-10.2,0.1-14.8-2.4c-3.5-1.9-6.7-4.1-9.4-7.1c-0.6-0.6-1.2-1.2-1.9-1.7c-1.7-1.4-3.6-1.7-5.6-0.8c-2.1,0.9-3,2.7-3,4.8
		c0,1.6,0,3.2,0.3,4.8c1.2,6.2-0.8,11.8-3.6,17.1c-1,1.9-1.9,3.7-2.8,5.6c-0.8,1.7-1.2,3.5-0.9,5.4c0.2,1.3-0.1,2.4-0.8,3.6
		C438.4,410.2,437.7,412.9,437.4,415.7z"/>
	<polygon class="st4" points="588,438 587.9,438.1 588.1,438.1 	"/>
	<polygon class="st4" points="587.5,439 587.5,439.2 587.6,439.1 	"/>
	<path class="st4" d="M552.9,388.5c0.3,0.8,0.4,1.7-0.4,2.3c-0.2,0.1-0.3,0.2-0.5,0.2c0.8,2.1,1.7,4.2,2.5,6.2
		c1.9,4.5,3.4,9.1,4.7,13.8c0.2,0.6,0.4,1.1,0.8,1.6c1.3-0.5,1.7-1.8,2.3-2.8c1.6-3.4,2.8-7,3.6-10.7c1-4.9,2.2-9.8,3.6-14.7
		c2.3-7.8,1.7-15.4-1.9-22.8c-1-2-1.9-4.1-2.8-6.2c-0.4-0.8-0.6-1.6-0.4-2.4c-1.2-2-2.4-3.9-3.7-5.9c-0.5-1.9-0.7-3.8-1-5.7
		c-0.1,0.3-0.1,0.5-0.1,0.8c0.1,1.6,0.1,3.2,0.2,4.8c0.1,1.6,0.4,3.2,1.2,4.8c2.1,4.2,0.7,10.3-5.2,11.1c-0.7,0.1-1.2,0.5-1.5,1.1
		c-0.1,0.3-0.3,0.6-0.4,0.9c-0.4,1-0.9,2-1.3,3.1c-1.4,3.7-2.3,7.4-1.8,11.5C551.4,382.7,551.8,385.7,552.9,388.5z"/>
</g>
<g>
	<path class="st5" d="M410.1,641.4c0.3-4.4,0.6-8.7-0.4-13c-1.3-5.4-3.9-9.8-8.8-12.7c-1-0.6-2-1.3-2.9-2c-2.3-1.8-4.5-3.8-6.8-5.6
		c-1.8-1.3-3.2-3-4.1-5c-1.8-4.2-3-8.6-3.3-13.1c-0.4-5.5,1.1-10.8,2.8-16c0.8-2.4,2.4-4.4,4.5-5.9c2.5-1.7,4.8-3.7,7-5.7
		c2.5-2.2,4.3-4.9,5.1-8.2c0.8-3.7,2-7.3,3.1-10.9c0.6-2,1.2-4.1,1-6.3c-1,0.1-1.1,0.9-1.4,1.5c-1.3,3.2-3.5,5.9-5.4,8.7
		c-0.7,1-1.5,1.8-2.5,2.5c-3.2,2.1-6.4,4.3-9.8,6.2c-1.9,1.1-2.3,0.8-2.4-1.3c-0.2-2.6-0.2-5.2-0.7-7.8c-0.6-3.8-0.7-7.5,0-11.3
		c1.2-6.4,4.4-12,8.2-17.1c1-1.4,2.3-2.6,2.4-4.5c0-0.3,0.2-0.7,0.4-0.9c1.2-1,1.1-2.3,1-3.7c-0.2-6.2-0.7-12.4-0.3-18.6
		c0.2-3.3,0.4-6.7,0.4-10c0-3.8,0.7-7.6,0-11.3c-0.7-4.2-0.7-8.4-0.9-12.6c-0.1-1.3,0.2-2.6,0.3-3.9c-0.5-2-1-4.1-1.4-6.2
		c-1.2-6.7-2.2-13.4-2.8-20.2c-0.2-2.6-0.7-5.1-1.4-7.5c-0.4,0.5-0.6,1.3-0.6,2.5c0,9.1-1.1,18.1-4.2,26.8c-1.4,3.9-3.2,7.6-5,11.3
		c-5.9,12.1-12.8,23.5-21.3,33.9c-3.3,4-6.1,8.3-8.5,12.7c-1.4,6.3-2.5,12.7-3.5,19c-0.5,3.2-0.9,6.5-1.4,9.7
		c-0.3,1.9-0.1,3.7,0.8,5.4c1,2,1.9,4.1,2.8,6.2c3.6,8.1,2.9,16.2-0.5,24.2c-0.7,1.7-1.7,3.3-3.1,4.6c-1.4,1.3-3,1.9-4.8,1.2
		c-1.8-0.7-2.7-2.2-2.8-4.1c-0.1-2-0.1-4,0.1-6c0.1-1.1,0-2.2-0.5-3.2c-3.7-6.9-5.6-14.4-6.9-22.1c-0.3,0.4-0.7,0.7-1.2,0.9
		c-1.2,0.7-1.8,1.9-2.4,3.2c-1.5,3.7-2.7,7.6-3.3,11.6c-2.7,15.3-7.7,29.9-13.7,44.2c-3.4,8.1-7,16-9.6,24.4
		c-0.2,0.6-0.4,1.3-0.6,1.9c0.1,0.1,0.1,0.1,0.2,0.2l0.8,0.7l1.7,1.4c0.6,0.5,1.1,1,1.6,1.5l0.8,0.7l0.4,0.4l0.4,0.4
		c1,1,2.1,2,3.1,3.1c0.5,0.5,1,1,1.5,1.6l1.5,1.6c0.2,0.3,0.5,0.5,0.7,0.8l0.7,0.8l1.4,1.6c0.9,1.1,1.8,2.2,2.7,3.4
		c0.1,0.2,0.3,0.4,0.4,0.5c2.3-4.2,5-8.1,8-11.9c0.9-1.2,2-2.4,3.6-2.7c1.5-0.3,1.8-1.2,2-2.4c0.2-1,0.4-2,0.7-2.9
		c0.5-1.5,1.4-2.3,2.5-2c1.3,0.4,1.4,1.4,1.5,2.6c0.1,7.1-0.9,14.1-3.4,20.8c-1,2.8-1.9,5.6-2.6,8.4c-0.2,0.9-0.4,1.7-0.5,2.6
		c-0.2,1.2-0.3,2.4-0.3,3.6c1,1.5,2,2.9,3.1,4.3c0.2,0.3,0.4,0.5,0.6,0.8c0.5,0.5,0.9,0.9,1.4,1.3c0.5,0.4,0.9,0.8,1.4,1.2
		c0.4,0.3,0.7,0.5,1.1,0.8c0.2,0.1,0.4,0.2,0.6,0.4H414c-1.7-4.9-3.3-9.8-3.8-15.1C409.7,650.6,409.7,646,410.1,641.4z"/>
	<path class="st5" d="M540.9,498.9c-4.7,2.2-9.7,3.4-14.7,4.2c-0.4,0.1-0.8,0.1-1.2,0.2c-0.3,0.4-0.6,0.7-0.9,1
		c-1.4,1.3-3.2,1.9-5,2.2c-2.2,0.4-4.1,1.3-6.1,2.3c-3.9,2-8.1,3.5-12.4,2.4c-3.7-0.9-7.3-0.8-11-1.1c-3.8-0.3-7.4-1-10.4-3.3
		c-1.1-0.8-2.1-1.4-3.3-1.9c-0.7,0.2-1.5,0.4-2.2,0.5c-2.7,0.5-5.5,0.7-8.3,0.4c-4.8-0.4-9.5-1.1-14.1-2.6c-0.3-0.1-0.6-0.3-1.1,0.1
		c0.9,1.4,2,2.6,3.3,3.6c1.8,1.6,3.8,3.1,5.6,4.8c2.8,2.5,6,3.8,9.7,4.4c7.1,1,14.2,1.3,21.4,1.4c4.3,0,8.6,0.2,12.9,0
		c9-0.4,17.7-2.1,26-5.5c6.1-2.5,10-7.1,12.7-12.9C541.3,498.7,541.1,498.8,540.9,498.9z"/>
	<path class="st5" d="M570.2,463.1c1-1.4,1.8-2.8,2.2-4.5c0.2-1,0.5-2,0.8-2.9c2.6-7,2.6-14.1,1.1-21.4c-0.9-4-1.7-8.1-2.6-12.1
		c-0.6-2.9-0.8-5.8-0.6-8.8c0.2-4.7,2-8.8,5.4-12.1c2.3-2.2,4.7-4.3,7.1-6.4c1.9-1.6,3.4-3.5,4.5-5.6c0-0.1,0-0.2,0-0.3
		c-0.7-4.4-2.2-8.4-4.8-12.1c-4.6-6.4-8.9-13.1-14.7-18.6c-0.4-0.4-0.8-0.8-1.1-1.3c-1-1.3-1.9-2.8-3-4.1c-0.2,0.9,0,1.7,0.4,2.4
		c1,2.1,1.9,4.1,2.8,6.2c3.5,7.4,4.2,15,1.9,22.8c-1.4,4.8-2.6,9.7-3.6,14.7c-0.8,3.7-1.9,7.3-3.6,10.7c-0.5,1.1-0.9,2.3-2.3,2.8
		c-0.5-0.5-0.7-1.1-0.8-1.6c-1.3-4.7-2.8-9.3-4.7-13.8c-0.9-2.1-1.7-4.1-2.5-6.2c-0.7,0.3-1.4-0.1-2-0.7c-1.2-1.2-2-2.7-2.8-4.2
		c-1.6-3.3-2.8-6.7-3.9-10.1c-2.4-7.2-2.1-14.1,2.4-20.5c0.2-0.3,0.5-0.7,0.7-1.1c2.1-3.7,3.6-7.3,1.8-11.7
		c-0.9-2.1-0.6-4.5,0.3-6.7c0.5-1.3,1-2.7,1.4-4.1c1-4.3,0.7-8.5-1.4-12.5c-0.5-1-1.4-1.7-2.1-2.5c-1-1-1-2.3-0.4-3.5
		c0.4-1,1.3-1.2,2.3-1.3c1.8-0.1,3,0.8,4.2,2c0.2,0.2,0.4,0.5,0.6,0.7c-1.5-3.2-3.2-6.2-4.9-9.3c-3.4-6.1-8-11-15-13
		c-1.2-0.3-2.3-0.9-3.5-1.5c-2.4-1.1-4.8-2.1-7.4-2.5c-3.3-0.5-6-2.2-8.6-4c-1.4-1-2.1-2.4-2.5-3.9c-1.4-4.8-2.5-9.6-2.8-14.6
		c-0.5-7.7-1-15.4-0.6-23.2c0.2-3.9-0.1-7.7-1.2-11.5c-0.6-1.9-0.5-4-0.7-6c-0.6-8.5-1.1-16.9-1.6-25.4c-0.1-0.9-0.3-1.8-0.6-2.7
		c-5-10.7-7.5-22.1-9.2-33.7c-1.5-10.2-4.5-20.2-7.5-30c-0.5-1.5-1.1-3-2-4.4c-1.3,0.6-1.8,1.6-2.3,2.7c-2.3,4.6-4.3,9.3-4.8,14.5
		c-0.4,3.9-1.7,7.7-3.5,11.3c-1,1.8-1.4,3.8-1.5,5.8c-0.9,13.7-2,27.5-2.3,41.3c-0.1,4.9-0.8,9.7-2,14.5
		c-2.8,11.3-4.7,22.7-6.5,34.1c-0.7,4.1-1.9,8.2-1.9,12.4c0.1,7.7-2.8,14.6-5.7,21.5c-0.7,1.6-1.5,3.2-2.5,4.6c-1.1,1.6-2.3,3-4.1,4
		c-2.3,1.3-4.4,3.1-6.3,5c-2.3,2.2-4.8,3.8-7.7,5.1c-8.9,3.9-14.1,10.2-16,18.5c1,0.1,2,0.8,2.7,2.1c0.7,1.2,0.9,2.5,1,3.9
		c0.2,3.2,0.4,6.4,0.6,9.6c0.6,7.3,2.6,14.3,4.7,21.4c1,3.5,2.5,6.8,4.7,9.7c0.6,0.8,1.2,1.7,1.7,2.7c0.2,0.5,0.5,1,0.6,1.5
		c0.3,0.9,0.3,1.8,0.2,2.6c-0.2,0.8-0.6,1.6-1.3,2.2c-0.6,1.1-1.2,2.3-1.9,3.5c-1.2,2.1-1.5,4.2-0.9,6.5c0.2,0.9,0.3,1.8,0.1,2.7
		c-1.2,5.2-1.5,10.6-2.9,15.8c-0.3,1.1-0.6,2.3-1.1,3.3c-1.4,2.8-4.2,3.5-6.7,1.6c-1.1-0.8-2-1.8-2.9-2.8c-2.4-2.8-4.8-5.6-7.2-8.4
		c-3.6-4-6.2-8.7-7.5-14c-0.3-1.2,0-2.5-1-3.5c-0.8,7.1-0.3,14.1,1.3,20.8c1.5,1.1,2.9,2.2,4.4,3.3c3.8,3,6,6.9,6.7,11.7
		c0.7,4.4,0.3,8.7-0.3,13.1c-0.4,3.3-0.8,6.7-1.2,10c-0.4,4.2,0.1,8.4,0.6,12.6c0.1,1.3,0.7,2.6,1.3,3.8c0.7,1.4,1.5,2.9,1.9,4.4
		c0.8,2.7,2.4,4.8,4.3,6.7c5,5,10.2,9.7,16.2,13.6c4.2,2.7,8.4,5.4,13,7.3c2.7,1.1,5.5,1.9,8.3,2.4c-0.5-2.8,0.3-5.8,3-7.4
		c1.8-1.1,2.4-2.4,2.5-4.2c0.1-1.5,0.3-3,0.7-4.5c0.1-0.3,0.1-0.6,0-0.8c-1.6-1.1-3.2-2.2-4.9-3.3c-6.6-4.3-12-10-17.3-15.8
		c-2.2-2.5-3.6-5.5-4.5-8.7c-2-7.3-2.8-14.7-1.8-22.2c0.6-4.1,1.4-8.2,2.7-12.1c0.2-2.8,1-5.5,2.4-8c0.6-1.2,1-2.3,0.8-3.6
		c-0.3-1.9,0.1-3.7,0.9-5.4c0.9-1.9,1.9-3.8,2.8-5.6c2.9-5.4,4.8-10.9,3.6-17.1c-0.3-1.6-0.3-3.2-0.3-4.8c0-2.2,0.9-3.9,3-4.8
		c2-0.9,3.9-0.7,5.6,0.8c0.6,0.5,1.3,1.1,1.9,1.7c2.7,3,5.9,5.2,9.4,7.1c4.6,2.5,9.5,3.6,14.8,2.4c2.4-0.6,5-0.8,7.5-1
		c6.6-0.4,13.1,0.3,19.2,3c1.2,0.5,1.9,0.3,2.5-0.8c0.9-1.5,1.9-3,2.8-4.5c3.1-5.5,5.6-11.3,7.7-17.2c0.7-2,1.8-3.8,3.5-5.3
		c0.3,4.4,0.6,8.6,1.2,12.9c0.5,3.2,1.1,6.3,2.2,9.3c1.6,4.4,4,8.3,6.5,12.2c1.5,2.5,2.6,5.1,3.3,7.9c0.2,1,0.4,2-0.1,3
		c-0.4,0.7-0.6,1.4-0.6,2.1c2.5,2.1,4.7,4.4,6.5,7.3c1.5,2.4,2.3,5,3.3,7.6c0.9,2.5,1.6,5.1,2.2,7.7c0.5,2.4,0.9,4.7,1.1,7.1
		c0.1,0.7,0.1,1.4,0.1,2.2c0.2,6.1-0.2,12.1-2.4,17.9c-0.7,1.8-1.6,3.5-2.8,5.1c-4.5,5.7-9.1,11.3-14.6,16c0.5,0.2,0.8,0.6,1.1,1.1
		c0.5,0.9,0.6,2,0.5,2.9c-0.2,1.9,0.7,3,2.1,3.9c1,0.6,2,1.2,2.9,2c2,1.6,3,3.8,2.6,6.4c-0.1,0.6-0.2,1.1-0.5,1.6
		c0.6-0.3,1.2-0.6,1.8-1C552.9,481.5,562.6,473.5,570.2,463.1z"/>
	<path class="st5" d="M665.8,641.6l1.4-1.6l0.7-0.8c0.2-0.3,0.5-0.5,0.7-0.8l1.5-1.6c0.3-0.3,0.6-0.6,0.9-1
		c-2-16.1-6.8-31.5-13.3-46.4c-4.8-11-8.5-22.5-12-34c-2.3-7.4-2.4-15.1-1.8-22.7c0.4-5.6,1-11.2,1.5-16.9c-0.8-2.5-1.5-5-2.3-7.4
		c-0.2-0.6-0.2-1.2-1-1.8c-0.1,1.5-0.3,2.8-0.4,4.2c-0.2,3.8-1,7.5-2.2,11.1c-2.3,6.9-5,13.8-8.7,20.1c-1.5,2.5-2.5,5.1-3.1,8
		c-0.4,2.1-1.1,4.1-1.9,6c-0.9,2-1.6,2.3-3.7,1.5c-0.6-0.2-1.1-0.2-1.7-0.3c-3.6-0.3-6-2.9-5.9-6.6c0.2-7,1.1-13.9,5.7-19.8
		c3.3-4.3,4.1-9.5,4.1-14.8c0-8.2-0.5-16.3-1.2-24.4c-0.8-8.5-1.4-16.9-2.6-25.3c-0.8-6-4.1-10.8-9.8-13.2
		c-4.9-2.1-7.6-5.4-5.2-11.2c-3.5-3.9-6.5-8.2-8.6-13.2c-0.6-1.5-1.1-3-1.7-4.5c-0.5-1.5-1.2-3-2.1-4.2c-1.4,2-2.5,4.2-3.5,6.3
		c-0.4,0.9-0.8,1.9-0.9,2.9c-0.6,4.4-1.2,8.8-1.7,13.3c-0.3,2.8-0.7,5.5-1.3,8.2c-0.2,5,0.2,10,0.6,15.1c0.5,5.5,1.4,11,2.2,16.5
		c0.6,3.8,1.1,7.6,1.6,11.5c0.8,5.6,1.8,11.3,2.6,16.9c0.6,4.1,1.2,8.1,1.8,12.2c0.7,4.5,0.7,8.9,0.1,13.3c-1.1,7.9-4.2,15-8.5,21.6
		c-1.3,1.9-2.8,3.6-4.6,4.9c-2.5,1.8-5.1,3.6-7.7,5.2c-6.4,3.8-10.4,9.3-11.9,16.7c-0.3,1.6-0.6,3.2-1.3,4.6
		c-3.1,6.8-4.6,14-6.3,21.2c-0.6,2.3-1.1,4.6-0.8,7.2c0.9-0.6,1-1.4,1.2-2c1.3-3.4,2.7-6.7,4.5-9.8c1.3-2.3,3.4-3.6,5.7-4.8
		c0.9-0.5,1.6-0.4,1.8,0.8c1,4.1,2.2,8.1,3.1,12.2c1.7,7.4,3.2,14.7,4.8,22.1c1.6,7.5,1.8,15,1,22.5c-0.2,2.4-0.9,4.7-0.8,7.2
		c1,0,1.6-0.5,2.1-1c1.4-1.4,3.1-2.6,4.7-3.7c4.7-3.4,9.6-6.4,14.2-10c3.4-2.6,6.8-5.3,9.1-8.9c1.3-2,2.6-4,4.1-6
		c1.2-1.6,2.5-2.9,4.5-3.3c1.3-0.3,2.1-1,2.7-2.1c0.5-1,1-1.9,1.5-2.9c0.4-0.8,0.9-1.5,1.9-1.3c0.7,0.1,1,0.4,1.2,0.9
		c0.1-0.2,0.1-0.5,0.2-0.7c1.5-4.1,2.4-8.4,2.3-12.8c-0.1-2.3-0.5-4.5-1.1-6.7c1.2,0.6,1.5,1.6,1.8,2.7c1.4,4.8,1.7,9.6,0.5,14.4
		c-1.3,5.3-2.9,10.5-3.7,16c-0.6,4.2-1.2,8.3-1.6,12.5c-0.3,4-0.1,7.9,1,11.8c0.5,2,1,4,1.3,6H643c0.2-0.1,0.4-0.2,0.6-0.4
		c0.9-0.6,1.7-1.3,2.5-2c0.5-0.4,1-0.9,1.4-1.3c0.2-0.3,0.4-0.5,0.6-0.8c2-2.7,3.9-5.4,5.8-8.2c0.3-0.5,0.6-0.9,0.9-1.4
		c0-0.1,0.1-0.1,0.1-0.2c0.5-0.7,1-1.4,1.5-2.1c0,0,0.1-0.1,0.1-0.1c2.1-3,4.3-6.1,6.6-9C663.9,643.8,664.8,642.7,665.8,641.6z
		 M587.5,439.2l0-0.2l0.1,0.1L587.5,439.2z M587.9,438.1l0-0.2l0.1,0.1L587.9,438.1z"/>
	<path class="st5" d="M555.1,247.3c2.4,1.3,4.5,3.2,6.7,4.8c3.4,2.6,7.3,4.3,11.7,4.9c-2.3-1.4-4.4-3-6.3-4.8
		c-2.6-2.5-4.8-5.4-6.4-8.6c-2.7-5.2-2.8-10.6-1-16c-0.7,1.1-1.3,2.2-1.8,3.3c-0.3,0.8-0.7,1.6-1.1,2.4c-0.3,0.8-0.6,1.6-0.8,2.4
		c-1.2,3.2-1.4,6.5-1.9,9.9C554,246.3,554.4,246.9,555.1,247.3z"/>
	<path class="st5" d="M611.3,232.6c0,0,0-0.1,0-0.1c0-0.4,0-0.7-0.1-1.1c-1.6-2.2-3.1-4.6-5.3-6.2c-0.4-0.3-0.9-0.5-1.7-0.5
		c2.3,6.7,1.9,13.4,0,20.2C607.2,241.1,609.6,237.1,611.3,232.6z"/>
	<path class="st5" d="M577.9,234.9c2.3,1.7,5,2.4,7.8,2.5c2.9,0.1,4.9-3.8,3.4-6.3c-2.4-3.9-4.9-5.5-9.4-6.3
		c-1.1-0.2-1.7,0.2-2.2,1.1c-0.9,1.7-1.4,3.6-1.3,6C576.1,232.9,576.8,234,577.9,234.9z"/>
	<path class="st5" d="M383,246.6c2.2-0.7,4.5-1.3,6.4-2.9c1-0.8,1.7-1.9,1.7-3.2c-0.1-2.2-0.7-4.3-2-6.1c-0.5-0.7-1-1-1.9-0.8
		c-4.1,1.1-7.5,3.2-9.2,7.4c-0.2,0.5-0.4,0.9-0.3,1.4C377.8,245,380.2,247.5,383,246.6z"/>
	<path class="st5" d="M401.9,263c2.3-1.3,4.6-2.9,6.4-4.8c1.4-1.5,2.9-2.8,4.6-3.9c1-0.7,1.5-1.4,1.2-2.7c-0.9-3.6-1.6-7.2-3.3-10.5
		c-1.1-2.2-2.1-4.4-3.1-6.6c-0.3-0.7-0.5-1.6-1.7-2c3.1,6.2,4.1,12.5,1.3,18.8c-2.6,6-6.3,11.1-12.5,14.6c1.7,0,2.7-0.7,3.8-1.1
		C399.7,264.1,400.8,263.6,401.9,263z"/>
	<path class="st5" d="M364,255.6c-2.2-6.4-3.3-12.8-1.6-19.7c-1.5,0.3-2.3,0.9-3,1.8c-0.5,0.8-1,1.5-1.5,2.3
		c-2.7,4.2-2.7,2.9-0.2,7.3C359.4,250.3,361.5,253.1,364,255.6z"/>
	<path class="st5" d="M820.8,651.9c-1.7-3.3-3.7-6.4-6-9.3c-2.3-2.9-5-5.5-7.9-7.8c-2.9-2.3-6-4.3-9.3-5.9c0,0,0,0,0,0l-4.9-2.2
		c-0.8-0.7-1.6-1.4-2.4-2.1c-1-0.8-2.1-1.5-3.2-2.2c-5.7-3.2-12.2-5-18.6-6.1c-3.3-0.5-6.6-0.9-9.9-1.1c-2.2-0.1-4.4,0-6.5-0.4
		c-2.4-0.4-4.6-1.4-7-1.6c-0.9-0.1-1.8,0-2.8,0.1c-7.5,0.8-15.1,1.9-22.4,4.1c-3.7,1.1-7.2,2.5-10.7,4.2c-3.3,1.7-6.2,4-9.6,5.4
		c-0.8,0.3-1.6,0.7-2.5,1c-17.4,7.5-33,22.2-39.1,40.4c1.6-0.4,3.5,0.3,4.7-0.8c0.5-0.4,0.8-1,1.1-1.6c2.8-6.1,5.6-12.3,10.3-17
		c5.8-5.8,15-8.1,21.9-2.8c0,0,0,0,0-0.1c0,0,0.1,0.1,0.1,0.1c0.4,0.3,0.8,0.7,1.2,1c0,0,0,0,0,0c0.1,0.1,0.3,0.2,0.4,0.3
		c0.4,0.4,0.9,0.9,1.2,1.4c0.1,0.1,0.1,0.2,0.2,0.3c-0.6,0-1.2,0-1.8,0.1c-1.3,0.1-2.5,0.4-3.7,0.9c-2.4,0.9-4.5,2.2-6.6,3.6
		c-0.5,0.4-1,0.7-1.5,1.1l-0.8,0.6l-1.4,1l-0.7,0.5c0,0,0.7-0.2,0.8-0.2c3.6-1,7.2-1,10.7,0.6c0.3,0.1,0.5,0.3,0.8,0.4
		c0.3,0.2,0.5,0.3,0.8,0.5c0.5,0.3,1,0.7,1.5,1.1c0.9,0.8,1.7,1.7,2.5,2.7c0.8,1.1,1.5,2.3,2.1,3.5c-0.1,0.4-0.2,0.7-0.3,1.1
		c-0.1,0.2-0.1,0.4-0.1,0.6c0,0,0,0.1,0,0.1c-0.1,0.4-0.1,0.8-0.2,1.2c0,0.1,0,0.2,0,0.3c0,0.1,0,0.2,0.1,0.3c0,0.2,0.1,0.4,0.1,0.5
		c0,0,0-0.1,0-0.1c0,0,0,0.1,0,0.1c0,0,0,0,0,0.1c0,0,0,0,0,0c0.1,0.7,0.3,1.3,0.4,2c0.2,0.8,0.3,1.6,0.5,2.4c1,1.6,2,3.2,2.6,5
		c0.1,0.2,0.1,0.3,0.2,0.5c0,0,0,0.1,0,0.1c0,0.2,0.1,0.3,0.1,0.5c0,0,0,0,0,0c0,0.2,0.1,0.4,0.1,0.5c0,0.1,0,0.1,0,0.2
		c0,0.2,0.1,0.3,0.1,0.5c0,0,0,0.1,0,0.1c0,0.2,0,0.3,0.1,0.5c0,0.1,0,0.1,0,0.2c0,0.1,0,0.3,0,0.4c0,0.1,0,0.2,0,0.2
		c0,0.1,0,0.3,0,0.4c0,0.1,0,0.2,0,0.3c0,0.1,0,0.2,0,0.3c0,0.2,0,0.4,0,0.6c0,0,0,0.1,0,0.1c0,0.1,0,0.3,0,0.4c0,0,0,0,0,0
		c0,0.3,0,0.5,0,0.8c0.1,0.1,0.2,0.3,0.3,0.4c0.6,0.8,1.3,1.6,1.9,2.4c2.4,2.1,4.8,4.1,7.9,4.8c4.6,1.1,9.4-0.4,14.1-0.1
		c0.9,0.1,1.9,0.2,2.7-0.1c1.6-0.7,2.6-3.2,3.5-4.7c1.3-2.2,2.4-4.5,3.3-6.9c1.7-4.6,2.7-9.4,3.1-14.2c0.6-7.7-0.8-15.4-3.9-22.5
		c-1.5-3.5-3.4-6.9-5.7-10c-2.3-3.1-4.8-6-7.7-8.6c-0.3-0.3-0.7-0.6-1.1-1l-1.9-1.6l0,0c0,0,0,0,0,0l0.1,0l0.2,0l0.3,0.1l0.7,0.2
		l1.1,0.3l0.4,0.1l0.3,0.1l0.7,0.2c1.9,0.6,3.7,1.3,5.4,2.2c15.9,8.3,22.8,25.1,23.8,42.2c0,0.1,0,0.2,0,0.3c0,0.5,0,1,0,1.5
		c0,0.5,0,1-0.1,1.4c0,0.5-0.1,0.9-0.1,1.4c0,0.3-0.1,0.7-0.2,1c0,0.2-0.1,0.6-0.2,0.9c0,0.2-0.1,0.4-0.1,0.6
		c-0.4,2.8-1.4,5.6-2.3,8.3c-1,2.9-2.6,5.7-1.4,8.7c2.5,6.4,8.2,8.4,14.4,9.4c0.8,0.1,1.6,0.2,2.4,0.3c1,0.1,2,0.3,3,0.3
		c1.3,0.1,2.5,0.3,3.8,0.4c0.2,0,0.5,0,0.7,0.1c0.2,0,0.4,0,0.6,0c0.4,0,0.9,0,1.3,0c0,0,0-0.1,0-0.1c0.5-2.4,1.8-4.5,2.9-6.7
		c5.3-10.2,7.3-22.4,5.6-34c-1.5-10.8-7.6-20.8-15.2-28.5c-0.7-0.7-1.6-1.7-1.4-2.8c2.7,0.7,5.5,2.9,7.9,4.4
		c2.9,1.8,5.7,3.7,8.3,5.9c4.7,3.9,9.2,9,10.1,15.3c1.8,12,5.2,12.7,3.6,24.8c-0.4,3.2-2.4,6.1-3,9.3c-0.9,4.5-1.2,8.7-2.9,13
		c-0.1,0.3-0.3,0.5-0.3,0.8c-0.1,0.3-0.2,2.6-0.8,2.4c2.2,0.7,12.6,2.8,13.1-1l0.3-2.1l2.6-14.4c2.5-14.3,2.9-28.4-3.5-41.7
		c-1.4-2.8-3.8-8.3-5.6-9.9c0.2,0.2,0.4,0.4,0.6,0.6c3.5,3.4,6.8,6.5,9.5,10.7c3.1,4.8,5.7,10.3,7.7,15.7c0.2,0.4,0.3,0.9,0.4,1.3
		c0.6,1.7,1,3.5,1.4,5.3c0.7,3.6,1.1,7.2,1.1,10.7c-0.1,3.6-0.5,7.2-1.3,10.6c-0.2,1.1-0.5,2.1-0.9,3.2c0.3-0.1,0.6-0.2,0.9-0.3
		c0.9-0.4,1.7-1,2.3-1.7c0.6-0.7,1.2-1.5,1.6-2.3c0.4-0.8,0.8-1.7,1.1-2.6c0.2-0.4,0.3-0.9,0.4-1.3
		C827.6,676.4,826.5,663.1,820.8,651.9z M704.1,624.9C704.1,624.9,704.1,624.9,704.1,624.9c0.1,0,0.1-0.1,0.1-0.1
		C704.2,624.8,704.2,624.9,704.1,624.9z"/>
	<path class="st5" d="M284.1,628.2c-0.8-0.3-1.6-0.7-2.5-1c-3.4-1.3-6.3-3.7-9.6-5.4c-3.4-1.7-7-3.1-10.7-4.2
		c-7.3-2.2-14.8-3.3-22.4-4.1c-0.9-0.1-1.8-0.2-2.8-0.1c-2.4,0.2-4.6,1.2-7,1.6c-2.2,0.3-4.3,0.2-6.5,0.4c-3.3,0.2-6.6,0.5-9.9,1.1
		c-6.5,1.1-12.9,2.9-18.6,6.1c-1.1,0.6-2.2,1.3-3.2,2.2c-0.8,0.7-1.6,1.4-2.4,2.1l-4.9,2.2c0,0,0,0,0,0c-3.3,1.6-6.4,3.6-9.3,5.9
		c-2.9,2.3-5.5,4.9-7.9,7.8c-2.3,2.9-4.4,6-6,9.3c-5.6,11.2-6.8,24.4-3.5,36.5c0.1,0.4,0.2,0.9,0.4,1.3c0.3,0.9,0.7,1.8,1.1,2.6
		c0.4,0.8,1,1.6,1.6,2.3c0.6,0.7,1.4,1.3,2.3,1.7c0.3,0.1,0.6,0.2,0.9,0.3c-0.3-1-0.6-2.1-0.9-3.2c-0.8-3.5-1.2-7-1.3-10.6
		c0-3.6,0.4-7.2,1.1-10.7c0.4-1.8,0.8-3.5,1.4-5.3c0.1-0.4,0.3-0.9,0.4-1.3c2-5.4,4.7-10.8,7.7-15.7c2.6-4.2,5.9-7.3,9.5-10.7
		c0.2-0.2,0.4-0.4,0.6-0.6c-1.8,1.7-4.2,7.1-5.6,9.9c-6.4,13.3-6.1,27.5-3.5,41.7l2.6,14.4l0.3,2.1c0.5,3.8,11,1.7,13.1,1
		c-0.6,0.2-0.7-2.1-0.8-2.4c0-0.3-0.2-0.5-0.3-0.8c-1.7-4.3-2-8.5-2.9-13c-0.6-3.2-2.6-6.1-3-9.3c-1.6-12,1.7-12.8,3.6-24.8
		c1-6.3,5.4-11.4,10.1-15.3c2.6-2.2,5.4-4.1,8.3-5.9c2.3-1.5,5.2-3.7,7.9-4.4c0.1,1-0.7,2-1.4,2.8c-7.6,7.7-13.6,17.7-15.2,28.5
		c-1.6,11.6,0.4,23.8,5.6,34c1.1,2.2,2.4,4.3,2.9,6.7c0,0,0,0.1,0,0.1c0.4,0,0.9,0,1.3,0c0.2,0,0.4,0,0.6,0c0.2,0,0.5,0,0.7-0.1
		c1.3-0.1,2.5-0.3,3.8-0.4c1-0.1,2-0.2,3-0.3c0.8-0.1,1.6-0.2,2.4-0.3c6.2-1,11.9-3,14.4-9.4c1.2-3-0.5-5.8-1.4-8.7
		c-0.9-2.7-1.9-5.5-2.3-8.3c0-0.2-0.1-0.4-0.1-0.6c-0.1-0.2-0.1-0.6-0.2-0.9c-0.1-0.3-0.1-0.7-0.2-1c0-0.5-0.1-0.9-0.1-1.4
		c0-0.5,0-1-0.1-1.4c0-0.5,0-1,0-1.5c0-0.1,0-0.2,0-0.3c1-17,7.9-33.8,23.8-42.2c1.7-0.9,3.5-1.6,5.4-2.2l0.7-0.2l0.3-0.1l0.4-0.1
		l1.1-0.3l0.7-0.2l0.3-0.1l0.2,0l0.1,0c0,0,0,0,0,0l0,0l-1.9,1.6c-0.4,0.3-0.7,0.6-1.1,1c-2.8,2.6-5.4,5.5-7.7,8.6
		c-2.3,3.1-4.2,6.5-5.7,10c-3.1,7-4.4,14.8-3.9,22.5c0.4,4.9,1.4,9.7,3.1,14.2c0.9,2.4,2,4.7,3.3,6.9c0.9,1.5,1.8,4,3.5,4.7
		c0.8,0.3,1.8,0.2,2.7,0.1c4.7-0.4,9.5,1.1,14.1,0.1c3.1-0.7,5.5-2.7,7.9-4.8c0.7-0.8,1.3-1.6,1.9-2.4c0.1-0.1,0.2-0.3,0.3-0.4
		c0-0.3,0-0.5,0-0.8c0,0,0,0,0,0c0-0.1,0-0.3,0-0.4c0,0,0-0.1,0-0.1c0-0.2,0-0.4,0-0.6c0-0.1,0-0.2,0-0.3c0-0.1,0-0.2,0-0.3
		c0-0.1,0-0.3,0-0.4c0-0.1,0-0.2,0-0.2c0-0.1,0-0.3,0-0.4c0-0.1,0-0.1,0-0.2c0-0.2,0-0.3,0.1-0.5c0,0,0-0.1,0-0.1
		c0-0.2,0.1-0.3,0.1-0.5c0-0.1,0-0.1,0-0.2c0-0.2,0.1-0.4,0.1-0.5c0,0,0,0,0,0c0-0.2,0.1-0.3,0.1-0.5c0,0,0-0.1,0-0.1
		c0.1-0.2,0.1-0.3,0.2-0.5c0.6-1.8,1.6-3.4,2.6-5c0.2-0.8,0.3-1.6,0.5-2.4c0.1-0.7,0.3-1.3,0.4-2c0,0,0,0,0,0c0,0,0,0,0-0.1
		c0,0,0-0.1,0-0.1c0,0,0,0.1,0,0.1c0-0.2,0.1-0.4,0.1-0.5c0-0.1,0-0.2,0.1-0.3c0-0.1,0-0.2,0-0.3c0-0.4-0.1-0.8-0.2-1.2
		c0,0,0-0.1,0-0.1c0-0.2-0.1-0.4-0.1-0.6c-0.1-0.4-0.2-0.7-0.3-1.1c0.6-1.2,1.3-2.4,2.1-3.5c0.7-1,1.6-1.9,2.5-2.7
		c0.5-0.4,1-0.8,1.5-1.1c0.3-0.2,0.5-0.3,0.8-0.5c0.3-0.1,0.5-0.3,0.8-0.4c3.4-1.6,7.1-1.6,10.7-0.6c0.1,0,0.8,0.2,0.8,0.2l-0.7-0.5
		l-1.4-1l-0.8-0.6c-0.5-0.4-1-0.7-1.5-1.1c-2.1-1.4-4.2-2.7-6.6-3.6c-1.2-0.4-2.4-0.7-3.7-0.9c-0.6-0.1-1.2-0.1-1.8-0.1
		c0.1-0.1,0.1-0.2,0.2-0.3c0.4-0.5,0.8-0.9,1.2-1.4c0.1-0.1,0.3-0.2,0.4-0.3c0,0,0,0,0,0c0.4-0.4,0.8-0.7,1.2-1c0,0,0.1-0.1,0.1-0.1
		c0,0,0,0.1,0,0.1c6.9-5.3,16.1-3,21.9,2.8c4.7,4.7,7.5,11,10.3,17c0.3,0.6,0.6,1.2,1.1,1.6c1.3,1,3.1,0.4,4.7,0.8
		C317.1,650.4,301.5,635.7,284.1,628.2z M277,624.8c0,0,0.1,0.1,0.1,0.1c0,0,0,0,0,0C277.1,624.9,277.1,624.8,277,624.8z"/>
</g>
</svg>
