<?xml version="1.0" encoding="utf-8"?>
<!-- Generator: Adobe Illustrator 24.0.1, SVG Export Plug-In . SVG Version: 6.00 Build 0)  -->
<svg version="1.1" id="Layer_1" xmlns="http://www.w3.org/2000/svg" xmlns:xlink="http://www.w3.org/1999/xlink" x="0px" y="0px"
	 viewBox="0 0 990 781.2" style="enable-background:new 0 0 990 781.2;" xml:space="preserve">
<style type="text/css">
	.st0{fill:#3D3D3D;}
	.st1{fill:#442705;}
	.st2{fill:#A38249;}
	.st3{fill:#A85C00;}
	.st4{fill:#FFFFFF;}
</style>
<g>
	<path d="M206.9,735.7c-0.4,1.9-0.7,3.2-0.9,4.5c-0.6,3.7-2.8,6.6-5,9.4c-1.2,1.6-3.1,1.6-4.9,1.1c-5.4-1.5-10.2-4-14.1-8.2
		c-4-4.4-7.9-8.8-11-13.9c-0.7-1.2-1.7-2.1-2.9-2.8c-7.7-4.5-13.3-11.2-17.7-18.8c-0.3-0.6-0.6-1.1-0.9-1.7
		c-1.7-4.7-3.6-9.5-4.1-14.5c-1.1-10-1.5-20,2.4-29.5c0.1-0.3,0.2-0.6,0.3-0.9c2.3-8.8,7.2-16,14.2-21.7c6.9-5.6,13.7-11.3,21-16.3
		c12.3-8.6,26-13.5,40.9-15.4c1.3-0.2,2.7-0.4,4-0.6c0.1,0,0.1-0.1,0.2-0.1c0.2-0.9-0.5-1.5-0.8-2.2c-1-2.2-1.4-4.4-1-6.8
		c0.6-3.5,3.2-6.1,6.7-6.6c3.8-0.5,7.3-1.6,10.7-3.3c7.1-3.6,14.3-6.9,21.5-10c4.8-2.1,9.1-4.9,13.2-8.2c3.7-3,7.1-6.4,10.5-9.8
		c0.3-0.3,0.6-0.5,0.6-1.2c-0.7-0.6-1.7-0.5-2.5-0.6c-1.4-0.2-2.9-0.3-4.2-0.7c-5.6-1.7-7.6-6.7-4.7-11.7c0.6-1.1,1.4-2.1,2.2-3.1
		c2.1-2.5,4.2-5.1,6.3-7.6c5.1-6.2,7.7-13.4,8.8-21.2c0.4-3,0.1-6.1-0.9-9c-1.6-5-3.2-9.9-5.2-14.7c-0.2-0.6-0.3-1.3-1.2-1.5
		c-0.9,2.4-1.2,4.9-1.3,7.4c-0.1,1.3,0.1,2.6,0.1,3.8c0.1,1.6,0,3.2-0.5,4.7c-1,2.8-3.6,4-6.4,2.8c-1.1-0.4-1.9-1.2-2.7-2
		c-5.2-4.8-9.1-10.5-12-16.9c-6.2-14-9.4-28.5-8.2-43.8c0.2-2.1,0.5-4.3,0.8-6.4c0.1-1,0.4-2,0.1-2.9c-0.7-0.2-1,0.3-1.3,0.6
		c-3.5,3.3-7.4,6.1-11.5,8.7c-3.5,2.3-7.1,4.6-10.7,6.9c-2.4,1.5-4.9,2.7-7.7,3.1c-3.9,0.5-6.2-0.9-7.7-4.6c-1-2.4-1.9-4.7-3-7.1
		c-1.6-3.5-3.1-7-3.8-10.8c-0.3-1.4-0.7-2.8-1.3-4.1c-2.8-6.6-3.9-13.5-4.7-20.5c0-0.4,0-0.8-0.1-1.2c-0.1-0.7-0.5-1-1.2-0.6
		c-0.5,0.2-1,0.6-1.4,0.9c-3,1.7-6.3,2.8-9.8,2.9c-5,0.1-7.9-2.8-7.8-7.9c0.1-2.2,0.6-4.3,1.4-6.3c4.9-13,6.5-26.5,6.9-40.2
		c0.1-3.4-0.6-6.7-1.7-9.9c-0.9-2.9-2-5.7-3-8.6c-4.2-12-6.3-24.3-5.5-37c0.3-4.4,1-8.7,2.2-13c0.3-1.2,0.5-2.5,0.4-3.8
		c-0.3-2.5,0.3-4.9,1.1-7.3c1.8-5.4,4.7-10.2,8.2-14.6c6.6-8.4,14-16,22.4-22.7c5.8-4.6,11.4-9.5,17-14.5c3.7-3.3,6.8-7.2,9.8-11.2
		c7.2-9.6,12.9-20,17.9-30.8c3.1-6.8,7.1-13,10.8-19.5c0.2-0.3,0.4-0.7,0.6-1c1.3-2.3,1.3-2.4-0.5-4.3c-2.7-2.9-3.2-6.2-1.6-9.7
		c0.5-1,1-2,1.7-2.9c3-4.5,6.7-8.3,11.1-11.5c3.7-2.7,7.6-5.1,11.4-7.5c0.7-0.4,1.7-0.7,1.9-1.7c-0.9-0.7-2.1-0.8-3.1-1.2
		c-3.4-1.2-6.4-2.9-8.3-6.1c-0.4-0.8-1.2-1.3-1.8-1.9c-2.5-2.4-2.4-5.5,0.5-7.6c0.6-0.5,1.4-0.8,2.1-1.2c9-5,17.5-10.7,26.1-16.2
		c15.7-10.1,32.2-18.7,50.3-23.9c10.8-3.1,21.7-3.3,32.8-1.4c6.1,1.1,12.2,2.4,18.1,4.6c0.3,0.1,0.6,0.2,0.9,0.3
		c0.5,0,0.7-0.4,0.5-0.8c-0.4-0.6-0.9-1.1-1.4-1.6c-1.4-1.5-2.9-3-3.8-4.9c-1.4-3-0.7-6.1,1.8-8c1.4-1.1,3.1-1.7,4.7-1.1
		c5.7,1.8,11.7,2,17.4,3.2c8.8,1.9,17.2,4.8,25.3,8.7c2.4,1.2,4.6,2.6,6.7,4.1c2.2,1.6,2.3,1.6,3.4-1c1.8-4,3.9-7.9,6.4-11.5
		c4.4-6.2,9.7-11.2,16.2-15.2c3.5-2.2,7.2-4.2,10.9-6.1c5-2.6,10.3-3.9,15.7-4.9c0.8-0.1,1.6-0.2,2.4-0.1c3.2,0.3,5.2,3.3,4.2,6.4
		c-0.3,1.1-0.9,2-1.7,2.8c-1.1,1.2-2.3,2.2-3.3,3.4c-4.5,5-7.4,10.8-7.6,17.6c0,0.9-0.4,2.3,0.6,2.6c1.1,0.4,1.3-1.1,1.9-1.8
		c0.8-1,1.5-2.1,2.2-3.2c3.4-5,7.7-8.9,12.9-11.9c4.7-2.7,9.6-4.8,14.5-6.8c2-0.8,3.9-0.7,5.6,0.8c1.6,1.5,1.9,3.4,1.3,5.5
		c-0.6,1.9-1.5,3.7-2.4,5.5c-3,5.4-5.4,11.1-7.2,16.9c-0.1,0.5-0.3,0.9-0.4,1.4c-0.1,0.6,0.2,1,0.9,0.7c0.7-0.3,1.3-0.7,1.9-1
		c7.4-4.2,15.2-7.1,23.6-8.5c10.3-1.7,20.2-0.4,29.8,3.8c4,1.8,8.2,3.3,12.3,4.8c7.6,2.8,14.9,6.3,22.2,9.7c3.5,1.6,7,3,10.8,4
		c1.8,0.5,3.5,1,5.2,1.8c1.8,0.9,3.1,2.1,3.1,4.2c0,2-1.1,3.2-2.8,4.1c-5.1,2.8-9.8,6.3-15.3,8.5c-0.2,0.1-0.4,0.3-0.4,0.6
		c0.2,0.6,0.8,0.6,1.3,0.8c9.6,3.6,17.9,9.3,25.5,16c13.5,12,28.1,22.4,44,31.1c6.4,3.5,11.8,8.3,16.3,14c0.8,1,1.5,2.1,2.1,3.2
		c2,3.8,1.3,7.7-2,10.4c-2.6,2.1-1.8,2.4-0.5,4.2c1.2,1.6,2.4,3.2,3.6,4.8c1,1.3,2.3,2.5,3.6,3.5c1.6,1.1,3.7,1.5,5,2.7
		c1.5,1.3,3,2.3,4.7,3.2c4.2,2.3,8.4,4.7,12.4,7.3c11.1,7.1,18.9,16.8,23.7,29.1c5.2,13.2,8,26.9,8.7,41.1c0.5,9.5,0.6,19,0.4,28.5
		c-0.2,9-1,17.9-1.6,26.8c-0.4,7.2-1.2,14.3-1.3,21.5c0,0.6,0,1.3-0.1,1.9c-0.8,6.1-5.7,9.9-11.8,9.2c-2.8-0.3-5.3-1.3-7.5-3
		c-0.2-0.1-0.4-0.3-0.6-0.4c-0.5-0.3-0.9-1.1-1.6-0.8c-0.8,0.4-0.4,1.3-0.4,1.9c0.4,4.1,0.8,8.1,1.6,12.1c0.9,4.6,2.2,9,3.9,13.3
		c0.6,1.5,1.2,3,1.6,4.5c2.4,7.7,6,14.8,10.6,21.4c0.4,0.6,0.8,1.2,1.2,1.8c2.9,4.8,1.6,10.1-3.2,13.1c-2.1,1.3-4.4,1.9-6.8,2.2
		c-8.1,1.2-16.1,0.4-23.9-2.2c-0.9-0.3-1.9-1.2-2.6-0.3c-0.7,0.8,0.3,1.8,0.7,2.6c1.4,3.1,2.9,6.1,4.3,9.1c2.8,6,0.8,11.2-5.4,13.5
		c-8.3,3.1-16.4,2.5-24.1-1.7c-7.4-4-13.9-9.2-19.4-15.5c-3.9-4.5-6.2-9.8-8.3-15.3c-0.3-0.7-0.2-1.6-1.1-2c-0.6,0-0.7,0.4-0.8,0.8
		c-2.7,6.9-4.4,14-4.7,21.4c-0.2,4.3,0.6,8.4,2.1,12.5c0.4,1,0.8,1.9,1.2,2.9c1.5,4,3.7,7.5,6.9,10.5c3.1,3,6,6.2,9,9.3
		c1.3,1.4,2.8,2.6,4.5,3.5c2.8,1.4,4.2,3.6,4,6.8c-0.3,3.3-2.2,5.2-5.2,6.2c-4.7,1.5-9.5,1.9-14.4,1.1c-1.9-0.3-3.8-0.6-5.7-0.7
		c-1.8-0.2-2.1,0.2-1.3,1.8c6.7,14,16,26,28.5,35.3c0.8,0.6,1.5,1.2,2.2,1.8c3.7,3.5,4.3,8,1.6,12.4c-1.7,2.7-4.1,4.7-6.8,6.3
		c-1,0.6-2,1.1-2.9,1.6c-0.8,0.4-0.7,1-0.1,1.5c0.4,0.3,0.8,0.6,1.2,0.9c11.9,8.7,19.2,20.1,21.3,34.8c0.5,3.7,0.8,7.5,0.5,11.2
		c-0.1,1.9,0.5,3.4,2,4.6c1.5,1.2,2.9,2.6,4.2,3.9c0.8,0.8,1.7,1.1,2.8,1c15.5-1.1,30.4,1.4,44.8,7.3c8.2,3.3,16.5,6.6,23.9,11.6
		c3.1,2.1,6,4.5,8.8,7c7.4,6.7,12.3,15.2,17.6,23.5c1.5,2.4,2.7,4.9,3.9,7.4c2.8,5.6,3.4,11.4,2.3,17.5c-1.5,8.4-3.9,16.5-6.9,24.4
		c-1.1,2.9-2.9,5.3-4.7,7.8c-3.5,4.7-7.3,9.1-12.6,12c-2,1.1-3.6,2.6-4.8,4.6c-3,5.2-7.1,9.5-11.1,13.8c-3.7,4-8.5,6.2-13.6,7.6
		c-2.5,0.7-3.9-0.2-5.6-2.2c-3-3.6-4.4-7.7-4.9-12.2c-0.9-0.3-1.3,0.4-1.7,0.8c-1.3,1.3-2.6,2.6-4,3.8c-1.5,1.4-3,2.8-4.8,3.9
		c-3.7,2.3-7.4,1.4-9.5-2.5c-1.8-3.3-2.7-6.8-2.9-10.5c-0.1-1.2-0.1-2.4,0-3.6c0.1-1.6-0.5-2.7-1.8-3.6c-1.5-1-3-1.9-4.6-2.6
		c-4.1-1.7-6.8-4.6-8.1-8.9c-0.1-0.4-0.3-0.7-0.4-1.1c-0.3-0.7-0.8-0.7-1.4-0.4c-0.7,0.3-1.2,0.8-1.7,1.4c-1.7,1.8-2.6,4-3.3,6.3
		c-1.8,5.8-5,10.7-9.9,14.4c-3.7,2.8-8.1,2.1-10.8-1.8c-1.7-2.6-2.7-5.4-3.2-8.5c-0.7-5-0.7-5-5.2-7.5c-1.2-0.7-2.3-1.4-3.3-2.3
		c-2.7-2.3-5.2-4.8-7.6-7.3c-0.7-0.7-1.6-1.5-1.9-2.5c-0.8-2.5-2.6-2.6-4.8-2.6c-128.5,0-257.1,0-385.6,0c-0.6,0-1.1,0-1.7,0
		c-1.3-0.1-2.3,0.2-2.7,1.6c-0.2,0.6-0.6,1.2-1,1.6c-3.9,4.4-7.8,8.7-13,11.7c-0.6,0.4-1.2,0.7-1.9,1.1c-1.5,0.9-2.3,2.1-2.5,3.9
		c-0.4,3.3-1,6.7-2.8,9.6c-0.5,0.7-0.9,1.5-1.5,2.2c-2.6,2.9-6.5,3.4-9.7,1c-5-3.7-8.2-8.6-10.2-14.5c-0.7-2.1-1.4-4.1-2.8-5.8
		c-0.3-0.4-0.6-0.7-0.9-1.1c-1.7-1.6-2.3-1.5-3,0.7c-1.3,4.2-3.9,7-7.9,8.8c-1.5,0.6-2.8,1.5-4.2,2.3c-1.8,1-2.6,2.4-2.4,4.5
		c0.4,4.1-0.4,8-1.9,11.7c-0.5,1.2-1,2.3-1.9,3.3c-2.2,2.5-5.1,3-8,1.3c-2.2-1.3-4.1-3-5.9-4.8C210.2,739,208.8,737.5,206.9,735.7z"
		/>
</g>
<g>
	<path class="st0" d="M455.6,368c1,0.8,2.4-0.3,3.6-0.6c1-0.3,2-0.6,3-1c6.1-2.2,12.3-3.3,18.7-3.9c7.5-0.6,14.6,1,21.8,2.7
		c4,1,8,2.2,12.2,2.2c2,0,4,0,5.3-2.1c0.1-0.3,0.5-0.6,0.7-0.6c1.6,0.3,2.2-0.6,2.7-1.6c0.2-0.4,0.4-0.8,0.7-1.1
		c0.6-0.9,0.3-1.5-0.5-2c-4.5-3.2-9.2-6.1-14.8-7c-4.4-0.7-8.9-1.4-13.2-2.3c-7.4-1.6-14.7-2.1-22.1-0.7c-7.8,1.5-15,4-21,9.3
		c-0.7,0.6-1.1,1.3-1.2,2c-0.1,0.4,0,0.9,0.1,1.4C452,365.3,453.8,366.7,455.6,368z"/>
	<path class="st0" d="M440.1,396.2c0.1,1.2,0.7,1.8,1.9,2.1c1.8,0.4,3.6,0.9,5.4,1c2.4,0.1,4.8,0.2,7.2,0.7c1.5,0.3,2.8,0,4.2-0.7
		c3.2-1.6,3.2-1.6,1.6-4.8c-1.2-2.4-2.3-4.9-2.1-7.8c0.2-2.9,1.5-5.2,4.3-6.4c4-1.7,11.7,0.1,13.1,6.6c0.3,1.4,0.4,2.8,0.5,4.3
		c0.4,6.1-1.6,11-7.1,14.1c-1.3,0.7-2.5,1.4-3.9,1.9c-4.5,1.8-9,2.6-13.9,2c-1.5-0.2-3-0.4-4.4,0c0.1,0.3,0,0.5,0.1,0.6
		c2.8,2.7,5.6,5.5,8.9,7.6c7.5,4.8,15.8,8.2,22.7,13.9c0.5,0.4,1.1,1,1.5,0.8c3-13.2,4.9-26.3,5.6-39.5c0.8,3.9,0.6,7.8,0.9,11.7
		c0.3,4.8,0.9,9.6,2.5,14.1c1.3,3.8,2.2,7.7,2.7,11.6c0.1,0.5-0.1,1.1,0.7,1.6c0.9-0.5,2-1,3-1.6c3.7-2.1,7.7-3.5,11.9-4.4
		c3.1-0.7,6.2-1.5,9.3-2.5c9-2.7,15.3-8.7,19.6-16.9c0.3-0.6,0.9-1.2,0.4-2c-2.1,0.9-4.3,1.8-6.6,2.2c-2.3,0.5-4.6,0.6-6.9,0.7
		c-4.1,0.2-8.1-0.1-12.2,0.3c-2.3,0.2-4.3-0.9-6.1-2.4c-0.5-0.4-0.8-1-1.5-1.1c-2.5-0.4-3.3-2.3-4-4.3c-1-3.3-1.3-6.8-0.8-10.2
		c0.2-1.1,0.4-2,0.8-2.9c0.2-0.5,0.5-1,0.8-1.5c1.2-1.9,3-3.3,5.5-4.1c4.9-1.6,11.6,1.3,11.1,8.7c-0.2,2.2-0.9,4.2-2.1,6.1
		c-0.4,0.6-1,1-1.2,2.2c3.9,0.5,7.4,2.1,11.1,3c3.5,0.9,6.8,0.4,10.1-0.6c2.4-0.8,3.9-2.6,4.4-5c0.6-3.1,0.9-6.4,0.5-9.6
		c-0.2-1.9-0.3-4-1.8-5.4c-2.5-2.4-5.4-4.4-9-4.5c-4.1,0-8.3-0.8-12.4,0.6c-1.6,0.6-3.3,0.4-5,0.3c-3.8-0.1-7.5-0.6-11.2-1.2
		c-11.9-2.2-23.8-2.9-35.7-0.1c-2.7,0.6-5.6,1.1-8.3,0.6c-2-0.4-3.9-0.6-5.9-0.5c-1.8,0.1-3.5-0.3-5.2-0.8c-2.1-0.6-3.9-0.2-4.6,2.4
		c-0.6,2.3-1.2,4.5-1.2,6.8c0,2.5,0,5,0.1,7.4C439.6,392.9,439.9,394.6,440.1,396.2z"/>
	<path class="st0" d="M508,466.2c-2.4-0.8-4.9-1.6-7.4-2.1c-6.4-1.2-12.5-3.1-17.8-7.9c-0.2,0.3-0.3,0.7-0.5,0.9
		c-2.8,3.5-6.3,5.8-10.9,6.4c-0.3,0-0.6,0.2-0.9,0.4c-5.2,3.2-11.1,4-17,4.3c-0.8,0-1.7-0.1-2.5,0.3c0.1,0.3,0.1,0.5,0.2,0.6
		c4.8,3.4,9.7,6.3,15.8,7.1c6.4,0.8,12.7,1.2,19.1,1.5c8.5,0.5,16.8-0.6,24.3-5c1.7-1,3.7-1.5,5.7-1.7c0.9-0.1,1.8,0,2.8-0.6
		c-0.6-0.8-1.5-0.9-2.2-1.1C513.8,468.1,510.9,467.2,508,466.2z"/>
	<path class="st0" d="M231.2,677.8c0.8-13.7,5.1-27.2,14-37l-0.8-0.6c0,0,0,0,0,0c-8.7,1.1-16.7,6.8-21.2,14.4c-1.2,1.9-2,4-2.7,6.1
		c-0.6,2.1-1,4.4-1.2,6.6c-0.2,2.2-0.3,4.3-0.9,6.3c-0.3,1-0.7,1.9-1.3,2.6c-0.6,0.7-1.4,1.4-2.2,1.8c-1.7,0.9-3.7,0.9-4.9-0.5
		c-0.2-0.2-0.4-0.4-0.7-0.7c-0.3-0.2-0.7-0.5-1.2-0.6c-1-0.1-1.7,0.3-2.3,0.7c-1,0.8-1.8,1.8-2.3,2.9c-1.1,2.2-1.5,4.5-1.6,6.8
		c-0.1,2.3,0,4.5,0,6.6l0.2,12.3c0.5,1.1,1,2.1,1.5,3.1c1.2,2.4,2.6,4.7,3.2,7.4c0,0,0,0.1,0,0.1c0.5,0,0.9,0,1.4,0
		c0.2,0,0.5,0,0.7-0.1c0.3,0,0.5,0,0.8-0.1c1.3-0.1,2.7-0.3,4-0.4c1.1-0.1,2.3-0.2,3.4-0.4c0.9-0.1,1.8-0.2,2.7-0.4
		c6.9-1.1,13.2-3.3,15.9-10.4c1.3-3.4-0.5-6.4-1.6-9.6c-1-3-2.1-6.1-2.5-9.2c0-0.2-0.1-0.5-0.1-0.7c-0.1-0.3-0.2-0.7-0.2-1
		c-0.1-0.3-0.1-0.7-0.2-1c0-0.1,0-0.1,0-0.2c0-0.5-0.1-1-0.1-1.5c0-0.5,0-1.1-0.1-1.6c0-0.6,0-1.1,0-1.7
		C231.2,678,231.2,677.9,231.2,677.8z"/>
	<path class="st0" d="M178,657.9c-1.9,2-3.5,4.3-4.9,6.6c-3.2,11.8-2.5,24-0.3,36.3l2.9,15.9l0.3,2.3c0.6,4.2,12.1,1.9,14.5,1.1
		c-0.6,0.2-0.8-2.3-0.9-2.6c-0.1-0.3-0.2-0.6-0.3-0.9c-1.9-4.7-2.2-9.3-3.1-14.3c-0.7-3.5-2.9-6.7-3.3-10.3
		c-1.4-10.6,0.7-13.2,2.6-20.6c0.2-0.9,0.4-1.9,0.7-2.8c0.3-1.2,0.5-2.5,0.7-4c1.1-6.9,6-12.5,11.2-16.9c0,0,0,0,0,0
		C190.5,648.7,183.3,652.4,178,657.9z"/>
	<path class="st0" d="M305.5,637.5C305.5,637.5,305.5,637.5,305.5,637.5c-2.6-0.3-5.2-0.4-7.9-0.4c-2.6,0-5.3,0.1-7.9,0.4
		c-2.6,0.4-5.2,1-7.7,2c-2.5,1-4.8,2.6-6.8,4.3c-2,1.8-3.7,4-5.1,6.2c-1.4,2.3-2.5,4.7-3.4,7.2c-1.8,5-2.8,10.3-3.4,15.5
		c-0.3,2.6-0.6,5.2-0.8,7.9c-0.2,2.6-0.2,5.3,0.1,8c0.5,5.3,2.5,10.8,6.5,14.8c0.5,0.5,1.1,1,1.7,1.4c1.3,0,2.7-0.1,4-0.4
		c3.3-0.7,5.8-2.7,8.3-4.9c0.3-0.3,0.6-0.6,0.9-0.9c0.6-0.7,1.2-1.4,1.7-2.1c0.1-0.1,0.2-0.3,0.3-0.4c0-0.3,0-0.6,0-0.9c0,0,0,0,0,0
		c0-0.1,0-0.3,0-0.4c0,0,0-0.1,0-0.1c0-0.2,0-0.4,0-0.6c0-0.1,0-0.2,0-0.3c0-0.1,0-0.2,0-0.3c0-0.1,0-0.3,0-0.4c0-0.1,0-0.2,0-0.3
		c0-0.1,0-0.3,0-0.4c0-0.1,0-0.1,0-0.2c0-0.2,0-0.4,0.1-0.5c0,0,0-0.1,0-0.1c0-0.2,0.1-0.3,0.1-0.5c0-0.1,0-0.1,0-0.2
		c0-0.2,0.1-0.4,0.1-0.6c0,0,0,0,0,0c0-0.2,0.1-0.4,0.1-0.5c0-0.1,0-0.1,0-0.2c0.1-0.2,0.1-0.4,0.2-0.6c0.7-2,1.8-3.8,2.9-5.6
		c0.2-0.9,0.4-1.7,0.6-2.6c0.2-0.7,0.3-1.5,0.4-2.2c0,0,0,0,0,0.1c0,0,0,0,0-0.1c0,0,0-0.1,0-0.1c0,0,0,0.1,0,0.1
		c0-0.2,0.1-0.4,0.1-0.6c0-0.1,0-0.2,0.1-0.3c0-0.1,0-0.2,0-0.3c0-0.4-0.1-0.9-0.2-1.3c0,0,0-0.1,0-0.1c0-0.2-0.1-0.5-0.2-0.7
		c-0.1-0.4-0.2-0.8-0.3-1.2c0,0,0,0,0,0c0.7-1.4,1.4-2.7,2.3-3.9c0.8-1.1,1.7-2.1,2.7-3c0.5-0.4,1-0.9,1.6-1.2
		c0.3-0.2,0.6-0.4,0.9-0.5c0.3-0.2,0.6-0.3,0.9-0.5c3.8-1.8,7.8-1.8,11.8-0.7c0.1,0,0.9,0.2,0.9,0.2l-0.8-0.6l-1.5-1.1l-0.8-0.6
		c-0.6-0.4-1.1-0.8-1.7-1.2c-2.3-1.6-4.7-3-7.3-3.9c-1.3-0.5-2.7-0.8-4-1c-0.6-0.1-1.3-0.1-1.9-0.1c0.1-0.1,0.1-0.2,0.2-0.3
		c0.4-0.5,0.9-1,1.4-1.5c0.1-0.1,0.3-0.3,0.4-0.4c0,0,0,0,0.1-0.1c0.4-0.4,0.8-0.8,1.3-1.1c0,0,0.1-0.1,0.1-0.1c0,0,0,0.1,0,0.1
		c7.6-5.9,17.7-3.3,24.1,3c5.2,5.2,8.3,12.1,11.4,18.8c0.3,0.7,0.6,1.3,1.2,1.8c1.4,1.1,3.5,0.5,5.2,0.8c0,0,0,0,0,0
		C333.2,660.5,320.5,646.5,305.5,637.5z"/>
	<path class="st0" d="M731.6,688.3c-1.3,1-2.9,1.8-4.5,2.2c-1.6,0.4-3.3,0.4-5,0.1c-3.3-0.6-6.4-2.7-8-5.5c-0.8-1.4-1.2-3.1-1.3-4.8
		c-0.1-1.7,0.1-3.5,0.3-5.3c0.2-1.7,0.4-3.4,0.5-5.2c0.1-0.9,0-1.8,0-2.7c-0.1-0.9-0.2-1.8-0.4-2.6c-0.7-3.5-2.3-6.7-4.4-9.5
		c-1.1-1.4-2.3-2.7-3.6-3.8c-1.4-1.1-2.8-2.1-4.4-2.9c-0.4-0.2-0.8-0.4-1.2-0.5c-0.4-0.2-0.8-0.4-1.2-0.5l-1.3-0.4l-1.2-0.3
		c-0.8-0.2-1.5-0.5-2-1c-0.5-0.5-0.7-1.1-0.6-1.8c0.2-1.4,1.3-2.8,2.2-4.3c0.4-0.8,0.8-1.6,0.9-2.6c0.1-1-0.1-2-0.6-2.8
		c-0.5-0.8-1.3-1.4-2-1.8c-0.8-0.5-1.6-0.8-2.5-1c-0.8-0.2-1.6-0.4-2.4-0.5c-0.4,0.2-0.7,0.3-1.1,0.5c-0.9,0.4-1.8,0.7-2.7,1.1
		c-19.2,8.3-36.5,24.5-43.1,44.6c0,0,0,0,0,0c1.7-0.4,3.8,0.3,5.2-0.8c0.6-0.5,0.9-1.1,1.2-1.8c3.1-6.7,6.1-13.6,11.4-18.8
		c6.4-6.4,16.5-8.9,24.1-3c0,0,0,0,0-0.1c0,0,0.1,0.1,0.1,0.1c0.4,0.3,0.9,0.7,1.3,1.1c0,0,0,0,0.1,0.1c0.1,0.1,0.3,0.2,0.4,0.4
		c0.5,0.5,1,1,1.4,1.5c0.1,0.1,0.1,0.2,0.2,0.3c-0.6,0-1.3,0-1.9,0.1c-1.4,0.1-2.7,0.5-4,1c-2.6,1-5,2.4-7.3,3.9
		c-0.6,0.4-1.1,0.8-1.7,1.2l-0.8,0.6l-1.5,1.1l-0.8,0.6c0,0,0.8-0.2,0.9-0.2c4-1.1,8-1.1,11.8,0.7c0.3,0.2,0.6,0.3,0.9,0.5
		c0.3,0.2,0.6,0.3,0.9,0.5c0.6,0.4,1.1,0.8,1.6,1.2c1,0.9,1.9,1.9,2.7,3c0.9,1.2,1.6,2.5,2.3,3.9c0,0,0,0,0,0
		c-0.1,0.4-0.2,0.8-0.3,1.2c-0.1,0.2-0.1,0.5-0.2,0.7c0,0,0,0.1,0,0.1c-0.1,0.4-0.1,0.9-0.2,1.3c0,0.1,0,0.2,0,0.3
		c0,0.1,0,0.2,0.1,0.3c0,0.2,0.1,0.4,0.1,0.6c0,0,0-0.1,0-0.1c0,0,0,0.1,0,0.1c0,0,0,0,0,0.1c0,0,0,0,0-0.1c0.1,0.7,0.3,1.5,0.4,2.2
		c0.2,0.9,0.4,1.7,0.6,2.6c1.1,1.8,2.2,3.6,2.9,5.6c0.1,0.2,0.1,0.4,0.2,0.6c0,0.1,0,0.1,0,0.2c0.1,0.2,0.1,0.4,0.1,0.5c0,0,0,0,0,0
		c0,0.2,0.1,0.4,0.1,0.6c0,0.1,0,0.1,0,0.2c0,0.2,0.1,0.3,0.1,0.5c0,0,0,0.1,0,0.1c0,0.2,0.1,0.4,0.1,0.5c0,0.1,0,0.1,0,0.2
		c0,0.1,0,0.3,0,0.4c0,0.1,0,0.2,0,0.3c0,0.1,0,0.3,0,0.4c0,0.1,0,0.2,0,0.3c0,0.1,0,0.2,0,0.3c0,0.2,0,0.4,0,0.6c0,0,0,0.1,0,0.1
		c0,0.1,0,0.3,0,0.4c0,0,0,0,0,0c0,0.3,0,0.6,0,0.9c0.1,0.1,0.2,0.3,0.3,0.4c0.6,0.7,1.1,1.4,1.7,2.1c0.3,0.3,0.6,0.6,0.9,0.9
		c2.5,2.1,5,4.1,8.3,4.9c5.1,1.2,10.4-0.5,15.6-0.1c1,0.1,2.1,0.2,3-0.1c1.8-0.7,2.9-3.6,3.8-5.2c1.4-2.4,2.6-5,3.6-7.7
		c0.6-1.6,1.1-3.3,1.6-5C732.9,687.2,732.3,687.8,731.6,688.3z"/>
	<path class="st0" d="M781.2,686.8c-0.9,0.5-1.8,0.9-2.7,1.2c-1.8,0.6-3.8,0.7-5.5,0.1c-1.8-0.6-3.3-1.8-4-3.4
		c-0.7-1.6-0.4-3.7-0.3-5.8c0.5-5.1-1.4-10.4-4.9-14.1c-0.9-0.9-1.8-1.8-2.8-2.5c-1-0.7-2.2-1.4-3.3-1.9c-1.1-0.5-2.2-1-3.2-1.6
		c-1-0.6-1.8-1.4-2.5-2.3c-1.4-1.8-2.4-4.1-3.7-6.2c-1.3-2.1-2.9-4-4.7-5.7c-3-2.8-6.7-5-10.6-6.3c10.6,10,15.5,24.7,16.4,39.5
		c0,0.1,0,0.2,0,0.4c0,0.6,0,1.1,0,1.7c0,0.5,0,1.1-0.1,1.6c0,0.5-0.1,1-0.1,1.5c0,0.1,0,0.1,0,0.2c-0.1,0.3-0.1,0.7-0.2,1
		c0,0.3-0.1,0.7-0.2,1c0,0.2-0.1,0.5-0.1,0.7c-0.5,3.1-1.5,6.2-2.5,9.2c-1.1,3.2-2.9,6.3-1.6,9.6c2.8,7.1,9.1,9.3,15.9,10.4
		c0.9,0.1,1.8,0.3,2.7,0.4c1.1,0.2,2.3,0.3,3.4,0.4c1.3,0.1,2.7,0.3,4,0.4c0.3,0,0.5,0,0.8,0.1c0.2,0,0.5,0,0.7,0.1
		c0.5,0,0.9,0,1.4,0c0,0,0-0.1,0-0.1c0.6-2.7,2-5,3.2-7.4c3.7-7.2,5.9-15.2,6.6-23.4c-0.4,0.3-0.7,0.5-1.1,0.8
		C782.1,686.3,781.7,686.5,781.2,686.8z"/>
	<path class="st0" d="M809.5,680.8c-1.3-1.4-2.7-2.7-4-4c-1.3-1.3-2.5-2.7-3.3-4.3c-0.4-0.8-0.7-1.6-0.8-2.5
		c-0.2-0.9-0.2-1.8-0.2-2.7c0-1-0.1-2-0.4-2.9c-0.3-1-0.9-1.9-1.6-2.6c-0.8-0.7-1.6-1.2-2.5-1.6l-2.5-1.3l-3.1-1.6
		c1.4,2.3,2.4,4.9,2.9,7.6c2,13.2,5.7,14,4,27.3c-0.5,3.5-2.6,6.8-3.3,10.3c-1,4.9-1.3,9.6-3.1,14.3c-0.1,0.3-0.3,0.6-0.3,0.9
		c-0.1,0.3-0.3,2.8-0.9,2.6c2.4,0.8,13.9,3.1,14.5-1.1l0.3-2.3l2.9-15.9c1.2-6.7,1.9-13.3,1.9-19.8
		C809.6,681,809.6,680.9,809.5,680.8z"/>
	<path class="st0" d="M651.4,630.7c3.8,2.5,5.5,6.9,4.2,10.5c0.4-0.4,0.8-0.8,1.2-1.3c1.1-1.2,2.3-2.3,3.4-3.4l0.4-0.4l0.4-0.4
		l0.9-0.8c0.6-0.5,1.2-1.1,1.8-1.6l1.8-1.5l0.9-0.8c0.3-0.3,0.6-0.5,0.9-0.7l1.9-1.5l0.5-0.4l0.5-0.4l1-0.7l0.8-0.6l1.1-0.8l2-1.3
		c0.5-0.3,0.9-0.6,1.4-0.8c1.4-0.9,2.9-1.7,4.3-2.5c-0.1-0.4-0.1-0.8-0.2-1.2c-0.3-2-0.5-4-0.6-6c-0.1-2-0.1-4,0-6.1
		c0-1,0.1-2,0.2-3l0.2-1.5l0-0.1c0,0,0-0.1,0-0.1c0,0,0.1,0,0.1,0l0.3,0c0.2,0,0.4,0.1,0.5,0.1l1.1,0c0.4,0,0.7-0.1,1.1-0.1
		c1.5-0.3,2.9-0.8,4-1.8c1.2-0.9,2.1-2.1,2.8-3.4c0.6-1.3,1-2.8,1-4.2c0-1.5-0.4-2.9-1.1-4.2l-0.5-0.9l-0.5-0.8
		c-0.3-0.5-0.7-1.1-1-1.6c-0.6-1.1-1.1-2.3-1.7-3.5l-1.7-3.5c-2.1-4.2-4.4-8.3-6.9-12.2l-7.5-11.8l-1.9-3c0.6,2.7,1.3,5.3,1.7,8
		c2.2,14.2,1.7,28.4-1.6,42.4c-0.2,0.9-0.5,1.9-1,2.7c-1.1,1.8-3.1,2.7-5.1,2.3c-1.9-0.4-3.4-1.9-3.7-3.9c-0.1-0.9-0.1-1.8,0-2.6
		c0.5-5.7-0.9-11-3.5-15.9c-2.7-5.1-6.4-9.4-9.9-13.8c-0.1-0.1-0.3-0.1-0.6-0.2c-2,4.4-4.3,8.7-5.3,13.5c-0.6,2.8-0.9,5.7-0.6,8.6
		c0.3,3.1,0.6,6.3,3.6,8.2c0.1,0,0.1,0.1,0.2,0.2c1.7,2.1,2,4.7,0.7,6.9c-1.3,2.2-3.8,3.3-6.4,2.8c-1.1-0.2-2.1-0.7-3.1-1.1
		c-1.7-0.7-3.4-1.6-5.2-1.9c-0.2,0.6,0,1,0.2,1.3c4,8.1,9.9,14.2,17.8,18.6C648.2,629.2,649.9,629.8,651.4,630.7z"/>
	<path class="st0" d="M352.8,613.6c-5,2.5-10.3,4-15.4,6c-3.2,1.3-6.3,1.6-9.6,1.5c-2.5-0.1-3.9-1.9-3.4-4.4c0.4-1.9,1.6-3.1,3.1-4
		c2.3-1.3,4-3.2,5.1-5.6c2.3-4.6,3.3-9.6,4.4-14.6c0-0.1-0.1-0.1-0.2-0.4c-2.5,2-5.1,3.8-6.7,6.7c-1.2,2.1-2.5,2.7-4,2.2
		c-1.6-0.5-2.1-1.8-1.9-4.2c0-0.2,0.1-0.5,0.1-0.7c0.9-6.9,3.3-13.2,7.4-18.8c1.7-2.4,3.5-4.8,5.2-7.2c1.7-2.4,3.1-4.9,4.3-7.5
		c0.3-0.6,0.8-1.3,0.4-2c-1-2.3,0-4.2,0.9-6.2c0.7-1.4,1.5-2.6,2.4-3.9c1-1.5,1.2-3.2,0.8-5.5c-4,5.5-9.6,8.3-14.5,12
		c-8.7,6.6-15.2,14.8-19.4,24.9c-0.4,1-0.8,1.9-1.5,2.7c-0.6,0.6-1.3,0.9-2.2,0.7c-0.7-0.2-1.2-0.6-1.5-1.2
		c-0.1-0.2-0.2-0.4-0.2-0.7c-0.1-0.5-0.1-1.1-0.1-1.7c0-0.9,0.1-1.8,0.2-2.6c-1.8,4.4-3.2,9.1-3.9,13.9c-0.2,1.7-0.5,3.4-0.6,5.1
		c0,0.6-0.2,2.4-0.2,3.7c-0.1,0.3,0.2,0.1,0.3,0.1l0.5-0.1c0.3-0.1,0.7-0.2,1-0.3l1-0.3l0.7-0.2c1.6-0.6,3.2-1.5,4.7-2.5
		c0.7-0.5,1.4-1,2.1-1.6c0.3-0.3,0.7-0.6,1-0.9l0.4-0.4c0.1-0.1,0.2-0.2,0.3-0.3l0,0l0,0l0,0.1l0,0.1l0,0.3l0,0.7c0,0.4,0,0.8,0,1.2
		c-0.1,1.6-0.2,3.2-0.5,4.8c-0.5,3.2-1.5,6.3-2.9,9.2c-1.3,2.9-3.1,5.7-5.2,8.1c-0.5,0.6-1.1,1.2-1.6,1.8c-0.3,0.3-0.6,0.6-0.9,0.8
		l-0.7,0.6c1,0.6,2,1.2,3,1.9l2,1.3l1,0.7l1,0.7l1,0.7l0.5,0.4l0.5,0.4l1.9,1.5c0.3,0.2,0.6,0.5,0.9,0.7l0.9,0.8l1.8,1.5
		c0.6,0.5,1.2,1.1,1.8,1.6l0.9,0.8l0.4,0.4l0.4,0.4c1.1,1.1,2.3,2.2,3.4,3.4c0.6,0.6,1.1,1.1,1.7,1.7l1.6,1.8
		c0.3,0.3,0.5,0.6,0.8,0.9l0.8,0.9l1.6,1.8c1,1.2,2,2.5,3,3.7c0.2,0.3,0.5,0.6,0.7,0.9c1-9.2,4.3-17.6,10-25.2c2.6-3.5,5.4-7,8-10.5
		c0.6-0.7,1.2-1.4,1.4-2.4C353.1,613.7,352.9,613.6,352.8,613.6z"/>
	<path class="st0" d="M557.1,574.5c0.3-0.4,0.6-0.7,0.9-1c0.7-0.6,1.5-1.1,2.4-1.4c0.9-0.3,1.8-0.4,2.5-0.2c0.8,0.2,1.3,0.6,1.7,1.3
		c0.4,0.7,0.5,1.6,0.6,2.7c0.1,1.1,0.2,2.3,0.4,3.4c0.3,1.3,0.6,2.5,1,3.8c0.2-0.7,0.5-1.4,0.7-2.1c1.6-5.5,3.2-11.1,5.4-16.4
		c0.4-0.9,0.3-1.7,0.2-2.6c-0.9-4.6-2-9.1-3.8-13.4c-1.1-2.7-2.6-5.1-4.4-7.4c-1.8-2.2-4-3.8-6.3-5.5c-0.5-0.4-0.9-0.3-1.3,0
		c-0.8,0.4-1.6,0.8-2.4,1.1c0,0-0.1,0-0.1,0c-0.7,1.8-1.6,3.4-2.7,5c-1.7,2.3-3.6,4.4-5.5,6.4c-1,1-2,2-3.2,2.9
		c-0.6,0.4-1.3,0.8-2,1.2c-0.7,0.3-1.4,0.6-2,0.8c-1.1,0.4-2,0.8-2.9,1.4c-0.2,0.2-0.4,0.3-0.7,0.5c-0.4,0.4-0.9,0.8-1.3,1.3
		c-0.8,1-1.9,2.6-2.8,3.8l0-0.9l0-1.1c0-0.7,0-1.5,0.1-2.2l0.1-2.2l0-0.5l0-0.4l0.1-0.6c0.2-1.6,0.5-3.2,0.9-4.8
		c0.6-2.1,1.4-4.2,2.3-6.2c-1.5,0.6-3.4,1.1-6.2,1.9c-3.1,0.9-6.3,1.8-9.3,3l0.1,0.4c0.1,0.3,0.1,0.7,0.1,0.9
		c0.1,1.6-0.2,3.2-0.7,4.7c-1,3-2.7,5.6-4.8,7.8c-5.2,5-11.7,7.4-16.8,11.4c-2.6,2-4.9,4.4-6.8,7c-1,1.3-1.9,2.7-2.6,4.1
		c-0.4,0.7-0.8,1.5-1.1,2.2c-0.4,0.8-0.6,1.5-1,2.3c-0.2,0.4-0.5,0.9-0.9,1.3c-0.4,0.4-1,0.7-1.5,0.8c-1.2,0.3-2.3-0.1-3.1-0.7
		c-0.4-0.3-0.8-0.6-1.1-1c-0.3-0.4-0.6-0.9-0.7-1.3c-0.3-0.9-0.5-1.8-0.5-2.7c0-1.8,0.1-3.4-0.1-5.1c-0.1-1.7-0.3-3.3-0.5-4.9
		c-0.2-1.2-0.5-2.4-0.8-3.6c-0.2-0.3-0.4-0.7-0.6-1.1c-0.3-0.6-0.1-1.4-0.7-1.9c-0.2,0.2-0.3,0.3-0.3,0.4c-0.7,3.6-2.8,6.6-4.1,10
		c-0.9,2.2-2.7,2.9-4.7,2.3c-1-0.3-1.8-1.1-2.4-1.9c-1.3-1.7-2.3-3.6-3.2-5.6c-1.2-3-3-5.6-5.2-8c-2.6-2.8-5.5-5.4-8.4-7.9
		c-0.8-0.6-1.5-1-2.6-0.9c-1.1,0.2-2.2-0.1-3.2-0.6c-2.2-1-4.3-2.1-6.5-3.1c-3.6-1.7-6.7-4-9-7.3c-0.2-0.2-0.5-0.7-0.7-0.5
		c-2.2,2.6-4.3,5.3-7,7.3c0.7,3.3,1.5,6.5,2.7,9.6c0.8,2.4,1.8,4.7,2.9,7c2.4,2.1,4.8,4.2,7.1,6.4c1.6,1.5,3.4,2.6,5.6,3
		c5.7,1.2,10.6,3.9,14.7,8.1c2.5,2.6,4.6,5.5,6.2,8.6c0.4,0.3,0.8,0.5,1.1,0.8c3.2,2.4,6.1,5.2,8.2,8.5c1.1,1.7,1.8,3.4,2.5,5.4
		c0.4,1,0.8,2,1.5,2.9c0.4,0.5,0.8,0.9,1.2,1.3l0.7,0.5l0.8,0.4c1.1,0.5,2.4,0.5,3.5,0.4c1.2-0.2,2.2-0.6,3.2-1.1
		c1-0.5,1.9-1.2,2.7-1.9c0.8-0.7,1.6-1.5,2.2-2.4c0.3-0.4,0.6-0.9,0.9-1.4l0.8-1.4c0.5-0.9,1-1.8,1.5-2.6c1-1.6,2.4-2.8,4.1-3.7
		c1.7-0.9,3.6-1.4,5.5-1.7c1-0.2,2-0.3,2.9-0.4l1.4-0.1c0,0,0.2,0,0.1,0l0,0.3c1.8-2.6,4-5.1,6.6-7.3c3.3-2.8,3.3-2.9,1.9-7.1
		c-0.5-1.5-1.2-3-1.9-4.4c-0.5-0.9-1-1.8-1.5-2.8c-0.7-1.5-0.8-2.9,0.2-4.3c1.1-1.4,2.6-1.8,4.3-1.6c2.3,0.3,4.2,1.4,6,2.8
		c1.5,1.3,2.9,2.8,3.8,4.6c0.6,1.2,1.2,1.1,2.3,0.6c3.9-2,7.4-4.7,10.9-7.4c0.5-0.4,0.9-0.9,1-1.6c0.2-0.6,0.3-1.2,0.5-1.8
		c0.9-2.6,2.6-3.9,4.9-3.8c2.2,0.1,3.8,1.7,4.3,4.4c0.2,1.3,0.4,2.5,0.5,3.8c0.1,1.4,0.2,2.7,0.3,4.1c0.1,1.2,0.3,2.4,0.7,3.5
		c1,2.4,1.8,4.9,2.8,7.4c0.8-0.6,1.5-1.4,2.1-2.2c0.7-1,1.3-2,1.7-3c0.9-2.1,1.6-4.1,2.6-5.9C556.6,575.3,556.8,574.9,557.1,574.5z"
		/>
	<path class="st0" d="M626.2,555.2c-2.9,3.1-6.1,5.9-9.3,8.7c-1.5,1.3-3.1,2.3-5,2.8c-4.2,1-7.1-2-6.1-6.2c0.1-0.3,0.2-0.6,0.3-0.9
		c0.6-2.9,0.9-5.8,0.4-8.6l-0.9-0.5L602,548l-2-1.4c-0.7-0.5-1.5-1.1-2.2-1.8c-0.7,0.8-1.4,1.6-2.1,2.4c-2.6,3-3.7,6.5-2,10.2
		c2.3,5.1,2.4,10.4,2.6,15.7c0.1,1.1-0.1,2.1-0.6,3c-0.4,0.7-0.9,1.4-1.8,1.3c-1-0.1-1.2-0.9-1.3-1.7c-0.4-2.3-1.3-4.5-2.2-6.6
		c-0.5-1.3-1.3-2.5-2.5-3.5c-1,2.4-1.1,3.1-0.4,5.4c2.3,8.1,3.7,16.2,3.1,24.6c-1,12.3-6.3,21.7-18.4,26.3
		c-4.8,1.8-9.1,4.6-13.6,7.1c-0.9,0.5-1,1-0.8,1.9c0.9,3.1,1.6,6.2,2.5,9.3c1.6,5.4,4.1,10.2,8.3,14.1c0.6,0.5,1.1,1.2,1.5,1.9
		c1.1,1.9,1,3.9-0.4,5.6c-1.3,1.7-3.1,2.3-5.1,1.8c-0.8-0.2-1.5-0.5-2.2-0.8c-2.4-1-4.8-2-7.1-3.2c0.4,1.6,1.2,2.9,2.1,4.1
		c4.5,6.5,10.3,11.3,17.1,15h39.6l0.8-0.4l0.7-0.4c0.1,0,0-0.1-0.1-0.1l-0.2-0.1l-0.3-0.3l-1.3-1.1l-1.8-1.5l-1.3-1.1
		c-0.9-0.7-1.7-1.5-2.6-2.3c-3.4-3.1-6.5-6.5-9.3-10.1c-2.5-3.2-4.8-6.5-6.9-9.9c-1-1.7-2-3.5-3-5.3l-1.3-2.7l-0.4-0.9l0.7,0.1
		c0.9,0.1,1.8,0.1,2.8,0.2c1.8,0.1,3.7,0,5.5-0.1c0.9-0.1,1.8-0.1,2.8-0.2l0.7-0.1l1-0.1l1.3-0.2l0.6-0.1l0.3,0c0,0,0.1,0,0.1,0
		l-0.1-0.1l-1.6-3.8l-0.8-2.5c-1.9-6.8-1.6-14.1,0.5-20.8c1.5-4.9,4-9.5,7.2-13.5c0.2-1.1,0.4-2.1,0.7-3.2c0.3-1.2,0.4-2.3,0.5-3.6
		c0.3-13.1,5.8-23.7,15.6-32.2c0.5-0.4,1.1-0.7,1.3-1.3c0.9-2.4,1.4-4.8,1.8-7.4C627.1,554,626.7,554.6,626.2,555.2z"/>
	<path class="st0" d="M456.4,656.5c-0.9,1.2-2.3,1.7-3.6,1.3c-1.4-0.4-2.1-1.4-2.3-2.8c-0.1-0.9-0.1-1.8-0.1-2.6
		c0-2.3,0.1-4.7-0.1-7c-0.3-3.3-0.4-6.7-2.6-9.6c-0.2,0.2-0.5,0.3-0.6,0.5c-3.1,5.5-8.2,8.9-13.1,12.5c-1.5,1.1-3.2,1.5-4.9,0.3
		c-1.7-1.1-1.9-2.8-1.6-4.7c0.3-1.5,0.8-2.9,1.3-4.4c1.2-3.3,2.3-6.7,2.8-10.2c0.9-7.2-0.4-14-3.5-20.5c-0.7-1.3-1.5-2.4-2.8-3.2
		c-3.2-1.9-6.3-3.8-9.2-6.1c-2.6-2.1-2.6-2.1-4.3,0.9c-2.2,3.9-3.9,8.1-5.8,12.1c-0.5,1-1,2-1.7,2.9c-1.1,1.4-2.2,1.6-3.8,0.7
		c-1.1-0.6-1.8-1.5-2.5-2.5c-1.5-2.2-2.4-4.7-3-7.3c-2.1-10.4-0.9-20.4,3.6-30c1.6-3.4,2.5-6.9,2.3-10.6c0-0.8-0.1-1.6-0.1-2.4
		c0-2,0.4-3.8,2-5.2c0.6-0.5,0.8-1.1,0.6-1.8c-1.1-2.3-2.1-4.7-2.7-7.1c-0.4-1.6-0.7-3.2-0.8-4.8c-1.1-1.4-2.2-2.8-3.5-4
		c-3.4-3.3-6.8-6.6-9.3-10.6c-0.1-0.2-0.4-0.3-0.6-0.4c0,0.3-0.1,0.5-0.1,0.8c1.5,6.1,3.2,12.1,6.8,17.3c1.2,1.7,1.5,3.6,0.4,5.4
		c-1.2,1.9-3.1,2.4-5.3,2.1c-1.4-0.2-2.8-0.6-4.1-1.2c-6.1-2.7-11.9-5.8-17-10.2c-0.4-0.3-0.7-0.9-1.5-0.5c2.1,10.8,0.4,21.4-2.9,32
		c0.5-0.1,0.7-0.1,0.9-0.2c3.5-2.1,7.4-2.9,11.5-2.9c1.1,0,1.8,0.3,2.4,1.2c1.8,2.5,1.6,4.5-0.7,6.5c1.2,0.4,2.3,0.9,3.3,1.6
		c1,0.7,1.9,1.7,2.5,2.7c0.6,1.1,1,2.2,1.2,3.5c0.4,2.5-0.1,5.1-0.8,7.6c-0.7,2.5-1.6,5-2.3,7.7c-0.7,2.6-1.3,5.3-1.6,8
		c-0.7,5.4-0.7,10.8,0.1,16.2c0.4,2.7,1,5.3,1.8,7.9c0.4,1.3,0.8,2.6,1.5,3.9c0.3,0.7,0.8,1.3,1.4,1.9c0.6,0.6,1.3,1,2.1,1.3
		c1.6,0.5,3.2,0.3,4.6-0.2c1.4-0.5,2.6-1.2,3.7-2.1c2.2-1.7,4.2-3.5,6.1-5.4c1.9-1.9,3.8-3.9,5.5-5.9c0.9-1,1.7-2.1,2.5-3.2
		c0.4-0.5,0.8-1,1.1-1.3c0.4-0.3,0.7-0.4,1.1-0.3c0.7,0.1,1.6,1,2.1,2.1c0.3,0.5,0.5,1,0.7,1.7l0.6,1.9c0.4,1.2,0.8,2.5,1.2,3.8
		c0.3,1.3,0.7,2.5,1,3.8c1.2,5.1,2,10.4,2.3,15.6c0.3,5.3,0.2,10.6-0.4,15.8c-0.3,2.6-0.7,5.2-1.2,7.8c-0.1,0.7-0.2,1.5-0.1,2.4h26
		h6.9c0.2-0.2,0.4-0.5,0.5-0.8c0.8-1.2,1.3-2.5,1.8-3.8c1.9-5,3.5-10.2,4.8-15.5c0.7-2.9,1.2-5.9,1.6-8.8c-0.6,1.7-1.1,3.3-1.6,5
		C457.1,655.5,456.8,656,456.4,656.5z"/>
</g>
<g>
	<path class="st1" d="M699.3,533.9c-4.3-3.5-8.1-7.5-11.7-11.6c-5.1-5.8-9-12.4-11.7-19.7c-1.6-4.3-3-8.6-4-13.1
		c-0.3-1.3-0.9-1.9-2.2-2.1c-1.2-0.1-2.4-0.4-3.5-0.7c-7.5-1.8-14.2-5-18.3-12c-0.6-1-1.4-1.5-2.8-1.7c1.6,4.8,1.9,9.6,2.4,14.2
		c0.1,0.9,0.2,1.9,0.3,2.8c0.3,2.8,0.6,5.6,1.7,8.2c2.8,6.5,5,13.3,7,20.2c1.6,5.3,4.4,9.7,7.7,14c0.4,0.6,0.9,1.1,1.6,1.4
		c5.2,2.2,10.4,4.5,15.6,6.8c1.5,0.7,3,1,4.6,0.1c0.9-0.5,2-0.7,3-0.9c0.9-0.2,1.7-0.4,2.5-0.6c2.4-0.6,4.7-1.5,7-2.5
		c0.8-0.3,1.6-0.6,2.2-1.2C700.6,534.7,699.8,534.4,699.3,533.9z"/>
	<path class="st1" d="M543.1,122.2c5.8-5.8,21.1-4.7,25.3-4.2c2.8,0.4-4.2,4.9-10,8.9c0,0,0.1,0,0.1,0c2.8-0.9,5.7-1.1,8.5-0.7
		c1,0.1,2.1,0.1,3.1,0.1c2.5-0.1,4.8,0.5,6.8,2c2.9,2.2,2.7,5.8-0.6,7.4c-2.2,1.1-3.8,2.6-5.1,4.6c-2.3,3.4-4.8,6.6-8.2,9
		c-0.2,0.1-0.4,0.3-0.2,0.7c1.3,0.2,2.6-0.3,3.9-0.6c5.4-1.2,10.8-1.2,16.2-0.7c3.5,0.3,6.2,2,8.5,4.4c0.3,0.3,0.6,0.6,0.6,1
		c0,0.6-0.3,0.9-0.9,0.8c-0.2,0-0.3-0.1-0.4-0.2c-3-2.2-6-1.5-9.1-0.3c-2.1,0.8-4.1,1.7-6.1,2.7c1,0,1.9,0.2,2.7,0.9
		c9,8.1,12,11.1,17.7,12.1c0.2,0,0.4,0.1,0.5,0.1c0.6,0.1,1.2,0.2,1.8,0.2c3,0.3,6,0.4,8.9,0.8c0,0,0,0,0,0c0.1-0.1,0.3-0.3,0.5-0.4
		c0,0,0.1,0,0.1-0.1c0.3-0.2,0.5-0.3,0.8-0.5c0.1,0,0.2-0.1,0.3-0.1c0.1-0.1,0.3-0.1,0.4-0.2c0.2-0.1,0.3-0.1,0.5-0.1
		c0.1,0,0.2-0.1,0.4-0.1c0.2,0,0.5-0.1,0.8-0.1c0.1,0,0.2,0,0.3,0c0.3,0,0.6,0,1,0c0.4,0,0.8,0,1.2,0.2c2.2,0.8,4.4,0.6,6.6,0.6
		c12.1,0.1,22.3,3.7,30.6,10.8c3.2,2.8,6.2,6,8.9,9.9c3.9,5.5,7,11.4,10,17.5c2.3,4.7,3.5,9.8,3.4,15.1c0,1.5,0.2,3,0.6,4.5
		c2.1,7.4,3.3,15,3.3,22.7c0,8,0.6,16-0.4,24c-0.2,1.5-0.3,3.1-0.5,4.6c0,0,0.1,0,0.1,0c3.1-19.8,9-57.4,8.2-60.8
		c-1.1-4.7,1.1-13.2-6.3-24.8c-4.8-7.6-14.1-18.8-20-25.6c-0.8-0.4-1.6-0.8-2.3-1.3c0,0,0,0,0,0c-0.8-0.4-1.5-0.9-2.2-1.3
		c-0.1-0.1-0.3-0.2-0.4-0.3c-0.6-0.4-1.2-0.8-1.8-1.2c-0.8-0.5-1.5-1-2.3-1.6c-4.8-3.5-9.5-7.1-14.1-10.8
		c-6.9-5.5-14.2-10.1-23.5-10.1c-0.8,0-1.4-0.3-1.6-1.2c-0.1-0.8,0.4-1.3,1.2-1.6c1.4-0.5,2.9-0.7,4.5-0.7c3.2,0,6.2,0.8,9.1,1.8
		c5.5,1.9,10.8,4.5,15.9,7.2c4.5,2.4,9.1,4.3,13.8,6c1.3,0.5,2.7,0.9,4,1.4c0.3,0.1,0.5,0.2,0.8,0.3c1.3,0.4,2.5,0.8,3.8,1.2
		c0.3,0.1,0.7,0.2,1,0.3c1.1,0.3,2.2,0.6,3.3,0.9c0.5,0.1,1,0.3,1.4,0.4c0.9,0.2,1.9,0.5,2.8,0.7c0.6,0.2,1.2,0.3,1.8,0.4
		c0.9,0.2,1.9,0.5,2.8,0.7c-8.7-6-17-12.1-23.9-16.4c-20.2-12.5-32.9-13.4-54.4-23.6c-7.9-3.8-15.2-9.5-17.5-13c0,0,0,0-0.1,0
		c-1.4-0.1-2.6-0.6-4-0.9c-1-0.3-2.1-0.6-3.3-0.6c0.2-0.5,0.2-0.7,0.4-0.9c0.3-0.3,0.5-0.6,0.9-0.8c4.8-3,9.7-5.7,15.5-5.8
		c3.6-0.1,7.2,0.2,10.8,0.7c2.5,0.4,4.9,0.4,7.4,0c0.3-0.1,0.6-0.1,1-0.2c0.8-0.1,1.5-0.3,2.2-0.5c0.2-0.1,0.4-0.1,0.6-0.2
		c0.6-0.2,1.2-0.3,1.8-0.5c0.2-0.1,0.4-0.1,0.6-0.2c0.6-0.2,1.2-0.3,1.7-0.5c0.9-0.3,1.9-0.6,2.8-0.8c-11.2-3-28.6-6.1-44.8-5.2
		c0.2,2.5-18.2,8.4-24.6,13.9C542.1,110.6,537.3,128,543.1,122.2z"/>
	<path class="st1" d="M373.4,184c5-3.9,10.4-7.2,16-10.1c1.7-0.9,3.5-1.7,5.5-2.5c0.5-0.2,1.1-0.4,1.7-0.6c-0.5,0.6-0.7,0.8-0.9,0.9
		c-1.2,0.9-2.5,1.8-3.7,2.7c-1.2,0.9-2.4,1.8-3.6,2.7c3.2-1.6,6.5-3.1,9.7-4.3c10.8-3.9,19.1-5.4,30.1-5.4
		c-4.9-2.2-9.9-4.4-15.1-5.5c-1.4-0.3-1.3-2.3,0.1-2.5c12-1.8,24.5-0.3,36.7-1.3l0,0c-1.5-1.8-0.1-4.5,2.3-4.3
		c2.7,0.2,5.4,0.3,8.1,0.1c-0.2-0.3-0.4-0.7-0.6-1c-0.2-0.4-0.4-0.7-0.5-1.1c-1-2.2-1.6-4.6-2-6.9c0-0.1,0-0.1,0-0.2
		c-0.2-1.5-0.9-2.6-2.1-3.6c-0.6-0.5-1.1-1-1.7-1.5c-2.8-2.6-4.9-5.7-5.8-9.6c-0.2-0.9-0.8-1.3-1.5-1.7c-1.5-0.7-3-1.5-4.6-2.1
		c-7.3-3-14.9-5.5-22.7-7c-8-1.5-15.9-0.9-23.7,1.4c-3.5,1-6.9,2.2-10.4,3c-1.3,0.3-2.6,0.9-3.8,1.5c-9,4.1-17.1,9.7-24.9,15.8
		c-1.1,0.8-2,1.8-3,2.8c-0.2,0.2-0.4,0.4-0.7,0.6c-0.6,0.6-1.3,1.1-2.2,0.8c-0.1,0-0.1,0-0.2-0.1c-0.9-0.4-1.1-1.3-1.2-2.2
		c0-0.6-0.1-1.3,0.1-1.9c1-3.2,1.3-6.6,2.5-9.7c1.7-4.3,4.1-8.1,7.1-11.6c2.8-3.1,5.8-6,9-8.6c2.2-1.8,4.5-3.6,6.7-5.4
		c2.3-1.9,4.9-3.3,7.8-4c5-1.4,10.1-2.3,15.3-2.6c7.6-0.4,15,0.8,22.1,3.5c7.5,2.9,15,5.9,22.1,9.8c0.7,0.4,1.4,0.8,2.1,1.2
		c0.1,0.1,0.2,0.1,0.3,0.2c2.3,1.3,4.5,2.6,6.6,4.1c0,0,0,0,0,0c-0.8-1-1.5-1.8-2-2.2c-2.6-2.1-15.8-16.9-19-19
		c-3.2-2.1,2.1-1.6,4.2-0.5c2.1,1.1,12.7,6.3,15.3,8.4c2.6,2.1,7.9,2.6,6.9-1.1c-0.5-1.8-3.3-5.5-6.3-9.3c0,0,0,0,0,0
		c-0.3,0-0.7,0.1-1,0.1c-2.6,0.2-5.2-0.2-7.8-0.9c-3.3-0.8-6.4-2.1-9.4-3.5c-0.7-0.3-1.4-0.6-2-0.9c-0.1,0-0.2-0.1-0.3-0.1
		c-3.7-1.7-7.3-3.5-11.1-4.8c0,0,0,0,0,0c-9.6-0.2-19.3,0.3-28.8,1.9c-16.9,2.8-33.4,9.1-47,19.5c5.2-0.1,10.4,0.5,15.5,1.6
		c-1.4,2.5-2.7,4.9-4.1,7.4c-0.9,1.7-1.8,3.3-3.2,4.7c-1.2,1.2-2.7,2.2-4.1,3.1c-6.5,4.3-12.7,9.2-17.1,15.7
		c-4.3,6.5-6.5,14.7-4.3,22.2c0.3,1.1,0.8,2.3,1.6,3.1c1.7,1.7,4.4,1.5,6.8,1.3c4.9-0.5,9.9-1.2,14.8-2c1.4-1,2.8-1.9,4.2-2.8
		c0,0,0,0,0.1,0c0.7-0.4,1.3-0.8,2-1.2c0.1,0,0.1-0.1,0.2-0.1c0.7-0.4,1.4-0.9,2.2-1.3c2.8-1.6,5.7-3.2,8.5-4.9
		c6.4-3.9,13.2-6.9,20.1-9.6c12.9-4.9,26.3-6.2,39.9-5c4.4,0.4,8.8,1.2,12.5,3.7c2.9,2,5.8,3.7,9.4,3.9c0.9,0.1,1.7,0.6,1.9,1.5
		c0.1,0.2,0.1,0.4,0.1,0.5c0,0.8-0.4,1.4-1.1,2c-0.9,0.7-2,1-3.1,1.2c-6.8,1.1-13.6,2.1-20.5,2c-4.6-0.1-9.1-0.3-13.7,0.1
		c-9.2,0.8-18.1,2.9-26.9,5.9c-10.5,3.7-20.8,7.9-30.4,13.5c-12.4,7.3-23.4,16.3-33.3,26.4c-5,5.2-9.7,10.6-14.2,16.4
		c-3.4,4.4-6.2,9.3-8.4,14.5c-3.9,9-6.1,18.4-6.8,28.1c-0.7,10.1-2.5,20-6,29.6c-0.1,0.3-0.2,0.6-0.3,0.9
		c-4.2,11.5-9.4,22.4-17.4,31.9c-3.2,3.8-6.4,7.6-9.8,11.2c-0.5,0.5-1.2,0.9-1.3,1.8c1.9,0.2,3.7-0.3,5.3-1c5.1-2,10.4-3.7,15-7
		c2-1.4,4.2-1.2,5.8,0.1c1.6,1.3,2.1,3.4,1.5,5.7c-0.4,1.3-1.1,2.5-1.8,3.7c-0.4,0.8-0.9,1.5-1.3,2.3c-0.3,0.5-0.6,1.1-0.8,1.6
		c0,0,0,0,0,0c-3.1,13.4-1.6,27.8,4.3,40.2c1.3,2.7,2.7,5.3,3.5,8.1c0.6,2.2,0.7,4.6,0.9,6.9c0.6,9.7,1.2,19.6-0.6,29.2
		c-1.6,8.5-5,16.5-7.4,24.8c-2.9,9.9-4.3,20.1-5.3,30.3c0.4,1.3,0.7,2.6,1.1,3.9c0.2,0.6,0.3,1.2,0.9,1.6c0.2-0.3,0.4-0.5,0.4-0.7
		c0.7-4.4,2.1-8.6,3.8-12.6c1.4-3.4,3.1-6.6,5-9.8c0.9-1.5,1.5-3,1.9-4.6c1.7-5.8,4.5-11,8.3-15.6c3.3-4,6.8-7.8,10.3-11.7
		c0.4-0.4,0.8-0.8,1.2-1.2c0.8-0.8,1.8-1.3,3-1.4c0,0,0,0,0.1,0c2-0.7,4.4-1.5,4.7-1.6c0.4-0.2,0.9-0.3,1.7-0.5
		c-1,0.9-1.8,2.7-2.4,4.7c0,0.3,0.1,0.7,0.1,1.1c0.1,1.1-0.1,2.1-0.5,3c-0.6,1.2-1.1,2.5-1.8,3.6c-2.7,4.5-4.5,9.3-6.3,14.2
		c-3.3,9.3-4.2,18.8-3.9,28.6c0,0.3,0,0.6,0.4,0.9c1-0.4,1.6-1.3,2.3-2.2c3.3-4.8,7.3-9.2,11.5-13.2c5.6-5.3,10.1-11.5,15-17.5
		c2.1-2.6,3.4-5.5,3.7-9c0.6-6.3,2.1-12.3,4.7-18c0.2-0.5,0.7-1,0.1-1.6c-0.6,0.3-1.3,0.6-2,0.8c-3.7,1.1-8-1.1-7.4-6
		c0.1-0.8,0.2-1.6,0.4-2.4c0.3-1.4,0.8-2.8,1.2-4.2c0-0.4,0.1-0.8,0.3-1.1c0.4-0.9,0.8-1.9,1.2-2.8c0.3-0.8,0.6-1.5,0.9-2.2
		c1.6-3.7,2.6-7.5,3.8-11.4c0.1-0.4,0.5-0.9-0.2-1.5c-1.6,1.8-3.5,3.1-5.7,4.2c-5.1,2.5-9.9,5.6-14.6,8.8c-3.4,2.2-6.1,5.1-8.5,8.4
		c-0.4,0.6-0.8,1.2-1.3,1.7c-1.2,1.3-2.7,1.7-4.4,1.1c-1.5-0.5-2.4-2-2.4-3.8c0-0.6,0.1-1.1,0.2-1.7c0.6-2.6,1.3-5.3,2.6-7.7
		c3.1-5.9,5.9-11.9,9.9-17.2c1.2-1.5,2.1-3.2,3.1-4.8c1.9-3.1,4.1-6.1,6.2-9.1c3.3-4.6,6.4-9.4,8.9-14.5c0.3-0.5,0.8-1,0.4-2
		c-3.1,1.6-6.3,2.7-9.2,4.5c-0.5,0.3-0.9,0.6-1.3,1c-4.7,4.7-9.4,9.4-12.3,15.5c-0.6,1.3-1.4,2.5-2.4,3.6c-1.9,2.1-4.3,3.1-7.1,2.2
		c-2.8-0.9-4.2-3-4.6-5.9c-0.3-1.8-0.1-3.5,0.2-5.3c0.7-4.1,1.6-8.2,3-12.1c1.1-2.9,1.9-5.9,2.5-9c0.8-3.6,1.8-7.1,3-10.6
		c1.4-4,2.7-8,4-12.1c0.2-0.5,0.5-1,0.1-1.5c-0.7,0.3-0.8,1-1.1,1.6c-2.6,5.7-5.5,11.4-7.8,17.3c-0.5,1.3-1,2.5-1.9,3.6
		c-0.7,0.9-1.6,1.5-2.7,1.6c-0.4,0-0.7,0-1.1,0c-1.6-0.3-2.7-1.3-3.2-2.9c-0.4-1.4-0.3-2.8-0.1-4.3c0.5-3.2,1.4-6.2,2.2-9.3
		c3.9-15.9,9.2-31.3,17.1-45.7c1.4-2.6,2.7-5.3,4-7.9c0.5-0.9,0.9-1.9,1.3-2.8c0.2-0.5,0.6-1-0.1-1.5c-2.4,1.5-4.8,3.2-6,5.7
		c-1.4,2.8-3.7,4.8-5.8,6.9c-1.3,1.3-3,1.8-4.7,1.4c-0.3-0.1-0.7-0.2-1.1-0.4c-2.1-1-3.1-2.8-3-5c0.1-1.8,0.2-3.5,0.4-5.3
		c1-7.3,3.5-14.1,6.7-20.7c1.1-2.2,2-4.5,2.7-6.9c1.8-6.2,4.1-12.1,7.6-17.6c2.6-4.2,5.4-8.3,8.3-12.3c4.7-6.5,10.5-11.6,17.5-15.4
		c3.5-1.9,7-3.8,10.8-5.2c6.9-2.5,13.6-5.7,20.1-9C370.9,185.7,372.2,185,373.4,184z"/>
	<path class="st1" d="M539.6,479.7c-1.7,0.3-3.4,0.2-5,0.7c-1,0.3-1.5,0.9-1.1,2.2c0.7,2.1,1,4.3,1,6.6c-0.1,1.4-0.4,2.7-1.4,3.7
		c-0.6,0.6-1.3,1-2.1,0.6c-0.8-0.3-1-1-0.8-1.8c0.2-1-0.2-1.9-0.7-2.7c-1-1.4-1.8-1.5-3.2-0.5c-1.2,0.9-1.8,2.2-2.2,3.6
		c-0.8,3-2,5.9-3.8,8.5c-0.5,0.8-1.1,1.6-1.9,2.2c-3.3,2.7-7.7,1.1-8.5-3c-0.1-0.6-0.2-1.3-0.1-1.9c0.1-2.7-0.6-5.2-1.1-7.8
		c-0.2-1.2-0.9-1.5-2-1.4c-3,0.3-6.1,0.5-9.1,0.8c-0.6,0-1.1,0.2-1.6,0.5c-1.9,1.3-4,2.3-5.1,4.6c-0.4,0.8-1.1,1.5-1.8,2.3
		c-1.5,1.8-2.9,3.6-3.2,6c-0.1,0.6-0.4,1.2-0.7,1.8c-1,1.5-2.4,2.4-4.2,2.2c-1.9-0.1-3.5-1.2-3.9-3c-0.8-3.4-1.9-6.8-1.5-10.4
		c0.2-1.3,0.5-2.6,0.8-3.9c-0.6-0.3-1.2-0.2-1.7-0.2c-6.7,0.4-13-1.2-19.4-2.8c-2.9-0.7-2.9-0.9-4.8,1.4c-1,1.2-1.5,2.5-1.6,3.9
		c-0.3,2.8,0.3,5.5,1.5,8.1c0.5,1.2,1.3,2.2,2,3.3c0.6,0.8,1.6,1.7,0.5,2.7c-1,1-1.9,0.2-2.8-0.4c-0.4-0.3-0.8-0.6-1.2-0.9
		c-1.6-1.2-3.2-2.4-4.8-3.6c-3.9-2.9-6.5-6.8-7.8-11.5c-0.5-1.9-1.2-3.8-1.7-5.8c-0.2-0.9-0.6-1.3-1.6-1.3c-1.2,0-1.7,0.5-1.7,1.7
		c-0.1,3.5,0.2,6.9,1.1,10.2c1.9,7.1,2.8,14.3,0.9,21.6c-0.3,1.1,0.1,1.9,0.8,2.8c1.6,1.9,3.5,3.5,5.3,5.2c4.2,3.8,8.6,7.1,14.3,8.4
		c4.4,1,7.8,3.5,10.7,7c2.4,2.8,4.5,5.8,6.1,9.2c0.2,0.5,0.3,1.1,0.9,1.3c1.9-1,1.9-1,1.5-2.8c-0.1-0.2-0.2-0.5-0.2-0.7
		c-0.8-3.5-2.3-6.8-4-10c-0.5-1-0.7-2,0.1-2.9c0.8-1,1.9-1.1,3.1-0.8c1,0.2,1.9,0.7,2.8,1.4c1.5,1.1,2.6,2.6,3.5,4.2
		c2.5,4.7,4,9.6,3.9,14.9c0,0.9-0.1,1.7-0.1,2.6c0,0.3-0.1,0.7-0.1,1c0,0.2,0,0.4-0.1,0.6c0.1,0.3,0.3,0.5,0.4,0.8
		c0.7,1.6,1.3,3.1,1.8,4.8c0.3,0.8,0.5,1.6,0.7,2.5l0.3,1.2l0.2,1c0,0.2,0.1,0.4,0.1,0.6l0.5-0.3c0.1-0.1,0.1-0.1,0.3-0.2l0.5-0.4
		c0.3-0.2,0.7-0.5,1-0.7c1.3-1,2.5-2.2,3.6-3.4c1.9-2,3.7-4.3,5.7-6.4c-0.3-0.8-0.5-1.7-0.6-2.5c0-0.1,0-0.2,0-0.3
		c0-0.2,0-0.4,0-0.6c0-0.1,0-0.3,0-0.4c0-0.2,0-0.4,0-0.5c0-0.2,0-0.4,0.1-0.5c0-0.2,0.1-0.3,0.1-0.5c0-0.2,0.1-0.4,0.2-0.6
		c0-0.1,0.1-0.3,0.1-0.4c0.1-0.3,0.2-0.7,0.4-1c1.5-3.4,4.1-5.7,7.3-7.3c2.8-1.4,5.6-2.7,8.5-4c11.4-5.2,8.5-3.6,16.8-12.2
		c2-2.1,3.4-4.4,3.8-7.3c0.6-4,2.2-7.7,4.3-11.1c0.4-0.7,0.6-1.3,0.4-2c-1-4.6,0.1-8.8,2.6-12.6c2.7-4.2,1.6-8.3,0.2-12.4
		C540.4,480.2,540.2,479.6,539.6,479.7z M516.5,528.2c-1,1-2.1,2.1-3.5,2.3c-1.7,0.2-3.3-0.9-5.1-1.1c-3.2-0.4-5.8,2.4-7.8,4.9
		c-2.9,3.6-5.8,7.1-8.6,10.7c-1.1,1.4-3,3-4.6,2c-0.9-0.6-1.2-1.8-1.4-2.9c-0.9-4.8-2.3-9.7-5.3-13.6c-2.9-3.9-7.6-6.8-12.5-6.6
		c-2.4,0.1-4.8,1-7.2,1.2c-8.9,0.7-15.7-7.3-21-14.4l5.3,2.9c5.1,2.5,11,4,16.5,2.9s10.8-5.3,11.9-10.9c2.5,5.8,6.4,11,11.4,14.9
		c2.7-5.1,5.5-10.1,8.2-15.2c0.5-1,1.1-2,2-2.6c2.2-1.5,5.4,0.1,6.7,2.5c1.2,2.4,1.1,5.2,1.1,7.9c0,2.7,0.3,5.6,2.2,7.5
		c2.7,2.8,7.4,2.2,11,0.6c3.6-1.6,6.9-4,10.8-4.3C523.3,520.8,520,524.5,516.5,528.2z"/>
	<path class="st1" d="M566.3,485.4c-0.2-0.9-0.4-1.7-0.6-2.6c-0.8-2.7-2.2-5.1-4.7-7.4c-0.4,6.3-2.4,11.9-2.6,17.9
		c0,1.5-0.6,3-1.2,4.4c-0.5,1.2-1.1,2.5-1.7,3.7c-0.3,0.7-0.5,1.3-0.2,2c1.2,3.1,3.1,5.9,4.1,9.4c2.3-1.9,4.6-3,5.9-5.3
		c2-3.5,4.1-6.8,6.5-10.1c1-1.3,1.7-2.8,2-4.5C569,491.8,567.5,490.3,566.3,485.4z"/>
	<path class="st1" d="M646.7,451.2c0.4,2.2,0.3,4.3-1,6.2c-0.4,0.6-0.6,1.1-0.2,1.7c1.5,2.3,2.6,4.8,3.7,7.3c0.2,0.5,0.6,1,1,1.3
		c2.6,2.2,5.4,4,8.7,4.8c0.6,0.1,1.2,0.3,1.9,0.4c0.1,0,0.3,0,0.4,0.1c0.5,0.1,1,0.1,1.5,0.2c0.1,0,0.2,0,0.3,0
		c0.6,0.1,1.1,0.1,1.7,0.1c0.1,0,0.1,0,0.2,0c0.6,0,1.2,0,1.9,0c0,0,0,0,0,0c-1.2-0.4-2.4-0.9-3.5-1.4c-1.4-0.6-2.9-1.4-3.8-2.7
		c-1.5-2.3-0.8-5.3-0.1-7.9c1.5-6.4,1.8-13,0.9-19.5c-0.8-6-2.6-12-2.3-18c0.3-4.4,1.6-8.6,2.7-12.8c1.8-7.1,2.8-14.5,3.8-21.8
		c1.2-8.7,2.3-17.4,3.5-26c0.4-2.7,0.7-5.6,0.5-8.4c-0.8-2-1.6-4-2.5-6c-1.4-3.3-2.9-6.6-4.7-9.7c-0.3-0.5-0.3-1.1-1-1.3
		c-0.1,0.1-0.2,0.3-0.2,0.4c0.9,6.9,0.6,13.9,0.2,20.8c-0.4,7.3-0.8,14.7-2.3,21.9c-0.2,1-0.4,2-0.8,3c-0.8,2.3-2.3,3.5-4.1,3.4
		c-1.8-0.1-3.2-1.4-3.8-3.7c-0.2-0.9-0.4-1.9-0.5-2.8c-1.2-6.7-2.2-13.4-3.6-20.1c-2.2-10.5-7.1-19.8-12-29.2
		c-0.2-0.4-0.4-0.9-0.9-1c-0.4,0.4-0.2,0.9-0.1,1.3c0.5,3.2,0.8,6.3,1.1,9.5c0.2,2.1,0.3,4.2-0.3,6.2c-0.8,2.5-1,5.5-4.3,6.1
		c0.1,1,0.6,1.6,0.9,2.3c4,8.7,7.6,17.6,9,27.2c1.2,8.3,2.1,16.6,1.2,25.1c-0.5,4.6-0.7,9.3-0.6,13.9c0,4.3,0.7,8.4,2.2,12.5
		c1.3,3.8,2.7,7.5,4.1,11.3C645.9,447.8,646.4,449.5,646.7,451.2z"/>
	<path class="st1" d="M576.3,334.2c-20.6-14.2-25.3-6.9-31.1-4.7c-5.8,2.1-9,4.2-14.2,5.3c-3.2,0.6-3.9-7.7-3.9-14.3
		c0-3.8-3.8-6.4-7.4-5.2l-1.4,0.5c-4.7,4.2-14.2,13.7-16.9,14.8c-2.6,1.1,2.1-9-4.2-13.2c-6.3-4.2-14.8,17.4-15.8,15.3
		c-1.1-2.1-8.4-9.5-10-9.5c-1.6,0-1.1,10.5-1.1,10.5s-5.3-2.6-10-13.2c-1.6-3.5-7.1-5.9-13.6-7.6c-17.8,0.2-33.4,2.1-45,9.8
		c-6.5,4.3-12.7,9.1-17.4,15.2s1.1,9.7,3.8,9c-2,2.9-9.9,13.3-15.8,21c-4.5,6-4.4,14.3,0.4,20c0,0,0.1,0.1,0.1,0.1
		c3.2,3.7,22.2-17.9,21.6-13.7s-14.8,21.1-16.9,30.1c-0.8,3.6-2.5,10-4.1,16.5c-0.5,6.7-2.7,13.4-5.1,19.7l-0.7,8.4
		c-0.4,4.1,5.2,5.7,7.1,2l2-3.8c1.3-2.6,5.2-1.5,5,1.3c-0.3,5.9-0.6,13.1-0.7,20.1c0,0,0,0,0,0c0.5,0,1.1,0.1,1.6,0.2c0,0,0,0,0,0
		c0.2,0.1,0.3,0.1,0.5,0.2c0,0,0,0,0,0c0.1,0.1,0.3,0.2,0.4,0.2c0,0,0,0,0.1,0c0.1,0.1,0.3,0.2,0.4,0.3c0,0,0.1,0,0.1,0.1
		c0.1,0.1,0.2,0.2,0.3,0.3c0,0,0.1,0.1,0.1,0.1c0.1,0.1,0.3,0.3,0.4,0.5c0.8,1,1.2,2.2,1.5,3.5c0.2,1.3,0.3,2.7,0.5,4
		c0.3,2.3,0.1,4.6,1.3,6.8c0.2,0.3,0.1,0.8,0.1,1.2c-0.6,3.5,1.3,6.7,1,10.1c1.1,2.1,1.8,4.6,3.3,6.4c2.3,2.7,4.1,5.7,6.5,8.3
		c2,2.1,3.7,4.4,5.2,6.9c1.1,1.9,2.5,3.5,4.2,4.9c0.5,0.4,1,0.9,1.5,1.3c1.5,1.4,2.7,2.9,3.8,4.6c0,0,0,0,0,0
		c-0.2-0.7-0.5-1.4-0.8-2.1c-2-5-4.5-9.7-6.5-14.8c-2-5.1-3.7-10.2-5.2-15.4l-2.3-7.8c-0.8-2.6-1.5-5.3-1.8-8.1
		c-0.2-2.2-0.3-4.5,0.1-6.7c0.2-1.1,0.6-2.3,1.1-3.3l0.2-0.4c0.1-0.2,0.2-0.4,0.4-0.6l0.8-1.2c0.5-0.8,1.2-1.5,1.8-2.3
		c0.5,1.5,1,2.9,1.4,4.4c0.3,0.9,0.5,1.6,0.7,2.4c0.4,1.6,0.8,3.2,1.1,4.8c0.7,3.2,1.1,6.4,2,9.5c1.3,5.1,3.6,10,6.3,14.6
		c1.9,3.4,4.1,6.7,6.3,9.9c0-0.2,0-0.3,0.1-0.5c0.2-1.8,0.2-3.7-0.8-5.4c-0.3-0.5-0.4-1.1-0.1-1.6c0.7-1,0.2-2-0.1-3
		c-0.9-2.8-1.9-5.6-2.6-8.5c-1.2-5-1.4-10,0.5-14.9c0.7-1.9,1.4-3.7,2.2-5.6c2.4-5.3,6.3-9.4,10.7-13.1c0.6-0.5,1.3-0.9,2.1-1.2
		c0.6-0.3,1.1-0.6,1.4-1.2c3.3-5.7,8.4-9.5,13.5-13.4c0.6-0.4,1.2-0.7,1.9-1c0.6-0.2,1.1-0.1,1.5,0.3c0.5,0.5,0.6,1.2,0.2,1.8
		c-0.4,0.7-0.9,1.3-1.5,1.9c-2.3,2.8-4.5,5.6-6,8.9c-0.2,0.4-0.7,0.9-0.1,1.5c5.1-3.2,10.8-4.3,16.6-4.8c1.9-0.2,3.8-0.7,5.6-1.2
		c1.2-0.3,1.9-0.9,2.5-2c1.8-3.3,2.4-6.9,3.3-10.5c0.3-1.4,0-2.2-1.2-3c-6.3-4.2-13.4-5.4-20.8-5.6c-1,0-1.6,0.3-2.2,1.2
		c-1.4,2-3.4,3.3-5.7,4.3c-3.1,1.4-6.3,2.3-9.7,2.7c-2.5,0.3-5,0.3-7,2c-0.1,0.1-0.3,0.1-0.4,0.2c-1.3,0.4-2.6,0.4-3.6-0.7
		c-1-1-1.1-2.3-0.6-3.6c0.8-1.9,1.9-3.7,3.4-5.1c2.3-2,4.5-4.1,6.7-6.1c2.7-2.6,5.2-5.4,7.5-8.4c1.5-1.9,1.1-3.4,0.2-5.2
		c-0.3-0.6-0.7-1-1.5-0.8c-1.1,0.3-2.1,0.1-3-0.6c-1-0.9-1.7-0.5-2.4,0.4c-3.1,3.7-7.1,5.9-11.6,7.8c-11.1,4.7-20,11.8-25.5,22.9
		c-0.4,0.7-0.7,1.4-1.1,2.1c-0.7,1.3-1.2,2.6-1.3,4.1c-0.4,3.3-1.6,6.5-1.7,9.9c0,0.2-0.1,0.5-0.1,0.7c-0.3,0.9-1,1.4-1.8,1.3
		c-0.8-0.1-0.8-0.9-0.8-1.5c0-1.7-0.4-3.3-0.9-4.9c-0.7-2.3-0.8-4.7-0.8-7.1c0.1-2.9,0.6-5.7,1.2-8.5c0.4-1.8,0.5-3.6,0.2-5.4
		c-0.4-2.1,0.1-4.1,0.9-6.1c0.9-2.3,2.2-4.4,3.7-6.4c0.8-1.1,1.6-2.2,2.2-3.4c1.7-3.6,4-6.7,6.9-9.5c3.8-3.8,7.9-7.2,12.2-10.5
		c0.5-0.4,1.2-0.5,1.2-1.5c-1-0.3-2.1-0.5-3.2-0.1c-4.8,1.6-9.6,3.1-13.9,5.9c-1.8,1.2-3.6,2.3-5.5,3.5c-0.4,0.3-1,0.8-1.4,0.3
		c-2.5,1.3-4.8,2.6-5.5,3.1c-0.6,0.5-1.2,1.2-2.5,1.4c0.4-1.2,1.2-1.8,1.8-2.4c1.3-1.3,2.7-2.6,4.1-3.8c0.6-0.6,1.2-1.2,1.8-1.7
		c0.3-0.3,0.7-0.6,1-1c0.9-0.9,1.8-1.7,2.6-2.6c3.6-3.7,7.7-6.8,12.3-9.1c4.1-2.1,8.3-4.1,12.6-5.9c3.8-1.6,7.5-3,11.7-3.5
		c1.5-0.2,3.6,0.2,4.4-0.9c0.8-1.1,0.7-3.1,0.8-4.6c0.5-4.2,1.2-8.2,3-12c0.9-1.9,1.5-3.9,2-5.9c0.6-2.1,0.1-3.3-1.7-4.3
		c-2.9-1.6-5.8-3-9.2-3c-1,0-1.9-0.2-2.7-0.9c-0.8-0.7-1.5-0.7-2.4-0.5c-8.3,2.2-16,5.5-22.7,11c-2.9,2.3-7.4,7.5-10.3,10.7
		c-0.4,0.4-0.7,0.8-1.1,1.3c-0.5,0.6-1,1.3-1.7,1.7c-0.4,0.2-0.8,0.2-1.1,0c-0.3-0.2-0.6-0.6-0.4-1c0.3-0.7,0.6-1.5,1-2.2
		c1-1.8,2.1-3.6,3-5.5c4.9-11.3,11.7-21,23.4-26.2c0.6-0.3,1.1-0.6,1.7-0.9c10.5-5.8,21.3-5.9,32.4-1.6c6.5,2.5,12.6,5.8,19.2,8.1
		c3.2,1.1,6.3,1.9,9.8,1.5c5.7-0.7,11.5-1.1,17.2-0.3c3.3,0.4,6.7,0.6,10,0.8c1.8,0.1,1.8,0.1,2.1-1.6c0.6-3.7,1.7-7.2,3.7-10.3
		c0.5-0.7,1-1.5,1.6-2.1c2.1-1.9,5-1.1,6,1.6c0.3,0.8,0.3,1.6,0.3,2.4c0,1.4,0,2.7-0.1,4.1c-0.2,2.1,0.6,3.5,2.5,4.3
		c3.8,1.6,6.9,4.2,10.3,6.6c1.1,0.8,1.6,2.8,2.9,2.6c1.2-0.2,2.3-1.6,3.5-2.4c5.4-3.9,28.6,0.5,29.8,0.8c3.9,0.9,7.6,2.5,11,4.6
		c3,1.8,6,3.7,8.9,5.6c4.7,3,8.8,6.7,12.3,11c4.7,5.7,8.1,12,10.2,19.1c0.4,1.3,0.7,2.6,0.6,4c-0.1,0.6,0.1,1.5-0.7,1.6
		c-0.9,0.1-0.7-0.9-0.8-1.5c-0.9-3.9-2.7-7.4-5.6-10.2c-2.7-2.5-5.6-4.8-8.5-7c-6.6-4.9-14.1-8.1-21.7-11.1c-3-1.2-6.1-2-9.2-2.5
		c-0.9-0.1-1.8-0.3-2.6,0c-3.7,1-7.3,2.4-10.7,4.2c-1,0.5-1.6,1.2-1.8,2.4c-0.4,2.5-0.7,5.1-2.3,7.3c-0.4,0.6-0.1,0.9,0.6,1.2
		c3.8,1.3,7.6,2.4,11.3,3.9c6.3,2.6,11.3,6.9,15.1,12.5c1.2,1.7,2.5,3.4,4.2,4.6c7.5,5.3,11.6,13,15.3,21.1c0.4,0.8,0.8,1.8,0.6,3.1
		c-0.5-1-0.8-1.6-1.1-2.2c-2.1-4-4.4-7.9-7.5-11.1c-4.7-4.8-10.1-8.1-17.2-7.6c-4,0.3-8,0.5-12,0.6c-2.2,0.1-4.4,0.3-6.9,0.4
		c0.6,2,0.3,3.9,0,5.8c-0.5,3.7,0.6,7,2.3,10.1c0.5,1,1.2,1.9,1.8,2.8c1,1.6,2.4,2.7,4.2,3.3c2.7,0.9,5.1,2.4,6.6,4.9
		c1.5,2.6,2.8,5.2,3.8,8c0.3,0.8,0.5,1.7,0.4,2.6c-0.1,0.7-0.6,1.3-1.3,1.1c-1.3-0.4-2.8-0.2-3.7-2.1c-1.5-3.4-4.2-5.5-8.1-5.8
		c-2.6-0.2-5.2-0.9-7.7-1.7c-2.3-0.7-4.6-1.7-6.2-3.5c-1.6-1.9-3.8-2.6-6-3.3c-1.4-0.4-2.4-0.2-3.5,0.8c-3.4,2.9-7.2,4.9-11.6,6.1
		c-3.9,1.1-7.7,2.1-11.7,2.8c-1.9,0.3-3.7,0.8-5.5,1.8c0.3,0.8,0.6,1.6,1,2.3c3.3,6.2,8.4,10.4,15,12.6c0.8,0.3,1.8,0.3,2.1,1
		c0.9,1.5,2.3,1.5,3.7,1.8c3.1,0.6,6.2,1.6,9.3,2.5c0.6,0.2,1.1,0.6,1.9,0.3c-0.3-0.7-0.6-1.3-0.8-2c-0.6-1.8-0.5-3.5,0.4-5.1
		c0.4-0.6,0.8-1.2,1.7-1.1c0.8,0.1,1.1,0.6,1.2,1.3c0.2,1.2,1.1,1.7,2,2.2c1.5,0.8,3.1,1.3,4.7,1.7c2.8,0.7,5.6,1.5,8.2,2.6
		c11,4.3,18.3,12,21.7,23.4c0.2,0.6,0.2,1.4,0.9,1.9c0.2-0.3,0.4-0.6,0.5-0.9c1.7-4.3,6.1-5,9.6-3.2c2,1,3.5,2.5,4.9,4.1
		c2.8,3.2,4.3,7.1,5.3,11.2c0.1,0.6,0.3,1.2,0.4,1.8c0.1,0.6,0.2,1.2,0.3,1.8c0.5-7.8,0.8-14.7,0.2-16.7c-1.6-5.3-3.2-9.5-8.4-13.7
		s-4.7-7.4-3.7-12.7c1.1-5.3,14.8,10,14.8,10s4.2,11.6,7.4,12.1s-2.6-19.5-8.4-32.2c-5.8-12.7-15.3-20-12.1-20.6
		s26.9,19.5,25.8,16.9c-1.1-2.6-7.9-17.4-12.7-26.4s-6.3-19.5-3.2-17.9c3.2,1.6,20.6,31.1,23.7,33.2c3.2,2.1,0-38-7.4-55.9
		C604.3,354.8,596.9,348.5,576.3,334.2z"/>
	<path class="st1" d="M766.5,340.1c0-0.5,0-1,0-1.5c0-0.6,0-1.3,0-1.9c0-0.7,0-1.4,0-2.1c0-0.4,0-0.8,0-1.2c0-0.9,0.1-1.9,0.1-2.8
		c-4.7-9.2-10.5-17.6-18.8-23.5c-4.9-3.4-10.5-5.8-15.4-9.3c-12.2-8.6-18.8-22.5-23.8-36.9c-0.2,0.9-0.4,1.8-0.6,2.8
		c-1.7,8.4-1.2,16.6,2.9,24.3c1.4,2.6,2.7,5.3,4.1,7.9c2.7,4.8,5.2,9.7,7.4,14.8c1.9,4.2,3.7,8.5,4.7,13.1c2.3,10.2,3.2,20.5,2.1,31
		c-0.4,4.3-1.2,8.6-2.3,12.7c-0.6,2.1-1.5,4.1-3.2,5.5c-2.2,1.8-5.1,0.9-5.9-1.9c-0.1-0.5-0.2-0.9-0.3-1.4
		c-0.2-4.9-1.7-9.4-3.3-13.9c-3-8.5-7-16.5-13.8-22.8c-1.5-1.4-2.9-3-4.3-4.5c-3-3.3-5.7-6.9-7.7-10.9c-0.1-0.3-0.3-0.5-0.7-1.1
		c-0.1,0.6-0.3,0.9-0.2,1.1c0.4,5.9,1,11.8,3.1,17.4c2,5.4,4.4,10.6,7.4,15.6c0.5,0.8,0.9,1.7,1.3,2.6c0.2,0.5,0.1,0.9-0.4,1.2
		c-0.4,0.2-0.8,0.1-1.1-0.2c-1.1-0.9-2-2-2.9-3.2c-5.1-6.5-10.7-12.5-16.2-18.6c-5.1-5.6-10.1-11.3-13.3-18.4c0-0.1-0.3-0.1-0.6-0.2
		c-0.9,1.2-1.8,2.4-2.7,3.6c-0.7,0.9-0.9,1.8-0.6,2.9c0.7,2.5,1.3,5,1.7,7.5c0.3,1.5,0.9,2.6,2.2,3.5c2.4,1.6,4.6,3.5,6.5,5.7
		c3.8,4.5,7.3,9.1,10,14.3c8.3,15.7,11.3,32.3,8.5,49.9c-0.2,1.3-0.3,2.5,0.2,3.8c1.1,2.7,2,5.6,3.3,8.2c2.9,6.1,6.2,12,11.6,16.2
		c3,2.4,6.2,4.6,9.4,6.6c3.5,2.2,7.4,3.4,11.5,3.9c1.3,0.2,2.7,0.1,4-0.2c0.2-0.1,0.5-0.1,0.7-0.2c0-0.9-0.5-1.5-0.9-2.1
		c-4.8-7.4-7.7-15.6-9.7-24.2c-0.3-1.3-0.5-2.7-0.4-4c0-0.3,0.1-0.6,0.1-0.9c0-0.1,0-0.2,0.1-0.3c0-0.2,0.1-0.4,0.1-0.6
		c0-0.1,0.1-0.2,0.1-0.3c0.1-0.2,0.1-0.3,0.2-0.5c0-0.1,0.1-0.2,0.1-0.3c0.1-0.1,0.1-0.3,0.2-0.4c0.1-0.1,0.1-0.2,0.2-0.3
		c0.1-0.1,0.2-0.2,0.2-0.4c0.1-0.1,0.1-0.2,0.2-0.3c0.1-0.1,0.2-0.2,0.3-0.3c0.2-0.2,0.4-0.4,0.6-0.6c0.1,0,0.1-0.1,0.2-0.1
		c0.1-0.1,0.3-0.2,0.4-0.3c0.1,0,0.1-0.1,0.2-0.1c0.2-0.1,0.3-0.2,0.5-0.3c0.1,0,0.1-0.1,0.2-0.1c0.2-0.1,0.3-0.2,0.5-0.2
		c0,0,0.1,0,0.1,0c1.1-0.4,2.3-0.5,3.5-0.3c0.3-1.9,1.1-3.9,2.7-6c5.3-6.9,1.8-0.5,2.1-8.4c1.6-41.1,6.4-51.1,9-54.3c0,0,0,0,0-0.1
		c0.2-0.5,0.4-0.9,0.6-1.4c1.4-2.6,3.5-4.2,6.5-4.2c2.9,0,5.1,1.4,6.4,3.9c2.3,4.4,5.6,8,8.9,11.6c0.5,0.6,1,1.3,1.9,1.4
		c0.4-0.4,0.3-0.9,0.3-1.4C766.5,342.4,766.5,341.3,766.5,340.1z"/>
	<path class="st1" d="M261.3,346c-4.9,1-9.9,0.7-14.8-0.1c-2.4-0.4-4.6-1.2-6.7-2.5c-4.9-3-5.9-8.9-0.7-12.6
		c0.1-0.1,0.3-0.2,0.4-0.3c2.9-2.2,5.2-5,6.9-8.2c1.8-3.4,3.5-6.8,5.3-10.2c0.9-1.7,1.6-3.5,2.2-5.3c0.2-0.5,0.4-1,0.1-1.5
		c-1,0.6-1.5,1.4-2.1,2.1c-5.5,6.7-12.1,12.2-19.1,17.4c-1,0.7-2,1.4-3.1,1.8c-1.4,0.4-2.7,0.1-3.7-1c-0.9-1.1-1.1-2.3-0.6-3.6
		c0.3-0.7,0.7-1.4,1.2-2.1c1.4-2,2.8-3.9,4.2-5.8c5.5-7.4,8.8-15.7,11.3-24.5c0.1-0.5,0.3-0.9,0-1.6c-0.9,0.3-1.4,1-2,1.5
		c-6.9,5.9-12.3,13.2-17.9,20.3c-0.7,0.9-1.3,2-2.5,2.6c-1.3,0.6-0.8,2.4-2,3.1c-0.6-0.6-0.3-1.3-0.2-1.8c0.2-1,0.4-2,0.2-3.1
		c-0.4-2.9,0.1-5.7,1.1-8.5c0.8-2.3,1.5-4.7,2.2-7.1c0.3-0.9,0.6-1.9,0.9-2.8c0.1-0.4,0.3-0.8,0.4-1.3c0.2-0.5,0.3-0.9,0.5-1.4
		c0.2-0.5,0.4-1.1,0.6-1.6c0.1-0.3,0.3-0.7,0.4-1c0.2-0.6,0.5-1.2,0.7-1.8c-8.1,6.2-15.6,13.2-19.6,22.4c-2.9,6.7-3.6,14.1-4.4,21.3
		c-0.1-0.1-0.2-0.2-0.3-0.3c0.5,2.5,1.1,4.9,1.7,7.3c1.1,4.3,2.2,8.7,2.8,13.1c1.5,11.9,0.8,23.8-1.2,35.6c-0.1,0.5-0.3,1,0.1,1.6
		c1.6-0.9,2.9-2.1,4.2-3.3c2.2-2.1,4.2-4.4,6.2-6.7c0.6-0.7,1.2-1.3,1.8-2c1.7-1.9,3.4-3.8,5.2-5.7c0.9-1,2-1.9,3.3-2.3
		c2.1-0.7,4.1,0.5,4.1,2.7c-0.1,3.1,0.2,6.3-0.3,9.3c-1.3,7.2-2,14.4-2.6,21.7c-0.5,6.6-1,13.2-0.6,19.9c0.1,2.4,0.4,4.8,0.5,7.2
		c0.1,1,0.4,1.5,1.5,0.9c2.1-1,4.3-1.6,6.5-2.5c3.5-1.3,7-2.6,10.5-4c2.9-1.1,5.5-2.8,7.7-4.9c-0.9,0-1.8,0.2-2.6,0.5
		c-2.8,0.8-5.6,1.3-8.5,1.5c-3.7,0.3-7.2-0.1-10.5-1.9c-4-2.1-5-5.8-2.8-9.7c0.8-1.3,1.7-2.5,2.8-3.6c1-1,2.1-2,3.1-3
		c7.2-7,13.3-14.9,16.9-24.5c1.1-2.8,2.3-5.6,3.4-8.5c2.6-6.9,5.3-13.7,8.7-20.3c0.2-0.4,0.6-0.8,0.1-1.3
		C262.1,346,261.7,346,261.3,346z"/>
	<path class="st1" d="M331.4,508.1c-4.4-0.7-6.4-4.7-4.5-8.6c0.5-1.1,1.3-2,2.1-2.9c2.2-2.6,3.7-5.6,4.7-8.8
		c1.3-4.3,2.1-8.7,2.6-13.2c0.2-1.9,0.2-3.7,0-5.6c-0.7,0.1-0.8,0.5-0.9,0.9c-1.9,4.3-4.9,7.6-8.6,10.4c-3,2.2-6.2,4.2-9.5,6.1
		c-0.9,0.5-1.7,1-2.6,1.5c-1.7,1-3.3,2.1-4.8,3.4c-0.6,0.5-1.2,0.9-1.4,1.6c-0.7,2.7-1.5,5.3-0.6,8.2c1.2,4.2,1.7,8.6,1.3,13.1
		c-1,9.8-4.1,18.7-10.2,26.5c-0.4,0.5-1.1,1-1,1.8c0.2,0.1,0.5,0.2,0.7,0.2c6.5,0,12.3-2.1,18.1-4.6c0.8-0.4,1.7-0.7,2.5-1.1
		c0.8-0.4,1.1-1.1,1.3-1.9c1.4-5.3,4-9.9,7.4-14.1c2.8-3.6,5.6-7.2,8.4-10.8c0.5-0.6,1.2-1.2,1.2-2.3
		C335.4,508.1,333.4,508.4,331.4,508.1z"/>
	<path class="st1" d="M418.9,283.9c1.3-1.2,2.1-3.2,1.3-4.9s-3.4-2.2-4.4-0.7c-0.6-2.4,1.2-4.7,3.1-6.2s4.3-2.5,5.9-4.3
		c1.6-1.8,2.1-5,0.2-6.5l-8.9,1.9c-5.7,6.3-14.2,10-22.7,9.7c-8.5-0.2-16.8-4.3-22.1-10.9c0.8,6.1,4.9,11.7,10.5,14.4
		c-9,5.3-15.2,14.9-16.5,25.3c5.2-3.4,10.3-6.8,15.5-10.2c-6.2,6.6-12.5,13.2-18.7,19.8c-1.9,2-3.9,4.2-4.9,6.8
		c-1,2.6-0.7,5.9,1.4,7.8c15-17.3,34.3-30.9,55.6-39.3C415.9,285.8,417.6,285.1,418.9,283.9z"/>
	<path class="st1" d="M409.7,233.5c0,0.8,0.1,1.5,0.1,2.3c2.6-1,5.6-0.9,8.1,0.3c1.5,0.7,3.2,1.6,4.5,0.8c0.9-0.6,1.2-1.7,1.3-2.8
		c0.5-3.5,0.2-7-0.8-10.4c-0.6-2-1.5-4.1-3.2-5.5c-1.6-1.4-4-2-6-1.1c-1.9,0.9-2.9,3.7-1.6,5.4c-1.5,0.8-2.9-1.2-3.9-2.6
		c-2-2.8-5.7-4.1-9.1-4.1c-3.5,0.1-6.8,1.4-9.9,3c-11,5.9-19.4,16.4-22.7,28.5c1.9,1.1,4.1-1,5-3c0.9-2,2.1-4.5,4.3-4.6l1-1.4
		c6.7-8.9,18.9-13.3,29.7-10.7c2.9,0.7,6.2,2.6,6.1,5.6C411.8,233.5,410.7,233.7,409.7,233.5z"/>
	<path class="st1" d="M558.9,217.7c-0.5,0.6-0.9,1.3-1.6,1.7c-1.4,0.6-2.9-0.5-4.3-1.2s-3.7-0.6-3.8,0.9c-0.1,0.6,0.3,1.2,0.7,1.8
		c2,3,3.4,6.4,4.2,10l0-0.1c2.4,1.7,5.7,1.4,8.4,0.4s5.3-2.7,8.1-3.4c2.3-0.6,4.7-0.5,7-0.3c5.4,0.4,10.7,1.6,15.5,4.1
		c4.7,2.6,8.8,6.6,10.6,11.7c0.3,0.7,0.5,1.6,1.2,2c1.1,0.8,2.7,0.1,3.3-1.1s0.5-2.6,0.2-3.9c-1.5-7.8-6.5-14.9-13.4-18.8
		s-15.5-4.7-23-2c2.6-2.4,5.2-4.8,7.8-7.2C572.8,208.9,563.4,211.3,558.9,217.7z"/>
	<path class="st1" d="M550.9,280.8c1.1,2.3,4,3,6.5,3.2c7.2,0.7,14.6,0.4,21.7,2c13,3,23.9,12.7,30.3,24.4c1.7,3,3.9,6.7,7.3,6.5
		c-0.9-12.2-10.1-21.9-18.8-30.6c2.6,0.5,4.6-2.8,3.7-5.3c-0.8-2.5-3.4-3.9-6-4.5c1.9-3.6,3.9-7.3,5.8-10.9
		c-4.7,8.3-16.1,9.7-25.5,8.6c-5.6-0.6-11.2-1.7-15.9-4.8s-8.3-8.2-8.2-13.8l-3.9,2c-2.7-1.5-6-1.8-8.9-0.8
		c-0.3,7.6,10.4,11.7,11.3,19.3C550.5,277.7,550.2,279.4,550.9,280.8z"/>
	<path class="st1" d="M346.9,283.7c-0.1,0-0.2,0-0.3-0.1c-0.3,0-0.8,0-1.3,0.2c-0.6,0.3-1.1,1-0.9,1.7l-1.9-0.3
		c-0.9,5.9-5.2,10.6-9.8,14.4c-4.6,3.7-9.8,6.9-13.6,11.4c5,0.4,10.1-1.3,13.9-4.6c-3.6,5.3-7.2,10.7-10.8,16
		c-2.1,3.2-4.3,6.5-5.2,10.2s-0.3,8.1,2.6,10.7c4.4-9.7,13.1-17.5,23.3-20.7c-1.7-1.9-1.6-4.9-1.3-7.5c0.9-8.5,1.8-17.1,5.6-24.7
		c0.6-1.1,1.2-2.3,1.3-3.5C348.6,285.6,348,284.1,346.9,283.7z"/>
</g>
<g>
	<path class="st2" d="M484.6,259.3c0,2.3,1,4.6,2.6,6.2c2-2.4,5.3-5.1,7.8-3.3c1.5,1.1,1.8,3.2,2,5c0.8,6.2,2.8,12.2,5.7,17.7
		c1.7-12.8,6.8-25.1,14.7-35.3c-3.2-2.4-8.4-1.4-10.4,2.1c-2.8-5.5-2.8-11.9-4-18c-1.2-6-4.3-12.5-10.2-14.3
		c-1.9,3.3-1.3,7.5-1,11.4c0.6,9.4-2.1,18.9-7.4,26.7L484.6,259.3z"/>
	<path class="st2" d="M447.8,265.3c-2.8,0.2-6,0-8,2c-1.1,1.1-1.2,3.5,0.3,3.8c0.6,0.1,1.2-0.2,1.8-0.4c4.4-1.6,9.2,1.1,12.8,4.1
		c2.6,2.1,5,4.4,7.3,6.9c0-3.5,2.2-6.6,3.7-9.9s1.8-7.6-1-9.8c-1.4,1.2-2.8,2.4-4.3,3.7l-0.6-0.6c-4.6-10.5-10.7-20.4-18-29.3
		c4.5,8.1,7.4,17.1,8.4,26.2c0.1,0.9,0.1,2-0.5,2.7C449.2,265.2,448.5,265.3,447.8,265.3z"/>
	<path class="st2" d="M623.4,423.8c0.2-4.6,0.4-9.3,1.1-13.9c0.3-2.2,0.3-4.3,0.3-6.5c-0.4-23.3-13.2-52.4-28.9-68.4
		c-5.6-5.7-12.3-9.6-19.4-13.1c-0.7-0.3-1.5-0.5-2.3-0.7c-5.3-1.1-10.5-2.9-16-2.8c-0.1,0-0.2,0-0.2,0c-1-0.1-1.9-0.5-2.2-1.5
		c-0.4-1,0.1-1.9,0.7-2.6c0.8-1,1.8-1.6,2.9-2c7.9-3.1,15.8-3.6,23.8-0.3c2,0.8,4,1.5,6.1,2c-0.2-0.8-0.6-1-1-1.2
		c-6.8-5.2-14.1-9.6-22.4-12.3c-7.9-2.6-15.9-4.4-24.3-3.1c-2.1,0.3-4.3,0.5-6.4,0.8c-5.2,0.6-10.2,2-14.8,4.6
		c-0.6,0.3-1.1,0.6-1.7,0.8c-1.7,0.7-3.2,0.4-4.2-0.8c-0.9-1.1-1-2.7,0-4.2c0.9-1.5,2.1-2.8,3.5-4c1-0.8,1.8-1.8,2.3-3
		c0.8-1.7,1.7-3.4,2.5-5.2c0.2-0.4,0.7-0.9,0-1.5c-1.8,0.7-3.5,1.5-5.1,2.5c-7,4.2-12.7,9.7-17.5,16.2c-0.9,1.2-1.6,2.4-2.7,3.3
		c-2.1,1.7-4.6,1.2-5.8-1.3c-0.3-0.7-0.4-1.5-0.7-2.3c-0.7-1.7-0.7-3.7-2.1-5c-1.3-1.2-1.8-2.8-1.8-4.5c-0.1-2.9-0.3-5.8-0.5-8.6
		c0-0.5,0.3-1.2-0.7-1.5c-2,3-4.1,6-5.2,9.6c-0.7,2.3-0.9,4.6-0.2,7c1,3.3,0.4,6.8-0.2,10.2c-0.1,0.3-0.2,0.6-0.4,0.9
		c-0.8,1.3-2.4,1.4-2.8,0c-0.7-2.4-2.3-3.9-4.2-5.3c-0.5-0.4-0.9-0.9-1.3-1.4c-2.8-3.6-6.4-6.3-10.7-7.9c-4.6-1.7-9.4-3.3-14.3-4.2
		c-1.4-0.2-2.8-0.6-4.3-0.2c0.3,1.6,0.4,3.1-0.1,4.6c-0.7,2.1-1.4,2.6-3.6,2.7c-3.1,0.2-6.2,0.2-9.3,0.8c-9,1.7-17,5.9-24.7,10.7
		c-6.7,4.1-12.7,9.2-18.1,14.9c-8.5,9.1-16.3,18.6-21.6,30.1c-0.9,2-2.1,4-3.1,6c-3.3,6.4-6,13.1-7.9,20.1
		c-2.7,10.1-6.2,19.9-12.5,28.3c-0.2,0.3-0.4,0.5,0,0.8c3.4-1.4,3.4-1.4,5.5-4c1.2-1.5,2.5-3,4.3-3.7c0.8-0.3,1.5-0.3,1.9,0
		c0.4,0.3,0.6,0.9,0.5,1.7c-0.1,0.7-0.3,1.4-0.5,2.1c-1.7,6.9-3.5,13.8-5.1,20.7c-1.1,4.9-2,9.8-2.5,14.7c0.9-2.1,1.9-4.1,3.1-6.1
		c2.6-4.5,5.9-8.7,9.6-12.4c0.9-1,1.9-1.8,2.9-2.7c0.2-0.2,0.5-0.4,0.9-0.7c0.4-0.2,0.8-0.5,1.4-0.5c0.6-0.1,1.2,0.1,1.6,0.3
		c0.5,0.3,0.8,0.6,1.1,1c0.5,0.8,0.8,1.7,0.7,2.7c-0.1,0.9-0.5,1.6-0.9,2.3c-0.4,0.6-0.8,1.2-1.3,1.7c-0.4,0.5-0.8,1-1.1,1.5
		c-1.6,1.9-2.8,4.1-4.1,6.3c-1.1,2.2-2.2,4.5-3.1,6.9c-1.8,4.7-3.3,9.7-4.8,14.6c-1.5,4.6-3.2,9.2-5.4,13.6c0.3,8.6-1.4,17.1-5,25.1
		c-0.2,0.4-0.6,0.8-0.2,1.3c0.4,0.1,0.8-0.1,1.1-0.3c2.4-1.1,4.7-2.4,6.7-4.2c3-2.7,6.8-1.3,7.5,2.7c0.2,1.4,0.2,2.9,0.1,4.3
		c-0.1,4,0.5,7.8,1.7,11.6c2.4,7.1,6.3,13.3,11.1,18.9c3.6,4.3,7.7,7.9,12.4,11.1c0.3-0.9-0.1-1.5-0.3-2c-2.2-5.5-2.9-11.3-2.8-17.2
		c0-3.5,0.5-7,1.8-10.3c0.5-1.2,0.3-2.1-0.4-3.3c-3.4-5.7-5.2-11.8-3.8-18.6c0.4-1.9,0.4-3.8,0.4-5.7c0-2.8-0.2-5.6-0.5-8.4
		c-0.2-2-0.1-4,1.2-5.8c0.9-1.4,2.3-2.1,3.6-2.1c0.2-7,0.5-14.2,0.7-20.1c0.1-2.9-3.7-3.9-5-1.3l-2,3.8c-1.9,3.7-7.4,2.1-7.1-2
		l0.7-8.4c2.4-6.3,4.6-13.1,5.1-19.7c1.7-6.5,3.3-13,4.1-16.5c2.1-9,16.4-25.8,16.9-30.1s-18.5,17.4-21.6,13.7c0,0-0.1-0.1-0.1-0.1
		c-4.8-5.7-4.9-14-0.4-20c5.9-7.8,13.8-18.2,15.8-21c-2.7,0.7-8.5-2.9-3.8-9s11-10.9,17.4-15.2c11.6-7.7,27.3-9.5,45-9.8
		c6.6,1.6,12,4,13.6,7.6c4.7,10.5,10,13.2,10,13.2s-0.5-10.5,1.1-10.5c1.6,0,9,7.4,10,9.5c1.1,2.1,9.5-19.5,15.8-15.3
		c6.3,4.2,1.6,14.2,4.2,13.2c2.6-1.1,12.1-10.5,16.9-14.8l1.4-0.5c3.6-1.3,7.3,1.4,7.4,5.2c0,6.6,0.7,14.9,3.9,14.3
		c5.3-1.1,8.4-3.2,14.2-5.3c5.8-2.1,10.5-9.5,31.1,4.7s28,20.6,35.3,38.5c7.4,17.9,10.5,58,7.4,55.9c-3.2-2.1-20.6-31.6-23.7-33.2
		c-3.2-1.6-1.6,9,3.2,17.9s11.6,23.7,12.7,26.4c1.1,2.6-22.7-17.4-25.8-16.9s6.3,7.9,12.1,20.6c5.8,12.7,11.6,32.7,8.4,32.2
		s-7.4-12.1-7.4-12.1s-13.7-15.3-14.8-10c-1.1,5.3-1.6,8.4,3.7,12.7s6.9,8.4,8.4,13.7c0.6,2,0.4,8.9-0.2,16.7
		c1.5,9,1.1,18.1-0.4,27.1c-0.2,1.2-0.7,2.4-0.6,4c3.3-2,6.3-4.1,8.4-7.3c2.2-3.3,3.6-7,4.4-10.8c0.1-0.7,0.3-1.4,0.6-2.1
		c0.3-0.7,1-1.1,1.8-1c0.8,0.1,1.3,0.6,1.5,1.4c0.1,0.5,0.1,1.1,0.1,1.7c0,4.5-0.8,8.9-2.6,13.1c-0.8,1.7-0.9,3.3-0.5,5.2
		c1,5.1,3,9.9,4.8,14.8c0.6,1.7,1.4,3.4,2.1,5c0.6-0.1,0.8-0.4,1-0.8c2.2-3.1,4.4-6.1,6.3-9.4c2-3.6,3.9-7.2,4.6-11.3
		c0.4-2.2,0.7-4.4,0.9-6.6c0.2-1.8,0.2-3.7,0.2-5.6c-0.1-6.3-0.6-12.5-1.7-18.6c-0.4-2.4-0.9-4.9-1.2-7.3
		c-0.9-7.3-1.7-14.6-3.1-21.8c-0.5-2.5-1.2-4.8-2.4-7c-0.6-1-1.1-2.1-1.4-3.3c-1-4.4,2.1-8.1,6.7-7.6c1,0.1,1.9,0.4,2.8,0.5
		c1,0.1,2,0.6,3.2,0.4c-0.2-1.3-1-2.2-1.5-3.3C625.6,439.1,623.1,431.8,623.4,423.8z"/>
	<path class="st2" d="M252.3,244.5c1.1-2.5,2.6-4.8,4.4-6.8c3.1-3.6,6.2-7.2,9.2-10.7c1-1.2,2-2.4,2.8-3.7c1.7-3.4,3.3-6.9,4.9-10.5
		c0.7-1.7,1.2-3.6,2.7-5.4c0.5-1.2,1-2.4,1.5-3.6c1.1-2.7,1.8-5.5,3.6-7.8c0.2-0.2,0.3-0.6,0.3-0.9c-0.1-2.5-0.3-5-0.5-7.6
		c-0.4,0.2-0.6,0.3-0.7,0.4c-0.3,0.5-0.6,1-0.8,1.4c-4.3,7.9-9,15.5-14.3,22.7c-9.5,13-20.2,25-32.3,35.7
		c-6,5.3-11.8,10.8-17.2,16.7c-10.7,11.6-16.3,25.3-17.3,40.9c-0.5,7.9,0.3,15.6,1.8,23.3c0.1,0.1,0.2,0.2,0.3,0.3
		c0.7-7.2,1.5-14.6,4.4-21.3c4-9.3,11.5-16.3,19.6-22.4c2-5,4.5-9.8,7.7-14.2c3.8-5.4,7.9-10.5,12-15.6c1.5-1.9,3.1-3.8,4.7-5.7
		C250.3,247.9,251.4,246.3,252.3,244.5z"/>
	<path class="st2" d="M342,167.1c2-1.8,4.1-3.4,6.3-4.9c-4.9,0.8-9.8,1.5-14.8,2c-2.4,0.3-5.1,0.4-6.8-1.3c-0.8-0.8-1.3-1.9-1.6-3.1
		c-2.2-7.4,0-15.7,4.3-22.2c4.3-6.5,10.6-11.4,17.1-15.7c1.4-1,2.9-1.9,4.1-3.1c1.3-1.4,2.2-3,3.2-4.7c1.4-2.5,2.7-4.9,4.1-7.4
		c-5.1-1.1-10.3-1.7-15.5-1.6c13.6-10.3,30.1-16.6,47-19.5c9.5-1.6,19.1-2.1,28.8-1.9c-1.2-0.4-2.4-0.8-3.7-1.1
		c-2.7-0.6-5.4-1.4-8.1-2.1c-13-3.6-26.2-3.9-39.5-1.6c-7.2,1.2-14.1,3.7-21.1,5.6c-5,1.4-9.8,3.5-14.3,6.2
		c-3.1,1.9-6.3,3.9-9.3,5.9c-6,4.1-12,7.9-18.4,11.3c-0.5,0.3-1.1,0.5-1.5,1.1c0.3,0.2,0.5,0.4,0.7,0.5c3.9,1.5,7.8,3.1,11.7,4.6
		c1.1,0.5,2.3,0.9,3.4,1.4c2.5,1,5,1.7,7.7,1.6c0.6,0,1.3,0,1.9,0.2c1.9,0.8,3.9,0.5,5.9,0.4c1.1-0.1,2.2-0.3,3.3,0
		c1.5,0.4,2,1.7,1,2.9c-0.6,0.7-1.4,1.1-2.2,1.5c-2,0.9-4.1,1.8-6.2,2.7c-0.8,0.4-1.6,0.7-1.9,1.7c-0.9,2.9-3,4.9-5.3,6.7
		c-4.9,4-9.5,8.4-13.9,12.9c-4.3,4.4-8.6,8.8-11.8,14.2c-1.8,3-2.9,6.2-3.2,9.7c-0.2,2.4-0.4,4.8-0.3,7.2c0.2,3.4,0.2,6.9-0.1,10.3
		c0,0.4-0.1,0.8-0.1,1.2c0,0.4,0.1,0.8,0.4,1.2c2.7-1.1,5.4-1.7,8.2-1.8c0.9-0.1,1.7-0.5,2.4-1c6.2-4.5,13.1-7.5,20.3-10.1
		C330.9,174.6,336.9,171.7,342,167.1z"/>
	<path class="st2" d="M670.3,143.9c-5.7-4-11.3-8.2-16.1-13.2c-1.6-1.6-3.2-3-5-4.2c-0.4-0.2-0.8-0.4-1.3-0.6
		c-4.4-2-8.9-3.6-13.5-4.9c-3.4-1-6.8-1.9-10.2-2.8c-1.9-0.3-3.8-0.5-5.7-0.7c-5.2-0.6-10.3-1.5-15.1-3.7c-1.8-0.8-3.8-1.4-5.6-2
		c-5.6-2-11.6-2.3-17-5c-0.1-0.1-0.3,0-0.4,0c2.3,3.5,9.6,9.2,17.5,13c21.4,10.3,34.1,11.1,54.4,23.6c7,4.3,15.2,10.4,23.9,16.4
		c4.9,1.2,9.8,2.3,14.8,3.5c3.4,0.8,6.8,1.1,10.3,1c0.1,0,0.3,0,0.4,0c0.5,0,1.2,0.2,1.4-0.6c-1.1-1-2.3-1.6-3.6-2.3
		C689.4,156.2,679.6,150.5,670.3,143.9z"/>
	<path class="st2" d="M766.9,276.9c-1-14.4-4-28.1-10-41.3c-3.6-7.9-8.8-14.2-15.8-19.2c-4.1-3-8.1-6-12.1-9c-2.4-1.8-5-3.5-7.7-4.8
		c-3.5-1.6-6.7-3.7-9.6-6.3c-0.4-0.3-0.6-0.9-1.5-0.6c0.8,4.2,1.4,8.5,1.8,12.8c0.1,0.9,0.6,1.6,1.1,2.3c2,2.6,4.2,5,6.7,7.2
		c4.4,3.9,8.4,8.1,12,12.7c3,3.8,5.7,7.6,8,11.7c3.1,5.6,5.4,11.7,6.1,18.5c0.8,7.2,1,14.4-0.3,21.5c-0.4,2.2-1.2,4.1-2.7,5.8
		c-2,2.3-3.8,2.7-6.6,1.3c-0.3-0.1-0.6-0.3-0.9-0.4c-3.2-0.7-5-2.9-6.3-5.7c-1.2-2.6-1.9-5.2-2.7-7.9c-1.4-5-3.5-9.8-6.1-14.3
		c-2.2-3.7-5.3-6.3-9.2-8.2c-1.1,2.6-1.9,5.2-2.6,7.9c5,14.3,11.6,28.3,23.8,36.9c4.9,3.4,10.5,5.8,15.4,9.3
		c8.3,5.9,14.1,14.3,18.8,23.5c0-0.6,0-1.2,0.1-1.8C767.4,311.4,768.1,294.2,766.9,276.9z"/>
	<path class="st2" d="M689.4,197.9c-3.6-6.4-8-12.2-13.1-17.4c-1.3-1.4-2.8-2.8-3.2-4.7c-0.4-1.8-1.5-2.3-2.9-2.7
		c-4.3-1.2-8.3-2.8-12.1-4.8c5.9,6.8,15.2,18,20,25.6c7.4,11.6,5.3,20,6.3,24.8c0.8,3.4-5.1,41-8.2,60.8c0.4,0.1,0.6-0.1,0.7-0.3
		c1.7-3.7,4.1-6.9,6.4-10.1c0.2-0.3,0.4-0.5,0.5-0.8c4.2-6,6.9-12.8,9.9-19.4c0.4-0.9,0.5-1.8,0.8-2.8c1.6-7.2,2.4-14.5,2.3-21.9
		C696.6,214.8,694.1,206.1,689.4,197.9z"/>
	<path class="st2" d="M749.3,397.7c-2.1-5.1-3.9-10.3-5.7-15.6c-1.5-4.5-2.3-9.1-2.8-13.8c-1.1-10-0.5-20,0.2-30
		c0.1-1.6,0.4-3.1,0.9-4.5c-2.6,3.2-7.3,13.2-9,54.3c-0.3,7.9,3.2,1.6-2.1,8.4c-1.6,2.1-2.4,4.1-2.7,6c0.7,0.1,1.4,0.3,2.1,0.6
		c0.9,0.4,1.7,0.9,2.5,1.5c6.7,4.7,14.3,6.7,22.3,7.2c0.6,0,1.3,0.2,1.8-0.3c0.2-0.8-0.4-1.2-0.8-1.6
		C753.3,406.1,751.1,402,749.3,397.7z"/>
	<path class="st2" d="M288,386.1c-0.8-2.9-2.2-5.5-3.5-8.1c-5.9-12.4-7.4-26.9-4.3-40.2c-1.4,2.7-2.6,5.4-3.8,8.2
		c-4.2,10.1-8,20.4-11.6,30.8c-4,11.6-10.5,21.5-19.3,30c-0.4,0.4-1.1,0.7-1.1,1.5c0.8,0.3,1.6-0.1,2.3-0.2
		c5.6-1.2,10.8-3.4,15.8-6.2c3-1.6,5.9-3.6,8.6-5.7c2.2-1.7,4.7-2,7.2-0.5c2.5,1.5,3.2,3.9,2.8,6.6c-0.2,1.4-0.6,2.7-1.1,3.9
		c-4.6,11.6-6.8,23.6-8,36c-1.1,12,0.3,23.7,3.5,35.2c1-10.2,2.5-20.4,5.3-30.3c2.4-8.3,5.8-16.3,7.4-24.8
		c1.8-9.6,1.2-19.4,0.6-29.2C288.8,390.7,288.6,388.4,288,386.1z"/>
	<path class="st2" d="M678,460.7c-9.2-11.3-12.4-24.1-10.1-38.4c0.8-5.1,2.5-10.1,4.2-15c2-5.7,3.8-11.4,3.9-17.5
		c0.1-10.3-1.4-20.2-5.5-29.7c-0.4-0.9-0.7-1.7-1.1-2.6c-0.4-0.9-0.7-1.8-1.1-2.7c0.1,2.8-0.2,5.7-0.5,8.4c-1.2,8.7-2.3,17.4-3.5,26
		c-1,7.3-2,14.6-3.8,21.8c-1.1,4.2-2.4,8.4-2.7,12.8c-0.4,6.1,1.5,12,2.3,18c0.9,6.5,0.5,13.2-0.9,19.5c-0.6,2.7-1.4,5.7,0.1,7.9
		c0.9,1.3,2.3,2.1,3.8,2.7c1.2,0.5,2.3,1,3.5,1.4c1.9,0,3.9-0.2,5.8-0.5c1.3-0.2,2.5-0.4,3.8-0.5c2.6-0.3,5.1-0.5,7.7-0.6
		c0.7,0,1.4,0.2,2.1-0.5c-0.6-1.6-1.6-3.1-2.7-4.4C681.6,464.9,679.8,462.8,678,460.7z"/>
	<path class="st2" d="M504.7,520.6c-1.9-1.9-2.2-4.9-2.2-7.5c0-2.7,0.1-5.5-1.1-7.9c-1.2-2.4-4.4-4-6.7-2.5c-0.9,0.6-1.5,1.7-2,2.6
		c-2.7,5.1-5.5,10.1-8.2,15.2c-4.9-4-8.8-9.2-11.4-14.9c-1.1,5.6-6.3,9.8-11.9,10.9s-11.4-0.3-16.5-2.9l-5.3-2.9
		c5.3,7.2,12.1,15.1,21,14.4c2.4-0.2,4.8-1.1,7.2-1.2c4.9-0.2,9.6,2.7,12.5,6.6c2.9,3.9,4.4,8.8,5.3,13.6c0.2,1.1,0.5,2.3,1.4,2.9
		c1.6,1,3.4-0.6,4.6-2c2.9-3.6,5.8-7.1,8.6-10.7c2-2.5,4.6-5.3,7.8-4.9c1.7,0.2,3.4,1.4,5.1,1.1c1.4-0.2,2.5-1.3,3.5-2.3
		c3.4-3.6,6.8-7.4,9.9-11.3c-3.9,0.3-7.2,2.7-10.8,4.3C512.1,522.8,507.4,523.4,504.7,520.6z"/>
	<path class="st2" d="M666.2,261.4c-1.2-8.7-3.1-17.3-6.1-25.6c-2.7-7.4-6.2-14.6-9.2-21.9c-1.1-2.8-2.7-5.4-4.2-8.1
		c-1.5-2.7-5.5-6.8-7.5-7.8c0,0.3-0.1,0.5,0,0.7c1.2,3.4,1.8,7,2.7,10.4c1.3,5.5,2.9,11,4.2,16.5c0.9,3.8,1.2,7.7,0.2,11.6
		c-0.2,0.7-0.3,1.6-1.2,1.5c-1-0.1-0.9-1-0.9-1.7c0-0.2,0-0.5,0-0.7c0.1-5.8-1.4-11.2-4.5-16.2c-4.4-7.2-8.9-14.3-13.3-21.4
		c-4.6-7.5-10-14.2-17.9-18.7c-2.7-1.5-3.6-4.3-2.7-6.7c0.3-0.8,0.8-1.5,1.4-2.1c-3-0.4-6-0.5-8.9-0.8c-0.6-0.1-1.2-0.1-1.8-0.2
		c-0.2,0-0.4-0.1-0.5-0.1c-5.7-1-8.6-4.1-17.7-12.1c-0.8-0.7-1.7-0.9-2.7-0.9h0c-2,1-4,2-6,3.2c-4.5,2.6-9.3,4.3-14.6,4.2
		c-0.7,0-1.5,0-2.2-0.1c-6-1.1-10.7,1.7-15.2,5c-0.3,0.2-0.6,0.5-0.9,0.7c-1,0.8-1.9,1.8-2.9,2.6c-1.6,1.3-3.3,2.2-5.3,2.7
		c-4.1,1-7.7-1-9.1-5c-0.6-1.7-0.8-3.4-0.9-5.2c-0.1-3.9-0.8-7.7-2.2-11.5c-1.7-4.5-1.7-9.3-0.6-13.9c0.9-3.8,2.1-7.5,3.8-11.1
		c1.6-3.2,3.8-5.9,6.3-8.4c2.1-2,5-1.4,6.3,1.2c0.6,1.3,0.7,2.6,0.5,4c-0.3,3-1.2,5.8-2,8.6c-0.9,3.4-1.6,6.8-1.6,10.5
		c1.1-0.2,1.3-0.9,1.7-1.3c5.6-6.5,12.3-11.3,20.5-14.1c2.3-0.8,4.6-1.6,7-2.4h0c5.8-3.9,12.8-8.5,10-8.9
		c-4.2-0.5-19.5-1.6-25.3,4.2s-1.1-11.6,6.3-17.9c6.4-5.5,24.8-11.4,24.6-13.9c16.2-0.9,33.6,2.2,44.8,5.2c1.2-0.3,2.4-0.6,3.6-0.9
		c0.1,0,0.2-0.2,0.4-0.3c0-0.1,0-0.2,0-0.3c-0.3-0.4-0.7-0.5-1.1-0.6c-3.6-1.3-7-3.1-10.2-5.2c-4.4-2.9-9.1-4.9-14.1-6.5
		c-7-2.3-14.2-2.9-21.3-2.5c-13.5,0.7-26.6,3.5-39,9.1c-0.1,0-0.2,0.1-0.2,0.1c-0.9,0.4-1.8,0.7-2.7,0.9c-0.9,0.2-1.8,0.2-2.7,0.1
		c-1.4-0.2-2.6-0.9-3.6-2.1c-1.6-2-1.7-4.3-0.5-6.5c0.5-1.1,1-2.2,1.4-3.3c1.4-4.5,2.8-9,4.2-13.5c0.2-0.7,0.6-1.3,0.4-2.1
		c-0.2,0-0.4,0-0.5,0.1c-0.6,0.5-1.1,0.9-1.6,1.4c-8.7,8.8-15.6,18.6-18.7,30.8c-0.9,3.4-2,6.7-4.1,9.7c-0.9,1.2-1.4,2.7-2,4.1
		c-0.2,0.5-0.3,1.1-1,1.4c-1.6-0.7-1.8-2.3-2-3.8c-0.2-1.7-0.1-3.4-0.1-5c0-1,0-2.1-0.3-3.1c-1.1-3.7-1.4-7.5-1.2-11.4
		c0.1-1.7,0.2-3.3,0.3-5c-0.2-1.7-0.2-3.5-0.1-5.2c0.1-1.2,0.2-2.4,0.3-3.6c0-1.7,0-3.4,0-5.1c0-2.7,0.1-5.4,0.2-8.2
		c0.1-2.2,0.3-4.4,0.7-6.6c0.4-2,1.1-3.9,2.1-5.7c0.1-0.2,0.1-0.4,0.2-0.9c-1.1,0.1-1.9,0.5-2.8,0.9c-2.9,1.3-5.4,3.1-8,4.9
		c-5.2,3.7-8.8,8.6-10.8,14.6c-1.8,5.4-2.9,10.9-2.5,16.7c0.2,2.8-1.1,4.8-3.2,5.7c-0.9,0.4-1.9,0.5-3,0.5c-1.9-0.1-3.4-0.8-4.7-2
		c-2-1.8-4-3.6-6.1-5.4c-2.3-2.1-4.9-3.9-7.8-5.2c-6.5-2.8-13.1-5.1-19.8-7.4c-0.5-0.2-1-0.5-1.5,0.1c1,2.1,2.4,3.9,4.1,5.5
		c3.4,3.2,7,6.1,10.6,9.1c2.5,2.1,4.6,4.6,5.9,7.8c0.8,2,0.4,2.7-1.7,2.5c-1.5-0.1-3-0.4-4.5-0.2c3,3.8,5.8,7.4,6.3,9.3
		c1.1,3.7-4.2,3.2-6.9,1.1c-2.6-2.1-13.2-7.4-15.3-8.4c-2.1-1.1-7.4-1.6-4.2,0.5c3.2,2.1,16.4,16.9,19,19c0.6,0.4,1.3,1.2,2,2.2l0,0
		c1.2,0.8,2.4,1.7,3.6,2.7c0.6,0.5,1.1,0.8,1.9,0.9c6,0.9,9.8,4.7,12.7,9.7c1.7,2.9,2.3,6.1,2.9,9.4c0.2,1,0.1,2.1,0.6,3.2
		c0.9-1.1,1.1-2.4,1.3-3.6c0.5-3.4,0.7-6.8,0.8-10.3c0.1-2,0-4,0.5-6c0.4-1.8,1.2-2.6,2.3-2.6c1.1,0,2,0.8,2.5,2.5
		c0.3,1.1,0.6,2.3,0.9,3.5c0.6,2.5,1,5,1.6,7.5c0.7,3.1,0.7,6.2,0,9.3c-0.9,3.6-2.2,7.2-3.7,10.6c-0.6,1.3-1.3,2.6-2.3,3.7
		c-2.8,3.2-6.2,3.9-9.9,1.9c-0.2-0.1-0.4-0.2-0.6-0.3c-0.2-0.1-0.5-0.3-0.7-0.4c-0.2-0.1-0.3-0.2-0.5-0.4c-1.8-1.3-3.3-2.9-4.4-4.8
		c-2.7,0.1-5.4,0.1-8.1-0.1c-2.4-0.2-3.8,2.6-2.3,4.3l0,0c-12.2,1-24.8-0.5-36.7,1.3c-1.4,0.2-1.5,2.3-0.1,2.5
		c5.2,1.1,10.2,3.3,15.1,5.5c-11,0-19.3,1.4-30.1,5.4c-3.3,1.2-6.5,2.6-9.7,4.3h0c-8.1,6.2-15.9,12.9-23.2,20c-1.7,1.7-3.7,3-5.9,4
		c-3.7,1.7-7.3,3.7-10.4,6.4c-4.8,4.1-9.1,8.7-12.2,14.4c-0.8,1.5-1.7,2.8-2.9,4c-1.3,1.4-2.6,2.8-3.9,4.2
		c-6.9,7.9-12.5,16.6-16.8,26.2c-0.3,0.6-0.8,1.2-0.5,2c1-0.5,1.6-1.4,2.3-2.1c2.1-2,4.2-3.9,6.6-5.5c4.1-2.7,8.6-4.5,13-6.7
		c0.4-0.2,0.9-0.3,1.4-0.4c2.2-0.3,3.8,0.9,3.6,3c-0.3,3.4,0.1,6.9-0.6,10.3c-0.3,1.7-0.4,3.4-0.2,5.2c0.8-0.4,0.9-1,1.1-1.5
		c2.1-4.7,4.7-9.1,7.7-13.3c4.3-6,9.3-11.4,14.2-16.9c3.9-4.5,8.4-8.3,13.5-11.4c3-1.8,5.8-3.7,8.3-6.1c0.7-0.7,1.6-1.3,2.5-1.8
		c1.2-0.7,2.2-1.5,3.3-2.4c3.6-3.2,7.5-5.6,11.9-7.2c2.4-0.9,4.9-1.5,7.6-1.9c2.2-0.3,4.5-0.4,6.7,0.3c3.6,1,5.6,3.4,6.1,7.2
		c0.1,0.8-0.2,1.6,0.5,2.3c0.8-0.2,1.4-0.8,2-1.2c2.7-1.6,5.3-3.3,8.1-4.9c2-1.2,4.1-2.3,6.3-3.2c5.4-2.3,11.1-3.6,16.6-5.6
		c2-0.7,3.8-0.2,5.3,1.3c1.6,1.6,1.8,3.5,1.1,5.6c-0.1,0.3-0.2,0.6-0.3,0.9c-2.6,5.2-3.2,10.7-3.2,16.3c0.1,4.5,0.4,8.9,0.6,13.4
		c0.2,5.9,1.7,11.4,4.8,16.4c0.3,0.4,0.3,1.1,1.2,1c0.1-0.6,0.2-1.2,0.3-1.9c0.1-1,0.1-1.9,0.2-2.9c0.7-9.7,1.5-19.3,3.9-28.7
		c2.2-8.9,4.9-17.6,8.6-25.9c2.7-6.2,6.6-11.5,11.4-16.1c2.4-2.3,5.1-4.1,8.5-4.7c0.6-0.1,1.3-0.2,1.9-0.2c0.6,0,1.2,0.1,1.4,0.7
		c0.2,0.7-0.3,1-0.8,1.3c-2.1,1-3.6,2.7-5.1,4.3c-2,2.2-3.6,4.7-5,7.3c-0.2,0.4-0.8,0.9-0.4,1.5c4.3,0,6.7,1,9.9,3.9
		c1.2,1.1,2.2,2.3,3.2,3.6c1.7,2.4,3.1,4.9,4.4,7.4c1.6,3.1,3.2,6.3,4.8,9.4c2.8,5.4,5.2,11,6.4,17c0.9,4.6,1.2,9.4,1.3,14.1
		c0,0.7-0.3,1.6,0.5,2.3c0.8-1,1.1-2.1,1.4-3.2c1-3.4,1.9-6.8,2.6-10.2c2-9.5,2.8-19.1,1-28.8c-0.2-1.1-0.3-2.2-0.2-3.3
		c0.3-3.8,3.2-6.3,7-6c1.1,0.1,2.2,0.4,3.2,1c6.1,3.6,11.8,7.6,15.8,13.7c0.3,0.5,0.4,1.3,1.3,1.3c0.7-3,0.4-6-0.2-9
		c-0.3-1.4-0.6-2.8-0.9-4.3c-0.2-1.1-0.5-2.2-0.6-3.2c-0.3-1.7,0.1-3.2,1.1-4.2c0.8-0.8,1.9-1.3,3.2-1.4c0.8-0.1,1.6,0,2.4,0.1
		c4.2,0.6,8.3,1.5,12.4,2.9c4.5,1.5,8.8,3.4,12.3,6.7c3.3,3.1,6.9,5.7,10.5,8.3c3.9,2.7,7.7,5.4,11.5,8.3
		c6.4,4.9,12.2,10.3,16.5,17.2c1.3,2.1,2.7,4.2,4.3,6.1c6.6,7.9,11.9,16.6,15.8,26.2c1.2,3,2.3,6,3.5,8.9c3,7,5.1,14.3,6.6,21.7
		c0.6,2.9,1.1,5.9,1.4,8.8c0.1,0.7,0.1,1.4,0.6,2c1,1.4,2,2.9,3.2,4.5c2.7-3.2,5.6-6.2,7-10.1C666.1,284.7,667.8,273.1,666.2,261.4z
		"/>
</g>
<g>
	<path class="st3" d="M408.9,249.5c-1,5.4-5.7,9.5-11.3,9.5c-4.2,0-7.8-2.2-9.8-5.5c-0.9,0-1.9-0.1-2.8-0.2
		c0.7,6.4,6.1,11.4,12.7,11.4c7,0,12.7-5.7,12.7-12.7c0-0.7-0.1-1.3-0.2-2C409.7,249.8,409.3,249.7,408.9,249.5z"/>
	<path class="st3" d="M587.5,249.9c-0.4-0.1-0.8-0.3-1.2-0.4c-1,5.4-5.7,9.5-11.3,9.5c-4.2,0-7.8-2.2-9.8-5.5
		c-0.9,0-1.9-0.1-2.8-0.2c0.7,6.4,6.1,11.4,12.7,11.4c7,0,12.7-5.7,12.7-12.7C587.7,251.2,587.6,250.6,587.5,249.9z"/>
</g>
<g>
	<path class="st4" d="M311.9,554.6c-2.2,0-2.1,0-2.9,2c-1.8,5.1-3.9,10-7.1,14.3c-0.5,0.6-0.9,1.3-1.4,1.9
		c-8.3,10.6-18.6,18.6-31.1,23.9c-1.1,0.5-2.2,1.1-3.4,1.1c-2,0.1-3.7,0.8-5.5,1.5c-2.7,1-5.4,1.9-8.2,2.6c-0.6,0.1-1.3,0.1-1.6,0.9
		c2,1.9,4.2,3.4,6.7,4.6c0.4,0.2,0.9,0.4,1.3,0.6c0.7,0.1,1.5,0.2,2.2,0.4c3,0.5,6,1.1,8.9,1.8l2.3,0.5l0.6,0.1l0.6,0.2l1.2,0.3
		l2.3,0.6c0.4,0.1,0.8,0.2,1.2,0.3l1.1,0.4l2.3,0.7l0.7,0.2c1.2-0.4,2.4-0.9,3.6-1.6c0.6-0.4,1.2-0.8,1.8-1.2
		c1.1-0.7,2.2-1.1,3.3-0.3c1.2,0.8,1.4,2.1,1,3.4c-0.3,1.1-0.7,2.1-1.2,3c4,1.7,7.9,3.7,11.6,5.9l0.7-0.6c0.3-0.3,0.6-0.6,0.9-0.8
		c0.6-0.6,1.1-1.2,1.6-1.8c2.1-2.4,3.9-5.2,5.2-8.1c1.4-2.9,2.3-6,2.9-9.2c0.3-1.6,0.4-3.2,0.5-4.8c0-0.4,0-0.8,0-1.2l0-0.7l0-0.3
		l0-0.1l0-0.1l0,0l0,0c-0.1,0.1-0.2,0.2-0.3,0.3l-0.4,0.4c-0.3,0.3-0.6,0.6-1,0.9c-0.7,0.6-1.4,1.1-2.1,1.6c-1.5,1-3,1.8-4.7,2.5
		l-0.7,0.2l-1,0.3c-0.3,0.1-0.7,0.2-1,0.3l-0.5,0.1c-0.1,0-0.4,0.2-0.3-0.1c0-1.3,0.2-3.1,0.2-3.7c0.1-1.7,0.4-3.4,0.6-5.1
		c0.7-4.8,2.1-9.4,3.9-13.9c0.2-1.5,0.6-3,1.1-4.4c2.1-6.2,4.7-12.2,7.9-18c0.3-0.6,0.9-1.1,0.7-2.1
		C314.9,554.3,313.4,554.6,311.9,554.6z"/>
	<path class="st4" d="M292.8,631.3c-3.8-1.5-7-4.1-10.6-5.9c-3.8-1.9-7.7-3.4-11.8-4.6c-8-2.4-16.4-3.7-24.7-4.5c-1-0.1-2-0.2-3-0.1
		c-2.6,0.2-5.1,1.4-7.7,1.8c-2.4,0.4-4.8,0.3-7.2,0.4c-3.6,0.2-7.3,0.6-10.9,1.2c-7.2,1.2-14.3,3.2-20.7,6.8c-1.6,0.9-3,1.9-4.3,3.1
		c-0.6,0.5-1.2,1-1.7,1.5l-5.4,2.4c0,0,0,0,0,0c-3.6,1.8-7.1,4-10.3,6.5c-3.2,2.5-6.1,5.4-8.7,8.6c-2.6,3.2-4.8,6.6-6.6,10.3
		c-6.2,12.4-7.5,27-3.9,40.3c0.1,0.5,0.3,1,0.4,1.5c0.3,1,0.7,1.9,1.2,2.8c0.5,0.9,1.1,1.8,1.8,2.6c0.7,0.8,1.5,1.5,2.5,1.9
		c0.3,0.1,0.7,0.2,1,0.3c-0.4-1.1-0.7-2.3-0.9-3.5c-0.9-3.8-1.3-7.8-1.4-11.7c0-4,0.4-7.9,1.2-11.8c0.4-2,0.9-3.9,1.6-5.8
		c0.2-0.5,0.3-1,0.5-1.4c2.2-5.9,5.2-11.9,8.5-17.3c2.9-4.6,6.5-8.1,10.4-11.8c0.2-0.2,0.5-0.4,0.7-0.7c-2,1.8-4.7,7.8-6.2,10.9
		c-1.5,3.2-2.7,6.4-3.6,9.7c1.4-2.4,3-4.6,4.9-6.6c5.3-5.5,12.5-9.3,20-10c2.9-2.4,5.9-4.5,9.1-6.4c2.6-1.6,5.8-4.1,8.7-4.8
		c0.2,1.2-0.8,2.2-1.6,3c-8.3,8.5-15,19.5-16.7,31.4c-1.6,11.6,0.1,23.8,4.7,34.4l-0.2-12.3c0-2.2-0.1-4.4,0-6.6
		c0.1-2.2,0.5-4.6,1.6-6.8c0.6-1.1,1.3-2,2.3-2.9c0.5-0.4,1.2-0.9,2.3-0.7c0.5,0.1,0.9,0.3,1.2,0.6c0.3,0.2,0.5,0.5,0.7,0.7
		c1.1,1.4,3.1,1.4,4.9,0.5c0.9-0.4,1.6-1,2.2-1.8c0.6-0.7,1-1.6,1.3-2.6c0.6-2,0.7-4.1,0.9-6.3c0.2-2.2,0.6-4.5,1.2-6.6
		c0.7-2.1,1.5-4.2,2.7-6.1c4.5-7.7,12.5-13.3,21.2-14.4c0,0,0,0,0,0l0.8,0.6c3.4-3.7,7.5-6.9,12.3-9.5c1.9-1,3.9-1.8,5.9-2.4
		l0.8-0.2l0.4-0.1l0.4-0.1l1.2-0.3l0.8-0.2l0.4-0.1l0.2,0l0.1,0c0,0,0,0,0,0l0,0l-2,1.8c-0.4,0.3-0.8,0.7-1.2,1.1
		c-3.1,2.9-6,6-8.5,9.4c-2.5,3.4-4.6,7.1-6.3,11c-3.4,7.8-4.9,16.3-4.3,24.8c0.4,5.4,1.5,10.7,3.4,15.7c1,2.6,2.2,5.2,3.6,7.7
		c0.9,1.6,2,4.5,3.8,5.2c0.9,0.4,2,0.2,3,0.1c3.8-0.3,7.8,0.5,11.6,0.5c-0.6-0.4-1.1-0.9-1.7-1.4c-4-3.9-6-9.4-6.5-14.8
		c-0.3-2.7-0.2-5.4-0.1-8c0.2-2.6,0.4-5.2,0.8-7.9c0.7-5.2,1.6-10.5,3.4-15.5c0.9-2.5,2-5,3.4-7.2c1.4-2.3,3-4.5,5.1-6.2
		c2-1.8,4.3-3.3,6.8-4.3c2.5-1,5.1-1.7,7.7-2c2.6-0.4,5.3-0.5,7.9-0.4c2.6,0,5.2,0.1,7.9,0.4c0,0,0,0,0,0c-3.2-1.9-6.6-3.7-10-5.1
		C294.7,632,293.7,631.6,292.8,631.3z M287.8,628.7c0,0,0.1,0.1,0.1,0.1c0,0,0,0,0,0C287.9,628.7,287.8,628.7,287.8,628.7z"/>
	<path class="st4" d="M821.5,658.6c-1.8-3.6-4.1-7.1-6.6-10.3c-2.6-3.2-5.5-6-8.7-8.6c-3.2-2.5-6.6-4.7-10.3-6.5c0,0,0,0,0,0
		l-5.4-2.4c-0.6-0.5-1.1-1-1.7-1.5c-1.4-1.2-2.8-2.2-4.3-3.1c-6.4-3.6-13.5-5.6-20.7-6.8c-3.6-0.6-7.2-1-10.9-1.2
		c-2.4-0.1-4.8,0-7.2-0.4c-2.6-0.4-5-1.6-7.7-1.8c-1-0.1-2,0-3,0.1c-8.3,0.9-16.7,2.1-24.7,4.5c-4,1.2-8,2.7-11.8,4.6
		c-3.3,1.6-6.2,3.9-9.5,5.4c0.8,0.1,1.6,0.3,2.4,0.5c0.8,0.2,1.7,0.6,2.5,1c0.8,0.4,1.5,1,2,1.8c0.5,0.8,0.8,1.8,0.6,2.8
		c-0.1,1-0.5,1.8-0.9,2.6c-0.8,1.5-1.9,2.9-2.2,4.3c-0.1,0.7,0.1,1.3,0.6,1.8c0.5,0.5,1.2,0.8,2,1l1.2,0.3l1.3,0.4
		c0.4,0.1,0.8,0.3,1.2,0.5c0.4,0.2,0.8,0.3,1.2,0.5c1.6,0.8,3,1.8,4.4,2.9c1.3,1.1,2.6,2.4,3.6,3.8c2.1,2.8,3.7,6.1,4.4,9.5
		c0.2,0.9,0.3,1.8,0.4,2.6c0,0.9,0.1,1.8,0,2.7c-0.1,1.8-0.3,3.5-0.5,5.2c-0.2,1.8-0.4,3.6-0.3,5.3c0.1,1.7,0.5,3.3,1.3,4.8
		c1.6,2.9,4.7,4.9,8,5.5c1.6,0.3,3.3,0.3,5-0.1c1.6-0.4,3.1-1.2,4.5-2.2c0.7-0.5,1.3-1.1,1.9-1.7c0.9-3.5,1.6-7.1,1.8-10.7
		c0.6-8.4-0.9-17-4.3-24.8c-1.7-3.9-3.8-7.6-6.3-11c-2.5-3.4-5.3-6.6-8.5-9.4c-0.4-0.4-0.8-0.7-1.2-1.1l-2-1.8l0,0c0,0,0,0,0,0
		l0.1,0l0.2,0l0.4,0.1l0.8,0.2l1.2,0.3l0.4,0.1l0.4,0.1l0.8,0.2c2,0.6,4,1.4,5.9,2.4c3.7,2,7,4.3,9.9,7.1c3.9,1.3,7.5,3.5,10.6,6.3
		c1.8,1.7,3.4,3.6,4.7,5.7c1.3,2.1,2.3,4.4,3.7,6.2c0.7,0.9,1.5,1.7,2.5,2.3c1,0.6,2.1,1,3.2,1.6c1.1,0.5,2.3,1.1,3.3,1.9
		c1,0.7,2,1.6,2.8,2.5c3.4,3.7,5.3,9,4.9,14.1c-0.2,2.1-0.4,4.1,0.3,5.8c0.6,1.6,2.2,2.8,4,3.4c1.8,0.6,3.7,0.5,5.5-0.1
		c0.9-0.3,1.8-0.7,2.7-1.2c0.4-0.2,0.8-0.5,1.3-0.8c0.4-0.2,0.7-0.5,1.1-0.8c0.4-4.7,0.3-9.5-0.4-14.1c-1.7-11.9-8.4-22.9-16.7-31.4
		c-0.8-0.8-1.7-1.9-1.6-3c2.9,0.8,6.1,3.2,8.7,4.8c3.2,2,6.3,4.1,9.1,6.5c3.1,2.6,6.2,5.7,8.3,9.3l3.1,1.6l2.5,1.3
		c0.8,0.4,1.7,0.9,2.5,1.6c0.8,0.7,1.3,1.6,1.6,2.6c0.3,1,0.3,2,0.4,2.9c0,1,0,1.9,0.2,2.7c0.2,0.9,0.4,1.7,0.8,2.5
		c0.8,1.6,2,3,3.3,4.3c1.3,1.3,2.7,2.6,4,4c0.1,0.1,0.1,0.2,0.2,0.2c-0.1-8.9-1.7-17.7-5.8-26.2c-1.5-3.1-4.2-9.1-6.2-10.9
		c0.2,0.2,0.5,0.4,0.7,0.7c3.9,3.7,7.5,7.2,10.4,11.8c3.4,5.4,6.3,11.4,8.5,17.3c0.2,0.5,0.3,1,0.5,1.4c0.6,1.9,1.1,3.9,1.6,5.8
		c0.8,3.9,1.2,7.9,1.2,11.8c-0.1,4-0.5,7.9-1.4,11.7c-0.3,1.2-0.6,2.3-0.9,3.5c0.4-0.1,0.7-0.2,1-0.3c1-0.4,1.8-1.1,2.5-1.9
		c0.7-0.8,1.3-1.7,1.8-2.6c0.5-0.9,0.9-1.9,1.2-2.8c0.2-0.5,0.3-1,0.4-1.5C829,685.5,827.7,670.9,821.5,658.6z M692.7,628.8
		C692.7,628.8,692.8,628.8,692.7,628.8c0.1,0,0.1-0.1,0.1-0.1C692.8,628.7,692.8,628.7,692.7,628.8z"/>
	<path class="st4" d="M693.6,615.4l1.1-0.4l2-0.7c0.2-4.7,3.7-7.8,8.4-7.4c1.2,0.1,2.3,0.5,3.5,0.8c1.7,0.5,3.4,1.1,5,1.6
		c0.2,0.1,0.4,0.1,0.6,0.2c0.3-0.1,0.6-0.1,0.9-0.2c0,0,0,0,0.1-0.1c-0.1-0.7-0.7-1.1-1.1-1.5c-2.1-2.4-3.2-5.2-2.2-8.4
		c0.2-0.7,0.1-1.4-0.1-2.1c-1-2.7-1.6-5.5-2.2-8.4c-1.2-6-3.8-11.3-7.5-16.2c-3.6-4.7-8-8.5-12.7-11.9c-2.6-1.9-5.1-3.8-7.1-6.4
		c-0.5-0.7-1.2-1-2-1.2c-3.1-0.6-6-1.7-8.8-3.2c-0.8-0.5-1.6-0.6-2.4,0c-0.8,0.6-0.7,1.2-0.6,1.9c0,0.2,0.1,0.3,0.1,0.5
		c0,0.1,0,0.1,0,0.2l1.9,3l7.5,11.8c2.5,4,4.8,8.1,6.9,12.2l1.7,3.5c0.6,1.2,1.1,2.4,1.7,3.5c0.3,0.5,0.6,1.1,1,1.6l0.5,0.8l0.5,0.9
		c0.7,1.3,1.1,2.7,1.1,4.2c0,1.5-0.3,2.9-1,4.2c-0.7,1.3-1.6,2.5-2.8,3.4c-1.1,0.9-2.6,1.5-4,1.8c-0.4,0-0.7,0.1-1.1,0.1l-1.1,0
		c-0.2,0-0.4-0.1-0.5-0.1l-0.3,0c0,0-0.1,0-0.1,0c0,0,0,0,0,0.1l0,0.1l-0.2,1.5c-0.1,1-0.2,2-0.2,3c-0.1,2-0.1,4,0,6.1
		c0.1,2,0.3,4,0.6,6c0.1,0.4,0.1,0.8,0.2,1.2c2.5-1.4,5-2.7,7.6-3.8c1.3-0.6,2.6-1.1,3.9-1.7C692.8,615.7,693.2,615.6,693.6,615.4z"
		/>
	<path class="st4" d="M416.6,637.2c-0.3-1.3-0.7-2.6-1-3.8c-0.4-1.3-0.7-2.5-1.2-3.8l-0.6-1.9c-0.2-0.6-0.4-1.1-0.7-1.7
		c-0.5-1-1.4-2-2.1-2.1c-0.4,0-0.7,0-1.1,0.3c-0.4,0.3-0.7,0.7-1.1,1.3c-0.8,1.1-1.7,2.1-2.5,3.2c-1.7,2.1-3.6,4-5.5,5.9
		c-2,1.9-3.9,3.7-6.1,5.4c-1.1,0.8-2.4,1.6-3.7,2.1c-1.4,0.5-3,0.7-4.6,0.2c-0.8-0.3-1.5-0.7-2.1-1.3c-0.6-0.6-1-1.2-1.4-1.9
		c-0.7-1.3-1.1-2.6-1.5-3.9c-0.8-2.6-1.4-5.3-1.8-7.9c-0.8-5.4-0.8-10.8-0.1-16.2c0.4-2.7,0.9-5.3,1.6-8c0.7-2.6,1.7-5.1,2.3-7.7
		c0.7-2.5,1.2-5.1,0.8-7.6c-0.2-1.2-0.6-2.4-1.2-3.5c-0.6-1.1-1.5-2-2.5-2.7c-1-0.7-2.1-1.3-3.3-1.6c-0.1,0-0.1,0.1-0.2,0.2
		c-0.9,0.7-2,1.1-2.5,2.2c-0.6,1.2-1.5,2-2.4,3c-1.1,1.2-2.3,2.5-3.2,3.9c-1.8,3.2-3,6.4-1.7,10.2c0.9,2.5,1.5,5.2,2.1,7.9
		c0.8,3.4,1.9,6.8,3.3,10c0.8,1.9,1.5,3.9,2.2,5.8c2,6,2.5,12,1.3,18.2c-0.5,2.7-1.2,5.5-1.8,8.2c-0.4,1.6-0.7,3.3-0.9,5
		c-0.2,3.1,0.8,5.8,2.8,8.2c2.3,2.8,6.2,3.1,8.9,0.6c1.7-1.5,3-3.3,4.4-5.1c1.6-2.1,3.2-4.2,5.1-6.1c2.2-2.1,4.8-2.8,7.7-1.7
		c3,1.2,4.5,3.5,4.8,6.6c0.2,1.6-0.2,3.2-0.6,4.7c-0.6,2.6-1.3,5.1-2,7.7c-0.8,3-1.2,6.1-1.3,9.2h10.9h2.9c-0.1-0.9,0-1.7,0.1-2.4
		c0.5-2.6,0.9-5.2,1.2-7.8c0.6-5.2,0.7-10.5,0.4-15.8C418.6,647.6,417.8,642.4,416.6,637.2z"/>
	<path class="st4" d="M620,660.7c-0.8-3-2.2-5.7-4.1-8c-0.9-1.1-1.8-2.2-2.5-3.5c-2.9-5.4-0.7-11.3,5-13.6c0.5-0.2,1.3-0.1,1.5-1.1
		c-0.3-0.4-0.7-0.8-1-1.2c-4.4-5.1-7.5-10.9-9.5-17.4c-1.5-4.8-2-9.7-1.2-14.6c-3.2,4-5.7,8.6-7.2,13.5c-2.1,6.7-2.4,14.1-0.5,20.8
		l0.8,2.5l1.6,3.8l0.1,0.1c0,0-0.1,0-0.1,0l-0.3,0l-0.6,0.1l-1.3,0.2l-1,0.1l-0.7,0.1c-0.9,0.1-1.8,0.2-2.8,0.2
		c-1.8,0.1-3.7,0.1-5.5,0.1c-0.9,0-1.8-0.1-2.8-0.2l-0.7-0.1l0.4,0.9l1.3,2.7c0.9,1.8,1.9,3.6,3,5.3c2.1,3.5,4.4,6.8,6.9,9.9
		c2.9,3.6,6,7,9.3,10.1c0.9,0.8,1.7,1.6,2.6,2.3l1.3,1.1l1.8,1.5l1.3,1.1l0.3,0.3l0.2,0.1c0,0,0.2,0.1,0.1,0.1l-0.7,0.4l-0.8,0.4
		h11.1c0.2-0.1,0.4-0.3,0.6-0.4c0.4-0.3,0.8-0.6,1.2-0.9c-2.9-4-5-8.4-6.2-13.4C620.6,663,620.3,661.9,620,660.7z"/>
	<path class="st4" d="M502.1,597.4l-1.4,0.1c-1,0.1-2,0.2-2.9,0.4c-1.9,0.3-3.8,0.9-5.5,1.7c-1.7,0.9-3.1,2.1-4.1,3.7
		c-0.5,0.8-1,1.7-1.5,2.6l-0.8,1.4c-0.3,0.5-0.6,0.9-0.9,1.4c-0.6,0.9-1.4,1.7-2.2,2.4c-0.8,0.7-1.7,1.4-2.7,1.9
		c-1,0.5-2,0.9-3.2,1.1c-1.1,0.2-2.4,0.1-3.5-0.4l-0.8-0.4l-0.7-0.5c-0.5-0.4-0.9-0.8-1.2-1.3c-0.7-0.9-1.2-2-1.5-2.9
		c-0.7-2-1.5-3.7-2.5-5.4c-2.1-3.3-4.9-6.2-8.2-8.5c-0.4-0.3-0.8-0.5-1.1-0.8c0.6,1,1.1,2.1,1.5,3.2c5,11.4,6.4,23.4,4.9,35.7
		c-0.7,6-3,11.6-4.9,17.3c-0.4,3-0.9,5.9-1.6,8.8c-1.2,5.3-2.8,10.4-4.8,15.5c-0.5,1.3-1.1,2.6-1.8,3.8c-0.2,0.3-0.3,0.5-0.5,0.8h22
		c2.3-2.6,4.8-5.1,7.5-7.4c1.3-1.1,2.4-2.3,3.8-3.3c3.9-2.9,4.5-7,4-11.4c-0.2-1.6-0.6-3.1-1.1-4.7c-1.4-4.3-3.1-8.6-4.4-13
		c-0.4-1.2-1.1-2.3-1.8-3.4c-1.3-2.2-1.2-4.4,0.2-6c1.6-1.9,3.7-2.1,5.9-1.4c2.3,0.7,4.1,2.1,5.8,3.7c0.6,0.5,1.2,1,2,1.8
		c0.3-1.7,0.9-3.1,1.8-4.3c0.6-0.8,0.2-1.7,0.1-2.6c-0.5-4.9-0.5-9.8,0.4-14.6c1-5.4,3-10.3,5.9-14.6l0-0.3
		C502.3,597.3,502.2,597.4,502.1,597.4z"/>
	<path class="st4" d="M565.2,575.9c-0.1-1.1-0.2-2-0.6-2.7c-0.4-0.7-0.9-1.1-1.7-1.3c-0.8-0.2-1.7-0.1-2.5,0.2
		c-0.9,0.3-1.7,0.8-2.4,1.4c-0.3,0.3-0.6,0.6-0.9,1c-0.3,0.4-0.5,0.8-0.8,1.3c-1,1.8-1.6,3.8-2.6,5.9c-0.5,1-1,2.1-1.7,3
		c-0.6,0.8-1.3,1.5-2.1,2.2c0.5,1.2,1,2.4,1.6,3.5c0.9,1.6,1,3.2-0.3,4.7c-1.2,1.3-3.3,1.8-5.1,1.2c-1.3-0.5-2.3-1.4-3.1-2.5
		c-0.5-0.7-1-1.4-1.6-2.3c-0.6,1.4-0.6,2.6-0.7,3.7c-0.3,2.9-0.6,5.7-0.9,8.6c-0.5,3.8-2,7.2-4.5,10.2c-0.2,0.2-0.3,0.4-0.5,0.6
		c-6.6,6.8-9.7,15.1-10.9,24.3c-0.7,5.1-1,10.2-1,15.3c0,1,0.2,2.1,0.3,3.1c0.2,1.2,0.2,2.4-0.2,3.6c-1.3,4.4-6.4,6-10,3.1
		c-1.1-0.9-1.8-2-2.4-3.2c-0.6-1.2-1.2-2.4-1.8-3.8c-0.8,1-0.6,1.9-0.7,2.8c-0.5,6.6-1.8,13-4.1,19.2h31.7c-1-5.2-1.4-10.6-1.1-16.2
		c0.3-6.1,1.8-12.2,2.1-18.3c0.2-4.8,1.6-9.4,2.6-14.1c0.2-0.7,0.6-1.4,0.2-2.1c-0.9-1.9-0.1-3.6,0.8-5.2c0.8-1.5,1.8-2.8,3-4
		c4.5-4.7,8.3-9.9,12.2-15.1c4.7-6.3,8.5-13.1,11-20.6c-0.4-1.2-0.7-2.5-1-3.8C565.4,578.2,565.3,577,565.2,575.9z"/>
	<path class="st4" d="M579.7,242.7c-2.1,0-5.9,1.6-5.9,3.7s1.7,5,3.9,5s7.5-5.5,7.5-7.6S581.9,242.7,579.7,242.7z"/>
	<path class="st4" d="M398.4,251.4c2.1,0,7.5-5.5,7.5-7.6s-3.3-1.1-5.4-1.1s-5.9,1.6-5.9,3.7S396.2,251.4,398.4,251.4z"/>
</g>
</svg>
