<?xml version="1.0" encoding="utf-8"?>
<!-- Generator: Adobe Illustrator 24.0.1, SVG Export Plug-In . SVG Version: 6.00 Build 0)  -->
<svg version="1.1" id="Layer_1" xmlns="http://www.w3.org/2000/svg" xmlns:xlink="http://www.w3.org/1999/xlink" x="0px" y="0px"
	 viewBox="0 0 990 781.2" style="enable-background:new 0 0 990 781.2;" xml:space="preserve">
<style type="text/css">
	.st0{fill:#E4706A;}
	.st1{fill:#9F4F00;}
	.st2{fill:#FFFFFF;}
	.st3{fill:#535458;}
	.st4{fill:#E0C5A2;}
	.st5{fill:#755E45;}
</style>
<g>
	<path d="M199.9,732.7c-0.8,1.6-0.9,3-1.1,4.3c-0.6,3.5-2.7,6.1-4.8,8.7c-1.1,1.4-2.8,1.5-4.4,1c-5-1.3-9.6-3.6-13.1-7.5
		c-3.9-4.2-7.7-8.4-10.6-13.3c-0.8-1.4-1.9-2.5-3.4-3.3c-7.1-3.9-11.8-10.1-16-16.9c-0.3-0.5-0.7-1.1-0.9-1.7
		c-1.7-4.4-3.2-8.9-4-13.5c-0.7-4.2-0.6-8.5-0.3-12.7c0.4-7.1,1.7-13.9,4.2-20.6c1.8-4.8,4.4-9,8-12.7c1.6-1.6,3.3-3.3,5.1-4.7
		c5.7-4.6,11.5-9.2,17.4-13.6c12.3-9,26.1-14,41.2-15.7c14.3-1.6,28.4,0,42.4,3.2c3.1,0.7,6.2,1.5,9.2,2.5c1.1,0.4,1.9,0.2,2.6-0.8
		c1.4-2.1,3.1-4.1,4.6-6.1c0.7-0.9,0.5-1.3-0.6-1.4c-2-0.3-4-0.4-6-0.7c-2.6-0.4-5.2-1-7.5-2.3c-5.4-2.9-7-8-4.1-13.4
		c1.6-2.9,3.8-5.4,6-7.8c2.4-2.6,5.1-4.8,7.9-6.9c2.9-2.2,5.9-4.4,8.8-6.6c5.5-4.2,9-9.6,10.4-16.4c1.5-7,3.7-13.9,6.2-20.6
		c1.9-5.1,4.4-9.7,8.1-13.8c0.1-0.1,0.2-0.2,0.3-0.4c0.8-1,0.7-1.3-0.4-1.7c-0.5-0.2-1.1-0.3-1.6-0.4c-4-0.9-7.8-2.2-11.5-4
		c-2.3-1.1-4.4-2.5-6.1-4.5c-4.2-5-3.4-11.9,1.9-15.8c1.5-1.1,3.2-1.9,4.9-2.5c7.2-2.3,12.8-6.7,17.3-12.7c1.2-1.7,2.5-3.4,4-4.8
		c4.4-4.2,6.4-9.5,7.6-15.2c1.1-4.9,1.6-9.8,1.1-14.8c-0.1-1.1-0.2-2.3-0.1-3.4c0.6-3.8-1-7.1-2-10.5c-0.3-1.1-1-1.5-2.2-1.4
		c-2.5,0.2-4.9,0.3-7.3,1.1c-3.7,1.2-7.4,1.1-11.1-0.1c-1.7-0.6-3.5-1.1-5.2-1.7c-1.3-0.5-2.5-1.1-3.6-1.8c-2.3-1.6-2.6-3-1-5.2
		c1.2-1.6,2.5-3.1,3.8-4.7c3.2-3.7,5.9-7.7,8.3-12c1-1.8,1.5-3.6,1.5-5.7c-0.1-7.9,2.1-15.3,5-22.5c1.2-2.9,1.2-2.9-1.6-3.9
		c-3.5-1.3-6.6-3.2-9.5-5.5c-3.5-2.8-3.6-6.1-0.1-9c2.9-2.5,5.9-4.9,9.1-7c0.5-0.3,1-0.5,1.3-1.1c-0.1-0.2-0.1-0.5-0.2-0.6
		c-3.6-5.2-4-11-2.7-17c1.3-6.2,3.6-11.9,7.1-17.2c1.6-2.4,2.7-5.1,3.2-8c0.2-1.5,0.1-1.8-1.3-1.9c-8.2-0.6-14-4.9-18.5-11.4
		c-1.9-2.7-1.8-2.7-4-0.1c-5.9,6.7-12.3,12.7-19.6,18c-3.6,2.6-7.6,4.5-12.1,4.8c-3.5,0.2-6.9-0.2-10.1-1.5
		c-3.8-1.5-6.3-4.3-7.5-8.2c-0.6-2-1.2-4-1.6-6c-1.6-7.1-4.2-13.9-7.5-20.4c-3.6-7.1-7.2-14.3-9.7-21.9c-5.2-15.7-7.3-31.7-5.7-48.2
		c1.3-13.2,6.8-24.3,16.7-33.3c4.7-4.3,10.1-7.6,15.8-10.4c7.3-3.6,14.6-7.3,21.5-11.6c15.3-9.6,27.6-22.1,36.8-37.8
		c1.8-3,3.5-6.1,4.8-9.4c2.3-5.9,6-10.9,10.6-15.2c2-1.9,4.2-3.8,6.2-5.7c3.9-3.7,8.5-5.9,13.8-6.7c1.5-0.2,3-0.6,4.4-1
		c2.3-0.5,3.8-1.9,4.7-4.1c1.4-3.4,2.3-7,2.3-10.7c0-2.1-0.1-4.2,0.4-6.2c1.1-4.5,4.8-6.5,9.1-5c1.4,0.5,2.7,1.3,4,2.2
		c5.2,3.4,10.6,6.6,16.1,9.5c1.8,1,3.7,1.9,5.7,2.1c0.4-0.5,0.2-0.9,0-1.2c-4.5-5.9-5.4-12.7-4.9-19.8c0.1-1.9,0.5-3.8,0.9-5.7
		c0.2-1.3,0.7-2.5,1.4-3.5c2.1-3.2,5.4-3.6,8.1-0.9c1.8,1.9,3.6,3.8,5.3,5.8c4.2,4.8,9.2,8.3,15.1,10.7c4.9,2,9.7,4.2,14.5,6.3
		c3,1.3,6.2,2.1,9.4,2.7c1,0.2,1.9,0.1,2.6-0.7c4.7-5.3,11-7.8,17.6-9.7c3.9-1.1,7.8-1.5,11.8-2c6.5-0.8,12.7-2.6,18.9-4.4
		c7.5-2.2,15.1-4.1,23-4.7c8.4-0.6,16.2,1.3,23.1,6.2c1.8,1.2,3.5,2.6,5.2,3.9c5.6,4.1,11.3,3.7,16.2-1.1c0.9-0.8,1.7-1.7,2.7-2.3
		c3.8-2.2,8.1-0.6,9.5,3.5c0.4,1.1,0.5,2.3,0.6,3.5c0.1,1.7,0.5,1.9,2.1,1.7c2.1-0.3,4.3-0.7,6.4-1c11.8-1.5,23.3-0.2,34.3,4.5
		c1.6,0.7,3.2,1.5,4.6,2.5c1.7,1.2,3,2.7,3.4,4.8c0.3,1.4,1.1,2.5,2.4,3.1c0.4,0.2,0.7,0.4,1,0.6c5.6,4.4,12.2,6.4,19.1,7.8
		c3.1,0.6,6.3,1.3,9.4,2c2,0.4,3.8,1.2,5.5,2.2c1.5,1,2.9,2,3.3,3.9c0.3,1.2,1.2,1.5,2.3,1.8c9.4,2.4,17.1,7.4,23.1,15
		c1.2,1.5,2.2,3.2,3.1,4.8c5,9.5,10.5,18.6,15.5,28.2c4.2,8.1,10.2,14.6,18,19.6c6.4,4,12.8,7.8,19.5,11.3c1.8,1,3.7,1.9,5.5,2.9
		c13.8,7.9,20.4,20.2,21.8,35.7c0.4,4.7-0.8,9.2-2.4,13.6c-3.1,7.9-6.9,15.5-11.1,22.9c-7.3,13-13.1,26.7-16.7,41.2
		c-0.7,2.9-1.7,5.7-2.8,8.4c-3.5,9.3-10.4,14.3-20,15.8c-11,1.8-20.5-1.3-28.8-8.7c-2.7-2.5-5.2-5.2-7.3-8.2
		c-3.4-5-6.4-10.1-9.2-15.4c-3.4-6.4-5.3-13.1-6.1-20.3c-0.4-3.7-1.1-7.3-1.5-10.9c-0.2-1.6-1.3-1.8-2.4-2.2c-1.2-0.4-2.1-0.1-2.8,1
		c-2.6,4.1-3.3,8.6-3.5,13.3c0,0.9,0.3,1.7,0.9,2.4c1.5,1.8,3,3.6,5.2,4.6c4.1,1.8,5.8,6,3.1,10.9c-1.2,2-2.9,3.6-4.6,5.2
		c-1.6,1.5-1.6,1.6-0.3,3.3c5.2,6.7,11.2,12.8,17.3,18.6c1.3,1.3,2.9,2.2,4.5,3.2c1.7,1.2,3.6,1.7,5.7,1.4c0.4-0.1,0.8-0.1,1.2-0.1
		c4,0,6.9,2.3,7.5,6.3c0.6,4.3,0.3,8.5-1.4,12.5c-3,7.1-7.6,12.9-13.6,17.7c-1.9,1.5-4.1,2.5-6.3,3.5c-1.7,0.7-1.7,0.9-0.9,2.5
		c1.8,3.4,3.3,6.9,4.2,10.7c0.9,3.8,1.1,7.6,0.2,11.4c-0.3,1.4-0.8,2.8-1.5,4c-2.4,4.2-6.4,6-11.1,5.2c-2.1-0.4-2.3-0.3-2.5,1.7
		c-0.3,3.6-1.1,7.1-2.1,10.5c-0.4,1.4-0.3,2.7,0.1,4c1.5,4.5,3.2,8.9,5.2,13.1c0.7,1.5,1.7,2.9,2.8,4.2c2.9,3.6,6.3,6.8,9.7,10
		c0.9,0.8,2,1.3,3,1.9c1.7,1,2.8,2.4,2.9,4.4c0.1,2.4-1.3,4.4-3.6,5c-1.2,0.4-2.5,0.4-3.8,0.3c-3.8-0.4-7.7-0.3-11.5-0.3
		c-2,0-2.2,0.3-1.7,2.3c2.2,8.6,4.9,17.1,8.3,25.3c2,4.8,4,9.6,6,14.4c2.2,5.5,5.5,10.2,10,14.1c3,2.5,5.8,5.3,8.6,8.1
		c3.2,3.1,3.2,6.1,0.3,9.5c-2,2.2-4.4,3.7-7.3,4.3c-0.7,0.1-1.4,0.2-2.1,0.4c-0.7,0.2-0.9,0.6-0.5,1.2c0.3,0.4,0.6,0.7,0.9,1.1
		c4.7,5.5,7.9,11.8,9.3,18.9c1.9,9.2,3.8,18.3,5.7,27.5c1.2,5.7,2.9,11.3,5,16.7c0.9,2.4,1.8,4.8,0.7,7.4c-0.4,0.9,0.1,1.6,0.9,2
		c1.2,0.7,2.4,1.3,3.6,1.9c0.9,0.5,1.9,0.9,2.8,1.4c2.4,1.5,3.3,3.8,2.8,6.6s-1.7,5.3-3.5,7.5c-1.5,1.9-3.3,3.5-5.3,4.8
		c-2.3,1.6-2.2,1.6-0.4,3.5c1.1,1.1,2.2,2.2,3,3.4c0.9,1.3,1.7,1.5,3.2,1.1c5.2-1.6,10.5-2.7,15.9-3.6c16-2.7,32-2.9,47.7,1.7
		c9.1,2.7,17.9,6.3,26,11.4c5.4,3.4,10.7,7,15.9,10.7c0.7,0.5,1.4,1,2,1.7c5.8,7.3,11.2,14.8,15.5,23c0.4,0.8,0.8,1.6,1.2,2.4
		c2.9,5.5,3.8,11.3,2.7,17.4c-1.4,8.1-3.7,15.9-6.7,23.5c-0.8,2.2-2.3,4.1-3.6,5.9c-3.4,4.9-7.2,9.4-12.5,12.3
		c-2,1.1-3.6,2.6-4.7,4.6c-2.8,4.8-6.6,8.8-10.4,12.9c-3.5,3.8-7.9,5.9-12.8,7.2c-2.5,0.7-3.8-0.2-5.4-2.1
		c-2.9-3.4-4.1-7.3-4.7-11.5c-1.1-0.1-1.4,0.6-1.9,1c-1.8,1.6-3.4,3.3-5.2,5c-0.8,0.8-1.7,1.4-2.7,2c-3.6,2.3-7,1.5-9.1-2.3
		c-1.7-3.1-2.6-6.5-2.7-10.1c-0.1-1.2,0-2.4,0-3.6c0.1-1.3-0.5-2.1-1.4-2.9c-1.5-1.1-3.1-2-4.8-2.7c-3.8-1.6-6.2-4.3-7.5-8.2
		c-0.7-2.2-1.3-2.3-3-0.7c-1.8,1.8-2.8,4.1-3.5,6.5c-1.2,3.9-3.2,7.3-5.9,10.3c-1,1.1-2.1,2.2-3.4,3.1c-3.5,2.6-7.7,2-10.2-1.7
		c-1.7-2.4-2.6-5.1-3.1-8c-0.8-4.5,0.2-4-4.9-7.2c-5.2-3.3-9.8-7.4-13-12.9c-0.4-0.7-0.9-1.1-1.7-1c-0.7,0-1.4,0-2.2,0
		c-137.5,0-275,0-412.4,0c-0.6,0-1.1,0-1.7,0c-1.1-0.1-1.8,0.2-2.2,1.4c-0.2,0.7-0.6,1.3-1.1,1.9c-3.7,4.1-7.4,8.2-12.2,11
		c-0.3,0.2-0.7,0.4-1,0.6c-2,0.9-3,2.5-3.2,4.7c-0.3,3.3-1.2,6.4-3,9.3c-1.1,1.7-2.7,2.9-4.7,3.4c-1.8,0.4-3.5,0.1-5-1
		c-4.8-3.4-7.9-8-9.8-13.5c-0.6-1.8-1.1-3.7-2.3-5.2c-0.4-0.6-0.9-1.2-1.4-1.7c-1.6-1.6-2.2-1.5-2.9,0.6c-1.2,4-3.8,6.8-7.6,8.4
		c-1.4,0.6-2.7,1.4-4,2.2c-1.6,0.9-2.2,2.1-2.1,3.9c0.3,4.1-0.5,8.1-2.2,11.9c-0.6,1.5-1.5,2.8-2.9,3.7c-1.9,1.2-3.8,1.4-5.9,0.3
		c-2.1-1.2-3.9-2.8-5.6-4.5C203.1,735.8,201.6,734.4,199.9,732.7z"/>
</g>
<g>
	<path class="st0" d="M464.1,505.4c-1.3,0.1-2,0.7-2.5,1.9c-0.7,1.6-1.3,3.3-1.7,5c-1.3,5.3-1.7,10.7-1.6,16.2c0,6.7,1.4,13,4.5,19
		c0.6,1.1,1.2,2.2,2.2,3.1c4.8,4.1,10,7.4,16,9.4c6.7,2.2,13.6,3,20.6,2.7c4.3-0.2,8.4-1.7,11.6-4.6c6-5.4,9.8-12.3,11.7-20
		c1.8-7.1,2.3-14.5,2.6-21.9c0-0.6,0-1.3-0.2-1.9c-0.4-1.6-0.6-3.3-0.5-5c0-0.6,0.1-1.2-0.5-1.5c-1.9-1-3.5-2.6-5.7-2.9
		c-5.9-0.8-11.2-3.1-16.3-6.1c-0.5-0.3-0.9-0.9-1.8-0.6c-0.2,1.7-0.3,3.4-0.6,5.1c-1.5,9.7-3,19.4-4.5,29.2
		c-0.5,3.3-1.1,6.7,0.2,9.9c0.1,0.4,0.1,0.8,0.2,1.2c0.1,1.2-0.3,2.2-1.5,2.8c-1,0.5-2,0.3-2.9-0.3c-1.3-0.9-2.1-2.2-2.6-3.6
		c-0.7-2.1-1.1-4.2-1.1-6.4c0-5.4-0.3-10.7,0-16.1c0.2-3.2-0.2-6.3-1.5-9.2c-1.8-3.9-3.8-7.7-3.8-12.1c-1.1-0.2-1.6,0.4-2.2,0.7
		c-4.8,2.7-9.8,4.6-15.3,5.4C465.9,505.1,465,505.4,464.1,505.4z"/>
</g>
<g>
	<path class="st1" d="M419.3,214.4c4.9,1.6,8.4,6.2,8.4,11.6c0,6.8-5.5,12.3-12.3,12.3s-12.3-5.5-12.3-12.3c0-2.9,1-5.6,2.7-7.7
		c-4.6,3.3-8.2,8-8.2,12.4c0,7.8,11.4,11.5,19.2,11.5c7.8,0,14-6.3,14-14C430.9,221.3,425.9,215.5,419.3,214.4z"/>
	<path class="st1" d="M578.7,218.3c1.7,2.1,2.7,4.8,2.7,7.7c0,6.8-5.5,12.3-12.3,12.3s-12.3-5.5-12.3-12.3c0-5.4,3.5-10,8.4-11.6
		c-6.6,1.2-11.6,6.9-11.6,13.8c0,7.8,6.3,14,14,14s19.2-3.7,19.2-11.5C587,226.4,583.3,221.6,578.7,218.3z"/>
</g>
<g>
	<ellipse class="st2" cx="414.6" cy="221.7" rx="5.9" ry="5.9"/>
	<circle class="st2" cx="570.2" cy="222.3" r="5.9"/>
</g>
<g>
	<path class="st3" d="M598.1,224.9c1-2.4,1.2-4.6,0.4-6.9c-1.4-3.9-3.2-7.6-5.7-10.8c-0.5,0.2-1.1,0.2-1.6,0.1
		c-0.7-0.2-1.3-0.6-1.7-1s-0.8-0.8-1.1-1.3c-0.7-1.1-1.3-2.2-1.7-3.3c-0.6-0.4-1.3-0.7-2-1.1c-4.9-2.1-9.9-2.2-15.1-1.7
		c-3.6,0.4-6.9,1.5-9.8,3.6c-2.8,2.1-5.6,4.3-8.3,6.5c-1.9,1.5-3.5,3.3-4.4,5.6c-1.3,3.1-3.3,5.8-5.5,8.4c-0.3,0.4-0.8,0.7-0.7,1.5
		c3.3-2.6,6.4-4.9,8.7-8.2c4.1-6,9.8-10,16.9-11.7c7.2-1.8,13.6-0.6,18.9,4.9c0.6,0.6,1.1,1.1,1.7,1.6c2.7,2.2,4.8,4.9,6.4,8
		C594.8,221.3,596.2,223.2,598.1,224.9z"/>
	<path class="st3" d="M591.6,244.3c-0.4,0.9-0.9,1.7-1.6,2.3c-4.5,3.6-9.8,5.5-15.4,5.8c-5.6,0.3-10.8-1.7-15.8-4
		c-1.9-0.9-4-1.6-5.2-3.3c-1.3-1.7-3.1-2.7-4.9-3.7c-0.3-0.2-0.6-0.3-0.9-0.1c-0.3,0.2-0.2,0.6-0.1,0.9c0.7,2,1.8,3.8,3.3,5.2
		s3.1,2.7,4.6,4.2c4.6,4.3,10.1,6.6,16.4,7.1c1.8,0.1,3.6,0.5,5.5,0.7c4.9,0.5,9.3-0.3,12.4-4.5c0.8-1,1.6-2,2.4-3
		c1.6-1.9,2.5-4,2.9-6.5c0.2-1.5,0-2.6-1-3.7C592.8,242.3,592.1,243.2,591.6,244.3z"/>
	<path class="st3" d="M403.4,207.6c3.6-1,7.2-2.3,10.9-2.7c5.8-0.7,11.4,0.5,16.4,3.9c2.2,1.5,4.4,3.1,6.2,5.2
		c-0.6-2.2-1.3-4.2-2.3-6.1c-0.6-1.1-1.4-2.1-1.4-3.3c-0.1-2.2-1.5-3-3.2-3.7c-8.2-3.4-16.5-4.1-25-1c-2.3,0.9-4.4,2.2-6.7,3.2
		c-2.9,1.4-5.2,3.3-7.2,5.8c-2.4,3-4,6.4-5.1,10c-0.4,1.3-0.5,2.7,0.1,4c0.4,1,1.1,1.1,1.9,0.3c0.5-0.5,0.9-1.1,1.2-1.8
		c2.6-5,6.8-8.6,11-12.2C401.1,208.5,402.2,207.9,403.4,207.6z"/>
	<path class="st3" d="M396.5,247.8c2.6,2.5,5.7,4.3,8.9,6c1.6,0.9,3.4,1.3,5.3,1.3c2.2,0.1,4.5,0.3,6.7,0.1c3.5-0.3,6.9-1.3,9.7-3.5
		c2.5-2,4.8-4.2,7.3-6.3c2.4-2,4.2-4.5,5.9-7.2c1.4-2.2,1.7-4.1-0.3-6.1c-0.1-0.1-0.3-0.2-0.4-0.3c-1.6,1.3-2.5,3.1-3.4,4.9
		c-4.9,9.8-17.5,13.5-26.1,10.3c-1.9-0.7-4-1.3-5.8-2.2c-2.6-1.3-5.4-2.2-7.6-4.3c-1.4-1.3-3.2-2.3-5.1-2.9c1.6,2.4,2.7,5,3.5,7.7
		C395.3,246.4,395.8,247.1,396.5,247.8z"/>
	<path class="st3" d="M510.9,383.5c-5.6-2.2-11.5-3.3-17.6-3.3c-6.2,0.1-12.2,1.5-18.2,3.1c-0.5,0.1-1.1,0.3-1.3,1
		c-0.3,1.4-1.5,2-2.6,2.7c-2.3,1.4-4.6,2.8-7,4.1c-2.5,1.4-4.8,3-6.9,4.8c0.7,0.1,1.3,0.1,1.7,0.2c2.8,0.4,3.6,2.1,4.4,3.6
		c1.6,3.2,4.1,8,27.6,8c0.8,0,1.7,0,2.6,0c16.2-0.2,25.1-2.9,31.7-4.9c3.7-1.1,6.6-2,9.6-2c0.9,0,1.9,0.1,2.8,0.3
		c-1.8-2.8-4.1-5.3-7-7.2C524.6,389.6,517.9,386.2,510.9,383.5z"/>
	<path class="st3" d="M533.2,424c-0.4-0.1-0.7-0.4-1-0.7c-0.6-0.9-1.6-1-2.5-1.1c-2.8-0.2-5.6-0.5-8.4-0.8c-1.3-0.1-2.6-0.3-3.8-0.5
		c-0.6,0-1.3,0-1.9,0c-2.3,0-4.7,0-7-0.2c-1.8-0.1-3.7-0.1-5.5-0.1c-6.1,0-12.2,0.4-18.2,0.9c-6,0.4-12.1,0.9-18.1,0.9
		c-1.1,0-2.1,0-3.2,0h-0.4c-1.6,0-3.2-0.1-4.7-0.2c-1.3,0.1-2.6,0.4-3.6,1.7c-0.2,0.2-0.5,0.4-0.8,0.4c-1.3,0.3-2.1,1.2-2.8,2.1
		c-2,2.5-3.8,5.2-5.9,7.5c-0.2,0.2-0.4,0.5-0.5,0.8c0.3,1.1,0.6,2.1,0.9,3l0.2,0.5c0.2,0.6,0.6,1.5,1,2.6c0.9,2,1.9,4.6,2.6,7h0.1
		c1.4,0,2.6,0.6,3.9,1.1c3.7,1.4,7.4,2.5,11.4,1.1c1-0.4,2.2-0.6,2.5-2c-0.9-0.5-1.9-0.9-2.9-0.9c-2.3,0.2-4.4-0.8-6.5-1.3
		c-1.8-0.4-3.2-1.5-4.1-3.1c-0.7-1.3-1.4-2.5-1.8-3.9c-1.8-5.6,2.1-10.3,7.9-9.6c1.3,0.2,2.7,0.4,4,0.8s2.6,0.6,4,0.5
		c3.9-0.1,7.2,1.6,10.2,3.6c4.2,2.8,5.2,8,2.4,12.2c-3.1,4.8-6.7,9.2-11.8,12c-0.7,0.4-0.7,0.8-0.2,1.3c0.8,0.9,1.7,1.7,2.8,2.3
		c4,2.1,8,4,12.2,5.5c1,0.4,2,0.5,3.1,0.5c1.7,0,1.8-0.1,1.8-1.9c0-5.4,0.4-10.7,1.6-15.9c0.2-0.8,0.3-1.7,0.8-2.2
		c1.3-1.3,1.2-2.9,1.3-4.5c0.1-0.6,0.2-1.3,0.2-1.9c0.1-0.9,0.4-1.5,1.5-1.4c1.1,0,1.4,0.5,1.5,1.4c0.1,1.3,0.3,2.5,0.4,3.8
		c0.1,0.6,0,1.1,0.5,1.6c1.2,1.1,1.3,2.7,1.7,4.2c1,4.6,1.4,9.3,1.4,14.1c0,3,0.2,3.2,3.3,2.7c0.4-0.1,0.8-0.1,1.2-0.3
		c4.5-1.6,8.9-3.6,13.1-5.9c1.4-0.8,2.5-2,3.3-3.4c0.3-0.6,0.3-1.1-0.3-1.4c-2.3-1.1-4.2-3-6.4-4.2c-2.4-1.3-3.9-3.2-5.2-5.4
		c-1.5-2.5-2-5.2-2.4-8c-0.2-1.7,0.2-3.1,1.1-4.5c2.1-3.3,5.5-4.6,9-5.3c3.5-0.6,7.1-0.7,10.7-1.1c2.7-0.3,5,0.8,7.1,2.4
		c1.5,1.2,2.2,2.8,2.2,4.8c0,2.6-0.9,4.8-2.2,7c-0.9,1.6-2.2,2.7-4.1,3.1c-1.1,0.3-2.1,0.7-3.2,1c-1.1,0.2-2.3,0.3-3.9,0.5
		c1.8,1.1,3.4,1.2,4.8,2c2.3,1.3,4.5,0.7,6.6-0.3c0.6-0.3,1.3-0.6,1.9-0.8c0.3-1.2,0.8-2.5,1.4-4.1c0.3-0.7,0.5-1.4,0.7-1.9
		c0.3-1,0.6-2.1,0.9-3.1c0.6-2.3,1.3-4.5,2.4-6.6c-1.3-1.6-2.5-3.2-3.7-4.7C536.4,426.2,535.4,424.5,533.2,424z"/>
	<path class="st3" d="M416.9,297.1c-1.4-0.1-2.9-0.2-4.3-0.6c-4.7-1.4-6.6-6.3-4.1-10.5c0.4-0.6,0.8-1.2,1.3-1.8
		c1.3-1.7,2.2-3.7,3.2-5.6c0.5-0.8,0.3-1.3-0.6-1.6c-1.8-0.6-3.7-1.2-5.4-2c-4.1-1.8-8.4-1.9-12.7-0.9c-5.4,1.2-8.2,4.5-8.8,10.3
		c4.3,0.6,5.9,2.2,6.3,6.4c0.1,1.4,0.2,2.9,0.2,4.3c0,2.1-0.4,4.2-1.6,5.9c-1.9,2.9-3.9,5.9-5.9,8.7c-1.3,1.8-2.9,3.2-4.6,4.6
		c-1.7,1.3-3.6,1.5-5.1,0.6c-1.6-1-2.2-2.7-1.8-4.8c0.4-2.1,1.1-4.1,2.2-5.8c1.2-1.8,1-3.5,0.1-5.2c-2.6-4.6-3.6-9.5-3.4-14.8
		c0-0.5,0.2-1.2-0.6-1.5c-3.3,3.2-7.1,6.1-9.2,10.6c-0.8,1.7-1.5,3.4-1.9,5.1c-0.3,1.1-1,1.8-2.2,1.9c-1.1,0.1-2.3-0.6-2.4-1.9
		c-0.3-2.3-1.6-4.2-2.1-6.5c-1.1-4.7-0.9-9.2,0.6-13.7c0.2-0.5,0.6-1,0.2-1.6c-1.1-0.1-1.9,0.4-2.6,1.1c-0.1,0.1-0.2,0.2-0.3,0.3
		c-1,1.1-2,2.3-3,3.5c-1,1.1-1.5,2.3-1.6,3.9c-0.2,3-1.7,5.3-4.2,6.9c-1.9,1.2-3,0.8-3.2-1.4c-0.1-1.2-0.2-2.4-0.1-3.6
		c0.1-2.9-0.4-5.7-1.5-8.4c-0.8-2-1.5-4.1-1.6-6.3c-0.1-2.9-1.9-4.9-2.9-7.7c-5.4,9-13.7,13.8-22.5,18.6c4.4,3.9,8.7,7.5,13.4,10.6
		c0.8,0.5,1.8,1,2.7,0.7c2.2-0.6,4.3,0.4,6.4,0.7c1.6,0.2,2.5,1.4,2.7,3c0.2,1,0,1.9-0.2,2.9c-0.7,3.4-2.6,6.1-5,8.5
		c-2.8,2.8-5.2,5.9-6.6,9.6c-1.2,3.3-2,6.7-2.5,10.2c-0.1,0.6-0.2,1.2,0.3,2.1c0.8-1.4,1.4-2.4,2.1-3.5c0.9-1.6,1.8-3.2,2.7-4.8
		c0.7-1.2,1.7-2.2,2.9-2.8c2.5-1.2,4.9-0.1,5.6,2.6c0.2,0.9,0.2,1.7,0.2,2.6c-0.6,7.4-2.5,14.5-5.9,21.1c-2.8,5.4-6.8,9.6-12.3,12.4
		c-0.2,0.1-0.5,0.2-0.7,0.3c0.5,0.1,0.9,0.1,1.4,0.2c2.1,0.3,4.3,0.6,6.2,0.6c0.4,0,0.9,0,1.3-0.1c3.8-0.3,6.4-1.5,9.1-2.7
		c1.4-0.6,2.9-1.3,4.6-1.8l1.3-0.4l0.1,1.3c0.3,8.4-3.8,17.4-7.5,25.2c-0.6,1.2-1.1,2.4-1.6,3.5c-0.6,1.3-1.4,3-2.4,4.9
		c-2,4-4.6,9.2-6.5,14.4c-0.1,0.5-0.4,1,0.1,1.4c0.4,0.1,0.6-0.2,0.9-0.3c2.9-1.8,4.7-4.5,6.2-7.4c1-1.8,1.9-3.7,3-5.4
		c0.6-0.9,1.3-1.6,2.5-1.4s1.8,1.1,2,2.1c0.4,1.9,0.9,3.8,1,5.7c0.6,6.5,2,13,3,19.4c0.2,1.3,0.8,2.4,1.5,3.5
		c0.3,0.5,0.7,0.8,1.4,0.7c0.8-0.1,1.1-0.5,1.3-1.2c0.9-4,2.4-7.8,3.1-11.8c1.4-8.1,2.3-16.1,1.7-24.3c-0.1-1.3-0.3-2.3-1-3.3
		c-2.6-3.7-4.2-7.7-4.8-12.2c-0.8-6-0.9-12-0.1-17.9c0.6-4.4,1.7-8.6,3.6-12.6c1.6-3.3,3.4-6.5,6.5-8.8c0.6-0.4,0.9-1,1.1-1.5
		c0.1-0.2,0.2-0.4,0.3-0.6c1.1-2.9,3.3-4.8,5.7-6.6c0.5-0.3,1-0.7,1.5-0.3c0.6,0.4,0.5,0.9,0.3,1.5c-0.1,0.5-0.3,0.9-0.5,1.4
		c-2.2,8.5-2.2,16.8,2.8,24.5c1.1,1.7,2,3.5,2.6,5.4c0.3,0.8,0.6,1.4,1.2,2c0.3,0.3,0.7,0.6,1,0.9c-1.2-6.3-1.3-12.8-0.4-17.2
		c0.7-3.4,1.7-5.3,3.2-5.8c0.2-0.1,0.4-0.1,0.7-0.1c0.6,0,1.3,0.2,2.1,1c0.5,0.5,0.6,1.3,0.9,4.9c0.1,1.4,0.2,3,0.4,3.5
		c1.4,4.4,4.2,6.9,7.5,9.4c0-0.1,0.1-0.1,0.1-0.1c5-6.1,7.7-12.9,5.3-20.9c-0.3-1.1-0.6-2.3-0.6-3.5c0.2-4.1,4.2-6.6,7.9-4.9
		c0.8,0.4,1.6,0.9,2.1,1.5c2.3,2.5,4.9,4.6,7.6,6.6c1.9,1.5,3.3,1.5,5.2-0.1c0.7-0.6,1.2-1.3,1.8-1.9c1-1,2-2,3-3.1
		c0.3-0.3,0.9-0.5,0.5-1.3c-1.6,0-3.3,0.2-4.9,0c-4-0.5-5.9-3.8-4.6-7.5c0.2-0.5,0.3-0.9,0.6-1.3c1.5-2.5,2.5-5.2,3.5-7.9
		c1.5-3.8,3.6-7.1,6.4-10.1c0.4-0.4,0.9-0.7,0.9-1.4C418.7,296.9,417.8,297.1,416.9,297.1z"/>
	<path class="st3" d="M452.2,315.8c-1.7-3.1,0.3-6.5,3.8-6.8c0.3,0,0.5,0,0.7,0c1.1,0.1,2.2,0.4,3.2,0.9h0.1
		c-0.1-0.7-0.3-1.4-0.4-2.2c-0.8-3.9-1.5-7.8-1.1-11.4l0.2-1.9l1.4,1.3c2.4,2.1,4.3,4.5,5.9,6.9c4.1,0.8,7.4,3.1,10.2,6.5
		c2.1,2.4,3.8,5.2,6.2,7.3c1.7,1.5,1.8,1.6,2.9-0.5c1.3-2.5,2.8-4.9,4.6-7c3-3.5,5.7-7.3,8.4-11c0.5-0.7,1.1-1.3,1.9-1.8
		c0.6-0.3,1.3-0.5,1.9-0.5c2.1-4.4,4.7-8.4,8.1-12.2c1.2-1.3,2.5-2.2,4.4-1.9c1.9,0.3,3.1,1.6,3.7,3.4c0.4,1.3,0.4,2.7,0.2,4
		c-0.4,2.2-0.8,4.4-1.3,6.6c-0.6,3.1-1.3,6.3-1,9.5c0.1,1,0,2.1,0.5,2.9c0.8,0.1,1.3-0.4,1.8-0.7c3.2-1.9,6.5-3.4,10.3-3.7
		c0.7-0.1,1.4-0.3,2-0.7c6.2-4,13-6.5,20.2-7.8c0.5-0.1,1.1,0,1.3-0.8c-2.7-0.6-5.4-0.8-8.1-1.1c-3.1-0.3-5.5-1.8-6.7-4.7
		c-1.2-3-0.5-5.8,1.5-8.3c1.1-1.4,2.6-2.4,4.1-3.3c5.3-3.3,11-5.1,17.1-5.7c1.2-0.1,2.5,0,3.7-0.6c-0.1-0.9-0.5-1.5-1-2.1
		c-2.3-2.6-4.8-5-7.9-6.6c-4.9-2.5-10-4.3-15.4-5.1c-0.8-0.1-1.7-0.2-2.1-0.9c-0.9-1.5-2.7-1.3-3.9-2.2c-0.5-0.3-0.9-0.1-1.3,0.2
		c-2.7,1.7-5.5,3.3-7.6,5.8s-3.6,5.3-4.7,8.3c-0.4,1.2-0.9,2.5-2.2,2.9c-1,0.3-1.6,0.8-2.1,1.7c-1.1,1.6-3.1,1.4-4.1-0.4
		c-0.4-0.6-0.5-1.4-0.5-2.1c-0.1-1.8-0.2-3.7-0.2-5.5c0-0.9-0.1-1.7-0.5-2.6c-0.8-1.6-1.6-3.1-2.3-4.7c-0.6-1.2-1.5-2.1-2.7-2.7
		c-1.1-0.6-1.7-0.3-2.1,1c-0.3,1-0.4,2.1-1.3,2.8c-1,0.7-1.3,1.8-1.7,2.8c-1.6,4-2.6,8.1-3.7,12.1c-0.6,2-1.5,2.2-3.1,1
		c-1.9-1.4-3.3-3.2-4-5.5c-1-3.2-2.7-6-4.6-8.6c-0.8-1.1-1.8-2.1-2.7-3c-1-0.9-1.6-2.3-2.9-3.1c-0.3,0.6-0.1,1.1,0,1.6
		c0.5,2.3,1.1,4.5,1.9,6.7c0.4,1.1,0.9,2.2,1,3.4c0.3,3.5-2.2,6.1-5.7,5.8c-1.6-0.1-2.9-0.7-4.2-1.6c-2.1-1.3-3.7-3.1-5-5.1
		c-2.2-3.4-4.4-6.9-6.6-10.3c-0.4-0.6-0.6-1.4-1.6-1.9c0,1.1,0.6,1.8,1,2.5c0.6,1,1.1,2,1.3,3.1c0.7,3.1-1.3,5.1-4.3,4.4
		c-1.5-0.3-2.9-0.8-4.4-1.3c-2.1-0.6-4.2-0.9-6.4-0.7c0.1,0.9,0.7,1.4,1,2c0.6,0.9,1.2,1.8,1.3,2.8c0.1,1.6,0.8,2.9,2.2,3.7
		c0.2,0.1,0.4,0.3,0.5,0.5c0.7,0.7,1.3,1.5,0.8,2.5c-0.5,0.9-1.4,0.9-2.3,0.7c-1.5-0.3-3-0.7-4.5-0.9c-6.2-1.1-11,1.8-15.4,5.6
		c-0.5,0.4-0.8,1.2-1.1,1.8c-0.7,1.5-1.3,3.1-2,4.6c-0.4,1-0.3,1.4,0.8,1.7c2.3,0.5,4.6,1.3,6.9,2.1c2.4,0.9,4.8,1.8,6.7,3.7
		c0.7,0.7,1.4,0.6,2.2,0.5c1.8-0.2,3.5-0.2,5.3-0.1c0.8,0,1.4,0.4,1.6,1.2c0.2,0.8-0.3,1.4-1.1,1.7c-1.3,0.5-2.7,1-4.1,1.4
		c-1.2,0.4-2.4,0.9-3.1,2.1c-0.6,0.9-1.6,1.4-2.6,1.5c-2.8,0.4-4.6,2.2-6.1,4.3c-2.1,2.9-4.2,5.8-6.5,8.7c-0.3,0.4-0.9,0.8-0.5,1.4
		c9.4,1,18.6,2.3,28,4.5C453.4,317.5,452.7,316.7,452.2,315.8z"/>
	<path class="st3" d="M357.1,117.3c0.8,0.8,1.6,1.6,2.4,2.4c0.1,0,0.2,0,0.4,0c3,0.2,6,0.3,8.6,1.7c4.5,2.4,9.4,3,14.4,3.3
		c0.9,0.1,1.8,0.1,2.6,0.1c0.5,0,1,0,1.2-0.6c0.2-0.4-0.2-0.7-0.4-1c-1.5-1.9-3.4-3.1-5.9-3.3c-1.4-0.1-2.9-0.2-4.3-0.4
		c-2.3-0.3-3.9-1.9-4.3-4s0.6-4.1,2.7-5.2c0.6-0.3,1.2-0.5,1.8-0.8c3.3-1.3,6.6-2.5,10-3.5c0.5-0.1,1.2-0.1,1.3-0.9
		c-1.7-0.6-3.4-0.7-5.1-1.1c-1.9-0.4-3.7-0.9-5.3-2c-4.2-2.9-3.8-8.5,0.8-10.7c0.9-0.4,2-0.7,3-0.9c3.4-0.8,6.7-1.5,10.1-2.2
		c4.5-1,9-1.2,13.6,0c3.3,0.9,6.7,1.6,10,2.6c5,1.5,10,2.9,14.5,5.6c0.8,0.5,1.5,0.4,2.3,0.4c2.9-0.3,5.7-0.4,8.6-0.2
		c8.1,0.6,16,2.1,23.7,4.7c0.7,0.2,1.4,0.8,2.4,0.3c-2-4.7-4-9.2-5.9-13.7c-0.3-0.8-0.8-1.6-1-2.4c-0.6-2.2-0.2-4.2,1.5-5.7
		s3.7-1.7,5.8-0.9c1.5,0.6,2.8,1.6,4,2.6c2.9,2.5,5.6,5.2,8.1,8.1c1.2,1.5,2.5,2.5,4.5,2.9c1.8,0.4,1.8,0.5,2.7-1.1
		c1.3-2.5,2.8-4.9,4.5-7.1c1.4-1.9,3.4-2.7,5.7-2.1c2.3,0.6,3.6,2.2,4,4.6c0.2,0.9,0.2,1.8,0.2,2.6c0,2.1-0.1,4.2-0.2,6.2
		c-0.3,5.5-0.3,11,1.1,16.2c1.2,4.2,1.4,8.6,1.8,12.9c0.6,0.6,1.2,1.3,1.8,1.9c1.7,1.8,2.2,1.7,3.7-0.3c1-1.4,2.1-2.7,3.1-4
		c-1.5-3.4-1.7-6.9-1-10.5c1.2-6.1,2.8-12,5.5-17.6c1.9-4,4.4-7.6,7.4-10.9c2.3-2.6,4.8-4.9,6.5-7.9c0.5-0.8,1.2-1.5,2.1-1.9
		c2-1,3.9-0.9,5.6,0.4c1.8,1.3,2.4,3.2,2,5.3c-0.2,1-0.7,1.9-1.2,2.8c-1.7,3-3.2,6.1-4.4,9.3c-0.3,0.7-0.5,1.5-0.7,2.3
		c1.1,0.1,1.6-0.6,2.3-1c7.7-4.4,15.9-7.4,24.3-10.1c2.3-0.7,4.7-0.9,7.1-1.2c2.4-0.3,4.7-0.6,7-1.5c2.2-0.9,4.2-0.4,5.4,1.2
		c1.3,1.6,1.4,3.8,0,5.8c-1,1.4-2.1,2.6-3.2,3.9c-2,2.3-4,4.6-5.9,6.9c-1.4,1.7-2.6,3.4-3.6,5.6c1,0.1,1.5-0.5,2-0.8
		c6.5-4.3,12.3-9.4,18.3-14.4c1-0.8,2-1.6,3-2.4c1.6-1.2,3.4-1.9,5.3-1c2.1,1.1,3,3,3.2,5.3c0.1,1.1-0.1,2.1-0.6,3
		c-0.9,2-0.9,4-0.6,6.1c0.1,1,0.2,2.1,0.4,3.1c0.3,2.1,1.7,2.8,3.5,1.6c2.2-1.3,4.4-2.6,6.7-3.7c3.6-1.6,7.3-2.4,11.2-2.2
		c2.3,0.1,4.6,0.3,6.9,0.5c2.5,0.2,4.5,1.3,5.3,3.8c0.9,2.6,0,4.7-1.9,6.5c-1.3,1.2-2.7,2.4-4.2,3.7c0.4,0.3,0.5,0.5,0.7,0.5
		c6.6,1,12.2,4.3,17.8,7.6c2.8,1.7,5.5,3.6,8.2,5.5c1.7,1.2,3.1,2.5,3.9,4.5c0.4,1,0.4,1.9-0.6,2.6c-0.8,0.6-1.7,0.3-2.4-0.2
		c-4.8-3.4-10.3-4.8-16-5.1c-4.5-0.3-8.9,0.2-13.3,1.2c-1.9,0.4-3.8,0.7-5.7,1c-2.1,0.3-4.1,0.2-6.1-0.2c0.8,0.8,1.6,1.7,2.4,2.5
		c1.1,1.3,2.2,2.6,3.2,3.9c3,1.5,6.2,2.6,9.6,3.2c3.6,0.6,7.2,1.7,10.3,3.8c1,0.6,1.7,0.5,2.6-0.1c1.7-1.1,3.4-2,5.4-2.6
		c3.9-1.1,7.4-0.3,10.5,2.3c1,0.8,1.8,1.8,2.6,2.8c0.6,0.8,1.3,1.4,2.1,1.9c1,0.6,1.9,1.3,2.9,1.9c2.3,5.1,3.6,11.4,3.9,19.2
		c0.1,2.9,0.1,5.8,0.1,8.6c0,7.4,0,15,1.9,22.2c0.6,2.1,1.6,5.1,4.3,6.2c0.5,0.2,1,0.3,1.5,0.3c1.3,0,2.5-0.6,3.3-1.3
		c0.1-0.1,0.1-0.1,0.2-0.2c1.2,3.3,1.2,7.1,1.3,10.8c0,1,0,2.1,0.1,3.1v0.7c0.2,6.1,0.9,23.7,2.4,33l0,0c0.1,0.8,0.3,1.5,0.4,2.2
		c0,0.2,0.1,0.5,0.1,0.7s0.1,0.4,0.1,0.5c0.5,2.2,1,4.5,1.9,6.7c0.8,2.2,1.9,4.4,3.3,6.3c1.4,1.9,3,3.6,4.6,5.2
		c0.1,0.1,0.2,0.2,0.2,0.2c-3.3-10.2-3.2-22.6,0.8-32.9l0.7-1.7l1.1,1.5c2,2.8,2.2,6.2,2.4,9.4c0.2,3,0.4,5.9,1.8,8.3
		c2.5,4.1,7,8.3,10.7,11.5c1.7,1.5,3.6,2.5,5.5,3.5c2.5,1.4,5.1,2.8,7.3,5.4c0.5,0.6,0.9,1.2,1.3,1.7c3-7.6,7.1-14.8,10.3-22.6
		c1.3-3.4,2.5-6.9,3.3-10.5c0.7-3.6,1-7.3,0.7-11.1l-0.4-5.9l-1.9,5.6c-2.3,6.7-6.1,13-11,18.1c-1.2,1.3-2.5,2.5-3.9,3.7
		c-0.3,0.3-0.7,0.6-1,0.8l-0.3,0.3l-0.1-0.1l-0.9-1.1c-2.3-2.8-4.4-5.7-6.1-8.8c-0.5-0.8-0.8-1.6-1.2-2.4c-0.3-0.8-0.7-1.6-1-2.4
		c-0.6-1.6-1-3.3-1.2-5.1c-0.2-1.7-0.1-3.4,0.2-5.1c0.4-1.6,1.1-3.3,1.5-5.2c0.2-0.8,0.3-1.7,0.2-2.7v-0.1c0-0.1,0-0.2,0-0.3
		c-0.1-0.4-0.2-0.7-0.4-1.1c0,0,0-0.1-0.1-0.1c0-0.1-0.1-0.1-0.1-0.2c-0.1-0.2-0.2-0.4-0.4-0.5c0,0,0-0.1-0.1-0.1
		c-0.1-0.1-0.1-0.1-0.2-0.2c-0.1-0.1-0.2-0.2-0.3-0.2c0,0,0,0-0.1-0.1l0,0c-0.1-0.1-0.3-0.2-0.5-0.3c0,0-0.1,0-0.1-0.1
		c-0.1-0.1-0.2-0.1-0.4-0.2c-0.1-0.1-0.3-0.1-0.4-0.2c-0.1,0-0.2-0.1-0.3-0.1c-0.2-0.1-0.3-0.1-0.5-0.1c-0.2-0.1-0.4-0.1-0.6-0.1
		c-0.2,0-0.4-0.1-0.6-0.1c-0.1,0-0.1,0-0.2,0c-0.3-0.1-0.7-0.2-1-0.3c-0.1,0-0.2-0.1-0.3-0.1c-0.3-0.1-0.5-0.2-0.8-0.3
		c-0.1-0.1-0.3-0.1-0.4-0.2c-0.2-0.1-0.4-0.2-0.6-0.3c-0.2-0.1-0.4-0.2-0.6-0.3c-0.1,0-0.1-0.1-0.2-0.1c-3.8-2.1-6.9-5.6-8.2-9.7
		c-1.5-4.6-1.1-9.7-0.7-14.6c0.5-5.9,1-11.9-1.6-17.3c-1.2-2.3-2.8-4.4-4.5-6.4c-2.3-2.8-4.4-5.4-5.1-8.6c-0.6-2.8,0.1-5.7,0.7-8.8
		c0.7-3.1,1.4-6.2,0.8-9.4c-0.6-3-2.2-5.6-3.7-7.8c-3.4-5-9.9-12.7-18.2-14.1c-2-2.7-3.7-5.6-5-8.6c-1.6-3.7-1.1-7,1.4-9.2
		c2.3-2.1,4.9-2,7.7-1.5c0.9,0.2,1.8,0.6,2.7,0.9c0.5,0.2,0.9,0.3,1.3-0.2c0.4-0.5,0.1-0.9-0.1-1.3c-0.7-1.5-1.6-3-2.6-4.3
		c-2.2-3-4.8-5.8-7.2-8.6c-0.1-0.1-0.1-0.2-0.2-0.2l0,0c-1.4,0-2.7,0-3.7-1.2c-0.4-0.5-1-0.4-1.6-0.5c-3.3-0.4-6.5-0.8-9.8-1.2
		c-9.4-0.9-18-3.5-25.2-10c-0.5-0.5-1.2-0.8-1.9-1c-3.2-0.6-5.1-2.7-5.6-5.8c-0.3-2-1.4-3-3.3-3.6c-8.5-2.7-17-4.4-26-2.9
		c-1.2,0.2-2.4,0.3-3.6,0.4c-5.9,0.6-11.7,2-16.8,5.3c-0.3,0.2-0.7,0.4-1.1,0.5c-2.1,0.7-4,0.4-5.6-1.1c-1.5-1.4-2-3.2-1.6-5.3
		c0.1-0.6,0.6-1.1,0.3-1.7c-0.6-0.2-1,0-1.5,0.1c-6.8,1.4-13,0.4-18.6-3.9c-2-1.5-4-2.9-6.1-4.3c-2.5-1.7-5.4-2.5-8.4-2.7
		c-2.1-0.1-4.2-0.1-6.2,0.2c-6,0.7-12,2-17.8,3.7c-8.4,2.5-16.9,4.1-25.7,4c-2.1,0-4.2,0.1-6.2,0.2c-5.2,0.3-10.3,1.6-15,3.8
		c-0.9,0.4-1.7,0.9-2.2,2c-1.2,2.3-4.2,2.6-5.9,0.6c-0.6-0.7-1.2-0.7-1.9-0.6c-4.5,0.6-8.8-0.2-12.9-1.7c-3.5-1.3-6.8-2.7-10.3-4
		c-7.4-2.8-13.7-7.1-18.9-13.2c-0.5-0.6-0.9-1.3-1.7-1.5c-0.5,0.3-0.4,0.7-0.4,1.1c-0.1,3.6,0.6,7,2.1,10.2c1.1,2.2,2.1,4.5,3.2,6.7
		c1.2,2.4,1.5,4.3-0.9,6.6c-1.8,1.8-3.7,2.7-6,2.9c-3,0.3-5.9-0.3-8.7-1.3c-5.6-1.9-10.9-4.6-16.1-7.4c-0.7-0.4-1.4-1.1-2.4-0.9
		c-0.3,1.1,0,2.1,0,3.1c0.2,4.1-0.2,8.1-1.5,12.1c-1.5,4.6-4.2,8-8.1,10.1c0,1.3,0.1,2.6,0.3,3.9c0.2,1.3,0.8,2,1.9,2.6
		c1,0.5,1.9,1.1,2.8,1.8c3.6,2.6,2.5,8.8-1,10.6c-2.1,1.1-4.2,1.5-6.5,1.2c-0.4-0.1-0.7-0.3-1.3,0c0.1,1.5,0.6,2.9,1.4,4.3
		C354.8,114.7,355.9,116.1,357.1,117.3z"/>
	<path class="st3" d="M351.9,589.6c3.7-2.3,7.5-4.6,11-7.3c-0.1-0.1-0.1-0.2-0.2-0.3c-1,0.1-1.5,0.7-2.2,1.2
		c-2.5,1.5-5.2,2.5-8.1,2.7c-6,0.6-9.7-4.4-7.5-10c0.7-1.9,1.9-3.5,3-5.2s2.2-3.3,3.2-5.1c1.2-2,1.9-4.2,1.9-6.6
		c0-2.6,0.4-5.1,1.1-7.6c0.5-1.9,0.8-3.9,1-5.9c0-0.4,0.1-0.9,0.1-1.3c-1.1,0.5-2.2,1.1-3.2,1.6c-4,2.1-9.7,4.8-15.5,4.8
		c-0.7,0-1.4,0-2.1-0.1c-1.5-0.2-6-1.4-7.4-3.6c-0.4-0.7-0.5-1.5-0.2-2.3c0.3-0.7,1-1.1,5.4-2.4c1.2-0.4,2.7-0.8,3-1
		c13.2-7.2,21.9-18.7,24-31.7c-1.5-2.1-3-4.3-4.4-6.6c-1.5-2.5-2.8-5-3.9-7.7c-1.6-4-2.7-8-3.1-12.1c-3.2,4-5.4,5.9-7,5.9
		c-0.2,0-0.5,0-0.7-0.1c-1.6-0.6-1.5-3-1.3-5c0.3-2.8,1.7-5.9,3.1-9.1c1.6-3.6,3.2-7.3,3.4-10.5c-1.7-3-3.2-6.1-4.5-9.2
		c-0.1-0.3-0.3-0.7-0.7-0.8c-0.6,0.6-0.6,1.5-0.8,2.2c-1.6,5.3-3.8,10.4-6.9,15c-1.1,1.6-1.9,3.3-2.6,5.1
		c-3.4,9.1-9.1,16.5-17.2,21.9c-0.7,0.5-1.5,1-2.2,1.5c-0.4,0.3-1.1,0.5-0.9,1.3c3,1.6,6.2,2.2,9.7,2.3c2.9,0,5.7-0.4,8.6-0.8
		c1.1-0.2,2.2-0.2,3.3,0.1c3.3,0.9,4.6,4.4,2.9,7.2c-0.6,1-1.6,1.8-2.7,2.4c-1,0.5-2,0.9-3,1.5c-3.2,1.7-5.8,3.9-6.9,7.6
		c-0.5,1.9-1.4,3.6-2.5,5.2c-1.6,2.4-3.1,4.9-4.7,7.2c-1,1.4-1.4,3-1.4,4.7c0,4,1,7.8,2.7,11.3c0.9,1.9,1.8,3.7,2.6,5.7
		c1.1,2.6,1.2,5.3-0.1,7.9c-0.2,0.5-0.4,1-0.6,1.6c-0.8,2.4-2,2.8-4.2,1.6c-1.7-1-3.4-1.9-5.1-2.9c-0.2,0.2-0.3,0.3-0.4,0.4
		c-3.2,7.7-8.1,14.1-14.6,19.4c-1.1,0.9-2.1,1.9-3,3.2c0.9,0.1,1.8,0.2,2.7,0.3c1.5,0.2,2.8,0.4,4,0.4c0.1,0,0.1,0,0.2,0
		c3.9,0,6.8-0.7,10.3-1.6c0.9-0.2,1.9-0.5,2.9-0.7c1.5-0.3,3.2-0.8,4.9-0.8c2.5,0,4.9,0.9,6,4.3c1.5,4.7-2.1,7.2-5,9.1
		c-0.8,0.5-1.5,1.1-2.2,1.6c-6.4,5.3-12.6,14.3-15.4,22.5c-0.3,0.8-0.4,2.3-0.4,3.8c-0.1,1.8-0.2,3.6-0.7,5l0,0l0.5,0.3l0.5,0.3
		l1.8,1.4l0,0c0.3,0.2,0.6,0.5,0.9,0.7l0.9,0.7l1.7,1.5c0.6,0.5,1.1,1,1.7,1.5l0.8,0.8l0.4,0.4l0.4,0.4c1.1,1.1,2.2,2.1,3.2,3.2
		c0.5,0.5,1.1,1.1,1.6,1.6l1.5,1.7c0.3,0.3,0.5,0.6,0.8,0.8l0.7,0.9l1.5,1.7c1,1.2,1.9,2.3,2.8,3.5c2.4,3.1,4.7,6.2,6.9,9.4
		c0,0.1,0.1,0.1,0.1,0.2c0.5,0.7,1.1,1.4,1.5,2.2c0.2,0.3,0.3,0.5,0.5,0.8c0.5,0.7,1,1.4,1.4,2.1c0.5,0.7,1,1.4,1.4,2.1
		c0-1.4,0.3-2.9,0.9-4.3c0.7-1.9,1.8-3.5,3-5.2c1.6-2.1,3.4-4,5.2-6c7.3-7.7,13.8-16,19.5-24.9c0.5-0.8,1.2-1.5,1.1-2.7
		c-2.8,0.6-5.6,1.1-8.3,1.7c-6.7,1.5-13.5,1.2-20.3,0.4c-0.6-0.1-1.1-0.2-1.6-0.3c-2.9-0.9-4.8-3.1-5-5.8s1.4-5.1,4.2-6.3
		c0.4-0.2,0.9-0.4,1.3-0.5c2.2-0.8,4.3-1.6,6.5-2.5c8-3.1,15.1-7.5,21.1-13.5c-3.5,0.5-6.9,1-10.4,2.1c-0.8,0.2-1.7,0.6-2.6,0.9
		c-2.3,0.9-4.8,1.8-7.2,1.8c-1,0-2-0.2-2.9-0.6l-1.3-0.6l1-1C340.3,596.7,346.2,593.1,351.9,589.6z"/>
	<path class="st3" d="M664.3,651.9c0.8-1.1,1.7-2.1,2.6-3.2l1.5-1.7l0.7-0.9c0.2-0.3,0.5-0.6,0.8-0.8l1.5-1.7c0.5-0.6,1-1.1,1.6-1.6
		c0.2-0.2,0.5-0.5,0.7-0.7c-0.9-1.9-2.5-3.3-4.3-4.8c-1.3-1.2-2.7-2.4-3.8-3.8c-3.2-4.4-2.7-9-2.2-13.8c0.1-0.8,0.2-1.5,0.2-2.3
		l0.2-2.5l1.5,1.9c5.5,6.9,13.9,12.2,22.8,12.2c0.4,0,0.9,0,1.3-0.1l0.9-0.6c2-1.3,4.1-2.5,6.2-3.6c-0.2-0.2-0.3-0.5-0.5-0.7
		c-2-2.6-3.7-5.2-7.3-5.7c-0.1,0-0.1-0.1-0.2-0.1c-3.6-1.6-5.9-4.2-6.1-8.2c-0.2-4,1.9-6.8,5.3-8.7c1-0.6,2.2-1,3.3-1.4
		s2.3-0.7,3.4-1.1c2.9-1,5.7-2.4,8.6-3.8c-0.7-0.9-1.5-1.1-2.2-1.4c-6.4-2.9-12.2-6.7-17.4-11.5c-4.5-4.1-8.7-8.4-12.7-13.1
		c-5.1-6.1-9.7-12.5-13.4-19.5c-0.3-0.6-0.6-1.2-0.9-1.7c-1.4-2.6-2.6-5.3-3.3-8.2c-0.2-0.9-0.2-1.8,0.2-2.5
		c0.2-0.3,0.4-0.5,0.6-0.8c1.1-1,2.4-0.8,3.6-0.3c1.4,0.6,2.6,1.6,3.7,2.6c5,4.5,9.5,9.4,13.9,14.6c2.9,3.4,5.9,6.7,8.9,10
		c0.5,0.5,0.8,1.2,1.7,1.2c0-0.3,0.1-0.7,0-1c-1.3-6.4-2.5-12.7-4.5-18.9c-1.4-4.3-3.1-8.5-6.2-11.8c-5.4-5.9-10.8-11.8-17.2-16.7
		c-2.7-2-5.3-4.1-8-6.2c-2.2-1.8-4.1-3.8-5.5-6.3c-3.6-6.6,0.4-13.6,7.9-13.7c2,0,4,0.3,5.9,0.7c4.5,0.9,8.9,1.9,13.4,2.9
		c0.8,0.2,1.5,0.5,2.7-0.1c-6.4-7.2-9.9-15.8-13.6-24.4c-3.8-8.6-6.9-17.5-8.8-27c-0.6,0.5-0.8,0.6-1,0.9c-2.8,3.5-6.1,6.6-9.5,9.5
		c-1.1,1-2.2,2-3.2,3.1c2.4,5.8,7.4,11.4,11.8,16.2c1.7,1.8,3.2,3.5,4.5,5.1l0.7,0.9l-1,0.6c-1,0.6-2.4,0.9-4,0.9
		c-4.4,0-10.4-2-15.1-4.2c-2.2-1-4.4-2.2-6.4-3.5c-2.3,4.4-2.7,8.8-0.8,13.4c1,2.5,1.9,5.1,2.6,7.7c0.7,2.3,1.8,4.4,3.2,6.4
		c2.9,4.1,5.8,8.2,8.7,12.4c1.2,1.7,1.6,3.5,0.5,5.4c-0.8,1.3-2,2-3.3,2.2c-0.5,0.1-1.1,0.1-1.7,0c-1.6-0.2-3.1-0.6-4.7-0.9
		c-0.9-0.2-1.7-0.4-2.6-0.5c-1.9,0-1.9,0.1-1.8,2.1c0.3,6,1.9,11.8,3.2,17.7c0.5,2.1,1.2,4.1,2.2,6.1c4.8,10.4,9.2,20.9,12.9,31.8
		c1.4,4.2,2.9,8.5,3.5,13c0.7,5.2,1.6,10.4,2.4,15.7c0.3,1.9,0.4,3.8,0.6,5.7c0.1,0.8-0.2,1.5-1,1.7c-0.9,0.3-1.6-0.2-1.9-1
		c-0.4-1-0.7-2-1.1-2.9c-0.7-1.9-0.9-4.1-3-5.2c-0.4-0.2-0.6-0.9-0.9-1.4c-1.5-2.5-2.9-5-4.4-7.4c-4.5-7.6-10.2-14.1-16.5-20.2
		c-0.5-0.5-1-1.2-2.2-1.4c0.7,2.2,1.3,4.1,1.9,6.1c1.3,3.9,1.8,8,2.7,11.9c0.6,2.6-0.3,4.8-2.6,6.2c-2.1,1.4-4.8,1.2-6.9-0.5
		c-0.6-0.4-1.1-0.9-1.6-1.5c-3.6-3.8-8.6-5.4-13-8.2c-0.1,0.5-0.3,0.8-0.2,1c0.7,4.4,1.5,8.7,4.9,12c1.1,1.1,2.1,2.4,3.1,3.7
		c6.2,7.3,13,14.1,19.4,21.3c0.7,0.8,1.4,1.5,1.9,2.4c0.9,1.5,0.8,2.9-0.3,4.4c-1.2,1.7-2.5,2.6-4.6,2.3c-1.2-0.2-2.4-0.1-3.6-0.3
		c-11.8-1.5-23.2-5.1-34.8-8.1c0.5,1.9,1.5,3.5,2.7,5c1.1,1.4,2.3,2.6,3.5,4c0.3,0.3,0.6,0.7,0.8,1l0.2-0.7c3.4,1,6.7,2.3,9.9,3.6
		c4.3,1.7,8.7,3.4,13.2,4.5c2.4,0.6,5.1,1.6,7.9,2.6c4.6,1.7,9.4,3.5,13.3,3.5c0.2,0,0.3,0,0.5,0l3.6-0.1l-3,2
		c-5.1,3.3-13.8,6.5-21.4,7.4c0.2,0.6,0.5,1.1,0.7,1.7c0.7,2,1.2,4,1.7,6c0.9,3.5,1.9,6.9,3.2,10.3c0.6,1.5,1.2,2.9,2,4.3h15.2
		c0.2-0.1,0.4-0.3,0.6-0.4c0.9-0.6,1.8-1.3,2.6-2c0.5-0.4,1-0.9,1.4-1.3c0,0,0,0,0.1-0.1c0.2-0.3,0.4-0.5,0.6-0.8
		c1.8-2.4,3.5-4.8,5.2-7.3c0.5-0.7,1-1.4,1.4-2.1c0.2-0.3,0.3-0.5,0.5-0.8c0.5-0.8,1-1.5,1.5-2.2c0-0.1,0.1-0.1,0.1-0.2
		c2.2-3.2,4.5-6.3,6.9-9.4C664.1,652.1,664.2,652,664.3,651.9z"/>
	<path class="st3" d="M595.7,348.5c2,2.1,3.8,4.3,5.5,6.7c1.6,2.2,3.1,4.5,4.6,6.7c-0.2-3-1.3-5.5-2.7-7.9c-1.9-3.2-4-6.1-6.2-9.2
		c-1-1.5-1.5-3-0.6-4.7s2.5-2.3,4.4-2.4c1.3,0,2.5,0.2,3.8,0.6c0.8,0.3,1.2,0,1.3-0.9c0.2-2.2,0.5-4.3,0.5-6.5
		c-0.1-6.6-0.3-13.3-0.6-19.9c-0.2-4.5-0.6-8.9-2.5-13.1c-0.2-0.4-0.3-0.9-0.4-1.4c-0.2-1.8,0.4-3.3,1.9-4.1
		c1.4-0.8,3.3-0.8,4.5,0.5c2,2.2,4.5,3.9,6.7,5.8c1.2,1.1,2.4,2.3,3.5,3.5c3.1,3.5,5.7,7.5,7.7,11.9c0.3,0.8,0.6,1.6,1.2,2.2
		c0.5-0.2,0.6-0.5,0.6-0.8c1.1-3.6,5.3-5,8.9-3.1c1.3,0.7,2.4,1.6,3.4,2.6c1.1,1.1,2.3,2.2,3.6,3.1c2.7,1.8,5.3,3.6,8.1,5.2
		c-3.1-4.1-8.7-12.4-8.2-16l0.2-1.8l1.4,1.2c1.9,1.6,3.7,3.4,5.5,5.1c5.2,5,10,9.7,17.6,10.8c1.3,0.2,2.5,0.3,3.7,0.3
		c0.9,0,1.8-0.1,2.7-0.2c1.8-1.9,3.5-4,5.1-6c0.2-0.3,0.5-0.6,0.4-1c-0.2-0.4-0.5-0.4-0.8-0.5c-6.3-1.6-11.5-5.1-15.9-9.8
		c-3.7-3.9-7.2-7.9-10.5-12.1c-2.8-3.5-5.1-7.4-6.7-11.6c-2.2-5.5-0.9-9.7,3.9-13.3c0.7-0.5,1.5-0.8,2-1.6c-0.5-0.9-1.3-1.1-1.9-1.6
		c-3.4-2.5-6.3-5.4-8.3-9.2c-0.9-1.7-1.5-3.4-1.9-5c-0.9-4-0.5-8,1.2-12.1c0.7-1.8,1.8-3.2,3.9-3.6c0.5-0.1,1-0.2,1.2-0.7
		c0.4-1.5,1.4-3,1-4.6c-0.7-3.1-1.1-6.3-2.4-9.3c-1.3-2.8-2.5-5.7-3.7-8.6c-2.4-5.8-7.2-8.6-12.8-11.1c-0.1,1.2,0.4,1.8,0.7,2.5
		c1.2,2.7,2,5.4,2.3,8.3c0.1,1.1,0.3,2.2-0.1,3.3c-0.4,1.4-1.3,2.4-2.8,2.7s-2.7-0.3-3.6-1.4c-0.3-0.4-0.5-0.8-0.7-1.2
		c-0.8-2-2-3.6-3.7-5c-2.5-2-4.9-4-7.7-5.6c-0.4-0.2-0.8-0.8-1.5-0.3c0,0.8,0.4,1.4,0.7,2c2.2,5,4.4,10,4.9,15.5
		c0.1,0.9,0.6,1.6,1.2,2.3c1.7,2.1,3.4,4.3,5,6.4c3.5,4.7,5,10.1,4.6,16c-0.4,5.8-1.3,11.6-2.3,17.3c-0.6,3.2-0.9,6.5-1.8,9.7
		c-1.2,4.2-4.7,5.7-8.4,3.5c-2.2-1.4-4.7-1.9-7.2-3c-0.5,1.6-0.4,3.3-0.5,4.8c-0.2,1.9-1,3.4-2.9,4.1c-1.7,0.7-3.3,0.2-4.7-1
		c-1-0.9-2.1-1.8-3-2.8c-4.5-4.9-10.3-7.1-16.5-8.7c-2.5-0.6-2.6-0.5-2.2,2.2c0.8,6.2-2.1,10.4-8.1,11.9c-0.6,0.1-1.3,0-1.6,0.9
		c1.1,1.2,2.2,2.5,3.2,3.8c1.4,1.7,2.5,3.7,3,5.9c0.8,4-1.4,7.6-5.4,8.2c-4.8,0.7-9.5,2-14.4,2.8c-2,0.3-3.9,0.7-5.9,1.1
		c-0.5,0.1-1.2,0.2-1.1,0.7c0.1,1.1,0.5,2.2,0.8,3.2c0.2,0.7,1,0.7,1.6,0.9c3.2,1.1,6,2.6,8.4,5c2.2,2.2,3.1,5.5,0.9,8.2
		c-0.1,0.2-0.3,0.4,0.1,0.7c2.5,0.8,5.2,1.7,7.8,2.6c2.7,1,5.3,2.2,7.8,3.8c2.4,1.5,4.7,3,6.9,4.8s4.3,3.6,6.4,5.4
		C591.8,344.5,593.8,346.5,595.7,348.5z"/>
	<path class="st3" d="M658.2,359.4c1.8,0.4,3.4,1.4,5.1,2.1c0.7,0.3,1.3,0.9,2.2,0.7c0.4-0.3,0.3-0.7,0.3-1.1c0-2-0.6-3.8-1.3-5.6
		c-1.3-3.3-3.4-6.1-5.2-9.1c-1.1-1.7-2.2-2.3-4.2-2.2c-4.4,0.2-8.6-0.5-12.5-2.6c-0.3-0.2-0.6-0.2-1,0c-0.4,1-0.5,2.1-0.7,3.2
		c-1.2,7.2-1.5,14.5-0.3,21.7c0.2,1.3,0.3,2.5,0,3.8c-0.5,2.1-1.7,3.6-3.9,4.1c-2.1,0.5-4-0.1-5.4-1.8c-0.7-0.8-1.1-1.7-1.7-2.6
		c-1.5-2.8-3.6-5.1-5.8-7.5c0,1.7-0.1,3.4,0,5.1c0.3,6,0.7,12-0.1,18c-0.3,2.1-0.2,4.3,0.2,6.4c1.5,8.8,4.9,16.8,9.3,24.5
		c1.2,2.1,1.2,2,3.5,1.5c1.1-0.2,1.4-0.8,1.4-1.8c0-2.8,0.1-5.6,0.2-8.4c0.1-3.4,0.8-6.7,2.4-9.7c2.7-5,4.3-10.3,6.1-15.6
		c1.6-4.8,2.7-9.7,2.4-14.8c0-0.9,0-1.9,0.2-2.9C650.4,360.7,654.1,358.4,658.2,359.4z"/>
	<path class="st3" d="M828.7,659.5c-1.7-3.4-3.9-6.7-6.3-9.7c-2.4-3-5.2-5.7-8.2-8.1c-3-2.4-6.3-4.5-9.7-6.1l0,0l-5.1-2.3
		c-0.5-0.5-1.1-1-1.6-1.4c-1.3-1.1-2.6-2.1-4.1-2.9c-6-3.4-12.8-5.3-19.6-6.4c-3.4-0.6-6.8-0.9-10.3-1.1c-2.3-0.1-4.5,0-6.8-0.4
		c-2.5-0.4-4.8-1.5-7.3-1.7c-1-0.1-1.9,0-2.9,0.1c-7.9,0.8-15.8,2-23.4,4.3c-3.8,1.2-7.6,2.6-11.1,4.4c-3.4,1.7-6.5,4.2-10,5.6
		c-0.9,0.3-1.7,0.7-2.6,1.1c-18.2,7.8-34.5,23.2-40.8,42.2l0,0c1.7-0.4,3.6,0.3,4.9-0.8c0.5-0.4,0.8-1.1,1.1-1.7
		c2.9-6.3,5.8-12.9,10.7-17.8c6.1-6,15.7-8.4,22.8-2.9c0,0,0,0,0-0.1l0.1,0.1c0.4,0.3,0.8,0.7,1.2,1.1l0,0c0.1,0.1,0.3,0.2,0.4,0.4
		c0.5,0.4,0.9,0.9,1.3,1.4c0.1,0.1,0.1,0.2,0.2,0.3c-0.6,0-1.2,0-1.8,0.1c-1.3,0.1-2.6,0.5-3.8,0.9c-2.5,0.9-4.7,2.3-6.9,3.7
		c-0.5,0.4-1.1,0.7-1.6,1.1l-0.8,0.6l-1.4,1.1l-0.8,0.6c0,0,0.8-0.2,0.9-0.2c3.8-1,7.5-1,11.1,0.7c0.3,0.1,0.6,0.3,0.9,0.4
		c0.3,0.2,0.6,0.3,0.8,0.5c0.5,0.3,1,0.8,1.5,1.2c1,0.8,1.8,1.8,2.6,2.8c0.8,1.2,1.5,2.4,2.2,3.7l0,0c-0.1,0.4-0.2,0.7-0.3,1.1
		c-0.1,0.2-0.1,0.4-0.2,0.7v0.1c-0.1,0.4-0.1,0.8-0.2,1.2c0,0.1,0,0.2,0,0.3s0,0.2,0.1,0.3c0,0.2,0.1,0.4,0.1,0.6v-0.1v0.1
		c0,0,0,0,0,0.1l0,0c0.1,0.7,0.3,1.4,0.4,2.1c0.2,0.8,0.3,1.6,0.5,2.5c1,1.7,2.1,3.4,2.7,5.3c0.1,0.2,0.1,0.4,0.2,0.5v0.1
		c0,0.2,0.1,0.3,0.1,0.5l0,0c0,0.2,0.1,0.4,0.1,0.5s0,0.1,0,0.2c0,0.2,0.1,0.3,0.1,0.5v0.1c0,0.2,0.1,0.3,0.1,0.5c0,0.1,0,0.1,0,0.2
		c0,0.1,0,0.3,0,0.4c0,0.1,0,0.2,0,0.3s0,0.3,0,0.4c0,0.1,0,0.2,0,0.3s0,0.2,0,0.3c0,0.2,0,0.4,0,0.6v0.1c0,0.1,0,0.3,0,0.4l0,0
		c0,0.3,0,0.6,0,0.9c0.1,0.1,0.2,0.3,0.3,0.4c0.5,0.7,1.1,1.3,1.6,2c0.3,0.3,0.6,0.6,0.8,0.9c2.3,2,4.7,3.9,7.8,4.6
		c4.8,1.1,9.8-0.5,14.7-0.1c1,0.1,2,0.2,2.8-0.1c1.7-0.7,2.7-3.4,3.6-4.9c1.3-2.3,2.5-4.7,3.4-7.2c1.8-4.8,2.9-9.8,3.3-14.8
		c0.6-8-0.8-16.1-4-23.4c-1.6-3.7-3.6-7.2-5.9-10.4c-2.4-3.2-5-6.2-8-8.9c-0.4-0.4-0.7-0.7-1.1-1l-1.9-1.7l0,0l0,0h0.1h0.2l0.4,0.1
		l0.7,0.2l1.1,0.3l0.4,0.1l0.4,0.1l0.7,0.2c1.9,0.6,3.8,1.4,5.6,2.3c16.6,8.7,23.8,26.2,24.9,44c0,0.1,0,0.2,0,0.4
		c0,0.5,0,1.1,0,1.6s0,1-0.1,1.5c0,0.5-0.1,0.9-0.1,1.4c0,0.1,0,0.1,0,0.2c0,0.3-0.1,0.6-0.1,1c0,0.3-0.1,0.7-0.2,0.9
		c0,0.2-0.1,0.4-0.1,0.6c-0.4,3-1.5,5.9-2.4,8.7c-1,3-2.7,5.9-1.5,9.1c2.6,6.7,8.6,8.8,15.1,9.8c0.9,0.1,1.7,0.2,2.6,0.4
		c1.1,0.1,2.2,0.3,3.2,0.4c1.3,0.1,2.5,0.3,3.8,0.4c0.2,0,0.5,0,0.7,0.1c0.2,0,0.4,0,0.7,0c0.4,0,0.9,0,1.3,0v-0.1
		c0.6-2.5,1.9-4.7,3.1-7c5.5-10.6,7.6-23.4,5.9-35.5c-1.6-11.3-7.9-21.7-15.8-29.7c-0.8-0.8-1.6-1.8-1.5-2.9
		c2.8,0.7,5.8,3.1,8.2,4.6c3,1.9,5.9,3.8,8.6,6.1c4.9,4.1,9.6,9.4,10.6,16c1.9,12.5,5.4,13.3,3.7,25.8c-0.4,3.4-2.5,6.4-3.1,9.7
		c-0.9,4.7-1.2,9-3,13.5c-0.1,0.3-0.3,0.5-0.3,0.8c-0.1,0.3-0.3,2.7-0.8,2.5c2.3,0.8,13.1,2.9,13.7-1l0.3-2.2l2.7-15.1
		c2.6-14.9,3-29.7-3.7-43.6c-1.4-3-4-8.6-5.8-10.4c0.2,0.2,0.5,0.4,0.7,0.6c3.7,3.5,7.1,6.8,9.9,11.1c3.2,5.1,6,10.8,8.1,16.3
		c0.2,0.4,0.3,0.9,0.5,1.4c0.6,1.8,1.1,3.7,1.5,5.5c0.8,3.7,1.1,7.5,1.2,11.2c-0.1,3.7-0.5,7.5-1.3,11.1c-0.3,1.1-0.6,2.2-0.9,3.3
		c0.3-0.1,0.7-0.2,1-0.3c0.9-0.4,1.7-1,2.4-1.8c0.7-0.7,1.2-1.6,1.7-2.4c0.5-0.9,0.8-1.8,1.1-2.7c0.2-0.5,0.3-0.9,0.4-1.4
		C835.8,685,834.6,671.2,828.7,659.5z M706.9,631.3L706.9,631.3C707,631.3,707,631.2,706.9,631.3C707,631.3,707,631.3,706.9,631.3z"
		/>
	<path class="st3" d="M283.5,634.8c-0.8-0.4-1.7-0.7-2.6-1.1c-3.6-1.4-6.6-3.9-10-5.6c-3.6-1.8-7.3-3.2-11.1-4.4
		c-7.6-2.3-15.5-3.5-23.4-4.3c-1-0.1-1.9-0.2-2.9-0.1c-2.5,0.2-4.8,1.3-7.3,1.7c-2.3,0.4-4.5,0.2-6.8,0.4c-3.4,0.2-6.9,0.6-10.3,1.1
		c-6.8,1.1-13.6,3-19.6,6.4c-1.5,0.8-2.8,1.8-4.1,2.9c-0.6,0.5-1.1,1-1.6,1.4l-5.1,2.3l0,0c-3.4,1.7-6.7,3.8-9.7,6.1
		c-3,2.4-5.8,5.1-8.2,8.1s-4.5,6.3-6.3,9.7c-5.9,11.7-7.1,25.5-3.7,38.1c0.1,0.5,0.2,0.9,0.4,1.4c0.3,0.9,0.7,1.8,1.1,2.7
		c0.5,0.9,1,1.7,1.7,2.4s1.5,1.4,2.4,1.8c0.3,0.1,0.6,0.2,1,0.3c-0.3-1.1-0.6-2.2-0.9-3.3c-0.8-3.6-1.2-7.4-1.3-11.1
		c0-3.7,0.4-7.5,1.2-11.2c0.4-1.9,0.9-3.7,1.5-5.5c0.2-0.5,0.3-0.9,0.5-1.4c2.1-5.6,4.9-11.3,8.1-16.3c2.7-4.3,6.2-7.6,9.9-11.1
		c0.2-0.2,0.5-0.4,0.7-0.6c-1.9,1.7-4.4,7.4-5.8,10.4c-6.7,13.9-6.3,28.7-3.7,43.6l2.7,15.1l0.3,2.2c0.6,3.9,11.4,1.8,13.7,1
		c-0.6,0.2-0.8-2.1-0.8-2.5c0-0.3-0.2-0.6-0.3-0.8c-1.8-4.5-2-8.8-3-13.5c-0.7-3.3-2.7-6.4-3.1-9.7c-1.7-12.6,1.8-13.3,3.7-25.8
		c1-6.6,5.6-11.8,10.6-16c2.7-2.3,5.6-4.2,8.6-6.1c2.4-1.5,5.4-3.9,8.2-4.6c0.2,1.1-0.7,2.1-1.5,2.9c-7.9,8-14.2,18.4-15.8,29.7
		c-1.7,12.1,0.4,24.9,5.9,35.5c1.2,2.3,2.5,4.5,3.1,7v0.1c0.4,0,0.9,0,1.3,0c0.2,0,0.4,0,0.7,0c0.2,0,0.5,0,0.7-0.1
		c1.3-0.1,2.5-0.3,3.8-0.4c1.1-0.1,2.2-0.2,3.2-0.4c0.9-0.1,1.7-0.2,2.6-0.4c6.5-1,12.4-3.1,15.1-9.8c1.2-3.2-0.5-6.1-1.5-9.1
		c-0.9-2.8-2-5.7-2.4-8.7c0-0.2-0.1-0.4-0.1-0.6c-0.1-0.3-0.1-0.7-0.2-0.9c0-0.3-0.1-0.6-0.1-1c0-0.1,0-0.1,0-0.2
		c0-0.5-0.1-0.9-0.1-1.4s0-1-0.1-1.5c0-0.5,0-1.1,0-1.6c0-0.1,0-0.2,0-0.4c1.1-17.8,8.2-35.3,24.9-44c1.8-0.9,3.7-1.7,5.6-2.3
		l0.7-0.2l0.4-0.1l0.4-0.1l1.1-0.3l0.7-0.2l0.4-0.1h0.2h0.1l0,0l0,0l-1.9,1.7c-0.4,0.3-0.8,0.6-1.1,1c-3,2.7-5.6,5.7-8,8.9
		c-2.3,3.2-4.3,6.7-5.9,10.4c-3.2,7.3-4.6,15.4-4,23.4c0.4,5.1,1.5,10.1,3.3,14.8c0.9,2.5,2.1,4.9,3.4,7.2c0.9,1.5,1.9,4.2,3.6,4.9
		c0.9,0.4,1.9,0.2,2.8,0.1c4.9-0.4,9.9,1.2,14.7,0.1c3.1-0.7,5.5-2.6,7.8-4.6c0.3-0.3,0.6-0.6,0.8-0.9c0.6-0.7,1.1-1.3,1.6-2
		c0.1-0.1,0.2-0.3,0.3-0.4c0-0.3,0-0.6,0-0.9l0,0c0-0.1,0-0.3,0-0.4v-0.1c0-0.2,0-0.4,0-0.6c0-0.1,0-0.2,0-0.3s0-0.2,0-0.3
		s0-0.3,0-0.4c0-0.1,0-0.2,0-0.3s0-0.3,0-0.4c0-0.1,0-0.1,0-0.2c0-0.2,0-0.3,0.1-0.5v-0.1c0-0.2,0.1-0.3,0.1-0.5c0-0.1,0-0.1,0-0.2
		c0-0.2,0.1-0.4,0.1-0.5l0,0c0-0.2,0.1-0.3,0.1-0.5v-0.1c0.1-0.2,0.1-0.4,0.2-0.5c0.7-1.9,1.7-3.6,2.7-5.3c0.2-0.8,0.4-1.6,0.5-2.5
		c0.1-0.7,0.3-1.4,0.4-2.1l0,0c0,0,0,0,0-0.1V678v0.1c0-0.2,0.1-0.4,0.1-0.6c0-0.1,0-0.2,0.1-0.3c0-0.1,0-0.2,0-0.3
		c0-0.4-0.1-0.8-0.2-1.2v-0.1c0-0.2-0.1-0.4-0.2-0.7c-0.1-0.4-0.2-0.7-0.3-1.1l0,0c0.6-1.3,1.3-2.5,2.2-3.7c0.8-1,1.6-2,2.6-2.8
		c0.5-0.4,1-0.8,1.5-1.2c0.3-0.2,0.5-0.3,0.8-0.5s0.6-0.3,0.9-0.4c3.6-1.7,7.4-1.7,11.1-0.7c0.1,0,0.9,0.2,0.9,0.2l-0.8-0.6
		l-1.4-1.1l-0.8-0.6c-0.5-0.4-1.1-0.8-1.6-1.1c-2.1-1.5-4.4-2.8-6.9-3.7c-1.2-0.4-2.5-0.8-3.8-0.9c-0.6-0.1-1.2-0.1-1.8-0.1
		c0.1-0.1,0.1-0.2,0.2-0.3c0.4-0.5,0.8-1,1.3-1.4c0.1-0.1,0.3-0.2,0.4-0.4l0,0c0.4-0.4,0.8-0.7,1.2-1.1l0.1-0.1v0.1
		c7.2-5.5,16.8-3.1,22.8,2.9c5,4.9,7.8,11.5,10.7,17.8c0.3,0.6,0.6,1.3,1.1,1.7c1.3,1.1,3.3,0.4,4.9,0.8l0,0
		C318,658,301.7,642.6,283.5,634.8z M276.2,631.2l0.1,0.1l0,0C276.3,631.3,276.2,631.3,276.2,631.2z"/>
	<path class="st3" d="M250.8,295.2l0.4,1c0.1,0.3,0.3,0.7,0.5,1l0.5,1l0.6,0.9l0.3,0.5l0.2,0.4c0.1,0.1,0.1,0.3,0.3,0.4l1.5,0.2
		c0.7,0.1,1.5,0.2,2.3,0.1s1.6-0.3,2.4-0.6c1.5-0.6,2.7-1.5,3.8-2.5c2.2-1.9,4.1-4,5.9-6.2s3.6-4.4,5.3-6.6l1.3-1.7
		c0.2-0.3,0.4-0.5,0.6-0.9l0.6-1c0.7-1.3,1.2-2.6,1.7-4c2-5.3,3.6-10.6,5.5-15.9c1.9-5.2,3.9-10.4,6.5-15.3
		c2.6-4.9,5.6-9.6,9.7-13.2c2-1.8,4.4-3.2,6.9-4.5c0.6-0.3,1.3-0.7,1.9-1.1c0.3-0.2,0.6-0.5,0.9-0.7l0.4-0.5l0.2-0.2l0.2-0.3
		l0.3-0.6c0.1-0.2,0.1-0.4,0.2-0.6c0-0.2,0.1-0.4,0.1-0.6v-0.6v-0.5l0.1-0.5l0.1-1c0.7-5.5,1.9-11,3.1-16.4
		c1.2-5.5,2.5-10.9,3.8-16.3c0.7-2.7,1.4-5.4,2.2-8.1c0.4-1.3,0.8-2.7,1.3-3.9l1.1-1.8c0.4-0.6,0.7-1.2,1-1.9
		c2.6-5,3.9-10.6,4.4-16.2c0.5-5.6,0.3-11.2,0.1-16.8l0,0l0,0c0-1.4,0.3-2.8,0.7-4.1c0.5-1.3,1-2.6,1.7-3.8c1.3-2.5,2.8-4.8,4.1-7.3
		c1.2-2.5,2.3-5.3,1.9-8.2c-0.4-2.8-0.9-5.5-1.5-8.3l-0.2-1c-0.1-0.4-0.2-0.8-0.4-1.1c-0.4-0.7-1.2-1.1-1.9-1.3
		c-0.8-0.1-1.6,0-2.3,0.5c-0.3,0.2-0.6,0.5-0.8,0.9c-0.2,0.3-0.4,0.7-0.5,1c-0.9,2.6-1.8,5.3-2.8,7.9c-2,5.2-4.1,10.4-6.6,15.3
		c-1.3,2.5-2.7,4.9-4.4,7c-0.9,1.1-1.8,1.9-2.9,2.8l-3.3,2.6c-4.3,3.5-8.7,7.2-12.3,11.7c-1.8,2.2-3.3,4.7-4.5,7.3l-0.3,0.7
		c-0.1,0.3-0.2,0.6-0.3,0.8c-0.2,0.5-0.3,1-0.5,1.6l-0.5,1.6l-0.2,0.8c0,0.1-0.1,0.2,0,0.2l0.2-0.1l0.3-0.2c0.9-0.6,1.8-1.1,2.9-1.8
		l2.4-1.6l7-4.6c1.2-0.7,2.4-1.6,3.5-2.2c0.5-0.3,1.1-0.5,1.5-0.5c0.3,0.1,0.4,0.1,0.7,0.7c0.9,2.4,1.1,5.2,0.9,7.8
		c-0.3,2.7-1.1,5.3-2,7.9c-1.9,5.2-4.4,10.3-5.9,15.8c-1.4,5.5-1.9,11.2-2.3,16.8c-0.1,2.8-0.4,5.6-0.3,8.5c0,1.4,0.2,2.9,0.5,4.4
		c0.1,0.3,0.2,0.9,0.2,0.8c0,0,0,0,0,0.1l-0.1,0.1l-1.4,1c-2.3,1.6-4.7,3.1-6.9,5c-1.1,0.9-2.2,2-3.1,3.1c-1,1.1-1.7,2.4-2.5,3.7
		c-1.4,2.6-2.2,5.4-2.8,8.2c-0.6,2.8-1,5.6-1.5,8.3s-1.1,5.4-2.1,7.9c-1,2.5-2.4,4.7-4.3,6.5l-1.5,1.2c-0.5,0.4-1,0.6-1.5,0.8
		c-1.1,0.4-2.3,0.4-3.3,0c-0.5-0.2-1-0.5-1.4-0.8s-0.7-0.7-0.9-1.2c-0.4-0.9-0.4-2.2-0.3-3.5l0.8-8.6l0.2-2.1l0.1-1
		c0-0.2,0-0.3,0-0.4V247l-0.2-1.2c0-0.2,0-0.4-0.1-0.6l-0.7,0.5l-1.2,0.9c-0.4,0.2-0.8,0.6-1.1,1l-0.3,0.3c-0.1,0.1-0.2,0.2-0.3,0.4
		l-0.5,0.8c-0.2,0.2-0.3,0.5-0.5,0.8l-0.3,0.8c-0.5,1.5-0.7,3-0.7,4.5c-0.1,1.5,0,2.9,0,4.3s0,2.8-0.1,4.1c-0.1,1.3-0.5,2.6-0.9,3.8
		c-0.5,1.2-1.1,2.4-1.8,3.5c-0.6,1-2,2.4-1.7,2.1l-6.7-6.6l-0.4-0.4c-0.1-0.1-0.3-0.4-0.3-0.1l-0.1,1l-0.2,2l-0.3,2.9l-0.4,4.2
		c-0.3,2.8-0.5,5.6-0.4,8.5s0.4,5.8,1.2,8.6C250.3,293.9,250.5,294.6,250.8,295.2z"/>
</g>
<g>
	<path class="st4" d="M441.9,672.9c-1.3-0.5-2.2-1.6-3-2.7c-0.5-0.7-1-1.3-1.4-2c-3.2-4.4-6.4-8.7-9.3-13.3
		c-3.7-6-6.4-12.2-7.9-18.9c-0.7-0.5-1.4-1-2.1-1.5c-1.1-0.7-2.2-1.2-3.3-1.6c-1.1-0.4-2.2-0.5-3.2-0.2c-1.9,0.5-2.9,3-3.4,5.4
		s-0.7,5-0.8,7.6l-0.1,1.9c0,0.6,0,1.2,0.1,1.8c0.1,1.3,0.3,2.5,0.5,3.8c0.8,5.1,1.8,10.3,2.6,15.4c0.5,3.2,0.9,6.5,1.2,9.8
		c0,0.1,0,0.2,0,0.2h7.2h30.9c-0.1,0-0.1-0.1-0.2-0.1C447.4,676.4,445,674.2,441.9,672.9z"/>
	<path class="st4" d="M487.8,674.8c-0.8-1.1-1.7-2.3-2.5-3.4c-1.8-2.2-3.7-4.1-6-5.4c-0.6-0.3-1.2-0.6-1.8-0.9l-0.2-0.1
		c-0.1,0,0,0,0,0l0,0c0,0-0.3,0.1-0.6,0.3c-0.5,0.3-1.1,0.8-1.9,1.2c-0.4,0.2-0.9,0.4-1.5,0.4c-0.6,0.1-1.2-0.1-1.7-0.4
		c-0.9-0.5-1.6-1.5-1.9-2.3s-0.4-1.6-0.5-2.2c-0.1-0.3-0.2-0.6-0.3-0.8c0-0.1-0.1-0.2-0.2-0.3l-0.1-0.1l-0.2-0.2
		c-0.5-0.6-0.9-1.3-1.3-1.9c-0.8-1.2-1.5-2.5-2.3-3.4c-0.8-1-1.7-1.7-2.6-1.5c-0.5,0-1,0.3-1.4,0.5c-0.4,0.3-0.8,0.7-1,1.2
		c-0.5,1-0.7,2.3-0.6,3.6c0,1.3,0.2,2.7,0.4,4.1c0.1,0.7,0.2,1.5,0.3,2.1l0.1,1l0.2,1c0.9,3.9,2.6,7.6,4.2,11.4h25.7
		c-0.1-0.1-0.1-0.2-0.2-0.3C489.3,677.1,488.6,675.9,487.8,674.8z"/>
	<path class="st4" d="M569.1,643.1c0.4-1.8,0.2-3.3-0.9-4.8c-0.8,2-1.7,3.9-2.7,5.8c-1.1,2.1-2.4,4.1-3.8,6l-2,2.9l-0.5,0.7
		c-0.1,0.2-0.3,0.4-0.4,0.7c-0.3,0.5-0.6,1-0.8,1.5c-1.1,2-2.2,4.1-3.4,6.1s-2.4,4.1-4,5.9c-0.9,1-1.9,2.1-3.5,2.7
		c-0.8,0.3-1.9,0.4-2.9-0.1c-0.9-0.5-1.5-1.4-1.8-2.1c-0.6-1.5-0.6-2.9-0.7-4.2c0-1.3,0-2.7,0-4s0-2.6-0.1-3.8
		c0-0.3-0.1-0.6-0.1-0.9v-0.1c0-0.1,0-0.1-0.1-0.2l-0.1,0.1l-0.8,1.1c-0.8,1.1-1.6,2.2-3,3.1c-0.4,0.2-0.7,0.4-1.1,0.5
		c-0.4,0.1-0.8,0.2-1.2,0.2c-0.8,0-1.5-0.1-2.2-0.2c-1.3-0.2-2.4-0.4-3.7-0.4c-0.6,0-1.2,0.1-1.8,0.2c-0.6,0.1-1.2,0.2-1.8,0.4
		l-1.7,0.6c-0.5,0.3-1.1,0.6-1.6,0.8c-2.1,1.2-3.8,3-5.3,5.1c-1.5,2-2.6,4.3-3.6,6.6c-0.8,1.7-1.5,3.5-2.1,5.4h36.4h22
		c-1.3-3.5-2-7.2-2.4-11.1C566.7,659.4,567.5,651.2,569.1,643.1z"/>
	<path class="st4" d="M617.7,433.8c-1.9-5-5.3-9.5-10.1-13.3c-1.5-1.2-2.9-2.3-4.3-3.4c-3.5-2.7-6.9-5.3-10.1-8.3
		c-0.8-0.7-1.9-1.7-3-2.7c-4.1-3.5-9.1-7.9-10.2-11.4l-0.4-1.2l1.3-0.1c0.5,0,1.1,0,1.6,0c7.6,0,16.7,3,23.4,7.5
		c-1.9-2.5-4.1-4.8-6.6-6.8c-3.9-3.1-7.1-6.9-10-11c-0.9-1.2-1.4-2.5-0.5-4c0.8-1.2,2.3-1.7,4.1-1.3c1.7,0.4,3.3,1.1,4.9,2
		c2.7,1.6,5.4,3.2,8.1,4.8c0.2,0.1,0.3,0.2,0.5,0.4c-0.1-0.5,0-1,0.2-1.6c-1.3-2.3-2.5-4.5-3.7-6.8c-2.2-4.2-4.9-8-8.1-11.6
		c-6.9-7.8-14.8-14.6-23.3-20.6c-2.9-2-6.1-3.5-9.4-4.8c-5.7-2.1-11.5-3.9-17.7-4.2c-1.4-0.1-2.9-0.4-4.1-1.1
		c-3.3-1.9-3.4-6.2-0.3-8.4c0.8-0.6,1.7-0.9,2.6-1.1c1.6-0.4,3.3-0.5,5-0.6c0.5,0,1.1,0.1,1.4-0.6c-3.7-1.2-7.4-2-11.2-1.9
		c-4.3,0.1-8.6,0.6-12.9,1.3c-1.4,0.3-2.8,0.7-4,1.6c-3.3,2.5-6.9,4.6-10.5,6.7c-2.1,1.3-3.9,2.8-5.4,4.7c-0.4,0.6-0.9,1.1-0.8,1.9
		c0.1,1.2-0.5,1.9-1.6,2.3c-1.2,0.4-2.1,0.3-3-0.7c-1.4-1.5-2.3-3.1-2.2-5.1c0.1-1.4,0.2-2.9,0.3-4.3c0.1-1,0.1-1.9-0.5-2.7
		c-1-1.5-1.2-3.3-1.3-5.1c0-0.8,0-1.7,0.1-2.5c-0.1-0.2-0.1-0.4,0-0.6c0.1-0.3,0.1-0.6,0.2-0.9c0.2-1.7,0.5-3.4,0.7-5.1
		c1-6.3,2.6-12.3,5.3-17.8c-0.6,0-1.3,0.2-1.9,0.5c-0.8,0.4-1.4,1.1-1.9,1.8c-2.8,3.7-5.4,7.5-8.4,11c-1.8,2.1-3.3,4.5-4.6,7
		c-1.1,2.1-1.2,2-2.9,0.5c-2.4-2.2-4.1-4.9-6.2-7.3c-2.8-3.3-6.1-5.6-10.2-6.5c4.3,6.9,5.5,14.8,5.9,23.2c0.4,1.2,0.7,2.4,1.1,3.6
		c0.5,1.4,0.1,2.5-1.1,3.4c-0.7,0.5-1.2,1-1.7,1.6c-0.8,1.1-2,1.6-3.3,1.7c-3,0.4-6.1,0.4-9-0.6c-4.6-1.4-9.3-2.3-14-3.3
		s-9.4-1-14.1-0.7c-0.4,0-0.7,0.1-1.1,0.1c0,0-0.1,0-0.1,0.1c-0.5,0.3-1,0.7-1.6,1.1l0,0c4,3.3,3.5,7.4-1.2,9.5
		c-1.3,0.6-2.4,1.3-3.4,2.2c-2.4,2-4.8,4-7,6.2c-3.1,2.9-6.4,5.6-10,7.8c-3.2,2-6.2,4.3-8.9,7c-2.3,2.3-4.5,4.8-6.7,7.2
		c-1.6,1.7-3.2,3.5-4.6,5.3c1.7-1,3.5-2,5.3-3c8.7-4.5,16.5-8.5,24.8-8.5c4.6,0,9.4,1.2,14.5,4.4l3.2,1.9l-3.7-0.1
		c-0.2,0-0.5,0-0.7,0c-12.6,0-28.8,8.2-36.6,18.6c-0.8,1-1.2,2.3-1.7,3.6c-0.5,1.4-1,2.9-2,4.1c-1.4,1.8-2.8,2.5-4.3,3
		c-0.6,1.3-1.2,2.6-1.8,3.9c0.4-0.1,0.8-0.2,1.1-0.2l1-0.2c3.2-0.7,6.3-1.4,9.3-1.4c4,0,7.8,1.3,11.2,5.4l1.6,1.9l-2.5-0.3
		c-1-0.1-2-0.2-3-0.2c-10,0-17.2,6.8-24.8,13.9l-1,1c-4.3,4-8.3,8.1-11.5,12.6c-0.1,1.5-0.2,3-0.3,4.5c-0.1,1.5-0.2,3.1,0,4.5
		c0.5,4.3,0.3,8.6-0.1,12.9c-0.5,5.8-1.3,11.6-1.5,17.5c0,1.1,0,2.2,0,3.4c0.5-0.8,0.7-1.7,0.9-2.5c1.2-5.2,3-10.1,5.4-14.9
		c1-1.9,2.1-3.8,3.7-5.3c1.2-1.2,2.7-1.8,4.4-1.2c1.6,0.6,2,2,2.2,3.4c0.3,1.9,0.1,3.8-0.1,5.7c-0.8,6.7-1.6,13.3-1.8,20.1
		c-0.2,7.8,1.4,15.3,4.2,22.5c0.8,2,1.9,3.9,3.3,5.6c1.9,2.3,3.8,4.6,5.7,6.8c0.3,0.4,0.6,1,1.3,0.8c0.4-0.6,0.1-1.3,0.1-1.9
		c-0.3-5-0.5-10.1-0.5-15.1c0-1.1-0.1-2.2-0.2-3.3c-0.2-1.7-0.2-3.3,0.1-5c0.8-4.6,2.6-8.9,4.2-13.3c1.9-5.4,5.5-9.3,11.1-11.1
		c1.8-0.6,3.5,0.6,2.9,2.4c-0.8,2.4-0.6,4.9-0.9,7.4c-0.8,5.7-1,11.5-0.9,17.2c0.1,5.4,0.5,10.9,2,16.1c0.1,0.5,0.1,1.1,0.9,1.5
		c0.2-3.1-0.1-6.2,1-9.1c0.8-1.9,1.1-4,1.9-5.9c0.9-2,1.9-3.9,3.4-5.5c1.1-1.2,2.3-1.5,3.4-0.9c1.2,0.5,1.9,1.8,1.6,3.4
		c-0.2,1-0.4,2-0.7,3c-1,4.3-1.6,8.5-0.7,13c1.3,6.3,2.4,12.6,4.9,18.5c2.2,5.3,5.2,10.1,7.4,15.3c0.5,1.1,1.3,2,2.5,2.6
		c0.6-1.7,0.8-3.2,0.8-4.8c0.1-2.3,0.1-4.6,0.3-6.9c0.1-1.2,0.2-2.3,0.3-3.5c-0.2-6.9,1.5-13.4,4.6-19.5c1.1-2.1,2.3-4.2,3.7-6.1
		c1.1-2.1,2.3-4.1,3.5-6.2c4.2-7.4,10.1-12.7,18.2-15.5c4.9-1.7,8.6-5.2,11.7-9.2c0.6-0.7,1.2-1.5,1.3-2.5c-0.2-0.4-0.5-0.4-0.8-0.5
		c-0.8-0.2-1.6-0.5-2.4-0.9c-0.9,0.2-1.7,0.4-2.6,0.6c-3.6,0.9-7.2,1.9-10.7,3.2c-3.5,1.3-6.9,2.8-10,4.6c-1.5,1-3,2-4.4,3.2
		c-1.3,1.2-2.6,2.5-3.7,4c-2.2,2.9-4,6.1-5.5,9.5c-0.8,1.7-1.4,3.4-2,5.2l-0.5,1.3c-0.1,0.4-0.3,0.9-0.4,1.3
		c-0.3,0.9-0.5,1.8-0.8,2.7c-0.6,1.8-1.3,3.7-2.8,5.4c-0.4,0.4-0.8,0.8-1.4,1.1c-0.3,0.2-0.6,0.3-0.9,0.4c-0.3,0.1-0.6,0.1-1,0.1
		c-1.3,0-2.4-0.5-3.3-1.3s-1.4-1.8-1.8-2.8s-0.5-2-0.7-3c-0.2-2-0.2-3.9-0.1-5.8c0-3.8,0.5-7.7,1.4-11.4c0.9-3.7,2.2-7.3,3.5-10.8
		l2.1-5.3c0.7-1.8,1.6-3.5,2.5-5.1c0.2-0.3,0.4-0.6,0.6-1c-0.2-0.4-0.5-0.8-0.7-1.2c-0.2-0.3-0.5-0.6-0.7-1l0,0
		c-0.1-0.1-0.2-0.3-0.4-0.4l-0.5-0.5l-0.6-0.5c-1.7-1.3-3.5-2.3-5.5-2.7c-0.2,0-0.5-0.1-0.8-0.1h-0.4h-0.3c-0.4,0-1,0.1-1.5,0.2
		c-1.1,0.2-2.2,0.5-3.4,0.6c-0.6,0.1-1.2,0.1-1.9,0.1c-0.7,0-1.4-0.1-2.2-0.5c-0.6-0.4-1.2-0.8-1.7-1.5s-0.6-1.6-0.6-2.2
		c0-0.7,0.1-1.3,0.2-1.8c0-0.3,0.1-0.5,0.1-0.8v-0.4v-0.3l0,0c0,0,0,0-0.1,0c-0.3,0-0.5,0-0.8,0.1c-4.2,0.4-8.3,2.2-12.1,4.4
		c-1.9,1.1-3.7,2.4-5.4,3.8c-0.9,0.7-1.7,1.4-2.5,2.2c-0.4,0.4-0.8,0.7-1.2,1.1l-1.2,1.3l-0.9,1l-0.5,0.5l-0.2,0.3l-0.1,0.1
		l-0.1-0.1l-1.1-1.1c-0.2-0.2-0.4-0.3-0.5-0.6l-0.4-0.5c-0.7-1.1-1-2.5-1.1-3.7c0-2.5,0.7-4.8,1.7-7c1.9-4.3,4.5-8,7.2-11.7
		c2.7-3.6,5.7-7.1,8.7-10.4l4.5-5c1.5-1.7,3.2-3.3,4.9-4.7c3.5-2.9,7.3-5.4,11.5-7.2c2.1-0.9,4.3-1.6,6.5-2c0.3-0.1,0.6-0.1,0.9-0.1
		c-3-0.3-6-0.6-9.1-0.9c-2-0.2-3.8,0.1-5.6,1c-0.9,0.5-1.9,0.9-2.9,1c-2.4,0.1-4.1-1.8-3.7-4.2c0.2-1.1,0.8-1.9,1.6-2.6
		c2.4-2,4.8-4,7.2-6c4.4-3.6,9.5-5.4,15.1-5.6c-0.1-0.1-0.1-0.2-0.2-0.3c-0.7-1.3-1.3-2.6-1.6-4c-0.4-1.4-0.6-2.8-1.1-3.6
		c-0.5-0.8-1.6-1.2-2.8-1.3c-0.6-0.1-1.3-0.1-1.9-0.1h-1c-0.2,0-0.3,0-0.4,0l-0.5,0.1c-1.3,0.2-2.7,0.5-4.2,0.5
		c-0.8,0-1.6,0-2.5-0.5c-0.2-0.1-0.5-0.3-0.7-0.5s-0.4-0.5-0.5-0.7c-0.1-0.3-0.2-0.6-0.2-0.8c0-0.2,0-0.5,0-0.7
		c0.1-1.2,0.9-1.9,1.4-2.4c0.6-0.5,1.3-0.9,1.9-1.3c2.6-1.4,5.3-2.2,8-2.7c2.7-0.6,5.5-0.9,8.2-1.2c1.4-0.1,2.7-0.2,4.1-0.3
		c0.4,0,0.6-0.1,1.1-0.1c0.4,0,0.8,0,1.1,0c0.7,0,1.4,0.1,2,0.1s1.3,0,1.8-0.1s1-0.3,1.1-0.5c0.1-0.1,0.1-0.2,0.2-0.4
		c0-0.2,0-0.3,0-0.5c-0.1-0.3-0.3-0.7-0.7-1.2c-0.8-0.9-1.9-1.7-2.9-3c-0.3-0.4-0.5-0.8-0.6-1.3c-0.1-0.4-0.2-0.8-0.2-1.2
		c-0.1-0.8-0.1-1.6,0-2.3c0.4-3,1.6-5.5,1.3-7.8c-0.1-1.1-0.6-2.2-1.3-3.2c-0.7-1-1.6-1.7-2.6-2.3c-2.2-1.1-4.9-1.2-7.6-1.6
		c-0.7-0.1-1.4-0.3-2.1-0.5c-0.4-0.1-0.7-0.3-1.1-0.4c-0.1,0-0.2-0.1-0.3-0.1l-0.3-0.2c-0.3-0.2-0.6-0.3-0.8-0.5l-1.5-1.1
		c0.4-0.5,0.8-0.9,1.2-1.4c0.2-0.2,0.4-0.5,0.6-0.6l0.5-0.4c0.3-0.3,0.6-0.4,0.9-0.6c2.6-1.6,5.5-2,8.3-2.3c2.8-0.2,5.6-0.1,8.3-0.1
		h1h1.1c0.7,0.1,1.4,0.1,2.1,0.2c1.4,0.2,2.7,0.4,4.1,0.6c2.3,0.3,4.7,0.7,7,0.8c1.1,0,2.3,0,3.4-0.1c0.3,0,0.5-0.1,0.8-0.2
		s0.5-0.1,0.8-0.2c0.2,0,0.4-0.2,0.5-0.3c-0.1-0.1-0.2-0.3-0.4-0.4c-0.4-0.4-0.7-0.7-1.1-1.1c-0.8-0.7-1.6-1.4-2.3-2.2
		c-0.4-0.4-0.7-0.7-1.3-1.5c-0.5-0.7-0.9-1.3-1.2-2l-0.1-0.3l-0.1-0.1c0,0-0.1-0.1,0-0.1h0.6l1.2-0.1l1.2-0.1c0.2,0,0.4,0,0.6,0
		l0.4,0.1c4.4,0.4,8.6,2.1,12.2,4.3c2,1.2,3.8,2.5,5.6,3.9c0.3-0.3,0.6-0.6,1-0.9c2.3-1.6,4.7-1.3,7-0.1c1.5,0.8,2.8,1.9,4,3.1
		c2.3,2.3,4.5,4.7,5.9,7.7c0.7-0.3,1-0.8,1.3-1.3c2.9-4.7,7.5-7.6,11.6-11c1.1-0.9,2.5-1,3.8-0.3c1.1,0.6,1.7,1.6,1.8,2.8
		c0.3-0.3,0.7-0.5,1-0.8c2.6-2.1,5-4.3,7.8-6.2c1.4-0.9,2.9-1.8,4.6-2.3c0.4-0.1,0.8-0.3,1.3-0.3c0.4-0.1,0.8-0.2,1.3-0.2
		c0.7-0.1,1.3-0.1,2,0h1h0.5l0.2,0.1c-0.4,0.6-1,1.3-1.3,1.9c-0.1,0.1-0.2,0.3-0.2,0.4l-0.1,0.2v0.1c-0.1,0.2-0.1,0.3-0.1,0.5
		l-0.1,0.5v0.3l-0.1,0.4c0.4,0,0.4,0,1.5-0.1l2.6-0.1c1.7-0.1,3.4-0.1,5.2-0.1c4.6,0.1,9.2,0.6,13.7,1.5c2.2,0.4,4.6,1,6.8,1.9
		s4.3,2.1,6.1,3.5c3.8,2.9,6.8,6.4,9.8,9.7l0.3,0.4c0.2,0.2,0.3,0.4,0.5,0.6l1,1.2l0.5,0.6l0.2,0.3c0,0,0,0,0,0.1h-0.1l-0.2,0.1
		c-0.5,0.2-1,0.4-1.5,0.5c-0.5,0.2-1,0.3-1.5,0.5c-0.2,0.1-0.6,0.1-0.7,0.1c-0.2,0-0.3,0.1-0.5,0.1c-0.6,0-1.2,0-1.9,0
		c-2.4-0.1-4.6-0.6-6.8-0.7c-0.8,0-1.6,0-2.4,0.1c-0.8,0.1-1.5,0.3-2.3,0.6c-1.5,0.6-3,1.3-4.4,2.3c-1.4,0.9-2.7,2-4,3.1
		c-0.6,0.6-1.3,1.2-1.9,1.8l-0.5,0.5l0.3,0.1c0.7,0.2,1.4,0.5,2,0.7c1.4,0.5,2.7,1.2,3.9,2c0.3,0.2,0.6,0.4,0.9,0.6l0.3,0.2
		c0.1,0.1,0.3,0.2,0.4,0.3l0.7,0.6c0.5,0.4,0.8,0.9,1.3,1.3l0.6,0.7c0.1,0.1,0.2,0.2,0.3,0.3l-0.4,0.1l-1.7,0.4
		c-0.3,0.1-0.5,0.1-0.9,0.2c-0.3,0-0.7,0.1-1,0.2l-1,0.3c-0.3,0.1-0.6,0.2-0.9,0.3c-2.5,0.9-4.8,2.4-6.8,4.2
		c-0.3,0.3-0.5,0.5-0.8,0.8c3.5,0.2,6.9,1,10.2,2.3c3.4,1.4,6.6,3.3,9.6,5.6c1.5,1.2,2.8,2.5,4,4c0.3,0.4,0.5,0.6,1.1,1.5l0.7,1.1
		l0.3,0.6c0.1,0.2,0.4,0.4,0,0.4c-0.8,0.3-1.6,0.5-2.5,0.8l-1.5,0.4c-1.7,0.4-3.4,0.9-4.9,1.6c-0.8,0.3-1.4,0.8-2,1.3l-0.1,0.1
		c2.1,0.8,4.2,1.9,6.2,3.1c0.1,0.1,0.3,0.2,0.4,0.3c0.9,0.9,1.4,1.9,1.1,3.2c-0.3,1.2-1.4,2-2.9,2.2c-0.6,0.1-1.2-0.3-1.8,0.1
		c0.2,0.6,0.8,0.9,1.2,1.2c2.7,0.9,5.3,2,7.8,3c1.7,0.7,3.5,1.5,5.1,2.4c1.6,1,3.2,2,4.7,3.3c5.9,4.8,9.9,11.7,11.6,19.1l0.5,2.5
		l0.2,1.3v0.2h-0.1l-0.3-0.1l-0.6-0.2c-0.8-0.2-1.6-0.4-2.5-0.7l-0.4-0.1l-0.3-0.1l-0.7-0.2c-1.8-0.7-3.5-1.5-5.1-2.2
		c-1.7-0.7-3.3-1.4-5-1.8s-3.4-0.6-5.2-0.6s-3.6,0.2-5.1,0.6c-0.7,0.3-1.4,0.6-1.6,1.1c-0.3,0.4-0.4,1-0.2,1.7
		c0.3,1.5,1.2,3,2.2,4.5c1,1.6,2,3.1,2.9,4.7c1.9,3.2,3.7,6.5,5.1,10c1.4,3.5,2.4,7.2,2.9,11c0.1,0.5,0.1,0.9,0.1,1.4l0.1,0.7
		c0,0.1,0,0.2,0,0.4v0.6c0,1.6,0,3.1-0.1,4.8L587,486c0,0.4-0.2,0-0.3-0.2l-0.4-0.5l-0.7-1l-1.4-2c-0.5-0.7-0.9-1.4-1.4-2.2
		l-1.5-2.5c-0.5-0.8-0.9-1.6-1.4-2.3c-1-1.5-2-3-3.2-4.2c-0.2-0.2-0.4-0.4-0.6-0.6c0,0.3,0,0.6-0.1,0.9c-0.3,3.6-1.3,7.2-2.2,10.6
		l-1.4,5.1c-0.2,0.9-0.4,1.7-0.6,2.5l-0.1,0.6L571,490c0,0.1,0,0.2-0.1,0.4l-0.5,2.6l-0.8,6l-1.6-3.8l-0.8-1.9l-0.7-2.1l-0.2-0.5
		l-0.1-0.4l-0.2-0.6c-0.1-0.4-0.2-0.8-0.3-1.1l-0.6-2.3c-0.8-3-1.5-6-2.6-8.8c-0.8-2.2-1.9-4.2-3.3-6.1c0.3,0.7,0.5,1.4,0.8,2.2
		c0.2,0.4,0.3,0.9,0.4,1.4c0.1,0.5,0.2,1,0.2,1.4c0.2,1.9,0.4,3.7,0.5,5.6c0.1,3.2-0.1,6.4-0.7,9.5c-0.1,0.8-0.3,1.6-0.5,2.3
		l-0.3,1.2l-0.1,0.3v0.1l-0.1,0.2l-0.3,0.9c-0.4,1.2-0.9,2.3-1.3,3.4l-0.7,1.7l-0.2,0.4c0,0.1-0.1,0.1-0.1,0.2l-0.2,0.3
		c-0.2-1.8-0.4-3.6-0.6-4.9c-0.2-0.6-0.3-1.2-0.5-1.8c-0.1-0.3-0.2-0.7-0.3-1c-0.5-1.3-1.1-2.6-1.7-3.9c-1.3-2.5-2.9-4.9-4.8-7
		c-1.9-2.1-4-4-6.6-5.1c-1.3-0.5-2.6-0.8-4-0.6c-1.3,0.2-2.6,0.8-3.6,1.7c-0.3,0.2-0.5,0.4-0.8,0.7c-0.2,0.3-0.5,0.5-0.7,0.8
		c-0.4,0.5-0.7,1.1-1,1.8c-0.3,0.7-0.5,1.4-0.8,2.1s-1,1.4-1.8,1.6c-0.8,0.3-1.5,0.3-2.3,0.2c-0.8-0.1-1.6-0.4-2.2-0.8
		c-1.3-0.9-2-2.2-2.8-3.5c-1.4-2.6-3.4-4.6-5.5-6.5c-0.6-0.5-1.2-1-1.8-1.4c-0.9,0.5-1.9,1-2.9,1.4c-0.6,0.2-0.8,0.6-0.6,1.3
		c1.2,3.3,2.6,6.5,5.7,8.7c2.5,1.8,5,3.7,7.6,5.5c2.7,2,5.7,3.6,8.8,4.9c2,0.9,2.1,0.9,2.5-1.2c0.3-1.6,1.1-2.8,2-4
		c1.1-1.4,2.4-1.4,3.7-0.2c0.8,0.7,1.2,1.7,1.5,2.7c0.4,1.5,0.8,2.9,1.2,4.4c0.8,3.3,2.4,6,4.8,8.4c7.3,7.3,14.1,15.1,19.2,24.2
		c0.1,0.1,0.3,0.1,0.5,0.3c1.5-1.9,3.2-3.6,5.3-5c0.4-0.3,0.7-0.8,1-1.3c1.3-2.5,2.6-5,3.2-7.7c2.1-9.9,2.6-19.6-1.4-29.2
		c-0.8-2-1.3-4-1.5-6.2c0.6,0.1,0.9,0.7,1.5,0.4c1.9-0.9,3.2,0.2,4.3,1.6c0.6,0.8,1.1,1.6,1.6,2.4c2.8,4.5,4.5,9.5,6.1,14.6
		c0.6,2.1,1.1,4.2,1.9,6.2c1.5,3.8,3,7.6,3.9,11.6c0.4,1.9,1.6,3.1,3.4,3.7c1.8,0.5,2.9,0,3.8-1.6c1.1-1.9,1.7-3.9,1.9-6.1
		c0.2-3.1-0.2-6.1-1.3-9c-0.3-0.8-0.6-1.7-0.7-2.5c-0.2-1.4,0.2-2.5,1.5-3.3c1.2-0.7,2.4-0.6,3.6,0.1c1,0.6,1.7,1.4,2.4,2.3
		c1.4,2,2.7,3.9,4.1,5.9c0.4,0.6,0.7,1.4,1.7,1.6c0.3-0.7,0.2-1.4,0.2-2c-0.2-2.2-0.2-4.4,0-6.7c0.2-2.6-0.3-5.2-1.6-7.4
		c-3-5-5.8-10.1-8.5-15.3c-1.3-2.5-3-4.7-5.3-6.4c-2.2-1.7-4.4-3.5-6.6-5.2c-2.7-2.1-5.1-4.4-7.5-6.8c-1.2-1.3-1.7-2.8-1.1-4.4
		c0.5-1.6,2-2.2,3.6-2.4c1.8-0.3,3.5,0,5.2,0.4c4.9,1.3,9.5,3.4,13.8,6.1c0.6,0.4,1.2,1.1,2.3,1c-1.1-3.2-0.8-6.5-1.7-9.7
		c-1-3.6-2.1-7.2-2.4-11c-0.1-1.4-0.1-2.9,0.2-4.3c0.2-1,0.7-1.9,1.5-2.7c1.4-1.4,4.3-1.5,5.4,0.6c1.4,2.4,3.2,4.5,5,6.6
		c0.8-0.7,0.6-1.4,0.6-2C617.8,436.6,617.7,435.2,617.7,433.8z"/>
	<path class="st4" d="M571.5,557.5c-1.8,2.2-3.9,3.7-6.9,2.9c-2.9-0.7-3.9-3.1-4.3-5.8c-0.1-0.6-0.2-1.3-0.3-2
		c-0.1,0.2-0.2,0.3-0.3,0.5c-0.6,1.1-1.2,2.1-1.9,3.1c-0.7,1.1-1.5,2.2-2.3,3.2v0.1c0.2,2.6,0.1,5.1,0,7.6c-0.2,2.5-0.5,4.9-0.9,7.4
		c-0.8,5-2.2,9.9-4.5,14.5c-1.2,2.3-2.7,4.5-4.6,6.3c-0.3,0.2-0.5,0.4-0.8,0.6c-0.2,0.1-0.7,0.6-1.2,0.8l-1.5,0.9l-0.4,0.2l-0.2,0.1
		l-0.1,0.1h-0.1l-0.2-0.8c-0.1-0.6-0.3-1-0.4-1.7l-0.1-0.9V594c0-0.7,0-1.3,0-2c0.1-1.7,0.3-3.3,0.1-4.7c-0.1-0.6-0.3-1.5-0.6-2.2
		c-0.2-0.7-0.6-1.4-0.9-1.7c-0.1-0.1-0.2-0.1-0.3-0.2c-0.1,0-0.4,0-0.7,0.2c-0.6,0.3-1.2,0.8-1.8,1.2l-1.9,1.5l-1,0.8
		c-0.1,0.1-0.4,0.3-0.6,0.4l-0.2,0.1l-0.3,0.1l-0.5,0.3l-0.5,0.1c-0.2,0-0.4,0-0.5,0c-0.4-0.1-0.7-0.2-0.9-0.5
		c-0.3-0.2-0.4-0.6-0.6-0.9l-0.2-0.5c-0.1-0.2-0.1-0.4-0.1-0.4c-0.2-0.9-0.3-1.7-0.5-2.5c-0.4-1.7-0.6-3.4-0.9-4.9
		c-0.4-1.5-1-2.9-1.9-3.4c-0.5-0.3-1-0.4-1.8-0.3c-0.7,0-1.3,0.2-1.9,0.6c-1.2,0.7-2.1,1.9-2.8,3.2c-0.7,1.4-1.2,2.9-1.7,4.4
		c-0.4,1.6-0.8,3.2-1.2,4.8c-0.2,0.8-0.4,1.6-0.7,2.5c-0.3,0.8-0.5,1.6-0.8,2.4c-1.2,3.2-2.7,6.2-4.5,9.1c-0.9,1.4-1.9,2.9-3.1,4.2
		l-0.9,0.9l-1,0.9l-1.8,1.2c-0.6,0.3-1.3,0.7-1.9,1v-2.3c0-0.7,0-1.7-0.1-1.9c-0.1-0.8-0.1-1.6-0.2-2.3c-0.2-1.5-0.5-3.1-1-4.5
		c-0.2-0.7-0.5-1.4-0.9-2.1c-0.1-0.2-0.2-0.3-0.3-0.5c0-0.1,0-0.1-0.1-0.1c0-0.1-0.1-0.1-0.1-0.2l-0.1,0.1c0,0,0,0.1-0.1,0.1v0.1
		l-0.1,0.2c-0.3,0.7-0.4,1.4-0.6,2.1c-0.5,3-0.4,6.3-0.5,9.5c-0.1,1.6-0.2,3.3-0.5,4.9c-0.3,1.7-0.8,3.4-1.8,4.9
		c-0.2,0.3-0.4,0.5-0.7,0.9c-0.4,0.4-0.8,0.7-1.2,1c-0.2,0.2-0.4,0.3-0.6,0.5l-0.3,0.2c-0.1,0.1-0.2,0.2-0.3,0l-0.6-1.3l-0.6-1.3
		l-0.2-0.3l-0.1-0.2l-0.2-0.4l-0.7-1.7c-1-2.3-2-4.5-3-6.8c-2.1-4.4-4.4-8.7-7.4-12.6l-1.1-1.4l-1.2-1.4c-0.8-0.9-1.7-1.7-2.6-2.7
		c-0.9-0.9-1.7-2-2.4-3c-0.7-1.1-1.3-2.1-1.9-3.2c-0.3-0.5-0.7-1.1-1-1.6s-0.6-1-1-1.5c-0.7-0.9-1.5-1.4-2.6-1.1
		c-1.1,0.2-1.8,0.9-2.2,1.9c-0.4,1-0.6,2.2-0.7,3.4c-0.2,2.4,0.1,4.9,0.1,7.3v1c0,0.4,0,0.9-0.1,1.3l-0.1,0.6c0,0.2,0,0.6-0.2,0.3
		l-1.2-0.5c-0.4-0.1-0.8-0.4-1.1-0.6c-0.3-0.2-0.6-0.3-0.8-0.5c-0.5-0.4-1.1-0.7-1.5-1.1c-3.9-3.1-7.1-7-9.8-11.2
		c-1.4-2.1-2.6-4.3-3.5-6.6c-0.7-1.7-1.2-3.4-1.7-5.2c-0.6,1-1.3,1.2-2.5,0.6c-4.6-2.5-9.7-4.2-14.1-7.1c-2-1.3-4.1-2.1-6.4-2.6
		c-2.2-0.6-4.5-1.2-6.7-1.8c-0.6-0.2-1.2-0.5-1.9-0.2c-0.1,0.8-0.1,1.6-0.4,2.3c-0.6,1.2-0.5,2.5-0.3,3.7c0.7,3.9,1.3,7.9,2.3,11.8
		c2.4,9.2,7.2,16.8,14.7,22.8c0.6,0.5,1.2,1.2,2.3,1.2c-0.1-0.9-0.1-1.7-0.1-2.5c-0.2-3.8,0.1-7.5,1-11.2c0.4-1.7,0.9-3.4,1.9-4.9
		c0.9-1.3,2-2.3,3.8-2c1.6,0.3,2.4,1.4,2.9,2.9c0.6,1.7,0.7,3.4,0.9,5.2c0.4,5,1.9,9.7,3.9,14.3c0.3,0.7,0.6,1.5,1.3,2
		c3.8,2.5,7.5,5.3,12,6.4c3,0.8,5.9,1.9,8.8,3.2c1.7,0.7,3.3,1.6,5,2c0.6-0.7,0.6-1.6,0.7-2.3c0.5-2.1,1.5-4.1,3.1-5.6
		c1.7-1.5,3.6-1.7,5.5-0.4c0.9,0.6,1.6,1.5,2.3,2.4c1.3,1.8,2.2,3.7,3.1,5.7c1.3,2.9,2.6,5.9,4.4,8.5c2.1,3.1,3.8,6.5,5.2,10
		c0.8,2,1.7,4,2.8,5.9c0.7,1.2,1.4,2.3,2.4,3.3c1.1,1.2,1.3,1.2,2-0.3c1.1-2.5,1.9-5.1,2.5-7.7c0.6-2.6,1.2-5.3,1.9-7.9
		c0.5-1.8,1.2-3.5,2.3-5c1.4-1.7,3.2-1.8,4.8-0.3c0.5,0.4,0.6,1.2,1.3,1.3c2.7-3.3,5.4-6.5,7-10.5c0.5-1.2,1.2-2.2,1.9-3.3
		c0.9-1.5,1.9-2.9,3.3-4.1c2.3-2.1,5-2.1,7.3,0.1c1.2,1.1,1.9,2.5,2.4,4.1c0.8,2.6,0.8,5.4,0.7,8.1c0,0.8-0.4,1.7,0.1,2.7
		c1.3-0.3,2.2-1.2,3.2-2c7.2-6.2,11.5-14.5,15.6-22.8c0.1-0.3,0.2-0.6,0.3-0.9c2.3-7.2,5.1-14.1,7.3-21.3c0.6-2.1,1.4-2.8,2.6-2.6
		c1.3,0.2,1.8,1.1,1.8,3.4c0.1,3.8-0.2,7.7-0.4,11.5c0,0.8-0.2,1.7,0.2,2.5c0.3-0.1,0.5-0.1,0.6-0.2c4.9-6,7.7-12.9,8-20.6
		c0.2-5.1-1.1-10-2.1-15.5C573.7,554.6,572.7,556.1,571.5,557.5z"/>
	<path class="st4" d="M464.5,224.5L464.5,224.5c-0.4,0-1.4-1.1-2-1.7c-1.4-1.5-3.2-3.4-5.6-3.4c-0.3,0-0.5,0-0.8,0.1l-0.9,0.1v0.9
		c0,1.1,0.3,2.1,0.5,3.1c0.3,1.2,0.6,2.4,0.4,3.6l2.1,3c0.7,1,1.5,1.9,2.3,2.7c0.9,0.8,1.9,1.5,3,1.7l0.4,0.1h0.4
		c0.3,0,0.6,0.1,0.9,0l0.9-0.1c0.3-0.1,0.6-0.1,0.8-0.2c0.5-0.2,0.8-0.5,1-1s0.3-1.1,0.5-1.7c0.2-0.6,0.6-1.3,1.1-1.7
		s1.2-0.8,1.9-0.9c1.4-0.2,2.7,0.4,3.8,1c2.2,1.3,4.1,3,6.3,4c1.1,0.5,2.2,0.8,3.2,0.6c1.1-0.2,2-0.8,2.8-1.6
		c0.2-0.2,0.4-0.4,0.6-0.6c0.2-0.2,0.3-0.4,0.4-0.7c0.3-0.5,0.5-1,0.7-1.6c0.4-1.1,0.8-2.3,1.3-3.6c0.3-0.6,0.6-1.2,1-1.8
		s1.1-1.2,2-1.4c1-0.2,1.8,0.2,2.4,0.5c0.6,0.4,1.2,0.8,1.7,1.4c1.5,1.8,2.1,3.8,2.7,5.7c0.3,1,0.5,2,0.7,3l0.3,1.5v0.1h0.1
		c0.1,0,0.1-0.1,0.1-0.2v-0.1l0.1-0.3c0.1-0.4,0.3-0.8,0.5-1.2c0.4-0.8,0.8-1.7,1.8-2.4c0.5-0.3,1-0.5,1.5-0.7
		c0.3,0,0.5-0.1,0.8-0.1s0.6,0,0.8,0.1c1.1,0.2,2,0.9,2.7,1.6c0.7,0.7,1.2,1.4,1.7,2c0.5,0.7,1,1.3,1.5,1.9c0.5,0.6,1,0.9,1.7,1.3
		c1.3,0.8,2.8,1.4,4.2,1.6c1.5,0.3,3,0.2,4.5-0.2c1.3-0.3,2.5-0.8,3.8-1.4c0.4-0.5,0.9-1,1.3-1.4c0.7-0.8,1.5-1.7,2.1-2.6l0.3-0.5
		c0.1-0.2,0.3-0.4,0.4-0.6c0.2-0.4,0.5-0.8,0.7-1.2l0.6-1.2c0.2-0.4,0.4-0.9,0.5-1.2l-3.4,0.7l-2.4,0.5c-1.2,0.2-2.4,0.4-3.6,0.6
		c-1.2,0.2-2.4,0.3-3.6,0.4c-0.6,0-1.2,0.1-1.7,0.1c-0.3,0-0.5,0-0.8-0.1h-0.1l0,0l0,0l-0.2-0.2c-0.1-0.1-0.1-0.2-0.2-0.3
		c-0.1-0.2-0.2-0.4-0.2-0.6c-0.1-0.2,0-0.3,0-0.6l0.1-0.5c0-0.1,0-0.2,0-0.4s0-0.3,0-0.4c0-0.3-0.2-0.6-0.4-0.8s-0.4-0.5-0.6-0.6
		l-0.3-0.2l-0.3-0.1c-0.2-0.1-0.3-0.2-0.5-0.3c-0.7-0.3-1.2-0.5-1.9-0.7c-1.4-0.4-2.7-0.5-4-0.6c-0.6,0-1.3,0-1.9-0.1h-0.6l0,0v-0.2
		c0-0.5,0.1-1,0.1-1.4c0.1-1,0.2-2,0.4-3c0.1-1,0.3-2,0.3-3.1v-0.4c0-0.1,0-0.2,0-0.5c0-0.5,0-0.9,0-1.4v-0.7c0-0.1-0.1-0.1-0.1-0.1
		h-0.2l-0.4-0.1c-0.5-0.1-1-0.2-1.5-0.2c-2.4-0.1-4.4,1-5.8,2.3c-0.4,0.3-0.7,0.7-1,1l-0.7,0.8c0,0,0,0.1-0.1,0.1v-0.1l0,0v-0.7
		v-3.6v-3.6v-2.1l-0.1-1.7c0-0.1,0-0.3,0-0.4l-0.4,0.1l-0.8,0.1l-0.8,0.1c-0.2,0-0.6,0.1-0.8,0.2c-0.3,0.1-0.6,0.1-0.9,0.3
		c-0.6,0.2-1.2,0.4-1.8,0.7c-1.2,0.6-2.3,1.3-3.2,2.2c-0.9,0.9-1.8,2-2.3,3.2c-0.6,1.2-0.9,2.6-1,3.8c-0.1,2.4-0.1,4.8-0.5,6.9
		c-0.2,1.1-0.6,2.1-1.1,2.8c-0.2,0.2-0.3,0.4-0.5,0.5s-0.3,0.3-0.5,0.3l-0.3,0.1h-0.3h-0.3c-0.1,0-0.2,0-0.3,0
		c-0.6,0-1.2-0.9-1.7-1.8c-0.2-0.5-0.4-1-0.5-1.5c0-0.1-0.1-0.2-0.1-0.3c-0.1-0.3-0.1-0.5-0.2-0.8c-0.1-0.5-0.2-1-0.4-1.4
		c-0.4-1.6-0.8-3.2-1.3-4.1c-0.7-1.1-1.6-2.2-2.7-3.3c-1.7-1.9-3.5-3.9-3.5-6v-2.1l-1.6,1.3c-4.2,3.2-3.8,6.3-3.4,9.4
		c0.2,1.8,0.5,3.6-0.2,5.6C465.1,224.3,464.5,224.5,464.5,224.5z"/>
	<path class="st4" d="M654.9,166.7c-0.2-0.4-0.3-0.8-0.5-1.2c-0.1-0.2-0.2-0.4-0.4-0.6l-0.5-0.6c-0.2-0.3-0.4-0.5-0.6-0.7l-0.6-0.6
		c-0.4-0.4-0.8-0.7-1.2-1.1c-2.5-1.9-5.2-3.2-8-4.3c-1.4-0.5-2.9-1-4.4-1.3c-0.2,0-0.4-0.1-0.6-0.1c-0.2,0-0.4-0.1-0.6-0.1h-0.1
		c-0.1,0-0.2,0-0.3,0c-0.9-0.1-1.8-0.2-2.7-0.2c-3.5-0.3-6.8-0.6-9.9-1.5c-0.5-0.4-1.1-0.7-1.7-1c-1.1-0.6-2.3-1.2-3.4-1.8
		c-2.5-1.3-4.9-2.8-7-4.6c-1.9-1.6-3.4-3.4-4.4-5.6c-0.7-1.5-1-3-0.5-4.7c0.8-2.5,3.1-3.6,5.5-2.6c0.4,0.2,0.8,0.5,1.3,0.7
		c0.8,0.5,1.7,0.9,2.5,1.3c-1-1.3-2.1-2.6-3.2-3.9c-0.8-0.9-1.6-1.7-2.4-2.5c-0.2,0-0.4-0.1-0.5-0.1c-1-0.2-1.7-0.6-2.3-1.5
		c-0.6-0.9-1.2-1.8-1.8-2.6c-0.7-0.6-1.4-1.1-2.1-1.6c-3.2-2.4-6.7-4.3-10.2-6.1c-1.7-0.5-3.5-0.8-5.4-1c-3.3-0.4-6.7-0.6-10-1
		c-5.3-0.6-10.4,0.4-15.3,2.3c-5,1.9-9.9,4.2-14,7.7c-2.4,2-5.2,2.5-8.1,1.1c-2.9-1.4-4-4-4-7.1c0-1.6,0.4-3.2,0.6-5.3
		c-3,1.2-5.4,2.6-7.6,4.4c-3.6,2.9-6.6,6.5-9.4,10.2c-1.3,1.7-2.4,3.6-3.9,5.1c-0.7-0.4-0.9-1-1.2-1.6c-1.6-2.9-3-6-4.5-9
		c-0.1-0.2-0.2-0.5-0.3-0.7c-1.1,1.3-2.1,2.7-3.1,4c-1.5,2-2,2.1-3.7,0.3c-0.6-0.6-1.2-1.3-1.8-1.9c0.1,1.4,0.3,2.8,0.5,4.2
		c0.2,1.1,0.1,2.2-0.5,3.2c-1.7,3.2-4.5,5.4-7.5,7.3c-1.1,0.7-1.8,0.3-1.8-1.1c0-0.4,0-0.8,0.2-1.2c0.7-1.3,0.3-2.5-0.2-3.7
		c-1-2.6-2.6-4.8-4.5-6.7c-4.2-4.2-8.8-7.9-14.1-10.7c-9.6-5-19.8-8.2-30.5-9.5c-5.4-0.7-10.6-0.4-15.6,0.8
		c-1.8-0.2-3.6-0.3-5.2-0.3c-2,0-3.8,0.1-5.3,0.3c-0.1,0-0.9,0.1-2,0.3c-2.4,0.3-4.8,0.8-7.2,1.4c-3.3,0.9-6.6,2-9.7,3.8
		c-0.8,0.5-1.5,1.1-2.1,1.7c-0.1,0.1-0.2,0.2-0.3,0.4l-0.4,0.5c-0.3,0.3-0.5,0.6-0.6,0.9l-0.3,0.5l-0.2,0.4
		c-0.1,0.3-0.2,0.6-0.3,0.9l-0.3,0.9l-0.2,0.5c0.1,0,0.2,0,0.3,0l-0.1,0.3l1.7-0.5c0.2,0,0.3-0.1,0.5-0.1h0.1
		c0.7-0.1,1.2-0.2,2.1-0.4l1.3-0.3c2.5-0.5,5-0.8,7.5-0.8c0.8,0,1.5,0,2.3,0.1c-1.8,2.2-3.4,4.6-4.9,7c0.8,0.5,1.6,0.6,2.3,0.8
		c1.9,0.6,3.8,1.2,5.5,2.3c1.7,1.2,3,2.8,2.5,5.1s-2.2,3.2-4.3,3.6c-1.7,0.3-3.5,0.4-5.3,0.3c-2.2-0.2-4.3,0-6.4,0.4
		c-6.5-3.8-17.4-5.8-25.2-5.8c-1.8,0-3.5,0.1-4.9,0.3c-10.8,1.6-21.3,9.8-26.9,17.2l-1.4,1.8c-0.3,0.3-0.6,0.7-0.7,0.9l-0.1,0.2
		l3.4-1.4c2.7-1.1,5.2-2,7.6-2.5c0.2,0,0.3-0.1,0.5-0.1s0.3-0.1,0.5-0.1c1.4-0.3,2.8-0.5,4.2-0.6c0.8-0.1,1.7-0.1,2.5-0.1
		c-0.1,0-0.2,0.1-0.4,0.1c-3.3,1.5-6.1,3.7-8.7,6c-2.6,2.4-4.9,4.9-7,7.6c-2.2,2.7-4.2,5.5-6,8.4c-3,4.8-5.2,10.1-6.6,15.6
		c-0.7,2.7-1.2,5.5-1.4,8.4c-0.1,0.7-0.1,1.4-0.1,2.1c0,0.6-0.1,1.3-0.2,2s-0.1,1.4,0,2.2s0.1,1.6,0.7,2.5c0.2,0.4,0.7,0.8,1.1,1.1
		c0.4,0.2,0.8,0.4,1.3,0.5s1.2,0,1.8-0.3c0.5-0.3,0.9-0.8,1.1-1.2c0.4-0.8,0.5-1.6,0.6-2.4c0.1-0.7,0.1-1.5,0.1-2.2s0-1.4,0.1-2
		c0.1-0.7,0.2-1.3,0.3-2c0.3-1.3,0.7-2.6,1.1-3.8c0.9-2.5,2.1-4.8,3.5-7c0.1-0.1,0.1-0.2,0.2-0.3c0.3-0.4,0.5-0.8,0.8-1.2
		c0.2-0.3,0.5-0.6,0.7-0.9c0.1-0.2,0.2-0.3,0.4-0.5c0.5-0.6,1-1.2,1.5-1.8c3.7-3.9,8.9-7.2,14.4-9.3c-4.2,4.4-7.5,9.5-9.6,15.3
		c-1.3,3.6-2.4,7.3-3.2,11c0.9-2.3,2-4.5,3.1-6.7c3.3-6.1,7.3-11.8,12.1-16.9c2.4-2.5,4.9-4.9,8.1-6.7c0.4-0.2,0.8-0.4,1.2-0.6
		c0.5-0.2,0.7-0.3,1.6-0.5l1.1-0.2c0.3,0,0.7,0,1,0c0.6,0,1.2,0.1,1.9,0.2c0.3,0,0.1,0.2,0,0.3l-0.3,0.4l-0.5,0.8l-1.1,1.7l-1.5,2.3
		c-3.6,5.4-6.4,11.4-8.2,17.6c0.6-0.8,1.1-1.5,1.7-2.3c2.3-3.3,5.2-6,8.5-8.3c1-1.9,2.2-3.6,3.8-5.2c1-1,2.1-1.8,3.3-2.5
		c1.2-0.7,2.4-1.3,3.7-1.8c2.5-1,5.1-1.6,7.7-1.9c1.4-0.2,2.8-0.3,4.2-0.3c0.3-0.3,0.7-0.7,1-1c1.1-1,2.2-2.1,3.4-3.1
		c2.3-2,4.7-3.9,7.3-5.5c2.6-1.6,5.4-2.9,8.5-3.5c0.7-0.1,1.5-0.2,2.3-0.3c1.3-0.4,2.6-0.6,4-0.7c3.1-0.2,6.2,0,9.3,0.4
		c1.3,0.2,2.7,0.4,4,0.9c2.8,1.2,5,2.9,6.4,6.4c-2-1.2-3.5-1.9-5.2-2.2c-1.8-0.3-3.6-0.7-5.4-1.1c-3.2-0.7-6.2-0.3-8.8,2
		c-1.6,1.4-3.2,2.7-4.7,4.1c-2.3,2.1-3.9,4.7-5,7.5c-0.9,2.4-1.3,4.9-0.8,7.5c0.3,1.3,1,2.2,2.3,2.5l0,0c1-0.6,2.1-1.1,3.2-1.5
		c0.1-0.2,0.3-0.4,0.4-0.6c1.8-2.8,4.3-4.7,7.4-5.8c1.5-0.5,3.1-0.8,4.6-1.2c1.2-0.3,2.4-0.4,3.5-0.4c1.1-1.7,2.2-3.4,3.7-4.9
		c1.2-1.2,2.5-2.1,3.9-2.9c1.4-0.8,2.8-1.4,4.1-2c1.3-0.6,2.5-1.3,3.6-2.2s2.1-1.9,3.1-3s2.1-2.2,3.4-3.2c0.6-0.5,1.3-0.9,2-1.3
		c0.7-0.4,1.4-0.7,2.1-1c2.9-1.2,6-1.9,9.1-2c3.1-0.2,6.2,0.2,9.2,0.9c0.1,0,0.2,0,0.3,0.1c5.4,0.2,10.3,1.7,14.8,5.1l-0.1-0.1
		c-0.1-0.2-0.1-0.4-0.1-0.6l0,0l0,0c2.5,0.5,4.9,1,7.3,1.9c1.2,0.5,2.3,1,3.4,1.7s2.1,1.5,2.9,2.5c0.8,1.1,1.3,2.3,1.8,3.4
		c0.6,1.1,1.2,2.1,2.2,2.6c2.1,1.1,4.7,1.2,7.2,2.4c0.6,0.3,1.2,0.7,1.8,1.2c0.5,0.5,1,1,1.4,1.5c0.9,1,1.6,2.2,2.3,3.3
		c1.4,2.3,2.5,4.6,4.1,6.6c0.1,0.2,0.1,0.2,0.2,0.2l0.1,0.1c0.1,0.1,0.2,0.2,0.2,0.2s0,0,0.1,0l0.1-0.1l0.1-0.1
		c0.1-0.1,0.1-0.2,0.1-0.3s0-0.1,0-0.2v-0.1c0-0.1,0-0.1,0-0.2c0-0.3,0-0.6,0-0.9c0-0.7-0.1-1.5,0.3-2.3c0.6-1.4,1.6-2.4,2.6-3.4
		c1-0.9,2-1.8,2.9-2.7c0.8-0.7,1.6-1.6,2-2.3c0.4-0.8,0.6-1.8,0.6-2.9c0.1-2.1-0.3-4.3-0.7-6.5c-0.2-1.1-0.5-2.2-0.7-3.3l-0.2-0.8
		l-0.4-1.4l-0.4-1.5l-0.2-0.8l-0.1-0.5l-0.1-1.1v-0.1v-0.1v-0.1l0.1-0.2c0.1-0.1,0.1-0.3,0.2-0.4c0.1-0.2,0.4-0.4,0.7-0.5
		s0.7-0.1,0.9-0.1s0.3,0.1,0.4,0.2l0.4,0.2l0.7,0.7l1.9,3.7l1.1,2.1c0.4,0.7,0.7,1.4,1,2.1v-0.1c0.1-2.3,1.7-3.3,3.8-2.3
		c1.1,0.5,2,1.4,2.7,2.3c0.1,0.1,0.2,0.2,0.2,0.3c0.9-0.5,1.9-0.8,2.9-1c1.4-0.2,2.9,0,4.2,0.3l1.9,0.5c0.5,0.1,0.9,0.2,1.3,0.2
		c-0.1-0.3-0.2-0.6-0.3-0.9c-0.1-0.1-0.1-0.3-0.2-0.4c-0.1-0.1-0.2-0.4-0.3-0.6c-0.5-0.8-1.1-1.6-1.6-2.4c-0.4-0.5-0.8-1.1-1.1-1.7
		c-0.1-0.2-0.4-0.7-0.6-1.2c-0.2-0.4-0.4-0.9-0.6-1.4c0.2-0.1,0.5-0.2,0.8-0.3s0.5-0.2,0.8-0.2c0.6-0.1,1.2-0.2,1.5-0.2h0.6l0.6,0.1
		c0.4,0.1,0.8,0.2,1.2,0.3c1.6,0.4,3,1.1,4.4,1.9c1.4,0.8,2.7,1.6,4,2.6c1.3,0.9,2.5,1.9,3.7,3.1c0.7,0.7,1.3,1.5,1.9,2.1
		c0.6,0.7,1,1,1.8,1.1c0.8,0.2,1.7,0.2,2.5,0.2c0.9,0,1.8-0.2,3-0.1c0.9,0.1,1.7,0.4,2.4,0.8c-0.5-0.6-1.1-1.1-1.6-1.6
		c-1-0.9-2.2-1.6-3.4-2.3c-0.3-0.2-0.6-0.3-1-0.5s-0.8-0.3-1.2-0.5c-0.8-0.3-1.9-0.6-2.8-0.8l-0.2-0.1c-0.1,0,0.1-0.1,0.1-0.1
		l0.3-0.1l1-0.4c0.7-0.3,1.4-0.4,2.1-0.7c0.4-0.1,0.7-0.2,1.1-0.3l0.9-0.2c0.6-0.1,1.2-0.2,1.8-0.3c2.4-0.3,4.9-0.4,7.3-0.1
		c5.2,0.5,10.3,2.2,15,4.7c4.6,2.4,8.9,5.5,13,8.8c1.1,0.9,2.2,1.9,3.3,2.8c0.6,0.5,1.1,1,1.6,1.3c0.5,0.4,0.9,0.5,1.2,0.4
		s0.7-0.4,1-1c0.3-0.4,0.4-0.8,0.3-1.3c-0.1-0.5-0.3-1.1-0.7-1.7l-1.9-3.2c0.8-0.1,1.6-0.3,2.5-0.3l1.2-0.1h0.8c1,0,2,0.2,3,0.4
		c1.9,0.5,3.8,1.2,5.4,2.2c0.6,0.3,1.1,0.7,1.6,1c3.1,0.2,6.7,0.8,9.7,1.4c1,0.2,2,0.4,2.9,0.6l2.8,0.6l2.4,0.5l2.6,0.5
		C655.5,168.3,655.2,167.4,654.9,166.7z"/>
</g>
<g>
	<path class="st5" d="M447.8,487.7c1.4-1.2,2.8-2.3,4.4-3.2c3.1-1.9,6.6-3.4,10-4.6c3.5-1.3,7.1-2.3,10.7-3.2
		c0.9-0.2,1.7-0.4,2.6-0.6c-2.4-1.1-4.6-2.6-6.7-4.3c-2.1-1.7-4-3.4-6.1-5.1c-0.5-0.1-1-0.1-1.5-0.2c-2.4-0.3-4.8-0.6-7.2-0.9
		c-0.9-0.1-1.7-0.2-2.4-0.4c-1.9-0.3-3.2-0.5-4.4-0.5c-2.6,0-4.1,1-7.6,4.5c-0.3,0.3-0.6,0.6-0.9,0.9c-1,1.2-2.1,2.3-3.6,2.3
		c-0.1,0-0.1,0-0.2,0c-0.9-0.1-1.7-0.5-2.6-1.5c0.3,0.4,0.5,0.8,0.7,1.2c-0.2,0.3-0.4,0.6-0.6,1c-1,1.6-1.8,3.4-2.5,5.1l-2.1,5.3
		c-1.4,3.5-2.6,7.1-3.5,10.8c-0.9,3.7-1.4,7.6-1.4,11.4c-0.1,1.9-0.1,3.8,0.1,5.8c0.1,1,0.3,2,0.7,3c0.4,1,0.9,2,1.8,2.8
		s2,1.3,3.3,1.3c0.3,0,0.7,0,1-0.1s0.6-0.2,0.9-0.4c0.6-0.3,1-0.7,1.4-1.1c1.5-1.7,2.1-3.6,2.8-5.4c0.3-0.9,0.6-1.8,0.8-2.7
		c0.1-0.5,0.3-0.9,0.4-1.3l0.5-1.3c0.6-1.7,1.3-3.5,2-5.2c1.4-3.4,3.2-6.6,5.5-9.5C445.2,490.2,446.5,488.9,447.8,487.7z"/>
	<path class="st5" d="M423.4,465.7h0.4c0.3,0,0.5,0.1,0.8,0.1c2,0.4,3.8,1.4,5.5,2.7l0.6,0.5l0.5,0.5c0.1,0.1,0.2,0.3,0.4,0.4
		c-1.5-2.3-0.6-4.6,0.1-6.4c0.4-1,0.8-1.9,0.8-2.8c0-2.3-0.4-3.8-1.1-4.4c-0.4-0.3-0.8-0.4-1.4-0.4c-1,0-2.3,0.4-3.7,0.7
		c-1.4,0.4-2.8,0.8-4.2,0.9l-1.5,0.1l0.5-1.4c2.1-5.9,5.7-9.5,9.5-13.4c1.2-1.2,2.4-2.4,3.5-3.7c0-0.1-0.1-0.2-0.1-0.3
		c-0.4-0.9-0.8-1-1.7-0.7c-1.6,0.6-3.2,1.2-4.8,1.6c-2.9,0.7-5.6,1.8-7.9,3.8c-0.8,0.7-1.7,1.2-2.7,1.5c-1.9,0.6-3.9,0-5-1.4
		c-1.2-1.6-1.2-3.2-0.3-5c0.3-0.6,0.7-1.1,1.1-1.6c1.8-2.6,4.2-4.9,6.4-7.2c3.4-3.6,7.3-6.5,12.4-7.1c0.4,0,0.8-0.1,1-0.5
		c0.5-1.2-0.5-2.7-1.9-2.8c-0.2,0-0.5,0-0.7-0.1c-0.3,0-0.6,0.1-0.9,0.1c-2.2,0.4-4.4,1.1-6.5,2c-4.2,1.8-8.1,4.2-11.5,7.2
		c-1.8,1.5-3.4,3.1-4.9,4.7l-4.5,5c-3,3.4-5.9,6.8-8.7,10.4c-2.7,3.6-5.3,7.4-7.2,11.7c-0.9,2.1-1.7,4.4-1.7,7
		c0,1.3,0.4,2.6,1.1,3.7l0.4,0.5c0.1,0.2,0.3,0.4,0.5,0.6l1.1,1.1l0.1,0.1l0.1-0.1l0.2-0.3l0.5-0.5l0.9-1l1.2-1.3
		c0.4-0.4,0.8-0.8,1.2-1.1c0.8-0.7,1.6-1.5,2.5-2.2c1.7-1.4,3.5-2.7,5.4-3.8c3.8-2.2,7.9-4,12.1-4.4c0.3,0,0.5-0.1,0.8-0.1
		c0.1,0,0.1,0,0.1,0l0,0v0.3v0.4c0,0.3,0,0.5-0.1,0.8c-0.1,0.5-0.2,1.1-0.2,1.8c0,0.7,0.2,1.5,0.6,2.2c0.5,0.7,1,1.1,1.7,1.5
		s1.5,0.5,2.2,0.5s1.3,0,1.9-0.1c1.2-0.2,2.3-0.4,3.4-0.6c0.5-0.1,1-0.2,1.5-0.2L423.4,465.7z"/>
	<path class="st5" d="M600.2,446.2l-0.5-2.5c-1.7-7.4-5.7-14.3-11.6-19.1c-1.4-1.2-3-2.3-4.7-3.3c-1.6-0.9-3.4-1.7-5.1-2.4
		c-2.6-1-5.2-2.1-7.8-3l0.1,0.1c4.1,3.2,7,7.2,8.8,12c0.4,1,0.7,2.1,0.9,3.2c0.2,0.9,0.1,1.8-0.7,2.4s-1.7,0.4-2.5,0
		c-0.4-0.2-0.8-0.5-1.2-0.7c-2.8-1.7-5.6-3.3-8.5-4.8c0,0.6,0,1.2-0.2,1.7l-0.1,0.5l-0.5,0.2c-2.7,1.1-4.6,3.1-5.7,5.8
		c-1.3,3.3-1.1,7.5,0.5,10.9c3.6,7.8,4.2,10.3,1.6,19l-0.6,1.9l-1.2-1.6c-1-1.3-1.9-2.8-2.9-4.5c-2.7-4.7-5.8-9.9-11-9.9
		c-0.5,0-1,0-1.5,0.1l-0.1-0.7c-1,1-2.1,1.9-3.3,2.8c-1.4,1-2.8,2-4.2,3.1c0.6,2.1,0.3,4.3,0.1,6.2c-0.1,0.5-0.1,1.2-0.2,2.1
		c-0.4,4-0.7,7.5-1.5,8.8c-0.7,1.2-1.5,1.8-2.5,2c-0.1,0-0.2,0-0.3,0c-1.8,0-3.5-1.7-5.5-3.7c-1.7-1.7-3.6-3.7-5.6-4.4
		c-2.7,2.2-5.2,4.6-8.2,6.4c0.6,0.5,1.2,0.9,1.8,1.4c2.2,1.9,4.2,4,5.5,6.5c0.8,1.2,1.5,2.5,2.8,3.5c0.6,0.4,1.4,0.7,2.2,0.8
		c0.8,0,1.5,0.1,2.3-0.2c0.8-0.2,1.4-0.9,1.8-1.6c0.4-0.7,0.6-1.4,0.8-2.1c0.3-0.7,0.6-1.3,1-1.8c0.2-0.3,0.5-0.5,0.7-0.8
		s0.5-0.5,0.8-0.7c1.1-0.9,2.3-1.5,3.6-1.7s2.7,0.1,4,0.6c2.5,1.1,4.7,3,6.6,5.1c1.9,2.1,3.5,4.5,4.8,7c0.7,1.3,1.3,2.5,1.7,3.9
		c0.1,0.3,0.2,0.7,0.3,1c0.2,0.5,0.3,1.2,0.5,1.8c0.3,1.3,0.4,3.1,0.6,4.9l0.2-0.3c0-0.1,0.1-0.1,0.1-0.2l0.2-0.4l0.7-1.7
		c0.4-1.1,0.9-2.2,1.3-3.4l0.3-0.9l0.1-0.2v-0.1l0.1-0.3l0.3-1.2c0.2-0.8,0.4-1.6,0.5-2.3c0.6-3.1,0.8-6.3,0.7-9.5
		c-0.1-1.9-0.2-3.7-0.5-5.6c-0.1-0.5-0.1-0.9-0.2-1.4c-0.1-0.5-0.3-1-0.4-1.4c-0.2-0.7-0.5-1.5-0.8-2.2c1.3,1.9,2.5,3.9,3.3,6.1
		c1.1,2.8,1.8,5.8,2.6,8.8l0.6,2.3c0.1,0.4,0.2,0.8,0.3,1.1l0.2,0.6l0.1,0.4l0.2,0.5l0.7,2.1l0.8,1.9l1.6,3.8l0.8-6l0.5-2.6
		c0-0.3,0.1-0.3,0.1-0.4l0.1-0.3l0.1-0.6c0.2-0.8,0.4-1.7,0.6-2.5l1.4-5.1c1-3.4,1.9-7,2.2-10.6c0-0.3,0-0.6,0.1-0.9
		c0.2,0.2,0.4,0.4,0.6,0.6c1.2,1.3,2.2,2.7,3.2,4.2c0.5,0.8,0.9,1.5,1.4,2.3l1.5,2.5c0.5,0.8,0.9,1.5,1.4,2.2l1.4,2l0.7,1l0.4,0.5
		c0.1,0.1,0.3,0.5,0.3,0.2l0.1-2.5c0.1-1.7,0.1-3.2,0.1-4.8v-0.6c0-0.2,0-0.3,0-0.4l-0.1-0.7c0-0.5-0.1-0.9-0.1-1.4
		c-0.5-3.8-1.4-7.5-2.9-11c-1.4-3.5-3.2-6.8-5.1-10c-1-1.6-1.9-3.2-2.9-4.7s-1.9-3-2.2-4.5c-0.1-0.7-0.1-1.3,0.2-1.7
		c0.3-0.4,0.9-0.8,1.6-1.1c1.5-0.5,3.3-0.6,5.1-0.6s3.5,0.2,5.2,0.6s3.3,1.1,5,1.8c1.7,0.7,3.3,1.5,5.1,2.2l0.7,0.2l0.3,0.1l0.4,0.1
		c0.8,0.3,1.6,0.5,2.5,0.7l0.6,0.2l0.3,0.1h0.1v-0.2L600.2,446.2z"/>
	<path class="st5" d="M427,355.6l0.3,0.2c0.1,0,0.2,0.1,0.3,0.1c0.4,0.1,0.7,0.3,1.1,0.4c0.7,0.2,1.4,0.4,2.1,0.5
		c2.8,0.5,5.5,0.6,7.6,1.6c1.1,0.5,1.9,1.3,2.6,2.3s1.2,2.1,1.3,3.2c0.3,2.3-0.9,4.8-1.3,7.8c-0.1,0.8-0.1,1.5,0,2.3
		c0.1,0.4,0.1,0.8,0.2,1.2c0.2,0.5,0.4,0.9,0.6,1.3c1,1.4,2.2,2.1,2.9,3c0.4,0.4,0.7,0.9,0.7,1.2c0,0.2,0,0.3,0,0.5
		c-0.1,0.2-0.1,0.3-0.2,0.4c-0.2,0.2-0.6,0.4-1.1,0.5s-1.2,0.1-1.8,0.1c-0.6,0-1.3,0-2-0.1c-0.4,0-0.7,0-1.1,0s-0.7,0-1.1,0.1
		c-1.4,0.1-2.7,0.2-4.1,0.3c-2.7,0.3-5.5,0.6-8.2,1.2s-5.5,1.4-8,2.7c-0.6,0.4-1.3,0.7-1.9,1.3c-0.6,0.5-1.3,1.2-1.4,2.4
		c0,0.2,0,0.5,0,0.7c0,0.3,0.1,0.5,0.2,0.8s0.3,0.5,0.5,0.7s0.4,0.4,0.7,0.5c0.9,0.4,1.7,0.5,2.5,0.5c1.5,0,2.9-0.3,4.2-0.5l0.5-0.1
		c0.1,0,0.3,0,0.4,0h1c0.7,0,1.3,0.1,1.9,0.1c1.3,0.2,2.3,0.5,2.8,1.3s0.8,2.2,1.1,3.6c0.4,1.4,0.9,2.7,1.6,4
		c0.1,0.1,0.1,0.2,0.2,0.3c0.5,0,0.9,0,1.4,0c1.1,0,1.7-0.3,2.2-1.3c2.3-4.8,5.9-8.7,9.9-12.2c4-3.6,8.6-6.3,13.5-8.7
		c0.4-0.2,1-0.3,1.3-0.8c-0.6-0.7-1.3-0.9-1.9-1.2c-1.6-1-3.2-1.8-4.4-3.2c-1.2-1.5-1.6-3.1-0.9-4.9s2.2-2.7,4.1-2.8
		c1.2-0.1,2.4,0.1,3.6,0.3c2.4,0.5,4.8,1.2,7.2,1.9c0.8,0.2,1.8,1.1,2.3,0.2s-0.8-1.4-1.4-1.9c-1.7-1.5-3.1-3.2-3.3-5.6
		c-0.2-2.1,0.8-3.4,3-3.3c2.2,0,4.3,0.5,6.2,1.6c2.3,1.3,4.5,2.7,6.6,4.3c0.4,0.3,0.7,0.7,1.5,0.8c-0.5-1-0.9-1.8-1.3-2.6
		c-1.1-2.2-2.1-4.5-2.6-7c-0.4-2.2-0.2-4.3,1.2-6c-1.8-1.4-3.7-2.7-5.6-3.9c-3.7-2.2-7.8-3.9-12.2-4.3l-0.4-0.1c-0.2,0-0.4,0-0.6,0
		l-1.2,0.1l-1.2,0.1h-0.6c-0.1,0,0,0.1,0,0.1l0.1,0.1l0.1,0.3c0.4,0.7,0.7,1.3,1.2,2c0.6,0.8,0.9,1.1,1.3,1.5
		c0.8,0.8,1.6,1.5,2.3,2.2c0.4,0.4,0.8,0.7,1.1,1.1c0.2,0.2,0.3,0.3,0.4,0.4c-0.1,0.1-0.3,0.2-0.5,0.3c-0.2,0.1-0.5,0.2-0.8,0.2
		c-0.3,0.1-0.5,0.1-0.8,0.2c-1.1,0.2-2.2,0.2-3.4,0.1c-2.3-0.1-4.6-0.4-7-0.8c-1.3-0.2-2.7-0.4-4.1-0.6c-0.7-0.1-1.4-0.2-2.1-0.2
		h-1.1h-1c-2.7-0.1-5.5-0.1-8.3,0.1s-5.7,0.7-8.3,2.3c-0.3,0.2-0.7,0.4-0.9,0.6l-0.5,0.4c-0.2,0.2-0.4,0.4-0.6,0.6
		c-0.4,0.5-0.8,0.9-1.2,1.4l1.5,1.1C426.5,355.3,426.8,355.4,427,355.6z"/>
	<path class="st5" d="M556.8,370.5c1.3-1.1,2.6-2.2,4-3.1s2.9-1.7,4.4-2.3c0.8-0.3,1.5-0.5,2.3-0.6s1.6-0.1,2.4-0.1
		c2.1,0.1,4.4,0.5,6.8,0.7c0.6,0,1.2,0,1.9,0c0.2,0,0.3,0,0.5-0.1c0.1,0,0.5-0.1,0.7-0.1c0.5-0.1,1-0.3,1.5-0.5s1-0.4,1.5-0.5
		l0.2-0.1h0.1c0,0,0.1,0,0-0.1l-0.2-0.3l-0.5-0.6l-1-1.2c-0.2-0.2-0.3-0.4-0.5-0.6l-0.3-0.4c-3-3.3-6.1-6.9-9.8-9.7
		c-1.9-1.4-3.9-2.6-6.1-3.5c-2.2-0.9-4.5-1.5-6.8-1.9c-4.5-0.9-9.1-1.4-13.7-1.5c-1.7,0-3.4,0-5.2,0.1l-2.6,0.1
		c-1.1,0.1-1.1,0.1-1.5,0.1l0.1-0.4v-0.3l0.1-0.5c0-0.2,0.1-0.3,0.1-0.5v-0.1l0.1-0.2c0.1-0.1,0.1-0.3,0.2-0.4
		c0.3-0.6,0.9-1.3,1.3-1.9l-0.2-0.1h-0.5h-1c-0.7,0-1.3,0-2,0c-0.5,0-0.9,0.1-1.3,0.2c-0.4,0.1-0.9,0.2-1.3,0.3
		c-1.7,0.5-3.2,1.4-4.6,2.3c-2.8,1.9-5.3,4.2-7.8,6.2c-0.3,0.3-0.7,0.5-1,0.8c0,0.2,0,0.4,0,0.6c0,0.8-0.2,1.6-0.5,2.3
		c-0.6,2.1-1.2,4.3-1.5,6.5c-0.1,0.8-0.5,1.7,0,2.7c0.8-0.7,1.4-1.2,2.1-1.8c4.3-4.1,9.5-6.8,14.8-9.2c2-1,4-0.5,5.3,0.9
		c1.3,1.5,1.5,3.5,0.2,5.6c-0.5,0.8-1.1,1.6-1.6,2.4c-3.1,4.1-6.2,8.2-9,12.4c-0.4,0.6-1.1,1.1-1.1,2c0.7,0.3,1.3,0,1.9-0.1
		c2.7-0.5,5.3-1,8-1.4c2.2-0.3,4,0.4,5.2,2.3c1.1,1.7,0.9,4-0.5,5.8c-0.8,1-1.7,1.9-2.7,2.7c-0.4,0.3-1,0.5-0.9,1.5
		c4.2,2,7,5.8,10.3,8.9c0.5,0.4,0.8,1,1.2,1.5c1.8,2.7,3.8,5.4,4.8,8.5c0.2,0.7,0.7,1,1.5,0.8c0.4-0.1,0.8-0.2,1.2-0.2
		c3.8-0.7,7.3-0.1,10.6,1.2l0.1-0.1c0.6-0.5,1.3-0.9,2-1.3c1.5-0.7,3.2-1.2,4.9-1.6l1.5-0.4c0.9-0.2,1.7-0.5,2.5-0.8
		c0.4,0,0-0.3,0-0.4l-0.3-0.6l-0.7-1.1c-0.6-0.9-0.8-1.1-1.1-1.5c-1.2-1.5-2.6-2.8-4-4c-2.9-2.3-6.1-4.2-9.6-5.6
		c-3.2-1.3-6.7-2.2-10.2-2.3c0.3-0.3,0.5-0.5,0.8-0.8c2-1.8,4.3-3.3,6.8-4.2c0.3-0.1,0.6-0.2,0.9-0.3l1-0.3c0.3-0.1,0.7-0.1,1-0.2
		s0.6-0.1,0.9-0.2l1.7-0.4l0.4-0.1c0-0.1-0.2-0.2-0.3-0.3l-0.6-0.7c-0.4-0.4-0.8-0.9-1.3-1.3l-0.7-0.6c-0.1-0.1-0.3-0.2-0.4-0.3
		l-0.3-0.2c-0.3-0.2-0.6-0.4-0.9-0.6c-1.3-0.8-2.6-1.4-3.9-2c-0.7-0.3-1.4-0.5-2-0.7l-0.3-0.1l0.5-0.5
		C555.6,371.7,556.2,371.1,556.8,370.5z"/>
	<path class="st5" d="M458,593.9c0.5,0.4,1,0.7,1.5,1.1c0.3,0.2,0.5,0.3,0.8,0.5c0.4,0.2,0.7,0.4,1.1,0.6l1.2,0.5
		c0.3,0.2,0.2-0.2,0.2-0.3l0.1-0.6c0-0.4,0.1-0.8,0.1-1.3v-1c-0.1-2.5-0.3-4.9-0.1-7.3c0.1-1.2,0.3-2.4,0.7-3.4
		c0.4-1,1.2-1.7,2.2-1.9s1.9,0.2,2.6,1.1c0.3,0.4,0.7,0.9,1,1.5c0.3,0.5,0.7,1.1,1,1.6c0.6,1,1.2,2.1,1.9,3.2c0.7,1.1,1.5,2.1,2.4,3
		s1.7,1.7,2.6,2.7l1.2,1.4l1.1,1.4c3,3.8,5.3,8.1,7.4,12.6c1,2.2,2,4.5,3,6.8l0.7,1.7l0.2,0.4l0.1,0.2l0.2,0.3l0.6,1.3l0.6,1.3
		c0,0.2,0.2,0,0.3,0l0.3-0.2c0.2-0.2,0.4-0.3,0.6-0.5c0.4-0.3,0.8-0.6,1.2-1c0.3-0.3,0.5-0.6,0.7-0.9c1-1.5,1.5-3.2,1.8-4.9
		s0.4-3.3,0.5-4.9c0.1-3.3,0-6.5,0.5-9.5c0.1-0.8,0.3-1.5,0.6-2.1l0.1-0.2V597c0,0,0-0.1,0.1-0.1c0,0,0.1-0.2,0.1-0.1
		c0.1,0.1,0.1,0.1,0.1,0.2c0,0,0,0,0.1,0.1c0.1,0.2,0.2,0.3,0.3,0.5c0.3,0.7,0.6,1.3,0.9,2.1c0.5,1.4,0.8,3,1,4.5
		c0.1,0.8,0.2,1.6,0.2,2.3c0,0.2,0.1,1.2,0.1,1.9v2.3c0.6-0.3,1.3-0.7,1.9-1l1.8-1.2l1-0.9l0.9-0.9c1.2-1.3,2.2-2.7,3.1-4.2
		c1.8-2.9,3.3-6,4.5-9.1c0.3-0.8,0.6-1.6,0.8-2.4c0.3-0.9,0.5-1.7,0.7-2.5c0.4-1.6,0.7-3.2,1.2-4.8s1-3.1,1.7-4.4
		c0.7-1.4,1.6-2.6,2.8-3.2c0.6-0.3,1.2-0.5,1.9-0.6c0.7,0,1.3,0.1,1.8,0.3c1,0.5,1.6,1.9,1.9,3.4c0.4,1.5,0.6,3.2,0.9,4.9
		c0.2,0.8,0.3,1.6,0.5,2.5c0,0.1,0.1,0.3,0.1,0.4l0.2,0.5c0.2,0.3,0.3,0.7,0.6,0.9c0.2,0.3,0.6,0.4,0.9,0.5c0.2,0,0.4,0,0.5,0
		l0.5-0.1l0.5-0.3l0.3-0.1l0.2-0.1c0.2-0.1,0.5-0.3,0.6-0.4l1-0.8l1.9-1.5c0.6-0.5,1.3-1,1.8-1.2c0.3-0.2,0.5-0.2,0.7-0.2
		c0.1,0,0.2,0,0.3,0.2c0.3,0.3,0.6,1,0.9,1.7c0.2,0.7,0.5,1.5,0.6,2.2c0.2,1.4,0,3-0.1,4.7c0,0.6-0.1,1.3,0,2v0.6l0.1,0.9
		c0.1,0.6,0.3,1.1,0.4,1.7l0.2,0.8c0,0.1,0,0,0.1,0l0.1-0.1l0.2-0.1l0.4-0.2l1.5-0.9c0.5-0.2,1-0.7,1.2-0.8c0.3-0.2,0.5-0.4,0.8-0.6
		c2-1.8,3.5-4,4.6-6.3c2.4-4.6,3.7-9.5,4.5-14.5c0.4-2.5,0.7-4.9,0.9-7.4s0.3-5,0-7.6v-0.1c0.8-1.1,1.5-2.1,2.3-3.2
		c0.7-1,1.3-2.1,1.9-3.1c0.1-0.2,0.2-0.3,0.3-0.5c-0.1-1-0.2-2-0.3-3.1c-0.3-2.9-0.5-5.8-2-8.3c-2.1-3.7-4.3-7.5-7.1-10.8
		c-3.4-3.9-6.8-7.7-10.2-11.5c-0.3-0.4-0.5-1.1-1.5-0.6c0.6,3.8-0.2,7.8,0.2,11.7c0.6,5.4,0.1,10.7-1.2,16
		c-2.9,11.2-9.3,19.3-21,22.5c-1.5,0.4-3,1-4.6,1.3c-4.9,1.1-9.7,2.7-14.8,3.2c-10.5,1-20.4-1.5-29.8-5.7c-9-4-16.8-9.9-22.8-17.8
		c-0.2-0.2-0.3-0.3-0.6-0.3c-0.3,0.1-0.3,0.3-0.4,0.6c-1.1,4.9-1.6,9.8-0.2,14.7c0.6,2.1,0.2,3.9-0.7,5.8c-0.1,0.2-0.2,0.4-0.3,0.5
		c0.5,1.8,1,3.5,1.7,5.2c0.9,2.3,2.1,4.5,3.5,6.6C450.9,586.8,454,590.7,458,593.9z"/>
	<path class="st5" d="M392.1,190.3c0.6-0.4,1.2-0.9,1.9-1.4c0.3-0.2,0.6-0.3,1-0.5c0.6-0.2,1.3-0.5,1.9-1.1s0.9-1.4,1.1-2.1
		c0.2-0.7,0.4-1.2,0.9-1.6l-0.4-0.6c0.1,0,0.2,0,0.3,0c2.1-0.1,2.1-0.2,2.2-2.2c0-1.8,0-3.7,0-5.5c0.1-7.5,3-13.3,9.8-16.8
		c0.6-0.3,1.3-0.6,1.6-1.3c1.6-3.3,4.2-5.1,7.2-5.9c-0.8,0-1.5,0.1-2.3,0.3c-3,0.6-5.9,1.9-8.5,3.5s-5,3.5-7.3,5.5
		c-1.1,1-2.3,2-3.4,3.1c-0.3,0.3-0.7,0.6-1,1c-1.4,0-2.8,0.2-4.2,0.3c-2.6,0.4-5.2,1-7.7,1.9c-1.2,0.5-2.5,1-3.7,1.8
		c-1.2,0.7-2.3,1.5-3.3,2.5c-1.5,1.6-2.7,3.3-3.8,5.2c0.7-0.5,1.5-1,2.2-1.5c1-0.6,2.1-1.1,3.3-1.4c1-0.3,2.1-0.3,3.1-0.1
		c0.4,0.1,0.7,0.3,0.7,0.8c0,0.4-0.3,0.6-0.6,0.7c-0.2,0.1-0.5,0.1-0.7,0.2c-5.3,1.6-7.9,5.6-9.6,10.5c-0.4,1.1-0.7,2.3-0.2,3.8
		c2.4-1.9,5.1-2.9,7.8-3.6c-2.6,3.8-3.8,8-5.1,12.4l-0.3,1c-0.4,1.4-0.9,3.2-1.4,5.2c-0.5,1.9-0.9,3.9-1.2,5.9
		c-0.2,1.7-0.4,3.4-0.2,5.2c0.1,0.9,0.2,1.8,0.6,2.7c0.3,0.9,0.9,1.8,1.7,2.5l1.9,1.7l0.1-2.7c0-0.6,0-1.2,0.1-1.8
		c0.2-3.4,1-6.8,2.4-10.1c1-2.4,2.2-4.8,3.6-7.1l0,0c0.1-0.1,0.1-0.2,0.2-0.3c1-1.5,2-3.1,3.2-4.7
		C388,193.1,389.8,191.9,392.1,190.3z"/>
	<path class="st5" d="M446.4,175.4c6.3-5.4,9.3-6.9,13-5.9c-0.9,1.1-2,1.8-3.1,2.6c-3.1,2.3-5,5.5-6.8,8.9c-0.6,1.2-0.7,2.6-0.6,4
		c0.4,6.4,1.7,12.7,3.9,18.7c0.1,0.3,0.2,0.6,0.6,0.6c0.3-0.1,0.3-0.3,0.3-0.6c0.2-5.6,1.9-10.9,4.4-15.8
		c5.5-11.2,13-20.3,25.5-24.3c1.7-0.5,3.2-0.8,4.9-0.3c1.4,0.3,2.7,0.8,4.3,1.3c-0.7-2.4-1.9-4.3-3.1-6.1c-2.1-3.3-5.1-5.7-8.9-6.8
		c-2.5-0.7-4.9-1.6-7.5-0.9c-0.4,0.1-0.8,0-1-0.5c-0.2-0.4,0-0.8,0.4-1c0.5-0.3,1-0.6,1.5-0.7c1.6-0.5,3.2-0.8,5-0.7
		c0.1,0,0.1,0,0.2,0c-0.1,0-0.2,0-0.3-0.1c-3-0.7-6.1-1-9.2-0.9s-6.2,0.8-9.1,2c-0.7,0.3-1.4,0.6-2.1,1s-1.4,0.8-2,1.3
		c-1.3,1-2.4,2.1-3.4,3.2c-1,1.1-2,2.2-3.1,3c-1.1,0.9-2.3,1.6-3.6,2.2c-1.3,0.6-2.7,1.2-4.1,2s-2.7,1.7-3.9,2.9
		c-1.5,1.6-2.6,3.2-3.7,4.9c3.9,0.1,7.2,1.9,10.2,4.7C445.5,174.5,445.7,175.2,446.4,175.4z"/>
	<path class="st5" d="M357.3,216.5c2-1.8,3.1-3.4,1.6-6c-0.2-0.4-0.2-0.9-0.3-1.4c-1.1-7.6,0.5-14.6,4.9-20.9
		c0.3-0.4,0.6-0.8,0.9-1.2c1.8-6.3,4.6-12.2,8.2-17.6l1.5-2.3l1.1-1.7l0.5-0.8l0.3-0.4c0.1-0.1,0.3-0.3,0-0.3
		c-0.7-0.1-1.3-0.1-1.9-0.2c-0.3,0-0.6,0-1,0l-1.1,0.2c-0.9,0.2-1.2,0.4-1.6,0.5c-0.4,0.2-0.8,0.4-1.2,0.6c-3.2,1.8-5.7,4.2-8.1,6.7
		c-4.7,5.1-8.8,10.8-12.1,16.9c-1.1,2.2-2.2,4.4-3.1,6.7c-1.9,9.1-1.9,18.4,0.8,27.8c0.8,2.8,1.7,5.6,3,8.3c0.2-0.2,0.4-0.3,0.4-0.4
		c0.2-0.6,0.3-1.2,0.4-1.9C351.5,224.3,353.5,219.9,357.3,216.5z"/>
	<path class="st5" d="M367.8,233.6c-0.1-0.3-0.1-0.5-0.1-0.8l0,0c-0.3-1.9-0.2-3.7,0.3-5.7l0.9-3l-2.4,2c-3.7,3-11,11.7-8.1,17.9
		l0.3-0.1c0.1,0.7,0.3,1.4,0.5,2.2c0.7,3.1,1.4,6.5,1,9.3c-0.3,1.8-1.2,3.6-2,5.4c-1.1,2.2-2.1,4.4-2.2,6.8c0,0.1,0,0.1,0,0.2v0.1
		c0,0.4,0,0.8,0.1,1.2c0,0.2,0.1,0.5,0.1,0.7l0.1,0.7c0,0.1,0,0.3,0.1,0.3h0.1l0,0l1-0.4c0.2-0.1,0.4-0.2,0.6-0.3l1-0.4
		c0.2-0.1,0.3-0.1,0.4-0.2l0.4-0.2c0.5-0.2,1-0.4,1.4-0.7c0.5-0.3,0.9-0.5,1.4-0.8l1.3-0.9c3.5-2.5,6.3-6.2,7.5-10.5
		c1.2-4.2,0.9-8.8-0.5-12.9C369.9,240.1,368.5,236.9,367.8,233.6z"/>
	<path class="st5" d="M334,225.8c-1.1-8.3-1.1-8.3-2-8.5l-0.3,1l-0.8,0.5c0,0,0,0,0-0.1c0,0,0,0,0,0.1l-0.8,0.5l0,0l-1-0.3
		c-0.8,2.7-0.6,5.5-0.5,8.2c0.1,2,0.2,3.8-0.1,5.7c-0.6,4.7-2.8,8.8-4.8,12.2c-0.8,1.3-1.5,2.5-2.3,3.8c-0.3,0.5-0.6,1.1-1,1.6
		c-1.8,3-3.7,6-5.7,8.8c-1.4,2-2.9,3.9-4.6,5.6l-1.8,1.8l-0.7,0.9l-0.8,0.8l0.2,0.1l-0.2,0.2l-0.1,0.1h0.1l0.2,0.1l1.4,0.6
		c0.2,0.1,0.4,0.2,0.7,0.2l0.8,0.1l0.4,0.1h0.4l0.8-0.1c0.3,0,0.4-0.1,0.6-0.1l0.5-0.1c1.3-0.4,2.5-1.1,3.6-1.8
		c1.1-0.7,2.1-1.5,3-2.4c1.9-1.7,3.6-3.5,5.2-5.4c1.7-2,3.3-4.1,4.8-6.3c2.3-3.2,4-6.1,4.7-7.9c1.9-4.9,1.6-9,0.6-14
		C334.6,230.7,334.3,228.2,334,225.8z"/>
	<path class="st5" d="M465.1,247.3c0.1-1.5,0.6-2.5,1.5-3.3c1-0.8,2.6-1.2,4.6-1.2c1.5,0,3.3,0.2,5.3,0.6c0.6,0.1,1.2,0.3,1.7,0.4
		c1.5,0.4,3,0.7,4.6,0.7c0.9,0,1.9-0.1,3-0.4c3.1-0.9,3.8-2,4.4-3.6c0.3-0.7,0.6-1.5,1.5-2.4c1.2-1.3,2.3-1.9,3.1-1.9
		c0.1,0,0.1,0,0.2,0c1.2,0.1,2.4,2.1,3.5,3.9c1.3,2.2,2.6,4.5,4.8,5.4c0.5,0.2,1.1,0.3,1.6,0.3c0.8,0,1.6-0.1,2.4-0.3
		c0.8-0.1,1.7-0.3,2.5-0.3c0.5,0,1,0.1,1.4,0.2c1.8,0.7,2.5,1.9,3.2,3.4c0.7,1.3,1.4,2.6,3,3.5l0.5,0.3l0.1,0.1l0,0h0.1l0.5-0.6
		c1.4-1.7,2.3-3.8,3.1-5.7c0.2-0.6,0.5-1.1,0.7-1.7c0.1-0.3,0.3-0.7,0.4-1c0,0,0-0.1,0.1-0.1c0.5-0.9,1-1.7,1.6-2.5
		c0.9-1.1,1.9-2.2,2.9-3.3c-1.2,0.6-2.5,1.1-3.8,1.4c-1.5,0.4-3,0.4-4.5,0.2c-1.5-0.3-2.9-0.8-4.2-1.6c-0.7-0.4-1.2-0.7-1.7-1.3
		c-0.5-0.5-1-1.2-1.5-1.9s-1-1.4-1.7-2c-0.6-0.7-1.5-1.3-2.7-1.6c-0.3-0.1-0.6-0.1-0.8-0.1c-0.3,0-0.5,0.1-0.8,0.1
		c-0.5,0.1-1.1,0.3-1.5,0.7c-0.9,0.7-1.4,1.6-1.8,2.4c-0.2,0.4-0.3,0.8-0.5,1.2l-0.1,0.3v0.1c0,0.1-0.1,0.1-0.1,0.2h-0.1v-0.1
		l-0.3-1.5c-0.2-1-0.4-2-0.7-3c-0.6-2-1.2-4-2.7-5.7c-0.5-0.6-1.1-1-1.7-1.4s-1.5-0.7-2.4-0.5c-1,0.2-1.6,0.9-2,1.4
		c-0.4,0.6-0.7,1.2-1,1.8c-0.5,1.2-0.9,2.4-1.3,3.6c-0.2,0.6-0.5,1.1-0.7,1.6c-0.1,0.2-0.3,0.5-0.4,0.7c-0.2,0.2-0.4,0.4-0.6,0.6
		c-0.8,0.8-1.8,1.4-2.8,1.6c-1.1,0.2-2.2-0.1-3.2-0.6c-2.2-1-4.1-2.7-6.3-4c-1.1-0.6-2.4-1.2-3.8-1c-0.7,0.1-1.4,0.4-1.9,0.9
		c-0.6,0.4-0.9,1.1-1.1,1.7c-0.2,0.6-0.3,1.2-0.5,1.7s-0.5,0.8-1,1c-0.2,0.1-0.5,0.2-0.8,0.2l-0.9,0.1c-0.3,0.1-0.6,0-0.9,0h-0.4
		l-0.4-0.1c-1.1-0.3-2.1-0.9-3-1.7s-1.6-1.8-2.3-2.7l-2.1-3c0,0.1,0,0.1,0,0.2c-0.2,1-0.9,1.8-1.6,2.6c-0.9,1.1-2,2.3-2,3.9
		c-0.1,2.6,3.2,7.3,6.8,12l0.3,0.3l0.8-0.6l0,0l0,0l2.7,1.2c0,0.1,0,0.2,0,0.4L465.1,247.3z"/>
	<path class="st5" d="M494,152.8c0.1,0.1,0.2,0.2,0.4,0.3c4.1,3.2,7.1,7.1,9.3,11.7c1.3,2.7,1.6,5.7,1,8.7c-0.2,0.9-0.3,1.8-0.5,2.8
		c0.4,0.1,0.6,0.2,0.8,0.1c0.5-0.1,1-0.2,1.4-0.4c4-2.4,9-1.1,12.6,2.7c2.2,2.3,3.8,5,4.7,8c2.7,9.5,4.1,19.1,2.5,28.9
		c-0.2,1.4-0.5,2.8-0.9,4.4c0.4-0.3,0.6-0.4,0.7-0.6c3.2-5.8,5.9-11.9,7-18.5c0.5-3.5,0.2-7,0.1-10.5c-0.1-4.3,1.3-6.3,5.3-7.8
		c0.9-0.3,1.9-0.5,2.5-1.4c2.7-3.8,4.8-7.8,3.8-12.7c-0.6-2.7-1.2-5.5-1.9-8.2c-0.4-1.5-0.8-3.1-0.7-4.6c-0.3-0.7-0.7-1.4-1-2.1
		l-1.1-2.1l-1.9-3.7l-0.7-0.7l-0.4-0.2c-0.1-0.1-0.3-0.2-0.4-0.2c-0.2,0-0.5,0-0.9,0.1c-0.3,0.1-0.6,0.4-0.7,0.5
		c-0.1,0.1-0.1,0.3-0.2,0.4l-0.1,0.2v0.1v0.1v0.1l0.1,1.1l0.1,0.5l0.2,0.8l0.4,1.5l0.4,1.4l0.2,0.8c0.3,1.1,0.5,2.2,0.7,3.3
		c0.4,2.2,0.8,4.4,0.7,6.5c0,1-0.2,2.1-0.6,2.9c-0.4,0.8-1.2,1.6-2,2.3c-0.9,0.9-1.9,1.7-2.9,2.7c-1,0.9-1.9,2-2.6,3.4
		c-0.4,0.9-0.3,1.7-0.3,2.3c0,0.3,0,0.6,0,0.9c0,0.1,0,0.1,0,0.2v0.1c0,0.1,0,0.1,0,0.2c0,0.1-0.1,0.2-0.1,0.3l-0.1,0.1l-0.1,0.1
		c0,0,0,0-0.1,0c-0.1-0.1-0.2-0.1-0.2-0.2l-0.1-0.1c0,0-0.1-0.1-0.2-0.2c-1.6-2-2.7-4.3-4.1-6.6c-0.7-1.1-1.4-2.3-2.3-3.3
		c-0.4-0.5-0.9-1-1.4-1.5c-0.6-0.4-1.1-0.9-1.8-1.2c-2.4-1.2-5.1-1.3-7.2-2.4c-1.1-0.5-1.7-1.5-2.2-2.6s-1.1-2.3-1.8-3.4
		c-0.8-1.1-1.8-1.9-2.9-2.5c-1.1-0.7-2.2-1.2-3.4-1.7c-2.4-0.9-4.8-1.4-7.3-1.9l0,0l0,0c0,0.2,0,0.4,0.1,0.6
		C494,152.7,494,152.8,494,152.8z"/>
	<path class="st5" d="M589.5,206.3c0.4,0.4,1,0.8,1.7,1c0.5,0.1,1.1,0.1,1.6-0.1c-1-1.2-2.1-2.4-3.3-3.4c-0.9-0.8-1.8-1.5-2.8-2.1
		c0.5,1.1,1,2.2,1.7,3.3C588.8,205.5,589.1,205.9,589.5,206.3z"/>
	<path class="st5" d="M647.3,180.5c-0.9-2.7-2.1-5.3-3.8-7.7c-0.3-0.4-0.5-0.7-0.8-1c-0.4-0.5-0.9-1-1.4-1.4l0,0l0,0l-0.8-0.7
		c0,0,0,0-0.1,0c-2-1.6-4.3-3-6.6-4.4l0,0c0.5,0,1.1,0.1,1.6,0.1c-0.5-0.4-1.1-0.7-1.6-1c-1.7-1-3.5-1.7-5.4-2.2c-1-0.2-2-0.4-3-0.4
		h-0.8l-1.2,0.1c-0.8,0.1-1.7,0.2-2.5,0.3l1.9,3.2c0.3,0.6,0.6,1.2,0.7,1.7c0.1,0.5,0,0.9-0.3,1.3c-0.3,0.5-0.7,0.9-1,1
		s-0.7,0-1.2-0.4c-0.5-0.3-1-0.8-1.6-1.3c-1.1-1-2.2-1.9-3.3-2.8c-4-3.3-8.3-6.3-13-8.8c-4.6-2.5-9.7-4.2-15-4.7
		c-2.4-0.2-4.9-0.2-7.3,0.1c-0.6,0.1-1.2,0.2-1.8,0.3l-0.9,0.2c-0.4,0.1-0.7,0.2-1.1,0.3c-0.7,0.2-1.4,0.4-2.1,0.7l-1,0.4l-0.3,0.1
		c-0.1,0-0.2,0.1-0.1,0.1l0.2,0.1c0.9,0.2,2,0.5,2.8,0.8c0.4,0.1,0.9,0.3,1.2,0.5c0.4,0.2,0.6,0.3,1,0.5c1.2,0.6,2.4,1.4,3.4,2.3
		c0.6,0.5,1.1,1,1.6,1.6c-0.7-0.4-1.5-0.7-2.4-0.8c-1.2-0.1-2.1,0.1-3,0.1c-0.8,0-1.7,0-2.5-0.2s-1.3-0.5-1.8-1.1
		c-0.6-0.7-1.2-1.4-1.9-2.1c-1.1-1.2-2.4-2.2-3.7-3.1c-1.3-0.9-2.6-1.8-4-2.6s-2.9-1.4-4.4-1.9c-0.4-0.1-0.8-0.2-1.2-0.3l-0.6-0.1
		h-0.6c-0.4-0.1-1,0.1-1.5,0.2c-0.3,0-0.6,0.1-0.8,0.2c-0.3,0.1-0.6,0.2-0.8,0.3c0.2,0.5,0.4,0.9,0.6,1.4c0.2,0.4,0.5,0.9,0.6,1.2
		c0.4,0.6,0.8,1.1,1.1,1.7c0.6,0.8,1.2,1.6,1.6,2.4c0.1,0.2,0.3,0.5,0.3,0.6c0.1,0.1,0.1,0.3,0.2,0.4c0.1,0.3,0.2,0.6,0.3,0.9
		c-0.4,0-0.8-0.1-1.3-0.2l-1.9-0.5c-1.4-0.4-2.8-0.6-4.2-0.3c-1,0.2-2,0.5-2.9,1c1.3,1.8,2.5,3.8,3.4,5.8c0.4,0.9,0.9,1.9,1.6,2.6
		c1.7,1.7,3,3.7,3.9,6c0.4,1.1,1,1.4,2.2,1c6.1-2.3,12-1.6,17.7,1.5c1.5,2.1,3.3,5,5.4,8.9c2.4,4.8,4.9,9.5,6.1,14.5
		c0.1,0.3,0.1,0.5,0.2,0.8l0.1,0.5c0.1,0.3,0.1,0.6,0.2,0.9c0.2,1.2,0.4,2.3,0.5,3.4c0.3-0.2,0.7-0.6,1.1-0.9l1.1-0.9
		c0.4-0.4,0.7-0.8,1-1.2c0.2-0.2,0.3-0.5,0.4-0.7l0.2-0.3c0-0.1,0.1-0.2,0.1-0.2c0.6-1.3,0.8-2.6,0.9-3.9c0.1-1.4,0.1-2.8-0.1-4.2
		c0-0.4-0.1-0.8-0.1-1.3c-0.5-3.8-1.7-8-3.5-11.4c7,2.4,13.5,5.8,19.6,10.2c0.4,0.3,0.8,0.8,1.5,0.6c-0.2-1.9-0.9-3.5-1.9-5.1
		c-2-3.4-4.3-6.6-7.4-9c-1.8-1.4-2.1-2.6-1.5-3.6s1.7-1.4,3.5-0.8l-0.2,0.3l1.1,0.9c3.3,2.6,7.1,5.6,11.4,6.6
		c1.7,0.4,3.5,0.5,5.4,0.7c2.9,0.2,5.9,0.4,8.1,1.7c1.3,0.7,3,2.1,4.8,3.7c0.4,0.4,0.8,0.7,1.2,1.1c0.1,0.1,0.2,0.2,0.4,0.3
		c0.7,0.7,1.5,1.5,2.2,2.2c0.7,0.8,1.4,1.6,2,2.4c0.6,0.8,1.1,1.7,1.5,2.7c0.8,1.9,1.3,4,1.8,6.1l0.4,1.6c0.3,1,0.5,2,0.8,3
		c0.6,1.9,1.2,3.3,2,5.2l0.8-2.8l0.7-2.6c0.1-0.4,0.2-1,0.3-1.5s0.1-1.2,0.2-1.7c0.1-0.6,0.1-1.2,0.1-1.8
		C650,191.5,649.1,185.8,647.3,180.5z"/>
	<path class="st5" d="M419.4,611.5c-3.4-6-7.7-11.4-11.9-16.8c-0.9-1.1-1.8-2.1-3.3-2.5c-0.8,2.6-1,4-0.6,5.2c0.5,1.5,0.6,3,0.6,4.5
		c0.2,5-0.2,9.9-0.7,14.8c-0.7,6.6-1.5,13.2-1.6,19.8c0,0.9,0,1.8,0.3,2.6c1.1,2.9,1.4,5.9,1.5,9c0.2,6.3,1.1,12.6,2.5,18.8
		c0.9,4,1.8,7.9,3.1,11.8h2.6c0-0.1,0-0.2,0-0.2c-0.3-3.3-0.7-6.6-1.2-9.8c-0.8-5.2-1.8-10.3-2.6-15.4c-0.2-1.3-0.4-2.6-0.5-3.8
		c-0.1-0.6-0.1-1.3-0.1-1.8l0.1-1.9c0.1-2.6,0.3-5.1,0.8-7.6c0.5-2.4,1.5-4.9,3.4-5.4c1-0.3,2.1-0.2,3.2,0.2s2.2,0.9,3.3,1.6
		c0.7,0.4,1.4,0.9,2.1,1.5c-0.5-2.2-0.8-4.5-1-6.9c-0.3-4.2-0.6-8.4,0.7-12.4C420.7,614.7,420.4,613.2,419.4,611.5z"/>
	<path class="st5" d="M565.5,634.1c-1.2-2.4-3.1-3.6-5.5-4.2c-1.2-0.3-2.3-0.5-3.5-0.8c-2.5-0.5-4.7-0.1-7,1.4
		c-2.8,1.8-5.7,3.3-8.8,4.2c-2.2,0.6-4.5,1-6.9,0.8c-1-0.1-1.9,0.4-2.7,0.8c-6.4,3.7-11.6,8.8-15.4,15.1c-1.3,2.2-2.7,4.1-5.1,5.2
		c-0.9,0.4-1.3,1.1-1.6,1.9c-1.3,3.1-3.5,4.1-6.8,3c-2.5-0.8-4.6-2.2-6.5-4c-2.6-2.6-5.1-5.3-7.4-8.2c-1.3-1.6-2.1-3.6-4.5-3.8
		c-0.2,0-0.4-0.3-0.6-0.4c-2.1-1.2-3.9-2.8-5.5-4.6c-1.1-1.2-2.5-1.9-4.1-2.4c-2.3-0.7-4.5-1.6-6.8-2.4c-4.7-1.7-9.5-2.9-14.4-3.7
		c-1.1-0.2-1.8,0-2,1.3c-0.1,1.6-0.8,3.1-1.6,4.5c-0.8,1.5-1.3,3.1-1.6,4.8c-0.5,3.3-0.5,6.5-0.1,9.8c0.9,7.4,3.9,14,8.2,20
		c1.5,2.1,3.1,4.2,4.7,6.3h4.4c-1.6-3.8-3.3-7.6-4.2-11.4l-0.2-1l-0.1-1c-0.1-0.6-0.2-1.4-0.3-2.1c-0.2-1.4-0.4-2.8-0.4-4.1
		s0.1-2.6,0.6-3.6c0.2-0.5,0.6-0.9,1-1.2s1-0.5,1.4-0.5c0.9-0.1,1.8,0.5,2.6,1.5c0.8,1,1.5,2.2,2.3,3.4c0.4,0.6,0.8,1.2,1.3,1.9
		l0.2,0.2l0.1,0.1c0.1,0.1,0.1,0.2,0.2,0.3c0.1,0.2,0.2,0.5,0.3,0.8c0.2,0.6,0.2,1.4,0.5,2.2s0.9,1.8,1.9,2.3
		c0.5,0.3,1.1,0.4,1.7,0.4s1.1-0.2,1.5-0.4c0.8-0.4,1.4-0.9,1.9-1.2c0.2-0.2,0.5-0.3,0.6-0.3l0,0l0,0l0.2,0.1
		c0.6,0.2,1.2,0.6,1.8,0.9c2.3,1.3,4.3,3.3,6,5.4c0.9,1.1,1.7,2.2,2.5,3.4c0.8,1.1,1.5,2.3,2.1,3.6c0.1,0.1,0.1,0.2,0.2,0.3h21.2
		c0.7-1.8,1.4-3.6,2.1-5.4c1-2.3,2.2-4.6,3.6-6.6c1.5-2,3.2-3.8,5.3-5.1c0.5-0.3,1.1-0.6,1.6-0.8l1.7-0.6c0.6-0.2,1.2-0.3,1.8-0.4
		c0.6,0,1.2-0.2,1.8-0.2c1.2-0.1,2.4,0.1,3.7,0.4c0.7,0.1,1.3,0.2,2.2,0.2c0.4,0,0.8-0.1,1.2-0.2c0.4-0.1,0.8-0.3,1.1-0.5
		c1.4-0.9,2.2-2,3-3.1l0.8-1.1l0.1-0.1c0,0.1,0,0.1,0.1,0.2v0.1c0,0.3,0.1,0.6,0.1,0.9c0.1,1.2,0.1,2.5,0.1,3.8s0,2.6,0,4
		c0.1,1.4,0.1,2.7,0.7,4.2c0.3,0.7,0.9,1.6,1.8,2.1c0.9,0.5,2.1,0.4,2.9,0.1c1.6-0.7,2.6-1.7,3.5-2.7c1.6-1.9,2.9-3.9,4-5.9
		c1.2-2,2.3-4.1,3.4-6.1c0.3-0.5,0.6-1,0.8-1.5c0.1-0.2,0.3-0.5,0.4-0.7l0.5-0.7l2-2.9c1.3-1.9,2.6-3.9,3.8-6c1-1.9,1.9-3.8,2.7-5.8
		c0,0,0-0.1-0.1-0.1C567.2,636.8,566.2,635.5,565.5,634.1z"/>
</g>
</svg>
