<?xml version="1.0" encoding="utf-8"?>
<!-- Generator: Adobe Illustrator 24.0.1, SVG Export Plug-In . SVG Version: 6.00 Build 0)  -->
<svg version="1.1" id="New_group_1_" xmlns="http://www.w3.org/2000/svg" xmlns:xlink="http://www.w3.org/1999/xlink" x="0px"
	 y="0px" viewBox="0 0 990 781.2" style="enable-background:new 0 0 990 781.2;" xml:space="preserve">
<style type="text/css">
	.st0{fill:#E4706A;}
	.st1{fill:#545558;}
	.st2{fill:#806714;}
	.st3{fill:#B5994A;}
	.st4{fill:#FBE8C4;}
	.st5{fill:#FFFFFF;}
</style>
<g>
	<path d="M184,738.2c-0.5,1.9-0.9,3.3-1.2,4.7c-0.7,3.4-2.8,6-5,8.6c-1,1.2-2.5,1.6-4.2,1.3c-5.6-1.2-10.6-3.7-14.5-7.9
		c-4.1-4.4-8.1-8.9-11.1-14.1c-0.9-1.5-2.2-2.6-3.6-3.4c-7.1-4.2-12-10.4-16.3-17.3c-0.4-0.6-0.7-1.2-1-1.9c-1.7-4.5-3.2-9-4-13.8
		c-1.2-6.8-0.7-13.7,0.2-20.5c0.8-5.5,2.2-10.8,4.2-16c1.6-4.2,4.1-7.8,7.1-11.1c2.5-2.8,5.3-5.3,8.3-7.7c3.8-3,7.5-5.9,11.3-8.9
		c8.5-6.6,17.9-11.9,28.1-15.4c6.9-2.4,14-3.7,21.3-4.6c3.4-0.4,6.8-0.4,10.2-0.5c0.4-1-0.3-1.4-0.7-1.8c-1.9-2.3-3.6-4.7-4.8-7.4
		c-3.3-7.1-0.9-13.7,6.1-17c4.4-2,9-3.8,13.5-5.7c2.3-1,4.4-2.3,6.2-4.1c3.6-3.5,6.5-7.5,9-11.8c5.6-9.8,10.3-20.1,13.2-31
		c0.7-2.8,1.2-5.6,1.7-8.5c0.5-2.5,0.2-4.8-1-7.2c-3.3-6.6-4.8-13.7-6.1-20.9c-0.9-5.2-1.8-10.4-3.5-15.4c-1.1-3.2-2.4-6.3-3.9-9.3
		c-5-9.7-7.7-20-7.8-30.9c-0.1-8.1,2.1-15.8,5.2-23.3c1.7-4,3.3-8,5.4-11.8c1-1.9,1-3.5-0.5-5.2c-2.4-2.8-4.4-5.9-5.6-9.4
		c-1.3-3.8-3.4-7-6.2-9.9c-4.7-4.9-9.4-9.9-13.8-15c-5.6-6.4-9.7-13.8-13.6-21.4c-4.6-9.1-8.4-18.5-11.5-28.2
		c-2.7-8.3-2.7-16.8-2-25.4c0.3-3.3,0.4-3.3-2.9-2.4c-4.6,1.2-7.9-0.1-10.4-4.2c-1.6-2.7-2.4-5.6-2.3-8.7c0.3-7.5,1.3-14.9,3-22.3
		c2.9-13.2,7.4-25.8,13.3-37.9c1.1-2.4,1.6-4.9,1.9-7.4c0.2-1.1-0.2-2-1.1-2.7c-3.6-2.7-5.6-6.5-6.9-10.7c-1.5-4.8-2.4-9.8-2.9-14.8
		c-1.3-13.9-4-27.5-7.6-41c-3.5-13.1-6.8-26.1-9.7-39.4c-1.6-7.3-3.3-14.5-4.1-21.9c-0.8-6.6-0.7-13.2-0.1-19.9
		c0.3-3.3,0.5-6.7,1.6-9.9c0.4-1.1,0.7-2.2,1.3-3.1c2.6-4,5.4-8,9-11.1c4.4-3.8,9.8-5.2,15.5-5.6c3.4-0.2,6.7,0.3,10,0.6
		c9.6,1.1,19.2,2.5,28.8,3.3c11.1,0.9,22,3.2,32.6,6.6c1.5,0.5,3.1,0.9,4.6,1.2c8.1,1.7,15.8,4.6,23.6,7.2c2.4,0.8,4.8,0.9,7.3,0.5
		c7.1-1.3,14-3.5,20.9-5.2c8.3-2.1,16.8-2.5,25.2-2.1c4.7,0.2,9,2.1,13.1,4.3c6.1,3.3,11.8,7.1,14.9,13.4c3.3,6.7,7,13.1,9.3,20.2
		c0.5,1.6,0.9,2,2.7,1.7c4.6-0.8,8.5,1,12.1,3.6c3.5,2.5,6.9,5.2,10.1,8.1c0.5,0.5,1.1,1,1.5,1.5c3.7,4.8,8.6,8.3,13.1,12.3
		c3.8,3.4,8.5,4.5,13.6,4.1c7.7-0.5,14.8,1.3,21.1,5.7c1.5,1,2.7,2.4,3.9,3.9c1.5,1.9,3,3.7,4.6,5.6c0.9,1,1.2,1,2,0
		c0.7-1,1.4-2,2.1-2.9c3.4-4.7,7.7-8.5,12.5-11.8c3.1-2.1,6.5-3.4,10.3-3.8c3.4-0.3,6.3,0.7,8.5,3.5c1.6,2,2.8,4.3,3.9,6.6
		c1,2,1.2,2.1,2.9,0.7c3.6-2.9,7.4-5.6,11.5-7.8c5.3-2.9,10.9-5.1,16.7-6.6c2.9-0.7,5.9-0.7,8.8,0c4.6,1.1,7.4,3.9,8.4,8.5
		c0.4,1.9,0.7,3.8,0.9,5.7c0.2,1.3,0.7,2.3,1.8,2.9c4.5,2.9,8.8,6.1,13.5,8.8c3.6,2,3.7,2,5.6-1.6c4.5-8.3,9.3-16.4,15.4-23.7
		c4.1-5,8.6-9.7,13.4-14.1c3.7-3.5,8.2-5.8,12.9-7.8c6.4-2.8,12.8-5.5,19.5-7.3c2.1-0.6,3.7-1.7,5.1-3.4c1.4-1.8,3.1-3.2,4.8-4.6
		c5.8-4.8,11-10.2,16.5-15.4c4-3.7,8.5-6.8,14.1-7.7c4.6-0.7,8.9,0.3,12.7,3c1.3,0.9,2.1,2.2,2.9,3.5c0.5,0.8,1,1.7,1.4,2.5
		c0.6,1,1.3,1.3,2.4,1c2.5-0.7,5-1.1,7.4-2c8.8-3.2,17.8-5.1,27-6.6c8.5-1.5,17-2.9,25.5-4.5c3.2-0.6,6.4-0.6,9.6-0.8
		c6.5-0.4,13.1-0.5,19.7-0.7c6.7-0.2,12.8,1.7,18.6,4.8c2.5,1.3,4.6,3.2,6.1,5.6c0.1,0.2,0.2,0.4,0.4,0.6c4.5,4.5,5.1,10.5,5.9,16.4
		c0.9,6.5,0.3,12.9-0.4,19.4c-1,10.7-2.3,21.3-3.9,31.9c-1.6,11.2-4.5,22.1-8.3,32.7c-0.5,1.4-1,2.7-1.4,4.1
		c-0.7,2.2-0.5,2.5,1.7,2.7c2.1,0.2,4.3,0.3,6.4,0.8c1.1,0.3,2.2,0.6,3.2,1c3.9,1.6,5.8,4.9,5.1,9c-1.5,8.9-4,17.4-8.1,25.5
		c-4.9,9.5-10.9,18.2-17.1,26.9c-1.1,1.5-2.2,3-3.3,4.4c-1.5,2-1.6,2.2-0.3,4.2c3.6,5.6,5.8,11.7,7.3,18.2c0.6,2.3,1,4.7,1.4,7.1
		c0.6,3.9,0.1,7.8-1.2,11.6c-1.3,3.7-3.7,6-7.9,6.2c-2.3,0.1-4.6,0.6-6.9,0c-1.3-0.3-1.8,0.2-1.9,1.8c-0.5,12.9-4.5,25-8,37.2
		c-1.5,5.2-3.9,10.1-6.1,15.1c-0.9,2-1.1,4-0.4,6c2.1,5.8,2.6,11.8,2.1,17.9c-0.6,6.6-1,13.2-2,19.8c-1.3,8.8-4.4,16.9-8.5,24.8
		c-3.9,7.4-9.1,13.9-14.8,20c-1.8,1.9-2.9,4-3.1,6.6c-0.4,5.7-2.9,10.6-6.1,15.2c-3,4.2-4.8,8.9-5.6,14.1
		c-1.7,9.8-2.4,19.7-2.8,29.6c-0.3,6.7-1.2,13.4-2.1,20c-0.2,1.7-0.5,3.5-0.6,5.2c-0.4,4.8-1.9,9.3-4.5,13.3
		c-2.5,3.8-3.2,7.6-2.5,12.1c0.8,5.2,1.1,10.5,1.6,15.7c0.1,1.4,0.3,2.7,1.1,3.9c4.3,7.2,8.3,14.6,13.6,21.2
		c4.4,5.6,9.2,10.9,13.5,16.5c4.9,6.5,10.9,11.7,16.8,17c2.2,2,4.7,3.9,6.1,6.7c0.4,0.8,1.2,1,2,1c8,0.2,15.8,1.4,23.4,3.6
		c8.3,2.4,16.4,5.5,23.9,9.8c7.1,4.1,13.8,8.6,20.4,13.4c1,0.8,2,1.6,2.8,2.6c5.7,7.1,11.1,14.5,15.6,22.4c1.2,2.1,2.2,4.3,3.3,6.4
		c2,4.2,2.5,8.5,1.8,13.1c-1.3,8.9-3.7,17.5-7.1,25.8c-1.9,4.6-5.1,8.5-8.3,12.2c-2.4,2.8-5.2,5.2-8.4,7.1c-2.2,1.3-3.9,3-5.2,5.1
		c-2.8,4.6-6.4,8.6-10,12.5c-3.7,4-8.3,6.5-13.4,8c-3,0.8-4.4,0.1-6.5-2.2c-2.5-2.9-3.9-6.2-4.6-9.9c-0.1-0.5-0.3-1.1-0.4-1.8
		c-1.4,0.5-2.2,1.5-3.1,2.3c-2,1.9-3.9,4-6.2,5.6c-4.3,2.8-8.2,1.8-10.5-2.8c-1.8-3.6-2.9-7.5-2.6-11.6c0.3-3.2-1-5.2-3.8-6.4
		c-1.2-0.5-2.4-1.2-3.7-1.8c-3.4-1.5-5.6-4.1-6.8-7.7c-0.9-2.6-1.5-2.7-3.4-0.6c-1.6,1.8-2.2,4-3,6.2c-1.9,5.7-5.1,10.5-9.9,14.1
		c-3.6,2.7-8,2-10.7-1.7c-1.3-1.8-2.2-3.7-2.8-5.8c-0.3-1.2-0.6-2.3-0.7-3.5c-0.2-2.9-1.7-4.6-4.1-6c-5.9-3.4-10.7-8-14.5-13.7
		c-0.5-0.8-1-1.1-1.9-1.1c-0.6,0-1.3,0-1.9,0c-144.3,0-288.6,0-433,0c-0.6,0-1.3,0-1.9,0c-1,0-1.6,0.4-2.1,1.3
		c-3.6,5.5-8.4,9.8-13.9,13.3c-0.5,0.3-1.1,0.6-1.7,1c-1.7,0.9-2.6,2.3-2.8,4.2c-0.3,2.7-0.9,5.4-2.1,7.8c-1,2-2.2,3.9-4.3,5
		c-2.7,1.3-5.4,1.4-7.9-0.6c-4.4-3.5-7.7-7.8-9.6-13.2c-0.4-1.2-0.8-2.4-1.2-3.6c-0.5-1.4-1.2-2.6-2.2-3.7c-1.7-2-2.3-1.9-3.2,0.5
		c-1.3,3.5-3.5,6.3-7,7.9c-1.7,0.8-3.4,1.7-5.1,2.6c-1.6,0.8-2.3,2.1-2.1,3.9c0.3,3.9-0.6,7.6-1.8,11.3c-0.5,1.5-1.3,2.9-2.4,4.1
		c-2.3,2.4-4.9,2.9-7.8,1.3c-2.1-1.2-3.9-2.8-5.6-4.4C187.2,741.4,185.8,740,184,738.2z"/>
</g>
<g>
	<path class="st0" d="M484.1,498.6c1.1-4.5,1.3-8.9,0.7-13.5c-0.6-3.6-1-7.2-1.6-10.8c-0.2-1.3-0.5-2.8-1.1-4
		c-1.8-4.2-3.7-8.6-7.2-12c-0.4,0.1-0.8,0.3-1.2,0.6c-4.1,3.1-8.8,3.9-13.8,4.3c-2.8,0.2-5.5-0.4-8.1-1.3c-1.1-0.4-2.1-0.4-3.2,0.3
		c-2.5,1.8-5.2,3.1-8,4.1c-0.8,0.3-1.1,0.9-1.1,1.7c-0.1,3.8-1.1,7.4-1.8,11.1c-0.8,3.8-1,7.7-0.7,11.6c0.5,6.3,2.1,12.4,3.6,18.4
		c0.2,1,0.7,1.9,1.1,2.8c3.2,7.4,7.4,14.2,12.2,20.7c2.8,3.7,6.5,6.4,10.6,8.1c6.2,2.5,12.7,3.6,19.5,2.9c0.6-0.7,1.3-0.8,2.1-0.4
		c0,0,0,0,0.1,0c5-0.8,9.8-2.4,14.6-4c5.3-1.8,10.3-4.1,14-8.4c0.3-0.3,0.6-0.5,0.8-0.8c2.3-2,4.2-4.2,5.8-6.9
		c3.1-5,5.6-10.3,8.1-15.7c1.7-3.7,2.1-7.4,1.7-11.4c-0.2-2.1-0.6-4.2-0.7-6.4c-0.3-7.9-2.8-15.3-4-22.9c-0.1-0.9-0.7-1.5-1.6-2
		c-2.1-1.1-4.2-1.3-6.6-0.8c-3.3,0.8-6.7,0.8-10.1,1c-4.3,0.2-8.4-1.1-12.3-2.9c-1.8-0.8-2.1-0.6-2.6,1.3c-0.4,1.6-0.5,3.3-1,4.7
		c-1.1,3.5-1.7,7.1-2.1,10.7c-0.4,2.8-0.7,5.7-1,8.6c-0.5,5.5,0.1,11,1,16.5c0.6,3.5,1.1,6.9,1.1,10.5c0,3.9-1.2,5.4-5,6.4
		c-2.3,0.6-3.5-0.1-4.2-2.4c-0.8-3-1-6.2-0.4-9.3C482.6,505.7,483.2,502.1,484.1,498.6z"/>
</g>
<g>
	<path class="st1" d="M515.7,369.2c-5.8-4.9-12.6-7.5-20.2-8.3c-6.9-0.7-13.7-0.7-20.7-0.8c-5.4-0.1-10.4,0.9-15.4,3
		c-3.7,1.6-6.7,3.9-9.4,6.7c-2.1,2.2-3.6,4.9-4.7,7.6c-1.3,3.5-1.3,7.4-0.8,11.1c0.1,1,1.2,1.8,2.5,1.9c0.4,0.1,0.7-0.3,0.8-0.6
		c0.1-0.5,0.1-1,0.1-1.5c-0.4-5.8,1.8-10.8,5.1-15.4c0.8-1.2,1.9-2.3,3.4-3.2c0.3,0.8,0.4,1.6,0.8,2.1c1.6,1.8,3.5,3.3,6.2,3.1
		c1.3-0.1,2.5,0.1,3.8,0.1c5.4,0.3,10.4,1.5,14.7,4.9c0.4,0.3,0.8,0.6,1.2,0.8c0.5,0.3,1,0.1,1.3-0.1c0.4-0.3,0.8-0.6,1.1-1.1
		c2.3-2.8,5.2-4,8.8-4.1c2.8-0.1,5.7-0.3,8.6-1.1c1.7-0.6,3.3-1,4-3c0.4-1.3,1.7-1.7,3-1.8c2.3-0.1,3.9,0.8,5.2,2.5
		c2.1,2.8,3.2,5.9,3.4,9.4c0.1,1.8,0,3.8,0.1,5.7c0,0.6-0.2,1.4,0.6,1.6c0.4,0.1,0.9-0.3,1.3-0.5c1.1-0.6,1.6-1.6,1.6-2.8
		C522.7,379.1,520.8,373.5,515.7,369.2z"/>
	<path class="st1" d="M507.1,402.2c-3.3,1.6-6.7,1.9-10.1,0.5c-1.1-0.5-2.2-1.1-3.6-1.1c-0.6,1.5-0.7,3,0.6,4
		c2.5,2.1,5.5,3.6,8.9,2.5c2.5-0.8,4.9-1.9,6.8-3.8c1.1-1.1,1.9-2.3,1.7-4.4C509.7,400.9,508.4,401.6,507.1,402.2z"/>
	<path class="st1" d="M475.2,400.9c-0.8-0.1-1.3,0.5-1.9,1c-5.5,4.2-12,4.4-17.8,0.5c-0.6-0.4-1.2-0.9-1.8-1.3
		c-0.3-0.1-0.7,0.1-1.1,0.1l0.2-0.2l-0.2,0.1c0.4,0.6,0.7,1.3,1.1,2c1.9,4.1,5.1,6.5,9.7,6.7c4.8,0.1,8.8-1.6,11.5-5.8
		c0.1-0.2,0.2-0.4,0.4-0.6C475.6,402.4,475.6,401,475.2,400.9z"/>
	<path class="st1" d="M483.7,407.8c-0.1-0.2-0.2-0.5-0.4-0.6c-0.1-0.1-0.4-0.3-0.6-0.3s-0.4,0.2-0.6,0.4c-0.5,0.9-0.2,2-0.2,2.9
		c0.2,2.6,0.4,5.2,0.6,7.9c0,0.2,0.1,0.5,0.1,0.7c0.3,1,1.3,1.7,2.3,1.6s1.8-0.9,1.9-2c0.1-1.5-0.3-3-0.8-4.4
		C485.3,412,484.5,409.9,483.7,407.8z"/>
	<path class="st1" d="M428.3,284.2c0.1,0.3-0.4,0,0,0.2c0.3,0.1,0.4,0,0.3-0.3C428.3,283.8,428.6,284.3,428.3,284.2z"/>
	<path class="st1" d="M422.7,271.4c-3-3.2-6.5-5.9-10.2-8.3c-3.6-2.3-7.4-4.3-11.6-5.2c-6.4-1.4-12.7-1-19,0.4
		c-5.6,1.2-10.5,3.8-15.5,6.7c-3.4,1.9-6.5,4.2-9.3,6.9c-0.9,0.8-1.7,1.8-2.2,3c-3.2,6.9-6,14.1-8.4,21.3c-0.3,0.9-0.8,1.8-0.5,2.8
		c0.6,0.1,0.8-0.3,1-0.6c5.9-8.6,13.4-15.9,20.7-23.4c1.4-1.5,3-2.6,4.9-3.5c3.5-1.6,7.2-3,11-3.7c9-1.5,17.4-0.7,25.2,4.6
		c6.7,4.6,6.9,4.4,12,10.1c3,3.4,3.3,3.7,7.5,1.4C428.5,279,426,275,422.7,271.4z"/>
	<path class="st1" d="M390.6,327c-2.3,0.4-4.5,0.2-6.7-0.6c-5.7-2.1-11.2-4.5-15.9-8.4c-0.6-0.6-1.3-1.1-2.1-1.6
		c-0.3-0.2-0.7-0.4-1-0.3c-2.7,0.5-4,2.3-3.7,5.1c0.1,0.8,0.3,1.7,0.4,2.6c0.1,1.2,0.8,2,1.8,2.7c6,3.9,12.5,6.2,19.8,6.7
		c6.7,0.4,12.9-1.4,19.2-3.3c0.7-0.2,1.5-0.6,1.9-1.1c2-2.3,4.1-4.3,5.9-7.9c-1.6,0.6-2.3,0.8-2.9,1.2
		C402.1,324.9,396.4,326.1,390.6,327z"/>
	<path class="st1" d="M539.8,274.8L539.8,274.8C539.8,274.7,539.8,274.7,539.8,274.8C539.8,274.7,539.8,274.7,539.8,274.8z"/>
	<path class="st1" d="M560.2,264.8c5.8-3,11.9-3.7,18.3-2c1.7,0.5,3.4,1,5,1.5c8.4,2.5,15.6,6.7,21.3,13.5c0.4,0.5,0.8,1.3,1.8,1.1
		c0.4-1.6-0.1-3-0.7-4.3c-0.9-1.9-2-3.8-3-5.7c-1.1-2.3-2.8-4.1-5-5.5c-5.2-3.3-10.5-6.3-16.3-8.6c-1.1-0.4-2.2-0.7-3-1.4
		c-0.9-0.8-1.9-1.1-3-1.3c-2.8-0.4-5.7-0.7-8.6-0.3c-2.3,0.3-4.7,0.6-6.7,2.1c-2.8,2-5.5,3.9-8.2,5.9c-4.4,3.4-8,7.6-11.3,12.1
		c-0.6,0.8-1.2,1.6-0.8,2.5l0,0h0.1c3-3,6.7-4.8,10.8-6.2C553.9,267.3,557.1,266.4,560.2,264.8z"/>
	<path class="st1" d="M539.9,274.6L539.9,274.6C540,274.7,540,274.6,539.9,274.6z"/>
	<path class="st1" d="M539.8,274.6L539.8,274.6C539.9,274.6,539.9,274.6,539.8,274.6C539.9,274.6,539.9,274.6,539.8,274.6
		L539.8,274.6z"/>
	<path class="st1" d="M607.9,298.9c-0.8-0.5-1.7-0.3-2.5,0.2c-1,0.6-1.5,1.6-2.1,2.6c-3.9,6.2-9,11-15.6,14.2
		c-1.7,0.8-3.5,1.4-5.2,2.3c-4.3,2.3-8.9,2.3-13.6,1.6c-1.8-0.3-3.7-0.8-5.5-1.1c-2-0.4-3.5,1-3.5,2.9c0.1,2.1,2,4.4,4,4.9
		c2.2,0.5,4.5,0.6,5.8,0.6c4.8-0.1,8.7-0.3,12.4-1.6c5.7-2.1,11-4.9,15.7-8.6c4.5-3.5,7.9-8,10.5-13.1c0.4-0.8,0.7-1.6,0.6-2.5
		C609.1,300.2,608.7,299.4,607.9,298.9z"/>
</g>
<g>
	<path class="st2" d="M740.2,180.8C740.4,180.8,740.2,180.8,740.2,180.8L740.2,180.8z"/>
	<path class="st2" d="M769,158.2c3.3-4.1,6.7-8.1,9.3-12.7c4.6-7.9,8.3-16.4,10.9-25.1c0.8-2.8,1.6-5.6,1.8-8.4
		c0.4-5.2,0.9-10.5,1.3-15.8c0.4-6,0.4-12-0.1-18.1c-0.5-6.2-0.6-12.2-0.6-18.4c0-1.3,0.1-2.5,0.2-3.8c0.1-1.8-0.1-2.1-2-2.5
		c-1.5-0.4-3-0.6-4.5-0.6c-13.5-0.8-27.1-0.5-40.6,0.9c-3.3,0.4-6.7,1-10.1,1.6c-9.7,1.6-19.1,4.1-27.8,8.8c-4,2.1-8,4.2-12,6.3
		c-4,2.1-7.7,4.7-11,7.9c-1.3,1.3-2.7,2.7-4,4c-0.8,0.8-1.7,1.6-2.7,2.1c-3.5,1.9-7.4-0.5-7.4-4.5c0-0.5,0.1-1,0.1-1.5
		c0.6-3.6,1.2-7.2,1.8-10.8c0.1-0.7,0.4-1.5-0.1-2.2c-0.6-0.2-1.2,0.1-1.8,0.4c-4.5,2-8.6,4.7-12.2,8.1c-3.9,3.8-7.5,7.7-10.5,12.2
		c-2,2.8-4.5,4.6-7.9,5.4c-0.4,0.1-0.7,0.1-1.1,0.2c-9.3,2.5-17.9,6.4-25.6,12.4c-5,3.9-9.3,8.4-13.3,13.2
		c-5.5,6.7-10.4,13.8-15.3,21c-0.4,0.5-0.8,1-0.6,1.8c0.3,0,0.6,0.1,1,0.1c5-0.9,10-1,15-0.7c0.1-0.1,0.2-0.3,0.3-0.4
		c0.3-0.4,0.8-0.6,1.2-0.9c2.8-2,5.1-4.5,6.4-7.6c1.5-3.4,3.8-6.1,6.8-8.3c5.2-3.8,10.7-6.9,17.3-7.6c2-0.2,3.9-0.8,5.9-1.1
		c1.3-0.2,2.5-0.4,3.8-0.6c0.4-0.1,0.8-0.3,1.1-0.4c7.6-2.7,15.3-3.8,23.3-3.3c1.2,0.1,2.5,0.4,3.9-0.1c-0.5-1.7,0.2-3.3,0.1-5.1
		c-0.4-3.9,2.2-6.7,6.1-7.1c2.8-0.3,5.2,0.5,7.4,2.2c1.1,0.8,2,1.8,2.9,2.9c1.8,2,3.4,4,5.2,6c0.7-0.4,1.3-0.6,1.8-0.9
		c4.1-2.5,8.5-4.3,13.2-5.5c4-1,7.9-2.3,11.8-3.8c2.2-0.8,4.5-1.6,6.7-2.3c3.3-1,6.4-2.3,9.3-4c5.7-3,11.3-6.1,16.6-9.6
		c1.6-1.1,3.2-2.1,5-2.7c5-1.8,9.5,0.8,10.5,5.9c0.1,0.5,0.1,1,0.2,1.5c0.4,3.3,0.1,6.5-0.7,9.7c-1.7,6.8-2.1,13.7-1.3,20.5
		c0.9,7.5,0.6,15-0.4,22.5c-1.5,10.2-4.7,19.8-9.4,28.8c-1.3,2.5-3,5-5.1,6.9c-2.8,2.6-5.7,5.2-8.6,7.9c-0.6,0.5-1.1,0.9-1.7,1.5
		c-0.4,0.4-0.1,1.1,0.4,1.1c1.5,0.3,3,0.4,4.5,0.8c3.6,1,5.7,3.6,5.9,7.4c0.1,1.6-0.1,3.3-0.5,4.8c-0.5,1.9-1,3.9-1.6,5.8
		c-1.8,6.4-3,13-3.5,19.6c-0.4,4.7-0.8,9.5-1.3,14.2c-0.4,5.6-1.8,10.8-4,15.5c1.8,8.2,3,16.5,2.8,25c-0.1,2.4,0,4.7-0.1,7.2
		c0,0.8,0.1,1.8-0.1,2.6c-0.9,3.8-0.7,7.6-0.2,11.3c1.8,2.3,3.6,4.7,5.3,7.2c0.1,0.1,0.2,0.3,0.3,0.4c0.4,0.7,0.8,1.4,1.7,1.8
		c0.6-0.5,0.8-1.2,1-1.9c0.1-0.3,0.2-0.6,0.3-0.9c1.2-3.8,2.3-7.5,3.8-11.2c2.5-6.2,3.6-12.8,4.7-19.3c0.2-1.1,0.3-2.3,0.1-3.4
		c-0.5-3.3-1.1-6.4-2.5-9.4c-1.6-3.5-2.8-7.2-4-10.9c-0.3-0.7-0.4-1.5-0.4-2.2c0-2.4,1.3-4.4,3.6-5.2c0.7-0.3,1.5-0.4,2.2-0.4
		c2.1-0.2,4.2-0.4,6.4-0.6c3.2-0.3,6.4-0.6,9.9-0.9c-1.3-3.4-3-6.1-5.8-8c-1.6-1.1-3.4-2.2-5-3.4c-1.1-0.8-2.2-1.7-3-2.8
		c-2.8-3.5-1.8-8.1,2-10.4c0.6-0.4,1.1-0.6,1.7-0.8c3.9-1.3,7-3.8,9.8-6.7c5.4-5.7,9.7-12.2,13.9-18.7c0.8-1.2,1.2-2.5,1.6-3.8
		c0.9-3.3,1.8-6.5,2.7-9.8c0.9-3.6,1.6-4-3-3.5c-5.6,0.6-11-0.1-16.1-2.5c-1.5-0.7-2.9-1.5-4.1-2.6c-2.5-2.4-3-5.9-1.2-8.9
		C767.7,159.7,768.4,159,769,158.2z"/>
	<path class="st2" d="M737.4,183.4C737.2,183.4,737.4,183.5,737.4,183.4L737.4,183.4z"/>
	<path class="st2" d="M741.1,178.6L741.1,178.6L741.1,178.6z"/>
	<path class="st2" d="M740.3,181C740.3,181,740.2,181,740.3,181L740.3,181C740.2,181,740.3,181,740.3,181z"/>
	<path class="st2" d="M663.5,652.2c-2.9-2.3-5.2-5-7.4-8c-0.7-3.2-3.4-4.8-5.4-7.1c-0.1-0.1-0.5-0.1-0.7-0.1s-0.4,0.4-0.4,0.5
		c0,1.3,0.1,2.8,0.2,4.1c0.4,4.3,2.1,8.3,3.6,12.2c2.5,6.5,3.5,13.2,2.8,20c1-1.3,1.9-2.8,2.9-4.2c0.5-0.7,1-1.5,1.5-2.2
		c0.1-0.3,0.4-0.6,0.5-0.8c0.5-0.8,1.1-1.6,1.6-2.3c0.1-0.1,0.1-0.1,0.1-0.1c2-2.8,4-5.6,6-8.3c-0.7-0.5-1.4-1-2.1-1.5
		C665.9,653.8,664.7,653.1,663.5,652.2z"/>
	<path class="st2" d="M232.1,336.9c-3.9-9.1-6.2-18.5-5.8-28.5c0.1-2.1-0.1-4.3,0.2-6.4c0.4-2,0.5-4,0.5-5.9c0-2.9-0.1-5.8,0.1-8.6
		c0.1-2.4-0.3-4.7-0.8-7.1c-0.8-3.2-2.1-6.1-3.9-8.6c-0.1,0.1-0.3,0.4-0.4,0.5c-1.3,1.3-2.8,2.1-4.7,1.6c-1.9-0.4-3-1.8-3.5-3.6
		c-0.6-2.5-1-5-0.5-7.4c0.4-2.1,0.8-4.2,1.5-6.2c3.8-12.4,9.9-23.6,17.3-34.1c2.5-3.5,5.2-6.7,8.9-9.1c0.6-0.4,1.1-1,1.6-1.5
		c4-4.2,8.6-7.2,13.7-9.8c0.8-0.4,1.6-0.7,2.3-1.1c0.4-0.3,0.8-0.7,0.5-1.3c-1.2-2.5-2-5.2-2-7.9c0-0.7-0.4-1.2-1.1-1.3
		c-0.7-0.1-1.5-0.3-2.2-0.4c-9.2-1.8-17.4-5.6-24.1-12.2c-5.7-5.6-10.5-11.9-14.2-18.9c-4.2-8-7.3-16.5-9.1-25.4
		c-0.6-3.2-1.1-6.4-1.6-9.6c-1-6.9-1.3-13.7-1.1-20.7c0.1-1.4,0.1-2.8,0.6-4c1.2-3,4.1-4,6.7-2.2c1.1,0.8,2.1,1.8,3.1,2.7
		c2.1,2.1,4.5,3.6,7.2,4.7c1.4,0.6,2.8,1.2,4.1,1.8c3.5,1.6,7.1,2.1,11.1,2.3c0.2-0.2,0.4-0.4,0.6-0.6c0.4-0.5,0.8-0.9,1.1-1.5
		c-0.1-0.3-0.3-0.6-0.4-0.8c-0.8-1.8-1.8-3.6-2.5-5.5c-0.6-1.6-1.5-2.8-2.7-4c-3.6-3.7-7.4-7.2-11.3-10.5c-1.4-1.2-2.8-2.5-3.9-4
		c-3.5-5-1.7-11,3.9-13.5c1.9-0.8,3.9-1.1,5.9-0.9c5.5,0.3,11,1.2,16.1,3.3c2.1,0.8,4,1.2,6.2,1.1c4.5-0.2,9,0.2,13.4,1.4
		c2.7,0.7,5.4,1.3,8.1,1.9c4,0.9,7.9,2.5,11.5,4.6c8.4,4.7,15.9,10.9,24.1,16.1c0.3,0.2,0.6,0.4,0.8,0.7c1.8,2.2,4.4,3.3,6.9,4.5
		c3.4,1.6,6.8,3.3,9.7,5.7c0.9,0.8,1.8,2.4,2.9,2.1c1.4-0.5,0.8-2.4,1-3.8c0.7-4.3,0.1-8.5-1.6-12.5c-1.4-3-3-6.1-4.4-9.1
		c-0.4-0.9-0.8-1.8-1-2.8c-0.5-2.8,1.3-5,4.2-5c1,0,2.1,0.1,3,0.5c2.2,0.8,4.4,1.7,6.4,2.8c0.1,0,0.1,0,0.1,0
		c3.1,0.1,6.2-0.4,9.3,0.6c2.1,0.7,4.4,1,6.7,0.8c1.1-0.1,2.3,0,3.3,0.6c1.4,0.9,3,1.3,4.5,1.6c-0.6-3-1.5-5.9-2.5-8.8
		c-2.4-6.9-7.2-11.6-13.5-15c-1.7-0.9-3.5-1.3-5.5-1c-6.2,1.1-12.4,1.9-18.2,4.5c-3.5,1.5-7.2,2.3-10.9,2.7
		c-4.9,0.5-9.8,0.2-14.7,0.1c-4.4-0.1-8.3-1.7-12-4c-0.8-0.4-1.6-0.8-2.3-1.3c-2.5-1.4-5.2-2.5-8-3.2s-5.6-1.3-8.5-1.8
		c-7.9-1.3-15.9-2.5-23.6-4.8c-8.6-2.6-17.4-3.8-26.3-4.3c-6.2-0.4-12.2-0.7-18.3-1.8c-4-0.8-7.9-0.2-11.5,2.3
		c-1.6,1.1-2.6,2.2-3.1,4c-0.8,2.9-1.3,5.9-1.3,8.9c0,4.9,0.4,9.8,0.8,14.7c1.7,14.9,3.8,29.9,6.6,44.7c1.7,8.8,3.6,17.7,6.8,26.2
		c3,8.1,6.6,16,10.1,23.9s7.9,15.4,12,23c1.6,2.9,4.2,4.7,7.6,4.8c2.3,0.1,4.5,1.3,7,1.1c0.4-0.1,0.9,0.3,1.4,0.5
		c0.6,0.2,1.1,0.7,1.3,1.3c0.3,0.9-0.6,1.3-1.1,1.7c-0.3,0.2-0.6,0.4-0.9,0.6c-4.9,2.1-8.9,5.6-13.3,8.5c-1.3,0.8-2.3,1.9-3.1,3.2
		c-4.1,6.2-8.3,12.2-12,18.7s-6.2,13.4-7.9,20.7c-0.9,4-1.3,8.1-1.1,12.3c0,0.5,0.7,0.8,1.1,0.5c1-0.9,2-1.9,3-2.8
		c0.8-0.8,1.6-1.7,2.5-2.3c4.1-2.7,9.5-0.6,10.9,4.1c0.4,1.2,0.5,2.5,0.3,3.8c-0.2,1.5-0.4,3-0.8,4.5c-1.8,6.9-2.8,14-3.4,21.2
		c-0.6,6.2,0.2,12.1,2.5,18c3.2,8.1,7,15.8,12.2,22.8c4.3,5.9,7.8,12.2,11.5,18.5c0.4,0.6,0.4,1.6,1.6,1.3c0.4-1,0.1-2,0.1-2.9
		c-0.1-3.3,0.2-6.4,0.8-9.6C233.4,340,232.7,338.4,232.1,336.9z"/>
	<path class="st2" d="M275.8,549.3c-0.2-0.3-0.6-0.4-0.9-0.6c-0.8,1.1-0.9,2.3-1.1,3.5c-2.5,11-6.9,21.2-14.5,29.8
		c-1,1.1-1.9,2.3-2.8,3.5c-4.6,5.9-10.5,10.3-17.3,13.6c-0.9,0.4-1.8,0.8-2.7,1.3c-0.7,0.4-0.7,1-0.1,1.5c4.9,3.3,10.2,5.9,15.9,7.5
		c6.7,1.8,13.5,2.7,20.5,3c3.9,0.2,7.8,0.6,11.7,0.3c-0.5-0.4-1-0.7-1.6-1c-0.8-0.4-1.5-0.8-2.3-1.2c-1.5-0.6-3-1.3-4.4-2.1
		c-1.6-0.9-3.3-1.8-4.5-3.3c-1.7-2-1.8-2.6-0.2-4.9c0.4-0.6,0.9-1.2,1.3-1.8c1.8-2.5,3.8-5,5-7.9c2.8-6.4,5.3-13,6.6-19.9
		c0.4-2.1,0.8-4.2,1.2-6.2c0.1-0.6,0.2-1.1,0.3-1.6c-3-3.5-5.7-7.2-8.2-10.9C277,551,276.4,550.1,275.8,549.3z"/>
	<path class="st2" d="M382.7,665.7c0.2-2.8,0.6-5.5,0.7-8.2c0.2-6,0.5-12-0.6-18c-0.1-0.8-0.4-1.7-0.6-2.5c-0.2-0.6-0.4-1.1-0.7-1.5
		c-1.6,1.8-2.8,3.4-3.2,4c-4.8,7.9-7.9,16.6-9.6,25.6c-1.1,5.8-1.5,11.5-1.1,17.2h18.9c-0.4-0.8-0.6-1.6-1-2.3
		C383.6,675.4,382.3,670.7,382.7,665.7z"/>
	<path class="st2" d="M720.2,609.7c-3-2.9-5.9-5.7-8.8-8.8c-2.3-2.5-4.5-5-6.6-7.7c-3.2-4-5.9-8.4-8.4-12.9c-2.3-4-4-8-5.2-12.4
		c-0.4-1.5-0.8-3-1.3-4.5c-0.3,0.4-0.6,0.6-0.8,1c-4.3,4.9-9.3,8.4-16.4,7.4c-0.8-0.1-1.4,0.3-1.8,1s-0.7,1.3-1,2.1
		c-2.7,6.1-6,11.8-10.7,16.7c-2,2.1-3.7,4.5-5.5,6.7c-0.3,0.4-0.6,0.8-0.2,1.3c1.8,2.4,2.6,5.4,4.5,7.8c2.8,3.4,5.5,6.9,8.6,10
		c3,3,6.2,6,9.3,8.8c0.1-0.4,0.2-0.8,0.2-1.1c0.1-1-0.1-2-0.2-3c-0.6-3.7-1.3-7.4-1.2-11.2c0.1-4-0.1-8,0.1-12
		c0.1-2.3,0.6-4.7,0.8-7.1c0.1-0.4,0.8-0.6,1.2-0.4c0.3,0.2,0.6,0.4,0.8,0.8c2.3,3.5,5.6,6.1,8.4,9.1c2.4,2.6,5.2,4.7,8.2,6.5
		c2.1,1.3,4.3,2.3,6.5,3.4c1.7-1.4,3.8-1.6,5.9-0.9c0.9,0.3,1.8,0.9,2.6,1.5c1.5,0.9,2.9,1.9,4.4,2.9c2.6,1.7,5.5,2.5,8.6,2.3
		c0.5-0.1,0.9-0.1,1.4-0.1l1-0.4c0.4-0.1,0.8-0.2,1.1-0.3l1.1-0.3c-0.3-0.2-0.5-0.5-0.8-0.7C724.3,613.3,722.2,611.6,720.2,609.7z"
		/>
	<path class="st2" d="M651.9,580.8c0.1-0.1,0.3-0.3,0.4-0.4c0.1-0.1,0.3-0.4,0.4-0.5c0.1-0.1,0.3-0.3,0.4-0.4
		c0.1-0.2,0.3-0.4,0.4-0.6c0.1-0.1,0.2-0.3,0.4-0.4c0.1-0.2,0.3-0.4,0.4-0.6c0.1-0.1,0.2-0.3,0.3-0.4c0.1-0.2,0.3-0.4,0.4-0.6
		c0.1-0.1,0.2-0.3,0.3-0.4c0.1-0.2,0.3-0.4,0.4-0.6c0.1-0.1,0.1-0.3,0.3-0.4c0.1-0.2,0.3-0.5,0.4-0.7c0.1-0.1,0.1-0.2,0.2-0.4
		c0.2-0.4,0.4-0.8,0.6-1.1c1.6-3.3,2.8-6.7,4-10.2c0.6-1.8,1.2-3.5,2-5.3c1.4-3.1,4-4.8,7.3-5.2c0.5-0.1,1-0.1,1.5-0.1
		c1.2,0.1,2.2-0.5,3-1.3c1-1.1,1.9-2.1,2.9-3.1c0.8-0.9,1.7-1.8,2.5-2.6c1.1-1.2,1.8-2.5,2.2-4.1c0.1-0.2,0.1-0.4,0.1-0.6
		c0.7-4.1,2.1-8,3.8-11.8c0.2-0.6,0.5-1.1,0.7-1.8c0.1-0.2,0.1-0.4,0.2-0.6c0.1-0.4,0.3-0.8,0.4-1.1c0.1-0.3,0.1-0.5,0.2-0.8
		c0.1-0.4,0.2-0.7,0.4-1.1c0.1-0.4,0.2-0.6,0.3-1c0.1-0.3,0.1-0.6,0.2-0.8c0-0.1,0-0.1,0-0.1c0.4-1.6,0.7-3.1,0.7-4.7
		c0-0.6,0-1.2,0-1.8s0-1.2,0-1.8s0-1.3,0-2c0-0.6,0-1.2,0-1.8c0-0.6-0.1-1.3-0.1-2c0-0.6-0.1-1.2-0.1-1.8c-0.1-0.6-0.1-1.3-0.1-2
		c-0.1-0.6-0.1-1.2-0.1-1.8c-0.1-0.6-0.1-1.3-0.2-2c-0.1-0.6-0.1-1.2-0.1-1.8c-0.1-0.7-0.1-1.3-0.3-2c-0.1-0.6-0.1-1.1-0.2-1.7
		c-0.1-0.7-0.2-1.3-0.4-2.1c-0.1-0.6-0.2-1.1-0.3-1.7c-0.1-0.7-0.3-1.4-0.4-2.1c-0.1-0.6-0.2-1.1-0.4-1.7c-0.4-1.8-0.6-3.6-0.8-5.4
		l0,0c-0.1-0.6-0.1-1.3-0.2-1.9c0-0.2-0.1-0.4-0.1-0.6c-0.1-0.4-0.1-0.8-0.2-1.3c-0.1-0.3-0.1-0.5-0.1-0.8c-0.1-0.4-0.1-0.8-0.2-1.1
		c-0.1-0.3-0.1-0.6-0.2-0.8c-0.1-0.4-0.2-0.8-0.3-1.1c-0.8-2.8-1.3-5.7-1.6-8.7c0-0.1-0.1-0.4-0.1-0.5s0-0.4-0.1-0.5
		c0-0.1,0-0.3-0.1-0.4c0-0.1-0.1-0.4-0.1-0.5s0-0.3-0.1-0.4c0-0.1-0.1-0.4-0.1-0.5s-0.1-0.3-0.1-0.4s-0.1-0.3-0.1-0.5
		c0-0.1-0.1-0.3-0.1-0.4s-0.1-0.4-0.1-0.5s-0.1-0.3-0.1-0.4c-0.1-0.1-0.1-0.4-0.1-0.5s-0.1-0.3-0.1-0.4c-0.1-0.2-0.1-0.4-0.1-0.6
		c-0.1-0.1-0.1-0.2-0.1-0.4c-0.1-0.3-0.2-0.6-0.4-0.9c-0.1-0.4-0.5-0.9-0.1-1.4c0.7-0.2,1.2,0.1,1.7,0.5c1.4,1.1,2.5,2.4,3.4,4
		c0.9,1.8,2.3,3.3,3.9,4.5c1.8,1.3,3.4,3,4.7,4.8c2.1,2.7,4,5.5,5.9,8.2c0.4,0.5,0.5,1.1,1.3,1.3c0.6-0.6,0.3-1.4,0.2-2.1
		c-0.2-1.3-0.5-2.7-0.7-4.1c-1.2-8-0.6-16.1,0.4-24c1.1-9.2,1.8-18.5,2.8-27.7c0.7-6.9,0.6-13.8,1.1-20.7c0.1-0.9,0.1-1.8,0.1-2.8
		l0,0c0-0.9,0-1.8-0.1-2.7V395c-0.1-0.8-0.1-1.8-0.2-2.6v-0.1c-0.1-0.8-0.2-1.7-0.4-2.6c0-0.1,0-0.1,0-0.1c-0.1-0.8-0.3-1.7-0.4-2.5
		c0-0.1,0-0.1,0-0.1c-0.1-0.8-0.4-1.7-0.6-2.5c0-0.1,0-0.1-0.1-0.1c-0.2-0.8-0.4-1.6-0.6-2.5c0-0.1,0-0.1-0.1-0.1
		c-0.2-0.8-0.5-1.6-0.8-2.4c0-0.1,0-0.1-0.1-0.1c-0.3-0.8-0.6-1.6-1.1-2.3c-0.5-0.8-1.1-1.8-1.6-2.6c-0.7-1.1-1.4-2.3-2.2-3.5
		c-1.3-2.1-2.8-4-4.3-5.9c-0.4-0.5-0.9-1.1-1.4-1.6c-3.5-3.5-5.5-7.8-6.4-12.6c-0.7-3.5-1.5-7.2-2.1-10.7
		c-1.6-8.6-4.5-16.7-9.3-24.1c-0.6-0.9-1.1-1.9-1.6-3c-0.3-0.6-0.5-1.4-0.6-2.1c-0.1-2.2,1.6-3.8,3.8-3.8c1.1,0,2,0.4,2.8,1
		c3,1.8,5.7,4.1,7.5,7.2c2.4,4.2,4.8,8.5,7,12.9c0.6,1.1,1.1,2.3,1.6,3.4c0.2,0.4,0.4,0.8,0.6,1.3c0.4,0.7,0.6,1.4,1,2.2
		c0.3,0.6,0.6,1.3,0.8,1.8c0.4,0.8,0.7,1.6,1.1,2.4c0.4,0.8,0.7,1.6,1.1,2.4c0.3,0.6,0.6,1.3,0.8,1.9c0,0.1,0.1,0.1,0.1,0.2
		c0.3,0.6,0.5,1.1,0.8,1.6c0.1,0.2,0.2,0.4,0.4,0.6c0.1,0.3,0.3,0.5,0.4,0.8c0.6,1.1,1.3,2.3,2,3.4c0.1,0.1,0.1,0.2,0.1,0.3
		c0.6,1.1,1.3,2.2,2,3.3c0.7,1.2,1.4,2.4,2.1,3.6c0.4,0.6,0.6,1.1,1.1,1.6c0.3,0.3,0.8,0.2,0.9-0.1c0.3-0.7,0.4-1.4,0.5-2.2
		c0.6-4.2,0.7-8.6,0.7-12.8c0-0.6,0-1.2,0-1.8c0.1-3.8-0.4-7.5-1.3-11.2c-0.2-1-0.4-2-0.7-3c-2.3-9.6-5.7-19-9.8-28
		c-1.9-4.4-4.2-8.6-6.9-12.5c-0.2-0.3-0.4-0.6-0.6-0.9l-0.1-0.1c-0.3-0.4-0.5-0.7-0.8-1.1s-0.6-0.8-0.9-1.3
		c-0.5-0.7-1.1-1.5-1.6-2.2c-0.4-0.5-0.7-1-1.1-1.5c-0.4-0.4-0.6-0.9-1-1.3c-0.4-0.5-0.7-0.9-1.1-1.4c-0.3-0.4-0.6-0.8-0.9-1.3
		c-0.4-0.5-0.7-1-1.1-1.5c-0.3-0.4-0.6-0.8-0.8-1.2c-0.4-0.5-0.8-1-1.2-1.6c-0.3-0.4-0.6-0.7-0.8-1.1c-0.4-0.6-0.9-1.1-1.3-1.7
		c-0.2-0.3-0.5-0.6-0.7-0.8c-0.7-0.8-1.4-1.7-2.1-2.5c-0.9-1.1-1.6-2.2-2.5-3.3c0-0.1-0.1-0.1-0.1-0.1c-0.1-0.1-0.1-0.1-0.1-0.2
		c0,0.1,0.1,0.3,0,0.3c0,0.6,0.1,1.3-0.1,1.8c-0.1,0.4-0.1,0.7-0.2,1.1c0,0.1,0,0.3-0.1,0.4c0,0.2-0.1,0.5-0.1,0.7
		c0,0.1,0,0.3,0,0.4c0,0.2-0.1,0.4-0.1,0.6c0,0.1,0,0.4,0,0.5c0,0.2,0,0.4,0,0.6c0,0.1,0,0.4,0,0.5c0,0.2,0,0.4,0,0.6
		c0,0.1,0,0.4,0,0.5c0,0.2,0,0.4,0.1,0.6c0,0.1,0.1,0.4,0.1,0.5c0,0.2,0.1,0.4,0.1,0.6s0.1,0.4,0.1,0.6c0,0.1,0.1,0.3,0.1,0.5
		c0,0.1,0.1,0.4,0.1,0.5c0.4,2.3,0.6,4.6,0.7,6.9c0.1,2.5,0.4,4.9,0.7,7.3c0.4,2.7,1.1,5.4,2,7.9c1.1,1.2,1.8,1.9,1.8,1.9
		c0.1,0.1,0.1,0.1,0.2,0.2l0.1,0.1l0.1,0.1c0,0.1,0,0.1,0.1,0.1c0,0.1,0.1,0.1,0.1,0.1c0,0.1,0,0.1,0,0.1c0,0.1,0,0.1,0,0.1l0,0l0,0
		c0,0.1,0,0.2,0,0.3s0,0.1,0,0.2s-0.1,0.3-0.1,0.4v0.1c-0.1,0.1-0.1,0.3-0.3,0.4l0,0c-0.4,0.4-0.8,0.6-1.3,0.8l0,0
		c-0.1,0-0.3,0-0.5,0h-0.1c-0.1,0-0.4-0.1-0.5-0.1c0,0,0,0-0.1,0l0,0l0,0c-0.1-0.1-0.3-0.1-0.4-0.1c-0.4-0.1-0.6-0.2-1-0.4
		c-3.2-1.3-8.1,1.9-7.4,5.6c0.2,1,0.1,2,0.4,3c1.3,5,2.2,10.3,4.2,15.2c0.5,1.2,0.6,2.3,0.1,3.6c-1.5,4.7-1.1,9.7-0.8,14.5
		c0.2,3,0.9,5.9,1.3,8.8c0.6,5.1,1.6,10.1,3.1,15c1.3,4.6,3.3,8.9,5.3,13.2c2.2,4.9,4.5,9.8,5.7,15.1c0.8,4.2,1.7,8.3,2.5,12.5
		c0.8,4.4,1.5,8.8,2.3,13.3c0.3,1.6,0.1,3.3-0.4,5c-1.8-0.7-3.7-1.6-5.6-2.1c-4.5-1.5-9.4,2.7-9.7,6.5c-0.1,2.8-0.3,5.5,0.4,8.2
		c1.1,4.9,1.2,9.9,1.8,14.9c0.4,3.5,0.4,7,1,10.4c0.8,5,1,9.9-0.6,14.8c-0.1,0.4-0.3,1.1-0.3,1.6c0,3.6-0.5,7.2-0.7,10.7
		c-0.3,4.9-0.7,9.7-1.6,14.5c-1.3,6.5-2.8,12.9-6.5,18.6c-3.7,5.7-7.3,11.3-12.5,15.9c-0.9,0.8-1.8,1.8-2.7,2.6
		c-2,1.8-2.9,4.2-3,6.7s-0.6,5-0.9,7.4c-0.6,4.2-1.4,8.4-3.3,12.2c-0.8,1.7-1.6,3.3-2.7,4.9c-2.2,3.1-5.1,5.5-7.6,8.3
		c-2.5,2.7-5.5,4.7-8.7,6.4c-5.5,3-11.1,5.8-17.1,7.7c-0.6,0.2-1.2,0.5-1.8,0.8c0.5,0.1,1,0.4,1.4,0.6c2,0.8,3.9,1.7,5.9,2.5
		c1.6,0.7,3.3,1.3,5.1,1.1c5.2-0.6,10.2-2,14.4-4.9c0.7-0.4,1.3-0.9,2-1.4s1.4-1.1,2.1-1.6c1.1-0.8,2.1-1.7,3-2.5
		c0.1-0.1,0.2-0.1,0.3-0.2c0.2-0.2,0.5-0.5,0.7-0.7s0.4-0.4,0.6-0.6c0.1-0.1,0.2-0.3,0.4-0.4c0.8-0.8,1.5-1.6,2.2-2.4
		c1.2-1.4,2.5-2.8,3.8-4.2C651.5,581.2,651.7,581.1,651.9,580.8z"/>
	<path class="st2" d="M590.5,499.1c-1.4-1.1-2.8-2.1-4.2-3.1c-3.3-2.5-7.1-2.8-11-2.5c0,0.1,0,0.1,0,0.2c0.2,2.8,1.4,5.3,2.7,7.7
		c1.1,2.1,1.8,4.1,1.8,6.4c0,5.4,0.2,10.8-0.7,16.1c-0.2,1.1-0.6,2-1.7,2.1c-2.1,0.2-3.3,1.6-4.3,3.3c-0.6,0.9-1.2,1.9-1.8,2.8
		c-0.5,0.7-1.1,1.5-2.1,1.6c-2,0.1-3.5,1.1-5,2.4c-0.8,0.8-1.9,1.1-3,1.5c-3.9,1.4-7.5,3.5-10.3,6.7c-3.8,4.4-7.2,9.1-9.4,14.4
		c-2,4.7-4.7,8.8-7.2,13.2c-1.1,2-2.3,3.9-3.8,5.5c-2.3,2.5-2.3,2.7-5.2,0.7c-0.1-0.1-0.2-0.1-0.3-0.2c-3.9-2.4-7.7-1.9-10.8,1.5
		c-0.6,0.6-1.1,1.4-1.5,2.1c-0.5,0.7-0.8,1.6-1.4,2.2c-1.9,2.1-3,4.6-3.8,7.2c-0.3,0.9-0.6,1.9-0.8,2.9c-0.1,0.2-0.4,0.4-0.6,0.4
		s-0.5-0.1-0.6-0.3c-0.2-0.3-0.4-0.6-0.6-1c-1.8-5-4.5-9.5-6.8-14.2c-1-2.1-2.3-3.9-4-5.5c-2.1-1.8-4.3-2.9-7.2-2.8
		c-2.7,0.1-4.8,1.2-6.7,2.9c-2.8,2.5-4.8,5.5-6.3,8.8c-0.6,1.3-1.4,2.1-2.9,1.9c-1.8-0.1-3.4,0.6-5.1,1.2c-0.9,0.4-1.9,0.7-2.8,1.1
		c-2.5,1.3-4.6,0.3-6.4-1.6c-1.4-1.5-2.2-3.3-2.7-5.3c-1.4-5.6-2.8-11.1-4.8-16.6c-1.3-3.7-3-7.2-5-10.5c-3.5-5.6-8.6-8.4-16.1-6.1
		c-1.7,0.5-3.3,1.3-4.9,1.8c-0.9,0.4-1.8,0.8-2.9,0.6c-0.2-0.6-0.6-1.2-0.6-1.8c-0.1-2.9-1.1-5.7-1.7-8.4c-0.5-2.5-1.6-4.7-3.1-6.8
		c-2.4-3.3-6.7-4.4-10.4-2.8c-1.5,0.7-2.8,1.6-4,2.8c-0.5,0.5-0.8,1.3-2,0.9c0-2.5,0.1-5.2,0-7.8c-0.1-1.8,0.5-3.5,0.7-5.2
		c1.1-7.6,3.3-14.9,5.9-22c1.3-3.8,3.4-7.2,5.7-10.5c0.7-1,1.3-2,1.8-3c-0.7-2.3-1.3-4.5-1.8-6.9c-0.4-1.5-0.7-2.9-1.1-4.4
		c-0.4-1.3-1.3-1.7-2.2-0.8c-4.9,4.6-9.3,9.5-11.8,15.9c-1.4,3.6-2.5,7.4-2.5,11.3c0,3.5-0.9,6.7-3.6,9.1c-0.8,0.8-1.5,1.8-1.9,2.8
		c-2.1,4.5-3.5,9.1-4.2,14c-0.2,1.5,0,2.7,1,3.8c1.3,1.6,2.5,3.1,3.9,4.6c1.8,2,2.5,4.3,2.3,6.9c-0.1,1.5-0.2,3-0.2,4.5
		c-0.1,4,0.7,7.7,2.2,11.4c0.2,0.6,0.4,1.2,1.3,1.5c0.3-1.8,0.6-3.6,0.8-5.4c0.5-3.3,1.3-6.4,2.5-9.4c0.8-1.9,1.8-3.6,3.3-5
		c4.1-3.6,9.3-2.1,10.9,3.2c0.6,2,0.6,4,0.3,5.9c-0.5,3.1-1.1,6.2-1.6,9.3c-1,6-0.2,11.8,3.3,16.9c2.1,3,4.1,6,6.6,8.7
		c2.1,2.2,4.2,4.3,6.8,5.9c0.6,0.4,1.3,0.3,1.6-0.4c0.8-1.7,1.6-3.4,2.4-5.1c1.2-2.5,3.2-3.9,5.9-4c2.8-0.1,4.8,1.2,6.2,3.5
		c0.8,1.3,1.3,2.8,1.4,4.2c0.4,6.4,2.5,12.5,4.2,18.7c0.9,3.4,2.8,6.1,5.3,8.5c4.8,4.5,10.3,8.1,16.2,10.8c1.1,0.5,2.3,0.9,4.2,1.7
		c-0.7-3.3-0.8-5.9-0.4-8.6c0.2-1.4,0.5-2.8,0.8-4.1c0.3-1.1,0.6-2.2,0.8-3.3c0.4-1.4,0.9-2.8,1.6-4.2c0.8-1.8,1.2-3.5,1.3-5.5
		c0.1-2.8,0.5-5.5,1.3-8.1c0.8-2.5,2.1-4.9,4.2-6.6c2.7-2.3,6.4-2.3,8.9,0.1c2.4,2.4,4.5,5.2,5.2,8.6c1.1,5.2,3.1,10.1,4.1,15.2
		c0.1,0.6,0.5,1.1,0.8,1.6c0.6,0.9,1.3,1.8,1.9,2.8c0.6,0.8,1.2,1.6,2.3,1.7c0.5,0.1,0.9,0.4,1.3,0.6c3.8,1.8,5.7,1.2,7.7-2.5
		c1.1-1.8,1.9-3.8,2.8-5.7c1.6-4,2.8-8,3.8-12.2c0.1-0.6,0.3-1.1,0.4-1.7c0.1-0.5,0.1-1,0.3-1.6c0.1,0,0.1,0,0.1,0
		c0.3-0.8,0.6-1.6,1.1-2.4c1.7-2.8,4.5-3.6,7.4-2.1c2,1,3.4,2.5,4.5,4.4c2.3,3.7,3.7,7.6,3.8,12c0,0.4-0.3,1,0.7,1.2
		c1.1-2.5,2.3-5.2,3.5-7.8c1.2-2.7,1.8-5.5,2-8.4c0.1-1.9,0.1-3.8,0.2-5.7c0-0.8,0-1.5,0.1-2.3c0.5-3.4,3.5-4.8,6.4-3.1
		c1.3,0.8,2.3,1.8,3.2,3.1c0.6,0.9,1.2,1.9,1.8,2.8c0.9-0.4,1-1.2,1.1-1.8c0.1-0.8,0.4-1.5,0.5-2.3c-0.1-3,0.4-5.9,1.1-8.9
		c0.4-1.8,0.8-3.5,1.9-4.8c0.1-0.9,0.4-1.8,0.5-2.8c0.6-4.1,1.3-8.1,1.9-12.2c0.4-2.5,1.2-4.8,3.2-6.6c4.3,0.1,5.9,2.5,6.8,6.2
		c0.1,0.5,0.1,1,0.3,1.5c1,4.4,2,8.8,3,13.2c0.1,0.6,0.1,1.3,0.6,1.8c0.4-0.2,0.8-0.5,1.1-0.8c0.5-1.3,0.6-2.8,1.1-4
		c2.7-6.8,4.2-13.9,5.7-21c2-9.2,3.4-18.5,3.5-28c0-3.6-0.2-7.3,1-10.8C592.6,501.8,592,500.3,590.5,499.1z"/>
	<path class="st2" d="M615.3,492.8c0.2,0.8,0.4,1.7,0.7,2.5c0.1,0.4,0.3,0.8,0.4,1.2c0.2-2.4,0.1-4.8-0.6-7.2
		c-0.2-0.6-0.1-1.3-0.3-1.8c-0.8-3.3-0.1-6.4,0.9-9.6c0.6-2,1.9-2.7,3.9-2.8c1-0.1,1.7,0.1,2.4,0.8c1.7,1.4,3,3,3.7,5.1
		c1.4,4.3,2.6,8.6,2.3,13.2c-0.1,1.3,0,2.8,0.1,4.1c0.6,4.5,0.6,9,0.5,13.5c-0.1,4.5-0.7,9-2.1,13.4c-1.3,4.3-2.6,8.6-3.9,13
		c-0.9,3.3-2.1,6.4-4.1,9.2c-0.6,0.8-1.1,1.7-1.3,2.7c-0.3,1.6,0.8,3,2.5,3c1.3,0,2.4-0.7,3.3-1.6c1.8-1.8,3.3-3.8,4.5-6
		c0.1-0.1,0.1-0.3,0.2-0.4c0-0.1,0.1-0.1,0.1-0.2c1.5-2.8,2.8-5.6,4.3-8.4c3-5.8,5.2-12,6.8-18.3c0.4-1.3,0.7-2.8,1.1-4.1
		c0.8-3.5,1.6-7,2-10.6c0.2-1.7,0.9-2.4,2.8-1.1c1.5,1.1,2.5,2.4,3.3,4c0.6,1.4,1,2.8,1.5,4.2c0.1,0.4,0.1,0.8,0.6,0.6
		c0.3-0.1,0.6-0.5,0.7-0.8c0.4-1.3,0.8-2.7,1-4c0.9-5,1.8-9.8,2.6-14.8c0.6-4.1,1.1-8.1,1.5-12.2c0.4-3.6,0.5-7.3,0.6-10.9
		c0.1-4,0-8.1-0.3-12.1c-0.4-5.1-1.2-10.2-1.8-15.3c-0.7-5.2-2.2-10.3-4.1-15.2c-1.5-3.8-2.9-7.7-4.2-11.7s-3.1-7.9-5.5-11.5
		c-1-1.4-1.9-3-2.7-4.5c-2.8-5.5-6.5-10.1-11-14.2c-1.3-1.1-2.5-2.4-3.7-3.8c-1.1-1.3-2.3-2.7-3.5-3.9c-2.6-2.7-5.5-5-8.4-7.4
		c2.8,2.7,5.5,5.5,7.9,8.4c4.4,5.4,7.9,11.3,11.1,17.3c2.9,5.3,5,10.9,6.5,16.8c0.4,1.3,0.4,2.7,0.3,4.1c-0.2,1.8-1.1,3.4-2.8,4.2
		c-3.1,1.3-6.2,1.8-9.3-0.1c-0.8-0.5-1.7-1.1-2.6-1.5c-1.8-0.8-4-1.1-5.5-2.3c-1.6-1.3-2.5-3.4-3.8-5.2
		c-5.4-7.8-12.1-14.4-18.9-20.8c-1-1-2.1-1.9-3.2-2.8c-0.8,0.6-1.9,0.8-3.2,0.5c-1.7-0.4-3.3-1.3-4.7-2.4c-1.1-0.8-2.1-1.8-3.1-2.7
		c-2.5-2.3-5.5-4-8.6-5.2c-4.5-1.7-9-3-13.9-3.3c-2.6-0.1-5.2-0.4-7.9-1c-3.7-0.9-4.9-0.1-6.3,4.1c1.6,0.3,3.2,0.6,4.7,0.8
		c5.6,0.8,11,2.5,16.1,4.9c3.5,1.6,6.7,3.5,9.6,6c3,2.5,6.1,4.8,9.3,6.9c3.7,2.4,6.9,5.4,9.8,8.7c3.2,3.7,6.5,7.4,9.6,11.2
		c7.9,9.9,13.4,20.9,15.6,33.4c0.3,1.8,0.4,3.5,0.4,5.2c0,1.4-0.4,2.8-0.8,4c-1.1,2.8-2.3,3.3-5.1,1c-1.1-1-1.8-2.4-2.5-3.8
		c-2.3-4.5-4.7-8.8-7-13.3c-1.7-3.4-3.8-6.5-6.1-9.5c-0.9-1.2-1.7-2.5-2.5-3.8c-4.1-6.3-8.2-12.6-14.2-17.4
		c-4.5-3.7-8.7-7.6-13.4-11c-1.7-1.2-3.4-2.1-5.5-2.3c-2.1-0.2-4.1-1-6.2-0.7c-0.1,0.8,0.4,1,0.7,1.3c1.3,1,2.6,2,4,2.9
		c8.4,5.7,14.7,13.2,19.8,21.8c1,1.8,1.9,3.5,2.4,5.5c0.6,2.4,0,4-1.7,5.2c0.6,0.6,1.1,1.2,1.7,1.8c1.7,1.7,3.4,3.3,4.9,5.2
		c2.4,2.9,4.6,5.9,6.9,8.9c5.2,6.8,9.8,13.9,12.8,21.9c1.1,2.8,2.1,5.6,3.4,8.4C612.8,484.7,614.3,488.6,615.3,492.8z"/>
	<path class="st2" d="M336.4,471.2c3.8-1.4,7.2,0.8,7.5,4.8c0.1,1.1,0.1,2.3-0.2,3.4c-1.5,5.8-1.4,11.7-1.6,17.6
		c-0.1,4,0.2,8-0.5,12c-0.3,1.8-0.1,3.8,0.1,5.6c1.1,7.6,3.5,14.7,8,20.9c2.8,3.9,5.6,7.6,7.9,11.9c1.8,3.5,5,6.2,6.9,9.8
		c0.3,0.6,0.8,1.1,1.3,1.4c0.4-1.3,0.3-2.7-0.4-4.1c-0.6-1.1-1.2-2.1-2.1-3.1c-2.6-2.8-4.3-6.1-5.2-9.8c-0.4-1.7-0.8-3.4-1.3-5.1
		c-2.5-7.2-3.3-14.6-3.8-22.1c-0.3-4.5,0.3-9,0.9-13.5c0.4-2.6,0.1-5.5,1.6-8c0.2,0.3,2.3-11.6,4-15.9c0.1-0.4,0.1-0.8,0.1-1.1
		c1.3-5.2,1.2-10.6,2.2-15.9c0.9-5,1.8-10.1,3.3-14.9c1.3-4.6,3.2-9.1,5-13.5c-0.8,0.4-2.1-0.2-2.1-1.2c0-0.6,0-1.3,0.2-1.8
		c0.4-1.1,0.9-2.1,1.6-3c4.5-6.4,9.8-12.1,16-16.9c0.4-0.3,0.8-0.6,1.2-0.8c6.6-3.7,12.8-7.9,20-10.3c2.4-0.8,4.5-2.3,6.4-3.8
		c2.4-1.8,4.8-3.6,7.7-4.6c2.8-1,4.5-3.1,5.3-5.9c0.6-2.1,1.1-4.1,1.6-6.2c0.3-1.2-0.4-2.1-1.6-1.9c-0.2,0-0.5,0.1-0.7,0.1
		c-0.3,0.3-0.6,0.5-1,0.7c-4.2,2.5-8.3,5.2-13,6.8c-2,0.7-4,1.4-5.9,2.2c-1.2,1.1-2.5,2.1-4.1,2.7c-1.1,0.4-13.5,5.2-14.7,5.3
		c-0.6,0.1-0.9-0.1-0.9-0.6c-5.7,2.2-11.6,4-17.7,5.4c-5.7,1.3-10.9,3.8-15.5,7.3c-2.6,2-5.1,4-7.4,6.3c-0.7,0.7-1.4,1.4-2.1,2.2
		c0.7,0.4,1.2,1.1,1.6,1.9c0.4,1.2,0.3,2.5,0,3.7c-0.8,3.3-2.2,6.4-3.9,9.3c-1.7,3-3.5,6.1-5.2,9.1c-3.4,6.3-7.1,12.5-11,18.3
		c-2.1,3-3.8,6.2-5.4,9.5c-1.2,2.5-1.8,5.2-2,7.9c-0.5,9,0.7,17.8,3.3,26.4c0.9,3,2.8,5.5,4,8.6c1-1.4,0.7-2.7,0.8-3.9
		c0.3-2.8,0.3-5.5,0.8-8.2c1-5.9,2.6-11.8,4.4-17.5c0.4-1.3,1-2.6,1.6-3.8C333.1,473.2,334.5,472,336.4,471.2z"/>
	<path class="st2" d="M285.9,516.6c-0.8-2.5-1.3-5.1-2.1-7.6c-2.4-8.3-4.4-16.6-4.2-25.4c0-0.6,0-1.3-0.1-1.8
		c-0.6-1.7-0.5-3.5-0.5-5.2c0-1,0.1-2.1-0.1-3c-0.1-1-0.3-2-0.5-3c-0.7,0.4-1.3,1-2.1,1.4c-0.8,0.4-1.6,0.1-1.8-0.6
		c-0.3-0.8-0.5-1.7-0.7-2.5c-0.7-3.8-1.5-7.6-2.1-11.5c-0.8-5-1.7-9.9-1.3-14.9c0.4-5.9,0.9-11.8,1.5-17.6c0.2-1.7,0-3.2-0.6-4.7
		c-1.6-4.7-3.2-9.5-4.7-14.3c-0.1-0.5-0.3-1-0.5-1.4c-0.1-0.4-1.9-1.1-2.3-0.9c-0.5,0.1-0.8,0.6-0.9,1.1c-1.2,4.6-2.8,9.1-3.9,13.7
		c-3.3,14.7-2.9,29.2,1.4,43.5c0.8,2.6,1.6,5.2,2.9,7.7c1.7,3.4,2.5,7.1,2.5,10.9c-0.1,2-0.1,4,0.3,6c0.8,4.6,2,9.1,3.5,13.5
		c2,5.5,4.2,11,6.7,16.4c2.8,6,6,11.9,12,15.6c1.5,1,2.5,2.5,3.2,4.1c0.6,1.3,1.1,2.5,1.6,3.8c2.1,4.7,4.7,9,8.4,12.7
		c0.1-0.4,17.1,9.5,16.6,8.8c-4.1-6-20-25.8-23.2-32.3C292.7,524.6,287.3,521.3,285.9,516.6z"/>
	<path class="st2" d="M389.3,604.6c-0.6-0.6-1.3-0.6-2.1-0.1c-2.2,1.5-4,3.4-5.8,5.3c-1.3,1.4-2.5,2.8-3.8,4.2
		c-1.1,1.1-2.3,1.8-3.9,2.1c-3.2,0.7-6.2,1.8-9.1,3.4c-5.6,3-11.1,2.8-16.2-1.1c-1.4-1.1-2.7-2.3-3.9-3.5c-1.3-1.3-2.5-2.8-3.6-4.3
		c-2.7-3.6-5.7-6.9-9-9.8c0.6,1.3,1.3,2.7,1.6,4.1c1.6,5.9,4.9,11,8,16.1c2.2,3.6,5,6.9,7.8,10.1c2.5,2.8,5.7,4,9.5,2.5
		c1.5-0.6,3-1.3,4.5-2c2.3-1.1,4.4-2.5,6.8-3.2c6-1.7,10.5-5.6,14.9-9.6c3.3-3,5.2-7.1,7.4-10.8c-0.6-0.5-1.1-1-1.6-1.4
		C390.3,605.7,389.8,605.1,389.3,604.6z"/>
</g>
<g>
	<path class="st3" d="M188.6,198L188.6,198L188.6,198z"/>
	<path class="st3" d="M381.1,78.5L381.1,78.5c-0.1,0-0.2-0.1-0.3-0.1c0,0,0,0,0.1,0C381,78.5,381,78.5,381.1,78.5z"/>
	<path class="st3" d="M545.7,102.1L545.7,102.1L545.7,102.1z"/>
	<path class="st3" d="M619.9,142.9c9.4,2.5,18.5,5.7,26.3,11.8c0.4,0.3,0.8,0.6,1.3,0.4c0.1-0.1,0.3-0.1,0.3-0.2
		c0.1-0.5,0.1-1,0.1-1.5c-0.1-4.5,3.6-6.9,6.9-6.9c0.8,0,1.8,0.1,2.6,0c2.9-0.1,5.7-0.4,8.6-0.6c2.1-0.1,3.8-1.1,5.7-1.9
		c1.2-0.6,1.4-1.6,1.3-2.8c-0.1-1.1-0.4-1.8-1.5-2.3c-3.2-1.5-6.4-2.9-9.8-3.6c-3.9-0.8-7.9-1.5-11.8-2.3c-4.8-0.9-9.6-1.8-14.4-2.8
		c-2-0.4-3.9-1.1-5.4-2.5c-3.7-3.4-3-9,1.3-11.4c0.6-0.4,1.4-0.6,2.1-0.8c2.6-0.8,5.2-1.7,7.8-2.6c-1.3,0.2-2.5,0.4-3.8,0.6
		c-2,0.4-3.9,0.9-5.9,1.1c-6.6,0.7-12,3.8-17.3,7.6c-3,2.2-5.3,4.9-6.8,8.3c-1.4,3.2-3.6,5.7-6.4,7.6c-0.4,0.3-0.9,0.5-1.2,0.9
		c-0.1,0.1-0.2,0.3-0.3,0.4c0.2,0,0.5,0,0.7,0.1C607,139.8,613.4,141.2,619.9,142.9z"/>
	<path class="st3" d="M346.9,89.1c3.1,3.8,6,7.7,9.6,11c0.6,0.6,1.1,1.3,1.7,2.1c2.1,2.8,3.5,5.8,3.8,9.3c0.1,1,0.4,2,0.4,3
		c0.4,4,1.6,7.6,3.4,11c0.4,0.6,0.7,1.3,0.9,2.1c0.6,1.7-0.4,3.3-2.2,3.6c-0.7,0.1-1.5,0-2.3-0.1c-0.7-0.1-1.5-0.4-2.2-0.5
		c-1.7-0.4-3,0.4-3.8,1.8c-0.5,0.8-0.9,1.8-1.2,2.8c-1,3.2-0.8,6.4,0,9.7c0.1,0.7,0.8,0.9,1.4,0.6c0.2-0.1,0.4-0.3,0.6-0.4
		c5.5-3.1,11.3-4.7,17.4-5.6c5.6-0.8,11.3-0.7,16.9-0.5c8.4,0.3,16.8,1.3,24.6,4.7c1.2,0.6,2.1,0.4,3.1-0.4c2.1-1.7,4.5-2.7,7.1-3.4
		c6.3-1.7,12.7-3,19.3-2.4c0.3,0,0.5,0.1,0.8,0.1c0.5,0,0.8-0.6,0.6-1.1c-1.1-2.8-3.1-4.8-5.1-6.9c-1.1-1.2-2.4-1.6-4-1.4
		c-2.1,0.3-4.2,0.4-6.4,0.3c-7.2-0.4-13.7-2.8-19.8-6.6c-3.4-2.1-6.8-4.2-10.3-6.3c-3.2-1.9-5.9-4.2-8.2-7.2
		c-1.3-1.6-2.5-3.2-3.8-4.7c-1.3-1.3-2.3-3.3-4-3.9c-1.4-0.6-3.2-0.2-4.8-0.3c-0.1,0-0.3,0-0.4,0c-1.3,0.1-2.8-0.8-3.6,0.1
		c-1.2,1.1,0.4,2.5,0.6,3.8c0.1,0.5,0.4,0.9,0.4,1.4c1,4.5,3.5,8,6.7,11.2c0.6,0.6,1.3,1.2,1.8,1.8c0.2,0.2,0.1,0.7,0.1,1
		c0,0.1-0.4,0.4-0.6,0.4c-1.6,0.3-3.3-0.1-4.7-0.7c-3.5-1.3-6.7-3.4-9.9-5.4c-4.1-2.6-6.8-6.2-8.2-10.8c-1.3-4.5-2.3-9-3-13.6
		c-0.4-2.2-0.7-4.3-1.2-6.5c-1.6-0.4-3.1-0.7-4.5-1.6c-1-0.6-2.1-0.7-3.3-0.6c-2.3,0.1-4.5-0.1-6.7-0.8c-3-1-6.2-0.6-9.3-0.6
		c-0.1,0-0.1,0-0.1,0c1,0.6,2,1.2,2.9,1.9C340.9,83.1,344.2,85.8,346.9,89.1z"/>
	<path class="st3" d="M531.4,415.9c-0.3,0.4-0.6,0.8-0.9,1.2c-1.4,1.8-1.4,2.1,0.2,3.8c2.4,2.5,3.8,5.5,4,9.1c0.3,4.5-2.5,7-6.9,6.8
		c-6.9-0.4-11.6-4.1-15.2-9.8c-1.2-1.9-2-4-2.5-6.2c-1-0.6-1.5,0.2-2.1,0.6c-4.6,3-9.3,5.9-14.2,8.5c-4.7,2.5-9.6,2.6-14.6,1.6
		c-4-0.8-7.7-2.2-11-4.5c-0.8-0.6-1.7-1.1-2.6-1.5c-1.3-0.7-1.6-0.6-2.3,0.8c-1.3,2.7-29,17.2-29.1,14.7c-0.1-1.4,0.4-2.7,1.1-3.9
		c1.1-1.8,2.4-3.3,4-4.5c0.8-0.6,1.6-1.2,2-2.2c0.1-0.4,0.3-0.7,0.4-1.1c0.7-2.1,1.4-4.2,2.2-6.2c-0.8-0.4-1.3,0.2-1.8,0.6
		c-2.9,2.4-6,4.6-8.6,7.3c-5.4,5.5-12.2,8.3-19.4,10.1c-1.8,0.4-3.7,0.7-5.5,1c-2.4,0.4-4.5,1.3-6.3,3c-5.9,5.5-11.2,11.5-14.7,18.9
		c-0.5,1-1,2.1-1.6,3c-1.9,2.7-5,2.6-6.9-0.1c-1.3-1.8-1.6-3.9-1.5-6.1c0.1-1.8,0.6-3.5,1.3-5.1c1.3-2.8,2.8-5.7,4.7-8.1
		c4.1-5.1,8.7-9.7,14.2-13.4c4.8-3.3,9.7-6.2,15-8.6c3.3-1.4,6.1-3.5,8.7-5.9c3.3-3,5.3-6.6,5.5-11.1c-0.4-0.5-0.8-0.5-1.3-0.4
		c-5.4,1.1-10.8,2-16.1,3.5c-7,2-14.2,3.4-21,5.9c-3.9,1.5-7.5,3.4-11,5.6c-1.1,0.7-1.9,1.6-2.7,2.6c-1.1,1.5-2.1,3.1-3.3,4.6
		c-0.4,0.5-0.8,1-1.3,1.3c-0.1,0.1-0.1,0.1-0.2,0.1c-1.8,4.5-3.5,8.9-5,13.5c-1.5,4.9-2.4,9.9-3.3,14.9c-1,5.3-0.9,10.7-2.2,15.9
		c-0.1,0.4,0,0.8-0.1,1.1c-1.6,4.3-3.8,16.2-4,15.9c-1.5,2.5-1.2,5.4-1.6,8c-0.6,4.5-1.2,9-0.9,13.5c0.5,7.4,1.3,14.9,3.8,22.1
		c0.6,1.6,0.8,3.4,1.3,5.1c0.9,3.7,2.6,7,5.2,9.8c0.8,0.9,1.6,1.9,2.1,3.1c0.7,1.4,0.8,2.8,0.4,4.1c0.3,0.2,0.6,0.4,0.8,0.6
		c0.8,0.4,1.6,0.6,2.5,0.6c1.3-0.1,2.2-0.8,2.7-2.2c0.6-1.5,0.4-3-0.1-4.4c-2-4.4-2.6-9.1-3.2-13.9c-1-8.6,0-17.1,1.8-25.4
		c1-4.4,2.8-8.6,5.7-12.2c1.8-2.3,3.3-4.7,4.1-7.6c0.4-1.2,0.9-2.3,1.3-3.5c2.4-8.1,6.8-15.1,12-21.6c2.9-3.6,5.9-7.2,10.5-8.8
		c0.5-0.1,0.8-0.5,1.3-0.8c1.8-1.2,3.8-1.8,5.9-2.1c3.8-0.6,7.4-1.1,11.3-0.7c1.8,0.2,3.5-0.2,5.1-0.9c2.1-0.8,4.2-1.6,6.3-2.4
		c2.3-0.8,4.6-2,6.7-3.5c2.5-1.8,5.2-3.5,7.9-5.2c2.7-1.7,5.6-2.8,8.8-3.1c5-0.4,7.9,2.9,6.8,7.8c-0.2,1.1-0.6,2.1-0.8,3.3
		c1.6,0.1,2.6-0.5,3.5-1.5c1.2-1.4,2.4-2.9,3.5-4.4c2.3-3,4.8-5.8,7.9-8c4.5-3.3,9.2-3.1,13.5,0.4c1.6,1.3,2.9,2.8,4.3,4.2
		c1.3,1.4,2.8,2.5,4.4,3.5c0.8,0.4,1.3,0.5,2-0.3c1-1.2,2.3-2,3.8-2.3c3.3-0.6,6.4-0.8,9.8-0.4c6.2,1,11.9,3,17.1,6.4
		c4.7,3,9.6,5.9,14.4,8.8c6.2,3.7,12.7,6.5,19.4,9.1c0.8,0.4,1.6,0.6,2.5,0.8c1.1,0.3,1.7,0,1.8-1.2c0.1-1.3,0.1-2.8,0.3-4.1
		c0.6-5.4,5.1-7.8,9.8-5.2c0.2,0.1,0.4,0.2,0.6,0.4c0.8,0.8,2,1.1,3.1,1.3c3.9,0.8,6.8,3,9.1,6.3s4.1,6.9,5.5,10.7
		c1.1,2.8,1.8,5.7,2.1,8.8c0.3,3.6,0.7,7.2,1.1,10.8c0.3,2.6,0.5,5.2,0.2,7.9c-0.4,3.5-0.4,7-0.4,10.5c0.1,7.4,0.1,14.8-1.2,22.2
		c-0.1,0.2,0.1,0.5,0.1,0.7c1.1-0.1,1.1-1.3,1.5-2c5.1-11,9.3-22.2,12.5-33.8c0.6-2.1,1-4,1.2-6.1c-0.1-0.4-0.3-0.8-0.4-1.2
		c-0.3-0.8-0.5-1.7-0.7-2.5c-0.9-4.2-2.5-8.1-4.2-12c-1.3-2.7-2.3-5.5-3.4-8.4c-3-8-7.6-15.2-12.8-21.9c-2.3-3-4.5-6-6.9-8.9
		c-1.5-1.8-3.3-3.5-4.9-5.2c-0.6-0.6-1.1-1.1-1.7-1.8c-0.4,0.3-0.8,0.6-1.3,0.8c-0.1,0.1-0.2,0.1-0.4,0.1c-4,1.8-5.5,1.6-8.7-1.4
		c-1.8-1.7-3.8-3.3-5.7-4.9c-1.1-1-2.4-1.8-3.4-3c-2.8-3-6-5.2-9.4-7.5c-3.3-2.2-6.9-3.5-10.8-4.1c-2.3-0.3-4.5-0.4-6.7-0.6
		C533.3,414,532.1,414.5,531.4,415.9z"/>
	<path class="st3" d="M626.5,652c-1.8-5.1-3.8-10.1-5.7-15.2c-0.8-2.2-2.1-4.3-3.1-6.4c-1.1-2.2-2.7-3.8-4.7-5.3
		c-3-2.3-6.2-4.3-8.5-7.4c-0.6-0.8-1.3-0.6-2-0.1c-2.1,1.3-4.2,2.7-6.4,4c-2.9,1.8-6.1,2.9-9.5,3.4c-2.8,0.4-5.5-0.1-8.1-1.3
		c-1.9-0.9-3.5-2.3-5-4c-1.1-1.3-2-2.6-3-3.9c-1-1.3-1.2-1.5-2.3-0.4c-2.4,2.5-5.5,3.7-8.8,3.7c-2.1,0-3.5,0.7-4.7,2.3
		c-4,5-9.1,8.6-14.8,11.4c-3,1.5-6.1,3-9.1,4.4c-0.7,0.4-1.3,0.6-2.1,0.8c-4.2,1.3-7.4-0.1-9.3-4c-0.3-0.6-0.2-1.6-1.3-1.8
		c-0.4,0.3-0.9,0.6-1.5,0.9c-3.8,2.3-7.9,3-12.3,2c-3.9-0.8-7.4-2.5-10.2-5.4c-1.3-1.3-2.6-2.7-3.9-4.1c-0.4-0.4-0.8-1-1.7-0.8
		c-0.4,1.3-0.7,2.5-1.1,3.9c-1.1,4-3.1,7.4-5.9,10.3c-2.8,3-6.3,4.5-10.4,4.5c-3.8,0-7.5-0.8-11-2.4c-8.3-3.9-15.5-9.2-21-16.7
		c-2.3-3.1-4.5-6.4-6.2-9.8c-0.9-1.8-1.1-1.8-2.9-1.4c-3.9,1.1-7.9,1.3-11.9,1.5c-2.3,0.1-4.5,0.1-6.8,0.3
		c-5.7,0.6-10.7-0.8-15.2-4.2c-1.3-1-2.5-2.1-3.8-3.1c-2.3,3.8-4.2,7.9-7.4,10.8c-4.4,4-8.9,8-14.9,9.6c-2.4,0.6-4.5,2.1-6.8,3.2
		c-1.5,0.7-3,1.3-4.5,2c-3.8,1.6-7,0.4-9.5-2.5c-2.8-3.2-5.6-6.4-7.8-10.1c-3.1-5.1-6.4-10.2-8-16.1c-0.4-1.4-1-2.8-1.6-4.1
		c-1.9-1.7-4-3.3-6.1-4.7c-3-2.2-6.2-4.2-9.4-6.2c-5.4-3.5-10.5-7.3-15.2-11.7c-1.9-1.8-3.8-3.7-5.8-5.4c-3.5-3-6.7-6.3-9.7-9.8
		c-0.1,0.6-0.1,1.1-0.3,1.6c-0.4,2.1-0.8,4.2-1.2,6.2c-1.2,6.9-3.8,13.5-6.6,19.9c-1.3,2.9-3.2,5.4-5,7.9c-0.4,0.6-0.9,1.2-1.3,1.8
		c-1.6,2.3-1.5,2.9,0.2,4.9c1.3,1.4,2.9,2.4,4.5,3.3c1.4,0.8,2.9,1.5,4.4,2.1c0.8,0.4,1.6,0.8,2.3,1.2c0.6,0.3,1.1,0.6,1.6,1
		c0.8-0.1,1.7-0.1,2.5-0.3c2.9-0.4,5.5,1.1,6.3,3.8c0.4,1.1,0.4,2.5-0.1,4c-0.4,1.3-1,2.6-1.5,3.8c-1.4,3.3-2.7,6.7-3.8,10.2l0,0
		c0.3,0.2,0.6,0.5,0.9,0.7l0.9,0.8l1.8,1.6c0.6,0.5,1.2,1.1,1.8,1.6l0.8,0.8l0.4,0.4l0.4,0.4c1.1,1.1,2.3,2.2,3.4,3.3
		c0.4,0.4,0.7,0.8,1.1,1.1c0.2,0.2,0.4,0.4,0.6,0.6l1.6,1.8c0.3,0.3,0.6,0.6,0.8,0.8l0.8,0.9l1.6,1.8c0.9,1.1,1.8,2.3,2.8,3.4
		c0.1,0.1,0.1,0.1,0.2,0.2c2.4,3,4.7,6.2,6.9,9.3c2.5-1.7,5.3-2.9,8.4-3.6c2.4-0.6,4.9-1.1,7.4-1.6c1.1-0.2,2.2-0.3,3.3,0.2
		c1.3,0.6,1.9,1.6,1.8,2.8c0,0.4-0.1,0.8-0.4,1.2c-1.2,2.6-2.5,5.2-3.7,7.8c-1.5,3.2-2.9,6.4-4.1,9.8c0.6,0.4,1.1,0.9,1.7,1.3
		c0.2,0.1,0.4,0.3,0.6,0.4h23.2c-0.3-26.4,17.2-47.7,19-49.1c8.4-6.7,15.6-8.1,16-7.4c0.6,1.1-3.3,6-6.4,9.7
		c0.3,0.4,0.5,0.9,0.7,1.5c0.3,0.8,0.5,1.7,0.6,2.5c1.1,5.9,0.8,12,0.6,18c-0.1,2.7-0.5,5.5-0.7,8.2c-0.4,5,0.8,9.7,2.8,14.2
		c0.4,0.8,0.6,1.6,1,2.3h33.6h2.4c5.7-7.2,18.3-21.7,32.2-27.5c19-7.9,16.8,12.3,23.4,17.9c6.5,5.6,14,5.9,18.7,1.7
		c4.7-4.3,7.3-9.7,7.3-9.7l-0.6,17.6h49c1.5-8.7-9.6-37.2-9.6-37.2c-5.9-15.5,20.5-5.4,34,1.5c9.7,5,24.5,25,31.9,35.7h22.3
		c-0.1-2.5-0.3-5.2-0.5-7.7C630,666.9,629.1,659.2,626.5,652z"/>
	<path class="st3" d="M400.7,532.1c1.1-1.2,2.5-2.1,4-2.8c3.7-1.6,8-0.5,10.4,2.8c1.5,2.1,2.6,4.2,3.1,6.8c0.6,2.8,1.6,5.5,1.7,8.4
		c0,0.6,0.4,1.1,0.6,1.8c1.1,0.3,2-0.2,2.9-0.6c1.6-0.6,3.3-1.3,4.9-1.8c7.4-2.3,12.6,0.5,16.1,6.1c2.1,3.3,3.6,6.9,5,10.5
		c2.1,5.4,3.5,11,4.8,16.6c0.5,2,1.3,3.8,2.7,5.3c1.8,1.9,3.8,2.8,6.4,1.6c0.9-0.4,1.8-0.8,2.8-1.1c1.6-0.6,3.3-1.3,5.1-1.2
		c1.5,0.1,2.3-0.6,2.9-1.9c1.6-3.3,3.5-6.3,6.3-8.8c1.9-1.7,4-2.8,6.7-2.9c2.8-0.1,5.1,1.1,7.2,2.8c1.8,1.5,3,3.4,4,5.5
		c2.3,4.7,5,9.3,6.8,14.2c0.1,0.4,0.4,0.7,0.6,1c0.1,0.1,0.4,0.3,0.6,0.3s0.5-0.2,0.6-0.4c0.3-0.9,0.6-1.9,0.8-2.9
		c0.8-2.6,1.9-5.2,3.8-7.2c0.6-0.6,0.9-1.5,1.4-2.2s0.9-1.5,1.5-2.1c3-3.4,6.9-3.9,10.8-1.5c0.1,0.1,0.2,0.1,0.3,0.2
		c2.9,1.9,3,1.8,5.2-0.7c1.5-1.7,2.8-3.6,3.8-5.5c2.4-4.4,5.2-8.6,7.2-13.2c2.3-5.3,5.6-10.1,9.4-14.4c2.8-3.2,6.4-5.2,10.3-6.7
		c1.1-0.4,2.2-0.7,3-1.5c1.4-1.3,3-2.3,5-2.4c0.9-0.1,1.6-0.8,2.1-1.6c0.6-0.9,1.3-1.9,1.8-2.8c1.1-1.6,2.2-3,4.3-3.3
		c1.2-0.1,1.5-1.1,1.7-2.1c1-5.3,0.8-10.7,0.7-16.1c0-2.3-0.8-4.4-1.8-6.4c-1.3-2.5-2.5-4.9-2.7-7.7c0-0.1,0-0.1,0-0.2
		c-0.1,0-0.4,0-0.5,0.1c-1,0.1-1.6,0.7-1.9,1.6c-0.4,0.9-0.6,1.9-0.8,2.9c-0.8,4.1-1,8.2,0,12.3c0.4,1.3,0.6,2.7,0.6,4.1
		c-0.1,4.9-5.1,8.8-10.2,5.5c-0.7-0.5-1.4-1.1-2.1-1.6c-0.6-0.6-1.2-1.3-1.8-1.8c-1.8-1.7-4-2.5-6.4-3c-2.6-0.5-4.8,1.3-7.3,1.3
		c-1.3,1.3-1.8,3-2.8,4.5c-0.2,0.3-0.4,0.7-0.5,1c-2.5,5.2-5.4,10.2-8.5,15.1c-1.8,2.7-3.8,5-6.3,6.9c-6.9,5.5-14.2,10.3-21.9,14.5
		c-3,1.6-6.1,2.3-9.4,2.1c-3.9-0.2-7.8-0.3-11.7-0.6c-3.8-0.4-7.7-0.5-11.5-1.8c-8.5-3-16.1-7.6-22.9-13.4
		c-7.4-6.2-12.9-13.9-18.3-21.9c-0.8-1.1-1.1-2.5-2.5-3.3c-1.3,1.6-2.6,3.1-4,4.6c-0.8,0.9-1.7,1.9-2.7,2.6c-3.8,3-8.7,1.6-10.4-3
		c-0.6-1.6-0.7-3.2-0.5-4.8c0.4-2.5,0.8-5,1.6-7.4c1.3-3.7,2.5-7.4,4-11c0.7-1.8,0.8-3.3-0.1-5c-1.6-3-2.8-6.2-3.8-9.5
		c-0.6,1.1-1.1,2.1-1.8,3c-2.3,3.3-4.3,6.7-5.7,10.5c-2.6,7.2-4.9,14.4-5.9,22c-0.2,1.7-0.8,3.4-0.7,5.2c0.1,2.6,0,5.2,0,7.8
		C399.7,533.4,400.2,532.6,400.7,532.1z"/>
	<path class="st3" d="M722.7,312.9c2.9,9.1,5.9,18.1,7,27.7c1.3,11.2,1.1,22.3-0.6,33.4c-0.8,5.6-1.6,11.2-2.3,16.8
		c-0.1,0.4-0.3,1,0.6,1.2c2.5-2.4,5-4.8,7.4-7.3c0.5-0.5,1-1.2,1.3-1.8c2.3-4.9,4.6-9.8,5.6-15.2c0.6-3,1.3-5.9,1.8-8.8
		c0.8-4.2,1.4-8.4,0.8-12.7c-1.1-8.6-1.7-17.2-3.9-25.6c-1.3-4.9-2.6-9.6-4.8-14.2c-1.6-3.5-3-7.2-4.2-10.8c-0.3-1-0.6-1.9-0.4-3
		c0.1-1.1,1.1-1.6,2.2-1.1c2,0.9,3.4,2.5,4.8,4.2c1.2,1.3,2.3,2.8,3.4,4.1c-0.5-3.8-0.7-7.5,0.2-11.3c0.2-0.8,0.1-1.8,0.1-2.6
		c0-2.4,0-4.7,0.1-7.2c0.3-8.5-1-16.8-2.8-25c-2.3,5-5.7,9.6-10.1,13.7c-0.6,0.6-1.2,1.3-1.9,1.8c-1.6,1.3-2.8,2.9-3.6,4.7
		c-1.3,2.8-2.4,5.8-3.9,8.6c-2.5,4.8-3.5,9.8-3.5,15.2c0,1.8,0.3,3.4,1.3,5C719.6,305.7,721.5,309.1,722.7,312.9z"/>
	<path class="st3" d="M437.1,147.3c-0.2,0-0.5,0.2-0.6,0.4c-0.2,0.4-0.1,0.7,0.3,0.9c0.3,0.2,0.6,0.5,0.9,0.7
		c7.2,5.5,12.6,12.5,17,20.4c2.1,3.8,4,7.5,6,11.3c0.5,0.9,0.9,1.8,1.3,2.7c1.5,3.1,0.8,6.2-0.3,9.1c-0.4,0.8-0.8,1.5-1.3,1.8
		c2,2.8,3.3,5.9,4.4,9.3c0.4,1.2,0.8,2.4,1.1,3.6c0.4,1.5,0.9,2.8,1.7,4.1c0.4,0.5,0.6,1.1,0.8,1.6c0.1-0.2,0.2-0.4,0.4-0.6
		c1.3-1.9,3.4-2.7,5.6-2.1c1.1,0.4,2.1,0.8,3,1.4c2.4,1.5,4.2,3.5,5.7,5.9c1.8,3.3,3.5,6.7,4.7,10.3c0.8,2.3,2.2,4.2,4.5,5.2
		c0.8-0.5,1-1.4,1.4-2.1c1.1-2.1,2.3-4.2,3.5-6.2c4.1-6.7,9.7-12.1,15.6-17.2c1.1-0.9,2.3-1.6,3.5-2.2c2.2-3.8,3.5-8,5-12.1
		c1.6-4.7,4.2-8.8,7.4-12.5c-0.1-2.1,0.1-4,0.4-6.1c0.9-5.3,2.3-10.5,3.7-15.7c0.7-2.8,1.6-5.6,2.3-8.4c0.5-2,0.7-4,0.7-5.9
		c0-0.7-0.6-1.1-1.3-0.9c-0.9,0.3-1.9,0.7-2.8,1c-1,0.4-1.9,0.5-3,0.3c-3.5-0.8-5.2-4.3-3.6-7.6c0.6-1.2,1.5-2.3,2-3.6
		c1.6-4.2,3.8-8.2,6.4-12c0.4-0.6,1.1-1.1,0.9-2c-1.1-0.5-2.2-0.1-3.3,0.1c-3.3,0.6-6.5,1.7-9.6,3c-7.2,3.2-13.5,7.6-19.3,12.8
		c-4.2,3.8-7.6,8.3-9.9,13.5c-0.4,1.1-0.9,2.1-1.5,3c-0.4,0.8-1,1.5-1.6,2.1c-2.3,2.1-5.6,1.3-6.7-1.6c-0.3-0.7-0.4-1.5-0.4-2.2
		c-0.3-3.3,0.4-6.3,2.2-9c2.7-4,2.3-8.6,2.8-13.1c0.1-0.5-0.5-0.8-1.1-0.6c-0.4,0.1-0.7,0.3-1.1,0.4c-6.7,3.3-12.7,11.2-14.2,18.5
		c-0.3,1.3-0.4,2.8-0.6,4.1c-0.6,3.4-3.5,5.1-6.7,4c-0.5-0.1-0.9-0.4-1.3-0.6c-4.2-2.3-8.6-4-13-5.8c-0.6-0.2-1.2-0.4-1.8-0.7
		C444.1,146.9,440.7,147,437.1,147.3z M461.3,167.7c1.1-1,2.4-1.1,3.8-0.5c1.6,0.7,2.8,1.8,3.7,3.1c0.7,1,1.6,1.4,2.8,1.6
		c2.6,0.4,5.1,1,7.8,0.8c1.9-0.1,3.7,0.8,5.1,2.1c0.8,0.6,1.4,1.4,2.5,2.5c0.7-1.6,1.1-2.7,1.6-3.8c0.5-1,1-2.1,1.7-2.9
		c1.9-2.3,5.1-1.9,6.5,0.7c0.5,1,0.8,2.1,1.1,3.2c0.8,0.4,1.1-0.2,1.6-0.6c3.7-4.4,8.6-6.9,13.7-9c2-0.8,4-1,5.5,0.7
		c1.6,1.7,1.3,3.7,0.3,5.6c-0.9,1.8-2,3.5-2.9,5.2c-2,3.8-3.8,7.6-5.3,11.6c-0.6,1.6-1.3,3.3-2.4,4.7c-2.4,3-5.9,2.9-8.1-0.2
		c-0.3-0.4-0.4-0.9-0.7-1.3c-1-1.6-3.3-1.8-4.4-0.4c-0.6,0.9-1.1,2-1.7,2.9c-1.9,3-5.2,3.2-7.6,0.5c-0.1-0.2-0.3-0.4-0.4-0.6
		c-1.1-1.3-1.8-1.6-3.2-1c-0.9,0.4-1.7,1-2.6,1.5c-1.1,0.6-2.1,1.3-3.3,1.8c-2.7,1.2-5.6,0.3-6.5-2.3c-0.6-1.9-1.7-3.6-2.5-5.5
		c-0.3-0.6-0.6-1.1-0.6-1.8c-0.6-4.9-3.2-8.9-5.5-13.1c-0.4-0.8-0.8-1.6-1.1-2.4C460,169.9,460.3,168.6,461.3,167.7z"/>
	<path class="st3" d="M691.2,567.9c1.1,4.4,2.9,8.5,5.2,12.4c2.5,4.5,5.2,8.8,8.4,12.9c2.1,2.6,4.2,5.2,6.6,7.7
		c2.8,3,5.8,5.9,8.8,8.8c2,1.9,4.1,3.6,6.1,5.5c0.3,0.2,0.5,0.5,0.8,0.7l1.2-0.4l1.1-0.3l0.6-0.1l0.6-0.1l2.3-0.6
		c2.3-0.6,4.7-1,7.1-1.5c-0.1-0.1-0.1-0.1-0.2-0.1c-0.7-0.6-1.4-1.1-2.1-1.6c-4-3-7.6-6.4-10.8-10.4c-4.3-5.4-8.6-10.8-12.9-16.2
		c-4.5-5.7-8.1-12-10.8-18.8c-1.5-3.8-3-7.4-4.5-11.2c-0.3-0.7-0.6-1.4-0.9-2.1c-0.2-0.4-1-0.5-1.2,0c-0.6,1.1-1.2,2.2-1.8,3.3
		c-1.3,2.6-2.8,5.2-4.7,7.5C690.4,564.8,690.9,566.3,691.2,567.9z"/>
	<path class="st3" d="M279,476.6c0.1,1.8-0.1,3.5,0.5,5.2c0.2,0.6,0.2,1.3,0.1,1.8c-0.2,8.7,1.8,17.1,4.2,25.4
		c0.7,2.5,1.3,5.1,2.1,7.6c1.4,4.7,6.8,8,8.9,12.4c3.3,6.5,19.1,26.3,23.2,32.3c0.5,0.7-16.5-9.2-16.6-8.8c0.2,0.2,0.4,0.4,0.6,0.6
		c1.9,1.8,3.8,3.8,5.5,5.7c7.1,7.8,15.2,14.2,24.3,19.5c1.4,0.8,2.8,1.6,4.2,2.5c1.8,1.3,3.7,2,5.9,2.2c4.9,0.4,8.8,2.6,12,6.4
		c2.1,2.4,3.8,5,5.4,7.7c0.4,0.8,0.9,1.5,1.4,2.3c0.3,0.4,1,0.4,1.2-0.1c1.8-3.8,4.1-7.2,6.4-10.5c0.4-0.6,1-1.1,1.1-2.3
		c-3.3-1.3-6.4-2.6-9-4.8c-0.3-0.2-0.6-0.4-1-0.5c-2.2-0.6-3.7-2.1-5-3.8c-2.1-2.5-3.9-5.2-5.1-8.3c-2.2-5.5-4.2-11-6.3-16.5
		c-1.5-4.1-3.7-7.9-5.5-12c-0.1-0.2-0.4-0.4-0.6-0.4c-0.6-0.1-0.6,0.4-0.6,0.7c-0.2,4.2-0.2,8.5,0.4,12.7c0.3,2,0.6,4,0.8,5.9
		c0.2,4.1-2.8,5.9-6.5,4c-1.5-0.7-2.8-1.7-3.9-2.9c-0.7-0.8-1.5-1.7-2.1-2.7c-3.8-6.5-6.8-13.4-7.6-21c-0.4-4.1-0.6-8.3-0.5-12.4
		c0.1-2.1-0.5-3.8-1.9-5.4c-7.2-8.1-12-17.6-15-28c-1.6-5.5-2.1-11-1.6-16.8c0.7-9.2,4.4-17.2,9.6-24.6c2.8-2.5,3.5-5.5,2.8-9.1
		c-0.1-0.8-0.1-1.8-0.1-2.6c-0.2-9.1-0.2-18.1,2.3-26.9c0.7-2.5,0.2-4.7-1.3-6.7c-1.4-1.9-2.5-4-3.5-6.2c-2.1-5.2-4.1-10.3-6.2-15.4
		c-1.6-4.2-3-8.5-3.7-13c-0.3-1.7-0.8-3.4-1.2-5.1c-0.8-3-1.4-6.1-1.6-9.3c-0.1-4.9,0.1-9.8,1-14.7c1.2-6.4,3.3-12.6,6.4-18.4
		c1.2-2.2,2.7-3.5,5.3-3.2c0.3,1.3,0,2.7-0.2,4c-0.8,5-1.4,10-0.9,15c0.4,4.1,0.9,8.2,1.3,12.3c0.1,1.8,0.8,3.3,2.1,4.7
		c3.1,3.5,5.9,7.2,8.3,11.2c0.2,0.4,0.4,1,1.5,0.7c0.8-1.1,1.8-2.3,2.7-3.7c1.1-1.4,2.1-2.8,3.1-4.2c1-1.3,2-2.6,3-3.8
		c1.1-1.3,2.4-2.5,3.6-3.8c1.1-1.1,2.6-1.8,3.3-3.3c-3.5-2.5-4.5-2.8-8.1-2.5c-1,0.1-2,0.2-3,0.1c-3.3-0.4-4.8-2.5-4.3-5.7
		c0.7-5.1,1.5-10.2,2.2-15.2c0.8-5.6,1.9-11.1,3.4-16.6c0.4-1.4,0.8-2.9,0.8-4.4c0.1-2.3,0.5-4.5,1.1-6.7c1.7-5.8,3.4-11.5,5.7-17.1
		c1.7-4,3.7-8,6.1-11.6c7.8-11.6,17.6-21.2,29.5-28.7c3.3-2.1,6.7-3.6,10.3-4.4c3.6-0.8,7.2-1.3,10.6-1.3c-2.6-0.6-5-0.3-7.6,0.2
		c-6.7,1.4-13.1,3.3-19.3,5.9c-8,3.3-15.6,7.5-22,13.5c-2.8,2.5-5.2,5.5-7.6,8.3c-2.3,2.5-4.5,5-6.7,7.7
		c-4.3,5.4-7.7,11.4-11.3,17.3c-1.8,3-3.4,6.1-5.7,8.8c-0.1,0.1-0.1,0.3-0.1,0.4c-0.7,2.4-1.6,4.7-2.8,6.9c-1.1,1.8-2.5,3-4.9,2.9
		c-0.6-0.1-1.3-0.4-1.7,0.4c-0.6,1.3-1.2,0.9-1.8,0.1c-0.4-0.6-0.8-1.3-1.3-2c-0.6,1.6-1.2,3.2-2,4.7c-2.8,5.8-4.7,11.9-5.4,18.3
		c-0.2,1.8-0.6,3.7-1,5.5c-0.5,2.1-1.3,4.1-2.5,5.8c0,0,0,0.1-0.1,0.1c-0.1,1.6-0.3,3.3-0.6,4.9c-0.6,2.8-1.3,5.7-2.1,8.4
		c-1.8,6.4-3.4,12.8-4,19.5c-0.2,2.4,0,4.7,0.6,7.1c1.3,5.7,3.5,11,7.5,15.4c0.5,0.6,0.9,1.2,1.4,1.8c1.8,2.4,3.3,5,4.4,7.9
		c1.8,4.5,2.3,8.9,0.8,13.6c-2.1,6.6-3.3,13.4-5.9,19.8c-0.4,0.9-0.6,1.9-0.9,2.9c-1.8,6.4-3,13-3.8,19.5c-0.1,1.1-0.1,2.3-0.7,3.3
		c-1.1,1.8-1.8,3.8-2.8,5.7c-0.3,0.6-0.5,1.3-1.1,1.4c-0.4,0.1-0.8,0.3-1.1,0.5c0.1,1,0.4,2,0.5,3C279,474.6,279,475.6,279,476.6z"
		/>
	<path class="st3" d="M227.1,287.5c-0.1,2.9,0,5.7-0.1,8.6c0,2-0.1,4-0.5,5.9c-0.4,2.1-0.1,4.2-0.2,6.4c-0.4,9.9,1.9,19.3,5.8,28.5
		c0.6,1.6,1.4,3.1,2.4,4.5c0.2-1,0.5-2.1,0.8-3c0.4-1.3,0.8-2.6,1.8-3.7c1.8-2.2,5-2.2,6.9-0.1c0.7,0.8,1.2,1.6,1.3,2.6
		c0.2,1.3,0.5,2.8,0.5,4.1c0,2.9-0.2,5.7-0.4,8.6c-0.2,3.9-0.6,7.8,0.1,11.6c0.5,3,1.3,5.9,1.7,8.8c0.4,2.3,1.3,4.3,2.9,6
		c2.3,2.6,4.7,5.2,7.2,7.6c1.3,1.3,2.9,2.4,4.5,3.3c0.4,0.2,0.8,0.6,1.3,0.2c0.3-0.7-0.3-1.1-0.6-1.7c-2.2-3.9-3.6-8-4.2-12.4
		c-0.9-7.2-0.9-14.3,0-21.4c0.8-7,3.1-13.7,6.1-20.1c3.5-7.5,6.1-15.4,8.1-23.4c0.4-1.7,0.6-3.4,0.6-5.2c-0.1-4.2-0.3-8.5,0.2-12.8
		c0.1-0.4-0.1-0.6-0.3-1.3c-2,1.1-3.8,2.1-5.7,3c-5.2,2.4-9.1,6.2-12.4,10.7c-2.6,3.5-4.5,7.5-5.9,11.7c-0.5,1.4-1.3,2.5-2.9,2.5
		c-1.5-0.1-2.1-1.3-2.5-2.5c-1.3-3.5-1.6-7.1-1.3-10.8c0.7-9.3,3.3-18.2,7.2-26.7c1.1-2.5,2.5-4.9,4.2-7.1c1.1-1.4,1.9-2.9,2.5-4.6
		c4.9-12.5,11.5-24,21.2-33.4c0.4-0.4,1.1-0.7,0.5-1.6c-3.8,0.6-7.5,1.6-11.1,3c-5.3,2.1-9.7,5.2-12,10.7c-0.1,0.1-0.1,0.2-0.1,0.4
		c-3,5.3-5.5,6.2-11,3.8c-0.8-0.4-1.4-0.4-2.1,0.1c-2.9,2.1-6,4.1-7.9,7.4c-0.9,1.6-2.1,3.1-3.5,4.4c-2.6,2.3-4.5,5-5.9,8.2
		c-0.5,1.2-1.1,2.3-2,3.3c1.8,2.5,3.1,5.5,3.9,8.6C226.8,282.7,227.1,285,227.1,287.5z"/>
	<path class="st3" d="M676,626.2c2.7,2.5,5.4,4.9,8.1,7.2c1.1,1,2.2,2.1,3.3,3.1l0.8-0.7l0.9-0.8c0.3-0.3,0.6-0.5,0.9-0.7l1.9-1.5
		l0.5-0.4l0.5-0.4l1-0.7l1.9-1.4l2-1.3c2.1-1.3,4.1-2.5,6.2-3.7c-0.7-0.6-1.3-1.3-2-2c-1.3-1.3-2.5-2.8-3.1-4.6
		c-0.8-2.5-0.4-4.7,1.3-6.7c0.2-0.2,0.4-0.4,0.6-0.6c-2.2-1.1-4.4-2.1-6.5-3.4c-3-1.8-5.8-3.9-8.2-6.5c-2.8-3-6.1-5.7-8.4-9.1
		c-0.2-0.3-0.6-0.5-0.8-0.8c-0.4-0.3-1.1-0.1-1.2,0.4c-0.4,2.3-0.8,4.7-0.8,7.1c-0.1,4,0,8-0.1,12c-0.1,3.8,0.6,7.4,1.2,11.2
		c0.1,1,0.4,2,0.2,3C676.2,625.4,676.1,625.9,676,626.2z"/>
	<path class="st3" d="M842.1,662.3c-1.8-3.6-4-7-6.6-10.1c-2.5-3.1-5.5-5.9-8.6-8.5c-3.1-2.5-6.6-4.7-10.1-6.4l0,0l-5.3-2.4
		c-0.6-0.5-1.1-1-1.7-1.5c-1.3-1.1-2.8-2.2-4.3-3c-6.3-3.5-13.4-5.5-20.5-6.7c-3.5-0.6-7.2-1-10.8-1.2c-2.3-0.1-4.7,0-7.1-0.4
		c-2.5-0.4-5-1.6-7.6-1.8c-1-0.1-2,0-3,0.1c-8.2,0.8-16.4,2.1-24.4,4.5c-4,1.2-7.9,2.7-11.6,4.6c-3.6,1.8-6.7,4.4-10.5,5.9
		c-0.9,0.4-1.8,0.7-2.7,1.1c-19,8.1-36,24.1-42.6,44l0,0c1.7-0.4,3.8,0.3,5.2-0.8c0.6-0.4,0.8-1.1,1.1-1.8c3-6.6,6-13.5,11.2-18.5
		c6.4-6.3,16.4-8.8,23.9-3v-0.1c0,0.1,0.1,0.1,0.1,0.1c0.4,0.4,0.8,0.7,1.3,1.1c0,0,0,0,0.1,0.1s0.3,0.2,0.4,0.4
		c0.5,0.4,1,0.9,1.3,1.5c0.1,0.1,0.1,0.2,0.2,0.3c-0.6,0-1.3,0-1.9,0.1c-1.3,0.1-2.7,0.5-4,0.9c-2.5,0.9-5,2.3-7.2,3.9
		c-0.6,0.4-1.1,0.8-1.6,1.2l-0.8,0.6l-1.5,1.1l-0.8,0.6c0,0,0.8-0.2,0.9-0.2c4-1.1,7.9-1.1,11.6,0.7c0.3,0.1,0.6,0.3,0.9,0.5
		c0.3,0.1,0.6,0.4,0.8,0.5c0.6,0.4,1.1,0.8,1.6,1.2c1,0.9,1.9,1.9,2.7,3c0.8,1.2,1.6,2.5,2.3,3.8l0,0c-0.1,0.4-0.2,0.8-0.3,1.1
		c-0.1,0.2-0.1,0.5-0.1,0.7c0,0.1,0,0.1,0,0.1c-0.1,0.4-0.1,0.8-0.2,1.3c0,0.1,0,0.2,0,0.3s0.1,0.2,0.1,0.3c0,0.2,0.1,0.4,0.1,0.6
		c0-0.1,0-0.1,0-0.1c0,0.1,0,0.1,0,0.1v0.1c0,0,0,0,0-0.1c0.1,0.7,0.3,1.4,0.4,2.1c0.2,0.8,0.4,1.7,0.6,2.5c1.1,1.8,2.2,3.5,2.8,5.5
		c0.1,0.2,0.1,0.4,0.2,0.6c0,0.1,0,0.1,0.1,0.1c0.1,0.2,0.1,0.4,0.1,0.6c0,0,0,0,0,0.1c0.1,0.2,0.1,0.4,0.1,0.6c0,0.1,0,0.1,0,0.1
		c0,0.1,0.1,0.4,0.1,0.5s0,0.1,0,0.1c0,0.2,0.1,0.4,0.1,0.6c0,0.1,0,0.1,0,0.2c0,0.1,0,0.3,0.1,0.4c0,0.1,0,0.2,0,0.3s0,0.3,0,0.4
		c0,0.1,0,0.2,0,0.3s0,0.2,0,0.3c0,0.2,0,0.4,0,0.6c0,0.1,0,0.1,0,0.1c0,0.1,0,0.3,0,0.4c0,0,0,0,0,0.1c0,0.3,0,0.6,0,0.9
		c0.1,0.1,0.2,0.3,0.4,0.4c0.6,0.7,1.1,1.4,1.7,2.1c0.3,0.3,0.6,0.6,0.8,0.9c2.4,2.1,5,4,8.1,4.8c5,1.1,10.3-0.5,15.4-0.1
		c1,0.1,2.1,0.2,3-0.1c1.8-0.7,2.8-3.5,3.8-5.1c1.4-2.4,2.6-5,3.5-7.6c1.8-5,3-10.2,3.4-15.5c0.6-8.4-0.8-16.8-4.2-24.5
		c-1.7-3.8-3.8-7.5-6.2-10.9c-2.5-3.4-5.2-6.5-8.4-9.3c-0.4-0.4-0.8-0.7-1.2-1.1l-2.1-1.8h-0.1c0,0-0.1,0,0,0h0.1l0.2,0.1l0.4,0.1
		l0.8,0.2l1.1,0.3l0.4,0.1l0.4,0.1l0.8,0.2c2.1,0.6,4,1.4,5.9,2.4c17.3,9.1,24.9,27.3,26,45.9c0,0.1,0,0.2,0,0.4
		c0,0.6,0.1,1.1,0,1.6c0,0.5,0,1.1-0.1,1.6s-0.1,1-0.1,1.5c0,0.1,0,0.1,0,0.1c-0.1,0.4-0.1,0.6-0.1,1c-0.1,0.3-0.1,0.7-0.2,0.9
		c0,0.2-0.1,0.4-0.1,0.7c-0.5,3.1-1.6,6.2-2.5,9.1c-1.1,3.2-2.8,6.2-1.6,9.5c2.8,7,8.9,9.2,15.7,10.3c0.9,0.1,1.8,0.3,2.7,0.4
		c1.1,0.1,2.3,0.3,3.4,0.4c1.3,0.1,2.6,0.3,4,0.4c0.3,0,0.5,0.1,0.8,0.1c0.2,0,0.4,0,0.7,0.1c0.5,0,0.9,0,1.4,0c0-0.1,0-0.1,0-0.1
		c0.6-2.6,2-5,3.2-7.3c5.7-11.1,7.9-24.4,6.2-37.1c-1.6-11.8-8.3-22.7-16.5-31c-0.8-0.8-1.7-1.8-1.6-3c2.9,0.8,6,3.2,8.6,4.8
		c3.1,1.9,6.2,4,9,6.4c5.2,4.3,10,9.8,11,16.6c2,13.1,5.7,13.9,3.9,27c-0.5,3.5-2.6,6.7-3.3,10.2c-1,4.9-1.3,9.4-3.1,14.1
		c-0.1,0.3-0.3,0.6-0.4,0.9c-0.1,0.4-0.3,2.8-0.8,2.5c2.3,0.8,13.7,3,14.3-1.1l0.4-2.3l2.8-15.7c2.8-15.5,3.2-30.9-3.9-45.5
		c-1.5-3.1-4.1-9-6.1-10.8c0.2,0.2,0.5,0.4,0.7,0.6c3.8,3.7,7.4,7.1,10.3,11.6c3.3,5.3,6.2,11.3,8.4,17.1c0.2,0.5,0.4,0.9,0.5,1.4
		c0.6,1.9,1.1,3.8,1.6,5.7c0.8,3.9,1.2,7.8,1.2,11.7c-0.1,3.9-0.5,7.8-1.3,11.6c-0.3,1.1-0.6,2.3-0.9,3.5c0.4-0.1,0.7-0.1,1-0.3
		c1-0.4,1.8-1.1,2.5-1.8c0.7-0.8,1.3-1.6,1.8-2.5s0.8-1.8,1.2-2.8c0.1-0.5,0.3-1,0.4-1.5C849.5,688.9,848.2,674.4,842.1,662.3z
		 M714.9,632.8L714.9,632.8C715,632.7,715,632.7,714.9,632.8C715.1,632.7,715,632.7,714.9,632.8z"/>
	<path class="st3" d="M270.5,636.4c-0.9-0.4-1.8-0.8-2.7-1.1c-3.8-1.5-6.9-4-10.5-5.9c-3.8-1.8-7.6-3.4-11.6-4.6
		c-7.9-2.4-16.1-3.6-24.4-4.5c-1-0.1-2-0.2-3-0.1c-2.6,0.1-5,1.3-7.6,1.8c-2.3,0.4-4.7,0.3-7.1,0.4c-3.6,0.2-7.2,0.6-10.8,1.2
		c-7.1,1.2-14.2,3.2-20.5,6.7c-1.6,0.8-3,1.9-4.3,3c-0.6,0.5-1.1,1-1.7,1.5l-5.3,2.4l0,0c-3.6,1.8-7,3.9-10.1,6.4s-6,5.4-8.6,8.5
		s-4.7,6.5-6.6,10.1c-6.2,12.2-7.4,26.6-3.8,39.8c0.1,0.5,0.3,1,0.4,1.5c0.4,1,0.7,1.9,1.2,2.8s1.1,1.8,1.8,2.5
		c0.7,0.8,1.5,1.4,2.5,1.8c0.4,0.1,0.6,0.2,1,0.3c-0.4-1.1-0.6-2.3-0.9-3.5c-0.8-3.8-1.3-7.6-1.3-11.6c0-3.9,0.4-7.9,1.2-11.7
		c0.4-1.9,0.9-3.8,1.6-5.7c0.1-0.5,0.3-0.9,0.5-1.4c2.2-5.8,5.1-11.8,8.4-17.1c2.8-4.5,6.4-8,10.3-11.6c0.2-0.2,0.5-0.4,0.7-0.6
		c-2,1.8-4.6,7.7-6.1,10.8c-7,14.5-6.6,29.9-3.9,45.5l2.8,15.7l0.4,2.3c0.6,4.1,12,1.8,14.3,1.1c-0.6,0.2-0.8-2.3-0.8-2.5
		c-0.1-0.3-0.2-0.6-0.4-0.9c-1.8-4.7-2.1-9.2-3.1-14.1c-0.7-3.5-2.8-6.7-3.3-10.2c-1.7-13.1,1.9-13.9,3.9-27
		c1.1-6.9,5.9-12.4,11-16.6c2.8-2.3,5.9-4.5,9-6.4c2.5-1.6,5.7-4,8.6-4.8c0.1,1.1-0.8,2.2-1.6,3c-8.2,8.4-14.9,19.3-16.5,31
		c-1.8,12.7,0.4,26,6.2,37.1c1.2,2.3,2.6,4.7,3.2,7.3c0,0.1,0,0.1,0,0.1c0.5,0,0.9,0,1.4,0c0.2,0,0.4,0,0.7-0.1
		c0.3,0,0.5-0.1,0.8-0.1c1.3-0.1,2.6-0.3,4-0.4c1.1-0.1,2.3-0.2,3.4-0.4c0.9-0.1,1.8-0.2,2.7-0.4c6.8-1.1,13-3.3,15.7-10.3
		c1.3-3.3-0.5-6.4-1.6-9.5c-1-3-2.1-6-2.5-9.1c0-0.2-0.1-0.4-0.1-0.7c-0.1-0.3-0.1-0.7-0.2-0.9c-0.1-0.4-0.1-0.6-0.1-1
		c0-0.1,0-0.1,0-0.1c-0.1-0.5-0.1-1-0.1-1.5c-0.1-0.5-0.1-1.1-0.1-1.6c0-0.6,0-1.1,0-1.6c0-0.1,0-0.2,0-0.4
		c1.1-18.5,8.6-36.9,26-45.9c1.9-1,3.8-1.8,5.9-2.4l0.8-0.2l0.4-0.1l0.4-0.1l1.1-0.3l0.8-0.2l0.4-0.1l0.2-0.1h0.1l0,0H243l-2.1,1.8
		c-0.4,0.4-0.8,0.7-1.2,1.1c-3.1,2.8-5.9,5.9-8.4,9.3c-2.5,3.4-4.5,7-6.2,10.9c-3.3,7.6-4.8,16.1-4.2,24.5
		c0.4,5.3,1.6,10.5,3.4,15.5c1,2.6,2.2,5.2,3.5,7.6c0.9,1.6,2,4.4,3.8,5.1c0.9,0.4,2,0.2,3,0.1c5.1-0.4,10.3,1.2,15.4,0.1
		c3.2-0.7,5.7-2.7,8.1-4.8c0.3-0.3,0.6-0.6,0.8-0.9c0.6-0.7,1.1-1.3,1.7-2.1c0.1-0.1,0.2-0.3,0.4-0.4c0-0.3,0-0.6,0-0.9
		c0,0,0,0,0-0.1s0-0.3,0-0.4c0-0.1,0-0.1,0-0.1c0-0.2,0-0.4,0-0.6c0-0.1,0-0.2,0-0.3s0-0.2,0-0.3s0-0.3,0-0.4c0-0.1,0-0.2,0-0.3
		s0-0.3,0.1-0.4c0-0.1,0-0.1,0-0.2c0-0.2,0.1-0.4,0.1-0.6c0-0.1,0-0.1,0-0.1c0-0.1,0.1-0.4,0.1-0.5s0-0.1,0-0.1
		c0.1-0.2,0.1-0.4,0.1-0.6c0,0,0,0,0-0.1c0.1-0.2,0.1-0.4,0.1-0.6c0-0.1,0-0.1,0.1-0.1c0.1-0.2,0.1-0.4,0.2-0.6
		c0.7-2,1.8-3.8,2.8-5.5c0.2-0.8,0.4-1.7,0.6-2.5c0.1-0.7,0.3-1.4,0.4-2.1c0,0,0,0,0,0.1V682c0-0.1,0-0.1,0-0.1c0,0.1,0,0.1,0,0.1
		c0.1-0.2,0.1-0.4,0.1-0.6c0-0.1,0-0.2,0.1-0.3c0-0.1,0-0.2,0-0.3c-0.1-0.4-0.1-0.8-0.2-1.3c0-0.1,0-0.1,0-0.1
		c-0.1-0.2-0.1-0.5-0.1-0.7c-0.1-0.4-0.2-0.8-0.3-1.1l0,0c0.6-1.3,1.4-2.6,2.3-3.8c0.8-1.1,1.7-2.1,2.7-3c0.5-0.4,1.1-0.8,1.6-1.2
		c0.3-0.2,0.6-0.4,0.8-0.5c0.3-0.1,0.6-0.3,0.9-0.5c3.8-1.8,7.6-1.7,11.6-0.7c0.1,0,0.9,0.2,0.9,0.2l-0.8-0.6l-1.5-1.1l-0.8-0.6
		c-0.6-0.4-1.1-0.8-1.6-1.2c-2.3-1.6-4.6-3-7.2-3.9c-1.3-0.4-2.6-0.8-4-0.9c-0.6-0.1-1.3-0.1-1.9-0.1c0.1-0.1,0.1-0.2,0.2-0.3
		c0.4-0.5,0.8-1.1,1.3-1.5c0.1-0.1,0.3-0.2,0.4-0.4c0,0,0,0,0.1-0.1c0.4-0.4,0.8-0.8,1.3-1.1c0-0.1,0.1-0.1,0.1-0.1v0.1
		c7.5-5.8,17.5-3.3,23.9,3c5.2,5.1,8.1,12,11.2,18.5c0.3,0.6,0.6,1.3,1.1,1.8c1.3,1.1,3.4,0.5,5.2,0.8l0,0
		C306.5,660.6,289.5,644.6,270.5,636.4z M262.8,632.7c0.1,0,0.1,0.1,0.1,0.1l0,0C262.9,632.7,262.9,632.7,262.8,632.7z"/>
	<path class="st3" d="M676.3,504.5c0.9-4.7,1.4-9.6,1.6-14.5c0.2-3.5,0.7-7.1,0.7-10.7c0-0.4,0.1-1.2,0.3-1.6
		c1.6-4.9,1.4-9.8,0.6-14.8c-0.6-3.5-0.6-6.9-1-10.4c-0.6-5-0.7-10-1.8-14.9c-0.6-2.8-0.5-5.5-0.4-8.2c0.2-3.8,5.2-8,9.7-6.5
		c1.9,0.6,3.7,1.4,5.6,2.1c0.6-1.8,0.7-3.4,0.4-5c-0.7-4.5-1.4-8.8-2.3-13.3c-0.8-4.2-1.6-8.4-2.5-12.5c-1.1-5.3-3.4-10.2-5.7-15.1
		c-2-4.3-4-8.6-5.3-13.2c-1.5-4.9-2.5-9.9-3.1-15c-0.4-3-1.1-5.9-1.3-8.8c-0.4-4.9-0.7-9.8,0.8-14.5c0.4-1.3,0.4-2.4-0.1-3.6
		c-2.1-4.9-2.9-10.1-4.2-15.2c-0.3-0.9-0.2-2-0.4-3c-0.7-3.7,4.2-6.9,7.4-5.6c0.3,0.1,0.6,0.2,1,0.4c0.1,0.1,0.3,0.1,0.4,0.1l0,0
		c0,0,0,0,0.1,0c0.1,0.1,0.4,0.1,0.5,0.1h0.1c0.1,0,0.3,0,0.5,0l0,0c0.5-0.1,1-0.4,1.3-0.8l0,0c0.1-0.1,0.2-0.3,0.3-0.4v-0.1
		c0.1-0.1,0.1-0.3,0.1-0.4s0-0.1,0-0.2s0-0.2,0-0.3l0,0l0,0c0-0.1,0-0.1,0-0.1c0-0.1,0-0.1,0-0.1s0-0.1-0.1-0.1c0-0.1,0-0.1-0.1-0.1
		c0-0.1-0.1-0.1-0.1-0.1l-0.1-0.1c-0.1-0.1-0.1-0.1-0.2-0.2c0,0-0.7-0.7-1.8-1.9c0.1,0.1-17.7-18.2-19-19.4
		c-1.7-1.6-1.6-1.6-3.6-0.4c-3.4,2.3-7.7,2.3-10.8-0.6c-2.1-1.9-4-3.9-6-5.9c0.4,1.1,0.7,2.3,0.8,3.6c0.4,3.8-1.5,6.2-5.2,6.2
		c-2,0.1-4-0.4-6-0.5c-0.8-0.1-1.7-0.4-2.6,0.2c0,1.3,0.7,2.5,1.2,3.8c2.1,5.5,3.2,11.1,4.6,16.7c0.8,3.3,1.7,6.6,3,9.7
		c1,2.2,2.4,4,4.4,5.5c3.1,2.3,6.1,4.8,9.1,7.2c3.8,3,6.9,6.6,9.6,10.5c2.7,3.9,4,8.3,4.8,13c1.4,7.9,1.1,15.7-0.2,23.6
		c-0.1,0.5-0.2,1-0.4,1.4c-1.2,2.8-4.5,3.7-6.9,1.8c-0.2-0.1-0.4-0.4-0.6-0.5c-0.1-0.1-0.1-0.1-0.1-0.1c-0.1-0.1-0.2-0.3-0.4-0.4
		c-0.1-0.1-0.1-0.1-0.1-0.2c-0.1-0.1-0.2-0.3-0.4-0.5c-0.1-0.1-0.1-0.1-0.1-0.1c-0.1-0.2-0.3-0.4-0.4-0.6l0,0c0,0,0,0,0-0.1
		c-0.4-0.5-0.6-1.1-0.9-1.5c-0.1-0.1-0.1-0.2-0.1-0.3c-0.2-0.4-0.5-0.8-0.7-1.3c-0.4-0.6-0.7-1.2-1-1.8c-0.2-0.4-0.5-0.8-0.7-1.3
		c-0.1-0.3-0.3-0.6-0.5-0.8c-0.2-0.4-0.5-0.8-0.7-1.1c-0.1-0.3-0.3-0.5-0.5-0.8c-0.3-0.4-0.6-0.8-0.8-1.2c-0.1-0.2-0.3-0.4-0.4-0.6
		c-0.4-0.6-0.8-1.2-1.3-1.8c-0.8-0.9-1.3-2.1-2.6-2.5c-0.1,0.3-0.1,0.6-0.1,0.8c1.8,5,3.5,9.9,6,14.6c0.2,0.4,0.4,0.8,0.6,1.3
		c0.1,0.2,0.2,0.4,0.3,0.6s0.2,0.5,0.4,0.7c0.1,0.2,0.1,0.4,0.3,0.6c0.1,0.2,0.2,0.5,0.4,0.7c0.1,0.2,0.2,0.4,0.3,0.6
		s0.2,0.4,0.3,0.7c0.1,0.2,0.2,0.4,0.3,0.6s0.2,0.4,0.3,0.7c0.1,0.2,0.1,0.4,0.3,0.7c0.1,0.2,0.1,0.4,0.3,0.7
		c0.1,0.2,0.1,0.5,0.3,0.7c0.1,0.2,0.1,0.4,0.2,0.6c0.1,0.3,0.1,0.5,0.3,0.8c0.1,0.2,0.1,0.4,0.2,0.6l0,0c0,0,0,0,0,0.1
		c1.1,3,1.6,6.1,1.4,9.2c0,0.3,0,0.5,0,0.8c0,0.1,0,0.4,0,0.5c0,0.3,0,0.5,0,0.8c0,0.1,0,0.3,0,0.4c0,0.3,0,0.6,0,0.9
		c0,0.1,0,0.2,0,0.3c0,0.4,0,0.8,0.1,1.2c0.1,1.4,0.4,2.7,1.2,3.9c1.7,2.5,2.9,5.3,4,8.1c0.4,1,0.7,1.9,1.1,2.9
		c0.4,0.9,0.6,1.8,1,2.8c0.1,0.4,0.2,0.6,0.4,1c0.2,0.6,0.5,1.3,0.7,2c0.1,0.4,0.3,0.8,0.4,1.1c0.2,0.6,0.5,1.3,0.8,1.9
		c3,7.6,5.1,15.5,6.2,23.6c0.7,5,1.5,9.9,2.3,14.9c0.9,5.7,1.3,11.5,1.3,17.3c0,2.1-0.4,4.3-1.1,6.3c-1.6,4.2-2.1,8.8-2.7,13.2
		c-1.1,7.9-2.8,15.8-6,23.2c-0.6,1.4-1.3,2.8-1.9,4.2c-0.2,0.4-0.4,0.8-0.6,1.3c-0.4,0.9-0.9,1.8-1.3,2.8c-0.3,0.5-0.6,1.1-0.8,1.6
		c-0.4,0.8-0.8,1.7-1.3,2.5c-0.3,0.6-0.6,1.1-0.9,1.7c-0.4,0.7-0.8,1.5-1.2,2.2c0,0,0,0.1-0.1,0.1c0,0.1-0.1,0.1-0.1,0.2
		c-1.9,3.4-4.1,6.6-6.7,9.5l0,0l0,0c-0.3,0.3-0.6,0.6-0.8,0.8c-2.7,2.9-5.5,5.7-8.5,8.3c-1,0.8-2,1.7-3,2.5c-3,2.4-6.2,4.7-9.3,6.9
		c-0.2,0.1-0.4,0.3-0.7,0.4c-0.2,0.1-0.4,0.3-0.6,0.4c-0.1,0.1-0.2,0.1-0.3,0.1c-0.1,0.1-0.3,0.2-0.4,0.3c-0.1,0.1-0.2,0.1-0.3,0.2
		c-0.1,0.1-0.3,0.2-0.4,0.3c-0.1,0.1-0.2,0.1-0.3,0.2c-0.1,0.1-0.3,0.2-0.4,0.3c-0.1,0.1-0.1,0.1-0.3,0.2c-0.1,0.1-0.3,0.2-0.4,0.4
		c-0.1,0.1-0.1,0.1-0.2,0.2c-0.2,0.1-0.4,0.4-0.6,0.5c0,0,0,0-0.1,0.1c-0.2,0.2-0.4,0.4-0.6,0.6c-1.1,1.3-2.6,1.9-4.1,2.5l0,0l0,0
		l0,0c-0.2,0.1-0.5,0.1-0.7,0.2c-0.3,0.1-0.5,0.2-0.8,0.3c-0.2,0.1-0.5,0.1-0.7,0.2c-0.3,0.1-0.5,0.1-0.8,0.3
		c-0.2,0.1-0.5,0.1-0.7,0.2c-0.3,0.1-0.5,0.1-0.8,0.2c-0.2,0.1-0.5,0.1-0.7,0.2c-0.3,0.1-0.5,0.1-0.8,0.2c-0.2,0.1-0.5,0.1-0.7,0.1
		c-0.3,0.1-0.6,0.1-0.8,0.2c-0.2,0.1-0.5,0.1-0.7,0.1c-0.3,0.1-0.5,0.1-0.8,0.1c-0.2,0.1-0.5,0.1-0.7,0.1c-0.3,0-0.6,0.1-0.8,0.1
		s-0.5,0-0.8,0.1c-0.3,0-0.5,0.1-0.8,0.1c-0.6,0-1.3,0.1-1.8,0.4h-0.1c-0.1,0.1-0.2,0.1-0.4,0.2c-0.1,0.1-0.1,0.1-0.3,0.1
		c-0.3,0.2-0.6,0.4-0.9,0.6c-0.3,0.2-0.6,0.4-0.8,0.6c-0.3,0.2-0.6,0.5-0.9,0.7c-0.2,0.2-0.5,0.4-0.7,0.6c-0.3,0.2-0.6,0.5-0.8,0.7
		s-0.5,0.4-0.7,0.6c-0.3,0.3-0.6,0.5-0.8,0.8c-0.2,0.2-0.4,0.4-0.6,0.6c-0.3,0.3-0.6,0.6-0.8,0.8s-0.4,0.4-0.6,0.6
		c-0.3,0.3-0.6,0.6-0.8,0.9c-0.2,0.2-0.4,0.4-0.6,0.6c-0.4,0.4-0.6,0.7-0.9,1.1c-0.1,0.1-0.3,0.3-0.4,0.5c-0.4,0.5-0.9,1.1-1.3,1.6
		c-0.4,0.6-0.4,1.1-0.2,1.8c0.8,3.4,1.9,6.8,3.7,9.8c0.9,1.6,1.3,2.3,3.5,1.5c4-1.4,7.9-1.2,11.8,0.1c0.6-0.4,1.1-0.6,1.8-0.8
		c6-1.9,11.5-4.8,17.1-7.7c3.2-1.7,6.2-3.8,8.7-6.4c2.5-2.8,5.5-5.2,7.6-8.3c1.1-1.6,1.9-3.2,2.7-4.9c1.8-3.9,2.7-8.1,3.3-12.2
		c0.4-2.5,0.8-4.9,0.9-7.4c0.1-2.5,1.1-4.9,3-6.7c0.9-0.8,1.8-1.8,2.7-2.6c5.1-4.5,8.8-10.2,12.5-15.9
		C673.4,517.3,675,511,676.3,504.5z"/>
</g>
<g>
	<path class="st4" d="M631.1,394.9c-3.3-6.1-6.8-12-11.1-17.3c-2.4-3-5.1-5.8-7.9-8.4c-0.8-0.7-1.6-1.4-2.3-2.1
		c-0.6-0.6-1.3-1.2-1.9-1.8c-0.3-0.3-0.6-0.6-1-0.8c-0.1-0.1-0.4-0.2-0.5-0.4c-0.1-0.1-0.3-0.2-0.4-0.3c-0.3-0.1-0.6-0.4-0.8-0.4
		c-2.5-1-4.2-2.9-5.9-4.8c-0.6-0.6-1.3-1.1-1.9-1.7c-4.6-4.3-9.7-7.9-15.2-11c-3.8-2.1-7.6-4.2-11.5-6.4c-1.2-0.6-2.5-1.2-3.8-1.7
		c-6.1-2.4-12.4-3.9-19-4.5c-2.4-0.2-4.7-0.3-7.1,0.6c-0.9,0.4-1.9,0.6-2.9,0.7c-0.8,0.1-1.8,0.2-2.6,0.2c-1.2-0.1-1.8-1-1.3-2.1
		c0.6-1.5,1.4-3,2.3-4.3c1.6-2.5,1.8-5.5,1.8-8.4c0-0.7-0.3-1.5-0.6-2.1c-1.1-1.8-2.1-2.3-4-1.6c-1.7,0.7-3.5,1.3-5.4,1.6
		c-2.5,0.4-4.1-0.8-4.7-3.3c-0.4-1.7-0.3-3.5,0-5.2c0.2-1.3,0.5-2.7,0.8-4c1.1-4.2,0.4-8.2-0.4-12.3c-0.3-1.5-1.1-2.8-2-4
		c-0.6-0.9-1.2-1.1-2.2-0.4c-2.4,1.6-4.5,3.5-5.7,6.4c-2,4.6-4.1,9.1-7.7,12.8c-1.4,1.5-3,2.8-5,3.3c-1.5,0.4-2.8,0.3-4-1.1
		c-2.6-2.9-6-3.4-9.6-2.1c-2.3,0.8-4.8,1.6-6.9,2.9c-1.1,0.7-2.2,0.8-3.3,0.4c-2.9-1.1-5.9-2.1-8.1-4.5c-1.9-2-4.1-3.7-6.2-5.5
		c-1.3-1.1-2.9-1.9-4.7-2.1c-1-0.1-1.7,0.1-2.4,0.6c-1.3,1.1-1.8,2.3-1.6,4c0.1,1.1,0.4,2.3,0.7,3.3c1.1,3.7,1.8,7.6,4.1,10.9
		c0.8,1.1,0,2.2-1.4,2.2c-0.4,0-0.8,0-1.1-0.1c-1.2-0.3-2.3-0.9-3.3-1.7c-4-3-8.5-0.9-9.1,4c-0.2,1.8,0.4,3.2,1.6,4.5
		s2.5,2.5,3.6,3.8c1.6,2,1.2,4.5-1,5.8c-0.7,0.4-1.6,0.8-2.4,1c-1.3,0.4-2.7,0.6-4,0.8c-2.7,0.2-5.1,1.1-7.5,2.3
		c-1.8,0.8-3.6,1.8-5.5,2.5c-4,1.7-7.9,1.8-12-0.2c-3.8-1.8-7.9-2.6-12.1-2.1c-4.6,0.6-9.2,1.3-13.5,3.3c-2.2,1-4.2,2.1-6.3,3.4
		c-2.3,1.4-4.5,2.8-6.7,4.1c-2.8,1.7-5.9,2.9-9.2,3.2c-2.5,0.3-4.9,1.1-7.2,2.1c-8.1,3.6-15.2,8.8-20.8,15.8
		c-4.4,5.4-8.2,11-11.7,17.1c-3,5.2-4.7,10.8-5.6,16.6c-1.4,8.8-1,17.8-0.8,26.7c0,1.3,0.1,2.7,0.8,3.9c1.1-0.6,1.3-1.8,1.6-2.6
		c1.8-4.5,4.1-8.6,6.6-12.7c1.3-2.3,3-4.2,4.9-6.2c1.1-1.1,2.3-1.9,3.8-2.3c1-0.3,1.9-0.1,2.7,0.3c0.7-0.8,1.4-1.5,2.1-2.2
		c2.3-2.3,4.9-4.3,7.4-6.3c4.7-3.5,9.8-6,15.5-7.3c6-1.3,11.9-3.2,17.7-5.4c0-1.9,5.1-7.9,5.9-10.5c0.1-0.3,0.1-0.6,0.3-0.8
		c0.4-0.9,0.9-1.7,1.6-2.5c0.1-0.1,0.1-0.1,0.1-0.1c1.3-1.5,2.8-2.7,4.5-3.7c2.7-1.6,5.5-3.1,8.4-4.2c1.1-1,2.3-1.9,3.5-2.8
		c0.4-0.3,0.7-0.6,1.1-0.8c2.1-2.1,4.5-3.8,7.1-5.1c2.2-1.1,4.5-2.1,6.8-3.1c1.3-0.6,2.5-0.9,4-0.2c0.5,0.3,1.2,0.2,1.8,0.2
		c1.3,0,1.8-0.6,1.5-1.9c0-0.1-0.1-0.2-0.1-0.4c-0.3-1.2-1.1-2.3-0.5-3.6c0.8-1.8,1.7-3.7,3.5-4.8c1.9-1.2,4-2.2,6.2-2.6
		c2.9-0.5,5.7-0.4,8.4,1.2c4,2.3,8.4,2.3,12.7,2.3c1.1,0,2.3-0.1,3.2-0.8c0.2-1.1-0.4-2-0.6-2.9c-0.8-2.8,0.4-5,2.2-6.8
		c1-1.1,2.4-1.2,3.9-0.8c4.5,1.1,8.5,3,11.8,6.3c0.6,0.5,1,1.1,1.6,1.6c0.3,0.3,0.6,0.4,1,0.6c0.8-0.2,1.7-0.2,2.5-0.1
		c0.6-0.2,1-0.6,1.3-1.1c0.4-0.6,0.8-1.3,1.1-2c0.4-0.8,0.8-1.6,1.2-2.3c2.8-4.7,7.7-5.5,11.1-1.2c3.9,5,8.5,4.5,13.5,3.2
		c1.7-0.4,3.4-1,5.1-1.1c2.8-0.2,5.2,0.4,7,2.7c0.4,0.5,0.9,0.9,1.3,1.3c1.2,1.3,2.5,1.7,4.3,1c4.2-1.6,8.7-2.4,13.2-3
		c2.1-0.2,4-0.1,5.9,0.4c0.7,0.1,1.5,0.4,2.1,0.8c3.6,1.9,4.5,5.8,1.6,8.8c-2.3,2.3-4.6,4.6-7.9,5.7c-0.7,0.2-1.3,0.6-2.3,1
		c1,1,2.1,0.9,3.1,1c3.5,0.4,6.9,1.1,10.3,2c3.7,0.9,7.1,2.5,10.3,4.5c1.5,1,3,1.7,4.7,2.1c6.8,1.6,12,5.5,16,11.1
		c0.6,0.8,1.1,1.6,1.4,2.6c0.4,1.8-0.1,3.3-1.3,4.1c1.1,0.9,2.1,1.8,3.2,2.8c6.9,6.4,13.6,13,18.9,20.8c1.2,1.8,2.1,3.8,3.8,5.2
		c1.5,1.2,3.7,1.5,5.5,2.3c0.9,0.4,1.8,1,2.6,1.5c3.1,1.8,6.3,1.4,9.3,0.1c1.7-0.8,2.6-2.3,2.8-4.2c0.1-1.3,0.1-2.8-0.3-4.1
		C636.1,405.8,634,400.2,631.1,394.9z"/>
	<path class="st4" d="M333.7,262c2.5-2.8,5-5.7,7.6-8.3c6.4-5.9,14-10.1,22-13.5c6.2-2.6,12.7-4.6,19.3-5.9c2.5-0.6,5-0.8,7.6-0.2
		c6.9-0.1,13.6,1.2,19.9,5.1c0.4,0.3,0.8,0.5,1.3,0.7c4.1,2,7.7,4.6,11.2,7.6c2.7,2.3,5.3,4.6,7.7,7.2c0.6,0.6,1.2,1.3,2.2,1.3
		c2.1,0,4.2-0.3,5.9-1.7c-1.2-3.3-3.2-5.8-5.5-8.1c-2.1-2.1-4.3-4.2-6.4-6.3c-0.8-0.8-1.7-1.6-2.3-2.5c-2-3-0.1-6.7,3.5-6.8
		c1-0.1,2,0.1,3,0.4c3.3,0.8,6.4,2,9.4,3.7c0.7,0.4,1.3,1.2,2.3,0.8c0-0.2,0.1-0.5,0.1-0.7c-0.4-0.6-0.7-1.3-1.2-1.9
		c-3-4.1-6.9-7.2-11.1-10.1c-9-6.1-18.8-10.7-29-14.2c-1.8-0.6-3.6-1.1-5.5-1.3c-5.7-0.7-11.5-1.2-17.2-1.8c-1.1-0.1-2.3,0-3.3,0.4
		c-4.9,2-9.7,4.1-13.9,7.3c-2.9,2.2-5.7,4.5-8.6,6.7c-1,0.8-1.9,1.6-3,2.3c-3.8,2.8-9.3,2.1-10.7-4.5c-0.1-0.6-0.2-1.3-0.1-1.8
		c0.1-4.1,1.3-7.9,3.6-11.3c2.2-3.1,4.9-5.7,7.9-8c6.7-4.9,13.9-8.4,21.9-10.6c1-0.3,1.9-0.6,2.8-0.9c2.9-1.3,6-1.7,9.1-1.8
		c2.9-0.1,5.8,0,8.6,0.3c1.3,0.1,2.8,0.3,4.1,0.4c1.5,0.1,2.9,0.4,4.7,0.6c-0.6-0.5-0.8-0.8-1.1-1c-3.4-1.6-6.8-3.2-10.3-4.5
		c-2.7-1.1-5.5-1.8-8.4-2c-3-0.2-6-0.3-9-0.6c-2.3-0.2-4-1.7-4.2-3.7c-0.3-2.1,0.8-3.6,2.5-4.7c1.3-0.8,2.8-1.2,4.2-1.5
		c5.1-1.1,10.2-1,15.4-0.8c3.7,0.1,7.2,0.8,10.6,2.3c2.5,1.1,5,2.3,7.6,3.4c6.9,3,12.7,7.6,18,12.7c3.3,3.1,6,6.7,8.9,10.2
		c1.9,2.3,3.5,4.9,4.6,7.7c0.4,1.3,1.3,2.1,2.2,3c2.6,2.3,5.3,4.7,7.6,7.2c2.7,3,5.9,5,9.6,6.4c1.8,0.7,3.5,1.5,5,2.7
		c0.4,0.4,0.9,0.9,1.8,0.4c0.5-1.3,0.5-2.8,0.7-4.3c0.1-1.6,0.6-3,1.3-4.3c-0.3-0.6-0.6-1.1-0.8-1.6c-0.8-1.3-1.4-2.6-1.7-4.1
		c-0.3-1.2-0.7-2.4-1.1-3.6c-1.1-3.3-2.5-6.5-4.4-9.3c-0.9,0.7-2.2,0.5-3.9-0.6c-0.8-0.5-1.4-1.4-1.8-2.3c-0.4-0.9-0.7-1.9-1-2.8
		c-0.4-1.1-0.8-2.1-1.5-3c-6.2-8.3-13.3-15.7-21.5-21.9c-2.5-1.9-5.2-3.5-7.9-5.2c-0.9-0.6-2-1.1-3.2-1c-2.1,0.1-4-0.6-5.8-1.4
		c-3.9-1.8-7.9-3.2-12.2-3.8c-3.8-0.6-7.7-1.2-11.6-0.8c-10.7,0.8-21,2.8-30.9,7.3c-7.3,3.3-13.9,7.4-20.1,12.5
		c-2.8,2.3-5,4.9-6.8,8c-1.4,2.5-2.8,5-4.3,7.5c-3.1,5.4-5.2,11.1-7,17c-0.4,1.3-0.6,2.7-0.2,4c0.9,3.8,1.1,7.6,0.7,11.6
		c-0.4,3.6-0.6,7.2-0.9,10.9c-0.6,5.8-0.1,11.5,1.9,17.1c1.4,3.9,0.8,7.6-1,11.3c-1.8,3.7-3.5,7.5-5.3,11.3
		c-1.3,2.8-2.1,5.6-2.6,8.6c-0.9,5.8-1.8,11.6-3.5,17.3c2.3-2.7,3.9-5.8,5.7-8.8c3.5-5.9,6.9-12,11.3-17.3
		C329.2,267.1,331.4,264.6,333.7,262z"/>
	<path class="st4" d="M307.6,230.2c0-0.8-0.7-1.1-1.3-0.6c-3,2.1-5.5,4.8-7.4,7.9c-5.1,8.4-8.5,17.6-11.3,27
		c-4.5,15.5-5.9,31.2-4.2,47.3c0.6,6.2,1.7,12.4,2.8,18.6c0.5,2.8,0.6,5.7,0.5,8.6c0,0,0-0.1,0.1-0.1c1.3-1.8,2.1-3.8,2.5-5.8
		c0.4-1.8,0.8-3.7,1-5.5c0.7-6.4,2.5-12.5,5.4-18.3c0.7-1.5,1.3-3.1,2-4.7c-0.4-0.7-0.9-1.4-1.4-2.1c-1.6-2.2-2.5-4.7-2.8-7.3
		c-0.5-3.6-0.6-7.2-0.3-10.9c0.2-2.3,0.6-4.6,1-6.9c-0.1-0.1-0.4-0.1-0.5-0.1c-1.1-0.3-1.3-0.8-0.9-2.1c0.6-2.2,1.3-4.3,1.8-6.5
		c1-4,2.8-7.4,4.9-10.9c0.2-0.4,0.4-0.7,0.6-1.1s0.4-0.8,0.6-1.3c2.5-4.6,5.1-9.2,7.6-13.8c0.4-0.8,0.7-1.6,0.4-2.5
		C308.1,236.2,307.6,233.2,307.6,230.2z"/>
	<path class="st4" d="M659.1,232.8c1.1,0.1,2.1,0.8,3,1.4c1.8,1.1,3.6,2.3,5.5,3.3c3.1,1.6,6.3,3,9.5,4.5c0.1,0,0.1,0.1,0.1,0.1
		c0.5,0.3,1,0.6,1.8-0.1c-0.3-1-0.6-2-0.8-3c-0.9-3.5-1.7-7.1-2.8-10.5c-0.6-2.1-1.4-4-1.8-6.2c-0.3-1.7-0.6-3.5-1.3-5.1
		c-2.3-4.9-4-10.1-5.6-15.2c-0.3-0.8-0.6-1.6-0.8-2.5c-0.1-0.3-0.2-0.6-0.4-0.9c-0.6-1.4-1.2-2.8-1.9-4.2c-0.1-0.2-0.2-0.4-0.3-0.6
		c-0.1-0.4-0.4-0.6-0.6-1c-0.1-0.2-0.2-0.4-0.4-0.6c-0.3-0.4-0.6-0.8-0.8-1.3c-0.1-0.1-0.1-0.1-0.1-0.2c-0.2-0.3-0.4-0.6-0.6-0.8
		c-0.1-0.2-0.3-0.4-0.4-0.6c-0.4-0.6-0.8-1.1-1.2-1.6c-0.5-0.7-1-1.5-1.5-2.3l-0.1-0.1c-0.1-0.3-0.4-0.5-0.5-0.8
		c-0.4-0.6-0.7-1.1-1.1-1.7c-0.3-0.4-0.5-0.8-0.8-1.2s-0.6-0.9-1-1.3c-0.3-0.4-0.6-0.8-0.8-1.1c-0.4-0.4-0.7-0.8-1.1-1.3
		c-0.3-0.4-0.6-0.7-0.8-1.1c-0.4-0.4-0.8-0.8-1.1-1.3c-0.3-0.4-0.6-0.6-0.9-1c-0.4-0.4-0.8-0.8-1.3-1.2c-0.3-0.3-0.6-0.6-0.9-0.9
		c-0.4-0.4-0.9-0.8-1.4-1.2c-0.3-0.3-0.6-0.5-0.9-0.8c-0.5-0.4-1.1-0.8-1.6-1.3c-0.3-0.2-0.5-0.4-0.8-0.6c-0.8-0.6-1.6-1.2-2.5-1.8
		c-0.5-0.4-0.9-0.6-1.4-1c-0.4-0.3-0.8-0.6-1.2-0.8c-0.1-0.1-0.1-0.1-0.2-0.1c-0.3-0.2-0.6-0.4-0.8-0.5s-0.4-0.3-0.6-0.4
		c-0.2-0.1-0.4-0.2-0.6-0.3c-0.3-0.1-0.6-0.4-0.9-0.5c-0.1-0.1-0.4-0.1-0.5-0.3c-0.4-0.1-0.6-0.4-1-0.5c-0.3-0.1-0.5-0.2-0.8-0.4
		c-0.3-0.1-0.5-0.2-0.8-0.4c-0.2-0.1-0.5-0.2-0.8-0.3s-0.6-0.2-0.8-0.4c-0.2-0.1-0.5-0.1-0.8-0.2c-0.3-0.1-0.6-0.2-0.8-0.3
		c-0.4-0.1-0.6-0.2-1-0.3c-0.6-0.2-1.2-0.4-1.8-0.7c-0.4-0.1-0.6-0.3-1-0.4c-0.2-0.1-0.4-0.2-0.6-0.3c-0.3-0.1-0.5-0.2-0.8-0.4
		c-0.2-0.1-0.4-0.1-0.6-0.3c-0.3-0.1-0.6-0.2-0.8-0.3s-0.4-0.1-0.6-0.2c-0.3-0.1-0.6-0.2-0.8-0.3s-0.4-0.1-0.6-0.2
		c-0.3-0.1-0.6-0.2-0.8-0.3s-0.4-0.1-0.6-0.2c-0.3-0.1-0.6-0.1-0.9-0.3c-0.2-0.1-0.4-0.1-0.6-0.1c-0.4-0.1-0.6-0.2-1-0.3
		c-0.1-0.1-0.4-0.1-0.5-0.1c-0.5-0.1-1-0.3-1.5-0.4c-1.3-0.4-2.6-0.6-3.9-0.9c-1.1-0.2-2.3-0.4-3.5-0.8c-5.4-1.1-10.8-1.8-16.4-1.8
		c-3.9-0.1-7.8,0.1-11.6,0.6c-4.8,0.7-9.1,2.7-13.5,4.6c-5.6,2.5-9.8,6.4-13.4,11.2c-3.5,4.8-6.4,9.8-8.6,15.4
		c-0.6,1.4-1.1,2.8-1.8,4.1c-2.6,4.2-7.5,4-10.1-0.2c-1.1-1.8-1.6-3.7-1.7-5.7c0-0.4,0-0.7-0.1-1.1c-3.3,3.7-5.8,7.8-7.4,12.5
		c-1.4,4.1-2.8,8.3-5,12.1c0.3-0.1,0.6-0.2,0.8-0.4c0.1,0,0.2-0.1,0.3-0.1c0.2-0.1,0.4-0.1,0.6-0.2c0.1,0,0.2-0.1,0.4-0.1
		c0.1-0.1,0.4-0.1,0.5-0.1s0.3-0.1,0.4-0.1c0.1,0,0.3-0.1,0.4-0.1h0.1c0.1,0,0.1,0,0.1-0.1c0.9-0.2,1.8-0.1,2.8,0.1
		c0.1,0,0.1,0,0.1,0.1l0,0l0,0c0,0,0,0,0.1,0c0.3,0.1,0.6,0.2,0.8,0.4c0,0,0,0,0.1,0c0.3,0.1,0.5,0.3,0.7,0.4l0,0
		c0.2,0.1,0.4,0.4,0.6,0.5l0,0c0.1,0.2,0.3,0.4,0.4,0.6l0,0c0.1,0.2,0.2,0.4,0.3,0.7l0,0c0.1,0.2,0.1,0.5,0.1,0.8l0,0
		c0,0.3,0,0.6,0,0.8l0,0c0,0.3-0.1,0.6-0.1,0.9c-0.2,1-0.6,1.9-1,2.8c-2.8,7-5.2,14.2-6.3,21.6c-0.5,3.5-0.8,6.9-0.6,10.5
		c0.1,1.9,1.1,3,2.6,3.8c1.4,0.7,2.9,0.6,4.4,0.4c1.3-0.1,2-0.8,2.8-1.7c1.1-1.2,2.4-2.2,3.7-3.3c1.4-1.2,2.9-2.3,4.3-3.5
		c0.7-0.6,1.4-1.1,2.1-1.7c2.3-1.8,4.7-3.5,7.3-4.7c0.8-0.4,1.7-0.8,2.5-1.1c0.4-0.2,0.9-0.4,1.3-0.6c0.4-0.1,0.7-0.4,1.1-0.5
		c0.5-0.2,1-0.4,1.5-0.6c0.3-0.1,0.6-0.3,0.8-0.4c0.8-0.4,1.6-0.6,2.4-0.9c11.5-4.2,23.2-5.5,35.1-2.5c6.2,1.6,12.2,3.9,17.9,6.7
		c5.4,2.6,9.9,6.3,13.9,10.8c3.5,4,6.3,8.4,8.8,13.1c0.9,1.6,2,3.2,3.2,4.6c1.6,2,3,4,3.9,6.4c1.9,2.1,3.9,4,6,5.9
		c3,2.8,7.4,2.8,10.8,0.6c1.9-1.3,1.9-1.3,3.6,0.4c1.3,1.3,19,19.6,19,19.4c-0.9-2.6-1.6-5.2-2-7.9c-0.4-2.4-0.6-4.8-0.7-7.3
		c-0.1-2.3-0.4-4.6-0.7-6.9c0-0.1-0.1-0.4-0.1-0.5s-0.1-0.3-0.1-0.5s-0.1-0.4-0.1-0.6s-0.1-0.4-0.1-0.6c0-0.1-0.1-0.4-0.1-0.5
		c0-0.2,0-0.4-0.1-0.6c0-0.1,0-0.4,0-0.5c0-0.2,0-0.4,0-0.6c0-0.1,0-0.4,0-0.5c0-0.2,0-0.4,0-0.6c0-0.1,0-0.4,0-0.5
		c0-0.2,0-0.4,0.1-0.6c0-0.1,0-0.3,0-0.4c0-0.2,0.1-0.5,0.1-0.7c0-0.1,0-0.3,0.1-0.4c0.1-0.4,0.1-0.7,0.2-1.1
		c0.1-0.6,0.1-1.3,0.1-1.8c0,0,0-0.1,0-0.3c-0.6-0.7-1.1-1.4-1.7-2.1c-0.7-0.9-1.3-1.8-2.1-2.7c-0.2-0.3-0.5-0.6-0.7-0.9
		c-0.1-0.2-0.3-0.4-0.4-0.6c-0.3-0.4-0.6-0.8-1-1.3c-0.2-0.3-0.4-0.5-0.6-0.8c-0.3-0.4-0.6-0.7-0.8-1.1c-0.2-0.3-0.4-0.6-0.6-0.8
		c-0.3-0.4-0.5-0.6-0.8-1c-0.2-0.3-0.4-0.5-0.6-0.8c-0.3-0.4-0.6-0.6-0.8-1c-0.2-0.3-0.4-0.5-0.6-0.8c-0.3-0.4-0.6-0.6-0.8-1
		c-0.2-0.3-0.4-0.5-0.7-0.8c-0.3-0.4-0.6-0.6-0.9-1c-0.2-0.2-0.4-0.4-0.6-0.6C660,244,660,244,660,244c-0.1-0.1-0.3-0.4-0.4-0.5
		c-0.1-0.1-0.2-0.3-0.3-0.4c0-0.1-0.1-0.1-0.1-0.1c-1.2-1.6-2.2-3.4-3-5.3c-0.1-0.1-0.1-0.4-0.2-0.5c-0.1-0.1-0.1-0.2-0.1-0.3
		s-0.1-0.1-0.1-0.2c-0.1-0.1-0.1-0.2-0.1-0.4c0-0.1-0.1-0.1-0.1-0.1c-0.1-0.1-0.1-0.4-0.1-0.5C655.1,234.1,656.7,232.5,659.1,232.8z
		 M647.3,214.1c-0.4,1.5-1.3,2.4-2.8,2.8c-2.6,0.6-5.2,0.6-7.6-1.1c-1.6-1.2-3-2.5-4.5-4c-6-5.5-12.2-10.8-19.4-14.8
		c-5.9-3.3-12.3-4.8-19.1-4.6c-3.9,0.1-7.6,1-11.3,2.5c-7.7,3.1-14.9,7.3-21.6,12.2c-3,2.1-5.7,4.5-8.4,6.9
		c-2.7,2.5-5.4,4.9-8.4,6.9c-1.1,0.8-2.3,1.5-3.8,1.5c-1.1,0-1.8-0.4-2.5-1.3c-1.6-2.2-2.1-4.5-1.5-7.1c0.4-2,1.1-3.9,2-5.7
		c3.1-6.2,6.7-12,11.5-17.1c1.7-1.8,3.4-3.7,5.2-5.5c10.7-11,23.8-17.8,38.4-21.9c3.2-0.9,6.4-1.1,9.7-0.4c0.5,0.1,1,0.2,1.5,0.4
		c5.7,1.7,7.4,5.7,4.5,11c-0.1,0.4-0.3,0.6-0.6,1.3c7,0.9,13.2,3.3,19,6.5c2.3,1.3,4.5,2.8,6.2,4.8c4.1,4.9,8.1,9.9,11,15.6
		c1.2,2.4,1.8,4.9,2.4,7.5C647.7,211.9,647.5,213,647.3,214.1z"/>
</g>
<g>
	<path class="st5" d="M373,305c-2.7-2.5-3.3-5.8-3.5-9.2c-0.1-2,0-4,0.8-5.9c-0.1-0.4-0.1-0.8-0.4-1c-0.2-0.1-0.7,0-1.1,0.1
		s-0.6,0.4-0.9,0.6c-2.3,1.8-4.5,3.6-6.7,5.5c-0.8,0.6-1.6,1.3-2.2,2.1c-1.3,1.4-1.2,2.8,0.4,3.8c3.4,2.1,6.7,4.5,10.4,6
		c0.8,0.4,1.6,0.7,2.5,0.6s1.6-1.1,1.1-1.9C373.3,305.4,373.2,305.2,373,305z"/>
	<path class="st5" d="M401.4,284.9c-1.1-0.1-2.3-0.3-3.3-0.4c-2.1-0.1-3.8,0.5-5.2,1.8c-1.8,1.6-2,2.9-0.5,4.8
		c1.8,2.3,3.7,4.4,4.5,7.3c0.3,1,1.1,1.2,2.1,0.8c2.2-0.7,4-1.9,5.5-3.7c1-1.2,1.6-2.5,1.8-4C406.9,287.8,405,285.3,401.4,284.9z"/>
	<path class="st5" d="M420.8,293.8c-0.5-1-1.3-1.5-2.3-1.8c-0.6-0.2-1.3,0.1-1.6,0.7c-0.2,0.4-0.3,0.9-0.4,1.4c-0.6,3-1.3,6.1-2,9.1
		c-0.2,1-0.4,2-0.6,2.7c-0.1,1.4,0.4,2.3,1.3,2.7c0.2,0,0.5,0,0.7,0c0.3,0,0.5,0,0.8,0c0.5-0.1,1-0.2,1.3-0.5
		c2.2-1.6,4.4-3.3,6.4-5.1c1-0.8,1.1-2,0.2-3C423.1,298.1,421.9,296,420.8,293.8z"/>
	<path class="st5" d="M601.5,290.4c-0.8-1.6-2.1-3.1-4.5-5c0.8,3.7,0.2,6.9,0,10.1c0.8,0.2,1.1-0.2,1.5-0.6c1-0.9,2-1.8,3-2.8
		C601.9,291.6,601.8,291,601.5,290.4z"/>
	<path class="st5" d="M583.2,276.3c-0.4-0.6-1.1-1.1-1.8-1.1c-0.8,0-1.8-0.1-2.6,0c-3,0.4-3.8,1.3-3.6,5c0.1,1.3,0.4,3.1,0.6,5
		c0.1,1.4,0.9,2.3,2.2,2.8c1.8,0.6,3.6,0.8,5.5,0.3c4.2-1.1,5.2-3.5,3-7.3C585.4,279.3,584.2,277.8,583.2,276.3z"/>
	<path class="st5" d="M548.1,298.3c-1.3-2.5-2-5.1-1.7-8c0.1-0.8,0.1-1.5,0.2-2.3c0-0.2-0.1-0.5-0.2-0.6c-0.4-0.3-0.8-0.1-1,0.1
		c-1.2,1.3-2.1,2.9-2.7,4.5c-0.9,2.4-1.3,5-1.6,7.6c-0.1,0.6,0.4,1.2,0.9,1.6c0.8,0.5,1.6,1,2.3,1.5c1.5,0.8,3,1.6,4.7,2.1
		c0.2,0.1,0.5,0.1,0.7,0.1c0.4-0.1,0.7-0.2,1-0.4c0.4-0.4,0.4-0.8,0.1-1.3C549.8,301.5,548.8,300,548.1,298.3z"/>
</g>
</svg>
